<?xml version="1.0" encoding="utf-8" standalone="no"?>
<!DOCTYPE svg PUBLIC "-//W3C//DTD SVG 1.1//EN"
  "http://www.w3.org/Graphics/SVG/1.1/DTD/svg11.dtd">
<svg xmlns:xlink="http://www.w3.org/1999/xlink" width="409.97125pt" height="309.639375pt" viewBox="0 0 409.97125 309.639375" xmlns="http://www.w3.org/2000/svg" version="1.1">
 <metadata>
  <rdf:RDF xmlns:dc="http://purl.org/dc/elements/1.1/" xmlns:cc="http://creativecommons.org/ns#" xmlns:rdf="http://www.w3.org/1999/02/22-rdf-syntax-ns#">
   <cc:Work>
    <dc:type rdf:resource="http://purl.org/dc/dcmitype/StillImage"/>
    <dc:date>2023-10-16T10:15:50.903270</dc:date>
    <dc:format>image/svg+xml</dc:format>
    <dc:creator>
     <cc:Agent>
      <dc:title>Matplotlib v3.7.1, https://matplotlib.org/</dc:title>
     </cc:Agent>
    </dc:creator>
   </cc:Work>
  </rdf:RDF>
 </metadata>
 <defs>
  <style type="text/css">*{stroke-linejoin: round; stroke-linecap: butt}</style>
 </defs>
 <g id="figure_1">
  <g id="patch_1">
   <path d="M 0 309.639375 
L 409.97125 309.639375 
L 409.97125 0 
L 0 0 
z
" style="fill: #ffffff"/>
  </g>
  <g id="axes_1">
   <g id="patch_2">
    <path d="M 45.65125 273.312 
L 402.77125 273.312 
L 402.77125 7.2 
L 45.65125 7.2 
z
" style="fill: #ffffff"/>
   </g>
   <g id="matplotlib.axis_1">
    <g id="xtick_1">
     <g id="line2d_1">
      <defs>
       <path id="mc99c767d4d" d="M 0 0 
L 0 4.8 
" style="stroke: #262626"/>
      </defs>
      <g>
       <use xlink:href="#mc99c767d4d" x="61.883977" y="273.312" style="fill: #262626; stroke: #262626"/>
      </g>
     </g>
     <g id="text_1">
      <!-- 0.0 -->
      <g style="fill: #262626" transform="translate(55.767977 287.910875) scale(0.088 -0.088)">
       <defs>
        <path id="ArialMT-30" d="M 266 2259 
Q 266 3072 433 3567 
Q 600 4063 929 4331 
Q 1259 4600 1759 4600 
Q 2128 4600 2406 4451 
Q 2684 4303 2865 4023 
Q 3047 3744 3150 3342 
Q 3253 2941 3253 2259 
Q 3253 1453 3087 958 
Q 2922 463 2592 192 
Q 2263 -78 1759 -78 
Q 1097 -78 719 397 
Q 266 969 266 2259 
z
M 844 2259 
Q 844 1131 1108 757 
Q 1372 384 1759 384 
Q 2147 384 2411 759 
Q 2675 1134 2675 2259 
Q 2675 3391 2411 3762 
Q 2147 4134 1753 4134 
Q 1366 4134 1134 3806 
Q 844 3388 844 2259 
z
" transform="scale(0.015625)"/>
        <path id="ArialMT-2e" d="M 581 0 
L 581 641 
L 1222 641 
L 1222 0 
L 581 0 
z
" transform="scale(0.015625)"/>
       </defs>
       <use xlink:href="#ArialMT-30"/>
       <use xlink:href="#ArialMT-2e" x="55.615234"/>
       <use xlink:href="#ArialMT-30" x="83.398438"/>
      </g>
     </g>
    </g>
    <g id="xtick_2">
     <g id="line2d_2">
      <g>
       <use xlink:href="#mc99c767d4d" x="126.814886" y="273.312" style="fill: #262626; stroke: #262626"/>
      </g>
     </g>
     <g id="text_2">
      <!-- 0.2 -->
      <g style="fill: #262626" transform="translate(120.698886 287.910875) scale(0.088 -0.088)">
       <defs>
        <path id="ArialMT-32" d="M 3222 541 
L 3222 0 
L 194 0 
Q 188 203 259 391 
Q 375 700 629 1000 
Q 884 1300 1366 1694 
Q 2113 2306 2375 2664 
Q 2638 3022 2638 3341 
Q 2638 3675 2398 3904 
Q 2159 4134 1775 4134 
Q 1369 4134 1125 3890 
Q 881 3647 878 3216 
L 300 3275 
Q 359 3922 746 4261 
Q 1134 4600 1788 4600 
Q 2447 4600 2831 4234 
Q 3216 3869 3216 3328 
Q 3216 3053 3103 2787 
Q 2991 2522 2730 2228 
Q 2469 1934 1863 1422 
Q 1356 997 1212 845 
Q 1069 694 975 541 
L 3222 541 
z
" transform="scale(0.015625)"/>
       </defs>
       <use xlink:href="#ArialMT-30"/>
       <use xlink:href="#ArialMT-2e" x="55.615234"/>
       <use xlink:href="#ArialMT-32" x="83.398438"/>
      </g>
     </g>
    </g>
    <g id="xtick_3">
     <g id="line2d_3">
      <g>
       <use xlink:href="#mc99c767d4d" x="191.745795" y="273.312" style="fill: #262626; stroke: #262626"/>
      </g>
     </g>
     <g id="text_3">
      <!-- 0.4 -->
      <g style="fill: #262626" transform="translate(185.629795 287.910875) scale(0.088 -0.088)">
       <defs>
        <path id="ArialMT-34" d="M 2069 0 
L 2069 1097 
L 81 1097 
L 81 1613 
L 2172 4581 
L 2631 4581 
L 2631 1613 
L 3250 1613 
L 3250 1097 
L 2631 1097 
L 2631 0 
L 2069 0 
z
M 2069 1613 
L 2069 3678 
L 634 1613 
L 2069 1613 
z
" transform="scale(0.015625)"/>
       </defs>
       <use xlink:href="#ArialMT-30"/>
       <use xlink:href="#ArialMT-2e" x="55.615234"/>
       <use xlink:href="#ArialMT-34" x="83.398438"/>
      </g>
     </g>
    </g>
    <g id="xtick_4">
     <g id="line2d_4">
      <g>
       <use xlink:href="#mc99c767d4d" x="256.676705" y="273.312" style="fill: #262626; stroke: #262626"/>
      </g>
     </g>
     <g id="text_4">
      <!-- 0.6 -->
      <g style="fill: #262626" transform="translate(250.560705 287.910875) scale(0.088 -0.088)">
       <defs>
        <path id="ArialMT-36" d="M 3184 3459 
L 2625 3416 
Q 2550 3747 2413 3897 
Q 2184 4138 1850 4138 
Q 1581 4138 1378 3988 
Q 1113 3794 959 3422 
Q 806 3050 800 2363 
Q 1003 2672 1297 2822 
Q 1591 2972 1913 2972 
Q 2475 2972 2870 2558 
Q 3266 2144 3266 1488 
Q 3266 1056 3080 686 
Q 2894 316 2569 119 
Q 2244 -78 1831 -78 
Q 1128 -78 684 439 
Q 241 956 241 2144 
Q 241 3472 731 4075 
Q 1159 4600 1884 4600 
Q 2425 4600 2770 4297 
Q 3116 3994 3184 3459 
z
M 888 1484 
Q 888 1194 1011 928 
Q 1134 663 1356 523 
Q 1578 384 1822 384 
Q 2178 384 2434 671 
Q 2691 959 2691 1453 
Q 2691 1928 2437 2201 
Q 2184 2475 1800 2475 
Q 1419 2475 1153 2201 
Q 888 1928 888 1484 
z
" transform="scale(0.015625)"/>
       </defs>
       <use xlink:href="#ArialMT-30"/>
       <use xlink:href="#ArialMT-2e" x="55.615234"/>
       <use xlink:href="#ArialMT-36" x="83.398438"/>
      </g>
     </g>
    </g>
    <g id="xtick_5">
     <g id="line2d_5">
      <g>
       <use xlink:href="#mc99c767d4d" x="321.607614" y="273.312" style="fill: #262626; stroke: #262626"/>
      </g>
     </g>
     <g id="text_5">
      <!-- 0.8 -->
      <g style="fill: #262626" transform="translate(315.491614 287.910875) scale(0.088 -0.088)">
       <defs>
        <path id="ArialMT-38" d="M 1131 2484 
Q 781 2613 612 2850 
Q 444 3088 444 3419 
Q 444 3919 803 4259 
Q 1163 4600 1759 4600 
Q 2359 4600 2725 4251 
Q 3091 3903 3091 3403 
Q 3091 3084 2923 2848 
Q 2756 2613 2416 2484 
Q 2838 2347 3058 2040 
Q 3278 1734 3278 1309 
Q 3278 722 2862 322 
Q 2447 -78 1769 -78 
Q 1091 -78 675 323 
Q 259 725 259 1325 
Q 259 1772 486 2073 
Q 713 2375 1131 2484 
z
M 1019 3438 
Q 1019 3113 1228 2906 
Q 1438 2700 1772 2700 
Q 2097 2700 2305 2904 
Q 2513 3109 2513 3406 
Q 2513 3716 2298 3927 
Q 2084 4138 1766 4138 
Q 1444 4138 1231 3931 
Q 1019 3725 1019 3438 
z
M 838 1322 
Q 838 1081 952 856 
Q 1066 631 1291 507 
Q 1516 384 1775 384 
Q 2178 384 2440 643 
Q 2703 903 2703 1303 
Q 2703 1709 2433 1975 
Q 2163 2241 1756 2241 
Q 1359 2241 1098 1978 
Q 838 1716 838 1322 
z
" transform="scale(0.015625)"/>
       </defs>
       <use xlink:href="#ArialMT-30"/>
       <use xlink:href="#ArialMT-2e" x="55.615234"/>
       <use xlink:href="#ArialMT-38" x="83.398438"/>
      </g>
     </g>
    </g>
    <g id="xtick_6">
     <g id="line2d_6">
      <g>
       <use xlink:href="#mc99c767d4d" x="386.538523" y="273.312" style="fill: #262626; stroke: #262626"/>
      </g>
     </g>
     <g id="text_6">
      <!-- 1.0 -->
      <g style="fill: #262626" transform="translate(380.422523 287.910875) scale(0.088 -0.088)">
       <defs>
        <path id="ArialMT-31" d="M 2384 0 
L 1822 0 
L 1822 3584 
Q 1619 3391 1289 3197 
Q 959 3003 697 2906 
L 697 3450 
Q 1169 3672 1522 3987 
Q 1875 4303 2022 4600 
L 2384 4600 
L 2384 0 
z
" transform="scale(0.015625)"/>
       </defs>
       <use xlink:href="#ArialMT-31"/>
       <use xlink:href="#ArialMT-2e" x="55.615234"/>
       <use xlink:href="#ArialMT-30" x="83.398438"/>
      </g>
     </g>
    </g>
    <g id="text_7">
     <!-- $x$ -->
     <g style="fill: #262626" transform="translate(221.33125 300.531375) scale(0.096 -0.096)">
      <defs>
       <path id="DejaVuSans-Oblique-78" d="M 3841 3500 
L 2234 1784 
L 3219 0 
L 2559 0 
L 1819 1388 
L 531 0 
L -166 0 
L 1556 1844 
L 641 3500 
L 1300 3500 
L 1972 2234 
L 3144 3500 
L 3841 3500 
z
" transform="scale(0.015625)"/>
      </defs>
      <use xlink:href="#DejaVuSans-Oblique-78" transform="translate(0 0.3125)"/>
     </g>
    </g>
   </g>
   <g id="matplotlib.axis_2">
    <g id="ytick_1">
     <g id="line2d_7">
      <defs>
       <path id="m38bc35e982" d="M 0 0 
L -4.8 0 
" style="stroke: #262626"/>
      </defs>
      <g>
       <use xlink:href="#m38bc35e982" x="45.65125" y="251.8775" style="fill: #262626; stroke: #262626"/>
      </g>
     </g>
     <g id="text_8">
      <!-- −2.0 -->
      <g style="fill: #262626" transform="translate(19.9795 255.026938) scale(0.088 -0.088)">
       <defs>
        <path id="ArialMT-2212" d="M 3381 1997 
L 356 1997 
L 356 2522 
L 3381 2522 
L 3381 1997 
z
" transform="scale(0.015625)"/>
       </defs>
       <use xlink:href="#ArialMT-2212"/>
       <use xlink:href="#ArialMT-32" x="58.398438"/>
       <use xlink:href="#ArialMT-2e" x="114.013672"/>
       <use xlink:href="#ArialMT-30" x="141.796875"/>
      </g>
     </g>
    </g>
    <g id="ytick_2">
     <g id="line2d_8">
      <g>
       <use xlink:href="#m38bc35e982" x="45.65125" y="222.022272" style="fill: #262626; stroke: #262626"/>
      </g>
     </g>
     <g id="text_9">
      <!-- −1.5 -->
      <g style="fill: #262626" transform="translate(19.9795 225.17171) scale(0.088 -0.088)">
       <defs>
        <path id="ArialMT-35" d="M 266 1200 
L 856 1250 
Q 922 819 1161 601 
Q 1400 384 1738 384 
Q 2144 384 2425 690 
Q 2706 997 2706 1503 
Q 2706 1984 2436 2262 
Q 2166 2541 1728 2541 
Q 1456 2541 1237 2417 
Q 1019 2294 894 2097 
L 366 2166 
L 809 4519 
L 3088 4519 
L 3088 3981 
L 1259 3981 
L 1013 2750 
Q 1425 3038 1878 3038 
Q 2478 3038 2890 2622 
Q 3303 2206 3303 1553 
Q 3303 931 2941 478 
Q 2500 -78 1738 -78 
Q 1113 -78 717 272 
Q 322 622 266 1200 
z
" transform="scale(0.015625)"/>
       </defs>
       <use xlink:href="#ArialMT-2212"/>
       <use xlink:href="#ArialMT-31" x="58.398438"/>
       <use xlink:href="#ArialMT-2e" x="114.013672"/>
       <use xlink:href="#ArialMT-35" x="141.796875"/>
      </g>
     </g>
    </g>
    <g id="ytick_3">
     <g id="line2d_9">
      <g>
       <use xlink:href="#m38bc35e982" x="45.65125" y="192.167044" style="fill: #262626; stroke: #262626"/>
      </g>
     </g>
     <g id="text_10">
      <!-- −1.0 -->
      <g style="fill: #262626" transform="translate(19.9795 195.316482) scale(0.088 -0.088)">
       <use xlink:href="#ArialMT-2212"/>
       <use xlink:href="#ArialMT-31" x="58.398438"/>
       <use xlink:href="#ArialMT-2e" x="114.013672"/>
       <use xlink:href="#ArialMT-30" x="141.796875"/>
      </g>
     </g>
    </g>
    <g id="ytick_4">
     <g id="line2d_10">
      <g>
       <use xlink:href="#m38bc35e982" x="45.65125" y="162.311816" style="fill: #262626; stroke: #262626"/>
      </g>
     </g>
     <g id="text_11">
      <!-- −0.5 -->
      <g style="fill: #262626" transform="translate(19.9795 165.461254) scale(0.088 -0.088)">
       <use xlink:href="#ArialMT-2212"/>
       <use xlink:href="#ArialMT-30" x="58.398438"/>
       <use xlink:href="#ArialMT-2e" x="114.013672"/>
       <use xlink:href="#ArialMT-35" x="141.796875"/>
      </g>
     </g>
    </g>
    <g id="ytick_5">
     <g id="line2d_11">
      <g>
       <use xlink:href="#m38bc35e982" x="45.65125" y="132.456588" style="fill: #262626; stroke: #262626"/>
      </g>
     </g>
     <g id="text_12">
      <!-- 0.0 -->
      <g style="fill: #262626" transform="translate(25.11925 135.606026) scale(0.088 -0.088)">
       <use xlink:href="#ArialMT-30"/>
       <use xlink:href="#ArialMT-2e" x="55.615234"/>
       <use xlink:href="#ArialMT-30" x="83.398438"/>
      </g>
     </g>
    </g>
    <g id="ytick_6">
     <g id="line2d_12">
      <g>
       <use xlink:href="#m38bc35e982" x="45.65125" y="102.60136" style="fill: #262626; stroke: #262626"/>
      </g>
     </g>
     <g id="text_13">
      <!-- 0.5 -->
      <g style="fill: #262626" transform="translate(25.11925 105.750797) scale(0.088 -0.088)">
       <use xlink:href="#ArialMT-30"/>
       <use xlink:href="#ArialMT-2e" x="55.615234"/>
       <use xlink:href="#ArialMT-35" x="83.398438"/>
      </g>
     </g>
    </g>
    <g id="ytick_7">
     <g id="line2d_13">
      <g>
       <use xlink:href="#m38bc35e982" x="45.65125" y="72.746132" style="fill: #262626; stroke: #262626"/>
      </g>
     </g>
     <g id="text_14">
      <!-- 1.0 -->
      <g style="fill: #262626" transform="translate(25.11925 75.895569) scale(0.088 -0.088)">
       <use xlink:href="#ArialMT-31"/>
       <use xlink:href="#ArialMT-2e" x="55.615234"/>
       <use xlink:href="#ArialMT-30" x="83.398438"/>
      </g>
     </g>
    </g>
    <g id="ytick_8">
     <g id="line2d_14">
      <g>
       <use xlink:href="#m38bc35e982" x="45.65125" y="42.890904" style="fill: #262626; stroke: #262626"/>
      </g>
     </g>
     <g id="text_15">
      <!-- 1.5 -->
      <g style="fill: #262626" transform="translate(25.11925 46.040341) scale(0.088 -0.088)">
       <use xlink:href="#ArialMT-31"/>
       <use xlink:href="#ArialMT-2e" x="55.615234"/>
       <use xlink:href="#ArialMT-35" x="83.398438"/>
      </g>
     </g>
    </g>
    <g id="ytick_9">
     <g id="line2d_15">
      <g>
       <use xlink:href="#m38bc35e982" x="45.65125" y="13.035676" style="fill: #262626; stroke: #262626"/>
      </g>
     </g>
     <g id="text_16">
      <!-- 2.0 -->
      <g style="fill: #262626" transform="translate(25.11925 16.185113) scale(0.088 -0.088)">
       <use xlink:href="#ArialMT-32"/>
       <use xlink:href="#ArialMT-2e" x="55.615234"/>
       <use xlink:href="#ArialMT-30" x="83.398438"/>
      </g>
     </g>
    </g>
    <g id="text_17">
     <!-- $y$ -->
     <g style="fill: #262626" transform="translate(13.9635 143.136) rotate(-90) scale(0.096 -0.096)">
      <defs>
       <path id="DejaVuSans-Oblique-79" d="M 1588 -325 
Q 1188 -997 936 -1164 
Q 684 -1331 294 -1331 
L -159 -1331 
L -63 -850 
L 269 -850 
Q 509 -850 678 -719 
Q 847 -588 1056 -206 
L 1234 128 
L 459 3500 
L 1069 3500 
L 1650 819 
L 3256 3500 
L 3859 3500 
L 1588 -325 
z
" transform="scale(0.015625)"/>
      </defs>
      <use xlink:href="#DejaVuSans-Oblique-79" transform="translate(0 0.3125)"/>
     </g>
    </g>
   </g>
   <g id="PolyCollection_1">
    <defs>
     <path id="m825105ad4b" d="M 61.883977 -282.107154 
L 61.883977 -104.641236 
L 65.163316 -106.904923 
L 68.442655 -109.371694 
L 71.721994 -112.02209 
L 75.001333 -114.825017 
L 78.280671 -117.736403 
L 81.560011 -120.697964 
L 84.839348 -123.636907 
L 88.118688 -126.46668 
L 91.398028 -129.088063 
L 94.677365 -131.392176 
L 97.956705 -133.264125 
L 101.236045 -134.587952 
L 104.515382 -135.253852 
L 107.794719 -135.165382 
L 111.074061 -134.248995 
L 114.353399 -132.463061 
L 117.632736 -129.808316 
L 120.912078 -126.334036 
L 124.191416 -122.140214 
L 127.470753 -117.371283 
L 130.750095 -112.199585 
L 134.029432 -106.801697 
L 137.30877 -101.332443 
L 140.588112 -95.906154 
L 143.867444 -90.595896 
L 147.146787 -85.455503 
L 150.426129 -80.55886 
L 153.705461 -76.030363 
L 156.984803 -72.04705 
L 160.264145 -68.811673 
L 163.543478 -66.518446 
L 166.82282 -65.326466 
L 170.102162 -65.344055 
L 173.381495 -66.621401 
L 176.660837 -69.147964 
L 179.940179 -72.851645 
L 183.219512 -77.599727 
L 186.498854 -83.199931 
L 189.778196 -89.403069 
L 193.057528 -95.909436 
L 196.336871 -102.382653 
L 199.616213 -108.478885 
L 202.895545 -113.89523 
L 206.174887 -118.428825 
L 209.45423 -122.020702 
L 212.733562 -124.756792 
L 216.012904 -126.828106 
L 219.292246 -128.476146 
L 222.571579 -129.948029 
L 225.850931 -131.468724 
L 229.130254 -133.226136 
L 232.409596 -135.363691 
L 235.688938 -137.975791 
L 238.968261 -141.104679 
L 242.247622 -144.737934 
L 245.526945 -148.806451 
L 248.806287 -153.184552 
L 252.085629 -157.693295 
L 255.364972 -162.112785 
L 258.644314 -166.207643 
L 261.923637 -169.770265 
L 265.202998 -172.672572 
L 268.482321 -174.90169 
L 271.761663 -176.556296 
L 275.041005 -177.803978 
L 278.320328 -178.8284 
L 281.59969 -179.788616 
L 284.879012 -180.798819 
L 288.158355 -181.922715 
L 291.437697 -183.176199 
L 294.717039 -184.532285 
L 297.996381 -185.927478 
L 301.275704 -187.266699 
L 304.555065 -188.425674 
L 307.834388 -189.253387 
L 311.11373 -189.574448 
L 314.393072 -189.202512 
L 317.672395 -187.981526 
L 320.951757 -185.857901 
L 324.23108 -182.950769 
L 327.510422 -179.5409 
L 330.789764 -175.98363 
L 334.069106 -172.613962 
L 337.348448 -169.696884 
L 340.627771 -167.415212 
L 343.907113 -165.873458 
L 347.186455 -165.104352 
L 350.465798 -165.074478 
L 353.74514 -165.688544 
L 357.024463 -166.793385 
L 360.303805 -168.184049 
L 363.583147 -169.618516 
L 366.862489 -170.841354 
L 370.141831 -171.614569 
L 373.421173 -171.756487 
L 376.700516 -171.158186 
L 379.979838 -169.784665 
L 383.259181 -167.661407 
L 386.538523 -164.854557 
L 386.538523 -256.193911 
L 386.538523 -256.193911 
L 383.259181 -251.12635 
L 379.979838 -246.102052 
L 376.700516 -241.29746 
L 373.421173 -236.878356 
L 370.141831 -232.975189 
L 366.862489 -229.662353 
L 363.583147 -226.950578 
L 360.303805 -224.796534 
L 357.024463 -223.129059 
L 353.74514 -221.871045 
L 350.465798 -220.955316 
L 347.186455 -220.329754 
L 343.907113 -219.958719 
L 340.627771 -219.822223 
L 337.348448 -219.91984 
L 334.069106 -220.276628 
L 330.789764 -220.954241 
L 327.510422 -222.061167 
L 324.23108 -223.747211 
L 320.951757 -226.164355 
L 317.672395 -229.38208 
L 314.393072 -233.30985 
L 311.11373 -237.697112 
L 307.834388 -242.211217 
L 304.555065 -246.517874 
L 301.275704 -250.327834 
L 297.996381 -253.412764 
L 294.717039 -255.610374 
L 291.437697 -256.824214 
L 288.158355 -257.024515 
L 284.879012 -256.248079 
L 281.59969 -254.59868 
L 278.320328 -252.245605 
L 275.041005 -249.419116 
L 271.761663 -246.39775 
L 268.482321 -243.481239 
L 265.202998 -240.943921 
L 261.923637 -238.976195 
L 258.644314 -237.638559 
L 255.364972 -236.854265 
L 252.085629 -236.443821 
L 248.806287 -236.17615 
L 245.526945 -235.812426 
L 242.247622 -235.133581 
L 238.968261 -233.955104 
L 235.688938 -232.134356 
L 232.409596 -229.574694 
L 229.130254 -226.228645 
L 225.850931 -222.100826 
L 222.571579 -217.250233 
L 219.292246 -211.792162 
L 216.012904 -205.895888 
L 212.733562 -199.775535 
L 209.45423 -193.667389 
L 206.174887 -187.788839 
L 202.895545 -182.287152 
L 199.616213 -177.201394 
L 196.336871 -172.463661 
L 193.057528 -167.941594 
L 189.778196 -163.494253 
L 186.498854 -159.015386 
L 183.219512 -154.455651 
L 179.940179 -149.828447 
L 176.660837 -145.205902 
L 173.381495 -140.711311 
L 170.102162 -136.509129 
L 166.82282 -132.794676 
L 163.543478 -129.783527 
L 160.264145 -127.699909 
L 156.984803 -126.762036 
L 153.705461 -127.162626 
L 150.426129 -129.03998 
L 147.146787 -132.444653 
L 143.867444 -137.316668 
L 140.588112 -143.493846 
L 137.30877 -150.75163 
L 134.029432 -158.853495 
L 130.750095 -167.584737 
L 127.470753 -176.764997 
L 124.191416 -186.242131 
L 120.912078 -195.87887 
L 117.632736 -205.539518 
L 114.353399 -215.08259 
L 111.074061 -224.361266 
L 107.794719 -233.229374 
L 104.515382 -241.55015 
L 101.236045 -249.204941 
L 97.956705 -256.100174 
L 94.677365 -262.171243 
L 91.398028 -267.384326 
L 88.118688 -271.735734 
L 84.839348 -275.249249 
L 81.560011 -277.972362 
L 78.280671 -279.971393 
L 75.001333 -281.326504 
L 71.721994 -282.126301 
L 68.442655 -282.462935 
L 65.163316 -282.427658 
L 61.883977 -282.107154 
z
" style="stroke: #1f77b4; stroke-opacity: 0.5; stroke-width: 0.8"/>
    </defs>
    <g clip-path="url(#p7bb3843f34)">
     <use xlink:href="#m825105ad4b" x="0" y="309.639375" style="fill: #1f77b4; fill-opacity: 0.5; stroke: #1f77b4; stroke-opacity: 0.5; stroke-width: 0.8"/>
    </g>
   </g>
   <g id="PolyCollection_2">
    <defs>
     <path id="m6c4a2875ed" d="M 61.883977 -104.641236 
L 61.883977 -96.93938 
L 65.163316 -99.124705 
L 68.442655 -101.491254 
L 71.721994 -104.015091 
L 75.001333 -106.660098 
L 78.280671 -109.37662 
L 81.560011 -112.100167 
L 84.839348 -114.751218 
L 88.118688 -117.236012 
L 91.398028 -119.447872 
L 94.677365 -121.270607 
L 97.956705 -122.582849 
L 101.236045 -123.264096 
L 104.515382 -123.203372 
L 107.794719 -122.308186 
L 111.074061 -120.515753 
L 114.353399 -117.802907 
L 117.632736 -114.195512 
L 120.912078 -109.771707 
L 124.191416 -104.659373 
L 127.470753 -99.026091 
L 130.750095 -93.062532 
L 134.029432 -86.963852 
L 137.30877 -80.912228 
L 140.588112 -75.065007 
L 143.867444 -69.550845 
L 147.146787 -64.473903 
L 150.426129 -59.924706 
L 153.705461 -55.992073 
L 156.984803 -52.772285 
L 160.264145 -50.369561 
L 163.543478 -48.888895 
L 166.82282 -48.423375 
L 170.102162 -49.039683 
L 173.381495 -50.765837 
L 176.660837 -53.58273 
L 179.940179 -57.418871 
L 183.219512 -62.149642 
L 186.498854 -67.59942 
L 189.778196 -73.547704 
L 193.057528 -79.740328 
L 196.336871 -85.906438 
L 199.616213 -91.783007 
L 202.895545 -97.145142 
L 206.174887 -101.836635 
L 209.45423 -105.791697 
L 212.733562 -109.039403 
L 216.012904 -111.689663 
L 219.292246 -113.906712 
L 222.571579 -115.879513 
L 225.850931 -117.795963 
L 229.130254 -119.823277 
L 232.409596 -122.094829 
L 235.688938 -124.701164 
L 238.968261 -127.684791 
L 242.247622 -131.037719 
L 245.526945 -134.701749 
L 248.806287 -138.572981 
L 252.085629 -142.51082 
L 255.364972 -146.354366 
L 258.644314 -149.944937 
L 261.923637 -153.153113 
L 265.202998 -155.902652 
L 268.482321 -158.182404 
L 271.761663 -160.041697 
L 275.041005 -161.570047 
L 278.320328 -162.871481 
L 281.59969 -164.040363 
L 284.879012 -165.14477 
L 288.158355 -166.217576 
L 291.437697 -167.254184 
L 294.717039 -168.214226 
L 297.996381 -169.027242 
L 301.275704 -169.600596 
L 304.555065 -169.829235 
L 307.834388 -169.609981 
L 311.11373 -168.857626 
L 314.393072 -167.524043 
L 317.672395 -165.616308 
L 320.951757 -163.205894 
L 324.23108 -160.427865 
L 327.510422 -157.463653 
L 330.789764 -154.517549 
L 334.069106 -151.790307 
L 337.348448 -149.457266 
L 340.627771 -147.653957 
L 343.907113 -146.467845 
L 347.186455 -145.934615 
L 350.465798 -146.038282 
L 353.74514 -146.713311 
L 357.024463 -147.848991 
L 360.303805 -149.295178 
L 363.583147 -150.872767 
L 366.862489 -152.386283 
L 370.141831 -153.638772 
L 373.421173 -154.45411 
L 376.700516 -154.691284 
L 379.979838 -154.257036 
L 383.259181 -153.111248 
L 386.538523 -151.263327 
L 386.538523 -164.854557 
L 386.538523 -164.854557 
L 383.259181 -167.661407 
L 379.979838 -169.784665 
L 376.700516 -171.158186 
L 373.421173 -171.756487 
L 370.141831 -171.614569 
L 366.862489 -170.841354 
L 363.583147 -169.618516 
L 360.303805 -168.184049 
L 357.024463 -166.793385 
L 353.74514 -165.688544 
L 350.465798 -165.074478 
L 347.186455 -165.104352 
L 343.907113 -165.873458 
L 340.627771 -167.415212 
L 337.348448 -169.696884 
L 334.069106 -172.613962 
L 330.789764 -175.98363 
L 327.510422 -179.5409 
L 324.23108 -182.950769 
L 320.951757 -185.857901 
L 317.672395 -187.981526 
L 314.393072 -189.202512 
L 311.11373 -189.574448 
L 307.834388 -189.253387 
L 304.555065 -188.425674 
L 301.275704 -187.266699 
L 297.996381 -185.927478 
L 294.717039 -184.532285 
L 291.437697 -183.176199 
L 288.158355 -181.922715 
L 284.879012 -180.798819 
L 281.59969 -179.788616 
L 278.320328 -178.8284 
L 275.041005 -177.803978 
L 271.761663 -176.556296 
L 268.482321 -174.90169 
L 265.202998 -172.672572 
L 261.923637 -169.770265 
L 258.644314 -166.207643 
L 255.364972 -162.112785 
L 252.085629 -157.693295 
L 248.806287 -153.184552 
L 245.526945 -148.806451 
L 242.247622 -144.737934 
L 238.968261 -141.104679 
L 235.688938 -137.975791 
L 232.409596 -135.363691 
L 229.130254 -133.226136 
L 225.850931 -131.468724 
L 222.571579 -129.948029 
L 219.292246 -128.476146 
L 216.012904 -126.828106 
L 212.733562 -124.756792 
L 209.45423 -122.020702 
L 206.174887 -118.428825 
L 202.895545 -113.89523 
L 199.616213 -108.478885 
L 196.336871 -102.382653 
L 193.057528 -95.909436 
L 189.778196 -89.403069 
L 186.498854 -83.199931 
L 183.219512 -77.599727 
L 179.940179 -72.851645 
L 176.660837 -69.147964 
L 173.381495 -66.621401 
L 170.102162 -65.344055 
L 166.82282 -65.326466 
L 163.543478 -66.518446 
L 160.264145 -68.811673 
L 156.984803 -72.04705 
L 153.705461 -76.030363 
L 150.426129 -80.55886 
L 147.146787 -85.455503 
L 143.867444 -90.595896 
L 140.588112 -95.906154 
L 137.30877 -101.332443 
L 134.029432 -106.801697 
L 130.750095 -112.199585 
L 127.470753 -117.371283 
L 124.191416 -122.140214 
L 120.912078 -126.334036 
L 117.632736 -129.808316 
L 114.353399 -132.463061 
L 111.074061 -134.248995 
L 107.794719 -135.165382 
L 104.515382 -135.253852 
L 101.236045 -134.587952 
L 97.956705 -133.264125 
L 94.677365 -131.392176 
L 91.398028 -129.088063 
L 88.118688 -126.46668 
L 84.839348 -123.636907 
L 81.560011 -120.697964 
L 78.280671 -117.736403 
L 75.001333 -114.825017 
L 71.721994 -112.02209 
L 68.442655 -109.371694 
L 65.163316 -106.904923 
L 61.883977 -104.641236 
z
" style="stroke: #ff7f0e; stroke-opacity: 0.5; stroke-width: 0.8"/>
    </defs>
    <g clip-path="url(#p7bb3843f34)">
     <use xlink:href="#m6c4a2875ed" x="0" y="309.639375" style="fill: #ff7f0e; fill-opacity: 0.5; stroke: #ff7f0e; stroke-opacity: 0.5; stroke-width: 0.8"/>
    </g>
   </g>
   <g id="PolyCollection_3">
    <defs>
     <path id="m33c7a56b8a" d="M 61.883977 -289.809009 
L 61.883977 -282.107154 
L 65.163316 -282.427658 
L 68.442655 -282.462935 
L 71.721994 -282.126301 
L 75.001333 -281.326504 
L 78.280671 -279.971393 
L 81.560011 -277.972362 
L 84.839348 -275.249249 
L 88.118688 -271.735734 
L 91.398028 -267.384326 
L 94.677365 -262.171243 
L 97.956705 -256.100174 
L 101.236045 -249.204941 
L 104.515382 -241.55015 
L 107.794719 -233.229374 
L 111.074061 -224.361266 
L 114.353399 -215.08259 
L 117.632736 -205.539518 
L 120.912078 -195.87887 
L 124.191416 -186.242131 
L 127.470753 -176.764997 
L 130.750095 -167.584737 
L 134.029432 -158.853495 
L 137.30877 -150.75163 
L 140.588112 -143.493846 
L 143.867444 -137.316668 
L 147.146787 -132.444653 
L 150.426129 -129.03998 
L 153.705461 -127.162626 
L 156.984803 -126.762036 
L 160.264145 -127.699909 
L 163.543478 -129.783527 
L 166.82282 -132.794676 
L 170.102162 -136.509129 
L 173.381495 -140.711311 
L 176.660837 -145.205902 
L 179.940179 -149.828447 
L 183.219512 -154.455651 
L 186.498854 -159.015386 
L 189.778196 -163.494253 
L 193.057528 -167.941594 
L 196.336871 -172.463661 
L 199.616213 -177.201394 
L 202.895545 -182.287152 
L 206.174887 -187.788839 
L 209.45423 -193.667389 
L 212.733562 -199.775535 
L 216.012904 -205.895888 
L 219.292246 -211.792162 
L 222.571579 -217.250233 
L 225.850931 -222.100826 
L 229.130254 -226.228645 
L 232.409596 -229.574694 
L 235.688938 -232.134356 
L 238.968261 -233.955104 
L 242.247622 -235.133581 
L 245.526945 -235.812426 
L 248.806287 -236.17615 
L 252.085629 -236.443821 
L 255.364972 -236.854265 
L 258.644314 -237.638559 
L 261.923637 -238.976195 
L 265.202998 -240.943921 
L 268.482321 -243.481239 
L 271.761663 -246.39775 
L 275.041005 -249.419116 
L 278.320328 -252.245605 
L 281.59969 -254.59868 
L 284.879012 -256.248079 
L 288.158355 -257.024515 
L 291.437697 -256.824214 
L 294.717039 -255.610374 
L 297.996381 -253.412764 
L 301.275704 -250.327834 
L 304.555065 -246.517874 
L 307.834388 -242.211217 
L 311.11373 -237.697112 
L 314.393072 -233.30985 
L 317.672395 -229.38208 
L 320.951757 -226.164355 
L 324.23108 -223.747211 
L 327.510422 -222.061167 
L 330.789764 -220.954241 
L 334.069106 -220.276628 
L 337.348448 -219.91984 
L 340.627771 -219.822223 
L 343.907113 -219.958719 
L 347.186455 -220.329754 
L 350.465798 -220.955316 
L 353.74514 -221.871045 
L 357.024463 -223.129059 
L 360.303805 -224.796534 
L 363.583147 -226.950578 
L 366.862489 -229.662353 
L 370.141831 -232.975189 
L 373.421173 -236.878356 
L 376.700516 -241.29746 
L 379.979838 -246.102052 
L 383.259181 -251.12635 
L 386.538523 -256.193911 
L 386.538523 -269.785141 
L 386.538523 -269.785141 
L 383.259181 -265.676508 
L 379.979838 -261.629681 
L 376.700516 -257.764364 
L 373.421173 -254.18073 
L 370.141831 -250.950983 
L 366.862489 -248.117426 
L 363.583147 -245.696324 
L 360.303805 -243.685406 
L 357.024463 -242.073454 
L 353.74514 -240.846276 
L 350.465798 -239.991513 
L 347.186455 -239.499492 
L 343.907113 -239.364328 
L 340.627771 -239.583478 
L 337.348448 -240.159456 
L 334.069106 -241.100283 
L 330.789764 -242.420324 
L 327.510422 -244.138412 
L 324.23108 -246.270116 
L 320.951757 -248.81636 
L 317.672395 -251.747299 
L 314.393072 -254.988314 
L 311.11373 -258.413936 
L 307.834388 -261.854619 
L 304.555065 -265.114311 
L 301.275704 -267.993929 
L 297.996381 -270.313001 
L 294.717039 -271.928433 
L 291.437697 -272.746232 
L 288.158355 -272.729661 
L 284.879012 -271.902125 
L 281.59969 -270.346933 
L 278.320328 -268.202523 
L 275.041005 -265.653047 
L 271.761663 -262.912345 
L 268.482321 -260.200528 
L 265.202998 -257.713841 
L 261.923637 -255.593348 
L 258.644314 -253.901261 
L 255.364972 -252.612689 
L 252.085629 -251.626293 
L 248.806287 -250.787716 
L 245.526945 -249.917123 
L 242.247622 -248.8338 
L 238.968261 -247.374993 
L 235.688938 -245.408976 
L 232.409596 -242.843555 
L 229.130254 -239.631497 
L 225.850931 -235.773586 
L 222.571579 -231.318749 
L 219.292246 -226.361596 
L 216.012904 -221.034326 
L 212.733562 -215.492927 
L 209.45423 -209.8964 
L 206.174887 -204.381028 
L 202.895545 -199.037234 
L 199.616213 -193.897275 
L 196.336871 -188.939876 
L 193.057528 -184.110698 
L 189.778196 -179.349618 
L 186.498854 -174.615893 
L 183.219512 -169.905736 
L 179.940179 -165.261214 
L 176.660837 -160.771129 
L 173.381495 -156.566869 
L 170.102162 -152.813511 
L 166.82282 -149.697763 
L 163.543478 -147.413071 
L 160.264145 -146.142028 
L 156.984803 -146.036805 
L 153.705461 -147.200908 
L 150.426129 -149.674135 
L 147.146787 -153.426257 
L 143.867444 -158.361722 
L 140.588112 -164.33499 
L 137.30877 -171.171843 
L 134.029432 -178.691338 
L 130.750095 -186.721791 
L 127.470753 -195.110193 
L 124.191416 -203.722972 
L 120.912078 -212.441203 
L 117.632736 -221.152318 
L 114.353399 -229.742751 
L 111.074061 -238.094512 
L 107.794719 -246.086577 
L 104.515382 -253.600631 
L 101.236045 -260.528798 
L 97.956705 -266.781449 
L 94.677365 -272.292813 
L 91.398028 -277.024517 
L 88.118688 -280.966402 
L 84.839348 -284.134941 
L 81.560011 -286.570158 
L 78.280671 -288.331176 
L 75.001333 -289.49141 
L 71.721994 -290.133286 
L 68.442655 -290.343375 
L 65.163316 -290.207876 
L 61.883977 -289.809009 
z
" style="stroke: #ff7f0e; stroke-opacity: 0.5; stroke-width: 0.8"/>
    </defs>
    <g clip-path="url(#p7bb3843f34)">
     <use xlink:href="#m33c7a56b8a" x="0" y="309.639375" style="fill: #ff7f0e; fill-opacity: 0.5; stroke: #ff7f0e; stroke-opacity: 0.5; stroke-width: 0.8"/>
    </g>
   </g>
   <g id="line2d_16">
    <defs>
     <path id="m058b6f321e" d="M -5 5 
L 5 -5 
M -5 -5 
L 5 5 
" style="stroke: #000000; stroke-width: 2"/>
    </defs>
    <g clip-path="url(#p7bb3843f34)">
     <use xlink:href="#m058b6f321e" x="124.061639" y="141.270165" style="stroke: #000000; stroke-width: 2"/>
     <use xlink:href="#m058b6f321e" x="263.854413" y="104.002037" style="stroke: #000000; stroke-width: 2"/>
     <use xlink:href="#m058b6f321e" x="203.994281" y="158.696618" style="stroke: #000000; stroke-width: 2"/>
     <use xlink:href="#m058b6f321e" x="316.854219" y="87.789556" style="stroke: #000000; stroke-width: 2"/>
     <use xlink:href="#m058b6f321e" x="315.106676" y="85.646421" style="stroke: #000000; stroke-width: 2"/>
     <use xlink:href="#m058b6f321e" x="150.382405" y="236.579129" style="stroke: #000000; stroke-width: 2"/>
     <use xlink:href="#m058b6f321e" x="151.639354" y="198.498606" style="stroke: #000000; stroke-width: 2"/>
     <use xlink:href="#m058b6f321e" x="322.21543" y="120.117225" style="stroke: #000000; stroke-width: 2"/>
     <use xlink:href="#m058b6f321e" x="372.948276" y="93.558992" style="stroke: #000000; stroke-width: 2"/>
     <use xlink:href="#m058b6f321e" x="346.259488" y="130.026237" style="stroke: #000000; stroke-width: 2"/>
    </g>
   </g>
   <g id="line2d_17">
    <path d="M 61.883977 116.26518 
L 65.163316 114.973083 
L 68.442655 113.722062 
L 71.721994 112.565183 
L 75.001333 111.563618 
L 78.280671 110.785477 
L 81.560011 110.304212 
L 84.839348 110.196299 
L 88.118688 110.538168 
L 91.398028 111.403179 
L 94.677365 112.857663 
L 97.956705 114.957224 
L 101.236045 117.742928 
L 104.515382 121.237372 
L 107.794719 125.441995 
L 111.074061 130.334244 
L 114.353399 135.866548 
L 117.632736 141.965458 
L 120.912078 148.532922 
L 124.191416 155.448202 
L 127.470753 162.571233 
L 130.750095 169.747215 
L 134.029432 176.811778 
L 137.30877 183.597339 
L 140.588112 189.939375 
L 143.867444 195.683093 
L 147.146787 200.689297 
L 150.426129 204.839955 
L 153.705461 208.042881 
L 156.984803 210.234832 
L 160.264145 211.383584 
L 163.543478 211.48839 
L 166.82282 210.578804 
L 170.102162 208.712781 
L 173.381495 205.973019 
L 176.660837 202.462443 
L 179.940179 198.299329 
L 183.219512 193.611686 
L 186.498854 188.531718 
L 189.778196 183.190714 
L 193.057528 177.713862 
L 196.336871 172.216218 
L 199.616213 166.799236 
L 202.895545 161.548186 
L 206.174887 156.530543 
L 209.45423 151.795329 
L 212.733562 147.373212 
L 216.012904 143.277379 
L 219.292246 139.505222 
L 222.571579 136.040242 
L 225.850931 132.854601 
L 229.130254 129.911986 
L 232.409596 127.170182 
L 235.688938 124.584303 
L 238.968261 122.109483 
L 242.247622 119.703617 
L 245.526945 117.329938 
L 248.806287 114.959025 
L 252.085629 112.570817 
L 255.364972 110.155849 
L 258.644314 107.716274 
L 261.923637 105.266145 
L 265.202998 102.831127 
L 268.482321 100.447911 
L 271.761663 98.162354 
L 275.041005 96.027828 
L 278.320328 94.102373 
L 281.59969 92.445727 
L 284.879012 91.115927 
L 288.158355 90.165758 
L 291.437697 89.639169 
L 294.717039 89.568045 
L 297.996381 89.969254 
L 301.275704 90.842111 
L 304.555065 92.1676 
L 307.834388 93.907075 
L 311.11373 96.003594 
L 314.393072 98.383195 
L 317.672395 100.957573 
L 320.951757 103.628248 
L 324.23108 106.290384 
L 327.510422 108.838341 
L 330.789764 111.170439 
L 334.069106 113.19408 
L 337.348448 114.831012 
L 340.627771 116.020658 
L 343.907113 116.723286 
L 347.186455 116.922321 
L 350.465798 116.624477 
L 353.74514 115.85958 
L 357.024463 114.678152 
L 360.303805 113.149083 
L 363.583147 111.354828 
L 366.862489 109.387522 
L 370.141831 107.344497 
L 373.421173 105.321954 
L 376.700516 103.411551 
L 379.979838 101.696016 
L 383.259181 100.245498 
L 386.538523 99.115143 
" clip-path="url(#p7bb3843f34)" style="fill: none; stroke: #1f77b4; stroke-width: 2; stroke-linecap: round"/>
   </g>
   <g id="line2d_18">
    <path d="M 61.883977 192.167044 
L 65.163316 184.578088 
L 68.442655 177.050667 
L 71.721994 169.704532 
L 75.001333 162.655632 
L 78.280671 156.014211 
L 81.560011 149.883062 
L 84.839348 144.355885 
L 88.118688 139.515752 
L 91.398028 135.433808 
L 94.677365 132.168119 
L 97.956705 129.76274 
L 101.236045 128.247035 
L 104.515382 127.635186 
L 107.794719 127.926001 
L 111.074061 129.10293 
L 114.353399 131.134337 
L 117.632736 133.974048 
L 120.912078 137.562074 
L 124.191416 141.82561 
L 127.470753 146.680238 
L 130.750095 152.031265 
L 134.029432 157.77528 
L 137.30877 163.801825 
L 140.588112 169.995254 
L 143.867444 176.236455 
L 147.146787 182.405035 
L 150.426129 188.381008 
L 153.705461 194.046919 
L 156.984803 199.289733 
L 160.264145 204.00261 
L 163.543478 208.0867 
L 166.82282 211.452764 
L 170.102162 214.022591 
L 173.381495 215.730308 
L 176.660837 216.523464 
L 179.940179 216.363899 
L 183.219512 215.228373 
L 186.498854 213.108976 
L 189.778196 210.013269 
L 193.057528 205.964228 
L 196.336871 200.999843 
L 199.616213 195.172552 
L 202.895545 188.548481 
L 206.174887 181.206325 
L 209.45423 173.236155 
L 212.733562 164.73804 
L 216.012904 155.820296 
L 219.292246 146.597963 
L 222.571579 137.191013 
L 225.850931 127.722102 
L 229.130254 118.315187 
L 232.409596 109.092853 
L 235.688938 100.175112 
L 238.968261 91.677025 
L 242.247622 83.706805 
L 245.526945 76.364677 
L 248.806287 69.740603 
L 252.085629 63.913326 
L 255.364972 58.948934 
L 258.644314 54.899893 
L 261.923637 51.804207 
L 265.202998 49.684789 
L 268.482321 48.549277 
L 271.761663 48.389712 
L 275.041005 49.182875 
L 278.320328 50.890578 
L 281.59969 53.460419 
L 284.879012 56.826484 
L 288.158355 60.910581 
L 291.437697 65.623464 
L 294.717039 70.866279 
L 297.996381 76.532204 
L 301.275704 82.508134 
L 304.555065 88.676749 
L 307.834388 94.917929 
L 311.11373 101.111348 
L 314.393072 107.137947 
L 317.672395 112.881916 
L 320.951757 118.23298 
L 324.23108 123.08757 
L 327.510422 127.351116 
L 330.789764 130.939143 
L 334.069106 133.778846 
L 337.348448 135.810253 
L 340.627771 136.987178 
L 343.907113 137.27799 
L 347.186455 136.666137 
L 350.465798 135.150425 
L 353.74514 132.745043 
L 357.024463 129.479371 
L 360.303805 125.397427 
L 363.583147 120.557295 
L 366.862489 115.030111 
L 370.141831 108.898961 
L 373.421173 102.257537 
L 376.700516 95.208577 
L 379.979838 87.862495 
L 383.259181 80.335071 
L 386.538523 72.746111 
" clip-path="url(#p7bb3843f34)" style="fill: none; stroke-dasharray: 7.68,1.92,1.2,1.92; stroke-dashoffset: 0; stroke: #bf00bf; stroke-width: 1.2"/>
   </g>
   <g id="patch_3">
    <path d="M 45.65125 251.8775 
L 45.65125 13.035676 
" style="fill: none; stroke: #262626; stroke-linejoin: miter; stroke-linecap: square"/>
   </g>
   <g id="patch_4">
    <path d="M 61.883977 273.312 
L 386.538523 273.312 
" style="fill: none; stroke: #262626; stroke-linejoin: miter; stroke-linecap: square"/>
   </g>
   <g id="legend_1">
    <g id="line2d_19">
     <g>
      <use xlink:href="#m058b6f321e" x="62.37125" y="18.338875" style="stroke: #000000; stroke-width: 2"/>
     </g>
    </g>
    <g id="text_18">
     <!-- Observations -->
     <g style="fill: #262626" transform="translate(78.21125 21.418875) scale(0.088 -0.088)">
      <defs>
       <path id="ArialMT-4f" d="M 309 2231 
Q 309 3372 921 4017 
Q 1534 4663 2503 4663 
Q 3138 4663 3647 4359 
Q 4156 4056 4423 3514 
Q 4691 2972 4691 2284 
Q 4691 1588 4409 1038 
Q 4128 488 3612 205 
Q 3097 -78 2500 -78 
Q 1853 -78 1343 234 
Q 834 547 571 1087 
Q 309 1628 309 2231 
z
M 934 2222 
Q 934 1394 1379 917 
Q 1825 441 2497 441 
Q 3181 441 3623 922 
Q 4066 1403 4066 2288 
Q 4066 2847 3877 3264 
Q 3688 3681 3323 3911 
Q 2959 4141 2506 4141 
Q 1863 4141 1398 3698 
Q 934 3256 934 2222 
z
" transform="scale(0.015625)"/>
       <path id="ArialMT-62" d="M 941 0 
L 419 0 
L 419 4581 
L 981 4581 
L 981 2947 
Q 1338 3394 1891 3394 
Q 2197 3394 2470 3270 
Q 2744 3147 2920 2923 
Q 3097 2700 3197 2384 
Q 3297 2069 3297 1709 
Q 3297 856 2875 390 
Q 2453 -75 1863 -75 
Q 1275 -75 941 416 
L 941 0 
z
M 934 1684 
Q 934 1088 1097 822 
Q 1363 388 1816 388 
Q 2184 388 2453 708 
Q 2722 1028 2722 1663 
Q 2722 2313 2464 2622 
Q 2206 2931 1841 2931 
Q 1472 2931 1203 2611 
Q 934 2291 934 1684 
z
" transform="scale(0.015625)"/>
       <path id="ArialMT-73" d="M 197 991 
L 753 1078 
Q 800 744 1014 566 
Q 1228 388 1613 388 
Q 2000 388 2187 545 
Q 2375 703 2375 916 
Q 2375 1106 2209 1216 
Q 2094 1291 1634 1406 
Q 1016 1563 777 1677 
Q 538 1791 414 1992 
Q 291 2194 291 2438 
Q 291 2659 392 2848 
Q 494 3038 669 3163 
Q 800 3259 1026 3326 
Q 1253 3394 1513 3394 
Q 1903 3394 2198 3281 
Q 2494 3169 2634 2976 
Q 2775 2784 2828 2463 
L 2278 2388 
Q 2241 2644 2061 2787 
Q 1881 2931 1553 2931 
Q 1166 2931 1000 2803 
Q 834 2675 834 2503 
Q 834 2394 903 2306 
Q 972 2216 1119 2156 
Q 1203 2125 1616 2013 
Q 2213 1853 2448 1751 
Q 2684 1650 2818 1456 
Q 2953 1263 2953 975 
Q 2953 694 2789 445 
Q 2625 197 2315 61 
Q 2006 -75 1616 -75 
Q 969 -75 630 194 
Q 291 463 197 991 
z
" transform="scale(0.015625)"/>
       <path id="ArialMT-65" d="M 2694 1069 
L 3275 997 
Q 3138 488 2766 206 
Q 2394 -75 1816 -75 
Q 1088 -75 661 373 
Q 234 822 234 1631 
Q 234 2469 665 2931 
Q 1097 3394 1784 3394 
Q 2450 3394 2872 2941 
Q 3294 2488 3294 1666 
Q 3294 1616 3291 1516 
L 816 1516 
Q 847 969 1125 678 
Q 1403 388 1819 388 
Q 2128 388 2347 550 
Q 2566 713 2694 1069 
z
M 847 1978 
L 2700 1978 
Q 2663 2397 2488 2606 
Q 2219 2931 1791 2931 
Q 1403 2931 1139 2672 
Q 875 2413 847 1978 
z
" transform="scale(0.015625)"/>
       <path id="ArialMT-72" d="M 416 0 
L 416 3319 
L 922 3319 
L 922 2816 
Q 1116 3169 1280 3281 
Q 1444 3394 1641 3394 
Q 1925 3394 2219 3213 
L 2025 2691 
Q 1819 2813 1613 2813 
Q 1428 2813 1281 2702 
Q 1134 2591 1072 2394 
Q 978 2094 978 1738 
L 978 0 
L 416 0 
z
" transform="scale(0.015625)"/>
       <path id="ArialMT-76" d="M 1344 0 
L 81 3319 
L 675 3319 
L 1388 1331 
Q 1503 1009 1600 663 
Q 1675 925 1809 1294 
L 2547 3319 
L 3125 3319 
L 1869 0 
L 1344 0 
z
" transform="scale(0.015625)"/>
       <path id="ArialMT-61" d="M 2588 409 
Q 2275 144 1986 34 
Q 1697 -75 1366 -75 
Q 819 -75 525 192 
Q 231 459 231 875 
Q 231 1119 342 1320 
Q 453 1522 633 1644 
Q 813 1766 1038 1828 
Q 1203 1872 1538 1913 
Q 2219 1994 2541 2106 
Q 2544 2222 2544 2253 
Q 2544 2597 2384 2738 
Q 2169 2928 1744 2928 
Q 1347 2928 1158 2789 
Q 969 2650 878 2297 
L 328 2372 
Q 403 2725 575 2942 
Q 747 3159 1072 3276 
Q 1397 3394 1825 3394 
Q 2250 3394 2515 3294 
Q 2781 3194 2906 3042 
Q 3031 2891 3081 2659 
Q 3109 2516 3109 2141 
L 3109 1391 
Q 3109 606 3145 398 
Q 3181 191 3288 0 
L 2700 0 
Q 2613 175 2588 409 
z
M 2541 1666 
Q 2234 1541 1622 1453 
Q 1275 1403 1131 1340 
Q 988 1278 909 1158 
Q 831 1038 831 891 
Q 831 666 1001 516 
Q 1172 366 1500 366 
Q 1825 366 2078 508 
Q 2331 650 2450 897 
Q 2541 1088 2541 1459 
L 2541 1666 
z
" transform="scale(0.015625)"/>
       <path id="ArialMT-74" d="M 1650 503 
L 1731 6 
Q 1494 -44 1306 -44 
Q 1000 -44 831 53 
Q 663 150 594 308 
Q 525 466 525 972 
L 525 2881 
L 113 2881 
L 113 3319 
L 525 3319 
L 525 4141 
L 1084 4478 
L 1084 3319 
L 1650 3319 
L 1650 2881 
L 1084 2881 
L 1084 941 
Q 1084 700 1114 631 
Q 1144 563 1211 522 
Q 1278 481 1403 481 
Q 1497 481 1650 503 
z
" transform="scale(0.015625)"/>
       <path id="ArialMT-69" d="M 425 3934 
L 425 4581 
L 988 4581 
L 988 3934 
L 425 3934 
z
M 425 0 
L 425 3319 
L 988 3319 
L 988 0 
L 425 0 
z
" transform="scale(0.015625)"/>
       <path id="ArialMT-6f" d="M 213 1659 
Q 213 2581 725 3025 
Q 1153 3394 1769 3394 
Q 2453 3394 2887 2945 
Q 3322 2497 3322 1706 
Q 3322 1066 3130 698 
Q 2938 331 2570 128 
Q 2203 -75 1769 -75 
Q 1072 -75 642 372 
Q 213 819 213 1659 
z
M 791 1659 
Q 791 1022 1069 705 
Q 1347 388 1769 388 
Q 2188 388 2466 706 
Q 2744 1025 2744 1678 
Q 2744 2294 2464 2611 
Q 2184 2928 1769 2928 
Q 1347 2928 1069 2612 
Q 791 2297 791 1659 
z
" transform="scale(0.015625)"/>
       <path id="ArialMT-6e" d="M 422 0 
L 422 3319 
L 928 3319 
L 928 2847 
Q 1294 3394 1984 3394 
Q 2284 3394 2536 3286 
Q 2788 3178 2913 3003 
Q 3038 2828 3088 2588 
Q 3119 2431 3119 2041 
L 3119 0 
L 2556 0 
L 2556 2019 
Q 2556 2363 2490 2533 
Q 2425 2703 2258 2804 
Q 2091 2906 1866 2906 
Q 1506 2906 1245 2678 
Q 984 2450 984 1813 
L 984 0 
L 422 0 
z
" transform="scale(0.015625)"/>
      </defs>
      <use xlink:href="#ArialMT-4f"/>
      <use xlink:href="#ArialMT-62" x="77.783203"/>
      <use xlink:href="#ArialMT-73" x="133.398438"/>
      <use xlink:href="#ArialMT-65" x="183.398438"/>
      <use xlink:href="#ArialMT-72" x="239.013672"/>
      <use xlink:href="#ArialMT-76" x="272.314453"/>
      <use xlink:href="#ArialMT-61" x="322.314453"/>
      <use xlink:href="#ArialMT-74" x="377.929688"/>
      <use xlink:href="#ArialMT-69" x="405.712891"/>
      <use xlink:href="#ArialMT-6f" x="427.929688"/>
      <use xlink:href="#ArialMT-6e" x="483.544922"/>
      <use xlink:href="#ArialMT-73" x="539.160156"/>
     </g>
    </g>
    <g id="line2d_20">
     <path d="M 53.57125 30.922875 
L 62.37125 30.922875 
L 71.17125 30.922875 
" style="fill: none; stroke: #1f77b4; stroke-width: 2; stroke-linecap: round"/>
    </g>
    <g id="text_19">
     <!-- $m_n(x)$ -->
     <g style="fill: #262626" transform="translate(78.21125 34.002875) scale(0.088 -0.088)">
      <defs>
       <path id="DejaVuSans-Oblique-6d" d="M 5747 2113 
L 5338 0 
L 4763 0 
L 5166 2094 
Q 5191 2228 5203 2325 
Q 5216 2422 5216 2491 
Q 5216 2772 5059 2928 
Q 4903 3084 4622 3084 
Q 4203 3084 3875 2770 
Q 3547 2456 3450 1953 
L 3066 0 
L 2491 0 
L 2900 2094 
Q 2925 2209 2937 2307 
Q 2950 2406 2950 2484 
Q 2950 2769 2794 2926 
Q 2638 3084 2363 3084 
Q 1938 3084 1609 2770 
Q 1281 2456 1184 1953 
L 800 0 
L 225 0 
L 909 3500 
L 1484 3500 
L 1375 2956 
Q 1609 3263 1923 3423 
Q 2238 3584 2597 3584 
Q 2978 3584 3223 3384 
Q 3469 3184 3519 2828 
Q 3781 3197 4126 3390 
Q 4472 3584 4856 3584 
Q 5306 3584 5551 3325 
Q 5797 3066 5797 2591 
Q 5797 2488 5784 2364 
Q 5772 2241 5747 2113 
z
" transform="scale(0.015625)"/>
       <path id="DejaVuSans-Oblique-6e" d="M 3566 2113 
L 3156 0 
L 2578 0 
L 2988 2091 
Q 3016 2238 3031 2350 
Q 3047 2463 3047 2528 
Q 3047 2791 2881 2937 
Q 2716 3084 2419 3084 
Q 1956 3084 1622 2776 
Q 1288 2469 1184 1941 
L 800 0 
L 225 0 
L 903 3500 
L 1478 3500 
L 1363 2950 
Q 1603 3253 1940 3418 
Q 2278 3584 2650 3584 
Q 3113 3584 3367 3334 
Q 3622 3084 3622 2631 
Q 3622 2519 3608 2391 
Q 3594 2263 3566 2113 
z
" transform="scale(0.015625)"/>
       <path id="DejaVuSans-28" d="M 1984 4856 
Q 1566 4138 1362 3434 
Q 1159 2731 1159 2009 
Q 1159 1288 1364 580 
Q 1569 -128 1984 -844 
L 1484 -844 
Q 1016 -109 783 600 
Q 550 1309 550 2009 
Q 550 2706 781 3412 
Q 1013 4119 1484 4856 
L 1984 4856 
z
" transform="scale(0.015625)"/>
       <path id="DejaVuSans-29" d="M 513 4856 
L 1013 4856 
Q 1481 4119 1714 3412 
Q 1947 2706 1947 2009 
Q 1947 1309 1714 600 
Q 1481 -109 1013 -844 
L 513 -844 
Q 928 -128 1133 580 
Q 1338 1288 1338 2009 
Q 1338 2731 1133 3434 
Q 928 4138 513 4856 
z
" transform="scale(0.015625)"/>
      </defs>
      <use xlink:href="#DejaVuSans-Oblique-6d" transform="translate(0 0.125)"/>
      <use xlink:href="#DejaVuSans-Oblique-6e" transform="translate(97.412109 -16.28125) scale(0.7)"/>
      <use xlink:href="#DejaVuSans-28" transform="translate(144.511719 0.125)"/>
      <use xlink:href="#DejaVuSans-Oblique-78" transform="translate(183.525391 0.125)"/>
      <use xlink:href="#DejaVuSans-29" transform="translate(242.705078 0.125)"/>
     </g>
    </g>
    <g id="patch_5">
     <path d="M 53.57125 48.159875 
L 71.17125 48.159875 
L 71.17125 41.999875 
L 53.57125 41.999875 
z
" style="fill: #1f77b4; fill-opacity: 0.5; stroke: #1f77b4; stroke-opacity: 0.5; stroke-width: 0.8; stroke-linejoin: miter"/>
    </g>
    <g id="text_20">
     <!-- $f(\mathbf{x}^*)$ 95% pred. -->
     <g style="fill: #262626" transform="translate(78.21125 48.159875) scale(0.088 -0.088)">
      <defs>
       <path id="DejaVuSans-Oblique-66" d="M 3059 4863 
L 2969 4384 
L 2419 4384 
Q 2106 4384 1964 4261 
Q 1822 4138 1753 3809 
L 1691 3500 
L 2638 3500 
L 2553 3053 
L 1606 3053 
L 1013 0 
L 434 0 
L 1031 3053 
L 481 3053 
L 563 3500 
L 1113 3500 
L 1159 3744 
Q 1278 4363 1576 4613 
Q 1875 4863 2516 4863 
L 3059 4863 
z
" transform="scale(0.015625)"/>
       <path id="DejaVuSans-Bold-78" d="M 1422 1791 
L 159 3500 
L 1344 3500 
L 2059 2463 
L 2784 3500 
L 3969 3500 
L 2706 1797 
L 4031 0 
L 2847 0 
L 2059 1106 
L 1281 0 
L 97 0 
L 1422 1791 
z
" transform="scale(0.015625)"/>
       <path id="DejaVuSans-2a" d="M 3009 3897 
L 1888 3291 
L 3009 2681 
L 2828 2375 
L 1778 3009 
L 1778 1831 
L 1422 1831 
L 1422 3009 
L 372 2375 
L 191 2681 
L 1313 3291 
L 191 3897 
L 372 4206 
L 1422 3572 
L 1422 4750 
L 1778 4750 
L 1778 3572 
L 2828 4206 
L 3009 3897 
z
" transform="scale(0.015625)"/>
       <path id="ArialMT-20" transform="scale(0.015625)"/>
       <path id="ArialMT-39" d="M 350 1059 
L 891 1109 
Q 959 728 1153 556 
Q 1347 384 1650 384 
Q 1909 384 2104 503 
Q 2300 622 2425 820 
Q 2550 1019 2634 1356 
Q 2719 1694 2719 2044 
Q 2719 2081 2716 2156 
Q 2547 1888 2255 1720 
Q 1963 1553 1622 1553 
Q 1053 1553 659 1965 
Q 266 2378 266 3053 
Q 266 3750 677 4175 
Q 1088 4600 1706 4600 
Q 2153 4600 2523 4359 
Q 2894 4119 3086 3673 
Q 3278 3228 3278 2384 
Q 3278 1506 3087 986 
Q 2897 466 2520 194 
Q 2144 -78 1638 -78 
Q 1100 -78 759 220 
Q 419 519 350 1059 
z
M 2653 3081 
Q 2653 3566 2395 3850 
Q 2138 4134 1775 4134 
Q 1400 4134 1122 3828 
Q 844 3522 844 3034 
Q 844 2597 1108 2323 
Q 1372 2050 1759 2050 
Q 2150 2050 2401 2323 
Q 2653 2597 2653 3081 
z
" transform="scale(0.015625)"/>
       <path id="ArialMT-25" d="M 372 3481 
Q 372 3972 619 4315 
Q 866 4659 1334 4659 
Q 1766 4659 2048 4351 
Q 2331 4044 2331 3447 
Q 2331 2866 2045 2552 
Q 1759 2238 1341 2238 
Q 925 2238 648 2547 
Q 372 2856 372 3481 
z
M 1350 4272 
Q 1141 4272 1002 4090 
Q 863 3909 863 3425 
Q 863 2984 1003 2804 
Q 1144 2625 1350 2625 
Q 1563 2625 1702 2806 
Q 1841 2988 1841 3469 
Q 1841 3913 1700 4092 
Q 1559 4272 1350 4272 
z
M 1353 -169 
L 3859 4659 
L 4316 4659 
L 1819 -169 
L 1353 -169 
z
M 3334 1075 
Q 3334 1569 3581 1911 
Q 3828 2253 4300 2253 
Q 4731 2253 5014 1945 
Q 5297 1638 5297 1041 
Q 5297 459 5011 145 
Q 4725 -169 4303 -169 
Q 3888 -169 3611 142 
Q 3334 453 3334 1075 
z
M 4316 1866 
Q 4103 1866 3964 1684 
Q 3825 1503 3825 1019 
Q 3825 581 3965 400 
Q 4106 219 4313 219 
Q 4528 219 4667 400 
Q 4806 581 4806 1063 
Q 4806 1506 4665 1686 
Q 4525 1866 4316 1866 
z
" transform="scale(0.015625)"/>
       <path id="ArialMT-70" d="M 422 -1272 
L 422 3319 
L 934 3319 
L 934 2888 
Q 1116 3141 1344 3267 
Q 1572 3394 1897 3394 
Q 2322 3394 2647 3175 
Q 2972 2956 3137 2557 
Q 3303 2159 3303 1684 
Q 3303 1175 3120 767 
Q 2938 359 2589 142 
Q 2241 -75 1856 -75 
Q 1575 -75 1351 44 
Q 1128 163 984 344 
L 984 -1272 
L 422 -1272 
z
M 931 1641 
Q 931 1000 1190 694 
Q 1450 388 1819 388 
Q 2194 388 2461 705 
Q 2728 1022 2728 1688 
Q 2728 2322 2467 2637 
Q 2206 2953 1844 2953 
Q 1484 2953 1207 2617 
Q 931 2281 931 1641 
z
" transform="scale(0.015625)"/>
       <path id="ArialMT-64" d="M 2575 0 
L 2575 419 
Q 2259 -75 1647 -75 
Q 1250 -75 917 144 
Q 584 363 401 755 
Q 219 1147 219 1656 
Q 219 2153 384 2558 
Q 550 2963 881 3178 
Q 1213 3394 1622 3394 
Q 1922 3394 2156 3267 
Q 2391 3141 2538 2938 
L 2538 4581 
L 3097 4581 
L 3097 0 
L 2575 0 
z
M 797 1656 
Q 797 1019 1065 703 
Q 1334 388 1700 388 
Q 2069 388 2326 689 
Q 2584 991 2584 1609 
Q 2584 2291 2321 2609 
Q 2059 2928 1675 2928 
Q 1300 2928 1048 2622 
Q 797 2316 797 1656 
z
" transform="scale(0.015625)"/>
      </defs>
      <use xlink:href="#DejaVuSans-Oblique-66" transform="translate(0 0.765625)"/>
      <use xlink:href="#DejaVuSans-28" transform="translate(35.205078 0.765625)"/>
      <use xlink:href="#DejaVuSans-Bold-78" transform="translate(74.21875 0.765625)"/>
      <use xlink:href="#DejaVuSans-2a" transform="translate(153.31543 39.046875) scale(0.7)"/>
      <use xlink:href="#DejaVuSans-29" transform="translate(204.6875 0.765625)"/>
      <use xlink:href="#ArialMT-20" transform="translate(243.701172 0.765625)"/>
      <use xlink:href="#ArialMT-39" transform="translate(271.484375 0.765625)"/>
      <use xlink:href="#ArialMT-35" transform="translate(327.099609 0.765625)"/>
      <use xlink:href="#ArialMT-25" transform="translate(382.714844 0.765625)"/>
      <use xlink:href="#ArialMT-20" transform="translate(471.630859 0.765625)"/>
      <use xlink:href="#ArialMT-70" transform="translate(499.414062 0.765625)"/>
      <use xlink:href="#ArialMT-72" transform="translate(555.029297 0.765625)"/>
      <use xlink:href="#ArialMT-65" transform="translate(588.330078 0.765625)"/>
      <use xlink:href="#ArialMT-64" transform="translate(643.945312 0.765625)"/>
      <use xlink:href="#ArialMT-2e" transform="translate(699.560547 0.765625)"/>
     </g>
    </g>
    <g id="patch_6">
     <path d="M 53.57125 62.327875 
L 71.17125 62.327875 
L 71.17125 56.167875 
L 53.57125 56.167875 
z
" style="fill: #ff7f0e; fill-opacity: 0.5; stroke: #ff7f0e; stroke-opacity: 0.5; stroke-width: 0.8; stroke-linejoin: miter"/>
    </g>
    <g id="text_21">
     <!-- $y^*$ 95% pred. -->
     <g style="fill: #262626" transform="translate(78.21125 62.327875) scale(0.088 -0.088)">
      <use xlink:href="#DejaVuSans-Oblique-79" transform="translate(0 0.765625)"/>
      <use xlink:href="#DejaVuSans-2a" transform="translate(77.283529 39.046875) scale(0.7)"/>
      <use xlink:href="#ArialMT-20" transform="translate(128.655599 0.765625)"/>
      <use xlink:href="#ArialMT-39" transform="translate(156.438802 0.765625)"/>
      <use xlink:href="#ArialMT-35" transform="translate(212.054036 0.765625)"/>
      <use xlink:href="#ArialMT-25" transform="translate(267.669271 0.765625)"/>
      <use xlink:href="#ArialMT-20" transform="translate(356.585286 0.765625)"/>
      <use xlink:href="#ArialMT-70" transform="translate(384.36849 0.765625)"/>
      <use xlink:href="#ArialMT-72" transform="translate(439.983724 0.765625)"/>
      <use xlink:href="#ArialMT-65" transform="translate(473.284505 0.765625)"/>
      <use xlink:href="#ArialMT-64" transform="translate(528.89974 0.765625)"/>
      <use xlink:href="#ArialMT-2e" transform="translate(584.514974 0.765625)"/>
     </g>
    </g>
    <g id="line2d_21">
     <path d="M 53.57125 71.79475 
L 62.37125 71.79475 
L 71.17125 71.79475 
" style="fill: none; stroke-dasharray: 7.68,1.92,1.2,1.92; stroke-dashoffset: 0; stroke: #bf00bf; stroke-width: 1.2"/>
    </g>
    <g id="text_22">
     <!-- True function -->
     <g style="fill: #262626" transform="translate(78.21125 74.87475) scale(0.088 -0.088)">
      <defs>
       <path id="ArialMT-54" d="M 1659 0 
L 1659 4041 
L 150 4041 
L 150 4581 
L 3781 4581 
L 3781 4041 
L 2266 4041 
L 2266 0 
L 1659 0 
z
" transform="scale(0.015625)"/>
       <path id="ArialMT-75" d="M 2597 0 
L 2597 488 
Q 2209 -75 1544 -75 
Q 1250 -75 995 37 
Q 741 150 617 320 
Q 494 491 444 738 
Q 409 903 409 1263 
L 409 3319 
L 972 3319 
L 972 1478 
Q 972 1038 1006 884 
Q 1059 663 1231 536 
Q 1403 409 1656 409 
Q 1909 409 2131 539 
Q 2353 669 2445 892 
Q 2538 1116 2538 1541 
L 2538 3319 
L 3100 3319 
L 3100 0 
L 2597 0 
z
" transform="scale(0.015625)"/>
       <path id="ArialMT-66" d="M 556 0 
L 556 2881 
L 59 2881 
L 59 3319 
L 556 3319 
L 556 3672 
Q 556 4006 616 4169 
Q 697 4388 901 4523 
Q 1106 4659 1475 4659 
Q 1713 4659 2000 4603 
L 1916 4113 
Q 1741 4144 1584 4144 
Q 1328 4144 1222 4034 
Q 1116 3925 1116 3625 
L 1116 3319 
L 1763 3319 
L 1763 2881 
L 1116 2881 
L 1116 0 
L 556 0 
z
" transform="scale(0.015625)"/>
       <path id="ArialMT-63" d="M 2588 1216 
L 3141 1144 
Q 3050 572 2676 248 
Q 2303 -75 1759 -75 
Q 1078 -75 664 370 
Q 250 816 250 1647 
Q 250 2184 428 2587 
Q 606 2991 970 3192 
Q 1334 3394 1763 3394 
Q 2303 3394 2647 3120 
Q 2991 2847 3088 2344 
L 2541 2259 
Q 2463 2594 2264 2762 
Q 2066 2931 1784 2931 
Q 1359 2931 1093 2626 
Q 828 2322 828 1663 
Q 828 994 1084 691 
Q 1341 388 1753 388 
Q 2084 388 2306 591 
Q 2528 794 2588 1216 
z
" transform="scale(0.015625)"/>
      </defs>
      <use xlink:href="#ArialMT-54"/>
      <use xlink:href="#ArialMT-72" x="57.333984"/>
      <use xlink:href="#ArialMT-75" x="90.634766"/>
      <use xlink:href="#ArialMT-65" x="146.25"/>
      <use xlink:href="#ArialMT-20" x="201.865234"/>
      <use xlink:href="#ArialMT-66" x="229.648438"/>
      <use xlink:href="#ArialMT-75" x="257.431641"/>
      <use xlink:href="#ArialMT-6e" x="313.046875"/>
      <use xlink:href="#ArialMT-63" x="368.662109"/>
      <use xlink:href="#ArialMT-74" x="418.662109"/>
      <use xlink:href="#ArialMT-69" x="446.445312"/>
      <use xlink:href="#ArialMT-6f" x="468.662109"/>
      <use xlink:href="#ArialMT-6e" x="524.277344"/>
     </g>
    </g>
   </g>
  </g>
 </g>
 <defs>
  <clipPath id="p7bb3843f34">
   <rect x="45.65125" y="7.2" width="357.12" height="266.112"/>
  </clipPath>
 </defs>
</svg>