<?xml version="1.0" encoding="utf-8" standalone="no"?>
<!DOCTYPE svg PUBLIC "-//W3C//DTD SVG 1.1//EN"
  "http://www.w3.org/Graphics/SVG/1.1/DTD/svg11.dtd">
<svg xmlns:xlink="http://www.w3.org/1999/xlink" width="445.848625pt" height="322.510875pt" viewBox="0 0 445.848625 322.510875" xmlns="http://www.w3.org/2000/svg" version="1.1">
 <metadata>
  <rdf:RDF xmlns:dc="http://purl.org/dc/elements/1.1/" xmlns:cc="http://creativecommons.org/ns#" xmlns:rdf="http://www.w3.org/1999/02/22-rdf-syntax-ns#">
   <cc:Work>
    <dc:type rdf:resource="http://purl.org/dc/dcmitype/StillImage"/>
    <dc:date>2023-10-23T15:19:21.752084</dc:date>
    <dc:format>image/svg+xml</dc:format>
    <dc:creator>
     <cc:Agent>
      <dc:title>Matplotlib v3.8.0, https://matplotlib.org/</dc:title>
     </cc:Agent>
    </dc:creator>
   </cc:Work>
  </rdf:RDF>
 </metadata>
 <defs>
  <style type="text/css">*{stroke-linejoin: round; stroke-linecap: butt}</style>
 </defs>
 <g id="figure_1">
  <g id="patch_1">
   <path d="M 0 322.510875 
L 445.848625 322.510875 
L 445.848625 0 
L 0 0 
z
" style="fill: #ffffff"/>
  </g>
  <g id="axes_1">
   <g id="patch_2">
    <path d="M 38.312875 286.1835 
L 395.432875 286.1835 
L 395.432875 20.0715 
L 38.312875 20.0715 
z
" style="fill: #ffffff"/>
   </g>
   <g id="matplotlib.axis_1">
    <g id="xtick_1">
     <g id="line2d_1">
      <defs>
       <path id="m96c0cc4715" d="M 0 0 
L 0 4.8 
" style="stroke: #262626"/>
      </defs>
      <g>
       <use xlink:href="#m96c0cc4715" x="54.545602" y="286.1835" style="fill: #262626; stroke: #262626"/>
      </g>
     </g>
     <g id="text_1">
      <!-- 0.0 -->
      <g style="fill: #262626" transform="translate(48.429602 300.782375) scale(0.088 -0.088)">
       <defs>
        <path id="ArialMT-30" d="M 266 2259 
Q 266 3072 433 3567 
Q 600 4063 929 4331 
Q 1259 4600 1759 4600 
Q 2128 4600 2406 4451 
Q 2684 4303 2865 4023 
Q 3047 3744 3150 3342 
Q 3253 2941 3253 2259 
Q 3253 1453 3087 958 
Q 2922 463 2592 192 
Q 2263 -78 1759 -78 
Q 1097 -78 719 397 
Q 266 969 266 2259 
z
M 844 2259 
Q 844 1131 1108 757 
Q 1372 384 1759 384 
Q 2147 384 2411 759 
Q 2675 1134 2675 2259 
Q 2675 3391 2411 3762 
Q 2147 4134 1753 4134 
Q 1366 4134 1134 3806 
Q 844 3388 844 2259 
z
" transform="scale(0.015625)"/>
        <path id="ArialMT-2e" d="M 581 0 
L 581 641 
L 1222 641 
L 1222 0 
L 581 0 
z
" transform="scale(0.015625)"/>
       </defs>
       <use xlink:href="#ArialMT-30"/>
       <use xlink:href="#ArialMT-2e" x="55.615234"/>
       <use xlink:href="#ArialMT-30" x="83.398438"/>
      </g>
     </g>
    </g>
    <g id="xtick_2">
     <g id="line2d_2">
      <g>
       <use xlink:href="#m96c0cc4715" x="119.476511" y="286.1835" style="fill: #262626; stroke: #262626"/>
      </g>
     </g>
     <g id="text_2">
      <!-- 0.2 -->
      <g style="fill: #262626" transform="translate(113.360511 300.782375) scale(0.088 -0.088)">
       <defs>
        <path id="ArialMT-32" d="M 3222 541 
L 3222 0 
L 194 0 
Q 188 203 259 391 
Q 375 700 629 1000 
Q 884 1300 1366 1694 
Q 2113 2306 2375 2664 
Q 2638 3022 2638 3341 
Q 2638 3675 2398 3904 
Q 2159 4134 1775 4134 
Q 1369 4134 1125 3890 
Q 881 3647 878 3216 
L 300 3275 
Q 359 3922 746 4261 
Q 1134 4600 1788 4600 
Q 2447 4600 2831 4234 
Q 3216 3869 3216 3328 
Q 3216 3053 3103 2787 
Q 2991 2522 2730 2228 
Q 2469 1934 1863 1422 
Q 1356 997 1212 845 
Q 1069 694 975 541 
L 3222 541 
z
" transform="scale(0.015625)"/>
       </defs>
       <use xlink:href="#ArialMT-30"/>
       <use xlink:href="#ArialMT-2e" x="55.615234"/>
       <use xlink:href="#ArialMT-32" x="83.398438"/>
      </g>
     </g>
    </g>
    <g id="xtick_3">
     <g id="line2d_3">
      <g>
       <use xlink:href="#m96c0cc4715" x="184.40742" y="286.1835" style="fill: #262626; stroke: #262626"/>
      </g>
     </g>
     <g id="text_3">
      <!-- 0.4 -->
      <g style="fill: #262626" transform="translate(178.29142 300.782375) scale(0.088 -0.088)">
       <defs>
        <path id="ArialMT-34" d="M 2069 0 
L 2069 1097 
L 81 1097 
L 81 1613 
L 2172 4581 
L 2631 4581 
L 2631 1613 
L 3250 1613 
L 3250 1097 
L 2631 1097 
L 2631 0 
L 2069 0 
z
M 2069 1613 
L 2069 3678 
L 634 1613 
L 2069 1613 
z
" transform="scale(0.015625)"/>
       </defs>
       <use xlink:href="#ArialMT-30"/>
       <use xlink:href="#ArialMT-2e" x="55.615234"/>
       <use xlink:href="#ArialMT-34" x="83.398438"/>
      </g>
     </g>
    </g>
    <g id="xtick_4">
     <g id="line2d_4">
      <g>
       <use xlink:href="#m96c0cc4715" x="249.33833" y="286.1835" style="fill: #262626; stroke: #262626"/>
      </g>
     </g>
     <g id="text_4">
      <!-- 0.6 -->
      <g style="fill: #262626" transform="translate(243.22233 300.782375) scale(0.088 -0.088)">
       <defs>
        <path id="ArialMT-36" d="M 3184 3459 
L 2625 3416 
Q 2550 3747 2413 3897 
Q 2184 4138 1850 4138 
Q 1581 4138 1378 3988 
Q 1113 3794 959 3422 
Q 806 3050 800 2363 
Q 1003 2672 1297 2822 
Q 1591 2972 1913 2972 
Q 2475 2972 2870 2558 
Q 3266 2144 3266 1488 
Q 3266 1056 3080 686 
Q 2894 316 2569 119 
Q 2244 -78 1831 -78 
Q 1128 -78 684 439 
Q 241 956 241 2144 
Q 241 3472 731 4075 
Q 1159 4600 1884 4600 
Q 2425 4600 2770 4297 
Q 3116 3994 3184 3459 
z
M 888 1484 
Q 888 1194 1011 928 
Q 1134 663 1356 523 
Q 1578 384 1822 384 
Q 2178 384 2434 671 
Q 2691 959 2691 1453 
Q 2691 1928 2437 2201 
Q 2184 2475 1800 2475 
Q 1419 2475 1153 2201 
Q 888 1928 888 1484 
z
" transform="scale(0.015625)"/>
       </defs>
       <use xlink:href="#ArialMT-30"/>
       <use xlink:href="#ArialMT-2e" x="55.615234"/>
       <use xlink:href="#ArialMT-36" x="83.398438"/>
      </g>
     </g>
    </g>
    <g id="xtick_5">
     <g id="line2d_5">
      <g>
       <use xlink:href="#m96c0cc4715" x="314.269239" y="286.1835" style="fill: #262626; stroke: #262626"/>
      </g>
     </g>
     <g id="text_5">
      <!-- 0.8 -->
      <g style="fill: #262626" transform="translate(308.153239 300.782375) scale(0.088 -0.088)">
       <defs>
        <path id="ArialMT-38" d="M 1131 2484 
Q 781 2613 612 2850 
Q 444 3088 444 3419 
Q 444 3919 803 4259 
Q 1163 4600 1759 4600 
Q 2359 4600 2725 4251 
Q 3091 3903 3091 3403 
Q 3091 3084 2923 2848 
Q 2756 2613 2416 2484 
Q 2838 2347 3058 2040 
Q 3278 1734 3278 1309 
Q 3278 722 2862 322 
Q 2447 -78 1769 -78 
Q 1091 -78 675 323 
Q 259 725 259 1325 
Q 259 1772 486 2073 
Q 713 2375 1131 2484 
z
M 1019 3438 
Q 1019 3113 1228 2906 
Q 1438 2700 1772 2700 
Q 2097 2700 2305 2904 
Q 2513 3109 2513 3406 
Q 2513 3716 2298 3927 
Q 2084 4138 1766 4138 
Q 1444 4138 1231 3931 
Q 1019 3725 1019 3438 
z
M 838 1322 
Q 838 1081 952 856 
Q 1066 631 1291 507 
Q 1516 384 1775 384 
Q 2178 384 2440 643 
Q 2703 903 2703 1303 
Q 2703 1709 2433 1975 
Q 2163 2241 1756 2241 
Q 1359 2241 1098 1978 
Q 838 1716 838 1322 
z
" transform="scale(0.015625)"/>
       </defs>
       <use xlink:href="#ArialMT-30"/>
       <use xlink:href="#ArialMT-2e" x="55.615234"/>
       <use xlink:href="#ArialMT-38" x="83.398438"/>
      </g>
     </g>
    </g>
    <g id="xtick_6">
     <g id="line2d_6">
      <g>
       <use xlink:href="#m96c0cc4715" x="379.200148" y="286.1835" style="fill: #262626; stroke: #262626"/>
      </g>
     </g>
     <g id="text_6">
      <!-- 1.0 -->
      <g style="fill: #262626" transform="translate(373.084148 300.782375) scale(0.088 -0.088)">
       <defs>
        <path id="ArialMT-31" d="M 2384 0 
L 1822 0 
L 1822 3584 
Q 1619 3391 1289 3197 
Q 959 3003 697 2906 
L 697 3450 
Q 1169 3672 1522 3987 
Q 1875 4303 2022 4600 
L 2384 4600 
L 2384 0 
z
" transform="scale(0.015625)"/>
       </defs>
       <use xlink:href="#ArialMT-31"/>
       <use xlink:href="#ArialMT-2e" x="55.615234"/>
       <use xlink:href="#ArialMT-30" x="83.398438"/>
      </g>
     </g>
    </g>
    <g id="text_7">
     <!-- $x$ -->
     <g style="fill: #262626" transform="translate(213.992875 313.402875) scale(0.096 -0.096)">
      <defs>
       <path id="DejaVuSans-Oblique-78" d="M 3841 3500 
L 2234 1784 
L 3219 0 
L 2559 0 
L 1819 1388 
L 531 0 
L -166 0 
L 1556 1844 
L 641 3500 
L 1300 3500 
L 1972 2234 
L 3144 3500 
L 3841 3500 
z
" transform="scale(0.015625)"/>
      </defs>
      <use xlink:href="#DejaVuSans-Oblique-78" transform="translate(0 0.3125)"/>
     </g>
    </g>
   </g>
   <g id="matplotlib.axis_2">
    <g id="ytick_1">
     <g id="line2d_7">
      <defs>
       <path id="m7c233d5603" d="M 0 0 
L -4.8 0 
" style="stroke: #262626"/>
      </defs>
      <g>
       <use xlink:href="#m7c233d5603" x="38.312875" y="247.547975" style="fill: #262626; stroke: #262626"/>
      </g>
     </g>
     <g id="text_8">
      <!-- −8 -->
      <g style="fill: #262626" transform="translate(19.9795 250.697412) scale(0.088 -0.088)">
       <defs>
        <path id="ArialMT-2212" d="M 3381 1997 
L 356 1997 
L 356 2522 
L 3381 2522 
L 3381 1997 
z
" transform="scale(0.015625)"/>
       </defs>
       <use xlink:href="#ArialMT-2212"/>
       <use xlink:href="#ArialMT-38" x="58.398438"/>
      </g>
     </g>
    </g>
    <g id="ytick_2">
     <g id="line2d_8">
      <g>
       <use xlink:href="#m7c233d5603" x="38.312875" y="202.308413" style="fill: #262626; stroke: #262626"/>
      </g>
     </g>
     <g id="text_9">
      <!-- −6 -->
      <g style="fill: #262626" transform="translate(19.9795 205.457851) scale(0.088 -0.088)">
       <use xlink:href="#ArialMT-2212"/>
       <use xlink:href="#ArialMT-36" x="58.398438"/>
      </g>
     </g>
    </g>
    <g id="ytick_3">
     <g id="line2d_9">
      <g>
       <use xlink:href="#m7c233d5603" x="38.312875" y="157.068851" style="fill: #262626; stroke: #262626"/>
      </g>
     </g>
     <g id="text_10">
      <!-- −4 -->
      <g style="fill: #262626" transform="translate(19.9795 160.218289) scale(0.088 -0.088)">
       <use xlink:href="#ArialMT-2212"/>
       <use xlink:href="#ArialMT-34" x="58.398438"/>
      </g>
     </g>
    </g>
    <g id="ytick_4">
     <g id="line2d_10">
      <g>
       <use xlink:href="#m7c233d5603" x="38.312875" y="111.82929" style="fill: #262626; stroke: #262626"/>
      </g>
     </g>
     <g id="text_11">
      <!-- −2 -->
      <g style="fill: #262626" transform="translate(19.9795 114.978727) scale(0.088 -0.088)">
       <use xlink:href="#ArialMT-2212"/>
       <use xlink:href="#ArialMT-32" x="58.398438"/>
      </g>
     </g>
    </g>
    <g id="ytick_5">
     <g id="line2d_11">
      <g>
       <use xlink:href="#m7c233d5603" x="38.312875" y="66.589728" style="fill: #262626; stroke: #262626"/>
      </g>
     </g>
     <g id="text_12">
      <!-- 0 -->
      <g style="fill: #262626" transform="translate(25.11925 69.739165) scale(0.088 -0.088)">
       <use xlink:href="#ArialMT-30"/>
      </g>
     </g>
    </g>
    <g id="ytick_6">
     <g id="line2d_12">
      <g>
       <use xlink:href="#m7c233d5603" x="38.312875" y="21.350166" style="fill: #262626; stroke: #262626"/>
      </g>
     </g>
     <g id="text_13">
      <!-- 2 -->
      <g style="fill: #262626" transform="translate(25.11925 24.499604) scale(0.088 -0.088)">
       <use xlink:href="#ArialMT-32"/>
      </g>
     </g>
    </g>
    <g id="text_14">
     <!-- $y$ -->
     <g style="fill: #262626" transform="translate(13.9635 156.0075) rotate(-90) scale(0.096 -0.096)">
      <defs>
       <path id="DejaVuSans-Oblique-79" d="M 1588 -325 
Q 1188 -997 936 -1164 
Q 684 -1331 294 -1331 
L -159 -1331 
L -63 -850 
L 269 -850 
Q 509 -850 678 -719 
Q 847 -588 1056 -206 
L 1234 128 
L 459 3500 
L 1069 3500 
L 1650 819 
L 3256 3500 
L 3859 3500 
L 1588 -325 
z
" transform="scale(0.015625)"/>
      </defs>
      <use xlink:href="#DejaVuSans-Oblique-79" transform="translate(0 0.3125)"/>
     </g>
    </g>
   </g>
   <g id="PolyCollection_1">
    <defs>
     <path id="m0089c14dba" d="M 54.545602 -200.824714 
L 54.545602 -148.728166 
L 57.824941 -150.993896 
L 61.10428 -153.358198 
L 64.383619 -155.863904 
L 67.662958 -158.56022 
L 70.942296 -161.492111 
L 74.221636 -164.692076 
L 77.500973 -168.174634 
L 80.780313 -171.936617 
L 84.059653 -175.958677 
L 87.33899 -180.208434 
L 90.61833 -184.645268 
L 93.89767 -189.223452 
L 97.177007 -193.895139 
L 100.456344 -198.613033 
L 103.735686 -203.330716 
L 107.015024 -208.003487 
L 110.294361 -212.587382 
L 113.573703 -217.037623 
L 116.853041 -221.307636 
L 120.132378 -225.3467 
L 123.41172 -229.098671 
L 126.691057 -232.500037 
L 129.970395 -235.479496 
L 133.249737 -237.958429 
L 136.529069 -239.854677 
L 139.808412 -241.090299 
L 143.087754 -241.603971 
L 146.367086 -241.365019 
L 149.646428 -240.382593 
L 152.92577 -238.703822 
L 156.205103 -236.402534 
L 159.484445 -233.562537 
L 162.763787 -230.264031 
L 166.04312 -226.574535 
L 169.322462 -222.543096 
L 172.601804 -218.198509 
L 175.881137 -213.54926 
L 179.160479 -208.585098 
L 182.439821 -203.28068 
L 185.719153 -197.601909 
L 188.998496 -191.513773 
L 192.277838 -184.990019 
L 195.55717 -178.021647 
L 198.836512 -170.623083 
L 202.115855 -162.834196 
L 205.395187 -154.718501 
L 208.674529 -146.358978 
L 211.953871 -137.852637 
L 215.233204 -129.305503 
L 218.512556 -120.827982 
L 221.791879 -112.531709 
L 225.071221 -104.526159 
L 228.350563 -96.916907 
L 231.629886 -89.803248 
L 234.909247 -83.276216 
L 238.18857 -77.417179 
L 241.467912 -72.295491 
L 244.747254 -67.966765 
L 248.026597 -64.470952 
L 251.305939 -61.829925 
L 254.585262 -60.045217 
L 257.864623 -59.095794 
L 261.143946 -58.936313 
L 264.423288 -59.496341 
L 267.70263 -60.683443 
L 270.981953 -62.39101 
L 274.261315 -64.5147 
L 277.540637 -66.974544 
L 280.81998 -69.735445 
L 284.099322 -72.814446 
L 287.378664 -76.268604 
L 290.658006 -80.171868 
L 293.937329 -84.590894 
L 297.21669 -89.569991 
L 300.496013 -95.123764 
L 303.775355 -101.237328 
L 307.054697 -107.867885 
L 310.33402 -114.949693 
L 313.613382 -122.397727 
L 316.892705 -130.113048 
L 320.172047 -137.986361 
L 323.451389 -145.902916 
L 326.730731 -153.746201 
L 330.010073 -161.402156 
L 333.289396 -168.761956 
L 336.568738 -175.725793 
L 339.84808 -182.204989 
L 343.127423 -188.122885 
L 346.406765 -193.416043 
L 349.686088 -198.03167 
L 352.96543 -201.926828 
L 356.244772 -205.062266 
L 359.524114 -207.399986 
L 362.803456 -208.901267 
L 366.082798 -209.531922 
L 369.362141 -209.275151 
L 372.641463 -208.147156 
L 375.920806 -206.206246 
L 379.200148 -203.549698 
L 379.200148 -246.767627 
L 379.200148 -246.767627 
L 375.920806 -245.786398 
L 372.641463 -245.094092 
L 369.362141 -244.655815 
L 366.082798 -244.401374 
L 362.803456 -244.225226 
L 359.524114 -243.997618 
L 356.244772 -243.585858 
L 352.96543 -242.868448 
L 349.686088 -241.744716 
L 346.406765 -240.135189 
L 343.127423 -237.979501 
L 339.84808 -235.234468 
L 336.568738 -231.872095 
L 333.289396 -227.878087 
L 330.010073 -223.252 
L 326.730731 -218.007482 
L 323.451389 -212.172495 
L 320.172047 -205.789903 
L 316.892705 -198.918232 
L 313.613382 -191.631496 
L 310.33402 -184.01937 
L 307.054697 -176.188003 
L 303.775355 -168.258883 
L 300.496013 -160.3698 
L 297.21669 -152.675167 
L 293.937329 -145.344883 
L 290.658006 -138.564531 
L 287.378664 -132.530158 
L 284.099322 -127.439577 
L 280.81998 -123.473949 
L 277.540637 -120.772845 
L 274.261315 -119.409468 
L 270.981953 -119.378448 
L 267.70263 -120.603635 
L 264.423288 -122.959297 
L 261.143946 -126.293893 
L 257.864623 -130.448523 
L 254.585262 -135.26718 
L 251.305939 -140.602656 
L 248.026597 -146.3188 
L 244.747254 -152.291942 
L 241.467912 -158.411708 
L 238.18857 -164.581715 
L 234.909247 -170.720496 
L 231.629886 -176.761929 
L 228.350563 -182.65567 
L 225.071221 -188.367397 
L 221.791879 -193.878302 
L 218.512556 -199.184596 
L 215.233204 -204.296129 
L 211.953871 -209.234224 
L 208.674529 -214.029 
L 205.395187 -218.715335 
L 202.115855 -223.327675 
L 198.836512 -227.894234 
L 195.55717 -232.43025 
L 192.277838 -236.932721 
L 188.998496 -241.377545 
L 185.719153 -245.720079 
L 182.439821 -249.900412 
L 179.160479 -253.851142 
L 175.881137 -257.50586 
L 172.601804 -260.806876 
L 169.322462 -263.711138 
L 166.04312 -266.193978 
L 162.763787 -268.250817 
L 159.484445 -269.897783 
L 156.205103 -271.170459 
L 152.92577 -272.119108 
L 149.646428 -272.800859 
L 146.367086 -273.266829 
L 143.087754 -273.546959 
L 139.808412 -273.640015 
L 136.529069 -273.512535 
L 133.249737 -273.10941 
L 129.970395 -272.368749 
L 126.691057 -271.234942 
L 123.41172 -269.666926 
L 120.132378 -267.642391 
L 116.853041 -265.158103 
L 113.573703 -262.228892 
L 110.294361 -258.885786 
L 107.015024 -255.173381 
L 103.735686 -251.146303 
L 100.456344 -246.867319 
L 97.177007 -242.403693 
L 93.89767 -237.824779 
L 90.61833 -233.200968 
L 87.33899 -228.601862 
L 84.059653 -224.097169 
L 80.780313 -219.757355 
L 77.500973 -215.655368 
L 74.221636 -211.869251 
L 70.942296 -208.483926 
L 67.662958 -205.590821 
L 64.383619 -203.287389 
L 61.10428 -201.670429 
L 57.824941 -200.827286 
L 54.545602 -200.824714 
z
" style="stroke: #1f77b4; stroke-opacity: 0.5; stroke-width: 0.8"/>
    </defs>
    <g clip-path="url(#p881932d188)">
     <use xlink:href="#m0089c14dba" x="0" y="322.510875" style="fill: #1f77b4; fill-opacity: 0.5; stroke: #1f77b4; stroke-opacity: 0.5; stroke-width: 0.8"/>
    </g>
   </g>
   <g id="PolyCollection_2">
    <defs>
     <path id="m4cfc554aa8" d="M 54.545602 -148.728166 
L 54.545602 -136.083288 
L 57.824941 -137.969999 
L 61.10428 -140.068827 
L 64.383619 -142.415267 
L 67.662958 -145.04018 
L 70.942296 -147.964985 
L 74.221636 -151.198743 
L 77.500973 -154.736341 
L 80.780313 -158.559551 
L 84.059653 -162.63841 
L 87.33899 -166.933451 
L 90.61833 -171.398976 
L 93.89767 -175.985205 
L 97.177007 -180.640519 
L 100.456344 -185.313366 
L 103.735686 -189.952722 
L 107.015024 -194.508827 
L 110.294361 -198.93261 
L 113.573703 -203.174924 
L 116.853041 -207.186193 
L 120.132378 -210.915355 
L 123.41172 -214.310114 
L 126.691057 -217.316868 
L 129.970395 -219.882215 
L 133.249737 -221.954982 
L 136.529069 -223.489329 
L 139.808412 -224.448319 
L 143.087754 -224.807558 
L 146.367086 -224.558047 
L 149.646428 -223.707335 
L 152.92577 -222.278514 
L 156.205103 -220.307408 
L 159.484445 -217.837541 
L 162.763787 -214.915085 
L 166.04312 -211.583792 
L 169.322462 -207.880145 
L 172.601804 -203.830359 
L 175.881137 -199.448577 
L 179.160479 -194.736605 
L 182.439821 -189.685306 
L 185.719153 -184.278017 
L 188.998496 -178.495086 
L 192.277838 -172.319966 
L 195.55717 -165.745303 
L 198.836512 -158.778495 
L 202.115855 -151.44546 
L 205.395187 -143.792029 
L 208.674529 -135.88309 
L 211.953871 -127.799795 
L 215.233204 -119.635725 
L 218.512556 -111.492514 
L 221.791879 -103.476104 
L 225.071221 -95.692605 
L 228.350563 -88.245714 
L 231.629886 -81.233572 
L 234.909247 -74.74634 
L 238.18857 -68.864415 
L 241.467912 -63.655944 
L 244.747254 -59.175157 
L 248.026597 -55.460777 
L 251.305939 -52.534333 
L 254.585262 -50.399103 
L 257.864623 -49.039771 
L 261.143946 -48.423375 
L 264.423288 -48.501552 
L 267.70263 -49.21584 
L 270.981953 -50.504783 
L 274.261315 -52.313544 
L 277.540637 -54.60269 
L 280.81998 -57.354165 
L 284.099322 -60.571679 
L 287.378664 -64.274734 
L 290.658006 -68.489431 
L 293.937329 -73.237687 
L 297.21669 -78.528995 
L 300.496013 -84.354293 
L 303.775355 -90.684299 
L 307.054697 -97.46835 
L 310.33402 -104.636996 
L 313.613382 -112.103862 
L 316.892705 -119.769848 
L 320.172047 -127.526231 
L 323.451389 -135.259155 
L 326.730731 -142.853296 
L 330.010073 -150.19635 
L 333.289396 -157.18212 
L 336.568738 -163.714675 
L 339.84808 -169.711028 
L 343.127423 -175.102969 
L 346.406765 -179.838956 
L 349.686088 -183.883262 
L 352.96543 -187.21666 
L 356.244772 -189.832556 
L 359.524114 -191.735672 
L 362.803456 -192.938959 
L 366.082798 -193.461171 
L 369.362141 -193.326293 
L 372.641463 -192.563084 
L 375.920806 -191.207037 
L 379.200148 -189.303473 
L 379.200148 -203.549698 
L 379.200148 -203.549698 
L 375.920806 -206.206246 
L 372.641463 -208.147156 
L 369.362141 -209.275151 
L 366.082798 -209.531922 
L 362.803456 -208.901267 
L 359.524114 -207.399986 
L 356.244772 -205.062266 
L 352.96543 -201.926828 
L 349.686088 -198.03167 
L 346.406765 -193.416043 
L 343.127423 -188.122885 
L 339.84808 -182.204989 
L 336.568738 -175.725793 
L 333.289396 -168.761956 
L 330.010073 -161.402156 
L 326.730731 -153.746201 
L 323.451389 -145.902916 
L 320.172047 -137.986361 
L 316.892705 -130.113048 
L 313.613382 -122.397727 
L 310.33402 -114.949693 
L 307.054697 -107.867885 
L 303.775355 -101.237328 
L 300.496013 -95.123764 
L 297.21669 -89.569991 
L 293.937329 -84.590894 
L 290.658006 -80.171868 
L 287.378664 -76.268604 
L 284.099322 -72.814446 
L 280.81998 -69.735445 
L 277.540637 -66.974544 
L 274.261315 -64.5147 
L 270.981953 -62.39101 
L 267.70263 -60.683443 
L 264.423288 -59.496341 
L 261.143946 -58.936313 
L 257.864623 -59.095794 
L 254.585262 -60.045217 
L 251.305939 -61.829925 
L 248.026597 -64.470952 
L 244.747254 -67.966765 
L 241.467912 -72.295491 
L 238.18857 -77.417179 
L 234.909247 -83.276216 
L 231.629886 -89.803248 
L 228.350563 -96.916907 
L 225.071221 -104.526159 
L 221.791879 -112.531709 
L 218.512556 -120.827982 
L 215.233204 -129.305503 
L 211.953871 -137.852637 
L 208.674529 -146.358978 
L 205.395187 -154.718501 
L 202.115855 -162.834196 
L 198.836512 -170.623083 
L 195.55717 -178.021647 
L 192.277838 -184.990019 
L 188.998496 -191.513773 
L 185.719153 -197.601909 
L 182.439821 -203.28068 
L 179.160479 -208.585098 
L 175.881137 -213.54926 
L 172.601804 -218.198509 
L 169.322462 -222.543096 
L 166.04312 -226.574535 
L 162.763787 -230.264031 
L 159.484445 -233.562537 
L 156.205103 -236.402534 
L 152.92577 -238.703822 
L 149.646428 -240.382593 
L 146.367086 -241.365019 
L 143.087754 -241.603971 
L 139.808412 -241.090299 
L 136.529069 -239.854677 
L 133.249737 -237.958429 
L 129.970395 -235.479496 
L 126.691057 -232.500037 
L 123.41172 -229.098671 
L 120.132378 -225.3467 
L 116.853041 -221.307636 
L 113.573703 -217.037623 
L 110.294361 -212.587382 
L 107.015024 -208.003487 
L 103.735686 -203.330716 
L 100.456344 -198.613033 
L 97.177007 -193.895139 
L 93.89767 -189.223452 
L 90.61833 -184.645268 
L 87.33899 -180.208434 
L 84.059653 -175.958677 
L 80.780313 -171.936617 
L 77.500973 -168.174634 
L 74.221636 -164.692076 
L 70.942296 -161.492111 
L 67.662958 -158.56022 
L 64.383619 -155.863904 
L 61.10428 -153.358198 
L 57.824941 -150.993896 
L 54.545602 -148.728166 
z
" style="stroke: #ff7f0e; stroke-opacity: 0.5; stroke-width: 0.8"/>
    </defs>
    <g clip-path="url(#p881932d188)">
     <use xlink:href="#m4cfc554aa8" x="0" y="322.510875" style="fill: #ff7f0e; fill-opacity: 0.5; stroke: #ff7f0e; stroke-opacity: 0.5; stroke-width: 0.8"/>
    </g>
   </g>
   <g id="PolyCollection_3">
    <defs>
     <path id="m25bf992920" d="M 54.545602 -213.469587 
L 54.545602 -200.824714 
L 57.824941 -200.827286 
L 61.10428 -201.670429 
L 64.383619 -203.287389 
L 67.662958 -205.590821 
L 70.942296 -208.483926 
L 74.221636 -211.869251 
L 77.500973 -215.655368 
L 80.780313 -219.757355 
L 84.059653 -224.097169 
L 87.33899 -228.601862 
L 90.61833 -233.200968 
L 93.89767 -237.824779 
L 97.177007 -242.403693 
L 100.456344 -246.867319 
L 103.735686 -251.146303 
L 107.015024 -255.173381 
L 110.294361 -258.885786 
L 113.573703 -262.228892 
L 116.853041 -265.158103 
L 120.132378 -267.642391 
L 123.41172 -269.666926 
L 126.691057 -271.234942 
L 129.970395 -272.368749 
L 133.249737 -273.10941 
L 136.529069 -273.512535 
L 139.808412 -273.640015 
L 143.087754 -273.546959 
L 146.367086 -273.266829 
L 149.646428 -272.800859 
L 152.92577 -272.119108 
L 156.205103 -271.170459 
L 159.484445 -269.897783 
L 162.763787 -268.250817 
L 166.04312 -266.193978 
L 169.322462 -263.711138 
L 172.601804 -260.806876 
L 175.881137 -257.50586 
L 179.160479 -253.851142 
L 182.439821 -249.900412 
L 185.719153 -245.720079 
L 188.998496 -241.377545 
L 192.277838 -236.932721 
L 195.55717 -232.43025 
L 198.836512 -227.894234 
L 202.115855 -223.327675 
L 205.395187 -218.715335 
L 208.674529 -214.029 
L 211.953871 -209.234224 
L 215.233204 -204.296129 
L 218.512556 -199.184596 
L 221.791879 -193.878302 
L 225.071221 -188.367397 
L 228.350563 -182.65567 
L 231.629886 -176.761929 
L 234.909247 -170.720496 
L 238.18857 -164.581715 
L 241.467912 -158.411708 
L 244.747254 -152.291942 
L 248.026597 -146.3188 
L 251.305939 -140.602656 
L 254.585262 -135.26718 
L 257.864623 -130.448523 
L 261.143946 -126.293893 
L 264.423288 -122.959297 
L 267.70263 -120.603635 
L 270.981953 -119.378448 
L 274.261315 -119.409468 
L 277.540637 -120.772845 
L 280.81998 -123.473949 
L 284.099322 -127.439577 
L 287.378664 -132.530158 
L 290.658006 -138.564531 
L 293.937329 -145.344883 
L 297.21669 -152.675167 
L 300.496013 -160.3698 
L 303.775355 -168.258883 
L 307.054697 -176.188003 
L 310.33402 -184.01937 
L 313.613382 -191.631496 
L 316.892705 -198.918232 
L 320.172047 -205.789903 
L 323.451389 -212.172495 
L 326.730731 -218.007482 
L 330.010073 -223.252 
L 333.289396 -227.878087 
L 336.568738 -231.872095 
L 339.84808 -235.234468 
L 343.127423 -237.979501 
L 346.406765 -240.135189 
L 349.686088 -241.744716 
L 352.96543 -242.868448 
L 356.244772 -243.585858 
L 359.524114 -243.997618 
L 362.803456 -244.225226 
L 366.082798 -244.401374 
L 369.362141 -244.655815 
L 372.641463 -245.094092 
L 375.920806 -245.786398 
L 379.200148 -246.767627 
L 379.200148 -261.01385 
L 379.200148 -261.01385 
L 375.920806 -260.785606 
L 372.641463 -260.678164 
L 369.362141 -260.604672 
L 366.082798 -260.472123 
L 362.803456 -260.187536 
L 359.524114 -259.661928 
L 356.244772 -258.815568 
L 352.96543 -257.578616 
L 349.686088 -255.893122 
L 346.406765 -253.712276 
L 343.127423 -250.999417 
L 339.84808 -247.728426 
L 336.568738 -243.883218 
L 333.289396 -239.457918 
L 330.010073 -234.457801 
L 326.730731 -228.900385 
L 323.451389 -222.816256 
L 320.172047 -216.250022 
L 316.892705 -209.261431 
L 313.613382 -201.925366 
L 310.33402 -194.332072 
L 307.054697 -186.587537 
L 303.775355 -178.811912 
L 300.496013 -171.139277 
L 297.21669 -163.716163 
L 293.937329 -156.69809 
L 290.658006 -150.246969 
L 287.378664 -144.52404 
L 284.099322 -139.682334 
L 280.81998 -135.85523 
L 277.540637 -133.144698 
L 274.261315 -131.610612 
L 270.981953 -131.264664 
L 267.70263 -132.071237 
L 264.423288 -133.954098 
L 261.143946 -136.806831 
L 257.864623 -140.504536 
L 254.585262 -144.913294 
L 251.305939 -149.898248 
L 248.026597 -155.328986 
L 244.747254 -161.083561 
L 241.467912 -167.051255 
L 238.18857 -173.134478 
L 234.909247 -179.250367 
L 231.629886 -185.331605 
L 228.350563 -191.326869 
L 225.071221 -197.200947 
L 221.791879 -202.933912 
L 218.512556 -208.52007 
L 215.233204 -213.965908 
L 211.953871 -219.28706 
L 208.674529 -224.50488 
L 205.395187 -229.641803 
L 202.115855 -234.716405 
L 198.836512 -239.738819 
L 195.55717 -244.706591 
L 192.277838 -249.602777 
L 188.998496 -254.396232 
L 185.719153 -259.043969 
L 182.439821 -263.495789 
L 179.160479 -267.699636 
L 175.881137 -271.60654 
L 172.601804 -275.175026 
L 169.322462 -278.374089 
L 166.04312 -281.184721 
L 162.763787 -283.599763 
L 159.484445 -285.622779 
L 156.205103 -287.265585 
L 152.92577 -288.544416 
L 149.646428 -289.476117 
L 146.367086 -290.073802 
L 143.087754 -290.343375 
L 139.808412 -290.281995 
L 136.529069 -289.877883 
L 133.249737 -289.11286 
L 129.970395 -287.96603 
L 126.691057 -286.418111 
L 123.41172 -284.45548 
L 120.132378 -282.073732 
L 116.853041 -279.279547 
L 113.573703 -276.091589 
L 110.294361 -272.540561 
L 107.015024 -268.668036 
L 103.735686 -264.524297 
L 100.456344 -260.166989 
L 97.177007 -255.658312 
L 93.89767 -251.063022 
L 90.61833 -246.44726 
L 87.33899 -241.876848 
L 84.059653 -237.417439 
L 80.780313 -233.134421 
L 77.500973 -229.093653 
L 74.221636 -225.362582 
L 70.942296 -222.01105 
L 67.662958 -219.110863 
L 64.383619 -216.736031 
L 61.10428 -214.959806 
L 57.824941 -213.851191 
L 54.545602 -213.469587 
z
" style="stroke: #ff7f0e; stroke-opacity: 0.5; stroke-width: 0.8"/>
    </defs>
    <g clip-path="url(#p881932d188)">
     <use xlink:href="#m25bf992920" x="0" y="322.510875" style="fill: #ff7f0e; fill-opacity: 0.5; stroke: #ff7f0e; stroke-opacity: 0.5; stroke-width: 0.8"/>
    </g>
   </g>
   <g id="line2d_13">
    <defs>
     <path id="mde5146ad49" d="M -5 5 
L 5 -5 
M -5 -5 
L 5 5 
" style="stroke: #000000; stroke-width: 2"/>
    </defs>
    <g clip-path="url(#p881932d188)">
     <use xlink:href="#mde5146ad49" x="95.766934" y="107.255048" style="stroke: #000000; stroke-width: 2"/>
     <use xlink:href="#mde5146ad49" x="368.394943" y="82.557549" style="stroke: #000000; stroke-width: 2"/>
     <use xlink:href="#mde5146ad49" x="139.110317" y="55.655317" style="stroke: #000000; stroke-width: 2"/>
     <use xlink:href="#mde5146ad49" x="345.837519" y="101.123332" style="stroke: #000000; stroke-width: 2"/>
     <use xlink:href="#mde5146ad49" x="192.277838" y="113.442253" style="stroke: #000000; stroke-width: 2"/>
     <use xlink:href="#mde5146ad49" x="277.540637" y="246.64299" style="stroke: #000000; stroke-width: 2"/>
     <use xlink:href="#mde5146ad49" x="149.646428" y="68.953405" style="stroke: #000000; stroke-width: 2"/>
     <use xlink:href="#mde5146ad49" x="379.200148" y="115.147669" style="stroke: #000000; stroke-width: 2"/>
     <use xlink:href="#mde5146ad49" x="146.367086" y="67.833267" style="stroke: #000000; stroke-width: 2"/>
     <use xlink:href="#mde5146ad49" x="54.545602" y="156.408805" style="stroke: #000000; stroke-width: 2"/>
    </g>
   </g>
   <g id="line2d_14">
    <path d="M 54.545602 147.734435 
L 57.824941 146.600281 
L 61.10428 144.996561 
L 64.383619 142.935226 
L 67.662958 140.435355 
L 70.942296 137.522857 
L 74.221636 134.230213 
L 77.500973 130.595875 
L 80.780313 126.663889 
L 84.059653 122.482952 
L 87.33899 118.105727 
L 90.61833 113.587756 
L 93.89767 108.98676 
L 97.177007 104.361458 
L 100.456344 99.770698 
L 103.735686 95.272365 
L 107.015024 90.922442 
L 110.294361 86.77429 
L 113.573703 82.877618 
L 116.853041 79.278006 
L 120.132378 76.01633 
L 123.41172 73.128076 
L 126.691057 70.643385 
L 129.970395 68.586752 
L 133.249737 66.976956 
L 136.529069 65.827269 
L 139.808412 65.145718 
L 143.087754 64.93541 
L 146.367086 65.194951 
L 149.646428 65.919149 
L 152.92577 67.09941 
L 156.205103 68.724378 
L 159.484445 70.780715 
L 162.763787 73.253451 
L 166.04312 76.126618 
L 169.322462 79.383759 
L 172.601804 83.008182 
L 175.881137 86.983315 
L 179.160479 91.292753 
L 182.439821 95.920329 
L 185.719153 100.849881 
L 188.998496 106.065218 
L 192.277838 111.549505 
L 195.55717 117.284927 
L 198.836512 123.252217 
L 202.115855 129.429941 
L 205.395187 135.79396 
L 208.674529 142.316889 
L 211.953871 148.967447 
L 215.233204 155.710059 
L 218.512556 162.504583 
L 221.791879 169.30587 
L 225.071221 176.064099 
L 228.350563 182.724586 
L 231.629886 189.228289 
L 234.909247 195.512519 
L 238.18857 201.511428 
L 241.467912 207.157281 
L 244.747254 212.381522 
L 248.026597 217.115994 
L 251.305939 221.29459 
L 254.585262 224.854677 
L 257.864623 227.738722 
L 261.143946 229.895772 
L 264.423288 231.28305 
L 267.70263 231.867336 
L 270.981953 231.626151 
L 274.261315 230.548797 
L 277.540637 228.637181 
L 280.81998 225.906178 
L 284.099322 222.383863 
L 287.378664 218.111494 
L 290.658006 213.142675 
L 293.937329 207.542987 
L 297.21669 201.388296 
L 300.496013 194.764093 
L 303.775355 187.762769 
L 307.054697 180.482931 
L 310.33402 173.026344 
L 313.613382 165.496261 
L 316.892705 157.995235 
L 320.172047 150.622746 
L 323.451389 143.47317 
L 326.730731 136.634035 
L 330.010073 130.183798 
L 333.289396 124.190854 
L 336.568738 118.71193 
L 339.84808 113.791146 
L 343.127423 109.459681 
L 346.406765 105.735259 
L 349.686088 102.622681 
L 352.96543 100.113238 
L 356.244772 98.186813 
L 359.524114 96.812073 
L 362.803456 95.947628 
L 366.082798 95.544228 
L 369.362141 95.545393 
L 372.641463 95.890252 
L 375.920806 96.514554 
L 379.200148 97.352212 
" clip-path="url(#p881932d188)" style="fill: none; stroke: #1f77b4; stroke-width: 2; stroke-linecap: round"/>
   </g>
   <g id="line2d_15">
    <path d="M 54.545602 156.408805 
L 57.824941 150.888792 
L 61.10428 145.389262 
L 64.383619 139.93061 
L 67.662958 134.533158 
L 70.942296 129.216999 
L 74.221636 124.002035 
L 77.500973 118.907813 
L 80.780313 113.953497 
L 84.059653 109.157825 
L 87.33899 104.538995 
L 90.61833 100.114635 
L 93.89767 95.901734 
L 97.177007 91.916583 
L 100.456344 88.174705 
L 103.735686 84.690842 
L 107.015024 81.478861 
L 110.294361 78.551726 
L 113.573703 75.921437 
L 116.853041 73.599017 
L 120.132378 71.594458 
L 123.41172 69.916671 
L 126.691057 68.573475 
L 129.970395 67.571562 
L 133.249737 66.916461 
L 136.529069 66.612529 
L 139.808412 66.662932 
L 143.087754 67.069606 
L 146.367086 67.833267 
L 149.646428 68.953405 
L 152.92577 70.428249 
L 156.205103 72.254769 
L 159.484445 74.428715 
L 162.763787 76.944539 
L 166.04312 79.795471 
L 169.322462 82.973476 
L 172.601804 86.469273 
L 175.881137 90.27234 
L 179.160479 94.370905 
L 182.439821 98.752013 
L 185.719153 103.401416 
L 188.998496 108.303718 
L 192.277838 113.442253 
L 195.55717 118.799226 
L 198.836512 124.355587 
L 202.115855 130.091087 
L 205.395187 135.9843 
L 208.674529 142.012622 
L 211.953871 148.152202 
L 215.233204 154.378031 
L 218.512556 160.663885 
L 221.791879 166.982263 
L 225.071221 173.304524 
L 228.350563 179.600759 
L 231.629886 185.839656 
L 234.909247 191.98891 
L 238.18857 198.01459 
L 241.467912 203.881738 
L 244.747254 209.553919 
L 248.026597 214.993426 
L 251.305939 220.161288 
L 254.585262 225.017135 
L 257.864623 229.519439 
L 261.143946 233.625392 
L 264.423288 237.291117 
L 267.70263 240.4717 
L 270.981953 243.121474 
L 274.261315 245.194103 
L 277.540637 246.64299 
L 280.81998 247.421617 
L 284.099322 247.484036 
L 287.378664 246.785473 
L 290.658006 245.283141 
L 293.937329 242.93712 
L 297.21669 239.711398 
L 300.496013 235.575633 
L 303.775355 230.506127 
L 307.054697 224.488321 
L 310.33402 217.518892 
L 313.613382 209.608043 
L 316.892705 200.782967 
L 320.172047 191.090743 
L 323.451389 180.602181 
L 326.730731 169.415833 
L 330.010073 157.662014 
L 333.289396 145.50706 
L 336.568738 133.15741 
L 339.84808 120.862848 
L 343.127423 108.919224 
L 346.406765 97.669465 
L 349.686088 87.50178 
L 352.96543 78.844878 
L 356.244772 72.159259 
L 359.524114 67.921469 
L 362.803456 66.602267 
L 366.082798 68.635672 
L 369.362141 74.378469 
L 372.641463 84.059734 
L 375.920806 97.720682 
L 379.200148 115.147669 
" clip-path="url(#p881932d188)" style="fill: none; stroke-dasharray: 7.68,1.92,1.2,1.92; stroke-dashoffset: 0; stroke: #bf00bf; stroke-width: 1.2"/>
   </g>
   <g id="patch_3">
    <path d="M 38.312875 247.547975 
L 38.312875 21.350166 
" style="fill: none; stroke: #262626; stroke-linejoin: miter; stroke-linecap: square"/>
   </g>
   <g id="patch_4">
    <path d="M 54.545602 286.1835 
L 379.200148 286.1835 
" style="fill: none; stroke: #262626; stroke-linejoin: miter; stroke-linecap: square"/>
   </g>
   <g id="text_15">
    <!-- N=5,  -->
    <g style="fill: #262626" transform="translate(205.266625 14.0715) scale(0.096 -0.096)">
     <defs>
      <path id="ArialMT-4e" d="M 488 0 
L 488 4581 
L 1109 4581 
L 3516 984 
L 3516 4581 
L 4097 4581 
L 4097 0 
L 3475 0 
L 1069 3600 
L 1069 0 
L 488 0 
z
" transform="scale(0.015625)"/>
      <path id="ArialMT-3d" d="M 3381 2694 
L 356 2694 
L 356 3219 
L 3381 3219 
L 3381 2694 
z
M 3381 1303 
L 356 1303 
L 356 1828 
L 3381 1828 
L 3381 1303 
z
" transform="scale(0.015625)"/>
      <path id="ArialMT-35" d="M 266 1200 
L 856 1250 
Q 922 819 1161 601 
Q 1400 384 1738 384 
Q 2144 384 2425 690 
Q 2706 997 2706 1503 
Q 2706 1984 2436 2262 
Q 2166 2541 1728 2541 
Q 1456 2541 1237 2417 
Q 1019 2294 894 2097 
L 366 2166 
L 809 4519 
L 3088 4519 
L 3088 3981 
L 1259 3981 
L 1013 2750 
Q 1425 3038 1878 3038 
Q 2478 3038 2890 2622 
Q 3303 2206 3303 1553 
Q 3303 931 2941 478 
Q 2500 -78 1738 -78 
Q 1113 -78 717 272 
Q 322 622 266 1200 
z
" transform="scale(0.015625)"/>
      <path id="ArialMT-2c" d="M 569 0 
L 569 641 
L 1209 641 
L 1209 0 
Q 1209 -353 1084 -570 
Q 959 -788 688 -906 
L 531 -666 
Q 709 -588 793 -436 
Q 878 -284 888 0 
L 569 0 
z
" transform="scale(0.015625)"/>
      <path id="ArialMT-20" transform="scale(0.015625)"/>
     </defs>
     <use xlink:href="#ArialMT-4e"/>
     <use xlink:href="#ArialMT-3d" x="72.216797"/>
     <use xlink:href="#ArialMT-35" x="130.615234"/>
     <use xlink:href="#ArialMT-2c" x="186.230469"/>
     <use xlink:href="#ArialMT-20" x="214.013672"/>
    </g>
   </g>
   <g id="legend_1">
    <g id="line2d_16">
     <g>
      <use xlink:href="#mde5146ad49" x="55.032875" y="219.978625" style="stroke: #000000; stroke-width: 2"/>
     </g>
    </g>
    <g id="text_16">
     <!-- Observations -->
     <g style="fill: #262626" transform="translate(70.872875 223.058625) scale(0.088 -0.088)">
      <defs>
       <path id="ArialMT-4f" d="M 309 2231 
Q 309 3372 921 4017 
Q 1534 4663 2503 4663 
Q 3138 4663 3647 4359 
Q 4156 4056 4423 3514 
Q 4691 2972 4691 2284 
Q 4691 1588 4409 1038 
Q 4128 488 3612 205 
Q 3097 -78 2500 -78 
Q 1853 -78 1343 234 
Q 834 547 571 1087 
Q 309 1628 309 2231 
z
M 934 2222 
Q 934 1394 1379 917 
Q 1825 441 2497 441 
Q 3181 441 3623 922 
Q 4066 1403 4066 2288 
Q 4066 2847 3877 3264 
Q 3688 3681 3323 3911 
Q 2959 4141 2506 4141 
Q 1863 4141 1398 3698 
Q 934 3256 934 2222 
z
" transform="scale(0.015625)"/>
       <path id="ArialMT-62" d="M 941 0 
L 419 0 
L 419 4581 
L 981 4581 
L 981 2947 
Q 1338 3394 1891 3394 
Q 2197 3394 2470 3270 
Q 2744 3147 2920 2923 
Q 3097 2700 3197 2384 
Q 3297 2069 3297 1709 
Q 3297 856 2875 390 
Q 2453 -75 1863 -75 
Q 1275 -75 941 416 
L 941 0 
z
M 934 1684 
Q 934 1088 1097 822 
Q 1363 388 1816 388 
Q 2184 388 2453 708 
Q 2722 1028 2722 1663 
Q 2722 2313 2464 2622 
Q 2206 2931 1841 2931 
Q 1472 2931 1203 2611 
Q 934 2291 934 1684 
z
" transform="scale(0.015625)"/>
       <path id="ArialMT-73" d="M 197 991 
L 753 1078 
Q 800 744 1014 566 
Q 1228 388 1613 388 
Q 2000 388 2187 545 
Q 2375 703 2375 916 
Q 2375 1106 2209 1216 
Q 2094 1291 1634 1406 
Q 1016 1563 777 1677 
Q 538 1791 414 1992 
Q 291 2194 291 2438 
Q 291 2659 392 2848 
Q 494 3038 669 3163 
Q 800 3259 1026 3326 
Q 1253 3394 1513 3394 
Q 1903 3394 2198 3281 
Q 2494 3169 2634 2976 
Q 2775 2784 2828 2463 
L 2278 2388 
Q 2241 2644 2061 2787 
Q 1881 2931 1553 2931 
Q 1166 2931 1000 2803 
Q 834 2675 834 2503 
Q 834 2394 903 2306 
Q 972 2216 1119 2156 
Q 1203 2125 1616 2013 
Q 2213 1853 2448 1751 
Q 2684 1650 2818 1456 
Q 2953 1263 2953 975 
Q 2953 694 2789 445 
Q 2625 197 2315 61 
Q 2006 -75 1616 -75 
Q 969 -75 630 194 
Q 291 463 197 991 
z
" transform="scale(0.015625)"/>
       <path id="ArialMT-65" d="M 2694 1069 
L 3275 997 
Q 3138 488 2766 206 
Q 2394 -75 1816 -75 
Q 1088 -75 661 373 
Q 234 822 234 1631 
Q 234 2469 665 2931 
Q 1097 3394 1784 3394 
Q 2450 3394 2872 2941 
Q 3294 2488 3294 1666 
Q 3294 1616 3291 1516 
L 816 1516 
Q 847 969 1125 678 
Q 1403 388 1819 388 
Q 2128 388 2347 550 
Q 2566 713 2694 1069 
z
M 847 1978 
L 2700 1978 
Q 2663 2397 2488 2606 
Q 2219 2931 1791 2931 
Q 1403 2931 1139 2672 
Q 875 2413 847 1978 
z
" transform="scale(0.015625)"/>
       <path id="ArialMT-72" d="M 416 0 
L 416 3319 
L 922 3319 
L 922 2816 
Q 1116 3169 1280 3281 
Q 1444 3394 1641 3394 
Q 1925 3394 2219 3213 
L 2025 2691 
Q 1819 2813 1613 2813 
Q 1428 2813 1281 2702 
Q 1134 2591 1072 2394 
Q 978 2094 978 1738 
L 978 0 
L 416 0 
z
" transform="scale(0.015625)"/>
       <path id="ArialMT-76" d="M 1344 0 
L 81 3319 
L 675 3319 
L 1388 1331 
Q 1503 1009 1600 663 
Q 1675 925 1809 1294 
L 2547 3319 
L 3125 3319 
L 1869 0 
L 1344 0 
z
" transform="scale(0.015625)"/>
       <path id="ArialMT-61" d="M 2588 409 
Q 2275 144 1986 34 
Q 1697 -75 1366 -75 
Q 819 -75 525 192 
Q 231 459 231 875 
Q 231 1119 342 1320 
Q 453 1522 633 1644 
Q 813 1766 1038 1828 
Q 1203 1872 1538 1913 
Q 2219 1994 2541 2106 
Q 2544 2222 2544 2253 
Q 2544 2597 2384 2738 
Q 2169 2928 1744 2928 
Q 1347 2928 1158 2789 
Q 969 2650 878 2297 
L 328 2372 
Q 403 2725 575 2942 
Q 747 3159 1072 3276 
Q 1397 3394 1825 3394 
Q 2250 3394 2515 3294 
Q 2781 3194 2906 3042 
Q 3031 2891 3081 2659 
Q 3109 2516 3109 2141 
L 3109 1391 
Q 3109 606 3145 398 
Q 3181 191 3288 0 
L 2700 0 
Q 2613 175 2588 409 
z
M 2541 1666 
Q 2234 1541 1622 1453 
Q 1275 1403 1131 1340 
Q 988 1278 909 1158 
Q 831 1038 831 891 
Q 831 666 1001 516 
Q 1172 366 1500 366 
Q 1825 366 2078 508 
Q 2331 650 2450 897 
Q 2541 1088 2541 1459 
L 2541 1666 
z
" transform="scale(0.015625)"/>
       <path id="ArialMT-74" d="M 1650 503 
L 1731 6 
Q 1494 -44 1306 -44 
Q 1000 -44 831 53 
Q 663 150 594 308 
Q 525 466 525 972 
L 525 2881 
L 113 2881 
L 113 3319 
L 525 3319 
L 525 4141 
L 1084 4478 
L 1084 3319 
L 1650 3319 
L 1650 2881 
L 1084 2881 
L 1084 941 
Q 1084 700 1114 631 
Q 1144 563 1211 522 
Q 1278 481 1403 481 
Q 1497 481 1650 503 
z
" transform="scale(0.015625)"/>
       <path id="ArialMT-69" d="M 425 3934 
L 425 4581 
L 988 4581 
L 988 3934 
L 425 3934 
z
M 425 0 
L 425 3319 
L 988 3319 
L 988 0 
L 425 0 
z
" transform="scale(0.015625)"/>
       <path id="ArialMT-6f" d="M 213 1659 
Q 213 2581 725 3025 
Q 1153 3394 1769 3394 
Q 2453 3394 2887 2945 
Q 3322 2497 3322 1706 
Q 3322 1066 3130 698 
Q 2938 331 2570 128 
Q 2203 -75 1769 -75 
Q 1072 -75 642 372 
Q 213 819 213 1659 
z
M 791 1659 
Q 791 1022 1069 705 
Q 1347 388 1769 388 
Q 2188 388 2466 706 
Q 2744 1025 2744 1678 
Q 2744 2294 2464 2611 
Q 2184 2928 1769 2928 
Q 1347 2928 1069 2612 
Q 791 2297 791 1659 
z
" transform="scale(0.015625)"/>
       <path id="ArialMT-6e" d="M 422 0 
L 422 3319 
L 928 3319 
L 928 2847 
Q 1294 3394 1984 3394 
Q 2284 3394 2536 3286 
Q 2788 3178 2913 3003 
Q 3038 2828 3088 2588 
Q 3119 2431 3119 2041 
L 3119 0 
L 2556 0 
L 2556 2019 
Q 2556 2363 2490 2533 
Q 2425 2703 2258 2804 
Q 2091 2906 1866 2906 
Q 1506 2906 1245 2678 
Q 984 2450 984 1813 
L 984 0 
L 422 0 
z
" transform="scale(0.015625)"/>
      </defs>
      <use xlink:href="#ArialMT-4f"/>
      <use xlink:href="#ArialMT-62" x="77.783203"/>
      <use xlink:href="#ArialMT-73" x="133.398438"/>
      <use xlink:href="#ArialMT-65" x="183.398438"/>
      <use xlink:href="#ArialMT-72" x="239.013672"/>
      <use xlink:href="#ArialMT-76" x="272.314453"/>
      <use xlink:href="#ArialMT-61" x="322.314453"/>
      <use xlink:href="#ArialMT-74" x="377.929688"/>
      <use xlink:href="#ArialMT-69" x="405.712891"/>
      <use xlink:href="#ArialMT-6f" x="427.929688"/>
      <use xlink:href="#ArialMT-6e" x="483.544922"/>
      <use xlink:href="#ArialMT-73" x="539.160156"/>
     </g>
    </g>
    <g id="line2d_17">
     <path d="M 46.232875 232.562625 
L 55.032875 232.562625 
L 63.832875 232.562625 
" style="fill: none; stroke: #1f77b4; stroke-width: 2; stroke-linecap: round"/>
    </g>
    <g id="text_17">
     <!-- $m_n(x)$ -->
     <g style="fill: #262626" transform="translate(70.872875 235.642625) scale(0.088 -0.088)">
      <defs>
       <path id="DejaVuSans-Oblique-6d" d="M 5747 2113 
L 5338 0 
L 4763 0 
L 5166 2094 
Q 5191 2228 5203 2325 
Q 5216 2422 5216 2491 
Q 5216 2772 5059 2928 
Q 4903 3084 4622 3084 
Q 4203 3084 3875 2770 
Q 3547 2456 3450 1953 
L 3066 0 
L 2491 0 
L 2900 2094 
Q 2925 2209 2937 2307 
Q 2950 2406 2950 2484 
Q 2950 2769 2794 2926 
Q 2638 3084 2363 3084 
Q 1938 3084 1609 2770 
Q 1281 2456 1184 1953 
L 800 0 
L 225 0 
L 909 3500 
L 1484 3500 
L 1375 2956 
Q 1609 3263 1923 3423 
Q 2238 3584 2597 3584 
Q 2978 3584 3223 3384 
Q 3469 3184 3519 2828 
Q 3781 3197 4126 3390 
Q 4472 3584 4856 3584 
Q 5306 3584 5551 3325 
Q 5797 3066 5797 2591 
Q 5797 2488 5784 2364 
Q 5772 2241 5747 2113 
z
" transform="scale(0.015625)"/>
       <path id="DejaVuSans-Oblique-6e" d="M 3566 2113 
L 3156 0 
L 2578 0 
L 2988 2091 
Q 3016 2238 3031 2350 
Q 3047 2463 3047 2528 
Q 3047 2791 2881 2937 
Q 2716 3084 2419 3084 
Q 1956 3084 1622 2776 
Q 1288 2469 1184 1941 
L 800 0 
L 225 0 
L 903 3500 
L 1478 3500 
L 1363 2950 
Q 1603 3253 1940 3418 
Q 2278 3584 2650 3584 
Q 3113 3584 3367 3334 
Q 3622 3084 3622 2631 
Q 3622 2519 3608 2391 
Q 3594 2263 3566 2113 
z
" transform="scale(0.015625)"/>
       <path id="DejaVuSans-28" d="M 1984 4856 
Q 1566 4138 1362 3434 
Q 1159 2731 1159 2009 
Q 1159 1288 1364 580 
Q 1569 -128 1984 -844 
L 1484 -844 
Q 1016 -109 783 600 
Q 550 1309 550 2009 
Q 550 2706 781 3412 
Q 1013 4119 1484 4856 
L 1984 4856 
z
" transform="scale(0.015625)"/>
       <path id="DejaVuSans-29" d="M 513 4856 
L 1013 4856 
Q 1481 4119 1714 3412 
Q 1947 2706 1947 2009 
Q 1947 1309 1714 600 
Q 1481 -109 1013 -844 
L 513 -844 
Q 928 -128 1133 580 
Q 1338 1288 1338 2009 
Q 1338 2731 1133 3434 
Q 928 4138 513 4856 
z
" transform="scale(0.015625)"/>
      </defs>
      <use xlink:href="#DejaVuSans-Oblique-6d" transform="translate(0 0.125)"/>
      <use xlink:href="#DejaVuSans-Oblique-6e" transform="translate(97.412109 -16.28125) scale(0.7)"/>
      <use xlink:href="#DejaVuSans-28" transform="translate(144.511719 0.125)"/>
      <use xlink:href="#DejaVuSans-Oblique-78" transform="translate(183.525391 0.125)"/>
      <use xlink:href="#DejaVuSans-29" transform="translate(242.705078 0.125)"/>
     </g>
    </g>
    <g id="patch_5">
     <path d="M 46.232875 249.799625 
L 63.832875 249.799625 
L 63.832875 243.639625 
L 46.232875 243.639625 
z
" style="fill: #1f77b4; fill-opacity: 0.5; stroke: #1f77b4; stroke-opacity: 0.5; stroke-width: 0.8; stroke-linejoin: miter"/>
    </g>
    <g id="text_18">
     <!-- $f(\mathbf{x}^*)$ 95% pred. -->
     <g style="fill: #262626" transform="translate(70.872875 249.799625) scale(0.088 -0.088)">
      <defs>
       <path id="DejaVuSans-Oblique-66" d="M 3059 4863 
L 2969 4384 
L 2419 4384 
Q 2106 4384 1964 4261 
Q 1822 4138 1753 3809 
L 1691 3500 
L 2638 3500 
L 2553 3053 
L 1606 3053 
L 1013 0 
L 434 0 
L 1031 3053 
L 481 3053 
L 563 3500 
L 1113 3500 
L 1159 3744 
Q 1278 4363 1576 4613 
Q 1875 4863 2516 4863 
L 3059 4863 
z
" transform="scale(0.015625)"/>
       <path id="DejaVuSans-Bold-78" d="M 1422 1791 
L 159 3500 
L 1344 3500 
L 2059 2463 
L 2784 3500 
L 3969 3500 
L 2706 1797 
L 4031 0 
L 2847 0 
L 2059 1106 
L 1281 0 
L 97 0 
L 1422 1791 
z
" transform="scale(0.015625)"/>
       <path id="DejaVuSans-2a" d="M 3009 3897 
L 1888 3291 
L 3009 2681 
L 2828 2375 
L 1778 3009 
L 1778 1831 
L 1422 1831 
L 1422 3009 
L 372 2375 
L 191 2681 
L 1313 3291 
L 191 3897 
L 372 4206 
L 1422 3572 
L 1422 4750 
L 1778 4750 
L 1778 3572 
L 2828 4206 
L 3009 3897 
z
" transform="scale(0.015625)"/>
       <path id="ArialMT-39" d="M 350 1059 
L 891 1109 
Q 959 728 1153 556 
Q 1347 384 1650 384 
Q 1909 384 2104 503 
Q 2300 622 2425 820 
Q 2550 1019 2634 1356 
Q 2719 1694 2719 2044 
Q 2719 2081 2716 2156 
Q 2547 1888 2255 1720 
Q 1963 1553 1622 1553 
Q 1053 1553 659 1965 
Q 266 2378 266 3053 
Q 266 3750 677 4175 
Q 1088 4600 1706 4600 
Q 2153 4600 2523 4359 
Q 2894 4119 3086 3673 
Q 3278 3228 3278 2384 
Q 3278 1506 3087 986 
Q 2897 466 2520 194 
Q 2144 -78 1638 -78 
Q 1100 -78 759 220 
Q 419 519 350 1059 
z
M 2653 3081 
Q 2653 3566 2395 3850 
Q 2138 4134 1775 4134 
Q 1400 4134 1122 3828 
Q 844 3522 844 3034 
Q 844 2597 1108 2323 
Q 1372 2050 1759 2050 
Q 2150 2050 2401 2323 
Q 2653 2597 2653 3081 
z
" transform="scale(0.015625)"/>
       <path id="ArialMT-25" d="M 372 3481 
Q 372 3972 619 4315 
Q 866 4659 1334 4659 
Q 1766 4659 2048 4351 
Q 2331 4044 2331 3447 
Q 2331 2866 2045 2552 
Q 1759 2238 1341 2238 
Q 925 2238 648 2547 
Q 372 2856 372 3481 
z
M 1350 4272 
Q 1141 4272 1002 4090 
Q 863 3909 863 3425 
Q 863 2984 1003 2804 
Q 1144 2625 1350 2625 
Q 1563 2625 1702 2806 
Q 1841 2988 1841 3469 
Q 1841 3913 1700 4092 
Q 1559 4272 1350 4272 
z
M 1353 -169 
L 3859 4659 
L 4316 4659 
L 1819 -169 
L 1353 -169 
z
M 3334 1075 
Q 3334 1569 3581 1911 
Q 3828 2253 4300 2253 
Q 4731 2253 5014 1945 
Q 5297 1638 5297 1041 
Q 5297 459 5011 145 
Q 4725 -169 4303 -169 
Q 3888 -169 3611 142 
Q 3334 453 3334 1075 
z
M 4316 1866 
Q 4103 1866 3964 1684 
Q 3825 1503 3825 1019 
Q 3825 581 3965 400 
Q 4106 219 4313 219 
Q 4528 219 4667 400 
Q 4806 581 4806 1063 
Q 4806 1506 4665 1686 
Q 4525 1866 4316 1866 
z
" transform="scale(0.015625)"/>
       <path id="ArialMT-70" d="M 422 -1272 
L 422 3319 
L 934 3319 
L 934 2888 
Q 1116 3141 1344 3267 
Q 1572 3394 1897 3394 
Q 2322 3394 2647 3175 
Q 2972 2956 3137 2557 
Q 3303 2159 3303 1684 
Q 3303 1175 3120 767 
Q 2938 359 2589 142 
Q 2241 -75 1856 -75 
Q 1575 -75 1351 44 
Q 1128 163 984 344 
L 984 -1272 
L 422 -1272 
z
M 931 1641 
Q 931 1000 1190 694 
Q 1450 388 1819 388 
Q 2194 388 2461 705 
Q 2728 1022 2728 1688 
Q 2728 2322 2467 2637 
Q 2206 2953 1844 2953 
Q 1484 2953 1207 2617 
Q 931 2281 931 1641 
z
" transform="scale(0.015625)"/>
       <path id="ArialMT-64" d="M 2575 0 
L 2575 419 
Q 2259 -75 1647 -75 
Q 1250 -75 917 144 
Q 584 363 401 755 
Q 219 1147 219 1656 
Q 219 2153 384 2558 
Q 550 2963 881 3178 
Q 1213 3394 1622 3394 
Q 1922 3394 2156 3267 
Q 2391 3141 2538 2938 
L 2538 4581 
L 3097 4581 
L 3097 0 
L 2575 0 
z
M 797 1656 
Q 797 1019 1065 703 
Q 1334 388 1700 388 
Q 2069 388 2326 689 
Q 2584 991 2584 1609 
Q 2584 2291 2321 2609 
Q 2059 2928 1675 2928 
Q 1300 2928 1048 2622 
Q 797 2316 797 1656 
z
" transform="scale(0.015625)"/>
      </defs>
      <use xlink:href="#DejaVuSans-Oblique-66" transform="translate(0 0.765625)"/>
      <use xlink:href="#DejaVuSans-28" transform="translate(35.205078 0.765625)"/>
      <use xlink:href="#DejaVuSans-Bold-78" transform="translate(74.21875 0.765625)"/>
      <use xlink:href="#DejaVuSans-2a" transform="translate(153.31543 39.046875) scale(0.7)"/>
      <use xlink:href="#DejaVuSans-29" transform="translate(204.6875 0.765625)"/>
      <use xlink:href="#ArialMT-20" transform="translate(243.701172 0.765625)"/>
      <use xlink:href="#ArialMT-39" transform="translate(271.484375 0.765625)"/>
      <use xlink:href="#ArialMT-35" transform="translate(327.099609 0.765625)"/>
      <use xlink:href="#ArialMT-25" transform="translate(382.714844 0.765625)"/>
      <use xlink:href="#ArialMT-20" transform="translate(471.630859 0.765625)"/>
      <use xlink:href="#ArialMT-70" transform="translate(499.414062 0.765625)"/>
      <use xlink:href="#ArialMT-72" transform="translate(555.029297 0.765625)"/>
      <use xlink:href="#ArialMT-65" transform="translate(588.330078 0.765625)"/>
      <use xlink:href="#ArialMT-64" transform="translate(643.945312 0.765625)"/>
      <use xlink:href="#ArialMT-2e" transform="translate(699.560547 0.765625)"/>
     </g>
    </g>
    <g id="patch_6">
     <path d="M 46.232875 263.967625 
L 63.832875 263.967625 
L 63.832875 257.807625 
L 46.232875 257.807625 
z
" style="fill: #ff7f0e; fill-opacity: 0.5; stroke: #ff7f0e; stroke-opacity: 0.5; stroke-width: 0.8; stroke-linejoin: miter"/>
    </g>
    <g id="text_19">
     <!-- $y^*$ 95% pred. -->
     <g style="fill: #262626" transform="translate(70.872875 263.967625) scale(0.088 -0.088)">
      <use xlink:href="#DejaVuSans-Oblique-79" transform="translate(0 0.765625)"/>
      <use xlink:href="#DejaVuSans-2a" transform="translate(77.283529 39.046875) scale(0.7)"/>
      <use xlink:href="#ArialMT-20" transform="translate(128.655599 0.765625)"/>
      <use xlink:href="#ArialMT-39" transform="translate(156.438802 0.765625)"/>
      <use xlink:href="#ArialMT-35" transform="translate(212.054036 0.765625)"/>
      <use xlink:href="#ArialMT-25" transform="translate(267.669271 0.765625)"/>
      <use xlink:href="#ArialMT-20" transform="translate(356.585286 0.765625)"/>
      <use xlink:href="#ArialMT-70" transform="translate(384.36849 0.765625)"/>
      <use xlink:href="#ArialMT-72" transform="translate(439.983724 0.765625)"/>
      <use xlink:href="#ArialMT-65" transform="translate(473.284505 0.765625)"/>
      <use xlink:href="#ArialMT-64" transform="translate(528.89974 0.765625)"/>
      <use xlink:href="#ArialMT-2e" transform="translate(584.514974 0.765625)"/>
     </g>
    </g>
    <g id="line2d_18">
     <path d="M 46.232875 273.4345 
L 55.032875 273.4345 
L 63.832875 273.4345 
" style="fill: none; stroke-dasharray: 7.68,1.92,1.2,1.92; stroke-dashoffset: 0; stroke: #bf00bf; stroke-width: 1.2"/>
    </g>
    <g id="text_20">
     <!-- True function -->
     <g style="fill: #262626" transform="translate(70.872875 276.5145) scale(0.088 -0.088)">
      <defs>
       <path id="ArialMT-54" d="M 1659 0 
L 1659 4041 
L 150 4041 
L 150 4581 
L 3781 4581 
L 3781 4041 
L 2266 4041 
L 2266 0 
L 1659 0 
z
" transform="scale(0.015625)"/>
       <path id="ArialMT-75" d="M 2597 0 
L 2597 488 
Q 2209 -75 1544 -75 
Q 1250 -75 995 37 
Q 741 150 617 320 
Q 494 491 444 738 
Q 409 903 409 1263 
L 409 3319 
L 972 3319 
L 972 1478 
Q 972 1038 1006 884 
Q 1059 663 1231 536 
Q 1403 409 1656 409 
Q 1909 409 2131 539 
Q 2353 669 2445 892 
Q 2538 1116 2538 1541 
L 2538 3319 
L 3100 3319 
L 3100 0 
L 2597 0 
z
" transform="scale(0.015625)"/>
       <path id="ArialMT-66" d="M 556 0 
L 556 2881 
L 59 2881 
L 59 3319 
L 556 3319 
L 556 3672 
Q 556 4006 616 4169 
Q 697 4388 901 4523 
Q 1106 4659 1475 4659 
Q 1713 4659 2000 4603 
L 1916 4113 
Q 1741 4144 1584 4144 
Q 1328 4144 1222 4034 
Q 1116 3925 1116 3625 
L 1116 3319 
L 1763 3319 
L 1763 2881 
L 1116 2881 
L 1116 0 
L 556 0 
z
" transform="scale(0.015625)"/>
       <path id="ArialMT-63" d="M 2588 1216 
L 3141 1144 
Q 3050 572 2676 248 
Q 2303 -75 1759 -75 
Q 1078 -75 664 370 
Q 250 816 250 1647 
Q 250 2184 428 2587 
Q 606 2991 970 3192 
Q 1334 3394 1763 3394 
Q 2303 3394 2647 3120 
Q 2991 2847 3088 2344 
L 2541 2259 
Q 2463 2594 2264 2762 
Q 2066 2931 1784 2931 
Q 1359 2931 1093 2626 
Q 828 2322 828 1663 
Q 828 994 1084 691 
Q 1341 388 1753 388 
Q 2084 388 2306 591 
Q 2528 794 2588 1216 
z
" transform="scale(0.015625)"/>
      </defs>
      <use xlink:href="#ArialMT-54"/>
      <use xlink:href="#ArialMT-72" x="57.333984"/>
      <use xlink:href="#ArialMT-75" x="90.634766"/>
      <use xlink:href="#ArialMT-65" x="146.25"/>
      <use xlink:href="#ArialMT-20" x="201.865234"/>
      <use xlink:href="#ArialMT-66" x="229.648438"/>
      <use xlink:href="#ArialMT-75" x="257.431641"/>
      <use xlink:href="#ArialMT-6e" x="313.046875"/>
      <use xlink:href="#ArialMT-63" x="368.662109"/>
      <use xlink:href="#ArialMT-74" x="418.662109"/>
      <use xlink:href="#ArialMT-69" x="446.445312"/>
      <use xlink:href="#ArialMT-6f" x="468.662109"/>
      <use xlink:href="#ArialMT-6e" x="524.277344"/>
     </g>
    </g>
   </g>
  </g>
  <g id="axes_2">
   <g id="matplotlib.axis_3">
    <g id="ytick_7">
     <g id="line2d_19">
      <defs>
       <path id="mc662c51f0c" d="M 0 0 
L 4.8 0 
" style="stroke: #262626"/>
      </defs>
      <g>
       <use xlink:href="#mc662c51f0c" x="395.432875" y="274.086967" style="fill: #262626; stroke: #262626"/>
      </g>
     </g>
     <g id="text_21">
      <!-- 0.000 -->
      <g style="fill: #ff7f0e" transform="translate(403.732875 277.236404) scale(0.088 -0.088)">
       <use xlink:href="#ArialMT-30"/>
       <use xlink:href="#ArialMT-2e" x="55.615234"/>
       <use xlink:href="#ArialMT-30" x="83.398438"/>
       <use xlink:href="#ArialMT-30" x="139.013672"/>
       <use xlink:href="#ArialMT-30" x="194.628906"/>
      </g>
     </g>
    </g>
    <g id="ytick_8">
     <g id="line2d_20">
      <g>
       <use xlink:href="#mc662c51f0c" x="395.432875" y="218.137645" style="fill: #262626; stroke: #262626"/>
      </g>
     </g>
     <g id="text_22">
      <!-- 0.005 -->
      <g style="fill: #ff7f0e" transform="translate(403.732875 221.287082) scale(0.088 -0.088)">
       <use xlink:href="#ArialMT-30"/>
       <use xlink:href="#ArialMT-2e" x="55.615234"/>
       <use xlink:href="#ArialMT-30" x="83.398438"/>
       <use xlink:href="#ArialMT-30" x="139.013672"/>
       <use xlink:href="#ArialMT-35" x="194.628906"/>
      </g>
     </g>
    </g>
    <g id="ytick_9">
     <g id="line2d_21">
      <g>
       <use xlink:href="#mc662c51f0c" x="395.432875" y="162.188323" style="fill: #262626; stroke: #262626"/>
      </g>
     </g>
     <g id="text_23">
      <!-- 0.010 -->
      <g style="fill: #ff7f0e" transform="translate(403.732875 165.337761) scale(0.088 -0.088)">
       <use xlink:href="#ArialMT-30"/>
       <use xlink:href="#ArialMT-2e" x="55.615234"/>
       <use xlink:href="#ArialMT-30" x="83.398438"/>
       <use xlink:href="#ArialMT-31" x="139.013672"/>
       <use xlink:href="#ArialMT-30" x="194.628906"/>
      </g>
     </g>
    </g>
    <g id="ytick_10">
     <g id="line2d_22">
      <g>
       <use xlink:href="#mc662c51f0c" x="395.432875" y="106.239001" style="fill: #262626; stroke: #262626"/>
      </g>
     </g>
     <g id="text_24">
      <!-- 0.015 -->
      <g style="fill: #ff7f0e" transform="translate(403.732875 109.388439) scale(0.088 -0.088)">
       <use xlink:href="#ArialMT-30"/>
       <use xlink:href="#ArialMT-2e" x="55.615234"/>
       <use xlink:href="#ArialMT-30" x="83.398438"/>
       <use xlink:href="#ArialMT-31" x="139.013672"/>
       <use xlink:href="#ArialMT-35" x="194.628906"/>
      </g>
     </g>
    </g>
    <g id="ytick_11">
     <g id="line2d_23">
      <g>
       <use xlink:href="#mc662c51f0c" x="395.432875" y="50.28968" style="fill: #262626; stroke: #262626"/>
      </g>
     </g>
     <g id="text_25">
      <!-- 0.020 -->
      <g style="fill: #ff7f0e" transform="translate(403.732875 53.439117) scale(0.088 -0.088)">
       <use xlink:href="#ArialMT-30"/>
       <use xlink:href="#ArialMT-2e" x="55.615234"/>
       <use xlink:href="#ArialMT-30" x="83.398438"/>
       <use xlink:href="#ArialMT-32" x="139.013672"/>
       <use xlink:href="#ArialMT-30" x="194.628906"/>
      </g>
     </g>
    </g>
    <g id="text_26">
     <!-- Information Acquisition Function -->
     <g style="fill: #ff7f0e" transform="translate(436.740625 221.16075) rotate(-90) scale(0.096 -0.096)">
      <defs>
       <path id="ArialMT-49" d="M 597 0 
L 597 4581 
L 1203 4581 
L 1203 0 
L 597 0 
z
" transform="scale(0.015625)"/>
       <path id="ArialMT-6d" d="M 422 0 
L 422 3319 
L 925 3319 
L 925 2853 
Q 1081 3097 1340 3245 
Q 1600 3394 1931 3394 
Q 2300 3394 2536 3241 
Q 2772 3088 2869 2813 
Q 3263 3394 3894 3394 
Q 4388 3394 4653 3120 
Q 4919 2847 4919 2278 
L 4919 0 
L 4359 0 
L 4359 2091 
Q 4359 2428 4304 2576 
Q 4250 2725 4106 2815 
Q 3963 2906 3769 2906 
Q 3419 2906 3187 2673 
Q 2956 2441 2956 1928 
L 2956 0 
L 2394 0 
L 2394 2156 
Q 2394 2531 2256 2718 
Q 2119 2906 1806 2906 
Q 1569 2906 1367 2781 
Q 1166 2656 1075 2415 
Q 984 2175 984 1722 
L 984 0 
L 422 0 
z
" transform="scale(0.015625)"/>
       <path id="ArialMT-41" d="M -9 0 
L 1750 4581 
L 2403 4581 
L 4278 0 
L 3588 0 
L 3053 1388 
L 1138 1388 
L 634 0 
L -9 0 
z
M 1313 1881 
L 2866 1881 
L 2388 3150 
Q 2169 3728 2063 4100 
Q 1975 3659 1816 3225 
L 1313 1881 
z
" transform="scale(0.015625)"/>
       <path id="ArialMT-71" d="M 2538 -1272 
L 2538 353 
Q 2406 169 2170 47 
Q 1934 -75 1669 -75 
Q 1078 -75 651 397 
Q 225 869 225 1691 
Q 225 2191 398 2587 
Q 572 2984 901 3189 
Q 1231 3394 1625 3394 
Q 2241 3394 2594 2875 
L 2594 3319 
L 3100 3319 
L 3100 -1272 
L 2538 -1272 
z
M 803 1669 
Q 803 1028 1072 708 
Q 1341 388 1716 388 
Q 2075 388 2334 692 
Q 2594 997 2594 1619 
Q 2594 2281 2320 2615 
Q 2047 2950 1678 2950 
Q 1313 2950 1058 2639 
Q 803 2328 803 1669 
z
" transform="scale(0.015625)"/>
       <path id="ArialMT-46" d="M 525 0 
L 525 4581 
L 3616 4581 
L 3616 4041 
L 1131 4041 
L 1131 2622 
L 3281 2622 
L 3281 2081 
L 1131 2081 
L 1131 0 
L 525 0 
z
" transform="scale(0.015625)"/>
      </defs>
      <use xlink:href="#ArialMT-49"/>
      <use xlink:href="#ArialMT-6e" x="27.783203"/>
      <use xlink:href="#ArialMT-66" x="83.398438"/>
      <use xlink:href="#ArialMT-6f" x="111.181641"/>
      <use xlink:href="#ArialMT-72" x="166.796875"/>
      <use xlink:href="#ArialMT-6d" x="200.097656"/>
      <use xlink:href="#ArialMT-61" x="283.398438"/>
      <use xlink:href="#ArialMT-74" x="339.013672"/>
      <use xlink:href="#ArialMT-69" x="366.796875"/>
      <use xlink:href="#ArialMT-6f" x="389.013672"/>
      <use xlink:href="#ArialMT-6e" x="444.628906"/>
      <use xlink:href="#ArialMT-20" x="500.244141"/>
      <use xlink:href="#ArialMT-41" x="522.527344"/>
      <use xlink:href="#ArialMT-63" x="589.226562"/>
      <use xlink:href="#ArialMT-71" x="639.226562"/>
      <use xlink:href="#ArialMT-75" x="694.841797"/>
      <use xlink:href="#ArialMT-69" x="750.457031"/>
      <use xlink:href="#ArialMT-73" x="772.673828"/>
      <use xlink:href="#ArialMT-69" x="822.673828"/>
      <use xlink:href="#ArialMT-74" x="844.890625"/>
      <use xlink:href="#ArialMT-69" x="872.673828"/>
      <use xlink:href="#ArialMT-6f" x="894.890625"/>
      <use xlink:href="#ArialMT-6e" x="950.505859"/>
      <use xlink:href="#ArialMT-20" x="1006.121094"/>
      <use xlink:href="#ArialMT-46" x="1033.904297"/>
      <use xlink:href="#ArialMT-75" x="1094.988281"/>
      <use xlink:href="#ArialMT-6e" x="1150.603516"/>
      <use xlink:href="#ArialMT-63" x="1206.21875"/>
      <use xlink:href="#ArialMT-74" x="1256.21875"/>
      <use xlink:href="#ArialMT-69" x="1284.001953"/>
      <use xlink:href="#ArialMT-6f" x="1306.21875"/>
      <use xlink:href="#ArialMT-6e" x="1361.833984"/>
     </g>
    </g>
   </g>
   <g id="line2d_24">
    <path d="M 54.545602 274.086967 
L 57.824941 274.086967 
L 61.10428 274.086967 
L 64.383619 274.086967 
L 67.662958 274.086967 
L 70.942296 274.086967 
L 74.221636 274.086966 
L 77.500973 274.086961 
L 80.780313 274.086915 
L 84.059653 274.086488 
L 87.33899 274.086741 
L 90.61833 274.086303 
L 93.89767 274.080004 
L 97.177007 274.047177 
L 100.456344 273.902848 
L 103.735686 273.375104 
L 107.015024 271.784023 
L 110.294361 267.786746 
L 113.573703 259.312878 
L 116.853041 243.975617 
L 120.132378 219.995537 
L 123.41172 187.310025 
L 126.691057 148.287193 
L 129.970395 107.604153 
L 133.249737 71.210466 
L 136.529069 44.77065 
L 139.808412 32.1675 
L 143.087754 34.657875 
L 146.367086 50.974911 
L 149.646428 78.129966 
L 152.92577 112.231493 
L 156.205103 149.095642 
L 159.484445 184.653826 
L 162.763787 215.473995 
L 166.04312 239.364201 
L 169.322462 255.743172 
L 172.601804 265.545567 
L 175.881137 270.603359 
L 179.160479 272.837342 
L 182.439821 273.684536 
L 185.719153 273.965786 
L 188.998496 274.051226 
L 192.277838 274.07551 
L 195.55717 274.083361 
L 198.836512 274.085001 
L 202.115855 274.086244 
L 205.395187 274.086346 
L 208.674529 274.086665 
L 211.953871 274.087023 
L 215.233204 274.0875 
L 218.512556 274.087203 
L 221.791879 274.086303 
L 225.071221 274.086684 
L 228.350563 274.086868 
L 231.629886 274.086939 
L 234.909247 274.086961 
L 238.18857 274.086966 
L 241.467912 274.086967 
L 244.747254 274.086967 
L 248.026597 274.086967 
L 251.305939 274.086967 
L 254.585262 274.086967 
L 257.864623 274.086967 
L 261.143946 274.086967 
L 264.423288 274.086967 
L 267.70263 274.086967 
L 270.981953 274.086967 
L 274.261315 274.086967 
L 277.540637 274.086967 
L 280.81998 274.086967 
L 284.099322 274.086967 
L 287.378664 274.086967 
L 290.658006 274.086967 
L 293.937329 274.086967 
L 297.21669 274.086967 
L 300.496013 274.086967 
L 303.775355 274.086967 
L 307.054697 274.086967 
L 310.33402 274.086966 
L 313.613382 274.086961 
L 316.892705 274.086897 
L 320.172047 274.086455 
L 323.451389 274.086966 
L 326.730731 274.08688 
L 330.010073 274.085811 
L 333.289396 274.084188 
L 336.568738 274.081771 
L 339.84808 274.079509 
L 343.127423 274.076885 
L 346.406765 274.075997 
L 349.686088 274.077458 
L 352.96543 274.079347 
L 356.244772 274.082268 
L 359.524114 274.083844 
L 362.803456 274.084879 
L 366.082798 274.085146 
L 369.362141 274.084156 
L 372.641463 274.080453 
L 375.920806 274.067658 
L 379.200148 274.01671 
" clip-path="url(#p881932d188)" style="fill: none; stroke: #ff7f0e; stroke-width: 1.2; stroke-linecap: round"/>
   </g>
   <g id="line2d_25">
    <path d="M 139.808412 274.086967 
L 139.808412 271.643336 
L 139.808412 269.199705 
L 139.808412 266.756074 
L 139.808412 264.312443 
L 139.808412 261.868812 
L 139.808412 259.425181 
L 139.808412 256.98155 
L 139.808412 254.537919 
L 139.808412 252.094289 
L 139.808412 249.650657 
L 139.808412 247.207025 
L 139.808412 244.763395 
L 139.808412 242.319765 
L 139.808412 239.876133 
L 139.808412 237.432501 
L 139.808412 234.988871 
L 139.808412 232.545242 
L 139.808412 230.101612 
L 139.808412 227.657977 
L 139.808412 225.214347 
L 139.808412 222.770718 
L 139.808412 220.327083 
L 139.808412 217.883453 
L 139.808412 215.439824 
L 139.808412 212.996194 
L 139.808412 210.552564 
L 139.808412 208.108929 
L 139.808412 205.6653 
L 139.808412 203.22167 
L 139.808412 200.778035 
L 139.808412 198.334405 
L 139.808412 195.890776 
L 139.808412 193.447146 
L 139.808412 191.003517 
L 139.808412 188.559882 
L 139.808412 186.116257 
L 139.808412 183.672622 
L 139.808412 181.228987 
L 139.808412 178.785363 
L 139.808412 176.341728 
L 139.808412 173.898093 
L 139.808412 171.454469 
L 139.808412 169.010834 
L 139.808412 166.567199 
L 139.808412 164.123575 
L 139.808412 161.67994 
L 139.808412 159.236315 
L 139.808412 156.79268 
L 139.808412 154.349046 
L 139.808412 151.905421 
L 139.808412 149.461786 
L 139.808412 147.018151 
L 139.808412 144.574527 
L 139.808412 142.130892 
L 139.808412 139.687268 
L 139.808412 137.243633 
L 139.808412 134.799998 
L 139.808412 132.356373 
L 139.808412 129.912739 
L 139.808412 127.469104 
L 139.808412 125.025479 
L 139.808412 122.581844 
L 139.808412 120.138209 
L 139.808412 117.694585 
L 139.808412 115.25095 
L 139.808412 112.807315 
L 139.808412 110.363691 
L 139.808412 107.920066 
L 139.808412 105.476431 
L 139.808412 103.032797 
L 139.808412 100.589172 
L 139.808412 98.145548 
L 139.808412 95.701902 
L 139.808412 93.258278 
L 139.808412 90.814654 
L 139.808412 88.371008 
L 139.808412 85.927384 
L 139.808412 83.483759 
L 139.808412 81.040114 
L 139.808412 78.59649 
L 139.808412 76.152865 
L 139.808412 73.70922 
L 139.808412 71.265595 
L 139.808412 68.821971 
L 139.808412 66.378326 
L 139.808412 63.934701 
L 139.808412 61.491077 
L 139.808412 59.047431 
L 139.808412 56.603807 
L 139.808412 54.160183 
L 139.808412 51.716537 
L 139.808412 49.272913 
L 139.808412 46.829288 
L 139.808412 44.385664 
L 139.808412 41.942019 
L 139.808412 39.498394 
L 139.808412 37.05477 
L 139.808412 34.611124 
L 139.808412 32.1675 
" clip-path="url(#p881932d188)" style="fill: none; stroke: #ff7f0e; stroke-linecap: round"/>
   </g>
   <g id="patch_7">
    <path d="M 38.312875 286.1835 
L 38.312875 20.0715 
" style="fill: none; stroke: #262626; stroke-linejoin: miter; stroke-linecap: square"/>
   </g>
   <g id="patch_8">
    <path d="M 395.432875 286.1835 
L 395.432875 20.0715 
" style="fill: none; stroke: #262626; stroke-linejoin: miter; stroke-linecap: square"/>
   </g>
   <g id="patch_9">
    <path d="M 38.312875 286.1835 
L 395.432875 286.1835 
" style="fill: none; stroke: #262626; stroke-linejoin: miter; stroke-linecap: square"/>
   </g>
   <g id="patch_10">
    <path d="M 38.312875 20.0715 
L 395.432875 20.0715 
" style="fill: none; stroke: #262626; stroke-linejoin: miter; stroke-linecap: square"/>
   </g>
  </g>
 </g>
 <defs>
  <clipPath id="p881932d188">
   <rect x="38.312875" y="20.0715" width="357.12" height="266.112"/>
  </clipPath>
 </defs>
</svg>