<?xml version="1.0" encoding="utf-8" standalone="no"?>
<!DOCTYPE svg PUBLIC "-//W3C//DTD SVG 1.1//EN"
  "http://www.w3.org/Graphics/SVG/1.1/DTD/svg11.dtd">
<svg xmlns:xlink="http://www.w3.org/1999/xlink" width="436.061375pt" height="322.539375pt" viewBox="0 0 436.061375 322.539375" xmlns="http://www.w3.org/2000/svg" version="1.1">
 <metadata>
  <rdf:RDF xmlns:dc="http://purl.org/dc/elements/1.1/" xmlns:cc="http://creativecommons.org/ns#" xmlns:rdf="http://www.w3.org/1999/02/22-rdf-syntax-ns#">
   <cc:Work>
    <dc:type rdf:resource="http://purl.org/dc/dcmitype/StillImage"/>
    <dc:date>2023-10-23T15:18:34.094493</dc:date>
    <dc:format>image/svg+xml</dc:format>
    <dc:creator>
     <cc:Agent>
      <dc:title>Matplotlib v3.8.0, https://matplotlib.org/</dc:title>
     </cc:Agent>
    </dc:creator>
   </cc:Work>
  </rdf:RDF>
 </metadata>
 <defs>
  <style type="text/css">*{stroke-linejoin: round; stroke-linecap: butt}</style>
 </defs>
 <g id="figure_1">
  <g id="patch_1">
   <path d="M 0 322.539375 
L 436.061375 322.539375 
L 436.061375 0 
L 0 0 
z
" style="fill: #ffffff"/>
  </g>
  <g id="axes_1">
   <g id="patch_2">
    <path d="M 38.312875 286.212 
L 395.432875 286.212 
L 395.432875 20.1 
L 38.312875 20.1 
z
" style="fill: #ffffff"/>
   </g>
   <g id="matplotlib.axis_1">
    <g id="xtick_1">
     <g id="line2d_1">
      <defs>
       <path id="mc73fb1159a" d="M 0 0 
L 0 4.8 
" style="stroke: #262626"/>
      </defs>
      <g>
       <use xlink:href="#mc73fb1159a" x="54.545602" y="286.212" style="fill: #262626; stroke: #262626"/>
      </g>
     </g>
     <g id="text_1">
      <!-- 0.0 -->
      <g style="fill: #262626" transform="translate(48.429602 300.810875) scale(0.088 -0.088)">
       <defs>
        <path id="ArialMT-30" d="M 266 2259 
Q 266 3072 433 3567 
Q 600 4063 929 4331 
Q 1259 4600 1759 4600 
Q 2128 4600 2406 4451 
Q 2684 4303 2865 4023 
Q 3047 3744 3150 3342 
Q 3253 2941 3253 2259 
Q 3253 1453 3087 958 
Q 2922 463 2592 192 
Q 2263 -78 1759 -78 
Q 1097 -78 719 397 
Q 266 969 266 2259 
z
M 844 2259 
Q 844 1131 1108 757 
Q 1372 384 1759 384 
Q 2147 384 2411 759 
Q 2675 1134 2675 2259 
Q 2675 3391 2411 3762 
Q 2147 4134 1753 4134 
Q 1366 4134 1134 3806 
Q 844 3388 844 2259 
z
" transform="scale(0.015625)"/>
        <path id="ArialMT-2e" d="M 581 0 
L 581 641 
L 1222 641 
L 1222 0 
L 581 0 
z
" transform="scale(0.015625)"/>
       </defs>
       <use xlink:href="#ArialMT-30"/>
       <use xlink:href="#ArialMT-2e" x="55.615234"/>
       <use xlink:href="#ArialMT-30" x="83.398438"/>
      </g>
     </g>
    </g>
    <g id="xtick_2">
     <g id="line2d_2">
      <g>
       <use xlink:href="#mc73fb1159a" x="119.476511" y="286.212" style="fill: #262626; stroke: #262626"/>
      </g>
     </g>
     <g id="text_2">
      <!-- 0.2 -->
      <g style="fill: #262626" transform="translate(113.360511 300.810875) scale(0.088 -0.088)">
       <defs>
        <path id="ArialMT-32" d="M 3222 541 
L 3222 0 
L 194 0 
Q 188 203 259 391 
Q 375 700 629 1000 
Q 884 1300 1366 1694 
Q 2113 2306 2375 2664 
Q 2638 3022 2638 3341 
Q 2638 3675 2398 3904 
Q 2159 4134 1775 4134 
Q 1369 4134 1125 3890 
Q 881 3647 878 3216 
L 300 3275 
Q 359 3922 746 4261 
Q 1134 4600 1788 4600 
Q 2447 4600 2831 4234 
Q 3216 3869 3216 3328 
Q 3216 3053 3103 2787 
Q 2991 2522 2730 2228 
Q 2469 1934 1863 1422 
Q 1356 997 1212 845 
Q 1069 694 975 541 
L 3222 541 
z
" transform="scale(0.015625)"/>
       </defs>
       <use xlink:href="#ArialMT-30"/>
       <use xlink:href="#ArialMT-2e" x="55.615234"/>
       <use xlink:href="#ArialMT-32" x="83.398438"/>
      </g>
     </g>
    </g>
    <g id="xtick_3">
     <g id="line2d_3">
      <g>
       <use xlink:href="#mc73fb1159a" x="184.40742" y="286.212" style="fill: #262626; stroke: #262626"/>
      </g>
     </g>
     <g id="text_3">
      <!-- 0.4 -->
      <g style="fill: #262626" transform="translate(178.29142 300.810875) scale(0.088 -0.088)">
       <defs>
        <path id="ArialMT-34" d="M 2069 0 
L 2069 1097 
L 81 1097 
L 81 1613 
L 2172 4581 
L 2631 4581 
L 2631 1613 
L 3250 1613 
L 3250 1097 
L 2631 1097 
L 2631 0 
L 2069 0 
z
M 2069 1613 
L 2069 3678 
L 634 1613 
L 2069 1613 
z
" transform="scale(0.015625)"/>
       </defs>
       <use xlink:href="#ArialMT-30"/>
       <use xlink:href="#ArialMT-2e" x="55.615234"/>
       <use xlink:href="#ArialMT-34" x="83.398438"/>
      </g>
     </g>
    </g>
    <g id="xtick_4">
     <g id="line2d_4">
      <g>
       <use xlink:href="#mc73fb1159a" x="249.33833" y="286.212" style="fill: #262626; stroke: #262626"/>
      </g>
     </g>
     <g id="text_4">
      <!-- 0.6 -->
      <g style="fill: #262626" transform="translate(243.22233 300.810875) scale(0.088 -0.088)">
       <defs>
        <path id="ArialMT-36" d="M 3184 3459 
L 2625 3416 
Q 2550 3747 2413 3897 
Q 2184 4138 1850 4138 
Q 1581 4138 1378 3988 
Q 1113 3794 959 3422 
Q 806 3050 800 2363 
Q 1003 2672 1297 2822 
Q 1591 2972 1913 2972 
Q 2475 2972 2870 2558 
Q 3266 2144 3266 1488 
Q 3266 1056 3080 686 
Q 2894 316 2569 119 
Q 2244 -78 1831 -78 
Q 1128 -78 684 439 
Q 241 956 241 2144 
Q 241 3472 731 4075 
Q 1159 4600 1884 4600 
Q 2425 4600 2770 4297 
Q 3116 3994 3184 3459 
z
M 888 1484 
Q 888 1194 1011 928 
Q 1134 663 1356 523 
Q 1578 384 1822 384 
Q 2178 384 2434 671 
Q 2691 959 2691 1453 
Q 2691 1928 2437 2201 
Q 2184 2475 1800 2475 
Q 1419 2475 1153 2201 
Q 888 1928 888 1484 
z
" transform="scale(0.015625)"/>
       </defs>
       <use xlink:href="#ArialMT-30"/>
       <use xlink:href="#ArialMT-2e" x="55.615234"/>
       <use xlink:href="#ArialMT-36" x="83.398438"/>
      </g>
     </g>
    </g>
    <g id="xtick_5">
     <g id="line2d_5">
      <g>
       <use xlink:href="#mc73fb1159a" x="314.269239" y="286.212" style="fill: #262626; stroke: #262626"/>
      </g>
     </g>
     <g id="text_5">
      <!-- 0.8 -->
      <g style="fill: #262626" transform="translate(308.153239 300.810875) scale(0.088 -0.088)">
       <defs>
        <path id="ArialMT-38" d="M 1131 2484 
Q 781 2613 612 2850 
Q 444 3088 444 3419 
Q 444 3919 803 4259 
Q 1163 4600 1759 4600 
Q 2359 4600 2725 4251 
Q 3091 3903 3091 3403 
Q 3091 3084 2923 2848 
Q 2756 2613 2416 2484 
Q 2838 2347 3058 2040 
Q 3278 1734 3278 1309 
Q 3278 722 2862 322 
Q 2447 -78 1769 -78 
Q 1091 -78 675 323 
Q 259 725 259 1325 
Q 259 1772 486 2073 
Q 713 2375 1131 2484 
z
M 1019 3438 
Q 1019 3113 1228 2906 
Q 1438 2700 1772 2700 
Q 2097 2700 2305 2904 
Q 2513 3109 2513 3406 
Q 2513 3716 2298 3927 
Q 2084 4138 1766 4138 
Q 1444 4138 1231 3931 
Q 1019 3725 1019 3438 
z
M 838 1322 
Q 838 1081 952 856 
Q 1066 631 1291 507 
Q 1516 384 1775 384 
Q 2178 384 2440 643 
Q 2703 903 2703 1303 
Q 2703 1709 2433 1975 
Q 2163 2241 1756 2241 
Q 1359 2241 1098 1978 
Q 838 1716 838 1322 
z
" transform="scale(0.015625)"/>
       </defs>
       <use xlink:href="#ArialMT-30"/>
       <use xlink:href="#ArialMT-2e" x="55.615234"/>
       <use xlink:href="#ArialMT-38" x="83.398438"/>
      </g>
     </g>
    </g>
    <g id="xtick_6">
     <g id="line2d_6">
      <g>
       <use xlink:href="#mc73fb1159a" x="379.200148" y="286.212" style="fill: #262626; stroke: #262626"/>
      </g>
     </g>
     <g id="text_6">
      <!-- 1.0 -->
      <g style="fill: #262626" transform="translate(373.084148 300.810875) scale(0.088 -0.088)">
       <defs>
        <path id="ArialMT-31" d="M 2384 0 
L 1822 0 
L 1822 3584 
Q 1619 3391 1289 3197 
Q 959 3003 697 2906 
L 697 3450 
Q 1169 3672 1522 3987 
Q 1875 4303 2022 4600 
L 2384 4600 
L 2384 0 
z
" transform="scale(0.015625)"/>
       </defs>
       <use xlink:href="#ArialMT-31"/>
       <use xlink:href="#ArialMT-2e" x="55.615234"/>
       <use xlink:href="#ArialMT-30" x="83.398438"/>
      </g>
     </g>
    </g>
    <g id="text_7">
     <!-- $x$ -->
     <g style="fill: #262626" transform="translate(213.992875 313.431375) scale(0.096 -0.096)">
      <defs>
       <path id="DejaVuSans-Oblique-78" d="M 3841 3500 
L 2234 1784 
L 3219 0 
L 2559 0 
L 1819 1388 
L 531 0 
L -166 0 
L 1556 1844 
L 641 3500 
L 1300 3500 
L 1972 2234 
L 3144 3500 
L 3841 3500 
z
" transform="scale(0.015625)"/>
      </defs>
      <use xlink:href="#DejaVuSans-Oblique-78" transform="translate(0 0.3125)"/>
     </g>
    </g>
   </g>
   <g id="matplotlib.axis_2">
    <g id="ytick_1">
     <g id="line2d_7">
      <defs>
       <path id="m67fa61bd70" d="M 0 0 
L -4.8 0 
" style="stroke: #262626"/>
      </defs>
      <g>
       <use xlink:href="#m67fa61bd70" x="38.312875" y="274.182046" style="fill: #262626; stroke: #262626"/>
      </g>
     </g>
     <g id="text_8">
      <!-- −8 -->
      <g style="fill: #262626" transform="translate(19.9795 277.331484) scale(0.088 -0.088)">
       <defs>
        <path id="ArialMT-2212" d="M 3381 1997 
L 356 1997 
L 356 2522 
L 3381 2522 
L 3381 1997 
z
" transform="scale(0.015625)"/>
       </defs>
       <use xlink:href="#ArialMT-2212"/>
       <use xlink:href="#ArialMT-38" x="58.398438"/>
      </g>
     </g>
    </g>
    <g id="ytick_2">
     <g id="line2d_8">
      <g>
       <use xlink:href="#m67fa61bd70" x="38.312875" y="227.451705" style="fill: #262626; stroke: #262626"/>
      </g>
     </g>
     <g id="text_9">
      <!-- −6 -->
      <g style="fill: #262626" transform="translate(19.9795 230.601142) scale(0.088 -0.088)">
       <use xlink:href="#ArialMT-2212"/>
       <use xlink:href="#ArialMT-36" x="58.398438"/>
      </g>
     </g>
    </g>
    <g id="ytick_3">
     <g id="line2d_9">
      <g>
       <use xlink:href="#m67fa61bd70" x="38.312875" y="180.721363" style="fill: #262626; stroke: #262626"/>
      </g>
     </g>
     <g id="text_10">
      <!-- −4 -->
      <g style="fill: #262626" transform="translate(19.9795 183.870801) scale(0.088 -0.088)">
       <use xlink:href="#ArialMT-2212"/>
       <use xlink:href="#ArialMT-34" x="58.398438"/>
      </g>
     </g>
    </g>
    <g id="ytick_4">
     <g id="line2d_10">
      <g>
       <use xlink:href="#m67fa61bd70" x="38.312875" y="133.991021" style="fill: #262626; stroke: #262626"/>
      </g>
     </g>
     <g id="text_11">
      <!-- −2 -->
      <g style="fill: #262626" transform="translate(19.9795 137.140459) scale(0.088 -0.088)">
       <use xlink:href="#ArialMT-2212"/>
       <use xlink:href="#ArialMT-32" x="58.398438"/>
      </g>
     </g>
    </g>
    <g id="ytick_5">
     <g id="line2d_11">
      <g>
       <use xlink:href="#m67fa61bd70" x="38.312875" y="87.26068" style="fill: #262626; stroke: #262626"/>
      </g>
     </g>
     <g id="text_12">
      <!-- 0 -->
      <g style="fill: #262626" transform="translate(25.11925 90.410117) scale(0.088 -0.088)">
       <use xlink:href="#ArialMT-30"/>
      </g>
     </g>
    </g>
    <g id="ytick_6">
     <g id="line2d_12">
      <g>
       <use xlink:href="#m67fa61bd70" x="38.312875" y="40.530338" style="fill: #262626; stroke: #262626"/>
      </g>
     </g>
     <g id="text_13">
      <!-- 2 -->
      <g style="fill: #262626" transform="translate(25.11925 43.679776) scale(0.088 -0.088)">
       <use xlink:href="#ArialMT-32"/>
      </g>
     </g>
    </g>
    <g id="text_14">
     <!-- $y$ -->
     <g style="fill: #262626" transform="translate(13.9635 156.036) rotate(-90) scale(0.096 -0.096)">
      <defs>
       <path id="DejaVuSans-Oblique-79" d="M 1588 -325 
Q 1188 -997 936 -1164 
Q 684 -1331 294 -1331 
L -159 -1331 
L -63 -850 
L 269 -850 
Q 509 -850 678 -719 
Q 847 -588 1056 -206 
L 1234 128 
L 459 3500 
L 1069 3500 
L 1650 819 
L 3256 3500 
L 3859 3500 
L 1588 -325 
z
" transform="scale(0.015625)"/>
      </defs>
      <use xlink:href="#DejaVuSans-Oblique-79" transform="translate(0 0.3125)"/>
     </g>
    </g>
   </g>
   <g id="PolyCollection_1">
    <defs>
     <path id="m8aa76b43d0" d="M 54.545602 -288.71304 
L 54.545602 -150.636014 
L 57.824941 -153.239131 
L 61.10428 -156.152558 
L 64.383619 -159.370679 
L 67.662958 -162.881384 
L 70.942296 -166.666034 
L 74.221636 -170.69932 
L 77.500973 -174.949545 
L 80.780313 -179.379164 
L 84.059653 -183.945325 
L 87.33899 -188.599598 
L 90.61833 -193.289585 
L 93.89767 -197.958264 
L 97.177007 -202.543238 
L 100.456344 -206.976293 
L 103.735686 -211.17716 
L 107.015024 -215.044325 
L 110.294361 -218.439899 
L 113.573703 -221.191515 
L 116.853041 -223.207128 
L 120.132378 -224.638809 
L 123.41172 -225.773299 
L 126.691057 -226.799934 
L 129.970395 -227.780679 
L 133.249737 -228.70056 
L 136.529069 -229.508514 
L 139.808412 -230.127119 
L 143.087754 -230.456884 
L 146.367086 -230.359598 
L 149.646428 -229.628319 
L 152.92577 -227.991021 
L 156.205103 -225.257962 
L 159.484445 -221.450841 
L 162.763787 -216.694745 
L 166.04312 -211.101549 
L 169.322462 -204.760498 
L 172.601804 -197.754452 
L 175.881137 -190.171851 
L 179.160479 -182.111593 
L 182.439821 -173.684358 
L 185.719153 -165.013622 
L 188.998496 -156.231929 
L 192.277838 -147.480224 
L 195.55717 -138.903761 
L 198.836512 -130.649468 
L 202.115855 -122.862388 
L 205.395187 -115.682292 
L 208.674529 -109.240545 
L 211.953871 -103.656997 
L 215.233204 -99.036755 
L 218.512556 -95.467547 
L 221.791879 -93.01612 
L 225.071221 -91.722728 
L 228.350563 -91.589187 
L 231.629886 -92.539447 
L 234.909247 -94.241861 
L 238.18857 -95.250257 
L 241.467912 -93.428919 
L 244.747254 -90.522523 
L 248.026597 -87.961041 
L 251.305939 -86.122435 
L 254.585262 -85.139932 
L 257.864623 -85.076103 
L 261.143946 -85.960862 
L 264.423288 -87.802265 
L 267.70263 -90.590697 
L 270.981953 -94.300354 
L 274.261315 -98.890837 
L 277.540637 -104.307676 
L 280.81998 -110.483678 
L 284.099322 -117.340185 
L 287.378664 -124.787552 
L 290.658006 -132.727268 
L 293.937329 -141.052777 
L 297.21669 -149.651317 
L 300.496013 -158.404683 
L 303.775355 -167.192057 
L 307.054697 -175.890329 
L 310.33402 -184.376625 
L 313.613382 -192.529749 
L 316.892705 -200.231969 
L 320.172047 -207.37069 
L 323.451389 -213.840265 
L 326.730731 -219.543017 
L 330.010073 -224.391613 
L 333.289396 -228.309201 
L 336.568738 -231.230492 
L 339.84808 -233.100723 
L 343.127423 -233.871486 
L 346.406765 -233.49577 
L 349.686088 -231.909988 
L 352.96543 -229.005929 
L 356.244772 -224.664585 
L 359.524114 -219.02456 
L 362.803456 -212.62883 
L 366.082798 -206.04191 
L 369.362141 -199.587474 
L 372.641463 -193.383802 
L 375.920806 -187.337085 
L 379.200148 -181.097432 
L 379.200148 -190.385267 
L 379.200148 -190.385267 
L 375.920806 -196.237219 
L 372.641463 -202.759676 
L 369.362141 -209.397427 
L 366.082798 -215.838693 
L 362.803456 -221.979109 
L 359.524114 -227.916087 
L 356.244772 -233.99069 
L 352.96543 -240.529618 
L 349.686088 -247.465984 
L 346.406765 -254.491375 
L 343.127423 -261.327343 
L 339.84808 -267.761493 
L 336.568738 -273.622969 
L 333.289396 -278.767365 
L 330.010073 -283.072136 
L 326.730731 -286.43358 
L 323.451389 -288.766602 
L 320.172047 -290.004805 
L 316.892705 -290.101039 
L 313.613382 -289.027394 
L 310.33402 -286.775114 
L 307.054697 -283.35437 
L 303.775355 -278.793639 
L 300.496013 -273.138798 
L 297.21669 -266.452437 
L 293.937329 -258.812017 
L 290.658006 -250.309477 
L 287.378664 -241.048739 
L 284.099322 -231.145042 
L 280.81998 -220.722775 
L 277.540637 -209.914281 
L 274.261315 -198.857674 
L 270.981953 -187.695431 
L 267.70263 -176.572883 
L 264.423288 -165.635891 
L 261.143946 -155.030209 
L 257.864623 -144.89964 
L 254.585262 -135.38578 
L 251.305939 -126.630649 
L 248.026597 -118.785322 
L 244.747254 -112.046825 
L 241.467912 -106.831578 
L 238.18857 -104.581699 
L 234.909247 -107.027778 
L 231.629886 -111.994015 
L 228.350563 -117.968726 
L 225.071221 -124.530599 
L 221.791879 -131.491322 
L 218.512556 -138.719772 
L 215.233204 -146.105043 
L 211.953871 -153.546834 
L 208.674529 -160.953374 
L 205.395187 -168.24069 
L 202.115855 -175.333394 
L 198.836512 -182.16496 
L 195.55717 -188.678045 
L 192.277838 -194.824645 
L 188.998496 -200.566339 
L 185.719153 -205.873325 
L 182.439821 -210.724923 
L 179.160479 -215.108054 
L 175.881137 -219.018353 
L 172.601804 -222.458399 
L 169.322462 -225.440038 
L 166.04312 -227.986308 
L 162.763787 -230.136741 
L 159.484445 -231.95927 
L 156.205103 -233.565742 
L 152.92577 -235.101555 
L 149.646428 -236.62769 
L 146.367086 -238.010784 
L 143.087754 -239.050369 
L 139.808412 -239.623885 
L 136.529069 -239.687929 
L 133.249737 -239.245575 
L 129.970395 -238.327273 
L 126.691057 -236.992526 
L 123.41172 -235.337058 
L 120.132378 -233.531358 
L 116.853041 -231.869107 
L 113.573703 -230.735039 
L 110.294361 -230.371386 
L 107.015024 -230.767233 
L 103.735686 -231.820997 
L 100.456344 -233.454673 
L 97.177007 -235.615331 
L 93.89767 -238.259853 
L 90.61833 -241.346176 
L 87.33899 -244.827094 
L 84.059653 -248.650831 
L 80.780313 -252.761058 
L 77.500973 -257.09719 
L 74.221636 -261.597296 
L 70.942296 -266.198834 
L 67.662958 -270.840462 
L 64.383619 -275.463834 
L 61.10428 -280.015019 
L 57.824941 -284.445479 
L 54.545602 -288.71304 
z
" style="stroke: #1f77b4; stroke-opacity: 0.5; stroke-width: 0.8"/>
    </defs>
    <g clip-path="url(#p640d5b1e44)">
     <use xlink:href="#m8aa76b43d0" x="0" y="322.539375" style="fill: #1f77b4; fill-opacity: 0.5; stroke: #1f77b4; stroke-opacity: 0.5; stroke-width: 0.8"/>
    </g>
   </g>
   <g id="PolyCollection_2">
    <defs>
     <path id="m723ceafe02" d="M 54.545602 -150.636014 
L 54.545602 -150.478041 
L 57.824941 -153.072913 
L 61.10428 -155.976508 
L 64.383619 -159.18288 
L 67.662958 -162.679491 
L 70.942296 -166.447117 
L 74.221636 -170.459713 
L 77.500973 -174.68457 
L 80.780313 -179.082781 
L 84.059653 -183.60958 
L 87.33899 -188.213873 
L 90.61833 -192.839401 
L 93.89767 -197.423514 
L 97.177007 -201.895628 
L 100.456344 -206.175774 
L 103.735686 -210.168622 
L 107.015024 -213.760303 
L 110.294361 -216.827559 
L 113.573703 -219.284433 
L 116.853041 -221.166717 
L 120.132378 -222.634766 
L 123.41172 -223.869101 
L 126.691057 -224.98179 
L 129.970395 -226.008061 
L 133.249737 -226.927743 
L 136.529069 -227.688636 
L 139.808412 -228.213341 
L 143.087754 -228.405458 
L 146.367086 -228.145951 
L 149.646428 -227.289764 
L 152.92577 -225.674561 
L 156.205103 -223.159489 
L 159.484445 -219.67341 
L 162.763787 -215.229837 
L 166.04312 -209.894522 
L 169.322462 -203.753549 
L 172.601804 -196.900045 
L 175.881137 -189.433723 
L 179.160479 -181.462552 
L 182.439821 -173.103903 
L 185.719153 -164.485989 
L 188.998496 -155.744728 
L 192.277838 -147.023388 
L 195.55717 -138.468835 
L 198.836512 -130.229014 
L 202.115855 -122.449455 
L 205.395187 -115.270038 
L 208.674529 -108.821663 
L 211.953871 -103.223063 
L 215.233204 -98.577285 
L 218.512556 -94.968424 
L 221.791879 -92.456689 
L 225.071221 -91.070099 
L 228.350563 -90.785838 
L 231.629886 -91.475189 
L 234.909247 -92.716038 
L 238.18857 -93.31247 
L 241.467912 -91.960474 
L 244.747254 -89.551763 
L 248.026597 -87.26817 
L 251.305939 -85.590333 
L 254.585262 -84.709028 
L 257.864623 -84.713273 
L 261.143946 -85.646129 
L 264.423288 -87.522706 
L 267.70263 -90.337476 
L 270.981953 -94.06712 
L 274.261315 -98.672878 
L 277.540637 -104.101304 
L 280.81998 -110.285952 
L 284.099322 -117.148631 
L 287.378664 -124.600032 
L 290.658006 -132.541831 
L 293.937329 -140.867619 
L 297.21669 -149.464654 
L 300.496013 -158.214672 
L 303.775355 -166.996727 
L 307.054697 -175.687506 
L 310.33402 -184.163808 
L 313.613382 -192.30398 
L 316.892705 -199.989633 
L 320.172047 -207.107266 
L 323.451389 -213.54994 
L 326.730731 -219.218134 
L 330.010073 -224.021805 
L 333.289396 -227.880071 
L 336.568738 -230.721483 
L 339.84808 -232.481749 
L 343.127423 -233.097923 
L 346.406765 -232.502659 
L 349.686088 -230.61415 
L 352.96543 -227.349142 
L 356.244772 -222.726023 
L 359.524114 -217.020358 
L 362.803456 -210.69381 
L 366.082798 -204.170406 
L 369.362141 -197.717789 
L 372.641463 -191.452525 
L 375.920806 -185.334221 
L 379.200148 -179.153239 
L 379.200148 -181.097432 
L 379.200148 -181.097432 
L 375.920806 -187.337085 
L 372.641463 -193.383802 
L 369.362141 -199.587474 
L 366.082798 -206.04191 
L 362.803456 -212.62883 
L 359.524114 -219.02456 
L 356.244772 -224.664585 
L 352.96543 -229.005929 
L 349.686088 -231.909988 
L 346.406765 -233.49577 
L 343.127423 -233.871486 
L 339.84808 -233.100723 
L 336.568738 -231.230492 
L 333.289396 -228.309201 
L 330.010073 -224.391613 
L 326.730731 -219.543017 
L 323.451389 -213.840265 
L 320.172047 -207.37069 
L 316.892705 -200.231969 
L 313.613382 -192.529749 
L 310.33402 -184.376625 
L 307.054697 -175.890329 
L 303.775355 -167.192057 
L 300.496013 -158.404683 
L 297.21669 -149.651317 
L 293.937329 -141.052777 
L 290.658006 -132.727268 
L 287.378664 -124.787552 
L 284.099322 -117.340185 
L 280.81998 -110.483678 
L 277.540637 -104.307676 
L 274.261315 -98.890837 
L 270.981953 -94.300354 
L 267.70263 -90.590697 
L 264.423288 -87.802265 
L 261.143946 -85.960862 
L 257.864623 -85.076103 
L 254.585262 -85.139932 
L 251.305939 -86.122435 
L 248.026597 -87.961041 
L 244.747254 -90.522523 
L 241.467912 -93.428919 
L 238.18857 -95.250257 
L 234.909247 -94.241861 
L 231.629886 -92.539447 
L 228.350563 -91.589187 
L 225.071221 -91.722728 
L 221.791879 -93.01612 
L 218.512556 -95.467547 
L 215.233204 -99.036755 
L 211.953871 -103.656997 
L 208.674529 -109.240545 
L 205.395187 -115.682292 
L 202.115855 -122.862388 
L 198.836512 -130.649468 
L 195.55717 -138.903761 
L 192.277838 -147.480224 
L 188.998496 -156.231929 
L 185.719153 -165.013622 
L 182.439821 -173.684358 
L 179.160479 -182.111593 
L 175.881137 -190.171851 
L 172.601804 -197.754452 
L 169.322462 -204.760498 
L 166.04312 -211.101549 
L 162.763787 -216.694745 
L 159.484445 -221.450841 
L 156.205103 -225.257962 
L 152.92577 -227.991021 
L 149.646428 -229.628319 
L 146.367086 -230.359598 
L 143.087754 -230.456884 
L 139.808412 -230.127119 
L 136.529069 -229.508514 
L 133.249737 -228.70056 
L 129.970395 -227.780679 
L 126.691057 -226.799934 
L 123.41172 -225.773299 
L 120.132378 -224.638809 
L 116.853041 -223.207128 
L 113.573703 -221.191515 
L 110.294361 -218.439899 
L 107.015024 -215.044325 
L 103.735686 -211.17716 
L 100.456344 -206.976293 
L 97.177007 -202.543238 
L 93.89767 -197.958264 
L 90.61833 -193.289585 
L 87.33899 -188.599598 
L 84.059653 -183.945325 
L 80.780313 -179.379164 
L 77.500973 -174.949545 
L 74.221636 -170.69932 
L 70.942296 -166.666034 
L 67.662958 -162.881384 
L 64.383619 -159.370679 
L 61.10428 -156.152558 
L 57.824941 -153.239131 
L 54.545602 -150.636014 
z
" style="stroke: #ff7f0e; stroke-opacity: 0.5; stroke-width: 0.8"/>
    </defs>
    <g clip-path="url(#p640d5b1e44)">
     <use xlink:href="#m723ceafe02" x="0" y="322.539375" style="fill: #ff7f0e; fill-opacity: 0.5; stroke: #ff7f0e; stroke-opacity: 0.5; stroke-width: 0.8"/>
    </g>
   </g>
   <g id="PolyCollection_3">
    <defs>
     <path id="m9a6924f53e" d="M 54.545602 -288.871014 
L 54.545602 -288.71304 
L 57.824941 -284.445479 
L 61.10428 -280.015019 
L 64.383619 -275.463834 
L 67.662958 -270.840462 
L 70.942296 -266.198834 
L 74.221636 -261.597296 
L 77.500973 -257.09719 
L 80.780313 -252.761058 
L 84.059653 -248.650831 
L 87.33899 -244.827094 
L 90.61833 -241.346176 
L 93.89767 -238.259853 
L 97.177007 -235.615331 
L 100.456344 -233.454673 
L 103.735686 -231.820997 
L 107.015024 -230.767233 
L 110.294361 -230.371386 
L 113.573703 -230.735039 
L 116.853041 -231.869107 
L 120.132378 -233.531358 
L 123.41172 -235.337058 
L 126.691057 -236.992526 
L 129.970395 -238.327273 
L 133.249737 -239.245575 
L 136.529069 -239.687929 
L 139.808412 -239.623885 
L 143.087754 -239.050369 
L 146.367086 -238.010784 
L 149.646428 -236.62769 
L 152.92577 -235.101555 
L 156.205103 -233.565742 
L 159.484445 -231.95927 
L 162.763787 -230.136741 
L 166.04312 -227.986308 
L 169.322462 -225.440038 
L 172.601804 -222.458399 
L 175.881137 -219.018353 
L 179.160479 -215.108054 
L 182.439821 -210.724923 
L 185.719153 -205.873325 
L 188.998496 -200.566339 
L 192.277838 -194.824645 
L 195.55717 -188.678045 
L 198.836512 -182.16496 
L 202.115855 -175.333394 
L 205.395187 -168.24069 
L 208.674529 -160.953374 
L 211.953871 -153.546834 
L 215.233204 -146.105043 
L 218.512556 -138.719772 
L 221.791879 -131.491322 
L 225.071221 -124.530599 
L 228.350563 -117.968726 
L 231.629886 -111.994015 
L 234.909247 -107.027778 
L 238.18857 -104.581699 
L 241.467912 -106.831578 
L 244.747254 -112.046825 
L 248.026597 -118.785322 
L 251.305939 -126.630649 
L 254.585262 -135.38578 
L 257.864623 -144.89964 
L 261.143946 -155.030209 
L 264.423288 -165.635891 
L 267.70263 -176.572883 
L 270.981953 -187.695431 
L 274.261315 -198.857674 
L 277.540637 -209.914281 
L 280.81998 -220.722775 
L 284.099322 -231.145042 
L 287.378664 -241.048739 
L 290.658006 -250.309477 
L 293.937329 -258.812017 
L 297.21669 -266.452437 
L 300.496013 -273.138798 
L 303.775355 -278.793639 
L 307.054697 -283.35437 
L 310.33402 -286.775114 
L 313.613382 -289.027394 
L 316.892705 -290.101039 
L 320.172047 -290.004805 
L 323.451389 -288.766602 
L 326.730731 -286.43358 
L 330.010073 -283.072136 
L 333.289396 -278.767365 
L 336.568738 -273.622969 
L 339.84808 -267.761493 
L 343.127423 -261.327343 
L 346.406765 -254.491375 
L 349.686088 -247.465984 
L 352.96543 -240.529618 
L 356.244772 -233.99069 
L 359.524114 -227.916087 
L 362.803456 -221.979109 
L 366.082798 -215.838693 
L 369.362141 -209.397427 
L 372.641463 -202.759676 
L 375.920806 -196.237219 
L 379.200148 -190.385267 
L 379.200148 -192.329463 
L 379.200148 -192.329463 
L 375.920806 -198.240085 
L 372.641463 -204.690954 
L 369.362141 -211.267112 
L 366.082798 -217.710199 
L 362.803456 -223.914128 
L 359.524114 -229.92029 
L 356.244772 -235.929251 
L 352.96543 -242.186405 
L 349.686088 -248.761822 
L 346.406765 -255.484488 
L 343.127423 -262.100906 
L 339.84808 -268.380467 
L 336.568738 -274.131977 
L 333.289396 -279.196495 
L 330.010073 -283.441946 
L 326.730731 -286.758463 
L 323.451389 -289.05693 
L 320.172047 -290.268232 
L 316.892705 -290.343375 
L 313.613382 -289.253163 
L 310.33402 -286.987931 
L 307.054697 -283.557193 
L 303.775355 -278.98897 
L 300.496013 -273.328808 
L 297.21669 -266.6391 
L 293.937329 -258.99717 
L 290.658006 -250.494909 
L 287.378664 -241.236265 
L 284.099322 -231.336601 
L 280.81998 -220.920507 
L 277.540637 -210.120653 
L 274.261315 -199.075639 
L 270.981953 -187.928664 
L 267.70263 -176.826105 
L 264.423288 -165.91545 
L 261.143946 -155.344942 
L 257.864623 -145.26247 
L 254.585262 -135.816684 
L 251.305939 -127.16275 
L 248.026597 -119.478194 
L 244.747254 -113.017585 
L 241.467912 -108.300023 
L 238.18857 -106.519486 
L 234.909247 -108.553601 
L 231.629886 -113.058273 
L 228.350563 -118.772075 
L 225.071221 -125.183227 
L 221.791879 -132.050753 
L 218.512556 -139.218895 
L 215.233204 -146.564508 
L 211.953871 -153.980769 
L 208.674529 -161.372262 
L 205.395187 -168.652943 
L 202.115855 -175.746327 
L 198.836512 -182.585425 
L 195.55717 -189.112968 
L 192.277838 -195.281478 
L 188.998496 -201.053541 
L 185.719153 -206.400958 
L 182.439821 -211.305375 
L 179.160479 -215.757093 
L 175.881137 -219.75648 
L 172.601804 -223.312807 
L 169.322462 -226.44699 
L 166.04312 -229.193334 
L 162.763787 -231.60165 
L 159.484445 -233.736699 
L 156.205103 -235.664216 
L 152.92577 -237.418014 
L 149.646428 -238.966245 
L 146.367086 -240.22443 
L 143.087754 -241.101796 
L 139.808412 -241.537664 
L 136.529069 -241.507807 
L 133.249737 -241.018391 
L 129.970395 -240.099891 
L 126.691057 -238.81067 
L 123.41172 -237.241256 
L 120.132378 -235.535402 
L 116.853041 -233.909516 
L 113.573703 -232.642122 
L 110.294361 -231.983725 
L 107.015024 -232.051254 
L 103.735686 -232.829535 
L 100.456344 -234.255192 
L 97.177007 -236.262943 
L 93.89767 -238.794603 
L 90.61833 -241.796363 
L 87.33899 -245.21282 
L 84.059653 -248.986573 
L 80.780313 -253.057443 
L 77.500973 -257.362163 
L 74.221636 -261.836902 
L 70.942296 -266.417745 
L 67.662958 -271.04236 
L 64.383619 -275.651633 
L 61.10428 -280.19107 
L 57.824941 -284.611708 
L 54.545602 -288.871014 
z
" style="stroke: #ff7f0e; stroke-opacity: 0.5; stroke-width: 0.8"/>
    </defs>
    <g clip-path="url(#p640d5b1e44)">
     <use xlink:href="#m9a6924f53e" x="0" y="322.539375" style="fill: #ff7f0e; fill-opacity: 0.5; stroke: #ff7f0e; stroke-opacity: 0.5; stroke-width: 0.8"/>
    </g>
   </g>
   <g id="line2d_13">
    <defs>
     <path id="ma34a7aa6c0" d="M -5 5 
L 5 -5 
M -5 -5 
L 5 5 
" style="stroke: #000000; stroke-width: 2"/>
    </defs>
    <g clip-path="url(#p640d5b1e44)">
     <use xlink:href="#ma34a7aa6c0" x="356.349693" y="92.8319" style="stroke: #000000; stroke-width: 2"/>
     <use xlink:href="#ma34a7aa6c0" x="157.258364" y="93.794767" style="stroke: #000000; stroke-width: 2"/>
     <use xlink:href="#ma34a7aa6c0" x="114.255683" y="96.374455" style="stroke: #000000; stroke-width: 2"/>
     <use xlink:href="#ma34a7aa6c0" x="238.18857" y="223.016387" style="stroke: #000000; stroke-width: 2"/>
     <use xlink:href="#ma34a7aa6c0" x="143.087754" y="87.756371" style="stroke: #000000; stroke-width: 2"/>
     <use xlink:href="#ma34a7aa6c0" x="379.200148" y="137.418751" style="stroke: #000000; stroke-width: 2"/>
    </g>
   </g>
   <g id="line2d_14">
    <path d="M 54.545602 102.864851 
L 57.824941 103.697067 
L 61.10428 104.455585 
L 64.383619 105.122117 
L 67.662958 105.678451 
L 70.942296 106.106943 
L 74.221636 106.391066 
L 77.500973 106.516008 
L 80.780313 106.469263 
L 84.059653 106.241298 
L 87.33899 105.826028 
L 90.61833 105.221494 
L 93.89767 104.430316 
L 97.177007 103.46009 
L 100.456344 102.323892 
L 103.735686 101.040296 
L 107.015024 99.633596 
L 110.294361 98.133733 
L 113.573703 96.576098 
L 116.853041 95.001258 
L 120.132378 93.454291 
L 123.41172 91.984197 
L 126.691057 90.643145 
L 129.970395 89.485399 
L 133.249737 88.566308 
L 136.529069 87.941154 
L 139.808412 87.663873 
L 143.087754 87.785748 
L 146.367086 88.354184 
L 149.646428 89.41137 
L 152.92577 90.993087 
L 156.205103 93.127523 
L 159.484445 95.83432 
L 162.763787 99.123632 
L 166.04312 102.995447 
L 169.322462 107.439106 
L 172.601804 112.432949 
L 175.881137 117.944273 
L 179.160479 123.929552 
L 182.439821 130.334735 
L 185.719153 137.095902 
L 188.998496 144.140241 
L 192.277838 151.386941 
L 195.55717 158.748475 
L 198.836512 166.132158 
L 202.115855 173.441484 
L 205.395187 180.577884 
L 208.674529 187.442413 
L 211.953871 193.937459 
L 215.233204 199.968479 
L 218.512556 205.445716 
L 221.791879 210.285654 
L 225.071221 214.412712 
L 228.350563 217.760418 
L 231.629886 220.272644 
L 234.909247 221.904555 
L 238.18857 222.623397 
L 241.467912 222.409126 
L 244.747254 221.254701 
L 248.026597 219.166193 
L 251.305939 216.162833 
L 254.585262 212.276519 
L 257.864623 207.551503 
L 261.143946 202.043839 
L 264.423288 195.820297 
L 267.70263 188.957585 
L 270.981953 181.54148 
L 274.261315 173.665119 
L 277.540637 165.428396 
L 280.81998 156.936145 
L 284.099322 148.296762 
L 287.378664 139.62123 
L 290.658006 131.021002 
L 293.937329 122.606981 
L 297.21669 114.487498 
L 300.496013 106.767635 
L 303.775355 99.546527 
L 307.054697 92.917026 
L 310.33402 86.963506 
L 313.613382 81.760804 
L 316.892705 77.372871 
L 320.172047 73.851626 
L 323.451389 71.235942 
L 326.730731 69.551075 
L 330.010073 68.807499 
L 333.289396 69.001092 
L 336.568738 70.112645 
L 339.84808 72.108267 
L 343.127423 74.939961 
L 346.406765 78.545802 
L 349.686088 82.851389 
L 352.96543 87.771601 
L 356.244772 93.211738 
L 359.524114 99.069052 
L 362.803456 105.235405 
L 366.082798 111.599073 
L 369.362141 118.046924 
L 372.641463 124.467636 
L 375.920806 130.752222 
L 379.200148 136.798026 
" clip-path="url(#p640d5b1e44)" style="fill: none; stroke: #1f77b4; stroke-width: 2; stroke-linecap: round"/>
   </g>
   <g id="line2d_15">
    <path d="M 54.545602 180.039566 
L 57.824941 174.337652 
L 61.10428 168.656896 
L 64.383619 163.018365 
L 67.662958 157.44305 
L 70.942296 151.951709 
L 74.221636 146.564895 
L 77.500973 141.302804 
L 80.780313 136.185227 
L 84.059653 131.231524 
L 87.33899 126.460489 
L 90.61833 121.890333 
L 93.89767 117.538604 
L 97.177007 113.422131 
L 100.456344 109.556947 
L 103.735686 105.95828 
L 107.015024 102.640455 
L 110.294361 99.616862 
L 113.573703 96.899897 
L 116.853041 94.500946 
L 120.132378 92.430331 
L 123.41172 90.697256 
L 126.691057 89.309797 
L 129.970395 88.274869 
L 133.249737 87.59818 
L 136.529069 87.284233 
L 139.808412 87.336296 
L 143.087754 87.756371 
L 146.367086 88.545198 
L 149.646428 89.702247 
L 152.92577 91.225692 
L 156.205103 93.112401 
L 159.484445 95.357985 
L 162.763787 97.956713 
L 166.04312 100.901592 
L 169.322462 104.184322 
L 172.601804 107.795316 
L 175.881137 111.723706 
L 179.160479 115.95733 
L 182.439821 120.482809 
L 185.719153 125.285424 
L 188.998496 130.349271 
L 192.277838 135.657137 
L 195.55717 141.190638 
L 198.836512 146.930098 
L 202.115855 152.854601 
L 205.395187 158.942012 
L 208.674529 165.168986 
L 211.953871 171.510883 
L 215.233204 177.941872 
L 218.512556 184.434864 
L 221.791879 190.961451 
L 225.071221 197.49205 
L 228.350563 203.995765 
L 231.629886 210.440252 
L 234.909247 216.792143 
L 238.18857 223.016387 
L 241.467912 229.076876 
L 244.747254 234.935972 
L 248.026597 240.554727 
L 251.305939 245.892886 
L 254.585262 250.908747 
L 257.864623 255.559416 
L 261.143946 259.800673 
L 264.423288 263.587194 
L 267.70263 266.872587 
L 270.981953 269.609679 
L 274.261315 271.750607 
L 277.540637 273.24724 
L 280.81998 274.051525 
L 284.099322 274.116 
L 287.378664 273.394417 
L 290.658006 271.842579 
L 293.937329 269.41925 
L 297.21669 266.087231 
L 300.496013 261.815179 
L 303.775355 256.578619 
L 307.054697 250.362508 
L 310.33402 243.163415 
L 313.613382 234.99188 
L 316.892705 225.87599 
L 320.172047 215.864378 
L 323.451389 205.030187 
L 326.730731 193.475215 
L 330.010073 181.334072 
L 333.289396 168.778576 
L 336.568738 156.021967 
L 339.84808 143.322263 
L 343.127423 130.98506 
L 346.406765 119.364588 
L 349.686088 108.861847 
L 352.96543 99.919674 
L 356.244772 93.013744 
L 359.524114 88.636306 
L 362.803456 87.273632 
L 366.082798 89.374044 
L 369.362141 95.306083 
L 372.641463 105.306376 
L 375.920806 119.417493 
L 379.200148 137.418751 
" clip-path="url(#p640d5b1e44)" style="fill: none; stroke-dasharray: 7.68,1.92,1.2,1.92; stroke-dashoffset: 0; stroke: #bf00bf; stroke-width: 1.2"/>
   </g>
   <g id="patch_3">
    <path d="M 38.312875 274.182046 
L 38.312875 40.530338 
" style="fill: none; stroke: #262626; stroke-linejoin: miter; stroke-linecap: square"/>
   </g>
   <g id="patch_4">
    <path d="M 54.545602 286.212 
L 379.200148 286.212 
" style="fill: none; stroke: #262626; stroke-linejoin: miter; stroke-linecap: square"/>
   </g>
   <g id="text_15">
    <!-- N=2, psi=0.10 -->
    <g style="fill: #262626" transform="translate(186.986125 14.1) scale(0.096 -0.096)">
     <defs>
      <path id="ArialMT-4e" d="M 488 0 
L 488 4581 
L 1109 4581 
L 3516 984 
L 3516 4581 
L 4097 4581 
L 4097 0 
L 3475 0 
L 1069 3600 
L 1069 0 
L 488 0 
z
" transform="scale(0.015625)"/>
      <path id="ArialMT-3d" d="M 3381 2694 
L 356 2694 
L 356 3219 
L 3381 3219 
L 3381 2694 
z
M 3381 1303 
L 356 1303 
L 356 1828 
L 3381 1828 
L 3381 1303 
z
" transform="scale(0.015625)"/>
      <path id="ArialMT-2c" d="M 569 0 
L 569 641 
L 1209 641 
L 1209 0 
Q 1209 -353 1084 -570 
Q 959 -788 688 -906 
L 531 -666 
Q 709 -588 793 -436 
Q 878 -284 888 0 
L 569 0 
z
" transform="scale(0.015625)"/>
      <path id="ArialMT-20" transform="scale(0.015625)"/>
      <path id="ArialMT-70" d="M 422 -1272 
L 422 3319 
L 934 3319 
L 934 2888 
Q 1116 3141 1344 3267 
Q 1572 3394 1897 3394 
Q 2322 3394 2647 3175 
Q 2972 2956 3137 2557 
Q 3303 2159 3303 1684 
Q 3303 1175 3120 767 
Q 2938 359 2589 142 
Q 2241 -75 1856 -75 
Q 1575 -75 1351 44 
Q 1128 163 984 344 
L 984 -1272 
L 422 -1272 
z
M 931 1641 
Q 931 1000 1190 694 
Q 1450 388 1819 388 
Q 2194 388 2461 705 
Q 2728 1022 2728 1688 
Q 2728 2322 2467 2637 
Q 2206 2953 1844 2953 
Q 1484 2953 1207 2617 
Q 931 2281 931 1641 
z
" transform="scale(0.015625)"/>
      <path id="ArialMT-73" d="M 197 991 
L 753 1078 
Q 800 744 1014 566 
Q 1228 388 1613 388 
Q 2000 388 2187 545 
Q 2375 703 2375 916 
Q 2375 1106 2209 1216 
Q 2094 1291 1634 1406 
Q 1016 1563 777 1677 
Q 538 1791 414 1992 
Q 291 2194 291 2438 
Q 291 2659 392 2848 
Q 494 3038 669 3163 
Q 800 3259 1026 3326 
Q 1253 3394 1513 3394 
Q 1903 3394 2198 3281 
Q 2494 3169 2634 2976 
Q 2775 2784 2828 2463 
L 2278 2388 
Q 2241 2644 2061 2787 
Q 1881 2931 1553 2931 
Q 1166 2931 1000 2803 
Q 834 2675 834 2503 
Q 834 2394 903 2306 
Q 972 2216 1119 2156 
Q 1203 2125 1616 2013 
Q 2213 1853 2448 1751 
Q 2684 1650 2818 1456 
Q 2953 1263 2953 975 
Q 2953 694 2789 445 
Q 2625 197 2315 61 
Q 2006 -75 1616 -75 
Q 969 -75 630 194 
Q 291 463 197 991 
z
" transform="scale(0.015625)"/>
      <path id="ArialMT-69" d="M 425 3934 
L 425 4581 
L 988 4581 
L 988 3934 
L 425 3934 
z
M 425 0 
L 425 3319 
L 988 3319 
L 988 0 
L 425 0 
z
" transform="scale(0.015625)"/>
     </defs>
     <use xlink:href="#ArialMT-4e"/>
     <use xlink:href="#ArialMT-3d" x="72.216797"/>
     <use xlink:href="#ArialMT-32" x="130.615234"/>
     <use xlink:href="#ArialMT-2c" x="186.230469"/>
     <use xlink:href="#ArialMT-20" x="214.013672"/>
     <use xlink:href="#ArialMT-70" x="241.796875"/>
     <use xlink:href="#ArialMT-73" x="297.412109"/>
     <use xlink:href="#ArialMT-69" x="347.412109"/>
     <use xlink:href="#ArialMT-3d" x="369.628906"/>
     <use xlink:href="#ArialMT-30" x="428.027344"/>
     <use xlink:href="#ArialMT-2e" x="483.642578"/>
     <use xlink:href="#ArialMT-31" x="511.425781"/>
     <use xlink:href="#ArialMT-30" x="567.041016"/>
    </g>
   </g>
   <g id="legend_1">
    <g id="line2d_16">
     <g>
      <use xlink:href="#ma34a7aa6c0" x="55.032875" y="220.007125" style="stroke: #000000; stroke-width: 2"/>
     </g>
    </g>
    <g id="text_16">
     <!-- Observations -->
     <g style="fill: #262626" transform="translate(70.872875 223.087125) scale(0.088 -0.088)">
      <defs>
       <path id="ArialMT-4f" d="M 309 2231 
Q 309 3372 921 4017 
Q 1534 4663 2503 4663 
Q 3138 4663 3647 4359 
Q 4156 4056 4423 3514 
Q 4691 2972 4691 2284 
Q 4691 1588 4409 1038 
Q 4128 488 3612 205 
Q 3097 -78 2500 -78 
Q 1853 -78 1343 234 
Q 834 547 571 1087 
Q 309 1628 309 2231 
z
M 934 2222 
Q 934 1394 1379 917 
Q 1825 441 2497 441 
Q 3181 441 3623 922 
Q 4066 1403 4066 2288 
Q 4066 2847 3877 3264 
Q 3688 3681 3323 3911 
Q 2959 4141 2506 4141 
Q 1863 4141 1398 3698 
Q 934 3256 934 2222 
z
" transform="scale(0.015625)"/>
       <path id="ArialMT-62" d="M 941 0 
L 419 0 
L 419 4581 
L 981 4581 
L 981 2947 
Q 1338 3394 1891 3394 
Q 2197 3394 2470 3270 
Q 2744 3147 2920 2923 
Q 3097 2700 3197 2384 
Q 3297 2069 3297 1709 
Q 3297 856 2875 390 
Q 2453 -75 1863 -75 
Q 1275 -75 941 416 
L 941 0 
z
M 934 1684 
Q 934 1088 1097 822 
Q 1363 388 1816 388 
Q 2184 388 2453 708 
Q 2722 1028 2722 1663 
Q 2722 2313 2464 2622 
Q 2206 2931 1841 2931 
Q 1472 2931 1203 2611 
Q 934 2291 934 1684 
z
" transform="scale(0.015625)"/>
       <path id="ArialMT-65" d="M 2694 1069 
L 3275 997 
Q 3138 488 2766 206 
Q 2394 -75 1816 -75 
Q 1088 -75 661 373 
Q 234 822 234 1631 
Q 234 2469 665 2931 
Q 1097 3394 1784 3394 
Q 2450 3394 2872 2941 
Q 3294 2488 3294 1666 
Q 3294 1616 3291 1516 
L 816 1516 
Q 847 969 1125 678 
Q 1403 388 1819 388 
Q 2128 388 2347 550 
Q 2566 713 2694 1069 
z
M 847 1978 
L 2700 1978 
Q 2663 2397 2488 2606 
Q 2219 2931 1791 2931 
Q 1403 2931 1139 2672 
Q 875 2413 847 1978 
z
" transform="scale(0.015625)"/>
       <path id="ArialMT-72" d="M 416 0 
L 416 3319 
L 922 3319 
L 922 2816 
Q 1116 3169 1280 3281 
Q 1444 3394 1641 3394 
Q 1925 3394 2219 3213 
L 2025 2691 
Q 1819 2813 1613 2813 
Q 1428 2813 1281 2702 
Q 1134 2591 1072 2394 
Q 978 2094 978 1738 
L 978 0 
L 416 0 
z
" transform="scale(0.015625)"/>
       <path id="ArialMT-76" d="M 1344 0 
L 81 3319 
L 675 3319 
L 1388 1331 
Q 1503 1009 1600 663 
Q 1675 925 1809 1294 
L 2547 3319 
L 3125 3319 
L 1869 0 
L 1344 0 
z
" transform="scale(0.015625)"/>
       <path id="ArialMT-61" d="M 2588 409 
Q 2275 144 1986 34 
Q 1697 -75 1366 -75 
Q 819 -75 525 192 
Q 231 459 231 875 
Q 231 1119 342 1320 
Q 453 1522 633 1644 
Q 813 1766 1038 1828 
Q 1203 1872 1538 1913 
Q 2219 1994 2541 2106 
Q 2544 2222 2544 2253 
Q 2544 2597 2384 2738 
Q 2169 2928 1744 2928 
Q 1347 2928 1158 2789 
Q 969 2650 878 2297 
L 328 2372 
Q 403 2725 575 2942 
Q 747 3159 1072 3276 
Q 1397 3394 1825 3394 
Q 2250 3394 2515 3294 
Q 2781 3194 2906 3042 
Q 3031 2891 3081 2659 
Q 3109 2516 3109 2141 
L 3109 1391 
Q 3109 606 3145 398 
Q 3181 191 3288 0 
L 2700 0 
Q 2613 175 2588 409 
z
M 2541 1666 
Q 2234 1541 1622 1453 
Q 1275 1403 1131 1340 
Q 988 1278 909 1158 
Q 831 1038 831 891 
Q 831 666 1001 516 
Q 1172 366 1500 366 
Q 1825 366 2078 508 
Q 2331 650 2450 897 
Q 2541 1088 2541 1459 
L 2541 1666 
z
" transform="scale(0.015625)"/>
       <path id="ArialMT-74" d="M 1650 503 
L 1731 6 
Q 1494 -44 1306 -44 
Q 1000 -44 831 53 
Q 663 150 594 308 
Q 525 466 525 972 
L 525 2881 
L 113 2881 
L 113 3319 
L 525 3319 
L 525 4141 
L 1084 4478 
L 1084 3319 
L 1650 3319 
L 1650 2881 
L 1084 2881 
L 1084 941 
Q 1084 700 1114 631 
Q 1144 563 1211 522 
Q 1278 481 1403 481 
Q 1497 481 1650 503 
z
" transform="scale(0.015625)"/>
       <path id="ArialMT-6f" d="M 213 1659 
Q 213 2581 725 3025 
Q 1153 3394 1769 3394 
Q 2453 3394 2887 2945 
Q 3322 2497 3322 1706 
Q 3322 1066 3130 698 
Q 2938 331 2570 128 
Q 2203 -75 1769 -75 
Q 1072 -75 642 372 
Q 213 819 213 1659 
z
M 791 1659 
Q 791 1022 1069 705 
Q 1347 388 1769 388 
Q 2188 388 2466 706 
Q 2744 1025 2744 1678 
Q 2744 2294 2464 2611 
Q 2184 2928 1769 2928 
Q 1347 2928 1069 2612 
Q 791 2297 791 1659 
z
" transform="scale(0.015625)"/>
       <path id="ArialMT-6e" d="M 422 0 
L 422 3319 
L 928 3319 
L 928 2847 
Q 1294 3394 1984 3394 
Q 2284 3394 2536 3286 
Q 2788 3178 2913 3003 
Q 3038 2828 3088 2588 
Q 3119 2431 3119 2041 
L 3119 0 
L 2556 0 
L 2556 2019 
Q 2556 2363 2490 2533 
Q 2425 2703 2258 2804 
Q 2091 2906 1866 2906 
Q 1506 2906 1245 2678 
Q 984 2450 984 1813 
L 984 0 
L 422 0 
z
" transform="scale(0.015625)"/>
      </defs>
      <use xlink:href="#ArialMT-4f"/>
      <use xlink:href="#ArialMT-62" x="77.783203"/>
      <use xlink:href="#ArialMT-73" x="133.398438"/>
      <use xlink:href="#ArialMT-65" x="183.398438"/>
      <use xlink:href="#ArialMT-72" x="239.013672"/>
      <use xlink:href="#ArialMT-76" x="272.314453"/>
      <use xlink:href="#ArialMT-61" x="322.314453"/>
      <use xlink:href="#ArialMT-74" x="377.929688"/>
      <use xlink:href="#ArialMT-69" x="405.712891"/>
      <use xlink:href="#ArialMT-6f" x="427.929688"/>
      <use xlink:href="#ArialMT-6e" x="483.544922"/>
      <use xlink:href="#ArialMT-73" x="539.160156"/>
     </g>
    </g>
    <g id="line2d_17">
     <path d="M 46.232875 232.591125 
L 55.032875 232.591125 
L 63.832875 232.591125 
" style="fill: none; stroke: #1f77b4; stroke-width: 2; stroke-linecap: round"/>
    </g>
    <g id="text_17">
     <!-- $m_n(x)$ -->
     <g style="fill: #262626" transform="translate(70.872875 235.671125) scale(0.088 -0.088)">
      <defs>
       <path id="DejaVuSans-Oblique-6d" d="M 5747 2113 
L 5338 0 
L 4763 0 
L 5166 2094 
Q 5191 2228 5203 2325 
Q 5216 2422 5216 2491 
Q 5216 2772 5059 2928 
Q 4903 3084 4622 3084 
Q 4203 3084 3875 2770 
Q 3547 2456 3450 1953 
L 3066 0 
L 2491 0 
L 2900 2094 
Q 2925 2209 2937 2307 
Q 2950 2406 2950 2484 
Q 2950 2769 2794 2926 
Q 2638 3084 2363 3084 
Q 1938 3084 1609 2770 
Q 1281 2456 1184 1953 
L 800 0 
L 225 0 
L 909 3500 
L 1484 3500 
L 1375 2956 
Q 1609 3263 1923 3423 
Q 2238 3584 2597 3584 
Q 2978 3584 3223 3384 
Q 3469 3184 3519 2828 
Q 3781 3197 4126 3390 
Q 4472 3584 4856 3584 
Q 5306 3584 5551 3325 
Q 5797 3066 5797 2591 
Q 5797 2488 5784 2364 
Q 5772 2241 5747 2113 
z
" transform="scale(0.015625)"/>
       <path id="DejaVuSans-Oblique-6e" d="M 3566 2113 
L 3156 0 
L 2578 0 
L 2988 2091 
Q 3016 2238 3031 2350 
Q 3047 2463 3047 2528 
Q 3047 2791 2881 2937 
Q 2716 3084 2419 3084 
Q 1956 3084 1622 2776 
Q 1288 2469 1184 1941 
L 800 0 
L 225 0 
L 903 3500 
L 1478 3500 
L 1363 2950 
Q 1603 3253 1940 3418 
Q 2278 3584 2650 3584 
Q 3113 3584 3367 3334 
Q 3622 3084 3622 2631 
Q 3622 2519 3608 2391 
Q 3594 2263 3566 2113 
z
" transform="scale(0.015625)"/>
       <path id="DejaVuSans-28" d="M 1984 4856 
Q 1566 4138 1362 3434 
Q 1159 2731 1159 2009 
Q 1159 1288 1364 580 
Q 1569 -128 1984 -844 
L 1484 -844 
Q 1016 -109 783 600 
Q 550 1309 550 2009 
Q 550 2706 781 3412 
Q 1013 4119 1484 4856 
L 1984 4856 
z
" transform="scale(0.015625)"/>
       <path id="DejaVuSans-29" d="M 513 4856 
L 1013 4856 
Q 1481 4119 1714 3412 
Q 1947 2706 1947 2009 
Q 1947 1309 1714 600 
Q 1481 -109 1013 -844 
L 513 -844 
Q 928 -128 1133 580 
Q 1338 1288 1338 2009 
Q 1338 2731 1133 3434 
Q 928 4138 513 4856 
z
" transform="scale(0.015625)"/>
      </defs>
      <use xlink:href="#DejaVuSans-Oblique-6d" transform="translate(0 0.125)"/>
      <use xlink:href="#DejaVuSans-Oblique-6e" transform="translate(97.412109 -16.28125) scale(0.7)"/>
      <use xlink:href="#DejaVuSans-28" transform="translate(144.511719 0.125)"/>
      <use xlink:href="#DejaVuSans-Oblique-78" transform="translate(183.525391 0.125)"/>
      <use xlink:href="#DejaVuSans-29" transform="translate(242.705078 0.125)"/>
     </g>
    </g>
    <g id="patch_5">
     <path d="M 46.232875 249.828125 
L 63.832875 249.828125 
L 63.832875 243.668125 
L 46.232875 243.668125 
z
" style="fill: #1f77b4; fill-opacity: 0.5; stroke: #1f77b4; stroke-opacity: 0.5; stroke-width: 0.8; stroke-linejoin: miter"/>
    </g>
    <g id="text_18">
     <!-- $f(\mathbf{x}^*)$ 95% pred. -->
     <g style="fill: #262626" transform="translate(70.872875 249.828125) scale(0.088 -0.088)">
      <defs>
       <path id="DejaVuSans-Oblique-66" d="M 3059 4863 
L 2969 4384 
L 2419 4384 
Q 2106 4384 1964 4261 
Q 1822 4138 1753 3809 
L 1691 3500 
L 2638 3500 
L 2553 3053 
L 1606 3053 
L 1013 0 
L 434 0 
L 1031 3053 
L 481 3053 
L 563 3500 
L 1113 3500 
L 1159 3744 
Q 1278 4363 1576 4613 
Q 1875 4863 2516 4863 
L 3059 4863 
z
" transform="scale(0.015625)"/>
       <path id="DejaVuSans-Bold-78" d="M 1422 1791 
L 159 3500 
L 1344 3500 
L 2059 2463 
L 2784 3500 
L 3969 3500 
L 2706 1797 
L 4031 0 
L 2847 0 
L 2059 1106 
L 1281 0 
L 97 0 
L 1422 1791 
z
" transform="scale(0.015625)"/>
       <path id="DejaVuSans-2a" d="M 3009 3897 
L 1888 3291 
L 3009 2681 
L 2828 2375 
L 1778 3009 
L 1778 1831 
L 1422 1831 
L 1422 3009 
L 372 2375 
L 191 2681 
L 1313 3291 
L 191 3897 
L 372 4206 
L 1422 3572 
L 1422 4750 
L 1778 4750 
L 1778 3572 
L 2828 4206 
L 3009 3897 
z
" transform="scale(0.015625)"/>
       <path id="ArialMT-39" d="M 350 1059 
L 891 1109 
Q 959 728 1153 556 
Q 1347 384 1650 384 
Q 1909 384 2104 503 
Q 2300 622 2425 820 
Q 2550 1019 2634 1356 
Q 2719 1694 2719 2044 
Q 2719 2081 2716 2156 
Q 2547 1888 2255 1720 
Q 1963 1553 1622 1553 
Q 1053 1553 659 1965 
Q 266 2378 266 3053 
Q 266 3750 677 4175 
Q 1088 4600 1706 4600 
Q 2153 4600 2523 4359 
Q 2894 4119 3086 3673 
Q 3278 3228 3278 2384 
Q 3278 1506 3087 986 
Q 2897 466 2520 194 
Q 2144 -78 1638 -78 
Q 1100 -78 759 220 
Q 419 519 350 1059 
z
M 2653 3081 
Q 2653 3566 2395 3850 
Q 2138 4134 1775 4134 
Q 1400 4134 1122 3828 
Q 844 3522 844 3034 
Q 844 2597 1108 2323 
Q 1372 2050 1759 2050 
Q 2150 2050 2401 2323 
Q 2653 2597 2653 3081 
z
" transform="scale(0.015625)"/>
       <path id="ArialMT-35" d="M 266 1200 
L 856 1250 
Q 922 819 1161 601 
Q 1400 384 1738 384 
Q 2144 384 2425 690 
Q 2706 997 2706 1503 
Q 2706 1984 2436 2262 
Q 2166 2541 1728 2541 
Q 1456 2541 1237 2417 
Q 1019 2294 894 2097 
L 366 2166 
L 809 4519 
L 3088 4519 
L 3088 3981 
L 1259 3981 
L 1013 2750 
Q 1425 3038 1878 3038 
Q 2478 3038 2890 2622 
Q 3303 2206 3303 1553 
Q 3303 931 2941 478 
Q 2500 -78 1738 -78 
Q 1113 -78 717 272 
Q 322 622 266 1200 
z
" transform="scale(0.015625)"/>
       <path id="ArialMT-25" d="M 372 3481 
Q 372 3972 619 4315 
Q 866 4659 1334 4659 
Q 1766 4659 2048 4351 
Q 2331 4044 2331 3447 
Q 2331 2866 2045 2552 
Q 1759 2238 1341 2238 
Q 925 2238 648 2547 
Q 372 2856 372 3481 
z
M 1350 4272 
Q 1141 4272 1002 4090 
Q 863 3909 863 3425 
Q 863 2984 1003 2804 
Q 1144 2625 1350 2625 
Q 1563 2625 1702 2806 
Q 1841 2988 1841 3469 
Q 1841 3913 1700 4092 
Q 1559 4272 1350 4272 
z
M 1353 -169 
L 3859 4659 
L 4316 4659 
L 1819 -169 
L 1353 -169 
z
M 3334 1075 
Q 3334 1569 3581 1911 
Q 3828 2253 4300 2253 
Q 4731 2253 5014 1945 
Q 5297 1638 5297 1041 
Q 5297 459 5011 145 
Q 4725 -169 4303 -169 
Q 3888 -169 3611 142 
Q 3334 453 3334 1075 
z
M 4316 1866 
Q 4103 1866 3964 1684 
Q 3825 1503 3825 1019 
Q 3825 581 3965 400 
Q 4106 219 4313 219 
Q 4528 219 4667 400 
Q 4806 581 4806 1063 
Q 4806 1506 4665 1686 
Q 4525 1866 4316 1866 
z
" transform="scale(0.015625)"/>
       <path id="ArialMT-64" d="M 2575 0 
L 2575 419 
Q 2259 -75 1647 -75 
Q 1250 -75 917 144 
Q 584 363 401 755 
Q 219 1147 219 1656 
Q 219 2153 384 2558 
Q 550 2963 881 3178 
Q 1213 3394 1622 3394 
Q 1922 3394 2156 3267 
Q 2391 3141 2538 2938 
L 2538 4581 
L 3097 4581 
L 3097 0 
L 2575 0 
z
M 797 1656 
Q 797 1019 1065 703 
Q 1334 388 1700 388 
Q 2069 388 2326 689 
Q 2584 991 2584 1609 
Q 2584 2291 2321 2609 
Q 2059 2928 1675 2928 
Q 1300 2928 1048 2622 
Q 797 2316 797 1656 
z
" transform="scale(0.015625)"/>
      </defs>
      <use xlink:href="#DejaVuSans-Oblique-66" transform="translate(0 0.765625)"/>
      <use xlink:href="#DejaVuSans-28" transform="translate(35.205078 0.765625)"/>
      <use xlink:href="#DejaVuSans-Bold-78" transform="translate(74.21875 0.765625)"/>
      <use xlink:href="#DejaVuSans-2a" transform="translate(153.31543 39.046875) scale(0.7)"/>
      <use xlink:href="#DejaVuSans-29" transform="translate(204.6875 0.765625)"/>
      <use xlink:href="#ArialMT-20" transform="translate(243.701172 0.765625)"/>
      <use xlink:href="#ArialMT-39" transform="translate(271.484375 0.765625)"/>
      <use xlink:href="#ArialMT-35" transform="translate(327.099609 0.765625)"/>
      <use xlink:href="#ArialMT-25" transform="translate(382.714844 0.765625)"/>
      <use xlink:href="#ArialMT-20" transform="translate(471.630859 0.765625)"/>
      <use xlink:href="#ArialMT-70" transform="translate(499.414062 0.765625)"/>
      <use xlink:href="#ArialMT-72" transform="translate(555.029297 0.765625)"/>
      <use xlink:href="#ArialMT-65" transform="translate(588.330078 0.765625)"/>
      <use xlink:href="#ArialMT-64" transform="translate(643.945312 0.765625)"/>
      <use xlink:href="#ArialMT-2e" transform="translate(699.560547 0.765625)"/>
     </g>
    </g>
    <g id="patch_6">
     <path d="M 46.232875 263.996125 
L 63.832875 263.996125 
L 63.832875 257.836125 
L 46.232875 257.836125 
z
" style="fill: #ff7f0e; fill-opacity: 0.5; stroke: #ff7f0e; stroke-opacity: 0.5; stroke-width: 0.8; stroke-linejoin: miter"/>
    </g>
    <g id="text_19">
     <!-- $y^*$ 95% pred. -->
     <g style="fill: #262626" transform="translate(70.872875 263.996125) scale(0.088 -0.088)">
      <use xlink:href="#DejaVuSans-Oblique-79" transform="translate(0 0.765625)"/>
      <use xlink:href="#DejaVuSans-2a" transform="translate(77.283529 39.046875) scale(0.7)"/>
      <use xlink:href="#ArialMT-20" transform="translate(128.655599 0.765625)"/>
      <use xlink:href="#ArialMT-39" transform="translate(156.438802 0.765625)"/>
      <use xlink:href="#ArialMT-35" transform="translate(212.054036 0.765625)"/>
      <use xlink:href="#ArialMT-25" transform="translate(267.669271 0.765625)"/>
      <use xlink:href="#ArialMT-20" transform="translate(356.585286 0.765625)"/>
      <use xlink:href="#ArialMT-70" transform="translate(384.36849 0.765625)"/>
      <use xlink:href="#ArialMT-72" transform="translate(439.983724 0.765625)"/>
      <use xlink:href="#ArialMT-65" transform="translate(473.284505 0.765625)"/>
      <use xlink:href="#ArialMT-64" transform="translate(528.89974 0.765625)"/>
      <use xlink:href="#ArialMT-2e" transform="translate(584.514974 0.765625)"/>
     </g>
    </g>
    <g id="line2d_18">
     <path d="M 46.232875 273.463 
L 55.032875 273.463 
L 63.832875 273.463 
" style="fill: none; stroke-dasharray: 7.68,1.92,1.2,1.92; stroke-dashoffset: 0; stroke: #bf00bf; stroke-width: 1.2"/>
    </g>
    <g id="text_20">
     <!-- True function -->
     <g style="fill: #262626" transform="translate(70.872875 276.543) scale(0.088 -0.088)">
      <defs>
       <path id="ArialMT-54" d="M 1659 0 
L 1659 4041 
L 150 4041 
L 150 4581 
L 3781 4581 
L 3781 4041 
L 2266 4041 
L 2266 0 
L 1659 0 
z
" transform="scale(0.015625)"/>
       <path id="ArialMT-75" d="M 2597 0 
L 2597 488 
Q 2209 -75 1544 -75 
Q 1250 -75 995 37 
Q 741 150 617 320 
Q 494 491 444 738 
Q 409 903 409 1263 
L 409 3319 
L 972 3319 
L 972 1478 
Q 972 1038 1006 884 
Q 1059 663 1231 536 
Q 1403 409 1656 409 
Q 1909 409 2131 539 
Q 2353 669 2445 892 
Q 2538 1116 2538 1541 
L 2538 3319 
L 3100 3319 
L 3100 0 
L 2597 0 
z
" transform="scale(0.015625)"/>
       <path id="ArialMT-66" d="M 556 0 
L 556 2881 
L 59 2881 
L 59 3319 
L 556 3319 
L 556 3672 
Q 556 4006 616 4169 
Q 697 4388 901 4523 
Q 1106 4659 1475 4659 
Q 1713 4659 2000 4603 
L 1916 4113 
Q 1741 4144 1584 4144 
Q 1328 4144 1222 4034 
Q 1116 3925 1116 3625 
L 1116 3319 
L 1763 3319 
L 1763 2881 
L 1116 2881 
L 1116 0 
L 556 0 
z
" transform="scale(0.015625)"/>
       <path id="ArialMT-63" d="M 2588 1216 
L 3141 1144 
Q 3050 572 2676 248 
Q 2303 -75 1759 -75 
Q 1078 -75 664 370 
Q 250 816 250 1647 
Q 250 2184 428 2587 
Q 606 2991 970 3192 
Q 1334 3394 1763 3394 
Q 2303 3394 2647 3120 
Q 2991 2847 3088 2344 
L 2541 2259 
Q 2463 2594 2264 2762 
Q 2066 2931 1784 2931 
Q 1359 2931 1093 2626 
Q 828 2322 828 1663 
Q 828 994 1084 691 
Q 1341 388 1753 388 
Q 2084 388 2306 591 
Q 2528 794 2588 1216 
z
" transform="scale(0.015625)"/>
      </defs>
      <use xlink:href="#ArialMT-54"/>
      <use xlink:href="#ArialMT-72" x="57.333984"/>
      <use xlink:href="#ArialMT-75" x="90.634766"/>
      <use xlink:href="#ArialMT-65" x="146.25"/>
      <use xlink:href="#ArialMT-20" x="201.865234"/>
      <use xlink:href="#ArialMT-66" x="229.648438"/>
      <use xlink:href="#ArialMT-75" x="257.431641"/>
      <use xlink:href="#ArialMT-6e" x="313.046875"/>
      <use xlink:href="#ArialMT-63" x="368.662109"/>
      <use xlink:href="#ArialMT-74" x="418.662109"/>
      <use xlink:href="#ArialMT-69" x="446.445312"/>
      <use xlink:href="#ArialMT-6f" x="468.662109"/>
      <use xlink:href="#ArialMT-6e" x="524.277344"/>
     </g>
    </g>
   </g>
  </g>
  <g id="axes_2">
   <g id="matplotlib.axis_3">
    <g id="ytick_7">
     <g id="line2d_19">
      <defs>
       <path id="m3a90fba441" d="M 0 0 
L 4.8 0 
" style="stroke: #262626"/>
      </defs>
      <g>
       <use xlink:href="#m3a90fba441" x="395.432875" y="274.116" style="fill: #262626; stroke: #262626"/>
      </g>
     </g>
     <g id="text_21">
      <!-- 0.0 -->
      <g style="fill: #ff7f0e" transform="translate(403.732875 277.265437) scale(0.088 -0.088)">
       <use xlink:href="#ArialMT-30"/>
       <use xlink:href="#ArialMT-2e" x="55.615234"/>
       <use xlink:href="#ArialMT-30" x="83.398438"/>
      </g>
     </g>
    </g>
    <g id="ytick_8">
     <g id="line2d_20">
      <g>
       <use xlink:href="#m3a90fba441" x="395.432875" y="222.520545" style="fill: #262626; stroke: #262626"/>
      </g>
     </g>
     <g id="text_22">
      <!-- 0.2 -->
      <g style="fill: #ff7f0e" transform="translate(403.732875 225.669982) scale(0.088 -0.088)">
       <use xlink:href="#ArialMT-30"/>
       <use xlink:href="#ArialMT-2e" x="55.615234"/>
       <use xlink:href="#ArialMT-32" x="83.398438"/>
      </g>
     </g>
    </g>
    <g id="ytick_9">
     <g id="line2d_21">
      <g>
       <use xlink:href="#m3a90fba441" x="395.432875" y="170.92509" style="fill: #262626; stroke: #262626"/>
      </g>
     </g>
     <g id="text_23">
      <!-- 0.4 -->
      <g style="fill: #ff7f0e" transform="translate(403.732875 174.074527) scale(0.088 -0.088)">
       <use xlink:href="#ArialMT-30"/>
       <use xlink:href="#ArialMT-2e" x="55.615234"/>
       <use xlink:href="#ArialMT-34" x="83.398438"/>
      </g>
     </g>
    </g>
    <g id="ytick_10">
     <g id="line2d_22">
      <g>
       <use xlink:href="#m3a90fba441" x="395.432875" y="119.329635" style="fill: #262626; stroke: #262626"/>
      </g>
     </g>
     <g id="text_24">
      <!-- 0.6 -->
      <g style="fill: #ff7f0e" transform="translate(403.732875 122.479072) scale(0.088 -0.088)">
       <use xlink:href="#ArialMT-30"/>
       <use xlink:href="#ArialMT-2e" x="55.615234"/>
       <use xlink:href="#ArialMT-36" x="83.398438"/>
      </g>
     </g>
    </g>
    <g id="ytick_11">
     <g id="line2d_23">
      <g>
       <use xlink:href="#m3a90fba441" x="395.432875" y="67.734179" style="fill: #262626; stroke: #262626"/>
      </g>
     </g>
     <g id="text_25">
      <!-- 0.8 -->
      <g style="fill: #ff7f0e" transform="translate(403.732875 70.883617) scale(0.088 -0.088)">
       <use xlink:href="#ArialMT-30"/>
       <use xlink:href="#ArialMT-2e" x="55.615234"/>
       <use xlink:href="#ArialMT-38" x="83.398438"/>
      </g>
     </g>
    </g>
    <g id="text_26">
     <!-- Information Acquisition Function -->
     <g style="fill: #ff7f0e" transform="translate(426.953375 221.18925) rotate(-90) scale(0.096 -0.096)">
      <defs>
       <path id="ArialMT-49" d="M 597 0 
L 597 4581 
L 1203 4581 
L 1203 0 
L 597 0 
z
" transform="scale(0.015625)"/>
       <path id="ArialMT-6d" d="M 422 0 
L 422 3319 
L 925 3319 
L 925 2853 
Q 1081 3097 1340 3245 
Q 1600 3394 1931 3394 
Q 2300 3394 2536 3241 
Q 2772 3088 2869 2813 
Q 3263 3394 3894 3394 
Q 4388 3394 4653 3120 
Q 4919 2847 4919 2278 
L 4919 0 
L 4359 0 
L 4359 2091 
Q 4359 2428 4304 2576 
Q 4250 2725 4106 2815 
Q 3963 2906 3769 2906 
Q 3419 2906 3187 2673 
Q 2956 2441 2956 1928 
L 2956 0 
L 2394 0 
L 2394 2156 
Q 2394 2531 2256 2718 
Q 2119 2906 1806 2906 
Q 1569 2906 1367 2781 
Q 1166 2656 1075 2415 
Q 984 2175 984 1722 
L 984 0 
L 422 0 
z
" transform="scale(0.015625)"/>
       <path id="ArialMT-41" d="M -9 0 
L 1750 4581 
L 2403 4581 
L 4278 0 
L 3588 0 
L 3053 1388 
L 1138 1388 
L 634 0 
L -9 0 
z
M 1313 1881 
L 2866 1881 
L 2388 3150 
Q 2169 3728 2063 4100 
Q 1975 3659 1816 3225 
L 1313 1881 
z
" transform="scale(0.015625)"/>
       <path id="ArialMT-71" d="M 2538 -1272 
L 2538 353 
Q 2406 169 2170 47 
Q 1934 -75 1669 -75 
Q 1078 -75 651 397 
Q 225 869 225 1691 
Q 225 2191 398 2587 
Q 572 2984 901 3189 
Q 1231 3394 1625 3394 
Q 2241 3394 2594 2875 
L 2594 3319 
L 3100 3319 
L 3100 -1272 
L 2538 -1272 
z
M 803 1669 
Q 803 1028 1072 708 
Q 1341 388 1716 388 
Q 2075 388 2334 692 
Q 2594 997 2594 1619 
Q 2594 2281 2320 2615 
Q 2047 2950 1678 2950 
Q 1313 2950 1058 2639 
Q 803 2328 803 1669 
z
" transform="scale(0.015625)"/>
       <path id="ArialMT-46" d="M 525 0 
L 525 4581 
L 3616 4581 
L 3616 4041 
L 1131 4041 
L 1131 2622 
L 3281 2622 
L 3281 2081 
L 1131 2081 
L 1131 0 
L 525 0 
z
" transform="scale(0.015625)"/>
      </defs>
      <use xlink:href="#ArialMT-49"/>
      <use xlink:href="#ArialMT-6e" x="27.783203"/>
      <use xlink:href="#ArialMT-66" x="83.398438"/>
      <use xlink:href="#ArialMT-6f" x="111.181641"/>
      <use xlink:href="#ArialMT-72" x="166.796875"/>
      <use xlink:href="#ArialMT-6d" x="200.097656"/>
      <use xlink:href="#ArialMT-61" x="283.398438"/>
      <use xlink:href="#ArialMT-74" x="339.013672"/>
      <use xlink:href="#ArialMT-69" x="366.796875"/>
      <use xlink:href="#ArialMT-6f" x="389.013672"/>
      <use xlink:href="#ArialMT-6e" x="444.628906"/>
      <use xlink:href="#ArialMT-20" x="500.244141"/>
      <use xlink:href="#ArialMT-41" x="522.527344"/>
      <use xlink:href="#ArialMT-63" x="589.226562"/>
      <use xlink:href="#ArialMT-71" x="639.226562"/>
      <use xlink:href="#ArialMT-75" x="694.841797"/>
      <use xlink:href="#ArialMT-69" x="750.457031"/>
      <use xlink:href="#ArialMT-73" x="772.673828"/>
      <use xlink:href="#ArialMT-69" x="822.673828"/>
      <use xlink:href="#ArialMT-74" x="844.890625"/>
      <use xlink:href="#ArialMT-69" x="872.673828"/>
      <use xlink:href="#ArialMT-6f" x="894.890625"/>
      <use xlink:href="#ArialMT-6e" x="950.505859"/>
      <use xlink:href="#ArialMT-20" x="1006.121094"/>
      <use xlink:href="#ArialMT-46" x="1033.904297"/>
      <use xlink:href="#ArialMT-75" x="1094.988281"/>
      <use xlink:href="#ArialMT-6e" x="1150.603516"/>
      <use xlink:href="#ArialMT-63" x="1206.21875"/>
      <use xlink:href="#ArialMT-74" x="1256.21875"/>
      <use xlink:href="#ArialMT-69" x="1284.001953"/>
      <use xlink:href="#ArialMT-6f" x="1306.21875"/>
      <use xlink:href="#ArialMT-6e" x="1361.833984"/>
     </g>
    </g>
   </g>
   <g id="line2d_24">
    <path d="M 54.545602 195.007404 
L 57.824941 199.63961 
L 61.10428 204.626217 
L 64.383619 209.978073 
L 67.662958 215.698131 
L 70.942296 221.77681 
L 74.221636 228.184773 
L 77.500973 234.863249 
L 80.780313 241.711391 
L 84.059653 248.570874 
L 87.33899 255.207702 
L 90.61833 261.305764 
L 93.89767 266.481888 
L 97.177007 270.360532 
L 100.456344 272.740921 
L 103.735686 273.797027 
L 107.015024 274.077405 
L 110.294361 274.113386 
L 113.573703 274.115623 
L 116.853041 274.114754 
L 120.132378 274.077097 
L 123.41172 273.336666 
L 126.691057 268.907423 
L 129.970395 258.238916 
L 133.249737 244.105358 
L 136.529069 232.606119 
L 139.808412 229.670226 
L 143.087754 239.187446 
L 146.367086 257.99026 
L 149.646428 271.208061 
L 152.92577 273.894461 
L 156.205103 274.089368 
L 159.484445 274.106497 
L 162.763787 274.110134 
L 166.04312 274.111956 
L 169.322462 274.113348 
L 172.601804 274.114424 
L 175.881137 274.115162 
L 179.160479 274.115608 
L 182.439821 274.115839 
L 185.719153 274.115946 
L 188.998496 274.115985 
L 192.277838 274.116 
L 195.55717 274.116 
L 198.836512 274.116 
L 202.115855 274.116 
L 205.395187 274.116 
L 208.674529 274.116 
L 211.953871 274.116 
L 215.233204 274.116 
L 218.512556 274.116 
L 221.791879 274.116 
L 225.071221 274.116 
L 228.350563 274.116 
L 231.629886 274.116 
L 234.909247 274.116 
L 238.18857 274.116 
L 241.467912 274.116 
L 244.747254 274.116 
L 248.026597 274.116 
L 251.305939 274.116 
L 254.585262 274.116 
L 257.864623 274.116 
L 261.143946 274.116 
L 264.423288 274.116 
L 267.70263 274.115808 
L 270.981953 274.111041 
L 274.261315 274.062582 
L 277.540637 273.800994 
L 280.81998 272.89571 
L 284.099322 270.619666 
L 287.378664 266.09196 
L 290.658006 258.530142 
L 293.937329 247.475642 
L 297.21669 232.902366 
L 300.496013 215.203826 
L 303.775355 195.093889 
L 307.054697 173.478987 
L 310.33402 151.329578 
L 313.613382 129.576993 
L 316.892705 109.038933 
L 320.172047 90.371364 
L 323.451389 74.044121 
L 326.730731 60.336842 
L 330.010073 49.349354 
L 333.289396 41.041537 
L 336.568738 35.312323 
L 339.84808 32.196 
L 343.127423 32.495906 
L 346.406765 40.688551 
L 349.686088 81.789936 
L 352.96543 220.673628 
L 356.244772 274.008686 
L 359.524114 274.116 
L 362.803456 274.116 
L 366.082798 274.116 
L 369.362141 274.116 
L 372.641463 274.116 
L 375.920806 274.116 
L 379.200148 274.116 
" clip-path="url(#p640d5b1e44)" style="fill: none; stroke: #ff7f0e; stroke-width: 1.2; stroke-linecap: round"/>
   </g>
   <g id="line2d_25">
    <path d="M 339.84808 274.116 
L 339.84808 271.672364 
L 339.84808 269.228727 
L 339.84808 266.785091 
L 339.84808 264.341455 
L 339.84808 261.897819 
L 339.84808 259.454182 
L 339.84808 257.010547 
L 339.84808 254.56691 
L 339.84808 252.123273 
L 339.84808 249.679637 
L 339.84808 247.236 
L 339.84808 244.792363 
L 339.84808 242.348728 
L 339.84808 239.905093 
L 339.84808 237.461456 
L 339.84808 235.017819 
L 339.84808 232.574182 
L 339.84808 230.130545 
L 339.84808 227.686912 
L 339.84808 225.243275 
L 339.84808 222.799638 
L 339.84808 220.356001 
L 339.84808 217.912364 
L 339.84808 215.468727 
L 339.84808 213.025094 
L 339.84808 210.581457 
L 339.84808 208.13782 
L 339.84808 205.694186 
L 339.84808 203.250546 
L 339.84808 200.806912 
L 339.84808 198.363271 
L 339.84808 195.919638 
L 339.84808 193.476005 
L 339.84808 191.032364 
L 339.84808 188.588731 
L 339.84808 186.14509 
L 339.84808 183.701457 
L 339.84808 181.257824 
L 339.84808 178.814183 
L 339.84808 176.37055 
L 339.84808 173.926909 
L 339.84808 171.483276 
L 339.84808 169.039643 
L 339.84808 166.596002 
L 339.84808 164.152369 
L 339.84808 161.708728 
L 339.84808 159.265094 
L 339.84808 156.821454 
L 339.84808 154.37782 
L 339.84808 151.93418 
L 339.84808 149.490546 
L 339.84808 147.046906 
L 339.84808 144.603265 
L 339.84808 142.159639 
L 339.84808 139.715998 
L 339.84808 137.272357 
L 339.84808 134.828732 
L 339.84808 132.385091 
L 339.84808 129.94145 
L 339.84808 127.497825 
L 339.84808 125.054168 
L 339.84808 122.610543 
L 339.84808 120.166917 
L 339.84808 117.723261 
L 339.84808 115.279636 
L 339.84808 112.835995 
L 339.84808 110.392354 
L 339.84808 107.948729 
L 339.84808 105.505088 
L 339.84808 103.061447 
L 339.84808 100.617821 
L 339.84808 98.17418 
L 339.84808 95.73054 
L 339.84808 93.286914 
L 339.84808 90.843273 
L 339.84808 88.399632 
L 339.84808 85.956007 
L 339.84808 83.512366 
L 339.84808 81.068725 
L 339.84808 78.625084 
L 339.84808 76.181459 
L 339.84808 73.737818 
L 339.84808 71.294177 
L 339.84808 68.850536 
L 339.84808 66.406911 
L 339.84808 63.96327 
L 339.84808 61.519629 
L 339.84808 59.076003 
L 339.84808 56.632363 
L 339.84808 54.188722 
L 339.84808 51.745096 
L 339.84808 49.301455 
L 339.84808 46.857814 
L 339.84808 44.414189 
L 339.84808 41.970548 
L 339.84808 39.526907 
L 339.84808 37.083266 
L 339.84808 34.639641 
L 339.84808 32.196 
" clip-path="url(#p640d5b1e44)" style="fill: none; stroke: #ff7f0e; stroke-linecap: round"/>
   </g>
   <g id="patch_7">
    <path d="M 38.312875 286.212 
L 38.312875 20.1 
" style="fill: none; stroke: #262626; stroke-linejoin: miter; stroke-linecap: square"/>
   </g>
   <g id="patch_8">
    <path d="M 395.432875 286.212 
L 395.432875 20.1 
" style="fill: none; stroke: #262626; stroke-linejoin: miter; stroke-linecap: square"/>
   </g>
   <g id="patch_9">
    <path d="M 38.312875 286.212 
L 395.432875 286.212 
" style="fill: none; stroke: #262626; stroke-linejoin: miter; stroke-linecap: square"/>
   </g>
   <g id="patch_10">
    <path d="M 38.312875 20.1 
L 395.432875 20.1 
" style="fill: none; stroke: #262626; stroke-linejoin: miter; stroke-linecap: square"/>
   </g>
  </g>
 </g>
 <defs>
  <clipPath id="p640d5b1e44">
   <rect x="38.312875" y="20.1" width="357.12" height="266.112"/>
  </clipPath>
 </defs>
</svg>