<?xml version="1.0" encoding="utf-8" standalone="no"?>
<!DOCTYPE svg PUBLIC "-//W3C//DTD SVG 1.1//EN"
  "http://www.w3.org/Graphics/SVG/1.1/DTD/svg11.dtd">
<svg xmlns:xlink="http://www.w3.org/1999/xlink" width="450.74225pt" height="322.539375pt" viewBox="0 0 450.74225 322.539375" xmlns="http://www.w3.org/2000/svg" version="1.1">
 <metadata>
  <rdf:RDF xmlns:dc="http://purl.org/dc/elements/1.1/" xmlns:cc="http://creativecommons.org/ns#" xmlns:rdf="http://www.w3.org/1999/02/22-rdf-syntax-ns#">
   <cc:Work>
    <dc:type rdf:resource="http://purl.org/dc/dcmitype/StillImage"/>
    <dc:date>2023-10-23T15:18:34.484680</dc:date>
    <dc:format>image/svg+xml</dc:format>
    <dc:creator>
     <cc:Agent>
      <dc:title>Matplotlib v3.8.0, https://matplotlib.org/</dc:title>
     </cc:Agent>
    </dc:creator>
   </cc:Work>
  </rdf:RDF>
 </metadata>
 <defs>
  <style type="text/css">*{stroke-linejoin: round; stroke-linecap: butt}</style>
 </defs>
 <g id="figure_1">
  <g id="patch_1">
   <path d="M 0 322.539375 
L 450.74225 322.539375 
L 450.74225 0 
L 0 0 
z
" style="fill: #ffffff"/>
  </g>
  <g id="axes_1">
   <g id="patch_2">
    <path d="M 43.2065 286.212 
L 400.3265 286.212 
L 400.3265 20.1 
L 43.2065 20.1 
z
" style="fill: #ffffff"/>
   </g>
   <g id="matplotlib.axis_1">
    <g id="xtick_1">
     <g id="line2d_1">
      <defs>
       <path id="m9b1a6528eb" d="M 0 0 
L 0 4.8 
" style="stroke: #262626"/>
      </defs>
      <g>
       <use xlink:href="#m9b1a6528eb" x="59.439227" y="286.212" style="fill: #262626; stroke: #262626"/>
      </g>
     </g>
     <g id="text_1">
      <!-- 0.0 -->
      <g style="fill: #262626" transform="translate(53.323227 300.810875) scale(0.088 -0.088)">
       <defs>
        <path id="ArialMT-30" d="M 266 2259 
Q 266 3072 433 3567 
Q 600 4063 929 4331 
Q 1259 4600 1759 4600 
Q 2128 4600 2406 4451 
Q 2684 4303 2865 4023 
Q 3047 3744 3150 3342 
Q 3253 2941 3253 2259 
Q 3253 1453 3087 958 
Q 2922 463 2592 192 
Q 2263 -78 1759 -78 
Q 1097 -78 719 397 
Q 266 969 266 2259 
z
M 844 2259 
Q 844 1131 1108 757 
Q 1372 384 1759 384 
Q 2147 384 2411 759 
Q 2675 1134 2675 2259 
Q 2675 3391 2411 3762 
Q 2147 4134 1753 4134 
Q 1366 4134 1134 3806 
Q 844 3388 844 2259 
z
" transform="scale(0.015625)"/>
        <path id="ArialMT-2e" d="M 581 0 
L 581 641 
L 1222 641 
L 1222 0 
L 581 0 
z
" transform="scale(0.015625)"/>
       </defs>
       <use xlink:href="#ArialMT-30"/>
       <use xlink:href="#ArialMT-2e" x="55.615234"/>
       <use xlink:href="#ArialMT-30" x="83.398438"/>
      </g>
     </g>
    </g>
    <g id="xtick_2">
     <g id="line2d_2">
      <g>
       <use xlink:href="#m9b1a6528eb" x="124.370136" y="286.212" style="fill: #262626; stroke: #262626"/>
      </g>
     </g>
     <g id="text_2">
      <!-- 0.2 -->
      <g style="fill: #262626" transform="translate(118.254136 300.810875) scale(0.088 -0.088)">
       <defs>
        <path id="ArialMT-32" d="M 3222 541 
L 3222 0 
L 194 0 
Q 188 203 259 391 
Q 375 700 629 1000 
Q 884 1300 1366 1694 
Q 2113 2306 2375 2664 
Q 2638 3022 2638 3341 
Q 2638 3675 2398 3904 
Q 2159 4134 1775 4134 
Q 1369 4134 1125 3890 
Q 881 3647 878 3216 
L 300 3275 
Q 359 3922 746 4261 
Q 1134 4600 1788 4600 
Q 2447 4600 2831 4234 
Q 3216 3869 3216 3328 
Q 3216 3053 3103 2787 
Q 2991 2522 2730 2228 
Q 2469 1934 1863 1422 
Q 1356 997 1212 845 
Q 1069 694 975 541 
L 3222 541 
z
" transform="scale(0.015625)"/>
       </defs>
       <use xlink:href="#ArialMT-30"/>
       <use xlink:href="#ArialMT-2e" x="55.615234"/>
       <use xlink:href="#ArialMT-32" x="83.398438"/>
      </g>
     </g>
    </g>
    <g id="xtick_3">
     <g id="line2d_3">
      <g>
       <use xlink:href="#m9b1a6528eb" x="189.301045" y="286.212" style="fill: #262626; stroke: #262626"/>
      </g>
     </g>
     <g id="text_3">
      <!-- 0.4 -->
      <g style="fill: #262626" transform="translate(183.185045 300.810875) scale(0.088 -0.088)">
       <defs>
        <path id="ArialMT-34" d="M 2069 0 
L 2069 1097 
L 81 1097 
L 81 1613 
L 2172 4581 
L 2631 4581 
L 2631 1613 
L 3250 1613 
L 3250 1097 
L 2631 1097 
L 2631 0 
L 2069 0 
z
M 2069 1613 
L 2069 3678 
L 634 1613 
L 2069 1613 
z
" transform="scale(0.015625)"/>
       </defs>
       <use xlink:href="#ArialMT-30"/>
       <use xlink:href="#ArialMT-2e" x="55.615234"/>
       <use xlink:href="#ArialMT-34" x="83.398438"/>
      </g>
     </g>
    </g>
    <g id="xtick_4">
     <g id="line2d_4">
      <g>
       <use xlink:href="#m9b1a6528eb" x="254.231955" y="286.212" style="fill: #262626; stroke: #262626"/>
      </g>
     </g>
     <g id="text_4">
      <!-- 0.6 -->
      <g style="fill: #262626" transform="translate(248.115955 300.810875) scale(0.088 -0.088)">
       <defs>
        <path id="ArialMT-36" d="M 3184 3459 
L 2625 3416 
Q 2550 3747 2413 3897 
Q 2184 4138 1850 4138 
Q 1581 4138 1378 3988 
Q 1113 3794 959 3422 
Q 806 3050 800 2363 
Q 1003 2672 1297 2822 
Q 1591 2972 1913 2972 
Q 2475 2972 2870 2558 
Q 3266 2144 3266 1488 
Q 3266 1056 3080 686 
Q 2894 316 2569 119 
Q 2244 -78 1831 -78 
Q 1128 -78 684 439 
Q 241 956 241 2144 
Q 241 3472 731 4075 
Q 1159 4600 1884 4600 
Q 2425 4600 2770 4297 
Q 3116 3994 3184 3459 
z
M 888 1484 
Q 888 1194 1011 928 
Q 1134 663 1356 523 
Q 1578 384 1822 384 
Q 2178 384 2434 671 
Q 2691 959 2691 1453 
Q 2691 1928 2437 2201 
Q 2184 2475 1800 2475 
Q 1419 2475 1153 2201 
Q 888 1928 888 1484 
z
" transform="scale(0.015625)"/>
       </defs>
       <use xlink:href="#ArialMT-30"/>
       <use xlink:href="#ArialMT-2e" x="55.615234"/>
       <use xlink:href="#ArialMT-36" x="83.398438"/>
      </g>
     </g>
    </g>
    <g id="xtick_5">
     <g id="line2d_5">
      <g>
       <use xlink:href="#m9b1a6528eb" x="319.162864" y="286.212" style="fill: #262626; stroke: #262626"/>
      </g>
     </g>
     <g id="text_5">
      <!-- 0.8 -->
      <g style="fill: #262626" transform="translate(313.046864 300.810875) scale(0.088 -0.088)">
       <defs>
        <path id="ArialMT-38" d="M 1131 2484 
Q 781 2613 612 2850 
Q 444 3088 444 3419 
Q 444 3919 803 4259 
Q 1163 4600 1759 4600 
Q 2359 4600 2725 4251 
Q 3091 3903 3091 3403 
Q 3091 3084 2923 2848 
Q 2756 2613 2416 2484 
Q 2838 2347 3058 2040 
Q 3278 1734 3278 1309 
Q 3278 722 2862 322 
Q 2447 -78 1769 -78 
Q 1091 -78 675 323 
Q 259 725 259 1325 
Q 259 1772 486 2073 
Q 713 2375 1131 2484 
z
M 1019 3438 
Q 1019 3113 1228 2906 
Q 1438 2700 1772 2700 
Q 2097 2700 2305 2904 
Q 2513 3109 2513 3406 
Q 2513 3716 2298 3927 
Q 2084 4138 1766 4138 
Q 1444 4138 1231 3931 
Q 1019 3725 1019 3438 
z
M 838 1322 
Q 838 1081 952 856 
Q 1066 631 1291 507 
Q 1516 384 1775 384 
Q 2178 384 2440 643 
Q 2703 903 2703 1303 
Q 2703 1709 2433 1975 
Q 2163 2241 1756 2241 
Q 1359 2241 1098 1978 
Q 838 1716 838 1322 
z
" transform="scale(0.015625)"/>
       </defs>
       <use xlink:href="#ArialMT-30"/>
       <use xlink:href="#ArialMT-2e" x="55.615234"/>
       <use xlink:href="#ArialMT-38" x="83.398438"/>
      </g>
     </g>
    </g>
    <g id="xtick_6">
     <g id="line2d_6">
      <g>
       <use xlink:href="#m9b1a6528eb" x="384.093773" y="286.212" style="fill: #262626; stroke: #262626"/>
      </g>
     </g>
     <g id="text_6">
      <!-- 1.0 -->
      <g style="fill: #262626" transform="translate(377.977773 300.810875) scale(0.088 -0.088)">
       <defs>
        <path id="ArialMT-31" d="M 2384 0 
L 1822 0 
L 1822 3584 
Q 1619 3391 1289 3197 
Q 959 3003 697 2906 
L 697 3450 
Q 1169 3672 1522 3987 
Q 1875 4303 2022 4600 
L 2384 4600 
L 2384 0 
z
" transform="scale(0.015625)"/>
       </defs>
       <use xlink:href="#ArialMT-31"/>
       <use xlink:href="#ArialMT-2e" x="55.615234"/>
       <use xlink:href="#ArialMT-30" x="83.398438"/>
      </g>
     </g>
    </g>
    <g id="text_7">
     <!-- $x$ -->
     <g style="fill: #262626" transform="translate(218.8865 313.431375) scale(0.096 -0.096)">
      <defs>
       <path id="DejaVuSans-Oblique-78" d="M 3841 3500 
L 2234 1784 
L 3219 0 
L 2559 0 
L 1819 1388 
L 531 0 
L -166 0 
L 1556 1844 
L 641 3500 
L 1300 3500 
L 1972 2234 
L 3144 3500 
L 3841 3500 
z
" transform="scale(0.015625)"/>
      </defs>
      <use xlink:href="#DejaVuSans-Oblique-78" transform="translate(0 0.3125)"/>
     </g>
    </g>
   </g>
   <g id="matplotlib.axis_2">
    <g id="ytick_1">
     <g id="line2d_7">
      <defs>
       <path id="mbdc3dd1816" d="M 0 0 
L -4.8 0 
" style="stroke: #262626"/>
      </defs>
      <g>
       <use xlink:href="#mbdc3dd1816" x="43.2065" y="285.92916" style="fill: #262626; stroke: #262626"/>
      </g>
     </g>
     <g id="text_8">
      <!-- −12 -->
      <g style="fill: #262626" transform="translate(19.9795 289.078598) scale(0.088 -0.088)">
       <defs>
        <path id="ArialMT-2212" d="M 3381 1997 
L 356 1997 
L 356 2522 
L 3381 2522 
L 3381 1997 
z
" transform="scale(0.015625)"/>
       </defs>
       <use xlink:href="#ArialMT-2212"/>
       <use xlink:href="#ArialMT-31" x="58.398438"/>
       <use xlink:href="#ArialMT-32" x="114.013672"/>
      </g>
     </g>
    </g>
    <g id="ytick_2">
     <g id="line2d_8">
      <g>
       <use xlink:href="#mbdc3dd1816" x="43.2065" y="244.436967" style="fill: #262626; stroke: #262626"/>
      </g>
     </g>
     <g id="text_9">
      <!-- −10 -->
      <g style="fill: #262626" transform="translate(19.9795 247.586404) scale(0.088 -0.088)">
       <use xlink:href="#ArialMT-2212"/>
       <use xlink:href="#ArialMT-31" x="58.398438"/>
       <use xlink:href="#ArialMT-30" x="114.013672"/>
      </g>
     </g>
    </g>
    <g id="ytick_3">
     <g id="line2d_9">
      <g>
       <use xlink:href="#mbdc3dd1816" x="43.2065" y="202.944773" style="fill: #262626; stroke: #262626"/>
      </g>
     </g>
     <g id="text_10">
      <!-- −8 -->
      <g style="fill: #262626" transform="translate(24.873125 206.09421) scale(0.088 -0.088)">
       <use xlink:href="#ArialMT-2212"/>
       <use xlink:href="#ArialMT-38" x="58.398438"/>
      </g>
     </g>
    </g>
    <g id="ytick_4">
     <g id="line2d_10">
      <g>
       <use xlink:href="#mbdc3dd1816" x="43.2065" y="161.452579" style="fill: #262626; stroke: #262626"/>
      </g>
     </g>
     <g id="text_11">
      <!-- −6 -->
      <g style="fill: #262626" transform="translate(24.873125 164.602016) scale(0.088 -0.088)">
       <use xlink:href="#ArialMT-2212"/>
       <use xlink:href="#ArialMT-36" x="58.398438"/>
      </g>
     </g>
    </g>
    <g id="ytick_5">
     <g id="line2d_11">
      <g>
       <use xlink:href="#mbdc3dd1816" x="43.2065" y="119.960385" style="fill: #262626; stroke: #262626"/>
      </g>
     </g>
     <g id="text_12">
      <!-- −4 -->
      <g style="fill: #262626" transform="translate(24.873125 123.109822) scale(0.088 -0.088)">
       <use xlink:href="#ArialMT-2212"/>
       <use xlink:href="#ArialMT-34" x="58.398438"/>
      </g>
     </g>
    </g>
    <g id="ytick_6">
     <g id="line2d_12">
      <g>
       <use xlink:href="#mbdc3dd1816" x="43.2065" y="78.468191" style="fill: #262626; stroke: #262626"/>
      </g>
     </g>
     <g id="text_13">
      <!-- −2 -->
      <g style="fill: #262626" transform="translate(24.873125 81.617629) scale(0.088 -0.088)">
       <use xlink:href="#ArialMT-2212"/>
       <use xlink:href="#ArialMT-32" x="58.398438"/>
      </g>
     </g>
    </g>
    <g id="ytick_7">
     <g id="line2d_13">
      <g>
       <use xlink:href="#mbdc3dd1816" x="43.2065" y="36.975997" style="fill: #262626; stroke: #262626"/>
      </g>
     </g>
     <g id="text_14">
      <!-- 0 -->
      <g style="fill: #262626" transform="translate(30.012875 40.125435) scale(0.088 -0.088)">
       <use xlink:href="#ArialMT-30"/>
      </g>
     </g>
    </g>
    <g id="text_15">
     <!-- $y$ -->
     <g style="fill: #262626" transform="translate(13.9635 156.036) rotate(-90) scale(0.096 -0.096)">
      <defs>
       <path id="DejaVuSans-Oblique-79" d="M 1588 -325 
Q 1188 -997 936 -1164 
Q 684 -1331 294 -1331 
L -159 -1331 
L -63 -850 
L 269 -850 
Q 509 -850 678 -719 
Q 847 -588 1056 -206 
L 1234 128 
L 459 3500 
L 1069 3500 
L 1650 819 
L 3256 3500 
L 3859 3500 
L 1588 -325 
z
" transform="scale(0.015625)"/>
      </defs>
      <use xlink:href="#DejaVuSans-Oblique-79" transform="translate(0 0.3125)"/>
     </g>
    </g>
   </g>
   <g id="PolyCollection_1">
    <defs>
     <path id="m169727574a" d="M 59.439227 -207.624937 
L 59.439227 -199.347216 
L 62.718566 -201.362231 
L 65.997905 -202.951834 
L 69.277244 -204.904432 
L 72.556583 -207.456364 
L 75.835921 -210.642464 
L 79.115261 -214.427521 
L 82.394598 -218.742026 
L 85.673938 -223.49781 
L 88.953278 -228.595539 
L 92.232615 -233.926593 
L 95.511955 -239.380116 
L 98.791295 -244.844442 
L 102.070632 -250.211695 
L 105.349969 -255.3811 
L 108.629311 -260.260212 
L 111.908649 -264.768424 
L 115.187986 -268.840053 
L 118.467328 -272.424162 
L 121.746666 -275.492149 
L 125.026003 -278.034107 
L 128.305345 -280.061437 
L 131.584682 -281.601295 
L 134.86402 -282.687733 
L 138.143362 -283.350224 
L 141.422694 -283.612263 
L 144.702037 -283.480573 
L 147.981379 -282.950238 
L 151.260711 -282.003719 
L 154.540053 -280.622227 
L 157.819395 -278.795855 
L 161.098728 -276.530052 
L 164.37807 -273.837806 
L 167.657412 -270.73914 
L 170.936745 -267.256859 
L 174.216087 -263.41895 
L 177.495429 -259.257136 
L 180.774762 -254.808712 
L 184.054104 -250.115146 
L 187.333446 -245.220699 
L 190.612778 -240.172872 
L 193.892121 -235.019488 
L 197.171463 -229.807609 
L 200.450795 -224.582094 
L 203.730137 -219.38354 
L 207.00948 -214.24682 
L 210.288812 -209.200017 
L 213.568154 -204.263343 
L 216.847496 -199.447961 
L 220.126829 -194.755766 
L 223.406181 -190.178729 
L 226.685504 -185.698055 
L 229.964846 -181.281307 
L 233.244188 -176.873353 
L 236.523511 -172.362793 
L 239.802872 -167.436314 
L 243.082195 -161.021703 
L 246.361537 -151.803695 
L 249.640879 -140.983435 
L 252.920222 -129.707587 
L 256.199564 -118.412151 
L 259.478887 -107.346191 
L 262.758248 -96.712653 
L 266.037571 -86.702561 
L 269.316913 -77.500983 
L 272.596255 -69.28834 
L 275.875578 -62.237751 
L 279.15494 -56.512441 
L 282.434262 -52.260363 
L 285.713605 -49.610991 
L 288.992947 -48.671637 
L 292.272289 -49.521859 
L 295.551631 -52.209793 
L 298.830954 -56.75089 
L 302.110315 -63.122181 
L 305.389638 -71.262173 
L 308.66898 -81.069528 
L 311.948322 -92.40405 
L 315.227645 -105.085218 
L 318.507007 -118.899396 
L 321.78633 -133.598924 
L 325.065672 -148.90876 
L 328.345014 -164.532951 
L 331.624356 -180.156558 
L 334.903698 -195.455522 
L 338.183021 -210.096244 
L 341.462363 -223.739603 
L 344.741705 -236.040365 
L 348.021048 -246.666098 
L 351.30039 -255.390886 
L 354.579713 -262.163974 
L 357.859055 -267.018748 
L 361.138397 -269.978378 
L 364.417739 -271.062699 
L 367.697081 -270.287473 
L 370.976423 -267.701652 
L 374.255766 -263.357186 
L 377.535088 -257.297591 
L 380.814431 -249.530539 
L 384.093773 -240.048128 
L 384.093773 -248.193798 
L 384.093773 -248.193798 
L 380.814431 -256.783341 
L 377.535088 -264.473929 
L 374.255766 -270.831729 
L 370.976423 -275.500368 
L 367.697081 -278.251438 
L 364.417739 -278.956764 
L 361.138397 -277.574131 
L 357.859055 -274.142408 
L 354.579713 -268.792227 
L 351.30039 -261.768667 
L 348.021048 -253.413126 
L 344.741705 -244.05219 
L 341.462363 -233.910726 
L 338.183021 -223.169443 
L 334.903698 -212.021262 
L 331.624356 -200.691489 
L 328.345014 -189.417916 
L 325.065672 -178.429514 
L 321.78633 -167.948231 
L 318.507007 -158.165617 
L 315.227645 -149.248865 
L 311.948322 -141.331147 
L 308.66898 -134.508382 
L 305.389638 -128.844168 
L 302.110315 -124.36482 
L 298.830954 -121.065975 
L 295.551631 -118.911188 
L 292.272289 -117.841392 
L 288.992947 -117.772639 
L 285.713605 -118.608161 
L 282.434262 -120.239317 
L 279.15494 -122.550949 
L 275.875578 -125.427938 
L 272.596255 -128.759261 
L 269.316913 -132.440422 
L 266.037571 -136.379174 
L 262.758248 -140.497406 
L 259.478887 -144.734932 
L 256.199564 -149.053715 
L 252.920222 -153.449314 
L 249.640879 -157.984782 
L 246.361537 -162.934173 
L 243.082195 -169.30585 
L 239.802872 -178.185911 
L 236.523511 -188.166256 
L 233.244188 -198.101848 
L 229.964846 -207.62552 
L 226.685504 -216.587971 
L 223.406181 -224.910426 
L 220.126829 -232.548829 
L 216.847496 -239.482192 
L 213.568154 -245.708419 
L 210.288812 -251.241065 
L 207.00948 -256.107369 
L 203.730137 -260.346574 
L 200.450795 -264.007416 
L 197.171463 -267.145938 
L 193.892121 -269.823546 
L 190.612778 -272.104528 
L 187.333446 -274.053305 
L 184.054104 -275.732292 
L 180.774762 -277.200061 
L 177.495429 -278.507995 
L 174.216087 -279.700029 
L 170.936745 -280.811114 
L 167.657412 -281.865127 
L 164.37807 -282.87676 
L 161.098728 -283.850465 
L 157.819395 -284.781882 
L 154.540053 -285.655305 
L 151.260711 -286.44319 
L 147.981379 -287.09908 
L 144.702037 -287.565574 
L 141.422694 -287.785696 
L 138.143362 -287.715707 
L 134.86402 -287.326264 
L 131.584682 -286.608644 
L 128.305345 -285.566854 
L 125.026003 -284.217098 
L 121.746666 -282.578829 
L 118.467328 -280.667247 
L 115.187986 -278.489162 
L 111.908649 -276.046365 
L 108.629311 -273.33311 
L 105.349969 -270.343922 
L 102.070632 -267.072642 
L 98.791295 -263.515674 
L 95.511955 -259.67372 
L 92.232615 -255.551551 
L 88.953278 -251.15984 
L 85.673938 -246.516296 
L 82.394598 -241.645768 
L 79.115261 -236.583251 
L 75.835921 -231.37396 
L 72.556583 -226.076857 
L 69.277244 -220.777973 
L 65.997905 -215.623536 
L 62.718566 -210.948306 
L 59.439227 -207.624937 
z
" style="stroke: #1f77b4; stroke-opacity: 0.5; stroke-width: 0.8"/>
    </defs>
    <g clip-path="url(#pa35bb67c4f)">
     <use xlink:href="#m169727574a" x="0" y="322.539375" style="fill: #1f77b4; fill-opacity: 0.5; stroke: #1f77b4; stroke-opacity: 0.5; stroke-width: 0.8"/>
    </g>
   </g>
   <g id="PolyCollection_2">
    <defs>
     <path id="mb8a6c1bf9c" d="M 59.439227 -199.347216 
L 59.439227 -197.625514 
L 62.718566 -199.815765 
L 65.997905 -201.714108 
L 69.277244 -203.885291 
L 72.556583 -206.573635 
L 75.835921 -209.842872 
L 79.115261 -213.675967 
L 82.394598 -218.013531 
L 85.673938 -222.772729 
L 88.953278 -227.856757 
L 92.232615 -233.157807 
L 95.511955 -238.564548 
L 98.791295 -243.96391 
L 102.070632 -249.245951 
L 105.349969 -254.30754 
L 108.629311 -259.054493 
L 111.908649 -263.406394 
L 115.187986 -267.301248 
L 118.467328 -270.69736 
L 121.746666 -273.579181 
L 125.026003 -275.951305 
L 128.305345 -277.834846 
L 131.584682 -279.258899 
L 134.86402 -280.253577 
L 138.143362 -280.844642 
L 141.422694 -281.054584 
L 144.702037 -280.898375 
L 147.981379 -280.385775 
L 151.260711 -279.517793 
L 154.540053 -278.286035 
L 157.819395 -276.672801 
L 161.098728 -274.657346 
L 164.37807 -272.222 
L 167.657412 -269.362183 
L 170.936745 -266.087573 
L 174.216087 -262.42251 
L 177.495429 -258.40092 
L 180.774762 -254.064573 
L 184.054104 -249.459857 
L 187.333446 -244.635473 
L 190.612778 -239.64253 
L 193.892121 -234.531673 
L 197.171463 -229.352084 
L 200.450795 -224.150152 
L 203.730137 -218.967486 
L 207.00948 -213.839515 
L 210.288812 -208.794429 
L 213.568154 -203.852032 
L 216.847496 -199.022445 
L 220.126829 -194.305597 
L 223.406181 -189.68992 
L 226.685504 -185.150425 
L 229.964846 -180.64325 
L 233.244188 -176.091181 
L 236.523511 -171.339651 
L 239.802872 -166.021081 
L 243.082195 -159.300941 
L 246.361537 -150.427181 
L 249.640879 -140.024851 
L 252.920222 -129.003339 
L 256.199564 -117.860247 
L 259.478887 -106.891274 
L 262.758248 -96.322928 
L 266.037571 -86.3584 
L 269.316913 -77.189389 
L 272.596255 -69.000251 
L 275.875578 -61.966458 
L 279.15494 -56.252782 
L 282.434262 -52.008045 
L 285.713605 -49.362372 
L 288.992947 -48.423375 
L 292.272289 -49.270787 
L 295.551631 -51.952666 
L 298.830954 -56.484306 
L 302.110315 -62.842341 
L 305.389638 -70.964745 
L 308.66898 -80.749288 
L 311.948322 -92.054666 
L 315.227645 -104.698777 
L 318.507007 -118.465748 
L 321.78633 -133.104823 
L 325.065672 -148.336657 
L 328.345014 -163.85935 
L 331.624356 -179.349873 
L 334.903698 -194.474383 
L 338.183021 -208.890545 
L 341.462363 -222.261707 
L 344.741705 -234.278836 
L 348.021048 -244.69203 
L 351.30039 -253.346705 
L 354.579713 -260.167784 
L 357.859055 -265.112246 
L 361.138397 -268.151319 
L 364.417739 -269.283032 
L 367.697081 -268.518611 
L 370.976423 -265.907065 
L 374.255766 -261.510264 
L 377.535088 -255.400235 
L 380.814431 -247.646332 
L 384.093773 -238.306838 
L 384.093773 -240.048128 
L 384.093773 -240.048128 
L 380.814431 -249.530539 
L 377.535088 -257.297591 
L 374.255766 -263.357186 
L 370.976423 -267.701652 
L 367.697081 -270.287473 
L 364.417739 -271.062699 
L 361.138397 -269.978378 
L 357.859055 -267.018748 
L 354.579713 -262.163974 
L 351.30039 -255.390886 
L 348.021048 -246.666098 
L 344.741705 -236.040365 
L 341.462363 -223.739603 
L 338.183021 -210.096244 
L 334.903698 -195.455522 
L 331.624356 -180.156558 
L 328.345014 -164.532951 
L 325.065672 -148.90876 
L 321.78633 -133.598924 
L 318.507007 -118.899396 
L 315.227645 -105.085218 
L 311.948322 -92.40405 
L 308.66898 -81.069528 
L 305.389638 -71.262173 
L 302.110315 -63.122181 
L 298.830954 -56.75089 
L 295.551631 -52.209793 
L 292.272289 -49.521859 
L 288.992947 -48.671637 
L 285.713605 -49.610991 
L 282.434262 -52.260363 
L 279.15494 -56.512441 
L 275.875578 -62.237751 
L 272.596255 -69.28834 
L 269.316913 -77.500983 
L 266.037571 -86.702561 
L 262.758248 -96.712653 
L 259.478887 -107.346191 
L 256.199564 -118.412151 
L 252.920222 -129.707587 
L 249.640879 -140.983435 
L 246.361537 -151.803695 
L 243.082195 -161.021703 
L 239.802872 -167.436314 
L 236.523511 -172.362793 
L 233.244188 -176.873353 
L 229.964846 -181.281307 
L 226.685504 -185.698055 
L 223.406181 -190.178729 
L 220.126829 -194.755766 
L 216.847496 -199.447961 
L 213.568154 -204.263343 
L 210.288812 -209.200017 
L 207.00948 -214.24682 
L 203.730137 -219.38354 
L 200.450795 -224.582094 
L 197.171463 -229.807609 
L 193.892121 -235.019488 
L 190.612778 -240.172872 
L 187.333446 -245.220699 
L 184.054104 -250.115146 
L 180.774762 -254.808712 
L 177.495429 -259.257136 
L 174.216087 -263.41895 
L 170.936745 -267.256859 
L 167.657412 -270.73914 
L 164.37807 -273.837806 
L 161.098728 -276.530052 
L 157.819395 -278.795855 
L 154.540053 -280.622227 
L 151.260711 -282.003719 
L 147.981379 -282.950238 
L 144.702037 -283.480573 
L 141.422694 -283.612263 
L 138.143362 -283.350224 
L 134.86402 -282.687733 
L 131.584682 -281.601295 
L 128.305345 -280.061437 
L 125.026003 -278.034107 
L 121.746666 -275.492149 
L 118.467328 -272.424162 
L 115.187986 -268.840053 
L 111.908649 -264.768424 
L 108.629311 -260.260212 
L 105.349969 -255.3811 
L 102.070632 -250.211695 
L 98.791295 -244.844442 
L 95.511955 -239.380116 
L 92.232615 -233.926593 
L 88.953278 -228.595539 
L 85.673938 -223.49781 
L 82.394598 -218.742026 
L 79.115261 -214.427521 
L 75.835921 -210.642464 
L 72.556583 -207.456364 
L 69.277244 -204.904432 
L 65.997905 -202.951834 
L 62.718566 -201.362231 
L 59.439227 -199.347216 
z
" style="stroke: #ff7f0e; stroke-opacity: 0.5; stroke-width: 0.8"/>
    </defs>
    <g clip-path="url(#pa35bb67c4f)">
     <use xlink:href="#mb8a6c1bf9c" x="0" y="322.539375" style="fill: #ff7f0e; fill-opacity: 0.5; stroke: #ff7f0e; stroke-opacity: 0.5; stroke-width: 0.8"/>
    </g>
   </g>
   <g id="PolyCollection_3">
    <defs>
     <path id="mcbb19f9864" d="M 59.439227 -209.346634 
L 59.439227 -207.624937 
L 62.718566 -210.948306 
L 65.997905 -215.623536 
L 69.277244 -220.777973 
L 72.556583 -226.076857 
L 75.835921 -231.37396 
L 79.115261 -236.583251 
L 82.394598 -241.645768 
L 85.673938 -246.516296 
L 88.953278 -251.15984 
L 92.232615 -255.551551 
L 95.511955 -259.67372 
L 98.791295 -263.515674 
L 102.070632 -267.072642 
L 105.349969 -270.343922 
L 108.629311 -273.33311 
L 111.908649 -276.046365 
L 115.187986 -278.489162 
L 118.467328 -280.667247 
L 121.746666 -282.578829 
L 125.026003 -284.217098 
L 128.305345 -285.566854 
L 131.584682 -286.608644 
L 134.86402 -287.326264 
L 138.143362 -287.715707 
L 141.422694 -287.785696 
L 144.702037 -287.565574 
L 147.981379 -287.09908 
L 151.260711 -286.44319 
L 154.540053 -285.655305 
L 157.819395 -284.781882 
L 161.098728 -283.850465 
L 164.37807 -282.87676 
L 167.657412 -281.865127 
L 170.936745 -280.811114 
L 174.216087 -279.700029 
L 177.495429 -278.507995 
L 180.774762 -277.200061 
L 184.054104 -275.732292 
L 187.333446 -274.053305 
L 190.612778 -272.104528 
L 193.892121 -269.823546 
L 197.171463 -267.145938 
L 200.450795 -264.007416 
L 203.730137 -260.346574 
L 207.00948 -256.107369 
L 210.288812 -251.241065 
L 213.568154 -245.708419 
L 216.847496 -239.482192 
L 220.126829 -232.548829 
L 223.406181 -224.910426 
L 226.685504 -216.587971 
L 229.964846 -207.62552 
L 233.244188 -198.101848 
L 236.523511 -188.166256 
L 239.802872 -178.185911 
L 243.082195 -169.30585 
L 246.361537 -162.934173 
L 249.640879 -157.984782 
L 252.920222 -153.449314 
L 256.199564 -149.053715 
L 259.478887 -144.734932 
L 262.758248 -140.497406 
L 266.037571 -136.379174 
L 269.316913 -132.440422 
L 272.596255 -128.759261 
L 275.875578 -125.427938 
L 279.15494 -122.550949 
L 282.434262 -120.239317 
L 285.713605 -118.608161 
L 288.992947 -117.772639 
L 292.272289 -117.841392 
L 295.551631 -118.911188 
L 298.830954 -121.065975 
L 302.110315 -124.36482 
L 305.389638 -128.844168 
L 308.66898 -134.508382 
L 311.948322 -141.331147 
L 315.227645 -149.248865 
L 318.507007 -158.165617 
L 321.78633 -167.948231 
L 325.065672 -178.429514 
L 328.345014 -189.417916 
L 331.624356 -200.691489 
L 334.903698 -212.021262 
L 338.183021 -223.169443 
L 341.462363 -233.910726 
L 344.741705 -244.05219 
L 348.021048 -253.413126 
L 351.30039 -261.768667 
L 354.579713 -268.792227 
L 357.859055 -274.142408 
L 361.138397 -277.574131 
L 364.417739 -278.956764 
L 367.697081 -278.251438 
L 370.976423 -275.500368 
L 374.255766 -270.831729 
L 377.535088 -264.473929 
L 380.814431 -256.783341 
L 384.093773 -248.193798 
L 384.093773 -249.935085 
L 384.093773 -249.935085 
L 380.814431 -258.667548 
L 377.535088 -266.371285 
L 374.255766 -272.678651 
L 370.976423 -277.294956 
L 367.697081 -280.0203 
L 364.417739 -280.736432 
L 361.138397 -279.401189 
L 357.859055 -276.048911 
L 354.579713 -270.788417 
L 351.30039 -263.812847 
L 348.021048 -255.387194 
L 344.741705 -245.81372 
L 341.462363 -235.388622 
L 338.183021 -224.375142 
L 334.903698 -213.002406 
L 331.624356 -201.498174 
L 328.345014 -190.091517 
L 325.065672 -179.001617 
L 321.78633 -168.442332 
L 318.507007 -158.599265 
L 315.227645 -149.635316 
L 311.948322 -141.680521 
L 308.66898 -134.828622 
L 305.389638 -129.141616 
L 302.110315 -124.644649 
L 298.830954 -121.332548 
L 295.551631 -119.168314 
L 292.272289 -118.092464 
L 288.992947 -118.020902 
L 285.713605 -118.856779 
L 282.434262 -120.491635 
L 279.15494 -122.810628 
L 275.875578 -125.699231 
L 272.596255 -129.047351 
L 269.316913 -132.752016 
L 266.037571 -136.723355 
L 262.758248 -140.887142 
L 259.478887 -145.189859 
L 256.199564 -149.605628 
L 252.920222 -154.153561 
L 249.640879 -158.943366 
L 246.361537 -164.310686 
L 243.082195 -171.026612 
L 239.802872 -179.601143 
L 236.523511 -189.189399 
L 233.244188 -198.884019 
L 229.964846 -208.263568 
L 226.685504 -217.135601 
L 223.406181 -225.399235 
L 220.126829 -232.999002 
L 216.847496 -239.907704 
L 213.568154 -246.11973 
L 210.288812 -251.646655 
L 207.00948 -256.514678 
L 203.730137 -260.76263 
L 200.450795 -264.43936 
L 197.171463 -267.601462 
L 193.892121 -270.311365 
L 190.612778 -272.634872 
L 187.333446 -274.63853 
L 184.054104 -276.38758 
L 180.774762 -277.9442 
L 177.495429 -279.364212 
L 174.216087 -280.696469 
L 170.936745 -281.980399 
L 167.657412 -283.242084 
L 164.37807 -284.492566 
L 161.098728 -285.723172 
L 157.819395 -286.904936 
L 154.540053 -287.991496 
L 151.260711 -288.929116 
L 147.981379 -289.663543 
L 144.702037 -290.147771 
L 141.422694 -290.343375 
L 138.143362 -290.22129 
L 134.86402 -289.76042 
L 131.584682 -288.951041 
L 128.305345 -287.793445 
L 125.026003 -286.299902 
L 121.746666 -284.491796 
L 118.467328 -282.394049 
L 115.187986 -280.027968 
L 111.908649 -277.408395 
L 108.629311 -274.53883 
L 105.349969 -271.417482 
L 102.070632 -268.038386 
L 98.791295 -264.396209 
L 95.511955 -260.489291 
L 92.232615 -256.320337 
L 88.953278 -251.898625 
L 85.673938 -247.241377 
L 82.394598 -242.374262 
L 79.115261 -237.334805 
L 75.835921 -232.173551 
L 72.556583 -226.959585 
L 69.277244 -221.797115 
L 65.997905 -216.861262 
L 62.718566 -212.494767 
L 59.439227 -209.346634 
z
" style="stroke: #ff7f0e; stroke-opacity: 0.5; stroke-width: 0.8"/>
    </defs>
    <g clip-path="url(#pa35bb67c4f)">
     <use xlink:href="#mcbb19f9864" x="0" y="322.539375" style="fill: #ff7f0e; fill-opacity: 0.5; stroke: #ff7f0e; stroke-opacity: 0.5; stroke-width: 0.8"/>
    </g>
   </g>
   <g id="line2d_14">
    <defs>
     <path id="m180454fb2d" d="M -5 5 
L 5 -5 
M -5 -5 
L 5 5 
" style="stroke: #000000; stroke-width: 2"/>
    </defs>
    <g clip-path="url(#pa35bb67c4f)">
     <use xlink:href="#m180454fb2d" x="361.243318" y="41.922722" style="stroke: #000000; stroke-width: 2"/>
     <use xlink:href="#m180454fb2d" x="162.151989" y="42.777659" style="stroke: #000000; stroke-width: 2"/>
     <use xlink:href="#m180454fb2d" x="119.149308" y="45.068182" style="stroke: #000000; stroke-width: 2"/>
     <use xlink:href="#m180454fb2d" x="243.082195" y="157.51443" style="stroke: #000000; stroke-width: 2"/>
     <use xlink:href="#m180454fb2d" x="147.981379" y="37.416125" style="stroke: #000000; stroke-width: 2"/>
     <use xlink:href="#m180454fb2d" x="384.093773" y="81.511696" style="stroke: #000000; stroke-width: 2"/>
     <use xlink:href="#m180454fb2d" x="344.741705" y="86.753465" style="stroke: #000000; stroke-width: 2"/>
     <use xlink:href="#m180454fb2d" x="59.439227" y="119.355013" style="stroke: #000000; stroke-width: 2"/>
     <use xlink:href="#m180454fb2d" x="141.422694" y="36.99691" style="stroke: #000000; stroke-width: 2"/>
     <use xlink:href="#m180454fb2d" x="141.422694" y="36.99691" style="stroke: #000000; stroke-width: 2"/>
     <use xlink:href="#m180454fb2d" x="141.422694" y="36.99691" style="stroke: #000000; stroke-width: 2"/>
    </g>
   </g>
   <g id="line2d_15">
    <path d="M 59.439227 119.053301 
L 62.718566 116.384109 
L 65.997905 113.25169 
L 69.277244 109.698172 
L 72.556583 105.772765 
L 75.835921 101.531163 
L 79.115261 97.033989 
L 82.394598 92.345478 
L 85.673938 87.532322 
L 88.953278 82.661685 
L 92.232615 77.800303 
L 95.511955 73.012457 
L 98.791295 68.359317 
L 102.070632 63.897206 
L 105.349969 59.676864 
L 108.629311 55.742714 
L 111.908649 52.13198 
L 115.187986 48.874767 
L 118.467328 45.99367 
L 121.746666 43.503886 
L 125.026003 41.413772 
L 128.305345 39.725229 
L 131.584682 38.434405 
L 134.86402 37.532377 
L 138.143362 37.006409 
L 141.422694 36.840396 
L 144.702037 37.016302 
L 147.981379 37.514716 
L 151.260711 38.31592 
L 154.540053 39.400609 
L 157.819395 40.750507 
L 161.098728 42.349116 
L 164.37807 44.182092 
L 167.657412 46.237241 
L 170.936745 48.505388 
L 174.216087 50.979886 
L 177.495429 53.656809 
L 180.774762 56.534988 
L 184.054104 59.615656 
L 187.333446 62.902374 
L 190.612778 66.400674 
L 193.892121 70.117857 
L 197.171463 74.062601 
L 200.450795 78.24462 
L 203.730137 82.674318 
L 207.00948 87.36228 
L 210.288812 92.318833 
L 213.568154 97.553494 
L 216.847496 103.074301 
L 220.126829 108.887075 
L 223.406181 114.9948 
L 226.685504 121.396362 
L 229.964846 128.085964 
L 233.244188 135.051775 
L 236.523511 142.27485 
L 239.802872 149.728263 
L 243.082195 157.375598 
L 246.361537 165.170441 
L 249.640879 173.055266 
L 252.920222 180.960925 
L 256.199564 188.806437 
L 259.478887 196.498813 
L 262.758248 203.93434 
L 266.037571 210.998502 
L 269.316913 217.568672 
L 272.596255 223.515574 
L 275.875578 228.70653 
L 279.15494 233.007675 
L 282.434262 236.289535 
L 285.713605 238.429799 
L 288.992947 239.317237 
L 292.272289 238.857749 
L 295.551631 236.978885 
L 298.830954 233.630943 
L 302.110315 228.79588 
L 305.389638 222.486199 
L 308.66898 214.750415 
L 311.948322 205.671782 
L 315.227645 195.372333 
L 318.507007 184.006868 
L 321.78633 171.765797 
L 325.065672 158.870238 
L 328.345014 145.563942 
L 331.624356 132.115351 
L 334.903698 118.800983 
L 338.183021 105.906531 
L 341.462363 93.714211 
L 344.741705 82.493097 
L 348.021048 72.499763 
L 351.30039 63.959599 
L 354.579713 57.061274 
L 357.859055 51.958797 
L 361.138397 48.763121 
L 364.417739 47.529643 
L 367.697081 48.26992 
L 370.976423 50.938365 
L 374.255766 55.444917 
L 377.535088 61.653615 
L 380.814431 69.382435 
L 384.093773 78.418412 
" clip-path="url(#pa35bb67c4f)" style="fill: none; stroke: #1f77b4; stroke-width: 2; stroke-linecap: round"/>
   </g>
   <g id="line2d_16">
    <path d="M 59.439227 119.355013 
L 62.718566 114.292244 
L 65.997905 109.248261 
L 69.277244 104.24177 
L 72.556583 99.29141 
L 75.835921 94.415609 
L 79.115261 89.63262 
L 82.394598 84.960373 
L 85.673938 80.416442 
L 88.953278 76.018014 
L 92.232615 71.781779 
L 95.511955 67.723906 
L 98.791295 63.859976 
L 102.070632 60.204931 
L 105.349969 56.773007 
L 108.629311 53.577726 
L 111.908649 50.631806 
L 115.187986 47.947137 
L 118.467328 45.534725 
L 121.746666 43.404679 
L 125.026003 41.566166 
L 128.305345 40.027357 
L 131.584682 38.795423 
L 134.86402 37.876502 
L 138.143362 37.275666 
L 141.422694 36.99691 
L 144.702037 37.043138 
L 147.981379 37.416125 
L 151.260711 38.116529 
L 154.540053 39.143881 
L 157.819395 40.496558 
L 161.098728 42.171781 
L 164.37807 44.165651 
L 167.657412 46.473079 
L 170.936745 49.087857 
L 174.216087 52.002616 
L 177.495429 55.208843 
L 180.774762 58.696887 
L 184.054104 62.455952 
L 187.333446 66.474156 
L 190.612778 70.738431 
L 193.892121 75.234656 
L 197.171463 79.947547 
L 200.450795 84.86078 
L 203.730137 89.956887 
L 207.00948 95.217294 
L 210.288812 100.622348 
L 213.568154 106.151321 
L 216.847496 111.782336 
L 220.126829 117.492456 
L 223.406181 123.257628 
L 226.685504 129.05263 
L 229.964846 134.851194 
L 233.244188 140.625888 
L 236.523511 146.347992 
L 239.802872 151.98788 
L 243.082195 157.51443 
L 246.361537 162.895579 
L 249.640879 168.097912 
L 252.920222 173.086843 
L 256.199564 177.826632 
L 259.478887 182.280249 
L 262.758248 186.409611 
L 266.037571 190.175452 
L 269.316913 193.53753 
L 272.596255 196.454653 
L 275.875578 198.884936 
L 279.15494 200.785881 
L 282.434262 202.114752 
L 285.713605 202.828882 
L 288.992947 202.88613 
L 292.272289 202.245432 
L 295.551631 200.867543 
L 298.830954 198.715853 
L 302.110315 195.75733 
L 305.389638 191.964146 
L 308.66898 187.314567 
L 311.948322 181.795239 
L 315.227645 175.403115 
L 318.507007 168.147553 
L 321.78633 160.053491 
L 325.065672 151.164111 
L 328.345014 141.544358 
L 331.624356 131.284618 
L 334.903698 120.504414 
L 338.183021 109.356302 
L 341.462363 98.02962 
L 344.741705 86.753465 
L 348.021048 75.799177 
L 351.30039 65.481279 
L 354.579713 56.155823 
L 357.859055 48.216005 
L 361.138397 42.084183 
L 364.417739 38.197425 
L 367.697081 36.987497 
L 370.976423 38.852468 
L 374.255766 44.119566 
L 377.535088 52.998895 
L 380.814431 65.528254 
L 384.093773 81.511696 
" clip-path="url(#pa35bb67c4f)" style="fill: none; stroke-dasharray: 7.68,1.92,1.2,1.92; stroke-dashoffset: 0; stroke: #bf00bf; stroke-width: 1.2"/>
   </g>
   <g id="patch_3">
    <path d="M 43.2065 285.92916 
L 43.2065 36.975997 
" style="fill: none; stroke: #262626; stroke-linejoin: miter; stroke-linecap: square"/>
   </g>
   <g id="patch_4">
    <path d="M 59.439227 286.212 
L 384.093773 286.212 
" style="fill: none; stroke: #262626; stroke-linejoin: miter; stroke-linecap: square"/>
   </g>
   <g id="text_16">
    <!-- N=7, psi=0.10 -->
    <g style="fill: #262626" transform="translate(191.87975 14.1) scale(0.096 -0.096)">
     <defs>
      <path id="ArialMT-4e" d="M 488 0 
L 488 4581 
L 1109 4581 
L 3516 984 
L 3516 4581 
L 4097 4581 
L 4097 0 
L 3475 0 
L 1069 3600 
L 1069 0 
L 488 0 
z
" transform="scale(0.015625)"/>
      <path id="ArialMT-3d" d="M 3381 2694 
L 356 2694 
L 356 3219 
L 3381 3219 
L 3381 2694 
z
M 3381 1303 
L 356 1303 
L 356 1828 
L 3381 1828 
L 3381 1303 
z
" transform="scale(0.015625)"/>
      <path id="ArialMT-37" d="M 303 3981 
L 303 4522 
L 3269 4522 
L 3269 4084 
Q 2831 3619 2401 2847 
Q 1972 2075 1738 1259 
Q 1569 684 1522 0 
L 944 0 
Q 953 541 1156 1306 
Q 1359 2072 1739 2783 
Q 2119 3494 2547 3981 
L 303 3981 
z
" transform="scale(0.015625)"/>
      <path id="ArialMT-2c" d="M 569 0 
L 569 641 
L 1209 641 
L 1209 0 
Q 1209 -353 1084 -570 
Q 959 -788 688 -906 
L 531 -666 
Q 709 -588 793 -436 
Q 878 -284 888 0 
L 569 0 
z
" transform="scale(0.015625)"/>
      <path id="ArialMT-20" transform="scale(0.015625)"/>
      <path id="ArialMT-70" d="M 422 -1272 
L 422 3319 
L 934 3319 
L 934 2888 
Q 1116 3141 1344 3267 
Q 1572 3394 1897 3394 
Q 2322 3394 2647 3175 
Q 2972 2956 3137 2557 
Q 3303 2159 3303 1684 
Q 3303 1175 3120 767 
Q 2938 359 2589 142 
Q 2241 -75 1856 -75 
Q 1575 -75 1351 44 
Q 1128 163 984 344 
L 984 -1272 
L 422 -1272 
z
M 931 1641 
Q 931 1000 1190 694 
Q 1450 388 1819 388 
Q 2194 388 2461 705 
Q 2728 1022 2728 1688 
Q 2728 2322 2467 2637 
Q 2206 2953 1844 2953 
Q 1484 2953 1207 2617 
Q 931 2281 931 1641 
z
" transform="scale(0.015625)"/>
      <path id="ArialMT-73" d="M 197 991 
L 753 1078 
Q 800 744 1014 566 
Q 1228 388 1613 388 
Q 2000 388 2187 545 
Q 2375 703 2375 916 
Q 2375 1106 2209 1216 
Q 2094 1291 1634 1406 
Q 1016 1563 777 1677 
Q 538 1791 414 1992 
Q 291 2194 291 2438 
Q 291 2659 392 2848 
Q 494 3038 669 3163 
Q 800 3259 1026 3326 
Q 1253 3394 1513 3394 
Q 1903 3394 2198 3281 
Q 2494 3169 2634 2976 
Q 2775 2784 2828 2463 
L 2278 2388 
Q 2241 2644 2061 2787 
Q 1881 2931 1553 2931 
Q 1166 2931 1000 2803 
Q 834 2675 834 2503 
Q 834 2394 903 2306 
Q 972 2216 1119 2156 
Q 1203 2125 1616 2013 
Q 2213 1853 2448 1751 
Q 2684 1650 2818 1456 
Q 2953 1263 2953 975 
Q 2953 694 2789 445 
Q 2625 197 2315 61 
Q 2006 -75 1616 -75 
Q 969 -75 630 194 
Q 291 463 197 991 
z
" transform="scale(0.015625)"/>
      <path id="ArialMT-69" d="M 425 3934 
L 425 4581 
L 988 4581 
L 988 3934 
L 425 3934 
z
M 425 0 
L 425 3319 
L 988 3319 
L 988 0 
L 425 0 
z
" transform="scale(0.015625)"/>
     </defs>
     <use xlink:href="#ArialMT-4e"/>
     <use xlink:href="#ArialMT-3d" x="72.216797"/>
     <use xlink:href="#ArialMT-37" x="130.615234"/>
     <use xlink:href="#ArialMT-2c" x="186.230469"/>
     <use xlink:href="#ArialMT-20" x="214.013672"/>
     <use xlink:href="#ArialMT-70" x="241.796875"/>
     <use xlink:href="#ArialMT-73" x="297.412109"/>
     <use xlink:href="#ArialMT-69" x="347.412109"/>
     <use xlink:href="#ArialMT-3d" x="369.628906"/>
     <use xlink:href="#ArialMT-30" x="428.027344"/>
     <use xlink:href="#ArialMT-2e" x="483.642578"/>
     <use xlink:href="#ArialMT-31" x="511.425781"/>
     <use xlink:href="#ArialMT-30" x="567.041016"/>
    </g>
   </g>
   <g id="legend_1">
    <g id="line2d_17">
     <g>
      <use xlink:href="#m180454fb2d" x="59.9265" y="220.007125" style="stroke: #000000; stroke-width: 2"/>
     </g>
    </g>
    <g id="text_17">
     <!-- Observations -->
     <g style="fill: #262626" transform="translate(75.7665 223.087125) scale(0.088 -0.088)">
      <defs>
       <path id="ArialMT-4f" d="M 309 2231 
Q 309 3372 921 4017 
Q 1534 4663 2503 4663 
Q 3138 4663 3647 4359 
Q 4156 4056 4423 3514 
Q 4691 2972 4691 2284 
Q 4691 1588 4409 1038 
Q 4128 488 3612 205 
Q 3097 -78 2500 -78 
Q 1853 -78 1343 234 
Q 834 547 571 1087 
Q 309 1628 309 2231 
z
M 934 2222 
Q 934 1394 1379 917 
Q 1825 441 2497 441 
Q 3181 441 3623 922 
Q 4066 1403 4066 2288 
Q 4066 2847 3877 3264 
Q 3688 3681 3323 3911 
Q 2959 4141 2506 4141 
Q 1863 4141 1398 3698 
Q 934 3256 934 2222 
z
" transform="scale(0.015625)"/>
       <path id="ArialMT-62" d="M 941 0 
L 419 0 
L 419 4581 
L 981 4581 
L 981 2947 
Q 1338 3394 1891 3394 
Q 2197 3394 2470 3270 
Q 2744 3147 2920 2923 
Q 3097 2700 3197 2384 
Q 3297 2069 3297 1709 
Q 3297 856 2875 390 
Q 2453 -75 1863 -75 
Q 1275 -75 941 416 
L 941 0 
z
M 934 1684 
Q 934 1088 1097 822 
Q 1363 388 1816 388 
Q 2184 388 2453 708 
Q 2722 1028 2722 1663 
Q 2722 2313 2464 2622 
Q 2206 2931 1841 2931 
Q 1472 2931 1203 2611 
Q 934 2291 934 1684 
z
" transform="scale(0.015625)"/>
       <path id="ArialMT-65" d="M 2694 1069 
L 3275 997 
Q 3138 488 2766 206 
Q 2394 -75 1816 -75 
Q 1088 -75 661 373 
Q 234 822 234 1631 
Q 234 2469 665 2931 
Q 1097 3394 1784 3394 
Q 2450 3394 2872 2941 
Q 3294 2488 3294 1666 
Q 3294 1616 3291 1516 
L 816 1516 
Q 847 969 1125 678 
Q 1403 388 1819 388 
Q 2128 388 2347 550 
Q 2566 713 2694 1069 
z
M 847 1978 
L 2700 1978 
Q 2663 2397 2488 2606 
Q 2219 2931 1791 2931 
Q 1403 2931 1139 2672 
Q 875 2413 847 1978 
z
" transform="scale(0.015625)"/>
       <path id="ArialMT-72" d="M 416 0 
L 416 3319 
L 922 3319 
L 922 2816 
Q 1116 3169 1280 3281 
Q 1444 3394 1641 3394 
Q 1925 3394 2219 3213 
L 2025 2691 
Q 1819 2813 1613 2813 
Q 1428 2813 1281 2702 
Q 1134 2591 1072 2394 
Q 978 2094 978 1738 
L 978 0 
L 416 0 
z
" transform="scale(0.015625)"/>
       <path id="ArialMT-76" d="M 1344 0 
L 81 3319 
L 675 3319 
L 1388 1331 
Q 1503 1009 1600 663 
Q 1675 925 1809 1294 
L 2547 3319 
L 3125 3319 
L 1869 0 
L 1344 0 
z
" transform="scale(0.015625)"/>
       <path id="ArialMT-61" d="M 2588 409 
Q 2275 144 1986 34 
Q 1697 -75 1366 -75 
Q 819 -75 525 192 
Q 231 459 231 875 
Q 231 1119 342 1320 
Q 453 1522 633 1644 
Q 813 1766 1038 1828 
Q 1203 1872 1538 1913 
Q 2219 1994 2541 2106 
Q 2544 2222 2544 2253 
Q 2544 2597 2384 2738 
Q 2169 2928 1744 2928 
Q 1347 2928 1158 2789 
Q 969 2650 878 2297 
L 328 2372 
Q 403 2725 575 2942 
Q 747 3159 1072 3276 
Q 1397 3394 1825 3394 
Q 2250 3394 2515 3294 
Q 2781 3194 2906 3042 
Q 3031 2891 3081 2659 
Q 3109 2516 3109 2141 
L 3109 1391 
Q 3109 606 3145 398 
Q 3181 191 3288 0 
L 2700 0 
Q 2613 175 2588 409 
z
M 2541 1666 
Q 2234 1541 1622 1453 
Q 1275 1403 1131 1340 
Q 988 1278 909 1158 
Q 831 1038 831 891 
Q 831 666 1001 516 
Q 1172 366 1500 366 
Q 1825 366 2078 508 
Q 2331 650 2450 897 
Q 2541 1088 2541 1459 
L 2541 1666 
z
" transform="scale(0.015625)"/>
       <path id="ArialMT-74" d="M 1650 503 
L 1731 6 
Q 1494 -44 1306 -44 
Q 1000 -44 831 53 
Q 663 150 594 308 
Q 525 466 525 972 
L 525 2881 
L 113 2881 
L 113 3319 
L 525 3319 
L 525 4141 
L 1084 4478 
L 1084 3319 
L 1650 3319 
L 1650 2881 
L 1084 2881 
L 1084 941 
Q 1084 700 1114 631 
Q 1144 563 1211 522 
Q 1278 481 1403 481 
Q 1497 481 1650 503 
z
" transform="scale(0.015625)"/>
       <path id="ArialMT-6f" d="M 213 1659 
Q 213 2581 725 3025 
Q 1153 3394 1769 3394 
Q 2453 3394 2887 2945 
Q 3322 2497 3322 1706 
Q 3322 1066 3130 698 
Q 2938 331 2570 128 
Q 2203 -75 1769 -75 
Q 1072 -75 642 372 
Q 213 819 213 1659 
z
M 791 1659 
Q 791 1022 1069 705 
Q 1347 388 1769 388 
Q 2188 388 2466 706 
Q 2744 1025 2744 1678 
Q 2744 2294 2464 2611 
Q 2184 2928 1769 2928 
Q 1347 2928 1069 2612 
Q 791 2297 791 1659 
z
" transform="scale(0.015625)"/>
       <path id="ArialMT-6e" d="M 422 0 
L 422 3319 
L 928 3319 
L 928 2847 
Q 1294 3394 1984 3394 
Q 2284 3394 2536 3286 
Q 2788 3178 2913 3003 
Q 3038 2828 3088 2588 
Q 3119 2431 3119 2041 
L 3119 0 
L 2556 0 
L 2556 2019 
Q 2556 2363 2490 2533 
Q 2425 2703 2258 2804 
Q 2091 2906 1866 2906 
Q 1506 2906 1245 2678 
Q 984 2450 984 1813 
L 984 0 
L 422 0 
z
" transform="scale(0.015625)"/>
      </defs>
      <use xlink:href="#ArialMT-4f"/>
      <use xlink:href="#ArialMT-62" x="77.783203"/>
      <use xlink:href="#ArialMT-73" x="133.398438"/>
      <use xlink:href="#ArialMT-65" x="183.398438"/>
      <use xlink:href="#ArialMT-72" x="239.013672"/>
      <use xlink:href="#ArialMT-76" x="272.314453"/>
      <use xlink:href="#ArialMT-61" x="322.314453"/>
      <use xlink:href="#ArialMT-74" x="377.929688"/>
      <use xlink:href="#ArialMT-69" x="405.712891"/>
      <use xlink:href="#ArialMT-6f" x="427.929688"/>
      <use xlink:href="#ArialMT-6e" x="483.544922"/>
      <use xlink:href="#ArialMT-73" x="539.160156"/>
     </g>
    </g>
    <g id="line2d_18">
     <path d="M 51.1265 232.591125 
L 59.9265 232.591125 
L 68.7265 232.591125 
" style="fill: none; stroke: #1f77b4; stroke-width: 2; stroke-linecap: round"/>
    </g>
    <g id="text_18">
     <!-- $m_n(x)$ -->
     <g style="fill: #262626" transform="translate(75.7665 235.671125) scale(0.088 -0.088)">
      <defs>
       <path id="DejaVuSans-Oblique-6d" d="M 5747 2113 
L 5338 0 
L 4763 0 
L 5166 2094 
Q 5191 2228 5203 2325 
Q 5216 2422 5216 2491 
Q 5216 2772 5059 2928 
Q 4903 3084 4622 3084 
Q 4203 3084 3875 2770 
Q 3547 2456 3450 1953 
L 3066 0 
L 2491 0 
L 2900 2094 
Q 2925 2209 2937 2307 
Q 2950 2406 2950 2484 
Q 2950 2769 2794 2926 
Q 2638 3084 2363 3084 
Q 1938 3084 1609 2770 
Q 1281 2456 1184 1953 
L 800 0 
L 225 0 
L 909 3500 
L 1484 3500 
L 1375 2956 
Q 1609 3263 1923 3423 
Q 2238 3584 2597 3584 
Q 2978 3584 3223 3384 
Q 3469 3184 3519 2828 
Q 3781 3197 4126 3390 
Q 4472 3584 4856 3584 
Q 5306 3584 5551 3325 
Q 5797 3066 5797 2591 
Q 5797 2488 5784 2364 
Q 5772 2241 5747 2113 
z
" transform="scale(0.015625)"/>
       <path id="DejaVuSans-Oblique-6e" d="M 3566 2113 
L 3156 0 
L 2578 0 
L 2988 2091 
Q 3016 2238 3031 2350 
Q 3047 2463 3047 2528 
Q 3047 2791 2881 2937 
Q 2716 3084 2419 3084 
Q 1956 3084 1622 2776 
Q 1288 2469 1184 1941 
L 800 0 
L 225 0 
L 903 3500 
L 1478 3500 
L 1363 2950 
Q 1603 3253 1940 3418 
Q 2278 3584 2650 3584 
Q 3113 3584 3367 3334 
Q 3622 3084 3622 2631 
Q 3622 2519 3608 2391 
Q 3594 2263 3566 2113 
z
" transform="scale(0.015625)"/>
       <path id="DejaVuSans-28" d="M 1984 4856 
Q 1566 4138 1362 3434 
Q 1159 2731 1159 2009 
Q 1159 1288 1364 580 
Q 1569 -128 1984 -844 
L 1484 -844 
Q 1016 -109 783 600 
Q 550 1309 550 2009 
Q 550 2706 781 3412 
Q 1013 4119 1484 4856 
L 1984 4856 
z
" transform="scale(0.015625)"/>
       <path id="DejaVuSans-29" d="M 513 4856 
L 1013 4856 
Q 1481 4119 1714 3412 
Q 1947 2706 1947 2009 
Q 1947 1309 1714 600 
Q 1481 -109 1013 -844 
L 513 -844 
Q 928 -128 1133 580 
Q 1338 1288 1338 2009 
Q 1338 2731 1133 3434 
Q 928 4138 513 4856 
z
" transform="scale(0.015625)"/>
      </defs>
      <use xlink:href="#DejaVuSans-Oblique-6d" transform="translate(0 0.125)"/>
      <use xlink:href="#DejaVuSans-Oblique-6e" transform="translate(97.412109 -16.28125) scale(0.7)"/>
      <use xlink:href="#DejaVuSans-28" transform="translate(144.511719 0.125)"/>
      <use xlink:href="#DejaVuSans-Oblique-78" transform="translate(183.525391 0.125)"/>
      <use xlink:href="#DejaVuSans-29" transform="translate(242.705078 0.125)"/>
     </g>
    </g>
    <g id="patch_5">
     <path d="M 51.1265 249.828125 
L 68.7265 249.828125 
L 68.7265 243.668125 
L 51.1265 243.668125 
z
" style="fill: #1f77b4; fill-opacity: 0.5; stroke: #1f77b4; stroke-opacity: 0.5; stroke-width: 0.8; stroke-linejoin: miter"/>
    </g>
    <g id="text_19">
     <!-- $f(\mathbf{x}^*)$ 95% pred. -->
     <g style="fill: #262626" transform="translate(75.7665 249.828125) scale(0.088 -0.088)">
      <defs>
       <path id="DejaVuSans-Oblique-66" d="M 3059 4863 
L 2969 4384 
L 2419 4384 
Q 2106 4384 1964 4261 
Q 1822 4138 1753 3809 
L 1691 3500 
L 2638 3500 
L 2553 3053 
L 1606 3053 
L 1013 0 
L 434 0 
L 1031 3053 
L 481 3053 
L 563 3500 
L 1113 3500 
L 1159 3744 
Q 1278 4363 1576 4613 
Q 1875 4863 2516 4863 
L 3059 4863 
z
" transform="scale(0.015625)"/>
       <path id="DejaVuSans-Bold-78" d="M 1422 1791 
L 159 3500 
L 1344 3500 
L 2059 2463 
L 2784 3500 
L 3969 3500 
L 2706 1797 
L 4031 0 
L 2847 0 
L 2059 1106 
L 1281 0 
L 97 0 
L 1422 1791 
z
" transform="scale(0.015625)"/>
       <path id="DejaVuSans-2a" d="M 3009 3897 
L 1888 3291 
L 3009 2681 
L 2828 2375 
L 1778 3009 
L 1778 1831 
L 1422 1831 
L 1422 3009 
L 372 2375 
L 191 2681 
L 1313 3291 
L 191 3897 
L 372 4206 
L 1422 3572 
L 1422 4750 
L 1778 4750 
L 1778 3572 
L 2828 4206 
L 3009 3897 
z
" transform="scale(0.015625)"/>
       <path id="ArialMT-39" d="M 350 1059 
L 891 1109 
Q 959 728 1153 556 
Q 1347 384 1650 384 
Q 1909 384 2104 503 
Q 2300 622 2425 820 
Q 2550 1019 2634 1356 
Q 2719 1694 2719 2044 
Q 2719 2081 2716 2156 
Q 2547 1888 2255 1720 
Q 1963 1553 1622 1553 
Q 1053 1553 659 1965 
Q 266 2378 266 3053 
Q 266 3750 677 4175 
Q 1088 4600 1706 4600 
Q 2153 4600 2523 4359 
Q 2894 4119 3086 3673 
Q 3278 3228 3278 2384 
Q 3278 1506 3087 986 
Q 2897 466 2520 194 
Q 2144 -78 1638 -78 
Q 1100 -78 759 220 
Q 419 519 350 1059 
z
M 2653 3081 
Q 2653 3566 2395 3850 
Q 2138 4134 1775 4134 
Q 1400 4134 1122 3828 
Q 844 3522 844 3034 
Q 844 2597 1108 2323 
Q 1372 2050 1759 2050 
Q 2150 2050 2401 2323 
Q 2653 2597 2653 3081 
z
" transform="scale(0.015625)"/>
       <path id="ArialMT-35" d="M 266 1200 
L 856 1250 
Q 922 819 1161 601 
Q 1400 384 1738 384 
Q 2144 384 2425 690 
Q 2706 997 2706 1503 
Q 2706 1984 2436 2262 
Q 2166 2541 1728 2541 
Q 1456 2541 1237 2417 
Q 1019 2294 894 2097 
L 366 2166 
L 809 4519 
L 3088 4519 
L 3088 3981 
L 1259 3981 
L 1013 2750 
Q 1425 3038 1878 3038 
Q 2478 3038 2890 2622 
Q 3303 2206 3303 1553 
Q 3303 931 2941 478 
Q 2500 -78 1738 -78 
Q 1113 -78 717 272 
Q 322 622 266 1200 
z
" transform="scale(0.015625)"/>
       <path id="ArialMT-25" d="M 372 3481 
Q 372 3972 619 4315 
Q 866 4659 1334 4659 
Q 1766 4659 2048 4351 
Q 2331 4044 2331 3447 
Q 2331 2866 2045 2552 
Q 1759 2238 1341 2238 
Q 925 2238 648 2547 
Q 372 2856 372 3481 
z
M 1350 4272 
Q 1141 4272 1002 4090 
Q 863 3909 863 3425 
Q 863 2984 1003 2804 
Q 1144 2625 1350 2625 
Q 1563 2625 1702 2806 
Q 1841 2988 1841 3469 
Q 1841 3913 1700 4092 
Q 1559 4272 1350 4272 
z
M 1353 -169 
L 3859 4659 
L 4316 4659 
L 1819 -169 
L 1353 -169 
z
M 3334 1075 
Q 3334 1569 3581 1911 
Q 3828 2253 4300 2253 
Q 4731 2253 5014 1945 
Q 5297 1638 5297 1041 
Q 5297 459 5011 145 
Q 4725 -169 4303 -169 
Q 3888 -169 3611 142 
Q 3334 453 3334 1075 
z
M 4316 1866 
Q 4103 1866 3964 1684 
Q 3825 1503 3825 1019 
Q 3825 581 3965 400 
Q 4106 219 4313 219 
Q 4528 219 4667 400 
Q 4806 581 4806 1063 
Q 4806 1506 4665 1686 
Q 4525 1866 4316 1866 
z
" transform="scale(0.015625)"/>
       <path id="ArialMT-64" d="M 2575 0 
L 2575 419 
Q 2259 -75 1647 -75 
Q 1250 -75 917 144 
Q 584 363 401 755 
Q 219 1147 219 1656 
Q 219 2153 384 2558 
Q 550 2963 881 3178 
Q 1213 3394 1622 3394 
Q 1922 3394 2156 3267 
Q 2391 3141 2538 2938 
L 2538 4581 
L 3097 4581 
L 3097 0 
L 2575 0 
z
M 797 1656 
Q 797 1019 1065 703 
Q 1334 388 1700 388 
Q 2069 388 2326 689 
Q 2584 991 2584 1609 
Q 2584 2291 2321 2609 
Q 2059 2928 1675 2928 
Q 1300 2928 1048 2622 
Q 797 2316 797 1656 
z
" transform="scale(0.015625)"/>
      </defs>
      <use xlink:href="#DejaVuSans-Oblique-66" transform="translate(0 0.765625)"/>
      <use xlink:href="#DejaVuSans-28" transform="translate(35.205078 0.765625)"/>
      <use xlink:href="#DejaVuSans-Bold-78" transform="translate(74.21875 0.765625)"/>
      <use xlink:href="#DejaVuSans-2a" transform="translate(153.31543 39.046875) scale(0.7)"/>
      <use xlink:href="#DejaVuSans-29" transform="translate(204.6875 0.765625)"/>
      <use xlink:href="#ArialMT-20" transform="translate(243.701172 0.765625)"/>
      <use xlink:href="#ArialMT-39" transform="translate(271.484375 0.765625)"/>
      <use xlink:href="#ArialMT-35" transform="translate(327.099609 0.765625)"/>
      <use xlink:href="#ArialMT-25" transform="translate(382.714844 0.765625)"/>
      <use xlink:href="#ArialMT-20" transform="translate(471.630859 0.765625)"/>
      <use xlink:href="#ArialMT-70" transform="translate(499.414062 0.765625)"/>
      <use xlink:href="#ArialMT-72" transform="translate(555.029297 0.765625)"/>
      <use xlink:href="#ArialMT-65" transform="translate(588.330078 0.765625)"/>
      <use xlink:href="#ArialMT-64" transform="translate(643.945312 0.765625)"/>
      <use xlink:href="#ArialMT-2e" transform="translate(699.560547 0.765625)"/>
     </g>
    </g>
    <g id="patch_6">
     <path d="M 51.1265 263.996125 
L 68.7265 263.996125 
L 68.7265 257.836125 
L 51.1265 257.836125 
z
" style="fill: #ff7f0e; fill-opacity: 0.5; stroke: #ff7f0e; stroke-opacity: 0.5; stroke-width: 0.8; stroke-linejoin: miter"/>
    </g>
    <g id="text_20">
     <!-- $y^*$ 95% pred. -->
     <g style="fill: #262626" transform="translate(75.7665 263.996125) scale(0.088 -0.088)">
      <use xlink:href="#DejaVuSans-Oblique-79" transform="translate(0 0.765625)"/>
      <use xlink:href="#DejaVuSans-2a" transform="translate(77.283529 39.046875) scale(0.7)"/>
      <use xlink:href="#ArialMT-20" transform="translate(128.655599 0.765625)"/>
      <use xlink:href="#ArialMT-39" transform="translate(156.438802 0.765625)"/>
      <use xlink:href="#ArialMT-35" transform="translate(212.054036 0.765625)"/>
      <use xlink:href="#ArialMT-25" transform="translate(267.669271 0.765625)"/>
      <use xlink:href="#ArialMT-20" transform="translate(356.585286 0.765625)"/>
      <use xlink:href="#ArialMT-70" transform="translate(384.36849 0.765625)"/>
      <use xlink:href="#ArialMT-72" transform="translate(439.983724 0.765625)"/>
      <use xlink:href="#ArialMT-65" transform="translate(473.284505 0.765625)"/>
      <use xlink:href="#ArialMT-64" transform="translate(528.89974 0.765625)"/>
      <use xlink:href="#ArialMT-2e" transform="translate(584.514974 0.765625)"/>
     </g>
    </g>
    <g id="line2d_19">
     <path d="M 51.1265 273.463 
L 59.9265 273.463 
L 68.7265 273.463 
" style="fill: none; stroke-dasharray: 7.68,1.92,1.2,1.92; stroke-dashoffset: 0; stroke: #bf00bf; stroke-width: 1.2"/>
    </g>
    <g id="text_21">
     <!-- True function -->
     <g style="fill: #262626" transform="translate(75.7665 276.543) scale(0.088 -0.088)">
      <defs>
       <path id="ArialMT-54" d="M 1659 0 
L 1659 4041 
L 150 4041 
L 150 4581 
L 3781 4581 
L 3781 4041 
L 2266 4041 
L 2266 0 
L 1659 0 
z
" transform="scale(0.015625)"/>
       <path id="ArialMT-75" d="M 2597 0 
L 2597 488 
Q 2209 -75 1544 -75 
Q 1250 -75 995 37 
Q 741 150 617 320 
Q 494 491 444 738 
Q 409 903 409 1263 
L 409 3319 
L 972 3319 
L 972 1478 
Q 972 1038 1006 884 
Q 1059 663 1231 536 
Q 1403 409 1656 409 
Q 1909 409 2131 539 
Q 2353 669 2445 892 
Q 2538 1116 2538 1541 
L 2538 3319 
L 3100 3319 
L 3100 0 
L 2597 0 
z
" transform="scale(0.015625)"/>
       <path id="ArialMT-66" d="M 556 0 
L 556 2881 
L 59 2881 
L 59 3319 
L 556 3319 
L 556 3672 
Q 556 4006 616 4169 
Q 697 4388 901 4523 
Q 1106 4659 1475 4659 
Q 1713 4659 2000 4603 
L 1916 4113 
Q 1741 4144 1584 4144 
Q 1328 4144 1222 4034 
Q 1116 3925 1116 3625 
L 1116 3319 
L 1763 3319 
L 1763 2881 
L 1116 2881 
L 1116 0 
L 556 0 
z
" transform="scale(0.015625)"/>
       <path id="ArialMT-63" d="M 2588 1216 
L 3141 1144 
Q 3050 572 2676 248 
Q 2303 -75 1759 -75 
Q 1078 -75 664 370 
Q 250 816 250 1647 
Q 250 2184 428 2587 
Q 606 2991 970 3192 
Q 1334 3394 1763 3394 
Q 2303 3394 2647 3120 
Q 2991 2847 3088 2344 
L 2541 2259 
Q 2463 2594 2264 2762 
Q 2066 2931 1784 2931 
Q 1359 2931 1093 2626 
Q 828 2322 828 1663 
Q 828 994 1084 691 
Q 1341 388 1753 388 
Q 2084 388 2306 591 
Q 2528 794 2588 1216 
z
" transform="scale(0.015625)"/>
      </defs>
      <use xlink:href="#ArialMT-54"/>
      <use xlink:href="#ArialMT-72" x="57.333984"/>
      <use xlink:href="#ArialMT-75" x="90.634766"/>
      <use xlink:href="#ArialMT-65" x="146.25"/>
      <use xlink:href="#ArialMT-20" x="201.865234"/>
      <use xlink:href="#ArialMT-66" x="229.648438"/>
      <use xlink:href="#ArialMT-75" x="257.431641"/>
      <use xlink:href="#ArialMT-6e" x="313.046875"/>
      <use xlink:href="#ArialMT-63" x="368.662109"/>
      <use xlink:href="#ArialMT-74" x="418.662109"/>
      <use xlink:href="#ArialMT-69" x="446.445312"/>
      <use xlink:href="#ArialMT-6f" x="468.662109"/>
      <use xlink:href="#ArialMT-6e" x="524.277344"/>
     </g>
    </g>
   </g>
  </g>
  <g id="axes_2">
   <g id="matplotlib.axis_3">
    <g id="ytick_8">
     <g id="line2d_20">
      <defs>
       <path id="m97f0efac56" d="M 0 0 
L 4.8 0 
" style="stroke: #262626"/>
      </defs>
      <g>
       <use xlink:href="#m97f0efac56" x="400.3265" y="274.116" style="fill: #262626; stroke: #262626"/>
      </g>
     </g>
     <g id="text_22">
      <!-- 0.000 -->
      <g style="fill: #ff7f0e" transform="translate(408.6265 277.265437) scale(0.088 -0.088)">
       <use xlink:href="#ArialMT-30"/>
       <use xlink:href="#ArialMT-2e" x="55.615234"/>
       <use xlink:href="#ArialMT-30" x="83.398438"/>
       <use xlink:href="#ArialMT-30" x="139.013672"/>
       <use xlink:href="#ArialMT-30" x="194.628906"/>
      </g>
     </g>
    </g>
    <g id="ytick_9">
     <g id="line2d_21">
      <g>
       <use xlink:href="#m97f0efac56" x="400.3265" y="237.464458" style="fill: #262626; stroke: #262626"/>
      </g>
     </g>
     <g id="text_23">
      <!-- 0.005 -->
      <g style="fill: #ff7f0e" transform="translate(408.6265 240.613896) scale(0.088 -0.088)">
       <use xlink:href="#ArialMT-30"/>
       <use xlink:href="#ArialMT-2e" x="55.615234"/>
       <use xlink:href="#ArialMT-30" x="83.398438"/>
       <use xlink:href="#ArialMT-30" x="139.013672"/>
       <use xlink:href="#ArialMT-35" x="194.628906"/>
      </g>
     </g>
    </g>
    <g id="ytick_10">
     <g id="line2d_22">
      <g>
       <use xlink:href="#m97f0efac56" x="400.3265" y="200.812916" style="fill: #262626; stroke: #262626"/>
      </g>
     </g>
     <g id="text_24">
      <!-- 0.010 -->
      <g style="fill: #ff7f0e" transform="translate(408.6265 203.962354) scale(0.088 -0.088)">
       <use xlink:href="#ArialMT-30"/>
       <use xlink:href="#ArialMT-2e" x="55.615234"/>
       <use xlink:href="#ArialMT-30" x="83.398438"/>
       <use xlink:href="#ArialMT-31" x="139.013672"/>
       <use xlink:href="#ArialMT-30" x="194.628906"/>
      </g>
     </g>
    </g>
    <g id="ytick_11">
     <g id="line2d_23">
      <g>
       <use xlink:href="#m97f0efac56" x="400.3265" y="164.161375" style="fill: #262626; stroke: #262626"/>
      </g>
     </g>
     <g id="text_25">
      <!-- 0.015 -->
      <g style="fill: #ff7f0e" transform="translate(408.6265 167.310812) scale(0.088 -0.088)">
       <use xlink:href="#ArialMT-30"/>
       <use xlink:href="#ArialMT-2e" x="55.615234"/>
       <use xlink:href="#ArialMT-30" x="83.398438"/>
       <use xlink:href="#ArialMT-31" x="139.013672"/>
       <use xlink:href="#ArialMT-35" x="194.628906"/>
      </g>
     </g>
    </g>
    <g id="ytick_12">
     <g id="line2d_24">
      <g>
       <use xlink:href="#m97f0efac56" x="400.3265" y="127.509833" style="fill: #262626; stroke: #262626"/>
      </g>
     </g>
     <g id="text_26">
      <!-- 0.020 -->
      <g style="fill: #ff7f0e" transform="translate(408.6265 130.65927) scale(0.088 -0.088)">
       <use xlink:href="#ArialMT-30"/>
       <use xlink:href="#ArialMT-2e" x="55.615234"/>
       <use xlink:href="#ArialMT-30" x="83.398438"/>
       <use xlink:href="#ArialMT-32" x="139.013672"/>
       <use xlink:href="#ArialMT-30" x="194.628906"/>
      </g>
     </g>
    </g>
    <g id="ytick_13">
     <g id="line2d_25">
      <g>
       <use xlink:href="#m97f0efac56" x="400.3265" y="90.858291" style="fill: #262626; stroke: #262626"/>
      </g>
     </g>
     <g id="text_27">
      <!-- 0.025 -->
      <g style="fill: #ff7f0e" transform="translate(408.6265 94.007728) scale(0.088 -0.088)">
       <use xlink:href="#ArialMT-30"/>
       <use xlink:href="#ArialMT-2e" x="55.615234"/>
       <use xlink:href="#ArialMT-30" x="83.398438"/>
       <use xlink:href="#ArialMT-32" x="139.013672"/>
       <use xlink:href="#ArialMT-35" x="194.628906"/>
      </g>
     </g>
    </g>
    <g id="ytick_14">
     <g id="line2d_26">
      <g>
       <use xlink:href="#m97f0efac56" x="400.3265" y="54.206749" style="fill: #262626; stroke: #262626"/>
      </g>
     </g>
     <g id="text_28">
      <!-- 0.030 -->
      <g style="fill: #ff7f0e" transform="translate(408.6265 57.356187) scale(0.088 -0.088)">
       <defs>
        <path id="ArialMT-33" d="M 269 1209 
L 831 1284 
Q 928 806 1161 595 
Q 1394 384 1728 384 
Q 2125 384 2398 659 
Q 2672 934 2672 1341 
Q 2672 1728 2419 1979 
Q 2166 2231 1775 2231 
Q 1616 2231 1378 2169 
L 1441 2663 
Q 1497 2656 1531 2656 
Q 1891 2656 2178 2843 
Q 2466 3031 2466 3422 
Q 2466 3731 2256 3934 
Q 2047 4138 1716 4138 
Q 1388 4138 1169 3931 
Q 950 3725 888 3313 
L 325 3413 
Q 428 3978 793 4289 
Q 1159 4600 1703 4600 
Q 2078 4600 2393 4439 
Q 2709 4278 2876 4000 
Q 3044 3722 3044 3409 
Q 3044 3113 2884 2869 
Q 2725 2625 2413 2481 
Q 2819 2388 3044 2092 
Q 3269 1797 3269 1353 
Q 3269 753 2831 336 
Q 2394 -81 1725 -81 
Q 1122 -81 723 278 
Q 325 638 269 1209 
z
" transform="scale(0.015625)"/>
       </defs>
       <use xlink:href="#ArialMT-30"/>
       <use xlink:href="#ArialMT-2e" x="55.615234"/>
       <use xlink:href="#ArialMT-30" x="83.398438"/>
       <use xlink:href="#ArialMT-33" x="139.013672"/>
       <use xlink:href="#ArialMT-30" x="194.628906"/>
      </g>
     </g>
    </g>
    <g id="text_29">
     <!-- Information Acquisition Function -->
     <g style="fill: #ff7f0e" transform="translate(441.63425 221.18925) rotate(-90) scale(0.096 -0.096)">
      <defs>
       <path id="ArialMT-49" d="M 597 0 
L 597 4581 
L 1203 4581 
L 1203 0 
L 597 0 
z
" transform="scale(0.015625)"/>
       <path id="ArialMT-6d" d="M 422 0 
L 422 3319 
L 925 3319 
L 925 2853 
Q 1081 3097 1340 3245 
Q 1600 3394 1931 3394 
Q 2300 3394 2536 3241 
Q 2772 3088 2869 2813 
Q 3263 3394 3894 3394 
Q 4388 3394 4653 3120 
Q 4919 2847 4919 2278 
L 4919 0 
L 4359 0 
L 4359 2091 
Q 4359 2428 4304 2576 
Q 4250 2725 4106 2815 
Q 3963 2906 3769 2906 
Q 3419 2906 3187 2673 
Q 2956 2441 2956 1928 
L 2956 0 
L 2394 0 
L 2394 2156 
Q 2394 2531 2256 2718 
Q 2119 2906 1806 2906 
Q 1569 2906 1367 2781 
Q 1166 2656 1075 2415 
Q 984 2175 984 1722 
L 984 0 
L 422 0 
z
" transform="scale(0.015625)"/>
       <path id="ArialMT-41" d="M -9 0 
L 1750 4581 
L 2403 4581 
L 4278 0 
L 3588 0 
L 3053 1388 
L 1138 1388 
L 634 0 
L -9 0 
z
M 1313 1881 
L 2866 1881 
L 2388 3150 
Q 2169 3728 2063 4100 
Q 1975 3659 1816 3225 
L 1313 1881 
z
" transform="scale(0.015625)"/>
       <path id="ArialMT-71" d="M 2538 -1272 
L 2538 353 
Q 2406 169 2170 47 
Q 1934 -75 1669 -75 
Q 1078 -75 651 397 
Q 225 869 225 1691 
Q 225 2191 398 2587 
Q 572 2984 901 3189 
Q 1231 3394 1625 3394 
Q 2241 3394 2594 2875 
L 2594 3319 
L 3100 3319 
L 3100 -1272 
L 2538 -1272 
z
M 803 1669 
Q 803 1028 1072 708 
Q 1341 388 1716 388 
Q 2075 388 2334 692 
Q 2594 997 2594 1619 
Q 2594 2281 2320 2615 
Q 2047 2950 1678 2950 
Q 1313 2950 1058 2639 
Q 803 2328 803 1669 
z
" transform="scale(0.015625)"/>
       <path id="ArialMT-46" d="M 525 0 
L 525 4581 
L 3616 4581 
L 3616 4041 
L 1131 4041 
L 1131 2622 
L 3281 2622 
L 3281 2081 
L 1131 2081 
L 1131 0 
L 525 0 
z
" transform="scale(0.015625)"/>
      </defs>
      <use xlink:href="#ArialMT-49"/>
      <use xlink:href="#ArialMT-6e" x="27.783203"/>
      <use xlink:href="#ArialMT-66" x="83.398438"/>
      <use xlink:href="#ArialMT-6f" x="111.181641"/>
      <use xlink:href="#ArialMT-72" x="166.796875"/>
      <use xlink:href="#ArialMT-6d" x="200.097656"/>
      <use xlink:href="#ArialMT-61" x="283.398438"/>
      <use xlink:href="#ArialMT-74" x="339.013672"/>
      <use xlink:href="#ArialMT-69" x="366.796875"/>
      <use xlink:href="#ArialMT-6f" x="389.013672"/>
      <use xlink:href="#ArialMT-6e" x="444.628906"/>
      <use xlink:href="#ArialMT-20" x="500.244141"/>
      <use xlink:href="#ArialMT-41" x="522.527344"/>
      <use xlink:href="#ArialMT-63" x="589.226562"/>
      <use xlink:href="#ArialMT-71" x="639.226562"/>
      <use xlink:href="#ArialMT-75" x="694.841797"/>
      <use xlink:href="#ArialMT-69" x="750.457031"/>
      <use xlink:href="#ArialMT-73" x="772.673828"/>
      <use xlink:href="#ArialMT-69" x="822.673828"/>
      <use xlink:href="#ArialMT-74" x="844.890625"/>
      <use xlink:href="#ArialMT-69" x="872.673828"/>
      <use xlink:href="#ArialMT-6f" x="894.890625"/>
      <use xlink:href="#ArialMT-6e" x="950.505859"/>
      <use xlink:href="#ArialMT-20" x="1006.121094"/>
      <use xlink:href="#ArialMT-46" x="1033.904297"/>
      <use xlink:href="#ArialMT-75" x="1094.988281"/>
      <use xlink:href="#ArialMT-6e" x="1150.603516"/>
      <use xlink:href="#ArialMT-63" x="1206.21875"/>
      <use xlink:href="#ArialMT-74" x="1256.21875"/>
      <use xlink:href="#ArialMT-69" x="1284.001953"/>
      <use xlink:href="#ArialMT-6f" x="1306.21875"/>
      <use xlink:href="#ArialMT-6e" x="1361.833984"/>
     </g>
    </g>
   </g>
   <g id="line2d_27">
    <path d="M 59.439227 274.116 
L 62.718566 274.116 
L 65.997905 274.116 
L 69.277244 274.116 
L 72.556583 274.116 
L 75.835921 274.116 
L 79.115261 274.116 
L 82.394598 274.116 
L 85.673938 274.116 
L 88.953278 274.116 
L 92.232615 274.116 
L 95.511955 274.116 
L 98.791295 274.116 
L 102.070632 274.116 
L 105.349969 274.116 
L 108.629311 274.116 
L 111.908649 274.116 
L 115.187986 274.116 
L 118.467328 274.115782 
L 121.746666 274.111412 
L 125.026003 274.017911 
L 128.305345 272.342758 
L 131.584682 255.705921 
L 134.86402 184.688219 
L 138.143362 68.202831 
L 141.422694 32.196 
L 144.702037 126.328103 
L 147.981379 228.521387 
L 151.260711 265.940127 
L 154.540053 272.751716 
L 157.819395 273.755322 
L 161.098728 273.934678 
L 164.37807 273.963078 
L 167.657412 273.942106 
L 170.936745 273.89186 
L 174.216087 273.823482 
L 177.495429 273.752482 
L 180.774762 273.701799 
L 184.054104 273.693061 
L 187.333446 273.735661 
L 190.612778 273.821297 
L 193.892121 273.924192 
L 197.171463 274.015071 
L 200.450795 274.075366 
L 203.730137 274.10464 
L 207.00948 274.114034 
L 210.288812 274.115782 
L 213.568154 274.116 
L 216.847496 274.116 
L 220.126829 274.116 
L 223.406181 274.116 
L 226.685504 274.116 
L 229.964846 274.116 
L 233.244188 274.116 
L 236.523511 274.116 
L 239.802872 274.116 
L 243.082195 274.116 
L 246.361537 274.116 
L 249.640879 274.116 
L 252.920222 274.116 
L 256.199564 274.116 
L 259.478887 274.116 
L 262.758248 274.116 
L 266.037571 274.116 
L 269.316913 274.116 
L 272.596255 274.116 
L 275.875578 274.116 
L 279.15494 274.116 
L 282.434262 274.116 
L 285.713605 274.116 
L 288.992947 274.116 
L 292.272289 274.116 
L 295.551631 274.116 
L 298.830954 274.116 
L 302.110315 274.116 
L 305.389638 274.116 
L 308.66898 274.116 
L 311.948322 274.116 
L 315.227645 274.116 
L 318.507007 274.116 
L 321.78633 274.116 
L 325.065672 274.116 
L 328.345014 274.116 
L 331.624356 274.116 
L 334.903698 274.116 
L 338.183021 274.116 
L 341.462363 274.116 
L 344.741705 274.116 
L 348.021048 274.116 
L 351.30039 274.116 
L 354.579713 274.116 
L 357.859055 274.116 
L 361.138397 274.116 
L 364.417739 274.116 
L 367.697081 274.116 
L 370.976423 274.116 
L 374.255766 274.116 
L 377.535088 274.116 
L 380.814431 274.116 
L 384.093773 274.116 
" clip-path="url(#pa35bb67c4f)" style="fill: none; stroke: #ff7f0e; stroke-width: 1.2; stroke-linecap: round"/>
   </g>
   <g id="line2d_28">
    <path d="M 141.422694 274.116 
L 141.422694 271.672364 
L 141.422694 269.228727 
L 141.422694 266.785091 
L 141.422694 264.341454 
L 141.422694 261.897818 
L 141.422694 259.454181 
L 141.422694 257.010545 
L 141.422694 254.566909 
L 141.422694 252.123272 
L 141.422694 249.679636 
L 141.422694 247.236 
L 141.422694 244.792362 
L 141.422694 242.348728 
L 141.422694 239.90509 
L 141.422694 237.461455 
L 141.422694 235.017817 
L 141.422694 232.574179 
L 141.422694 230.130545 
L 141.422694 227.686907 
L 141.422694 225.243272 
L 141.422694 222.799635 
L 141.422694 220.356 
L 141.422694 217.912362 
L 141.422694 215.468724 
L 141.422694 213.02509 
L 141.422694 210.581455 
L 141.422694 208.137814 
L 141.422694 205.694179 
L 141.422694 203.250545 
L 141.422694 200.80691 
L 141.422694 198.363269 
L 141.422694 195.919635 
L 141.422694 193.476 
L 141.422694 191.032359 
L 141.422694 188.588724 
L 141.422694 186.14509 
L 141.422694 183.701455 
L 141.422694 181.257814 
L 141.422694 178.814179 
L 141.422694 176.370545 
L 141.422694 173.926904 
L 141.422694 171.483269 
L 141.422694 169.039635 
L 141.422694 166.596 
L 141.422694 164.152359 
L 141.422694 161.708724 
L 141.422694 159.26509 
L 141.422694 156.821448 
L 141.422694 154.377821 
L 141.422694 151.934179 
L 141.422694 149.490552 
L 141.422694 147.04691 
L 141.422694 144.603283 
L 141.422694 142.159641 
L 141.422694 139.716 
L 141.422694 137.272359 
L 141.422694 134.828731 
L 141.422694 132.385103 
L 141.422694 129.941462 
L 141.422694 127.497821 
L 141.422694 125.054179 
L 141.422694 122.610538 
L 141.422694 120.16691 
L 141.422694 117.723283 
L 141.422694 115.279641 
L 141.422694 112.836 
L 141.422694 110.392359 
L 141.422694 107.948731 
L 141.422694 105.50509 
L 141.422694 103.061462 
L 141.422694 100.617821 
L 141.422694 98.174179 
L 141.422694 95.730538 
L 141.422694 93.28691 
L 141.422694 90.843283 
L 141.422694 88.399641 
L 141.422694 85.956 
L 141.422694 83.512359 
L 141.422694 81.068731 
L 141.422694 78.62509 
L 141.422694 76.181462 
L 141.422694 73.737821 
L 141.422694 71.294179 
L 141.422694 68.850538 
L 141.422694 66.40691 
L 141.422694 63.963269 
L 141.422694 61.519641 
L 141.422694 59.076 
L 141.422694 56.632359 
L 141.422694 54.188731 
L 141.422694 51.74509 
L 141.422694 49.301462 
L 141.422694 46.857821 
L 141.422694 44.414179 
L 141.422694 41.970538 
L 141.422694 39.526897 
L 141.422694 37.083283 
L 141.422694 34.639641 
L 141.422694 32.196 
" clip-path="url(#pa35bb67c4f)" style="fill: none; stroke: #ff7f0e; stroke-linecap: round"/>
   </g>
   <g id="patch_7">
    <path d="M 43.2065 286.212 
L 43.2065 20.1 
" style="fill: none; stroke: #262626; stroke-linejoin: miter; stroke-linecap: square"/>
   </g>
   <g id="patch_8">
    <path d="M 400.3265 286.212 
L 400.3265 20.1 
" style="fill: none; stroke: #262626; stroke-linejoin: miter; stroke-linecap: square"/>
   </g>
   <g id="patch_9">
    <path d="M 43.2065 286.212 
L 400.3265 286.212 
" style="fill: none; stroke: #262626; stroke-linejoin: miter; stroke-linecap: square"/>
   </g>
   <g id="patch_10">
    <path d="M 43.2065 20.1 
L 400.3265 20.1 
" style="fill: none; stroke: #262626; stroke-linejoin: miter; stroke-linecap: square"/>
   </g>
  </g>
 </g>
 <defs>
  <clipPath id="pa35bb67c4f">
   <rect x="43.2065" y="20.1" width="357.12" height="266.112"/>
  </clipPath>
 </defs>
</svg>