<?xml version="1.0" encoding="utf-8" standalone="no"?>
<!DOCTYPE svg PUBLIC "-//W3C//DTD SVG 1.1//EN"
  "http://www.w3.org/Graphics/SVG/1.1/DTD/svg11.dtd">
<svg xmlns:xlink="http://www.w3.org/1999/xlink" width="454.464pt" height="339.264pt" viewBox="0 0 454.464 339.264" xmlns="http://www.w3.org/2000/svg" version="1.1">
 <metadata>
  <rdf:RDF xmlns:dc="http://purl.org/dc/elements/1.1/" xmlns:cc="http://creativecommons.org/ns#" xmlns:rdf="http://www.w3.org/1999/02/22-rdf-syntax-ns#">
   <cc:Work>
    <dc:type rdf:resource="http://purl.org/dc/dcmitype/StillImage"/>
    <dc:date>2025-07-15T19:30:44.550562</dc:date>
    <dc:format>image/svg+xml</dc:format>
    <dc:creator>
     <cc:Agent>
      <dc:title>Matplotlib v3.9.2, https://matplotlib.org/</dc:title>
     </cc:Agent>
    </dc:creator>
   </cc:Work>
  </rdf:RDF>
 </metadata>
 <defs>
  <style type="text/css">*{stroke-linejoin: round; stroke-linecap: butt}</style>
 </defs>
 <g id="figure_1">
  <g id="patch_1">
   <path d="M 0 339.264 
L 454.464 339.264 
L 454.464 0 
L 0 0 
z
" style="fill: #ffffff"/>
  </g>
  <g id="axes_1">
   <g id="patch_2">
    <path d="M 37.646094 306.175562 
L 398.594312 306.175562 
L 398.594312 20.798437 
L 37.646094 20.798437 
z
" style="fill: #ffffff"/>
   </g>
   <g id="matplotlib.axis_1">
    <g id="xtick_1">
     <g id="line2d_1"/>
     <g id="text_1">
      <!-- 0.0 -->
      <g style="fill: #262626" transform="translate(46.896425 316.514156) scale(0.09 -0.09)">
       <defs>
        <path id="DejaVuSerif-30" d="M 2034 219 
Q 2513 219 2750 744 
Q 2988 1269 2988 2328 
Q 2988 3391 2750 3916 
Q 2513 4441 2034 4441 
Q 1556 4441 1318 3916 
Q 1081 3391 1081 2328 
Q 1081 1269 1318 744 
Q 1556 219 2034 219 
z
M 2034 -91 
Q 1275 -91 848 546 
Q 422 1184 422 2328 
Q 422 3475 848 4112 
Q 1275 4750 2034 4750 
Q 2797 4750 3222 4112 
Q 3647 3475 3647 2328 
Q 3647 1184 3222 546 
Q 2797 -91 2034 -91 
z
" transform="scale(0.015625)"/>
        <path id="DejaVuSerif-2e" d="M 603 325 
Q 603 500 722 622 
Q 841 744 1019 744 
Q 1191 744 1312 622 
Q 1434 500 1434 325 
Q 1434 153 1312 31 
Q 1191 -91 1019 -91 
Q 841 -91 722 29 
Q 603 150 603 325 
z
" transform="scale(0.015625)"/>
       </defs>
       <use xlink:href="#DejaVuSerif-30"/>
       <use xlink:href="#DejaVuSerif-2e" x="63.623047"/>
       <use xlink:href="#DejaVuSerif-30" x="95.410156"/>
      </g>
     </g>
    </g>
    <g id="xtick_2">
     <g id="line2d_2"/>
     <g id="text_2">
      <!-- 0.2 -->
      <g style="fill: #262626" transform="translate(112.523374 316.514156) scale(0.09 -0.09)">
       <defs>
        <path id="DejaVuSerif-32" d="M 819 3553 
L 469 3553 
L 469 4384 
Q 803 4563 1142 4656 
Q 1481 4750 1806 4750 
Q 2534 4750 2956 4397 
Q 3378 4044 3378 3438 
Q 3378 2753 2422 1800 
Q 2347 1728 2309 1691 
L 1131 513 
L 3078 513 
L 3078 1088 
L 3444 1088 
L 3444 0 
L 434 0 
L 434 341 
L 1850 1753 
Q 2319 2222 2519 2614 
Q 2719 3006 2719 3438 
Q 2719 3909 2473 4175 
Q 2228 4441 1797 4441 
Q 1350 4441 1106 4219 
Q 863 3997 819 3553 
z
" transform="scale(0.015625)"/>
       </defs>
       <use xlink:href="#DejaVuSerif-30"/>
       <use xlink:href="#DejaVuSerif-2e" x="63.623047"/>
       <use xlink:href="#DejaVuSerif-32" x="95.410156"/>
      </g>
     </g>
    </g>
    <g id="xtick_3">
     <g id="line2d_3"/>
     <g id="text_3">
      <!-- 0.4 -->
      <g style="fill: #262626" transform="translate(178.150322 316.514156) scale(0.09 -0.09)">
       <defs>
        <path id="DejaVuSerif-34" d="M 2234 1581 
L 2234 4063 
L 641 1581 
L 2234 1581 
z
M 3609 0 
L 1484 0 
L 1484 331 
L 2234 331 
L 2234 1247 
L 197 1247 
L 197 1588 
L 2241 4750 
L 2859 4750 
L 2859 1581 
L 3750 1581 
L 3750 1247 
L 2859 1247 
L 2859 331 
L 3609 331 
L 3609 0 
z
" transform="scale(0.015625)"/>
       </defs>
       <use xlink:href="#DejaVuSerif-30"/>
       <use xlink:href="#DejaVuSerif-2e" x="63.623047"/>
       <use xlink:href="#DejaVuSerif-34" x="95.410156"/>
      </g>
     </g>
    </g>
    <g id="xtick_4">
     <g id="line2d_4"/>
     <g id="text_4">
      <!-- 0.6 -->
      <g style="fill: #262626" transform="translate(243.777271 316.514156) scale(0.09 -0.09)">
       <defs>
        <path id="DejaVuSerif-36" d="M 2094 219 
Q 2534 219 2771 542 
Q 3009 866 3009 1472 
Q 3009 2078 2771 2401 
Q 2534 2725 2094 2725 
Q 1647 2725 1412 2412 
Q 1178 2100 1178 1509 
Q 1178 888 1415 553 
Q 1653 219 2094 219 
z
M 1075 2569 
Q 1288 2803 1556 2918 
Q 1825 3034 2163 3034 
Q 2859 3034 3264 2615 
Q 3669 2197 3669 1472 
Q 3669 763 3233 336 
Q 2797 -91 2069 -91 
Q 1278 -91 853 498 
Q 428 1088 428 2181 
Q 428 3406 931 4078 
Q 1434 4750 2350 4750 
Q 2597 4750 2869 4703 
Q 3141 4656 3425 4563 
L 3425 3794 
L 3072 3794 
Q 3034 4109 2831 4275 
Q 2628 4441 2284 4441 
Q 1678 4441 1381 3981 
Q 1084 3522 1075 2569 
z
" transform="scale(0.015625)"/>
       </defs>
       <use xlink:href="#DejaVuSerif-30"/>
       <use xlink:href="#DejaVuSerif-2e" x="63.623047"/>
       <use xlink:href="#DejaVuSerif-36" x="95.410156"/>
      </g>
     </g>
    </g>
    <g id="xtick_5">
     <g id="line2d_5"/>
     <g id="text_5">
      <!-- 0.8 -->
      <g style="fill: #262626" transform="translate(309.40422 316.514156) scale(0.09 -0.09)">
       <defs>
        <path id="DejaVuSerif-38" d="M 2981 1275 
Q 2981 1775 2732 2051 
Q 2484 2328 2034 2328 
Q 1584 2328 1336 2051 
Q 1088 1775 1088 1275 
Q 1088 772 1336 495 
Q 1584 219 2034 219 
Q 2484 219 2732 495 
Q 2981 772 2981 1275 
z
M 2853 3541 
Q 2853 3966 2637 4203 
Q 2422 4441 2034 4441 
Q 1650 4441 1433 4203 
Q 1216 3966 1216 3541 
Q 1216 3113 1433 2875 
Q 1650 2638 2034 2638 
Q 2422 2638 2637 2875 
Q 2853 3113 2853 3541 
z
M 2516 2484 
Q 3047 2413 3344 2092 
Q 3641 1772 3641 1275 
Q 3641 619 3225 264 
Q 2809 -91 2034 -91 
Q 1263 -91 845 264 
Q 428 619 428 1275 
Q 428 1772 725 2092 
Q 1022 2413 1556 2484 
Q 1084 2569 832 2842 
Q 581 3116 581 3541 
Q 581 4103 968 4426 
Q 1356 4750 2034 4750 
Q 2713 4750 3100 4426 
Q 3488 4103 3488 3541 
Q 3488 3116 3236 2842 
Q 2984 2569 2516 2484 
z
" transform="scale(0.015625)"/>
       </defs>
       <use xlink:href="#DejaVuSerif-30"/>
       <use xlink:href="#DejaVuSerif-2e" x="63.623047"/>
       <use xlink:href="#DejaVuSerif-38" x="95.410156"/>
      </g>
     </g>
    </g>
    <g id="xtick_6">
     <g id="line2d_6"/>
     <g id="text_6">
      <!-- 1.0 -->
      <g style="fill: #262626" transform="translate(375.031169 316.514156) scale(0.09 -0.09)">
       <defs>
        <path id="DejaVuSerif-31" d="M 909 0 
L 909 331 
L 1722 331 
L 1722 4213 
L 781 3603 
L 781 4013 
L 1919 4750 
L 2350 4750 
L 2350 331 
L 3163 331 
L 3163 0 
L 909 0 
z
" transform="scale(0.015625)"/>
       </defs>
       <use xlink:href="#DejaVuSerif-31"/>
       <use xlink:href="#DejaVuSerif-2e" x="63.623047"/>
       <use xlink:href="#DejaVuSerif-30" x="95.410156"/>
      </g>
     </g>
    </g>
    <g id="text_7">
     <!-- $x$ -->
     <g style="fill: #262626" transform="translate(215.120203 329.984312) scale(0.1 -0.1)">
      <defs>
       <path id="DejaVuSans-Oblique-78" d="M 3841 3500 
L 2234 1784 
L 3219 0 
L 2559 0 
L 1819 1388 
L 531 0 
L -166 0 
L 1556 1844 
L 641 3500 
L 1300 3500 
L 1972 2234 
L 3144 3500 
L 3841 3500 
z
" transform="scale(0.015625)"/>
      </defs>
      <use xlink:href="#DejaVuSans-Oblique-78" transform="translate(0 0.3125)"/>
     </g>
    </g>
   </g>
   <g id="matplotlib.axis_2">
    <g id="ytick_1">
     <g id="line2d_7"/>
     <g id="text_8">
      <!-- −8 -->
      <g style="fill: #262626" transform="translate(20.878125 272.540215) scale(0.09 -0.09)">
       <defs>
        <path id="DejaVuSerif-2212" d="M 678 2259 
L 4684 2259 
L 4684 1753 
L 678 1753 
L 678 2259 
z
" transform="scale(0.015625)"/>
       </defs>
       <use xlink:href="#DejaVuSerif-2212"/>
       <use xlink:href="#DejaVuSerif-38" x="83.789062"/>
      </g>
     </g>
    </g>
    <g id="ytick_2">
     <g id="line2d_8"/>
     <g id="text_9">
      <!-- −6 -->
      <g style="fill: #262626" transform="translate(20.878125 219.792776) scale(0.09 -0.09)">
       <use xlink:href="#DejaVuSerif-2212"/>
       <use xlink:href="#DejaVuSerif-36" x="83.789062"/>
      </g>
     </g>
    </g>
    <g id="ytick_3">
     <g id="line2d_9"/>
     <g id="text_10">
      <!-- −4 -->
      <g style="fill: #262626" transform="translate(20.878125 167.045337) scale(0.09 -0.09)">
       <use xlink:href="#DejaVuSerif-2212"/>
       <use xlink:href="#DejaVuSerif-34" x="83.789062"/>
      </g>
     </g>
    </g>
    <g id="ytick_4">
     <g id="line2d_10"/>
     <g id="text_11">
      <!-- −2 -->
      <g style="fill: #262626" transform="translate(20.878125 114.297898) scale(0.09 -0.09)">
       <use xlink:href="#DejaVuSerif-2212"/>
       <use xlink:href="#DejaVuSerif-32" x="83.789062"/>
      </g>
     </g>
    </g>
    <g id="ytick_5">
     <g id="line2d_11"/>
     <g id="text_12">
      <!-- 0 -->
      <g style="fill: #262626" transform="translate(28.419844 61.550458) scale(0.09 -0.09)">
       <use xlink:href="#DejaVuSerif-30"/>
      </g>
     </g>
    </g>
    <g id="text_13">
     <!-- $y$ -->
     <g style="fill: #262626" transform="translate(14.778125 166.487) rotate(-90) scale(0.1 -0.1)">
      <defs>
       <path id="DejaVuSans-Oblique-79" d="M 1588 -325 
Q 1188 -997 936 -1164 
Q 684 -1331 294 -1331 
L -159 -1331 
L -63 -850 
L 269 -850 
Q 509 -850 678 -719 
Q 847 -588 1056 -206 
L 1234 128 
L 459 3500 
L 1069 3500 
L 1650 819 
L 3256 3500 
L 3859 3500 
L 1588 -325 
z
" transform="scale(0.015625)"/>
      </defs>
      <use xlink:href="#DejaVuSans-Oblique-79" transform="translate(0 0.3125)"/>
     </g>
    </g>
   </g>
   <g id="PolyCollection_1">
    <defs>
     <path id="md5a1bcfaaa" d="M 54.052831 -200.907566 
L 54.052831 -160.629345 
L 57.367323 -163.238369 
L 60.681816 -165.927941 
L 63.996308 -168.820514 
L 67.3108 -172.037284 
L 70.625292 -175.668287 
L 73.939786 -179.758892 
L 77.254277 -184.311198 
L 80.56877 -189.290307 
L 83.883263 -194.634943 
L 87.197754 -200.265934 
L 90.512247 -206.09577 
L 93.826741 -212.036815 
L 97.141231 -218.006112 
L 100.455722 -223.931318 
L 103.770218 -229.750615 
L 107.084709 -235.414354 
L 110.3992 -240.880307 
L 113.713695 -246.112294 
L 117.028186 -251.075284 
L 120.342677 -255.731139 
L 123.657173 -260.035872 
L 126.971664 -263.933345 
L 130.286154 -267.35133 
L 133.60065 -270.193937 
L 136.915136 -272.335802 
L 140.229632 -273.627007 
L 143.544128 -273.928419 
L 146.858613 -273.180977 
L 150.173109 -271.451868 
L 153.487605 -268.897195 
L 156.802091 -265.690232 
L 160.116587 -261.97666 
L 163.431082 -257.863953 
L 166.745568 -253.422303 
L 170.060064 -248.688139 
L 173.37456 -243.665284 
L 176.689046 -238.325908 
L 180.003541 -232.614132 
L 183.318037 -226.452385 
L 186.632523 -219.755027 
L 189.947019 -212.447219 
L 193.261515 -204.48509 
L 196.576 -195.868306 
L 199.890496 -186.642311 
L 203.204992 -176.891118 
L 206.519478 -166.725962 
L 209.833974 -156.275117 
L 213.148469 -145.676165 
L 216.462955 -135.070913 
L 219.777441 -124.601896 
L 223.091937 -114.409865 
L 226.406433 -104.631961 
L 229.720928 -95.399363 
L 233.035424 -86.835619 
L 236.34992 -79.054124 
L 239.664396 -72.156117 
L 242.978892 -66.227956 
L 246.293387 -61.33862 
L 249.607883 -57.536049 
L 252.922379 -54.84361 
L 256.236875 -53.254862 
L 259.551351 -52.726621 
L 262.865847 -53.170679 
L 266.180342 -54.444121 
L 269.494838 -56.34674 
L 272.809334 -58.641678 
L 276.123829 -61.122288 
L 279.438306 -63.710876 
L 282.752801 -66.505281 
L 286.067297 -69.717335 
L 289.381793 -73.568386 
L 292.696288 -78.224513 
L 296.010765 -83.779771 
L 299.32526 -90.263212 
L 302.639756 -97.650399 
L 305.954252 -105.874731 
L 309.268748 -114.835134 
L 312.583243 -124.404265 
L 315.897719 -134.432884 
L 319.212215 -144.757264 
L 322.526711 -155.201984 
L 325.841207 -165.587119 
L 329.155702 -175.731991 
L 332.470198 -185.460622 
L 335.784674 -194.607559 
L 339.09917 -203.023039 
L 342.413666 -210.578204 
L 345.728161 -217.172696 
L 349.042657 -222.738997 
L 352.357153 -227.242564 
L 355.671629 -230.686519 
L 358.986125 -233.099788 
L 362.30062 -234.525007 
L 365.615116 -235.001856 
L 368.929612 -234.549454 
L 372.244108 -233.161162 
L 375.558584 -230.818019 
L 378.87308 -227.520556 
L 382.187575 -223.321798 
L 382.187575 -257.352403 
L 382.187575 -257.352403 
L 378.87308 -258.038698 
L 375.558584 -259.063477 
L 372.244108 -260.28193 
L 368.929612 -261.501896 
L 365.615116 -262.522823 
L 362.30062 -263.170141 
L 358.986125 -263.318088 
L 355.671629 -262.883294 
L 352.357153 -261.816025 
L 349.042657 -260.084111 
L 345.728161 -257.661338 
L 342.413666 -254.523886 
L 339.09917 -250.648802 
L 335.784674 -246.015909 
L 332.470198 -240.61513 
L 329.155702 -234.446661 
L 325.841207 -227.527819 
L 322.526711 -219.891715 
L 319.212215 -211.591003 
L 315.897719 -202.696907 
L 312.583243 -193.300029 
L 309.268748 -183.509058 
L 305.954252 -173.451175 
L 302.639756 -163.270777 
L 299.32526 -153.131188 
L 296.010765 -143.21486 
L 292.696288 -133.727951 
L 289.381793 -124.906436 
L 286.067297 -117.024611 
L 282.752801 -110.398232 
L 279.438306 -105.366046 
L 276.123829 -102.223286 
L 272.809334 -101.116424 
L 269.494838 -101.982204 
L 266.180342 -104.5949 
L 262.865847 -108.666558 
L 259.551351 -113.916875 
L 256.236875 -120.096103 
L 252.922379 -126.986539 
L 249.607883 -134.396124 
L 246.293387 -142.15458 
L 242.978892 -150.110402 
L 239.664396 -158.130173 
L 236.34992 -166.098546 
L 233.035424 -173.918976 
L 229.720928 -181.514145 
L 226.406433 -188.826643 
L 223.091937 -195.819323 
L 219.777441 -202.474941 
L 216.462955 -208.795799 
L 213.148469 -214.802346 
L 209.833974 -220.531719 
L 206.519478 -226.034687 
L 203.204992 -231.371623 
L 199.890496 -236.606603 
L 196.576 -241.797573 
L 193.261515 -246.984963 
L 189.947019 -252.178235 
L 186.632523 -257.34684 
L 183.318037 -262.420373 
L 180.003541 -267.299664 
L 176.689046 -271.875149 
L 173.37456 -276.044432 
L 170.060064 -279.725141 
L 166.745568 -282.860403 
L 163.431082 -285.422744 
L 160.116587 -287.414419 
L 156.802091 -288.870061 
L 153.487605 -289.860737 
L 150.173109 -290.495889 
L 146.858613 -290.914925 
L 143.544128 -291.243578 
L 140.229632 -291.524295 
L 136.915136 -291.680614 
L 133.60065 -291.565601 
L 130.286154 -291.032441 
L 126.971664 -289.971118 
L 123.657173 -288.315527 
L 120.342677 -286.037079 
L 117.028186 -283.139129 
L 113.713695 -279.652273 
L 110.3992 -275.627881 
L 107.084709 -271.134533 
L 103.770218 -266.252906 
L 100.455722 -261.06909 
L 97.141231 -255.670867 
L 93.826741 -250.141176 
L 90.512247 -244.557423 
L 87.197754 -238.987998 
L 83.883263 -233.496173 
L 80.56877 -228.141312 
L 77.254277 -222.98502 
L 73.939786 -218.097778 
L 70.625292 -213.56538 
L 67.3108 -209.496526 
L 63.996308 -206.02808 
L 60.681816 -203.324844 
L 57.367323 -201.564554 
L 54.052831 -200.907566 
z
" style="stroke: #4c72b0; stroke-opacity: 0.5; stroke-width: 0.8"/>
    </defs>
    <g clip-path="url(#pcd9b493cfb)">
     <use xlink:href="#md5a1bcfaaa" x="0" y="339.264" style="fill: #4c72b0; fill-opacity: 0.5; stroke: #4c72b0; stroke-opacity: 0.5; stroke-width: 0.8"/>
    </g>
   </g>
   <g id="PolyCollection_2">
    <defs>
     <path id="m6c2a699342" d="M 54.052831 -160.629345 
L 54.052831 -151.60083 
L 57.367323 -153.898988 
L 60.681816 -156.434216 
L 63.996308 -159.294821 
L 67.3108 -162.554047 
L 70.625292 -166.258161 
L 73.939786 -170.421599 
L 77.254277 -175.028478 
L 80.56877 -180.036255 
L 83.883263 -185.382538 
L 87.197754 -190.991043 
L 90.512247 -196.778542 
L 93.826741 -202.660977 
L 97.141231 -208.557308 
L 100.455722 -214.393791 
L 103.770218 -220.104249 
L 107.084709 -225.631187 
L 110.3992 -230.922516 
L 113.713695 -235.930487 
L 117.028186 -240.608352 
L 120.342677 -244.907595 
L 123.657173 -248.77685 
L 126.971664 -252.15993 
L 130.286154 -254.997558 
L 133.60065 -257.22911 
L 136.915136 -258.797819 
L 140.229632 -259.657428 
L 143.544128 -259.77985 
L 146.858613 -259.161493 
L 150.173109 -257.82576 
L 153.487605 -255.8198 
L 156.802091 -253.20749 
L 160.116587 -250.059454 
L 163.431082 -246.443379 
L 166.745568 -242.415547 
L 170.060064 -238.015219 
L 173.37456 -233.260329 
L 176.689046 -228.145852 
L 180.003541 -222.645023 
L 183.318037 -216.712913 
L 186.632523 -210.294025 
L 189.947019 -203.333339 
L 193.261515 -195.789631 
L 196.576 -187.647344 
L 199.890496 -178.92469 
L 203.204992 -169.67563 
L 206.519478 -159.985984 
L 209.833974 -149.966533 
L 213.148469 -139.745137 
L 216.462955 -129.459755 
L 219.777441 -119.252758 
L 223.091937 -109.266571 
L 226.406433 -99.640521 
L 229.720928 -90.507764 
L 233.035424 -81.992965 
L 236.34992 -74.209509 
L 239.664396 -67.257324 
L 242.978892 -61.219928 
L 246.293387 -56.161823 
L 249.607883 -52.125062 
L 252.922379 -49.126121 
L 256.236875 -47.151996 
L 259.551351 -46.156885 
L 262.865847 -46.060125 
L 266.180342 -46.748458 
L 269.494838 -48.086919 
L 272.809334 -49.942553 
L 276.123829 -52.219609 
L 279.438306 -54.891273 
L 282.752801 -58.008126 
L 286.067297 -61.674575 
L 289.381793 -66.009939 
L 292.696288 -71.114726 
L 296.010765 -77.051477 
L 299.32526 -83.838752 
L 302.639756 -91.45193 
L 305.954252 -99.828155 
L 309.268748 -108.870805 
L 312.583243 -118.456309 
L 315.897719 -128.438083 
L 319.212215 -138.653845 
L 322.526711 -148.928764 
L 325.841207 -159.08308 
L 329.155702 -168.936603 
L 332.470198 -178.315088 
L 335.784674 -187.057091 
L 339.09917 -195.020516 
L 342.413666 -202.088406 
L 345.728161 -208.176646 
L 349.042657 -213.236544 
L 352.357153 -217.252975 
L 355.671629 -220.245792 
L 358.986125 -222.257959 
L 362.30062 -223.346542 
L 365.615116 -223.572708 
L 368.929612 -222.990195 
L 372.244108 -221.640662 
L 375.558584 -219.551416 
L 378.87308 -216.741083 
L 382.187575 -213.231985 
L 382.187575 -223.321798 
L 382.187575 -223.321798 
L 378.87308 -227.520556 
L 375.558584 -230.818019 
L 372.244108 -233.161162 
L 368.929612 -234.549454 
L 365.615116 -235.001856 
L 362.30062 -234.525007 
L 358.986125 -233.099788 
L 355.671629 -230.686519 
L 352.357153 -227.242564 
L 349.042657 -222.738997 
L 345.728161 -217.172696 
L 342.413666 -210.578204 
L 339.09917 -203.023039 
L 335.784674 -194.607559 
L 332.470198 -185.460622 
L 329.155702 -175.731991 
L 325.841207 -165.587119 
L 322.526711 -155.201984 
L 319.212215 -144.757264 
L 315.897719 -134.432884 
L 312.583243 -124.404265 
L 309.268748 -114.835134 
L 305.954252 -105.874731 
L 302.639756 -97.650399 
L 299.32526 -90.263212 
L 296.010765 -83.779771 
L 292.696288 -78.224513 
L 289.381793 -73.568386 
L 286.067297 -69.717335 
L 282.752801 -66.505281 
L 279.438306 -63.710876 
L 276.123829 -61.122288 
L 272.809334 -58.641678 
L 269.494838 -56.34674 
L 266.180342 -54.444121 
L 262.865847 -53.170679 
L 259.551351 -52.726621 
L 256.236875 -53.254862 
L 252.922379 -54.84361 
L 249.607883 -57.536049 
L 246.293387 -61.33862 
L 242.978892 -66.227956 
L 239.664396 -72.156117 
L 236.34992 -79.054124 
L 233.035424 -86.835619 
L 229.720928 -95.399363 
L 226.406433 -104.631961 
L 223.091937 -114.409865 
L 219.777441 -124.601896 
L 216.462955 -135.070913 
L 213.148469 -145.676165 
L 209.833974 -156.275117 
L 206.519478 -166.725962 
L 203.204992 -176.891118 
L 199.890496 -186.642311 
L 196.576 -195.868306 
L 193.261515 -204.48509 
L 189.947019 -212.447219 
L 186.632523 -219.755027 
L 183.318037 -226.452385 
L 180.003541 -232.614132 
L 176.689046 -238.325908 
L 173.37456 -243.665284 
L 170.060064 -248.688139 
L 166.745568 -253.422303 
L 163.431082 -257.863953 
L 160.116587 -261.97666 
L 156.802091 -265.690232 
L 153.487605 -268.897195 
L 150.173109 -271.451868 
L 146.858613 -273.180977 
L 143.544128 -273.928419 
L 140.229632 -273.627007 
L 136.915136 -272.335802 
L 133.60065 -270.193937 
L 130.286154 -267.35133 
L 126.971664 -263.933345 
L 123.657173 -260.035872 
L 120.342677 -255.731139 
L 117.028186 -251.075284 
L 113.713695 -246.112294 
L 110.3992 -240.880307 
L 107.084709 -235.414354 
L 103.770218 -229.750615 
L 100.455722 -223.931318 
L 97.141231 -218.006112 
L 93.826741 -212.036815 
L 90.512247 -206.09577 
L 87.197754 -200.265934 
L 83.883263 -194.634943 
L 80.56877 -189.290307 
L 77.254277 -184.311198 
L 73.939786 -179.758892 
L 70.625292 -175.668287 
L 67.3108 -172.037284 
L 63.996308 -168.820514 
L 60.681816 -165.927941 
L 57.367323 -163.238369 
L 54.052831 -160.629345 
z
" style="stroke: #dd8452; stroke-opacity: 0.5; stroke-width: 0.8"/>
    </defs>
    <g clip-path="url(#pcd9b493cfb)">
     <use xlink:href="#m6c2a699342" x="0" y="339.264" style="fill: #dd8452; fill-opacity: 0.5; stroke: #dd8452; stroke-opacity: 0.5; stroke-width: 0.8"/>
    </g>
   </g>
   <g id="PolyCollection_3">
    <defs>
     <path id="m484c84e1be" d="M 54.052831 -209.936081 
L 54.052831 -200.907566 
L 57.367323 -201.564554 
L 60.681816 -203.324844 
L 63.996308 -206.02808 
L 67.3108 -209.496526 
L 70.625292 -213.56538 
L 73.939786 -218.097778 
L 77.254277 -222.98502 
L 80.56877 -228.141312 
L 83.883263 -233.496173 
L 87.197754 -238.987998 
L 90.512247 -244.557423 
L 93.826741 -250.141176 
L 97.141231 -255.670867 
L 100.455722 -261.06909 
L 103.770218 -266.252906 
L 107.084709 -271.134533 
L 110.3992 -275.627881 
L 113.713695 -279.652273 
L 117.028186 -283.139129 
L 120.342677 -286.037079 
L 123.657173 -288.315527 
L 126.971664 -289.971118 
L 130.286154 -291.032441 
L 133.60065 -291.565601 
L 136.915136 -291.680614 
L 140.229632 -291.524295 
L 143.544128 -291.243578 
L 146.858613 -290.914925 
L 150.173109 -290.495889 
L 153.487605 -289.860737 
L 156.802091 -288.870061 
L 160.116587 -287.414419 
L 163.431082 -285.422744 
L 166.745568 -282.860403 
L 170.060064 -279.725141 
L 173.37456 -276.044432 
L 176.689046 -271.875149 
L 180.003541 -267.299664 
L 183.318037 -262.420373 
L 186.632523 -257.34684 
L 189.947019 -252.178235 
L 193.261515 -246.984963 
L 196.576 -241.797573 
L 199.890496 -236.606603 
L 203.204992 -231.371623 
L 206.519478 -226.034687 
L 209.833974 -220.531719 
L 213.148469 -214.802346 
L 216.462955 -208.795799 
L 219.777441 -202.474941 
L 223.091937 -195.819323 
L 226.406433 -188.826643 
L 229.720928 -181.514145 
L 233.035424 -173.918976 
L 236.34992 -166.098546 
L 239.664396 -158.130173 
L 242.978892 -150.110402 
L 246.293387 -142.15458 
L 249.607883 -134.396124 
L 252.922379 -126.986539 
L 256.236875 -120.096103 
L 259.551351 -113.916875 
L 262.865847 -108.666558 
L 266.180342 -104.5949 
L 269.494838 -101.982204 
L 272.809334 -101.116424 
L 276.123829 -102.223286 
L 279.438306 -105.366046 
L 282.752801 -110.398232 
L 286.067297 -117.024611 
L 289.381793 -124.906436 
L 292.696288 -133.727951 
L 296.010765 -143.21486 
L 299.32526 -153.131188 
L 302.639756 -163.270777 
L 305.954252 -173.451175 
L 309.268748 -183.509058 
L 312.583243 -193.300029 
L 315.897719 -202.696907 
L 319.212215 -211.591003 
L 322.526711 -219.891715 
L 325.841207 -227.527819 
L 329.155702 -234.446661 
L 332.470198 -240.61513 
L 335.784674 -246.015909 
L 339.09917 -250.648802 
L 342.413666 -254.523886 
L 345.728161 -257.661338 
L 349.042657 -260.084111 
L 352.357153 -261.816025 
L 355.671629 -262.883294 
L 358.986125 -263.318088 
L 362.30062 -263.170141 
L 365.615116 -262.522823 
L 368.929612 -261.501896 
L 372.244108 -260.28193 
L 375.558584 -259.063477 
L 378.87308 -258.038698 
L 382.187575 -257.352403 
L 382.187575 -267.442214 
L 382.187575 -267.442214 
L 378.87308 -268.818176 
L 375.558584 -270.330081 
L 372.244108 -271.80243 
L 368.929612 -273.061155 
L 365.615116 -273.951973 
L 362.30062 -274.348606 
L 358.986125 -274.159913 
L 355.671629 -273.324026 
L 352.357153 -271.805616 
L 349.042657 -269.586564 
L 345.728161 -266.657388 
L 342.413666 -263.013687 
L 339.09917 -258.651325 
L 335.784674 -253.566376 
L 332.470198 -247.760661 
L 329.155702 -241.242055 
L 325.841207 -234.031856 
L 322.526711 -226.164936 
L 319.212215 -217.694429 
L 315.897719 -208.691708 
L 312.583243 -199.247978 
L 309.268748 -189.473382 
L 305.954252 -179.497751 
L 302.639756 -169.469246 
L 299.32526 -159.555647 
L 296.010765 -149.943154 
L 292.696288 -140.837737 
L 289.381793 -132.464896 
L 286.067297 -125.067371 
L 282.752801 -118.895387 
L 279.438306 -114.185636 
L 276.123829 -111.125965 
L 272.809334 -109.815524 
L 269.494838 -110.242051 
L 266.180342 -112.290563 
L 262.865847 -115.777125 
L 259.551351 -120.486637 
L 256.236875 -126.198944 
L 252.922379 -132.70404 
L 249.607883 -139.807111 
L 246.293387 -147.331364 
L 242.978892 -155.11843 
L 239.664396 -163.028966 
L 236.34992 -170.943162 
L 233.035424 -178.761636 
L 229.720928 -186.405744 
L 226.406433 -193.818083 
L 223.091937 -200.962618 
L 219.777441 -207.824079 
L 216.462955 -214.406951 
L 213.148469 -220.733375 
L 209.833974 -226.840303 
L 206.519478 -232.774664 
L 203.204992 -238.587111 
L 199.890496 -244.324218 
L 196.576 -250.018532 
L 193.261515 -255.680419 
L 189.947019 -261.292115 
L 186.632523 -266.807841 
L 183.318037 -272.15985 
L 180.003541 -277.268768 
L 176.689046 -282.055204 
L 173.37456 -286.449386 
L 170.060064 -290.398062 
L 166.745568 -293.86716 
L 163.431082 -296.843318 
L 160.116587 -299.331623 
L 156.802091 -301.352805 
L 153.487605 -302.938131 
L 150.173109 -304.121997 
L 146.858613 -304.934409 
L 143.544128 -305.392146 
L 140.229632 -305.493875 
L 136.915136 -305.218596 
L 133.60065 -304.530428 
L 130.286154 -303.386213 
L 126.971664 -301.74453 
L 123.657173 -299.574547 
L 120.342677 -296.860621 
L 117.028186 -293.606059 
L 113.713695 -289.83408 
L 110.3992 -285.585672 
L 107.084709 -280.917698 
L 103.770218 -275.89927 
L 100.455722 -270.606614 
L 97.141231 -265.119668 
L 93.826741 -259.517014 
L 90.512247 -253.874651 
L 87.197754 -248.262892 
L 83.883263 -242.748575 
L 80.56877 -237.395365 
L 77.254277 -232.267733 
L 73.939786 -227.435071 
L 70.625292 -222.975507 
L 67.3108 -218.979763 
L 63.996308 -215.553773 
L 60.681816 -212.818575 
L 57.367323 -210.903934 
L 54.052831 -209.936081 
z
" style="stroke: #dd8452; stroke-opacity: 0.5; stroke-width: 0.8"/>
    </defs>
    <g clip-path="url(#pcd9b493cfb)">
     <use xlink:href="#m484c84e1be" x="0" y="339.264" style="fill: #dd8452; fill-opacity: 0.5; stroke: #dd8452; stroke-opacity: 0.5; stroke-width: 0.8"/>
    </g>
   </g>
   <g id="line2d_12">
    <defs>
     <path id="m788c668984" d="M -5 5 
L 5 -5 
M -5 -5 
L 5 5 
" style="stroke: #000000; stroke-width: 2"/>
    </defs>
    <g clip-path="url(#pcd9b493cfb)">
     <use xlink:href="#m788c668984" x="95.716043" y="105.545226" style="stroke: #000000; stroke-width: 2"/>
     <use xlink:href="#m788c668984" x="371.266542" y="76.748974" style="stroke: #000000; stroke-width: 2"/>
     <use xlink:href="#m788c668984" x="139.524054" y="45.382095" style="stroke: #000000; stroke-width: 2"/>
     <use xlink:href="#m788c668984" x="348.467309" y="98.395901" style="stroke: #000000; stroke-width: 2"/>
     <use xlink:href="#m788c668984" x="189.947019" y="106.767931" style="stroke: #000000; stroke-width: 2"/>
     <use xlink:href="#m788c668984" x="276.123829" y="266.376402" style="stroke: #000000; stroke-width: 2"/>
     <use xlink:href="#m788c668984" x="146.858613" y="59.581076" style="stroke: #000000; stroke-width: 2"/>
     <use xlink:href="#m788c668984" x="150.173109" y="60.88711" style="stroke: #000000; stroke-width: 2"/>
     <use xlink:href="#m788c668984" x="54.052831" y="162.856453" style="stroke: #000000; stroke-width: 2"/>
     <use xlink:href="#m788c668984" x="382.187575" y="114.747692" style="stroke: #000000; stroke-width: 2"/>
     <use xlink:href="#m788c668984" x="136.915136" y="58.157747" style="stroke: #000000; stroke-width: 2"/>
     <use xlink:href="#m788c668984" x="140.229632" y="58.216514" style="stroke: #000000; stroke-width: 2"/>
     <use xlink:href="#m788c668984" x="150.173109" y="60.88711" style="stroke: #000000; stroke-width: 2"/>
    </g>
   </g>
   <g id="line2d_13">
    <path d="M 54.052831 158.495547 
L 57.367323 156.862539 
L 60.681816 154.637605 
L 63.996308 151.839703 
L 67.3108 148.497098 
L 70.625292 144.647166 
L 73.939786 140.335665 
L 77.254277 135.615891 
L 80.56877 130.54819 
L 83.883263 125.198442 
L 87.197754 119.637034 
L 90.512247 113.937403 
L 93.826741 108.175006 
L 97.141231 102.425512 
L 100.455722 96.763798 
L 103.770218 91.262239 
L 107.084709 85.989556 
L 110.3992 81.009906 
L 113.713695 76.381716 
L 117.028186 72.156794 
L 120.342677 68.379891 
L 123.657173 65.088301 
L 126.971664 62.311769 
L 130.286154 60.072114 
L 133.60065 58.384231 
L 136.915136 57.255792 
L 140.229632 56.688349 
L 143.544128 56.678002 
L 146.858613 57.216049 
L 150.173109 58.290122 
L 153.487605 59.885034 
L 156.802091 61.983854 
L 160.116587 64.568461 
L 163.431082 67.620652 
L 166.745568 71.122647 
L 170.060064 75.05736 
L 173.37456 79.409142 
L 176.689046 84.163472 
L 180.003541 89.307103 
L 183.318037 94.82762 
L 186.632523 100.713067 
L 189.947019 106.951273 
L 193.261515 113.528974 
L 196.576 120.431062 
L 199.890496 127.639545 
L 203.204992 135.132628 
L 206.519478 142.883676 
L 209.833974 150.860582 
L 213.148469 159.024744 
L 216.462955 167.330644 
L 219.777441 175.725581 
L 223.091937 184.149406 
L 226.406433 192.534698 
L 229.720928 200.807246 
L 233.035424 208.886703 
L 236.34992 216.687665 
L 239.664396 224.120855 
L 242.978892 231.094821 
L 246.293387 237.517406 
L 249.607883 243.297913 
L 252.922379 248.348926 
L 256.236875 252.588524 
L 259.551351 255.942246 
L 262.865847 258.345375 
L 266.180342 259.744489 
L 269.494838 260.099522 
L 272.809334 259.384955 
L 276.123829 257.591219 
L 279.438306 254.725546 
L 282.752801 250.812244 
L 286.067297 245.893027 
L 289.381793 240.026589 
L 292.696288 233.287768 
L 296.010765 225.766685 
L 299.32526 217.5668 
L 302.639756 208.803412 
L 305.954252 199.601047 
L 309.268748 190.091904 
L 312.583243 180.411853 
L 315.897719 170.699105 
L 319.212215 161.089863 
L 322.526711 151.71715 
L 325.841207 142.706531 
L 329.155702 134.174672 
L 332.470198 126.226125 
L 335.784674 118.952266 
L 339.09917 112.42808 
L 342.413666 106.712955 
L 345.728161 101.846983 
L 349.042657 97.852446 
L 352.357153 94.734706 
L 355.671629 92.479093 
L 358.986125 91.055062 
L 362.30062 90.416426 
L 365.615116 90.50166 
L 368.929612 91.238325 
L 372.244108 92.542453 
L 375.558584 94.323252 
L 378.87308 96.484372 
L 382.187575 98.926899 
" clip-path="url(#pcd9b493cfb)" style="fill: none; stroke: #4c72b0; stroke-width: 2; stroke-linecap: round"/>
   </g>
   <g id="line2d_14">
    <path d="M 54.052831 162.856453 
L 57.367323 156.420349 
L 60.681816 150.008126 
L 63.996308 143.643566 
L 67.3108 137.350363 
L 70.625292 131.151944 
L 73.939786 125.071513 
L 77.254277 119.131864 
L 80.56877 113.355337 
L 83.883263 107.763784 
L 87.197754 102.378421 
L 90.512247 97.219802 
L 93.826741 92.307736 
L 97.141231 87.661217 
L 100.455722 83.298342 
L 103.770218 79.236304 
L 107.084709 75.491269 
L 110.3992 72.078352 
L 113.713695 69.011544 
L 117.028186 66.303699 
L 120.342677 63.966468 
L 123.657173 62.010238 
L 126.971664 60.444127 
L 130.286154 59.275939 
L 133.60065 58.512119 
L 136.915136 58.157747 
L 140.229632 58.216514 
L 143.544128 58.690679 
L 146.858613 59.581076 
L 150.173109 60.88711 
L 153.487605 62.606716 
L 156.802091 64.736362 
L 160.116587 67.271093 
L 163.431082 70.204438 
L 166.745568 73.528506 
L 170.060064 77.233927 
L 173.37456 81.30988 
L 176.689046 85.744098 
L 180.003541 90.522853 
L 183.318037 95.631042 
L 186.632523 101.052052 
L 189.947019 106.767931 
L 193.261515 112.759249 
L 196.576 119.005255 
L 199.890496 125.483741 
L 203.204992 132.171094 
L 206.519478 139.042333 
L 209.833974 146.071106 
L 213.148469 153.229599 
L 216.462955 160.488656 
L 219.777441 167.817673 
L 223.091937 175.184664 
L 226.406433 182.556156 
L 229.720928 189.897303 
L 233.035424 197.171671 
L 236.34992 204.34137 
L 239.664396 211.367061 
L 242.978892 218.207911 
L 246.293387 224.821437 
L 249.607883 231.163675 
L 252.922379 237.189186 
L 256.236875 242.850951 
L 259.551351 248.100374 
L 262.865847 252.887769 
L 266.180342 257.161851 
L 269.494838 260.870278 
L 272.809334 263.959803 
L 276.123829 266.376402 
L 279.438306 268.065744 
L 282.752801 268.973591 
L 286.067297 269.046368 
L 289.381793 268.231873 
L 292.696288 266.480216 
L 296.010765 263.744855 
L 299.32526 259.983848 
L 302.639756 255.161668 
L 305.954252 249.250836 
L 309.268748 242.234326 
L 312.583243 234.108237 
L 315.897719 224.884619 
L 319.212215 214.594872 
L 322.526711 203.294144 
L 325.841207 191.064919 
L 329.155702 178.022104 
L 332.470198 164.317643 
L 335.784674 150.145475 
L 339.09917 135.746298 
L 342.413666 121.411352 
L 345.728161 107.485585 
L 349.042657 94.368836 
L 352.357153 82.513677 
L 355.671629 72.420154 
L 358.986125 64.625002 
L 362.30062 59.683916 
L 365.615116 58.145781 
L 368.929612 60.516647 
L 372.244108 67.212508 
L 375.558584 78.500459 
L 378.87308 94.428553 
L 382.187575 114.747692 
" clip-path="url(#pcd9b493cfb)" style="fill: none; stroke-dasharray: 6.4,1.6,1,1.6; stroke-dashoffset: 0; stroke: #bf00bf"/>
   </g>
   <g id="patch_3">
    <path d="M 37.646094 269.120919 
L 37.646094 58.131161 
" style="fill: none; stroke: #262626; stroke-width: 0.5; stroke-linejoin: miter; stroke-linecap: square"/>
   </g>
   <g id="patch_4">
    <path d="M 54.052831 306.175562 
L 382.187575 306.175562 
" style="fill: none; stroke: #262626; stroke-width: 0.5; stroke-linejoin: miter; stroke-linecap: square"/>
   </g>
   <g id="text_14">
    <!-- N=8,  -->
    <g style="fill: #262626" transform="translate(203.195984 14.798437) scale(0.1 -0.1)">
     <defs>
      <path id="DejaVuSerif-4e" d="M 313 0 
L 313 331 
L 941 331 
L 941 4331 
L 313 4331 
L 313 4666 
L 1509 4666 
L 4306 984 
L 4306 4331 
L 3681 4331 
L 3681 4666 
L 5319 4666 
L 5319 4331 
L 4691 4331 
L 4691 -91 
L 4313 -91 
L 1325 3841 
L 1325 331 
L 1953 331 
L 1953 0 
L 313 0 
z
" transform="scale(0.015625)"/>
      <path id="DejaVuSerif-3d" d="M 678 2894 
L 4684 2894 
L 4684 2394 
L 678 2394 
L 678 2894 
z
M 678 1619 
L 4684 1619 
L 4684 1119 
L 678 1119 
L 678 1619 
z
" transform="scale(0.015625)"/>
      <path id="DejaVuSerif-2c" d="M 231 -622 
Q 525 -406 662 -114 
Q 800 178 800 594 
L 800 709 
L 1416 709 
Q 1391 175 1164 -208 
Q 938 -591 481 -872 
L 231 -622 
z
" transform="scale(0.015625)"/>
      <path id="DejaVuSerif-20" transform="scale(0.015625)"/>
     </defs>
     <use xlink:href="#DejaVuSerif-4e"/>
     <use xlink:href="#DejaVuSerif-3d" x="87.5"/>
     <use xlink:href="#DejaVuSerif-38" x="171.289062"/>
     <use xlink:href="#DejaVuSerif-2c" x="234.912109"/>
     <use xlink:href="#DejaVuSerif-20" x="266.699219"/>
    </g>
   </g>
   <g id="legend_1">
    <g id="line2d_15">
     <g>
      <use xlink:href="#m788c668984" x="54.746094" y="237.473219" style="stroke: #000000; stroke-width: 2"/>
     </g>
    </g>
    <g id="text_15">
     <!-- Observations -->
     <g style="fill: #262626" transform="translate(70.946094 240.623219) scale(0.09 -0.09)">
      <defs>
       <path id="DejaVuSerif-4f" d="M 2625 244 
Q 3391 244 3781 770 
Q 4172 1297 4172 2328 
Q 4172 3363 3781 3889 
Q 3391 4416 2625 4416 
Q 1856 4416 1465 3889 
Q 1075 3363 1075 2328 
Q 1075 1297 1465 770 
Q 1856 244 2625 244 
z
M 2625 -91 
Q 2150 -91 1751 65 
Q 1353 222 1050 525 
Q 700 875 529 1319 
Q 359 1763 359 2328 
Q 359 2894 529 3339 
Q 700 3784 1050 4134 
Q 1356 4441 1750 4595 
Q 2144 4750 2625 4750 
Q 3641 4750 4266 4084 
Q 4891 3419 4891 2328 
Q 4891 1769 4719 1320 
Q 4547 872 4197 525 
Q 3891 219 3497 64 
Q 3103 -91 2625 -91 
z
" transform="scale(0.015625)"/>
       <path id="DejaVuSerif-62" d="M 738 331 
L 738 4531 
L 184 4531 
L 184 4863 
L 1313 4863 
L 1313 2803 
Q 1481 3116 1742 3264 
Q 2003 3413 2388 3413 
Q 3000 3413 3387 2928 
Q 3775 2444 3775 1663 
Q 3775 881 3387 395 
Q 3000 -91 2388 -91 
Q 2003 -91 1742 57 
Q 1481 206 1313 519 
L 1313 0 
L 184 0 
L 184 331 
L 738 331 
z
M 1313 1497 
Q 1313 897 1542 583 
Q 1772 269 2209 269 
Q 2650 269 2876 622 
Q 3103 975 3103 1663 
Q 3103 2353 2876 2703 
Q 2650 3053 2209 3053 
Q 1772 3053 1542 2737 
Q 1313 2422 1313 1825 
L 1313 1497 
z
" transform="scale(0.015625)"/>
       <path id="DejaVuSerif-73" d="M 359 184 
L 359 959 
L 691 959 
Q 703 588 923 403 
Q 1144 219 1575 219 
Q 1963 219 2166 364 
Q 2369 509 2369 788 
Q 2369 1006 2220 1140 
Q 2072 1275 1594 1428 
L 1178 1569 
Q 750 1706 558 1912 
Q 366 2119 366 2438 
Q 366 2894 700 3153 
Q 1034 3413 1625 3413 
Q 1888 3413 2178 3344 
Q 2469 3275 2778 3144 
L 2778 2419 
L 2447 2419 
Q 2434 2741 2221 2922 
Q 2009 3103 1644 3103 
Q 1281 3103 1095 2975 
Q 909 2847 909 2591 
Q 909 2381 1050 2254 
Q 1191 2128 1613 1997 
L 2069 1856 
Q 2541 1709 2748 1489 
Q 2956 1269 2956 922 
Q 2956 450 2595 179 
Q 2234 -91 1600 -91 
Q 1278 -91 972 -22 
Q 666 47 359 184 
z
" transform="scale(0.015625)"/>
       <path id="DejaVuSerif-65" d="M 3469 1600 
L 991 1600 
L 991 1575 
Q 991 903 1244 561 
Q 1497 219 1991 219 
Q 2369 219 2611 417 
Q 2853 616 2950 1006 
L 3413 1006 
Q 3275 459 2904 184 
Q 2534 -91 1931 -91 
Q 1203 -91 761 389 
Q 319 869 319 1663 
Q 319 2450 753 2931 
Q 1188 3413 1894 3413 
Q 2647 3413 3050 2948 
Q 3453 2484 3469 1600 
z
M 2791 1931 
Q 2772 2513 2545 2808 
Q 2319 3103 1894 3103 
Q 1497 3103 1269 2806 
Q 1041 2509 991 1931 
L 2791 1931 
z
" transform="scale(0.015625)"/>
       <path id="DejaVuSerif-72" d="M 3059 3328 
L 3059 2497 
L 2728 2497 
Q 2713 2744 2591 2866 
Q 2469 2988 2234 2988 
Q 1809 2988 1582 2694 
Q 1356 2400 1356 1850 
L 1356 331 
L 2022 331 
L 2022 0 
L 263 0 
L 263 331 
L 781 331 
L 781 2994 
L 231 2994 
L 231 3322 
L 1356 3322 
L 1356 2731 
Q 1525 3078 1790 3245 
Q 2056 3413 2438 3413 
Q 2578 3413 2733 3391 
Q 2888 3369 3059 3328 
z
" transform="scale(0.015625)"/>
       <path id="DejaVuSerif-76" d="M 1581 0 
L 359 2988 
L -19 2988 
L -19 3322 
L 1509 3322 
L 1509 2988 
L 978 2988 
L 1913 703 
L 2847 2988 
L 2350 2988 
L 2350 3322 
L 3597 3322 
L 3597 2988 
L 3225 2988 
L 2003 0 
L 1581 0 
z
" transform="scale(0.015625)"/>
       <path id="DejaVuSerif-61" d="M 2547 1044 
L 2547 1747 
L 1806 1747 
Q 1378 1747 1168 1562 
Q 959 1378 959 997 
Q 959 650 1171 447 
Q 1384 244 1747 244 
Q 2106 244 2326 466 
Q 2547 688 2547 1044 
z
M 3122 2075 
L 3122 331 
L 3634 331 
L 3634 0 
L 2547 0 
L 2547 359 
Q 2356 128 2106 18 
Q 1856 -91 1522 -91 
Q 969 -91 644 203 
Q 319 497 319 997 
Q 319 1513 691 1797 
Q 1063 2081 1741 2081 
L 2547 2081 
L 2547 2309 
Q 2547 2688 2317 2895 
Q 2088 3103 1672 3103 
Q 1328 3103 1125 2947 
Q 922 2791 872 2484 
L 575 2484 
L 575 3156 
Q 875 3284 1158 3348 
Q 1441 3413 1709 3413 
Q 2400 3413 2761 3070 
Q 3122 2728 3122 2075 
z
" transform="scale(0.015625)"/>
       <path id="DejaVuSerif-74" d="M 691 2988 
L 184 2988 
L 184 3322 
L 691 3322 
L 691 4353 
L 1269 4353 
L 1269 3322 
L 2350 3322 
L 2350 2988 
L 1269 2988 
L 1269 878 
Q 1269 456 1350 337 
Q 1431 219 1650 219 
Q 1875 219 1978 351 
Q 2081 484 2088 781 
L 2522 781 
Q 2497 328 2275 118 
Q 2053 -91 1600 -91 
Q 1103 -91 897 129 
Q 691 350 691 878 
L 691 2988 
z
" transform="scale(0.015625)"/>
       <path id="DejaVuSerif-69" d="M 622 4353 
Q 622 4497 726 4603 
Q 831 4709 978 4709 
Q 1122 4709 1226 4603 
Q 1331 4497 1331 4353 
Q 1331 4206 1228 4103 
Q 1125 4000 978 4000 
Q 831 4000 726 4103 
Q 622 4206 622 4353 
z
M 1356 331 
L 1900 331 
L 1900 0 
L 231 0 
L 231 331 
L 781 331 
L 781 2988 
L 231 2988 
L 231 3322 
L 1356 3322 
L 1356 331 
z
" transform="scale(0.015625)"/>
       <path id="DejaVuSerif-6f" d="M 1925 219 
Q 2388 219 2623 584 
Q 2859 950 2859 1663 
Q 2859 2375 2623 2739 
Q 2388 3103 1925 3103 
Q 1463 3103 1227 2739 
Q 991 2375 991 1663 
Q 991 950 1228 584 
Q 1466 219 1925 219 
z
M 1925 -91 
Q 1200 -91 759 389 
Q 319 869 319 1663 
Q 319 2456 758 2934 
Q 1197 3413 1925 3413 
Q 2653 3413 3092 2934 
Q 3531 2456 3531 1663 
Q 3531 869 3092 389 
Q 2653 -91 1925 -91 
z
" transform="scale(0.015625)"/>
       <path id="DejaVuSerif-6e" d="M 263 0 
L 263 331 
L 781 331 
L 781 2988 
L 231 2988 
L 231 3322 
L 1356 3322 
L 1356 2731 
Q 1516 3069 1770 3241 
Q 2025 3413 2363 3413 
Q 2913 3413 3172 3097 
Q 3431 2781 3431 2113 
L 3431 331 
L 3944 331 
L 3944 0 
L 2356 0 
L 2356 331 
L 2853 331 
L 2853 1931 
Q 2853 2541 2703 2767 
Q 2553 2994 2175 2994 
Q 1775 2994 1565 2701 
Q 1356 2409 1356 1850 
L 1356 331 
L 1856 331 
L 1856 0 
L 263 0 
z
" transform="scale(0.015625)"/>
      </defs>
      <use xlink:href="#DejaVuSerif-4f"/>
      <use xlink:href="#DejaVuSerif-62" x="81.982422"/>
      <use xlink:href="#DejaVuSerif-73" x="145.996094"/>
      <use xlink:href="#DejaVuSerif-65" x="197.314453"/>
      <use xlink:href="#DejaVuSerif-72" x="256.494141"/>
      <use xlink:href="#DejaVuSerif-76" x="304.296875"/>
      <use xlink:href="#DejaVuSerif-61" x="360.791016"/>
      <use xlink:href="#DejaVuSerif-74" x="420.410156"/>
      <use xlink:href="#DejaVuSerif-69" x="460.595703"/>
      <use xlink:href="#DejaVuSerif-6f" x="492.578125"/>
      <use xlink:href="#DejaVuSerif-6e" x="552.783203"/>
      <use xlink:href="#DejaVuSerif-73" x="617.1875"/>
     </g>
    </g>
    <g id="line2d_16">
     <path d="M 45.746094 250.683531 
L 54.746094 250.683531 
L 63.746094 250.683531 
" style="fill: none; stroke: #4c72b0; stroke-width: 2; stroke-linecap: round"/>
    </g>
    <g id="text_16">
     <!-- $m_n(x)$ -->
     <g style="fill: #262626" transform="translate(70.946094 253.833531) scale(0.09 -0.09)">
      <defs>
       <path id="DejaVuSans-Oblique-6d" d="M 5747 2113 
L 5338 0 
L 4763 0 
L 5166 2094 
Q 5191 2228 5203 2325 
Q 5216 2422 5216 2491 
Q 5216 2772 5059 2928 
Q 4903 3084 4622 3084 
Q 4203 3084 3875 2770 
Q 3547 2456 3450 1953 
L 3066 0 
L 2491 0 
L 2900 2094 
Q 2925 2209 2937 2307 
Q 2950 2406 2950 2484 
Q 2950 2769 2794 2926 
Q 2638 3084 2363 3084 
Q 1938 3084 1609 2770 
Q 1281 2456 1184 1953 
L 800 0 
L 225 0 
L 909 3500 
L 1484 3500 
L 1375 2956 
Q 1609 3263 1923 3423 
Q 2238 3584 2597 3584 
Q 2978 3584 3223 3384 
Q 3469 3184 3519 2828 
Q 3781 3197 4126 3390 
Q 4472 3584 4856 3584 
Q 5306 3584 5551 3325 
Q 5797 3066 5797 2591 
Q 5797 2488 5784 2364 
Q 5772 2241 5747 2113 
z
" transform="scale(0.015625)"/>
       <path id="DejaVuSans-Oblique-6e" d="M 3566 2113 
L 3156 0 
L 2578 0 
L 2988 2091 
Q 3016 2238 3031 2350 
Q 3047 2463 3047 2528 
Q 3047 2791 2881 2937 
Q 2716 3084 2419 3084 
Q 1956 3084 1622 2776 
Q 1288 2469 1184 1941 
L 800 0 
L 225 0 
L 903 3500 
L 1478 3500 
L 1363 2950 
Q 1603 3253 1940 3418 
Q 2278 3584 2650 3584 
Q 3113 3584 3367 3334 
Q 3622 3084 3622 2631 
Q 3622 2519 3608 2391 
Q 3594 2263 3566 2113 
z
" transform="scale(0.015625)"/>
       <path id="DejaVuSans-28" d="M 1984 4856 
Q 1566 4138 1362 3434 
Q 1159 2731 1159 2009 
Q 1159 1288 1364 580 
Q 1569 -128 1984 -844 
L 1484 -844 
Q 1016 -109 783 600 
Q 550 1309 550 2009 
Q 550 2706 781 3412 
Q 1013 4119 1484 4856 
L 1984 4856 
z
" transform="scale(0.015625)"/>
       <path id="DejaVuSans-29" d="M 513 4856 
L 1013 4856 
Q 1481 4119 1714 3412 
Q 1947 2706 1947 2009 
Q 1947 1309 1714 600 
Q 1481 -109 1013 -844 
L 513 -844 
Q 928 -128 1133 580 
Q 1338 1288 1338 2009 
Q 1338 2731 1133 3434 
Q 928 4138 513 4856 
z
" transform="scale(0.015625)"/>
      </defs>
      <use xlink:href="#DejaVuSans-Oblique-6d" transform="translate(0 0.125)"/>
      <use xlink:href="#DejaVuSans-Oblique-6e" transform="translate(97.412109 -16.28125) scale(0.7)"/>
      <use xlink:href="#DejaVuSans-28" transform="translate(144.511719 0.125)"/>
      <use xlink:href="#DejaVuSans-Oblique-78" transform="translate(183.525391 0.125)"/>
      <use xlink:href="#DejaVuSans-29" transform="translate(242.705078 0.125)"/>
     </g>
    </g>
    <g id="patch_5">
     <path d="M 45.746094 268.39525 
L 63.746094 268.39525 
L 63.746094 262.09525 
L 45.746094 262.09525 
z
" style="fill: #4c72b0; fill-opacity: 0.5; stroke: #4c72b0; stroke-opacity: 0.5; stroke-width: 0.8; stroke-linejoin: miter"/>
    </g>
    <g id="text_17">
     <!-- $f(\mathbf{x}^*)$ 95% pred. -->
     <g style="fill: #262626" transform="translate(70.946094 268.39525) scale(0.09 -0.09)">
      <defs>
       <path id="DejaVuSans-Oblique-66" d="M 3059 4863 
L 2969 4384 
L 2419 4384 
Q 2106 4384 1964 4261 
Q 1822 4138 1753 3809 
L 1691 3500 
L 2638 3500 
L 2553 3053 
L 1606 3053 
L 1013 0 
L 434 0 
L 1031 3053 
L 481 3053 
L 563 3500 
L 1113 3500 
L 1159 3744 
Q 1278 4363 1576 4613 
Q 1875 4863 2516 4863 
L 3059 4863 
z
" transform="scale(0.015625)"/>
       <path id="DejaVuSans-Bold-78" d="M 1422 1791 
L 159 3500 
L 1344 3500 
L 2059 2463 
L 2784 3500 
L 3969 3500 
L 2706 1797 
L 4031 0 
L 2847 0 
L 2059 1106 
L 1281 0 
L 97 0 
L 1422 1791 
z
" transform="scale(0.015625)"/>
       <path id="DejaVuSans-2a" d="M 3009 3897 
L 1888 3291 
L 3009 2681 
L 2828 2375 
L 1778 3009 
L 1778 1831 
L 1422 1831 
L 1422 3009 
L 372 2375 
L 191 2681 
L 1313 3291 
L 191 3897 
L 372 4206 
L 1422 3572 
L 1422 4750 
L 1778 4750 
L 1778 3572 
L 2828 4206 
L 3009 3897 
z
" transform="scale(0.015625)"/>
       <path id="DejaVuSerif-39" d="M 2994 2091 
Q 2784 1856 2512 1740 
Q 2241 1625 1900 1625 
Q 1206 1625 804 2044 
Q 403 2463 403 3188 
Q 403 3897 839 4323 
Q 1275 4750 2003 4750 
Q 2794 4750 3217 4161 
Q 3641 3572 3641 2478 
Q 3641 1253 3137 581 
Q 2634 -91 1722 -91 
Q 1475 -91 1203 -44 
Q 931 3 647 97 
L 647 872 
L 997 872 
Q 1038 556 1241 387 
Q 1444 219 1784 219 
Q 2391 219 2687 676 
Q 2984 1134 2994 2091 
z
M 1978 4441 
Q 1534 4441 1298 4117 
Q 1063 3794 1063 3188 
Q 1063 2581 1298 2256 
Q 1534 1931 1978 1931 
Q 2422 1931 2658 2245 
Q 2894 2559 2894 3150 
Q 2894 3772 2656 4106 
Q 2419 4441 1978 4441 
z
" transform="scale(0.015625)"/>
       <path id="DejaVuSerif-35" d="M 3219 4666 
L 3219 4153 
L 1081 4153 
L 1081 2816 
Q 1244 2928 1461 2984 
Q 1678 3041 1947 3041 
Q 2703 3041 3140 2622 
Q 3578 2203 3578 1478 
Q 3578 738 3136 323 
Q 2694 -91 1894 -91 
Q 1572 -91 1234 -12 
Q 897 66 544 225 
L 544 1131 
L 897 1131 
Q 925 688 1179 453 
Q 1434 219 1894 219 
Q 2388 219 2653 544 
Q 2919 869 2919 1478 
Q 2919 2084 2655 2407 
Q 2391 2731 1894 2731 
Q 1613 2731 1398 2631 
Q 1184 2531 1019 2322 
L 750 2322 
L 750 4666 
L 3219 4666 
z
" transform="scale(0.015625)"/>
       <path id="DejaVuSerif-25" d="M 1434 4459 
Q 1159 4459 1004 4200 
Q 850 3941 850 3475 
Q 850 3016 1008 2753 
Q 1166 2491 1434 2491 
Q 1700 2491 1854 2752 
Q 2009 3013 2009 3475 
Q 2009 3938 1854 4198 
Q 1700 4459 1434 4459 
z
M 4653 2169 
Q 4381 2169 4226 1906 
Q 4072 1644 4072 1178 
Q 4072 719 4228 458 
Q 4384 197 4653 197 
Q 4922 197 5075 458 
Q 5228 719 5228 1178 
Q 5228 1641 5073 1905 
Q 4919 2169 4653 2169 
z
M 4653 2450 
Q 5147 2450 5437 2106 
Q 5728 1763 5728 1178 
Q 5728 594 5436 251 
Q 5144 -91 4653 -91 
Q 4153 -91 3862 251 
Q 3572 594 3572 1178 
Q 3572 1766 3864 2108 
Q 4156 2450 4653 2450 
z
M 4263 4750 
L 4738 4750 
L 1819 -91 
L 1344 -91 
L 4263 4750 
z
M 1428 4750 
Q 1922 4750 2215 4408 
Q 2509 4066 2509 3481 
Q 2509 2891 2217 2550 
Q 1925 2209 1428 2209 
Q 931 2209 642 2551 
Q 353 2894 353 3481 
Q 353 4063 643 4406 
Q 934 4750 1428 4750 
z
" transform="scale(0.015625)"/>
       <path id="DejaVuSerif-70" d="M 1313 1825 
L 1313 1497 
Q 1313 897 1542 583 
Q 1772 269 2209 269 
Q 2650 269 2876 622 
Q 3103 975 3103 1663 
Q 3103 2353 2876 2703 
Q 2650 3053 2209 3053 
Q 1772 3053 1542 2737 
Q 1313 2422 1313 1825 
z
M 738 2988 
L 184 2988 
L 184 3322 
L 1313 3322 
L 1313 2803 
Q 1481 3116 1742 3264 
Q 2003 3413 2388 3413 
Q 3000 3413 3387 2928 
Q 3775 2444 3775 1663 
Q 3775 881 3387 395 
Q 3000 -91 2388 -91 
Q 2003 -91 1742 57 
Q 1481 206 1313 519 
L 1313 -997 
L 1856 -997 
L 1856 -1331 
L 184 -1331 
L 184 -997 
L 738 -997 
L 738 2988 
z
" transform="scale(0.015625)"/>
       <path id="DejaVuSerif-64" d="M 3359 331 
L 3909 331 
L 3909 0 
L 2784 0 
L 2784 519 
Q 2616 206 2355 57 
Q 2094 -91 1709 -91 
Q 1097 -91 708 395 
Q 319 881 319 1663 
Q 319 2444 706 2928 
Q 1094 3413 1709 3413 
Q 2094 3413 2355 3264 
Q 2616 3116 2784 2803 
L 2784 4531 
L 2241 4531 
L 2241 4863 
L 3359 4863 
L 3359 331 
z
M 2784 1497 
L 2784 1825 
Q 2784 2422 2554 2737 
Q 2325 3053 1888 3053 
Q 1444 3053 1217 2703 
Q 991 2353 991 1663 
Q 991 975 1217 622 
Q 1444 269 1888 269 
Q 2325 269 2554 583 
Q 2784 897 2784 1497 
z
" transform="scale(0.015625)"/>
      </defs>
      <use xlink:href="#DejaVuSans-Oblique-66" transform="translate(0 0.765625)"/>
      <use xlink:href="#DejaVuSans-28" transform="translate(35.205078 0.765625)"/>
      <use xlink:href="#DejaVuSans-Bold-78" transform="translate(74.21875 0.765625)"/>
      <use xlink:href="#DejaVuSans-2a" transform="translate(153.31543 39.046875) scale(0.7)"/>
      <use xlink:href="#DejaVuSans-29" transform="translate(204.6875 0.765625)"/>
      <use xlink:href="#DejaVuSerif-20" transform="translate(243.701172 0.765625)"/>
      <use xlink:href="#DejaVuSerif-39" transform="translate(275.488281 0.765625)"/>
      <use xlink:href="#DejaVuSerif-35" transform="translate(339.111328 0.765625)"/>
      <use xlink:href="#DejaVuSerif-25" transform="translate(402.734375 0.765625)"/>
      <use xlink:href="#DejaVuSerif-20" transform="translate(497.753906 0.765625)"/>
      <use xlink:href="#DejaVuSerif-70" transform="translate(529.541016 0.765625)"/>
      <use xlink:href="#DejaVuSerif-72" transform="translate(593.554688 0.765625)"/>
      <use xlink:href="#DejaVuSerif-65" transform="translate(641.357422 0.765625)"/>
      <use xlink:href="#DejaVuSerif-64" transform="translate(700.537109 0.765625)"/>
      <use xlink:href="#DejaVuSerif-2e" transform="translate(764.550781 0.765625)"/>
     </g>
    </g>
    <g id="patch_6">
     <path d="M 45.746094 282.97525 
L 63.746094 282.97525 
L 63.746094 276.67525 
L 45.746094 276.67525 
z
" style="fill: #dd8452; fill-opacity: 0.5; stroke: #dd8452; stroke-opacity: 0.5; stroke-width: 0.8; stroke-linejoin: miter"/>
    </g>
    <g id="text_18">
     <!-- $y^*$ 95% pred. -->
     <g style="fill: #262626" transform="translate(70.946094 282.97525) scale(0.09 -0.09)">
      <use xlink:href="#DejaVuSans-Oblique-79" transform="translate(0 0.765625)"/>
      <use xlink:href="#DejaVuSans-2a" transform="translate(77.283529 39.046875) scale(0.7)"/>
      <use xlink:href="#DejaVuSerif-20" transform="translate(128.655599 0.765625)"/>
      <use xlink:href="#DejaVuSerif-39" transform="translate(160.442708 0.765625)"/>
      <use xlink:href="#DejaVuSerif-35" transform="translate(224.065755 0.765625)"/>
      <use xlink:href="#DejaVuSerif-25" transform="translate(287.688802 0.765625)"/>
      <use xlink:href="#DejaVuSerif-20" transform="translate(382.708333 0.765625)"/>
      <use xlink:href="#DejaVuSerif-70" transform="translate(414.495443 0.765625)"/>
      <use xlink:href="#DejaVuSerif-72" transform="translate(478.509115 0.765625)"/>
      <use xlink:href="#DejaVuSerif-65" transform="translate(526.311849 0.765625)"/>
      <use xlink:href="#DejaVuSerif-64" transform="translate(585.491536 0.765625)"/>
      <use xlink:href="#DejaVuSerif-2e" transform="translate(649.505208 0.765625)"/>
     </g>
    </g>
    <g id="line2d_17">
     <path d="M 45.746094 293.053844 
L 54.746094 293.053844 
L 63.746094 293.053844 
" style="fill: none; stroke-dasharray: 6.4,1.6,1,1.6; stroke-dashoffset: 0; stroke: #bf00bf"/>
    </g>
    <g id="text_19">
     <!-- True function -->
     <g style="fill: #262626" transform="translate(70.946094 296.203844) scale(0.09 -0.09)">
      <defs>
       <path id="DejaVuSerif-54" d="M 1222 0 
L 1222 331 
L 1819 331 
L 1819 4294 
L 447 4294 
L 447 3566 
L 63 3566 
L 63 4666 
L 4206 4666 
L 4206 3566 
L 3822 3566 
L 3822 4294 
L 2450 4294 
L 2450 331 
L 3047 331 
L 3047 0 
L 1222 0 
z
" transform="scale(0.015625)"/>
       <path id="DejaVuSerif-75" d="M 2266 3322 
L 3341 3322 
L 3341 331 
L 3884 331 
L 3884 0 
L 2766 0 
L 2766 588 
Q 2606 256 2353 82 
Q 2100 -91 1766 -91 
Q 1213 -91 952 223 
Q 691 538 691 1209 
L 691 2988 
L 172 2988 
L 172 3322 
L 1269 3322 
L 1269 1388 
Q 1269 781 1417 556 
Q 1566 331 1947 331 
Q 2347 331 2556 625 
Q 2766 919 2766 1478 
L 2766 2988 
L 2266 2988 
L 2266 3322 
z
" transform="scale(0.015625)"/>
       <path id="DejaVuSerif-66" d="M 2753 4078 
L 2450 4078 
Q 2447 4313 2317 4434 
Q 2188 4556 1941 4556 
Q 1619 4556 1487 4379 
Q 1356 4203 1356 3750 
L 1356 3322 
L 2284 3322 
L 2284 2988 
L 1356 2988 
L 1356 331 
L 2094 331 
L 2094 0 
L 231 0 
L 231 331 
L 781 331 
L 781 2988 
L 231 2988 
L 231 3322 
L 781 3322 
L 781 3738 
Q 781 4294 1070 4578 
Q 1359 4863 1919 4863 
Q 2128 4863 2337 4825 
Q 2547 4788 2753 4709 
L 2753 4078 
z
" transform="scale(0.015625)"/>
       <path id="DejaVuSerif-63" d="M 3291 997 
Q 3169 466 2822 187 
Q 2475 -91 1925 -91 
Q 1200 -91 759 389 
Q 319 869 319 1663 
Q 319 2459 759 2936 
Q 1200 3413 1925 3413 
Q 2241 3413 2553 3339 
Q 2866 3266 3181 3116 
L 3181 2266 
L 2847 2266 
Q 2781 2703 2561 2903 
Q 2341 3103 1931 3103 
Q 1466 3103 1228 2742 
Q 991 2381 991 1663 
Q 991 944 1227 581 
Q 1463 219 1931 219 
Q 2303 219 2525 412 
Q 2747 606 2828 997 
L 3291 997 
z
" transform="scale(0.015625)"/>
      </defs>
      <use xlink:href="#DejaVuSerif-54"/>
      <use xlink:href="#DejaVuSerif-72" x="66.699219"/>
      <use xlink:href="#DejaVuSerif-75" x="114.501953"/>
      <use xlink:href="#DejaVuSerif-65" x="178.90625"/>
      <use xlink:href="#DejaVuSerif-20" x="238.085938"/>
      <use xlink:href="#DejaVuSerif-66" x="269.873047"/>
      <use xlink:href="#DejaVuSerif-75" x="306.884766"/>
      <use xlink:href="#DejaVuSerif-6e" x="371.289062"/>
      <use xlink:href="#DejaVuSerif-63" x="435.693359"/>
      <use xlink:href="#DejaVuSerif-74" x="491.699219"/>
      <use xlink:href="#DejaVuSerif-69" x="531.884766"/>
      <use xlink:href="#DejaVuSerif-6f" x="563.867188"/>
      <use xlink:href="#DejaVuSerif-6e" x="624.072266"/>
     </g>
    </g>
   </g>
  </g>
  <g id="axes_2">
   <g id="matplotlib.axis_3">
    <g id="ytick_6">
     <g id="line2d_18"/>
     <g id="text_20">
      <!-- 0.0000 -->
      <g style="fill: #dd8452" transform="translate(402.094312 296.609281) scale(0.09 -0.09)">
       <use xlink:href="#DejaVuSerif-30"/>
       <use xlink:href="#DejaVuSerif-2e" x="63.623047"/>
       <use xlink:href="#DejaVuSerif-30" x="95.410156"/>
       <use xlink:href="#DejaVuSerif-30" x="159.033203"/>
       <use xlink:href="#DejaVuSerif-30" x="222.65625"/>
       <use xlink:href="#DejaVuSerif-30" x="286.279297"/>
      </g>
     </g>
    </g>
    <g id="ytick_7">
     <g id="line2d_19"/>
     <g id="text_21">
      <!-- 0.0001 -->
      <g style="fill: #dd8452" transform="translate(402.094312 244.508981) scale(0.09 -0.09)">
       <use xlink:href="#DejaVuSerif-30"/>
       <use xlink:href="#DejaVuSerif-2e" x="63.623047"/>
       <use xlink:href="#DejaVuSerif-30" x="95.410156"/>
       <use xlink:href="#DejaVuSerif-30" x="159.033203"/>
       <use xlink:href="#DejaVuSerif-30" x="222.65625"/>
       <use xlink:href="#DejaVuSerif-31" x="286.279297"/>
      </g>
     </g>
    </g>
    <g id="ytick_8">
     <g id="line2d_20"/>
     <g id="text_22">
      <!-- 0.0002 -->
      <g style="fill: #dd8452" transform="translate(402.094312 192.408682) scale(0.09 -0.09)">
       <use xlink:href="#DejaVuSerif-30"/>
       <use xlink:href="#DejaVuSerif-2e" x="63.623047"/>
       <use xlink:href="#DejaVuSerif-30" x="95.410156"/>
       <use xlink:href="#DejaVuSerif-30" x="159.033203"/>
       <use xlink:href="#DejaVuSerif-30" x="222.65625"/>
       <use xlink:href="#DejaVuSerif-32" x="286.279297"/>
      </g>
     </g>
    </g>
    <g id="ytick_9">
     <g id="line2d_21"/>
     <g id="text_23">
      <!-- 0.0003 -->
      <g style="fill: #dd8452" transform="translate(402.094312 140.308383) scale(0.09 -0.09)">
       <defs>
        <path id="DejaVuSerif-33" d="M 622 4469 
Q 988 4606 1323 4678 
Q 1659 4750 1953 4750 
Q 2638 4750 3022 4454 
Q 3406 4159 3406 3634 
Q 3406 3213 3140 2930 
Q 2875 2647 2388 2547 
Q 2963 2466 3280 2130 
Q 3597 1794 3597 1259 
Q 3597 606 3158 257 
Q 2719 -91 1894 -91 
Q 1528 -91 1179 -12 
Q 831 66 488 225 
L 488 1131 
L 838 1131 
Q 869 681 1141 450 
Q 1413 219 1906 219 
Q 2384 219 2661 495 
Q 2938 772 2938 1253 
Q 2938 1803 2653 2086 
Q 2369 2369 1819 2369 
L 1522 2369 
L 1522 2688 
L 1678 2688 
Q 2225 2688 2498 2914 
Q 2772 3141 2772 3597 
Q 2772 4006 2547 4223 
Q 2322 4441 1900 4441 
Q 1478 4441 1245 4241 
Q 1013 4041 972 3647 
L 622 3647 
L 622 4469 
z
" transform="scale(0.015625)"/>
       </defs>
       <use xlink:href="#DejaVuSerif-30"/>
       <use xlink:href="#DejaVuSerif-2e" x="63.623047"/>
       <use xlink:href="#DejaVuSerif-30" x="95.410156"/>
       <use xlink:href="#DejaVuSerif-30" x="159.033203"/>
       <use xlink:href="#DejaVuSerif-30" x="222.65625"/>
       <use xlink:href="#DejaVuSerif-33" x="286.279297"/>
      </g>
     </g>
    </g>
    <g id="ytick_10">
     <g id="line2d_22"/>
     <g id="text_24">
      <!-- 0.0004 -->
      <g style="fill: #dd8452" transform="translate(402.094312 88.208083) scale(0.09 -0.09)">
       <use xlink:href="#DejaVuSerif-30"/>
       <use xlink:href="#DejaVuSerif-2e" x="63.623047"/>
       <use xlink:href="#DejaVuSerif-30" x="95.410156"/>
       <use xlink:href="#DejaVuSerif-30" x="159.033203"/>
       <use xlink:href="#DejaVuSerif-30" x="222.65625"/>
       <use xlink:href="#DejaVuSerif-34" x="286.279297"/>
      </g>
     </g>
    </g>
    <g id="ytick_11">
     <g id="line2d_23"/>
     <g id="text_25">
      <!-- 0.0005 -->
      <g style="fill: #dd8452" transform="translate(402.094312 36.107784) scale(0.09 -0.09)">
       <use xlink:href="#DejaVuSerif-30"/>
       <use xlink:href="#DejaVuSerif-2e" x="63.623047"/>
       <use xlink:href="#DejaVuSerif-30" x="95.410156"/>
       <use xlink:href="#DejaVuSerif-30" x="159.033203"/>
       <use xlink:href="#DejaVuSerif-30" x="222.65625"/>
       <use xlink:href="#DejaVuSerif-35" x="286.279297"/>
      </g>
     </g>
    </g>
    <g id="text_26">
     <!-- Maximum Upper Interval -->
     <g style="fill: #dd8452" transform="translate(445.184312 227.812) rotate(-90) scale(0.1 -0.1)">
      <defs>
       <path id="DejaVuSerif-4d" d="M 353 0 
L 353 331 
L 947 331 
L 947 4331 
L 319 4331 
L 319 4666 
L 1678 4666 
L 3316 1344 
L 4953 4666 
L 6228 4666 
L 6228 4331 
L 5606 4331 
L 5606 331 
L 6203 331 
L 6203 0 
L 4378 0 
L 4378 331 
L 4972 331 
L 4972 3938 
L 3372 684 
L 2931 684 
L 1331 3938 
L 1331 331 
L 1925 331 
L 1925 0 
L 353 0 
z
" transform="scale(0.015625)"/>
       <path id="DejaVuSerif-78" d="M 1863 2028 
L 2559 2988 
L 2113 2988 
L 2113 3322 
L 3391 3322 
L 3391 2988 
L 2950 2988 
L 2059 1759 
L 3097 331 
L 3531 331 
L 3531 0 
L 1997 0 
L 1997 331 
L 2419 331 
L 1697 1325 
L 972 331 
L 1403 331 
L 1403 0 
L 141 0 
L 141 331 
L 581 331 
L 1497 1594 
L 488 2988 
L 78 2988 
L 78 3322 
L 1563 3322 
L 1563 2988 
L 1166 2988 
L 1863 2028 
z
" transform="scale(0.015625)"/>
       <path id="DejaVuSerif-6d" d="M 3316 2675 
Q 3481 3041 3739 3227 
Q 3997 3413 4341 3413 
Q 4863 3413 5119 3089 
Q 5375 2766 5375 2113 
L 5375 331 
L 5894 331 
L 5894 0 
L 4300 0 
L 4300 331 
L 4800 331 
L 4800 2047 
Q 4800 2556 4650 2772 
Q 4500 2988 4153 2988 
Q 3769 2988 3567 2697 
Q 3366 2406 3366 1850 
L 3366 331 
L 3866 331 
L 3866 0 
L 2291 0 
L 2291 331 
L 2791 331 
L 2791 2069 
Q 2791 2566 2641 2777 
Q 2491 2988 2144 2988 
Q 1759 2988 1557 2697 
Q 1356 2406 1356 1850 
L 1356 331 
L 1856 331 
L 1856 0 
L 263 0 
L 263 331 
L 781 331 
L 781 2994 
L 231 2994 
L 231 3322 
L 1356 3322 
L 1356 2731 
Q 1516 3063 1762 3238 
Q 2009 3413 2322 3413 
Q 2709 3413 2968 3220 
Q 3228 3028 3316 2675 
z
" transform="scale(0.015625)"/>
       <path id="DejaVuSerif-55" d="M 897 4331 
L 300 4331 
L 300 4666 
L 2125 4666 
L 2125 4331 
L 1528 4331 
L 1528 1919 
Q 1528 1025 1820 672 
Q 2113 319 2828 319 
Q 3544 319 3836 672 
Q 4128 1025 4128 1919 
L 4128 4331 
L 3531 4331 
L 3531 4666 
L 5106 4666 
L 5106 4331 
L 4513 4331 
L 4513 1856 
Q 4513 791 4103 350 
Q 3694 -91 2713 -91 
Q 1731 -91 1314 353 
Q 897 797 897 1856 
L 897 4331 
z
" transform="scale(0.015625)"/>
       <path id="DejaVuSerif-49" d="M 1581 331 
L 2175 331 
L 2175 0 
L 353 0 
L 353 331 
L 947 331 
L 947 4331 
L 353 4331 
L 353 4666 
L 2175 4666 
L 2175 4331 
L 1581 4331 
L 1581 331 
z
" transform="scale(0.015625)"/>
       <path id="DejaVuSerif-6c" d="M 1313 331 
L 1856 331 
L 1856 0 
L 184 0 
L 184 331 
L 738 331 
L 738 4531 
L 184 4531 
L 184 4863 
L 1313 4863 
L 1313 331 
z
" transform="scale(0.015625)"/>
      </defs>
      <use xlink:href="#DejaVuSerif-4d"/>
      <use xlink:href="#DejaVuSerif-61" x="102.392578"/>
      <use xlink:href="#DejaVuSerif-78" x="162.011719"/>
      <use xlink:href="#DejaVuSerif-69" x="218.408203"/>
      <use xlink:href="#DejaVuSerif-6d" x="250.390625"/>
      <use xlink:href="#DejaVuSerif-75" x="345.214844"/>
      <use xlink:href="#DejaVuSerif-6d" x="409.619141"/>
      <use xlink:href="#DejaVuSerif-20" x="504.443359"/>
      <use xlink:href="#DejaVuSerif-55" x="536.230469"/>
      <use xlink:href="#DejaVuSerif-70" x="620.507812"/>
      <use xlink:href="#DejaVuSerif-70" x="684.521484"/>
      <use xlink:href="#DejaVuSerif-65" x="748.535156"/>
      <use xlink:href="#DejaVuSerif-72" x="807.714844"/>
      <use xlink:href="#DejaVuSerif-20" x="855.517578"/>
      <use xlink:href="#DejaVuSerif-49" x="887.304688"/>
      <use xlink:href="#DejaVuSerif-6e" x="926.806641"/>
      <use xlink:href="#DejaVuSerif-74" x="991.210938"/>
      <use xlink:href="#DejaVuSerif-65" x="1031.396484"/>
      <use xlink:href="#DejaVuSerif-72" x="1090.576172"/>
      <use xlink:href="#DejaVuSerif-76" x="1138.378906"/>
      <use xlink:href="#DejaVuSerif-61" x="1194.873047"/>
      <use xlink:href="#DejaVuSerif-6c" x="1254.492188"/>
     </g>
    </g>
   </g>
   <g id="line2d_24">
    <path d="M 54.052831 293.189984 
L 57.367323 293.189984 
L 60.681816 293.189984 
L 63.996308 293.189984 
L 67.3108 293.189984 
L 70.625292 293.189984 
L 73.939786 293.189984 
L 77.254277 293.189984 
L 80.56877 293.189984 
L 83.883263 293.189984 
L 87.197754 293.189984 
L 90.512247 293.189983 
L 93.826741 293.189956 
L 97.141231 293.189187 
L 100.455722 293.203875 
L 103.770218 293.172749 
L 107.084709 293.08883 
L 110.3992 292.428342 
L 113.713695 288.867681 
L 117.028186 275.933888 
L 120.342677 242.782591 
L 123.657173 182.312182 
L 126.971664 105.425019 
L 130.286154 44.866542 
L 133.60065 33.770125 
L 136.915136 73.377814 
L 140.229632 130.275656 
L 143.544128 171.743079 
L 146.858613 190.56623 
L 150.173109 197.08652 
L 153.487605 205.294957 
L 156.802091 223.261509 
L 160.116587 248.005731 
L 163.431082 270.480904 
L 166.745568 284.623703 
L 170.060064 290.848993 
L 173.37456 292.739457 
L 176.689046 293.122947 
L 180.003541 293.18786 
L 183.318037 293.199841 
L 186.632523 293.187783 
L 189.947019 293.189629 
L 193.261515 293.189886 
L 196.576 293.189936 
L 199.890496 293.189946 
L 203.204992 293.189944 
L 206.519478 293.189936 
L 209.833974 293.189929 
L 213.148469 293.189928 
L 216.462955 293.189939 
L 219.777441 293.189955 
L 223.091937 293.189971 
L 226.406433 293.18998 
L 229.720928 293.189983 
L 233.035424 293.189984 
L 236.34992 293.189984 
L 239.664396 293.189984 
L 242.978892 293.189984 
L 246.293387 293.189984 
L 249.607883 293.189984 
L 252.922379 293.189984 
L 256.236875 293.189984 
L 259.551351 293.189984 
L 262.865847 293.189984 
L 266.180342 293.189984 
L 269.494838 293.189984 
L 272.809334 293.189984 
L 276.123829 293.189984 
L 279.438306 293.189984 
L 282.752801 293.189984 
L 286.067297 293.189984 
L 289.381793 293.189984 
L 292.696288 293.189984 
L 296.010765 293.189984 
L 299.32526 293.189984 
L 302.639756 293.189984 
L 305.954252 293.189984 
L 309.268748 293.189984 
L 312.583243 293.189984 
L 315.897719 293.189984 
L 319.212215 293.189979 
L 322.526711 293.189932 
L 325.841207 293.189661 
L 329.155702 293.188673 
L 332.470198 293.186256 
L 335.784674 293.182222 
L 339.09917 293.17777 
L 342.413666 293.17518 
L 345.728161 293.17603 
L 349.042657 293.179794 
L 352.357153 293.184313 
L 355.671629 293.18765 
L 358.986125 293.189295 
L 362.30062 293.189838 
L 365.615116 293.189959 
L 368.929612 293.189979 
L 372.244108 293.189982 
L 375.558584 293.189982 
L 378.87308 293.189973 
L 382.187575 293.189816 
" clip-path="url(#pcd9b493cfb)" style="fill: none; stroke: #dd8452; stroke-linecap: round"/>
   </g>
   <g id="line2d_25">
    <path d="M 133.60065 293.189984 
L 133.60065 290.569581 
L 133.60065 287.949178 
L 133.60065 285.328776 
L 133.60065 282.708373 
L 133.60065 280.08797 
L 133.60065 277.467568 
L 133.60065 274.847165 
L 133.60065 272.226762 
L 133.60065 269.60636 
L 133.60065 266.985957 
L 133.60065 264.365554 
L 133.60065 261.745152 
L 133.60065 259.124749 
L 133.60065 256.504346 
L 133.60065 253.883943 
L 133.60065 251.263541 
L 133.60065 248.643138 
L 133.60065 246.022735 
L 133.60065 243.402333 
L 133.60065 240.78193 
L 133.60065 238.161527 
L 133.60065 235.541125 
L 133.60065 232.920722 
L 133.60065 230.300319 
L 133.60065 227.679917 
L 133.60065 225.059514 
L 133.60065 222.439111 
L 133.60065 219.818708 
L 133.60065 217.198306 
L 133.60065 214.577903 
L 133.60065 211.9575 
L 133.60065 209.337098 
L 133.60065 206.716695 
L 133.60065 204.096292 
L 133.60065 201.47589 
L 133.60065 198.855487 
L 133.60065 196.235084 
L 133.60065 193.614682 
L 133.60065 190.994279 
L 133.60065 188.373876 
L 133.60065 185.753473 
L 133.60065 183.133071 
L 133.60065 180.512668 
L 133.60065 177.892265 
L 133.60065 175.271863 
L 133.60065 172.65146 
L 133.60065 170.031057 
L 133.60065 167.410655 
L 133.60065 164.790244 
L 133.60065 162.169864 
L 133.60065 159.549454 
L 133.60065 156.929044 
L 133.60065 154.308649 
L 133.60065 151.688254 
L 133.60065 149.067843 
L 133.60065 146.447433 
L 133.60065 143.827038 
L 133.60065 141.206643 
L 133.60065 138.586233 
L 133.60065 135.965822 
L 133.60065 133.345427 
L 133.60065 130.725032 
L 133.60065 128.104622 
L 133.60065 125.484212 
L 133.60065 122.863816 
L 133.60065 120.243421 
L 133.60065 117.623011 
L 133.60065 115.002601 
L 133.60065 112.382206 
L 133.60065 109.761811 
L 133.60065 107.1414 
L 133.60065 104.52099 
L 133.60065 101.900595 
L 133.60065 99.2802 
L 133.60065 96.65979 
L 133.60065 94.039379 
L 133.60065 91.418984 
L 133.60065 88.798589 
L 133.60065 86.178179 
L 133.60065 83.557769 
L 133.60065 80.937373 
L 133.60065 78.316978 
L 133.60065 75.696568 
L 133.60065 73.076158 
L 133.60065 70.455763 
L 133.60065 67.835368 
L 133.60065 65.214957 
L 133.60065 62.594547 
L 133.60065 59.974152 
L 133.60065 57.353757 
L 133.60065 54.733347 
L 133.60065 52.112936 
L 133.60065 49.492541 
L 133.60065 46.872146 
L 133.60065 44.251736 
L 133.60065 41.631325 
L 133.60065 39.01093 
L 133.60065 36.390535 
L 133.60065 33.770125 
" clip-path="url(#pcd9b493cfb)" style="fill: none; stroke: #dd8452; stroke-linecap: round"/>
   </g>
   <g id="patch_7">
    <path d="M 37.646094 306.175562 
L 37.646094 20.798437 
" style="fill: none; stroke: #262626; stroke-width: 0.5; stroke-linejoin: miter; stroke-linecap: square"/>
   </g>
   <g id="patch_8">
    <path d="M 37.646094 306.175562 
L 398.594312 306.175562 
" style="fill: none; stroke: #262626; stroke-width: 0.5; stroke-linejoin: miter; stroke-linecap: square"/>
   </g>
  </g>
 </g>
 <defs>
  <clipPath id="pcd9b493cfb">
   <rect x="37.646094" y="20.798437" width="360.948219" height="285.377125"/>
  </clipPath>
 </defs>
</svg>