<?xml version="1.0" encoding="utf-8" standalone="no"?>
<!DOCTYPE svg PUBLIC "-//W3C//DTD SVG 1.1//EN"
  "http://www.w3.org/Graphics/SVG/1.1/DTD/svg11.dtd">
<svg xmlns:xlink="http://www.w3.org/1999/xlink" width="402.38675pt" height="309.639375pt" viewBox="0 0 402.38675 309.639375" xmlns="http://www.w3.org/2000/svg" version="1.1">
 <metadata>
  <rdf:RDF xmlns:dc="http://purl.org/dc/elements/1.1/" xmlns:cc="http://creativecommons.org/ns#" xmlns:rdf="http://www.w3.org/1999/02/22-rdf-syntax-ns#">
   <cc:Work>
    <dc:type rdf:resource="http://purl.org/dc/dcmitype/StillImage"/>
    <dc:date>2023-10-25T16:09:16.393287</dc:date>
    <dc:format>image/svg+xml</dc:format>
    <dc:creator>
     <cc:Agent>
      <dc:title>Matplotlib v3.8.0, https://matplotlib.org/</dc:title>
     </cc:Agent>
    </dc:creator>
   </cc:Work>
  </rdf:RDF>
 </metadata>
 <defs>
  <style type="text/css">*{stroke-linejoin: round; stroke-linecap: butt}</style>
 </defs>
 <g id="figure_1">
  <g id="patch_1">
   <path d="M 0 309.639375 
L 402.38675 309.639375 
L 402.38675 0 
L 0 0 
z
" style="fill: #ffffff"/>
  </g>
  <g id="axes_1">
   <g id="patch_2">
    <path d="M 38.06675 273.312 
L 395.18675 273.312 
L 395.18675 7.2 
L 38.06675 7.2 
z
" style="fill: #ffffff"/>
   </g>
   <g id="matplotlib.axis_1">
    <g id="xtick_1">
     <g id="line2d_1">
      <defs>
       <path id="m16f5abbcd9" d="M 0 0 
L 0 4.8 
" style="stroke: #262626"/>
      </defs>
      <g>
       <use xlink:href="#m16f5abbcd9" x="54.299477" y="273.312" style="fill: #262626; stroke: #262626"/>
      </g>
     </g>
     <g id="text_1">
      <!-- 0.0 -->
      <g style="fill: #262626" transform="translate(48.183477 287.910875) scale(0.088 -0.088)">
       <defs>
        <path id="ArialMT-30" d="M 266 2259 
Q 266 3072 433 3567 
Q 600 4063 929 4331 
Q 1259 4600 1759 4600 
Q 2128 4600 2406 4451 
Q 2684 4303 2865 4023 
Q 3047 3744 3150 3342 
Q 3253 2941 3253 2259 
Q 3253 1453 3087 958 
Q 2922 463 2592 192 
Q 2263 -78 1759 -78 
Q 1097 -78 719 397 
Q 266 969 266 2259 
z
M 844 2259 
Q 844 1131 1108 757 
Q 1372 384 1759 384 
Q 2147 384 2411 759 
Q 2675 1134 2675 2259 
Q 2675 3391 2411 3762 
Q 2147 4134 1753 4134 
Q 1366 4134 1134 3806 
Q 844 3388 844 2259 
z
" transform="scale(0.015625)"/>
        <path id="ArialMT-2e" d="M 581 0 
L 581 641 
L 1222 641 
L 1222 0 
L 581 0 
z
" transform="scale(0.015625)"/>
       </defs>
       <use xlink:href="#ArialMT-30"/>
       <use xlink:href="#ArialMT-2e" x="55.615234"/>
       <use xlink:href="#ArialMT-30" x="83.398438"/>
      </g>
     </g>
    </g>
    <g id="xtick_2">
     <g id="line2d_2">
      <g>
       <use xlink:href="#m16f5abbcd9" x="119.230386" y="273.312" style="fill: #262626; stroke: #262626"/>
      </g>
     </g>
     <g id="text_2">
      <!-- 0.2 -->
      <g style="fill: #262626" transform="translate(113.114386 287.910875) scale(0.088 -0.088)">
       <defs>
        <path id="ArialMT-32" d="M 3222 541 
L 3222 0 
L 194 0 
Q 188 203 259 391 
Q 375 700 629 1000 
Q 884 1300 1366 1694 
Q 2113 2306 2375 2664 
Q 2638 3022 2638 3341 
Q 2638 3675 2398 3904 
Q 2159 4134 1775 4134 
Q 1369 4134 1125 3890 
Q 881 3647 878 3216 
L 300 3275 
Q 359 3922 746 4261 
Q 1134 4600 1788 4600 
Q 2447 4600 2831 4234 
Q 3216 3869 3216 3328 
Q 3216 3053 3103 2787 
Q 2991 2522 2730 2228 
Q 2469 1934 1863 1422 
Q 1356 997 1212 845 
Q 1069 694 975 541 
L 3222 541 
z
" transform="scale(0.015625)"/>
       </defs>
       <use xlink:href="#ArialMT-30"/>
       <use xlink:href="#ArialMT-2e" x="55.615234"/>
       <use xlink:href="#ArialMT-32" x="83.398438"/>
      </g>
     </g>
    </g>
    <g id="xtick_3">
     <g id="line2d_3">
      <g>
       <use xlink:href="#m16f5abbcd9" x="184.161295" y="273.312" style="fill: #262626; stroke: #262626"/>
      </g>
     </g>
     <g id="text_3">
      <!-- 0.4 -->
      <g style="fill: #262626" transform="translate(178.045295 287.910875) scale(0.088 -0.088)">
       <defs>
        <path id="ArialMT-34" d="M 2069 0 
L 2069 1097 
L 81 1097 
L 81 1613 
L 2172 4581 
L 2631 4581 
L 2631 1613 
L 3250 1613 
L 3250 1097 
L 2631 1097 
L 2631 0 
L 2069 0 
z
M 2069 1613 
L 2069 3678 
L 634 1613 
L 2069 1613 
z
" transform="scale(0.015625)"/>
       </defs>
       <use xlink:href="#ArialMT-30"/>
       <use xlink:href="#ArialMT-2e" x="55.615234"/>
       <use xlink:href="#ArialMT-34" x="83.398438"/>
      </g>
     </g>
    </g>
    <g id="xtick_4">
     <g id="line2d_4">
      <g>
       <use xlink:href="#m16f5abbcd9" x="249.092205" y="273.312" style="fill: #262626; stroke: #262626"/>
      </g>
     </g>
     <g id="text_4">
      <!-- 0.6 -->
      <g style="fill: #262626" transform="translate(242.976205 287.910875) scale(0.088 -0.088)">
       <defs>
        <path id="ArialMT-36" d="M 3184 3459 
L 2625 3416 
Q 2550 3747 2413 3897 
Q 2184 4138 1850 4138 
Q 1581 4138 1378 3988 
Q 1113 3794 959 3422 
Q 806 3050 800 2363 
Q 1003 2672 1297 2822 
Q 1591 2972 1913 2972 
Q 2475 2972 2870 2558 
Q 3266 2144 3266 1488 
Q 3266 1056 3080 686 
Q 2894 316 2569 119 
Q 2244 -78 1831 -78 
Q 1128 -78 684 439 
Q 241 956 241 2144 
Q 241 3472 731 4075 
Q 1159 4600 1884 4600 
Q 2425 4600 2770 4297 
Q 3116 3994 3184 3459 
z
M 888 1484 
Q 888 1194 1011 928 
Q 1134 663 1356 523 
Q 1578 384 1822 384 
Q 2178 384 2434 671 
Q 2691 959 2691 1453 
Q 2691 1928 2437 2201 
Q 2184 2475 1800 2475 
Q 1419 2475 1153 2201 
Q 888 1928 888 1484 
z
" transform="scale(0.015625)"/>
       </defs>
       <use xlink:href="#ArialMT-30"/>
       <use xlink:href="#ArialMT-2e" x="55.615234"/>
       <use xlink:href="#ArialMT-36" x="83.398438"/>
      </g>
     </g>
    </g>
    <g id="xtick_5">
     <g id="line2d_5">
      <g>
       <use xlink:href="#m16f5abbcd9" x="314.023114" y="273.312" style="fill: #262626; stroke: #262626"/>
      </g>
     </g>
     <g id="text_5">
      <!-- 0.8 -->
      <g style="fill: #262626" transform="translate(307.907114 287.910875) scale(0.088 -0.088)">
       <defs>
        <path id="ArialMT-38" d="M 1131 2484 
Q 781 2613 612 2850 
Q 444 3088 444 3419 
Q 444 3919 803 4259 
Q 1163 4600 1759 4600 
Q 2359 4600 2725 4251 
Q 3091 3903 3091 3403 
Q 3091 3084 2923 2848 
Q 2756 2613 2416 2484 
Q 2838 2347 3058 2040 
Q 3278 1734 3278 1309 
Q 3278 722 2862 322 
Q 2447 -78 1769 -78 
Q 1091 -78 675 323 
Q 259 725 259 1325 
Q 259 1772 486 2073 
Q 713 2375 1131 2484 
z
M 1019 3438 
Q 1019 3113 1228 2906 
Q 1438 2700 1772 2700 
Q 2097 2700 2305 2904 
Q 2513 3109 2513 3406 
Q 2513 3716 2298 3927 
Q 2084 4138 1766 4138 
Q 1444 4138 1231 3931 
Q 1019 3725 1019 3438 
z
M 838 1322 
Q 838 1081 952 856 
Q 1066 631 1291 507 
Q 1516 384 1775 384 
Q 2178 384 2440 643 
Q 2703 903 2703 1303 
Q 2703 1709 2433 1975 
Q 2163 2241 1756 2241 
Q 1359 2241 1098 1978 
Q 838 1716 838 1322 
z
" transform="scale(0.015625)"/>
       </defs>
       <use xlink:href="#ArialMT-30"/>
       <use xlink:href="#ArialMT-2e" x="55.615234"/>
       <use xlink:href="#ArialMT-38" x="83.398438"/>
      </g>
     </g>
    </g>
    <g id="xtick_6">
     <g id="line2d_6">
      <g>
       <use xlink:href="#m16f5abbcd9" x="378.954023" y="273.312" style="fill: #262626; stroke: #262626"/>
      </g>
     </g>
     <g id="text_6">
      <!-- 1.0 -->
      <g style="fill: #262626" transform="translate(372.838023 287.910875) scale(0.088 -0.088)">
       <defs>
        <path id="ArialMT-31" d="M 2384 0 
L 1822 0 
L 1822 3584 
Q 1619 3391 1289 3197 
Q 959 3003 697 2906 
L 697 3450 
Q 1169 3672 1522 3987 
Q 1875 4303 2022 4600 
L 2384 4600 
L 2384 0 
z
" transform="scale(0.015625)"/>
       </defs>
       <use xlink:href="#ArialMT-31"/>
       <use xlink:href="#ArialMT-2e" x="55.615234"/>
       <use xlink:href="#ArialMT-30" x="83.398438"/>
      </g>
     </g>
    </g>
    <g id="text_7">
     <!-- $x$ -->
     <g style="fill: #262626" transform="translate(213.74675 300.531375) scale(0.096 -0.096)">
      <defs>
       <path id="DejaVuSans-Oblique-78" d="M 3841 3500 
L 2234 1784 
L 3219 0 
L 2559 0 
L 1819 1388 
L 531 0 
L -166 0 
L 1556 1844 
L 641 3500 
L 1300 3500 
L 1972 2234 
L 3144 3500 
L 3841 3500 
z
" transform="scale(0.015625)"/>
      </defs>
      <use xlink:href="#DejaVuSans-Oblique-78" transform="translate(0 0.3125)"/>
     </g>
    </g>
   </g>
   <g id="matplotlib.axis_2">
    <g id="ytick_1">
     <g id="line2d_7">
      <defs>
       <path id="m2aba7aca00" d="M 0 0 
L -4.8 0 
" style="stroke: #262626"/>
      </defs>
      <g>
       <use xlink:href="#m2aba7aca00" x="38.06675" y="273.312" style="fill: #262626; stroke: #262626"/>
      </g>
     </g>
     <g id="text_8">
      <!-- 0 -->
      <g style="fill: #262626" transform="translate(24.873125 276.461437) scale(0.088 -0.088)">
       <use xlink:href="#ArialMT-30"/>
      </g>
     </g>
    </g>
    <g id="ytick_2">
     <g id="line2d_8">
      <g>
       <use xlink:href="#m2aba7aca00" x="38.06675" y="227.398583" style="fill: #262626; stroke: #262626"/>
      </g>
     </g>
     <g id="text_9">
      <!-- 2 -->
      <g style="fill: #262626" transform="translate(24.873125 230.54802) scale(0.088 -0.088)">
       <use xlink:href="#ArialMT-32"/>
      </g>
     </g>
    </g>
    <g id="ytick_3">
     <g id="line2d_9">
      <g>
       <use xlink:href="#m2aba7aca00" x="38.06675" y="181.485165" style="fill: #262626; stroke: #262626"/>
      </g>
     </g>
     <g id="text_10">
      <!-- 4 -->
      <g style="fill: #262626" transform="translate(24.873125 184.634603) scale(0.088 -0.088)">
       <use xlink:href="#ArialMT-34"/>
      </g>
     </g>
    </g>
    <g id="ytick_4">
     <g id="line2d_10">
      <g>
       <use xlink:href="#m2aba7aca00" x="38.06675" y="135.571748" style="fill: #262626; stroke: #262626"/>
      </g>
     </g>
     <g id="text_11">
      <!-- 6 -->
      <g style="fill: #262626" transform="translate(24.873125 138.721185) scale(0.088 -0.088)">
       <use xlink:href="#ArialMT-36"/>
      </g>
     </g>
    </g>
    <g id="ytick_5">
     <g id="line2d_11">
      <g>
       <use xlink:href="#m2aba7aca00" x="38.06675" y="89.65833" style="fill: #262626; stroke: #262626"/>
      </g>
     </g>
     <g id="text_12">
      <!-- 8 -->
      <g style="fill: #262626" transform="translate(24.873125 92.807768) scale(0.088 -0.088)">
       <use xlink:href="#ArialMT-38"/>
      </g>
     </g>
    </g>
    <g id="ytick_6">
     <g id="line2d_12">
      <g>
       <use xlink:href="#m2aba7aca00" x="38.06675" y="43.744913" style="fill: #262626; stroke: #262626"/>
      </g>
     </g>
     <g id="text_13">
      <!-- 10 -->
      <g style="fill: #262626" transform="translate(19.9795 46.89435) scale(0.088 -0.088)">
       <use xlink:href="#ArialMT-31"/>
       <use xlink:href="#ArialMT-30" x="55.615234"/>
      </g>
     </g>
    </g>
    <g id="text_14">
     <!-- $\pi(x)$ -->
     <g style="fill: #262626" transform="translate(14.0715 149.76) rotate(-90) scale(0.096 -0.096)">
      <defs>
       <path id="DejaVuSans-Oblique-3c0" d="M 584 3500 
L 3938 3500 
L 3825 2925 
L 3384 2925 
L 2966 775 
Q 2922 550 2981 450 
Q 3038 353 3209 353 
Q 3256 353 3325 363 
Q 3397 369 3419 372 
L 3338 -44 
Q 3222 -84 3103 -103 
Q 2981 -122 2866 -122 
Q 2491 -122 2388 81 
Q 2284 288 2391 838 
L 2797 2925 
L 1506 2925 
L 938 0 
L 350 0 
L 919 2925 
L 472 2925 
L 584 3500 
z
" transform="scale(0.015625)"/>
       <path id="DejaVuSans-28" d="M 1984 4856 
Q 1566 4138 1362 3434 
Q 1159 2731 1159 2009 
Q 1159 1288 1364 580 
Q 1569 -128 1984 -844 
L 1484 -844 
Q 1016 -109 783 600 
Q 550 1309 550 2009 
Q 550 2706 781 3412 
Q 1013 4119 1484 4856 
L 1984 4856 
z
" transform="scale(0.015625)"/>
       <path id="DejaVuSans-29" d="M 513 4856 
L 1013 4856 
Q 1481 4119 1714 3412 
Q 1947 2706 1947 2009 
Q 1947 1309 1714 600 
Q 1481 -109 1013 -844 
L 513 -844 
Q 928 -128 1133 580 
Q 1338 1288 1338 2009 
Q 1338 2731 1133 3434 
Q 928 4138 513 4856 
z
" transform="scale(0.015625)"/>
      </defs>
      <use xlink:href="#DejaVuSans-Oblique-3c0" transform="translate(0 0.125)"/>
      <use xlink:href="#DejaVuSans-28" transform="translate(60.205078 0.125)"/>
      <use xlink:href="#DejaVuSans-Oblique-78" transform="translate(99.21875 0.125)"/>
      <use xlink:href="#DejaVuSans-29" transform="translate(158.398438 0.125)"/>
     </g>
    </g>
   </g>
   <g id="patch_3">
    <path d="M 54.422561 273.312 
L 59.709344 273.312 
L 59.709344 19.872 
L 54.422561 19.872 
z
" clip-path="url(#p4894db1c68)" style="fill: #1f77b4; opacity: 0.25; stroke: #ffffff; stroke-width: 0.8; stroke-linejoin: miter"/>
   </g>
   <g id="patch_4">
    <path d="M 59.709344 273.312 
L 64.996126 273.312 
L 64.996126 163.996222 
L 59.709344 163.996222 
z
" clip-path="url(#p4894db1c68)" style="fill: #1f77b4; opacity: 0.25; stroke: #ffffff; stroke-width: 0.8; stroke-linejoin: miter"/>
   </g>
   <g id="patch_5">
    <path d="M 64.996126 273.312 
L 70.282909 273.312 
L 70.282909 91.358765 
L 64.996126 91.358765 
z
" clip-path="url(#p4894db1c68)" style="fill: #1f77b4; opacity: 0.25; stroke: #ffffff; stroke-width: 0.8; stroke-linejoin: miter"/>
   </g>
   <g id="patch_6">
    <path d="M 70.282909 273.312 
L 75.569692 273.312 
L 75.569692 120.701421 
L 70.282909 120.701421 
z
" clip-path="url(#p4894db1c68)" style="fill: #1f77b4; opacity: 0.25; stroke: #ffffff; stroke-width: 0.8; stroke-linejoin: miter"/>
   </g>
   <g id="patch_7">
    <path d="M 75.569692 273.312 
L 80.856475 273.312 
L 80.856475 178.811387 
L 75.569692 178.811387 
z
" clip-path="url(#p4894db1c68)" style="fill: #1f77b4; opacity: 0.25; stroke: #ffffff; stroke-width: 0.8; stroke-linejoin: miter"/>
   </g>
   <g id="patch_8">
    <path d="M 80.856475 273.312 
L 86.143257 273.312 
L 86.143257 183.989503 
L 80.856475 183.989503 
z
" clip-path="url(#p4894db1c68)" style="fill: #1f77b4; opacity: 0.25; stroke: #ffffff; stroke-width: 0.8; stroke-linejoin: miter"/>
   </g>
   <g id="patch_9">
    <path d="M 86.143257 273.312 
L 91.43004 273.312 
L 91.43004 200.530706 
L 86.143257 200.530706 
z
" clip-path="url(#p4894db1c68)" style="fill: #1f77b4; opacity: 0.25; stroke: #ffffff; stroke-width: 0.8; stroke-linejoin: miter"/>
   </g>
   <g id="patch_10">
    <path d="M 91.43004 273.312 
L 96.716823 273.312 
L 96.716823 227.284304 
L 91.43004 227.284304 
z
" clip-path="url(#p4894db1c68)" style="fill: #1f77b4; opacity: 0.25; stroke: #ffffff; stroke-width: 0.8; stroke-linejoin: miter"/>
   </g>
   <g id="patch_11">
    <path d="M 96.716823 273.312 
L 102.003606 273.312 
L 102.003606 192.475859 
L 96.716823 192.475859 
z
" clip-path="url(#p4894db1c68)" style="fill: #1f77b4; opacity: 0.25; stroke: #ffffff; stroke-width: 0.8; stroke-linejoin: miter"/>
   </g>
   <g id="patch_12">
    <path d="M 102.003606 273.312 
L 107.290389 273.312 
L 107.290389 216.496563 
L 102.003606 216.496563 
z
" clip-path="url(#p4894db1c68)" style="fill: #1f77b4; opacity: 0.25; stroke: #ffffff; stroke-width: 0.8; stroke-linejoin: miter"/>
   </g>
   <g id="patch_13">
    <path d="M 107.290389 273.312 
L 112.577171 273.312 
L 112.577171 241.380286 
L 107.290389 241.380286 
z
" clip-path="url(#p4894db1c68)" style="fill: #1f77b4; opacity: 0.25; stroke: #ffffff; stroke-width: 0.8; stroke-linejoin: miter"/>
   </g>
   <g id="patch_14">
    <path d="M 112.577171 273.312 
L 117.863954 273.312 
L 117.863954 231.024054 
L 112.577171 231.024054 
z
" clip-path="url(#p4894db1c68)" style="fill: #1f77b4; opacity: 0.25; stroke: #ffffff; stroke-width: 0.8; stroke-linejoin: miter"/>
   </g>
   <g id="patch_15">
    <path d="M 117.863954 273.312 
L 123.150737 273.312 
L 123.150737 246.702238 
L 117.863954 246.702238 
z
" clip-path="url(#p4894db1c68)" style="fill: #1f77b4; opacity: 0.25; stroke: #ffffff; stroke-width: 0.8; stroke-linejoin: miter"/>
   </g>
   <g id="patch_16">
    <path d="M 123.150737 273.312 
L 128.43752 273.312 
L 128.43752 258.928345 
L 123.150737 258.928345 
z
" clip-path="url(#p4894db1c68)" style="fill: #1f77b4; opacity: 0.25; stroke: #ffffff; stroke-width: 0.8; stroke-linejoin: miter"/>
   </g>
   <g id="patch_17">
    <path d="M 128.43752 273.312 
L 133.724302 273.312 
L 133.724302 246.846075 
L 128.43752 246.846075 
z
" clip-path="url(#p4894db1c68)" style="fill: #1f77b4; opacity: 0.25; stroke: #ffffff; stroke-width: 0.8; stroke-linejoin: miter"/>
   </g>
   <g id="patch_18">
    <path d="M 133.724302 273.312 
L 139.011085 273.312 
L 139.011085 254.037902 
L 133.724302 254.037902 
z
" clip-path="url(#p4894db1c68)" style="fill: #1f77b4; opacity: 0.25; stroke: #ffffff; stroke-width: 0.8; stroke-linejoin: miter"/>
   </g>
   <g id="patch_19">
    <path d="M 139.011085 273.312 
L 144.297868 273.312 
L 144.297868 265.257153 
L 139.011085 265.257153 
z
" clip-path="url(#p4894db1c68)" style="fill: #1f77b4; opacity: 0.25; stroke: #ffffff; stroke-width: 0.8; stroke-linejoin: miter"/>
   </g>
   <g id="patch_20">
    <path d="M 144.297868 273.312 
L 149.584651 273.312 
L 149.584651 247.852931 
L 144.297868 247.852931 
z
" clip-path="url(#p4894db1c68)" style="fill: #1f77b4; opacity: 0.25; stroke: #ffffff; stroke-width: 0.8; stroke-linejoin: miter"/>
   </g>
   <g id="patch_21">
    <path d="M 149.584651 273.312 
L 154.871434 273.312 
L 154.871434 269.428413 
L 149.584651 269.428413 
z
" clip-path="url(#p4894db1c68)" style="fill: #1f77b4; opacity: 0.25; stroke: #ffffff; stroke-width: 0.8; stroke-linejoin: miter"/>
   </g>
   <g id="patch_22">
    <path d="M 154.871434 273.312 
L 160.158216 273.312 
L 160.158216 266.695519 
L 154.871434 266.695519 
z
" clip-path="url(#p4894db1c68)" style="fill: #1f77b4; opacity: 0.25; stroke: #ffffff; stroke-width: 0.8; stroke-linejoin: miter"/>
   </g>
   <g id="patch_23">
    <path d="M 160.158216 273.312 
L 165.444999 273.312 
L 165.444999 258.352999 
L 160.158216 258.352999 
z
" clip-path="url(#p4894db1c68)" style="fill: #1f77b4; opacity: 0.25; stroke: #ffffff; stroke-width: 0.8; stroke-linejoin: miter"/>
   </g>
   <g id="patch_24">
    <path d="M 165.444999 273.312 
L 170.731782 273.312 
L 170.731782 264.681807 
L 165.444999 264.681807 
z
" clip-path="url(#p4894db1c68)" style="fill: #1f77b4; opacity: 0.25; stroke: #ffffff; stroke-width: 0.8; stroke-linejoin: miter"/>
   </g>
   <g id="patch_25">
    <path d="M 170.731782 273.312 
L 176.018565 273.312 
L 176.018565 269.859923 
L 170.731782 269.859923 
z
" clip-path="url(#p4894db1c68)" style="fill: #1f77b4; opacity: 0.25; stroke: #ffffff; stroke-width: 0.8; stroke-linejoin: miter"/>
   </g>
   <g id="patch_26">
    <path d="M 176.018565 273.312 
L 181.305347 273.312 
L 181.305347 272.88049 
L 176.018565 272.88049 
z
" clip-path="url(#p4894db1c68)" style="fill: #1f77b4; opacity: 0.25; stroke: #ffffff; stroke-width: 0.8; stroke-linejoin: miter"/>
   </g>
   <g id="patch_27">
    <path d="M 181.305347 273.312 
L 186.59213 273.312 
L 186.59213 271.298288 
L 181.305347 271.298288 
z
" clip-path="url(#p4894db1c68)" style="fill: #1f77b4; opacity: 0.25; stroke: #ffffff; stroke-width: 0.8; stroke-linejoin: miter"/>
   </g>
   <g id="patch_28">
    <path d="M 186.59213 273.312 
L 191.878913 273.312 
L 191.878913 269.284577 
L 186.59213 269.284577 
z
" clip-path="url(#p4894db1c68)" style="fill: #1f77b4; opacity: 0.25; stroke: #ffffff; stroke-width: 0.8; stroke-linejoin: miter"/>
   </g>
   <g id="patch_29">
    <path d="M 191.878913 273.312 
L 197.165696 273.312 
L 197.165696 267.702375 
L 191.878913 267.702375 
z
" clip-path="url(#p4894db1c68)" style="fill: #1f77b4; opacity: 0.25; stroke: #ffffff; stroke-width: 0.8; stroke-linejoin: miter"/>
   </g>
   <g id="patch_30">
    <path d="M 197.165696 273.312 
L 202.452479 273.312 
L 202.452479 266.551682 
L 197.165696 266.551682 
z
" clip-path="url(#p4894db1c68)" style="fill: #1f77b4; opacity: 0.25; stroke: #ffffff; stroke-width: 0.8; stroke-linejoin: miter"/>
   </g>
   <g id="patch_31">
    <path d="M 202.452479 273.312 
L 207.739261 273.312 
L 207.739261 270.003759 
L 202.452479 270.003759 
z
" clip-path="url(#p4894db1c68)" style="fill: #1f77b4; opacity: 0.25; stroke: #ffffff; stroke-width: 0.8; stroke-linejoin: miter"/>
   </g>
   <g id="patch_32">
    <path d="M 207.739261 273.312 
L 213.026044 273.312 
L 213.026044 273.024327 
L 207.739261 273.024327 
z
" clip-path="url(#p4894db1c68)" style="fill: #1f77b4; opacity: 0.25; stroke: #ffffff; stroke-width: 0.8; stroke-linejoin: miter"/>
   </g>
   <g id="patch_33">
    <path d="M 213.026044 273.312 
L 218.312827 273.312 
L 218.312827 270.291432 
L 213.026044 270.291432 
z
" clip-path="url(#p4894db1c68)" style="fill: #1f77b4; opacity: 0.25; stroke: #ffffff; stroke-width: 0.8; stroke-linejoin: miter"/>
   </g>
   <g id="patch_34">
    <path d="M 218.312827 273.312 
L 223.59961 273.312 
L 223.59961 270.435269 
L 218.312827 270.435269 
z
" clip-path="url(#p4894db1c68)" style="fill: #1f77b4; opacity: 0.25; stroke: #ffffff; stroke-width: 0.8; stroke-linejoin: miter"/>
   </g>
   <g id="patch_35">
    <path d="M 223.59961 273.312 
L 228.886392 273.312 
L 228.886392 270.866779 
L 223.59961 270.866779 
z
" clip-path="url(#p4894db1c68)" style="fill: #1f77b4; opacity: 0.25; stroke: #ffffff; stroke-width: 0.8; stroke-linejoin: miter"/>
   </g>
   <g id="patch_36">
    <path d="M 228.886392 273.312 
L 234.173175 273.312 
L 234.173175 270.579106 
L 228.886392 270.579106 
z
" clip-path="url(#p4894db1c68)" style="fill: #1f77b4; opacity: 0.25; stroke: #ffffff; stroke-width: 0.8; stroke-linejoin: miter"/>
   </g>
   <g id="patch_37">
    <path d="M 234.173175 273.312 
L 239.459958 273.312 
L 239.459958 272.736654 
L 234.173175 272.736654 
z
" clip-path="url(#p4894db1c68)" style="fill: #1f77b4; opacity: 0.25; stroke: #ffffff; stroke-width: 0.8; stroke-linejoin: miter"/>
   </g>
   <g id="patch_38">
    <path d="M 239.459958 273.312 
L 244.746741 273.312 
L 244.746741 272.88049 
L 239.459958 272.88049 
z
" clip-path="url(#p4894db1c68)" style="fill: #1f77b4; opacity: 0.25; stroke: #ffffff; stroke-width: 0.8; stroke-linejoin: miter"/>
   </g>
   <g id="patch_39">
    <path d="M 244.746741 273.312 
L 250.033524 273.312 
L 250.033524 272.161308 
L 244.746741 272.161308 
z
" clip-path="url(#p4894db1c68)" style="fill: #1f77b4; opacity: 0.25; stroke: #ffffff; stroke-width: 0.8; stroke-linejoin: miter"/>
   </g>
   <g id="patch_40">
    <path d="M 250.033524 273.312 
L 255.320306 273.312 
L 255.320306 272.592817 
L 250.033524 272.592817 
z
" clip-path="url(#p4894db1c68)" style="fill: #1f77b4; opacity: 0.25; stroke: #ffffff; stroke-width: 0.8; stroke-linejoin: miter"/>
   </g>
   <g id="patch_41">
    <path d="M 255.320306 273.312 
L 260.607089 273.312 
L 260.607089 272.448981 
L 255.320306 272.448981 
z
" clip-path="url(#p4894db1c68)" style="fill: #1f77b4; opacity: 0.25; stroke: #ffffff; stroke-width: 0.8; stroke-linejoin: miter"/>
   </g>
   <g id="patch_42">
    <path d="M 260.607089 273.312 
L 265.893872 273.312 
L 265.893872 273.312 
L 260.607089 273.312 
z
" clip-path="url(#p4894db1c68)" style="fill: #1f77b4; opacity: 0.25; stroke: #ffffff; stroke-width: 0.8; stroke-linejoin: miter"/>
   </g>
   <g id="patch_43">
    <path d="M 265.893872 273.312 
L 271.180655 273.312 
L 271.180655 273.312 
L 265.893872 273.312 
z
" clip-path="url(#p4894db1c68)" style="fill: #1f77b4; opacity: 0.25; stroke: #ffffff; stroke-width: 0.8; stroke-linejoin: miter"/>
   </g>
   <g id="patch_44">
    <path d="M 271.180655 273.312 
L 276.467437 273.312 
L 276.467437 273.168163 
L 271.180655 273.168163 
z
" clip-path="url(#p4894db1c68)" style="fill: #1f77b4; opacity: 0.25; stroke: #ffffff; stroke-width: 0.8; stroke-linejoin: miter"/>
   </g>
   <g id="patch_45">
    <path d="M 276.467437 273.312 
L 281.75422 273.312 
L 281.75422 272.161308 
L 276.467437 272.161308 
z
" clip-path="url(#p4894db1c68)" style="fill: #1f77b4; opacity: 0.25; stroke: #ffffff; stroke-width: 0.8; stroke-linejoin: miter"/>
   </g>
   <g id="patch_46">
    <path d="M 281.75422 273.312 
L 287.041003 273.312 
L 287.041003 273.312 
L 281.75422 273.312 
z
" clip-path="url(#p4894db1c68)" style="fill: #1f77b4; opacity: 0.25; stroke: #ffffff; stroke-width: 0.8; stroke-linejoin: miter"/>
   </g>
   <g id="patch_47">
    <path d="M 287.041003 273.312 
L 292.327786 273.312 
L 292.327786 273.312 
L 287.041003 273.312 
z
" clip-path="url(#p4894db1c68)" style="fill: #1f77b4; opacity: 0.25; stroke: #ffffff; stroke-width: 0.8; stroke-linejoin: miter"/>
   </g>
   <g id="patch_48">
    <path d="M 292.327786 273.312 
L 297.614569 273.312 
L 297.614569 272.305144 
L 292.327786 272.305144 
z
" clip-path="url(#p4894db1c68)" style="fill: #1f77b4; opacity: 0.25; stroke: #ffffff; stroke-width: 0.8; stroke-linejoin: miter"/>
   </g>
   <g id="patch_49">
    <path d="M 297.614569 273.312 
L 302.901351 273.312 
L 302.901351 273.312 
L 297.614569 273.312 
z
" clip-path="url(#p4894db1c68)" style="fill: #1f77b4; opacity: 0.25; stroke: #ffffff; stroke-width: 0.8; stroke-linejoin: miter"/>
   </g>
   <g id="patch_50">
    <path d="M 302.901351 273.312 
L 308.188134 273.312 
L 308.188134 273.312 
L 302.901351 273.312 
z
" clip-path="url(#p4894db1c68)" style="fill: #1f77b4; opacity: 0.25; stroke: #ffffff; stroke-width: 0.8; stroke-linejoin: miter"/>
   </g>
   <g id="patch_51">
    <path d="M 308.188134 273.312 
L 313.474917 273.312 
L 313.474917 273.168163 
L 308.188134 273.168163 
z
" clip-path="url(#p4894db1c68)" style="fill: #1f77b4; opacity: 0.25; stroke: #ffffff; stroke-width: 0.8; stroke-linejoin: miter"/>
   </g>
   <g id="patch_52">
    <path d="M 313.474917 273.312 
L 318.7617 273.312 
L 318.7617 272.88049 
L 313.474917 272.88049 
z
" clip-path="url(#p4894db1c68)" style="fill: #1f77b4; opacity: 0.25; stroke: #ffffff; stroke-width: 0.8; stroke-linejoin: miter"/>
   </g>
   <g id="line2d_13">
    <path d="M 54.299477 43.744913 
L 57.578816 65.800823 
L 60.858155 85.737687 
L 64.137494 103.759095 
L 67.416833 120.049076 
L 70.696171 134.77398 
L 73.97551 148.084172 
L 77.254849 160.115573 
L 80.534188 170.991044 
L 83.813527 180.821642 
L 87.092866 189.707755 
L 90.372205 197.740125 
L 93.651543 205.000776 
L 96.930882 211.563851 
L 100.210221 217.496373 
L 103.48956 222.85892 
L 106.768899 227.706255 
L 110.048238 232.087877 
L 113.327576 236.04853 
L 116.606915 239.628659 
L 119.886254 242.864823 
L 123.165593 245.790069 
L 126.444932 248.434269 
L 129.724271 250.824424 
L 133.00361 252.984942 
L 136.282948 254.937887 
L 139.562287 256.7032 
L 142.841626 258.298909 
L 146.120965 259.741308 
L 149.400304 261.045127 
L 152.679643 262.22368 
L 155.958981 263.289003 
L 159.23832 264.251973 
L 162.517659 265.122425 
L 165.796998 265.909248 
L 169.076337 266.620475 
L 172.355676 267.263371 
L 175.635014 267.844499 
L 178.914353 268.369796 
L 182.193692 268.844623 
L 185.473031 269.273831 
L 188.75237 269.661803 
L 192.031709 270.0125 
L 195.311048 270.329503 
L 198.590386 270.616049 
L 201.869725 270.875066 
L 205.149064 271.109197 
L 208.428403 271.320834 
L 211.707742 271.512137 
L 214.987081 271.685061 
L 218.266419 271.841371 
L 221.545758 271.982663 
L 224.825097 272.110381 
L 228.104436 272.225828 
L 231.383775 272.330183 
L 234.663114 272.424512 
L 237.942452 272.509778 
L 241.221791 272.586853 
L 244.50113 272.656522 
L 247.780469 272.719498 
L 251.059808 272.776423 
L 254.339147 272.827879 
L 257.618486 272.874392 
L 260.897824 272.916435 
L 264.177163 272.95444 
L 267.456502 272.988793 
L 270.735841 273.019845 
L 274.01518 273.047914 
L 277.294519 273.073287 
L 280.573857 273.096221 
L 283.853196 273.116952 
L 287.132535 273.135692 
L 290.411874 273.152631 
L 293.691213 273.167942 
L 296.970552 273.181783 
L 300.24989 273.194294 
L 303.529229 273.205602 
L 306.808568 273.215825 
L 310.087907 273.225065 
L 313.367246 273.233417 
L 316.646585 273.240967 
L 319.925924 273.247792 
L 323.205262 273.253961 
L 326.484601 273.259537 
L 329.76394 273.264577 
L 333.043279 273.269133 
L 336.322618 273.273252 
L 339.601957 273.276975 
L 342.881295 273.28034 
L 346.160634 273.283382 
L 349.439973 273.286131 
L 352.719312 273.288616 
L 355.998651 273.290863 
L 359.27799 273.292894 
L 362.557329 273.294729 
L 365.836667 273.296389 
L 369.116006 273.297889 
L 372.395345 273.299244 
L 375.674684 273.30047 
L 378.954023 273.301578 
" clip-path="url(#p4894db1c68)" style="fill: none; stroke: #ff7f0e; stroke-width: 1.2; stroke-linecap: round"/>
   </g>
   <g id="patch_53">
    <path d="M 38.06675 273.312 
L 38.06675 43.744913 
" style="fill: none; stroke: #262626; stroke-linejoin: miter; stroke-linecap: square"/>
   </g>
   <g id="patch_54">
    <path d="M 54.299477 273.312 
L 378.954023 273.312 
" style="fill: none; stroke: #262626; stroke-linejoin: miter; stroke-linecap: square"/>
   </g>
  </g>
 </g>
 <defs>
  <clipPath id="p4894db1c68">
   <rect x="38.06675" y="7.2" width="357.12" height="266.112"/>
  </clipPath>
 </defs>
</svg>