<?xml version="1.0" encoding="utf-8" standalone="no"?>
<!DOCTYPE svg PUBLIC "-//W3C//DTD SVG 1.1//EN"
  "http://www.w3.org/Graphics/SVG/1.1/DTD/svg11.dtd">
<svg xmlns:xlink="http://www.w3.org/1999/xlink" width="404.8315pt" height="309.756375pt" viewBox="0 0 404.8315 309.756375" xmlns="http://www.w3.org/2000/svg" version="1.1">
 <metadata>
  <rdf:RDF xmlns:dc="http://purl.org/dc/elements/1.1/" xmlns:cc="http://creativecommons.org/ns#" xmlns:rdf="http://www.w3.org/1999/02/22-rdf-syntax-ns#">
   <cc:Work>
    <dc:type rdf:resource="http://purl.org/dc/dcmitype/StillImage"/>
    <dc:date>2023-10-26T21:27:52.554212</dc:date>
    <dc:format>image/svg+xml</dc:format>
    <dc:creator>
     <cc:Agent>
      <dc:title>Matplotlib v3.8.0, https://matplotlib.org/</dc:title>
     </cc:Agent>
    </dc:creator>
   </cc:Work>
  </rdf:RDF>
 </metadata>
 <defs>
  <style type="text/css">*{stroke-linejoin: round; stroke-linecap: butt}</style>
 </defs>
 <g id="figure_1">
  <g id="patch_1">
   <path d="M 0 309.756375 
L 404.8315 309.756375 
L 404.8315 0 
L 0 0 
z
" style="fill: #ffffff"/>
  </g>
  <g id="axes_1">
   <g id="patch_2">
    <path d="M 40.5115 273.312 
L 397.6315 273.312 
L 397.6315 7.2 
L 40.5115 7.2 
z
" style="fill: #ffffff"/>
   </g>
   <g id="matplotlib.axis_1">
    <g id="xtick_1">
     <g id="line2d_1">
      <defs>
       <path id="m18c4095d0b" d="M 0 0 
L 0 4.8 
" style="stroke: #262626"/>
      </defs>
      <g>
       <use xlink:href="#m18c4095d0b" x="56.744227" y="273.312" style="fill: #262626; stroke: #262626"/>
      </g>
     </g>
     <g id="text_1">
      <!-- 0 -->
      <g style="fill: #262626" transform="translate(54.297415 287.910875) scale(0.088 -0.088)">
       <defs>
        <path id="ArialMT-30" d="M 266 2259 
Q 266 3072 433 3567 
Q 600 4063 929 4331 
Q 1259 4600 1759 4600 
Q 2128 4600 2406 4451 
Q 2684 4303 2865 4023 
Q 3047 3744 3150 3342 
Q 3253 2941 3253 2259 
Q 3253 1453 3087 958 
Q 2922 463 2592 192 
Q 2263 -78 1759 -78 
Q 1097 -78 719 397 
Q 266 969 266 2259 
z
M 844 2259 
Q 844 1131 1108 757 
Q 1372 384 1759 384 
Q 2147 384 2411 759 
Q 2675 1134 2675 2259 
Q 2675 3391 2411 3762 
Q 2147 4134 1753 4134 
Q 1366 4134 1134 3806 
Q 844 3388 844 2259 
z
" transform="scale(0.015625)"/>
       </defs>
       <use xlink:href="#ArialMT-30"/>
      </g>
     </g>
    </g>
    <g id="xtick_2">
     <g id="line2d_2">
      <g>
       <use xlink:href="#m18c4095d0b" x="121.740132" y="273.312" style="fill: #262626; stroke: #262626"/>
      </g>
     </g>
     <g id="text_2">
      <!-- 200 -->
      <g style="fill: #262626" transform="translate(114.399695 287.910875) scale(0.088 -0.088)">
       <defs>
        <path id="ArialMT-32" d="M 3222 541 
L 3222 0 
L 194 0 
Q 188 203 259 391 
Q 375 700 629 1000 
Q 884 1300 1366 1694 
Q 2113 2306 2375 2664 
Q 2638 3022 2638 3341 
Q 2638 3675 2398 3904 
Q 2159 4134 1775 4134 
Q 1369 4134 1125 3890 
Q 881 3647 878 3216 
L 300 3275 
Q 359 3922 746 4261 
Q 1134 4600 1788 4600 
Q 2447 4600 2831 4234 
Q 3216 3869 3216 3328 
Q 3216 3053 3103 2787 
Q 2991 2522 2730 2228 
Q 2469 1934 1863 1422 
Q 1356 997 1212 845 
Q 1069 694 975 541 
L 3222 541 
z
" transform="scale(0.015625)"/>
       </defs>
       <use xlink:href="#ArialMT-32"/>
       <use xlink:href="#ArialMT-30" x="55.615234"/>
       <use xlink:href="#ArialMT-30" x="111.230469"/>
      </g>
     </g>
    </g>
    <g id="xtick_3">
     <g id="line2d_3">
      <g>
       <use xlink:href="#m18c4095d0b" x="186.736037" y="273.312" style="fill: #262626; stroke: #262626"/>
      </g>
     </g>
     <g id="text_3">
      <!-- 400 -->
      <g style="fill: #262626" transform="translate(179.3956 287.910875) scale(0.088 -0.088)">
       <defs>
        <path id="ArialMT-34" d="M 2069 0 
L 2069 1097 
L 81 1097 
L 81 1613 
L 2172 4581 
L 2631 4581 
L 2631 1613 
L 3250 1613 
L 3250 1097 
L 2631 1097 
L 2631 0 
L 2069 0 
z
M 2069 1613 
L 2069 3678 
L 634 1613 
L 2069 1613 
z
" transform="scale(0.015625)"/>
       </defs>
       <use xlink:href="#ArialMT-34"/>
       <use xlink:href="#ArialMT-30" x="55.615234"/>
       <use xlink:href="#ArialMT-30" x="111.230469"/>
      </g>
     </g>
    </g>
    <g id="xtick_4">
     <g id="line2d_4">
      <g>
       <use xlink:href="#m18c4095d0b" x="251.731942" y="273.312" style="fill: #262626; stroke: #262626"/>
      </g>
     </g>
     <g id="text_4">
      <!-- 600 -->
      <g style="fill: #262626" transform="translate(244.391505 287.910875) scale(0.088 -0.088)">
       <defs>
        <path id="ArialMT-36" d="M 3184 3459 
L 2625 3416 
Q 2550 3747 2413 3897 
Q 2184 4138 1850 4138 
Q 1581 4138 1378 3988 
Q 1113 3794 959 3422 
Q 806 3050 800 2363 
Q 1003 2672 1297 2822 
Q 1591 2972 1913 2972 
Q 2475 2972 2870 2558 
Q 3266 2144 3266 1488 
Q 3266 1056 3080 686 
Q 2894 316 2569 119 
Q 2244 -78 1831 -78 
Q 1128 -78 684 439 
Q 241 956 241 2144 
Q 241 3472 731 4075 
Q 1159 4600 1884 4600 
Q 2425 4600 2770 4297 
Q 3116 3994 3184 3459 
z
M 888 1484 
Q 888 1194 1011 928 
Q 1134 663 1356 523 
Q 1578 384 1822 384 
Q 2178 384 2434 671 
Q 2691 959 2691 1453 
Q 2691 1928 2437 2201 
Q 2184 2475 1800 2475 
Q 1419 2475 1153 2201 
Q 888 1928 888 1484 
z
" transform="scale(0.015625)"/>
       </defs>
       <use xlink:href="#ArialMT-36"/>
       <use xlink:href="#ArialMT-30" x="55.615234"/>
       <use xlink:href="#ArialMT-30" x="111.230469"/>
      </g>
     </g>
    </g>
    <g id="xtick_5">
     <g id="line2d_5">
      <g>
       <use xlink:href="#m18c4095d0b" x="316.727847" y="273.312" style="fill: #262626; stroke: #262626"/>
      </g>
     </g>
     <g id="text_5">
      <!-- 800 -->
      <g style="fill: #262626" transform="translate(309.38741 287.910875) scale(0.088 -0.088)">
       <defs>
        <path id="ArialMT-38" d="M 1131 2484 
Q 781 2613 612 2850 
Q 444 3088 444 3419 
Q 444 3919 803 4259 
Q 1163 4600 1759 4600 
Q 2359 4600 2725 4251 
Q 3091 3903 3091 3403 
Q 3091 3084 2923 2848 
Q 2756 2613 2416 2484 
Q 2838 2347 3058 2040 
Q 3278 1734 3278 1309 
Q 3278 722 2862 322 
Q 2447 -78 1769 -78 
Q 1091 -78 675 323 
Q 259 725 259 1325 
Q 259 1772 486 2073 
Q 713 2375 1131 2484 
z
M 1019 3438 
Q 1019 3113 1228 2906 
Q 1438 2700 1772 2700 
Q 2097 2700 2305 2904 
Q 2513 3109 2513 3406 
Q 2513 3716 2298 3927 
Q 2084 4138 1766 4138 
Q 1444 4138 1231 3931 
Q 1019 3725 1019 3438 
z
M 838 1322 
Q 838 1081 952 856 
Q 1066 631 1291 507 
Q 1516 384 1775 384 
Q 2178 384 2440 643 
Q 2703 903 2703 1303 
Q 2703 1709 2433 1975 
Q 2163 2241 1756 2241 
Q 1359 2241 1098 1978 
Q 838 1716 838 1322 
z
" transform="scale(0.015625)"/>
       </defs>
       <use xlink:href="#ArialMT-38"/>
       <use xlink:href="#ArialMT-30" x="55.615234"/>
       <use xlink:href="#ArialMT-30" x="111.230469"/>
      </g>
     </g>
    </g>
    <g id="xtick_6">
     <g id="line2d_6">
      <g>
       <use xlink:href="#m18c4095d0b" x="381.723752" y="273.312" style="fill: #262626; stroke: #262626"/>
      </g>
     </g>
     <g id="text_6">
      <!-- 1000 -->
      <g style="fill: #262626" transform="translate(371.936502 287.910875) scale(0.088 -0.088)">
       <defs>
        <path id="ArialMT-31" d="M 2384 0 
L 1822 0 
L 1822 3584 
Q 1619 3391 1289 3197 
Q 959 3003 697 2906 
L 697 3450 
Q 1169 3672 1522 3987 
Q 1875 4303 2022 4600 
L 2384 4600 
L 2384 0 
z
" transform="scale(0.015625)"/>
       </defs>
       <use xlink:href="#ArialMT-31"/>
       <use xlink:href="#ArialMT-30" x="55.615234"/>
       <use xlink:href="#ArialMT-30" x="111.230469"/>
       <use xlink:href="#ArialMT-30" x="166.845703"/>
      </g>
     </g>
    </g>
    <g id="text_7">
     <!-- Sample number -->
     <g style="fill: #262626" transform="translate(185.19025 300.648375) scale(0.096 -0.096)">
      <defs>
       <path id="ArialMT-53" d="M 288 1472 
L 859 1522 
Q 900 1178 1048 958 
Q 1197 738 1509 602 
Q 1822 466 2213 466 
Q 2559 466 2825 569 
Q 3091 672 3220 851 
Q 3350 1031 3350 1244 
Q 3350 1459 3225 1620 
Q 3100 1781 2813 1891 
Q 2628 1963 1997 2114 
Q 1366 2266 1113 2400 
Q 784 2572 623 2826 
Q 463 3081 463 3397 
Q 463 3744 659 4045 
Q 856 4347 1234 4503 
Q 1613 4659 2075 4659 
Q 2584 4659 2973 4495 
Q 3363 4331 3572 4012 
Q 3781 3694 3797 3291 
L 3216 3247 
Q 3169 3681 2898 3903 
Q 2628 4125 2100 4125 
Q 1550 4125 1298 3923 
Q 1047 3722 1047 3438 
Q 1047 3191 1225 3031 
Q 1400 2872 2139 2705 
Q 2878 2538 3153 2413 
Q 3553 2228 3743 1945 
Q 3934 1663 3934 1294 
Q 3934 928 3725 604 
Q 3516 281 3123 101 
Q 2731 -78 2241 -78 
Q 1619 -78 1198 103 
Q 778 284 539 648 
Q 300 1013 288 1472 
z
" transform="scale(0.015625)"/>
       <path id="ArialMT-61" d="M 2588 409 
Q 2275 144 1986 34 
Q 1697 -75 1366 -75 
Q 819 -75 525 192 
Q 231 459 231 875 
Q 231 1119 342 1320 
Q 453 1522 633 1644 
Q 813 1766 1038 1828 
Q 1203 1872 1538 1913 
Q 2219 1994 2541 2106 
Q 2544 2222 2544 2253 
Q 2544 2597 2384 2738 
Q 2169 2928 1744 2928 
Q 1347 2928 1158 2789 
Q 969 2650 878 2297 
L 328 2372 
Q 403 2725 575 2942 
Q 747 3159 1072 3276 
Q 1397 3394 1825 3394 
Q 2250 3394 2515 3294 
Q 2781 3194 2906 3042 
Q 3031 2891 3081 2659 
Q 3109 2516 3109 2141 
L 3109 1391 
Q 3109 606 3145 398 
Q 3181 191 3288 0 
L 2700 0 
Q 2613 175 2588 409 
z
M 2541 1666 
Q 2234 1541 1622 1453 
Q 1275 1403 1131 1340 
Q 988 1278 909 1158 
Q 831 1038 831 891 
Q 831 666 1001 516 
Q 1172 366 1500 366 
Q 1825 366 2078 508 
Q 2331 650 2450 897 
Q 2541 1088 2541 1459 
L 2541 1666 
z
" transform="scale(0.015625)"/>
       <path id="ArialMT-6d" d="M 422 0 
L 422 3319 
L 925 3319 
L 925 2853 
Q 1081 3097 1340 3245 
Q 1600 3394 1931 3394 
Q 2300 3394 2536 3241 
Q 2772 3088 2869 2813 
Q 3263 3394 3894 3394 
Q 4388 3394 4653 3120 
Q 4919 2847 4919 2278 
L 4919 0 
L 4359 0 
L 4359 2091 
Q 4359 2428 4304 2576 
Q 4250 2725 4106 2815 
Q 3963 2906 3769 2906 
Q 3419 2906 3187 2673 
Q 2956 2441 2956 1928 
L 2956 0 
L 2394 0 
L 2394 2156 
Q 2394 2531 2256 2718 
Q 2119 2906 1806 2906 
Q 1569 2906 1367 2781 
Q 1166 2656 1075 2415 
Q 984 2175 984 1722 
L 984 0 
L 422 0 
z
" transform="scale(0.015625)"/>
       <path id="ArialMT-70" d="M 422 -1272 
L 422 3319 
L 934 3319 
L 934 2888 
Q 1116 3141 1344 3267 
Q 1572 3394 1897 3394 
Q 2322 3394 2647 3175 
Q 2972 2956 3137 2557 
Q 3303 2159 3303 1684 
Q 3303 1175 3120 767 
Q 2938 359 2589 142 
Q 2241 -75 1856 -75 
Q 1575 -75 1351 44 
Q 1128 163 984 344 
L 984 -1272 
L 422 -1272 
z
M 931 1641 
Q 931 1000 1190 694 
Q 1450 388 1819 388 
Q 2194 388 2461 705 
Q 2728 1022 2728 1688 
Q 2728 2322 2467 2637 
Q 2206 2953 1844 2953 
Q 1484 2953 1207 2617 
Q 931 2281 931 1641 
z
" transform="scale(0.015625)"/>
       <path id="ArialMT-6c" d="M 409 0 
L 409 4581 
L 972 4581 
L 972 0 
L 409 0 
z
" transform="scale(0.015625)"/>
       <path id="ArialMT-65" d="M 2694 1069 
L 3275 997 
Q 3138 488 2766 206 
Q 2394 -75 1816 -75 
Q 1088 -75 661 373 
Q 234 822 234 1631 
Q 234 2469 665 2931 
Q 1097 3394 1784 3394 
Q 2450 3394 2872 2941 
Q 3294 2488 3294 1666 
Q 3294 1616 3291 1516 
L 816 1516 
Q 847 969 1125 678 
Q 1403 388 1819 388 
Q 2128 388 2347 550 
Q 2566 713 2694 1069 
z
M 847 1978 
L 2700 1978 
Q 2663 2397 2488 2606 
Q 2219 2931 1791 2931 
Q 1403 2931 1139 2672 
Q 875 2413 847 1978 
z
" transform="scale(0.015625)"/>
       <path id="ArialMT-20" transform="scale(0.015625)"/>
       <path id="ArialMT-6e" d="M 422 0 
L 422 3319 
L 928 3319 
L 928 2847 
Q 1294 3394 1984 3394 
Q 2284 3394 2536 3286 
Q 2788 3178 2913 3003 
Q 3038 2828 3088 2588 
Q 3119 2431 3119 2041 
L 3119 0 
L 2556 0 
L 2556 2019 
Q 2556 2363 2490 2533 
Q 2425 2703 2258 2804 
Q 2091 2906 1866 2906 
Q 1506 2906 1245 2678 
Q 984 2450 984 1813 
L 984 0 
L 422 0 
z
" transform="scale(0.015625)"/>
       <path id="ArialMT-75" d="M 2597 0 
L 2597 488 
Q 2209 -75 1544 -75 
Q 1250 -75 995 37 
Q 741 150 617 320 
Q 494 491 444 738 
Q 409 903 409 1263 
L 409 3319 
L 972 3319 
L 972 1478 
Q 972 1038 1006 884 
Q 1059 663 1231 536 
Q 1403 409 1656 409 
Q 1909 409 2131 539 
Q 2353 669 2445 892 
Q 2538 1116 2538 1541 
L 2538 3319 
L 3100 3319 
L 3100 0 
L 2597 0 
z
" transform="scale(0.015625)"/>
       <path id="ArialMT-62" d="M 941 0 
L 419 0 
L 419 4581 
L 981 4581 
L 981 2947 
Q 1338 3394 1891 3394 
Q 2197 3394 2470 3270 
Q 2744 3147 2920 2923 
Q 3097 2700 3197 2384 
Q 3297 2069 3297 1709 
Q 3297 856 2875 390 
Q 2453 -75 1863 -75 
Q 1275 -75 941 416 
L 941 0 
z
M 934 1684 
Q 934 1088 1097 822 
Q 1363 388 1816 388 
Q 2184 388 2453 708 
Q 2722 1028 2722 1663 
Q 2722 2313 2464 2622 
Q 2206 2931 1841 2931 
Q 1472 2931 1203 2611 
Q 934 2291 934 1684 
z
" transform="scale(0.015625)"/>
       <path id="ArialMT-72" d="M 416 0 
L 416 3319 
L 922 3319 
L 922 2816 
Q 1116 3169 1280 3281 
Q 1444 3394 1641 3394 
Q 1925 3394 2219 3213 
L 2025 2691 
Q 1819 2813 1613 2813 
Q 1428 2813 1281 2702 
Q 1134 2591 1072 2394 
Q 978 2094 978 1738 
L 978 0 
L 416 0 
z
" transform="scale(0.015625)"/>
      </defs>
      <use xlink:href="#ArialMT-53"/>
      <use xlink:href="#ArialMT-61" x="66.699219"/>
      <use xlink:href="#ArialMT-6d" x="122.314453"/>
      <use xlink:href="#ArialMT-70" x="205.615234"/>
      <use xlink:href="#ArialMT-6c" x="261.230469"/>
      <use xlink:href="#ArialMT-65" x="283.447266"/>
      <use xlink:href="#ArialMT-20" x="339.0625"/>
      <use xlink:href="#ArialMT-6e" x="366.845703"/>
      <use xlink:href="#ArialMT-75" x="422.460938"/>
      <use xlink:href="#ArialMT-6d" x="478.076172"/>
      <use xlink:href="#ArialMT-62" x="561.376953"/>
      <use xlink:href="#ArialMT-65" x="616.992188"/>
      <use xlink:href="#ArialMT-72" x="672.607422"/>
     </g>
    </g>
   </g>
   <g id="matplotlib.axis_2">
    <g id="ytick_1">
     <g id="line2d_7">
      <defs>
       <path id="ma9c1a0b414" d="M 0 0 
L -4.8 0 
" style="stroke: #262626"/>
      </defs>
      <g>
       <use xlink:href="#ma9c1a0b414" x="40.5115" y="261.013672" style="fill: #262626; stroke: #262626"/>
      </g>
     </g>
     <g id="text_8">
      <!-- 0.0 -->
      <g style="fill: #262626" transform="translate(19.9795 264.163109) scale(0.088 -0.088)">
       <defs>
        <path id="ArialMT-2e" d="M 581 0 
L 581 641 
L 1222 641 
L 1222 0 
L 581 0 
z
" transform="scale(0.015625)"/>
       </defs>
       <use xlink:href="#ArialMT-30"/>
       <use xlink:href="#ArialMT-2e" x="55.615234"/>
       <use xlink:href="#ArialMT-30" x="83.398438"/>
      </g>
     </g>
    </g>
    <g id="ytick_2">
     <g id="line2d_8">
      <g>
       <use xlink:href="#ma9c1a0b414" x="40.5115" y="204.269175" style="fill: #262626; stroke: #262626"/>
      </g>
     </g>
     <g id="text_9">
      <!-- 0.1 -->
      <g style="fill: #262626" transform="translate(19.9795 207.418613) scale(0.088 -0.088)">
       <use xlink:href="#ArialMT-30"/>
       <use xlink:href="#ArialMT-2e" x="55.615234"/>
       <use xlink:href="#ArialMT-31" x="83.398438"/>
      </g>
     </g>
    </g>
    <g id="ytick_3">
     <g id="line2d_9">
      <g>
       <use xlink:href="#ma9c1a0b414" x="40.5115" y="147.524678" style="fill: #262626; stroke: #262626"/>
      </g>
     </g>
     <g id="text_10">
      <!-- 0.2 -->
      <g style="fill: #262626" transform="translate(19.9795 150.674116) scale(0.088 -0.088)">
       <use xlink:href="#ArialMT-30"/>
       <use xlink:href="#ArialMT-2e" x="55.615234"/>
       <use xlink:href="#ArialMT-32" x="83.398438"/>
      </g>
     </g>
    </g>
    <g id="ytick_4">
     <g id="line2d_10">
      <g>
       <use xlink:href="#ma9c1a0b414" x="40.5115" y="90.780181" style="fill: #262626; stroke: #262626"/>
      </g>
     </g>
     <g id="text_11">
      <!-- 0.3 -->
      <g style="fill: #262626" transform="translate(19.9795 93.929619) scale(0.088 -0.088)">
       <defs>
        <path id="ArialMT-33" d="M 269 1209 
L 831 1284 
Q 928 806 1161 595 
Q 1394 384 1728 384 
Q 2125 384 2398 659 
Q 2672 934 2672 1341 
Q 2672 1728 2419 1979 
Q 2166 2231 1775 2231 
Q 1616 2231 1378 2169 
L 1441 2663 
Q 1497 2656 1531 2656 
Q 1891 2656 2178 2843 
Q 2466 3031 2466 3422 
Q 2466 3731 2256 3934 
Q 2047 4138 1716 4138 
Q 1388 4138 1169 3931 
Q 950 3725 888 3313 
L 325 3413 
Q 428 3978 793 4289 
Q 1159 4600 1703 4600 
Q 2078 4600 2393 4439 
Q 2709 4278 2876 4000 
Q 3044 3722 3044 3409 
Q 3044 3113 2884 2869 
Q 2725 2625 2413 2481 
Q 2819 2388 3044 2092 
Q 3269 1797 3269 1353 
Q 3269 753 2831 336 
Q 2394 -81 1725 -81 
Q 1122 -81 723 278 
Q 325 638 269 1209 
z
" transform="scale(0.015625)"/>
       </defs>
       <use xlink:href="#ArialMT-30"/>
       <use xlink:href="#ArialMT-2e" x="55.615234"/>
       <use xlink:href="#ArialMT-33" x="83.398438"/>
      </g>
     </g>
    </g>
    <g id="ytick_5">
     <g id="line2d_11">
      <g>
       <use xlink:href="#ma9c1a0b414" x="40.5115" y="34.035685" style="fill: #262626; stroke: #262626"/>
      </g>
     </g>
     <g id="text_12">
      <!-- 0.4 -->
      <g style="fill: #262626" transform="translate(19.9795 37.185122) scale(0.088 -0.088)">
       <use xlink:href="#ArialMT-30"/>
       <use xlink:href="#ArialMT-2e" x="55.615234"/>
       <use xlink:href="#ArialMT-34" x="83.398438"/>
      </g>
     </g>
    </g>
    <g id="text_13">
     <!-- beta -->
     <g style="fill: #262626" transform="translate(14.0715 149.59725) rotate(-90) scale(0.096 -0.096)">
      <defs>
       <path id="ArialMT-74" d="M 1650 503 
L 1731 6 
Q 1494 -44 1306 -44 
Q 1000 -44 831 53 
Q 663 150 594 308 
Q 525 466 525 972 
L 525 2881 
L 113 2881 
L 113 3319 
L 525 3319 
L 525 4141 
L 1084 4478 
L 1084 3319 
L 1650 3319 
L 1650 2881 
L 1084 2881 
L 1084 941 
Q 1084 700 1114 631 
Q 1144 563 1211 522 
Q 1278 481 1403 481 
Q 1497 481 1650 503 
z
" transform="scale(0.015625)"/>
      </defs>
      <use xlink:href="#ArialMT-62"/>
      <use xlink:href="#ArialMT-65" x="55.615234"/>
      <use xlink:href="#ArialMT-74" x="111.230469"/>
      <use xlink:href="#ArialMT-61" x="139.013672"/>
     </g>
    </g>
   </g>
   <g id="line2d_12">
    <path d="M 56.744227 212.81575 
L 57.069207 91.171702 
L 57.394186 101.888992 
L 57.719166 102.078228 
L 58.044145 102.654274 
L 58.369125 93.905377 
L 58.694104 211.916925 
L 59.019084 211.860704 
L 59.344063 213.986603 
L 59.669043 219.450787 
L 59.994023 83.993026 
L 60.319002 68.863728 
L 60.643982 236.155075 
L 60.968961 44.348084 
L 61.293941 45.747365 
L 61.61892 45.900056 
L 61.9439 45.048122 
L 62.268879 65.398086 
L 62.593859 50.668755 
L 62.918838 73.205148 
L 63.568797 97.421769 
L 63.893777 98.525748 
L 64.218756 103.442165 
L 64.543736 105.193538 
L 64.868715 141.72788 
L 65.193695 142.633338 
L 65.518674 141.407819 
L 65.843654 138.273062 
L 66.168633 200.148284 
L 66.493613 177.81816 
L 66.818593 146.625163 
L 67.143572 161.376318 
L 67.468552 117.356632 
L 67.793531 115.640604 
L 68.118511 119.079458 
L 68.44349 117.682443 
L 68.76847 113.70928 
L 69.093449 111.184999 
L 69.418429 110.232342 
L 69.743408 113.022703 
L 70.068388 123.151813 
L 70.393367 157.369104 
L 70.718347 153.78002 
L 71.043326 120.866733 
L 71.368306 109.038734 
L 71.693285 106.716677 
L 72.018265 97.390703 
L 72.343244 93.055523 
L 72.668224 73.270172 
L 72.993204 117.206427 
L 73.318183 115.789186 
L 73.643163 112.257844 
L 73.968142 117.847969 
L 74.293122 154.713153 
L 74.618101 206.117295 
L 74.943081 151.02737 
L 75.26806 149.437491 
L 75.59304 150.234346 
L 75.918019 173.744426 
L 76.242999 176.440702 
L 76.567978 171.586053 
L 76.892958 229.860623 
L 77.542917 206.66997 
L 77.867896 221.901441 
L 78.192876 223.500257 
L 78.517855 225.905137 
L 79.167814 117.782827 
L 79.492794 170.537509 
L 79.817774 163.282842 
L 80.142753 171.737721 
L 80.467733 172.530398 
L 80.792712 170.043474 
L 81.117692 128.717257 
L 81.442671 163.105198 
L 81.767651 168.77484 
L 82.09263 116.625748 
L 82.41761 122.34214 
L 82.742589 120.761943 
L 83.067569 141.217746 
L 83.392548 204.523265 
L 83.717528 200.012271 
L 84.042507 205.836887 
L 84.367487 198.840957 
L 84.692466 186.6946 
L 85.017446 186.6946 
L 85.342425 188.428588 
L 85.667405 82.345556 
L 85.992385 86.891145 
L 86.317364 81.933447 
L 86.642344 170.214125 
L 86.967323 163.149616 
L 87.292303 178.769972 
L 87.617282 221.245245 
L 87.942262 213.931219 
L 88.267241 212.610008 
L 88.592221 214.957529 
L 88.9172 220.688173 
L 89.24218 188.841102 
L 89.567159 173.731422 
L 89.892139 172.301717 
L 90.542098 252.652738 
L 90.867077 246.561354 
L 91.192057 231.702631 
L 91.842016 224.709081 
L 92.166995 224.709081 
L 92.491975 233.024113 
L 92.816955 131.423815 
L 93.141934 137.598483 
L 93.466914 124.549116 
L 93.791893 214.313158 
L 94.116873 212.065633 
L 94.441852 167.399479 
L 94.766832 153.084962 
L 95.091811 161.873693 
L 95.416791 201.702975 
L 95.74177 202.860596 
L 96.06675 198.591496 
L 96.391729 154.274655 
L 96.716709 158.980308 
L 97.366668 106.495614 
L 97.691647 103.86804 
L 98.016627 177.300314 
L 98.341606 123.814833 
L 98.666586 124.825724 
L 98.991566 126.609913 
L 99.316545 129.793476 
L 99.641525 99.897718 
L 99.966504 97.548417 
L 100.291484 103.933909 
L 100.616463 222.09972 
L 100.941443 194.987043 
L 101.266422 190.714785 
L 101.591402 200.659031 
L 101.916381 182.799035 
L 102.241361 171.275487 
L 102.56634 145.479819 
L 102.89132 129.311702 
L 103.216299 135.618759 
L 103.541279 120.304149 
L 103.866258 151.403382 
L 104.516217 157.054523 
L 104.841197 152.31979 
L 105.166176 152.514083 
L 105.816136 146.608108 
L 106.141115 123.316325 
L 106.466095 193.549301 
L 106.791074 182.335355 
L 107.116054 211.362838 
L 107.441033 209.589367 
L 107.766013 212.736423 
L 108.090992 227.98144 
L 108.415972 220.866265 
L 108.740951 199.918135 
L 109.39091 129.658643 
L 109.71589 180.502395 
L 110.365849 181.967546 
L 110.690828 154.385863 
L 111.015808 160.298467 
L 111.340787 158.348186 
L 111.665767 165.454846 
L 111.990747 152.978396 
L 112.315726 161.542986 
L 112.640706 196.442787 
L 112.965685 201.20768 
L 113.290665 187.774701 
L 113.615644 190.663624 
L 113.940624 178.260768 
L 114.265603 186.116238 
L 114.590583 187.010374 
L 114.915562 192.211779 
L 115.240542 160.727419 
L 115.565521 84.540424 
L 115.890501 83.163346 
L 116.21548 83.163346 
L 116.54046 55.179169 
L 116.865439 69.338729 
L 117.190419 72.786343 
L 117.515398 62.979179 
L 118.165357 109.868142 
L 118.490337 149.211279 
L 118.815317 138.64794 
L 119.465276 163.638729 
L 119.790255 163.507296 
L 120.115235 200.717345 
L 120.440214 200.884681 
L 120.765194 202.430654 
L 121.415153 147.792643 
L 121.740132 178.164636 
L 122.065112 177.950642 
L 122.390091 149.999281 
L 122.715071 149.688741 
L 123.04005 149.539322 
L 123.36503 147.135161 
L 123.690009 147.59906 
L 124.014989 149.216369 
L 124.339968 189.778252 
L 124.664948 200.534002 
L 125.314907 121.084828 
L 125.639887 130.312683 
L 125.964866 168.764786 
L 126.289846 168.079723 
L 126.614825 167.857975 
L 126.939805 171.216357 
L 127.264784 112.329581 
L 127.589764 131.229387 
L 127.914743 126.827915 
L 128.239723 86.622765 
L 128.564702 149.767953 
L 128.889682 161.018714 
L 129.214661 161.002107 
L 129.539641 180.723348 
L 129.86462 178.092434 
L 130.1896 167.51122 
L 130.514579 220.269799 
L 130.839559 228.500673 
L 131.164538 226.602976 
L 131.489518 221.484901 
L 131.814498 223.695598 
L 132.789436 215.545615 
L 133.114416 211.506021 
L 133.439395 152.300334 
L 133.764375 152.286932 
L 134.089354 152.095142 
L 134.414334 148.753358 
L 134.739313 115.717905 
L 135.064293 196.517615 
L 135.389272 196.96341 
L 135.714252 117.127401 
L 136.039231 117.494729 
L 136.364211 142.999508 
L 136.68919 60.34342 
L 137.01417 55.930279 
L 137.339149 44.7181 
L 137.664129 48.915759 
L 137.989109 119.749158 
L 138.314088 114.984129 
L 138.639068 118.029426 
L 138.964047 115.812844 
L 139.289027 115.992356 
L 139.614006 191.737746 
L 140.263965 191.199455 
L 140.588945 190.211208 
L 141.238904 158.363592 
L 141.563883 127.257983 
L 141.888863 133.337856 
L 142.213842 146.026228 
L 142.538822 119.55495 
L 142.863801 120.407197 
L 143.188781 132.102122 
L 143.51376 158.264112 
L 143.83874 162.873177 
L 144.163719 147.570962 
L 144.488699 152.733886 
L 144.813679 151.183106 
L 145.138658 153.332127 
L 145.463638 188.805547 
L 145.788617 184.027851 
L 146.113597 133.624568 
L 146.438576 142.595897 
L 146.763556 196.959225 
L 147.088535 230.489761 
L 147.413515 229.001806 
L 147.738494 230.667963 
L 148.063474 229.859175 
L 148.713433 252.908417 
L 149.038412 252.443292 
L 149.363392 252.876501 
L 149.688371 248.438277 
L 150.013351 248.438277 
L 150.33833 254.354021 
L 150.66331 255.328514 
L 150.98829 207.410024 
L 151.313269 200.952389 
L 151.638249 204.656833 
L 151.963228 204.61215 
L 152.288208 97.391295 
L 152.613187 146.583722 
L 152.938167 136.14528 
L 153.263146 136.800216 
L 153.588126 135.547715 
L 153.913105 132.014175 
L 154.238085 141.484706 
L 154.888044 207.033661 
L 155.213023 150.027649 
L 155.538003 153.218324 
L 155.862982 148.296105 
L 156.187962 180.858037 
L 156.512941 225.235564 
L 156.837921 171.687165 
L 157.1629 170.985089 
L 157.48788 171.853706 
L 157.81286 172.331489 
L 158.137839 166.256546 
L 158.462819 183.363766 
L 158.787798 194.245074 
L 159.112778 159.341607 
L 159.437757 159.161571 
L 159.762737 154.29264 
L 160.087716 151.175276 
L 160.412696 150.049084 
L 160.737675 148.182944 
L 161.062655 245.759458 
L 161.387634 247.796 
L 161.712614 227.70869 
L 162.037593 240.378105 
L 162.362573 214.0371 
L 162.687552 213.906174 
L 163.012532 209.216205 
L 163.337511 214.896708 
L 163.662491 190.602216 
L 163.987471 196.273151 
L 164.31245 144.403017 
L 164.962409 148.367631 
L 165.287389 216.995694 
L 165.612368 65.961195 
L 165.937348 72.051654 
L 166.262327 86.059876 
L 166.587307 126.033123 
L 166.912286 127.476501 
L 167.237266 125.013464 
L 167.562245 117.479187 
L 167.887225 168.027467 
L 168.212204 165.71105 
L 168.537184 167.422394 
L 168.862163 160.799021 
L 169.187143 168.931099 
L 169.512122 143.402103 
L 169.837102 163.061001 
L 170.162081 140.514165 
L 170.487061 133.428829 
L 170.812041 164.806404 
L 171.13702 172.735725 
L 171.462 154.560395 
L 171.786979 164.123006 
L 172.111959 165.183633 
L 172.436938 160.767575 
L 173.086897 191.67482 
L 173.411877 183.037651 
L 173.736856 178.584558 
L 174.061836 182.141494 
L 174.386815 163.408162 
L 174.711795 162.656418 
L 175.036774 183.385886 
L 175.361754 218.745857 
L 175.686733 219.865605 
L 176.011713 225.652684 
L 176.336692 223.130651 
L 176.661672 224.094524 
L 176.986652 113.042303 
L 177.311631 106.445269 
L 177.96159 97.077153 
L 178.28657 100.136064 
L 178.611549 109.892139 
L 178.936529 113.401649 
L 179.261508 110.477672 
L 179.586488 154.31941 
L 179.911467 228.878614 
L 180.236447 225.472828 
L 180.561426 225.472828 
L 180.886406 223.285718 
L 181.211385 218.365356 
L 181.536365 216.416473 
L 181.861344 220.909143 
L 182.186324 227.853076 
L 182.511303 189.060889 
L 182.836283 197.248135 
L 183.161262 182.302438 
L 183.486242 189.140549 
L 183.811222 181.308407 
L 184.136201 147.294761 
L 184.461181 163.615223 
L 184.78616 160.993626 
L 185.11114 161.223568 
L 185.436119 158.27354 
L 185.761099 135.768009 
L 186.086078 173.777936 
L 186.411058 167.691899 
L 186.736037 169.81344 
L 187.061017 157.674698 
L 187.385996 152.604186 
L 187.710976 157.326742 
L 188.360935 198.068513 
L 188.685914 198.63916 
L 189.010894 195.643163 
L 189.335873 203.116568 
L 189.660853 201.096426 
L 189.985833 155.816413 
L 190.310812 149.0421 
L 190.635792 90.519083 
L 190.960771 148.806409 
L 191.285751 165.604544 
L 191.61073 129.002709 
L 192.260689 125.205 
L 192.585669 116.218848 
L 192.910648 116.354002 
L 193.235628 115.628884 
L 193.560607 125.508428 
L 193.885587 87.952981 
L 194.210566 74.349021 
L 194.535546 78.38648 
L 194.860525 78.580924 
L 195.185505 124.06396 
L 195.510484 121.615839 
L 195.835464 133.213254 
L 196.160443 204.359653 
L 196.485423 184.086576 
L 196.810403 195.629093 
L 197.135382 216.27636 
L 197.460362 131.728098 
L 197.785341 135.891224 
L 198.110321 155.003036 
L 198.76028 153.495616 
L 199.085259 181.05512 
L 199.410239 180.253902 
L 199.735218 191.115237 
L 200.060198 184.95395 
L 200.385177 190.645162 
L 201.035136 196.939954 
L 201.360116 186.075888 
L 201.685095 180.404293 
L 202.010075 188.724458 
L 202.335054 180.567461 
L 202.660034 182.136708 
L 202.985014 206.264647 
L 203.309993 96.895037 
L 203.634973 91.274573 
L 203.959952 165.743435 
L 204.284932 161.678487 
L 204.609911 163.813354 
L 204.934891 158.351695 
L 205.25987 164.367863 
L 205.58485 151.195831 
L 205.909829 143.822202 
L 206.234809 186.481274 
L 206.559788 187.134097 
L 206.884768 203.734988 
L 207.209747 197.614317 
L 207.534727 187.132177 
L 207.859706 185.984094 
L 208.184686 151.12855 
L 208.509665 189.368207 
L 208.834645 182.42534 
L 209.159624 152.276946 
L 209.484604 189.475365 
L 210.134563 206.351524 
L 210.459543 200.375206 
L 210.784522 200.689188 
L 211.109502 198.880668 
L 211.434481 205.50613 
L 212.08444 203.364401 
L 212.40942 212.349263 
L 212.734399 212.043467 
L 213.059379 166.843947 
L 213.384358 181.428088 
L 213.709338 98.190129 
L 214.684276 228.473162 
L 215.009256 224.155811 
L 215.334235 183.9557 
L 215.659215 170.116133 
L 215.984195 167.676738 
L 216.309174 179.776246 
L 216.634154 168.641005 
L 216.959133 228.091987 
L 217.284113 167.101724 
L 217.609092 196.391267 
L 217.934072 208.970828 
L 218.259051 216.370737 
L 218.584031 216.064294 
L 218.90901 222.00284 
L 219.23399 220.277401 
L 219.558969 229.991909 
L 219.883949 228.375693 
L 220.208928 245.509534 
L 220.533908 243.24934 
L 220.858887 261.071854 
L 221.183867 261.216 
L 221.508846 257.966804 
L 221.833826 128.378205 
L 222.158805 184.32668 
L 222.483785 164.70853 
L 222.808765 158.259799 
L 223.133744 136.519051 
L 223.458724 193.717935 
L 223.783703 181.461377 
L 224.108683 182.592076 
L 224.758642 233.326766 
L 225.408601 218.022824 
L 225.73358 134.427375 
L 226.05856 161.050981 
L 226.383539 131.570147 
L 226.708519 129.648564 
L 227.033498 121.714609 
L 227.358478 131.20561 
L 227.683457 146.491835 
L 228.008437 113.577525 
L 228.333416 112.949782 
L 228.658396 124.619805 
L 228.983376 121.774897 
L 229.308355 162.161572 
L 229.633335 166.613177 
L 229.958314 139.685043 
L 230.283294 140.92235 
L 230.608273 140.662366 
L 230.933253 154.308841 
L 231.583212 98.348096 
L 231.908191 88.019391 
L 232.233171 61.647305 
L 232.55815 61.947614 
L 232.88313 60.179466 
L 233.208109 176.704821 
L 233.533089 163.683865 
L 233.858068 166.969978 
L 234.183048 191.233814 
L 234.508027 168.796047 
L 234.833007 168.371153 
L 235.157986 171.601873 
L 235.482966 150.365163 
L 235.807946 140.728404 
L 236.132925 119.500267 
L 236.457905 117.343898 
L 236.782884 120.298128 
L 237.107864 136.117986 
L 237.432843 171.660504 
L 237.757823 228.710674 
L 238.082802 223.55543 
L 238.407782 52.683079 
L 238.732761 49.737659 
L 239.057741 51.380276 
L 239.38272 54.475901 
L 239.7077 32.937368 
L 240.032679 29.858231 
L 240.357659 49.820101 
L 240.682638 47.534285 
L 241.007618 49.283932 
L 241.332597 175.396927 
L 241.657577 174.815115 
L 241.982557 176.726543 
L 242.632516 174.240059 
L 242.957495 147.615033 
L 243.282475 175.379492 
L 243.607454 175.884629 
L 243.932434 176.053411 
L 244.257413 173.111644 
L 244.582393 190.935915 
L 244.907372 191.233654 
L 245.232352 197.127931 
L 245.557331 126.14773 
L 245.882311 128.084424 
L 246.20729 118.125735 
L 246.53227 150.471382 
L 246.857249 135.268918 
L 247.182229 160.379446 
L 247.507208 166.766477 
L 247.832188 166.526888 
L 248.157167 167.703821 
L 248.482147 165.359628 
L 248.807127 168.995159 
L 249.132106 167.963459 
L 249.457086 166.535766 
L 249.782065 119.713492 
L 250.107045 121.282469 
L 250.432024 120.746782 
L 250.757004 120.541176 
L 251.081983 117.006841 
L 251.406963 117.463781 
L 251.731942 165.393255 
L 252.056922 165.421928 
L 252.381901 166.064452 
L 252.706881 164.108251 
L 253.03186 174.190721 
L 253.35684 169.904532 
L 253.681819 152.418983 
L 254.006799 162.264189 
L 254.331778 159.837409 
L 254.656758 84.043387 
L 254.981738 211.936001 
L 255.306717 208.031159 
L 255.631697 210.454087 
L 256.281656 218.727428 
L 256.606635 200.795174 
L 256.931615 200.172103 
L 257.256594 122.199596 
L 257.581574 119.643497 
L 257.906553 131.600173 
L 258.556512 122.995148 
L 259.206471 141.676419 
L 259.531451 167.719963 
L 259.85643 163.965369 
L 260.18141 165.563001 
L 260.506389 198.254016 
L 260.831369 213.448245 
L 261.156348 177.551412 
L 261.481328 165.279951 
L 261.806308 166.034282 
L 262.131287 168.295163 
L 262.456267 172.478802 
L 262.781246 153.431159 
L 263.106226 188.665091 
L 263.431205 196.972517 
L 263.756185 194.625833 
L 264.081164 193.590125 
L 264.406144 193.061308 
L 264.731123 144.099571 
L 265.056103 147.272649 
L 265.381082 172.753144 
L 265.706062 134.357312 
L 266.031041 155.756057 
L 266.356021 188.902904 
L 266.681 184.350288 
L 267.330959 201.067246 
L 267.655939 176.437328 
L 267.980919 178.261478 
L 268.305898 175.986722 
L 268.630878 168.878979 
L 268.955857 156.102846 
L 269.280837 154.519791 
L 269.605816 155.724433 
L 269.930796 164.74538 
L 270.255775 164.490089 
L 270.580755 104.542762 
L 270.905734 127.195022 
L 271.555693 211.867071 
L 271.880673 213.428277 
L 272.205652 221.492275 
L 272.530632 240.135244 
L 272.855611 239.652679 
L 273.180591 240.735265 
L 273.50557 242.335339 
L 273.83055 239.39367 
L 274.155529 244.252282 
L 274.480509 251.57999 
L 274.805489 244.506394 
L 275.130468 233.624233 
L 275.455448 233.14059 
L 275.780427 140.603532 
L 276.105407 144.068099 
L 276.430386 161.699744 
L 276.755366 229.197105 
L 277.080345 237.721308 
L 277.405325 226.22079 
L 277.730304 228.059101 
L 278.055284 148.27248 
L 278.380263 150.895091 
L 278.705243 88.547798 
L 279.030222 88.01496 
L 279.355202 76.730486 
L 279.680181 76.851926 
L 280.005161 80.307573 
L 280.33014 77.539737 
L 280.65512 76.184763 
L 280.9801 99.707873 
L 281.305079 140.881628 
L 281.630059 103.840424 
L 281.955038 102.996319 
L 282.280018 109.914175 
L 282.604997 94.212484 
L 282.929977 99.904702 
L 283.254956 99.493033 
L 283.579936 117.627261 
L 283.904915 93.860038 
L 284.229895 91.309376 
L 284.554874 90.466997 
L 284.879854 94.106553 
L 285.204833 124.391225 
L 285.529813 115.836774 
L 285.854792 112.843106 
L 286.179772 119.883661 
L 286.504751 139.892493 
L 286.829731 138.677687 
L 287.15471 136.048261 
L 287.47969 127.442737 
L 287.80467 147.588034 
L 288.129649 160.317661 
L 288.454629 120.60543 
L 289.104588 114.50972 
L 289.429567 118.154264 
L 289.754547 119.834052 
L 290.079526 195.489977 
L 290.404506 198.145713 
L 290.729485 191.123173 
L 291.054465 147.523823 
L 291.379444 173.047593 
L 291.704424 144.784068 
L 292.029403 172.28374 
L 292.354383 168.616171 
L 292.679362 170.702706 
L 293.004342 142.782875 
L 293.329321 173.354683 
L 293.654301 168.439517 
L 293.979281 169.426918 
L 294.30426 200.492156 
L 294.62924 135.677627 
L 294.954219 146.977287 
L 295.279199 139.536335 
L 295.604178 151.536583 
L 295.929158 152.876033 
L 296.254137 150.617866 
L 296.579117 174.765151 
L 296.904096 97.794762 
L 297.554055 44.57904 
L 297.879035 44.75495 
L 298.204014 133.571247 
L 298.528994 130.771923 
L 298.853973 176.743463 
L 299.178953 170.097167 
L 299.503932 171.458525 
L 299.828912 164.225649 
L 300.153891 183.073148 
L 300.478871 172.223215 
L 300.803851 176.933976 
L 301.12883 121.856189 
L 301.45381 126.433842 
L 301.778789 127.010319 
L 302.103769 126.436683 
L 302.428748 181.532244 
L 302.753728 181.76183 
L 303.078707 177.166352 
L 303.403687 185.663416 
L 304.053646 182.109405 
L 304.378625 179.782757 
L 304.703605 110.784035 
L 305.028584 76.703378 
L 305.353564 88.160143 
L 305.678543 84.271671 
L 306.003523 163.545261 
L 306.328502 179.534019 
L 306.653482 124.04863 
L 306.978462 120.325389 
L 307.303441 121.71296 
L 307.628421 176.014887 
L 307.9534 169.12261 
L 308.27838 145.030743 
L 308.928339 194.887944 
L 309.253318 188.21533 
L 309.578298 158.988088 
L 309.903277 153.80827 
L 310.553236 160.741439 
L 310.878216 168.875123 
L 311.203195 168.533374 
L 311.528175 115.778616 
L 312.178134 126.674454 
L 312.503113 159.349285 
L 312.828093 156.167692 
L 313.153072 156.167692 
L 313.478052 202.992765 
L 313.803032 183.651941 
L 314.128011 187.982412 
L 314.452991 183.25085 
L 314.77797 183.195509 
L 315.10295 138.436736 
L 315.427929 137.461765 
L 315.752909 140.112025 
L 316.077888 121.165917 
L 316.402868 123.269837 
L 316.727847 120.924231 
L 317.052827 113.454242 
L 317.377806 112.367513 
L 317.702786 131.87941 
L 318.027765 135.125291 
L 318.352745 132.86901 
L 319.002704 141.119094 
L 319.327683 99.869764 
L 319.652663 99.022615 
L 319.977643 20.56444 
L 320.302622 19.296 
L 320.627602 22.178764 
L 320.952581 191.26967 
L 321.277561 189.144151 
L 321.60254 162.929948 
L 321.92752 160.142977 
L 322.252499 168.418496 
L 322.577479 193.871019 
L 322.902458 195.918583 
L 323.227438 202.099931 
L 323.552417 197.96076 
L 323.877397 196.475578 
L 324.202376 157.903244 
L 324.527356 172.703416 
L 324.852335 161.995918 
L 325.177315 133.447685 
L 325.502294 81.933464 
L 325.827274 91.821937 
L 326.152253 176.114486 
L 326.477233 121.291652 
L 326.802213 93.909047 
L 327.127192 112.299632 
L 327.452172 163.656232 
L 327.777151 186.139111 
L 328.102131 184.088267 
L 328.42711 186.24117 
L 328.75209 181.187475 
L 329.077069 183.734696 
L 329.402049 126.362113 
L 329.727028 160.718372 
L 330.052008 173.223131 
L 330.376987 131.31352 
L 330.701967 133.892492 
L 331.026946 142.150473 
L 331.351926 143.268074 
L 331.676905 137.277678 
L 332.001885 116.853879 
L 332.326864 126.317273 
L 332.651844 123.288456 
L 332.976824 128.699804 
L 333.301803 123.83177 
L 333.626783 140.037422 
L 333.951762 141.400429 
L 334.276742 137.896348 
L 334.601721 187.39217 
L 334.926701 184.979291 
L 335.25168 207.781144 
L 335.57666 202.527128 
L 335.901639 210.421254 
L 336.226619 202.465407 
L 336.551598 200.102205 
L 336.876578 160.073422 
L 337.201557 160.225039 
L 337.526537 143.447747 
L 337.851516 177.482777 
L 338.176496 185.828951 
L 338.826455 226.080269 
L 339.151434 228.949631 
L 339.476414 226.743849 
L 339.801394 235.664417 
L 340.126373 236.19447 
L 340.451353 224.719866 
L 340.776332 162.553564 
L 341.101312 162.379498 
L 341.426291 159.362763 
L 341.751271 158.452392 
L 342.40123 172.994044 
L 342.726209 175.093034 
L 343.051189 173.068605 
L 343.376168 201.551573 
L 343.701148 198.676584 
L 344.026127 201.18233 
L 344.351107 189.576739 
L 344.676086 211.179162 
L 345.001066 201.092452 
L 345.326045 183.694202 
L 345.651025 182.211227 
L 345.976005 210.385508 
L 346.300984 199.119678 
L 346.625964 171.642418 
L 346.950943 171.039357 
L 347.275923 166.412627 
L 347.600902 118.253347 
L 347.925882 120.350223 
L 348.250861 121.710897 
L 348.575841 94.336392 
L 348.90082 116.594682 
L 349.2258 115.668913 
L 349.550779 185.789277 
L 350.200738 216.39251 
L 350.850697 174.556873 
L 351.500656 188.155075 
L 351.825636 190.257629 
L 352.150615 175.993841 
L 352.475595 152.98248 
L 352.800575 171.015571 
L 353.125554 170.288483 
L 353.450534 142.849581 
L 353.775513 144.796641 
L 354.100493 116.105255 
L 354.425472 112.34793 
L 354.750452 97.826606 
L 355.075431 93.774806 
L 355.400411 96.427679 
L 355.72539 102.984515 
L 356.05037 111.941504 
L 356.375349 113.348006 
L 356.700329 92.859675 
L 357.025308 84.65339 
L 357.350288 192.537878 
L 357.675267 196.512533 
L 358.000247 192.099861 
L 358.325226 201.804691 
L 358.650206 190.642802 
L 358.975186 188.362618 
L 359.300165 184.596566 
L 359.625145 175.75678 
L 359.950124 177.883674 
L 360.275104 189.8006 
L 360.600083 162.92539 
L 360.925063 163.387328 
L 361.250042 161.640048 
L 361.575022 143.197199 
L 361.900001 187.962846 
L 362.224981 194.957474 
L 362.54996 190.291033 
L 362.87494 180.768493 
L 363.199919 188.178404 
L 363.524899 179.896375 
L 363.849878 185.592398 
L 364.174858 185.140497 
L 364.499837 191.381893 
L 364.824817 193.562999 
L 365.474776 204.066443 
L 365.799756 203.071635 
L 366.124735 204.801585 
L 366.449715 175.919483 
L 366.774694 171.062144 
L 367.099674 162.469203 
L 367.424653 171.346125 
L 367.749633 171.095349 
L 368.074612 171.095349 
L 368.399592 156.83795 
L 368.724571 202.00886 
L 369.049551 209.304317 
L 369.37453 197.828392 
L 369.69951 226.145643 
L 370.024489 175.733342 
L 370.349469 174.149136 
L 370.674448 176.653521 
L 370.999428 166.764507 
L 371.324407 122.776529 
L 371.649387 122.354333 
L 371.974367 185.003711 
L 372.299346 192.469353 
L 372.624326 144.253522 
L 372.949305 223.875635 
L 373.274285 217.420055 
L 373.599264 219.609811 
L 373.924244 194.307683 
L 374.249223 192.364183 
L 374.574203 201.869664 
L 374.899182 145.656355 
L 375.224162 199.729939 
L 375.549141 142.73412 
L 375.874121 178.517547 
L 376.1991 180.097322 
L 376.52408 172.179263 
L 376.849059 175.362369 
L 377.174039 181.286981 
L 377.499018 180.622185 
L 377.823998 161.370839 
L 378.148977 219.885163 
L 378.473957 176.089449 
L 378.798937 180.851239 
L 379.123916 132.566824 
L 379.448896 163.684186 
L 379.773875 146.600971 
L 380.098855 145.171055 
L 380.423834 115.131662 
L 380.748814 118.655816 
L 381.073793 130.141947 
L 381.398773 223.785917 
L 381.398773 223.785917 
" clip-path="url(#p19a56b8fd3)" style="fill: none; stroke: #1f77b4; stroke-width: 1.2; stroke-linecap: round"/>
   </g>
   <g id="patch_3">
    <path d="M 40.5115 261.013672 
L 40.5115 34.035685 
" style="fill: none; stroke: #262626; stroke-linejoin: miter; stroke-linecap: square"/>
   </g>
   <g id="patch_4">
    <path d="M 56.744227 273.312 
L 381.723752 273.312 
" style="fill: none; stroke: #262626; stroke-linejoin: miter; stroke-linecap: square"/>
   </g>
  </g>
 </g>
 <defs>
  <clipPath id="p19a56b8fd3">
   <rect x="40.5115" y="7.2" width="357.12" height="266.112"/>
  </clipPath>
 </defs>
</svg>