<?xml version="1.0" encoding="utf-8" standalone="no"?>
<!DOCTYPE svg PUBLIC "-//W3C//DTD SVG 1.1//EN"
  "http://www.w3.org/Graphics/SVG/1.1/DTD/svg11.dtd">
<svg xmlns:xlink="http://www.w3.org/1999/xlink" width="406.612pt" height="309.639375pt" viewBox="0 0 406.612 309.639375" xmlns="http://www.w3.org/2000/svg" version="1.1">
 <metadata>
  <rdf:RDF xmlns:dc="http://purl.org/dc/elements/1.1/" xmlns:cc="http://creativecommons.org/ns#" xmlns:rdf="http://www.w3.org/1999/02/22-rdf-syntax-ns#">
   <cc:Work>
    <dc:type rdf:resource="http://purl.org/dc/dcmitype/StillImage"/>
    <dc:date>2023-08-15T14:26:29.435319</dc:date>
    <dc:format>image/svg+xml</dc:format>
    <dc:creator>
     <cc:Agent>
      <dc:title>Matplotlib v3.7.1, https://matplotlib.org/</dc:title>
     </cc:Agent>
    </dc:creator>
   </cc:Work>
  </rdf:RDF>
 </metadata>
 <defs>
  <style type="text/css">*{stroke-linejoin: round; stroke-linecap: butt}</style>
 </defs>
 <g id="figure_1">
  <g id="patch_1">
   <path d="M 0 309.639375 
L 406.612 309.639375 
L 406.612 0 
L 0 0 
z
" style="fill: #ffffff"/>
  </g>
  <g id="axes_1">
   <g id="patch_2">
    <path d="M 42.292 273.312 
L 399.412 273.312 
L 399.412 7.2 
L 42.292 7.2 
z
" style="fill: #ffffff"/>
   </g>
   <g id="matplotlib.axis_1">
    <g id="xtick_1">
     <g id="line2d_1">
      <defs>
       <path id="ma3d89afb6b" d="M 0 0 
L 0 4.8 
" style="stroke: #262626"/>
      </defs>
      <g>
       <use xlink:href="#ma3d89afb6b" x="55.245388" y="273.312" style="fill: #262626; stroke: #262626"/>
      </g>
     </g>
     <g id="text_1">
      <!-- 0 -->
      <g style="fill: #262626" transform="translate(52.798576 287.910875) scale(0.088 -0.088)">
       <defs>
        <path id="ArialMT-30" d="M 266 2259 
Q 266 3072 433 3567 
Q 600 4063 929 4331 
Q 1259 4600 1759 4600 
Q 2128 4600 2406 4451 
Q 2684 4303 2865 4023 
Q 3047 3744 3150 3342 
Q 3253 2941 3253 2259 
Q 3253 1453 3087 958 
Q 2922 463 2592 192 
Q 2263 -78 1759 -78 
Q 1097 -78 719 397 
Q 266 969 266 2259 
z
M 844 2259 
Q 844 1131 1108 757 
Q 1372 384 1759 384 
Q 2147 384 2411 759 
Q 2675 1134 2675 2259 
Q 2675 3391 2411 3762 
Q 2147 4134 1753 4134 
Q 1366 4134 1134 3806 
Q 844 3388 844 2259 
z
" transform="scale(0.015625)"/>
       </defs>
       <use xlink:href="#ArialMT-30"/>
      </g>
     </g>
    </g>
    <g id="xtick_2">
     <g id="line2d_2">
      <g>
       <use xlink:href="#ma3d89afb6b" x="120.832165" y="273.312" style="fill: #262626; stroke: #262626"/>
      </g>
     </g>
     <g id="text_2">
      <!-- 20 -->
      <g style="fill: #262626" transform="translate(115.93854 287.910875) scale(0.088 -0.088)">
       <defs>
        <path id="ArialMT-32" d="M 3222 541 
L 3222 0 
L 194 0 
Q 188 203 259 391 
Q 375 700 629 1000 
Q 884 1300 1366 1694 
Q 2113 2306 2375 2664 
Q 2638 3022 2638 3341 
Q 2638 3675 2398 3904 
Q 2159 4134 1775 4134 
Q 1369 4134 1125 3890 
Q 881 3647 878 3216 
L 300 3275 
Q 359 3922 746 4261 
Q 1134 4600 1788 4600 
Q 2447 4600 2831 4234 
Q 3216 3869 3216 3328 
Q 3216 3053 3103 2787 
Q 2991 2522 2730 2228 
Q 2469 1934 1863 1422 
Q 1356 997 1212 845 
Q 1069 694 975 541 
L 3222 541 
z
" transform="scale(0.015625)"/>
       </defs>
       <use xlink:href="#ArialMT-32"/>
       <use xlink:href="#ArialMT-30" x="55.615234"/>
      </g>
     </g>
    </g>
    <g id="xtick_3">
     <g id="line2d_3">
      <g>
       <use xlink:href="#ma3d89afb6b" x="186.418942" y="273.312" style="fill: #262626; stroke: #262626"/>
      </g>
     </g>
     <g id="text_3">
      <!-- 40 -->
      <g style="fill: #262626" transform="translate(181.525317 287.910875) scale(0.088 -0.088)">
       <defs>
        <path id="ArialMT-34" d="M 2069 0 
L 2069 1097 
L 81 1097 
L 81 1613 
L 2172 4581 
L 2631 4581 
L 2631 1613 
L 3250 1613 
L 3250 1097 
L 2631 1097 
L 2631 0 
L 2069 0 
z
M 2069 1613 
L 2069 3678 
L 634 1613 
L 2069 1613 
z
" transform="scale(0.015625)"/>
       </defs>
       <use xlink:href="#ArialMT-34"/>
       <use xlink:href="#ArialMT-30" x="55.615234"/>
      </g>
     </g>
    </g>
    <g id="xtick_4">
     <g id="line2d_4">
      <g>
       <use xlink:href="#ma3d89afb6b" x="252.005719" y="273.312" style="fill: #262626; stroke: #262626"/>
      </g>
     </g>
     <g id="text_4">
      <!-- 60 -->
      <g style="fill: #262626" transform="translate(247.112094 287.910875) scale(0.088 -0.088)">
       <defs>
        <path id="ArialMT-36" d="M 3184 3459 
L 2625 3416 
Q 2550 3747 2413 3897 
Q 2184 4138 1850 4138 
Q 1581 4138 1378 3988 
Q 1113 3794 959 3422 
Q 806 3050 800 2363 
Q 1003 2672 1297 2822 
Q 1591 2972 1913 2972 
Q 2475 2972 2870 2558 
Q 3266 2144 3266 1488 
Q 3266 1056 3080 686 
Q 2894 316 2569 119 
Q 2244 -78 1831 -78 
Q 1128 -78 684 439 
Q 241 956 241 2144 
Q 241 3472 731 4075 
Q 1159 4600 1884 4600 
Q 2425 4600 2770 4297 
Q 3116 3994 3184 3459 
z
M 888 1484 
Q 888 1194 1011 928 
Q 1134 663 1356 523 
Q 1578 384 1822 384 
Q 2178 384 2434 671 
Q 2691 959 2691 1453 
Q 2691 1928 2437 2201 
Q 2184 2475 1800 2475 
Q 1419 2475 1153 2201 
Q 888 1928 888 1484 
z
" transform="scale(0.015625)"/>
       </defs>
       <use xlink:href="#ArialMT-36"/>
       <use xlink:href="#ArialMT-30" x="55.615234"/>
      </g>
     </g>
    </g>
    <g id="xtick_5">
     <g id="line2d_5">
      <g>
       <use xlink:href="#ma3d89afb6b" x="317.592496" y="273.312" style="fill: #262626; stroke: #262626"/>
      </g>
     </g>
     <g id="text_5">
      <!-- 80 -->
      <g style="fill: #262626" transform="translate(312.698871 287.910875) scale(0.088 -0.088)">
       <defs>
        <path id="ArialMT-38" d="M 1131 2484 
Q 781 2613 612 2850 
Q 444 3088 444 3419 
Q 444 3919 803 4259 
Q 1163 4600 1759 4600 
Q 2359 4600 2725 4251 
Q 3091 3903 3091 3403 
Q 3091 3084 2923 2848 
Q 2756 2613 2416 2484 
Q 2838 2347 3058 2040 
Q 3278 1734 3278 1309 
Q 3278 722 2862 322 
Q 2447 -78 1769 -78 
Q 1091 -78 675 323 
Q 259 725 259 1325 
Q 259 1772 486 2073 
Q 713 2375 1131 2484 
z
M 1019 3438 
Q 1019 3113 1228 2906 
Q 1438 2700 1772 2700 
Q 2097 2700 2305 2904 
Q 2513 3109 2513 3406 
Q 2513 3716 2298 3927 
Q 2084 4138 1766 4138 
Q 1444 4138 1231 3931 
Q 1019 3725 1019 3438 
z
M 838 1322 
Q 838 1081 952 856 
Q 1066 631 1291 507 
Q 1516 384 1775 384 
Q 2178 384 2440 643 
Q 2703 903 2703 1303 
Q 2703 1709 2433 1975 
Q 2163 2241 1756 2241 
Q 1359 2241 1098 1978 
Q 838 1716 838 1322 
z
" transform="scale(0.015625)"/>
       </defs>
       <use xlink:href="#ArialMT-38"/>
       <use xlink:href="#ArialMT-30" x="55.615234"/>
      </g>
     </g>
    </g>
    <g id="xtick_6">
     <g id="line2d_6">
      <g>
       <use xlink:href="#ma3d89afb6b" x="383.179273" y="273.312" style="fill: #262626; stroke: #262626"/>
      </g>
     </g>
     <g id="text_6">
      <!-- 100 -->
      <g style="fill: #262626" transform="translate(375.838835 287.910875) scale(0.088 -0.088)">
       <defs>
        <path id="ArialMT-31" d="M 2384 0 
L 1822 0 
L 1822 3584 
Q 1619 3391 1289 3197 
Q 959 3003 697 2906 
L 697 3450 
Q 1169 3672 1522 3987 
Q 1875 4303 2022 4600 
L 2384 4600 
L 2384 0 
z
" transform="scale(0.015625)"/>
       </defs>
       <use xlink:href="#ArialMT-31"/>
       <use xlink:href="#ArialMT-30" x="55.615234"/>
       <use xlink:href="#ArialMT-30" x="111.230469"/>
      </g>
     </g>
    </g>
    <g id="text_7">
     <!-- $N$ -->
     <g style="fill: #262626" transform="translate(217.252 300.531375) scale(0.096 -0.096)">
      <defs>
       <path id="DejaVuSans-Oblique-4e" d="M 1081 4666 
L 1931 4666 
L 3219 666 
L 4000 4666 
L 4616 4666 
L 3706 0 
L 2853 0 
L 1569 4025 
L 788 0 
L 172 0 
L 1081 4666 
z
" transform="scale(0.015625)"/>
      </defs>
      <use xlink:href="#DejaVuSans-Oblique-4e" transform="translate(0 0.09375)"/>
     </g>
    </g>
   </g>
   <g id="matplotlib.axis_2">
    <g id="ytick_1">
     <g id="line2d_7">
      <defs>
       <path id="m3535ed6d22" d="M 0 0 
L -4.8 0 
" style="stroke: #262626"/>
      </defs>
      <g>
       <use xlink:href="#m3535ed6d22" x="42.292" y="241.135277" style="fill: #262626; stroke: #262626"/>
      </g>
     </g>
     <g id="text_8">
      <!-- 0.5 -->
      <g style="fill: #262626" transform="translate(21.76 244.284715) scale(0.088 -0.088)">
       <defs>
        <path id="ArialMT-2e" d="M 581 0 
L 581 641 
L 1222 641 
L 1222 0 
L 581 0 
z
" transform="scale(0.015625)"/>
        <path id="ArialMT-35" d="M 266 1200 
L 856 1250 
Q 922 819 1161 601 
Q 1400 384 1738 384 
Q 2144 384 2425 690 
Q 2706 997 2706 1503 
Q 2706 1984 2436 2262 
Q 2166 2541 1728 2541 
Q 1456 2541 1237 2417 
Q 1019 2294 894 2097 
L 366 2166 
L 809 4519 
L 3088 4519 
L 3088 3981 
L 1259 3981 
L 1013 2750 
Q 1425 3038 1878 3038 
Q 2478 3038 2890 2622 
Q 3303 2206 3303 1553 
Q 3303 931 2941 478 
Q 2500 -78 1738 -78 
Q 1113 -78 717 272 
Q 322 622 266 1200 
z
" transform="scale(0.015625)"/>
       </defs>
       <use xlink:href="#ArialMT-30"/>
       <use xlink:href="#ArialMT-2e" x="55.615234"/>
       <use xlink:href="#ArialMT-35" x="83.398438"/>
      </g>
     </g>
    </g>
    <g id="ytick_2">
     <g id="line2d_8">
      <g>
       <use xlink:href="#m3535ed6d22" x="42.292" y="183.555741" style="fill: #262626; stroke: #262626"/>
      </g>
     </g>
     <g id="text_9">
      <!-- 1.0 -->
      <g style="fill: #262626" transform="translate(21.76 186.705179) scale(0.088 -0.088)">
       <use xlink:href="#ArialMT-31"/>
       <use xlink:href="#ArialMT-2e" x="55.615234"/>
       <use xlink:href="#ArialMT-30" x="83.398438"/>
      </g>
     </g>
    </g>
    <g id="ytick_3">
     <g id="line2d_9">
      <g>
       <use xlink:href="#m3535ed6d22" x="42.292" y="125.976205" style="fill: #262626; stroke: #262626"/>
      </g>
     </g>
     <g id="text_10">
      <!-- 1.5 -->
      <g style="fill: #262626" transform="translate(21.76 129.125643) scale(0.088 -0.088)">
       <use xlink:href="#ArialMT-31"/>
       <use xlink:href="#ArialMT-2e" x="55.615234"/>
       <use xlink:href="#ArialMT-35" x="83.398438"/>
      </g>
     </g>
    </g>
    <g id="ytick_4">
     <g id="line2d_10">
      <g>
       <use xlink:href="#m3535ed6d22" x="42.292" y="68.39667" style="fill: #262626; stroke: #262626"/>
      </g>
     </g>
     <g id="text_11">
      <!-- 2.0 -->
      <g style="fill: #262626" transform="translate(21.76 71.546107) scale(0.088 -0.088)">
       <use xlink:href="#ArialMT-32"/>
       <use xlink:href="#ArialMT-2e" x="55.615234"/>
       <use xlink:href="#ArialMT-30" x="83.398438"/>
      </g>
     </g>
    </g>
    <g id="ytick_5">
     <g id="line2d_11">
      <g>
       <use xlink:href="#m3535ed6d22" x="42.292" y="10.817134" style="fill: #262626; stroke: #262626"/>
      </g>
     </g>
     <g id="text_12">
      <!-- 2.5 -->
      <g style="fill: #262626" transform="translate(21.76 13.966571) scale(0.088 -0.088)">
       <use xlink:href="#ArialMT-32"/>
       <use xlink:href="#ArialMT-2e" x="55.615234"/>
       <use xlink:href="#ArialMT-35" x="83.398438"/>
      </g>
     </g>
    </g>
    <g id="text_13">
     <!-- $\bar{I}_N$ -->
     <g style="fill: #262626" transform="translate(15.852 144.384) rotate(-90) scale(0.096 -0.096)">
      <defs>
       <path id="DejaVuSans-304" d="M -2518 4769 
L -650 4769 
L -650 4306 
L -2518 4306 
L -2518 4769 
z
" transform="scale(0.015625)"/>
       <path id="DejaVuSans-Oblique-49" d="M 1081 4666 
L 1716 4666 
L 806 0 
L 172 0 
L 1081 4666 
z
" transform="scale(0.015625)"/>
      </defs>
      <use xlink:href="#DejaVuSans-304" transform="translate(42.716797 18.484375)"/>
      <use xlink:href="#DejaVuSans-Oblique-49" transform="translate(0 0.359375)"/>
      <use xlink:href="#DejaVuSans-Oblique-4e" transform="translate(30.449219 -16.046875) scale(0.7)"/>
     </g>
    </g>
   </g>
   <g id="PolyCollection_1">
    <defs>
     <path id="ma01100320c" d="M 58.524727 -93.140671 
L 58.524727 -93.140671 
L 61.804066 -75.114904 
L 65.083405 -103.853547 
L 68.362744 -108.963185 
L 71.642083 -84.248267 
L 74.921421 -61.566207 
L 78.20076 -48.772369 
L 81.480099 -55.281343 
L 84.759438 -63.308661 
L 88.038777 -54.686453 
L 91.318116 -68.348362 
L 94.597455 -60.491838 
L 97.876793 -56.965518 
L 101.156132 -54.608217 
L 104.435471 -58.439716 
L 107.71481 -54.644646 
L 110.994149 -50.968773 
L 114.273488 -48.423375 
L 117.552826 -56.654192 
L 120.832165 -66.491524 
L 124.111504 -75.499174 
L 127.390843 -83.974821 
L 130.670182 -82.724837 
L 133.949521 -92.216703 
L 137.22886 -95.005651 
L 140.508198 -90.790094 
L 143.787537 -88.096378 
L 147.066876 -85.028167 
L 150.346215 -87.093984 
L 153.625554 -91.525625 
L 156.904893 -98.792546 
L 160.184231 -95.439715 
L 163.46357 -99.386068 
L 166.742909 -101.35429 
L 170.022248 -99.821417 
L 173.301587 -101.034441 
L 176.580926 -99.785537 
L 179.860264 -99.293631 
L 183.139603 -96.505762 
L 186.418942 -94.661409 
L 189.698281 -95.507264 
L 192.97762 -95.043628 
L 196.256959 -92.67248 
L 199.536298 -90.443453 
L 202.815636 -88.397671 
L 206.094975 -90.194628 
L 209.374314 -88.217479 
L 212.653653 -86.633299 
L 215.932992 -85.30104 
L 219.212331 -85.664494 
L 222.491669 -84.129381 
L 225.771008 -82.855956 
L 229.050347 -81.266568 
L 232.329686 -79.792736 
L 235.609025 -80.126228 
L 238.888364 -79.772593 
L 242.167702 -82.969754 
L 245.447041 -81.5278 
L 248.72638 -80.538723 
L 252.005719 -83.012236 
L 255.285058 -83.56856 
L 258.564397 -87.46181 
L 261.843736 -90.897074 
L 265.123074 -90.817837 
L 268.402413 -89.534811 
L 271.681752 -89.539594 
L 274.961091 -91.04482 
L 278.24043 -93.522942 
L 281.519769 -94.267716 
L 284.799107 -93.313662 
L 288.078446 -93.872595 
L 291.357785 -96.484917 
L 294.637124 -96.118037 
L 297.916463 -96.704362 
L 301.195802 -98.468494 
L 304.47514 -97.435489 
L 307.754479 -99.473033 
L 311.033818 -101.613435 
L 314.313157 -100.651368 
L 317.592496 -99.443499 
L 320.871835 -99.434128 
L 324.151174 -98.254341 
L 327.430512 -97.881949 
L 330.709851 -98.209893 
L 333.98919 -97.478074 
L 337.268529 -96.471485 
L 340.547868 -96.553015 
L 343.827207 -98.981214 
L 347.106545 -97.870845 
L 350.385884 -99.240038 
L 353.665223 -99.574052 
L 356.944562 -99.588326 
L 360.223901 -99.414184 
L 363.50324 -100.93006 
L 366.782579 -102.930998 
L 370.061917 -104.509974 
L 373.341256 -104.923419 
L 376.620595 -106.63721 
L 379.899934 -105.576345 
L 383.179273 -105.00973 
L 383.179273 -153.291234 
L 383.179273 -153.291234 
L 379.899934 -154.249167 
L 376.620595 -155.57255 
L 373.341256 -153.889353 
L 370.061917 -153.981759 
L 366.782579 -152.557593 
L 363.50324 -150.373819 
L 360.223901 -149.06604 
L 356.944562 -149.750193 
L 353.665223 -150.276686 
L 350.385884 -150.5056 
L 347.106545 -149.490091 
L 343.827207 -150.9337 
L 340.547868 -147.972218 
L 337.268529 -148.48147 
L 333.98919 -149.877493 
L 330.709851 -151.088804 
L 327.430512 -151.397942 
L 324.151174 -152.356705 
L 320.871835 -153.924614 
L 317.592496 -154.598003 
L 314.313157 -156.214098 
L 311.033818 -157.676522 
L 307.754479 -155.637665 
L 304.47514 -153.802543 
L 301.195802 -155.350298 
L 297.916463 -154.016376 
L 294.637124 -154.209758 
L 291.357785 -155.309379 
L 288.078446 -152.52819 
L 284.799107 -152.80447 
L 281.519769 -154.401517 
L 278.24043 -154.528363 
L 274.961091 -152.198083 
L 271.681752 -151.45369 
L 268.402413 -152.374329 
L 265.123074 -154.30887 
L 261.843736 -155.355929 
L 258.564397 -151.096941 
L 255.285058 -145.088035 
L 252.005719 -145.556787 
L 248.72638 -143.476845 
L 245.447041 -145.299365 
L 242.167702 -147.453317 
L 238.888364 -144.036598 
L 235.609025 -145.460286 
L 232.329686 -146.327949 
L 229.050347 -148.627749 
L 225.771008 -151.036325 
L 222.491669 -153.282325 
L 219.212331 -155.7383 
L 215.932992 -156.79135 
L 212.653653 -159.216871 
L 209.374314 -161.85298 
L 206.094975 -164.7759 
L 202.815636 -164.523608 
L 199.536298 -167.605622 
L 196.256959 -170.849038 
L 192.97762 -174.230421 
L 189.698281 -176.444188 
L 186.418942 -177.61908 
L 183.139603 -180.943902 
L 179.860264 -184.87716 
L 176.580926 -187.460808 
L 173.301587 -190.687116 
L 170.022248 -192.035189 
L 166.742909 -195.693863 
L 163.46357 -196.558598 
L 160.184231 -195.030038 
L 156.904893 -200.145194 
L 153.625554 -190.333392 
L 150.346215 -188.5152 
L 147.066876 -190.066346 
L 143.787537 -195.605081 
L 140.508198 -201.160558 
L 137.22886 -207.682393 
L 133.949521 -209.574016 
L 130.670182 -192.967601 
L 127.390843 -198.412572 
L 124.111504 -190.73743 
L 120.832165 -181.705367 
L 117.552826 -166.666473 
L 114.273488 -140.396363 
L 110.994149 -146.652535 
L 107.71481 -153.820383 
L 104.435471 -161.52557 
L 101.156132 -165.055582 
L 97.876793 -173.697501 
L 94.597455 -183.751288 
L 91.318116 -196.051005 
L 88.038777 -175.733365 
L 84.759438 -189.360751 
L 81.480099 -197.088521 
L 78.20076 -210.218297 
L 74.921421 -233.268033 
L 71.642083 -259.811262 
L 68.362744 -290.343375 
L 65.083405 -199.218741 
L 61.804066 -198.202539 
L 58.524727 -93.140671 
z
" style="stroke: #ffffff; stroke-opacity: 0.25; stroke-width: 0.8"/>
    </defs>
    <g clip-path="url(#pe9b47d95e2)">
     <use xlink:href="#ma01100320c" x="0" y="309.639375" style="fill: #1f77b4; fill-opacity: 0.25; stroke: #ffffff; stroke-opacity: 0.25; stroke-width: 0.8"/>
    </g>
   </g>
   <g id="line2d_12">
    <path d="M 58.524727 216.498704 
L 61.804066 172.980653 
L 65.083405 158.103231 
L 68.362744 109.986095 
L 71.642083 137.609611 
L 74.921421 162.222255 
L 78.20076 180.144042 
L 81.480099 183.454443 
L 84.759438 183.304669 
L 88.038777 194.429466 
L 91.318116 177.439692 
L 94.597455 187.517812 
L 97.876793 194.307866 
L 101.156132 199.807475 
L 104.435471 199.656732 
L 107.71481 205.406861 
L 110.994149 210.828721 
L 114.273488 215.229506 
L 117.552826 197.979042 
L 120.832165 185.540929 
L 124.111504 176.521073 
L 127.390843 168.445678 
L 130.670182 171.793156 
L 133.949521 158.744015 
L 137.22886 158.295353 
L 140.508198 163.664049 
L 143.787537 167.788646 
L 147.066876 172.092118 
L 150.346215 171.834783 
L 153.625554 168.709866 
L 156.904893 160.170505 
L 160.184231 164.404499 
L 163.46357 161.667042 
L 166.742909 161.115298 
L 170.022248 163.711072 
L 173.301587 163.778597 
L 176.580926 166.016202 
L 179.860264 167.55398 
L 183.139603 170.914543 
L 186.418942 173.499131 
L 189.698281 173.663649 
L 192.97762 175.002351 
L 196.256959 177.878616 
L 199.536298 180.614838 
L 202.815636 183.178735 
L 206.094975 182.154111 
L 209.374314 184.604146 
L 212.653653 186.71429 
L 215.932992 188.59318 
L 219.212331 188.937978 
L 222.491669 190.933522 
L 225.771008 192.693234 
L 229.050347 194.692216 
L 232.329686 196.579033 
L 235.609025 196.846118 
L 238.888364 197.734779 
L 242.167702 194.427839 
L 245.447041 196.225792 
L 248.72638 197.631591 
L 252.005719 195.354863 
L 255.285058 195.311077 
L 258.564397 190.359999 
L 261.843736 186.512873 
L 265.123074 187.076021 
L 268.402413 188.684805 
L 271.681752 189.142733 
L 274.961091 188.017924 
L 278.24043 185.613723 
L 281.519769 185.304759 
L 284.799107 186.580309 
L 288.078446 186.438982 
L 291.357785 183.742227 
L 294.637124 184.475478 
L 297.916463 184.279006 
L 301.195802 182.729979 
L 304.47514 184.020359 
L 307.754479 182.084026 
L 311.033818 179.994397 
L 314.313157 181.206642 
L 317.592496 182.618624 
L 320.871835 182.960004 
L 324.151174 184.333852 
L 327.430512 184.999429 
L 330.709851 184.990027 
L 333.98919 185.961591 
L 337.268529 187.162898 
L 340.547868 187.376758 
L 343.827207 184.681918 
L 347.106545 185.958907 
L 350.385884 184.766556 
L 353.665223 184.714006 
L 356.944562 184.970116 
L 360.223901 185.399263 
L 363.50324 183.987435 
L 366.782579 181.89508 
L 370.061917 180.393508 
L 373.341256 180.232989 
L 376.620595 178.534495 
L 379.899934 179.726619 
L 383.179273 180.488893 
" clip-path="url(#pe9b47d95e2)" style="fill: none; stroke: #0000ff; stroke-width: 2; stroke-linecap: round"/>
   </g>
   <g id="line2d_13">
    <path d="M 58.524727 187.586309 
L 61.804066 187.586309 
L 65.083405 187.586309 
L 68.362744 187.586309 
L 71.642083 187.586309 
L 74.921421 187.586309 
L 78.20076 187.586309 
L 81.480099 187.586309 
L 84.759438 187.586309 
L 88.038777 187.586309 
L 91.318116 187.586309 
L 94.597455 187.586309 
L 97.876793 187.586309 
L 101.156132 187.586309 
L 104.435471 187.586309 
L 107.71481 187.586309 
L 110.994149 187.586309 
L 114.273488 187.586309 
L 117.552826 187.586309 
L 120.832165 187.586309 
L 124.111504 187.586309 
L 127.390843 187.586309 
L 130.670182 187.586309 
L 133.949521 187.586309 
L 137.22886 187.586309 
L 140.508198 187.586309 
L 143.787537 187.586309 
L 147.066876 187.586309 
L 150.346215 187.586309 
L 153.625554 187.586309 
L 156.904893 187.586309 
L 160.184231 187.586309 
L 163.46357 187.586309 
L 166.742909 187.586309 
L 170.022248 187.586309 
L 173.301587 187.586309 
L 176.580926 187.586309 
L 179.860264 187.586309 
L 183.139603 187.586309 
L 186.418942 187.586309 
L 189.698281 187.586309 
L 192.97762 187.586309 
L 196.256959 187.586309 
L 199.536298 187.586309 
L 202.815636 187.586309 
L 206.094975 187.586309 
L 209.374314 187.586309 
L 212.653653 187.586309 
L 215.932992 187.586309 
L 219.212331 187.586309 
L 222.491669 187.586309 
L 225.771008 187.586309 
L 229.050347 187.586309 
L 232.329686 187.586309 
L 235.609025 187.586309 
L 238.888364 187.586309 
L 242.167702 187.586309 
L 245.447041 187.586309 
L 248.72638 187.586309 
L 252.005719 187.586309 
L 255.285058 187.586309 
L 258.564397 187.586309 
L 261.843736 187.586309 
L 265.123074 187.586309 
L 268.402413 187.586309 
L 271.681752 187.586309 
L 274.961091 187.586309 
L 278.24043 187.586309 
L 281.519769 187.586309 
L 284.799107 187.586309 
L 288.078446 187.586309 
L 291.357785 187.586309 
L 294.637124 187.586309 
L 297.916463 187.586309 
L 301.195802 187.586309 
L 304.47514 187.586309 
L 307.754479 187.586309 
L 311.033818 187.586309 
L 314.313157 187.586309 
L 317.592496 187.586309 
L 320.871835 187.586309 
L 324.151174 187.586309 
L 327.430512 187.586309 
L 330.709851 187.586309 
L 333.98919 187.586309 
L 337.268529 187.586309 
L 340.547868 187.586309 
L 343.827207 187.586309 
L 347.106545 187.586309 
L 350.385884 187.586309 
L 353.665223 187.586309 
L 356.944562 187.586309 
L 360.223901 187.586309 
L 363.50324 187.586309 
L 366.782579 187.586309 
L 370.061917 187.586309 
L 373.341256 187.586309 
L 376.620595 187.586309 
L 379.899934 187.586309 
L 383.179273 187.586309 
" clip-path="url(#pe9b47d95e2)" style="fill: none; stroke: #ff0000; stroke-width: 1.2; stroke-linecap: round"/>
   </g>
   <g id="patch_3">
    <path d="M 42.292 241.135277 
L 42.292 10.817134 
" style="fill: none; stroke: #262626; stroke-linejoin: miter; stroke-linecap: square"/>
   </g>
   <g id="patch_4">
    <path d="M 55.245388 273.312 
L 383.179273 273.312 
" style="fill: none; stroke: #262626; stroke-linejoin: miter; stroke-linecap: square"/>
   </g>
  </g>
 </g>
 <defs>
  <clipPath id="pe9b47d95e2">
   <rect x="42.292" y="7.2" width="357.12" height="266.112"/>
  </clipPath>
 </defs>
</svg>