<?xml version="1.0" encoding="utf-8" standalone="no"?>
<!DOCTYPE svg PUBLIC "-//W3C//DTD SVG 1.1//EN"
  "http://www.w3.org/Graphics/SVG/1.1/DTD/svg11.dtd">
<svg xmlns:xlink="http://www.w3.org/1999/xlink" width="409.326685pt" height="309.639375pt" viewBox="0 0 409.326685 309.639375" xmlns="http://www.w3.org/2000/svg" version="1.1">
 <metadata>
  <rdf:RDF xmlns:dc="http://purl.org/dc/elements/1.1/" xmlns:cc="http://creativecommons.org/ns#" xmlns:rdf="http://www.w3.org/1999/02/22-rdf-syntax-ns#">
   <cc:Work>
    <dc:type rdf:resource="http://purl.org/dc/dcmitype/StillImage"/>
    <dc:date>2023-10-25T16:08:58.193673</dc:date>
    <dc:format>image/svg+xml</dc:format>
    <dc:creator>
     <cc:Agent>
      <dc:title>Matplotlib v3.8.0, https://matplotlib.org/</dc:title>
     </cc:Agent>
    </dc:creator>
   </cc:Work>
  </rdf:RDF>
 </metadata>
 <defs>
  <style type="text/css">*{stroke-linejoin: round; stroke-linecap: butt}</style>
 </defs>
 <g id="figure_1">
  <g id="patch_1">
   <path d="M 0 309.639375 
L 409.326685 309.639375 
L 409.326685 0 
L 0 0 
z
" style="fill: #ffffff"/>
  </g>
  <g id="axes_1">
   <g id="patch_2">
    <path d="M 42.412875 273.312 
L 399.532875 273.312 
L 399.532875 7.2 
L 42.412875 7.2 
z
" style="fill: #ffffff"/>
   </g>
   <g id="matplotlib.axis_1">
    <g id="xtick_1">
     <g id="line2d_1">
      <defs>
       <path id="me497943441" d="M 0 0 
L 0 4.8 
" style="stroke: #262626"/>
      </defs>
      <g>
       <use xlink:href="#me497943441" x="58.612474" y="273.312" style="fill: #262626; stroke: #262626"/>
      </g>
     </g>
     <g id="text_1">
      <!-- 0 -->
      <g style="fill: #262626" transform="translate(56.165662 287.910875) scale(0.088 -0.088)">
       <defs>
        <path id="ArialMT-30" d="M 266 2259 
Q 266 3072 433 3567 
Q 600 4063 929 4331 
Q 1259 4600 1759 4600 
Q 2128 4600 2406 4451 
Q 2684 4303 2865 4023 
Q 3047 3744 3150 3342 
Q 3253 2941 3253 2259 
Q 3253 1453 3087 958 
Q 2922 463 2592 192 
Q 2263 -78 1759 -78 
Q 1097 -78 719 397 
Q 266 969 266 2259 
z
M 844 2259 
Q 844 1131 1108 757 
Q 1372 384 1759 384 
Q 2147 384 2411 759 
Q 2675 1134 2675 2259 
Q 2675 3391 2411 3762 
Q 2147 4134 1753 4134 
Q 1366 4134 1134 3806 
Q 844 3388 844 2259 
z
" transform="scale(0.015625)"/>
       </defs>
       <use xlink:href="#ArialMT-30"/>
      </g>
     </g>
    </g>
    <g id="xtick_2">
     <g id="line2d_2">
      <g>
       <use xlink:href="#me497943441" x="124.868504" y="273.312" style="fill: #262626; stroke: #262626"/>
      </g>
     </g>
     <g id="text_2">
      <!-- 2000 -->
      <g style="fill: #262626" transform="translate(115.081254 287.910875) scale(0.088 -0.088)">
       <defs>
        <path id="ArialMT-32" d="M 3222 541 
L 3222 0 
L 194 0 
Q 188 203 259 391 
Q 375 700 629 1000 
Q 884 1300 1366 1694 
Q 2113 2306 2375 2664 
Q 2638 3022 2638 3341 
Q 2638 3675 2398 3904 
Q 2159 4134 1775 4134 
Q 1369 4134 1125 3890 
Q 881 3647 878 3216 
L 300 3275 
Q 359 3922 746 4261 
Q 1134 4600 1788 4600 
Q 2447 4600 2831 4234 
Q 3216 3869 3216 3328 
Q 3216 3053 3103 2787 
Q 2991 2522 2730 2228 
Q 2469 1934 1863 1422 
Q 1356 997 1212 845 
Q 1069 694 975 541 
L 3222 541 
z
" transform="scale(0.015625)"/>
       </defs>
       <use xlink:href="#ArialMT-32"/>
       <use xlink:href="#ArialMT-30" x="55.615234"/>
       <use xlink:href="#ArialMT-30" x="111.230469"/>
       <use xlink:href="#ArialMT-30" x="166.845703"/>
      </g>
     </g>
    </g>
    <g id="xtick_3">
     <g id="line2d_3">
      <g>
       <use xlink:href="#me497943441" x="191.124534" y="273.312" style="fill: #262626; stroke: #262626"/>
      </g>
     </g>
     <g id="text_3">
      <!-- 4000 -->
      <g style="fill: #262626" transform="translate(181.337284 287.910875) scale(0.088 -0.088)">
       <defs>
        <path id="ArialMT-34" d="M 2069 0 
L 2069 1097 
L 81 1097 
L 81 1613 
L 2172 4581 
L 2631 4581 
L 2631 1613 
L 3250 1613 
L 3250 1097 
L 2631 1097 
L 2631 0 
L 2069 0 
z
M 2069 1613 
L 2069 3678 
L 634 1613 
L 2069 1613 
z
" transform="scale(0.015625)"/>
       </defs>
       <use xlink:href="#ArialMT-34"/>
       <use xlink:href="#ArialMT-30" x="55.615234"/>
       <use xlink:href="#ArialMT-30" x="111.230469"/>
       <use xlink:href="#ArialMT-30" x="166.845703"/>
      </g>
     </g>
    </g>
    <g id="xtick_4">
     <g id="line2d_4">
      <g>
       <use xlink:href="#me497943441" x="257.380563" y="273.312" style="fill: #262626; stroke: #262626"/>
      </g>
     </g>
     <g id="text_4">
      <!-- 6000 -->
      <g style="fill: #262626" transform="translate(247.593313 287.910875) scale(0.088 -0.088)">
       <defs>
        <path id="ArialMT-36" d="M 3184 3459 
L 2625 3416 
Q 2550 3747 2413 3897 
Q 2184 4138 1850 4138 
Q 1581 4138 1378 3988 
Q 1113 3794 959 3422 
Q 806 3050 800 2363 
Q 1003 2672 1297 2822 
Q 1591 2972 1913 2972 
Q 2475 2972 2870 2558 
Q 3266 2144 3266 1488 
Q 3266 1056 3080 686 
Q 2894 316 2569 119 
Q 2244 -78 1831 -78 
Q 1128 -78 684 439 
Q 241 956 241 2144 
Q 241 3472 731 4075 
Q 1159 4600 1884 4600 
Q 2425 4600 2770 4297 
Q 3116 3994 3184 3459 
z
M 888 1484 
Q 888 1194 1011 928 
Q 1134 663 1356 523 
Q 1578 384 1822 384 
Q 2178 384 2434 671 
Q 2691 959 2691 1453 
Q 2691 1928 2437 2201 
Q 2184 2475 1800 2475 
Q 1419 2475 1153 2201 
Q 888 1928 888 1484 
z
" transform="scale(0.015625)"/>
       </defs>
       <use xlink:href="#ArialMT-36"/>
       <use xlink:href="#ArialMT-30" x="55.615234"/>
       <use xlink:href="#ArialMT-30" x="111.230469"/>
       <use xlink:href="#ArialMT-30" x="166.845703"/>
      </g>
     </g>
    </g>
    <g id="xtick_5">
     <g id="line2d_5">
      <g>
       <use xlink:href="#me497943441" x="323.636593" y="273.312" style="fill: #262626; stroke: #262626"/>
      </g>
     </g>
     <g id="text_5">
      <!-- 8000 -->
      <g style="fill: #262626" transform="translate(313.849343 287.910875) scale(0.088 -0.088)">
       <defs>
        <path id="ArialMT-38" d="M 1131 2484 
Q 781 2613 612 2850 
Q 444 3088 444 3419 
Q 444 3919 803 4259 
Q 1163 4600 1759 4600 
Q 2359 4600 2725 4251 
Q 3091 3903 3091 3403 
Q 3091 3084 2923 2848 
Q 2756 2613 2416 2484 
Q 2838 2347 3058 2040 
Q 3278 1734 3278 1309 
Q 3278 722 2862 322 
Q 2447 -78 1769 -78 
Q 1091 -78 675 323 
Q 259 725 259 1325 
Q 259 1772 486 2073 
Q 713 2375 1131 2484 
z
M 1019 3438 
Q 1019 3113 1228 2906 
Q 1438 2700 1772 2700 
Q 2097 2700 2305 2904 
Q 2513 3109 2513 3406 
Q 2513 3716 2298 3927 
Q 2084 4138 1766 4138 
Q 1444 4138 1231 3931 
Q 1019 3725 1019 3438 
z
M 838 1322 
Q 838 1081 952 856 
Q 1066 631 1291 507 
Q 1516 384 1775 384 
Q 2178 384 2440 643 
Q 2703 903 2703 1303 
Q 2703 1709 2433 1975 
Q 2163 2241 1756 2241 
Q 1359 2241 1098 1978 
Q 838 1716 838 1322 
z
" transform="scale(0.015625)"/>
       </defs>
       <use xlink:href="#ArialMT-38"/>
       <use xlink:href="#ArialMT-30" x="55.615234"/>
       <use xlink:href="#ArialMT-30" x="111.230469"/>
       <use xlink:href="#ArialMT-30" x="166.845703"/>
      </g>
     </g>
    </g>
    <g id="xtick_6">
     <g id="line2d_6">
      <g>
       <use xlink:href="#me497943441" x="389.892623" y="273.312" style="fill: #262626; stroke: #262626"/>
      </g>
     </g>
     <g id="text_6">
      <!-- 10000 -->
      <g style="fill: #262626" transform="translate(377.65856 287.910875) scale(0.088 -0.088)">
       <defs>
        <path id="ArialMT-31" d="M 2384 0 
L 1822 0 
L 1822 3584 
Q 1619 3391 1289 3197 
Q 959 3003 697 2906 
L 697 3450 
Q 1169 3672 1522 3987 
Q 1875 4303 2022 4600 
L 2384 4600 
L 2384 0 
z
" transform="scale(0.015625)"/>
       </defs>
       <use xlink:href="#ArialMT-31"/>
       <use xlink:href="#ArialMT-30" x="55.615234"/>
       <use xlink:href="#ArialMT-30" x="111.230469"/>
       <use xlink:href="#ArialMT-30" x="166.845703"/>
       <use xlink:href="#ArialMT-30" x="222.460938"/>
      </g>
     </g>
    </g>
    <g id="text_7">
     <!-- $m$ -->
     <g style="fill: #262626" transform="translate(216.268875 300.531375) scale(0.096 -0.096)">
      <defs>
       <path id="DejaVuSans-Oblique-6d" d="M 5747 2113 
L 5338 0 
L 4763 0 
L 5166 2094 
Q 5191 2228 5203 2325 
Q 5216 2422 5216 2491 
Q 5216 2772 5059 2928 
Q 4903 3084 4622 3084 
Q 4203 3084 3875 2770 
Q 3547 2456 3450 1953 
L 3066 0 
L 2491 0 
L 2900 2094 
Q 2925 2209 2937 2307 
Q 2950 2406 2950 2484 
Q 2950 2769 2794 2926 
Q 2638 3084 2363 3084 
Q 1938 3084 1609 2770 
Q 1281 2456 1184 1953 
L 800 0 
L 225 0 
L 909 3500 
L 1484 3500 
L 1375 2956 
Q 1609 3263 1923 3423 
Q 2238 3584 2597 3584 
Q 2978 3584 3223 3384 
Q 3469 3184 3519 2828 
Q 3781 3197 4126 3390 
Q 4472 3584 4856 3584 
Q 5306 3584 5551 3325 
Q 5797 3066 5797 2591 
Q 5797 2488 5784 2364 
Q 5772 2241 5747 2113 
z
" transform="scale(0.015625)"/>
      </defs>
      <use xlink:href="#DejaVuSans-Oblique-6d"/>
     </g>
    </g>
   </g>
   <g id="matplotlib.axis_2">
    <g id="ytick_1">
     <g id="line2d_7">
      <defs>
       <path id="m01456f0ae4" d="M 0 0 
L -4.8 0 
" style="stroke: #262626"/>
      </defs>
      <g>
       <use xlink:href="#m01456f0ae4" x="42.412875" y="261.216" style="fill: #262626; stroke: #262626"/>
      </g>
     </g>
     <g id="text_8">
      <!-- 0.0000 -->
      <g style="fill: #262626" transform="translate(7.2 264.365437) scale(0.088 -0.088)">
       <defs>
        <path id="ArialMT-2e" d="M 581 0 
L 581 641 
L 1222 641 
L 1222 0 
L 581 0 
z
" transform="scale(0.015625)"/>
       </defs>
       <use xlink:href="#ArialMT-30"/>
       <use xlink:href="#ArialMT-2e" x="55.615234"/>
       <use xlink:href="#ArialMT-30" x="83.398438"/>
       <use xlink:href="#ArialMT-30" x="139.013672"/>
       <use xlink:href="#ArialMT-30" x="194.628906"/>
       <use xlink:href="#ArialMT-30" x="250.244141"/>
      </g>
     </g>
    </g>
    <g id="ytick_2">
     <g id="line2d_8">
      <g>
       <use xlink:href="#m01456f0ae4" x="42.412875" y="228.497568" style="fill: #262626; stroke: #262626"/>
      </g>
     </g>
     <g id="text_9">
      <!-- 0.0025 -->
      <g style="fill: #262626" transform="translate(7.2 231.647005) scale(0.088 -0.088)">
       <defs>
        <path id="ArialMT-35" d="M 266 1200 
L 856 1250 
Q 922 819 1161 601 
Q 1400 384 1738 384 
Q 2144 384 2425 690 
Q 2706 997 2706 1503 
Q 2706 1984 2436 2262 
Q 2166 2541 1728 2541 
Q 1456 2541 1237 2417 
Q 1019 2294 894 2097 
L 366 2166 
L 809 4519 
L 3088 4519 
L 3088 3981 
L 1259 3981 
L 1013 2750 
Q 1425 3038 1878 3038 
Q 2478 3038 2890 2622 
Q 3303 2206 3303 1553 
Q 3303 931 2941 478 
Q 2500 -78 1738 -78 
Q 1113 -78 717 272 
Q 322 622 266 1200 
z
" transform="scale(0.015625)"/>
       </defs>
       <use xlink:href="#ArialMT-30"/>
       <use xlink:href="#ArialMT-2e" x="55.615234"/>
       <use xlink:href="#ArialMT-30" x="83.398438"/>
       <use xlink:href="#ArialMT-30" x="139.013672"/>
       <use xlink:href="#ArialMT-32" x="194.628906"/>
       <use xlink:href="#ArialMT-35" x="250.244141"/>
      </g>
     </g>
    </g>
    <g id="ytick_3">
     <g id="line2d_9">
      <g>
       <use xlink:href="#m01456f0ae4" x="42.412875" y="195.779136" style="fill: #262626; stroke: #262626"/>
      </g>
     </g>
     <g id="text_10">
      <!-- 0.0050 -->
      <g style="fill: #262626" transform="translate(7.2 198.928573) scale(0.088 -0.088)">
       <use xlink:href="#ArialMT-30"/>
       <use xlink:href="#ArialMT-2e" x="55.615234"/>
       <use xlink:href="#ArialMT-30" x="83.398438"/>
       <use xlink:href="#ArialMT-30" x="139.013672"/>
       <use xlink:href="#ArialMT-35" x="194.628906"/>
       <use xlink:href="#ArialMT-30" x="250.244141"/>
      </g>
     </g>
    </g>
    <g id="ytick_4">
     <g id="line2d_10">
      <g>
       <use xlink:href="#m01456f0ae4" x="42.412875" y="163.060704" style="fill: #262626; stroke: #262626"/>
      </g>
     </g>
     <g id="text_11">
      <!-- 0.0075 -->
      <g style="fill: #262626" transform="translate(7.2 166.210141) scale(0.088 -0.088)">
       <defs>
        <path id="ArialMT-37" d="M 303 3981 
L 303 4522 
L 3269 4522 
L 3269 4084 
Q 2831 3619 2401 2847 
Q 1972 2075 1738 1259 
Q 1569 684 1522 0 
L 944 0 
Q 953 541 1156 1306 
Q 1359 2072 1739 2783 
Q 2119 3494 2547 3981 
L 303 3981 
z
" transform="scale(0.015625)"/>
       </defs>
       <use xlink:href="#ArialMT-30"/>
       <use xlink:href="#ArialMT-2e" x="55.615234"/>
       <use xlink:href="#ArialMT-30" x="83.398438"/>
       <use xlink:href="#ArialMT-30" x="139.013672"/>
       <use xlink:href="#ArialMT-37" x="194.628906"/>
       <use xlink:href="#ArialMT-35" x="250.244141"/>
      </g>
     </g>
    </g>
    <g id="ytick_5">
     <g id="line2d_11">
      <g>
       <use xlink:href="#m01456f0ae4" x="42.412875" y="130.342271" style="fill: #262626; stroke: #262626"/>
      </g>
     </g>
     <g id="text_12">
      <!-- 0.0100 -->
      <g style="fill: #262626" transform="translate(7.2 133.491709) scale(0.088 -0.088)">
       <use xlink:href="#ArialMT-30"/>
       <use xlink:href="#ArialMT-2e" x="55.615234"/>
       <use xlink:href="#ArialMT-30" x="83.398438"/>
       <use xlink:href="#ArialMT-31" x="139.013672"/>
       <use xlink:href="#ArialMT-30" x="194.628906"/>
       <use xlink:href="#ArialMT-30" x="250.244141"/>
      </g>
     </g>
    </g>
    <g id="ytick_6">
     <g id="line2d_12">
      <g>
       <use xlink:href="#m01456f0ae4" x="42.412875" y="97.623839" style="fill: #262626; stroke: #262626"/>
      </g>
     </g>
     <g id="text_13">
      <!-- 0.0125 -->
      <g style="fill: #262626" transform="translate(7.2 100.773277) scale(0.088 -0.088)">
       <use xlink:href="#ArialMT-30"/>
       <use xlink:href="#ArialMT-2e" x="55.615234"/>
       <use xlink:href="#ArialMT-30" x="83.398438"/>
       <use xlink:href="#ArialMT-31" x="139.013672"/>
       <use xlink:href="#ArialMT-32" x="194.628906"/>
       <use xlink:href="#ArialMT-35" x="250.244141"/>
      </g>
     </g>
    </g>
    <g id="ytick_7">
     <g id="line2d_13">
      <g>
       <use xlink:href="#m01456f0ae4" x="42.412875" y="64.905407" style="fill: #262626; stroke: #262626"/>
      </g>
     </g>
     <g id="text_14">
      <!-- 0.0150 -->
      <g style="fill: #262626" transform="translate(7.2 68.054845) scale(0.088 -0.088)">
       <use xlink:href="#ArialMT-30"/>
       <use xlink:href="#ArialMT-2e" x="55.615234"/>
       <use xlink:href="#ArialMT-30" x="83.398438"/>
       <use xlink:href="#ArialMT-31" x="139.013672"/>
       <use xlink:href="#ArialMT-35" x="194.628906"/>
       <use xlink:href="#ArialMT-30" x="250.244141"/>
      </g>
     </g>
    </g>
    <g id="ytick_8">
     <g id="line2d_14">
      <g>
       <use xlink:href="#m01456f0ae4" x="42.412875" y="32.186975" style="fill: #262626; stroke: #262626"/>
      </g>
     </g>
     <g id="text_15">
      <!-- 0.0175 -->
      <g style="fill: #262626" transform="translate(7.2 35.336412) scale(0.088 -0.088)">
       <use xlink:href="#ArialMT-30"/>
       <use xlink:href="#ArialMT-2e" x="55.615234"/>
       <use xlink:href="#ArialMT-30" x="83.398438"/>
       <use xlink:href="#ArialMT-31" x="139.013672"/>
       <use xlink:href="#ArialMT-37" x="194.628906"/>
       <use xlink:href="#ArialMT-35" x="250.244141"/>
      </g>
     </g>
    </g>
   </g>
   <g id="line2d_15">
    <path d="M 58.645602 261.216 
L 58.744986 261.216 
L 58.877498 19.296 
L 59.407547 153.133975 
L 59.771955 186.012039 
L 60.202619 205.909882 
L 60.368259 210.479937 
L 60.567027 128.282514 
L 60.633283 130.575058 
L 60.699539 132.849049 
L 60.732667 124.19426 
L 60.798923 127.1579 
L 61.196459 142.83117 
L 61.229587 141.18075 
L 61.560868 130.171066 
L 61.85902 126.065318 
L 62.090916 125.143982 
L 62.1903 125.16884 
L 62.35594 125.630791 
L 62.389068 125.776309 
L 62.422196 124.5555 
L 62.455324 125.568357 
L 62.554708 128.521034 
L 62.587836 126.30052 
L 62.620964 126.306971 
L 62.753476 121.626218 
L 62.985372 121.145707 
L 63.117884 121.246962 
L 63.34978 121.885161 
L 63.647933 123.222217 
L 64.144853 130.821749 
L 64.608645 117.203781 
L 65.105565 109.218206 
L 66.03315 99.653878 
L 66.331302 98.077089 
L 66.795094 105.518872 
L 67.590166 118.593083 
L 67.954574 121.930222 
L 68.186471 123.691962 
L 68.252727 123.448597 
L 68.782775 120.735583 
L 69.246567 119.357283 
L 69.644103 118.752301 
L 69.975383 118.577151 
L 70.273535 118.63293 
L 71.36676 125.128895 
L 72.459984 134.223537 
L 74.414537 142.614735 
L 74.513921 143.12408 
L 76.070938 152.466618 
L 78.025491 160.241071 
L 79.516252 165.38452 
L 80.21194 167.114888 
L 81.768957 173.201945 
L 82.994693 177.258849 
L 84.22043 180.320539 
L 85.148014 182.621526 
L 86.771287 186.845914 
L 87.102567 187.362815 
L 87.930767 188.326706 
L 88.22892 176.30898 
L 88.460816 174.96039 
L 88.5602 175.016097 
L 88.659584 175.17422 
L 89.55404 176.824995 
L 90.647265 176.632676 
L 91.508593 176.63021 
L 91.873001 177.438469 
L 91.906129 176.594092 
L 92.005513 176.826666 
L 93.164994 179.441382 
L 93.198122 179.342553 
L 93.529402 180.025856 
L 94.191962 181.296929 
L 94.490114 181.629336 
L 94.523242 181.53669 
L 94.987035 180.288734 
L 95.020163 180.344381 
L 95.682723 181.666491 
L 96.510923 183.196171 
L 96.875331 183.716564 
L 96.941587 183.654739 
L 97.703532 183.005589 
L 97.73666 183.06366 
L 99.094908 185.233917 
L 101.281357 187.861974 
L 101.546381 188.306064 
L 101.778278 178.496534 
L 101.877662 178.685699 
L 102.40771 179.423896 
L 102.871502 179.696551 
L 103.23591 180.112146 
L 103.500934 180.491085 
L 103.600318 179.688805 
L 103.666574 178.749216 
L 103.765958 178.80653 
L 105.753639 179.324606 
L 106.184304 179.549136 
L 106.316816 179.736174 
L 108.0726 162.1721 
L 108.370753 159.517124 
L 108.470137 159.587838 
L 109.033313 160.500213 
L 109.331465 161.006987 
L 109.629617 156.071358 
L 109.695873 156.206295 
L 111.08725 158.784321 
L 112.942419 161.609123 
L 113.174315 161.82433 
L 113.969387 163.069772 
L 114.002515 162.752214 
L 114.068771 162.869249 
L 115.128868 164.519624 
L 116.354604 166.292708 
L 116.785268 162.356697 
L 117.08342 161.939341 
L 117.381573 161.879337 
L 117.646597 162.109117 
L 118.441669 162.503706 
L 120.296838 165.345225 
L 120.694374 165.709268 
L 120.992526 165.867147 
L 121.522574 165.601587 
L 122.251391 158.223704 
L 122.317647 158.230228 
L 122.648927 158.350835 
L 124.007176 159.535995 
L 124.040304 159.5278 
L 124.404712 158.15594 
L 124.570352 158.183991 
L 125.895472 159.63722 
L 126.359265 159.933818 
L 128.61197 159.921369 
L 129.60581 160.066813 
L 130.003346 160.4416 
L 130.43401 160.566304 
L 131.792259 162.128687 
L 132.487947 162.751652 
L 133.017996 163.310845 
L 133.415532 160.769656 
L 133.647428 158.67075 
L 133.713684 158.722397 
L 134.144348 159.189079 
L 136.098901 161.199354 
L 137.026485 161.391355 
L 138.649758 162.780227 
L 138.682886 162.191588 
L 138.78227 162.251325 
L 139.27919 162.669072 
L 139.610471 163.037503 
L 139.974879 160.517607 
L 141.465639 162.196623 
L 143.486448 163.850267 
L 145.706025 165.881963 
L 146.534226 165.643217 
L 147.62745 166.413531 
L 150.012667 167.634686 
L 150.377075 167.788689 
L 152.364756 167.811453 
L 153.921773 167.988322 
L 154.186797 168.113766 
L 154.849357 163.953287 
L 155.014997 163.217074 
L 155.081253 163.273698 
L 155.445662 163.507003 
L 156.737654 163.655387 
L 157.035806 162.952672 
L 157.963391 163.622881 
L 158.791591 163.886526 
L 158.924103 163.891673 
L 159.089743 163.202308 
L 159.686048 163.236997 
L 160.182968 163.406146 
L 160.64676 163.699795 
L 162.468801 163.854799 
L 162.501929 163.884922 
L 162.568185 163.796016 
L 162.700697 163.776929 
L 165.947242 164.490035 
L 166.079754 164.531819 
L 166.510419 164.705981 
L 166.642931 164.529603 
L 166.775443 162.643901 
L 166.874827 162.684219 
L 167.239235 162.906703 
L 167.570515 163.053549 
L 168.001179 163.127564 
L 168.133691 162.835084 
L 168.166819 162.206271 
L 168.266203 162.281843 
L 168.66374 162.455308 
L 169.723836 162.683463 
L 170.055116 156.960088 
L 170.220756 157.082843 
L 171.048957 157.706482 
L 171.545877 157.999102 
L 172.109053 158.509692 
L 172.407205 156.432437 
L 172.473461 156.487145 
L 172.572845 156.444902 
L 172.705357 156.434555 
L 172.904125 156.379328 
L 173.434174 156.085601 
L 173.566686 156.073679 
L 173.83171 156.252154 
L 174.196118 156.446742 
L 174.593654 156.142451 
L 174.958062 156.401144 
L 175.388727 153.399176 
L 175.454983 153.451619 
L 176.084415 153.810929 
L 176.548207 154.11635 
L 180.026649 156.6577 
L 180.159161 156.596519 
L 180.755465 156.80131 
L 182.84253 156.551679 
L 182.941914 156.602346 
L 182.975042 156.534766 
L 183.074426 156.332546 
L 183.107554 155.995984 
L 183.206938 156.073915 
L 183.604474 156.253737 
L 185.492771 156.554985 
L 185.625283 156.6297 
L 186.784764 157.574861 
L 186.817892 157.506116 
L 187.34794 156.630406 
L 188.275524 156.830332 
L 188.871829 157.189852 
L 190.329461 158.277917 
L 191.091406 150.375088 
L 192.052118 133.031157 
L 192.449654 132.938473 
L 193.774775 134.016213 
L 193.973543 134.166562 
L 194.006671 134.108758 
L 194.238567 133.849575 
L 195.066767 134.39209 
L 196.391888 134.616527 
L 196.425016 134.608866 
L 196.656912 133.809903 
L 196.822552 133.729942 
L 196.85568 133.574163 
L 196.955064 133.632585 
L 199.770946 135.415836 
L 200.03597 135.649597 
L 200.168482 135.27769 
L 200.36725 135.302852 
L 200.53289 135.289899 
L 200.996682 134.761037 
L 202.156163 135.051614 
L 203.580667 136.199955 
L 203.613795 135.636938 
L 203.713179 135.687892 
L 206.264036 136.887832 
L 206.562189 136.953951 
L 209.974374 139.02212 
L 210.86883 139.29996 
L 212.591487 140.068929 
L 213.320304 140.2832 
L 214.148504 140.792688 
L 214.247888 140.69093 
L 215.04296 126.157128 
L 215.639265 121.339081 
L 216.136185 121.147896 
L 217.395049 121.697639 
L 218.38889 122.477292 
L 218.620786 120.815327 
L 219.250218 119.397774 
L 219.979035 119.851089 
L 220.012163 119.774236 
L 220.409699 118.85783 
L 220.475955 118.916088 
L 221.039131 119.271036 
L 223.7225 120.253027 
L 224.153164 120.381418 
L 224.517573 115.049747 
L 224.550701 115.061072 
L 226.372741 115.80125 
L 227.267198 116.381144 
L 227.863502 115.806791 
L 228.029142 114.245653 
L 228.128526 114.331058 
L 228.824215 114.734275 
L 229.553031 115.144369 
L 231.143176 115.85308 
L 231.4082 116.000119 
L 232.667064 117.011087 
L 232.932088 116.25012 
L 232.998344 116.296604 
L 234.654745 117.494834 
L 234.820385 116.486429 
L 234.886641 116.524814 
L 236.178634 117.401091 
L 237.139346 118.032547 
L 237.338114 118.157333 
L 237.371242 118.181587 
L 237.40437 118.13065 
L 237.801907 117.723479 
L 239.093899 118.105314 
L 239.259539 118.018239 
L 239.458307 115.504199 
L 239.557691 115.555462 
L 240.551532 116.190825 
L 242.439829 117.561448 
L 243.135517 117.183697 
L 243.731821 113.310807 
L 243.764949 113.337187 
L 244.957558 114.146887 
L 246.779599 115.098649 
L 247.905951 115.578167 
L 248.833535 116.123756 
L 249.065432 116.244798 
L 250.42368 116.926176 
L 251.019984 117.157493 
L 252.378233 118.042931 
L 252.543873 117.141747 
L 252.643257 117.191605 
L 252.742641 117.241436 
L 252.908281 117.041182 
L 254.59781 117.551313 
L 255.392882 118.020557 
L 255.956059 112.316259 
L 260.527725 115.182289 
L 260.560853 115.047807 
L 261.090901 112.895379 
L 261.157157 112.94291 
L 261.985357 113.406423 
L 263.409862 113.979831 
L 265.132519 114.251158 
L 266.026975 114.55767 
L 267.9484 115.371991 
L 268.312808 115.608638 
L 268.478448 114.797068 
L 269.704185 114.365581 
L 271.758122 114.461213 
L 272.155658 113.757217 
L 272.255042 113.376042 
L 272.321298 113.421653 
L 274.839027 115.020674 
L 276.13102 115.397723 
L 276.594812 115.210274 
L 278.350597 116.166951 
L 279.741973 116.713115 
L 280.13951 116.856588 
L 281.398374 117.567348 
L 281.564014 117.495991 
L 281.994678 117.646429 
L 283.220415 118.424456 
L 283.286671 118.164007 
L 283.352927 118.204571 
L 284.048615 118.504057 
L 285.30748 118.806963 
L 286.897625 119.627822 
L 287.924593 120.10976 
L 288.023977 119.656657 
L 288.156489 117.0268 
L 288.388385 113.968606 
L 288.487769 113.491927 
L 288.587153 113.550216 
L 288.885305 113.689616 
L 288.918433 113.602183 
L 289.183458 113.2137 
L 289.382226 113.303704 
L 289.614122 111.953985 
L 289.713506 111.998579 
L 290.243554 112.1166 
L 290.541706 112.063661 
L 291.469291 109.704522 
L 291.535547 109.747313 
L 292.430003 110.30383 
L 292.463131 110.227804 
L 292.827539 109.652965 
L 293.225075 109.887675 
L 294.119532 110.355403 
L 294.285172 110.426287 
L 295.444652 111.147968 
L 295.510908 111.031181 
L 295.941573 110.447022 
L 298.393046 111.304759 
L 298.459302 111.240269 
L 298.624942 111.092793 
L 298.856838 111.178596 
L 300.446983 112.00855 
L 301.043287 112.243389 
L 301.374567 112.204688 
L 301.772103 112.398085 
L 303.16348 113.120108 
L 303.82604 113.328144 
L 305.250545 113.427864 
L 305.614953 113.102994 
L 306.045617 111.453109 
L 306.244385 111.298297 
L 307.403866 111.514912 
L 307.768274 109.415714 
L 308.463962 109.065112 
L 309.954723 109.638765 
L 310.252875 109.260095 
L 310.683539 109.186746 
L 312.969372 110.101867 
L 313.16814 110.13253 
L 313.234396 109.921007 
L 313.400036 109.647202 
L 313.698189 109.534673 
L 314.327621 109.783789 
L 316.812222 110.749107 
L 317.276014 110.890857 
L 320.721328 111.54465 
L 322.245216 112.055959 
L 322.675881 111.692669 
L 324.133513 112.296252 
L 325.756786 113.046338 
L 328.075747 113.928545 
L 329.997172 114.520197 
L 330.725988 114.695023 
L 332.548029 115.553973 
L 333.70751 115.903862 
L 334.336942 116.087632 
L 335.52955 116.403913 
L 336.523391 116.800136 
L 338.511072 117.260637 
L 339.670552 117.745663 
L 339.968704 116.969908 
L 340.068088 117.012724 
L 341.293825 117.424036 
L 341.923257 117.615629 
L 342.221409 116.390922 
L 343.04961 116.690665 
L 344.308474 117.011084 
L 345.964875 117.614782 
L 347.820044 118.325 
L 349.112036 118.525287 
L 349.708341 118.689668 
L 350.172133 118.591856 
L 350.370901 118.615577 
L 351.961046 119.093692 
L 352.126686 119.073465 
L 352.292326 119.086705 
L 355.538871 120.52998 
L 356.23456 120.690143 
L 357.692192 121.113226 
L 358.155984 121.232219 
L 358.686033 120.849613 
L 359.249209 121.047203 
L 360.276177 121.31866 
L 361.303146 121.464955 
L 362.495754 121.844933 
L 363.754619 122.068322 
L 364.384051 121.80921 
L 364.582819 119.64766 
L 365.212252 119.549104 
L 365.7423 119.681621 
L 366.206092 119.772677 
L 366.504244 119.586945 
L 367.299317 119.728674 
L 367.696853 117.376767 
L 368.127517 114.997214 
L 368.359413 114.787223 
L 368.591309 114.786431 
L 368.756949 114.680395 
L 369.088229 114.235447 
L 369.121357 114.086855 
L 369.220741 114.120514 
L 369.452638 114.103404 
L 369.75079 114.101092 
L 370.380222 114.245668 
L 371.672215 114.319197 
L 371.937239 114.225217 
L 372.334775 114.324778 
L 372.964207 113.947759 
L 374.75312 114.62226 
L 374.951888 114.524908 
L 375.316296 112.829353 
L 375.647576 112.758342 
L 375.813216 112.740577 
L 377.204593 113.129378 
L 379.954218 114.00159 
L 380.881803 114.310258 
L 381.378723 114.226651 
L 383.300148 114.776393 
L 383.300148 114.776393 
" clip-path="url(#pcd2c7ae7f9)" style="fill: none; stroke: #1f77b4; stroke-width: 1.2; stroke-linecap: round"/>
   </g>
   <g id="line2d_16">
    <path d="M 58.645602 130.342271 
L 383.300148 130.342271 
L 383.300148 130.342271 
" clip-path="url(#pcd2c7ae7f9)" style="fill: none; stroke: #ff7f0e; stroke-width: 1.2; stroke-linecap: round"/>
   </g>
   <g id="patch_3">
    <path d="M 42.412875 261.216 
L 42.412875 32.186975 
" style="fill: none; stroke: #262626; stroke-linejoin: miter; stroke-linecap: square"/>
   </g>
   <g id="patch_4">
    <path d="M 58.612474 273.312 
L 389.892623 273.312 
" style="fill: none; stroke: #262626; stroke-linejoin: miter; stroke-linecap: square"/>
   </g>
   <g id="legend_1">
    <g id="line2d_17">
     <path d="M 262.428875 18.728 
L 271.228875 18.728 
L 280.028875 18.728 
" style="fill: none; stroke: #1f77b4; stroke-width: 1.2; stroke-linecap: round"/>
    </g>
    <g id="text_16">
     <!-- Sampling average of $\mathbb{V}[X_n]$ -->
     <g style="fill: #262626" transform="translate(287.068875 21.808) scale(0.088 -0.088)">
      <defs>
       <path id="ArialMT-53" d="M 288 1472 
L 859 1522 
Q 900 1178 1048 958 
Q 1197 738 1509 602 
Q 1822 466 2213 466 
Q 2559 466 2825 569 
Q 3091 672 3220 851 
Q 3350 1031 3350 1244 
Q 3350 1459 3225 1620 
Q 3100 1781 2813 1891 
Q 2628 1963 1997 2114 
Q 1366 2266 1113 2400 
Q 784 2572 623 2826 
Q 463 3081 463 3397 
Q 463 3744 659 4045 
Q 856 4347 1234 4503 
Q 1613 4659 2075 4659 
Q 2584 4659 2973 4495 
Q 3363 4331 3572 4012 
Q 3781 3694 3797 3291 
L 3216 3247 
Q 3169 3681 2898 3903 
Q 2628 4125 2100 4125 
Q 1550 4125 1298 3923 
Q 1047 3722 1047 3438 
Q 1047 3191 1225 3031 
Q 1400 2872 2139 2705 
Q 2878 2538 3153 2413 
Q 3553 2228 3743 1945 
Q 3934 1663 3934 1294 
Q 3934 928 3725 604 
Q 3516 281 3123 101 
Q 2731 -78 2241 -78 
Q 1619 -78 1198 103 
Q 778 284 539 648 
Q 300 1013 288 1472 
z
" transform="scale(0.015625)"/>
       <path id="ArialMT-61" d="M 2588 409 
Q 2275 144 1986 34 
Q 1697 -75 1366 -75 
Q 819 -75 525 192 
Q 231 459 231 875 
Q 231 1119 342 1320 
Q 453 1522 633 1644 
Q 813 1766 1038 1828 
Q 1203 1872 1538 1913 
Q 2219 1994 2541 2106 
Q 2544 2222 2544 2253 
Q 2544 2597 2384 2738 
Q 2169 2928 1744 2928 
Q 1347 2928 1158 2789 
Q 969 2650 878 2297 
L 328 2372 
Q 403 2725 575 2942 
Q 747 3159 1072 3276 
Q 1397 3394 1825 3394 
Q 2250 3394 2515 3294 
Q 2781 3194 2906 3042 
Q 3031 2891 3081 2659 
Q 3109 2516 3109 2141 
L 3109 1391 
Q 3109 606 3145 398 
Q 3181 191 3288 0 
L 2700 0 
Q 2613 175 2588 409 
z
M 2541 1666 
Q 2234 1541 1622 1453 
Q 1275 1403 1131 1340 
Q 988 1278 909 1158 
Q 831 1038 831 891 
Q 831 666 1001 516 
Q 1172 366 1500 366 
Q 1825 366 2078 508 
Q 2331 650 2450 897 
Q 2541 1088 2541 1459 
L 2541 1666 
z
" transform="scale(0.015625)"/>
       <path id="ArialMT-6d" d="M 422 0 
L 422 3319 
L 925 3319 
L 925 2853 
Q 1081 3097 1340 3245 
Q 1600 3394 1931 3394 
Q 2300 3394 2536 3241 
Q 2772 3088 2869 2813 
Q 3263 3394 3894 3394 
Q 4388 3394 4653 3120 
Q 4919 2847 4919 2278 
L 4919 0 
L 4359 0 
L 4359 2091 
Q 4359 2428 4304 2576 
Q 4250 2725 4106 2815 
Q 3963 2906 3769 2906 
Q 3419 2906 3187 2673 
Q 2956 2441 2956 1928 
L 2956 0 
L 2394 0 
L 2394 2156 
Q 2394 2531 2256 2718 
Q 2119 2906 1806 2906 
Q 1569 2906 1367 2781 
Q 1166 2656 1075 2415 
Q 984 2175 984 1722 
L 984 0 
L 422 0 
z
" transform="scale(0.015625)"/>
       <path id="ArialMT-70" d="M 422 -1272 
L 422 3319 
L 934 3319 
L 934 2888 
Q 1116 3141 1344 3267 
Q 1572 3394 1897 3394 
Q 2322 3394 2647 3175 
Q 2972 2956 3137 2557 
Q 3303 2159 3303 1684 
Q 3303 1175 3120 767 
Q 2938 359 2589 142 
Q 2241 -75 1856 -75 
Q 1575 -75 1351 44 
Q 1128 163 984 344 
L 984 -1272 
L 422 -1272 
z
M 931 1641 
Q 931 1000 1190 694 
Q 1450 388 1819 388 
Q 2194 388 2461 705 
Q 2728 1022 2728 1688 
Q 2728 2322 2467 2637 
Q 2206 2953 1844 2953 
Q 1484 2953 1207 2617 
Q 931 2281 931 1641 
z
" transform="scale(0.015625)"/>
       <path id="ArialMT-6c" d="M 409 0 
L 409 4581 
L 972 4581 
L 972 0 
L 409 0 
z
" transform="scale(0.015625)"/>
       <path id="ArialMT-69" d="M 425 3934 
L 425 4581 
L 988 4581 
L 988 3934 
L 425 3934 
z
M 425 0 
L 425 3319 
L 988 3319 
L 988 0 
L 425 0 
z
" transform="scale(0.015625)"/>
       <path id="ArialMT-6e" d="M 422 0 
L 422 3319 
L 928 3319 
L 928 2847 
Q 1294 3394 1984 3394 
Q 2284 3394 2536 3286 
Q 2788 3178 2913 3003 
Q 3038 2828 3088 2588 
Q 3119 2431 3119 2041 
L 3119 0 
L 2556 0 
L 2556 2019 
Q 2556 2363 2490 2533 
Q 2425 2703 2258 2804 
Q 2091 2906 1866 2906 
Q 1506 2906 1245 2678 
Q 984 2450 984 1813 
L 984 0 
L 422 0 
z
" transform="scale(0.015625)"/>
       <path id="ArialMT-67" d="M 319 -275 
L 866 -356 
Q 900 -609 1056 -725 
Q 1266 -881 1628 -881 
Q 2019 -881 2231 -725 
Q 2444 -569 2519 -288 
Q 2563 -116 2559 434 
Q 2191 0 1641 0 
Q 956 0 581 494 
Q 206 988 206 1678 
Q 206 2153 378 2554 
Q 550 2956 876 3175 
Q 1203 3394 1644 3394 
Q 2231 3394 2613 2919 
L 2613 3319 
L 3131 3319 
L 3131 450 
Q 3131 -325 2973 -648 
Q 2816 -972 2473 -1159 
Q 2131 -1347 1631 -1347 
Q 1038 -1347 672 -1080 
Q 306 -813 319 -275 
z
M 784 1719 
Q 784 1066 1043 766 
Q 1303 466 1694 466 
Q 2081 466 2343 764 
Q 2606 1063 2606 1700 
Q 2606 2309 2336 2618 
Q 2066 2928 1684 2928 
Q 1309 2928 1046 2623 
Q 784 2319 784 1719 
z
" transform="scale(0.015625)"/>
       <path id="ArialMT-20" transform="scale(0.015625)"/>
       <path id="ArialMT-76" d="M 1344 0 
L 81 3319 
L 675 3319 
L 1388 1331 
Q 1503 1009 1600 663 
Q 1675 925 1809 1294 
L 2547 3319 
L 3125 3319 
L 1869 0 
L 1344 0 
z
" transform="scale(0.015625)"/>
       <path id="ArialMT-65" d="M 2694 1069 
L 3275 997 
Q 3138 488 2766 206 
Q 2394 -75 1816 -75 
Q 1088 -75 661 373 
Q 234 822 234 1631 
Q 234 2469 665 2931 
Q 1097 3394 1784 3394 
Q 2450 3394 2872 2941 
Q 3294 2488 3294 1666 
Q 3294 1616 3291 1516 
L 816 1516 
Q 847 969 1125 678 
Q 1403 388 1819 388 
Q 2128 388 2347 550 
Q 2566 713 2694 1069 
z
M 847 1978 
L 2700 1978 
Q 2663 2397 2488 2606 
Q 2219 2931 1791 2931 
Q 1403 2931 1139 2672 
Q 875 2413 847 1978 
z
" transform="scale(0.015625)"/>
       <path id="ArialMT-72" d="M 416 0 
L 416 3319 
L 922 3319 
L 922 2816 
Q 1116 3169 1280 3281 
Q 1444 3394 1641 3394 
Q 1925 3394 2219 3213 
L 2025 2691 
Q 1819 2813 1613 2813 
Q 1428 2813 1281 2702 
Q 1134 2591 1072 2394 
Q 978 2094 978 1738 
L 978 0 
L 416 0 
z
" transform="scale(0.015625)"/>
       <path id="ArialMT-6f" d="M 213 1659 
Q 213 2581 725 3025 
Q 1153 3394 1769 3394 
Q 2453 3394 2887 2945 
Q 3322 2497 3322 1706 
Q 3322 1066 3130 698 
Q 2938 331 2570 128 
Q 2203 -75 1769 -75 
Q 1072 -75 642 372 
Q 213 819 213 1659 
z
M 791 1659 
Q 791 1022 1069 705 
Q 1347 388 1769 388 
Q 2188 388 2466 706 
Q 2744 1025 2744 1678 
Q 2744 2294 2464 2611 
Q 2184 2928 1769 2928 
Q 1347 2928 1069 2612 
Q 791 2297 791 1659 
z
" transform="scale(0.015625)"/>
       <path id="ArialMT-66" d="M 556 0 
L 556 2881 
L 59 2881 
L 59 3319 
L 556 3319 
L 556 3672 
Q 556 4006 616 4169 
Q 697 4388 901 4523 
Q 1106 4659 1475 4659 
Q 1713 4659 2000 4603 
L 1916 4113 
Q 1741 4144 1584 4144 
Q 1328 4144 1222 4034 
Q 1116 3925 1116 3625 
L 1116 3319 
L 1763 3319 
L 1763 2881 
L 1116 2881 
L 1116 0 
L 556 0 
z
" transform="scale(0.015625)"/>
       <path id="STIXNonUnicode-Italic-e162" d="M 4339 4179 
L 1882 0 
L 934 0 
L 480 4179 
L 1453 4179 
L 1862 461 
L 1875 454 
L 4058 4179 
L 4339 4179 
z
M 1638 237 
L 1235 3942 
L 749 3942 
L 1152 237 
L 1638 237 
z
" transform="scale(0.015625)"/>
       <path id="DejaVuSans-5b" d="M 550 4863 
L 1875 4863 
L 1875 4416 
L 1125 4416 
L 1125 -397 
L 1875 -397 
L 1875 -844 
L 550 -844 
L 550 4863 
z
" transform="scale(0.015625)"/>
       <path id="DejaVuSans-Oblique-58" d="M 878 4666 
L 1516 4666 
L 2316 2981 
L 3763 4666 
L 4500 4666 
L 2578 2438 
L 3738 0 
L 3103 0 
L 2163 1966 
L 459 0 
L -275 0 
L 1906 2509 
L 878 4666 
z
" transform="scale(0.015625)"/>
       <path id="DejaVuSans-Oblique-6e" d="M 3566 2113 
L 3156 0 
L 2578 0 
L 2988 2091 
Q 3016 2238 3031 2350 
Q 3047 2463 3047 2528 
Q 3047 2791 2881 2937 
Q 2716 3084 2419 3084 
Q 1956 3084 1622 2776 
Q 1288 2469 1184 1941 
L 800 0 
L 225 0 
L 903 3500 
L 1478 3500 
L 1363 2950 
Q 1603 3253 1940 3418 
Q 2278 3584 2650 3584 
Q 3113 3584 3367 3334 
Q 3622 3084 3622 2631 
Q 3622 2519 3608 2391 
Q 3594 2263 3566 2113 
z
" transform="scale(0.015625)"/>
       <path id="DejaVuSans-5d" d="M 1947 4863 
L 1947 -844 
L 622 -844 
L 622 -397 
L 1369 -397 
L 1369 4416 
L 622 4416 
L 622 4863 
L 1947 4863 
z
" transform="scale(0.015625)"/>
      </defs>
      <use xlink:href="#ArialMT-53" transform="translate(0 0.015625)"/>
      <use xlink:href="#ArialMT-61" transform="translate(66.699219 0.015625)"/>
      <use xlink:href="#ArialMT-6d" transform="translate(122.314453 0.015625)"/>
      <use xlink:href="#ArialMT-70" transform="translate(205.615234 0.015625)"/>
      <use xlink:href="#ArialMT-6c" transform="translate(261.230469 0.015625)"/>
      <use xlink:href="#ArialMT-69" transform="translate(283.447266 0.015625)"/>
      <use xlink:href="#ArialMT-6e" transform="translate(305.664062 0.015625)"/>
      <use xlink:href="#ArialMT-67" transform="translate(361.279297 0.015625)"/>
      <use xlink:href="#ArialMT-20" transform="translate(416.894531 0.015625)"/>
      <use xlink:href="#ArialMT-61" transform="translate(444.677734 0.015625)"/>
      <use xlink:href="#ArialMT-76" transform="translate(500.292969 0.015625)"/>
      <use xlink:href="#ArialMT-65" transform="translate(550.292969 0.015625)"/>
      <use xlink:href="#ArialMT-72" transform="translate(605.908203 0.015625)"/>
      <use xlink:href="#ArialMT-61" transform="translate(639.208984 0.015625)"/>
      <use xlink:href="#ArialMT-67" transform="translate(694.824219 0.015625)"/>
      <use xlink:href="#ArialMT-65" transform="translate(750.439453 0.015625)"/>
      <use xlink:href="#ArialMT-20" transform="translate(806.054688 0.015625)"/>
      <use xlink:href="#ArialMT-6f" transform="translate(833.837891 0.015625)"/>
      <use xlink:href="#ArialMT-66" transform="translate(889.453125 0.015625)"/>
      <use xlink:href="#ArialMT-20" transform="translate(917.236328 0.015625)"/>
      <use xlink:href="#STIXNonUnicode-Italic-e162" transform="translate(945.019531 0.015625)"/>
      <use xlink:href="#DejaVuSans-5b" transform="translate(994.219528 0.015625)"/>
      <use xlink:href="#DejaVuSans-Oblique-58" transform="translate(1033.2332 0.015625)"/>
      <use xlink:href="#DejaVuSans-Oblique-6e" transform="translate(1101.739059 -16.390625) scale(0.7)"/>
      <use xlink:href="#DejaVuSans-5d" transform="translate(1148.838669 0.015625)"/>
     </g>
    </g>
    <g id="line2d_18">
     <path d="M 262.428875 31.499 
L 271.228875 31.499 
L 280.028875 31.499 
" style="fill: none; stroke: #ff7f0e; stroke-width: 1.2; stroke-linecap: round"/>
    </g>
    <g id="text_17">
     <!-- True $\mathbb{V}[X_n]$ -->
     <g style="fill: #262626" transform="translate(287.068875 34.579) scale(0.088 -0.088)">
      <defs>
       <path id="ArialMT-54" d="M 1659 0 
L 1659 4041 
L 150 4041 
L 150 4581 
L 3781 4581 
L 3781 4041 
L 2266 4041 
L 2266 0 
L 1659 0 
z
" transform="scale(0.015625)"/>
       <path id="ArialMT-75" d="M 2597 0 
L 2597 488 
Q 2209 -75 1544 -75 
Q 1250 -75 995 37 
Q 741 150 617 320 
Q 494 491 444 738 
Q 409 903 409 1263 
L 409 3319 
L 972 3319 
L 972 1478 
Q 972 1038 1006 884 
Q 1059 663 1231 536 
Q 1403 409 1656 409 
Q 1909 409 2131 539 
Q 2353 669 2445 892 
Q 2538 1116 2538 1541 
L 2538 3319 
L 3100 3319 
L 3100 0 
L 2597 0 
z
" transform="scale(0.015625)"/>
      </defs>
      <use xlink:href="#ArialMT-54" transform="translate(0 0.015625)"/>
      <use xlink:href="#ArialMT-72" transform="translate(61.083984 0.015625)"/>
      <use xlink:href="#ArialMT-75" transform="translate(94.384766 0.015625)"/>
      <use xlink:href="#ArialMT-65" transform="translate(150 0.015625)"/>
      <use xlink:href="#ArialMT-20" transform="translate(205.615234 0.015625)"/>
      <use xlink:href="#STIXNonUnicode-Italic-e162" transform="translate(233.398438 0.015625)"/>
      <use xlink:href="#DejaVuSans-5b" transform="translate(282.598434 0.015625)"/>
      <use xlink:href="#DejaVuSans-Oblique-58" transform="translate(321.612106 0.015625)"/>
      <use xlink:href="#DejaVuSans-Oblique-6e" transform="translate(390.117966 -16.390625) scale(0.7)"/>
      <use xlink:href="#DejaVuSans-5d" transform="translate(437.217575 0.015625)"/>
     </g>
    </g>
   </g>
  </g>
 </g>
 <defs>
  <clipPath id="pcd2c7ae7f9">
   <rect x="42.412875" y="7.2" width="357.12" height="266.112"/>
  </clipPath>
 </defs>
</svg>