<?xml version="1.0" encoding="utf-8" standalone="no"?>
<!DOCTYPE svg PUBLIC "-//W3C//DTD SVG 1.1//EN"
  "http://www.w3.org/Graphics/SVG/1.1/DTD/svg11.dtd">
<svg xmlns:xlink="http://www.w3.org/1999/xlink" width="445.848625pt" height="322.510875pt" viewBox="0 0 445.848625 322.510875" xmlns="http://www.w3.org/2000/svg" version="1.1">
 <metadata>
  <rdf:RDF xmlns:dc="http://purl.org/dc/elements/1.1/" xmlns:cc="http://creativecommons.org/ns#" xmlns:rdf="http://www.w3.org/1999/02/22-rdf-syntax-ns#">
   <cc:Work>
    <dc:type rdf:resource="http://purl.org/dc/dcmitype/StillImage"/>
    <dc:date>2023-10-23T15:19:21.977953</dc:date>
    <dc:format>image/svg+xml</dc:format>
    <dc:creator>
     <cc:Agent>
      <dc:title>Matplotlib v3.8.0, https://matplotlib.org/</dc:title>
     </cc:Agent>
    </dc:creator>
   </cc:Work>
  </rdf:RDF>
 </metadata>
 <defs>
  <style type="text/css">*{stroke-linejoin: round; stroke-linecap: butt}</style>
 </defs>
 <g id="figure_1">
  <g id="patch_1">
   <path d="M 0 322.510875 
L 445.848625 322.510875 
L 445.848625 0 
L 0 0 
z
" style="fill: #ffffff"/>
  </g>
  <g id="axes_1">
   <g id="patch_2">
    <path d="M 38.312875 286.1835 
L 395.432875 286.1835 
L 395.432875 20.0715 
L 38.312875 20.0715 
z
" style="fill: #ffffff"/>
   </g>
   <g id="matplotlib.axis_1">
    <g id="xtick_1">
     <g id="line2d_1">
      <defs>
       <path id="md2aa229cac" d="M 0 0 
L 0 4.8 
" style="stroke: #262626"/>
      </defs>
      <g>
       <use xlink:href="#md2aa229cac" x="54.545602" y="286.1835" style="fill: #262626; stroke: #262626"/>
      </g>
     </g>
     <g id="text_1">
      <!-- 0.0 -->
      <g style="fill: #262626" transform="translate(48.429602 300.782375) scale(0.088 -0.088)">
       <defs>
        <path id="ArialMT-30" d="M 266 2259 
Q 266 3072 433 3567 
Q 600 4063 929 4331 
Q 1259 4600 1759 4600 
Q 2128 4600 2406 4451 
Q 2684 4303 2865 4023 
Q 3047 3744 3150 3342 
Q 3253 2941 3253 2259 
Q 3253 1453 3087 958 
Q 2922 463 2592 192 
Q 2263 -78 1759 -78 
Q 1097 -78 719 397 
Q 266 969 266 2259 
z
M 844 2259 
Q 844 1131 1108 757 
Q 1372 384 1759 384 
Q 2147 384 2411 759 
Q 2675 1134 2675 2259 
Q 2675 3391 2411 3762 
Q 2147 4134 1753 4134 
Q 1366 4134 1134 3806 
Q 844 3388 844 2259 
z
" transform="scale(0.015625)"/>
        <path id="ArialMT-2e" d="M 581 0 
L 581 641 
L 1222 641 
L 1222 0 
L 581 0 
z
" transform="scale(0.015625)"/>
       </defs>
       <use xlink:href="#ArialMT-30"/>
       <use xlink:href="#ArialMT-2e" x="55.615234"/>
       <use xlink:href="#ArialMT-30" x="83.398438"/>
      </g>
     </g>
    </g>
    <g id="xtick_2">
     <g id="line2d_2">
      <g>
       <use xlink:href="#md2aa229cac" x="119.476511" y="286.1835" style="fill: #262626; stroke: #262626"/>
      </g>
     </g>
     <g id="text_2">
      <!-- 0.2 -->
      <g style="fill: #262626" transform="translate(113.360511 300.782375) scale(0.088 -0.088)">
       <defs>
        <path id="ArialMT-32" d="M 3222 541 
L 3222 0 
L 194 0 
Q 188 203 259 391 
Q 375 700 629 1000 
Q 884 1300 1366 1694 
Q 2113 2306 2375 2664 
Q 2638 3022 2638 3341 
Q 2638 3675 2398 3904 
Q 2159 4134 1775 4134 
Q 1369 4134 1125 3890 
Q 881 3647 878 3216 
L 300 3275 
Q 359 3922 746 4261 
Q 1134 4600 1788 4600 
Q 2447 4600 2831 4234 
Q 3216 3869 3216 3328 
Q 3216 3053 3103 2787 
Q 2991 2522 2730 2228 
Q 2469 1934 1863 1422 
Q 1356 997 1212 845 
Q 1069 694 975 541 
L 3222 541 
z
" transform="scale(0.015625)"/>
       </defs>
       <use xlink:href="#ArialMT-30"/>
       <use xlink:href="#ArialMT-2e" x="55.615234"/>
       <use xlink:href="#ArialMT-32" x="83.398438"/>
      </g>
     </g>
    </g>
    <g id="xtick_3">
     <g id="line2d_3">
      <g>
       <use xlink:href="#md2aa229cac" x="184.40742" y="286.1835" style="fill: #262626; stroke: #262626"/>
      </g>
     </g>
     <g id="text_3">
      <!-- 0.4 -->
      <g style="fill: #262626" transform="translate(178.29142 300.782375) scale(0.088 -0.088)">
       <defs>
        <path id="ArialMT-34" d="M 2069 0 
L 2069 1097 
L 81 1097 
L 81 1613 
L 2172 4581 
L 2631 4581 
L 2631 1613 
L 3250 1613 
L 3250 1097 
L 2631 1097 
L 2631 0 
L 2069 0 
z
M 2069 1613 
L 2069 3678 
L 634 1613 
L 2069 1613 
z
" transform="scale(0.015625)"/>
       </defs>
       <use xlink:href="#ArialMT-30"/>
       <use xlink:href="#ArialMT-2e" x="55.615234"/>
       <use xlink:href="#ArialMT-34" x="83.398438"/>
      </g>
     </g>
    </g>
    <g id="xtick_4">
     <g id="line2d_4">
      <g>
       <use xlink:href="#md2aa229cac" x="249.33833" y="286.1835" style="fill: #262626; stroke: #262626"/>
      </g>
     </g>
     <g id="text_4">
      <!-- 0.6 -->
      <g style="fill: #262626" transform="translate(243.22233 300.782375) scale(0.088 -0.088)">
       <defs>
        <path id="ArialMT-36" d="M 3184 3459 
L 2625 3416 
Q 2550 3747 2413 3897 
Q 2184 4138 1850 4138 
Q 1581 4138 1378 3988 
Q 1113 3794 959 3422 
Q 806 3050 800 2363 
Q 1003 2672 1297 2822 
Q 1591 2972 1913 2972 
Q 2475 2972 2870 2558 
Q 3266 2144 3266 1488 
Q 3266 1056 3080 686 
Q 2894 316 2569 119 
Q 2244 -78 1831 -78 
Q 1128 -78 684 439 
Q 241 956 241 2144 
Q 241 3472 731 4075 
Q 1159 4600 1884 4600 
Q 2425 4600 2770 4297 
Q 3116 3994 3184 3459 
z
M 888 1484 
Q 888 1194 1011 928 
Q 1134 663 1356 523 
Q 1578 384 1822 384 
Q 2178 384 2434 671 
Q 2691 959 2691 1453 
Q 2691 1928 2437 2201 
Q 2184 2475 1800 2475 
Q 1419 2475 1153 2201 
Q 888 1928 888 1484 
z
" transform="scale(0.015625)"/>
       </defs>
       <use xlink:href="#ArialMT-30"/>
       <use xlink:href="#ArialMT-2e" x="55.615234"/>
       <use xlink:href="#ArialMT-36" x="83.398438"/>
      </g>
     </g>
    </g>
    <g id="xtick_5">
     <g id="line2d_5">
      <g>
       <use xlink:href="#md2aa229cac" x="314.269239" y="286.1835" style="fill: #262626; stroke: #262626"/>
      </g>
     </g>
     <g id="text_5">
      <!-- 0.8 -->
      <g style="fill: #262626" transform="translate(308.153239 300.782375) scale(0.088 -0.088)">
       <defs>
        <path id="ArialMT-38" d="M 1131 2484 
Q 781 2613 612 2850 
Q 444 3088 444 3419 
Q 444 3919 803 4259 
Q 1163 4600 1759 4600 
Q 2359 4600 2725 4251 
Q 3091 3903 3091 3403 
Q 3091 3084 2923 2848 
Q 2756 2613 2416 2484 
Q 2838 2347 3058 2040 
Q 3278 1734 3278 1309 
Q 3278 722 2862 322 
Q 2447 -78 1769 -78 
Q 1091 -78 675 323 
Q 259 725 259 1325 
Q 259 1772 486 2073 
Q 713 2375 1131 2484 
z
M 1019 3438 
Q 1019 3113 1228 2906 
Q 1438 2700 1772 2700 
Q 2097 2700 2305 2904 
Q 2513 3109 2513 3406 
Q 2513 3716 2298 3927 
Q 2084 4138 1766 4138 
Q 1444 4138 1231 3931 
Q 1019 3725 1019 3438 
z
M 838 1322 
Q 838 1081 952 856 
Q 1066 631 1291 507 
Q 1516 384 1775 384 
Q 2178 384 2440 643 
Q 2703 903 2703 1303 
Q 2703 1709 2433 1975 
Q 2163 2241 1756 2241 
Q 1359 2241 1098 1978 
Q 838 1716 838 1322 
z
" transform="scale(0.015625)"/>
       </defs>
       <use xlink:href="#ArialMT-30"/>
       <use xlink:href="#ArialMT-2e" x="55.615234"/>
       <use xlink:href="#ArialMT-38" x="83.398438"/>
      </g>
     </g>
    </g>
    <g id="xtick_6">
     <g id="line2d_6">
      <g>
       <use xlink:href="#md2aa229cac" x="379.200148" y="286.1835" style="fill: #262626; stroke: #262626"/>
      </g>
     </g>
     <g id="text_6">
      <!-- 1.0 -->
      <g style="fill: #262626" transform="translate(373.084148 300.782375) scale(0.088 -0.088)">
       <defs>
        <path id="ArialMT-31" d="M 2384 0 
L 1822 0 
L 1822 3584 
Q 1619 3391 1289 3197 
Q 959 3003 697 2906 
L 697 3450 
Q 1169 3672 1522 3987 
Q 1875 4303 2022 4600 
L 2384 4600 
L 2384 0 
z
" transform="scale(0.015625)"/>
       </defs>
       <use xlink:href="#ArialMT-31"/>
       <use xlink:href="#ArialMT-2e" x="55.615234"/>
       <use xlink:href="#ArialMT-30" x="83.398438"/>
      </g>
     </g>
    </g>
    <g id="text_7">
     <!-- $x$ -->
     <g style="fill: #262626" transform="translate(213.992875 313.402875) scale(0.096 -0.096)">
      <defs>
       <path id="DejaVuSans-Oblique-78" d="M 3841 3500 
L 2234 1784 
L 3219 0 
L 2559 0 
L 1819 1388 
L 531 0 
L -166 0 
L 1556 1844 
L 641 3500 
L 1300 3500 
L 1972 2234 
L 3144 3500 
L 3841 3500 
z
" transform="scale(0.015625)"/>
      </defs>
      <use xlink:href="#DejaVuSans-Oblique-78" transform="translate(0 0.3125)"/>
     </g>
    </g>
   </g>
   <g id="matplotlib.axis_2">
    <g id="ytick_1">
     <g id="line2d_7">
      <defs>
       <path id="m53b946ca96" d="M 0 0 
L -4.8 0 
" style="stroke: #262626"/>
      </defs>
      <g>
       <use xlink:href="#m53b946ca96" x="38.312875" y="247.307017" style="fill: #262626; stroke: #262626"/>
      </g>
     </g>
     <g id="text_8">
      <!-- −8 -->
      <g style="fill: #262626" transform="translate(19.9795 250.456455) scale(0.088 -0.088)">
       <defs>
        <path id="ArialMT-2212" d="M 3381 1997 
L 356 1997 
L 356 2522 
L 3381 2522 
L 3381 1997 
z
" transform="scale(0.015625)"/>
       </defs>
       <use xlink:href="#ArialMT-2212"/>
       <use xlink:href="#ArialMT-38" x="58.398438"/>
      </g>
     </g>
    </g>
    <g id="ytick_2">
     <g id="line2d_8">
      <g>
       <use xlink:href="#m53b946ca96" x="38.312875" y="201.531514" style="fill: #262626; stroke: #262626"/>
      </g>
     </g>
     <g id="text_9">
      <!-- −6 -->
      <g style="fill: #262626" transform="translate(19.9795 204.680951) scale(0.088 -0.088)">
       <use xlink:href="#ArialMT-2212"/>
       <use xlink:href="#ArialMT-36" x="58.398438"/>
      </g>
     </g>
    </g>
    <g id="ytick_3">
     <g id="line2d_9">
      <g>
       <use xlink:href="#m53b946ca96" x="38.312875" y="155.756011" style="fill: #262626; stroke: #262626"/>
      </g>
     </g>
     <g id="text_10">
      <!-- −4 -->
      <g style="fill: #262626" transform="translate(19.9795 158.905448) scale(0.088 -0.088)">
       <use xlink:href="#ArialMT-2212"/>
       <use xlink:href="#ArialMT-34" x="58.398438"/>
      </g>
     </g>
    </g>
    <g id="ytick_4">
     <g id="line2d_10">
      <g>
       <use xlink:href="#m53b946ca96" x="38.312875" y="109.980507" style="fill: #262626; stroke: #262626"/>
      </g>
     </g>
     <g id="text_11">
      <!-- −2 -->
      <g style="fill: #262626" transform="translate(19.9795 113.129945) scale(0.088 -0.088)">
       <use xlink:href="#ArialMT-2212"/>
       <use xlink:href="#ArialMT-32" x="58.398438"/>
      </g>
     </g>
    </g>
    <g id="ytick_5">
     <g id="line2d_11">
      <g>
       <use xlink:href="#m53b946ca96" x="38.312875" y="64.205004" style="fill: #262626; stroke: #262626"/>
      </g>
     </g>
     <g id="text_12">
      <!-- 0 -->
      <g style="fill: #262626" transform="translate(25.11925 67.354442) scale(0.088 -0.088)">
       <use xlink:href="#ArialMT-30"/>
      </g>
     </g>
    </g>
    <g id="text_13">
     <!-- $y$ -->
     <g style="fill: #262626" transform="translate(13.9635 156.0075) rotate(-90) scale(0.096 -0.096)">
      <defs>
       <path id="DejaVuSans-Oblique-79" d="M 1588 -325 
Q 1188 -997 936 -1164 
Q 684 -1331 294 -1331 
L -159 -1331 
L -63 -850 
L 269 -850 
Q 509 -850 678 -719 
Q 847 -588 1056 -206 
L 1234 128 
L 459 3500 
L 1069 3500 
L 1650 819 
L 3256 3500 
L 3859 3500 
L 1588 -325 
z
" transform="scale(0.015625)"/>
      </defs>
      <use xlink:href="#DejaVuSans-Oblique-79" transform="translate(0 0.3125)"/>
     </g>
    </g>
   </g>
   <g id="PolyCollection_1">
    <defs>
     <path id="m6c7a953c39" d="M 54.545602 -202.61598 
L 54.545602 -149.964505 
L 57.824941 -152.266101 
L 61.10428 -154.658053 
L 64.383619 -157.182802 
L 67.662958 -159.89051 
L 70.942296 -162.828814 
L 74.221636 -166.033849 
L 77.500973 -169.525037 
L 80.780313 -173.30468 
L 84.059653 -177.359294 
L 87.33899 -181.662545 
L 90.61833 -186.179515 
L 93.89767 -190.869669 
L 97.177007 -195.689368 
L 100.456344 -200.594479 
L 103.735686 -205.540396 
L 107.015024 -210.483028 
L 110.294361 -215.377845 
L 113.573703 -220.17817 
L 116.853041 -224.834254 
L 120.132378 -229.290103 
L 123.41172 -233.481434 
L 126.691057 -237.330813 
L 129.970395 -240.743635 
L 133.249737 -243.603848 
L 136.529069 -245.774185 
L 139.808412 -247.111618 
L 143.087754 -247.506355 
L 146.367086 -246.930345 
L 149.646428 -245.453988 
L 152.92577 -243.211485 
L 156.205103 -240.350553 
L 159.484445 -237.000372 
L 162.763787 -233.261618 
L 166.04312 -229.206215 
L 169.322462 -224.879548 
L 172.601804 -220.303238 
L 175.881137 -215.477296 
L 179.160479 -210.38266 
L 182.439821 -204.985324 
L 185.719153 -199.242388 
L 188.998496 -193.110192 
L 192.277838 -186.55391 
L 195.55717 -179.556648 
L 198.836512 -172.126133 
L 202.115855 -164.297289 
L 205.395187 -156.130642 
L 208.674529 -147.70808 
L 211.953871 -139.126985 
L 215.233204 -130.494792 
L 218.512556 -121.924032 
L 221.791879 -113.52883 
L 225.071221 -105.421173 
L 228.350563 -97.709171 
L 231.629886 -90.494463 
L 234.909247 -83.870277 
L 238.18857 -77.919903 
L 241.467912 -72.714305 
L 244.747254 -68.310571 
L 248.026597 -64.749639 
L 251.305939 -62.054166 
L 254.585262 -60.226094 
L 257.864623 -59.244513 
L 261.143946 -59.063673 
L 264.423288 -59.612677 
L 267.70263 -60.797996 
L 270.981953 -62.511975 
L 274.261315 -64.649015 
L 277.540637 -67.128134 
L 280.81998 -69.913754 
L 284.099322 -73.022858 
L 287.378664 -76.513025 
L 290.658006 -80.458754 
L 293.937329 -84.927359 
L 297.21669 -89.963576 
L 300.496013 -95.581997 
L 303.775355 -101.767529 
L 307.054697 -108.476701 
L 310.33402 -115.642994 
L 313.613382 -123.180224 
L 316.892705 -130.988191 
L 320.172047 -138.956261 
L 323.451389 -146.968315 
L 326.730731 -154.906307 
L 330.010073 -162.654805 
L 333.289396 -170.103633 
L 336.568738 -177.151764 
L 339.84808 -183.709421 
L 343.127423 -189.699018 
L 346.406765 -195.05635 
L 349.686088 -199.727913 
L 352.96543 -203.670372 
L 356.244772 -206.843867 
L 359.524114 -209.210045 
L 362.803456 -210.729673 
L 366.082798 -211.368175 
L 369.362141 -211.108598 
L 372.641463 -209.967344 
L 375.920806 -208.003347 
L 379.200148 -205.315137 
L 379.200148 -249.045014 
L 379.200148 -249.045014 
L 375.920806 -248.052296 
L 372.641463 -247.351872 
L 369.362141 -246.908351 
L 366.082798 -246.650697 
L 362.803456 -246.472131 
L 359.524114 -246.241218 
L 356.244772 -245.823847 
L 352.96543 -245.097014 
L 349.686088 -243.958772 
L 346.406765 -242.328794 
L 343.127423 -240.145975 
L 339.84808 -237.366659 
L 336.568738 -233.962471 
L 333.289396 -229.919064 
L 330.010073 -225.235977 
L 326.730731 -219.927146 
L 323.451389 -214.020829 
L 320.172047 -207.56056 
L 316.892705 -200.605567 
L 313.613382 -193.230876 
L 310.33402 -185.527343 
L 307.054697 -177.602523 
L 303.775355 -169.579338 
L 300.496013 -161.59745 
L 297.21669 -153.813155 
L 293.937329 -146.398487 
L 290.658006 -139.541259 
L 287.378664 -133.439982 
L 284.099322 -128.294736 
L 280.81998 -124.288732 
L 277.540637 -121.563115 
L 274.261315 -120.191772 
L 270.981953 -120.169169 
L 267.70263 -121.418137 
L 264.423288 -123.811387 
L 261.143946 -127.195484 
L 257.864623 -131.409482 
L 254.585262 -136.295385 
L 251.305939 -141.703968 
L 248.026597 -147.497238 
L 244.747254 -153.549796 
L 241.467912 -159.749614 
L 238.18857 -165.99899 
L 234.909247 -172.215135 
L 231.629886 -178.331026 
L 228.350563 -184.295587 
L 225.071221 -190.074069 
L 221.791879 -195.647536 
L 218.512556 -201.012322 
L 215.233204 -206.178631 
L 211.953871 -211.16829 
L 208.674529 -216.011801 
L 205.395187 -220.744017 
L 202.115855 -225.398652 
L 198.836512 -230.001954 
L 195.55717 -234.56576 
L 192.277838 -239.082025 
L 188.998496 -243.520235 
L 185.719153 -247.828414 
L 182.439821 -251.939109 
L 179.160479 -255.777458 
L 175.881137 -259.269862 
L 172.601804 -262.351708 
L 169.322462 -264.973123 
L 166.04312 -267.103098 
L 162.763787 -268.732033 
L 159.484445 -269.87462 
L 156.205103 -270.573008 
L 152.92577 -270.900009 
L 149.646428 -270.959954 
L 146.367086 -270.879528 
L 143.087754 -270.777152 
L 139.808412 -270.71384 
L 136.529069 -270.659564 
L 133.249737 -270.511029 
L 129.970395 -270.141301 
L 126.691057 -269.439341 
L 123.41172 -268.325985 
L 120.132378 -266.754625 
L 116.853041 -264.706886 
L 113.573703 -262.188066 
L 110.294361 -259.222387 
L 107.015024 -255.849595 
L 103.735686 -252.120809 
L 100.456344 -248.09669 
L 97.177007 -243.843626 
L 93.89767 -239.431532 
L 90.61833 -234.932906 
L 87.33899 -230.420782 
L 84.059653 -225.969606 
L 80.780313 -221.655343 
L 77.500973 -217.557052 
L 74.221636 -213.759166 
L 70.942296 -210.35274 
L 67.662958 -207.43502 
L 64.383619 -205.108333 
L 61.10428 -203.473401 
L 57.824941 -202.620024 
L 54.545602 -202.61598 
z
" style="stroke: #1f77b4; stroke-opacity: 0.5; stroke-width: 0.8"/>
    </defs>
    <g clip-path="url(#pe2544b05ce)">
     <use xlink:href="#m6c7a953c39" x="0" y="322.510875" style="fill: #1f77b4; fill-opacity: 0.5; stroke: #1f77b4; stroke-opacity: 0.5; stroke-width: 0.8"/>
    </g>
   </g>
   <g id="PolyCollection_2">
    <defs>
     <path id="m35540baa69" d="M 54.545602 -149.964505 
L 54.545602 -137.159654 
L 57.824941 -139.075909 
L 61.10428 -141.198946 
L 64.383619 -143.564017 
L 67.662958 -146.2024 
L 70.942296 -149.136938 
L 74.221636 -152.378709 
L 77.500973 -155.925519 
L 80.780313 -159.762568 
L 84.059653 -163.863664 
L 87.33899 -168.193283 
L 90.61833 -172.709385 
L 93.89767 -177.365384 
L 97.177007 -182.111924 
L 100.456344 -186.898642 
L 103.735686 -191.674278 
L 107.015024 -196.387378 
L 110.294361 -200.985594 
L 113.573703 -205.414883 
L 116.853041 -209.61925 
L 120.132378 -213.539669 
L 123.41172 -217.114743 
L 126.691057 -220.280726 
L 129.970395 -222.973801 
L 133.249737 -225.133189 
L 136.529069 -226.705304 
L 139.808412 -227.648935 
L 143.087754 -227.940132 
L 146.367086 -227.575245 
L 149.646428 -226.571591 
L 152.92577 -224.964902 
L 156.205103 -222.804349 
L 159.484445 -220.145789 
L 162.763787 -217.045443 
L 166.04312 -213.554048 
L 169.322462 -209.712246 
L 172.601804 -205.54791 
L 175.881137 -201.074738 
L 179.160479 -196.292417 
L 182.439821 -191.18859 
L 185.719153 -185.742425 
L 188.998496 -179.929647 
L 192.277838 -173.728847 
L 195.55717 -167.128016 
L 198.836512 -160.130426 
L 202.115855 -152.758747 
L 205.395187 -145.056688 
L 208.674529 -137.088213 
L 211.953871 -128.934587 
L 215.233204 -120.690409 
L 218.512556 -112.459012 
L 221.791879 -104.348462 
L 225.071221 -96.467144 
L 228.350563 -88.921086 
L 231.629886 -81.810703 
L 234.909247 -75.228294 
L 238.18857 -69.256137 
L 241.467912 -63.96396 
L 244.747254 -59.407455 
L 248.026597 -55.626415 
L 251.305939 -52.643082 
L 254.585262 -50.46123 
L 257.864623 -49.065735 
L 261.143946 -48.423375 
L 264.423288 -48.485561 
L 267.70263 -49.193164 
L 270.981953 -50.484149 
L 274.261315 -52.302966 
L 277.540637 -54.609605 
L 280.81998 -57.385774 
L 284.099322 -60.63501 
L 287.378664 -64.376892 
L 290.658006 -68.637656 
L 293.937329 -73.439304 
L 297.21669 -78.791376 
L 300.496013 -84.684506 
L 303.775355 -91.089033 
L 307.054697 -97.95354 
L 310.33402 -105.2077 
L 313.613382 -112.764029 
L 316.892705 -120.522119 
L 320.172047 -128.371929 
L 323.451389 -136.198209 
L 326.730731 -143.884138 
L 330.010073 -151.316061 
L 333.289396 -158.386478 
L 336.568738 -164.998234 
L 339.84808 -171.06737 
L 343.127423 -176.524809 
L 346.406765 -181.318386 
L 349.686088 -185.411887 
L 352.96543 -188.785937 
L 356.244772 -191.433734 
L 359.524114 -193.36016 
L 362.803456 -194.578269 
L 366.082798 -195.107034 
L 369.362141 -194.970787 
L 372.641463 -194.198618 
L 375.920806 -192.826424 
L 379.200148 -190.900134 
L 379.200148 -205.315137 
L 379.200148 -205.315137 
L 375.920806 -208.003347 
L 372.641463 -209.967344 
L 369.362141 -211.108598 
L 366.082798 -211.368175 
L 362.803456 -210.729673 
L 359.524114 -209.210045 
L 356.244772 -206.843867 
L 352.96543 -203.670372 
L 349.686088 -199.727913 
L 346.406765 -195.05635 
L 343.127423 -189.699018 
L 339.84808 -183.709421 
L 336.568738 -177.151764 
L 333.289396 -170.103633 
L 330.010073 -162.654805 
L 326.730731 -154.906307 
L 323.451389 -146.968315 
L 320.172047 -138.956261 
L 316.892705 -130.988191 
L 313.613382 -123.180224 
L 310.33402 -115.642994 
L 307.054697 -108.476701 
L 303.775355 -101.767529 
L 300.496013 -95.581997 
L 297.21669 -89.963576 
L 293.937329 -84.927359 
L 290.658006 -80.458754 
L 287.378664 -76.513025 
L 284.099322 -73.022858 
L 280.81998 -69.913754 
L 277.540637 -67.128134 
L 274.261315 -64.649015 
L 270.981953 -62.511975 
L 267.70263 -60.797996 
L 264.423288 -59.612677 
L 261.143946 -59.063673 
L 257.864623 -59.244513 
L 254.585262 -60.226094 
L 251.305939 -62.054166 
L 248.026597 -64.749639 
L 244.747254 -68.310571 
L 241.467912 -72.714305 
L 238.18857 -77.919903 
L 234.909247 -83.870277 
L 231.629886 -90.494463 
L 228.350563 -97.709171 
L 225.071221 -105.421173 
L 221.791879 -113.52883 
L 218.512556 -121.924032 
L 215.233204 -130.494792 
L 211.953871 -139.126985 
L 208.674529 -147.70808 
L 205.395187 -156.130642 
L 202.115855 -164.297289 
L 198.836512 -172.126133 
L 195.55717 -179.556648 
L 192.277838 -186.55391 
L 188.998496 -193.110192 
L 185.719153 -199.242388 
L 182.439821 -204.985324 
L 179.160479 -210.38266 
L 175.881137 -215.477296 
L 172.601804 -220.303238 
L 169.322462 -224.879548 
L 166.04312 -229.206215 
L 162.763787 -233.261618 
L 159.484445 -237.000372 
L 156.205103 -240.350553 
L 152.92577 -243.211485 
L 149.646428 -245.453988 
L 146.367086 -246.930345 
L 143.087754 -247.506355 
L 139.808412 -247.111618 
L 136.529069 -245.774185 
L 133.249737 -243.603848 
L 129.970395 -240.743635 
L 126.691057 -237.330813 
L 123.41172 -233.481434 
L 120.132378 -229.290103 
L 116.853041 -224.834254 
L 113.573703 -220.17817 
L 110.294361 -215.377845 
L 107.015024 -210.483028 
L 103.735686 -205.540396 
L 100.456344 -200.594479 
L 97.177007 -195.689368 
L 93.89767 -190.869669 
L 90.61833 -186.179515 
L 87.33899 -181.662545 
L 84.059653 -177.359294 
L 80.780313 -173.30468 
L 77.500973 -169.525037 
L 74.221636 -166.033849 
L 70.942296 -162.828814 
L 67.662958 -159.89051 
L 64.383619 -157.182802 
L 61.10428 -154.658053 
L 57.824941 -152.266101 
L 54.545602 -149.964505 
z
" style="stroke: #ff7f0e; stroke-opacity: 0.5; stroke-width: 0.8"/>
    </defs>
    <g clip-path="url(#pe2544b05ce)">
     <use xlink:href="#m35540baa69" x="0" y="322.510875" style="fill: #ff7f0e; fill-opacity: 0.5; stroke: #ff7f0e; stroke-opacity: 0.5; stroke-width: 0.8"/>
    </g>
   </g>
   <g id="PolyCollection_3">
    <defs>
     <path id="m98aed90681" d="M 54.545602 -215.420834 
L 54.545602 -202.61598 
L 57.824941 -202.620024 
L 61.10428 -203.473401 
L 64.383619 -205.108333 
L 67.662958 -207.43502 
L 70.942296 -210.35274 
L 74.221636 -213.759166 
L 77.500973 -217.557052 
L 80.780313 -221.655343 
L 84.059653 -225.969606 
L 87.33899 -230.420782 
L 90.61833 -234.932906 
L 93.89767 -239.431532 
L 97.177007 -243.843626 
L 100.456344 -248.09669 
L 103.735686 -252.120809 
L 107.015024 -255.849595 
L 110.294361 -259.222387 
L 113.573703 -262.188066 
L 116.853041 -264.706886 
L 120.132378 -266.754625 
L 123.41172 -268.325985 
L 126.691057 -269.439341 
L 129.970395 -270.141301 
L 133.249737 -270.511029 
L 136.529069 -270.659564 
L 139.808412 -270.71384 
L 143.087754 -270.777152 
L 146.367086 -270.879528 
L 149.646428 -270.959954 
L 152.92577 -270.900009 
L 156.205103 -270.573008 
L 159.484445 -269.87462 
L 162.763787 -268.732033 
L 166.04312 -267.103098 
L 169.322462 -264.973123 
L 172.601804 -262.351708 
L 175.881137 -259.269862 
L 179.160479 -255.777458 
L 182.439821 -251.939109 
L 185.719153 -247.828414 
L 188.998496 -243.520235 
L 192.277838 -239.082025 
L 195.55717 -234.56576 
L 198.836512 -230.001954 
L 202.115855 -225.398652 
L 205.395187 -220.744017 
L 208.674529 -216.011801 
L 211.953871 -211.16829 
L 215.233204 -206.178631 
L 218.512556 -201.012322 
L 221.791879 -195.647536 
L 225.071221 -190.074069 
L 228.350563 -184.295587 
L 231.629886 -178.331026 
L 234.909247 -172.215135 
L 238.18857 -165.99899 
L 241.467912 -159.749614 
L 244.747254 -153.549796 
L 248.026597 -147.497238 
L 251.305939 -141.703968 
L 254.585262 -136.295385 
L 257.864623 -131.409482 
L 261.143946 -127.195484 
L 264.423288 -123.811387 
L 267.70263 -121.418137 
L 270.981953 -120.169169 
L 274.261315 -120.191772 
L 277.540637 -121.563115 
L 280.81998 -124.288732 
L 284.099322 -128.294736 
L 287.378664 -133.439982 
L 290.658006 -139.541259 
L 293.937329 -146.398487 
L 297.21669 -153.813155 
L 300.496013 -161.59745 
L 303.775355 -169.579338 
L 307.054697 -177.602523 
L 310.33402 -185.527343 
L 313.613382 -193.230876 
L 316.892705 -200.605567 
L 320.172047 -207.56056 
L 323.451389 -214.020829 
L 326.730731 -219.927146 
L 330.010073 -225.235977 
L 333.289396 -229.919064 
L 336.568738 -233.962471 
L 339.84808 -237.366659 
L 343.127423 -240.145975 
L 346.406765 -242.328794 
L 349.686088 -243.958772 
L 352.96543 -245.097014 
L 356.244772 -245.823847 
L 359.524114 -246.241218 
L 362.803456 -246.472131 
L 366.082798 -246.650697 
L 369.362141 -246.908351 
L 372.641463 -247.351872 
L 375.920806 -248.052296 
L 379.200148 -249.045014 
L 379.200148 -263.460017 
L 379.200148 -263.460017 
L 375.920806 -263.229216 
L 372.641463 -263.120591 
L 369.362141 -263.046162 
L 366.082798 -262.911836 
L 362.803456 -262.623534 
L 359.524114 -262.091105 
L 356.244772 -261.233978 
L 352.96543 -259.981451 
L 349.686088 -258.274797 
L 346.406765 -256.066755 
L 343.127423 -253.320184 
L 339.84808 -250.008707 
L 336.568738 -246.115998 
L 333.289396 -241.636223 
L 330.010073 -236.574718 
L 326.730731 -230.949312 
L 323.451389 -224.790943 
L 320.172047 -218.14489 
L 316.892705 -211.071638 
L 313.613382 -203.647077 
L 310.33402 -195.962637 
L 307.054697 -188.125684 
L 303.775355 -180.257834 
L 300.496013 -172.494941 
L 297.21669 -164.985356 
L 293.937329 -157.886542 
L 290.658006 -151.362357 
L 287.378664 -145.576116 
L 284.099322 -140.682584 
L 280.81998 -136.816712 
L 277.540637 -134.081633 
L 274.261315 -132.53782 
L 270.981953 -132.196995 
L 267.70263 -133.022968 
L 264.423288 -134.938503 
L 261.143946 -137.835782 
L 257.864623 -141.58826 
L 254.585262 -146.060249 
L 251.305939 -151.115052 
L 248.026597 -156.620473 
L 244.747254 -162.452901 
L 241.467912 -168.499975 
L 238.18857 -174.662768 
L 234.909247 -180.857118 
L 231.629886 -187.014781 
L 228.350563 -193.083666 
L 225.071221 -199.028091 
L 221.791879 -204.827904 
L 218.512556 -210.477337 
L 215.233204 -215.983008 
L 211.953871 -221.360689 
L 208.674529 -226.631674 
L 205.395187 -231.817977 
L 202.115855 -236.937196 
L 198.836512 -241.997664 
L 195.55717 -246.99439 
L 192.277838 -251.907088 
L 188.998496 -256.70078 
L 185.719153 -261.32838 
L 182.439821 -265.735843 
L 179.160479 -269.867702 
L 175.881137 -273.67242 
L 172.601804 -277.107036 
L 169.322462 -280.140429 
L 166.04312 -282.755263 
L 162.763787 -284.948208 
L 159.484445 -286.729203 
L 156.205103 -288.119211 
L 152.92577 -289.146592 
L 149.646428 -289.84235 
L 146.367086 -290.234628 
L 143.087754 -290.343375 
L 139.808412 -290.176523 
L 136.529069 -289.728446 
L 133.249737 -288.981688 
L 129.970395 -287.911136 
L 126.691057 -286.489428 
L 123.41172 -284.692676 
L 120.132378 -282.50506 
L 116.853041 -279.921892 
L 113.573703 -276.951352 
L 110.294361 -273.61464 
L 107.015024 -269.945247 
L 103.735686 -265.986927 
L 100.456344 -261.792532 
L 97.177007 -257.42107 
L 93.89767 -252.935814 
L 90.61833 -248.403036 
L 87.33899 -243.890044 
L 84.059653 -239.465233 
L 80.780313 -235.197455 
L 77.500973 -231.156564 
L 74.221636 -227.414306 
L 70.942296 -224.04461 
L 67.662958 -221.12313 
L 64.383619 -218.727113 
L 61.10428 -216.932511 
L 57.824941 -215.810214 
L 54.545602 -215.420834 
z
" style="stroke: #ff7f0e; stroke-opacity: 0.5; stroke-width: 0.8"/>
    </defs>
    <g clip-path="url(#pe2544b05ce)">
     <use xlink:href="#m98aed90681" x="0" y="322.510875" style="fill: #ff7f0e; fill-opacity: 0.5; stroke: #ff7f0e; stroke-opacity: 0.5; stroke-width: 0.8"/>
    </g>
   </g>
   <g id="line2d_12">
    <defs>
     <path id="m175faf60bf" d="M -5 5 
L 5 -5 
M -5 -5 
L 5 5 
" style="stroke: #000000; stroke-width: 2"/>
    </defs>
    <g clip-path="url(#pe2544b05ce)">
     <use xlink:href="#m175faf60bf" x="95.766934" y="105.352076" style="stroke: #000000; stroke-width: 2"/>
     <use xlink:href="#m175faf60bf" x="368.394943" y="80.361992" style="stroke: #000000; stroke-width: 2"/>
     <use xlink:href="#m175faf60bf" x="139.110317" y="53.141056" style="stroke: #000000; stroke-width: 2"/>
     <use xlink:href="#m175faf60bf" x="345.837519" y="99.147719" style="stroke: #000000; stroke-width: 2"/>
     <use xlink:href="#m175faf60bf" x="192.277838" y="111.612579" style="stroke: #000000; stroke-width: 2"/>
     <use xlink:href="#m175faf60bf" x="277.540637" y="246.391312" style="stroke: #000000; stroke-width: 2"/>
     <use xlink:href="#m175faf60bf" x="149.646428" y="66.596683" style="stroke: #000000; stroke-width: 2"/>
     <use xlink:href="#m175faf60bf" x="379.200148" y="113.338198" style="stroke: #000000; stroke-width: 2"/>
     <use xlink:href="#m175faf60bf" x="146.367086" y="65.463275" style="stroke: #000000; stroke-width: 2"/>
     <use xlink:href="#m175faf60bf" x="54.545602" y="155.088145" style="stroke: #000000; stroke-width: 2"/>
     <use xlink:href="#m175faf60bf" x="139.808412" y="64.279076" style="stroke: #000000; stroke-width: 2"/>
     <use xlink:href="#m175faf60bf" x="143.087754" y="64.690567" style="stroke: #000000; stroke-width: 2"/>
     <use xlink:href="#m175faf60bf" x="139.808412" y="64.279076" style="stroke: #000000; stroke-width: 2"/>
    </g>
   </g>
   <g id="line2d_13">
    <path d="M 54.545602 146.22063 
L 57.824941 145.067812 
L 61.10428 143.445148 
L 64.383619 141.365307 
L 67.662958 138.84811 
L 70.942296 135.920098 
L 74.221636 132.614367 
L 77.500973 128.969831 
L 80.780313 125.030864 
L 84.059653 120.846425 
L 87.33899 116.469211 
L 90.61833 111.954665 
L 93.89767 107.360276 
L 97.177007 102.744377 
L 100.456344 98.165289 
L 103.735686 93.680272 
L 107.015024 89.344564 
L 110.294361 85.210759 
L 113.573703 81.327758 
L 116.853041 77.740305 
L 120.132378 74.48851 
L 123.41172 71.607165 
L 126.691057 69.125798 
L 129.970395 67.068407 
L 133.249737 65.453437 
L 136.529069 64.294 
L 139.808412 63.598146 
L 143.087754 63.369121 
L 146.367086 63.605938 
L 149.646428 64.303904 
L 152.92577 65.455128 
L 156.205103 67.049095 
L 159.484445 69.073379 
L 162.763787 71.514049 
L 166.04312 74.356219 
L 169.322462 77.584539 
L 172.601804 81.183402 
L 175.881137 85.137296 
L 179.160479 89.430815 
L 182.439821 94.04866 
L 185.719153 98.975473 
L 188.998496 104.195663 
L 192.277838 109.692909 
L 195.55717 115.449672 
L 198.836512 121.446833 
L 202.115855 127.662906 
L 205.395187 134.073544 
L 208.674529 140.650933 
L 211.953871 147.363237 
L 215.233204 154.174164 
L 218.512556 161.042698 
L 221.791879 167.922692 
L 225.071221 174.763254 
L 228.350563 181.508496 
L 231.629886 188.09813 
L 234.909247 194.468169 
L 238.18857 200.551428 
L 241.467912 206.27891 
L 244.747254 211.580691 
L 248.026597 216.387437 
L 251.305939 220.631808 
L 254.585262 224.250135 
L 257.864623 227.183877 
L 261.143946 229.381302 
L 264.423288 230.798843 
L 267.70263 231.402809 
L 270.981953 231.170303 
L 274.261315 230.090487 
L 277.540637 228.165251 
L 280.81998 225.409632 
L 284.099322 221.852083 
L 287.378664 217.534371 
L 290.658006 212.510869 
L 293.937329 206.847952 
L 297.21669 200.622509 
L 300.496013 193.921151 
L 303.775355 186.837442 
L 307.054697 179.471263 
L 310.33402 171.925706 
L 313.613382 164.305325 
L 316.892705 156.713996 
L 320.172047 149.252464 
L 323.451389 142.016301 
L 326.730731 135.094147 
L 330.010073 128.565483 
L 333.289396 122.499527 
L 336.568738 116.953759 
L 339.84808 111.972836 
L 343.127423 107.588379 
L 346.406765 103.818304 
L 349.686088 100.667532 
L 352.96543 98.127181 
L 356.244772 96.177017 
L 359.524114 94.785244 
L 362.803456 93.909974 
L 366.082798 93.50144 
L 369.362141 93.5024 
L 372.641463 93.851269 
L 375.920806 94.483054 
L 379.200148 95.3308 
" clip-path="url(#pe2544b05ce)" style="fill: none; stroke: #1f77b4; stroke-width: 2; stroke-linecap: round"/>
   </g>
   <g id="line2d_14">
    <path d="M 54.545602 155.088145 
L 57.824941 149.502738 
L 61.10428 143.938056 
L 64.383619 138.414737 
L 67.662958 132.953342 
L 70.942296 127.574205 
L 74.221636 122.29746 
L 77.500973 117.142888 
L 80.780313 112.129879 
L 84.059653 107.277395 
L 87.33899 102.603846 
L 90.61833 98.127072 
L 93.89767 93.864262 
L 97.177007 89.8319 
L 100.456344 86.045692 
L 103.735686 82.520557 
L 107.015024 79.270525 
L 110.294361 76.308713 
L 113.573703 73.647263 
L 116.853041 71.29733 
L 120.132378 69.269024 
L 123.41172 67.571361 
L 126.691057 66.212252 
L 129.970395 65.19847 
L 133.249737 64.535608 
L 136.529069 64.228076 
L 139.808412 64.279076 
L 143.087754 64.690567 
L 146.367086 65.463275 
L 149.646428 66.596683 
L 152.92577 68.088999 
L 156.205103 69.937157 
L 159.484445 72.136858 
L 162.763787 74.682485 
L 166.04312 77.567192 
L 169.322462 80.782846 
L 172.601804 84.320057 
L 175.881137 88.168178 
L 179.160479 92.315298 
L 182.439821 96.748308 
L 185.719153 101.452791 
L 188.998496 106.413169 
L 192.277838 111.612579 
L 195.55717 117.033014 
L 198.836512 122.655201 
L 202.115855 128.458648 
L 205.395187 134.421676 
L 208.674529 140.521414 
L 211.953871 146.733728 
L 215.233204 153.033313 
L 218.512556 159.393633 
L 221.791879 165.786864 
L 225.071221 172.184023 
L 228.350563 178.554848 
L 231.629886 184.867655 
L 234.909247 191.089759 
L 238.18857 197.186823 
L 241.467912 203.123478 
L 244.747254 208.862856 
L 248.026597 214.366803 
L 251.305939 219.595888 
L 254.585262 224.50926 
L 257.864623 229.064902 
L 261.143946 233.219497 
L 264.423288 236.928649 
L 267.70263 240.146912 
L 270.981953 242.828077 
L 274.261315 244.925259 
L 277.540637 246.391312 
L 280.81998 247.179163 
L 284.099322 247.242321 
L 287.378664 246.535482 
L 290.658006 245.015352 
L 293.937329 242.641539 
L 297.21669 239.377603 
L 300.496013 235.192842 
L 303.775355 230.063279 
L 307.054697 223.974182 
L 310.33402 216.922188 
L 313.613382 208.917621 
L 316.892705 199.987996 
L 320.172047 190.18095 
L 323.451389 179.568133 
L 326.730731 168.249263 
L 330.010073 156.3562 
L 333.289396 144.05725 
L 336.568738 131.561296 
L 339.84808 119.121084 
L 343.127423 107.035966 
L 346.406765 95.652935 
L 349.686088 85.364796 
L 352.96543 76.605337 
L 356.244772 69.840516 
L 359.524114 65.552522 
L 362.803456 64.217691 
L 366.082798 66.275186 
L 369.362141 72.086016 
L 372.641463 81.881973 
L 375.920806 95.704759 
L 379.200148 113.338198 
" clip-path="url(#pe2544b05ce)" style="fill: none; stroke-dasharray: 7.68,1.92,1.2,1.92; stroke-dashoffset: 0; stroke: #bf00bf; stroke-width: 1.2"/>
   </g>
   <g id="patch_3">
    <path d="M 38.312875 247.307017 
L 38.312875 64.205004 
" style="fill: none; stroke: #262626; stroke-linejoin: miter; stroke-linecap: square"/>
   </g>
   <g id="patch_4">
    <path d="M 54.545602 286.1835 
L 379.200148 286.1835 
" style="fill: none; stroke: #262626; stroke-linejoin: miter; stroke-linecap: square"/>
   </g>
   <g id="text_14">
    <!-- N=8,  -->
    <g style="fill: #262626" transform="translate(205.266625 14.0715) scale(0.096 -0.096)">
     <defs>
      <path id="ArialMT-4e" d="M 488 0 
L 488 4581 
L 1109 4581 
L 3516 984 
L 3516 4581 
L 4097 4581 
L 4097 0 
L 3475 0 
L 1069 3600 
L 1069 0 
L 488 0 
z
" transform="scale(0.015625)"/>
      <path id="ArialMT-3d" d="M 3381 2694 
L 356 2694 
L 356 3219 
L 3381 3219 
L 3381 2694 
z
M 3381 1303 
L 356 1303 
L 356 1828 
L 3381 1828 
L 3381 1303 
z
" transform="scale(0.015625)"/>
      <path id="ArialMT-2c" d="M 569 0 
L 569 641 
L 1209 641 
L 1209 0 
Q 1209 -353 1084 -570 
Q 959 -788 688 -906 
L 531 -666 
Q 709 -588 793 -436 
Q 878 -284 888 0 
L 569 0 
z
" transform="scale(0.015625)"/>
      <path id="ArialMT-20" transform="scale(0.015625)"/>
     </defs>
     <use xlink:href="#ArialMT-4e"/>
     <use xlink:href="#ArialMT-3d" x="72.216797"/>
     <use xlink:href="#ArialMT-38" x="130.615234"/>
     <use xlink:href="#ArialMT-2c" x="186.230469"/>
     <use xlink:href="#ArialMT-20" x="214.013672"/>
    </g>
   </g>
   <g id="legend_1">
    <g id="line2d_15">
     <g>
      <use xlink:href="#m175faf60bf" x="55.032875" y="219.978625" style="stroke: #000000; stroke-width: 2"/>
     </g>
    </g>
    <g id="text_15">
     <!-- Observations -->
     <g style="fill: #262626" transform="translate(70.872875 223.058625) scale(0.088 -0.088)">
      <defs>
       <path id="ArialMT-4f" d="M 309 2231 
Q 309 3372 921 4017 
Q 1534 4663 2503 4663 
Q 3138 4663 3647 4359 
Q 4156 4056 4423 3514 
Q 4691 2972 4691 2284 
Q 4691 1588 4409 1038 
Q 4128 488 3612 205 
Q 3097 -78 2500 -78 
Q 1853 -78 1343 234 
Q 834 547 571 1087 
Q 309 1628 309 2231 
z
M 934 2222 
Q 934 1394 1379 917 
Q 1825 441 2497 441 
Q 3181 441 3623 922 
Q 4066 1403 4066 2288 
Q 4066 2847 3877 3264 
Q 3688 3681 3323 3911 
Q 2959 4141 2506 4141 
Q 1863 4141 1398 3698 
Q 934 3256 934 2222 
z
" transform="scale(0.015625)"/>
       <path id="ArialMT-62" d="M 941 0 
L 419 0 
L 419 4581 
L 981 4581 
L 981 2947 
Q 1338 3394 1891 3394 
Q 2197 3394 2470 3270 
Q 2744 3147 2920 2923 
Q 3097 2700 3197 2384 
Q 3297 2069 3297 1709 
Q 3297 856 2875 390 
Q 2453 -75 1863 -75 
Q 1275 -75 941 416 
L 941 0 
z
M 934 1684 
Q 934 1088 1097 822 
Q 1363 388 1816 388 
Q 2184 388 2453 708 
Q 2722 1028 2722 1663 
Q 2722 2313 2464 2622 
Q 2206 2931 1841 2931 
Q 1472 2931 1203 2611 
Q 934 2291 934 1684 
z
" transform="scale(0.015625)"/>
       <path id="ArialMT-73" d="M 197 991 
L 753 1078 
Q 800 744 1014 566 
Q 1228 388 1613 388 
Q 2000 388 2187 545 
Q 2375 703 2375 916 
Q 2375 1106 2209 1216 
Q 2094 1291 1634 1406 
Q 1016 1563 777 1677 
Q 538 1791 414 1992 
Q 291 2194 291 2438 
Q 291 2659 392 2848 
Q 494 3038 669 3163 
Q 800 3259 1026 3326 
Q 1253 3394 1513 3394 
Q 1903 3394 2198 3281 
Q 2494 3169 2634 2976 
Q 2775 2784 2828 2463 
L 2278 2388 
Q 2241 2644 2061 2787 
Q 1881 2931 1553 2931 
Q 1166 2931 1000 2803 
Q 834 2675 834 2503 
Q 834 2394 903 2306 
Q 972 2216 1119 2156 
Q 1203 2125 1616 2013 
Q 2213 1853 2448 1751 
Q 2684 1650 2818 1456 
Q 2953 1263 2953 975 
Q 2953 694 2789 445 
Q 2625 197 2315 61 
Q 2006 -75 1616 -75 
Q 969 -75 630 194 
Q 291 463 197 991 
z
" transform="scale(0.015625)"/>
       <path id="ArialMT-65" d="M 2694 1069 
L 3275 997 
Q 3138 488 2766 206 
Q 2394 -75 1816 -75 
Q 1088 -75 661 373 
Q 234 822 234 1631 
Q 234 2469 665 2931 
Q 1097 3394 1784 3394 
Q 2450 3394 2872 2941 
Q 3294 2488 3294 1666 
Q 3294 1616 3291 1516 
L 816 1516 
Q 847 969 1125 678 
Q 1403 388 1819 388 
Q 2128 388 2347 550 
Q 2566 713 2694 1069 
z
M 847 1978 
L 2700 1978 
Q 2663 2397 2488 2606 
Q 2219 2931 1791 2931 
Q 1403 2931 1139 2672 
Q 875 2413 847 1978 
z
" transform="scale(0.015625)"/>
       <path id="ArialMT-72" d="M 416 0 
L 416 3319 
L 922 3319 
L 922 2816 
Q 1116 3169 1280 3281 
Q 1444 3394 1641 3394 
Q 1925 3394 2219 3213 
L 2025 2691 
Q 1819 2813 1613 2813 
Q 1428 2813 1281 2702 
Q 1134 2591 1072 2394 
Q 978 2094 978 1738 
L 978 0 
L 416 0 
z
" transform="scale(0.015625)"/>
       <path id="ArialMT-76" d="M 1344 0 
L 81 3319 
L 675 3319 
L 1388 1331 
Q 1503 1009 1600 663 
Q 1675 925 1809 1294 
L 2547 3319 
L 3125 3319 
L 1869 0 
L 1344 0 
z
" transform="scale(0.015625)"/>
       <path id="ArialMT-61" d="M 2588 409 
Q 2275 144 1986 34 
Q 1697 -75 1366 -75 
Q 819 -75 525 192 
Q 231 459 231 875 
Q 231 1119 342 1320 
Q 453 1522 633 1644 
Q 813 1766 1038 1828 
Q 1203 1872 1538 1913 
Q 2219 1994 2541 2106 
Q 2544 2222 2544 2253 
Q 2544 2597 2384 2738 
Q 2169 2928 1744 2928 
Q 1347 2928 1158 2789 
Q 969 2650 878 2297 
L 328 2372 
Q 403 2725 575 2942 
Q 747 3159 1072 3276 
Q 1397 3394 1825 3394 
Q 2250 3394 2515 3294 
Q 2781 3194 2906 3042 
Q 3031 2891 3081 2659 
Q 3109 2516 3109 2141 
L 3109 1391 
Q 3109 606 3145 398 
Q 3181 191 3288 0 
L 2700 0 
Q 2613 175 2588 409 
z
M 2541 1666 
Q 2234 1541 1622 1453 
Q 1275 1403 1131 1340 
Q 988 1278 909 1158 
Q 831 1038 831 891 
Q 831 666 1001 516 
Q 1172 366 1500 366 
Q 1825 366 2078 508 
Q 2331 650 2450 897 
Q 2541 1088 2541 1459 
L 2541 1666 
z
" transform="scale(0.015625)"/>
       <path id="ArialMT-74" d="M 1650 503 
L 1731 6 
Q 1494 -44 1306 -44 
Q 1000 -44 831 53 
Q 663 150 594 308 
Q 525 466 525 972 
L 525 2881 
L 113 2881 
L 113 3319 
L 525 3319 
L 525 4141 
L 1084 4478 
L 1084 3319 
L 1650 3319 
L 1650 2881 
L 1084 2881 
L 1084 941 
Q 1084 700 1114 631 
Q 1144 563 1211 522 
Q 1278 481 1403 481 
Q 1497 481 1650 503 
z
" transform="scale(0.015625)"/>
       <path id="ArialMT-69" d="M 425 3934 
L 425 4581 
L 988 4581 
L 988 3934 
L 425 3934 
z
M 425 0 
L 425 3319 
L 988 3319 
L 988 0 
L 425 0 
z
" transform="scale(0.015625)"/>
       <path id="ArialMT-6f" d="M 213 1659 
Q 213 2581 725 3025 
Q 1153 3394 1769 3394 
Q 2453 3394 2887 2945 
Q 3322 2497 3322 1706 
Q 3322 1066 3130 698 
Q 2938 331 2570 128 
Q 2203 -75 1769 -75 
Q 1072 -75 642 372 
Q 213 819 213 1659 
z
M 791 1659 
Q 791 1022 1069 705 
Q 1347 388 1769 388 
Q 2188 388 2466 706 
Q 2744 1025 2744 1678 
Q 2744 2294 2464 2611 
Q 2184 2928 1769 2928 
Q 1347 2928 1069 2612 
Q 791 2297 791 1659 
z
" transform="scale(0.015625)"/>
       <path id="ArialMT-6e" d="M 422 0 
L 422 3319 
L 928 3319 
L 928 2847 
Q 1294 3394 1984 3394 
Q 2284 3394 2536 3286 
Q 2788 3178 2913 3003 
Q 3038 2828 3088 2588 
Q 3119 2431 3119 2041 
L 3119 0 
L 2556 0 
L 2556 2019 
Q 2556 2363 2490 2533 
Q 2425 2703 2258 2804 
Q 2091 2906 1866 2906 
Q 1506 2906 1245 2678 
Q 984 2450 984 1813 
L 984 0 
L 422 0 
z
" transform="scale(0.015625)"/>
      </defs>
      <use xlink:href="#ArialMT-4f"/>
      <use xlink:href="#ArialMT-62" x="77.783203"/>
      <use xlink:href="#ArialMT-73" x="133.398438"/>
      <use xlink:href="#ArialMT-65" x="183.398438"/>
      <use xlink:href="#ArialMT-72" x="239.013672"/>
      <use xlink:href="#ArialMT-76" x="272.314453"/>
      <use xlink:href="#ArialMT-61" x="322.314453"/>
      <use xlink:href="#ArialMT-74" x="377.929688"/>
      <use xlink:href="#ArialMT-69" x="405.712891"/>
      <use xlink:href="#ArialMT-6f" x="427.929688"/>
      <use xlink:href="#ArialMT-6e" x="483.544922"/>
      <use xlink:href="#ArialMT-73" x="539.160156"/>
     </g>
    </g>
    <g id="line2d_16">
     <path d="M 46.232875 232.562625 
L 55.032875 232.562625 
L 63.832875 232.562625 
" style="fill: none; stroke: #1f77b4; stroke-width: 2; stroke-linecap: round"/>
    </g>
    <g id="text_16">
     <!-- $m_n(x)$ -->
     <g style="fill: #262626" transform="translate(70.872875 235.642625) scale(0.088 -0.088)">
      <defs>
       <path id="DejaVuSans-Oblique-6d" d="M 5747 2113 
L 5338 0 
L 4763 0 
L 5166 2094 
Q 5191 2228 5203 2325 
Q 5216 2422 5216 2491 
Q 5216 2772 5059 2928 
Q 4903 3084 4622 3084 
Q 4203 3084 3875 2770 
Q 3547 2456 3450 1953 
L 3066 0 
L 2491 0 
L 2900 2094 
Q 2925 2209 2937 2307 
Q 2950 2406 2950 2484 
Q 2950 2769 2794 2926 
Q 2638 3084 2363 3084 
Q 1938 3084 1609 2770 
Q 1281 2456 1184 1953 
L 800 0 
L 225 0 
L 909 3500 
L 1484 3500 
L 1375 2956 
Q 1609 3263 1923 3423 
Q 2238 3584 2597 3584 
Q 2978 3584 3223 3384 
Q 3469 3184 3519 2828 
Q 3781 3197 4126 3390 
Q 4472 3584 4856 3584 
Q 5306 3584 5551 3325 
Q 5797 3066 5797 2591 
Q 5797 2488 5784 2364 
Q 5772 2241 5747 2113 
z
" transform="scale(0.015625)"/>
       <path id="DejaVuSans-Oblique-6e" d="M 3566 2113 
L 3156 0 
L 2578 0 
L 2988 2091 
Q 3016 2238 3031 2350 
Q 3047 2463 3047 2528 
Q 3047 2791 2881 2937 
Q 2716 3084 2419 3084 
Q 1956 3084 1622 2776 
Q 1288 2469 1184 1941 
L 800 0 
L 225 0 
L 903 3500 
L 1478 3500 
L 1363 2950 
Q 1603 3253 1940 3418 
Q 2278 3584 2650 3584 
Q 3113 3584 3367 3334 
Q 3622 3084 3622 2631 
Q 3622 2519 3608 2391 
Q 3594 2263 3566 2113 
z
" transform="scale(0.015625)"/>
       <path id="DejaVuSans-28" d="M 1984 4856 
Q 1566 4138 1362 3434 
Q 1159 2731 1159 2009 
Q 1159 1288 1364 580 
Q 1569 -128 1984 -844 
L 1484 -844 
Q 1016 -109 783 600 
Q 550 1309 550 2009 
Q 550 2706 781 3412 
Q 1013 4119 1484 4856 
L 1984 4856 
z
" transform="scale(0.015625)"/>
       <path id="DejaVuSans-29" d="M 513 4856 
L 1013 4856 
Q 1481 4119 1714 3412 
Q 1947 2706 1947 2009 
Q 1947 1309 1714 600 
Q 1481 -109 1013 -844 
L 513 -844 
Q 928 -128 1133 580 
Q 1338 1288 1338 2009 
Q 1338 2731 1133 3434 
Q 928 4138 513 4856 
z
" transform="scale(0.015625)"/>
      </defs>
      <use xlink:href="#DejaVuSans-Oblique-6d" transform="translate(0 0.125)"/>
      <use xlink:href="#DejaVuSans-Oblique-6e" transform="translate(97.412109 -16.28125) scale(0.7)"/>
      <use xlink:href="#DejaVuSans-28" transform="translate(144.511719 0.125)"/>
      <use xlink:href="#DejaVuSans-Oblique-78" transform="translate(183.525391 0.125)"/>
      <use xlink:href="#DejaVuSans-29" transform="translate(242.705078 0.125)"/>
     </g>
    </g>
    <g id="patch_5">
     <path d="M 46.232875 249.799625 
L 63.832875 249.799625 
L 63.832875 243.639625 
L 46.232875 243.639625 
z
" style="fill: #1f77b4; fill-opacity: 0.5; stroke: #1f77b4; stroke-opacity: 0.5; stroke-width: 0.8; stroke-linejoin: miter"/>
    </g>
    <g id="text_17">
     <!-- $f(\mathbf{x}^*)$ 95% pred. -->
     <g style="fill: #262626" transform="translate(70.872875 249.799625) scale(0.088 -0.088)">
      <defs>
       <path id="DejaVuSans-Oblique-66" d="M 3059 4863 
L 2969 4384 
L 2419 4384 
Q 2106 4384 1964 4261 
Q 1822 4138 1753 3809 
L 1691 3500 
L 2638 3500 
L 2553 3053 
L 1606 3053 
L 1013 0 
L 434 0 
L 1031 3053 
L 481 3053 
L 563 3500 
L 1113 3500 
L 1159 3744 
Q 1278 4363 1576 4613 
Q 1875 4863 2516 4863 
L 3059 4863 
z
" transform="scale(0.015625)"/>
       <path id="DejaVuSans-Bold-78" d="M 1422 1791 
L 159 3500 
L 1344 3500 
L 2059 2463 
L 2784 3500 
L 3969 3500 
L 2706 1797 
L 4031 0 
L 2847 0 
L 2059 1106 
L 1281 0 
L 97 0 
L 1422 1791 
z
" transform="scale(0.015625)"/>
       <path id="DejaVuSans-2a" d="M 3009 3897 
L 1888 3291 
L 3009 2681 
L 2828 2375 
L 1778 3009 
L 1778 1831 
L 1422 1831 
L 1422 3009 
L 372 2375 
L 191 2681 
L 1313 3291 
L 191 3897 
L 372 4206 
L 1422 3572 
L 1422 4750 
L 1778 4750 
L 1778 3572 
L 2828 4206 
L 3009 3897 
z
" transform="scale(0.015625)"/>
       <path id="ArialMT-39" d="M 350 1059 
L 891 1109 
Q 959 728 1153 556 
Q 1347 384 1650 384 
Q 1909 384 2104 503 
Q 2300 622 2425 820 
Q 2550 1019 2634 1356 
Q 2719 1694 2719 2044 
Q 2719 2081 2716 2156 
Q 2547 1888 2255 1720 
Q 1963 1553 1622 1553 
Q 1053 1553 659 1965 
Q 266 2378 266 3053 
Q 266 3750 677 4175 
Q 1088 4600 1706 4600 
Q 2153 4600 2523 4359 
Q 2894 4119 3086 3673 
Q 3278 3228 3278 2384 
Q 3278 1506 3087 986 
Q 2897 466 2520 194 
Q 2144 -78 1638 -78 
Q 1100 -78 759 220 
Q 419 519 350 1059 
z
M 2653 3081 
Q 2653 3566 2395 3850 
Q 2138 4134 1775 4134 
Q 1400 4134 1122 3828 
Q 844 3522 844 3034 
Q 844 2597 1108 2323 
Q 1372 2050 1759 2050 
Q 2150 2050 2401 2323 
Q 2653 2597 2653 3081 
z
" transform="scale(0.015625)"/>
       <path id="ArialMT-35" d="M 266 1200 
L 856 1250 
Q 922 819 1161 601 
Q 1400 384 1738 384 
Q 2144 384 2425 690 
Q 2706 997 2706 1503 
Q 2706 1984 2436 2262 
Q 2166 2541 1728 2541 
Q 1456 2541 1237 2417 
Q 1019 2294 894 2097 
L 366 2166 
L 809 4519 
L 3088 4519 
L 3088 3981 
L 1259 3981 
L 1013 2750 
Q 1425 3038 1878 3038 
Q 2478 3038 2890 2622 
Q 3303 2206 3303 1553 
Q 3303 931 2941 478 
Q 2500 -78 1738 -78 
Q 1113 -78 717 272 
Q 322 622 266 1200 
z
" transform="scale(0.015625)"/>
       <path id="ArialMT-25" d="M 372 3481 
Q 372 3972 619 4315 
Q 866 4659 1334 4659 
Q 1766 4659 2048 4351 
Q 2331 4044 2331 3447 
Q 2331 2866 2045 2552 
Q 1759 2238 1341 2238 
Q 925 2238 648 2547 
Q 372 2856 372 3481 
z
M 1350 4272 
Q 1141 4272 1002 4090 
Q 863 3909 863 3425 
Q 863 2984 1003 2804 
Q 1144 2625 1350 2625 
Q 1563 2625 1702 2806 
Q 1841 2988 1841 3469 
Q 1841 3913 1700 4092 
Q 1559 4272 1350 4272 
z
M 1353 -169 
L 3859 4659 
L 4316 4659 
L 1819 -169 
L 1353 -169 
z
M 3334 1075 
Q 3334 1569 3581 1911 
Q 3828 2253 4300 2253 
Q 4731 2253 5014 1945 
Q 5297 1638 5297 1041 
Q 5297 459 5011 145 
Q 4725 -169 4303 -169 
Q 3888 -169 3611 142 
Q 3334 453 3334 1075 
z
M 4316 1866 
Q 4103 1866 3964 1684 
Q 3825 1503 3825 1019 
Q 3825 581 3965 400 
Q 4106 219 4313 219 
Q 4528 219 4667 400 
Q 4806 581 4806 1063 
Q 4806 1506 4665 1686 
Q 4525 1866 4316 1866 
z
" transform="scale(0.015625)"/>
       <path id="ArialMT-70" d="M 422 -1272 
L 422 3319 
L 934 3319 
L 934 2888 
Q 1116 3141 1344 3267 
Q 1572 3394 1897 3394 
Q 2322 3394 2647 3175 
Q 2972 2956 3137 2557 
Q 3303 2159 3303 1684 
Q 3303 1175 3120 767 
Q 2938 359 2589 142 
Q 2241 -75 1856 -75 
Q 1575 -75 1351 44 
Q 1128 163 984 344 
L 984 -1272 
L 422 -1272 
z
M 931 1641 
Q 931 1000 1190 694 
Q 1450 388 1819 388 
Q 2194 388 2461 705 
Q 2728 1022 2728 1688 
Q 2728 2322 2467 2637 
Q 2206 2953 1844 2953 
Q 1484 2953 1207 2617 
Q 931 2281 931 1641 
z
" transform="scale(0.015625)"/>
       <path id="ArialMT-64" d="M 2575 0 
L 2575 419 
Q 2259 -75 1647 -75 
Q 1250 -75 917 144 
Q 584 363 401 755 
Q 219 1147 219 1656 
Q 219 2153 384 2558 
Q 550 2963 881 3178 
Q 1213 3394 1622 3394 
Q 1922 3394 2156 3267 
Q 2391 3141 2538 2938 
L 2538 4581 
L 3097 4581 
L 3097 0 
L 2575 0 
z
M 797 1656 
Q 797 1019 1065 703 
Q 1334 388 1700 388 
Q 2069 388 2326 689 
Q 2584 991 2584 1609 
Q 2584 2291 2321 2609 
Q 2059 2928 1675 2928 
Q 1300 2928 1048 2622 
Q 797 2316 797 1656 
z
" transform="scale(0.015625)"/>
      </defs>
      <use xlink:href="#DejaVuSans-Oblique-66" transform="translate(0 0.765625)"/>
      <use xlink:href="#DejaVuSans-28" transform="translate(35.205078 0.765625)"/>
      <use xlink:href="#DejaVuSans-Bold-78" transform="translate(74.21875 0.765625)"/>
      <use xlink:href="#DejaVuSans-2a" transform="translate(153.31543 39.046875) scale(0.7)"/>
      <use xlink:href="#DejaVuSans-29" transform="translate(204.6875 0.765625)"/>
      <use xlink:href="#ArialMT-20" transform="translate(243.701172 0.765625)"/>
      <use xlink:href="#ArialMT-39" transform="translate(271.484375 0.765625)"/>
      <use xlink:href="#ArialMT-35" transform="translate(327.099609 0.765625)"/>
      <use xlink:href="#ArialMT-25" transform="translate(382.714844 0.765625)"/>
      <use xlink:href="#ArialMT-20" transform="translate(471.630859 0.765625)"/>
      <use xlink:href="#ArialMT-70" transform="translate(499.414062 0.765625)"/>
      <use xlink:href="#ArialMT-72" transform="translate(555.029297 0.765625)"/>
      <use xlink:href="#ArialMT-65" transform="translate(588.330078 0.765625)"/>
      <use xlink:href="#ArialMT-64" transform="translate(643.945312 0.765625)"/>
      <use xlink:href="#ArialMT-2e" transform="translate(699.560547 0.765625)"/>
     </g>
    </g>
    <g id="patch_6">
     <path d="M 46.232875 263.967625 
L 63.832875 263.967625 
L 63.832875 257.807625 
L 46.232875 257.807625 
z
" style="fill: #ff7f0e; fill-opacity: 0.5; stroke: #ff7f0e; stroke-opacity: 0.5; stroke-width: 0.8; stroke-linejoin: miter"/>
    </g>
    <g id="text_18">
     <!-- $y^*$ 95% pred. -->
     <g style="fill: #262626" transform="translate(70.872875 263.967625) scale(0.088 -0.088)">
      <use xlink:href="#DejaVuSans-Oblique-79" transform="translate(0 0.765625)"/>
      <use xlink:href="#DejaVuSans-2a" transform="translate(77.283529 39.046875) scale(0.7)"/>
      <use xlink:href="#ArialMT-20" transform="translate(128.655599 0.765625)"/>
      <use xlink:href="#ArialMT-39" transform="translate(156.438802 0.765625)"/>
      <use xlink:href="#ArialMT-35" transform="translate(212.054036 0.765625)"/>
      <use xlink:href="#ArialMT-25" transform="translate(267.669271 0.765625)"/>
      <use xlink:href="#ArialMT-20" transform="translate(356.585286 0.765625)"/>
      <use xlink:href="#ArialMT-70" transform="translate(384.36849 0.765625)"/>
      <use xlink:href="#ArialMT-72" transform="translate(439.983724 0.765625)"/>
      <use xlink:href="#ArialMT-65" transform="translate(473.284505 0.765625)"/>
      <use xlink:href="#ArialMT-64" transform="translate(528.89974 0.765625)"/>
      <use xlink:href="#ArialMT-2e" transform="translate(584.514974 0.765625)"/>
     </g>
    </g>
    <g id="line2d_17">
     <path d="M 46.232875 273.4345 
L 55.032875 273.4345 
L 63.832875 273.4345 
" style="fill: none; stroke-dasharray: 7.68,1.92,1.2,1.92; stroke-dashoffset: 0; stroke: #bf00bf; stroke-width: 1.2"/>
    </g>
    <g id="text_19">
     <!-- True function -->
     <g style="fill: #262626" transform="translate(70.872875 276.5145) scale(0.088 -0.088)">
      <defs>
       <path id="ArialMT-54" d="M 1659 0 
L 1659 4041 
L 150 4041 
L 150 4581 
L 3781 4581 
L 3781 4041 
L 2266 4041 
L 2266 0 
L 1659 0 
z
" transform="scale(0.015625)"/>
       <path id="ArialMT-75" d="M 2597 0 
L 2597 488 
Q 2209 -75 1544 -75 
Q 1250 -75 995 37 
Q 741 150 617 320 
Q 494 491 444 738 
Q 409 903 409 1263 
L 409 3319 
L 972 3319 
L 972 1478 
Q 972 1038 1006 884 
Q 1059 663 1231 536 
Q 1403 409 1656 409 
Q 1909 409 2131 539 
Q 2353 669 2445 892 
Q 2538 1116 2538 1541 
L 2538 3319 
L 3100 3319 
L 3100 0 
L 2597 0 
z
" transform="scale(0.015625)"/>
       <path id="ArialMT-66" d="M 556 0 
L 556 2881 
L 59 2881 
L 59 3319 
L 556 3319 
L 556 3672 
Q 556 4006 616 4169 
Q 697 4388 901 4523 
Q 1106 4659 1475 4659 
Q 1713 4659 2000 4603 
L 1916 4113 
Q 1741 4144 1584 4144 
Q 1328 4144 1222 4034 
Q 1116 3925 1116 3625 
L 1116 3319 
L 1763 3319 
L 1763 2881 
L 1116 2881 
L 1116 0 
L 556 0 
z
" transform="scale(0.015625)"/>
       <path id="ArialMT-63" d="M 2588 1216 
L 3141 1144 
Q 3050 572 2676 248 
Q 2303 -75 1759 -75 
Q 1078 -75 664 370 
Q 250 816 250 1647 
Q 250 2184 428 2587 
Q 606 2991 970 3192 
Q 1334 3394 1763 3394 
Q 2303 3394 2647 3120 
Q 2991 2847 3088 2344 
L 2541 2259 
Q 2463 2594 2264 2762 
Q 2066 2931 1784 2931 
Q 1359 2931 1093 2626 
Q 828 2322 828 1663 
Q 828 994 1084 691 
Q 1341 388 1753 388 
Q 2084 388 2306 591 
Q 2528 794 2588 1216 
z
" transform="scale(0.015625)"/>
      </defs>
      <use xlink:href="#ArialMT-54"/>
      <use xlink:href="#ArialMT-72" x="57.333984"/>
      <use xlink:href="#ArialMT-75" x="90.634766"/>
      <use xlink:href="#ArialMT-65" x="146.25"/>
      <use xlink:href="#ArialMT-20" x="201.865234"/>
      <use xlink:href="#ArialMT-66" x="229.648438"/>
      <use xlink:href="#ArialMT-75" x="257.431641"/>
      <use xlink:href="#ArialMT-6e" x="313.046875"/>
      <use xlink:href="#ArialMT-63" x="368.662109"/>
      <use xlink:href="#ArialMT-74" x="418.662109"/>
      <use xlink:href="#ArialMT-69" x="446.445312"/>
      <use xlink:href="#ArialMT-6f" x="468.662109"/>
      <use xlink:href="#ArialMT-6e" x="524.277344"/>
     </g>
    </g>
   </g>
  </g>
  <g id="axes_2">
   <g id="matplotlib.axis_3">
    <g id="ytick_6">
     <g id="line2d_18">
      <defs>
       <path id="m49e11d74d5" d="M 0 0 
L 4.8 0 
" style="stroke: #262626"/>
      </defs>
      <g>
       <use xlink:href="#m49e11d74d5" x="395.432875" y="274.084794" style="fill: #262626; stroke: #262626"/>
      </g>
     </g>
     <g id="text_20">
      <!-- 0.000 -->
      <g style="fill: #ff7f0e" transform="translate(403.732875 277.234232) scale(0.088 -0.088)">
       <use xlink:href="#ArialMT-30"/>
       <use xlink:href="#ArialMT-2e" x="55.615234"/>
       <use xlink:href="#ArialMT-30" x="83.398438"/>
       <use xlink:href="#ArialMT-30" x="139.013672"/>
       <use xlink:href="#ArialMT-30" x="194.628906"/>
      </g>
     </g>
    </g>
    <g id="ytick_7">
     <g id="line2d_19">
      <g>
       <use xlink:href="#m49e11d74d5" x="395.432875" y="220.936031" style="fill: #262626; stroke: #262626"/>
      </g>
     </g>
     <g id="text_21">
      <!-- 0.001 -->
      <g style="fill: #ff7f0e" transform="translate(403.732875 224.085468) scale(0.088 -0.088)">
       <use xlink:href="#ArialMT-30"/>
       <use xlink:href="#ArialMT-2e" x="55.615234"/>
       <use xlink:href="#ArialMT-30" x="83.398438"/>
       <use xlink:href="#ArialMT-30" x="139.013672"/>
       <use xlink:href="#ArialMT-31" x="194.628906"/>
      </g>
     </g>
    </g>
    <g id="ytick_8">
     <g id="line2d_20">
      <g>
       <use xlink:href="#m49e11d74d5" x="395.432875" y="167.787267" style="fill: #262626; stroke: #262626"/>
      </g>
     </g>
     <g id="text_22">
      <!-- 0.002 -->
      <g style="fill: #ff7f0e" transform="translate(403.732875 170.936704) scale(0.088 -0.088)">
       <use xlink:href="#ArialMT-30"/>
       <use xlink:href="#ArialMT-2e" x="55.615234"/>
       <use xlink:href="#ArialMT-30" x="83.398438"/>
       <use xlink:href="#ArialMT-30" x="139.013672"/>
       <use xlink:href="#ArialMT-32" x="194.628906"/>
      </g>
     </g>
    </g>
    <g id="ytick_9">
     <g id="line2d_21">
      <g>
       <use xlink:href="#m49e11d74d5" x="395.432875" y="114.638503" style="fill: #262626; stroke: #262626"/>
      </g>
     </g>
     <g id="text_23">
      <!-- 0.003 -->
      <g style="fill: #ff7f0e" transform="translate(403.732875 117.787941) scale(0.088 -0.088)">
       <defs>
        <path id="ArialMT-33" d="M 269 1209 
L 831 1284 
Q 928 806 1161 595 
Q 1394 384 1728 384 
Q 2125 384 2398 659 
Q 2672 934 2672 1341 
Q 2672 1728 2419 1979 
Q 2166 2231 1775 2231 
Q 1616 2231 1378 2169 
L 1441 2663 
Q 1497 2656 1531 2656 
Q 1891 2656 2178 2843 
Q 2466 3031 2466 3422 
Q 2466 3731 2256 3934 
Q 2047 4138 1716 4138 
Q 1388 4138 1169 3931 
Q 950 3725 888 3313 
L 325 3413 
Q 428 3978 793 4289 
Q 1159 4600 1703 4600 
Q 2078 4600 2393 4439 
Q 2709 4278 2876 4000 
Q 3044 3722 3044 3409 
Q 3044 3113 2884 2869 
Q 2725 2625 2413 2481 
Q 2819 2388 3044 2092 
Q 3269 1797 3269 1353 
Q 3269 753 2831 336 
Q 2394 -81 1725 -81 
Q 1122 -81 723 278 
Q 325 638 269 1209 
z
" transform="scale(0.015625)"/>
       </defs>
       <use xlink:href="#ArialMT-30"/>
       <use xlink:href="#ArialMT-2e" x="55.615234"/>
       <use xlink:href="#ArialMT-30" x="83.398438"/>
       <use xlink:href="#ArialMT-30" x="139.013672"/>
       <use xlink:href="#ArialMT-33" x="194.628906"/>
      </g>
     </g>
    </g>
    <g id="ytick_10">
     <g id="line2d_22">
      <g>
       <use xlink:href="#m49e11d74d5" x="395.432875" y="61.489739" style="fill: #262626; stroke: #262626"/>
      </g>
     </g>
     <g id="text_24">
      <!-- 0.004 -->
      <g style="fill: #ff7f0e" transform="translate(403.732875 64.639177) scale(0.088 -0.088)">
       <use xlink:href="#ArialMT-30"/>
       <use xlink:href="#ArialMT-2e" x="55.615234"/>
       <use xlink:href="#ArialMT-30" x="83.398438"/>
       <use xlink:href="#ArialMT-30" x="139.013672"/>
       <use xlink:href="#ArialMT-34" x="194.628906"/>
      </g>
     </g>
    </g>
    <g id="text_25">
     <!-- Information Acquisition Function -->
     <g style="fill: #ff7f0e" transform="translate(436.740625 221.16075) rotate(-90) scale(0.096 -0.096)">
      <defs>
       <path id="ArialMT-49" d="M 597 0 
L 597 4581 
L 1203 4581 
L 1203 0 
L 597 0 
z
" transform="scale(0.015625)"/>
       <path id="ArialMT-6d" d="M 422 0 
L 422 3319 
L 925 3319 
L 925 2853 
Q 1081 3097 1340 3245 
Q 1600 3394 1931 3394 
Q 2300 3394 2536 3241 
Q 2772 3088 2869 2813 
Q 3263 3394 3894 3394 
Q 4388 3394 4653 3120 
Q 4919 2847 4919 2278 
L 4919 0 
L 4359 0 
L 4359 2091 
Q 4359 2428 4304 2576 
Q 4250 2725 4106 2815 
Q 3963 2906 3769 2906 
Q 3419 2906 3187 2673 
Q 2956 2441 2956 1928 
L 2956 0 
L 2394 0 
L 2394 2156 
Q 2394 2531 2256 2718 
Q 2119 2906 1806 2906 
Q 1569 2906 1367 2781 
Q 1166 2656 1075 2415 
Q 984 2175 984 1722 
L 984 0 
L 422 0 
z
" transform="scale(0.015625)"/>
       <path id="ArialMT-41" d="M -9 0 
L 1750 4581 
L 2403 4581 
L 4278 0 
L 3588 0 
L 3053 1388 
L 1138 1388 
L 634 0 
L -9 0 
z
M 1313 1881 
L 2866 1881 
L 2388 3150 
Q 2169 3728 2063 4100 
Q 1975 3659 1816 3225 
L 1313 1881 
z
" transform="scale(0.015625)"/>
       <path id="ArialMT-71" d="M 2538 -1272 
L 2538 353 
Q 2406 169 2170 47 
Q 1934 -75 1669 -75 
Q 1078 -75 651 397 
Q 225 869 225 1691 
Q 225 2191 398 2587 
Q 572 2984 901 3189 
Q 1231 3394 1625 3394 
Q 2241 3394 2594 2875 
L 2594 3319 
L 3100 3319 
L 3100 -1272 
L 2538 -1272 
z
M 803 1669 
Q 803 1028 1072 708 
Q 1341 388 1716 388 
Q 2075 388 2334 692 
Q 2594 997 2594 1619 
Q 2594 2281 2320 2615 
Q 2047 2950 1678 2950 
Q 1313 2950 1058 2639 
Q 803 2328 803 1669 
z
" transform="scale(0.015625)"/>
       <path id="ArialMT-46" d="M 525 0 
L 525 4581 
L 3616 4581 
L 3616 4041 
L 1131 4041 
L 1131 2622 
L 3281 2622 
L 3281 2081 
L 1131 2081 
L 1131 0 
L 525 0 
z
" transform="scale(0.015625)"/>
      </defs>
      <use xlink:href="#ArialMT-49"/>
      <use xlink:href="#ArialMT-6e" x="27.783203"/>
      <use xlink:href="#ArialMT-66" x="83.398438"/>
      <use xlink:href="#ArialMT-6f" x="111.181641"/>
      <use xlink:href="#ArialMT-72" x="166.796875"/>
      <use xlink:href="#ArialMT-6d" x="200.097656"/>
      <use xlink:href="#ArialMT-61" x="283.398438"/>
      <use xlink:href="#ArialMT-74" x="339.013672"/>
      <use xlink:href="#ArialMT-69" x="366.796875"/>
      <use xlink:href="#ArialMT-6f" x="389.013672"/>
      <use xlink:href="#ArialMT-6e" x="444.628906"/>
      <use xlink:href="#ArialMT-20" x="500.244141"/>
      <use xlink:href="#ArialMT-41" x="522.527344"/>
      <use xlink:href="#ArialMT-63" x="589.226562"/>
      <use xlink:href="#ArialMT-71" x="639.226562"/>
      <use xlink:href="#ArialMT-75" x="694.841797"/>
      <use xlink:href="#ArialMT-69" x="750.457031"/>
      <use xlink:href="#ArialMT-73" x="772.673828"/>
      <use xlink:href="#ArialMT-69" x="822.673828"/>
      <use xlink:href="#ArialMT-74" x="844.890625"/>
      <use xlink:href="#ArialMT-69" x="872.673828"/>
      <use xlink:href="#ArialMT-6f" x="894.890625"/>
      <use xlink:href="#ArialMT-6e" x="950.505859"/>
      <use xlink:href="#ArialMT-20" x="1006.121094"/>
      <use xlink:href="#ArialMT-46" x="1033.904297"/>
      <use xlink:href="#ArialMT-75" x="1094.988281"/>
      <use xlink:href="#ArialMT-6e" x="1150.603516"/>
      <use xlink:href="#ArialMT-63" x="1206.21875"/>
      <use xlink:href="#ArialMT-74" x="1256.21875"/>
      <use xlink:href="#ArialMT-69" x="1284.001953"/>
      <use xlink:href="#ArialMT-6f" x="1306.21875"/>
      <use xlink:href="#ArialMT-6e" x="1361.833984"/>
     </g>
    </g>
   </g>
   <g id="line2d_23">
    <path d="M 54.545602 274.084794 
L 57.824941 274.084794 
L 61.10428 274.084794 
L 64.383619 274.084794 
L 67.662958 274.084794 
L 70.942296 274.084794 
L 74.221636 274.084792 
L 77.500973 274.08477 
L 80.780313 274.084561 
L 84.059653 274.082746 
L 87.33899 274.08239 
L 90.61833 274.079191 
L 93.89767 274.062771 
L 97.177007 273.969694 
L 100.456344 273.601272 
L 103.735686 272.383903 
L 107.015024 269.066733 
L 110.294361 261.477849 
L 113.573703 246.830544 
L 116.853041 222.846868 
L 120.132378 189.462111 
L 123.41172 150.229932 
L 126.691057 112.103651 
L 129.970395 82.973403 
L 133.249737 67.565366 
L 136.529069 64.020372 
L 139.808412 64.379534 
L 143.087754 59.925745 
L 146.367086 48.011818 
L 149.646428 34.966648 
L 152.92577 32.1675 
L 156.205103 48.183875 
L 159.484445 83.346127 
L 162.763787 130.194911 
L 166.04312 177.98887 
L 169.322462 217.759545 
L 172.601804 245.331626 
L 175.881137 261.348991 
L 179.160479 269.166077 
L 182.439821 272.397964 
L 185.719153 273.550437 
L 188.998496 273.921509 
L 192.277838 274.033554 
L 195.55717 274.067497 
L 198.836512 274.075153 
L 202.115855 274.081556 
L 205.395187 274.082228 
L 208.674529 274.083726 
L 211.953871 274.085339 
L 215.233204 274.0875 
L 218.512556 274.086013 
L 221.791879 274.081695 
L 225.071221 274.083474 
L 228.350563 274.084331 
L 231.629886 274.084667 
L 234.909247 274.084768 
L 238.18857 274.084791 
L 241.467912 274.084794 
L 244.747254 274.084794 
L 248.026597 274.084794 
L 251.305939 274.084794 
L 254.585262 274.084794 
L 257.864623 274.084794 
L 261.143946 274.084794 
L 264.423288 274.084794 
L 267.70263 274.084794 
L 270.981953 274.084794 
L 274.261315 274.084794 
L 277.540637 274.084794 
L 280.81998 274.084794 
L 284.099322 274.084794 
L 287.378664 274.084794 
L 290.658006 274.084794 
L 293.937329 274.084794 
L 297.21669 274.084794 
L 300.496013 274.084794 
L 303.775355 274.084794 
L 307.054697 274.084794 
L 310.33402 274.084793 
L 313.613382 274.084765 
L 316.892705 274.084465 
L 320.172047 274.082384 
L 323.451389 274.08487 
L 326.730731 274.084638 
L 330.010073 274.079919 
L 333.289396 274.072766 
L 336.568738 274.061905 
L 339.84808 274.047503 
L 343.127423 274.035357 
L 346.406765 274.034478 
L 349.686088 274.037465 
L 352.96543 274.049121 
L 356.244772 274.062628 
L 359.524114 274.069944 
L 362.803456 274.074777 
L 366.082798 274.076015 
L 369.362141 274.071236 
L 372.641463 274.056268 
L 375.920806 273.992137 
L 379.200148 273.751617 
" clip-path="url(#pe2544b05ce)" style="fill: none; stroke: #ff7f0e; stroke-width: 1.2; stroke-linecap: round"/>
   </g>
   <g id="line2d_24">
    <path d="M 152.92577 274.084794 
L 152.92577 271.641185 
L 152.92577 269.197576 
L 152.92577 266.753967 
L 152.92577 264.310358 
L 152.92577 261.86675 
L 152.92577 259.42314 
L 152.92577 256.979531 
L 152.92577 254.535922 
L 152.92577 252.092313 
L 152.92577 249.648705 
L 152.92577 247.205094 
L 152.92577 244.761485 
L 152.92577 242.317877 
L 152.92577 239.874268 
L 152.92577 237.430659 
L 152.92577 234.98705 
L 152.92577 232.543441 
L 152.92577 230.099833 
L 152.92577 227.656224 
L 152.92577 225.212615 
L 152.92577 222.769006 
L 152.92577 220.325394 
L 152.92577 217.881789 
L 152.92577 215.438177 
L 152.92577 212.994571 
L 152.92577 210.550959 
L 152.92577 208.107353 
L 152.92577 205.663741 
L 152.92577 203.220136 
L 152.92577 200.776524 
L 152.92577 198.332918 
L 152.92577 195.889306 
L 152.92577 193.445694 
L 152.92577 191.002088 
L 152.92577 188.558477 
L 152.92577 186.114871 
L 152.92577 183.671259 
L 152.92577 181.227653 
L 152.92577 178.784041 
L 152.92577 176.340436 
L 152.92577 173.896824 
L 152.92577 171.453218 
L 152.92577 169.009606 
L 152.92577 166.565994 
L 152.92577 164.122395 
L 152.92577 161.678783 
L 152.92577 159.235171 
L 152.92577 156.791559 
L 152.92577 154.347947 
L 152.92577 151.904347 
L 152.92577 149.460736 
L 152.92577 147.017124 
L 152.92577 144.573512 
L 152.92577 142.1299 
L 152.92577 139.6863 
L 152.92577 137.242688 
L 152.92577 134.799076 
L 152.92577 132.355477 
L 152.92577 129.911853 
L 152.92577 127.468253 
L 152.92577 125.024641 
L 152.92577 122.581029 
L 152.92577 120.13743 
L 152.92577 117.693818 
L 152.92577 115.250206 
L 152.92577 112.806606 
L 152.92577 110.362982 
L 152.92577 107.919383 
L 152.92577 105.475771 
L 152.92577 103.032159 
L 152.92577 100.588559 
L 152.92577 98.144935 
L 152.92577 95.701335 
L 152.92577 93.257723 
L 152.92577 90.814112 
L 152.92577 88.370512 
L 152.92577 85.9269 
L 152.92577 83.483288 
L 152.92577 81.039676 
L 152.92577 78.596064 
L 152.92577 76.152465 
L 152.92577 73.708853 
L 152.92577 71.265241 
L 152.92577 68.821642 
L 152.92577 66.378017 
L 152.92577 63.934418 
L 152.92577 61.490818 
L 152.92577 59.047194 
L 152.92577 56.603594 
L 152.92577 54.15997 
L 152.92577 51.716371 
L 152.92577 49.272771 
L 152.92577 46.829147 
L 152.92577 44.385547 
L 152.92577 41.941948 
L 152.92577 39.498323 
L 152.92577 37.054724 
L 152.92577 34.6111 
L 152.92577 32.1675 
" clip-path="url(#pe2544b05ce)" style="fill: none; stroke: #ff7f0e; stroke-linecap: round"/>
   </g>
   <g id="patch_7">
    <path d="M 38.312875 286.1835 
L 38.312875 20.0715 
" style="fill: none; stroke: #262626; stroke-linejoin: miter; stroke-linecap: square"/>
   </g>
   <g id="patch_8">
    <path d="M 395.432875 286.1835 
L 395.432875 20.0715 
" style="fill: none; stroke: #262626; stroke-linejoin: miter; stroke-linecap: square"/>
   </g>
   <g id="patch_9">
    <path d="M 38.312875 286.1835 
L 395.432875 286.1835 
" style="fill: none; stroke: #262626; stroke-linejoin: miter; stroke-linecap: square"/>
   </g>
   <g id="patch_10">
    <path d="M 38.312875 20.0715 
L 395.432875 20.0715 
" style="fill: none; stroke: #262626; stroke-linejoin: miter; stroke-linecap: square"/>
   </g>
  </g>
 </g>
 <defs>
  <clipPath id="pe2544b05ce">
   <rect x="38.312875" y="20.0715" width="357.12" height="266.112"/>
  </clipPath>
 </defs>
</svg>