<?xml version="1.0" encoding="utf-8" standalone="no"?>
<!DOCTYPE svg PUBLIC "-//W3C//DTD SVG 1.1//EN"
  "http://www.w3.org/Graphics/SVG/1.1/DTD/svg11.dtd">
<svg xmlns:xlink="http://www.w3.org/1999/xlink" width="457.92pt" height="342.72pt" viewBox="0 0 457.92 342.72" xmlns="http://www.w3.org/2000/svg" version="1.1">
 <metadata>
  <rdf:RDF xmlns:dc="http://purl.org/dc/elements/1.1/" xmlns:cc="http://creativecommons.org/ns#" xmlns:rdf="http://www.w3.org/1999/02/22-rdf-syntax-ns#">
   <cc:Work>
    <dc:type rdf:resource="http://purl.org/dc/dcmitype/StillImage"/>
    <dc:date>2025-06-16T17:58:31.543265</dc:date>
    <dc:format>image/svg+xml</dc:format>
    <dc:creator>
     <cc:Agent>
      <dc:title>Matplotlib v3.9.2, https://matplotlib.org/</dc:title>
     </cc:Agent>
    </dc:creator>
   </cc:Work>
  </rdf:RDF>
 </metadata>
 <defs>
  <style type="text/css">*{stroke-linejoin: round; stroke-linecap: butt}</style>
 </defs>
 <g id="figure_1">
  <g id="patch_1">
   <path d="M 0 342.72 
L 457.92 342.72 
L 457.92 0 
L 0 0 
z
" style="fill: #ffffff"/>
  </g>
  <g id="axes_1">
   <g id="patch_2">
    <path d="M 26.89625 313.502812 
L 450.72 313.502812 
L 450.72 7.2 
L 26.89625 7.2 
z
" style="fill: #ffffff"/>
   </g>
   <g id="matplotlib.axis_1">
    <g id="xtick_1">
     <g id="line2d_1"/>
     <g id="text_1">
      <!-- 0.0 -->
      <g style="fill: #262626" transform="translate(40.594872 322.321719) scale(0.07 -0.07)">
       <defs>
        <path id="DejaVuSerif-30" d="M 2034 219 
Q 2513 219 2750 744 
Q 2988 1269 2988 2328 
Q 2988 3391 2750 3916 
Q 2513 4441 2034 4441 
Q 1556 4441 1318 3916 
Q 1081 3391 1081 2328 
Q 1081 1269 1318 744 
Q 1556 219 2034 219 
z
M 2034 -91 
Q 1275 -91 848 546 
Q 422 1184 422 2328 
Q 422 3475 848 4112 
Q 1275 4750 2034 4750 
Q 2797 4750 3222 4112 
Q 3647 3475 3647 2328 
Q 3647 1184 3222 546 
Q 2797 -91 2034 -91 
z
" transform="scale(0.015625)"/>
        <path id="DejaVuSerif-2e" d="M 603 325 
Q 603 500 722 622 
Q 841 744 1019 744 
Q 1191 744 1312 622 
Q 1434 500 1434 325 
Q 1434 153 1312 31 
Q 1191 -91 1019 -91 
Q 841 -91 722 29 
Q 603 150 603 325 
z
" transform="scale(0.015625)"/>
       </defs>
       <use xlink:href="#DejaVuSerif-30"/>
       <use xlink:href="#DejaVuSerif-2e" x="63.623047"/>
       <use xlink:href="#DejaVuSerif-30" x="95.410156"/>
      </g>
     </g>
    </g>
    <g id="xtick_2">
     <g id="line2d_2"/>
     <g id="text_2">
      <!-- 0.5 -->
      <g style="fill: #262626" transform="translate(88.756662 322.321719) scale(0.07 -0.07)">
       <defs>
        <path id="DejaVuSerif-35" d="M 3219 4666 
L 3219 4153 
L 1081 4153 
L 1081 2816 
Q 1244 2928 1461 2984 
Q 1678 3041 1947 3041 
Q 2703 3041 3140 2622 
Q 3578 2203 3578 1478 
Q 3578 738 3136 323 
Q 2694 -91 1894 -91 
Q 1572 -91 1234 -12 
Q 897 66 544 225 
L 544 1131 
L 897 1131 
Q 925 688 1179 453 
Q 1434 219 1894 219 
Q 2388 219 2653 544 
Q 2919 869 2919 1478 
Q 2919 2084 2655 2407 
Q 2391 2731 1894 2731 
Q 1613 2731 1398 2631 
Q 1184 2531 1019 2322 
L 750 2322 
L 750 4666 
L 3219 4666 
z
" transform="scale(0.015625)"/>
       </defs>
       <use xlink:href="#DejaVuSerif-30"/>
       <use xlink:href="#DejaVuSerif-2e" x="63.623047"/>
       <use xlink:href="#DejaVuSerif-35" x="95.410156"/>
      </g>
     </g>
    </g>
    <g id="xtick_3">
     <g id="line2d_3"/>
     <g id="text_3">
      <!-- 1.0 -->
      <g style="fill: #262626" transform="translate(136.918452 322.321719) scale(0.07 -0.07)">
       <defs>
        <path id="DejaVuSerif-31" d="M 909 0 
L 909 331 
L 1722 331 
L 1722 4213 
L 781 3603 
L 781 4013 
L 1919 4750 
L 2350 4750 
L 2350 331 
L 3163 331 
L 3163 0 
L 909 0 
z
" transform="scale(0.015625)"/>
       </defs>
       <use xlink:href="#DejaVuSerif-31"/>
       <use xlink:href="#DejaVuSerif-2e" x="63.623047"/>
       <use xlink:href="#DejaVuSerif-30" x="95.410156"/>
      </g>
     </g>
    </g>
    <g id="xtick_4">
     <g id="line2d_4"/>
     <g id="text_4">
      <!-- 1.5 -->
      <g style="fill: #262626" transform="translate(185.080241 322.321719) scale(0.07 -0.07)">
       <use xlink:href="#DejaVuSerif-31"/>
       <use xlink:href="#DejaVuSerif-2e" x="63.623047"/>
       <use xlink:href="#DejaVuSerif-35" x="95.410156"/>
      </g>
     </g>
    </g>
    <g id="xtick_5">
     <g id="line2d_5"/>
     <g id="text_5">
      <!-- 2.0 -->
      <g style="fill: #262626" transform="translate(233.242031 322.321719) scale(0.07 -0.07)">
       <defs>
        <path id="DejaVuSerif-32" d="M 819 3553 
L 469 3553 
L 469 4384 
Q 803 4563 1142 4656 
Q 1481 4750 1806 4750 
Q 2534 4750 2956 4397 
Q 3378 4044 3378 3438 
Q 3378 2753 2422 1800 
Q 2347 1728 2309 1691 
L 1131 513 
L 3078 513 
L 3078 1088 
L 3444 1088 
L 3444 0 
L 434 0 
L 434 341 
L 1850 1753 
Q 2319 2222 2519 2614 
Q 2719 3006 2719 3438 
Q 2719 3909 2473 4175 
Q 2228 4441 1797 4441 
Q 1350 4441 1106 4219 
Q 863 3997 819 3553 
z
" transform="scale(0.015625)"/>
       </defs>
       <use xlink:href="#DejaVuSerif-32"/>
       <use xlink:href="#DejaVuSerif-2e" x="63.623047"/>
       <use xlink:href="#DejaVuSerif-30" x="95.410156"/>
      </g>
     </g>
    </g>
    <g id="xtick_6">
     <g id="line2d_6"/>
     <g id="text_6">
      <!-- 2.5 -->
      <g style="fill: #262626" transform="translate(281.403821 322.321719) scale(0.07 -0.07)">
       <use xlink:href="#DejaVuSerif-32"/>
       <use xlink:href="#DejaVuSerif-2e" x="63.623047"/>
       <use xlink:href="#DejaVuSerif-35" x="95.410156"/>
      </g>
     </g>
    </g>
    <g id="xtick_7">
     <g id="line2d_7"/>
     <g id="text_7">
      <!-- 3.0 -->
      <g style="fill: #262626" transform="translate(329.565611 322.321719) scale(0.07 -0.07)">
       <defs>
        <path id="DejaVuSerif-33" d="M 622 4469 
Q 988 4606 1323 4678 
Q 1659 4750 1953 4750 
Q 2638 4750 3022 4454 
Q 3406 4159 3406 3634 
Q 3406 3213 3140 2930 
Q 2875 2647 2388 2547 
Q 2963 2466 3280 2130 
Q 3597 1794 3597 1259 
Q 3597 606 3158 257 
Q 2719 -91 1894 -91 
Q 1528 -91 1179 -12 
Q 831 66 488 225 
L 488 1131 
L 838 1131 
Q 869 681 1141 450 
Q 1413 219 1906 219 
Q 2384 219 2661 495 
Q 2938 772 2938 1253 
Q 2938 1803 2653 2086 
Q 2369 2369 1819 2369 
L 1522 2369 
L 1522 2688 
L 1678 2688 
Q 2225 2688 2498 2914 
Q 2772 3141 2772 3597 
Q 2772 4006 2547 4223 
Q 2322 4441 1900 4441 
Q 1478 4441 1245 4241 
Q 1013 4041 972 3647 
L 622 3647 
L 622 4469 
z
" transform="scale(0.015625)"/>
       </defs>
       <use xlink:href="#DejaVuSerif-33"/>
       <use xlink:href="#DejaVuSerif-2e" x="63.623047"/>
       <use xlink:href="#DejaVuSerif-30" x="95.410156"/>
      </g>
     </g>
    </g>
    <g id="xtick_8">
     <g id="line2d_8"/>
     <g id="text_8">
      <!-- 3.5 -->
      <g style="fill: #262626" transform="translate(377.727401 322.321719) scale(0.07 -0.07)">
       <use xlink:href="#DejaVuSerif-33"/>
       <use xlink:href="#DejaVuSerif-2e" x="63.623047"/>
       <use xlink:href="#DejaVuSerif-35" x="95.410156"/>
      </g>
     </g>
    </g>
    <g id="xtick_9">
     <g id="line2d_9"/>
     <g id="text_9">
      <!-- 4.0 -->
      <g style="fill: #262626" transform="translate(425.88919 322.321719) scale(0.07 -0.07)">
       <defs>
        <path id="DejaVuSerif-34" d="M 2234 1581 
L 2234 4063 
L 641 1581 
L 2234 1581 
z
M 3609 0 
L 1484 0 
L 1484 331 
L 2234 331 
L 2234 1247 
L 197 1247 
L 197 1588 
L 2241 4750 
L 2859 4750 
L 2859 1581 
L 3750 1581 
L 3750 1247 
L 2859 1247 
L 2859 331 
L 3609 331 
L 3609 0 
z
" transform="scale(0.015625)"/>
       </defs>
       <use xlink:href="#DejaVuSerif-34"/>
       <use xlink:href="#DejaVuSerif-2e" x="63.623047"/>
       <use xlink:href="#DejaVuSerif-30" x="95.410156"/>
      </g>
     </g>
    </g>
    <g id="text_10">
     <!-- $x$ -->
     <g style="fill: #262626" transform="translate(236.408125 333.85625) scale(0.08 -0.08)">
      <defs>
       <path id="DejaVuSans-Oblique-78" d="M 3841 3500 
L 2234 1784 
L 3219 0 
L 2559 0 
L 1819 1388 
L 531 0 
L -166 0 
L 1556 1844 
L 641 3500 
L 1300 3500 
L 1972 2234 
L 3144 3500 
L 3841 3500 
z
" transform="scale(0.015625)"/>
      </defs>
      <use xlink:href="#DejaVuSans-Oblique-78" transform="translate(0 0.3125)"/>
     </g>
    </g>
   </g>
   <g id="matplotlib.axis_2">
    <g id="ytick_1">
     <g id="line2d_10"/>
     <g id="text_11">
      <!-- 0 -->
      <g style="fill: #262626" transform="translate(18.9425 302.239411) scale(0.07 -0.07)">
       <use xlink:href="#DejaVuSerif-30"/>
      </g>
     </g>
    </g>
    <g id="ytick_2">
     <g id="line2d_11"/>
     <g id="text_12">
      <!-- 2 -->
      <g style="fill: #262626" transform="translate(18.9425 240.360054) scale(0.07 -0.07)">
       <use xlink:href="#DejaVuSerif-32"/>
      </g>
     </g>
    </g>
    <g id="ytick_3">
     <g id="line2d_12"/>
     <g id="text_13">
      <!-- 4 -->
      <g style="fill: #262626" transform="translate(18.9425 178.480698) scale(0.07 -0.07)">
       <use xlink:href="#DejaVuSerif-34"/>
      </g>
     </g>
    </g>
    <g id="ytick_4">
     <g id="line2d_13"/>
     <g id="text_14">
      <!-- 6 -->
      <g style="fill: #262626" transform="translate(18.9425 116.601342) scale(0.07 -0.07)">
       <defs>
        <path id="DejaVuSerif-36" d="M 2094 219 
Q 2534 219 2771 542 
Q 3009 866 3009 1472 
Q 3009 2078 2771 2401 
Q 2534 2725 2094 2725 
Q 1647 2725 1412 2412 
Q 1178 2100 1178 1509 
Q 1178 888 1415 553 
Q 1653 219 2094 219 
z
M 1075 2569 
Q 1288 2803 1556 2918 
Q 1825 3034 2163 3034 
Q 2859 3034 3264 2615 
Q 3669 2197 3669 1472 
Q 3669 763 3233 336 
Q 2797 -91 2069 -91 
Q 1278 -91 853 498 
Q 428 1088 428 2181 
Q 428 3406 931 4078 
Q 1434 4750 2350 4750 
Q 2597 4750 2869 4703 
Q 3141 4656 3425 4563 
L 3425 3794 
L 3072 3794 
Q 3034 4109 2831 4275 
Q 2628 4441 2284 4441 
Q 1678 4441 1381 3981 
Q 1084 3522 1075 2569 
z
" transform="scale(0.015625)"/>
       </defs>
       <use xlink:href="#DejaVuSerif-36"/>
      </g>
     </g>
    </g>
    <g id="ytick_5">
     <g id="line2d_14"/>
     <g id="text_15">
      <!-- 8 -->
      <g style="fill: #262626" transform="translate(18.9425 54.721986) scale(0.07 -0.07)">
       <defs>
        <path id="DejaVuSerif-38" d="M 2981 1275 
Q 2981 1775 2732 2051 
Q 2484 2328 2034 2328 
Q 1584 2328 1336 2051 
Q 1088 1775 1088 1275 
Q 1088 772 1336 495 
Q 1584 219 2034 219 
Q 2484 219 2732 495 
Q 2981 772 2981 1275 
z
M 2853 3541 
Q 2853 3966 2637 4203 
Q 2422 4441 2034 4441 
Q 1650 4441 1433 4203 
Q 1216 3966 1216 3541 
Q 1216 3113 1433 2875 
Q 1650 2638 2034 2638 
Q 2422 2638 2637 2875 
Q 2853 3113 2853 3541 
z
M 2516 2484 
Q 3047 2413 3344 2092 
Q 3641 1772 3641 1275 
Q 3641 619 3225 264 
Q 2809 -91 2034 -91 
Q 1263 -91 845 264 
Q 428 619 428 1275 
Q 428 1772 725 2092 
Q 1022 2413 1556 2484 
Q 1084 2569 832 2842 
Q 581 3116 581 3541 
Q 581 4103 968 4426 
Q 1356 4750 2034 4750 
Q 2713 4750 3100 4426 
Q 3488 4103 3488 3541 
Q 3488 3116 3236 2842 
Q 2984 2569 2516 2484 
z
" transform="scale(0.015625)"/>
       </defs>
       <use xlink:href="#DejaVuSerif-38"/>
      </g>
     </g>
    </g>
    <g id="text_16">
     <!-- $y$ -->
     <g style="fill: #262626" transform="translate(13.2625 162.751406) rotate(-90) scale(0.08 -0.08)">
      <defs>
       <path id="DejaVuSans-Oblique-79" d="M 1588 -325 
Q 1188 -997 936 -1164 
Q 684 -1331 294 -1331 
L -159 -1331 
L -63 -850 
L 269 -850 
Q 509 -850 678 -719 
Q 847 -588 1056 -206 
L 1234 128 
L 459 3500 
L 1069 3500 
L 1650 819 
L 3256 3500 
L 3859 3500 
L 1588 -325 
z
" transform="scale(0.015625)"/>
      </defs>
      <use xlink:href="#DejaVuSans-Oblique-79" transform="translate(0 0.3125)"/>
     </g>
    </g>
   </g>
   <g id="PathCollection_1">
    <defs>
     <path id="m9ab599e809" d="M 0 2 
C 0.530406 2 1.03916 1.789267 1.414214 1.414214 
C 1.789267 1.03916 2 0.530406 2 0 
C 2 -0.530406 1.789267 -1.03916 1.414214 -1.414214 
C 1.03916 -1.789267 0.530406 -2 0 -2 
C -0.530406 -2 -1.03916 -1.789267 -1.414214 -1.414214 
C -1.789267 -1.03916 -2 -0.530406 -2 0 
C -2 0.530406 -1.789267 1.03916 -1.414214 1.414214 
C -1.03916 1.789267 -0.530406 2 0 2 
z
" style="stroke: #4c72b0; stroke-opacity: 0.1; stroke-width: 0.8"/>
    </defs>
    <g clip-path="url(#pb4e271481a)">
     <use xlink:href="#m9ab599e809" x="142.484545" y="52.062533" style="fill: #4c72b0; fill-opacity: 0.1; stroke: #4c72b0; stroke-opacity: 0.1; stroke-width: 0.8"/>
     <use xlink:href="#m9ab599e809" x="142.484545" y="113.941889" style="fill: #4c72b0; fill-opacity: 0.1; stroke: #4c72b0; stroke-opacity: 0.1; stroke-width: 0.8"/>
     <use xlink:href="#m9ab599e809" x="238.808125" y="113.941889" style="fill: #4c72b0; fill-opacity: 0.1; stroke: #4c72b0; stroke-opacity: 0.1; stroke-width: 0.8"/>
     <use xlink:href="#m9ab599e809" x="46.160966" y="52.062533" style="fill: #4c72b0; fill-opacity: 0.1; stroke: #4c72b0; stroke-opacity: 0.1; stroke-width: 0.8"/>
     <use xlink:href="#m9ab599e809" x="46.160966" y="113.941889" style="fill: #4c72b0; fill-opacity: 0.1; stroke: #4c72b0; stroke-opacity: 0.1; stroke-width: 0.8"/>
     <use xlink:href="#m9ab599e809" x="335.131705" y="237.700601" style="fill: #4c72b0; fill-opacity: 0.1; stroke: #4c72b0; stroke-opacity: 0.1; stroke-width: 0.8"/>
     <use xlink:href="#m9ab599e809" x="335.131705" y="52.062533" style="fill: #4c72b0; fill-opacity: 0.1; stroke: #4c72b0; stroke-opacity: 0.1; stroke-width: 0.8"/>
     <use xlink:href="#m9ab599e809" x="238.808125" y="113.941889" style="fill: #4c72b0; fill-opacity: 0.1; stroke: #4c72b0; stroke-opacity: 0.1; stroke-width: 0.8"/>
     <use xlink:href="#m9ab599e809" x="431.455284" y="52.062533" style="fill: #4c72b0; fill-opacity: 0.1; stroke: #4c72b0; stroke-opacity: 0.1; stroke-width: 0.8"/>
     <use xlink:href="#m9ab599e809" x="238.808125" y="52.062533" style="fill: #4c72b0; fill-opacity: 0.1; stroke: #4c72b0; stroke-opacity: 0.1; stroke-width: 0.8"/>
     <use xlink:href="#m9ab599e809" x="431.455284" y="237.700601" style="fill: #4c72b0; fill-opacity: 0.1; stroke: #4c72b0; stroke-opacity: 0.1; stroke-width: 0.8"/>
     <use xlink:href="#m9ab599e809" x="238.808125" y="237.700601" style="fill: #4c72b0; fill-opacity: 0.1; stroke: #4c72b0; stroke-opacity: 0.1; stroke-width: 0.8"/>
     <use xlink:href="#m9ab599e809" x="142.484545" y="83.002211" style="fill: #4c72b0; fill-opacity: 0.1; stroke: #4c72b0; stroke-opacity: 0.1; stroke-width: 0.8"/>
     <use xlink:href="#m9ab599e809" x="335.131705" y="237.700601" style="fill: #4c72b0; fill-opacity: 0.1; stroke: #4c72b0; stroke-opacity: 0.1; stroke-width: 0.8"/>
     <use xlink:href="#m9ab599e809" x="238.808125" y="206.760923" style="fill: #4c72b0; fill-opacity: 0.1; stroke: #4c72b0; stroke-opacity: 0.1; stroke-width: 0.8"/>
     <use xlink:href="#m9ab599e809" x="142.484545" y="299.579957" style="fill: #4c72b0; fill-opacity: 0.1; stroke: #4c72b0; stroke-opacity: 0.1; stroke-width: 0.8"/>
     <use xlink:href="#m9ab599e809" x="142.484545" y="268.640279" style="fill: #4c72b0; fill-opacity: 0.1; stroke: #4c72b0; stroke-opacity: 0.1; stroke-width: 0.8"/>
     <use xlink:href="#m9ab599e809" x="335.131705" y="52.062533" style="fill: #4c72b0; fill-opacity: 0.1; stroke: #4c72b0; stroke-opacity: 0.1; stroke-width: 0.8"/>
     <use xlink:href="#m9ab599e809" x="238.808125" y="237.700601" style="fill: #4c72b0; fill-opacity: 0.1; stroke: #4c72b0; stroke-opacity: 0.1; stroke-width: 0.8"/>
     <use xlink:href="#m9ab599e809" x="431.455284" y="206.760923" style="fill: #4c72b0; fill-opacity: 0.1; stroke: #4c72b0; stroke-opacity: 0.1; stroke-width: 0.8"/>
     <use xlink:href="#m9ab599e809" x="431.455284" y="113.941889" style="fill: #4c72b0; fill-opacity: 0.1; stroke: #4c72b0; stroke-opacity: 0.1; stroke-width: 0.8"/>
     <use xlink:href="#m9ab599e809" x="238.808125" y="144.881567" style="fill: #4c72b0; fill-opacity: 0.1; stroke: #4c72b0; stroke-opacity: 0.1; stroke-width: 0.8"/>
     <use xlink:href="#m9ab599e809" x="142.484545" y="268.640279" style="fill: #4c72b0; fill-opacity: 0.1; stroke: #4c72b0; stroke-opacity: 0.1; stroke-width: 0.8"/>
     <use xlink:href="#m9ab599e809" x="335.131705" y="175.821245" style="fill: #4c72b0; fill-opacity: 0.1; stroke: #4c72b0; stroke-opacity: 0.1; stroke-width: 0.8"/>
     <use xlink:href="#m9ab599e809" x="142.484545" y="83.002211" style="fill: #4c72b0; fill-opacity: 0.1; stroke: #4c72b0; stroke-opacity: 0.1; stroke-width: 0.8"/>
     <use xlink:href="#m9ab599e809" x="238.808125" y="237.700601" style="fill: #4c72b0; fill-opacity: 0.1; stroke: #4c72b0; stroke-opacity: 0.1; stroke-width: 0.8"/>
     <use xlink:href="#m9ab599e809" x="142.484545" y="299.579957" style="fill: #4c72b0; fill-opacity: 0.1; stroke: #4c72b0; stroke-opacity: 0.1; stroke-width: 0.8"/>
     <use xlink:href="#m9ab599e809" x="142.484545" y="83.002211" style="fill: #4c72b0; fill-opacity: 0.1; stroke: #4c72b0; stroke-opacity: 0.1; stroke-width: 0.8"/>
     <use xlink:href="#m9ab599e809" x="238.808125" y="21.122855" style="fill: #4c72b0; fill-opacity: 0.1; stroke: #4c72b0; stroke-opacity: 0.1; stroke-width: 0.8"/>
     <use xlink:href="#m9ab599e809" x="142.484545" y="113.941889" style="fill: #4c72b0; fill-opacity: 0.1; stroke: #4c72b0; stroke-opacity: 0.1; stroke-width: 0.8"/>
     <use xlink:href="#m9ab599e809" x="335.131705" y="113.941889" style="fill: #4c72b0; fill-opacity: 0.1; stroke: #4c72b0; stroke-opacity: 0.1; stroke-width: 0.8"/>
     <use xlink:href="#m9ab599e809" x="335.131705" y="52.062533" style="fill: #4c72b0; fill-opacity: 0.1; stroke: #4c72b0; stroke-opacity: 0.1; stroke-width: 0.8"/>
     <use xlink:href="#m9ab599e809" x="431.455284" y="299.579957" style="fill: #4c72b0; fill-opacity: 0.1; stroke: #4c72b0; stroke-opacity: 0.1; stroke-width: 0.8"/>
     <use xlink:href="#m9ab599e809" x="431.455284" y="113.941889" style="fill: #4c72b0; fill-opacity: 0.1; stroke: #4c72b0; stroke-opacity: 0.1; stroke-width: 0.8"/>
     <use xlink:href="#m9ab599e809" x="46.160966" y="113.941889" style="fill: #4c72b0; fill-opacity: 0.1; stroke: #4c72b0; stroke-opacity: 0.1; stroke-width: 0.8"/>
     <use xlink:href="#m9ab599e809" x="431.455284" y="237.700601" style="fill: #4c72b0; fill-opacity: 0.1; stroke: #4c72b0; stroke-opacity: 0.1; stroke-width: 0.8"/>
     <use xlink:href="#m9ab599e809" x="142.484545" y="113.941889" style="fill: #4c72b0; fill-opacity: 0.1; stroke: #4c72b0; stroke-opacity: 0.1; stroke-width: 0.8"/>
     <use xlink:href="#m9ab599e809" x="335.131705" y="21.122855" style="fill: #4c72b0; fill-opacity: 0.1; stroke: #4c72b0; stroke-opacity: 0.1; stroke-width: 0.8"/>
     <use xlink:href="#m9ab599e809" x="431.455284" y="237.700601" style="fill: #4c72b0; fill-opacity: 0.1; stroke: #4c72b0; stroke-opacity: 0.1; stroke-width: 0.8"/>
     <use xlink:href="#m9ab599e809" x="46.160966" y="268.640279" style="fill: #4c72b0; fill-opacity: 0.1; stroke: #4c72b0; stroke-opacity: 0.1; stroke-width: 0.8"/>
     <use xlink:href="#m9ab599e809" x="46.160966" y="21.122855" style="fill: #4c72b0; fill-opacity: 0.1; stroke: #4c72b0; stroke-opacity: 0.1; stroke-width: 0.8"/>
     <use xlink:href="#m9ab599e809" x="142.484545" y="144.881567" style="fill: #4c72b0; fill-opacity: 0.1; stroke: #4c72b0; stroke-opacity: 0.1; stroke-width: 0.8"/>
     <use xlink:href="#m9ab599e809" x="238.808125" y="52.062533" style="fill: #4c72b0; fill-opacity: 0.1; stroke: #4c72b0; stroke-opacity: 0.1; stroke-width: 0.8"/>
     <use xlink:href="#m9ab599e809" x="46.160966" y="144.881567" style="fill: #4c72b0; fill-opacity: 0.1; stroke: #4c72b0; stroke-opacity: 0.1; stroke-width: 0.8"/>
     <use xlink:href="#m9ab599e809" x="46.160966" y="83.002211" style="fill: #4c72b0; fill-opacity: 0.1; stroke: #4c72b0; stroke-opacity: 0.1; stroke-width: 0.8"/>
     <use xlink:href="#m9ab599e809" x="238.808125" y="175.821245" style="fill: #4c72b0; fill-opacity: 0.1; stroke: #4c72b0; stroke-opacity: 0.1; stroke-width: 0.8"/>
     <use xlink:href="#m9ab599e809" x="335.131705" y="237.700601" style="fill: #4c72b0; fill-opacity: 0.1; stroke: #4c72b0; stroke-opacity: 0.1; stroke-width: 0.8"/>
     <use xlink:href="#m9ab599e809" x="431.455284" y="299.579957" style="fill: #4c72b0; fill-opacity: 0.1; stroke: #4c72b0; stroke-opacity: 0.1; stroke-width: 0.8"/>
     <use xlink:href="#m9ab599e809" x="238.808125" y="21.122855" style="fill: #4c72b0; fill-opacity: 0.1; stroke: #4c72b0; stroke-opacity: 0.1; stroke-width: 0.8"/>
     <use xlink:href="#m9ab599e809" x="238.808125" y="113.941889" style="fill: #4c72b0; fill-opacity: 0.1; stroke: #4c72b0; stroke-opacity: 0.1; stroke-width: 0.8"/>
     <use xlink:href="#m9ab599e809" x="335.131705" y="237.700601" style="fill: #4c72b0; fill-opacity: 0.1; stroke: #4c72b0; stroke-opacity: 0.1; stroke-width: 0.8"/>
     <use xlink:href="#m9ab599e809" x="142.484545" y="268.640279" style="fill: #4c72b0; fill-opacity: 0.1; stroke: #4c72b0; stroke-opacity: 0.1; stroke-width: 0.8"/>
     <use xlink:href="#m9ab599e809" x="431.455284" y="237.700601" style="fill: #4c72b0; fill-opacity: 0.1; stroke: #4c72b0; stroke-opacity: 0.1; stroke-width: 0.8"/>
     <use xlink:href="#m9ab599e809" x="238.808125" y="299.579957" style="fill: #4c72b0; fill-opacity: 0.1; stroke: #4c72b0; stroke-opacity: 0.1; stroke-width: 0.8"/>
     <use xlink:href="#m9ab599e809" x="46.160966" y="299.579957" style="fill: #4c72b0; fill-opacity: 0.1; stroke: #4c72b0; stroke-opacity: 0.1; stroke-width: 0.8"/>
     <use xlink:href="#m9ab599e809" x="431.455284" y="83.002211" style="fill: #4c72b0; fill-opacity: 0.1; stroke: #4c72b0; stroke-opacity: 0.1; stroke-width: 0.8"/>
     <use xlink:href="#m9ab599e809" x="335.131705" y="299.579957" style="fill: #4c72b0; fill-opacity: 0.1; stroke: #4c72b0; stroke-opacity: 0.1; stroke-width: 0.8"/>
     <use xlink:href="#m9ab599e809" x="238.808125" y="206.760923" style="fill: #4c72b0; fill-opacity: 0.1; stroke: #4c72b0; stroke-opacity: 0.1; stroke-width: 0.8"/>
     <use xlink:href="#m9ab599e809" x="335.131705" y="237.700601" style="fill: #4c72b0; fill-opacity: 0.1; stroke: #4c72b0; stroke-opacity: 0.1; stroke-width: 0.8"/>
     <use xlink:href="#m9ab599e809" x="238.808125" y="237.700601" style="fill: #4c72b0; fill-opacity: 0.1; stroke: #4c72b0; stroke-opacity: 0.1; stroke-width: 0.8"/>
     <use xlink:href="#m9ab599e809" x="431.455284" y="144.881567" style="fill: #4c72b0; fill-opacity: 0.1; stroke: #4c72b0; stroke-opacity: 0.1; stroke-width: 0.8"/>
     <use xlink:href="#m9ab599e809" x="238.808125" y="175.821245" style="fill: #4c72b0; fill-opacity: 0.1; stroke: #4c72b0; stroke-opacity: 0.1; stroke-width: 0.8"/>
     <use xlink:href="#m9ab599e809" x="46.160966" y="175.821245" style="fill: #4c72b0; fill-opacity: 0.1; stroke: #4c72b0; stroke-opacity: 0.1; stroke-width: 0.8"/>
     <use xlink:href="#m9ab599e809" x="238.808125" y="113.941889" style="fill: #4c72b0; fill-opacity: 0.1; stroke: #4c72b0; stroke-opacity: 0.1; stroke-width: 0.8"/>
     <use xlink:href="#m9ab599e809" x="238.808125" y="83.002211" style="fill: #4c72b0; fill-opacity: 0.1; stroke: #4c72b0; stroke-opacity: 0.1; stroke-width: 0.8"/>
     <use xlink:href="#m9ab599e809" x="431.455284" y="113.941889" style="fill: #4c72b0; fill-opacity: 0.1; stroke: #4c72b0; stroke-opacity: 0.1; stroke-width: 0.8"/>
     <use xlink:href="#m9ab599e809" x="142.484545" y="21.122855" style="fill: #4c72b0; fill-opacity: 0.1; stroke: #4c72b0; stroke-opacity: 0.1; stroke-width: 0.8"/>
     <use xlink:href="#m9ab599e809" x="142.484545" y="268.640279" style="fill: #4c72b0; fill-opacity: 0.1; stroke: #4c72b0; stroke-opacity: 0.1; stroke-width: 0.8"/>
     <use xlink:href="#m9ab599e809" x="46.160966" y="144.881567" style="fill: #4c72b0; fill-opacity: 0.1; stroke: #4c72b0; stroke-opacity: 0.1; stroke-width: 0.8"/>
     <use xlink:href="#m9ab599e809" x="238.808125" y="237.700601" style="fill: #4c72b0; fill-opacity: 0.1; stroke: #4c72b0; stroke-opacity: 0.1; stroke-width: 0.8"/>
     <use xlink:href="#m9ab599e809" x="238.808125" y="268.640279" style="fill: #4c72b0; fill-opacity: 0.1; stroke: #4c72b0; stroke-opacity: 0.1; stroke-width: 0.8"/>
     <use xlink:href="#m9ab599e809" x="46.160966" y="299.579957" style="fill: #4c72b0; fill-opacity: 0.1; stroke: #4c72b0; stroke-opacity: 0.1; stroke-width: 0.8"/>
     <use xlink:href="#m9ab599e809" x="335.131705" y="237.700601" style="fill: #4c72b0; fill-opacity: 0.1; stroke: #4c72b0; stroke-opacity: 0.1; stroke-width: 0.8"/>
     <use xlink:href="#m9ab599e809" x="335.131705" y="175.821245" style="fill: #4c72b0; fill-opacity: 0.1; stroke: #4c72b0; stroke-opacity: 0.1; stroke-width: 0.8"/>
     <use xlink:href="#m9ab599e809" x="335.131705" y="175.821245" style="fill: #4c72b0; fill-opacity: 0.1; stroke: #4c72b0; stroke-opacity: 0.1; stroke-width: 0.8"/>
     <use xlink:href="#m9ab599e809" x="142.484545" y="21.122855" style="fill: #4c72b0; fill-opacity: 0.1; stroke: #4c72b0; stroke-opacity: 0.1; stroke-width: 0.8"/>
     <use xlink:href="#m9ab599e809" x="46.160966" y="299.579957" style="fill: #4c72b0; fill-opacity: 0.1; stroke: #4c72b0; stroke-opacity: 0.1; stroke-width: 0.8"/>
     <use xlink:href="#m9ab599e809" x="431.455284" y="237.700601" style="fill: #4c72b0; fill-opacity: 0.1; stroke: #4c72b0; stroke-opacity: 0.1; stroke-width: 0.8"/>
     <use xlink:href="#m9ab599e809" x="335.131705" y="52.062533" style="fill: #4c72b0; fill-opacity: 0.1; stroke: #4c72b0; stroke-opacity: 0.1; stroke-width: 0.8"/>
     <use xlink:href="#m9ab599e809" x="46.160966" y="52.062533" style="fill: #4c72b0; fill-opacity: 0.1; stroke: #4c72b0; stroke-opacity: 0.1; stroke-width: 0.8"/>
     <use xlink:href="#m9ab599e809" x="142.484545" y="113.941889" style="fill: #4c72b0; fill-opacity: 0.1; stroke: #4c72b0; stroke-opacity: 0.1; stroke-width: 0.8"/>
     <use xlink:href="#m9ab599e809" x="238.808125" y="83.002211" style="fill: #4c72b0; fill-opacity: 0.1; stroke: #4c72b0; stroke-opacity: 0.1; stroke-width: 0.8"/>
     <use xlink:href="#m9ab599e809" x="142.484545" y="83.002211" style="fill: #4c72b0; fill-opacity: 0.1; stroke: #4c72b0; stroke-opacity: 0.1; stroke-width: 0.8"/>
     <use xlink:href="#m9ab599e809" x="46.160966" y="83.002211" style="fill: #4c72b0; fill-opacity: 0.1; stroke: #4c72b0; stroke-opacity: 0.1; stroke-width: 0.8"/>
     <use xlink:href="#m9ab599e809" x="46.160966" y="52.062533" style="fill: #4c72b0; fill-opacity: 0.1; stroke: #4c72b0; stroke-opacity: 0.1; stroke-width: 0.8"/>
     <use xlink:href="#m9ab599e809" x="431.455284" y="268.640279" style="fill: #4c72b0; fill-opacity: 0.1; stroke: #4c72b0; stroke-opacity: 0.1; stroke-width: 0.8"/>
     <use xlink:href="#m9ab599e809" x="142.484545" y="144.881567" style="fill: #4c72b0; fill-opacity: 0.1; stroke: #4c72b0; stroke-opacity: 0.1; stroke-width: 0.8"/>
     <use xlink:href="#m9ab599e809" x="238.808125" y="113.941889" style="fill: #4c72b0; fill-opacity: 0.1; stroke: #4c72b0; stroke-opacity: 0.1; stroke-width: 0.8"/>
     <use xlink:href="#m9ab599e809" x="238.808125" y="299.579957" style="fill: #4c72b0; fill-opacity: 0.1; stroke: #4c72b0; stroke-opacity: 0.1; stroke-width: 0.8"/>
     <use xlink:href="#m9ab599e809" x="142.484545" y="21.122855" style="fill: #4c72b0; fill-opacity: 0.1; stroke: #4c72b0; stroke-opacity: 0.1; stroke-width: 0.8"/>
     <use xlink:href="#m9ab599e809" x="431.455284" y="268.640279" style="fill: #4c72b0; fill-opacity: 0.1; stroke: #4c72b0; stroke-opacity: 0.1; stroke-width: 0.8"/>
     <use xlink:href="#m9ab599e809" x="335.131705" y="237.700601" style="fill: #4c72b0; fill-opacity: 0.1; stroke: #4c72b0; stroke-opacity: 0.1; stroke-width: 0.8"/>
     <use xlink:href="#m9ab599e809" x="142.484545" y="175.821245" style="fill: #4c72b0; fill-opacity: 0.1; stroke: #4c72b0; stroke-opacity: 0.1; stroke-width: 0.8"/>
     <use xlink:href="#m9ab599e809" x="46.160966" y="175.821245" style="fill: #4c72b0; fill-opacity: 0.1; stroke: #4c72b0; stroke-opacity: 0.1; stroke-width: 0.8"/>
     <use xlink:href="#m9ab599e809" x="46.160966" y="21.122855" style="fill: #4c72b0; fill-opacity: 0.1; stroke: #4c72b0; stroke-opacity: 0.1; stroke-width: 0.8"/>
     <use xlink:href="#m9ab599e809" x="431.455284" y="144.881567" style="fill: #4c72b0; fill-opacity: 0.1; stroke: #4c72b0; stroke-opacity: 0.1; stroke-width: 0.8"/>
     <use xlink:href="#m9ab599e809" x="431.455284" y="299.579957" style="fill: #4c72b0; fill-opacity: 0.1; stroke: #4c72b0; stroke-opacity: 0.1; stroke-width: 0.8"/>
     <use xlink:href="#m9ab599e809" x="431.455284" y="83.002211" style="fill: #4c72b0; fill-opacity: 0.1; stroke: #4c72b0; stroke-opacity: 0.1; stroke-width: 0.8"/>
     <use xlink:href="#m9ab599e809" x="46.160966" y="206.760923" style="fill: #4c72b0; fill-opacity: 0.1; stroke: #4c72b0; stroke-opacity: 0.1; stroke-width: 0.8"/>
     <use xlink:href="#m9ab599e809" x="238.808125" y="113.941889" style="fill: #4c72b0; fill-opacity: 0.1; stroke: #4c72b0; stroke-opacity: 0.1; stroke-width: 0.8"/>
    </g>
   </g>
   <g id="patch_3">
    <path d="M 26.89625 299.579957 
L 26.89625 52.062533 
" style="fill: none; stroke: #262626; stroke-width: 0.5; stroke-linejoin: miter; stroke-linecap: square"/>
   </g>
   <g id="patch_4">
    <path d="M 46.160966 313.502812 
L 431.455284 313.502812 
" style="fill: none; stroke: #262626; stroke-width: 0.5; stroke-linejoin: miter; stroke-linecap: square"/>
   </g>
  </g>
 </g>
 <defs>
  <clipPath id="pb4e271481a">
   <rect x="26.89625" y="7.2" width="423.82375" height="306.302812"/>
  </clipPath>
 </defs>
</svg>