<?xml version="1.0" encoding="utf-8" standalone="no"?>
<!DOCTYPE svg PUBLIC "-//W3C//DTD SVG 1.1//EN"
  "http://www.w3.org/Graphics/SVG/1.1/DTD/svg11.dtd">
<svg xmlns:xlink="http://www.w3.org/1999/xlink" width="398.168pt" height="309.639375pt" viewBox="0 0 398.168 309.639375" xmlns="http://www.w3.org/2000/svg" version="1.1">
 <metadata>
  <rdf:RDF xmlns:dc="http://purl.org/dc/elements/1.1/" xmlns:cc="http://creativecommons.org/ns#" xmlns:rdf="http://www.w3.org/1999/02/22-rdf-syntax-ns#">
   <cc:Work>
    <dc:type rdf:resource="http://purl.org/dc/dcmitype/StillImage"/>
    <dc:date>2023-08-15T14:38:23.018384</dc:date>
    <dc:format>image/svg+xml</dc:format>
    <dc:creator>
     <cc:Agent>
      <dc:title>Matplotlib v3.7.1, https://matplotlib.org/</dc:title>
     </cc:Agent>
    </dc:creator>
   </cc:Work>
  </rdf:RDF>
 </metadata>
 <defs>
  <style type="text/css">*{stroke-linejoin: round; stroke-linecap: butt}</style>
 </defs>
 <g id="figure_1">
  <g id="patch_1">
   <path d="M 0 309.639375 
L 398.168 309.639375 
L 398.168 0 
L 0 0 
z
" style="fill: #ffffff"/>
  </g>
  <g id="axes_1">
   <g id="patch_2">
    <path d="M 27.732 273.312 
L 384.852 273.312 
L 384.852 7.2 
L 27.732 7.2 
z
" style="fill: #ffffff"/>
   </g>
   <g id="matplotlib.axis_1">
    <g id="xtick_1">
     <g id="line2d_1">
      <defs>
       <path id="m5eeb38badb" d="M 0 0 
L 0 4.8 
" style="stroke: #262626"/>
      </defs>
      <g>
       <use xlink:href="#m5eeb38badb" x="27.732" y="273.312" style="fill: #262626; stroke: #262626"/>
      </g>
     </g>
     <g id="text_1">
      <!-- 0.0 -->
      <g style="fill: #262626" transform="translate(21.616 287.910875) scale(0.088 -0.088)">
       <defs>
        <path id="ArialMT-30" d="M 266 2259 
Q 266 3072 433 3567 
Q 600 4063 929 4331 
Q 1259 4600 1759 4600 
Q 2128 4600 2406 4451 
Q 2684 4303 2865 4023 
Q 3047 3744 3150 3342 
Q 3253 2941 3253 2259 
Q 3253 1453 3087 958 
Q 2922 463 2592 192 
Q 2263 -78 1759 -78 
Q 1097 -78 719 397 
Q 266 969 266 2259 
z
M 844 2259 
Q 844 1131 1108 757 
Q 1372 384 1759 384 
Q 2147 384 2411 759 
Q 2675 1134 2675 2259 
Q 2675 3391 2411 3762 
Q 2147 4134 1753 4134 
Q 1366 4134 1134 3806 
Q 844 3388 844 2259 
z
" transform="scale(0.015625)"/>
        <path id="ArialMT-2e" d="M 581 0 
L 581 641 
L 1222 641 
L 1222 0 
L 581 0 
z
" transform="scale(0.015625)"/>
       </defs>
       <use xlink:href="#ArialMT-30"/>
       <use xlink:href="#ArialMT-2e" x="55.615234"/>
       <use xlink:href="#ArialMT-30" x="83.398438"/>
      </g>
     </g>
    </g>
    <g id="xtick_2">
     <g id="line2d_2">
      <g>
       <use xlink:href="#m5eeb38badb" x="99.156" y="273.312" style="fill: #262626; stroke: #262626"/>
      </g>
     </g>
     <g id="text_2">
      <!-- 0.2 -->
      <g style="fill: #262626" transform="translate(93.04 287.910875) scale(0.088 -0.088)">
       <defs>
        <path id="ArialMT-32" d="M 3222 541 
L 3222 0 
L 194 0 
Q 188 203 259 391 
Q 375 700 629 1000 
Q 884 1300 1366 1694 
Q 2113 2306 2375 2664 
Q 2638 3022 2638 3341 
Q 2638 3675 2398 3904 
Q 2159 4134 1775 4134 
Q 1369 4134 1125 3890 
Q 881 3647 878 3216 
L 300 3275 
Q 359 3922 746 4261 
Q 1134 4600 1788 4600 
Q 2447 4600 2831 4234 
Q 3216 3869 3216 3328 
Q 3216 3053 3103 2787 
Q 2991 2522 2730 2228 
Q 2469 1934 1863 1422 
Q 1356 997 1212 845 
Q 1069 694 975 541 
L 3222 541 
z
" transform="scale(0.015625)"/>
       </defs>
       <use xlink:href="#ArialMT-30"/>
       <use xlink:href="#ArialMT-2e" x="55.615234"/>
       <use xlink:href="#ArialMT-32" x="83.398438"/>
      </g>
     </g>
    </g>
    <g id="xtick_3">
     <g id="line2d_3">
      <g>
       <use xlink:href="#m5eeb38badb" x="170.58" y="273.312" style="fill: #262626; stroke: #262626"/>
      </g>
     </g>
     <g id="text_3">
      <!-- 0.4 -->
      <g style="fill: #262626" transform="translate(164.464 287.910875) scale(0.088 -0.088)">
       <defs>
        <path id="ArialMT-34" d="M 2069 0 
L 2069 1097 
L 81 1097 
L 81 1613 
L 2172 4581 
L 2631 4581 
L 2631 1613 
L 3250 1613 
L 3250 1097 
L 2631 1097 
L 2631 0 
L 2069 0 
z
M 2069 1613 
L 2069 3678 
L 634 1613 
L 2069 1613 
z
" transform="scale(0.015625)"/>
       </defs>
       <use xlink:href="#ArialMT-30"/>
       <use xlink:href="#ArialMT-2e" x="55.615234"/>
       <use xlink:href="#ArialMT-34" x="83.398438"/>
      </g>
     </g>
    </g>
    <g id="xtick_4">
     <g id="line2d_4">
      <g>
       <use xlink:href="#m5eeb38badb" x="242.004" y="273.312" style="fill: #262626; stroke: #262626"/>
      </g>
     </g>
     <g id="text_4">
      <!-- 0.6 -->
      <g style="fill: #262626" transform="translate(235.888 287.910875) scale(0.088 -0.088)">
       <defs>
        <path id="ArialMT-36" d="M 3184 3459 
L 2625 3416 
Q 2550 3747 2413 3897 
Q 2184 4138 1850 4138 
Q 1581 4138 1378 3988 
Q 1113 3794 959 3422 
Q 806 3050 800 2363 
Q 1003 2672 1297 2822 
Q 1591 2972 1913 2972 
Q 2475 2972 2870 2558 
Q 3266 2144 3266 1488 
Q 3266 1056 3080 686 
Q 2894 316 2569 119 
Q 2244 -78 1831 -78 
Q 1128 -78 684 439 
Q 241 956 241 2144 
Q 241 3472 731 4075 
Q 1159 4600 1884 4600 
Q 2425 4600 2770 4297 
Q 3116 3994 3184 3459 
z
M 888 1484 
Q 888 1194 1011 928 
Q 1134 663 1356 523 
Q 1578 384 1822 384 
Q 2178 384 2434 671 
Q 2691 959 2691 1453 
Q 2691 1928 2437 2201 
Q 2184 2475 1800 2475 
Q 1419 2475 1153 2201 
Q 888 1928 888 1484 
z
" transform="scale(0.015625)"/>
       </defs>
       <use xlink:href="#ArialMT-30"/>
       <use xlink:href="#ArialMT-2e" x="55.615234"/>
       <use xlink:href="#ArialMT-36" x="83.398438"/>
      </g>
     </g>
    </g>
    <g id="xtick_5">
     <g id="line2d_5">
      <g>
       <use xlink:href="#m5eeb38badb" x="313.428" y="273.312" style="fill: #262626; stroke: #262626"/>
      </g>
     </g>
     <g id="text_5">
      <!-- 0.8 -->
      <g style="fill: #262626" transform="translate(307.312 287.910875) scale(0.088 -0.088)">
       <defs>
        <path id="ArialMT-38" d="M 1131 2484 
Q 781 2613 612 2850 
Q 444 3088 444 3419 
Q 444 3919 803 4259 
Q 1163 4600 1759 4600 
Q 2359 4600 2725 4251 
Q 3091 3903 3091 3403 
Q 3091 3084 2923 2848 
Q 2756 2613 2416 2484 
Q 2838 2347 3058 2040 
Q 3278 1734 3278 1309 
Q 3278 722 2862 322 
Q 2447 -78 1769 -78 
Q 1091 -78 675 323 
Q 259 725 259 1325 
Q 259 1772 486 2073 
Q 713 2375 1131 2484 
z
M 1019 3438 
Q 1019 3113 1228 2906 
Q 1438 2700 1772 2700 
Q 2097 2700 2305 2904 
Q 2513 3109 2513 3406 
Q 2513 3716 2298 3927 
Q 2084 4138 1766 4138 
Q 1444 4138 1231 3931 
Q 1019 3725 1019 3438 
z
M 838 1322 
Q 838 1081 952 856 
Q 1066 631 1291 507 
Q 1516 384 1775 384 
Q 2178 384 2440 643 
Q 2703 903 2703 1303 
Q 2703 1709 2433 1975 
Q 2163 2241 1756 2241 
Q 1359 2241 1098 1978 
Q 838 1716 838 1322 
z
" transform="scale(0.015625)"/>
       </defs>
       <use xlink:href="#ArialMT-30"/>
       <use xlink:href="#ArialMT-2e" x="55.615234"/>
       <use xlink:href="#ArialMT-38" x="83.398438"/>
      </g>
     </g>
    </g>
    <g id="xtick_6">
     <g id="line2d_6">
      <g>
       <use xlink:href="#m5eeb38badb" x="384.852" y="273.312" style="fill: #262626; stroke: #262626"/>
      </g>
     </g>
     <g id="text_6">
      <!-- 1.0 -->
      <g style="fill: #262626" transform="translate(378.736 287.910875) scale(0.088 -0.088)">
       <defs>
        <path id="ArialMT-31" d="M 2384 0 
L 1822 0 
L 1822 3584 
Q 1619 3391 1289 3197 
Q 959 3003 697 2906 
L 697 3450 
Q 1169 3672 1522 3987 
Q 1875 4303 2022 4600 
L 2384 4600 
L 2384 0 
z
" transform="scale(0.015625)"/>
       </defs>
       <use xlink:href="#ArialMT-31"/>
       <use xlink:href="#ArialMT-2e" x="55.615234"/>
       <use xlink:href="#ArialMT-30" x="83.398438"/>
      </g>
     </g>
    </g>
    <g id="text_7">
     <!-- x -->
     <g style="fill: #262626" transform="translate(203.892 300.531375) scale(0.096 -0.096)">
      <defs>
       <path id="ArialMT-78" d="M 47 0 
L 1259 1725 
L 138 3319 
L 841 3319 
L 1350 2541 
Q 1494 2319 1581 2169 
Q 1719 2375 1834 2534 
L 2394 3319 
L 3066 3319 
L 1919 1756 
L 3153 0 
L 2463 0 
L 1781 1031 
L 1600 1309 
L 728 0 
L 47 0 
z
" transform="scale(0.015625)"/>
      </defs>
      <use xlink:href="#ArialMT-78"/>
     </g>
    </g>
   </g>
   <g id="matplotlib.axis_2">
    <g id="ytick_1">
     <g id="line2d_7">
      <defs>
       <path id="mdf6511041d" d="M 0 0 
L -4.8 0 
" style="stroke: #262626"/>
      </defs>
      <g>
       <use xlink:href="#mdf6511041d" x="27.732" y="251.136" style="fill: #262626; stroke: #262626"/>
      </g>
     </g>
     <g id="text_8">
      <!-- 0.0 -->
      <g style="fill: #262626" transform="translate(7.2 254.285437) scale(0.088 -0.088)">
       <use xlink:href="#ArialMT-30"/>
       <use xlink:href="#ArialMT-2e" x="55.615234"/>
       <use xlink:href="#ArialMT-30" x="83.398438"/>
      </g>
     </g>
    </g>
    <g id="ytick_2">
     <g id="line2d_8">
      <g>
       <use xlink:href="#mdf6511041d" x="27.732" y="206.784" style="fill: #262626; stroke: #262626"/>
      </g>
     </g>
     <g id="text_9">
      <!-- 0.2 -->
      <g style="fill: #262626" transform="translate(7.2 209.933437) scale(0.088 -0.088)">
       <use xlink:href="#ArialMT-30"/>
       <use xlink:href="#ArialMT-2e" x="55.615234"/>
       <use xlink:href="#ArialMT-32" x="83.398438"/>
      </g>
     </g>
    </g>
    <g id="ytick_3">
     <g id="line2d_9">
      <g>
       <use xlink:href="#mdf6511041d" x="27.732" y="162.432" style="fill: #262626; stroke: #262626"/>
      </g>
     </g>
     <g id="text_10">
      <!-- 0.4 -->
      <g style="fill: #262626" transform="translate(7.2 165.581437) scale(0.088 -0.088)">
       <use xlink:href="#ArialMT-30"/>
       <use xlink:href="#ArialMT-2e" x="55.615234"/>
       <use xlink:href="#ArialMT-34" x="83.398438"/>
      </g>
     </g>
    </g>
    <g id="ytick_4">
     <g id="line2d_10">
      <g>
       <use xlink:href="#mdf6511041d" x="27.732" y="118.08" style="fill: #262626; stroke: #262626"/>
      </g>
     </g>
     <g id="text_11">
      <!-- 0.6 -->
      <g style="fill: #262626" transform="translate(7.2 121.229437) scale(0.088 -0.088)">
       <use xlink:href="#ArialMT-30"/>
       <use xlink:href="#ArialMT-2e" x="55.615234"/>
       <use xlink:href="#ArialMT-36" x="83.398438"/>
      </g>
     </g>
    </g>
    <g id="ytick_5">
     <g id="line2d_11">
      <g>
       <use xlink:href="#mdf6511041d" x="27.732" y="73.728" style="fill: #262626; stroke: #262626"/>
      </g>
     </g>
     <g id="text_12">
      <!-- 0.8 -->
      <g style="fill: #262626" transform="translate(7.2 76.877437) scale(0.088 -0.088)">
       <use xlink:href="#ArialMT-30"/>
       <use xlink:href="#ArialMT-2e" x="55.615234"/>
       <use xlink:href="#ArialMT-38" x="83.398438"/>
      </g>
     </g>
    </g>
    <g id="ytick_6">
     <g id="line2d_12">
      <g>
       <use xlink:href="#mdf6511041d" x="27.732" y="29.376" style="fill: #262626; stroke: #262626"/>
      </g>
     </g>
     <g id="text_13">
      <!-- 1.0 -->
      <g style="fill: #262626" transform="translate(7.2 32.525437) scale(0.088 -0.088)">
       <use xlink:href="#ArialMT-31"/>
       <use xlink:href="#ArialMT-2e" x="55.615234"/>
       <use xlink:href="#ArialMT-30" x="83.398438"/>
      </g>
     </g>
    </g>
   </g>
   <g id="patch_3">
    <path d="M 27.732 273.312 
L 28.929234 273.312 
L 28.929234 251.136 
L 27.732 251.136 
z
" clip-path="url(#p1c44b0f7aa)" style="fill: #ff7f0e; stroke: #ff7f0e; stroke-width: 0.8; stroke-linejoin: miter"/>
   </g>
   <g id="patch_4">
    <path d="M 28.929234 273.312 
L 32.670783 273.312 
L 32.670783 251.136 
L 28.929234 251.136 
z
" clip-path="url(#p1c44b0f7aa)" style="fill: #ff7f0e; stroke: #ff7f0e; stroke-width: 0.8; stroke-linejoin: miter"/>
   </g>
   <g id="patch_5">
    <path d="M 32.670783 273.312 
L 41.193336 273.312 
L 41.193336 251.136 
L 32.670783 251.136 
z
" clip-path="url(#p1c44b0f7aa)" style="fill: #1f77b4; stroke: #1f77b4; stroke-width: 0.8; stroke-linejoin: miter"/>
   </g>
   <g id="patch_6">
    <path d="M 41.193336 273.312 
L 42.67558 273.312 
L 42.67558 251.136 
L 41.193336 251.136 
z
" clip-path="url(#p1c44b0f7aa)" style="fill: #ff7f0e; stroke: #ff7f0e; stroke-width: 0.8; stroke-linejoin: miter"/>
   </g>
   <g id="patch_7">
    <path d="M 42.67558 273.312 
L 44.511011 273.312 
L 44.511011 251.136 
L 42.67558 251.136 
z
" clip-path="url(#p1c44b0f7aa)" style="fill: #ff7f0e; stroke: #ff7f0e; stroke-width: 0.8; stroke-linejoin: miter"/>
   </g>
   <g id="patch_8">
    <path d="M 44.511011 273.312 
L 45.09888 273.312 
L 45.09888 251.136 
L 44.511011 251.136 
z
" clip-path="url(#p1c44b0f7aa)" style="fill: #1f77b4; stroke: #1f77b4; stroke-width: 0.8; stroke-linejoin: miter"/>
   </g>
   <g id="patch_9">
    <path d="M 45.09888 273.312 
L 52.793372 273.312 
L 52.793372 251.136 
L 45.09888 251.136 
z
" clip-path="url(#p1c44b0f7aa)" style="fill: #1f77b4; stroke: #1f77b4; stroke-width: 0.8; stroke-linejoin: miter"/>
   </g>
   <g id="patch_10">
    <path d="M 52.793372 273.312 
L 56.973959 273.312 
L 56.973959 251.136 
L 52.793372 251.136 
z
" clip-path="url(#p1c44b0f7aa)" style="fill: #ff7f0e; stroke: #ff7f0e; stroke-width: 0.8; stroke-linejoin: miter"/>
   </g>
   <g id="patch_11">
    <path d="M 56.973959 273.312 
L 67.777158 273.312 
L 67.777158 251.136 
L 56.973959 251.136 
z
" clip-path="url(#p1c44b0f7aa)" style="fill: #ff7f0e; stroke: #ff7f0e; stroke-width: 0.8; stroke-linejoin: miter"/>
   </g>
   <g id="patch_12">
    <path d="M 67.777158 273.312 
L 78.036131 273.312 
L 78.036131 251.136 
L 67.777158 251.136 
z
" clip-path="url(#p1c44b0f7aa)" style="fill: #ff7f0e; stroke: #ff7f0e; stroke-width: 0.8; stroke-linejoin: miter"/>
   </g>
   <g id="patch_13">
    <path d="M 78.036131 273.312 
L 83.209944 273.312 
L 83.209944 251.136 
L 78.036131 251.136 
z
" clip-path="url(#p1c44b0f7aa)" style="fill: #ff7f0e; stroke: #ff7f0e; stroke-width: 0.8; stroke-linejoin: miter"/>
   </g>
   <g id="patch_14">
    <path d="M 83.209944 273.312 
L 85.909583 273.312 
L 85.909583 251.136 
L 83.209944 251.136 
z
" clip-path="url(#p1c44b0f7aa)" style="fill: #ff7f0e; stroke: #ff7f0e; stroke-width: 0.8; stroke-linejoin: miter"/>
   </g>
   <g id="patch_15">
    <path d="M 85.909583 273.312 
L 88.026923 273.312 
L 88.026923 251.136 
L 85.909583 251.136 
z
" clip-path="url(#p1c44b0f7aa)" style="fill: #ff7f0e; stroke: #ff7f0e; stroke-width: 0.8; stroke-linejoin: miter"/>
   </g>
   <g id="patch_16">
    <path d="M 88.026923 273.312 
L 91.908522 273.312 
L 91.908522 251.136 
L 88.026923 251.136 
z
" clip-path="url(#p1c44b0f7aa)" style="fill: #1f77b4; stroke: #1f77b4; stroke-width: 0.8; stroke-linejoin: miter"/>
   </g>
   <g id="patch_17">
    <path d="M 91.908522 273.312 
L 91.992518 273.312 
L 91.992518 251.136 
L 91.908522 251.136 
z
" clip-path="url(#p1c44b0f7aa)" style="fill: #ff7f0e; stroke: #ff7f0e; stroke-width: 0.8; stroke-linejoin: miter"/>
   </g>
   <g id="patch_18">
    <path d="M 91.992518 273.312 
L 95.18042 273.312 
L 95.18042 251.136 
L 91.992518 251.136 
z
" clip-path="url(#p1c44b0f7aa)" style="fill: #ff7f0e; stroke: #ff7f0e; stroke-width: 0.8; stroke-linejoin: miter"/>
   </g>
   <g id="patch_19">
    <path d="M 95.18042 273.312 
L 97.37535 273.312 
L 97.37535 251.136 
L 95.18042 251.136 
z
" clip-path="url(#p1c44b0f7aa)" style="fill: #ff7f0e; stroke: #ff7f0e; stroke-width: 0.8; stroke-linejoin: miter"/>
   </g>
   <g id="patch_20">
    <path d="M 97.37535 273.312 
L 97.806301 273.312 
L 97.806301 251.136 
L 97.37535 251.136 
z
" clip-path="url(#p1c44b0f7aa)" style="fill: #ff7f0e; stroke: #ff7f0e; stroke-width: 0.8; stroke-linejoin: miter"/>
   </g>
   <g id="patch_21">
    <path d="M 97.806301 273.312 
L 113.343226 273.312 
L 113.343226 251.136 
L 97.806301 251.136 
z
" clip-path="url(#p1c44b0f7aa)" style="fill: #1f77b4; stroke: #1f77b4; stroke-width: 0.8; stroke-linejoin: miter"/>
   </g>
   <g id="patch_22">
    <path d="M 113.343226 273.312 
L 113.429362 273.312 
L 113.429362 251.136 
L 113.343226 251.136 
z
" clip-path="url(#p1c44b0f7aa)" style="fill: #ff7f0e; stroke: #ff7f0e; stroke-width: 0.8; stroke-linejoin: miter"/>
   </g>
   <g id="patch_23">
    <path d="M 113.429362 273.312 
L 117.811615 273.312 
L 117.811615 251.136 
L 113.429362 251.136 
z
" clip-path="url(#p1c44b0f7aa)" style="fill: #ff7f0e; stroke: #ff7f0e; stroke-width: 0.8; stroke-linejoin: miter"/>
   </g>
   <g id="patch_24">
    <path d="M 117.811615 273.312 
L 122.349085 273.312 
L 122.349085 251.136 
L 117.811615 251.136 
z
" clip-path="url(#p1c44b0f7aa)" style="fill: #1f77b4; stroke: #1f77b4; stroke-width: 0.8; stroke-linejoin: miter"/>
   </g>
   <g id="patch_25">
    <path d="M 122.349085 273.312 
L 135.86956 273.312 
L 135.86956 251.136 
L 122.349085 251.136 
z
" clip-path="url(#p1c44b0f7aa)" style="fill: #ff7f0e; stroke: #ff7f0e; stroke-width: 0.8; stroke-linejoin: miter"/>
   </g>
   <g id="patch_26">
    <path d="M 135.86956 273.312 
L 135.931364 273.312 
L 135.931364 251.136 
L 135.86956 251.136 
z
" clip-path="url(#p1c44b0f7aa)" style="fill: #ff7f0e; stroke: #ff7f0e; stroke-width: 0.8; stroke-linejoin: miter"/>
   </g>
   <g id="patch_27">
    <path d="M 135.931364 273.312 
L 144.415819 273.312 
L 144.415819 251.136 
L 135.931364 251.136 
z
" clip-path="url(#p1c44b0f7aa)" style="fill: #1f77b4; stroke: #1f77b4; stroke-width: 0.8; stroke-linejoin: miter"/>
   </g>
   <g id="patch_28">
    <path d="M 144.415819 273.312 
L 148.182544 273.312 
L 148.182544 251.136 
L 144.415819 251.136 
z
" clip-path="url(#p1c44b0f7aa)" style="fill: #ff7f0e; stroke: #ff7f0e; stroke-width: 0.8; stroke-linejoin: miter"/>
   </g>
   <g id="patch_29">
    <path d="M 148.182544 273.312 
L 152.092337 273.312 
L 152.092337 251.136 
L 148.182544 251.136 
z
" clip-path="url(#p1c44b0f7aa)" style="fill: #1f77b4; stroke: #1f77b4; stroke-width: 0.8; stroke-linejoin: miter"/>
   </g>
   <g id="patch_30">
    <path d="M 152.092337 273.312 
L 153.868665 273.312 
L 153.868665 251.136 
L 152.092337 251.136 
z
" clip-path="url(#p1c44b0f7aa)" style="fill: #ff7f0e; stroke: #ff7f0e; stroke-width: 0.8; stroke-linejoin: miter"/>
   </g>
   <g id="patch_31">
    <path d="M 153.868665 273.312 
L 157.238706 273.312 
L 157.238706 251.136 
L 153.868665 251.136 
z
" clip-path="url(#p1c44b0f7aa)" style="fill: #1f77b4; stroke: #1f77b4; stroke-width: 0.8; stroke-linejoin: miter"/>
   </g>
   <g id="patch_32">
    <path d="M 157.238706 273.312 
L 157.739193 273.312 
L 157.739193 251.136 
L 157.238706 251.136 
z
" clip-path="url(#p1c44b0f7aa)" style="fill: #ff7f0e; stroke: #ff7f0e; stroke-width: 0.8; stroke-linejoin: miter"/>
   </g>
   <g id="patch_33">
    <path d="M 157.739193 273.312 
L 162.483249 273.312 
L 162.483249 251.136 
L 157.739193 251.136 
z
" clip-path="url(#p1c44b0f7aa)" style="fill: #ff7f0e; stroke: #ff7f0e; stroke-width: 0.8; stroke-linejoin: miter"/>
   </g>
   <g id="patch_34">
    <path d="M 162.483249 273.312 
L 163.359309 273.312 
L 163.359309 251.136 
L 162.483249 251.136 
z
" clip-path="url(#p1c44b0f7aa)" style="fill: #ff7f0e; stroke: #ff7f0e; stroke-width: 0.8; stroke-linejoin: miter"/>
   </g>
   <g id="patch_35">
    <path d="M 163.359309 273.312 
L 166.327437 273.312 
L 166.327437 251.136 
L 163.359309 251.136 
z
" clip-path="url(#p1c44b0f7aa)" style="fill: #ff7f0e; stroke: #ff7f0e; stroke-width: 0.8; stroke-linejoin: miter"/>
   </g>
   <g id="patch_36">
    <path d="M 166.327437 273.312 
L 167.328369 273.312 
L 167.328369 251.136 
L 166.327437 251.136 
z
" clip-path="url(#p1c44b0f7aa)" style="fill: #ff7f0e; stroke: #ff7f0e; stroke-width: 0.8; stroke-linejoin: miter"/>
   </g>
   <g id="patch_37">
    <path d="M 167.328369 273.312 
L 171.05909 273.312 
L 171.05909 251.136 
L 167.328369 251.136 
z
" clip-path="url(#p1c44b0f7aa)" style="fill: #ff7f0e; stroke: #ff7f0e; stroke-width: 0.8; stroke-linejoin: miter"/>
   </g>
   <g id="patch_38">
    <path d="M 171.05909 273.312 
L 174.421571 273.312 
L 174.421571 251.136 
L 171.05909 251.136 
z
" clip-path="url(#p1c44b0f7aa)" style="fill: #ff7f0e; stroke: #ff7f0e; stroke-width: 0.8; stroke-linejoin: miter"/>
   </g>
   <g id="patch_39">
    <path d="M 174.421571 273.312 
L 176.436789 273.312 
L 176.436789 251.136 
L 174.421571 251.136 
z
" clip-path="url(#p1c44b0f7aa)" style="fill: #ff7f0e; stroke: #ff7f0e; stroke-width: 0.8; stroke-linejoin: miter"/>
   </g>
   <g id="patch_40">
    <path d="M 176.436789 273.312 
L 183.479903 273.312 
L 183.479903 251.136 
L 176.436789 251.136 
z
" clip-path="url(#p1c44b0f7aa)" style="fill: #1f77b4; stroke: #1f77b4; stroke-width: 0.8; stroke-linejoin: miter"/>
   </g>
   <g id="patch_41">
    <path d="M 183.479903 273.312 
L 197.781801 273.312 
L 197.781801 251.136 
L 183.479903 251.136 
z
" clip-path="url(#p1c44b0f7aa)" style="fill: #ff7f0e; stroke: #ff7f0e; stroke-width: 0.8; stroke-linejoin: miter"/>
   </g>
   <g id="patch_42">
    <path d="M 197.781801 273.312 
L 199.898267 273.312 
L 199.898267 251.136 
L 197.781801 251.136 
z
" clip-path="url(#p1c44b0f7aa)" style="fill: #ff7f0e; stroke: #ff7f0e; stroke-width: 0.8; stroke-linejoin: miter"/>
   </g>
   <g id="patch_43">
    <path d="M 199.898267 273.312 
L 206.472815 273.312 
L 206.472815 251.136 
L 199.898267 251.136 
z
" clip-path="url(#p1c44b0f7aa)" style="fill: #1f77b4; stroke: #1f77b4; stroke-width: 0.8; stroke-linejoin: miter"/>
   </g>
   <g id="patch_44">
    <path d="M 206.472815 273.312 
L 207.556003 273.312 
L 207.556003 251.136 
L 206.472815 251.136 
z
" clip-path="url(#p1c44b0f7aa)" style="fill: #1f77b4; stroke: #1f77b4; stroke-width: 0.8; stroke-linejoin: miter"/>
   </g>
   <g id="patch_45">
    <path d="M 207.556003 273.312 
L 209.423203 273.312 
L 209.423203 251.136 
L 207.556003 251.136 
z
" clip-path="url(#p1c44b0f7aa)" style="fill: #ff7f0e; stroke: #ff7f0e; stroke-width: 0.8; stroke-linejoin: miter"/>
   </g>
   <g id="patch_46">
    <path d="M 209.423203 273.312 
L 214.664657 273.312 
L 214.664657 251.136 
L 209.423203 251.136 
z
" clip-path="url(#p1c44b0f7aa)" style="fill: #ff7f0e; stroke: #ff7f0e; stroke-width: 0.8; stroke-linejoin: miter"/>
   </g>
   <g id="patch_47">
    <path d="M 214.664657 273.312 
L 217.295465 273.312 
L 217.295465 251.136 
L 214.664657 251.136 
z
" clip-path="url(#p1c44b0f7aa)" style="fill: #ff7f0e; stroke: #ff7f0e; stroke-width: 0.8; stroke-linejoin: miter"/>
   </g>
   <g id="patch_48">
    <path d="M 217.295465 273.312 
L 218.976117 273.312 
L 218.976117 251.136 
L 217.295465 251.136 
z
" clip-path="url(#p1c44b0f7aa)" style="fill: #ff7f0e; stroke: #ff7f0e; stroke-width: 0.8; stroke-linejoin: miter"/>
   </g>
   <g id="patch_49">
    <path d="M 218.976117 273.312 
L 221.170635 273.312 
L 221.170635 251.136 
L 218.976117 251.136 
z
" clip-path="url(#p1c44b0f7aa)" style="fill: #1f77b4; stroke: #1f77b4; stroke-width: 0.8; stroke-linejoin: miter"/>
   </g>
   <g id="patch_50">
    <path d="M 221.170635 273.312 
L 223.814538 273.312 
L 223.814538 251.136 
L 221.170635 251.136 
z
" clip-path="url(#p1c44b0f7aa)" style="fill: #ff7f0e; stroke: #ff7f0e; stroke-width: 0.8; stroke-linejoin: miter"/>
   </g>
   <g id="patch_51">
    <path d="M 223.814538 273.312 
L 233.94866 273.312 
L 233.94866 251.136 
L 223.814538 251.136 
z
" clip-path="url(#p1c44b0f7aa)" style="fill: #1f77b4; stroke: #1f77b4; stroke-width: 0.8; stroke-linejoin: miter"/>
   </g>
   <g id="patch_52">
    <path d="M 233.94866 273.312 
L 234.639392 273.312 
L 234.639392 251.136 
L 233.94866 251.136 
z
" clip-path="url(#p1c44b0f7aa)" style="fill: #ff7f0e; stroke: #ff7f0e; stroke-width: 0.8; stroke-linejoin: miter"/>
   </g>
   <g id="patch_53">
    <path d="M 234.639392 273.312 
L 236.140605 273.312 
L 236.140605 251.136 
L 234.639392 251.136 
z
" clip-path="url(#p1c44b0f7aa)" style="fill: #ff7f0e; stroke: #ff7f0e; stroke-width: 0.8; stroke-linejoin: miter"/>
   </g>
   <g id="patch_54">
    <path d="M 236.140605 273.312 
L 236.382047 273.312 
L 236.382047 251.136 
L 236.140605 251.136 
z
" clip-path="url(#p1c44b0f7aa)" style="fill: #ff7f0e; stroke: #ff7f0e; stroke-width: 0.8; stroke-linejoin: miter"/>
   </g>
   <g id="patch_55">
    <path d="M 236.382047 273.312 
L 238.047192 273.312 
L 238.047192 251.136 
L 236.382047 251.136 
z
" clip-path="url(#p1c44b0f7aa)" style="fill: #ff7f0e; stroke: #ff7f0e; stroke-width: 0.8; stroke-linejoin: miter"/>
   </g>
   <g id="patch_56">
    <path d="M 238.047192 273.312 
L 240.206021 273.312 
L 240.206021 251.136 
L 238.047192 251.136 
z
" clip-path="url(#p1c44b0f7aa)" style="fill: #ff7f0e; stroke: #ff7f0e; stroke-width: 0.8; stroke-linejoin: miter"/>
   </g>
   <g id="patch_57">
    <path d="M 240.206021 273.312 
L 241.142774 273.312 
L 241.142774 251.136 
L 240.206021 251.136 
z
" clip-path="url(#p1c44b0f7aa)" style="fill: #ff7f0e; stroke: #ff7f0e; stroke-width: 0.8; stroke-linejoin: miter"/>
   </g>
   <g id="patch_58">
    <path d="M 241.142774 273.312 
L 242.715108 273.312 
L 242.715108 251.136 
L 241.142774 251.136 
z
" clip-path="url(#p1c44b0f7aa)" style="fill: #ff7f0e; stroke: #ff7f0e; stroke-width: 0.8; stroke-linejoin: miter"/>
   </g>
   <g id="patch_59">
    <path d="M 242.715108 273.312 
L 247.091637 273.312 
L 247.091637 251.136 
L 242.715108 251.136 
z
" clip-path="url(#p1c44b0f7aa)" style="fill: #1f77b4; stroke: #1f77b4; stroke-width: 0.8; stroke-linejoin: miter"/>
   </g>
   <g id="patch_60">
    <path d="M 247.091637 273.312 
L 247.498644 273.312 
L 247.498644 251.136 
L 247.091637 251.136 
z
" clip-path="url(#p1c44b0f7aa)" style="fill: #ff7f0e; stroke: #ff7f0e; stroke-width: 0.8; stroke-linejoin: miter"/>
   </g>
   <g id="patch_61">
    <path d="M 247.498644 273.312 
L 249.175127 273.312 
L 249.175127 251.136 
L 247.498644 251.136 
z
" clip-path="url(#p1c44b0f7aa)" style="fill: #1f77b4; stroke: #1f77b4; stroke-width: 0.8; stroke-linejoin: miter"/>
   </g>
   <g id="patch_62">
    <path d="M 249.175127 273.312 
L 253.591463 273.312 
L 253.591463 251.136 
L 249.175127 251.136 
z
" clip-path="url(#p1c44b0f7aa)" style="fill: #ff7f0e; stroke: #ff7f0e; stroke-width: 0.8; stroke-linejoin: miter"/>
   </g>
   <g id="patch_63">
    <path d="M 253.591463 273.312 
L 263.422226 273.312 
L 263.422226 251.136 
L 253.591463 251.136 
z
" clip-path="url(#p1c44b0f7aa)" style="fill: #1f77b4; stroke: #1f77b4; stroke-width: 0.8; stroke-linejoin: miter"/>
   </g>
   <g id="patch_64">
    <path d="M 263.422226 273.312 
L 265.3387 273.312 
L 265.3387 251.136 
L 263.422226 251.136 
z
" clip-path="url(#p1c44b0f7aa)" style="fill: #ff7f0e; stroke: #ff7f0e; stroke-width: 0.8; stroke-linejoin: miter"/>
   </g>
   <g id="patch_65">
    <path d="M 265.3387 273.312 
L 265.490642 273.312 
L 265.490642 251.136 
L 265.3387 251.136 
z
" clip-path="url(#p1c44b0f7aa)" style="fill: #ff7f0e; stroke: #ff7f0e; stroke-width: 0.8; stroke-linejoin: miter"/>
   </g>
   <g id="patch_66">
    <path d="M 265.490642 273.312 
L 271.60428 273.312 
L 271.60428 251.136 
L 265.490642 251.136 
z
" clip-path="url(#p1c44b0f7aa)" style="fill: #1f77b4; stroke: #1f77b4; stroke-width: 0.8; stroke-linejoin: miter"/>
   </g>
   <g id="patch_67">
    <path d="M 271.60428 273.312 
L 280.863759 273.312 
L 280.863759 251.136 
L 271.60428 251.136 
z
" clip-path="url(#p1c44b0f7aa)" style="fill: #1f77b4; stroke: #1f77b4; stroke-width: 0.8; stroke-linejoin: miter"/>
   </g>
   <g id="patch_68">
    <path d="M 280.863759 273.312 
L 283.819413 273.312 
L 283.819413 251.136 
L 280.863759 251.136 
z
" clip-path="url(#p1c44b0f7aa)" style="fill: #ff7f0e; stroke: #ff7f0e; stroke-width: 0.8; stroke-linejoin: miter"/>
   </g>
   <g id="patch_69">
    <path d="M 283.819413 273.312 
L 284.03483 273.312 
L 284.03483 251.136 
L 283.819413 251.136 
z
" clip-path="url(#p1c44b0f7aa)" style="fill: #ff7f0e; stroke: #ff7f0e; stroke-width: 0.8; stroke-linejoin: miter"/>
   </g>
   <g id="patch_70">
    <path d="M 284.03483 273.312 
L 285.386796 273.312 
L 285.386796 251.136 
L 284.03483 251.136 
z
" clip-path="url(#p1c44b0f7aa)" style="fill: #ff7f0e; stroke: #ff7f0e; stroke-width: 0.8; stroke-linejoin: miter"/>
   </g>
   <g id="patch_71">
    <path d="M 285.386796 273.312 
L 286.245128 273.312 
L 286.245128 251.136 
L 285.386796 251.136 
z
" clip-path="url(#p1c44b0f7aa)" style="fill: #1f77b4; stroke: #1f77b4; stroke-width: 0.8; stroke-linejoin: miter"/>
   </g>
   <g id="patch_72">
    <path d="M 286.245128 273.312 
L 287.445786 273.312 
L 287.445786 251.136 
L 286.245128 251.136 
z
" clip-path="url(#p1c44b0f7aa)" style="fill: #ff7f0e; stroke: #ff7f0e; stroke-width: 0.8; stroke-linejoin: miter"/>
   </g>
   <g id="patch_73">
    <path d="M 287.445786 273.312 
L 287.766737 273.312 
L 287.766737 251.136 
L 287.445786 251.136 
z
" clip-path="url(#p1c44b0f7aa)" style="fill: #ff7f0e; stroke: #ff7f0e; stroke-width: 0.8; stroke-linejoin: miter"/>
   </g>
   <g id="patch_74">
    <path d="M 287.766737 273.312 
L 288.296629 273.312 
L 288.296629 251.136 
L 287.766737 251.136 
z
" clip-path="url(#p1c44b0f7aa)" style="fill: #ff7f0e; stroke: #ff7f0e; stroke-width: 0.8; stroke-linejoin: miter"/>
   </g>
   <g id="patch_75">
    <path d="M 288.296629 273.312 
L 288.872402 273.312 
L 288.872402 251.136 
L 288.296629 251.136 
z
" clip-path="url(#p1c44b0f7aa)" style="fill: #ff7f0e; stroke: #ff7f0e; stroke-width: 0.8; stroke-linejoin: miter"/>
   </g>
   <g id="patch_76">
    <path d="M 288.872402 273.312 
L 289.401598 273.312 
L 289.401598 251.136 
L 288.872402 251.136 
z
" clip-path="url(#p1c44b0f7aa)" style="fill: #ff7f0e; stroke: #ff7f0e; stroke-width: 0.8; stroke-linejoin: miter"/>
   </g>
   <g id="patch_77">
    <path d="M 289.401598 273.312 
L 292.333691 273.312 
L 292.333691 251.136 
L 289.401598 251.136 
z
" clip-path="url(#p1c44b0f7aa)" style="fill: #1f77b4; stroke: #1f77b4; stroke-width: 0.8; stroke-linejoin: miter"/>
   </g>
   <g id="patch_78">
    <path d="M 292.333691 273.312 
L 295.01277 273.312 
L 295.01277 251.136 
L 292.333691 251.136 
z
" clip-path="url(#p1c44b0f7aa)" style="fill: #ff7f0e; stroke: #ff7f0e; stroke-width: 0.8; stroke-linejoin: miter"/>
   </g>
   <g id="patch_79">
    <path d="M 295.01277 273.312 
L 299.402879 273.312 
L 299.402879 251.136 
L 295.01277 251.136 
z
" clip-path="url(#p1c44b0f7aa)" style="fill: #ff7f0e; stroke: #ff7f0e; stroke-width: 0.8; stroke-linejoin: miter"/>
   </g>
   <g id="patch_80">
    <path d="M 299.402879 273.312 
L 304.641627 273.312 
L 304.641627 251.136 
L 299.402879 251.136 
z
" clip-path="url(#p1c44b0f7aa)" style="fill: #ff7f0e; stroke: #ff7f0e; stroke-width: 0.8; stroke-linejoin: miter"/>
   </g>
   <g id="patch_81">
    <path d="M 304.641627 273.312 
L 311.347328 273.312 
L 311.347328 251.136 
L 304.641627 251.136 
z
" clip-path="url(#p1c44b0f7aa)" style="fill: #ff7f0e; stroke: #ff7f0e; stroke-width: 0.8; stroke-linejoin: miter"/>
   </g>
   <g id="patch_82">
    <path d="M 311.347328 273.312 
L 315.69093 273.312 
L 315.69093 251.136 
L 311.347328 251.136 
z
" clip-path="url(#p1c44b0f7aa)" style="fill: #1f77b4; stroke: #1f77b4; stroke-width: 0.8; stroke-linejoin: miter"/>
   </g>
   <g id="patch_83">
    <path d="M 315.69093 273.312 
L 317.576163 273.312 
L 317.576163 251.136 
L 315.69093 251.136 
z
" clip-path="url(#p1c44b0f7aa)" style="fill: #ff7f0e; stroke: #ff7f0e; stroke-width: 0.8; stroke-linejoin: miter"/>
   </g>
   <g id="patch_84">
    <path d="M 317.576163 273.312 
L 318.488903 273.312 
L 318.488903 251.136 
L 317.576163 251.136 
z
" clip-path="url(#p1c44b0f7aa)" style="fill: #1f77b4; stroke: #1f77b4; stroke-width: 0.8; stroke-linejoin: miter"/>
   </g>
   <g id="patch_85">
    <path d="M 318.488903 273.312 
L 322.411307 273.312 
L 322.411307 251.136 
L 318.488903 251.136 
z
" clip-path="url(#p1c44b0f7aa)" style="fill: #ff7f0e; stroke: #ff7f0e; stroke-width: 0.8; stroke-linejoin: miter"/>
   </g>
   <g id="patch_86">
    <path d="M 322.411307 273.312 
L 325.034242 273.312 
L 325.034242 251.136 
L 322.411307 251.136 
z
" clip-path="url(#p1c44b0f7aa)" style="fill: #ff7f0e; stroke: #ff7f0e; stroke-width: 0.8; stroke-linejoin: miter"/>
   </g>
   <g id="patch_87">
    <path d="M 325.034242 273.312 
L 336.111074 273.312 
L 336.111074 251.136 
L 325.034242 251.136 
z
" clip-path="url(#p1c44b0f7aa)" style="fill: #ff7f0e; stroke: #ff7f0e; stroke-width: 0.8; stroke-linejoin: miter"/>
   </g>
   <g id="patch_88">
    <path d="M 336.111074 273.312 
L 339.839374 273.312 
L 339.839374 251.136 
L 336.111074 251.136 
z
" clip-path="url(#p1c44b0f7aa)" style="fill: #ff7f0e; stroke: #ff7f0e; stroke-width: 0.8; stroke-linejoin: miter"/>
   </g>
   <g id="patch_89">
    <path d="M 339.839374 273.312 
L 340.157872 273.312 
L 340.157872 251.136 
L 339.839374 251.136 
z
" clip-path="url(#p1c44b0f7aa)" style="fill: #ff7f0e; stroke: #ff7f0e; stroke-width: 0.8; stroke-linejoin: miter"/>
   </g>
   <g id="patch_90">
    <path d="M 340.157872 273.312 
L 343.858724 273.312 
L 343.858724 251.136 
L 340.157872 251.136 
z
" clip-path="url(#p1c44b0f7aa)" style="fill: #ff7f0e; stroke: #ff7f0e; stroke-width: 0.8; stroke-linejoin: miter"/>
   </g>
   <g id="patch_91">
    <path d="M 343.858724 273.312 
L 350.811726 273.312 
L 350.811726 251.136 
L 343.858724 251.136 
z
" clip-path="url(#p1c44b0f7aa)" style="fill: #ff7f0e; stroke: #ff7f0e; stroke-width: 0.8; stroke-linejoin: miter"/>
   </g>
   <g id="patch_92">
    <path d="M 350.811726 273.312 
L 354.449543 273.312 
L 354.449543 251.136 
L 350.811726 251.136 
z
" clip-path="url(#p1c44b0f7aa)" style="fill: #ff7f0e; stroke: #ff7f0e; stroke-width: 0.8; stroke-linejoin: miter"/>
   </g>
   <g id="patch_93">
    <path d="M 354.449543 273.312 
L 357.366493 273.312 
L 357.366493 251.136 
L 354.449543 251.136 
z
" clip-path="url(#p1c44b0f7aa)" style="fill: #ff7f0e; stroke: #ff7f0e; stroke-width: 0.8; stroke-linejoin: miter"/>
   </g>
   <g id="patch_94">
    <path d="M 357.366493 273.312 
L 358.081651 273.312 
L 358.081651 251.136 
L 357.366493 251.136 
z
" clip-path="url(#p1c44b0f7aa)" style="fill: #ff7f0e; stroke: #ff7f0e; stroke-width: 0.8; stroke-linejoin: miter"/>
   </g>
   <g id="patch_95">
    <path d="M 358.081651 273.312 
L 359.659058 273.312 
L 359.659058 251.136 
L 358.081651 251.136 
z
" clip-path="url(#p1c44b0f7aa)" style="fill: #1f77b4; stroke: #1f77b4; stroke-width: 0.8; stroke-linejoin: miter"/>
   </g>
   <g id="patch_96">
    <path d="M 359.659058 273.312 
L 366.085259 273.312 
L 366.085259 251.136 
L 359.659058 251.136 
z
" clip-path="url(#p1c44b0f7aa)" style="fill: #ff7f0e; stroke: #ff7f0e; stroke-width: 0.8; stroke-linejoin: miter"/>
   </g>
   <g id="patch_97">
    <path d="M 366.085259 273.312 
L 376.921888 273.312 
L 376.921888 251.136 
L 366.085259 251.136 
z
" clip-path="url(#p1c44b0f7aa)" style="fill: #ff7f0e; stroke: #ff7f0e; stroke-width: 0.8; stroke-linejoin: miter"/>
   </g>
   <g id="patch_98">
    <path d="M 376.921888 273.312 
L 378.690546 273.312 
L 378.690546 251.136 
L 376.921888 251.136 
z
" clip-path="url(#p1c44b0f7aa)" style="fill: #ff7f0e; stroke: #ff7f0e; stroke-width: 0.8; stroke-linejoin: miter"/>
   </g>
   <g id="patch_99">
    <path d="M 378.690546 273.312 
L 384.852 273.312 
L 384.852 251.136 
L 378.690546 251.136 
z
" clip-path="url(#p1c44b0f7aa)" style="fill: #ff7f0e; stroke: #ff7f0e; stroke-width: 0.8; stroke-linejoin: miter"/>
   </g>
   <g id="patch_100">
    <path d="M 27.732 251.136 
L 27.732 29.376 
" style="fill: none; stroke: #262626; stroke-linejoin: miter; stroke-linecap: square"/>
   </g>
   <g id="patch_101">
    <path d="M 27.732 273.312 
L 384.852 273.312 
" style="fill: none; stroke: #262626; stroke-linejoin: miter; stroke-linecap: square"/>
   </g>
  </g>
 </g>
 <defs>
  <clipPath id="p1c44b0f7aa">
   <rect x="27.732" y="7.2" width="357.12" height="266.112"/>
  </clipPath>
 </defs>
</svg>