<?xml version="1.0" encoding="UTF-8" standalone="no"?>
<!DOCTYPE svg PUBLIC "-//W3C//DTD SVG 1.1//EN"
 "http://www.w3.org/Graphics/SVG/1.1/DTD/svg11.dtd">
<!-- Generated by graphviz version 9.0.0 (20230911.1827)
 -->
<!-- Pages: 1 -->
<svg width="372pt" height="296pt"
 viewBox="0.00 0.00 371.62 295.50" xmlns="http://www.w3.org/2000/svg" xmlns:xlink="http://www.w3.org/1999/xlink">
<g id="graph0" class="graph" transform="scale(1 1) rotate(0) translate(4 291.5)">
<polygon fill="white" stroke="none" points="-4,4 -4,-291.5 367.62,-291.5 367.62,4 -4,4"/>
<g id="clust1" class="cluster">
<title>cluster_centers</title>
<polygon fill="none" stroke="black" points="146,-92.5 146,-268.25 224,-268.25 224,-92.5 146,-92.5"/>
<text text-anchor="middle" x="196.88" y="-99.7" font-family="Times,serif" font-size="14.00">centers</text>
</g>
<g id="clust2" class="cluster">
<title>cluster_data</title>
<polygon fill="none" stroke="black" points="70,-8 70,-84.5 140,-84.5 140,-8 70,-8"/>
<text text-anchor="middle" x="120.75" y="-15.2" font-family="Times,serif" font-size="14.00">data</text>
</g>
<!-- ell -->
<g id="node1" class="node">
<title>ell</title>
<ellipse fill="white" stroke="black" cx="27" cy="-143" rx="27" ry="18"/>
<text text-anchor="middle" x="27" y="-137.95" font-family="Times,serif" font-size="14.00">ell</text>
</g>
<!-- y -->
<g id="node5" class="node">
<title>y</title>
<ellipse fill="gray" stroke="black" cx="105" cy="-58.5" rx="27" ry="18"/>
<text text-anchor="middle" x="105" y="-53.45" font-family="Times,serif" font-size="14.00">y</text>
</g>
<!-- ell&#45;&gt;y -->
<g id="edge2" class="edge">
<title>ell&#45;&gt;y</title>
<path fill="none" stroke="black" d="M37,-125.98C43.72,-115.84 53.12,-102.75 63,-92.5 67.5,-87.83 72.68,-83.24 77.84,-79.04"/>
<polygon fill="black" stroke="black" points="79.98,-81.81 85.73,-72.91 75.69,-76.28 79.98,-81.81"/>
</g>
<!-- sigma -->
<g id="node2" class="node">
<title>sigma</title>
<ellipse fill="white" stroke="black" cx="105" cy="-143" rx="33.44" ry="18"/>
<text text-anchor="middle" x="105" y="-137.95" font-family="Times,serif" font-size="14.00">sigma</text>
</g>
<!-- sigma&#45;&gt;y -->
<g id="edge4" class="edge">
<title>sigma&#45;&gt;y</title>
<path fill="none" stroke="black" d="M105,-124.5C105,-114 105,-100.39 105,-88.33"/>
<polygon fill="black" stroke="black" points="108.5,-88.48 105,-78.48 101.5,-88.48 108.5,-88.48"/>
</g>
<!-- alpha -->
<g id="node3" class="node">
<title>alpha</title>
<ellipse fill="white" stroke="black" cx="185" cy="-242.25" rx="30.88" ry="18"/>
<text text-anchor="middle" x="185" y="-237.2" font-family="Times,serif" font-size="14.00">alpha</text>
</g>
<!-- w -->
<g id="node4" class="node">
<title>w</title>
<ellipse fill="white" stroke="black" cx="184" cy="-143" rx="27" ry="18"/>
<text text-anchor="middle" x="184" y="-137.95" font-family="Times,serif" font-size="14.00">w</text>
</g>
<!-- alpha&#45;&gt;w -->
<g id="edge1" class="edge">
<title>alpha&#45;&gt;w</title>
<path fill="none" stroke="black" d="M184.82,-223.86C184.67,-209.62 184.46,-189.17 184.29,-172.54"/>
<polygon fill="black" stroke="black" points="187.8,-172.71 184.19,-162.75 180.8,-172.78 187.8,-172.71"/>
</g>
<!-- w&#45;&gt;y -->
<g id="edge3" class="edge">
<title>w&#45;&gt;y</title>
<path fill="none" stroke="black" d="M173.64,-126C166.71,-115.87 157.04,-102.79 147,-92.5 142.47,-87.86 137.27,-83.28 132.12,-79.09"/>
<polygon fill="black" stroke="black" points="134.27,-76.33 124.23,-72.95 129.97,-81.86 134.27,-76.33"/>
</g>
<!-- distribution_description_node -->
<g id="node6" class="node">
<title>distribution_description_node</title>
<text text-anchor="start" x="242.38" y="-270.2" font-family="Times,serif" font-size="14.00">alpha ~ Exponential</text>
<text text-anchor="start" x="242.38" y="-253.7" font-family="Times,serif" font-size="14.00">w ~ Normal</text>
<text text-anchor="start" x="242.38" y="-237.2" font-family="Times,serif" font-size="14.00">ell ~ Exponential</text>
<text text-anchor="start" x="242.38" y="-220.7" font-family="Times,serif" font-size="14.00">sigma ~ Exponential</text>
<text text-anchor="start" x="242.38" y="-204.2" font-family="Times,serif" font-size="14.00">y ~ Normal</text>
</g>
</g>
</svg>