<?xml version="1.0" encoding="utf-8" standalone="no"?>
<!DOCTYPE svg PUBLIC "-//W3C//DTD SVG 1.1//EN"
  "http://www.w3.org/Graphics/SVG/1.1/DTD/svg11.dtd">
<svg xmlns:xlink="http://www.w3.org/1999/xlink" width="409.97125pt" height="322.627875pt" viewBox="0 0 409.97125 322.627875" xmlns="http://www.w3.org/2000/svg" version="1.1">
 <metadata>
  <rdf:RDF xmlns:dc="http://purl.org/dc/elements/1.1/" xmlns:cc="http://creativecommons.org/ns#" xmlns:rdf="http://www.w3.org/1999/02/22-rdf-syntax-ns#">
   <cc:Work>
    <dc:type rdf:resource="http://purl.org/dc/dcmitype/StillImage"/>
    <dc:date>2023-10-16T21:39:57.997993</dc:date>
    <dc:format>image/svg+xml</dc:format>
    <dc:creator>
     <cc:Agent>
      <dc:title>Matplotlib v3.7.1, https://matplotlib.org/</dc:title>
     </cc:Agent>
    </dc:creator>
   </cc:Work>
  </rdf:RDF>
 </metadata>
 <defs>
  <style type="text/css">*{stroke-linejoin: round; stroke-linecap: butt}</style>
 </defs>
 <g id="figure_1">
  <g id="patch_1">
   <path d="M 0 322.627875 
L 409.97125 322.627875 
L 409.97125 0 
L 0 0 
z
" style="fill: #ffffff"/>
  </g>
  <g id="axes_1">
   <g id="patch_2">
    <path d="M 45.65125 286.3005 
L 402.77125 286.3005 
L 402.77125 20.1885 
L 45.65125 20.1885 
z
" style="fill: #ffffff"/>
   </g>
   <g id="matplotlib.axis_1">
    <g id="xtick_1">
     <g id="line2d_1">
      <defs>
       <path id="m8c1dec5903" d="M 0 0 
L 0 4.8 
" style="stroke: #262626"/>
      </defs>
      <g>
       <use xlink:href="#m8c1dec5903" x="64.803586" y="286.3005" style="fill: #262626; stroke: #262626"/>
      </g>
     </g>
     <g id="text_1">
      <!-- −1.0 -->
      <g style="fill: #262626" transform="translate(56.117711 300.899375) scale(0.088 -0.088)">
       <defs>
        <path id="ArialMT-2212" d="M 3381 1997 
L 356 1997 
L 356 2522 
L 3381 2522 
L 3381 1997 
z
" transform="scale(0.015625)"/>
        <path id="ArialMT-31" d="M 2384 0 
L 1822 0 
L 1822 3584 
Q 1619 3391 1289 3197 
Q 959 3003 697 2906 
L 697 3450 
Q 1169 3672 1522 3987 
Q 1875 4303 2022 4600 
L 2384 4600 
L 2384 0 
z
" transform="scale(0.015625)"/>
        <path id="ArialMT-2e" d="M 581 0 
L 581 641 
L 1222 641 
L 1222 0 
L 581 0 
z
" transform="scale(0.015625)"/>
        <path id="ArialMT-30" d="M 266 2259 
Q 266 3072 433 3567 
Q 600 4063 929 4331 
Q 1259 4600 1759 4600 
Q 2128 4600 2406 4451 
Q 2684 4303 2865 4023 
Q 3047 3744 3150 3342 
Q 3253 2941 3253 2259 
Q 3253 1453 3087 958 
Q 2922 463 2592 192 
Q 2263 -78 1759 -78 
Q 1097 -78 719 397 
Q 266 969 266 2259 
z
M 844 2259 
Q 844 1131 1108 757 
Q 1372 384 1759 384 
Q 2147 384 2411 759 
Q 2675 1134 2675 2259 
Q 2675 3391 2411 3762 
Q 2147 4134 1753 4134 
Q 1366 4134 1134 3806 
Q 844 3388 844 2259 
z
" transform="scale(0.015625)"/>
       </defs>
       <use xlink:href="#ArialMT-2212"/>
       <use xlink:href="#ArialMT-31" x="58.398438"/>
       <use xlink:href="#ArialMT-2e" x="114.013672"/>
       <use xlink:href="#ArialMT-30" x="141.796875"/>
      </g>
     </g>
    </g>
    <g id="xtick_2">
     <g id="line2d_2">
      <g>
       <use xlink:href="#m8c1dec5903" x="109.758895" y="286.3005" style="fill: #262626; stroke: #262626"/>
      </g>
     </g>
     <g id="text_2">
      <!-- −0.5 -->
      <g style="fill: #262626" transform="translate(101.07302 300.899375) scale(0.088 -0.088)">
       <defs>
        <path id="ArialMT-35" d="M 266 1200 
L 856 1250 
Q 922 819 1161 601 
Q 1400 384 1738 384 
Q 2144 384 2425 690 
Q 2706 997 2706 1503 
Q 2706 1984 2436 2262 
Q 2166 2541 1728 2541 
Q 1456 2541 1237 2417 
Q 1019 2294 894 2097 
L 366 2166 
L 809 4519 
L 3088 4519 
L 3088 3981 
L 1259 3981 
L 1013 2750 
Q 1425 3038 1878 3038 
Q 2478 3038 2890 2622 
Q 3303 2206 3303 1553 
Q 3303 931 2941 478 
Q 2500 -78 1738 -78 
Q 1113 -78 717 272 
Q 322 622 266 1200 
z
" transform="scale(0.015625)"/>
       </defs>
       <use xlink:href="#ArialMT-2212"/>
       <use xlink:href="#ArialMT-30" x="58.398438"/>
       <use xlink:href="#ArialMT-2e" x="114.013672"/>
       <use xlink:href="#ArialMT-35" x="141.796875"/>
      </g>
     </g>
    </g>
    <g id="xtick_3">
     <g id="line2d_3">
      <g>
       <use xlink:href="#m8c1dec5903" x="154.714204" y="286.3005" style="fill: #262626; stroke: #262626"/>
      </g>
     </g>
     <g id="text_3">
      <!-- 0.0 -->
      <g style="fill: #262626" transform="translate(148.598204 300.899375) scale(0.088 -0.088)">
       <use xlink:href="#ArialMT-30"/>
       <use xlink:href="#ArialMT-2e" x="55.615234"/>
       <use xlink:href="#ArialMT-30" x="83.398438"/>
      </g>
     </g>
    </g>
    <g id="xtick_4">
     <g id="line2d_4">
      <g>
       <use xlink:href="#m8c1dec5903" x="199.669512" y="286.3005" style="fill: #262626; stroke: #262626"/>
      </g>
     </g>
     <g id="text_4">
      <!-- 0.5 -->
      <g style="fill: #262626" transform="translate(193.553512 300.899375) scale(0.088 -0.088)">
       <use xlink:href="#ArialMT-30"/>
       <use xlink:href="#ArialMT-2e" x="55.615234"/>
       <use xlink:href="#ArialMT-35" x="83.398438"/>
      </g>
     </g>
    </g>
    <g id="xtick_5">
     <g id="line2d_5">
      <g>
       <use xlink:href="#m8c1dec5903" x="244.624821" y="286.3005" style="fill: #262626; stroke: #262626"/>
      </g>
     </g>
     <g id="text_5">
      <!-- 1.0 -->
      <g style="fill: #262626" transform="translate(238.508821 300.899375) scale(0.088 -0.088)">
       <use xlink:href="#ArialMT-31"/>
       <use xlink:href="#ArialMT-2e" x="55.615234"/>
       <use xlink:href="#ArialMT-30" x="83.398438"/>
      </g>
     </g>
    </g>
    <g id="xtick_6">
     <g id="line2d_6">
      <g>
       <use xlink:href="#m8c1dec5903" x="289.58013" y="286.3005" style="fill: #262626; stroke: #262626"/>
      </g>
     </g>
     <g id="text_6">
      <!-- 1.5 -->
      <g style="fill: #262626" transform="translate(283.46413 300.899375) scale(0.088 -0.088)">
       <use xlink:href="#ArialMT-31"/>
       <use xlink:href="#ArialMT-2e" x="55.615234"/>
       <use xlink:href="#ArialMT-35" x="83.398438"/>
      </g>
     </g>
    </g>
    <g id="xtick_7">
     <g id="line2d_7">
      <g>
       <use xlink:href="#m8c1dec5903" x="334.535439" y="286.3005" style="fill: #262626; stroke: #262626"/>
      </g>
     </g>
     <g id="text_7">
      <!-- 2.0 -->
      <g style="fill: #262626" transform="translate(328.419439 300.899375) scale(0.088 -0.088)">
       <defs>
        <path id="ArialMT-32" d="M 3222 541 
L 3222 0 
L 194 0 
Q 188 203 259 391 
Q 375 700 629 1000 
Q 884 1300 1366 1694 
Q 2113 2306 2375 2664 
Q 2638 3022 2638 3341 
Q 2638 3675 2398 3904 
Q 2159 4134 1775 4134 
Q 1369 4134 1125 3890 
Q 881 3647 878 3216 
L 300 3275 
Q 359 3922 746 4261 
Q 1134 4600 1788 4600 
Q 2447 4600 2831 4234 
Q 3216 3869 3216 3328 
Q 3216 3053 3103 2787 
Q 2991 2522 2730 2228 
Q 2469 1934 1863 1422 
Q 1356 997 1212 845 
Q 1069 694 975 541 
L 3222 541 
z
" transform="scale(0.015625)"/>
       </defs>
       <use xlink:href="#ArialMT-32"/>
       <use xlink:href="#ArialMT-2e" x="55.615234"/>
       <use xlink:href="#ArialMT-30" x="83.398438"/>
      </g>
     </g>
    </g>
    <g id="xtick_8">
     <g id="line2d_8">
      <g>
       <use xlink:href="#m8c1dec5903" x="379.490748" y="286.3005" style="fill: #262626; stroke: #262626"/>
      </g>
     </g>
     <g id="text_8">
      <!-- 2.5 -->
      <g style="fill: #262626" transform="translate(373.374748 300.899375) scale(0.088 -0.088)">
       <use xlink:href="#ArialMT-32"/>
       <use xlink:href="#ArialMT-2e" x="55.615234"/>
       <use xlink:href="#ArialMT-35" x="83.398438"/>
      </g>
     </g>
    </g>
    <g id="text_9">
     <!-- Test labels -->
     <g style="fill: #262626" transform="translate(201.5365 313.519875) scale(0.096 -0.096)">
      <defs>
       <path id="ArialMT-54" d="M 1659 0 
L 1659 4041 
L 150 4041 
L 150 4581 
L 3781 4581 
L 3781 4041 
L 2266 4041 
L 2266 0 
L 1659 0 
z
" transform="scale(0.015625)"/>
       <path id="ArialMT-65" d="M 2694 1069 
L 3275 997 
Q 3138 488 2766 206 
Q 2394 -75 1816 -75 
Q 1088 -75 661 373 
Q 234 822 234 1631 
Q 234 2469 665 2931 
Q 1097 3394 1784 3394 
Q 2450 3394 2872 2941 
Q 3294 2488 3294 1666 
Q 3294 1616 3291 1516 
L 816 1516 
Q 847 969 1125 678 
Q 1403 388 1819 388 
Q 2128 388 2347 550 
Q 2566 713 2694 1069 
z
M 847 1978 
L 2700 1978 
Q 2663 2397 2488 2606 
Q 2219 2931 1791 2931 
Q 1403 2931 1139 2672 
Q 875 2413 847 1978 
z
" transform="scale(0.015625)"/>
       <path id="ArialMT-73" d="M 197 991 
L 753 1078 
Q 800 744 1014 566 
Q 1228 388 1613 388 
Q 2000 388 2187 545 
Q 2375 703 2375 916 
Q 2375 1106 2209 1216 
Q 2094 1291 1634 1406 
Q 1016 1563 777 1677 
Q 538 1791 414 1992 
Q 291 2194 291 2438 
Q 291 2659 392 2848 
Q 494 3038 669 3163 
Q 800 3259 1026 3326 
Q 1253 3394 1513 3394 
Q 1903 3394 2198 3281 
Q 2494 3169 2634 2976 
Q 2775 2784 2828 2463 
L 2278 2388 
Q 2241 2644 2061 2787 
Q 1881 2931 1553 2931 
Q 1166 2931 1000 2803 
Q 834 2675 834 2503 
Q 834 2394 903 2306 
Q 972 2216 1119 2156 
Q 1203 2125 1616 2013 
Q 2213 1853 2448 1751 
Q 2684 1650 2818 1456 
Q 2953 1263 2953 975 
Q 2953 694 2789 445 
Q 2625 197 2315 61 
Q 2006 -75 1616 -75 
Q 969 -75 630 194 
Q 291 463 197 991 
z
" transform="scale(0.015625)"/>
       <path id="ArialMT-74" d="M 1650 503 
L 1731 6 
Q 1494 -44 1306 -44 
Q 1000 -44 831 53 
Q 663 150 594 308 
Q 525 466 525 972 
L 525 2881 
L 113 2881 
L 113 3319 
L 525 3319 
L 525 4141 
L 1084 4478 
L 1084 3319 
L 1650 3319 
L 1650 2881 
L 1084 2881 
L 1084 941 
Q 1084 700 1114 631 
Q 1144 563 1211 522 
Q 1278 481 1403 481 
Q 1497 481 1650 503 
z
" transform="scale(0.015625)"/>
       <path id="ArialMT-20" transform="scale(0.015625)"/>
       <path id="ArialMT-6c" d="M 409 0 
L 409 4581 
L 972 4581 
L 972 0 
L 409 0 
z
" transform="scale(0.015625)"/>
       <path id="ArialMT-61" d="M 2588 409 
Q 2275 144 1986 34 
Q 1697 -75 1366 -75 
Q 819 -75 525 192 
Q 231 459 231 875 
Q 231 1119 342 1320 
Q 453 1522 633 1644 
Q 813 1766 1038 1828 
Q 1203 1872 1538 1913 
Q 2219 1994 2541 2106 
Q 2544 2222 2544 2253 
Q 2544 2597 2384 2738 
Q 2169 2928 1744 2928 
Q 1347 2928 1158 2789 
Q 969 2650 878 2297 
L 328 2372 
Q 403 2725 575 2942 
Q 747 3159 1072 3276 
Q 1397 3394 1825 3394 
Q 2250 3394 2515 3294 
Q 2781 3194 2906 3042 
Q 3031 2891 3081 2659 
Q 3109 2516 3109 2141 
L 3109 1391 
Q 3109 606 3145 398 
Q 3181 191 3288 0 
L 2700 0 
Q 2613 175 2588 409 
z
M 2541 1666 
Q 2234 1541 1622 1453 
Q 1275 1403 1131 1340 
Q 988 1278 909 1158 
Q 831 1038 831 891 
Q 831 666 1001 516 
Q 1172 366 1500 366 
Q 1825 366 2078 508 
Q 2331 650 2450 897 
Q 2541 1088 2541 1459 
L 2541 1666 
z
" transform="scale(0.015625)"/>
       <path id="ArialMT-62" d="M 941 0 
L 419 0 
L 419 4581 
L 981 4581 
L 981 2947 
Q 1338 3394 1891 3394 
Q 2197 3394 2470 3270 
Q 2744 3147 2920 2923 
Q 3097 2700 3197 2384 
Q 3297 2069 3297 1709 
Q 3297 856 2875 390 
Q 2453 -75 1863 -75 
Q 1275 -75 941 416 
L 941 0 
z
M 934 1684 
Q 934 1088 1097 822 
Q 1363 388 1816 388 
Q 2184 388 2453 708 
Q 2722 1028 2722 1663 
Q 2722 2313 2464 2622 
Q 2206 2931 1841 2931 
Q 1472 2931 1203 2611 
Q 934 2291 934 1684 
z
" transform="scale(0.015625)"/>
      </defs>
      <use xlink:href="#ArialMT-54"/>
      <use xlink:href="#ArialMT-65" x="49.958984"/>
      <use xlink:href="#ArialMT-73" x="105.574219"/>
      <use xlink:href="#ArialMT-74" x="155.574219"/>
      <use xlink:href="#ArialMT-20" x="183.357422"/>
      <use xlink:href="#ArialMT-6c" x="211.140625"/>
      <use xlink:href="#ArialMT-61" x="233.357422"/>
      <use xlink:href="#ArialMT-62" x="288.972656"/>
      <use xlink:href="#ArialMT-65" x="344.587891"/>
      <use xlink:href="#ArialMT-6c" x="400.203125"/>
      <use xlink:href="#ArialMT-73" x="422.419922"/>
     </g>
    </g>
   </g>
   <g id="matplotlib.axis_2">
    <g id="ytick_1">
     <g id="line2d_9">
      <defs>
       <path id="ma1c375b3af" d="M 0 0 
L -4.8 0 
" style="stroke: #262626"/>
      </defs>
      <g>
       <use xlink:href="#ma1c375b3af" x="45.65125" y="269.94912" style="fill: #262626; stroke: #262626"/>
      </g>
     </g>
     <g id="text_10">
      <!-- −1.0 -->
      <g style="fill: #262626" transform="translate(19.9795 273.098557) scale(0.088 -0.088)">
       <use xlink:href="#ArialMT-2212"/>
       <use xlink:href="#ArialMT-31" x="58.398438"/>
       <use xlink:href="#ArialMT-2e" x="114.013672"/>
       <use xlink:href="#ArialMT-30" x="141.796875"/>
      </g>
     </g>
    </g>
    <g id="ytick_2">
     <g id="line2d_10">
      <g>
       <use xlink:href="#ma1c375b3af" x="45.65125" y="236.74077" style="fill: #262626; stroke: #262626"/>
      </g>
     </g>
     <g id="text_11">
      <!-- −0.5 -->
      <g style="fill: #262626" transform="translate(19.9795 239.890207) scale(0.088 -0.088)">
       <use xlink:href="#ArialMT-2212"/>
       <use xlink:href="#ArialMT-30" x="58.398438"/>
       <use xlink:href="#ArialMT-2e" x="114.013672"/>
       <use xlink:href="#ArialMT-35" x="141.796875"/>
      </g>
     </g>
    </g>
    <g id="ytick_3">
     <g id="line2d_11">
      <g>
       <use xlink:href="#ma1c375b3af" x="45.65125" y="203.53242" style="fill: #262626; stroke: #262626"/>
      </g>
     </g>
     <g id="text_12">
      <!-- 0.0 -->
      <g style="fill: #262626" transform="translate(25.11925 206.681857) scale(0.088 -0.088)">
       <use xlink:href="#ArialMT-30"/>
       <use xlink:href="#ArialMT-2e" x="55.615234"/>
       <use xlink:href="#ArialMT-30" x="83.398438"/>
      </g>
     </g>
    </g>
    <g id="ytick_4">
     <g id="line2d_12">
      <g>
       <use xlink:href="#ma1c375b3af" x="45.65125" y="170.32407" style="fill: #262626; stroke: #262626"/>
      </g>
     </g>
     <g id="text_13">
      <!-- 0.5 -->
      <g style="fill: #262626" transform="translate(25.11925 173.473507) scale(0.088 -0.088)">
       <use xlink:href="#ArialMT-30"/>
       <use xlink:href="#ArialMT-2e" x="55.615234"/>
       <use xlink:href="#ArialMT-35" x="83.398438"/>
      </g>
     </g>
    </g>
    <g id="ytick_5">
     <g id="line2d_13">
      <g>
       <use xlink:href="#ma1c375b3af" x="45.65125" y="137.11572" style="fill: #262626; stroke: #262626"/>
      </g>
     </g>
     <g id="text_14">
      <!-- 1.0 -->
      <g style="fill: #262626" transform="translate(25.11925 140.265157) scale(0.088 -0.088)">
       <use xlink:href="#ArialMT-31"/>
       <use xlink:href="#ArialMT-2e" x="55.615234"/>
       <use xlink:href="#ArialMT-30" x="83.398438"/>
      </g>
     </g>
    </g>
    <g id="ytick_6">
     <g id="line2d_14">
      <g>
       <use xlink:href="#ma1c375b3af" x="45.65125" y="103.90737" style="fill: #262626; stroke: #262626"/>
      </g>
     </g>
     <g id="text_15">
      <!-- 1.5 -->
      <g style="fill: #262626" transform="translate(25.11925 107.056807) scale(0.088 -0.088)">
       <use xlink:href="#ArialMT-31"/>
       <use xlink:href="#ArialMT-2e" x="55.615234"/>
       <use xlink:href="#ArialMT-35" x="83.398438"/>
      </g>
     </g>
    </g>
    <g id="ytick_7">
     <g id="line2d_15">
      <g>
       <use xlink:href="#ma1c375b3af" x="45.65125" y="70.69902" style="fill: #262626; stroke: #262626"/>
      </g>
     </g>
     <g id="text_16">
      <!-- 2.0 -->
      <g style="fill: #262626" transform="translate(25.11925 73.848457) scale(0.088 -0.088)">
       <use xlink:href="#ArialMT-32"/>
       <use xlink:href="#ArialMT-2e" x="55.615234"/>
       <use xlink:href="#ArialMT-30" x="83.398438"/>
      </g>
     </g>
    </g>
    <g id="ytick_8">
     <g id="line2d_16">
      <g>
       <use xlink:href="#ma1c375b3af" x="45.65125" y="37.49067" style="fill: #262626; stroke: #262626"/>
      </g>
     </g>
     <g id="text_17">
      <!-- 2.5 -->
      <g style="fill: #262626" transform="translate(25.11925 40.640107) scale(0.088 -0.088)">
       <use xlink:href="#ArialMT-32"/>
       <use xlink:href="#ArialMT-2e" x="55.615234"/>
       <use xlink:href="#ArialMT-35" x="83.398438"/>
      </g>
     </g>
    </g>
    <g id="text_18">
     <!-- Predictions -->
     <g style="fill: #262626" transform="translate(14.0715 176.988) rotate(-90) scale(0.096 -0.096)">
      <defs>
       <path id="ArialMT-50" d="M 494 0 
L 494 4581 
L 2222 4581 
Q 2678 4581 2919 4538 
Q 3256 4481 3484 4323 
Q 3713 4166 3852 3881 
Q 3991 3597 3991 3256 
Q 3991 2672 3619 2267 
Q 3247 1863 2275 1863 
L 1100 1863 
L 1100 0 
L 494 0 
z
M 1100 2403 
L 2284 2403 
Q 2872 2403 3119 2622 
Q 3366 2841 3366 3238 
Q 3366 3525 3220 3729 
Q 3075 3934 2838 4000 
Q 2684 4041 2272 4041 
L 1100 4041 
L 1100 2403 
z
" transform="scale(0.015625)"/>
       <path id="ArialMT-72" d="M 416 0 
L 416 3319 
L 922 3319 
L 922 2816 
Q 1116 3169 1280 3281 
Q 1444 3394 1641 3394 
Q 1925 3394 2219 3213 
L 2025 2691 
Q 1819 2813 1613 2813 
Q 1428 2813 1281 2702 
Q 1134 2591 1072 2394 
Q 978 2094 978 1738 
L 978 0 
L 416 0 
z
" transform="scale(0.015625)"/>
       <path id="ArialMT-64" d="M 2575 0 
L 2575 419 
Q 2259 -75 1647 -75 
Q 1250 -75 917 144 
Q 584 363 401 755 
Q 219 1147 219 1656 
Q 219 2153 384 2558 
Q 550 2963 881 3178 
Q 1213 3394 1622 3394 
Q 1922 3394 2156 3267 
Q 2391 3141 2538 2938 
L 2538 4581 
L 3097 4581 
L 3097 0 
L 2575 0 
z
M 797 1656 
Q 797 1019 1065 703 
Q 1334 388 1700 388 
Q 2069 388 2326 689 
Q 2584 991 2584 1609 
Q 2584 2291 2321 2609 
Q 2059 2928 1675 2928 
Q 1300 2928 1048 2622 
Q 797 2316 797 1656 
z
" transform="scale(0.015625)"/>
       <path id="ArialMT-69" d="M 425 3934 
L 425 4581 
L 988 4581 
L 988 3934 
L 425 3934 
z
M 425 0 
L 425 3319 
L 988 3319 
L 988 0 
L 425 0 
z
" transform="scale(0.015625)"/>
       <path id="ArialMT-63" d="M 2588 1216 
L 3141 1144 
Q 3050 572 2676 248 
Q 2303 -75 1759 -75 
Q 1078 -75 664 370 
Q 250 816 250 1647 
Q 250 2184 428 2587 
Q 606 2991 970 3192 
Q 1334 3394 1763 3394 
Q 2303 3394 2647 3120 
Q 2991 2847 3088 2344 
L 2541 2259 
Q 2463 2594 2264 2762 
Q 2066 2931 1784 2931 
Q 1359 2931 1093 2626 
Q 828 2322 828 1663 
Q 828 994 1084 691 
Q 1341 388 1753 388 
Q 2084 388 2306 591 
Q 2528 794 2588 1216 
z
" transform="scale(0.015625)"/>
       <path id="ArialMT-6f" d="M 213 1659 
Q 213 2581 725 3025 
Q 1153 3394 1769 3394 
Q 2453 3394 2887 2945 
Q 3322 2497 3322 1706 
Q 3322 1066 3130 698 
Q 2938 331 2570 128 
Q 2203 -75 1769 -75 
Q 1072 -75 642 372 
Q 213 819 213 1659 
z
M 791 1659 
Q 791 1022 1069 705 
Q 1347 388 1769 388 
Q 2188 388 2466 706 
Q 2744 1025 2744 1678 
Q 2744 2294 2464 2611 
Q 2184 2928 1769 2928 
Q 1347 2928 1069 2612 
Q 791 2297 791 1659 
z
" transform="scale(0.015625)"/>
       <path id="ArialMT-6e" d="M 422 0 
L 422 3319 
L 928 3319 
L 928 2847 
Q 1294 3394 1984 3394 
Q 2284 3394 2536 3286 
Q 2788 3178 2913 3003 
Q 3038 2828 3088 2588 
Q 3119 2431 3119 2041 
L 3119 0 
L 2556 0 
L 2556 2019 
Q 2556 2363 2490 2533 
Q 2425 2703 2258 2804 
Q 2091 2906 1866 2906 
Q 1506 2906 1245 2678 
Q 984 2450 984 1813 
L 984 0 
L 422 0 
z
" transform="scale(0.015625)"/>
      </defs>
      <use xlink:href="#ArialMT-50"/>
      <use xlink:href="#ArialMT-72" x="66.699219"/>
      <use xlink:href="#ArialMT-65" x="100"/>
      <use xlink:href="#ArialMT-64" x="155.615234"/>
      <use xlink:href="#ArialMT-69" x="211.230469"/>
      <use xlink:href="#ArialMT-63" x="233.447266"/>
      <use xlink:href="#ArialMT-74" x="283.447266"/>
      <use xlink:href="#ArialMT-69" x="311.230469"/>
      <use xlink:href="#ArialMT-6f" x="333.447266"/>
      <use xlink:href="#ArialMT-6e" x="389.0625"/>
      <use xlink:href="#ArialMT-73" x="444.677734"/>
     </g>
    </g>
   </g>
   <g id="line2d_17">
    <path d="M 61.883977 272.105825 
L 65.163316 269.683388 
L 68.442655 267.26095 
L 71.721994 264.838513 
L 75.001333 262.416075 
L 78.280671 259.993637 
L 81.56001 257.5712 
L 84.839349 255.148762 
L 88.118688 252.726324 
L 91.398027 250.303887 
L 94.677366 247.881449 
L 97.956705 245.459011 
L 101.236043 243.036574 
L 104.515382 240.614136 
L 107.794721 238.191699 
L 111.07406 235.769261 
L 114.353399 233.346823 
L 117.632738 230.924386 
L 120.912076 228.501948 
L 124.191415 226.07951 
L 127.470754 223.657073 
L 130.750093 221.234635 
L 134.029432 218.812198 
L 137.308771 216.38976 
L 140.58811 213.967322 
L 143.867448 211.544885 
L 147.146787 209.122447 
L 150.426126 206.700009 
L 153.705465 204.277572 
L 156.984804 201.855134 
L 160.264143 199.432697 
L 163.543481 197.010259 
L 166.82282 194.587821 
L 170.102159 192.165384 
L 173.381498 189.742946 
L 176.660837 187.320508 
L 179.940176 184.898071 
L 183.219514 182.475633 
L 186.498853 180.053195 
L 189.778192 177.630758 
L 193.057531 175.20832 
L 196.33687 172.785883 
L 199.616209 170.363445 
L 202.895548 167.941007 
L 206.174886 165.51857 
L 209.454225 163.096132 
L 212.733564 160.673694 
L 216.012903 158.251257 
L 219.292242 155.828819 
L 222.571581 153.406382 
L 225.850919 150.983944 
L 229.130258 148.561506 
L 232.409597 146.139069 
L 235.688936 143.716631 
L 238.968275 141.294193 
L 242.247614 138.871756 
L 245.526952 136.449318 
L 248.806291 134.02688 
L 252.08563 131.604443 
L 255.364969 129.182005 
L 258.644308 126.759568 
L 261.923647 124.33713 
L 265.202986 121.914692 
L 268.482324 119.492255 
L 271.761663 117.069817 
L 275.041002 114.647379 
L 278.320341 112.224942 
L 281.59968 109.802504 
L 284.879019 107.380067 
L 288.158357 104.957629 
L 291.437696 102.535191 
L 294.717035 100.112754 
L 297.996374 97.690316 
L 301.275713 95.267878 
L 304.555052 92.845441 
L 307.83439 90.423003 
L 311.113729 88.000566 
L 314.393068 85.578128 
L 317.672407 83.15569 
L 320.951746 80.733253 
L 324.231085 78.310815 
L 327.510424 75.888377 
L 330.789762 73.46594 
L 334.069101 71.043502 
L 337.34844 68.621064 
L 340.627779 66.198627 
L 343.907118 63.776189 
L 347.186457 61.353752 
L 350.465795 58.931314 
L 353.745134 56.508876 
L 357.024473 54.086439 
L 360.303812 51.664001 
L 363.583151 49.241563 
L 366.86249 46.819126 
L 370.141829 44.396688 
L 373.421167 41.974251 
L 376.700506 39.551813 
L 379.979845 37.129375 
L 383.259184 34.706938 
L 386.538523 32.2845 
" clip-path="url(#p99f0a7f8ff)" style="fill: none; stroke-dasharray: 4.44,1.92; stroke-dashoffset: 0; stroke: #ff0000; stroke-width: 1.2"/>
   </g>
   <g id="line2d_18">
    <defs>
     <path id="m4a843bb1bd" d="M 0 2.4 
C 0.636487 2.4 1.246992 2.147121 1.697056 1.697056 
C 2.147121 1.246992 2.4 0.636487 2.4 0 
C 2.4 -0.636487 2.147121 -1.246992 1.697056 -1.697056 
C 1.246992 -2.147121 0.636487 -2.4 0 -2.4 
C -0.636487 -2.4 -1.246992 -2.147121 -1.697056 -1.697056 
C -2.147121 -1.246992 -2.4 -0.636487 -2.4 0 
C -2.4 0.636487 -2.147121 1.246992 -1.697056 1.697056 
C -1.246992 2.147121 -0.636487 2.4 0 2.4 
z
" style="stroke: #1f77b4"/>
    </defs>
    <g clip-path="url(#p99f0a7f8ff)">
     <use xlink:href="#m4a843bb1bd" x="85.943535" y="255.583583" style="fill: #1f77b4; stroke: #1f77b4"/>
     <use xlink:href="#m4a843bb1bd" x="275.747451" y="121.894841" style="fill: #1f77b4; stroke: #1f77b4"/>
     <use xlink:href="#m4a843bb1bd" x="181.459505" y="183.398391" style="fill: #1f77b4; stroke: #1f77b4"/>
     <use xlink:href="#m4a843bb1bd" x="67.892875" y="266.905717" style="fill: #1f77b4; stroke: #1f77b4"/>
     <use xlink:href="#m4a843bb1bd" x="130.320418" y="223.34408" style="fill: #1f77b4; stroke: #1f77b4"/>
     <use xlink:href="#m4a843bb1bd" x="88.150155" y="251.764947" style="fill: #1f77b4; stroke: #1f77b4"/>
     <use xlink:href="#m4a843bb1bd" x="195.391492" y="171.766145" style="fill: #1f77b4; stroke: #1f77b4"/>
     <use xlink:href="#m4a843bb1bd" x="263.500976" y="121.367853" style="fill: #1f77b4; stroke: #1f77b4"/>
     <use xlink:href="#m4a843bb1bd" x="90.160974" y="250.688675" style="fill: #1f77b4; stroke: #1f77b4"/>
     <use xlink:href="#m4a843bb1bd" x="96.264241" y="247.287576" style="fill: #1f77b4; stroke: #1f77b4"/>
     <use xlink:href="#m4a843bb1bd" x="122.05714" y="218.913327" style="fill: #1f77b4; stroke: #1f77b4"/>
     <use xlink:href="#m4a843bb1bd" x="66.699464" y="267.529995" style="fill: #1f77b4; stroke: #1f77b4"/>
     <use xlink:href="#m4a843bb1bd" x="295.851317" y="97.199373" style="fill: #1f77b4; stroke: #1f77b4"/>
     <use xlink:href="#m4a843bb1bd" x="107.109838" y="238.788881" style="fill: #1f77b4; stroke: #1f77b4"/>
     <use xlink:href="#m4a843bb1bd" x="161.867679" y="225.389198" style="fill: #1f77b4; stroke: #1f77b4"/>
     <use xlink:href="#m4a843bb1bd" x="95.93986" y="246.0451" style="fill: #1f77b4; stroke: #1f77b4"/>
     <use xlink:href="#m4a843bb1bd" x="201.629864" y="169.866961" style="fill: #1f77b4; stroke: #1f77b4"/>
     <use xlink:href="#m4a843bb1bd" x="352.938745" y="57.748243" style="fill: #1f77b4; stroke: #1f77b4"/>
     <use xlink:href="#m4a843bb1bd" x="83.335277" y="255.717356" style="fill: #1f77b4; stroke: #1f77b4"/>
     <use xlink:href="#m4a843bb1bd" x="113.704456" y="235.906662" style="fill: #1f77b4; stroke: #1f77b4"/>
     <use xlink:href="#m4a843bb1bd" x="69.724897" y="267.854295" style="fill: #1f77b4; stroke: #1f77b4"/>
     <use xlink:href="#m4a843bb1bd" x="67.925193" y="263.455972" style="fill: #1f77b4; stroke: #1f77b4"/>
     <use xlink:href="#m4a843bb1bd" x="96.536004" y="246.726131" style="fill: #1f77b4; stroke: #1f77b4"/>
     <use xlink:href="#m4a843bb1bd" x="100.142738" y="243.588525" style="fill: #1f77b4; stroke: #1f77b4"/>
     <use xlink:href="#m4a843bb1bd" x="104.832147" y="240.487404" style="fill: #1f77b4; stroke: #1f77b4"/>
     <use xlink:href="#m4a843bb1bd" x="227.870992" y="148.479357" style="fill: #1f77b4; stroke: #1f77b4"/>
     <use xlink:href="#m4a843bb1bd" x="158.211359" y="200.318759" style="fill: #1f77b4; stroke: #1f77b4"/>
     <use xlink:href="#m4a843bb1bd" x="97.809798" y="265.00552" style="fill: #1f77b4; stroke: #1f77b4"/>
     <use xlink:href="#m4a843bb1bd" x="297.388438" y="95.229249" style="fill: #1f77b4; stroke: #1f77b4"/>
     <use xlink:href="#m4a843bb1bd" x="145.919862" y="214.433929" style="fill: #1f77b4; stroke: #1f77b4"/>
     <use xlink:href="#m4a843bb1bd" x="175.327607" y="186.994071" style="fill: #1f77b4; stroke: #1f77b4"/>
     <use xlink:href="#m4a843bb1bd" x="294.258005" y="104.042109" style="fill: #1f77b4; stroke: #1f77b4"/>
     <use xlink:href="#m4a843bb1bd" x="117.739431" y="230.381396" style="fill: #1f77b4; stroke: #1f77b4"/>
     <use xlink:href="#m4a843bb1bd" x="96.253599" y="247.001786" style="fill: #1f77b4; stroke: #1f77b4"/>
     <use xlink:href="#m4a843bb1bd" x="69.340881" y="266.921932" style="fill: #1f77b4; stroke: #1f77b4"/>
     <use xlink:href="#m4a843bb1bd" x="182.352549" y="178.582532" style="fill: #1f77b4; stroke: #1f77b4"/>
     <use xlink:href="#m4a843bb1bd" x="95.17358" y="249.190813" style="fill: #1f77b4; stroke: #1f77b4"/>
     <use xlink:href="#m4a843bb1bd" x="231.703275" y="146.440319" style="fill: #1f77b4; stroke: #1f77b4"/>
     <use xlink:href="#m4a843bb1bd" x="256.90899" y="125.875627" style="fill: #1f77b4; stroke: #1f77b4"/>
     <use xlink:href="#m4a843bb1bd" x="158.74375" y="199.589083" style="fill: #1f77b4; stroke: #1f77b4"/>
     <use xlink:href="#m4a843bb1bd" x="118.93572" y="245.559663" style="fill: #1f77b4; stroke: #1f77b4"/>
     <use xlink:href="#m4a843bb1bd" x="65.090045" y="265.33286" style="fill: #1f77b4; stroke: #1f77b4"/>
     <use xlink:href="#m4a843bb1bd" x="92.022679" y="250.269112" style="fill: #1f77b4; stroke: #1f77b4"/>
     <use xlink:href="#m4a843bb1bd" x="104.286861" y="234.212193" style="fill: #1f77b4; stroke: #1f77b4"/>
     <use xlink:href="#m4a843bb1bd" x="61.883977" y="271.243233" style="fill: #1f77b4; stroke: #1f77b4"/>
     <use xlink:href="#m4a843bb1bd" x="199.864057" y="169.5305" style="fill: #1f77b4; stroke: #1f77b4"/>
     <use xlink:href="#m4a843bb1bd" x="93.158746" y="249.342829" style="fill: #1f77b4; stroke: #1f77b4"/>
     <use xlink:href="#m4a843bb1bd" x="196.027802" y="171.358743" style="fill: #1f77b4; stroke: #1f77b4"/>
     <use xlink:href="#m4a843bb1bd" x="79.47565" y="258.522554" style="fill: #1f77b4; stroke: #1f77b4"/>
     <use xlink:href="#m4a843bb1bd" x="126.067111" y="227.284328" style="fill: #1f77b4; stroke: #1f77b4"/>
     <use xlink:href="#m4a843bb1bd" x="123.187769" y="228.038326" style="fill: #1f77b4; stroke: #1f77b4"/>
     <use xlink:href="#m4a843bb1bd" x="138.260539" y="215.350077" style="fill: #1f77b4; stroke: #1f77b4"/>
     <use xlink:href="#m4a843bb1bd" x="92.925588" y="247.45986" style="fill: #1f77b4; stroke: #1f77b4"/>
     <use xlink:href="#m4a843bb1bd" x="124.360248" y="228.354519" style="fill: #1f77b4; stroke: #1f77b4"/>
     <use xlink:href="#m4a843bb1bd" x="101.915565" y="238.946978" style="fill: #1f77b4; stroke: #1f77b4"/>
     <use xlink:href="#m4a843bb1bd" x="67.361401" y="267.825919" style="fill: #1f77b4; stroke: #1f77b4"/>
     <use xlink:href="#m4a843bb1bd" x="260.846936" y="123.329869" style="fill: #1f77b4; stroke: #1f77b4"/>
     <use xlink:href="#m4a843bb1bd" x="186.275227" y="181.485019" style="fill: #1f77b4; stroke: #1f77b4"/>
     <use xlink:href="#m4a843bb1bd" x="210.298984" y="194.689108" style="fill: #1f77b4; stroke: #1f77b4"/>
     <use xlink:href="#m4a843bb1bd" x="216.168798" y="157.835421" style="fill: #1f77b4; stroke: #1f77b4"/>
     <use xlink:href="#m4a843bb1bd" x="97.688503" y="244.63034" style="fill: #1f77b4; stroke: #1f77b4"/>
     <use xlink:href="#m4a843bb1bd" x="81.141887" y="256.706472" style="fill: #1f77b4; stroke: #1f77b4"/>
     <use xlink:href="#m4a843bb1bd" x="94.257503" y="249.403635" style="fill: #1f77b4; stroke: #1f77b4"/>
     <use xlink:href="#m4a843bb1bd" x="87.169724" y="261.34194" style="fill: #1f77b4; stroke: #1f77b4"/>
     <use xlink:href="#m4a843bb1bd" x="109.563322" y="236.364736" style="fill: #1f77b4; stroke: #1f77b4"/>
     <use xlink:href="#m4a843bb1bd" x="209.151026" y="163.891728" style="fill: #1f77b4; stroke: #1f77b4"/>
     <use xlink:href="#m4a843bb1bd" x="360.084391" y="56.041612" style="fill: #1f77b4; stroke: #1f77b4"/>
     <use xlink:href="#m4a843bb1bd" x="122.189488" y="230.478686" style="fill: #1f77b4; stroke: #1f77b4"/>
     <use xlink:href="#m4a843bb1bd" x="126.217451" y="227.680583" style="fill: #1f77b4; stroke: #1f77b4"/>
     <use xlink:href="#m4a843bb1bd" x="88.195503" y="254.906606" style="fill: #1f77b4; stroke: #1f77b4"/>
     <use xlink:href="#m4a843bb1bd" x="130.766015" y="222.403609" style="fill: #1f77b4; stroke: #1f77b4"/>
     <use xlink:href="#m4a843bb1bd" x="248.481936" y="139.796217" style="fill: #1f77b4; stroke: #1f77b4"/>
     <use xlink:href="#m4a843bb1bd" x="289.301524" y="109.595752" style="fill: #1f77b4; stroke: #1f77b4"/>
     <use xlink:href="#m4a843bb1bd" x="90.206793" y="253.268889" style="fill: #1f77b4; stroke: #1f77b4"/>
     <use xlink:href="#m4a843bb1bd" x="120.228993" y="230.673266" style="fill: #1f77b4; stroke: #1f77b4"/>
     <use xlink:href="#m4a843bb1bd" x="195.36725" y="173.705866" style="fill: #1f77b4; stroke: #1f77b4"/>
     <use xlink:href="#m4a843bb1bd" x="83.587582" y="255.510615" style="fill: #1f77b4; stroke: #1f77b4"/>
     <use xlink:href="#m4a843bb1bd" x="67.538959" y="274.2045" style="fill: #1f77b4; stroke: #1f77b4"/>
     <use xlink:href="#m4a843bb1bd" x="64.191598" y="266.921932" style="fill: #1f77b4; stroke: #1f77b4"/>
     <use xlink:href="#m4a843bb1bd" x="386.538523" y="35.533673" style="fill: #1f77b4; stroke: #1f77b4"/>
     <use xlink:href="#m4a843bb1bd" x="131.670552" y="211.511173" style="fill: #1f77b4; stroke: #1f77b4"/>
     <use xlink:href="#m4a843bb1bd" x="92.613957" y="249.563758" style="fill: #1f77b4; stroke: #1f77b4"/>
     <use xlink:href="#m4a843bb1bd" x="233.82217" y="146.655168" style="fill: #1f77b4; stroke: #1f77b4"/>
     <use xlink:href="#m4a843bb1bd" x="87.691514" y="258.148595" style="fill: #1f77b4; stroke: #1f77b4"/>
     <use xlink:href="#m4a843bb1bd" x="97.229458" y="245.741069" style="fill: #1f77b4; stroke: #1f77b4"/>
     <use xlink:href="#m4a843bb1bd" x="136.77213" y="217.17832" style="fill: #1f77b4; stroke: #1f77b4"/>
     <use xlink:href="#m4a843bb1bd" x="78.739815" y="258.45364" style="fill: #1f77b4; stroke: #1f77b4"/>
     <use xlink:href="#m4a843bb1bd" x="119.260593" y="227.440398" style="fill: #1f77b4; stroke: #1f77b4"/>
     <use xlink:href="#m4a843bb1bd" x="275.440138" y="121.05166" style="fill: #1f77b4; stroke: #1f77b4"/>
     <use xlink:href="#m4a843bb1bd" x="93.915554" y="248.702336" style="fill: #1f77b4; stroke: #1f77b4"/>
     <use xlink:href="#m4a843bb1bd" x="75.094572" y="262.333082" style="fill: #1f77b4; stroke: #1f77b4"/>
     <use xlink:href="#m4a843bb1bd" x="326.602095" y="75.073986" style="fill: #1f77b4; stroke: #1f77b4"/>
     <use xlink:href="#m4a843bb1bd" x="242.973784" y="136.877514" style="fill: #1f77b4; stroke: #1f77b4"/>
     <use xlink:href="#m4a843bb1bd" x="277.336583" y="111.391565" style="fill: #1f77b4; stroke: #1f77b4"/>
     <use xlink:href="#m4a843bb1bd" x="155.719661" y="200.65522" style="fill: #1f77b4; stroke: #1f77b4"/>
     <use xlink:href="#m4a843bb1bd" x="117.437166" y="229.943591" style="fill: #1f77b4; stroke: #1f77b4"/>
     <use xlink:href="#m4a843bb1bd" x="91.152583" y="248.769223" style="fill: #1f77b4; stroke: #1f77b4"/>
     <use xlink:href="#m4a843bb1bd" x="185.904817" y="179.993238" style="fill: #1f77b4; stroke: #1f77b4"/>
     <use xlink:href="#m4a843bb1bd" x="85.447026" y="252.595966" style="fill: #1f77b4; stroke: #1f77b4"/>
     <use xlink:href="#m4a843bb1bd" x="113.959063" y="235.270223" style="fill: #1f77b4; stroke: #1f77b4"/>
    </g>
   </g>
   <g id="patch_3">
    <path d="M 45.65125 269.94912 
L 45.65125 37.49067 
" style="fill: none; stroke: #262626; stroke-linejoin: miter; stroke-linecap: square"/>
   </g>
   <g id="patch_4">
    <path d="M 64.803586 286.3005 
L 379.490748 286.3005 
" style="fill: none; stroke: #262626; stroke-linejoin: miter; stroke-linecap: square"/>
   </g>
   <g id="text_19">
    <!-- Predictions vs True test values (ARD, RMSE = 0.085) -->
    <g style="fill: #262626" transform="translate(110.43775 14.1885) scale(0.096 -0.096)">
     <defs>
      <path id="ArialMT-76" d="M 1344 0 
L 81 3319 
L 675 3319 
L 1388 1331 
Q 1503 1009 1600 663 
Q 1675 925 1809 1294 
L 2547 3319 
L 3125 3319 
L 1869 0 
L 1344 0 
z
" transform="scale(0.015625)"/>
      <path id="ArialMT-75" d="M 2597 0 
L 2597 488 
Q 2209 -75 1544 -75 
Q 1250 -75 995 37 
Q 741 150 617 320 
Q 494 491 444 738 
Q 409 903 409 1263 
L 409 3319 
L 972 3319 
L 972 1478 
Q 972 1038 1006 884 
Q 1059 663 1231 536 
Q 1403 409 1656 409 
Q 1909 409 2131 539 
Q 2353 669 2445 892 
Q 2538 1116 2538 1541 
L 2538 3319 
L 3100 3319 
L 3100 0 
L 2597 0 
z
" transform="scale(0.015625)"/>
      <path id="ArialMT-28" d="M 1497 -1347 
Q 1031 -759 709 28 
Q 388 816 388 1659 
Q 388 2403 628 3084 
Q 909 3875 1497 4659 
L 1900 4659 
Q 1522 4009 1400 3731 
Q 1209 3300 1100 2831 
Q 966 2247 966 1656 
Q 966 153 1900 -1347 
L 1497 -1347 
z
" transform="scale(0.015625)"/>
      <path id="ArialMT-41" d="M -9 0 
L 1750 4581 
L 2403 4581 
L 4278 0 
L 3588 0 
L 3053 1388 
L 1138 1388 
L 634 0 
L -9 0 
z
M 1313 1881 
L 2866 1881 
L 2388 3150 
Q 2169 3728 2063 4100 
Q 1975 3659 1816 3225 
L 1313 1881 
z
" transform="scale(0.015625)"/>
      <path id="ArialMT-52" d="M 503 0 
L 503 4581 
L 2534 4581 
Q 3147 4581 3465 4457 
Q 3784 4334 3975 4021 
Q 4166 3709 4166 3331 
Q 4166 2844 3850 2509 
Q 3534 2175 2875 2084 
Q 3116 1969 3241 1856 
Q 3506 1613 3744 1247 
L 4541 0 
L 3778 0 
L 3172 953 
Q 2906 1366 2734 1584 
Q 2563 1803 2427 1890 
Q 2291 1978 2150 2013 
Q 2047 2034 1813 2034 
L 1109 2034 
L 1109 0 
L 503 0 
z
M 1109 2559 
L 2413 2559 
Q 2828 2559 3062 2645 
Q 3297 2731 3419 2920 
Q 3541 3109 3541 3331 
Q 3541 3656 3305 3865 
Q 3069 4075 2559 4075 
L 1109 4075 
L 1109 2559 
z
" transform="scale(0.015625)"/>
      <path id="ArialMT-44" d="M 494 0 
L 494 4581 
L 2072 4581 
Q 2606 4581 2888 4516 
Q 3281 4425 3559 4188 
Q 3922 3881 4101 3404 
Q 4281 2928 4281 2316 
Q 4281 1794 4159 1391 
Q 4038 988 3847 723 
Q 3656 459 3429 307 
Q 3203 156 2883 78 
Q 2563 0 2147 0 
L 494 0 
z
M 1100 541 
L 2078 541 
Q 2531 541 2789 625 
Q 3047 709 3200 863 
Q 3416 1078 3536 1442 
Q 3656 1806 3656 2325 
Q 3656 3044 3420 3430 
Q 3184 3816 2847 3947 
Q 2603 4041 2063 4041 
L 1100 4041 
L 1100 541 
z
" transform="scale(0.015625)"/>
      <path id="ArialMT-2c" d="M 569 0 
L 569 641 
L 1209 641 
L 1209 0 
Q 1209 -353 1084 -570 
Q 959 -788 688 -906 
L 531 -666 
Q 709 -588 793 -436 
Q 878 -284 888 0 
L 569 0 
z
" transform="scale(0.015625)"/>
      <path id="ArialMT-4d" d="M 475 0 
L 475 4581 
L 1388 4581 
L 2472 1338 
Q 2622 884 2691 659 
Q 2769 909 2934 1394 
L 4031 4581 
L 4847 4581 
L 4847 0 
L 4263 0 
L 4263 3834 
L 2931 0 
L 2384 0 
L 1059 3900 
L 1059 0 
L 475 0 
z
" transform="scale(0.015625)"/>
      <path id="ArialMT-53" d="M 288 1472 
L 859 1522 
Q 900 1178 1048 958 
Q 1197 738 1509 602 
Q 1822 466 2213 466 
Q 2559 466 2825 569 
Q 3091 672 3220 851 
Q 3350 1031 3350 1244 
Q 3350 1459 3225 1620 
Q 3100 1781 2813 1891 
Q 2628 1963 1997 2114 
Q 1366 2266 1113 2400 
Q 784 2572 623 2826 
Q 463 3081 463 3397 
Q 463 3744 659 4045 
Q 856 4347 1234 4503 
Q 1613 4659 2075 4659 
Q 2584 4659 2973 4495 
Q 3363 4331 3572 4012 
Q 3781 3694 3797 3291 
L 3216 3247 
Q 3169 3681 2898 3903 
Q 2628 4125 2100 4125 
Q 1550 4125 1298 3923 
Q 1047 3722 1047 3438 
Q 1047 3191 1225 3031 
Q 1400 2872 2139 2705 
Q 2878 2538 3153 2413 
Q 3553 2228 3743 1945 
Q 3934 1663 3934 1294 
Q 3934 928 3725 604 
Q 3516 281 3123 101 
Q 2731 -78 2241 -78 
Q 1619 -78 1198 103 
Q 778 284 539 648 
Q 300 1013 288 1472 
z
" transform="scale(0.015625)"/>
      <path id="ArialMT-45" d="M 506 0 
L 506 4581 
L 3819 4581 
L 3819 4041 
L 1113 4041 
L 1113 2638 
L 3647 2638 
L 3647 2100 
L 1113 2100 
L 1113 541 
L 3925 541 
L 3925 0 
L 506 0 
z
" transform="scale(0.015625)"/>
      <path id="ArialMT-3d" d="M 3381 2694 
L 356 2694 
L 356 3219 
L 3381 3219 
L 3381 2694 
z
M 3381 1303 
L 356 1303 
L 356 1828 
L 3381 1828 
L 3381 1303 
z
" transform="scale(0.015625)"/>
      <path id="ArialMT-38" d="M 1131 2484 
Q 781 2613 612 2850 
Q 444 3088 444 3419 
Q 444 3919 803 4259 
Q 1163 4600 1759 4600 
Q 2359 4600 2725 4251 
Q 3091 3903 3091 3403 
Q 3091 3084 2923 2848 
Q 2756 2613 2416 2484 
Q 2838 2347 3058 2040 
Q 3278 1734 3278 1309 
Q 3278 722 2862 322 
Q 2447 -78 1769 -78 
Q 1091 -78 675 323 
Q 259 725 259 1325 
Q 259 1772 486 2073 
Q 713 2375 1131 2484 
z
M 1019 3438 
Q 1019 3113 1228 2906 
Q 1438 2700 1772 2700 
Q 2097 2700 2305 2904 
Q 2513 3109 2513 3406 
Q 2513 3716 2298 3927 
Q 2084 4138 1766 4138 
Q 1444 4138 1231 3931 
Q 1019 3725 1019 3438 
z
M 838 1322 
Q 838 1081 952 856 
Q 1066 631 1291 507 
Q 1516 384 1775 384 
Q 2178 384 2440 643 
Q 2703 903 2703 1303 
Q 2703 1709 2433 1975 
Q 2163 2241 1756 2241 
Q 1359 2241 1098 1978 
Q 838 1716 838 1322 
z
" transform="scale(0.015625)"/>
      <path id="ArialMT-29" d="M 791 -1347 
L 388 -1347 
Q 1322 153 1322 1656 
Q 1322 2244 1188 2822 
Q 1081 3291 891 3722 
Q 769 4003 388 4659 
L 791 4659 
Q 1378 3875 1659 3084 
Q 1900 2403 1900 1659 
Q 1900 816 1576 28 
Q 1253 -759 791 -1347 
z
" transform="scale(0.015625)"/>
     </defs>
     <use xlink:href="#ArialMT-50"/>
     <use xlink:href="#ArialMT-72" x="66.699219"/>
     <use xlink:href="#ArialMT-65" x="100"/>
     <use xlink:href="#ArialMT-64" x="155.615234"/>
     <use xlink:href="#ArialMT-69" x="211.230469"/>
     <use xlink:href="#ArialMT-63" x="233.447266"/>
     <use xlink:href="#ArialMT-74" x="283.447266"/>
     <use xlink:href="#ArialMT-69" x="311.230469"/>
     <use xlink:href="#ArialMT-6f" x="333.447266"/>
     <use xlink:href="#ArialMT-6e" x="389.0625"/>
     <use xlink:href="#ArialMT-73" x="444.677734"/>
     <use xlink:href="#ArialMT-20" x="494.677734"/>
     <use xlink:href="#ArialMT-76" x="522.460938"/>
     <use xlink:href="#ArialMT-73" x="572.460938"/>
     <use xlink:href="#ArialMT-20" x="622.460938"/>
     <use xlink:href="#ArialMT-54" x="648.494141"/>
     <use xlink:href="#ArialMT-72" x="705.828125"/>
     <use xlink:href="#ArialMT-75" x="739.128906"/>
     <use xlink:href="#ArialMT-65" x="794.744141"/>
     <use xlink:href="#ArialMT-20" x="850.359375"/>
     <use xlink:href="#ArialMT-74" x="878.142578"/>
     <use xlink:href="#ArialMT-65" x="905.925781"/>
     <use xlink:href="#ArialMT-73" x="961.541016"/>
     <use xlink:href="#ArialMT-74" x="1011.541016"/>
     <use xlink:href="#ArialMT-20" x="1039.324219"/>
     <use xlink:href="#ArialMT-76" x="1067.107422"/>
     <use xlink:href="#ArialMT-61" x="1117.107422"/>
     <use xlink:href="#ArialMT-6c" x="1172.722656"/>
     <use xlink:href="#ArialMT-75" x="1194.939453"/>
     <use xlink:href="#ArialMT-65" x="1250.554688"/>
     <use xlink:href="#ArialMT-73" x="1306.169922"/>
     <use xlink:href="#ArialMT-20" x="1356.169922"/>
     <use xlink:href="#ArialMT-28" x="1383.953125"/>
     <use xlink:href="#ArialMT-41" x="1417.253906"/>
     <use xlink:href="#ArialMT-52" x="1483.953125"/>
     <use xlink:href="#ArialMT-44" x="1556.169922"/>
     <use xlink:href="#ArialMT-2c" x="1628.386719"/>
     <use xlink:href="#ArialMT-20" x="1656.169922"/>
     <use xlink:href="#ArialMT-52" x="1683.953125"/>
     <use xlink:href="#ArialMT-4d" x="1756.169922"/>
     <use xlink:href="#ArialMT-53" x="1839.470703"/>
     <use xlink:href="#ArialMT-45" x="1906.169922"/>
     <use xlink:href="#ArialMT-20" x="1972.869141"/>
     <use xlink:href="#ArialMT-3d" x="2000.652344"/>
     <use xlink:href="#ArialMT-20" x="2059.050781"/>
     <use xlink:href="#ArialMT-30" x="2086.833984"/>
     <use xlink:href="#ArialMT-2e" x="2142.449219"/>
     <use xlink:href="#ArialMT-30" x="2170.232422"/>
     <use xlink:href="#ArialMT-38" x="2225.847656"/>
     <use xlink:href="#ArialMT-35" x="2281.462891"/>
     <use xlink:href="#ArialMT-29" x="2337.078125"/>
    </g>
   </g>
  </g>
 </g>
 <defs>
  <clipPath id="p99f0a7f8ff">
   <rect x="45.65125" y="20.1885" width="357.12" height="266.112"/>
  </clipPath>
 </defs>
</svg>