<?xml version="1.0" encoding="utf-8" standalone="no"?>
<!DOCTYPE svg PUBLIC "-//W3C//DTD SVG 1.1//EN"
  "http://www.w3.org/Graphics/SVG/1.1/DTD/svg11.dtd">
<svg xmlns:xlink="http://www.w3.org/1999/xlink" width="457.918045pt" height="342.72pt" viewBox="0 0 457.918045 342.72" xmlns="http://www.w3.org/2000/svg" version="1.1">
 <metadata>
  <rdf:RDF xmlns:dc="http://purl.org/dc/elements/1.1/" xmlns:cc="http://creativecommons.org/ns#" xmlns:rdf="http://www.w3.org/1999/02/22-rdf-syntax-ns#">
   <cc:Work>
    <dc:type rdf:resource="http://purl.org/dc/dcmitype/StillImage"/>
    <dc:date>2026-08-16T16:29:28.867420</dc:date>
    <dc:format>image/svg+xml</dc:format>
    <dc:creator>
     <cc:Agent>
      <dc:title>Matplotlib v3.11.1, https://matplotlib.org/</dc:title>
     </cc:Agent>
    </dc:creator>
   </cc:Work>
  </rdf:RDF>
 </metadata>
 <defs>
  <style type="text/css">*{stroke-linejoin: round; stroke-linecap: butt}</style>
 </defs>
 <g id="figure_1">
  <g id="patch_1">
   <path d="M 0 342.72 
L 457.918045 342.72 
L 457.918045 0 
L 0 0 
z
" style="fill: #ffffff"/>
  </g>
  <g id="axes_1">
   <g id="patch_2">
    <path d="M 27.155625 313.02 
L 447.562361 313.02 
L 447.562361 7.2 
L 27.155625 7.2 
z
" style="fill: #ffffff"/>
   </g>
   <g id="matplotlib.axis_1">
    <g id="xtick_1">
     <g id="line2d_1"/>
     <g id="text_1">
      <!-- 0.0 -->
      <g style="fill: #262626" transform="translate(40.698928 321.838359) scale(0.07 -0.07)">
       <defs>
        <path id="DejaVuSerif-13" d="M 2034 219 
Q 2513 219 2750 744 
Q 2988 1269 2988 2328 
Q 2988 3391 2750 3916 
Q 2513 4441 2034 4441 
Q 1556 4441 1318 3916 
Q 1081 3391 1081 2328 
Q 1081 1269 1318 744 
Q 1556 219 2034 219 
z
M 2034 -91 
Q 1275 -91 848 546 
Q 422 1184 422 2328 
Q 422 3475 848 4112 
Q 1275 4750 2034 4750 
Q 2797 4750 3222 4112 
Q 3647 3475 3647 2328 
Q 3647 1184 3222 546 
Q 2797 -91 2034 -91 
z
" transform="scale(0.015625)"/>
        <path id="DejaVuSerif-11" d="M 603 325 
Q 603 500 722 622 
Q 841 744 1019 744 
Q 1191 744 1312 622 
Q 1434 500 1434 325 
Q 1434 153 1312 31 
Q 1191 -91 1019 -91 
Q 841 -91 722 29 
Q 603 150 603 325 
z
" transform="scale(0.015625)"/>
       </defs>
       <use xlink:href="#DejaVuSerif-13"/>
       <use xlink:href="#DejaVuSerif-11" transform="translate(63.625 0)"/>
       <use xlink:href="#DejaVuSerif-13" transform="translate(95.40625 0)"/>
      </g>
     </g>
    </g>
    <g id="xtick_2">
     <g id="line2d_2"/>
     <g id="text_2">
      <!-- 0.5 -->
      <g style="fill: #262626" transform="translate(90.559794 321.838359) scale(0.07 -0.07)">
       <defs>
        <path id="DejaVuSerif-18" d="M 3219 4666 
L 3219 4153 
L 1081 4153 
L 1081 2816 
Q 1244 2928 1461 2984 
Q 1678 3041 1947 3041 
Q 2703 3041 3140 2622 
Q 3578 2203 3578 1478 
Q 3578 738 3136 323 
Q 2694 -91 1894 -91 
Q 1572 -91 1234 -12 
Q 897 66 544 225 
L 544 1131 
L 897 1131 
Q 925 688 1179 453 
Q 1434 219 1894 219 
Q 2388 219 2653 544 
Q 2919 869 2919 1478 
Q 2919 2084 2655 2407 
Q 2391 2731 1894 2731 
Q 1613 2731 1398 2631 
Q 1184 2531 1019 2322 
L 750 2322 
L 750 4666 
L 3219 4666 
z
" transform="scale(0.015625)"/>
       </defs>
       <use xlink:href="#DejaVuSerif-13"/>
       <use xlink:href="#DejaVuSerif-11" transform="translate(63.625 0)"/>
       <use xlink:href="#DejaVuSerif-18" transform="translate(95.40625 0)"/>
      </g>
     </g>
    </g>
    <g id="xtick_3">
     <g id="line2d_3"/>
     <g id="text_3">
      <!-- 1.0 -->
      <g style="fill: #262626" transform="translate(140.42066 321.838359) scale(0.07 -0.07)">
       <defs>
        <path id="DejaVuSerif-14" d="M 909 0 
L 909 331 
L 1722 331 
L 1722 4213 
L 781 3603 
L 781 4013 
L 1919 4750 
L 2350 4750 
L 2350 331 
L 3163 331 
L 3163 0 
L 909 0 
z
" transform="scale(0.015625)"/>
       </defs>
       <use xlink:href="#DejaVuSerif-14"/>
       <use xlink:href="#DejaVuSerif-11" transform="translate(63.625 0)"/>
       <use xlink:href="#DejaVuSerif-13" transform="translate(95.40625 0)"/>
      </g>
     </g>
    </g>
    <g id="xtick_4">
     <g id="line2d_4"/>
     <g id="text_4">
      <!-- 1.5 -->
      <g style="fill: #262626" transform="translate(190.281526 321.838359) scale(0.07 -0.07)">
       <use xlink:href="#DejaVuSerif-14"/>
       <use xlink:href="#DejaVuSerif-11" transform="translate(63.625 0)"/>
       <use xlink:href="#DejaVuSerif-18" transform="translate(95.40625 0)"/>
      </g>
     </g>
    </g>
    <g id="xtick_5">
     <g id="line2d_5"/>
     <g id="text_5">
      <!-- 2.0 -->
      <g style="fill: #262626" transform="translate(240.142392 321.838359) scale(0.07 -0.07)">
       <defs>
        <path id="DejaVuSerif-15" d="M 819 3553 
L 469 3553 
L 469 4384 
Q 803 4563 1142 4656 
Q 1481 4750 1806 4750 
Q 2534 4750 2956 4397 
Q 3378 4044 3378 3438 
Q 3378 2753 2422 1800 
Q 2347 1728 2309 1691 
L 1131 513 
L 3078 513 
L 3078 1088 
L 3444 1088 
L 3444 0 
L 434 0 
L 434 341 
L 1850 1753 
Q 2319 2222 2519 2614 
Q 2719 3006 2719 3438 
Q 2719 3909 2473 4175 
Q 2228 4441 1797 4441 
Q 1350 4441 1106 4219 
Q 863 3997 819 3553 
z
" transform="scale(0.015625)"/>
       </defs>
       <use xlink:href="#DejaVuSerif-15"/>
       <use xlink:href="#DejaVuSerif-11" transform="translate(63.625 0)"/>
       <use xlink:href="#DejaVuSerif-13" transform="translate(95.40625 0)"/>
      </g>
     </g>
    </g>
    <g id="xtick_6">
     <g id="line2d_6"/>
     <g id="text_6">
      <!-- 2.5 -->
      <g style="fill: #262626" transform="translate(290.003259 321.838359) scale(0.07 -0.07)">
       <use xlink:href="#DejaVuSerif-15"/>
       <use xlink:href="#DejaVuSerif-11" transform="translate(63.625 0)"/>
       <use xlink:href="#DejaVuSerif-18" transform="translate(95.40625 0)"/>
      </g>
     </g>
    </g>
    <g id="xtick_7">
     <g id="line2d_7"/>
     <g id="text_7">
      <!-- 3.0 -->
      <g style="fill: #262626" transform="translate(339.864125 321.838359) scale(0.07 -0.07)">
       <defs>
        <path id="DejaVuSerif-16" d="M 622 4469 
Q 988 4606 1323 4678 
Q 1659 4750 1953 4750 
Q 2638 4750 3022 4454 
Q 3406 4159 3406 3634 
Q 3406 3213 3140 2930 
Q 2875 2647 2388 2547 
Q 2963 2466 3280 2130 
Q 3597 1794 3597 1259 
Q 3597 606 3158 257 
Q 2719 -91 1894 -91 
Q 1528 -91 1179 -12 
Q 831 66 488 225 
L 488 1131 
L 838 1131 
Q 869 681 1141 450 
Q 1413 219 1906 219 
Q 2384 219 2661 495 
Q 2938 772 2938 1253 
Q 2938 1803 2653 2086 
Q 2369 2369 1819 2369 
L 1522 2369 
L 1522 2688 
L 1678 2688 
Q 2225 2688 2498 2914 
Q 2772 3141 2772 3597 
Q 2772 4006 2547 4223 
Q 2322 4441 1900 4441 
Q 1478 4441 1245 4241 
Q 1013 4041 972 3647 
L 622 3647 
L 622 4469 
z
" transform="scale(0.015625)"/>
       </defs>
       <use xlink:href="#DejaVuSerif-16"/>
       <use xlink:href="#DejaVuSerif-11" transform="translate(63.625 0)"/>
       <use xlink:href="#DejaVuSerif-13" transform="translate(95.40625 0)"/>
      </g>
     </g>
    </g>
    <g id="xtick_8">
     <g id="line2d_8"/>
     <g id="text_8">
      <!-- 3.5 -->
      <g style="fill: #262626" transform="translate(389.724991 321.838359) scale(0.07 -0.07)">
       <use xlink:href="#DejaVuSerif-16"/>
       <use xlink:href="#DejaVuSerif-11" transform="translate(63.625 0)"/>
       <use xlink:href="#DejaVuSerif-18" transform="translate(95.40625 0)"/>
      </g>
     </g>
    </g>
    <g id="xtick_9">
     <g id="line2d_9"/>
     <g id="text_9">
      <!-- 4.0 -->
      <g style="fill: #262626" transform="translate(439.585857 321.838359) scale(0.07 -0.07)">
       <defs>
        <path id="DejaVuSerif-17" d="M 2234 1581 
L 2234 4063 
L 641 1581 
L 2234 1581 
z
M 3609 0 
L 1484 0 
L 1484 331 
L 2234 331 
L 2234 1247 
L 197 1247 
L 197 1588 
L 2241 4750 
L 2859 4750 
L 2859 1581 
L 3750 1581 
L 3750 1247 
L 2859 1247 
L 2859 331 
L 3609 331 
L 3609 0 
z
" transform="scale(0.015625)"/>
       </defs>
       <use xlink:href="#DejaVuSerif-17"/>
       <use xlink:href="#DejaVuSerif-11" transform="translate(63.625 0)"/>
       <use xlink:href="#DejaVuSerif-13" transform="translate(95.40625 0)"/>
      </g>
     </g>
    </g>
    <g id="text_10">
     <!-- $y$ -->
     <g style="fill: #262626" transform="translate(234.958993 333.598125) scale(0.08 -0.08)">
      <defs>
       <path id="DejaVuSans-Oblique-5c" d="M 1588 -325 
Q 1188 -997 936 -1164 
Q 684 -1331 294 -1331 
L -159 -1331 
L -63 -850 
L 269 -850 
Q 509 -850 678 -719 
Q 847 -588 1056 -206 
L 1234 128 
L 459 3500 
L 1069 3500 
L 1650 819 
L 3256 3500 
L 3859 3500 
L 1588 -325 
z
" transform="scale(0.015625)"/>
      </defs>
      <use xlink:href="#DejaVuSans-Oblique-5c" transform="translate(0 0.3125)"/>
     </g>
    </g>
   </g>
   <g id="matplotlib.axis_2">
    <g id="ytick_1">
     <g id="line2d_10"/>
     <g id="text_11">
      <!-- 0 -->
      <g style="fill: #262626" transform="translate(19.201875 315.67918) scale(0.07 -0.07)">
       <use xlink:href="#DejaVuSerif-13"/>
      </g>
     </g>
    </g>
    <g id="ytick_2">
     <g id="line2d_11"/>
     <g id="text_12">
      <!-- 1 -->
      <g style="fill: #262626" transform="translate(19.201875 255.406185) scale(0.07 -0.07)">
       <use xlink:href="#DejaVuSerif-14"/>
      </g>
     </g>
    </g>
    <g id="ytick_3">
     <g id="line2d_12"/>
     <g id="text_13">
      <!-- 2 -->
      <g style="fill: #262626" transform="translate(19.201875 195.133191) scale(0.07 -0.07)">
       <use xlink:href="#DejaVuSerif-15"/>
      </g>
     </g>
    </g>
    <g id="ytick_4">
     <g id="line2d_13"/>
     <g id="text_14">
      <!-- 3 -->
      <g style="fill: #262626" transform="translate(19.201875 134.860196) scale(0.07 -0.07)">
       <use xlink:href="#DejaVuSerif-16"/>
      </g>
     </g>
    </g>
    <g id="ytick_5">
     <g id="line2d_14"/>
     <g id="text_15">
      <!-- 4 -->
      <g style="fill: #262626" transform="translate(19.201875 74.587202) scale(0.07 -0.07)">
       <use xlink:href="#DejaVuSerif-17"/>
      </g>
     </g>
    </g>
    <g id="ytick_6">
     <g id="line2d_15"/>
     <g id="text_16">
      <!-- 5 -->
      <g style="fill: #262626" transform="translate(19.201875 14.314207) scale(0.07 -0.07)">
       <use xlink:href="#DejaVuSerif-18"/>
      </g>
     </g>
    </g>
    <g id="text_17">
     <!-- $p(y)$ -->
     <g style="fill: #262626" transform="translate(13.28 168.15) rotate(-90) scale(0.08 -0.08)">
      <defs>
       <path id="DejaVuSans-Oblique-53" d="M 3175 2156 
Q 3175 2616 2975 2859 
Q 2775 3103 2400 3103 
Q 2144 3103 1911 2972 
Q 1678 2841 1497 2591 
Q 1319 2344 1212 1994 
Q 1106 1644 1106 1300 
Q 1106 863 1306 627 
Q 1506 391 1875 391 
Q 2147 391 2380 519 
Q 2613 647 2778 891 
Q 2956 1147 3065 1494 
Q 3175 1841 3175 2156 
z
M 1394 2969 
Q 1625 3272 1939 3428 
Q 2253 3584 2638 3584 
Q 3175 3584 3472 3232 
Q 3769 2881 3769 2247 
Q 3769 1728 3584 1258 
Q 3400 788 3053 416 
Q 2822 169 2531 39 
Q 2241 -91 1919 -91 
Q 1547 -91 1294 64 
Q 1041 219 916 525 
L 556 -1331 
L -19 -1331 
L 922 3500 
L 1497 3500 
L 1394 2969 
z
" transform="scale(0.015625)"/>
       <path id="DejaVuSans-b" d="M 1984 4856 
Q 1566 4138 1362 3434 
Q 1159 2731 1159 2009 
Q 1159 1288 1364 580 
Q 1569 -128 1984 -844 
L 1484 -844 
Q 1016 -109 783 600 
Q 550 1309 550 2009 
Q 550 2706 781 3412 
Q 1013 4119 1484 4856 
L 1984 4856 
z
" transform="scale(0.015625)"/>
       <path id="DejaVuSans-c" d="M 513 4856 
L 1013 4856 
Q 1481 4119 1714 3412 
Q 1947 2706 1947 2009 
Q 1947 1309 1714 600 
Q 1481 -109 1013 -844 
L 513 -844 
Q 928 -128 1133 580 
Q 1338 1288 1338 2009 
Q 1338 2731 1133 3434 
Q 928 4138 513 4856 
z
" transform="scale(0.015625)"/>
      </defs>
      <use xlink:href="#DejaVuSans-Oblique-53" transform="translate(0 0.125)"/>
      <use xlink:href="#DejaVuSans-b" transform="translate(63.476562 0.125)"/>
      <use xlink:href="#DejaVuSans-Oblique-5c" transform="translate(102.490234 0.125)"/>
      <use xlink:href="#DejaVuSans-c" transform="translate(161.669922 0.125)"/>
     </g>
    </g>
   </g>
   <g id="patch_3">
    <path d="M 46.265022 313.02 
L 50.086901 313.02 
L 50.086901 21.762857 
L 46.265022 21.762857 
z
" clip-path="url(#pe67e02c79e)" style="fill: #d9d9d9; stroke: #595959; stroke-width: 0.5; stroke-linejoin: miter"/>
   </g>
   <g id="patch_4">
    <path d="M 50.086901 313.02 
L 53.908781 313.02 
L 53.908781 235.173193 
L 50.086901 235.173193 
z
" clip-path="url(#pe67e02c79e)" style="fill: #d9d9d9; stroke: #595959; stroke-width: 0.5; stroke-linejoin: miter"/>
   </g>
   <g id="patch_5">
    <path d="M 53.908781 313.02 
L 57.73066 313.02 
L 57.73066 259.549466 
L 53.908781 259.549466 
z
" clip-path="url(#pe67e02c79e)" style="fill: #d9d9d9; stroke: #595959; stroke-width: 0.5; stroke-linejoin: miter"/>
   </g>
   <g id="patch_6">
    <path d="M 57.73066 313.02 
L 61.55254 313.02 
L 61.55254 260.964863 
L 57.73066 260.964863 
z
" clip-path="url(#pe67e02c79e)" style="fill: #d9d9d9; stroke: #595959; stroke-width: 0.5; stroke-linejoin: miter"/>
   </g>
   <g id="patch_7">
    <path d="M 61.55254 313.02 
L 65.374419 313.02 
L 65.374419 264.424721 
L 61.55254 264.424721 
z
" clip-path="url(#pe67e02c79e)" style="fill: #d9d9d9; stroke: #595959; stroke-width: 0.5; stroke-linejoin: miter"/>
   </g>
   <g id="patch_8">
    <path d="M 65.374419 313.02 
L 69.196299 313.02 
L 69.196299 251.528886 
L 65.374419 251.528886 
z
" clip-path="url(#pe67e02c79e)" style="fill: #d9d9d9; stroke: #595959; stroke-width: 0.5; stroke-linejoin: miter"/>
   </g>
   <g id="patch_9">
    <path d="M 69.196299 313.02 
L 73.018178 313.02 
L 73.018178 287.542863 
L 69.196299 287.542863 
z
" clip-path="url(#pe67e02c79e)" style="fill: #d9d9d9; stroke: #595959; stroke-width: 0.5; stroke-linejoin: miter"/>
   </g>
   <g id="patch_10">
    <path d="M 73.018178 313.02 
L 76.840057 313.02 
L 76.840057 291.317254 
L 73.018178 291.317254 
z
" clip-path="url(#pe67e02c79e)" style="fill: #d9d9d9; stroke: #595959; stroke-width: 0.5; stroke-linejoin: miter"/>
   </g>
   <g id="patch_11">
    <path d="M 76.840057 313.02 
L 80.661937 313.02 
L 80.661937 291.631786 
L 76.840057 291.631786 
z
" clip-path="url(#pe67e02c79e)" style="fill: #d9d9d9; stroke: #595959; stroke-width: 0.5; stroke-linejoin: miter"/>
   </g>
   <g id="patch_12">
    <path d="M 80.661937 313.02 
L 84.483816 313.02 
L 84.483816 291.946319 
L 80.661937 291.946319 
z
" clip-path="url(#pe67e02c79e)" style="fill: #d9d9d9; stroke: #595959; stroke-width: 0.5; stroke-linejoin: miter"/>
   </g>
   <g id="patch_13">
    <path d="M 84.483816 313.02 
L 88.305696 313.02 
L 88.305696 291.631786 
L 84.483816 291.631786 
z
" clip-path="url(#pe67e02c79e)" style="fill: #d9d9d9; stroke: #595959; stroke-width: 0.5; stroke-linejoin: miter"/>
   </g>
   <g id="patch_14">
    <path d="M 88.305696 313.02 
L 92.127575 313.02 
L 92.127575 291.47452 
L 88.305696 291.47452 
z
" clip-path="url(#pe67e02c79e)" style="fill: #d9d9d9; stroke: #595959; stroke-width: 0.5; stroke-linejoin: miter"/>
   </g>
   <g id="patch_15">
    <path d="M 92.127575 313.02 
L 95.949454 313.02 
L 95.949454 296.821574 
L 92.127575 296.821574 
z
" clip-path="url(#pe67e02c79e)" style="fill: #d9d9d9; stroke: #595959; stroke-width: 0.5; stroke-linejoin: miter"/>
   </g>
   <g id="patch_16">
    <path d="M 95.949454 313.02 
L 99.771334 313.02 
L 99.771334 291.631786 
L 95.949454 291.631786 
z
" clip-path="url(#pe67e02c79e)" style="fill: #d9d9d9; stroke: #595959; stroke-width: 0.5; stroke-linejoin: miter"/>
   </g>
   <g id="patch_17">
    <path d="M 99.771334 313.02 
L 103.593213 313.02 
L 103.593213 292.575384 
L 99.771334 292.575384 
z
" clip-path="url(#pe67e02c79e)" style="fill: #d9d9d9; stroke: #595959; stroke-width: 0.5; stroke-linejoin: miter"/>
   </g>
   <g id="patch_18">
    <path d="M 103.593213 313.02 
L 107.415093 313.02 
L 107.415093 292.260852 
L 103.593213 292.260852 
z
" clip-path="url(#pe67e02c79e)" style="fill: #d9d9d9; stroke: #595959; stroke-width: 0.5; stroke-linejoin: miter"/>
   </g>
   <g id="patch_19">
    <path d="M 107.415093 313.02 
L 111.236972 313.02 
L 111.236972 296.349775 
L 107.415093 296.349775 
z
" clip-path="url(#pe67e02c79e)" style="fill: #d9d9d9; stroke: #595959; stroke-width: 0.5; stroke-linejoin: miter"/>
   </g>
   <g id="patch_20">
    <path d="M 111.236972 313.02 
L 115.058852 313.02 
L 115.058852 298.708769 
L 111.236972 298.708769 
z
" clip-path="url(#pe67e02c79e)" style="fill: #d9d9d9; stroke: #595959; stroke-width: 0.5; stroke-linejoin: miter"/>
   </g>
   <g id="patch_21">
    <path d="M 115.058852 313.02 
L 118.880731 313.02 
L 118.880731 295.248911 
L 115.058852 295.248911 
z
" clip-path="url(#pe67e02c79e)" style="fill: #d9d9d9; stroke: #595959; stroke-width: 0.5; stroke-linejoin: miter"/>
   </g>
   <g id="patch_22">
    <path d="M 118.880731 313.02 
L 122.70261 313.02 
L 122.70261 297.136106 
L 118.880731 297.136106 
z
" clip-path="url(#pe67e02c79e)" style="fill: #d9d9d9; stroke: #595959; stroke-width: 0.5; stroke-linejoin: miter"/>
   </g>
   <g id="patch_23">
    <path d="M 122.70261 313.02 
L 126.52449 313.02 
L 126.52449 298.079704 
L 122.70261 298.079704 
z
" clip-path="url(#pe67e02c79e)" style="fill: #d9d9d9; stroke: #595959; stroke-width: 0.5; stroke-linejoin: miter"/>
   </g>
   <g id="patch_24">
    <path d="M 126.52449 313.02 
L 130.346369 313.02 
L 130.346369 293.833514 
L 126.52449 293.833514 
z
" clip-path="url(#pe67e02c79e)" style="fill: #d9d9d9; stroke: #595959; stroke-width: 0.5; stroke-linejoin: miter"/>
   </g>
   <g id="patch_25">
    <path d="M 130.346369 313.02 
L 134.168249 313.02 
L 134.168249 296.97884 
L 130.346369 296.97884 
z
" clip-path="url(#pe67e02c79e)" style="fill: #d9d9d9; stroke: #595959; stroke-width: 0.5; stroke-linejoin: miter"/>
   </g>
   <g id="patch_26">
    <path d="M 134.168249 313.02 
L 137.990128 313.02 
L 137.990128 295.877976 
L 134.168249 295.877976 
z
" clip-path="url(#pe67e02c79e)" style="fill: #d9d9d9; stroke: #595959; stroke-width: 0.5; stroke-linejoin: miter"/>
   </g>
   <g id="patch_27">
    <path d="M 137.990128 313.02 
L 141.812007 313.02 
L 141.812007 295.406177 
L 137.990128 295.406177 
z
" clip-path="url(#pe67e02c79e)" style="fill: #d9d9d9; stroke: #595959; stroke-width: 0.5; stroke-linejoin: miter"/>
   </g>
   <g id="patch_28">
    <path d="M 141.812007 313.02 
L 145.633887 313.02 
L 145.633887 295.406177 
L 141.812007 295.406177 
z
" clip-path="url(#pe67e02c79e)" style="fill: #d9d9d9; stroke: #595959; stroke-width: 0.5; stroke-linejoin: miter"/>
   </g>
   <g id="patch_29">
    <path d="M 145.633887 313.02 
L 149.455766 313.02 
L 149.455766 294.148047 
L 145.633887 294.148047 
z
" clip-path="url(#pe67e02c79e)" style="fill: #d9d9d9; stroke: #595959; stroke-width: 0.5; stroke-linejoin: miter"/>
   </g>
   <g id="patch_30">
    <path d="M 149.455766 313.02 
L 153.277646 313.02 
L 153.277646 290.059124 
L 149.455766 290.059124 
z
" clip-path="url(#pe67e02c79e)" style="fill: #d9d9d9; stroke: #595959; stroke-width: 0.5; stroke-linejoin: miter"/>
   </g>
   <g id="patch_31">
    <path d="M 153.277646 313.02 
L 157.099525 313.02 
L 157.099525 288.329195 
L 153.277646 288.329195 
z
" clip-path="url(#pe67e02c79e)" style="fill: #d9d9d9; stroke: #595959; stroke-width: 0.5; stroke-linejoin: miter"/>
   </g>
   <g id="patch_32">
    <path d="M 157.099525 313.02 
L 160.921404 313.02 
L 160.921404 278.578686 
L 157.099525 278.578686 
z
" clip-path="url(#pe67e02c79e)" style="fill: #d9d9d9; stroke: #595959; stroke-width: 0.5; stroke-linejoin: miter"/>
   </g>
   <g id="patch_33">
    <path d="M 160.921404 313.02 
L 164.743284 313.02 
L 164.743284 277.006023 
L 160.921404 277.006023 
z
" clip-path="url(#pe67e02c79e)" style="fill: #d9d9d9; stroke: #595959; stroke-width: 0.5; stroke-linejoin: miter"/>
   </g>
   <g id="patch_34">
    <path d="M 164.743284 313.02 
L 168.565163 313.02 
L 168.565163 306.886615 
L 164.743284 306.886615 
z
" clip-path="url(#pe67e02c79e)" style="fill: #d9d9d9; stroke: #595959; stroke-width: 0.5; stroke-linejoin: miter"/>
   </g>
   <g id="patch_35">
    <path d="M 168.565163 313.02 
L 172.387043 313.02 
L 172.387043 304.370355 
L 168.565163 304.370355 
z
" clip-path="url(#pe67e02c79e)" style="fill: #d9d9d9; stroke: #595959; stroke-width: 0.5; stroke-linejoin: miter"/>
   </g>
   <g id="patch_36">
    <path d="M 172.387043 313.02 
L 176.208922 313.02 
L 176.208922 306.100284 
L 172.387043 306.100284 
z
" clip-path="url(#pe67e02c79e)" style="fill: #d9d9d9; stroke: #595959; stroke-width: 0.5; stroke-linejoin: miter"/>
   </g>
   <g id="patch_37">
    <path d="M 176.208922 313.02 
L 180.030802 313.02 
L 180.030802 304.684887 
L 176.208922 304.684887 
z
" clip-path="url(#pe67e02c79e)" style="fill: #d9d9d9; stroke: #595959; stroke-width: 0.5; stroke-linejoin: miter"/>
   </g>
   <g id="patch_38">
    <path d="M 180.030802 313.02 
L 183.852681 313.02 
L 183.852681 304.213089 
L 180.030802 304.213089 
z
" clip-path="url(#pe67e02c79e)" style="fill: #d9d9d9; stroke: #595959; stroke-width: 0.5; stroke-linejoin: miter"/>
   </g>
   <g id="patch_39">
    <path d="M 183.852681 313.02 
L 187.67456 313.02 
L 187.67456 306.414816 
L 183.852681 306.414816 
z
" clip-path="url(#pe67e02c79e)" style="fill: #d9d9d9; stroke: #595959; stroke-width: 0.5; stroke-linejoin: miter"/>
   </g>
   <g id="patch_40">
    <path d="M 187.67456 313.02 
L 191.49644 313.02 
L 191.49644 305.628485 
L 187.67456 305.628485 
z
" clip-path="url(#pe67e02c79e)" style="fill: #d9d9d9; stroke: #595959; stroke-width: 0.5; stroke-linejoin: miter"/>
   </g>
   <g id="patch_41">
    <path d="M 191.49644 313.02 
L 195.318319 313.02 
L 195.318319 306.729349 
L 191.49644 306.729349 
z
" clip-path="url(#pe67e02c79e)" style="fill: #d9d9d9; stroke: #595959; stroke-width: 0.5; stroke-linejoin: miter"/>
   </g>
   <g id="patch_42">
    <path d="M 195.318319 313.02 
L 199.140199 313.02 
L 199.140199 305.785751 
L 195.318319 305.785751 
z
" clip-path="url(#pe67e02c79e)" style="fill: #d9d9d9; stroke: #595959; stroke-width: 0.5; stroke-linejoin: miter"/>
   </g>
   <g id="patch_43">
    <path d="M 199.140199 313.02 
L 202.962078 313.02 
L 202.962078 307.043882 
L 199.140199 307.043882 
z
" clip-path="url(#pe67e02c79e)" style="fill: #d9d9d9; stroke: #595959; stroke-width: 0.5; stroke-linejoin: miter"/>
   </g>
   <g id="patch_44">
    <path d="M 202.962078 313.02 
L 206.783957 313.02 
L 206.783957 306.414816 
L 202.962078 306.414816 
z
" clip-path="url(#pe67e02c79e)" style="fill: #d9d9d9; stroke: #595959; stroke-width: 0.5; stroke-linejoin: miter"/>
   </g>
   <g id="patch_45">
    <path d="M 206.783957 313.02 
L 210.605837 313.02 
L 210.605837 306.414816 
L 206.783957 306.414816 
z
" clip-path="url(#pe67e02c79e)" style="fill: #d9d9d9; stroke: #595959; stroke-width: 0.5; stroke-linejoin: miter"/>
   </g>
   <g id="patch_46">
    <path d="M 210.605837 313.02 
L 214.427716 313.02 
L 214.427716 305.313952 
L 210.605837 305.313952 
z
" clip-path="url(#pe67e02c79e)" style="fill: #d9d9d9; stroke: #595959; stroke-width: 0.5; stroke-linejoin: miter"/>
   </g>
   <g id="patch_47">
    <path d="M 214.427716 313.02 
L 218.249596 313.02 
L 218.249596 305.156686 
L 214.427716 305.156686 
z
" clip-path="url(#pe67e02c79e)" style="fill: #d9d9d9; stroke: #595959; stroke-width: 0.5; stroke-linejoin: miter"/>
   </g>
   <g id="patch_48">
    <path d="M 218.249596 313.02 
L 222.071475 313.02 
L 222.071475 306.414816 
L 218.249596 306.414816 
z
" clip-path="url(#pe67e02c79e)" style="fill: #d9d9d9; stroke: #595959; stroke-width: 0.5; stroke-linejoin: miter"/>
   </g>
   <g id="patch_49">
    <path d="M 222.071475 313.02 
L 225.893355 313.02 
L 225.893355 306.25755 
L 222.071475 306.25755 
z
" clip-path="url(#pe67e02c79e)" style="fill: #d9d9d9; stroke: #595959; stroke-width: 0.5; stroke-linejoin: miter"/>
   </g>
   <g id="patch_50">
    <path d="M 225.893355 313.02 
L 229.715234 313.02 
L 229.715234 307.830213 
L 225.893355 307.830213 
z
" clip-path="url(#pe67e02c79e)" style="fill: #d9d9d9; stroke: #595959; stroke-width: 0.5; stroke-linejoin: miter"/>
   </g>
   <g id="patch_51">
    <path d="M 229.715234 313.02 
L 233.537113 313.02 
L 233.537113 305.943018 
L 229.715234 305.943018 
z
" clip-path="url(#pe67e02c79e)" style="fill: #d9d9d9; stroke: #595959; stroke-width: 0.5; stroke-linejoin: miter"/>
   </g>
   <g id="patch_52">
    <path d="M 233.537113 313.02 
L 237.358993 313.02 
L 237.358993 305.943018 
L 233.537113 305.943018 
z
" clip-path="url(#pe67e02c79e)" style="fill: #d9d9d9; stroke: #595959; stroke-width: 0.5; stroke-linejoin: miter"/>
   </g>
   <g id="patch_53">
    <path d="M 237.358993 313.02 
L 241.180872 313.02 
L 241.180872 305.943018 
L 237.358993 305.943018 
z
" clip-path="url(#pe67e02c79e)" style="fill: #d9d9d9; stroke: #595959; stroke-width: 0.5; stroke-linejoin: miter"/>
   </g>
   <g id="patch_54">
    <path d="M 241.180872 313.02 
L 245.002752 313.02 
L 245.002752 306.25755 
L 241.180872 306.25755 
z
" clip-path="url(#pe67e02c79e)" style="fill: #d9d9d9; stroke: #595959; stroke-width: 0.5; stroke-linejoin: miter"/>
   </g>
   <g id="patch_55">
    <path d="M 245.002752 313.02 
L 248.824631 313.02 
L 248.824631 305.156686 
L 245.002752 305.156686 
z
" clip-path="url(#pe67e02c79e)" style="fill: #d9d9d9; stroke: #595959; stroke-width: 0.5; stroke-linejoin: miter"/>
   </g>
   <g id="patch_56">
    <path d="M 248.824631 313.02 
L 252.64651 313.02 
L 252.64651 305.156686 
L 248.824631 305.156686 
z
" clip-path="url(#pe67e02c79e)" style="fill: #d9d9d9; stroke: #595959; stroke-width: 0.5; stroke-linejoin: miter"/>
   </g>
   <g id="patch_57">
    <path d="M 252.64651 313.02 
L 256.46839 313.02 
L 256.46839 304.370355 
L 252.64651 304.370355 
z
" clip-path="url(#pe67e02c79e)" style="fill: #d9d9d9; stroke: #595959; stroke-width: 0.5; stroke-linejoin: miter"/>
   </g>
   <g id="patch_58">
    <path d="M 256.46839 313.02 
L 260.290269 313.02 
L 260.290269 304.99942 
L 256.46839 304.99942 
z
" clip-path="url(#pe67e02c79e)" style="fill: #d9d9d9; stroke: #595959; stroke-width: 0.5; stroke-linejoin: miter"/>
   </g>
   <g id="patch_59">
    <path d="M 260.290269 313.02 
L 264.112149 313.02 
L 264.112149 305.628485 
L 260.290269 305.628485 
z
" clip-path="url(#pe67e02c79e)" style="fill: #d9d9d9; stroke: #595959; stroke-width: 0.5; stroke-linejoin: miter"/>
   </g>
   <g id="patch_60">
    <path d="M 264.112149 313.02 
L 267.934028 313.02 
L 267.934028 305.628485 
L 264.112149 305.628485 
z
" clip-path="url(#pe67e02c79e)" style="fill: #d9d9d9; stroke: #595959; stroke-width: 0.5; stroke-linejoin: miter"/>
   </g>
   <g id="patch_61">
    <path d="M 267.934028 313.02 
L 271.755907 313.02 
L 271.755907 304.527621 
L 267.934028 304.527621 
z
" clip-path="url(#pe67e02c79e)" style="fill: #d9d9d9; stroke: #595959; stroke-width: 0.5; stroke-linejoin: miter"/>
   </g>
   <g id="patch_62">
    <path d="M 271.755907 313.02 
L 275.577787 313.02 
L 275.577787 302.954958 
L 271.755907 302.954958 
z
" clip-path="url(#pe67e02c79e)" style="fill: #d9d9d9; stroke: #595959; stroke-width: 0.5; stroke-linejoin: miter"/>
   </g>
   <g id="patch_63">
    <path d="M 275.577787 313.02 
L 279.399666 313.02 
L 279.399666 304.527621 
L 275.577787 304.527621 
z
" clip-path="url(#pe67e02c79e)" style="fill: #d9d9d9; stroke: #595959; stroke-width: 0.5; stroke-linejoin: miter"/>
   </g>
   <g id="patch_64">
    <path d="M 279.399666 313.02 
L 283.221546 313.02 
L 283.221546 304.370355 
L 279.399666 304.370355 
z
" clip-path="url(#pe67e02c79e)" style="fill: #d9d9d9; stroke: #595959; stroke-width: 0.5; stroke-linejoin: miter"/>
   </g>
   <g id="patch_65">
    <path d="M 283.221546 313.02 
L 287.043425 313.02 
L 287.043425 304.370355 
L 283.221546 304.370355 
z
" clip-path="url(#pe67e02c79e)" style="fill: #d9d9d9; stroke: #595959; stroke-width: 0.5; stroke-linejoin: miter"/>
   </g>
   <g id="patch_66">
    <path d="M 287.043425 313.02 
L 290.865305 313.02 
L 290.865305 303.426757 
L 287.043425 303.426757 
z
" clip-path="url(#pe67e02c79e)" style="fill: #d9d9d9; stroke: #595959; stroke-width: 0.5; stroke-linejoin: miter"/>
   </g>
   <g id="patch_67">
    <path d="M 290.865305 313.02 
L 294.687184 313.02 
L 294.687184 301.382296 
L 290.865305 301.382296 
z
" clip-path="url(#pe67e02c79e)" style="fill: #d9d9d9; stroke: #595959; stroke-width: 0.5; stroke-linejoin: miter"/>
   </g>
   <g id="patch_68">
    <path d="M 294.687184 313.02 
L 298.509063 313.02 
L 298.509063 304.99942 
L 294.687184 304.99942 
z
" clip-path="url(#pe67e02c79e)" style="fill: #d9d9d9; stroke: #595959; stroke-width: 0.5; stroke-linejoin: miter"/>
   </g>
   <g id="patch_69">
    <path d="M 298.509063 313.02 
L 302.330943 313.02 
L 302.330943 300.124165 
L 298.509063 300.124165 
z
" clip-path="url(#pe67e02c79e)" style="fill: #d9d9d9; stroke: #595959; stroke-width: 0.5; stroke-linejoin: miter"/>
   </g>
   <g id="patch_70">
    <path d="M 302.330943 313.02 
L 306.152822 313.02 
L 306.152822 296.349775 
L 302.330943 296.349775 
z
" clip-path="url(#pe67e02c79e)" style="fill: #d9d9d9; stroke: #595959; stroke-width: 0.5; stroke-linejoin: miter"/>
   </g>
   <g id="patch_71">
    <path d="M 306.152822 313.02 
L 309.974702 313.02 
L 309.974702 293.047183 
L 306.152822 293.047183 
z
" clip-path="url(#pe67e02c79e)" style="fill: #d9d9d9; stroke: #595959; stroke-width: 0.5; stroke-linejoin: miter"/>
   </g>
   <g id="patch_72">
    <path d="M 309.974702 313.02 
L 313.796581 313.02 
L 313.796581 274.961561 
L 309.974702 274.961561 
z
" clip-path="url(#pe67e02c79e)" style="fill: #d9d9d9; stroke: #595959; stroke-width: 0.5; stroke-linejoin: miter"/>
   </g>
   <g id="patch_73">
    <path d="M 313.796581 313.02 
L 317.61846 313.02 
L 317.61846 310.50374 
L 313.796581 310.50374 
z
" clip-path="url(#pe67e02c79e)" style="fill: #d9d9d9; stroke: #595959; stroke-width: 0.5; stroke-linejoin: miter"/>
   </g>
   <g id="patch_74">
    <path d="M 317.61846 313.02 
L 321.44034 313.02 
L 321.44034 310.818272 
L 317.61846 310.818272 
z
" clip-path="url(#pe67e02c79e)" style="fill: #d9d9d9; stroke: #595959; stroke-width: 0.5; stroke-linejoin: miter"/>
   </g>
   <g id="patch_75">
    <path d="M 321.44034 313.02 
L 325.262219 313.02 
L 325.262219 309.717408 
L 321.44034 309.717408 
z
" clip-path="url(#pe67e02c79e)" style="fill: #d9d9d9; stroke: #595959; stroke-width: 0.5; stroke-linejoin: miter"/>
   </g>
   <g id="patch_76">
    <path d="M 325.262219 313.02 
L 329.084099 313.02 
L 329.084099 310.189207 
L 325.262219 310.189207 
z
" clip-path="url(#pe67e02c79e)" style="fill: #d9d9d9; stroke: #595959; stroke-width: 0.5; stroke-linejoin: miter"/>
   </g>
   <g id="patch_77">
    <path d="M 329.084099 313.02 
L 332.905978 313.02 
L 332.905978 310.031941 
L 329.084099 310.031941 
z
" clip-path="url(#pe67e02c79e)" style="fill: #d9d9d9; stroke: #595959; stroke-width: 0.5; stroke-linejoin: miter"/>
   </g>
   <g id="patch_78">
    <path d="M 332.905978 313.02 
L 336.727858 313.02 
L 336.727858 310.661006 
L 332.905978 310.661006 
z
" clip-path="url(#pe67e02c79e)" style="fill: #d9d9d9; stroke: #595959; stroke-width: 0.5; stroke-linejoin: miter"/>
   </g>
   <g id="patch_79">
    <path d="M 336.727858 313.02 
L 340.549737 313.02 
L 340.549737 310.50374 
L 336.727858 310.50374 
z
" clip-path="url(#pe67e02c79e)" style="fill: #d9d9d9; stroke: #595959; stroke-width: 0.5; stroke-linejoin: miter"/>
   </g>
   <g id="patch_80">
    <path d="M 340.549737 313.02 
L 344.371616 313.02 
L 344.371616 310.661006 
L 340.549737 310.661006 
z
" clip-path="url(#pe67e02c79e)" style="fill: #d9d9d9; stroke: #595959; stroke-width: 0.5; stroke-linejoin: miter"/>
   </g>
   <g id="patch_81">
    <path d="M 344.371616 313.02 
L 348.193496 313.02 
L 348.193496 309.402876 
L 344.371616 309.402876 
z
" clip-path="url(#pe67e02c79e)" style="fill: #d9d9d9; stroke: #595959; stroke-width: 0.5; stroke-linejoin: miter"/>
   </g>
   <g id="patch_82">
    <path d="M 348.193496 313.02 
L 352.015375 313.02 
L 352.015375 310.661006 
L 348.193496 310.661006 
z
" clip-path="url(#pe67e02c79e)" style="fill: #d9d9d9; stroke: #595959; stroke-width: 0.5; stroke-linejoin: miter"/>
   </g>
   <g id="patch_83">
    <path d="M 352.015375 313.02 
L 355.837255 313.02 
L 355.837255 310.031941 
L 352.015375 310.031941 
z
" clip-path="url(#pe67e02c79e)" style="fill: #d9d9d9; stroke: #595959; stroke-width: 0.5; stroke-linejoin: miter"/>
   </g>
   <g id="patch_84">
    <path d="M 355.837255 313.02 
L 359.659134 313.02 
L 359.659134 310.031941 
L 355.837255 310.031941 
z
" clip-path="url(#pe67e02c79e)" style="fill: #d9d9d9; stroke: #595959; stroke-width: 0.5; stroke-linejoin: miter"/>
   </g>
   <g id="patch_85">
    <path d="M 359.659134 313.02 
L 363.481013 313.02 
L 363.481013 311.447337 
L 359.659134 311.447337 
z
" clip-path="url(#pe67e02c79e)" style="fill: #d9d9d9; stroke: #595959; stroke-width: 0.5; stroke-linejoin: miter"/>
   </g>
   <g id="patch_86">
    <path d="M 363.481013 313.02 
L 367.302893 313.02 
L 367.302893 310.031941 
L 363.481013 310.031941 
z
" clip-path="url(#pe67e02c79e)" style="fill: #d9d9d9; stroke: #595959; stroke-width: 0.5; stroke-linejoin: miter"/>
   </g>
   <g id="patch_87">
    <path d="M 367.302893 313.02 
L 371.124772 313.02 
L 371.124772 310.189207 
L 367.302893 310.189207 
z
" clip-path="url(#pe67e02c79e)" style="fill: #d9d9d9; stroke: #595959; stroke-width: 0.5; stroke-linejoin: miter"/>
   </g>
   <g id="patch_88">
    <path d="M 371.124772 313.02 
L 374.946652 313.02 
L 374.946652 311.132805 
L 371.124772 311.132805 
z
" clip-path="url(#pe67e02c79e)" style="fill: #d9d9d9; stroke: #595959; stroke-width: 0.5; stroke-linejoin: miter"/>
   </g>
   <g id="patch_89">
    <path d="M 374.946652 313.02 
L 378.768531 313.02 
L 378.768531 309.402876 
L 374.946652 309.402876 
z
" clip-path="url(#pe67e02c79e)" style="fill: #d9d9d9; stroke: #595959; stroke-width: 0.5; stroke-linejoin: miter"/>
   </g>
   <g id="patch_90">
    <path d="M 378.768531 313.02 
L 382.59041 313.02 
L 382.59041 308.931077 
L 378.768531 308.931077 
z
" clip-path="url(#pe67e02c79e)" style="fill: #d9d9d9; stroke: #595959; stroke-width: 0.5; stroke-linejoin: miter"/>
   </g>
   <g id="patch_91">
    <path d="M 382.59041 313.02 
L 386.41229 313.02 
L 386.41229 308.931077 
L 382.59041 308.931077 
z
" clip-path="url(#pe67e02c79e)" style="fill: #d9d9d9; stroke: #595959; stroke-width: 0.5; stroke-linejoin: miter"/>
   </g>
   <g id="patch_92">
    <path d="M 386.41229 313.02 
L 390.234169 313.02 
L 390.234169 308.773811 
L 386.41229 308.773811 
z
" clip-path="url(#pe67e02c79e)" style="fill: #d9d9d9; stroke: #595959; stroke-width: 0.5; stroke-linejoin: miter"/>
   </g>
   <g id="patch_93">
    <path d="M 390.234169 313.02 
L 394.056049 313.02 
L 394.056049 308.616544 
L 390.234169 308.616544 
z
" clip-path="url(#pe67e02c79e)" style="fill: #d9d9d9; stroke: #595959; stroke-width: 0.5; stroke-linejoin: miter"/>
   </g>
   <g id="patch_94">
    <path d="M 394.056049 313.02 
L 397.877928 313.02 
L 397.877928 310.031941 
L 394.056049 310.031941 
z
" clip-path="url(#pe67e02c79e)" style="fill: #d9d9d9; stroke: #595959; stroke-width: 0.5; stroke-linejoin: miter"/>
   </g>
   <g id="patch_95">
    <path d="M 397.877928 313.02 
L 401.699808 313.02 
L 401.699808 310.031941 
L 397.877928 310.031941 
z
" clip-path="url(#pe67e02c79e)" style="fill: #d9d9d9; stroke: #595959; stroke-width: 0.5; stroke-linejoin: miter"/>
   </g>
   <g id="patch_96">
    <path d="M 401.699808 313.02 
L 405.521687 313.02 
L 405.521687 308.931077 
L 401.699808 308.931077 
z
" clip-path="url(#pe67e02c79e)" style="fill: #d9d9d9; stroke: #595959; stroke-width: 0.5; stroke-linejoin: miter"/>
   </g>
   <g id="patch_97">
    <path d="M 405.521687 313.02 
L 409.343566 313.02 
L 409.343566 308.773811 
L 405.521687 308.773811 
z
" clip-path="url(#pe67e02c79e)" style="fill: #d9d9d9; stroke: #595959; stroke-width: 0.5; stroke-linejoin: miter"/>
   </g>
   <g id="patch_98">
    <path d="M 409.343566 313.02 
L 413.165446 313.02 
L 413.165446 309.088343 
L 409.343566 309.088343 
z
" clip-path="url(#pe67e02c79e)" style="fill: #d9d9d9; stroke: #595959; stroke-width: 0.5; stroke-linejoin: miter"/>
   </g>
   <g id="patch_99">
    <path d="M 413.165446 313.02 
L 416.987325 313.02 
L 416.987325 309.245609 
L 413.165446 309.245609 
z
" clip-path="url(#pe67e02c79e)" style="fill: #d9d9d9; stroke: #595959; stroke-width: 0.5; stroke-linejoin: miter"/>
   </g>
   <g id="patch_100">
    <path d="M 416.987325 313.02 
L 420.809205 313.02 
L 420.809205 306.886615 
L 416.987325 306.886615 
z
" clip-path="url(#pe67e02c79e)" style="fill: #d9d9d9; stroke: #595959; stroke-width: 0.5; stroke-linejoin: miter"/>
   </g>
   <g id="patch_101">
    <path d="M 420.809205 313.02 
L 424.631084 313.02 
L 424.631084 303.426757 
L 420.809205 303.426757 
z
" clip-path="url(#pe67e02c79e)" style="fill: #d9d9d9; stroke: #595959; stroke-width: 0.5; stroke-linejoin: miter"/>
   </g>
   <g id="patch_102">
    <path d="M 424.631084 313.02 
L 428.452963 313.02 
L 428.452963 297.136106 
L 424.631084 297.136106 
z
" clip-path="url(#pe67e02c79e)" style="fill: #d9d9d9; stroke: #595959; stroke-width: 0.5; stroke-linejoin: miter"/>
   </g>
   <g id="line2d_16">
    <defs>
     <path id="m7850dad3d6" d="M -0 4.242641 
L 4.242641 0 
L 0 -4.242641 
L -4.242641 -0 
z
" style="stroke: #1a1a1a; stroke-linejoin: miter"/>
    </defs>
    <g clip-path="url(#pe67e02c79e)">
     <use xlink:href="#m7850dad3d6" x="105.724217" y="303.8454" style="fill: #1a1a1a; stroke: #1a1a1a; stroke-linejoin: miter"/>
    </g>
   </g>
   <g id="line2d_17">
    <defs>
     <path id="mf3fbfbaafc" d="M -3.5 -0 
L 3.5 3.5 
L 3.5 -3.5 
z
" style="stroke: #1a1a1a; stroke-width: 1.25; stroke-linejoin: miter"/>
    </defs>
    <g clip-path="url(#pe67e02c79e)">
     <use xlink:href="#mf3fbfbaafc" x="46.300238" y="303.8454" style="fill: #ffffff; stroke: #1a1a1a; stroke-width: 1.25; stroke-linejoin: miter"/>
    </g>
   </g>
   <g id="line2d_18">
    <defs>
     <path id="mdcf737236f" d="M 3.5 0 
L -3.5 -3.5 
L -3.5 3.5 
z
" style="stroke: #1a1a1a; stroke-width: 1.25; stroke-linejoin: miter"/>
    </defs>
    <g clip-path="url(#pe67e02c79e)">
     <use xlink:href="#mdcf737236f" x="409.298642" y="303.8454" style="fill: #999999; stroke: #1a1a1a; stroke-width: 1.25; stroke-linejoin: miter"/>
    </g>
   </g>
   <g id="patch_103">
    <path d="M 27.155625 313.02 
L 27.155625 7.2 
" style="fill: none; stroke: #262626; stroke-width: 0.5; stroke-linejoin: miter; stroke-linecap: square"/>
   </g>
   <g id="patch_104">
    <path d="M 27.155625 313.02 
L 447.562361 313.02 
" style="fill: none; stroke: #262626; stroke-width: 0.5; stroke-linejoin: miter; stroke-linecap: square"/>
   </g>
   <g id="legend_1">
    <g id="patch_105">
     <path d="M 340.734704 18.818906 
L 354.734704 18.818906 
L 354.734704 13.918906 
L 340.734704 13.918906 
z
" style="fill: #d9d9d9; stroke: #595959; stroke-width: 0.5; stroke-linejoin: miter"/>
    </g>
    <g id="text_18">
     <!-- Predictive density -->
     <g style="fill: #262626" transform="translate(360.334704 18.818906) scale(0.07 -0.07)">
      <defs>
       <path id="DejaVuSerif-33" d="M 1581 2375 
L 2406 2375 
Q 2872 2375 3115 2626 
Q 3359 2878 3359 3353 
Q 3359 3831 3115 4081 
Q 2872 4331 2406 4331 
L 1581 4331 
L 1581 2375 
z
M 353 0 
L 353 331 
L 947 331 
L 947 4331 
L 353 4331 
L 353 4666 
L 2559 4666 
Q 3259 4666 3668 4311 
Q 4078 3956 4078 3353 
Q 4078 2753 3668 2397 
Q 3259 2041 2559 2041 
L 1581 2041 
L 1581 331 
L 2303 331 
L 2303 0 
L 353 0 
z
" transform="scale(0.015625)"/>
       <path id="DejaVuSerif-55" d="M 3059 3328 
L 3059 2497 
L 2728 2497 
Q 2713 2744 2591 2866 
Q 2469 2988 2234 2988 
Q 1809 2988 1582 2694 
Q 1356 2400 1356 1850 
L 1356 331 
L 2022 331 
L 2022 0 
L 263 0 
L 263 331 
L 781 331 
L 781 2994 
L 231 2994 
L 231 3322 
L 1356 3322 
L 1356 2731 
Q 1525 3078 1790 3245 
Q 2056 3413 2438 3413 
Q 2578 3413 2733 3391 
Q 2888 3369 3059 3328 
z
" transform="scale(0.015625)"/>
       <path id="DejaVuSerif-48" d="M 3469 1600 
L 991 1600 
L 991 1575 
Q 991 903 1244 561 
Q 1497 219 1991 219 
Q 2369 219 2611 417 
Q 2853 616 2950 1006 
L 3413 1006 
Q 3275 459 2904 184 
Q 2534 -91 1931 -91 
Q 1203 -91 761 389 
Q 319 869 319 1663 
Q 319 2450 753 2931 
Q 1188 3413 1894 3413 
Q 2647 3413 3050 2948 
Q 3453 2484 3469 1600 
z
M 2791 1931 
Q 2772 2513 2545 2808 
Q 2319 3103 1894 3103 
Q 1497 3103 1269 2806 
Q 1041 2509 991 1931 
L 2791 1931 
z
" transform="scale(0.015625)"/>
       <path id="DejaVuSerif-47" d="M 3359 331 
L 3909 331 
L 3909 0 
L 2784 0 
L 2784 519 
Q 2616 206 2355 57 
Q 2094 -91 1709 -91 
Q 1097 -91 708 395 
Q 319 881 319 1663 
Q 319 2444 706 2928 
Q 1094 3413 1709 3413 
Q 2094 3413 2355 3264 
Q 2616 3116 2784 2803 
L 2784 4531 
L 2241 4531 
L 2241 4863 
L 3359 4863 
L 3359 331 
z
M 2784 1497 
L 2784 1825 
Q 2784 2422 2554 2737 
Q 2325 3053 1888 3053 
Q 1444 3053 1217 2703 
Q 991 2353 991 1663 
Q 991 975 1217 622 
Q 1444 269 1888 269 
Q 2325 269 2554 583 
Q 2784 897 2784 1497 
z
" transform="scale(0.015625)"/>
       <path id="DejaVuSerif-4c" d="M 622 4353 
Q 622 4497 726 4603 
Q 831 4709 978 4709 
Q 1122 4709 1226 4603 
Q 1331 4497 1331 4353 
Q 1331 4206 1228 4103 
Q 1125 4000 978 4000 
Q 831 4000 726 4103 
Q 622 4206 622 4353 
z
M 1356 331 
L 1900 331 
L 1900 0 
L 231 0 
L 231 331 
L 781 331 
L 781 2988 
L 231 2988 
L 231 3322 
L 1356 3322 
L 1356 331 
z
" transform="scale(0.015625)"/>
       <path id="DejaVuSerif-46" d="M 3291 997 
Q 3169 466 2822 187 
Q 2475 -91 1925 -91 
Q 1200 -91 759 389 
Q 319 869 319 1663 
Q 319 2459 759 2936 
Q 1200 3413 1925 3413 
Q 2241 3413 2553 3339 
Q 2866 3266 3181 3116 
L 3181 2266 
L 2847 2266 
Q 2781 2703 2561 2903 
Q 2341 3103 1931 3103 
Q 1466 3103 1228 2742 
Q 991 2381 991 1663 
Q 991 944 1227 581 
Q 1463 219 1931 219 
Q 2303 219 2525 412 
Q 2747 606 2828 997 
L 3291 997 
z
" transform="scale(0.015625)"/>
       <path id="DejaVuSerif-57" d="M 691 2988 
L 184 2988 
L 184 3322 
L 691 3322 
L 691 4353 
L 1269 4353 
L 1269 3322 
L 2350 3322 
L 2350 2988 
L 1269 2988 
L 1269 878 
Q 1269 456 1350 337 
Q 1431 219 1650 219 
Q 1875 219 1978 351 
Q 2081 484 2088 781 
L 2522 781 
Q 2497 328 2275 118 
Q 2053 -91 1600 -91 
Q 1103 -91 897 129 
Q 691 350 691 878 
L 691 2988 
z
" transform="scale(0.015625)"/>
       <path id="DejaVuSerif-59" d="M 1581 0 
L 359 2988 
L -19 2988 
L -19 3322 
L 1509 3322 
L 1509 2988 
L 978 2988 
L 1913 703 
L 2847 2988 
L 2350 2988 
L 2350 3322 
L 3597 3322 
L 3597 2988 
L 3225 2988 
L 2003 0 
L 1581 0 
z
" transform="scale(0.015625)"/>
       <path id="DejaVuSerif-3" transform="scale(0.015625)"/>
       <path id="DejaVuSerif-51" d="M 263 0 
L 263 331 
L 781 331 
L 781 2988 
L 231 2988 
L 231 3322 
L 1356 3322 
L 1356 2731 
Q 1516 3069 1770 3241 
Q 2025 3413 2363 3413 
Q 2913 3413 3172 3097 
Q 3431 2781 3431 2113 
L 3431 331 
L 3944 331 
L 3944 0 
L 2356 0 
L 2356 331 
L 2853 331 
L 2853 1931 
Q 2853 2541 2703 2767 
Q 2553 2994 2175 2994 
Q 1775 2994 1565 2701 
Q 1356 2409 1356 1850 
L 1356 331 
L 1856 331 
L 1856 0 
L 263 0 
z
" transform="scale(0.015625)"/>
       <path id="DejaVuSerif-56" d="M 359 184 
L 359 959 
L 691 959 
Q 703 588 923 403 
Q 1144 219 1575 219 
Q 1963 219 2166 364 
Q 2369 509 2369 788 
Q 2369 1006 2220 1140 
Q 2072 1275 1594 1428 
L 1178 1569 
Q 750 1706 558 1912 
Q 366 2119 366 2438 
Q 366 2894 700 3153 
Q 1034 3413 1625 3413 
Q 1888 3413 2178 3344 
Q 2469 3275 2778 3144 
L 2778 2419 
L 2447 2419 
Q 2434 2741 2221 2922 
Q 2009 3103 1644 3103 
Q 1281 3103 1095 2975 
Q 909 2847 909 2591 
Q 909 2381 1050 2254 
Q 1191 2128 1613 1997 
L 2069 1856 
Q 2541 1709 2748 1489 
Q 2956 1269 2956 922 
Q 2956 450 2595 179 
Q 2234 -91 1600 -91 
Q 1278 -91 972 -22 
Q 666 47 359 184 
z
" transform="scale(0.015625)"/>
       <path id="DejaVuSerif-5c" d="M 1381 -609 
L 1600 -56 
L 359 2988 
L -19 2988 
L -19 3322 
L 1509 3322 
L 1509 2988 
L 978 2988 
L 1913 703 
L 2847 2988 
L 2350 2988 
L 2350 3322 
L 3597 3322 
L 3597 2988 
L 3225 2988 
L 1703 -750 
Q 1547 -1138 1356 -1280 
Q 1166 -1422 819 -1422 
Q 672 -1422 517 -1397 
Q 363 -1372 206 -1325 
L 206 -691 
L 500 -691 
Q 519 -903 608 -995 
Q 697 -1088 884 -1088 
Q 1056 -1088 1161 -992 
Q 1266 -897 1381 -609 
z
" transform="scale(0.015625)"/>
      </defs>
      <use xlink:href="#DejaVuSerif-33"/>
      <use xlink:href="#DejaVuSerif-55" transform="translate(67.28125 0)"/>
      <use xlink:href="#DejaVuSerif-48" transform="translate(115.078125 0)"/>
      <use xlink:href="#DejaVuSerif-47" transform="translate(174.265625 0)"/>
      <use xlink:href="#DejaVuSerif-4c" transform="translate(238.28125 0)"/>
      <use xlink:href="#DejaVuSerif-46" transform="translate(270.265625 0)"/>
      <use xlink:href="#DejaVuSerif-57" transform="translate(326.265625 0)"/>
      <use xlink:href="#DejaVuSerif-4c" transform="translate(366.453125 0)"/>
      <use xlink:href="#DejaVuSerif-59" transform="translate(398.4375 0)"/>
      <use xlink:href="#DejaVuSerif-48" transform="translate(454.9375 0)"/>
      <use xlink:href="#DejaVuSerif-3" transform="translate(514.125 0)"/>
      <use xlink:href="#DejaVuSerif-47" transform="translate(545.90625 0)"/>
      <use xlink:href="#DejaVuSerif-48" transform="translate(609.921875 0)"/>
      <use xlink:href="#DejaVuSerif-51" transform="translate(669.109375 0)"/>
      <use xlink:href="#DejaVuSerif-56" transform="translate(733.515625 0)"/>
      <use xlink:href="#DejaVuSerif-4c" transform="translate(784.828125 0)"/>
      <use xlink:href="#DejaVuSerif-57" transform="translate(816.8125 0)"/>
      <use xlink:href="#DejaVuSerif-5c" transform="translate(857 0)"/>
     </g>
    </g>
    <g id="line2d_19">
     <g>
      <use xlink:href="#m7850dad3d6" x="347.734704" y="26.869453" style="fill: #1a1a1a; stroke: #1a1a1a; stroke-linejoin: miter"/>
     </g>
    </g>
    <g id="text_19">
     <!-- 0.50-quantile (median) -->
     <g style="fill: #262626" transform="translate(360.334704 29.319453) scale(0.07 -0.07)">
      <defs>
       <path id="DejaVuSerif-10" d="M 281 1959 
L 1881 1959 
L 1881 1472 
L 281 1472 
L 281 1959 
z
" transform="scale(0.015625)"/>
       <path id="DejaVuSerif-54" d="M 3359 2988 
L 3359 -997 
L 3909 -997 
L 3909 -1331 
L 2241 -1331 
L 2241 -997 
L 2784 -997 
L 2784 519 
Q 2616 206 2355 57 
Q 2094 -91 1709 -91 
Q 1097 -91 708 395 
Q 319 881 319 1663 
Q 319 2444 706 2928 
Q 1094 3413 1709 3413 
Q 2094 3413 2355 3264 
Q 2616 3116 2784 2803 
L 2784 3322 
L 3909 3322 
L 3909 2988 
L 3359 2988 
z
M 2784 1825 
Q 2784 2422 2554 2737 
Q 2325 3053 1888 3053 
Q 1444 3053 1217 2703 
Q 991 2353 991 1663 
Q 991 975 1217 622 
Q 1444 269 1888 269 
Q 2325 269 2554 583 
Q 2784 897 2784 1497 
L 2784 1825 
z
" transform="scale(0.015625)"/>
       <path id="DejaVuSerif-58" d="M 2266 3322 
L 3341 3322 
L 3341 331 
L 3884 331 
L 3884 0 
L 2766 0 
L 2766 588 
Q 2606 256 2353 82 
Q 2100 -91 1766 -91 
Q 1213 -91 952 223 
Q 691 538 691 1209 
L 691 2988 
L 172 2988 
L 172 3322 
L 1269 3322 
L 1269 1388 
Q 1269 781 1417 556 
Q 1566 331 1947 331 
Q 2347 331 2556 625 
Q 2766 919 2766 1478 
L 2766 2988 
L 2266 2988 
L 2266 3322 
z
" transform="scale(0.015625)"/>
       <path id="DejaVuSerif-44" d="M 2547 1044 
L 2547 1747 
L 1806 1747 
Q 1378 1747 1168 1562 
Q 959 1378 959 997 
Q 959 650 1171 447 
Q 1384 244 1747 244 
Q 2106 244 2326 466 
Q 2547 688 2547 1044 
z
M 3122 2075 
L 3122 331 
L 3634 331 
L 3634 0 
L 2547 0 
L 2547 359 
Q 2356 128 2106 18 
Q 1856 -91 1522 -91 
Q 969 -91 644 203 
Q 319 497 319 997 
Q 319 1513 691 1797 
Q 1063 2081 1741 2081 
L 2547 2081 
L 2547 2309 
Q 2547 2688 2317 2895 
Q 2088 3103 1672 3103 
Q 1328 3103 1125 2947 
Q 922 2791 872 2484 
L 575 2484 
L 575 3156 
Q 875 3284 1158 3348 
Q 1441 3413 1709 3413 
Q 2400 3413 2761 3070 
Q 3122 2728 3122 2075 
z
" transform="scale(0.015625)"/>
       <path id="DejaVuSerif-4f" d="M 1313 331 
L 1856 331 
L 1856 0 
L 184 0 
L 184 331 
L 738 331 
L 738 4531 
L 184 4531 
L 184 4863 
L 1313 4863 
L 1313 331 
z
" transform="scale(0.015625)"/>
       <path id="DejaVuSerif-b" d="M 2041 -997 
Q 1281 -656 893 83 
Q 506 822 506 1931 
Q 506 3044 893 3783 
Q 1281 4522 2041 4863 
L 2041 4556 
Q 1559 4225 1350 3623 
Q 1141 3022 1141 1931 
Q 1141 844 1350 242 
Q 1559 -359 2041 -691 
L 2041 -997 
z
" transform="scale(0.015625)"/>
       <path id="DejaVuSerif-50" d="M 3316 2675 
Q 3481 3041 3739 3227 
Q 3997 3413 4341 3413 
Q 4863 3413 5119 3089 
Q 5375 2766 5375 2113 
L 5375 331 
L 5894 331 
L 5894 0 
L 4300 0 
L 4300 331 
L 4800 331 
L 4800 2047 
Q 4800 2556 4650 2772 
Q 4500 2988 4153 2988 
Q 3769 2988 3567 2697 
Q 3366 2406 3366 1850 
L 3366 331 
L 3866 331 
L 3866 0 
L 2291 0 
L 2291 331 
L 2791 331 
L 2791 2069 
Q 2791 2566 2641 2777 
Q 2491 2988 2144 2988 
Q 1759 2988 1557 2697 
Q 1356 2406 1356 1850 
L 1356 331 
L 1856 331 
L 1856 0 
L 263 0 
L 263 331 
L 781 331 
L 781 2994 
L 231 2994 
L 231 3322 
L 1356 3322 
L 1356 2731 
Q 1516 3063 1762 3238 
Q 2009 3413 2322 3413 
Q 2709 3413 2968 3220 
Q 3228 3028 3316 2675 
z
" transform="scale(0.015625)"/>
       <path id="DejaVuSerif-c" d="M 453 -997 
L 453 -691 
Q 934 -359 1145 242 
Q 1356 844 1356 1931 
Q 1356 3022 1145 3623 
Q 934 4225 453 4556 
L 453 4863 
Q 1216 4522 1603 3783 
Q 1991 3044 1991 1931 
Q 1991 822 1603 83 
Q 1216 -656 453 -997 
z
" transform="scale(0.015625)"/>
      </defs>
      <use xlink:href="#DejaVuSerif-13"/>
      <use xlink:href="#DejaVuSerif-11" transform="translate(63.625 0)"/>
      <use xlink:href="#DejaVuSerif-18" transform="translate(95.40625 0)"/>
      <use xlink:href="#DejaVuSerif-13" transform="translate(159.03125 0)"/>
      <use xlink:href="#DejaVuSerif-10" transform="translate(222.65625 0)"/>
      <use xlink:href="#DejaVuSerif-54" transform="translate(256.453125 0)"/>
      <use xlink:href="#DejaVuSerif-58" transform="translate(320.46875 0)"/>
      <use xlink:href="#DejaVuSerif-44" transform="translate(384.875 0)"/>
      <use xlink:href="#DejaVuSerif-51" transform="translate(444.5 0)"/>
      <use xlink:href="#DejaVuSerif-57" transform="translate(508.90625 0)"/>
      <use xlink:href="#DejaVuSerif-4c" transform="translate(549.09375 0)"/>
      <use xlink:href="#DejaVuSerif-4f" transform="translate(581.078125 0)"/>
      <use xlink:href="#DejaVuSerif-48" transform="translate(613.0625 0)"/>
      <use xlink:href="#DejaVuSerif-3" transform="translate(672.25 0)"/>
      <use xlink:href="#DejaVuSerif-b" transform="translate(704.03125 0)"/>
      <use xlink:href="#DejaVuSerif-50" transform="translate(743.046875 0)"/>
      <use xlink:href="#DejaVuSerif-48" transform="translate(837.875 0)"/>
      <use xlink:href="#DejaVuSerif-47" transform="translate(897.0625 0)"/>
      <use xlink:href="#DejaVuSerif-4c" transform="translate(961.078125 0)"/>
      <use xlink:href="#DejaVuSerif-44" transform="translate(993.0625 0)"/>
      <use xlink:href="#DejaVuSerif-51" transform="translate(1052.6875 0)"/>
      <use xlink:href="#DejaVuSerif-c" transform="translate(1117.09375 0)"/>
     </g>
    </g>
    <g id="line2d_20">
     <g>
      <use xlink:href="#mf3fbfbaafc" x="347.734704" y="37.37" style="fill: #ffffff; stroke: #1a1a1a; stroke-width: 1.25; stroke-linejoin: miter"/>
     </g>
    </g>
    <g id="text_20">
     <!-- 0.025-quantile -->
     <g style="fill: #262626" transform="translate(360.334704 39.82) scale(0.07 -0.07)">
      <use xlink:href="#DejaVuSerif-13"/>
      <use xlink:href="#DejaVuSerif-11" transform="translate(63.625 0)"/>
      <use xlink:href="#DejaVuSerif-13" transform="translate(95.40625 0)"/>
      <use xlink:href="#DejaVuSerif-15" transform="translate(159.03125 0)"/>
      <use xlink:href="#DejaVuSerif-18" transform="translate(222.65625 0)"/>
      <use xlink:href="#DejaVuSerif-10" transform="translate(286.28125 0)"/>
      <use xlink:href="#DejaVuSerif-54" transform="translate(320.078125 0)"/>
      <use xlink:href="#DejaVuSerif-58" transform="translate(384.09375 0)"/>
      <use xlink:href="#DejaVuSerif-44" transform="translate(448.5 0)"/>
      <use xlink:href="#DejaVuSerif-51" transform="translate(508.125 0)"/>
      <use xlink:href="#DejaVuSerif-57" transform="translate(572.53125 0)"/>
      <use xlink:href="#DejaVuSerif-4c" transform="translate(612.71875 0)"/>
      <use xlink:href="#DejaVuSerif-4f" transform="translate(644.703125 0)"/>
      <use xlink:href="#DejaVuSerif-48" transform="translate(676.6875 0)"/>
     </g>
    </g>
    <g id="line2d_21">
     <g>
      <use xlink:href="#mdcf737236f" x="347.734704" y="47.870547" style="fill: #999999; stroke: #1a1a1a; stroke-width: 1.25; stroke-linejoin: miter"/>
     </g>
    </g>
    <g id="text_21">
     <!-- 0.975-quantile -->
     <g style="fill: #262626" transform="translate(360.334704 50.320547) scale(0.07 -0.07)">
      <defs>
       <path id="DejaVuSerif-1c" d="M 2994 2091 
Q 2784 1856 2512 1740 
Q 2241 1625 1900 1625 
Q 1206 1625 804 2044 
Q 403 2463 403 3188 
Q 403 3897 839 4323 
Q 1275 4750 2003 4750 
Q 2794 4750 3217 4161 
Q 3641 3572 3641 2478 
Q 3641 1253 3137 581 
Q 2634 -91 1722 -91 
Q 1475 -91 1203 -44 
Q 931 3 647 97 
L 647 872 
L 997 872 
Q 1038 556 1241 387 
Q 1444 219 1784 219 
Q 2391 219 2687 676 
Q 2984 1134 2994 2091 
z
M 1978 4441 
Q 1534 4441 1298 4117 
Q 1063 3794 1063 3188 
Q 1063 2581 1298 2256 
Q 1534 1931 1978 1931 
Q 2422 1931 2658 2245 
Q 2894 2559 2894 3150 
Q 2894 3772 2656 4106 
Q 2419 4441 1978 4441 
z
" transform="scale(0.015625)"/>
       <path id="DejaVuSerif-1a" d="M 3609 4347 
L 1784 0 
L 1319 0 
L 3059 4153 
L 903 4153 
L 903 3578 
L 538 3578 
L 538 4666 
L 3609 4666 
L 3609 4347 
z
" transform="scale(0.015625)"/>
      </defs>
      <use xlink:href="#DejaVuSerif-13"/>
      <use xlink:href="#DejaVuSerif-11" transform="translate(63.625 0)"/>
      <use xlink:href="#DejaVuSerif-1c" transform="translate(95.40625 0)"/>
      <use xlink:href="#DejaVuSerif-1a" transform="translate(159.03125 0)"/>
      <use xlink:href="#DejaVuSerif-18" transform="translate(222.65625 0)"/>
      <use xlink:href="#DejaVuSerif-10" transform="translate(286.28125 0)"/>
      <use xlink:href="#DejaVuSerif-54" transform="translate(320.078125 0)"/>
      <use xlink:href="#DejaVuSerif-58" transform="translate(384.09375 0)"/>
      <use xlink:href="#DejaVuSerif-44" transform="translate(448.5 0)"/>
      <use xlink:href="#DejaVuSerif-51" transform="translate(508.125 0)"/>
      <use xlink:href="#DejaVuSerif-57" transform="translate(572.53125 0)"/>
      <use xlink:href="#DejaVuSerif-4c" transform="translate(612.71875 0)"/>
      <use xlink:href="#DejaVuSerif-4f" transform="translate(644.703125 0)"/>
      <use xlink:href="#DejaVuSerif-48" transform="translate(676.6875 0)"/>
     </g>
    </g>
   </g>
  </g>
 </g>
 <defs>
  <clipPath id="pe67e02c79e">
   <rect x="27.155625" y="7.2" width="420.406736" height="305.82"/>
  </clipPath>
 </defs>
</svg>