<?xml version="1.0" encoding="utf-8" standalone="no"?>
<!DOCTYPE svg PUBLIC "-//W3C//DTD SVG 1.1//EN"
  "http://www.w3.org/Graphics/SVG/1.1/DTD/svg11.dtd">
<svg xmlns:xlink="http://www.w3.org/1999/xlink" width="402.632875pt" height="309.639375pt" viewBox="0 0 402.632875 309.639375" xmlns="http://www.w3.org/2000/svg" version="1.1">
 <metadata>
  <rdf:RDF xmlns:dc="http://purl.org/dc/elements/1.1/" xmlns:cc="http://creativecommons.org/ns#" xmlns:rdf="http://www.w3.org/1999/02/22-rdf-syntax-ns#">
   <cc:Work>
    <dc:type rdf:resource="http://purl.org/dc/dcmitype/StillImage"/>
    <dc:date>2023-10-14T21:09:46.958674</dc:date>
    <dc:format>image/svg+xml</dc:format>
    <dc:creator>
     <cc:Agent>
      <dc:title>Matplotlib v3.7.1, https://matplotlib.org/</dc:title>
     </cc:Agent>
    </dc:creator>
   </cc:Work>
  </rdf:RDF>
 </metadata>
 <defs>
  <style type="text/css">*{stroke-linejoin: round; stroke-linecap: butt}</style>
 </defs>
 <g id="figure_1">
  <g id="patch_1">
   <path d="M 0 309.639375 
L 402.632875 309.639375 
L 402.632875 0 
L 0 0 
z
" style="fill: #ffffff"/>
  </g>
  <g id="axes_1">
   <g id="patch_2">
    <path d="M 38.312875 273.312 
L 395.432875 273.312 
L 395.432875 7.2 
L 38.312875 7.2 
z
" style="fill: #ffffff"/>
   </g>
   <g id="matplotlib.axis_1">
    <g id="xtick_1">
     <g id="line2d_1">
      <defs>
       <path id="m04c525696c" d="M 0 0 
L 0 4.8 
" style="stroke: #262626"/>
      </defs>
      <g>
       <use xlink:href="#m04c525696c" x="54.545602" y="273.312" style="fill: #262626; stroke: #262626"/>
      </g>
     </g>
     <g id="text_1">
      <!-- 0.0 -->
      <g style="fill: #262626" transform="translate(48.429602 287.910875) scale(0.088 -0.088)">
       <defs>
        <path id="ArialMT-30" d="M 266 2259 
Q 266 3072 433 3567 
Q 600 4063 929 4331 
Q 1259 4600 1759 4600 
Q 2128 4600 2406 4451 
Q 2684 4303 2865 4023 
Q 3047 3744 3150 3342 
Q 3253 2941 3253 2259 
Q 3253 1453 3087 958 
Q 2922 463 2592 192 
Q 2263 -78 1759 -78 
Q 1097 -78 719 397 
Q 266 969 266 2259 
z
M 844 2259 
Q 844 1131 1108 757 
Q 1372 384 1759 384 
Q 2147 384 2411 759 
Q 2675 1134 2675 2259 
Q 2675 3391 2411 3762 
Q 2147 4134 1753 4134 
Q 1366 4134 1134 3806 
Q 844 3388 844 2259 
z
" transform="scale(0.015625)"/>
        <path id="ArialMT-2e" d="M 581 0 
L 581 641 
L 1222 641 
L 1222 0 
L 581 0 
z
" transform="scale(0.015625)"/>
       </defs>
       <use xlink:href="#ArialMT-30"/>
       <use xlink:href="#ArialMT-2e" x="55.615234"/>
       <use xlink:href="#ArialMT-30" x="83.398438"/>
      </g>
     </g>
    </g>
    <g id="xtick_2">
     <g id="line2d_2">
      <g>
       <use xlink:href="#m04c525696c" x="119.476511" y="273.312" style="fill: #262626; stroke: #262626"/>
      </g>
     </g>
     <g id="text_2">
      <!-- 0.2 -->
      <g style="fill: #262626" transform="translate(113.360511 287.910875) scale(0.088 -0.088)">
       <defs>
        <path id="ArialMT-32" d="M 3222 541 
L 3222 0 
L 194 0 
Q 188 203 259 391 
Q 375 700 629 1000 
Q 884 1300 1366 1694 
Q 2113 2306 2375 2664 
Q 2638 3022 2638 3341 
Q 2638 3675 2398 3904 
Q 2159 4134 1775 4134 
Q 1369 4134 1125 3890 
Q 881 3647 878 3216 
L 300 3275 
Q 359 3922 746 4261 
Q 1134 4600 1788 4600 
Q 2447 4600 2831 4234 
Q 3216 3869 3216 3328 
Q 3216 3053 3103 2787 
Q 2991 2522 2730 2228 
Q 2469 1934 1863 1422 
Q 1356 997 1212 845 
Q 1069 694 975 541 
L 3222 541 
z
" transform="scale(0.015625)"/>
       </defs>
       <use xlink:href="#ArialMT-30"/>
       <use xlink:href="#ArialMT-2e" x="55.615234"/>
       <use xlink:href="#ArialMT-32" x="83.398438"/>
      </g>
     </g>
    </g>
    <g id="xtick_3">
     <g id="line2d_3">
      <g>
       <use xlink:href="#m04c525696c" x="184.40742" y="273.312" style="fill: #262626; stroke: #262626"/>
      </g>
     </g>
     <g id="text_3">
      <!-- 0.4 -->
      <g style="fill: #262626" transform="translate(178.29142 287.910875) scale(0.088 -0.088)">
       <defs>
        <path id="ArialMT-34" d="M 2069 0 
L 2069 1097 
L 81 1097 
L 81 1613 
L 2172 4581 
L 2631 4581 
L 2631 1613 
L 3250 1613 
L 3250 1097 
L 2631 1097 
L 2631 0 
L 2069 0 
z
M 2069 1613 
L 2069 3678 
L 634 1613 
L 2069 1613 
z
" transform="scale(0.015625)"/>
       </defs>
       <use xlink:href="#ArialMT-30"/>
       <use xlink:href="#ArialMT-2e" x="55.615234"/>
       <use xlink:href="#ArialMT-34" x="83.398438"/>
      </g>
     </g>
    </g>
    <g id="xtick_4">
     <g id="line2d_4">
      <g>
       <use xlink:href="#m04c525696c" x="249.33833" y="273.312" style="fill: #262626; stroke: #262626"/>
      </g>
     </g>
     <g id="text_4">
      <!-- 0.6 -->
      <g style="fill: #262626" transform="translate(243.22233 287.910875) scale(0.088 -0.088)">
       <defs>
        <path id="ArialMT-36" d="M 3184 3459 
L 2625 3416 
Q 2550 3747 2413 3897 
Q 2184 4138 1850 4138 
Q 1581 4138 1378 3988 
Q 1113 3794 959 3422 
Q 806 3050 800 2363 
Q 1003 2672 1297 2822 
Q 1591 2972 1913 2972 
Q 2475 2972 2870 2558 
Q 3266 2144 3266 1488 
Q 3266 1056 3080 686 
Q 2894 316 2569 119 
Q 2244 -78 1831 -78 
Q 1128 -78 684 439 
Q 241 956 241 2144 
Q 241 3472 731 4075 
Q 1159 4600 1884 4600 
Q 2425 4600 2770 4297 
Q 3116 3994 3184 3459 
z
M 888 1484 
Q 888 1194 1011 928 
Q 1134 663 1356 523 
Q 1578 384 1822 384 
Q 2178 384 2434 671 
Q 2691 959 2691 1453 
Q 2691 1928 2437 2201 
Q 2184 2475 1800 2475 
Q 1419 2475 1153 2201 
Q 888 1928 888 1484 
z
" transform="scale(0.015625)"/>
       </defs>
       <use xlink:href="#ArialMT-30"/>
       <use xlink:href="#ArialMT-2e" x="55.615234"/>
       <use xlink:href="#ArialMT-36" x="83.398438"/>
      </g>
     </g>
    </g>
    <g id="xtick_5">
     <g id="line2d_5">
      <g>
       <use xlink:href="#m04c525696c" x="314.269239" y="273.312" style="fill: #262626; stroke: #262626"/>
      </g>
     </g>
     <g id="text_5">
      <!-- 0.8 -->
      <g style="fill: #262626" transform="translate(308.153239 287.910875) scale(0.088 -0.088)">
       <defs>
        <path id="ArialMT-38" d="M 1131 2484 
Q 781 2613 612 2850 
Q 444 3088 444 3419 
Q 444 3919 803 4259 
Q 1163 4600 1759 4600 
Q 2359 4600 2725 4251 
Q 3091 3903 3091 3403 
Q 3091 3084 2923 2848 
Q 2756 2613 2416 2484 
Q 2838 2347 3058 2040 
Q 3278 1734 3278 1309 
Q 3278 722 2862 322 
Q 2447 -78 1769 -78 
Q 1091 -78 675 323 
Q 259 725 259 1325 
Q 259 1772 486 2073 
Q 713 2375 1131 2484 
z
M 1019 3438 
Q 1019 3113 1228 2906 
Q 1438 2700 1772 2700 
Q 2097 2700 2305 2904 
Q 2513 3109 2513 3406 
Q 2513 3716 2298 3927 
Q 2084 4138 1766 4138 
Q 1444 4138 1231 3931 
Q 1019 3725 1019 3438 
z
M 838 1322 
Q 838 1081 952 856 
Q 1066 631 1291 507 
Q 1516 384 1775 384 
Q 2178 384 2440 643 
Q 2703 903 2703 1303 
Q 2703 1709 2433 1975 
Q 2163 2241 1756 2241 
Q 1359 2241 1098 1978 
Q 838 1716 838 1322 
z
" transform="scale(0.015625)"/>
       </defs>
       <use xlink:href="#ArialMT-30"/>
       <use xlink:href="#ArialMT-2e" x="55.615234"/>
       <use xlink:href="#ArialMT-38" x="83.398438"/>
      </g>
     </g>
    </g>
    <g id="xtick_6">
     <g id="line2d_6">
      <g>
       <use xlink:href="#m04c525696c" x="379.200148" y="273.312" style="fill: #262626; stroke: #262626"/>
      </g>
     </g>
     <g id="text_6">
      <!-- 1.0 -->
      <g style="fill: #262626" transform="translate(373.084148 287.910875) scale(0.088 -0.088)">
       <defs>
        <path id="ArialMT-31" d="M 2384 0 
L 1822 0 
L 1822 3584 
Q 1619 3391 1289 3197 
Q 959 3003 697 2906 
L 697 3450 
Q 1169 3672 1522 3987 
Q 1875 4303 2022 4600 
L 2384 4600 
L 2384 0 
z
" transform="scale(0.015625)"/>
       </defs>
       <use xlink:href="#ArialMT-31"/>
       <use xlink:href="#ArialMT-2e" x="55.615234"/>
       <use xlink:href="#ArialMT-30" x="83.398438"/>
      </g>
     </g>
    </g>
    <g id="text_7">
     <!-- $x$ -->
     <g style="fill: #262626" transform="translate(213.992875 300.531375) scale(0.096 -0.096)">
      <defs>
       <path id="DejaVuSans-Oblique-78" d="M 3841 3500 
L 2234 1784 
L 3219 0 
L 2559 0 
L 1819 1388 
L 531 0 
L -166 0 
L 1556 1844 
L 641 3500 
L 1300 3500 
L 1972 2234 
L 3144 3500 
L 3841 3500 
z
" transform="scale(0.015625)"/>
      </defs>
      <use xlink:href="#DejaVuSans-Oblique-78" transform="translate(0 0.3125)"/>
     </g>
    </g>
   </g>
   <g id="matplotlib.axis_2">
    <g id="ytick_1">
     <g id="line2d_7">
      <defs>
       <path id="m30cd304a4c" d="M 0 0 
L -4.8 0 
" style="stroke: #262626"/>
      </defs>
      <g>
       <use xlink:href="#m30cd304a4c" x="38.312875" y="246.7008" style="fill: #262626; stroke: #262626"/>
      </g>
     </g>
     <g id="text_8">
      <!-- −4 -->
      <g style="fill: #262626" transform="translate(19.9795 249.850237) scale(0.088 -0.088)">
       <defs>
        <path id="ArialMT-2212" d="M 3381 1997 
L 356 1997 
L 356 2522 
L 3381 2522 
L 3381 1997 
z
" transform="scale(0.015625)"/>
       </defs>
       <use xlink:href="#ArialMT-2212"/>
       <use xlink:href="#ArialMT-34" x="58.398438"/>
      </g>
     </g>
    </g>
    <g id="ytick_2">
     <g id="line2d_8">
      <g>
       <use xlink:href="#m30cd304a4c" x="38.312875" y="193.4784" style="fill: #262626; stroke: #262626"/>
      </g>
     </g>
     <g id="text_9">
      <!-- −2 -->
      <g style="fill: #262626" transform="translate(19.9795 196.627837) scale(0.088 -0.088)">
       <use xlink:href="#ArialMT-2212"/>
       <use xlink:href="#ArialMT-32" x="58.398438"/>
      </g>
     </g>
    </g>
    <g id="ytick_3">
     <g id="line2d_9">
      <g>
       <use xlink:href="#m30cd304a4c" x="38.312875" y="140.256" style="fill: #262626; stroke: #262626"/>
      </g>
     </g>
     <g id="text_10">
      <!-- 0 -->
      <g style="fill: #262626" transform="translate(25.11925 143.405437) scale(0.088 -0.088)">
       <use xlink:href="#ArialMT-30"/>
      </g>
     </g>
    </g>
    <g id="ytick_4">
     <g id="line2d_10">
      <g>
       <use xlink:href="#m30cd304a4c" x="38.312875" y="87.0336" style="fill: #262626; stroke: #262626"/>
      </g>
     </g>
     <g id="text_11">
      <!-- 2 -->
      <g style="fill: #262626" transform="translate(25.11925 90.183037) scale(0.088 -0.088)">
       <use xlink:href="#ArialMT-32"/>
      </g>
     </g>
    </g>
    <g id="ytick_5">
     <g id="line2d_11">
      <g>
       <use xlink:href="#m30cd304a4c" x="38.312875" y="33.8112" style="fill: #262626; stroke: #262626"/>
      </g>
     </g>
     <g id="text_12">
      <!-- 4 -->
      <g style="fill: #262626" transform="translate(25.11925 36.960637) scale(0.088 -0.088)">
       <use xlink:href="#ArialMT-34"/>
      </g>
     </g>
    </g>
    <g id="text_13">
     <!-- $y$ -->
     <g style="fill: #262626" transform="translate(13.9635 143.136) rotate(-90) scale(0.096 -0.096)">
      <defs>
       <path id="DejaVuSans-Oblique-79" d="M 1588 -325 
Q 1188 -997 936 -1164 
Q 684 -1331 294 -1331 
L -159 -1331 
L -63 -850 
L 269 -850 
Q 509 -850 678 -719 
Q 847 -588 1056 -206 
L 1234 128 
L 459 3500 
L 1069 3500 
L 1650 819 
L 3256 3500 
L 3859 3500 
L 1588 -325 
z
" transform="scale(0.015625)"/>
      </defs>
      <use xlink:href="#DejaVuSans-Oblique-79" transform="translate(0 0.3125)"/>
     </g>
    </g>
   </g>
   <g id="line2d_12">
    <path d="M 54.545602 140.256 
L 57.824941 140.256 
L 61.10428 140.256 
L 64.383619 140.256 
L 67.662958 140.256 
L 70.942296 140.256 
L 74.221636 140.256 
L 77.500973 140.256 
L 80.780313 140.256 
L 84.059653 140.256 
L 87.33899 140.256 
L 90.61833 140.256 
L 93.89767 140.256 
L 97.177007 140.256 
L 100.456344 140.256 
L 103.735686 140.256 
L 107.015024 140.256 
L 110.294361 140.256 
L 113.573703 140.256 
L 116.853041 140.256 
L 120.132378 140.256 
L 123.41172 140.256 
L 126.691057 140.256 
L 129.970395 140.256 
L 133.249737 140.256 
L 136.529069 140.256 
L 139.808412 140.256 
L 143.087754 140.256 
L 146.367086 140.256 
L 149.646428 140.256 
L 152.92577 140.256 
L 156.205103 140.256 
L 159.484445 140.256 
L 162.763787 140.256 
L 166.04312 140.256 
L 169.322462 140.256 
L 172.601804 140.256 
L 175.881137 140.256 
L 179.160479 140.256 
L 182.439821 140.256 
L 185.719153 140.256 
L 188.998496 140.256 
L 192.277838 140.256 
L 195.55717 140.256 
L 198.836512 140.256 
L 202.115855 140.256 
L 205.395187 140.256 
L 208.674529 140.256 
L 211.953871 140.256 
L 215.233204 140.256 
L 218.512556 140.256 
L 221.791879 140.256 
L 225.071221 140.256 
L 228.350563 140.256 
L 231.629886 140.256 
L 234.909247 140.256 
L 238.18857 140.256 
L 241.467912 140.256 
L 244.747254 140.256 
L 248.026597 140.256 
L 251.305939 140.256 
L 254.585262 140.256 
L 257.864623 140.256 
L 261.143946 140.256 
L 264.423288 140.256 
L 267.70263 140.256 
L 270.981953 140.256 
L 274.261315 140.256 
L 277.540637 140.256 
L 280.81998 140.256 
L 284.099322 140.256 
L 287.378664 140.256 
L 290.658006 140.256 
L 293.937329 140.256 
L 297.21669 140.256 
L 300.496013 140.256 
L 303.775355 140.256 
L 307.054697 140.256 
L 310.33402 140.256 
L 313.613382 140.256 
L 316.892705 140.256 
L 320.172047 140.256 
L 323.451389 140.256 
L 326.730731 140.256 
L 330.010073 140.256 
L 333.289396 140.256 
L 336.568738 140.256 
L 339.84808 140.256 
L 343.127423 140.256 
L 346.406765 140.256 
L 349.686088 140.256 
L 352.96543 140.256 
L 356.244772 140.256 
L 359.524114 140.256 
L 362.803456 140.256 
L 366.082798 140.256 
L 369.362141 140.256 
L 372.641463 140.256 
L 375.920806 140.256 
L 379.200148 140.256 
" clip-path="url(#pdc1689cb3e)" style="fill: none; stroke: #1f77b4; stroke-width: 1.2; stroke-linecap: round"/>
   </g>
   <g id="line2d_13">
    <path d="M 54.545602 106.485856 
L 57.824941 105.207314 
L 61.10428 103.641868 
L 64.383619 102.310069 
L 67.662958 100.941125 
L 70.942296 100.222808 
L 74.221636 99.870308 
L 77.500973 100.109046 
L 80.780313 100.867201 
L 84.059653 102.415431 
L 87.33899 104.26304 
L 90.61833 106.679455 
L 93.89767 109.259064 
L 97.177007 112.042841 
L 100.456344 114.89315 
L 103.735686 117.817864 
L 107.015024 120.307404 
L 110.294361 122.537417 
L 113.573703 124.632702 
L 116.853041 126.137333 
L 120.132378 127.613747 
L 123.41172 128.524793 
L 126.691057 129.055478 
L 129.970395 129.468986 
L 133.249737 129.410833 
L 136.529069 129.549707 
L 139.808412 129.350267 
L 143.087754 129.028358 
L 146.367086 128.558517 
L 149.646428 128.234302 
L 152.92577 127.946046 
L 156.205103 127.72828 
L 159.484445 127.749596 
L 162.763787 127.907669 
L 166.04312 128.523124 
L 169.322462 129.372948 
L 172.601804 130.60999 
L 175.881137 132.094635 
L 179.160479 134.31098 
L 182.439821 137.067904 
L 185.719153 140.235376 
L 188.998496 143.651507 
L 192.277838 147.638422 
L 195.55717 151.757526 
L 198.836512 155.838801 
L 202.115855 159.954255 
L 205.395187 163.876983 
L 208.674529 167.362184 
L 211.953871 170.579622 
L 215.233204 172.866924 
L 218.512556 174.512981 
L 221.791879 175.166628 
L 225.071221 175.439408 
L 228.350563 174.583879 
L 231.629886 173.352455 
L 234.909247 171.29608 
L 238.18857 168.729379 
L 241.467912 166.114511 
L 244.747254 163.15364 
L 248.026597 160.429952 
L 251.305939 157.322964 
L 254.585262 154.565009 
L 257.864623 151.808119 
L 261.143946 148.988631 
L 264.423288 146.536154 
L 267.70263 144.03629 
L 270.981953 141.541095 
L 274.261315 138.842796 
L 277.540637 136.318043 
L 280.81998 133.761166 
L 284.099322 131.365353 
L 287.378664 128.804079 
L 290.658006 126.48965 
L 293.937329 124.349574 
L 297.21669 122.504866 
L 300.496013 120.699551 
L 303.775355 119.354785 
L 307.054697 118.183364 
L 310.33402 117.287877 
L 313.613382 116.565502 
L 316.892705 115.800923 
L 320.172047 115.556999 
L 323.451389 115.207865 
L 326.730731 115.046931 
L 330.010073 114.720967 
L 333.289396 114.638593 
L 336.568738 114.127261 
L 339.84808 113.818774 
L 343.127423 113.517251 
L 346.406765 112.800993 
L 349.686088 112.492312 
L 352.96543 111.986958 
L 356.244772 111.459496 
L 359.524114 111.210321 
L 362.803456 111.206886 
L 366.082798 111.239779 
L 369.362141 111.604382 
L 372.641463 112.518357 
L 375.920806 113.646543 
L 379.200148 115.136555 
" clip-path="url(#pdc1689cb3e)" style="fill: none; stroke: #ff7f0e; stroke-width: 0.5; stroke-linecap: round"/>
   </g>
   <g id="line2d_14">
    <path d="M 54.545602 207.056856 
L 57.824941 204.846815 
L 61.10428 201.947552 
L 64.383619 198.826007 
L 67.662958 195.488218 
L 70.942296 191.94213 
L 74.221636 187.919537 
L 77.500973 184.404061 
L 80.780313 180.534062 
L 84.059653 176.444012 
L 87.33899 172.587445 
L 90.61833 168.571919 
L 93.89767 164.922883 
L 97.177007 161.061435 
L 100.456344 157.690551 
L 103.735686 154.481637 
L 107.015024 151.68703 
L 110.294361 149.753132 
L 113.573703 147.861128 
L 116.853041 146.89903 
L 120.132378 146.365144 
L 123.41172 146.415379 
L 126.691057 146.725858 
L 129.970395 147.518401 
L 133.249737 147.902704 
L 136.529069 148.323752 
L 139.808412 148.24934 
L 143.087754 147.62627 
L 146.367086 146.363131 
L 149.646428 144.020158 
L 152.92577 141.35633 
L 156.205103 137.793574 
L 159.484445 133.882801 
L 162.763787 129.607946 
L 166.04312 125.593084 
L 169.322462 121.411513 
L 172.601804 117.820934 
L 175.881137 114.603367 
L 179.160479 112.314923 
L 182.439821 110.455472 
L 185.719153 109.371528 
L 188.998496 108.601455 
L 192.277838 108.333503 
L 195.55717 108.245396 
L 198.836512 108.412735 
L 202.115855 108.351966 
L 205.395187 108.123097 
L 208.674529 107.867216 
L 211.953871 107.356079 
L 215.233204 106.857786 
L 218.512556 106.502733 
L 221.791879 106.048665 
L 225.071221 106.378889 
L 228.350563 107.13094 
L 231.629886 108.497131 
L 234.909247 110.788929 
L 238.18857 113.741202 
L 241.467912 117.489139 
L 244.747254 121.826463 
L 248.026597 126.662631 
L 251.305939 132.00954 
L 254.585262 137.70411 
L 257.864623 143.188121 
L 261.143946 148.656485 
L 264.423288 153.6454 
L 267.70263 158.277478 
L 270.981953 162.122917 
L 274.261315 165.327928 
L 277.540637 167.982258 
L 280.81998 169.444642 
L 284.099322 170.407895 
L 287.378664 170.32907 
L 290.658006 169.585045 
L 293.937329 168.128723 
L 297.21669 165.958586 
L 300.496013 163.220718 
L 303.775355 160.217774 
L 307.054697 156.690435 
L 310.33402 152.792238 
L 313.613382 149.317715 
L 316.892705 145.700165 
L 320.172047 142.200241 
L 323.451389 139.19846 
L 326.730731 136.555633 
L 330.010073 134.747384 
L 333.289396 133.427454 
L 336.568738 132.655161 
L 339.84808 132.386437 
L 343.127423 132.694038 
L 346.406765 133.462273 
L 349.686088 134.506199 
L 352.96543 135.70077 
L 356.244772 136.994214 
L 359.524114 137.936584 
L 362.803456 138.634154 
L 366.082798 138.831714 
L 369.362141 138.560999 
L 372.641463 137.658606 
L 375.920806 136.4021 
L 379.200148 134.549153 
" clip-path="url(#pdc1689cb3e)" style="fill: none; stroke: #ff7f0e; stroke-width: 0.5; stroke-linecap: round"/>
   </g>
   <g id="line2d_15">
    <path d="M 54.545602 161.737657 
L 57.824941 162.336152 
L 61.10428 163.029579 
L 64.383619 163.986212 
L 67.662958 165.061751 
L 70.942296 166.281468 
L 74.221636 167.681869 
L 77.500973 169.383476 
L 80.780313 170.843211 
L 84.059653 172.575273 
L 87.33899 174.259641 
L 90.61833 175.860636 
L 93.89767 176.880026 
L 97.177007 178.078611 
L 100.456344 178.689114 
L 103.735686 178.869374 
L 107.015024 178.497374 
L 110.294361 177.525082 
L 113.573703 176.298042 
L 116.853041 174.249668 
L 120.132378 172.15414 
L 123.41172 169.531575 
L 126.691057 166.82669 
L 129.970395 163.809402 
L 133.249737 160.954744 
L 136.529069 158.099409 
L 139.808412 155.59804 
L 143.087754 153.623671 
L 146.367086 151.840668 
L 149.646428 150.449173 
L 152.92577 149.512358 
L 156.205103 148.70649 
L 159.484445 148.645067 
L 162.763787 148.634963 
L 166.04312 149.114722 
L 169.322462 149.520664 
L 172.601804 150.340415 
L 175.881137 151.174287 
L 179.160479 151.984232 
L 182.439821 153.026665 
L 185.719153 154.134672 
L 188.998496 154.936224 
L 192.277838 155.900281 
L 195.55717 156.748863 
L 198.836512 157.368672 
L 202.115855 158.016783 
L 205.395187 158.164398 
L 208.674529 158.597839 
L 211.953871 158.46911 
L 215.233204 158.222829 
L 218.512556 157.763789 
L 221.791879 156.969214 
L 225.071221 155.82436 
L 228.350563 154.440927 
L 231.629886 152.619475 
L 234.909247 150.440278 
L 238.18857 148.070319 
L 241.467912 145.342581 
L 244.747254 142.480749 
L 248.026597 139.628791 
L 251.305939 136.900035 
L 254.585262 134.508058 
L 257.864623 132.525958 
L 261.143946 131.113519 
L 264.423288 130.969902 
L 267.70263 131.342346 
L 270.981953 132.511093 
L 274.261315 134.647341 
L 277.540637 137.394153 
L 280.81998 140.564796 
L 284.099322 144.031595 
L 287.378664 147.584854 
L 290.658006 150.804481 
L 293.937329 153.994641 
L 297.21669 156.327629 
L 300.496013 158.279023 
L 303.775355 159.589244 
L 307.054697 160.120662 
L 310.33402 159.730164 
L 313.613382 159.043773 
L 316.892705 157.823847 
L 320.172047 156.214044 
L 323.451389 154.427948 
L 326.730731 152.688436 
L 330.010073 150.981695 
L 333.289396 149.598603 
L 336.568738 148.656405 
L 339.84808 148.080053 
L 343.127423 148.054957 
L 346.406765 148.803247 
L 349.686088 150.084348 
L 352.96543 151.803803 
L 356.244772 154.193984 
L 359.524114 157.046517 
L 362.803456 160.442879 
L 366.082798 164.095271 
L 369.362141 167.710046 
L 372.641463 171.426534 
L 375.920806 174.94509 
L 379.200148 177.996207 
" clip-path="url(#pdc1689cb3e)" style="fill: none; stroke: #ff7f0e; stroke-width: 0.5; stroke-linecap: round"/>
   </g>
   <g id="line2d_16">
    <path d="M 54.545602 137.333629 
L 57.824941 142.309684 
L 61.10428 147.000372 
L 64.383619 150.663194 
L 67.662958 153.76911 
L 70.942296 155.81776 
L 74.221636 157.197209 
L 77.500973 157.3087 
L 80.780313 157.001175 
L 84.059653 155.963815 
L 87.33899 154.610925 
L 90.61833 152.646964 
L 93.89767 150.754141 
L 97.177007 148.927801 
L 100.456344 147.160393 
L 103.735686 145.844656 
L 107.015024 144.482294 
L 110.294361 143.686189 
L 113.573703 143.250971 
L 116.853041 143.279969 
L 120.132378 143.465542 
L 123.41172 144.253286 
L 126.691057 145.31753 
L 129.970395 146.564495 
L 133.249737 148.032381 
L 136.529069 149.621898 
L 139.808412 151.485824 
L 143.087754 153.627528 
L 146.367086 155.611293 
L 149.646428 157.717357 
L 152.92577 159.789069 
L 156.205103 161.967116 
L 159.484445 163.682786 
L 162.763787 165.509245 
L 166.04312 167.040604 
L 169.322462 168.425743 
L 172.601804 169.039894 
L 175.881137 169.511942 
L 179.160479 169.256102 
L 182.439821 168.426472 
L 185.719153 166.780802 
L 188.998496 164.418817 
L 192.277838 161.170164 
L 195.55717 157.743186 
L 198.836512 153.564444 
L 202.115855 149.136508 
L 205.395187 144.28161 
L 208.674529 139.41934 
L 211.953871 135.214929 
L 215.233204 131.574933 
L 218.512556 128.347154 
L 221.791879 126.033927 
L 225.071221 124.562435 
L 228.350563 124.172721 
L 231.629886 124.582494 
L 234.909247 125.911159 
L 238.18857 127.891513 
L 241.467912 130.584975 
L 244.747254 133.960882 
L 248.026597 137.48196 
L 251.305939 141.326711 
L 254.585262 145.134385 
L 257.864623 148.870195 
L 261.143946 152.342794 
L 264.423288 155.530139 
L 267.70263 158.092894 
L 270.981953 160.53465 
L 274.261315 162.265953 
L 277.540637 163.474426 
L 280.81998 164.201089 
L 284.099322 164.414922 
L 287.378664 164.328816 
L 290.658006 164.061124 
L 293.937329 163.633358 
L 297.21669 162.833378 
L 300.496013 161.977148 
L 303.775355 161.356021 
L 307.054697 160.411235 
L 310.33402 159.728681 
L 313.613382 158.690229 
L 316.892705 157.444263 
L 320.172047 156.363538 
L 323.451389 154.375276 
L 326.730731 152.465682 
L 330.010073 149.670687 
L 333.289396 146.584423 
L 336.568738 143.096543 
L 339.84808 139.400833 
L 343.127423 135.437518 
L 346.406765 131.67711 
L 349.686088 128.427824 
L 352.96543 125.711359 
L 356.244772 123.798933 
L 359.524114 122.939257 
L 362.803456 122.968374 
L 366.082798 124.242285 
L 369.362141 126.4756 
L 372.641463 129.306365 
L 375.920806 133.175421 
L 379.200148 137.387566 
" clip-path="url(#pdc1689cb3e)" style="fill: none; stroke: #ff7f0e; stroke-width: 0.5; stroke-linecap: round"/>
   </g>
   <g id="line2d_17">
    <path d="M 54.545602 126.08262 
L 57.824941 126.089096 
L 61.10428 126.337925 
L 64.383619 127.109485 
L 67.662958 128.103981 
L 70.942296 129.975671 
L 74.221636 132.043445 
L 77.500973 135.171792 
L 80.780313 138.742897 
L 84.059653 142.980506 
L 87.33899 147.663607 
L 90.61833 152.477209 
L 93.89767 157.776792 
L 97.177007 162.95637 
L 100.456344 168.159634 
L 103.735686 172.958322 
L 107.015024 177.474303 
L 110.294361 181.487532 
L 113.573703 184.792008 
L 116.853041 187.393099 
L 120.132378 189.413434 
L 123.41172 190.976891 
L 126.691057 191.801965 
L 129.970395 192.251779 
L 133.249737 192.682108 
L 136.529069 192.821404 
L 139.808412 192.58376 
L 143.087754 192.282128 
L 146.367086 191.981016 
L 149.646428 191.366497 
L 152.92577 190.633226 
L 156.205103 189.34345 
L 159.484445 187.872181 
L 162.763787 185.971572 
L 166.04312 183.31901 
L 169.322462 180.003691 
L 172.601804 176.47762 
L 175.881137 172.289496 
L 179.160479 167.575271 
L 182.439821 162.534105 
L 185.719153 157.106586 
L 188.998496 151.54516 
L 192.277838 145.965277 
L 195.55717 140.318751 
L 198.836512 134.830068 
L 202.115855 129.822121 
L 205.395187 125.303552 
L 208.674529 121.593024 
L 211.953871 118.376945 
L 215.233204 116.1113 
L 218.512556 114.505431 
L 221.791879 113.685218 
L 225.071221 114.072268 
L 228.350563 115.364308 
L 231.629886 117.031007 
L 234.909247 119.632054 
L 238.18857 122.945019 
L 241.467912 126.656829 
L 244.747254 130.66355 
L 248.026597 134.947958 
L 251.305939 139.247215 
L 254.585262 143.572942 
L 257.864623 147.313096 
L 261.143946 150.955735 
L 264.423288 153.930198 
L 267.70263 156.457853 
L 270.981953 158.505265 
L 274.261315 159.912322 
L 277.540637 160.965011 
L 280.81998 161.67949 
L 284.099322 161.538364 
L 287.378664 161.354911 
L 290.658006 160.912895 
L 293.937329 159.970685 
L 297.21669 158.752754 
L 300.496013 157.090989 
L 303.775355 155.165405 
L 307.054697 152.869485 
L 310.33402 150.198179 
L 313.613382 147.118849 
L 316.892705 143.709373 
L 320.172047 139.977132 
L 323.451389 136.158934 
L 326.730731 131.907242 
L 330.010073 127.692398 
L 333.289396 123.676332 
L 336.568738 120.200623 
L 339.84808 117.088642 
L 343.127423 114.629895 
L 346.406765 112.873927 
L 349.686088 111.787033 
L 352.96543 111.895675 
L 356.244772 112.492325 
L 359.524114 114.058868 
L 362.803456 116.029832 
L 366.082798 118.958936 
L 369.362141 121.854265 
L 372.641463 124.997891 
L 375.920806 128.203417 
L 379.200148 131.516001 
" clip-path="url(#pdc1689cb3e)" style="fill: none; stroke: #ff7f0e; stroke-width: 0.5; stroke-linecap: round"/>
   </g>
   <g id="line2d_18">
    <path d="M 54.545602 150.813055 
L 57.824941 151.70809 
L 61.10428 151.656485 
L 64.383619 151.190223 
L 67.662958 149.471037 
L 70.942296 146.71318 
L 74.221636 142.974337 
L 77.500973 138.656389 
L 80.780313 133.174781 
L 84.059653 127.699301 
L 87.33899 121.771807 
L 90.61833 115.987845 
L 93.89767 110.514179 
L 97.177007 105.68813 
L 100.456344 101.319816 
L 103.735686 97.865959 
L 107.015024 94.922272 
L 110.294361 93.130813 
L 113.573703 91.480717 
L 116.853041 90.661178 
L 120.132378 90.205788 
L 123.41172 89.918853 
L 126.691057 89.926552 
L 129.970395 90.074172 
L 133.249737 90.357976 
L 136.529069 90.792924 
L 139.808412 91.520009 
L 143.087754 92.827531 
L 146.367086 94.366021 
L 149.646428 96.659187 
L 152.92577 99.528071 
L 156.205103 103.113004 
L 159.484445 107.441458 
L 162.763787 112.244984 
L 166.04312 117.334925 
L 169.322462 122.80438 
L 172.601804 128.333724 
L 175.881137 133.700071 
L 179.160479 138.626488 
L 182.439821 142.898609 
L 185.719153 146.686568 
L 188.998496 149.524578 
L 192.277838 151.463425 
L 195.55717 152.348086 
L 198.836512 152.603682 
L 202.115855 151.81764 
L 205.395187 150.283731 
L 208.674529 148.401842 
L 211.953871 146.038578 
L 215.233204 143.506481 
L 218.512556 140.716032 
L 221.791879 138.628619 
L 225.071221 136.546391 
L 228.350563 134.933223 
L 231.629886 133.944673 
L 234.909247 133.557816 
L 238.18857 133.726009 
L 241.467912 134.305326 
L 244.747254 135.617316 
L 248.026597 136.995931 
L 251.305939 138.667125 
L 254.585262 140.00129 
L 257.864623 141.523633 
L 261.143946 142.76382 
L 264.423288 143.769158 
L 267.70263 144.616124 
L 270.981953 145.004734 
L 274.261315 145.427411 
L 277.540637 145.445117 
L 280.81998 145.681552 
L 284.099322 145.777455 
L 287.378664 146.24262 
L 290.658006 146.759281 
L 293.937329 147.611836 
L 297.21669 148.349861 
L 300.496013 149.350793 
L 303.775355 150.239034 
L 307.054697 151.185879 
L 310.33402 151.395225 
L 313.613382 151.37174 
L 316.892705 150.692437 
L 320.172047 149.468865 
L 323.451389 147.353347 
L 326.730731 144.416874 
L 330.010073 140.880428 
L 333.289396 136.518647 
L 336.568738 131.491091 
L 339.84808 125.951247 
L 343.127423 120.418224 
L 346.406765 114.534834 
L 349.686088 108.821536 
L 352.96543 103.500177 
L 356.244772 98.881717 
L 359.524114 94.958208 
L 362.803456 92.076856 
L 366.082798 90.221951 
L 369.362141 89.737258 
L 372.641463 90.242396 
L 375.920806 91.870523 
L 379.200148 94.635984 
" clip-path="url(#pdc1689cb3e)" style="fill: none; stroke: #ff7f0e; stroke-width: 0.5; stroke-linecap: round"/>
   </g>
   <g id="line2d_19">
    <path d="M 54.545602 168.588174 
L 57.824941 166.75707 
L 61.10428 164.678258 
L 64.383619 162.983998 
L 67.662958 161.106286 
L 70.942296 159.89031 
L 74.221636 158.668693 
L 77.500973 157.784838 
L 80.780313 157.008243 
L 84.059653 156.408202 
L 87.33899 155.53605 
L 90.61833 154.784868 
L 93.89767 153.578136 
L 97.177007 152.19233 
L 100.456344 150.569659 
L 103.735686 148.665095 
L 107.015024 146.635168 
L 110.294361 144.283569 
L 113.573703 141.978681 
L 116.853041 139.850867 
L 120.132378 137.923911 
L 123.41172 136.087455 
L 126.691057 134.688659 
L 129.970395 133.603205 
L 133.249737 132.621257 
L 136.529069 132.110789 
L 139.808412 131.589752 
L 143.087754 131.254088 
L 146.367086 130.887675 
L 149.646428 130.504272 
L 152.92577 130.091348 
L 156.205103 129.570869 
L 159.484445 128.781683 
L 162.763787 128.227867 
L 166.04312 127.498608 
L 169.322462 127.152593 
L 172.601804 126.658345 
L 175.881137 126.657817 
L 179.160479 127.150764 
L 182.439821 127.814132 
L 185.719153 129.174319 
L 188.998496 130.678054 
L 192.277838 132.510405 
L 195.55717 134.216198 
L 198.836512 136.395368 
L 202.115855 138.527722 
L 205.395187 140.345794 
L 208.674529 142.263437 
L 211.953871 143.724455 
L 215.233204 145.194839 
L 218.512556 146.348879 
L 221.791879 147.364485 
L 225.071221 148.275534 
L 228.350563 149.423519 
L 231.629886 150.269693 
L 234.909247 151.566456 
L 238.18857 153.176636 
L 241.467912 154.891161 
L 244.747254 156.935575 
L 248.026597 159.179992 
L 251.305939 161.472802 
L 254.585262 163.709198 
L 257.864623 166.111757 
L 261.143946 168.3468 
L 264.423288 170.248474 
L 267.70263 171.87112 
L 270.981953 172.965564 
L 274.261315 173.670608 
L 277.540637 173.789091 
L 280.81998 173.209165 
L 284.099322 172.422345 
L 287.378664 171.228935 
L 290.658006 170.080308 
L 293.937329 168.583317 
L 297.21669 167.412224 
L 300.496013 166.550414 
L 303.775355 166.055766 
L 307.054697 166.165649 
L 310.33402 166.595005 
L 313.613382 167.708082 
L 316.892705 168.95677 
L 320.172047 170.667764 
L 323.451389 172.054961 
L 326.730731 173.212683 
L 330.010073 173.776037 
L 333.289396 173.862577 
L 336.568738 172.957278 
L 339.84808 170.944595 
L 343.127423 168.241464 
L 346.406765 164.525965 
L 349.686088 160.038386 
L 352.96543 154.924784 
L 356.244772 149.686812 
L 359.524114 144.101408 
L 362.803456 138.512721 
L 366.082798 133.22599 
L 369.362141 128.306474 
L 372.641463 124.206297 
L 375.920806 120.67226 
L 379.200148 118.011501 
" clip-path="url(#pdc1689cb3e)" style="fill: none; stroke: #ff7f0e; stroke-width: 0.5; stroke-linecap: round"/>
   </g>
   <g id="line2d_20">
    <path d="M 54.545602 60.335187 
L 57.824941 60.511472 
L 61.10428 61.071352 
L 64.383619 62.246112 
L 67.662958 63.617333 
L 70.942296 65.508032 
L 74.221636 67.644368 
L 77.500973 70.214707 
L 80.780313 73.262427 
L 84.059653 76.698417 
L 87.33899 80.615804 
L 90.61833 85.060663 
L 93.89767 90.177745 
L 97.177007 95.849936 
L 100.456344 101.978452 
L 103.735686 108.764054 
L 107.015024 115.721824 
L 110.294361 122.910931 
L 113.573703 130.227509 
L 116.853041 136.941813 
L 120.132378 143.464241 
L 123.41172 149.647326 
L 126.691057 154.735057 
L 129.970395 159.102107 
L 133.249737 162.399061 
L 136.529069 165.168451 
L 139.808412 166.88145 
L 143.087754 167.695764 
L 146.367086 168.495245 
L 149.646428 168.428706 
L 152.92577 168.382986 
L 156.205103 168.31226 
L 159.484445 168.315695 
L 162.763787 168.555613 
L 166.04312 169.02401 
L 169.322462 169.678545 
L 172.601804 170.773928 
L 175.881137 171.722745 
L 179.160479 172.503864 
L 182.439821 173.089062 
L 185.719153 173.54122 
L 188.998496 173.548506 
L 192.277838 172.811514 
L 195.55717 171.695032 
L 198.836512 170.236451 
L 202.115855 168.467785 
L 205.395187 166.539454 
L 208.674529 164.516419 
L 211.953871 162.716552 
L 215.233204 161.255048 
L 218.512556 160.160077 
L 221.791879 159.488136 
L 225.071221 159.176473 
L 228.350563 159.213077 
L 231.629886 159.633071 
L 234.909247 160.381038 
L 238.18857 160.979382 
L 241.467912 161.799033 
L 244.747254 162.290994 
L 248.026597 162.445366 
L 251.305939 162.33694 
L 254.585262 161.880396 
L 257.864623 161.028076 
L 261.143946 160.137167 
L 264.423288 158.728814 
L 267.70263 157.183808 
L 270.981953 155.727597 
L 274.261315 154.06408 
L 277.540637 152.539285 
L 280.81998 151.504405 
L 284.099322 150.703176 
L 287.378664 150.580845 
L 290.658006 150.535052 
L 293.937329 150.884727 
L 297.21669 151.817161 
L 300.496013 152.530204 
L 303.775355 153.363406 
L 307.054697 153.887113 
L 310.33402 154.576569 
L 313.613382 154.634482 
L 316.892705 154.538953 
L 320.172047 153.851731 
L 323.451389 152.987035 
L 326.730731 151.927693 
L 330.010073 150.583132 
L 333.289396 149.373588 
L 336.568738 148.287976 
L 339.84808 147.555214 
L 343.127423 147.164702 
L 346.406765 147.695824 
L 349.686088 148.787277 
L 352.96543 150.668701 
L 356.244772 153.299031 
L 359.524114 156.691525 
L 362.803456 160.754713 
L 366.082798 165.603361 
L 369.362141 171.02237 
L 372.641463 176.801655 
L 375.920806 182.887307 
L 379.200148 188.939346 
" clip-path="url(#pdc1689cb3e)" style="fill: none; stroke: #ff7f0e; stroke-width: 0.5; stroke-linecap: round"/>
   </g>
   <g id="line2d_21">
    <path d="M 54.545602 175.200898 
L 57.824941 173.121169 
L 61.10428 170.549999 
L 64.383619 167.446611 
L 67.662958 163.947461 
L 70.942296 160.131914 
L 74.221636 156.107179 
L 77.500973 151.832223 
L 80.780313 147.48315 
L 84.059653 143.071847 
L 87.33899 138.279838 
L 90.61833 133.56537 
L 93.89767 128.926031 
L 97.177007 124.17987 
L 100.456344 119.659997 
L 103.735686 115.650677 
L 107.015024 111.835725 
L 110.294361 108.199112 
L 113.573703 105.661914 
L 116.853041 103.080443 
L 120.132378 101.579592 
L 123.41172 100.587921 
L 126.691057 100.22631 
L 129.970395 100.599205 
L 133.249737 101.814505 
L 136.529069 103.468879 
L 139.808412 105.530752 
L 143.087754 108.484987 
L 146.367086 111.505621 
L 149.646428 115.149702 
L 152.92577 118.83471 
L 156.205103 122.981641 
L 159.484445 127.016638 
L 162.763787 131.098816 
L 166.04312 134.95388 
L 169.322462 138.236855 
L 172.601804 141.241831 
L 175.881137 143.568488 
L 179.160479 145.721968 
L 182.439821 146.946382 
L 185.719153 147.704275 
L 188.998496 148.040865 
L 192.277838 147.737829 
L 195.55717 147.358398 
L 198.836512 146.378366 
L 202.115855 145.855933 
L 205.395187 144.931251 
L 208.674529 144.694995 
L 211.953871 144.516355 
L 215.233204 144.864484 
L 218.512556 145.770253 
L 221.791879 147.279802 
L 225.071221 149.208652 
L 228.350563 151.838908 
L 231.629886 154.713688 
L 234.909247 158.16335 
L 238.18857 161.26732 
L 241.467912 164.654545 
L 244.747254 167.643228 
L 248.026597 170.649742 
L 251.305939 173.151572 
L 254.585262 175.522503 
L 257.864623 176.938172 
L 261.143946 177.964046 
L 264.423288 178.601045 
L 267.70263 178.934441 
L 270.981953 179.056664 
L 274.261315 179.271336 
L 277.540637 179.310914 
L 280.81998 179.697691 
L 284.099322 180.333382 
L 287.378664 181.133598 
L 290.658006 182.355407 
L 293.937329 183.805226 
L 297.21669 184.988837 
L 300.496013 186.457083 
L 303.775355 187.489791 
L 307.054697 188.067284 
L 310.33402 188.342259 
L 313.613382 187.900268 
L 316.892705 186.954338 
L 320.172047 185.023241 
L 323.451389 182.900824 
L 326.730731 179.959088 
L 330.010073 176.563383 
L 333.289396 172.73424 
L 336.568738 168.642392 
L 339.84808 164.326944 
L 343.127423 160.045695 
L 346.406765 155.667882 
L 349.686088 151.677734 
L 352.96543 147.824644 
L 356.244772 144.482756 
L 359.524114 141.670057 
L 362.803456 139.532799 
L 366.082798 137.927579 
L 369.362141 137.378382 
L 372.641463 137.450388 
L 375.920806 138.284432 
L 379.200148 140.087387 
" clip-path="url(#pdc1689cb3e)" style="fill: none; stroke: #ff7f0e; stroke-width: 0.5; stroke-linecap: round"/>
   </g>
   <g id="line2d_22">
    <path d="M 54.545602 166.956358 
L 57.824941 164.348863 
L 61.10428 161.570583 
L 64.383619 159.188241 
L 67.662958 156.321662 
L 70.942296 153.531198 
L 74.221636 150.99087 
L 77.500973 148.113663 
L 80.780313 145.387898 
L 84.059653 142.368992 
L 87.33899 139.23113 
L 90.61833 136.155894 
L 93.89767 132.877046 
L 97.177007 129.585267 
L 100.456344 126.158371 
L 103.735686 122.728519 
L 107.015024 119.351339 
L 110.294361 115.796167 
L 113.573703 112.360919 
L 116.853041 108.978407 
L 120.132378 105.644444 
L 123.41172 102.68493 
L 126.691057 100.053115 
L 129.970395 98.068352 
L 133.249737 96.384614 
L 136.529069 95.191746 
L 139.808412 94.68551 
L 143.087754 94.37288 
L 146.367086 94.614685 
L 149.646428 95.706896 
L 152.92577 96.935409 
L 156.205103 98.700855 
L 159.484445 100.611031 
L 162.763787 102.862954 
L 166.04312 105.368755 
L 169.322462 108.006268 
L 172.601804 110.600199 
L 175.881137 113.600889 
L 179.160479 116.406023 
L 182.439821 119.330041 
L 185.719153 122.401465 
L 188.998496 125.206703 
L 192.277838 128.053075 
L 195.55717 130.635761 
L 198.836512 133.220219 
L 202.115855 135.545525 
L 205.395187 137.542076 
L 208.674529 139.466837 
L 211.953871 141.047845 
L 215.233204 142.762748 
L 218.512556 144.108093 
L 221.791879 145.447709 
L 225.071221 146.246856 
L 228.350563 147.170389 
L 231.629886 148.001998 
L 234.909247 148.546779 
L 238.18857 149.116088 
L 241.467912 149.057285 
L 244.747254 148.524931 
L 248.026597 147.724988 
L 251.305939 146.638218 
L 254.585262 145.275427 
L 257.864623 143.48186 
L 261.143946 141.456248 
L 264.423288 138.817638 
L 267.70263 136.586805 
L 270.981953 134.07816 
L 274.261315 132.045602 
L 277.540637 129.829773 
L 280.81998 127.792637 
L 284.099322 126.175368 
L 287.378664 124.738025 
L 290.658006 123.712799 
L 293.937329 122.786266 
L 297.21669 122.376337 
L 300.496013 122.038055 
L 303.775355 121.998741 
L 307.054697 122.117413 
L 310.33402 122.397837 
L 313.613382 122.59101 
L 316.892705 123.165209 
L 320.172047 123.508836 
L 323.451389 123.907459 
L 326.730731 124.123439 
L 330.010073 124.121821 
L 333.289396 124.117946 
L 336.568738 123.979376 
L 339.84808 123.066963 
L 343.127423 122.238253 
L 346.406765 120.830272 
L 349.686088 119.286537 
L 352.96543 117.594088 
L 356.244772 115.536082 
L 359.524114 113.700539 
L 362.803456 111.880388 
L 366.082798 110.24209 
L 369.362141 109.209322 
L 372.641463 108.945799 
L 375.920806 109.179915 
L 379.200148 110.08167 
" clip-path="url(#pdc1689cb3e)" style="fill: none; stroke: #ff7f0e; stroke-width: 0.5; stroke-linecap: round"/>
   </g>
   <g id="patch_3">
    <path d="M 38.312875 246.7008 
L 38.312875 33.8112 
" style="fill: none; stroke: #262626; stroke-linejoin: miter; stroke-linecap: square"/>
   </g>
   <g id="patch_4">
    <path d="M 54.545602 273.312 
L 379.200148 273.312 
" style="fill: none; stroke: #262626; stroke-linejoin: miter; stroke-linecap: square"/>
   </g>
   <g id="legend_1">
    <g id="line2d_23">
     <path d="M 334.506625 18.338875 
L 343.306625 18.338875 
L 352.106625 18.338875 
" style="fill: none; stroke: #1f77b4; stroke-width: 1.2; stroke-linecap: round"/>
    </g>
    <g id="text_14">
     <!-- mean -->
     <g style="fill: #262626" transform="translate(359.146625 21.418875) scale(0.088 -0.088)">
      <defs>
       <path id="ArialMT-6d" d="M 422 0 
L 422 3319 
L 925 3319 
L 925 2853 
Q 1081 3097 1340 3245 
Q 1600 3394 1931 3394 
Q 2300 3394 2536 3241 
Q 2772 3088 2869 2813 
Q 3263 3394 3894 3394 
Q 4388 3394 4653 3120 
Q 4919 2847 4919 2278 
L 4919 0 
L 4359 0 
L 4359 2091 
Q 4359 2428 4304 2576 
Q 4250 2725 4106 2815 
Q 3963 2906 3769 2906 
Q 3419 2906 3187 2673 
Q 2956 2441 2956 1928 
L 2956 0 
L 2394 0 
L 2394 2156 
Q 2394 2531 2256 2718 
Q 2119 2906 1806 2906 
Q 1569 2906 1367 2781 
Q 1166 2656 1075 2415 
Q 984 2175 984 1722 
L 984 0 
L 422 0 
z
" transform="scale(0.015625)"/>
       <path id="ArialMT-65" d="M 2694 1069 
L 3275 997 
Q 3138 488 2766 206 
Q 2394 -75 1816 -75 
Q 1088 -75 661 373 
Q 234 822 234 1631 
Q 234 2469 665 2931 
Q 1097 3394 1784 3394 
Q 2450 3394 2872 2941 
Q 3294 2488 3294 1666 
Q 3294 1616 3291 1516 
L 816 1516 
Q 847 969 1125 678 
Q 1403 388 1819 388 
Q 2128 388 2347 550 
Q 2566 713 2694 1069 
z
M 847 1978 
L 2700 1978 
Q 2663 2397 2488 2606 
Q 2219 2931 1791 2931 
Q 1403 2931 1139 2672 
Q 875 2413 847 1978 
z
" transform="scale(0.015625)"/>
       <path id="ArialMT-61" d="M 2588 409 
Q 2275 144 1986 34 
Q 1697 -75 1366 -75 
Q 819 -75 525 192 
Q 231 459 231 875 
Q 231 1119 342 1320 
Q 453 1522 633 1644 
Q 813 1766 1038 1828 
Q 1203 1872 1538 1913 
Q 2219 1994 2541 2106 
Q 2544 2222 2544 2253 
Q 2544 2597 2384 2738 
Q 2169 2928 1744 2928 
Q 1347 2928 1158 2789 
Q 969 2650 878 2297 
L 328 2372 
Q 403 2725 575 2942 
Q 747 3159 1072 3276 
Q 1397 3394 1825 3394 
Q 2250 3394 2515 3294 
Q 2781 3194 2906 3042 
Q 3031 2891 3081 2659 
Q 3109 2516 3109 2141 
L 3109 1391 
Q 3109 606 3145 398 
Q 3181 191 3288 0 
L 2700 0 
Q 2613 175 2588 409 
z
M 2541 1666 
Q 2234 1541 1622 1453 
Q 1275 1403 1131 1340 
Q 988 1278 909 1158 
Q 831 1038 831 891 
Q 831 666 1001 516 
Q 1172 366 1500 366 
Q 1825 366 2078 508 
Q 2331 650 2450 897 
Q 2541 1088 2541 1459 
L 2541 1666 
z
" transform="scale(0.015625)"/>
       <path id="ArialMT-6e" d="M 422 0 
L 422 3319 
L 928 3319 
L 928 2847 
Q 1294 3394 1984 3394 
Q 2284 3394 2536 3286 
Q 2788 3178 2913 3003 
Q 3038 2828 3088 2588 
Q 3119 2431 3119 2041 
L 3119 0 
L 2556 0 
L 2556 2019 
Q 2556 2363 2490 2533 
Q 2425 2703 2258 2804 
Q 2091 2906 1866 2906 
Q 1506 2906 1245 2678 
Q 984 2450 984 1813 
L 984 0 
L 422 0 
z
" transform="scale(0.015625)"/>
      </defs>
      <use xlink:href="#ArialMT-6d"/>
      <use xlink:href="#ArialMT-65" x="83.300781"/>
      <use xlink:href="#ArialMT-61" x="138.916016"/>
      <use xlink:href="#ArialMT-6e" x="194.53125"/>
     </g>
    </g>
    <g id="line2d_24">
     <path d="M 334.506625 30.78675 
L 343.306625 30.78675 
L 352.106625 30.78675 
" style="fill: none; stroke: #ff7f0e; stroke-width: 0.5; stroke-linecap: round"/>
    </g>
    <g id="text_15">
     <!-- sample -->
     <g style="fill: #262626" transform="translate(359.146625 33.86675) scale(0.088 -0.088)">
      <defs>
       <path id="ArialMT-73" d="M 197 991 
L 753 1078 
Q 800 744 1014 566 
Q 1228 388 1613 388 
Q 2000 388 2187 545 
Q 2375 703 2375 916 
Q 2375 1106 2209 1216 
Q 2094 1291 1634 1406 
Q 1016 1563 777 1677 
Q 538 1791 414 1992 
Q 291 2194 291 2438 
Q 291 2659 392 2848 
Q 494 3038 669 3163 
Q 800 3259 1026 3326 
Q 1253 3394 1513 3394 
Q 1903 3394 2198 3281 
Q 2494 3169 2634 2976 
Q 2775 2784 2828 2463 
L 2278 2388 
Q 2241 2644 2061 2787 
Q 1881 2931 1553 2931 
Q 1166 2931 1000 2803 
Q 834 2675 834 2503 
Q 834 2394 903 2306 
Q 972 2216 1119 2156 
Q 1203 2125 1616 2013 
Q 2213 1853 2448 1751 
Q 2684 1650 2818 1456 
Q 2953 1263 2953 975 
Q 2953 694 2789 445 
Q 2625 197 2315 61 
Q 2006 -75 1616 -75 
Q 969 -75 630 194 
Q 291 463 197 991 
z
" transform="scale(0.015625)"/>
       <path id="ArialMT-70" d="M 422 -1272 
L 422 3319 
L 934 3319 
L 934 2888 
Q 1116 3141 1344 3267 
Q 1572 3394 1897 3394 
Q 2322 3394 2647 3175 
Q 2972 2956 3137 2557 
Q 3303 2159 3303 1684 
Q 3303 1175 3120 767 
Q 2938 359 2589 142 
Q 2241 -75 1856 -75 
Q 1575 -75 1351 44 
Q 1128 163 984 344 
L 984 -1272 
L 422 -1272 
z
M 931 1641 
Q 931 1000 1190 694 
Q 1450 388 1819 388 
Q 2194 388 2461 705 
Q 2728 1022 2728 1688 
Q 2728 2322 2467 2637 
Q 2206 2953 1844 2953 
Q 1484 2953 1207 2617 
Q 931 2281 931 1641 
z
" transform="scale(0.015625)"/>
       <path id="ArialMT-6c" d="M 409 0 
L 409 4581 
L 972 4581 
L 972 0 
L 409 0 
z
" transform="scale(0.015625)"/>
      </defs>
      <use xlink:href="#ArialMT-73"/>
      <use xlink:href="#ArialMT-61" x="50"/>
      <use xlink:href="#ArialMT-6d" x="105.615234"/>
      <use xlink:href="#ArialMT-70" x="188.916016"/>
      <use xlink:href="#ArialMT-6c" x="244.53125"/>
      <use xlink:href="#ArialMT-65" x="266.748047"/>
     </g>
    </g>
   </g>
  </g>
 </g>
 <defs>
  <clipPath id="pdc1689cb3e">
   <rect x="38.312875" y="7.2" width="357.12" height="266.112"/>
  </clipPath>
 </defs>
</svg>