<?xml version="1.0" encoding="utf-8" standalone="no"?>
<!DOCTYPE svg PUBLIC "-//W3C//DTD SVG 1.1//EN"
  "http://www.w3.org/Graphics/SVG/1.1/DTD/svg11.dtd">
<svg xmlns:xlink="http://www.w3.org/1999/xlink" width="398.168pt" height="309.639375pt" viewBox="0 0 398.168 309.639375" xmlns="http://www.w3.org/2000/svg" version="1.1">
 <metadata>
  <rdf:RDF xmlns:dc="http://purl.org/dc/elements/1.1/" xmlns:cc="http://creativecommons.org/ns#" xmlns:rdf="http://www.w3.org/1999/02/22-rdf-syntax-ns#">
   <cc:Work>
    <dc:type rdf:resource="http://purl.org/dc/dcmitype/StillImage"/>
    <dc:date>2023-08-15T14:38:22.783165</dc:date>
    <dc:format>image/svg+xml</dc:format>
    <dc:creator>
     <cc:Agent>
      <dc:title>Matplotlib v3.7.1, https://matplotlib.org/</dc:title>
     </cc:Agent>
    </dc:creator>
   </cc:Work>
  </rdf:RDF>
 </metadata>
 <defs>
  <style type="text/css">*{stroke-linejoin: round; stroke-linecap: butt}</style>
 </defs>
 <g id="figure_1">
  <g id="patch_1">
   <path d="M 0 309.639375 
L 398.168 309.639375 
L 398.168 0 
L 0 0 
z
" style="fill: #ffffff"/>
  </g>
  <g id="axes_1">
   <g id="patch_2">
    <path d="M 27.732 273.312 
L 384.852 273.312 
L 384.852 7.2 
L 27.732 7.2 
z
" style="fill: #ffffff"/>
   </g>
   <g id="matplotlib.axis_1">
    <g id="xtick_1">
     <g id="line2d_1">
      <defs>
       <path id="mf02c0bd22e" d="M 0 0 
L 0 4.8 
" style="stroke: #262626"/>
      </defs>
      <g>
       <use xlink:href="#mf02c0bd22e" x="27.732" y="273.312" style="fill: #262626; stroke: #262626"/>
      </g>
     </g>
     <g id="text_1">
      <!-- 0.0 -->
      <g style="fill: #262626" transform="translate(21.616 287.910875) scale(0.088 -0.088)">
       <defs>
        <path id="ArialMT-30" d="M 266 2259 
Q 266 3072 433 3567 
Q 600 4063 929 4331 
Q 1259 4600 1759 4600 
Q 2128 4600 2406 4451 
Q 2684 4303 2865 4023 
Q 3047 3744 3150 3342 
Q 3253 2941 3253 2259 
Q 3253 1453 3087 958 
Q 2922 463 2592 192 
Q 2263 -78 1759 -78 
Q 1097 -78 719 397 
Q 266 969 266 2259 
z
M 844 2259 
Q 844 1131 1108 757 
Q 1372 384 1759 384 
Q 2147 384 2411 759 
Q 2675 1134 2675 2259 
Q 2675 3391 2411 3762 
Q 2147 4134 1753 4134 
Q 1366 4134 1134 3806 
Q 844 3388 844 2259 
z
" transform="scale(0.015625)"/>
        <path id="ArialMT-2e" d="M 581 0 
L 581 641 
L 1222 641 
L 1222 0 
L 581 0 
z
" transform="scale(0.015625)"/>
       </defs>
       <use xlink:href="#ArialMT-30"/>
       <use xlink:href="#ArialMT-2e" x="55.615234"/>
       <use xlink:href="#ArialMT-30" x="83.398438"/>
      </g>
     </g>
    </g>
    <g id="xtick_2">
     <g id="line2d_2">
      <g>
       <use xlink:href="#mf02c0bd22e" x="99.156" y="273.312" style="fill: #262626; stroke: #262626"/>
      </g>
     </g>
     <g id="text_2">
      <!-- 0.2 -->
      <g style="fill: #262626" transform="translate(93.04 287.910875) scale(0.088 -0.088)">
       <defs>
        <path id="ArialMT-32" d="M 3222 541 
L 3222 0 
L 194 0 
Q 188 203 259 391 
Q 375 700 629 1000 
Q 884 1300 1366 1694 
Q 2113 2306 2375 2664 
Q 2638 3022 2638 3341 
Q 2638 3675 2398 3904 
Q 2159 4134 1775 4134 
Q 1369 4134 1125 3890 
Q 881 3647 878 3216 
L 300 3275 
Q 359 3922 746 4261 
Q 1134 4600 1788 4600 
Q 2447 4600 2831 4234 
Q 3216 3869 3216 3328 
Q 3216 3053 3103 2787 
Q 2991 2522 2730 2228 
Q 2469 1934 1863 1422 
Q 1356 997 1212 845 
Q 1069 694 975 541 
L 3222 541 
z
" transform="scale(0.015625)"/>
       </defs>
       <use xlink:href="#ArialMT-30"/>
       <use xlink:href="#ArialMT-2e" x="55.615234"/>
       <use xlink:href="#ArialMT-32" x="83.398438"/>
      </g>
     </g>
    </g>
    <g id="xtick_3">
     <g id="line2d_3">
      <g>
       <use xlink:href="#mf02c0bd22e" x="170.58" y="273.312" style="fill: #262626; stroke: #262626"/>
      </g>
     </g>
     <g id="text_3">
      <!-- 0.4 -->
      <g style="fill: #262626" transform="translate(164.464 287.910875) scale(0.088 -0.088)">
       <defs>
        <path id="ArialMT-34" d="M 2069 0 
L 2069 1097 
L 81 1097 
L 81 1613 
L 2172 4581 
L 2631 4581 
L 2631 1613 
L 3250 1613 
L 3250 1097 
L 2631 1097 
L 2631 0 
L 2069 0 
z
M 2069 1613 
L 2069 3678 
L 634 1613 
L 2069 1613 
z
" transform="scale(0.015625)"/>
       </defs>
       <use xlink:href="#ArialMT-30"/>
       <use xlink:href="#ArialMT-2e" x="55.615234"/>
       <use xlink:href="#ArialMT-34" x="83.398438"/>
      </g>
     </g>
    </g>
    <g id="xtick_4">
     <g id="line2d_4">
      <g>
       <use xlink:href="#mf02c0bd22e" x="242.004" y="273.312" style="fill: #262626; stroke: #262626"/>
      </g>
     </g>
     <g id="text_4">
      <!-- 0.6 -->
      <g style="fill: #262626" transform="translate(235.888 287.910875) scale(0.088 -0.088)">
       <defs>
        <path id="ArialMT-36" d="M 3184 3459 
L 2625 3416 
Q 2550 3747 2413 3897 
Q 2184 4138 1850 4138 
Q 1581 4138 1378 3988 
Q 1113 3794 959 3422 
Q 806 3050 800 2363 
Q 1003 2672 1297 2822 
Q 1591 2972 1913 2972 
Q 2475 2972 2870 2558 
Q 3266 2144 3266 1488 
Q 3266 1056 3080 686 
Q 2894 316 2569 119 
Q 2244 -78 1831 -78 
Q 1128 -78 684 439 
Q 241 956 241 2144 
Q 241 3472 731 4075 
Q 1159 4600 1884 4600 
Q 2425 4600 2770 4297 
Q 3116 3994 3184 3459 
z
M 888 1484 
Q 888 1194 1011 928 
Q 1134 663 1356 523 
Q 1578 384 1822 384 
Q 2178 384 2434 671 
Q 2691 959 2691 1453 
Q 2691 1928 2437 2201 
Q 2184 2475 1800 2475 
Q 1419 2475 1153 2201 
Q 888 1928 888 1484 
z
" transform="scale(0.015625)"/>
       </defs>
       <use xlink:href="#ArialMT-30"/>
       <use xlink:href="#ArialMT-2e" x="55.615234"/>
       <use xlink:href="#ArialMT-36" x="83.398438"/>
      </g>
     </g>
    </g>
    <g id="xtick_5">
     <g id="line2d_5">
      <g>
       <use xlink:href="#mf02c0bd22e" x="313.428" y="273.312" style="fill: #262626; stroke: #262626"/>
      </g>
     </g>
     <g id="text_5">
      <!-- 0.8 -->
      <g style="fill: #262626" transform="translate(307.312 287.910875) scale(0.088 -0.088)">
       <defs>
        <path id="ArialMT-38" d="M 1131 2484 
Q 781 2613 612 2850 
Q 444 3088 444 3419 
Q 444 3919 803 4259 
Q 1163 4600 1759 4600 
Q 2359 4600 2725 4251 
Q 3091 3903 3091 3403 
Q 3091 3084 2923 2848 
Q 2756 2613 2416 2484 
Q 2838 2347 3058 2040 
Q 3278 1734 3278 1309 
Q 3278 722 2862 322 
Q 2447 -78 1769 -78 
Q 1091 -78 675 323 
Q 259 725 259 1325 
Q 259 1772 486 2073 
Q 713 2375 1131 2484 
z
M 1019 3438 
Q 1019 3113 1228 2906 
Q 1438 2700 1772 2700 
Q 2097 2700 2305 2904 
Q 2513 3109 2513 3406 
Q 2513 3716 2298 3927 
Q 2084 4138 1766 4138 
Q 1444 4138 1231 3931 
Q 1019 3725 1019 3438 
z
M 838 1322 
Q 838 1081 952 856 
Q 1066 631 1291 507 
Q 1516 384 1775 384 
Q 2178 384 2440 643 
Q 2703 903 2703 1303 
Q 2703 1709 2433 1975 
Q 2163 2241 1756 2241 
Q 1359 2241 1098 1978 
Q 838 1716 838 1322 
z
" transform="scale(0.015625)"/>
       </defs>
       <use xlink:href="#ArialMT-30"/>
       <use xlink:href="#ArialMT-2e" x="55.615234"/>
       <use xlink:href="#ArialMT-38" x="83.398438"/>
      </g>
     </g>
    </g>
    <g id="xtick_6">
     <g id="line2d_6">
      <g>
       <use xlink:href="#mf02c0bd22e" x="384.852" y="273.312" style="fill: #262626; stroke: #262626"/>
      </g>
     </g>
     <g id="text_6">
      <!-- 1.0 -->
      <g style="fill: #262626" transform="translate(378.736 287.910875) scale(0.088 -0.088)">
       <defs>
        <path id="ArialMT-31" d="M 2384 0 
L 1822 0 
L 1822 3584 
Q 1619 3391 1289 3197 
Q 959 3003 697 2906 
L 697 3450 
Q 1169 3672 1522 3987 
Q 1875 4303 2022 4600 
L 2384 4600 
L 2384 0 
z
" transform="scale(0.015625)"/>
       </defs>
       <use xlink:href="#ArialMT-31"/>
       <use xlink:href="#ArialMT-2e" x="55.615234"/>
       <use xlink:href="#ArialMT-30" x="83.398438"/>
      </g>
     </g>
    </g>
    <g id="text_7">
     <!-- x -->
     <g style="fill: #262626" transform="translate(203.892 300.531375) scale(0.096 -0.096)">
      <defs>
       <path id="ArialMT-78" d="M 47 0 
L 1259 1725 
L 138 3319 
L 841 3319 
L 1350 2541 
Q 1494 2319 1581 2169 
Q 1719 2375 1834 2534 
L 2394 3319 
L 3066 3319 
L 1919 1756 
L 3153 0 
L 2463 0 
L 1781 1031 
L 1600 1309 
L 728 0 
L 47 0 
z
" transform="scale(0.015625)"/>
      </defs>
      <use xlink:href="#ArialMT-78"/>
     </g>
    </g>
   </g>
   <g id="matplotlib.axis_2">
    <g id="ytick_1">
     <g id="line2d_7">
      <defs>
       <path id="mc7643c679d" d="M 0 0 
L -4.8 0 
" style="stroke: #262626"/>
      </defs>
      <g>
       <use xlink:href="#mc7643c679d" x="27.732" y="251.136" style="fill: #262626; stroke: #262626"/>
      </g>
     </g>
     <g id="text_8">
      <!-- 0.0 -->
      <g style="fill: #262626" transform="translate(7.2 254.285437) scale(0.088 -0.088)">
       <use xlink:href="#ArialMT-30"/>
       <use xlink:href="#ArialMT-2e" x="55.615234"/>
       <use xlink:href="#ArialMT-30" x="83.398438"/>
      </g>
     </g>
    </g>
    <g id="ytick_2">
     <g id="line2d_8">
      <g>
       <use xlink:href="#mc7643c679d" x="27.732" y="206.784" style="fill: #262626; stroke: #262626"/>
      </g>
     </g>
     <g id="text_9">
      <!-- 0.2 -->
      <g style="fill: #262626" transform="translate(7.2 209.933437) scale(0.088 -0.088)">
       <use xlink:href="#ArialMT-30"/>
       <use xlink:href="#ArialMT-2e" x="55.615234"/>
       <use xlink:href="#ArialMT-32" x="83.398438"/>
      </g>
     </g>
    </g>
    <g id="ytick_3">
     <g id="line2d_9">
      <g>
       <use xlink:href="#mc7643c679d" x="27.732" y="162.432" style="fill: #262626; stroke: #262626"/>
      </g>
     </g>
     <g id="text_10">
      <!-- 0.4 -->
      <g style="fill: #262626" transform="translate(7.2 165.581437) scale(0.088 -0.088)">
       <use xlink:href="#ArialMT-30"/>
       <use xlink:href="#ArialMT-2e" x="55.615234"/>
       <use xlink:href="#ArialMT-34" x="83.398438"/>
      </g>
     </g>
    </g>
    <g id="ytick_4">
     <g id="line2d_10">
      <g>
       <use xlink:href="#mc7643c679d" x="27.732" y="118.08" style="fill: #262626; stroke: #262626"/>
      </g>
     </g>
     <g id="text_11">
      <!-- 0.6 -->
      <g style="fill: #262626" transform="translate(7.2 121.229437) scale(0.088 -0.088)">
       <use xlink:href="#ArialMT-30"/>
       <use xlink:href="#ArialMT-2e" x="55.615234"/>
       <use xlink:href="#ArialMT-36" x="83.398438"/>
      </g>
     </g>
    </g>
    <g id="ytick_5">
     <g id="line2d_11">
      <g>
       <use xlink:href="#mc7643c679d" x="27.732" y="73.728" style="fill: #262626; stroke: #262626"/>
      </g>
     </g>
     <g id="text_12">
      <!-- 0.8 -->
      <g style="fill: #262626" transform="translate(7.2 76.877437) scale(0.088 -0.088)">
       <use xlink:href="#ArialMT-30"/>
       <use xlink:href="#ArialMT-2e" x="55.615234"/>
       <use xlink:href="#ArialMT-38" x="83.398438"/>
      </g>
     </g>
    </g>
    <g id="ytick_6">
     <g id="line2d_12">
      <g>
       <use xlink:href="#mc7643c679d" x="27.732" y="29.376" style="fill: #262626; stroke: #262626"/>
      </g>
     </g>
     <g id="text_13">
      <!-- 1.0 -->
      <g style="fill: #262626" transform="translate(7.2 32.525437) scale(0.088 -0.088)">
       <use xlink:href="#ArialMT-31"/>
       <use xlink:href="#ArialMT-2e" x="55.615234"/>
       <use xlink:href="#ArialMT-30" x="83.398438"/>
      </g>
     </g>
    </g>
   </g>
   <g id="patch_3">
    <path d="M 27.732 273.312 
L 29.274714 273.312 
L 29.274714 251.136 
L 27.732 251.136 
z
" clip-path="url(#p6856af2c1b)" style="fill: #ff7f0e; stroke: #ff7f0e; stroke-width: 0.8; stroke-linejoin: miter"/>
   </g>
   <g id="patch_4">
    <path d="M 29.274714 273.312 
L 34.554363 273.312 
L 34.554363 251.136 
L 29.274714 251.136 
z
" clip-path="url(#p6856af2c1b)" style="fill: #ff7f0e; stroke: #ff7f0e; stroke-width: 0.8; stroke-linejoin: miter"/>
   </g>
   <g id="patch_5">
    <path d="M 34.554363 273.312 
L 35.285868 273.312 
L 35.285868 251.136 
L 34.554363 251.136 
z
" clip-path="url(#p6856af2c1b)" style="fill: #ff7f0e; stroke: #ff7f0e; stroke-width: 0.8; stroke-linejoin: miter"/>
   </g>
   <g id="patch_6">
    <path d="M 35.285868 273.312 
L 44.317474 273.312 
L 44.317474 251.136 
L 35.285868 251.136 
z
" clip-path="url(#p6856af2c1b)" style="fill: #1f77b4; stroke: #1f77b4; stroke-width: 0.8; stroke-linejoin: miter"/>
   </g>
   <g id="patch_7">
    <path d="M 44.317474 273.312 
L 52.565359 273.312 
L 52.565359 251.136 
L 44.317474 251.136 
z
" clip-path="url(#p6856af2c1b)" style="fill: #1f77b4; stroke: #1f77b4; stroke-width: 0.8; stroke-linejoin: miter"/>
   </g>
   <g id="patch_8">
    <path d="M 52.565359 273.312 
L 60.793375 273.312 
L 60.793375 251.136 
L 52.565359 251.136 
z
" clip-path="url(#p6856af2c1b)" style="fill: #1f77b4; stroke: #1f77b4; stroke-width: 0.8; stroke-linejoin: miter"/>
   </g>
   <g id="patch_9">
    <path d="M 60.793375 273.312 
L 62.606582 273.312 
L 62.606582 251.136 
L 60.793375 251.136 
z
" clip-path="url(#p6856af2c1b)" style="fill: #ff7f0e; stroke: #ff7f0e; stroke-width: 0.8; stroke-linejoin: miter"/>
   </g>
   <g id="patch_10">
    <path d="M 62.606582 273.312 
L 65.384309 273.312 
L 65.384309 251.136 
L 62.606582 251.136 
z
" clip-path="url(#p6856af2c1b)" style="fill: #1f77b4; stroke: #1f77b4; stroke-width: 0.8; stroke-linejoin: miter"/>
   </g>
   <g id="patch_11">
    <path d="M 65.384309 273.312 
L 70.015932 273.312 
L 70.015932 251.136 
L 65.384309 251.136 
z
" clip-path="url(#p6856af2c1b)" style="fill: #ff7f0e; stroke: #ff7f0e; stroke-width: 0.8; stroke-linejoin: miter"/>
   </g>
   <g id="patch_12">
    <path d="M 70.015932 273.312 
L 72.899975 273.312 
L 72.899975 251.136 
L 70.015932 251.136 
z
" clip-path="url(#p6856af2c1b)" style="fill: #ff7f0e; stroke: #ff7f0e; stroke-width: 0.8; stroke-linejoin: miter"/>
   </g>
   <g id="patch_13">
    <path d="M 72.899975 273.312 
L 82.79507 273.312 
L 82.79507 251.136 
L 72.899975 251.136 
z
" clip-path="url(#p6856af2c1b)" style="fill: #ff7f0e; stroke: #ff7f0e; stroke-width: 0.8; stroke-linejoin: miter"/>
   </g>
   <g id="patch_14">
    <path d="M 82.79507 273.312 
L 86.149927 273.312 
L 86.149927 251.136 
L 82.79507 251.136 
z
" clip-path="url(#p6856af2c1b)" style="fill: #ff7f0e; stroke: #ff7f0e; stroke-width: 0.8; stroke-linejoin: miter"/>
   </g>
   <g id="patch_15">
    <path d="M 86.149927 273.312 
L 86.501274 273.312 
L 86.501274 251.136 
L 86.149927 251.136 
z
" clip-path="url(#p6856af2c1b)" style="fill: #1f77b4; stroke: #1f77b4; stroke-width: 0.8; stroke-linejoin: miter"/>
   </g>
   <g id="patch_16">
    <path d="M 86.501274 273.312 
L 88.557578 273.312 
L 88.557578 251.136 
L 86.501274 251.136 
z
" clip-path="url(#p6856af2c1b)" style="fill: #ff7f0e; stroke: #ff7f0e; stroke-width: 0.8; stroke-linejoin: miter"/>
   </g>
   <g id="patch_17">
    <path d="M 88.557578 273.312 
L 94.362426 273.312 
L 94.362426 251.136 
L 88.557578 251.136 
z
" clip-path="url(#p6856af2c1b)" style="fill: #ff7f0e; stroke: #ff7f0e; stroke-width: 0.8; stroke-linejoin: miter"/>
   </g>
   <g id="patch_18">
    <path d="M 94.362426 273.312 
L 95.97841 273.312 
L 95.97841 251.136 
L 94.362426 251.136 
z
" clip-path="url(#p6856af2c1b)" style="fill: #ff7f0e; stroke: #ff7f0e; stroke-width: 0.8; stroke-linejoin: miter"/>
   </g>
   <g id="patch_19">
    <path d="M 95.97841 273.312 
L 98.023712 273.312 
L 98.023712 251.136 
L 95.97841 251.136 
z
" clip-path="url(#p6856af2c1b)" style="fill: #1f77b4; stroke: #1f77b4; stroke-width: 0.8; stroke-linejoin: miter"/>
   </g>
   <g id="patch_20">
    <path d="M 98.023712 273.312 
L 107.58207 273.312 
L 107.58207 251.136 
L 98.023712 251.136 
z
" clip-path="url(#p6856af2c1b)" style="fill: #ff7f0e; stroke: #ff7f0e; stroke-width: 0.8; stroke-linejoin: miter"/>
   </g>
   <g id="patch_21">
    <path d="M 107.58207 273.312 
L 108.844674 273.312 
L 108.844674 251.136 
L 107.58207 251.136 
z
" clip-path="url(#p6856af2c1b)" style="fill: #ff7f0e; stroke: #ff7f0e; stroke-width: 0.8; stroke-linejoin: miter"/>
   </g>
   <g id="patch_22">
    <path d="M 108.844674 273.312 
L 123.501893 273.312 
L 123.501893 251.136 
L 108.844674 251.136 
z
" clip-path="url(#p6856af2c1b)" style="fill: #ff7f0e; stroke: #ff7f0e; stroke-width: 0.8; stroke-linejoin: miter"/>
   </g>
   <g id="patch_23">
    <path d="M 123.501893 273.312 
L 123.672424 273.312 
L 123.672424 251.136 
L 123.501893 251.136 
z
" clip-path="url(#p6856af2c1b)" style="fill: #ff7f0e; stroke: #ff7f0e; stroke-width: 0.8; stroke-linejoin: miter"/>
   </g>
   <g id="patch_24">
    <path d="M 123.672424 273.312 
L 129.305997 273.312 
L 129.305997 251.136 
L 123.672424 251.136 
z
" clip-path="url(#p6856af2c1b)" style="fill: #1f77b4; stroke: #1f77b4; stroke-width: 0.8; stroke-linejoin: miter"/>
   </g>
   <g id="patch_25">
    <path d="M 129.305997 273.312 
L 140.184175 273.312 
L 140.184175 251.136 
L 129.305997 251.136 
z
" clip-path="url(#p6856af2c1b)" style="fill: #ff7f0e; stroke: #ff7f0e; stroke-width: 0.8; stroke-linejoin: miter"/>
   </g>
   <g id="patch_26">
    <path d="M 140.184175 273.312 
L 143.197062 273.312 
L 143.197062 251.136 
L 140.184175 251.136 
z
" clip-path="url(#p6856af2c1b)" style="fill: #ff7f0e; stroke: #ff7f0e; stroke-width: 0.8; stroke-linejoin: miter"/>
   </g>
   <g id="patch_27">
    <path d="M 143.197062 273.312 
L 146.184199 273.312 
L 146.184199 251.136 
L 143.197062 251.136 
z
" clip-path="url(#p6856af2c1b)" style="fill: #1f77b4; stroke: #1f77b4; stroke-width: 0.8; stroke-linejoin: miter"/>
   </g>
   <g id="patch_28">
    <path d="M 146.184199 273.312 
L 146.851762 273.312 
L 146.851762 251.136 
L 146.184199 251.136 
z
" clip-path="url(#p6856af2c1b)" style="fill: #ff7f0e; stroke: #ff7f0e; stroke-width: 0.8; stroke-linejoin: miter"/>
   </g>
   <g id="patch_29">
    <path d="M 146.851762 273.312 
L 147.670543 273.312 
L 147.670543 251.136 
L 146.851762 251.136 
z
" clip-path="url(#p6856af2c1b)" style="fill: #1f77b4; stroke: #1f77b4; stroke-width: 0.8; stroke-linejoin: miter"/>
   </g>
   <g id="patch_30">
    <path d="M 147.670543 273.312 
L 147.717915 273.312 
L 147.717915 251.136 
L 147.670543 251.136 
z
" clip-path="url(#p6856af2c1b)" style="fill: #ff7f0e; stroke: #ff7f0e; stroke-width: 0.8; stroke-linejoin: miter"/>
   </g>
   <g id="patch_31">
    <path d="M 147.717915 273.312 
L 154.218768 273.312 
L 154.218768 251.136 
L 147.717915 251.136 
z
" clip-path="url(#p6856af2c1b)" style="fill: #ff7f0e; stroke: #ff7f0e; stroke-width: 0.8; stroke-linejoin: miter"/>
   </g>
   <g id="patch_32">
    <path d="M 154.218768 273.312 
L 155.300592 273.312 
L 155.300592 251.136 
L 154.218768 251.136 
z
" clip-path="url(#p6856af2c1b)" style="fill: #ff7f0e; stroke: #ff7f0e; stroke-width: 0.8; stroke-linejoin: miter"/>
   </g>
   <g id="patch_33">
    <path d="M 155.300592 273.312 
L 161.996573 273.312 
L 161.996573 251.136 
L 155.300592 251.136 
z
" clip-path="url(#p6856af2c1b)" style="fill: #ff7f0e; stroke: #ff7f0e; stroke-width: 0.8; stroke-linejoin: miter"/>
   </g>
   <g id="patch_34">
    <path d="M 161.996573 273.312 
L 163.193531 273.312 
L 163.193531 251.136 
L 161.996573 251.136 
z
" clip-path="url(#p6856af2c1b)" style="fill: #ff7f0e; stroke: #ff7f0e; stroke-width: 0.8; stroke-linejoin: miter"/>
   </g>
   <g id="patch_35">
    <path d="M 163.193531 273.312 
L 163.434131 273.312 
L 163.434131 251.136 
L 163.193531 251.136 
z
" clip-path="url(#p6856af2c1b)" style="fill: #1f77b4; stroke: #1f77b4; stroke-width: 0.8; stroke-linejoin: miter"/>
   </g>
   <g id="patch_36">
    <path d="M 163.434131 273.312 
L 166.35996 273.312 
L 166.35996 251.136 
L 163.434131 251.136 
z
" clip-path="url(#p6856af2c1b)" style="fill: #1f77b4; stroke: #1f77b4; stroke-width: 0.8; stroke-linejoin: miter"/>
   </g>
   <g id="patch_37">
    <path d="M 166.35996 273.312 
L 167.486336 273.312 
L 167.486336 251.136 
L 166.35996 251.136 
z
" clip-path="url(#p6856af2c1b)" style="fill: #ff7f0e; stroke: #ff7f0e; stroke-width: 0.8; stroke-linejoin: miter"/>
   </g>
   <g id="patch_38">
    <path d="M 167.486336 273.312 
L 177.986554 273.312 
L 177.986554 251.136 
L 167.486336 251.136 
z
" clip-path="url(#p6856af2c1b)" style="fill: #ff7f0e; stroke: #ff7f0e; stroke-width: 0.8; stroke-linejoin: miter"/>
   </g>
   <g id="patch_39">
    <path d="M 177.986554 273.312 
L 178.247973 273.312 
L 178.247973 251.136 
L 177.986554 251.136 
z
" clip-path="url(#p6856af2c1b)" style="fill: #1f77b4; stroke: #1f77b4; stroke-width: 0.8; stroke-linejoin: miter"/>
   </g>
   <g id="patch_40">
    <path d="M 178.247973 273.312 
L 182.56616 273.312 
L 182.56616 251.136 
L 178.247973 251.136 
z
" clip-path="url(#p6856af2c1b)" style="fill: #1f77b4; stroke: #1f77b4; stroke-width: 0.8; stroke-linejoin: miter"/>
   </g>
   <g id="patch_41">
    <path d="M 182.56616 273.312 
L 182.891738 273.312 
L 182.891738 251.136 
L 182.56616 251.136 
z
" clip-path="url(#p6856af2c1b)" style="fill: #1f77b4; stroke: #1f77b4; stroke-width: 0.8; stroke-linejoin: miter"/>
   </g>
   <g id="patch_42">
    <path d="M 182.891738 273.312 
L 185.542881 273.312 
L 185.542881 251.136 
L 182.891738 251.136 
z
" clip-path="url(#p6856af2c1b)" style="fill: #1f77b4; stroke: #1f77b4; stroke-width: 0.8; stroke-linejoin: miter"/>
   </g>
   <g id="patch_43">
    <path d="M 185.542881 273.312 
L 197.29553 273.312 
L 197.29553 251.136 
L 185.542881 251.136 
z
" clip-path="url(#p6856af2c1b)" style="fill: #1f77b4; stroke: #1f77b4; stroke-width: 0.8; stroke-linejoin: miter"/>
   </g>
   <g id="patch_44">
    <path d="M 197.29553 273.312 
L 203.383514 273.312 
L 203.383514 251.136 
L 197.29553 251.136 
z
" clip-path="url(#p6856af2c1b)" style="fill: #ff7f0e; stroke: #ff7f0e; stroke-width: 0.8; stroke-linejoin: miter"/>
   </g>
   <g id="patch_45">
    <path d="M 203.383514 273.312 
L 203.764803 273.312 
L 203.764803 251.136 
L 203.383514 251.136 
z
" clip-path="url(#p6856af2c1b)" style="fill: #ff7f0e; stroke: #ff7f0e; stroke-width: 0.8; stroke-linejoin: miter"/>
   </g>
   <g id="patch_46">
    <path d="M 203.764803 273.312 
L 209.579205 273.312 
L 209.579205 251.136 
L 203.764803 251.136 
z
" clip-path="url(#p6856af2c1b)" style="fill: #ff7f0e; stroke: #ff7f0e; stroke-width: 0.8; stroke-linejoin: miter"/>
   </g>
   <g id="patch_47">
    <path d="M 209.579205 273.312 
L 213.805874 273.312 
L 213.805874 251.136 
L 209.579205 251.136 
z
" clip-path="url(#p6856af2c1b)" style="fill: #ff7f0e; stroke: #ff7f0e; stroke-width: 0.8; stroke-linejoin: miter"/>
   </g>
   <g id="patch_48">
    <path d="M 213.805874 273.312 
L 214.160824 273.312 
L 214.160824 251.136 
L 213.805874 251.136 
z
" clip-path="url(#p6856af2c1b)" style="fill: #1f77b4; stroke: #1f77b4; stroke-width: 0.8; stroke-linejoin: miter"/>
   </g>
   <g id="patch_49">
    <path d="M 214.160824 273.312 
L 214.543535 273.312 
L 214.543535 251.136 
L 214.160824 251.136 
z
" clip-path="url(#p6856af2c1b)" style="fill: #1f77b4; stroke: #1f77b4; stroke-width: 0.8; stroke-linejoin: miter"/>
   </g>
   <g id="patch_50">
    <path d="M 214.543535 273.312 
L 217.996354 273.312 
L 217.996354 251.136 
L 214.543535 251.136 
z
" clip-path="url(#p6856af2c1b)" style="fill: #1f77b4; stroke: #1f77b4; stroke-width: 0.8; stroke-linejoin: miter"/>
   </g>
   <g id="patch_51">
    <path d="M 217.996354 273.312 
L 220.567087 273.312 
L 220.567087 251.136 
L 217.996354 251.136 
z
" clip-path="url(#p6856af2c1b)" style="fill: #ff7f0e; stroke: #ff7f0e; stroke-width: 0.8; stroke-linejoin: miter"/>
   </g>
   <g id="patch_52">
    <path d="M 220.567087 273.312 
L 226.012178 273.312 
L 226.012178 251.136 
L 220.567087 251.136 
z
" clip-path="url(#p6856af2c1b)" style="fill: #ff7f0e; stroke: #ff7f0e; stroke-width: 0.8; stroke-linejoin: miter"/>
   </g>
   <g id="patch_53">
    <path d="M 226.012178 273.312 
L 226.105656 273.312 
L 226.105656 251.136 
L 226.012178 251.136 
z
" clip-path="url(#p6856af2c1b)" style="fill: #ff7f0e; stroke: #ff7f0e; stroke-width: 0.8; stroke-linejoin: miter"/>
   </g>
   <g id="patch_54">
    <path d="M 226.105656 273.312 
L 243.588544 273.312 
L 243.588544 251.136 
L 226.105656 251.136 
z
" clip-path="url(#p6856af2c1b)" style="fill: #1f77b4; stroke: #1f77b4; stroke-width: 0.8; stroke-linejoin: miter"/>
   </g>
   <g id="patch_55">
    <path d="M 243.588544 273.312 
L 245.123441 273.312 
L 245.123441 251.136 
L 243.588544 251.136 
z
" clip-path="url(#p6856af2c1b)" style="fill: #ff7f0e; stroke: #ff7f0e; stroke-width: 0.8; stroke-linejoin: miter"/>
   </g>
   <g id="patch_56">
    <path d="M 245.123441 273.312 
L 245.852176 273.312 
L 245.852176 251.136 
L 245.123441 251.136 
z
" clip-path="url(#p6856af2c1b)" style="fill: #ff7f0e; stroke: #ff7f0e; stroke-width: 0.8; stroke-linejoin: miter"/>
   </g>
   <g id="patch_57">
    <path d="M 245.852176 273.312 
L 247.018914 273.312 
L 247.018914 251.136 
L 245.852176 251.136 
z
" clip-path="url(#p6856af2c1b)" style="fill: #ff7f0e; stroke: #ff7f0e; stroke-width: 0.8; stroke-linejoin: miter"/>
   </g>
   <g id="patch_58">
    <path d="M 247.018914 273.312 
L 251.224448 273.312 
L 251.224448 251.136 
L 247.018914 251.136 
z
" clip-path="url(#p6856af2c1b)" style="fill: #1f77b4; stroke: #1f77b4; stroke-width: 0.8; stroke-linejoin: miter"/>
   </g>
   <g id="patch_59">
    <path d="M 251.224448 273.312 
L 254.876646 273.312 
L 254.876646 251.136 
L 251.224448 251.136 
z
" clip-path="url(#p6856af2c1b)" style="fill: #ff7f0e; stroke: #ff7f0e; stroke-width: 0.8; stroke-linejoin: miter"/>
   </g>
   <g id="patch_60">
    <path d="M 254.876646 273.312 
L 255.249613 273.312 
L 255.249613 251.136 
L 254.876646 251.136 
z
" clip-path="url(#p6856af2c1b)" style="fill: #ff7f0e; stroke: #ff7f0e; stroke-width: 0.8; stroke-linejoin: miter"/>
   </g>
   <g id="patch_61">
    <path d="M 255.249613 273.312 
L 260.861818 273.312 
L 260.861818 251.136 
L 255.249613 251.136 
z
" clip-path="url(#p6856af2c1b)" style="fill: #1f77b4; stroke: #1f77b4; stroke-width: 0.8; stroke-linejoin: miter"/>
   </g>
   <g id="patch_62">
    <path d="M 260.861818 273.312 
L 262.342391 273.312 
L 262.342391 251.136 
L 260.861818 251.136 
z
" clip-path="url(#p6856af2c1b)" style="fill: #ff7f0e; stroke: #ff7f0e; stroke-width: 0.8; stroke-linejoin: miter"/>
   </g>
   <g id="patch_63">
    <path d="M 262.342391 273.312 
L 263.9824 273.312 
L 263.9824 251.136 
L 262.342391 251.136 
z
" clip-path="url(#p6856af2c1b)" style="fill: #1f77b4; stroke: #1f77b4; stroke-width: 0.8; stroke-linejoin: miter"/>
   </g>
   <g id="patch_64">
    <path d="M 263.9824 273.312 
L 266.774761 273.312 
L 266.774761 251.136 
L 263.9824 251.136 
z
" clip-path="url(#p6856af2c1b)" style="fill: #ff7f0e; stroke: #ff7f0e; stroke-width: 0.8; stroke-linejoin: miter"/>
   </g>
   <g id="patch_65">
    <path d="M 266.774761 273.312 
L 270.919836 273.312 
L 270.919836 251.136 
L 266.774761 251.136 
z
" clip-path="url(#p6856af2c1b)" style="fill: #ff7f0e; stroke: #ff7f0e; stroke-width: 0.8; stroke-linejoin: miter"/>
   </g>
   <g id="patch_66">
    <path d="M 270.919836 273.312 
L 271.870135 273.312 
L 271.870135 251.136 
L 270.919836 251.136 
z
" clip-path="url(#p6856af2c1b)" style="fill: #1f77b4; stroke: #1f77b4; stroke-width: 0.8; stroke-linejoin: miter"/>
   </g>
   <g id="patch_67">
    <path d="M 271.870135 273.312 
L 273.789668 273.312 
L 273.789668 251.136 
L 271.870135 251.136 
z
" clip-path="url(#p6856af2c1b)" style="fill: #ff7f0e; stroke: #ff7f0e; stroke-width: 0.8; stroke-linejoin: miter"/>
   </g>
   <g id="patch_68">
    <path d="M 273.789668 273.312 
L 283.190114 273.312 
L 283.190114 251.136 
L 273.789668 251.136 
z
" clip-path="url(#p6856af2c1b)" style="fill: #ff7f0e; stroke: #ff7f0e; stroke-width: 0.8; stroke-linejoin: miter"/>
   </g>
   <g id="patch_69">
    <path d="M 283.190114 273.312 
L 286.110038 273.312 
L 286.110038 251.136 
L 283.190114 251.136 
z
" clip-path="url(#p6856af2c1b)" style="fill: #ff7f0e; stroke: #ff7f0e; stroke-width: 0.8; stroke-linejoin: miter"/>
   </g>
   <g id="patch_70">
    <path d="M 286.110038 273.312 
L 289.326524 273.312 
L 289.326524 251.136 
L 286.110038 251.136 
z
" clip-path="url(#p6856af2c1b)" style="fill: #ff7f0e; stroke: #ff7f0e; stroke-width: 0.8; stroke-linejoin: miter"/>
   </g>
   <g id="patch_71">
    <path d="M 289.326524 273.312 
L 292.389091 273.312 
L 292.389091 251.136 
L 289.326524 251.136 
z
" clip-path="url(#p6856af2c1b)" style="fill: #ff7f0e; stroke: #ff7f0e; stroke-width: 0.8; stroke-linejoin: miter"/>
   </g>
   <g id="patch_72">
    <path d="M 292.389091 273.312 
L 293.913615 273.312 
L 293.913615 251.136 
L 292.389091 251.136 
z
" clip-path="url(#p6856af2c1b)" style="fill: #ff7f0e; stroke: #ff7f0e; stroke-width: 0.8; stroke-linejoin: miter"/>
   </g>
   <g id="patch_73">
    <path d="M 293.913615 273.312 
L 305.97188 273.312 
L 305.97188 251.136 
L 293.913615 251.136 
z
" clip-path="url(#p6856af2c1b)" style="fill: #ff7f0e; stroke: #ff7f0e; stroke-width: 0.8; stroke-linejoin: miter"/>
   </g>
   <g id="patch_74">
    <path d="M 305.97188 273.312 
L 308.901855 273.312 
L 308.901855 251.136 
L 305.97188 251.136 
z
" clip-path="url(#p6856af2c1b)" style="fill: #ff7f0e; stroke: #ff7f0e; stroke-width: 0.8; stroke-linejoin: miter"/>
   </g>
   <g id="patch_75">
    <path d="M 308.901855 273.312 
L 309.367018 273.312 
L 309.367018 251.136 
L 308.901855 251.136 
z
" clip-path="url(#p6856af2c1b)" style="fill: #ff7f0e; stroke: #ff7f0e; stroke-width: 0.8; stroke-linejoin: miter"/>
   </g>
   <g id="patch_76">
    <path d="M 309.367018 273.312 
L 314.323003 273.312 
L 314.323003 251.136 
L 309.367018 251.136 
z
" clip-path="url(#p6856af2c1b)" style="fill: #ff7f0e; stroke: #ff7f0e; stroke-width: 0.8; stroke-linejoin: miter"/>
   </g>
   <g id="patch_77">
    <path d="M 314.323003 273.312 
L 316.415327 273.312 
L 316.415327 251.136 
L 314.323003 251.136 
z
" clip-path="url(#p6856af2c1b)" style="fill: #ff7f0e; stroke: #ff7f0e; stroke-width: 0.8; stroke-linejoin: miter"/>
   </g>
   <g id="patch_78">
    <path d="M 316.415327 273.312 
L 316.947144 273.312 
L 316.947144 251.136 
L 316.415327 251.136 
z
" clip-path="url(#p6856af2c1b)" style="fill: #ff7f0e; stroke: #ff7f0e; stroke-width: 0.8; stroke-linejoin: miter"/>
   </g>
   <g id="patch_79">
    <path d="M 316.947144 273.312 
L 324.826328 273.312 
L 324.826328 251.136 
L 316.947144 251.136 
z
" clip-path="url(#p6856af2c1b)" style="fill: #ff7f0e; stroke: #ff7f0e; stroke-width: 0.8; stroke-linejoin: miter"/>
   </g>
   <g id="patch_80">
    <path d="M 324.826328 273.312 
L 325.277156 273.312 
L 325.277156 251.136 
L 324.826328 251.136 
z
" clip-path="url(#p6856af2c1b)" style="fill: #1f77b4; stroke: #1f77b4; stroke-width: 0.8; stroke-linejoin: miter"/>
   </g>
   <g id="patch_81">
    <path d="M 325.277156 273.312 
L 332.421636 273.312 
L 332.421636 251.136 
L 325.277156 251.136 
z
" clip-path="url(#p6856af2c1b)" style="fill: #ff7f0e; stroke: #ff7f0e; stroke-width: 0.8; stroke-linejoin: miter"/>
   </g>
   <g id="patch_82">
    <path d="M 332.421636 273.312 
L 333.122667 273.312 
L 333.122667 251.136 
L 332.421636 251.136 
z
" clip-path="url(#p6856af2c1b)" style="fill: #ff7f0e; stroke: #ff7f0e; stroke-width: 0.8; stroke-linejoin: miter"/>
   </g>
   <g id="patch_83">
    <path d="M 333.122667 273.312 
L 335.580978 273.312 
L 335.580978 251.136 
L 333.122667 251.136 
z
" clip-path="url(#p6856af2c1b)" style="fill: #ff7f0e; stroke: #ff7f0e; stroke-width: 0.8; stroke-linejoin: miter"/>
   </g>
   <g id="patch_84">
    <path d="M 335.580978 273.312 
L 336.482359 273.312 
L 336.482359 251.136 
L 335.580978 251.136 
z
" clip-path="url(#p6856af2c1b)" style="fill: #1f77b4; stroke: #1f77b4; stroke-width: 0.8; stroke-linejoin: miter"/>
   </g>
   <g id="patch_85">
    <path d="M 336.482359 273.312 
L 339.68361 273.312 
L 339.68361 251.136 
L 336.482359 251.136 
z
" clip-path="url(#p6856af2c1b)" style="fill: #ff7f0e; stroke: #ff7f0e; stroke-width: 0.8; stroke-linejoin: miter"/>
   </g>
   <g id="patch_86">
    <path d="M 339.68361 273.312 
L 341.68816 273.312 
L 341.68816 251.136 
L 339.68361 251.136 
z
" clip-path="url(#p6856af2c1b)" style="fill: #ff7f0e; stroke: #ff7f0e; stroke-width: 0.8; stroke-linejoin: miter"/>
   </g>
   <g id="patch_87">
    <path d="M 341.68816 273.312 
L 349.826565 273.312 
L 349.826565 251.136 
L 341.68816 251.136 
z
" clip-path="url(#p6856af2c1b)" style="fill: #ff7f0e; stroke: #ff7f0e; stroke-width: 0.8; stroke-linejoin: miter"/>
   </g>
   <g id="patch_88">
    <path d="M 349.826565 273.312 
L 350.672496 273.312 
L 350.672496 251.136 
L 349.826565 251.136 
z
" clip-path="url(#p6856af2c1b)" style="fill: #ff7f0e; stroke: #ff7f0e; stroke-width: 0.8; stroke-linejoin: miter"/>
   </g>
   <g id="patch_89">
    <path d="M 350.672496 273.312 
L 352.808143 273.312 
L 352.808143 251.136 
L 350.672496 251.136 
z
" clip-path="url(#p6856af2c1b)" style="fill: #ff7f0e; stroke: #ff7f0e; stroke-width: 0.8; stroke-linejoin: miter"/>
   </g>
   <g id="patch_90">
    <path d="M 352.808143 273.312 
L 357.490388 273.312 
L 357.490388 251.136 
L 352.808143 251.136 
z
" clip-path="url(#p6856af2c1b)" style="fill: #1f77b4; stroke: #1f77b4; stroke-width: 0.8; stroke-linejoin: miter"/>
   </g>
   <g id="patch_91">
    <path d="M 357.490388 273.312 
L 370.788887 273.312 
L 370.788887 251.136 
L 357.490388 251.136 
z
" clip-path="url(#p6856af2c1b)" style="fill: #1f77b4; stroke: #1f77b4; stroke-width: 0.8; stroke-linejoin: miter"/>
   </g>
   <g id="patch_92">
    <path d="M 370.788887 273.312 
L 382.722098 273.312 
L 382.722098 251.136 
L 370.788887 251.136 
z
" clip-path="url(#p6856af2c1b)" style="fill: #ff7f0e; stroke: #ff7f0e; stroke-width: 0.8; stroke-linejoin: miter"/>
   </g>
   <g id="patch_93">
    <path d="M 382.722098 273.312 
L 384.852 273.312 
L 384.852 251.136 
L 382.722098 251.136 
z
" clip-path="url(#p6856af2c1b)" style="fill: #ff7f0e; stroke: #ff7f0e; stroke-width: 0.8; stroke-linejoin: miter"/>
   </g>
   <g id="patch_94">
    <path d="M 27.732 251.136 
L 27.732 29.376 
" style="fill: none; stroke: #262626; stroke-linejoin: miter; stroke-linecap: square"/>
   </g>
   <g id="patch_95">
    <path d="M 27.732 273.312 
L 384.852 273.312 
" style="fill: none; stroke: #262626; stroke-linejoin: miter; stroke-linecap: square"/>
   </g>
  </g>
 </g>
 <defs>
  <clipPath id="p6856af2c1b">
   <rect x="27.732" y="7.2" width="357.12" height="266.112"/>
  </clipPath>
 </defs>
</svg>