<?xml version="1.0" encoding="utf-8" standalone="no"?>
<!DOCTYPE svg PUBLIC "-//W3C//DTD SVG 1.1//EN"
  "http://www.w3.org/Graphics/SVG/1.1/DTD/svg11.dtd">
<svg xmlns:xlink="http://www.w3.org/1999/xlink" width="436.061375pt" height="322.510875pt" viewBox="0 0 436.061375 322.510875" xmlns="http://www.w3.org/2000/svg" version="1.1">
 <metadata>
  <rdf:RDF xmlns:dc="http://purl.org/dc/elements/1.1/" xmlns:cc="http://creativecommons.org/ns#" xmlns:rdf="http://www.w3.org/1999/02/22-rdf-syntax-ns#">
   <cc:Work>
    <dc:type rdf:resource="http://purl.org/dc/dcmitype/StillImage"/>
    <dc:date>2023-10-23T15:18:58.381642</dc:date>
    <dc:format>image/svg+xml</dc:format>
    <dc:creator>
     <cc:Agent>
      <dc:title>Matplotlib v3.8.0, https://matplotlib.org/</dc:title>
     </cc:Agent>
    </dc:creator>
   </cc:Work>
  </rdf:RDF>
 </metadata>
 <defs>
  <style type="text/css">*{stroke-linejoin: round; stroke-linecap: butt}</style>
 </defs>
 <g id="figure_1">
  <g id="patch_1">
   <path d="M 0 322.510875 
L 436.061375 322.510875 
L 436.061375 0 
L 0 0 
z
" style="fill: #ffffff"/>
  </g>
  <g id="axes_1">
   <g id="patch_2">
    <path d="M 38.312875 286.1835 
L 395.432875 286.1835 
L 395.432875 20.0715 
L 38.312875 20.0715 
z
" style="fill: #ffffff"/>
   </g>
   <g id="matplotlib.axis_1">
    <g id="xtick_1">
     <g id="line2d_1">
      <defs>
       <path id="mb503269160" d="M 0 0 
L 0 4.8 
" style="stroke: #262626"/>
      </defs>
      <g>
       <use xlink:href="#mb503269160" x="54.545602" y="286.1835" style="fill: #262626; stroke: #262626"/>
      </g>
     </g>
     <g id="text_1">
      <!-- 0.0 -->
      <g style="fill: #262626" transform="translate(48.429602 300.782375) scale(0.088 -0.088)">
       <defs>
        <path id="ArialMT-30" d="M 266 2259 
Q 266 3072 433 3567 
Q 600 4063 929 4331 
Q 1259 4600 1759 4600 
Q 2128 4600 2406 4451 
Q 2684 4303 2865 4023 
Q 3047 3744 3150 3342 
Q 3253 2941 3253 2259 
Q 3253 1453 3087 958 
Q 2922 463 2592 192 
Q 2263 -78 1759 -78 
Q 1097 -78 719 397 
Q 266 969 266 2259 
z
M 844 2259 
Q 844 1131 1108 757 
Q 1372 384 1759 384 
Q 2147 384 2411 759 
Q 2675 1134 2675 2259 
Q 2675 3391 2411 3762 
Q 2147 4134 1753 4134 
Q 1366 4134 1134 3806 
Q 844 3388 844 2259 
z
" transform="scale(0.015625)"/>
        <path id="ArialMT-2e" d="M 581 0 
L 581 641 
L 1222 641 
L 1222 0 
L 581 0 
z
" transform="scale(0.015625)"/>
       </defs>
       <use xlink:href="#ArialMT-30"/>
       <use xlink:href="#ArialMT-2e" x="55.615234"/>
       <use xlink:href="#ArialMT-30" x="83.398438"/>
      </g>
     </g>
    </g>
    <g id="xtick_2">
     <g id="line2d_2">
      <g>
       <use xlink:href="#mb503269160" x="119.476511" y="286.1835" style="fill: #262626; stroke: #262626"/>
      </g>
     </g>
     <g id="text_2">
      <!-- 0.2 -->
      <g style="fill: #262626" transform="translate(113.360511 300.782375) scale(0.088 -0.088)">
       <defs>
        <path id="ArialMT-32" d="M 3222 541 
L 3222 0 
L 194 0 
Q 188 203 259 391 
Q 375 700 629 1000 
Q 884 1300 1366 1694 
Q 2113 2306 2375 2664 
Q 2638 3022 2638 3341 
Q 2638 3675 2398 3904 
Q 2159 4134 1775 4134 
Q 1369 4134 1125 3890 
Q 881 3647 878 3216 
L 300 3275 
Q 359 3922 746 4261 
Q 1134 4600 1788 4600 
Q 2447 4600 2831 4234 
Q 3216 3869 3216 3328 
Q 3216 3053 3103 2787 
Q 2991 2522 2730 2228 
Q 2469 1934 1863 1422 
Q 1356 997 1212 845 
Q 1069 694 975 541 
L 3222 541 
z
" transform="scale(0.015625)"/>
       </defs>
       <use xlink:href="#ArialMT-30"/>
       <use xlink:href="#ArialMT-2e" x="55.615234"/>
       <use xlink:href="#ArialMT-32" x="83.398438"/>
      </g>
     </g>
    </g>
    <g id="xtick_3">
     <g id="line2d_3">
      <g>
       <use xlink:href="#mb503269160" x="184.40742" y="286.1835" style="fill: #262626; stroke: #262626"/>
      </g>
     </g>
     <g id="text_3">
      <!-- 0.4 -->
      <g style="fill: #262626" transform="translate(178.29142 300.782375) scale(0.088 -0.088)">
       <defs>
        <path id="ArialMT-34" d="M 2069 0 
L 2069 1097 
L 81 1097 
L 81 1613 
L 2172 4581 
L 2631 4581 
L 2631 1613 
L 3250 1613 
L 3250 1097 
L 2631 1097 
L 2631 0 
L 2069 0 
z
M 2069 1613 
L 2069 3678 
L 634 1613 
L 2069 1613 
z
" transform="scale(0.015625)"/>
       </defs>
       <use xlink:href="#ArialMT-30"/>
       <use xlink:href="#ArialMT-2e" x="55.615234"/>
       <use xlink:href="#ArialMT-34" x="83.398438"/>
      </g>
     </g>
    </g>
    <g id="xtick_4">
     <g id="line2d_4">
      <g>
       <use xlink:href="#mb503269160" x="249.33833" y="286.1835" style="fill: #262626; stroke: #262626"/>
      </g>
     </g>
     <g id="text_4">
      <!-- 0.6 -->
      <g style="fill: #262626" transform="translate(243.22233 300.782375) scale(0.088 -0.088)">
       <defs>
        <path id="ArialMT-36" d="M 3184 3459 
L 2625 3416 
Q 2550 3747 2413 3897 
Q 2184 4138 1850 4138 
Q 1581 4138 1378 3988 
Q 1113 3794 959 3422 
Q 806 3050 800 2363 
Q 1003 2672 1297 2822 
Q 1591 2972 1913 2972 
Q 2475 2972 2870 2558 
Q 3266 2144 3266 1488 
Q 3266 1056 3080 686 
Q 2894 316 2569 119 
Q 2244 -78 1831 -78 
Q 1128 -78 684 439 
Q 241 956 241 2144 
Q 241 3472 731 4075 
Q 1159 4600 1884 4600 
Q 2425 4600 2770 4297 
Q 3116 3994 3184 3459 
z
M 888 1484 
Q 888 1194 1011 928 
Q 1134 663 1356 523 
Q 1578 384 1822 384 
Q 2178 384 2434 671 
Q 2691 959 2691 1453 
Q 2691 1928 2437 2201 
Q 2184 2475 1800 2475 
Q 1419 2475 1153 2201 
Q 888 1928 888 1484 
z
" transform="scale(0.015625)"/>
       </defs>
       <use xlink:href="#ArialMT-30"/>
       <use xlink:href="#ArialMT-2e" x="55.615234"/>
       <use xlink:href="#ArialMT-36" x="83.398438"/>
      </g>
     </g>
    </g>
    <g id="xtick_5">
     <g id="line2d_5">
      <g>
       <use xlink:href="#mb503269160" x="314.269239" y="286.1835" style="fill: #262626; stroke: #262626"/>
      </g>
     </g>
     <g id="text_5">
      <!-- 0.8 -->
      <g style="fill: #262626" transform="translate(308.153239 300.782375) scale(0.088 -0.088)">
       <defs>
        <path id="ArialMT-38" d="M 1131 2484 
Q 781 2613 612 2850 
Q 444 3088 444 3419 
Q 444 3919 803 4259 
Q 1163 4600 1759 4600 
Q 2359 4600 2725 4251 
Q 3091 3903 3091 3403 
Q 3091 3084 2923 2848 
Q 2756 2613 2416 2484 
Q 2838 2347 3058 2040 
Q 3278 1734 3278 1309 
Q 3278 722 2862 322 
Q 2447 -78 1769 -78 
Q 1091 -78 675 323 
Q 259 725 259 1325 
Q 259 1772 486 2073 
Q 713 2375 1131 2484 
z
M 1019 3438 
Q 1019 3113 1228 2906 
Q 1438 2700 1772 2700 
Q 2097 2700 2305 2904 
Q 2513 3109 2513 3406 
Q 2513 3716 2298 3927 
Q 2084 4138 1766 4138 
Q 1444 4138 1231 3931 
Q 1019 3725 1019 3438 
z
M 838 1322 
Q 838 1081 952 856 
Q 1066 631 1291 507 
Q 1516 384 1775 384 
Q 2178 384 2440 643 
Q 2703 903 2703 1303 
Q 2703 1709 2433 1975 
Q 2163 2241 1756 2241 
Q 1359 2241 1098 1978 
Q 838 1716 838 1322 
z
" transform="scale(0.015625)"/>
       </defs>
       <use xlink:href="#ArialMT-30"/>
       <use xlink:href="#ArialMT-2e" x="55.615234"/>
       <use xlink:href="#ArialMT-38" x="83.398438"/>
      </g>
     </g>
    </g>
    <g id="xtick_6">
     <g id="line2d_6">
      <g>
       <use xlink:href="#mb503269160" x="379.200148" y="286.1835" style="fill: #262626; stroke: #262626"/>
      </g>
     </g>
     <g id="text_6">
      <!-- 1.0 -->
      <g style="fill: #262626" transform="translate(373.084148 300.782375) scale(0.088 -0.088)">
       <defs>
        <path id="ArialMT-31" d="M 2384 0 
L 1822 0 
L 1822 3584 
Q 1619 3391 1289 3197 
Q 959 3003 697 2906 
L 697 3450 
Q 1169 3672 1522 3987 
Q 1875 4303 2022 4600 
L 2384 4600 
L 2384 0 
z
" transform="scale(0.015625)"/>
       </defs>
       <use xlink:href="#ArialMT-31"/>
       <use xlink:href="#ArialMT-2e" x="55.615234"/>
       <use xlink:href="#ArialMT-30" x="83.398438"/>
      </g>
     </g>
    </g>
    <g id="text_7">
     <!-- $x$ -->
     <g style="fill: #262626" transform="translate(213.992875 313.402875) scale(0.096 -0.096)">
      <defs>
       <path id="DejaVuSans-Oblique-78" d="M 3841 3500 
L 2234 1784 
L 3219 0 
L 2559 0 
L 1819 1388 
L 531 0 
L -166 0 
L 1556 1844 
L 641 3500 
L 1300 3500 
L 1972 2234 
L 3144 3500 
L 3841 3500 
z
" transform="scale(0.015625)"/>
      </defs>
      <use xlink:href="#DejaVuSans-Oblique-78" transform="translate(0 0.3125)"/>
     </g>
    </g>
   </g>
   <g id="matplotlib.axis_2">
    <g id="ytick_1">
     <g id="line2d_7">
      <defs>
       <path id="md8261342bf" d="M 0 0 
L -4.8 0 
" style="stroke: #262626"/>
      </defs>
      <g>
       <use xlink:href="#md8261342bf" x="38.312875" y="274.15073" style="fill: #262626; stroke: #262626"/>
      </g>
     </g>
     <g id="text_8">
      <!-- −8 -->
      <g style="fill: #262626" transform="translate(19.9795 277.300168) scale(0.088 -0.088)">
       <defs>
        <path id="ArialMT-2212" d="M 3381 1997 
L 356 1997 
L 356 2522 
L 3381 2522 
L 3381 1997 
z
" transform="scale(0.015625)"/>
       </defs>
       <use xlink:href="#ArialMT-2212"/>
       <use xlink:href="#ArialMT-38" x="58.398438"/>
      </g>
     </g>
    </g>
    <g id="ytick_2">
     <g id="line2d_8">
      <g>
       <use xlink:href="#md8261342bf" x="38.312875" y="229.412902" style="fill: #262626; stroke: #262626"/>
      </g>
     </g>
     <g id="text_9">
      <!-- −6 -->
      <g style="fill: #262626" transform="translate(19.9795 232.562339) scale(0.088 -0.088)">
       <use xlink:href="#ArialMT-2212"/>
       <use xlink:href="#ArialMT-36" x="58.398438"/>
      </g>
     </g>
    </g>
    <g id="ytick_3">
     <g id="line2d_9">
      <g>
       <use xlink:href="#md8261342bf" x="38.312875" y="184.675073" style="fill: #262626; stroke: #262626"/>
      </g>
     </g>
     <g id="text_10">
      <!-- −4 -->
      <g style="fill: #262626" transform="translate(19.9795 187.824511) scale(0.088 -0.088)">
       <use xlink:href="#ArialMT-2212"/>
       <use xlink:href="#ArialMT-34" x="58.398438"/>
      </g>
     </g>
    </g>
    <g id="ytick_4">
     <g id="line2d_10">
      <g>
       <use xlink:href="#md8261342bf" x="38.312875" y="139.937245" style="fill: #262626; stroke: #262626"/>
      </g>
     </g>
     <g id="text_11">
      <!-- −2 -->
      <g style="fill: #262626" transform="translate(19.9795 143.086682) scale(0.088 -0.088)">
       <use xlink:href="#ArialMT-2212"/>
       <use xlink:href="#ArialMT-32" x="58.398438"/>
      </g>
     </g>
    </g>
    <g id="ytick_5">
     <g id="line2d_11">
      <g>
       <use xlink:href="#md8261342bf" x="38.312875" y="95.199417" style="fill: #262626; stroke: #262626"/>
      </g>
     </g>
     <g id="text_12">
      <!-- 0 -->
      <g style="fill: #262626" transform="translate(25.11925 98.348854) scale(0.088 -0.088)">
       <use xlink:href="#ArialMT-30"/>
      </g>
     </g>
    </g>
    <g id="ytick_6">
     <g id="line2d_12">
      <g>
       <use xlink:href="#md8261342bf" x="38.312875" y="50.461588" style="fill: #262626; stroke: #262626"/>
      </g>
     </g>
     <g id="text_13">
      <!-- 2 -->
      <g style="fill: #262626" transform="translate(25.11925 53.611026) scale(0.088 -0.088)">
       <use xlink:href="#ArialMT-32"/>
      </g>
     </g>
    </g>
    <g id="text_14">
     <!-- $y$ -->
     <g style="fill: #262626" transform="translate(13.9635 156.0075) rotate(-90) scale(0.096 -0.096)">
      <defs>
       <path id="DejaVuSans-Oblique-79" d="M 1588 -325 
Q 1188 -997 936 -1164 
Q 684 -1331 294 -1331 
L -159 -1331 
L -63 -850 
L 269 -850 
Q 509 -850 678 -719 
Q 847 -588 1056 -206 
L 1234 128 
L 459 3500 
L 1069 3500 
L 1650 819 
L 3256 3500 
L 3859 3500 
L 1588 -325 
z
" transform="scale(0.015625)"/>
      </defs>
      <use xlink:href="#DejaVuSans-Oblique-79" transform="translate(0 0.3125)"/>
     </g>
    </g>
   </g>
   <g id="PolyCollection_1">
    <defs>
     <path id="md19424d57e" d="M 54.545602 -290.343375 
L 54.545602 -141.326251 
L 57.824941 -143.237354 
L 61.10428 -145.478877 
L 64.383619 -148.066145 
L 67.662958 -151.009252 
L 70.942296 -154.312107 
L 74.221636 -157.971629 
L 77.500973 -161.97715 
L 80.780313 -166.309835 
L 84.059653 -170.94252 
L 87.33899 -175.839208 
L 90.61833 -180.955516 
L 93.89767 -186.238738 
L 97.177007 -191.628224 
L 100.456344 -197.056865 
L 103.735686 -202.451188 
L 107.015024 -207.732799 
L 110.294361 -212.82033 
L 113.573703 -217.627 
L 116.853041 -216.85412 
L 120.132378 -215.078037 
L 123.41172 -213.769274 
L 126.691057 -212.927636 
L 129.970395 -212.541689 
L 133.249737 -212.586851 
L 136.529069 -213.027513 
L 139.808412 -213.81592 
L 143.087754 -214.89348 
L 146.367086 -216.191725 
L 149.646428 -217.633573 
L 152.92577 -219.134411 
L 156.205103 -220.605398 
L 159.484445 -217.304256 
L 162.763787 -211.107949 
L 166.04312 -204.16126 
L 169.322462 -196.527626 
L 172.601804 -188.280154 
L 175.881137 -179.501556 
L 179.160479 -170.282285 
L 182.439821 -160.719836 
L 185.719153 -150.917873 
L 188.998496 -140.984577 
L 192.277838 -131.031793 
L 195.55717 -121.173704 
L 198.836512 -111.525529 
L 202.115855 -102.202326 
L 205.395187 -93.317849 
L 208.674529 -84.982966 
L 211.953871 -77.304659 
L 215.233204 -70.384494 
L 218.512556 -64.317401 
L 221.791879 -59.190373 
L 225.071221 -55.081053 
L 228.350563 -52.056604 
L 231.629886 -50.172461 
L 234.909247 -49.471193 
L 238.18857 -49.981438 
L 241.467912 -51.717148 
L 244.747254 -54.676724 
L 248.026597 -58.842555 
L 251.305939 -64.180925 
L 254.585262 -70.596327 
L 257.864623 -67.617904 
L 261.143946 -65.727735 
L 264.423288 -65.011544 
L 267.70263 -65.492073 
L 270.981953 -67.172969 
L 274.261315 -70.039161 
L 277.540637 -74.055994 
L 280.81998 -79.170158 
L 284.099322 -85.310241 
L 287.378664 -92.387244 
L 290.658006 -100.296423 
L 293.937329 -108.918572 
L 297.21669 -118.122142 
L 300.496013 -127.76444 
L 303.775355 -137.695443 
L 307.054697 -147.758752 
L 310.33402 -157.795245 
L 313.613382 -167.645409 
L 316.892705 -177.152383 
L 320.172047 -186.164482 
L 323.451389 -194.538345 
L 326.730731 -202.140937 
L 330.010073 -208.852991 
L 333.289396 -214.570566 
L 336.568738 -219.207711 
L 339.84808 -222.697762 
L 343.127423 -224.993322 
L 346.406765 -226.070164 
L 349.686088 -225.92783 
L 352.96543 -224.584945 
L 356.244772 -222.065898 
L 359.524114 -215.330544 
L 362.803456 -208.463093 
L 366.082798 -201.756701 
L 369.362141 -195.355061 
L 372.641463 -189.39675 
L 375.920806 -184.007939 
L 379.200148 -179.247181 
L 379.200148 -179.33666 
L 379.200148 -179.33666 
L 375.920806 -187.299169 
L 372.641463 -194.896742 
L 369.362141 -201.940559 
L 366.082798 -208.297983 
L 362.803456 -213.846648 
L 359.524114 -218.469437 
L 356.244772 -222.206754 
L 352.96543 -228.902818 
L 349.686088 -235.295881 
L 346.406765 -241.212747 
L 343.127423 -246.502533 
L 339.84808 -251.026418 
L 336.568738 -254.656754 
L 333.289396 -257.280906 
L 330.010073 -258.805716 
L 326.730731 -259.157865 
L 323.451389 -258.285674 
L 320.172047 -256.160221 
L 316.892705 -252.775997 
L 313.613382 -248.15036 
L 310.33402 -242.323285 
L 307.054697 -235.356537 
L 303.775355 -227.331703 
L 300.496013 -218.348851 
L 297.21669 -208.524463 
L 293.937329 -197.98822 
L 290.658006 -186.88196 
L 287.378664 -175.355138 
L 284.099322 -163.563596 
L 280.81998 -151.66578 
L 277.540637 -139.820763 
L 274.261315 -128.184907 
L 270.981953 -116.909829 
L 267.70263 -106.140068 
L 264.423288 -96.010692 
L 261.143946 -86.645857 
L 257.864623 -78.156814 
L 254.585262 -70.685797 
L 251.305939 -74.739204 
L 248.026597 -79.838841 
L 244.747254 -85.850885 
L 241.467912 -92.674637 
L 238.18857 -100.198176 
L 234.909247 -108.301119 
L 231.629886 -116.856774 
L 228.350563 -125.734339 
L 225.071221 -134.801562 
L 221.791879 -143.926985 
L 218.512556 -152.982208 
L 215.233204 -161.844595 
L 211.953871 -170.398746 
L 208.674529 -178.539246 
L 205.395187 -186.171906 
L 202.115855 -193.21555 
L 198.836512 -199.603326 
L 195.55717 -205.283635 
L 192.277838 -210.220751 
L 188.998496 -214.395333 
L 185.719153 -217.804258 
L 182.439821 -220.460382 
L 179.160479 -222.391809 
L 175.881137 -223.641034 
L 172.601804 -224.263375 
L 169.322462 -224.325599 
L 166.04312 -223.904359 
L 162.763787 -223.083563 
L 159.484445 -221.952994 
L 156.205103 -222.69794 
L 152.92577 -227.248449 
L 149.646428 -230.926271 
L 146.367086 -233.715645 
L 143.087754 -235.612399 
L 139.808412 -236.625204 
L 136.529069 -236.77497 
L 133.249737 -236.094137 
L 129.970395 -234.625996 
L 126.691057 -232.4244 
L 123.41172 -229.550981 
L 120.132378 -226.076052 
L 116.853041 -222.075549 
L 113.573703 -219.089368 
L 110.294361 -221.755851 
L 107.015024 -224.830303 
L 103.735686 -228.271533 
L 100.456344 -232.035218 
L 97.177007 -236.071465 
L 93.89767 -240.326986 
L 90.61833 -244.747064 
L 87.33899 -249.275875 
L 84.059653 -253.858856 
L 80.780313 -258.443719 
L 77.500973 -262.981341 
L 74.221636 -267.427145 
L 70.942296 -271.741291 
L 67.662958 -275.889528 
L 64.383619 -279.843408 
L 61.10428 -283.580421 
L 57.824941 -287.084049 
L 54.545602 -290.343375 
z
" style="stroke: #1f77b4; stroke-opacity: 0.5; stroke-width: 0.8"/>
    </defs>
    <g clip-path="url(#pbad712fcc5)">
     <use xlink:href="#md19424d57e" x="0" y="322.510875" style="fill: #1f77b4; fill-opacity: 0.5; stroke: #1f77b4; stroke-opacity: 0.5; stroke-width: 0.8"/>
    </g>
   </g>
   <g id="PolyCollection_2">
    <defs>
     <path id="m98f44af90e" d="M 54.545602 -141.326251 
L 54.545602 -141.326251 
L 57.824941 -143.237354 
L 61.10428 -145.478877 
L 64.383619 -148.066145 
L 67.662958 -151.009252 
L 70.942296 -154.312107 
L 74.221636 -157.971629 
L 77.500973 -161.97715 
L 80.780313 -166.309835 
L 84.059653 -170.94252 
L 87.33899 -175.839208 
L 90.61833 -180.955516 
L 93.89767 -186.238738 
L 97.177007 -191.628224 
L 100.456344 -197.056865 
L 103.735686 -202.451188 
L 107.015024 -207.732799 
L 110.294361 -212.82033 
L 113.573703 -217.627 
L 116.853041 -216.85412 
L 120.132378 -215.078037 
L 123.41172 -213.769274 
L 126.691057 -212.927636 
L 129.970395 -212.541689 
L 133.249737 -212.586851 
L 136.529069 -213.027513 
L 139.808412 -213.81592 
L 143.087754 -214.89348 
L 146.367086 -216.191725 
L 149.646428 -217.633573 
L 152.92577 -219.134411 
L 156.205103 -220.605398 
L 159.484445 -217.304256 
L 162.763787 -211.107949 
L 166.04312 -204.16126 
L 169.322462 -196.527626 
L 172.601804 -188.280154 
L 175.881137 -179.501556 
L 179.160479 -170.282285 
L 182.439821 -160.719836 
L 185.719153 -150.917873 
L 188.998496 -140.984577 
L 192.277838 -131.031793 
L 195.55717 -121.173704 
L 198.836512 -111.525529 
L 202.115855 -102.202326 
L 205.395187 -93.317849 
L 208.674529 -84.982966 
L 211.953871 -77.304659 
L 215.233204 -70.384494 
L 218.512556 -64.317401 
L 221.791879 -59.190373 
L 225.071221 -55.081053 
L 228.350563 -52.056604 
L 231.629886 -50.172461 
L 234.909247 -49.471193 
L 238.18857 -49.981438 
L 241.467912 -51.717148 
L 244.747254 -54.676724 
L 248.026597 -58.842555 
L 251.305939 -64.180925 
L 254.585262 -70.596327 
L 257.864623 -67.617904 
L 261.143946 -65.727735 
L 264.423288 -65.011544 
L 267.70263 -65.492073 
L 270.981953 -67.172969 
L 274.261315 -70.039161 
L 277.540637 -74.055994 
L 280.81998 -79.170158 
L 284.099322 -85.310241 
L 287.378664 -92.387244 
L 290.658006 -100.296423 
L 293.937329 -108.918572 
L 297.21669 -118.122142 
L 300.496013 -127.76444 
L 303.775355 -137.695443 
L 307.054697 -147.758752 
L 310.33402 -157.795245 
L 313.613382 -167.645409 
L 316.892705 -177.152383 
L 320.172047 -186.164482 
L 323.451389 -194.538345 
L 326.730731 -202.140937 
L 330.010073 -208.852991 
L 333.289396 -214.570566 
L 336.568738 -219.207711 
L 339.84808 -222.697762 
L 343.127423 -224.993322 
L 346.406765 -226.070164 
L 349.686088 -225.92783 
L 352.96543 -224.584945 
L 356.244772 -222.065898 
L 359.524114 -215.330544 
L 362.803456 -208.463093 
L 366.082798 -201.756701 
L 369.362141 -195.355061 
L 372.641463 -189.39675 
L 375.920806 -184.007939 
L 379.200148 -179.247181 
L 379.200148 -179.247181 
L 379.200148 -179.247181 
L 375.920806 -184.007939 
L 372.641463 -189.39675 
L 369.362141 -195.355061 
L 366.082798 -201.756701 
L 362.803456 -208.463093 
L 359.524114 -215.330544 
L 356.244772 -222.065898 
L 352.96543 -224.584945 
L 349.686088 -225.92783 
L 346.406765 -226.070164 
L 343.127423 -224.993322 
L 339.84808 -222.697762 
L 336.568738 -219.207711 
L 333.289396 -214.570566 
L 330.010073 -208.852991 
L 326.730731 -202.140937 
L 323.451389 -194.538345 
L 320.172047 -186.164482 
L 316.892705 -177.152383 
L 313.613382 -167.645409 
L 310.33402 -157.795245 
L 307.054697 -147.758752 
L 303.775355 -137.695443 
L 300.496013 -127.76444 
L 297.21669 -118.122142 
L 293.937329 -108.918572 
L 290.658006 -100.296423 
L 287.378664 -92.387244 
L 284.099322 -85.310241 
L 280.81998 -79.170158 
L 277.540637 -74.055994 
L 274.261315 -70.039161 
L 270.981953 -67.172969 
L 267.70263 -65.492073 
L 264.423288 -65.011544 
L 261.143946 -65.727735 
L 257.864623 -67.617904 
L 254.585262 -70.596327 
L 251.305939 -64.180925 
L 248.026597 -58.842555 
L 244.747254 -54.676724 
L 241.467912 -51.717148 
L 238.18857 -49.981438 
L 234.909247 -49.471193 
L 231.629886 -50.172461 
L 228.350563 -52.056604 
L 225.071221 -55.081053 
L 221.791879 -59.190373 
L 218.512556 -64.317401 
L 215.233204 -70.384494 
L 211.953871 -77.304659 
L 208.674529 -84.982966 
L 205.395187 -93.317849 
L 202.115855 -102.202326 
L 198.836512 -111.525529 
L 195.55717 -121.173704 
L 192.277838 -131.031793 
L 188.998496 -140.984577 
L 185.719153 -150.917873 
L 182.439821 -160.719836 
L 179.160479 -170.282285 
L 175.881137 -179.501556 
L 172.601804 -188.280154 
L 169.322462 -196.527626 
L 166.04312 -204.16126 
L 162.763787 -211.107949 
L 159.484445 -217.304256 
L 156.205103 -220.605398 
L 152.92577 -219.134411 
L 149.646428 -217.633573 
L 146.367086 -216.191725 
L 143.087754 -214.89348 
L 139.808412 -213.81592 
L 136.529069 -213.027513 
L 133.249737 -212.586851 
L 129.970395 -212.541689 
L 126.691057 -212.927636 
L 123.41172 -213.769274 
L 120.132378 -215.078037 
L 116.853041 -216.85412 
L 113.573703 -217.627 
L 110.294361 -212.82033 
L 107.015024 -207.732799 
L 103.735686 -202.451188 
L 100.456344 -197.056865 
L 97.177007 -191.628224 
L 93.89767 -186.238738 
L 90.61833 -180.955516 
L 87.33899 -175.839208 
L 84.059653 -170.94252 
L 80.780313 -166.309835 
L 77.500973 -161.97715 
L 74.221636 -157.971629 
L 70.942296 -154.312107 
L 67.662958 -151.009252 
L 64.383619 -148.066145 
L 61.10428 -145.478877 
L 57.824941 -143.237354 
L 54.545602 -141.326251 
z
" style="stroke: #ff7f0e; stroke-opacity: 0.5; stroke-width: 0.8"/>
    </defs>
    <g clip-path="url(#pbad712fcc5)">
     <use xlink:href="#m98f44af90e" x="0" y="322.510875" style="fill: #ff7f0e; fill-opacity: 0.5; stroke: #ff7f0e; stroke-opacity: 0.5; stroke-width: 0.8"/>
    </g>
   </g>
   <g id="PolyCollection_3">
    <defs>
     <path id="m3483b126ca" d="M 54.545602 -290.343375 
L 54.545602 -290.343375 
L 57.824941 -287.084049 
L 61.10428 -283.580421 
L 64.383619 -279.843408 
L 67.662958 -275.889528 
L 70.942296 -271.741291 
L 74.221636 -267.427145 
L 77.500973 -262.981341 
L 80.780313 -258.443719 
L 84.059653 -253.858856 
L 87.33899 -249.275875 
L 90.61833 -244.747064 
L 93.89767 -240.326986 
L 97.177007 -236.071465 
L 100.456344 -232.035218 
L 103.735686 -228.271533 
L 107.015024 -224.830303 
L 110.294361 -221.755851 
L 113.573703 -219.089368 
L 116.853041 -222.075549 
L 120.132378 -226.076052 
L 123.41172 -229.550981 
L 126.691057 -232.4244 
L 129.970395 -234.625996 
L 133.249737 -236.094137 
L 136.529069 -236.77497 
L 139.808412 -236.625204 
L 143.087754 -235.612399 
L 146.367086 -233.715645 
L 149.646428 -230.926271 
L 152.92577 -227.248449 
L 156.205103 -222.69794 
L 159.484445 -221.952994 
L 162.763787 -223.083563 
L 166.04312 -223.904359 
L 169.322462 -224.325599 
L 172.601804 -224.263375 
L 175.881137 -223.641034 
L 179.160479 -222.391809 
L 182.439821 -220.460382 
L 185.719153 -217.804258 
L 188.998496 -214.395333 
L 192.277838 -210.220751 
L 195.55717 -205.283635 
L 198.836512 -199.603326 
L 202.115855 -193.21555 
L 205.395187 -186.171906 
L 208.674529 -178.539246 
L 211.953871 -170.398746 
L 215.233204 -161.844595 
L 218.512556 -152.982208 
L 221.791879 -143.926985 
L 225.071221 -134.801562 
L 228.350563 -125.734339 
L 231.629886 -116.856774 
L 234.909247 -108.301119 
L 238.18857 -100.198176 
L 241.467912 -92.674637 
L 244.747254 -85.850885 
L 248.026597 -79.838841 
L 251.305939 -74.739204 
L 254.585262 -70.685797 
L 257.864623 -78.156814 
L 261.143946 -86.645857 
L 264.423288 -96.010692 
L 267.70263 -106.140068 
L 270.981953 -116.909829 
L 274.261315 -128.184907 
L 277.540637 -139.820763 
L 280.81998 -151.66578 
L 284.099322 -163.563596 
L 287.378664 -175.355138 
L 290.658006 -186.88196 
L 293.937329 -197.98822 
L 297.21669 -208.524463 
L 300.496013 -218.348851 
L 303.775355 -227.331703 
L 307.054697 -235.356537 
L 310.33402 -242.323285 
L 313.613382 -248.15036 
L 316.892705 -252.775997 
L 320.172047 -256.160221 
L 323.451389 -258.285674 
L 326.730731 -259.157865 
L 330.010073 -258.805716 
L 333.289396 -257.280906 
L 336.568738 -254.656754 
L 339.84808 -251.026418 
L 343.127423 -246.502533 
L 346.406765 -241.212747 
L 349.686088 -235.295881 
L 352.96543 -228.902818 
L 356.244772 -222.206754 
L 359.524114 -218.469437 
L 362.803456 -213.846648 
L 366.082798 -208.297983 
L 369.362141 -201.940559 
L 372.641463 -194.896742 
L 375.920806 -187.299169 
L 379.200148 -179.33666 
L 379.200148 -179.33666 
L 379.200148 -179.33666 
L 375.920806 -187.299169 
L 372.641463 -194.896742 
L 369.362141 -201.940559 
L 366.082798 -208.297983 
L 362.803456 -213.846648 
L 359.524114 -218.469437 
L 356.244772 -222.206754 
L 352.96543 -228.902818 
L 349.686088 -235.295881 
L 346.406765 -241.212747 
L 343.127423 -246.502533 
L 339.84808 -251.026418 
L 336.568738 -254.656754 
L 333.289396 -257.280906 
L 330.010073 -258.805716 
L 326.730731 -259.157865 
L 323.451389 -258.285674 
L 320.172047 -256.160221 
L 316.892705 -252.775997 
L 313.613382 -248.15036 
L 310.33402 -242.323285 
L 307.054697 -235.356537 
L 303.775355 -227.331703 
L 300.496013 -218.348851 
L 297.21669 -208.524463 
L 293.937329 -197.98822 
L 290.658006 -186.88196 
L 287.378664 -175.355138 
L 284.099322 -163.563596 
L 280.81998 -151.66578 
L 277.540637 -139.820763 
L 274.261315 -128.184907 
L 270.981953 -116.909829 
L 267.70263 -106.140068 
L 264.423288 -96.010692 
L 261.143946 -86.645857 
L 257.864623 -78.156814 
L 254.585262 -70.685797 
L 251.305939 -74.739204 
L 248.026597 -79.838841 
L 244.747254 -85.850885 
L 241.467912 -92.674637 
L 238.18857 -100.198176 
L 234.909247 -108.301119 
L 231.629886 -116.856774 
L 228.350563 -125.734339 
L 225.071221 -134.801562 
L 221.791879 -143.926985 
L 218.512556 -152.982208 
L 215.233204 -161.844595 
L 211.953871 -170.398746 
L 208.674529 -178.539246 
L 205.395187 -186.171906 
L 202.115855 -193.21555 
L 198.836512 -199.603326 
L 195.55717 -205.283635 
L 192.277838 -210.220751 
L 188.998496 -214.395333 
L 185.719153 -217.804258 
L 182.439821 -220.460382 
L 179.160479 -222.391809 
L 175.881137 -223.641034 
L 172.601804 -224.263375 
L 169.322462 -224.325599 
L 166.04312 -223.904359 
L 162.763787 -223.083563 
L 159.484445 -221.952994 
L 156.205103 -222.69794 
L 152.92577 -227.248449 
L 149.646428 -230.926271 
L 146.367086 -233.715645 
L 143.087754 -235.612399 
L 139.808412 -236.625204 
L 136.529069 -236.77497 
L 133.249737 -236.094137 
L 129.970395 -234.625996 
L 126.691057 -232.4244 
L 123.41172 -229.550981 
L 120.132378 -226.076052 
L 116.853041 -222.075549 
L 113.573703 -219.089368 
L 110.294361 -221.755851 
L 107.015024 -224.830303 
L 103.735686 -228.271533 
L 100.456344 -232.035218 
L 97.177007 -236.071465 
L 93.89767 -240.326986 
L 90.61833 -244.747064 
L 87.33899 -249.275875 
L 84.059653 -253.858856 
L 80.780313 -258.443719 
L 77.500973 -262.981341 
L 74.221636 -267.427145 
L 70.942296 -271.741291 
L 67.662958 -275.889528 
L 64.383619 -279.843408 
L 61.10428 -283.580421 
L 57.824941 -287.084049 
L 54.545602 -290.343375 
z
" style="stroke: #ff7f0e; stroke-opacity: 0.5; stroke-width: 0.8"/>
    </defs>
    <g clip-path="url(#pbad712fcc5)">
     <use xlink:href="#m3483b126ca" x="0" y="322.510875" style="fill: #ff7f0e; fill-opacity: 0.5; stroke: #ff7f0e; stroke-opacity: 0.5; stroke-width: 0.8"/>
    </g>
   </g>
   <g id="line2d_13">
    <defs>
     <path id="m377f865f04" d="M -5 5 
L 5 -5 
M -5 -5 
L 5 5 
" style="stroke: #000000; stroke-width: 2"/>
    </defs>
    <g clip-path="url(#pbad712fcc5)">
     <use xlink:href="#m377f865f04" x="356.349693" y="100.533088" style="stroke: #000000; stroke-width: 2"/>
     <use xlink:href="#m377f865f04" x="157.258364" y="101.4549" style="stroke: #000000; stroke-width: 2"/>
     <use xlink:href="#m377f865f04" x="114.255683" y="103.924594" style="stroke: #000000; stroke-width: 2"/>
     <use xlink:href="#m377f865f04" x="254.585262" y="251.86977" style="stroke: #000000; stroke-width: 2"/>
     <use xlink:href="#m377f865f04" x="379.200148" y="143.218821" style="stroke: #000000; stroke-width: 2"/>
    </g>
   </g>
   <g id="line2d_14">
    <path d="M 54.545602 106.676065 
L 57.824941 107.350174 
L 61.10428 107.981229 
L 64.383619 108.556101 
L 67.662958 109.061482 
L 70.942296 109.484176 
L 74.221636 109.811488 
L 77.500973 110.031628 
L 80.780313 110.134099 
L 84.059653 110.110188 
L 87.33899 109.953333 
L 90.61833 109.659586 
L 93.89767 109.228013 
L 97.177007 108.66103 
L 100.456344 107.964833 
L 103.735686 107.149515 
L 107.015024 106.229324 
L 110.294361 105.222785 
L 113.573703 104.152691 
L 116.853041 103.046041 
L 120.132378 101.93383 
L 123.41172 100.850747 
L 126.691057 99.834857 
L 129.970395 98.927032 
L 133.249737 98.170381 
L 136.529069 97.609634 
L 139.808412 97.290313 
L 143.087754 97.257936 
L 146.367086 97.55719 
L 149.646428 98.230953 
L 152.92577 99.319445 
L 156.205103 100.859206 
L 159.484445 102.88225 
L 162.763787 105.415119 
L 166.04312 108.478066 
L 169.322462 112.084263 
L 172.601804 116.239112 
L 175.881137 120.939579 
L 179.160479 126.173827 
L 182.439821 131.920768 
L 185.719153 138.149808 
L 188.998496 144.82092 
L 192.277838 151.884601 
L 195.55717 159.282207 
L 198.836512 166.94645 
L 202.115855 174.801935 
L 205.395187 182.765998 
L 208.674529 190.749772 
L 211.953871 198.659175 
L 215.233204 206.396328 
L 218.512556 213.861073 
L 221.791879 220.952198 
L 225.071221 227.569568 
L 228.350563 233.615403 
L 231.629886 238.996257 
L 234.909247 243.624719 
L 238.18857 247.421068 
L 241.467912 250.314982 
L 244.747254 252.24707 
L 248.026597 253.170177 
L 251.305939 253.05081 
L 254.585262 251.869813 
L 257.864623 249.623516 
L 261.143946 246.324079 
L 264.423288 241.999757 
L 267.70263 236.694805 
L 270.981953 230.469476 
L 274.261315 223.398841 
L 277.540637 215.572497 
L 280.81998 207.092903 
L 284.099322 198.073956 
L 287.378664 188.639684 
L 290.658006 178.921682 
L 293.937329 169.057476 
L 297.21669 159.18757 
L 300.496013 149.454229 
L 303.775355 139.997302 
L 307.054697 130.95323 
L 310.33402 122.451611 
L 313.613382 114.61299 
L 316.892705 107.546685 
L 320.172047 101.348524 
L 323.451389 96.098866 
L 326.730731 91.861474 
L 330.010073 88.681521 
L 333.289396 86.58514 
L 336.568738 85.578643 
L 339.84808 85.648785 
L 343.127423 86.762947 
L 346.406765 88.869419 
L 349.686088 91.89902 
L 352.96543 95.766993 
L 356.244772 100.374549 
L 359.524114 105.610885 
L 362.803456 111.356005 
L 366.082798 117.483534 
L 369.362141 123.863065 
L 372.641463 130.364129 
L 375.920806 136.857321 
L 379.200148 143.218955 
" clip-path="url(#pbad712fcc5)" style="fill: none; stroke: #1f77b4; stroke-width: 2; stroke-linecap: round"/>
   </g>
   <g id="line2d_15">
    <path d="M 54.545602 184.022347 
L 57.824941 178.563555 
L 61.10428 173.125017 
L 64.383619 167.726905 
L 67.662958 162.389314 
L 70.942296 157.132115 
L 74.221636 151.974987 
L 77.500973 146.937264 
L 80.780313 142.037893 
L 84.059653 137.295409 
L 87.33899 132.727804 
L 90.61833 128.352513 
L 93.89767 124.186335 
L 97.177007 120.245382 
L 100.456344 116.545003 
L 103.735686 113.099779 
L 107.015024 109.923421 
L 110.294361 107.028749 
L 113.573703 104.427632 
L 116.853041 102.130968 
L 120.132378 100.148642 
L 123.41172 98.489462 
L 126.691057 97.161163 
L 129.970395 96.170362 
L 133.249737 95.522526 
L 136.529069 95.221965 
L 139.808412 95.271809 
L 143.087754 95.673972 
L 146.367086 96.429164 
L 149.646428 97.536879 
L 152.92577 98.995366 
L 156.205103 100.801629 
L 159.484445 102.951465 
L 162.763787 105.439386 
L 166.04312 108.2587 
L 169.322462 111.401459 
L 172.601804 114.858486 
L 175.881137 118.619375 
L 179.160479 122.672484 
L 182.439821 127.005003 
L 185.719153 131.602842 
L 188.998496 136.450774 
L 192.277838 141.53232 
L 195.55717 146.82988 
L 198.836512 152.324619 
L 202.115855 157.996509 
L 205.395187 163.824362 
L 208.674529 169.785827 
L 211.953871 175.857315 
L 215.233204 182.014096 
L 218.512556 188.230236 
L 221.791879 194.478539 
L 225.071221 200.730683 
L 228.350563 206.957089 
L 231.629886 213.126793 
L 234.909247 219.207848 
L 238.18857 225.1667 
L 241.467912 230.968778 
L 244.747254 236.578051 
L 248.026597 241.95723 
L 251.305939 247.067778 
L 254.585262 251.86977 
L 257.864623 256.322142 
L 261.143946 260.382557 
L 264.423288 264.007627 
L 267.70263 267.152935 
L 270.981953 269.773322 
L 274.261315 271.822964 
L 277.540637 273.255782 
L 280.81998 274.025774 
L 284.099322 274.0875 
L 287.378664 273.396685 
L 290.658006 271.911014 
L 293.937329 269.591013 
L 297.21669 266.401066 
L 300.496013 262.311168 
L 303.775355 257.297887 
L 307.054697 251.346822 
L 310.33402 244.454687 
L 313.613382 236.631575 
L 316.892705 227.904373 
L 320.172047 218.319642 
L 323.451389 207.947404 
L 326.730731 196.885119 
L 330.010073 185.261657 
L 333.289396 173.241509 
L 336.568738 161.028824 
L 339.84808 148.870616 
L 343.127423 137.059453 
L 346.406765 125.934461 
L 349.686088 115.879542 
L 352.96543 107.31865 
L 356.244772 100.707179 
L 359.524114 96.516388 
L 362.803456 95.211816 
L 366.082798 97.22267 
L 369.362141 102.901776 
L 372.641463 112.47567 
L 375.920806 125.98511 
L 379.200148 143.218821 
" clip-path="url(#pbad712fcc5)" style="fill: none; stroke-dasharray: 7.68,1.92,1.2,1.92; stroke-dashoffset: 0; stroke: #bf00bf; stroke-width: 1.2"/>
   </g>
   <g id="patch_3">
    <path d="M 38.312875 274.15073 
L 38.312875 50.461588 
" style="fill: none; stroke: #262626; stroke-linejoin: miter; stroke-linecap: square"/>
   </g>
   <g id="patch_4">
    <path d="M 54.545602 286.1835 
L 379.200148 286.1835 
" style="fill: none; stroke: #262626; stroke-linejoin: miter; stroke-linecap: square"/>
   </g>
   <g id="text_15">
    <!-- N=1,  -->
    <g style="fill: #262626" transform="translate(205.266625 14.0715) scale(0.096 -0.096)">
     <defs>
      <path id="ArialMT-4e" d="M 488 0 
L 488 4581 
L 1109 4581 
L 3516 984 
L 3516 4581 
L 4097 4581 
L 4097 0 
L 3475 0 
L 1069 3600 
L 1069 0 
L 488 0 
z
" transform="scale(0.015625)"/>
      <path id="ArialMT-3d" d="M 3381 2694 
L 356 2694 
L 356 3219 
L 3381 3219 
L 3381 2694 
z
M 3381 1303 
L 356 1303 
L 356 1828 
L 3381 1828 
L 3381 1303 
z
" transform="scale(0.015625)"/>
      <path id="ArialMT-2c" d="M 569 0 
L 569 641 
L 1209 641 
L 1209 0 
Q 1209 -353 1084 -570 
Q 959 -788 688 -906 
L 531 -666 
Q 709 -588 793 -436 
Q 878 -284 888 0 
L 569 0 
z
" transform="scale(0.015625)"/>
      <path id="ArialMT-20" transform="scale(0.015625)"/>
     </defs>
     <use xlink:href="#ArialMT-4e"/>
     <use xlink:href="#ArialMT-3d" x="72.216797"/>
     <use xlink:href="#ArialMT-31" x="130.615234"/>
     <use xlink:href="#ArialMT-2c" x="186.230469"/>
     <use xlink:href="#ArialMT-20" x="214.013672"/>
    </g>
   </g>
   <g id="legend_1">
    <g id="line2d_16">
     <g>
      <use xlink:href="#m377f865f04" x="55.032875" y="31.210375" style="stroke: #000000; stroke-width: 2"/>
     </g>
    </g>
    <g id="text_16">
     <!-- Observations -->
     <g style="fill: #262626" transform="translate(70.872875 34.290375) scale(0.088 -0.088)">
      <defs>
       <path id="ArialMT-4f" d="M 309 2231 
Q 309 3372 921 4017 
Q 1534 4663 2503 4663 
Q 3138 4663 3647 4359 
Q 4156 4056 4423 3514 
Q 4691 2972 4691 2284 
Q 4691 1588 4409 1038 
Q 4128 488 3612 205 
Q 3097 -78 2500 -78 
Q 1853 -78 1343 234 
Q 834 547 571 1087 
Q 309 1628 309 2231 
z
M 934 2222 
Q 934 1394 1379 917 
Q 1825 441 2497 441 
Q 3181 441 3623 922 
Q 4066 1403 4066 2288 
Q 4066 2847 3877 3264 
Q 3688 3681 3323 3911 
Q 2959 4141 2506 4141 
Q 1863 4141 1398 3698 
Q 934 3256 934 2222 
z
" transform="scale(0.015625)"/>
       <path id="ArialMT-62" d="M 941 0 
L 419 0 
L 419 4581 
L 981 4581 
L 981 2947 
Q 1338 3394 1891 3394 
Q 2197 3394 2470 3270 
Q 2744 3147 2920 2923 
Q 3097 2700 3197 2384 
Q 3297 2069 3297 1709 
Q 3297 856 2875 390 
Q 2453 -75 1863 -75 
Q 1275 -75 941 416 
L 941 0 
z
M 934 1684 
Q 934 1088 1097 822 
Q 1363 388 1816 388 
Q 2184 388 2453 708 
Q 2722 1028 2722 1663 
Q 2722 2313 2464 2622 
Q 2206 2931 1841 2931 
Q 1472 2931 1203 2611 
Q 934 2291 934 1684 
z
" transform="scale(0.015625)"/>
       <path id="ArialMT-73" d="M 197 991 
L 753 1078 
Q 800 744 1014 566 
Q 1228 388 1613 388 
Q 2000 388 2187 545 
Q 2375 703 2375 916 
Q 2375 1106 2209 1216 
Q 2094 1291 1634 1406 
Q 1016 1563 777 1677 
Q 538 1791 414 1992 
Q 291 2194 291 2438 
Q 291 2659 392 2848 
Q 494 3038 669 3163 
Q 800 3259 1026 3326 
Q 1253 3394 1513 3394 
Q 1903 3394 2198 3281 
Q 2494 3169 2634 2976 
Q 2775 2784 2828 2463 
L 2278 2388 
Q 2241 2644 2061 2787 
Q 1881 2931 1553 2931 
Q 1166 2931 1000 2803 
Q 834 2675 834 2503 
Q 834 2394 903 2306 
Q 972 2216 1119 2156 
Q 1203 2125 1616 2013 
Q 2213 1853 2448 1751 
Q 2684 1650 2818 1456 
Q 2953 1263 2953 975 
Q 2953 694 2789 445 
Q 2625 197 2315 61 
Q 2006 -75 1616 -75 
Q 969 -75 630 194 
Q 291 463 197 991 
z
" transform="scale(0.015625)"/>
       <path id="ArialMT-65" d="M 2694 1069 
L 3275 997 
Q 3138 488 2766 206 
Q 2394 -75 1816 -75 
Q 1088 -75 661 373 
Q 234 822 234 1631 
Q 234 2469 665 2931 
Q 1097 3394 1784 3394 
Q 2450 3394 2872 2941 
Q 3294 2488 3294 1666 
Q 3294 1616 3291 1516 
L 816 1516 
Q 847 969 1125 678 
Q 1403 388 1819 388 
Q 2128 388 2347 550 
Q 2566 713 2694 1069 
z
M 847 1978 
L 2700 1978 
Q 2663 2397 2488 2606 
Q 2219 2931 1791 2931 
Q 1403 2931 1139 2672 
Q 875 2413 847 1978 
z
" transform="scale(0.015625)"/>
       <path id="ArialMT-72" d="M 416 0 
L 416 3319 
L 922 3319 
L 922 2816 
Q 1116 3169 1280 3281 
Q 1444 3394 1641 3394 
Q 1925 3394 2219 3213 
L 2025 2691 
Q 1819 2813 1613 2813 
Q 1428 2813 1281 2702 
Q 1134 2591 1072 2394 
Q 978 2094 978 1738 
L 978 0 
L 416 0 
z
" transform="scale(0.015625)"/>
       <path id="ArialMT-76" d="M 1344 0 
L 81 3319 
L 675 3319 
L 1388 1331 
Q 1503 1009 1600 663 
Q 1675 925 1809 1294 
L 2547 3319 
L 3125 3319 
L 1869 0 
L 1344 0 
z
" transform="scale(0.015625)"/>
       <path id="ArialMT-61" d="M 2588 409 
Q 2275 144 1986 34 
Q 1697 -75 1366 -75 
Q 819 -75 525 192 
Q 231 459 231 875 
Q 231 1119 342 1320 
Q 453 1522 633 1644 
Q 813 1766 1038 1828 
Q 1203 1872 1538 1913 
Q 2219 1994 2541 2106 
Q 2544 2222 2544 2253 
Q 2544 2597 2384 2738 
Q 2169 2928 1744 2928 
Q 1347 2928 1158 2789 
Q 969 2650 878 2297 
L 328 2372 
Q 403 2725 575 2942 
Q 747 3159 1072 3276 
Q 1397 3394 1825 3394 
Q 2250 3394 2515 3294 
Q 2781 3194 2906 3042 
Q 3031 2891 3081 2659 
Q 3109 2516 3109 2141 
L 3109 1391 
Q 3109 606 3145 398 
Q 3181 191 3288 0 
L 2700 0 
Q 2613 175 2588 409 
z
M 2541 1666 
Q 2234 1541 1622 1453 
Q 1275 1403 1131 1340 
Q 988 1278 909 1158 
Q 831 1038 831 891 
Q 831 666 1001 516 
Q 1172 366 1500 366 
Q 1825 366 2078 508 
Q 2331 650 2450 897 
Q 2541 1088 2541 1459 
L 2541 1666 
z
" transform="scale(0.015625)"/>
       <path id="ArialMT-74" d="M 1650 503 
L 1731 6 
Q 1494 -44 1306 -44 
Q 1000 -44 831 53 
Q 663 150 594 308 
Q 525 466 525 972 
L 525 2881 
L 113 2881 
L 113 3319 
L 525 3319 
L 525 4141 
L 1084 4478 
L 1084 3319 
L 1650 3319 
L 1650 2881 
L 1084 2881 
L 1084 941 
Q 1084 700 1114 631 
Q 1144 563 1211 522 
Q 1278 481 1403 481 
Q 1497 481 1650 503 
z
" transform="scale(0.015625)"/>
       <path id="ArialMT-69" d="M 425 3934 
L 425 4581 
L 988 4581 
L 988 3934 
L 425 3934 
z
M 425 0 
L 425 3319 
L 988 3319 
L 988 0 
L 425 0 
z
" transform="scale(0.015625)"/>
       <path id="ArialMT-6f" d="M 213 1659 
Q 213 2581 725 3025 
Q 1153 3394 1769 3394 
Q 2453 3394 2887 2945 
Q 3322 2497 3322 1706 
Q 3322 1066 3130 698 
Q 2938 331 2570 128 
Q 2203 -75 1769 -75 
Q 1072 -75 642 372 
Q 213 819 213 1659 
z
M 791 1659 
Q 791 1022 1069 705 
Q 1347 388 1769 388 
Q 2188 388 2466 706 
Q 2744 1025 2744 1678 
Q 2744 2294 2464 2611 
Q 2184 2928 1769 2928 
Q 1347 2928 1069 2612 
Q 791 2297 791 1659 
z
" transform="scale(0.015625)"/>
       <path id="ArialMT-6e" d="M 422 0 
L 422 3319 
L 928 3319 
L 928 2847 
Q 1294 3394 1984 3394 
Q 2284 3394 2536 3286 
Q 2788 3178 2913 3003 
Q 3038 2828 3088 2588 
Q 3119 2431 3119 2041 
L 3119 0 
L 2556 0 
L 2556 2019 
Q 2556 2363 2490 2533 
Q 2425 2703 2258 2804 
Q 2091 2906 1866 2906 
Q 1506 2906 1245 2678 
Q 984 2450 984 1813 
L 984 0 
L 422 0 
z
" transform="scale(0.015625)"/>
      </defs>
      <use xlink:href="#ArialMT-4f"/>
      <use xlink:href="#ArialMT-62" x="77.783203"/>
      <use xlink:href="#ArialMT-73" x="133.398438"/>
      <use xlink:href="#ArialMT-65" x="183.398438"/>
      <use xlink:href="#ArialMT-72" x="239.013672"/>
      <use xlink:href="#ArialMT-76" x="272.314453"/>
      <use xlink:href="#ArialMT-61" x="322.314453"/>
      <use xlink:href="#ArialMT-74" x="377.929688"/>
      <use xlink:href="#ArialMT-69" x="405.712891"/>
      <use xlink:href="#ArialMT-6f" x="427.929688"/>
      <use xlink:href="#ArialMT-6e" x="483.544922"/>
      <use xlink:href="#ArialMT-73" x="539.160156"/>
     </g>
    </g>
    <g id="line2d_17">
     <path d="M 46.232875 43.794375 
L 55.032875 43.794375 
L 63.832875 43.794375 
" style="fill: none; stroke: #1f77b4; stroke-width: 2; stroke-linecap: round"/>
    </g>
    <g id="text_17">
     <!-- $m_n(x)$ -->
     <g style="fill: #262626" transform="translate(70.872875 46.874375) scale(0.088 -0.088)">
      <defs>
       <path id="DejaVuSans-Oblique-6d" d="M 5747 2113 
L 5338 0 
L 4763 0 
L 5166 2094 
Q 5191 2228 5203 2325 
Q 5216 2422 5216 2491 
Q 5216 2772 5059 2928 
Q 4903 3084 4622 3084 
Q 4203 3084 3875 2770 
Q 3547 2456 3450 1953 
L 3066 0 
L 2491 0 
L 2900 2094 
Q 2925 2209 2937 2307 
Q 2950 2406 2950 2484 
Q 2950 2769 2794 2926 
Q 2638 3084 2363 3084 
Q 1938 3084 1609 2770 
Q 1281 2456 1184 1953 
L 800 0 
L 225 0 
L 909 3500 
L 1484 3500 
L 1375 2956 
Q 1609 3263 1923 3423 
Q 2238 3584 2597 3584 
Q 2978 3584 3223 3384 
Q 3469 3184 3519 2828 
Q 3781 3197 4126 3390 
Q 4472 3584 4856 3584 
Q 5306 3584 5551 3325 
Q 5797 3066 5797 2591 
Q 5797 2488 5784 2364 
Q 5772 2241 5747 2113 
z
" transform="scale(0.015625)"/>
       <path id="DejaVuSans-Oblique-6e" d="M 3566 2113 
L 3156 0 
L 2578 0 
L 2988 2091 
Q 3016 2238 3031 2350 
Q 3047 2463 3047 2528 
Q 3047 2791 2881 2937 
Q 2716 3084 2419 3084 
Q 1956 3084 1622 2776 
Q 1288 2469 1184 1941 
L 800 0 
L 225 0 
L 903 3500 
L 1478 3500 
L 1363 2950 
Q 1603 3253 1940 3418 
Q 2278 3584 2650 3584 
Q 3113 3584 3367 3334 
Q 3622 3084 3622 2631 
Q 3622 2519 3608 2391 
Q 3594 2263 3566 2113 
z
" transform="scale(0.015625)"/>
       <path id="DejaVuSans-28" d="M 1984 4856 
Q 1566 4138 1362 3434 
Q 1159 2731 1159 2009 
Q 1159 1288 1364 580 
Q 1569 -128 1984 -844 
L 1484 -844 
Q 1016 -109 783 600 
Q 550 1309 550 2009 
Q 550 2706 781 3412 
Q 1013 4119 1484 4856 
L 1984 4856 
z
" transform="scale(0.015625)"/>
       <path id="DejaVuSans-29" d="M 513 4856 
L 1013 4856 
Q 1481 4119 1714 3412 
Q 1947 2706 1947 2009 
Q 1947 1309 1714 600 
Q 1481 -109 1013 -844 
L 513 -844 
Q 928 -128 1133 580 
Q 1338 1288 1338 2009 
Q 1338 2731 1133 3434 
Q 928 4138 513 4856 
z
" transform="scale(0.015625)"/>
      </defs>
      <use xlink:href="#DejaVuSans-Oblique-6d" transform="translate(0 0.125)"/>
      <use xlink:href="#DejaVuSans-Oblique-6e" transform="translate(97.412109 -16.28125) scale(0.7)"/>
      <use xlink:href="#DejaVuSans-28" transform="translate(144.511719 0.125)"/>
      <use xlink:href="#DejaVuSans-Oblique-78" transform="translate(183.525391 0.125)"/>
      <use xlink:href="#DejaVuSans-29" transform="translate(242.705078 0.125)"/>
     </g>
    </g>
    <g id="patch_5">
     <path d="M 46.232875 61.031375 
L 63.832875 61.031375 
L 63.832875 54.871375 
L 46.232875 54.871375 
z
" style="fill: #1f77b4; fill-opacity: 0.5; stroke: #1f77b4; stroke-opacity: 0.5; stroke-width: 0.8; stroke-linejoin: miter"/>
    </g>
    <g id="text_18">
     <!-- $f(\mathbf{x}^*)$ 95% pred. -->
     <g style="fill: #262626" transform="translate(70.872875 61.031375) scale(0.088 -0.088)">
      <defs>
       <path id="DejaVuSans-Oblique-66" d="M 3059 4863 
L 2969 4384 
L 2419 4384 
Q 2106 4384 1964 4261 
Q 1822 4138 1753 3809 
L 1691 3500 
L 2638 3500 
L 2553 3053 
L 1606 3053 
L 1013 0 
L 434 0 
L 1031 3053 
L 481 3053 
L 563 3500 
L 1113 3500 
L 1159 3744 
Q 1278 4363 1576 4613 
Q 1875 4863 2516 4863 
L 3059 4863 
z
" transform="scale(0.015625)"/>
       <path id="DejaVuSans-Bold-78" d="M 1422 1791 
L 159 3500 
L 1344 3500 
L 2059 2463 
L 2784 3500 
L 3969 3500 
L 2706 1797 
L 4031 0 
L 2847 0 
L 2059 1106 
L 1281 0 
L 97 0 
L 1422 1791 
z
" transform="scale(0.015625)"/>
       <path id="DejaVuSans-2a" d="M 3009 3897 
L 1888 3291 
L 3009 2681 
L 2828 2375 
L 1778 3009 
L 1778 1831 
L 1422 1831 
L 1422 3009 
L 372 2375 
L 191 2681 
L 1313 3291 
L 191 3897 
L 372 4206 
L 1422 3572 
L 1422 4750 
L 1778 4750 
L 1778 3572 
L 2828 4206 
L 3009 3897 
z
" transform="scale(0.015625)"/>
       <path id="ArialMT-39" d="M 350 1059 
L 891 1109 
Q 959 728 1153 556 
Q 1347 384 1650 384 
Q 1909 384 2104 503 
Q 2300 622 2425 820 
Q 2550 1019 2634 1356 
Q 2719 1694 2719 2044 
Q 2719 2081 2716 2156 
Q 2547 1888 2255 1720 
Q 1963 1553 1622 1553 
Q 1053 1553 659 1965 
Q 266 2378 266 3053 
Q 266 3750 677 4175 
Q 1088 4600 1706 4600 
Q 2153 4600 2523 4359 
Q 2894 4119 3086 3673 
Q 3278 3228 3278 2384 
Q 3278 1506 3087 986 
Q 2897 466 2520 194 
Q 2144 -78 1638 -78 
Q 1100 -78 759 220 
Q 419 519 350 1059 
z
M 2653 3081 
Q 2653 3566 2395 3850 
Q 2138 4134 1775 4134 
Q 1400 4134 1122 3828 
Q 844 3522 844 3034 
Q 844 2597 1108 2323 
Q 1372 2050 1759 2050 
Q 2150 2050 2401 2323 
Q 2653 2597 2653 3081 
z
" transform="scale(0.015625)"/>
       <path id="ArialMT-35" d="M 266 1200 
L 856 1250 
Q 922 819 1161 601 
Q 1400 384 1738 384 
Q 2144 384 2425 690 
Q 2706 997 2706 1503 
Q 2706 1984 2436 2262 
Q 2166 2541 1728 2541 
Q 1456 2541 1237 2417 
Q 1019 2294 894 2097 
L 366 2166 
L 809 4519 
L 3088 4519 
L 3088 3981 
L 1259 3981 
L 1013 2750 
Q 1425 3038 1878 3038 
Q 2478 3038 2890 2622 
Q 3303 2206 3303 1553 
Q 3303 931 2941 478 
Q 2500 -78 1738 -78 
Q 1113 -78 717 272 
Q 322 622 266 1200 
z
" transform="scale(0.015625)"/>
       <path id="ArialMT-25" d="M 372 3481 
Q 372 3972 619 4315 
Q 866 4659 1334 4659 
Q 1766 4659 2048 4351 
Q 2331 4044 2331 3447 
Q 2331 2866 2045 2552 
Q 1759 2238 1341 2238 
Q 925 2238 648 2547 
Q 372 2856 372 3481 
z
M 1350 4272 
Q 1141 4272 1002 4090 
Q 863 3909 863 3425 
Q 863 2984 1003 2804 
Q 1144 2625 1350 2625 
Q 1563 2625 1702 2806 
Q 1841 2988 1841 3469 
Q 1841 3913 1700 4092 
Q 1559 4272 1350 4272 
z
M 1353 -169 
L 3859 4659 
L 4316 4659 
L 1819 -169 
L 1353 -169 
z
M 3334 1075 
Q 3334 1569 3581 1911 
Q 3828 2253 4300 2253 
Q 4731 2253 5014 1945 
Q 5297 1638 5297 1041 
Q 5297 459 5011 145 
Q 4725 -169 4303 -169 
Q 3888 -169 3611 142 
Q 3334 453 3334 1075 
z
M 4316 1866 
Q 4103 1866 3964 1684 
Q 3825 1503 3825 1019 
Q 3825 581 3965 400 
Q 4106 219 4313 219 
Q 4528 219 4667 400 
Q 4806 581 4806 1063 
Q 4806 1506 4665 1686 
Q 4525 1866 4316 1866 
z
" transform="scale(0.015625)"/>
       <path id="ArialMT-70" d="M 422 -1272 
L 422 3319 
L 934 3319 
L 934 2888 
Q 1116 3141 1344 3267 
Q 1572 3394 1897 3394 
Q 2322 3394 2647 3175 
Q 2972 2956 3137 2557 
Q 3303 2159 3303 1684 
Q 3303 1175 3120 767 
Q 2938 359 2589 142 
Q 2241 -75 1856 -75 
Q 1575 -75 1351 44 
Q 1128 163 984 344 
L 984 -1272 
L 422 -1272 
z
M 931 1641 
Q 931 1000 1190 694 
Q 1450 388 1819 388 
Q 2194 388 2461 705 
Q 2728 1022 2728 1688 
Q 2728 2322 2467 2637 
Q 2206 2953 1844 2953 
Q 1484 2953 1207 2617 
Q 931 2281 931 1641 
z
" transform="scale(0.015625)"/>
       <path id="ArialMT-64" d="M 2575 0 
L 2575 419 
Q 2259 -75 1647 -75 
Q 1250 -75 917 144 
Q 584 363 401 755 
Q 219 1147 219 1656 
Q 219 2153 384 2558 
Q 550 2963 881 3178 
Q 1213 3394 1622 3394 
Q 1922 3394 2156 3267 
Q 2391 3141 2538 2938 
L 2538 4581 
L 3097 4581 
L 3097 0 
L 2575 0 
z
M 797 1656 
Q 797 1019 1065 703 
Q 1334 388 1700 388 
Q 2069 388 2326 689 
Q 2584 991 2584 1609 
Q 2584 2291 2321 2609 
Q 2059 2928 1675 2928 
Q 1300 2928 1048 2622 
Q 797 2316 797 1656 
z
" transform="scale(0.015625)"/>
      </defs>
      <use xlink:href="#DejaVuSans-Oblique-66" transform="translate(0 0.765625)"/>
      <use xlink:href="#DejaVuSans-28" transform="translate(35.205078 0.765625)"/>
      <use xlink:href="#DejaVuSans-Bold-78" transform="translate(74.21875 0.765625)"/>
      <use xlink:href="#DejaVuSans-2a" transform="translate(153.31543 39.046875) scale(0.7)"/>
      <use xlink:href="#DejaVuSans-29" transform="translate(204.6875 0.765625)"/>
      <use xlink:href="#ArialMT-20" transform="translate(243.701172 0.765625)"/>
      <use xlink:href="#ArialMT-39" transform="translate(271.484375 0.765625)"/>
      <use xlink:href="#ArialMT-35" transform="translate(327.099609 0.765625)"/>
      <use xlink:href="#ArialMT-25" transform="translate(382.714844 0.765625)"/>
      <use xlink:href="#ArialMT-20" transform="translate(471.630859 0.765625)"/>
      <use xlink:href="#ArialMT-70" transform="translate(499.414062 0.765625)"/>
      <use xlink:href="#ArialMT-72" transform="translate(555.029297 0.765625)"/>
      <use xlink:href="#ArialMT-65" transform="translate(588.330078 0.765625)"/>
      <use xlink:href="#ArialMT-64" transform="translate(643.945312 0.765625)"/>
      <use xlink:href="#ArialMT-2e" transform="translate(699.560547 0.765625)"/>
     </g>
    </g>
    <g id="patch_6">
     <path d="M 46.232875 75.199375 
L 63.832875 75.199375 
L 63.832875 69.039375 
L 46.232875 69.039375 
z
" style="fill: #ff7f0e; fill-opacity: 0.5; stroke: #ff7f0e; stroke-opacity: 0.5; stroke-width: 0.8; stroke-linejoin: miter"/>
    </g>
    <g id="text_19">
     <!-- $y^*$ 95% pred. -->
     <g style="fill: #262626" transform="translate(70.872875 75.199375) scale(0.088 -0.088)">
      <use xlink:href="#DejaVuSans-Oblique-79" transform="translate(0 0.765625)"/>
      <use xlink:href="#DejaVuSans-2a" transform="translate(77.283529 39.046875) scale(0.7)"/>
      <use xlink:href="#ArialMT-20" transform="translate(128.655599 0.765625)"/>
      <use xlink:href="#ArialMT-39" transform="translate(156.438802 0.765625)"/>
      <use xlink:href="#ArialMT-35" transform="translate(212.054036 0.765625)"/>
      <use xlink:href="#ArialMT-25" transform="translate(267.669271 0.765625)"/>
      <use xlink:href="#ArialMT-20" transform="translate(356.585286 0.765625)"/>
      <use xlink:href="#ArialMT-70" transform="translate(384.36849 0.765625)"/>
      <use xlink:href="#ArialMT-72" transform="translate(439.983724 0.765625)"/>
      <use xlink:href="#ArialMT-65" transform="translate(473.284505 0.765625)"/>
      <use xlink:href="#ArialMT-64" transform="translate(528.89974 0.765625)"/>
      <use xlink:href="#ArialMT-2e" transform="translate(584.514974 0.765625)"/>
     </g>
    </g>
    <g id="line2d_18">
     <path d="M 46.232875 84.66625 
L 55.032875 84.66625 
L 63.832875 84.66625 
" style="fill: none; stroke-dasharray: 7.68,1.92,1.2,1.92; stroke-dashoffset: 0; stroke: #bf00bf; stroke-width: 1.2"/>
    </g>
    <g id="text_20">
     <!-- True function -->
     <g style="fill: #262626" transform="translate(70.872875 87.74625) scale(0.088 -0.088)">
      <defs>
       <path id="ArialMT-54" d="M 1659 0 
L 1659 4041 
L 150 4041 
L 150 4581 
L 3781 4581 
L 3781 4041 
L 2266 4041 
L 2266 0 
L 1659 0 
z
" transform="scale(0.015625)"/>
       <path id="ArialMT-75" d="M 2597 0 
L 2597 488 
Q 2209 -75 1544 -75 
Q 1250 -75 995 37 
Q 741 150 617 320 
Q 494 491 444 738 
Q 409 903 409 1263 
L 409 3319 
L 972 3319 
L 972 1478 
Q 972 1038 1006 884 
Q 1059 663 1231 536 
Q 1403 409 1656 409 
Q 1909 409 2131 539 
Q 2353 669 2445 892 
Q 2538 1116 2538 1541 
L 2538 3319 
L 3100 3319 
L 3100 0 
L 2597 0 
z
" transform="scale(0.015625)"/>
       <path id="ArialMT-66" d="M 556 0 
L 556 2881 
L 59 2881 
L 59 3319 
L 556 3319 
L 556 3672 
Q 556 4006 616 4169 
Q 697 4388 901 4523 
Q 1106 4659 1475 4659 
Q 1713 4659 2000 4603 
L 1916 4113 
Q 1741 4144 1584 4144 
Q 1328 4144 1222 4034 
Q 1116 3925 1116 3625 
L 1116 3319 
L 1763 3319 
L 1763 2881 
L 1116 2881 
L 1116 0 
L 556 0 
z
" transform="scale(0.015625)"/>
       <path id="ArialMT-63" d="M 2588 1216 
L 3141 1144 
Q 3050 572 2676 248 
Q 2303 -75 1759 -75 
Q 1078 -75 664 370 
Q 250 816 250 1647 
Q 250 2184 428 2587 
Q 606 2991 970 3192 
Q 1334 3394 1763 3394 
Q 2303 3394 2647 3120 
Q 2991 2847 3088 2344 
L 2541 2259 
Q 2463 2594 2264 2762 
Q 2066 2931 1784 2931 
Q 1359 2931 1093 2626 
Q 828 2322 828 1663 
Q 828 994 1084 691 
Q 1341 388 1753 388 
Q 2084 388 2306 591 
Q 2528 794 2588 1216 
z
" transform="scale(0.015625)"/>
      </defs>
      <use xlink:href="#ArialMT-54"/>
      <use xlink:href="#ArialMT-72" x="57.333984"/>
      <use xlink:href="#ArialMT-75" x="90.634766"/>
      <use xlink:href="#ArialMT-65" x="146.25"/>
      <use xlink:href="#ArialMT-20" x="201.865234"/>
      <use xlink:href="#ArialMT-66" x="229.648438"/>
      <use xlink:href="#ArialMT-75" x="257.431641"/>
      <use xlink:href="#ArialMT-6e" x="313.046875"/>
      <use xlink:href="#ArialMT-63" x="368.662109"/>
      <use xlink:href="#ArialMT-74" x="418.662109"/>
      <use xlink:href="#ArialMT-69" x="446.445312"/>
      <use xlink:href="#ArialMT-6f" x="468.662109"/>
      <use xlink:href="#ArialMT-6e" x="524.277344"/>
     </g>
    </g>
   </g>
  </g>
  <g id="axes_2">
   <g id="matplotlib.axis_3">
    <g id="ytick_7">
     <g id="line2d_19">
      <defs>
       <path id="ma199b051a4" d="M 0 0 
L 4.8 0 
" style="stroke: #262626"/>
      </defs>
      <g>
       <use xlink:href="#ma199b051a4" x="395.432875" y="274.0875" style="fill: #262626; stroke: #262626"/>
      </g>
     </g>
     <g id="text_21">
      <!-- 0.0 -->
      <g style="fill: #ff7f0e" transform="translate(403.732875 277.236937) scale(0.088 -0.088)">
       <use xlink:href="#ArialMT-30"/>
       <use xlink:href="#ArialMT-2e" x="55.615234"/>
       <use xlink:href="#ArialMT-30" x="83.398438"/>
      </g>
     </g>
    </g>
    <g id="ytick_8">
     <g id="line2d_20">
      <g>
       <use xlink:href="#ma199b051a4" x="395.432875" y="238.3009" style="fill: #262626; stroke: #262626"/>
      </g>
     </g>
     <g id="text_22">
      <!-- 0.1 -->
      <g style="fill: #ff7f0e" transform="translate(403.732875 241.450337) scale(0.088 -0.088)">
       <use xlink:href="#ArialMT-30"/>
       <use xlink:href="#ArialMT-2e" x="55.615234"/>
       <use xlink:href="#ArialMT-31" x="83.398438"/>
      </g>
     </g>
    </g>
    <g id="ytick_9">
     <g id="line2d_21">
      <g>
       <use xlink:href="#ma199b051a4" x="395.432875" y="202.514299" style="fill: #262626; stroke: #262626"/>
      </g>
     </g>
     <g id="text_23">
      <!-- 0.2 -->
      <g style="fill: #ff7f0e" transform="translate(403.732875 205.663737) scale(0.088 -0.088)">
       <use xlink:href="#ArialMT-30"/>
       <use xlink:href="#ArialMT-2e" x="55.615234"/>
       <use xlink:href="#ArialMT-32" x="83.398438"/>
      </g>
     </g>
    </g>
    <g id="ytick_10">
     <g id="line2d_22">
      <g>
       <use xlink:href="#ma199b051a4" x="395.432875" y="166.727699" style="fill: #262626; stroke: #262626"/>
      </g>
     </g>
     <g id="text_24">
      <!-- 0.3 -->
      <g style="fill: #ff7f0e" transform="translate(403.732875 169.877136) scale(0.088 -0.088)">
       <defs>
        <path id="ArialMT-33" d="M 269 1209 
L 831 1284 
Q 928 806 1161 595 
Q 1394 384 1728 384 
Q 2125 384 2398 659 
Q 2672 934 2672 1341 
Q 2672 1728 2419 1979 
Q 2166 2231 1775 2231 
Q 1616 2231 1378 2169 
L 1441 2663 
Q 1497 2656 1531 2656 
Q 1891 2656 2178 2843 
Q 2466 3031 2466 3422 
Q 2466 3731 2256 3934 
Q 2047 4138 1716 4138 
Q 1388 4138 1169 3931 
Q 950 3725 888 3313 
L 325 3413 
Q 428 3978 793 4289 
Q 1159 4600 1703 4600 
Q 2078 4600 2393 4439 
Q 2709 4278 2876 4000 
Q 3044 3722 3044 3409 
Q 3044 3113 2884 2869 
Q 2725 2625 2413 2481 
Q 2819 2388 3044 2092 
Q 3269 1797 3269 1353 
Q 3269 753 2831 336 
Q 2394 -81 1725 -81 
Q 1122 -81 723 278 
Q 325 638 269 1209 
z
" transform="scale(0.015625)"/>
       </defs>
       <use xlink:href="#ArialMT-30"/>
       <use xlink:href="#ArialMT-2e" x="55.615234"/>
       <use xlink:href="#ArialMT-33" x="83.398438"/>
      </g>
     </g>
    </g>
    <g id="ytick_11">
     <g id="line2d_23">
      <g>
       <use xlink:href="#ma199b051a4" x="395.432875" y="130.941098" style="fill: #262626; stroke: #262626"/>
      </g>
     </g>
     <g id="text_25">
      <!-- 0.4 -->
      <g style="fill: #ff7f0e" transform="translate(403.732875 134.090536) scale(0.088 -0.088)">
       <use xlink:href="#ArialMT-30"/>
       <use xlink:href="#ArialMT-2e" x="55.615234"/>
       <use xlink:href="#ArialMT-34" x="83.398438"/>
      </g>
     </g>
    </g>
    <g id="ytick_12">
     <g id="line2d_24">
      <g>
       <use xlink:href="#ma199b051a4" x="395.432875" y="95.154498" style="fill: #262626; stroke: #262626"/>
      </g>
     </g>
     <g id="text_26">
      <!-- 0.5 -->
      <g style="fill: #ff7f0e" transform="translate(403.732875 98.303935) scale(0.088 -0.088)">
       <use xlink:href="#ArialMT-30"/>
       <use xlink:href="#ArialMT-2e" x="55.615234"/>
       <use xlink:href="#ArialMT-35" x="83.398438"/>
      </g>
     </g>
    </g>
    <g id="ytick_13">
     <g id="line2d_25">
      <g>
       <use xlink:href="#ma199b051a4" x="395.432875" y="59.367897" style="fill: #262626; stroke: #262626"/>
      </g>
     </g>
     <g id="text_27">
      <!-- 0.6 -->
      <g style="fill: #ff7f0e" transform="translate(403.732875 62.517335) scale(0.088 -0.088)">
       <use xlink:href="#ArialMT-30"/>
       <use xlink:href="#ArialMT-2e" x="55.615234"/>
       <use xlink:href="#ArialMT-36" x="83.398438"/>
      </g>
     </g>
    </g>
    <g id="ytick_14">
     <g id="line2d_26">
      <g>
       <use xlink:href="#ma199b051a4" x="395.432875" y="23.581297" style="fill: #262626; stroke: #262626"/>
      </g>
     </g>
     <g id="text_28">
      <!-- 0.7 -->
      <g style="fill: #ff7f0e" transform="translate(403.732875 26.730734) scale(0.088 -0.088)">
       <defs>
        <path id="ArialMT-37" d="M 303 3981 
L 303 4522 
L 3269 4522 
L 3269 4084 
Q 2831 3619 2401 2847 
Q 1972 2075 1738 1259 
Q 1569 684 1522 0 
L 944 0 
Q 953 541 1156 1306 
Q 1359 2072 1739 2783 
Q 2119 3494 2547 3981 
L 303 3981 
z
" transform="scale(0.015625)"/>
       </defs>
       <use xlink:href="#ArialMT-30"/>
       <use xlink:href="#ArialMT-2e" x="55.615234"/>
       <use xlink:href="#ArialMT-37" x="83.398438"/>
      </g>
     </g>
    </g>
    <g id="text_29">
     <!-- Information Acquisition Function -->
     <g style="fill: #ff7f0e" transform="translate(426.953375 221.16075) rotate(-90) scale(0.096 -0.096)">
      <defs>
       <path id="ArialMT-49" d="M 597 0 
L 597 4581 
L 1203 4581 
L 1203 0 
L 597 0 
z
" transform="scale(0.015625)"/>
       <path id="ArialMT-6d" d="M 422 0 
L 422 3319 
L 925 3319 
L 925 2853 
Q 1081 3097 1340 3245 
Q 1600 3394 1931 3394 
Q 2300 3394 2536 3241 
Q 2772 3088 2869 2813 
Q 3263 3394 3894 3394 
Q 4388 3394 4653 3120 
Q 4919 2847 4919 2278 
L 4919 0 
L 4359 0 
L 4359 2091 
Q 4359 2428 4304 2576 
Q 4250 2725 4106 2815 
Q 3963 2906 3769 2906 
Q 3419 2906 3187 2673 
Q 2956 2441 2956 1928 
L 2956 0 
L 2394 0 
L 2394 2156 
Q 2394 2531 2256 2718 
Q 2119 2906 1806 2906 
Q 1569 2906 1367 2781 
Q 1166 2656 1075 2415 
Q 984 2175 984 1722 
L 984 0 
L 422 0 
z
" transform="scale(0.015625)"/>
       <path id="ArialMT-41" d="M -9 0 
L 1750 4581 
L 2403 4581 
L 4278 0 
L 3588 0 
L 3053 1388 
L 1138 1388 
L 634 0 
L -9 0 
z
M 1313 1881 
L 2866 1881 
L 2388 3150 
Q 2169 3728 2063 4100 
Q 1975 3659 1816 3225 
L 1313 1881 
z
" transform="scale(0.015625)"/>
       <path id="ArialMT-71" d="M 2538 -1272 
L 2538 353 
Q 2406 169 2170 47 
Q 1934 -75 1669 -75 
Q 1078 -75 651 397 
Q 225 869 225 1691 
Q 225 2191 398 2587 
Q 572 2984 901 3189 
Q 1231 3394 1625 3394 
Q 2241 3394 2594 2875 
L 2594 3319 
L 3100 3319 
L 3100 -1272 
L 2538 -1272 
z
M 803 1669 
Q 803 1028 1072 708 
Q 1341 388 1716 388 
Q 2075 388 2334 692 
Q 2594 997 2594 1619 
Q 2594 2281 2320 2615 
Q 2047 2950 1678 2950 
Q 1313 2950 1058 2639 
Q 803 2328 803 1669 
z
" transform="scale(0.015625)"/>
       <path id="ArialMT-46" d="M 525 0 
L 525 4581 
L 3616 4581 
L 3616 4041 
L 1131 4041 
L 1131 2622 
L 3281 2622 
L 3281 2081 
L 1131 2081 
L 1131 0 
L 525 0 
z
" transform="scale(0.015625)"/>
      </defs>
      <use xlink:href="#ArialMT-49"/>
      <use xlink:href="#ArialMT-6e" x="27.783203"/>
      <use xlink:href="#ArialMT-66" x="83.398438"/>
      <use xlink:href="#ArialMT-6f" x="111.181641"/>
      <use xlink:href="#ArialMT-72" x="166.796875"/>
      <use xlink:href="#ArialMT-6d" x="200.097656"/>
      <use xlink:href="#ArialMT-61" x="283.398438"/>
      <use xlink:href="#ArialMT-74" x="339.013672"/>
      <use xlink:href="#ArialMT-69" x="366.796875"/>
      <use xlink:href="#ArialMT-6f" x="389.013672"/>
      <use xlink:href="#ArialMT-6e" x="444.628906"/>
      <use xlink:href="#ArialMT-20" x="500.244141"/>
      <use xlink:href="#ArialMT-41" x="522.527344"/>
      <use xlink:href="#ArialMT-63" x="589.226562"/>
      <use xlink:href="#ArialMT-71" x="639.226562"/>
      <use xlink:href="#ArialMT-75" x="694.841797"/>
      <use xlink:href="#ArialMT-69" x="750.457031"/>
      <use xlink:href="#ArialMT-73" x="772.673828"/>
      <use xlink:href="#ArialMT-69" x="822.673828"/>
      <use xlink:href="#ArialMT-74" x="844.890625"/>
      <use xlink:href="#ArialMT-69" x="872.673828"/>
      <use xlink:href="#ArialMT-6f" x="894.890625"/>
      <use xlink:href="#ArialMT-6e" x="950.505859"/>
      <use xlink:href="#ArialMT-20" x="1006.121094"/>
      <use xlink:href="#ArialMT-46" x="1033.904297"/>
      <use xlink:href="#ArialMT-75" x="1094.988281"/>
      <use xlink:href="#ArialMT-6e" x="1150.603516"/>
      <use xlink:href="#ArialMT-63" x="1206.21875"/>
      <use xlink:href="#ArialMT-74" x="1256.21875"/>
      <use xlink:href="#ArialMT-69" x="1284.001953"/>
      <use xlink:href="#ArialMT-6f" x="1306.21875"/>
      <use xlink:href="#ArialMT-6e" x="1361.833984"/>
     </g>
    </g>
   </g>
   <g id="line2d_27">
    <path d="M 54.545602 82.228485 
L 57.824941 94.984366 
L 61.10428 108.203096 
L 64.383619 121.7959 
L 67.662958 135.659291 
L 70.942296 149.675568 
L 74.221636 163.714573 
L 77.500973 177.635524 
L 80.780313 191.288954 
L 84.059653 204.520296 
L 87.33899 217.170441 
L 90.61833 229.079097 
L 93.89767 240.084471 
L 97.177007 250.018913 
L 100.456344 258.6989 
L 103.735686 265.885221 
L 107.015024 271.184118 
L 110.294361 273.855913 
L 113.573703 274.0875 
L 116.853041 273.871274 
L 120.132378 265.514513 
L 123.41172 251.365554 
L 126.691057 237.074423 
L 129.970395 224.522033 
L 133.249737 214.688267 
L 136.529069 208.307303 
L 139.808412 206.022057 
L 143.087754 208.432785 
L 146.367086 216.107634 
L 149.646428 229.567192 
L 152.92577 249.182081 
L 156.205103 272.728754 
L 159.484445 273.938428 
L 162.763787 273.052277 
L 166.04312 272.293658 
L 169.322462 271.859118 
L 172.601804 271.736205 
L 175.881137 271.863389 
L 179.160479 272.161374 
L 182.439821 272.548755 
L 185.719153 272.953311 
L 188.998496 273.319829 
L 192.277838 273.614762 
L 195.55717 273.826234 
L 198.836512 273.960418 
L 202.115855 274.0345 
L 205.395187 274.06922 
L 208.674529 274.08255 
L 211.953871 274.08651 
L 215.233204 274.087348 
L 218.512556 274.087472 
L 221.791879 274.087487 
L 225.071221 274.0875 
L 228.350563 274.0875 
L 231.629886 274.0875 
L 234.909247 274.0875 
L 238.18857 274.0875 
L 241.467912 274.0875 
L 244.747254 274.0875 
L 248.026597 274.0875 
L 251.305939 274.0875 
L 254.585262 274.0875 
L 257.864623 274.0875 
L 261.143946 274.0875 
L 264.423288 274.0875 
L 267.70263 274.0875 
L 270.981953 274.0875 
L 274.261315 274.0875 
L 277.540637 274.0875 
L 280.81998 274.087496 
L 284.099322 274.087466 
L 287.378664 274.086762 
L 290.658006 274.075145 
L 293.937329 273.984262 
L 297.21669 273.550191 
L 300.496013 272.106177 
L 303.775355 268.446309 
L 307.054697 260.928623 
L 310.33402 247.86081 
L 313.613382 228.049437 
L 316.892705 201.315893 
L 320.172047 168.80348 
L 323.451389 132.989749 
L 326.730731 97.410814 
L 330.010073 66.156462 
L 333.289396 43.269224 
L 336.568738 32.1675 
L 339.84808 35.233479 
L 343.127423 53.64522 
L 346.406765 87.470577 
L 349.686088 135.955518 
L 352.96543 197.837767 
L 356.244772 271.551135 
L 359.524114 274.0875 
L 362.803456 274.0875 
L 366.082798 274.0875 
L 369.362141 274.0875 
L 372.641463 274.0875 
L 375.920806 274.0875 
L 379.200148 274.0875 
" clip-path="url(#pbad712fcc5)" style="fill: none; stroke: #ff7f0e; stroke-width: 1.2; stroke-linecap: round"/>
   </g>
   <g id="line2d_28">
    <path d="M 336.568738 274.0875 
L 336.568738 271.643864 
L 336.568738 269.200227 
L 336.568738 266.756591 
L 336.568738 264.312955 
L 336.568738 261.869318 
L 336.568738 259.425683 
L 336.568738 256.982046 
L 336.568738 254.538409 
L 336.568738 252.094773 
L 336.568738 249.651136 
L 336.568738 247.207501 
L 336.568738 244.763865 
L 336.568738 242.320227 
L 336.568738 239.876592 
L 336.568738 237.432954 
L 336.568738 234.989319 
L 336.568738 232.545683 
L 336.568738 230.102045 
L 336.568738 227.658407 
L 336.568738 225.214772 
L 336.568738 222.771137 
L 336.568738 220.327501 
L 336.568738 217.883866 
L 336.568738 215.440231 
L 336.568738 212.99659 
L 336.568738 210.552954 
L 336.568738 208.109319 
L 336.568738 205.665684 
L 336.568738 203.222048 
L 336.568738 200.778408 
L 336.568738 198.334772 
L 336.568738 195.891137 
L 336.568738 193.447502 
L 336.568738 191.003866 
L 336.568738 188.560226 
L 336.568738 186.11659 
L 336.568738 183.672955 
L 336.568738 181.229314 
L 336.568738 178.785684 
L 336.568738 176.342044 
L 336.568738 173.898414 
L 336.568738 171.454773 
L 336.568738 169.011132 
L 336.568738 166.567502 
L 336.568738 164.123862 
L 336.568738 161.680232 
L 336.568738 159.236591 
L 336.568738 156.792961 
L 336.568738 154.34932 
L 336.568738 151.90568 
L 336.568738 149.462039 
L 336.568738 147.018409 
L 336.568738 144.574768 
L 336.568738 142.131138 
L 336.568738 139.687498 
L 336.568738 137.243868 
L 336.568738 134.800227 
L 336.568738 132.356586 
L 336.568738 129.912956 
L 336.568738 127.469316 
L 336.568738 125.025686 
L 336.568738 122.582045 
L 336.568738 120.138415 
L 336.568738 117.694774 
L 336.568738 115.251134 
L 336.568738 112.807493 
L 336.568738 110.363863 
L 336.568738 107.920233 
L 336.568738 105.476592 
L 336.568738 103.032952 
L 336.568738 100.589311 
L 336.568738 98.145681 
L 336.568738 95.702051 
L 336.568738 93.25841 
L 336.568738 90.814769 
L 336.568738 88.371129 
L 336.568738 85.927488 
L 336.568738 83.483869 
L 336.568738 81.040228 
L 336.568738 78.596587 
L 336.568738 76.152947 
L 336.568738 73.709306 
L 336.568738 71.265687 
L 336.568738 68.822046 
L 336.568738 66.378405 
L 336.568738 63.934765 
L 336.568738 61.491124 
L 336.568738 59.047505 
L 336.568738 56.603864 
L 336.568738 54.160223 
L 336.568738 51.716583 
L 336.568738 49.272963 
L 336.568738 46.829323 
L 336.568738 44.385682 
L 336.568738 41.942041 
L 336.568738 39.498401 
L 336.568738 37.054781 
L 336.568738 34.611141 
L 336.568738 32.1675 
" clip-path="url(#pbad712fcc5)" style="fill: none; stroke: #ff7f0e; stroke-linecap: round"/>
   </g>
   <g id="patch_7">
    <path d="M 38.312875 286.1835 
L 38.312875 20.0715 
" style="fill: none; stroke: #262626; stroke-linejoin: miter; stroke-linecap: square"/>
   </g>
   <g id="patch_8">
    <path d="M 395.432875 286.1835 
L 395.432875 20.0715 
" style="fill: none; stroke: #262626; stroke-linejoin: miter; stroke-linecap: square"/>
   </g>
   <g id="patch_9">
    <path d="M 38.312875 286.1835 
L 395.432875 286.1835 
" style="fill: none; stroke: #262626; stroke-linejoin: miter; stroke-linecap: square"/>
   </g>
   <g id="patch_10">
    <path d="M 38.312875 20.0715 
L 395.432875 20.0715 
" style="fill: none; stroke: #262626; stroke-linejoin: miter; stroke-linecap: square"/>
   </g>
  </g>
 </g>
 <defs>
  <clipPath id="pbad712fcc5">
   <rect x="38.312875" y="20.0715" width="357.12" height="266.112"/>
  </clipPath>
 </defs>
</svg>