<?xml version="1.0" encoding="utf-8" standalone="no"?>
<!DOCTYPE svg PUBLIC "-//W3C//DTD SVG 1.1//EN"
  "http://www.w3.org/Graphics/SVG/1.1/DTD/svg11.dtd">
<svg xmlns:xlink="http://www.w3.org/1999/xlink" width="397.19175pt" height="296.859875pt" viewBox="0 0 397.19175 296.859875" xmlns="http://www.w3.org/2000/svg" version="1.1">
 <metadata>
  <rdf:RDF xmlns:dc="http://purl.org/dc/elements/1.1/" xmlns:cc="http://creativecommons.org/ns#" xmlns:rdf="http://www.w3.org/1999/02/22-rdf-syntax-ns#">
   <cc:Work>
    <dc:type rdf:resource="http://purl.org/dc/dcmitype/StillImage"/>
    <dc:date>2023-10-23T16:18:54.539910</dc:date>
    <dc:format>image/svg+xml</dc:format>
    <dc:creator>
     <cc:Agent>
      <dc:title>Matplotlib v3.8.0, https://matplotlib.org/</dc:title>
     </cc:Agent>
    </dc:creator>
   </cc:Work>
  </rdf:RDF>
 </metadata>
 <defs>
  <style type="text/css">*{stroke-linejoin: round; stroke-linecap: butt}</style>
 </defs>
 <g id="figure_1">
  <g id="patch_1">
   <path d="M 0 296.859875 
L 397.19175 296.859875 
L 397.19175 0 
L 0 0 
z
" style="fill: #ffffff"/>
  </g>
  <g id="axes_1">
   <g id="patch_2">
    <path d="M 32.87175 273.312 
L 389.99175 273.312 
L 389.99175 7.2 
L 32.87175 7.2 
z
" style="fill: #ffffff"/>
   </g>
   <g id="matplotlib.axis_1">
    <g id="xtick_1">
     <g id="line2d_1">
      <defs>
       <path id="m52c5a798f6" d="M 0 0 
L 0 4.8 
" style="stroke: #262626"/>
      </defs>
      <g>
       <use xlink:href="#m52c5a798f6" x="86.122558" y="273.312" style="fill: #262626; stroke: #262626"/>
      </g>
     </g>
     <g id="text_1">
      <!-- 0.2 -->
      <g style="fill: #262626" transform="translate(80.006558 287.910875) scale(0.088 -0.088)">
       <defs>
        <path id="ArialMT-30" d="M 266 2259 
Q 266 3072 433 3567 
Q 600 4063 929 4331 
Q 1259 4600 1759 4600 
Q 2128 4600 2406 4451 
Q 2684 4303 2865 4023 
Q 3047 3744 3150 3342 
Q 3253 2941 3253 2259 
Q 3253 1453 3087 958 
Q 2922 463 2592 192 
Q 2263 -78 1759 -78 
Q 1097 -78 719 397 
Q 266 969 266 2259 
z
M 844 2259 
Q 844 1131 1108 757 
Q 1372 384 1759 384 
Q 2147 384 2411 759 
Q 2675 1134 2675 2259 
Q 2675 3391 2411 3762 
Q 2147 4134 1753 4134 
Q 1366 4134 1134 3806 
Q 844 3388 844 2259 
z
" transform="scale(0.015625)"/>
        <path id="ArialMT-2e" d="M 581 0 
L 581 641 
L 1222 641 
L 1222 0 
L 581 0 
z
" transform="scale(0.015625)"/>
        <path id="ArialMT-32" d="M 3222 541 
L 3222 0 
L 194 0 
Q 188 203 259 391 
Q 375 700 629 1000 
Q 884 1300 1366 1694 
Q 2113 2306 2375 2664 
Q 2638 3022 2638 3341 
Q 2638 3675 2398 3904 
Q 2159 4134 1775 4134 
Q 1369 4134 1125 3890 
Q 881 3647 878 3216 
L 300 3275 
Q 359 3922 746 4261 
Q 1134 4600 1788 4600 
Q 2447 4600 2831 4234 
Q 3216 3869 3216 3328 
Q 3216 3053 3103 2787 
Q 2991 2522 2730 2228 
Q 2469 1934 1863 1422 
Q 1356 997 1212 845 
Q 1069 694 975 541 
L 3222 541 
z
" transform="scale(0.015625)"/>
       </defs>
       <use xlink:href="#ArialMT-30"/>
       <use xlink:href="#ArialMT-2e" x="55.615234"/>
       <use xlink:href="#ArialMT-32" x="83.398438"/>
      </g>
     </g>
    </g>
    <g id="xtick_2">
     <g id="line2d_2">
      <g>
       <use xlink:href="#m52c5a798f6" x="159.551859" y="273.312" style="fill: #262626; stroke: #262626"/>
      </g>
     </g>
     <g id="text_2">
      <!-- 0.4 -->
      <g style="fill: #262626" transform="translate(153.435859 287.910875) scale(0.088 -0.088)">
       <defs>
        <path id="ArialMT-34" d="M 2069 0 
L 2069 1097 
L 81 1097 
L 81 1613 
L 2172 4581 
L 2631 4581 
L 2631 1613 
L 3250 1613 
L 3250 1097 
L 2631 1097 
L 2631 0 
L 2069 0 
z
M 2069 1613 
L 2069 3678 
L 634 1613 
L 2069 1613 
z
" transform="scale(0.015625)"/>
       </defs>
       <use xlink:href="#ArialMT-30"/>
       <use xlink:href="#ArialMT-2e" x="55.615234"/>
       <use xlink:href="#ArialMT-34" x="83.398438"/>
      </g>
     </g>
    </g>
    <g id="xtick_3">
     <g id="line2d_3">
      <g>
       <use xlink:href="#m52c5a798f6" x="232.981161" y="273.312" style="fill: #262626; stroke: #262626"/>
      </g>
     </g>
     <g id="text_3">
      <!-- 0.6 -->
      <g style="fill: #262626" transform="translate(226.865161 287.910875) scale(0.088 -0.088)">
       <defs>
        <path id="ArialMT-36" d="M 3184 3459 
L 2625 3416 
Q 2550 3747 2413 3897 
Q 2184 4138 1850 4138 
Q 1581 4138 1378 3988 
Q 1113 3794 959 3422 
Q 806 3050 800 2363 
Q 1003 2672 1297 2822 
Q 1591 2972 1913 2972 
Q 2475 2972 2870 2558 
Q 3266 2144 3266 1488 
Q 3266 1056 3080 686 
Q 2894 316 2569 119 
Q 2244 -78 1831 -78 
Q 1128 -78 684 439 
Q 241 956 241 2144 
Q 241 3472 731 4075 
Q 1159 4600 1884 4600 
Q 2425 4600 2770 4297 
Q 3116 3994 3184 3459 
z
M 888 1484 
Q 888 1194 1011 928 
Q 1134 663 1356 523 
Q 1578 384 1822 384 
Q 2178 384 2434 671 
Q 2691 959 2691 1453 
Q 2691 1928 2437 2201 
Q 2184 2475 1800 2475 
Q 1419 2475 1153 2201 
Q 888 1928 888 1484 
z
" transform="scale(0.015625)"/>
       </defs>
       <use xlink:href="#ArialMT-30"/>
       <use xlink:href="#ArialMT-2e" x="55.615234"/>
       <use xlink:href="#ArialMT-36" x="83.398438"/>
      </g>
     </g>
    </g>
    <g id="xtick_4">
     <g id="line2d_4">
      <g>
       <use xlink:href="#m52c5a798f6" x="306.410462" y="273.312" style="fill: #262626; stroke: #262626"/>
      </g>
     </g>
     <g id="text_4">
      <!-- 0.8 -->
      <g style="fill: #262626" transform="translate(300.294462 287.910875) scale(0.088 -0.088)">
       <defs>
        <path id="ArialMT-38" d="M 1131 2484 
Q 781 2613 612 2850 
Q 444 3088 444 3419 
Q 444 3919 803 4259 
Q 1163 4600 1759 4600 
Q 2359 4600 2725 4251 
Q 3091 3903 3091 3403 
Q 3091 3084 2923 2848 
Q 2756 2613 2416 2484 
Q 2838 2347 3058 2040 
Q 3278 1734 3278 1309 
Q 3278 722 2862 322 
Q 2447 -78 1769 -78 
Q 1091 -78 675 323 
Q 259 725 259 1325 
Q 259 1772 486 2073 
Q 713 2375 1131 2484 
z
M 1019 3438 
Q 1019 3113 1228 2906 
Q 1438 2700 1772 2700 
Q 2097 2700 2305 2904 
Q 2513 3109 2513 3406 
Q 2513 3716 2298 3927 
Q 2084 4138 1766 4138 
Q 1444 4138 1231 3931 
Q 1019 3725 1019 3438 
z
M 838 1322 
Q 838 1081 952 856 
Q 1066 631 1291 507 
Q 1516 384 1775 384 
Q 2178 384 2440 643 
Q 2703 903 2703 1303 
Q 2703 1709 2433 1975 
Q 2163 2241 1756 2241 
Q 1359 2241 1098 1978 
Q 838 1716 838 1322 
z
" transform="scale(0.015625)"/>
       </defs>
       <use xlink:href="#ArialMT-30"/>
       <use xlink:href="#ArialMT-2e" x="55.615234"/>
       <use xlink:href="#ArialMT-38" x="83.398438"/>
      </g>
     </g>
    </g>
    <g id="xtick_5">
     <g id="line2d_5">
      <g>
       <use xlink:href="#m52c5a798f6" x="379.839763" y="273.312" style="fill: #262626; stroke: #262626"/>
      </g>
     </g>
     <g id="text_5">
      <!-- 1.0 -->
      <g style="fill: #262626" transform="translate(373.723763 287.910875) scale(0.088 -0.088)">
       <defs>
        <path id="ArialMT-31" d="M 2384 0 
L 1822 0 
L 1822 3584 
Q 1619 3391 1289 3197 
Q 959 3003 697 2906 
L 697 3450 
Q 1169 3672 1522 3987 
Q 1875 4303 2022 4600 
L 2384 4600 
L 2384 0 
z
" transform="scale(0.015625)"/>
       </defs>
       <use xlink:href="#ArialMT-31"/>
       <use xlink:href="#ArialMT-2e" x="55.615234"/>
       <use xlink:href="#ArialMT-30" x="83.398438"/>
      </g>
     </g>
    </g>
   </g>
   <g id="matplotlib.axis_2">
    <g id="ytick_1">
     <g id="line2d_6">
      <defs>
       <path id="md6bb6f8ed6" d="M 0 0 
L -4.8 0 
" style="stroke: #262626"/>
      </defs>
      <g>
       <use xlink:href="#md6bb6f8ed6" x="32.87175" y="245.387617" style="fill: #262626; stroke: #262626"/>
      </g>
     </g>
     <g id="text_6">
      <!-- −0.8 -->
      <g style="fill: #262626" transform="translate(7.2 248.537055) scale(0.088 -0.088)">
       <defs>
        <path id="ArialMT-2212" d="M 3381 1997 
L 356 1997 
L 356 2522 
L 3381 2522 
L 3381 1997 
z
" transform="scale(0.015625)"/>
       </defs>
       <use xlink:href="#ArialMT-2212"/>
       <use xlink:href="#ArialMT-30" x="58.398438"/>
       <use xlink:href="#ArialMT-2e" x="114.013672"/>
       <use xlink:href="#ArialMT-38" x="141.796875"/>
      </g>
     </g>
    </g>
    <g id="ytick_2">
     <g id="line2d_7">
      <g>
       <use xlink:href="#md6bb6f8ed6" x="32.87175" y="208.354035" style="fill: #262626; stroke: #262626"/>
      </g>
     </g>
     <g id="text_7">
      <!-- −0.6 -->
      <g style="fill: #262626" transform="translate(7.2 211.503472) scale(0.088 -0.088)">
       <use xlink:href="#ArialMT-2212"/>
       <use xlink:href="#ArialMT-30" x="58.398438"/>
       <use xlink:href="#ArialMT-2e" x="114.013672"/>
       <use xlink:href="#ArialMT-36" x="141.796875"/>
      </g>
     </g>
    </g>
    <g id="ytick_3">
     <g id="line2d_8">
      <g>
       <use xlink:href="#md6bb6f8ed6" x="32.87175" y="171.320452" style="fill: #262626; stroke: #262626"/>
      </g>
     </g>
     <g id="text_8">
      <!-- −0.4 -->
      <g style="fill: #262626" transform="translate(7.2 174.46989) scale(0.088 -0.088)">
       <use xlink:href="#ArialMT-2212"/>
       <use xlink:href="#ArialMT-30" x="58.398438"/>
       <use xlink:href="#ArialMT-2e" x="114.013672"/>
       <use xlink:href="#ArialMT-34" x="141.796875"/>
      </g>
     </g>
    </g>
    <g id="ytick_4">
     <g id="line2d_9">
      <g>
       <use xlink:href="#md6bb6f8ed6" x="32.87175" y="134.28687" style="fill: #262626; stroke: #262626"/>
      </g>
     </g>
     <g id="text_9">
      <!-- −0.2 -->
      <g style="fill: #262626" transform="translate(7.2 137.436307) scale(0.088 -0.088)">
       <use xlink:href="#ArialMT-2212"/>
       <use xlink:href="#ArialMT-30" x="58.398438"/>
       <use xlink:href="#ArialMT-2e" x="114.013672"/>
       <use xlink:href="#ArialMT-32" x="141.796875"/>
      </g>
     </g>
    </g>
    <g id="ytick_5">
     <g id="line2d_10">
      <g>
       <use xlink:href="#md6bb6f8ed6" x="32.87175" y="97.253287" style="fill: #262626; stroke: #262626"/>
      </g>
     </g>
     <g id="text_10">
      <!-- 0.0 -->
      <g style="fill: #262626" transform="translate(12.33975 100.402724) scale(0.088 -0.088)">
       <use xlink:href="#ArialMT-30"/>
       <use xlink:href="#ArialMT-2e" x="55.615234"/>
       <use xlink:href="#ArialMT-30" x="83.398438"/>
      </g>
     </g>
    </g>
    <g id="ytick_6">
     <g id="line2d_11">
      <g>
       <use xlink:href="#md6bb6f8ed6" x="32.87175" y="60.219704" style="fill: #262626; stroke: #262626"/>
      </g>
     </g>
     <g id="text_11">
      <!-- 0.2 -->
      <g style="fill: #262626" transform="translate(12.33975 63.369142) scale(0.088 -0.088)">
       <use xlink:href="#ArialMT-30"/>
       <use xlink:href="#ArialMT-2e" x="55.615234"/>
       <use xlink:href="#ArialMT-32" x="83.398438"/>
      </g>
     </g>
    </g>
    <g id="ytick_7">
     <g id="line2d_12">
      <g>
       <use xlink:href="#md6bb6f8ed6" x="32.87175" y="23.186122" style="fill: #262626; stroke: #262626"/>
      </g>
     </g>
     <g id="text_12">
      <!-- 0.4 -->
      <g style="fill: #262626" transform="translate(12.33975 26.335559) scale(0.088 -0.088)">
       <use xlink:href="#ArialMT-30"/>
       <use xlink:href="#ArialMT-2e" x="55.615234"/>
       <use xlink:href="#ArialMT-34" x="83.398438"/>
      </g>
     </g>
    </g>
   </g>
   <g id="line2d_13">
    <defs>
     <path id="m6d72dd6133" d="M -2.4 2.4 
L 2.4 -2.4 
M -2.4 -2.4 
L 2.4 2.4 
" style="stroke: #1f77b4"/>
    </defs>
    <g clip-path="url(#p14e5d48d70)">
     <use xlink:href="#m6d72dd6133" x="276.707499" y="42.102208" style="fill: #1f77b4; stroke: #1f77b4"/>
     <use xlink:href="#m6d72dd6133" x="301.63828" y="74.401303" style="fill: #1f77b4; stroke: #1f77b4"/>
     <use xlink:href="#m6d72dd6133" x="241.71541" y="23.873331" style="fill: #1f77b4; stroke: #1f77b4"/>
     <use xlink:href="#m6d72dd6133" x="108.588208" y="47.428805" style="fill: #1f77b4; stroke: #1f77b4"/>
     <use xlink:href="#m6d72dd6133" x="138.706023" y="42.454891" style="fill: #1f77b4; stroke: #1f77b4"/>
     <use xlink:href="#m6d72dd6133" x="147.394855" y="30.766125" style="fill: #1f77b4; stroke: #1f77b4"/>
     <use xlink:href="#m6d72dd6133" x="206.766826" y="19.296" style="fill: #1f77b4; stroke: #1f77b4"/>
     <use xlink:href="#m6d72dd6133" x="234.937632" y="22.174145" style="fill: #1f77b4; stroke: #1f77b4"/>
     <use xlink:href="#m6d72dd6133" x="88.837022" y="71.991492" style="fill: #1f77b4; stroke: #1f77b4"/>
     <use xlink:href="#m6d72dd6133" x="135.004821" y="45.317347" style="fill: #1f77b4; stroke: #1f77b4"/>
     <use xlink:href="#m6d72dd6133" x="145.556323" y="28.038982" style="fill: #1f77b4; stroke: #1f77b4"/>
     <use xlink:href="#m6d72dd6133" x="130.747994" y="39.595206" style="fill: #1f77b4; stroke: #1f77b4"/>
     <use xlink:href="#m6d72dd6133" x="49.104477" y="72.632096" style="fill: #1f77b4; stroke: #1f77b4"/>
     <use xlink:href="#m6d72dd6133" x="86.11229" y="58.665765" style="fill: #1f77b4; stroke: #1f77b4"/>
     <use xlink:href="#m6d72dd6133" x="357.055461" y="199.364687" style="fill: #1f77b4; stroke: #1f77b4"/>
     <use xlink:href="#m6d72dd6133" x="175.461605" y="30.776081" style="fill: #1f77b4; stroke: #1f77b4"/>
     <use xlink:href="#m6d72dd6133" x="357.528936" y="200.510855" style="fill: #1f77b4; stroke: #1f77b4"/>
     <use xlink:href="#m6d72dd6133" x="373.759023" y="261.216" style="fill: #1f77b4; stroke: #1f77b4"/>
     <use xlink:href="#m6d72dd6133" x="154.682063" y="38.194202" style="fill: #1f77b4; stroke: #1f77b4"/>
     <use xlink:href="#m6d72dd6133" x="97.803776" y="59.351635" style="fill: #1f77b4; stroke: #1f77b4"/>
    </g>
   </g>
   <g id="line2d_14">
    <path d="M 49.104477 66.809875 
L 52.383817 65.913916 
L 55.663157 65.017957 
L 58.942496 64.122006 
L 62.221836 63.22605 
L 65.501175 62.330099 
L 68.78051 61.434146 
L 72.059849 60.538186 
L 75.339189 59.642238 
L 78.618528 58.746263 
L 81.897868 57.850312 
L 85.177202 56.954366 
L 88.456542 56.058405 
L 91.735881 55.162451 
L 95.015221 54.266492 
L 98.294561 53.370535 
L 101.5739 52.474579 
L 104.85324 51.578617 
L 108.132579 50.682661 
L 111.411919 49.786716 
L 114.691259 48.890754 
L 117.970598 47.994803 
L 121.249927 47.098852 
L 124.529278 46.20289 
L 127.808606 45.306939 
L 131.087957 44.410966 
L 134.367285 43.515027 
L 137.646636 42.619065 
L 140.925965 41.723119 
L 144.205304 40.827152 
L 147.484644 39.931201 
L 150.763984 39.035245 
L 154.043323 38.139288 
L 157.322663 37.243332 
L 160.602002 36.355311 
L 163.881342 35.503574 
L 167.160682 34.651859 
L 170.440021 33.800127 
L 173.719361 32.948396 
L 176.9987 32.09667 
L 180.27804 31.244927 
L 183.557369 30.271988 
L 186.836708 29.265895 
L 190.116048 28.259813 
L 193.395388 27.25372 
L 196.674727 26.254878 
L 199.954078 25.258 
L 203.233406 24.261139 
L 206.512735 23.264284 
L 209.792086 23.182743 
L 213.071414 23.164097 
L 216.350743 23.144876 
L 219.630094 23.125666 
L 222.909444 23.106456 
L 226.188773 23.112118 
L 229.468101 23.490451 
L 232.747452 23.939928 
L 236.026803 24.681147 
L 239.306131 25.481977 
L 242.58546 26.282812 
L 245.864811 27.083647 
L 249.144139 27.884488 
L 252.423468 28.685312 
L 255.702818 29.486141 
L 258.982169 30.286982 
L 262.261498 31.087812 
L 265.540826 31.888658 
L 268.820177 32.689482 
L 272.099527 33.505901 
L 275.378856 34.322326 
L 278.658185 35.13875 
L 281.937535 35.955181 
L 285.216864 38.714988 
L 288.496215 44.766177 
L 291.775543 51.939854 
L 295.054894 59.113594 
L 298.334222 66.28736 
L 301.613573 73.461106 
L 304.892902 80.634791 
L 308.172252 87.80854 
L 311.451581 94.982264 
L 314.73091 102.155971 
L 318.01026 109.329742 
L 321.289611 116.61408 
L 324.568939 124.35766 
L 327.848268 132.101179 
L 331.127619 139.844816 
L 334.406947 147.588362 
L 337.686298 155.331972 
L 340.965627 163.075571 
L 344.244977 171.62283 
L 347.524306 180.323872 
L 350.803656 189.025002 
L 354.082985 197.726065 
L 357.362336 206.427135 
L 360.641664 215.128226 
L 363.921015 223.829361 
L 367.200343 232.53043 
L 370.479694 241.231544 
L 373.759023 249.932591 
" clip-path="url(#p14e5d48d70)" style="fill: none; stroke: #ff7f0e; stroke-width: 1.2; stroke-linecap: round"/>
   </g>
   <g id="patch_3">
    <path d="M 32.87175 245.387617 
L 32.87175 23.186122 
" style="fill: none; stroke: #262626; stroke-linejoin: miter; stroke-linecap: square"/>
   </g>
   <g id="patch_4">
    <path d="M 86.122558 273.312 
L 379.839763 273.312 
" style="fill: none; stroke: #262626; stroke-linejoin: miter; stroke-linecap: square"/>
   </g>
  </g>
 </g>
 <defs>
  <clipPath id="p14e5d48d70">
   <rect x="32.87175" y="7.2" width="357.12" height="266.112"/>
  </clipPath>
 </defs>
</svg>