<?xml version="1.0" encoding="utf-8" standalone="no"?>
<!DOCTYPE svg PUBLIC "-//W3C//DTD SVG 1.1//EN"
  "http://www.w3.org/Graphics/SVG/1.1/DTD/svg11.dtd">
<svg xmlns:xlink="http://www.w3.org/1999/xlink" width="457.92pt" height="342.72pt" viewBox="0 0 457.92 342.72" xmlns="http://www.w3.org/2000/svg" version="1.1">
 <metadata>
  <rdf:RDF xmlns:dc="http://purl.org/dc/elements/1.1/" xmlns:cc="http://creativecommons.org/ns#" xmlns:rdf="http://www.w3.org/1999/02/22-rdf-syntax-ns#">
   <cc:Work>
    <dc:type rdf:resource="http://purl.org/dc/dcmitype/StillImage"/>
    <dc:date>2025-06-16T18:03:18.004393</dc:date>
    <dc:format>image/svg+xml</dc:format>
    <dc:creator>
     <cc:Agent>
      <dc:title>Matplotlib v3.9.2, https://matplotlib.org/</dc:title>
     </cc:Agent>
    </dc:creator>
   </cc:Work>
  </rdf:RDF>
 </metadata>
 <defs>
  <style type="text/css">*{stroke-linejoin: round; stroke-linecap: butt}</style>
 </defs>
 <g id="figure_1">
  <g id="patch_1">
   <path d="M 0 342.72 
L 457.92 342.72 
L 457.92 0 
L 0 0 
z
" style="fill: #ffffff"/>
  </g>
  <g id="axes_1">
   <g id="patch_2">
    <path d="M 38.045938 313.502812 
L 450.72 313.502812 
L 450.72 19.27875 
L 38.045938 19.27875 
z
" style="fill: #ffffff"/>
   </g>
   <g id="matplotlib.axis_1">
    <g id="xtick_1">
     <g id="line2d_1"/>
     <g id="text_1">
      <!-- −4 -->
      <g style="fill: #262626" transform="translate(51.644084 322.321719) scale(0.07 -0.07)">
       <defs>
        <path id="DejaVuSerif-2212" d="M 678 2259 
L 4684 2259 
L 4684 1753 
L 678 1753 
L 678 2259 
z
" transform="scale(0.015625)"/>
        <path id="DejaVuSerif-34" d="M 2234 1581 
L 2234 4063 
L 641 1581 
L 2234 1581 
z
M 3609 0 
L 1484 0 
L 1484 331 
L 2234 331 
L 2234 1247 
L 197 1247 
L 197 1588 
L 2241 4750 
L 2859 4750 
L 2859 1581 
L 3750 1581 
L 3750 1247 
L 2859 1247 
L 2859 331 
L 3609 331 
L 3609 0 
z
" transform="scale(0.015625)"/>
       </defs>
       <use xlink:href="#DejaVuSerif-2212"/>
       <use xlink:href="#DejaVuSerif-34" x="83.789062"/>
      </g>
     </g>
    </g>
    <g id="xtick_2">
     <g id="line2d_2"/>
     <g id="text_2">
      <!-- −3 -->
      <g style="fill: #262626" transform="translate(98.538864 322.321719) scale(0.07 -0.07)">
       <defs>
        <path id="DejaVuSerif-33" d="M 622 4469 
Q 988 4606 1323 4678 
Q 1659 4750 1953 4750 
Q 2638 4750 3022 4454 
Q 3406 4159 3406 3634 
Q 3406 3213 3140 2930 
Q 2875 2647 2388 2547 
Q 2963 2466 3280 2130 
Q 3597 1794 3597 1259 
Q 3597 606 3158 257 
Q 2719 -91 1894 -91 
Q 1528 -91 1179 -12 
Q 831 66 488 225 
L 488 1131 
L 838 1131 
Q 869 681 1141 450 
Q 1413 219 1906 219 
Q 2384 219 2661 495 
Q 2938 772 2938 1253 
Q 2938 1803 2653 2086 
Q 2369 2369 1819 2369 
L 1522 2369 
L 1522 2688 
L 1678 2688 
Q 2225 2688 2498 2914 
Q 2772 3141 2772 3597 
Q 2772 4006 2547 4223 
Q 2322 4441 1900 4441 
Q 1478 4441 1245 4241 
Q 1013 4041 972 3647 
L 622 3647 
L 622 4469 
z
" transform="scale(0.015625)"/>
       </defs>
       <use xlink:href="#DejaVuSerif-2212"/>
       <use xlink:href="#DejaVuSerif-33" x="83.789062"/>
      </g>
     </g>
    </g>
    <g id="xtick_3">
     <g id="line2d_3"/>
     <g id="text_3">
      <!-- −2 -->
      <g style="fill: #262626" transform="translate(145.433643 322.321719) scale(0.07 -0.07)">
       <defs>
        <path id="DejaVuSerif-32" d="M 819 3553 
L 469 3553 
L 469 4384 
Q 803 4563 1142 4656 
Q 1481 4750 1806 4750 
Q 2534 4750 2956 4397 
Q 3378 4044 3378 3438 
Q 3378 2753 2422 1800 
Q 2347 1728 2309 1691 
L 1131 513 
L 3078 513 
L 3078 1088 
L 3444 1088 
L 3444 0 
L 434 0 
L 434 341 
L 1850 1753 
Q 2319 2222 2519 2614 
Q 2719 3006 2719 3438 
Q 2719 3909 2473 4175 
Q 2228 4441 1797 4441 
Q 1350 4441 1106 4219 
Q 863 3997 819 3553 
z
" transform="scale(0.015625)"/>
       </defs>
       <use xlink:href="#DejaVuSerif-2212"/>
       <use xlink:href="#DejaVuSerif-32" x="83.789062"/>
      </g>
     </g>
    </g>
    <g id="xtick_4">
     <g id="line2d_4"/>
     <g id="text_4">
      <!-- −1 -->
      <g style="fill: #262626" transform="translate(192.328423 322.321719) scale(0.07 -0.07)">
       <defs>
        <path id="DejaVuSerif-31" d="M 909 0 
L 909 331 
L 1722 331 
L 1722 4213 
L 781 3603 
L 781 4013 
L 1919 4750 
L 2350 4750 
L 2350 331 
L 3163 331 
L 3163 0 
L 909 0 
z
" transform="scale(0.015625)"/>
       </defs>
       <use xlink:href="#DejaVuSerif-2212"/>
       <use xlink:href="#DejaVuSerif-31" x="83.789062"/>
      </g>
     </g>
    </g>
    <g id="xtick_5">
     <g id="line2d_5"/>
     <g id="text_5">
      <!-- 0 -->
      <g style="fill: #262626" transform="translate(242.156094 322.321719) scale(0.07 -0.07)">
       <defs>
        <path id="DejaVuSerif-30" d="M 2034 219 
Q 2513 219 2750 744 
Q 2988 1269 2988 2328 
Q 2988 3391 2750 3916 
Q 2513 4441 2034 4441 
Q 1556 4441 1318 3916 
Q 1081 3391 1081 2328 
Q 1081 1269 1318 744 
Q 1556 219 2034 219 
z
M 2034 -91 
Q 1275 -91 848 546 
Q 422 1184 422 2328 
Q 422 3475 848 4112 
Q 1275 4750 2034 4750 
Q 2797 4750 3222 4112 
Q 3647 3475 3647 2328 
Q 3647 1184 3222 546 
Q 2797 -91 2034 -91 
z
" transform="scale(0.015625)"/>
       </defs>
       <use xlink:href="#DejaVuSerif-30"/>
      </g>
     </g>
    </g>
    <g id="xtick_6">
     <g id="line2d_6"/>
     <g id="text_6">
      <!-- 1 -->
      <g style="fill: #262626" transform="translate(289.050874 322.321719) scale(0.07 -0.07)">
       <use xlink:href="#DejaVuSerif-31"/>
      </g>
     </g>
    </g>
    <g id="xtick_7">
     <g id="line2d_7"/>
     <g id="text_7">
      <!-- 2 -->
      <g style="fill: #262626" transform="translate(335.945653 322.321719) scale(0.07 -0.07)">
       <use xlink:href="#DejaVuSerif-32"/>
      </g>
     </g>
    </g>
    <g id="xtick_8">
     <g id="line2d_8"/>
     <g id="text_8">
      <!-- 3 -->
      <g style="fill: #262626" transform="translate(382.840433 322.321719) scale(0.07 -0.07)">
       <use xlink:href="#DejaVuSerif-33"/>
      </g>
     </g>
    </g>
    <g id="xtick_9">
     <g id="line2d_9"/>
     <g id="text_9">
      <!-- 4 -->
      <g style="fill: #262626" transform="translate(429.735213 322.321719) scale(0.07 -0.07)">
       <use xlink:href="#DejaVuSerif-34"/>
      </g>
     </g>
    </g>
    <g id="text_10">
     <!-- $x$ -->
     <g style="fill: #262626" transform="translate(241.982969 333.85625) scale(0.08 -0.08)">
      <defs>
       <path id="DejaVuSans-Oblique-78" d="M 3841 3500 
L 2234 1784 
L 3219 0 
L 2559 0 
L 1819 1388 
L 531 0 
L -166 0 
L 1556 1844 
L 641 3500 
L 1300 3500 
L 1972 2234 
L 3144 3500 
L 3841 3500 
z
" transform="scale(0.015625)"/>
      </defs>
      <use xlink:href="#DejaVuSans-Oblique-78" transform="translate(0 0.3125)"/>
     </g>
    </g>
   </g>
   <g id="matplotlib.axis_2">
    <g id="ytick_1">
     <g id="line2d_10"/>
     <g id="text_11">
      <!-- 0.00 -->
      <g style="fill: #262626" transform="translate(18.96 302.789441) scale(0.07 -0.07)">
       <defs>
        <path id="DejaVuSerif-2e" d="M 603 325 
Q 603 500 722 622 
Q 841 744 1019 744 
Q 1191 744 1312 622 
Q 1434 500 1434 325 
Q 1434 153 1312 31 
Q 1191 -91 1019 -91 
Q 841 -91 722 29 
Q 603 150 603 325 
z
" transform="scale(0.015625)"/>
       </defs>
       <use xlink:href="#DejaVuSerif-30"/>
       <use xlink:href="#DejaVuSerif-2e" x="63.623047"/>
       <use xlink:href="#DejaVuSerif-30" x="95.410156"/>
       <use xlink:href="#DejaVuSerif-30" x="159.033203"/>
      </g>
     </g>
    </g>
    <g id="ytick_2">
     <g id="line2d_11"/>
     <g id="text_12">
      <!-- 0.05 -->
      <g style="fill: #262626" transform="translate(18.96 269.264408) scale(0.07 -0.07)">
       <defs>
        <path id="DejaVuSerif-35" d="M 3219 4666 
L 3219 4153 
L 1081 4153 
L 1081 2816 
Q 1244 2928 1461 2984 
Q 1678 3041 1947 3041 
Q 2703 3041 3140 2622 
Q 3578 2203 3578 1478 
Q 3578 738 3136 323 
Q 2694 -91 1894 -91 
Q 1572 -91 1234 -12 
Q 897 66 544 225 
L 544 1131 
L 897 1131 
Q 925 688 1179 453 
Q 1434 219 1894 219 
Q 2388 219 2653 544 
Q 2919 869 2919 1478 
Q 2919 2084 2655 2407 
Q 2391 2731 1894 2731 
Q 1613 2731 1398 2631 
Q 1184 2531 1019 2322 
L 750 2322 
L 750 4666 
L 3219 4666 
z
" transform="scale(0.015625)"/>
       </defs>
       <use xlink:href="#DejaVuSerif-30"/>
       <use xlink:href="#DejaVuSerif-2e" x="63.623047"/>
       <use xlink:href="#DejaVuSerif-30" x="95.410156"/>
       <use xlink:href="#DejaVuSerif-35" x="159.033203"/>
      </g>
     </g>
    </g>
    <g id="ytick_3">
     <g id="line2d_12"/>
     <g id="text_13">
      <!-- 0.10 -->
      <g style="fill: #262626" transform="translate(18.96 235.739375) scale(0.07 -0.07)">
       <use xlink:href="#DejaVuSerif-30"/>
       <use xlink:href="#DejaVuSerif-2e" x="63.623047"/>
       <use xlink:href="#DejaVuSerif-31" x="95.410156"/>
       <use xlink:href="#DejaVuSerif-30" x="159.033203"/>
      </g>
     </g>
    </g>
    <g id="ytick_4">
     <g id="line2d_13"/>
     <g id="text_14">
      <!-- 0.15 -->
      <g style="fill: #262626" transform="translate(18.96 202.214342) scale(0.07 -0.07)">
       <use xlink:href="#DejaVuSerif-30"/>
       <use xlink:href="#DejaVuSerif-2e" x="63.623047"/>
       <use xlink:href="#DejaVuSerif-31" x="95.410156"/>
       <use xlink:href="#DejaVuSerif-35" x="159.033203"/>
      </g>
     </g>
    </g>
    <g id="ytick_5">
     <g id="line2d_14"/>
     <g id="text_15">
      <!-- 0.20 -->
      <g style="fill: #262626" transform="translate(18.96 168.689309) scale(0.07 -0.07)">
       <use xlink:href="#DejaVuSerif-30"/>
       <use xlink:href="#DejaVuSerif-2e" x="63.623047"/>
       <use xlink:href="#DejaVuSerif-32" x="95.410156"/>
       <use xlink:href="#DejaVuSerif-30" x="159.033203"/>
      </g>
     </g>
    </g>
    <g id="ytick_6">
     <g id="line2d_15"/>
     <g id="text_16">
      <!-- 0.25 -->
      <g style="fill: #262626" transform="translate(18.96 135.164276) scale(0.07 -0.07)">
       <use xlink:href="#DejaVuSerif-30"/>
       <use xlink:href="#DejaVuSerif-2e" x="63.623047"/>
       <use xlink:href="#DejaVuSerif-32" x="95.410156"/>
       <use xlink:href="#DejaVuSerif-35" x="159.033203"/>
      </g>
     </g>
    </g>
    <g id="ytick_7">
     <g id="line2d_16"/>
     <g id="text_17">
      <!-- 0.30 -->
      <g style="fill: #262626" transform="translate(18.96 101.639243) scale(0.07 -0.07)">
       <use xlink:href="#DejaVuSerif-30"/>
       <use xlink:href="#DejaVuSerif-2e" x="63.623047"/>
       <use xlink:href="#DejaVuSerif-33" x="95.410156"/>
       <use xlink:href="#DejaVuSerif-30" x="159.033203"/>
      </g>
     </g>
    </g>
    <g id="ytick_8">
     <g id="line2d_17"/>
     <g id="text_18">
      <!-- 0.35 -->
      <g style="fill: #262626" transform="translate(18.96 68.11421) scale(0.07 -0.07)">
       <use xlink:href="#DejaVuSerif-30"/>
       <use xlink:href="#DejaVuSerif-2e" x="63.623047"/>
       <use xlink:href="#DejaVuSerif-33" x="95.410156"/>
       <use xlink:href="#DejaVuSerif-35" x="159.033203"/>
      </g>
     </g>
    </g>
    <g id="ytick_9">
     <g id="line2d_18"/>
     <g id="text_19">
      <!-- 0.40 -->
      <g style="fill: #262626" transform="translate(18.96 34.589177) scale(0.07 -0.07)">
       <use xlink:href="#DejaVuSerif-30"/>
       <use xlink:href="#DejaVuSerif-2e" x="63.623047"/>
       <use xlink:href="#DejaVuSerif-34" x="95.410156"/>
       <use xlink:href="#DejaVuSerif-30" x="159.033203"/>
      </g>
     </g>
    </g>
    <g id="text_20">
     <!-- $\phi(x)$ -->
     <g style="fill: #262626" transform="translate(13.28 174.550781) rotate(-90) scale(0.08 -0.08)">
      <defs>
       <path id="DejaVuSans-Oblique-3d5" d="M 2991 4863 
L 2738 3572 
Q 3363 3572 3684 3094 
Q 4016 2606 3850 1747 
Q 3681 888 3159 400 
Q 2653 -78 2028 -78 
L 1784 -1331 
L 1213 -1331 
L 1456 -78 
Q 834 -78 509 400 
Q 178 888 347 1747 
Q 513 2606 1034 3094 
Q 1544 3572 2166 3572 
L 2419 4863 
L 2991 4863 
z
M 2128 434 
Q 2481 434 2784 756 
Q 3116 1116 3244 1747 
Q 3369 2372 3169 2738 
Q 2991 3059 2638 3059 
L 2128 434 
z
M 1556 434 
L 2066 3059 
Q 1716 3059 1413 2738 
Q 1072 2372 953 1747 
Q 834 1116 1028 756 
Q 1203 434 1556 434 
z
" transform="scale(0.015625)"/>
       <path id="DejaVuSans-28" d="M 1984 4856 
Q 1566 4138 1362 3434 
Q 1159 2731 1159 2009 
Q 1159 1288 1364 580 
Q 1569 -128 1984 -844 
L 1484 -844 
Q 1016 -109 783 600 
Q 550 1309 550 2009 
Q 550 2706 781 3412 
Q 1013 4119 1484 4856 
L 1984 4856 
z
" transform="scale(0.015625)"/>
       <path id="DejaVuSans-29" d="M 513 4856 
L 1013 4856 
Q 1481 4119 1714 3412 
Q 1947 2706 1947 2009 
Q 1947 1309 1714 600 
Q 1481 -109 1013 -844 
L 513 -844 
Q 928 -128 1133 580 
Q 1338 1288 1338 2009 
Q 1338 2731 1133 3434 
Q 928 4138 513 4856 
z
" transform="scale(0.015625)"/>
      </defs>
      <use xlink:href="#DejaVuSans-Oblique-3d5" transform="translate(0 0.015625)"/>
      <use xlink:href="#DejaVuSans-28" transform="translate(65.966797 0.015625)"/>
      <use xlink:href="#DejaVuSans-Oblique-78" transform="translate(104.980469 0.015625)"/>
      <use xlink:href="#DejaVuSans-29" transform="translate(164.160156 0.015625)"/>
     </g>
    </g>
   </g>
   <g id="line2d_19">
    <path d="M 56.803849 300.040255 
L 60.593327 300.006418 
L 64.382804 299.96093 
L 68.172281 299.900201 
L 71.961758 299.819691 
L 75.751235 299.7137 
L 79.540712 299.575139 
L 83.33019 299.395272 
L 87.119667 299.16343 
L 90.909144 298.866705 
L 94.698621 298.489634 
L 98.488098 298.013877 
L 102.277575 297.417903 
L 106.067052 296.676703 
L 109.85653 295.761557 
L 113.646007 294.639857 
L 117.435484 293.275044 
L 121.224961 291.626653 
L 125.014438 289.650533 
L 128.803915 287.299233 
L 132.593393 284.522615 
L 136.38287 281.268695 
L 140.172347 277.484733 
L 143.961824 273.118591 
L 147.751301 268.120336 
L 151.540778 262.444084 
L 155.330256 256.050047 
L 159.119733 248.906735 
L 162.90921 240.993247 
L 166.698687 232.301569 
L 170.488164 222.838782 
L 174.277641 212.629081 
L 178.067118 201.715485 
L 181.856596 190.161125 
L 185.646073 178.050008 
L 189.43555 165.487155 
L 193.225027 152.598028 
L 197.014504 139.527205 
L 200.803981 126.436275 
L 204.593459 113.500951 
L 208.382936 100.907477 
L 212.172413 88.848384 
L 215.96189 77.517747 
L 219.751367 67.106082 
L 223.540844 57.795071 
L 227.330322 49.752319 
L 231.119799 43.126351 
L 234.909276 38.042054 
L 238.698753 34.596765 
L 242.48823 32.857174 
L 246.277707 32.857174 
L 250.067184 34.596765 
L 253.856662 38.042054 
L 257.646139 43.126351 
L 261.435616 49.752319 
L 265.225093 57.795071 
L 269.01457 67.106082 
L 272.804047 77.517747 
L 276.593525 88.848384 
L 280.383002 100.907477 
L 284.172479 113.500951 
L 287.961956 126.436275 
L 291.751433 139.527205 
L 295.54091 152.598028 
L 299.330388 165.487155 
L 303.119865 178.050008 
L 306.909342 190.161125 
L 310.698819 201.715485 
L 314.488296 212.629081 
L 318.277773 222.838782 
L 322.06725 232.301569 
L 325.856728 240.993247 
L 329.646205 248.906735 
L 333.435682 256.050047 
L 337.225159 262.444084 
L 341.014636 268.120336 
L 344.804113 273.118591 
L 348.593591 277.484733 
L 352.383068 281.268695 
L 356.172545 284.522615 
L 359.962022 287.299233 
L 363.751499 289.650533 
L 367.540976 291.626653 
L 371.330454 293.275044 
L 375.119931 294.639857 
L 378.909408 295.761557 
L 382.698885 296.676703 
L 386.488362 297.417903 
L 390.277839 298.013877 
L 394.067316 298.489634 
L 397.856794 298.866705 
L 401.646271 299.16343 
L 405.435748 299.395272 
L 409.225225 299.575139 
L 413.014702 299.7137 
L 416.804179 299.819691 
L 420.593657 299.900201 
L 424.383134 299.96093 
L 428.172611 300.006418 
L 431.962088 300.040255 
" clip-path="url(#paae8c05ac1)" style="fill: none; stroke: #4c72b0; stroke-linecap: round"/>
   </g>
   <g id="line2d_20">
    <path d="M 56.803849 300.128991 
L 60.593327 300.1285 
L 64.382804 300.127781 
L 68.172281 300.126735 
L 71.961758 300.125226 
L 75.751235 300.123061 
L 79.540712 300.119979 
L 83.33019 300.115618 
L 87.119667 300.109493 
L 90.909144 300.100946 
L 94.698621 300.089104 
L 98.488098 300.072807 
L 102.277575 300.050535 
L 106.067052 300.020306 
L 109.85653 299.979562 
L 113.646007 299.925026 
L 117.435484 299.852534 
L 121.224961 299.756849 
L 125.014438 299.631432 
L 128.803915 299.468195 
L 132.593393 299.257229 
L 136.38287 298.986502 
L 140.172347 298.641549 
L 143.961824 298.205145 
L 147.751301 297.65699 
L 151.540778 296.973412 
L 155.330256 296.127105 
L 159.119733 295.086935 
L 162.90921 293.817824 
L 166.698687 292.280757 
L 170.488164 290.43293 
L 174.277641 288.228069 
L 178.067118 285.61696 
L 181.856596 282.548194 
L 185.646073 278.969173 
L 189.43555 274.827356 
L 193.225027 270.071781 
L 197.014504 264.654815 
L 200.803981 258.534132 
L 204.593459 251.674867 
L 208.382936 244.051876 
L 212.172413 235.652047 
L 215.96189 226.47655 
L 219.751367 216.542945 
L 223.540844 205.887014 
L 227.330322 194.564227 
L 231.119799 182.650711 
L 234.909276 170.243634 
L 238.698753 157.460905 
L 242.48823 144.440141 
L 246.277707 131.336846 
L 250.067184 118.321824 
L 253.856662 105.577833 
L 257.646139 93.295578 
L 261.435616 81.669139 
L 265.225093 70.890979 
L 269.01457 61.146712 
L 272.804047 52.609828 
L 276.593525 45.436568 
L 280.383002 39.761181 
L 284.172479 35.691746 
L 287.961956 33.30675 
L 291.751433 32.652571 
L 295.54091 33.74198 
L 299.330388 36.553722 
L 303.119865 41.03321 
L 306.909342 47.094284 
L 310.698819 54.621972 
L 314.488296 63.476107 
L 318.277773 73.495675 
L 322.06725 84.503665 
L 325.856728 96.312253 
L 329.646205 108.728087 
L 333.435682 121.557478 
L 337.225159 134.611299 
L 341.014636 147.709427 
L 344.804113 160.684601 
L 348.593591 173.385574 
L 352.383068 185.679516 
L 356.172545 197.453637 
L 359.962022 208.616029 
L 363.751499 219.095789 
L 367.540976 228.842482 
L 371.330454 237.825033 
L 375.119931 246.030167 
L 378.909408 253.460488 
L 382.698885 260.132331 
L 386.488362 266.073487 
L 390.277839 271.320895 
L 394.067316 275.918402 
L 397.856794 279.914652 
L 401.646271 283.361158 
L 405.435748 286.310605 
L 409.225225 288.815404 
L 413.014702 290.926496 
L 416.804179 292.692423 
L 420.593657 294.158632 
L 424.383134 295.367002 
L 428.172611 296.355573 
L 431.962088 297.158431 
" clip-path="url(#paae8c05ac1)" style="fill: none; stroke: #dd8452; stroke-linecap: round"/>
   </g>
   <g id="patch_3">
    <path d="M 38.045938 300.129988 
L 38.045938 31.929724 
" style="fill: none; stroke: #262626; stroke-width: 0.5; stroke-linejoin: miter; stroke-linecap: square"/>
   </g>
   <g id="patch_4">
    <path d="M 56.803849 313.502812 
L 431.962088 313.502812 
" style="fill: none; stroke: #262626; stroke-width: 0.5; stroke-linejoin: miter; stroke-linecap: square"/>
   </g>
   <g id="patch_5">
    <path d="M 246.383668 31.929724 
Q 267.831935 31.929724 287.044135 31.929724 
" style="fill: none; stroke: #55a868; stroke-width: 2; stroke-linecap: round"/>
    <path d="M 283.844135 30.329724 
L 287.044135 31.929724 
L 283.844135 33.529724 
" style="fill: none; stroke: #55a868; stroke-width: 2; stroke-linecap: round"/>
   </g>
   <g id="text_21">
    <!-- The mean translates the standard normal PDF -->
    <g style="fill: #262626" transform="translate(150.178594 13.27875) scale(0.08 -0.08)">
     <defs>
      <path id="DejaVuSerif-54" d="M 1222 0 
L 1222 331 
L 1819 331 
L 1819 4294 
L 447 4294 
L 447 3566 
L 63 3566 
L 63 4666 
L 4206 4666 
L 4206 3566 
L 3822 3566 
L 3822 4294 
L 2450 4294 
L 2450 331 
L 3047 331 
L 3047 0 
L 1222 0 
z
" transform="scale(0.015625)"/>
      <path id="DejaVuSerif-68" d="M 263 0 
L 263 331 
L 781 331 
L 781 4531 
L 231 4531 
L 231 4863 
L 1356 4863 
L 1356 2731 
Q 1516 3069 1770 3241 
Q 2025 3413 2363 3413 
Q 2913 3413 3172 3097 
Q 3431 2781 3431 2113 
L 3431 331 
L 3944 331 
L 3944 0 
L 2356 0 
L 2356 331 
L 2853 331 
L 2853 1931 
Q 2853 2541 2704 2764 
Q 2556 2988 2175 2988 
Q 1775 2988 1565 2697 
Q 1356 2406 1356 1850 
L 1356 331 
L 1856 331 
L 1856 0 
L 263 0 
z
" transform="scale(0.015625)"/>
      <path id="DejaVuSerif-65" d="M 3469 1600 
L 991 1600 
L 991 1575 
Q 991 903 1244 561 
Q 1497 219 1991 219 
Q 2369 219 2611 417 
Q 2853 616 2950 1006 
L 3413 1006 
Q 3275 459 2904 184 
Q 2534 -91 1931 -91 
Q 1203 -91 761 389 
Q 319 869 319 1663 
Q 319 2450 753 2931 
Q 1188 3413 1894 3413 
Q 2647 3413 3050 2948 
Q 3453 2484 3469 1600 
z
M 2791 1931 
Q 2772 2513 2545 2808 
Q 2319 3103 1894 3103 
Q 1497 3103 1269 2806 
Q 1041 2509 991 1931 
L 2791 1931 
z
" transform="scale(0.015625)"/>
      <path id="DejaVuSerif-20" transform="scale(0.015625)"/>
      <path id="DejaVuSerif-6d" d="M 3316 2675 
Q 3481 3041 3739 3227 
Q 3997 3413 4341 3413 
Q 4863 3413 5119 3089 
Q 5375 2766 5375 2113 
L 5375 331 
L 5894 331 
L 5894 0 
L 4300 0 
L 4300 331 
L 4800 331 
L 4800 2047 
Q 4800 2556 4650 2772 
Q 4500 2988 4153 2988 
Q 3769 2988 3567 2697 
Q 3366 2406 3366 1850 
L 3366 331 
L 3866 331 
L 3866 0 
L 2291 0 
L 2291 331 
L 2791 331 
L 2791 2069 
Q 2791 2566 2641 2777 
Q 2491 2988 2144 2988 
Q 1759 2988 1557 2697 
Q 1356 2406 1356 1850 
L 1356 331 
L 1856 331 
L 1856 0 
L 263 0 
L 263 331 
L 781 331 
L 781 2994 
L 231 2994 
L 231 3322 
L 1356 3322 
L 1356 2731 
Q 1516 3063 1762 3238 
Q 2009 3413 2322 3413 
Q 2709 3413 2968 3220 
Q 3228 3028 3316 2675 
z
" transform="scale(0.015625)"/>
      <path id="DejaVuSerif-61" d="M 2547 1044 
L 2547 1747 
L 1806 1747 
Q 1378 1747 1168 1562 
Q 959 1378 959 997 
Q 959 650 1171 447 
Q 1384 244 1747 244 
Q 2106 244 2326 466 
Q 2547 688 2547 1044 
z
M 3122 2075 
L 3122 331 
L 3634 331 
L 3634 0 
L 2547 0 
L 2547 359 
Q 2356 128 2106 18 
Q 1856 -91 1522 -91 
Q 969 -91 644 203 
Q 319 497 319 997 
Q 319 1513 691 1797 
Q 1063 2081 1741 2081 
L 2547 2081 
L 2547 2309 
Q 2547 2688 2317 2895 
Q 2088 3103 1672 3103 
Q 1328 3103 1125 2947 
Q 922 2791 872 2484 
L 575 2484 
L 575 3156 
Q 875 3284 1158 3348 
Q 1441 3413 1709 3413 
Q 2400 3413 2761 3070 
Q 3122 2728 3122 2075 
z
" transform="scale(0.015625)"/>
      <path id="DejaVuSerif-6e" d="M 263 0 
L 263 331 
L 781 331 
L 781 2988 
L 231 2988 
L 231 3322 
L 1356 3322 
L 1356 2731 
Q 1516 3069 1770 3241 
Q 2025 3413 2363 3413 
Q 2913 3413 3172 3097 
Q 3431 2781 3431 2113 
L 3431 331 
L 3944 331 
L 3944 0 
L 2356 0 
L 2356 331 
L 2853 331 
L 2853 1931 
Q 2853 2541 2703 2767 
Q 2553 2994 2175 2994 
Q 1775 2994 1565 2701 
Q 1356 2409 1356 1850 
L 1356 331 
L 1856 331 
L 1856 0 
L 263 0 
z
" transform="scale(0.015625)"/>
      <path id="DejaVuSerif-74" d="M 691 2988 
L 184 2988 
L 184 3322 
L 691 3322 
L 691 4353 
L 1269 4353 
L 1269 3322 
L 2350 3322 
L 2350 2988 
L 1269 2988 
L 1269 878 
Q 1269 456 1350 337 
Q 1431 219 1650 219 
Q 1875 219 1978 351 
Q 2081 484 2088 781 
L 2522 781 
Q 2497 328 2275 118 
Q 2053 -91 1600 -91 
Q 1103 -91 897 129 
Q 691 350 691 878 
L 691 2988 
z
" transform="scale(0.015625)"/>
      <path id="DejaVuSerif-72" d="M 3059 3328 
L 3059 2497 
L 2728 2497 
Q 2713 2744 2591 2866 
Q 2469 2988 2234 2988 
Q 1809 2988 1582 2694 
Q 1356 2400 1356 1850 
L 1356 331 
L 2022 331 
L 2022 0 
L 263 0 
L 263 331 
L 781 331 
L 781 2994 
L 231 2994 
L 231 3322 
L 1356 3322 
L 1356 2731 
Q 1525 3078 1790 3245 
Q 2056 3413 2438 3413 
Q 2578 3413 2733 3391 
Q 2888 3369 3059 3328 
z
" transform="scale(0.015625)"/>
      <path id="DejaVuSerif-73" d="M 359 184 
L 359 959 
L 691 959 
Q 703 588 923 403 
Q 1144 219 1575 219 
Q 1963 219 2166 364 
Q 2369 509 2369 788 
Q 2369 1006 2220 1140 
Q 2072 1275 1594 1428 
L 1178 1569 
Q 750 1706 558 1912 
Q 366 2119 366 2438 
Q 366 2894 700 3153 
Q 1034 3413 1625 3413 
Q 1888 3413 2178 3344 
Q 2469 3275 2778 3144 
L 2778 2419 
L 2447 2419 
Q 2434 2741 2221 2922 
Q 2009 3103 1644 3103 
Q 1281 3103 1095 2975 
Q 909 2847 909 2591 
Q 909 2381 1050 2254 
Q 1191 2128 1613 1997 
L 2069 1856 
Q 2541 1709 2748 1489 
Q 2956 1269 2956 922 
Q 2956 450 2595 179 
Q 2234 -91 1600 -91 
Q 1278 -91 972 -22 
Q 666 47 359 184 
z
" transform="scale(0.015625)"/>
      <path id="DejaVuSerif-6c" d="M 1313 331 
L 1856 331 
L 1856 0 
L 184 0 
L 184 331 
L 738 331 
L 738 4531 
L 184 4531 
L 184 4863 
L 1313 4863 
L 1313 331 
z
" transform="scale(0.015625)"/>
      <path id="DejaVuSerif-64" d="M 3359 331 
L 3909 331 
L 3909 0 
L 2784 0 
L 2784 519 
Q 2616 206 2355 57 
Q 2094 -91 1709 -91 
Q 1097 -91 708 395 
Q 319 881 319 1663 
Q 319 2444 706 2928 
Q 1094 3413 1709 3413 
Q 2094 3413 2355 3264 
Q 2616 3116 2784 2803 
L 2784 4531 
L 2241 4531 
L 2241 4863 
L 3359 4863 
L 3359 331 
z
M 2784 1497 
L 2784 1825 
Q 2784 2422 2554 2737 
Q 2325 3053 1888 3053 
Q 1444 3053 1217 2703 
Q 991 2353 991 1663 
Q 991 975 1217 622 
Q 1444 269 1888 269 
Q 2325 269 2554 583 
Q 2784 897 2784 1497 
z
" transform="scale(0.015625)"/>
      <path id="DejaVuSerif-6f" d="M 1925 219 
Q 2388 219 2623 584 
Q 2859 950 2859 1663 
Q 2859 2375 2623 2739 
Q 2388 3103 1925 3103 
Q 1463 3103 1227 2739 
Q 991 2375 991 1663 
Q 991 950 1228 584 
Q 1466 219 1925 219 
z
M 1925 -91 
Q 1200 -91 759 389 
Q 319 869 319 1663 
Q 319 2456 758 2934 
Q 1197 3413 1925 3413 
Q 2653 3413 3092 2934 
Q 3531 2456 3531 1663 
Q 3531 869 3092 389 
Q 2653 -91 1925 -91 
z
" transform="scale(0.015625)"/>
      <path id="DejaVuSerif-50" d="M 1581 2375 
L 2406 2375 
Q 2872 2375 3115 2626 
Q 3359 2878 3359 3353 
Q 3359 3831 3115 4081 
Q 2872 4331 2406 4331 
L 1581 4331 
L 1581 2375 
z
M 353 0 
L 353 331 
L 947 331 
L 947 4331 
L 353 4331 
L 353 4666 
L 2559 4666 
Q 3259 4666 3668 4311 
Q 4078 3956 4078 3353 
Q 4078 2753 3668 2397 
Q 3259 2041 2559 2041 
L 1581 2041 
L 1581 331 
L 2303 331 
L 2303 0 
L 353 0 
z
" transform="scale(0.015625)"/>
      <path id="DejaVuSerif-44" d="M 1581 331 
L 2163 331 
Q 3072 331 3558 850 
Q 4044 1369 4044 2338 
Q 4044 3306 3559 3818 
Q 3075 4331 2163 4331 
L 1581 4331 
L 1581 331 
z
M 353 0 
L 353 331 
L 947 331 
L 947 4331 
L 353 4331 
L 353 4666 
L 2209 4666 
Q 3416 4666 4089 4050 
Q 4763 3434 4763 2338 
Q 4763 1238 4088 619 
Q 3413 0 2209 0 
L 353 0 
z
" transform="scale(0.015625)"/>
      <path id="DejaVuSerif-46" d="M 353 0 
L 353 331 
L 947 331 
L 947 4331 
L 353 4331 
L 353 4666 
L 4172 4666 
L 4172 3628 
L 3788 3628 
L 3788 4281 
L 1581 4281 
L 1581 2719 
L 3175 2719 
L 3175 3303 
L 3559 3303 
L 3559 1753 
L 3175 1753 
L 3175 2338 
L 1581 2338 
L 1581 331 
L 2328 331 
L 2328 0 
L 353 0 
z
" transform="scale(0.015625)"/>
     </defs>
     <use xlink:href="#DejaVuSerif-54"/>
     <use xlink:href="#DejaVuSerif-68" x="66.699219"/>
     <use xlink:href="#DejaVuSerif-65" x="131.103516"/>
     <use xlink:href="#DejaVuSerif-20" x="190.283203"/>
     <use xlink:href="#DejaVuSerif-6d" x="222.070312"/>
     <use xlink:href="#DejaVuSerif-65" x="316.894531"/>
     <use xlink:href="#DejaVuSerif-61" x="376.074219"/>
     <use xlink:href="#DejaVuSerif-6e" x="435.693359"/>
     <use xlink:href="#DejaVuSerif-20" x="500.097656"/>
     <use xlink:href="#DejaVuSerif-74" x="531.884766"/>
     <use xlink:href="#DejaVuSerif-72" x="572.070312"/>
     <use xlink:href="#DejaVuSerif-61" x="619.873047"/>
     <use xlink:href="#DejaVuSerif-6e" x="679.492188"/>
     <use xlink:href="#DejaVuSerif-73" x="743.896484"/>
     <use xlink:href="#DejaVuSerif-6c" x="795.214844"/>
     <use xlink:href="#DejaVuSerif-61" x="827.197266"/>
     <use xlink:href="#DejaVuSerif-74" x="886.816406"/>
     <use xlink:href="#DejaVuSerif-65" x="927.001953"/>
     <use xlink:href="#DejaVuSerif-73" x="986.181641"/>
     <use xlink:href="#DejaVuSerif-20" x="1037.5"/>
     <use xlink:href="#DejaVuSerif-74" x="1069.287109"/>
     <use xlink:href="#DejaVuSerif-68" x="1109.472656"/>
     <use xlink:href="#DejaVuSerif-65" x="1173.876953"/>
     <use xlink:href="#DejaVuSerif-20" x="1233.056641"/>
     <use xlink:href="#DejaVuSerif-73" x="1264.84375"/>
     <use xlink:href="#DejaVuSerif-74" x="1316.162109"/>
     <use xlink:href="#DejaVuSerif-61" x="1356.347656"/>
     <use xlink:href="#DejaVuSerif-6e" x="1415.966797"/>
     <use xlink:href="#DejaVuSerif-64" x="1480.371094"/>
     <use xlink:href="#DejaVuSerif-61" x="1544.384766"/>
     <use xlink:href="#DejaVuSerif-72" x="1604.003906"/>
     <use xlink:href="#DejaVuSerif-64" x="1651.806641"/>
     <use xlink:href="#DejaVuSerif-20" x="1715.820312"/>
     <use xlink:href="#DejaVuSerif-6e" x="1747.607422"/>
     <use xlink:href="#DejaVuSerif-6f" x="1812.011719"/>
     <use xlink:href="#DejaVuSerif-72" x="1872.216797"/>
     <use xlink:href="#DejaVuSerif-6d" x="1920.019531"/>
     <use xlink:href="#DejaVuSerif-61" x="2014.84375"/>
     <use xlink:href="#DejaVuSerif-6c" x="2074.462891"/>
     <use xlink:href="#DejaVuSerif-20" x="2106.445312"/>
     <use xlink:href="#DejaVuSerif-50" x="2138.232422"/>
     <use xlink:href="#DejaVuSerif-44" x="2205.517578"/>
     <use xlink:href="#DejaVuSerif-46" x="2285.693359"/>
    </g>
   </g>
   <g id="legend_1">
    <g id="line2d_21">
     <path d="M 365.39 28.44875 
L 372.39 28.44875 
L 379.39 28.44875 
" style="fill: none; stroke: #4c72b0; stroke-linecap: round"/>
    </g>
    <g id="text_22">
     <!-- $\phi(x)$ -->
     <g style="fill: #262626" transform="translate(384.99 30.89875) scale(0.07 -0.07)">
      <use xlink:href="#DejaVuSans-Oblique-3d5" transform="translate(0 0.015625)"/>
      <use xlink:href="#DejaVuSans-28" transform="translate(65.966797 0.015625)"/>
      <use xlink:href="#DejaVuSans-Oblique-78" transform="translate(104.980469 0.015625)"/>
      <use xlink:href="#DejaVuSans-29" transform="translate(164.160156 0.015625)"/>
     </g>
    </g>
    <g id="line2d_22">
     <path d="M 365.39 39.78875 
L 372.39 39.78875 
L 379.39 39.78875 
" style="fill: none; stroke: #dd8452; stroke-linecap: round"/>
    </g>
    <g id="text_23">
     <!-- $N(x|\mu=1,\sigma^2=1)$ -->
     <g style="fill: #262626" transform="translate(384.99 42.23875) scale(0.07 -0.07)">
      <defs>
       <path id="DejaVuSans-Oblique-4e" d="M 1081 4666 
L 1931 4666 
L 3219 666 
L 4000 4666 
L 4616 4666 
L 3706 0 
L 2853 0 
L 1569 4025 
L 788 0 
L 172 0 
L 1081 4666 
z
" transform="scale(0.015625)"/>
       <path id="DejaVuSans-7c" d="M 1344 4891 
L 1344 -1509 
L 813 -1509 
L 813 4891 
L 1344 4891 
z
" transform="scale(0.015625)"/>
       <path id="DejaVuSans-Oblique-3bc" d="M -84 -1331 
L 856 3500 
L 1434 3500 
L 1009 1322 
Q 997 1256 987 1175 
Q 978 1094 978 1013 
Q 978 722 1161 565 
Q 1344 409 1684 409 
Q 2147 409 2431 671 
Q 2716 934 2816 1459 
L 3213 3500 
L 3788 3500 
L 3266 809 
Q 3253 750 3248 706 
Q 3244 663 3244 628 
Q 3244 531 3283 486 
Q 3322 441 3406 441 
Q 3438 441 3492 456 
Q 3547 472 3647 513 
L 3559 50 
Q 3422 -19 3297 -55 
Q 3172 -91 3053 -91 
Q 2847 -91 2730 40 
Q 2613 172 2613 403 
Q 2438 153 2195 31 
Q 1953 -91 1625 -91 
Q 1334 -91 1117 43 
Q 900 178 831 397 
L 494 -1331 
L -84 -1331 
z
" transform="scale(0.015625)"/>
       <path id="DejaVuSans-3d" d="M 678 2906 
L 4684 2906 
L 4684 2381 
L 678 2381 
L 678 2906 
z
M 678 1631 
L 4684 1631 
L 4684 1100 
L 678 1100 
L 678 1631 
z
" transform="scale(0.015625)"/>
       <path id="DejaVuSans-31" d="M 794 531 
L 1825 531 
L 1825 4091 
L 703 3866 
L 703 4441 
L 1819 4666 
L 2450 4666 
L 2450 531 
L 3481 531 
L 3481 0 
L 794 0 
L 794 531 
z
" transform="scale(0.015625)"/>
       <path id="DejaVuSans-2c" d="M 750 794 
L 1409 794 
L 1409 256 
L 897 -744 
L 494 -744 
L 750 256 
L 750 794 
z
" transform="scale(0.015625)"/>
       <path id="DejaVuSans-Oblique-3c3" d="M 2219 3044 
Q 1744 3044 1422 2700 
Q 1081 2341 969 1747 
Q 844 1119 1044 756 
Q 1241 397 1706 397 
Q 2166 397 2503 759 
Q 2844 1122 2966 1747 
Q 3075 2319 2881 2700 
Q 2700 3044 2219 3044 
z
M 2309 3503 
L 4219 3500 
L 4106 2925 
L 3463 2925 
Q 3706 2438 3575 1747 
Q 3406 888 2884 400 
Q 2359 -91 1609 -91 
Q 856 -91 525 400 
Q 194 888 363 1747 
Q 528 2609 1050 3097 
Q 1484 3503 2309 3503 
z
" transform="scale(0.015625)"/>
       <path id="DejaVuSans-32" d="M 1228 531 
L 3431 531 
L 3431 0 
L 469 0 
L 469 531 
Q 828 903 1448 1529 
Q 2069 2156 2228 2338 
Q 2531 2678 2651 2914 
Q 2772 3150 2772 3378 
Q 2772 3750 2511 3984 
Q 2250 4219 1831 4219 
Q 1534 4219 1204 4116 
Q 875 4013 500 3803 
L 500 4441 
Q 881 4594 1212 4672 
Q 1544 4750 1819 4750 
Q 2544 4750 2975 4387 
Q 3406 4025 3406 3419 
Q 3406 3131 3298 2873 
Q 3191 2616 2906 2266 
Q 2828 2175 2409 1742 
Q 1991 1309 1228 531 
z
" transform="scale(0.015625)"/>
      </defs>
      <use xlink:href="#DejaVuSans-Oblique-4e" transform="translate(0 0.765625)"/>
      <use xlink:href="#DejaVuSans-28" transform="translate(74.804688 0.765625)"/>
      <use xlink:href="#DejaVuSans-Oblique-78" transform="translate(113.818359 0.765625)"/>
      <use xlink:href="#DejaVuSans-7c" transform="translate(172.998047 0.765625)"/>
      <use xlink:href="#DejaVuSans-Oblique-3bc" transform="translate(206.689453 0.765625)"/>
      <use xlink:href="#DejaVuSans-3d" transform="translate(289.794922 0.765625)"/>
      <use xlink:href="#DejaVuSans-31" transform="translate(393.066406 0.765625)"/>
      <use xlink:href="#DejaVuSans-2c" transform="translate(456.689453 0.765625)"/>
      <use xlink:href="#DejaVuSans-Oblique-3c3" transform="translate(507.958984 0.765625)"/>
      <use xlink:href="#DejaVuSans-32" transform="translate(575.810599 39.046875) scale(0.7)"/>
      <use xlink:href="#DejaVuSans-3d" transform="translate(642.563529 0.765625)"/>
      <use xlink:href="#DejaVuSans-31" transform="translate(745.835013 0.765625)"/>
      <use xlink:href="#DejaVuSans-29" transform="translate(809.45806 0.765625)"/>
     </g>
    </g>
   </g>
  </g>
 </g>
 <defs>
  <clipPath id="paae8c05ac1">
   <rect x="38.045938" y="19.27875" width="412.674062" height="294.224062"/>
  </clipPath>
 </defs>
</svg>