<?xml version="1.0" encoding="utf-8" standalone="no"?>
<!DOCTYPE svg PUBLIC "-//W3C//DTD SVG 1.1//EN"
  "http://www.w3.org/Graphics/SVG/1.1/DTD/svg11.dtd">
<svg xmlns:xlink="http://www.w3.org/1999/xlink" width="412.420125pt" height="309.639375pt" viewBox="0 0 412.420125 309.639375" xmlns="http://www.w3.org/2000/svg" version="1.1">
 <metadata>
  <rdf:RDF xmlns:dc="http://purl.org/dc/elements/1.1/" xmlns:cc="http://creativecommons.org/ns#" xmlns:rdf="http://www.w3.org/1999/02/22-rdf-syntax-ns#">
   <cc:Work>
    <dc:type rdf:resource="http://purl.org/dc/dcmitype/StillImage"/>
    <dc:date>2023-09-17T10:47:34.308047</dc:date>
    <dc:format>image/svg+xml</dc:format>
    <dc:creator>
     <cc:Agent>
      <dc:title>Matplotlib v3.7.1, https://matplotlib.org/</dc:title>
     </cc:Agent>
    </dc:creator>
   </cc:Work>
  </rdf:RDF>
 </metadata>
 <defs>
  <style type="text/css">*{stroke-linejoin: round; stroke-linecap: butt}</style>
 </defs>
 <g id="figure_1">
  <g id="patch_1">
   <path d="M 0 309.639375 
L 412.420125 309.639375 
L 412.420125 0 
L 0 0 
z
" style="fill: #ffffff"/>
  </g>
  <g id="axes_1">
   <g id="patch_2">
    <path d="M 48.100125 273.312 
L 405.220125 273.312 
L 405.220125 7.2 
L 48.100125 7.2 
z
" style="fill: #ffffff"/>
   </g>
   <g id="matplotlib.axis_1">
    <g id="xtick_1">
     <g id="line2d_1">
      <defs>
       <path id="m3ca31efa77" d="M 0 0 
L 0 4.8 
" style="stroke: #262626"/>
      </defs>
      <g>
       <use xlink:href="#m3ca31efa77" x="64.332852" y="273.312" style="fill: #262626; stroke: #262626"/>
      </g>
     </g>
     <g id="text_1">
      <!-- 0 -->
      <g style="fill: #262626" transform="translate(61.88604 287.910875) scale(0.088 -0.088)">
       <defs>
        <path id="ArialMT-30" d="M 266 2259 
Q 266 3072 433 3567 
Q 600 4063 929 4331 
Q 1259 4600 1759 4600 
Q 2128 4600 2406 4451 
Q 2684 4303 2865 4023 
Q 3047 3744 3150 3342 
Q 3253 2941 3253 2259 
Q 3253 1453 3087 958 
Q 2922 463 2592 192 
Q 2263 -78 1759 -78 
Q 1097 -78 719 397 
Q 266 969 266 2259 
z
M 844 2259 
Q 844 1131 1108 757 
Q 1372 384 1759 384 
Q 2147 384 2411 759 
Q 2675 1134 2675 2259 
Q 2675 3391 2411 3762 
Q 2147 4134 1753 4134 
Q 1366 4134 1134 3806 
Q 844 3388 844 2259 
z
" transform="scale(0.015625)"/>
       </defs>
       <use xlink:href="#ArialMT-30"/>
      </g>
     </g>
    </g>
    <g id="xtick_2">
     <g id="line2d_2">
      <g>
       <use xlink:href="#m3ca31efa77" x="118.441943" y="273.312" style="fill: #262626; stroke: #262626"/>
      </g>
     </g>
     <g id="text_2">
      <!-- 10 -->
      <g style="fill: #262626" transform="translate(113.548318 287.910875) scale(0.088 -0.088)">
       <defs>
        <path id="ArialMT-31" d="M 2384 0 
L 1822 0 
L 1822 3584 
Q 1619 3391 1289 3197 
Q 959 3003 697 2906 
L 697 3450 
Q 1169 3672 1522 3987 
Q 1875 4303 2022 4600 
L 2384 4600 
L 2384 0 
z
" transform="scale(0.015625)"/>
       </defs>
       <use xlink:href="#ArialMT-31"/>
       <use xlink:href="#ArialMT-30" x="55.615234"/>
      </g>
     </g>
    </g>
    <g id="xtick_3">
     <g id="line2d_3">
      <g>
       <use xlink:href="#m3ca31efa77" x="172.551034" y="273.312" style="fill: #262626; stroke: #262626"/>
      </g>
     </g>
     <g id="text_3">
      <!-- 20 -->
      <g style="fill: #262626" transform="translate(167.657409 287.910875) scale(0.088 -0.088)">
       <defs>
        <path id="ArialMT-32" d="M 3222 541 
L 3222 0 
L 194 0 
Q 188 203 259 391 
Q 375 700 629 1000 
Q 884 1300 1366 1694 
Q 2113 2306 2375 2664 
Q 2638 3022 2638 3341 
Q 2638 3675 2398 3904 
Q 2159 4134 1775 4134 
Q 1369 4134 1125 3890 
Q 881 3647 878 3216 
L 300 3275 
Q 359 3922 746 4261 
Q 1134 4600 1788 4600 
Q 2447 4600 2831 4234 
Q 3216 3869 3216 3328 
Q 3216 3053 3103 2787 
Q 2991 2522 2730 2228 
Q 2469 1934 1863 1422 
Q 1356 997 1212 845 
Q 1069 694 975 541 
L 3222 541 
z
" transform="scale(0.015625)"/>
       </defs>
       <use xlink:href="#ArialMT-32"/>
       <use xlink:href="#ArialMT-30" x="55.615234"/>
      </g>
     </g>
    </g>
    <g id="xtick_4">
     <g id="line2d_4">
      <g>
       <use xlink:href="#m3ca31efa77" x="226.660125" y="273.312" style="fill: #262626; stroke: #262626"/>
      </g>
     </g>
     <g id="text_4">
      <!-- 30 -->
      <g style="fill: #262626" transform="translate(221.7665 287.910875) scale(0.088 -0.088)">
       <defs>
        <path id="ArialMT-33" d="M 269 1209 
L 831 1284 
Q 928 806 1161 595 
Q 1394 384 1728 384 
Q 2125 384 2398 659 
Q 2672 934 2672 1341 
Q 2672 1728 2419 1979 
Q 2166 2231 1775 2231 
Q 1616 2231 1378 2169 
L 1441 2663 
Q 1497 2656 1531 2656 
Q 1891 2656 2178 2843 
Q 2466 3031 2466 3422 
Q 2466 3731 2256 3934 
Q 2047 4138 1716 4138 
Q 1388 4138 1169 3931 
Q 950 3725 888 3313 
L 325 3413 
Q 428 3978 793 4289 
Q 1159 4600 1703 4600 
Q 2078 4600 2393 4439 
Q 2709 4278 2876 4000 
Q 3044 3722 3044 3409 
Q 3044 3113 2884 2869 
Q 2725 2625 2413 2481 
Q 2819 2388 3044 2092 
Q 3269 1797 3269 1353 
Q 3269 753 2831 336 
Q 2394 -81 1725 -81 
Q 1122 -81 723 278 
Q 325 638 269 1209 
z
" transform="scale(0.015625)"/>
       </defs>
       <use xlink:href="#ArialMT-33"/>
       <use xlink:href="#ArialMT-30" x="55.615234"/>
      </g>
     </g>
    </g>
    <g id="xtick_5">
     <g id="line2d_5">
      <g>
       <use xlink:href="#m3ca31efa77" x="280.769216" y="273.312" style="fill: #262626; stroke: #262626"/>
      </g>
     </g>
     <g id="text_5">
      <!-- 40 -->
      <g style="fill: #262626" transform="translate(275.875591 287.910875) scale(0.088 -0.088)">
       <defs>
        <path id="ArialMT-34" d="M 2069 0 
L 2069 1097 
L 81 1097 
L 81 1613 
L 2172 4581 
L 2631 4581 
L 2631 1613 
L 3250 1613 
L 3250 1097 
L 2631 1097 
L 2631 0 
L 2069 0 
z
M 2069 1613 
L 2069 3678 
L 634 1613 
L 2069 1613 
z
" transform="scale(0.015625)"/>
       </defs>
       <use xlink:href="#ArialMT-34"/>
       <use xlink:href="#ArialMT-30" x="55.615234"/>
      </g>
     </g>
    </g>
    <g id="xtick_6">
     <g id="line2d_6">
      <g>
       <use xlink:href="#m3ca31efa77" x="334.878307" y="273.312" style="fill: #262626; stroke: #262626"/>
      </g>
     </g>
     <g id="text_6">
      <!-- 50 -->
      <g style="fill: #262626" transform="translate(329.984682 287.910875) scale(0.088 -0.088)">
       <defs>
        <path id="ArialMT-35" d="M 266 1200 
L 856 1250 
Q 922 819 1161 601 
Q 1400 384 1738 384 
Q 2144 384 2425 690 
Q 2706 997 2706 1503 
Q 2706 1984 2436 2262 
Q 2166 2541 1728 2541 
Q 1456 2541 1237 2417 
Q 1019 2294 894 2097 
L 366 2166 
L 809 4519 
L 3088 4519 
L 3088 3981 
L 1259 3981 
L 1013 2750 
Q 1425 3038 1878 3038 
Q 2478 3038 2890 2622 
Q 3303 2206 3303 1553 
Q 3303 931 2941 478 
Q 2500 -78 1738 -78 
Q 1113 -78 717 272 
Q 322 622 266 1200 
z
" transform="scale(0.015625)"/>
       </defs>
       <use xlink:href="#ArialMT-35"/>
       <use xlink:href="#ArialMT-30" x="55.615234"/>
      </g>
     </g>
    </g>
    <g id="xtick_7">
     <g id="line2d_7">
      <g>
       <use xlink:href="#m3ca31efa77" x="388.987398" y="273.312" style="fill: #262626; stroke: #262626"/>
      </g>
     </g>
     <g id="text_7">
      <!-- 60 -->
      <g style="fill: #262626" transform="translate(384.093773 287.910875) scale(0.088 -0.088)">
       <defs>
        <path id="ArialMT-36" d="M 3184 3459 
L 2625 3416 
Q 2550 3747 2413 3897 
Q 2184 4138 1850 4138 
Q 1581 4138 1378 3988 
Q 1113 3794 959 3422 
Q 806 3050 800 2363 
Q 1003 2672 1297 2822 
Q 1591 2972 1913 2972 
Q 2475 2972 2870 2558 
Q 3266 2144 3266 1488 
Q 3266 1056 3080 686 
Q 2894 316 2569 119 
Q 2244 -78 1831 -78 
Q 1128 -78 684 439 
Q 241 956 241 2144 
Q 241 3472 731 4075 
Q 1159 4600 1884 4600 
Q 2425 4600 2770 4297 
Q 3116 3994 3184 3459 
z
M 888 1484 
Q 888 1194 1011 928 
Q 1134 663 1356 523 
Q 1578 384 1822 384 
Q 2178 384 2434 671 
Q 2691 959 2691 1453 
Q 2691 1928 2437 2201 
Q 2184 2475 1800 2475 
Q 1419 2475 1153 2201 
Q 888 1928 888 1484 
z
" transform="scale(0.015625)"/>
       </defs>
       <use xlink:href="#ArialMT-36"/>
       <use xlink:href="#ArialMT-30" x="55.615234"/>
      </g>
     </g>
    </g>
    <g id="text_8">
     <!-- $x$ -->
     <g style="fill: #262626" transform="translate(223.780125 300.531375) scale(0.096 -0.096)">
      <defs>
       <path id="DejaVuSans-Oblique-78" d="M 3841 3500 
L 2234 1784 
L 3219 0 
L 2559 0 
L 1819 1388 
L 531 0 
L -166 0 
L 1556 1844 
L 641 3500 
L 1300 3500 
L 1972 2234 
L 3144 3500 
L 3841 3500 
z
" transform="scale(0.015625)"/>
      </defs>
      <use xlink:href="#DejaVuSans-Oblique-78" transform="translate(0 0.3125)"/>
     </g>
    </g>
   </g>
   <g id="matplotlib.axis_2">
    <g id="ytick_1">
     <g id="line2d_8">
      <defs>
       <path id="m0a4ad2167c" d="M 0 0 
L -4.8 0 
" style="stroke: #262626"/>
      </defs>
      <g>
       <use xlink:href="#m0a4ad2167c" x="48.100125" y="270.586864" style="fill: #262626; stroke: #262626"/>
      </g>
     </g>
     <g id="text_9">
      <!-- −150 -->
      <g style="fill: #262626" transform="translate(19.9795 273.736301) scale(0.088 -0.088)">
       <defs>
        <path id="ArialMT-2212" d="M 3381 1997 
L 356 1997 
L 356 2522 
L 3381 2522 
L 3381 1997 
z
" transform="scale(0.015625)"/>
       </defs>
       <use xlink:href="#ArialMT-2212"/>
       <use xlink:href="#ArialMT-31" x="58.398438"/>
       <use xlink:href="#ArialMT-35" x="114.013672"/>
       <use xlink:href="#ArialMT-30" x="169.628906"/>
      </g>
     </g>
    </g>
    <g id="ytick_2">
     <g id="line2d_9">
      <g>
       <use xlink:href="#m0a4ad2167c" x="48.100125" y="215.683541" style="fill: #262626; stroke: #262626"/>
      </g>
     </g>
     <g id="text_10">
      <!-- −100 -->
      <g style="fill: #262626" transform="translate(19.9795 218.832979) scale(0.088 -0.088)">
       <use xlink:href="#ArialMT-2212"/>
       <use xlink:href="#ArialMT-31" x="58.398438"/>
       <use xlink:href="#ArialMT-30" x="114.013672"/>
       <use xlink:href="#ArialMT-30" x="169.628906"/>
      </g>
     </g>
    </g>
    <g id="ytick_3">
     <g id="line2d_10">
      <g>
       <use xlink:href="#m0a4ad2167c" x="48.100125" y="160.780219" style="fill: #262626; stroke: #262626"/>
      </g>
     </g>
     <g id="text_11">
      <!-- −50 -->
      <g style="fill: #262626" transform="translate(24.873125 163.929656) scale(0.088 -0.088)">
       <use xlink:href="#ArialMT-2212"/>
       <use xlink:href="#ArialMT-35" x="58.398438"/>
       <use xlink:href="#ArialMT-30" x="114.013672"/>
      </g>
     </g>
    </g>
    <g id="ytick_4">
     <g id="line2d_11">
      <g>
       <use xlink:href="#m0a4ad2167c" x="48.100125" y="105.876896" style="fill: #262626; stroke: #262626"/>
      </g>
     </g>
     <g id="text_12">
      <!-- 0 -->
      <g style="fill: #262626" transform="translate(34.9065 109.026334) scale(0.088 -0.088)">
       <use xlink:href="#ArialMT-30"/>
      </g>
     </g>
    </g>
    <g id="ytick_5">
     <g id="line2d_12">
      <g>
       <use xlink:href="#m0a4ad2167c" x="48.100125" y="50.973574" style="fill: #262626; stroke: #262626"/>
      </g>
     </g>
     <g id="text_13">
      <!-- 50 -->
      <g style="fill: #262626" transform="translate(30.012875 54.123011) scale(0.088 -0.088)">
       <use xlink:href="#ArialMT-35"/>
       <use xlink:href="#ArialMT-30" x="55.615234"/>
      </g>
     </g>
    </g>
    <g id="text_14">
     <!-- $y$ -->
     <g style="fill: #262626" transform="translate(13.9635 143.136) rotate(-90) scale(0.096 -0.096)">
      <defs>
       <path id="DejaVuSans-Oblique-79" d="M 1588 -325 
Q 1188 -997 936 -1164 
Q 684 -1331 294 -1331 
L -159 -1331 
L -63 -850 
L 269 -850 
Q 509 -850 678 -719 
Q 847 -588 1056 -206 
L 1234 128 
L 459 3500 
L 1069 3500 
L 1650 819 
L 3256 3500 
L 3859 3500 
L 1588 -325 
z
" transform="scale(0.015625)"/>
      </defs>
      <use xlink:href="#DejaVuSans-Oblique-79" transform="translate(0 0.3125)"/>
     </g>
    </g>
   </g>
   <g id="line2d_13">
    <defs>
     <path id="me410d22c6c" d="M -2.4 2.4 
L 2.4 -2.4 
M -2.4 -2.4 
L 2.4 2.4 
" style="stroke: #1f77b4; stroke-width: 2"/>
    </defs>
    <g clip-path="url(#p26ae8d055f)">
     <use xlink:href="#me410d22c6c" x="77.319034" y="105.876896" style="fill: #1f77b4; stroke: #1f77b4; stroke-width: 2"/>
     <use xlink:href="#me410d22c6c" x="78.401216" y="107.304383" style="fill: #1f77b4; stroke: #1f77b4; stroke-width: 2"/>
     <use xlink:href="#me410d22c6c" x="81.647761" y="108.841676" style="fill: #1f77b4; stroke: #1f77b4; stroke-width: 2"/>
     <use xlink:href="#me410d22c6c" x="83.812125" y="105.876896" style="fill: #1f77b4; stroke: #1f77b4; stroke-width: 2"/>
     <use xlink:href="#me410d22c6c" x="85.976489" y="108.841676" style="fill: #1f77b4; stroke: #1f77b4; stroke-width: 2"/>
     <use xlink:href="#me410d22c6c" x="97.880489" y="108.841676" style="fill: #1f77b4; stroke: #1f77b4; stroke-width: 2"/>
     <use xlink:href="#me410d22c6c" x="100.044852" y="108.841676" style="fill: #1f77b4; stroke: #1f77b4; stroke-width: 2"/>
     <use xlink:href="#me410d22c6c" x="101.127034" y="107.304383" style="fill: #1f77b4; stroke: #1f77b4; stroke-width: 2"/>
     <use xlink:href="#me410d22c6c" x="106.537943" y="108.841676" style="fill: #1f77b4; stroke: #1f77b4; stroke-width: 2"/>
     <use xlink:href="#me410d22c6c" x="108.702307" y="108.841676" style="fill: #1f77b4; stroke: #1f77b4; stroke-width: 2"/>
     <use xlink:href="#me410d22c6c" x="111.948852" y="107.304383" style="fill: #1f77b4; stroke: #1f77b4; stroke-width: 2"/>
     <use xlink:href="#me410d22c6c" x="116.27758" y="108.841676" style="fill: #1f77b4; stroke: #1f77b4; stroke-width: 2"/>
     <use xlink:href="#me410d22c6c" x="118.441943" y="108.841676" style="fill: #1f77b4; stroke: #1f77b4; stroke-width: 2"/>
     <use xlink:href="#me410d22c6c" x="119.524125" y="111.806455" style="fill: #1f77b4; stroke: #1f77b4; stroke-width: 2"/>
     <use xlink:href="#me410d22c6c" x="121.688489" y="108.841676" style="fill: #1f77b4; stroke: #1f77b4; stroke-width: 2"/>
     <use xlink:href="#me410d22c6c" x="123.852852" y="111.806455" style="fill: #1f77b4; stroke: #1f77b4; stroke-width: 2"/>
     <use xlink:href="#me410d22c6c" x="126.017216" y="105.876896" style="fill: #1f77b4; stroke: #1f77b4; stroke-width: 2"/>
     <use xlink:href="#me410d22c6c" x="135.756852" y="108.841676" style="fill: #1f77b4; stroke: #1f77b4; stroke-width: 2"/>
     <use xlink:href="#me410d22c6c" x="137.921216" y="108.841676" style="fill: #1f77b4; stroke: #1f77b4; stroke-width: 2"/>
     <use xlink:href="#me410d22c6c" x="139.003398" y="105.876896" style="fill: #1f77b4; stroke: #1f77b4; stroke-width: 2"/>
     <use xlink:href="#me410d22c6c" x="143.332125" y="120.48118" style="fill: #1f77b4; stroke: #1f77b4; stroke-width: 2"/>
     <use xlink:href="#me410d22c6c" x="144.414307" y="108.841676" style="fill: #1f77b4; stroke: #1f77b4; stroke-width: 2"/>
     <use xlink:href="#me410d22c6c" x="147.660852" y="130.912811" style="fill: #1f77b4; stroke: #1f77b4; stroke-width: 2"/>
     <use xlink:href="#me410d22c6c" x="148.743034" y="150.019168" style="fill: #1f77b4; stroke: #1f77b4; stroke-width: 2"/>
     <use xlink:href="#me410d22c6c" x="149.825216" y="129.485325" style="fill: #1f77b4; stroke: #1f77b4; stroke-width: 2"/>
     <use xlink:href="#me410d22c6c" x="150.907398" y="152.983947" style="fill: #1f77b4; stroke: #1f77b4; stroke-width: 2"/>
     <use xlink:href="#me410d22c6c" x="151.98958" y="129.485325" style="fill: #1f77b4; stroke: #1f77b4; stroke-width: 2"/>
     <use xlink:href="#me410d22c6c" x="153.071761" y="111.806455" style="fill: #1f77b4; stroke: #1f77b4; stroke-width: 2"/>
     <use xlink:href="#me410d22c6c" x="154.153943" y="170.662817" style="fill: #1f77b4; stroke: #1f77b4; stroke-width: 2"/>
     <use xlink:href="#me410d22c6c" x="155.236125" y="183.839614" style="fill: #1f77b4; stroke: #1f77b4; stroke-width: 2"/>
     <use xlink:href="#me410d22c6c" x="159.564852" y="147.054388" style="fill: #1f77b4; stroke: #1f77b4; stroke-width: 2"/>
     <use xlink:href="#me410d22c6c" x="160.647034" y="214.695282" style="fill: #1f77b4; stroke: #1f77b4; stroke-width: 2"/>
     <use xlink:href="#me410d22c6c" x="164.975761" y="229.409372" style="fill: #1f77b4; stroke: #1f77b4; stroke-width: 2"/>
     <use xlink:href="#me410d22c6c" x="168.222307" y="241.048876" style="fill: #1f77b4; stroke: #1f77b4; stroke-width: 2"/>
     <use xlink:href="#me410d22c6c" x="169.304489" y="199.871384" style="fill: #1f77b4; stroke: #1f77b4; stroke-width: 2"/>
     <use xlink:href="#me410d22c6c" x="170.38667" y="245.550949" style="fill: #1f77b4; stroke: #1f77b4; stroke-width: 2"/>
     <use xlink:href="#me410d22c6c" x="173.633216" y="241.048876" style="fill: #1f77b4; stroke: #1f77b4; stroke-width: 2"/>
     <use xlink:href="#me410d22c6c" x="174.715398" y="235.338931" style="fill: #1f77b4; stroke: #1f77b4; stroke-width: 2"/>
     <use xlink:href="#me410d22c6c" x="179.044125" y="253.017801" style="fill: #1f77b4; stroke: #1f77b4; stroke-width: 2"/>
     <use xlink:href="#me410d22c6c" x="180.126307" y="217.769868" style="fill: #1f77b4; stroke: #1f77b4; stroke-width: 2"/>
     <use xlink:href="#me410d22c6c" x="182.29067" y="224.9073" style="fill: #1f77b4; stroke: #1f77b4; stroke-width: 2"/>
     <use xlink:href="#me410d22c6c" x="183.372852" y="241.048876" style="fill: #1f77b4; stroke: #1f77b4; stroke-width: 2"/>
     <use xlink:href="#me410d22c6c" x="189.865943" y="241.048876" style="fill: #1f77b4; stroke: #1f77b4; stroke-width: 2"/>
     <use xlink:href="#me410d22c6c" x="190.948125" y="246.978435" style="fill: #1f77b4; stroke: #1f77b4; stroke-width: 2"/>
     <use xlink:href="#me410d22c6c" x="194.19467" y="229.409372" style="fill: #1f77b4; stroke: #1f77b4; stroke-width: 2"/>
     <use xlink:href="#me410d22c6c" x="195.276852" y="210.303016" style="fill: #1f77b4; stroke: #1f77b4; stroke-width: 2"/>
     <use xlink:href="#me410d22c6c" x="197.441216" y="164.623451" style="fill: #1f77b4; stroke: #1f77b4; stroke-width: 2"/>
     <use xlink:href="#me410d22c6c" x="199.60558" y="176.592376" style="fill: #1f77b4; stroke: #1f77b4; stroke-width: 2"/>
     <use xlink:href="#me410d22c6c" x="201.769943" y="185.267101" style="fill: #1f77b4; stroke: #1f77b4; stroke-width: 2"/>
     <use xlink:href="#me410d22c6c" x="202.852125" y="135.305077" style="fill: #1f77b4; stroke: #1f77b4; stroke-width: 2"/>
     <use xlink:href="#me410d22c6c" x="205.016489" y="111.806455" style="fill: #1f77b4; stroke: #1f77b4; stroke-width: 2"/>
     <use xlink:href="#me410d22c6c" x="206.09867" y="223.479813" style="fill: #1f77b4; stroke: #1f77b4; stroke-width: 2"/>
     <use xlink:href="#me410d22c6c" x="207.180852" y="177.910055" style="fill: #1f77b4; stroke: #1f77b4; stroke-width: 2"/>
     <use xlink:href="#me410d22c6c" x="210.427398" y="123.44596" style="fill: #1f77b4; stroke: #1f77b4; stroke-width: 2"/>
     <use xlink:href="#me410d22c6c" x="211.50958" y="155.948726" style="fill: #1f77b4; stroke: #1f77b4; stroke-width: 2"/>
     <use xlink:href="#me410d22c6c" x="213.673943" y="101.484631" style="fill: #1f77b4; stroke: #1f77b4; stroke-width: 2"/>
     <use xlink:href="#me410d22c6c" x="216.920489" y="92.700099" style="fill: #1f77b4; stroke: #1f77b4; stroke-width: 2"/>
     <use xlink:href="#me410d22c6c" x="218.00267" y="129.485325" style="fill: #1f77b4; stroke: #1f77b4; stroke-width: 2"/>
     <use xlink:href="#me410d22c6c" x="219.084852" y="54.37758" style="fill: #1f77b4; stroke: #1f77b4; stroke-width: 2"/>
     <use xlink:href="#me410d22c6c" x="223.41358" y="124.983253" style="fill: #1f77b4; stroke: #1f77b4; stroke-width: 2"/>
     <use xlink:href="#me410d22c6c" x="227.742307" y="66.126891" style="fill: #1f77b4; stroke: #1f77b4; stroke-width: 2"/>
     <use xlink:href="#me410d22c6c" x="232.071034" y="23.521913" style="fill: #1f77b4; stroke: #1f77b4; stroke-width: 2"/>
     <use xlink:href="#me410d22c6c" x="233.153216" y="96.982558" style="fill: #1f77b4; stroke: #1f77b4; stroke-width: 2"/>
     <use xlink:href="#me410d22c6c" x="237.481943" y="45.593048" style="fill: #1f77b4; stroke: #1f77b4; stroke-width: 2"/>
     <use xlink:href="#me410d22c6c" x="241.81067" y="54.37758" style="fill: #1f77b4; stroke: #1f77b4; stroke-width: 2"/>
     <use xlink:href="#me410d22c6c" x="245.057216" y="88.307833" style="fill: #1f77b4; stroke: #1f77b4; stroke-width: 2"/>
     <use xlink:href="#me410d22c6c" x="247.22158" y="55.805066" style="fill: #1f77b4; stroke: #1f77b4; stroke-width: 2"/>
     <use xlink:href="#me410d22c6c" x="250.468125" y="104.44941" style="fill: #1f77b4; stroke: #1f77b4; stroke-width: 2"/>
     <use xlink:href="#me410d22c6c" x="252.632489" y="23.521913" style="fill: #1f77b4; stroke: #1f77b4; stroke-width: 2"/>
     <use xlink:href="#me410d22c6c" x="254.796852" y="123.44596" style="fill: #1f77b4; stroke: #1f77b4; stroke-width: 2"/>
     <use xlink:href="#me410d22c6c" x="255.879034" y="29.451472" style="fill: #1f77b4; stroke: #1f77b4; stroke-width: 2"/>
     <use xlink:href="#me410d22c6c" x="256.961216" y="67.664184" style="fill: #1f77b4; stroke: #1f77b4; stroke-width: 2"/>
     <use xlink:href="#me410d22c6c" x="260.207761" y="147.054388" style="fill: #1f77b4; stroke: #1f77b4; stroke-width: 2"/>
     <use xlink:href="#me410d22c6c" x="269.947398" y="54.37758" style="fill: #1f77b4; stroke: #1f77b4; stroke-width: 2"/>
     <use xlink:href="#me410d22c6c" x="276.440489" y="99.947338" style="fill: #1f77b4; stroke: #1f77b4; stroke-width: 2"/>
     <use xlink:href="#me410d22c6c" x="277.52267" y="107.304383" style="fill: #1f77b4; stroke: #1f77b4; stroke-width: 2"/>
     <use xlink:href="#me410d22c6c" x="280.769216" y="129.485325" style="fill: #1f77b4; stroke: #1f77b4; stroke-width: 2"/>
     <use xlink:href="#me410d22c6c" x="282.93358" y="120.48118" style="fill: #1f77b4; stroke: #1f77b4; stroke-width: 2"/>
     <use xlink:href="#me410d22c6c" x="289.42667" y="72.05645" style="fill: #1f77b4; stroke: #1f77b4; stroke-width: 2"/>
     <use xlink:href="#me410d22c6c" x="293.755398" y="73.593743" style="fill: #1f77b4; stroke: #1f77b4; stroke-width: 2"/>
     <use xlink:href="#me410d22c6c" x="295.919761" y="105.876896" style="fill: #1f77b4; stroke: #1f77b4; stroke-width: 2"/>
     <use xlink:href="#me410d22c6c" x="297.001943" y="89.73532" style="fill: #1f77b4; stroke: #1f77b4; stroke-width: 2"/>
     <use xlink:href="#me410d22c6c" x="302.412852" y="107.304383" style="fill: #1f77b4; stroke: #1f77b4; stroke-width: 2"/>
     <use xlink:href="#me410d22c6c" x="304.577216" y="105.876896" style="fill: #1f77b4; stroke: #1f77b4; stroke-width: 2"/>
     <use xlink:href="#me410d22c6c" x="307.823761" y="94.127585" style="fill: #1f77b4; stroke: #1f77b4; stroke-width: 2"/>
     <use xlink:href="#me410d22c6c" x="316.481216" y="94.127585" style="fill: #1f77b4; stroke: #1f77b4; stroke-width: 2"/>
     <use xlink:href="#me410d22c6c" x="322.974307" y="135.305077" style="fill: #1f77b4; stroke: #1f77b4; stroke-width: 2"/>
     <use xlink:href="#me410d22c6c" x="328.385216" y="120.48118" style="fill: #1f77b4; stroke: #1f77b4; stroke-width: 2"/>
     <use xlink:href="#me410d22c6c" x="338.124852" y="105.876896" style="fill: #1f77b4; stroke: #1f77b4; stroke-width: 2"/>
     <use xlink:href="#me410d22c6c" x="345.700125" y="94.127585" style="fill: #1f77b4; stroke: #1f77b4; stroke-width: 2"/>
     <use xlink:href="#me410d22c6c" x="352.193216" y="122.018473" style="fill: #1f77b4; stroke: #1f77b4; stroke-width: 2"/>
     <use xlink:href="#me410d22c6c" x="361.932852" y="108.841676" style="fill: #1f77b4; stroke: #1f77b4; stroke-width: 2"/>
     <use xlink:href="#me410d22c6c" x="364.097216" y="108.841676" style="fill: #1f77b4; stroke: #1f77b4; stroke-width: 2"/>
     <use xlink:href="#me410d22c6c" x="376.001216" y="94.127585" style="fill: #1f77b4; stroke: #1f77b4; stroke-width: 2"/>
    </g>
   </g>
   <g id="line2d_14">
    <path d="M 64.332852 40.935642 
L 65.964282 42.520352 
L 67.595712 47.108961 
L 69.227142 54.217928 
L 70.858572 63.133332 
L 75.752861 92.52897 
L 77.384291 100.869713 
L 79.015721 107.732968 
L 80.647151 112.952315 
L 82.278581 116.513154 
L 83.910011 118.509044 
L 85.541441 119.102258 
L 87.172871 118.496498 
L 88.8043 116.92348 
L 90.43573 114.639645 
L 95.33002 106.423484 
L 96.96145 104.23608 
L 98.59288 102.76867 
L 100.22431 102.191056 
L 101.855739 102.573602 
L 103.487169 103.878513 
L 105.118599 105.968084 
L 106.750029 108.628437 
L 111.644319 117.472103 
L 113.275749 119.937162 
L 114.907178 121.88862 
L 116.538608 123.242357 
L 118.170038 123.958813 
L 119.801468 124.033367 
L 121.432898 123.489526 
L 123.064328 122.377105 
L 124.695758 120.775009 
L 126.327188 118.795949 
L 131.221477 112.242112 
L 132.852907 110.510248 
L 134.484337 109.32175 
L 136.115767 108.80825 
L 137.747197 109.033666 
L 139.378627 109.987376 
L 141.010056 111.592135 
L 142.641486 113.72637 
L 144.272916 116.257348 
L 145.904346 119.079422 
L 147.535776 122.150654 
L 149.167206 125.521242 
L 150.798636 129.348076 
L 152.430066 133.890811 
L 154.061495 139.486138 
L 155.692925 146.498834 
L 157.324355 155.251321 
L 158.955785 165.938275 
L 160.587215 178.538833 
L 163.850075 207.923881 
L 165.481505 223.141743 
L 167.112935 237.243028 
L 168.744364 248.995187 
L 170.375794 257.268026 
L 172.007224 261.216 
L 173.638654 260.423353 
L 175.270084 254.978489 
L 176.901514 245.459991 
L 178.532944 232.838132 
L 185.058663 175.181178 
L 186.690093 163.88814 
L 188.321523 154.896678 
L 189.952953 148.261582 
L 191.584383 143.852712 
L 193.215813 141.424198 
L 194.847242 140.670234 
L 196.478672 141.26068 
L 198.110102 142.857729 
L 199.741532 145.120569 
L 203.004392 150.280408 
L 204.635822 152.524203 
L 206.267252 154.16605 
L 207.898681 155.003711 
L 209.530111 154.926986 
L 211.161541 153.927922 
L 212.792971 152.094768 
L 214.424401 149.589111 
L 216.055831 146.6098 
L 219.318691 139.957704 
L 222.58155 132.947026 
L 224.21298 129.17161 
L 225.84441 124.964892 
L 227.47584 120.072907 
L 229.10727 114.247033 
L 230.7387 107.304836 
L 232.37013 99.192902 
L 234.001559 90.040284 
L 238.895849 60.763553 
L 240.527279 52.697128 
L 242.158709 46.748788 
L 243.790139 43.516294 
L 245.421569 43.336308 
L 247.052998 46.223617 
L 248.684428 51.866455 
L 250.315858 59.6785 
L 253.578718 78.685954 
L 255.210148 88.273485 
L 256.841578 97.010684 
L 258.473008 104.43143 
L 260.104437 110.257751 
L 261.735867 114.377875 
L 263.367297 116.808544 
L 264.998727 117.65612 
L 266.630157 117.087157 
L 268.261587 115.312973 
L 269.893017 112.586299 
L 271.524447 109.203369 
L 274.787306 101.854633 
L 276.418736 98.634211 
L 278.050166 96.186072 
L 279.681596 94.781379 
L 281.313026 94.580577 
L 282.944456 95.61024 
L 284.575886 97.76062 
L 286.207315 100.80507 
L 289.470175 108.314916 
L 291.101605 112.107794 
L 292.733035 115.528241 
L 294.364465 118.352567 
L 295.995895 120.425269 
L 297.627325 121.65269 
L 299.258755 121.991994 
L 300.890184 121.441816 
L 302.521614 120.038906 
L 304.153044 117.861828 
L 305.784474 115.039197 
L 309.047334 108.260575 
L 310.678764 104.840966 
L 312.310194 101.812521 
L 313.941623 99.475337 
L 315.573053 98.074212 
L 317.204483 97.761272 
L 318.835913 98.571428 
L 320.467343 100.416786 
L 322.098773 103.10152 
L 323.730203 106.353521 
L 326.993062 113.334196 
L 328.624492 116.495813 
L 330.255922 119.142373 
L 331.887352 121.128776 
L 333.518782 122.367498 
L 335.150212 122.818492 
L 336.781642 122.479825 
L 338.413072 121.383238 
L 340.044501 119.596041 
L 341.675931 117.227541 
L 344.938791 111.428506 
L 346.570221 108.455866 
L 348.201651 105.789217 
L 349.833081 103.691118 
L 351.464511 102.37949 
L 353.09594 101.994095 
L 354.72737 102.572851 
L 356.3588 104.043419 
L 357.99023 106.231535 
L 362.88452 114.336099 
L 364.51595 116.484838 
L 366.147379 117.825113 
L 367.778809 118.057858 
L 369.410239 116.900666 
L 371.041669 114.0949 
L 372.673099 109.426235 
L 374.304529 102.762387 
L 375.935959 94.105268 
L 377.567389 83.647385 
L 380.830248 59.287883 
L 382.461678 46.955297 
L 384.093108 35.84447 
L 385.724538 26.98711 
L 387.355968 21.270561 
L 388.987398 19.296 
L 388.987398 19.296 
" clip-path="url(#p26ae8d055f)" style="fill: none; stroke: #ff7f0e; stroke-width: 1.2; stroke-linecap: round"/>
   </g>
   <g id="patch_3">
    <path d="M 48.100125 270.586864 
L 48.100125 50.973574 
" style="fill: none; stroke: #262626; stroke-linejoin: miter; stroke-linecap: square"/>
   </g>
   <g id="patch_4">
    <path d="M 64.332852 273.312 
L 388.987398 273.312 
" style="fill: none; stroke: #262626; stroke-linejoin: miter; stroke-linecap: square"/>
   </g>
   <g id="legend_1">
    <g id="patch_5">
     <path d="M 220.752875 268.912 
L 399.060125 268.912 
Q 400.820125 268.912 400.820125 267.152 
L 400.820125 242.925875 
Q 400.820125 241.165875 399.060125 241.165875 
L 220.752875 241.165875 
Q 218.992875 241.165875 218.992875 242.925875 
L 218.992875 267.152 
Q 218.992875 268.912 220.752875 268.912 
z
" style="fill: #ffffff; opacity: 0.8; stroke: #cccccc; stroke-width: 0.8; stroke-linejoin: miter"/>
    </g>
    <g id="line2d_15">
     <g>
      <use xlink:href="#me410d22c6c" x="231.312875" y="247.90475" style="fill: #1f77b4; stroke: #1f77b4; stroke-width: 2"/>
     </g>
    </g>
    <g id="text_15">
     <!-- Observations -->
     <g style="fill: #262626" transform="translate(247.152875 250.98475) scale(0.088 -0.088)">
      <defs>
       <path id="ArialMT-4f" d="M 309 2231 
Q 309 3372 921 4017 
Q 1534 4663 2503 4663 
Q 3138 4663 3647 4359 
Q 4156 4056 4423 3514 
Q 4691 2972 4691 2284 
Q 4691 1588 4409 1038 
Q 4128 488 3612 205 
Q 3097 -78 2500 -78 
Q 1853 -78 1343 234 
Q 834 547 571 1087 
Q 309 1628 309 2231 
z
M 934 2222 
Q 934 1394 1379 917 
Q 1825 441 2497 441 
Q 3181 441 3623 922 
Q 4066 1403 4066 2288 
Q 4066 2847 3877 3264 
Q 3688 3681 3323 3911 
Q 2959 4141 2506 4141 
Q 1863 4141 1398 3698 
Q 934 3256 934 2222 
z
" transform="scale(0.015625)"/>
       <path id="ArialMT-62" d="M 941 0 
L 419 0 
L 419 4581 
L 981 4581 
L 981 2947 
Q 1338 3394 1891 3394 
Q 2197 3394 2470 3270 
Q 2744 3147 2920 2923 
Q 3097 2700 3197 2384 
Q 3297 2069 3297 1709 
Q 3297 856 2875 390 
Q 2453 -75 1863 -75 
Q 1275 -75 941 416 
L 941 0 
z
M 934 1684 
Q 934 1088 1097 822 
Q 1363 388 1816 388 
Q 2184 388 2453 708 
Q 2722 1028 2722 1663 
Q 2722 2313 2464 2622 
Q 2206 2931 1841 2931 
Q 1472 2931 1203 2611 
Q 934 2291 934 1684 
z
" transform="scale(0.015625)"/>
       <path id="ArialMT-73" d="M 197 991 
L 753 1078 
Q 800 744 1014 566 
Q 1228 388 1613 388 
Q 2000 388 2187 545 
Q 2375 703 2375 916 
Q 2375 1106 2209 1216 
Q 2094 1291 1634 1406 
Q 1016 1563 777 1677 
Q 538 1791 414 1992 
Q 291 2194 291 2438 
Q 291 2659 392 2848 
Q 494 3038 669 3163 
Q 800 3259 1026 3326 
Q 1253 3394 1513 3394 
Q 1903 3394 2198 3281 
Q 2494 3169 2634 2976 
Q 2775 2784 2828 2463 
L 2278 2388 
Q 2241 2644 2061 2787 
Q 1881 2931 1553 2931 
Q 1166 2931 1000 2803 
Q 834 2675 834 2503 
Q 834 2394 903 2306 
Q 972 2216 1119 2156 
Q 1203 2125 1616 2013 
Q 2213 1853 2448 1751 
Q 2684 1650 2818 1456 
Q 2953 1263 2953 975 
Q 2953 694 2789 445 
Q 2625 197 2315 61 
Q 2006 -75 1616 -75 
Q 969 -75 630 194 
Q 291 463 197 991 
z
" transform="scale(0.015625)"/>
       <path id="ArialMT-65" d="M 2694 1069 
L 3275 997 
Q 3138 488 2766 206 
Q 2394 -75 1816 -75 
Q 1088 -75 661 373 
Q 234 822 234 1631 
Q 234 2469 665 2931 
Q 1097 3394 1784 3394 
Q 2450 3394 2872 2941 
Q 3294 2488 3294 1666 
Q 3294 1616 3291 1516 
L 816 1516 
Q 847 969 1125 678 
Q 1403 388 1819 388 
Q 2128 388 2347 550 
Q 2566 713 2694 1069 
z
M 847 1978 
L 2700 1978 
Q 2663 2397 2488 2606 
Q 2219 2931 1791 2931 
Q 1403 2931 1139 2672 
Q 875 2413 847 1978 
z
" transform="scale(0.015625)"/>
       <path id="ArialMT-72" d="M 416 0 
L 416 3319 
L 922 3319 
L 922 2816 
Q 1116 3169 1280 3281 
Q 1444 3394 1641 3394 
Q 1925 3394 2219 3213 
L 2025 2691 
Q 1819 2813 1613 2813 
Q 1428 2813 1281 2702 
Q 1134 2591 1072 2394 
Q 978 2094 978 1738 
L 978 0 
L 416 0 
z
" transform="scale(0.015625)"/>
       <path id="ArialMT-76" d="M 1344 0 
L 81 3319 
L 675 3319 
L 1388 1331 
Q 1503 1009 1600 663 
Q 1675 925 1809 1294 
L 2547 3319 
L 3125 3319 
L 1869 0 
L 1344 0 
z
" transform="scale(0.015625)"/>
       <path id="ArialMT-61" d="M 2588 409 
Q 2275 144 1986 34 
Q 1697 -75 1366 -75 
Q 819 -75 525 192 
Q 231 459 231 875 
Q 231 1119 342 1320 
Q 453 1522 633 1644 
Q 813 1766 1038 1828 
Q 1203 1872 1538 1913 
Q 2219 1994 2541 2106 
Q 2544 2222 2544 2253 
Q 2544 2597 2384 2738 
Q 2169 2928 1744 2928 
Q 1347 2928 1158 2789 
Q 969 2650 878 2297 
L 328 2372 
Q 403 2725 575 2942 
Q 747 3159 1072 3276 
Q 1397 3394 1825 3394 
Q 2250 3394 2515 3294 
Q 2781 3194 2906 3042 
Q 3031 2891 3081 2659 
Q 3109 2516 3109 2141 
L 3109 1391 
Q 3109 606 3145 398 
Q 3181 191 3288 0 
L 2700 0 
Q 2613 175 2588 409 
z
M 2541 1666 
Q 2234 1541 1622 1453 
Q 1275 1403 1131 1340 
Q 988 1278 909 1158 
Q 831 1038 831 891 
Q 831 666 1001 516 
Q 1172 366 1500 366 
Q 1825 366 2078 508 
Q 2331 650 2450 897 
Q 2541 1088 2541 1459 
L 2541 1666 
z
" transform="scale(0.015625)"/>
       <path id="ArialMT-74" d="M 1650 503 
L 1731 6 
Q 1494 -44 1306 -44 
Q 1000 -44 831 53 
Q 663 150 594 308 
Q 525 466 525 972 
L 525 2881 
L 113 2881 
L 113 3319 
L 525 3319 
L 525 4141 
L 1084 4478 
L 1084 3319 
L 1650 3319 
L 1650 2881 
L 1084 2881 
L 1084 941 
Q 1084 700 1114 631 
Q 1144 563 1211 522 
Q 1278 481 1403 481 
Q 1497 481 1650 503 
z
" transform="scale(0.015625)"/>
       <path id="ArialMT-69" d="M 425 3934 
L 425 4581 
L 988 4581 
L 988 3934 
L 425 3934 
z
M 425 0 
L 425 3319 
L 988 3319 
L 988 0 
L 425 0 
z
" transform="scale(0.015625)"/>
       <path id="ArialMT-6f" d="M 213 1659 
Q 213 2581 725 3025 
Q 1153 3394 1769 3394 
Q 2453 3394 2887 2945 
Q 3322 2497 3322 1706 
Q 3322 1066 3130 698 
Q 2938 331 2570 128 
Q 2203 -75 1769 -75 
Q 1072 -75 642 372 
Q 213 819 213 1659 
z
M 791 1659 
Q 791 1022 1069 705 
Q 1347 388 1769 388 
Q 2188 388 2466 706 
Q 2744 1025 2744 1678 
Q 2744 2294 2464 2611 
Q 2184 2928 1769 2928 
Q 1347 2928 1069 2612 
Q 791 2297 791 1659 
z
" transform="scale(0.015625)"/>
       <path id="ArialMT-6e" d="M 422 0 
L 422 3319 
L 928 3319 
L 928 2847 
Q 1294 3394 1984 3394 
Q 2284 3394 2536 3286 
Q 2788 3178 2913 3003 
Q 3038 2828 3088 2588 
Q 3119 2431 3119 2041 
L 3119 0 
L 2556 0 
L 2556 2019 
Q 2556 2363 2490 2533 
Q 2425 2703 2258 2804 
Q 2091 2906 1866 2906 
Q 1506 2906 1245 2678 
Q 984 2450 984 1813 
L 984 0 
L 422 0 
z
" transform="scale(0.015625)"/>
      </defs>
      <use xlink:href="#ArialMT-4f"/>
      <use xlink:href="#ArialMT-62" x="77.783203"/>
      <use xlink:href="#ArialMT-73" x="133.398438"/>
      <use xlink:href="#ArialMT-65" x="183.398438"/>
      <use xlink:href="#ArialMT-72" x="239.013672"/>
      <use xlink:href="#ArialMT-76" x="272.314453"/>
      <use xlink:href="#ArialMT-61" x="322.314453"/>
      <use xlink:href="#ArialMT-74" x="377.929688"/>
      <use xlink:href="#ArialMT-69" x="405.712891"/>
      <use xlink:href="#ArialMT-6f" x="427.929688"/>
      <use xlink:href="#ArialMT-6e" x="483.544922"/>
      <use xlink:href="#ArialMT-73" x="539.160156"/>
     </g>
    </g>
    <g id="line2d_16">
     <path d="M 222.512875 260.459875 
L 231.312875 260.459875 
L 240.112875 260.459875 
" style="fill: none; stroke: #ff7f0e; stroke-width: 1.2; stroke-linecap: round"/>
    </g>
    <g id="text_16">
     <!-- LS Prediction (Radial Basis Functions) -->
     <g style="fill: #262626" transform="translate(247.152875 263.539875) scale(0.088 -0.088)">
      <defs>
       <path id="ArialMT-4c" d="M 469 0 
L 469 4581 
L 1075 4581 
L 1075 541 
L 3331 541 
L 3331 0 
L 469 0 
z
" transform="scale(0.015625)"/>
       <path id="ArialMT-53" d="M 288 1472 
L 859 1522 
Q 900 1178 1048 958 
Q 1197 738 1509 602 
Q 1822 466 2213 466 
Q 2559 466 2825 569 
Q 3091 672 3220 851 
Q 3350 1031 3350 1244 
Q 3350 1459 3225 1620 
Q 3100 1781 2813 1891 
Q 2628 1963 1997 2114 
Q 1366 2266 1113 2400 
Q 784 2572 623 2826 
Q 463 3081 463 3397 
Q 463 3744 659 4045 
Q 856 4347 1234 4503 
Q 1613 4659 2075 4659 
Q 2584 4659 2973 4495 
Q 3363 4331 3572 4012 
Q 3781 3694 3797 3291 
L 3216 3247 
Q 3169 3681 2898 3903 
Q 2628 4125 2100 4125 
Q 1550 4125 1298 3923 
Q 1047 3722 1047 3438 
Q 1047 3191 1225 3031 
Q 1400 2872 2139 2705 
Q 2878 2538 3153 2413 
Q 3553 2228 3743 1945 
Q 3934 1663 3934 1294 
Q 3934 928 3725 604 
Q 3516 281 3123 101 
Q 2731 -78 2241 -78 
Q 1619 -78 1198 103 
Q 778 284 539 648 
Q 300 1013 288 1472 
z
" transform="scale(0.015625)"/>
       <path id="ArialMT-20" transform="scale(0.015625)"/>
       <path id="ArialMT-50" d="M 494 0 
L 494 4581 
L 2222 4581 
Q 2678 4581 2919 4538 
Q 3256 4481 3484 4323 
Q 3713 4166 3852 3881 
Q 3991 3597 3991 3256 
Q 3991 2672 3619 2267 
Q 3247 1863 2275 1863 
L 1100 1863 
L 1100 0 
L 494 0 
z
M 1100 2403 
L 2284 2403 
Q 2872 2403 3119 2622 
Q 3366 2841 3366 3238 
Q 3366 3525 3220 3729 
Q 3075 3934 2838 4000 
Q 2684 4041 2272 4041 
L 1100 4041 
L 1100 2403 
z
" transform="scale(0.015625)"/>
       <path id="ArialMT-64" d="M 2575 0 
L 2575 419 
Q 2259 -75 1647 -75 
Q 1250 -75 917 144 
Q 584 363 401 755 
Q 219 1147 219 1656 
Q 219 2153 384 2558 
Q 550 2963 881 3178 
Q 1213 3394 1622 3394 
Q 1922 3394 2156 3267 
Q 2391 3141 2538 2938 
L 2538 4581 
L 3097 4581 
L 3097 0 
L 2575 0 
z
M 797 1656 
Q 797 1019 1065 703 
Q 1334 388 1700 388 
Q 2069 388 2326 689 
Q 2584 991 2584 1609 
Q 2584 2291 2321 2609 
Q 2059 2928 1675 2928 
Q 1300 2928 1048 2622 
Q 797 2316 797 1656 
z
" transform="scale(0.015625)"/>
       <path id="ArialMT-63" d="M 2588 1216 
L 3141 1144 
Q 3050 572 2676 248 
Q 2303 -75 1759 -75 
Q 1078 -75 664 370 
Q 250 816 250 1647 
Q 250 2184 428 2587 
Q 606 2991 970 3192 
Q 1334 3394 1763 3394 
Q 2303 3394 2647 3120 
Q 2991 2847 3088 2344 
L 2541 2259 
Q 2463 2594 2264 2762 
Q 2066 2931 1784 2931 
Q 1359 2931 1093 2626 
Q 828 2322 828 1663 
Q 828 994 1084 691 
Q 1341 388 1753 388 
Q 2084 388 2306 591 
Q 2528 794 2588 1216 
z
" transform="scale(0.015625)"/>
       <path id="ArialMT-28" d="M 1497 -1347 
Q 1031 -759 709 28 
Q 388 816 388 1659 
Q 388 2403 628 3084 
Q 909 3875 1497 4659 
L 1900 4659 
Q 1522 4009 1400 3731 
Q 1209 3300 1100 2831 
Q 966 2247 966 1656 
Q 966 153 1900 -1347 
L 1497 -1347 
z
" transform="scale(0.015625)"/>
       <path id="ArialMT-52" d="M 503 0 
L 503 4581 
L 2534 4581 
Q 3147 4581 3465 4457 
Q 3784 4334 3975 4021 
Q 4166 3709 4166 3331 
Q 4166 2844 3850 2509 
Q 3534 2175 2875 2084 
Q 3116 1969 3241 1856 
Q 3506 1613 3744 1247 
L 4541 0 
L 3778 0 
L 3172 953 
Q 2906 1366 2734 1584 
Q 2563 1803 2427 1890 
Q 2291 1978 2150 2013 
Q 2047 2034 1813 2034 
L 1109 2034 
L 1109 0 
L 503 0 
z
M 1109 2559 
L 2413 2559 
Q 2828 2559 3062 2645 
Q 3297 2731 3419 2920 
Q 3541 3109 3541 3331 
Q 3541 3656 3305 3865 
Q 3069 4075 2559 4075 
L 1109 4075 
L 1109 2559 
z
" transform="scale(0.015625)"/>
       <path id="ArialMT-6c" d="M 409 0 
L 409 4581 
L 972 4581 
L 972 0 
L 409 0 
z
" transform="scale(0.015625)"/>
       <path id="ArialMT-42" d="M 469 0 
L 469 4581 
L 2188 4581 
Q 2713 4581 3030 4442 
Q 3347 4303 3526 4014 
Q 3706 3725 3706 3409 
Q 3706 3116 3547 2856 
Q 3388 2597 3066 2438 
Q 3481 2316 3704 2022 
Q 3928 1728 3928 1328 
Q 3928 1006 3792 729 
Q 3656 453 3456 303 
Q 3256 153 2954 76 
Q 2653 0 2216 0 
L 469 0 
z
M 1075 2656 
L 2066 2656 
Q 2469 2656 2644 2709 
Q 2875 2778 2992 2937 
Q 3109 3097 3109 3338 
Q 3109 3566 3000 3739 
Q 2891 3913 2687 3977 
Q 2484 4041 1991 4041 
L 1075 4041 
L 1075 2656 
z
M 1075 541 
L 2216 541 
Q 2509 541 2628 563 
Q 2838 600 2978 687 
Q 3119 775 3209 942 
Q 3300 1109 3300 1328 
Q 3300 1584 3169 1773 
Q 3038 1963 2805 2039 
Q 2572 2116 2134 2116 
L 1075 2116 
L 1075 541 
z
" transform="scale(0.015625)"/>
       <path id="ArialMT-46" d="M 525 0 
L 525 4581 
L 3616 4581 
L 3616 4041 
L 1131 4041 
L 1131 2622 
L 3281 2622 
L 3281 2081 
L 1131 2081 
L 1131 0 
L 525 0 
z
" transform="scale(0.015625)"/>
       <path id="ArialMT-75" d="M 2597 0 
L 2597 488 
Q 2209 -75 1544 -75 
Q 1250 -75 995 37 
Q 741 150 617 320 
Q 494 491 444 738 
Q 409 903 409 1263 
L 409 3319 
L 972 3319 
L 972 1478 
Q 972 1038 1006 884 
Q 1059 663 1231 536 
Q 1403 409 1656 409 
Q 1909 409 2131 539 
Q 2353 669 2445 892 
Q 2538 1116 2538 1541 
L 2538 3319 
L 3100 3319 
L 3100 0 
L 2597 0 
z
" transform="scale(0.015625)"/>
       <path id="ArialMT-29" d="M 791 -1347 
L 388 -1347 
Q 1322 153 1322 1656 
Q 1322 2244 1188 2822 
Q 1081 3291 891 3722 
Q 769 4003 388 4659 
L 791 4659 
Q 1378 3875 1659 3084 
Q 1900 2403 1900 1659 
Q 1900 816 1576 28 
Q 1253 -759 791 -1347 
z
" transform="scale(0.015625)"/>
      </defs>
      <use xlink:href="#ArialMT-4c"/>
      <use xlink:href="#ArialMT-53" x="55.615234"/>
      <use xlink:href="#ArialMT-20" x="122.314453"/>
      <use xlink:href="#ArialMT-50" x="150.097656"/>
      <use xlink:href="#ArialMT-72" x="216.796875"/>
      <use xlink:href="#ArialMT-65" x="250.097656"/>
      <use xlink:href="#ArialMT-64" x="305.712891"/>
      <use xlink:href="#ArialMT-69" x="361.328125"/>
      <use xlink:href="#ArialMT-63" x="383.544922"/>
      <use xlink:href="#ArialMT-74" x="433.544922"/>
      <use xlink:href="#ArialMT-69" x="461.328125"/>
      <use xlink:href="#ArialMT-6f" x="483.544922"/>
      <use xlink:href="#ArialMT-6e" x="539.160156"/>
      <use xlink:href="#ArialMT-20" x="594.775391"/>
      <use xlink:href="#ArialMT-28" x="622.558594"/>
      <use xlink:href="#ArialMT-52" x="655.859375"/>
      <use xlink:href="#ArialMT-61" x="728.076172"/>
      <use xlink:href="#ArialMT-64" x="783.691406"/>
      <use xlink:href="#ArialMT-69" x="839.306641"/>
      <use xlink:href="#ArialMT-61" x="861.523438"/>
      <use xlink:href="#ArialMT-6c" x="917.138672"/>
      <use xlink:href="#ArialMT-20" x="939.355469"/>
      <use xlink:href="#ArialMT-42" x="967.138672"/>
      <use xlink:href="#ArialMT-61" x="1033.837891"/>
      <use xlink:href="#ArialMT-73" x="1089.453125"/>
      <use xlink:href="#ArialMT-69" x="1139.453125"/>
      <use xlink:href="#ArialMT-73" x="1161.669922"/>
      <use xlink:href="#ArialMT-20" x="1211.669922"/>
      <use xlink:href="#ArialMT-46" x="1239.453125"/>
      <use xlink:href="#ArialMT-75" x="1300.537109"/>
      <use xlink:href="#ArialMT-6e" x="1356.152344"/>
      <use xlink:href="#ArialMT-63" x="1411.767578"/>
      <use xlink:href="#ArialMT-74" x="1461.767578"/>
      <use xlink:href="#ArialMT-69" x="1489.550781"/>
      <use xlink:href="#ArialMT-6f" x="1511.767578"/>
      <use xlink:href="#ArialMT-6e" x="1567.382812"/>
      <use xlink:href="#ArialMT-73" x="1622.998047"/>
      <use xlink:href="#ArialMT-29" x="1672.998047"/>
     </g>
    </g>
   </g>
  </g>
 </g>
 <defs>
  <clipPath id="p26ae8d055f">
   <rect x="48.100125" y="7.2" width="357.12" height="266.112"/>
  </clipPath>
 </defs>
</svg>