<?xml version="1.0" encoding="utf-8" standalone="no"?>
<!DOCTYPE svg PUBLIC "-//W3C//DTD SVG 1.1//EN"
  "http://www.w3.org/Graphics/SVG/1.1/DTD/svg11.dtd">
<svg xmlns:xlink="http://www.w3.org/1999/xlink" width="407.280375pt" height="309.639375pt" viewBox="0 0 407.280375 309.639375" xmlns="http://www.w3.org/2000/svg" version="1.1">
 <metadata>
  <rdf:RDF xmlns:dc="http://purl.org/dc/elements/1.1/" xmlns:cc="http://creativecommons.org/ns#" xmlns:rdf="http://www.w3.org/1999/02/22-rdf-syntax-ns#">
   <cc:Work>
    <dc:type rdf:resource="http://purl.org/dc/dcmitype/StillImage"/>
    <dc:date>2023-08-15T14:44:20.202779</dc:date>
    <dc:format>image/svg+xml</dc:format>
    <dc:creator>
     <cc:Agent>
      <dc:title>Matplotlib v3.7.1, https://matplotlib.org/</dc:title>
     </cc:Agent>
    </dc:creator>
   </cc:Work>
  </rdf:RDF>
 </metadata>
 <defs>
  <style type="text/css">*{stroke-linejoin: round; stroke-linecap: butt}</style>
 </defs>
 <g id="figure_1">
  <g id="patch_1">
   <path d="M -0 309.639375 
L 407.280375 309.639375 
L 407.280375 0 
L -0 0 
z
" style="fill: #ffffff"/>
  </g>
  <g id="axes_1">
   <g id="patch_2">
    <path d="M 42.960375 273.312 
L 400.080375 273.312 
L 400.080375 7.2 
L 42.960375 7.2 
z
" style="fill: #ffffff"/>
   </g>
   <g id="matplotlib.axis_1">
    <g id="xtick_1">
     <g id="line2d_1">
      <defs>
       <path id="me2efc454e1" d="M 0 0 
L 0 4.8 
" style="stroke: #262626"/>
      </defs>
      <g>
       <use xlink:href="#me2efc454e1" x="58.868123" y="273.312" style="fill: #262626; stroke: #262626"/>
      </g>
     </g>
     <g id="text_1">
      <!-- 0 -->
      <g style="fill: #262626" transform="translate(56.42131 287.910875) scale(0.088 -0.088)">
       <defs>
        <path id="ArialMT-30" d="M 266 2259 
Q 266 3072 433 3567 
Q 600 4063 929 4331 
Q 1259 4600 1759 4600 
Q 2128 4600 2406 4451 
Q 2684 4303 2865 4023 
Q 3047 3744 3150 3342 
Q 3253 2941 3253 2259 
Q 3253 1453 3087 958 
Q 2922 463 2592 192 
Q 2263 -78 1759 -78 
Q 1097 -78 719 397 
Q 266 969 266 2259 
z
M 844 2259 
Q 844 1131 1108 757 
Q 1372 384 1759 384 
Q 2147 384 2411 759 
Q 2675 1134 2675 2259 
Q 2675 3391 2411 3762 
Q 2147 4134 1753 4134 
Q 1366 4134 1134 3806 
Q 844 3388 844 2259 
z
" transform="scale(0.015625)"/>
       </defs>
       <use xlink:href="#ArialMT-30"/>
      </g>
     </g>
    </g>
    <g id="xtick_2">
     <g id="line2d_2">
      <g>
       <use xlink:href="#me2efc454e1" x="123.864028" y="273.312" style="fill: #262626; stroke: #262626"/>
      </g>
     </g>
     <g id="text_2">
      <!-- 200 -->
      <g style="fill: #262626" transform="translate(116.52359 287.910875) scale(0.088 -0.088)">
       <defs>
        <path id="ArialMT-32" d="M 3222 541 
L 3222 0 
L 194 0 
Q 188 203 259 391 
Q 375 700 629 1000 
Q 884 1300 1366 1694 
Q 2113 2306 2375 2664 
Q 2638 3022 2638 3341 
Q 2638 3675 2398 3904 
Q 2159 4134 1775 4134 
Q 1369 4134 1125 3890 
Q 881 3647 878 3216 
L 300 3275 
Q 359 3922 746 4261 
Q 1134 4600 1788 4600 
Q 2447 4600 2831 4234 
Q 3216 3869 3216 3328 
Q 3216 3053 3103 2787 
Q 2991 2522 2730 2228 
Q 2469 1934 1863 1422 
Q 1356 997 1212 845 
Q 1069 694 975 541 
L 3222 541 
z
" transform="scale(0.015625)"/>
       </defs>
       <use xlink:href="#ArialMT-32"/>
       <use xlink:href="#ArialMT-30" x="55.615234"/>
       <use xlink:href="#ArialMT-30" x="111.230469"/>
      </g>
     </g>
    </g>
    <g id="xtick_3">
     <g id="line2d_3">
      <g>
       <use xlink:href="#me2efc454e1" x="188.859933" y="273.312" style="fill: #262626; stroke: #262626"/>
      </g>
     </g>
     <g id="text_3">
      <!-- 400 -->
      <g style="fill: #262626" transform="translate(181.519495 287.910875) scale(0.088 -0.088)">
       <defs>
        <path id="ArialMT-34" d="M 2069 0 
L 2069 1097 
L 81 1097 
L 81 1613 
L 2172 4581 
L 2631 4581 
L 2631 1613 
L 3250 1613 
L 3250 1097 
L 2631 1097 
L 2631 0 
L 2069 0 
z
M 2069 1613 
L 2069 3678 
L 634 1613 
L 2069 1613 
z
" transform="scale(0.015625)"/>
       </defs>
       <use xlink:href="#ArialMT-34"/>
       <use xlink:href="#ArialMT-30" x="55.615234"/>
       <use xlink:href="#ArialMT-30" x="111.230469"/>
      </g>
     </g>
    </g>
    <g id="xtick_4">
     <g id="line2d_4">
      <g>
       <use xlink:href="#me2efc454e1" x="253.855838" y="273.312" style="fill: #262626; stroke: #262626"/>
      </g>
     </g>
     <g id="text_4">
      <!-- 600 -->
      <g style="fill: #262626" transform="translate(246.5154 287.910875) scale(0.088 -0.088)">
       <defs>
        <path id="ArialMT-36" d="M 3184 3459 
L 2625 3416 
Q 2550 3747 2413 3897 
Q 2184 4138 1850 4138 
Q 1581 4138 1378 3988 
Q 1113 3794 959 3422 
Q 806 3050 800 2363 
Q 1003 2672 1297 2822 
Q 1591 2972 1913 2972 
Q 2475 2972 2870 2558 
Q 3266 2144 3266 1488 
Q 3266 1056 3080 686 
Q 2894 316 2569 119 
Q 2244 -78 1831 -78 
Q 1128 -78 684 439 
Q 241 956 241 2144 
Q 241 3472 731 4075 
Q 1159 4600 1884 4600 
Q 2425 4600 2770 4297 
Q 3116 3994 3184 3459 
z
M 888 1484 
Q 888 1194 1011 928 
Q 1134 663 1356 523 
Q 1578 384 1822 384 
Q 2178 384 2434 671 
Q 2691 959 2691 1453 
Q 2691 1928 2437 2201 
Q 2184 2475 1800 2475 
Q 1419 2475 1153 2201 
Q 888 1928 888 1484 
z
" transform="scale(0.015625)"/>
       </defs>
       <use xlink:href="#ArialMT-36"/>
       <use xlink:href="#ArialMT-30" x="55.615234"/>
       <use xlink:href="#ArialMT-30" x="111.230469"/>
      </g>
     </g>
    </g>
    <g id="xtick_5">
     <g id="line2d_5">
      <g>
       <use xlink:href="#me2efc454e1" x="318.851743" y="273.312" style="fill: #262626; stroke: #262626"/>
      </g>
     </g>
     <g id="text_5">
      <!-- 800 -->
      <g style="fill: #262626" transform="translate(311.511305 287.910875) scale(0.088 -0.088)">
       <defs>
        <path id="ArialMT-38" d="M 1131 2484 
Q 781 2613 612 2850 
Q 444 3088 444 3419 
Q 444 3919 803 4259 
Q 1163 4600 1759 4600 
Q 2359 4600 2725 4251 
Q 3091 3903 3091 3403 
Q 3091 3084 2923 2848 
Q 2756 2613 2416 2484 
Q 2838 2347 3058 2040 
Q 3278 1734 3278 1309 
Q 3278 722 2862 322 
Q 2447 -78 1769 -78 
Q 1091 -78 675 323 
Q 259 725 259 1325 
Q 259 1772 486 2073 
Q 713 2375 1131 2484 
z
M 1019 3438 
Q 1019 3113 1228 2906 
Q 1438 2700 1772 2700 
Q 2097 2700 2305 2904 
Q 2513 3109 2513 3406 
Q 2513 3716 2298 3927 
Q 2084 4138 1766 4138 
Q 1444 4138 1231 3931 
Q 1019 3725 1019 3438 
z
M 838 1322 
Q 838 1081 952 856 
Q 1066 631 1291 507 
Q 1516 384 1775 384 
Q 2178 384 2440 643 
Q 2703 903 2703 1303 
Q 2703 1709 2433 1975 
Q 2163 2241 1756 2241 
Q 1359 2241 1098 1978 
Q 838 1716 838 1322 
z
" transform="scale(0.015625)"/>
       </defs>
       <use xlink:href="#ArialMT-38"/>
       <use xlink:href="#ArialMT-30" x="55.615234"/>
       <use xlink:href="#ArialMT-30" x="111.230469"/>
      </g>
     </g>
    </g>
    <g id="xtick_6">
     <g id="line2d_6">
      <g>
       <use xlink:href="#me2efc454e1" x="383.847648" y="273.312" style="fill: #262626; stroke: #262626"/>
      </g>
     </g>
     <g id="text_6">
      <!-- 1000 -->
      <g style="fill: #262626" transform="translate(374.060398 287.910875) scale(0.088 -0.088)">
       <defs>
        <path id="ArialMT-31" d="M 2384 0 
L 1822 0 
L 1822 3584 
Q 1619 3391 1289 3197 
Q 959 3003 697 2906 
L 697 3450 
Q 1169 3672 1522 3987 
Q 1875 4303 2022 4600 
L 2384 4600 
L 2384 0 
z
" transform="scale(0.015625)"/>
       </defs>
       <use xlink:href="#ArialMT-31"/>
       <use xlink:href="#ArialMT-30" x="55.615234"/>
       <use xlink:href="#ArialMT-30" x="111.230469"/>
       <use xlink:href="#ArialMT-30" x="166.845703"/>
      </g>
     </g>
    </g>
    <g id="text_7">
     <!-- $N$ -->
     <g style="fill: #262626" transform="translate(217.920375 300.531375) scale(0.096 -0.096)">
      <defs>
       <path id="DejaVuSans-Oblique-4e" d="M 1081 4666 
L 1931 4666 
L 3219 666 
L 4000 4666 
L 4616 4666 
L 3706 0 
L 2853 0 
L 1569 4025 
L 788 0 
L 172 0 
L 1081 4666 
z
" transform="scale(0.015625)"/>
      </defs>
      <use xlink:href="#DejaVuSans-Oblique-4e" transform="translate(0 0.09375)"/>
     </g>
    </g>
   </g>
   <g id="matplotlib.axis_2">
    <g id="ytick_1">
     <g id="line2d_7">
      <defs>
       <path id="mcf5cc87da3" d="M 0 0 
L -4.8 0 
" style="stroke: #262626"/>
      </defs>
      <g>
       <use xlink:href="#mcf5cc87da3" x="42.960375" y="232.493917" style="fill: #262626; stroke: #262626"/>
      </g>
     </g>
     <g id="text_8">
      <!-- 160 -->
      <g style="fill: #262626" transform="translate(19.9795 235.643355) scale(0.088 -0.088)">
       <use xlink:href="#ArialMT-31"/>
       <use xlink:href="#ArialMT-36" x="55.615234"/>
       <use xlink:href="#ArialMT-30" x="111.230469"/>
      </g>
     </g>
    </g>
    <g id="ytick_2">
     <g id="line2d_8">
      <g>
       <use xlink:href="#mcf5cc87da3" x="42.960375" y="191.118646" style="fill: #262626; stroke: #262626"/>
      </g>
     </g>
     <g id="text_9">
      <!-- 180 -->
      <g style="fill: #262626" transform="translate(19.9795 194.268083) scale(0.088 -0.088)">
       <use xlink:href="#ArialMT-31"/>
       <use xlink:href="#ArialMT-38" x="55.615234"/>
       <use xlink:href="#ArialMT-30" x="111.230469"/>
      </g>
     </g>
    </g>
    <g id="ytick_3">
     <g id="line2d_9">
      <g>
       <use xlink:href="#mcf5cc87da3" x="42.960375" y="149.743374" style="fill: #262626; stroke: #262626"/>
      </g>
     </g>
     <g id="text_10">
      <!-- 200 -->
      <g style="fill: #262626" transform="translate(19.9795 152.892811) scale(0.088 -0.088)">
       <use xlink:href="#ArialMT-32"/>
       <use xlink:href="#ArialMT-30" x="55.615234"/>
       <use xlink:href="#ArialMT-30" x="111.230469"/>
      </g>
     </g>
    </g>
    <g id="ytick_4">
     <g id="line2d_10">
      <g>
       <use xlink:href="#mcf5cc87da3" x="42.960375" y="108.368102" style="fill: #262626; stroke: #262626"/>
      </g>
     </g>
     <g id="text_11">
      <!-- 220 -->
      <g style="fill: #262626" transform="translate(19.9795 111.517539) scale(0.088 -0.088)">
       <use xlink:href="#ArialMT-32"/>
       <use xlink:href="#ArialMT-32" x="55.615234"/>
       <use xlink:href="#ArialMT-30" x="111.230469"/>
      </g>
     </g>
    </g>
    <g id="ytick_5">
     <g id="line2d_11">
      <g>
       <use xlink:href="#mcf5cc87da3" x="42.960375" y="66.99283" style="fill: #262626; stroke: #262626"/>
      </g>
     </g>
     <g id="text_12">
      <!-- 240 -->
      <g style="fill: #262626" transform="translate(19.9795 70.142268) scale(0.088 -0.088)">
       <use xlink:href="#ArialMT-32"/>
       <use xlink:href="#ArialMT-34" x="55.615234"/>
       <use xlink:href="#ArialMT-30" x="111.230469"/>
      </g>
     </g>
    </g>
    <g id="ytick_6">
     <g id="line2d_12">
      <g>
       <use xlink:href="#mcf5cc87da3" x="42.960375" y="25.617558" style="fill: #262626; stroke: #262626"/>
      </g>
     </g>
     <g id="text_13">
      <!-- 260 -->
      <g style="fill: #262626" transform="translate(19.9795 28.766996) scale(0.088 -0.088)">
       <use xlink:href="#ArialMT-32"/>
       <use xlink:href="#ArialMT-36" x="55.615234"/>
       <use xlink:href="#ArialMT-30" x="111.230469"/>
      </g>
     </g>
    </g>
    <g id="text_14">
     <!-- $\mathbb{E}[T(x=0.5)]$ -->
     <g style="fill: #262626" transform="translate(14.0715 170.16) rotate(-90) scale(0.096 -0.096)">
      <defs>
       <path id="STIXNonUnicode-Italic-e156" d="M 4250 4179 
L 4192 3942 
L 2150 3942 
L 1709 2266 
L 3514 2266 
L 3443 2029 
L 1645 2029 
L 1165 237 
L 3443 237 
L 3392 0 
L 109 0 
L 1229 4179 
L 4250 4179 
z
M 1914 3942 
L 1414 3942 
L 416 237 
L 928 237 
L 1914 3942 
z
" transform="scale(0.015625)"/>
       <path id="DejaVuSans-5b" d="M 550 4863 
L 1875 4863 
L 1875 4416 
L 1125 4416 
L 1125 -397 
L 1875 -397 
L 1875 -844 
L 550 -844 
L 550 4863 
z
" transform="scale(0.015625)"/>
       <path id="DejaVuSans-Oblique-54" d="M 378 4666 
L 4325 4666 
L 4225 4134 
L 2559 4134 
L 1759 0 
L 1125 0 
L 1925 4134 
L 275 4134 
L 378 4666 
z
" transform="scale(0.015625)"/>
       <path id="DejaVuSans-28" d="M 1984 4856 
Q 1566 4138 1362 3434 
Q 1159 2731 1159 2009 
Q 1159 1288 1364 580 
Q 1569 -128 1984 -844 
L 1484 -844 
Q 1016 -109 783 600 
Q 550 1309 550 2009 
Q 550 2706 781 3412 
Q 1013 4119 1484 4856 
L 1984 4856 
z
" transform="scale(0.015625)"/>
       <path id="DejaVuSans-Oblique-78" d="M 3841 3500 
L 2234 1784 
L 3219 0 
L 2559 0 
L 1819 1388 
L 531 0 
L -166 0 
L 1556 1844 
L 641 3500 
L 1300 3500 
L 1972 2234 
L 3144 3500 
L 3841 3500 
z
" transform="scale(0.015625)"/>
       <path id="DejaVuSans-3d" d="M 678 2906 
L 4684 2906 
L 4684 2381 
L 678 2381 
L 678 2906 
z
M 678 1631 
L 4684 1631 
L 4684 1100 
L 678 1100 
L 678 1631 
z
" transform="scale(0.015625)"/>
       <path id="DejaVuSans-30" d="M 2034 4250 
Q 1547 4250 1301 3770 
Q 1056 3291 1056 2328 
Q 1056 1369 1301 889 
Q 1547 409 2034 409 
Q 2525 409 2770 889 
Q 3016 1369 3016 2328 
Q 3016 3291 2770 3770 
Q 2525 4250 2034 4250 
z
M 2034 4750 
Q 2819 4750 3233 4129 
Q 3647 3509 3647 2328 
Q 3647 1150 3233 529 
Q 2819 -91 2034 -91 
Q 1250 -91 836 529 
Q 422 1150 422 2328 
Q 422 3509 836 4129 
Q 1250 4750 2034 4750 
z
" transform="scale(0.015625)"/>
       <path id="DejaVuSans-2e" d="M 684 794 
L 1344 794 
L 1344 0 
L 684 0 
L 684 794 
z
" transform="scale(0.015625)"/>
       <path id="DejaVuSans-35" d="M 691 4666 
L 3169 4666 
L 3169 4134 
L 1269 4134 
L 1269 2991 
Q 1406 3038 1543 3061 
Q 1681 3084 1819 3084 
Q 2600 3084 3056 2656 
Q 3513 2228 3513 1497 
Q 3513 744 3044 326 
Q 2575 -91 1722 -91 
Q 1428 -91 1123 -41 
Q 819 9 494 109 
L 494 744 
Q 775 591 1075 516 
Q 1375 441 1709 441 
Q 2250 441 2565 725 
Q 2881 1009 2881 1497 
Q 2881 1984 2565 2268 
Q 2250 2553 1709 2553 
Q 1456 2553 1204 2497 
Q 953 2441 691 2322 
L 691 4666 
z
" transform="scale(0.015625)"/>
       <path id="DejaVuSans-29" d="M 513 4856 
L 1013 4856 
Q 1481 4119 1714 3412 
Q 1947 2706 1947 2009 
Q 1947 1309 1714 600 
Q 1481 -109 1013 -844 
L 513 -844 
Q 928 -128 1133 580 
Q 1338 1288 1338 2009 
Q 1338 2731 1133 3434 
Q 928 4138 513 4856 
z
" transform="scale(0.015625)"/>
       <path id="DejaVuSans-5d" d="M 1947 4863 
L 1947 -844 
L 622 -844 
L 622 -397 
L 1369 -397 
L 1369 4416 
L 622 4416 
L 622 4863 
L 1947 4863 
z
" transform="scale(0.015625)"/>
      </defs>
      <use xlink:href="#STIXNonUnicode-Italic-e156" transform="translate(0 0.015625)"/>
      <use xlink:href="#DejaVuSans-5b" transform="translate(63.899994 0.015625)"/>
      <use xlink:href="#DejaVuSans-Oblique-54" transform="translate(102.913666 0.015625)"/>
      <use xlink:href="#DejaVuSans-28" transform="translate(163.99765 0.015625)"/>
      <use xlink:href="#DejaVuSans-Oblique-78" transform="translate(203.011322 0.015625)"/>
      <use xlink:href="#DejaVuSans-3d" transform="translate(281.673431 0.015625)"/>
      <use xlink:href="#DejaVuSans-30" transform="translate(384.944916 0.015625)"/>
      <use xlink:href="#DejaVuSans-2e" transform="translate(448.567963 0.015625)"/>
      <use xlink:href="#DejaVuSans-35" transform="translate(480.355072 0.015625)"/>
      <use xlink:href="#DejaVuSans-29" transform="translate(543.978119 0.015625)"/>
      <use xlink:href="#DejaVuSans-5d" transform="translate(582.991791 0.015625)"/>
     </g>
    </g>
   </g>
   <g id="PolyCollection_1">
    <defs>
     <path id="m6beee668b3" d="M 59.193102 -85.173505 
L 59.193102 -85.173505 
L 59.518082 -49.971921 
L 59.843061 -48.423375 
L 60.168041 -54.612545 
L 60.49302 -65.949925 
L 60.818 -74.492148 
L 61.142979 -68.368145 
L 61.467959 -80.116007 
L 61.792938 -55.914562 
L 62.117918 -67.218135 
L 62.442898 -76.626161 
L 62.767877 -85.961019 
L 63.092857 -89.369966 
L 63.417836 -97.440228 
L 63.742816 -84.358679 
L 64.067795 -86.632672 
L 64.392775 -89.374672 
L 64.717754 -96.501744 
L 65.042734 -103.336403 
L 65.367713 -109.433403 
L 65.692693 -116.262556 
L 66.017672 -115.042153 
L 66.342652 -120.448274 
L 66.667631 -125.395476 
L 66.992611 -130.386651 
L 67.31759 -133.098811 
L 67.64257 -138.187217 
L 67.967549 -136.914637 
L 68.292529 -139.774677 
L 68.617508 -139.933646 
L 68.942488 -136.879534 
L 69.267468 -139.86409 
L 69.592447 -132.970405 
L 69.917427 -132.293164 
L 70.242406 -134.267532 
L 70.567386 -133.085505 
L 70.892365 -136.82383 
L 71.217345 -135.587578 
L 71.542324 -138.98991 
L 71.867304 -138.174238 
L 72.192283 -140.856579 
L 72.517263 -143.031486 
L 72.842242 -145.424195 
L 73.167222 -144.051001 
L 73.492201 -143.373651 
L 73.817181 -145.319749 
L 74.14216 -148.63666 
L 74.46714 -148.28995 
L 74.792119 -151.113927 
L 75.117099 -146.868448 
L 75.442079 -144.985623 
L 75.767058 -144.071032 
L 76.092038 -145.242235 
L 76.417017 -146.026592 
L 76.741997 -143.556647 
L 77.066976 -144.304097 
L 77.391956 -141.855663 
L 77.716935 -140.456431 
L 78.041915 -141.069293 
L 78.366894 -141.896238 
L 78.691874 -139.127711 
L 79.016853 -137.862555 
L 79.341833 -138.703436 
L 79.666812 -138.54711 
L 79.991792 -139.840712 
L 80.316771 -140.111617 
L 80.641751 -139.169744 
L 80.96673 -138.644396 
L 81.29171 -139.915702 
L 81.616689 -140.057923 
L 81.941669 -140.968126 
L 82.266649 -141.226324 
L 82.591628 -143.132098 
L 82.916608 -142.654237 
L 83.241587 -143.451442 
L 83.566567 -144.097238 
L 83.891546 -143.320467 
L 84.216526 -144.137916 
L 84.541505 -144.11085 
L 84.866485 -144.224419 
L 85.191464 -141.371003 
L 85.516444 -142.56952 
L 85.841423 -142.960937 
L 86.166403 -142.80149 
L 86.491382 -142.644254 
L 86.816362 -141.35455 
L 87.141341 -142.489998 
L 87.466321 -143.381237 
L 87.7913 -143.579313 
L 88.11628 -142.99997 
L 88.44126 -142.538394 
L 88.766239 -142.495777 
L 89.091219 -141.535135 
L 89.416198 -142.001735 
L 89.741178 -141.744498 
L 90.066157 -140.098736 
L 90.391137 -139.71399 
L 90.716116 -139.691412 
L 91.041096 -140.398931 
L 91.366075 -141.169632 
L 91.691055 -142.380882 
L 92.016034 -144.200593 
L 92.341014 -145.513001 
L 92.665993 -145.601208 
L 92.990973 -145.473901 
L 93.315952 -145.879819 
L 93.640932 -145.56636 
L 93.965911 -144.790171 
L 94.290891 -144.430325 
L 94.61587 -143.954642 
L 94.94085 -143.650376 
L 95.26583 -143.097758 
L 95.590809 -143.007276 
L 95.915789 -142.976163 
L 96.240768 -142.60394 
L 96.565748 -143.052095 
L 96.890727 -143.497459 
L 97.215707 -141.907594 
L 97.540686 -143.007011 
L 97.865666 -143.402896 
L 98.190645 -143.515278 
L 98.515625 -144.137516 
L 98.840604 -144.945931 
L 99.165584 -145.457067 
L 99.490563 -146.298657 
L 99.815543 -146.50549 
L 100.140522 -146.062271 
L 100.465502 -146.405814 
L 100.790481 -145.184677 
L 101.115461 -144.464324 
L 101.440441 -144.59457 
L 101.76542 -143.523421 
L 102.0904 -144.031554 
L 102.415379 -144.04157 
L 102.740359 -144.013903 
L 103.065338 -143.38606 
L 103.390318 -143.459008 
L 103.715297 -142.71847 
L 104.040277 -143.623044 
L 104.365256 -143.797991 
L 104.690236 -143.330638 
L 105.015215 -143.280531 
L 105.340195 -143.482248 
L 105.665174 -143.615634 
L 105.990154 -143.688336 
L 106.315133 -143.83684 
L 106.640113 -144.1135 
L 106.965092 -144.139832 
L 107.290072 -144.929618 
L 107.615051 -145.407016 
L 107.940031 -146.018653 
L 108.265011 -145.591478 
L 108.58999 -144.030322 
L 108.91497 -144.609081 
L 109.239949 -145.157216 
L 109.564929 -145.699355 
L 109.889908 -145.573429 
L 110.214888 -146.491666 
L 110.539867 -146.909898 
L 110.864847 -145.70625 
L 111.189826 -145.819963 
L 111.514806 -146.197 
L 111.839785 -147.185018 
L 112.164765 -148.299614 
L 112.489744 -148.64336 
L 112.814724 -149.206031 
L 113.139703 -148.910337 
L 113.464683 -149.419728 
L 113.789662 -149.958567 
L 114.114642 -150.210991 
L 114.439622 -150.353907 
L 114.764601 -149.321781 
L 115.089581 -149.606124 
L 115.41456 -150.08555 
L 115.73954 -149.794889 
L 116.064519 -149.499157 
L 116.389499 -149.794362 
L 116.714478 -148.872026 
L 117.039458 -149.101869 
L 117.364437 -149.006814 
L 117.689417 -149.870286 
L 118.014396 -150.425562 
L 118.339376 -149.857398 
L 118.664355 -150.630518 
L 118.989335 -150.635051 
L 119.314314 -150.279307 
L 119.639294 -149.954229 
L 119.964273 -150.112042 
L 120.289253 -149.268375 
L 120.614232 -149.627644 
L 120.939212 -149.062219 
L 121.264192 -149.336078 
L 121.589171 -149.374117 
L 121.914151 -148.845164 
L 122.23913 -148.056983 
L 122.56411 -148.05892 
L 122.889089 -147.798593 
L 123.214069 -148.637862 
L 123.539048 -148.169658 
L 123.864028 -148.610159 
L 124.189007 -149.064743 
L 124.513987 -149.645235 
L 124.838966 -149.789943 
L 125.163946 -150.27552 
L 125.488925 -150.632627 
L 125.813905 -151.097878 
L 126.138884 -151.654927 
L 126.463864 -151.347127 
L 126.788843 -151.138874 
L 127.113823 -150.591446 
L 127.438803 -150.854343 
L 127.763782 -151.057352 
L 128.088762 -151.879188 
L 128.413741 -152.112648 
L 128.738721 -151.830107 
L 129.0637 -151.852493 
L 129.38868 -152.642432 
L 129.713659 -153.059691 
L 130.038639 -153.478743 
L 130.363618 -153.526711 
L 130.688598 -153.802515 
L 131.013577 -153.162581 
L 131.338557 -153.027152 
L 131.663536 -153.059089 
L 131.988516 -153.448789 
L 132.313495 -153.650127 
L 132.638475 -153.585128 
L 132.963454 -153.982189 
L 133.288434 -153.434853 
L 133.613413 -153.320969 
L 133.938393 -153.581997 
L 134.263373 -153.995491 
L 134.588352 -154.18232 
L 134.913332 -154.367343 
L 135.238311 -155.097968 
L 135.563291 -155.284805 
L 135.88827 -154.761202 
L 136.21325 -155.140392 
L 136.538229 -155.339588 
L 136.863209 -155.490978 
L 137.188188 -154.617695 
L 137.513168 -155.476258 
L 137.838147 -156.312668 
L 138.163127 -156.027954 
L 138.488106 -155.7784 
L 138.813086 -156.12989 
L 139.138065 -155.82961 
L 139.463045 -155.713631 
L 139.788024 -155.282513 
L 140.113004 -155.790089 
L 140.437984 -155.555466 
L 140.762963 -156.193584 
L 141.087943 -156.093627 
L 141.412922 -156.408944 
L 141.737902 -156.034416 
L 142.062881 -156.5213 
L 142.387861 -156.706624 
L 142.71284 -156.776114 
L 143.03782 -157.189311 
L 143.362799 -157.02697 
L 143.687779 -157.263926 
L 144.012758 -156.897719 
L 144.337738 -157.051422 
L 144.662717 -157.177195 
L 144.987697 -157.303811 
L 145.312676 -157.518444 
L 145.637656 -157.738558 
L 145.962635 -157.387639 
L 146.287615 -157.459536 
L 146.612594 -157.009422 
L 146.937574 -157.465569 
L 147.262554 -157.124734 
L 147.587533 -156.562557 
L 147.912513 -156.6515 
L 148.237492 -156.721312 
L 148.562472 -157.104909 
L 148.887451 -157.266874 
L 149.212431 -157.134151 
L 149.53741 -157.228877 
L 149.86239 -156.885443 
L 150.187369 -156.949323 
L 150.512349 -157.010778 
L 150.837328 -157.117859 
L 151.162308 -157.082963 
L 151.487287 -156.900289 
L 151.812267 -156.894149 
L 152.137246 -157.240365 
L 152.462226 -157.135425 
L 152.787205 -157.316958 
L 153.112185 -157.290144 
L 153.437165 -157.257402 
L 153.762144 -157.23541 
L 154.087124 -157.231361 
L 154.412103 -157.269756 
L 154.737083 -157.711504 
L 155.062062 -157.902701 
L 155.387042 -157.630202 
L 155.712021 -158.168603 
L 156.037001 -158.077059 
L 156.36198 -158.306802 
L 156.68696 -158.152908 
L 157.011939 -158.237186 
L 157.336919 -158.465987 
L 157.661898 -158.751702 
L 157.986878 -158.46502 
L 158.311857 -158.20834 
L 158.636837 -158.063168 
L 158.961816 -158.558717 
L 159.286796 -158.827794 
L 159.611775 -158.858939 
L 159.936755 -158.682363 
L 160.261735 -158.947377 
L 160.586714 -159.22589 
L 160.911694 -159.370816 
L 161.236673 -159.178589 
L 161.561653 -159.302195 
L 161.886632 -159.647872 
L 162.211612 -158.997493 
L 162.536591 -159.458082 
L 162.861571 -159.64261 
L 163.18655 -160.207639 
L 163.51153 -160.224963 
L 163.836509 -160.402343 
L 164.161489 -160.75692 
L 164.486468 -160.797573 
L 164.811448 -160.608106 
L 165.136427 -160.639982 
L 165.461407 -160.542219 
L 165.786386 -160.869182 
L 166.111366 -161.027017 
L 166.436346 -161.398561 
L 166.761325 -161.356612 
L 167.086305 -161.128015 
L 167.411284 -161.512936 
L 167.736264 -161.718271 
L 168.061243 -162.006545 
L 168.386223 -161.93331 
L 168.711202 -162.038062 
L 169.036182 -162.094477 
L 169.361161 -162.186939 
L 169.686141 -162.181716 
L 170.01112 -162.609319 
L 170.3361 -162.518508 
L 170.661079 -162.189391 
L 170.986059 -162.119658 
L 171.311038 -162.365931 
L 171.636018 -162.163324 
L 171.960997 -162.019721 
L 172.285977 -161.989735 
L 172.610956 -162.122654 
L 172.935936 -162.364925 
L 173.260916 -162.145208 
L 173.585895 -162.371651 
L 173.910875 -162.320249 
L 174.235854 -162.21394 
L 174.560834 -162.296147 
L 174.885813 -162.722421 
L 175.210793 -162.845224 
L 175.535772 -162.838931 
L 175.860752 -163.187977 
L 176.185731 -163.346373 
L 176.510711 -163.43594 
L 176.83569 -163.256222 
L 177.16067 -163.196406 
L 177.485649 -162.404252 
L 177.810629 -162.32199 
L 178.135608 -162.326563 
L 178.460588 -162.634312 
L 178.785567 -162.547837 
L 179.110547 -162.038881 
L 179.435527 -161.333657 
L 179.760506 -160.863835 
L 180.085486 -160.756321 
L 180.410465 -160.699091 
L 180.735445 -160.974934 
L 181.060424 -160.912055 
L 181.385404 -160.68379 
L 181.710383 -160.658107 
L 182.035363 -160.641426 
L 182.360342 -160.831147 
L 182.685322 -160.805758 
L 183.010301 -160.765278 
L 183.335281 -160.789026 
L 183.66026 -160.472782 
L 183.98524 -160.390675 
L 184.310219 -160.686728 
L 184.635199 -160.808278 
L 184.960178 -161.202528 
L 185.285158 -161.276622 
L 185.610137 -161.457405 
L 185.935117 -161.240906 
L 186.260097 -161.312003 
L 186.585076 -161.355215 
L 186.910056 -160.954567 
L 187.235035 -161.067762 
L 187.560015 -160.976464 
L 187.884994 -160.969572 
L 188.209974 -160.753447 
L 188.534953 -160.462045 
L 188.859933 -160.675045 
L 189.184912 -160.954397 
L 189.509892 -161.066769 
L 189.834871 -161.224979 
L 190.159851 -161.378581 
L 190.48483 -161.072059 
L 190.80981 -161.108206 
L 191.134789 -161.049453 
L 191.459769 -161.328682 
L 191.784748 -161.423378 
L 192.109728 -161.252698 
L 192.434708 -161.288359 
L 192.759687 -161.124357 
L 193.084667 -161.195674 
L 193.409646 -161.169657 
L 193.734626 -161.295868 
L 194.059605 -160.723081 
L 194.384585 -160.416449 
L 194.709564 -160.768024 
L 195.034544 -160.556724 
L 195.359523 -160.448551 
L 195.684503 -160.084755 
L 196.009482 -160.338837 
L 196.334462 -160.34754 
L 196.659441 -160.206967 
L 196.984421 -160.194011 
L 197.3094 -160.54178 
L 197.63438 -160.50039 
L 197.959359 -160.5563 
L 198.284339 -160.504207 
L 198.609318 -160.365544 
L 198.934298 -160.263296 
L 199.259278 -160.266369 
L 199.584257 -159.952631 
L 199.909237 -160.009312 
L 200.234216 -160.09133 
L 200.559196 -160.519026 
L 200.884175 -160.677379 
L 201.209155 -160.959045 
L 201.534134 -161.060429 
L 201.859114 -161.0116 
L 202.184093 -160.900879 
L 202.509073 -160.694465 
L 202.834052 -160.976677 
L 203.159032 -161.064334 
L 203.484011 -161.374839 
L 203.808991 -161.066954 
L 204.13397 -161.087623 
L 204.45895 -161.121683 
L 204.783929 -161.225666 
L 205.108909 -161.285669 
L 205.433889 -161.12048 
L 205.758868 -161.287586 
L 206.083848 -161.391937 
L 206.408827 -160.641829 
L 206.733807 -160.635865 
L 207.058786 -160.617264 
L 207.383766 -160.652986 
L 207.708745 -160.733694 
L 208.033725 -160.999778 
L 208.358704 -160.944504 
L 208.683684 -161.03214 
L 209.008663 -161.117278 
L 209.333643 -161.346224 
L 209.658622 -161.115747 
L 209.983602 -161.007947 
L 210.308581 -161.244177 
L 210.633561 -161.130362 
L 210.95854 -161.365291 
L 211.28352 -161.41578 
L 211.608499 -161.490212 
L 211.933479 -161.657832 
L 212.258459 -161.662829 
L 212.583438 -161.45404 
L 212.908418 -161.194349 
L 213.233397 -161.233551 
L 213.558377 -161.123586 
L 213.883356 -161.45453 
L 214.208336 -161.554829 
L 214.533315 -161.402488 
L 214.858295 -161.489486 
L 215.183274 -161.629668 
L 215.508254 -161.52161 
L 215.833233 -161.478865 
L 216.158213 -161.690606 
L 216.483192 -161.832696 
L 216.808172 -161.834344 
L 217.133151 -161.388227 
L 217.458131 -161.089468 
L 217.78311 -161.139944 
L 218.10809 -161.079007 
L 218.43307 -160.996176 
L 218.758049 -161.19413 
L 219.083029 -161.23874 
L 219.408008 -161.156111 
L 219.732988 -161.500182 
L 220.057967 -161.626523 
L 220.382947 -161.775596 
L 220.707926 -161.464151 
L 221.032906 -161.374495 
L 221.357885 -160.989008 
L 221.682865 -160.922254 
L 222.007844 -160.922828 
L 222.332824 -161.08727 
L 222.657803 -160.991809 
L 222.982783 -161.036325 
L 223.307762 -161.09398 
L 223.632742 -161.131839 
L 223.957721 -160.982165 
L 224.282701 -160.849344 
L 224.60768 -161.031729 
L 224.93266 -161.047215 
L 225.25764 -161.100199 
L 225.582619 -161.15703 
L 225.907599 -161.069419 
L 226.232578 -161.080692 
L 226.557558 -160.862262 
L 226.882537 -160.751052 
L 227.207517 -160.810799 
L 227.532496 -160.521645 
L 227.857476 -160.470639 
L 228.182455 -160.374285 
L 228.507435 -160.417874 
L 228.832414 -160.577863 
L 229.157394 -160.297242 
L 229.482373 -160.439472 
L 229.807353 -160.42347 
L 230.132332 -160.126005 
L 230.457312 -160.186104 
L 230.782291 -160.20712 
L 231.107271 -160.172647 
L 231.432251 -160.163586 
L 231.75723 -159.798008 
L 232.08221 -159.898283 
L 232.407189 -159.970006 
L 232.732169 -160.199977 
L 233.057148 -160.124005 
L 233.382128 -160.188993 
L 233.707107 -160.210148 
L 234.032087 -160.003727 
L 234.357066 -160.131418 
L 234.682046 -160.060249 
L 235.007025 -160.187868 
L 235.332005 -160.032474 
L 235.656984 -159.772729 
L 235.981964 -159.827752 
L 236.306943 -159.54407 
L 236.631923 -159.175749 
L 236.956902 -159.165137 
L 237.281882 -159.098043 
L 237.606861 -159.090303 
L 237.931841 -158.992692 
L 238.256821 -158.828631 
L 238.5818 -158.545947 
L 238.90678 -158.305099 
L 239.231759 -158.381874 
L 239.556739 -158.519488 
L 239.881718 -158.430541 
L 240.206698 -158.194316 
L 240.531677 -158.295114 
L 240.856657 -158.35544 
L 241.181636 -158.351931 
L 241.506616 -158.359117 
L 241.831595 -158.48585 
L 242.156575 -158.580542 
L 242.481554 -158.88695 
L 242.806534 -159.059886 
L 243.131513 -158.976918 
L 243.456493 -158.857556 
L 243.781472 -158.662278 
L 244.106452 -158.648131 
L 244.431432 -158.719778 
L 244.756411 -158.90136 
L 245.081391 -159.012847 
L 245.40637 -159.100024 
L 245.73135 -158.75811 
L 246.056329 -159.055442 
L 246.381309 -158.860974 
L 246.706288 -158.935698 
L 247.031268 -159.0557 
L 247.356247 -159.300024 
L 247.681227 -159.225961 
L 248.006206 -159.193113 
L 248.331186 -159.097024 
L 248.656165 -159.211648 
L 248.981145 -159.332559 
L 249.306124 -159.493202 
L 249.631104 -159.48471 
L 249.956083 -159.502003 
L 250.281063 -159.570687 
L 250.606042 -159.793061 
L 250.931022 -159.673608 
L 251.256002 -159.466453 
L 251.580981 -159.384068 
L 251.905961 -159.046909 
L 252.23094 -159.31964 
L 252.55592 -159.241738 
L 252.880899 -159.146514 
L 253.205879 -159.291655 
L 253.530858 -159.26552 
L 253.855838 -159.403021 
L 254.180817 -159.470171 
L 254.505797 -159.30527 
L 254.830776 -159.576218 
L 255.155756 -159.511686 
L 255.480735 -159.201396 
L 255.805715 -158.981789 
L 256.130694 -158.861532 
L 256.455674 -158.692467 
L 256.780653 -158.398679 
L 257.105633 -158.115854 
L 257.430613 -158.222341 
L 257.755592 -158.358387 
L 258.080572 -158.384874 
L 258.405551 -158.218503 
L 258.730531 -158.158936 
L 259.05551 -158.220283 
L 259.38049 -158.194083 
L 259.705469 -158.073024 
L 260.030449 -158.249228 
L 260.355428 -158.115079 
L 260.680408 -158.118573 
L 261.005387 -158.292439 
L 261.330367 -158.689713 
L 261.655346 -158.747043 
L 261.980326 -158.858722 
L 262.305305 -158.873355 
L 262.630285 -158.910156 
L 262.955264 -158.925196 
L 263.280244 -159.186532 
L 263.605223 -159.105588 
L 263.930203 -158.861759 
L 264.255183 -158.822985 
L 264.580162 -158.983315 
L 264.905142 -158.964466 
L 265.230121 -158.834359 
L 265.555101 -158.776704 
L 265.88008 -158.582752 
L 266.20506 -158.699352 
L 266.530039 -158.800057 
L 266.855019 -158.801682 
L 267.179998 -158.944915 
L 267.504978 -158.840255 
L 267.829957 -158.950088 
L 268.154937 -158.916991 
L 268.479916 -158.558725 
L 268.804896 -158.862801 
L 269.129875 -159.054894 
L 269.454855 -159.137849 
L 269.779834 -158.923668 
L 270.104814 -158.844639 
L 270.429794 -158.953678 
L 270.754773 -159.06862 
L 271.079753 -158.848731 
L 271.404732 -158.750284 
L 271.729712 -159.016058 
L 272.054691 -159.005137 
L 272.379671 -159.251412 
L 272.70465 -159.165867 
L 273.02963 -158.971844 
L 273.354609 -158.933515 
L 273.679589 -159.039355 
L 274.004568 -159.027971 
L 274.329548 -159.215056 
L 274.654527 -159.373326 
L 274.979507 -159.217187 
L 275.304486 -159.377643 
L 275.629466 -159.373368 
L 275.954445 -159.048997 
L 276.279425 -159.117914 
L 276.604404 -159.236197 
L 276.929384 -159.028344 
L 277.254364 -159.11757 
L 277.579343 -159.067718 
L 277.904323 -158.733332 
L 278.229302 -158.577105 
L 278.554282 -158.370427 
L 278.879261 -158.423852 
L 279.204241 -158.687607 
L 279.52922 -158.651022 
L 279.8542 -158.368684 
L 280.179179 -158.435524 
L 280.504159 -158.662525 
L 280.829138 -158.724334 
L 281.154118 -158.579399 
L 281.479097 -158.411311 
L 281.804077 -158.162635 
L 282.129056 -158.110028 
L 282.454036 -158.247313 
L 282.779015 -158.27854 
L 283.103995 -158.308831 
L 283.428975 -158.502941 
L 283.753954 -158.554959 
L 284.078934 -158.488332 
L 284.403913 -158.26975 
L 284.728893 -158.554864 
L 285.053872 -158.554581 
L 285.378852 -158.460484 
L 285.703831 -158.63007 
L 286.028811 -158.711288 
L 286.35379 -158.71196 
L 286.67877 -158.655915 
L 287.003749 -158.637384 
L 287.328729 -158.659396 
L 287.653708 -158.533014 
L 287.978688 -158.609959 
L 288.303667 -158.59142 
L 288.628647 -158.441448 
L 288.953626 -158.427507 
L 289.278606 -158.413298 
L 289.603585 -158.421213 
L 289.928565 -158.245921 
L 290.253545 -158.18326 
L 290.578524 -157.992253 
L 290.903504 -158.055078 
L 291.228483 -157.932968 
L 291.553463 -157.95222 
L 291.878442 -157.963953 
L 292.203422 -158.225419 
L 292.528401 -158.236084 
L 292.853381 -158.217694 
L 293.17836 -158.264977 
L 293.50334 -158.467005 
L 293.828319 -158.398164 
L 294.153299 -158.405947 
L 294.478278 -158.454234 
L 294.803258 -158.432247 
L 295.128237 -158.349869 
L 295.453217 -158.373611 
L 295.778196 -158.457753 
L 296.103176 -158.461681 
L 296.428156 -158.256206 
L 296.753135 -158.143066 
L 297.078115 -158.235814 
L 297.403094 -158.312005 
L 297.728074 -158.464303 
L 298.053053 -158.640719 
L 298.378033 -158.704372 
L 298.703012 -158.662824 
L 299.027992 -158.715796 
L 299.352971 -158.852288 
L 299.677951 -158.824716 
L 300.00293 -158.727639 
L 300.32791 -158.698485 
L 300.652889 -158.676333 
L 300.977869 -158.762321 
L 301.302848 -158.815573 
L 301.627828 -158.818703 
L 301.952807 -158.869832 
L 302.277787 -158.734847 
L 302.602766 -158.780466 
L 302.927746 -159.00282 
L 303.252726 -158.88556 
L 303.577705 -158.995558 
L 303.902685 -159.028581 
L 304.227664 -159.073207 
L 304.552644 -159.071035 
L 304.877623 -159.079564 
L 305.202603 -159.226063 
L 305.527582 -159.352144 
L 305.852562 -159.217367 
L 306.177541 -159.228585 
L 306.502521 -159.073656 
L 306.8275 -159.013742 
L 307.15248 -159.044919 
L 307.477459 -159.046376 
L 307.802439 -159.114059 
L 308.127418 -159.205768 
L 308.452398 -159.226096 
L 308.777377 -158.971771 
L 309.102357 -159.125735 
L 309.427337 -159.258133 
L 309.752316 -159.213106 
L 310.077296 -159.196431 
L 310.402275 -159.021438 
L 310.727255 -159.080887 
L 311.052234 -159.135696 
L 311.377214 -159.193381 
L 311.702193 -159.214401 
L 312.027173 -159.174048 
L 312.352152 -159.315724 
L 312.677132 -159.264435 
L 313.002111 -159.32151 
L 313.327091 -159.559056 
L 313.65207 -159.471233 
L 313.97705 -159.625567 
L 314.302029 -159.737729 
L 314.627009 -159.84804 
L 314.951988 -159.844831 
L 315.276968 -159.77975 
L 315.601947 -159.826412 
L 315.926927 -159.615936 
L 316.251907 -159.674485 
L 316.576886 -159.76425 
L 316.901866 -159.832011 
L 317.226845 -159.802408 
L 317.551825 -159.857552 
L 317.876804 -159.783223 
L 318.201784 -159.709793 
L 318.526763 -159.718416 
L 318.851743 -159.932185 
L 319.176722 -160.161551 
L 319.501702 -160.234122 
L 319.826681 -160.228998 
L 320.151661 -160.121186 
L 320.47664 -160.285481 
L 320.80162 -160.452004 
L 321.126599 -160.436765 
L 321.451579 -160.562354 
L 321.776558 -160.538221 
L 322.101538 -160.596224 
L 322.426518 -160.701326 
L 322.751497 -160.82664 
L 323.076477 -160.721479 
L 323.401456 -160.622211 
L 323.726436 -160.453481 
L 324.051415 -160.314046 
L 324.376395 -160.216899 
L 324.701374 -160.092445 
L 325.026354 -160.019921 
L 325.351333 -160.101065 
L 325.676313 -160.017545 
L 326.001292 -160.006576 
L 326.326272 -160.041984 
L 326.651251 -160.199611 
L 326.976231 -160.237596 
L 327.30121 -160.162675 
L 327.62619 -160.302472 
L 327.951169 -160.263891 
L 328.276149 -160.233045 
L 328.601128 -160.214659 
L 328.926108 -160.267381 
L 329.251088 -160.28337 
L 329.576067 -160.368783 
L 329.901047 -160.339566 
L 330.226026 -160.276462 
L 330.551006 -160.351984 
L 330.875985 -160.378853 
L 331.200965 -160.41616 
L 331.525944 -160.4802 
L 331.850924 -160.354547 
L 332.175903 -160.351327 
L 332.500883 -160.196752 
L 332.825862 -160.229108 
L 333.150842 -160.286013 
L 333.475821 -160.564099 
L 333.800801 -160.666234 
L 334.12578 -160.732662 
L 334.45076 -160.696415 
L 334.775739 -160.682275 
L 335.100719 -160.951608 
L 335.425699 -160.982654 
L 335.750678 -161.169105 
L 336.075658 -161.058003 
L 336.400637 -160.807255 
L 336.725617 -160.701386 
L 337.050596 -160.844566 
L 337.375576 -160.618948 
L 337.700555 -160.645448 
L 338.025535 -160.795724 
L 338.350514 -160.911108 
L 338.675494 -160.97252 
L 339.000473 -160.97157 
L 339.325453 -160.987782 
L 339.650432 -160.904686 
L 339.975412 -161.010558 
L 340.300391 -161.060834 
L 340.625371 -161.070989 
L 340.95035 -161.124792 
L 341.27533 -161.162344 
L 341.600309 -161.121694 
L 341.925289 -161.036311 
L 342.250269 -161.108488 
L 342.575248 -161.18022 
L 342.900228 -161.160636 
L 343.225207 -161.137002 
L 343.550187 -161.281977 
L 343.875166 -161.202123 
L 344.200146 -161.103991 
L 344.525125 -161.201313 
L 344.850105 -161.161672 
L 345.175084 -160.922319 
L 345.500064 -161.036284 
L 345.825043 -160.927423 
L 346.150023 -161.051218 
L 346.475002 -160.966033 
L 346.799982 -161.025825 
L 347.124961 -160.952354 
L 347.449941 -161.169973 
L 347.77492 -161.09649 
L 348.0999 -161.218698 
L 348.42488 -161.264457 
L 348.749859 -161.492697 
L 349.074839 -161.531241 
L 349.399818 -161.513609 
L 349.724798 -161.589964 
L 350.049777 -161.626536 
L 350.374757 -161.615784 
L 350.699736 -161.612542 
L 351.024716 -161.623182 
L 351.349695 -161.717214 
L 351.674675 -161.688549 
L 351.999654 -161.767171 
L 352.324634 -161.825122 
L 352.649613 -161.739618 
L 352.974593 -161.772964 
L 353.299572 -161.873924 
L 353.624552 -161.966401 
L 353.949531 -162.004624 
L 354.274511 -161.855071 
L 354.59949 -161.942404 
L 354.92447 -162.167279 
L 355.24945 -162.030959 
L 355.574429 -161.966484 
L 355.899409 -162.000377 
L 356.224388 -161.905854 
L 356.549368 -161.788089 
L 356.874347 -161.486271 
L 357.199327 -161.686607 
L 357.524306 -161.737113 
L 357.849286 -161.80546 
L 358.174265 -161.895633 
L 358.499245 -161.9168 
L 358.824224 -161.805113 
L 359.149204 -161.772588 
L 359.474183 -161.837974 
L 359.799163 -161.968213 
L 360.124142 -161.893399 
L 360.449122 -161.671549 
L 360.774101 -161.637798 
L 361.099081 -161.593267 
L 361.424061 -161.569799 
L 361.74904 -161.590299 
L 362.07402 -161.582545 
L 362.398999 -161.544821 
L 362.723979 -161.540888 
L 363.048958 -161.559124 
L 363.373938 -161.487758 
L 363.698917 -161.494392 
L 364.023897 -161.5644 
L 364.348876 -161.51029 
L 364.673856 -161.386937 
L 364.998835 -161.430139 
L 365.323815 -161.436103 
L 365.648794 -161.403613 
L 365.973774 -161.461689 
L 366.298753 -161.614924 
L 366.623733 -161.427213 
L 366.948712 -161.425652 
L 367.273692 -161.405383 
L 367.598671 -161.401586 
L 367.923651 -161.35113 
L 368.248631 -161.372345 
L 368.57361 -161.289766 
L 368.89859 -161.43805 
L 369.223569 -161.577394 
L 369.548549 -161.624446 
L 369.873528 -161.785593 
L 370.198508 -161.683306 
L 370.523487 -161.659729 
L 370.848467 -161.600083 
L 371.173446 -161.68681 
L 371.498426 -161.518947 
L 371.823405 -161.520053 
L 372.148385 -161.542284 
L 372.473364 -161.543225 
L 372.798344 -161.547497 
L 373.123323 -161.500485 
L 373.448303 -161.534929 
L 373.773282 -161.562486 
L 374.098262 -161.71571 
L 374.423242 -161.781147 
L 374.748221 -161.584918 
L 375.073201 -161.573173 
L 375.39818 -161.56013 
L 375.72316 -161.57162 
L 376.048139 -161.555963 
L 376.373119 -161.649448 
L 376.698098 -161.685752 
L 377.023078 -161.486734 
L 377.348057 -161.561038 
L 377.673037 -161.449056 
L 377.998016 -161.584597 
L 378.322996 -161.652787 
L 378.647975 -161.629937 
L 378.972955 -161.74905 
L 379.297934 -161.860747 
L 379.622914 -161.909292 
L 379.947893 -161.928752 
L 380.272873 -161.832606 
L 380.597852 -161.751328 
L 380.922832 -161.864666 
L 381.247812 -161.999717 
L 381.572791 -162.055385 
L 381.897771 -161.971604 
L 382.22275 -161.763198 
L 382.54773 -161.926227 
L 382.872709 -161.79609 
L 383.197689 -161.794569 
L 383.522668 -161.693149 
L 383.847648 -161.864272 
L 383.847648 -173.289784 
L 383.847648 -173.289784 
L 383.522668 -173.108314 
L 383.197689 -173.213678 
L 382.872709 -173.226617 
L 382.54773 -173.356403 
L 382.22275 -173.185311 
L 381.897771 -173.377127 
L 381.572791 -173.467099 
L 381.247812 -173.421124 
L 380.922832 -173.284684 
L 380.597852 -173.174096 
L 380.272873 -173.261916 
L 379.947893 -173.362833 
L 379.622914 -173.354826 
L 379.297934 -173.316571 
L 378.972955 -173.208034 
L 378.647975 -173.090814 
L 378.322996 -173.12476 
L 377.998016 -173.065417 
L 377.673037 -172.928655 
L 377.348057 -173.043392 
L 377.023078 -172.977386 
L 376.698098 -173.162449 
L 376.373119 -173.137232 
L 376.048139 -173.049819 
L 375.72316 -173.076946 
L 375.39818 -173.077247 
L 375.073201 -173.10188 
L 374.748221 -173.125272 
L 374.423242 -173.308416 
L 374.098262 -173.252299 
L 373.773282 -173.094162 
L 373.448303 -173.078188 
L 373.123323 -173.055109 
L 372.798344 -173.112206 
L 372.473364 -173.119916 
L 372.148385 -173.130966 
L 371.823405 -173.120586 
L 371.498426 -173.131522 
L 371.173446 -173.292796 
L 370.848467 -173.213402 
L 370.523487 -173.282312 
L 370.198508 -173.317428 
L 369.873528 -173.424345 
L 369.548549 -173.256791 
L 369.223569 -173.220732 
L 368.89859 -173.080123 
L 368.57361 -172.928604 
L 368.248631 -173.018307 
L 367.923651 -173.009181 
L 367.598671 -173.069792 
L 367.273692 -173.085816 
L 366.948712 -173.117937 
L 366.623733 -173.131803 
L 366.298753 -173.3091 
L 365.973774 -173.151728 
L 365.648794 -173.104124 
L 365.323815 -173.148024 
L 364.998835 -173.154493 
L 364.673856 -173.122794 
L 364.348876 -173.24809 
L 364.023897 -173.312315 
L 363.698917 -173.251937 
L 363.373938 -173.257851 
L 363.048958 -173.337896 
L 362.723979 -173.33216 
L 362.398999 -173.348646 
L 362.07402 -173.397744 
L 361.74904 -173.418043 
L 361.424061 -173.41011 
L 361.099081 -173.44572 
L 360.774101 -173.501317 
L 360.449122 -173.546795 
L 360.124142 -173.750864 
L 359.799163 -173.83426 
L 359.474183 -173.705541 
L 359.149204 -173.650556 
L 358.824224 -173.694954 
L 358.499245 -173.810823 
L 358.174265 -173.802423 
L 357.849286 -173.7202 
L 357.524306 -173.662134 
L 357.199327 -173.623279 
L 356.874347 -173.406817 
L 356.549368 -173.668294 
L 356.224388 -173.78943 
L 355.899409 -173.890514 
L 355.574429 -173.86913 
L 355.24945 -173.94342 
L 354.92447 -174.080281 
L 354.59949 -173.830634 
L 354.274511 -173.75173 
L 353.949531 -173.899512 
L 353.624552 -173.873715 
L 353.299572 -173.789113 
L 352.974593 -173.694925 
L 352.649613 -173.674277 
L 352.324634 -173.767636 
L 351.999654 -173.721097 
L 351.674675 -173.652095 
L 351.349695 -173.693239 
L 351.024716 -173.607106 
L 350.699736 -173.6098 
L 350.374757 -173.626351 
L 350.049777 -173.650308 
L 349.724798 -173.626565 
L 349.399818 -173.560294 
L 349.074839 -173.591027 
L 348.749859 -173.565319 
L 348.42488 -173.312178 
L 348.0999 -173.278919 
L 347.77492 -173.160686 
L 347.449941 -173.243694 
L 347.124961 -173.005172 
L 346.799982 -173.088184 
L 346.475002 -173.040091 
L 346.150023 -173.133641 
L 345.825043 -173.013692 
L 345.500064 -173.128011 
L 345.175084 -173.019588 
L 344.850105 -173.237995 
L 344.525125 -173.289983 
L 344.200146 -173.200666 
L 343.875166 -173.305761 
L 343.550187 -173.394722 
L 343.225207 -173.249695 
L 342.900228 -173.286583 
L 342.575248 -173.319601 
L 342.250269 -173.2589 
L 341.925289 -173.197747 
L 341.600309 -173.291812 
L 341.27533 -173.345019 
L 340.95035 -173.320878 
L 340.625371 -173.279661 
L 340.300391 -173.283596 
L 339.975412 -173.246193 
L 339.650432 -173.147651 
L 339.325453 -173.239909 
L 339.000473 -173.237856 
L 338.675494 -173.253011 
L 338.350514 -173.203888 
L 338.025535 -173.0946 
L 337.700555 -172.94392 
L 337.375576 -172.931525 
L 337.050596 -173.140771 
L 336.725617 -172.998734 
L 336.400637 -173.111244 
L 336.075658 -173.339123 
L 335.750678 -173.45616 
L 335.425699 -173.260338 
L 335.100719 -173.243361 
L 334.775739 -172.933871 
L 334.45076 -172.962164 
L 334.12578 -173.011693 
L 333.800801 -172.957406 
L 333.475821 -172.863564 
L 333.150842 -172.541305 
L 332.825862 -172.497275 
L 332.500883 -172.479073 
L 332.175903 -172.632768 
L 331.850924 -172.650537 
L 331.525944 -172.780235 
L 331.200965 -172.728701 
L 330.875985 -172.705509 
L 330.551006 -172.693136 
L 330.226026 -172.629243 
L 329.901047 -172.704078 
L 329.576067 -172.74729 
L 329.251088 -172.672612 
L 328.926108 -172.671485 
L 328.601128 -172.632347 
L 328.276149 -172.665288 
L 327.951169 -172.710225 
L 327.62619 -172.762528 
L 327.30121 -172.625511 
L 326.976231 -172.711388 
L 326.651251 -172.687936 
L 326.326272 -172.529472 
L 326.001292 -172.508751 
L 325.676313 -172.53473 
L 325.351333 -172.628492 
L 325.026354 -172.559022 
L 324.701374 -172.642969 
L 324.376395 -172.7725 
L 324.051415 -172.878461 
L 323.726436 -173.02068 
L 323.401456 -173.186973 
L 323.076477 -173.294863 
L 322.751497 -173.407931 
L 322.426518 -173.288613 
L 322.101538 -173.192624 
L 321.776558 -173.148536 
L 321.451579 -173.187642 
L 321.126599 -173.068182 
L 320.80162 -173.098761 
L 320.47664 -172.930175 
L 320.151661 -172.76436 
L 319.826681 -172.880015 
L 319.501702 -172.900807 
L 319.176722 -172.841295 
L 318.851743 -172.591515 
L 318.526763 -172.36259 
L 318.201784 -172.369811 
L 317.876804 -172.455143 
L 317.551825 -172.541325 
L 317.226845 -172.500689 
L 316.901866 -172.545414 
L 316.576886 -172.491351 
L 316.251907 -172.413224 
L 315.926927 -172.369126 
L 315.601947 -172.569275 
L 315.276968 -172.537806 
L 314.951988 -172.615865 
L 314.627009 -172.635221 
L 314.302029 -172.534191 
L 313.97705 -172.431087 
L 313.65207 -172.27835 
L 313.327091 -172.377093 
L 313.002111 -172.117285 
L 312.677132 -172.075052 
L 312.352152 -172.140632 
L 312.027173 -172.003272 
L 311.702193 -172.058685 
L 311.377214 -172.054094 
L 311.052234 -172.011415 
L 310.727255 -171.971836 
L 310.402275 -171.927366 
L 310.077296 -172.100284 
L 309.752316 -172.133291 
L 309.427337 -172.193366 
L 309.102357 -172.067445 
L 308.777377 -171.915877 
L 308.452398 -172.150121 
L 308.127418 -172.146555 
L 307.802439 -172.067218 
L 307.477459 -172.014218 
L 307.15248 -172.029704 
L 306.8275 -172.015225 
L 306.502521 -172.089433 
L 306.177541 -172.246499 
L 305.852562 -172.252407 
L 305.527582 -172.392739 
L 305.202603 -172.274721 
L 304.877623 -172.132693 
L 304.552644 -172.14143 
L 304.227664 -172.160843 
L 303.902685 -172.132767 
L 303.577705 -172.11678 
L 303.252726 -172.017556 
L 302.927746 -172.143305 
L 302.602766 -171.906319 
L 302.277787 -171.877378 
L 301.952807 -172.018341 
L 301.627828 -171.983693 
L 301.302848 -171.998191 
L 300.977869 -171.961404 
L 300.652889 -171.889373 
L 300.32791 -171.928735 
L 300.00293 -171.974863 
L 299.677951 -172.083431 
L 299.352971 -172.128133 
L 299.027992 -171.99897 
L 298.703012 -171.9628 
L 298.378033 -172.020901 
L 298.053053 -171.973488 
L 297.728074 -171.796459 
L 297.403094 -171.648822 
L 297.078115 -171.588012 
L 296.753135 -171.509089 
L 296.428156 -171.632162 
L 296.103176 -171.831442 
L 295.778196 -171.845838 
L 295.453217 -171.77657 
L 295.128237 -171.771136 
L 294.803258 -171.867252 
L 294.478278 -171.9072 
L 294.153299 -171.876569 
L 293.828319 -171.887416 
L 293.50334 -171.971473 
L 293.17836 -171.763223 
L 292.853381 -171.733816 
L 292.528401 -171.770555 
L 292.203422 -171.778739 
L 291.878442 -171.491708 
L 291.553463 -171.498865 
L 291.228483 -171.498503 
L 290.903504 -171.630118 
L 290.578524 -171.584603 
L 290.253545 -171.773452 
L 289.928565 -171.852281 
L 289.603585 -172.028557 
L 289.278606 -172.039833 
L 288.953626 -172.072959 
L 288.628647 -172.105879 
L 288.303667 -172.261528 
L 287.978688 -172.298998 
L 287.653708 -172.238748 
L 287.328729 -172.374588 
L 287.003749 -172.372026 
L 286.67877 -172.409689 
L 286.35379 -172.482951 
L 286.028811 -172.501931 
L 285.703831 -172.43739 
L 285.378852 -172.27128 
L 285.053872 -172.379302 
L 284.728893 -172.399417 
L 284.403913 -172.081645 
L 284.078934 -172.293325 
L 283.753954 -172.376644 
L 283.428975 -172.34358 
L 283.103995 -172.147513 
L 282.779015 -172.137067 
L 282.454036 -172.125722 
L 282.129056 -171.998557 
L 281.804077 -172.069221 
L 281.479097 -172.304478 
L 281.154118 -172.476241 
L 280.829138 -172.628781 
L 280.504159 -172.58578 
L 280.179179 -172.348183 
L 279.8542 -172.299898 
L 279.52922 -172.560386 
L 279.204241 -172.616257 
L 278.879261 -172.32949 
L 278.554282 -172.295538 
L 278.229302 -172.4987 
L 277.904323 -172.660999 
L 277.579343 -172.958605 
L 277.254364 -173.027112 
L 276.929384 -172.954865 
L 276.604404 -173.159096 
L 276.279425 -173.054486 
L 275.954445 -173.004399 
L 275.629466 -173.29533 
L 275.304486 -173.320384 
L 274.979507 -173.166736 
L 274.654527 -173.329312 
L 274.329548 -173.178384 
L 274.004568 -172.992447 
L 273.679589 -173.024685 
L 273.354609 -172.934541 
L 273.02963 -172.992784 
L 272.70465 -173.186638 
L 272.379671 -173.288512 
L 272.054691 -173.026823 
L 271.729712 -173.058888 
L 271.404732 -172.770834 
L 271.079753 -172.884342 
L 270.754773 -173.098844 
L 270.429794 -172.998868 
L 270.104814 -172.905608 
L 269.779834 -173.001929 
L 269.454855 -173.212216 
L 269.129875 -173.147933 
L 268.804896 -172.956799 
L 268.479916 -172.615311 
L 268.154937 -172.930688 
L 267.829957 -172.984502 
L 267.504978 -172.890613 
L 267.179998 -173.010043 
L 266.855019 -172.878008 
L 266.530039 -172.898361 
L 266.20506 -172.814944 
L 265.88008 -172.713784 
L 265.555101 -172.908552 
L 265.230121 -172.985883 
L 264.905142 -173.127846 
L 264.580162 -173.168568 
L 264.255183 -173.016958 
L 263.930203 -173.076854 
L 263.605223 -173.311059 
L 263.280244 -173.410029 
L 262.955264 -173.130086 
L 262.630285 -173.137693 
L 262.305305 -173.12325 
L 261.980326 -173.131411 
L 261.655346 -173.036631 
L 261.330367 -173.001029 
L 261.005387 -172.518073 
L 260.680408 -172.350737 
L 260.355428 -172.370163 
L 260.030449 -172.516314 
L 259.705469 -172.346391 
L 259.38049 -172.481393 
L 259.05551 -172.530004 
L 258.730531 -172.490503 
L 258.405551 -172.570686 
L 258.080572 -172.744348 
L 257.755592 -172.741203 
L 257.430613 -172.619452 
L 257.105633 -172.531303 
L 256.780653 -172.796127 
L 256.455674 -173.068932 
L 256.130694 -173.245091 
L 255.805715 -173.380026 
L 255.480735 -173.596939 
L 255.155756 -173.881772 
L 254.830776 -173.967013 
L 254.505797 -173.676016 
L 254.180817 -173.848937 
L 253.855838 -173.804004 
L 253.530858 -173.681126 
L 253.205879 -173.730575 
L 252.880899 -173.599011 
L 252.55592 -173.712457 
L 252.23094 -173.810405 
L 251.905961 -173.517907 
L 251.580981 -173.822447 
L 251.256002 -173.924507 
L 250.931022 -174.132289 
L 250.606042 -174.26729 
L 250.281063 -174.04174 
L 249.956083 -173.995852 
L 249.631104 -174.003237 
L 249.306124 -174.036267 
L 248.981145 -173.887295 
L 248.656165 -173.784423 
L 248.331186 -173.688723 
L 248.006206 -173.803773 
L 247.681227 -173.860665 
L 247.356247 -173.956037 
L 247.031268 -173.703266 
L 246.706288 -173.601915 
L 246.381309 -173.550436 
L 246.056329 -173.749325 
L 245.73135 -173.424822 
L 245.40637 -173.734311 
L 245.081391 -173.669517 
L 244.756411 -173.578031 
L 244.431432 -173.405006 
L 244.106452 -173.357179 
L 243.781472 -173.396784 
L 243.456493 -173.59678 
L 243.131513 -173.733253 
L 242.806534 -173.837539 
L 242.481554 -173.67557 
L 242.156575 -173.339445 
L 241.831595 -173.26719 
L 241.506616 -173.159309 
L 241.181636 -173.178485 
L 240.856657 -173.20832 
L 240.531677 -173.173341 
L 240.206698 -173.094888 
L 239.881718 -173.328238 
L 239.556739 -173.438643 
L 239.231759 -173.319039 
L 238.90678 -173.267005 
L 238.5818 -173.504315 
L 238.256821 -173.773344 
L 237.931841 -173.949069 
L 237.606861 -174.067624 
L 237.281882 -174.102403 
L 236.956902 -174.19354 
L 236.631923 -174.231315 
L 236.306943 -174.562136 
L 235.981964 -174.832447 
L 235.656984 -174.80408 
L 235.332005 -175.056556 
L 235.007025 -175.225647 
L 234.682046 -175.118492 
L 234.357066 -175.213863 
L 234.032087 -175.106847 
L 233.707107 -175.31821 
L 233.382128 -175.325162 
L 233.057148 -175.287007 
L 232.732169 -175.387226 
L 232.407189 -175.157889 
L 232.08221 -175.112866 
L 231.75723 -175.037116 
L 231.432251 -175.367662 
L 231.107271 -175.405125 
L 230.782291 -175.46717 
L 230.457312 -175.475033 
L 230.132332 -175.44283 
L 229.807353 -175.725419 
L 229.482373 -175.770086 
L 229.157394 -175.647996 
L 228.832414 -175.918364 
L 228.507435 -175.775825 
L 228.182455 -175.761274 
L 227.857476 -175.88114 
L 227.532496 -175.959661 
L 227.207517 -176.23699 
L 226.882537 -176.206013 
L 226.557558 -176.339428 
L 226.232578 -176.562682 
L 225.907599 -176.581522 
L 225.582619 -176.694198 
L 225.25764 -176.666799 
L 224.93266 -176.643532 
L 224.60768 -176.658627 
L 224.282701 -176.491281 
L 223.957721 -176.644433 
L 223.632742 -176.812132 
L 223.307762 -176.805004 
L 222.982783 -176.777537 
L 222.657803 -176.763822 
L 222.332824 -176.884703 
L 222.007844 -176.739594 
L 221.682865 -176.770475 
L 221.357885 -176.865617 
L 221.032906 -177.214786 
L 220.707926 -177.330903 
L 220.382947 -177.627588 
L 220.057967 -177.500876 
L 219.732988 -177.400105 
L 219.408008 -177.022588 
L 219.083029 -177.132717 
L 218.758049 -177.119998 
L 218.43307 -176.936164 
L 218.10809 -177.046827 
L 217.78311 -177.137538 
L 217.458131 -177.119253 
L 217.133151 -177.407829 
L 216.808172 -177.799119 
L 216.483192 -177.830279 
L 216.158213 -177.712818 
L 215.833233 -177.513102 
L 215.508254 -177.587404 
L 215.183274 -177.721558 
L 214.858295 -177.606823 
L 214.533315 -177.550938 
L 214.208336 -177.723947 
L 213.883356 -177.653959 
L 213.558377 -177.298831 
L 213.233397 -177.435335 
L 212.908418 -177.430071 
L 212.583438 -177.690702 
L 212.258459 -177.911177 
L 211.933479 -177.940604 
L 211.608499 -177.795621 
L 211.28352 -177.754312 
L 210.95854 -177.738192 
L 210.633561 -177.512369 
L 210.308581 -177.653408 
L 209.983602 -177.426277 
L 209.658622 -177.562222 
L 209.333643 -177.801378 
L 209.008663 -177.583797 
L 208.683684 -177.532104 
L 208.358704 -177.4779 
L 208.033725 -177.566683 
L 207.708745 -177.302834 
L 207.383766 -177.256432 
L 207.058786 -177.256972 
L 206.733807 -177.311501 
L 206.408827 -177.353915 
L 206.083848 -177.929315 
L 205.758868 -177.857811 
L 205.433889 -177.715917 
L 205.108909 -177.903021 
L 204.783929 -177.879182 
L 204.45895 -177.808717 
L 204.13397 -177.811873 
L 203.808991 -177.8287 
L 203.484011 -178.129925 
L 203.159032 -177.809585 
L 202.834052 -177.757391 
L 202.509073 -177.475126 
L 202.184093 -177.697648 
L 201.859114 -177.838978 
L 201.534134 -177.924008 
L 201.209155 -177.857794 
L 200.884175 -177.577362 
L 200.559196 -177.447969 
L 200.234216 -176.959803 
L 199.909237 -176.914737 
L 199.584257 -176.896434 
L 199.259278 -177.203797 
L 198.934298 -177.239894 
L 198.609318 -177.374985 
L 198.284339 -177.542286 
L 197.959359 -177.631832 
L 197.63438 -177.615298 
L 197.3094 -177.695145 
L 196.984421 -177.328049 
L 196.659441 -177.380911 
L 196.334462 -177.550852 
L 196.009482 -177.582852 
L 195.684503 -177.341203 
L 195.359523 -177.687541 
L 195.034544 -177.829591 
L 194.709564 -178.059644 
L 194.384585 -177.689121 
L 194.059605 -177.99393 
L 193.734626 -178.478403 
L 193.409646 -178.388246 
L 193.084667 -178.454955 
L 192.759687 -178.424325 
L 192.434708 -178.615805 
L 192.109728 -178.622307 
L 191.784748 -178.819838 
L 191.459769 -178.765217 
L 191.134789 -178.494047 
L 190.80981 -178.592918 
L 190.48483 -178.599846 
L 190.159851 -178.906763 
L 189.834871 -178.788201 
L 189.509892 -178.664636 
L 189.184912 -178.592271 
L 188.859933 -178.32283 
L 188.534953 -178.135926 
L 188.209974 -178.432562 
L 187.884994 -178.669937 
L 187.560015 -178.721146 
L 187.235035 -178.851814 
L 186.910056 -178.779901 
L 186.585076 -179.157773 
L 186.260097 -179.159785 
L 185.935117 -179.133267 
L 185.610137 -179.372421 
L 185.285158 -179.225715 
L 184.960178 -179.196697 
L 184.635199 -178.774746 
L 184.310219 -178.695241 
L 183.98524 -178.408159 
L 183.66026 -178.532457 
L 183.335281 -178.851152 
L 183.010301 -178.874688 
L 182.685322 -178.960925 
L 182.360342 -179.033044 
L 182.035363 -178.878307 
L 181.710383 -178.942516 
L 181.385404 -179.015631 
L 181.060424 -179.267485 
L 180.735445 -179.376107 
L 180.410465 -179.11851 
L 180.085486 -179.222306 
L 179.760506 -179.372278 
L 179.435527 -179.803959 
L 179.110547 -180.380376 
L 178.785567 -180.837075 
L 178.460588 -180.968076 
L 178.135608 -180.670232 
L 177.810629 -180.715597 
L 177.485649 -180.843451 
L 177.16067 -181.467444 
L 176.83569 -181.574545 
L 176.510711 -181.787982 
L 176.185731 -181.747406 
L 175.860752 -181.631972 
L 175.535772 -181.281104 
L 175.210793 -181.338472 
L 174.885813 -181.263228 
L 174.560834 -180.804322 
L 174.235854 -180.772854 
L 173.910875 -180.924421 
L 173.585895 -181.02601 
L 173.260916 -180.833758 
L 172.935936 -181.083153 
L 172.610956 -180.872424 
L 172.285977 -180.788199 
L 171.960997 -180.870853 
L 171.636018 -181.057227 
L 171.311038 -181.293995 
L 170.986059 -181.080208 
L 170.661079 -181.201221 
L 170.3361 -181.538931 
L 170.01112 -181.679717 
L 169.686141 -181.226498 
L 169.361161 -181.287277 
L 169.036182 -181.249379 
L 168.711202 -181.249303 
L 168.386223 -181.199056 
L 168.061243 -181.32549 
L 167.736264 -181.063514 
L 167.411284 -180.902196 
L 167.086305 -180.513701 
L 166.761325 -180.775828 
L 166.436346 -180.874412 
L 166.111366 -180.505502 
L 165.786386 -180.399735 
L 165.461407 -180.090874 
L 165.136427 -180.242076 
L 164.811448 -180.270328 
L 164.486468 -180.502226 
L 164.161489 -180.522347 
L 163.836509 -180.179715 
L 163.51153 -180.054494 
L 163.18655 -180.098871 
L 162.861571 -179.446399 
L 162.536591 -179.313792 
L 162.211612 -178.824563 
L 161.886632 -179.388248 
L 161.561653 -179.058808 
L 161.236673 -178.99434 
L 160.911694 -179.231093 
L 160.586714 -179.144206 
L 160.261735 -178.902323 
L 159.936755 -178.677401 
L 159.611775 -178.902344 
L 159.286796 -178.936064 
L 158.961816 -178.707642 
L 158.636837 -178.171871 
L 158.311857 -178.370967 
L 157.986878 -178.66378 
L 157.661898 -178.980788 
L 157.336919 -178.733756 
L 157.011939 -178.555728 
L 156.68696 -178.537928 
L 156.36198 -178.746853 
L 156.037001 -178.569227 
L 155.712021 -178.723632 
L 155.387042 -178.129192 
L 155.062062 -178.437954 
L 154.737083 -178.306208 
L 154.412103 -177.857336 
L 154.087124 -177.889202 
L 153.762144 -177.963403 
L 153.437165 -178.055372 
L 153.112185 -178.158068 
L 152.787205 -178.255607 
L 152.462226 -178.138242 
L 152.137246 -178.309118 
L 151.812267 -177.995155 
L 151.487287 -178.074639 
L 151.162308 -178.314963 
L 150.837328 -178.422961 
L 150.512349 -178.389578 
L 150.187369 -178.403997 
L 149.86239 -178.416494 
L 149.53741 -178.789385 
L 149.212431 -178.771029 
L 148.887451 -178.971593 
L 148.562472 -178.882457 
L 148.237492 -178.527963 
L 147.912513 -178.537402 
L 147.587533 -178.527739 
L 147.262554 -179.061114 
L 146.937574 -179.436125 
L 146.612594 -178.986546 
L 146.287615 -179.443377 
L 145.962635 -179.453159 
L 145.637656 -179.837646 
L 145.312676 -179.688251 
L 144.987697 -179.54577 
L 144.662717 -179.500754 
L 144.337738 -179.457296 
L 144.012758 -179.384534 
L 143.687779 -179.784611 
L 143.362799 -179.619944 
L 143.03782 -179.855498 
L 142.71284 -179.474419 
L 142.387861 -179.493021 
L 142.062881 -179.389376 
L 141.737902 -178.910445 
L 141.412922 -179.321075 
L 141.087943 -179.068114 
L 140.762963 -179.252213 
L 140.437984 -178.549498 
L 140.113004 -178.851076 
L 139.788024 -178.347223 
L 139.463045 -178.803032 
L 139.138065 -179.003798 
L 138.813086 -179.360951 
L 138.488106 -179.068562 
L 138.163127 -179.38595 
L 137.838147 -179.732628 
L 137.513168 -178.689284 
L 137.188188 -177.596694 
L 136.863209 -178.337769 
L 136.538229 -178.278072 
L 136.21325 -178.166853 
L 135.88827 -177.84169 
L 135.563291 -178.367471 
L 135.238311 -178.27195 
L 134.913332 -177.424407 
L 134.588352 -177.331648 
L 134.263373 -177.237793 
L 133.938393 -176.872692 
L 133.613413 -176.696507 
L 133.288434 -176.903649 
L 132.963454 -177.451483 
L 132.638475 -177.111469 
L 132.313495 -177.276084 
L 131.988516 -177.171845 
L 131.663536 -176.844687 
L 131.338557 -176.91926 
L 131.013577 -177.151022 
L 130.688598 -177.767523 
L 130.363618 -177.582958 
L 130.038639 -177.644819 
L 129.713659 -177.286565 
L 129.38868 -176.931683 
L 129.0637 -176.012458 
L 128.738721 -176.10207 
L 128.413741 -176.463804 
L 128.088762 -176.333817 
L 127.763782 -175.363128 
L 127.438803 -175.267998 
L 127.113823 -175.106605 
L 126.788843 -175.670386 
L 126.463864 -175.975116 
L 126.138884 -176.362603 
L 125.813905 -175.829022 
L 125.488925 -175.422937 
L 125.163946 -175.155903 
L 124.838966 -174.725329 
L 124.513987 -174.701793 
L 124.189007 -174.141952 
L 123.864028 -173.756398 
L 123.539048 -173.390485 
L 123.214069 -173.908777 
L 122.889089 -172.936815 
L 122.56411 -173.294949 
L 122.23913 -173.421203 
L 121.914151 -174.156462 
L 121.589171 -174.721771 
L 121.264192 -174.815505 
L 120.939212 -174.660613 
L 120.614232 -175.255384 
L 120.289253 -175.002446 
L 119.964273 -175.778335 
L 119.639294 -175.755224 
L 119.314314 -176.175873 
L 118.989335 -176.621904 
L 118.664355 -176.757287 
L 118.339376 -175.930175 
L 118.014396 -176.53571 
L 117.689417 -176.039933 
L 117.364437 -175.061192 
L 117.039458 -175.293571 
L 116.714478 -175.203033 
L 116.389499 -176.038412 
L 116.064519 -175.876384 
L 115.73954 -176.28518 
L 115.41456 -176.691394 
L 115.089581 -176.309998 
L 114.764601 -176.167245 
L 114.439622 -177.074641 
L 114.114642 -177.087642 
L 113.789662 -176.984861 
L 113.464683 -176.534363 
L 113.139703 -176.125003 
L 112.814724 -176.546784 
L 112.489744 -176.070783 
L 112.164765 -175.872875 
L 111.839785 -174.460238 
L 111.514806 -173.300103 
L 111.189826 -173.063619 
L 110.864847 -173.119936 
L 110.539867 -174.134615 
L 110.214888 -173.85265 
L 109.889908 -172.832715 
L 109.564929 -173.120802 
L 109.239949 -172.685855 
L 108.91497 -172.245381 
L 108.58999 -171.766124 
L 108.265011 -172.957835 
L 107.940031 -173.4978 
L 107.615051 -172.975637 
L 107.290072 -172.63463 
L 106.965092 -171.853268 
L 106.640113 -172.014156 
L 106.315133 -171.918668 
L 105.990154 -171.963059 
L 105.665174 -172.086527 
L 105.340195 -172.151913 
L 105.015215 -172.14918 
L 104.690236 -172.397844 
L 104.365256 -172.994779 
L 104.040277 -173.028514 
L 103.715297 -172.11013 
L 103.390318 -172.904463 
L 103.065338 -173.047691 
L 102.740359 -173.77176 
L 102.415379 -174.016512 
L 102.0904 -174.229133 
L 101.76542 -173.903718 
L 101.440441 -174.918877 
L 101.115461 -175.021846 
L 100.790481 -175.826489 
L 100.465502 -176.931727 
L 100.140522 -176.814641 
L 99.815543 -177.429088 
L 99.490563 -177.467816 
L 99.165584 -176.713799 
L 98.840604 -176.414755 
L 98.515625 -175.720434 
L 98.190645 -175.288802 
L 97.865666 -175.4411 
L 97.540686 -175.296181 
L 97.215707 -174.159088 
L 96.890727 -175.490883 
L 96.565748 -175.295662 
L 96.240768 -175.102353 
L 95.915789 -175.701527 
L 95.590809 -176.014988 
L 95.26583 -176.387207 
L 94.94085 -177.137574 
L 94.61587 -177.701248 
L 94.290891 -178.404115 
L 93.965911 -179.022188 
L 93.640932 -179.948534 
L 93.315952 -180.538812 
L 92.990973 -180.448783 
L 92.665993 -180.89366 
L 92.341014 -181.146561 
L 92.016034 -179.777708 
L 91.691055 -177.212677 
L 91.366075 -176.014937 
L 91.041096 -175.501422 
L 90.716116 -175.079312 
L 90.391137 -175.45763 
L 90.066157 -176.149759 
L 89.741178 -177.62911 
L 89.416198 -178.227292 
L 89.091219 -178.132831 
L 88.766239 -179.25373 
L 88.44126 -179.687909 
L 88.11628 -180.47784 
L 87.7913 -181.363566 
L 87.466321 -181.594798 
L 87.141341 -181.031981 
L 86.816362 -180.128336 
L 86.491382 -181.50559 
L 86.166403 -182.096634 
L 85.841423 -182.699897 
L 85.516444 -182.788486 
L 85.191464 -181.861141 
L 84.866485 -183.980478 
L 84.541505 -184.366418 
L 84.216526 -184.89428 
L 83.891546 -184.538536 
L 83.566567 -185.678924 
L 83.241587 -185.559367 
L 82.916608 -185.275657 
L 82.591628 -186.239702 
L 82.266649 -184.206922 
L 81.941669 -184.55372 
L 81.616689 -184.191854 
L 81.29171 -184.683714 
L 80.96673 -183.877538 
L 80.641751 -184.96312 
L 80.316771 -186.359441 
L 79.991792 -186.798813 
L 79.666812 -186.063236 
L 79.341833 -186.929732 
L 79.016853 -186.829989 
L 78.691874 -188.536012 
L 78.366894 -191.005038 
L 78.041915 -190.980941 
L 77.716935 -191.223118 
L 77.391956 -193.090805 
L 77.066976 -195.517855 
L 76.741997 -195.688573 
L 76.417017 -198.173535 
L 76.092038 -198.359341 
L 75.767058 -198.136386 
L 75.442079 -199.854153 
L 75.117099 -202.183763 
L 74.792119 -205.468984 
L 74.46714 -202.550481 
L 74.14216 -203.940396 
L 73.817181 -199.748637 
L 73.492201 -198.676265 
L 73.167222 -200.401371 
L 72.842242 -202.624227 
L 72.517263 -201.036912 
L 72.192283 -199.896602 
L 71.867304 -197.964649 
L 71.542324 -200.034298 
L 71.217345 -196.760861 
L 70.892365 -199.205823 
L 70.567386 -195.29745 
L 70.242406 -197.815347 
L 69.917427 -197.55229 
L 69.592447 -199.921959 
L 69.267468 -204.706214 
L 68.942488 -203.183869 
L 68.617508 -207.006513 
L 68.292529 -209.053976 
L 67.967549 -208.287522 
L 67.64257 -211.609594 
L 67.31759 -206.398784 
L 66.992611 -206.420926 
L 66.667631 -202.46198 
L 66.342652 -199.016097 
L 66.017672 -194.778884 
L 65.692693 -199.039363 
L 65.367713 -190.199215 
L 65.042734 -185.309466 
L 64.717754 -178.006766 
L 64.392775 -169.209 
L 64.067795 -171.450366 
L 63.742816 -174.803426 
L 63.417836 -183.364984 
L 63.092857 -176.715756 
L 62.767877 -180.580861 
L 62.442898 -175.096581 
L 62.117918 -172.635487 
L 61.792938 -168.323506 
L 61.467959 -180.424409 
L 61.142979 -159.876008 
L 60.818 -172.906397 
L 60.49302 -183.922576 
L 60.168041 -201.431278 
L 59.843061 -234.2618 
L 59.518082 -290.343375 
L 59.193102 -85.173505 
z
" style="stroke: #ffffff; stroke-opacity: 0.25; stroke-width: 0.8"/>
    </defs>
    <g clip-path="url(#pcc1fad3321)">
     <use xlink:href="#m6beee668b3" x="0" y="309.639375" style="fill: #1f77b4; fill-opacity: 0.25; stroke: #ffffff; stroke-opacity: 0.25; stroke-width: 0.8"/>
    </g>
   </g>
   <g id="line2d_13">
    <path d="M 59.193102 224.46587 
L 59.518082 139.481727 
L 59.843061 168.296787 
L 60.168041 181.617464 
L 60.49302 184.703124 
L 60.818 185.940103 
L 61.142979 195.517299 
L 61.467959 179.369167 
L 61.792938 197.520341 
L 62.767877 176.368435 
L 63.092857 176.596514 
L 63.417836 169.236769 
L 63.742816 180.058323 
L 64.067795 180.597856 
L 64.392775 180.347539 
L 65.042734 165.31644 
L 65.367713 159.823066 
L 65.692693 151.988416 
L 66.017672 154.728856 
L 66.992611 141.235587 
L 67.31759 139.890578 
L 67.64257 134.74097 
L 67.967549 137.038296 
L 68.292529 135.225048 
L 68.617508 136.169295 
L 68.942488 139.607673 
L 69.267468 137.354223 
L 69.592447 143.193193 
L 69.917427 144.716648 
L 70.242406 143.597936 
L 70.567386 145.447898 
L 70.892365 141.624549 
L 71.217345 143.465156 
L 71.542324 140.127271 
L 71.867304 141.569931 
L 72.517263 137.605176 
L 72.842242 135.615164 
L 73.492201 138.614417 
L 73.817181 137.105182 
L 74.14216 133.350847 
L 74.46714 134.21916 
L 74.792119 131.347919 
L 75.117099 135.11327 
L 75.442079 137.219487 
L 75.767058 138.535666 
L 76.092038 137.838587 
L 76.417017 137.539311 
L 76.741997 140.016765 
L 77.066976 139.728399 
L 77.716935 143.799601 
L 78.041915 143.614258 
L 78.366894 143.188737 
L 78.691874 145.807513 
L 79.016853 147.293103 
L 79.341833 146.822791 
L 79.666812 147.334202 
L 79.991792 146.319612 
L 80.316771 146.403846 
L 80.96673 148.378408 
L 81.29171 147.339667 
L 81.616689 147.514486 
L 81.941669 146.878452 
L 82.266649 146.922752 
L 82.591628 144.953475 
L 82.916608 145.674428 
L 83.566567 144.751294 
L 83.891546 145.709873 
L 84.216526 145.123277 
L 84.866485 145.536926 
L 85.191464 148.023303 
L 85.516444 146.960372 
L 85.841423 146.808958 
L 86.491382 147.564453 
L 86.816362 148.897932 
L 87.466321 147.151358 
L 87.7913 147.167935 
L 88.44126 148.526224 
L 88.766239 148.764622 
L 89.091219 149.805392 
L 89.416198 149.524861 
L 89.741178 149.952571 
L 90.066157 151.515127 
L 90.391137 152.053565 
L 90.716116 152.254013 
L 91.366075 151.047091 
L 91.691055 149.842596 
L 92.016034 147.650225 
L 92.341014 146.309594 
L 92.665993 146.391941 
L 92.990973 146.678033 
L 93.315952 146.43006 
L 93.640932 146.881928 
L 93.965911 147.733195 
L 94.94085 149.2454 
L 95.26583 149.896892 
L 95.915789 150.30053 
L 96.240768 150.786228 
L 96.890727 150.145204 
L 97.215707 151.606034 
L 97.540686 150.487779 
L 97.865666 150.217377 
L 98.190645 150.237335 
L 98.515625 149.7104 
L 98.840604 148.959032 
L 99.165584 148.553942 
L 99.490563 147.756139 
L 99.815543 147.672086 
L 100.140522 148.200919 
L 100.465502 147.970605 
L 101.115461 149.89629 
L 101.440441 149.882652 
L 101.76542 150.925806 
L 102.0904 150.509032 
L 102.740359 150.746544 
L 103.065338 151.4225 
L 103.390318 151.45764 
L 103.715297 152.225075 
L 104.040277 151.313596 
L 104.365256 151.24299 
L 104.690236 151.775134 
L 105.015215 151.924519 
L 105.665174 151.788295 
L 106.315133 151.761621 
L 106.640113 151.575547 
L 106.965092 151.642825 
L 107.290072 150.857251 
L 107.940031 149.881149 
L 108.265011 150.364719 
L 108.58999 151.741152 
L 109.564929 150.229297 
L 109.889908 150.436303 
L 110.214888 149.467217 
L 110.539867 149.117119 
L 110.864847 150.226282 
L 111.189826 150.197584 
L 111.514806 149.890823 
L 112.164765 147.553131 
L 112.489744 147.282303 
L 112.814724 146.762968 
L 113.139703 147.121705 
L 113.789662 146.167661 
L 114.439622 145.925101 
L 114.764601 146.894862 
L 115.089581 146.681314 
L 115.41456 146.250903 
L 116.064519 146.951605 
L 116.389499 146.722988 
L 116.714478 147.601846 
L 117.039458 147.441655 
L 117.364437 147.605372 
L 117.689417 146.684265 
L 118.014396 146.158739 
L 118.339376 146.745588 
L 118.664355 145.945473 
L 118.989335 146.010898 
L 119.639294 146.784648 
L 119.964273 146.694186 
L 120.289253 147.503965 
L 120.614232 147.197861 
L 120.939212 147.777959 
L 121.264192 147.563584 
L 121.589171 147.591431 
L 122.23913 148.900282 
L 122.56411 148.962441 
L 122.889089 149.271671 
L 123.214069 148.366056 
L 123.539048 148.859303 
L 124.189007 148.036027 
L 124.513987 147.465861 
L 124.838966 147.381739 
L 126.138884 145.63061 
L 127.113823 146.790349 
L 127.763782 146.429135 
L 128.088762 145.532873 
L 128.413741 145.351149 
L 128.738721 145.673287 
L 129.0637 145.7069 
L 129.38868 144.852318 
L 130.038639 144.077594 
L 130.363618 144.08454 
L 130.688598 143.854356 
L 131.013577 144.482574 
L 131.338557 144.666169 
L 131.663536 144.687487 
L 131.988516 144.329058 
L 132.313495 144.176269 
L 132.638475 144.291076 
L 132.963454 143.922539 
L 133.288434 144.470124 
L 133.613413 144.630637 
L 133.938393 144.41203 
L 134.263373 144.022733 
L 134.913332 143.7435 
L 135.238311 142.954416 
L 135.563291 142.813237 
L 135.88827 143.337929 
L 136.21325 142.985753 
L 136.863209 142.725002 
L 137.188188 143.532181 
L 137.838147 141.616727 
L 138.488106 142.215894 
L 138.813086 141.893954 
L 139.138065 142.222671 
L 139.463045 142.381044 
L 139.788024 142.824507 
L 140.113004 142.318793 
L 140.437984 142.586893 
L 140.762963 141.916477 
L 141.087943 142.058505 
L 141.412922 141.774365 
L 141.737902 142.166944 
L 142.062881 141.684037 
L 142.71284 141.514108 
L 143.03782 141.116971 
L 143.362799 141.315918 
L 143.687779 141.115106 
L 144.012758 141.498248 
L 145.637656 140.851273 
L 145.962635 141.218976 
L 146.287615 141.187918 
L 146.612594 141.641391 
L 146.937574 141.188528 
L 147.262554 141.546451 
L 147.587533 142.094227 
L 148.237492 142.014737 
L 148.562472 141.645692 
L 148.887451 141.520142 
L 149.212431 141.686785 
L 149.53741 141.630244 
L 149.86239 141.988407 
L 151.162308 141.940412 
L 151.487287 142.151911 
L 151.812267 142.194723 
L 152.137246 141.864633 
L 152.462226 142.002541 
L 152.787205 141.853092 
L 154.412103 142.075829 
L 154.737083 141.630519 
L 155.062062 141.469047 
L 155.387042 141.759678 
L 155.712021 141.193257 
L 156.037001 141.316232 
L 156.36198 141.112548 
L 156.68696 141.293957 
L 157.011939 141.242918 
L 157.661898 140.77313 
L 158.311857 141.349722 
L 158.636837 141.521855 
L 158.961816 141.006195 
L 159.286796 140.757446 
L 159.611775 140.758734 
L 159.936755 140.959493 
L 160.911694 140.338421 
L 161.236673 140.55291 
L 161.561653 140.458873 
L 161.886632 140.121315 
L 162.211612 140.728347 
L 162.536591 140.253438 
L 162.861571 140.094871 
L 163.18655 139.48612 
L 163.51153 139.499647 
L 163.836509 139.348346 
L 164.161489 138.999742 
L 164.486468 138.989475 
L 164.811448 139.200158 
L 165.136427 139.198346 
L 165.461407 139.322829 
L 165.786386 139.004916 
L 166.111366 138.873115 
L 166.436346 138.502888 
L 166.761325 138.573155 
L 167.086305 138.818517 
L 167.411284 138.431809 
L 168.061243 137.973357 
L 168.386223 138.073192 
L 169.361161 137.902267 
L 169.686141 137.935268 
L 170.01112 137.494857 
L 170.3361 137.610655 
L 170.661079 137.944069 
L 170.986059 138.039442 
L 171.311038 137.809412 
L 171.960997 138.194088 
L 172.285977 138.250408 
L 172.610956 138.141836 
L 172.935936 137.915336 
L 173.260916 138.149892 
L 173.585895 137.940544 
L 174.560834 138.08914 
L 174.885813 137.646551 
L 175.210793 137.547527 
L 175.535772 137.579357 
L 175.860752 137.229401 
L 176.510711 137.027414 
L 177.16067 137.30745 
L 177.485649 138.015523 
L 178.135608 138.140977 
L 178.460588 137.838181 
L 178.785567 137.946919 
L 179.760506 139.521318 
L 180.410465 139.730574 
L 180.735445 139.463854 
L 181.060424 139.549605 
L 181.385404 139.789664 
L 182.035363 139.879509 
L 182.360342 139.707279 
L 183.335281 139.819286 
L 183.66026 140.136756 
L 183.98524 140.239958 
L 184.310219 139.948391 
L 184.635199 139.847863 
L 184.960178 139.439763 
L 185.610137 139.224462 
L 185.935117 139.452289 
L 186.585076 139.382881 
L 186.910056 139.772141 
L 187.235035 139.679587 
L 188.209974 140.04637 
L 188.534953 140.34039 
L 189.834871 139.632785 
L 190.159851 139.496703 
L 190.48483 139.803422 
L 191.134789 139.867625 
L 191.459769 139.592425 
L 191.784748 139.517767 
L 192.109728 139.701873 
L 192.434708 139.687293 
L 192.759687 139.865034 
L 193.734626 139.75224 
L 194.059605 140.28087 
L 194.384585 140.58659 
L 194.709564 140.225541 
L 195.684503 140.926396 
L 196.009482 140.67853 
L 196.334462 140.690179 
L 196.984421 140.878345 
L 197.3094 140.520913 
L 199.259278 140.904292 
L 199.584257 141.214842 
L 200.234216 141.113809 
L 200.559196 140.655878 
L 200.884175 140.512005 
L 201.209155 140.230956 
L 201.534134 140.147156 
L 202.184093 140.340111 
L 202.509073 140.554579 
L 202.834052 140.272341 
L 203.159032 140.202416 
L 203.484011 139.886993 
L 203.808991 140.191548 
L 204.783929 140.086951 
L 205.108909 140.04503 
L 205.433889 140.221176 
L 206.083848 139.978749 
L 206.408827 140.641503 
L 207.383766 140.684666 
L 207.708745 140.621111 
L 208.033725 140.356144 
L 208.358704 140.428173 
L 209.008663 140.288837 
L 209.333643 140.065574 
L 209.983602 140.422263 
L 210.308581 140.190583 
L 210.633561 140.31801 
L 210.95854 140.087633 
L 211.608499 139.996459 
L 211.933479 139.840157 
L 212.258459 139.852372 
L 212.908418 140.327165 
L 213.233397 140.304932 
L 213.558377 140.428166 
L 213.883356 140.08513 
L 214.208336 139.999987 
L 214.533315 140.162662 
L 215.183274 139.963762 
L 215.833233 140.143392 
L 216.483192 139.807887 
L 216.808172 139.822644 
L 217.458131 140.535014 
L 218.10809 140.576458 
L 218.43307 140.673205 
L 218.758049 140.482311 
L 219.083029 140.453646 
L 219.408008 140.550026 
L 219.732988 140.189231 
L 220.382947 139.937783 
L 220.707926 140.241848 
L 221.032906 140.344735 
L 221.357885 140.712063 
L 222.007844 140.808164 
L 222.332824 140.653388 
L 222.657803 140.76156 
L 223.632742 140.66739 
L 224.282701 140.969063 
L 224.60768 140.794197 
L 226.232578 140.817688 
L 226.882537 141.160842 
L 227.207517 141.115481 
L 227.532496 141.398722 
L 228.507435 141.542526 
L 228.832414 141.391262 
L 229.157394 141.666756 
L 229.482373 141.534596 
L 229.807353 141.564931 
L 230.132332 141.854958 
L 230.782291 141.80223 
L 231.432251 141.873751 
L 231.75723 142.221813 
L 233.382128 141.882297 
L 233.707107 141.875196 
L 234.032087 142.084088 
L 234.357066 141.966735 
L 234.682046 142.050004 
L 235.007025 141.932618 
L 236.306943 142.586272 
L 236.631923 142.935843 
L 237.606861 143.060412 
L 238.256821 143.338387 
L 238.90678 143.853323 
L 239.881718 143.759986 
L 240.206698 143.994773 
L 240.856657 143.857495 
L 241.506616 143.880162 
L 242.156575 143.679382 
L 242.806534 143.190663 
L 243.456493 143.412207 
L 243.781472 143.609844 
L 244.431432 143.576983 
L 245.081391 143.298193 
L 245.40637 143.222208 
L 245.73135 143.547909 
L 246.056329 143.236992 
L 246.381309 143.43367 
L 247.031268 143.259892 
L 247.356247 143.011344 
L 248.331186 143.246501 
L 249.631104 142.895402 
L 250.281063 142.833162 
L 250.606042 142.609199 
L 251.580981 143.036118 
L 251.905961 143.356967 
L 252.23094 143.074352 
L 252.880899 143.266612 
L 253.205879 143.12826 
L 253.530858 143.166052 
L 254.180817 142.979821 
L 254.505797 143.148732 
L 254.830776 142.867759 
L 255.155756 142.942646 
L 255.805715 143.458467 
L 256.455674 143.758675 
L 257.105633 144.315796 
L 258.080572 144.074764 
L 258.730531 144.314656 
L 259.38049 144.301637 
L 259.705469 144.429667 
L 260.030449 144.256604 
L 260.355428 144.396754 
L 260.680408 144.40472 
L 261.005387 144.234119 
L 261.330367 143.794004 
L 262.955264 143.611734 
L 263.280244 143.341094 
L 263.605223 143.431051 
L 263.930203 143.670069 
L 264.255183 143.719403 
L 264.580162 143.563434 
L 265.230121 143.729254 
L 265.555101 143.796747 
L 265.88008 143.991107 
L 266.530039 143.790166 
L 266.855019 143.79953 
L 267.179998 143.661896 
L 267.504978 143.773941 
L 267.829957 143.67208 
L 268.154937 143.715536 
L 268.479916 144.052357 
L 269.129875 143.537962 
L 269.454855 143.464343 
L 270.104814 143.764251 
L 270.754773 143.555643 
L 271.404732 143.878816 
L 271.729712 143.601902 
L 272.054691 143.623395 
L 272.379671 143.369413 
L 273.354609 143.705347 
L 273.679589 143.607355 
L 274.004568 143.629166 
L 274.654527 143.288056 
L 274.979507 143.447413 
L 275.304486 143.290361 
L 275.629466 143.305026 
L 275.954445 143.612677 
L 276.604404 143.441728 
L 276.929384 143.647771 
L 277.254364 143.567034 
L 277.579343 143.626213 
L 277.904323 143.94221 
L 278.554282 144.306393 
L 278.879261 144.262704 
L 279.204241 143.987443 
L 279.52922 144.033671 
L 279.8542 144.305084 
L 280.179179 144.247522 
L 280.504159 144.015222 
L 280.829138 143.962817 
L 282.129056 144.585082 
L 282.779015 144.431571 
L 283.103995 144.411203 
L 283.428975 144.216115 
L 283.753954 144.173573 
L 284.078934 144.248547 
L 284.403913 144.463677 
L 284.728893 144.162235 
L 285.703831 144.105645 
L 286.35379 144.041919 
L 287.003749 144.13467 
L 287.328729 144.122383 
L 287.653708 144.253494 
L 288.303667 144.212901 
L 288.628647 144.365712 
L 289.603585 144.41449 
L 290.578524 144.850947 
L 290.903504 144.796777 
L 291.228483 144.923639 
L 291.878442 144.911544 
L 292.203422 144.637296 
L 293.17836 144.625275 
L 293.50334 144.420136 
L 294.153299 144.498117 
L 294.803258 144.489626 
L 295.453217 144.564284 
L 296.103176 144.492813 
L 296.753135 144.813298 
L 297.728074 144.508994 
L 298.378033 144.276739 
L 299.027992 144.281992 
L 299.352971 144.149164 
L 300.977869 144.277512 
L 301.952807 144.195288 
L 302.277787 144.333262 
L 302.602766 144.295982 
L 302.927746 144.066313 
L 303.252726 144.187817 
L 303.902685 144.058701 
L 306.177541 143.901833 
L 306.8275 144.124891 
L 308.452398 143.951267 
L 308.777377 144.195551 
L 309.427337 143.913626 
L 311.052234 144.065819 
L 311.702193 144.002832 
L 312.027173 144.050715 
L 312.352152 143.911197 
L 313.002111 143.919977 
L 313.327091 143.671301 
L 313.65207 143.764583 
L 314.627009 143.397745 
L 315.601947 143.441531 
L 315.926927 143.646844 
L 317.551825 143.439936 
L 318.526763 143.598872 
L 319.176722 143.137952 
L 319.826681 143.084869 
L 320.151661 143.196602 
L 320.80162 142.863992 
L 321.126599 142.886902 
L 321.451579 142.764377 
L 322.101538 142.744951 
L 322.751497 142.52209 
L 325.026354 143.349903 
L 325.351333 143.274596 
L 326.001292 143.381711 
L 326.326272 143.353647 
L 326.651251 143.195601 
L 327.951169 143.152317 
L 328.926108 143.169942 
L 332.175903 143.147327 
L 332.500883 143.301463 
L 333.150842 143.225716 
L 333.475821 142.925543 
L 334.12578 142.767197 
L 334.775739 142.831302 
L 335.100719 142.54189 
L 335.425699 142.517879 
L 335.750678 142.326742 
L 336.075658 142.440812 
L 336.725617 142.789315 
L 337.050596 142.646707 
L 337.375576 142.864138 
L 337.700555 142.844691 
L 338.350514 142.581877 
L 339.325453 142.525529 
L 339.650432 142.613206 
L 340.300391 142.46716 
L 343.225207 142.446027 
L 343.550187 142.301025 
L 344.200146 142.487046 
L 344.525125 142.393727 
L 344.850105 142.439541 
L 345.175084 142.668422 
L 345.500064 142.557227 
L 345.825043 142.668817 
L 346.150023 142.546946 
L 346.475002 142.636313 
L 346.799982 142.58237 
L 347.124961 142.660612 
L 347.449941 142.432541 
L 347.77492 142.510787 
L 349.074839 142.078241 
L 349.724798 142.031111 
L 350.699736 142.028204 
L 351.674675 141.969053 
L 352.324634 141.842996 
L 352.649613 141.932428 
L 353.299572 141.807857 
L 353.949531 141.687307 
L 354.274511 141.835975 
L 354.59949 141.752856 
L 354.92447 141.515595 
L 355.574429 141.721568 
L 355.899409 141.693929 
L 356.549368 141.911184 
L 356.874347 142.192831 
L 357.199327 141.984432 
L 358.499245 141.775564 
L 359.149204 141.927803 
L 360.124142 141.817244 
L 360.449122 142.030203 
L 362.723979 142.202851 
L 364.023897 142.201017 
L 365.648794 142.385507 
L 366.298753 142.177363 
L 366.623733 142.359867 
L 368.248631 142.444049 
L 368.57361 142.53019 
L 369.873528 142.034406 
L 370.848467 142.232633 
L 371.173446 142.149572 
L 371.498426 142.314141 
L 373.773282 142.311051 
L 374.423242 142.094593 
L 374.748221 142.28428 
L 376.048139 142.336484 
L 376.698098 142.215275 
L 377.023078 142.407315 
L 377.348057 142.33716 
L 377.673037 142.450519 
L 378.322996 142.250602 
L 378.647975 142.278999 
L 379.622914 142.007316 
L 379.947893 141.993583 
L 380.597852 142.176663 
L 381.572791 141.878133 
L 382.22275 142.165121 
L 382.54773 141.99806 
L 382.872709 142.128022 
L 383.847648 142.062347 
L 383.847648 142.062347 
" clip-path="url(#pcc1fad3321)" style="fill: none; stroke: #0000ff; stroke-width: 2; stroke-linecap: round"/>
   </g>
   <g id="line2d_14">
    <path d="M 59.193102 145.605847 
L 383.847648 145.605847 
L 383.847648 145.605847 
" clip-path="url(#pcc1fad3321)" style="fill: none; stroke: #ff0000; stroke-width: 1.2; stroke-linecap: round"/>
   </g>
   <g id="patch_3">
    <path d="M 42.960375 232.493917 
L 42.960375 25.617558 
" style="fill: none; stroke: #262626; stroke-linejoin: miter; stroke-linecap: square"/>
   </g>
   <g id="patch_4">
    <path d="M 58.868123 273.312 
L 383.847648 273.312 
" style="fill: none; stroke: #262626; stroke-linejoin: miter; stroke-linecap: square"/>
   </g>
  </g>
 </g>
 <defs>
  <clipPath id="pcc1fad3321">
   <rect x="42.960375" y="7.2" width="357.12" height="266.112"/>
  </clipPath>
 </defs>
</svg>