<?xml version="1.0" encoding="utf-8" standalone="no"?>
<!DOCTYPE svg PUBLIC "-//W3C//DTD SVG 1.1//EN"
  "http://www.w3.org/Graphics/SVG/1.1/DTD/svg11.dtd">
<svg xmlns:xlink="http://www.w3.org/1999/xlink" width="405.364pt" height="309.979875pt" viewBox="0 0 405.364 309.979875" xmlns="http://www.w3.org/2000/svg" version="1.1">
 <metadata>
  <rdf:RDF xmlns:dc="http://purl.org/dc/elements/1.1/" xmlns:cc="http://creativecommons.org/ns#" xmlns:rdf="http://www.w3.org/1999/02/22-rdf-syntax-ns#">
   <cc:Work>
    <dc:type rdf:resource="http://purl.org/dc/dcmitype/StillImage"/>
    <dc:date>2023-09-26T15:36:49.896817</dc:date>
    <dc:format>image/svg+xml</dc:format>
    <dc:creator>
     <cc:Agent>
      <dc:title>Matplotlib v3.7.1, https://matplotlib.org/</dc:title>
     </cc:Agent>
    </dc:creator>
   </cc:Work>
  </rdf:RDF>
 </metadata>
 <defs>
  <style type="text/css">*{stroke-linejoin: round; stroke-linecap: butt}</style>
 </defs>
 <g id="figure_1">
  <g id="patch_1">
   <path d="M 0 309.979875 
L 405.364 309.979875 
L 405.364 0 
L 0 0 
z
" style="fill: #ffffff"/>
  </g>
  <g id="axes_1">
   <g id="patch_2">
    <path d="M 41.044 273.312 
L 398.164 273.312 
L 398.164 7.2 
L 41.044 7.2 
z
" style="fill: #ffffff"/>
   </g>
   <g id="matplotlib.axis_1">
    <g id="xtick_1">
     <g id="line2d_1">
      <defs>
       <path id="m5ccc7c1a20" d="M 0 0 
L 0 4.8 
" style="stroke: #262626"/>
      </defs>
      <g>
       <use xlink:href="#m5ccc7c1a20" x="57.276727" y="273.312" style="fill: #262626; stroke: #262626"/>
      </g>
     </g>
     <g id="text_1">
      <!-- 22.5 -->
      <g style="fill: #262626" transform="translate(48.713915 287.910875) scale(0.088 -0.088)">
       <defs>
        <path id="ArialMT-32" d="M 3222 541 
L 3222 0 
L 194 0 
Q 188 203 259 391 
Q 375 700 629 1000 
Q 884 1300 1366 1694 
Q 2113 2306 2375 2664 
Q 2638 3022 2638 3341 
Q 2638 3675 2398 3904 
Q 2159 4134 1775 4134 
Q 1369 4134 1125 3890 
Q 881 3647 878 3216 
L 300 3275 
Q 359 3922 746 4261 
Q 1134 4600 1788 4600 
Q 2447 4600 2831 4234 
Q 3216 3869 3216 3328 
Q 3216 3053 3103 2787 
Q 2991 2522 2730 2228 
Q 2469 1934 1863 1422 
Q 1356 997 1212 845 
Q 1069 694 975 541 
L 3222 541 
z
" transform="scale(0.015625)"/>
        <path id="ArialMT-2e" d="M 581 0 
L 581 641 
L 1222 641 
L 1222 0 
L 581 0 
z
" transform="scale(0.015625)"/>
        <path id="ArialMT-35" d="M 266 1200 
L 856 1250 
Q 922 819 1161 601 
Q 1400 384 1738 384 
Q 2144 384 2425 690 
Q 2706 997 2706 1503 
Q 2706 1984 2436 2262 
Q 2166 2541 1728 2541 
Q 1456 2541 1237 2417 
Q 1019 2294 894 2097 
L 366 2166 
L 809 4519 
L 3088 4519 
L 3088 3981 
L 1259 3981 
L 1013 2750 
Q 1425 3038 1878 3038 
Q 2478 3038 2890 2622 
Q 3303 2206 3303 1553 
Q 3303 931 2941 478 
Q 2500 -78 1738 -78 
Q 1113 -78 717 272 
Q 322 622 266 1200 
z
" transform="scale(0.015625)"/>
       </defs>
       <use xlink:href="#ArialMT-32"/>
       <use xlink:href="#ArialMT-32" x="55.615234"/>
       <use xlink:href="#ArialMT-2e" x="111.230469"/>
       <use xlink:href="#ArialMT-35" x="139.013672"/>
      </g>
     </g>
    </g>
    <g id="xtick_2">
     <g id="line2d_2">
      <g>
       <use xlink:href="#m5ccc7c1a20" x="102.367636" y="273.312" style="fill: #262626; stroke: #262626"/>
      </g>
     </g>
     <g id="text_2">
      <!-- 25.0 -->
      <g style="fill: #262626" transform="translate(93.804824 287.910875) scale(0.088 -0.088)">
       <defs>
        <path id="ArialMT-30" d="M 266 2259 
Q 266 3072 433 3567 
Q 600 4063 929 4331 
Q 1259 4600 1759 4600 
Q 2128 4600 2406 4451 
Q 2684 4303 2865 4023 
Q 3047 3744 3150 3342 
Q 3253 2941 3253 2259 
Q 3253 1453 3087 958 
Q 2922 463 2592 192 
Q 2263 -78 1759 -78 
Q 1097 -78 719 397 
Q 266 969 266 2259 
z
M 844 2259 
Q 844 1131 1108 757 
Q 1372 384 1759 384 
Q 2147 384 2411 759 
Q 2675 1134 2675 2259 
Q 2675 3391 2411 3762 
Q 2147 4134 1753 4134 
Q 1366 4134 1134 3806 
Q 844 3388 844 2259 
z
" transform="scale(0.015625)"/>
       </defs>
       <use xlink:href="#ArialMT-32"/>
       <use xlink:href="#ArialMT-35" x="55.615234"/>
       <use xlink:href="#ArialMT-2e" x="111.230469"/>
       <use xlink:href="#ArialMT-30" x="139.013672"/>
      </g>
     </g>
    </g>
    <g id="xtick_3">
     <g id="line2d_3">
      <g>
       <use xlink:href="#m5ccc7c1a20" x="147.458545" y="273.312" style="fill: #262626; stroke: #262626"/>
      </g>
     </g>
     <g id="text_3">
      <!-- 27.5 -->
      <g style="fill: #262626" transform="translate(138.895733 287.910875) scale(0.088 -0.088)">
       <defs>
        <path id="ArialMT-37" d="M 303 3981 
L 303 4522 
L 3269 4522 
L 3269 4084 
Q 2831 3619 2401 2847 
Q 1972 2075 1738 1259 
Q 1569 684 1522 0 
L 944 0 
Q 953 541 1156 1306 
Q 1359 2072 1739 2783 
Q 2119 3494 2547 3981 
L 303 3981 
z
" transform="scale(0.015625)"/>
       </defs>
       <use xlink:href="#ArialMT-32"/>
       <use xlink:href="#ArialMT-37" x="55.615234"/>
       <use xlink:href="#ArialMT-2e" x="111.230469"/>
       <use xlink:href="#ArialMT-35" x="139.013672"/>
      </g>
     </g>
    </g>
    <g id="xtick_4">
     <g id="line2d_4">
      <g>
       <use xlink:href="#m5ccc7c1a20" x="192.549455" y="273.312" style="fill: #262626; stroke: #262626"/>
      </g>
     </g>
     <g id="text_4">
      <!-- 30.0 -->
      <g style="fill: #262626" transform="translate(183.986642 287.910875) scale(0.088 -0.088)">
       <defs>
        <path id="ArialMT-33" d="M 269 1209 
L 831 1284 
Q 928 806 1161 595 
Q 1394 384 1728 384 
Q 2125 384 2398 659 
Q 2672 934 2672 1341 
Q 2672 1728 2419 1979 
Q 2166 2231 1775 2231 
Q 1616 2231 1378 2169 
L 1441 2663 
Q 1497 2656 1531 2656 
Q 1891 2656 2178 2843 
Q 2466 3031 2466 3422 
Q 2466 3731 2256 3934 
Q 2047 4138 1716 4138 
Q 1388 4138 1169 3931 
Q 950 3725 888 3313 
L 325 3413 
Q 428 3978 793 4289 
Q 1159 4600 1703 4600 
Q 2078 4600 2393 4439 
Q 2709 4278 2876 4000 
Q 3044 3722 3044 3409 
Q 3044 3113 2884 2869 
Q 2725 2625 2413 2481 
Q 2819 2388 3044 2092 
Q 3269 1797 3269 1353 
Q 3269 753 2831 336 
Q 2394 -81 1725 -81 
Q 1122 -81 723 278 
Q 325 638 269 1209 
z
" transform="scale(0.015625)"/>
       </defs>
       <use xlink:href="#ArialMT-33"/>
       <use xlink:href="#ArialMT-30" x="55.615234"/>
       <use xlink:href="#ArialMT-2e" x="111.230469"/>
       <use xlink:href="#ArialMT-30" x="139.013672"/>
      </g>
     </g>
    </g>
    <g id="xtick_5">
     <g id="line2d_5">
      <g>
       <use xlink:href="#m5ccc7c1a20" x="237.640364" y="273.312" style="fill: #262626; stroke: #262626"/>
      </g>
     </g>
     <g id="text_5">
      <!-- 32.5 -->
      <g style="fill: #262626" transform="translate(229.077551 287.910875) scale(0.088 -0.088)">
       <use xlink:href="#ArialMT-33"/>
       <use xlink:href="#ArialMT-32" x="55.615234"/>
       <use xlink:href="#ArialMT-2e" x="111.230469"/>
       <use xlink:href="#ArialMT-35" x="139.013672"/>
      </g>
     </g>
    </g>
    <g id="xtick_6">
     <g id="line2d_6">
      <g>
       <use xlink:href="#m5ccc7c1a20" x="282.731273" y="273.312" style="fill: #262626; stroke: #262626"/>
      </g>
     </g>
     <g id="text_6">
      <!-- 35.0 -->
      <g style="fill: #262626" transform="translate(274.16846 287.910875) scale(0.088 -0.088)">
       <use xlink:href="#ArialMT-33"/>
       <use xlink:href="#ArialMT-35" x="55.615234"/>
       <use xlink:href="#ArialMT-2e" x="111.230469"/>
       <use xlink:href="#ArialMT-30" x="139.013672"/>
      </g>
     </g>
    </g>
    <g id="xtick_7">
     <g id="line2d_7">
      <g>
       <use xlink:href="#m5ccc7c1a20" x="327.822182" y="273.312" style="fill: #262626; stroke: #262626"/>
      </g>
     </g>
     <g id="text_7">
      <!-- 37.5 -->
      <g style="fill: #262626" transform="translate(319.259369 287.910875) scale(0.088 -0.088)">
       <use xlink:href="#ArialMT-33"/>
       <use xlink:href="#ArialMT-37" x="55.615234"/>
       <use xlink:href="#ArialMT-2e" x="111.230469"/>
       <use xlink:href="#ArialMT-35" x="139.013672"/>
      </g>
     </g>
    </g>
    <g id="xtick_8">
     <g id="line2d_8">
      <g>
       <use xlink:href="#m5ccc7c1a20" x="372.913091" y="273.312" style="fill: #262626; stroke: #262626"/>
      </g>
     </g>
     <g id="text_8">
      <!-- 40.0 -->
      <g style="fill: #262626" transform="translate(364.350278 287.910875) scale(0.088 -0.088)">
       <defs>
        <path id="ArialMT-34" d="M 2069 0 
L 2069 1097 
L 81 1097 
L 81 1613 
L 2172 4581 
L 2631 4581 
L 2631 1613 
L 3250 1613 
L 3250 1097 
L 2631 1097 
L 2631 0 
L 2069 0 
z
M 2069 1613 
L 2069 3678 
L 634 1613 
L 2069 1613 
z
" transform="scale(0.015625)"/>
       </defs>
       <use xlink:href="#ArialMT-34"/>
       <use xlink:href="#ArialMT-30" x="55.615234"/>
       <use xlink:href="#ArialMT-2e" x="111.230469"/>
       <use xlink:href="#ArialMT-30" x="139.013672"/>
      </g>
     </g>
    </g>
    <g id="text_9">
     <!-- $x$ (Height in cm) -->
     <g style="fill: #262626" transform="translate(185.524 300.667875) scale(0.096 -0.096)">
      <defs>
       <path id="DejaVuSans-Oblique-78" d="M 3841 3500 
L 2234 1784 
L 3219 0 
L 2559 0 
L 1819 1388 
L 531 0 
L -166 0 
L 1556 1844 
L 641 3500 
L 1300 3500 
L 1972 2234 
L 3144 3500 
L 3841 3500 
z
" transform="scale(0.015625)"/>
       <path id="ArialMT-20" transform="scale(0.015625)"/>
       <path id="ArialMT-28" d="M 1497 -1347 
Q 1031 -759 709 28 
Q 388 816 388 1659 
Q 388 2403 628 3084 
Q 909 3875 1497 4659 
L 1900 4659 
Q 1522 4009 1400 3731 
Q 1209 3300 1100 2831 
Q 966 2247 966 1656 
Q 966 153 1900 -1347 
L 1497 -1347 
z
" transform="scale(0.015625)"/>
       <path id="ArialMT-48" d="M 513 0 
L 513 4581 
L 1119 4581 
L 1119 2700 
L 3500 2700 
L 3500 4581 
L 4106 4581 
L 4106 0 
L 3500 0 
L 3500 2159 
L 1119 2159 
L 1119 0 
L 513 0 
z
" transform="scale(0.015625)"/>
       <path id="ArialMT-65" d="M 2694 1069 
L 3275 997 
Q 3138 488 2766 206 
Q 2394 -75 1816 -75 
Q 1088 -75 661 373 
Q 234 822 234 1631 
Q 234 2469 665 2931 
Q 1097 3394 1784 3394 
Q 2450 3394 2872 2941 
Q 3294 2488 3294 1666 
Q 3294 1616 3291 1516 
L 816 1516 
Q 847 969 1125 678 
Q 1403 388 1819 388 
Q 2128 388 2347 550 
Q 2566 713 2694 1069 
z
M 847 1978 
L 2700 1978 
Q 2663 2397 2488 2606 
Q 2219 2931 1791 2931 
Q 1403 2931 1139 2672 
Q 875 2413 847 1978 
z
" transform="scale(0.015625)"/>
       <path id="ArialMT-69" d="M 425 3934 
L 425 4581 
L 988 4581 
L 988 3934 
L 425 3934 
z
M 425 0 
L 425 3319 
L 988 3319 
L 988 0 
L 425 0 
z
" transform="scale(0.015625)"/>
       <path id="ArialMT-67" d="M 319 -275 
L 866 -356 
Q 900 -609 1056 -725 
Q 1266 -881 1628 -881 
Q 2019 -881 2231 -725 
Q 2444 -569 2519 -288 
Q 2563 -116 2559 434 
Q 2191 0 1641 0 
Q 956 0 581 494 
Q 206 988 206 1678 
Q 206 2153 378 2554 
Q 550 2956 876 3175 
Q 1203 3394 1644 3394 
Q 2231 3394 2613 2919 
L 2613 3319 
L 3131 3319 
L 3131 450 
Q 3131 -325 2973 -648 
Q 2816 -972 2473 -1159 
Q 2131 -1347 1631 -1347 
Q 1038 -1347 672 -1080 
Q 306 -813 319 -275 
z
M 784 1719 
Q 784 1066 1043 766 
Q 1303 466 1694 466 
Q 2081 466 2343 764 
Q 2606 1063 2606 1700 
Q 2606 2309 2336 2618 
Q 2066 2928 1684 2928 
Q 1309 2928 1046 2623 
Q 784 2319 784 1719 
z
" transform="scale(0.015625)"/>
       <path id="ArialMT-68" d="M 422 0 
L 422 4581 
L 984 4581 
L 984 2938 
Q 1378 3394 1978 3394 
Q 2347 3394 2619 3248 
Q 2891 3103 3008 2847 
Q 3125 2591 3125 2103 
L 3125 0 
L 2563 0 
L 2563 2103 
Q 2563 2525 2380 2717 
Q 2197 2909 1863 2909 
Q 1613 2909 1392 2779 
Q 1172 2650 1078 2428 
Q 984 2206 984 1816 
L 984 0 
L 422 0 
z
" transform="scale(0.015625)"/>
       <path id="ArialMT-74" d="M 1650 503 
L 1731 6 
Q 1494 -44 1306 -44 
Q 1000 -44 831 53 
Q 663 150 594 308 
Q 525 466 525 972 
L 525 2881 
L 113 2881 
L 113 3319 
L 525 3319 
L 525 4141 
L 1084 4478 
L 1084 3319 
L 1650 3319 
L 1650 2881 
L 1084 2881 
L 1084 941 
Q 1084 700 1114 631 
Q 1144 563 1211 522 
Q 1278 481 1403 481 
Q 1497 481 1650 503 
z
" transform="scale(0.015625)"/>
       <path id="ArialMT-6e" d="M 422 0 
L 422 3319 
L 928 3319 
L 928 2847 
Q 1294 3394 1984 3394 
Q 2284 3394 2536 3286 
Q 2788 3178 2913 3003 
Q 3038 2828 3088 2588 
Q 3119 2431 3119 2041 
L 3119 0 
L 2556 0 
L 2556 2019 
Q 2556 2363 2490 2533 
Q 2425 2703 2258 2804 
Q 2091 2906 1866 2906 
Q 1506 2906 1245 2678 
Q 984 2450 984 1813 
L 984 0 
L 422 0 
z
" transform="scale(0.015625)"/>
       <path id="ArialMT-63" d="M 2588 1216 
L 3141 1144 
Q 3050 572 2676 248 
Q 2303 -75 1759 -75 
Q 1078 -75 664 370 
Q 250 816 250 1647 
Q 250 2184 428 2587 
Q 606 2991 970 3192 
Q 1334 3394 1763 3394 
Q 2303 3394 2647 3120 
Q 2991 2847 3088 2344 
L 2541 2259 
Q 2463 2594 2264 2762 
Q 2066 2931 1784 2931 
Q 1359 2931 1093 2626 
Q 828 2322 828 1663 
Q 828 994 1084 691 
Q 1341 388 1753 388 
Q 2084 388 2306 591 
Q 2528 794 2588 1216 
z
" transform="scale(0.015625)"/>
       <path id="ArialMT-6d" d="M 422 0 
L 422 3319 
L 925 3319 
L 925 2853 
Q 1081 3097 1340 3245 
Q 1600 3394 1931 3394 
Q 2300 3394 2536 3241 
Q 2772 3088 2869 2813 
Q 3263 3394 3894 3394 
Q 4388 3394 4653 3120 
Q 4919 2847 4919 2278 
L 4919 0 
L 4359 0 
L 4359 2091 
Q 4359 2428 4304 2576 
Q 4250 2725 4106 2815 
Q 3963 2906 3769 2906 
Q 3419 2906 3187 2673 
Q 2956 2441 2956 1928 
L 2956 0 
L 2394 0 
L 2394 2156 
Q 2394 2531 2256 2718 
Q 2119 2906 1806 2906 
Q 1569 2906 1367 2781 
Q 1166 2656 1075 2415 
Q 984 2175 984 1722 
L 984 0 
L 422 0 
z
" transform="scale(0.015625)"/>
       <path id="ArialMT-29" d="M 791 -1347 
L 388 -1347 
Q 1322 153 1322 1656 
Q 1322 2244 1188 2822 
Q 1081 3291 891 3722 
Q 769 4003 388 4659 
L 791 4659 
Q 1378 3875 1659 3084 
Q 1900 2403 1900 1659 
Q 1900 816 1576 28 
Q 1253 -759 791 -1347 
z
" transform="scale(0.015625)"/>
      </defs>
      <use xlink:href="#DejaVuSans-Oblique-78" transform="translate(0 0.203125)"/>
      <use xlink:href="#ArialMT-20" transform="translate(59.179688 0.203125)"/>
      <use xlink:href="#ArialMT-28" transform="translate(86.962891 0.203125)"/>
      <use xlink:href="#ArialMT-48" transform="translate(120.263672 0.203125)"/>
      <use xlink:href="#ArialMT-65" transform="translate(192.480469 0.203125)"/>
      <use xlink:href="#ArialMT-69" transform="translate(248.095703 0.203125)"/>
      <use xlink:href="#ArialMT-67" transform="translate(270.3125 0.203125)"/>
      <use xlink:href="#ArialMT-68" transform="translate(325.927734 0.203125)"/>
      <use xlink:href="#ArialMT-74" transform="translate(381.542969 0.203125)"/>
      <use xlink:href="#ArialMT-20" transform="translate(409.326172 0.203125)"/>
      <use xlink:href="#ArialMT-69" transform="translate(437.109375 0.203125)"/>
      <use xlink:href="#ArialMT-6e" transform="translate(459.326172 0.203125)"/>
      <use xlink:href="#ArialMT-20" transform="translate(514.941406 0.203125)"/>
      <use xlink:href="#ArialMT-63" transform="translate(542.724609 0.203125)"/>
      <use xlink:href="#ArialMT-6d" transform="translate(592.724609 0.203125)"/>
      <use xlink:href="#ArialMT-29" transform="translate(676.025391 0.203125)"/>
     </g>
    </g>
   </g>
   <g id="matplotlib.axis_2">
    <g id="ytick_1">
     <g id="line2d_9">
      <defs>
       <path id="mc4d82b55e0" d="M 0 0 
L -4.8 0 
" style="stroke: #262626"/>
      </defs>
      <g>
       <use xlink:href="#mc4d82b55e0" x="41.044" y="261.216" style="fill: #262626; stroke: #262626"/>
      </g>
     </g>
     <g id="text_10">
      <!-- 0.0 -->
      <g style="fill: #262626" transform="translate(20.512 264.365437) scale(0.088 -0.088)">
       <use xlink:href="#ArialMT-30"/>
       <use xlink:href="#ArialMT-2e" x="55.615234"/>
       <use xlink:href="#ArialMT-30" x="83.398438"/>
      </g>
     </g>
    </g>
    <g id="ytick_2">
     <g id="line2d_10">
      <g>
       <use xlink:href="#mc4d82b55e0" x="41.044" y="212.832" style="fill: #262626; stroke: #262626"/>
      </g>
     </g>
     <g id="text_11">
      <!-- 0.2 -->
      <g style="fill: #262626" transform="translate(20.512 215.981437) scale(0.088 -0.088)">
       <use xlink:href="#ArialMT-30"/>
       <use xlink:href="#ArialMT-2e" x="55.615234"/>
       <use xlink:href="#ArialMT-32" x="83.398438"/>
      </g>
     </g>
    </g>
    <g id="ytick_3">
     <g id="line2d_11">
      <g>
       <use xlink:href="#mc4d82b55e0" x="41.044" y="164.448" style="fill: #262626; stroke: #262626"/>
      </g>
     </g>
     <g id="text_12">
      <!-- 0.4 -->
      <g style="fill: #262626" transform="translate(20.512 167.597437) scale(0.088 -0.088)">
       <use xlink:href="#ArialMT-30"/>
       <use xlink:href="#ArialMT-2e" x="55.615234"/>
       <use xlink:href="#ArialMT-34" x="83.398438"/>
      </g>
     </g>
    </g>
    <g id="ytick_4">
     <g id="line2d_12">
      <g>
       <use xlink:href="#mc4d82b55e0" x="41.044" y="116.064" style="fill: #262626; stroke: #262626"/>
      </g>
     </g>
     <g id="text_13">
      <!-- 0.6 -->
      <g style="fill: #262626" transform="translate(20.512 119.213437) scale(0.088 -0.088)">
       <defs>
        <path id="ArialMT-36" d="M 3184 3459 
L 2625 3416 
Q 2550 3747 2413 3897 
Q 2184 4138 1850 4138 
Q 1581 4138 1378 3988 
Q 1113 3794 959 3422 
Q 806 3050 800 2363 
Q 1003 2672 1297 2822 
Q 1591 2972 1913 2972 
Q 2475 2972 2870 2558 
Q 3266 2144 3266 1488 
Q 3266 1056 3080 686 
Q 2894 316 2569 119 
Q 2244 -78 1831 -78 
Q 1128 -78 684 439 
Q 241 956 241 2144 
Q 241 3472 731 4075 
Q 1159 4600 1884 4600 
Q 2425 4600 2770 4297 
Q 3116 3994 3184 3459 
z
M 888 1484 
Q 888 1194 1011 928 
Q 1134 663 1356 523 
Q 1578 384 1822 384 
Q 2178 384 2434 671 
Q 2691 959 2691 1453 
Q 2691 1928 2437 2201 
Q 2184 2475 1800 2475 
Q 1419 2475 1153 2201 
Q 888 1928 888 1484 
z
" transform="scale(0.015625)"/>
       </defs>
       <use xlink:href="#ArialMT-30"/>
       <use xlink:href="#ArialMT-2e" x="55.615234"/>
       <use xlink:href="#ArialMT-36" x="83.398438"/>
      </g>
     </g>
    </g>
    <g id="ytick_5">
     <g id="line2d_13">
      <g>
       <use xlink:href="#mc4d82b55e0" x="41.044" y="67.68" style="fill: #262626; stroke: #262626"/>
      </g>
     </g>
     <g id="text_14">
      <!-- 0.8 -->
      <g style="fill: #262626" transform="translate(20.512 70.829437) scale(0.088 -0.088)">
       <defs>
        <path id="ArialMT-38" d="M 1131 2484 
Q 781 2613 612 2850 
Q 444 3088 444 3419 
Q 444 3919 803 4259 
Q 1163 4600 1759 4600 
Q 2359 4600 2725 4251 
Q 3091 3903 3091 3403 
Q 3091 3084 2923 2848 
Q 2756 2613 2416 2484 
Q 2838 2347 3058 2040 
Q 3278 1734 3278 1309 
Q 3278 722 2862 322 
Q 2447 -78 1769 -78 
Q 1091 -78 675 323 
Q 259 725 259 1325 
Q 259 1772 486 2073 
Q 713 2375 1131 2484 
z
M 1019 3438 
Q 1019 3113 1228 2906 
Q 1438 2700 1772 2700 
Q 2097 2700 2305 2904 
Q 2513 3109 2513 3406 
Q 2513 3716 2298 3927 
Q 2084 4138 1766 4138 
Q 1444 4138 1231 3931 
Q 1019 3725 1019 3438 
z
M 838 1322 
Q 838 1081 952 856 
Q 1066 631 1291 507 
Q 1516 384 1775 384 
Q 2178 384 2440 643 
Q 2703 903 2703 1303 
Q 2703 1709 2433 1975 
Q 2163 2241 1756 2241 
Q 1359 2241 1098 1978 
Q 838 1716 838 1322 
z
" transform="scale(0.015625)"/>
       </defs>
       <use xlink:href="#ArialMT-30"/>
       <use xlink:href="#ArialMT-2e" x="55.615234"/>
       <use xlink:href="#ArialMT-38" x="83.398438"/>
      </g>
     </g>
    </g>
    <g id="ytick_6">
     <g id="line2d_14">
      <g>
       <use xlink:href="#mc4d82b55e0" x="41.044" y="19.296" style="fill: #262626; stroke: #262626"/>
      </g>
     </g>
     <g id="text_15">
      <!-- 1.0 -->
      <g style="fill: #262626" transform="translate(20.512 22.445437) scale(0.088 -0.088)">
       <defs>
        <path id="ArialMT-31" d="M 2384 0 
L 1822 0 
L 1822 3584 
Q 1619 3391 1289 3197 
Q 959 3003 697 2906 
L 697 3450 
Q 1169 3672 1522 3987 
Q 1875 4303 2022 4600 
L 2384 4600 
L 2384 0 
z
" transform="scale(0.015625)"/>
       </defs>
       <use xlink:href="#ArialMT-31"/>
       <use xlink:href="#ArialMT-2e" x="55.615234"/>
       <use xlink:href="#ArialMT-30" x="83.398438"/>
      </g>
     </g>
    </g>
    <g id="text_16">
     <!-- Result ($0=N; 1=E$) -->
     <g style="fill: #262626" transform="translate(14.4 185.472) rotate(-90) scale(0.096 -0.096)">
      <defs>
       <path id="ArialMT-52" d="M 503 0 
L 503 4581 
L 2534 4581 
Q 3147 4581 3465 4457 
Q 3784 4334 3975 4021 
Q 4166 3709 4166 3331 
Q 4166 2844 3850 2509 
Q 3534 2175 2875 2084 
Q 3116 1969 3241 1856 
Q 3506 1613 3744 1247 
L 4541 0 
L 3778 0 
L 3172 953 
Q 2906 1366 2734 1584 
Q 2563 1803 2427 1890 
Q 2291 1978 2150 2013 
Q 2047 2034 1813 2034 
L 1109 2034 
L 1109 0 
L 503 0 
z
M 1109 2559 
L 2413 2559 
Q 2828 2559 3062 2645 
Q 3297 2731 3419 2920 
Q 3541 3109 3541 3331 
Q 3541 3656 3305 3865 
Q 3069 4075 2559 4075 
L 1109 4075 
L 1109 2559 
z
" transform="scale(0.015625)"/>
       <path id="ArialMT-73" d="M 197 991 
L 753 1078 
Q 800 744 1014 566 
Q 1228 388 1613 388 
Q 2000 388 2187 545 
Q 2375 703 2375 916 
Q 2375 1106 2209 1216 
Q 2094 1291 1634 1406 
Q 1016 1563 777 1677 
Q 538 1791 414 1992 
Q 291 2194 291 2438 
Q 291 2659 392 2848 
Q 494 3038 669 3163 
Q 800 3259 1026 3326 
Q 1253 3394 1513 3394 
Q 1903 3394 2198 3281 
Q 2494 3169 2634 2976 
Q 2775 2784 2828 2463 
L 2278 2388 
Q 2241 2644 2061 2787 
Q 1881 2931 1553 2931 
Q 1166 2931 1000 2803 
Q 834 2675 834 2503 
Q 834 2394 903 2306 
Q 972 2216 1119 2156 
Q 1203 2125 1616 2013 
Q 2213 1853 2448 1751 
Q 2684 1650 2818 1456 
Q 2953 1263 2953 975 
Q 2953 694 2789 445 
Q 2625 197 2315 61 
Q 2006 -75 1616 -75 
Q 969 -75 630 194 
Q 291 463 197 991 
z
" transform="scale(0.015625)"/>
       <path id="ArialMT-75" d="M 2597 0 
L 2597 488 
Q 2209 -75 1544 -75 
Q 1250 -75 995 37 
Q 741 150 617 320 
Q 494 491 444 738 
Q 409 903 409 1263 
L 409 3319 
L 972 3319 
L 972 1478 
Q 972 1038 1006 884 
Q 1059 663 1231 536 
Q 1403 409 1656 409 
Q 1909 409 2131 539 
Q 2353 669 2445 892 
Q 2538 1116 2538 1541 
L 2538 3319 
L 3100 3319 
L 3100 0 
L 2597 0 
z
" transform="scale(0.015625)"/>
       <path id="ArialMT-6c" d="M 409 0 
L 409 4581 
L 972 4581 
L 972 0 
L 409 0 
z
" transform="scale(0.015625)"/>
       <path id="DejaVuSans-30" d="M 2034 4250 
Q 1547 4250 1301 3770 
Q 1056 3291 1056 2328 
Q 1056 1369 1301 889 
Q 1547 409 2034 409 
Q 2525 409 2770 889 
Q 3016 1369 3016 2328 
Q 3016 3291 2770 3770 
Q 2525 4250 2034 4250 
z
M 2034 4750 
Q 2819 4750 3233 4129 
Q 3647 3509 3647 2328 
Q 3647 1150 3233 529 
Q 2819 -91 2034 -91 
Q 1250 -91 836 529 
Q 422 1150 422 2328 
Q 422 3509 836 4129 
Q 1250 4750 2034 4750 
z
" transform="scale(0.015625)"/>
       <path id="DejaVuSans-3d" d="M 678 2906 
L 4684 2906 
L 4684 2381 
L 678 2381 
L 678 2906 
z
M 678 1631 
L 4684 1631 
L 4684 1100 
L 678 1100 
L 678 1631 
z
" transform="scale(0.015625)"/>
       <path id="DejaVuSans-Oblique-4e" d="M 1081 4666 
L 1931 4666 
L 3219 666 
L 4000 4666 
L 4616 4666 
L 3706 0 
L 2853 0 
L 1569 4025 
L 788 0 
L 172 0 
L 1081 4666 
z
" transform="scale(0.015625)"/>
       <path id="DejaVuSans-3b" d="M 750 3309 
L 1409 3309 
L 1409 2516 
L 750 2516 
L 750 3309 
z
M 750 794 
L 1409 794 
L 1409 256 
L 897 -744 
L 494 -744 
L 750 256 
L 750 794 
z
" transform="scale(0.015625)"/>
       <path id="DejaVuSans-31" d="M 794 531 
L 1825 531 
L 1825 4091 
L 703 3866 
L 703 4441 
L 1819 4666 
L 2450 4666 
L 2450 531 
L 3481 531 
L 3481 0 
L 794 0 
L 794 531 
z
" transform="scale(0.015625)"/>
       <path id="DejaVuSans-Oblique-45" d="M 1081 4666 
L 4031 4666 
L 3928 4134 
L 1606 4134 
L 1338 2753 
L 3566 2753 
L 3463 2222 
L 1234 2222 
L 909 531 
L 3284 531 
L 3181 0 
L 172 0 
L 1081 4666 
z
" transform="scale(0.015625)"/>
      </defs>
      <use xlink:href="#ArialMT-52" transform="translate(0 0.78125)"/>
      <use xlink:href="#ArialMT-65" transform="translate(72.216797 0.78125)"/>
      <use xlink:href="#ArialMT-73" transform="translate(127.832031 0.78125)"/>
      <use xlink:href="#ArialMT-75" transform="translate(177.832031 0.78125)"/>
      <use xlink:href="#ArialMT-6c" transform="translate(233.447266 0.78125)"/>
      <use xlink:href="#ArialMT-74" transform="translate(255.664062 0.78125)"/>
      <use xlink:href="#ArialMT-20" transform="translate(283.447266 0.78125)"/>
      <use xlink:href="#ArialMT-28" transform="translate(311.230469 0.78125)"/>
      <use xlink:href="#DejaVuSans-30" transform="translate(344.53125 0.78125)"/>
      <use xlink:href="#DejaVuSans-3d" transform="translate(427.636719 0.78125)"/>
      <use xlink:href="#DejaVuSans-Oblique-4e" transform="translate(530.908203 0.78125)"/>
      <use xlink:href="#DejaVuSans-3b" transform="translate(605.712891 0.78125)"/>
      <use xlink:href="#DejaVuSans-31" transform="translate(658.886719 0.78125)"/>
      <use xlink:href="#DejaVuSans-3d" transform="translate(741.992188 0.78125)"/>
      <use xlink:href="#DejaVuSans-Oblique-45" transform="translate(845.263672 0.78125)"/>
      <use xlink:href="#ArialMT-29" transform="translate(908.447266 0.78125)"/>
     </g>
    </g>
   </g>
   <g id="line2d_15">
    <defs>
     <path id="m555c3b53df" d="M 0 2.4 
C 0.636487 2.4 1.246992 2.147121 1.697056 1.697056 
C 2.147121 1.246992 2.4 0.636487 2.4 0 
C 2.4 -0.636487 2.147121 -1.246992 1.697056 -1.697056 
C 1.246992 -2.147121 0.636487 -2.4 0 -2.4 
C -0.636487 -2.4 -1.246992 -2.147121 -1.697056 -1.697056 
C -2.147121 -1.246992 -2.4 -0.636487 -2.4 0 
C -2.4 0.636487 -2.147121 1.246992 -1.697056 1.697056 
C -1.246992 2.147121 -0.636487 2.4 0 2.4 
z
" style="stroke: #1f77b4"/>
    </defs>
    <g clip-path="url(#p4910c91c6b)">
     <use xlink:href="#m555c3b53df" x="381.931273" y="19.296" style="fill: #1f77b4; stroke: #1f77b4"/>
     <use xlink:href="#m555c3b53df" x="381.931273" y="19.296" style="fill: #1f77b4; stroke: #1f77b4"/>
     <use xlink:href="#m555c3b53df" x="381.931273" y="19.296" style="fill: #1f77b4; stroke: #1f77b4"/>
     <use xlink:href="#m555c3b53df" x="381.931273" y="19.296" style="fill: #1f77b4; stroke: #1f77b4"/>
     <use xlink:href="#m555c3b53df" x="381.931273" y="19.296" style="fill: #1f77b4; stroke: #1f77b4"/>
     <use xlink:href="#m555c3b53df" x="381.931273" y="19.296" style="fill: #1f77b4; stroke: #1f77b4"/>
     <use xlink:href="#m555c3b53df" x="381.931273" y="19.296" style="fill: #1f77b4; stroke: #1f77b4"/>
     <use xlink:href="#m555c3b53df" x="381.931273" y="19.296" style="fill: #1f77b4; stroke: #1f77b4"/>
     <use xlink:href="#m555c3b53df" x="381.931273" y="19.296" style="fill: #1f77b4; stroke: #1f77b4"/>
     <use xlink:href="#m555c3b53df" x="381.931273" y="19.296" style="fill: #1f77b4; stroke: #1f77b4"/>
     <use xlink:href="#m555c3b53df" x="300.767636" y="19.296" style="fill: #1f77b4; stroke: #1f77b4"/>
     <use xlink:href="#m555c3b53df" x="300.767636" y="261.216" style="fill: #1f77b4; stroke: #1f77b4"/>
     <use xlink:href="#m555c3b53df" x="300.767636" y="19.296" style="fill: #1f77b4; stroke: #1f77b4"/>
     <use xlink:href="#m555c3b53df" x="300.767636" y="19.296" style="fill: #1f77b4; stroke: #1f77b4"/>
     <use xlink:href="#m555c3b53df" x="300.767636" y="19.296" style="fill: #1f77b4; stroke: #1f77b4"/>
     <use xlink:href="#m555c3b53df" x="300.767636" y="19.296" style="fill: #1f77b4; stroke: #1f77b4"/>
     <use xlink:href="#m555c3b53df" x="300.767636" y="261.216" style="fill: #1f77b4; stroke: #1f77b4"/>
     <use xlink:href="#m555c3b53df" x="300.767636" y="19.296" style="fill: #1f77b4; stroke: #1f77b4"/>
     <use xlink:href="#m555c3b53df" x="300.767636" y="19.296" style="fill: #1f77b4; stroke: #1f77b4"/>
     <use xlink:href="#m555c3b53df" x="300.767636" y="19.296" style="fill: #1f77b4; stroke: #1f77b4"/>
     <use xlink:href="#m555c3b53df" x="228.622182" y="19.296" style="fill: #1f77b4; stroke: #1f77b4"/>
     <use xlink:href="#m555c3b53df" x="228.622182" y="19.296" style="fill: #1f77b4; stroke: #1f77b4"/>
     <use xlink:href="#m555c3b53df" x="228.622182" y="261.216" style="fill: #1f77b4; stroke: #1f77b4"/>
     <use xlink:href="#m555c3b53df" x="228.622182" y="19.296" style="fill: #1f77b4; stroke: #1f77b4"/>
     <use xlink:href="#m555c3b53df" x="228.622182" y="19.296" style="fill: #1f77b4; stroke: #1f77b4"/>
     <use xlink:href="#m555c3b53df" x="228.622182" y="19.296" style="fill: #1f77b4; stroke: #1f77b4"/>
     <use xlink:href="#m555c3b53df" x="228.622182" y="261.216" style="fill: #1f77b4; stroke: #1f77b4"/>
     <use xlink:href="#m555c3b53df" x="228.622182" y="19.296" style="fill: #1f77b4; stroke: #1f77b4"/>
     <use xlink:href="#m555c3b53df" x="228.622182" y="261.216" style="fill: #1f77b4; stroke: #1f77b4"/>
     <use xlink:href="#m555c3b53df" x="228.622182" y="19.296" style="fill: #1f77b4; stroke: #1f77b4"/>
     <use xlink:href="#m555c3b53df" x="165.494909" y="261.216" style="fill: #1f77b4; stroke: #1f77b4"/>
     <use xlink:href="#m555c3b53df" x="165.494909" y="19.296" style="fill: #1f77b4; stroke: #1f77b4"/>
     <use xlink:href="#m555c3b53df" x="165.494909" y="261.216" style="fill: #1f77b4; stroke: #1f77b4"/>
     <use xlink:href="#m555c3b53df" x="165.494909" y="261.216" style="fill: #1f77b4; stroke: #1f77b4"/>
     <use xlink:href="#m555c3b53df" x="165.494909" y="19.296" style="fill: #1f77b4; stroke: #1f77b4"/>
     <use xlink:href="#m555c3b53df" x="165.494909" y="261.216" style="fill: #1f77b4; stroke: #1f77b4"/>
     <use xlink:href="#m555c3b53df" x="165.494909" y="261.216" style="fill: #1f77b4; stroke: #1f77b4"/>
     <use xlink:href="#m555c3b53df" x="165.494909" y="261.216" style="fill: #1f77b4; stroke: #1f77b4"/>
     <use xlink:href="#m555c3b53df" x="165.494909" y="19.296" style="fill: #1f77b4; stroke: #1f77b4"/>
     <use xlink:href="#m555c3b53df" x="165.494909" y="261.216" style="fill: #1f77b4; stroke: #1f77b4"/>
     <use xlink:href="#m555c3b53df" x="111.385818" y="261.216" style="fill: #1f77b4; stroke: #1f77b4"/>
     <use xlink:href="#m555c3b53df" x="111.385818" y="261.216" style="fill: #1f77b4; stroke: #1f77b4"/>
     <use xlink:href="#m555c3b53df" x="111.385818" y="261.216" style="fill: #1f77b4; stroke: #1f77b4"/>
     <use xlink:href="#m555c3b53df" x="111.385818" y="261.216" style="fill: #1f77b4; stroke: #1f77b4"/>
     <use xlink:href="#m555c3b53df" x="111.385818" y="261.216" style="fill: #1f77b4; stroke: #1f77b4"/>
     <use xlink:href="#m555c3b53df" x="111.385818" y="261.216" style="fill: #1f77b4; stroke: #1f77b4"/>
     <use xlink:href="#m555c3b53df" x="111.385818" y="19.296" style="fill: #1f77b4; stroke: #1f77b4"/>
     <use xlink:href="#m555c3b53df" x="111.385818" y="261.216" style="fill: #1f77b4; stroke: #1f77b4"/>
     <use xlink:href="#m555c3b53df" x="111.385818" y="261.216" style="fill: #1f77b4; stroke: #1f77b4"/>
     <use xlink:href="#m555c3b53df" x="111.385818" y="261.216" style="fill: #1f77b4; stroke: #1f77b4"/>
     <use xlink:href="#m555c3b53df" x="57.276727" y="261.216" style="fill: #1f77b4; stroke: #1f77b4"/>
     <use xlink:href="#m555c3b53df" x="57.276727" y="261.216" style="fill: #1f77b4; stroke: #1f77b4"/>
     <use xlink:href="#m555c3b53df" x="57.276727" y="261.216" style="fill: #1f77b4; stroke: #1f77b4"/>
     <use xlink:href="#m555c3b53df" x="57.276727" y="261.216" style="fill: #1f77b4; stroke: #1f77b4"/>
     <use xlink:href="#m555c3b53df" x="57.276727" y="261.216" style="fill: #1f77b4; stroke: #1f77b4"/>
     <use xlink:href="#m555c3b53df" x="57.276727" y="261.216" style="fill: #1f77b4; stroke: #1f77b4"/>
     <use xlink:href="#m555c3b53df" x="57.276727" y="261.216" style="fill: #1f77b4; stroke: #1f77b4"/>
     <use xlink:href="#m555c3b53df" x="57.276727" y="261.216" style="fill: #1f77b4; stroke: #1f77b4"/>
     <use xlink:href="#m555c3b53df" x="57.276727" y="261.216" style="fill: #1f77b4; stroke: #1f77b4"/>
     <use xlink:href="#m555c3b53df" x="57.276727" y="261.216" style="fill: #1f77b4; stroke: #1f77b4"/>
    </g>
   </g>
   <g id="patch_3">
    <path d="M 41.044 261.216 
L 41.044 19.296 
" style="fill: none; stroke: #262626; stroke-linejoin: miter; stroke-linecap: square"/>
   </g>
   <g id="patch_4">
    <path d="M 57.276727 273.312 
L 372.913091 273.312 
" style="fill: none; stroke: #262626; stroke-linejoin: miter; stroke-linecap: square"/>
   </g>
  </g>
 </g>
 <defs>
  <clipPath id="p4910c91c6b">
   <rect x="41.044" y="7.2" width="357.12" height="266.112"/>
  </clipPath>
 </defs>
</svg>