<?xml version="1.0" encoding="utf-8" standalone="no"?>
<!DOCTYPE svg PUBLIC "-//W3C//DTD SVG 1.1//EN"
  "http://www.w3.org/Graphics/SVG/1.1/DTD/svg11.dtd">
<svg xmlns:xlink="http://www.w3.org/1999/xlink" width="402.632875pt" height="309.639375pt" viewBox="0 0 402.632875 309.639375" xmlns="http://www.w3.org/2000/svg" version="1.1">
 <metadata>
  <rdf:RDF xmlns:dc="http://purl.org/dc/elements/1.1/" xmlns:cc="http://creativecommons.org/ns#" xmlns:rdf="http://www.w3.org/1999/02/22-rdf-syntax-ns#">
   <cc:Work>
    <dc:type rdf:resource="http://purl.org/dc/dcmitype/StillImage"/>
    <dc:date>2023-10-20T09:49:27.625952</dc:date>
    <dc:format>image/svg+xml</dc:format>
    <dc:creator>
     <cc:Agent>
      <dc:title>Matplotlib v3.7.1, https://matplotlib.org/</dc:title>
     </cc:Agent>
    </dc:creator>
   </cc:Work>
  </rdf:RDF>
 </metadata>
 <defs>
  <style type="text/css">*{stroke-linejoin: round; stroke-linecap: butt}</style>
 </defs>
 <g id="figure_1">
  <g id="patch_1">
   <path d="M 0 309.639375 
L 402.632875 309.639375 
L 402.632875 0 
L 0 0 
z
" style="fill: #ffffff"/>
  </g>
  <g id="axes_1">
   <g id="patch_2">
    <path d="M 38.312875 273.312 
L 395.432875 273.312 
L 395.432875 7.2 
L 38.312875 7.2 
z
" style="fill: #ffffff"/>
   </g>
   <g id="matplotlib.axis_1">
    <g id="xtick_1">
     <g id="line2d_1">
      <defs>
       <path id="m7ec235ab82" d="M 0 0 
L 0 4.8 
" style="stroke: #262626"/>
      </defs>
      <g>
       <use xlink:href="#m7ec235ab82" x="54.545602" y="273.312" style="fill: #262626; stroke: #262626"/>
      </g>
     </g>
     <g id="text_1">
      <!-- 0.0 -->
      <g style="fill: #262626" transform="translate(48.429602 287.910875) scale(0.088 -0.088)">
       <defs>
        <path id="ArialMT-30" d="M 266 2259 
Q 266 3072 433 3567 
Q 600 4063 929 4331 
Q 1259 4600 1759 4600 
Q 2128 4600 2406 4451 
Q 2684 4303 2865 4023 
Q 3047 3744 3150 3342 
Q 3253 2941 3253 2259 
Q 3253 1453 3087 958 
Q 2922 463 2592 192 
Q 2263 -78 1759 -78 
Q 1097 -78 719 397 
Q 266 969 266 2259 
z
M 844 2259 
Q 844 1131 1108 757 
Q 1372 384 1759 384 
Q 2147 384 2411 759 
Q 2675 1134 2675 2259 
Q 2675 3391 2411 3762 
Q 2147 4134 1753 4134 
Q 1366 4134 1134 3806 
Q 844 3388 844 2259 
z
" transform="scale(0.015625)"/>
        <path id="ArialMT-2e" d="M 581 0 
L 581 641 
L 1222 641 
L 1222 0 
L 581 0 
z
" transform="scale(0.015625)"/>
       </defs>
       <use xlink:href="#ArialMT-30"/>
       <use xlink:href="#ArialMT-2e" x="55.615234"/>
       <use xlink:href="#ArialMT-30" x="83.398438"/>
      </g>
     </g>
    </g>
    <g id="xtick_2">
     <g id="line2d_2">
      <g>
       <use xlink:href="#m7ec235ab82" x="119.476511" y="273.312" style="fill: #262626; stroke: #262626"/>
      </g>
     </g>
     <g id="text_2">
      <!-- 0.2 -->
      <g style="fill: #262626" transform="translate(113.360511 287.910875) scale(0.088 -0.088)">
       <defs>
        <path id="ArialMT-32" d="M 3222 541 
L 3222 0 
L 194 0 
Q 188 203 259 391 
Q 375 700 629 1000 
Q 884 1300 1366 1694 
Q 2113 2306 2375 2664 
Q 2638 3022 2638 3341 
Q 2638 3675 2398 3904 
Q 2159 4134 1775 4134 
Q 1369 4134 1125 3890 
Q 881 3647 878 3216 
L 300 3275 
Q 359 3922 746 4261 
Q 1134 4600 1788 4600 
Q 2447 4600 2831 4234 
Q 3216 3869 3216 3328 
Q 3216 3053 3103 2787 
Q 2991 2522 2730 2228 
Q 2469 1934 1863 1422 
Q 1356 997 1212 845 
Q 1069 694 975 541 
L 3222 541 
z
" transform="scale(0.015625)"/>
       </defs>
       <use xlink:href="#ArialMT-30"/>
       <use xlink:href="#ArialMT-2e" x="55.615234"/>
       <use xlink:href="#ArialMT-32" x="83.398438"/>
      </g>
     </g>
    </g>
    <g id="xtick_3">
     <g id="line2d_3">
      <g>
       <use xlink:href="#m7ec235ab82" x="184.40742" y="273.312" style="fill: #262626; stroke: #262626"/>
      </g>
     </g>
     <g id="text_3">
      <!-- 0.4 -->
      <g style="fill: #262626" transform="translate(178.29142 287.910875) scale(0.088 -0.088)">
       <defs>
        <path id="ArialMT-34" d="M 2069 0 
L 2069 1097 
L 81 1097 
L 81 1613 
L 2172 4581 
L 2631 4581 
L 2631 1613 
L 3250 1613 
L 3250 1097 
L 2631 1097 
L 2631 0 
L 2069 0 
z
M 2069 1613 
L 2069 3678 
L 634 1613 
L 2069 1613 
z
" transform="scale(0.015625)"/>
       </defs>
       <use xlink:href="#ArialMT-30"/>
       <use xlink:href="#ArialMT-2e" x="55.615234"/>
       <use xlink:href="#ArialMT-34" x="83.398438"/>
      </g>
     </g>
    </g>
    <g id="xtick_4">
     <g id="line2d_4">
      <g>
       <use xlink:href="#m7ec235ab82" x="249.33833" y="273.312" style="fill: #262626; stroke: #262626"/>
      </g>
     </g>
     <g id="text_4">
      <!-- 0.6 -->
      <g style="fill: #262626" transform="translate(243.22233 287.910875) scale(0.088 -0.088)">
       <defs>
        <path id="ArialMT-36" d="M 3184 3459 
L 2625 3416 
Q 2550 3747 2413 3897 
Q 2184 4138 1850 4138 
Q 1581 4138 1378 3988 
Q 1113 3794 959 3422 
Q 806 3050 800 2363 
Q 1003 2672 1297 2822 
Q 1591 2972 1913 2972 
Q 2475 2972 2870 2558 
Q 3266 2144 3266 1488 
Q 3266 1056 3080 686 
Q 2894 316 2569 119 
Q 2244 -78 1831 -78 
Q 1128 -78 684 439 
Q 241 956 241 2144 
Q 241 3472 731 4075 
Q 1159 4600 1884 4600 
Q 2425 4600 2770 4297 
Q 3116 3994 3184 3459 
z
M 888 1484 
Q 888 1194 1011 928 
Q 1134 663 1356 523 
Q 1578 384 1822 384 
Q 2178 384 2434 671 
Q 2691 959 2691 1453 
Q 2691 1928 2437 2201 
Q 2184 2475 1800 2475 
Q 1419 2475 1153 2201 
Q 888 1928 888 1484 
z
" transform="scale(0.015625)"/>
       </defs>
       <use xlink:href="#ArialMT-30"/>
       <use xlink:href="#ArialMT-2e" x="55.615234"/>
       <use xlink:href="#ArialMT-36" x="83.398438"/>
      </g>
     </g>
    </g>
    <g id="xtick_5">
     <g id="line2d_5">
      <g>
       <use xlink:href="#m7ec235ab82" x="314.269239" y="273.312" style="fill: #262626; stroke: #262626"/>
      </g>
     </g>
     <g id="text_5">
      <!-- 0.8 -->
      <g style="fill: #262626" transform="translate(308.153239 287.910875) scale(0.088 -0.088)">
       <defs>
        <path id="ArialMT-38" d="M 1131 2484 
Q 781 2613 612 2850 
Q 444 3088 444 3419 
Q 444 3919 803 4259 
Q 1163 4600 1759 4600 
Q 2359 4600 2725 4251 
Q 3091 3903 3091 3403 
Q 3091 3084 2923 2848 
Q 2756 2613 2416 2484 
Q 2838 2347 3058 2040 
Q 3278 1734 3278 1309 
Q 3278 722 2862 322 
Q 2447 -78 1769 -78 
Q 1091 -78 675 323 
Q 259 725 259 1325 
Q 259 1772 486 2073 
Q 713 2375 1131 2484 
z
M 1019 3438 
Q 1019 3113 1228 2906 
Q 1438 2700 1772 2700 
Q 2097 2700 2305 2904 
Q 2513 3109 2513 3406 
Q 2513 3716 2298 3927 
Q 2084 4138 1766 4138 
Q 1444 4138 1231 3931 
Q 1019 3725 1019 3438 
z
M 838 1322 
Q 838 1081 952 856 
Q 1066 631 1291 507 
Q 1516 384 1775 384 
Q 2178 384 2440 643 
Q 2703 903 2703 1303 
Q 2703 1709 2433 1975 
Q 2163 2241 1756 2241 
Q 1359 2241 1098 1978 
Q 838 1716 838 1322 
z
" transform="scale(0.015625)"/>
       </defs>
       <use xlink:href="#ArialMT-30"/>
       <use xlink:href="#ArialMT-2e" x="55.615234"/>
       <use xlink:href="#ArialMT-38" x="83.398438"/>
      </g>
     </g>
    </g>
    <g id="xtick_6">
     <g id="line2d_6">
      <g>
       <use xlink:href="#m7ec235ab82" x="379.200148" y="273.312" style="fill: #262626; stroke: #262626"/>
      </g>
     </g>
     <g id="text_6">
      <!-- 1.0 -->
      <g style="fill: #262626" transform="translate(373.084148 287.910875) scale(0.088 -0.088)">
       <defs>
        <path id="ArialMT-31" d="M 2384 0 
L 1822 0 
L 1822 3584 
Q 1619 3391 1289 3197 
Q 959 3003 697 2906 
L 697 3450 
Q 1169 3672 1522 3987 
Q 1875 4303 2022 4600 
L 2384 4600 
L 2384 0 
z
" transform="scale(0.015625)"/>
       </defs>
       <use xlink:href="#ArialMT-31"/>
       <use xlink:href="#ArialMT-2e" x="55.615234"/>
       <use xlink:href="#ArialMT-30" x="83.398438"/>
      </g>
     </g>
    </g>
    <g id="text_7">
     <!-- $x$ -->
     <g style="fill: #262626" transform="translate(213.992875 300.531375) scale(0.096 -0.096)">
      <defs>
       <path id="DejaVuSans-Oblique-78" d="M 3841 3500 
L 2234 1784 
L 3219 0 
L 2559 0 
L 1819 1388 
L 531 0 
L -166 0 
L 1556 1844 
L 641 3500 
L 1300 3500 
L 1972 2234 
L 3144 3500 
L 3841 3500 
z
" transform="scale(0.015625)"/>
      </defs>
      <use xlink:href="#DejaVuSans-Oblique-78" transform="translate(0 0.3125)"/>
     </g>
    </g>
   </g>
   <g id="matplotlib.axis_2">
    <g id="ytick_1">
     <g id="line2d_7">
      <defs>
       <path id="md27603b846" d="M 0 0 
L -4.8 0 
" style="stroke: #262626"/>
      </defs>
      <g>
       <use xlink:href="#md27603b846" x="38.312875" y="268.651825" style="fill: #262626; stroke: #262626"/>
      </g>
     </g>
     <g id="text_8">
      <!-- −4 -->
      <g style="fill: #262626" transform="translate(19.9795 271.801262) scale(0.088 -0.088)">
       <defs>
        <path id="ArialMT-2212" d="M 3381 1997 
L 356 1997 
L 356 2522 
L 3381 2522 
L 3381 1997 
z
" transform="scale(0.015625)"/>
       </defs>
       <use xlink:href="#ArialMT-2212"/>
       <use xlink:href="#ArialMT-34" x="58.398438"/>
      </g>
     </g>
    </g>
    <g id="ytick_2">
     <g id="line2d_8">
      <g>
       <use xlink:href="#md27603b846" x="38.312875" y="227.047957" style="fill: #262626; stroke: #262626"/>
      </g>
     </g>
     <g id="text_9">
      <!-- −2 -->
      <g style="fill: #262626" transform="translate(19.9795 230.197395) scale(0.088 -0.088)">
       <use xlink:href="#ArialMT-2212"/>
       <use xlink:href="#ArialMT-32" x="58.398438"/>
      </g>
     </g>
    </g>
    <g id="ytick_3">
     <g id="line2d_9">
      <g>
       <use xlink:href="#md27603b846" x="38.312875" y="185.44409" style="fill: #262626; stroke: #262626"/>
      </g>
     </g>
     <g id="text_10">
      <!-- 0 -->
      <g style="fill: #262626" transform="translate(25.11925 188.593527) scale(0.088 -0.088)">
       <use xlink:href="#ArialMT-30"/>
      </g>
     </g>
    </g>
    <g id="ytick_4">
     <g id="line2d_10">
      <g>
       <use xlink:href="#md27603b846" x="38.312875" y="143.840222" style="fill: #262626; stroke: #262626"/>
      </g>
     </g>
     <g id="text_11">
      <!-- 2 -->
      <g style="fill: #262626" transform="translate(25.11925 146.98966) scale(0.088 -0.088)">
       <use xlink:href="#ArialMT-32"/>
      </g>
     </g>
    </g>
    <g id="ytick_5">
     <g id="line2d_11">
      <g>
       <use xlink:href="#md27603b846" x="38.312875" y="102.236355" style="fill: #262626; stroke: #262626"/>
      </g>
     </g>
     <g id="text_12">
      <!-- 4 -->
      <g style="fill: #262626" transform="translate(25.11925 105.385792) scale(0.088 -0.088)">
       <use xlink:href="#ArialMT-34"/>
      </g>
     </g>
    </g>
    <g id="ytick_6">
     <g id="line2d_12">
      <g>
       <use xlink:href="#md27603b846" x="38.312875" y="60.632487" style="fill: #262626; stroke: #262626"/>
      </g>
     </g>
     <g id="text_13">
      <!-- 6 -->
      <g style="fill: #262626" transform="translate(25.11925 63.781925) scale(0.088 -0.088)">
       <use xlink:href="#ArialMT-36"/>
      </g>
     </g>
    </g>
    <g id="ytick_7">
     <g id="line2d_13">
      <g>
       <use xlink:href="#md27603b846" x="38.312875" y="19.02862" style="fill: #262626; stroke: #262626"/>
      </g>
     </g>
     <g id="text_14">
      <!-- 8 -->
      <g style="fill: #262626" transform="translate(25.11925 22.178057) scale(0.088 -0.088)">
       <use xlink:href="#ArialMT-38"/>
      </g>
     </g>
    </g>
    <g id="text_15">
     <!-- $y$ -->
     <g style="fill: #262626" transform="translate(13.9635 143.136) rotate(-90) scale(0.096 -0.096)">
      <defs>
       <path id="DejaVuSans-Oblique-79" d="M 1588 -325 
Q 1188 -997 936 -1164 
Q 684 -1331 294 -1331 
L -159 -1331 
L -63 -850 
L 269 -850 
Q 509 -850 678 -719 
Q 847 -588 1056 -206 
L 1234 128 
L 459 3500 
L 1069 3500 
L 1650 819 
L 3256 3500 
L 3859 3500 
L 1588 -325 
z
" transform="scale(0.015625)"/>
      </defs>
      <use xlink:href="#DejaVuSans-Oblique-79" transform="translate(0 0.3125)"/>
     </g>
    </g>
   </g>
   <g id="PolyCollection_1">
    <defs>
     <path id="m42aa390a24" d="M 54.545602 -201.396895 
L 54.545602 -62.634991 
L 61.171205 -67.952103 
L 67.796808 -74.346385 
L 74.422411 -81.757174 
L 81.048014 -90.025417 
L 87.673618 -98.889528 
L 94.29922 -107.992832 
L 100.924825 -116.903137 
L 107.550425 -125.143455 
L 114.17603 -132.197354 
L 120.801634 -126.322648 
L 127.427234 -122.104473 
L 134.052839 -120.010713 
L 140.678438 -120.176951 
L 147.304048 -122.585419 
L 153.929648 -127.067858 
L 160.555248 -126.392931 
L 167.180857 -118.22987 
L 173.806457 -109.282972 
L 180.432057 -100.040624 
L 187.057666 -90.957032 
L 193.683266 -82.417357 
L 200.308866 -74.714231 
L 206.934475 -68.036461 
L 213.560075 -62.470244 
L 220.185675 -58.011003 
L 226.811275 -54.583341 
L 233.436875 -52.065681 
L 240.062494 -50.315961 
L 246.688093 -49.195783 
L 253.313693 -48.590408 
L 259.939293 -48.423385 
L 266.564893 -48.665149 
L 273.190493 -49.335618 
L 279.816112 -50.501181 
L 286.441712 -52.266549 
L 293.067312 -54.762258 
L 299.692911 -58.128658 
L 306.318511 -62.497646 
L 312.944111 -67.973697 
L 319.56973 -74.616284 
L 326.19533 -82.42546 
L 332.82093 -91.332663 
L 339.44653 -101.198373 
L 346.072129 -111.816884 
L 352.697729 -122.928029 
L 359.323348 -124.08149 
L 365.948948 -112.9375 
L 372.574548 -102.257298 
L 379.200148 -92.305544 
L 379.200148 -166.284967 
L 379.200148 -166.284967 
L 372.574548 -156.198744 
L 365.948948 -145.425383 
L 359.323348 -134.234458 
L 352.697729 -135.389612 
L 346.072129 -146.550734 
L 339.44653 -157.264379 
L 332.82093 -167.264695 
L 326.19533 -176.338114 
L 319.56973 -184.335675 
L 312.944111 -191.178351 
L 306.318511 -196.855404 
L 299.692911 -201.415681 
L 293.067312 -204.953723 
L 286.441712 -207.592466 
L 279.816112 -209.464593 
L 273.190493 -210.694397 
L 266.564893 -211.382012 
L 259.939293 -211.591038 
L 253.313693 -211.340788 
L 246.688093 -210.603538 
L 240.062494 -209.307653 
L 233.436875 -207.346536 
L 226.811275 -204.593594 
L 220.185675 -200.922368 
L 213.560075 -196.230345 
L 206.934475 -190.464029 
L 200.308866 -183.642352 
L 193.683266 -175.87494 
L 187.057666 -167.371941 
L 180.432057 -158.442958 
L 173.806457 -149.483631 
L 167.180857 -140.950318 
L 160.555248 -133.324084 
L 153.929648 -133.292127 
L 147.304048 -138.497517 
L 140.678438 -141.675407 
L 134.052839 -142.61923 
L 127.427234 -141.271307 
L 120.801634 -137.729079 
L 114.17603 -132.427308 
L 107.550425 -139.925705 
L 100.924825 -148.466196 
L 94.29922 -157.52681 
L 87.673618 -166.635122 
L 81.048014 -175.372392 
L 74.422411 -183.402299 
L 67.796808 -190.488137 
L 61.171205 -196.497745 
L 54.545602 -201.396895 
z
" style="stroke: #1f77b4; stroke-opacity: 0.5; stroke-width: 0.8"/>
    </defs>
    <g clip-path="url(#pca72fd48cc)">
     <use xlink:href="#m42aa390a24" x="0" y="309.639375" style="fill: #1f77b4; fill-opacity: 0.5; stroke: #1f77b4; stroke-opacity: 0.5; stroke-width: 0.8"/>
    </g>
   </g>
   <g id="PolyCollection_2">
    <defs>
     <path id="m1395efdc24" d="M 54.545602 -62.634991 
L 54.545602 -62.634981 
L 61.171205 -67.952094 
L 67.796808 -74.346375 
L 74.422411 -81.757154 
L 81.048014 -90.025398 
L 87.673618 -98.889504 
L 94.29922 -107.992797 
L 100.924825 -116.903082 
L 107.550425 -125.143338 
L 114.17603 -132.190058 
L 120.801634 -126.322496 
L 127.427234 -122.104383 
L 134.052839 -120.010636 
L 140.678438 -120.176872 
L 147.304048 -122.585311 
L 153.929648 -127.06758 
L 160.555248 -126.392681 
L 167.180857 -118.229793 
L 173.806457 -109.282928 
L 180.432057 -100.040594 
L 187.057666 -90.95701 
L 193.683266 -82.417337 
L 200.308866 -74.714211 
L 206.934475 -68.036451 
L 213.560075 -62.470229 
L 220.185675 -58.010993 
L 226.811275 -54.583331 
L 233.436875 -52.065671 
L 240.062494 -50.315951 
L 246.688093 -49.195773 
L 253.313693 -48.590398 
L 259.939293 -48.423375 
L 266.564893 -48.665139 
L 273.190493 -49.335608 
L 279.816112 -50.501171 
L 286.441712 -52.266539 
L 293.067312 -54.762248 
L 299.692911 -58.128648 
L 306.318511 -62.497631 
L 312.944111 -67.973683 
L 319.56973 -74.616264 
L 326.19533 -82.425446 
L 332.82093 -91.332638 
L 339.44653 -101.198343 
L 346.072129 -111.816834 
L 352.697729 -122.927891 
L 359.323348 -124.081319 
L 365.948948 -112.937448 
L 372.574548 -102.257263 
L 379.200148 -92.305519 
L 379.200148 -92.305544 
L 379.200148 -92.305544 
L 372.574548 -102.257298 
L 365.948948 -112.9375 
L 359.323348 -124.08149 
L 352.697729 -122.928029 
L 346.072129 -111.816884 
L 339.44653 -101.198373 
L 332.82093 -91.332663 
L 326.19533 -82.42546 
L 319.56973 -74.616284 
L 312.944111 -67.973697 
L 306.318511 -62.497646 
L 299.692911 -58.128658 
L 293.067312 -54.762258 
L 286.441712 -52.266549 
L 279.816112 -50.501181 
L 273.190493 -49.335618 
L 266.564893 -48.665149 
L 259.939293 -48.423385 
L 253.313693 -48.590408 
L 246.688093 -49.195783 
L 240.062494 -50.315961 
L 233.436875 -52.065681 
L 226.811275 -54.583341 
L 220.185675 -58.011003 
L 213.560075 -62.470244 
L 206.934475 -68.036461 
L 200.308866 -74.714231 
L 193.683266 -82.417357 
L 187.057666 -90.957032 
L 180.432057 -100.040624 
L 173.806457 -109.282972 
L 167.180857 -118.22987 
L 160.555248 -126.392931 
L 153.929648 -127.067858 
L 147.304048 -122.585419 
L 140.678438 -120.176951 
L 134.052839 -120.010713 
L 127.427234 -122.104473 
L 120.801634 -126.322648 
L 114.17603 -132.197354 
L 107.550425 -125.143455 
L 100.924825 -116.903137 
L 94.29922 -107.992832 
L 87.673618 -98.889528 
L 81.048014 -90.025417 
L 74.422411 -81.757174 
L 67.796808 -74.346385 
L 61.171205 -67.952103 
L 54.545602 -62.634991 
z
" style="stroke: #ff7f0e; stroke-opacity: 0.5; stroke-width: 0.8"/>
    </defs>
    <g clip-path="url(#pca72fd48cc)">
     <use xlink:href="#m1395efdc24" x="0" y="309.639375" style="fill: #ff7f0e; fill-opacity: 0.5; stroke: #ff7f0e; stroke-opacity: 0.5; stroke-width: 0.8"/>
    </g>
   </g>
   <g id="PolyCollection_3">
    <defs>
     <path id="m8ff61dc813" d="M 54.545602 -201.396905 
L 54.545602 -201.396895 
L 61.171205 -196.497745 
L 67.796808 -190.488137 
L 74.422411 -183.402299 
L 81.048014 -175.372392 
L 87.673618 -166.635122 
L 94.29922 -157.52681 
L 100.924825 -148.466196 
L 107.550425 -139.925705 
L 114.17603 -132.427308 
L 120.801634 -137.729079 
L 127.427234 -141.271307 
L 134.052839 -142.61923 
L 140.678438 -141.675407 
L 147.304048 -138.497517 
L 153.929648 -133.292127 
L 160.555248 -133.324084 
L 167.180857 -140.950318 
L 173.806457 -149.483631 
L 180.432057 -158.442958 
L 187.057666 -167.371941 
L 193.683266 -175.87494 
L 200.308866 -183.642352 
L 206.934475 -190.464029 
L 213.560075 -196.230345 
L 220.185675 -200.922368 
L 226.811275 -204.593594 
L 233.436875 -207.346536 
L 240.062494 -209.307653 
L 246.688093 -210.603538 
L 253.313693 -211.340788 
L 259.939293 -211.591038 
L 266.564893 -211.382012 
L 273.190493 -210.694397 
L 279.816112 -209.464593 
L 286.441712 -207.592466 
L 293.067312 -204.953723 
L 299.692911 -201.415681 
L 306.318511 -196.855404 
L 312.944111 -191.178351 
L 319.56973 -184.335675 
L 326.19533 -176.338114 
L 332.82093 -167.264695 
L 339.44653 -157.264379 
L 346.072129 -146.550734 
L 352.697729 -135.389612 
L 359.323348 -134.234458 
L 365.948948 -145.425383 
L 372.574548 -156.198744 
L 379.200148 -166.284967 
L 379.200148 -166.284992 
L 379.200148 -166.284992 
L 372.574548 -156.198774 
L 365.948948 -145.425435 
L 359.323348 -134.234628 
L 352.697729 -135.389751 
L 346.072129 -146.550784 
L 339.44653 -157.264409 
L 332.82093 -167.26472 
L 326.19533 -176.338129 
L 319.56973 -184.335685 
L 312.944111 -191.178365 
L 306.318511 -196.855419 
L 299.692911 -201.415691 
L 293.067312 -204.953733 
L 286.441712 -207.592476 
L 279.816112 -209.464603 
L 273.190493 -210.694407 
L 266.564893 -211.382022 
L 259.939293 -211.591048 
L 253.313693 -211.340798 
L 246.688093 -210.603548 
L 240.062494 -209.307663 
L 233.436875 -207.346546 
L 226.811275 -204.593604 
L 220.185675 -200.922378 
L 213.560075 -196.230359 
L 206.934475 -190.464039 
L 200.308866 -183.642372 
L 193.683266 -175.87496 
L 187.057666 -167.37196 
L 180.432057 -158.442988 
L 173.806457 -149.483673 
L 167.180857 -140.950395 
L 160.555248 -133.324334 
L 153.929648 -133.292406 
L 147.304048 -138.497626 
L 140.678438 -141.675487 
L 134.052839 -142.619307 
L 127.427234 -141.271396 
L 120.801634 -137.729231 
L 114.17603 -132.434603 
L 107.550425 -139.925823 
L 100.924825 -148.46625 
L 94.29922 -157.526844 
L 87.673618 -166.635152 
L 81.048014 -175.372412 
L 74.422411 -183.402319 
L 67.796808 -190.488147 
L 61.171205 -196.497755 
L 54.545602 -201.396905 
z
" style="stroke: #ff7f0e; stroke-opacity: 0.5; stroke-width: 0.8"/>
    </defs>
    <g clip-path="url(#pca72fd48cc)">
     <use xlink:href="#m8ff61dc813" x="0" y="309.639375" style="fill: #ff7f0e; fill-opacity: 0.5; stroke: #ff7f0e; stroke-opacity: 0.5; stroke-width: 0.8"/>
    </g>
   </g>
   <g id="line2d_14">
    <defs>
     <path id="m3532906516" d="M -5 5 
L 5 -5 
M -5 -5 
L 5 5 
" style="stroke: #000000; stroke-width: 2"/>
    </defs>
    <g clip-path="url(#pca72fd48cc)">
     <use xlink:href="#m3532906516" x="356.349693" y="180.484051" style="stroke: #000000; stroke-width: 2"/>
     <use xlink:href="#m3532906516" x="157.258364" y="179.626814" style="stroke: #000000; stroke-width: 2"/>
     <use xlink:href="#m3532906516" x="114.255683" y="177.330126" style="stroke: #000000; stroke-width: 2"/>
    </g>
   </g>
   <g id="line2d_15">
    <path d="M 54.545602 177.62343 
L 61.171205 177.414453 
L 67.796808 177.222111 
L 74.422411 177.05964 
L 81.048014 176.940471 
L 87.673618 176.877048 
L 94.29922 176.879554 
L 100.924825 176.954708 
L 107.550425 177.104795 
L 114.17603 177.327044 
L 120.801634 177.613512 
L 127.427234 177.951485 
L 134.052839 178.324403 
L 140.678438 178.713196 
L 147.304048 179.097907 
L 153.929648 179.459382 
L 160.555248 179.780868 
L 167.180857 180.049281 
L 173.806457 180.256074 
L 180.432057 180.397584 
L 187.057666 180.474888 
L 193.683266 180.493225 
L 200.308866 180.461083 
L 206.934475 180.389129 
L 213.560075 180.28908 
L 220.185675 180.17269 
L 226.811275 180.050906 
L 233.436875 179.933268 
L 240.062494 179.827569 
L 246.688093 179.739714 
L 253.313693 179.673779 
L 259.939293 179.632162 
L 266.564893 179.615796 
L 273.190493 179.624365 
L 279.816112 179.65649 
L 286.441712 179.709868 
L 293.067312 179.781386 
L 299.692911 179.867203 
L 306.318511 179.96285 
L 312.944111 180.06335 
L 319.56973 180.163398 
L 326.19533 180.257588 
L 332.82093 180.340697 
L 339.44653 180.407998 
L 346.072129 180.455566 
L 352.697729 180.480555 
L 359.323348 180.481401 
L 365.948948 180.457933 
L 372.574548 180.411355 
L 379.200148 180.344118 
" clip-path="url(#pca72fd48cc)" style="fill: none; stroke: #1f77b4; stroke-width: 2; stroke-linecap: round"/>
   </g>
   <g id="line2d_16">
    <path d="M 54.545602 102.843356 
L 61.171205 113.080201 
L 67.796808 123.162099 
L 74.422411 132.935939 
L 81.048014 142.252447 
L 87.673618 150.968271 
L 94.29922 158.948067 
L 100.924825 166.066331 
L 107.550425 172.209216 
L 114.17603 177.276124 
L 120.801634 181.181114 
L 127.427234 183.854127 
L 134.052839 185.242057 
L 140.678438 185.309527 
L 147.304048 184.039565 
L 153.929648 181.434037 
L 160.555248 177.5139 
L 167.180857 172.319334 
L 173.806457 165.909693 
L 180.432057 158.363443 
L 187.057666 149.777901 
L 193.683266 140.269145 
L 200.308866 129.971675 
L 206.934475 119.038368 
L 213.560075 107.640533 
L 220.185675 95.967769 
L 226.811275 84.228314 
L 233.436875 72.649519 
L 240.062494 61.478014 
L 246.688093 50.980554 
L 253.313693 41.443831 
L 259.939293 33.174516 
L 266.564893 26.497828 
L 273.190493 21.754716 
L 279.816112 19.296 
L 286.441712 19.472541 
L 293.067312 22.61898 
L 299.692911 29.028645 
L 306.318511 38.916396 
L 312.944111 52.365374 
L 319.56973 69.254348 
L 326.19533 89.162866 
L 332.82093 111.25629 
L 339.44653 134.159672 
L 346.072129 155.845619 
L 352.697729 173.586002 
L 359.323348 184.053616 
L 365.948948 183.703783 
L 372.574548 169.596566 
L 379.200148 140.788526 
" clip-path="url(#pca72fd48cc)" style="fill: none; stroke-dasharray: 7.68,1.92,1.2,1.92; stroke-dashoffset: 0; stroke: #bf00bf; stroke-width: 1.2"/>
   </g>
   <g id="line2d_17">
    <path d="M 54.545602 192.604077 
L 61.171205 191.073711 
L 67.796808 189.234353 
L 74.422411 186.944096 
L 81.048014 184.613402 
L 87.673618 182.107714 
L 94.29922 180.248148 
L 100.924825 178.676086 
L 107.550425 177.613123 
L 114.17603 177.240304 
L 120.801634 177.344904 
L 127.427234 178.042376 
L 134.052839 178.573531 
L 140.678438 179.041906 
L 147.304048 179.467217 
L 153.929648 179.601555 
L 160.555248 179.553911 
L 167.180857 179.714401 
L 173.806457 179.847494 
L 180.432057 180.097028 
L 187.057666 180.779336 
L 193.683266 181.516245 
L 200.308866 182.037605 
L 206.934475 182.228413 
L 213.560075 181.614161 
L 220.185675 179.998571 
L 226.811275 177.40539 
L 233.436875 174.413756 
L 240.062494 170.977014 
L 246.688093 167.943887 
L 253.313693 166.032782 
L 259.939293 165.198153 
L 266.564893 166.300086 
L 273.190493 169.134059 
L 279.816112 173.22916 
L 286.441712 178.319342 
L 293.067312 183.729301 
L 299.692911 188.833522 
L 306.318511 192.962706 
L 312.944111 195.973467 
L 319.56973 197.1343 
L 326.19533 196.721616 
L 332.82093 194.754431 
L 339.44653 191.496037 
L 346.072129 187.307569 
L 352.697729 182.847598 
L 359.323348 178.705221 
L 365.948948 175.404282 
L 372.574548 173.263462 
L 379.200148 173.002824 
" clip-path="url(#pca72fd48cc)" style="fill: none; stroke: #ff0000; stroke-width: 0.5; stroke-linecap: round"/>
   </g>
   <g id="line2d_18">
    <path d="M 54.545602 175.598939 
L 61.171205 169.442955 
L 67.796808 164.769695 
L 74.422411 161.955529 
L 81.048014 161.168971 
L 87.673618 162.363741 
L 94.29922 165.065316 
L 100.924825 168.742895 
L 107.550425 173.017115 
L 114.17603 177.347336 
L 120.801634 181.12414 
L 127.427234 183.762522 
L 134.052839 185.631379 
L 140.678438 185.755602 
L 147.304048 184.52198 
L 153.929648 181.542507 
L 160.555248 177.288198 
L 167.180857 171.580568 
L 173.806457 164.842407 
L 180.432057 157.288977 
L 187.057666 149.570998 
L 193.683266 141.691817 
L 200.308866 134.533465 
L 206.934475 128.277105 
L 213.560075 123.050147 
L 220.185675 119.001325 
L 226.811275 115.936193 
L 233.436875 114.382147 
L 240.062494 113.451663 
L 246.688093 113.510855 
L 253.313693 114.216369 
L 259.939293 115.331805 
L 266.564893 116.674558 
L 273.190493 118.16407 
L 279.816112 119.649887 
L 286.441712 121.118103 
L 293.067312 122.515486 
L 299.692911 123.775241 
L 306.318511 125.240575 
L 312.944111 127.360666 
L 319.56973 130.473593 
L 326.19533 135.050004 
L 332.82093 141.327507 
L 339.44653 149.983101 
L 346.072129 160.458592 
L 352.697729 172.976351 
L 359.323348 186.76249 
L 365.948948 201.731202 
L 372.574548 216.455799 
L 379.200148 231.009561 
" clip-path="url(#pca72fd48cc)" style="fill: none; stroke: #ff0000; stroke-width: 0.5; stroke-linecap: round"/>
   </g>
   <g id="line2d_19">
    <path d="M 54.545602 248.496897 
L 61.171205 243.946672 
L 67.796808 237.442526 
L 74.422411 229.784106 
L 81.048014 220.754078 
L 87.673618 211.41791 
L 94.29922 201.928051 
L 100.924825 192.893742 
L 107.550425 184.533355 
L 114.17603 177.494464 
L 120.801634 172.121268 
L 127.427234 168.671993 
L 134.052839 167.413771 
L 140.678438 168.44639 
L 147.304048 171.91741 
L 153.929648 176.64626 
L 160.555248 182.923658 
L 167.180857 189.481655 
L 173.806457 196.078207 
L 180.432057 201.756685 
L 187.057666 205.687914 
L 193.683266 207.640014 
L 200.308866 207.18606 
L 206.934475 204.370693 
L 213.560075 199.444374 
L 220.185675 192.674411 
L 226.811275 184.878455 
L 233.436875 176.547603 
L 240.062494 168.420464 
L 246.688093 160.691169 
L 253.313693 154.098212 
L 259.939293 149.003603 
L 266.564893 145.568126 
L 273.190493 143.679275 
L 279.816112 143.440992 
L 286.441712 144.37899 
L 293.067312 146.573762 
L 299.692911 149.557371 
L 306.318511 153.230417 
L 312.944111 157.012219 
L 319.56973 160.883811 
L 326.19533 164.774477 
L 332.82093 168.447934 
L 339.44653 172.140959 
L 346.072129 175.516966 
L 352.697729 178.858246 
L 359.323348 181.821802 
L 365.948948 184.376885 
L 372.574548 186.176002 
L 379.200148 186.980458 
" clip-path="url(#pca72fd48cc)" style="fill: none; stroke: #ff0000; stroke-width: 0.5; stroke-linecap: round"/>
   </g>
   <g id="line2d_20">
    <path d="M 54.545602 158.81578 
L 61.171205 159.287415 
L 67.796808 160.239945 
L 74.422411 161.621241 
L 81.048014 163.270233 
L 87.673618 165.397858 
L 94.29922 167.993797 
L 100.924825 170.960881 
L 107.550425 174.287627 
L 114.17603 177.342227 
L 120.801634 179.992029 
L 127.427234 182.122757 
L 134.052839 183.132937 
L 140.678438 183.291564 
L 147.304048 182.373205 
L 153.929648 180.604444 
L 160.555248 178.542322 
L 167.180857 176.123187 
L 173.806457 173.887897 
L 180.432057 172.392435 
L 187.057666 171.977599 
L 193.683266 172.731776 
L 200.308866 174.538767 
L 206.934475 177.702317 
L 213.560075 181.624918 
L 220.185675 186.170245 
L 226.811275 190.714627 
L 233.436875 194.723788 
L 240.062494 197.352299 
L 246.688093 198.43963 
L 253.313693 197.808061 
L 259.939293 195.230699 
L 266.564893 191.096692 
L 273.190493 185.723839 
L 279.816112 179.671332 
L 286.441712 173.708399 
L 293.067312 168.227166 
L 299.692911 164.065086 
L 306.318511 161.31785 
L 312.944111 160.151218 
L 319.56973 160.673639 
L 326.19533 162.632596 
L 332.82093 165.763814 
L 339.44653 169.669783 
L 346.072129 173.877129 
L 352.697729 178.176436 
L 359.323348 182.19456 
L 365.948948 186.142715 
L 372.574548 190.052653 
L 379.200148 193.470436 
" clip-path="url(#pca72fd48cc)" style="fill: none; stroke: #ff0000; stroke-width: 0.5; stroke-linecap: round"/>
   </g>
   <g id="line2d_21">
    <path d="M 54.545602 190.149826 
L 61.171205 186.87461 
L 67.796808 184.706378 
L 74.422411 183.267241 
L 81.048014 182.426089 
L 87.673618 181.894893 
L 94.29922 181.266721 
L 100.924825 180.081344 
L 107.550425 178.885167 
L 114.17603 177.238836 
L 120.801634 175.723809 
L 127.427234 174.718212 
L 134.052839 174.216152 
L 140.678438 174.725669 
L 147.304048 176.075546 
L 153.929648 178.266541 
L 160.555248 180.812031 
L 167.180857 183.447186 
L 173.806457 185.328887 
L 180.432057 186.403993 
L 187.057666 185.994291 
L 193.683266 184.349076 
L 200.308866 181.534885 
L 206.934475 177.922271 
L 213.560075 173.865975 
L 220.185675 170.083712 
L 226.811275 166.925325 
L 233.436875 164.770564 
L 240.062494 164.036484 
L 246.688093 164.509644 
L 253.313693 165.972633 
L 259.939293 168.777058 
L 266.564893 171.980043 
L 273.190493 175.467799 
L 279.816112 178.83877 
L 286.441712 181.984203 
L 293.067312 184.432036 
L 299.692911 185.684902 
L 306.318511 186.453132 
L 312.944111 186.166816 
L 319.56973 185.450571 
L 326.19533 184.058475 
L 332.82093 182.596263 
L 339.44653 181.421901 
L 346.072129 180.287962 
L 352.697729 180.280669 
L 359.323348 180.771322 
L 365.948948 182.480947 
L 372.574548 185.235894 
L 379.200148 188.581217 
" clip-path="url(#pca72fd48cc)" style="fill: none; stroke: #ff0000; stroke-width: 0.5; stroke-linecap: round"/>
   </g>
   <g id="line2d_22">
    <path d="M 54.545602 176.305216 
L 61.171205 174.93677 
L 67.796808 173.125467 
L 74.422411 171.712247 
L 81.048014 170.696365 
L 87.673618 170.515464 
L 94.29922 171.197323 
L 100.924825 172.610688 
L 107.550425 174.876288 
L 114.17603 177.334332 
L 120.801634 179.775497 
L 127.427234 181.946538 
L 134.052839 182.962414 
L 140.678438 183.30109 
L 147.304048 182.442976 
L 153.929648 180.72114 
L 160.555248 178.474125 
L 167.180857 175.793573 
L 173.806457 173.173976 
L 180.432057 171.333783 
L 187.057666 169.756232 
L 193.683266 169.365103 
L 200.308866 169.794146 
L 206.934475 170.415803 
L 213.560075 171.384015 
L 220.185675 171.912709 
L 226.811275 172.000381 
L 233.436875 170.898085 
L 240.062494 168.967149 
L 246.688093 165.832478 
L 253.313693 161.591722 
L 259.939293 156.751698 
L 266.564893 151.731246 
L 273.190493 146.97792 
L 279.816112 142.80091 
L 286.441712 140.276158 
L 293.067312 139.01367 
L 299.692911 139.505144 
L 306.318511 141.795581 
L 312.944111 145.504817 
L 319.56973 150.807515 
L 326.19533 156.523161 
L 332.82093 162.766916 
L 339.44653 168.619721 
L 346.072129 174.079082 
L 352.697729 178.519426 
L 359.323348 181.865611 
L 365.948948 183.507361 
L 372.574548 183.542182 
L 379.200148 182.097901 
" clip-path="url(#pca72fd48cc)" style="fill: none; stroke: #ff0000; stroke-width: 0.5; stroke-linecap: round"/>
   </g>
   <g id="line2d_23">
    <path d="M 54.545602 140.722365 
L 61.171205 146.003072 
L 67.796808 151.2723 
L 74.422411 156.327084 
L 81.048014 160.881832 
L 87.673618 165.012869 
L 94.29922 168.384693 
L 100.924825 171.771864 
L 107.550425 174.649615 
L 114.17603 177.199596 
L 120.801634 179.397775 
L 127.427234 181.291823 
L 134.052839 182.512183 
L 140.678438 182.863747 
L 147.304048 182.142126 
L 153.929648 180.719837 
L 160.555248 178.366062 
L 167.180857 175.170022 
L 173.806457 171.490277 
L 180.432057 167.844036 
L 187.057666 164.252587 
L 193.683266 161.214934 
L 200.308866 159.310048 
L 206.934475 158.458734 
L 213.560075 158.709023 
L 220.185675 160.218666 
L 226.811275 162.549253 
L 233.436875 165.745258 
L 240.062494 169.139879 
L 246.688093 172.623273 
L 253.313693 176.236257 
L 259.939293 179.411023 
L 266.564893 182.355575 
L 273.190493 184.901865 
L 279.816112 187.481395 
L 286.441712 189.623791 
L 293.067312 191.685997 
L 299.692911 193.353941 
L 306.318511 194.469833 
L 312.944111 195.084734 
L 319.56973 194.959635 
L 326.19533 193.831307 
L 332.82093 191.789596 
L 339.44653 189.014574 
L 346.072129 185.685496 
L 352.697729 182.407522 
L 359.323348 179.122551 
L 365.948948 176.518966 
L 372.574548 174.377752 
L 379.200148 173.241711 
" clip-path="url(#pca72fd48cc)" style="fill: none; stroke: #ff0000; stroke-width: 0.5; stroke-linecap: round"/>
   </g>
   <g id="line2d_24">
    <path d="M 54.545602 104.582577 
L 61.171205 104.159685 
L 67.796808 106.765749 
L 74.422411 112.532883 
L 81.048014 120.890994 
L 87.673618 131.471423 
L 94.29922 143.212807 
L 100.924825 155.422367 
L 107.550425 167.135817 
L 114.17603 177.236826 
L 120.801634 185.278868 
L 127.427234 190.702497 
L 134.052839 193.289521 
L 140.678438 192.68157 
L 147.304048 189.140793 
L 153.929648 183.23046 
L 160.555248 175.554793 
L 167.180857 167.172469 
L 173.806457 159.263947 
L 180.432057 152.780738 
L 187.057666 148.74823 
L 193.683266 148.024795 
L 200.308866 151.069657 
L 206.934475 157.60731 
L 213.560075 167.328417 
L 220.185675 179.237706 
L 226.811275 192.663246 
L 233.436875 206.080139 
L 240.062494 218.680168 
L 246.688093 229.659562 
L 253.313693 238.545435 
L 259.939293 245.077582 
L 266.564893 248.963582 
L 273.190493 250.490087 
L 279.816112 249.627703 
L 286.441712 246.541141 
L 293.067312 241.579401 
L 299.692911 235.040658 
L 306.318511 227.006664 
L 312.944111 218.052021 
L 319.56973 208.717634 
L 326.19533 199.92353 
L 332.82093 191.957149 
L 339.44653 185.830205 
L 346.072129 181.709993 
L 352.697729 180.219841 
L 359.323348 181.210298 
L 365.948948 184.229651 
L 372.574548 189.084444 
L 379.200148 194.692991 
" clip-path="url(#pca72fd48cc)" style="fill: none; stroke: #ff0000; stroke-width: 0.5; stroke-linecap: round"/>
   </g>
   <g id="line2d_25">
    <path d="M 54.545602 232.221987 
L 61.171205 227.808854 
L 67.796808 221.02705 
L 74.422411 213.259869 
L 81.048014 205.154446 
L 87.673618 197.338364 
L 94.29922 190.335441 
L 100.924825 184.71594 
L 107.550425 180.356753 
L 114.17603 177.33183 
L 120.801634 175.551252 
L 127.427234 174.743565 
L 134.052839 174.739604 
L 140.678438 175.408673 
L 147.304048 176.773673 
L 153.929648 178.525827 
L 160.555248 180.549004 
L 167.180857 183.22686 
L 173.806457 185.83127 
L 180.432057 188.679851 
L 187.057666 191.435998 
L 193.683266 194.068938 
L 200.308866 196.258789 
L 206.934475 198.158751 
L 213.560075 199.403212 
L 220.185675 199.901291 
L 226.811275 199.908589 
L 233.436875 198.897943 
L 240.062494 197.666495 
L 246.688093 195.97536 
L 253.313693 194.139294 
L 259.939293 192.248874 
L 266.564893 190.362937 
L 273.190493 188.680755 
L 279.816112 187.061636 
L 286.441712 185.934067 
L 293.067312 184.606683 
L 299.692911 183.684947 
L 306.318511 183.134603 
L 312.944111 182.722283 
L 319.56973 182.709366 
L 326.19533 182.6156 
L 332.82093 182.573927 
L 339.44653 182.480217 
L 346.072129 181.942655 
L 352.697729 181.086406 
L 359.323348 179.964664 
L 365.948948 178.665244 
L 372.574548 177.540337 
L 379.200148 176.734799 
" clip-path="url(#pca72fd48cc)" style="fill: none; stroke: #ff0000; stroke-width: 0.5; stroke-linecap: round"/>
   </g>
   <g id="line2d_26">
    <path d="M 54.545602 182.165782 
L 61.171205 181.366659 
L 67.796808 179.720896 
L 74.422411 177.546207 
L 81.048014 175.551769 
L 87.673618 174.149573 
L 94.29922 173.948943 
L 100.924825 174.35141 
L 107.550425 175.614434 
L 114.17603 177.338404 
L 120.801634 179.174062 
L 127.427234 180.860683 
L 134.052839 182.084741 
L 140.678438 182.658706 
L 147.304048 182.182326 
L 153.929648 180.691005 
L 160.555248 178.169137 
L 167.180857 174.270011 
L 173.806457 169.067038 
L 180.432057 162.284851 
L 187.057666 154.733407 
L 193.683266 145.921535 
L 200.308866 137.057652 
L 206.934475 127.743892 
L 213.560075 119.663591 
L 220.185675 113.197793 
L 226.811275 109.292108 
L 233.436875 108.081949 
L 240.062494 110.523738 
L 246.688093 116.119092 
L 253.313693 125.004717 
L 259.939293 136.040435 
L 266.564893 148.65437 
L 273.190493 161.365638 
L 279.816112 173.35815 
L 286.441712 183.396905 
L 293.067312 190.822482 
L 299.692911 195.329288 
L 306.318511 196.74533 
L 312.944111 195.667112 
L 319.56973 192.660114 
L 326.19533 188.674111 
L 332.82093 184.633207 
L 339.44653 181.496861 
L 346.072129 179.523989 
L 352.697729 179.537571 
L 359.323348 181.646517 
L 365.948948 185.654359 
L 372.574548 191.347668 
L 379.200148 198.278755 
" clip-path="url(#pca72fd48cc)" style="fill: none; stroke: #ff0000; stroke-width: 0.5; stroke-linecap: round"/>
   </g>
   <g id="line2d_27"/>
   <g id="patch_3">
    <path d="M 38.312875 268.651825 
L 38.312875 19.02862 
" style="fill: none; stroke: #262626; stroke-linejoin: miter; stroke-linecap: square"/>
   </g>
   <g id="patch_4">
    <path d="M 54.545602 273.312 
L 379.200148 273.312 
" style="fill: none; stroke: #262626; stroke-linejoin: miter; stroke-linecap: square"/>
   </g>
   <g id="legend_1">
    <g id="line2d_28">
     <g>
      <use xlink:href="#m3532906516" x="55.032875" y="18.338875" style="stroke: #000000; stroke-width: 2"/>
     </g>
    </g>
    <g id="text_16">
     <!-- Observations -->
     <g style="fill: #262626" transform="translate(70.872875 21.418875) scale(0.088 -0.088)">
      <defs>
       <path id="ArialMT-4f" d="M 309 2231 
Q 309 3372 921 4017 
Q 1534 4663 2503 4663 
Q 3138 4663 3647 4359 
Q 4156 4056 4423 3514 
Q 4691 2972 4691 2284 
Q 4691 1588 4409 1038 
Q 4128 488 3612 205 
Q 3097 -78 2500 -78 
Q 1853 -78 1343 234 
Q 834 547 571 1087 
Q 309 1628 309 2231 
z
M 934 2222 
Q 934 1394 1379 917 
Q 1825 441 2497 441 
Q 3181 441 3623 922 
Q 4066 1403 4066 2288 
Q 4066 2847 3877 3264 
Q 3688 3681 3323 3911 
Q 2959 4141 2506 4141 
Q 1863 4141 1398 3698 
Q 934 3256 934 2222 
z
" transform="scale(0.015625)"/>
       <path id="ArialMT-62" d="M 941 0 
L 419 0 
L 419 4581 
L 981 4581 
L 981 2947 
Q 1338 3394 1891 3394 
Q 2197 3394 2470 3270 
Q 2744 3147 2920 2923 
Q 3097 2700 3197 2384 
Q 3297 2069 3297 1709 
Q 3297 856 2875 390 
Q 2453 -75 1863 -75 
Q 1275 -75 941 416 
L 941 0 
z
M 934 1684 
Q 934 1088 1097 822 
Q 1363 388 1816 388 
Q 2184 388 2453 708 
Q 2722 1028 2722 1663 
Q 2722 2313 2464 2622 
Q 2206 2931 1841 2931 
Q 1472 2931 1203 2611 
Q 934 2291 934 1684 
z
" transform="scale(0.015625)"/>
       <path id="ArialMT-73" d="M 197 991 
L 753 1078 
Q 800 744 1014 566 
Q 1228 388 1613 388 
Q 2000 388 2187 545 
Q 2375 703 2375 916 
Q 2375 1106 2209 1216 
Q 2094 1291 1634 1406 
Q 1016 1563 777 1677 
Q 538 1791 414 1992 
Q 291 2194 291 2438 
Q 291 2659 392 2848 
Q 494 3038 669 3163 
Q 800 3259 1026 3326 
Q 1253 3394 1513 3394 
Q 1903 3394 2198 3281 
Q 2494 3169 2634 2976 
Q 2775 2784 2828 2463 
L 2278 2388 
Q 2241 2644 2061 2787 
Q 1881 2931 1553 2931 
Q 1166 2931 1000 2803 
Q 834 2675 834 2503 
Q 834 2394 903 2306 
Q 972 2216 1119 2156 
Q 1203 2125 1616 2013 
Q 2213 1853 2448 1751 
Q 2684 1650 2818 1456 
Q 2953 1263 2953 975 
Q 2953 694 2789 445 
Q 2625 197 2315 61 
Q 2006 -75 1616 -75 
Q 969 -75 630 194 
Q 291 463 197 991 
z
" transform="scale(0.015625)"/>
       <path id="ArialMT-65" d="M 2694 1069 
L 3275 997 
Q 3138 488 2766 206 
Q 2394 -75 1816 -75 
Q 1088 -75 661 373 
Q 234 822 234 1631 
Q 234 2469 665 2931 
Q 1097 3394 1784 3394 
Q 2450 3394 2872 2941 
Q 3294 2488 3294 1666 
Q 3294 1616 3291 1516 
L 816 1516 
Q 847 969 1125 678 
Q 1403 388 1819 388 
Q 2128 388 2347 550 
Q 2566 713 2694 1069 
z
M 847 1978 
L 2700 1978 
Q 2663 2397 2488 2606 
Q 2219 2931 1791 2931 
Q 1403 2931 1139 2672 
Q 875 2413 847 1978 
z
" transform="scale(0.015625)"/>
       <path id="ArialMT-72" d="M 416 0 
L 416 3319 
L 922 3319 
L 922 2816 
Q 1116 3169 1280 3281 
Q 1444 3394 1641 3394 
Q 1925 3394 2219 3213 
L 2025 2691 
Q 1819 2813 1613 2813 
Q 1428 2813 1281 2702 
Q 1134 2591 1072 2394 
Q 978 2094 978 1738 
L 978 0 
L 416 0 
z
" transform="scale(0.015625)"/>
       <path id="ArialMT-76" d="M 1344 0 
L 81 3319 
L 675 3319 
L 1388 1331 
Q 1503 1009 1600 663 
Q 1675 925 1809 1294 
L 2547 3319 
L 3125 3319 
L 1869 0 
L 1344 0 
z
" transform="scale(0.015625)"/>
       <path id="ArialMT-61" d="M 2588 409 
Q 2275 144 1986 34 
Q 1697 -75 1366 -75 
Q 819 -75 525 192 
Q 231 459 231 875 
Q 231 1119 342 1320 
Q 453 1522 633 1644 
Q 813 1766 1038 1828 
Q 1203 1872 1538 1913 
Q 2219 1994 2541 2106 
Q 2544 2222 2544 2253 
Q 2544 2597 2384 2738 
Q 2169 2928 1744 2928 
Q 1347 2928 1158 2789 
Q 969 2650 878 2297 
L 328 2372 
Q 403 2725 575 2942 
Q 747 3159 1072 3276 
Q 1397 3394 1825 3394 
Q 2250 3394 2515 3294 
Q 2781 3194 2906 3042 
Q 3031 2891 3081 2659 
Q 3109 2516 3109 2141 
L 3109 1391 
Q 3109 606 3145 398 
Q 3181 191 3288 0 
L 2700 0 
Q 2613 175 2588 409 
z
M 2541 1666 
Q 2234 1541 1622 1453 
Q 1275 1403 1131 1340 
Q 988 1278 909 1158 
Q 831 1038 831 891 
Q 831 666 1001 516 
Q 1172 366 1500 366 
Q 1825 366 2078 508 
Q 2331 650 2450 897 
Q 2541 1088 2541 1459 
L 2541 1666 
z
" transform="scale(0.015625)"/>
       <path id="ArialMT-74" d="M 1650 503 
L 1731 6 
Q 1494 -44 1306 -44 
Q 1000 -44 831 53 
Q 663 150 594 308 
Q 525 466 525 972 
L 525 2881 
L 113 2881 
L 113 3319 
L 525 3319 
L 525 4141 
L 1084 4478 
L 1084 3319 
L 1650 3319 
L 1650 2881 
L 1084 2881 
L 1084 941 
Q 1084 700 1114 631 
Q 1144 563 1211 522 
Q 1278 481 1403 481 
Q 1497 481 1650 503 
z
" transform="scale(0.015625)"/>
       <path id="ArialMT-69" d="M 425 3934 
L 425 4581 
L 988 4581 
L 988 3934 
L 425 3934 
z
M 425 0 
L 425 3319 
L 988 3319 
L 988 0 
L 425 0 
z
" transform="scale(0.015625)"/>
       <path id="ArialMT-6f" d="M 213 1659 
Q 213 2581 725 3025 
Q 1153 3394 1769 3394 
Q 2453 3394 2887 2945 
Q 3322 2497 3322 1706 
Q 3322 1066 3130 698 
Q 2938 331 2570 128 
Q 2203 -75 1769 -75 
Q 1072 -75 642 372 
Q 213 819 213 1659 
z
M 791 1659 
Q 791 1022 1069 705 
Q 1347 388 1769 388 
Q 2188 388 2466 706 
Q 2744 1025 2744 1678 
Q 2744 2294 2464 2611 
Q 2184 2928 1769 2928 
Q 1347 2928 1069 2612 
Q 791 2297 791 1659 
z
" transform="scale(0.015625)"/>
       <path id="ArialMT-6e" d="M 422 0 
L 422 3319 
L 928 3319 
L 928 2847 
Q 1294 3394 1984 3394 
Q 2284 3394 2536 3286 
Q 2788 3178 2913 3003 
Q 3038 2828 3088 2588 
Q 3119 2431 3119 2041 
L 3119 0 
L 2556 0 
L 2556 2019 
Q 2556 2363 2490 2533 
Q 2425 2703 2258 2804 
Q 2091 2906 1866 2906 
Q 1506 2906 1245 2678 
Q 984 2450 984 1813 
L 984 0 
L 422 0 
z
" transform="scale(0.015625)"/>
      </defs>
      <use xlink:href="#ArialMT-4f"/>
      <use xlink:href="#ArialMT-62" x="77.783203"/>
      <use xlink:href="#ArialMT-73" x="133.398438"/>
      <use xlink:href="#ArialMT-65" x="183.398438"/>
      <use xlink:href="#ArialMT-72" x="239.013672"/>
      <use xlink:href="#ArialMT-76" x="272.314453"/>
      <use xlink:href="#ArialMT-61" x="322.314453"/>
      <use xlink:href="#ArialMT-74" x="377.929688"/>
      <use xlink:href="#ArialMT-69" x="405.712891"/>
      <use xlink:href="#ArialMT-6f" x="427.929688"/>
      <use xlink:href="#ArialMT-6e" x="483.544922"/>
      <use xlink:href="#ArialMT-73" x="539.160156"/>
     </g>
    </g>
    <g id="line2d_29">
     <path d="M 46.232875 30.922875 
L 55.032875 30.922875 
L 63.832875 30.922875 
" style="fill: none; stroke: #1f77b4; stroke-width: 2; stroke-linecap: round"/>
    </g>
    <g id="text_17">
     <!-- $m_n(x)$ -->
     <g style="fill: #262626" transform="translate(70.872875 34.002875) scale(0.088 -0.088)">
      <defs>
       <path id="DejaVuSans-Oblique-6d" d="M 5747 2113 
L 5338 0 
L 4763 0 
L 5166 2094 
Q 5191 2228 5203 2325 
Q 5216 2422 5216 2491 
Q 5216 2772 5059 2928 
Q 4903 3084 4622 3084 
Q 4203 3084 3875 2770 
Q 3547 2456 3450 1953 
L 3066 0 
L 2491 0 
L 2900 2094 
Q 2925 2209 2937 2307 
Q 2950 2406 2950 2484 
Q 2950 2769 2794 2926 
Q 2638 3084 2363 3084 
Q 1938 3084 1609 2770 
Q 1281 2456 1184 1953 
L 800 0 
L 225 0 
L 909 3500 
L 1484 3500 
L 1375 2956 
Q 1609 3263 1923 3423 
Q 2238 3584 2597 3584 
Q 2978 3584 3223 3384 
Q 3469 3184 3519 2828 
Q 3781 3197 4126 3390 
Q 4472 3584 4856 3584 
Q 5306 3584 5551 3325 
Q 5797 3066 5797 2591 
Q 5797 2488 5784 2364 
Q 5772 2241 5747 2113 
z
" transform="scale(0.015625)"/>
       <path id="DejaVuSans-Oblique-6e" d="M 3566 2113 
L 3156 0 
L 2578 0 
L 2988 2091 
Q 3016 2238 3031 2350 
Q 3047 2463 3047 2528 
Q 3047 2791 2881 2937 
Q 2716 3084 2419 3084 
Q 1956 3084 1622 2776 
Q 1288 2469 1184 1941 
L 800 0 
L 225 0 
L 903 3500 
L 1478 3500 
L 1363 2950 
Q 1603 3253 1940 3418 
Q 2278 3584 2650 3584 
Q 3113 3584 3367 3334 
Q 3622 3084 3622 2631 
Q 3622 2519 3608 2391 
Q 3594 2263 3566 2113 
z
" transform="scale(0.015625)"/>
       <path id="DejaVuSans-28" d="M 1984 4856 
Q 1566 4138 1362 3434 
Q 1159 2731 1159 2009 
Q 1159 1288 1364 580 
Q 1569 -128 1984 -844 
L 1484 -844 
Q 1016 -109 783 600 
Q 550 1309 550 2009 
Q 550 2706 781 3412 
Q 1013 4119 1484 4856 
L 1984 4856 
z
" transform="scale(0.015625)"/>
       <path id="DejaVuSans-29" d="M 513 4856 
L 1013 4856 
Q 1481 4119 1714 3412 
Q 1947 2706 1947 2009 
Q 1947 1309 1714 600 
Q 1481 -109 1013 -844 
L 513 -844 
Q 928 -128 1133 580 
Q 1338 1288 1338 2009 
Q 1338 2731 1133 3434 
Q 928 4138 513 4856 
z
" transform="scale(0.015625)"/>
      </defs>
      <use xlink:href="#DejaVuSans-Oblique-6d" transform="translate(0 0.125)"/>
      <use xlink:href="#DejaVuSans-Oblique-6e" transform="translate(97.412109 -16.28125) scale(0.7)"/>
      <use xlink:href="#DejaVuSans-28" transform="translate(144.511719 0.125)"/>
      <use xlink:href="#DejaVuSans-Oblique-78" transform="translate(183.525391 0.125)"/>
      <use xlink:href="#DejaVuSans-29" transform="translate(242.705078 0.125)"/>
     </g>
    </g>
    <g id="patch_5">
     <path d="M 46.232875 48.159875 
L 63.832875 48.159875 
L 63.832875 41.999875 
L 46.232875 41.999875 
z
" style="fill: #1f77b4; fill-opacity: 0.5; stroke: #1f77b4; stroke-opacity: 0.5; stroke-width: 0.8; stroke-linejoin: miter"/>
    </g>
    <g id="text_18">
     <!-- $f(\mathbf{x}^*)$ 95% pred. -->
     <g style="fill: #262626" transform="translate(70.872875 48.159875) scale(0.088 -0.088)">
      <defs>
       <path id="DejaVuSans-Oblique-66" d="M 3059 4863 
L 2969 4384 
L 2419 4384 
Q 2106 4384 1964 4261 
Q 1822 4138 1753 3809 
L 1691 3500 
L 2638 3500 
L 2553 3053 
L 1606 3053 
L 1013 0 
L 434 0 
L 1031 3053 
L 481 3053 
L 563 3500 
L 1113 3500 
L 1159 3744 
Q 1278 4363 1576 4613 
Q 1875 4863 2516 4863 
L 3059 4863 
z
" transform="scale(0.015625)"/>
       <path id="DejaVuSans-Bold-78" d="M 1422 1791 
L 159 3500 
L 1344 3500 
L 2059 2463 
L 2784 3500 
L 3969 3500 
L 2706 1797 
L 4031 0 
L 2847 0 
L 2059 1106 
L 1281 0 
L 97 0 
L 1422 1791 
z
" transform="scale(0.015625)"/>
       <path id="DejaVuSans-2a" d="M 3009 3897 
L 1888 3291 
L 3009 2681 
L 2828 2375 
L 1778 3009 
L 1778 1831 
L 1422 1831 
L 1422 3009 
L 372 2375 
L 191 2681 
L 1313 3291 
L 191 3897 
L 372 4206 
L 1422 3572 
L 1422 4750 
L 1778 4750 
L 1778 3572 
L 2828 4206 
L 3009 3897 
z
" transform="scale(0.015625)"/>
       <path id="ArialMT-20" transform="scale(0.015625)"/>
       <path id="ArialMT-39" d="M 350 1059 
L 891 1109 
Q 959 728 1153 556 
Q 1347 384 1650 384 
Q 1909 384 2104 503 
Q 2300 622 2425 820 
Q 2550 1019 2634 1356 
Q 2719 1694 2719 2044 
Q 2719 2081 2716 2156 
Q 2547 1888 2255 1720 
Q 1963 1553 1622 1553 
Q 1053 1553 659 1965 
Q 266 2378 266 3053 
Q 266 3750 677 4175 
Q 1088 4600 1706 4600 
Q 2153 4600 2523 4359 
Q 2894 4119 3086 3673 
Q 3278 3228 3278 2384 
Q 3278 1506 3087 986 
Q 2897 466 2520 194 
Q 2144 -78 1638 -78 
Q 1100 -78 759 220 
Q 419 519 350 1059 
z
M 2653 3081 
Q 2653 3566 2395 3850 
Q 2138 4134 1775 4134 
Q 1400 4134 1122 3828 
Q 844 3522 844 3034 
Q 844 2597 1108 2323 
Q 1372 2050 1759 2050 
Q 2150 2050 2401 2323 
Q 2653 2597 2653 3081 
z
" transform="scale(0.015625)"/>
       <path id="ArialMT-35" d="M 266 1200 
L 856 1250 
Q 922 819 1161 601 
Q 1400 384 1738 384 
Q 2144 384 2425 690 
Q 2706 997 2706 1503 
Q 2706 1984 2436 2262 
Q 2166 2541 1728 2541 
Q 1456 2541 1237 2417 
Q 1019 2294 894 2097 
L 366 2166 
L 809 4519 
L 3088 4519 
L 3088 3981 
L 1259 3981 
L 1013 2750 
Q 1425 3038 1878 3038 
Q 2478 3038 2890 2622 
Q 3303 2206 3303 1553 
Q 3303 931 2941 478 
Q 2500 -78 1738 -78 
Q 1113 -78 717 272 
Q 322 622 266 1200 
z
" transform="scale(0.015625)"/>
       <path id="ArialMT-25" d="M 372 3481 
Q 372 3972 619 4315 
Q 866 4659 1334 4659 
Q 1766 4659 2048 4351 
Q 2331 4044 2331 3447 
Q 2331 2866 2045 2552 
Q 1759 2238 1341 2238 
Q 925 2238 648 2547 
Q 372 2856 372 3481 
z
M 1350 4272 
Q 1141 4272 1002 4090 
Q 863 3909 863 3425 
Q 863 2984 1003 2804 
Q 1144 2625 1350 2625 
Q 1563 2625 1702 2806 
Q 1841 2988 1841 3469 
Q 1841 3913 1700 4092 
Q 1559 4272 1350 4272 
z
M 1353 -169 
L 3859 4659 
L 4316 4659 
L 1819 -169 
L 1353 -169 
z
M 3334 1075 
Q 3334 1569 3581 1911 
Q 3828 2253 4300 2253 
Q 4731 2253 5014 1945 
Q 5297 1638 5297 1041 
Q 5297 459 5011 145 
Q 4725 -169 4303 -169 
Q 3888 -169 3611 142 
Q 3334 453 3334 1075 
z
M 4316 1866 
Q 4103 1866 3964 1684 
Q 3825 1503 3825 1019 
Q 3825 581 3965 400 
Q 4106 219 4313 219 
Q 4528 219 4667 400 
Q 4806 581 4806 1063 
Q 4806 1506 4665 1686 
Q 4525 1866 4316 1866 
z
" transform="scale(0.015625)"/>
       <path id="ArialMT-70" d="M 422 -1272 
L 422 3319 
L 934 3319 
L 934 2888 
Q 1116 3141 1344 3267 
Q 1572 3394 1897 3394 
Q 2322 3394 2647 3175 
Q 2972 2956 3137 2557 
Q 3303 2159 3303 1684 
Q 3303 1175 3120 767 
Q 2938 359 2589 142 
Q 2241 -75 1856 -75 
Q 1575 -75 1351 44 
Q 1128 163 984 344 
L 984 -1272 
L 422 -1272 
z
M 931 1641 
Q 931 1000 1190 694 
Q 1450 388 1819 388 
Q 2194 388 2461 705 
Q 2728 1022 2728 1688 
Q 2728 2322 2467 2637 
Q 2206 2953 1844 2953 
Q 1484 2953 1207 2617 
Q 931 2281 931 1641 
z
" transform="scale(0.015625)"/>
       <path id="ArialMT-64" d="M 2575 0 
L 2575 419 
Q 2259 -75 1647 -75 
Q 1250 -75 917 144 
Q 584 363 401 755 
Q 219 1147 219 1656 
Q 219 2153 384 2558 
Q 550 2963 881 3178 
Q 1213 3394 1622 3394 
Q 1922 3394 2156 3267 
Q 2391 3141 2538 2938 
L 2538 4581 
L 3097 4581 
L 3097 0 
L 2575 0 
z
M 797 1656 
Q 797 1019 1065 703 
Q 1334 388 1700 388 
Q 2069 388 2326 689 
Q 2584 991 2584 1609 
Q 2584 2291 2321 2609 
Q 2059 2928 1675 2928 
Q 1300 2928 1048 2622 
Q 797 2316 797 1656 
z
" transform="scale(0.015625)"/>
      </defs>
      <use xlink:href="#DejaVuSans-Oblique-66" transform="translate(0 0.765625)"/>
      <use xlink:href="#DejaVuSans-28" transform="translate(35.205078 0.765625)"/>
      <use xlink:href="#DejaVuSans-Bold-78" transform="translate(74.21875 0.765625)"/>
      <use xlink:href="#DejaVuSans-2a" transform="translate(153.31543 39.046875) scale(0.7)"/>
      <use xlink:href="#DejaVuSans-29" transform="translate(204.6875 0.765625)"/>
      <use xlink:href="#ArialMT-20" transform="translate(243.701172 0.765625)"/>
      <use xlink:href="#ArialMT-39" transform="translate(271.484375 0.765625)"/>
      <use xlink:href="#ArialMT-35" transform="translate(327.099609 0.765625)"/>
      <use xlink:href="#ArialMT-25" transform="translate(382.714844 0.765625)"/>
      <use xlink:href="#ArialMT-20" transform="translate(471.630859 0.765625)"/>
      <use xlink:href="#ArialMT-70" transform="translate(499.414062 0.765625)"/>
      <use xlink:href="#ArialMT-72" transform="translate(555.029297 0.765625)"/>
      <use xlink:href="#ArialMT-65" transform="translate(588.330078 0.765625)"/>
      <use xlink:href="#ArialMT-64" transform="translate(643.945312 0.765625)"/>
      <use xlink:href="#ArialMT-2e" transform="translate(699.560547 0.765625)"/>
     </g>
    </g>
    <g id="patch_6">
     <path d="M 46.232875 62.327875 
L 63.832875 62.327875 
L 63.832875 56.167875 
L 46.232875 56.167875 
z
" style="fill: #ff7f0e; fill-opacity: 0.5; stroke: #ff7f0e; stroke-opacity: 0.5; stroke-width: 0.8; stroke-linejoin: miter"/>
    </g>
    <g id="text_19">
     <!-- $y^*$ 95% pred. -->
     <g style="fill: #262626" transform="translate(70.872875 62.327875) scale(0.088 -0.088)">
      <use xlink:href="#DejaVuSans-Oblique-79" transform="translate(0 0.765625)"/>
      <use xlink:href="#DejaVuSans-2a" transform="translate(77.283529 39.046875) scale(0.7)"/>
      <use xlink:href="#ArialMT-20" transform="translate(128.655599 0.765625)"/>
      <use xlink:href="#ArialMT-39" transform="translate(156.438802 0.765625)"/>
      <use xlink:href="#ArialMT-35" transform="translate(212.054036 0.765625)"/>
      <use xlink:href="#ArialMT-25" transform="translate(267.669271 0.765625)"/>
      <use xlink:href="#ArialMT-20" transform="translate(356.585286 0.765625)"/>
      <use xlink:href="#ArialMT-70" transform="translate(384.36849 0.765625)"/>
      <use xlink:href="#ArialMT-72" transform="translate(439.983724 0.765625)"/>
      <use xlink:href="#ArialMT-65" transform="translate(473.284505 0.765625)"/>
      <use xlink:href="#ArialMT-64" transform="translate(528.89974 0.765625)"/>
      <use xlink:href="#ArialMT-2e" transform="translate(584.514974 0.765625)"/>
     </g>
    </g>
    <g id="line2d_30">
     <path d="M 46.232875 71.79475 
L 55.032875 71.79475 
L 63.832875 71.79475 
" style="fill: none; stroke-dasharray: 7.68,1.92,1.2,1.92; stroke-dashoffset: 0; stroke: #bf00bf; stroke-width: 1.2"/>
    </g>
    <g id="text_20">
     <!-- True function -->
     <g style="fill: #262626" transform="translate(70.872875 74.87475) scale(0.088 -0.088)">
      <defs>
       <path id="ArialMT-54" d="M 1659 0 
L 1659 4041 
L 150 4041 
L 150 4581 
L 3781 4581 
L 3781 4041 
L 2266 4041 
L 2266 0 
L 1659 0 
z
" transform="scale(0.015625)"/>
       <path id="ArialMT-75" d="M 2597 0 
L 2597 488 
Q 2209 -75 1544 -75 
Q 1250 -75 995 37 
Q 741 150 617 320 
Q 494 491 444 738 
Q 409 903 409 1263 
L 409 3319 
L 972 3319 
L 972 1478 
Q 972 1038 1006 884 
Q 1059 663 1231 536 
Q 1403 409 1656 409 
Q 1909 409 2131 539 
Q 2353 669 2445 892 
Q 2538 1116 2538 1541 
L 2538 3319 
L 3100 3319 
L 3100 0 
L 2597 0 
z
" transform="scale(0.015625)"/>
       <path id="ArialMT-66" d="M 556 0 
L 556 2881 
L 59 2881 
L 59 3319 
L 556 3319 
L 556 3672 
Q 556 4006 616 4169 
Q 697 4388 901 4523 
Q 1106 4659 1475 4659 
Q 1713 4659 2000 4603 
L 1916 4113 
Q 1741 4144 1584 4144 
Q 1328 4144 1222 4034 
Q 1116 3925 1116 3625 
L 1116 3319 
L 1763 3319 
L 1763 2881 
L 1116 2881 
L 1116 0 
L 556 0 
z
" transform="scale(0.015625)"/>
       <path id="ArialMT-63" d="M 2588 1216 
L 3141 1144 
Q 3050 572 2676 248 
Q 2303 -75 1759 -75 
Q 1078 -75 664 370 
Q 250 816 250 1647 
Q 250 2184 428 2587 
Q 606 2991 970 3192 
Q 1334 3394 1763 3394 
Q 2303 3394 2647 3120 
Q 2991 2847 3088 2344 
L 2541 2259 
Q 2463 2594 2264 2762 
Q 2066 2931 1784 2931 
Q 1359 2931 1093 2626 
Q 828 2322 828 1663 
Q 828 994 1084 691 
Q 1341 388 1753 388 
Q 2084 388 2306 591 
Q 2528 794 2588 1216 
z
" transform="scale(0.015625)"/>
      </defs>
      <use xlink:href="#ArialMT-54"/>
      <use xlink:href="#ArialMT-72" x="57.333984"/>
      <use xlink:href="#ArialMT-75" x="90.634766"/>
      <use xlink:href="#ArialMT-65" x="146.25"/>
      <use xlink:href="#ArialMT-20" x="201.865234"/>
      <use xlink:href="#ArialMT-66" x="229.648438"/>
      <use xlink:href="#ArialMT-75" x="257.431641"/>
      <use xlink:href="#ArialMT-6e" x="313.046875"/>
      <use xlink:href="#ArialMT-63" x="368.662109"/>
      <use xlink:href="#ArialMT-74" x="418.662109"/>
      <use xlink:href="#ArialMT-69" x="446.445312"/>
      <use xlink:href="#ArialMT-6f" x="468.662109"/>
      <use xlink:href="#ArialMT-6e" x="524.277344"/>
     </g>
    </g>
    <g id="line2d_31">
     <path d="M 46.232875 84.242625 
L 55.032875 84.242625 
L 63.832875 84.242625 
" style="fill: none; stroke: #ff0000; stroke-width: 0.5; stroke-linecap: round"/>
    </g>
    <g id="text_21">
     <!-- Posterior samples -->
     <g style="fill: #262626" transform="translate(70.872875 87.322625) scale(0.088 -0.088)">
      <defs>
       <path id="ArialMT-50" d="M 494 0 
L 494 4581 
L 2222 4581 
Q 2678 4581 2919 4538 
Q 3256 4481 3484 4323 
Q 3713 4166 3852 3881 
Q 3991 3597 3991 3256 
Q 3991 2672 3619 2267 
Q 3247 1863 2275 1863 
L 1100 1863 
L 1100 0 
L 494 0 
z
M 1100 2403 
L 2284 2403 
Q 2872 2403 3119 2622 
Q 3366 2841 3366 3238 
Q 3366 3525 3220 3729 
Q 3075 3934 2838 4000 
Q 2684 4041 2272 4041 
L 1100 4041 
L 1100 2403 
z
" transform="scale(0.015625)"/>
       <path id="ArialMT-6d" d="M 422 0 
L 422 3319 
L 925 3319 
L 925 2853 
Q 1081 3097 1340 3245 
Q 1600 3394 1931 3394 
Q 2300 3394 2536 3241 
Q 2772 3088 2869 2813 
Q 3263 3394 3894 3394 
Q 4388 3394 4653 3120 
Q 4919 2847 4919 2278 
L 4919 0 
L 4359 0 
L 4359 2091 
Q 4359 2428 4304 2576 
Q 4250 2725 4106 2815 
Q 3963 2906 3769 2906 
Q 3419 2906 3187 2673 
Q 2956 2441 2956 1928 
L 2956 0 
L 2394 0 
L 2394 2156 
Q 2394 2531 2256 2718 
Q 2119 2906 1806 2906 
Q 1569 2906 1367 2781 
Q 1166 2656 1075 2415 
Q 984 2175 984 1722 
L 984 0 
L 422 0 
z
" transform="scale(0.015625)"/>
       <path id="ArialMT-6c" d="M 409 0 
L 409 4581 
L 972 4581 
L 972 0 
L 409 0 
z
" transform="scale(0.015625)"/>
      </defs>
      <use xlink:href="#ArialMT-50"/>
      <use xlink:href="#ArialMT-6f" x="66.699219"/>
      <use xlink:href="#ArialMT-73" x="122.314453"/>
      <use xlink:href="#ArialMT-74" x="172.314453"/>
      <use xlink:href="#ArialMT-65" x="200.097656"/>
      <use xlink:href="#ArialMT-72" x="255.712891"/>
      <use xlink:href="#ArialMT-69" x="289.013672"/>
      <use xlink:href="#ArialMT-6f" x="311.230469"/>
      <use xlink:href="#ArialMT-72" x="366.845703"/>
      <use xlink:href="#ArialMT-20" x="400.146484"/>
      <use xlink:href="#ArialMT-73" x="427.929688"/>
      <use xlink:href="#ArialMT-61" x="477.929688"/>
      <use xlink:href="#ArialMT-6d" x="533.544922"/>
      <use xlink:href="#ArialMT-70" x="616.845703"/>
      <use xlink:href="#ArialMT-6c" x="672.460938"/>
      <use xlink:href="#ArialMT-65" x="694.677734"/>
      <use xlink:href="#ArialMT-73" x="750.292969"/>
     </g>
    </g>
   </g>
  </g>
 </g>
 <defs>
  <clipPath id="pca72fd48cc">
   <rect x="38.312875" y="7.2" width="357.12" height="266.112"/>
  </clipPath>
 </defs>
</svg>