<?xml version="1.0" encoding="utf-8" standalone="no"?>
<!DOCTYPE svg PUBLIC "-//W3C//DTD SVG 1.1//EN"
  "http://www.w3.org/Graphics/SVG/1.1/DTD/svg11.dtd">
<svg xmlns:xlink="http://www.w3.org/1999/xlink" width="445.848625pt" height="322.510875pt" viewBox="0 0 445.848625 322.510875" xmlns="http://www.w3.org/2000/svg" version="1.1">
 <metadata>
  <rdf:RDF xmlns:dc="http://purl.org/dc/elements/1.1/" xmlns:cc="http://creativecommons.org/ns#" xmlns:rdf="http://www.w3.org/1999/02/22-rdf-syntax-ns#">
   <cc:Work>
    <dc:type rdf:resource="http://purl.org/dc/dcmitype/StillImage"/>
    <dc:date>2023-10-23T15:19:21.904454</dc:date>
    <dc:format>image/svg+xml</dc:format>
    <dc:creator>
     <cc:Agent>
      <dc:title>Matplotlib v3.8.0, https://matplotlib.org/</dc:title>
     </cc:Agent>
    </dc:creator>
   </cc:Work>
  </rdf:RDF>
 </metadata>
 <defs>
  <style type="text/css">*{stroke-linejoin: round; stroke-linecap: butt}</style>
 </defs>
 <g id="figure_1">
  <g id="patch_1">
   <path d="M 0 322.510875 
L 445.848625 322.510875 
L 445.848625 0 
L 0 0 
z
" style="fill: #ffffff"/>
  </g>
  <g id="axes_1">
   <g id="patch_2">
    <path d="M 38.312875 286.1835 
L 395.432875 286.1835 
L 395.432875 20.0715 
L 38.312875 20.0715 
z
" style="fill: #ffffff"/>
   </g>
   <g id="matplotlib.axis_1">
    <g id="xtick_1">
     <g id="line2d_1">
      <defs>
       <path id="m5dbad46727" d="M 0 0 
L 0 4.8 
" style="stroke: #262626"/>
      </defs>
      <g>
       <use xlink:href="#m5dbad46727" x="54.545602" y="286.1835" style="fill: #262626; stroke: #262626"/>
      </g>
     </g>
     <g id="text_1">
      <!-- 0.0 -->
      <g style="fill: #262626" transform="translate(48.429602 300.782375) scale(0.088 -0.088)">
       <defs>
        <path id="ArialMT-30" d="M 266 2259 
Q 266 3072 433 3567 
Q 600 4063 929 4331 
Q 1259 4600 1759 4600 
Q 2128 4600 2406 4451 
Q 2684 4303 2865 4023 
Q 3047 3744 3150 3342 
Q 3253 2941 3253 2259 
Q 3253 1453 3087 958 
Q 2922 463 2592 192 
Q 2263 -78 1759 -78 
Q 1097 -78 719 397 
Q 266 969 266 2259 
z
M 844 2259 
Q 844 1131 1108 757 
Q 1372 384 1759 384 
Q 2147 384 2411 759 
Q 2675 1134 2675 2259 
Q 2675 3391 2411 3762 
Q 2147 4134 1753 4134 
Q 1366 4134 1134 3806 
Q 844 3388 844 2259 
z
" transform="scale(0.015625)"/>
        <path id="ArialMT-2e" d="M 581 0 
L 581 641 
L 1222 641 
L 1222 0 
L 581 0 
z
" transform="scale(0.015625)"/>
       </defs>
       <use xlink:href="#ArialMT-30"/>
       <use xlink:href="#ArialMT-2e" x="55.615234"/>
       <use xlink:href="#ArialMT-30" x="83.398438"/>
      </g>
     </g>
    </g>
    <g id="xtick_2">
     <g id="line2d_2">
      <g>
       <use xlink:href="#m5dbad46727" x="119.476511" y="286.1835" style="fill: #262626; stroke: #262626"/>
      </g>
     </g>
     <g id="text_2">
      <!-- 0.2 -->
      <g style="fill: #262626" transform="translate(113.360511 300.782375) scale(0.088 -0.088)">
       <defs>
        <path id="ArialMT-32" d="M 3222 541 
L 3222 0 
L 194 0 
Q 188 203 259 391 
Q 375 700 629 1000 
Q 884 1300 1366 1694 
Q 2113 2306 2375 2664 
Q 2638 3022 2638 3341 
Q 2638 3675 2398 3904 
Q 2159 4134 1775 4134 
Q 1369 4134 1125 3890 
Q 881 3647 878 3216 
L 300 3275 
Q 359 3922 746 4261 
Q 1134 4600 1788 4600 
Q 2447 4600 2831 4234 
Q 3216 3869 3216 3328 
Q 3216 3053 3103 2787 
Q 2991 2522 2730 2228 
Q 2469 1934 1863 1422 
Q 1356 997 1212 845 
Q 1069 694 975 541 
L 3222 541 
z
" transform="scale(0.015625)"/>
       </defs>
       <use xlink:href="#ArialMT-30"/>
       <use xlink:href="#ArialMT-2e" x="55.615234"/>
       <use xlink:href="#ArialMT-32" x="83.398438"/>
      </g>
     </g>
    </g>
    <g id="xtick_3">
     <g id="line2d_3">
      <g>
       <use xlink:href="#m5dbad46727" x="184.40742" y="286.1835" style="fill: #262626; stroke: #262626"/>
      </g>
     </g>
     <g id="text_3">
      <!-- 0.4 -->
      <g style="fill: #262626" transform="translate(178.29142 300.782375) scale(0.088 -0.088)">
       <defs>
        <path id="ArialMT-34" d="M 2069 0 
L 2069 1097 
L 81 1097 
L 81 1613 
L 2172 4581 
L 2631 4581 
L 2631 1613 
L 3250 1613 
L 3250 1097 
L 2631 1097 
L 2631 0 
L 2069 0 
z
M 2069 1613 
L 2069 3678 
L 634 1613 
L 2069 1613 
z
" transform="scale(0.015625)"/>
       </defs>
       <use xlink:href="#ArialMT-30"/>
       <use xlink:href="#ArialMT-2e" x="55.615234"/>
       <use xlink:href="#ArialMT-34" x="83.398438"/>
      </g>
     </g>
    </g>
    <g id="xtick_4">
     <g id="line2d_4">
      <g>
       <use xlink:href="#m5dbad46727" x="249.33833" y="286.1835" style="fill: #262626; stroke: #262626"/>
      </g>
     </g>
     <g id="text_4">
      <!-- 0.6 -->
      <g style="fill: #262626" transform="translate(243.22233 300.782375) scale(0.088 -0.088)">
       <defs>
        <path id="ArialMT-36" d="M 3184 3459 
L 2625 3416 
Q 2550 3747 2413 3897 
Q 2184 4138 1850 4138 
Q 1581 4138 1378 3988 
Q 1113 3794 959 3422 
Q 806 3050 800 2363 
Q 1003 2672 1297 2822 
Q 1591 2972 1913 2972 
Q 2475 2972 2870 2558 
Q 3266 2144 3266 1488 
Q 3266 1056 3080 686 
Q 2894 316 2569 119 
Q 2244 -78 1831 -78 
Q 1128 -78 684 439 
Q 241 956 241 2144 
Q 241 3472 731 4075 
Q 1159 4600 1884 4600 
Q 2425 4600 2770 4297 
Q 3116 3994 3184 3459 
z
M 888 1484 
Q 888 1194 1011 928 
Q 1134 663 1356 523 
Q 1578 384 1822 384 
Q 2178 384 2434 671 
Q 2691 959 2691 1453 
Q 2691 1928 2437 2201 
Q 2184 2475 1800 2475 
Q 1419 2475 1153 2201 
Q 888 1928 888 1484 
z
" transform="scale(0.015625)"/>
       </defs>
       <use xlink:href="#ArialMT-30"/>
       <use xlink:href="#ArialMT-2e" x="55.615234"/>
       <use xlink:href="#ArialMT-36" x="83.398438"/>
      </g>
     </g>
    </g>
    <g id="xtick_5">
     <g id="line2d_5">
      <g>
       <use xlink:href="#m5dbad46727" x="314.269239" y="286.1835" style="fill: #262626; stroke: #262626"/>
      </g>
     </g>
     <g id="text_5">
      <!-- 0.8 -->
      <g style="fill: #262626" transform="translate(308.153239 300.782375) scale(0.088 -0.088)">
       <defs>
        <path id="ArialMT-38" d="M 1131 2484 
Q 781 2613 612 2850 
Q 444 3088 444 3419 
Q 444 3919 803 4259 
Q 1163 4600 1759 4600 
Q 2359 4600 2725 4251 
Q 3091 3903 3091 3403 
Q 3091 3084 2923 2848 
Q 2756 2613 2416 2484 
Q 2838 2347 3058 2040 
Q 3278 1734 3278 1309 
Q 3278 722 2862 322 
Q 2447 -78 1769 -78 
Q 1091 -78 675 323 
Q 259 725 259 1325 
Q 259 1772 486 2073 
Q 713 2375 1131 2484 
z
M 1019 3438 
Q 1019 3113 1228 2906 
Q 1438 2700 1772 2700 
Q 2097 2700 2305 2904 
Q 2513 3109 2513 3406 
Q 2513 3716 2298 3927 
Q 2084 4138 1766 4138 
Q 1444 4138 1231 3931 
Q 1019 3725 1019 3438 
z
M 838 1322 
Q 838 1081 952 856 
Q 1066 631 1291 507 
Q 1516 384 1775 384 
Q 2178 384 2440 643 
Q 2703 903 2703 1303 
Q 2703 1709 2433 1975 
Q 2163 2241 1756 2241 
Q 1359 2241 1098 1978 
Q 838 1716 838 1322 
z
" transform="scale(0.015625)"/>
       </defs>
       <use xlink:href="#ArialMT-30"/>
       <use xlink:href="#ArialMT-2e" x="55.615234"/>
       <use xlink:href="#ArialMT-38" x="83.398438"/>
      </g>
     </g>
    </g>
    <g id="xtick_6">
     <g id="line2d_6">
      <g>
       <use xlink:href="#m5dbad46727" x="379.200148" y="286.1835" style="fill: #262626; stroke: #262626"/>
      </g>
     </g>
     <g id="text_6">
      <!-- 1.0 -->
      <g style="fill: #262626" transform="translate(373.084148 300.782375) scale(0.088 -0.088)">
       <defs>
        <path id="ArialMT-31" d="M 2384 0 
L 1822 0 
L 1822 3584 
Q 1619 3391 1289 3197 
Q 959 3003 697 2906 
L 697 3450 
Q 1169 3672 1522 3987 
Q 1875 4303 2022 4600 
L 2384 4600 
L 2384 0 
z
" transform="scale(0.015625)"/>
       </defs>
       <use xlink:href="#ArialMT-31"/>
       <use xlink:href="#ArialMT-2e" x="55.615234"/>
       <use xlink:href="#ArialMT-30" x="83.398438"/>
      </g>
     </g>
    </g>
    <g id="text_7">
     <!-- $x$ -->
     <g style="fill: #262626" transform="translate(213.992875 313.402875) scale(0.096 -0.096)">
      <defs>
       <path id="DejaVuSans-Oblique-78" d="M 3841 3500 
L 2234 1784 
L 3219 0 
L 2559 0 
L 1819 1388 
L 531 0 
L -166 0 
L 1556 1844 
L 641 3500 
L 1300 3500 
L 1972 2234 
L 3144 3500 
L 3841 3500 
z
" transform="scale(0.015625)"/>
      </defs>
      <use xlink:href="#DejaVuSans-Oblique-78" transform="translate(0 0.3125)"/>
     </g>
    </g>
   </g>
   <g id="matplotlib.axis_2">
    <g id="ytick_1">
     <g id="line2d_7">
      <defs>
       <path id="mece417662c" d="M 0 0 
L -4.8 0 
" style="stroke: #262626"/>
      </defs>
      <g>
       <use xlink:href="#mece417662c" x="38.312875" y="247.363691" style="fill: #262626; stroke: #262626"/>
      </g>
     </g>
     <g id="text_8">
      <!-- −8 -->
      <g style="fill: #262626" transform="translate(19.9795 250.513129) scale(0.088 -0.088)">
       <defs>
        <path id="ArialMT-2212" d="M 3381 1997 
L 356 1997 
L 356 2522 
L 3381 2522 
L 3381 1997 
z
" transform="scale(0.015625)"/>
       </defs>
       <use xlink:href="#ArialMT-2212"/>
       <use xlink:href="#ArialMT-38" x="58.398438"/>
      </g>
     </g>
    </g>
    <g id="ytick_2">
     <g id="line2d_8">
      <g>
       <use xlink:href="#mece417662c" x="38.312875" y="201.690011" style="fill: #262626; stroke: #262626"/>
      </g>
     </g>
     <g id="text_9">
      <!-- −6 -->
      <g style="fill: #262626" transform="translate(19.9795 204.839448) scale(0.088 -0.088)">
       <use xlink:href="#ArialMT-2212"/>
       <use xlink:href="#ArialMT-36" x="58.398438"/>
      </g>
     </g>
    </g>
    <g id="ytick_3">
     <g id="line2d_9">
      <g>
       <use xlink:href="#mece417662c" x="38.312875" y="156.016331" style="fill: #262626; stroke: #262626"/>
      </g>
     </g>
     <g id="text_10">
      <!-- −4 -->
      <g style="fill: #262626" transform="translate(19.9795 159.165768) scale(0.088 -0.088)">
       <use xlink:href="#ArialMT-2212"/>
       <use xlink:href="#ArialMT-34" x="58.398438"/>
      </g>
     </g>
    </g>
    <g id="ytick_4">
     <g id="line2d_10">
      <g>
       <use xlink:href="#mece417662c" x="38.312875" y="110.34265" style="fill: #262626; stroke: #262626"/>
      </g>
     </g>
     <g id="text_11">
      <!-- −2 -->
      <g style="fill: #262626" transform="translate(19.9795 113.492088) scale(0.088 -0.088)">
       <use xlink:href="#ArialMT-2212"/>
       <use xlink:href="#ArialMT-32" x="58.398438"/>
      </g>
     </g>
    </g>
    <g id="ytick_5">
     <g id="line2d_11">
      <g>
       <use xlink:href="#mece417662c" x="38.312875" y="64.66897" style="fill: #262626; stroke: #262626"/>
      </g>
     </g>
     <g id="text_12">
      <!-- 0 -->
      <g style="fill: #262626" transform="translate(25.11925 67.818408) scale(0.088 -0.088)">
       <use xlink:href="#ArialMT-30"/>
      </g>
     </g>
    </g>
    <g id="text_13">
     <!-- $y$ -->
     <g style="fill: #262626" transform="translate(13.9635 156.0075) rotate(-90) scale(0.096 -0.096)">
      <defs>
       <path id="DejaVuSans-Oblique-79" d="M 1588 -325 
Q 1188 -997 936 -1164 
Q 684 -1331 294 -1331 
L -159 -1331 
L -63 -850 
L 269 -850 
Q 509 -850 678 -719 
Q 847 -588 1056 -206 
L 1234 128 
L 459 3500 
L 1069 3500 
L 1650 819 
L 3256 3500 
L 3859 3500 
L 1588 -325 
z
" transform="scale(0.015625)"/>
      </defs>
      <use xlink:href="#DejaVuSans-Oblique-79" transform="translate(0 0.3125)"/>
     </g>
    </g>
   </g>
   <g id="PolyCollection_1">
    <defs>
     <path id="m0a8d2aca7f" d="M 54.545602 -202.267201 
L 54.545602 -149.716096 
L 57.824941 -152.012311 
L 61.10428 -154.400891 
L 64.383619 -156.924174 
L 67.662958 -159.631847 
L 70.942296 -162.570551 
L 74.221636 -165.775307 
L 77.500973 -169.264114 
L 80.780313 -173.037789 
L 84.059653 -177.08131 
L 87.33899 -181.366914 
L 90.61833 -185.858411 
L 93.89767 -190.514208 
L 97.177007 -195.28999 
L 100.456344 -200.141226 
L 103.735686 -205.023262 
L 107.015024 -209.892334 
L 110.294361 -214.704408 
L 113.573703 -219.413664 
L 116.853041 -223.971331 
L 120.132378 -228.322956 
L 123.41172 -232.406201 
L 126.691057 -236.147271 
L 129.970395 -239.457716 
L 133.249737 -242.232116 
L 136.529069 -244.349944 
L 139.808412 -245.688056 
L 143.087754 -246.149245 
L 146.367086 -245.698313 
L 149.646428 -244.379025 
L 152.92577 -242.296251 
L 156.205103 -239.578453 
L 159.484445 -236.347351 
L 162.763787 -232.702876 
L 166.04312 -228.719686 
L 169.322462 -224.446623 
L 172.601804 -219.908857 
L 175.881137 -215.109521 
L 179.160479 -210.032492 
L 182.439821 -204.646318 
L 185.719153 -198.910511 
L 188.998496 -192.78345 
L 192.277838 -186.232181 
L 195.55717 -179.241309 
L 198.836512 -171.819444 
L 202.115855 -164.002101 
L 205.395187 -155.849907 
L 208.674529 -147.444359 
L 211.953871 -138.882417 
L 215.233204 -130.270907 
L 218.512556 -121.72177 
L 221.791879 -113.348521 
L 225.071221 -105.262622 
L 228.350563 -97.571695 
L 231.629886 -90.376956 
L 234.909247 -83.77137 
L 238.18857 -77.837816 
L 241.467912 -72.647161 
L 244.747254 -68.25625 
L 248.026597 -64.705896 
L 251.305939 -62.018749 
L 254.585262 -60.196726 
L 257.864623 -59.219005 
L 261.143946 -59.039961 
L 264.423288 -59.588855 
L 267.70263 -60.772408 
L 270.981953 -62.483185 
L 274.261315 -64.615949 
L 277.540637 -67.089881 
L 280.81998 -69.869501 
L 284.099322 -72.971798 
L 287.378664 -76.454202 
L 290.658006 -80.391131 
L 293.937329 -84.849698 
L 297.21669 -89.874648 
L 300.496013 -95.480462 
L 303.775355 -101.652082 
L 307.054697 -108.346232 
L 310.33402 -115.496455 
L 313.613382 -123.016842 
L 316.892705 -130.807332 
L 320.172047 -138.757624 
L 323.451389 -146.751812 
L 326.730731 -154.672104 
L 330.010073 -162.403355 
L 333.289396 -169.835636 
L 336.568738 -176.868083 
L 339.84808 -183.411175 
L 343.127423 -189.387487 
L 346.406765 -194.732924 
L 349.686088 -199.394144 
L 352.96543 -203.327877 
L 356.244772 -206.494351 
L 359.524114 -208.855261 
L 362.803456 -210.371536 
L 366.082798 -211.008661 
L 369.362141 -210.749688 
L 372.641463 -209.61094 
L 375.920806 -207.65135 
L 379.200148 -204.969109 
L 379.200148 -248.601713 
L 379.200148 -248.601713 
L 375.920806 -247.611214 
L 372.641463 -246.91234 
L 369.362141 -246.469779 
L 366.082798 -246.2127 
L 362.803456 -246.034475 
L 359.524114 -245.804106 
L 356.244772 -245.38759 
L 352.96543 -244.662327 
L 349.686088 -243.526619 
L 346.406765 -241.900226 
L 343.127423 -239.722232 
L 339.84808 -236.949056 
L 336.568738 -233.552428 
L 333.289396 -229.518021 
L 330.010073 -224.845365 
L 326.730731 -219.548337 
L 323.451389 -213.655185 
L 320.172047 -207.209342 
L 316.892705 -200.269895 
L 313.613382 -192.911695 
L 310.33402 -185.225396 
L 307.054697 -177.318291 
L 303.775355 -169.313116 
L 300.496013 -161.349092 
L 297.21669 -153.582266 
L 293.937329 -146.184199 
L 290.658006 -139.342323 
L 287.378664 -133.254639 
L 284.099322 -128.120827 
L 280.81998 -124.123636 
L 277.540637 -121.403842 
L 274.261315 -120.035212 
L 270.981953 -120.012159 
L 267.70263 -121.257738 
L 264.423288 -123.644913 
L 261.143946 -127.020568 
L 257.864623 -131.224126 
L 254.585262 -136.097984 
L 251.305939 -141.493273 
L 248.026597 -147.272306 
L 244.747254 -153.310051 
L 241.467912 -159.494782 
L 238.18857 -165.729038 
L 234.909247 -171.930337 
L 231.629886 -178.031828 
L 228.350563 -183.982648 
L 225.071221 -189.748119 
L 221.791879 -195.309374 
L 218.512556 -200.662733 
L 215.233204 -205.818312 
L 211.953871 -210.797722 
L 208.674529 -215.631316 
L 205.395187 -220.353637 
L 202.115855 -224.99834 
L 198.836512 -229.591566 
L 195.55717 -234.1455 
L 192.277838 -238.652773 
L 188.998496 -243.083907 
L 185.719153 -247.388484 
L 182.439821 -251.50084 
L 179.160479 -255.348121 
L 175.881137 -258.858904 
L 172.601804 -261.971008 
L 169.322462 -264.637142 
L 166.04312 -266.829132 
L 162.763787 -268.540561 
L 159.484445 -269.789185 
L 156.205103 -270.619489 
L 152.92577 -271.103049 
L 149.646428 -271.336418 
L 146.367086 -271.426575 
L 143.087754 -271.462271 
L 139.808412 -271.477558 
L 136.529069 -271.43492 
L 133.249737 -271.243541 
L 129.970395 -270.796176 
L 126.691057 -269.998412 
L 123.41172 -268.781742 
L 120.132378 -267.105719 
L 116.853041 -264.955686 
L 113.573703 -262.339131 
L 110.294361 -259.281907 
L 107.015024 -255.825096 
L 103.735686 -252.020828 
L 100.456344 -247.930564 
L 97.177007 -243.621291 
L 93.89767 -239.163135 
L 90.61833 -234.628401 
L 87.33899 -230.089663 
L 84.059653 -225.620408 
L 80.780313 -221.29546 
L 77.500973 -217.192543 
L 74.221636 -213.394475 
L 70.942296 -209.990813 
L 67.662958 -207.077307 
L 64.383619 -204.754919 
L 61.10428 -203.123368 
L 57.824941 -202.271606 
L 54.545602 -202.267201 
z
" style="stroke: #1f77b4; stroke-opacity: 0.5; stroke-width: 0.8"/>
    </defs>
    <g clip-path="url(#pffdde8e333)">
     <use xlink:href="#m0a8d2aca7f" x="0" y="322.510875" style="fill: #1f77b4; fill-opacity: 0.5; stroke: #1f77b4; stroke-opacity: 0.5; stroke-width: 0.8"/>
    </g>
   </g>
   <g id="PolyCollection_2">
    <defs>
     <path id="m6cf93b67f9" d="M 54.545602 -149.716096 
L 54.545602 -136.942461 
L 57.824941 -138.854453 
L 61.10428 -140.974521 
L 64.383619 -143.337827 
L 67.662958 -145.975416 
L 70.942296 -148.909514 
L 74.221636 -152.150542 
L 77.500973 -155.69544 
L 80.780313 -159.528408 
L 84.059653 -163.622288 
L 87.33899 -167.940588 
L 90.61833 -172.440469 
L 93.89767 -177.074749 
L 97.177007 -181.793824 
L 100.456344 -186.547376 
L 103.735686 -191.284604 
L 107.015024 -195.954938 
L 110.294361 -200.507237 
L 113.573703 -204.889137 
L 116.853041 -209.046512 
L 120.132378 -212.922676 
L 123.41172 -216.45852 
L 126.691057 -219.592864 
L 129.970395 -222.264219 
L 133.249737 -224.413693 
L 136.529069 -225.988937 
L 139.808412 -226.948829 
L 143.087754 -227.26814 
L 146.367086 -226.940934 
L 149.646428 -225.981252 
L 152.92577 -224.4213 
L 156.205103 -222.306892 
L 159.484445 -219.691283 
L 162.763787 -216.628793 
L 166.04312 -213.169257 
L 169.322462 -209.353061 
L 172.601804 -205.208426 
L 175.881137 -200.74975 
L 179.160479 -195.977768 
L 182.439821 -190.881237 
L 185.719153 -185.440583 
L 188.998496 -179.63266 
L 192.277838 -173.43717 
L 195.55717 -166.84304 
L 198.836512 -159.85409 
L 202.115855 -152.493451 
L 205.395187 -144.804919 
L 208.674529 -136.852275 
L 211.953871 -128.71647 
L 215.233204 -120.491622 
L 218.512556 -112.28057 
L 221.791879 -104.190839 
L 225.071221 -96.330341 
L 228.350563 -88.804606 
L 231.629886 -81.713655 
L 234.909247 -75.149482 
L 238.18857 -69.193963 
L 241.467912 -63.916759 
L 244.747254 -59.373309 
L 248.026597 -55.603228 
L 251.305939 -52.628795 
L 254.585262 -50.453692 
L 257.864623 -49.062934 
L 261.143946 -48.423375 
L 264.423288 -48.486512 
L 267.70263 -49.19339 
L 270.981953 -50.482135 
L 274.261315 -52.297364 
L 277.540637 -54.59922 
L 280.81998 -57.36941 
L 284.099322 -60.611527 
L 287.378664 -64.345085 
L 290.658006 -68.59635 
L 293.937329 -73.38723 
L 297.21669 -78.727299 
L 300.496013 -84.607201 
L 303.775355 -90.99734 
L 307.054697 -97.84649 
L 310.33402 -105.084384 
L 313.613382 -112.623817 
L 316.892705 -120.364553 
L 320.172047 -128.196836 
L 323.451389 -136.005652 
L 326.730731 -143.674452 
L 330.010073 -151.089844 
L 333.289396 -158.144544 
L 336.568738 -164.741593 
L 339.84808 -170.797251 
L 343.127423 -176.242577 
L 346.406765 -181.025519 
L 349.686088 -185.109963 
L 352.96543 -188.476541 
L 356.244772 -191.118496 
L 359.524114 -193.040637 
L 362.803456 -194.256053 
L 366.082798 -194.783691 
L 369.362141 -194.647768 
L 372.641463 -193.877307 
L 375.920806 -192.508187 
L 379.200148 -190.586171 
L 379.200148 -204.969109 
L 379.200148 -204.969109 
L 375.920806 -207.65135 
L 372.641463 -209.61094 
L 369.362141 -210.749688 
L 366.082798 -211.008661 
L 362.803456 -210.371536 
L 359.524114 -208.855261 
L 356.244772 -206.494351 
L 352.96543 -203.327877 
L 349.686088 -199.394144 
L 346.406765 -194.732924 
L 343.127423 -189.387487 
L 339.84808 -183.411175 
L 336.568738 -176.868083 
L 333.289396 -169.835636 
L 330.010073 -162.403355 
L 326.730731 -154.672104 
L 323.451389 -146.751812 
L 320.172047 -138.757624 
L 316.892705 -130.807332 
L 313.613382 -123.016842 
L 310.33402 -115.496455 
L 307.054697 -108.346232 
L 303.775355 -101.652082 
L 300.496013 -95.480462 
L 297.21669 -89.874648 
L 293.937329 -84.849698 
L 290.658006 -80.391131 
L 287.378664 -76.454202 
L 284.099322 -72.971798 
L 280.81998 -69.869501 
L 277.540637 -67.089881 
L 274.261315 -64.615949 
L 270.981953 -62.483185 
L 267.70263 -60.772408 
L 264.423288 -59.588855 
L 261.143946 -59.039961 
L 257.864623 -59.219005 
L 254.585262 -60.196726 
L 251.305939 -62.018749 
L 248.026597 -64.705896 
L 244.747254 -68.25625 
L 241.467912 -72.647161 
L 238.18857 -77.837816 
L 234.909247 -83.77137 
L 231.629886 -90.376956 
L 228.350563 -97.571695 
L 225.071221 -105.262622 
L 221.791879 -113.348521 
L 218.512556 -121.72177 
L 215.233204 -130.270907 
L 211.953871 -138.882417 
L 208.674529 -147.444359 
L 205.395187 -155.849907 
L 202.115855 -164.002101 
L 198.836512 -171.819444 
L 195.55717 -179.241309 
L 192.277838 -186.232181 
L 188.998496 -192.78345 
L 185.719153 -198.910511 
L 182.439821 -204.646318 
L 179.160479 -210.032492 
L 175.881137 -215.109521 
L 172.601804 -219.908857 
L 169.322462 -224.446623 
L 166.04312 -228.719686 
L 162.763787 -232.702876 
L 159.484445 -236.347351 
L 156.205103 -239.578453 
L 152.92577 -242.296251 
L 149.646428 -244.379025 
L 146.367086 -245.698313 
L 143.087754 -246.149245 
L 139.808412 -245.688056 
L 136.529069 -244.349944 
L 133.249737 -242.232116 
L 129.970395 -239.457716 
L 126.691057 -236.147271 
L 123.41172 -232.406201 
L 120.132378 -228.322956 
L 116.853041 -223.971331 
L 113.573703 -219.413664 
L 110.294361 -214.704408 
L 107.015024 -209.892334 
L 103.735686 -205.023262 
L 100.456344 -200.141226 
L 97.177007 -195.28999 
L 93.89767 -190.514208 
L 90.61833 -185.858411 
L 87.33899 -181.366914 
L 84.059653 -177.08131 
L 80.780313 -173.037789 
L 77.500973 -169.264114 
L 74.221636 -165.775307 
L 70.942296 -162.570551 
L 67.662958 -159.631847 
L 64.383619 -156.924174 
L 61.10428 -154.400891 
L 57.824941 -152.012311 
L 54.545602 -149.716096 
z
" style="stroke: #ff7f0e; stroke-opacity: 0.5; stroke-width: 0.8"/>
    </defs>
    <g clip-path="url(#pffdde8e333)">
     <use xlink:href="#m6cf93b67f9" x="0" y="322.510875" style="fill: #ff7f0e; fill-opacity: 0.5; stroke: #ff7f0e; stroke-opacity: 0.5; stroke-width: 0.8"/>
    </g>
   </g>
   <g id="PolyCollection_3">
    <defs>
     <path id="mc166645d14" d="M 54.545602 -215.040833 
L 54.545602 -202.267201 
L 57.824941 -202.271606 
L 61.10428 -203.123368 
L 64.383619 -204.754919 
L 67.662958 -207.077307 
L 70.942296 -209.990813 
L 74.221636 -213.394475 
L 77.500973 -217.192543 
L 80.780313 -221.29546 
L 84.059653 -225.620408 
L 87.33899 -230.089663 
L 90.61833 -234.628401 
L 93.89767 -239.163135 
L 97.177007 -243.621291 
L 100.456344 -247.930564 
L 103.735686 -252.020828 
L 107.015024 -255.825096 
L 110.294361 -259.281907 
L 113.573703 -262.339131 
L 116.853041 -264.955686 
L 120.132378 -267.105719 
L 123.41172 -268.781742 
L 126.691057 -269.998412 
L 129.970395 -270.796176 
L 133.249737 -271.243541 
L 136.529069 -271.43492 
L 139.808412 -271.477558 
L 143.087754 -271.462271 
L 146.367086 -271.426575 
L 149.646428 -271.336418 
L 152.92577 -271.103049 
L 156.205103 -270.619489 
L 159.484445 -269.789185 
L 162.763787 -268.540561 
L 166.04312 -266.829132 
L 169.322462 -264.637142 
L 172.601804 -261.971008 
L 175.881137 -258.858904 
L 179.160479 -255.348121 
L 182.439821 -251.50084 
L 185.719153 -247.388484 
L 188.998496 -243.083907 
L 192.277838 -238.652773 
L 195.55717 -234.1455 
L 198.836512 -229.591566 
L 202.115855 -224.99834 
L 205.395187 -220.353637 
L 208.674529 -215.631316 
L 211.953871 -210.797722 
L 215.233204 -205.818312 
L 218.512556 -200.662733 
L 221.791879 -195.309374 
L 225.071221 -189.748119 
L 228.350563 -183.982648 
L 231.629886 -178.031828 
L 234.909247 -171.930337 
L 238.18857 -165.729038 
L 241.467912 -159.494782 
L 244.747254 -153.310051 
L 248.026597 -147.272306 
L 251.305939 -141.493273 
L 254.585262 -136.097984 
L 257.864623 -131.224126 
L 261.143946 -127.020568 
L 264.423288 -123.644913 
L 267.70263 -121.257738 
L 270.981953 -120.012159 
L 274.261315 -120.035212 
L 277.540637 -121.403842 
L 280.81998 -124.123636 
L 284.099322 -128.120827 
L 287.378664 -133.254639 
L 290.658006 -139.342323 
L 293.937329 -146.184199 
L 297.21669 -153.582266 
L 300.496013 -161.349092 
L 303.775355 -169.313116 
L 307.054697 -177.318291 
L 310.33402 -185.225396 
L 313.613382 -192.911695 
L 316.892705 -200.269895 
L 320.172047 -207.209342 
L 323.451389 -213.655185 
L 326.730731 -219.548337 
L 330.010073 -224.845365 
L 333.289396 -229.518021 
L 336.568738 -233.552428 
L 339.84808 -236.949056 
L 343.127423 -239.722232 
L 346.406765 -241.900226 
L 349.686088 -243.526619 
L 352.96543 -244.662327 
L 356.244772 -245.38759 
L 359.524114 -245.804106 
L 362.803456 -246.034475 
L 366.082798 -246.2127 
L 369.362141 -246.469779 
L 372.641463 -246.91234 
L 375.920806 -247.611214 
L 379.200148 -248.601713 
L 379.200148 -262.984651 
L 379.200148 -262.984651 
L 375.920806 -262.754374 
L 372.641463 -262.645975 
L 369.362141 -262.571698 
L 366.082798 -262.437668 
L 362.803456 -262.149955 
L 359.524114 -261.618724 
L 356.244772 -260.76345 
L 352.96543 -259.513665 
L 349.686088 -257.810799 
L 346.406765 -255.607626 
L 343.127423 -252.867137 
L 339.84808 -249.562982 
L 336.568738 -245.678918 
L 333.289396 -241.209113 
L 330.010073 -236.158876 
L 326.730731 -230.545983 
L 323.451389 -224.401339 
L 320.172047 -217.770125 
L 316.892705 -210.712675 
L 313.613382 -203.304721 
L 310.33402 -195.637467 
L 307.054697 -187.818039 
L 303.775355 -179.967859 
L 300.496013 -172.222348 
L 297.21669 -164.729614 
L 293.937329 -157.646678 
L 290.658006 -151.137115 
L 287.378664 -145.363755 
L 284.099322 -140.481098 
L 280.81998 -136.623727 
L 277.540637 -133.894503 
L 274.261315 -132.353787 
L 270.981953 -132.013219 
L 267.70263 -132.836756 
L 264.423288 -134.747245 
L 261.143946 -137.637165 
L 257.864623 -141.380197 
L 254.585262 -145.841007 
L 251.305939 -150.883238 
L 248.026597 -156.374975 
L 244.747254 -162.192992 
L 241.467912 -168.225178 
L 238.18857 -174.372879 
L 234.909247 -180.552231 
L 231.629886 -186.695135 
L 228.350563 -192.749731 
L 225.071221 -198.680405 
L 221.791879 -204.46705 
L 218.512556 -210.103933 
L 215.233204 -215.597597 
L 211.953871 -220.963669 
L 208.674529 -226.223401 
L 205.395187 -231.398616 
L 202.115855 -236.506998 
L 198.836512 -241.556925 
L 195.55717 -246.54377 
L 192.277838 -251.447778 
L 188.998496 -256.234698 
L 185.719153 -260.858417 
L 182.439821 -265.265924 
L 179.160479 -269.402846 
L 175.881137 -273.218674 
L 172.601804 -276.671434 
L 169.322462 -279.730706 
L 166.04312 -282.379561 
L 162.763787 -284.614643 
L 159.484445 -286.445253 
L 156.205103 -287.891051 
L 152.92577 -288.978001 
L 149.646428 -289.734192 
L 146.367086 -290.183953 
L 143.087754 -290.343375 
L 139.808412 -290.216785 
L 136.529069 -289.795927 
L 133.249737 -289.061964 
L 129.970395 -287.989674 
L 126.691057 -286.552819 
L 123.41172 -284.729423 
L 120.132378 -282.505998 
L 116.853041 -279.880502 
L 113.573703 -276.863658 
L 110.294361 -273.479079 
L 107.015024 -269.762492 
L 103.735686 -265.759483 
L 100.456344 -261.524416 
L 97.177007 -257.11746 
L 93.89767 -252.602591 
L 90.61833 -248.046343 
L 87.33899 -243.515992 
L 84.059653 -239.07943 
L 80.780313 -234.804835 
L 77.500973 -230.761216 
L 74.221636 -227.019237 
L 70.942296 -223.651848 
L 67.662958 -220.733744 
L 64.383619 -218.341268 
L 61.10428 -216.549743 
L 57.824941 -215.429466 
L 54.545602 -215.040833 
z
" style="stroke: #ff7f0e; stroke-opacity: 0.5; stroke-width: 0.8"/>
    </defs>
    <g clip-path="url(#pffdde8e333)">
     <use xlink:href="#mc166645d14" x="0" y="322.510875" style="fill: #ff7f0e; fill-opacity: 0.5; stroke: #ff7f0e; stroke-opacity: 0.5; stroke-width: 0.8"/>
    </g>
   </g>
   <g id="line2d_12">
    <defs>
     <path id="m641414ddb2" d="M -5 5 
L 5 -5 
M -5 -5 
L 5 5 
" style="stroke: #000000; stroke-width: 2"/>
    </defs>
    <g clip-path="url(#pffdde8e333)">
     <use xlink:href="#m641414ddb2" x="95.766934" y="105.724515" style="stroke: #000000; stroke-width: 2"/>
     <use xlink:href="#m641414ddb2" x="368.394943" y="80.790019" style="stroke: #000000; stroke-width: 2"/>
     <use xlink:href="#m641414ddb2" x="139.110317" y="53.629633" style="stroke: #000000; stroke-width: 2"/>
     <use xlink:href="#m641414ddb2" x="345.837519" y="99.533958" style="stroke: #000000; stroke-width: 2"/>
     <use xlink:href="#m641414ddb2" x="192.277838" y="111.971092" style="stroke: #000000; stroke-width: 2"/>
     <use xlink:href="#m641414ddb2" x="277.540637" y="246.450022" style="stroke: #000000; stroke-width: 2"/>
     <use xlink:href="#m641414ddb2" x="149.646428" y="67.055329" style="stroke: #000000; stroke-width: 2"/>
     <use xlink:href="#m641414ddb2" x="379.200148" y="113.692872" style="stroke: #000000; stroke-width: 2"/>
     <use xlink:href="#m641414ddb2" x="146.367086" y="65.924442" style="stroke: #000000; stroke-width: 2"/>
     <use xlink:href="#m641414ddb2" x="54.545602" y="155.34995" style="stroke: #000000; stroke-width: 2"/>
     <use xlink:href="#m641414ddb2" x="139.808412" y="64.742877" style="stroke: #000000; stroke-width: 2"/>
     <use xlink:href="#m641414ddb2" x="143.087754" y="65.153453" style="stroke: #000000; stroke-width: 2"/>
    </g>
   </g>
   <g id="line2d_13">
    <path d="M 54.545602 146.519229 
L 57.824941 145.368917 
L 61.10428 143.748745 
L 64.383619 141.671326 
L 67.662958 139.156298 
L 70.942296 136.230193 
L 74.221636 132.925984 
L 77.500973 129.282547 
L 80.780313 125.344251 
L 84.059653 121.160016 
L 87.33899 116.782586 
L 90.61833 112.26747 
L 93.89767 107.672205 
L 97.177007 103.055234 
L 100.456344 98.47498 
L 103.735686 93.98883 
L 107.015024 89.65216 
L 110.294361 85.517717 
L 113.573703 81.634478 
L 116.853041 78.047367 
L 120.132378 74.796538 
L 123.41172 71.916904 
L 126.691057 69.438034 
L 129.970395 67.383929 
L 133.249737 65.773046 
L 136.529069 64.618443 
L 139.808412 63.928068 
L 143.087754 63.705117 
L 146.367086 63.948431 
L 149.646428 64.653153 
L 152.92577 65.811225 
L 156.205103 67.411904 
L 159.484445 69.442607 
L 162.763787 71.889157 
L 166.04312 74.736466 
L 169.322462 77.968992 
L 172.601804 81.570943 
L 175.881137 85.526663 
L 179.160479 89.820568 
L 182.439821 94.437296 
L 185.719153 99.361376 
L 188.998496 104.577196 
L 192.277838 110.068399 
L 195.55717 115.81747 
L 198.836512 121.805369 
L 202.115855 128.010653 
L 205.395187 134.409106 
L 208.674529 140.973035 
L 211.953871 147.670806 
L 215.233204 154.466266 
L 218.512556 161.318623 
L 221.791879 168.181931 
L 225.071221 175.005502 
L 228.350563 181.733703 
L 231.629886 188.30648 
L 234.909247 194.660019 
L 238.18857 200.727448 
L 241.467912 206.439904 
L 244.747254 211.727724 
L 248.026597 216.521774 
L 251.305939 220.754864 
L 254.585262 224.36352 
L 257.864623 227.289309 
L 261.143946 229.480605 
L 264.423288 230.893991 
L 267.70263 231.495797 
L 270.981953 231.263198 
L 274.261315 230.185294 
L 277.540637 228.264014 
L 280.81998 225.514307 
L 284.099322 221.964562 
L 287.378664 217.656455 
L 290.658006 212.644148 
L 293.937329 206.993926 
L 297.21669 200.782418 
L 300.496013 194.096098 
L 303.775355 187.028276 
L 307.054697 179.678613 
L 310.33402 172.14995 
L 313.613382 164.546606 
L 316.892705 156.972261 
L 320.172047 149.527392 
L 323.451389 142.307379 
L 326.730731 135.400656 
L 330.010073 128.886514 
L 333.289396 122.834046 
L 336.568738 117.300619 
L 339.84808 112.33076 
L 343.127423 107.956017 
L 346.406765 104.194301 
L 349.686088 101.050494 
L 352.96543 98.515772 
L 356.244772 96.569903 
L 359.524114 95.181193 
L 362.803456 94.307869 
L 366.082798 93.900196 
L 369.362141 93.901143 
L 372.641463 94.249235 
L 375.920806 94.879593 
L 379.200148 95.725464 
" clip-path="url(#pffdde8e333)" style="fill: none; stroke: #1f77b4; stroke-width: 2; stroke-linecap: round"/>
   </g>
   <g id="line2d_14">
    <path d="M 54.545602 155.34995 
L 57.824941 149.776967 
L 61.10428 144.224664 
L 64.383619 138.713631 
L 67.662958 133.264385 
L 70.942296 127.897212 
L 74.221636 122.632205 
L 77.500973 117.489099 
L 80.780313 112.487241 
L 84.059653 107.64555 
L 87.33899 102.982398 
L 90.61833 98.515582 
L 93.89767 94.262254 
L 97.177007 90.238862 
L 100.456344 86.461076 
L 103.735686 82.943782 
L 107.015024 79.700979 
L 110.294361 76.745756 
L 113.573703 74.090226 
L 116.853041 71.74552 
L 120.132378 69.721726 
L 123.41172 68.027838 
L 126.691057 66.671753 
L 129.970395 65.660226 
L 133.249737 64.998839 
L 136.529069 64.69199 
L 139.808412 64.742877 
L 143.087754 65.153453 
L 146.367086 65.924442 
L 149.646428 67.055329 
L 152.92577 68.544325 
L 156.205103 70.388373 
L 159.484445 72.58318 
L 162.763787 75.123145 
L 166.04312 78.001435 
L 169.322462 81.209936 
L 172.601804 84.739279 
L 175.881137 88.578841 
L 179.160479 92.716735 
L 182.439821 97.139884 
L 185.719153 101.833903 
L 188.998496 106.783247 
L 192.277838 111.971092 
L 195.55717 117.37947 
L 198.836512 122.98915 
L 202.115855 128.779688 
L 205.395187 134.729452 
L 208.674529 140.815622 
L 211.953871 147.014117 
L 215.233204 153.299689 
L 218.512556 159.645862 
L 221.791879 166.024871 
L 225.071221 172.407801 
L 228.350563 178.764454 
L 231.629886 185.063219 
L 234.909247 191.271482 
L 238.18857 197.354985 
L 241.467912 203.278434 
L 244.747254 209.005045 
L 248.026597 214.496749 
L 251.305939 219.714202 
L 254.585262 224.616645 
L 257.864623 229.162154 
L 261.143946 233.307508 
L 264.423288 237.008408 
L 267.70263 240.219512 
L 270.981953 242.894714 
L 274.261315 244.987231 
L 277.540637 246.450022 
L 280.81998 247.236121 
L 284.099322 247.299138 
L 287.378664 246.593872 
L 290.658006 245.077124 
L 293.937329 242.708591 
L 297.21669 239.451915 
L 300.496013 235.276463 
L 303.775355 230.15831 
L 307.054697 224.082757 
L 310.33402 217.046449 
L 313.613382 209.059688 
L 316.892705 200.149926 
L 320.172047 190.364696 
L 323.451389 179.775486 
L 326.730731 168.481793 
L 330.010073 156.615185 
L 333.289396 144.343593 
L 336.568738 131.875435 
L 339.84808 119.462895 
L 343.127423 107.404659 
L 346.406765 96.046948 
L 349.686088 85.781694 
L 352.96543 77.04172 
L 356.244772 70.291947 
L 359.524114 66.013491 
L 362.803456 64.681629 
L 366.082798 66.734547 
L 369.362141 72.532452 
L 372.641463 82.306619 
L 375.920806 96.098657 
L 379.200148 113.692872 
" clip-path="url(#pffdde8e333)" style="fill: none; stroke-dasharray: 7.68,1.92,1.2,1.92; stroke-dashoffset: 0; stroke: #bf00bf; stroke-width: 1.2"/>
   </g>
   <g id="patch_3">
    <path d="M 38.312875 247.363691 
L 38.312875 64.66897 
" style="fill: none; stroke: #262626; stroke-linejoin: miter; stroke-linecap: square"/>
   </g>
   <g id="patch_4">
    <path d="M 54.545602 286.1835 
L 379.200148 286.1835 
" style="fill: none; stroke: #262626; stroke-linejoin: miter; stroke-linecap: square"/>
   </g>
   <g id="text_14">
    <!-- N=7,  -->
    <g style="fill: #262626" transform="translate(205.266625 14.0715) scale(0.096 -0.096)">
     <defs>
      <path id="ArialMT-4e" d="M 488 0 
L 488 4581 
L 1109 4581 
L 3516 984 
L 3516 4581 
L 4097 4581 
L 4097 0 
L 3475 0 
L 1069 3600 
L 1069 0 
L 488 0 
z
" transform="scale(0.015625)"/>
      <path id="ArialMT-3d" d="M 3381 2694 
L 356 2694 
L 356 3219 
L 3381 3219 
L 3381 2694 
z
M 3381 1303 
L 356 1303 
L 356 1828 
L 3381 1828 
L 3381 1303 
z
" transform="scale(0.015625)"/>
      <path id="ArialMT-37" d="M 303 3981 
L 303 4522 
L 3269 4522 
L 3269 4084 
Q 2831 3619 2401 2847 
Q 1972 2075 1738 1259 
Q 1569 684 1522 0 
L 944 0 
Q 953 541 1156 1306 
Q 1359 2072 1739 2783 
Q 2119 3494 2547 3981 
L 303 3981 
z
" transform="scale(0.015625)"/>
      <path id="ArialMT-2c" d="M 569 0 
L 569 641 
L 1209 641 
L 1209 0 
Q 1209 -353 1084 -570 
Q 959 -788 688 -906 
L 531 -666 
Q 709 -588 793 -436 
Q 878 -284 888 0 
L 569 0 
z
" transform="scale(0.015625)"/>
      <path id="ArialMT-20" transform="scale(0.015625)"/>
     </defs>
     <use xlink:href="#ArialMT-4e"/>
     <use xlink:href="#ArialMT-3d" x="72.216797"/>
     <use xlink:href="#ArialMT-37" x="130.615234"/>
     <use xlink:href="#ArialMT-2c" x="186.230469"/>
     <use xlink:href="#ArialMT-20" x="214.013672"/>
    </g>
   </g>
   <g id="legend_1">
    <g id="line2d_15">
     <g>
      <use xlink:href="#m641414ddb2" x="55.032875" y="219.978625" style="stroke: #000000; stroke-width: 2"/>
     </g>
    </g>
    <g id="text_15">
     <!-- Observations -->
     <g style="fill: #262626" transform="translate(70.872875 223.058625) scale(0.088 -0.088)">
      <defs>
       <path id="ArialMT-4f" d="M 309 2231 
Q 309 3372 921 4017 
Q 1534 4663 2503 4663 
Q 3138 4663 3647 4359 
Q 4156 4056 4423 3514 
Q 4691 2972 4691 2284 
Q 4691 1588 4409 1038 
Q 4128 488 3612 205 
Q 3097 -78 2500 -78 
Q 1853 -78 1343 234 
Q 834 547 571 1087 
Q 309 1628 309 2231 
z
M 934 2222 
Q 934 1394 1379 917 
Q 1825 441 2497 441 
Q 3181 441 3623 922 
Q 4066 1403 4066 2288 
Q 4066 2847 3877 3264 
Q 3688 3681 3323 3911 
Q 2959 4141 2506 4141 
Q 1863 4141 1398 3698 
Q 934 3256 934 2222 
z
" transform="scale(0.015625)"/>
       <path id="ArialMT-62" d="M 941 0 
L 419 0 
L 419 4581 
L 981 4581 
L 981 2947 
Q 1338 3394 1891 3394 
Q 2197 3394 2470 3270 
Q 2744 3147 2920 2923 
Q 3097 2700 3197 2384 
Q 3297 2069 3297 1709 
Q 3297 856 2875 390 
Q 2453 -75 1863 -75 
Q 1275 -75 941 416 
L 941 0 
z
M 934 1684 
Q 934 1088 1097 822 
Q 1363 388 1816 388 
Q 2184 388 2453 708 
Q 2722 1028 2722 1663 
Q 2722 2313 2464 2622 
Q 2206 2931 1841 2931 
Q 1472 2931 1203 2611 
Q 934 2291 934 1684 
z
" transform="scale(0.015625)"/>
       <path id="ArialMT-73" d="M 197 991 
L 753 1078 
Q 800 744 1014 566 
Q 1228 388 1613 388 
Q 2000 388 2187 545 
Q 2375 703 2375 916 
Q 2375 1106 2209 1216 
Q 2094 1291 1634 1406 
Q 1016 1563 777 1677 
Q 538 1791 414 1992 
Q 291 2194 291 2438 
Q 291 2659 392 2848 
Q 494 3038 669 3163 
Q 800 3259 1026 3326 
Q 1253 3394 1513 3394 
Q 1903 3394 2198 3281 
Q 2494 3169 2634 2976 
Q 2775 2784 2828 2463 
L 2278 2388 
Q 2241 2644 2061 2787 
Q 1881 2931 1553 2931 
Q 1166 2931 1000 2803 
Q 834 2675 834 2503 
Q 834 2394 903 2306 
Q 972 2216 1119 2156 
Q 1203 2125 1616 2013 
Q 2213 1853 2448 1751 
Q 2684 1650 2818 1456 
Q 2953 1263 2953 975 
Q 2953 694 2789 445 
Q 2625 197 2315 61 
Q 2006 -75 1616 -75 
Q 969 -75 630 194 
Q 291 463 197 991 
z
" transform="scale(0.015625)"/>
       <path id="ArialMT-65" d="M 2694 1069 
L 3275 997 
Q 3138 488 2766 206 
Q 2394 -75 1816 -75 
Q 1088 -75 661 373 
Q 234 822 234 1631 
Q 234 2469 665 2931 
Q 1097 3394 1784 3394 
Q 2450 3394 2872 2941 
Q 3294 2488 3294 1666 
Q 3294 1616 3291 1516 
L 816 1516 
Q 847 969 1125 678 
Q 1403 388 1819 388 
Q 2128 388 2347 550 
Q 2566 713 2694 1069 
z
M 847 1978 
L 2700 1978 
Q 2663 2397 2488 2606 
Q 2219 2931 1791 2931 
Q 1403 2931 1139 2672 
Q 875 2413 847 1978 
z
" transform="scale(0.015625)"/>
       <path id="ArialMT-72" d="M 416 0 
L 416 3319 
L 922 3319 
L 922 2816 
Q 1116 3169 1280 3281 
Q 1444 3394 1641 3394 
Q 1925 3394 2219 3213 
L 2025 2691 
Q 1819 2813 1613 2813 
Q 1428 2813 1281 2702 
Q 1134 2591 1072 2394 
Q 978 2094 978 1738 
L 978 0 
L 416 0 
z
" transform="scale(0.015625)"/>
       <path id="ArialMT-76" d="M 1344 0 
L 81 3319 
L 675 3319 
L 1388 1331 
Q 1503 1009 1600 663 
Q 1675 925 1809 1294 
L 2547 3319 
L 3125 3319 
L 1869 0 
L 1344 0 
z
" transform="scale(0.015625)"/>
       <path id="ArialMT-61" d="M 2588 409 
Q 2275 144 1986 34 
Q 1697 -75 1366 -75 
Q 819 -75 525 192 
Q 231 459 231 875 
Q 231 1119 342 1320 
Q 453 1522 633 1644 
Q 813 1766 1038 1828 
Q 1203 1872 1538 1913 
Q 2219 1994 2541 2106 
Q 2544 2222 2544 2253 
Q 2544 2597 2384 2738 
Q 2169 2928 1744 2928 
Q 1347 2928 1158 2789 
Q 969 2650 878 2297 
L 328 2372 
Q 403 2725 575 2942 
Q 747 3159 1072 3276 
Q 1397 3394 1825 3394 
Q 2250 3394 2515 3294 
Q 2781 3194 2906 3042 
Q 3031 2891 3081 2659 
Q 3109 2516 3109 2141 
L 3109 1391 
Q 3109 606 3145 398 
Q 3181 191 3288 0 
L 2700 0 
Q 2613 175 2588 409 
z
M 2541 1666 
Q 2234 1541 1622 1453 
Q 1275 1403 1131 1340 
Q 988 1278 909 1158 
Q 831 1038 831 891 
Q 831 666 1001 516 
Q 1172 366 1500 366 
Q 1825 366 2078 508 
Q 2331 650 2450 897 
Q 2541 1088 2541 1459 
L 2541 1666 
z
" transform="scale(0.015625)"/>
       <path id="ArialMT-74" d="M 1650 503 
L 1731 6 
Q 1494 -44 1306 -44 
Q 1000 -44 831 53 
Q 663 150 594 308 
Q 525 466 525 972 
L 525 2881 
L 113 2881 
L 113 3319 
L 525 3319 
L 525 4141 
L 1084 4478 
L 1084 3319 
L 1650 3319 
L 1650 2881 
L 1084 2881 
L 1084 941 
Q 1084 700 1114 631 
Q 1144 563 1211 522 
Q 1278 481 1403 481 
Q 1497 481 1650 503 
z
" transform="scale(0.015625)"/>
       <path id="ArialMT-69" d="M 425 3934 
L 425 4581 
L 988 4581 
L 988 3934 
L 425 3934 
z
M 425 0 
L 425 3319 
L 988 3319 
L 988 0 
L 425 0 
z
" transform="scale(0.015625)"/>
       <path id="ArialMT-6f" d="M 213 1659 
Q 213 2581 725 3025 
Q 1153 3394 1769 3394 
Q 2453 3394 2887 2945 
Q 3322 2497 3322 1706 
Q 3322 1066 3130 698 
Q 2938 331 2570 128 
Q 2203 -75 1769 -75 
Q 1072 -75 642 372 
Q 213 819 213 1659 
z
M 791 1659 
Q 791 1022 1069 705 
Q 1347 388 1769 388 
Q 2188 388 2466 706 
Q 2744 1025 2744 1678 
Q 2744 2294 2464 2611 
Q 2184 2928 1769 2928 
Q 1347 2928 1069 2612 
Q 791 2297 791 1659 
z
" transform="scale(0.015625)"/>
       <path id="ArialMT-6e" d="M 422 0 
L 422 3319 
L 928 3319 
L 928 2847 
Q 1294 3394 1984 3394 
Q 2284 3394 2536 3286 
Q 2788 3178 2913 3003 
Q 3038 2828 3088 2588 
Q 3119 2431 3119 2041 
L 3119 0 
L 2556 0 
L 2556 2019 
Q 2556 2363 2490 2533 
Q 2425 2703 2258 2804 
Q 2091 2906 1866 2906 
Q 1506 2906 1245 2678 
Q 984 2450 984 1813 
L 984 0 
L 422 0 
z
" transform="scale(0.015625)"/>
      </defs>
      <use xlink:href="#ArialMT-4f"/>
      <use xlink:href="#ArialMT-62" x="77.783203"/>
      <use xlink:href="#ArialMT-73" x="133.398438"/>
      <use xlink:href="#ArialMT-65" x="183.398438"/>
      <use xlink:href="#ArialMT-72" x="239.013672"/>
      <use xlink:href="#ArialMT-76" x="272.314453"/>
      <use xlink:href="#ArialMT-61" x="322.314453"/>
      <use xlink:href="#ArialMT-74" x="377.929688"/>
      <use xlink:href="#ArialMT-69" x="405.712891"/>
      <use xlink:href="#ArialMT-6f" x="427.929688"/>
      <use xlink:href="#ArialMT-6e" x="483.544922"/>
      <use xlink:href="#ArialMT-73" x="539.160156"/>
     </g>
    </g>
    <g id="line2d_16">
     <path d="M 46.232875 232.562625 
L 55.032875 232.562625 
L 63.832875 232.562625 
" style="fill: none; stroke: #1f77b4; stroke-width: 2; stroke-linecap: round"/>
    </g>
    <g id="text_16">
     <!-- $m_n(x)$ -->
     <g style="fill: #262626" transform="translate(70.872875 235.642625) scale(0.088 -0.088)">
      <defs>
       <path id="DejaVuSans-Oblique-6d" d="M 5747 2113 
L 5338 0 
L 4763 0 
L 5166 2094 
Q 5191 2228 5203 2325 
Q 5216 2422 5216 2491 
Q 5216 2772 5059 2928 
Q 4903 3084 4622 3084 
Q 4203 3084 3875 2770 
Q 3547 2456 3450 1953 
L 3066 0 
L 2491 0 
L 2900 2094 
Q 2925 2209 2937 2307 
Q 2950 2406 2950 2484 
Q 2950 2769 2794 2926 
Q 2638 3084 2363 3084 
Q 1938 3084 1609 2770 
Q 1281 2456 1184 1953 
L 800 0 
L 225 0 
L 909 3500 
L 1484 3500 
L 1375 2956 
Q 1609 3263 1923 3423 
Q 2238 3584 2597 3584 
Q 2978 3584 3223 3384 
Q 3469 3184 3519 2828 
Q 3781 3197 4126 3390 
Q 4472 3584 4856 3584 
Q 5306 3584 5551 3325 
Q 5797 3066 5797 2591 
Q 5797 2488 5784 2364 
Q 5772 2241 5747 2113 
z
" transform="scale(0.015625)"/>
       <path id="DejaVuSans-Oblique-6e" d="M 3566 2113 
L 3156 0 
L 2578 0 
L 2988 2091 
Q 3016 2238 3031 2350 
Q 3047 2463 3047 2528 
Q 3047 2791 2881 2937 
Q 2716 3084 2419 3084 
Q 1956 3084 1622 2776 
Q 1288 2469 1184 1941 
L 800 0 
L 225 0 
L 903 3500 
L 1478 3500 
L 1363 2950 
Q 1603 3253 1940 3418 
Q 2278 3584 2650 3584 
Q 3113 3584 3367 3334 
Q 3622 3084 3622 2631 
Q 3622 2519 3608 2391 
Q 3594 2263 3566 2113 
z
" transform="scale(0.015625)"/>
       <path id="DejaVuSans-28" d="M 1984 4856 
Q 1566 4138 1362 3434 
Q 1159 2731 1159 2009 
Q 1159 1288 1364 580 
Q 1569 -128 1984 -844 
L 1484 -844 
Q 1016 -109 783 600 
Q 550 1309 550 2009 
Q 550 2706 781 3412 
Q 1013 4119 1484 4856 
L 1984 4856 
z
" transform="scale(0.015625)"/>
       <path id="DejaVuSans-29" d="M 513 4856 
L 1013 4856 
Q 1481 4119 1714 3412 
Q 1947 2706 1947 2009 
Q 1947 1309 1714 600 
Q 1481 -109 1013 -844 
L 513 -844 
Q 928 -128 1133 580 
Q 1338 1288 1338 2009 
Q 1338 2731 1133 3434 
Q 928 4138 513 4856 
z
" transform="scale(0.015625)"/>
      </defs>
      <use xlink:href="#DejaVuSans-Oblique-6d" transform="translate(0 0.125)"/>
      <use xlink:href="#DejaVuSans-Oblique-6e" transform="translate(97.412109 -16.28125) scale(0.7)"/>
      <use xlink:href="#DejaVuSans-28" transform="translate(144.511719 0.125)"/>
      <use xlink:href="#DejaVuSans-Oblique-78" transform="translate(183.525391 0.125)"/>
      <use xlink:href="#DejaVuSans-29" transform="translate(242.705078 0.125)"/>
     </g>
    </g>
    <g id="patch_5">
     <path d="M 46.232875 249.799625 
L 63.832875 249.799625 
L 63.832875 243.639625 
L 46.232875 243.639625 
z
" style="fill: #1f77b4; fill-opacity: 0.5; stroke: #1f77b4; stroke-opacity: 0.5; stroke-width: 0.8; stroke-linejoin: miter"/>
    </g>
    <g id="text_17">
     <!-- $f(\mathbf{x}^*)$ 95% pred. -->
     <g style="fill: #262626" transform="translate(70.872875 249.799625) scale(0.088 -0.088)">
      <defs>
       <path id="DejaVuSans-Oblique-66" d="M 3059 4863 
L 2969 4384 
L 2419 4384 
Q 2106 4384 1964 4261 
Q 1822 4138 1753 3809 
L 1691 3500 
L 2638 3500 
L 2553 3053 
L 1606 3053 
L 1013 0 
L 434 0 
L 1031 3053 
L 481 3053 
L 563 3500 
L 1113 3500 
L 1159 3744 
Q 1278 4363 1576 4613 
Q 1875 4863 2516 4863 
L 3059 4863 
z
" transform="scale(0.015625)"/>
       <path id="DejaVuSans-Bold-78" d="M 1422 1791 
L 159 3500 
L 1344 3500 
L 2059 2463 
L 2784 3500 
L 3969 3500 
L 2706 1797 
L 4031 0 
L 2847 0 
L 2059 1106 
L 1281 0 
L 97 0 
L 1422 1791 
z
" transform="scale(0.015625)"/>
       <path id="DejaVuSans-2a" d="M 3009 3897 
L 1888 3291 
L 3009 2681 
L 2828 2375 
L 1778 3009 
L 1778 1831 
L 1422 1831 
L 1422 3009 
L 372 2375 
L 191 2681 
L 1313 3291 
L 191 3897 
L 372 4206 
L 1422 3572 
L 1422 4750 
L 1778 4750 
L 1778 3572 
L 2828 4206 
L 3009 3897 
z
" transform="scale(0.015625)"/>
       <path id="ArialMT-39" d="M 350 1059 
L 891 1109 
Q 959 728 1153 556 
Q 1347 384 1650 384 
Q 1909 384 2104 503 
Q 2300 622 2425 820 
Q 2550 1019 2634 1356 
Q 2719 1694 2719 2044 
Q 2719 2081 2716 2156 
Q 2547 1888 2255 1720 
Q 1963 1553 1622 1553 
Q 1053 1553 659 1965 
Q 266 2378 266 3053 
Q 266 3750 677 4175 
Q 1088 4600 1706 4600 
Q 2153 4600 2523 4359 
Q 2894 4119 3086 3673 
Q 3278 3228 3278 2384 
Q 3278 1506 3087 986 
Q 2897 466 2520 194 
Q 2144 -78 1638 -78 
Q 1100 -78 759 220 
Q 419 519 350 1059 
z
M 2653 3081 
Q 2653 3566 2395 3850 
Q 2138 4134 1775 4134 
Q 1400 4134 1122 3828 
Q 844 3522 844 3034 
Q 844 2597 1108 2323 
Q 1372 2050 1759 2050 
Q 2150 2050 2401 2323 
Q 2653 2597 2653 3081 
z
" transform="scale(0.015625)"/>
       <path id="ArialMT-35" d="M 266 1200 
L 856 1250 
Q 922 819 1161 601 
Q 1400 384 1738 384 
Q 2144 384 2425 690 
Q 2706 997 2706 1503 
Q 2706 1984 2436 2262 
Q 2166 2541 1728 2541 
Q 1456 2541 1237 2417 
Q 1019 2294 894 2097 
L 366 2166 
L 809 4519 
L 3088 4519 
L 3088 3981 
L 1259 3981 
L 1013 2750 
Q 1425 3038 1878 3038 
Q 2478 3038 2890 2622 
Q 3303 2206 3303 1553 
Q 3303 931 2941 478 
Q 2500 -78 1738 -78 
Q 1113 -78 717 272 
Q 322 622 266 1200 
z
" transform="scale(0.015625)"/>
       <path id="ArialMT-25" d="M 372 3481 
Q 372 3972 619 4315 
Q 866 4659 1334 4659 
Q 1766 4659 2048 4351 
Q 2331 4044 2331 3447 
Q 2331 2866 2045 2552 
Q 1759 2238 1341 2238 
Q 925 2238 648 2547 
Q 372 2856 372 3481 
z
M 1350 4272 
Q 1141 4272 1002 4090 
Q 863 3909 863 3425 
Q 863 2984 1003 2804 
Q 1144 2625 1350 2625 
Q 1563 2625 1702 2806 
Q 1841 2988 1841 3469 
Q 1841 3913 1700 4092 
Q 1559 4272 1350 4272 
z
M 1353 -169 
L 3859 4659 
L 4316 4659 
L 1819 -169 
L 1353 -169 
z
M 3334 1075 
Q 3334 1569 3581 1911 
Q 3828 2253 4300 2253 
Q 4731 2253 5014 1945 
Q 5297 1638 5297 1041 
Q 5297 459 5011 145 
Q 4725 -169 4303 -169 
Q 3888 -169 3611 142 
Q 3334 453 3334 1075 
z
M 4316 1866 
Q 4103 1866 3964 1684 
Q 3825 1503 3825 1019 
Q 3825 581 3965 400 
Q 4106 219 4313 219 
Q 4528 219 4667 400 
Q 4806 581 4806 1063 
Q 4806 1506 4665 1686 
Q 4525 1866 4316 1866 
z
" transform="scale(0.015625)"/>
       <path id="ArialMT-70" d="M 422 -1272 
L 422 3319 
L 934 3319 
L 934 2888 
Q 1116 3141 1344 3267 
Q 1572 3394 1897 3394 
Q 2322 3394 2647 3175 
Q 2972 2956 3137 2557 
Q 3303 2159 3303 1684 
Q 3303 1175 3120 767 
Q 2938 359 2589 142 
Q 2241 -75 1856 -75 
Q 1575 -75 1351 44 
Q 1128 163 984 344 
L 984 -1272 
L 422 -1272 
z
M 931 1641 
Q 931 1000 1190 694 
Q 1450 388 1819 388 
Q 2194 388 2461 705 
Q 2728 1022 2728 1688 
Q 2728 2322 2467 2637 
Q 2206 2953 1844 2953 
Q 1484 2953 1207 2617 
Q 931 2281 931 1641 
z
" transform="scale(0.015625)"/>
       <path id="ArialMT-64" d="M 2575 0 
L 2575 419 
Q 2259 -75 1647 -75 
Q 1250 -75 917 144 
Q 584 363 401 755 
Q 219 1147 219 1656 
Q 219 2153 384 2558 
Q 550 2963 881 3178 
Q 1213 3394 1622 3394 
Q 1922 3394 2156 3267 
Q 2391 3141 2538 2938 
L 2538 4581 
L 3097 4581 
L 3097 0 
L 2575 0 
z
M 797 1656 
Q 797 1019 1065 703 
Q 1334 388 1700 388 
Q 2069 388 2326 689 
Q 2584 991 2584 1609 
Q 2584 2291 2321 2609 
Q 2059 2928 1675 2928 
Q 1300 2928 1048 2622 
Q 797 2316 797 1656 
z
" transform="scale(0.015625)"/>
      </defs>
      <use xlink:href="#DejaVuSans-Oblique-66" transform="translate(0 0.765625)"/>
      <use xlink:href="#DejaVuSans-28" transform="translate(35.205078 0.765625)"/>
      <use xlink:href="#DejaVuSans-Bold-78" transform="translate(74.21875 0.765625)"/>
      <use xlink:href="#DejaVuSans-2a" transform="translate(153.31543 39.046875) scale(0.7)"/>
      <use xlink:href="#DejaVuSans-29" transform="translate(204.6875 0.765625)"/>
      <use xlink:href="#ArialMT-20" transform="translate(243.701172 0.765625)"/>
      <use xlink:href="#ArialMT-39" transform="translate(271.484375 0.765625)"/>
      <use xlink:href="#ArialMT-35" transform="translate(327.099609 0.765625)"/>
      <use xlink:href="#ArialMT-25" transform="translate(382.714844 0.765625)"/>
      <use xlink:href="#ArialMT-20" transform="translate(471.630859 0.765625)"/>
      <use xlink:href="#ArialMT-70" transform="translate(499.414062 0.765625)"/>
      <use xlink:href="#ArialMT-72" transform="translate(555.029297 0.765625)"/>
      <use xlink:href="#ArialMT-65" transform="translate(588.330078 0.765625)"/>
      <use xlink:href="#ArialMT-64" transform="translate(643.945312 0.765625)"/>
      <use xlink:href="#ArialMT-2e" transform="translate(699.560547 0.765625)"/>
     </g>
    </g>
    <g id="patch_6">
     <path d="M 46.232875 263.967625 
L 63.832875 263.967625 
L 63.832875 257.807625 
L 46.232875 257.807625 
z
" style="fill: #ff7f0e; fill-opacity: 0.5; stroke: #ff7f0e; stroke-opacity: 0.5; stroke-width: 0.8; stroke-linejoin: miter"/>
    </g>
    <g id="text_18">
     <!-- $y^*$ 95% pred. -->
     <g style="fill: #262626" transform="translate(70.872875 263.967625) scale(0.088 -0.088)">
      <use xlink:href="#DejaVuSans-Oblique-79" transform="translate(0 0.765625)"/>
      <use xlink:href="#DejaVuSans-2a" transform="translate(77.283529 39.046875) scale(0.7)"/>
      <use xlink:href="#ArialMT-20" transform="translate(128.655599 0.765625)"/>
      <use xlink:href="#ArialMT-39" transform="translate(156.438802 0.765625)"/>
      <use xlink:href="#ArialMT-35" transform="translate(212.054036 0.765625)"/>
      <use xlink:href="#ArialMT-25" transform="translate(267.669271 0.765625)"/>
      <use xlink:href="#ArialMT-20" transform="translate(356.585286 0.765625)"/>
      <use xlink:href="#ArialMT-70" transform="translate(384.36849 0.765625)"/>
      <use xlink:href="#ArialMT-72" transform="translate(439.983724 0.765625)"/>
      <use xlink:href="#ArialMT-65" transform="translate(473.284505 0.765625)"/>
      <use xlink:href="#ArialMT-64" transform="translate(528.89974 0.765625)"/>
      <use xlink:href="#ArialMT-2e" transform="translate(584.514974 0.765625)"/>
     </g>
    </g>
    <g id="line2d_17">
     <path d="M 46.232875 273.4345 
L 55.032875 273.4345 
L 63.832875 273.4345 
" style="fill: none; stroke-dasharray: 7.68,1.92,1.2,1.92; stroke-dashoffset: 0; stroke: #bf00bf; stroke-width: 1.2"/>
    </g>
    <g id="text_19">
     <!-- True function -->
     <g style="fill: #262626" transform="translate(70.872875 276.5145) scale(0.088 -0.088)">
      <defs>
       <path id="ArialMT-54" d="M 1659 0 
L 1659 4041 
L 150 4041 
L 150 4581 
L 3781 4581 
L 3781 4041 
L 2266 4041 
L 2266 0 
L 1659 0 
z
" transform="scale(0.015625)"/>
       <path id="ArialMT-75" d="M 2597 0 
L 2597 488 
Q 2209 -75 1544 -75 
Q 1250 -75 995 37 
Q 741 150 617 320 
Q 494 491 444 738 
Q 409 903 409 1263 
L 409 3319 
L 972 3319 
L 972 1478 
Q 972 1038 1006 884 
Q 1059 663 1231 536 
Q 1403 409 1656 409 
Q 1909 409 2131 539 
Q 2353 669 2445 892 
Q 2538 1116 2538 1541 
L 2538 3319 
L 3100 3319 
L 3100 0 
L 2597 0 
z
" transform="scale(0.015625)"/>
       <path id="ArialMT-66" d="M 556 0 
L 556 2881 
L 59 2881 
L 59 3319 
L 556 3319 
L 556 3672 
Q 556 4006 616 4169 
Q 697 4388 901 4523 
Q 1106 4659 1475 4659 
Q 1713 4659 2000 4603 
L 1916 4113 
Q 1741 4144 1584 4144 
Q 1328 4144 1222 4034 
Q 1116 3925 1116 3625 
L 1116 3319 
L 1763 3319 
L 1763 2881 
L 1116 2881 
L 1116 0 
L 556 0 
z
" transform="scale(0.015625)"/>
       <path id="ArialMT-63" d="M 2588 1216 
L 3141 1144 
Q 3050 572 2676 248 
Q 2303 -75 1759 -75 
Q 1078 -75 664 370 
Q 250 816 250 1647 
Q 250 2184 428 2587 
Q 606 2991 970 3192 
Q 1334 3394 1763 3394 
Q 2303 3394 2647 3120 
Q 2991 2847 3088 2344 
L 2541 2259 
Q 2463 2594 2264 2762 
Q 2066 2931 1784 2931 
Q 1359 2931 1093 2626 
Q 828 2322 828 1663 
Q 828 994 1084 691 
Q 1341 388 1753 388 
Q 2084 388 2306 591 
Q 2528 794 2588 1216 
z
" transform="scale(0.015625)"/>
      </defs>
      <use xlink:href="#ArialMT-54"/>
      <use xlink:href="#ArialMT-72" x="57.333984"/>
      <use xlink:href="#ArialMT-75" x="90.634766"/>
      <use xlink:href="#ArialMT-65" x="146.25"/>
      <use xlink:href="#ArialMT-20" x="201.865234"/>
      <use xlink:href="#ArialMT-66" x="229.648438"/>
      <use xlink:href="#ArialMT-75" x="257.431641"/>
      <use xlink:href="#ArialMT-6e" x="313.046875"/>
      <use xlink:href="#ArialMT-63" x="368.662109"/>
      <use xlink:href="#ArialMT-74" x="418.662109"/>
      <use xlink:href="#ArialMT-69" x="446.445312"/>
      <use xlink:href="#ArialMT-6f" x="468.662109"/>
      <use xlink:href="#ArialMT-6e" x="524.277344"/>
     </g>
    </g>
   </g>
  </g>
  <g id="axes_2">
   <g id="matplotlib.axis_3">
    <g id="ytick_6">
     <g id="line2d_18">
      <defs>
       <path id="m4c0e4b1a2f" d="M 0 0 
L 4.8 0 
" style="stroke: #262626"/>
      </defs>
      <g>
       <use xlink:href="#m4c0e4b1a2f" x="395.432875" y="274.085667" style="fill: #262626; stroke: #262626"/>
      </g>
     </g>
     <g id="text_20">
      <!-- 0.000 -->
      <g style="fill: #ff7f0e" transform="translate(403.732875 277.235105) scale(0.088 -0.088)">
       <use xlink:href="#ArialMT-30"/>
       <use xlink:href="#ArialMT-2e" x="55.615234"/>
       <use xlink:href="#ArialMT-30" x="83.398438"/>
       <use xlink:href="#ArialMT-30" x="139.013672"/>
       <use xlink:href="#ArialMT-30" x="194.628906"/>
      </g>
     </g>
    </g>
    <g id="ytick_7">
     <g id="line2d_19">
      <g>
       <use xlink:href="#m4c0e4b1a2f" x="395.432875" y="237.451085" style="fill: #262626; stroke: #262626"/>
      </g>
     </g>
     <g id="text_21">
      <!-- 0.001 -->
      <g style="fill: #ff7f0e" transform="translate(403.732875 240.600522) scale(0.088 -0.088)">
       <use xlink:href="#ArialMT-30"/>
       <use xlink:href="#ArialMT-2e" x="55.615234"/>
       <use xlink:href="#ArialMT-30" x="83.398438"/>
       <use xlink:href="#ArialMT-30" x="139.013672"/>
       <use xlink:href="#ArialMT-31" x="194.628906"/>
      </g>
     </g>
    </g>
    <g id="ytick_8">
     <g id="line2d_20">
      <g>
       <use xlink:href="#m4c0e4b1a2f" x="395.432875" y="200.816502" style="fill: #262626; stroke: #262626"/>
      </g>
     </g>
     <g id="text_22">
      <!-- 0.002 -->
      <g style="fill: #ff7f0e" transform="translate(403.732875 203.96594) scale(0.088 -0.088)">
       <use xlink:href="#ArialMT-30"/>
       <use xlink:href="#ArialMT-2e" x="55.615234"/>
       <use xlink:href="#ArialMT-30" x="83.398438"/>
       <use xlink:href="#ArialMT-30" x="139.013672"/>
       <use xlink:href="#ArialMT-32" x="194.628906"/>
      </g>
     </g>
    </g>
    <g id="ytick_9">
     <g id="line2d_21">
      <g>
       <use xlink:href="#m4c0e4b1a2f" x="395.432875" y="164.18192" style="fill: #262626; stroke: #262626"/>
      </g>
     </g>
     <g id="text_23">
      <!-- 0.003 -->
      <g style="fill: #ff7f0e" transform="translate(403.732875 167.331357) scale(0.088 -0.088)">
       <defs>
        <path id="ArialMT-33" d="M 269 1209 
L 831 1284 
Q 928 806 1161 595 
Q 1394 384 1728 384 
Q 2125 384 2398 659 
Q 2672 934 2672 1341 
Q 2672 1728 2419 1979 
Q 2166 2231 1775 2231 
Q 1616 2231 1378 2169 
L 1441 2663 
Q 1497 2656 1531 2656 
Q 1891 2656 2178 2843 
Q 2466 3031 2466 3422 
Q 2466 3731 2256 3934 
Q 2047 4138 1716 4138 
Q 1388 4138 1169 3931 
Q 950 3725 888 3313 
L 325 3413 
Q 428 3978 793 4289 
Q 1159 4600 1703 4600 
Q 2078 4600 2393 4439 
Q 2709 4278 2876 4000 
Q 3044 3722 3044 3409 
Q 3044 3113 2884 2869 
Q 2725 2625 2413 2481 
Q 2819 2388 3044 2092 
Q 3269 1797 3269 1353 
Q 3269 753 2831 336 
Q 2394 -81 1725 -81 
Q 1122 -81 723 278 
Q 325 638 269 1209 
z
" transform="scale(0.015625)"/>
       </defs>
       <use xlink:href="#ArialMT-30"/>
       <use xlink:href="#ArialMT-2e" x="55.615234"/>
       <use xlink:href="#ArialMT-30" x="83.398438"/>
       <use xlink:href="#ArialMT-30" x="139.013672"/>
       <use xlink:href="#ArialMT-33" x="194.628906"/>
      </g>
     </g>
    </g>
    <g id="ytick_10">
     <g id="line2d_22">
      <g>
       <use xlink:href="#m4c0e4b1a2f" x="395.432875" y="127.547337" style="fill: #262626; stroke: #262626"/>
      </g>
     </g>
     <g id="text_24">
      <!-- 0.004 -->
      <g style="fill: #ff7f0e" transform="translate(403.732875 130.696775) scale(0.088 -0.088)">
       <use xlink:href="#ArialMT-30"/>
       <use xlink:href="#ArialMT-2e" x="55.615234"/>
       <use xlink:href="#ArialMT-30" x="83.398438"/>
       <use xlink:href="#ArialMT-30" x="139.013672"/>
       <use xlink:href="#ArialMT-34" x="194.628906"/>
      </g>
     </g>
    </g>
    <g id="ytick_11">
     <g id="line2d_23">
      <g>
       <use xlink:href="#m4c0e4b1a2f" x="395.432875" y="90.912754" style="fill: #262626; stroke: #262626"/>
      </g>
     </g>
     <g id="text_25">
      <!-- 0.005 -->
      <g style="fill: #ff7f0e" transform="translate(403.732875 94.062192) scale(0.088 -0.088)">
       <use xlink:href="#ArialMT-30"/>
       <use xlink:href="#ArialMT-2e" x="55.615234"/>
       <use xlink:href="#ArialMT-30" x="83.398438"/>
       <use xlink:href="#ArialMT-30" x="139.013672"/>
       <use xlink:href="#ArialMT-35" x="194.628906"/>
      </g>
     </g>
    </g>
    <g id="ytick_12">
     <g id="line2d_24">
      <g>
       <use xlink:href="#m4c0e4b1a2f" x="395.432875" y="54.278172" style="fill: #262626; stroke: #262626"/>
      </g>
     </g>
     <g id="text_26">
      <!-- 0.006 -->
      <g style="fill: #ff7f0e" transform="translate(403.732875 57.427609) scale(0.088 -0.088)">
       <use xlink:href="#ArialMT-30"/>
       <use xlink:href="#ArialMT-2e" x="55.615234"/>
       <use xlink:href="#ArialMT-30" x="83.398438"/>
       <use xlink:href="#ArialMT-30" x="139.013672"/>
       <use xlink:href="#ArialMT-36" x="194.628906"/>
      </g>
     </g>
    </g>
    <g id="text_27">
     <!-- Information Acquisition Function -->
     <g style="fill: #ff7f0e" transform="translate(436.740625 221.16075) rotate(-90) scale(0.096 -0.096)">
      <defs>
       <path id="ArialMT-49" d="M 597 0 
L 597 4581 
L 1203 4581 
L 1203 0 
L 597 0 
z
" transform="scale(0.015625)"/>
       <path id="ArialMT-6d" d="M 422 0 
L 422 3319 
L 925 3319 
L 925 2853 
Q 1081 3097 1340 3245 
Q 1600 3394 1931 3394 
Q 2300 3394 2536 3241 
Q 2772 3088 2869 2813 
Q 3263 3394 3894 3394 
Q 4388 3394 4653 3120 
Q 4919 2847 4919 2278 
L 4919 0 
L 4359 0 
L 4359 2091 
Q 4359 2428 4304 2576 
Q 4250 2725 4106 2815 
Q 3963 2906 3769 2906 
Q 3419 2906 3187 2673 
Q 2956 2441 2956 1928 
L 2956 0 
L 2394 0 
L 2394 2156 
Q 2394 2531 2256 2718 
Q 2119 2906 1806 2906 
Q 1569 2906 1367 2781 
Q 1166 2656 1075 2415 
Q 984 2175 984 1722 
L 984 0 
L 422 0 
z
" transform="scale(0.015625)"/>
       <path id="ArialMT-41" d="M -9 0 
L 1750 4581 
L 2403 4581 
L 4278 0 
L 3588 0 
L 3053 1388 
L 1138 1388 
L 634 0 
L -9 0 
z
M 1313 1881 
L 2866 1881 
L 2388 3150 
Q 2169 3728 2063 4100 
Q 1975 3659 1816 3225 
L 1313 1881 
z
" transform="scale(0.015625)"/>
       <path id="ArialMT-71" d="M 2538 -1272 
L 2538 353 
Q 2406 169 2170 47 
Q 1934 -75 1669 -75 
Q 1078 -75 651 397 
Q 225 869 225 1691 
Q 225 2191 398 2587 
Q 572 2984 901 3189 
Q 1231 3394 1625 3394 
Q 2241 3394 2594 2875 
L 2594 3319 
L 3100 3319 
L 3100 -1272 
L 2538 -1272 
z
M 803 1669 
Q 803 1028 1072 708 
Q 1341 388 1716 388 
Q 2075 388 2334 692 
Q 2594 997 2594 1619 
Q 2594 2281 2320 2615 
Q 2047 2950 1678 2950 
Q 1313 2950 1058 2639 
Q 803 2328 803 1669 
z
" transform="scale(0.015625)"/>
       <path id="ArialMT-46" d="M 525 0 
L 525 4581 
L 3616 4581 
L 3616 4041 
L 1131 4041 
L 1131 2622 
L 3281 2622 
L 3281 2081 
L 1131 2081 
L 1131 0 
L 525 0 
z
" transform="scale(0.015625)"/>
      </defs>
      <use xlink:href="#ArialMT-49"/>
      <use xlink:href="#ArialMT-6e" x="27.783203"/>
      <use xlink:href="#ArialMT-66" x="83.398438"/>
      <use xlink:href="#ArialMT-6f" x="111.181641"/>
      <use xlink:href="#ArialMT-72" x="166.796875"/>
      <use xlink:href="#ArialMT-6d" x="200.097656"/>
      <use xlink:href="#ArialMT-61" x="283.398438"/>
      <use xlink:href="#ArialMT-74" x="339.013672"/>
      <use xlink:href="#ArialMT-69" x="366.796875"/>
      <use xlink:href="#ArialMT-6f" x="389.013672"/>
      <use xlink:href="#ArialMT-6e" x="444.628906"/>
      <use xlink:href="#ArialMT-20" x="500.244141"/>
      <use xlink:href="#ArialMT-41" x="522.527344"/>
      <use xlink:href="#ArialMT-63" x="589.226562"/>
      <use xlink:href="#ArialMT-71" x="639.226562"/>
      <use xlink:href="#ArialMT-75" x="694.841797"/>
      <use xlink:href="#ArialMT-69" x="750.457031"/>
      <use xlink:href="#ArialMT-73" x="772.673828"/>
      <use xlink:href="#ArialMT-69" x="822.673828"/>
      <use xlink:href="#ArialMT-74" x="844.890625"/>
      <use xlink:href="#ArialMT-69" x="872.673828"/>
      <use xlink:href="#ArialMT-6f" x="894.890625"/>
      <use xlink:href="#ArialMT-6e" x="950.505859"/>
      <use xlink:href="#ArialMT-20" x="1006.121094"/>
      <use xlink:href="#ArialMT-46" x="1033.904297"/>
      <use xlink:href="#ArialMT-75" x="1094.988281"/>
      <use xlink:href="#ArialMT-6e" x="1150.603516"/>
      <use xlink:href="#ArialMT-63" x="1206.21875"/>
      <use xlink:href="#ArialMT-74" x="1256.21875"/>
      <use xlink:href="#ArialMT-69" x="1284.001953"/>
      <use xlink:href="#ArialMT-6f" x="1306.21875"/>
      <use xlink:href="#ArialMT-6e" x="1361.833984"/>
     </g>
    </g>
   </g>
   <g id="line2d_25">
    <path d="M 54.545602 274.085667 
L 57.824941 274.085667 
L 61.10428 274.085667 
L 64.383619 274.085667 
L 67.662958 274.085667 
L 70.942296 274.085667 
L 74.221636 274.085665 
L 77.500973 274.08565 
L 80.780313 274.085503 
L 84.059653 274.084204 
L 87.33899 274.086401 
L 90.61833 274.081672 
L 93.89767 274.069105 
L 97.177007 273.99341 
L 100.456344 273.691524 
L 103.735686 272.664194 
L 107.015024 269.786534 
L 110.294361 263.034111 
L 113.573703 249.647408 
L 116.853041 227.044117 
L 120.132378 194.344291 
L 123.41172 153.803497 
L 126.691057 111.065839 
L 129.970395 73.602032 
L 133.249737 47.612041 
L 136.529069 34.922032 
L 139.808412 32.1675 
L 143.087754 33.733681 
L 146.367086 36.675592 
L 149.646428 43.210535 
L 152.92577 58.38629 
L 156.205103 85.349889 
L 159.484445 122.480835 
L 162.763787 163.93652 
L 166.04312 202.600177 
L 169.322462 233.107711 
L 172.601804 253.530362 
L 175.881137 265.106356 
L 179.160479 270.653893 
L 182.439821 272.91648 
L 185.719153 273.717992 
L 188.998496 273.971193 
L 192.277838 274.048371 
L 195.55717 274.073536 
L 198.836512 274.081929 
L 202.115855 274.083156 
L 205.395187 274.083712 
L 208.674529 274.084816 
L 211.953871 274.085978 
L 215.233204 274.0875 
L 218.512556 274.086493 
L 221.791879 274.083525 
L 225.071221 274.084755 
L 228.350563 274.085348 
L 231.629886 274.085579 
L 234.909247 274.085649 
L 238.18857 274.085665 
L 241.467912 274.085667 
L 244.747254 274.085667 
L 248.026597 274.085667 
L 251.305939 274.085667 
L 254.585262 274.085667 
L 257.864623 274.085667 
L 261.143946 274.085667 
L 264.423288 274.085667 
L 267.70263 274.085667 
L 270.981953 274.085667 
L 274.261315 274.085667 
L 277.540637 274.085667 
L 280.81998 274.085667 
L 284.099322 274.085667 
L 287.378664 274.085667 
L 290.658006 274.085667 
L 293.937329 274.085667 
L 297.21669 274.085667 
L 300.496013 274.085667 
L 303.775355 274.085667 
L 307.054697 274.085667 
L 310.33402 274.085666 
L 313.613382 274.085647 
L 316.892705 274.08544 
L 320.172047 274.084006 
L 323.451389 274.08572 
L 326.730731 274.085561 
L 330.010073 274.082312 
L 333.289396 274.077391 
L 336.568738 274.069918 
L 339.84808 274.060006 
L 343.127423 274.051635 
L 346.406765 274.051024 
L 349.686088 274.053071 
L 352.96543 274.061108 
L 356.244772 274.070402 
L 359.524114 274.075425 
L 362.803456 274.078764 
L 366.082798 274.079612 
L 369.362141 274.076319 
L 372.641463 274.065986 
L 375.920806 274.021757 
L 379.200148 273.85591 
" clip-path="url(#pffdde8e333)" style="fill: none; stroke: #ff7f0e; stroke-width: 1.2; stroke-linecap: round"/>
   </g>
   <g id="line2d_26">
    <path d="M 139.808412 274.085667 
L 139.808412 271.642049 
L 139.808412 269.198432 
L 139.808412 266.754814 
L 139.808412 264.311196 
L 139.808412 261.867578 
L 139.808412 259.423961 
L 139.808412 256.980343 
L 139.808412 254.536725 
L 139.808412 252.093107 
L 139.808412 249.64949 
L 139.808412 247.205872 
L 139.808412 244.762254 
L 139.808412 242.318636 
L 139.808412 239.875019 
L 139.808412 237.431401 
L 139.808412 234.987783 
L 139.808412 232.544165 
L 139.808412 230.100547 
L 139.808412 227.65693 
L 139.808412 225.213312 
L 139.808412 222.769694 
L 139.808412 220.326076 
L 139.808412 217.882459 
L 139.808412 215.438841 
L 139.808412 212.995223 
L 139.808412 210.551605 
L 139.808412 208.107988 
L 139.808412 205.66437 
L 139.808412 203.220752 
L 139.808412 200.777134 
L 139.808412 198.333517 
L 139.808412 195.889899 
L 139.808412 193.446281 
L 139.808412 191.002663 
L 139.808412 188.559045 
L 139.808412 186.115428 
L 139.808412 183.67181 
L 139.808412 181.228192 
L 139.808412 178.784574 
L 139.808412 176.340957 
L 139.808412 173.897339 
L 139.808412 171.453721 
L 139.808412 169.010103 
L 139.808412 166.566486 
L 139.808412 164.122868 
L 139.808412 161.67925 
L 139.808412 159.235632 
L 139.808412 156.792015 
L 139.808412 154.348397 
L 139.808412 151.90477 
L 139.808412 149.461153 
L 139.808412 147.017535 
L 139.808412 144.573917 
L 139.808412 142.130299 
L 139.808412 139.686682 
L 139.808412 137.243064 
L 139.808412 134.799446 
L 139.808412 132.355828 
L 139.808412 129.912211 
L 139.808412 127.468601 
L 139.808412 125.024975 
L 139.808412 122.581349 
L 139.808412 120.13774 
L 139.808412 117.69413 
L 139.808412 115.250504 
L 139.808412 112.806878 
L 139.808412 110.363268 
L 139.808412 107.919659 
L 139.808412 105.476033 
L 139.808412 103.032407 
L 139.808412 100.588797 
L 139.808412 98.145188 
L 139.808412 95.701562 
L 139.808412 93.257936 
L 139.808412 90.814326 
L 139.808412 88.370717 
L 139.808412 85.927091 
L 139.808412 83.483465 
L 139.808412 81.039855 
L 139.808412 78.596246 
L 139.808412 76.15262 
L 139.808412 73.708993 
L 139.808412 71.265384 
L 139.808412 68.821775 
L 139.808412 66.378149 
L 139.808412 63.934522 
L 139.808412 61.490913 
L 139.808412 59.047304 
L 139.808412 56.603678 
L 139.808412 54.160051 
L 139.808412 51.716442 
L 139.808412 49.272833 
L 139.808412 46.829207 
L 139.808412 44.38558 
L 139.808412 41.941971 
L 139.808412 39.498362 
L 139.808412 37.054736 
L 139.808412 34.611109 
L 139.808412 32.1675 
" clip-path="url(#pffdde8e333)" style="fill: none; stroke: #ff7f0e; stroke-linecap: round"/>
   </g>
   <g id="patch_7">
    <path d="M 38.312875 286.1835 
L 38.312875 20.0715 
" style="fill: none; stroke: #262626; stroke-linejoin: miter; stroke-linecap: square"/>
   </g>
   <g id="patch_8">
    <path d="M 395.432875 286.1835 
L 395.432875 20.0715 
" style="fill: none; stroke: #262626; stroke-linejoin: miter; stroke-linecap: square"/>
   </g>
   <g id="patch_9">
    <path d="M 38.312875 286.1835 
L 395.432875 286.1835 
" style="fill: none; stroke: #262626; stroke-linejoin: miter; stroke-linecap: square"/>
   </g>
   <g id="patch_10">
    <path d="M 38.312875 20.0715 
L 395.432875 20.0715 
" style="fill: none; stroke: #262626; stroke-linejoin: miter; stroke-linecap: square"/>
   </g>
  </g>
 </g>
 <defs>
  <clipPath id="pffdde8e333">
   <rect x="38.312875" y="20.0715" width="357.12" height="266.112"/>
  </clipPath>
 </defs>
</svg>