<?xml version="1.0" encoding="utf-8" standalone="no"?>
<!DOCTYPE svg PUBLIC "-//W3C//DTD SVG 1.1//EN"
  "http://www.w3.org/Graphics/SVG/1.1/DTD/svg11.dtd">
<svg xmlns:xlink="http://www.w3.org/1999/xlink" width="460.5295pt" height="322.510875pt" viewBox="0 0 460.5295 322.510875" xmlns="http://www.w3.org/2000/svg" version="1.1">
 <metadata>
  <rdf:RDF xmlns:dc="http://purl.org/dc/elements/1.1/" xmlns:cc="http://creativecommons.org/ns#" xmlns:rdf="http://www.w3.org/1999/02/22-rdf-syntax-ns#">
   <cc:Work>
    <dc:type rdf:resource="http://purl.org/dc/dcmitype/StillImage"/>
    <dc:date>2023-10-23T15:19:22.784398</dc:date>
    <dc:format>image/svg+xml</dc:format>
    <dc:creator>
     <cc:Agent>
      <dc:title>Matplotlib v3.8.0, https://matplotlib.org/</dc:title>
     </cc:Agent>
    </dc:creator>
   </cc:Work>
  </rdf:RDF>
 </metadata>
 <defs>
  <style type="text/css">*{stroke-linejoin: round; stroke-linecap: butt}</style>
 </defs>
 <g id="figure_1">
  <g id="patch_1">
   <path d="M 0 322.510875 
L 460.5295 322.510875 
L 460.5295 0 
L 0 0 
z
" style="fill: #ffffff"/>
  </g>
  <g id="axes_1">
   <g id="patch_2">
    <path d="M 38.312875 286.1835 
L 395.432875 286.1835 
L 395.432875 20.0715 
L 38.312875 20.0715 
z
" style="fill: #ffffff"/>
   </g>
   <g id="matplotlib.axis_1">
    <g id="xtick_1">
     <g id="line2d_1">
      <defs>
       <path id="m4621174cb4" d="M 0 0 
L 0 4.8 
" style="stroke: #262626"/>
      </defs>
      <g>
       <use xlink:href="#m4621174cb4" x="54.545602" y="286.1835" style="fill: #262626; stroke: #262626"/>
      </g>
     </g>
     <g id="text_1">
      <!-- 0.0 -->
      <g style="fill: #262626" transform="translate(48.429602 300.782375) scale(0.088 -0.088)">
       <defs>
        <path id="ArialMT-30" d="M 266 2259 
Q 266 3072 433 3567 
Q 600 4063 929 4331 
Q 1259 4600 1759 4600 
Q 2128 4600 2406 4451 
Q 2684 4303 2865 4023 
Q 3047 3744 3150 3342 
Q 3253 2941 3253 2259 
Q 3253 1453 3087 958 
Q 2922 463 2592 192 
Q 2263 -78 1759 -78 
Q 1097 -78 719 397 
Q 266 969 266 2259 
z
M 844 2259 
Q 844 1131 1108 757 
Q 1372 384 1759 384 
Q 2147 384 2411 759 
Q 2675 1134 2675 2259 
Q 2675 3391 2411 3762 
Q 2147 4134 1753 4134 
Q 1366 4134 1134 3806 
Q 844 3388 844 2259 
z
" transform="scale(0.015625)"/>
        <path id="ArialMT-2e" d="M 581 0 
L 581 641 
L 1222 641 
L 1222 0 
L 581 0 
z
" transform="scale(0.015625)"/>
       </defs>
       <use xlink:href="#ArialMT-30"/>
       <use xlink:href="#ArialMT-2e" x="55.615234"/>
       <use xlink:href="#ArialMT-30" x="83.398438"/>
      </g>
     </g>
    </g>
    <g id="xtick_2">
     <g id="line2d_2">
      <g>
       <use xlink:href="#m4621174cb4" x="119.476511" y="286.1835" style="fill: #262626; stroke: #262626"/>
      </g>
     </g>
     <g id="text_2">
      <!-- 0.2 -->
      <g style="fill: #262626" transform="translate(113.360511 300.782375) scale(0.088 -0.088)">
       <defs>
        <path id="ArialMT-32" d="M 3222 541 
L 3222 0 
L 194 0 
Q 188 203 259 391 
Q 375 700 629 1000 
Q 884 1300 1366 1694 
Q 2113 2306 2375 2664 
Q 2638 3022 2638 3341 
Q 2638 3675 2398 3904 
Q 2159 4134 1775 4134 
Q 1369 4134 1125 3890 
Q 881 3647 878 3216 
L 300 3275 
Q 359 3922 746 4261 
Q 1134 4600 1788 4600 
Q 2447 4600 2831 4234 
Q 3216 3869 3216 3328 
Q 3216 3053 3103 2787 
Q 2991 2522 2730 2228 
Q 2469 1934 1863 1422 
Q 1356 997 1212 845 
Q 1069 694 975 541 
L 3222 541 
z
" transform="scale(0.015625)"/>
       </defs>
       <use xlink:href="#ArialMT-30"/>
       <use xlink:href="#ArialMT-2e" x="55.615234"/>
       <use xlink:href="#ArialMT-32" x="83.398438"/>
      </g>
     </g>
    </g>
    <g id="xtick_3">
     <g id="line2d_3">
      <g>
       <use xlink:href="#m4621174cb4" x="184.40742" y="286.1835" style="fill: #262626; stroke: #262626"/>
      </g>
     </g>
     <g id="text_3">
      <!-- 0.4 -->
      <g style="fill: #262626" transform="translate(178.29142 300.782375) scale(0.088 -0.088)">
       <defs>
        <path id="ArialMT-34" d="M 2069 0 
L 2069 1097 
L 81 1097 
L 81 1613 
L 2172 4581 
L 2631 4581 
L 2631 1613 
L 3250 1613 
L 3250 1097 
L 2631 1097 
L 2631 0 
L 2069 0 
z
M 2069 1613 
L 2069 3678 
L 634 1613 
L 2069 1613 
z
" transform="scale(0.015625)"/>
       </defs>
       <use xlink:href="#ArialMT-30"/>
       <use xlink:href="#ArialMT-2e" x="55.615234"/>
       <use xlink:href="#ArialMT-34" x="83.398438"/>
      </g>
     </g>
    </g>
    <g id="xtick_4">
     <g id="line2d_4">
      <g>
       <use xlink:href="#m4621174cb4" x="249.33833" y="286.1835" style="fill: #262626; stroke: #262626"/>
      </g>
     </g>
     <g id="text_4">
      <!-- 0.6 -->
      <g style="fill: #262626" transform="translate(243.22233 300.782375) scale(0.088 -0.088)">
       <defs>
        <path id="ArialMT-36" d="M 3184 3459 
L 2625 3416 
Q 2550 3747 2413 3897 
Q 2184 4138 1850 4138 
Q 1581 4138 1378 3988 
Q 1113 3794 959 3422 
Q 806 3050 800 2363 
Q 1003 2672 1297 2822 
Q 1591 2972 1913 2972 
Q 2475 2972 2870 2558 
Q 3266 2144 3266 1488 
Q 3266 1056 3080 686 
Q 2894 316 2569 119 
Q 2244 -78 1831 -78 
Q 1128 -78 684 439 
Q 241 956 241 2144 
Q 241 3472 731 4075 
Q 1159 4600 1884 4600 
Q 2425 4600 2770 4297 
Q 3116 3994 3184 3459 
z
M 888 1484 
Q 888 1194 1011 928 
Q 1134 663 1356 523 
Q 1578 384 1822 384 
Q 2178 384 2434 671 
Q 2691 959 2691 1453 
Q 2691 1928 2437 2201 
Q 2184 2475 1800 2475 
Q 1419 2475 1153 2201 
Q 888 1928 888 1484 
z
" transform="scale(0.015625)"/>
       </defs>
       <use xlink:href="#ArialMT-30"/>
       <use xlink:href="#ArialMT-2e" x="55.615234"/>
       <use xlink:href="#ArialMT-36" x="83.398438"/>
      </g>
     </g>
    </g>
    <g id="xtick_5">
     <g id="line2d_5">
      <g>
       <use xlink:href="#m4621174cb4" x="314.269239" y="286.1835" style="fill: #262626; stroke: #262626"/>
      </g>
     </g>
     <g id="text_5">
      <!-- 0.8 -->
      <g style="fill: #262626" transform="translate(308.153239 300.782375) scale(0.088 -0.088)">
       <defs>
        <path id="ArialMT-38" d="M 1131 2484 
Q 781 2613 612 2850 
Q 444 3088 444 3419 
Q 444 3919 803 4259 
Q 1163 4600 1759 4600 
Q 2359 4600 2725 4251 
Q 3091 3903 3091 3403 
Q 3091 3084 2923 2848 
Q 2756 2613 2416 2484 
Q 2838 2347 3058 2040 
Q 3278 1734 3278 1309 
Q 3278 722 2862 322 
Q 2447 -78 1769 -78 
Q 1091 -78 675 323 
Q 259 725 259 1325 
Q 259 1772 486 2073 
Q 713 2375 1131 2484 
z
M 1019 3438 
Q 1019 3113 1228 2906 
Q 1438 2700 1772 2700 
Q 2097 2700 2305 2904 
Q 2513 3109 2513 3406 
Q 2513 3716 2298 3927 
Q 2084 4138 1766 4138 
Q 1444 4138 1231 3931 
Q 1019 3725 1019 3438 
z
M 838 1322 
Q 838 1081 952 856 
Q 1066 631 1291 507 
Q 1516 384 1775 384 
Q 2178 384 2440 643 
Q 2703 903 2703 1303 
Q 2703 1709 2433 1975 
Q 2163 2241 1756 2241 
Q 1359 2241 1098 1978 
Q 838 1716 838 1322 
z
" transform="scale(0.015625)"/>
       </defs>
       <use xlink:href="#ArialMT-30"/>
       <use xlink:href="#ArialMT-2e" x="55.615234"/>
       <use xlink:href="#ArialMT-38" x="83.398438"/>
      </g>
     </g>
    </g>
    <g id="xtick_6">
     <g id="line2d_6">
      <g>
       <use xlink:href="#m4621174cb4" x="379.200148" y="286.1835" style="fill: #262626; stroke: #262626"/>
      </g>
     </g>
     <g id="text_6">
      <!-- 1.0 -->
      <g style="fill: #262626" transform="translate(373.084148 300.782375) scale(0.088 -0.088)">
       <defs>
        <path id="ArialMT-31" d="M 2384 0 
L 1822 0 
L 1822 3584 
Q 1619 3391 1289 3197 
Q 959 3003 697 2906 
L 697 3450 
Q 1169 3672 1522 3987 
Q 1875 4303 2022 4600 
L 2384 4600 
L 2384 0 
z
" transform="scale(0.015625)"/>
       </defs>
       <use xlink:href="#ArialMT-31"/>
       <use xlink:href="#ArialMT-2e" x="55.615234"/>
       <use xlink:href="#ArialMT-30" x="83.398438"/>
      </g>
     </g>
    </g>
    <g id="text_7">
     <!-- $x$ -->
     <g style="fill: #262626" transform="translate(213.992875 313.402875) scale(0.096 -0.096)">
      <defs>
       <path id="DejaVuSans-Oblique-78" d="M 3841 3500 
L 2234 1784 
L 3219 0 
L 2559 0 
L 1819 1388 
L 531 0 
L -166 0 
L 1556 1844 
L 641 3500 
L 1300 3500 
L 1972 2234 
L 3144 3500 
L 3841 3500 
z
" transform="scale(0.015625)"/>
      </defs>
      <use xlink:href="#DejaVuSans-Oblique-78" transform="translate(0 0.3125)"/>
     </g>
    </g>
   </g>
   <g id="matplotlib.axis_2">
    <g id="ytick_1">
     <g id="line2d_7">
      <defs>
       <path id="mbed42f578c" d="M 0 0 
L -4.8 0 
" style="stroke: #262626"/>
      </defs>
      <g>
       <use xlink:href="#mbed42f578c" x="38.312875" y="247.956507" style="fill: #262626; stroke: #262626"/>
      </g>
     </g>
     <g id="text_8">
      <!-- −8 -->
      <g style="fill: #262626" transform="translate(19.9795 251.105945) scale(0.088 -0.088)">
       <defs>
        <path id="ArialMT-2212" d="M 3381 1997 
L 356 1997 
L 356 2522 
L 3381 2522 
L 3381 1997 
z
" transform="scale(0.015625)"/>
       </defs>
       <use xlink:href="#ArialMT-2212"/>
       <use xlink:href="#ArialMT-38" x="58.398438"/>
      </g>
     </g>
    </g>
    <g id="ytick_2">
     <g id="line2d_8">
      <g>
       <use xlink:href="#mbed42f578c" x="38.312875" y="201.698066" style="fill: #262626; stroke: #262626"/>
      </g>
     </g>
     <g id="text_9">
      <!-- −6 -->
      <g style="fill: #262626" transform="translate(19.9795 204.847503) scale(0.088 -0.088)">
       <use xlink:href="#ArialMT-2212"/>
       <use xlink:href="#ArialMT-36" x="58.398438"/>
      </g>
     </g>
    </g>
    <g id="ytick_3">
     <g id="line2d_9">
      <g>
       <use xlink:href="#mbed42f578c" x="38.312875" y="155.439624" style="fill: #262626; stroke: #262626"/>
      </g>
     </g>
     <g id="text_10">
      <!-- −4 -->
      <g style="fill: #262626" transform="translate(19.9795 158.589062) scale(0.088 -0.088)">
       <use xlink:href="#ArialMT-2212"/>
       <use xlink:href="#ArialMT-34" x="58.398438"/>
      </g>
     </g>
    </g>
    <g id="ytick_4">
     <g id="line2d_10">
      <g>
       <use xlink:href="#mbed42f578c" x="38.312875" y="109.181183" style="fill: #262626; stroke: #262626"/>
      </g>
     </g>
     <g id="text_11">
      <!-- −2 -->
      <g style="fill: #262626" transform="translate(19.9795 112.330621) scale(0.088 -0.088)">
       <use xlink:href="#ArialMT-2212"/>
       <use xlink:href="#ArialMT-32" x="58.398438"/>
      </g>
     </g>
    </g>
    <g id="ytick_5">
     <g id="line2d_11">
      <g>
       <use xlink:href="#mbed42f578c" x="38.312875" y="62.922742" style="fill: #262626; stroke: #262626"/>
      </g>
     </g>
     <g id="text_12">
      <!-- 0 -->
      <g style="fill: #262626" transform="translate(25.11925 66.072179) scale(0.088 -0.088)">
       <use xlink:href="#ArialMT-30"/>
      </g>
     </g>
    </g>
    <g id="text_13">
     <!-- $y$ -->
     <g style="fill: #262626" transform="translate(13.9635 156.0075) rotate(-90) scale(0.096 -0.096)">
      <defs>
       <path id="DejaVuSans-Oblique-79" d="M 1588 -325 
Q 1188 -997 936 -1164 
Q 684 -1331 294 -1331 
L -159 -1331 
L -63 -850 
L 269 -850 
Q 509 -850 678 -719 
Q 847 -588 1056 -206 
L 1234 128 
L 459 3500 
L 1069 3500 
L 1650 819 
L 3256 3500 
L 3859 3500 
L 1588 -325 
z
" transform="scale(0.015625)"/>
      </defs>
      <use xlink:href="#DejaVuSans-Oblique-79" transform="translate(0 0.3125)"/>
     </g>
    </g>
   </g>
   <g id="PolyCollection_1">
    <defs>
     <path id="m52a5925e11" d="M 54.545602 -202.950327 
L 54.545602 -149.890717 
L 57.824941 -152.278677 
L 61.10428 -154.787073 
L 64.383619 -157.472801 
L 67.662958 -160.401044 
L 70.942296 -163.632217 
L 74.221636 -167.211725 
L 77.500973 -171.16369 
L 80.780313 -175.489776 
L 84.059653 -180.170352 
L 87.33899 -185.167104 
L 90.61833 -190.427015 
L 93.89767 -195.885778 
L 97.177007 -201.471432 
L 100.456344 -207.107704 
L 103.735686 -212.716674 
L 107.015024 -218.221501 
L 110.294361 -223.548524 
L 113.573703 -228.627493 
L 116.853041 -233.392817 
L 120.132378 -237.782959 
L 123.41172 -241.739109 
L 126.691057 -245.200836 
L 129.970395 -248.103628 
L 133.249737 -250.372704 
L 136.529069 -251.923766 
L 139.808412 -252.673874 
L 143.087754 -252.571666 
L 146.367086 -251.628404 
L 149.646428 -249.916544 
L 152.92577 -247.537947 
L 156.205103 -244.591446 
L 159.484445 -241.158615 
L 162.763787 -237.301829 
L 166.04312 -233.066013 
L 169.322462 -228.480842 
L 172.601804 -223.563382 
L 175.881137 -218.319446 
L 179.160479 -212.746386 
L 182.439821 -206.836256 
L 185.719153 -200.579665 
L 188.998496 -193.969798 
L 192.277838 -187.006791 
L 195.55717 -179.701024 
L 198.836512 -172.075359 
L 202.115855 -164.16629 
L 205.395187 -156.023773 
L 208.674529 -147.710198 
L 211.953871 -139.298798 
L 215.233204 -130.871769 
L 218.512556 -122.517983 
L 221.791879 -114.331196 
L 225.071221 -106.407106 
L 228.350563 -98.841852 
L 231.629886 -91.729343 
L 234.909247 -85.158783 
L 238.18857 -79.212798 
L 241.467912 -73.964389 
L 244.747254 -69.474734 
L 248.026597 -65.79054 
L 251.305939 -62.941142 
L 254.585262 -60.936093 
L 257.864623 -59.762158 
L 261.143946 -59.381464 
L 264.423288 -59.73077 
L 267.70263 -60.724185 
L 270.981953 -62.261323 
L 274.261315 -64.243167 
L 277.540637 -66.593508 
L 280.81998 -69.279236 
L 284.099322 -72.316874 
L 287.378664 -75.761709 
L 290.658006 -79.685187 
L 293.937329 -84.151802 
L 297.21669 -89.204151 
L 300.496013 -94.855058 
L 303.775355 -101.088025 
L 307.054697 -107.858307 
L 310.33402 -115.097824 
L 313.613382 -122.718885 
L 316.892705 -130.619439 
L 320.172047 -138.68696 
L 323.451389 -146.803272 
L 326.730731 -154.848228 
L 330.010073 -162.704358 
L 333.289396 -170.259444 
L 336.568738 -177.410476 
L 339.84808 -184.066014 
L 343.127423 -190.146937 
L 346.406765 -195.587562 
L 349.686088 -200.333358 
L 352.96543 -204.339915 
L 356.244772 -207.566577 
L 359.524114 -209.974213 
L 362.803456 -211.52292 
L 366.082798 -212.177704 
L 369.362141 -211.921327 
L 372.641463 -210.770613 
L 375.920806 -208.785411 
L 379.200148 -206.065763 
L 379.200148 -250.255794 
L 379.200148 -250.255794 
L 375.920806 -249.255394 
L 372.641463 -248.547909 
L 369.362141 -248.097281 
L 366.082798 -247.831488 
L 362.803456 -247.642131 
L 359.524114 -247.396024 
L 356.244772 -246.957275 
L 352.96543 -246.20133 
L 349.686088 -245.025148 
L 346.406765 -243.347596 
L 343.127423 -241.107287 
L 339.84808 -238.260633 
L 336.568738 -234.779737 
L 333.289396 -230.651076 
L 330.010073 -225.875478 
L 326.730731 -220.46843 
L 323.451389 -214.460226 
L 320.172047 -207.896616 
L 316.892705 -200.839539 
L 313.613382 -193.36675 
L 310.33402 -185.572156 
L 307.054697 -177.566358 
L 303.775355 -169.475374 
L 300.496013 -161.441629 
L 297.21669 -153.623879 
L 293.937329 -146.195824 
L 290.658006 -139.345759 
L 287.378664 -133.271519 
L 284.099322 -128.170578 
L 280.81998 -124.222253 
L 277.540637 -121.563511 
L 274.261315 -120.26452 
L 270.981953 -120.317822 
L 267.70263 -121.645621 
L 264.423288 -124.1205 
L 261.143946 -127.588904 
L 257.864623 -131.889249 
L 254.585262 -136.862564 
L 251.305939 -142.358416 
L 248.026597 -148.237555 
L 244.747254 -154.373258 
L 241.467912 -160.652171 
L 238.18857 -166.97498 
L 234.909247 -173.256992 
L 231.629886 -179.428638 
L 228.350563 -185.435216 
L 225.071221 -191.236932 
L 221.791879 -196.808254 
L 218.512556 -202.136793 
L 215.233204 -207.221826 
L 211.953871 -212.072257 
L 208.674529 -216.704378 
L 205.395187 -221.138891 
L 202.115855 -225.397961 
L 198.836512 -229.501925 
L 195.55717 -233.4663 
L 192.277838 -237.299009 
L 188.998496 -240.998746 
L 185.719153 -244.554094 
L 182.439821 -247.944434 
L 179.160479 -251.141906 
L 175.881137 -254.114311 
L 172.601804 -256.828623 
L 169.322462 -259.253874 
L 166.04312 -261.364566 
L 162.763787 -263.143201 
L 159.484445 -264.5825 
L 156.205103 -265.688447 
L 152.92577 -266.484032 
L 149.646428 -267.012215 
L 146.367086 -267.335413 
L 143.087754 -267.523074 
L 139.808412 -267.621084 
L 136.529069 -267.62146 
L 133.249737 -267.462672 
L 129.970395 -267.062298 
L 126.691057 -266.348205 
L 123.41172 -265.270702 
L 120.132378 -263.803614 
L 116.853041 -261.938852 
L 113.573703 -259.683131 
L 110.294361 -257.053977 
L 107.015024 -254.07702 
L 103.735686 -250.784234 
L 100.456344 -247.213922 
L 97.177007 -243.408708 
L 93.89767 -239.415741 
L 90.61833 -235.287456 
L 87.33899 -231.08129 
L 84.059653 -226.861037 
L 80.780313 -222.697856 
L 77.500973 -218.671385 
L 74.221636 -214.871735 
L 70.942296 -211.40007 
L 67.662958 -208.367582 
L 64.383619 -205.893437 
L 61.10428 -204.097241 
L 57.824941 -203.087962 
L 54.545602 -202.950327 
z
" style="stroke: #1f77b4; stroke-opacity: 0.5; stroke-width: 0.8"/>
    </defs>
    <g clip-path="url(#p5afb42d206)">
     <use xlink:href="#m52a5925e11" x="0" y="322.510875" style="fill: #1f77b4; fill-opacity: 0.5; stroke: #1f77b4; stroke-opacity: 0.5; stroke-width: 0.8"/>
    </g>
   </g>
   <g id="PolyCollection_2">
    <defs>
     <path id="md9c213d184" d="M 54.545602 -149.890717 
L 54.545602 -136.926631 
L 57.824941 -138.936279 
L 61.10428 -141.182386 
L 64.383619 -143.708427 
L 67.662958 -146.553976 
L 70.942296 -149.748709 
L 74.221636 -153.308366 
L 77.500973 -157.232218 
L 80.780313 -161.502751 
L 84.059653 -166.086527 
L 87.33899 -170.935955 
L 90.61833 -175.991915 
L 93.89767 -181.18637 
L 97.177007 -186.445328 
L 100.456344 -191.691608 
L 103.735686 -196.847418 
L 107.015024 -201.836846 
L 110.294361 -206.587886 
L 113.573703 -211.033558 
L 116.853041 -215.113471 
L 120.132378 -218.774447 
L 123.41172 -221.971251 
L 126.691057 -224.665999 
L 129.970395 -226.82918 
L 133.249737 -228.43894 
L 136.529069 -229.48166 
L 139.808412 -229.951583 
L 143.087754 -229.850953 
L 146.367086 -229.18975 
L 149.646428 -227.984832 
L 152.92577 -226.259145 
L 156.205103 -224.039976 
L 159.484445 -221.35696 
L 162.763787 -218.239997 
L 166.04312 -214.716989 
L 169.322462 -210.811613 
L 172.601804 -206.542155 
L 175.881137 -201.920302 
L 179.160479 -196.951409 
L 182.439821 -191.635515 
L 185.719153 -185.96941 
L 188.998496 -179.949383 
L 192.277838 -173.574877 
L 195.55717 -166.851886 
L 198.836512 -159.796077 
L 202.115855 -152.435144 
L 205.395187 -144.80998 
L 208.674529 -136.974717 
L 211.953871 -128.995791 
L 215.233204 -120.950328 
L 218.512556 -112.923681 
L 221.791879 -105.007355 
L 225.071221 -97.295692 
L 228.350563 -89.88397 
L 231.629886 -82.865329 
L 234.909247 -76.328207 
L 238.18857 -70.354088 
L 241.467912 -65.01457 
L 244.747254 -60.369408 
L 248.026597 -56.46393 
L 251.305939 -53.327231 
L 254.585262 -50.97078 
L 257.864623 -49.387387 
L 261.143946 -48.551883 
L 264.423288 -48.423375 
L 267.70263 -48.949937 
L 270.981953 -50.075787 
L 274.261315 -51.750322 
L 277.540637 -53.93673 
L 280.81998 -56.618202 
L 284.099322 -59.798112 
L 287.378664 -63.49488 
L 290.658006 -67.7329 
L 293.937329 -72.532246 
L 297.21669 -77.900649 
L 300.496013 -83.827013 
L 303.775355 -90.280083 
L 307.054697 -97.206943 
L 310.33402 -104.535485 
L 313.613382 -112.176519 
L 316.892705 -120.027708 
L 320.172047 -127.976988 
L 323.451389 -135.907 
L 326.730731 -143.698799 
L 330.010073 -151.236636 
L 333.289396 -158.410939 
L 336.568738 -165.122603 
L 339.84808 -171.285989 
L 343.127423 -176.830501 
L 346.406765 -181.702615 
L 349.686088 -185.865176 
L 352.96543 -189.297968 
L 356.244772 -191.993749 
L 359.524114 -193.957098 
L 362.803456 -195.201039 
L 366.082798 -195.744773 
L 369.362141 -195.612907 
L 372.641463 -194.835156 
L 375.920806 -193.448049 
L 379.200148 -191.498437 
L 379.200148 -206.065763 
L 379.200148 -206.065763 
L 375.920806 -208.785411 
L 372.641463 -210.770613 
L 369.362141 -211.921327 
L 366.082798 -212.177704 
L 362.803456 -211.52292 
L 359.524114 -209.974213 
L 356.244772 -207.566577 
L 352.96543 -204.339915 
L 349.686088 -200.333358 
L 346.406765 -195.587562 
L 343.127423 -190.146937 
L 339.84808 -184.066014 
L 336.568738 -177.410476 
L 333.289396 -170.259444 
L 330.010073 -162.704358 
L 326.730731 -154.848228 
L 323.451389 -146.803272 
L 320.172047 -138.68696 
L 316.892705 -130.619439 
L 313.613382 -122.718885 
L 310.33402 -115.097824 
L 307.054697 -107.858307 
L 303.775355 -101.088025 
L 300.496013 -94.855058 
L 297.21669 -89.204151 
L 293.937329 -84.151802 
L 290.658006 -79.685187 
L 287.378664 -75.761709 
L 284.099322 -72.316874 
L 280.81998 -69.279236 
L 277.540637 -66.593508 
L 274.261315 -64.243167 
L 270.981953 -62.261323 
L 267.70263 -60.724185 
L 264.423288 -59.73077 
L 261.143946 -59.381464 
L 257.864623 -59.762158 
L 254.585262 -60.936093 
L 251.305939 -62.941142 
L 248.026597 -65.79054 
L 244.747254 -69.474734 
L 241.467912 -73.964389 
L 238.18857 -79.212798 
L 234.909247 -85.158783 
L 231.629886 -91.729343 
L 228.350563 -98.841852 
L 225.071221 -106.407106 
L 221.791879 -114.331196 
L 218.512556 -122.517983 
L 215.233204 -130.871769 
L 211.953871 -139.298798 
L 208.674529 -147.710198 
L 205.395187 -156.023773 
L 202.115855 -164.16629 
L 198.836512 -172.075359 
L 195.55717 -179.701024 
L 192.277838 -187.006791 
L 188.998496 -193.969798 
L 185.719153 -200.579665 
L 182.439821 -206.836256 
L 179.160479 -212.746386 
L 175.881137 -218.319446 
L 172.601804 -223.563382 
L 169.322462 -228.480842 
L 166.04312 -233.066013 
L 162.763787 -237.301829 
L 159.484445 -241.158615 
L 156.205103 -244.591446 
L 152.92577 -247.537947 
L 149.646428 -249.916544 
L 146.367086 -251.628404 
L 143.087754 -252.571666 
L 139.808412 -252.673874 
L 136.529069 -251.923766 
L 133.249737 -250.372704 
L 129.970395 -248.103628 
L 126.691057 -245.200836 
L 123.41172 -241.739109 
L 120.132378 -237.782959 
L 116.853041 -233.392817 
L 113.573703 -228.627493 
L 110.294361 -223.548524 
L 107.015024 -218.221501 
L 103.735686 -212.716674 
L 100.456344 -207.107704 
L 97.177007 -201.471432 
L 93.89767 -195.885778 
L 90.61833 -190.427015 
L 87.33899 -185.167104 
L 84.059653 -180.170352 
L 80.780313 -175.489776 
L 77.500973 -171.16369 
L 74.221636 -167.211725 
L 70.942296 -163.632217 
L 67.662958 -160.401044 
L 64.383619 -157.472801 
L 61.10428 -154.787073 
L 57.824941 -152.278677 
L 54.545602 -149.890717 
z
" style="stroke: #ff7f0e; stroke-opacity: 0.5; stroke-width: 0.8"/>
    </defs>
    <g clip-path="url(#p5afb42d206)">
     <use xlink:href="#md9c213d184" x="0" y="322.510875" style="fill: #ff7f0e; fill-opacity: 0.5; stroke: #ff7f0e; stroke-opacity: 0.5; stroke-width: 0.8"/>
    </g>
   </g>
   <g id="PolyCollection_3">
    <defs>
     <path id="m08b3cf2ad5" d="M 54.545602 -215.914418 
L 54.545602 -202.950327 
L 57.824941 -203.087962 
L 61.10428 -204.097241 
L 64.383619 -205.893437 
L 67.662958 -208.367582 
L 70.942296 -211.40007 
L 74.221636 -214.871735 
L 77.500973 -218.671385 
L 80.780313 -222.697856 
L 84.059653 -226.861037 
L 87.33899 -231.08129 
L 90.61833 -235.287456 
L 93.89767 -239.415741 
L 97.177007 -243.408708 
L 100.456344 -247.213922 
L 103.735686 -250.784234 
L 107.015024 -254.07702 
L 110.294361 -257.053977 
L 113.573703 -259.683131 
L 116.853041 -261.938852 
L 120.132378 -263.803614 
L 123.41172 -265.270702 
L 126.691057 -266.348205 
L 129.970395 -267.062298 
L 133.249737 -267.462672 
L 136.529069 -267.62146 
L 139.808412 -267.621084 
L 143.087754 -267.523074 
L 146.367086 -267.335413 
L 149.646428 -267.012215 
L 152.92577 -266.484032 
L 156.205103 -265.688447 
L 159.484445 -264.5825 
L 162.763787 -263.143201 
L 166.04312 -261.364566 
L 169.322462 -259.253874 
L 172.601804 -256.828623 
L 175.881137 -254.114311 
L 179.160479 -251.141906 
L 182.439821 -247.944434 
L 185.719153 -244.554094 
L 188.998496 -240.998746 
L 192.277838 -237.299009 
L 195.55717 -233.4663 
L 198.836512 -229.501925 
L 202.115855 -225.397961 
L 205.395187 -221.138891 
L 208.674529 -216.704378 
L 211.953871 -212.072257 
L 215.233204 -207.221826 
L 218.512556 -202.136793 
L 221.791879 -196.808254 
L 225.071221 -191.236932 
L 228.350563 -185.435216 
L 231.629886 -179.428638 
L 234.909247 -173.256992 
L 238.18857 -166.97498 
L 241.467912 -160.652171 
L 244.747254 -154.373258 
L 248.026597 -148.237555 
L 251.305939 -142.358416 
L 254.585262 -136.862564 
L 257.864623 -131.889249 
L 261.143946 -127.588904 
L 264.423288 -124.1205 
L 267.70263 -121.645621 
L 270.981953 -120.317822 
L 274.261315 -120.26452 
L 277.540637 -121.563511 
L 280.81998 -124.222253 
L 284.099322 -128.170578 
L 287.378664 -133.271519 
L 290.658006 -139.345759 
L 293.937329 -146.195824 
L 297.21669 -153.623879 
L 300.496013 -161.441629 
L 303.775355 -169.475374 
L 307.054697 -177.566358 
L 310.33402 -185.572156 
L 313.613382 -193.36675 
L 316.892705 -200.839539 
L 320.172047 -207.896616 
L 323.451389 -214.460226 
L 326.730731 -220.46843 
L 330.010073 -225.875478 
L 333.289396 -230.651076 
L 336.568738 -234.779737 
L 339.84808 -238.260633 
L 343.127423 -241.107287 
L 346.406765 -243.347596 
L 349.686088 -245.025148 
L 352.96543 -246.20133 
L 356.244772 -246.957275 
L 359.524114 -247.396024 
L 362.803456 -247.642131 
L 366.082798 -247.831488 
L 369.362141 -248.097281 
L 372.641463 -248.547909 
L 375.920806 -249.255394 
L 379.200148 -250.255794 
L 379.200148 -264.823117 
L 379.200148 -264.823117 
L 375.920806 -264.592754 
L 372.641463 -264.483367 
L 369.362141 -264.405704 
L 366.082798 -264.264419 
L 362.803456 -263.964015 
L 359.524114 -263.413139 
L 356.244772 -262.530101 
L 352.96543 -261.243277 
L 349.686088 -259.493332 
L 346.406765 -257.232543 
L 343.127423 -254.423721 
L 339.84808 -251.040656 
L 336.568738 -247.067601 
L 333.289396 -242.499577 
L 330.010073 -237.343199 
L 326.730731 -231.617856 
L 323.451389 -225.356498 
L 320.172047 -218.606594 
L 316.892705 -211.43127 
L 313.613382 -203.909116 
L 310.33402 -196.134501 
L 307.054697 -188.217723 
L 303.775355 -180.28331 
L 300.496013 -172.469674 
L 297.21669 -164.927381 
L 293.937329 -157.815369 
L 290.658006 -151.298045 
L 287.378664 -145.538338 
L 284.099322 -140.689329 
L 280.81998 -136.883287 
L 277.540637 -134.220289 
L 274.261315 -132.757364 
L 270.981953 -132.503369 
L 267.70263 -133.419869 
L 264.423288 -135.427895 
L 261.143946 -138.418484 
L 257.864623 -142.264009 
L 254.585262 -146.827867 
L 251.305939 -151.972317 
L 248.026597 -157.564165 
L 244.747254 -163.478596 
L 241.467912 -169.601969 
L 238.18857 -175.833695 
L 234.909247 -182.087572 
L 231.629886 -188.292647 
L 228.350563 -194.393102 
L 225.071221 -200.348346 
L 221.791879 -206.132096 
L 218.512556 -211.731096 
L 215.233204 -217.143266 
L 211.953871 -222.375264 
L 208.674529 -227.439871 
L 205.395187 -232.352693 
L 202.115855 -237.129104 
L 198.836512 -241.781201 
L 195.55717 -246.315432 
L 192.277838 -250.730926 
L 188.998496 -255.019164 
L 185.719153 -259.164352 
L 182.439821 -263.145176 
L 179.160479 -266.93688 
L 175.881137 -270.513458 
L 172.601804 -273.849849 
L 169.322462 -276.923105 
L 166.04312 -279.713588 
L 162.763787 -282.205033 
L 159.484445 -284.384156 
L 156.205103 -286.239918 
L 152.92577 -287.762834 
L 149.646428 -288.943927 
L 146.367086 -289.774067 
L 143.087754 -290.243787 
L 139.808412 -290.343375 
L 136.529069 -290.063567 
L 133.249737 -289.396436 
L 129.970395 -288.336746 
L 126.691057 -286.883042 
L 123.41172 -285.038559 
L 120.132378 -282.812125 
L 116.853041 -280.218198 
L 113.573703 -277.277065 
L 110.294361 -274.014617 
L 107.015024 -270.461677 
L 103.735686 -266.653496 
L 100.456344 -262.630018 
L 97.177007 -258.434808 
L 93.89767 -254.115149 
L 90.61833 -249.722559 
L 87.33899 -245.312442 
L 84.059653 -240.944859 
L 80.780313 -236.68488 
L 77.500973 -232.60285 
L 74.221636 -228.775092 
L 70.942296 -225.283583 
L 67.662958 -222.21465 
L 64.383619 -219.657805 
L 61.10428 -217.701937 
L 57.824941 -216.43036 
L 54.545602 -215.914418 
z
" style="stroke: #ff7f0e; stroke-opacity: 0.5; stroke-width: 0.8"/>
    </defs>
    <g clip-path="url(#p5afb42d206)">
     <use xlink:href="#m08b3cf2ad5" x="0" y="322.510875" style="fill: #ff7f0e; fill-opacity: 0.5; stroke: #ff7f0e; stroke-opacity: 0.5; stroke-width: 0.8"/>
    </g>
   </g>
   <g id="line2d_12">
    <defs>
     <path id="m3f026a6e32" d="M -5 5 
L 5 -5 
M -5 -5 
L 5 5 
" style="stroke: #000000; stroke-width: 2"/>
    </defs>
    <g clip-path="url(#p5afb42d206)">
     <use xlink:href="#m3f026a6e32" x="95.766934" y="104.503921" style="stroke: #000000; stroke-width: 2"/>
     <use xlink:href="#m3f026a6e32" x="368.394943" y="79.250188" style="stroke: #000000; stroke-width: 2"/>
     <use xlink:href="#m3f026a6e32" x="139.110317" y="51.742068" style="stroke: #000000; stroke-width: 2"/>
     <use xlink:href="#m3f026a6e32" x="345.837519" y="98.234107" style="stroke: #000000; stroke-width: 2"/>
     <use xlink:href="#m3f026a6e32" x="192.277838" y="110.830474" style="stroke: #000000; stroke-width: 2"/>
     <use xlink:href="#m3f026a6e32" x="277.540637" y="247.031141" style="stroke: #000000; stroke-width: 2"/>
     <use xlink:href="#m3f026a6e32" x="149.646428" y="65.339653" style="stroke: #000000; stroke-width: 2"/>
     <use xlink:href="#m3f026a6e32" x="379.200148" y="112.574298" style="stroke: #000000; stroke-width: 2"/>
     <use xlink:href="#m3f026a6e32" x="146.367086" y="64.194288" style="stroke: #000000; stroke-width: 2"/>
     <use xlink:href="#m3f026a6e32" x="54.545602" y="154.764713" style="stroke: #000000; stroke-width: 2"/>
     <use xlink:href="#m3f026a6e32" x="139.808412" y="62.997595" style="stroke: #000000; stroke-width: 2"/>
     <use xlink:href="#m3f026a6e32" x="143.087754" y="63.413427" style="stroke: #000000; stroke-width: 2"/>
     <use xlink:href="#m3f026a6e32" x="139.808412" y="62.997595" style="stroke: #000000; stroke-width: 2"/>
     <use xlink:href="#m3f026a6e32" x="152.92577" y="66.847713" style="stroke: #000000; stroke-width: 2"/>
     <use xlink:href="#m3f026a6e32" x="133.249737" y="63.256834" style="stroke: #000000; stroke-width: 2"/>
     <use xlink:href="#m3f026a6e32" x="133.249737" y="63.256834" style="stroke: #000000; stroke-width: 2"/>
     <use xlink:href="#m3f026a6e32" x="152.92577" y="66.847713" style="stroke: #000000; stroke-width: 2"/>
     <use xlink:href="#m3f026a6e32" x="129.970395" y="63.926689" style="stroke: #000000; stroke-width: 2"/>
     <use xlink:href="#m3f026a6e32" x="152.92577" y="66.847713" style="stroke: #000000; stroke-width: 2"/>
     <use xlink:href="#m3f026a6e32" x="129.970395" y="63.926689" style="stroke: #000000; stroke-width: 2"/>
     <use xlink:href="#m3f026a6e32" x="129.970395" y="63.926689" style="stroke: #000000; stroke-width: 2"/>
     <use xlink:href="#m3f026a6e32" x="152.92577" y="66.847713" style="stroke: #000000; stroke-width: 2"/>
     <use xlink:href="#m3f026a6e32" x="129.970395" y="63.926689" style="stroke: #000000; stroke-width: 2"/>
     <use xlink:href="#m3f026a6e32" x="152.92577" y="66.847713" style="stroke: #000000; stroke-width: 2"/>
    </g>
   </g>
   <g id="line2d_13">
    <path d="M 54.545602 146.09035 
L 57.824941 144.827556 
L 61.10428 143.068715 
L 64.383619 140.827759 
L 67.662958 138.126562 
L 70.942296 134.994732 
L 74.221636 131.469143 
L 77.500973 127.593339 
L 80.780313 123.417058 
L 84.059653 118.995181 
L 87.33899 114.386678 
L 90.61833 109.653638 
L 93.89767 104.860115 
L 97.177007 100.070805 
L 100.456344 95.350062 
L 103.735686 90.760419 
L 107.015024 86.361614 
L 110.294361 82.209625 
L 113.573703 78.355563 
L 116.853041 74.84504 
L 120.132378 71.717589 
L 123.41172 69.00597 
L 126.691057 66.736355 
L 129.970395 64.927912 
L 133.249737 63.593187 
L 136.529069 62.738262 
L 139.808412 62.363396 
L 143.087754 62.463505 
L 146.367086 63.028966 
L 149.646428 64.046495 
L 152.92577 65.499886 
L 156.205103 67.370928 
L 159.484445 69.640317 
L 162.763787 72.28836 
L 166.04312 75.295586 
L 169.322462 78.643516 
L 172.601804 82.314873 
L 175.881137 86.293996 
L 179.160479 90.56673 
L 182.439821 95.120529 
L 185.719153 99.943996 
L 188.998496 105.026601 
L 192.277838 110.357975 
L 195.55717 115.927213 
L 198.836512 121.722235 
L 202.115855 127.728751 
L 205.395187 133.929541 
L 208.674529 140.303584 
L 211.953871 146.825348 
L 215.233204 153.464078 
L 218.512556 160.183484 
L 221.791879 166.94115 
L 225.071221 173.688856 
L 228.350563 180.372341 
L 231.629886 186.931884 
L 234.909247 193.302988 
L 238.18857 199.416986 
L 241.467912 205.2026 
L 244.747254 210.586873 
L 248.026597 215.496828 
L 251.305939 219.861096 
L 254.585262 223.611552 
L 257.864623 226.685177 
L 261.143946 229.025691 
L 264.423288 230.58524 
L 267.70263 231.325972 
L 270.981953 231.221297 
L 274.261315 230.257032 
L 277.540637 228.43236 
L 280.81998 225.76013 
L 284.099322 222.267154 
L 287.378664 217.994261 
L 290.658006 212.995402 
L 293.937329 207.337062 
L 297.21669 201.09686 
L 300.496013 194.362531 
L 303.775355 187.229178 
L 307.054697 179.798542 
L 310.33402 172.175882 
L 313.613382 164.468057 
L 316.892705 156.781386 
L 320.172047 149.219087 
L 323.451389 141.879125 
L 326.730731 134.852548 
L 330.010073 128.220959 
L 333.289396 122.055615 
L 336.568738 116.41577 
L 339.84808 111.347551 
L 343.127423 106.883764 
L 346.406765 103.043296 
L 349.686088 99.831622 
L 352.96543 97.240251 
L 356.244772 95.24895 
L 359.524114 93.825756 
L 362.803456 92.928348 
L 366.082798 92.506279 
L 369.362141 92.501569 
L 372.641463 92.851615 
L 375.920806 93.490473 
L 379.200148 94.350097 
" clip-path="url(#p5afb42d206)" style="fill: none; stroke: #1f77b4; stroke-width: 2; stroke-linecap: round"/>
   </g>
   <g id="line2d_14">
    <path d="M 54.545602 154.764713 
L 57.824941 149.120379 
L 61.10428 143.496988 
L 64.383619 137.915398 
L 67.662958 132.396385 
L 70.942296 126.960496 
L 74.221636 121.628081 
L 77.500973 116.419128 
L 80.780313 111.353231 
L 84.059653 106.449552 
L 87.33899 101.726697 
L 90.61833 97.202692 
L 93.89767 92.894909 
L 97.177007 88.820005 
L 100.456344 84.993852 
L 103.735686 81.431527 
L 107.015024 78.147206 
L 110.294361 75.154147 
L 113.573703 72.464618 
L 116.853041 70.089893 
L 120.132378 68.040188 
L 123.41172 66.324614 
L 126.691057 64.951166 
L 129.970395 63.926689 
L 133.249737 63.256834 
L 136.529069 62.946057 
L 139.808412 62.997595 
L 143.087754 63.413427 
L 146.367086 64.194288 
L 149.646428 65.339653 
L 152.92577 66.847713 
L 156.205103 68.71537 
L 159.484445 70.938278 
L 162.763787 73.510762 
L 166.04312 76.425902 
L 169.322462 79.675482 
L 172.601804 83.250011 
L 175.881137 87.138731 
L 179.160479 91.329603 
L 182.439821 95.809382 
L 185.719153 100.563498 
L 188.998496 105.576209 
L 192.277838 110.830474 
L 195.55717 116.308095 
L 198.836512 121.989596 
L 202.115855 127.854271 
L 205.395187 133.880209 
L 208.674529 140.044301 
L 211.953871 146.322155 
L 215.233204 152.688202 
L 218.512556 159.115625 
L 221.791879 165.576305 
L 225.071221 172.040955 
L 228.350563 178.478993 
L 231.629886 184.858401 
L 234.909247 191.146149 
L 238.18857 197.307538 
L 241.467912 203.306825 
L 244.747254 209.106755 
L 248.026597 214.668769 
L 251.305939 219.953021 
L 254.585262 224.918231 
L 257.864623 229.521935 
L 261.143946 233.720362 
L 264.423288 237.468646 
L 267.70263 240.720861 
L 270.981953 243.430313 
L 274.261315 245.549621 
L 277.540637 247.031141 
L 280.81998 247.827304 
L 284.099322 247.891128 
L 287.378664 247.176832 
L 290.658006 245.640665 
L 293.937329 243.241808 
L 297.21669 239.943436 
L 300.496013 235.714526 
L 303.775355 230.530845 
L 307.054697 224.377507 
L 310.33402 217.251113 
L 313.613382 209.162097 
L 316.892705 200.138263 
L 320.172047 190.227752 
L 323.451389 179.502968 
L 326.730731 168.064683 
L 330.010073 156.046146 
L 333.289396 143.61744 
L 336.568738 130.989652 
L 339.84808 118.418194 
L 343.127423 106.205577 
L 346.406765 94.702452 
L 349.686088 84.305772 
L 352.96543 75.4539 
L 356.244772 68.617709 
L 359.524114 64.284476 
L 362.803456 62.935563 
L 366.082798 65.014764 
L 369.362141 70.8869 
L 372.641463 80.786205 
L 375.920806 94.754823 
L 379.200148 112.574298 
" clip-path="url(#p5afb42d206)" style="fill: none; stroke-dasharray: 7.68,1.92,1.2,1.92; stroke-dashoffset: 0; stroke: #bf00bf; stroke-width: 1.2"/>
   </g>
   <g id="patch_3">
    <path d="M 38.312875 247.956507 
L 38.312875 62.922742 
" style="fill: none; stroke: #262626; stroke-linejoin: miter; stroke-linecap: square"/>
   </g>
   <g id="patch_4">
    <path d="M 54.545602 286.1835 
L 379.200148 286.1835 
" style="fill: none; stroke: #262626; stroke-linejoin: miter; stroke-linecap: square"/>
   </g>
   <g id="text_14">
    <!-- N=19,  -->
    <g style="fill: #262626" transform="translate(202.597375 14.0715) scale(0.096 -0.096)">
     <defs>
      <path id="ArialMT-4e" d="M 488 0 
L 488 4581 
L 1109 4581 
L 3516 984 
L 3516 4581 
L 4097 4581 
L 4097 0 
L 3475 0 
L 1069 3600 
L 1069 0 
L 488 0 
z
" transform="scale(0.015625)"/>
      <path id="ArialMT-3d" d="M 3381 2694 
L 356 2694 
L 356 3219 
L 3381 3219 
L 3381 2694 
z
M 3381 1303 
L 356 1303 
L 356 1828 
L 3381 1828 
L 3381 1303 
z
" transform="scale(0.015625)"/>
      <path id="ArialMT-39" d="M 350 1059 
L 891 1109 
Q 959 728 1153 556 
Q 1347 384 1650 384 
Q 1909 384 2104 503 
Q 2300 622 2425 820 
Q 2550 1019 2634 1356 
Q 2719 1694 2719 2044 
Q 2719 2081 2716 2156 
Q 2547 1888 2255 1720 
Q 1963 1553 1622 1553 
Q 1053 1553 659 1965 
Q 266 2378 266 3053 
Q 266 3750 677 4175 
Q 1088 4600 1706 4600 
Q 2153 4600 2523 4359 
Q 2894 4119 3086 3673 
Q 3278 3228 3278 2384 
Q 3278 1506 3087 986 
Q 2897 466 2520 194 
Q 2144 -78 1638 -78 
Q 1100 -78 759 220 
Q 419 519 350 1059 
z
M 2653 3081 
Q 2653 3566 2395 3850 
Q 2138 4134 1775 4134 
Q 1400 4134 1122 3828 
Q 844 3522 844 3034 
Q 844 2597 1108 2323 
Q 1372 2050 1759 2050 
Q 2150 2050 2401 2323 
Q 2653 2597 2653 3081 
z
" transform="scale(0.015625)"/>
      <path id="ArialMT-2c" d="M 569 0 
L 569 641 
L 1209 641 
L 1209 0 
Q 1209 -353 1084 -570 
Q 959 -788 688 -906 
L 531 -666 
Q 709 -588 793 -436 
Q 878 -284 888 0 
L 569 0 
z
" transform="scale(0.015625)"/>
      <path id="ArialMT-20" transform="scale(0.015625)"/>
     </defs>
     <use xlink:href="#ArialMT-4e"/>
     <use xlink:href="#ArialMT-3d" x="72.216797"/>
     <use xlink:href="#ArialMT-31" x="130.615234"/>
     <use xlink:href="#ArialMT-39" x="186.230469"/>
     <use xlink:href="#ArialMT-2c" x="241.845703"/>
     <use xlink:href="#ArialMT-20" x="269.628906"/>
    </g>
   </g>
   <g id="legend_1">
    <g id="line2d_15">
     <g>
      <use xlink:href="#m3f026a6e32" x="55.032875" y="219.978625" style="stroke: #000000; stroke-width: 2"/>
     </g>
    </g>
    <g id="text_15">
     <!-- Observations -->
     <g style="fill: #262626" transform="translate(70.872875 223.058625) scale(0.088 -0.088)">
      <defs>
       <path id="ArialMT-4f" d="M 309 2231 
Q 309 3372 921 4017 
Q 1534 4663 2503 4663 
Q 3138 4663 3647 4359 
Q 4156 4056 4423 3514 
Q 4691 2972 4691 2284 
Q 4691 1588 4409 1038 
Q 4128 488 3612 205 
Q 3097 -78 2500 -78 
Q 1853 -78 1343 234 
Q 834 547 571 1087 
Q 309 1628 309 2231 
z
M 934 2222 
Q 934 1394 1379 917 
Q 1825 441 2497 441 
Q 3181 441 3623 922 
Q 4066 1403 4066 2288 
Q 4066 2847 3877 3264 
Q 3688 3681 3323 3911 
Q 2959 4141 2506 4141 
Q 1863 4141 1398 3698 
Q 934 3256 934 2222 
z
" transform="scale(0.015625)"/>
       <path id="ArialMT-62" d="M 941 0 
L 419 0 
L 419 4581 
L 981 4581 
L 981 2947 
Q 1338 3394 1891 3394 
Q 2197 3394 2470 3270 
Q 2744 3147 2920 2923 
Q 3097 2700 3197 2384 
Q 3297 2069 3297 1709 
Q 3297 856 2875 390 
Q 2453 -75 1863 -75 
Q 1275 -75 941 416 
L 941 0 
z
M 934 1684 
Q 934 1088 1097 822 
Q 1363 388 1816 388 
Q 2184 388 2453 708 
Q 2722 1028 2722 1663 
Q 2722 2313 2464 2622 
Q 2206 2931 1841 2931 
Q 1472 2931 1203 2611 
Q 934 2291 934 1684 
z
" transform="scale(0.015625)"/>
       <path id="ArialMT-73" d="M 197 991 
L 753 1078 
Q 800 744 1014 566 
Q 1228 388 1613 388 
Q 2000 388 2187 545 
Q 2375 703 2375 916 
Q 2375 1106 2209 1216 
Q 2094 1291 1634 1406 
Q 1016 1563 777 1677 
Q 538 1791 414 1992 
Q 291 2194 291 2438 
Q 291 2659 392 2848 
Q 494 3038 669 3163 
Q 800 3259 1026 3326 
Q 1253 3394 1513 3394 
Q 1903 3394 2198 3281 
Q 2494 3169 2634 2976 
Q 2775 2784 2828 2463 
L 2278 2388 
Q 2241 2644 2061 2787 
Q 1881 2931 1553 2931 
Q 1166 2931 1000 2803 
Q 834 2675 834 2503 
Q 834 2394 903 2306 
Q 972 2216 1119 2156 
Q 1203 2125 1616 2013 
Q 2213 1853 2448 1751 
Q 2684 1650 2818 1456 
Q 2953 1263 2953 975 
Q 2953 694 2789 445 
Q 2625 197 2315 61 
Q 2006 -75 1616 -75 
Q 969 -75 630 194 
Q 291 463 197 991 
z
" transform="scale(0.015625)"/>
       <path id="ArialMT-65" d="M 2694 1069 
L 3275 997 
Q 3138 488 2766 206 
Q 2394 -75 1816 -75 
Q 1088 -75 661 373 
Q 234 822 234 1631 
Q 234 2469 665 2931 
Q 1097 3394 1784 3394 
Q 2450 3394 2872 2941 
Q 3294 2488 3294 1666 
Q 3294 1616 3291 1516 
L 816 1516 
Q 847 969 1125 678 
Q 1403 388 1819 388 
Q 2128 388 2347 550 
Q 2566 713 2694 1069 
z
M 847 1978 
L 2700 1978 
Q 2663 2397 2488 2606 
Q 2219 2931 1791 2931 
Q 1403 2931 1139 2672 
Q 875 2413 847 1978 
z
" transform="scale(0.015625)"/>
       <path id="ArialMT-72" d="M 416 0 
L 416 3319 
L 922 3319 
L 922 2816 
Q 1116 3169 1280 3281 
Q 1444 3394 1641 3394 
Q 1925 3394 2219 3213 
L 2025 2691 
Q 1819 2813 1613 2813 
Q 1428 2813 1281 2702 
Q 1134 2591 1072 2394 
Q 978 2094 978 1738 
L 978 0 
L 416 0 
z
" transform="scale(0.015625)"/>
       <path id="ArialMT-76" d="M 1344 0 
L 81 3319 
L 675 3319 
L 1388 1331 
Q 1503 1009 1600 663 
Q 1675 925 1809 1294 
L 2547 3319 
L 3125 3319 
L 1869 0 
L 1344 0 
z
" transform="scale(0.015625)"/>
       <path id="ArialMT-61" d="M 2588 409 
Q 2275 144 1986 34 
Q 1697 -75 1366 -75 
Q 819 -75 525 192 
Q 231 459 231 875 
Q 231 1119 342 1320 
Q 453 1522 633 1644 
Q 813 1766 1038 1828 
Q 1203 1872 1538 1913 
Q 2219 1994 2541 2106 
Q 2544 2222 2544 2253 
Q 2544 2597 2384 2738 
Q 2169 2928 1744 2928 
Q 1347 2928 1158 2789 
Q 969 2650 878 2297 
L 328 2372 
Q 403 2725 575 2942 
Q 747 3159 1072 3276 
Q 1397 3394 1825 3394 
Q 2250 3394 2515 3294 
Q 2781 3194 2906 3042 
Q 3031 2891 3081 2659 
Q 3109 2516 3109 2141 
L 3109 1391 
Q 3109 606 3145 398 
Q 3181 191 3288 0 
L 2700 0 
Q 2613 175 2588 409 
z
M 2541 1666 
Q 2234 1541 1622 1453 
Q 1275 1403 1131 1340 
Q 988 1278 909 1158 
Q 831 1038 831 891 
Q 831 666 1001 516 
Q 1172 366 1500 366 
Q 1825 366 2078 508 
Q 2331 650 2450 897 
Q 2541 1088 2541 1459 
L 2541 1666 
z
" transform="scale(0.015625)"/>
       <path id="ArialMT-74" d="M 1650 503 
L 1731 6 
Q 1494 -44 1306 -44 
Q 1000 -44 831 53 
Q 663 150 594 308 
Q 525 466 525 972 
L 525 2881 
L 113 2881 
L 113 3319 
L 525 3319 
L 525 4141 
L 1084 4478 
L 1084 3319 
L 1650 3319 
L 1650 2881 
L 1084 2881 
L 1084 941 
Q 1084 700 1114 631 
Q 1144 563 1211 522 
Q 1278 481 1403 481 
Q 1497 481 1650 503 
z
" transform="scale(0.015625)"/>
       <path id="ArialMT-69" d="M 425 3934 
L 425 4581 
L 988 4581 
L 988 3934 
L 425 3934 
z
M 425 0 
L 425 3319 
L 988 3319 
L 988 0 
L 425 0 
z
" transform="scale(0.015625)"/>
       <path id="ArialMT-6f" d="M 213 1659 
Q 213 2581 725 3025 
Q 1153 3394 1769 3394 
Q 2453 3394 2887 2945 
Q 3322 2497 3322 1706 
Q 3322 1066 3130 698 
Q 2938 331 2570 128 
Q 2203 -75 1769 -75 
Q 1072 -75 642 372 
Q 213 819 213 1659 
z
M 791 1659 
Q 791 1022 1069 705 
Q 1347 388 1769 388 
Q 2188 388 2466 706 
Q 2744 1025 2744 1678 
Q 2744 2294 2464 2611 
Q 2184 2928 1769 2928 
Q 1347 2928 1069 2612 
Q 791 2297 791 1659 
z
" transform="scale(0.015625)"/>
       <path id="ArialMT-6e" d="M 422 0 
L 422 3319 
L 928 3319 
L 928 2847 
Q 1294 3394 1984 3394 
Q 2284 3394 2536 3286 
Q 2788 3178 2913 3003 
Q 3038 2828 3088 2588 
Q 3119 2431 3119 2041 
L 3119 0 
L 2556 0 
L 2556 2019 
Q 2556 2363 2490 2533 
Q 2425 2703 2258 2804 
Q 2091 2906 1866 2906 
Q 1506 2906 1245 2678 
Q 984 2450 984 1813 
L 984 0 
L 422 0 
z
" transform="scale(0.015625)"/>
      </defs>
      <use xlink:href="#ArialMT-4f"/>
      <use xlink:href="#ArialMT-62" x="77.783203"/>
      <use xlink:href="#ArialMT-73" x="133.398438"/>
      <use xlink:href="#ArialMT-65" x="183.398438"/>
      <use xlink:href="#ArialMT-72" x="239.013672"/>
      <use xlink:href="#ArialMT-76" x="272.314453"/>
      <use xlink:href="#ArialMT-61" x="322.314453"/>
      <use xlink:href="#ArialMT-74" x="377.929688"/>
      <use xlink:href="#ArialMT-69" x="405.712891"/>
      <use xlink:href="#ArialMT-6f" x="427.929688"/>
      <use xlink:href="#ArialMT-6e" x="483.544922"/>
      <use xlink:href="#ArialMT-73" x="539.160156"/>
     </g>
    </g>
    <g id="line2d_16">
     <path d="M 46.232875 232.562625 
L 55.032875 232.562625 
L 63.832875 232.562625 
" style="fill: none; stroke: #1f77b4; stroke-width: 2; stroke-linecap: round"/>
    </g>
    <g id="text_16">
     <!-- $m_n(x)$ -->
     <g style="fill: #262626" transform="translate(70.872875 235.642625) scale(0.088 -0.088)">
      <defs>
       <path id="DejaVuSans-Oblique-6d" d="M 5747 2113 
L 5338 0 
L 4763 0 
L 5166 2094 
Q 5191 2228 5203 2325 
Q 5216 2422 5216 2491 
Q 5216 2772 5059 2928 
Q 4903 3084 4622 3084 
Q 4203 3084 3875 2770 
Q 3547 2456 3450 1953 
L 3066 0 
L 2491 0 
L 2900 2094 
Q 2925 2209 2937 2307 
Q 2950 2406 2950 2484 
Q 2950 2769 2794 2926 
Q 2638 3084 2363 3084 
Q 1938 3084 1609 2770 
Q 1281 2456 1184 1953 
L 800 0 
L 225 0 
L 909 3500 
L 1484 3500 
L 1375 2956 
Q 1609 3263 1923 3423 
Q 2238 3584 2597 3584 
Q 2978 3584 3223 3384 
Q 3469 3184 3519 2828 
Q 3781 3197 4126 3390 
Q 4472 3584 4856 3584 
Q 5306 3584 5551 3325 
Q 5797 3066 5797 2591 
Q 5797 2488 5784 2364 
Q 5772 2241 5747 2113 
z
" transform="scale(0.015625)"/>
       <path id="DejaVuSans-Oblique-6e" d="M 3566 2113 
L 3156 0 
L 2578 0 
L 2988 2091 
Q 3016 2238 3031 2350 
Q 3047 2463 3047 2528 
Q 3047 2791 2881 2937 
Q 2716 3084 2419 3084 
Q 1956 3084 1622 2776 
Q 1288 2469 1184 1941 
L 800 0 
L 225 0 
L 903 3500 
L 1478 3500 
L 1363 2950 
Q 1603 3253 1940 3418 
Q 2278 3584 2650 3584 
Q 3113 3584 3367 3334 
Q 3622 3084 3622 2631 
Q 3622 2519 3608 2391 
Q 3594 2263 3566 2113 
z
" transform="scale(0.015625)"/>
       <path id="DejaVuSans-28" d="M 1984 4856 
Q 1566 4138 1362 3434 
Q 1159 2731 1159 2009 
Q 1159 1288 1364 580 
Q 1569 -128 1984 -844 
L 1484 -844 
Q 1016 -109 783 600 
Q 550 1309 550 2009 
Q 550 2706 781 3412 
Q 1013 4119 1484 4856 
L 1984 4856 
z
" transform="scale(0.015625)"/>
       <path id="DejaVuSans-29" d="M 513 4856 
L 1013 4856 
Q 1481 4119 1714 3412 
Q 1947 2706 1947 2009 
Q 1947 1309 1714 600 
Q 1481 -109 1013 -844 
L 513 -844 
Q 928 -128 1133 580 
Q 1338 1288 1338 2009 
Q 1338 2731 1133 3434 
Q 928 4138 513 4856 
z
" transform="scale(0.015625)"/>
      </defs>
      <use xlink:href="#DejaVuSans-Oblique-6d" transform="translate(0 0.125)"/>
      <use xlink:href="#DejaVuSans-Oblique-6e" transform="translate(97.412109 -16.28125) scale(0.7)"/>
      <use xlink:href="#DejaVuSans-28" transform="translate(144.511719 0.125)"/>
      <use xlink:href="#DejaVuSans-Oblique-78" transform="translate(183.525391 0.125)"/>
      <use xlink:href="#DejaVuSans-29" transform="translate(242.705078 0.125)"/>
     </g>
    </g>
    <g id="patch_5">
     <path d="M 46.232875 249.799625 
L 63.832875 249.799625 
L 63.832875 243.639625 
L 46.232875 243.639625 
z
" style="fill: #1f77b4; fill-opacity: 0.5; stroke: #1f77b4; stroke-opacity: 0.5; stroke-width: 0.8; stroke-linejoin: miter"/>
    </g>
    <g id="text_17">
     <!-- $f(\mathbf{x}^*)$ 95% pred. -->
     <g style="fill: #262626" transform="translate(70.872875 249.799625) scale(0.088 -0.088)">
      <defs>
       <path id="DejaVuSans-Oblique-66" d="M 3059 4863 
L 2969 4384 
L 2419 4384 
Q 2106 4384 1964 4261 
Q 1822 4138 1753 3809 
L 1691 3500 
L 2638 3500 
L 2553 3053 
L 1606 3053 
L 1013 0 
L 434 0 
L 1031 3053 
L 481 3053 
L 563 3500 
L 1113 3500 
L 1159 3744 
Q 1278 4363 1576 4613 
Q 1875 4863 2516 4863 
L 3059 4863 
z
" transform="scale(0.015625)"/>
       <path id="DejaVuSans-Bold-78" d="M 1422 1791 
L 159 3500 
L 1344 3500 
L 2059 2463 
L 2784 3500 
L 3969 3500 
L 2706 1797 
L 4031 0 
L 2847 0 
L 2059 1106 
L 1281 0 
L 97 0 
L 1422 1791 
z
" transform="scale(0.015625)"/>
       <path id="DejaVuSans-2a" d="M 3009 3897 
L 1888 3291 
L 3009 2681 
L 2828 2375 
L 1778 3009 
L 1778 1831 
L 1422 1831 
L 1422 3009 
L 372 2375 
L 191 2681 
L 1313 3291 
L 191 3897 
L 372 4206 
L 1422 3572 
L 1422 4750 
L 1778 4750 
L 1778 3572 
L 2828 4206 
L 3009 3897 
z
" transform="scale(0.015625)"/>
       <path id="ArialMT-35" d="M 266 1200 
L 856 1250 
Q 922 819 1161 601 
Q 1400 384 1738 384 
Q 2144 384 2425 690 
Q 2706 997 2706 1503 
Q 2706 1984 2436 2262 
Q 2166 2541 1728 2541 
Q 1456 2541 1237 2417 
Q 1019 2294 894 2097 
L 366 2166 
L 809 4519 
L 3088 4519 
L 3088 3981 
L 1259 3981 
L 1013 2750 
Q 1425 3038 1878 3038 
Q 2478 3038 2890 2622 
Q 3303 2206 3303 1553 
Q 3303 931 2941 478 
Q 2500 -78 1738 -78 
Q 1113 -78 717 272 
Q 322 622 266 1200 
z
" transform="scale(0.015625)"/>
       <path id="ArialMT-25" d="M 372 3481 
Q 372 3972 619 4315 
Q 866 4659 1334 4659 
Q 1766 4659 2048 4351 
Q 2331 4044 2331 3447 
Q 2331 2866 2045 2552 
Q 1759 2238 1341 2238 
Q 925 2238 648 2547 
Q 372 2856 372 3481 
z
M 1350 4272 
Q 1141 4272 1002 4090 
Q 863 3909 863 3425 
Q 863 2984 1003 2804 
Q 1144 2625 1350 2625 
Q 1563 2625 1702 2806 
Q 1841 2988 1841 3469 
Q 1841 3913 1700 4092 
Q 1559 4272 1350 4272 
z
M 1353 -169 
L 3859 4659 
L 4316 4659 
L 1819 -169 
L 1353 -169 
z
M 3334 1075 
Q 3334 1569 3581 1911 
Q 3828 2253 4300 2253 
Q 4731 2253 5014 1945 
Q 5297 1638 5297 1041 
Q 5297 459 5011 145 
Q 4725 -169 4303 -169 
Q 3888 -169 3611 142 
Q 3334 453 3334 1075 
z
M 4316 1866 
Q 4103 1866 3964 1684 
Q 3825 1503 3825 1019 
Q 3825 581 3965 400 
Q 4106 219 4313 219 
Q 4528 219 4667 400 
Q 4806 581 4806 1063 
Q 4806 1506 4665 1686 
Q 4525 1866 4316 1866 
z
" transform="scale(0.015625)"/>
       <path id="ArialMT-70" d="M 422 -1272 
L 422 3319 
L 934 3319 
L 934 2888 
Q 1116 3141 1344 3267 
Q 1572 3394 1897 3394 
Q 2322 3394 2647 3175 
Q 2972 2956 3137 2557 
Q 3303 2159 3303 1684 
Q 3303 1175 3120 767 
Q 2938 359 2589 142 
Q 2241 -75 1856 -75 
Q 1575 -75 1351 44 
Q 1128 163 984 344 
L 984 -1272 
L 422 -1272 
z
M 931 1641 
Q 931 1000 1190 694 
Q 1450 388 1819 388 
Q 2194 388 2461 705 
Q 2728 1022 2728 1688 
Q 2728 2322 2467 2637 
Q 2206 2953 1844 2953 
Q 1484 2953 1207 2617 
Q 931 2281 931 1641 
z
" transform="scale(0.015625)"/>
       <path id="ArialMT-64" d="M 2575 0 
L 2575 419 
Q 2259 -75 1647 -75 
Q 1250 -75 917 144 
Q 584 363 401 755 
Q 219 1147 219 1656 
Q 219 2153 384 2558 
Q 550 2963 881 3178 
Q 1213 3394 1622 3394 
Q 1922 3394 2156 3267 
Q 2391 3141 2538 2938 
L 2538 4581 
L 3097 4581 
L 3097 0 
L 2575 0 
z
M 797 1656 
Q 797 1019 1065 703 
Q 1334 388 1700 388 
Q 2069 388 2326 689 
Q 2584 991 2584 1609 
Q 2584 2291 2321 2609 
Q 2059 2928 1675 2928 
Q 1300 2928 1048 2622 
Q 797 2316 797 1656 
z
" transform="scale(0.015625)"/>
      </defs>
      <use xlink:href="#DejaVuSans-Oblique-66" transform="translate(0 0.765625)"/>
      <use xlink:href="#DejaVuSans-28" transform="translate(35.205078 0.765625)"/>
      <use xlink:href="#DejaVuSans-Bold-78" transform="translate(74.21875 0.765625)"/>
      <use xlink:href="#DejaVuSans-2a" transform="translate(153.31543 39.046875) scale(0.7)"/>
      <use xlink:href="#DejaVuSans-29" transform="translate(204.6875 0.765625)"/>
      <use xlink:href="#ArialMT-20" transform="translate(243.701172 0.765625)"/>
      <use xlink:href="#ArialMT-39" transform="translate(271.484375 0.765625)"/>
      <use xlink:href="#ArialMT-35" transform="translate(327.099609 0.765625)"/>
      <use xlink:href="#ArialMT-25" transform="translate(382.714844 0.765625)"/>
      <use xlink:href="#ArialMT-20" transform="translate(471.630859 0.765625)"/>
      <use xlink:href="#ArialMT-70" transform="translate(499.414062 0.765625)"/>
      <use xlink:href="#ArialMT-72" transform="translate(555.029297 0.765625)"/>
      <use xlink:href="#ArialMT-65" transform="translate(588.330078 0.765625)"/>
      <use xlink:href="#ArialMT-64" transform="translate(643.945312 0.765625)"/>
      <use xlink:href="#ArialMT-2e" transform="translate(699.560547 0.765625)"/>
     </g>
    </g>
    <g id="patch_6">
     <path d="M 46.232875 263.967625 
L 63.832875 263.967625 
L 63.832875 257.807625 
L 46.232875 257.807625 
z
" style="fill: #ff7f0e; fill-opacity: 0.5; stroke: #ff7f0e; stroke-opacity: 0.5; stroke-width: 0.8; stroke-linejoin: miter"/>
    </g>
    <g id="text_18">
     <!-- $y^*$ 95% pred. -->
     <g style="fill: #262626" transform="translate(70.872875 263.967625) scale(0.088 -0.088)">
      <use xlink:href="#DejaVuSans-Oblique-79" transform="translate(0 0.765625)"/>
      <use xlink:href="#DejaVuSans-2a" transform="translate(77.283529 39.046875) scale(0.7)"/>
      <use xlink:href="#ArialMT-20" transform="translate(128.655599 0.765625)"/>
      <use xlink:href="#ArialMT-39" transform="translate(156.438802 0.765625)"/>
      <use xlink:href="#ArialMT-35" transform="translate(212.054036 0.765625)"/>
      <use xlink:href="#ArialMT-25" transform="translate(267.669271 0.765625)"/>
      <use xlink:href="#ArialMT-20" transform="translate(356.585286 0.765625)"/>
      <use xlink:href="#ArialMT-70" transform="translate(384.36849 0.765625)"/>
      <use xlink:href="#ArialMT-72" transform="translate(439.983724 0.765625)"/>
      <use xlink:href="#ArialMT-65" transform="translate(473.284505 0.765625)"/>
      <use xlink:href="#ArialMT-64" transform="translate(528.89974 0.765625)"/>
      <use xlink:href="#ArialMT-2e" transform="translate(584.514974 0.765625)"/>
     </g>
    </g>
    <g id="line2d_17">
     <path d="M 46.232875 273.4345 
L 55.032875 273.4345 
L 63.832875 273.4345 
" style="fill: none; stroke-dasharray: 7.68,1.92,1.2,1.92; stroke-dashoffset: 0; stroke: #bf00bf; stroke-width: 1.2"/>
    </g>
    <g id="text_19">
     <!-- True function -->
     <g style="fill: #262626" transform="translate(70.872875 276.5145) scale(0.088 -0.088)">
      <defs>
       <path id="ArialMT-54" d="M 1659 0 
L 1659 4041 
L 150 4041 
L 150 4581 
L 3781 4581 
L 3781 4041 
L 2266 4041 
L 2266 0 
L 1659 0 
z
" transform="scale(0.015625)"/>
       <path id="ArialMT-75" d="M 2597 0 
L 2597 488 
Q 2209 -75 1544 -75 
Q 1250 -75 995 37 
Q 741 150 617 320 
Q 494 491 444 738 
Q 409 903 409 1263 
L 409 3319 
L 972 3319 
L 972 1478 
Q 972 1038 1006 884 
Q 1059 663 1231 536 
Q 1403 409 1656 409 
Q 1909 409 2131 539 
Q 2353 669 2445 892 
Q 2538 1116 2538 1541 
L 2538 3319 
L 3100 3319 
L 3100 0 
L 2597 0 
z
" transform="scale(0.015625)"/>
       <path id="ArialMT-66" d="M 556 0 
L 556 2881 
L 59 2881 
L 59 3319 
L 556 3319 
L 556 3672 
Q 556 4006 616 4169 
Q 697 4388 901 4523 
Q 1106 4659 1475 4659 
Q 1713 4659 2000 4603 
L 1916 4113 
Q 1741 4144 1584 4144 
Q 1328 4144 1222 4034 
Q 1116 3925 1116 3625 
L 1116 3319 
L 1763 3319 
L 1763 2881 
L 1116 2881 
L 1116 0 
L 556 0 
z
" transform="scale(0.015625)"/>
       <path id="ArialMT-63" d="M 2588 1216 
L 3141 1144 
Q 3050 572 2676 248 
Q 2303 -75 1759 -75 
Q 1078 -75 664 370 
Q 250 816 250 1647 
Q 250 2184 428 2587 
Q 606 2991 970 3192 
Q 1334 3394 1763 3394 
Q 2303 3394 2647 3120 
Q 2991 2847 3088 2344 
L 2541 2259 
Q 2463 2594 2264 2762 
Q 2066 2931 1784 2931 
Q 1359 2931 1093 2626 
Q 828 2322 828 1663 
Q 828 994 1084 691 
Q 1341 388 1753 388 
Q 2084 388 2306 591 
Q 2528 794 2588 1216 
z
" transform="scale(0.015625)"/>
      </defs>
      <use xlink:href="#ArialMT-54"/>
      <use xlink:href="#ArialMT-72" x="57.333984"/>
      <use xlink:href="#ArialMT-75" x="90.634766"/>
      <use xlink:href="#ArialMT-65" x="146.25"/>
      <use xlink:href="#ArialMT-20" x="201.865234"/>
      <use xlink:href="#ArialMT-66" x="229.648438"/>
      <use xlink:href="#ArialMT-75" x="257.431641"/>
      <use xlink:href="#ArialMT-6e" x="313.046875"/>
      <use xlink:href="#ArialMT-63" x="368.662109"/>
      <use xlink:href="#ArialMT-74" x="418.662109"/>
      <use xlink:href="#ArialMT-69" x="446.445312"/>
      <use xlink:href="#ArialMT-6f" x="468.662109"/>
      <use xlink:href="#ArialMT-6e" x="524.277344"/>
     </g>
    </g>
   </g>
  </g>
  <g id="axes_2">
   <g id="matplotlib.axis_3">
    <g id="ytick_6">
     <g id="line2d_18">
      <defs>
       <path id="mdaf3a0dea7" d="M 0 0 
L 4.8 0 
" style="stroke: #262626"/>
      </defs>
      <g>
       <use xlink:href="#mdaf3a0dea7" x="395.432875" y="274.031862" style="fill: #262626; stroke: #262626"/>
      </g>
     </g>
     <g id="text_20">
      <!-- 0.000000 -->
      <g style="fill: #ff7f0e" transform="translate(403.732875 277.181299) scale(0.088 -0.088)">
       <use xlink:href="#ArialMT-30"/>
       <use xlink:href="#ArialMT-2e" x="55.615234"/>
       <use xlink:href="#ArialMT-30" x="83.398438"/>
       <use xlink:href="#ArialMT-30" x="139.013672"/>
       <use xlink:href="#ArialMT-30" x="194.628906"/>
       <use xlink:href="#ArialMT-30" x="250.244141"/>
       <use xlink:href="#ArialMT-30" x="305.859375"/>
       <use xlink:href="#ArialMT-30" x="361.474609"/>
      </g>
     </g>
    </g>
    <g id="ytick_7">
     <g id="line2d_19">
      <g>
       <use xlink:href="#mdaf3a0dea7" x="395.432875" y="237.519904" style="fill: #262626; stroke: #262626"/>
      </g>
     </g>
     <g id="text_21">
      <!-- 0.000025 -->
      <g style="fill: #ff7f0e" transform="translate(403.732875 240.669342) scale(0.088 -0.088)">
       <use xlink:href="#ArialMT-30"/>
       <use xlink:href="#ArialMT-2e" x="55.615234"/>
       <use xlink:href="#ArialMT-30" x="83.398438"/>
       <use xlink:href="#ArialMT-30" x="139.013672"/>
       <use xlink:href="#ArialMT-30" x="194.628906"/>
       <use xlink:href="#ArialMT-30" x="250.244141"/>
       <use xlink:href="#ArialMT-32" x="305.859375"/>
       <use xlink:href="#ArialMT-35" x="361.474609"/>
      </g>
     </g>
    </g>
    <g id="ytick_8">
     <g id="line2d_20">
      <g>
       <use xlink:href="#mdaf3a0dea7" x="395.432875" y="201.007946" style="fill: #262626; stroke: #262626"/>
      </g>
     </g>
     <g id="text_22">
      <!-- 0.000050 -->
      <g style="fill: #ff7f0e" transform="translate(403.732875 204.157384) scale(0.088 -0.088)">
       <use xlink:href="#ArialMT-30"/>
       <use xlink:href="#ArialMT-2e" x="55.615234"/>
       <use xlink:href="#ArialMT-30" x="83.398438"/>
       <use xlink:href="#ArialMT-30" x="139.013672"/>
       <use xlink:href="#ArialMT-30" x="194.628906"/>
       <use xlink:href="#ArialMT-30" x="250.244141"/>
       <use xlink:href="#ArialMT-35" x="305.859375"/>
       <use xlink:href="#ArialMT-30" x="361.474609"/>
      </g>
     </g>
    </g>
    <g id="ytick_9">
     <g id="line2d_21">
      <g>
       <use xlink:href="#mdaf3a0dea7" x="395.432875" y="164.495988" style="fill: #262626; stroke: #262626"/>
      </g>
     </g>
     <g id="text_23">
      <!-- 0.000075 -->
      <g style="fill: #ff7f0e" transform="translate(403.732875 167.645426) scale(0.088 -0.088)">
       <defs>
        <path id="ArialMT-37" d="M 303 3981 
L 303 4522 
L 3269 4522 
L 3269 4084 
Q 2831 3619 2401 2847 
Q 1972 2075 1738 1259 
Q 1569 684 1522 0 
L 944 0 
Q 953 541 1156 1306 
Q 1359 2072 1739 2783 
Q 2119 3494 2547 3981 
L 303 3981 
z
" transform="scale(0.015625)"/>
       </defs>
       <use xlink:href="#ArialMT-30"/>
       <use xlink:href="#ArialMT-2e" x="55.615234"/>
       <use xlink:href="#ArialMT-30" x="83.398438"/>
       <use xlink:href="#ArialMT-30" x="139.013672"/>
       <use xlink:href="#ArialMT-30" x="194.628906"/>
       <use xlink:href="#ArialMT-30" x="250.244141"/>
       <use xlink:href="#ArialMT-37" x="305.859375"/>
       <use xlink:href="#ArialMT-35" x="361.474609"/>
      </g>
     </g>
    </g>
    <g id="ytick_10">
     <g id="line2d_22">
      <g>
       <use xlink:href="#mdaf3a0dea7" x="395.432875" y="127.98403" style="fill: #262626; stroke: #262626"/>
      </g>
     </g>
     <g id="text_24">
      <!-- 0.000100 -->
      <g style="fill: #ff7f0e" transform="translate(403.732875 131.133468) scale(0.088 -0.088)">
       <use xlink:href="#ArialMT-30"/>
       <use xlink:href="#ArialMT-2e" x="55.615234"/>
       <use xlink:href="#ArialMT-30" x="83.398438"/>
       <use xlink:href="#ArialMT-30" x="139.013672"/>
       <use xlink:href="#ArialMT-30" x="194.628906"/>
       <use xlink:href="#ArialMT-31" x="250.244141"/>
       <use xlink:href="#ArialMT-30" x="305.859375"/>
       <use xlink:href="#ArialMT-30" x="361.474609"/>
      </g>
     </g>
    </g>
    <g id="ytick_11">
     <g id="line2d_23">
      <g>
       <use xlink:href="#mdaf3a0dea7" x="395.432875" y="91.472072" style="fill: #262626; stroke: #262626"/>
      </g>
     </g>
     <g id="text_25">
      <!-- 0.000125 -->
      <g style="fill: #ff7f0e" transform="translate(403.732875 94.62151) scale(0.088 -0.088)">
       <use xlink:href="#ArialMT-30"/>
       <use xlink:href="#ArialMT-2e" x="55.615234"/>
       <use xlink:href="#ArialMT-30" x="83.398438"/>
       <use xlink:href="#ArialMT-30" x="139.013672"/>
       <use xlink:href="#ArialMT-30" x="194.628906"/>
       <use xlink:href="#ArialMT-31" x="250.244141"/>
       <use xlink:href="#ArialMT-32" x="305.859375"/>
       <use xlink:href="#ArialMT-35" x="361.474609"/>
      </g>
     </g>
    </g>
    <g id="ytick_12">
     <g id="line2d_24">
      <g>
       <use xlink:href="#mdaf3a0dea7" x="395.432875" y="54.960114" style="fill: #262626; stroke: #262626"/>
      </g>
     </g>
     <g id="text_26">
      <!-- 0.000150 -->
      <g style="fill: #ff7f0e" transform="translate(403.732875 58.109552) scale(0.088 -0.088)">
       <use xlink:href="#ArialMT-30"/>
       <use xlink:href="#ArialMT-2e" x="55.615234"/>
       <use xlink:href="#ArialMT-30" x="83.398438"/>
       <use xlink:href="#ArialMT-30" x="139.013672"/>
       <use xlink:href="#ArialMT-30" x="194.628906"/>
       <use xlink:href="#ArialMT-31" x="250.244141"/>
       <use xlink:href="#ArialMT-35" x="305.859375"/>
       <use xlink:href="#ArialMT-30" x="361.474609"/>
      </g>
     </g>
    </g>
    <g id="text_27">
     <!-- Information Acquisition Function -->
     <g style="fill: #ff7f0e" transform="translate(451.4215 221.16075) rotate(-90) scale(0.096 -0.096)">
      <defs>
       <path id="ArialMT-49" d="M 597 0 
L 597 4581 
L 1203 4581 
L 1203 0 
L 597 0 
z
" transform="scale(0.015625)"/>
       <path id="ArialMT-6d" d="M 422 0 
L 422 3319 
L 925 3319 
L 925 2853 
Q 1081 3097 1340 3245 
Q 1600 3394 1931 3394 
Q 2300 3394 2536 3241 
Q 2772 3088 2869 2813 
Q 3263 3394 3894 3394 
Q 4388 3394 4653 3120 
Q 4919 2847 4919 2278 
L 4919 0 
L 4359 0 
L 4359 2091 
Q 4359 2428 4304 2576 
Q 4250 2725 4106 2815 
Q 3963 2906 3769 2906 
Q 3419 2906 3187 2673 
Q 2956 2441 2956 1928 
L 2956 0 
L 2394 0 
L 2394 2156 
Q 2394 2531 2256 2718 
Q 2119 2906 1806 2906 
Q 1569 2906 1367 2781 
Q 1166 2656 1075 2415 
Q 984 2175 984 1722 
L 984 0 
L 422 0 
z
" transform="scale(0.015625)"/>
       <path id="ArialMT-41" d="M -9 0 
L 1750 4581 
L 2403 4581 
L 4278 0 
L 3588 0 
L 3053 1388 
L 1138 1388 
L 634 0 
L -9 0 
z
M 1313 1881 
L 2866 1881 
L 2388 3150 
Q 2169 3728 2063 4100 
Q 1975 3659 1816 3225 
L 1313 1881 
z
" transform="scale(0.015625)"/>
       <path id="ArialMT-71" d="M 2538 -1272 
L 2538 353 
Q 2406 169 2170 47 
Q 1934 -75 1669 -75 
Q 1078 -75 651 397 
Q 225 869 225 1691 
Q 225 2191 398 2587 
Q 572 2984 901 3189 
Q 1231 3394 1625 3394 
Q 2241 3394 2594 2875 
L 2594 3319 
L 3100 3319 
L 3100 -1272 
L 2538 -1272 
z
M 803 1669 
Q 803 1028 1072 708 
Q 1341 388 1716 388 
Q 2075 388 2334 692 
Q 2594 997 2594 1619 
Q 2594 2281 2320 2615 
Q 2047 2950 1678 2950 
Q 1313 2950 1058 2639 
Q 803 2328 803 1669 
z
" transform="scale(0.015625)"/>
       <path id="ArialMT-46" d="M 525 0 
L 525 4581 
L 3616 4581 
L 3616 4041 
L 1131 4041 
L 1131 2622 
L 3281 2622 
L 3281 2081 
L 1131 2081 
L 1131 0 
L 525 0 
z
" transform="scale(0.015625)"/>
      </defs>
      <use xlink:href="#ArialMT-49"/>
      <use xlink:href="#ArialMT-6e" x="27.783203"/>
      <use xlink:href="#ArialMT-66" x="83.398438"/>
      <use xlink:href="#ArialMT-6f" x="111.181641"/>
      <use xlink:href="#ArialMT-72" x="166.796875"/>
      <use xlink:href="#ArialMT-6d" x="200.097656"/>
      <use xlink:href="#ArialMT-61" x="283.398438"/>
      <use xlink:href="#ArialMT-74" x="339.013672"/>
      <use xlink:href="#ArialMT-69" x="366.796875"/>
      <use xlink:href="#ArialMT-6f" x="389.013672"/>
      <use xlink:href="#ArialMT-6e" x="444.628906"/>
      <use xlink:href="#ArialMT-20" x="500.244141"/>
      <use xlink:href="#ArialMT-41" x="522.527344"/>
      <use xlink:href="#ArialMT-63" x="589.226562"/>
      <use xlink:href="#ArialMT-71" x="639.226562"/>
      <use xlink:href="#ArialMT-75" x="694.841797"/>
      <use xlink:href="#ArialMT-69" x="750.457031"/>
      <use xlink:href="#ArialMT-73" x="772.673828"/>
      <use xlink:href="#ArialMT-69" x="822.673828"/>
      <use xlink:href="#ArialMT-74" x="844.890625"/>
      <use xlink:href="#ArialMT-69" x="872.673828"/>
      <use xlink:href="#ArialMT-6f" x="894.890625"/>
      <use xlink:href="#ArialMT-6e" x="950.505859"/>
      <use xlink:href="#ArialMT-20" x="1006.121094"/>
      <use xlink:href="#ArialMT-46" x="1033.904297"/>
      <use xlink:href="#ArialMT-75" x="1094.988281"/>
      <use xlink:href="#ArialMT-6e" x="1150.603516"/>
      <use xlink:href="#ArialMT-63" x="1206.21875"/>
      <use xlink:href="#ArialMT-74" x="1256.21875"/>
      <use xlink:href="#ArialMT-69" x="1284.001953"/>
      <use xlink:href="#ArialMT-6f" x="1306.21875"/>
      <use xlink:href="#ArialMT-6e" x="1361.833984"/>
     </g>
    </g>
   </g>
   <g id="line2d_25">
    <path d="M 54.545602 274.031858 
L 57.824941 274.031861 
L 61.10428 274.031862 
L 64.383619 274.031861 
L 67.662958 274.03186 
L 70.942296 274.031854 
L 74.221636 274.031805 
L 77.500973 274.031446 
L 80.780313 274.02895 
L 84.059653 274.013664 
L 87.33899 274.051244 
L 90.61833 274.009584 
L 93.89767 273.992479 
L 97.177007 273.793715 
L 100.456344 273.107255 
L 103.735686 271.328554 
L 107.015024 266.715335 
L 110.294361 256.3362 
L 113.573703 236.017566 
L 116.853041 201.472485 
L 120.132378 152.102247 
L 123.41172 95.583516 
L 126.691057 49.177356 
L 129.970395 32.1675 
L 133.249737 49.949256 
L 136.529069 86.727747 
L 139.808412 118.424618 
L 143.087754 131.561117 
L 146.367086 127.401953 
L 149.646428 116.941346 
L 152.92577 114.645708 
L 156.205103 129.275936 
L 159.484445 158.48972 
L 162.763787 192.848457 
L 166.04312 223.246402 
L 169.322462 245.341958 
L 172.601804 259.066903 
L 175.881137 266.641641 
L 179.160479 270.487657 
L 182.439821 272.310551 
L 185.719153 273.188942 
L 188.998496 273.591875 
L 192.277838 273.837191 
L 195.55717 273.869693 
L 198.836512 273.896751 
L 202.115855 274.027413 
L 205.395187 273.918292 
L 208.674529 274.045805 
L 211.953871 274.031577 
L 215.233204 274.0875 
L 218.512556 274.056026 
L 221.791879 273.945276 
L 225.071221 273.996556 
L 228.350563 274.020106 
L 231.629886 274.028799 
L 234.909247 274.031268 
L 238.18857 274.031782 
L 241.467912 274.031855 
L 244.747254 274.031862 
L 248.026597 274.031862 
L 251.305939 274.031862 
L 254.585262 274.031862 
L 257.864623 274.031862 
L 261.143946 274.031862 
L 264.423288 274.031862 
L 267.70263 274.031862 
L 270.981953 274.031862 
L 274.261315 274.031862 
L 277.540637 274.031862 
L 280.81998 274.031862 
L 284.099322 274.031862 
L 287.378664 274.031862 
L 290.658006 274.031862 
L 293.937329 274.031862 
L 297.21669 274.031862 
L 300.496013 274.031862 
L 303.775355 274.031862 
L 307.054697 274.031861 
L 310.33402 274.03183 
L 313.613382 274.031227 
L 316.892705 274.024424 
L 320.172047 273.97597 
L 323.451389 274.080876 
L 326.730731 274.022733 
L 330.010073 273.982043 
L 333.289396 273.757166 
L 336.568738 273.415803 
L 339.84808 273.048057 
L 343.127423 272.732742 
L 346.406765 272.64199 
L 349.686088 272.750719 
L 352.96543 273.073482 
L 356.244772 273.377224 
L 359.524114 273.624751 
L 362.803456 273.71157 
L 366.082798 273.795501 
L 369.362141 273.693521 
L 372.641463 273.230568 
L 375.920806 271.496185 
L 379.200148 264.765873 
" clip-path="url(#p5afb42d206)" style="fill: none; stroke: #ff7f0e; stroke-width: 1.2; stroke-linecap: round"/>
   </g>
   <g id="line2d_26">
    <path d="M 129.970395 274.031862 
L 129.970395 271.588788 
L 129.970395 269.145713 
L 129.970395 266.702639 
L 129.970395 264.259565 
L 129.970395 261.816491 
L 129.970395 259.373416 
L 129.970395 256.930342 
L 129.970395 254.487268 
L 129.970395 252.044193 
L 129.970395 249.601119 
L 129.970395 247.158046 
L 129.970395 244.71497 
L 129.970395 242.271896 
L 129.970395 239.828823 
L 129.970395 237.385747 
L 129.970395 234.942673 
L 129.970395 232.4996 
L 129.970395 230.056524 
L 129.970395 227.61345 
L 129.970395 225.170377 
L 129.970395 222.727304 
L 129.970395 220.28423 
L 129.970395 217.841151 
L 129.970395 215.398078 
L 129.970395 212.955004 
L 129.970395 210.511931 
L 129.970395 208.068858 
L 129.970395 205.625784 
L 129.970395 203.182705 
L 129.970395 200.739632 
L 129.970395 198.296558 
L 129.970395 195.853485 
L 129.970395 193.410412 
L 129.970395 190.967338 
L 129.970395 188.524265 
L 129.970395 186.081186 
L 129.970395 183.638118 
L 129.970395 181.195039 
L 129.970395 178.75196 
L 129.970395 176.308892 
L 129.970395 173.865813 
L 129.970395 171.422745 
L 129.970395 168.979666 
L 129.970395 166.536598 
L 129.970395 164.093519 
L 129.970395 161.650441 
L 129.970395 159.207373 
L 129.970395 156.764294 
L 129.970395 154.321226 
L 129.970395 151.878136 
L 129.970395 149.435068 
L 129.970395 146.991989 
L 129.970395 144.548921 
L 129.970395 142.105842 
L 129.970395 139.662764 
L 129.970395 137.219696 
L 129.970395 134.776617 
L 129.970395 132.333549 
L 129.970395 129.89047 
L 129.970395 127.447402 
L 129.970395 125.004323 
L 129.970395 122.561244 
L 129.970395 120.118176 
L 129.970395 117.675097 
L 129.970395 115.232029 
L 129.970395 112.78895 
L 129.970395 110.345872 
L 129.970395 107.902804 
L 129.970395 105.459735 
L 129.970395 103.016657 
L 129.970395 100.573578 
L 129.970395 98.13051 
L 129.970395 95.687442 
L 129.970395 93.244352 
L 129.970395 90.801284 
L 129.970395 88.358216 
L 129.970395 85.915127 
L 129.970395 83.472058 
L 129.970395 81.02899 
L 129.970395 78.585901 
L 129.970395 76.142833 
L 129.970395 73.699765 
L 129.970395 71.256696 
L 129.970395 68.813607 
L 129.970395 66.370539 
L 129.970395 63.927471 
L 129.970395 61.484403 
L 129.970395 59.041313 
L 129.970395 56.598245 
L 129.970395 54.155177 
L 129.970395 51.712088 
L 129.970395 49.269019 
L 129.970395 46.825951 
L 129.970395 44.382862 
L 129.970395 41.939794 
L 129.970395 39.496726 
L 129.970395 37.053658 
L 129.970395 34.610568 
L 129.970395 32.1675 
" clip-path="url(#p5afb42d206)" style="fill: none; stroke: #ff7f0e; stroke-linecap: round"/>
   </g>
   <g id="patch_7">
    <path d="M 38.312875 286.1835 
L 38.312875 20.0715 
" style="fill: none; stroke: #262626; stroke-linejoin: miter; stroke-linecap: square"/>
   </g>
   <g id="patch_8">
    <path d="M 395.432875 286.1835 
L 395.432875 20.0715 
" style="fill: none; stroke: #262626; stroke-linejoin: miter; stroke-linecap: square"/>
   </g>
   <g id="patch_9">
    <path d="M 38.312875 286.1835 
L 395.432875 286.1835 
" style="fill: none; stroke: #262626; stroke-linejoin: miter; stroke-linecap: square"/>
   </g>
   <g id="patch_10">
    <path d="M 38.312875 20.0715 
L 395.432875 20.0715 
" style="fill: none; stroke: #262626; stroke-linejoin: miter; stroke-linecap: square"/>
   </g>
  </g>
 </g>
 <defs>
  <clipPath id="p5afb42d206">
   <rect x="38.312875" y="20.0715" width="357.12" height="266.112"/>
  </clipPath>
 </defs>
</svg>