<?xml version="1.0" encoding="utf-8" standalone="no"?>
<!DOCTYPE svg PUBLIC "-//W3C//DTD SVG 1.1//EN"
  "http://www.w3.org/Graphics/SVG/1.1/DTD/svg11.dtd">
<svg xmlns:xlink="http://www.w3.org/1999/xlink" width="402.632875pt" height="309.639375pt" viewBox="0 0 402.632875 309.639375" xmlns="http://www.w3.org/2000/svg" version="1.1">
 <metadata>
  <rdf:RDF xmlns:dc="http://purl.org/dc/elements/1.1/" xmlns:cc="http://creativecommons.org/ns#" xmlns:rdf="http://www.w3.org/1999/02/22-rdf-syntax-ns#">
   <cc:Work>
    <dc:type rdf:resource="http://purl.org/dc/dcmitype/StillImage"/>
    <dc:date>2023-10-23T22:29:37.049473</dc:date>
    <dc:format>image/svg+xml</dc:format>
    <dc:creator>
     <cc:Agent>
      <dc:title>Matplotlib v3.7.1, https://matplotlib.org/</dc:title>
     </cc:Agent>
    </dc:creator>
   </cc:Work>
  </rdf:RDF>
 </metadata>
 <defs>
  <style type="text/css">*{stroke-linejoin: round; stroke-linecap: butt}</style>
 </defs>
 <g id="figure_1">
  <g id="patch_1">
   <path d="M 0 309.639375 
L 402.632875 309.639375 
L 402.632875 0 
L 0 0 
z
" style="fill: #ffffff"/>
  </g>
  <g id="axes_1">
   <g id="patch_2">
    <path d="M 38.312875 273.312 
L 395.432875 273.312 
L 395.432875 7.2 
L 38.312875 7.2 
z
" style="fill: #ffffff"/>
   </g>
   <g id="matplotlib.axis_1">
    <g id="xtick_1">
     <g id="line2d_1">
      <defs>
       <path id="m324c8ebc7d" d="M 0 0 
L 0 4.8 
" style="stroke: #262626"/>
      </defs>
      <g>
       <use xlink:href="#m324c8ebc7d" x="54.545602" y="273.312" style="fill: #262626; stroke: #262626"/>
      </g>
     </g>
     <g id="text_1">
      <!-- 0.0 -->
      <g style="fill: #262626" transform="translate(48.429602 287.910875) scale(0.088 -0.088)">
       <defs>
        <path id="ArialMT-30" d="M 266 2259 
Q 266 3072 433 3567 
Q 600 4063 929 4331 
Q 1259 4600 1759 4600 
Q 2128 4600 2406 4451 
Q 2684 4303 2865 4023 
Q 3047 3744 3150 3342 
Q 3253 2941 3253 2259 
Q 3253 1453 3087 958 
Q 2922 463 2592 192 
Q 2263 -78 1759 -78 
Q 1097 -78 719 397 
Q 266 969 266 2259 
z
M 844 2259 
Q 844 1131 1108 757 
Q 1372 384 1759 384 
Q 2147 384 2411 759 
Q 2675 1134 2675 2259 
Q 2675 3391 2411 3762 
Q 2147 4134 1753 4134 
Q 1366 4134 1134 3806 
Q 844 3388 844 2259 
z
" transform="scale(0.015625)"/>
        <path id="ArialMT-2e" d="M 581 0 
L 581 641 
L 1222 641 
L 1222 0 
L 581 0 
z
" transform="scale(0.015625)"/>
       </defs>
       <use xlink:href="#ArialMT-30"/>
       <use xlink:href="#ArialMT-2e" x="55.615234"/>
       <use xlink:href="#ArialMT-30" x="83.398438"/>
      </g>
     </g>
    </g>
    <g id="xtick_2">
     <g id="line2d_2">
      <g>
       <use xlink:href="#m324c8ebc7d" x="119.476511" y="273.312" style="fill: #262626; stroke: #262626"/>
      </g>
     </g>
     <g id="text_2">
      <!-- 0.2 -->
      <g style="fill: #262626" transform="translate(113.360511 287.910875) scale(0.088 -0.088)">
       <defs>
        <path id="ArialMT-32" d="M 3222 541 
L 3222 0 
L 194 0 
Q 188 203 259 391 
Q 375 700 629 1000 
Q 884 1300 1366 1694 
Q 2113 2306 2375 2664 
Q 2638 3022 2638 3341 
Q 2638 3675 2398 3904 
Q 2159 4134 1775 4134 
Q 1369 4134 1125 3890 
Q 881 3647 878 3216 
L 300 3275 
Q 359 3922 746 4261 
Q 1134 4600 1788 4600 
Q 2447 4600 2831 4234 
Q 3216 3869 3216 3328 
Q 3216 3053 3103 2787 
Q 2991 2522 2730 2228 
Q 2469 1934 1863 1422 
Q 1356 997 1212 845 
Q 1069 694 975 541 
L 3222 541 
z
" transform="scale(0.015625)"/>
       </defs>
       <use xlink:href="#ArialMT-30"/>
       <use xlink:href="#ArialMT-2e" x="55.615234"/>
       <use xlink:href="#ArialMT-32" x="83.398438"/>
      </g>
     </g>
    </g>
    <g id="xtick_3">
     <g id="line2d_3">
      <g>
       <use xlink:href="#m324c8ebc7d" x="184.40742" y="273.312" style="fill: #262626; stroke: #262626"/>
      </g>
     </g>
     <g id="text_3">
      <!-- 0.4 -->
      <g style="fill: #262626" transform="translate(178.29142 287.910875) scale(0.088 -0.088)">
       <defs>
        <path id="ArialMT-34" d="M 2069 0 
L 2069 1097 
L 81 1097 
L 81 1613 
L 2172 4581 
L 2631 4581 
L 2631 1613 
L 3250 1613 
L 3250 1097 
L 2631 1097 
L 2631 0 
L 2069 0 
z
M 2069 1613 
L 2069 3678 
L 634 1613 
L 2069 1613 
z
" transform="scale(0.015625)"/>
       </defs>
       <use xlink:href="#ArialMT-30"/>
       <use xlink:href="#ArialMT-2e" x="55.615234"/>
       <use xlink:href="#ArialMT-34" x="83.398438"/>
      </g>
     </g>
    </g>
    <g id="xtick_4">
     <g id="line2d_4">
      <g>
       <use xlink:href="#m324c8ebc7d" x="249.33833" y="273.312" style="fill: #262626; stroke: #262626"/>
      </g>
     </g>
     <g id="text_4">
      <!-- 0.6 -->
      <g style="fill: #262626" transform="translate(243.22233 287.910875) scale(0.088 -0.088)">
       <defs>
        <path id="ArialMT-36" d="M 3184 3459 
L 2625 3416 
Q 2550 3747 2413 3897 
Q 2184 4138 1850 4138 
Q 1581 4138 1378 3988 
Q 1113 3794 959 3422 
Q 806 3050 800 2363 
Q 1003 2672 1297 2822 
Q 1591 2972 1913 2972 
Q 2475 2972 2870 2558 
Q 3266 2144 3266 1488 
Q 3266 1056 3080 686 
Q 2894 316 2569 119 
Q 2244 -78 1831 -78 
Q 1128 -78 684 439 
Q 241 956 241 2144 
Q 241 3472 731 4075 
Q 1159 4600 1884 4600 
Q 2425 4600 2770 4297 
Q 3116 3994 3184 3459 
z
M 888 1484 
Q 888 1194 1011 928 
Q 1134 663 1356 523 
Q 1578 384 1822 384 
Q 2178 384 2434 671 
Q 2691 959 2691 1453 
Q 2691 1928 2437 2201 
Q 2184 2475 1800 2475 
Q 1419 2475 1153 2201 
Q 888 1928 888 1484 
z
" transform="scale(0.015625)"/>
       </defs>
       <use xlink:href="#ArialMT-30"/>
       <use xlink:href="#ArialMT-2e" x="55.615234"/>
       <use xlink:href="#ArialMT-36" x="83.398438"/>
      </g>
     </g>
    </g>
    <g id="xtick_5">
     <g id="line2d_5">
      <g>
       <use xlink:href="#m324c8ebc7d" x="314.269239" y="273.312" style="fill: #262626; stroke: #262626"/>
      </g>
     </g>
     <g id="text_5">
      <!-- 0.8 -->
      <g style="fill: #262626" transform="translate(308.153239 287.910875) scale(0.088 -0.088)">
       <defs>
        <path id="ArialMT-38" d="M 1131 2484 
Q 781 2613 612 2850 
Q 444 3088 444 3419 
Q 444 3919 803 4259 
Q 1163 4600 1759 4600 
Q 2359 4600 2725 4251 
Q 3091 3903 3091 3403 
Q 3091 3084 2923 2848 
Q 2756 2613 2416 2484 
Q 2838 2347 3058 2040 
Q 3278 1734 3278 1309 
Q 3278 722 2862 322 
Q 2447 -78 1769 -78 
Q 1091 -78 675 323 
Q 259 725 259 1325 
Q 259 1772 486 2073 
Q 713 2375 1131 2484 
z
M 1019 3438 
Q 1019 3113 1228 2906 
Q 1438 2700 1772 2700 
Q 2097 2700 2305 2904 
Q 2513 3109 2513 3406 
Q 2513 3716 2298 3927 
Q 2084 4138 1766 4138 
Q 1444 4138 1231 3931 
Q 1019 3725 1019 3438 
z
M 838 1322 
Q 838 1081 952 856 
Q 1066 631 1291 507 
Q 1516 384 1775 384 
Q 2178 384 2440 643 
Q 2703 903 2703 1303 
Q 2703 1709 2433 1975 
Q 2163 2241 1756 2241 
Q 1359 2241 1098 1978 
Q 838 1716 838 1322 
z
" transform="scale(0.015625)"/>
       </defs>
       <use xlink:href="#ArialMT-30"/>
       <use xlink:href="#ArialMT-2e" x="55.615234"/>
       <use xlink:href="#ArialMT-38" x="83.398438"/>
      </g>
     </g>
    </g>
    <g id="xtick_6">
     <g id="line2d_6">
      <g>
       <use xlink:href="#m324c8ebc7d" x="379.200148" y="273.312" style="fill: #262626; stroke: #262626"/>
      </g>
     </g>
     <g id="text_6">
      <!-- 1.0 -->
      <g style="fill: #262626" transform="translate(373.084148 287.910875) scale(0.088 -0.088)">
       <defs>
        <path id="ArialMT-31" d="M 2384 0 
L 1822 0 
L 1822 3584 
Q 1619 3391 1289 3197 
Q 959 3003 697 2906 
L 697 3450 
Q 1169 3672 1522 3987 
Q 1875 4303 2022 4600 
L 2384 4600 
L 2384 0 
z
" transform="scale(0.015625)"/>
       </defs>
       <use xlink:href="#ArialMT-31"/>
       <use xlink:href="#ArialMT-2e" x="55.615234"/>
       <use xlink:href="#ArialMT-30" x="83.398438"/>
      </g>
     </g>
    </g>
    <g id="text_7">
     <!-- $x$ -->
     <g style="fill: #262626" transform="translate(213.992875 300.531375) scale(0.096 -0.096)">
      <defs>
       <path id="DejaVuSans-Oblique-78" d="M 3841 3500 
L 2234 1784 
L 3219 0 
L 2559 0 
L 1819 1388 
L 531 0 
L -166 0 
L 1556 1844 
L 641 3500 
L 1300 3500 
L 1972 2234 
L 3144 3500 
L 3841 3500 
z
" transform="scale(0.015625)"/>
      </defs>
      <use xlink:href="#DejaVuSans-Oblique-78" transform="translate(0 0.3125)"/>
     </g>
    </g>
   </g>
   <g id="matplotlib.axis_2">
    <g id="ytick_1">
     <g id="line2d_7">
      <defs>
       <path id="mafb356fa0d" d="M 0 0 
L -4.8 0 
" style="stroke: #262626"/>
      </defs>
      <g>
       <use xlink:href="#mafb356fa0d" x="38.312875" y="246.7008" style="fill: #262626; stroke: #262626"/>
      </g>
     </g>
     <g id="text_8">
      <!-- −4 -->
      <g style="fill: #262626" transform="translate(19.9795 249.850237) scale(0.088 -0.088)">
       <defs>
        <path id="ArialMT-2212" d="M 3381 1997 
L 356 1997 
L 356 2522 
L 3381 2522 
L 3381 1997 
z
" transform="scale(0.015625)"/>
       </defs>
       <use xlink:href="#ArialMT-2212"/>
       <use xlink:href="#ArialMT-34" x="58.398438"/>
      </g>
     </g>
    </g>
    <g id="ytick_2">
     <g id="line2d_8">
      <g>
       <use xlink:href="#mafb356fa0d" x="38.312875" y="193.4784" style="fill: #262626; stroke: #262626"/>
      </g>
     </g>
     <g id="text_9">
      <!-- −2 -->
      <g style="fill: #262626" transform="translate(19.9795 196.627837) scale(0.088 -0.088)">
       <use xlink:href="#ArialMT-2212"/>
       <use xlink:href="#ArialMT-32" x="58.398438"/>
      </g>
     </g>
    </g>
    <g id="ytick_3">
     <g id="line2d_9">
      <g>
       <use xlink:href="#mafb356fa0d" x="38.312875" y="140.256" style="fill: #262626; stroke: #262626"/>
      </g>
     </g>
     <g id="text_10">
      <!-- 0 -->
      <g style="fill: #262626" transform="translate(25.11925 143.405437) scale(0.088 -0.088)">
       <use xlink:href="#ArialMT-30"/>
      </g>
     </g>
    </g>
    <g id="ytick_4">
     <g id="line2d_10">
      <g>
       <use xlink:href="#mafb356fa0d" x="38.312875" y="87.0336" style="fill: #262626; stroke: #262626"/>
      </g>
     </g>
     <g id="text_11">
      <!-- 2 -->
      <g style="fill: #262626" transform="translate(25.11925 90.183037) scale(0.088 -0.088)">
       <use xlink:href="#ArialMT-32"/>
      </g>
     </g>
    </g>
    <g id="ytick_5">
     <g id="line2d_11">
      <g>
       <use xlink:href="#mafb356fa0d" x="38.312875" y="33.8112" style="fill: #262626; stroke: #262626"/>
      </g>
     </g>
     <g id="text_12">
      <!-- 4 -->
      <g style="fill: #262626" transform="translate(25.11925 36.960637) scale(0.088 -0.088)">
       <use xlink:href="#ArialMT-34"/>
      </g>
     </g>
    </g>
    <g id="text_13">
     <!-- $y$ -->
     <g style="fill: #262626" transform="translate(13.9635 143.136) rotate(-90) scale(0.096 -0.096)">
      <defs>
       <path id="DejaVuSans-Oblique-79" d="M 1588 -325 
Q 1188 -997 936 -1164 
Q 684 -1331 294 -1331 
L -159 -1331 
L -63 -850 
L 269 -850 
Q 509 -850 678 -719 
Q 847 -588 1056 -206 
L 1234 128 
L 459 3500 
L 1069 3500 
L 1650 819 
L 3256 3500 
L 3859 3500 
L 1588 -325 
z
" transform="scale(0.015625)"/>
      </defs>
      <use xlink:href="#DejaVuSans-Oblique-79" transform="translate(0 0.3125)"/>
     </g>
    </g>
   </g>
   <g id="line2d_12">
    <path d="M 54.545602 140.256 
L 57.824941 133.518446 
L 61.10428 126.889301 
L 64.383619 120.47523 
L 67.662958 114.379442 
L 70.942296 108.700015 
L 74.221636 103.528334 
L 77.500973 98.947622 
L 80.780313 95.031574 
L 84.059653 91.8432 
L 87.33899 89.433811 
L 90.61833 87.842166 
L 93.89767 87.093883 
L 97.177007 87.200996 
L 100.456344 88.161785 
L 103.735686 89.960791 
L 107.015024 92.569061 
L 110.294361 95.944638 
L 113.573703 100.0332 
L 116.853041 104.768952 
L 120.132378 110.075716 
L 123.41172 115.868089 
L 126.691057 122.052874 
L 129.970395 128.530544 
L 133.249737 135.196904 
L 136.529069 141.94463 
L 139.808412 148.665222 
L 143.087754 155.250494 
L 146.367086 161.594488 
L 149.646428 167.595148 
L 152.92577 173.155912 
L 156.205103 178.187294 
L 159.484445 182.608357 
L 162.763787 186.347953 
L 166.04312 189.345912 
L 169.322462 191.553996 
L 172.601804 192.936675 
L 175.881137 193.4717 
L 179.160479 193.15047 
L 182.439821 191.978139 
L 185.719153 189.97359 
L 188.998496 187.169062 
L 192.277838 183.609682 
L 195.55717 179.352725 
L 198.836512 174.466688 
L 202.115855 169.030184 
L 205.395187 163.130718 
L 208.674529 156.863167 
L 211.953871 150.328376 
L 215.233204 143.631566 
L 218.512556 136.88039 
L 221.791879 130.183606 
L 225.071221 123.648815 
L 228.350563 117.381264 
L 231.629886 111.48182 
L 234.909247 106.04528 
L 238.18857 101.159262 
L 241.467912 96.902309 
L 244.747254 93.342932 
L 248.026597 90.538404 
L 251.305939 88.533852 
L 254.585262 87.361534 
L 257.864623 87.0403 
L 261.143946 87.575328 
L 264.423288 88.958007 
L 267.70263 91.166095 
L 270.981953 94.164031 
L 274.261315 97.903655 
L 277.540637 102.324719 
L 280.81998 107.356114 
L 284.099322 112.916877 
L 287.378664 118.917541 
L 290.658006 125.261547 
L 293.937329 131.846771 
L 297.21669 138.567402 
L 300.496013 145.315102 
L 303.775355 151.98145 
L 307.054697 158.459178 
L 310.33402 164.643916 
L 313.613382 170.436332 
L 316.892705 175.743051 
L 320.172047 180.478813 
L 323.451389 184.567371 
L 326.730731 187.942945 
L 330.010073 190.551218 
L 333.289396 192.350221 
L 336.568738 193.311007 
L 339.84808 193.418117 
L 343.127423 192.669828 
L 346.406765 191.078179 
L 349.686088 188.668803 
L 352.96543 185.48043 
L 356.244772 181.564381 
L 359.524114 176.983662 
L 362.803456 171.811982 
L 366.082798 166.132553 
L 369.362141 160.036713 
L 372.641463 153.622687 
L 375.920806 146.993539 
L 379.200148 140.255981 
" clip-path="url(#pabe5fc34b6)" style="fill: none; stroke: #1f77b4; stroke-width: 1.2; stroke-linecap: round"/>
   </g>
   <g id="line2d_13">
    <path d="M 54.545602 66.26073 
L 57.824941 58.774135 
L 61.10428 51.465779 
L 64.383619 44.306553 
L 67.662958 37.473217 
L 70.942296 31.373781 
L 74.221636 25.636431 
L 77.500973 20.385801 
L 80.780313 16.077942 
L 84.059653 12.473242 
L 87.33899 9.681679 
L 90.61833 7.833014 
L 93.89767 6.632336 
L 97.177007 6.718648 
L 100.456344 7.152441 
L 103.735686 9.036687 
L 107.015024 11.483446 
L 110.294361 14.841759 
L 113.573703 18.912597 
L 116.853041 23.838294 
L 120.132378 29.181758 
L 123.41172 35.085996 
L 126.691057 41.809576 
L 129.970395 48.397604 
L 133.249737 55.420491 
L 136.529069 62.471225 
L 139.808412 69.76292 
L 143.087754 76.789291 
L 146.367086 83.516443 
L 149.646428 90.035302 
L 152.92577 96.463443 
L 156.205103 102.026205 
L 159.484445 107.17238 
L 162.763787 111.894114 
L 166.04312 115.538227 
L 169.322462 118.661476 
L 172.601804 120.920662 
L 175.881137 122.4336 
L 179.160479 123.0512 
L 182.439821 122.923603 
L 185.719153 121.926945 
L 188.998496 120.191864 
L 192.277838 117.75105 
L 195.55717 114.662313 
L 198.836512 110.908344 
L 202.115855 106.757827 
L 205.395187 102.048741 
L 208.674529 96.905862 
L 211.953871 91.719839 
L 215.233204 86.025322 
L 218.512556 80.757098 
L 221.791879 75.262309 
L 225.071221 69.967293 
L 228.350563 65.008553 
L 231.629886 60.21804 
L 234.909247 56.164092 
L 238.18857 52.664357 
L 241.467912 49.659673 
L 244.747254 47.187263 
L 248.026597 45.696751 
L 251.305939 44.996604 
L 254.585262 45.040186 
L 257.864623 45.930448 
L 261.143946 47.748951 
L 264.423288 50.241277 
L 267.70263 53.561776 
L 270.981953 57.653792 
L 274.261315 62.668517 
L 277.540637 68.325734 
L 280.81998 74.393587 
L 284.099322 80.918861 
L 287.378664 88.053889 
L 290.658006 95.264855 
L 293.937329 102.685143 
L 297.21669 110.315662 
L 300.496013 118.103563 
L 303.775355 125.677012 
L 307.054697 132.82853 
L 310.33402 139.862677 
L 313.613382 146.624003 
L 316.892705 152.419857 
L 320.172047 157.822982 
L 323.451389 162.745693 
L 326.730731 166.743407 
L 330.010073 169.926146 
L 333.289396 172.223169 
L 336.568738 173.550518 
L 339.84808 174.137495 
L 343.127423 173.778187 
L 346.406765 172.613258 
L 349.686088 170.56573 
L 352.96543 167.748891 
L 356.244772 164.058724 
L 359.524114 159.741719 
L 362.803456 154.720375 
L 366.082798 149.350308 
L 369.362141 143.331317 
L 372.641463 137.165575 
L 375.920806 130.654317 
L 379.200148 123.86079 
" clip-path="url(#pabe5fc34b6)" style="fill: none; stroke: #ff7f0e; stroke-width: 0.5; stroke-linecap: round"/>
   </g>
   <g id="line2d_14">
    <path d="M 54.545602 102.328199 
L 57.824941 95.659296 
L 61.10428 89.05974 
L 64.383619 82.548028 
L 67.662958 76.543329 
L 70.942296 70.758103 
L 74.221636 65.643115 
L 77.500973 61.08045 
L 80.780313 56.992539 
L 84.059653 53.80886 
L 87.33899 51.401299 
L 90.61833 49.59511 
L 93.89767 48.539584 
L 97.177007 48.537014 
L 100.456344 49.412608 
L 103.735686 51.031142 
L 107.015024 53.257064 
L 110.294361 56.258322 
L 113.573703 60.32673 
L 116.853041 64.715807 
L 120.132378 69.618955 
L 123.41172 75.135608 
L 126.691057 81.125809 
L 129.970395 87.149462 
L 133.249737 93.280066 
L 136.529069 99.726787 
L 139.808412 106.093909 
L 143.087754 112.336758 
L 146.367086 118.15372 
L 149.646428 123.824715 
L 152.92577 129.039586 
L 156.205103 133.703641 
L 159.484445 137.523978 
L 162.763787 140.89381 
L 166.04312 143.594931 
L 169.322462 145.398606 
L 172.601804 146.219976 
L 175.881137 146.405609 
L 179.160479 145.643622 
L 182.439821 144.180046 
L 185.719153 141.691987 
L 188.998496 138.592911 
L 192.277838 134.852215 
L 195.55717 130.291351 
L 198.836512 125.021764 
L 202.115855 119.34793 
L 205.395187 113.053426 
L 208.674529 106.713034 
L 211.953871 99.739736 
L 215.233204 92.984744 
L 218.512556 86.124241 
L 221.791879 78.895103 
L 225.071221 72.552859 
L 228.350563 66.030523 
L 231.629886 60.092925 
L 234.909247 54.714413 
L 238.18857 49.728772 
L 241.467912 45.675388 
L 244.747254 42.031536 
L 248.026597 39.150451 
L 251.305939 37.411294 
L 254.585262 36.277348 
L 257.864623 36.188231 
L 261.143946 37.114823 
L 264.423288 38.720979 
L 267.70263 41.101563 
L 270.981953 44.482736 
L 274.261315 48.3952 
L 277.540637 53.320859 
L 280.81998 58.729913 
L 284.099322 64.875545 
L 287.378664 71.185463 
L 290.658006 77.920242 
L 293.937329 85.036299 
L 297.21669 92.436005 
L 300.496013 99.603026 
L 303.775355 107.082258 
L 307.054697 114.136443 
L 310.33402 120.920651 
L 313.613382 127.595843 
L 316.892705 133.665688 
L 320.172047 139.113959 
L 323.451389 143.871809 
L 326.730731 148.062281 
L 330.010073 151.598462 
L 333.289396 154.578539 
L 336.568738 156.134093 
L 339.84808 157.224109 
L 343.127423 157.437738 
L 346.406765 156.875308 
L 349.686088 155.39467 
L 352.96543 153.026318 
L 356.244772 150.352613 
L 359.524114 146.71751 
L 362.803456 142.700906 
L 366.082798 137.917263 
L 369.362141 132.905484 
L 372.641463 127.586991 
L 375.920806 121.991403 
L 379.200148 116.389187 
" clip-path="url(#pabe5fc34b6)" style="fill: none; stroke: #ff7f0e; stroke-width: 0.5; stroke-linecap: round"/>
   </g>
   <g id="line2d_15">
    <path d="M 54.545602 164.742321 
L 57.824941 158.75431 
L 61.10428 152.690912 
L 64.383619 147.154114 
L 67.662958 141.724351 
L 70.942296 136.640806 
L 74.221636 132.133133 
L 77.500973 128.187842 
L 80.780313 124.869541 
L 84.059653 122.326896 
L 87.33899 120.462994 
L 90.61833 119.502999 
L 93.89767 119.358713 
L 97.177007 119.858674 
L 100.456344 121.244732 
L 103.735686 123.610943 
L 107.015024 126.512778 
L 110.294361 130.357507 
L 113.573703 134.906896 
L 116.853041 139.838909 
L 120.132378 145.530209 
L 123.41172 151.6668 
L 126.691057 158.080058 
L 129.970395 164.866594 
L 133.249737 171.736674 
L 136.529069 178.675708 
L 139.808412 185.59587 
L 143.087754 192.278229 
L 146.367086 198.71209 
L 149.646428 204.822166 
L 152.92577 210.489744 
L 156.205103 215.58087 
L 159.484445 219.657114 
L 162.763787 223.451587 
L 166.04312 226.688839 
L 169.322462 228.65776 
L 172.601804 229.990622 
L 175.881137 230.558293 
L 179.160479 229.96452 
L 182.439821 228.616215 
L 185.719153 226.494339 
L 188.998496 223.345105 
L 192.277838 219.649703 
L 195.55717 215.35079 
L 198.836512 209.940542 
L 202.115855 204.346612 
L 205.395187 198.071938 
L 208.674529 191.555027 
L 211.953871 184.756542 
L 215.233204 177.534729 
L 218.512556 170.523716 
L 221.791879 163.538537 
L 225.071221 156.564265 
L 228.350563 150.034761 
L 231.629886 143.597567 
L 234.909247 138.063917 
L 238.18857 132.492529 
L 241.467912 128.058825 
L 244.747254 124.007579 
L 248.026597 120.768252 
L 251.305939 118.281542 
L 254.585262 116.620223 
L 257.864623 116.039736 
L 261.143946 116.328095 
L 264.423288 117.045955 
L 267.70263 118.839626 
L 270.981953 121.567533 
L 274.261315 124.768878 
L 277.540637 128.710496 
L 280.81998 133.545451 
L 284.099322 138.538681 
L 287.378664 144.094032 
L 290.658006 150.083405 
L 293.937329 156.381866 
L 297.21669 162.813451 
L 300.496013 169.000897 
L 303.775355 175.327711 
L 307.054697 181.555327 
L 310.33402 187.295976 
L 313.613382 192.802338 
L 316.892705 197.602006 
L 320.172047 202.102875 
L 323.451389 205.813187 
L 326.730731 208.91915 
L 330.010073 211.045798 
L 333.289396 212.778585 
L 336.568738 213.125991 
L 339.84808 212.867695 
L 343.127423 211.915929 
L 346.406765 210.144839 
L 349.686088 207.674611 
L 352.96543 204.055972 
L 356.244772 199.782704 
L 359.524114 194.823304 
L 362.803456 189.496215 
L 366.082798 183.421225 
L 369.362141 177.069958 
L 372.641463 170.412971 
L 375.920806 163.50251 
L 379.200148 156.552592 
" clip-path="url(#pabe5fc34b6)" style="fill: none; stroke: #ff7f0e; stroke-width: 0.5; stroke-linecap: round"/>
   </g>
   <g id="line2d_16">
    <path d="M 54.545602 153.339015 
L 57.824941 146.411057 
L 61.10428 139.521499 
L 64.383619 132.647178 
L 67.662958 126.192673 
L 70.942296 120.035611 
L 74.221636 114.441906 
L 77.500973 109.301322 
L 80.780313 104.890883 
L 84.059653 101.19661 
L 87.33899 98.362431 
L 90.61833 96.148424 
L 93.89767 94.755539 
L 97.177007 94.386349 
L 100.456344 94.695795 
L 103.735686 95.72593 
L 107.015024 97.675183 
L 110.294361 100.505422 
L 113.573703 103.843239 
L 116.853041 107.931281 
L 120.132378 112.249317 
L 123.41172 117.379529 
L 126.691057 122.860103 
L 129.970395 128.462579 
L 133.249737 134.421725 
L 136.529069 140.439273 
L 139.808412 146.133814 
L 143.087754 151.729594 
L 146.367086 157.348548 
L 149.646428 162.624182 
L 152.92577 167.405064 
L 156.205103 171.642419 
L 159.484445 175.151969 
L 162.763787 177.94644 
L 166.04312 180.21338 
L 169.322462 181.584078 
L 172.601804 182.124527 
L 175.881137 181.877874 
L 179.160479 180.639401 
L 182.439821 178.783265 
L 185.719153 175.953048 
L 188.998496 172.439431 
L 192.277838 168.065512 
L 195.55717 163.144897 
L 198.836512 157.616719 
L 202.115855 151.281059 
L 205.395187 144.80704 
L 208.674529 137.82733 
L 211.953871 130.596518 
L 215.233204 123.390531 
L 218.512556 116.258114 
L 221.791879 108.770466 
L 225.071221 101.710821 
L 228.350563 95.016756 
L 231.629886 88.728986 
L 234.909247 82.891829 
L 238.18857 77.604934 
L 241.467912 72.872068 
L 244.747254 69.148426 
L 248.026597 65.873278 
L 251.305939 63.671815 
L 254.585262 62.183973 
L 257.864623 61.734566 
L 261.143946 62.169292 
L 264.423288 63.329853 
L 267.70263 65.121214 
L 270.981953 68.047993 
L 274.261315 71.775835 
L 277.540637 76.107062 
L 280.81998 81.366878 
L 284.099322 86.827318 
L 287.378664 92.885051 
L 290.658006 99.288007 
L 293.937329 105.985099 
L 297.21669 112.888498 
L 300.496013 119.772018 
L 303.775355 126.633725 
L 307.054697 133.366562 
L 310.33402 139.723248 
L 313.613382 145.753403 
L 316.892705 151.339593 
L 320.172047 156.296575 
L 323.451389 160.766178 
L 326.730731 164.361332 
L 330.010073 167.538586 
L 333.289396 169.545841 
L 336.568738 170.849191 
L 339.84808 171.477215 
L 343.127423 171.119287 
L 346.406765 170.005543 
L 349.686088 168.074115 
L 352.96543 165.076308 
L 356.244772 161.813366 
L 359.524114 157.807295 
L 362.803456 153.05637 
L 366.082798 147.81362 
L 369.362141 142.205269 
L 372.641463 136.501948 
L 375.920806 130.283125 
L 379.200148 124.261333 
" clip-path="url(#pabe5fc34b6)" style="fill: none; stroke: #ff7f0e; stroke-width: 0.5; stroke-linecap: round"/>
   </g>
   <g id="line2d_17">
    <path d="M 54.545602 116.873526 
L 57.824941 112.122304 
L 61.10428 107.472553 
L 64.383619 102.726519 
L 67.662958 98.495375 
L 70.942296 94.606418 
L 74.221636 91.045436 
L 77.500973 88.242526 
L 80.780313 86.128276 
L 84.059653 84.673959 
L 87.33899 84.118762 
L 90.61833 84.248706 
L 93.89767 85.217635 
L 97.177007 86.858724 
L 100.456344 89.615312 
L 103.735686 93.087698 
L 107.015024 97.264652 
L 110.294361 102.067879 
L 113.573703 107.721255 
L 116.853041 114.127564 
L 120.132378 120.843793 
L 123.41172 127.995145 
L 126.691057 135.559097 
L 129.970395 143.581882 
L 133.249737 151.509247 
L 136.529069 159.402554 
L 139.808412 167.587779 
L 143.087754 175.390158 
L 146.367086 182.908454 
L 149.646428 190.083364 
L 152.92577 196.897025 
L 156.205103 202.942443 
L 159.484445 208.502011 
L 162.763787 213.002937 
L 166.04312 217.196308 
L 169.322462 220.33907 
L 172.601804 222.60299 
L 175.881137 223.992027 
L 179.160479 224.406792 
L 182.439821 224.060675 
L 185.719153 222.706083 
L 188.998496 220.666325 
L 192.277838 217.711388 
L 195.55717 214.162102 
L 198.836512 210.013962 
L 202.115855 204.876926 
L 205.395187 199.638091 
L 208.674529 193.813395 
L 211.953871 187.614038 
L 215.233204 181.548145 
L 218.512556 175.119507 
L 221.791879 168.697859 
L 225.071221 162.376069 
L 228.350563 156.418039 
L 231.629886 150.803356 
L 234.909247 145.756433 
L 238.18857 140.940621 
L 241.467912 136.844202 
L 244.747254 133.400192 
L 248.026597 130.727587 
L 251.305939 128.745517 
L 254.585262 127.665443 
L 257.864623 127.27039 
L 261.143946 127.899934 
L 264.423288 129.141284 
L 267.70263 131.354244 
L 270.981953 134.111967 
L 274.261315 137.942113 
L 277.540637 142.235155 
L 280.81998 147.064205 
L 284.099322 152.603549 
L 287.378664 158.307187 
L 290.658006 164.390331 
L 293.937329 170.718654 
L 297.21669 177.262987 
L 300.496013 183.769264 
L 303.775355 190.247359 
L 307.054697 196.473352 
L 310.33402 202.218232 
L 313.613382 207.814757 
L 316.892705 212.730227 
L 320.172047 217.074961 
L 323.451389 220.639455 
L 326.730731 223.824402 
L 330.010073 225.944617 
L 333.289396 227.603908 
L 336.568738 228.028895 
L 339.84808 227.735864 
L 343.127423 226.606575 
L 346.406765 224.451871 
L 349.686088 221.859364 
L 352.96543 217.955396 
L 356.244772 213.588398 
L 359.524114 208.719168 
L 362.803456 202.912154 
L 366.082798 196.849536 
L 369.362141 190.29798 
L 372.641463 183.586356 
L 375.920806 176.248491 
L 379.200148 169.08916 
" clip-path="url(#pabe5fc34b6)" style="fill: none; stroke: #ff7f0e; stroke-width: 0.5; stroke-linecap: round"/>
   </g>
   <g id="line2d_18">
    <path d="M 54.545602 175.767383 
L 57.824941 170.039969 
L 61.10428 164.57742 
L 64.383619 159.311982 
L 67.662958 154.445089 
L 70.942296 149.94331 
L 74.221636 145.721572 
L 77.500973 142.259277 
L 80.780313 139.365608 
L 84.059653 137.110247 
L 87.33899 135.720299 
L 90.61833 135.268805 
L 93.89767 135.216538 
L 97.177007 136.205922 
L 100.456344 138.299895 
L 103.735686 140.791723 
L 107.015024 144.275862 
L 110.294361 148.60504 
L 113.573703 153.58071 
L 116.853041 158.993762 
L 120.132378 165.164254 
L 123.41172 171.571496 
L 126.691057 178.636162 
L 129.970395 185.785891 
L 133.249737 192.989608 
L 136.529069 200.574878 
L 139.808412 208.034223 
L 143.087754 215.19442 
L 146.367086 222.234863 
L 149.646428 228.626386 
L 152.92577 234.911535 
L 156.205103 240.321808 
L 159.484445 245.175874 
L 162.763787 249.312214 
L 166.04312 252.886231 
L 169.322462 255.521501 
L 172.601804 257.281646 
L 175.881137 258.272737 
L 179.160479 258.361168 
L 182.439821 257.514506 
L 185.719153 255.826181 
L 188.998496 253.239892 
L 192.277838 249.955722 
L 195.55717 245.898068 
L 198.836512 241.330156 
L 202.115855 236.019779 
L 205.395187 230.424777 
L 208.674529 224.266088 
L 211.953871 217.798436 
L 215.233204 211.112962 
L 218.512556 204.597072 
L 221.791879 197.884823 
L 225.071221 191.289226 
L 228.350563 185.162933 
L 231.629886 179.253184 
L 234.909247 173.663239 
L 238.18857 168.624665 
L 241.467912 164.55253 
L 244.747254 160.71229 
L 248.026597 157.775426 
L 251.305939 155.500264 
L 254.585262 154.025276 
L 257.864623 153.608588 
L 261.143946 153.91417 
L 264.423288 154.973642 
L 267.70263 156.794074 
L 270.981953 159.4157 
L 274.261315 162.791791 
L 277.540637 166.822534 
L 280.81998 171.454219 
L 284.099322 176.577065 
L 287.378664 181.913487 
L 290.658006 187.84993 
L 293.937329 193.694117 
L 297.21669 199.946058 
L 300.496013 206.06036 
L 303.775355 212.04086 
L 307.054697 217.791432 
L 310.33402 223.257886 
L 313.613382 228.277464 
L 316.892705 232.765409 
L 320.172047 236.844114 
L 323.451389 240.066323 
L 326.730731 242.478897 
L 330.010073 244.144495 
L 333.289396 245.138137 
L 336.568738 245.237848 
L 339.84808 244.208665 
L 343.127423 242.307098 
L 346.406765 239.70069 
L 349.686088 236.256686 
L 352.96543 232.019411 
L 356.244772 227.00605 
L 359.524114 221.132057 
L 362.803456 214.960533 
L 366.082798 208.006275 
L 369.362141 200.575513 
L 372.641463 192.845024 
L 375.920806 184.979434 
L 379.200148 177.00184 
" clip-path="url(#pabe5fc34b6)" style="fill: none; stroke: #ff7f0e; stroke-width: 0.5; stroke-linecap: round"/>
   </g>
   <g id="line2d_19">
    <path d="M 54.545602 102.152745 
L 57.824941 95.337526 
L 61.10428 88.769271 
L 64.383619 82.341879 
L 67.662958 75.999635 
L 70.942296 70.474804 
L 74.221636 65.174839 
L 77.500973 60.458247 
L 80.780313 56.83794 
L 84.059653 53.483027 
L 87.33899 51.343131 
L 90.61833 49.887838 
L 93.89767 49.219059 
L 97.177007 49.410565 
L 100.456344 50.555487 
L 103.735686 52.60534 
L 107.015024 55.291652 
L 110.294361 58.916356 
L 113.573703 63.348532 
L 116.853041 68.196939 
L 120.132378 73.749419 
L 123.41172 79.800542 
L 126.691057 86.251697 
L 129.970395 93.107182 
L 133.249737 100.0313 
L 136.529069 107.027581 
L 139.808412 114.245593 
L 143.087754 121.345626 
L 146.367086 128.007218 
L 149.646428 134.359988 
L 152.92577 140.289484 
L 156.205103 145.841349 
L 159.484445 150.515213 
L 162.763787 154.755467 
L 166.04312 158.318508 
L 169.322462 161.046568 
L 172.601804 162.980692 
L 175.881137 163.82204 
L 179.160479 164.228206 
L 182.439821 163.593825 
L 185.719153 162.265966 
L 188.998496 159.917358 
L 192.277838 156.872757 
L 195.55717 153.181011 
L 198.836512 148.762814 
L 202.115855 144.067813 
L 205.395187 138.767185 
L 208.674529 133.182404 
L 211.953871 127.315146 
L 215.233204 121.262901 
L 218.512556 115.110369 
L 221.791879 109.139826 
L 225.071221 103.118911 
L 228.350563 97.654106 
L 231.629886 92.247177 
L 234.909247 87.282914 
L 238.18857 83.246518 
L 241.467912 79.479752 
L 244.747254 76.824307 
L 248.026597 74.492994 
L 251.305939 72.994145 
L 254.585262 72.647875 
L 257.864623 72.818621 
L 261.143946 74.061517 
L 264.423288 76.072737 
L 267.70263 79.011882 
L 270.981953 82.488763 
L 274.261315 86.845705 
L 277.540637 91.759835 
L 280.81998 97.458426 
L 284.099322 103.679796 
L 287.378664 110.131634 
L 290.658006 116.989361 
L 293.937329 124.340896 
L 297.21669 131.404588 
L 300.496013 138.668022 
L 303.775355 145.953772 
L 307.054697 152.854892 
L 310.33402 159.577138 
L 313.613382 165.796502 
L 316.892705 171.559517 
L 320.172047 176.726614 
L 323.451389 181.218898 
L 326.730731 184.942617 
L 330.010073 188.009129 
L 333.289396 190.182419 
L 336.568738 191.495372 
L 339.84808 192.142001 
L 343.127423 191.556917 
L 346.406765 190.366701 
L 349.686088 188.124601 
L 352.96543 185.228159 
L 356.244772 181.785884 
L 359.524114 177.315171 
L 362.803456 172.366456 
L 366.082798 166.934678 
L 369.362141 161.098641 
L 372.641463 154.937945 
L 375.920806 148.644566 
L 379.200148 142.149778 
" clip-path="url(#pabe5fc34b6)" style="fill: none; stroke: #ff7f0e; stroke-width: 0.5; stroke-linecap: round"/>
   </g>
   <g id="line2d_20">
    <path d="M 54.545602 142.302716 
L 57.824941 136.685088 
L 61.10428 131.176937 
L 64.383619 125.82527 
L 67.662958 120.768217 
L 70.942296 116.182504 
L 74.221636 111.877295 
L 77.500973 108.423292 
L 80.780313 105.37668 
L 84.059653 103.206089 
L 87.33899 101.640148 
L 90.61833 100.970983 
L 93.89767 100.900637 
L 97.177007 101.884178 
L 100.456344 103.60598 
L 103.735686 106.007206 
L 107.015024 109.343307 
L 110.294361 113.216285 
L 113.573703 117.972474 
L 116.853041 123.071011 
L 120.132378 128.917584 
L 123.41172 135.105545 
L 126.691057 141.676769 
L 129.970395 148.402045 
L 133.249737 155.355237 
L 136.529069 162.18236 
L 139.808412 168.931417 
L 143.087754 175.885018 
L 146.367086 182.167969 
L 149.646428 187.993401 
L 152.92577 193.615177 
L 156.205103 198.646131 
L 159.484445 202.864576 
L 162.763787 206.297826 
L 166.04312 208.958708 
L 169.322462 210.831902 
L 172.601804 211.832237 
L 175.881137 212.349728 
L 179.160479 211.433783 
L 182.439821 209.62401 
L 185.719153 207.02599 
L 188.998496 203.777508 
L 192.277838 199.568687 
L 195.55717 194.797177 
L 198.836512 189.002389 
L 202.115855 182.902319 
L 205.395187 176.347676 
L 208.674529 169.344781 
L 211.953871 161.892605 
L 215.233204 154.539935 
L 218.512556 147.010473 
L 221.791879 139.495696 
L 225.071221 131.970494 
L 228.350563 124.796608 
L 231.629886 118.038221 
L 234.909247 111.829723 
L 238.18857 105.929996 
L 241.467912 100.785403 
L 244.747254 96.376354 
L 248.026597 92.464245 
L 251.305939 89.707622 
L 254.585262 87.511593 
L 257.864623 86.391907 
L 261.143946 86.175016 
L 264.423288 86.646033 
L 267.70263 87.909048 
L 270.981953 90.21625 
L 274.261315 93.182156 
L 277.540637 96.702784 
L 280.81998 101.044771 
L 284.099322 106.009957 
L 287.378664 111.111203 
L 290.658006 116.950988 
L 293.937329 122.684394 
L 297.21669 128.87385 
L 300.496013 135.048891 
L 303.775355 141.127669 
L 307.054697 147.096324 
L 310.33402 152.741168 
L 313.613382 158.016045 
L 316.892705 162.909079 
L 320.172047 167.286191 
L 323.451389 171.056841 
L 326.730731 174.061874 
L 330.010073 176.586633 
L 333.289396 178.061699 
L 336.568738 178.740144 
L 339.84808 178.739798 
L 343.127423 178.036045 
L 346.406765 176.314779 
L 349.686088 173.949285 
L 352.96543 170.889825 
L 356.244772 167.029267 
L 359.524114 162.391948 
L 362.803456 157.471545 
L 366.082798 151.888092 
L 369.362141 146.019129 
L 372.641463 139.911721 
L 375.920806 133.625198 
L 379.200148 127.360888 
" clip-path="url(#pabe5fc34b6)" style="fill: none; stroke: #ff7f0e; stroke-width: 0.5; stroke-linecap: round"/>
   </g>
   <g id="line2d_21">
    <path d="M 54.545602 187.867365 
L 57.824941 181.090074 
L 61.10428 174.523634 
L 64.383619 167.908559 
L 67.662958 161.782301 
L 70.942296 156.115154 
L 74.221636 150.652167 
L 77.500973 146.048744 
L 80.780313 142.070855 
L 84.059653 138.828172 
L 87.33899 136.318031 
L 90.61833 134.445541 
L 93.89767 133.591171 
L 97.177007 133.627313 
L 100.456344 134.351549 
L 103.735686 136.05847 
L 107.015024 138.266218 
L 110.294361 141.56789 
L 113.573703 145.409253 
L 116.853041 149.994327 
L 120.132378 155.005708 
L 123.41172 160.334935 
L 126.691057 166.349986 
L 129.970395 172.69555 
L 133.249737 179.060629 
L 136.529069 185.403517 
L 139.808412 191.876349 
L 143.087754 197.992402 
L 146.367086 204.05247 
L 149.646428 209.689194 
L 152.92577 214.81495 
L 156.205103 219.516137 
L 159.484445 223.480639 
L 162.763787 226.885966 
L 166.04312 229.34181 
L 169.322462 231.318471 
L 172.601804 232.129248 
L 175.881137 232.169867 
L 179.160479 231.552181 
L 182.439821 229.82268 
L 185.719153 227.399676 
L 188.998496 224.155058 
L 192.277838 220.052471 
L 195.55717 215.250253 
L 198.836512 209.921566 
L 202.115855 203.943089 
L 205.395187 197.430784 
L 208.674529 190.632493 
L 211.953871 183.723228 
L 215.233204 176.256618 
L 218.512556 168.990273 
L 221.791879 161.627843 
L 225.071221 154.567596 
L 228.350563 147.702313 
L 231.629886 141.173474 
L 234.909247 135.213232 
L 238.18857 129.874229 
L 241.467912 124.871847 
L 244.747254 120.849831 
L 248.026597 117.379456 
L 251.305939 114.575833 
L 254.585262 113.044908 
L 257.864623 111.96209 
L 261.143946 111.928956 
L 264.423288 112.806278 
L 267.70263 114.514512 
L 270.981953 116.798352 
L 274.261315 119.852448 
L 277.540637 123.809859 
L 280.81998 128.249689 
L 284.099322 133.208753 
L 287.378664 138.531329 
L 290.658006 144.43209 
L 293.937329 150.382474 
L 297.21669 156.396725 
L 300.496013 162.64005 
L 303.775355 168.901369 
L 307.054697 174.742653 
L 310.33402 180.491845 
L 313.613382 185.641449 
L 316.892705 190.392213 
L 320.172047 194.562122 
L 323.451389 198.134217 
L 326.730731 201.039348 
L 330.010073 203.01448 
L 333.289396 204.0993 
L 336.568738 204.738404 
L 339.84808 204.394222 
L 343.127423 202.953508 
L 346.406765 200.983902 
L 349.686088 198.241288 
L 352.96543 194.511251 
L 356.244772 190.215862 
L 359.524114 184.970641 
L 362.803456 179.520245 
L 366.082798 173.273544 
L 369.362141 166.773738 
L 372.641463 159.88899 
L 375.920806 152.845805 
L 379.200148 145.54038 
" clip-path="url(#pabe5fc34b6)" style="fill: none; stroke: #ff7f0e; stroke-width: 0.5; stroke-linecap: round"/>
   </g>
   <g id="line2d_22">
    <path d="M 54.545602 151.145241 
L 57.824941 144.122563 
L 61.10428 137.072416 
L 64.383619 130.294183 
L 67.662958 123.897897 
L 70.942296 117.702917 
L 74.221636 112.26719 
L 77.500973 107.49829 
L 80.780313 103.2607 
L 84.059653 99.904138 
L 87.33899 97.106085 
L 90.61833 95.537927 
L 93.89767 94.245407 
L 97.177007 94.315081 
L 100.456344 95.207687 
L 103.735686 96.996764 
L 107.015024 99.437048 
L 110.294361 102.773371 
L 113.573703 106.79152 
L 116.853041 111.611148 
L 120.132378 116.940743 
L 123.41172 122.51725 
L 126.691057 128.946819 
L 129.970395 135.439647 
L 133.249737 142.387807 
L 136.529069 149.201769 
L 139.808412 156.031317 
L 143.087754 162.710894 
L 146.367086 169.413972 
L 149.646428 175.592938 
L 152.92577 181.71569 
L 156.205103 186.740008 
L 159.484445 191.372305 
L 162.763787 195.442886 
L 166.04312 198.778829 
L 169.322462 201.444559 
L 172.601804 203.114979 
L 175.881137 204.140197 
L 179.160479 204.106437 
L 182.439821 203.376916 
L 185.719153 201.894366 
L 188.998496 199.310627 
L 192.277838 196.279847 
L 195.55717 192.553458 
L 198.836512 187.862131 
L 202.115855 183.081249 
L 205.395187 177.578288 
L 208.674529 171.656986 
L 211.953871 165.634631 
L 215.233204 159.390845 
L 218.512556 152.914297 
L 221.791879 146.607791 
L 225.071221 140.593262 
L 228.350563 134.776879 
L 231.629886 129.187322 
L 234.909247 124.208982 
L 238.18857 119.701061 
L 241.467912 115.729973 
L 244.747254 112.673209 
L 248.026597 110.281119 
L 251.305939 108.570661 
L 254.585262 107.63559 
L 257.864623 107.647718 
L 261.143946 108.319145 
L 264.423288 110.073194 
L 267.70263 112.404506 
L 270.981953 115.738684 
L 274.261315 119.605052 
L 277.540637 124.462604 
L 280.81998 129.556469 
L 284.099322 135.324956 
L 287.378664 141.37909 
L 290.658006 147.974502 
L 293.937329 154.526905 
L 297.21669 161.3725 
L 300.496013 168.023041 
L 303.775355 174.845765 
L 307.054697 181.413748 
L 310.33402 187.468854 
L 313.613382 193.394518 
L 316.892705 198.620448 
L 320.172047 203.352736 
L 323.451389 207.436872 
L 326.730731 210.746466 
L 330.010073 213.396328 
L 333.289396 215.174029 
L 336.568738 216.021313 
L 339.84808 216.148382 
L 343.127423 214.990733 
L 346.406765 213.514014 
L 349.686088 210.951967 
L 352.96543 207.819262 
L 356.244772 203.574391 
L 359.524114 198.98308 
L 362.803456 193.689015 
L 366.082798 187.953899 
L 369.362141 181.644368 
L 372.641463 175.334129 
L 375.920806 168.566307 
L 379.200148 161.733689 
" clip-path="url(#pabe5fc34b6)" style="fill: none; stroke: #ff7f0e; stroke-width: 0.5; stroke-linecap: round"/>
   </g>
   <g id="patch_3">
    <path d="M 38.312875 246.7008 
L 38.312875 33.8112 
" style="fill: none; stroke: #262626; stroke-linejoin: miter; stroke-linecap: square"/>
   </g>
   <g id="patch_4">
    <path d="M 54.545602 273.312 
L 379.200148 273.312 
" style="fill: none; stroke: #262626; stroke-linejoin: miter; stroke-linecap: square"/>
   </g>
   <g id="legend_1">
    <g id="line2d_23">
     <path d="M 334.506625 18.338875 
L 343.306625 18.338875 
L 352.106625 18.338875 
" style="fill: none; stroke: #1f77b4; stroke-width: 1.2; stroke-linecap: round"/>
    </g>
    <g id="text_14">
     <!-- mean -->
     <g style="fill: #262626" transform="translate(359.146625 21.418875) scale(0.088 -0.088)">
      <defs>
       <path id="ArialMT-6d" d="M 422 0 
L 422 3319 
L 925 3319 
L 925 2853 
Q 1081 3097 1340 3245 
Q 1600 3394 1931 3394 
Q 2300 3394 2536 3241 
Q 2772 3088 2869 2813 
Q 3263 3394 3894 3394 
Q 4388 3394 4653 3120 
Q 4919 2847 4919 2278 
L 4919 0 
L 4359 0 
L 4359 2091 
Q 4359 2428 4304 2576 
Q 4250 2725 4106 2815 
Q 3963 2906 3769 2906 
Q 3419 2906 3187 2673 
Q 2956 2441 2956 1928 
L 2956 0 
L 2394 0 
L 2394 2156 
Q 2394 2531 2256 2718 
Q 2119 2906 1806 2906 
Q 1569 2906 1367 2781 
Q 1166 2656 1075 2415 
Q 984 2175 984 1722 
L 984 0 
L 422 0 
z
" transform="scale(0.015625)"/>
       <path id="ArialMT-65" d="M 2694 1069 
L 3275 997 
Q 3138 488 2766 206 
Q 2394 -75 1816 -75 
Q 1088 -75 661 373 
Q 234 822 234 1631 
Q 234 2469 665 2931 
Q 1097 3394 1784 3394 
Q 2450 3394 2872 2941 
Q 3294 2488 3294 1666 
Q 3294 1616 3291 1516 
L 816 1516 
Q 847 969 1125 678 
Q 1403 388 1819 388 
Q 2128 388 2347 550 
Q 2566 713 2694 1069 
z
M 847 1978 
L 2700 1978 
Q 2663 2397 2488 2606 
Q 2219 2931 1791 2931 
Q 1403 2931 1139 2672 
Q 875 2413 847 1978 
z
" transform="scale(0.015625)"/>
       <path id="ArialMT-61" d="M 2588 409 
Q 2275 144 1986 34 
Q 1697 -75 1366 -75 
Q 819 -75 525 192 
Q 231 459 231 875 
Q 231 1119 342 1320 
Q 453 1522 633 1644 
Q 813 1766 1038 1828 
Q 1203 1872 1538 1913 
Q 2219 1994 2541 2106 
Q 2544 2222 2544 2253 
Q 2544 2597 2384 2738 
Q 2169 2928 1744 2928 
Q 1347 2928 1158 2789 
Q 969 2650 878 2297 
L 328 2372 
Q 403 2725 575 2942 
Q 747 3159 1072 3276 
Q 1397 3394 1825 3394 
Q 2250 3394 2515 3294 
Q 2781 3194 2906 3042 
Q 3031 2891 3081 2659 
Q 3109 2516 3109 2141 
L 3109 1391 
Q 3109 606 3145 398 
Q 3181 191 3288 0 
L 2700 0 
Q 2613 175 2588 409 
z
M 2541 1666 
Q 2234 1541 1622 1453 
Q 1275 1403 1131 1340 
Q 988 1278 909 1158 
Q 831 1038 831 891 
Q 831 666 1001 516 
Q 1172 366 1500 366 
Q 1825 366 2078 508 
Q 2331 650 2450 897 
Q 2541 1088 2541 1459 
L 2541 1666 
z
" transform="scale(0.015625)"/>
       <path id="ArialMT-6e" d="M 422 0 
L 422 3319 
L 928 3319 
L 928 2847 
Q 1294 3394 1984 3394 
Q 2284 3394 2536 3286 
Q 2788 3178 2913 3003 
Q 3038 2828 3088 2588 
Q 3119 2431 3119 2041 
L 3119 0 
L 2556 0 
L 2556 2019 
Q 2556 2363 2490 2533 
Q 2425 2703 2258 2804 
Q 2091 2906 1866 2906 
Q 1506 2906 1245 2678 
Q 984 2450 984 1813 
L 984 0 
L 422 0 
z
" transform="scale(0.015625)"/>
      </defs>
      <use xlink:href="#ArialMT-6d"/>
      <use xlink:href="#ArialMT-65" x="83.300781"/>
      <use xlink:href="#ArialMT-61" x="138.916016"/>
      <use xlink:href="#ArialMT-6e" x="194.53125"/>
     </g>
    </g>
    <g id="line2d_24">
     <path d="M 334.506625 30.78675 
L 343.306625 30.78675 
L 352.106625 30.78675 
" style="fill: none; stroke: #ff7f0e; stroke-width: 0.5; stroke-linecap: round"/>
    </g>
    <g id="text_15">
     <!-- sample -->
     <g style="fill: #262626" transform="translate(359.146625 33.86675) scale(0.088 -0.088)">
      <defs>
       <path id="ArialMT-73" d="M 197 991 
L 753 1078 
Q 800 744 1014 566 
Q 1228 388 1613 388 
Q 2000 388 2187 545 
Q 2375 703 2375 916 
Q 2375 1106 2209 1216 
Q 2094 1291 1634 1406 
Q 1016 1563 777 1677 
Q 538 1791 414 1992 
Q 291 2194 291 2438 
Q 291 2659 392 2848 
Q 494 3038 669 3163 
Q 800 3259 1026 3326 
Q 1253 3394 1513 3394 
Q 1903 3394 2198 3281 
Q 2494 3169 2634 2976 
Q 2775 2784 2828 2463 
L 2278 2388 
Q 2241 2644 2061 2787 
Q 1881 2931 1553 2931 
Q 1166 2931 1000 2803 
Q 834 2675 834 2503 
Q 834 2394 903 2306 
Q 972 2216 1119 2156 
Q 1203 2125 1616 2013 
Q 2213 1853 2448 1751 
Q 2684 1650 2818 1456 
Q 2953 1263 2953 975 
Q 2953 694 2789 445 
Q 2625 197 2315 61 
Q 2006 -75 1616 -75 
Q 969 -75 630 194 
Q 291 463 197 991 
z
" transform="scale(0.015625)"/>
       <path id="ArialMT-70" d="M 422 -1272 
L 422 3319 
L 934 3319 
L 934 2888 
Q 1116 3141 1344 3267 
Q 1572 3394 1897 3394 
Q 2322 3394 2647 3175 
Q 2972 2956 3137 2557 
Q 3303 2159 3303 1684 
Q 3303 1175 3120 767 
Q 2938 359 2589 142 
Q 2241 -75 1856 -75 
Q 1575 -75 1351 44 
Q 1128 163 984 344 
L 984 -1272 
L 422 -1272 
z
M 931 1641 
Q 931 1000 1190 694 
Q 1450 388 1819 388 
Q 2194 388 2461 705 
Q 2728 1022 2728 1688 
Q 2728 2322 2467 2637 
Q 2206 2953 1844 2953 
Q 1484 2953 1207 2617 
Q 931 2281 931 1641 
z
" transform="scale(0.015625)"/>
       <path id="ArialMT-6c" d="M 409 0 
L 409 4581 
L 972 4581 
L 972 0 
L 409 0 
z
" transform="scale(0.015625)"/>
      </defs>
      <use xlink:href="#ArialMT-73"/>
      <use xlink:href="#ArialMT-61" x="50"/>
      <use xlink:href="#ArialMT-6d" x="105.615234"/>
      <use xlink:href="#ArialMT-70" x="188.916016"/>
      <use xlink:href="#ArialMT-6c" x="244.53125"/>
      <use xlink:href="#ArialMT-65" x="266.748047"/>
     </g>
    </g>
   </g>
  </g>
 </g>
 <defs>
  <clipPath id="pabe5fc34b6">
   <rect x="38.312875" y="7.2" width="357.12" height="266.112"/>
  </clipPath>
 </defs>
</svg>