<?xml version="1.0" encoding="utf-8" standalone="no"?>
<!DOCTYPE svg PUBLIC "-//W3C//DTD SVG 1.1//EN"
  "http://www.w3.org/Graphics/SVG/1.1/DTD/svg11.dtd">
<svg xmlns:xlink="http://www.w3.org/1999/xlink" width="394.153725pt" height="312.788812pt" viewBox="0 0 394.153725 312.788812" xmlns="http://www.w3.org/2000/svg" version="1.1">
 <metadata>
  <rdf:RDF xmlns:dc="http://purl.org/dc/elements/1.1/" xmlns:cc="http://creativecommons.org/ns#" xmlns:rdf="http://www.w3.org/1999/02/22-rdf-syntax-ns#">
   <cc:Work>
    <dc:type rdf:resource="http://purl.org/dc/dcmitype/StillImage"/>
    <dc:date>2023-09-17T11:30:46.837354</dc:date>
    <dc:format>image/svg+xml</dc:format>
    <dc:creator>
     <cc:Agent>
      <dc:title>Matplotlib v3.7.1, https://matplotlib.org/</dc:title>
     </cc:Agent>
    </dc:creator>
   </cc:Work>
  </rdf:RDF>
 </metadata>
 <defs>
  <style type="text/css">*{stroke-linejoin: round; stroke-linecap: butt}</style>
 </defs>
 <g id="figure_1">
  <g id="patch_1">
   <path d="M 0 312.788812 
L 394.153725 312.788812 
L 394.153725 0 
L 0 0 
z
" style="fill: #ffffff"/>
  </g>
  <g id="axes_1">
   <g id="patch_2">
    <path d="M 38.312875 276.461437 
L 324.008875 276.461437 
L 324.008875 10.349437 
L 38.312875 10.349437 
z
" style="fill: #ffffff"/>
   </g>
   <g id="matplotlib.axis_1">
    <g id="xtick_1">
     <g id="line2d_1">
      <defs>
       <path id="ma8c0d1c1d0" d="M 0 0 
L 0 4.8 
" style="stroke: #262626"/>
      </defs>
      <g>
       <use xlink:href="#ma8c0d1c1d0" x="38.312875" y="276.461437" style="fill: #262626; stroke: #262626"/>
      </g>
     </g>
     <g id="text_1">
      <!-- −3 -->
      <g style="fill: #262626" transform="translate(33.296188 291.060312) scale(0.088 -0.088)">
       <defs>
        <path id="ArialMT-2212" d="M 3381 1997 
L 356 1997 
L 356 2522 
L 3381 2522 
L 3381 1997 
z
" transform="scale(0.015625)"/>
        <path id="ArialMT-33" d="M 269 1209 
L 831 1284 
Q 928 806 1161 595 
Q 1394 384 1728 384 
Q 2125 384 2398 659 
Q 2672 934 2672 1341 
Q 2672 1728 2419 1979 
Q 2166 2231 1775 2231 
Q 1616 2231 1378 2169 
L 1441 2663 
Q 1497 2656 1531 2656 
Q 1891 2656 2178 2843 
Q 2466 3031 2466 3422 
Q 2466 3731 2256 3934 
Q 2047 4138 1716 4138 
Q 1388 4138 1169 3931 
Q 950 3725 888 3313 
L 325 3413 
Q 428 3978 793 4289 
Q 1159 4600 1703 4600 
Q 2078 4600 2393 4439 
Q 2709 4278 2876 4000 
Q 3044 3722 3044 3409 
Q 3044 3113 2884 2869 
Q 2725 2625 2413 2481 
Q 2819 2388 3044 2092 
Q 3269 1797 3269 1353 
Q 3269 753 2831 336 
Q 2394 -81 1725 -81 
Q 1122 -81 723 278 
Q 325 638 269 1209 
z
" transform="scale(0.015625)"/>
       </defs>
       <use xlink:href="#ArialMT-2212"/>
       <use xlink:href="#ArialMT-33" x="58.398438"/>
      </g>
     </g>
    </g>
    <g id="xtick_2">
     <g id="line2d_2">
      <g>
       <use xlink:href="#ma8c0d1c1d0" x="85.928875" y="276.461437" style="fill: #262626; stroke: #262626"/>
      </g>
     </g>
     <g id="text_2">
      <!-- −2 -->
      <g style="fill: #262626" transform="translate(80.912188 291.060312) scale(0.088 -0.088)">
       <defs>
        <path id="ArialMT-32" d="M 3222 541 
L 3222 0 
L 194 0 
Q 188 203 259 391 
Q 375 700 629 1000 
Q 884 1300 1366 1694 
Q 2113 2306 2375 2664 
Q 2638 3022 2638 3341 
Q 2638 3675 2398 3904 
Q 2159 4134 1775 4134 
Q 1369 4134 1125 3890 
Q 881 3647 878 3216 
L 300 3275 
Q 359 3922 746 4261 
Q 1134 4600 1788 4600 
Q 2447 4600 2831 4234 
Q 3216 3869 3216 3328 
Q 3216 3053 3103 2787 
Q 2991 2522 2730 2228 
Q 2469 1934 1863 1422 
Q 1356 997 1212 845 
Q 1069 694 975 541 
L 3222 541 
z
" transform="scale(0.015625)"/>
       </defs>
       <use xlink:href="#ArialMT-2212"/>
       <use xlink:href="#ArialMT-32" x="58.398438"/>
      </g>
     </g>
    </g>
    <g id="xtick_3">
     <g id="line2d_3">
      <g>
       <use xlink:href="#ma8c0d1c1d0" x="133.544875" y="276.461437" style="fill: #262626; stroke: #262626"/>
      </g>
     </g>
     <g id="text_3">
      <!-- −1 -->
      <g style="fill: #262626" transform="translate(128.528188 291.060312) scale(0.088 -0.088)">
       <defs>
        <path id="ArialMT-31" d="M 2384 0 
L 1822 0 
L 1822 3584 
Q 1619 3391 1289 3197 
Q 959 3003 697 2906 
L 697 3450 
Q 1169 3672 1522 3987 
Q 1875 4303 2022 4600 
L 2384 4600 
L 2384 0 
z
" transform="scale(0.015625)"/>
       </defs>
       <use xlink:href="#ArialMT-2212"/>
       <use xlink:href="#ArialMT-31" x="58.398438"/>
      </g>
     </g>
    </g>
    <g id="xtick_4">
     <g id="line2d_4">
      <g>
       <use xlink:href="#ma8c0d1c1d0" x="181.160875" y="276.461437" style="fill: #262626; stroke: #262626"/>
      </g>
     </g>
     <g id="text_4">
      <!-- 0 -->
      <g style="fill: #262626" transform="translate(178.714063 291.060312) scale(0.088 -0.088)">
       <defs>
        <path id="ArialMT-30" d="M 266 2259 
Q 266 3072 433 3567 
Q 600 4063 929 4331 
Q 1259 4600 1759 4600 
Q 2128 4600 2406 4451 
Q 2684 4303 2865 4023 
Q 3047 3744 3150 3342 
Q 3253 2941 3253 2259 
Q 3253 1453 3087 958 
Q 2922 463 2592 192 
Q 2263 -78 1759 -78 
Q 1097 -78 719 397 
Q 266 969 266 2259 
z
M 844 2259 
Q 844 1131 1108 757 
Q 1372 384 1759 384 
Q 2147 384 2411 759 
Q 2675 1134 2675 2259 
Q 2675 3391 2411 3762 
Q 2147 4134 1753 4134 
Q 1366 4134 1134 3806 
Q 844 3388 844 2259 
z
" transform="scale(0.015625)"/>
       </defs>
       <use xlink:href="#ArialMT-30"/>
      </g>
     </g>
    </g>
    <g id="xtick_5">
     <g id="line2d_5">
      <g>
       <use xlink:href="#ma8c0d1c1d0" x="228.776875" y="276.461437" style="fill: #262626; stroke: #262626"/>
      </g>
     </g>
     <g id="text_5">
      <!-- 1 -->
      <g style="fill: #262626" transform="translate(226.330063 291.060312) scale(0.088 -0.088)">
       <use xlink:href="#ArialMT-31"/>
      </g>
     </g>
    </g>
    <g id="xtick_6">
     <g id="line2d_6">
      <g>
       <use xlink:href="#ma8c0d1c1d0" x="276.392875" y="276.461437" style="fill: #262626; stroke: #262626"/>
      </g>
     </g>
     <g id="text_6">
      <!-- 2 -->
      <g style="fill: #262626" transform="translate(273.946062 291.060312) scale(0.088 -0.088)">
       <use xlink:href="#ArialMT-32"/>
      </g>
     </g>
    </g>
    <g id="xtick_7">
     <g id="line2d_7">
      <g>
       <use xlink:href="#ma8c0d1c1d0" x="324.008875" y="276.461437" style="fill: #262626; stroke: #262626"/>
      </g>
     </g>
     <g id="text_7">
      <!-- 3 -->
      <g style="fill: #262626" transform="translate(321.562063 291.060312) scale(0.088 -0.088)">
       <use xlink:href="#ArialMT-33"/>
      </g>
     </g>
    </g>
    <g id="text_8">
     <!-- $w_0$ -->
     <g style="fill: #262626" transform="translate(174.920875 303.680812) scale(0.096 -0.096)">
      <defs>
       <path id="DejaVuSans-Oblique-77" d="M 544 3500 
L 1113 3500 
L 1259 684 
L 2566 3500 
L 3231 3500 
L 3425 684 
L 4666 3500 
L 5241 3500 
L 3641 0 
L 2969 0 
L 2797 2900 
L 1459 0 
L 781 0 
L 544 3500 
z
" transform="scale(0.015625)"/>
       <path id="DejaVuSans-30" d="M 2034 4250 
Q 1547 4250 1301 3770 
Q 1056 3291 1056 2328 
Q 1056 1369 1301 889 
Q 1547 409 2034 409 
Q 2525 409 2770 889 
Q 3016 1369 3016 2328 
Q 3016 3291 2770 3770 
Q 2525 4250 2034 4250 
z
M 2034 4750 
Q 2819 4750 3233 4129 
Q 3647 3509 3647 2328 
Q 3647 1150 3233 529 
Q 2819 -91 2034 -91 
Q 1250 -91 836 529 
Q 422 1150 422 2328 
Q 422 3509 836 4129 
Q 1250 4750 2034 4750 
z
" transform="scale(0.015625)"/>
      </defs>
      <use xlink:href="#DejaVuSans-Oblique-77" transform="translate(0 0.3125)"/>
      <use xlink:href="#DejaVuSans-30" transform="translate(81.787109 -16.09375) scale(0.7)"/>
     </g>
    </g>
   </g>
   <g id="matplotlib.axis_2">
    <g id="ytick_1">
     <g id="line2d_8">
      <defs>
       <path id="m0119093b0c" d="M 0 0 
L -4.8 0 
" style="stroke: #262626"/>
      </defs>
      <g>
       <use xlink:href="#m0119093b0c" x="38.312875" y="276.461437" style="fill: #262626; stroke: #262626"/>
      </g>
     </g>
     <g id="text_9">
      <!-- −3 -->
      <g style="fill: #262626" transform="translate(19.9795 279.610875) scale(0.088 -0.088)">
       <use xlink:href="#ArialMT-2212"/>
       <use xlink:href="#ArialMT-33" x="58.398438"/>
      </g>
     </g>
    </g>
    <g id="ytick_2">
     <g id="line2d_9">
      <g>
       <use xlink:href="#m0119093b0c" x="38.312875" y="232.109437" style="fill: #262626; stroke: #262626"/>
      </g>
     </g>
     <g id="text_10">
      <!-- −2 -->
      <g style="fill: #262626" transform="translate(19.9795 235.258875) scale(0.088 -0.088)">
       <use xlink:href="#ArialMT-2212"/>
       <use xlink:href="#ArialMT-32" x="58.398438"/>
      </g>
     </g>
    </g>
    <g id="ytick_3">
     <g id="line2d_10">
      <g>
       <use xlink:href="#m0119093b0c" x="38.312875" y="187.757437" style="fill: #262626; stroke: #262626"/>
      </g>
     </g>
     <g id="text_11">
      <!-- −1 -->
      <g style="fill: #262626" transform="translate(19.9795 190.906875) scale(0.088 -0.088)">
       <use xlink:href="#ArialMT-2212"/>
       <use xlink:href="#ArialMT-31" x="58.398438"/>
      </g>
     </g>
    </g>
    <g id="ytick_4">
     <g id="line2d_11">
      <g>
       <use xlink:href="#m0119093b0c" x="38.312875" y="143.405437" style="fill: #262626; stroke: #262626"/>
      </g>
     </g>
     <g id="text_12">
      <!-- 0 -->
      <g style="fill: #262626" transform="translate(25.11925 146.554875) scale(0.088 -0.088)">
       <use xlink:href="#ArialMT-30"/>
      </g>
     </g>
    </g>
    <g id="ytick_5">
     <g id="line2d_12">
      <g>
       <use xlink:href="#m0119093b0c" x="38.312875" y="99.053437" style="fill: #262626; stroke: #262626"/>
      </g>
     </g>
     <g id="text_13">
      <!-- 1 -->
      <g style="fill: #262626" transform="translate(25.11925 102.202875) scale(0.088 -0.088)">
       <use xlink:href="#ArialMT-31"/>
      </g>
     </g>
    </g>
    <g id="ytick_6">
     <g id="line2d_13">
      <g>
       <use xlink:href="#m0119093b0c" x="38.312875" y="54.701437" style="fill: #262626; stroke: #262626"/>
      </g>
     </g>
     <g id="text_14">
      <!-- 2 -->
      <g style="fill: #262626" transform="translate(25.11925 57.850875) scale(0.088 -0.088)">
       <use xlink:href="#ArialMT-32"/>
      </g>
     </g>
    </g>
    <g id="ytick_7">
     <g id="line2d_14">
      <g>
       <use xlink:href="#m0119093b0c" x="38.312875" y="10.349437" style="fill: #262626; stroke: #262626"/>
      </g>
     </g>
     <g id="text_15">
      <!-- 3 -->
      <g style="fill: #262626" transform="translate(25.11925 13.498875) scale(0.088 -0.088)">
       <use xlink:href="#ArialMT-33"/>
      </g>
     </g>
    </g>
    <g id="text_16">
     <!-- $w_1$ -->
     <g style="fill: #262626" transform="translate(14.0715 149.645437) rotate(-90) scale(0.096 -0.096)">
      <defs>
       <path id="DejaVuSans-31" d="M 794 531 
L 1825 531 
L 1825 4091 
L 703 3866 
L 703 4441 
L 1819 4666 
L 2450 4666 
L 2450 531 
L 3481 531 
L 3481 0 
L 794 0 
L 794 531 
z
" transform="scale(0.015625)"/>
      </defs>
      <use xlink:href="#DejaVuSans-Oblique-77" transform="translate(0 0.3125)"/>
      <use xlink:href="#DejaVuSans-31" transform="translate(81.787109 -16.09375) scale(0.7)"/>
     </g>
    </g>
   </g>
   <g id="PathCollection_1">
    <path d="M 42.847732 276.461437 
L 47.382589 276.461437 
L 51.917446 276.461437 
L 56.452304 276.461437 
L 60.987161 276.461437 
L 65.522018 276.461437 
L 70.056875 276.461437 
L 74.591732 276.461437 
L 79.126589 276.461437 
L 83.661446 276.461437 
L 88.196304 276.461437 
L 92.731161 276.461437 
L 97.266018 276.461437 
L 101.800875 276.461437 
L 106.335732 276.461437 
L 110.870589 276.461437 
L 115.405446 276.461437 
L 119.940304 276.461437 
L 124.475161 276.461437 
L 129.010018 276.461437 
L 133.544875 276.461437 
L 138.079732 276.461437 
L 142.614589 276.461437 
L 147.149446 276.461437 
L 151.684304 276.461437 
L 156.219161 276.461437 
L 160.754018 276.461437 
L 165.288875 276.461437 
L 169.823732 276.461437 
L 174.358589 276.461437 
L 178.893446 276.461437 
L 183.428304 276.461437 
L 187.963161 276.461437 
L 192.498018 276.461437 
L 197.032875 276.461437 
L 201.567732 276.461437 
L 206.102589 276.461437 
L 210.637446 276.461437 
L 215.172304 276.461437 
L 219.707161 276.461437 
L 224.242018 276.461437 
L 228.776875 276.461437 
L 233.311732 276.461437 
L 237.846589 276.461437 
L 242.381446 276.461437 
L 246.916304 276.461437 
L 251.451161 276.461437 
L 255.986018 276.461437 
L 260.520875 276.461437 
L 265.055732 276.461437 
L 269.590589 276.461437 
L 274.125446 276.461437 
L 278.660304 276.461437 
L 283.195161 276.461437 
L 287.730018 276.461437 
L 292.264875 276.461437 
L 296.799732 276.461437 
L 301.334589 276.461437 
L 305.869446 276.461437 
L 310.404304 276.461437 
L 314.939161 276.461437 
L 319.474018 276.461437 
L 324.008875 276.461437 
L 324.008875 272.237437 
L 324.008875 268.013437 
L 324.008875 263.789437 
L 324.008875 259.565437 
L 324.008875 255.341437 
L 324.008875 251.117437 
L 324.008875 246.893437 
L 324.008875 242.669437 
L 324.008875 238.445437 
L 324.008875 234.221437 
L 324.008875 229.997437 
L 324.008875 225.773437 
L 324.008875 221.549437 
L 324.008875 217.325437 
L 324.008875 213.101437 
L 324.008875 208.877437 
L 324.008875 204.653437 
L 324.008875 200.429437 
L 324.008875 196.205437 
L 324.008875 191.981437 
L 324.008875 187.757437 
L 324.008875 183.533437 
L 324.008875 179.309437 
L 324.008875 175.085437 
L 324.008875 170.861437 
L 324.008875 166.637437 
L 324.008875 162.413437 
L 324.008875 158.189437 
L 324.008875 153.965437 
L 324.008875 149.741437 
L 324.008875 145.517437 
L 324.008875 141.293437 
L 324.008875 137.069437 
L 324.008875 132.845437 
L 324.008875 128.621437 
L 324.008875 124.397437 
L 324.008875 120.173437 
L 324.008875 115.949437 
L 324.008875 111.725437 
L 324.008875 107.501437 
L 324.008875 103.277437 
L 324.008875 99.053437 
L 324.008875 94.829437 
L 324.008875 90.605437 
L 324.008875 86.381437 
L 324.008875 82.157437 
L 324.008875 77.933437 
L 324.008875 73.709437 
L 324.008875 69.485437 
L 324.008875 65.261437 
L 324.008875 61.037437 
L 324.008875 56.813437 
L 324.008875 52.589437 
L 324.008875 48.365437 
L 324.008875 44.141437 
L 324.008875 39.917437 
L 324.008875 35.693437 
L 324.008875 31.469437 
L 324.008875 27.245437 
L 324.008875 23.021437 
L 324.008875 18.797437 
L 324.008875 14.573437 
L 324.008875 10.349437 
L 319.474018 10.349437 
L 314.939161 10.349437 
L 310.404304 10.349437 
L 305.869446 10.349437 
L 301.334589 10.349437 
L 296.799732 10.349437 
L 292.264875 10.349437 
L 287.730018 10.349437 
L 283.195161 10.349437 
L 278.660304 10.349437 
L 274.125446 10.349437 
L 269.590589 10.349437 
L 265.055732 10.349437 
L 260.520875 10.349437 
L 255.986018 10.349437 
L 251.451161 10.349437 
L 246.916304 10.349437 
L 242.381446 10.349437 
L 237.846589 10.349437 
L 233.311732 10.349437 
L 228.776875 10.349437 
L 224.242018 10.349437 
L 219.707161 10.349437 
L 215.172304 10.349437 
L 210.637446 10.349437 
L 206.102589 10.349437 
L 201.567732 10.349437 
L 197.032875 10.349437 
L 192.498018 10.349437 
L 187.963161 10.349437 
L 183.428304 10.349437 
L 178.893446 10.349437 
L 174.358589 10.349437 
L 169.823732 10.349437 
L 165.288875 10.349437 
L 160.754018 10.349437 
L 156.219161 10.349437 
L 151.684304 10.349437 
L 147.149446 10.349437 
L 142.614589 10.349437 
L 138.079732 10.349437 
L 133.544875 10.349437 
L 129.010018 10.349437 
L 124.475161 10.349437 
L 119.940304 10.349437 
L 115.405446 10.349437 
L 110.870589 10.349437 
L 106.335732 10.349437 
L 101.800875 10.349437 
L 97.266018 10.349437 
L 92.731161 10.349437 
L 88.196304 10.349437 
L 83.661446 10.349437 
L 79.126589 10.349437 
L 74.591732 10.349437 
L 70.056875 10.349437 
L 65.522018 10.349437 
L 60.987161 10.349437 
L 56.452304 10.349437 
L 51.917446 10.349437 
L 47.382589 10.349437 
L 42.847732 10.349437 
L 38.312875 10.349437 
L 38.312875 14.573437 
L 38.312875 18.797437 
L 38.312875 23.021437 
L 38.312875 27.245437 
L 38.312875 31.469437 
L 38.312875 35.693437 
L 38.312875 39.917437 
L 38.312875 44.141437 
L 38.312875 48.365437 
L 38.312875 52.589437 
L 38.312875 56.813437 
L 38.312875 61.037437 
L 38.312875 65.261437 
L 38.312875 69.485437 
L 38.312875 73.709437 
L 38.312875 77.933437 
L 38.312875 82.157437 
L 38.312875 86.381437 
L 38.312875 90.605437 
L 38.312875 94.829437 
L 38.312875 99.053437 
L 38.312875 103.277437 
L 38.312875 107.501437 
L 38.312875 111.725437 
L 38.312875 115.949437 
L 38.312875 120.173437 
L 38.312875 124.397437 
L 38.312875 128.621437 
L 38.312875 132.845437 
L 38.312875 137.069437 
L 38.312875 141.293437 
L 38.312875 145.517437 
L 38.312875 149.741437 
L 38.312875 153.965437 
L 38.312875 158.189437 
L 38.312875 162.413437 
L 38.312875 166.637437 
L 38.312875 170.861437 
L 38.312875 175.085437 
L 38.312875 179.309437 
L 38.312875 183.533437 
L 38.312875 187.757437 
L 38.312875 191.981437 
L 38.312875 196.205437 
L 38.312875 200.429437 
L 38.312875 204.653437 
L 38.312875 208.877437 
L 38.312875 213.101437 
L 38.312875 217.325437 
L 38.312875 221.549437 
L 38.312875 225.773437 
L 38.312875 229.997437 
L 38.312875 234.221437 
L 38.312875 238.445437 
L 38.312875 242.669437 
L 38.312875 246.893437 
L 38.312875 251.117437 
L 38.312875 255.341437 
L 38.312875 259.565437 
L 38.312875 263.789437 
L 38.312875 268.013437 
L 38.312875 272.237437 
L 38.312875 276.461437 
z
M 156.789892 56.813437 
L 157.20563 52.589437 
L 160.754018 49.294681 
L 164.173303 52.589437 
L 164.734341 56.813437 
L 160.754018 60.99492 
z
" clip-path="url(#p528f8a9e08)" style="fill: #180f29"/>
   </g>
   <g id="PathCollection_2">
    <path d="M 160.754018 60.99492 
L 164.734341 56.813437 
L 164.173303 52.589437 
L 160.754018 49.294681 
L 157.20563 52.589437 
L 156.789892 56.813437 
z
M 157.401308 56.813437 
L 158.377158 52.589437 
L 160.754018 50.38247 
L 163.0444 52.589437 
L 164.120427 56.813437 
L 160.754018 60.34998 
z
" clip-path="url(#p528f8a9e08)" style="fill: #481c48"/>
   </g>
   <g id="PathCollection_3">
    <path d="M 160.754018 60.34998 
L 164.120427 56.813437 
L 163.0444 52.589437 
L 160.754018 50.38247 
L 158.377158 52.589437 
L 157.401308 56.813437 
z
M 158.012724 56.813437 
L 159.548685 52.589437 
L 160.754018 51.470259 
L 161.915497 52.589437 
L 163.506512 56.813437 
L 160.754018 59.705039 
z
" clip-path="url(#p528f8a9e08)" style="fill: #7b1f59"/>
   </g>
   <g id="PathCollection_4">
    <path d="M 160.754018 59.705039 
L 163.506512 56.813437 
L 161.915497 52.589437 
L 160.754018 51.470259 
L 159.548685 52.589437 
L 158.012724 56.813437 
z
M 158.624141 56.813437 
L 160.720213 52.589437 
L 160.754018 52.558049 
L 160.786593 52.589437 
L 162.892597 56.813437 
L 160.754018 59.060098 
z
" clip-path="url(#p528f8a9e08)" style="fill: #b21758"/>
   </g>
   <g id="PathCollection_5">
    <path d="M 160.754018 59.060098 
L 162.892597 56.813437 
L 160.786593 52.589437 
L 160.754018 52.558049 
L 160.720213 52.589437 
L 158.624141 56.813437 
z
M 159.235557 56.813437 
L 160.754018 53.776853 
L 162.278683 56.813437 
L 160.754018 58.415157 
z
" clip-path="url(#p528f8a9e08)" style="fill: #df2f44"/>
   </g>
   <g id="PathCollection_6">
    <path d="M 160.754018 58.415157 
L 162.278683 56.813437 
L 160.754018 53.776853 
L 159.235557 56.813437 
z
M 159.846974 56.813437 
L 160.754018 54.99955 
L 161.664768 56.813437 
L 160.754018 57.770216 
z
" clip-path="url(#p528f8a9e08)" style="fill: #f26b49"/>
   </g>
   <g id="PathCollection_7">
    <path d="M 160.754018 57.770216 
L 161.664768 56.813437 
L 160.754018 54.99955 
L 159.846974 56.813437 
z
M 160.45839 56.813437 
L 160.754018 56.222247 
L 161.050854 56.813437 
L 160.754018 57.125275 
z
" clip-path="url(#p528f8a9e08)" style="fill: #f6a37a"/>
   </g>
   <g id="PathCollection_8">
    <path d="M 160.754018 57.125275 
L 161.050854 56.813437 
L 160.754018 56.222247 
L 160.45839 56.813437 
z
" clip-path="url(#p528f8a9e08)" style="fill: #f8d4bc"/>
   </g>
   <g id="line2d_15">
    <defs>
     <path id="m444e544e92" d="M 0 2.4 
C 0.636487 2.4 1.246992 2.147121 1.697056 1.697056 
C 2.147121 1.246992 2.4 0.636487 2.4 0 
C 2.4 -0.636487 2.147121 -1.246992 1.697056 -1.697056 
C 1.246992 -2.147121 0.636487 -2.4 0 -2.4 
C -0.636487 -2.4 -1.246992 -2.147121 -1.697056 -1.697056 
C -2.147121 -1.246992 -2.4 -0.636487 -2.4 0 
C -2.4 0.636487 -2.147121 1.246992 -1.697056 1.697056 
C -1.246992 2.147121 -0.636487 2.4 0 2.4 
z
" style="stroke: #ff0000"/>
    </defs>
    <g clip-path="url(#p528f8a9e08)">
     <use xlink:href="#m444e544e92" x="157.352875" y="54.701437" style="fill: #ff0000; stroke: #ff0000"/>
    </g>
   </g>
   <g id="patch_3">
    <path d="M 38.312875 276.461437 
L 38.312875 10.349437 
" style="fill: none; stroke: #262626; stroke-linejoin: miter; stroke-linecap: square"/>
   </g>
   <g id="patch_4">
    <path d="M 324.008875 276.461437 
L 324.008875 10.349437 
" style="fill: none; stroke: #262626; stroke-linejoin: miter; stroke-linecap: square"/>
   </g>
   <g id="patch_5">
    <path d="M 38.312875 276.461437 
L 324.008875 276.461437 
" style="fill: none; stroke: #262626; stroke-linejoin: miter; stroke-linecap: square"/>
   </g>
   <g id="patch_6">
    <path d="M 38.312875 10.349437 
L 324.008875 10.349437 
" style="fill: none; stroke: #262626; stroke-linejoin: miter; stroke-linecap: square"/>
   </g>
   <g id="legend_1">
    <g id="patch_7">
     <path d="M 248.44575 29.837312 
L 317.848875 29.837312 
Q 319.608875 29.837312 319.608875 28.077312 
L 319.608875 16.509437 
Q 319.608875 14.749437 317.848875 14.749437 
L 248.44575 14.749437 
Q 246.68575 14.749437 246.68575 16.509437 
L 246.68575 28.077312 
Q 246.68575 29.837312 248.44575 29.837312 
z
" style="fill: #ffffff; opacity: 0.8; stroke: #cccccc; stroke-width: 0.8; stroke-linejoin: miter"/>
    </g>
    <g id="line2d_16">
     <g>
      <use xlink:href="#m444e544e92" x="259.00575" y="21.488312" style="fill: #ff0000; stroke: #ff0000"/>
     </g>
    </g>
    <g id="text_17">
     <!-- True value -->
     <g style="fill: #262626" transform="translate(274.84575 24.568312) scale(0.088 -0.088)">
      <defs>
       <path id="ArialMT-54" d="M 1659 0 
L 1659 4041 
L 150 4041 
L 150 4581 
L 3781 4581 
L 3781 4041 
L 2266 4041 
L 2266 0 
L 1659 0 
z
" transform="scale(0.015625)"/>
       <path id="ArialMT-72" d="M 416 0 
L 416 3319 
L 922 3319 
L 922 2816 
Q 1116 3169 1280 3281 
Q 1444 3394 1641 3394 
Q 1925 3394 2219 3213 
L 2025 2691 
Q 1819 2813 1613 2813 
Q 1428 2813 1281 2702 
Q 1134 2591 1072 2394 
Q 978 2094 978 1738 
L 978 0 
L 416 0 
z
" transform="scale(0.015625)"/>
       <path id="ArialMT-75" d="M 2597 0 
L 2597 488 
Q 2209 -75 1544 -75 
Q 1250 -75 995 37 
Q 741 150 617 320 
Q 494 491 444 738 
Q 409 903 409 1263 
L 409 3319 
L 972 3319 
L 972 1478 
Q 972 1038 1006 884 
Q 1059 663 1231 536 
Q 1403 409 1656 409 
Q 1909 409 2131 539 
Q 2353 669 2445 892 
Q 2538 1116 2538 1541 
L 2538 3319 
L 3100 3319 
L 3100 0 
L 2597 0 
z
" transform="scale(0.015625)"/>
       <path id="ArialMT-65" d="M 2694 1069 
L 3275 997 
Q 3138 488 2766 206 
Q 2394 -75 1816 -75 
Q 1088 -75 661 373 
Q 234 822 234 1631 
Q 234 2469 665 2931 
Q 1097 3394 1784 3394 
Q 2450 3394 2872 2941 
Q 3294 2488 3294 1666 
Q 3294 1616 3291 1516 
L 816 1516 
Q 847 969 1125 678 
Q 1403 388 1819 388 
Q 2128 388 2347 550 
Q 2566 713 2694 1069 
z
M 847 1978 
L 2700 1978 
Q 2663 2397 2488 2606 
Q 2219 2931 1791 2931 
Q 1403 2931 1139 2672 
Q 875 2413 847 1978 
z
" transform="scale(0.015625)"/>
       <path id="ArialMT-20" transform="scale(0.015625)"/>
       <path id="ArialMT-76" d="M 1344 0 
L 81 3319 
L 675 3319 
L 1388 1331 
Q 1503 1009 1600 663 
Q 1675 925 1809 1294 
L 2547 3319 
L 3125 3319 
L 1869 0 
L 1344 0 
z
" transform="scale(0.015625)"/>
       <path id="ArialMT-61" d="M 2588 409 
Q 2275 144 1986 34 
Q 1697 -75 1366 -75 
Q 819 -75 525 192 
Q 231 459 231 875 
Q 231 1119 342 1320 
Q 453 1522 633 1644 
Q 813 1766 1038 1828 
Q 1203 1872 1538 1913 
Q 2219 1994 2541 2106 
Q 2544 2222 2544 2253 
Q 2544 2597 2384 2738 
Q 2169 2928 1744 2928 
Q 1347 2928 1158 2789 
Q 969 2650 878 2297 
L 328 2372 
Q 403 2725 575 2942 
Q 747 3159 1072 3276 
Q 1397 3394 1825 3394 
Q 2250 3394 2515 3294 
Q 2781 3194 2906 3042 
Q 3031 2891 3081 2659 
Q 3109 2516 3109 2141 
L 3109 1391 
Q 3109 606 3145 398 
Q 3181 191 3288 0 
L 2700 0 
Q 2613 175 2588 409 
z
M 2541 1666 
Q 2234 1541 1622 1453 
Q 1275 1403 1131 1340 
Q 988 1278 909 1158 
Q 831 1038 831 891 
Q 831 666 1001 516 
Q 1172 366 1500 366 
Q 1825 366 2078 508 
Q 2331 650 2450 897 
Q 2541 1088 2541 1459 
L 2541 1666 
z
" transform="scale(0.015625)"/>
       <path id="ArialMT-6c" d="M 409 0 
L 409 4581 
L 972 4581 
L 972 0 
L 409 0 
z
" transform="scale(0.015625)"/>
      </defs>
      <use xlink:href="#ArialMT-54"/>
      <use xlink:href="#ArialMT-72" x="57.333984"/>
      <use xlink:href="#ArialMT-75" x="90.634766"/>
      <use xlink:href="#ArialMT-65" x="146.25"/>
      <use xlink:href="#ArialMT-20" x="201.865234"/>
      <use xlink:href="#ArialMT-76" x="229.648438"/>
      <use xlink:href="#ArialMT-61" x="279.648438"/>
      <use xlink:href="#ArialMT-6c" x="335.263672"/>
      <use xlink:href="#ArialMT-75" x="357.480469"/>
      <use xlink:href="#ArialMT-65" x="413.095703"/>
     </g>
    </g>
   </g>
  </g>
  <g id="axes_2">
   <g id="patch_8">
    <path d="M 341.864875 276.461437 
L 355.170475 276.461437 
L 355.170475 10.349437 
L 341.864875 10.349437 
z
" style="fill: #ffffff"/>
   </g>
   <g id="matplotlib.axis_3"/>
   <g id="matplotlib.axis_4">
    <g id="ytick_8">
     <g id="line2d_17">
      <defs>
       <path id="m3aee4984d9" d="M 0 0 
L 4.8 0 
" style="stroke: #262626"/>
      </defs>
      <g>
       <use xlink:href="#m3aee4984d9" x="355.170475" y="276.461437" style="fill: #262626; stroke: #262626"/>
      </g>
     </g>
     <g id="text_18">
      <!-- 0 -->
      <g style="fill: #262626" transform="translate(363.470475 279.610875) scale(0.088 -0.088)">
       <use xlink:href="#ArialMT-30"/>
      </g>
     </g>
    </g>
    <g id="ytick_9">
     <g id="line2d_18">
      <g>
       <use xlink:href="#m3aee4984d9" x="355.170475" y="243.197437" style="fill: #262626; stroke: #262626"/>
      </g>
     </g>
     <g id="text_19">
      <!-- 10 -->
      <g style="fill: #262626" transform="translate(363.470475 246.346875) scale(0.088 -0.088)">
       <use xlink:href="#ArialMT-31"/>
       <use xlink:href="#ArialMT-30" x="55.615234"/>
      </g>
     </g>
    </g>
    <g id="ytick_10">
     <g id="line2d_19">
      <g>
       <use xlink:href="#m3aee4984d9" x="355.170475" y="209.933437" style="fill: #262626; stroke: #262626"/>
      </g>
     </g>
     <g id="text_20">
      <!-- 20 -->
      <g style="fill: #262626" transform="translate(363.470475 213.082875) scale(0.088 -0.088)">
       <use xlink:href="#ArialMT-32"/>
       <use xlink:href="#ArialMT-30" x="55.615234"/>
      </g>
     </g>
    </g>
    <g id="ytick_11">
     <g id="line2d_20">
      <g>
       <use xlink:href="#m3aee4984d9" x="355.170475" y="176.669437" style="fill: #262626; stroke: #262626"/>
      </g>
     </g>
     <g id="text_21">
      <!-- 30 -->
      <g style="fill: #262626" transform="translate(363.470475 179.818875) scale(0.088 -0.088)">
       <use xlink:href="#ArialMT-33"/>
       <use xlink:href="#ArialMT-30" x="55.615234"/>
      </g>
     </g>
    </g>
    <g id="ytick_12">
     <g id="line2d_21">
      <g>
       <use xlink:href="#m3aee4984d9" x="355.170475" y="143.405437" style="fill: #262626; stroke: #262626"/>
      </g>
     </g>
     <g id="text_22">
      <!-- 40 -->
      <g style="fill: #262626" transform="translate(363.470475 146.554875) scale(0.088 -0.088)">
       <defs>
        <path id="ArialMT-34" d="M 2069 0 
L 2069 1097 
L 81 1097 
L 81 1613 
L 2172 4581 
L 2631 4581 
L 2631 1613 
L 3250 1613 
L 3250 1097 
L 2631 1097 
L 2631 0 
L 2069 0 
z
M 2069 1613 
L 2069 3678 
L 634 1613 
L 2069 1613 
z
" transform="scale(0.015625)"/>
       </defs>
       <use xlink:href="#ArialMT-34"/>
       <use xlink:href="#ArialMT-30" x="55.615234"/>
      </g>
     </g>
    </g>
    <g id="ytick_13">
     <g id="line2d_22">
      <g>
       <use xlink:href="#m3aee4984d9" x="355.170475" y="110.141437" style="fill: #262626; stroke: #262626"/>
      </g>
     </g>
     <g id="text_23">
      <!-- 50 -->
      <g style="fill: #262626" transform="translate(363.470475 113.290875) scale(0.088 -0.088)">
       <defs>
        <path id="ArialMT-35" d="M 266 1200 
L 856 1250 
Q 922 819 1161 601 
Q 1400 384 1738 384 
Q 2144 384 2425 690 
Q 2706 997 2706 1503 
Q 2706 1984 2436 2262 
Q 2166 2541 1728 2541 
Q 1456 2541 1237 2417 
Q 1019 2294 894 2097 
L 366 2166 
L 809 4519 
L 3088 4519 
L 3088 3981 
L 1259 3981 
L 1013 2750 
Q 1425 3038 1878 3038 
Q 2478 3038 2890 2622 
Q 3303 2206 3303 1553 
Q 3303 931 2941 478 
Q 2500 -78 1738 -78 
Q 1113 -78 717 272 
Q 322 622 266 1200 
z
" transform="scale(0.015625)"/>
       </defs>
       <use xlink:href="#ArialMT-35"/>
       <use xlink:href="#ArialMT-30" x="55.615234"/>
      </g>
     </g>
    </g>
    <g id="ytick_14">
     <g id="line2d_23">
      <g>
       <use xlink:href="#m3aee4984d9" x="355.170475" y="76.877437" style="fill: #262626; stroke: #262626"/>
      </g>
     </g>
     <g id="text_24">
      <!-- 60 -->
      <g style="fill: #262626" transform="translate(363.470475 80.026875) scale(0.088 -0.088)">
       <defs>
        <path id="ArialMT-36" d="M 3184 3459 
L 2625 3416 
Q 2550 3747 2413 3897 
Q 2184 4138 1850 4138 
Q 1581 4138 1378 3988 
Q 1113 3794 959 3422 
Q 806 3050 800 2363 
Q 1003 2672 1297 2822 
Q 1591 2972 1913 2972 
Q 2475 2972 2870 2558 
Q 3266 2144 3266 1488 
Q 3266 1056 3080 686 
Q 2894 316 2569 119 
Q 2244 -78 1831 -78 
Q 1128 -78 684 439 
Q 241 956 241 2144 
Q 241 3472 731 4075 
Q 1159 4600 1884 4600 
Q 2425 4600 2770 4297 
Q 3116 3994 3184 3459 
z
M 888 1484 
Q 888 1194 1011 928 
Q 1134 663 1356 523 
Q 1578 384 1822 384 
Q 2178 384 2434 671 
Q 2691 959 2691 1453 
Q 2691 1928 2437 2201 
Q 2184 2475 1800 2475 
Q 1419 2475 1153 2201 
Q 888 1928 888 1484 
z
" transform="scale(0.015625)"/>
       </defs>
       <use xlink:href="#ArialMT-36"/>
       <use xlink:href="#ArialMT-30" x="55.615234"/>
      </g>
     </g>
    </g>
    <g id="ytick_15">
     <g id="line2d_24">
      <g>
       <use xlink:href="#m3aee4984d9" x="355.170475" y="43.613437" style="fill: #262626; stroke: #262626"/>
      </g>
     </g>
     <g id="text_25">
      <!-- 70 -->
      <g style="fill: #262626" transform="translate(363.470475 46.762875) scale(0.088 -0.088)">
       <defs>
        <path id="ArialMT-37" d="M 303 3981 
L 303 4522 
L 3269 4522 
L 3269 4084 
Q 2831 3619 2401 2847 
Q 1972 2075 1738 1259 
Q 1569 684 1522 0 
L 944 0 
Q 953 541 1156 1306 
Q 1359 2072 1739 2783 
Q 2119 3494 2547 3981 
L 303 3981 
z
" transform="scale(0.015625)"/>
       </defs>
       <use xlink:href="#ArialMT-37"/>
       <use xlink:href="#ArialMT-30" x="55.615234"/>
      </g>
     </g>
    </g>
    <g id="ytick_16">
     <g id="line2d_25">
      <g>
       <use xlink:href="#m3aee4984d9" x="355.170475" y="10.349437" style="fill: #262626; stroke: #262626"/>
      </g>
     </g>
     <g id="text_26">
      <!-- 80 -->
      <g style="fill: #262626" transform="translate(363.470475 13.498875) scale(0.088 -0.088)">
       <defs>
        <path id="ArialMT-38" d="M 1131 2484 
Q 781 2613 612 2850 
Q 444 3088 444 3419 
Q 444 3919 803 4259 
Q 1163 4600 1759 4600 
Q 2359 4600 2725 4251 
Q 3091 3903 3091 3403 
Q 3091 3084 2923 2848 
Q 2756 2613 2416 2484 
Q 2838 2347 3058 2040 
Q 3278 1734 3278 1309 
Q 3278 722 2862 322 
Q 2447 -78 1769 -78 
Q 1091 -78 675 323 
Q 259 725 259 1325 
Q 259 1772 486 2073 
Q 713 2375 1131 2484 
z
M 1019 3438 
Q 1019 3113 1228 2906 
Q 1438 2700 1772 2700 
Q 2097 2700 2305 2904 
Q 2513 3109 2513 3406 
Q 2513 3716 2298 3927 
Q 2084 4138 1766 4138 
Q 1444 4138 1231 3931 
Q 1019 3725 1019 3438 
z
M 838 1322 
Q 838 1081 952 856 
Q 1066 631 1291 507 
Q 1516 384 1775 384 
Q 2178 384 2440 643 
Q 2703 903 2703 1303 
Q 2703 1709 2433 1975 
Q 2163 2241 1756 2241 
Q 1359 2241 1098 1978 
Q 838 1716 838 1322 
z
" transform="scale(0.015625)"/>
       </defs>
       <use xlink:href="#ArialMT-38"/>
       <use xlink:href="#ArialMT-30" x="55.615234"/>
      </g>
     </g>
    </g>
    <g id="text_27">
     <!-- $p(\mathbf{w}|x_{1:N}, y_{1:N})$ -->
     <g style="fill: #262626" transform="translate(384.649725 178.877437) rotate(-90) scale(0.096 -0.096)">
      <defs>
       <path id="DejaVuSans-Oblique-70" d="M 3175 2156 
Q 3175 2616 2975 2859 
Q 2775 3103 2400 3103 
Q 2144 3103 1911 2972 
Q 1678 2841 1497 2591 
Q 1319 2344 1212 1994 
Q 1106 1644 1106 1300 
Q 1106 863 1306 627 
Q 1506 391 1875 391 
Q 2147 391 2380 519 
Q 2613 647 2778 891 
Q 2956 1147 3065 1494 
Q 3175 1841 3175 2156 
z
M 1394 2969 
Q 1625 3272 1939 3428 
Q 2253 3584 2638 3584 
Q 3175 3584 3472 3232 
Q 3769 2881 3769 2247 
Q 3769 1728 3584 1258 
Q 3400 788 3053 416 
Q 2822 169 2531 39 
Q 2241 -91 1919 -91 
Q 1547 -91 1294 64 
Q 1041 219 916 525 
L 556 -1331 
L -19 -1331 
L 922 3500 
L 1497 3500 
L 1394 2969 
z
" transform="scale(0.015625)"/>
       <path id="DejaVuSans-28" d="M 1984 4856 
Q 1566 4138 1362 3434 
Q 1159 2731 1159 2009 
Q 1159 1288 1364 580 
Q 1569 -128 1984 -844 
L 1484 -844 
Q 1016 -109 783 600 
Q 550 1309 550 2009 
Q 550 2706 781 3412 
Q 1013 4119 1484 4856 
L 1984 4856 
z
" transform="scale(0.015625)"/>
       <path id="DejaVuSans-Bold-77" d="M 225 3500 
L 1313 3500 
L 1900 1088 
L 2491 3500 
L 3425 3500 
L 4013 1113 
L 4603 3500 
L 5691 3500 
L 4769 0 
L 3547 0 
L 2956 2406 
L 2369 0 
L 1147 0 
L 225 3500 
z
" transform="scale(0.015625)"/>
       <path id="DejaVuSans-7c" d="M 1344 4891 
L 1344 -1509 
L 813 -1509 
L 813 4891 
L 1344 4891 
z
" transform="scale(0.015625)"/>
       <path id="DejaVuSans-Oblique-78" d="M 3841 3500 
L 2234 1784 
L 3219 0 
L 2559 0 
L 1819 1388 
L 531 0 
L -166 0 
L 1556 1844 
L 641 3500 
L 1300 3500 
L 1972 2234 
L 3144 3500 
L 3841 3500 
z
" transform="scale(0.015625)"/>
       <path id="DejaVuSans-3a" d="M 750 794 
L 1409 794 
L 1409 0 
L 750 0 
L 750 794 
z
M 750 3309 
L 1409 3309 
L 1409 2516 
L 750 2516 
L 750 3309 
z
" transform="scale(0.015625)"/>
       <path id="DejaVuSans-Oblique-4e" d="M 1081 4666 
L 1931 4666 
L 3219 666 
L 4000 4666 
L 4616 4666 
L 3706 0 
L 2853 0 
L 1569 4025 
L 788 0 
L 172 0 
L 1081 4666 
z
" transform="scale(0.015625)"/>
       <path id="DejaVuSans-2c" d="M 750 794 
L 1409 794 
L 1409 256 
L 897 -744 
L 494 -744 
L 750 256 
L 750 794 
z
" transform="scale(0.015625)"/>
       <path id="DejaVuSans-Oblique-79" d="M 1588 -325 
Q 1188 -997 936 -1164 
Q 684 -1331 294 -1331 
L -159 -1331 
L -63 -850 
L 269 -850 
Q 509 -850 678 -719 
Q 847 -588 1056 -206 
L 1234 128 
L 459 3500 
L 1069 3500 
L 1650 819 
L 3256 3500 
L 3859 3500 
L 1588 -325 
z
" transform="scale(0.015625)"/>
       <path id="DejaVuSans-29" d="M 513 4856 
L 1013 4856 
Q 1481 4119 1714 3412 
Q 1947 2706 1947 2009 
Q 1947 1309 1714 600 
Q 1481 -109 1013 -844 
L 513 -844 
Q 928 -128 1133 580 
Q 1338 1288 1338 2009 
Q 1338 2731 1133 3434 
Q 928 4138 513 4856 
z
" transform="scale(0.015625)"/>
      </defs>
      <use xlink:href="#DejaVuSans-Oblique-70" transform="translate(0 0.578125)"/>
      <use xlink:href="#DejaVuSans-28" transform="translate(63.476562 0.578125)"/>
      <use xlink:href="#DejaVuSans-Bold-77" transform="translate(102.490234 0.578125)"/>
      <use xlink:href="#DejaVuSans-7c" transform="translate(194.873047 0.578125)"/>
      <use xlink:href="#DejaVuSans-Oblique-78" transform="translate(228.564453 0.578125)"/>
      <use xlink:href="#DejaVuSans-31" transform="translate(287.744141 -15.828125) scale(0.7)"/>
      <use xlink:href="#DejaVuSans-3a" transform="translate(345.917969 -15.828125) scale(0.7)"/>
      <use xlink:href="#DejaVuSans-Oblique-4e" transform="translate(383.139648 -15.828125) scale(0.7)"/>
      <use xlink:href="#DejaVuSans-2c" transform="translate(438.237305 0.578125)"/>
      <use xlink:href="#DejaVuSans-Oblique-79" transform="translate(489.506836 0.578125)"/>
      <use xlink:href="#DejaVuSans-31" transform="translate(548.686523 -15.828125) scale(0.7)"/>
      <use xlink:href="#DejaVuSans-3a" transform="translate(606.860352 -15.828125) scale(0.7)"/>
      <use xlink:href="#DejaVuSans-Oblique-4e" transform="translate(644.082031 -15.828125) scale(0.7)"/>
      <use xlink:href="#DejaVuSans-29" transform="translate(699.179688 0.578125)"/>
     </g>
    </g>
   </g>
   <g id="QuadMesh_1">
    <path d="M 341.864875 276.461437 
L 355.170475 276.461437 
L 355.170475 243.197437 
L 341.864875 243.197437 
L 341.864875 276.461437 
" clip-path="url(#p44e11e92dd)" style="fill: #180f29"/>
    <path d="M 341.864875 243.197437 
L 355.170475 243.197437 
L 355.170475 209.933437 
L 341.864875 209.933437 
L 341.864875 243.197437 
" clip-path="url(#p44e11e92dd)" style="fill: #481c48"/>
    <path d="M 341.864875 209.933437 
L 355.170475 209.933437 
L 355.170475 176.669437 
L 341.864875 176.669437 
L 341.864875 209.933437 
" clip-path="url(#p44e11e92dd)" style="fill: #7b1f59"/>
    <path d="M 341.864875 176.669437 
L 355.170475 176.669437 
L 355.170475 143.405437 
L 341.864875 143.405437 
L 341.864875 176.669437 
" clip-path="url(#p44e11e92dd)" style="fill: #b21758"/>
    <path d="M 341.864875 143.405437 
L 355.170475 143.405437 
L 355.170475 110.141437 
L 341.864875 110.141437 
L 341.864875 143.405437 
" clip-path="url(#p44e11e92dd)" style="fill: #df2f44"/>
    <path d="M 341.864875 110.141437 
L 355.170475 110.141437 
L 355.170475 76.877437 
L 341.864875 76.877437 
L 341.864875 110.141437 
" clip-path="url(#p44e11e92dd)" style="fill: #f26b49"/>
    <path d="M 341.864875 76.877437 
L 355.170475 76.877437 
L 355.170475 43.613437 
L 341.864875 43.613437 
L 341.864875 76.877437 
" clip-path="url(#p44e11e92dd)" style="fill: #f6a37a"/>
    <path d="M 341.864875 43.613437 
L 355.170475 43.613437 
L 355.170475 10.349437 
L 341.864875 10.349437 
L 341.864875 43.613437 
" clip-path="url(#p44e11e92dd)" style="fill: #f8d4bc"/>
   </g>
   <g id="LineCollection_1"/>
   <g id="patch_9">
    <path d="M 341.864875 276.461437 
L 348.517675 276.461437 
L 355.170475 276.461437 
L 355.170475 10.349437 
L 348.517675 10.349437 
L 341.864875 10.349437 
L 341.864875 276.461437 
z
" style="fill: none; stroke: #262626; stroke-linejoin: miter; stroke-linecap: square"/>
   </g>
  </g>
 </g>
 <defs>
  <clipPath id="p528f8a9e08">
   <rect x="38.312875" y="10.349437" width="285.696" height="266.112"/>
  </clipPath>
  <clipPath id="p44e11e92dd">
   <rect x="341.864875" y="10.349437" width="13.3056" height="266.112"/>
  </clipPath>
 </defs>
</svg>