<?xml version="1.0" encoding="UTF-8" standalone="no"?>
<!DOCTYPE svg PUBLIC "-//W3C//DTD SVG 1.1//EN"
 "http://www.w3.org/Graphics/SVG/1.1/DTD/svg11.dtd">
<!-- Generated by graphviz version 8.1.0 (20230707.0739)
 -->
<!-- Title: Trailer Pages: 1 -->
<svg width="350pt" height="260pt"
 viewBox="0.00 0.00 350.00 260.00" xmlns="http://www.w3.org/2000/svg" xmlns:xlink="http://www.w3.org/1999/xlink">
<g id="graph0" class="graph" transform="scale(1 1) rotate(0) translate(4 256)">
<title>Trailer</title>
<polygon fill="white" stroke="none" points="-4,4 -4,-256 346,-256 346,4 -4,4"/>
<!-- k -->
<g id="node1" class="node">
<title>k</title>
<ellipse fill="lightgrey" stroke="black" cx="27" cy="-162" rx="27" ry="18"/>
<text text-anchor="middle" x="27" y="-156.95" font-family="Times,serif" font-size="14.00">k</text>
</g>
<!-- X -->
<g id="node9" class="node">
<title>X</title>
<ellipse fill="none" stroke="black" cx="135" cy="-90" rx="27" ry="18"/>
<text text-anchor="middle" x="135" y="-84.95" font-family="Times,serif" font-size="14.00">X</text>
</g>
<!-- k&#45;&gt;X -->
<g id="edge6" class="edge">
<title>k&#45;&gt;X</title>
<path fill="none" stroke="black" d="M45.81,-148.81C62.67,-137.88 87.62,-121.71 106.85,-109.24"/>
<polygon fill="black" stroke="black" points="108.55,-111.66 115.04,-103.29 104.75,-105.79 108.55,-111.66"/>
</g>
<!-- m -->
<g id="node2" class="node">
<title>m</title>
<ellipse fill="none" stroke="black" cx="243" cy="-162" rx="27" ry="18"/>
<text text-anchor="middle" x="243" y="-156.95" font-family="Times,serif" font-size="14.00">m</text>
</g>
<!-- mm -->
<g id="node3" class="node">
<title>mm</title>
<ellipse fill="lightgrey" stroke="black" cx="243" cy="-90" rx="27" ry="18"/>
<text text-anchor="start" x="232.88" y="-85.95" font-family="Times,serif" font-size="14.00">m</text>
<text text-anchor="start" x="244.12" y="-85.95" font-family="Times,serif" baseline-shift="sub" font-size="14.00">m</text>
</g>
<!-- m&#45;&gt;mm -->
<g id="edge8" class="edge">
<title>m&#45;&gt;mm</title>
<path fill="none" stroke="black" d="M243,-143.7C243,-136.24 243,-127.32 243,-118.97"/>
<polygon fill="black" stroke="black" points="246.5,-119.1 243,-109.1 239.5,-119.1 246.5,-119.1"/>
</g>
<!-- m&#45;&gt;X -->
<g id="edge7" class="edge">
<title>m&#45;&gt;X</title>
<path fill="none" stroke="black" d="M224.19,-148.81C207.33,-137.88 182.38,-121.71 163.15,-109.24"/>
<polygon fill="black" stroke="black" points="165.25,-105.79 154.96,-103.29 161.45,-111.66 165.25,-105.79"/>
</g>
<!-- y0 -->
<g id="node4" class="node">
<title>y0</title>
<ellipse fill="none" stroke="black" cx="99" cy="-162" rx="27" ry="18"/>
<text text-anchor="start" x="92.62" y="-157.95" font-family="Times,serif" font-size="14.00">y</text>
<text text-anchor="start" x="99.38" y="-157.95" font-family="Times,serif" baseline-shift="sub" font-size="14.00">0</text>
</g>
<!-- y0&#45;&gt;X -->
<g id="edge4" class="edge">
<title>y0&#45;&gt;X</title>
<path fill="none" stroke="black" d="M107.35,-144.76C111.62,-136.46 116.92,-126.15 121.73,-116.79"/>
<polygon fill="black" stroke="black" points="125.23,-118.64 126.7,-108.15 119.01,-115.44 125.23,-118.64"/>
</g>
<!-- omega -->
<g id="node5" class="node">
<title>omega</title>
<ellipse fill="none" stroke="black" cx="171" cy="-162" rx="27" ry="18"/>
<text text-anchor="start" x="166.5" y="-156.95" font-family="Times,serif" font-size="14.00">ω</text>
</g>
<!-- omega&#45;&gt;X -->
<g id="edge5" class="edge">
<title>omega&#45;&gt;X</title>
<path fill="none" stroke="black" d="M162.65,-144.76C158.38,-136.46 153.08,-126.15 148.27,-116.79"/>
<polygon fill="black" stroke="black" points="150.99,-115.44 143.3,-108.15 144.77,-118.64 150.99,-115.44"/>
</g>
<!-- v -->
<g id="node6" class="node">
<title>v</title>
<ellipse fill="none" stroke="black" cx="279" cy="-234" rx="27" ry="18"/>
<text text-anchor="middle" x="279" y="-228.95" font-family="Times,serif" font-size="14.00">v</text>
</g>
<!-- v&#45;&gt;omega -->
<g id="edge1" class="edge">
<title>v&#45;&gt;omega</title>
<path fill="none" stroke="black" d="M260.19,-220.81C243.33,-209.88 218.38,-193.71 199.15,-181.24"/>
<polygon fill="black" stroke="black" points="201.25,-177.79 190.96,-175.29 197.45,-183.66 201.25,-177.79"/>
</g>
<!-- vm -->
<g id="node7" class="node">
<title>vm</title>
<ellipse fill="lightgrey" stroke="black" cx="315" cy="-162" rx="27" ry="18"/>
<text text-anchor="start" x="307.12" y="-157.95" font-family="Times,serif" font-size="14.00">v</text>
<text text-anchor="start" x="313.88" y="-157.95" font-family="Times,serif" baseline-shift="sub" font-size="14.00">m</text>
</g>
<!-- v&#45;&gt;vm -->
<g id="edge2" class="edge">
<title>v&#45;&gt;vm</title>
<path fill="none" stroke="black" d="M287.35,-216.76C291.62,-208.46 296.92,-198.15 301.73,-188.79"/>
<polygon fill="black" stroke="black" points="305.23,-190.64 306.7,-180.15 299.01,-187.44 305.23,-190.64"/>
</g>
<!-- L -->
<g id="node8" class="node">
<title>L</title>
<ellipse fill="none" stroke="black" cx="171" cy="-234" rx="27" ry="18"/>
<text text-anchor="middle" x="171" y="-228.95" font-family="Times,serif" font-size="14.00">L</text>
</g>
<!-- L&#45;&gt;omega -->
<g id="edge3" class="edge">
<title>L&#45;&gt;omega</title>
<path fill="none" stroke="black" d="M171,-215.7C171,-208.24 171,-199.32 171,-190.97"/>
<polygon fill="black" stroke="black" points="174.5,-191.1 171,-181.1 167.5,-191.1 174.5,-191.1"/>
</g>
<!-- Xm -->
<g id="node10" class="node">
<title>Xm</title>
<ellipse fill="lightgrey" stroke="black" cx="135" cy="-18" rx="27" ry="18"/>
<text text-anchor="start" x="125.62" y="-13.95" font-family="Times,serif" font-size="14.00">X</text>
<text text-anchor="start" x="135.38" y="-13.95" font-family="Times,serif" baseline-shift="sub" font-size="14.00">m</text>
</g>
<!-- X&#45;&gt;Xm -->
<g id="edge9" class="edge">
<title>X&#45;&gt;Xm</title>
<path fill="none" stroke="black" d="M135,-71.7C135,-64.24 135,-55.32 135,-46.97"/>
<polygon fill="black" stroke="black" points="138.5,-47.1 135,-37.1 131.5,-47.1 138.5,-47.1"/>
</g>
</g>
</svg>