<?xml version="1.0" encoding="utf-8" standalone="no"?>
<!DOCTYPE svg PUBLIC "-//W3C//DTD SVG 1.1//EN"
  "http://www.w3.org/Graphics/SVG/1.1/DTD/svg11.dtd">
<svg xmlns:xlink="http://www.w3.org/1999/xlink" width="402.632875pt" height="309.639375pt" viewBox="0 0 402.632875 309.639375" xmlns="http://www.w3.org/2000/svg" version="1.1">
 <metadata>
  <rdf:RDF xmlns:dc="http://purl.org/dc/elements/1.1/" xmlns:cc="http://creativecommons.org/ns#" xmlns:rdf="http://www.w3.org/1999/02/22-rdf-syntax-ns#">
   <cc:Work>
    <dc:type rdf:resource="http://purl.org/dc/dcmitype/StillImage"/>
    <dc:date>2023-09-17T11:34:06.673972</dc:date>
    <dc:format>image/svg+xml</dc:format>
    <dc:creator>
     <cc:Agent>
      <dc:title>Matplotlib v3.7.1, https://matplotlib.org/</dc:title>
     </cc:Agent>
    </dc:creator>
   </cc:Work>
  </rdf:RDF>
 </metadata>
 <defs>
  <style type="text/css">*{stroke-linejoin: round; stroke-linecap: butt}</style>
 </defs>
 <g id="figure_1">
  <g id="patch_1">
   <path d="M 0 309.639375 
L 402.632875 309.639375 
L 402.632875 0 
L 0 0 
z
" style="fill: #ffffff"/>
  </g>
  <g id="axes_1">
   <g id="patch_2">
    <path d="M 38.312875 273.312 
L 395.432875 273.312 
L 395.432875 7.2 
L 38.312875 7.2 
z
" style="fill: #ffffff"/>
   </g>
   <g id="matplotlib.axis_1">
    <g id="xtick_1">
     <g id="line2d_1">
      <defs>
       <path id="mb5df3e9b58" d="M 0 0 
L 0 4.8 
" style="stroke: #262626"/>
      </defs>
      <g>
       <use xlink:href="#mb5df3e9b58" x="54.545602" y="273.312" style="fill: #262626; stroke: #262626"/>
      </g>
     </g>
     <g id="text_1">
      <!-- −1.00 -->
      <g style="fill: #262626" transform="translate(43.412915 287.910875) scale(0.088 -0.088)">
       <defs>
        <path id="ArialMT-2212" d="M 3381 1997 
L 356 1997 
L 356 2522 
L 3381 2522 
L 3381 1997 
z
" transform="scale(0.015625)"/>
        <path id="ArialMT-31" d="M 2384 0 
L 1822 0 
L 1822 3584 
Q 1619 3391 1289 3197 
Q 959 3003 697 2906 
L 697 3450 
Q 1169 3672 1522 3987 
Q 1875 4303 2022 4600 
L 2384 4600 
L 2384 0 
z
" transform="scale(0.015625)"/>
        <path id="ArialMT-2e" d="M 581 0 
L 581 641 
L 1222 641 
L 1222 0 
L 581 0 
z
" transform="scale(0.015625)"/>
        <path id="ArialMT-30" d="M 266 2259 
Q 266 3072 433 3567 
Q 600 4063 929 4331 
Q 1259 4600 1759 4600 
Q 2128 4600 2406 4451 
Q 2684 4303 2865 4023 
Q 3047 3744 3150 3342 
Q 3253 2941 3253 2259 
Q 3253 1453 3087 958 
Q 2922 463 2592 192 
Q 2263 -78 1759 -78 
Q 1097 -78 719 397 
Q 266 969 266 2259 
z
M 844 2259 
Q 844 1131 1108 757 
Q 1372 384 1759 384 
Q 2147 384 2411 759 
Q 2675 1134 2675 2259 
Q 2675 3391 2411 3762 
Q 2147 4134 1753 4134 
Q 1366 4134 1134 3806 
Q 844 3388 844 2259 
z
" transform="scale(0.015625)"/>
       </defs>
       <use xlink:href="#ArialMT-2212"/>
       <use xlink:href="#ArialMT-31" x="58.398438"/>
       <use xlink:href="#ArialMT-2e" x="114.013672"/>
       <use xlink:href="#ArialMT-30" x="141.796875"/>
       <use xlink:href="#ArialMT-30" x="197.412109"/>
      </g>
     </g>
    </g>
    <g id="xtick_2">
     <g id="line2d_2">
      <g>
       <use xlink:href="#mb5df3e9b58" x="95.12742" y="273.312" style="fill: #262626; stroke: #262626"/>
      </g>
     </g>
     <g id="text_2">
      <!-- −0.75 -->
      <g style="fill: #262626" transform="translate(83.994733 287.910875) scale(0.088 -0.088)">
       <defs>
        <path id="ArialMT-37" d="M 303 3981 
L 303 4522 
L 3269 4522 
L 3269 4084 
Q 2831 3619 2401 2847 
Q 1972 2075 1738 1259 
Q 1569 684 1522 0 
L 944 0 
Q 953 541 1156 1306 
Q 1359 2072 1739 2783 
Q 2119 3494 2547 3981 
L 303 3981 
z
" transform="scale(0.015625)"/>
        <path id="ArialMT-35" d="M 266 1200 
L 856 1250 
Q 922 819 1161 601 
Q 1400 384 1738 384 
Q 2144 384 2425 690 
Q 2706 997 2706 1503 
Q 2706 1984 2436 2262 
Q 2166 2541 1728 2541 
Q 1456 2541 1237 2417 
Q 1019 2294 894 2097 
L 366 2166 
L 809 4519 
L 3088 4519 
L 3088 3981 
L 1259 3981 
L 1013 2750 
Q 1425 3038 1878 3038 
Q 2478 3038 2890 2622 
Q 3303 2206 3303 1553 
Q 3303 931 2941 478 
Q 2500 -78 1738 -78 
Q 1113 -78 717 272 
Q 322 622 266 1200 
z
" transform="scale(0.015625)"/>
       </defs>
       <use xlink:href="#ArialMT-2212"/>
       <use xlink:href="#ArialMT-30" x="58.398438"/>
       <use xlink:href="#ArialMT-2e" x="114.013672"/>
       <use xlink:href="#ArialMT-37" x="141.796875"/>
       <use xlink:href="#ArialMT-35" x="197.412109"/>
      </g>
     </g>
    </g>
    <g id="xtick_3">
     <g id="line2d_3">
      <g>
       <use xlink:href="#mb5df3e9b58" x="135.709239" y="273.312" style="fill: #262626; stroke: #262626"/>
      </g>
     </g>
     <g id="text_3">
      <!-- −0.50 -->
      <g style="fill: #262626" transform="translate(124.576551 287.910875) scale(0.088 -0.088)">
       <use xlink:href="#ArialMT-2212"/>
       <use xlink:href="#ArialMT-30" x="58.398438"/>
       <use xlink:href="#ArialMT-2e" x="114.013672"/>
       <use xlink:href="#ArialMT-35" x="141.796875"/>
       <use xlink:href="#ArialMT-30" x="197.412109"/>
      </g>
     </g>
    </g>
    <g id="xtick_4">
     <g id="line2d_4">
      <g>
       <use xlink:href="#mb5df3e9b58" x="176.291057" y="273.312" style="fill: #262626; stroke: #262626"/>
      </g>
     </g>
     <g id="text_4">
      <!-- −0.25 -->
      <g style="fill: #262626" transform="translate(165.158369 287.910875) scale(0.088 -0.088)">
       <defs>
        <path id="ArialMT-32" d="M 3222 541 
L 3222 0 
L 194 0 
Q 188 203 259 391 
Q 375 700 629 1000 
Q 884 1300 1366 1694 
Q 2113 2306 2375 2664 
Q 2638 3022 2638 3341 
Q 2638 3675 2398 3904 
Q 2159 4134 1775 4134 
Q 1369 4134 1125 3890 
Q 881 3647 878 3216 
L 300 3275 
Q 359 3922 746 4261 
Q 1134 4600 1788 4600 
Q 2447 4600 2831 4234 
Q 3216 3869 3216 3328 
Q 3216 3053 3103 2787 
Q 2991 2522 2730 2228 
Q 2469 1934 1863 1422 
Q 1356 997 1212 845 
Q 1069 694 975 541 
L 3222 541 
z
" transform="scale(0.015625)"/>
       </defs>
       <use xlink:href="#ArialMT-2212"/>
       <use xlink:href="#ArialMT-30" x="58.398438"/>
       <use xlink:href="#ArialMT-2e" x="114.013672"/>
       <use xlink:href="#ArialMT-32" x="141.796875"/>
       <use xlink:href="#ArialMT-35" x="197.412109"/>
      </g>
     </g>
    </g>
    <g id="xtick_5">
     <g id="line2d_5">
      <g>
       <use xlink:href="#mb5df3e9b58" x="216.872875" y="273.312" style="fill: #262626; stroke: #262626"/>
      </g>
     </g>
     <g id="text_5">
      <!-- 0.00 -->
      <g style="fill: #262626" transform="translate(208.310063 287.910875) scale(0.088 -0.088)">
       <use xlink:href="#ArialMT-30"/>
       <use xlink:href="#ArialMT-2e" x="55.615234"/>
       <use xlink:href="#ArialMT-30" x="83.398438"/>
       <use xlink:href="#ArialMT-30" x="139.013672"/>
      </g>
     </g>
    </g>
    <g id="xtick_6">
     <g id="line2d_6">
      <g>
       <use xlink:href="#mb5df3e9b58" x="257.454693" y="273.312" style="fill: #262626; stroke: #262626"/>
      </g>
     </g>
     <g id="text_6">
      <!-- 0.25 -->
      <g style="fill: #262626" transform="translate(248.891881 287.910875) scale(0.088 -0.088)">
       <use xlink:href="#ArialMT-30"/>
       <use xlink:href="#ArialMT-2e" x="55.615234"/>
       <use xlink:href="#ArialMT-32" x="83.398438"/>
       <use xlink:href="#ArialMT-35" x="139.013672"/>
      </g>
     </g>
    </g>
    <g id="xtick_7">
     <g id="line2d_7">
      <g>
       <use xlink:href="#mb5df3e9b58" x="298.036511" y="273.312" style="fill: #262626; stroke: #262626"/>
      </g>
     </g>
     <g id="text_7">
      <!-- 0.50 -->
      <g style="fill: #262626" transform="translate(289.473699 287.910875) scale(0.088 -0.088)">
       <use xlink:href="#ArialMT-30"/>
       <use xlink:href="#ArialMT-2e" x="55.615234"/>
       <use xlink:href="#ArialMT-35" x="83.398438"/>
       <use xlink:href="#ArialMT-30" x="139.013672"/>
      </g>
     </g>
    </g>
    <g id="xtick_8">
     <g id="line2d_8">
      <g>
       <use xlink:href="#mb5df3e9b58" x="338.61833" y="273.312" style="fill: #262626; stroke: #262626"/>
      </g>
     </g>
     <g id="text_8">
      <!-- 0.75 -->
      <g style="fill: #262626" transform="translate(330.055517 287.910875) scale(0.088 -0.088)">
       <use xlink:href="#ArialMT-30"/>
       <use xlink:href="#ArialMT-2e" x="55.615234"/>
       <use xlink:href="#ArialMT-37" x="83.398438"/>
       <use xlink:href="#ArialMT-35" x="139.013672"/>
      </g>
     </g>
    </g>
    <g id="xtick_9">
     <g id="line2d_9">
      <g>
       <use xlink:href="#mb5df3e9b58" x="379.200148" y="273.312" style="fill: #262626; stroke: #262626"/>
      </g>
     </g>
     <g id="text_9">
      <!-- 1.00 -->
      <g style="fill: #262626" transform="translate(370.637335 287.910875) scale(0.088 -0.088)">
       <use xlink:href="#ArialMT-31"/>
       <use xlink:href="#ArialMT-2e" x="55.615234"/>
       <use xlink:href="#ArialMT-30" x="83.398438"/>
       <use xlink:href="#ArialMT-30" x="139.013672"/>
      </g>
     </g>
    </g>
    <g id="text_10">
     <!-- $x$ -->
     <g style="fill: #262626" transform="translate(213.992875 300.531375) scale(0.096 -0.096)">
      <defs>
       <path id="DejaVuSans-Oblique-78" d="M 3841 3500 
L 2234 1784 
L 3219 0 
L 2559 0 
L 1819 1388 
L 531 0 
L -166 0 
L 1556 1844 
L 641 3500 
L 1300 3500 
L 1972 2234 
L 3144 3500 
L 3841 3500 
z
" transform="scale(0.015625)"/>
      </defs>
      <use xlink:href="#DejaVuSans-Oblique-78" transform="translate(0 0.3125)"/>
     </g>
    </g>
   </g>
   <g id="matplotlib.axis_2">
    <g id="ytick_1">
     <g id="line2d_10">
      <defs>
       <path id="m4414382f94" d="M 0 0 
L -4.8 0 
" style="stroke: #262626"/>
      </defs>
      <g>
       <use xlink:href="#m4414382f94" x="38.312875" y="231.053972" style="fill: #262626; stroke: #262626"/>
      </g>
     </g>
     <g id="text_11">
      <!-- −2 -->
      <g style="fill: #262626" transform="translate(19.9795 234.203409) scale(0.088 -0.088)">
       <use xlink:href="#ArialMT-2212"/>
       <use xlink:href="#ArialMT-32" x="58.398438"/>
      </g>
     </g>
    </g>
    <g id="ytick_2">
     <g id="line2d_11">
      <g>
       <use xlink:href="#m4414382f94" x="38.312875" y="174.161276" style="fill: #262626; stroke: #262626"/>
      </g>
     </g>
     <g id="text_12">
      <!-- −1 -->
      <g style="fill: #262626" transform="translate(19.9795 177.310714) scale(0.088 -0.088)">
       <use xlink:href="#ArialMT-2212"/>
       <use xlink:href="#ArialMT-31" x="58.398438"/>
      </g>
     </g>
    </g>
    <g id="ytick_3">
     <g id="line2d_12">
      <g>
       <use xlink:href="#m4414382f94" x="38.312875" y="117.268581" style="fill: #262626; stroke: #262626"/>
      </g>
     </g>
     <g id="text_13">
      <!-- 0 -->
      <g style="fill: #262626" transform="translate(25.11925 120.418018) scale(0.088 -0.088)">
       <use xlink:href="#ArialMT-30"/>
      </g>
     </g>
    </g>
    <g id="ytick_4">
     <g id="line2d_13">
      <g>
       <use xlink:href="#m4414382f94" x="38.312875" y="60.375886" style="fill: #262626; stroke: #262626"/>
      </g>
     </g>
     <g id="text_14">
      <!-- 1 -->
      <g style="fill: #262626" transform="translate(25.11925 63.525323) scale(0.088 -0.088)">
       <use xlink:href="#ArialMT-31"/>
      </g>
     </g>
    </g>
    <g id="text_15">
     <!-- $y$ -->
     <g style="fill: #262626" transform="translate(13.9635 143.136) rotate(-90) scale(0.096 -0.096)">
      <defs>
       <path id="DejaVuSans-Oblique-79" d="M 1588 -325 
Q 1188 -997 936 -1164 
Q 684 -1331 294 -1331 
L -159 -1331 
L -63 -850 
L 269 -850 
Q 509 -850 678 -719 
Q 847 -588 1056 -206 
L 1234 128 
L 459 3500 
L 1069 3500 
L 1650 819 
L 3256 3500 
L 3859 3500 
L 1588 -325 
z
" transform="scale(0.015625)"/>
      </defs>
      <use xlink:href="#DejaVuSans-Oblique-79" transform="translate(0 0.3125)"/>
     </g>
    </g>
   </g>
   <g id="line2d_14">
    <path d="M 54.545602 244.7801 
L 57.824941 242.670226 
L 61.10428 240.560351 
L 64.383619 238.450477 
L 67.662958 236.340602 
L 70.942296 234.230728 
L 74.221635 232.120853 
L 77.500974 230.010979 
L 80.780313 227.901104 
L 84.059652 225.79123 
L 87.338991 223.681355 
L 90.61833 221.571481 
L 93.897668 219.461606 
L 97.177007 217.351732 
L 100.456346 215.241857 
L 103.735685 213.131983 
L 107.015024 211.022108 
L 110.294363 208.912234 
L 113.573701 206.802359 
L 116.85304 204.692485 
L 120.132379 202.58261 
L 123.411718 200.472736 
L 126.691057 198.362861 
L 129.970396 196.252987 
L 133.249735 194.143112 
L 136.529073 192.033238 
L 139.808412 189.923363 
L 143.087751 187.813489 
L 146.36709 185.703614 
L 149.646429 183.59374 
L 152.925768 181.483865 
L 156.205106 179.373991 
L 159.484445 177.264116 
L 162.763784 175.154242 
L 166.043123 173.044367 
L 169.322462 170.934493 
L 172.601801 168.824619 
L 175.881139 166.714744 
L 179.160478 164.60487 
L 182.439817 162.494995 
L 185.719156 160.385121 
L 188.998495 158.275246 
L 192.277834 156.165372 
L 195.557173 154.055497 
L 198.836511 151.945623 
L 202.11585 149.835748 
L 205.395189 147.725874 
L 208.674528 145.615999 
L 211.953867 143.506125 
L 215.233206 141.39625 
L 218.512544 139.286376 
L 221.791883 137.176501 
L 225.071222 135.066627 
L 228.350561 132.956752 
L 231.6299 130.846878 
L 234.909239 128.737003 
L 238.188577 126.627129 
L 241.467916 124.517254 
L 244.747255 122.40738 
L 248.026594 120.297505 
L 251.305933 118.187631 
L 254.585272 116.077756 
L 257.864611 113.967882 
L 261.143949 111.858007 
L 264.423288 109.748133 
L 267.702627 107.638258 
L 270.981966 105.528384 
L 274.261305 103.418509 
L 277.540644 101.308635 
L 280.819982 99.19876 
L 284.099321 97.088886 
L 287.37866 94.979011 
L 290.657999 92.869137 
L 293.937338 90.759262 
L 297.216677 88.649388 
L 300.496015 86.539513 
L 303.775354 84.429639 
L 307.054693 82.319764 
L 310.334032 80.20989 
L 313.613371 78.100015 
L 316.89271 75.990141 
L 320.172049 73.880266 
L 323.451387 71.770392 
L 326.730726 69.660517 
L 330.010065 67.550643 
L 333.289404 65.440768 
L 336.568743 63.330894 
L 339.848082 61.221019 
L 343.12742 59.111145 
L 346.406759 57.00127 
L 349.686098 54.891396 
L 352.965437 52.781521 
L 356.244776 50.671647 
L 359.524115 48.561772 
L 362.803454 46.451898 
L 366.082792 44.342023 
L 369.362131 42.232149 
L 372.64147 40.122274 
L 375.920809 38.0124 
L 379.200148 35.902525 
" clip-path="url(#p180e11fbf8)" style="fill: none; stroke: #ff0000; stroke-width: 0.5; stroke-linecap: round"/>
   </g>
   <g id="line2d_15">
    <path d="M 54.545602 249.245999 
L 57.824941 247.08535 
L 61.10428 244.924701 
L 64.383619 242.764052 
L 67.662958 240.603403 
L 70.942296 238.442754 
L 74.221635 236.282105 
L 77.500974 234.121456 
L 80.780313 231.960807 
L 84.059652 229.800158 
L 87.338991 227.639509 
L 90.61833 225.47886 
L 93.897668 223.318211 
L 97.177007 221.157562 
L 100.456346 218.996913 
L 103.735685 216.836264 
L 107.015024 214.675615 
L 110.294363 212.514965 
L 113.573701 210.354316 
L 116.85304 208.193667 
L 120.132379 206.033018 
L 123.411718 203.872369 
L 126.691057 201.71172 
L 129.970396 199.551071 
L 133.249735 197.390422 
L 136.529073 195.229773 
L 139.808412 193.069124 
L 143.087751 190.908475 
L 146.36709 188.747826 
L 149.646429 186.587177 
L 152.925768 184.426528 
L 156.205106 182.265879 
L 159.484445 180.10523 
L 162.763784 177.944581 
L 166.043123 175.783932 
L 169.322462 173.623283 
L 172.601801 171.462634 
L 175.881139 169.301985 
L 179.160478 167.141336 
L 182.439817 164.980686 
L 185.719156 162.820037 
L 188.998495 160.659388 
L 192.277834 158.498739 
L 195.557173 156.33809 
L 198.836511 154.177441 
L 202.11585 152.016792 
L 205.395189 149.856143 
L 208.674528 147.695494 
L 211.953867 145.534845 
L 215.233206 143.374196 
L 218.512544 141.213547 
L 221.791883 139.052898 
L 225.071222 136.892249 
L 228.350561 134.7316 
L 231.6299 132.570951 
L 234.909239 130.410302 
L 238.188577 128.249653 
L 241.467916 126.089004 
L 244.747255 123.928355 
L 248.026594 121.767706 
L 251.305933 119.607057 
L 254.585272 117.446407 
L 257.864611 115.285758 
L 261.143949 113.125109 
L 264.423288 110.96446 
L 267.702627 108.803811 
L 270.981966 106.643162 
L 274.261305 104.482513 
L 277.540644 102.321864 
L 280.819982 100.161215 
L 284.099321 98.000566 
L 287.37866 95.839917 
L 290.657999 93.679268 
L 293.937338 91.518619 
L 297.216677 89.35797 
L 300.496015 87.197321 
L 303.775354 85.036672 
L 307.054693 82.876023 
L 310.334032 80.715374 
L 313.613371 78.554725 
L 316.89271 76.394076 
L 320.172049 74.233427 
L 323.451387 72.072778 
L 326.730726 69.912128 
L 330.010065 67.751479 
L 333.289404 65.59083 
L 336.568743 63.430181 
L 339.848082 61.269532 
L 343.12742 59.108883 
L 346.406759 56.948234 
L 349.686098 54.787585 
L 352.965437 52.626936 
L 356.244776 50.466287 
L 359.524115 48.305638 
L 362.803454 46.144989 
L 366.082792 43.98434 
L 369.362131 41.823691 
L 372.64147 39.663042 
L 375.920809 37.502393 
L 379.200148 35.341744 
" clip-path="url(#p180e11fbf8)" style="fill: none; stroke: #ff0000; stroke-width: 0.5; stroke-linecap: round"/>
   </g>
   <g id="line2d_16">
    <path d="M 54.545602 248.543208 
L 57.824941 246.356548 
L 61.10428 244.169888 
L 64.383619 241.983229 
L 67.662958 239.796569 
L 70.942296 237.609909 
L 74.221635 235.423249 
L 77.500974 233.236589 
L 80.780313 231.04993 
L 84.059652 228.86327 
L 87.338991 226.67661 
L 90.61833 224.48995 
L 93.897668 222.30329 
L 97.177007 220.116631 
L 100.456346 217.929971 
L 103.735685 215.743311 
L 107.015024 213.556651 
L 110.294363 211.369991 
L 113.573701 209.183332 
L 116.85304 206.996672 
L 120.132379 204.810012 
L 123.411718 202.623352 
L 126.691057 200.436692 
L 129.970396 198.250033 
L 133.249735 196.063373 
L 136.529073 193.876713 
L 139.808412 191.690053 
L 143.087751 189.503393 
L 146.36709 187.316734 
L 149.646429 185.130074 
L 152.925768 182.943414 
L 156.205106 180.756754 
L 159.484445 178.570094 
L 162.763784 176.383435 
L 166.043123 174.196775 
L 169.322462 172.010115 
L 172.601801 169.823455 
L 175.881139 167.636795 
L 179.160478 165.450136 
L 182.439817 163.263476 
L 185.719156 161.076816 
L 188.998495 158.890156 
L 192.277834 156.703496 
L 195.557173 154.516837 
L 198.836511 152.330177 
L 202.11585 150.143517 
L 205.395189 147.956857 
L 208.674528 145.770197 
L 211.953867 143.583538 
L 215.233206 141.396878 
L 218.512544 139.210218 
L 221.791883 137.023558 
L 225.071222 134.836898 
L 228.350561 132.650239 
L 231.6299 130.463579 
L 234.909239 128.276919 
L 238.188577 126.090259 
L 241.467916 123.903599 
L 244.747255 121.71694 
L 248.026594 119.53028 
L 251.305933 117.34362 
L 254.585272 115.15696 
L 257.864611 112.9703 
L 261.143949 110.783641 
L 264.423288 108.596981 
L 267.702627 106.410321 
L 270.981966 104.223661 
L 274.261305 102.037001 
L 277.540644 99.850342 
L 280.819982 97.663682 
L 284.099321 95.477022 
L 287.37866 93.290362 
L 290.657999 91.103702 
L 293.937338 88.917043 
L 297.216677 86.730383 
L 300.496015 84.543723 
L 303.775354 82.357063 
L 307.054693 80.170403 
L 310.334032 77.983744 
L 313.613371 75.797084 
L 316.89271 73.610424 
L 320.172049 71.423764 
L 323.451387 69.237104 
L 326.730726 67.050445 
L 330.010065 64.863785 
L 333.289404 62.677125 
L 336.568743 60.490465 
L 339.848082 58.303805 
L 343.12742 56.117146 
L 346.406759 53.930486 
L 349.686098 51.743826 
L 352.965437 49.557166 
L 356.244776 47.370506 
L 359.524115 45.183847 
L 362.803454 42.997187 
L 366.082792 40.810527 
L 369.362131 38.623867 
L 372.64147 36.437208 
L 375.920809 34.250548 
L 379.200148 32.063888 
" clip-path="url(#p180e11fbf8)" style="fill: none; stroke: #ff0000; stroke-width: 0.5; stroke-linecap: round"/>
   </g>
   <g id="line2d_17">
    <path d="M 54.545602 257.010947 
L 57.824941 254.71538 
L 61.10428 252.419813 
L 64.383619 250.124246 
L 67.662958 247.828679 
L 70.942296 245.533112 
L 74.221635 243.237545 
L 77.500974 240.941978 
L 80.780313 238.646411 
L 84.059652 236.350844 
L 87.338991 234.055277 
L 90.61833 231.75971 
L 93.897668 229.464143 
L 97.177007 227.168576 
L 100.456346 224.873009 
L 103.735685 222.577442 
L 107.015024 220.281875 
L 110.294363 217.986308 
L 113.573701 215.690741 
L 116.85304 213.395174 
L 120.132379 211.099607 
L 123.411718 208.80404 
L 126.691057 206.508473 
L 129.970396 204.212906 
L 133.249735 201.917339 
L 136.529073 199.621772 
L 139.808412 197.326205 
L 143.087751 195.030638 
L 146.36709 192.735071 
L 149.646429 190.439504 
L 152.925768 188.143937 
L 156.205106 185.84837 
L 159.484445 183.552803 
L 162.763784 181.257236 
L 166.043123 178.961669 
L 169.322462 176.666102 
L 172.601801 174.370535 
L 175.881139 172.074968 
L 179.160478 169.779401 
L 182.439817 167.483834 
L 185.719156 165.188268 
L 188.998495 162.892701 
L 192.277834 160.597134 
L 195.557173 158.301567 
L 198.836511 156.006 
L 202.11585 153.710433 
L 205.395189 151.414866 
L 208.674528 149.119299 
L 211.953867 146.823732 
L 215.233206 144.528165 
L 218.512544 142.232598 
L 221.791883 139.937031 
L 225.071222 137.641464 
L 228.350561 135.345897 
L 231.6299 133.05033 
L 234.909239 130.754763 
L 238.188577 128.459196 
L 241.467916 126.163629 
L 244.747255 123.868062 
L 248.026594 121.572495 
L 251.305933 119.276928 
L 254.585272 116.981361 
L 257.864611 114.685794 
L 261.143949 112.390227 
L 264.423288 110.09466 
L 267.702627 107.799093 
L 270.981966 105.503526 
L 274.261305 103.207959 
L 277.540644 100.912392 
L 280.819982 98.616825 
L 284.099321 96.321258 
L 287.37866 94.025691 
L 290.657999 91.730124 
L 293.937338 89.434557 
L 297.216677 87.13899 
L 300.496015 84.843423 
L 303.775354 82.547856 
L 307.054693 80.252289 
L 310.334032 77.956722 
L 313.613371 75.661155 
L 316.89271 73.365588 
L 320.172049 71.070021 
L 323.451387 68.774454 
L 326.730726 66.478887 
L 330.010065 64.18332 
L 333.289404 61.887753 
L 336.568743 59.592186 
L 339.848082 57.296619 
L 343.12742 55.001052 
L 346.406759 52.705485 
L 349.686098 50.409918 
L 352.965437 48.114351 
L 356.244776 45.818784 
L 359.524115 43.523217 
L 362.803454 41.22765 
L 366.082792 38.932083 
L 369.362131 36.636516 
L 372.64147 34.340949 
L 375.920809 32.045382 
L 379.200148 29.749815 
" clip-path="url(#p180e11fbf8)" style="fill: none; stroke: #ff0000; stroke-width: 0.5; stroke-linecap: round"/>
   </g>
   <g id="line2d_18">
    <path d="M 54.545602 253.989087 
L 57.824941 251.680521 
L 61.10428 249.371956 
L 64.383619 247.06339 
L 67.662958 244.754824 
L 70.942296 242.446258 
L 74.221635 240.137692 
L 77.500974 237.829126 
L 80.780313 235.52056 
L 84.059652 233.211995 
L 87.338991 230.903429 
L 90.61833 228.594863 
L 93.897668 226.286297 
L 97.177007 223.977731 
L 100.456346 221.669165 
L 103.735685 219.3606 
L 107.015024 217.052034 
L 110.294363 214.743468 
L 113.573701 212.434902 
L 116.85304 210.126336 
L 120.132379 207.81777 
L 123.411718 205.509205 
L 126.691057 203.200639 
L 129.970396 200.892073 
L 133.249735 198.583507 
L 136.529073 196.274941 
L 139.808412 193.966375 
L 143.087751 191.657809 
L 146.36709 189.349244 
L 149.646429 187.040678 
L 152.925768 184.732112 
L 156.205106 182.423546 
L 159.484445 180.11498 
L 162.763784 177.806414 
L 166.043123 175.497849 
L 169.322462 173.189283 
L 172.601801 170.880717 
L 175.881139 168.572151 
L 179.160478 166.263585 
L 182.439817 163.955019 
L 185.719156 161.646453 
L 188.998495 159.337888 
L 192.277834 157.029322 
L 195.557173 154.720756 
L 198.836511 152.41219 
L 202.11585 150.103624 
L 205.395189 147.795058 
L 208.674528 145.486493 
L 211.953867 143.177927 
L 215.233206 140.869361 
L 218.512544 138.560795 
L 221.791883 136.252229 
L 225.071222 133.943663 
L 228.350561 131.635098 
L 231.6299 129.326532 
L 234.909239 127.017966 
L 238.188577 124.7094 
L 241.467916 122.400834 
L 244.747255 120.092268 
L 248.026594 117.783702 
L 251.305933 115.475137 
L 254.585272 113.166571 
L 257.864611 110.858005 
L 261.143949 108.549439 
L 264.423288 106.240873 
L 267.702627 103.932307 
L 270.981966 101.623742 
L 274.261305 99.315176 
L 277.540644 97.00661 
L 280.819982 94.698044 
L 284.099321 92.389478 
L 287.37866 90.080912 
L 290.657999 87.772346 
L 293.937338 85.463781 
L 297.216677 83.155215 
L 300.496015 80.846649 
L 303.775354 78.538083 
L 307.054693 76.229517 
L 310.334032 73.920951 
L 313.613371 71.612386 
L 316.89271 69.30382 
L 320.172049 66.995254 
L 323.451387 64.686688 
L 326.730726 62.378122 
L 330.010065 60.069556 
L 333.289404 57.760991 
L 336.568743 55.452425 
L 339.848082 53.143859 
L 343.12742 50.835293 
L 346.406759 48.526727 
L 349.686098 46.218161 
L 352.965437 43.909595 
L 356.244776 41.60103 
L 359.524115 39.292464 
L 362.803454 36.983898 
L 366.082792 34.675332 
L 369.362131 32.366766 
L 372.64147 30.0582 
L 375.920809 27.749635 
L 379.200148 25.441069 
" clip-path="url(#p180e11fbf8)" style="fill: none; stroke: #ff0000; stroke-width: 0.5; stroke-linecap: round"/>
   </g>
   <g id="line2d_19">
    <path d="M 54.545602 254.374021 
L 57.824941 252.092112 
L 61.10428 249.810203 
L 64.383619 247.528294 
L 67.662958 245.246385 
L 70.942296 242.964476 
L 74.221635 240.682567 
L 77.500974 238.400658 
L 80.780313 236.118749 
L 84.059652 233.83684 
L 87.338991 231.554932 
L 90.61833 229.273023 
L 93.897668 226.991114 
L 97.177007 224.709205 
L 100.456346 222.427296 
L 103.735685 220.145387 
L 107.015024 217.863478 
L 110.294363 215.581569 
L 113.573701 213.29966 
L 116.85304 211.017751 
L 120.132379 208.735842 
L 123.411718 206.453933 
L 126.691057 204.172024 
L 129.970396 201.890116 
L 133.249735 199.608207 
L 136.529073 197.326298 
L 139.808412 195.044389 
L 143.087751 192.76248 
L 146.36709 190.480571 
L 149.646429 188.198662 
L 152.925768 185.916753 
L 156.205106 183.634844 
L 159.484445 181.352935 
L 162.763784 179.071026 
L 166.043123 176.789117 
L 169.322462 174.507208 
L 172.601801 172.2253 
L 175.881139 169.943391 
L 179.160478 167.661482 
L 182.439817 165.379573 
L 185.719156 163.097664 
L 188.998495 160.815755 
L 192.277834 158.533846 
L 195.557173 156.251937 
L 198.836511 153.970028 
L 202.11585 151.688119 
L 205.395189 149.40621 
L 208.674528 147.124301 
L 211.953867 144.842392 
L 215.233206 142.560483 
L 218.512544 140.278575 
L 221.791883 137.996666 
L 225.071222 135.714757 
L 228.350561 133.432848 
L 231.6299 131.150939 
L 234.909239 128.86903 
L 238.188577 126.587121 
L 241.467916 124.305212 
L 244.747255 122.023303 
L 248.026594 119.741394 
L 251.305933 117.459485 
L 254.585272 115.177576 
L 257.864611 112.895667 
L 261.143949 110.613759 
L 264.423288 108.33185 
L 267.702627 106.049941 
L 270.981966 103.768032 
L 274.261305 101.486123 
L 277.540644 99.204214 
L 280.819982 96.922305 
L 284.099321 94.640396 
L 287.37866 92.358487 
L 290.657999 90.076578 
L 293.937338 87.794669 
L 297.216677 85.51276 
L 300.496015 83.230851 
L 303.775354 80.948943 
L 307.054693 78.667034 
L 310.334032 76.385125 
L 313.613371 74.103216 
L 316.89271 71.821307 
L 320.172049 69.539398 
L 323.451387 67.257489 
L 326.730726 64.97558 
L 330.010065 62.693671 
L 333.289404 60.411762 
L 336.568743 58.129853 
L 339.848082 55.847944 
L 343.12742 53.566035 
L 346.406759 51.284127 
L 349.686098 49.002218 
L 352.965437 46.720309 
L 356.244776 44.4384 
L 359.524115 42.156491 
L 362.803454 39.874582 
L 366.082792 37.592673 
L 369.362131 35.310764 
L 372.64147 33.028855 
L 375.920809 30.746946 
L 379.200148 28.465037 
" clip-path="url(#p180e11fbf8)" style="fill: none; stroke: #ff0000; stroke-width: 0.5; stroke-linecap: round"/>
   </g>
   <g id="line2d_20">
    <path d="M 54.545602 253.012601 
L 57.824941 250.730512 
L 61.10428 248.448423 
L 64.383619 246.166334 
L 67.662958 243.884245 
L 70.942296 241.602156 
L 74.221635 239.320067 
L 77.500974 237.037977 
L 80.780313 234.755888 
L 84.059652 232.473799 
L 87.338991 230.19171 
L 90.61833 227.909621 
L 93.897668 225.627532 
L 97.177007 223.345443 
L 100.456346 221.063354 
L 103.735685 218.781265 
L 107.015024 216.499176 
L 110.294363 214.217086 
L 113.573701 211.934997 
L 116.85304 209.652908 
L 120.132379 207.370819 
L 123.411718 205.08873 
L 126.691057 202.806641 
L 129.970396 200.524552 
L 133.249735 198.242463 
L 136.529073 195.960374 
L 139.808412 193.678285 
L 143.087751 191.396196 
L 146.36709 189.114106 
L 149.646429 186.832017 
L 152.925768 184.549928 
L 156.205106 182.267839 
L 159.484445 179.98575 
L 162.763784 177.703661 
L 166.043123 175.421572 
L 169.322462 173.139483 
L 172.601801 170.857394 
L 175.881139 168.575305 
L 179.160478 166.293215 
L 182.439817 164.011126 
L 185.719156 161.729037 
L 188.998495 159.446948 
L 192.277834 157.164859 
L 195.557173 154.88277 
L 198.836511 152.600681 
L 202.11585 150.318592 
L 205.395189 148.036503 
L 208.674528 145.754414 
L 211.953867 143.472324 
L 215.233206 141.190235 
L 218.512544 138.908146 
L 221.791883 136.626057 
L 225.071222 134.343968 
L 228.350561 132.061879 
L 231.6299 129.77979 
L 234.909239 127.497701 
L 238.188577 125.215612 
L 241.467916 122.933523 
L 244.747255 120.651434 
L 248.026594 118.369344 
L 251.305933 116.087255 
L 254.585272 113.805166 
L 257.864611 111.523077 
L 261.143949 109.240988 
L 264.423288 106.958899 
L 267.702627 104.67681 
L 270.981966 102.394721 
L 274.261305 100.112632 
L 277.540644 97.830543 
L 280.819982 95.548453 
L 284.099321 93.266364 
L 287.37866 90.984275 
L 290.657999 88.702186 
L 293.937338 86.420097 
L 297.216677 84.138008 
L 300.496015 81.855919 
L 303.775354 79.57383 
L 307.054693 77.291741 
L 310.334032 75.009652 
L 313.613371 72.727562 
L 316.89271 70.445473 
L 320.172049 68.163384 
L 323.451387 65.881295 
L 326.730726 63.599206 
L 330.010065 61.317117 
L 333.289404 59.035028 
L 336.568743 56.752939 
L 339.848082 54.47085 
L 343.12742 52.188761 
L 346.406759 49.906671 
L 349.686098 47.624582 
L 352.965437 45.342493 
L 356.244776 43.060404 
L 359.524115 40.778315 
L 362.803454 38.496226 
L 366.082792 36.214137 
L 369.362131 33.932048 
L 372.64147 31.649959 
L 375.920809 29.36787 
L 379.200148 27.085781 
" clip-path="url(#p180e11fbf8)" style="fill: none; stroke: #ff0000; stroke-width: 0.5; stroke-linecap: round"/>
   </g>
   <g id="line2d_21">
    <path d="M 54.545602 261.216 
L 57.824941 258.855836 
L 61.10428 256.495672 
L 64.383619 254.135507 
L 67.662958 251.775343 
L 70.942296 249.415179 
L 74.221635 247.055015 
L 77.500974 244.694851 
L 80.780313 242.334686 
L 84.059652 239.974522 
L 87.338991 237.614358 
L 90.61833 235.254194 
L 93.897668 232.89403 
L 97.177007 230.533865 
L 100.456346 228.173701 
L 103.735685 225.813537 
L 107.015024 223.453373 
L 110.294363 221.093209 
L 113.573701 218.733044 
L 116.85304 216.37288 
L 120.132379 214.012716 
L 123.411718 211.652552 
L 126.691057 209.292388 
L 129.970396 206.932223 
L 133.249735 204.572059 
L 136.529073 202.211895 
L 139.808412 199.851731 
L 143.087751 197.491567 
L 146.36709 195.131402 
L 149.646429 192.771238 
L 152.925768 190.411074 
L 156.205106 188.05091 
L 159.484445 185.690746 
L 162.763784 183.330581 
L 166.043123 180.970417 
L 169.322462 178.610253 
L 172.601801 176.250089 
L 175.881139 173.889925 
L 179.160478 171.52976 
L 182.439817 169.169596 
L 185.719156 166.809432 
L 188.998495 164.449268 
L 192.277834 162.089104 
L 195.557173 159.728939 
L 198.836511 157.368775 
L 202.11585 155.008611 
L 205.395189 152.648447 
L 208.674528 150.288283 
L 211.953867 147.928118 
L 215.233206 145.567954 
L 218.512544 143.20779 
L 221.791883 140.847626 
L 225.071222 138.487462 
L 228.350561 136.127297 
L 231.6299 133.767133 
L 234.909239 131.406969 
L 238.188577 129.046805 
L 241.467916 126.686641 
L 244.747255 124.326476 
L 248.026594 121.966312 
L 251.305933 119.606148 
L 254.585272 117.245984 
L 257.864611 114.88582 
L 261.143949 112.525655 
L 264.423288 110.165491 
L 267.702627 107.805327 
L 270.981966 105.445163 
L 274.261305 103.084999 
L 277.540644 100.724834 
L 280.819982 98.36467 
L 284.099321 96.004506 
L 287.37866 93.644342 
L 290.657999 91.284178 
L 293.937338 88.924013 
L 297.216677 86.563849 
L 300.496015 84.203685 
L 303.775354 81.843521 
L 307.054693 79.483357 
L 310.334032 77.123192 
L 313.613371 74.763028 
L 316.89271 72.402864 
L 320.172049 70.0427 
L 323.451387 67.682536 
L 326.730726 65.322371 
L 330.010065 62.962207 
L 333.289404 60.602043 
L 336.568743 58.241879 
L 339.848082 55.881715 
L 343.12742 53.52155 
L 346.406759 51.161386 
L 349.686098 48.801222 
L 352.965437 46.441058 
L 356.244776 44.080894 
L 359.524115 41.720729 
L 362.803454 39.360565 
L 366.082792 37.000401 
L 369.362131 34.640237 
L 372.64147 32.280073 
L 375.920809 29.919908 
L 379.200148 27.559744 
" clip-path="url(#p180e11fbf8)" style="fill: none; stroke: #ff0000; stroke-width: 0.5; stroke-linecap: round"/>
   </g>
   <g id="line2d_22">
    <path d="M 54.545602 247.882321 
L 57.824941 245.7145 
L 61.10428 243.546679 
L 64.383619 241.378858 
L 67.662958 239.211038 
L 70.942296 237.043217 
L 74.221635 234.875396 
L 77.500974 232.707575 
L 80.780313 230.539755 
L 84.059652 228.371934 
L 87.338991 226.204113 
L 90.61833 224.036293 
L 93.897668 221.868472 
L 97.177007 219.700651 
L 100.456346 217.53283 
L 103.735685 215.36501 
L 107.015024 213.197189 
L 110.294363 211.029368 
L 113.573701 208.861547 
L 116.85304 206.693727 
L 120.132379 204.525906 
L 123.411718 202.358085 
L 126.691057 200.190264 
L 129.970396 198.022444 
L 133.249735 195.854623 
L 136.529073 193.686802 
L 139.808412 191.518981 
L 143.087751 189.351161 
L 146.36709 187.18334 
L 149.646429 185.015519 
L 152.925768 182.847698 
L 156.205106 180.679878 
L 159.484445 178.512057 
L 162.763784 176.344236 
L 166.043123 174.176416 
L 169.322462 172.008595 
L 172.601801 169.840774 
L 175.881139 167.672953 
L 179.160478 165.505133 
L 182.439817 163.337312 
L 185.719156 161.169491 
L 188.998495 159.00167 
L 192.277834 156.83385 
L 195.557173 154.666029 
L 198.836511 152.498208 
L 202.11585 150.330387 
L 205.395189 148.162567 
L 208.674528 145.994746 
L 211.953867 143.826925 
L 215.233206 141.659104 
L 218.512544 139.491284 
L 221.791883 137.323463 
L 225.071222 135.155642 
L 228.350561 132.987821 
L 231.6299 130.820001 
L 234.909239 128.65218 
L 238.188577 126.484359 
L 241.467916 124.316539 
L 244.747255 122.148718 
L 248.026594 119.980897 
L 251.305933 117.813076 
L 254.585272 115.645256 
L 257.864611 113.477435 
L 261.143949 111.309614 
L 264.423288 109.141793 
L 267.702627 106.973973 
L 270.981966 104.806152 
L 274.261305 102.638331 
L 277.540644 100.47051 
L 280.819982 98.30269 
L 284.099321 96.134869 
L 287.37866 93.967048 
L 290.657999 91.799227 
L 293.937338 89.631407 
L 297.216677 87.463586 
L 300.496015 85.295765 
L 303.775354 83.127944 
L 307.054693 80.960124 
L 310.334032 78.792303 
L 313.613371 76.624482 
L 316.89271 74.456662 
L 320.172049 72.288841 
L 323.451387 70.12102 
L 326.730726 67.953199 
L 330.010065 65.785379 
L 333.289404 63.617558 
L 336.568743 61.449737 
L 339.848082 59.281916 
L 343.12742 57.114096 
L 346.406759 54.946275 
L 349.686098 52.778454 
L 352.965437 50.610633 
L 356.244776 48.442813 
L 359.524115 46.274992 
L 362.803454 44.107171 
L 366.082792 41.93935 
L 369.362131 39.77153 
L 372.64147 37.603709 
L 375.920809 35.435888 
L 379.200148 33.268067 
" clip-path="url(#p180e11fbf8)" style="fill: none; stroke: #ff0000; stroke-width: 0.5; stroke-linecap: round"/>
   </g>
   <g id="line2d_23">
    <path d="M 54.545602 258.481603 
L 57.824941 256.158917 
L 61.10428 253.836232 
L 64.383619 251.513546 
L 67.662958 249.190861 
L 70.942296 246.868175 
L 74.221635 244.54549 
L 77.500974 242.222804 
L 80.780313 239.900119 
L 84.059652 237.577433 
L 87.338991 235.254748 
L 90.61833 232.932062 
L 93.897668 230.609377 
L 97.177007 228.286691 
L 100.456346 225.964006 
L 103.735685 223.64132 
L 107.015024 221.318635 
L 110.294363 218.995949 
L 113.573701 216.673264 
L 116.85304 214.350578 
L 120.132379 212.027893 
L 123.411718 209.705207 
L 126.691057 207.382522 
L 129.970396 205.059836 
L 133.249735 202.737151 
L 136.529073 200.414465 
L 139.808412 198.09178 
L 143.087751 195.769094 
L 146.36709 193.446409 
L 149.646429 191.123723 
L 152.925768 188.801038 
L 156.205106 186.478352 
L 159.484445 184.155667 
L 162.763784 181.832981 
L 166.043123 179.510296 
L 169.322462 177.18761 
L 172.601801 174.864925 
L 175.881139 172.542239 
L 179.160478 170.219554 
L 182.439817 167.896868 
L 185.719156 165.574183 
L 188.998495 163.251497 
L 192.277834 160.928812 
L 195.557173 158.606126 
L 198.836511 156.283441 
L 202.11585 153.960755 
L 205.395189 151.63807 
L 208.674528 149.315384 
L 211.953867 146.992699 
L 215.233206 144.670013 
L 218.512544 142.347328 
L 221.791883 140.024642 
L 225.071222 137.701957 
L 228.350561 135.379271 
L 231.6299 133.056586 
L 234.909239 130.7339 
L 238.188577 128.411215 
L 241.467916 126.088529 
L 244.747255 123.765844 
L 248.026594 121.443158 
L 251.305933 119.120473 
L 254.585272 116.797787 
L 257.864611 114.475102 
L 261.143949 112.152416 
L 264.423288 109.829731 
L 267.702627 107.507045 
L 270.981966 105.18436 
L 274.261305 102.861674 
L 277.540644 100.538989 
L 280.819982 98.216303 
L 284.099321 95.893618 
L 287.37866 93.570932 
L 290.657999 91.248247 
L 293.937338 88.925561 
L 297.216677 86.602876 
L 300.496015 84.28019 
L 303.775354 81.957505 
L 307.054693 79.634819 
L 310.334032 77.312134 
L 313.613371 74.989448 
L 316.89271 72.666763 
L 320.172049 70.344077 
L 323.451387 68.021392 
L 326.730726 65.698706 
L 330.010065 63.376021 
L 333.289404 61.053335 
L 336.568743 58.73065 
L 339.848082 56.407964 
L 343.12742 54.085279 
L 346.406759 51.762593 
L 349.686098 49.439908 
L 352.965437 47.117222 
L 356.244776 44.794537 
L 359.524115 42.471851 
L 362.803454 40.149166 
L 366.082792 37.82648 
L 369.362131 35.503795 
L 372.64147 33.181109 
L 375.920809 30.858424 
L 379.200148 28.535738 
" clip-path="url(#p180e11fbf8)" style="fill: none; stroke: #ff0000; stroke-width: 0.5; stroke-linecap: round"/>
   </g>
   <g id="line2d_24"/>
   <g id="line2d_25">
    <defs>
     <path id="m560c1ba223" d="M -2.4 2.4 
L 2.4 -2.4 
M -2.4 -2.4 
L 2.4 2.4 
" style="stroke: #000000"/>
    </defs>
    <g clip-path="url(#p180e11fbf8)">
     <use xlink:href="#m560c1ba223" x="356.349692" y="19.296" style="stroke: #000000"/>
     <use xlink:href="#m560c1ba223" x="157.258364" y="224.375244" style="stroke: #000000"/>
     <use xlink:href="#m560c1ba223" x="114.25568" y="209.823264" style="stroke: #000000"/>
     <use xlink:href="#m560c1ba223" x="120.957027" y="206.436642" style="stroke: #000000"/>
     <use xlink:href="#m560c1ba223" x="238.860114" y="91.817148" style="stroke: #000000"/>
     <use xlink:href="#m560c1ba223" x="247.891897" y="98.756069" style="stroke: #000000"/>
     <use xlink:href="#m560c1ba223" x="367.679625" y="96.944267" style="stroke: #000000"/>
     <use xlink:href="#m560c1ba223" x="266.602516" y="121.433859" style="stroke: #000000"/>
     <use xlink:href="#m560c1ba223" x="297.681546" y="41.593376" style="stroke: #000000"/>
     <use xlink:href="#m560c1ba223" x="266.730032" y="123.24262" style="stroke: #000000"/>
    </g>
   </g>
   <g id="line2d_26">
    <path d="M 54.545602 259.500319 
L 57.824941 257.201625 
L 61.10428 254.90293 
L 64.383619 252.604235 
L 67.662958 250.30554 
L 70.942296 248.006846 
L 74.221635 245.708151 
L 77.500974 243.409456 
L 80.780313 241.110761 
L 84.059652 238.812067 
L 87.338991 236.513372 
L 90.61833 234.214677 
L 93.897668 231.915982 
L 97.177007 229.617287 
L 100.456346 227.318593 
L 103.735685 225.019898 
L 107.015024 222.721203 
L 110.294363 220.422508 
L 113.573701 218.123814 
L 116.85304 215.825119 
L 120.132379 213.526424 
L 123.411718 211.227729 
L 126.691057 208.929035 
L 129.970396 206.63034 
L 133.249735 204.331645 
L 136.529073 202.03295 
L 139.808412 199.734256 
L 143.087751 197.435561 
L 146.36709 195.136866 
L 149.646429 192.838171 
L 152.925768 190.539476 
L 156.205106 188.240782 
L 159.484445 185.942087 
L 162.763784 183.643392 
L 166.043123 181.344697 
L 169.322462 179.046003 
L 172.601801 176.747308 
L 175.881139 174.448613 
L 179.160478 172.149918 
L 182.439817 169.851224 
L 185.719156 167.552529 
L 188.998495 165.253834 
L 192.277834 162.955139 
L 195.557173 160.656445 
L 198.836511 158.35775 
L 202.11585 156.059055 
L 205.395189 153.76036 
L 208.674528 151.461666 
L 211.953867 149.162971 
L 215.233206 146.864276 
L 218.512544 144.565581 
L 221.791883 142.266886 
L 225.071222 139.968192 
L 228.350561 137.669497 
L 231.6299 135.370802 
L 234.909239 133.072107 
L 238.188577 130.773413 
L 241.467916 128.474718 
L 244.747255 126.176023 
L 248.026594 123.877328 
L 251.305933 121.578634 
L 254.585272 119.279939 
L 257.864611 116.981244 
L 261.143949 114.682549 
L 264.423288 112.383855 
L 267.702627 110.08516 
L 270.981966 107.786465 
L 274.261305 105.48777 
L 277.540644 103.189076 
L 280.819982 100.890381 
L 284.099321 98.591686 
L 287.37866 96.292991 
L 290.657999 93.994296 
L 293.937338 91.695602 
L 297.216677 89.396907 
L 300.496015 87.098212 
L 303.775354 84.799517 
L 307.054693 82.500823 
L 310.334032 80.202128 
L 313.613371 77.903433 
L 316.89271 75.604738 
L 320.172049 73.306044 
L 323.451387 71.007349 
L 326.730726 68.708654 
L 330.010065 66.409959 
L 333.289404 64.111265 
L 336.568743 61.81257 
L 339.848082 59.513875 
L 343.12742 57.21518 
L 346.406759 54.916486 
L 349.686098 52.617791 
L 352.965437 50.319096 
L 356.244776 48.020401 
L 359.524115 45.721706 
L 362.803454 43.423012 
L 366.082792 41.124317 
L 369.362131 38.825622 
L 372.64147 36.526927 
L 375.920809 34.228233 
L 379.200148 31.929538 
" clip-path="url(#p180e11fbf8)" style="fill: none; stroke: #1f77b4; stroke-width: 1.2; stroke-linecap: round"/>
   </g>
   <g id="patch_3">
    <path d="M 38.312875 231.053972 
L 38.312875 60.375886 
" style="fill: none; stroke: #262626; stroke-linejoin: miter; stroke-linecap: square"/>
   </g>
   <g id="patch_4">
    <path d="M 54.545602 273.312 
L 379.200148 273.312 
" style="fill: none; stroke: #262626; stroke-linejoin: miter; stroke-linecap: square"/>
   </g>
   <g id="legend_1">
    <g id="line2d_27">
     <path d="M 46.232875 18.338875 
L 55.032875 18.338875 
L 63.832875 18.338875 
" style="fill: none; stroke: #ff0000; stroke-width: 0.5; stroke-linecap: round"/>
    </g>
    <g id="text_16">
     <!-- Posterior samples -->
     <g style="fill: #262626" transform="translate(70.872875 21.418875) scale(0.088 -0.088)">
      <defs>
       <path id="ArialMT-50" d="M 494 0 
L 494 4581 
L 2222 4581 
Q 2678 4581 2919 4538 
Q 3256 4481 3484 4323 
Q 3713 4166 3852 3881 
Q 3991 3597 3991 3256 
Q 3991 2672 3619 2267 
Q 3247 1863 2275 1863 
L 1100 1863 
L 1100 0 
L 494 0 
z
M 1100 2403 
L 2284 2403 
Q 2872 2403 3119 2622 
Q 3366 2841 3366 3238 
Q 3366 3525 3220 3729 
Q 3075 3934 2838 4000 
Q 2684 4041 2272 4041 
L 1100 4041 
L 1100 2403 
z
" transform="scale(0.015625)"/>
       <path id="ArialMT-6f" d="M 213 1659 
Q 213 2581 725 3025 
Q 1153 3394 1769 3394 
Q 2453 3394 2887 2945 
Q 3322 2497 3322 1706 
Q 3322 1066 3130 698 
Q 2938 331 2570 128 
Q 2203 -75 1769 -75 
Q 1072 -75 642 372 
Q 213 819 213 1659 
z
M 791 1659 
Q 791 1022 1069 705 
Q 1347 388 1769 388 
Q 2188 388 2466 706 
Q 2744 1025 2744 1678 
Q 2744 2294 2464 2611 
Q 2184 2928 1769 2928 
Q 1347 2928 1069 2612 
Q 791 2297 791 1659 
z
" transform="scale(0.015625)"/>
       <path id="ArialMT-73" d="M 197 991 
L 753 1078 
Q 800 744 1014 566 
Q 1228 388 1613 388 
Q 2000 388 2187 545 
Q 2375 703 2375 916 
Q 2375 1106 2209 1216 
Q 2094 1291 1634 1406 
Q 1016 1563 777 1677 
Q 538 1791 414 1992 
Q 291 2194 291 2438 
Q 291 2659 392 2848 
Q 494 3038 669 3163 
Q 800 3259 1026 3326 
Q 1253 3394 1513 3394 
Q 1903 3394 2198 3281 
Q 2494 3169 2634 2976 
Q 2775 2784 2828 2463 
L 2278 2388 
Q 2241 2644 2061 2787 
Q 1881 2931 1553 2931 
Q 1166 2931 1000 2803 
Q 834 2675 834 2503 
Q 834 2394 903 2306 
Q 972 2216 1119 2156 
Q 1203 2125 1616 2013 
Q 2213 1853 2448 1751 
Q 2684 1650 2818 1456 
Q 2953 1263 2953 975 
Q 2953 694 2789 445 
Q 2625 197 2315 61 
Q 2006 -75 1616 -75 
Q 969 -75 630 194 
Q 291 463 197 991 
z
" transform="scale(0.015625)"/>
       <path id="ArialMT-74" d="M 1650 503 
L 1731 6 
Q 1494 -44 1306 -44 
Q 1000 -44 831 53 
Q 663 150 594 308 
Q 525 466 525 972 
L 525 2881 
L 113 2881 
L 113 3319 
L 525 3319 
L 525 4141 
L 1084 4478 
L 1084 3319 
L 1650 3319 
L 1650 2881 
L 1084 2881 
L 1084 941 
Q 1084 700 1114 631 
Q 1144 563 1211 522 
Q 1278 481 1403 481 
Q 1497 481 1650 503 
z
" transform="scale(0.015625)"/>
       <path id="ArialMT-65" d="M 2694 1069 
L 3275 997 
Q 3138 488 2766 206 
Q 2394 -75 1816 -75 
Q 1088 -75 661 373 
Q 234 822 234 1631 
Q 234 2469 665 2931 
Q 1097 3394 1784 3394 
Q 2450 3394 2872 2941 
Q 3294 2488 3294 1666 
Q 3294 1616 3291 1516 
L 816 1516 
Q 847 969 1125 678 
Q 1403 388 1819 388 
Q 2128 388 2347 550 
Q 2566 713 2694 1069 
z
M 847 1978 
L 2700 1978 
Q 2663 2397 2488 2606 
Q 2219 2931 1791 2931 
Q 1403 2931 1139 2672 
Q 875 2413 847 1978 
z
" transform="scale(0.015625)"/>
       <path id="ArialMT-72" d="M 416 0 
L 416 3319 
L 922 3319 
L 922 2816 
Q 1116 3169 1280 3281 
Q 1444 3394 1641 3394 
Q 1925 3394 2219 3213 
L 2025 2691 
Q 1819 2813 1613 2813 
Q 1428 2813 1281 2702 
Q 1134 2591 1072 2394 
Q 978 2094 978 1738 
L 978 0 
L 416 0 
z
" transform="scale(0.015625)"/>
       <path id="ArialMT-69" d="M 425 3934 
L 425 4581 
L 988 4581 
L 988 3934 
L 425 3934 
z
M 425 0 
L 425 3319 
L 988 3319 
L 988 0 
L 425 0 
z
" transform="scale(0.015625)"/>
       <path id="ArialMT-20" transform="scale(0.015625)"/>
       <path id="ArialMT-61" d="M 2588 409 
Q 2275 144 1986 34 
Q 1697 -75 1366 -75 
Q 819 -75 525 192 
Q 231 459 231 875 
Q 231 1119 342 1320 
Q 453 1522 633 1644 
Q 813 1766 1038 1828 
Q 1203 1872 1538 1913 
Q 2219 1994 2541 2106 
Q 2544 2222 2544 2253 
Q 2544 2597 2384 2738 
Q 2169 2928 1744 2928 
Q 1347 2928 1158 2789 
Q 969 2650 878 2297 
L 328 2372 
Q 403 2725 575 2942 
Q 747 3159 1072 3276 
Q 1397 3394 1825 3394 
Q 2250 3394 2515 3294 
Q 2781 3194 2906 3042 
Q 3031 2891 3081 2659 
Q 3109 2516 3109 2141 
L 3109 1391 
Q 3109 606 3145 398 
Q 3181 191 3288 0 
L 2700 0 
Q 2613 175 2588 409 
z
M 2541 1666 
Q 2234 1541 1622 1453 
Q 1275 1403 1131 1340 
Q 988 1278 909 1158 
Q 831 1038 831 891 
Q 831 666 1001 516 
Q 1172 366 1500 366 
Q 1825 366 2078 508 
Q 2331 650 2450 897 
Q 2541 1088 2541 1459 
L 2541 1666 
z
" transform="scale(0.015625)"/>
       <path id="ArialMT-6d" d="M 422 0 
L 422 3319 
L 925 3319 
L 925 2853 
Q 1081 3097 1340 3245 
Q 1600 3394 1931 3394 
Q 2300 3394 2536 3241 
Q 2772 3088 2869 2813 
Q 3263 3394 3894 3394 
Q 4388 3394 4653 3120 
Q 4919 2847 4919 2278 
L 4919 0 
L 4359 0 
L 4359 2091 
Q 4359 2428 4304 2576 
Q 4250 2725 4106 2815 
Q 3963 2906 3769 2906 
Q 3419 2906 3187 2673 
Q 2956 2441 2956 1928 
L 2956 0 
L 2394 0 
L 2394 2156 
Q 2394 2531 2256 2718 
Q 2119 2906 1806 2906 
Q 1569 2906 1367 2781 
Q 1166 2656 1075 2415 
Q 984 2175 984 1722 
L 984 0 
L 422 0 
z
" transform="scale(0.015625)"/>
       <path id="ArialMT-70" d="M 422 -1272 
L 422 3319 
L 934 3319 
L 934 2888 
Q 1116 3141 1344 3267 
Q 1572 3394 1897 3394 
Q 2322 3394 2647 3175 
Q 2972 2956 3137 2557 
Q 3303 2159 3303 1684 
Q 3303 1175 3120 767 
Q 2938 359 2589 142 
Q 2241 -75 1856 -75 
Q 1575 -75 1351 44 
Q 1128 163 984 344 
L 984 -1272 
L 422 -1272 
z
M 931 1641 
Q 931 1000 1190 694 
Q 1450 388 1819 388 
Q 2194 388 2461 705 
Q 2728 1022 2728 1688 
Q 2728 2322 2467 2637 
Q 2206 2953 1844 2953 
Q 1484 2953 1207 2617 
Q 931 2281 931 1641 
z
" transform="scale(0.015625)"/>
       <path id="ArialMT-6c" d="M 409 0 
L 409 4581 
L 972 4581 
L 972 0 
L 409 0 
z
" transform="scale(0.015625)"/>
      </defs>
      <use xlink:href="#ArialMT-50"/>
      <use xlink:href="#ArialMT-6f" x="66.699219"/>
      <use xlink:href="#ArialMT-73" x="122.314453"/>
      <use xlink:href="#ArialMT-74" x="172.314453"/>
      <use xlink:href="#ArialMT-65" x="200.097656"/>
      <use xlink:href="#ArialMT-72" x="255.712891"/>
      <use xlink:href="#ArialMT-69" x="289.013672"/>
      <use xlink:href="#ArialMT-6f" x="311.230469"/>
      <use xlink:href="#ArialMT-72" x="366.845703"/>
      <use xlink:href="#ArialMT-20" x="400.146484"/>
      <use xlink:href="#ArialMT-73" x="427.929688"/>
      <use xlink:href="#ArialMT-61" x="477.929688"/>
      <use xlink:href="#ArialMT-6d" x="533.544922"/>
      <use xlink:href="#ArialMT-70" x="616.845703"/>
      <use xlink:href="#ArialMT-6c" x="672.460938"/>
      <use xlink:href="#ArialMT-65" x="694.677734"/>
      <use xlink:href="#ArialMT-73" x="750.292969"/>
     </g>
    </g>
    <g id="line2d_28">
     <g>
      <use xlink:href="#m560c1ba223" x="55.032875" y="30.78675" style="stroke: #000000"/>
     </g>
    </g>
    <g id="text_17">
     <!-- Observed data -->
     <g style="fill: #262626" transform="translate(70.872875 33.86675) scale(0.088 -0.088)">
      <defs>
       <path id="ArialMT-4f" d="M 309 2231 
Q 309 3372 921 4017 
Q 1534 4663 2503 4663 
Q 3138 4663 3647 4359 
Q 4156 4056 4423 3514 
Q 4691 2972 4691 2284 
Q 4691 1588 4409 1038 
Q 4128 488 3612 205 
Q 3097 -78 2500 -78 
Q 1853 -78 1343 234 
Q 834 547 571 1087 
Q 309 1628 309 2231 
z
M 934 2222 
Q 934 1394 1379 917 
Q 1825 441 2497 441 
Q 3181 441 3623 922 
Q 4066 1403 4066 2288 
Q 4066 2847 3877 3264 
Q 3688 3681 3323 3911 
Q 2959 4141 2506 4141 
Q 1863 4141 1398 3698 
Q 934 3256 934 2222 
z
" transform="scale(0.015625)"/>
       <path id="ArialMT-62" d="M 941 0 
L 419 0 
L 419 4581 
L 981 4581 
L 981 2947 
Q 1338 3394 1891 3394 
Q 2197 3394 2470 3270 
Q 2744 3147 2920 2923 
Q 3097 2700 3197 2384 
Q 3297 2069 3297 1709 
Q 3297 856 2875 390 
Q 2453 -75 1863 -75 
Q 1275 -75 941 416 
L 941 0 
z
M 934 1684 
Q 934 1088 1097 822 
Q 1363 388 1816 388 
Q 2184 388 2453 708 
Q 2722 1028 2722 1663 
Q 2722 2313 2464 2622 
Q 2206 2931 1841 2931 
Q 1472 2931 1203 2611 
Q 934 2291 934 1684 
z
" transform="scale(0.015625)"/>
       <path id="ArialMT-76" d="M 1344 0 
L 81 3319 
L 675 3319 
L 1388 1331 
Q 1503 1009 1600 663 
Q 1675 925 1809 1294 
L 2547 3319 
L 3125 3319 
L 1869 0 
L 1344 0 
z
" transform="scale(0.015625)"/>
       <path id="ArialMT-64" d="M 2575 0 
L 2575 419 
Q 2259 -75 1647 -75 
Q 1250 -75 917 144 
Q 584 363 401 755 
Q 219 1147 219 1656 
Q 219 2153 384 2558 
Q 550 2963 881 3178 
Q 1213 3394 1622 3394 
Q 1922 3394 2156 3267 
Q 2391 3141 2538 2938 
L 2538 4581 
L 3097 4581 
L 3097 0 
L 2575 0 
z
M 797 1656 
Q 797 1019 1065 703 
Q 1334 388 1700 388 
Q 2069 388 2326 689 
Q 2584 991 2584 1609 
Q 2584 2291 2321 2609 
Q 2059 2928 1675 2928 
Q 1300 2928 1048 2622 
Q 797 2316 797 1656 
z
" transform="scale(0.015625)"/>
      </defs>
      <use xlink:href="#ArialMT-4f"/>
      <use xlink:href="#ArialMT-62" x="77.783203"/>
      <use xlink:href="#ArialMT-73" x="133.398438"/>
      <use xlink:href="#ArialMT-65" x="183.398438"/>
      <use xlink:href="#ArialMT-72" x="239.013672"/>
      <use xlink:href="#ArialMT-76" x="272.314453"/>
      <use xlink:href="#ArialMT-65" x="322.314453"/>
      <use xlink:href="#ArialMT-64" x="377.929688"/>
      <use xlink:href="#ArialMT-20" x="433.544922"/>
      <use xlink:href="#ArialMT-64" x="461.328125"/>
      <use xlink:href="#ArialMT-61" x="516.943359"/>
      <use xlink:href="#ArialMT-74" x="572.558594"/>
      <use xlink:href="#ArialMT-61" x="600.341797"/>
     </g>
    </g>
    <g id="line2d_29">
     <path d="M 46.232875 43.341875 
L 55.032875 43.341875 
L 63.832875 43.341875 
" style="fill: none; stroke: #1f77b4; stroke-width: 1.2; stroke-linecap: round"/>
    </g>
    <g id="text_18">
     <!-- True response surface -->
     <g style="fill: #262626" transform="translate(70.872875 46.421875) scale(0.088 -0.088)">
      <defs>
       <path id="ArialMT-54" d="M 1659 0 
L 1659 4041 
L 150 4041 
L 150 4581 
L 3781 4581 
L 3781 4041 
L 2266 4041 
L 2266 0 
L 1659 0 
z
" transform="scale(0.015625)"/>
       <path id="ArialMT-75" d="M 2597 0 
L 2597 488 
Q 2209 -75 1544 -75 
Q 1250 -75 995 37 
Q 741 150 617 320 
Q 494 491 444 738 
Q 409 903 409 1263 
L 409 3319 
L 972 3319 
L 972 1478 
Q 972 1038 1006 884 
Q 1059 663 1231 536 
Q 1403 409 1656 409 
Q 1909 409 2131 539 
Q 2353 669 2445 892 
Q 2538 1116 2538 1541 
L 2538 3319 
L 3100 3319 
L 3100 0 
L 2597 0 
z
" transform="scale(0.015625)"/>
       <path id="ArialMT-6e" d="M 422 0 
L 422 3319 
L 928 3319 
L 928 2847 
Q 1294 3394 1984 3394 
Q 2284 3394 2536 3286 
Q 2788 3178 2913 3003 
Q 3038 2828 3088 2588 
Q 3119 2431 3119 2041 
L 3119 0 
L 2556 0 
L 2556 2019 
Q 2556 2363 2490 2533 
Q 2425 2703 2258 2804 
Q 2091 2906 1866 2906 
Q 1506 2906 1245 2678 
Q 984 2450 984 1813 
L 984 0 
L 422 0 
z
" transform="scale(0.015625)"/>
       <path id="ArialMT-66" d="M 556 0 
L 556 2881 
L 59 2881 
L 59 3319 
L 556 3319 
L 556 3672 
Q 556 4006 616 4169 
Q 697 4388 901 4523 
Q 1106 4659 1475 4659 
Q 1713 4659 2000 4603 
L 1916 4113 
Q 1741 4144 1584 4144 
Q 1328 4144 1222 4034 
Q 1116 3925 1116 3625 
L 1116 3319 
L 1763 3319 
L 1763 2881 
L 1116 2881 
L 1116 0 
L 556 0 
z
" transform="scale(0.015625)"/>
       <path id="ArialMT-63" d="M 2588 1216 
L 3141 1144 
Q 3050 572 2676 248 
Q 2303 -75 1759 -75 
Q 1078 -75 664 370 
Q 250 816 250 1647 
Q 250 2184 428 2587 
Q 606 2991 970 3192 
Q 1334 3394 1763 3394 
Q 2303 3394 2647 3120 
Q 2991 2847 3088 2344 
L 2541 2259 
Q 2463 2594 2264 2762 
Q 2066 2931 1784 2931 
Q 1359 2931 1093 2626 
Q 828 2322 828 1663 
Q 828 994 1084 691 
Q 1341 388 1753 388 
Q 2084 388 2306 591 
Q 2528 794 2588 1216 
z
" transform="scale(0.015625)"/>
      </defs>
      <use xlink:href="#ArialMT-54"/>
      <use xlink:href="#ArialMT-72" x="57.333984"/>
      <use xlink:href="#ArialMT-75" x="90.634766"/>
      <use xlink:href="#ArialMT-65" x="146.25"/>
      <use xlink:href="#ArialMT-20" x="201.865234"/>
      <use xlink:href="#ArialMT-72" x="229.648438"/>
      <use xlink:href="#ArialMT-65" x="262.949219"/>
      <use xlink:href="#ArialMT-73" x="318.564453"/>
      <use xlink:href="#ArialMT-70" x="368.564453"/>
      <use xlink:href="#ArialMT-6f" x="424.179688"/>
      <use xlink:href="#ArialMT-6e" x="479.794922"/>
      <use xlink:href="#ArialMT-73" x="535.410156"/>
      <use xlink:href="#ArialMT-65" x="585.410156"/>
      <use xlink:href="#ArialMT-20" x="641.025391"/>
      <use xlink:href="#ArialMT-73" x="668.808594"/>
      <use xlink:href="#ArialMT-75" x="718.808594"/>
      <use xlink:href="#ArialMT-72" x="774.423828"/>
      <use xlink:href="#ArialMT-66" x="807.724609"/>
      <use xlink:href="#ArialMT-61" x="835.507812"/>
      <use xlink:href="#ArialMT-63" x="891.123047"/>
      <use xlink:href="#ArialMT-65" x="941.123047"/>
     </g>
    </g>
   </g>
  </g>
 </g>
 <defs>
  <clipPath id="p180e11fbf8">
   <rect x="38.312875" y="7.2" width="357.12" height="266.112"/>
  </clipPath>
 </defs>
</svg>