<?xml version="1.0" encoding="utf-8" standalone="no"?>
<!DOCTYPE svg PUBLIC "-//W3C//DTD SVG 1.1//EN"
  "http://www.w3.org/Graphics/SVG/1.1/DTD/svg11.dtd">
<svg xmlns:xlink="http://www.w3.org/1999/xlink" width="408.470938pt" height="309.979875pt" viewBox="0 0 408.470938 309.979875" xmlns="http://www.w3.org/2000/svg" version="1.1">
 <metadata>
  <rdf:RDF xmlns:dc="http://purl.org/dc/elements/1.1/" xmlns:cc="http://creativecommons.org/ns#" xmlns:rdf="http://www.w3.org/1999/02/22-rdf-syntax-ns#">
   <cc:Work>
    <dc:type rdf:resource="http://purl.org/dc/dcmitype/StillImage"/>
    <dc:date>2023-10-25T12:59:17.405834</dc:date>
    <dc:format>image/svg+xml</dc:format>
    <dc:creator>
     <cc:Agent>
      <dc:title>Matplotlib v3.8.0, https://matplotlib.org/</dc:title>
     </cc:Agent>
    </dc:creator>
   </cc:Work>
  </rdf:RDF>
 </metadata>
 <defs>
  <style type="text/css">*{stroke-linejoin: round; stroke-linecap: butt}</style>
 </defs>
 <g id="figure_1">
  <g id="patch_1">
   <path d="M 0 309.979875 
L 408.470938 309.979875 
L 408.470938 0 
L 0 0 
z
" style="fill: #ffffff"/>
  </g>
  <g id="axes_1">
   <g id="patch_2">
    <path d="M 41.524 273.312 
L 398.644 273.312 
L 398.644 7.2 
L 41.524 7.2 
z
" style="fill: #ffffff"/>
   </g>
   <g id="matplotlib.axis_1">
    <g id="xtick_1">
     <g id="line2d_1">
      <defs>
       <path id="m5460f2831b" d="M 0 0 
L 0 4.8 
" style="stroke: #262626"/>
      </defs>
      <g>
       <use xlink:href="#m5460f2831b" x="57.756727" y="273.312" style="fill: #262626; stroke: #262626"/>
      </g>
     </g>
     <g id="text_1">
      <!-- 0 -->
      <g style="fill: #262626" transform="translate(55.309915 287.910875) scale(0.088 -0.088)">
       <defs>
        <path id="ArialMT-30" d="M 266 2259 
Q 266 3072 433 3567 
Q 600 4063 929 4331 
Q 1259 4600 1759 4600 
Q 2128 4600 2406 4451 
Q 2684 4303 2865 4023 
Q 3047 3744 3150 3342 
Q 3253 2941 3253 2259 
Q 3253 1453 3087 958 
Q 2922 463 2592 192 
Q 2263 -78 1759 -78 
Q 1097 -78 719 397 
Q 266 969 266 2259 
z
M 844 2259 
Q 844 1131 1108 757 
Q 1372 384 1759 384 
Q 2147 384 2411 759 
Q 2675 1134 2675 2259 
Q 2675 3391 2411 3762 
Q 2147 4134 1753 4134 
Q 1366 4134 1134 3806 
Q 844 3388 844 2259 
z
" transform="scale(0.015625)"/>
       </defs>
       <use xlink:href="#ArialMT-30"/>
      </g>
     </g>
    </g>
    <g id="xtick_2">
     <g id="line2d_2">
      <g>
       <use xlink:href="#m5460f2831b" x="124.012757" y="273.312" style="fill: #262626; stroke: #262626"/>
      </g>
     </g>
     <g id="text_2">
      <!-- 2000 -->
      <g style="fill: #262626" transform="translate(114.225507 287.910875) scale(0.088 -0.088)">
       <defs>
        <path id="ArialMT-32" d="M 3222 541 
L 3222 0 
L 194 0 
Q 188 203 259 391 
Q 375 700 629 1000 
Q 884 1300 1366 1694 
Q 2113 2306 2375 2664 
Q 2638 3022 2638 3341 
Q 2638 3675 2398 3904 
Q 2159 4134 1775 4134 
Q 1369 4134 1125 3890 
Q 881 3647 878 3216 
L 300 3275 
Q 359 3922 746 4261 
Q 1134 4600 1788 4600 
Q 2447 4600 2831 4234 
Q 3216 3869 3216 3328 
Q 3216 3053 3103 2787 
Q 2991 2522 2730 2228 
Q 2469 1934 1863 1422 
Q 1356 997 1212 845 
Q 1069 694 975 541 
L 3222 541 
z
" transform="scale(0.015625)"/>
       </defs>
       <use xlink:href="#ArialMT-32"/>
       <use xlink:href="#ArialMT-30" x="55.615234"/>
       <use xlink:href="#ArialMT-30" x="111.230469"/>
       <use xlink:href="#ArialMT-30" x="166.845703"/>
      </g>
     </g>
    </g>
    <g id="xtick_3">
     <g id="line2d_3">
      <g>
       <use xlink:href="#m5460f2831b" x="190.268787" y="273.312" style="fill: #262626; stroke: #262626"/>
      </g>
     </g>
     <g id="text_3">
      <!-- 4000 -->
      <g style="fill: #262626" transform="translate(180.481537 287.910875) scale(0.088 -0.088)">
       <defs>
        <path id="ArialMT-34" d="M 2069 0 
L 2069 1097 
L 81 1097 
L 81 1613 
L 2172 4581 
L 2631 4581 
L 2631 1613 
L 3250 1613 
L 3250 1097 
L 2631 1097 
L 2631 0 
L 2069 0 
z
M 2069 1613 
L 2069 3678 
L 634 1613 
L 2069 1613 
z
" transform="scale(0.015625)"/>
       </defs>
       <use xlink:href="#ArialMT-34"/>
       <use xlink:href="#ArialMT-30" x="55.615234"/>
       <use xlink:href="#ArialMT-30" x="111.230469"/>
       <use xlink:href="#ArialMT-30" x="166.845703"/>
      </g>
     </g>
    </g>
    <g id="xtick_4">
     <g id="line2d_4">
      <g>
       <use xlink:href="#m5460f2831b" x="256.524816" y="273.312" style="fill: #262626; stroke: #262626"/>
      </g>
     </g>
     <g id="text_4">
      <!-- 6000 -->
      <g style="fill: #262626" transform="translate(246.737566 287.910875) scale(0.088 -0.088)">
       <defs>
        <path id="ArialMT-36" d="M 3184 3459 
L 2625 3416 
Q 2550 3747 2413 3897 
Q 2184 4138 1850 4138 
Q 1581 4138 1378 3988 
Q 1113 3794 959 3422 
Q 806 3050 800 2363 
Q 1003 2672 1297 2822 
Q 1591 2972 1913 2972 
Q 2475 2972 2870 2558 
Q 3266 2144 3266 1488 
Q 3266 1056 3080 686 
Q 2894 316 2569 119 
Q 2244 -78 1831 -78 
Q 1128 -78 684 439 
Q 241 956 241 2144 
Q 241 3472 731 4075 
Q 1159 4600 1884 4600 
Q 2425 4600 2770 4297 
Q 3116 3994 3184 3459 
z
M 888 1484 
Q 888 1194 1011 928 
Q 1134 663 1356 523 
Q 1578 384 1822 384 
Q 2178 384 2434 671 
Q 2691 959 2691 1453 
Q 2691 1928 2437 2201 
Q 2184 2475 1800 2475 
Q 1419 2475 1153 2201 
Q 888 1928 888 1484 
z
" transform="scale(0.015625)"/>
       </defs>
       <use xlink:href="#ArialMT-36"/>
       <use xlink:href="#ArialMT-30" x="55.615234"/>
       <use xlink:href="#ArialMT-30" x="111.230469"/>
       <use xlink:href="#ArialMT-30" x="166.845703"/>
      </g>
     </g>
    </g>
    <g id="xtick_5">
     <g id="line2d_5">
      <g>
       <use xlink:href="#m5460f2831b" x="322.780846" y="273.312" style="fill: #262626; stroke: #262626"/>
      </g>
     </g>
     <g id="text_5">
      <!-- 8000 -->
      <g style="fill: #262626" transform="translate(312.993596 287.910875) scale(0.088 -0.088)">
       <defs>
        <path id="ArialMT-38" d="M 1131 2484 
Q 781 2613 612 2850 
Q 444 3088 444 3419 
Q 444 3919 803 4259 
Q 1163 4600 1759 4600 
Q 2359 4600 2725 4251 
Q 3091 3903 3091 3403 
Q 3091 3084 2923 2848 
Q 2756 2613 2416 2484 
Q 2838 2347 3058 2040 
Q 3278 1734 3278 1309 
Q 3278 722 2862 322 
Q 2447 -78 1769 -78 
Q 1091 -78 675 323 
Q 259 725 259 1325 
Q 259 1772 486 2073 
Q 713 2375 1131 2484 
z
M 1019 3438 
Q 1019 3113 1228 2906 
Q 1438 2700 1772 2700 
Q 2097 2700 2305 2904 
Q 2513 3109 2513 3406 
Q 2513 3716 2298 3927 
Q 2084 4138 1766 4138 
Q 1444 4138 1231 3931 
Q 1019 3725 1019 3438 
z
M 838 1322 
Q 838 1081 952 856 
Q 1066 631 1291 507 
Q 1516 384 1775 384 
Q 2178 384 2440 643 
Q 2703 903 2703 1303 
Q 2703 1709 2433 1975 
Q 2163 2241 1756 2241 
Q 1359 2241 1098 1978 
Q 838 1716 838 1322 
z
" transform="scale(0.015625)"/>
       </defs>
       <use xlink:href="#ArialMT-38"/>
       <use xlink:href="#ArialMT-30" x="55.615234"/>
       <use xlink:href="#ArialMT-30" x="111.230469"/>
       <use xlink:href="#ArialMT-30" x="166.845703"/>
      </g>
     </g>
    </g>
    <g id="xtick_6">
     <g id="line2d_6">
      <g>
       <use xlink:href="#m5460f2831b" x="389.036876" y="273.312" style="fill: #262626; stroke: #262626"/>
      </g>
     </g>
     <g id="text_6">
      <!-- 10000 -->
      <g style="fill: #262626" transform="translate(376.802813 287.910875) scale(0.088 -0.088)">
       <defs>
        <path id="ArialMT-31" d="M 2384 0 
L 1822 0 
L 1822 3584 
Q 1619 3391 1289 3197 
Q 959 3003 697 2906 
L 697 3450 
Q 1169 3672 1522 3987 
Q 1875 4303 2022 4600 
L 2384 4600 
L 2384 0 
z
" transform="scale(0.015625)"/>
       </defs>
       <use xlink:href="#ArialMT-31"/>
       <use xlink:href="#ArialMT-30" x="55.615234"/>
       <use xlink:href="#ArialMT-30" x="111.230469"/>
       <use xlink:href="#ArialMT-30" x="166.845703"/>
       <use xlink:href="#ArialMT-30" x="222.460938"/>
      </g>
     </g>
    </g>
    <g id="text_7">
     <!-- $m$ (steps) -->
     <g style="fill: #262626" transform="translate(199.396 300.667875) scale(0.096 -0.096)">
      <defs>
       <path id="DejaVuSans-Oblique-6d" d="M 5747 2113 
L 5338 0 
L 4763 0 
L 5166 2094 
Q 5191 2228 5203 2325 
Q 5216 2422 5216 2491 
Q 5216 2772 5059 2928 
Q 4903 3084 4622 3084 
Q 4203 3084 3875 2770 
Q 3547 2456 3450 1953 
L 3066 0 
L 2491 0 
L 2900 2094 
Q 2925 2209 2937 2307 
Q 2950 2406 2950 2484 
Q 2950 2769 2794 2926 
Q 2638 3084 2363 3084 
Q 1938 3084 1609 2770 
Q 1281 2456 1184 1953 
L 800 0 
L 225 0 
L 909 3500 
L 1484 3500 
L 1375 2956 
Q 1609 3263 1923 3423 
Q 2238 3584 2597 3584 
Q 2978 3584 3223 3384 
Q 3469 3184 3519 2828 
Q 3781 3197 4126 3390 
Q 4472 3584 4856 3584 
Q 5306 3584 5551 3325 
Q 5797 3066 5797 2591 
Q 5797 2488 5784 2364 
Q 5772 2241 5747 2113 
z
" transform="scale(0.015625)"/>
       <path id="ArialMT-20" transform="scale(0.015625)"/>
       <path id="ArialMT-28" d="M 1497 -1347 
Q 1031 -759 709 28 
Q 388 816 388 1659 
Q 388 2403 628 3084 
Q 909 3875 1497 4659 
L 1900 4659 
Q 1522 4009 1400 3731 
Q 1209 3300 1100 2831 
Q 966 2247 966 1656 
Q 966 153 1900 -1347 
L 1497 -1347 
z
" transform="scale(0.015625)"/>
       <path id="ArialMT-73" d="M 197 991 
L 753 1078 
Q 800 744 1014 566 
Q 1228 388 1613 388 
Q 2000 388 2187 545 
Q 2375 703 2375 916 
Q 2375 1106 2209 1216 
Q 2094 1291 1634 1406 
Q 1016 1563 777 1677 
Q 538 1791 414 1992 
Q 291 2194 291 2438 
Q 291 2659 392 2848 
Q 494 3038 669 3163 
Q 800 3259 1026 3326 
Q 1253 3394 1513 3394 
Q 1903 3394 2198 3281 
Q 2494 3169 2634 2976 
Q 2775 2784 2828 2463 
L 2278 2388 
Q 2241 2644 2061 2787 
Q 1881 2931 1553 2931 
Q 1166 2931 1000 2803 
Q 834 2675 834 2503 
Q 834 2394 903 2306 
Q 972 2216 1119 2156 
Q 1203 2125 1616 2013 
Q 2213 1853 2448 1751 
Q 2684 1650 2818 1456 
Q 2953 1263 2953 975 
Q 2953 694 2789 445 
Q 2625 197 2315 61 
Q 2006 -75 1616 -75 
Q 969 -75 630 194 
Q 291 463 197 991 
z
" transform="scale(0.015625)"/>
       <path id="ArialMT-74" d="M 1650 503 
L 1731 6 
Q 1494 -44 1306 -44 
Q 1000 -44 831 53 
Q 663 150 594 308 
Q 525 466 525 972 
L 525 2881 
L 113 2881 
L 113 3319 
L 525 3319 
L 525 4141 
L 1084 4478 
L 1084 3319 
L 1650 3319 
L 1650 2881 
L 1084 2881 
L 1084 941 
Q 1084 700 1114 631 
Q 1144 563 1211 522 
Q 1278 481 1403 481 
Q 1497 481 1650 503 
z
" transform="scale(0.015625)"/>
       <path id="ArialMT-65" d="M 2694 1069 
L 3275 997 
Q 3138 488 2766 206 
Q 2394 -75 1816 -75 
Q 1088 -75 661 373 
Q 234 822 234 1631 
Q 234 2469 665 2931 
Q 1097 3394 1784 3394 
Q 2450 3394 2872 2941 
Q 3294 2488 3294 1666 
Q 3294 1616 3291 1516 
L 816 1516 
Q 847 969 1125 678 
Q 1403 388 1819 388 
Q 2128 388 2347 550 
Q 2566 713 2694 1069 
z
M 847 1978 
L 2700 1978 
Q 2663 2397 2488 2606 
Q 2219 2931 1791 2931 
Q 1403 2931 1139 2672 
Q 875 2413 847 1978 
z
" transform="scale(0.015625)"/>
       <path id="ArialMT-70" d="M 422 -1272 
L 422 3319 
L 934 3319 
L 934 2888 
Q 1116 3141 1344 3267 
Q 1572 3394 1897 3394 
Q 2322 3394 2647 3175 
Q 2972 2956 3137 2557 
Q 3303 2159 3303 1684 
Q 3303 1175 3120 767 
Q 2938 359 2589 142 
Q 2241 -75 1856 -75 
Q 1575 -75 1351 44 
Q 1128 163 984 344 
L 984 -1272 
L 422 -1272 
z
M 931 1641 
Q 931 1000 1190 694 
Q 1450 388 1819 388 
Q 2194 388 2461 705 
Q 2728 1022 2728 1688 
Q 2728 2322 2467 2637 
Q 2206 2953 1844 2953 
Q 1484 2953 1207 2617 
Q 931 2281 931 1641 
z
" transform="scale(0.015625)"/>
       <path id="ArialMT-29" d="M 791 -1347 
L 388 -1347 
Q 1322 153 1322 1656 
Q 1322 2244 1188 2822 
Q 1081 3291 891 3722 
Q 769 4003 388 4659 
L 791 4659 
Q 1378 3875 1659 3084 
Q 1900 2403 1900 1659 
Q 1900 816 1576 28 
Q 1253 -759 791 -1347 
z
" transform="scale(0.015625)"/>
      </defs>
      <use xlink:href="#DejaVuSans-Oblique-6d" transform="translate(0 0.203125)"/>
      <use xlink:href="#ArialMT-20" transform="translate(97.412109 0.203125)"/>
      <use xlink:href="#ArialMT-28" transform="translate(125.195312 0.203125)"/>
      <use xlink:href="#ArialMT-73" transform="translate(158.496094 0.203125)"/>
      <use xlink:href="#ArialMT-74" transform="translate(208.496094 0.203125)"/>
      <use xlink:href="#ArialMT-65" transform="translate(236.279297 0.203125)"/>
      <use xlink:href="#ArialMT-70" transform="translate(291.894531 0.203125)"/>
      <use xlink:href="#ArialMT-73" transform="translate(347.509766 0.203125)"/>
      <use xlink:href="#ArialMT-29" transform="translate(397.509766 0.203125)"/>
     </g>
    </g>
   </g>
   <g id="matplotlib.axis_2">
    <g id="ytick_1">
     <g id="line2d_7">
      <defs>
       <path id="mc347e1f32b" d="M 0 0 
L -4.8 0 
" style="stroke: #262626"/>
      </defs>
      <g>
       <use xlink:href="#mc347e1f32b" x="41.524" y="261.328645" style="fill: #262626; stroke: #262626"/>
      </g>
     </g>
     <g id="text_8">
      <!-- 0.0 -->
      <g style="fill: #262626" transform="translate(20.992 264.478082) scale(0.088 -0.088)">
       <defs>
        <path id="ArialMT-2e" d="M 581 0 
L 581 641 
L 1222 641 
L 1222 0 
L 581 0 
z
" transform="scale(0.015625)"/>
       </defs>
       <use xlink:href="#ArialMT-30"/>
       <use xlink:href="#ArialMT-2e" x="55.615234"/>
       <use xlink:href="#ArialMT-30" x="83.398438"/>
      </g>
     </g>
    </g>
    <g id="ytick_2">
     <g id="line2d_8">
      <g>
       <use xlink:href="#mc347e1f32b" x="41.524" y="231.616651" style="fill: #262626; stroke: #262626"/>
      </g>
     </g>
     <g id="text_9">
      <!-- 0.1 -->
      <g style="fill: #262626" transform="translate(20.992 234.766089) scale(0.088 -0.088)">
       <use xlink:href="#ArialMT-30"/>
       <use xlink:href="#ArialMT-2e" x="55.615234"/>
       <use xlink:href="#ArialMT-31" x="83.398438"/>
      </g>
     </g>
    </g>
    <g id="ytick_3">
     <g id="line2d_9">
      <g>
       <use xlink:href="#mc347e1f32b" x="41.524" y="201.904658" style="fill: #262626; stroke: #262626"/>
      </g>
     </g>
     <g id="text_10">
      <!-- 0.2 -->
      <g style="fill: #262626" transform="translate(20.992 205.054095) scale(0.088 -0.088)">
       <use xlink:href="#ArialMT-30"/>
       <use xlink:href="#ArialMT-2e" x="55.615234"/>
       <use xlink:href="#ArialMT-32" x="83.398438"/>
      </g>
     </g>
    </g>
    <g id="ytick_4">
     <g id="line2d_10">
      <g>
       <use xlink:href="#mc347e1f32b" x="41.524" y="172.192664" style="fill: #262626; stroke: #262626"/>
      </g>
     </g>
     <g id="text_11">
      <!-- 0.3 -->
      <g style="fill: #262626" transform="translate(20.992 175.342102) scale(0.088 -0.088)">
       <defs>
        <path id="ArialMT-33" d="M 269 1209 
L 831 1284 
Q 928 806 1161 595 
Q 1394 384 1728 384 
Q 2125 384 2398 659 
Q 2672 934 2672 1341 
Q 2672 1728 2419 1979 
Q 2166 2231 1775 2231 
Q 1616 2231 1378 2169 
L 1441 2663 
Q 1497 2656 1531 2656 
Q 1891 2656 2178 2843 
Q 2466 3031 2466 3422 
Q 2466 3731 2256 3934 
Q 2047 4138 1716 4138 
Q 1388 4138 1169 3931 
Q 950 3725 888 3313 
L 325 3413 
Q 428 3978 793 4289 
Q 1159 4600 1703 4600 
Q 2078 4600 2393 4439 
Q 2709 4278 2876 4000 
Q 3044 3722 3044 3409 
Q 3044 3113 2884 2869 
Q 2725 2625 2413 2481 
Q 2819 2388 3044 2092 
Q 3269 1797 3269 1353 
Q 3269 753 2831 336 
Q 2394 -81 1725 -81 
Q 1122 -81 723 278 
Q 325 638 269 1209 
z
" transform="scale(0.015625)"/>
       </defs>
       <use xlink:href="#ArialMT-30"/>
       <use xlink:href="#ArialMT-2e" x="55.615234"/>
       <use xlink:href="#ArialMT-33" x="83.398438"/>
      </g>
     </g>
    </g>
    <g id="ytick_5">
     <g id="line2d_11">
      <g>
       <use xlink:href="#mc347e1f32b" x="41.524" y="142.480671" style="fill: #262626; stroke: #262626"/>
      </g>
     </g>
     <g id="text_12">
      <!-- 0.4 -->
      <g style="fill: #262626" transform="translate(20.992 145.630108) scale(0.088 -0.088)">
       <use xlink:href="#ArialMT-30"/>
       <use xlink:href="#ArialMT-2e" x="55.615234"/>
       <use xlink:href="#ArialMT-34" x="83.398438"/>
      </g>
     </g>
    </g>
    <g id="ytick_6">
     <g id="line2d_12">
      <g>
       <use xlink:href="#mc347e1f32b" x="41.524" y="112.768677" style="fill: #262626; stroke: #262626"/>
      </g>
     </g>
     <g id="text_13">
      <!-- 0.5 -->
      <g style="fill: #262626" transform="translate(20.992 115.918115) scale(0.088 -0.088)">
       <defs>
        <path id="ArialMT-35" d="M 266 1200 
L 856 1250 
Q 922 819 1161 601 
Q 1400 384 1738 384 
Q 2144 384 2425 690 
Q 2706 997 2706 1503 
Q 2706 1984 2436 2262 
Q 2166 2541 1728 2541 
Q 1456 2541 1237 2417 
Q 1019 2294 894 2097 
L 366 2166 
L 809 4519 
L 3088 4519 
L 3088 3981 
L 1259 3981 
L 1013 2750 
Q 1425 3038 1878 3038 
Q 2478 3038 2890 2622 
Q 3303 2206 3303 1553 
Q 3303 931 2941 478 
Q 2500 -78 1738 -78 
Q 1113 -78 717 272 
Q 322 622 266 1200 
z
" transform="scale(0.015625)"/>
       </defs>
       <use xlink:href="#ArialMT-30"/>
       <use xlink:href="#ArialMT-2e" x="55.615234"/>
       <use xlink:href="#ArialMT-35" x="83.398438"/>
      </g>
     </g>
    </g>
    <g id="ytick_7">
     <g id="line2d_13">
      <g>
       <use xlink:href="#mc347e1f32b" x="41.524" y="83.056684" style="fill: #262626; stroke: #262626"/>
      </g>
     </g>
     <g id="text_14">
      <!-- 0.6 -->
      <g style="fill: #262626" transform="translate(20.992 86.206121) scale(0.088 -0.088)">
       <use xlink:href="#ArialMT-30"/>
       <use xlink:href="#ArialMT-2e" x="55.615234"/>
       <use xlink:href="#ArialMT-36" x="83.398438"/>
      </g>
     </g>
    </g>
    <g id="ytick_8">
     <g id="line2d_14">
      <g>
       <use xlink:href="#mc347e1f32b" x="41.524" y="53.34469" style="fill: #262626; stroke: #262626"/>
      </g>
     </g>
     <g id="text_15">
      <!-- 0.7 -->
      <g style="fill: #262626" transform="translate(20.992 56.494128) scale(0.088 -0.088)">
       <defs>
        <path id="ArialMT-37" d="M 303 3981 
L 303 4522 
L 3269 4522 
L 3269 4084 
Q 2831 3619 2401 2847 
Q 1972 2075 1738 1259 
Q 1569 684 1522 0 
L 944 0 
Q 953 541 1156 1306 
Q 1359 2072 1739 2783 
Q 2119 3494 2547 3981 
L 303 3981 
z
" transform="scale(0.015625)"/>
       </defs>
       <use xlink:href="#ArialMT-30"/>
       <use xlink:href="#ArialMT-2e" x="55.615234"/>
       <use xlink:href="#ArialMT-37" x="83.398438"/>
      </g>
     </g>
    </g>
    <g id="ytick_9">
     <g id="line2d_15">
      <g>
       <use xlink:href="#mc347e1f32b" x="41.524" y="23.632697" style="fill: #262626; stroke: #262626"/>
      </g>
     </g>
     <g id="text_16">
      <!-- 0.8 -->
      <g style="fill: #262626" transform="translate(20.992 26.782134) scale(0.088 -0.088)">
       <use xlink:href="#ArialMT-30"/>
       <use xlink:href="#ArialMT-2e" x="55.615234"/>
       <use xlink:href="#ArialMT-38" x="83.398438"/>
      </g>
     </g>
    </g>
    <g id="text_17">
     <!-- $X_{n_b+m k^*}$ -->
     <g style="fill: #262626" transform="translate(14.208 159.168) rotate(-90) scale(0.096 -0.096)">
      <defs>
       <path id="DejaVuSans-Oblique-58" d="M 878 4666 
L 1516 4666 
L 2316 2981 
L 3763 4666 
L 4500 4666 
L 2578 2438 
L 3738 0 
L 3103 0 
L 2163 1966 
L 459 0 
L -275 0 
L 1906 2509 
L 878 4666 
z
" transform="scale(0.015625)"/>
       <path id="DejaVuSans-Oblique-6e" d="M 3566 2113 
L 3156 0 
L 2578 0 
L 2988 2091 
Q 3016 2238 3031 2350 
Q 3047 2463 3047 2528 
Q 3047 2791 2881 2937 
Q 2716 3084 2419 3084 
Q 1956 3084 1622 2776 
Q 1288 2469 1184 1941 
L 800 0 
L 225 0 
L 903 3500 
L 1478 3500 
L 1363 2950 
Q 1603 3253 1940 3418 
Q 2278 3584 2650 3584 
Q 3113 3584 3367 3334 
Q 3622 3084 3622 2631 
Q 3622 2519 3608 2391 
Q 3594 2263 3566 2113 
z
" transform="scale(0.015625)"/>
       <path id="DejaVuSans-Oblique-62" d="M 3169 2138 
Q 3169 2591 2961 2847 
Q 2753 3103 2388 3103 
Q 2122 3103 1889 2973 
Q 1656 2844 1484 2597 
Q 1303 2338 1198 1995 
Q 1094 1653 1094 1313 
Q 1094 881 1298 636 
Q 1503 391 1863 391 
Q 2134 391 2365 517 
Q 2597 644 2772 891 
Q 2950 1147 3059 1487 
Q 3169 1828 3169 2138 
z
M 1381 2969 
Q 1594 3256 1914 3420 
Q 2234 3584 2584 3584 
Q 3122 3584 3439 3221 
Q 3756 2859 3756 2241 
Q 3756 1734 3570 1259 
Q 3384 784 3041 416 
Q 2816 172 2522 40 
Q 2228 -91 1906 -91 
Q 1566 -91 1316 65 
Q 1066 222 909 531 
L 806 0 
L 231 0 
L 1178 4863 
L 1753 4863 
L 1381 2969 
z
" transform="scale(0.015625)"/>
       <path id="DejaVuSans-2b" d="M 2944 4013 
L 2944 2272 
L 4684 2272 
L 4684 1741 
L 2944 1741 
L 2944 0 
L 2419 0 
L 2419 1741 
L 678 1741 
L 678 2272 
L 2419 2272 
L 2419 4013 
L 2944 4013 
z
" transform="scale(0.015625)"/>
       <path id="DejaVuSans-Oblique-6b" d="M 1172 4863 
L 1747 4863 
L 1197 2028 
L 3169 3500 
L 3916 3500 
L 1716 1825 
L 3322 0 
L 2625 0 
L 1131 1709 
L 800 0 
L 225 0 
L 1172 4863 
z
" transform="scale(0.015625)"/>
       <path id="DejaVuSans-2a" d="M 3009 3897 
L 1888 3291 
L 3009 2681 
L 2828 2375 
L 1778 3009 
L 1778 1831 
L 1422 1831 
L 1422 3009 
L 372 2375 
L 191 2681 
L 1313 3291 
L 191 3897 
L 372 4206 
L 1422 3572 
L 1422 4750 
L 1778 4750 
L 1778 3572 
L 2828 4206 
L 3009 3897 
z
" transform="scale(0.015625)"/>
      </defs>
      <use xlink:href="#DejaVuSans-Oblique-58" transform="translate(0 0.09375)"/>
      <use xlink:href="#DejaVuSans-Oblique-6e" transform="translate(68.505859 -16.3125) scale(0.7)"/>
      <use xlink:href="#DejaVuSans-Oblique-62" transform="translate(112.871094 -27.796875) scale(0.49)"/>
      <use xlink:href="#DejaVuSans-2b" transform="translate(159.526367 -16.3125) scale(0.7)"/>
      <use xlink:href="#DejaVuSans-Oblique-6d" transform="translate(231.816406 -16.3125) scale(0.7)"/>
      <use xlink:href="#DejaVuSans-Oblique-6b" transform="translate(300.004883 -16.3125) scale(0.7)"/>
      <use xlink:href="#DejaVuSans-2a" transform="translate(355.301775 10.484375) scale(0.49)"/>
     </g>
    </g>
   </g>
   <g id="line2d_16">
    <path d="M 57.756727 215.209274 
L 57.856111 215.209274 
L 57.988623 132.992534 
L 58.121135 208.368338 
L 58.187391 208.368338 
L 58.319904 199.217008 
L 59.313744 199.217008 
L 59.446256 189.145907 
L 59.479384 189.145907 
L 59.611896 115.306936 
L 59.678152 115.306936 
L 59.810664 208.416634 
L 59.843792 120.408539 
L 59.910048 204.234017 
L 60.307584 204.234017 
L 60.440096 231.90681 
L 61.500193 231.90681 
L 61.533321 247.023325 
L 61.566449 215.496951 
L 61.665833 215.496951 
L 61.698961 256.56709 
L 61.732089 235.099502 
L 61.765217 139.054092 
L 61.798345 237.94287 
L 61.831473 237.94287 
L 62.295265 237.94287 
L 62.427777 238.077645 
L 62.527161 238.077645 
L 62.659673 181.257514 
L 62.759058 181.257514 
L 62.89157 188.687578 
L 63.255978 188.687578 
L 63.38849 255.180453 
L 63.487874 255.180453 
L 63.620386 253.044466 
L 64.448586 253.044466 
L 64.581098 256.475453 
L 64.945506 256.475453 
L 65.078019 256.637372 
L 65.442427 256.637372 
L 65.574939 199.941077 
L 65.674323 199.941077 
L 65.740579 227.904241 
L 65.806835 222.36184 
L 66.403139 222.36184 
L 66.535651 231.225701 
L 66.635035 231.225701 
L 66.767547 234.081601 
L 66.800675 234.081601 
L 66.866931 199.752043 
L 66.900059 242.374039 
L 67.297596 242.374039 
L 67.430108 258.433152 
L 69.38466 258.433152 
L 69.517173 251.20289 
L 70.345373 251.20289 
L 70.477885 218.518154 
L 70.577269 218.518154 
L 70.709781 244.723555 
L 70.941677 244.723555 
L 71.074189 221.005959 
L 71.537981 221.005959 
L 71.670494 250.46977 
L 72.929358 250.46977 
L 73.06187 248.296051 
L 73.22751 248.296051 
L 73.360022 255.498103 
L 73.55879 255.498103 
L 73.691302 242.730689 
L 73.72443 242.730689 
L 73.856942 233.935005 
L 74.088839 233.935005 
L 74.221351 238.678813 
L 74.751399 238.678813 
L 74.883911 248.506273 
L 77.335384 248.506273 
L 77.467896 251.08441 
L 77.633536 251.08441 
L 77.766048 237.78605 
L 77.997944 237.78605 
L 78.130456 228.638236 
L 78.163584 228.638236 
L 78.296096 254.14408 
L 79.190553 254.14408 
L 79.356193 231.443996 
L 79.687473 231.443996 
L 79.819985 241.068943 
L 81.509514 241.068943 
L 81.642026 241.833412 
L 81.774538 241.833412 
L 81.90705 247.115005 
L 82.801506 247.115005 
L 82.934019 249.914858 
L 83.364683 249.914858 
L 83.430939 247.95265 
L 83.497195 209.761873 
L 83.530323 228.075091 
L 83.894731 228.075091 
L 84.027243 236.525436 
L 84.259139 236.525436 
L 84.391651 242.214099 
L 84.789187 242.214099 
L 84.921699 243.345393 
L 85.7499 243.345393 
L 85.882412 230.29494 
L 85.981796 230.29494 
L 86.114308 253.608136 
L 86.313076 253.608136 
L 86.41246 217.806956 
L 86.511844 256.873394 
L 86.644356 221.385687 
L 87.041892 221.385687 
L 87.174404 127.47508 
L 87.24066 127.47508 
L 87.373173 194.291067 
L 87.571941 194.291067 
L 87.704453 257.568536 
L 87.836965 248.453512 
L 87.903221 248.453512 
L 88.035733 231.202041 
L 88.300757 231.202041 
L 88.433269 221.735291 
L 88.499525 221.735291 
L 88.632037 261.117362 
L 90.619718 261.117362 
L 90.75223 246.12068 
L 90.984126 246.12068 
L 91.017254 158.282292 
L 91.08351 230.928071 
L 91.282278 230.928071 
L 91.381662 220.760989 
L 91.514174 233.204157 
L 92.276119 233.204157 
L 92.309247 201.998237 
L 92.375503 223.018768 
L 92.408631 223.018768 
L 92.541143 240.056674 
L 93.104319 240.056674 
L 93.236831 253.887376 
L 93.601239 253.887376 
L 93.733751 202.683564 
L 94.09816 202.683564 
L 94.230672 248.623523 
L 94.363184 248.623523 
L 94.495696 237.7118 
L 95.290768 237.7118 
L 95.42328 249.896525 
L 95.986456 249.896525 
L 96.118968 209.733719 
L 96.814657 209.733719 
L 96.947169 228.750381 
L 97.941009 228.750381 
L 98.073521 250.959049 
L 100.028074 250.959049 
L 100.160586 232.371335 
L 100.491866 232.371335 
L 100.624378 236.25902 
L 100.657506 236.25902 
L 100.790019 123.757239 
L 100.889403 123.757239 
L 101.021915 241.363623 
L 101.320067 241.363623 
L 101.452579 258.027082 
L 101.717603 258.027082 
L 101.850115 218.89359 
L 102.048883 218.89359 
L 102.181395 250.697012 
L 102.280779 250.697012 
L 102.413291 225.052012 
L 102.512675 225.052012 
L 102.612059 245.475259 
L 102.744571 166.864517 
L 102.777699 166.864517 
L 102.910212 258.790389 
L 105.129788 258.790389 
L 105.229173 257.71004 
L 105.361685 247.526341 
L 105.427941 247.526341 
L 105.560453 177.856395 
L 106.753061 177.856395 
L 106.885573 164.197754 
L 107.382494 164.197754 
L 107.515006 205.930238 
L 107.713774 246.429581 
L 108.376334 246.429581 
L 108.44259 235.640979 
L 108.575102 155.176884 
L 108.740742 155.176884 
L 108.873254 232.03688 
L 109.370174 232.03688 
L 109.502686 229.196756 
L 109.701455 229.196756 
L 109.833967 245.630215 
L 111.457239 245.630215 
L 111.589751 237.188102 
L 111.689135 237.188102 
L 111.722263 201.709505 
L 111.788519 221.031279 
L 112.053544 221.031279 
L 112.186056 212.561515 
L 112.318568 224.74057 
L 112.649848 224.74057 
L 112.78236 226.641723 
L 113.014256 226.641723 
L 113.080512 224.892335 
L 113.11364 169.596014 
L 113.146768 232.871636 
L 113.179896 232.871636 
L 113.44492 232.871636 
L 113.577432 244.371213 
L 115.465729 244.371213 
L 115.598241 163.211786 
L 115.664497 163.211786 
L 115.763881 157.696009 
L 115.896393 194.979731 
L 116.062033 194.979731 
L 116.095161 259.144777 
L 116.161417 205.333209 
L 116.45957 205.333209 
L 116.62521 257.095143 
L 117.486538 257.095143 
L 117.519666 231.782804 
L 117.61905 236.219919 
L 118.28161 236.219919 
L 118.347866 248.356332 
L 118.380994 237.38988 
L 119.142939 237.38988 
L 119.275451 246.624615 
L 119.341707 246.624615 
L 119.441091 243.31588 
L 119.573603 251.560707 
L 120.037395 251.560707 
L 120.169907 204.509124 
L 120.468059 204.509124 
L 120.534315 205.780261 
L 120.633699 260.03104 
L 120.766212 163.160866 
L 121.329388 163.160866 
L 121.561284 208.356401 
L 121.660668 208.356401 
L 121.79318 217.16044 
L 123.018917 217.16044 
L 123.217685 179.526578 
L 123.416453 179.526578 
L 123.548965 202.560632 
L 123.615221 202.560632 
L 123.747733 220.813186 
L 123.913373 220.813186 
L 123.946501 229.561958 
L 123.979629 219.00737 
L 124.012757 219.00737 
L 124.675317 219.00737 
L 124.807829 248.898917 
L 125.205365 248.898917 
L 125.238494 215.832497 
L 125.271622 250.40341 
L 125.30475 250.40341 
L 125.371006 250.40341 
L 125.404134 200.523477 
L 125.437262 259.652017 
L 125.47039 259.652017 
L 128.650679 259.652017 
L 128.783191 239.44351 
L 128.981959 239.44351 
L 129.114471 259.387903 
L 129.478879 259.387903 
L 129.611391 242.279765 
L 130.63836 242.279765 
L 130.770872 216.651764 
L 131.234664 216.651764 
L 131.367176 246.108915 
L 132.129121 246.108915 
L 132.261633 177.351599 
L 132.427273 177.351599 
L 132.559785 158.308817 
L 132.725425 158.308817 
L 132.857937 251.229256 
L 132.924193 245.277544 
L 134.348698 245.277544 
L 134.48121 222.122768 
L 134.679978 222.122768 
L 134.81249 238.690629 
L 135.044386 238.690629 
L 135.176898 259.218862 
L 136.005098 259.218862 
L 136.13761 250.516475 
L 136.833299 250.516475 
L 136.965811 252.936543 
L 137.197707 252.936543 
L 137.330219 241.392205 
L 137.727755 241.392205 
L 137.760883 261.216 
L 137.794011 133.499444 
L 137.860267 216.245802 
L 138.158419 216.162553 
L 138.290931 227.097008 
L 138.721596 227.097008 
L 138.854108 156.510368 
L 138.887236 156.510368 
L 139.019748 178.771985 
L 139.086004 178.771985 
L 139.218516 234.814052 
L 140.278612 234.814052 
L 140.411124 218.569524 
L 140.841788 218.569524 
L 140.974301 218.339775 
L 141.935013 218.339775 
L 142.067525 243.966758 
L 142.928853 243.966758 
L 143.028237 249.509819 
L 143.16075 238.360027 
L 143.227006 238.360027 
L 143.32639 254.040048 
L 143.392646 226.590282 
L 143.425774 240.367516 
L 143.856438 240.367516 
L 143.98895 244.380072 
L 144.187718 244.380072 
L 144.32023 237.619268 
L 144.618382 237.619268 
L 144.750894 211.426754 
L 144.784022 211.426754 
L 144.916534 204.612354 
L 145.082174 204.612354 
L 145.214686 201.662201 
L 145.413455 201.662201 
L 145.612223 254.964155 
L 145.645351 246.357396 
L 146.374167 246.357396 
L 146.506679 253.242107 
L 147.533647 253.242107 
L 147.566776 251.491973 
L 147.633032 253.189967 
L 148.82564 253.189967 
L 148.958152 246.039906 
L 149.32256 246.039906 
L 149.455072 260.401997 
L 150.183889 260.401997 
L 150.316401 259.757265 
L 152.933514 259.757265 
L 153.066026 244.729215 
L 153.132282 244.729215 
L 153.264794 257.355644 
L 153.297922 257.355644 
L 153.430434 161.638126 
L 153.695458 161.638126 
L 153.82797 175.648621 
L 154.126122 175.648621 
L 154.192378 245.395169 
L 154.258635 236.31245 
L 154.391147 236.31245 
L 154.523659 258.239599 
L 155.815651 258.239599 
L 155.948163 182.350838 
L 156.047547 182.350838 
L 156.213187 226.397298 
L 156.743236 226.397298 
L 156.875748 254.212486 
L 157.637692 254.212486 
L 157.770204 210.263017 
L 158.035228 210.263017 
L 158.101484 146.737836 
L 158.134612 206.487905 
L 158.200868 206.487905 
L 158.33338 213.058004 
L 158.565276 213.058004 
L 158.598404 186.298436 
L 158.730917 258.970122 
L 158.929685 258.970122 
L 159.062197 258.005487 
L 159.194709 258.005487 
L 159.327221 232.209642 
L 159.592245 232.209642 
L 159.724757 260.013156 
L 159.757885 260.013156 
L 159.890397 260.520935 
L 160.221677 260.520935 
L 160.354189 261.087385 
L 161.414286 261.087385 
L 161.712438 195.779212 
L 161.84495 257.619912 
L 164.130783 257.619912 
L 164.263295 257.416582 
L 164.627703 257.416582 
L 164.760215 259.607102 
L 164.925855 259.607102 
L 165.058367 202.895078 
L 165.091495 202.895078 
L 165.224007 250.208501 
L 165.323391 250.208501 
L 165.455904 215.558607 
L 165.621544 215.558607 
L 165.85344 131.143423 
L 165.886568 131.143423 
L 166.01908 256.748962 
L 166.151592 256.748962 
L 166.284104 229.471196 
L 166.416616 229.471196 
L 166.549128 215.862354 
L 166.880408 215.862354 
L 167.01292 228.974228 
L 167.046048 228.974228 
L 167.17856 188.117323 
L 167.244816 188.117323 
L 167.277944 114.742329 
L 167.311072 246.201141 
L 167.576096 246.201141 
L 167.675481 261.135477 
L 167.708609 259.013993 
L 168.404297 259.013993 
L 168.536809 257.925302 
L 168.834961 257.925302 
L 168.967473 128.980642 
L 169.133113 128.980642 
L 169.166241 53.414109 
L 169.199369 220.934813 
L 169.298753 222.949159 
L 169.431265 237.600075 
L 169.861929 237.600075 
L 169.994442 217.655568 
L 170.060698 217.655568 
L 170.19321 256.242206 
L 170.458234 256.242206 
L 170.590746 237.378019 
L 171.220178 237.378019 
L 171.35269 158.093051 
L 171.51833 158.093051 
L 171.617714 227.188076 
L 171.717098 196.79091 
L 171.84961 212.894133 
L 171.982122 203.97364 
L 172.445915 203.97364 
L 172.578427 193.716594 
L 172.710939 257.247992 
L 172.777195 257.247992 
L 172.909707 239.012383 
L 173.240987 239.012383 
L 173.373499 196.125936 
L 173.406627 196.125936 
L 173.539139 193.702321 
L 173.704779 215.271762 
L 173.837291 215.271762 
L 173.969803 232.464059 
L 174.036059 232.464059 
L 174.069187 238.489068 
L 174.201699 156.441834 
L 174.499852 156.441834 
L 174.632364 245.195517 
L 174.69862 245.195517 
L 174.831132 251.275481 
L 174.996772 251.275481 
L 175.129284 255.254509 
L 175.328052 255.254509 
L 175.460564 246.053265 
L 176.851941 246.053265 
L 176.984453 251.323858 
L 177.116965 246.332087 
L 179.137774 246.332087 
L 179.20403 191.816239 
L 179.237158 219.3009 
L 179.70095 219.3009 
L 179.833462 206.304181 
L 181.854271 206.304181 
L 181.986783 251.603651 
L 182.053039 251.603651 
L 182.218679 138.737922 
L 182.351191 227.720215 
L 182.483703 227.720215 
L 182.616215 257.783572 
L 183.046879 257.783572 
L 183.179391 256.94853 
L 183.5438 256.94853 
L 183.70944 197.893924 
L 183.841952 218.73809 
L 184.007592 218.73809 
L 184.140104 224.001687 
L 184.173232 224.001687 
L 184.305744 204.999959 
L 184.637024 204.999959 
L 184.769536 233.972082 
L 185.895889 233.972082 
L 186.028401 184.869003 
L 186.359681 184.869003 
L 186.492193 209.808737 
L 187.055369 209.808737 
L 187.187881 215.896216 
L 187.651673 215.896216 
L 187.784186 240.666935 
L 189.440586 240.666935 
L 189.573098 139.378141 
L 190.003763 139.378141 
L 190.070019 165.936662 
L 190.202531 98.150453 
L 190.533811 98.150453 
L 190.666323 107.384299 
L 190.865091 107.384299 
L 190.997603 43.042369 
L 191.130115 185.726257 
L 191.163243 185.726257 
L 191.295755 197.154659 
L 191.494523 197.154659 
L 191.627035 238.467545 
L 191.991443 238.467545 
L 192.123955 245.99757 
L 193.084668 245.99757 
L 193.21718 183.56063 
L 193.283436 183.56063 
L 193.415948 222.006983 
L 193.449076 222.006983 
L 193.581588 244.326365 
L 193.87974 244.326365 
L 193.945996 232.808338 
L 194.078508 258.035682 
L 195.271117 258.035682 
L 195.403629 200.501906 
L 195.536141 200.501906 
L 195.668653 154.893156 
L 195.801165 196.883224 
L 195.933677 196.883224 
L 195.966805 160.617223 
L 196.099317 250.712779 
L 198.418278 250.712779 
L 198.55079 236.023409 
L 199.147095 236.023409 
L 199.180223 131.477352 
L 199.246479 198.048446 
L 199.378991 198.048446 
L 199.511503 218.616201 
L 199.577759 218.616201 
L 199.710271 185.941918 
L 199.975295 185.941918 
L 200.041551 187.292261 
L 200.207191 259.44399 
L 201.134776 259.44399 
L 201.267288 235.572682 
L 201.300416 235.572682 
L 201.432928 245.639168 
L 201.631696 245.639168 
L 201.764208 234.09315 
L 201.830464 234.09315 
L 201.929848 214.454325 
L 202.06236 235.434094 
L 202.691792 235.434094 
L 202.72492 101.155312 
L 202.758048 251.888088 
L 202.791176 251.888088 
L 205.242649 251.888088 
L 205.308905 198.682744 
L 205.375161 202.698176 
L 205.540801 202.698176 
L 205.673314 219.489326 
L 205.872082 219.489326 
L 206.004594 247.640849 
L 206.832794 247.640849 
L 206.965306 238.394563 
L 207.06469 238.394563 
L 207.197202 248.66538 
L 208.853603 248.66538 
L 208.986115 255.15392 
L 209.052371 255.15392 
L 209.184883 258.900565 
L 209.516163 258.900565 
L 209.648675 259.31786 
L 209.781187 251.016574 
L 211.040052 251.016574 
L 211.172564 210.636765 
L 211.40446 210.636765 
L 211.536972 230.023967 
L 211.669484 208.251805 
L 212.265788 208.251805 
L 212.398301 233.057498 
L 212.630197 233.057498 
L 212.762709 231.27312 
L 213.060861 231.27312 
L 213.193373 243.721167 
L 213.325885 190.425612 
L 213.359013 190.425612 
L 213.491525 82.96026 
L 213.524653 82.96026 
L 213.557781 88.876515 
L 213.690293 53.721933 
L 213.789677 53.721933 
L 213.922189 128.201931 
L 214.187213 128.201931 
L 214.319725 126.518693 
L 214.352853 98.680543 
L 214.419109 109.504174 
L 214.551622 125.663614 
L 214.58475 125.663614 
L 214.717262 192.89337 
L 214.882902 192.89337 
L 214.949158 196.851768 
L 215.08167 183.852094 
L 215.214182 213.813222 
L 215.24731 213.813222 
L 215.379822 256.5706 
L 216.307406 256.5706 
L 216.340534 230.817245 
L 216.439918 233.330057 
L 216.539302 233.330057 
L 216.671814 235.163272 
L 216.903711 235.163272 
L 217.036223 219.759276 
L 217.102479 219.759276 
L 217.268119 243.633759 
L 217.400631 243.633759 
L 217.632527 114.310032 
L 217.698783 213.518693 
L 217.731911 170.98634 
L 218.030063 170.98634 
L 218.162575 177.659346 
L 218.361343 177.659346 
L 218.493855 248.656465 
L 219.023904 248.656465 
L 219.189544 173.556771 
L 219.520824 173.556771 
L 219.653336 232.857758 
L 219.852104 232.857758 
L 219.984616 254.963886 
L 220.315896 254.963886 
L 220.448408 259.873852 
L 220.845944 259.873852 
L 221.011584 218.992241 
L 221.07784 218.992241 
L 221.210353 205.815227 
L 221.309737 205.815227 
L 221.442249 224.403271 
L 221.574761 224.403271 
L 221.707273 257.568272 
L 223.264289 257.568272 
L 223.396801 78.115745 
L 223.529314 78.115745 
L 223.661826 207.905897 
L 223.76121 207.905897 
L 223.893722 210.116916 
L 223.92685 210.116916 
L 224.059362 204.162778 
L 224.291258 204.162778 
L 224.42377 216.270285 
L 224.490026 216.270285 
L 224.58941 215.745353 
L 224.721922 258.300542 
L 225.218842 258.300542 
L 225.351354 222.202947 
L 225.682635 222.202947 
L 225.815147 215.550224 
L 226.378323 215.550224 
L 226.510835 185.729718 
L 226.643347 188.979395 
L 226.775859 188.979395 
L 226.908371 184.41539 
L 226.974627 184.41539 
L 227.107139 124.270995 
L 227.140267 121.55031 
L 227.239651 229.114135 
L 227.272779 209.307891 
L 227.471547 209.307891 
L 227.504675 193.494837 
L 227.637187 243.564721 
L 228.067852 243.564721 
L 228.200364 251.733558 
L 229.92302 251.733558 
L 230.055532 260.443344 
L 230.320557 260.443344 
L 230.353685 251.115286 
L 230.386813 206.316762 
L 230.453069 228.418451 
L 231.413781 228.418451 
L 231.546293 219.017967 
L 231.579421 219.017967 
L 231.711933 228.317242 
L 231.778189 228.317242 
L 231.910701 166.308337 
L 232.043213 166.308337 
L 232.175725 219.850941 
L 232.838286 219.850941 
L 232.970798 254.607055 
L 233.10331 237.047024 
L 233.76587 237.047024 
L 233.898382 132.512714 
L 234.064022 249.062172 
L 234.726583 249.062172 
L 234.859095 229.907947 
L 236.051703 229.907947 
L 236.184215 203.106655 
L 236.283599 203.106655 
L 236.416111 241.203397 
L 236.482367 241.203397 
L 236.614879 179.036718 
L 236.813647 179.036718 
L 236.979288 254.7466 
L 237.409952 254.7466 
L 237.542464 227.517422 
L 237.575592 227.517422 
L 237.708104 258.449914 
L 237.94 258.449914 
L 238.072512 202.688252 
L 238.138768 202.688252 
L 238.27128 192.881869 
L 238.370664 191.453844 
L 238.503176 103.960456 
L 238.569432 103.960456 
L 238.701944 250.735737 
L 238.834456 227.857719 
L 239.033224 227.857719 
L 239.165737 218.469196 
L 239.198865 218.469196 
L 239.265121 254.658877 
L 239.298249 214.815586 
L 239.563273 214.815586 
L 239.629529 211.343697 
L 239.762041 231.79154 
L 239.927681 231.79154 
L 240.060193 224.220954 
L 241.517826 224.220954 
L 241.650338 191.192911 
L 242.246642 191.192911 
L 242.379154 130.81087 
L 242.743562 130.81087 
L 242.909202 229.592159 
L 243.074842 229.592159 
L 243.207354 242.340032 
L 243.770531 242.340032 
L 243.903043 250.178825 
L 244.035555 215.656828 
L 244.565603 215.656828 
L 244.698115 227.726414 
L 245.062523 227.726414 
L 245.195035 255.230651 
L 246.752052 255.230651 
L 246.884564 224.437442 
L 247.745892 224.437442 
L 247.878404 261.16582 
L 247.977788 261.16582 
L 248.110301 246.18678 
L 248.441581 246.18678 
L 248.474709 230.196189 
L 248.540965 243.289094 
L 249.104141 243.289094 
L 249.236653 258.260343 
L 249.634189 258.260343 
L 249.766701 207.774025 
L 249.965469 207.774025 
L 250.097981 242.813666 
L 250.79367 242.813666 
L 250.926182 242.224542 
L 251.257462 242.224542 
L 251.389974 243.078656 
L 251.489358 243.078656 
L 251.62187 141.817332 
L 251.654998 141.817332 
L 251.78751 213.924207 
L 251.853766 213.924207 
L 251.920022 158.1871 
L 251.95315 205.91922 
L 253.079503 205.91922 
L 253.212015 218.265742 
L 253.344527 203.179863 
L 253.510167 203.179863 
L 253.642679 224.23197 
L 254.305239 224.23197 
L 254.437751 246.43199 
L 254.636519 100.935554 
L 254.669647 100.935554 
L 254.702776 25.95987 
L 254.769032 73.411436 
L 254.901544 143.821256 
L 255.067184 143.821256 
L 255.199696 217.753878 
L 255.829128 217.753878 
L 255.96164 246.686961 
L 256.591072 246.686961 
L 256.723584 230.343968 
L 256.756712 230.343968 
L 256.889224 234.396576 
L 257.618041 234.396576 
L 257.750553 222.740155 
L 257.849937 222.740155 
L 257.982449 217.207696 
L 259.63885 217.207696 
L 259.771362 150.242988 
L 260.102642 150.242988 
L 260.168898 138.392287 
L 260.334538 226.228631 
L 260.533306 226.228631 
L 260.665818 248.985488 
L 262.222835 248.985488 
L 262.355347 260.269472 
L 263.97862 260.269472 
L 264.111132 249.246659 
L 264.3099 249.246659 
L 264.442412 255.373534 
L 264.674308 255.373534 
L 264.80682 253.158148 
L 265.436252 253.158148 
L 265.568764 257.251848 
L 266.198197 257.251848 
L 266.330709 237.177796 
L 266.430093 237.177796 
L 266.562605 210.824197 
L 266.695117 223.274834 
L 267.423933 223.274834 
L 267.490189 96.502786 
L 267.523317 229.10692 
L 267.655829 191.075708 
L 268.616542 191.075708 
L 268.749054 260.572104 
L 270.206686 260.572104 
L 270.339199 246.841184 
L 270.438583 246.841184 
L 270.571095 194.288551 
L 270.836119 194.288551 
L 270.968631 176.953596 
L 271.200527 176.953596 
L 271.333039 150.364206 
L 271.366167 150.364206 
L 271.498679 233.31094 
L 271.763703 233.31094 
L 271.896215 235.062804 
L 273.618872 235.062804 
L 273.751384 252.474554 
L 274.877737 252.474554 
L 275.010249 216.700632 
L 275.076505 216.700632 
L 275.109633 237.190474 
L 275.242145 187.06985 
L 275.507169 187.06985 
L 275.639681 191.285804 
L 275.772193 222.433857 
L 276.136601 222.433857 
L 276.269113 217.817242 
L 276.898545 217.744396 
L 277.031058 246.65655 
L 277.16357 246.65655 
L 277.296082 214.763185 
L 277.594234 214.763185 
L 277.726746 250.445357 
L 278.256794 250.445357 
L 278.389306 219.678987 
L 278.588074 219.678987 
L 278.720586 202.276354 
L 279.051866 202.276354 
L 279.184378 237.553512 
L 279.316891 237.553512 
L 279.449403 239.58176 
L 280.145091 239.58176 
L 280.277603 247.244104 
L 280.509499 247.244104 
L 280.575755 177.895296 
L 280.608883 259.514716 
L 280.907035 259.514716 
L 281.039547 226.683907 
L 281.470212 226.683907 
L 281.602724 230.016736 
L 282.33154 230.016736 
L 282.397796 147.922903 
L 282.430924 225.033347 
L 282.695948 225.033347 
L 282.82846 218.284481 
L 282.927844 218.284481 
L 283.060356 258.102888 
L 284.087325 258.102888 
L 284.219837 243.023646 
L 284.352349 248.169039 
L 284.484861 248.169039 
L 284.517989 240.992838 
L 284.584245 244.0123 
L 286.306902 244.0123 
L 286.439414 254.87565 
L 286.605054 254.87565 
L 286.737566 237.521768 
L 286.903206 237.521768 
L 287.068846 164.325342 
L 287.101974 205.911671 
L 287.234486 41.667379 
L 287.300742 41.667379 
L 287.49951 139.263206 
L 287.598894 139.263206 
L 287.66515 224.949532 
L 287.731406 217.448679 
L 287.930174 217.448679 
L 287.99643 202.842476 
L 288.062686 159.651097 
L 288.095814 176.072474 
L 288.294583 176.072474 
L 288.427095 220.184449 
L 288.493351 220.184449 
L 288.625863 130.561969 
L 288.725247 130.561969 
L 288.857759 248.381699 
L 288.990271 248.381699 
L 289.122783 259.498159 
L 289.619703 259.498159 
L 289.752215 160.075496 
L 290.580416 160.075496 
L 290.712928 233.352484 
L 290.911696 233.352484 
L 291.044208 238.33949 
L 291.474872 238.33949 
L 291.541128 234.647998 
L 291.67364 162.567281 
L 291.83928 162.567281 
L 291.971792 253.399979 
L 292.00492 253.399979 
L 292.137432 229.323128 
L 293.065017 229.323128 
L 293.131273 250.794337 
L 293.263785 192.82335 
L 293.296913 230.262476 
L 293.396297 221.263666 
L 293.661321 221.263666 
L 293.793833 228.7854 
L 294.357009 228.7854 
L 294.489521 228.040419 
L 294.555777 228.040419 
L 294.688289 168.67407 
L 294.953314 168.67407 
L 295.18521 218.952505 
L 295.251466 218.952505 
L 295.383978 257.466365 
L 295.51649 254.96003 
L 295.549618 167.428054 
L 295.615874 230.862316 
L 295.748386 230.862316 
L 295.880898 247.738386 
L 297.040378 247.738386 
L 297.172891 258.551363 
L 297.537299 258.551363 
L 297.636683 164.336625 
L 297.669811 196.473905 
L 297.769195 196.473905 
L 297.901707 247.542135 
L 298.763035 247.542135 
L 298.895547 225.091371 
L 298.994931 225.091371 
L 299.127443 236.786133 
L 299.392468 236.786133 
L 299.52498 236.450326 
L 299.69062 236.450326 
L 299.823132 226.912781 
L 299.955644 243.243512 
L 299.988772 243.243512 
L 300.055028 242.128953 
L 300.18754 188.705033 
L 300.320052 188.705033 
L 300.452564 255.824868 
L 300.51882 255.824868 
L 300.585076 260.930085 
L 300.717588 231.919829 
L 301.214508 231.919829 
L 301.34702 216.462778 
L 301.380148 216.462778 
L 301.51266 209.353941 
L 301.711429 209.353941 
L 301.843941 238.817849 
L 301.910197 238.817849 
L 302.042709 228.093727 
L 302.241477 228.093727 
L 302.373989 244.782255 
L 302.605885 244.782255 
L 302.738397 258.180142 
L 304.229158 258.180142 
L 304.36167 184.683803 
L 304.626694 184.683803 
L 304.69295 210.818008 
L 304.825462 133.081701 
L 305.02423 133.081701 
L 305.123614 183.975465 
L 305.156742 167.990519 
L 305.256126 167.990519 
L 305.388638 257.160482 
L 306.481863 257.160482 
L 306.680631 112.744917 
L 306.780015 112.744917 
L 306.912527 184.07572 
L 307.442575 184.07572 
L 307.575087 256.620894 
L 307.707599 247.32677 
L 309.03272 247.32677 
L 309.165232 164.623632 
L 309.231488 164.623632 
L 309.364 188.920952 
L 309.463384 188.920952 
L 309.52964 165.352242 
L 309.662152 251.186488 
L 310.1922 251.186488 
L 310.324712 209.399942 
L 311.219169 209.399942 
L 311.351681 243.96504 
L 311.716089 243.96504 
L 311.848601 217.852519 
L 312.246137 217.852519 
L 312.378649 134.11166 
L 312.511161 180.230412 
L 312.709929 180.230412 
L 312.842442 230.118332 
L 312.941826 230.118332 
L 313.074338 251.074802 
L 314.929506 251.074802 
L 315.062019 223.023027 
L 315.194531 252.793321 
L 315.459555 252.793321 
L 315.592067 235.971709 
L 315.857091 235.971709 
L 315.989603 234.810719 
L 316.088987 234.810719 
L 316.221499 257.690548 
L 316.685291 257.690548 
L 316.817803 257.06168 
L 317.414108 257.06168 
L 317.54662 256.603631 
L 319.236148 256.603631 
L 319.36866 257.657693 
L 319.733069 257.657693 
L 319.865581 247.910173 
L 321.290085 247.910173 
L 321.422597 174.899682 
L 321.687622 174.899682 
L 321.820134 251.209056 
L 322.681462 251.209056 
L 322.813974 224.858847 
L 323.244638 224.858847 
L 323.37715 237.446677 
L 323.774686 237.446677 
L 323.907199 232.678571 
L 324.238479 232.678571 
L 324.370991 251.11501 
L 325.861751 251.11501 
L 325.994263 246.260875 
L 327.087488 246.260875 
L 327.22 213.080458 
L 327.38564 213.080458 
L 327.418768 208.453701 
L 327.451896 178.486762 
L 327.485024 232.242774 
L 327.849432 232.242774 
L 327.981944 249.279596 
L 328.611377 249.279596 
L 328.743889 259.611901 
L 329.605217 259.611901 
L 329.737729 229.764856 
L 330.433417 229.764856 
L 330.565929 242.547056 
L 331.129106 242.547056 
L 331.261618 220.589004 
L 331.526642 220.589004 
L 331.659154 255.628051 
L 332.089818 255.628051 
L 332.288586 228.133894 
L 332.421098 259.000859 
L 332.520482 259.000859 
L 332.652994 222.459501 
L 333.050531 222.459501 
L 333.183043 256.781867 
L 334.342523 256.781867 
L 334.475035 233.708221 
L 335.303236 233.708221 
L 335.435748 257.993596 
L 335.502004 257.993596 
L 335.634516 256.821957 
L 337.092148 256.821957 
L 337.125276 236.336407 
L 337.191532 249.306454 
L 337.522813 249.306454 
L 337.655325 220.409549 
L 338.251629 220.409549 
L 338.384141 220.592605 
L 338.715421 220.592605 
L 338.914189 155.417109 
L 338.947317 155.417109 
L 339.079829 153.846379 
L 339.212341 243.978895 
L 339.344853 243.978895 
L 339.477365 214.350284 
L 340.07367 214.350284 
L 340.106798 215.090757 
L 340.206182 239.976574 
L 340.338694 202.872831 
L 340.371822 202.872831 
L 340.504334 209.49797 
L 340.703102 209.49797 
L 340.802486 232.885011 
L 340.934998 202.750315 
L 341.034382 213.669265 
L 341.166894 121.370598 
L 341.23315 121.370598 
L 341.39879 253.024759 
L 341.56443 253.024759 
L 341.696942 244.198776 
L 341.961967 244.198776 
L 342.061351 241.401184 
L 342.193863 256.954123 
L 342.856423 256.954123 
L 342.988935 253.724839 
L 343.055191 253.724839 
L 343.187703 244.535205 
L 343.353343 244.535205 
L 343.419599 241.439371 
L 343.552111 251.572279 
L 344.314056 251.572279 
L 344.446568 241.870125 
L 346.633017 241.870125 
L 346.765529 260.432157 
L 347.958137 260.432157 
L 348.090649 236.248831 
L 348.554442 236.248831 
L 348.686954 201.37726 
L 349.051362 201.37726 
L 349.183874 188.902504 
L 349.316386 188.902504 
L 349.448898 254.191018 
L 350.343354 254.191018 
L 350.475866 247.756011 
L 350.873403 247.756011 
L 351.005915 221.969338 
L 351.138427 229.50197 
L 351.270939 187.078338 
L 351.304067 187.078338 
L 351.436579 233.574798 
L 351.734731 233.574798 
L 351.867243 237.716268 
L 352.099139 237.716268 
L 352.231651 234.006013 
L 353.192364 234.006013 
L 353.324876 217.486912 
L 353.523644 217.486912 
L 353.656156 220.779708 
L 354.053692 220.779708 
L 354.186204 232.194934 
L 354.318716 219.349944 
L 354.716252 219.349944 
L 354.848764 254.583084 
L 355.478197 254.583084 
L 355.610709 251.293646 
L 356.339525 251.293646 
L 356.472037 210.550114 
L 356.505165 210.550114 
L 356.571421 260.932495 
L 356.604549 233.892186 
L 356.869573 233.892186 
L 357.002085 227.231704 
L 357.200853 227.231704 
L 357.333365 178.176409 
L 357.697774 178.176409 
L 357.76403 215.470093 
L 357.830286 206.848779 
L 357.863414 206.848779 
L 357.995926 220.029423 
L 358.029054 220.029423 
L 358.161566 215.995683 
L 358.294078 218.203374 
L 358.525974 218.203374 
L 358.658486 249.052347 
L 358.989766 249.052347 
L 359.188534 207.279372 
L 359.321046 260.882212 
L 360.149247 260.882212 
L 360.281759 222.223756 
L 360.878063 222.223756 
L 361.010575 252.18897 
L 362.004416 252.18897 
L 362.136928 205.991877 
L 362.170056 205.991877 
L 362.302568 240.031178 
L 362.335696 240.031178 
L 362.468208 253.61248 
L 362.60072 253.61248 
L 362.700104 204.697487 
L 362.733232 226.600676 
L 362.76636 189.507527 
L 363.495176 189.507527 
L 363.59456 19.296 
L 363.727072 191.053346 
L 364.025224 191.053346 
L 364.157737 202.121652 
L 364.422761 202.121652 
L 364.489017 203.433753 
L 364.621529 248.633133 
L 364.787169 248.633133 
L 364.919681 241.531857 
L 365.250961 241.531857 
L 365.383473 174.682226 
L 365.515985 174.682226 
L 365.648497 251.455015 
L 366.012905 251.455015 
L 366.145417 259.410617 
L 366.410442 259.410617 
L 366.542954 128.612441 
L 366.642338 128.612441 
L 366.708594 90.148151 
L 366.741722 118.188929 
L 366.874234 104.156883 
L 367.10613 104.156883 
L 367.238642 166.478519 
L 367.304898 166.478519 
L 367.338026 160.047377 
L 367.503666 227.286165 
L 367.636178 197.247911 
L 367.76869 197.247911 
L 367.901202 175.510103 
L 368.133098 175.510103 
L 368.166226 178.291128 
L 368.232482 129.259275 
L 368.364994 214.344966 
L 368.43125 214.344966 
L 368.563763 188.777881 
L 368.630019 188.777881 
L 368.762531 198.687388 
L 368.795659 198.687388 
L 368.928171 241.842048 
L 369.093811 241.842048 
L 369.226323 203.913887 
L 370.153907 203.913887 
L 370.286419 250.540716 
L 370.617699 250.540716 
L 370.750212 178.282741 
L 370.94898 178.282741 
L 371.081492 233.498926 
L 371.379644 233.498926 
L 371.512156 178.673727 
L 371.843436 178.673727 
L 371.975948 181.153101 
L 372.10846 239.922336 
L 373.135429 239.922336 
L 373.267941 217.57987 
L 373.797989 217.57987 
L 373.930501 185.789647 
L 374.063013 185.789647 
L 374.195525 109.637141 
L 374.328037 109.637141 
L 374.460549 200.576693 
L 374.659317 200.576693 
L 374.791829 178.391223 
L 374.824957 178.391223 
L 374.990597 250.882909 
L 376.348846 250.882909 
L 376.481358 241.176397 
L 376.912022 241.176397 
L 377.044534 257.894242 
L 377.607711 257.894242 
L 377.740223 202.901287 
L 377.872735 206.272343 
L 377.938991 206.272343 
L 378.071503 238.917373 
L 378.667807 238.917373 
L 378.800319 233.069044 
L 379.098471 233.069044 
L 379.131599 254.554039 
L 379.164727 217.94098 
L 379.761032 217.94098 
L 379.893544 224.675158 
L 379.926672 224.675158 
L 380.059184 188.269793 
L 380.324208 188.269793 
L 380.45672 209.518709 
L 380.655488 209.518709 
L 380.788 261.078672 
L 381.086152 261.078672 
L 381.218664 244.041309 
L 382.411273 244.041309 
L 382.411273 244.041309 
" clip-path="url(#p825a3f6851)" style="fill: none; stroke: #1f77b4; stroke-linecap: round"/>
   </g>
   <g id="patch_3">
    <path d="M 41.524 261.328645 
L 41.524 23.632697 
" style="fill: none; stroke: #262626; stroke-linejoin: miter; stroke-linecap: square"/>
   </g>
   <g id="patch_4">
    <path d="M 57.756727 273.312 
L 389.036876 273.312 
" style="fill: none; stroke: #262626; stroke-linejoin: miter; stroke-linecap: square"/>
   </g>
  </g>
 </g>
 <defs>
  <clipPath id="p825a3f6851">
   <rect x="41.524" y="7.2" width="357.12" height="266.112"/>
  </clipPath>
 </defs>
</svg>