<?xml version="1.0" encoding="utf-8" standalone="no"?>
<!DOCTYPE svg PUBLIC "-//W3C//DTD SVG 1.1//EN"
  "http://www.w3.org/Graphics/SVG/1.1/DTD/svg11.dtd">
<svg xmlns:xlink="http://www.w3.org/1999/xlink" width="428.606pt" height="322.539375pt" viewBox="0 0 428.606 322.539375" xmlns="http://www.w3.org/2000/svg" version="1.1">
 <metadata>
  <rdf:RDF xmlns:dc="http://purl.org/dc/elements/1.1/" xmlns:cc="http://creativecommons.org/ns#" xmlns:rdf="http://www.w3.org/1999/02/22-rdf-syntax-ns#">
   <cc:Work>
    <dc:type rdf:resource="http://purl.org/dc/dcmitype/StillImage"/>
    <dc:date>2023-10-22T09:21:37.853426</dc:date>
    <dc:format>image/svg+xml</dc:format>
    <dc:creator>
     <cc:Agent>
      <dc:title>Matplotlib v3.7.1, https://matplotlib.org/</dc:title>
     </cc:Agent>
    </dc:creator>
   </cc:Work>
  </rdf:RDF>
 </metadata>
 <defs>
  <style type="text/css">*{stroke-linejoin: round; stroke-linecap: butt}</style>
 </defs>
 <g id="figure_1">
  <g id="patch_1">
   <path d="M 0 322.539375 
L 428.606 322.539375 
L 428.606 0 
L 0 0 
z
" style="fill: #ffffff"/>
  </g>
  <g id="axes_1">
   <g id="patch_2">
    <path d="M 38.312875 286.212 
L 395.432875 286.212 
L 395.432875 20.1 
L 38.312875 20.1 
z
" style="fill: #ffffff"/>
   </g>
   <g id="matplotlib.axis_1">
    <g id="xtick_1">
     <g id="line2d_1">
      <defs>
       <path id="m9b1091417d" d="M 0 0 
L 0 4.8 
" style="stroke: #262626"/>
      </defs>
      <g>
       <use xlink:href="#m9b1091417d" x="54.545602" y="286.212" style="fill: #262626; stroke: #262626"/>
      </g>
     </g>
     <g id="text_1">
      <!-- 0.0 -->
      <g style="fill: #262626" transform="translate(48.429602 300.810875) scale(0.088 -0.088)">
       <defs>
        <path id="ArialMT-30" d="M 266 2259 
Q 266 3072 433 3567 
Q 600 4063 929 4331 
Q 1259 4600 1759 4600 
Q 2128 4600 2406 4451 
Q 2684 4303 2865 4023 
Q 3047 3744 3150 3342 
Q 3253 2941 3253 2259 
Q 3253 1453 3087 958 
Q 2922 463 2592 192 
Q 2263 -78 1759 -78 
Q 1097 -78 719 397 
Q 266 969 266 2259 
z
M 844 2259 
Q 844 1131 1108 757 
Q 1372 384 1759 384 
Q 2147 384 2411 759 
Q 2675 1134 2675 2259 
Q 2675 3391 2411 3762 
Q 2147 4134 1753 4134 
Q 1366 4134 1134 3806 
Q 844 3388 844 2259 
z
" transform="scale(0.015625)"/>
        <path id="ArialMT-2e" d="M 581 0 
L 581 641 
L 1222 641 
L 1222 0 
L 581 0 
z
" transform="scale(0.015625)"/>
       </defs>
       <use xlink:href="#ArialMT-30"/>
       <use xlink:href="#ArialMT-2e" x="55.615234"/>
       <use xlink:href="#ArialMT-30" x="83.398438"/>
      </g>
     </g>
    </g>
    <g id="xtick_2">
     <g id="line2d_2">
      <g>
       <use xlink:href="#m9b1091417d" x="119.476511" y="286.212" style="fill: #262626; stroke: #262626"/>
      </g>
     </g>
     <g id="text_2">
      <!-- 0.2 -->
      <g style="fill: #262626" transform="translate(113.360511 300.810875) scale(0.088 -0.088)">
       <defs>
        <path id="ArialMT-32" d="M 3222 541 
L 3222 0 
L 194 0 
Q 188 203 259 391 
Q 375 700 629 1000 
Q 884 1300 1366 1694 
Q 2113 2306 2375 2664 
Q 2638 3022 2638 3341 
Q 2638 3675 2398 3904 
Q 2159 4134 1775 4134 
Q 1369 4134 1125 3890 
Q 881 3647 878 3216 
L 300 3275 
Q 359 3922 746 4261 
Q 1134 4600 1788 4600 
Q 2447 4600 2831 4234 
Q 3216 3869 3216 3328 
Q 3216 3053 3103 2787 
Q 2991 2522 2730 2228 
Q 2469 1934 1863 1422 
Q 1356 997 1212 845 
Q 1069 694 975 541 
L 3222 541 
z
" transform="scale(0.015625)"/>
       </defs>
       <use xlink:href="#ArialMT-30"/>
       <use xlink:href="#ArialMT-2e" x="55.615234"/>
       <use xlink:href="#ArialMT-32" x="83.398438"/>
      </g>
     </g>
    </g>
    <g id="xtick_3">
     <g id="line2d_3">
      <g>
       <use xlink:href="#m9b1091417d" x="184.40742" y="286.212" style="fill: #262626; stroke: #262626"/>
      </g>
     </g>
     <g id="text_3">
      <!-- 0.4 -->
      <g style="fill: #262626" transform="translate(178.29142 300.810875) scale(0.088 -0.088)">
       <defs>
        <path id="ArialMT-34" d="M 2069 0 
L 2069 1097 
L 81 1097 
L 81 1613 
L 2172 4581 
L 2631 4581 
L 2631 1613 
L 3250 1613 
L 3250 1097 
L 2631 1097 
L 2631 0 
L 2069 0 
z
M 2069 1613 
L 2069 3678 
L 634 1613 
L 2069 1613 
z
" transform="scale(0.015625)"/>
       </defs>
       <use xlink:href="#ArialMT-30"/>
       <use xlink:href="#ArialMT-2e" x="55.615234"/>
       <use xlink:href="#ArialMT-34" x="83.398438"/>
      </g>
     </g>
    </g>
    <g id="xtick_4">
     <g id="line2d_4">
      <g>
       <use xlink:href="#m9b1091417d" x="249.33833" y="286.212" style="fill: #262626; stroke: #262626"/>
      </g>
     </g>
     <g id="text_4">
      <!-- 0.6 -->
      <g style="fill: #262626" transform="translate(243.22233 300.810875) scale(0.088 -0.088)">
       <defs>
        <path id="ArialMT-36" d="M 3184 3459 
L 2625 3416 
Q 2550 3747 2413 3897 
Q 2184 4138 1850 4138 
Q 1581 4138 1378 3988 
Q 1113 3794 959 3422 
Q 806 3050 800 2363 
Q 1003 2672 1297 2822 
Q 1591 2972 1913 2972 
Q 2475 2972 2870 2558 
Q 3266 2144 3266 1488 
Q 3266 1056 3080 686 
Q 2894 316 2569 119 
Q 2244 -78 1831 -78 
Q 1128 -78 684 439 
Q 241 956 241 2144 
Q 241 3472 731 4075 
Q 1159 4600 1884 4600 
Q 2425 4600 2770 4297 
Q 3116 3994 3184 3459 
z
M 888 1484 
Q 888 1194 1011 928 
Q 1134 663 1356 523 
Q 1578 384 1822 384 
Q 2178 384 2434 671 
Q 2691 959 2691 1453 
Q 2691 1928 2437 2201 
Q 2184 2475 1800 2475 
Q 1419 2475 1153 2201 
Q 888 1928 888 1484 
z
" transform="scale(0.015625)"/>
       </defs>
       <use xlink:href="#ArialMT-30"/>
       <use xlink:href="#ArialMT-2e" x="55.615234"/>
       <use xlink:href="#ArialMT-36" x="83.398438"/>
      </g>
     </g>
    </g>
    <g id="xtick_5">
     <g id="line2d_5">
      <g>
       <use xlink:href="#m9b1091417d" x="314.269239" y="286.212" style="fill: #262626; stroke: #262626"/>
      </g>
     </g>
     <g id="text_5">
      <!-- 0.8 -->
      <g style="fill: #262626" transform="translate(308.153239 300.810875) scale(0.088 -0.088)">
       <defs>
        <path id="ArialMT-38" d="M 1131 2484 
Q 781 2613 612 2850 
Q 444 3088 444 3419 
Q 444 3919 803 4259 
Q 1163 4600 1759 4600 
Q 2359 4600 2725 4251 
Q 3091 3903 3091 3403 
Q 3091 3084 2923 2848 
Q 2756 2613 2416 2484 
Q 2838 2347 3058 2040 
Q 3278 1734 3278 1309 
Q 3278 722 2862 322 
Q 2447 -78 1769 -78 
Q 1091 -78 675 323 
Q 259 725 259 1325 
Q 259 1772 486 2073 
Q 713 2375 1131 2484 
z
M 1019 3438 
Q 1019 3113 1228 2906 
Q 1438 2700 1772 2700 
Q 2097 2700 2305 2904 
Q 2513 3109 2513 3406 
Q 2513 3716 2298 3927 
Q 2084 4138 1766 4138 
Q 1444 4138 1231 3931 
Q 1019 3725 1019 3438 
z
M 838 1322 
Q 838 1081 952 856 
Q 1066 631 1291 507 
Q 1516 384 1775 384 
Q 2178 384 2440 643 
Q 2703 903 2703 1303 
Q 2703 1709 2433 1975 
Q 2163 2241 1756 2241 
Q 1359 2241 1098 1978 
Q 838 1716 838 1322 
z
" transform="scale(0.015625)"/>
       </defs>
       <use xlink:href="#ArialMT-30"/>
       <use xlink:href="#ArialMT-2e" x="55.615234"/>
       <use xlink:href="#ArialMT-38" x="83.398438"/>
      </g>
     </g>
    </g>
    <g id="xtick_6">
     <g id="line2d_6">
      <g>
       <use xlink:href="#m9b1091417d" x="379.200148" y="286.212" style="fill: #262626; stroke: #262626"/>
      </g>
     </g>
     <g id="text_6">
      <!-- 1.0 -->
      <g style="fill: #262626" transform="translate(373.084148 300.810875) scale(0.088 -0.088)">
       <defs>
        <path id="ArialMT-31" d="M 2384 0 
L 1822 0 
L 1822 3584 
Q 1619 3391 1289 3197 
Q 959 3003 697 2906 
L 697 3450 
Q 1169 3672 1522 3987 
Q 1875 4303 2022 4600 
L 2384 4600 
L 2384 0 
z
" transform="scale(0.015625)"/>
       </defs>
       <use xlink:href="#ArialMT-31"/>
       <use xlink:href="#ArialMT-2e" x="55.615234"/>
       <use xlink:href="#ArialMT-30" x="83.398438"/>
      </g>
     </g>
    </g>
    <g id="text_7">
     <!-- $x$ -->
     <g style="fill: #262626" transform="translate(213.992875 313.431375) scale(0.096 -0.096)">
      <defs>
       <path id="DejaVuSans-Oblique-78" d="M 3841 3500 
L 2234 1784 
L 3219 0 
L 2559 0 
L 1819 1388 
L 531 0 
L -166 0 
L 1556 1844 
L 641 3500 
L 1300 3500 
L 1972 2234 
L 3144 3500 
L 3841 3500 
z
" transform="scale(0.015625)"/>
      </defs>
      <use xlink:href="#DejaVuSans-Oblique-78" transform="translate(0 0.3125)"/>
     </g>
    </g>
   </g>
   <g id="matplotlib.axis_2">
    <g id="ytick_1">
     <g id="line2d_7">
      <defs>
       <path id="m968e10b2ef" d="M 0 0 
L -4.8 0 
" style="stroke: #262626"/>
      </defs>
      <g>
       <use xlink:href="#m968e10b2ef" x="38.312875" y="251.226609" style="fill: #262626; stroke: #262626"/>
      </g>
     </g>
     <g id="text_8">
      <!-- −2 -->
      <g style="fill: #262626" transform="translate(19.9795 254.376046) scale(0.088 -0.088)">
       <defs>
        <path id="ArialMT-2212" d="M 3381 1997 
L 356 1997 
L 356 2522 
L 3381 2522 
L 3381 1997 
z
" transform="scale(0.015625)"/>
       </defs>
       <use xlink:href="#ArialMT-2212"/>
       <use xlink:href="#ArialMT-32" x="58.398438"/>
      </g>
     </g>
    </g>
    <g id="ytick_2">
     <g id="line2d_8">
      <g>
       <use xlink:href="#m968e10b2ef" x="38.312875" y="207.523599" style="fill: #262626; stroke: #262626"/>
      </g>
     </g>
     <g id="text_9">
      <!-- 0 -->
      <g style="fill: #262626" transform="translate(25.11925 210.673037) scale(0.088 -0.088)">
       <use xlink:href="#ArialMT-30"/>
      </g>
     </g>
    </g>
    <g id="ytick_3">
     <g id="line2d_9">
      <g>
       <use xlink:href="#m968e10b2ef" x="38.312875" y="163.82059" style="fill: #262626; stroke: #262626"/>
      </g>
     </g>
     <g id="text_10">
      <!-- 2 -->
      <g style="fill: #262626" transform="translate(25.11925 166.970028) scale(0.088 -0.088)">
       <use xlink:href="#ArialMT-32"/>
      </g>
     </g>
    </g>
    <g id="ytick_4">
     <g id="line2d_10">
      <g>
       <use xlink:href="#m968e10b2ef" x="38.312875" y="120.117581" style="fill: #262626; stroke: #262626"/>
      </g>
     </g>
     <g id="text_11">
      <!-- 4 -->
      <g style="fill: #262626" transform="translate(25.11925 123.267018) scale(0.088 -0.088)">
       <use xlink:href="#ArialMT-34"/>
      </g>
     </g>
    </g>
    <g id="ytick_5">
     <g id="line2d_11">
      <g>
       <use xlink:href="#m968e10b2ef" x="38.312875" y="76.414572" style="fill: #262626; stroke: #262626"/>
      </g>
     </g>
     <g id="text_12">
      <!-- 6 -->
      <g style="fill: #262626" transform="translate(25.11925 79.564009) scale(0.088 -0.088)">
       <use xlink:href="#ArialMT-36"/>
      </g>
     </g>
    </g>
    <g id="ytick_6">
     <g id="line2d_12">
      <g>
       <use xlink:href="#m968e10b2ef" x="38.312875" y="32.711562" style="fill: #262626; stroke: #262626"/>
      </g>
     </g>
     <g id="text_13">
      <!-- 8 -->
      <g style="fill: #262626" transform="translate(25.11925 35.861) scale(0.088 -0.088)">
       <use xlink:href="#ArialMT-38"/>
      </g>
     </g>
    </g>
    <g id="text_14">
     <!-- $y$ -->
     <g style="fill: #262626" transform="translate(13.9635 156.036) rotate(-90) scale(0.096 -0.096)">
      <defs>
       <path id="DejaVuSans-Oblique-79" d="M 1588 -325 
Q 1188 -997 936 -1164 
Q 684 -1331 294 -1331 
L -159 -1331 
L -63 -850 
L 269 -850 
Q 509 -850 678 -719 
Q 847 -588 1056 -206 
L 1234 128 
L 459 3500 
L 1069 3500 
L 1650 819 
L 3256 3500 
L 3859 3500 
L 1588 -325 
z
" transform="scale(0.015625)"/>
      </defs>
      <use xlink:href="#DejaVuSans-Oblique-79" transform="translate(0 0.3125)"/>
     </g>
    </g>
   </g>
   <g id="PolyCollection_1">
    <defs>
     <path id="m7ccd815673" d="M 54.545602 -197.780963 
L 54.545602 -54.383444 
L 57.824941 -57.682646 
L 61.10428 -61.220828 
L 64.383619 -64.984135 
L 67.662958 -68.952756 
L 70.942296 -73.100597 
L 74.221636 -77.395474 
L 77.500973 -81.799317 
L 80.780313 -86.268477 
L 84.059653 -90.754914 
L 87.33899 -95.206447 
L 90.61833 -99.568345 
L 93.89767 -103.78445 
L 97.177007 -107.798425 
L 100.456344 -111.556346 
L 103.735686 -115.006829 
L 107.015024 -118.102891 
L 110.294361 -120.801027 
L 113.573703 -122.975636 
L 116.853041 -120.483214 
L 120.132378 -117.10985 
L 123.41172 -114.236465 
L 126.691057 -111.927581 
L 129.970395 -110.228526 
L 133.249737 -109.171178 
L 136.529069 -108.776559 
L 139.808412 -109.052456 
L 143.087754 -109.994521 
L 146.367086 -111.585627 
L 149.646428 -113.796897 
L 152.92577 -116.582763 
L 156.205103 -119.825929 
L 159.484445 -120.724862 
L 162.763787 -120.571513 
L 166.04312 -120.823904 
L 169.322462 -121.574994 
L 172.601804 -122.88586 
L 175.881137 -124.802163 
L 179.160479 -127.354691 
L 182.439821 -130.55788 
L 185.719153 -134.4109 
L 188.998496 -138.897104 
L 192.277838 -143.984613 
L 195.55717 -149.628533 
L 198.836512 -155.771739 
L 202.115855 -162.347138 
L 205.395187 -169.281034 
L 208.674529 -176.492893 
L 211.953871 -183.901694 
L 215.233204 -191.425017 
L 218.512556 -198.983584 
L 221.791879 -206.502186 
L 225.071221 -213.912383 
L 228.350563 -221.149958 
L 231.629886 -228.161157 
L 234.909247 -234.893288 
L 238.18857 -241.284624 
L 241.467912 -247.206088 
L 244.747254 -252.573198 
L 248.026597 -257.67518 
L 251.305939 -262.621838 
L 254.585262 -267.377358 
L 257.864623 -271.856466 
L 261.143946 -275.942829 
L 264.423288 -279.51886 
L 267.70263 -282.562782 
L 270.981953 -285.094309 
L 274.261315 -287.106961 
L 277.540637 -288.571531 
L 280.81998 -289.419218 
L 284.099322 -289.308468 
L 287.378664 -287.946646 
L 290.658006 -285.507343 
L 293.937329 -282.025245 
L 297.21669 -277.511439 
L 300.496013 -271.988108 
L 303.775355 -265.491961 
L 307.054697 -258.088609 
L 310.33402 -249.856493 
L 313.613382 -240.895712 
L 316.892705 -231.322092 
L 320.172047 -221.26595 
L 323.451389 -210.866356 
L 326.730731 -200.278408 
L 330.010073 -189.653292 
L 333.289396 -179.145533 
L 336.568738 -168.90536 
L 339.84808 -159.081773 
L 343.127423 -149.808201 
L 346.406765 -141.20276 
L 349.686088 -133.374877 
L 352.96543 -126.403883 
L 356.244772 -120.059125 
L 359.524114 -108.768217 
L 362.803456 -97.332887 
L 366.082798 -86.342899 
L 369.362141 -75.888814 
L 372.641463 -66.045367 
L 375.920806 -56.875085 
L 379.200148 -48.426694 
L 379.200148 -105.932987 
L 379.200148 -105.932987 
L 375.920806 -105.174181 
L 372.641463 -105.282854 
L 369.362141 -106.318981 
L 366.082798 -108.331 
L 362.803456 -111.350802 
L 359.524114 -115.396344 
L 356.244772 -120.958362 
L 352.96543 -132.709215 
L 349.686088 -144.923639 
L 346.406765 -157.191598 
L 343.127423 -169.394368 
L 339.84808 -181.423645 
L 336.568738 -193.16915 
L 333.289396 -204.52841 
L 330.010073 -215.408358 
L 326.730731 -225.721489 
L 323.451389 -235.391262 
L 320.172047 -244.352803 
L 316.892705 -252.555484 
L 313.613382 -259.958992 
L 310.33402 -266.536599 
L 307.054697 -272.274762 
L 303.775355 -277.171217 
L 300.496013 -281.234386 
L 297.21669 -284.484866 
L 293.937329 -286.949031 
L 290.658006 -288.662734 
L 287.378664 -289.675072 
L 284.099322 -290.081405 
L 280.81998 -290.136712 
L 277.540637 -289.641354 
L 274.261315 -288.360815 
L 270.981953 -286.33766 
L 267.70263 -283.65905 
L 264.423288 -280.436535 
L 261.143946 -276.804864 
L 257.864623 -272.848288 
L 254.585262 -268.554919 
L 251.305939 -263.900782 
L 248.026597 -258.886626 
L 244.747254 -253.553329 
L 241.467912 -248.077709 
L 238.18857 -242.810347 
L 234.909247 -237.72044 
L 231.629886 -232.726926 
L 228.350563 -227.815424 
L 225.071221 -222.976089 
L 221.791879 -218.200011 
L 218.512556 -213.466987 
L 215.233204 -208.755583 
L 211.953871 -204.04146 
L 208.674529 -199.298657 
L 205.395187 -194.501959 
L 202.115855 -189.631854 
L 198.836512 -184.671245 
L 195.55717 -179.61179 
L 192.277838 -174.452906 
L 188.998496 -169.202829 
L 185.719153 -163.88018 
L 182.439821 -158.512638 
L 179.160479 -153.138027 
L 175.881137 -147.802994 
L 172.601804 -142.56136 
L 169.322462 -137.473837 
L 166.04312 -132.606485 
L 162.763787 -128.0292 
L 159.484445 -123.832875 
L 156.205103 -121.462312 
L 152.92577 -122.185412 
L 149.646428 -123.166054 
L 146.367086 -124.243009 
L 143.087754 -125.31835 
L 139.808412 -126.303475 
L 136.529069 -127.116029 
L 133.249737 -127.68209 
L 129.970395 -127.937318 
L 126.691057 -127.829426 
L 123.41172 -127.317583 
L 120.132378 -126.376419 
L 116.853041 -125.002992 
L 113.573703 -124.515394 
L 110.294361 -128.642387 
L 107.015024 -133.189503 
L 103.735686 -137.987185 
L 100.456344 -142.955409 
L 97.177007 -148.018224 
L 93.89767 -153.102967 
L 90.61833 -158.141648 
L 87.33899 -163.071092 
L 84.059653 -167.834745 
L 80.780313 -172.383425 
L 77.500973 -176.675695 
L 74.221636 -180.678612 
L 70.942296 -184.367299 
L 67.662958 -187.725217 
L 64.383619 -190.743673 
L 61.10428 -193.421278 
L 57.824941 -195.763341 
L 54.545602 -197.780963 
z
" style="stroke: #1f77b4; stroke-opacity: 0.5; stroke-width: 0.8"/>
    </defs>
    <g clip-path="url(#p2c2a8623ef)">
     <use xlink:href="#m7ccd815673" x="0" y="322.539375" style="fill: #1f77b4; fill-opacity: 0.5; stroke: #1f77b4; stroke-opacity: 0.5; stroke-width: 0.8"/>
    </g>
   </g>
   <g id="PolyCollection_2">
    <defs>
     <path id="m7d9f1dcd31" d="M 54.545602 -54.383444 
L 54.545602 -54.38211 
L 57.824941 -57.681266 
L 61.10428 -61.219385 
L 64.383619 -64.982625 
L 67.662958 -68.951152 
L 70.942296 -73.098883 
L 74.221636 -77.393624 
L 77.500973 -81.797306 
L 80.780313 -86.266258 
L 84.059653 -90.752434 
L 87.33899 -95.203631 
L 90.61833 -99.565087 
L 93.89767 -103.780579 
L 97.177007 -107.793676 
L 100.456344 -111.550264 
L 103.735686 -114.998521 
L 107.015024 -118.090242 
L 110.294361 -120.776745 
L 113.573703 -122.860241 
L 116.853041 -120.441344 
L 120.132378 -117.089284 
L 123.41172 -114.22188 
L 126.691057 -111.915579 
L 129.970395 -110.217747 
L 133.249737 -109.160866 
L 136.529069 -108.766151 
L 139.808412 -109.041392 
L 143.087754 -109.982068 
L 146.367086 -111.570556 
L 149.646428 -113.776556 
L 152.92577 -116.548878 
L 156.205103 -119.716526 
L 159.484445 -120.664579 
L 162.763787 -120.54599 
L 166.04312 -120.807717 
L 169.322462 -121.56299 
L 172.601804 -122.876157 
L 175.881137 -124.793863 
L 179.160479 -127.347286 
L 182.439821 -130.55105 
L 185.719153 -134.404421 
L 188.998496 -138.890802 
L 192.277838 -143.978346 
L 195.55717 -149.622164 
L 198.836512 -155.765133 
L 202.115855 -162.340136 
L 205.395187 -169.273464 
L 208.674529 -176.484521 
L 211.953871 -183.892217 
L 215.233204 -191.414003 
L 218.512556 -198.970408 
L 221.791879 -206.48588 
L 225.071221 -213.891356 
L 228.350563 -221.121419 
L 231.629886 -228.119708 
L 234.909247 -234.827269 
L 238.18857 -241.16831 
L 241.467912 -247.024703 
L 244.747254 -252.40663 
L 248.026597 -257.533974 
L 251.305939 -262.486758 
L 254.585262 -267.23289 
L 257.864623 -271.691378 
L 261.143946 -275.760027 
L 264.423288 -279.344029 
L 267.70263 -282.409884 
L 270.981953 -284.956072 
L 274.261315 -286.969672 
L 277.540637 -288.415695 
L 280.81998 -289.212556 
L 284.099322 -289.111538 
L 287.378664 -287.842429 
L 290.658006 -285.44794 
L 293.937329 -281.986755 
L 297.21669 -277.48415 
L 300.496013 -271.967498 
L 303.775355 -265.475633 
L 307.054697 -258.075158 
L 310.33402 -249.845052 
L 313.613382 -240.885699 
L 316.892705 -231.3131 
L 320.172047 -221.257687 
L 323.451389 -210.858562 
L 326.730731 -200.270906 
L 330.010073 -189.645879 
L 333.289396 -179.13801 
L 336.568738 -168.897493 
L 339.84808 -159.073229 
L 343.127423 -149.798456 
L 346.406765 -141.190822 
L 349.686088 -133.358362 
L 352.96543 -126.373735 
L 356.244772 -119.881725 
L 359.524114 -108.739525 
L 362.803456 -97.319275 
L 366.082798 -86.334217 
L 369.362141 -75.882539 
L 372.641463 -66.040501 
L 375.920806 -56.871136 
L 379.200148 -48.423375 
L 379.200148 -48.426694 
L 379.200148 -48.426694 
L 375.920806 -56.875085 
L 372.641463 -66.045367 
L 369.362141 -75.888814 
L 366.082798 -86.342899 
L 362.803456 -97.332887 
L 359.524114 -108.768217 
L 356.244772 -120.059125 
L 352.96543 -126.403883 
L 349.686088 -133.374877 
L 346.406765 -141.20276 
L 343.127423 -149.808201 
L 339.84808 -159.081773 
L 336.568738 -168.90536 
L 333.289396 -179.145533 
L 330.010073 -189.653292 
L 326.730731 -200.278408 
L 323.451389 -210.866356 
L 320.172047 -221.26595 
L 316.892705 -231.322092 
L 313.613382 -240.895712 
L 310.33402 -249.856493 
L 307.054697 -258.088609 
L 303.775355 -265.491961 
L 300.496013 -271.988108 
L 297.21669 -277.511439 
L 293.937329 -282.025245 
L 290.658006 -285.507343 
L 287.378664 -287.946646 
L 284.099322 -289.308468 
L 280.81998 -289.419218 
L 277.540637 -288.571531 
L 274.261315 -287.106961 
L 270.981953 -285.094309 
L 267.70263 -282.562782 
L 264.423288 -279.51886 
L 261.143946 -275.942829 
L 257.864623 -271.856466 
L 254.585262 -267.377358 
L 251.305939 -262.621838 
L 248.026597 -257.67518 
L 244.747254 -252.573198 
L 241.467912 -247.206088 
L 238.18857 -241.284624 
L 234.909247 -234.893288 
L 231.629886 -228.161157 
L 228.350563 -221.149958 
L 225.071221 -213.912383 
L 221.791879 -206.502186 
L 218.512556 -198.983584 
L 215.233204 -191.425017 
L 211.953871 -183.901694 
L 208.674529 -176.492893 
L 205.395187 -169.281034 
L 202.115855 -162.347138 
L 198.836512 -155.771739 
L 195.55717 -149.628533 
L 192.277838 -143.984613 
L 188.998496 -138.897104 
L 185.719153 -134.4109 
L 182.439821 -130.55788 
L 179.160479 -127.354691 
L 175.881137 -124.802163 
L 172.601804 -122.88586 
L 169.322462 -121.574994 
L 166.04312 -120.823904 
L 162.763787 -120.571513 
L 159.484445 -120.724862 
L 156.205103 -119.825929 
L 152.92577 -116.582763 
L 149.646428 -113.796897 
L 146.367086 -111.585627 
L 143.087754 -109.994521 
L 139.808412 -109.052456 
L 136.529069 -108.776559 
L 133.249737 -109.171178 
L 129.970395 -110.228526 
L 126.691057 -111.927581 
L 123.41172 -114.236465 
L 120.132378 -117.10985 
L 116.853041 -120.483214 
L 113.573703 -122.975636 
L 110.294361 -120.801027 
L 107.015024 -118.102891 
L 103.735686 -115.006829 
L 100.456344 -111.556346 
L 97.177007 -107.798425 
L 93.89767 -103.78445 
L 90.61833 -99.568345 
L 87.33899 -95.206447 
L 84.059653 -90.754914 
L 80.780313 -86.268477 
L 77.500973 -81.799317 
L 74.221636 -77.395474 
L 70.942296 -73.100597 
L 67.662958 -68.952756 
L 64.383619 -64.984135 
L 61.10428 -61.220828 
L 57.824941 -57.682646 
L 54.545602 -54.383444 
z
" style="stroke: #ff7f0e; stroke-opacity: 0.5; stroke-width: 0.8"/>
    </defs>
    <g clip-path="url(#p2c2a8623ef)">
     <use xlink:href="#m7d9f1dcd31" x="0" y="322.539375" style="fill: #ff7f0e; fill-opacity: 0.5; stroke: #ff7f0e; stroke-opacity: 0.5; stroke-width: 0.8"/>
    </g>
   </g>
   <g id="PolyCollection_3">
    <defs>
     <path id="mdc45b8e2e2" d="M 54.545602 -197.782296 
L 54.545602 -197.780963 
L 57.824941 -195.763341 
L 61.10428 -193.421278 
L 64.383619 -190.743673 
L 67.662958 -187.725217 
L 70.942296 -184.367299 
L 74.221636 -180.678612 
L 77.500973 -176.675695 
L 80.780313 -172.383425 
L 84.059653 -167.834745 
L 87.33899 -163.071092 
L 90.61833 -158.141648 
L 93.89767 -153.102967 
L 97.177007 -148.018224 
L 100.456344 -142.955409 
L 103.735686 -137.987185 
L 107.015024 -133.189503 
L 110.294361 -128.642387 
L 113.573703 -124.515394 
L 116.853041 -125.002992 
L 120.132378 -126.376419 
L 123.41172 -127.317583 
L 126.691057 -127.829426 
L 129.970395 -127.937318 
L 133.249737 -127.68209 
L 136.529069 -127.116029 
L 139.808412 -126.303475 
L 143.087754 -125.31835 
L 146.367086 -124.243009 
L 149.646428 -123.166054 
L 152.92577 -122.185412 
L 156.205103 -121.462312 
L 159.484445 -123.832875 
L 162.763787 -128.0292 
L 166.04312 -132.606485 
L 169.322462 -137.473837 
L 172.601804 -142.56136 
L 175.881137 -147.802994 
L 179.160479 -153.138027 
L 182.439821 -158.512638 
L 185.719153 -163.88018 
L 188.998496 -169.202829 
L 192.277838 -174.452906 
L 195.55717 -179.61179 
L 198.836512 -184.671245 
L 202.115855 -189.631854 
L 205.395187 -194.501959 
L 208.674529 -199.298657 
L 211.953871 -204.04146 
L 215.233204 -208.755583 
L 218.512556 -213.466987 
L 221.791879 -218.200011 
L 225.071221 -222.976089 
L 228.350563 -227.815424 
L 231.629886 -232.726926 
L 234.909247 -237.72044 
L 238.18857 -242.810347 
L 241.467912 -248.077709 
L 244.747254 -253.553329 
L 248.026597 -258.886626 
L 251.305939 -263.900782 
L 254.585262 -268.554919 
L 257.864623 -272.848288 
L 261.143946 -276.804864 
L 264.423288 -280.436535 
L 267.70263 -283.65905 
L 270.981953 -286.33766 
L 274.261315 -288.360815 
L 277.540637 -289.641354 
L 280.81998 -290.136712 
L 284.099322 -290.081405 
L 287.378664 -289.675072 
L 290.658006 -288.662734 
L 293.937329 -286.949031 
L 297.21669 -284.484866 
L 300.496013 -281.234386 
L 303.775355 -277.171217 
L 307.054697 -272.274762 
L 310.33402 -266.536599 
L 313.613382 -259.958992 
L 316.892705 -252.555484 
L 320.172047 -244.352803 
L 323.451389 -235.391262 
L 326.730731 -225.721489 
L 330.010073 -215.408358 
L 333.289396 -204.52841 
L 336.568738 -193.16915 
L 339.84808 -181.423645 
L 343.127423 -169.394368 
L 346.406765 -157.191598 
L 349.686088 -144.923639 
L 352.96543 -132.709215 
L 356.244772 -120.958362 
L 359.524114 -115.396344 
L 362.803456 -111.350802 
L 366.082798 -108.331 
L 369.362141 -106.318981 
L 372.641463 -105.282854 
L 375.920806 -105.174181 
L 379.200148 -105.932987 
L 379.200148 -105.936308 
L 379.200148 -105.936308 
L 375.920806 -105.178135 
L 372.641463 -105.28772 
L 369.362141 -106.325256 
L 366.082798 -108.339682 
L 362.803456 -111.364413 
L 359.524114 -115.425036 
L 356.244772 -121.135762 
L 352.96543 -132.739363 
L 349.686088 -144.940154 
L 346.406765 -157.203537 
L 343.127423 -169.404115 
L 339.84808 -181.432189 
L 336.568738 -193.177017 
L 333.289396 -204.535933 
L 330.010073 -215.415766 
L 326.730731 -225.728991 
L 323.451389 -235.399056 
L 320.172047 -244.361066 
L 316.892705 -252.564476 
L 313.613382 -259.969005 
L 310.33402 -266.54804 
L 307.054697 -272.288213 
L 303.775355 -277.187545 
L 300.496013 -281.254996 
L 297.21669 -284.512155 
L 293.937329 -286.987521 
L 290.658006 -288.722136 
L 287.378664 -289.779289 
L 284.099322 -290.278336 
L 280.81998 -290.343375 
L 277.540637 -289.797189 
L 274.261315 -288.498104 
L 270.981953 -286.475897 
L 267.70263 -283.811947 
L 264.423288 -280.611366 
L 261.143946 -276.987666 
L 257.864623 -273.013377 
L 254.585262 -268.699387 
L 251.305939 -264.035862 
L 248.026597 -259.027833 
L 244.747254 -253.719896 
L 241.467912 -248.259094 
L 238.18857 -242.926661 
L 234.909247 -237.786459 
L 231.629886 -232.768375 
L 228.350563 -227.843964 
L 225.071221 -222.997116 
L 221.791879 -218.216317 
L 218.512556 -213.480157 
L 215.233204 -208.766597 
L 211.953871 -204.050931 
L 208.674529 -199.307029 
L 205.395187 -194.509528 
L 202.115855 -189.638856 
L 198.836512 -184.677851 
L 195.55717 -179.618156 
L 192.277838 -174.459173 
L 188.998496 -169.209133 
L 185.719153 -163.886661 
L 182.439821 -158.519468 
L 179.160479 -153.145435 
L 175.881137 -147.811296 
L 172.601804 -142.571063 
L 169.322462 -137.48584 
L 166.04312 -132.622673 
L 162.763787 -128.054723 
L 159.484445 -123.893159 
L 156.205103 -121.571715 
L 152.92577 -122.219297 
L 149.646428 -123.186396 
L 146.367086 -124.258081 
L 143.087754 -125.330803 
L 139.808412 -126.31454 
L 136.529069 -127.126438 
L 133.249737 -127.692403 
L 129.970395 -127.948097 
L 126.691057 -127.841428 
L 123.41172 -127.332168 
L 120.132378 -126.396984 
L 116.853041 -125.044861 
L 113.573703 -124.630788 
L 110.294361 -128.666669 
L 107.015024 -133.202153 
L 103.735686 -137.995495 
L 100.456344 -142.961491 
L 97.177007 -148.022973 
L 93.89767 -153.106838 
L 90.61833 -158.144907 
L 87.33899 -163.073911 
L 84.059653 -167.837225 
L 80.780313 -172.385645 
L 77.500973 -176.677706 
L 74.221636 -180.680461 
L 70.942296 -184.369019 
L 67.662958 -187.726832 
L 64.383619 -190.745194 
L 61.10428 -193.422721 
L 57.824941 -195.764721 
L 54.545602 -197.782296 
z
" style="stroke: #ff7f0e; stroke-opacity: 0.5; stroke-width: 0.8"/>
    </defs>
    <g clip-path="url(#p2c2a8623ef)">
     <use xlink:href="#mdc45b8e2e2" x="0" y="322.539375" style="fill: #ff7f0e; fill-opacity: 0.5; stroke: #ff7f0e; stroke-opacity: 0.5; stroke-width: 0.8"/>
    </g>
   </g>
   <g id="line2d_13">
    <defs>
     <path id="mcb4e3fb3d8" d="M -5 5 
L 5 -5 
M -5 -5 
L 5 5 
" style="stroke: #000000; stroke-width: 2"/>
    </defs>
    <g clip-path="url(#p2c2a8623ef)">
     <use xlink:href="#mcb4e3fb3d8" x="356.349693" y="202.3133" style="stroke: #000000; stroke-width: 2"/>
     <use xlink:href="#mcb4e3fb3d8" x="157.258364" y="201.41281" style="stroke: #000000; stroke-width: 2"/>
     <use xlink:href="#mcb4e3fb3d8" x="114.255683" y="199.000242" style="stroke: #000000; stroke-width: 2"/>
     <use xlink:href="#mcb4e3fb3d8" x="261.143946" y="46.161267" style="stroke: #000000; stroke-width: 2"/>
     <use xlink:href="#mcb4e3fb3d8" x="241.467912" y="74.894684" style="stroke: #000000; stroke-width: 2"/>
     <use xlink:href="#mcb4e3fb3d8" x="280.81998" y="32.833628" style="stroke: #000000; stroke-width: 2"/>
     <use xlink:href="#mcb4e3fb3d8" x="284.099322" y="32.77333" style="stroke: #000000; stroke-width: 2"/>
    </g>
   </g>
   <g id="line2d_14">
    <path d="M 54.545602 196.457169 
L 57.824941 195.816381 
L 61.10428 195.218322 
L 64.383619 194.675468 
L 67.662958 194.200386 
L 70.942296 193.805426 
L 74.221636 193.502332 
L 77.500973 193.301871 
L 80.780313 193.213425 
L 84.059653 193.244544 
L 87.33899 193.400605 
L 90.61833 193.684378 
L 93.89767 194.095666 
L 97.177007 194.631051 
L 100.456344 195.283498 
L 103.735686 196.042367 
L 107.015024 196.893178 
L 110.294361 197.817668 
L 113.573703 198.79386 
L 116.853041 199.796272 
L 120.132378 200.796241 
L 123.41172 201.762351 
L 126.691057 202.660872 
L 129.970395 203.456453 
L 133.249737 204.112741 
L 136.529069 204.593081 
L 139.808412 204.861409 
L 143.087754 204.882939 
L 146.367086 204.625057 
L 149.646428 204.057899 
L 152.92577 203.155287 
L 156.205103 201.895254 
L 159.484445 200.260506 
L 162.763787 198.239019 
L 166.04312 195.824181 
L 169.322462 193.01496 
L 172.601804 189.815765 
L 175.881137 186.236796 
L 179.160479 182.293015 
L 182.439821 178.004117 
L 185.719153 173.393835 
L 188.998496 168.489409 
L 192.277838 163.320615 
L 195.55717 157.919215 
L 198.836512 152.317883 
L 202.115855 146.549879 
L 205.395187 140.647879 
L 208.674529 134.6436 
L 211.953871 128.567801 
L 215.233204 122.449073 
L 218.512556 116.31409 
L 221.791879 110.188277 
L 225.071221 104.095139 
L 228.350563 98.056684 
L 231.629886 92.095333 
L 234.909247 86.232511 
L 238.18857 80.49189 
L 241.467912 74.897476 
L 244.747254 69.476112 
L 248.026597 64.258472 
L 251.305939 59.278065 
L 254.585262 54.573236 
L 257.864623 50.186998 
L 261.143946 46.165529 
L 264.423288 42.561677 
L 267.70263 39.428459 
L 270.981953 36.82339 
L 274.261315 34.805487 
L 277.540637 33.432933 
L 280.81998 32.76141 
L 284.099322 32.844433 
L 287.378664 33.728516 
L 290.658006 35.454337 
L 293.937329 38.052237 
L 297.21669 41.541223 
L 300.496013 45.928128 
L 303.775355 51.207786 
L 307.054697 57.357689 
L 310.33402 64.342829 
L 313.613382 72.112023 
L 316.892705 80.600587 
L 320.172047 89.729999 
L 323.451389 99.410566 
L 326.730731 109.539427 
L 330.010073 120.00855 
L 333.289396 130.702403 
L 336.568738 141.50212 
L 339.84808 152.286666 
L 343.127423 162.938091 
L 346.406765 173.342196 
L 349.686088 183.390117 
L 352.96543 192.982826 
L 356.244772 202.030631 
L 359.524114 210.457094 
L 362.803456 218.19753 
L 366.082798 225.202425 
L 369.362141 231.435477 
L 372.641463 236.875264 
L 375.920806 241.514741 
L 379.200148 245.359535 
" clip-path="url(#p2c2a8623ef)" style="fill: none; stroke: #1f77b4; stroke-width: 2; stroke-linecap: round"/>
   </g>
   <g id="line2d_15">
    <path d="M 54.545602 120.755209 
L 57.824941 126.087736 
L 61.10428 131.400476 
L 64.383619 136.673725 
L 67.662958 141.887854 
L 70.942296 147.02345 
L 74.221636 152.06129 
L 77.500973 156.982487 
L 80.780313 161.768531 
L 84.059653 166.401319 
L 87.33899 170.863272 
L 90.61833 175.137359 
L 93.89767 179.20717 
L 97.177007 183.056965 
L 100.456344 186.671752 
L 103.735686 190.037286 
L 107.015024 193.140173 
L 110.294361 195.967888 
L 113.573703 198.50884 
L 116.853041 200.75238 
L 120.132378 202.688854 
L 123.41172 204.309655 
L 126.691057 205.60723 
L 129.970395 206.575113 
L 133.249737 207.207963 
L 136.529069 207.501572 
L 139.808412 207.452881 
L 143.087754 207.06002 
L 146.367086 206.322296 
L 149.646428 205.240204 
L 152.92577 203.815453 
L 156.205103 202.05097 
L 159.484445 199.950862 
L 162.763787 197.520488 
L 166.04312 194.766387 
L 169.322462 191.696322 
L 172.601804 188.319259 
L 175.881137 184.645362 
L 179.160479 180.686004 
L 182.439821 176.4537 
L 185.719153 171.962212 
L 188.998496 167.226416 
L 192.277838 162.26241 
L 195.55717 157.087386 
L 198.836512 151.719745 
L 202.115855 146.17905 
L 205.395187 140.486 
L 208.674529 134.662428 
L 211.953871 128.731378 
L 215.233204 122.717008 
L 218.512556 116.644652 
L 221.791879 110.540876 
L 225.071221 104.433349 
L 228.350563 98.350965 
L 231.629886 92.323971 
L 234.909247 86.383574 
L 238.18857 80.562555 
L 241.467912 74.894684 
L 244.747254 69.415157 
L 248.026597 64.160402 
L 251.305939 59.168065 
L 254.585262 54.477147 
L 257.864623 50.127762 
L 261.143946 46.161267 
L 264.423288 42.620048 
L 267.70263 39.547493 
L 270.981953 36.987718 
L 274.261315 34.985486 
L 277.540637 33.585809 
L 280.81998 32.833628 
L 284.099322 32.77333 
L 287.378664 33.448166 
L 290.658006 34.899472 
L 293.937329 37.16581 
L 297.21669 40.281971 
L 300.496013 44.277266 
L 303.775355 49.174587 
L 307.054697 54.987999 
L 310.33402 61.720713 
L 313.613382 69.362872 
L 316.892705 77.888206 
L 320.172047 87.251236 
L 323.451389 97.383556 
L 326.730731 108.189962 
L 330.010073 119.544565 
L 333.289396 131.286678 
L 336.568738 143.216875 
L 339.84808 155.093855 
L 343.127423 166.631816 
L 346.406765 177.499479 
L 349.686088 187.321821 
L 352.96543 195.684693 
L 356.244772 202.143236 
L 359.524114 206.23709 
L 362.803456 207.511486 
L 366.082798 205.547145 
L 369.362141 199.999401 
L 372.641463 190.646958 
L 375.920806 177.450002 
L 379.200148 160.614919 
" clip-path="url(#p2c2a8623ef)" style="fill: none; stroke-dasharray: 7.68,1.92,1.2,1.92; stroke-dashoffset: 0; stroke: #bf00bf; stroke-width: 1.2"/>
   </g>
   <g id="patch_3">
    <path d="M 38.312875 251.226609 
L 38.312875 32.711562 
" style="fill: none; stroke: #262626; stroke-linejoin: miter; stroke-linecap: square"/>
   </g>
   <g id="patch_4">
    <path d="M 54.545602 286.212 
L 379.200148 286.212 
" style="fill: none; stroke: #262626; stroke-linejoin: miter; stroke-linecap: square"/>
   </g>
   <g id="text_15">
    <!-- N=3, psi=1.96 -->
    <g style="fill: #262626" transform="translate(186.986125 14.1) scale(0.096 -0.096)">
     <defs>
      <path id="ArialMT-4e" d="M 488 0 
L 488 4581 
L 1109 4581 
L 3516 984 
L 3516 4581 
L 4097 4581 
L 4097 0 
L 3475 0 
L 1069 3600 
L 1069 0 
L 488 0 
z
" transform="scale(0.015625)"/>
      <path id="ArialMT-3d" d="M 3381 2694 
L 356 2694 
L 356 3219 
L 3381 3219 
L 3381 2694 
z
M 3381 1303 
L 356 1303 
L 356 1828 
L 3381 1828 
L 3381 1303 
z
" transform="scale(0.015625)"/>
      <path id="ArialMT-33" d="M 269 1209 
L 831 1284 
Q 928 806 1161 595 
Q 1394 384 1728 384 
Q 2125 384 2398 659 
Q 2672 934 2672 1341 
Q 2672 1728 2419 1979 
Q 2166 2231 1775 2231 
Q 1616 2231 1378 2169 
L 1441 2663 
Q 1497 2656 1531 2656 
Q 1891 2656 2178 2843 
Q 2466 3031 2466 3422 
Q 2466 3731 2256 3934 
Q 2047 4138 1716 4138 
Q 1388 4138 1169 3931 
Q 950 3725 888 3313 
L 325 3413 
Q 428 3978 793 4289 
Q 1159 4600 1703 4600 
Q 2078 4600 2393 4439 
Q 2709 4278 2876 4000 
Q 3044 3722 3044 3409 
Q 3044 3113 2884 2869 
Q 2725 2625 2413 2481 
Q 2819 2388 3044 2092 
Q 3269 1797 3269 1353 
Q 3269 753 2831 336 
Q 2394 -81 1725 -81 
Q 1122 -81 723 278 
Q 325 638 269 1209 
z
" transform="scale(0.015625)"/>
      <path id="ArialMT-2c" d="M 569 0 
L 569 641 
L 1209 641 
L 1209 0 
Q 1209 -353 1084 -570 
Q 959 -788 688 -906 
L 531 -666 
Q 709 -588 793 -436 
Q 878 -284 888 0 
L 569 0 
z
" transform="scale(0.015625)"/>
      <path id="ArialMT-20" transform="scale(0.015625)"/>
      <path id="ArialMT-70" d="M 422 -1272 
L 422 3319 
L 934 3319 
L 934 2888 
Q 1116 3141 1344 3267 
Q 1572 3394 1897 3394 
Q 2322 3394 2647 3175 
Q 2972 2956 3137 2557 
Q 3303 2159 3303 1684 
Q 3303 1175 3120 767 
Q 2938 359 2589 142 
Q 2241 -75 1856 -75 
Q 1575 -75 1351 44 
Q 1128 163 984 344 
L 984 -1272 
L 422 -1272 
z
M 931 1641 
Q 931 1000 1190 694 
Q 1450 388 1819 388 
Q 2194 388 2461 705 
Q 2728 1022 2728 1688 
Q 2728 2322 2467 2637 
Q 2206 2953 1844 2953 
Q 1484 2953 1207 2617 
Q 931 2281 931 1641 
z
" transform="scale(0.015625)"/>
      <path id="ArialMT-73" d="M 197 991 
L 753 1078 
Q 800 744 1014 566 
Q 1228 388 1613 388 
Q 2000 388 2187 545 
Q 2375 703 2375 916 
Q 2375 1106 2209 1216 
Q 2094 1291 1634 1406 
Q 1016 1563 777 1677 
Q 538 1791 414 1992 
Q 291 2194 291 2438 
Q 291 2659 392 2848 
Q 494 3038 669 3163 
Q 800 3259 1026 3326 
Q 1253 3394 1513 3394 
Q 1903 3394 2198 3281 
Q 2494 3169 2634 2976 
Q 2775 2784 2828 2463 
L 2278 2388 
Q 2241 2644 2061 2787 
Q 1881 2931 1553 2931 
Q 1166 2931 1000 2803 
Q 834 2675 834 2503 
Q 834 2394 903 2306 
Q 972 2216 1119 2156 
Q 1203 2125 1616 2013 
Q 2213 1853 2448 1751 
Q 2684 1650 2818 1456 
Q 2953 1263 2953 975 
Q 2953 694 2789 445 
Q 2625 197 2315 61 
Q 2006 -75 1616 -75 
Q 969 -75 630 194 
Q 291 463 197 991 
z
" transform="scale(0.015625)"/>
      <path id="ArialMT-69" d="M 425 3934 
L 425 4581 
L 988 4581 
L 988 3934 
L 425 3934 
z
M 425 0 
L 425 3319 
L 988 3319 
L 988 0 
L 425 0 
z
" transform="scale(0.015625)"/>
      <path id="ArialMT-39" d="M 350 1059 
L 891 1109 
Q 959 728 1153 556 
Q 1347 384 1650 384 
Q 1909 384 2104 503 
Q 2300 622 2425 820 
Q 2550 1019 2634 1356 
Q 2719 1694 2719 2044 
Q 2719 2081 2716 2156 
Q 2547 1888 2255 1720 
Q 1963 1553 1622 1553 
Q 1053 1553 659 1965 
Q 266 2378 266 3053 
Q 266 3750 677 4175 
Q 1088 4600 1706 4600 
Q 2153 4600 2523 4359 
Q 2894 4119 3086 3673 
Q 3278 3228 3278 2384 
Q 3278 1506 3087 986 
Q 2897 466 2520 194 
Q 2144 -78 1638 -78 
Q 1100 -78 759 220 
Q 419 519 350 1059 
z
M 2653 3081 
Q 2653 3566 2395 3850 
Q 2138 4134 1775 4134 
Q 1400 4134 1122 3828 
Q 844 3522 844 3034 
Q 844 2597 1108 2323 
Q 1372 2050 1759 2050 
Q 2150 2050 2401 2323 
Q 2653 2597 2653 3081 
z
" transform="scale(0.015625)"/>
     </defs>
     <use xlink:href="#ArialMT-4e"/>
     <use xlink:href="#ArialMT-3d" x="72.216797"/>
     <use xlink:href="#ArialMT-33" x="130.615234"/>
     <use xlink:href="#ArialMT-2c" x="186.230469"/>
     <use xlink:href="#ArialMT-20" x="214.013672"/>
     <use xlink:href="#ArialMT-70" x="241.796875"/>
     <use xlink:href="#ArialMT-73" x="297.412109"/>
     <use xlink:href="#ArialMT-69" x="347.412109"/>
     <use xlink:href="#ArialMT-3d" x="369.628906"/>
     <use xlink:href="#ArialMT-31" x="428.027344"/>
     <use xlink:href="#ArialMT-2e" x="483.642578"/>
     <use xlink:href="#ArialMT-39" x="511.425781"/>
     <use xlink:href="#ArialMT-36" x="567.041016"/>
    </g>
   </g>
   <g id="legend_1">
    <g id="line2d_16">
     <g>
      <use xlink:href="#mcb4e3fb3d8" x="55.032875" y="31.238875" style="stroke: #000000; stroke-width: 2"/>
     </g>
    </g>
    <g id="text_16">
     <!-- Observations -->
     <g style="fill: #262626" transform="translate(70.872875 34.318875) scale(0.088 -0.088)">
      <defs>
       <path id="ArialMT-4f" d="M 309 2231 
Q 309 3372 921 4017 
Q 1534 4663 2503 4663 
Q 3138 4663 3647 4359 
Q 4156 4056 4423 3514 
Q 4691 2972 4691 2284 
Q 4691 1588 4409 1038 
Q 4128 488 3612 205 
Q 3097 -78 2500 -78 
Q 1853 -78 1343 234 
Q 834 547 571 1087 
Q 309 1628 309 2231 
z
M 934 2222 
Q 934 1394 1379 917 
Q 1825 441 2497 441 
Q 3181 441 3623 922 
Q 4066 1403 4066 2288 
Q 4066 2847 3877 3264 
Q 3688 3681 3323 3911 
Q 2959 4141 2506 4141 
Q 1863 4141 1398 3698 
Q 934 3256 934 2222 
z
" transform="scale(0.015625)"/>
       <path id="ArialMT-62" d="M 941 0 
L 419 0 
L 419 4581 
L 981 4581 
L 981 2947 
Q 1338 3394 1891 3394 
Q 2197 3394 2470 3270 
Q 2744 3147 2920 2923 
Q 3097 2700 3197 2384 
Q 3297 2069 3297 1709 
Q 3297 856 2875 390 
Q 2453 -75 1863 -75 
Q 1275 -75 941 416 
L 941 0 
z
M 934 1684 
Q 934 1088 1097 822 
Q 1363 388 1816 388 
Q 2184 388 2453 708 
Q 2722 1028 2722 1663 
Q 2722 2313 2464 2622 
Q 2206 2931 1841 2931 
Q 1472 2931 1203 2611 
Q 934 2291 934 1684 
z
" transform="scale(0.015625)"/>
       <path id="ArialMT-65" d="M 2694 1069 
L 3275 997 
Q 3138 488 2766 206 
Q 2394 -75 1816 -75 
Q 1088 -75 661 373 
Q 234 822 234 1631 
Q 234 2469 665 2931 
Q 1097 3394 1784 3394 
Q 2450 3394 2872 2941 
Q 3294 2488 3294 1666 
Q 3294 1616 3291 1516 
L 816 1516 
Q 847 969 1125 678 
Q 1403 388 1819 388 
Q 2128 388 2347 550 
Q 2566 713 2694 1069 
z
M 847 1978 
L 2700 1978 
Q 2663 2397 2488 2606 
Q 2219 2931 1791 2931 
Q 1403 2931 1139 2672 
Q 875 2413 847 1978 
z
" transform="scale(0.015625)"/>
       <path id="ArialMT-72" d="M 416 0 
L 416 3319 
L 922 3319 
L 922 2816 
Q 1116 3169 1280 3281 
Q 1444 3394 1641 3394 
Q 1925 3394 2219 3213 
L 2025 2691 
Q 1819 2813 1613 2813 
Q 1428 2813 1281 2702 
Q 1134 2591 1072 2394 
Q 978 2094 978 1738 
L 978 0 
L 416 0 
z
" transform="scale(0.015625)"/>
       <path id="ArialMT-76" d="M 1344 0 
L 81 3319 
L 675 3319 
L 1388 1331 
Q 1503 1009 1600 663 
Q 1675 925 1809 1294 
L 2547 3319 
L 3125 3319 
L 1869 0 
L 1344 0 
z
" transform="scale(0.015625)"/>
       <path id="ArialMT-61" d="M 2588 409 
Q 2275 144 1986 34 
Q 1697 -75 1366 -75 
Q 819 -75 525 192 
Q 231 459 231 875 
Q 231 1119 342 1320 
Q 453 1522 633 1644 
Q 813 1766 1038 1828 
Q 1203 1872 1538 1913 
Q 2219 1994 2541 2106 
Q 2544 2222 2544 2253 
Q 2544 2597 2384 2738 
Q 2169 2928 1744 2928 
Q 1347 2928 1158 2789 
Q 969 2650 878 2297 
L 328 2372 
Q 403 2725 575 2942 
Q 747 3159 1072 3276 
Q 1397 3394 1825 3394 
Q 2250 3394 2515 3294 
Q 2781 3194 2906 3042 
Q 3031 2891 3081 2659 
Q 3109 2516 3109 2141 
L 3109 1391 
Q 3109 606 3145 398 
Q 3181 191 3288 0 
L 2700 0 
Q 2613 175 2588 409 
z
M 2541 1666 
Q 2234 1541 1622 1453 
Q 1275 1403 1131 1340 
Q 988 1278 909 1158 
Q 831 1038 831 891 
Q 831 666 1001 516 
Q 1172 366 1500 366 
Q 1825 366 2078 508 
Q 2331 650 2450 897 
Q 2541 1088 2541 1459 
L 2541 1666 
z
" transform="scale(0.015625)"/>
       <path id="ArialMT-74" d="M 1650 503 
L 1731 6 
Q 1494 -44 1306 -44 
Q 1000 -44 831 53 
Q 663 150 594 308 
Q 525 466 525 972 
L 525 2881 
L 113 2881 
L 113 3319 
L 525 3319 
L 525 4141 
L 1084 4478 
L 1084 3319 
L 1650 3319 
L 1650 2881 
L 1084 2881 
L 1084 941 
Q 1084 700 1114 631 
Q 1144 563 1211 522 
Q 1278 481 1403 481 
Q 1497 481 1650 503 
z
" transform="scale(0.015625)"/>
       <path id="ArialMT-6f" d="M 213 1659 
Q 213 2581 725 3025 
Q 1153 3394 1769 3394 
Q 2453 3394 2887 2945 
Q 3322 2497 3322 1706 
Q 3322 1066 3130 698 
Q 2938 331 2570 128 
Q 2203 -75 1769 -75 
Q 1072 -75 642 372 
Q 213 819 213 1659 
z
M 791 1659 
Q 791 1022 1069 705 
Q 1347 388 1769 388 
Q 2188 388 2466 706 
Q 2744 1025 2744 1678 
Q 2744 2294 2464 2611 
Q 2184 2928 1769 2928 
Q 1347 2928 1069 2612 
Q 791 2297 791 1659 
z
" transform="scale(0.015625)"/>
       <path id="ArialMT-6e" d="M 422 0 
L 422 3319 
L 928 3319 
L 928 2847 
Q 1294 3394 1984 3394 
Q 2284 3394 2536 3286 
Q 2788 3178 2913 3003 
Q 3038 2828 3088 2588 
Q 3119 2431 3119 2041 
L 3119 0 
L 2556 0 
L 2556 2019 
Q 2556 2363 2490 2533 
Q 2425 2703 2258 2804 
Q 2091 2906 1866 2906 
Q 1506 2906 1245 2678 
Q 984 2450 984 1813 
L 984 0 
L 422 0 
z
" transform="scale(0.015625)"/>
      </defs>
      <use xlink:href="#ArialMT-4f"/>
      <use xlink:href="#ArialMT-62" x="77.783203"/>
      <use xlink:href="#ArialMT-73" x="133.398438"/>
      <use xlink:href="#ArialMT-65" x="183.398438"/>
      <use xlink:href="#ArialMT-72" x="239.013672"/>
      <use xlink:href="#ArialMT-76" x="272.314453"/>
      <use xlink:href="#ArialMT-61" x="322.314453"/>
      <use xlink:href="#ArialMT-74" x="377.929688"/>
      <use xlink:href="#ArialMT-69" x="405.712891"/>
      <use xlink:href="#ArialMT-6f" x="427.929688"/>
      <use xlink:href="#ArialMT-6e" x="483.544922"/>
      <use xlink:href="#ArialMT-73" x="539.160156"/>
     </g>
    </g>
    <g id="line2d_17">
     <path d="M 46.232875 43.822875 
L 55.032875 43.822875 
L 63.832875 43.822875 
" style="fill: none; stroke: #1f77b4; stroke-width: 2; stroke-linecap: round"/>
    </g>
    <g id="text_17">
     <!-- $m_n(x)$ -->
     <g style="fill: #262626" transform="translate(70.872875 46.902875) scale(0.088 -0.088)">
      <defs>
       <path id="DejaVuSans-Oblique-6d" d="M 5747 2113 
L 5338 0 
L 4763 0 
L 5166 2094 
Q 5191 2228 5203 2325 
Q 5216 2422 5216 2491 
Q 5216 2772 5059 2928 
Q 4903 3084 4622 3084 
Q 4203 3084 3875 2770 
Q 3547 2456 3450 1953 
L 3066 0 
L 2491 0 
L 2900 2094 
Q 2925 2209 2937 2307 
Q 2950 2406 2950 2484 
Q 2950 2769 2794 2926 
Q 2638 3084 2363 3084 
Q 1938 3084 1609 2770 
Q 1281 2456 1184 1953 
L 800 0 
L 225 0 
L 909 3500 
L 1484 3500 
L 1375 2956 
Q 1609 3263 1923 3423 
Q 2238 3584 2597 3584 
Q 2978 3584 3223 3384 
Q 3469 3184 3519 2828 
Q 3781 3197 4126 3390 
Q 4472 3584 4856 3584 
Q 5306 3584 5551 3325 
Q 5797 3066 5797 2591 
Q 5797 2488 5784 2364 
Q 5772 2241 5747 2113 
z
" transform="scale(0.015625)"/>
       <path id="DejaVuSans-Oblique-6e" d="M 3566 2113 
L 3156 0 
L 2578 0 
L 2988 2091 
Q 3016 2238 3031 2350 
Q 3047 2463 3047 2528 
Q 3047 2791 2881 2937 
Q 2716 3084 2419 3084 
Q 1956 3084 1622 2776 
Q 1288 2469 1184 1941 
L 800 0 
L 225 0 
L 903 3500 
L 1478 3500 
L 1363 2950 
Q 1603 3253 1940 3418 
Q 2278 3584 2650 3584 
Q 3113 3584 3367 3334 
Q 3622 3084 3622 2631 
Q 3622 2519 3608 2391 
Q 3594 2263 3566 2113 
z
" transform="scale(0.015625)"/>
       <path id="DejaVuSans-28" d="M 1984 4856 
Q 1566 4138 1362 3434 
Q 1159 2731 1159 2009 
Q 1159 1288 1364 580 
Q 1569 -128 1984 -844 
L 1484 -844 
Q 1016 -109 783 600 
Q 550 1309 550 2009 
Q 550 2706 781 3412 
Q 1013 4119 1484 4856 
L 1984 4856 
z
" transform="scale(0.015625)"/>
       <path id="DejaVuSans-29" d="M 513 4856 
L 1013 4856 
Q 1481 4119 1714 3412 
Q 1947 2706 1947 2009 
Q 1947 1309 1714 600 
Q 1481 -109 1013 -844 
L 513 -844 
Q 928 -128 1133 580 
Q 1338 1288 1338 2009 
Q 1338 2731 1133 3434 
Q 928 4138 513 4856 
z
" transform="scale(0.015625)"/>
      </defs>
      <use xlink:href="#DejaVuSans-Oblique-6d" transform="translate(0 0.125)"/>
      <use xlink:href="#DejaVuSans-Oblique-6e" transform="translate(97.412109 -16.28125) scale(0.7)"/>
      <use xlink:href="#DejaVuSans-28" transform="translate(144.511719 0.125)"/>
      <use xlink:href="#DejaVuSans-Oblique-78" transform="translate(183.525391 0.125)"/>
      <use xlink:href="#DejaVuSans-29" transform="translate(242.705078 0.125)"/>
     </g>
    </g>
    <g id="patch_5">
     <path d="M 46.232875 61.059875 
L 63.832875 61.059875 
L 63.832875 54.899875 
L 46.232875 54.899875 
z
" style="fill: #1f77b4; fill-opacity: 0.5; stroke: #1f77b4; stroke-opacity: 0.5; stroke-width: 0.8; stroke-linejoin: miter"/>
    </g>
    <g id="text_18">
     <!-- $f(\mathbf{x}^*)$ 95% pred. -->
     <g style="fill: #262626" transform="translate(70.872875 61.059875) scale(0.088 -0.088)">
      <defs>
       <path id="DejaVuSans-Oblique-66" d="M 3059 4863 
L 2969 4384 
L 2419 4384 
Q 2106 4384 1964 4261 
Q 1822 4138 1753 3809 
L 1691 3500 
L 2638 3500 
L 2553 3053 
L 1606 3053 
L 1013 0 
L 434 0 
L 1031 3053 
L 481 3053 
L 563 3500 
L 1113 3500 
L 1159 3744 
Q 1278 4363 1576 4613 
Q 1875 4863 2516 4863 
L 3059 4863 
z
" transform="scale(0.015625)"/>
       <path id="DejaVuSans-Bold-78" d="M 1422 1791 
L 159 3500 
L 1344 3500 
L 2059 2463 
L 2784 3500 
L 3969 3500 
L 2706 1797 
L 4031 0 
L 2847 0 
L 2059 1106 
L 1281 0 
L 97 0 
L 1422 1791 
z
" transform="scale(0.015625)"/>
       <path id="DejaVuSans-2a" d="M 3009 3897 
L 1888 3291 
L 3009 2681 
L 2828 2375 
L 1778 3009 
L 1778 1831 
L 1422 1831 
L 1422 3009 
L 372 2375 
L 191 2681 
L 1313 3291 
L 191 3897 
L 372 4206 
L 1422 3572 
L 1422 4750 
L 1778 4750 
L 1778 3572 
L 2828 4206 
L 3009 3897 
z
" transform="scale(0.015625)"/>
       <path id="ArialMT-35" d="M 266 1200 
L 856 1250 
Q 922 819 1161 601 
Q 1400 384 1738 384 
Q 2144 384 2425 690 
Q 2706 997 2706 1503 
Q 2706 1984 2436 2262 
Q 2166 2541 1728 2541 
Q 1456 2541 1237 2417 
Q 1019 2294 894 2097 
L 366 2166 
L 809 4519 
L 3088 4519 
L 3088 3981 
L 1259 3981 
L 1013 2750 
Q 1425 3038 1878 3038 
Q 2478 3038 2890 2622 
Q 3303 2206 3303 1553 
Q 3303 931 2941 478 
Q 2500 -78 1738 -78 
Q 1113 -78 717 272 
Q 322 622 266 1200 
z
" transform="scale(0.015625)"/>
       <path id="ArialMT-25" d="M 372 3481 
Q 372 3972 619 4315 
Q 866 4659 1334 4659 
Q 1766 4659 2048 4351 
Q 2331 4044 2331 3447 
Q 2331 2866 2045 2552 
Q 1759 2238 1341 2238 
Q 925 2238 648 2547 
Q 372 2856 372 3481 
z
M 1350 4272 
Q 1141 4272 1002 4090 
Q 863 3909 863 3425 
Q 863 2984 1003 2804 
Q 1144 2625 1350 2625 
Q 1563 2625 1702 2806 
Q 1841 2988 1841 3469 
Q 1841 3913 1700 4092 
Q 1559 4272 1350 4272 
z
M 1353 -169 
L 3859 4659 
L 4316 4659 
L 1819 -169 
L 1353 -169 
z
M 3334 1075 
Q 3334 1569 3581 1911 
Q 3828 2253 4300 2253 
Q 4731 2253 5014 1945 
Q 5297 1638 5297 1041 
Q 5297 459 5011 145 
Q 4725 -169 4303 -169 
Q 3888 -169 3611 142 
Q 3334 453 3334 1075 
z
M 4316 1866 
Q 4103 1866 3964 1684 
Q 3825 1503 3825 1019 
Q 3825 581 3965 400 
Q 4106 219 4313 219 
Q 4528 219 4667 400 
Q 4806 581 4806 1063 
Q 4806 1506 4665 1686 
Q 4525 1866 4316 1866 
z
" transform="scale(0.015625)"/>
       <path id="ArialMT-64" d="M 2575 0 
L 2575 419 
Q 2259 -75 1647 -75 
Q 1250 -75 917 144 
Q 584 363 401 755 
Q 219 1147 219 1656 
Q 219 2153 384 2558 
Q 550 2963 881 3178 
Q 1213 3394 1622 3394 
Q 1922 3394 2156 3267 
Q 2391 3141 2538 2938 
L 2538 4581 
L 3097 4581 
L 3097 0 
L 2575 0 
z
M 797 1656 
Q 797 1019 1065 703 
Q 1334 388 1700 388 
Q 2069 388 2326 689 
Q 2584 991 2584 1609 
Q 2584 2291 2321 2609 
Q 2059 2928 1675 2928 
Q 1300 2928 1048 2622 
Q 797 2316 797 1656 
z
" transform="scale(0.015625)"/>
      </defs>
      <use xlink:href="#DejaVuSans-Oblique-66" transform="translate(0 0.765625)"/>
      <use xlink:href="#DejaVuSans-28" transform="translate(35.205078 0.765625)"/>
      <use xlink:href="#DejaVuSans-Bold-78" transform="translate(74.21875 0.765625)"/>
      <use xlink:href="#DejaVuSans-2a" transform="translate(153.31543 39.046875) scale(0.7)"/>
      <use xlink:href="#DejaVuSans-29" transform="translate(204.6875 0.765625)"/>
      <use xlink:href="#ArialMT-20" transform="translate(243.701172 0.765625)"/>
      <use xlink:href="#ArialMT-39" transform="translate(271.484375 0.765625)"/>
      <use xlink:href="#ArialMT-35" transform="translate(327.099609 0.765625)"/>
      <use xlink:href="#ArialMT-25" transform="translate(382.714844 0.765625)"/>
      <use xlink:href="#ArialMT-20" transform="translate(471.630859 0.765625)"/>
      <use xlink:href="#ArialMT-70" transform="translate(499.414062 0.765625)"/>
      <use xlink:href="#ArialMT-72" transform="translate(555.029297 0.765625)"/>
      <use xlink:href="#ArialMT-65" transform="translate(588.330078 0.765625)"/>
      <use xlink:href="#ArialMT-64" transform="translate(643.945312 0.765625)"/>
      <use xlink:href="#ArialMT-2e" transform="translate(699.560547 0.765625)"/>
     </g>
    </g>
    <g id="patch_6">
     <path d="M 46.232875 75.227875 
L 63.832875 75.227875 
L 63.832875 69.067875 
L 46.232875 69.067875 
z
" style="fill: #ff7f0e; fill-opacity: 0.5; stroke: #ff7f0e; stroke-opacity: 0.5; stroke-width: 0.8; stroke-linejoin: miter"/>
    </g>
    <g id="text_19">
     <!-- $y^*$ 95% pred. -->
     <g style="fill: #262626" transform="translate(70.872875 75.227875) scale(0.088 -0.088)">
      <use xlink:href="#DejaVuSans-Oblique-79" transform="translate(0 0.765625)"/>
      <use xlink:href="#DejaVuSans-2a" transform="translate(77.283529 39.046875) scale(0.7)"/>
      <use xlink:href="#ArialMT-20" transform="translate(128.655599 0.765625)"/>
      <use xlink:href="#ArialMT-39" transform="translate(156.438802 0.765625)"/>
      <use xlink:href="#ArialMT-35" transform="translate(212.054036 0.765625)"/>
      <use xlink:href="#ArialMT-25" transform="translate(267.669271 0.765625)"/>
      <use xlink:href="#ArialMT-20" transform="translate(356.585286 0.765625)"/>
      <use xlink:href="#ArialMT-70" transform="translate(384.36849 0.765625)"/>
      <use xlink:href="#ArialMT-72" transform="translate(439.983724 0.765625)"/>
      <use xlink:href="#ArialMT-65" transform="translate(473.284505 0.765625)"/>
      <use xlink:href="#ArialMT-64" transform="translate(528.89974 0.765625)"/>
      <use xlink:href="#ArialMT-2e" transform="translate(584.514974 0.765625)"/>
     </g>
    </g>
    <g id="line2d_18">
     <path d="M 46.232875 84.69475 
L 55.032875 84.69475 
L 63.832875 84.69475 
" style="fill: none; stroke-dasharray: 7.68,1.92,1.2,1.92; stroke-dashoffset: 0; stroke: #bf00bf; stroke-width: 1.2"/>
    </g>
    <g id="text_20">
     <!-- True function -->
     <g style="fill: #262626" transform="translate(70.872875 87.77475) scale(0.088 -0.088)">
      <defs>
       <path id="ArialMT-54" d="M 1659 0 
L 1659 4041 
L 150 4041 
L 150 4581 
L 3781 4581 
L 3781 4041 
L 2266 4041 
L 2266 0 
L 1659 0 
z
" transform="scale(0.015625)"/>
       <path id="ArialMT-75" d="M 2597 0 
L 2597 488 
Q 2209 -75 1544 -75 
Q 1250 -75 995 37 
Q 741 150 617 320 
Q 494 491 444 738 
Q 409 903 409 1263 
L 409 3319 
L 972 3319 
L 972 1478 
Q 972 1038 1006 884 
Q 1059 663 1231 536 
Q 1403 409 1656 409 
Q 1909 409 2131 539 
Q 2353 669 2445 892 
Q 2538 1116 2538 1541 
L 2538 3319 
L 3100 3319 
L 3100 0 
L 2597 0 
z
" transform="scale(0.015625)"/>
       <path id="ArialMT-66" d="M 556 0 
L 556 2881 
L 59 2881 
L 59 3319 
L 556 3319 
L 556 3672 
Q 556 4006 616 4169 
Q 697 4388 901 4523 
Q 1106 4659 1475 4659 
Q 1713 4659 2000 4603 
L 1916 4113 
Q 1741 4144 1584 4144 
Q 1328 4144 1222 4034 
Q 1116 3925 1116 3625 
L 1116 3319 
L 1763 3319 
L 1763 2881 
L 1116 2881 
L 1116 0 
L 556 0 
z
" transform="scale(0.015625)"/>
       <path id="ArialMT-63" d="M 2588 1216 
L 3141 1144 
Q 3050 572 2676 248 
Q 2303 -75 1759 -75 
Q 1078 -75 664 370 
Q 250 816 250 1647 
Q 250 2184 428 2587 
Q 606 2991 970 3192 
Q 1334 3394 1763 3394 
Q 2303 3394 2647 3120 
Q 2991 2847 3088 2344 
L 2541 2259 
Q 2463 2594 2264 2762 
Q 2066 2931 1784 2931 
Q 1359 2931 1093 2626 
Q 828 2322 828 1663 
Q 828 994 1084 691 
Q 1341 388 1753 388 
Q 2084 388 2306 591 
Q 2528 794 2588 1216 
z
" transform="scale(0.015625)"/>
      </defs>
      <use xlink:href="#ArialMT-54"/>
      <use xlink:href="#ArialMT-72" x="57.333984"/>
      <use xlink:href="#ArialMT-75" x="90.634766"/>
      <use xlink:href="#ArialMT-65" x="146.25"/>
      <use xlink:href="#ArialMT-20" x="201.865234"/>
      <use xlink:href="#ArialMT-66" x="229.648438"/>
      <use xlink:href="#ArialMT-75" x="257.431641"/>
      <use xlink:href="#ArialMT-6e" x="313.046875"/>
      <use xlink:href="#ArialMT-63" x="368.662109"/>
      <use xlink:href="#ArialMT-74" x="418.662109"/>
      <use xlink:href="#ArialMT-69" x="446.445312"/>
      <use xlink:href="#ArialMT-6f" x="468.662109"/>
      <use xlink:href="#ArialMT-6e" x="524.277344"/>
     </g>
    </g>
   </g>
  </g>
  <g id="axes_2">
   <g id="matplotlib.axis_3">
    <g id="ytick_7">
     <g id="line2d_19">
      <defs>
       <path id="m654a68d365" d="M 0 0 
L 4.8 0 
" style="stroke: #262626"/>
      </defs>
      <g>
       <use xlink:href="#m654a68d365" x="395.432875" y="260.646706" style="fill: #262626; stroke: #262626"/>
      </g>
     </g>
     <g id="text_21">
      <!-- 0 -->
      <g style="fill: #ff7f0e" transform="translate(403.732875 263.796144) scale(0.088 -0.088)">
       <use xlink:href="#ArialMT-30"/>
      </g>
     </g>
    </g>
    <g id="ytick_8">
     <g id="line2d_20">
      <g>
       <use xlink:href="#m654a68d365" x="395.432875" y="203.632438" style="fill: #262626; stroke: #262626"/>
      </g>
     </g>
     <g id="text_22">
      <!-- 2 -->
      <g style="fill: #ff7f0e" transform="translate(403.732875 206.781876) scale(0.088 -0.088)">
       <use xlink:href="#ArialMT-32"/>
      </g>
     </g>
    </g>
    <g id="ytick_9">
     <g id="line2d_21">
      <g>
       <use xlink:href="#m654a68d365" x="395.432875" y="146.61817" style="fill: #262626; stroke: #262626"/>
      </g>
     </g>
     <g id="text_23">
      <!-- 4 -->
      <g style="fill: #ff7f0e" transform="translate(403.732875 149.767607) scale(0.088 -0.088)">
       <use xlink:href="#ArialMT-34"/>
      </g>
     </g>
    </g>
    <g id="ytick_10">
     <g id="line2d_22">
      <g>
       <use xlink:href="#m654a68d365" x="395.432875" y="89.603902" style="fill: #262626; stroke: #262626"/>
      </g>
     </g>
     <g id="text_24">
      <!-- 6 -->
      <g style="fill: #ff7f0e" transform="translate(403.732875 92.753339) scale(0.088 -0.088)">
       <use xlink:href="#ArialMT-36"/>
      </g>
     </g>
    </g>
    <g id="ytick_11">
     <g id="line2d_23">
      <g>
       <use xlink:href="#m654a68d365" x="395.432875" y="32.589634" style="fill: #262626; stroke: #262626"/>
      </g>
     </g>
     <g id="text_25">
      <!-- 8 -->
      <g style="fill: #ff7f0e" transform="translate(403.732875 35.739071) scale(0.088 -0.088)">
       <use xlink:href="#ArialMT-38"/>
      </g>
     </g>
    </g>
    <g id="text_26">
     <!-- Maximum Upper Interval -->
     <g style="fill: #ff7f0e" transform="translate(419.498 205.43475) rotate(-90) scale(0.096 -0.096)">
      <defs>
       <path id="ArialMT-4d" d="M 475 0 
L 475 4581 
L 1388 4581 
L 2472 1338 
Q 2622 884 2691 659 
Q 2769 909 2934 1394 
L 4031 4581 
L 4847 4581 
L 4847 0 
L 4263 0 
L 4263 3834 
L 2931 0 
L 2384 0 
L 1059 3900 
L 1059 0 
L 475 0 
z
" transform="scale(0.015625)"/>
       <path id="ArialMT-78" d="M 47 0 
L 1259 1725 
L 138 3319 
L 841 3319 
L 1350 2541 
Q 1494 2319 1581 2169 
Q 1719 2375 1834 2534 
L 2394 3319 
L 3066 3319 
L 1919 1756 
L 3153 0 
L 2463 0 
L 1781 1031 
L 1600 1309 
L 728 0 
L 47 0 
z
" transform="scale(0.015625)"/>
       <path id="ArialMT-6d" d="M 422 0 
L 422 3319 
L 925 3319 
L 925 2853 
Q 1081 3097 1340 3245 
Q 1600 3394 1931 3394 
Q 2300 3394 2536 3241 
Q 2772 3088 2869 2813 
Q 3263 3394 3894 3394 
Q 4388 3394 4653 3120 
Q 4919 2847 4919 2278 
L 4919 0 
L 4359 0 
L 4359 2091 
Q 4359 2428 4304 2576 
Q 4250 2725 4106 2815 
Q 3963 2906 3769 2906 
Q 3419 2906 3187 2673 
Q 2956 2441 2956 1928 
L 2956 0 
L 2394 0 
L 2394 2156 
Q 2394 2531 2256 2718 
Q 2119 2906 1806 2906 
Q 1569 2906 1367 2781 
Q 1166 2656 1075 2415 
Q 984 2175 984 1722 
L 984 0 
L 422 0 
z
" transform="scale(0.015625)"/>
       <path id="ArialMT-55" d="M 3500 4581 
L 4106 4581 
L 4106 1934 
Q 4106 1244 3950 837 
Q 3794 431 3386 176 
Q 2978 -78 2316 -78 
Q 1672 -78 1262 144 
Q 853 366 678 786 
Q 503 1206 503 1934 
L 503 4581 
L 1109 4581 
L 1109 1938 
Q 1109 1341 1220 1058 
Q 1331 775 1601 622 
Q 1872 469 2263 469 
Q 2931 469 3215 772 
Q 3500 1075 3500 1938 
L 3500 4581 
z
" transform="scale(0.015625)"/>
       <path id="ArialMT-49" d="M 597 0 
L 597 4581 
L 1203 4581 
L 1203 0 
L 597 0 
z
" transform="scale(0.015625)"/>
       <path id="ArialMT-6c" d="M 409 0 
L 409 4581 
L 972 4581 
L 972 0 
L 409 0 
z
" transform="scale(0.015625)"/>
      </defs>
      <use xlink:href="#ArialMT-4d"/>
      <use xlink:href="#ArialMT-61" x="83.300781"/>
      <use xlink:href="#ArialMT-78" x="138.916016"/>
      <use xlink:href="#ArialMT-69" x="188.916016"/>
      <use xlink:href="#ArialMT-6d" x="211.132812"/>
      <use xlink:href="#ArialMT-75" x="294.433594"/>
      <use xlink:href="#ArialMT-6d" x="350.048828"/>
      <use xlink:href="#ArialMT-20" x="433.349609"/>
      <use xlink:href="#ArialMT-55" x="461.132812"/>
      <use xlink:href="#ArialMT-70" x="533.349609"/>
      <use xlink:href="#ArialMT-70" x="588.964844"/>
      <use xlink:href="#ArialMT-65" x="644.580078"/>
      <use xlink:href="#ArialMT-72" x="700.195312"/>
      <use xlink:href="#ArialMT-20" x="733.496094"/>
      <use xlink:href="#ArialMT-49" x="761.279297"/>
      <use xlink:href="#ArialMT-6e" x="789.0625"/>
      <use xlink:href="#ArialMT-74" x="844.677734"/>
      <use xlink:href="#ArialMT-65" x="872.460938"/>
      <use xlink:href="#ArialMT-72" x="928.076172"/>
      <use xlink:href="#ArialMT-76" x="961.376953"/>
      <use xlink:href="#ArialMT-61" x="1011.376953"/>
      <use xlink:href="#ArialMT-6c" x="1066.992188"/>
     </g>
    </g>
   </g>
   <g id="line2d_24">
    <path d="M 54.545602 154.543259 
L 57.824941 157.106064 
L 61.10428 160.084769 
L 64.383619 163.493904 
L 67.662958 167.34058 
L 70.942296 171.623354 
L 74.221636 176.3314 
L 77.500973 181.443873 
L 80.780313 186.929202 
L 84.059653 192.745466 
L 87.33899 198.839835 
L 90.61833 205.1495 
L 93.89767 211.602147 
L 97.177007 218.116928 
L 100.456344 224.606721 
L 103.735686 230.978358 
L 107.015024 237.134362 
L 110.294361 242.971938 
L 113.573703 248.27374 
L 116.853041 247.676504 
L 120.132378 245.946679 
L 123.41172 244.768612 
L 126.691057 244.137671 
L 129.970395 244.02049 
L 133.249737 244.36392 
L 136.529069 245.100157 
L 139.808412 246.146004 
L 143.087754 247.406039 
L 146.367086 248.774126 
L 149.646428 250.136208 
L 152.92577 251.366402 
L 156.205103 252.258003 
L 159.484445 249.184601 
L 162.763787 243.766887 
L 166.04312 237.851855 
L 169.322462 231.555684 
L 172.601804 224.967846 
L 175.881137 218.173074 
L 179.160479 211.249374 
L 182.439821 204.266068 
L 185.719153 197.283413 
L 188.998496 190.350477 
L 192.277838 183.503429 
L 195.55717 176.766908 
L 198.836512 170.152278 
L 202.115855 163.659674 
L 205.395187 157.27929 
L 208.674529 150.990089 
L 211.953871 144.767923 
L 215.233204 138.58129 
L 218.512556 132.39773 
L 221.791879 126.186765 
L 225.071221 119.921604 
L 228.350563 113.57699 
L 231.629886 107.142131 
L 234.909247 100.604996 
L 238.18857 93.947791 
L 241.467912 87.067535 
L 244.747254 79.925554 
L 248.026597 72.970834 
L 251.305939 66.430315 
L 254.585262 60.357281 
L 257.864623 54.753799 
L 261.143946 49.590412 
L 264.423288 44.85331 
L 267.70263 40.651606 
L 270.981953 37.159063 
L 274.261315 34.519822 
L 277.540637 32.846845 
L 280.81998 32.196 
L 284.099322 32.26886 
L 287.378664 32.811448 
L 290.658006 34.150752 
L 293.937329 36.409489 
L 297.21669 39.650925 
L 300.496013 43.921112 
L 303.775355 49.253598 
L 307.054697 55.674131 
L 310.33402 63.192604 
L 313.613382 71.804737 
L 316.892705 81.491539 
L 320.172047 92.216826 
L 323.451389 103.926659 
L 326.730731 116.55367 
L 330.010073 130.012099 
L 333.289396 144.201057 
L 336.568738 159.005566 
L 339.84808 174.303496 
L 343.127423 189.960758 
L 346.406765 205.833371 
L 349.686088 221.780036 
L 352.96543 237.646377 
L 356.244772 252.905831 
L 359.524114 260.236692 
L 362.803456 265.61085 
L 366.082798 269.654415 
L 369.362141 272.389396 
L 372.641463 273.85601 
L 375.920806 274.116 
L 379.200148 273.246191 
" clip-path="url(#p2c2a8623ef)" style="fill: none; stroke: #ff7f0e; stroke-width: 1.2; stroke-linecap: round"/>
   </g>
   <g id="line2d_25">
    <path d="M 280.81998 260.646706 
L 280.81998 258.339124 
L 280.81998 256.031541 
L 280.81998 253.723958 
L 280.81998 251.416375 
L 280.81998 249.108792 
L 280.81998 246.801209 
L 280.81998 244.493627 
L 280.81998 242.186044 
L 280.81998 239.87846 
L 280.81998 237.570879 
L 280.81998 235.263295 
L 280.81998 232.955712 
L 280.81998 230.64813 
L 280.81998 228.340548 
L 280.81998 226.032963 
L 280.81998 223.725381 
L 280.81998 221.417799 
L 280.81998 219.110214 
L 280.81998 216.802633 
L 280.81998 214.495051 
L 280.81998 212.187466 
L 280.81998 209.879884 
L 280.81998 207.572302 
L 280.81998 205.264717 
L 280.81998 202.957139 
L 280.81998 200.649553 
L 280.81998 198.341968 
L 280.81998 196.03439 
L 280.81998 193.726805 
L 280.81998 191.41922 
L 280.81998 189.111641 
L 280.81998 186.804056 
L 280.81998 184.496471 
L 280.81998 182.188893 
L 280.81998 179.881307 
L 280.81998 177.573722 
L 280.81998 175.266144 
L 280.81998 172.958559 
L 280.81998 170.650974 
L 280.81998 168.343395 
L 280.81998 166.03581 
L 280.81998 163.728225 
L 280.81998 161.420646 
L 280.81998 159.113061 
L 280.81998 156.805476 
L 280.81998 154.497898 
L 280.81998 152.190313 
L 280.81998 149.882728 
L 280.81998 147.575149 
L 280.81998 145.267557 
L 280.81998 142.959979 
L 280.81998 140.652387 
L 280.81998 138.344809 
L 280.81998 136.03723 
L 280.81998 133.729638 
L 280.81998 131.42206 
L 280.81998 129.114481 
L 280.81998 126.80689 
L 280.81998 124.499311 
L 280.81998 122.191733 
L 280.81998 119.884141 
L 280.81998 117.576562 
L 280.81998 115.268984 
L 280.81998 112.961392 
L 280.81998 110.653814 
L 280.81998 108.346235 
L 280.81998 106.038643 
L 280.81998 103.731065 
L 280.81998 101.423487 
L 280.81998 99.115895 
L 280.81998 96.808316 
L 280.81998 94.500738 
L 280.81998 92.193146 
L 280.81998 89.885568 
L 280.81998 87.577989 
L 280.81998 85.270397 
L 280.81998 82.962819 
L 280.81998 80.655241 
L 280.81998 78.347649 
L 280.81998 76.04007 
L 280.81998 73.732492 
L 280.81998 71.4249 
L 280.81998 69.117322 
L 280.81998 66.809743 
L 280.81998 64.502151 
L 280.81998 62.194573 
L 280.81998 59.886995 
L 280.81998 57.579416 
L 280.81998 55.271824 
L 280.81998 52.964246 
L 280.81998 50.656668 
L 280.81998 48.349076 
L 280.81998 46.041497 
L 280.81998 43.733919 
L 280.81998 41.426327 
L 280.81998 39.118749 
L 280.81998 36.81117 
L 280.81998 34.503578 
L 280.81998 32.196 
" clip-path="url(#p2c2a8623ef)" style="fill: none; stroke: #ff7f0e; stroke-linecap: round"/>
   </g>
   <g id="patch_7">
    <path d="M 38.312875 286.212 
L 38.312875 20.1 
" style="fill: none; stroke: #262626; stroke-linejoin: miter; stroke-linecap: square"/>
   </g>
   <g id="patch_8">
    <path d="M 395.432875 286.212 
L 395.432875 20.1 
" style="fill: none; stroke: #262626; stroke-linejoin: miter; stroke-linecap: square"/>
   </g>
   <g id="patch_9">
    <path d="M 38.312875 286.212 
L 395.432875 286.212 
" style="fill: none; stroke: #262626; stroke-linejoin: miter; stroke-linecap: square"/>
   </g>
   <g id="patch_10">
    <path d="M 38.312875 20.1 
L 395.432875 20.1 
" style="fill: none; stroke: #262626; stroke-linejoin: miter; stroke-linecap: square"/>
   </g>
  </g>
 </g>
 <defs>
  <clipPath id="p2c2a8623ef">
   <rect x="38.312875" y="20.1" width="357.12" height="266.112"/>
  </clipPath>
 </defs>
</svg>