<?xml version="1.0" encoding="utf-8" standalone="no"?>
<!DOCTYPE svg PUBLIC "-//W3C//DTD SVG 1.1//EN"
  "http://www.w3.org/Graphics/SVG/1.1/DTD/svg11.dtd">
<svg xmlns:xlink="http://www.w3.org/1999/xlink" width="409.97125pt" height="322.510875pt" viewBox="0 0 409.97125 322.510875" xmlns="http://www.w3.org/2000/svg" version="1.1">
 <metadata>
  <rdf:RDF xmlns:dc="http://purl.org/dc/elements/1.1/" xmlns:cc="http://creativecommons.org/ns#" xmlns:rdf="http://www.w3.org/1999/02/22-rdf-syntax-ns#">
   <cc:Work>
    <dc:type rdf:resource="http://purl.org/dc/dcmitype/StillImage"/>
    <dc:date>2023-09-25T19:43:53.587338</dc:date>
    <dc:format>image/svg+xml</dc:format>
    <dc:creator>
     <cc:Agent>
      <dc:title>Matplotlib v3.7.1, https://matplotlib.org/</dc:title>
     </cc:Agent>
    </dc:creator>
   </cc:Work>
  </rdf:RDF>
 </metadata>
 <defs>
  <style type="text/css">*{stroke-linejoin: round; stroke-linecap: butt}</style>
 </defs>
 <g id="figure_1">
  <g id="patch_1">
   <path d="M 0 322.510875 
L 409.97125 322.510875 
L 409.97125 0 
L 0 0 
z
" style="fill: #ffffff"/>
  </g>
  <g id="axes_1">
   <g id="patch_2">
    <path d="M 45.65125 286.1835 
L 402.77125 286.1835 
L 402.77125 20.0715 
L 45.65125 20.0715 
z
" style="fill: #ffffff"/>
   </g>
   <g id="matplotlib.axis_1">
    <g id="xtick_1">
     <g id="line2d_1">
      <defs>
       <path id="m4e948049b6" d="M 0 0 
L 0 4.8 
" style="stroke: #262626"/>
      </defs>
      <g>
       <use xlink:href="#m4e948049b6" x="76.899088" y="286.1835" style="fill: #262626; stroke: #262626"/>
      </g>
     </g>
     <g id="text_1">
      <!-- −2 -->
      <g style="fill: #262626" transform="translate(71.8824 300.782375) scale(0.088 -0.088)">
       <defs>
        <path id="ArialMT-2212" d="M 3381 1997 
L 356 1997 
L 356 2522 
L 3381 2522 
L 3381 1997 
z
" transform="scale(0.015625)"/>
        <path id="ArialMT-32" d="M 3222 541 
L 3222 0 
L 194 0 
Q 188 203 259 391 
Q 375 700 629 1000 
Q 884 1300 1366 1694 
Q 2113 2306 2375 2664 
Q 2638 3022 2638 3341 
Q 2638 3675 2398 3904 
Q 2159 4134 1775 4134 
Q 1369 4134 1125 3890 
Q 881 3647 878 3216 
L 300 3275 
Q 359 3922 746 4261 
Q 1134 4600 1788 4600 
Q 2447 4600 2831 4234 
Q 3216 3869 3216 3328 
Q 3216 3053 3103 2787 
Q 2991 2522 2730 2228 
Q 2469 1934 1863 1422 
Q 1356 997 1212 845 
Q 1069 694 975 541 
L 3222 541 
z
" transform="scale(0.015625)"/>
       </defs>
       <use xlink:href="#ArialMT-2212"/>
       <use xlink:href="#ArialMT-32" x="58.398438"/>
      </g>
     </g>
    </g>
    <g id="xtick_2">
     <g id="line2d_2">
      <g>
       <use xlink:href="#m4e948049b6" x="150.555169" y="286.1835" style="fill: #262626; stroke: #262626"/>
      </g>
     </g>
     <g id="text_2">
      <!-- −1 -->
      <g style="fill: #262626" transform="translate(145.538481 300.782375) scale(0.088 -0.088)">
       <defs>
        <path id="ArialMT-31" d="M 2384 0 
L 1822 0 
L 1822 3584 
Q 1619 3391 1289 3197 
Q 959 3003 697 2906 
L 697 3450 
Q 1169 3672 1522 3987 
Q 1875 4303 2022 4600 
L 2384 4600 
L 2384 0 
z
" transform="scale(0.015625)"/>
       </defs>
       <use xlink:href="#ArialMT-2212"/>
       <use xlink:href="#ArialMT-31" x="58.398438"/>
      </g>
     </g>
    </g>
    <g id="xtick_3">
     <g id="line2d_3">
      <g>
       <use xlink:href="#m4e948049b6" x="224.21125" y="286.1835" style="fill: #262626; stroke: #262626"/>
      </g>
     </g>
     <g id="text_3">
      <!-- 0 -->
      <g style="fill: #262626" transform="translate(221.764438 300.782375) scale(0.088 -0.088)">
       <defs>
        <path id="ArialMT-30" d="M 266 2259 
Q 266 3072 433 3567 
Q 600 4063 929 4331 
Q 1259 4600 1759 4600 
Q 2128 4600 2406 4451 
Q 2684 4303 2865 4023 
Q 3047 3744 3150 3342 
Q 3253 2941 3253 2259 
Q 3253 1453 3087 958 
Q 2922 463 2592 192 
Q 2263 -78 1759 -78 
Q 1097 -78 719 397 
Q 266 969 266 2259 
z
M 844 2259 
Q 844 1131 1108 757 
Q 1372 384 1759 384 
Q 2147 384 2411 759 
Q 2675 1134 2675 2259 
Q 2675 3391 2411 3762 
Q 2147 4134 1753 4134 
Q 1366 4134 1134 3806 
Q 844 3388 844 2259 
z
" transform="scale(0.015625)"/>
       </defs>
       <use xlink:href="#ArialMT-30"/>
      </g>
     </g>
    </g>
    <g id="xtick_4">
     <g id="line2d_4">
      <g>
       <use xlink:href="#m4e948049b6" x="297.867331" y="286.1835" style="fill: #262626; stroke: #262626"/>
      </g>
     </g>
     <g id="text_4">
      <!-- 1 -->
      <g style="fill: #262626" transform="translate(295.420519 300.782375) scale(0.088 -0.088)">
       <use xlink:href="#ArialMT-31"/>
      </g>
     </g>
    </g>
    <g id="xtick_5">
     <g id="line2d_5">
      <g>
       <use xlink:href="#m4e948049b6" x="371.523412" y="286.1835" style="fill: #262626; stroke: #262626"/>
      </g>
     </g>
     <g id="text_5">
      <!-- 2 -->
      <g style="fill: #262626" transform="translate(369.0766 300.782375) scale(0.088 -0.088)">
       <use xlink:href="#ArialMT-32"/>
      </g>
     </g>
    </g>
    <g id="text_6">
     <!-- Theoretical quantiles -->
     <g style="fill: #262626" transform="translate(179.92225 313.402875) scale(0.096 -0.096)">
      <defs>
       <path id="ArialMT-54" d="M 1659 0 
L 1659 4041 
L 150 4041 
L 150 4581 
L 3781 4581 
L 3781 4041 
L 2266 4041 
L 2266 0 
L 1659 0 
z
" transform="scale(0.015625)"/>
       <path id="ArialMT-68" d="M 422 0 
L 422 4581 
L 984 4581 
L 984 2938 
Q 1378 3394 1978 3394 
Q 2347 3394 2619 3248 
Q 2891 3103 3008 2847 
Q 3125 2591 3125 2103 
L 3125 0 
L 2563 0 
L 2563 2103 
Q 2563 2525 2380 2717 
Q 2197 2909 1863 2909 
Q 1613 2909 1392 2779 
Q 1172 2650 1078 2428 
Q 984 2206 984 1816 
L 984 0 
L 422 0 
z
" transform="scale(0.015625)"/>
       <path id="ArialMT-65" d="M 2694 1069 
L 3275 997 
Q 3138 488 2766 206 
Q 2394 -75 1816 -75 
Q 1088 -75 661 373 
Q 234 822 234 1631 
Q 234 2469 665 2931 
Q 1097 3394 1784 3394 
Q 2450 3394 2872 2941 
Q 3294 2488 3294 1666 
Q 3294 1616 3291 1516 
L 816 1516 
Q 847 969 1125 678 
Q 1403 388 1819 388 
Q 2128 388 2347 550 
Q 2566 713 2694 1069 
z
M 847 1978 
L 2700 1978 
Q 2663 2397 2488 2606 
Q 2219 2931 1791 2931 
Q 1403 2931 1139 2672 
Q 875 2413 847 1978 
z
" transform="scale(0.015625)"/>
       <path id="ArialMT-6f" d="M 213 1659 
Q 213 2581 725 3025 
Q 1153 3394 1769 3394 
Q 2453 3394 2887 2945 
Q 3322 2497 3322 1706 
Q 3322 1066 3130 698 
Q 2938 331 2570 128 
Q 2203 -75 1769 -75 
Q 1072 -75 642 372 
Q 213 819 213 1659 
z
M 791 1659 
Q 791 1022 1069 705 
Q 1347 388 1769 388 
Q 2188 388 2466 706 
Q 2744 1025 2744 1678 
Q 2744 2294 2464 2611 
Q 2184 2928 1769 2928 
Q 1347 2928 1069 2612 
Q 791 2297 791 1659 
z
" transform="scale(0.015625)"/>
       <path id="ArialMT-72" d="M 416 0 
L 416 3319 
L 922 3319 
L 922 2816 
Q 1116 3169 1280 3281 
Q 1444 3394 1641 3394 
Q 1925 3394 2219 3213 
L 2025 2691 
Q 1819 2813 1613 2813 
Q 1428 2813 1281 2702 
Q 1134 2591 1072 2394 
Q 978 2094 978 1738 
L 978 0 
L 416 0 
z
" transform="scale(0.015625)"/>
       <path id="ArialMT-74" d="M 1650 503 
L 1731 6 
Q 1494 -44 1306 -44 
Q 1000 -44 831 53 
Q 663 150 594 308 
Q 525 466 525 972 
L 525 2881 
L 113 2881 
L 113 3319 
L 525 3319 
L 525 4141 
L 1084 4478 
L 1084 3319 
L 1650 3319 
L 1650 2881 
L 1084 2881 
L 1084 941 
Q 1084 700 1114 631 
Q 1144 563 1211 522 
Q 1278 481 1403 481 
Q 1497 481 1650 503 
z
" transform="scale(0.015625)"/>
       <path id="ArialMT-69" d="M 425 3934 
L 425 4581 
L 988 4581 
L 988 3934 
L 425 3934 
z
M 425 0 
L 425 3319 
L 988 3319 
L 988 0 
L 425 0 
z
" transform="scale(0.015625)"/>
       <path id="ArialMT-63" d="M 2588 1216 
L 3141 1144 
Q 3050 572 2676 248 
Q 2303 -75 1759 -75 
Q 1078 -75 664 370 
Q 250 816 250 1647 
Q 250 2184 428 2587 
Q 606 2991 970 3192 
Q 1334 3394 1763 3394 
Q 2303 3394 2647 3120 
Q 2991 2847 3088 2344 
L 2541 2259 
Q 2463 2594 2264 2762 
Q 2066 2931 1784 2931 
Q 1359 2931 1093 2626 
Q 828 2322 828 1663 
Q 828 994 1084 691 
Q 1341 388 1753 388 
Q 2084 388 2306 591 
Q 2528 794 2588 1216 
z
" transform="scale(0.015625)"/>
       <path id="ArialMT-61" d="M 2588 409 
Q 2275 144 1986 34 
Q 1697 -75 1366 -75 
Q 819 -75 525 192 
Q 231 459 231 875 
Q 231 1119 342 1320 
Q 453 1522 633 1644 
Q 813 1766 1038 1828 
Q 1203 1872 1538 1913 
Q 2219 1994 2541 2106 
Q 2544 2222 2544 2253 
Q 2544 2597 2384 2738 
Q 2169 2928 1744 2928 
Q 1347 2928 1158 2789 
Q 969 2650 878 2297 
L 328 2372 
Q 403 2725 575 2942 
Q 747 3159 1072 3276 
Q 1397 3394 1825 3394 
Q 2250 3394 2515 3294 
Q 2781 3194 2906 3042 
Q 3031 2891 3081 2659 
Q 3109 2516 3109 2141 
L 3109 1391 
Q 3109 606 3145 398 
Q 3181 191 3288 0 
L 2700 0 
Q 2613 175 2588 409 
z
M 2541 1666 
Q 2234 1541 1622 1453 
Q 1275 1403 1131 1340 
Q 988 1278 909 1158 
Q 831 1038 831 891 
Q 831 666 1001 516 
Q 1172 366 1500 366 
Q 1825 366 2078 508 
Q 2331 650 2450 897 
Q 2541 1088 2541 1459 
L 2541 1666 
z
" transform="scale(0.015625)"/>
       <path id="ArialMT-6c" d="M 409 0 
L 409 4581 
L 972 4581 
L 972 0 
L 409 0 
z
" transform="scale(0.015625)"/>
       <path id="ArialMT-20" transform="scale(0.015625)"/>
       <path id="ArialMT-71" d="M 2538 -1272 
L 2538 353 
Q 2406 169 2170 47 
Q 1934 -75 1669 -75 
Q 1078 -75 651 397 
Q 225 869 225 1691 
Q 225 2191 398 2587 
Q 572 2984 901 3189 
Q 1231 3394 1625 3394 
Q 2241 3394 2594 2875 
L 2594 3319 
L 3100 3319 
L 3100 -1272 
L 2538 -1272 
z
M 803 1669 
Q 803 1028 1072 708 
Q 1341 388 1716 388 
Q 2075 388 2334 692 
Q 2594 997 2594 1619 
Q 2594 2281 2320 2615 
Q 2047 2950 1678 2950 
Q 1313 2950 1058 2639 
Q 803 2328 803 1669 
z
" transform="scale(0.015625)"/>
       <path id="ArialMT-75" d="M 2597 0 
L 2597 488 
Q 2209 -75 1544 -75 
Q 1250 -75 995 37 
Q 741 150 617 320 
Q 494 491 444 738 
Q 409 903 409 1263 
L 409 3319 
L 972 3319 
L 972 1478 
Q 972 1038 1006 884 
Q 1059 663 1231 536 
Q 1403 409 1656 409 
Q 1909 409 2131 539 
Q 2353 669 2445 892 
Q 2538 1116 2538 1541 
L 2538 3319 
L 3100 3319 
L 3100 0 
L 2597 0 
z
" transform="scale(0.015625)"/>
       <path id="ArialMT-6e" d="M 422 0 
L 422 3319 
L 928 3319 
L 928 2847 
Q 1294 3394 1984 3394 
Q 2284 3394 2536 3286 
Q 2788 3178 2913 3003 
Q 3038 2828 3088 2588 
Q 3119 2431 3119 2041 
L 3119 0 
L 2556 0 
L 2556 2019 
Q 2556 2363 2490 2533 
Q 2425 2703 2258 2804 
Q 2091 2906 1866 2906 
Q 1506 2906 1245 2678 
Q 984 2450 984 1813 
L 984 0 
L 422 0 
z
" transform="scale(0.015625)"/>
       <path id="ArialMT-73" d="M 197 991 
L 753 1078 
Q 800 744 1014 566 
Q 1228 388 1613 388 
Q 2000 388 2187 545 
Q 2375 703 2375 916 
Q 2375 1106 2209 1216 
Q 2094 1291 1634 1406 
Q 1016 1563 777 1677 
Q 538 1791 414 1992 
Q 291 2194 291 2438 
Q 291 2659 392 2848 
Q 494 3038 669 3163 
Q 800 3259 1026 3326 
Q 1253 3394 1513 3394 
Q 1903 3394 2198 3281 
Q 2494 3169 2634 2976 
Q 2775 2784 2828 2463 
L 2278 2388 
Q 2241 2644 2061 2787 
Q 1881 2931 1553 2931 
Q 1166 2931 1000 2803 
Q 834 2675 834 2503 
Q 834 2394 903 2306 
Q 972 2216 1119 2156 
Q 1203 2125 1616 2013 
Q 2213 1853 2448 1751 
Q 2684 1650 2818 1456 
Q 2953 1263 2953 975 
Q 2953 694 2789 445 
Q 2625 197 2315 61 
Q 2006 -75 1616 -75 
Q 969 -75 630 194 
Q 291 463 197 991 
z
" transform="scale(0.015625)"/>
      </defs>
      <use xlink:href="#ArialMT-54"/>
      <use xlink:href="#ArialMT-68" x="61.083984"/>
      <use xlink:href="#ArialMT-65" x="116.699219"/>
      <use xlink:href="#ArialMT-6f" x="172.314453"/>
      <use xlink:href="#ArialMT-72" x="227.929688"/>
      <use xlink:href="#ArialMT-65" x="261.230469"/>
      <use xlink:href="#ArialMT-74" x="316.845703"/>
      <use xlink:href="#ArialMT-69" x="344.628906"/>
      <use xlink:href="#ArialMT-63" x="366.845703"/>
      <use xlink:href="#ArialMT-61" x="416.845703"/>
      <use xlink:href="#ArialMT-6c" x="472.460938"/>
      <use xlink:href="#ArialMT-20" x="494.677734"/>
      <use xlink:href="#ArialMT-71" x="522.460938"/>
      <use xlink:href="#ArialMT-75" x="578.076172"/>
      <use xlink:href="#ArialMT-61" x="633.691406"/>
      <use xlink:href="#ArialMT-6e" x="689.306641"/>
      <use xlink:href="#ArialMT-74" x="744.921875"/>
      <use xlink:href="#ArialMT-69" x="772.705078"/>
      <use xlink:href="#ArialMT-6c" x="794.921875"/>
      <use xlink:href="#ArialMT-65" x="817.138672"/>
      <use xlink:href="#ArialMT-73" x="872.753906"/>
     </g>
    </g>
   </g>
   <g id="matplotlib.axis_2">
    <g id="ytick_1">
     <g id="line2d_6">
      <defs>
       <path id="m6baf03eacf" d="M 0 0 
L -4.8 0 
" style="stroke: #262626"/>
      </defs>
      <g>
       <use xlink:href="#m6baf03eacf" x="45.65125" y="272.451827" style="fill: #262626; stroke: #262626"/>
      </g>
     </g>
     <g id="text_7">
      <!-- −1.5 -->
      <g style="fill: #262626" transform="translate(19.9795 275.601264) scale(0.088 -0.088)">
       <defs>
        <path id="ArialMT-2e" d="M 581 0 
L 581 641 
L 1222 641 
L 1222 0 
L 581 0 
z
" transform="scale(0.015625)"/>
        <path id="ArialMT-35" d="M 266 1200 
L 856 1250 
Q 922 819 1161 601 
Q 1400 384 1738 384 
Q 2144 384 2425 690 
Q 2706 997 2706 1503 
Q 2706 1984 2436 2262 
Q 2166 2541 1728 2541 
Q 1456 2541 1237 2417 
Q 1019 2294 894 2097 
L 366 2166 
L 809 4519 
L 3088 4519 
L 3088 3981 
L 1259 3981 
L 1013 2750 
Q 1425 3038 1878 3038 
Q 2478 3038 2890 2622 
Q 3303 2206 3303 1553 
Q 3303 931 2941 478 
Q 2500 -78 1738 -78 
Q 1113 -78 717 272 
Q 322 622 266 1200 
z
" transform="scale(0.015625)"/>
       </defs>
       <use xlink:href="#ArialMT-2212"/>
       <use xlink:href="#ArialMT-31" x="58.398438"/>
       <use xlink:href="#ArialMT-2e" x="114.013672"/>
       <use xlink:href="#ArialMT-35" x="141.796875"/>
      </g>
     </g>
    </g>
    <g id="ytick_2">
     <g id="line2d_7">
      <g>
       <use xlink:href="#m6baf03eacf" x="45.65125" y="231.130808" style="fill: #262626; stroke: #262626"/>
      </g>
     </g>
     <g id="text_8">
      <!-- −1.0 -->
      <g style="fill: #262626" transform="translate(19.9795 234.280245) scale(0.088 -0.088)">
       <use xlink:href="#ArialMT-2212"/>
       <use xlink:href="#ArialMT-31" x="58.398438"/>
       <use xlink:href="#ArialMT-2e" x="114.013672"/>
       <use xlink:href="#ArialMT-30" x="141.796875"/>
      </g>
     </g>
    </g>
    <g id="ytick_3">
     <g id="line2d_8">
      <g>
       <use xlink:href="#m6baf03eacf" x="45.65125" y="189.809789" style="fill: #262626; stroke: #262626"/>
      </g>
     </g>
     <g id="text_9">
      <!-- −0.5 -->
      <g style="fill: #262626" transform="translate(19.9795 192.959226) scale(0.088 -0.088)">
       <use xlink:href="#ArialMT-2212"/>
       <use xlink:href="#ArialMT-30" x="58.398438"/>
       <use xlink:href="#ArialMT-2e" x="114.013672"/>
       <use xlink:href="#ArialMT-35" x="141.796875"/>
      </g>
     </g>
    </g>
    <g id="ytick_4">
     <g id="line2d_9">
      <g>
       <use xlink:href="#m6baf03eacf" x="45.65125" y="148.48877" style="fill: #262626; stroke: #262626"/>
      </g>
     </g>
     <g id="text_10">
      <!-- 0.0 -->
      <g style="fill: #262626" transform="translate(25.11925 151.638207) scale(0.088 -0.088)">
       <use xlink:href="#ArialMT-30"/>
       <use xlink:href="#ArialMT-2e" x="55.615234"/>
       <use xlink:href="#ArialMT-30" x="83.398438"/>
      </g>
     </g>
    </g>
    <g id="ytick_5">
     <g id="line2d_10">
      <g>
       <use xlink:href="#m6baf03eacf" x="45.65125" y="107.167751" style="fill: #262626; stroke: #262626"/>
      </g>
     </g>
     <g id="text_11">
      <!-- 0.5 -->
      <g style="fill: #262626" transform="translate(25.11925 110.317188) scale(0.088 -0.088)">
       <use xlink:href="#ArialMT-30"/>
       <use xlink:href="#ArialMT-2e" x="55.615234"/>
       <use xlink:href="#ArialMT-35" x="83.398438"/>
      </g>
     </g>
    </g>
    <g id="ytick_6">
     <g id="line2d_11">
      <g>
       <use xlink:href="#m6baf03eacf" x="45.65125" y="65.846731" style="fill: #262626; stroke: #262626"/>
      </g>
     </g>
     <g id="text_12">
      <!-- 1.0 -->
      <g style="fill: #262626" transform="translate(25.11925 68.996169) scale(0.088 -0.088)">
       <use xlink:href="#ArialMT-31"/>
       <use xlink:href="#ArialMT-2e" x="55.615234"/>
       <use xlink:href="#ArialMT-30" x="83.398438"/>
      </g>
     </g>
    </g>
    <g id="ytick_7">
     <g id="line2d_12">
      <g>
       <use xlink:href="#m6baf03eacf" x="45.65125" y="24.525712" style="fill: #262626; stroke: #262626"/>
      </g>
     </g>
     <g id="text_13">
      <!-- 1.5 -->
      <g style="fill: #262626" transform="translate(25.11925 27.67515) scale(0.088 -0.088)">
       <use xlink:href="#ArialMT-31"/>
       <use xlink:href="#ArialMT-2e" x="55.615234"/>
       <use xlink:href="#ArialMT-35" x="83.398438"/>
      </g>
     </g>
    </g>
    <g id="text_14">
     <!-- Ordered Values -->
     <g style="fill: #262626" transform="translate(14.0715 186.39) rotate(-90) scale(0.096 -0.096)">
      <defs>
       <path id="ArialMT-4f" d="M 309 2231 
Q 309 3372 921 4017 
Q 1534 4663 2503 4663 
Q 3138 4663 3647 4359 
Q 4156 4056 4423 3514 
Q 4691 2972 4691 2284 
Q 4691 1588 4409 1038 
Q 4128 488 3612 205 
Q 3097 -78 2500 -78 
Q 1853 -78 1343 234 
Q 834 547 571 1087 
Q 309 1628 309 2231 
z
M 934 2222 
Q 934 1394 1379 917 
Q 1825 441 2497 441 
Q 3181 441 3623 922 
Q 4066 1403 4066 2288 
Q 4066 2847 3877 3264 
Q 3688 3681 3323 3911 
Q 2959 4141 2506 4141 
Q 1863 4141 1398 3698 
Q 934 3256 934 2222 
z
" transform="scale(0.015625)"/>
       <path id="ArialMT-64" d="M 2575 0 
L 2575 419 
Q 2259 -75 1647 -75 
Q 1250 -75 917 144 
Q 584 363 401 755 
Q 219 1147 219 1656 
Q 219 2153 384 2558 
Q 550 2963 881 3178 
Q 1213 3394 1622 3394 
Q 1922 3394 2156 3267 
Q 2391 3141 2538 2938 
L 2538 4581 
L 3097 4581 
L 3097 0 
L 2575 0 
z
M 797 1656 
Q 797 1019 1065 703 
Q 1334 388 1700 388 
Q 2069 388 2326 689 
Q 2584 991 2584 1609 
Q 2584 2291 2321 2609 
Q 2059 2928 1675 2928 
Q 1300 2928 1048 2622 
Q 797 2316 797 1656 
z
" transform="scale(0.015625)"/>
       <path id="ArialMT-56" d="M 1803 0 
L 28 4581 
L 684 4581 
L 1875 1253 
Q 2019 853 2116 503 
Q 2222 878 2363 1253 
L 3600 4581 
L 4219 4581 
L 2425 0 
L 1803 0 
z
" transform="scale(0.015625)"/>
      </defs>
      <use xlink:href="#ArialMT-4f"/>
      <use xlink:href="#ArialMT-72" x="77.783203"/>
      <use xlink:href="#ArialMT-64" x="111.083984"/>
      <use xlink:href="#ArialMT-65" x="166.699219"/>
      <use xlink:href="#ArialMT-72" x="222.314453"/>
      <use xlink:href="#ArialMT-65" x="255.615234"/>
      <use xlink:href="#ArialMT-64" x="311.230469"/>
      <use xlink:href="#ArialMT-20" x="366.845703"/>
      <use xlink:href="#ArialMT-56" x="394.628906"/>
      <use xlink:href="#ArialMT-61" x="453.953125"/>
      <use xlink:href="#ArialMT-6c" x="509.568359"/>
      <use xlink:href="#ArialMT-75" x="531.785156"/>
      <use xlink:href="#ArialMT-65" x="587.400391"/>
      <use xlink:href="#ArialMT-73" x="643.015625"/>
     </g>
    </g>
   </g>
   <g id="line2d_13">
    <defs>
     <path id="md51c64a199" d="M 0 2.4 
C 0.636487 2.4 1.246992 2.147121 1.697056 1.697056 
C 2.147121 1.246992 2.4 0.636487 2.4 0 
C 2.4 -0.636487 2.147121 -1.246992 1.697056 -1.697056 
C 1.246992 -2.147121 0.636487 -2.4 0 -2.4 
C -0.636487 -2.4 -1.246992 -2.147121 -1.697056 -1.697056 
C -2.147121 -1.246992 -2.4 -0.636487 -2.4 0 
C -2.4 0.636487 -2.147121 1.246992 -1.697056 1.697056 
C -1.246992 2.147121 -0.636487 2.4 0 2.4 
z
" style="stroke: #0000ff"/>
    </defs>
    <g clip-path="url(#p23f79ce613)">
     <use xlink:href="#md51c64a199" x="61.883977" y="265.91947" style="fill: #0000ff; stroke: #0000ff"/>
     <use xlink:href="#md51c64a199" x="89.204457" y="257.618596" style="fill: #0000ff; stroke: #0000ff"/>
     <use xlink:href="#md51c64a199" x="105.328624" y="254.459307" style="fill: #0000ff; stroke: #0000ff"/>
     <use xlink:href="#md51c64a199" x="117.191285" y="243.153549" style="fill: #0000ff; stroke: #0000ff"/>
     <use xlink:href="#md51c64a199" x="126.788002" y="213.392145" style="fill: #0000ff; stroke: #0000ff"/>
     <use xlink:href="#md51c64a199" x="134.96708" y="210.30102" style="fill: #0000ff; stroke: #0000ff"/>
     <use xlink:href="#md51c64a199" x="142.172738" y="208.078427" style="fill: #0000ff; stroke: #0000ff"/>
     <use xlink:href="#md51c64a199" x="148.668448" y="207.032041" style="fill: #0000ff; stroke: #0000ff"/>
     <use xlink:href="#md51c64a199" x="154.624171" y="201.39764" style="fill: #0000ff; stroke: #0000ff"/>
     <use xlink:href="#md51c64a199" x="160.15644" y="195.499626" style="fill: #0000ff; stroke: #0000ff"/>
     <use xlink:href="#md51c64a199" x="165.348977" y="193.47581" style="fill: #0000ff; stroke: #0000ff"/>
     <use xlink:href="#md51c64a199" x="170.264205" y="189.678876" style="fill: #0000ff; stroke: #0000ff"/>
     <use xlink:href="#md51c64a199" x="174.950118" y="189.586937" style="fill: #0000ff; stroke: #0000ff"/>
     <use xlink:href="#md51c64a199" x="179.444587" y="189.199983" style="fill: #0000ff; stroke: #0000ff"/>
     <use xlink:href="#md51c64a199" x="183.778175" y="188.751207" style="fill: #0000ff; stroke: #0000ff"/>
     <use xlink:href="#md51c64a199" x="187.976058" y="185.386412" style="fill: #0000ff; stroke: #0000ff"/>
     <use xlink:href="#md51c64a199" x="192.059357" y="185.097996" style="fill: #0000ff; stroke: #0000ff"/>
     <use xlink:href="#md51c64a199" x="196.046102" y="181.487556" style="fill: #0000ff; stroke: #0000ff"/>
     <use xlink:href="#md51c64a199" x="199.951946" y="176.011529" style="fill: #0000ff; stroke: #0000ff"/>
     <use xlink:href="#md51c64a199" x="203.790697" y="175.363025" style="fill: #0000ff; stroke: #0000ff"/>
     <use xlink:href="#md51c64a199" x="207.574735" y="172.257468" style="fill: #0000ff; stroke: #0000ff"/>
     <use xlink:href="#md51c64a199" x="211.315339" y="162.057671" style="fill: #0000ff; stroke: #0000ff"/>
     <use xlink:href="#md51c64a199" x="215.022955" y="158.219816" style="fill: #0000ff; stroke: #0000ff"/>
     <use xlink:href="#md51c64a199" x="218.707421" y="154.645957" style="fill: #0000ff; stroke: #0000ff"/>
     <use xlink:href="#md51c64a199" x="222.378157" y="151.284846" style="fill: #0000ff; stroke: #0000ff"/>
     <use xlink:href="#md51c64a199" x="226.044343" y="150.431908" style="fill: #0000ff; stroke: #0000ff"/>
     <use xlink:href="#md51c64a199" x="229.715079" y="149.930573" style="fill: #0000ff; stroke: #0000ff"/>
     <use xlink:href="#md51c64a199" x="233.399545" y="149.650464" style="fill: #0000ff; stroke: #0000ff"/>
     <use xlink:href="#md51c64a199" x="237.107161" y="148.014883" style="fill: #0000ff; stroke: #0000ff"/>
     <use xlink:href="#md51c64a199" x="240.847765" y="144.902203" style="fill: #0000ff; stroke: #0000ff"/>
     <use xlink:href="#md51c64a199" x="244.631803" y="137.142173" style="fill: #0000ff; stroke: #0000ff"/>
     <use xlink:href="#md51c64a199" x="248.470554" y="130.946336" style="fill: #0000ff; stroke: #0000ff"/>
     <use xlink:href="#md51c64a199" x="252.376398" y="124.140053" style="fill: #0000ff; stroke: #0000ff"/>
     <use xlink:href="#md51c64a199" x="256.363143" y="123.427868" style="fill: #0000ff; stroke: #0000ff"/>
     <use xlink:href="#md51c64a199" x="260.446442" y="122.32861" style="fill: #0000ff; stroke: #0000ff"/>
     <use xlink:href="#md51c64a199" x="264.644325" y="120.879287" style="fill: #0000ff; stroke: #0000ff"/>
     <use xlink:href="#md51c64a199" x="268.977913" y="116.086526" style="fill: #0000ff; stroke: #0000ff"/>
     <use xlink:href="#md51c64a199" x="273.472382" y="114.473452" style="fill: #0000ff; stroke: #0000ff"/>
     <use xlink:href="#md51c64a199" x="278.158295" y="113.750581" style="fill: #0000ff; stroke: #0000ff"/>
     <use xlink:href="#md51c64a199" x="283.073523" y="112.809822" style="fill: #0000ff; stroke: #0000ff"/>
     <use xlink:href="#md51c64a199" x="288.26606" y="111.648887" style="fill: #0000ff; stroke: #0000ff"/>
     <use xlink:href="#md51c64a199" x="293.798329" y="109.729985" style="fill: #0000ff; stroke: #0000ff"/>
     <use xlink:href="#md51c64a199" x="299.754052" y="99.52228" style="fill: #0000ff; stroke: #0000ff"/>
     <use xlink:href="#md51c64a199" x="306.249762" y="89.500163" style="fill: #0000ff; stroke: #0000ff"/>
     <use xlink:href="#md51c64a199" x="313.45542" y="81.960906" style="fill: #0000ff; stroke: #0000ff"/>
     <use xlink:href="#md51c64a199" x="321.634498" y="81.198692" style="fill: #0000ff; stroke: #0000ff"/>
     <use xlink:href="#md51c64a199" x="331.231215" y="73.381371" style="fill: #0000ff; stroke: #0000ff"/>
     <use xlink:href="#md51c64a199" x="343.093876" y="66.721889" style="fill: #0000ff; stroke: #0000ff"/>
     <use xlink:href="#md51c64a199" x="359.218043" y="47.040792" style="fill: #0000ff; stroke: #0000ff"/>
     <use xlink:href="#md51c64a199" x="386.538523" y="32.1675" style="fill: #0000ff; stroke: #0000ff"/>
    </g>
   </g>
   <g id="line2d_14">
    <path d="M 61.883977 274.0875 
L 89.204457 253.74539 
L 105.328624 241.739759 
L 117.191285 232.907133 
L 126.788002 225.76167 
L 134.96708 219.671744 
L 142.172738 214.3066 
L 148.668448 209.470065 
L 154.624171 205.035591 
L 160.15644 200.916409 
L 165.348977 197.050183 
L 170.264205 193.390433 
L 174.950118 189.901425 
L 179.444587 186.554962 
L 183.778175 183.328286 
L 187.976058 180.202653 
L 192.059357 177.162337 
L 196.046102 174.193911 
L 199.951946 171.285722 
L 203.790697 168.427489 
L 207.574735 165.609994 
L 211.315339 162.824838 
L 215.022955 160.064245 
L 218.707421 157.320889 
L 222.378157 154.587755 
L 226.044343 151.858009 
L 229.715079 149.124876 
L 233.399545 146.38152 
L 237.107161 143.620926 
L 240.847765 140.835771 
L 244.631803 138.018276 
L 248.470554 135.160043 
L 252.376398 132.251854 
L 256.363143 129.283428 
L 260.446442 126.243112 
L 264.644325 123.117478 
L 268.977913 119.890802 
L 273.472382 116.544339 
L 278.158295 113.055332 
L 283.073523 109.395582 
L 288.26606 105.529356 
L 293.798329 101.410174 
L 299.754052 96.975699 
L 306.249762 92.139164 
L 313.45542 86.774021 
L 321.634498 80.684094 
L 331.231215 73.538631 
L 343.093876 64.706006 
L 359.218043 52.700375 
L 386.538523 32.358265 
" clip-path="url(#p23f79ce613)" style="fill: none; stroke: #ff0000; stroke-width: 1.2; stroke-linecap: round"/>
   </g>
   <g id="patch_3">
    <path d="M 45.65125 272.451827 
L 45.65125 24.525712 
" style="fill: none; stroke: #262626; stroke-linejoin: miter; stroke-linecap: square"/>
   </g>
   <g id="patch_4">
    <path d="M 76.899088 286.1835 
L 371.523412 286.1835 
" style="fill: none; stroke: #262626; stroke-linejoin: miter; stroke-linecap: square"/>
   </g>
   <g id="text_15">
    <!-- Probability Plot -->
    <g style="fill: #262626" transform="translate(192.19675 14.0715) scale(0.096 -0.096)">
     <defs>
      <path id="ArialMT-50" d="M 494 0 
L 494 4581 
L 2222 4581 
Q 2678 4581 2919 4538 
Q 3256 4481 3484 4323 
Q 3713 4166 3852 3881 
Q 3991 3597 3991 3256 
Q 3991 2672 3619 2267 
Q 3247 1863 2275 1863 
L 1100 1863 
L 1100 0 
L 494 0 
z
M 1100 2403 
L 2284 2403 
Q 2872 2403 3119 2622 
Q 3366 2841 3366 3238 
Q 3366 3525 3220 3729 
Q 3075 3934 2838 4000 
Q 2684 4041 2272 4041 
L 1100 4041 
L 1100 2403 
z
" transform="scale(0.015625)"/>
      <path id="ArialMT-62" d="M 941 0 
L 419 0 
L 419 4581 
L 981 4581 
L 981 2947 
Q 1338 3394 1891 3394 
Q 2197 3394 2470 3270 
Q 2744 3147 2920 2923 
Q 3097 2700 3197 2384 
Q 3297 2069 3297 1709 
Q 3297 856 2875 390 
Q 2453 -75 1863 -75 
Q 1275 -75 941 416 
L 941 0 
z
M 934 1684 
Q 934 1088 1097 822 
Q 1363 388 1816 388 
Q 2184 388 2453 708 
Q 2722 1028 2722 1663 
Q 2722 2313 2464 2622 
Q 2206 2931 1841 2931 
Q 1472 2931 1203 2611 
Q 934 2291 934 1684 
z
" transform="scale(0.015625)"/>
      <path id="ArialMT-79" d="M 397 -1278 
L 334 -750 
Q 519 -800 656 -800 
Q 844 -800 956 -737 
Q 1069 -675 1141 -563 
Q 1194 -478 1313 -144 
Q 1328 -97 1363 -6 
L 103 3319 
L 709 3319 
L 1400 1397 
Q 1534 1031 1641 628 
Q 1738 1016 1872 1384 
L 2581 3319 
L 3144 3319 
L 1881 -56 
Q 1678 -603 1566 -809 
Q 1416 -1088 1222 -1217 
Q 1028 -1347 759 -1347 
Q 597 -1347 397 -1278 
z
" transform="scale(0.015625)"/>
     </defs>
     <use xlink:href="#ArialMT-50"/>
     <use xlink:href="#ArialMT-72" x="66.699219"/>
     <use xlink:href="#ArialMT-6f" x="100"/>
     <use xlink:href="#ArialMT-62" x="155.615234"/>
     <use xlink:href="#ArialMT-61" x="211.230469"/>
     <use xlink:href="#ArialMT-62" x="266.845703"/>
     <use xlink:href="#ArialMT-69" x="322.460938"/>
     <use xlink:href="#ArialMT-6c" x="344.677734"/>
     <use xlink:href="#ArialMT-69" x="366.894531"/>
     <use xlink:href="#ArialMT-74" x="389.111328"/>
     <use xlink:href="#ArialMT-79" x="416.894531"/>
     <use xlink:href="#ArialMT-20" x="466.894531"/>
     <use xlink:href="#ArialMT-50" x="494.677734"/>
     <use xlink:href="#ArialMT-6c" x="561.376953"/>
     <use xlink:href="#ArialMT-6f" x="583.59375"/>
     <use xlink:href="#ArialMT-74" x="639.208984"/>
    </g>
   </g>
  </g>
 </g>
 <defs>
  <clipPath id="p23f79ce613">
   <rect x="45.65125" y="20.0715" width="357.12" height="266.112"/>
  </clipPath>
 </defs>
</svg>