<?xml version="1.0" encoding="utf-8" standalone="no"?>
<!DOCTYPE svg PUBLIC "-//W3C//DTD SVG 1.1//EN"
  "http://www.w3.org/Graphics/SVG/1.1/DTD/svg11.dtd">
<svg xmlns:xlink="http://www.w3.org/1999/xlink" width="428.606pt" height="322.539375pt" viewBox="0 0 428.606 322.539375" xmlns="http://www.w3.org/2000/svg" version="1.1">
 <metadata>
  <rdf:RDF xmlns:dc="http://purl.org/dc/elements/1.1/" xmlns:cc="http://creativecommons.org/ns#" xmlns:rdf="http://www.w3.org/1999/02/22-rdf-syntax-ns#">
   <cc:Work>
    <dc:type rdf:resource="http://purl.org/dc/dcmitype/StillImage"/>
    <dc:date>2023-10-22T09:21:37.787414</dc:date>
    <dc:format>image/svg+xml</dc:format>
    <dc:creator>
     <cc:Agent>
      <dc:title>Matplotlib v3.7.1, https://matplotlib.org/</dc:title>
     </cc:Agent>
    </dc:creator>
   </cc:Work>
  </rdf:RDF>
 </metadata>
 <defs>
  <style type="text/css">*{stroke-linejoin: round; stroke-linecap: butt}</style>
 </defs>
 <g id="figure_1">
  <g id="patch_1">
   <path d="M 0 322.539375 
L 428.606 322.539375 
L 428.606 0 
L 0 0 
z
" style="fill: #ffffff"/>
  </g>
  <g id="axes_1">
   <g id="patch_2">
    <path d="M 38.312875 286.212 
L 395.432875 286.212 
L 395.432875 20.1 
L 38.312875 20.1 
z
" style="fill: #ffffff"/>
   </g>
   <g id="matplotlib.axis_1">
    <g id="xtick_1">
     <g id="line2d_1">
      <defs>
       <path id="m85b827a24b" d="M 0 0 
L 0 4.8 
" style="stroke: #262626"/>
      </defs>
      <g>
       <use xlink:href="#m85b827a24b" x="54.545602" y="286.212" style="fill: #262626; stroke: #262626"/>
      </g>
     </g>
     <g id="text_1">
      <!-- 0.0 -->
      <g style="fill: #262626" transform="translate(48.429602 300.810875) scale(0.088 -0.088)">
       <defs>
        <path id="ArialMT-30" d="M 266 2259 
Q 266 3072 433 3567 
Q 600 4063 929 4331 
Q 1259 4600 1759 4600 
Q 2128 4600 2406 4451 
Q 2684 4303 2865 4023 
Q 3047 3744 3150 3342 
Q 3253 2941 3253 2259 
Q 3253 1453 3087 958 
Q 2922 463 2592 192 
Q 2263 -78 1759 -78 
Q 1097 -78 719 397 
Q 266 969 266 2259 
z
M 844 2259 
Q 844 1131 1108 757 
Q 1372 384 1759 384 
Q 2147 384 2411 759 
Q 2675 1134 2675 2259 
Q 2675 3391 2411 3762 
Q 2147 4134 1753 4134 
Q 1366 4134 1134 3806 
Q 844 3388 844 2259 
z
" transform="scale(0.015625)"/>
        <path id="ArialMT-2e" d="M 581 0 
L 581 641 
L 1222 641 
L 1222 0 
L 581 0 
z
" transform="scale(0.015625)"/>
       </defs>
       <use xlink:href="#ArialMT-30"/>
       <use xlink:href="#ArialMT-2e" x="55.615234"/>
       <use xlink:href="#ArialMT-30" x="83.398438"/>
      </g>
     </g>
    </g>
    <g id="xtick_2">
     <g id="line2d_2">
      <g>
       <use xlink:href="#m85b827a24b" x="119.476511" y="286.212" style="fill: #262626; stroke: #262626"/>
      </g>
     </g>
     <g id="text_2">
      <!-- 0.2 -->
      <g style="fill: #262626" transform="translate(113.360511 300.810875) scale(0.088 -0.088)">
       <defs>
        <path id="ArialMT-32" d="M 3222 541 
L 3222 0 
L 194 0 
Q 188 203 259 391 
Q 375 700 629 1000 
Q 884 1300 1366 1694 
Q 2113 2306 2375 2664 
Q 2638 3022 2638 3341 
Q 2638 3675 2398 3904 
Q 2159 4134 1775 4134 
Q 1369 4134 1125 3890 
Q 881 3647 878 3216 
L 300 3275 
Q 359 3922 746 4261 
Q 1134 4600 1788 4600 
Q 2447 4600 2831 4234 
Q 3216 3869 3216 3328 
Q 3216 3053 3103 2787 
Q 2991 2522 2730 2228 
Q 2469 1934 1863 1422 
Q 1356 997 1212 845 
Q 1069 694 975 541 
L 3222 541 
z
" transform="scale(0.015625)"/>
       </defs>
       <use xlink:href="#ArialMT-30"/>
       <use xlink:href="#ArialMT-2e" x="55.615234"/>
       <use xlink:href="#ArialMT-32" x="83.398438"/>
      </g>
     </g>
    </g>
    <g id="xtick_3">
     <g id="line2d_3">
      <g>
       <use xlink:href="#m85b827a24b" x="184.40742" y="286.212" style="fill: #262626; stroke: #262626"/>
      </g>
     </g>
     <g id="text_3">
      <!-- 0.4 -->
      <g style="fill: #262626" transform="translate(178.29142 300.810875) scale(0.088 -0.088)">
       <defs>
        <path id="ArialMT-34" d="M 2069 0 
L 2069 1097 
L 81 1097 
L 81 1613 
L 2172 4581 
L 2631 4581 
L 2631 1613 
L 3250 1613 
L 3250 1097 
L 2631 1097 
L 2631 0 
L 2069 0 
z
M 2069 1613 
L 2069 3678 
L 634 1613 
L 2069 1613 
z
" transform="scale(0.015625)"/>
       </defs>
       <use xlink:href="#ArialMT-30"/>
       <use xlink:href="#ArialMT-2e" x="55.615234"/>
       <use xlink:href="#ArialMT-34" x="83.398438"/>
      </g>
     </g>
    </g>
    <g id="xtick_4">
     <g id="line2d_4">
      <g>
       <use xlink:href="#m85b827a24b" x="249.33833" y="286.212" style="fill: #262626; stroke: #262626"/>
      </g>
     </g>
     <g id="text_4">
      <!-- 0.6 -->
      <g style="fill: #262626" transform="translate(243.22233 300.810875) scale(0.088 -0.088)">
       <defs>
        <path id="ArialMT-36" d="M 3184 3459 
L 2625 3416 
Q 2550 3747 2413 3897 
Q 2184 4138 1850 4138 
Q 1581 4138 1378 3988 
Q 1113 3794 959 3422 
Q 806 3050 800 2363 
Q 1003 2672 1297 2822 
Q 1591 2972 1913 2972 
Q 2475 2972 2870 2558 
Q 3266 2144 3266 1488 
Q 3266 1056 3080 686 
Q 2894 316 2569 119 
Q 2244 -78 1831 -78 
Q 1128 -78 684 439 
Q 241 956 241 2144 
Q 241 3472 731 4075 
Q 1159 4600 1884 4600 
Q 2425 4600 2770 4297 
Q 3116 3994 3184 3459 
z
M 888 1484 
Q 888 1194 1011 928 
Q 1134 663 1356 523 
Q 1578 384 1822 384 
Q 2178 384 2434 671 
Q 2691 959 2691 1453 
Q 2691 1928 2437 2201 
Q 2184 2475 1800 2475 
Q 1419 2475 1153 2201 
Q 888 1928 888 1484 
z
" transform="scale(0.015625)"/>
       </defs>
       <use xlink:href="#ArialMT-30"/>
       <use xlink:href="#ArialMT-2e" x="55.615234"/>
       <use xlink:href="#ArialMT-36" x="83.398438"/>
      </g>
     </g>
    </g>
    <g id="xtick_5">
     <g id="line2d_5">
      <g>
       <use xlink:href="#m85b827a24b" x="314.269239" y="286.212" style="fill: #262626; stroke: #262626"/>
      </g>
     </g>
     <g id="text_5">
      <!-- 0.8 -->
      <g style="fill: #262626" transform="translate(308.153239 300.810875) scale(0.088 -0.088)">
       <defs>
        <path id="ArialMT-38" d="M 1131 2484 
Q 781 2613 612 2850 
Q 444 3088 444 3419 
Q 444 3919 803 4259 
Q 1163 4600 1759 4600 
Q 2359 4600 2725 4251 
Q 3091 3903 3091 3403 
Q 3091 3084 2923 2848 
Q 2756 2613 2416 2484 
Q 2838 2347 3058 2040 
Q 3278 1734 3278 1309 
Q 3278 722 2862 322 
Q 2447 -78 1769 -78 
Q 1091 -78 675 323 
Q 259 725 259 1325 
Q 259 1772 486 2073 
Q 713 2375 1131 2484 
z
M 1019 3438 
Q 1019 3113 1228 2906 
Q 1438 2700 1772 2700 
Q 2097 2700 2305 2904 
Q 2513 3109 2513 3406 
Q 2513 3716 2298 3927 
Q 2084 4138 1766 4138 
Q 1444 4138 1231 3931 
Q 1019 3725 1019 3438 
z
M 838 1322 
Q 838 1081 952 856 
Q 1066 631 1291 507 
Q 1516 384 1775 384 
Q 2178 384 2440 643 
Q 2703 903 2703 1303 
Q 2703 1709 2433 1975 
Q 2163 2241 1756 2241 
Q 1359 2241 1098 1978 
Q 838 1716 838 1322 
z
" transform="scale(0.015625)"/>
       </defs>
       <use xlink:href="#ArialMT-30"/>
       <use xlink:href="#ArialMT-2e" x="55.615234"/>
       <use xlink:href="#ArialMT-38" x="83.398438"/>
      </g>
     </g>
    </g>
    <g id="xtick_6">
     <g id="line2d_6">
      <g>
       <use xlink:href="#m85b827a24b" x="379.200148" y="286.212" style="fill: #262626; stroke: #262626"/>
      </g>
     </g>
     <g id="text_6">
      <!-- 1.0 -->
      <g style="fill: #262626" transform="translate(373.084148 300.810875) scale(0.088 -0.088)">
       <defs>
        <path id="ArialMT-31" d="M 2384 0 
L 1822 0 
L 1822 3584 
Q 1619 3391 1289 3197 
Q 959 3003 697 2906 
L 697 3450 
Q 1169 3672 1522 3987 
Q 1875 4303 2022 4600 
L 2384 4600 
L 2384 0 
z
" transform="scale(0.015625)"/>
       </defs>
       <use xlink:href="#ArialMT-31"/>
       <use xlink:href="#ArialMT-2e" x="55.615234"/>
       <use xlink:href="#ArialMT-30" x="83.398438"/>
      </g>
     </g>
    </g>
    <g id="text_7">
     <!-- $x$ -->
     <g style="fill: #262626" transform="translate(213.992875 313.431375) scale(0.096 -0.096)">
      <defs>
       <path id="DejaVuSans-Oblique-78" d="M 3841 3500 
L 2234 1784 
L 3219 0 
L 2559 0 
L 1819 1388 
L 531 0 
L -166 0 
L 1556 1844 
L 641 3500 
L 1300 3500 
L 1972 2234 
L 3144 3500 
L 3841 3500 
z
" transform="scale(0.015625)"/>
      </defs>
      <use xlink:href="#DejaVuSans-Oblique-78" transform="translate(0 0.3125)"/>
     </g>
    </g>
   </g>
   <g id="matplotlib.axis_2">
    <g id="ytick_1">
     <g id="line2d_7">
      <defs>
       <path id="mdda000296c" d="M 0 0 
L -4.8 0 
" style="stroke: #262626"/>
      </defs>
      <g>
       <use xlink:href="#mdda000296c" x="38.312875" y="252.744436" style="fill: #262626; stroke: #262626"/>
      </g>
     </g>
     <g id="text_8">
      <!-- −2 -->
      <g style="fill: #262626" transform="translate(19.9795 255.893873) scale(0.088 -0.088)">
       <defs>
        <path id="ArialMT-2212" d="M 3381 1997 
L 356 1997 
L 356 2522 
L 3381 2522 
L 3381 1997 
z
" transform="scale(0.015625)"/>
       </defs>
       <use xlink:href="#ArialMT-2212"/>
       <use xlink:href="#ArialMT-32" x="58.398438"/>
      </g>
     </g>
    </g>
    <g id="ytick_2">
     <g id="line2d_8">
      <g>
       <use xlink:href="#mdda000296c" x="38.312875" y="208.744947" style="fill: #262626; stroke: #262626"/>
      </g>
     </g>
     <g id="text_9">
      <!-- 0 -->
      <g style="fill: #262626" transform="translate(25.11925 211.894384) scale(0.088 -0.088)">
       <use xlink:href="#ArialMT-30"/>
      </g>
     </g>
    </g>
    <g id="ytick_3">
     <g id="line2d_9">
      <g>
       <use xlink:href="#mdda000296c" x="38.312875" y="164.745458" style="fill: #262626; stroke: #262626"/>
      </g>
     </g>
     <g id="text_10">
      <!-- 2 -->
      <g style="fill: #262626" transform="translate(25.11925 167.894896) scale(0.088 -0.088)">
       <use xlink:href="#ArialMT-32"/>
      </g>
     </g>
    </g>
    <g id="ytick_4">
     <g id="line2d_10">
      <g>
       <use xlink:href="#mdda000296c" x="38.312875" y="120.74597" style="fill: #262626; stroke: #262626"/>
      </g>
     </g>
     <g id="text_11">
      <!-- 4 -->
      <g style="fill: #262626" transform="translate(25.11925 123.895407) scale(0.088 -0.088)">
       <use xlink:href="#ArialMT-34"/>
      </g>
     </g>
    </g>
    <g id="ytick_5">
     <g id="line2d_11">
      <g>
       <use xlink:href="#mdda000296c" x="38.312875" y="76.746481" style="fill: #262626; stroke: #262626"/>
      </g>
     </g>
     <g id="text_12">
      <!-- 6 -->
      <g style="fill: #262626" transform="translate(25.11925 79.895918) scale(0.088 -0.088)">
       <use xlink:href="#ArialMT-36"/>
      </g>
     </g>
    </g>
    <g id="ytick_6">
     <g id="line2d_12">
      <g>
       <use xlink:href="#mdda000296c" x="38.312875" y="32.746992" style="fill: #262626; stroke: #262626"/>
      </g>
     </g>
     <g id="text_13">
      <!-- 8 -->
      <g style="fill: #262626" transform="translate(25.11925 35.89643) scale(0.088 -0.088)">
       <use xlink:href="#ArialMT-38"/>
      </g>
     </g>
    </g>
    <g id="text_14">
     <!-- $y$ -->
     <g style="fill: #262626" transform="translate(13.9635 156.036) rotate(-90) scale(0.096 -0.096)">
      <defs>
       <path id="DejaVuSans-Oblique-79" d="M 1588 -325 
Q 1188 -997 936 -1164 
Q 684 -1331 294 -1331 
L -159 -1331 
L -63 -850 
L 269 -850 
Q 509 -850 678 -719 
Q 847 -588 1056 -206 
L 1234 128 
L 459 3500 
L 1069 3500 
L 1650 819 
L 3256 3500 
L 3859 3500 
L 1588 -325 
z
" transform="scale(0.015625)"/>
      </defs>
      <use xlink:href="#DejaVuSans-Oblique-79" transform="translate(0 0.3125)"/>
     </g>
    </g>
   </g>
   <g id="PolyCollection_1">
    <defs>
     <path id="m99c776a5b1" d="M 54.545602 -199.362605 
L 54.545602 -54.528087 
L 57.824941 -57.897476 
L 61.10428 -61.491844 
L 64.383619 -65.295421 
L 67.662958 -69.286653 
L 70.942296 -73.438051 
L 74.221636 -77.716324 
L 77.500973 -82.0828 
L 80.780313 -86.493707 
L 84.059653 -90.901398 
L 87.33899 -95.254701 
L 90.61833 -99.500501 
L 93.89767 -103.584832 
L 97.177007 -107.454109 
L 100.456344 -111.057728 
L 103.735686 -114.348009 
L 107.015024 -117.282171 
L 110.294361 -119.821026 
L 113.573703 -121.844782 
L 116.853041 -119.060275 
L 120.132378 -115.37867 
L 123.41172 -112.229218 
L 126.691057 -109.686332 
L 129.970395 -107.804896 
L 133.249737 -106.625608 
L 136.529069 -106.176881 
L 139.808412 -106.472654 
L 143.087754 -107.512364 
L 146.367086 -109.280721 
L 149.646428 -111.74785 
L 152.92577 -114.864875 
L 156.205103 -118.511031 
L 159.484445 -119.63955 
L 162.763787 -119.620298 
L 166.04312 -120.007809 
L 169.322462 -120.888545 
L 172.601804 -122.319489 
L 175.881137 -124.342828 
L 179.160479 -126.986595 
L 182.439821 -130.263668 
L 185.719153 -134.172082 
L 188.998496 -138.695487 
L 192.277838 -143.803246 
L 195.55717 -149.452272 
L 198.836512 -155.587635 
L 202.115855 -162.145721 
L 205.395187 -169.054976 
L 208.674529 -176.239486 
L 211.953871 -183.620253 
L 215.233204 -191.11793 
L 218.512556 -198.655317 
L 221.791879 -206.158669 
L 225.071221 -213.560192 
L 228.350563 -220.797037 
L 231.629886 -227.81408 
L 234.909247 -234.55848 
L 238.18857 -240.966414 
L 241.467912 -246.874674 
L 244.747254 -252.157126 
L 248.026597 -257.232488 
L 251.305939 -262.221379 
L 254.585262 -267.06714 
L 257.864623 -271.657452 
L 261.143946 -275.828792 
L 264.423288 -279.441241 
L 267.70263 -282.50382 
L 270.981953 -285.056927 
L 274.261315 -287.090303 
L 277.540637 -288.551108 
L 280.81998 -289.214525 
L 284.099322 -288.574743 
L 287.378664 -286.675307 
L 290.658006 -283.625285 
L 293.937329 -279.447021 
L 297.21669 -274.16501 
L 300.496013 -267.829438 
L 303.775355 -260.510705 
L 307.054697 -252.302521 
L 310.33402 -243.320059 
L 313.613382 -233.695632 
L 316.892705 -223.57663 
L 320.172047 -213.120365 
L 323.451389 -202.490632 
L 326.730731 -191.853347 
L 330.010073 -181.371774 
L 333.289396 -171.203462 
L 336.568738 -161.495538 
L 339.84808 -152.381795 
L 343.127423 -143.979058 
L 346.406765 -136.386567 
L 349.686088 -129.683035 
L 352.96543 -123.920661 
L 356.244772 -118.843394 
L 359.524114 -107.641754 
L 362.803456 -96.303067 
L 366.082798 -85.453211 
L 369.362141 -75.177746 
L 372.641463 -65.546391 
L 375.920806 -56.615451 
L 379.200148 -48.426396 
L 379.200148 -112.491712 
L 379.200148 -112.491712 
L 375.920806 -110.898912 
L 372.641463 -110.04918 
L 369.362141 -110.017446 
L 366.082798 -110.870724 
L 362.803456 -112.663878 
L 359.524114 -115.440671 
L 356.244772 -119.758342 
L 352.96543 -131.506713 
L 349.686088 -143.752315 
L 346.406765 -156.08846 
L 343.127423 -168.392965 
L 339.84808 -180.548973 
L 336.568738 -192.442005 
L 333.289396 -203.961372 
L 330.010073 -215.004464 
L 326.730731 -225.477514 
L 323.451389 -235.297899 
L 320.172047 -244.395335 
L 316.892705 -252.713006 
L 313.613382 -260.208637 
L 310.33402 -266.853988 
L 307.054697 -272.635315 
L 303.775355 -277.551834 
L 300.496013 -281.615344 
L 297.21669 -284.847698 
L 293.937329 -287.280062 
L 290.658006 -288.953096 
L 287.378664 -289.913986 
L 284.099322 -290.233898 
L 280.81998 -290.096161 
L 277.540637 -289.639329 
L 274.261315 -288.470049 
L 270.981953 -286.488538 
L 267.70263 -283.774971 
L 264.423288 -280.455715 
L 261.143946 -276.708131 
L 257.864623 -272.67371 
L 254.585262 -268.33762 
L 251.305939 -263.652402 
L 248.026597 -258.609381 
L 244.747254 -253.243207 
L 241.467912 -247.75288 
L 238.18857 -242.622832 
L 234.909247 -237.780637 
L 231.629886 -233.10698 
L 228.350563 -228.573452 
L 225.071221 -224.156712 
L 221.791879 -219.827314 
L 218.512556 -215.547127 
L 215.233204 -211.273076 
L 211.953871 -206.959855 
L 208.674529 -202.562533 
L 205.395187 -198.039747 
L 202.115855 -193.357015 
L 198.836512 -188.488737 
L 195.55717 -183.420502 
L 192.277838 -178.150309 
L 188.998496 -172.689727 
L 185.719153 -167.06396 
L 182.439821 -161.31167 
L 179.160479 -155.483964 
L 175.881137 -149.643093 
L 172.601804 -143.86046 
L 169.322462 -138.214585 
L 166.04312 -132.789227 
L 162.763787 -127.671683 
L 159.484445 -122.96692 
L 156.205103 -120.234989 
L 152.92577 -120.838204 
L 149.646428 -121.708984 
L 146.367086 -122.693289 
L 143.087754 -123.69704 
L 139.808412 -124.634669 
L 136.529069 -125.425782 
L 133.249737 -125.99751 
L 129.970395 -126.285908 
L 126.691057 -126.237589 
L 123.41172 -125.810228 
L 120.132378 -124.975764 
L 116.853041 -123.727876 
L 113.573703 -123.419079 
L 110.294361 -127.889118 
L 107.015024 -132.780051 
L 103.735686 -137.915061 
L 100.456344 -143.206329 
L 97.177007 -148.571426 
L 93.89767 -153.932119 
L 90.61833 -159.21617 
L 87.33899 -164.357317 
L 84.059653 -169.297124 
L 80.780313 -173.985588 
L 77.500973 -178.381457 
L 74.221636 -182.45282 
L 70.942296 -186.176607 
L 67.662958 -189.538674 
L 64.383619 -192.533149 
L 61.10428 -195.161865 
L 57.824941 -197.433492 
L 54.545602 -199.362605 
z
" style="stroke: #1f77b4; stroke-opacity: 0.5; stroke-width: 0.8"/>
    </defs>
    <g clip-path="url(#p1d094e6bd3)">
     <use xlink:href="#m99c776a5b1" x="0" y="322.539375" style="fill: #1f77b4; fill-opacity: 0.5; stroke: #1f77b4; stroke-opacity: 0.5; stroke-width: 0.8"/>
    </g>
   </g>
   <g id="PolyCollection_2">
    <defs>
     <path id="mc9605f401b" d="M 54.545602 -54.528087 
L 54.545602 -54.526755 
L 57.824941 -57.896091 
L 61.10428 -61.490397 
L 64.383619 -65.2939 
L 67.662958 -69.285043 
L 70.942296 -73.436331 
L 74.221636 -77.714478 
L 77.500973 -82.080785 
L 80.780313 -86.491493 
L 84.059653 -90.898928 
L 87.33899 -95.2519 
L 90.61833 -99.497259 
L 93.89767 -103.580987 
L 97.177007 -107.449402 
L 100.456344 -111.051708 
L 103.735686 -114.339798 
L 107.015024 -117.269689 
L 110.294361 -119.797102 
L 113.573703 -121.730156 
L 116.853041 -119.01916 
L 120.132378 -115.35854 
L 123.41172 -112.214978 
L 126.691057 -109.674643 
L 129.970395 -107.794427 
L 133.249737 -106.615619 
L 136.529069 -106.166829 
L 139.808412 -106.462 
L 143.087754 -107.500411 
L 146.367086 -109.266303 
L 149.646428 -111.728453 
L 152.92577 -114.832639 
L 156.205103 -118.405227 
L 159.484445 -119.58235 
L 162.763787 -119.596324 
L 166.04312 -119.99268 
L 169.322462 -120.877378 
L 172.601804 -122.310505 
L 175.881137 -124.335178 
L 179.160479 -126.979803 
L 182.439821 -130.257434 
L 185.719153 -134.166197 
L 188.998496 -138.689793 
L 192.277838 -143.797612 
L 195.55717 -149.446574 
L 198.836512 -155.581749 
L 202.115855 -162.139516 
L 205.395187 -169.048294 
L 208.674529 -176.232132 
L 211.953871 -183.611961 
L 215.233204 -191.108326 
L 218.512556 -198.643862 
L 221.791879 -206.144528 
L 225.071221 -213.541959 
L 228.350563 -220.772217 
L 231.629886 -227.777752 
L 234.909247 -234.499482 
L 238.18857 -240.85679 
L 241.467912 -246.692164 
L 244.747254 -252.00124 
L 248.026597 -257.103898 
L 251.305939 -262.096911 
L 254.585262 -266.929644 
L 257.864623 -271.493426 
L 261.143946 -275.646439 
L 264.423288 -279.276994 
L 267.70263 -282.366376 
L 270.981953 -284.932512 
L 274.261315 -286.961933 
L 277.540637 -288.395463 
L 280.81998 -289.032508 
L 284.099322 -288.465287 
L 287.378664 -286.616593 
L 290.658006 -283.589188 
L 293.937329 -279.422379 
L 297.21669 -274.146915 
L 300.496013 -267.815413 
L 303.775355 -260.499355 
L 307.054697 -252.293006 
L 310.33402 -243.311834 
L 313.613382 -233.688331 
L 316.892705 -223.56999 
L 320.172047 -213.114176 
L 323.451389 -202.484737 
L 326.730731 -191.847588 
L 330.010073 -181.36602 
L 333.289396 -171.197556 
L 336.568738 -161.489286 
L 339.84808 -152.374924 
L 343.127423 -143.971132 
L 346.406765 -136.376746 
L 349.686088 -129.669287 
L 352.96543 -123.895227 
L 356.244772 -118.666141 
L 359.524114 -107.617009 
L 362.803456 -96.291243 
L 366.082798 -85.445598 
L 369.362141 -75.172189 
L 372.641463 -65.542042 
L 375.920806 -56.61189 
L 379.200148 -48.423375 
L 379.200148 -48.426396 
L 379.200148 -48.426396 
L 375.920806 -56.615451 
L 372.641463 -65.546391 
L 369.362141 -75.177746 
L 366.082798 -85.453211 
L 362.803456 -96.303067 
L 359.524114 -107.641754 
L 356.244772 -118.843394 
L 352.96543 -123.920661 
L 349.686088 -129.683035 
L 346.406765 -136.386567 
L 343.127423 -143.979058 
L 339.84808 -152.381795 
L 336.568738 -161.495538 
L 333.289396 -171.203462 
L 330.010073 -181.371774 
L 326.730731 -191.853347 
L 323.451389 -202.490632 
L 320.172047 -213.120365 
L 316.892705 -223.57663 
L 313.613382 -233.695632 
L 310.33402 -243.320059 
L 307.054697 -252.302521 
L 303.775355 -260.510705 
L 300.496013 -267.829438 
L 297.21669 -274.16501 
L 293.937329 -279.447021 
L 290.658006 -283.625285 
L 287.378664 -286.675307 
L 284.099322 -288.574743 
L 280.81998 -289.214525 
L 277.540637 -288.551108 
L 274.261315 -287.090303 
L 270.981953 -285.056927 
L 267.70263 -282.50382 
L 264.423288 -279.441241 
L 261.143946 -275.828792 
L 257.864623 -271.657452 
L 254.585262 -267.06714 
L 251.305939 -262.221379 
L 248.026597 -257.232488 
L 244.747254 -252.157126 
L 241.467912 -246.874674 
L 238.18857 -240.966414 
L 234.909247 -234.55848 
L 231.629886 -227.81408 
L 228.350563 -220.797037 
L 225.071221 -213.560192 
L 221.791879 -206.158669 
L 218.512556 -198.655317 
L 215.233204 -191.11793 
L 211.953871 -183.620253 
L 208.674529 -176.239486 
L 205.395187 -169.054976 
L 202.115855 -162.145721 
L 198.836512 -155.587635 
L 195.55717 -149.452272 
L 192.277838 -143.803246 
L 188.998496 -138.695487 
L 185.719153 -134.172082 
L 182.439821 -130.263668 
L 179.160479 -126.986595 
L 175.881137 -124.342828 
L 172.601804 -122.319489 
L 169.322462 -120.888545 
L 166.04312 -120.007809 
L 162.763787 -119.620298 
L 159.484445 -119.63955 
L 156.205103 -118.511031 
L 152.92577 -114.864875 
L 149.646428 -111.74785 
L 146.367086 -109.280721 
L 143.087754 -107.512364 
L 139.808412 -106.472654 
L 136.529069 -106.176881 
L 133.249737 -106.625608 
L 129.970395 -107.804896 
L 126.691057 -109.686332 
L 123.41172 -112.229218 
L 120.132378 -115.37867 
L 116.853041 -119.060275 
L 113.573703 -121.844782 
L 110.294361 -119.821026 
L 107.015024 -117.282171 
L 103.735686 -114.348009 
L 100.456344 -111.057728 
L 97.177007 -107.454109 
L 93.89767 -103.584832 
L 90.61833 -99.500501 
L 87.33899 -95.254701 
L 84.059653 -90.901398 
L 80.780313 -86.493707 
L 77.500973 -82.0828 
L 74.221636 -77.716324 
L 70.942296 -73.438051 
L 67.662958 -69.286653 
L 64.383619 -65.295421 
L 61.10428 -61.491844 
L 57.824941 -57.897476 
L 54.545602 -54.528087 
z
" style="stroke: #ff7f0e; stroke-opacity: 0.5; stroke-width: 0.8"/>
    </defs>
    <g clip-path="url(#p1d094e6bd3)">
     <use xlink:href="#mc9605f401b" x="0" y="322.539375" style="fill: #ff7f0e; fill-opacity: 0.5; stroke: #ff7f0e; stroke-opacity: 0.5; stroke-width: 0.8"/>
    </g>
   </g>
   <g id="PolyCollection_3">
    <defs>
     <path id="m29790ea583" d="M 54.545602 -199.363937 
L 54.545602 -199.362605 
L 57.824941 -197.433492 
L 61.10428 -195.161865 
L 64.383619 -192.533149 
L 67.662958 -189.538674 
L 70.942296 -186.176607 
L 74.221636 -182.45282 
L 77.500973 -178.381457 
L 80.780313 -173.985588 
L 84.059653 -169.297124 
L 87.33899 -164.357317 
L 90.61833 -159.21617 
L 93.89767 -153.932119 
L 97.177007 -148.571426 
L 100.456344 -143.206329 
L 103.735686 -137.915061 
L 107.015024 -132.780051 
L 110.294361 -127.889118 
L 113.573703 -123.419079 
L 116.853041 -123.727876 
L 120.132378 -124.975764 
L 123.41172 -125.810228 
L 126.691057 -126.237589 
L 129.970395 -126.285908 
L 133.249737 -125.99751 
L 136.529069 -125.425782 
L 139.808412 -124.634669 
L 143.087754 -123.69704 
L 146.367086 -122.693289 
L 149.646428 -121.708984 
L 152.92577 -120.838204 
L 156.205103 -120.234989 
L 159.484445 -122.96692 
L 162.763787 -127.671683 
L 166.04312 -132.789227 
L 169.322462 -138.214585 
L 172.601804 -143.86046 
L 175.881137 -149.643093 
L 179.160479 -155.483964 
L 182.439821 -161.31167 
L 185.719153 -167.06396 
L 188.998496 -172.689727 
L 192.277838 -178.150309 
L 195.55717 -183.420502 
L 198.836512 -188.488737 
L 202.115855 -193.357015 
L 205.395187 -198.039747 
L 208.674529 -202.562533 
L 211.953871 -206.959855 
L 215.233204 -211.273076 
L 218.512556 -215.547127 
L 221.791879 -219.827314 
L 225.071221 -224.156712 
L 228.350563 -228.573452 
L 231.629886 -233.10698 
L 234.909247 -237.780637 
L 238.18857 -242.622832 
L 241.467912 -247.75288 
L 244.747254 -253.243207 
L 248.026597 -258.609381 
L 251.305939 -263.652402 
L 254.585262 -268.33762 
L 257.864623 -272.67371 
L 261.143946 -276.708131 
L 264.423288 -280.455715 
L 267.70263 -283.774971 
L 270.981953 -286.488538 
L 274.261315 -288.470049 
L 277.540637 -289.639329 
L 280.81998 -290.096161 
L 284.099322 -290.233898 
L 287.378664 -289.913986 
L 290.658006 -288.953096 
L 293.937329 -287.280062 
L 297.21669 -284.847698 
L 300.496013 -281.615344 
L 303.775355 -277.551834 
L 307.054697 -272.635315 
L 310.33402 -266.853988 
L 313.613382 -260.208637 
L 316.892705 -252.713006 
L 320.172047 -244.395335 
L 323.451389 -235.297899 
L 326.730731 -225.477514 
L 330.010073 -215.004464 
L 333.289396 -203.961372 
L 336.568738 -192.442005 
L 339.84808 -180.548973 
L 343.127423 -168.392965 
L 346.406765 -156.08846 
L 349.686088 -143.752315 
L 352.96543 -131.506713 
L 356.244772 -119.758342 
L 359.524114 -115.440671 
L 362.803456 -112.663878 
L 366.082798 -110.870724 
L 369.362141 -110.017446 
L 372.641463 -110.04918 
L 375.920806 -110.898912 
L 379.200148 -112.491712 
L 379.200148 -112.494733 
L 379.200148 -112.494733 
L 375.920806 -110.902477 
L 372.641463 -110.053531 
L 369.362141 -110.023002 
L 366.082798 -110.878338 
L 362.803456 -112.675702 
L 359.524114 -115.465416 
L 356.244772 -119.935595 
L 352.96543 -131.532146 
L 349.686088 -143.766063 
L 346.406765 -156.098281 
L 343.127423 -168.400891 
L 339.84808 -180.555844 
L 336.568738 -192.448257 
L 333.289396 -203.967278 
L 330.010073 -215.010223 
L 326.730731 -225.483273 
L 323.451389 -235.303794 
L 320.172047 -244.401524 
L 316.892705 -252.719647 
L 313.613382 -260.215938 
L 310.33402 -266.862212 
L 307.054697 -272.64483 
L 303.775355 -277.563184 
L 300.496013 -281.62937 
L 297.21669 -284.865794 
L 293.937329 -287.304704 
L 290.658006 -288.989193 
L 287.378664 -289.97269 
L 284.099322 -290.343375 
L 280.81998 -290.278167 
L 277.540637 -289.794963 
L 274.261315 -288.598419 
L 270.981953 -286.612952 
L 267.70263 -283.912415 
L 264.423288 -280.619962 
L 261.143946 -276.890484 
L 257.864623 -272.837736 
L 254.585262 -268.475116 
L 251.305939 -263.776869 
L 248.026597 -258.737971 
L 244.747254 -253.399093 
L 241.467912 -247.93539 
L 238.18857 -242.732455 
L 234.909247 -237.839635 
L 231.629886 -233.143308 
L 228.350563 -228.598272 
L 225.071221 -224.174944 
L 221.791879 -219.841455 
L 218.512556 -215.558582 
L 215.233204 -211.282675 
L 211.953871 -206.968142 
L 208.674529 -202.569887 
L 205.395187 -198.046429 
L 202.115855 -193.36322 
L 198.836512 -188.494622 
L 195.55717 -183.426204 
L 192.277838 -178.155942 
L 188.998496 -172.695418 
L 185.719153 -167.069845 
L 182.439821 -161.317901 
L 179.160479 -155.490757 
L 175.881137 -149.650746 
L 172.601804 -143.869442 
L 169.322462 -138.225752 
L 166.04312 -132.804357 
L 162.763787 -127.695656 
L 159.484445 -123.024119 
L 156.205103 -120.340793 
L 152.92577 -120.870439 
L 149.646428 -121.72838 
L 146.367086 -122.707707 
L 143.087754 -123.708993 
L 139.808412 -124.645322 
L 136.529069 -125.435834 
L 133.249737 -126.007498 
L 129.970395 -126.296377 
L 126.691057 -126.249278 
L 123.41172 -125.824468 
L 120.132378 -124.995894 
L 116.853041 -123.768991 
L 113.573703 -123.533705 
L 110.294361 -127.913044 
L 107.015024 -132.792532 
L 103.735686 -137.923272 
L 100.456344 -143.212348 
L 97.177007 -148.576133 
L 93.89767 -153.935964 
L 90.61833 -159.219412 
L 87.33899 -164.360118 
L 84.059653 -169.299594 
L 80.780313 -173.987802 
L 77.500973 -178.383472 
L 74.221636 -182.454666 
L 70.942296 -186.178328 
L 67.662958 -189.540284 
L 64.383619 -192.534671 
L 61.10428 -195.163313 
L 57.824941 -197.434876 
L 54.545602 -199.363937 
z
" style="stroke: #ff7f0e; stroke-opacity: 0.5; stroke-width: 0.8"/>
    </defs>
    <g clip-path="url(#p1d094e6bd3)">
     <use xlink:href="#m29790ea583" x="0" y="322.539375" style="fill: #ff7f0e; fill-opacity: 0.5; stroke: #ff7f0e; stroke-opacity: 0.5; stroke-width: 0.8"/>
    </g>
   </g>
   <g id="line2d_13">
    <defs>
     <path id="m600d00a4c6" d="M -5 5 
L 5 -5 
M -5 -5 
L 5 5 
" style="stroke: #000000; stroke-width: 2"/>
    </defs>
    <g clip-path="url(#p1d094e6bd3)">
     <use xlink:href="#m600d00a4c6" x="356.349693" y="203.499301" style="stroke: #000000; stroke-width: 2"/>
     <use xlink:href="#m600d00a4c6" x="157.258364" y="202.592702" style="stroke: #000000; stroke-width: 2"/>
     <use xlink:href="#m600d00a4c6" x="114.255683" y="200.163767" style="stroke: #000000; stroke-width: 2"/>
     <use xlink:href="#m600d00a4c6" x="261.143946" y="46.287939" style="stroke: #000000; stroke-width: 2"/>
     <use xlink:href="#m600d00a4c6" x="241.467912" y="75.216283" style="stroke: #000000; stroke-width: 2"/>
     <use xlink:href="#m600d00a4c6" x="280.81998" y="32.869886" style="stroke: #000000; stroke-width: 2"/>
    </g>
   </g>
   <g id="line2d_14">
    <path d="M 54.545602 195.594029 
L 57.824941 194.873894 
L 61.10428 194.21252 
L 64.383619 193.62509 
L 67.662958 193.126713 
L 70.942296 192.732046 
L 74.221636 192.454804 
L 77.500973 192.307245 
L 80.780313 192.299729 
L 84.059653 192.440113 
L 87.33899 192.733365 
L 90.61833 193.181041 
L 93.89767 193.7809 
L 97.177007 194.526607 
L 100.456344 195.407346 
L 103.735686 196.40784 
L 107.015024 197.508264 
L 110.294361 198.684302 
L 113.573703 199.907445 
L 116.853041 201.145299 
L 120.132378 202.362158 
L 123.41172 203.519652 
L 126.691057 204.577415 
L 129.970395 205.493973 
L 133.249737 206.227816 
L 136.529069 206.738043 
L 139.808412 206.985714 
L 143.087754 206.934673 
L 146.367086 206.55237 
L 149.646428 205.810958 
L 152.92577 204.687836 
L 156.205103 203.166365 
L 159.484445 201.23614 
L 162.763787 198.893384 
L 166.04312 196.140857 
L 169.322462 192.98781 
L 172.601804 189.449401 
L 175.881137 185.546414 
L 179.160479 181.304096 
L 182.439821 176.751706 
L 185.719153 171.921355 
L 188.998496 166.846769 
L 192.277838 161.562598 
L 195.55717 156.102986 
L 198.836512 150.501189 
L 202.115855 144.788007 
L 205.395187 138.992013 
L 208.674529 133.138366 
L 211.953871 127.249323 
L 215.233204 121.343874 
L 218.512556 115.438153 
L 221.791879 109.546383 
L 225.071221 103.680923 
L 228.350563 97.854131 
L 231.629886 92.078845 
L 234.909247 86.369817 
L 238.18857 80.744752 
L 241.467912 75.225598 
L 244.747254 69.839209 
L 248.026597 64.61844 
L 251.305939 59.602485 
L 254.585262 54.836995 
L 257.864623 50.373794 
L 261.143946 46.270913 
L 264.423288 42.590897 
L 267.70263 39.39998 
L 270.981953 36.766643 
L 274.261315 34.759199 
L 277.540637 33.444156 
L 280.81998 32.884038 
L 284.099322 33.135049 
L 287.378664 34.244734 
L 290.658006 36.250185 
L 293.937329 39.175834 
L 297.21669 43.033021 
L 300.496013 47.816984 
L 303.775355 53.508105 
L 307.054697 60.070457 
L 310.33402 67.452352 
L 313.613382 75.58724 
L 316.892705 84.394557 
L 320.172047 93.781525 
L 323.451389 103.645109 
L 326.730731 113.873945 
L 330.010073 124.351253 
L 333.289396 134.956958 
L 336.568738 145.570604 
L 339.84808 156.073991 
L 343.127423 166.353364 
L 346.406765 176.301862 
L 349.686088 185.8217 
L 352.96543 194.825688 
L 356.244772 203.238507 
L 359.524114 210.998163 
L 362.803456 218.055902 
L 366.082798 224.377407 
L 369.362141 229.94178 
L 372.641463 234.741588 
L 375.920806 238.782193 
L 379.200148 242.080321 
" clip-path="url(#p1d094e6bd3)" style="fill: none; stroke: #1f77b4; stroke-width: 2; stroke-linecap: round"/>
   </g>
   <g id="line2d_15">
    <path d="M 54.545602 121.387923 
L 57.824941 126.756626 
L 61.10428 132.105407 
L 64.383619 137.41443 
L 67.662958 142.663932 
L 70.942296 147.834367 
L 74.221636 152.906383 
L 77.500973 157.860966 
L 80.780313 162.679478 
L 84.059653 167.343695 
L 87.33899 171.835917 
L 90.61833 176.139 
L 93.89767 180.23642 
L 97.177007 184.112332 
L 100.456344 187.751642 
L 103.735686 191.140007 
L 107.015024 194.263944 
L 110.294361 197.110842 
L 113.573703 199.669032 
L 116.853041 201.927792 
L 120.132378 203.877403 
L 123.41172 205.509199 
L 126.691057 206.815577 
L 129.970395 207.790026 
L 133.249737 208.42717 
L 136.529069 208.72277 
L 139.808412 208.673749 
L 143.087754 208.278223 
L 146.367086 207.535494 
L 149.646428 206.446062 
L 152.92577 205.011645 
L 156.205103 203.235192 
L 159.484445 201.120836 
L 162.763787 198.673975 
L 166.04312 195.90119 
L 169.322462 192.810298 
L 172.601804 189.410325 
L 175.881137 185.711505 
L 179.160479 181.725287 
L 182.439821 177.46427 
L 185.719153 172.942313 
L 188.998496 168.17439 
L 192.277838 163.176708 
L 195.55717 157.966577 
L 198.836512 152.562522 
L 202.115855 146.984239 
L 205.395187 141.252567 
L 208.674529 135.389489 
L 211.953871 129.418203 
L 215.233204 123.363031 
L 218.512556 117.249481 
L 221.791879 111.104297 
L 225.071221 104.955337 
L 228.350563 98.83169 
L 231.629886 92.763809 
L 234.909247 86.783113 
L 238.18857 80.922605 
L 241.467912 75.216283 
L 244.747254 69.699583 
L 248.026597 64.40918 
L 251.305939 59.382975 
L 254.585262 54.660234 
L 257.864623 50.281343 
L 261.143946 46.287939 
L 264.423288 42.722697 
L 267.70263 39.629298 
L 270.981953 37.052157 
L 274.261315 35.036342 
L 277.540637 33.62717 
L 280.81998 32.869886 
L 284.099322 32.809179 
L 287.378664 33.488593 
L 290.658006 34.949745 
L 293.937329 37.231457 
L 297.21669 40.368758 
L 300.496013 44.391157 
L 303.775355 49.321701 
L 307.054697 55.174552 
L 310.33402 61.95294 
L 313.613382 69.646943 
L 316.892705 78.230113 
L 320.172047 87.656661 
L 323.451389 97.857718 
L 326.730731 108.737435 
L 330.010073 120.169066 
L 333.289396 131.990837 
L 336.568738 144.001969 
L 339.84808 155.959521 
L 343.127423 167.575756 
L 346.406765 178.517144 
L 349.686088 188.406121 
L 352.96543 196.825726 
L 356.244772 203.328083 
L 359.524114 207.44971 
L 362.803456 208.732752 
L 366.082798 206.755085 
L 369.362141 201.169705 
L 372.641463 191.753815 
L 375.920806 178.467331 
L 379.200148 161.51804 
" clip-path="url(#p1d094e6bd3)" style="fill: none; stroke-dasharray: 7.68,1.92,1.2,1.92; stroke-dashoffset: 0; stroke: #bf00bf; stroke-width: 1.2"/>
   </g>
   <g id="patch_3">
    <path d="M 38.312875 252.744436 
L 38.312875 32.746992 
" style="fill: none; stroke: #262626; stroke-linejoin: miter; stroke-linecap: square"/>
   </g>
   <g id="patch_4">
    <path d="M 54.545602 286.212 
L 379.200148 286.212 
" style="fill: none; stroke: #262626; stroke-linejoin: miter; stroke-linecap: square"/>
   </g>
   <g id="text_15">
    <!-- N=2, psi=1.96 -->
    <g style="fill: #262626" transform="translate(186.986125 14.1) scale(0.096 -0.096)">
     <defs>
      <path id="ArialMT-4e" d="M 488 0 
L 488 4581 
L 1109 4581 
L 3516 984 
L 3516 4581 
L 4097 4581 
L 4097 0 
L 3475 0 
L 1069 3600 
L 1069 0 
L 488 0 
z
" transform="scale(0.015625)"/>
      <path id="ArialMT-3d" d="M 3381 2694 
L 356 2694 
L 356 3219 
L 3381 3219 
L 3381 2694 
z
M 3381 1303 
L 356 1303 
L 356 1828 
L 3381 1828 
L 3381 1303 
z
" transform="scale(0.015625)"/>
      <path id="ArialMT-2c" d="M 569 0 
L 569 641 
L 1209 641 
L 1209 0 
Q 1209 -353 1084 -570 
Q 959 -788 688 -906 
L 531 -666 
Q 709 -588 793 -436 
Q 878 -284 888 0 
L 569 0 
z
" transform="scale(0.015625)"/>
      <path id="ArialMT-20" transform="scale(0.015625)"/>
      <path id="ArialMT-70" d="M 422 -1272 
L 422 3319 
L 934 3319 
L 934 2888 
Q 1116 3141 1344 3267 
Q 1572 3394 1897 3394 
Q 2322 3394 2647 3175 
Q 2972 2956 3137 2557 
Q 3303 2159 3303 1684 
Q 3303 1175 3120 767 
Q 2938 359 2589 142 
Q 2241 -75 1856 -75 
Q 1575 -75 1351 44 
Q 1128 163 984 344 
L 984 -1272 
L 422 -1272 
z
M 931 1641 
Q 931 1000 1190 694 
Q 1450 388 1819 388 
Q 2194 388 2461 705 
Q 2728 1022 2728 1688 
Q 2728 2322 2467 2637 
Q 2206 2953 1844 2953 
Q 1484 2953 1207 2617 
Q 931 2281 931 1641 
z
" transform="scale(0.015625)"/>
      <path id="ArialMT-73" d="M 197 991 
L 753 1078 
Q 800 744 1014 566 
Q 1228 388 1613 388 
Q 2000 388 2187 545 
Q 2375 703 2375 916 
Q 2375 1106 2209 1216 
Q 2094 1291 1634 1406 
Q 1016 1563 777 1677 
Q 538 1791 414 1992 
Q 291 2194 291 2438 
Q 291 2659 392 2848 
Q 494 3038 669 3163 
Q 800 3259 1026 3326 
Q 1253 3394 1513 3394 
Q 1903 3394 2198 3281 
Q 2494 3169 2634 2976 
Q 2775 2784 2828 2463 
L 2278 2388 
Q 2241 2644 2061 2787 
Q 1881 2931 1553 2931 
Q 1166 2931 1000 2803 
Q 834 2675 834 2503 
Q 834 2394 903 2306 
Q 972 2216 1119 2156 
Q 1203 2125 1616 2013 
Q 2213 1853 2448 1751 
Q 2684 1650 2818 1456 
Q 2953 1263 2953 975 
Q 2953 694 2789 445 
Q 2625 197 2315 61 
Q 2006 -75 1616 -75 
Q 969 -75 630 194 
Q 291 463 197 991 
z
" transform="scale(0.015625)"/>
      <path id="ArialMT-69" d="M 425 3934 
L 425 4581 
L 988 4581 
L 988 3934 
L 425 3934 
z
M 425 0 
L 425 3319 
L 988 3319 
L 988 0 
L 425 0 
z
" transform="scale(0.015625)"/>
      <path id="ArialMT-39" d="M 350 1059 
L 891 1109 
Q 959 728 1153 556 
Q 1347 384 1650 384 
Q 1909 384 2104 503 
Q 2300 622 2425 820 
Q 2550 1019 2634 1356 
Q 2719 1694 2719 2044 
Q 2719 2081 2716 2156 
Q 2547 1888 2255 1720 
Q 1963 1553 1622 1553 
Q 1053 1553 659 1965 
Q 266 2378 266 3053 
Q 266 3750 677 4175 
Q 1088 4600 1706 4600 
Q 2153 4600 2523 4359 
Q 2894 4119 3086 3673 
Q 3278 3228 3278 2384 
Q 3278 1506 3087 986 
Q 2897 466 2520 194 
Q 2144 -78 1638 -78 
Q 1100 -78 759 220 
Q 419 519 350 1059 
z
M 2653 3081 
Q 2653 3566 2395 3850 
Q 2138 4134 1775 4134 
Q 1400 4134 1122 3828 
Q 844 3522 844 3034 
Q 844 2597 1108 2323 
Q 1372 2050 1759 2050 
Q 2150 2050 2401 2323 
Q 2653 2597 2653 3081 
z
" transform="scale(0.015625)"/>
     </defs>
     <use xlink:href="#ArialMT-4e"/>
     <use xlink:href="#ArialMT-3d" x="72.216797"/>
     <use xlink:href="#ArialMT-32" x="130.615234"/>
     <use xlink:href="#ArialMT-2c" x="186.230469"/>
     <use xlink:href="#ArialMT-20" x="214.013672"/>
     <use xlink:href="#ArialMT-70" x="241.796875"/>
     <use xlink:href="#ArialMT-73" x="297.412109"/>
     <use xlink:href="#ArialMT-69" x="347.412109"/>
     <use xlink:href="#ArialMT-3d" x="369.628906"/>
     <use xlink:href="#ArialMT-31" x="428.027344"/>
     <use xlink:href="#ArialMT-2e" x="483.642578"/>
     <use xlink:href="#ArialMT-39" x="511.425781"/>
     <use xlink:href="#ArialMT-36" x="567.041016"/>
    </g>
   </g>
   <g id="legend_1">
    <g id="line2d_16">
     <g>
      <use xlink:href="#m600d00a4c6" x="55.032875" y="31.238875" style="stroke: #000000; stroke-width: 2"/>
     </g>
    </g>
    <g id="text_16">
     <!-- Observations -->
     <g style="fill: #262626" transform="translate(70.872875 34.318875) scale(0.088 -0.088)">
      <defs>
       <path id="ArialMT-4f" d="M 309 2231 
Q 309 3372 921 4017 
Q 1534 4663 2503 4663 
Q 3138 4663 3647 4359 
Q 4156 4056 4423 3514 
Q 4691 2972 4691 2284 
Q 4691 1588 4409 1038 
Q 4128 488 3612 205 
Q 3097 -78 2500 -78 
Q 1853 -78 1343 234 
Q 834 547 571 1087 
Q 309 1628 309 2231 
z
M 934 2222 
Q 934 1394 1379 917 
Q 1825 441 2497 441 
Q 3181 441 3623 922 
Q 4066 1403 4066 2288 
Q 4066 2847 3877 3264 
Q 3688 3681 3323 3911 
Q 2959 4141 2506 4141 
Q 1863 4141 1398 3698 
Q 934 3256 934 2222 
z
" transform="scale(0.015625)"/>
       <path id="ArialMT-62" d="M 941 0 
L 419 0 
L 419 4581 
L 981 4581 
L 981 2947 
Q 1338 3394 1891 3394 
Q 2197 3394 2470 3270 
Q 2744 3147 2920 2923 
Q 3097 2700 3197 2384 
Q 3297 2069 3297 1709 
Q 3297 856 2875 390 
Q 2453 -75 1863 -75 
Q 1275 -75 941 416 
L 941 0 
z
M 934 1684 
Q 934 1088 1097 822 
Q 1363 388 1816 388 
Q 2184 388 2453 708 
Q 2722 1028 2722 1663 
Q 2722 2313 2464 2622 
Q 2206 2931 1841 2931 
Q 1472 2931 1203 2611 
Q 934 2291 934 1684 
z
" transform="scale(0.015625)"/>
       <path id="ArialMT-65" d="M 2694 1069 
L 3275 997 
Q 3138 488 2766 206 
Q 2394 -75 1816 -75 
Q 1088 -75 661 373 
Q 234 822 234 1631 
Q 234 2469 665 2931 
Q 1097 3394 1784 3394 
Q 2450 3394 2872 2941 
Q 3294 2488 3294 1666 
Q 3294 1616 3291 1516 
L 816 1516 
Q 847 969 1125 678 
Q 1403 388 1819 388 
Q 2128 388 2347 550 
Q 2566 713 2694 1069 
z
M 847 1978 
L 2700 1978 
Q 2663 2397 2488 2606 
Q 2219 2931 1791 2931 
Q 1403 2931 1139 2672 
Q 875 2413 847 1978 
z
" transform="scale(0.015625)"/>
       <path id="ArialMT-72" d="M 416 0 
L 416 3319 
L 922 3319 
L 922 2816 
Q 1116 3169 1280 3281 
Q 1444 3394 1641 3394 
Q 1925 3394 2219 3213 
L 2025 2691 
Q 1819 2813 1613 2813 
Q 1428 2813 1281 2702 
Q 1134 2591 1072 2394 
Q 978 2094 978 1738 
L 978 0 
L 416 0 
z
" transform="scale(0.015625)"/>
       <path id="ArialMT-76" d="M 1344 0 
L 81 3319 
L 675 3319 
L 1388 1331 
Q 1503 1009 1600 663 
Q 1675 925 1809 1294 
L 2547 3319 
L 3125 3319 
L 1869 0 
L 1344 0 
z
" transform="scale(0.015625)"/>
       <path id="ArialMT-61" d="M 2588 409 
Q 2275 144 1986 34 
Q 1697 -75 1366 -75 
Q 819 -75 525 192 
Q 231 459 231 875 
Q 231 1119 342 1320 
Q 453 1522 633 1644 
Q 813 1766 1038 1828 
Q 1203 1872 1538 1913 
Q 2219 1994 2541 2106 
Q 2544 2222 2544 2253 
Q 2544 2597 2384 2738 
Q 2169 2928 1744 2928 
Q 1347 2928 1158 2789 
Q 969 2650 878 2297 
L 328 2372 
Q 403 2725 575 2942 
Q 747 3159 1072 3276 
Q 1397 3394 1825 3394 
Q 2250 3394 2515 3294 
Q 2781 3194 2906 3042 
Q 3031 2891 3081 2659 
Q 3109 2516 3109 2141 
L 3109 1391 
Q 3109 606 3145 398 
Q 3181 191 3288 0 
L 2700 0 
Q 2613 175 2588 409 
z
M 2541 1666 
Q 2234 1541 1622 1453 
Q 1275 1403 1131 1340 
Q 988 1278 909 1158 
Q 831 1038 831 891 
Q 831 666 1001 516 
Q 1172 366 1500 366 
Q 1825 366 2078 508 
Q 2331 650 2450 897 
Q 2541 1088 2541 1459 
L 2541 1666 
z
" transform="scale(0.015625)"/>
       <path id="ArialMT-74" d="M 1650 503 
L 1731 6 
Q 1494 -44 1306 -44 
Q 1000 -44 831 53 
Q 663 150 594 308 
Q 525 466 525 972 
L 525 2881 
L 113 2881 
L 113 3319 
L 525 3319 
L 525 4141 
L 1084 4478 
L 1084 3319 
L 1650 3319 
L 1650 2881 
L 1084 2881 
L 1084 941 
Q 1084 700 1114 631 
Q 1144 563 1211 522 
Q 1278 481 1403 481 
Q 1497 481 1650 503 
z
" transform="scale(0.015625)"/>
       <path id="ArialMT-6f" d="M 213 1659 
Q 213 2581 725 3025 
Q 1153 3394 1769 3394 
Q 2453 3394 2887 2945 
Q 3322 2497 3322 1706 
Q 3322 1066 3130 698 
Q 2938 331 2570 128 
Q 2203 -75 1769 -75 
Q 1072 -75 642 372 
Q 213 819 213 1659 
z
M 791 1659 
Q 791 1022 1069 705 
Q 1347 388 1769 388 
Q 2188 388 2466 706 
Q 2744 1025 2744 1678 
Q 2744 2294 2464 2611 
Q 2184 2928 1769 2928 
Q 1347 2928 1069 2612 
Q 791 2297 791 1659 
z
" transform="scale(0.015625)"/>
       <path id="ArialMT-6e" d="M 422 0 
L 422 3319 
L 928 3319 
L 928 2847 
Q 1294 3394 1984 3394 
Q 2284 3394 2536 3286 
Q 2788 3178 2913 3003 
Q 3038 2828 3088 2588 
Q 3119 2431 3119 2041 
L 3119 0 
L 2556 0 
L 2556 2019 
Q 2556 2363 2490 2533 
Q 2425 2703 2258 2804 
Q 2091 2906 1866 2906 
Q 1506 2906 1245 2678 
Q 984 2450 984 1813 
L 984 0 
L 422 0 
z
" transform="scale(0.015625)"/>
      </defs>
      <use xlink:href="#ArialMT-4f"/>
      <use xlink:href="#ArialMT-62" x="77.783203"/>
      <use xlink:href="#ArialMT-73" x="133.398438"/>
      <use xlink:href="#ArialMT-65" x="183.398438"/>
      <use xlink:href="#ArialMT-72" x="239.013672"/>
      <use xlink:href="#ArialMT-76" x="272.314453"/>
      <use xlink:href="#ArialMT-61" x="322.314453"/>
      <use xlink:href="#ArialMT-74" x="377.929688"/>
      <use xlink:href="#ArialMT-69" x="405.712891"/>
      <use xlink:href="#ArialMT-6f" x="427.929688"/>
      <use xlink:href="#ArialMT-6e" x="483.544922"/>
      <use xlink:href="#ArialMT-73" x="539.160156"/>
     </g>
    </g>
    <g id="line2d_17">
     <path d="M 46.232875 43.822875 
L 55.032875 43.822875 
L 63.832875 43.822875 
" style="fill: none; stroke: #1f77b4; stroke-width: 2; stroke-linecap: round"/>
    </g>
    <g id="text_17">
     <!-- $m_n(x)$ -->
     <g style="fill: #262626" transform="translate(70.872875 46.902875) scale(0.088 -0.088)">
      <defs>
       <path id="DejaVuSans-Oblique-6d" d="M 5747 2113 
L 5338 0 
L 4763 0 
L 5166 2094 
Q 5191 2228 5203 2325 
Q 5216 2422 5216 2491 
Q 5216 2772 5059 2928 
Q 4903 3084 4622 3084 
Q 4203 3084 3875 2770 
Q 3547 2456 3450 1953 
L 3066 0 
L 2491 0 
L 2900 2094 
Q 2925 2209 2937 2307 
Q 2950 2406 2950 2484 
Q 2950 2769 2794 2926 
Q 2638 3084 2363 3084 
Q 1938 3084 1609 2770 
Q 1281 2456 1184 1953 
L 800 0 
L 225 0 
L 909 3500 
L 1484 3500 
L 1375 2956 
Q 1609 3263 1923 3423 
Q 2238 3584 2597 3584 
Q 2978 3584 3223 3384 
Q 3469 3184 3519 2828 
Q 3781 3197 4126 3390 
Q 4472 3584 4856 3584 
Q 5306 3584 5551 3325 
Q 5797 3066 5797 2591 
Q 5797 2488 5784 2364 
Q 5772 2241 5747 2113 
z
" transform="scale(0.015625)"/>
       <path id="DejaVuSans-Oblique-6e" d="M 3566 2113 
L 3156 0 
L 2578 0 
L 2988 2091 
Q 3016 2238 3031 2350 
Q 3047 2463 3047 2528 
Q 3047 2791 2881 2937 
Q 2716 3084 2419 3084 
Q 1956 3084 1622 2776 
Q 1288 2469 1184 1941 
L 800 0 
L 225 0 
L 903 3500 
L 1478 3500 
L 1363 2950 
Q 1603 3253 1940 3418 
Q 2278 3584 2650 3584 
Q 3113 3584 3367 3334 
Q 3622 3084 3622 2631 
Q 3622 2519 3608 2391 
Q 3594 2263 3566 2113 
z
" transform="scale(0.015625)"/>
       <path id="DejaVuSans-28" d="M 1984 4856 
Q 1566 4138 1362 3434 
Q 1159 2731 1159 2009 
Q 1159 1288 1364 580 
Q 1569 -128 1984 -844 
L 1484 -844 
Q 1016 -109 783 600 
Q 550 1309 550 2009 
Q 550 2706 781 3412 
Q 1013 4119 1484 4856 
L 1984 4856 
z
" transform="scale(0.015625)"/>
       <path id="DejaVuSans-29" d="M 513 4856 
L 1013 4856 
Q 1481 4119 1714 3412 
Q 1947 2706 1947 2009 
Q 1947 1309 1714 600 
Q 1481 -109 1013 -844 
L 513 -844 
Q 928 -128 1133 580 
Q 1338 1288 1338 2009 
Q 1338 2731 1133 3434 
Q 928 4138 513 4856 
z
" transform="scale(0.015625)"/>
      </defs>
      <use xlink:href="#DejaVuSans-Oblique-6d" transform="translate(0 0.125)"/>
      <use xlink:href="#DejaVuSans-Oblique-6e" transform="translate(97.412109 -16.28125) scale(0.7)"/>
      <use xlink:href="#DejaVuSans-28" transform="translate(144.511719 0.125)"/>
      <use xlink:href="#DejaVuSans-Oblique-78" transform="translate(183.525391 0.125)"/>
      <use xlink:href="#DejaVuSans-29" transform="translate(242.705078 0.125)"/>
     </g>
    </g>
    <g id="patch_5">
     <path d="M 46.232875 61.059875 
L 63.832875 61.059875 
L 63.832875 54.899875 
L 46.232875 54.899875 
z
" style="fill: #1f77b4; fill-opacity: 0.5; stroke: #1f77b4; stroke-opacity: 0.5; stroke-width: 0.8; stroke-linejoin: miter"/>
    </g>
    <g id="text_18">
     <!-- $f(\mathbf{x}^*)$ 95% pred. -->
     <g style="fill: #262626" transform="translate(70.872875 61.059875) scale(0.088 -0.088)">
      <defs>
       <path id="DejaVuSans-Oblique-66" d="M 3059 4863 
L 2969 4384 
L 2419 4384 
Q 2106 4384 1964 4261 
Q 1822 4138 1753 3809 
L 1691 3500 
L 2638 3500 
L 2553 3053 
L 1606 3053 
L 1013 0 
L 434 0 
L 1031 3053 
L 481 3053 
L 563 3500 
L 1113 3500 
L 1159 3744 
Q 1278 4363 1576 4613 
Q 1875 4863 2516 4863 
L 3059 4863 
z
" transform="scale(0.015625)"/>
       <path id="DejaVuSans-Bold-78" d="M 1422 1791 
L 159 3500 
L 1344 3500 
L 2059 2463 
L 2784 3500 
L 3969 3500 
L 2706 1797 
L 4031 0 
L 2847 0 
L 2059 1106 
L 1281 0 
L 97 0 
L 1422 1791 
z
" transform="scale(0.015625)"/>
       <path id="DejaVuSans-2a" d="M 3009 3897 
L 1888 3291 
L 3009 2681 
L 2828 2375 
L 1778 3009 
L 1778 1831 
L 1422 1831 
L 1422 3009 
L 372 2375 
L 191 2681 
L 1313 3291 
L 191 3897 
L 372 4206 
L 1422 3572 
L 1422 4750 
L 1778 4750 
L 1778 3572 
L 2828 4206 
L 3009 3897 
z
" transform="scale(0.015625)"/>
       <path id="ArialMT-35" d="M 266 1200 
L 856 1250 
Q 922 819 1161 601 
Q 1400 384 1738 384 
Q 2144 384 2425 690 
Q 2706 997 2706 1503 
Q 2706 1984 2436 2262 
Q 2166 2541 1728 2541 
Q 1456 2541 1237 2417 
Q 1019 2294 894 2097 
L 366 2166 
L 809 4519 
L 3088 4519 
L 3088 3981 
L 1259 3981 
L 1013 2750 
Q 1425 3038 1878 3038 
Q 2478 3038 2890 2622 
Q 3303 2206 3303 1553 
Q 3303 931 2941 478 
Q 2500 -78 1738 -78 
Q 1113 -78 717 272 
Q 322 622 266 1200 
z
" transform="scale(0.015625)"/>
       <path id="ArialMT-25" d="M 372 3481 
Q 372 3972 619 4315 
Q 866 4659 1334 4659 
Q 1766 4659 2048 4351 
Q 2331 4044 2331 3447 
Q 2331 2866 2045 2552 
Q 1759 2238 1341 2238 
Q 925 2238 648 2547 
Q 372 2856 372 3481 
z
M 1350 4272 
Q 1141 4272 1002 4090 
Q 863 3909 863 3425 
Q 863 2984 1003 2804 
Q 1144 2625 1350 2625 
Q 1563 2625 1702 2806 
Q 1841 2988 1841 3469 
Q 1841 3913 1700 4092 
Q 1559 4272 1350 4272 
z
M 1353 -169 
L 3859 4659 
L 4316 4659 
L 1819 -169 
L 1353 -169 
z
M 3334 1075 
Q 3334 1569 3581 1911 
Q 3828 2253 4300 2253 
Q 4731 2253 5014 1945 
Q 5297 1638 5297 1041 
Q 5297 459 5011 145 
Q 4725 -169 4303 -169 
Q 3888 -169 3611 142 
Q 3334 453 3334 1075 
z
M 4316 1866 
Q 4103 1866 3964 1684 
Q 3825 1503 3825 1019 
Q 3825 581 3965 400 
Q 4106 219 4313 219 
Q 4528 219 4667 400 
Q 4806 581 4806 1063 
Q 4806 1506 4665 1686 
Q 4525 1866 4316 1866 
z
" transform="scale(0.015625)"/>
       <path id="ArialMT-64" d="M 2575 0 
L 2575 419 
Q 2259 -75 1647 -75 
Q 1250 -75 917 144 
Q 584 363 401 755 
Q 219 1147 219 1656 
Q 219 2153 384 2558 
Q 550 2963 881 3178 
Q 1213 3394 1622 3394 
Q 1922 3394 2156 3267 
Q 2391 3141 2538 2938 
L 2538 4581 
L 3097 4581 
L 3097 0 
L 2575 0 
z
M 797 1656 
Q 797 1019 1065 703 
Q 1334 388 1700 388 
Q 2069 388 2326 689 
Q 2584 991 2584 1609 
Q 2584 2291 2321 2609 
Q 2059 2928 1675 2928 
Q 1300 2928 1048 2622 
Q 797 2316 797 1656 
z
" transform="scale(0.015625)"/>
      </defs>
      <use xlink:href="#DejaVuSans-Oblique-66" transform="translate(0 0.765625)"/>
      <use xlink:href="#DejaVuSans-28" transform="translate(35.205078 0.765625)"/>
      <use xlink:href="#DejaVuSans-Bold-78" transform="translate(74.21875 0.765625)"/>
      <use xlink:href="#DejaVuSans-2a" transform="translate(153.31543 39.046875) scale(0.7)"/>
      <use xlink:href="#DejaVuSans-29" transform="translate(204.6875 0.765625)"/>
      <use xlink:href="#ArialMT-20" transform="translate(243.701172 0.765625)"/>
      <use xlink:href="#ArialMT-39" transform="translate(271.484375 0.765625)"/>
      <use xlink:href="#ArialMT-35" transform="translate(327.099609 0.765625)"/>
      <use xlink:href="#ArialMT-25" transform="translate(382.714844 0.765625)"/>
      <use xlink:href="#ArialMT-20" transform="translate(471.630859 0.765625)"/>
      <use xlink:href="#ArialMT-70" transform="translate(499.414062 0.765625)"/>
      <use xlink:href="#ArialMT-72" transform="translate(555.029297 0.765625)"/>
      <use xlink:href="#ArialMT-65" transform="translate(588.330078 0.765625)"/>
      <use xlink:href="#ArialMT-64" transform="translate(643.945312 0.765625)"/>
      <use xlink:href="#ArialMT-2e" transform="translate(699.560547 0.765625)"/>
     </g>
    </g>
    <g id="patch_6">
     <path d="M 46.232875 75.227875 
L 63.832875 75.227875 
L 63.832875 69.067875 
L 46.232875 69.067875 
z
" style="fill: #ff7f0e; fill-opacity: 0.5; stroke: #ff7f0e; stroke-opacity: 0.5; stroke-width: 0.8; stroke-linejoin: miter"/>
    </g>
    <g id="text_19">
     <!-- $y^*$ 95% pred. -->
     <g style="fill: #262626" transform="translate(70.872875 75.227875) scale(0.088 -0.088)">
      <use xlink:href="#DejaVuSans-Oblique-79" transform="translate(0 0.765625)"/>
      <use xlink:href="#DejaVuSans-2a" transform="translate(77.283529 39.046875) scale(0.7)"/>
      <use xlink:href="#ArialMT-20" transform="translate(128.655599 0.765625)"/>
      <use xlink:href="#ArialMT-39" transform="translate(156.438802 0.765625)"/>
      <use xlink:href="#ArialMT-35" transform="translate(212.054036 0.765625)"/>
      <use xlink:href="#ArialMT-25" transform="translate(267.669271 0.765625)"/>
      <use xlink:href="#ArialMT-20" transform="translate(356.585286 0.765625)"/>
      <use xlink:href="#ArialMT-70" transform="translate(384.36849 0.765625)"/>
      <use xlink:href="#ArialMT-72" transform="translate(439.983724 0.765625)"/>
      <use xlink:href="#ArialMT-65" transform="translate(473.284505 0.765625)"/>
      <use xlink:href="#ArialMT-64" transform="translate(528.89974 0.765625)"/>
      <use xlink:href="#ArialMT-2e" transform="translate(584.514974 0.765625)"/>
     </g>
    </g>
    <g id="line2d_18">
     <path d="M 46.232875 84.69475 
L 55.032875 84.69475 
L 63.832875 84.69475 
" style="fill: none; stroke-dasharray: 7.68,1.92,1.2,1.92; stroke-dashoffset: 0; stroke: #bf00bf; stroke-width: 1.2"/>
    </g>
    <g id="text_20">
     <!-- True function -->
     <g style="fill: #262626" transform="translate(70.872875 87.77475) scale(0.088 -0.088)">
      <defs>
       <path id="ArialMT-54" d="M 1659 0 
L 1659 4041 
L 150 4041 
L 150 4581 
L 3781 4581 
L 3781 4041 
L 2266 4041 
L 2266 0 
L 1659 0 
z
" transform="scale(0.015625)"/>
       <path id="ArialMT-75" d="M 2597 0 
L 2597 488 
Q 2209 -75 1544 -75 
Q 1250 -75 995 37 
Q 741 150 617 320 
Q 494 491 444 738 
Q 409 903 409 1263 
L 409 3319 
L 972 3319 
L 972 1478 
Q 972 1038 1006 884 
Q 1059 663 1231 536 
Q 1403 409 1656 409 
Q 1909 409 2131 539 
Q 2353 669 2445 892 
Q 2538 1116 2538 1541 
L 2538 3319 
L 3100 3319 
L 3100 0 
L 2597 0 
z
" transform="scale(0.015625)"/>
       <path id="ArialMT-66" d="M 556 0 
L 556 2881 
L 59 2881 
L 59 3319 
L 556 3319 
L 556 3672 
Q 556 4006 616 4169 
Q 697 4388 901 4523 
Q 1106 4659 1475 4659 
Q 1713 4659 2000 4603 
L 1916 4113 
Q 1741 4144 1584 4144 
Q 1328 4144 1222 4034 
Q 1116 3925 1116 3625 
L 1116 3319 
L 1763 3319 
L 1763 2881 
L 1116 2881 
L 1116 0 
L 556 0 
z
" transform="scale(0.015625)"/>
       <path id="ArialMT-63" d="M 2588 1216 
L 3141 1144 
Q 3050 572 2676 248 
Q 2303 -75 1759 -75 
Q 1078 -75 664 370 
Q 250 816 250 1647 
Q 250 2184 428 2587 
Q 606 2991 970 3192 
Q 1334 3394 1763 3394 
Q 2303 3394 2647 3120 
Q 2991 2847 3088 2344 
L 2541 2259 
Q 2463 2594 2264 2762 
Q 2066 2931 1784 2931 
Q 1359 2931 1093 2626 
Q 828 2322 828 1663 
Q 828 994 1084 691 
Q 1341 388 1753 388 
Q 2084 388 2306 591 
Q 2528 794 2588 1216 
z
" transform="scale(0.015625)"/>
      </defs>
      <use xlink:href="#ArialMT-54"/>
      <use xlink:href="#ArialMT-72" x="57.333984"/>
      <use xlink:href="#ArialMT-75" x="90.634766"/>
      <use xlink:href="#ArialMT-65" x="146.25"/>
      <use xlink:href="#ArialMT-20" x="201.865234"/>
      <use xlink:href="#ArialMT-66" x="229.648438"/>
      <use xlink:href="#ArialMT-75" x="257.431641"/>
      <use xlink:href="#ArialMT-6e" x="313.046875"/>
      <use xlink:href="#ArialMT-63" x="368.662109"/>
      <use xlink:href="#ArialMT-74" x="418.662109"/>
      <use xlink:href="#ArialMT-69" x="446.445312"/>
      <use xlink:href="#ArialMT-6f" x="468.662109"/>
      <use xlink:href="#ArialMT-6e" x="524.277344"/>
     </g>
    </g>
   </g>
  </g>
  <g id="axes_2">
   <g id="matplotlib.axis_3">
    <g id="ytick_7">
     <g id="line2d_19">
      <defs>
       <path id="me2f495601b" d="M 0 0 
L 4.8 0 
" style="stroke: #262626"/>
      </defs>
      <g>
       <use xlink:href="#me2f495601b" x="395.432875" y="268.50339" style="fill: #262626; stroke: #262626"/>
      </g>
     </g>
     <g id="text_21">
      <!-- 0 -->
      <g style="fill: #ff7f0e" transform="translate(403.732875 271.652827) scale(0.088 -0.088)">
       <use xlink:href="#ArialMT-30"/>
      </g>
     </g>
    </g>
    <g id="ytick_8">
     <g id="line2d_20">
      <g>
       <use xlink:href="#me2f495601b" x="395.432875" y="209.568838" style="fill: #262626; stroke: #262626"/>
      </g>
     </g>
     <g id="text_22">
      <!-- 2 -->
      <g style="fill: #ff7f0e" transform="translate(403.732875 212.718275) scale(0.088 -0.088)">
       <use xlink:href="#ArialMT-32"/>
      </g>
     </g>
    </g>
    <g id="ytick_9">
     <g id="line2d_21">
      <g>
       <use xlink:href="#me2f495601b" x="395.432875" y="150.634286" style="fill: #262626; stroke: #262626"/>
      </g>
     </g>
     <g id="text_23">
      <!-- 4 -->
      <g style="fill: #ff7f0e" transform="translate(403.732875 153.783723) scale(0.088 -0.088)">
       <use xlink:href="#ArialMT-34"/>
      </g>
     </g>
    </g>
    <g id="ytick_10">
     <g id="line2d_22">
      <g>
       <use xlink:href="#me2f495601b" x="395.432875" y="91.699734" style="fill: #262626; stroke: #262626"/>
      </g>
     </g>
     <g id="text_24">
      <!-- 6 -->
      <g style="fill: #ff7f0e" transform="translate(403.732875 94.849171) scale(0.088 -0.088)">
       <use xlink:href="#ArialMT-36"/>
      </g>
     </g>
    </g>
    <g id="ytick_11">
     <g id="line2d_23">
      <g>
       <use xlink:href="#me2f495601b" x="395.432875" y="32.765182" style="fill: #262626; stroke: #262626"/>
      </g>
     </g>
     <g id="text_25">
      <!-- 8 -->
      <g style="fill: #ff7f0e" transform="translate(403.732875 35.914619) scale(0.088 -0.088)">
       <use xlink:href="#ArialMT-38"/>
      </g>
     </g>
    </g>
    <g id="text_26">
     <!-- Maximum Upper Interval -->
     <g style="fill: #ff7f0e" transform="translate(419.498 205.43475) rotate(-90) scale(0.096 -0.096)">
      <defs>
       <path id="ArialMT-4d" d="M 475 0 
L 475 4581 
L 1388 4581 
L 2472 1338 
Q 2622 884 2691 659 
Q 2769 909 2934 1394 
L 4031 4581 
L 4847 4581 
L 4847 0 
L 4263 0 
L 4263 3834 
L 2931 0 
L 2384 0 
L 1059 3900 
L 1059 0 
L 475 0 
z
" transform="scale(0.015625)"/>
       <path id="ArialMT-78" d="M 47 0 
L 1259 1725 
L 138 3319 
L 841 3319 
L 1350 2541 
Q 1494 2319 1581 2169 
Q 1719 2375 1834 2534 
L 2394 3319 
L 3066 3319 
L 1919 1756 
L 3153 0 
L 2463 0 
L 1781 1031 
L 1600 1309 
L 728 0 
L 47 0 
z
" transform="scale(0.015625)"/>
       <path id="ArialMT-6d" d="M 422 0 
L 422 3319 
L 925 3319 
L 925 2853 
Q 1081 3097 1340 3245 
Q 1600 3394 1931 3394 
Q 2300 3394 2536 3241 
Q 2772 3088 2869 2813 
Q 3263 3394 3894 3394 
Q 4388 3394 4653 3120 
Q 4919 2847 4919 2278 
L 4919 0 
L 4359 0 
L 4359 2091 
Q 4359 2428 4304 2576 
Q 4250 2725 4106 2815 
Q 3963 2906 3769 2906 
Q 3419 2906 3187 2673 
Q 2956 2441 2956 1928 
L 2956 0 
L 2394 0 
L 2394 2156 
Q 2394 2531 2256 2718 
Q 2119 2906 1806 2906 
Q 1569 2906 1367 2781 
Q 1166 2656 1075 2415 
Q 984 2175 984 1722 
L 984 0 
L 422 0 
z
" transform="scale(0.015625)"/>
       <path id="ArialMT-55" d="M 3500 4581 
L 4106 4581 
L 4106 1934 
Q 4106 1244 3950 837 
Q 3794 431 3386 176 
Q 2978 -78 2316 -78 
Q 1672 -78 1262 144 
Q 853 366 678 786 
Q 503 1206 503 1934 
L 503 4581 
L 1109 4581 
L 1109 1938 
Q 1109 1341 1220 1058 
Q 1331 775 1601 622 
Q 1872 469 2263 469 
Q 2931 469 3215 772 
Q 3500 1075 3500 1938 
L 3500 4581 
z
" transform="scale(0.015625)"/>
       <path id="ArialMT-49" d="M 597 0 
L 597 4581 
L 1203 4581 
L 1203 0 
L 597 0 
z
" transform="scale(0.015625)"/>
       <path id="ArialMT-6c" d="M 409 0 
L 409 4581 
L 972 4581 
L 972 0 
L 409 0 
z
" transform="scale(0.015625)"/>
      </defs>
      <use xlink:href="#ArialMT-4d"/>
      <use xlink:href="#ArialMT-61" x="83.300781"/>
      <use xlink:href="#ArialMT-78" x="138.916016"/>
      <use xlink:href="#ArialMT-69" x="188.916016"/>
      <use xlink:href="#ArialMT-6d" x="211.132812"/>
      <use xlink:href="#ArialMT-75" x="294.433594"/>
      <use xlink:href="#ArialMT-6d" x="350.048828"/>
      <use xlink:href="#ArialMT-20" x="433.349609"/>
      <use xlink:href="#ArialMT-55" x="461.132812"/>
      <use xlink:href="#ArialMT-70" x="533.349609"/>
      <use xlink:href="#ArialMT-70" x="588.964844"/>
      <use xlink:href="#ArialMT-65" x="644.580078"/>
      <use xlink:href="#ArialMT-72" x="700.195312"/>
      <use xlink:href="#ArialMT-20" x="733.496094"/>
      <use xlink:href="#ArialMT-49" x="761.279297"/>
      <use xlink:href="#ArialMT-6e" x="789.0625"/>
      <use xlink:href="#ArialMT-74" x="844.677734"/>
      <use xlink:href="#ArialMT-65" x="872.460938"/>
      <use xlink:href="#ArialMT-72" x="928.076172"/>
      <use xlink:href="#ArialMT-76" x="961.376953"/>
      <use xlink:href="#ArialMT-61" x="1011.376953"/>
      <use xlink:href="#ArialMT-6c" x="1066.992188"/>
     </g>
    </g>
   </g>
   <g id="line2d_24">
    <path d="M 54.545602 155.830155 
L 57.824941 158.343122 
L 61.10428 161.307242 
L 64.383619 164.742088 
L 67.662958 168.659427 
L 70.942296 173.06207 
L 74.221636 177.94266 
L 77.500973 183.282982 
L 80.780313 189.053007 
L 84.059653 195.211073 
L 87.33899 201.703156 
L 90.61833 208.463677 
L 93.89767 215.415841 
L 97.177007 222.472525 
L 100.456344 229.538605 
L 103.735686 236.510981 
L 107.015024 243.280924 
L 110.294361 249.732504 
L 113.573703 255.632861 
L 116.853041 255.26068 
L 120.132378 253.655239 
L 123.41172 252.59089 
L 126.691057 252.058251 
L 129.970395 252.019379 
L 133.249737 252.417603 
L 136.529069 253.181749 
L 139.808412 254.226836 
L 143.087754 255.456247 
L 146.367086 256.763577 
L 149.646428 258.035763 
L 152.92577 259.148703 
L 156.205103 259.899754 
L 159.484445 256.261982 
L 162.763787 250.02352 
L 166.04312 243.232247 
L 169.322462 236.026194 
L 172.601804 228.520357 
L 175.881137 220.825231 
L 179.160479 213.044579 
L 182.439821 205.272899 
L 185.719153 197.592769 
L 188.998496 190.072167 
L 192.277838 182.762789 
L 195.55717 175.698617 
L 198.836512 168.895745 
L 202.115855 162.352348 
L 205.395187 156.050307 
L 208.674529 149.956672 
L 211.953871 144.026774 
L 215.233204 138.206825 
L 218.512556 132.43829 
L 221.791879 126.662083 
L 225.071221 120.821985 
L 228.350563 114.868242 
L 231.629886 108.762607 
L 234.909247 102.474814 
L 238.18857 95.96802 
L 241.467912 89.086216 
L 244.747254 81.73505 
L 248.026597 74.551303 
L 251.305939 67.79721 
L 254.585262 61.519505 
L 257.864623 55.708184 
L 261.143946 50.30249 
L 264.423288 45.284649 
L 267.70263 40.842143 
L 270.981953 37.209654 
L 274.261315 34.554841 
L 277.540637 32.984758 
L 280.81998 32.370093 
L 284.099322 32.196 
L 287.378664 32.645691 
L 290.658006 33.960705 
L 293.937329 36.235197 
L 297.21669 39.531359 
L 300.496013 43.902471 
L 303.775355 49.388874 
L 307.054697 56.018334 
L 310.33402 63.804943 
L 313.613382 72.745864 
L 316.892705 82.820947 
L 320.172047 93.990582 
L 323.451389 106.196555 
L 326.730731 119.361276 
L 330.010073 133.38938 
L 333.289396 148.169204 
L 336.568738 163.574407 
L 339.84808 179.467155 
L 343.127423 195.699089 
L 346.406765 212.117087 
L 349.686088 228.565127 
L 352.96543 244.880507 
L 356.244772 260.527356 
L 359.524114 266.402812 
L 362.803456 270.236833 
L 366.082798 272.759959 
L 369.362141 274.029076 
L 372.641463 274.116 
L 375.920806 273.108842 
L 379.200148 271.106411 
" clip-path="url(#p1d094e6bd3)" style="fill: none; stroke: #ff7f0e; stroke-width: 1.2; stroke-linecap: round"/>
   </g>
   <g id="line2d_25">
    <path d="M 284.099322 268.50339 
L 284.099322 266.116446 
L 284.099322 263.729503 
L 284.099322 261.34256 
L 284.099322 258.955616 
L 284.099322 256.568673 
L 284.099322 254.18173 
L 284.099322 251.794786 
L 284.099322 249.407843 
L 284.099322 247.0209 
L 284.099322 244.633956 
L 284.099322 242.247013 
L 284.099322 239.86007 
L 284.099322 237.473126 
L 284.099322 235.086183 
L 284.099322 232.69924 
L 284.099322 230.312296 
L 284.099322 227.925353 
L 284.099322 225.53841 
L 284.099322 223.151466 
L 284.099322 220.764523 
L 284.099322 218.37758 
L 284.099322 215.990636 
L 284.099322 213.603693 
L 284.099322 211.21675 
L 284.099322 208.829806 
L 284.099322 206.442863 
L 284.099322 204.05592 
L 284.099322 201.668976 
L 284.099322 199.282033 
L 284.099322 196.89509 
L 284.099322 194.508146 
L 284.099322 192.121203 
L 284.099322 189.73426 
L 284.099322 187.347316 
L 284.099322 184.960373 
L 284.099322 182.57343 
L 284.099322 180.186486 
L 284.099322 177.799543 
L 284.099322 175.4126 
L 284.099322 173.025656 
L 284.099322 170.638713 
L 284.099322 168.25177 
L 284.099322 165.864826 
L 284.099322 163.477883 
L 284.099322 161.09094 
L 284.099322 158.703996 
L 284.099322 156.317053 
L 284.099322 153.93011 
L 284.099322 151.543166 
L 284.099322 149.156223 
L 284.099322 146.76928 
L 284.099322 144.382336 
L 284.099322 141.995393 
L 284.099322 139.60845 
L 284.099322 137.221506 
L 284.099322 134.834563 
L 284.099322 132.44762 
L 284.099322 130.060677 
L 284.099322 127.673733 
L 284.099322 125.28679 
L 284.099322 122.899847 
L 284.099322 120.512903 
L 284.099322 118.12596 
L 284.099322 115.739017 
L 284.099322 113.352073 
L 284.099322 110.96513 
L 284.099322 108.578187 
L 284.099322 106.191243 
L 284.099322 103.8043 
L 284.099322 101.417357 
L 284.099322 99.030413 
L 284.099322 96.64347 
L 284.099322 94.256527 
L 284.099322 91.869583 
L 284.099322 89.48264 
L 284.099322 87.095697 
L 284.099322 84.708753 
L 284.099322 82.32181 
L 284.099322 79.934867 
L 284.099322 77.547923 
L 284.099322 75.16098 
L 284.099322 72.774037 
L 284.099322 70.387093 
L 284.099322 68.00015 
L 284.099322 65.613207 
L 284.099322 63.226263 
L 284.099322 60.83932 
L 284.099322 58.452377 
L 284.099322 56.065433 
L 284.099322 53.67849 
L 284.099322 51.291547 
L 284.099322 48.904603 
L 284.099322 46.51766 
L 284.099322 44.130717 
L 284.099322 41.743773 
L 284.099322 39.35683 
L 284.099322 36.969887 
L 284.099322 34.582943 
L 284.099322 32.196 
" clip-path="url(#p1d094e6bd3)" style="fill: none; stroke: #ff7f0e; stroke-linecap: round"/>
   </g>
   <g id="patch_7">
    <path d="M 38.312875 286.212 
L 38.312875 20.1 
" style="fill: none; stroke: #262626; stroke-linejoin: miter; stroke-linecap: square"/>
   </g>
   <g id="patch_8">
    <path d="M 395.432875 286.212 
L 395.432875 20.1 
" style="fill: none; stroke: #262626; stroke-linejoin: miter; stroke-linecap: square"/>
   </g>
   <g id="patch_9">
    <path d="M 38.312875 286.212 
L 395.432875 286.212 
" style="fill: none; stroke: #262626; stroke-linejoin: miter; stroke-linecap: square"/>
   </g>
   <g id="patch_10">
    <path d="M 38.312875 20.1 
L 395.432875 20.1 
" style="fill: none; stroke: #262626; stroke-linejoin: miter; stroke-linecap: square"/>
   </g>
  </g>
 </g>
 <defs>
  <clipPath id="p1d094e6bd3">
   <rect x="38.312875" y="20.1" width="357.12" height="266.112"/>
  </clipPath>
 </defs>
</svg>