<?xml version="1.0" encoding="utf-8" standalone="no"?>
<!DOCTYPE svg PUBLIC "-//W3C//DTD SVG 1.1//EN"
  "http://www.w3.org/Graphics/SVG/1.1/DTD/svg11.dtd">
<svg xmlns:xlink="http://www.w3.org/1999/xlink" width="445.848625pt" height="322.539375pt" viewBox="0 0 445.848625 322.539375" xmlns="http://www.w3.org/2000/svg" version="1.1">
 <metadata>
  <rdf:RDF xmlns:dc="http://purl.org/dc/elements/1.1/" xmlns:cc="http://creativecommons.org/ns#" xmlns:rdf="http://www.w3.org/1999/02/22-rdf-syntax-ns#">
   <cc:Work>
    <dc:type rdf:resource="http://purl.org/dc/dcmitype/StillImage"/>
    <dc:date>2023-10-23T15:18:34.245906</dc:date>
    <dc:format>image/svg+xml</dc:format>
    <dc:creator>
     <cc:Agent>
      <dc:title>Matplotlib v3.8.0, https://matplotlib.org/</dc:title>
     </cc:Agent>
    </dc:creator>
   </cc:Work>
  </rdf:RDF>
 </metadata>
 <defs>
  <style type="text/css">*{stroke-linejoin: round; stroke-linecap: butt}</style>
 </defs>
 <g id="figure_1">
  <g id="patch_1">
   <path d="M 0 322.539375 
L 445.848625 322.539375 
L 445.848625 0 
L 0 0 
z
" style="fill: #ffffff"/>
  </g>
  <g id="axes_1">
   <g id="patch_2">
    <path d="M 43.2065 286.212 
L 400.3265 286.212 
L 400.3265 20.1 
L 43.2065 20.1 
z
" style="fill: #ffffff"/>
   </g>
   <g id="matplotlib.axis_1">
    <g id="xtick_1">
     <g id="line2d_1">
      <defs>
       <path id="m0507b08f5e" d="M 0 0 
L 0 4.8 
" style="stroke: #262626"/>
      </defs>
      <g>
       <use xlink:href="#m0507b08f5e" x="59.439227" y="286.212" style="fill: #262626; stroke: #262626"/>
      </g>
     </g>
     <g id="text_1">
      <!-- 0.0 -->
      <g style="fill: #262626" transform="translate(53.323227 300.810875) scale(0.088 -0.088)">
       <defs>
        <path id="ArialMT-30" d="M 266 2259 
Q 266 3072 433 3567 
Q 600 4063 929 4331 
Q 1259 4600 1759 4600 
Q 2128 4600 2406 4451 
Q 2684 4303 2865 4023 
Q 3047 3744 3150 3342 
Q 3253 2941 3253 2259 
Q 3253 1453 3087 958 
Q 2922 463 2592 192 
Q 2263 -78 1759 -78 
Q 1097 -78 719 397 
Q 266 969 266 2259 
z
M 844 2259 
Q 844 1131 1108 757 
Q 1372 384 1759 384 
Q 2147 384 2411 759 
Q 2675 1134 2675 2259 
Q 2675 3391 2411 3762 
Q 2147 4134 1753 4134 
Q 1366 4134 1134 3806 
Q 844 3388 844 2259 
z
" transform="scale(0.015625)"/>
        <path id="ArialMT-2e" d="M 581 0 
L 581 641 
L 1222 641 
L 1222 0 
L 581 0 
z
" transform="scale(0.015625)"/>
       </defs>
       <use xlink:href="#ArialMT-30"/>
       <use xlink:href="#ArialMT-2e" x="55.615234"/>
       <use xlink:href="#ArialMT-30" x="83.398438"/>
      </g>
     </g>
    </g>
    <g id="xtick_2">
     <g id="line2d_2">
      <g>
       <use xlink:href="#m0507b08f5e" x="124.370136" y="286.212" style="fill: #262626; stroke: #262626"/>
      </g>
     </g>
     <g id="text_2">
      <!-- 0.2 -->
      <g style="fill: #262626" transform="translate(118.254136 300.810875) scale(0.088 -0.088)">
       <defs>
        <path id="ArialMT-32" d="M 3222 541 
L 3222 0 
L 194 0 
Q 188 203 259 391 
Q 375 700 629 1000 
Q 884 1300 1366 1694 
Q 2113 2306 2375 2664 
Q 2638 3022 2638 3341 
Q 2638 3675 2398 3904 
Q 2159 4134 1775 4134 
Q 1369 4134 1125 3890 
Q 881 3647 878 3216 
L 300 3275 
Q 359 3922 746 4261 
Q 1134 4600 1788 4600 
Q 2447 4600 2831 4234 
Q 3216 3869 3216 3328 
Q 3216 3053 3103 2787 
Q 2991 2522 2730 2228 
Q 2469 1934 1863 1422 
Q 1356 997 1212 845 
Q 1069 694 975 541 
L 3222 541 
z
" transform="scale(0.015625)"/>
       </defs>
       <use xlink:href="#ArialMT-30"/>
       <use xlink:href="#ArialMT-2e" x="55.615234"/>
       <use xlink:href="#ArialMT-32" x="83.398438"/>
      </g>
     </g>
    </g>
    <g id="xtick_3">
     <g id="line2d_3">
      <g>
       <use xlink:href="#m0507b08f5e" x="189.301045" y="286.212" style="fill: #262626; stroke: #262626"/>
      </g>
     </g>
     <g id="text_3">
      <!-- 0.4 -->
      <g style="fill: #262626" transform="translate(183.185045 300.810875) scale(0.088 -0.088)">
       <defs>
        <path id="ArialMT-34" d="M 2069 0 
L 2069 1097 
L 81 1097 
L 81 1613 
L 2172 4581 
L 2631 4581 
L 2631 1613 
L 3250 1613 
L 3250 1097 
L 2631 1097 
L 2631 0 
L 2069 0 
z
M 2069 1613 
L 2069 3678 
L 634 1613 
L 2069 1613 
z
" transform="scale(0.015625)"/>
       </defs>
       <use xlink:href="#ArialMT-30"/>
       <use xlink:href="#ArialMT-2e" x="55.615234"/>
       <use xlink:href="#ArialMT-34" x="83.398438"/>
      </g>
     </g>
    </g>
    <g id="xtick_4">
     <g id="line2d_4">
      <g>
       <use xlink:href="#m0507b08f5e" x="254.231955" y="286.212" style="fill: #262626; stroke: #262626"/>
      </g>
     </g>
     <g id="text_4">
      <!-- 0.6 -->
      <g style="fill: #262626" transform="translate(248.115955 300.810875) scale(0.088 -0.088)">
       <defs>
        <path id="ArialMT-36" d="M 3184 3459 
L 2625 3416 
Q 2550 3747 2413 3897 
Q 2184 4138 1850 4138 
Q 1581 4138 1378 3988 
Q 1113 3794 959 3422 
Q 806 3050 800 2363 
Q 1003 2672 1297 2822 
Q 1591 2972 1913 2972 
Q 2475 2972 2870 2558 
Q 3266 2144 3266 1488 
Q 3266 1056 3080 686 
Q 2894 316 2569 119 
Q 2244 -78 1831 -78 
Q 1128 -78 684 439 
Q 241 956 241 2144 
Q 241 3472 731 4075 
Q 1159 4600 1884 4600 
Q 2425 4600 2770 4297 
Q 3116 3994 3184 3459 
z
M 888 1484 
Q 888 1194 1011 928 
Q 1134 663 1356 523 
Q 1578 384 1822 384 
Q 2178 384 2434 671 
Q 2691 959 2691 1453 
Q 2691 1928 2437 2201 
Q 2184 2475 1800 2475 
Q 1419 2475 1153 2201 
Q 888 1928 888 1484 
z
" transform="scale(0.015625)"/>
       </defs>
       <use xlink:href="#ArialMT-30"/>
       <use xlink:href="#ArialMT-2e" x="55.615234"/>
       <use xlink:href="#ArialMT-36" x="83.398438"/>
      </g>
     </g>
    </g>
    <g id="xtick_5">
     <g id="line2d_5">
      <g>
       <use xlink:href="#m0507b08f5e" x="319.162864" y="286.212" style="fill: #262626; stroke: #262626"/>
      </g>
     </g>
     <g id="text_5">
      <!-- 0.8 -->
      <g style="fill: #262626" transform="translate(313.046864 300.810875) scale(0.088 -0.088)">
       <defs>
        <path id="ArialMT-38" d="M 1131 2484 
Q 781 2613 612 2850 
Q 444 3088 444 3419 
Q 444 3919 803 4259 
Q 1163 4600 1759 4600 
Q 2359 4600 2725 4251 
Q 3091 3903 3091 3403 
Q 3091 3084 2923 2848 
Q 2756 2613 2416 2484 
Q 2838 2347 3058 2040 
Q 3278 1734 3278 1309 
Q 3278 722 2862 322 
Q 2447 -78 1769 -78 
Q 1091 -78 675 323 
Q 259 725 259 1325 
Q 259 1772 486 2073 
Q 713 2375 1131 2484 
z
M 1019 3438 
Q 1019 3113 1228 2906 
Q 1438 2700 1772 2700 
Q 2097 2700 2305 2904 
Q 2513 3109 2513 3406 
Q 2513 3716 2298 3927 
Q 2084 4138 1766 4138 
Q 1444 4138 1231 3931 
Q 1019 3725 1019 3438 
z
M 838 1322 
Q 838 1081 952 856 
Q 1066 631 1291 507 
Q 1516 384 1775 384 
Q 2178 384 2440 643 
Q 2703 903 2703 1303 
Q 2703 1709 2433 1975 
Q 2163 2241 1756 2241 
Q 1359 2241 1098 1978 
Q 838 1716 838 1322 
z
" transform="scale(0.015625)"/>
       </defs>
       <use xlink:href="#ArialMT-30"/>
       <use xlink:href="#ArialMT-2e" x="55.615234"/>
       <use xlink:href="#ArialMT-38" x="83.398438"/>
      </g>
     </g>
    </g>
    <g id="xtick_6">
     <g id="line2d_6">
      <g>
       <use xlink:href="#m0507b08f5e" x="384.093773" y="286.212" style="fill: #262626; stroke: #262626"/>
      </g>
     </g>
     <g id="text_6">
      <!-- 1.0 -->
      <g style="fill: #262626" transform="translate(377.977773 300.810875) scale(0.088 -0.088)">
       <defs>
        <path id="ArialMT-31" d="M 2384 0 
L 1822 0 
L 1822 3584 
Q 1619 3391 1289 3197 
Q 959 3003 697 2906 
L 697 3450 
Q 1169 3672 1522 3987 
Q 1875 4303 2022 4600 
L 2384 4600 
L 2384 0 
z
" transform="scale(0.015625)"/>
       </defs>
       <use xlink:href="#ArialMT-31"/>
       <use xlink:href="#ArialMT-2e" x="55.615234"/>
       <use xlink:href="#ArialMT-30" x="83.398438"/>
      </g>
     </g>
    </g>
    <g id="text_7">
     <!-- $x$ -->
     <g style="fill: #262626" transform="translate(218.8865 313.431375) scale(0.096 -0.096)">
      <defs>
       <path id="DejaVuSans-Oblique-78" d="M 3841 3500 
L 2234 1784 
L 3219 0 
L 2559 0 
L 1819 1388 
L 531 0 
L -166 0 
L 1556 1844 
L 641 3500 
L 1300 3500 
L 1972 2234 
L 3144 3500 
L 3841 3500 
z
" transform="scale(0.015625)"/>
      </defs>
      <use xlink:href="#DejaVuSans-Oblique-78" transform="translate(0 0.3125)"/>
     </g>
    </g>
   </g>
   <g id="matplotlib.axis_2">
    <g id="ytick_1">
     <g id="line2d_7">
      <defs>
       <path id="m937ecbb040" d="M 0 0 
L -4.8 0 
" style="stroke: #262626"/>
      </defs>
      <g>
       <use xlink:href="#m937ecbb040" x="43.2065" y="286.137272" style="fill: #262626; stroke: #262626"/>
      </g>
     </g>
     <g id="text_8">
      <!-- −12 -->
      <g style="fill: #262626" transform="translate(19.9795 289.286709) scale(0.088 -0.088)">
       <defs>
        <path id="ArialMT-2212" d="M 3381 1997 
L 356 1997 
L 356 2522 
L 3381 2522 
L 3381 1997 
z
" transform="scale(0.015625)"/>
       </defs>
       <use xlink:href="#ArialMT-2212"/>
       <use xlink:href="#ArialMT-31" x="58.398438"/>
       <use xlink:href="#ArialMT-32" x="114.013672"/>
      </g>
     </g>
    </g>
    <g id="ytick_2">
     <g id="line2d_8">
      <g>
       <use xlink:href="#m937ecbb040" x="43.2065" y="244.901438" style="fill: #262626; stroke: #262626"/>
      </g>
     </g>
     <g id="text_9">
      <!-- −10 -->
      <g style="fill: #262626" transform="translate(19.9795 248.050875) scale(0.088 -0.088)">
       <use xlink:href="#ArialMT-2212"/>
       <use xlink:href="#ArialMT-31" x="58.398438"/>
       <use xlink:href="#ArialMT-30" x="114.013672"/>
      </g>
     </g>
    </g>
    <g id="ytick_3">
     <g id="line2d_9">
      <g>
       <use xlink:href="#m937ecbb040" x="43.2065" y="203.665604" style="fill: #262626; stroke: #262626"/>
      </g>
     </g>
     <g id="text_10">
      <!-- −8 -->
      <g style="fill: #262626" transform="translate(24.873125 206.815041) scale(0.088 -0.088)">
       <use xlink:href="#ArialMT-2212"/>
       <use xlink:href="#ArialMT-38" x="58.398438"/>
      </g>
     </g>
    </g>
    <g id="ytick_4">
     <g id="line2d_10">
      <g>
       <use xlink:href="#m937ecbb040" x="43.2065" y="162.42977" style="fill: #262626; stroke: #262626"/>
      </g>
     </g>
     <g id="text_11">
      <!-- −6 -->
      <g style="fill: #262626" transform="translate(24.873125 165.579207) scale(0.088 -0.088)">
       <use xlink:href="#ArialMT-2212"/>
       <use xlink:href="#ArialMT-36" x="58.398438"/>
      </g>
     </g>
    </g>
    <g id="ytick_5">
     <g id="line2d_11">
      <g>
       <use xlink:href="#m937ecbb040" x="43.2065" y="121.193936" style="fill: #262626; stroke: #262626"/>
      </g>
     </g>
     <g id="text_12">
      <!-- −4 -->
      <g style="fill: #262626" transform="translate(24.873125 124.343373) scale(0.088 -0.088)">
       <use xlink:href="#ArialMT-2212"/>
       <use xlink:href="#ArialMT-34" x="58.398438"/>
      </g>
     </g>
    </g>
    <g id="ytick_6">
     <g id="line2d_12">
      <g>
       <use xlink:href="#m937ecbb040" x="43.2065" y="79.958102" style="fill: #262626; stroke: #262626"/>
      </g>
     </g>
     <g id="text_13">
      <!-- −2 -->
      <g style="fill: #262626" transform="translate(24.873125 83.107539) scale(0.088 -0.088)">
       <use xlink:href="#ArialMT-2212"/>
       <use xlink:href="#ArialMT-32" x="58.398438"/>
      </g>
     </g>
    </g>
    <g id="ytick_7">
     <g id="line2d_13">
      <g>
       <use xlink:href="#m937ecbb040" x="43.2065" y="38.722268" style="fill: #262626; stroke: #262626"/>
      </g>
     </g>
     <g id="text_14">
      <!-- 0 -->
      <g style="fill: #262626" transform="translate(30.012875 41.871705) scale(0.088 -0.088)">
       <use xlink:href="#ArialMT-30"/>
      </g>
     </g>
    </g>
    <g id="text_15">
     <!-- $y$ -->
     <g style="fill: #262626" transform="translate(13.9635 156.036) rotate(-90) scale(0.096 -0.096)">
      <defs>
       <path id="DejaVuSans-Oblique-79" d="M 1588 -325 
Q 1188 -997 936 -1164 
Q 684 -1331 294 -1331 
L -159 -1331 
L -63 -850 
L 269 -850 
Q 509 -850 678 -719 
Q 847 -588 1056 -206 
L 1234 128 
L 459 3500 
L 1069 3500 
L 1650 819 
L 3256 3500 
L 3859 3500 
L 1588 -325 
z
" transform="scale(0.015625)"/>
      </defs>
      <use xlink:href="#DejaVuSans-Oblique-79" transform="translate(0 0.3125)"/>
     </g>
    </g>
   </g>
   <g id="PolyCollection_1">
    <defs>
     <path id="mffd141c1dc" d="M 59.439227 -206.349538 
L 59.439227 -198.120881 
L 62.718566 -199.838022 
L 65.997905 -201.057222 
L 69.277244 -202.658166 
L 72.556583 -204.891528 
L 75.835921 -207.800926 
L 79.115261 -211.359328 
L 82.394598 -215.505943 
L 85.673938 -220.160073 
L 88.953278 -225.227417 
L 92.232615 -230.602512 
L 95.511955 -236.17425 
L 98.791295 -241.826926 
L 102.070632 -247.44247 
L 105.349969 -252.903504 
L 108.629311 -258.090776 
L 111.908649 -262.883652 
L 115.187986 -267.158347 
L 118.467328 -270.79469 
L 121.746666 -273.714939 
L 125.026003 -275.931387 
L 128.305345 -277.549427 
L 131.584682 -278.699425 
L 134.86402 -279.485981 
L 138.143362 -279.977724 
L 141.422694 -280.218334 
L 144.702037 -280.225937 
L 147.981379 -279.994624 
L 151.260711 -279.478064 
L 154.540053 -278.563024 
L 157.819395 -277.065035 
L 161.098728 -274.845803 
L 164.37807 -271.939194 
L 167.657412 -268.475038 
L 170.936745 -264.570452 
L 174.216087 -260.312186 
L 177.495429 -255.767049 
L 180.774762 -250.99299 
L 184.054104 -246.04266 
L 187.333446 -240.96601 
L 190.612778 -235.811241 
L 193.892121 -230.623709 
L 197.171463 -225.44591 
L 200.450795 -220.31592 
L 203.730137 -215.266548 
L 207.00948 -210.324584 
L 210.288812 -205.509357 
L 213.568154 -200.832329 
L 216.847496 -196.296411 
L 220.126829 -191.895724 
L 223.406181 -187.615118 
L 226.685504 -183.42967 
L 229.964846 -179.301705 
L 233.244188 -175.171981 
L 236.523511 -170.926729 
L 239.802872 -166.250251 
L 243.082195 -160.041523 
L 246.361537 -150.933026 
L 249.640879 -140.202291 
L 252.920222 -129.023324 
L 256.199564 -117.828341 
L 259.478887 -106.862016 
L 262.758248 -96.324556 
L 266.037571 -86.403899 
L 269.316913 -77.282847 
L 272.596255 -69.140196 
L 275.875578 -62.147207 
L 279.15494 -56.465962 
L 282.434262 -52.243518 
L 285.713605 -49.608864 
L 288.992947 -48.668983 
L 292.272289 -49.503255 
L 295.551631 -52.160129 
L 298.830954 -56.656062 
L 302.110315 -62.968345 
L 305.389638 -71.036926 
L 308.66898 -80.761782 
L 311.948322 -92.003484 
L 315.227645 -104.584575 
L 318.507007 -118.292323 
L 321.78633 -132.880816 
L 325.065672 -148.078001 
L 328.345014 -163.589062 
L 331.624356 -179.101971 
L 334.903698 -194.293758 
L 338.183021 -208.833895 
L 341.462363 -222.385025 
L 344.741705 -234.603317 
L 348.021048 -245.158899 
L 351.30039 -253.82704 
L 354.579713 -260.556803 
L 357.859055 -265.380918 
L 361.138397 -268.323256 
L 364.417739 -269.402505 
L 367.697081 -268.633178 
L 370.976423 -266.065173 
L 374.255766 -261.748534 
L 377.535088 -255.72687 
L 380.814431 -248.008043 
L 384.093773 -238.584253 
L 384.093773 -246.679596 
L 384.093773 -246.679596 
L 380.814431 -255.21626 
L 377.535088 -262.859096 
L 374.255766 -269.177004 
L 370.976423 -273.815739 
L 367.697081 -276.548189 
L 364.417739 -277.248064 
L 361.138397 -275.872613 
L 357.859055 -272.461042 
L 354.579713 -267.14467 
L 351.30039 -260.165543 
L 348.021048 -251.864235 
L 344.741705 -242.566074 
L 341.462363 -232.494484 
L 338.183021 -221.829409 
L 334.903698 -210.764048 
L 331.624356 -199.521982 
L 328.345014 -188.33921 
L 325.065672 -177.444261 
L 321.78633 -167.05734 
L 318.507007 -157.369617 
L 315.227645 -148.546181 
L 311.948322 -140.719589 
L 308.66898 -133.98495 
L 305.389638 -128.404221 
L 302.110315 -124.003298 
L 298.830954 -120.776804 
L 295.551631 -118.687329 
L 292.272289 -117.675286 
L 288.992947 -117.65521 
L 285.713605 -118.529574 
L 282.434262 -120.188769 
L 279.15494 -122.516291 
L 275.875578 -125.395954 
L 272.596255 -128.715227 
L 269.316913 -132.368001 
L 266.037571 -136.261035 
L 262.758248 -140.31433 
L 259.478887 -144.466263 
L 256.199564 -148.67742 
L 252.920222 -152.9415 
L 249.640879 -157.319565 
L 246.361537 -162.084417 
L 243.082195 -168.27478 
L 239.802872 -177.056423 
L 236.523511 -186.973443 
L 233.244188 -196.856152 
L 229.964846 -206.340134 
L 226.685504 -215.278862 
L 223.406181 -223.5949 
L 220.126829 -231.244576 
L 216.847496 -238.206227 
L 213.568154 -244.475991 
L 210.288812 -250.064573 
L 207.00948 -254.995341 
L 203.730137 -259.302522 
L 200.450795 -263.028923 
L 197.171463 -266.224263 
L 193.892121 -268.942809 
L 190.612778 -271.241493 
L 187.333446 -273.178388 
L 184.054104 -274.810293 
L 180.774762 -276.192166 
L 177.495429 -277.375573 
L 174.216087 -278.409261 
L 170.936745 -279.341334 
L 167.657412 -280.223155 
L 164.37807 -281.119898 
L 161.098728 -282.121847 
L 157.819395 -283.326798 
L 154.540053 -284.732314 
L 151.260711 -286.160427 
L 147.981379 -287.384549 
L 144.702037 -288.24865 
L 141.422694 -288.66398 
L 138.143362 -288.5848 
L 134.86402 -287.993389 
L 131.584682 -286.903595 
L 128.305345 -285.362054 
L 125.026003 -283.46081 
L 121.746666 -281.328914 
L 118.467328 -279.083023 
L 115.187986 -276.760296 
L 111.908649 -274.322037 
L 108.629311 -271.701974 
L 105.349969 -268.84513 
L 102.070632 -265.713177 
L 98.791295 -262.283067 
L 95.511955 -258.54476 
L 92.232615 -254.497988 
L 88.953278 -250.152541 
L 85.673938 -245.52776 
L 82.394598 -240.651932 
L 79.115261 -235.563913 
L 75.835921 -230.313666 
L 72.556583 -224.964717 
L 69.277244 -219.606261 
L 65.997905 -214.386954 
L 62.718566 -209.649256 
L 59.439227 -206.349538 
z
" style="stroke: #1f77b4; stroke-opacity: 0.5; stroke-width: 0.8"/>
    </defs>
    <g clip-path="url(#p0efaf9abe6)">
     <use xlink:href="#mffd141c1dc" x="0" y="322.539375" style="fill: #1f77b4; fill-opacity: 0.5; stroke: #1f77b4; stroke-opacity: 0.5; stroke-width: 0.8"/>
    </g>
   </g>
   <g id="PolyCollection_2">
    <defs>
     <path id="m66f6d8ec50" d="M 59.439227 -198.120881 
L 59.439227 -196.410121 
L 62.718566 -198.335127 
L 65.997905 -199.884711 
L 69.277244 -201.708124 
L 72.556583 -204.077445 
L 75.835921 -207.069397 
L 79.115261 -210.676106 
L 82.394598 -214.847004 
L 85.673938 -219.506605 
L 88.953278 -224.562933 
L 92.232615 -229.910933 
L 95.511955 -235.438356 
L 98.791295 -241.02697 
L 102.070632 -246.554919 
L 105.349969 -251.900034 
L 108.629311 -256.938982 
L 111.908649 -261.552091 
L 115.187986 -265.630554 
L 118.467328 -269.092656 
L 121.746666 -271.909698 
L 125.026003 -274.112462 
L 128.305345 -275.775667 
L 131.584682 -276.985064 
L 134.86402 -277.815334 
L 138.143362 -278.321028 
L 141.422694 -278.538939 
L 144.702037 -278.484475 
L 147.981379 -278.152738 
L 151.260711 -277.511946 
L 154.540053 -276.498011 
L 157.819395 -275.018431 
L 161.098728 -272.984812 
L 164.37807 -270.35903 
L 167.657412 -267.172153 
L 170.936745 -263.497247 
L 174.216087 -259.416883 
L 177.495429 -255.006881 
L 180.774762 -250.335371 
L 184.054104 -245.463249 
L 187.333446 -240.44652 
L 190.612778 -235.337644 
L 193.892121 -230.184988 
L 197.171463 -225.033109 
L 200.450795 -219.921465 
L 203.730137 -214.883734 
L 207.00948 -209.947123 
L 210.288812 -205.130937 
L 213.568154 -200.446142 
L 216.847496 -195.894544 
L 220.126829 -191.468236 
L 223.406181 -187.148569 
L 226.685504 -182.904447 
L 229.964846 -178.686801 
L 233.244188 -174.414296 
L 236.523511 -169.929098 
L 239.802872 -164.856475 
L 243.082195 -158.331441 
L 246.361537 -149.573856 
L 249.640879 -139.26071 
L 252.920222 -128.332364 
L 256.199564 -117.286651 
L 259.478887 -106.41516 
L 262.758248 -95.941349 
L 266.037571 -86.065148 
L 269.316913 -76.975872 
L 272.596255 -68.856128 
L 275.875578 -61.879499 
L 279.15494 -56.20952 
L 282.434262 -51.994175 
L 285.713605 -49.36302 
L 288.992947 -48.423375 
L 292.272289 -49.254737 
L 295.551631 -51.905515 
L 298.830954 -56.391971 
L 302.110315 -62.691001 
L 305.389638 -70.742044 
L 308.66898 -80.444189 
L 311.948322 -91.656908 
L 315.227645 -104.201131 
L 318.507007 -117.861925 
L 321.78633 -132.390319 
L 325.065672 -147.509963 
L 328.345014 -162.920124 
L 331.624356 -178.300703 
L 334.903698 -193.319044 
L 338.183021 -207.635886 
L 341.462363 -220.916392 
L 344.741705 -232.85274 
L 348.021048 -243.197028 
L 351.30039 -251.795512 
L 354.579713 -258.573052 
L 357.859055 -263.486279 
L 361.138397 -266.507573 
L 364.417739 -267.633875 
L 367.697081 -266.875284 
L 370.976423 -264.281678 
L 374.255766 -259.913041 
L 377.535088 -253.841276 
L 380.814431 -246.135515 
L 384.093773 -236.853722 
L 384.093773 -238.584253 
L 384.093773 -238.584253 
L 380.814431 -248.008043 
L 377.535088 -255.72687 
L 374.255766 -261.748534 
L 370.976423 -266.065173 
L 367.697081 -268.633178 
L 364.417739 -269.402505 
L 361.138397 -268.323256 
L 357.859055 -265.380918 
L 354.579713 -260.556803 
L 351.30039 -253.82704 
L 348.021048 -245.158899 
L 344.741705 -234.603317 
L 341.462363 -222.385025 
L 338.183021 -208.833895 
L 334.903698 -194.293758 
L 331.624356 -179.101971 
L 328.345014 -163.589062 
L 325.065672 -148.078001 
L 321.78633 -132.880816 
L 318.507007 -118.292323 
L 315.227645 -104.584575 
L 311.948322 -92.003484 
L 308.66898 -80.761782 
L 305.389638 -71.036926 
L 302.110315 -62.968345 
L 298.830954 -56.656062 
L 295.551631 -52.160129 
L 292.272289 -49.503255 
L 288.992947 -48.668983 
L 285.713605 -49.608864 
L 282.434262 -52.243518 
L 279.15494 -56.465962 
L 275.875578 -62.147207 
L 272.596255 -69.140196 
L 269.316913 -77.282847 
L 266.037571 -86.403899 
L 262.758248 -96.324556 
L 259.478887 -106.862016 
L 256.199564 -117.828341 
L 252.920222 -129.023324 
L 249.640879 -140.202291 
L 246.361537 -150.933026 
L 243.082195 -160.041523 
L 239.802872 -166.250251 
L 236.523511 -170.926729 
L 233.244188 -175.171981 
L 229.964846 -179.301705 
L 226.685504 -183.42967 
L 223.406181 -187.615118 
L 220.126829 -191.895724 
L 216.847496 -196.296411 
L 213.568154 -200.832329 
L 210.288812 -205.509357 
L 207.00948 -210.324584 
L 203.730137 -215.266548 
L 200.450795 -220.31592 
L 197.171463 -225.44591 
L 193.892121 -230.623709 
L 190.612778 -235.811241 
L 187.333446 -240.96601 
L 184.054104 -246.04266 
L 180.774762 -250.99299 
L 177.495429 -255.767049 
L 174.216087 -260.312186 
L 170.936745 -264.570452 
L 167.657412 -268.475038 
L 164.37807 -271.939194 
L 161.098728 -274.845803 
L 157.819395 -277.065035 
L 154.540053 -278.563024 
L 151.260711 -279.478064 
L 147.981379 -279.994624 
L 144.702037 -280.225937 
L 141.422694 -280.218334 
L 138.143362 -279.977724 
L 134.86402 -279.485981 
L 131.584682 -278.699425 
L 128.305345 -277.549427 
L 125.026003 -275.931387 
L 121.746666 -273.714939 
L 118.467328 -270.79469 
L 115.187986 -267.158347 
L 111.908649 -262.883652 
L 108.629311 -258.090776 
L 105.349969 -252.903504 
L 102.070632 -247.44247 
L 98.791295 -241.826926 
L 95.511955 -236.17425 
L 92.232615 -230.602512 
L 88.953278 -225.227417 
L 85.673938 -220.160073 
L 82.394598 -215.505943 
L 79.115261 -211.359328 
L 75.835921 -207.800926 
L 72.556583 -204.891528 
L 69.277244 -202.658166 
L 65.997905 -201.057222 
L 62.718566 -199.838022 
L 59.439227 -198.120881 
z
" style="stroke: #ff7f0e; stroke-opacity: 0.5; stroke-width: 0.8"/>
    </defs>
    <g clip-path="url(#p0efaf9abe6)">
     <use xlink:href="#m66f6d8ec50" x="0" y="322.539375" style="fill: #ff7f0e; fill-opacity: 0.5; stroke: #ff7f0e; stroke-opacity: 0.5; stroke-width: 0.8"/>
    </g>
   </g>
   <g id="PolyCollection_3">
    <defs>
     <path id="m8ebe3a1865" d="M 59.439227 -208.060298 
L 59.439227 -206.349538 
L 62.718566 -209.649256 
L 65.997905 -214.386954 
L 69.277244 -219.606261 
L 72.556583 -224.964717 
L 75.835921 -230.313666 
L 79.115261 -235.563913 
L 82.394598 -240.651932 
L 85.673938 -245.52776 
L 88.953278 -250.152541 
L 92.232615 -254.497988 
L 95.511955 -258.54476 
L 98.791295 -262.283067 
L 102.070632 -265.713177 
L 105.349969 -268.84513 
L 108.629311 -271.701974 
L 111.908649 -274.322037 
L 115.187986 -276.760296 
L 118.467328 -279.083023 
L 121.746666 -281.328914 
L 125.026003 -283.46081 
L 128.305345 -285.362054 
L 131.584682 -286.903595 
L 134.86402 -287.993389 
L 138.143362 -288.5848 
L 141.422694 -288.66398 
L 144.702037 -288.24865 
L 147.981379 -287.384549 
L 151.260711 -286.160427 
L 154.540053 -284.732314 
L 157.819395 -283.326798 
L 161.098728 -282.121847 
L 164.37807 -281.119898 
L 167.657412 -280.223155 
L 170.936745 -279.341334 
L 174.216087 -278.409261 
L 177.495429 -277.375573 
L 180.774762 -276.192166 
L 184.054104 -274.810293 
L 187.333446 -273.178388 
L 190.612778 -271.241493 
L 193.892121 -268.942809 
L 197.171463 -266.224263 
L 200.450795 -263.028923 
L 203.730137 -259.302522 
L 207.00948 -254.995341 
L 210.288812 -250.064573 
L 213.568154 -244.475991 
L 216.847496 -238.206227 
L 220.126829 -231.244576 
L 223.406181 -223.5949 
L 226.685504 -215.278862 
L 229.964846 -206.340134 
L 233.244188 -196.856152 
L 236.523511 -186.973443 
L 239.802872 -177.056423 
L 243.082195 -168.27478 
L 246.361537 -162.084417 
L 249.640879 -157.319565 
L 252.920222 -152.9415 
L 256.199564 -148.67742 
L 259.478887 -144.466263 
L 262.758248 -140.31433 
L 266.037571 -136.261035 
L 269.316913 -132.368001 
L 272.596255 -128.715227 
L 275.875578 -125.395954 
L 279.15494 -122.516291 
L 282.434262 -120.188769 
L 285.713605 -118.529574 
L 288.992947 -117.65521 
L 292.272289 -117.675286 
L 295.551631 -118.687329 
L 298.830954 -120.776804 
L 302.110315 -124.003298 
L 305.389638 -128.404221 
L 308.66898 -133.98495 
L 311.948322 -140.719589 
L 315.227645 -148.546181 
L 318.507007 -157.369617 
L 321.78633 -167.05734 
L 325.065672 -177.444261 
L 328.345014 -188.33921 
L 331.624356 -199.521982 
L 334.903698 -210.764048 
L 338.183021 -221.829409 
L 341.462363 -232.494484 
L 344.741705 -242.566074 
L 348.021048 -251.864235 
L 351.30039 -260.165543 
L 354.579713 -267.14467 
L 357.859055 -272.461042 
L 361.138397 -275.872613 
L 364.417739 -277.248064 
L 367.697081 -276.548189 
L 370.976423 -273.815739 
L 374.255766 -269.177004 
L 377.535088 -262.859096 
L 380.814431 -255.21626 
L 384.093773 -246.679596 
L 384.093773 -248.410124 
L 384.093773 -248.410124 
L 380.814431 -257.088788 
L 377.535088 -264.74469 
L 374.255766 -271.012497 
L 370.976423 -275.599233 
L 367.697081 -278.306083 
L 364.417739 -279.016694 
L 361.138397 -277.688296 
L 357.859055 -274.355681 
L 354.579713 -269.12842 
L 351.30039 -262.197072 
L 348.021048 -253.826106 
L 344.741705 -244.316651 
L 341.462363 -233.963117 
L 338.183021 -223.027417 
L 334.903698 -211.738761 
L 331.624356 -200.32325 
L 328.345014 -189.008147 
L 325.065672 -178.012299 
L 321.78633 -167.547837 
L 318.507007 -157.800015 
L 315.227645 -148.929635 
L 311.948322 -141.066165 
L 308.66898 -134.302543 
L 305.389638 -128.699114 
L 302.110315 -124.280632 
L 298.830954 -121.040904 
L 295.551631 -118.941952 
L 292.272289 -117.923803 
L 288.992947 -117.900818 
L 285.713605 -118.775418 
L 282.434262 -120.438112 
L 279.15494 -122.772733 
L 275.875578 -125.663663 
L 272.596255 -128.999296 
L 269.316913 -132.674977 
L 266.037571 -136.599785 
L 262.758248 -140.697528 
L 259.478887 -144.913139 
L 256.199564 -149.2191 
L 252.920222 -153.63246 
L 249.640879 -158.261147 
L 246.361537 -163.443587 
L 243.082195 -169.984862 
L 239.802872 -178.450199 
L 236.523511 -187.971073 
L 233.244188 -197.613837 
L 229.964846 -206.955033 
L 226.685504 -215.804089 
L 223.406181 -224.061443 
L 220.126829 -231.672064 
L 216.847496 -238.608099 
L 213.568154 -244.86218 
L 210.288812 -250.442995 
L 207.00948 -255.3728 
L 203.730137 -259.685331 
L 200.450795 -263.423375 
L 197.171463 -266.637067 
L 193.892121 -269.381533 
L 190.612778 -271.715089 
L 187.333446 -273.697881 
L 184.054104 -275.389702 
L 180.774762 -276.849786 
L 177.495429 -278.135739 
L 174.216087 -279.304565 
L 170.936745 -280.414539 
L 167.657412 -281.526039 
L 164.37807 -282.700062 
L 161.098728 -283.982838 
L 157.819395 -285.373403 
L 154.540053 -286.797327 
L 151.260711 -288.126546 
L 147.981379 -289.226435 
L 144.702037 -289.990112 
L 141.422694 -290.343375 
L 138.143362 -290.241495 
L 134.86402 -289.664036 
L 131.584682 -288.617956 
L 128.305345 -287.135814 
L 125.026003 -285.279735 
L 121.746666 -283.134155 
L 118.467328 -280.785057 
L 115.187986 -278.288089 
L 111.908649 -275.653596 
L 108.629311 -272.853769 
L 105.349969 -269.848602 
L 102.070632 -266.600729 
L 98.791295 -263.083023 
L 95.511955 -259.280657 
L 92.232615 -255.189568 
L 88.953278 -250.817028 
L 85.673938 -246.181228 
L 82.394598 -241.310871 
L 79.115261 -236.247135 
L 75.835921 -231.045195 
L 72.556583 -225.7788 
L 69.277244 -220.556303 
L 65.997905 -215.55946 
L 62.718566 -211.152151 
L 59.439227 -208.060298 
z
" style="stroke: #ff7f0e; stroke-opacity: 0.5; stroke-width: 0.8"/>
    </defs>
    <g clip-path="url(#p0efaf9abe6)">
     <use xlink:href="#m8ebe3a1865" x="0" y="322.539375" style="fill: #ff7f0e; fill-opacity: 0.5; stroke: #ff7f0e; stroke-opacity: 0.5; stroke-width: 0.8"/>
    </g>
   </g>
   <g id="line2d_14">
    <defs>
     <path id="mc4ba532ef3" d="M -5 5 
L 5 -5 
M -5 -5 
L 5 5 
" style="stroke: #000000; stroke-width: 2"/>
    </defs>
    <g clip-path="url(#p0efaf9abe6)">
     <use xlink:href="#mc4ba532ef3" x="361.243318" y="43.638429" style="stroke: #000000; stroke-width: 2"/>
     <use xlink:href="#mc4ba532ef3" x="162.151989" y="44.488084" style="stroke: #000000; stroke-width: 2"/>
     <use xlink:href="#mc4ba532ef3" x="119.149308" y="46.764454" style="stroke: #000000; stroke-width: 2"/>
     <use xlink:href="#mc4ba532ef3" x="243.082195" y="158.515953" style="stroke: #000000; stroke-width: 2"/>
     <use xlink:href="#mc4ba532ef3" x="147.981379" y="39.159676" style="stroke: #000000; stroke-width: 2"/>
     <use xlink:href="#mc4ba532ef3" x="384.093773" y="82.982802" style="stroke: #000000; stroke-width: 2"/>
     <use xlink:href="#mc4ba532ef3" x="344.741705" y="88.192185" style="stroke: #000000; stroke-width: 2"/>
     <use xlink:href="#mc4ba532ef3" x="59.439227" y="120.592304" style="stroke: #000000; stroke-width: 2"/>
    </g>
   </g>
   <g id="line2d_15">
    <path d="M 59.439227 120.304166 
L 62.718566 117.795736 
L 65.997905 114.817287 
L 69.277244 111.407162 
L 72.556583 107.611253 
L 75.835921 103.482079 
L 79.115261 99.077754 
L 82.394598 94.460438 
L 85.673938 89.695458 
L 88.953278 84.849395 
L 92.232615 79.989125 
L 95.511955 75.17987 
L 98.791295 70.484379 
L 102.070632 65.961551 
L 105.349969 61.665058 
L 108.629311 57.642999 
L 111.908649 53.936531 
L 115.187986 50.580053 
L 118.467328 47.600518 
L 121.746666 45.017449 
L 125.026003 42.843276 
L 128.305345 41.083635 
L 131.584682 39.737865 
L 134.86402 38.79969 
L 138.143362 38.258113 
L 141.422694 38.098218 
L 144.702037 38.302082 
L 147.981379 38.849788 
L 151.260711 39.720129 
L 154.540053 40.891706 
L 157.819395 42.343458 
L 161.098728 44.05555 
L 164.37807 46.009829 
L 167.657412 48.190279 
L 170.936745 50.583482 
L 174.216087 53.178652 
L 177.495429 55.968065 
L 180.774762 58.946796 
L 184.054104 62.112899 
L 187.333446 65.467175 
L 190.612778 69.013008 
L 193.892121 72.756115 
L 197.171463 76.704288 
L 200.450795 80.866955 
L 203.730137 85.254841 
L 207.00948 89.879413 
L 210.288812 94.75241 
L 213.568154 99.885216 
L 216.847496 105.288056 
L 220.126829 110.969227 
L 223.406181 116.934369 
L 226.685504 123.185107 
L 229.964846 129.718458 
L 233.244188 136.525308 
L 236.523511 143.589289 
L 239.802872 150.886038 
L 243.082195 158.381223 
L 246.361537 166.030654 
L 249.640879 173.778447 
L 252.920222 181.556963 
L 256.199564 189.286499 
L 259.478887 196.875231 
L 262.758248 204.219937 
L 266.037571 211.206908 
L 269.316913 217.713951 
L 272.596255 223.611663 
L 275.875578 228.767794 
L 279.15494 233.048243 
L 282.434262 236.323236 
L 285.713605 238.470156 
L 288.992947 239.377279 
L 292.272289 238.950105 
L 295.551631 237.115646 
L 298.830954 233.822937 
L 302.110315 229.053553 
L 305.389638 222.818801 
L 308.66898 215.166009 
L 311.948322 206.177838 
L 315.227645 195.973997 
L 318.507007 184.708405 
L 321.78633 172.570297 
L 325.065672 159.778244 
L 328.345014 146.575239 
L 331.624356 133.227399 
L 334.903698 120.010472 
L 338.183021 107.207723 
L 341.462363 95.09962 
L 344.741705 83.954679 
L 348.021048 74.027808 
L 351.30039 65.543083 
L 354.579713 58.688639 
L 357.859055 53.618395 
L 361.138397 50.441441 
L 364.417739 49.21409 
L 367.697081 49.948691 
L 370.976423 52.598919 
L 374.255766 57.076606 
L 377.535088 63.246392 
L 380.814431 70.927224 
L 384.093773 79.90745 
" clip-path="url(#p0efaf9abe6)" style="fill: none; stroke: #1f77b4; stroke-width: 2; stroke-linecap: round"/>
   </g>
   <g id="line2d_16">
    <path d="M 59.439227 120.592304 
L 62.718566 115.560815 
L 65.997905 110.547997 
L 69.277244 105.572439 
L 72.556583 100.652664 
L 75.835921 95.806989 
L 79.115261 91.053552 
L 82.394598 86.410172 
L 85.673938 81.894315 
L 88.953278 77.523063 
L 92.232615 73.313002 
L 95.511955 69.280201 
L 98.791295 65.440144 
L 102.070632 61.807681 
L 105.349969 58.396961 
L 108.629311 55.221423 
L 111.908649 52.293704 
L 115.187986 49.625622 
L 118.467328 47.228115 
L 121.746666 45.11123 
L 125.026003 43.284076 
L 128.305345 41.754774 
L 131.584682 40.530452 
L 134.86402 39.617209 
L 138.143362 39.020085 
L 141.422694 38.743051 
L 144.702037 38.788993 
L 147.981379 39.159676 
L 151.260711 39.855753 
L 154.540053 40.876758 
L 157.819395 42.221077 
L 161.098728 43.885949 
L 164.37807 45.8675 
L 167.657412 48.160671 
L 170.936745 50.759294 
L 174.216087 53.656044 
L 177.495429 56.842461 
L 180.774762 60.308955 
L 184.054104 64.044794 
L 187.333446 68.038172 
L 190.612778 72.2761 
L 193.892121 76.744545 
L 197.171463 81.428317 
L 200.450795 86.311194 
L 203.730137 91.375815 
L 207.00948 96.60372 
L 210.288812 101.975379 
L 213.568154 107.470192 
L 216.847496 113.066415 
L 220.126829 118.741255 
L 223.406181 124.470807 
L 226.685504 130.230005 
L 229.964846 135.992742 
L 233.244188 141.731756 
L 236.523511 147.418507 
L 239.802872 153.023549 
L 243.082195 158.515953 
L 246.361537 163.863855 
L 249.640879 169.034045 
L 252.920222 173.992152 
L 256.199564 178.702655 
L 259.478887 183.128756 
L 262.758248 187.232604 
L 266.037571 190.975178 
L 269.316913 194.316484 
L 272.596255 197.215583 
L 275.875578 199.630851 
L 279.15494 201.520051 
L 282.434262 202.840711 
L 285.713605 203.550429 
L 288.992947 203.607323 
L 292.272289 202.970584 
L 295.551631 201.601209 
L 298.830954 199.462813 
L 302.110315 196.522569 
L 305.389638 192.752821 
L 308.66898 188.13197 
L 311.948322 182.646743 
L 315.227645 176.294112 
L 318.507007 169.083379 
L 321.78633 161.039326 
L 325.065672 152.20487 
L 328.345014 142.644552 
L 331.624356 132.448202 
L 334.903698 121.734603 
L 338.183021 110.65537 
L 341.462363 99.398671 
L 344.741705 88.192185 
L 348.021048 77.305578 
L 351.30039 67.05143 
L 354.579713 57.783591 
L 357.859055 49.892829 
L 361.138397 43.798892 
L 364.417739 39.936149 
L 367.697081 38.733697 
L 370.976423 40.587145 
L 374.255766 45.8217 
L 377.535088 54.646168 
L 380.814431 67.098114 
L 384.093773 82.982802 
" clip-path="url(#p0efaf9abe6)" style="fill: none; stroke-dasharray: 7.68,1.92,1.2,1.92; stroke-dashoffset: 0; stroke: #bf00bf; stroke-width: 1.2"/>
   </g>
   <g id="patch_3">
    <path d="M 43.2065 286.137272 
L 43.2065 38.722268 
" style="fill: none; stroke: #262626; stroke-linejoin: miter; stroke-linecap: square"/>
   </g>
   <g id="patch_4">
    <path d="M 59.439227 286.212 
L 384.093773 286.212 
" style="fill: none; stroke: #262626; stroke-linejoin: miter; stroke-linecap: square"/>
   </g>
   <g id="text_16">
    <!-- N=4, psi=0.10 -->
    <g style="fill: #262626" transform="translate(191.87975 14.1) scale(0.096 -0.096)">
     <defs>
      <path id="ArialMT-4e" d="M 488 0 
L 488 4581 
L 1109 4581 
L 3516 984 
L 3516 4581 
L 4097 4581 
L 4097 0 
L 3475 0 
L 1069 3600 
L 1069 0 
L 488 0 
z
" transform="scale(0.015625)"/>
      <path id="ArialMT-3d" d="M 3381 2694 
L 356 2694 
L 356 3219 
L 3381 3219 
L 3381 2694 
z
M 3381 1303 
L 356 1303 
L 356 1828 
L 3381 1828 
L 3381 1303 
z
" transform="scale(0.015625)"/>
      <path id="ArialMT-2c" d="M 569 0 
L 569 641 
L 1209 641 
L 1209 0 
Q 1209 -353 1084 -570 
Q 959 -788 688 -906 
L 531 -666 
Q 709 -588 793 -436 
Q 878 -284 888 0 
L 569 0 
z
" transform="scale(0.015625)"/>
      <path id="ArialMT-20" transform="scale(0.015625)"/>
      <path id="ArialMT-70" d="M 422 -1272 
L 422 3319 
L 934 3319 
L 934 2888 
Q 1116 3141 1344 3267 
Q 1572 3394 1897 3394 
Q 2322 3394 2647 3175 
Q 2972 2956 3137 2557 
Q 3303 2159 3303 1684 
Q 3303 1175 3120 767 
Q 2938 359 2589 142 
Q 2241 -75 1856 -75 
Q 1575 -75 1351 44 
Q 1128 163 984 344 
L 984 -1272 
L 422 -1272 
z
M 931 1641 
Q 931 1000 1190 694 
Q 1450 388 1819 388 
Q 2194 388 2461 705 
Q 2728 1022 2728 1688 
Q 2728 2322 2467 2637 
Q 2206 2953 1844 2953 
Q 1484 2953 1207 2617 
Q 931 2281 931 1641 
z
" transform="scale(0.015625)"/>
      <path id="ArialMT-73" d="M 197 991 
L 753 1078 
Q 800 744 1014 566 
Q 1228 388 1613 388 
Q 2000 388 2187 545 
Q 2375 703 2375 916 
Q 2375 1106 2209 1216 
Q 2094 1291 1634 1406 
Q 1016 1563 777 1677 
Q 538 1791 414 1992 
Q 291 2194 291 2438 
Q 291 2659 392 2848 
Q 494 3038 669 3163 
Q 800 3259 1026 3326 
Q 1253 3394 1513 3394 
Q 1903 3394 2198 3281 
Q 2494 3169 2634 2976 
Q 2775 2784 2828 2463 
L 2278 2388 
Q 2241 2644 2061 2787 
Q 1881 2931 1553 2931 
Q 1166 2931 1000 2803 
Q 834 2675 834 2503 
Q 834 2394 903 2306 
Q 972 2216 1119 2156 
Q 1203 2125 1616 2013 
Q 2213 1853 2448 1751 
Q 2684 1650 2818 1456 
Q 2953 1263 2953 975 
Q 2953 694 2789 445 
Q 2625 197 2315 61 
Q 2006 -75 1616 -75 
Q 969 -75 630 194 
Q 291 463 197 991 
z
" transform="scale(0.015625)"/>
      <path id="ArialMT-69" d="M 425 3934 
L 425 4581 
L 988 4581 
L 988 3934 
L 425 3934 
z
M 425 0 
L 425 3319 
L 988 3319 
L 988 0 
L 425 0 
z
" transform="scale(0.015625)"/>
     </defs>
     <use xlink:href="#ArialMT-4e"/>
     <use xlink:href="#ArialMT-3d" x="72.216797"/>
     <use xlink:href="#ArialMT-34" x="130.615234"/>
     <use xlink:href="#ArialMT-2c" x="186.230469"/>
     <use xlink:href="#ArialMT-20" x="214.013672"/>
     <use xlink:href="#ArialMT-70" x="241.796875"/>
     <use xlink:href="#ArialMT-73" x="297.412109"/>
     <use xlink:href="#ArialMT-69" x="347.412109"/>
     <use xlink:href="#ArialMT-3d" x="369.628906"/>
     <use xlink:href="#ArialMT-30" x="428.027344"/>
     <use xlink:href="#ArialMT-2e" x="483.642578"/>
     <use xlink:href="#ArialMT-31" x="511.425781"/>
     <use xlink:href="#ArialMT-30" x="567.041016"/>
    </g>
   </g>
   <g id="legend_1">
    <g id="line2d_17">
     <g>
      <use xlink:href="#mc4ba532ef3" x="59.9265" y="220.007125" style="stroke: #000000; stroke-width: 2"/>
     </g>
    </g>
    <g id="text_17">
     <!-- Observations -->
     <g style="fill: #262626" transform="translate(75.7665 223.087125) scale(0.088 -0.088)">
      <defs>
       <path id="ArialMT-4f" d="M 309 2231 
Q 309 3372 921 4017 
Q 1534 4663 2503 4663 
Q 3138 4663 3647 4359 
Q 4156 4056 4423 3514 
Q 4691 2972 4691 2284 
Q 4691 1588 4409 1038 
Q 4128 488 3612 205 
Q 3097 -78 2500 -78 
Q 1853 -78 1343 234 
Q 834 547 571 1087 
Q 309 1628 309 2231 
z
M 934 2222 
Q 934 1394 1379 917 
Q 1825 441 2497 441 
Q 3181 441 3623 922 
Q 4066 1403 4066 2288 
Q 4066 2847 3877 3264 
Q 3688 3681 3323 3911 
Q 2959 4141 2506 4141 
Q 1863 4141 1398 3698 
Q 934 3256 934 2222 
z
" transform="scale(0.015625)"/>
       <path id="ArialMT-62" d="M 941 0 
L 419 0 
L 419 4581 
L 981 4581 
L 981 2947 
Q 1338 3394 1891 3394 
Q 2197 3394 2470 3270 
Q 2744 3147 2920 2923 
Q 3097 2700 3197 2384 
Q 3297 2069 3297 1709 
Q 3297 856 2875 390 
Q 2453 -75 1863 -75 
Q 1275 -75 941 416 
L 941 0 
z
M 934 1684 
Q 934 1088 1097 822 
Q 1363 388 1816 388 
Q 2184 388 2453 708 
Q 2722 1028 2722 1663 
Q 2722 2313 2464 2622 
Q 2206 2931 1841 2931 
Q 1472 2931 1203 2611 
Q 934 2291 934 1684 
z
" transform="scale(0.015625)"/>
       <path id="ArialMT-65" d="M 2694 1069 
L 3275 997 
Q 3138 488 2766 206 
Q 2394 -75 1816 -75 
Q 1088 -75 661 373 
Q 234 822 234 1631 
Q 234 2469 665 2931 
Q 1097 3394 1784 3394 
Q 2450 3394 2872 2941 
Q 3294 2488 3294 1666 
Q 3294 1616 3291 1516 
L 816 1516 
Q 847 969 1125 678 
Q 1403 388 1819 388 
Q 2128 388 2347 550 
Q 2566 713 2694 1069 
z
M 847 1978 
L 2700 1978 
Q 2663 2397 2488 2606 
Q 2219 2931 1791 2931 
Q 1403 2931 1139 2672 
Q 875 2413 847 1978 
z
" transform="scale(0.015625)"/>
       <path id="ArialMT-72" d="M 416 0 
L 416 3319 
L 922 3319 
L 922 2816 
Q 1116 3169 1280 3281 
Q 1444 3394 1641 3394 
Q 1925 3394 2219 3213 
L 2025 2691 
Q 1819 2813 1613 2813 
Q 1428 2813 1281 2702 
Q 1134 2591 1072 2394 
Q 978 2094 978 1738 
L 978 0 
L 416 0 
z
" transform="scale(0.015625)"/>
       <path id="ArialMT-76" d="M 1344 0 
L 81 3319 
L 675 3319 
L 1388 1331 
Q 1503 1009 1600 663 
Q 1675 925 1809 1294 
L 2547 3319 
L 3125 3319 
L 1869 0 
L 1344 0 
z
" transform="scale(0.015625)"/>
       <path id="ArialMT-61" d="M 2588 409 
Q 2275 144 1986 34 
Q 1697 -75 1366 -75 
Q 819 -75 525 192 
Q 231 459 231 875 
Q 231 1119 342 1320 
Q 453 1522 633 1644 
Q 813 1766 1038 1828 
Q 1203 1872 1538 1913 
Q 2219 1994 2541 2106 
Q 2544 2222 2544 2253 
Q 2544 2597 2384 2738 
Q 2169 2928 1744 2928 
Q 1347 2928 1158 2789 
Q 969 2650 878 2297 
L 328 2372 
Q 403 2725 575 2942 
Q 747 3159 1072 3276 
Q 1397 3394 1825 3394 
Q 2250 3394 2515 3294 
Q 2781 3194 2906 3042 
Q 3031 2891 3081 2659 
Q 3109 2516 3109 2141 
L 3109 1391 
Q 3109 606 3145 398 
Q 3181 191 3288 0 
L 2700 0 
Q 2613 175 2588 409 
z
M 2541 1666 
Q 2234 1541 1622 1453 
Q 1275 1403 1131 1340 
Q 988 1278 909 1158 
Q 831 1038 831 891 
Q 831 666 1001 516 
Q 1172 366 1500 366 
Q 1825 366 2078 508 
Q 2331 650 2450 897 
Q 2541 1088 2541 1459 
L 2541 1666 
z
" transform="scale(0.015625)"/>
       <path id="ArialMT-74" d="M 1650 503 
L 1731 6 
Q 1494 -44 1306 -44 
Q 1000 -44 831 53 
Q 663 150 594 308 
Q 525 466 525 972 
L 525 2881 
L 113 2881 
L 113 3319 
L 525 3319 
L 525 4141 
L 1084 4478 
L 1084 3319 
L 1650 3319 
L 1650 2881 
L 1084 2881 
L 1084 941 
Q 1084 700 1114 631 
Q 1144 563 1211 522 
Q 1278 481 1403 481 
Q 1497 481 1650 503 
z
" transform="scale(0.015625)"/>
       <path id="ArialMT-6f" d="M 213 1659 
Q 213 2581 725 3025 
Q 1153 3394 1769 3394 
Q 2453 3394 2887 2945 
Q 3322 2497 3322 1706 
Q 3322 1066 3130 698 
Q 2938 331 2570 128 
Q 2203 -75 1769 -75 
Q 1072 -75 642 372 
Q 213 819 213 1659 
z
M 791 1659 
Q 791 1022 1069 705 
Q 1347 388 1769 388 
Q 2188 388 2466 706 
Q 2744 1025 2744 1678 
Q 2744 2294 2464 2611 
Q 2184 2928 1769 2928 
Q 1347 2928 1069 2612 
Q 791 2297 791 1659 
z
" transform="scale(0.015625)"/>
       <path id="ArialMT-6e" d="M 422 0 
L 422 3319 
L 928 3319 
L 928 2847 
Q 1294 3394 1984 3394 
Q 2284 3394 2536 3286 
Q 2788 3178 2913 3003 
Q 3038 2828 3088 2588 
Q 3119 2431 3119 2041 
L 3119 0 
L 2556 0 
L 2556 2019 
Q 2556 2363 2490 2533 
Q 2425 2703 2258 2804 
Q 2091 2906 1866 2906 
Q 1506 2906 1245 2678 
Q 984 2450 984 1813 
L 984 0 
L 422 0 
z
" transform="scale(0.015625)"/>
      </defs>
      <use xlink:href="#ArialMT-4f"/>
      <use xlink:href="#ArialMT-62" x="77.783203"/>
      <use xlink:href="#ArialMT-73" x="133.398438"/>
      <use xlink:href="#ArialMT-65" x="183.398438"/>
      <use xlink:href="#ArialMT-72" x="239.013672"/>
      <use xlink:href="#ArialMT-76" x="272.314453"/>
      <use xlink:href="#ArialMT-61" x="322.314453"/>
      <use xlink:href="#ArialMT-74" x="377.929688"/>
      <use xlink:href="#ArialMT-69" x="405.712891"/>
      <use xlink:href="#ArialMT-6f" x="427.929688"/>
      <use xlink:href="#ArialMT-6e" x="483.544922"/>
      <use xlink:href="#ArialMT-73" x="539.160156"/>
     </g>
    </g>
    <g id="line2d_18">
     <path d="M 51.1265 232.591125 
L 59.9265 232.591125 
L 68.7265 232.591125 
" style="fill: none; stroke: #1f77b4; stroke-width: 2; stroke-linecap: round"/>
    </g>
    <g id="text_18">
     <!-- $m_n(x)$ -->
     <g style="fill: #262626" transform="translate(75.7665 235.671125) scale(0.088 -0.088)">
      <defs>
       <path id="DejaVuSans-Oblique-6d" d="M 5747 2113 
L 5338 0 
L 4763 0 
L 5166 2094 
Q 5191 2228 5203 2325 
Q 5216 2422 5216 2491 
Q 5216 2772 5059 2928 
Q 4903 3084 4622 3084 
Q 4203 3084 3875 2770 
Q 3547 2456 3450 1953 
L 3066 0 
L 2491 0 
L 2900 2094 
Q 2925 2209 2937 2307 
Q 2950 2406 2950 2484 
Q 2950 2769 2794 2926 
Q 2638 3084 2363 3084 
Q 1938 3084 1609 2770 
Q 1281 2456 1184 1953 
L 800 0 
L 225 0 
L 909 3500 
L 1484 3500 
L 1375 2956 
Q 1609 3263 1923 3423 
Q 2238 3584 2597 3584 
Q 2978 3584 3223 3384 
Q 3469 3184 3519 2828 
Q 3781 3197 4126 3390 
Q 4472 3584 4856 3584 
Q 5306 3584 5551 3325 
Q 5797 3066 5797 2591 
Q 5797 2488 5784 2364 
Q 5772 2241 5747 2113 
z
" transform="scale(0.015625)"/>
       <path id="DejaVuSans-Oblique-6e" d="M 3566 2113 
L 3156 0 
L 2578 0 
L 2988 2091 
Q 3016 2238 3031 2350 
Q 3047 2463 3047 2528 
Q 3047 2791 2881 2937 
Q 2716 3084 2419 3084 
Q 1956 3084 1622 2776 
Q 1288 2469 1184 1941 
L 800 0 
L 225 0 
L 903 3500 
L 1478 3500 
L 1363 2950 
Q 1603 3253 1940 3418 
Q 2278 3584 2650 3584 
Q 3113 3584 3367 3334 
Q 3622 3084 3622 2631 
Q 3622 2519 3608 2391 
Q 3594 2263 3566 2113 
z
" transform="scale(0.015625)"/>
       <path id="DejaVuSans-28" d="M 1984 4856 
Q 1566 4138 1362 3434 
Q 1159 2731 1159 2009 
Q 1159 1288 1364 580 
Q 1569 -128 1984 -844 
L 1484 -844 
Q 1016 -109 783 600 
Q 550 1309 550 2009 
Q 550 2706 781 3412 
Q 1013 4119 1484 4856 
L 1984 4856 
z
" transform="scale(0.015625)"/>
       <path id="DejaVuSans-29" d="M 513 4856 
L 1013 4856 
Q 1481 4119 1714 3412 
Q 1947 2706 1947 2009 
Q 1947 1309 1714 600 
Q 1481 -109 1013 -844 
L 513 -844 
Q 928 -128 1133 580 
Q 1338 1288 1338 2009 
Q 1338 2731 1133 3434 
Q 928 4138 513 4856 
z
" transform="scale(0.015625)"/>
      </defs>
      <use xlink:href="#DejaVuSans-Oblique-6d" transform="translate(0 0.125)"/>
      <use xlink:href="#DejaVuSans-Oblique-6e" transform="translate(97.412109 -16.28125) scale(0.7)"/>
      <use xlink:href="#DejaVuSans-28" transform="translate(144.511719 0.125)"/>
      <use xlink:href="#DejaVuSans-Oblique-78" transform="translate(183.525391 0.125)"/>
      <use xlink:href="#DejaVuSans-29" transform="translate(242.705078 0.125)"/>
     </g>
    </g>
    <g id="patch_5">
     <path d="M 51.1265 249.828125 
L 68.7265 249.828125 
L 68.7265 243.668125 
L 51.1265 243.668125 
z
" style="fill: #1f77b4; fill-opacity: 0.5; stroke: #1f77b4; stroke-opacity: 0.5; stroke-width: 0.8; stroke-linejoin: miter"/>
    </g>
    <g id="text_19">
     <!-- $f(\mathbf{x}^*)$ 95% pred. -->
     <g style="fill: #262626" transform="translate(75.7665 249.828125) scale(0.088 -0.088)">
      <defs>
       <path id="DejaVuSans-Oblique-66" d="M 3059 4863 
L 2969 4384 
L 2419 4384 
Q 2106 4384 1964 4261 
Q 1822 4138 1753 3809 
L 1691 3500 
L 2638 3500 
L 2553 3053 
L 1606 3053 
L 1013 0 
L 434 0 
L 1031 3053 
L 481 3053 
L 563 3500 
L 1113 3500 
L 1159 3744 
Q 1278 4363 1576 4613 
Q 1875 4863 2516 4863 
L 3059 4863 
z
" transform="scale(0.015625)"/>
       <path id="DejaVuSans-Bold-78" d="M 1422 1791 
L 159 3500 
L 1344 3500 
L 2059 2463 
L 2784 3500 
L 3969 3500 
L 2706 1797 
L 4031 0 
L 2847 0 
L 2059 1106 
L 1281 0 
L 97 0 
L 1422 1791 
z
" transform="scale(0.015625)"/>
       <path id="DejaVuSans-2a" d="M 3009 3897 
L 1888 3291 
L 3009 2681 
L 2828 2375 
L 1778 3009 
L 1778 1831 
L 1422 1831 
L 1422 3009 
L 372 2375 
L 191 2681 
L 1313 3291 
L 191 3897 
L 372 4206 
L 1422 3572 
L 1422 4750 
L 1778 4750 
L 1778 3572 
L 2828 4206 
L 3009 3897 
z
" transform="scale(0.015625)"/>
       <path id="ArialMT-39" d="M 350 1059 
L 891 1109 
Q 959 728 1153 556 
Q 1347 384 1650 384 
Q 1909 384 2104 503 
Q 2300 622 2425 820 
Q 2550 1019 2634 1356 
Q 2719 1694 2719 2044 
Q 2719 2081 2716 2156 
Q 2547 1888 2255 1720 
Q 1963 1553 1622 1553 
Q 1053 1553 659 1965 
Q 266 2378 266 3053 
Q 266 3750 677 4175 
Q 1088 4600 1706 4600 
Q 2153 4600 2523 4359 
Q 2894 4119 3086 3673 
Q 3278 3228 3278 2384 
Q 3278 1506 3087 986 
Q 2897 466 2520 194 
Q 2144 -78 1638 -78 
Q 1100 -78 759 220 
Q 419 519 350 1059 
z
M 2653 3081 
Q 2653 3566 2395 3850 
Q 2138 4134 1775 4134 
Q 1400 4134 1122 3828 
Q 844 3522 844 3034 
Q 844 2597 1108 2323 
Q 1372 2050 1759 2050 
Q 2150 2050 2401 2323 
Q 2653 2597 2653 3081 
z
" transform="scale(0.015625)"/>
       <path id="ArialMT-35" d="M 266 1200 
L 856 1250 
Q 922 819 1161 601 
Q 1400 384 1738 384 
Q 2144 384 2425 690 
Q 2706 997 2706 1503 
Q 2706 1984 2436 2262 
Q 2166 2541 1728 2541 
Q 1456 2541 1237 2417 
Q 1019 2294 894 2097 
L 366 2166 
L 809 4519 
L 3088 4519 
L 3088 3981 
L 1259 3981 
L 1013 2750 
Q 1425 3038 1878 3038 
Q 2478 3038 2890 2622 
Q 3303 2206 3303 1553 
Q 3303 931 2941 478 
Q 2500 -78 1738 -78 
Q 1113 -78 717 272 
Q 322 622 266 1200 
z
" transform="scale(0.015625)"/>
       <path id="ArialMT-25" d="M 372 3481 
Q 372 3972 619 4315 
Q 866 4659 1334 4659 
Q 1766 4659 2048 4351 
Q 2331 4044 2331 3447 
Q 2331 2866 2045 2552 
Q 1759 2238 1341 2238 
Q 925 2238 648 2547 
Q 372 2856 372 3481 
z
M 1350 4272 
Q 1141 4272 1002 4090 
Q 863 3909 863 3425 
Q 863 2984 1003 2804 
Q 1144 2625 1350 2625 
Q 1563 2625 1702 2806 
Q 1841 2988 1841 3469 
Q 1841 3913 1700 4092 
Q 1559 4272 1350 4272 
z
M 1353 -169 
L 3859 4659 
L 4316 4659 
L 1819 -169 
L 1353 -169 
z
M 3334 1075 
Q 3334 1569 3581 1911 
Q 3828 2253 4300 2253 
Q 4731 2253 5014 1945 
Q 5297 1638 5297 1041 
Q 5297 459 5011 145 
Q 4725 -169 4303 -169 
Q 3888 -169 3611 142 
Q 3334 453 3334 1075 
z
M 4316 1866 
Q 4103 1866 3964 1684 
Q 3825 1503 3825 1019 
Q 3825 581 3965 400 
Q 4106 219 4313 219 
Q 4528 219 4667 400 
Q 4806 581 4806 1063 
Q 4806 1506 4665 1686 
Q 4525 1866 4316 1866 
z
" transform="scale(0.015625)"/>
       <path id="ArialMT-64" d="M 2575 0 
L 2575 419 
Q 2259 -75 1647 -75 
Q 1250 -75 917 144 
Q 584 363 401 755 
Q 219 1147 219 1656 
Q 219 2153 384 2558 
Q 550 2963 881 3178 
Q 1213 3394 1622 3394 
Q 1922 3394 2156 3267 
Q 2391 3141 2538 2938 
L 2538 4581 
L 3097 4581 
L 3097 0 
L 2575 0 
z
M 797 1656 
Q 797 1019 1065 703 
Q 1334 388 1700 388 
Q 2069 388 2326 689 
Q 2584 991 2584 1609 
Q 2584 2291 2321 2609 
Q 2059 2928 1675 2928 
Q 1300 2928 1048 2622 
Q 797 2316 797 1656 
z
" transform="scale(0.015625)"/>
      </defs>
      <use xlink:href="#DejaVuSans-Oblique-66" transform="translate(0 0.765625)"/>
      <use xlink:href="#DejaVuSans-28" transform="translate(35.205078 0.765625)"/>
      <use xlink:href="#DejaVuSans-Bold-78" transform="translate(74.21875 0.765625)"/>
      <use xlink:href="#DejaVuSans-2a" transform="translate(153.31543 39.046875) scale(0.7)"/>
      <use xlink:href="#DejaVuSans-29" transform="translate(204.6875 0.765625)"/>
      <use xlink:href="#ArialMT-20" transform="translate(243.701172 0.765625)"/>
      <use xlink:href="#ArialMT-39" transform="translate(271.484375 0.765625)"/>
      <use xlink:href="#ArialMT-35" transform="translate(327.099609 0.765625)"/>
      <use xlink:href="#ArialMT-25" transform="translate(382.714844 0.765625)"/>
      <use xlink:href="#ArialMT-20" transform="translate(471.630859 0.765625)"/>
      <use xlink:href="#ArialMT-70" transform="translate(499.414062 0.765625)"/>
      <use xlink:href="#ArialMT-72" transform="translate(555.029297 0.765625)"/>
      <use xlink:href="#ArialMT-65" transform="translate(588.330078 0.765625)"/>
      <use xlink:href="#ArialMT-64" transform="translate(643.945312 0.765625)"/>
      <use xlink:href="#ArialMT-2e" transform="translate(699.560547 0.765625)"/>
     </g>
    </g>
    <g id="patch_6">
     <path d="M 51.1265 263.996125 
L 68.7265 263.996125 
L 68.7265 257.836125 
L 51.1265 257.836125 
z
" style="fill: #ff7f0e; fill-opacity: 0.5; stroke: #ff7f0e; stroke-opacity: 0.5; stroke-width: 0.8; stroke-linejoin: miter"/>
    </g>
    <g id="text_20">
     <!-- $y^*$ 95% pred. -->
     <g style="fill: #262626" transform="translate(75.7665 263.996125) scale(0.088 -0.088)">
      <use xlink:href="#DejaVuSans-Oblique-79" transform="translate(0 0.765625)"/>
      <use xlink:href="#DejaVuSans-2a" transform="translate(77.283529 39.046875) scale(0.7)"/>
      <use xlink:href="#ArialMT-20" transform="translate(128.655599 0.765625)"/>
      <use xlink:href="#ArialMT-39" transform="translate(156.438802 0.765625)"/>
      <use xlink:href="#ArialMT-35" transform="translate(212.054036 0.765625)"/>
      <use xlink:href="#ArialMT-25" transform="translate(267.669271 0.765625)"/>
      <use xlink:href="#ArialMT-20" transform="translate(356.585286 0.765625)"/>
      <use xlink:href="#ArialMT-70" transform="translate(384.36849 0.765625)"/>
      <use xlink:href="#ArialMT-72" transform="translate(439.983724 0.765625)"/>
      <use xlink:href="#ArialMT-65" transform="translate(473.284505 0.765625)"/>
      <use xlink:href="#ArialMT-64" transform="translate(528.89974 0.765625)"/>
      <use xlink:href="#ArialMT-2e" transform="translate(584.514974 0.765625)"/>
     </g>
    </g>
    <g id="line2d_19">
     <path d="M 51.1265 273.463 
L 59.9265 273.463 
L 68.7265 273.463 
" style="fill: none; stroke-dasharray: 7.68,1.92,1.2,1.92; stroke-dashoffset: 0; stroke: #bf00bf; stroke-width: 1.2"/>
    </g>
    <g id="text_21">
     <!-- True function -->
     <g style="fill: #262626" transform="translate(75.7665 276.543) scale(0.088 -0.088)">
      <defs>
       <path id="ArialMT-54" d="M 1659 0 
L 1659 4041 
L 150 4041 
L 150 4581 
L 3781 4581 
L 3781 4041 
L 2266 4041 
L 2266 0 
L 1659 0 
z
" transform="scale(0.015625)"/>
       <path id="ArialMT-75" d="M 2597 0 
L 2597 488 
Q 2209 -75 1544 -75 
Q 1250 -75 995 37 
Q 741 150 617 320 
Q 494 491 444 738 
Q 409 903 409 1263 
L 409 3319 
L 972 3319 
L 972 1478 
Q 972 1038 1006 884 
Q 1059 663 1231 536 
Q 1403 409 1656 409 
Q 1909 409 2131 539 
Q 2353 669 2445 892 
Q 2538 1116 2538 1541 
L 2538 3319 
L 3100 3319 
L 3100 0 
L 2597 0 
z
" transform="scale(0.015625)"/>
       <path id="ArialMT-66" d="M 556 0 
L 556 2881 
L 59 2881 
L 59 3319 
L 556 3319 
L 556 3672 
Q 556 4006 616 4169 
Q 697 4388 901 4523 
Q 1106 4659 1475 4659 
Q 1713 4659 2000 4603 
L 1916 4113 
Q 1741 4144 1584 4144 
Q 1328 4144 1222 4034 
Q 1116 3925 1116 3625 
L 1116 3319 
L 1763 3319 
L 1763 2881 
L 1116 2881 
L 1116 0 
L 556 0 
z
" transform="scale(0.015625)"/>
       <path id="ArialMT-63" d="M 2588 1216 
L 3141 1144 
Q 3050 572 2676 248 
Q 2303 -75 1759 -75 
Q 1078 -75 664 370 
Q 250 816 250 1647 
Q 250 2184 428 2587 
Q 606 2991 970 3192 
Q 1334 3394 1763 3394 
Q 2303 3394 2647 3120 
Q 2991 2847 3088 2344 
L 2541 2259 
Q 2463 2594 2264 2762 
Q 2066 2931 1784 2931 
Q 1359 2931 1093 2626 
Q 828 2322 828 1663 
Q 828 994 1084 691 
Q 1341 388 1753 388 
Q 2084 388 2306 591 
Q 2528 794 2588 1216 
z
" transform="scale(0.015625)"/>
      </defs>
      <use xlink:href="#ArialMT-54"/>
      <use xlink:href="#ArialMT-72" x="57.333984"/>
      <use xlink:href="#ArialMT-75" x="90.634766"/>
      <use xlink:href="#ArialMT-65" x="146.25"/>
      <use xlink:href="#ArialMT-20" x="201.865234"/>
      <use xlink:href="#ArialMT-66" x="229.648438"/>
      <use xlink:href="#ArialMT-75" x="257.431641"/>
      <use xlink:href="#ArialMT-6e" x="313.046875"/>
      <use xlink:href="#ArialMT-63" x="368.662109"/>
      <use xlink:href="#ArialMT-74" x="418.662109"/>
      <use xlink:href="#ArialMT-69" x="446.445312"/>
      <use xlink:href="#ArialMT-6f" x="468.662109"/>
      <use xlink:href="#ArialMT-6e" x="524.277344"/>
     </g>
    </g>
   </g>
  </g>
  <g id="axes_2">
   <g id="matplotlib.axis_3">
    <g id="ytick_8">
     <g id="line2d_20">
      <defs>
       <path id="mcd4ab9e934" d="M 0 0 
L 4.8 0 
" style="stroke: #262626"/>
      </defs>
      <g>
       <use xlink:href="#mcd4ab9e934" x="400.3265" y="274.116" style="fill: #262626; stroke: #262626"/>
      </g>
     </g>
     <g id="text_22">
      <!-- 0.00 -->
      <g style="fill: #ff7f0e" transform="translate(408.6265 277.265437) scale(0.088 -0.088)">
       <use xlink:href="#ArialMT-30"/>
       <use xlink:href="#ArialMT-2e" x="55.615234"/>
       <use xlink:href="#ArialMT-30" x="83.398438"/>
       <use xlink:href="#ArialMT-30" x="139.013672"/>
      </g>
     </g>
    </g>
    <g id="ytick_9">
     <g id="line2d_21">
      <g>
       <use xlink:href="#mcd4ab9e934" x="400.3265" y="236.05795" style="fill: #262626; stroke: #262626"/>
      </g>
     </g>
     <g id="text_23">
      <!-- 0.05 -->
      <g style="fill: #ff7f0e" transform="translate(408.6265 239.207388) scale(0.088 -0.088)">
       <use xlink:href="#ArialMT-30"/>
       <use xlink:href="#ArialMT-2e" x="55.615234"/>
       <use xlink:href="#ArialMT-30" x="83.398438"/>
       <use xlink:href="#ArialMT-35" x="139.013672"/>
      </g>
     </g>
    </g>
    <g id="ytick_10">
     <g id="line2d_22">
      <g>
       <use xlink:href="#mcd4ab9e934" x="400.3265" y="197.999901" style="fill: #262626; stroke: #262626"/>
      </g>
     </g>
     <g id="text_24">
      <!-- 0.10 -->
      <g style="fill: #ff7f0e" transform="translate(408.6265 201.149338) scale(0.088 -0.088)">
       <use xlink:href="#ArialMT-30"/>
       <use xlink:href="#ArialMT-2e" x="55.615234"/>
       <use xlink:href="#ArialMT-31" x="83.398438"/>
       <use xlink:href="#ArialMT-30" x="139.013672"/>
      </g>
     </g>
    </g>
    <g id="ytick_11">
     <g id="line2d_23">
      <g>
       <use xlink:href="#mcd4ab9e934" x="400.3265" y="159.941851" style="fill: #262626; stroke: #262626"/>
      </g>
     </g>
     <g id="text_25">
      <!-- 0.15 -->
      <g style="fill: #ff7f0e" transform="translate(408.6265 163.091288) scale(0.088 -0.088)">
       <use xlink:href="#ArialMT-30"/>
       <use xlink:href="#ArialMT-2e" x="55.615234"/>
       <use xlink:href="#ArialMT-31" x="83.398438"/>
       <use xlink:href="#ArialMT-35" x="139.013672"/>
      </g>
     </g>
    </g>
    <g id="ytick_12">
     <g id="line2d_24">
      <g>
       <use xlink:href="#mcd4ab9e934" x="400.3265" y="121.883801" style="fill: #262626; stroke: #262626"/>
      </g>
     </g>
     <g id="text_26">
      <!-- 0.20 -->
      <g style="fill: #ff7f0e" transform="translate(408.6265 125.033239) scale(0.088 -0.088)">
       <use xlink:href="#ArialMT-30"/>
       <use xlink:href="#ArialMT-2e" x="55.615234"/>
       <use xlink:href="#ArialMT-32" x="83.398438"/>
       <use xlink:href="#ArialMT-30" x="139.013672"/>
      </g>
     </g>
    </g>
    <g id="ytick_13">
     <g id="line2d_25">
      <g>
       <use xlink:href="#mcd4ab9e934" x="400.3265" y="83.825752" style="fill: #262626; stroke: #262626"/>
      </g>
     </g>
     <g id="text_27">
      <!-- 0.25 -->
      <g style="fill: #ff7f0e" transform="translate(408.6265 86.975189) scale(0.088 -0.088)">
       <use xlink:href="#ArialMT-30"/>
       <use xlink:href="#ArialMT-2e" x="55.615234"/>
       <use xlink:href="#ArialMT-32" x="83.398438"/>
       <use xlink:href="#ArialMT-35" x="139.013672"/>
      </g>
     </g>
    </g>
    <g id="ytick_14">
     <g id="line2d_26">
      <g>
       <use xlink:href="#mcd4ab9e934" x="400.3265" y="45.767702" style="fill: #262626; stroke: #262626"/>
      </g>
     </g>
     <g id="text_28">
      <!-- 0.30 -->
      <g style="fill: #ff7f0e" transform="translate(408.6265 48.917139) scale(0.088 -0.088)">
       <defs>
        <path id="ArialMT-33" d="M 269 1209 
L 831 1284 
Q 928 806 1161 595 
Q 1394 384 1728 384 
Q 2125 384 2398 659 
Q 2672 934 2672 1341 
Q 2672 1728 2419 1979 
Q 2166 2231 1775 2231 
Q 1616 2231 1378 2169 
L 1441 2663 
Q 1497 2656 1531 2656 
Q 1891 2656 2178 2843 
Q 2466 3031 2466 3422 
Q 2466 3731 2256 3934 
Q 2047 4138 1716 4138 
Q 1388 4138 1169 3931 
Q 950 3725 888 3313 
L 325 3413 
Q 428 3978 793 4289 
Q 1159 4600 1703 4600 
Q 2078 4600 2393 4439 
Q 2709 4278 2876 4000 
Q 3044 3722 3044 3409 
Q 3044 3113 2884 2869 
Q 2725 2625 2413 2481 
Q 2819 2388 3044 2092 
Q 3269 1797 3269 1353 
Q 3269 753 2831 336 
Q 2394 -81 1725 -81 
Q 1122 -81 723 278 
Q 325 638 269 1209 
z
" transform="scale(0.015625)"/>
       </defs>
       <use xlink:href="#ArialMT-30"/>
       <use xlink:href="#ArialMT-2e" x="55.615234"/>
       <use xlink:href="#ArialMT-33" x="83.398438"/>
       <use xlink:href="#ArialMT-30" x="139.013672"/>
      </g>
     </g>
    </g>
    <g id="text_29">
     <!-- Information Acquisition Function -->
     <g style="fill: #ff7f0e" transform="translate(436.740625 221.18925) rotate(-90) scale(0.096 -0.096)">
      <defs>
       <path id="ArialMT-49" d="M 597 0 
L 597 4581 
L 1203 4581 
L 1203 0 
L 597 0 
z
" transform="scale(0.015625)"/>
       <path id="ArialMT-6d" d="M 422 0 
L 422 3319 
L 925 3319 
L 925 2853 
Q 1081 3097 1340 3245 
Q 1600 3394 1931 3394 
Q 2300 3394 2536 3241 
Q 2772 3088 2869 2813 
Q 3263 3394 3894 3394 
Q 4388 3394 4653 3120 
Q 4919 2847 4919 2278 
L 4919 0 
L 4359 0 
L 4359 2091 
Q 4359 2428 4304 2576 
Q 4250 2725 4106 2815 
Q 3963 2906 3769 2906 
Q 3419 2906 3187 2673 
Q 2956 2441 2956 1928 
L 2956 0 
L 2394 0 
L 2394 2156 
Q 2394 2531 2256 2718 
Q 2119 2906 1806 2906 
Q 1569 2906 1367 2781 
Q 1166 2656 1075 2415 
Q 984 2175 984 1722 
L 984 0 
L 422 0 
z
" transform="scale(0.015625)"/>
       <path id="ArialMT-41" d="M -9 0 
L 1750 4581 
L 2403 4581 
L 4278 0 
L 3588 0 
L 3053 1388 
L 1138 1388 
L 634 0 
L -9 0 
z
M 1313 1881 
L 2866 1881 
L 2388 3150 
Q 2169 3728 2063 4100 
Q 1975 3659 1816 3225 
L 1313 1881 
z
" transform="scale(0.015625)"/>
       <path id="ArialMT-71" d="M 2538 -1272 
L 2538 353 
Q 2406 169 2170 47 
Q 1934 -75 1669 -75 
Q 1078 -75 651 397 
Q 225 869 225 1691 
Q 225 2191 398 2587 
Q 572 2984 901 3189 
Q 1231 3394 1625 3394 
Q 2241 3394 2594 2875 
L 2594 3319 
L 3100 3319 
L 3100 -1272 
L 2538 -1272 
z
M 803 1669 
Q 803 1028 1072 708 
Q 1341 388 1716 388 
Q 2075 388 2334 692 
Q 2594 997 2594 1619 
Q 2594 2281 2320 2615 
Q 2047 2950 1678 2950 
Q 1313 2950 1058 2639 
Q 803 2328 803 1669 
z
" transform="scale(0.015625)"/>
       <path id="ArialMT-46" d="M 525 0 
L 525 4581 
L 3616 4581 
L 3616 4041 
L 1131 4041 
L 1131 2622 
L 3281 2622 
L 3281 2081 
L 1131 2081 
L 1131 0 
L 525 0 
z
" transform="scale(0.015625)"/>
      </defs>
      <use xlink:href="#ArialMT-49"/>
      <use xlink:href="#ArialMT-6e" x="27.783203"/>
      <use xlink:href="#ArialMT-66" x="83.398438"/>
      <use xlink:href="#ArialMT-6f" x="111.181641"/>
      <use xlink:href="#ArialMT-72" x="166.796875"/>
      <use xlink:href="#ArialMT-6d" x="200.097656"/>
      <use xlink:href="#ArialMT-61" x="283.398438"/>
      <use xlink:href="#ArialMT-74" x="339.013672"/>
      <use xlink:href="#ArialMT-69" x="366.796875"/>
      <use xlink:href="#ArialMT-6f" x="389.013672"/>
      <use xlink:href="#ArialMT-6e" x="444.628906"/>
      <use xlink:href="#ArialMT-20" x="500.244141"/>
      <use xlink:href="#ArialMT-41" x="522.527344"/>
      <use xlink:href="#ArialMT-63" x="589.226562"/>
      <use xlink:href="#ArialMT-71" x="639.226562"/>
      <use xlink:href="#ArialMT-75" x="694.841797"/>
      <use xlink:href="#ArialMT-69" x="750.457031"/>
      <use xlink:href="#ArialMT-73" x="772.673828"/>
      <use xlink:href="#ArialMT-69" x="822.673828"/>
      <use xlink:href="#ArialMT-74" x="844.890625"/>
      <use xlink:href="#ArialMT-69" x="872.673828"/>
      <use xlink:href="#ArialMT-6f" x="894.890625"/>
      <use xlink:href="#ArialMT-6e" x="950.505859"/>
      <use xlink:href="#ArialMT-20" x="1006.121094"/>
      <use xlink:href="#ArialMT-46" x="1033.904297"/>
      <use xlink:href="#ArialMT-75" x="1094.988281"/>
      <use xlink:href="#ArialMT-6e" x="1150.603516"/>
      <use xlink:href="#ArialMT-63" x="1206.21875"/>
      <use xlink:href="#ArialMT-74" x="1256.21875"/>
      <use xlink:href="#ArialMT-69" x="1284.001953"/>
      <use xlink:href="#ArialMT-6f" x="1306.21875"/>
      <use xlink:href="#ArialMT-6e" x="1361.833984"/>
     </g>
    </g>
   </g>
   <g id="line2d_27">
    <path d="M 59.439227 274.116 
L 62.718566 274.116 
L 65.997905 274.116 
L 69.277244 274.116 
L 72.556583 274.116 
L 75.835921 274.116 
L 79.115261 274.116 
L 82.394598 274.116 
L 85.673938 274.116 
L 88.953278 274.116 
L 92.232615 274.116 
L 95.511955 274.116 
L 98.791295 274.116 
L 102.070632 274.116 
L 105.349969 274.116 
L 108.629311 274.116 
L 111.908649 274.116 
L 115.187986 274.116 
L 118.467328 274.115841 
L 121.746666 274.103909 
L 125.026003 273.251476 
L 128.305345 258.404332 
L 131.584682 198.743771 
L 134.86402 112.893543 
L 138.143362 49.668519 
L 141.422694 32.196 
L 144.702037 65.465117 
L 147.981379 143.57916 
L 151.260711 229.779771 
L 154.540053 268.82553 
L 157.819395 273.809353 
L 161.098728 274.066208 
L 164.37807 274.076711 
L 167.657412 274.055501 
L 170.936745 274.016915 
L 174.216087 273.97175 
L 177.495429 273.934253 
L 180.774762 273.916559 
L 184.054104 273.923863 
L 187.333446 273.953444 
L 190.612778 273.996317 
L 193.892121 274.040824 
L 197.171463 274.077051 
L 200.450795 274.100189 
L 203.730137 274.11135 
L 207.00948 274.115138 
L 210.288812 274.115909 
L 213.568154 274.116 
L 216.847496 274.116 
L 220.126829 274.116 
L 223.406181 274.116 
L 226.685504 274.116 
L 229.964846 274.116 
L 233.244188 274.116 
L 236.523511 274.116 
L 239.802872 274.116 
L 243.082195 274.116 
L 246.361537 274.116 
L 249.640879 274.116 
L 252.920222 274.116 
L 256.199564 274.116 
L 259.478887 274.116 
L 262.758248 274.116 
L 266.037571 274.116 
L 269.316913 274.116 
L 272.596255 274.116 
L 275.875578 274.116 
L 279.15494 274.116 
L 282.434262 274.116 
L 285.713605 274.116 
L 288.992947 274.116 
L 292.272289 274.116 
L 295.551631 274.116 
L 298.830954 274.116 
L 302.110315 274.116 
L 305.389638 274.116 
L 308.66898 274.116 
L 311.948322 274.116 
L 315.227645 274.116 
L 318.507007 274.116 
L 321.78633 274.116 
L 325.065672 274.116 
L 328.345014 274.116 
L 331.624356 274.116 
L 334.903698 274.116 
L 338.183021 274.116 
L 341.462363 274.116 
L 344.741705 274.116 
L 348.021048 274.116 
L 351.30039 274.116 
L 354.579713 274.116 
L 357.859055 274.116 
L 361.138397 274.116 
L 364.417739 274.116 
L 367.697081 274.116 
L 370.976423 274.116 
L 374.255766 274.116 
L 377.535088 274.116 
L 380.814431 274.116 
L 384.093773 274.116 
" clip-path="url(#p0efaf9abe6)" style="fill: none; stroke: #ff7f0e; stroke-width: 1.2; stroke-linecap: round"/>
   </g>
   <g id="line2d_28">
    <path d="M 141.422694 274.116 
L 141.422694 271.672364 
L 141.422694 269.228727 
L 141.422694 266.785091 
L 141.422694 264.341454 
L 141.422694 261.897818 
L 141.422694 259.454182 
L 141.422694 257.010545 
L 141.422694 254.566909 
L 141.422694 252.123272 
L 141.422694 249.679636 
L 141.422694 247.236 
L 141.422694 244.792363 
L 141.422694 242.348727 
L 141.422694 239.905091 
L 141.422694 237.461454 
L 141.422694 235.017818 
L 141.422694 232.574181 
L 141.422694 230.130545 
L 141.422694 227.686909 
L 141.422694 225.243272 
L 141.422694 222.799633 
L 141.422694 220.355999 
L 141.422694 217.912366 
L 141.422694 215.468727 
L 141.422694 213.025087 
L 141.422694 210.581454 
L 141.422694 208.13782 
L 141.422694 205.694181 
L 141.422694 203.250542 
L 141.422694 200.806908 
L 141.422694 198.363275 
L 141.422694 195.919635 
L 141.422694 193.475996 
L 141.422694 191.032363 
L 141.422694 188.588729 
L 141.422694 186.14509 
L 141.422694 183.701451 
L 141.422694 181.257817 
L 141.422694 178.814184 
L 141.422694 176.370544 
L 141.422694 173.926905 
L 141.422694 171.483266 
L 141.422694 169.039638 
L 141.422694 166.595999 
L 141.422694 164.15236 
L 141.422694 161.708732 
L 141.422694 159.265092 
L 141.422694 156.821453 
L 141.422694 154.377814 
L 141.422694 151.934186 
L 141.422694 149.490547 
L 141.422694 147.046908 
L 141.422694 144.603268 
L 141.422694 142.15964 
L 141.422694 139.716001 
L 141.422694 137.272362 
L 141.422694 134.828734 
L 141.422694 132.385095 
L 141.422694 129.941456 
L 141.422694 127.497816 
L 141.422694 125.054177 
L 141.422694 122.610549 
L 141.422694 120.16691 
L 141.422694 117.723271 
L 141.422694 115.279643 
L 141.422694 112.836004 
L 141.422694 110.392365 
L 141.422694 107.948725 
L 141.422694 105.505086 
L 141.422694 103.061458 
L 141.422694 100.617819 
L 141.422694 98.17418 
L 141.422694 95.730552 
L 141.422694 93.286913 
L 141.422694 90.843273 
L 141.422694 88.399634 
L 141.422694 85.955995 
L 141.422694 83.512367 
L 141.422694 81.068739 
L 141.422694 78.625089 
L 141.422694 76.181461 
L 141.422694 73.73781 
L 141.422694 71.294182 
L 141.422694 68.850554 
L 141.422694 66.406904 
L 141.422694 63.963276 
L 141.422694 61.519625 
L 141.422694 59.075997 
L 141.422694 56.63237 
L 141.422694 54.188719 
L 141.422694 51.745091 
L 141.422694 49.301463 
L 141.422694 46.857813 
L 141.422694 44.414185 
L 141.422694 41.970557 
L 141.422694 39.526906 
L 141.422694 37.083278 
L 141.422694 34.639628 
L 141.422694 32.196 
" clip-path="url(#p0efaf9abe6)" style="fill: none; stroke: #ff7f0e; stroke-linecap: round"/>
   </g>
   <g id="patch_7">
    <path d="M 43.2065 286.212 
L 43.2065 20.1 
" style="fill: none; stroke: #262626; stroke-linejoin: miter; stroke-linecap: square"/>
   </g>
   <g id="patch_8">
    <path d="M 400.3265 286.212 
L 400.3265 20.1 
" style="fill: none; stroke: #262626; stroke-linejoin: miter; stroke-linecap: square"/>
   </g>
   <g id="patch_9">
    <path d="M 43.2065 286.212 
L 400.3265 286.212 
" style="fill: none; stroke: #262626; stroke-linejoin: miter; stroke-linecap: square"/>
   </g>
   <g id="patch_10">
    <path d="M 43.2065 20.1 
L 400.3265 20.1 
" style="fill: none; stroke: #262626; stroke-linejoin: miter; stroke-linecap: square"/>
   </g>
  </g>
 </g>
 <defs>
  <clipPath id="p0efaf9abe6">
   <rect x="43.2065" y="20.1" width="357.12" height="266.112"/>
  </clipPath>
 </defs>
</svg>