<?xml version="1.0" encoding="utf-8" standalone="no"?>
<!DOCTYPE svg PUBLIC "-//W3C//DTD SVG 1.1//EN"
  "http://www.w3.org/Graphics/SVG/1.1/DTD/svg11.dtd">
<svg xmlns:xlink="http://www.w3.org/1999/xlink" width="402.632875pt" height="309.639375pt" viewBox="0 0 402.632875 309.639375" xmlns="http://www.w3.org/2000/svg" version="1.1">
 <metadata>
  <rdf:RDF xmlns:dc="http://purl.org/dc/elements/1.1/" xmlns:cc="http://creativecommons.org/ns#" xmlns:rdf="http://www.w3.org/1999/02/22-rdf-syntax-ns#">
   <cc:Work>
    <dc:type rdf:resource="http://purl.org/dc/dcmitype/StillImage"/>
    <dc:date>2023-10-14T23:43:16.593132</dc:date>
    <dc:format>image/svg+xml</dc:format>
    <dc:creator>
     <cc:Agent>
      <dc:title>Matplotlib v3.7.1, https://matplotlib.org/</dc:title>
     </cc:Agent>
    </dc:creator>
   </cc:Work>
  </rdf:RDF>
 </metadata>
 <defs>
  <style type="text/css">*{stroke-linejoin: round; stroke-linecap: butt}</style>
 </defs>
 <g id="figure_1">
  <g id="patch_1">
   <path d="M 0 309.639375 
L 402.632875 309.639375 
L 402.632875 0 
L 0 0 
z
" style="fill: #ffffff"/>
  </g>
  <g id="axes_1">
   <g id="patch_2">
    <path d="M 38.312875 273.312 
L 395.432875 273.312 
L 395.432875 7.2 
L 38.312875 7.2 
z
" style="fill: #ffffff"/>
   </g>
   <g id="matplotlib.axis_1">
    <g id="xtick_1">
     <g id="line2d_1">
      <defs>
       <path id="m3f0b019158" d="M 0 0 
L 0 4.8 
" style="stroke: #262626"/>
      </defs>
      <g>
       <use xlink:href="#m3f0b019158" x="54.545602" y="273.312" style="fill: #262626; stroke: #262626"/>
      </g>
     </g>
     <g id="text_1">
      <!-- 0.0 -->
      <g style="fill: #262626" transform="translate(48.429602 287.910875) scale(0.088 -0.088)">
       <defs>
        <path id="ArialMT-30" d="M 266 2259 
Q 266 3072 433 3567 
Q 600 4063 929 4331 
Q 1259 4600 1759 4600 
Q 2128 4600 2406 4451 
Q 2684 4303 2865 4023 
Q 3047 3744 3150 3342 
Q 3253 2941 3253 2259 
Q 3253 1453 3087 958 
Q 2922 463 2592 192 
Q 2263 -78 1759 -78 
Q 1097 -78 719 397 
Q 266 969 266 2259 
z
M 844 2259 
Q 844 1131 1108 757 
Q 1372 384 1759 384 
Q 2147 384 2411 759 
Q 2675 1134 2675 2259 
Q 2675 3391 2411 3762 
Q 2147 4134 1753 4134 
Q 1366 4134 1134 3806 
Q 844 3388 844 2259 
z
" transform="scale(0.015625)"/>
        <path id="ArialMT-2e" d="M 581 0 
L 581 641 
L 1222 641 
L 1222 0 
L 581 0 
z
" transform="scale(0.015625)"/>
       </defs>
       <use xlink:href="#ArialMT-30"/>
       <use xlink:href="#ArialMT-2e" x="55.615234"/>
       <use xlink:href="#ArialMT-30" x="83.398438"/>
      </g>
     </g>
    </g>
    <g id="xtick_2">
     <g id="line2d_2">
      <g>
       <use xlink:href="#m3f0b019158" x="119.476511" y="273.312" style="fill: #262626; stroke: #262626"/>
      </g>
     </g>
     <g id="text_2">
      <!-- 0.2 -->
      <g style="fill: #262626" transform="translate(113.360511 287.910875) scale(0.088 -0.088)">
       <defs>
        <path id="ArialMT-32" d="M 3222 541 
L 3222 0 
L 194 0 
Q 188 203 259 391 
Q 375 700 629 1000 
Q 884 1300 1366 1694 
Q 2113 2306 2375 2664 
Q 2638 3022 2638 3341 
Q 2638 3675 2398 3904 
Q 2159 4134 1775 4134 
Q 1369 4134 1125 3890 
Q 881 3647 878 3216 
L 300 3275 
Q 359 3922 746 4261 
Q 1134 4600 1788 4600 
Q 2447 4600 2831 4234 
Q 3216 3869 3216 3328 
Q 3216 3053 3103 2787 
Q 2991 2522 2730 2228 
Q 2469 1934 1863 1422 
Q 1356 997 1212 845 
Q 1069 694 975 541 
L 3222 541 
z
" transform="scale(0.015625)"/>
       </defs>
       <use xlink:href="#ArialMT-30"/>
       <use xlink:href="#ArialMT-2e" x="55.615234"/>
       <use xlink:href="#ArialMT-32" x="83.398438"/>
      </g>
     </g>
    </g>
    <g id="xtick_3">
     <g id="line2d_3">
      <g>
       <use xlink:href="#m3f0b019158" x="184.40742" y="273.312" style="fill: #262626; stroke: #262626"/>
      </g>
     </g>
     <g id="text_3">
      <!-- 0.4 -->
      <g style="fill: #262626" transform="translate(178.29142 287.910875) scale(0.088 -0.088)">
       <defs>
        <path id="ArialMT-34" d="M 2069 0 
L 2069 1097 
L 81 1097 
L 81 1613 
L 2172 4581 
L 2631 4581 
L 2631 1613 
L 3250 1613 
L 3250 1097 
L 2631 1097 
L 2631 0 
L 2069 0 
z
M 2069 1613 
L 2069 3678 
L 634 1613 
L 2069 1613 
z
" transform="scale(0.015625)"/>
       </defs>
       <use xlink:href="#ArialMT-30"/>
       <use xlink:href="#ArialMT-2e" x="55.615234"/>
       <use xlink:href="#ArialMT-34" x="83.398438"/>
      </g>
     </g>
    </g>
    <g id="xtick_4">
     <g id="line2d_4">
      <g>
       <use xlink:href="#m3f0b019158" x="249.33833" y="273.312" style="fill: #262626; stroke: #262626"/>
      </g>
     </g>
     <g id="text_4">
      <!-- 0.6 -->
      <g style="fill: #262626" transform="translate(243.22233 287.910875) scale(0.088 -0.088)">
       <defs>
        <path id="ArialMT-36" d="M 3184 3459 
L 2625 3416 
Q 2550 3747 2413 3897 
Q 2184 4138 1850 4138 
Q 1581 4138 1378 3988 
Q 1113 3794 959 3422 
Q 806 3050 800 2363 
Q 1003 2672 1297 2822 
Q 1591 2972 1913 2972 
Q 2475 2972 2870 2558 
Q 3266 2144 3266 1488 
Q 3266 1056 3080 686 
Q 2894 316 2569 119 
Q 2244 -78 1831 -78 
Q 1128 -78 684 439 
Q 241 956 241 2144 
Q 241 3472 731 4075 
Q 1159 4600 1884 4600 
Q 2425 4600 2770 4297 
Q 3116 3994 3184 3459 
z
M 888 1484 
Q 888 1194 1011 928 
Q 1134 663 1356 523 
Q 1578 384 1822 384 
Q 2178 384 2434 671 
Q 2691 959 2691 1453 
Q 2691 1928 2437 2201 
Q 2184 2475 1800 2475 
Q 1419 2475 1153 2201 
Q 888 1928 888 1484 
z
" transform="scale(0.015625)"/>
       </defs>
       <use xlink:href="#ArialMT-30"/>
       <use xlink:href="#ArialMT-2e" x="55.615234"/>
       <use xlink:href="#ArialMT-36" x="83.398438"/>
      </g>
     </g>
    </g>
    <g id="xtick_5">
     <g id="line2d_5">
      <g>
       <use xlink:href="#m3f0b019158" x="314.269239" y="273.312" style="fill: #262626; stroke: #262626"/>
      </g>
     </g>
     <g id="text_5">
      <!-- 0.8 -->
      <g style="fill: #262626" transform="translate(308.153239 287.910875) scale(0.088 -0.088)">
       <defs>
        <path id="ArialMT-38" d="M 1131 2484 
Q 781 2613 612 2850 
Q 444 3088 444 3419 
Q 444 3919 803 4259 
Q 1163 4600 1759 4600 
Q 2359 4600 2725 4251 
Q 3091 3903 3091 3403 
Q 3091 3084 2923 2848 
Q 2756 2613 2416 2484 
Q 2838 2347 3058 2040 
Q 3278 1734 3278 1309 
Q 3278 722 2862 322 
Q 2447 -78 1769 -78 
Q 1091 -78 675 323 
Q 259 725 259 1325 
Q 259 1772 486 2073 
Q 713 2375 1131 2484 
z
M 1019 3438 
Q 1019 3113 1228 2906 
Q 1438 2700 1772 2700 
Q 2097 2700 2305 2904 
Q 2513 3109 2513 3406 
Q 2513 3716 2298 3927 
Q 2084 4138 1766 4138 
Q 1444 4138 1231 3931 
Q 1019 3725 1019 3438 
z
M 838 1322 
Q 838 1081 952 856 
Q 1066 631 1291 507 
Q 1516 384 1775 384 
Q 2178 384 2440 643 
Q 2703 903 2703 1303 
Q 2703 1709 2433 1975 
Q 2163 2241 1756 2241 
Q 1359 2241 1098 1978 
Q 838 1716 838 1322 
z
" transform="scale(0.015625)"/>
       </defs>
       <use xlink:href="#ArialMT-30"/>
       <use xlink:href="#ArialMT-2e" x="55.615234"/>
       <use xlink:href="#ArialMT-38" x="83.398438"/>
      </g>
     </g>
    </g>
    <g id="xtick_6">
     <g id="line2d_6">
      <g>
       <use xlink:href="#m3f0b019158" x="379.200148" y="273.312" style="fill: #262626; stroke: #262626"/>
      </g>
     </g>
     <g id="text_6">
      <!-- 1.0 -->
      <g style="fill: #262626" transform="translate(373.084148 287.910875) scale(0.088 -0.088)">
       <defs>
        <path id="ArialMT-31" d="M 2384 0 
L 1822 0 
L 1822 3584 
Q 1619 3391 1289 3197 
Q 959 3003 697 2906 
L 697 3450 
Q 1169 3672 1522 3987 
Q 1875 4303 2022 4600 
L 2384 4600 
L 2384 0 
z
" transform="scale(0.015625)"/>
       </defs>
       <use xlink:href="#ArialMT-31"/>
       <use xlink:href="#ArialMT-2e" x="55.615234"/>
       <use xlink:href="#ArialMT-30" x="83.398438"/>
      </g>
     </g>
    </g>
    <g id="text_7">
     <!-- $x$ -->
     <g style="fill: #262626" transform="translate(213.992875 300.531375) scale(0.096 -0.096)">
      <defs>
       <path id="DejaVuSans-Oblique-78" d="M 3841 3500 
L 2234 1784 
L 3219 0 
L 2559 0 
L 1819 1388 
L 531 0 
L -166 0 
L 1556 1844 
L 641 3500 
L 1300 3500 
L 1972 2234 
L 3144 3500 
L 3841 3500 
z
" transform="scale(0.015625)"/>
      </defs>
      <use xlink:href="#DejaVuSans-Oblique-78" transform="translate(0 0.3125)"/>
     </g>
    </g>
   </g>
   <g id="matplotlib.axis_2">
    <g id="ytick_1">
     <g id="line2d_7">
      <defs>
       <path id="m9729a5c52b" d="M 0 0 
L -4.8 0 
" style="stroke: #262626"/>
      </defs>
      <g>
       <use xlink:href="#m9729a5c52b" x="38.312875" y="273.105025" style="fill: #262626; stroke: #262626"/>
      </g>
     </g>
     <g id="text_8">
      <!-- −2 -->
      <g style="fill: #262626" transform="translate(19.9795 276.254463) scale(0.088 -0.088)">
       <defs>
        <path id="ArialMT-2212" d="M 3381 1997 
L 356 1997 
L 356 2522 
L 3381 2522 
L 3381 1997 
z
" transform="scale(0.015625)"/>
       </defs>
       <use xlink:href="#ArialMT-2212"/>
       <use xlink:href="#ArialMT-32" x="58.398438"/>
      </g>
     </g>
    </g>
    <g id="ytick_2">
     <g id="line2d_8">
      <g>
       <use xlink:href="#m9729a5c52b" x="38.312875" y="222.501239" style="fill: #262626; stroke: #262626"/>
      </g>
     </g>
     <g id="text_9">
      <!-- −1 -->
      <g style="fill: #262626" transform="translate(19.9795 225.650676) scale(0.088 -0.088)">
       <use xlink:href="#ArialMT-2212"/>
       <use xlink:href="#ArialMT-31" x="58.398438"/>
      </g>
     </g>
    </g>
    <g id="ytick_3">
     <g id="line2d_9">
      <g>
       <use xlink:href="#m9729a5c52b" x="38.312875" y="171.897452" style="fill: #262626; stroke: #262626"/>
      </g>
     </g>
     <g id="text_10">
      <!-- 0 -->
      <g style="fill: #262626" transform="translate(25.11925 175.04689) scale(0.088 -0.088)">
       <use xlink:href="#ArialMT-30"/>
      </g>
     </g>
    </g>
    <g id="ytick_4">
     <g id="line2d_10">
      <g>
       <use xlink:href="#m9729a5c52b" x="38.312875" y="121.293666" style="fill: #262626; stroke: #262626"/>
      </g>
     </g>
     <g id="text_11">
      <!-- 1 -->
      <g style="fill: #262626" transform="translate(25.11925 124.443103) scale(0.088 -0.088)">
       <use xlink:href="#ArialMT-31"/>
      </g>
     </g>
    </g>
    <g id="ytick_5">
     <g id="line2d_11">
      <g>
       <use xlink:href="#m9729a5c52b" x="38.312875" y="70.689879" style="fill: #262626; stroke: #262626"/>
      </g>
     </g>
     <g id="text_12">
      <!-- 2 -->
      <g style="fill: #262626" transform="translate(25.11925 73.839317) scale(0.088 -0.088)">
       <use xlink:href="#ArialMT-32"/>
      </g>
     </g>
    </g>
    <g id="ytick_6">
     <g id="line2d_12">
      <g>
       <use xlink:href="#m9729a5c52b" x="38.312875" y="20.086093" style="fill: #262626; stroke: #262626"/>
      </g>
     </g>
     <g id="text_13">
      <!-- 3 -->
      <g style="fill: #262626" transform="translate(25.11925 23.23553) scale(0.088 -0.088)">
       <defs>
        <path id="ArialMT-33" d="M 269 1209 
L 831 1284 
Q 928 806 1161 595 
Q 1394 384 1728 384 
Q 2125 384 2398 659 
Q 2672 934 2672 1341 
Q 2672 1728 2419 1979 
Q 2166 2231 1775 2231 
Q 1616 2231 1378 2169 
L 1441 2663 
Q 1497 2656 1531 2656 
Q 1891 2656 2178 2843 
Q 2466 3031 2466 3422 
Q 2466 3731 2256 3934 
Q 2047 4138 1716 4138 
Q 1388 4138 1169 3931 
Q 950 3725 888 3313 
L 325 3413 
Q 428 3978 793 4289 
Q 1159 4600 1703 4600 
Q 2078 4600 2393 4439 
Q 2709 4278 2876 4000 
Q 3044 3722 3044 3409 
Q 3044 3113 2884 2869 
Q 2725 2625 2413 2481 
Q 2819 2388 3044 2092 
Q 3269 1797 3269 1353 
Q 3269 753 2831 336 
Q 2394 -81 1725 -81 
Q 1122 -81 723 278 
Q 325 638 269 1209 
z
" transform="scale(0.015625)"/>
       </defs>
       <use xlink:href="#ArialMT-33"/>
      </g>
     </g>
    </g>
    <g id="text_14">
     <!-- $y$ -->
     <g style="fill: #262626" transform="translate(13.9635 143.136) rotate(-90) scale(0.096 -0.096)">
      <defs>
       <path id="DejaVuSans-Oblique-79" d="M 1588 -325 
Q 1188 -997 936 -1164 
Q 684 -1331 294 -1331 
L -159 -1331 
L -63 -850 
L 269 -850 
Q 509 -850 678 -719 
Q 847 -588 1056 -206 
L 1234 128 
L 459 3500 
L 1069 3500 
L 1650 819 
L 3256 3500 
L 3859 3500 
L 1588 -325 
z
" transform="scale(0.015625)"/>
      </defs>
      <use xlink:href="#DejaVuSans-Oblique-79" transform="translate(0 0.3125)"/>
     </g>
    </g>
   </g>
   <g id="line2d_13">
    <path d="M 54.545602 107.382747 
L 57.824941 103.843948 
L 61.10428 102.236906 
L 64.383619 102.407244 
L 67.662958 104.631037 
L 70.942296 108.258652 
L 74.221636 113.431458 
L 77.500973 119.641097 
L 80.780313 126.456048 
L 84.059653 133.630548 
L 87.33899 140.566146 
L 90.61833 147.167172 
L 93.89767 153.234989 
L 97.177007 158.551113 
L 100.456344 163.134434 
L 103.735686 166.884069 
L 107.015024 170.307794 
L 110.294361 173.549194 
L 113.573703 176.586801 
L 116.853041 179.83858 
L 120.132378 183.441637 
L 123.41172 187.619577 
L 126.691057 192.190683 
L 129.970395 197.329236 
L 133.249737 202.777227 
L 136.529069 208.528964 
L 139.808412 214.025803 
L 143.087754 219.35418 
L 146.367086 223.972678 
L 149.646428 227.898416 
L 152.92577 230.961895 
L 156.205103 233.105927 
L 159.484445 234.376516 
L 162.763787 234.783217 
L 166.04312 234.670694 
L 169.322462 234.130905 
L 172.601804 233.33525 
L 175.881137 232.476544 
L 179.160479 231.254927 
L 182.439821 230.015682 
L 185.719153 228.31755 
L 188.998496 226.037046 
L 192.277838 223.023968 
L 195.55717 218.991971 
L 198.836512 213.768218 
L 202.115855 207.394066 
L 205.395187 199.678528 
L 208.674529 190.871091 
L 211.953871 181.373959 
L 215.233204 171.348559 
L 218.512556 161.210344 
L 221.791879 151.267011 
L 225.071221 141.794957 
L 228.350563 132.951015 
L 231.629886 125.490209 
L 234.909247 118.957615 
L 238.18857 113.954248 
L 241.467912 109.934289 
L 244.747254 107.04443 
L 248.026597 104.756518 
L 251.305939 103.542592 
L 254.585262 102.620823 
L 257.864623 102.239361 
L 261.143946 102.285907 
L 264.423288 102.8048 
L 267.70263 103.375614 
L 270.981953 105.020425 
L 274.261315 107.002667 
L 277.540637 109.162571 
L 280.81998 112.310492 
L 284.099322 115.950503 
L 287.378664 120.139298 
L 290.658006 124.742983 
L 293.937329 129.592357 
L 297.21669 135.056011 
L 300.496013 140.193245 
L 303.775355 145.394238 
L 307.054697 150.521976 
L 310.33402 155.274699 
L 313.613382 160.094119 
L 316.892705 163.897805 
L 320.172047 167.595052 
L 323.451389 171.029694 
L 326.730731 173.267775 
L 330.010073 175.155129 
L 333.289396 175.963337 
L 336.568738 176.226208 
L 339.84808 175.5116 
L 343.127423 173.94122 
L 346.406765 171.618636 
L 349.686088 168.498845 
L 352.96543 164.600169 
L 356.244772 160.392833 
L 359.524114 155.962227 
L 362.803456 151.347983 
L 366.082798 146.700323 
L 369.362141 141.956747 
L 372.641463 137.696939 
L 375.920806 133.568155 
L 379.200148 129.86004 
" clip-path="url(#p9002df041f)" style="fill: none; stroke: #ff0000; stroke-width: 0.5; stroke-linecap: round"/>
   </g>
   <g id="line2d_14">
    <path d="M 54.545602 54.067716 
L 57.824941 64.543775 
L 61.10428 75.45102 
L 64.383619 86.511519 
L 67.662958 97.336259 
L 70.942296 107.694359 
L 74.221636 117.276156 
L 77.500973 125.801595 
L 80.780313 133.322809 
L 84.059653 139.938048 
L 87.33899 145.407856 
L 90.61833 150.19634 
L 93.89767 154.360056 
L 97.177007 157.894557 
L 100.456344 161.319437 
L 103.735686 164.737588 
L 107.015024 168.201413 
L 110.294361 171.874852 
L 113.573703 175.722215 
L 116.853041 179.861097 
L 120.132378 184.223409 
L 123.41172 188.90745 
L 126.691057 193.715802 
L 129.970395 198.822718 
L 133.249737 203.865199 
L 136.529069 209.18073 
L 139.808412 214.231015 
L 143.087754 219.259568 
L 146.367086 224.147558 
L 149.646428 228.607662 
L 152.92577 232.498647 
L 156.205103 235.731348 
L 159.484445 238.207478 
L 162.763787 239.703083 
L 166.04312 240.204078 
L 169.322462 239.633053 
L 172.601804 238.129841 
L 175.881137 235.982026 
L 179.160479 233.130461 
L 182.439821 229.959834 
L 185.719153 226.824346 
L 188.998496 223.537455 
L 192.277838 220.678455 
L 195.55717 218.216302 
L 198.836512 216.035013 
L 202.115855 214.177803 
L 205.395187 212.276736 
L 208.674529 210.286112 
L 211.953871 207.719797 
L 215.233204 204.298739 
L 218.512556 199.871014 
L 221.791879 194.232781 
L 225.071221 187.619735 
L 228.350563 179.790829 
L 231.629886 170.61443 
L 234.909247 160.900134 
L 238.18857 150.56761 
L 241.467912 140.490137 
L 244.747254 130.644234 
L 248.026597 121.05051 
L 251.305939 112.752809 
L 254.585262 105.791588 
L 257.864623 100.186962 
L 261.143946 96.4064 
L 264.423288 94.24301 
L 267.70263 93.849882 
L 270.981953 94.958108 
L 274.261315 97.29954 
L 277.540637 100.831594 
L 280.81998 105.48508 
L 284.099322 110.837189 
L 287.378664 116.675265 
L 290.658006 122.56709 
L 293.937329 128.551495 
L 297.21669 134.137768 
L 300.496013 139.674334 
L 303.775355 145.220322 
L 307.054697 150.532397 
L 310.33402 155.224396 
L 313.613382 159.87766 
L 316.892705 163.89545 
L 320.172047 167.52331 
L 323.451389 170.948696 
L 326.730731 173.295684 
L 330.010073 175.423688 
L 333.289396 176.124637 
L 336.568738 176.315682 
L 339.84808 175.407824 
L 343.127423 173.355004 
L 346.406765 170.802238 
L 349.686088 167.224782 
L 352.96543 163.490852 
L 356.244772 159.113879 
L 359.524114 154.737616 
L 362.803456 150.658072 
L 366.082798 146.625524 
L 369.362141 143.210035 
L 372.641463 140.388684 
L 375.920806 138.202843 
L 379.200148 136.470037 
" clip-path="url(#p9002df041f)" style="fill: none; stroke: #ff0000; stroke-width: 0.5; stroke-linecap: round"/>
   </g>
   <g id="line2d_15">
    <path d="M 54.545602 19.296 
L 57.824941 24.005575 
L 61.10428 30.003608 
L 64.383619 37.093572 
L 67.662958 45.290381 
L 70.942296 53.937005 
L 74.221636 63.472546 
L 77.500973 73.207802 
L 80.780313 83.090371 
L 84.059653 93.31881 
L 87.33899 103.332608 
L 90.61833 113.229118 
L 93.89767 122.971427 
L 97.177007 132.530485 
L 100.456344 141.510531 
L 103.735686 150.255179 
L 107.015024 158.519633 
L 110.294361 166.196406 
L 113.573703 173.410784 
L 116.853041 179.88587 
L 120.132378 185.969642 
L 123.41172 191.458025 
L 126.691057 196.485062 
L 129.970395 201.198356 
L 133.249737 205.676799 
L 136.529069 210.09187 
L 139.808412 214.587068 
L 143.087754 219.362321 
L 146.367086 224.235113 
L 149.646428 229.713614 
L 152.92577 235.292488 
L 156.205103 240.969757 
L 159.484445 246.544553 
L 162.763787 251.647366 
L 166.04312 256.09462 
L 169.322462 259.352024 
L 172.601804 261.215964 
L 175.881137 261.216 
L 179.160479 259.391132 
L 182.439821 255.374757 
L 185.719153 249.412823 
L 188.998496 241.476102 
L 192.277838 231.961524 
L 195.55717 221.222087 
L 198.836512 209.610328 
L 202.115855 197.47831 
L 205.395187 185.39127 
L 208.674529 173.790733 
L 211.953871 162.760802 
L 215.233204 152.555319 
L 218.512556 143.513512 
L 221.791879 135.237911 
L 225.071221 128.419445 
L 228.350563 122.928403 
L 231.629886 117.767993 
L 234.909247 113.909083 
L 238.18857 110.501079 
L 241.467912 107.861174 
L 244.747254 105.83875 
L 248.026597 104.286319 
L 251.305939 103.125714 
L 254.585262 102.623422 
L 257.864623 102.371707 
L 261.143946 102.465964 
L 264.423288 103.278896 
L 267.70263 104.25822 
L 270.981953 105.827101 
L 274.261315 107.867551 
L 277.540637 110.442106 
L 280.81998 113.503323 
L 284.099322 116.93837 
L 287.378664 120.829783 
L 290.658006 125.350781 
L 293.937329 130.056855 
L 297.21669 135.036352 
L 300.496013 140.066443 
L 303.775355 145.345507 
L 307.054697 150.236486 
L 310.33402 155.18824 
L 313.613382 159.712149 
L 316.892705 164.051237 
L 320.172047 167.449587 
L 323.451389 170.47351 
L 326.730731 172.834535 
L 330.010073 174.384348 
L 333.289396 175.569967 
L 336.568738 175.669473 
L 339.84808 175.565982 
L 343.127423 174.430584 
L 346.406765 172.599275 
L 349.686088 170.000788 
L 352.96543 166.794004 
L 356.244772 162.689283 
L 359.524114 157.779172 
L 362.803456 152.368866 
L 366.082798 146.21388 
L 369.362141 139.486571 
L 372.641463 132.407305 
L 375.920806 125.225159 
L 379.200148 117.989861 
" clip-path="url(#p9002df041f)" style="fill: none; stroke: #ff0000; stroke-width: 0.5; stroke-linecap: round"/>
   </g>
   <g id="line2d_16">
    <path d="M 54.545602 225.183443 
L 57.824941 218.658236 
L 61.10428 211.720231 
L 64.383619 204.696253 
L 67.662958 197.77399 
L 70.942296 190.824536 
L 74.221636 184.551966 
L 77.500973 179.073936 
L 80.780313 174.350186 
L 84.059653 170.451062 
L 87.33899 167.579775 
L 90.61833 165.781503 
L 93.89767 164.872733 
L 97.177007 164.860817 
L 100.456344 165.804844 
L 103.735686 167.521756 
L 107.015024 169.75343 
L 110.294361 172.640611 
L 113.573703 176.009408 
L 116.853041 179.895447 
L 120.132378 184.122363 
L 123.41172 188.695049 
L 126.691057 193.568757 
L 129.970395 198.59261 
L 133.249737 203.789055 
L 136.529069 209.03914 
L 139.808412 214.28458 
L 143.087754 219.353218 
L 146.367086 224.028677 
L 149.646428 228.421235 
L 152.92577 232.298539 
L 156.205103 235.745615 
L 159.484445 238.476537 
L 162.763787 240.453169 
L 166.04312 241.952961 
L 169.322462 242.70444 
L 172.601804 242.614828 
L 175.881137 241.887237 
L 179.160479 240.353513 
L 182.439821 237.829914 
L 185.719153 234.591072 
L 188.998496 230.453263 
L 192.277838 225.423341 
L 195.55717 219.530334 
L 198.836512 212.884411 
L 202.115855 205.412813 
L 205.395187 197.446027 
L 208.674529 188.999721 
L 211.953871 180.24636 
L 215.233204 171.432016 
L 218.512556 162.573752 
L 221.791879 154.02154 
L 225.071221 146.032835 
L 228.350563 138.394907 
L 231.629886 131.32872 
L 234.909247 124.983985 
L 238.18857 119.63697 
L 241.467912 114.83087 
L 244.747254 110.777938 
L 248.026597 107.64774 
L 251.305939 105.004228 
L 254.585262 103.139528 
L 257.864623 102.002389 
L 261.143946 101.497479 
L 264.423288 101.420686 
L 267.70263 102.085461 
L 270.981953 103.296378 
L 274.261315 105.175091 
L 277.540637 108.07316 
L 280.81998 111.09814 
L 284.099322 115.1016 
L 287.378664 119.360926 
L 290.658006 123.988831 
L 293.937329 129.248864 
L 297.21669 134.5268 
L 300.496013 140.023561 
L 303.775355 145.329449 
L 307.054697 150.34085 
L 310.33402 155.302486 
L 313.613382 159.817177 
L 316.892705 164.406026 
L 320.172047 167.616959 
L 323.451389 170.608982 
L 326.730731 173.041205 
L 330.010073 174.546628 
L 333.289396 175.882712 
L 336.568738 176.033828 
L 339.84808 175.348862 
L 343.127423 173.857978 
L 346.406765 171.443266 
L 349.686088 168.419108 
L 352.96543 164.089856 
L 356.244772 159.678726 
L 359.524114 155.189524 
L 362.803456 150.595891 
L 366.082798 146.516395 
L 369.362141 143.329556 
L 372.641463 141.173724 
L 375.920806 140.308844 
L 379.200148 141.006644 
" clip-path="url(#p9002df041f)" style="fill: none; stroke: #ff0000; stroke-width: 0.5; stroke-linecap: round"/>
   </g>
   <g id="line2d_17">
    <path d="M 54.545602 118.839874 
L 57.824941 115.488099 
L 61.10428 113.152078 
L 64.383619 111.920657 
L 67.662958 112.019089 
L 70.942296 113.146106 
L 74.221636 115.62121 
L 77.500973 118.970524 
L 80.780313 123.250216 
L 84.059653 128.060243 
L 87.33899 133.29747 
L 90.61833 138.79313 
L 93.89767 144.264123 
L 97.177007 149.669181 
L 100.456344 155.032749 
L 103.735686 160.212394 
L 107.015024 165.269184 
L 110.294361 170.166953 
L 113.573703 175.024757 
L 116.853041 179.854258 
L 120.132378 184.706756 
L 123.41172 189.556315 
L 126.691057 194.518123 
L 129.970395 199.466271 
L 133.249737 204.400011 
L 136.529069 209.411287 
L 139.808412 214.374285 
L 143.087754 219.292315 
L 146.367086 224.176285 
L 149.646428 228.946631 
L 152.92577 233.490851 
L 156.205103 237.901712 
L 159.484445 241.842609 
L 162.763787 245.238838 
L 166.04312 248.021947 
L 169.322462 250.030665 
L 172.601804 250.943319 
L 175.881137 250.684986 
L 179.160479 248.957946 
L 182.439821 245.959117 
L 185.719153 241.515536 
L 188.998496 235.620309 
L 192.277838 228.512241 
L 195.55717 220.327394 
L 198.836512 211.358044 
L 202.115855 201.89162 
L 205.395187 192.231717 
L 208.674529 182.604092 
L 211.953871 173.346479 
L 215.233204 164.487109 
L 218.512556 156.309545 
L 221.791879 148.806423 
L 225.071221 142.294127 
L 228.350563 135.951443 
L 231.629886 130.405123 
L 234.909247 125.433592 
L 238.18857 120.765604 
L 241.467912 116.885845 
L 244.747254 112.900133 
L 248.026597 109.197282 
L 251.305939 106.283866 
L 254.585262 103.639859 
L 257.864623 101.439646 
L 261.143946 100.215748 
L 264.423288 99.640845 
L 267.70263 99.798376 
L 270.981953 100.916308 
L 274.261315 103.121159 
L 277.540637 105.850429 
L 280.81998 109.558498 
L 284.099322 113.749911 
L 287.378664 118.791662 
L 290.658006 123.537532 
L 293.937329 129.007931 
L 297.21669 134.622409 
L 300.496013 139.951681 
L 303.775355 145.22117 
L 307.054697 150.691124 
L 310.33402 155.22198 
L 313.613382 160.045271 
L 316.892705 163.697289 
L 320.172047 167.530258 
L 323.451389 170.742454 
L 326.730731 173.307478 
L 330.010073 175.254705 
L 333.289396 175.864929 
L 336.568738 176.150283 
L 339.84808 175.549907 
L 343.127423 173.609637 
L 346.406765 171.36824 
L 349.686088 168.068115 
L 352.96543 164.500473 
L 356.244772 160.233226 
L 359.524114 155.646254 
L 362.803456 151.059272 
L 366.082798 146.577398 
L 369.362141 142.308234 
L 372.641463 138.580737 
L 375.920806 135.368956 
L 379.200148 132.908345 
" clip-path="url(#p9002df041f)" style="fill: none; stroke: #ff0000; stroke-width: 0.5; stroke-linecap: round"/>
   </g>
   <g id="line2d_18">
    <path d="M 54.545602 175.721744 
L 57.824941 176.444968 
L 61.10428 177.57552 
L 64.383619 178.720243 
L 67.662958 179.730164 
L 70.942296 180.650656 
L 74.221636 181.238056 
L 77.500973 181.418228 
L 80.780313 181.155283 
L 84.059653 180.153746 
L 87.33899 179.308288 
L 90.61833 178.20419 
L 93.89767 176.712425 
L 97.177007 175.562008 
L 100.456344 174.617635 
L 103.735686 174.393811 
L 107.015024 174.584473 
L 110.294361 175.518173 
L 113.573703 177.327167 
L 116.853041 179.850073 
L 120.132378 183.167293 
L 123.41172 187.167934 
L 126.691057 192.006181 
L 129.970395 197.184095 
L 133.249737 202.871424 
L 136.529069 208.41046 
L 139.808412 214.030789 
L 143.087754 219.241606 
L 146.367086 223.949616 
L 149.646428 227.737338 
L 152.92577 230.712628 
L 156.205103 232.697283 
L 159.484445 233.719161 
L 162.763787 233.670581 
L 166.04312 232.830148 
L 169.322462 231.60844 
L 172.601804 229.878269 
L 175.881137 227.957805 
L 179.160479 226.104229 
L 182.439821 224.380254 
L 185.719153 222.808326 
L 188.998496 221.332851 
L 192.277838 219.775245 
L 195.55717 218.109995 
L 198.836512 215.903702 
L 202.115855 212.977887 
L 205.395187 208.940126 
L 208.674529 204.035893 
L 211.953871 197.790066 
L 215.233204 190.47571 
L 218.512556 181.698524 
L 221.791879 172.407741 
L 225.071221 162.586715 
L 228.350563 152.445254 
L 231.629886 142.601452 
L 234.909247 133.388928 
L 238.18857 125.180422 
L 241.467912 118.32381 
L 244.747254 112.118944 
L 248.026597 107.861253 
L 251.305939 104.747397 
L 254.585262 102.971108 
L 257.864623 102.147493 
L 261.143946 102.24467 
L 264.423288 102.994942 
L 267.70263 104.591549 
L 270.981953 106.325158 
L 274.261315 108.591486 
L 277.540637 111.507315 
L 280.81998 114.571487 
L 284.099322 117.757919 
L 287.378664 121.710906 
L 290.658006 125.751646 
L 293.937329 130.302849 
L 297.21669 135.324959 
L 300.496013 140.422284 
L 303.775355 145.395082 
L 307.054697 150.352285 
L 310.33402 155.296736 
L 313.613382 159.820502 
L 316.892705 164.18771 
L 320.172047 167.498755 
L 323.451389 170.351692 
L 326.730731 172.904187 
L 330.010073 174.578274 
L 333.289396 175.532309 
L 336.568738 175.954516 
L 339.84808 175.556764 
L 343.127423 174.545812 
L 346.406765 172.958095 
L 349.686088 170.478715 
L 352.96543 167.484359 
L 356.244772 163.4299 
L 359.524114 158.60734 
L 362.803456 152.901047 
L 366.082798 146.119476 
L 369.362141 138.619034 
L 372.641463 130.493851 
L 375.920806 121.929539 
L 379.200148 113.105507 
" clip-path="url(#p9002df041f)" style="fill: none; stroke: #ff0000; stroke-width: 0.5; stroke-linecap: round"/>
   </g>
   <g id="line2d_19">
    <path d="M 54.545602 240.588778 
L 57.824941 234.537715 
L 61.10428 228.373977 
L 64.383619 222.145222 
L 67.662958 216.216717 
L 70.942296 210.410845 
L 74.221636 204.992928 
L 77.500973 200.004434 
L 80.780313 195.243848 
L 84.059653 191.234271 
L 87.33899 187.375958 
L 90.61833 184.088942 
L 93.89767 181.183144 
L 97.177007 178.943059 
L 100.456344 177.171346 
L 103.735686 176.098585 
L 107.015024 175.688593 
L 110.294361 176.192166 
L 113.573703 177.559017 
L 116.853041 179.7778 
L 120.132378 182.995717 
L 123.41172 187.020723 
L 126.691057 191.69567 
L 129.970395 197.014536 
L 133.249737 202.616707 
L 136.529069 208.41496 
L 139.808412 214.006536 
L 143.087754 219.280485 
L 146.367086 224.002219 
L 149.646428 228.015017 
L 152.92577 231.167981 
L 156.205103 233.633036 
L 159.484445 235.151461 
L 162.763787 236.054132 
L 166.04312 236.243231 
L 169.322462 235.787124 
L 172.601804 235.097966 
L 175.881137 233.893788 
L 179.160479 232.414875 
L 182.439821 230.556702 
L 185.719153 228.58533 
L 188.998496 225.860742 
L 192.277838 222.704948 
L 195.55717 218.824212 
L 198.836512 214.181555 
L 202.115855 208.631796 
L 205.395187 202.273645 
L 208.674529 195.150667 
L 211.953871 187.33065 
L 215.233204 179.16597 
L 218.512556 170.581769 
L 221.791879 161.505101 
L 225.071221 153.38109 
L 228.350563 145.539188 
L 231.629886 137.887932 
L 234.909247 130.69871 
L 238.18857 124.432007 
L 241.467912 118.856282 
L 244.747254 113.965504 
L 248.026597 109.827219 
L 251.305939 106.353685 
L 254.585262 103.667608 
L 257.864623 101.67347 
L 261.143946 100.607863 
L 264.423288 100.218566 
L 267.70263 100.628174 
L 270.981953 101.837673 
L 274.261315 104.210612 
L 277.540637 106.751808 
L 280.81998 110.486879 
L 284.099322 114.705299 
L 287.378664 119.293954 
L 290.658006 124.309678 
L 293.937329 129.401445 
L 297.21669 134.968821 
L 300.496013 139.892042 
L 303.775355 145.296699 
L 307.054697 150.377375 
L 310.33402 155.066071 
L 313.613382 159.931185 
L 316.892705 163.86437 
L 320.172047 167.311644 
L 323.451389 170.680102 
L 326.730731 173.20867 
L 330.010073 175.040337 
L 333.289396 175.777087 
L 336.568738 176.047315 
L 339.84808 175.457308 
L 343.127423 173.648756 
L 346.406765 171.590906 
L 349.686088 168.494324 
L 352.96543 164.887856 
L 356.244772 160.846553 
L 359.524114 156.264489 
L 362.803456 151.334711 
L 366.082798 146.393937 
L 369.362141 141.249815 
L 372.641463 136.196879 
L 375.920806 131.139286 
L 379.200148 126.43676 
" clip-path="url(#p9002df041f)" style="fill: none; stroke: #ff0000; stroke-width: 0.5; stroke-linecap: round"/>
   </g>
   <g id="line2d_20">
    <path d="M 54.545602 149.465949 
L 57.824941 150.307663 
L 61.10428 151.326583 
L 64.383619 152.494027 
L 67.662958 153.681388 
L 70.942296 155.182963 
L 74.221636 156.744526 
L 77.500973 158.240008 
L 80.780313 159.986101 
L 84.059653 161.664115 
L 87.33899 163.398055 
L 90.61833 165.041356 
L 93.89767 166.653846 
L 97.177007 168.125595 
L 100.456344 169.524361 
L 103.735686 171.034086 
L 107.015024 172.610137 
L 110.294361 174.568033 
L 113.573703 176.895876 
L 116.853041 179.770649 
L 120.132378 183.255545 
L 123.41172 187.481364 
L 126.691057 192.091091 
L 129.970395 197.395798 
L 133.249737 202.867198 
L 136.529069 208.519707 
L 139.808412 214.022724 
L 143.087754 219.29927 
L 146.367086 224.120442 
L 149.646428 228.304375 
L 152.92577 231.815606 
L 156.205103 234.737419 
L 159.484445 236.977705 
L 162.763787 238.681839 
L 166.04312 239.602239 
L 169.322462 240.016921 
L 172.601804 239.891235 
L 175.881137 239.120096 
L 179.160479 237.743939 
L 182.439821 235.530673 
L 185.719153 232.549301 
L 188.998496 228.930078 
L 192.277838 224.426396 
L 195.55717 219.280539 
L 198.836512 213.572124 
L 202.115855 207.444735 
L 205.395187 201.109339 
L 208.674529 194.561857 
L 211.953871 187.93712 
L 215.233204 181.478618 
L 218.512556 174.901836 
L 221.791879 168.876082 
L 225.071221 162.379466 
L 228.350563 155.682431 
L 231.629886 149.633969 
L 234.909247 142.80192 
L 238.18857 136.081608 
L 241.467912 129.278784 
L 244.747254 122.673291 
L 248.026597 116.275055 
L 251.305939 110.255004 
L 254.585262 105.097556 
L 257.864623 100.723016 
L 261.143946 97.733785 
L 264.423288 95.690374 
L 267.70263 95.265859 
L 270.981953 96.417452 
L 274.261315 98.481132 
L 277.540637 101.877276 
L 280.81998 106.091334 
L 284.099322 111.173503 
L 287.378664 116.774149 
L 290.658006 122.488138 
L 293.937329 128.271919 
L 297.21669 134.343833 
L 300.496013 139.946126 
L 303.775355 145.264266 
L 307.054697 150.745232 
L 310.33402 155.583954 
L 313.613382 159.870848 
L 316.892705 163.969263 
L 320.172047 167.753544 
L 323.451389 170.852625 
L 326.730731 173.608093 
L 330.010073 175.376639 
L 333.289396 176.187823 
L 336.568738 176.43081 
L 339.84808 175.487659 
L 343.127423 173.667635 
L 346.406765 170.993617 
L 349.686088 167.345464 
L 352.96543 163.586446 
L 356.244772 159.156438 
L 359.524114 154.825592 
L 362.803456 150.505029 
L 366.082798 146.659895 
L 369.362141 143.208271 
L 372.641463 140.286714 
L 375.920806 137.923891 
L 379.200148 136.094403 
" clip-path="url(#p9002df041f)" style="fill: none; stroke: #ff0000; stroke-width: 0.5; stroke-linecap: round"/>
   </g>
   <g id="line2d_21">
    <path d="M 54.545602 97.557565 
L 57.824941 98.067795 
L 61.10428 99.615774 
L 64.383619 102.212559 
L 67.662958 105.834419 
L 70.942296 110.344187 
L 74.221636 115.657188 
L 77.500973 121.494064 
L 80.780313 127.599395 
L 84.059653 133.971804 
L 87.33899 140.041972 
L 90.61833 145.828121 
L 93.89767 151.270715 
L 97.177007 156.157962 
L 100.456344 160.560863 
L 103.735686 164.603344 
L 107.015024 168.43342 
L 110.294361 172.219987 
L 113.573703 175.931261 
L 116.853041 179.856739 
L 120.132378 184.0329 
L 123.41172 188.574275 
L 126.691057 193.348111 
L 129.970395 198.397262 
L 133.249737 203.609692 
L 136.529069 208.970385 
L 139.808412 214.229377 
L 143.087754 219.337115 
L 146.367086 224.099733 
L 149.646428 228.501401 
L 152.92577 232.440163 
L 156.205103 235.829086 
L 159.484445 238.631378 
L 162.763787 240.745815 
L 166.04312 242.1139 
L 169.322462 242.681094 
L 172.601804 242.560162 
L 175.881137 241.527366 
L 179.160479 239.697111 
L 182.439821 237.054268 
L 185.719153 233.675438 
L 188.998496 229.395945 
L 192.277838 224.642194 
L 195.55717 219.312357 
L 198.836512 213.458365 
L 202.115855 207.295089 
L 205.395187 200.733997 
L 208.674529 193.850255 
L 211.953871 186.592256 
L 215.233204 179.345326 
L 218.512556 171.910917 
L 221.791879 163.692041 
L 225.071221 156.033867 
L 228.350563 148.316759 
L 231.629886 140.449506 
L 234.909247 133.101117 
L 238.18857 126.242684 
L 241.467912 120.0226 
L 244.747254 114.538713 
L 248.026597 110.0331 
L 251.305939 106.290942 
L 254.585262 103.600992 
L 257.864623 101.777294 
L 261.143946 100.90212 
L 264.423288 100.952581 
L 267.70263 101.59661 
L 270.981953 102.990575 
L 274.261315 105.161301 
L 277.540637 107.866127 
L 280.81998 111.358156 
L 284.099322 115.108604 
L 287.378664 119.535939 
L 290.658006 124.502424 
L 293.937329 129.523246 
L 297.21669 134.822474 
L 300.496013 139.977739 
L 303.775355 145.153459 
L 307.054697 150.109513 
L 310.33402 155.278001 
L 313.613382 159.938159 
L 316.892705 164.203039 
L 320.172047 167.590496 
L 323.451389 170.71037 
L 326.730731 172.829687 
L 330.010073 174.667331 
L 333.289396 175.825683 
L 336.568738 176.059447 
L 339.84808 175.497646 
L 343.127423 174.036964 
L 346.406765 171.894813 
L 349.686088 169.101516 
L 352.96543 165.378644 
L 356.244772 161.189917 
L 359.524114 156.597632 
L 362.803456 151.626458 
L 366.082798 146.399505 
L 369.362141 141.249447 
L 372.641463 136.43646 
L 375.920806 131.992011 
L 379.200148 128.020321 
" clip-path="url(#p9002df041f)" style="fill: none; stroke: #ff0000; stroke-width: 0.5; stroke-linecap: round"/>
   </g>
   <g id="line2d_22">
    <path d="M 54.545602 206.961374 
L 57.824941 210.739872 
L 61.10428 213.205084 
L 64.383619 214.37326 
L 67.662958 214.098238 
L 70.942296 212.822189 
L 74.221636 210.339921 
L 77.500973 207.195891 
L 80.780313 203.050826 
L 84.059653 198.811464 
L 87.33899 194.241437 
L 90.61833 189.708287 
L 93.89767 185.690811 
L 97.177007 181.896032 
L 100.456344 179.198245 
L 103.735686 177.121452 
L 107.015024 176.262232 
L 110.294361 176.400557 
L 113.573703 177.547898 
L 116.853041 179.77744 
L 120.132378 183.060826 
L 123.41172 187.171608 
L 126.691057 191.965542 
L 129.970395 197.223759 
L 133.249737 202.862698 
L 136.529069 208.649296 
L 139.808412 214.205404 
L 143.087754 219.268432 
L 146.367086 224.022427 
L 149.646428 228.103736 
L 152.92577 231.48945 
L 156.205103 234.217302 
L 159.484445 236.202735 
L 162.763787 237.380014 
L 166.04312 238.192313 
L 169.322462 238.169389 
L 172.601804 237.679633 
L 175.881137 236.509641 
L 179.160479 234.773022 
L 182.439821 232.596005 
L 185.719153 229.970306 
L 188.998496 226.736893 
L 192.277838 223.176016 
L 195.55717 218.912467 
L 198.836512 214.294355 
L 202.115855 209.194692 
L 205.395187 203.661499 
L 208.674529 197.701187 
L 211.953871 191.220469 
L 215.233204 184.738386 
L 218.512556 177.619969 
L 221.791879 170.372668 
L 225.071221 162.793424 
L 228.350563 155.24354 
L 231.629886 147.356775 
L 234.909247 139.924807 
L 238.18857 132.618365 
L 241.467912 125.845276 
L 244.747254 119.117843 
L 248.026597 113.237702 
L 251.305939 108.336108 
L 254.585262 104.252278 
L 257.864623 101.298922 
L 261.143946 99.167672 
L 264.423288 98.499374 
L 267.70263 98.681855 
L 270.981953 99.9653 
L 274.261315 102.40243 
L 277.540637 105.384362 
L 280.81998 109.28959 
L 284.099322 113.550629 
L 287.378664 118.581239 
L 290.658006 123.67883 
L 293.937329 129.189332 
L 297.21669 134.564772 
L 300.496013 140.063553 
L 303.775355 145.293001 
L 307.054697 150.378299 
L 310.33402 155.128672 
L 313.613382 160.048694 
L 316.892705 163.780784 
L 320.172047 167.664855 
L 323.451389 170.558999 
L 326.730731 173.20921 
L 330.010073 174.942252 
L 333.289396 175.852296 
L 336.568738 176.037027 
L 339.84808 175.409652 
L 343.127423 173.867506 
L 346.406765 171.61125 
L 349.686088 168.578044 
L 352.96543 164.984322 
L 356.244772 160.836491 
L 359.524114 156.173971 
L 362.803456 151.314768 
L 366.082798 146.482412 
L 369.362141 141.710636 
L 372.641463 137.47756 
L 375.920806 133.753716 
L 379.200148 130.913437 
" clip-path="url(#p9002df041f)" style="fill: none; stroke: #ff0000; stroke-width: 0.5; stroke-linecap: round"/>
   </g>
   <g id="line2d_23"/>
   <g id="line2d_24">
    <defs>
     <path id="mc3bc9e664d" d="M -5 5 
L 5 -5 
M -5 -5 
L 5 5 
" style="stroke: #000000; stroke-width: 2"/>
    </defs>
    <g clip-path="url(#p9002df041f)">
     <use xlink:href="#mc3bc9e664d" x="116.723262" y="179.684555" style="stroke: #000000; stroke-width: 2"/>
     <use xlink:href="#mc3bc9e664d" x="256.516043" y="102.387273" style="stroke: #000000; stroke-width: 2"/>
     <use xlink:href="#mc3bc9e664d" x="196.655902" y="217.41398" style="stroke: #000000; stroke-width: 2"/>
     <use xlink:href="#mc3bc9e664d" x="309.515836" y="154.121249" style="stroke: #000000; stroke-width: 2"/>
     <use xlink:href="#mc3bc9e664d" x="307.768294" y="151.523208" style="stroke: #000000; stroke-width: 2"/>
     <use xlink:href="#mc3bc9e664d" x="143.044031" y="219.226609" style="stroke: #000000; stroke-width: 2"/>
     <use xlink:href="#mc3bc9e664d" x="144.300979" y="221.104915" style="stroke: #000000; stroke-width: 2"/>
     <use xlink:href="#mc3bc9e664d" x="314.87705" y="161.482892" style="stroke: #000000; stroke-width: 2"/>
     <use xlink:href="#mc3bc9e664d" x="365.609899" y="147.139267" style="stroke: #000000; stroke-width: 2"/>
     <use xlink:href="#mc3bc9e664d" x="338.921114" y="175.689422" style="stroke: #000000; stroke-width: 2"/>
    </g>
   </g>
   <g id="line2d_25">
    <path d="M 54.545602 222.501239 
L 57.824941 216.069703 
L 61.10428 209.690318 
L 64.383619 203.46457 
L 67.662958 197.490724 
L 70.942296 191.862212 
L 74.221636 186.666148 
L 77.500973 181.981942 
L 80.780313 177.879996 
L 84.059653 174.420605 
L 87.33899 171.652979 
L 90.61833 169.614454 
L 93.89767 168.329915 
L 97.177007 167.811381 
L 100.456344 168.057843 
L 103.735686 169.055274 
L 107.015024 170.776863 
L 110.294361 173.183478 
L 113.573703 176.224281 
L 116.853041 179.837569 
L 120.132378 183.951799 
L 123.41172 188.48672 
L 126.691057 193.354694 
L 129.970395 198.462107 
L 133.249737 203.710953 
L 136.529069 209.000285 
L 139.808412 214.228071 
L 143.087754 219.292625 
L 146.367086 224.094406 
L 149.646428 228.537619 
L 152.92577 232.531717 
L 156.205103 235.992927 
L 159.484445 238.84562 
L 162.763787 241.023512 
L 166.04312 242.470779 
L 169.322462 243.142968 
L 172.601804 243.007739 
L 175.881137 242.045396 
L 179.160479 240.249236 
L 182.439821 237.625667 
L 185.719153 234.194161 
L 188.998496 229.986913 
L 192.277838 225.048365 
L 195.55717 219.434557 
L 198.836512 213.212181 
L 202.115855 206.457572 
L 205.395187 199.255536 
L 208.674529 191.697872 
L 211.953871 183.882072 
L 215.233204 175.909812 
L 218.512556 167.885041 
L 221.791879 159.912811 
L 225.071221 152.09701 
L 228.350563 144.539347 
L 231.629886 137.337336 
L 234.909247 130.582685 
L 238.18857 124.360333 
L 241.467912 118.746522 
L 244.747254 113.807985 
L 248.026597 109.600731 
L 251.305939 106.169225 
L 254.585262 103.545674 
L 257.864623 101.749497 
L 261.143946 100.787165 
L 264.423288 100.651936 
L 267.70263 101.324131 
L 270.981953 102.771386 
L 274.261315 104.949291 
L 277.540637 107.801984 
L 280.81998 111.2632 
L 284.099322 115.257303 
L 287.378664 119.700516 
L 290.658006 124.502309 
L 293.937329 129.566827 
L 297.21669 134.794644 
L 300.496013 140.083958 
L 303.775355 145.332794 
L 307.054697 150.440254 
L 310.33402 155.308189 
L 313.613382 159.843141 
L 316.892705 163.957339 
L 320.172047 167.570635 
L 323.451389 170.611438 
L 326.730731 173.018048 
L 330.010073 174.739637 
L 333.289396 175.737065 
L 336.568738 175.983523 
L 339.84808 175.464987 
L 343.127423 174.180442 
L 346.406765 172.141914 
L 349.686088 169.374302 
L 352.96543 165.914911 
L 356.244772 161.812966 
L 359.524114 157.128754 
L 362.803456 151.932689 
L 366.082798 146.304174 
L 369.362141 140.330277 
L 372.641463 134.104575 
L 375.920806 127.725186 
L 379.200148 121.293648 
" clip-path="url(#p9002df041f)" style="fill: none; stroke-dasharray: 7.68,1.92,1.2,1.92; stroke-dashoffset: 0; stroke: #bf00bf; stroke-width: 1.2"/>
   </g>
   <g id="patch_3">
    <path d="M 38.312875 273.105025 
L 38.312875 20.086093 
" style="fill: none; stroke: #262626; stroke-linejoin: miter; stroke-linecap: square"/>
   </g>
   <g id="patch_4">
    <path d="M 54.545602 273.312 
L 379.200148 273.312 
" style="fill: none; stroke: #262626; stroke-linejoin: miter; stroke-linecap: square"/>
   </g>
   <g id="legend_1">
    <g id="line2d_26">
     <path d="M 292.450875 18.338875 
L 301.250875 18.338875 
L 310.050875 18.338875 
" style="fill: none; stroke: #ff0000; stroke-width: 0.5; stroke-linecap: round"/>
    </g>
    <g id="text_15">
     <!-- Posterior samples -->
     <g style="fill: #262626" transform="translate(317.090875 21.418875) scale(0.088 -0.088)">
      <defs>
       <path id="ArialMT-50" d="M 494 0 
L 494 4581 
L 2222 4581 
Q 2678 4581 2919 4538 
Q 3256 4481 3484 4323 
Q 3713 4166 3852 3881 
Q 3991 3597 3991 3256 
Q 3991 2672 3619 2267 
Q 3247 1863 2275 1863 
L 1100 1863 
L 1100 0 
L 494 0 
z
M 1100 2403 
L 2284 2403 
Q 2872 2403 3119 2622 
Q 3366 2841 3366 3238 
Q 3366 3525 3220 3729 
Q 3075 3934 2838 4000 
Q 2684 4041 2272 4041 
L 1100 4041 
L 1100 2403 
z
" transform="scale(0.015625)"/>
       <path id="ArialMT-6f" d="M 213 1659 
Q 213 2581 725 3025 
Q 1153 3394 1769 3394 
Q 2453 3394 2887 2945 
Q 3322 2497 3322 1706 
Q 3322 1066 3130 698 
Q 2938 331 2570 128 
Q 2203 -75 1769 -75 
Q 1072 -75 642 372 
Q 213 819 213 1659 
z
M 791 1659 
Q 791 1022 1069 705 
Q 1347 388 1769 388 
Q 2188 388 2466 706 
Q 2744 1025 2744 1678 
Q 2744 2294 2464 2611 
Q 2184 2928 1769 2928 
Q 1347 2928 1069 2612 
Q 791 2297 791 1659 
z
" transform="scale(0.015625)"/>
       <path id="ArialMT-73" d="M 197 991 
L 753 1078 
Q 800 744 1014 566 
Q 1228 388 1613 388 
Q 2000 388 2187 545 
Q 2375 703 2375 916 
Q 2375 1106 2209 1216 
Q 2094 1291 1634 1406 
Q 1016 1563 777 1677 
Q 538 1791 414 1992 
Q 291 2194 291 2438 
Q 291 2659 392 2848 
Q 494 3038 669 3163 
Q 800 3259 1026 3326 
Q 1253 3394 1513 3394 
Q 1903 3394 2198 3281 
Q 2494 3169 2634 2976 
Q 2775 2784 2828 2463 
L 2278 2388 
Q 2241 2644 2061 2787 
Q 1881 2931 1553 2931 
Q 1166 2931 1000 2803 
Q 834 2675 834 2503 
Q 834 2394 903 2306 
Q 972 2216 1119 2156 
Q 1203 2125 1616 2013 
Q 2213 1853 2448 1751 
Q 2684 1650 2818 1456 
Q 2953 1263 2953 975 
Q 2953 694 2789 445 
Q 2625 197 2315 61 
Q 2006 -75 1616 -75 
Q 969 -75 630 194 
Q 291 463 197 991 
z
" transform="scale(0.015625)"/>
       <path id="ArialMT-74" d="M 1650 503 
L 1731 6 
Q 1494 -44 1306 -44 
Q 1000 -44 831 53 
Q 663 150 594 308 
Q 525 466 525 972 
L 525 2881 
L 113 2881 
L 113 3319 
L 525 3319 
L 525 4141 
L 1084 4478 
L 1084 3319 
L 1650 3319 
L 1650 2881 
L 1084 2881 
L 1084 941 
Q 1084 700 1114 631 
Q 1144 563 1211 522 
Q 1278 481 1403 481 
Q 1497 481 1650 503 
z
" transform="scale(0.015625)"/>
       <path id="ArialMT-65" d="M 2694 1069 
L 3275 997 
Q 3138 488 2766 206 
Q 2394 -75 1816 -75 
Q 1088 -75 661 373 
Q 234 822 234 1631 
Q 234 2469 665 2931 
Q 1097 3394 1784 3394 
Q 2450 3394 2872 2941 
Q 3294 2488 3294 1666 
Q 3294 1616 3291 1516 
L 816 1516 
Q 847 969 1125 678 
Q 1403 388 1819 388 
Q 2128 388 2347 550 
Q 2566 713 2694 1069 
z
M 847 1978 
L 2700 1978 
Q 2663 2397 2488 2606 
Q 2219 2931 1791 2931 
Q 1403 2931 1139 2672 
Q 875 2413 847 1978 
z
" transform="scale(0.015625)"/>
       <path id="ArialMT-72" d="M 416 0 
L 416 3319 
L 922 3319 
L 922 2816 
Q 1116 3169 1280 3281 
Q 1444 3394 1641 3394 
Q 1925 3394 2219 3213 
L 2025 2691 
Q 1819 2813 1613 2813 
Q 1428 2813 1281 2702 
Q 1134 2591 1072 2394 
Q 978 2094 978 1738 
L 978 0 
L 416 0 
z
" transform="scale(0.015625)"/>
       <path id="ArialMT-69" d="M 425 3934 
L 425 4581 
L 988 4581 
L 988 3934 
L 425 3934 
z
M 425 0 
L 425 3319 
L 988 3319 
L 988 0 
L 425 0 
z
" transform="scale(0.015625)"/>
       <path id="ArialMT-20" transform="scale(0.015625)"/>
       <path id="ArialMT-61" d="M 2588 409 
Q 2275 144 1986 34 
Q 1697 -75 1366 -75 
Q 819 -75 525 192 
Q 231 459 231 875 
Q 231 1119 342 1320 
Q 453 1522 633 1644 
Q 813 1766 1038 1828 
Q 1203 1872 1538 1913 
Q 2219 1994 2541 2106 
Q 2544 2222 2544 2253 
Q 2544 2597 2384 2738 
Q 2169 2928 1744 2928 
Q 1347 2928 1158 2789 
Q 969 2650 878 2297 
L 328 2372 
Q 403 2725 575 2942 
Q 747 3159 1072 3276 
Q 1397 3394 1825 3394 
Q 2250 3394 2515 3294 
Q 2781 3194 2906 3042 
Q 3031 2891 3081 2659 
Q 3109 2516 3109 2141 
L 3109 1391 
Q 3109 606 3145 398 
Q 3181 191 3288 0 
L 2700 0 
Q 2613 175 2588 409 
z
M 2541 1666 
Q 2234 1541 1622 1453 
Q 1275 1403 1131 1340 
Q 988 1278 909 1158 
Q 831 1038 831 891 
Q 831 666 1001 516 
Q 1172 366 1500 366 
Q 1825 366 2078 508 
Q 2331 650 2450 897 
Q 2541 1088 2541 1459 
L 2541 1666 
z
" transform="scale(0.015625)"/>
       <path id="ArialMT-6d" d="M 422 0 
L 422 3319 
L 925 3319 
L 925 2853 
Q 1081 3097 1340 3245 
Q 1600 3394 1931 3394 
Q 2300 3394 2536 3241 
Q 2772 3088 2869 2813 
Q 3263 3394 3894 3394 
Q 4388 3394 4653 3120 
Q 4919 2847 4919 2278 
L 4919 0 
L 4359 0 
L 4359 2091 
Q 4359 2428 4304 2576 
Q 4250 2725 4106 2815 
Q 3963 2906 3769 2906 
Q 3419 2906 3187 2673 
Q 2956 2441 2956 1928 
L 2956 0 
L 2394 0 
L 2394 2156 
Q 2394 2531 2256 2718 
Q 2119 2906 1806 2906 
Q 1569 2906 1367 2781 
Q 1166 2656 1075 2415 
Q 984 2175 984 1722 
L 984 0 
L 422 0 
z
" transform="scale(0.015625)"/>
       <path id="ArialMT-70" d="M 422 -1272 
L 422 3319 
L 934 3319 
L 934 2888 
Q 1116 3141 1344 3267 
Q 1572 3394 1897 3394 
Q 2322 3394 2647 3175 
Q 2972 2956 3137 2557 
Q 3303 2159 3303 1684 
Q 3303 1175 3120 767 
Q 2938 359 2589 142 
Q 2241 -75 1856 -75 
Q 1575 -75 1351 44 
Q 1128 163 984 344 
L 984 -1272 
L 422 -1272 
z
M 931 1641 
Q 931 1000 1190 694 
Q 1450 388 1819 388 
Q 2194 388 2461 705 
Q 2728 1022 2728 1688 
Q 2728 2322 2467 2637 
Q 2206 2953 1844 2953 
Q 1484 2953 1207 2617 
Q 931 2281 931 1641 
z
" transform="scale(0.015625)"/>
       <path id="ArialMT-6c" d="M 409 0 
L 409 4581 
L 972 4581 
L 972 0 
L 409 0 
z
" transform="scale(0.015625)"/>
      </defs>
      <use xlink:href="#ArialMT-50"/>
      <use xlink:href="#ArialMT-6f" x="66.699219"/>
      <use xlink:href="#ArialMT-73" x="122.314453"/>
      <use xlink:href="#ArialMT-74" x="172.314453"/>
      <use xlink:href="#ArialMT-65" x="200.097656"/>
      <use xlink:href="#ArialMT-72" x="255.712891"/>
      <use xlink:href="#ArialMT-69" x="289.013672"/>
      <use xlink:href="#ArialMT-6f" x="311.230469"/>
      <use xlink:href="#ArialMT-72" x="366.845703"/>
      <use xlink:href="#ArialMT-20" x="400.146484"/>
      <use xlink:href="#ArialMT-73" x="427.929688"/>
      <use xlink:href="#ArialMT-61" x="477.929688"/>
      <use xlink:href="#ArialMT-6d" x="533.544922"/>
      <use xlink:href="#ArialMT-70" x="616.845703"/>
      <use xlink:href="#ArialMT-6c" x="672.460938"/>
      <use xlink:href="#ArialMT-65" x="694.677734"/>
      <use xlink:href="#ArialMT-73" x="750.292969"/>
     </g>
    </g>
    <g id="line2d_27">
     <g>
      <use xlink:href="#mc3bc9e664d" x="301.250875" y="30.78675" style="stroke: #000000; stroke-width: 2"/>
     </g>
    </g>
    <g id="text_16">
     <!-- Observations -->
     <g style="fill: #262626" transform="translate(317.090875 33.86675) scale(0.088 -0.088)">
      <defs>
       <path id="ArialMT-4f" d="M 309 2231 
Q 309 3372 921 4017 
Q 1534 4663 2503 4663 
Q 3138 4663 3647 4359 
Q 4156 4056 4423 3514 
Q 4691 2972 4691 2284 
Q 4691 1588 4409 1038 
Q 4128 488 3612 205 
Q 3097 -78 2500 -78 
Q 1853 -78 1343 234 
Q 834 547 571 1087 
Q 309 1628 309 2231 
z
M 934 2222 
Q 934 1394 1379 917 
Q 1825 441 2497 441 
Q 3181 441 3623 922 
Q 4066 1403 4066 2288 
Q 4066 2847 3877 3264 
Q 3688 3681 3323 3911 
Q 2959 4141 2506 4141 
Q 1863 4141 1398 3698 
Q 934 3256 934 2222 
z
" transform="scale(0.015625)"/>
       <path id="ArialMT-62" d="M 941 0 
L 419 0 
L 419 4581 
L 981 4581 
L 981 2947 
Q 1338 3394 1891 3394 
Q 2197 3394 2470 3270 
Q 2744 3147 2920 2923 
Q 3097 2700 3197 2384 
Q 3297 2069 3297 1709 
Q 3297 856 2875 390 
Q 2453 -75 1863 -75 
Q 1275 -75 941 416 
L 941 0 
z
M 934 1684 
Q 934 1088 1097 822 
Q 1363 388 1816 388 
Q 2184 388 2453 708 
Q 2722 1028 2722 1663 
Q 2722 2313 2464 2622 
Q 2206 2931 1841 2931 
Q 1472 2931 1203 2611 
Q 934 2291 934 1684 
z
" transform="scale(0.015625)"/>
       <path id="ArialMT-76" d="M 1344 0 
L 81 3319 
L 675 3319 
L 1388 1331 
Q 1503 1009 1600 663 
Q 1675 925 1809 1294 
L 2547 3319 
L 3125 3319 
L 1869 0 
L 1344 0 
z
" transform="scale(0.015625)"/>
       <path id="ArialMT-6e" d="M 422 0 
L 422 3319 
L 928 3319 
L 928 2847 
Q 1294 3394 1984 3394 
Q 2284 3394 2536 3286 
Q 2788 3178 2913 3003 
Q 3038 2828 3088 2588 
Q 3119 2431 3119 2041 
L 3119 0 
L 2556 0 
L 2556 2019 
Q 2556 2363 2490 2533 
Q 2425 2703 2258 2804 
Q 2091 2906 1866 2906 
Q 1506 2906 1245 2678 
Q 984 2450 984 1813 
L 984 0 
L 422 0 
z
" transform="scale(0.015625)"/>
      </defs>
      <use xlink:href="#ArialMT-4f"/>
      <use xlink:href="#ArialMT-62" x="77.783203"/>
      <use xlink:href="#ArialMT-73" x="133.398438"/>
      <use xlink:href="#ArialMT-65" x="183.398438"/>
      <use xlink:href="#ArialMT-72" x="239.013672"/>
      <use xlink:href="#ArialMT-76" x="272.314453"/>
      <use xlink:href="#ArialMT-61" x="322.314453"/>
      <use xlink:href="#ArialMT-74" x="377.929688"/>
      <use xlink:href="#ArialMT-69" x="405.712891"/>
      <use xlink:href="#ArialMT-6f" x="427.929688"/>
      <use xlink:href="#ArialMT-6e" x="483.544922"/>
      <use xlink:href="#ArialMT-73" x="539.160156"/>
     </g>
    </g>
    <g id="line2d_28">
     <path d="M 292.450875 43.234625 
L 301.250875 43.234625 
L 310.050875 43.234625 
" style="fill: none; stroke-dasharray: 7.68,1.92,1.2,1.92; stroke-dashoffset: 0; stroke: #bf00bf; stroke-width: 1.2"/>
    </g>
    <g id="text_17">
     <!-- True function -->
     <g style="fill: #262626" transform="translate(317.090875 46.314625) scale(0.088 -0.088)">
      <defs>
       <path id="ArialMT-54" d="M 1659 0 
L 1659 4041 
L 150 4041 
L 150 4581 
L 3781 4581 
L 3781 4041 
L 2266 4041 
L 2266 0 
L 1659 0 
z
" transform="scale(0.015625)"/>
       <path id="ArialMT-75" d="M 2597 0 
L 2597 488 
Q 2209 -75 1544 -75 
Q 1250 -75 995 37 
Q 741 150 617 320 
Q 494 491 444 738 
Q 409 903 409 1263 
L 409 3319 
L 972 3319 
L 972 1478 
Q 972 1038 1006 884 
Q 1059 663 1231 536 
Q 1403 409 1656 409 
Q 1909 409 2131 539 
Q 2353 669 2445 892 
Q 2538 1116 2538 1541 
L 2538 3319 
L 3100 3319 
L 3100 0 
L 2597 0 
z
" transform="scale(0.015625)"/>
       <path id="ArialMT-66" d="M 556 0 
L 556 2881 
L 59 2881 
L 59 3319 
L 556 3319 
L 556 3672 
Q 556 4006 616 4169 
Q 697 4388 901 4523 
Q 1106 4659 1475 4659 
Q 1713 4659 2000 4603 
L 1916 4113 
Q 1741 4144 1584 4144 
Q 1328 4144 1222 4034 
Q 1116 3925 1116 3625 
L 1116 3319 
L 1763 3319 
L 1763 2881 
L 1116 2881 
L 1116 0 
L 556 0 
z
" transform="scale(0.015625)"/>
       <path id="ArialMT-63" d="M 2588 1216 
L 3141 1144 
Q 3050 572 2676 248 
Q 2303 -75 1759 -75 
Q 1078 -75 664 370 
Q 250 816 250 1647 
Q 250 2184 428 2587 
Q 606 2991 970 3192 
Q 1334 3394 1763 3394 
Q 2303 3394 2647 3120 
Q 2991 2847 3088 2344 
L 2541 2259 
Q 2463 2594 2264 2762 
Q 2066 2931 1784 2931 
Q 1359 2931 1093 2626 
Q 828 2322 828 1663 
Q 828 994 1084 691 
Q 1341 388 1753 388 
Q 2084 388 2306 591 
Q 2528 794 2588 1216 
z
" transform="scale(0.015625)"/>
      </defs>
      <use xlink:href="#ArialMT-54"/>
      <use xlink:href="#ArialMT-72" x="57.333984"/>
      <use xlink:href="#ArialMT-75" x="90.634766"/>
      <use xlink:href="#ArialMT-65" x="146.25"/>
      <use xlink:href="#ArialMT-20" x="201.865234"/>
      <use xlink:href="#ArialMT-66" x="229.648438"/>
      <use xlink:href="#ArialMT-75" x="257.431641"/>
      <use xlink:href="#ArialMT-6e" x="313.046875"/>
      <use xlink:href="#ArialMT-63" x="368.662109"/>
      <use xlink:href="#ArialMT-74" x="418.662109"/>
      <use xlink:href="#ArialMT-69" x="446.445312"/>
      <use xlink:href="#ArialMT-6f" x="468.662109"/>
      <use xlink:href="#ArialMT-6e" x="524.277344"/>
     </g>
    </g>
   </g>
  </g>
 </g>
 <defs>
  <clipPath id="p9002df041f">
   <rect x="38.312875" y="7.2" width="357.12" height="266.112"/>
  </clipPath>
 </defs>
</svg>