<?xml version="1.0" encoding="utf-8" standalone="no"?>
<!DOCTYPE svg PUBLIC "-//W3C//DTD SVG 1.1//EN"
  "http://www.w3.org/Graphics/SVG/1.1/DTD/svg11.dtd">
<svg xmlns:xlink="http://www.w3.org/1999/xlink" width="402.632875pt" height="309.639375pt" viewBox="0 0 402.632875 309.639375" xmlns="http://www.w3.org/2000/svg" version="1.1">
 <metadata>
  <rdf:RDF xmlns:dc="http://purl.org/dc/elements/1.1/" xmlns:cc="http://creativecommons.org/ns#" xmlns:rdf="http://www.w3.org/1999/02/22-rdf-syntax-ns#">
   <cc:Work>
    <dc:type rdf:resource="http://purl.org/dc/dcmitype/StillImage"/>
    <dc:date>2023-10-23T15:18:33.100847</dc:date>
    <dc:format>image/svg+xml</dc:format>
    <dc:creator>
     <cc:Agent>
      <dc:title>Matplotlib v3.8.0, https://matplotlib.org/</dc:title>
     </cc:Agent>
    </dc:creator>
   </cc:Work>
  </rdf:RDF>
 </metadata>
 <defs>
  <style type="text/css">*{stroke-linejoin: round; stroke-linecap: butt}</style>
 </defs>
 <g id="figure_1">
  <g id="patch_1">
   <path d="M 0 309.639375 
L 402.632875 309.639375 
L 402.632875 0 
L 0 0 
z
" style="fill: #ffffff"/>
  </g>
  <g id="axes_1">
   <g id="patch_2">
    <path d="M 38.312875 273.312 
L 395.432875 273.312 
L 395.432875 7.2 
L 38.312875 7.2 
z
" style="fill: #ffffff"/>
   </g>
   <g id="matplotlib.axis_1">
    <g id="xtick_1">
     <g id="line2d_1">
      <defs>
       <path id="m90cf945d8b" d="M 0 0 
L 0 4.8 
" style="stroke: #262626"/>
      </defs>
      <g>
       <use xlink:href="#m90cf945d8b" x="54.545602" y="273.312" style="fill: #262626; stroke: #262626"/>
      </g>
     </g>
     <g id="text_1">
      <!-- 0.0 -->
      <g style="fill: #262626" transform="translate(48.429602 287.910875) scale(0.088 -0.088)">
       <defs>
        <path id="ArialMT-30" d="M 266 2259 
Q 266 3072 433 3567 
Q 600 4063 929 4331 
Q 1259 4600 1759 4600 
Q 2128 4600 2406 4451 
Q 2684 4303 2865 4023 
Q 3047 3744 3150 3342 
Q 3253 2941 3253 2259 
Q 3253 1453 3087 958 
Q 2922 463 2592 192 
Q 2263 -78 1759 -78 
Q 1097 -78 719 397 
Q 266 969 266 2259 
z
M 844 2259 
Q 844 1131 1108 757 
Q 1372 384 1759 384 
Q 2147 384 2411 759 
Q 2675 1134 2675 2259 
Q 2675 3391 2411 3762 
Q 2147 4134 1753 4134 
Q 1366 4134 1134 3806 
Q 844 3388 844 2259 
z
" transform="scale(0.015625)"/>
        <path id="ArialMT-2e" d="M 581 0 
L 581 641 
L 1222 641 
L 1222 0 
L 581 0 
z
" transform="scale(0.015625)"/>
       </defs>
       <use xlink:href="#ArialMT-30"/>
       <use xlink:href="#ArialMT-2e" x="55.615234"/>
       <use xlink:href="#ArialMT-30" x="83.398438"/>
      </g>
     </g>
    </g>
    <g id="xtick_2">
     <g id="line2d_2">
      <g>
       <use xlink:href="#m90cf945d8b" x="119.476511" y="273.312" style="fill: #262626; stroke: #262626"/>
      </g>
     </g>
     <g id="text_2">
      <!-- 0.2 -->
      <g style="fill: #262626" transform="translate(113.360511 287.910875) scale(0.088 -0.088)">
       <defs>
        <path id="ArialMT-32" d="M 3222 541 
L 3222 0 
L 194 0 
Q 188 203 259 391 
Q 375 700 629 1000 
Q 884 1300 1366 1694 
Q 2113 2306 2375 2664 
Q 2638 3022 2638 3341 
Q 2638 3675 2398 3904 
Q 2159 4134 1775 4134 
Q 1369 4134 1125 3890 
Q 881 3647 878 3216 
L 300 3275 
Q 359 3922 746 4261 
Q 1134 4600 1788 4600 
Q 2447 4600 2831 4234 
Q 3216 3869 3216 3328 
Q 3216 3053 3103 2787 
Q 2991 2522 2730 2228 
Q 2469 1934 1863 1422 
Q 1356 997 1212 845 
Q 1069 694 975 541 
L 3222 541 
z
" transform="scale(0.015625)"/>
       </defs>
       <use xlink:href="#ArialMT-30"/>
       <use xlink:href="#ArialMT-2e" x="55.615234"/>
       <use xlink:href="#ArialMT-32" x="83.398438"/>
      </g>
     </g>
    </g>
    <g id="xtick_3">
     <g id="line2d_3">
      <g>
       <use xlink:href="#m90cf945d8b" x="184.40742" y="273.312" style="fill: #262626; stroke: #262626"/>
      </g>
     </g>
     <g id="text_3">
      <!-- 0.4 -->
      <g style="fill: #262626" transform="translate(178.29142 287.910875) scale(0.088 -0.088)">
       <defs>
        <path id="ArialMT-34" d="M 2069 0 
L 2069 1097 
L 81 1097 
L 81 1613 
L 2172 4581 
L 2631 4581 
L 2631 1613 
L 3250 1613 
L 3250 1097 
L 2631 1097 
L 2631 0 
L 2069 0 
z
M 2069 1613 
L 2069 3678 
L 634 1613 
L 2069 1613 
z
" transform="scale(0.015625)"/>
       </defs>
       <use xlink:href="#ArialMT-30"/>
       <use xlink:href="#ArialMT-2e" x="55.615234"/>
       <use xlink:href="#ArialMT-34" x="83.398438"/>
      </g>
     </g>
    </g>
    <g id="xtick_4">
     <g id="line2d_4">
      <g>
       <use xlink:href="#m90cf945d8b" x="249.33833" y="273.312" style="fill: #262626; stroke: #262626"/>
      </g>
     </g>
     <g id="text_4">
      <!-- 0.6 -->
      <g style="fill: #262626" transform="translate(243.22233 287.910875) scale(0.088 -0.088)">
       <defs>
        <path id="ArialMT-36" d="M 3184 3459 
L 2625 3416 
Q 2550 3747 2413 3897 
Q 2184 4138 1850 4138 
Q 1581 4138 1378 3988 
Q 1113 3794 959 3422 
Q 806 3050 800 2363 
Q 1003 2672 1297 2822 
Q 1591 2972 1913 2972 
Q 2475 2972 2870 2558 
Q 3266 2144 3266 1488 
Q 3266 1056 3080 686 
Q 2894 316 2569 119 
Q 2244 -78 1831 -78 
Q 1128 -78 684 439 
Q 241 956 241 2144 
Q 241 3472 731 4075 
Q 1159 4600 1884 4600 
Q 2425 4600 2770 4297 
Q 3116 3994 3184 3459 
z
M 888 1484 
Q 888 1194 1011 928 
Q 1134 663 1356 523 
Q 1578 384 1822 384 
Q 2178 384 2434 671 
Q 2691 959 2691 1453 
Q 2691 1928 2437 2201 
Q 2184 2475 1800 2475 
Q 1419 2475 1153 2201 
Q 888 1928 888 1484 
z
" transform="scale(0.015625)"/>
       </defs>
       <use xlink:href="#ArialMT-30"/>
       <use xlink:href="#ArialMT-2e" x="55.615234"/>
       <use xlink:href="#ArialMT-36" x="83.398438"/>
      </g>
     </g>
    </g>
    <g id="xtick_5">
     <g id="line2d_5">
      <g>
       <use xlink:href="#m90cf945d8b" x="314.269239" y="273.312" style="fill: #262626; stroke: #262626"/>
      </g>
     </g>
     <g id="text_5">
      <!-- 0.8 -->
      <g style="fill: #262626" transform="translate(308.153239 287.910875) scale(0.088 -0.088)">
       <defs>
        <path id="ArialMT-38" d="M 1131 2484 
Q 781 2613 612 2850 
Q 444 3088 444 3419 
Q 444 3919 803 4259 
Q 1163 4600 1759 4600 
Q 2359 4600 2725 4251 
Q 3091 3903 3091 3403 
Q 3091 3084 2923 2848 
Q 2756 2613 2416 2484 
Q 2838 2347 3058 2040 
Q 3278 1734 3278 1309 
Q 3278 722 2862 322 
Q 2447 -78 1769 -78 
Q 1091 -78 675 323 
Q 259 725 259 1325 
Q 259 1772 486 2073 
Q 713 2375 1131 2484 
z
M 1019 3438 
Q 1019 3113 1228 2906 
Q 1438 2700 1772 2700 
Q 2097 2700 2305 2904 
Q 2513 3109 2513 3406 
Q 2513 3716 2298 3927 
Q 2084 4138 1766 4138 
Q 1444 4138 1231 3931 
Q 1019 3725 1019 3438 
z
M 838 1322 
Q 838 1081 952 856 
Q 1066 631 1291 507 
Q 1516 384 1775 384 
Q 2178 384 2440 643 
Q 2703 903 2703 1303 
Q 2703 1709 2433 1975 
Q 2163 2241 1756 2241 
Q 1359 2241 1098 1978 
Q 838 1716 838 1322 
z
" transform="scale(0.015625)"/>
       </defs>
       <use xlink:href="#ArialMT-30"/>
       <use xlink:href="#ArialMT-2e" x="55.615234"/>
       <use xlink:href="#ArialMT-38" x="83.398438"/>
      </g>
     </g>
    </g>
    <g id="xtick_6">
     <g id="line2d_6">
      <g>
       <use xlink:href="#m90cf945d8b" x="379.200148" y="273.312" style="fill: #262626; stroke: #262626"/>
      </g>
     </g>
     <g id="text_6">
      <!-- 1.0 -->
      <g style="fill: #262626" transform="translate(373.084148 287.910875) scale(0.088 -0.088)">
       <defs>
        <path id="ArialMT-31" d="M 2384 0 
L 1822 0 
L 1822 3584 
Q 1619 3391 1289 3197 
Q 959 3003 697 2906 
L 697 3450 
Q 1169 3672 1522 3987 
Q 1875 4303 2022 4600 
L 2384 4600 
L 2384 0 
z
" transform="scale(0.015625)"/>
       </defs>
       <use xlink:href="#ArialMT-31"/>
       <use xlink:href="#ArialMT-2e" x="55.615234"/>
       <use xlink:href="#ArialMT-30" x="83.398438"/>
      </g>
     </g>
    </g>
    <g id="text_7">
     <!-- $x$ -->
     <g style="fill: #262626" transform="translate(213.992875 300.531375) scale(0.096 -0.096)">
      <defs>
       <path id="DejaVuSans-Oblique-78" d="M 3841 3500 
L 2234 1784 
L 3219 0 
L 2559 0 
L 1819 1388 
L 531 0 
L -166 0 
L 1556 1844 
L 641 3500 
L 1300 3500 
L 1972 2234 
L 3144 3500 
L 3841 3500 
z
" transform="scale(0.015625)"/>
      </defs>
      <use xlink:href="#DejaVuSans-Oblique-78" transform="translate(0 0.3125)"/>
     </g>
    </g>
   </g>
   <g id="matplotlib.axis_2">
    <g id="ytick_1">
     <g id="line2d_7">
      <defs>
       <path id="me6af22c570" d="M 0 0 
L -4.8 0 
" style="stroke: #262626"/>
      </defs>
      <g>
       <use xlink:href="#me6af22c570" x="38.312875" y="261.273566" style="fill: #262626; stroke: #262626"/>
      </g>
     </g>
     <g id="text_8">
      <!-- −8 -->
      <g style="fill: #262626" transform="translate(19.9795 264.423003) scale(0.088 -0.088)">
       <defs>
        <path id="ArialMT-2212" d="M 3381 1997 
L 356 1997 
L 356 2522 
L 3381 2522 
L 3381 1997 
z
" transform="scale(0.015625)"/>
       </defs>
       <use xlink:href="#ArialMT-2212"/>
       <use xlink:href="#ArialMT-38" x="58.398438"/>
      </g>
     </g>
    </g>
    <g id="ytick_2">
     <g id="line2d_8">
      <g>
       <use xlink:href="#me6af22c570" x="38.312875" y="220.543566" style="fill: #262626; stroke: #262626"/>
      </g>
     </g>
     <g id="text_9">
      <!-- −6 -->
      <g style="fill: #262626" transform="translate(19.9795 223.693004) scale(0.088 -0.088)">
       <use xlink:href="#ArialMT-2212"/>
       <use xlink:href="#ArialMT-36" x="58.398438"/>
      </g>
     </g>
    </g>
    <g id="ytick_3">
     <g id="line2d_9">
      <g>
       <use xlink:href="#me6af22c570" x="38.312875" y="179.813567" style="fill: #262626; stroke: #262626"/>
      </g>
     </g>
     <g id="text_10">
      <!-- −4 -->
      <g style="fill: #262626" transform="translate(19.9795 182.963005) scale(0.088 -0.088)">
       <use xlink:href="#ArialMT-2212"/>
       <use xlink:href="#ArialMT-34" x="58.398438"/>
      </g>
     </g>
    </g>
    <g id="ytick_4">
     <g id="line2d_10">
      <g>
       <use xlink:href="#me6af22c570" x="38.312875" y="139.083568" style="fill: #262626; stroke: #262626"/>
      </g>
     </g>
     <g id="text_11">
      <!-- −2 -->
      <g style="fill: #262626" transform="translate(19.9795 142.233005) scale(0.088 -0.088)">
       <use xlink:href="#ArialMT-2212"/>
       <use xlink:href="#ArialMT-32" x="58.398438"/>
      </g>
     </g>
    </g>
    <g id="ytick_5">
     <g id="line2d_11">
      <g>
       <use xlink:href="#me6af22c570" x="38.312875" y="98.353569" style="fill: #262626; stroke: #262626"/>
      </g>
     </g>
     <g id="text_12">
      <!-- 0 -->
      <g style="fill: #262626" transform="translate(25.11925 101.503006) scale(0.088 -0.088)">
       <use xlink:href="#ArialMT-30"/>
      </g>
     </g>
    </g>
    <g id="ytick_6">
     <g id="line2d_12">
      <g>
       <use xlink:href="#me6af22c570" x="38.312875" y="57.62357" style="fill: #262626; stroke: #262626"/>
      </g>
     </g>
     <g id="text_13">
      <!-- 2 -->
      <g style="fill: #262626" transform="translate(25.11925 60.773007) scale(0.088 -0.088)">
       <use xlink:href="#ArialMT-32"/>
      </g>
     </g>
    </g>
    <g id="ytick_7">
     <g id="line2d_13">
      <g>
       <use xlink:href="#me6af22c570" x="38.312875" y="16.89357" style="fill: #262626; stroke: #262626"/>
      </g>
     </g>
     <g id="text_14">
      <!-- 4 -->
      <g style="fill: #262626" transform="translate(25.11925 20.043008) scale(0.088 -0.088)">
       <use xlink:href="#ArialMT-34"/>
      </g>
     </g>
    </g>
    <g id="text_15">
     <!-- $y$ -->
     <g style="fill: #262626" transform="translate(13.9635 143.136) rotate(-90) scale(0.096 -0.096)">
      <defs>
       <path id="DejaVuSans-Oblique-79" d="M 1588 -325 
Q 1188 -997 936 -1164 
Q 684 -1331 294 -1331 
L -159 -1331 
L -63 -850 
L 269 -850 
Q 509 -850 678 -719 
Q 847 -588 1056 -206 
L 1234 128 
L 459 3500 
L 1069 3500 
L 1650 819 
L 3256 3500 
L 3859 3500 
L 1588 -325 
z
" transform="scale(0.015625)"/>
      </defs>
      <use xlink:href="#DejaVuSans-Oblique-79" transform="translate(0 0.3125)"/>
     </g>
    </g>
   </g>
   <g id="PolyCollection_1">
    <defs>
     <path id="mf3a0a56486" d="M 54.545602 -275.586429 
L 54.545602 -139.739149 
L 57.824941 -141.773884 
L 61.10428 -144.062902 
L 64.383619 -146.610838 
L 67.662958 -149.417649 
L 70.942296 -152.478053 
L 74.221636 -155.7811 
L 77.500973 -159.309947 
L 80.780313 -163.04156 
L 84.059653 -166.94703 
L 87.33899 -170.991411 
L 90.61833 -175.13431 
L 93.89767 -179.330388 
L 97.177007 -183.529867 
L 100.456344 -187.680185 
L 103.735686 -191.726054 
L 107.015024 -195.611041 
L 110.294361 -199.279301 
L 113.573703 -202.673183 
L 116.853041 -200.922203 
L 120.132378 -198.265433 
L 123.41172 -196.092809 
L 126.691057 -194.439612 
L 129.970395 -193.333729 
L 133.249737 -192.79343 
L 136.529069 -192.828627 
L 139.808412 -193.439273 
L 143.087754 -194.616015 
L 146.367086 -196.340346 
L 149.646428 -198.585042 
L 152.92577 -201.314285 
L 156.205103 -204.486126 
L 159.484445 -203.545524 
L 162.763787 -200.261499 
L 166.04312 -196.699932 
L 169.322462 -192.915284 
L 172.601804 -188.962784 
L 175.881137 -184.8981 
L 179.160479 -180.775548 
L 182.439821 -176.647176 
L 185.719153 -172.561918 
L 188.998496 -168.564411 
L 192.277838 -164.694545 
L 195.55717 -160.986757 
L 198.836512 -157.469762 
L 202.115855 -154.166336 
L 205.395187 -151.093348 
L 208.674529 -148.261876 
L 211.953871 -145.677568 
L 215.233204 -143.341041 
L 218.512556 -141.248429 
L 221.791879 -139.392085 
L 225.071221 -137.761139 
L 228.350563 -136.342364 
L 231.629886 -135.120824 
L 234.909247 -134.080624 
L 238.18857 -133.205633 
L 241.467912 -132.480087 
L 244.747254 -131.889234 
L 248.026597 -131.419795 
L 251.305939 -131.060476 
L 254.585262 -130.802262 
L 257.864623 -130.638737 
L 261.143946 -130.566251 
L 264.423288 -130.584036 
L 267.70263 -130.694224 
L 270.981953 -130.901787 
L 274.261315 -131.214426 
L 277.540637 -131.642323 
L 280.81998 -132.197901 
L 284.099322 -132.895505 
L 287.378664 -133.750938 
L 290.658006 -134.781092 
L 293.937329 -136.003379 
L 297.21669 -137.435308 
L 300.496013 -139.093765 
L 303.775355 -140.994696 
L 307.054697 -143.152277 
L 310.33402 -145.578591 
L 313.613382 -148.283016 
L 316.892705 -151.271759 
L 320.172047 -154.547519 
L 323.451389 -158.10914 
L 326.730731 -161.951291 
L 330.010073 -166.064441 
L 333.289396 -170.434801 
L 336.568738 -175.044347 
L 339.84808 -179.871197 
L 343.127423 -184.889273 
L 346.406765 -190.069554 
L 349.686088 -195.380581 
L 352.96543 -200.788012 
L 356.244772 -206.252096 
L 359.524114 -201.136253 
L 362.803456 -195.723942 
L 366.082798 -190.406208 
L 369.362141 -185.216626 
L 372.641463 -180.187249 
L 375.920806 -175.347722 
L 379.200148 -170.723609 
L 379.200148 -243.148938 
L 379.200148 -243.148938 
L 375.920806 -238.265878 
L 372.641463 -233.201444 
L 369.362141 -227.984084 
L 366.082798 -222.645935 
L 362.803456 -217.221017 
L 359.524114 -211.744339 
L 356.244772 -206.607825 
L 352.96543 -212.095191 
L 349.686088 -217.56955 
L 346.406765 -222.990222 
L 343.127423 -228.321369 
L 339.84808 -233.529518 
L 336.568738 -238.583119 
L 333.289396 -243.453133 
L 330.010073 -248.114321 
L 326.730731 -252.545014 
L 323.451389 -256.727529 
L 320.172047 -260.648284 
L 316.892705 -264.297792 
L 313.613382 -267.670752 
L 310.33402 -270.765765 
L 307.054697 -273.585045 
L 303.775355 -276.134175 
L 300.496013 -278.421644 
L 297.21669 -280.458317 
L 293.937329 -282.257099 
L 290.658006 -283.83215 
L 287.378664 -285.19859 
L 284.099322 -286.37174 
L 280.81998 -287.366708 
L 277.540637 -288.19783 
L 274.261315 -288.878226 
L 270.981953 -289.41935 
L 267.70263 -289.830626 
L 264.423288 -290.119172 
L 261.143946 -290.289495 
L 257.864623 -290.343375 
L 254.585262 -290.279755 
L 251.305939 -290.09474 
L 248.026597 -289.781635 
L 244.747254 -289.331161 
L 241.467912 -288.731705 
L 238.18857 -287.969597 
L 234.909247 -287.029661 
L 231.629886 -285.895625 
L 228.350563 -284.550807 
L 225.071221 -282.978708 
L 221.791879 -281.163791 
L 218.512556 -279.092217 
L 215.233204 -276.752563 
L 211.953871 -274.136705 
L 208.674529 -271.240438 
L 205.395187 -268.064204 
L 202.115855 -264.613709 
L 198.836512 -260.900352 
L 195.55717 -256.941681 
L 192.277838 -252.761482 
L 188.998496 -248.389918 
L 185.719153 -243.863329 
L 182.439821 -239.223983 
L 179.160479 -234.519392 
L 175.881137 -229.80188 
L 172.601804 -225.127394 
L 169.322462 -220.554636 
L 166.04312 -216.144121 
L 162.763787 -211.956346 
L 159.484445 -208.051399 
L 156.205103 -206.501072 
L 152.92577 -209.080513 
L 149.646428 -211.240908 
L 146.367086 -212.94655 
L 143.087754 -214.167767 
L 139.808412 -214.883262 
L 136.529069 -215.080134 
L 133.249737 -214.754195 
L 129.970395 -213.910016 
L 126.691057 -212.561503 
L 123.41172 -210.730165 
L 120.132378 -208.446358 
L 116.853041 -205.746958 
L 113.573703 -204.02261 
L 110.294361 -207.512173 
L 107.015024 -211.34407 
L 103.735686 -215.458636 
L 100.456344 -219.797185 
L 97.177007 -224.299655 
L 93.89767 -228.906405 
L 90.61833 -233.55992 
L 87.33899 -238.20494 
L 84.059653 -242.790231 
L 80.780313 -247.269228 
L 77.500973 -251.600611 
L 74.221636 -255.749084 
L 70.942296 -259.685255 
L 67.662958 -263.386076 
L 64.383619 -266.834692 
L 61.10428 -270.020219 
L 57.824941 -272.937476 
L 54.545602 -275.586429 
z
" style="stroke: #1f77b4; stroke-opacity: 0.5; stroke-width: 0.8"/>
    </defs>
    <g clip-path="url(#pfa75df92ef)">
     <use xlink:href="#mf3a0a56486" x="0" y="309.639375" style="fill: #1f77b4; fill-opacity: 0.5; stroke: #1f77b4; stroke-opacity: 0.5; stroke-width: 0.8"/>
    </g>
   </g>
   <g id="PolyCollection_2">
    <defs>
     <path id="m94951a1a7e" d="M 54.545602 -139.739149 
L 54.545602 -139.739149 
L 57.824941 -141.773884 
L 61.10428 -144.062902 
L 64.383619 -146.610838 
L 67.662958 -149.417649 
L 70.942296 -152.478053 
L 74.221636 -155.7811 
L 77.500973 -159.309947 
L 80.780313 -163.04156 
L 84.059653 -166.94703 
L 87.33899 -170.991411 
L 90.61833 -175.13431 
L 93.89767 -179.330388 
L 97.177007 -183.529867 
L 100.456344 -187.680185 
L 103.735686 -191.726054 
L 107.015024 -195.611041 
L 110.294361 -199.279301 
L 113.573703 -202.673183 
L 116.853041 -200.922203 
L 120.132378 -198.265433 
L 123.41172 -196.092809 
L 126.691057 -194.439612 
L 129.970395 -193.333729 
L 133.249737 -192.79343 
L 136.529069 -192.828627 
L 139.808412 -193.439273 
L 143.087754 -194.616015 
L 146.367086 -196.340346 
L 149.646428 -198.585042 
L 152.92577 -201.314285 
L 156.205103 -204.486126 
L 159.484445 -203.545524 
L 162.763787 -200.261499 
L 166.04312 -196.699932 
L 169.322462 -192.915284 
L 172.601804 -188.962784 
L 175.881137 -184.8981 
L 179.160479 -180.775548 
L 182.439821 -176.647176 
L 185.719153 -172.561918 
L 188.998496 -168.564411 
L 192.277838 -164.694545 
L 195.55717 -160.986757 
L 198.836512 -157.469762 
L 202.115855 -154.166336 
L 205.395187 -151.093348 
L 208.674529 -148.261876 
L 211.953871 -145.677568 
L 215.233204 -143.341041 
L 218.512556 -141.248429 
L 221.791879 -139.392085 
L 225.071221 -137.761139 
L 228.350563 -136.342364 
L 231.629886 -135.120824 
L 234.909247 -134.080624 
L 238.18857 -133.205633 
L 241.467912 -132.480087 
L 244.747254 -131.889234 
L 248.026597 -131.419795 
L 251.305939 -131.060476 
L 254.585262 -130.802262 
L 257.864623 -130.638737 
L 261.143946 -130.566251 
L 264.423288 -130.584036 
L 267.70263 -130.694224 
L 270.981953 -130.901787 
L 274.261315 -131.214426 
L 277.540637 -131.642323 
L 280.81998 -132.197901 
L 284.099322 -132.895505 
L 287.378664 -133.750938 
L 290.658006 -134.781092 
L 293.937329 -136.003379 
L 297.21669 -137.435308 
L 300.496013 -139.093765 
L 303.775355 -140.994696 
L 307.054697 -143.152277 
L 310.33402 -145.578591 
L 313.613382 -148.283016 
L 316.892705 -151.271759 
L 320.172047 -154.547519 
L 323.451389 -158.10914 
L 326.730731 -161.951291 
L 330.010073 -166.064441 
L 333.289396 -170.434801 
L 336.568738 -175.044347 
L 339.84808 -179.871197 
L 343.127423 -184.889273 
L 346.406765 -190.069554 
L 349.686088 -195.380581 
L 352.96543 -200.788012 
L 356.244772 -206.252096 
L 359.524114 -201.136253 
L 362.803456 -195.723942 
L 366.082798 -190.406208 
L 369.362141 -185.216626 
L 372.641463 -180.187249 
L 375.920806 -175.347722 
L 379.200148 -170.723609 
L 379.200148 -170.723609 
L 379.200148 -170.723609 
L 375.920806 -175.347722 
L 372.641463 -180.187249 
L 369.362141 -185.216626 
L 366.082798 -190.406208 
L 362.803456 -195.723942 
L 359.524114 -201.136253 
L 356.244772 -206.252096 
L 352.96543 -200.788012 
L 349.686088 -195.380581 
L 346.406765 -190.069554 
L 343.127423 -184.889273 
L 339.84808 -179.871197 
L 336.568738 -175.044347 
L 333.289396 -170.434801 
L 330.010073 -166.064441 
L 326.730731 -161.951291 
L 323.451389 -158.10914 
L 320.172047 -154.547519 
L 316.892705 -151.271759 
L 313.613382 -148.283016 
L 310.33402 -145.578591 
L 307.054697 -143.152277 
L 303.775355 -140.994696 
L 300.496013 -139.093765 
L 297.21669 -137.435308 
L 293.937329 -136.003379 
L 290.658006 -134.781092 
L 287.378664 -133.750938 
L 284.099322 -132.895505 
L 280.81998 -132.197901 
L 277.540637 -131.642323 
L 274.261315 -131.214426 
L 270.981953 -130.901787 
L 267.70263 -130.694224 
L 264.423288 -130.584036 
L 261.143946 -130.566251 
L 257.864623 -130.638737 
L 254.585262 -130.802262 
L 251.305939 -131.060476 
L 248.026597 -131.419795 
L 244.747254 -131.889234 
L 241.467912 -132.480087 
L 238.18857 -133.205633 
L 234.909247 -134.080624 
L 231.629886 -135.120824 
L 228.350563 -136.342364 
L 225.071221 -137.761139 
L 221.791879 -139.392085 
L 218.512556 -141.248429 
L 215.233204 -143.341041 
L 211.953871 -145.677568 
L 208.674529 -148.261876 
L 205.395187 -151.093348 
L 202.115855 -154.166336 
L 198.836512 -157.469762 
L 195.55717 -160.986757 
L 192.277838 -164.694545 
L 188.998496 -168.564411 
L 185.719153 -172.561918 
L 182.439821 -176.647176 
L 179.160479 -180.775548 
L 175.881137 -184.8981 
L 172.601804 -188.962784 
L 169.322462 -192.915284 
L 166.04312 -196.699932 
L 162.763787 -200.261499 
L 159.484445 -203.545524 
L 156.205103 -204.486126 
L 152.92577 -201.314285 
L 149.646428 -198.585042 
L 146.367086 -196.340346 
L 143.087754 -194.616015 
L 139.808412 -193.439273 
L 136.529069 -192.828627 
L 133.249737 -192.79343 
L 129.970395 -193.333729 
L 126.691057 -194.439612 
L 123.41172 -196.092809 
L 120.132378 -198.265433 
L 116.853041 -200.922203 
L 113.573703 -202.673183 
L 110.294361 -199.279301 
L 107.015024 -195.611041 
L 103.735686 -191.726054 
L 100.456344 -187.680185 
L 97.177007 -183.529867 
L 93.89767 -179.330388 
L 90.61833 -175.13431 
L 87.33899 -170.991411 
L 84.059653 -166.94703 
L 80.780313 -163.04156 
L 77.500973 -159.309947 
L 74.221636 -155.7811 
L 70.942296 -152.478053 
L 67.662958 -149.417649 
L 64.383619 -146.610838 
L 61.10428 -144.062902 
L 57.824941 -141.773884 
L 54.545602 -139.739149 
z
" style="stroke: #ff7f0e; stroke-opacity: 0.5; stroke-width: 0.8"/>
    </defs>
    <g clip-path="url(#pfa75df92ef)">
     <use xlink:href="#m94951a1a7e" x="0" y="309.639375" style="fill: #ff7f0e; fill-opacity: 0.5; stroke: #ff7f0e; stroke-opacity: 0.5; stroke-width: 0.8"/>
    </g>
   </g>
   <g id="PolyCollection_3">
    <defs>
     <path id="m672158ccef" d="M 54.545602 -275.586429 
L 54.545602 -275.586429 
L 57.824941 -272.937476 
L 61.10428 -270.020219 
L 64.383619 -266.834692 
L 67.662958 -263.386076 
L 70.942296 -259.685255 
L 74.221636 -255.749084 
L 77.500973 -251.600611 
L 80.780313 -247.269228 
L 84.059653 -242.790231 
L 87.33899 -238.20494 
L 90.61833 -233.55992 
L 93.89767 -228.906405 
L 97.177007 -224.299655 
L 100.456344 -219.797185 
L 103.735686 -215.458636 
L 107.015024 -211.34407 
L 110.294361 -207.512173 
L 113.573703 -204.02261 
L 116.853041 -205.746958 
L 120.132378 -208.446358 
L 123.41172 -210.730165 
L 126.691057 -212.561503 
L 129.970395 -213.910016 
L 133.249737 -214.754195 
L 136.529069 -215.080134 
L 139.808412 -214.883262 
L 143.087754 -214.167767 
L 146.367086 -212.94655 
L 149.646428 -211.240908 
L 152.92577 -209.080513 
L 156.205103 -206.501072 
L 159.484445 -208.051399 
L 162.763787 -211.956346 
L 166.04312 -216.144121 
L 169.322462 -220.554636 
L 172.601804 -225.127394 
L 175.881137 -229.80188 
L 179.160479 -234.519392 
L 182.439821 -239.223983 
L 185.719153 -243.863329 
L 188.998496 -248.389918 
L 192.277838 -252.761482 
L 195.55717 -256.941681 
L 198.836512 -260.900352 
L 202.115855 -264.613709 
L 205.395187 -268.064204 
L 208.674529 -271.240438 
L 211.953871 -274.136705 
L 215.233204 -276.752563 
L 218.512556 -279.092217 
L 221.791879 -281.163791 
L 225.071221 -282.978708 
L 228.350563 -284.550807 
L 231.629886 -285.895625 
L 234.909247 -287.029661 
L 238.18857 -287.969597 
L 241.467912 -288.731705 
L 244.747254 -289.331161 
L 248.026597 -289.781635 
L 251.305939 -290.09474 
L 254.585262 -290.279755 
L 257.864623 -290.343375 
L 261.143946 -290.289495 
L 264.423288 -290.119172 
L 267.70263 -289.830626 
L 270.981953 -289.41935 
L 274.261315 -288.878226 
L 277.540637 -288.19783 
L 280.81998 -287.366708 
L 284.099322 -286.37174 
L 287.378664 -285.19859 
L 290.658006 -283.83215 
L 293.937329 -282.257099 
L 297.21669 -280.458317 
L 300.496013 -278.421644 
L 303.775355 -276.134175 
L 307.054697 -273.585045 
L 310.33402 -270.765765 
L 313.613382 -267.670752 
L 316.892705 -264.297792 
L 320.172047 -260.648284 
L 323.451389 -256.727529 
L 326.730731 -252.545014 
L 330.010073 -248.114321 
L 333.289396 -243.453133 
L 336.568738 -238.583119 
L 339.84808 -233.529518 
L 343.127423 -228.321369 
L 346.406765 -222.990222 
L 349.686088 -217.56955 
L 352.96543 -212.095191 
L 356.244772 -206.607825 
L 359.524114 -211.744339 
L 362.803456 -217.221017 
L 366.082798 -222.645935 
L 369.362141 -227.984084 
L 372.641463 -233.201444 
L 375.920806 -238.265878 
L 379.200148 -243.148938 
L 379.200148 -243.148938 
L 379.200148 -243.148938 
L 375.920806 -238.265878 
L 372.641463 -233.201444 
L 369.362141 -227.984084 
L 366.082798 -222.645935 
L 362.803456 -217.221017 
L 359.524114 -211.744339 
L 356.244772 -206.607825 
L 352.96543 -212.095191 
L 349.686088 -217.56955 
L 346.406765 -222.990222 
L 343.127423 -228.321369 
L 339.84808 -233.529518 
L 336.568738 -238.583119 
L 333.289396 -243.453133 
L 330.010073 -248.114321 
L 326.730731 -252.545014 
L 323.451389 -256.727529 
L 320.172047 -260.648284 
L 316.892705 -264.297792 
L 313.613382 -267.670752 
L 310.33402 -270.765765 
L 307.054697 -273.585045 
L 303.775355 -276.134175 
L 300.496013 -278.421644 
L 297.21669 -280.458317 
L 293.937329 -282.257099 
L 290.658006 -283.83215 
L 287.378664 -285.19859 
L 284.099322 -286.37174 
L 280.81998 -287.366708 
L 277.540637 -288.19783 
L 274.261315 -288.878226 
L 270.981953 -289.41935 
L 267.70263 -289.830626 
L 264.423288 -290.119172 
L 261.143946 -290.289495 
L 257.864623 -290.343375 
L 254.585262 -290.279755 
L 251.305939 -290.09474 
L 248.026597 -289.781635 
L 244.747254 -289.331161 
L 241.467912 -288.731705 
L 238.18857 -287.969597 
L 234.909247 -287.029661 
L 231.629886 -285.895625 
L 228.350563 -284.550807 
L 225.071221 -282.978708 
L 221.791879 -281.163791 
L 218.512556 -279.092217 
L 215.233204 -276.752563 
L 211.953871 -274.136705 
L 208.674529 -271.240438 
L 205.395187 -268.064204 
L 202.115855 -264.613709 
L 198.836512 -260.900352 
L 195.55717 -256.941681 
L 192.277838 -252.761482 
L 188.998496 -248.389918 
L 185.719153 -243.863329 
L 182.439821 -239.223983 
L 179.160479 -234.519392 
L 175.881137 -229.80188 
L 172.601804 -225.127394 
L 169.322462 -220.554636 
L 166.04312 -216.144121 
L 162.763787 -211.956346 
L 159.484445 -208.051399 
L 156.205103 -206.501072 
L 152.92577 -209.080513 
L 149.646428 -211.240908 
L 146.367086 -212.94655 
L 143.087754 -214.167767 
L 139.808412 -214.883262 
L 136.529069 -215.080134 
L 133.249737 -214.754195 
L 129.970395 -213.910016 
L 126.691057 -212.561503 
L 123.41172 -210.730165 
L 120.132378 -208.446358 
L 116.853041 -205.746958 
L 113.573703 -204.02261 
L 110.294361 -207.512173 
L 107.015024 -211.34407 
L 103.735686 -215.458636 
L 100.456344 -219.797185 
L 97.177007 -224.299655 
L 93.89767 -228.906405 
L 90.61833 -233.55992 
L 87.33899 -238.20494 
L 84.059653 -242.790231 
L 80.780313 -247.269228 
L 77.500973 -251.600611 
L 74.221636 -255.749084 
L 70.942296 -259.685255 
L 67.662958 -263.386076 
L 64.383619 -266.834692 
L 61.10428 -270.020219 
L 57.824941 -272.937476 
L 54.545602 -275.586429 
z
" style="stroke: #ff7f0e; stroke-opacity: 0.5; stroke-width: 0.8"/>
    </defs>
    <g clip-path="url(#pfa75df92ef)">
     <use xlink:href="#m672158ccef" x="0" y="309.639375" style="fill: #ff7f0e; fill-opacity: 0.5; stroke: #ff7f0e; stroke-opacity: 0.5; stroke-width: 0.8"/>
    </g>
   </g>
   <g id="line2d_14">
    <defs>
     <path id="mb6c7ad4a3f" d="M -5 5 
L 5 -5 
M -5 -5 
L 5 5 
" style="stroke: #000000; stroke-width: 2"/>
    </defs>
    <g clip-path="url(#pfa75df92ef)">
     <use xlink:href="#mb6c7ad4a3f" x="356.349693" y="103.209424" style="stroke: #000000; stroke-width: 2"/>
     <use xlink:href="#mb6c7ad4a3f" x="157.258364" y="104.048656" style="stroke: #000000; stroke-width: 2"/>
     <use xlink:href="#mb6c7ad4a3f" x="114.255683" y="106.297103" style="stroke: #000000; stroke-width: 2"/>
    </g>
   </g>
   <g id="line2d_15">
    <path d="M 54.545602 101.976586 
L 57.824941 102.283694 
L 61.10428 102.597814 
L 64.383619 102.916612 
L 67.662958 103.237512 
L 70.942296 103.557723 
L 74.221636 103.874282 
L 77.500973 104.184095 
L 80.780313 104.483982 
L 84.059653 104.770743 
L 87.33899 105.041199 
L 90.61833 105.29226 
L 93.89767 105.520979 
L 97.177007 105.724614 
L 100.456344 105.900689 
L 103.735686 106.04703 
L 107.015024 106.16182 
L 110.294361 106.243638 
L 113.573703 106.291479 
L 116.853041 106.304795 
L 120.132378 106.283479 
L 123.41172 106.227888 
L 126.691057 106.138818 
L 129.970395 106.017502 
L 133.249737 105.865562 
L 136.529069 105.684995 
L 139.808412 105.478108 
L 143.087754 105.247484 
L 146.367086 104.995927 
L 149.646428 104.726401 
L 152.92577 104.441976 
L 156.205103 104.145776 
L 159.484445 103.840914 
L 162.763787 103.530453 
L 166.04312 103.217348 
L 169.322462 102.904415 
L 172.601804 102.594286 
L 175.881137 102.289384 
L 179.160479 101.991905 
L 182.439821 101.703795 
L 185.719153 101.426751 
L 188.998496 101.16221 
L 192.277838 100.911363 
L 195.55717 100.675158 
L 198.836512 100.454316 
L 202.115855 100.249353 
L 205.395187 100.060599 
L 208.674529 99.888217 
L 211.953871 99.732236 
L 215.233204 99.592573 
L 218.512556 99.469051 
L 221.791879 99.361438 
L 225.071221 99.269452 
L 228.350563 99.192791 
L 231.629886 99.13115 
L 234.909247 99.084232 
L 238.18857 99.051759 
L 241.467912 99.03348 
L 244.747254 99.029176 
L 248.026597 99.03866 
L 251.305939 99.061769 
L 254.585262 99.098365 
L 257.864623 99.14832 
L 261.143946 99.211503 
L 264.423288 99.287771 
L 267.70263 99.376948 
L 270.981953 99.478806 
L 274.261315 99.593051 
L 277.540637 99.719301 
L 280.81998 99.85707 
L 284.099322 100.005755 
L 287.378664 100.164611 
L 290.658006 100.332754 
L 293.937329 100.509137 
L 297.21669 100.692565 
L 300.496013 100.881669 
L 303.775355 101.07494 
L 307.054697 101.270713 
L 310.33402 101.467198 
L 313.613382 101.66249 
L 316.892705 101.854598 
L 320.172047 102.041474 
L 323.451389 102.221039 
L 326.730731 102.391221 
L 330.010073 102.549994 
L 333.289396 102.695409 
L 336.568738 102.825641 
L 339.84808 102.939019 
L 343.127423 103.034054 
L 346.406765 103.109487 
L 349.686088 103.16431 
L 352.96543 103.197774 
L 356.244772 103.209414 
L 359.524114 103.199079 
L 362.803456 103.166895 
L 366.082798 103.113304 
L 369.362141 103.039021 
L 372.641463 102.94503 
L 375.920806 102.832574 
L 379.200148 102.703101 
" clip-path="url(#pfa75df92ef)" style="fill: none; stroke: #1f77b4; stroke-width: 2; stroke-linecap: round"/>
   </g>
   <g id="line2d_16">
    <path d="M 54.545602 179.219315 
L 57.824941 174.249548 
L 61.10428 169.29822 
L 64.383619 164.383697 
L 67.662958 159.524273 
L 70.942296 154.738039 
L 74.221636 150.042911 
L 77.500973 145.456491 
L 80.780313 140.99603 
L 84.059653 136.6784 
L 87.33899 132.519983 
L 90.61833 128.536651 
L 93.89767 124.7437 
L 97.177007 121.155797 
L 100.456344 117.786915 
L 103.735686 114.650331 
L 107.015024 111.758526 
L 110.294361 109.123173 
L 113.573703 106.755076 
L 116.853041 104.664159 
L 120.132378 102.859418 
L 123.41172 101.348876 
L 126.691057 100.139572 
L 129.970395 99.237532 
L 133.249737 98.647733 
L 136.529069 98.374097 
L 139.808412 98.419476 
L 143.087754 98.785611 
L 146.367086 99.47315 
L 149.646428 100.48163 
L 152.92577 101.809459 
L 156.205103 103.453908 
L 159.484445 105.411151 
L 162.763787 107.676193 
L 166.04312 110.242939 
L 169.322462 113.104155 
L 172.601804 116.251484 
L 175.881137 119.675455 
L 179.160479 123.365467 
L 182.439821 127.309858 
L 185.719153 131.495801 
L 188.998496 135.909432 
L 192.277838 140.535748 
L 195.55717 145.358728 
L 198.836512 150.361221 
L 202.115855 155.524996 
L 205.395187 160.830762 
L 208.674529 166.258171 
L 211.953871 171.785746 
L 215.233204 177.390973 
L 218.512556 183.050241 
L 221.791879 188.738792 
L 225.071221 194.430838 
L 228.350563 200.099453 
L 231.629886 205.716445 
L 234.909247 211.252731 
L 238.18857 216.67776 
L 241.467912 221.96006 
L 244.747254 227.066827 
L 248.026597 231.964114 
L 251.305939 236.616834 
L 254.585262 240.988641 
L 257.864623 245.042148 
L 261.143946 248.738812 
L 264.423288 252.03913 
L 267.70263 254.902667 
L 270.981953 257.288306 
L 274.261315 259.154332 
L 277.540637 260.458792 
L 280.81998 261.159804 
L 284.099322 261.216 
L 287.378664 260.587071 
L 290.658006 259.234494 
L 293.937329 257.12233 
L 297.21669 254.218153 
L 300.496013 250.494649 
L 303.775355 245.930481 
L 307.054697 240.512541 
L 310.33402 234.237837 
L 313.613382 227.115556 
L 316.892705 219.170179 
L 320.172047 210.444094 
L 323.451389 201.001051 
L 326.730731 190.929779 
L 330.010073 180.347602 
L 333.289396 169.404277 
L 336.568738 158.285662 
L 339.84808 147.216645 
L 343.127423 136.463583 
L 346.406765 126.33522 
L 349.686088 117.181069 
L 352.96543 109.387103 
L 356.244772 103.367919 
L 359.524114 99.55256 
L 362.803456 98.364858 
L 366.082798 100.195569 
L 369.362141 105.365914 
L 372.641463 114.082133 
L 375.920806 126.381332 
L 379.200148 142.071165 
" clip-path="url(#pfa75df92ef)" style="fill: none; stroke-dasharray: 7.68,1.92,1.2,1.92; stroke-dashoffset: 0; stroke: #bf00bf; stroke-width: 1.2"/>
   </g>
   <g id="line2d_17">
    <path d="M 54.545602 118.728556 
L 57.824941 119.452461 
L 61.10428 120.112889 
L 64.383619 120.202221 
L 67.662958 120.340826 
L 70.942296 120.689167 
L 74.221636 120.52847 
L 77.500973 120.32616 
L 80.780313 120.093009 
L 84.059653 119.608543 
L 87.33899 118.633774 
L 90.61833 117.717499 
L 93.89767 117.225001 
L 97.177007 115.168635 
L 100.456344 113.952127 
L 103.735686 112.060625 
L 107.015024 110.845493 
L 110.294361 108.392258 
L 113.573703 106.385379 
L 116.853041 104.859639 
L 120.132378 103.367439 
L 123.41172 101.545128 
L 126.691057 100.000697 
L 129.970395 98.904705 
L 133.249737 98.008057 
L 136.529069 97.866863 
L 139.808412 97.632133 
L 143.087754 98.173673 
L 146.367086 98.805344 
L 149.646428 99.570063 
L 152.92577 101.465256 
L 156.205103 103.427506 
L 159.484445 105.697474 
L 162.763787 108.238608 
L 166.04312 110.987564 
L 169.322462 113.946233 
L 172.601804 117.268845 
L 175.881137 120.108221 
L 179.160479 122.502702 
L 182.439821 125.212338 
L 185.719153 127.256294 
L 188.998496 129.355795 
L 192.277838 130.993418 
L 195.55717 131.613347 
L 198.836512 132.893627 
L 202.115855 133.172494 
L 205.395187 132.584863 
L 208.674529 132.149676 
L 211.953871 130.803492 
L 215.233204 128.934374 
L 218.512556 127.111331 
L 221.791879 125.144083 
L 225.071221 123.202598 
L 228.350563 120.774578 
L 231.629886 118.170684 
L 234.909247 115.549403 
L 238.18857 112.969166 
L 241.467912 110.530786 
L 244.747254 108.384097 
L 248.026597 106.302474 
L 251.305939 104.455255 
L 254.585262 102.755897 
L 257.864623 101.655799 
L 261.143946 99.991259 
L 264.423288 99.014239 
L 267.70263 98.21125 
L 270.981953 98.239301 
L 274.261315 97.166724 
L 277.540637 96.998721 
L 280.81998 96.814501 
L 284.099322 95.953071 
L 287.378664 95.743279 
L 290.658006 96.038039 
L 293.937329 96.302409 
L 297.21669 95.848652 
L 300.496013 95.197301 
L 303.775355 94.791169 
L 307.054697 94.524681 
L 310.33402 94.823335 
L 313.613382 94.288725 
L 316.892705 93.832714 
L 320.172047 93.749663 
L 323.451389 93.992112 
L 326.730731 94.449872 
L 330.010073 94.922706 
L 333.289396 94.91597 
L 336.568738 95.511716 
L 339.84808 96.282614 
L 343.127423 97.209199 
L 346.406765 98.645706 
L 349.686088 100.082136 
L 352.96543 101.64395 
L 356.244772 103.39882 
L 359.524114 104.708385 
L 362.803456 106.796529 
L 366.082798 109.390989 
L 369.362141 110.892399 
L 372.641463 112.156095 
L 375.920806 114.547765 
L 379.200148 116.038025 
" clip-path="url(#pfa75df92ef)" style="fill: none; stroke: #ff0000; stroke-width: 0.5; stroke-linecap: round"/>
   </g>
   <g id="line2d_18">
    <path d="M 54.545602 144.194157 
L 57.824941 144.046538 
L 61.10428 144.095738 
L 64.383619 143.015204 
L 67.662958 142.606137 
L 70.942296 141.47602 
L 74.221636 140.192438 
L 77.500973 138.410834 
L 80.780313 136.384027 
L 84.059653 134.497279 
L 87.33899 131.783589 
L 90.61833 128.830638 
L 93.89767 125.697362 
L 97.177007 122.716583 
L 100.456344 119.402752 
L 103.735686 115.752844 
L 107.015024 112.840669 
L 110.294361 109.718362 
L 113.573703 106.494646 
L 116.853041 104.322318 
L 120.132378 102.082789 
L 123.41172 100.302152 
L 126.691057 98.1814 
L 129.970395 97.556619 
L 133.249737 96.894139 
L 136.529069 96.793241 
L 139.808412 97.289142 
L 143.087754 97.635362 
L 146.367086 98.721376 
L 149.646428 100.616727 
L 152.92577 101.687477 
L 156.205103 103.897542 
L 159.484445 105.612522 
L 162.763787 107.097925 
L 166.04312 108.463365 
L 169.322462 109.860994 
L 172.601804 111.202166 
L 175.881137 112.656843 
L 179.160479 113.922768 
L 182.439821 114.040508 
L 185.719153 114.499561 
L 188.998496 114.683372 
L 192.277838 114.271305 
L 195.55717 113.828324 
L 198.836512 112.920522 
L 202.115855 112.26498 
L 205.395187 110.536805 
L 208.674529 109.22599 
L 211.953871 107.489388 
L 215.233204 106.2818 
L 218.512556 103.474352 
L 221.791879 101.468738 
L 225.071221 99.008901 
L 228.350563 96.889796 
L 231.629886 94.204125 
L 234.909247 91.743675 
L 238.18857 88.704557 
L 241.467912 85.733207 
L 244.747254 82.984973 
L 248.026597 80.154616 
L 251.305939 76.924692 
L 254.585262 74.275669 
L 257.864623 71.400695 
L 261.143946 68.991169 
L 264.423288 66.030071 
L 267.70263 64.114304 
L 270.981953 61.61725 
L 274.261315 60.202566 
L 277.540637 57.976142 
L 280.81998 57.17027 
L 284.099322 56.306617 
L 287.378664 55.614077 
L 290.658006 55.834425 
L 293.937329 56.297974 
L 297.21669 56.757105 
L 300.496013 58.300229 
L 303.775355 60.025873 
L 307.054697 62.220931 
L 310.33402 64.727451 
L 313.613382 67.186878 
L 316.892705 70.500398 
L 320.172047 73.560867 
L 323.451389 77.040109 
L 326.730731 80.44177 
L 330.010073 83.503093 
L 333.289396 86.657809 
L 336.568738 90.275436 
L 339.84808 92.906925 
L 343.127423 95.691309 
L 346.406765 98.06941 
L 349.686088 100.363311 
L 352.96543 101.633449 
L 356.244772 103.327107 
L 359.524114 104.11326 
L 362.803456 104.411085 
L 366.082798 104.778501 
L 369.362141 104.777337 
L 372.641463 103.973358 
L 375.920806 103.261287 
L 379.200148 102.758879 
" clip-path="url(#pfa75df92ef)" style="fill: none; stroke: #ff0000; stroke-width: 0.5; stroke-linecap: round"/>
   </g>
   <g id="line2d_19">
    <path d="M 54.545602 148.472055 
L 57.824941 144.72942 
L 61.10428 141.927911 
L 64.383619 137.82161 
L 67.662958 134.638916 
L 70.942296 131.341693 
L 74.221636 128.051093 
L 77.500973 124.864089 
L 80.780313 121.974037 
L 84.059653 119.078081 
L 87.33899 116.657507 
L 90.61833 114.574029 
L 93.89767 112.630625 
L 97.177007 111.303115 
L 100.456344 110.094529 
L 103.735686 108.742452 
L 107.015024 107.64919 
L 110.294361 106.860717 
L 113.573703 106.515314 
L 116.853041 106.313796 
L 120.132378 106.004877 
L 123.41172 105.629523 
L 126.691057 105.45715 
L 129.970395 105.468659 
L 133.249737 105.101882 
L 136.529069 105.411622 
L 139.808412 105.343198 
L 143.087754 105.452821 
L 146.367086 105.064321 
L 149.646428 104.95715 
L 152.92577 104.593566 
L 156.205103 104.588176 
L 159.484445 103.807172 
L 162.763787 103.340199 
L 166.04312 101.941287 
L 169.322462 101.331828 
L 172.601804 100.241534 
L 175.881137 99.14935 
L 179.160479 97.876552 
L 182.439821 96.237316 
L 185.719153 95.392902 
L 188.998496 93.56736 
L 192.277838 92.080229 
L 195.55717 90.43745 
L 198.836512 89.307279 
L 202.115855 87.55087 
L 205.395187 86.025209 
L 208.674529 85.03753 
L 211.953871 83.526451 
L 215.233204 82.748715 
L 218.512556 81.944816 
L 221.791879 81.004536 
L 225.071221 80.201124 
L 228.350563 80.080659 
L 231.629886 80.016035 
L 234.909247 80.430158 
L 238.18857 80.635707 
L 241.467912 81.193557 
L 244.747254 82.540416 
L 248.026597 83.835278 
L 251.305939 85.762132 
L 254.585262 86.720361 
L 257.864623 88.578261 
L 261.143946 90.992012 
L 264.423288 92.682078 
L 267.70263 94.951546 
L 270.981953 97.168779 
L 274.261315 99.40299 
L 277.540637 101.356204 
L 280.81998 103.751559 
L 284.099322 105.350333 
L 287.378664 106.845991 
L 290.658006 108.144794 
L 293.937329 110.079509 
L 297.21669 110.928036 
L 300.496013 111.999824 
L 303.775355 112.413114 
L 307.054697 112.474126 
L 310.33402 112.601607 
L 313.613382 112.44198 
L 316.892705 111.68814 
L 320.172047 111.199319 
L 323.451389 110.566171 
L 326.730731 109.233041 
L 330.010073 108.266113 
L 333.289396 107.430064 
L 336.568738 106.171175 
L 339.84808 105.712926 
L 343.127423 104.896813 
L 346.406765 103.616955 
L 349.686088 103.629827 
L 352.96543 103.159828 
L 356.244772 103.102319 
L 359.524114 103.782832 
L 362.803456 104.056368 
L 366.082798 104.954751 
L 369.362141 106.529565 
L 372.641463 108.281399 
L 375.920806 109.918266 
L 379.200148 112.46701 
" clip-path="url(#pfa75df92ef)" style="fill: none; stroke: #ff0000; stroke-width: 0.5; stroke-linecap: round"/>
   </g>
   <g id="line2d_20">
    <path d="M 54.545602 97.821917 
L 57.824941 97.7134 
L 61.10428 96.562049 
L 64.383619 96.002247 
L 67.662958 95.029611 
L 70.942296 94.361175 
L 74.221636 93.686422 
L 77.500973 93.550891 
L 80.780313 93.370519 
L 84.059653 93.037224 
L 87.33899 93.842248 
L 90.61833 94.942518 
L 93.89767 96.101252 
L 97.177007 97.466996 
L 100.456344 98.503977 
L 103.735686 100.307585 
L 107.015024 101.760187 
L 110.294361 104.114991 
L 113.573703 105.8417 
L 116.853041 108.029344 
L 120.132378 109.414812 
L 123.41172 111.033597 
L 126.691057 112.082936 
L 129.970395 112.605265 
L 133.249737 113.235225 
L 136.529069 113.599694 
L 139.808412 112.635216 
L 143.087754 112.255378 
L 146.367086 110.803318 
L 149.646428 109.366351 
L 152.92577 107.177433 
L 156.205103 104.919781 
L 159.484445 102.253905 
L 162.763787 99.20578 
L 166.04312 96.490832 
L 169.322462 93.752535 
L 172.601804 90.579525 
L 175.881137 87.410777 
L 179.160479 84.97252 
L 182.439821 82.507708 
L 185.719153 80.295755 
L 188.998496 78.227066 
L 192.277838 76.978968 
L 195.55717 75.79479 
L 198.836512 75.375437 
L 202.115855 74.89454 
L 205.395187 74.587164 
L 208.674529 75.12242 
L 211.953871 75.66881 
L 215.233204 76.370999 
L 218.512556 77.251608 
L 221.791879 78.481143 
L 225.071221 79.955355 
L 228.350563 80.977237 
L 231.629886 82.464626 
L 234.909247 83.683914 
L 238.18857 85.02956 
L 241.467912 86.168458 
L 244.747254 87.047973 
L 248.026597 87.95992 
L 251.305939 88.946443 
L 254.585262 89.904423 
L 257.864623 90.678044 
L 261.143946 91.281626 
L 264.423288 92.044675 
L 267.70263 92.144531 
L 270.981953 92.938172 
L 274.261315 93.699702 
L 277.540637 94.424568 
L 280.81998 95.593153 
L 284.099322 96.703753 
L 287.378664 97.184697 
L 290.658006 98.245115 
L 293.937329 98.868402 
L 297.21669 100.391663 
L 300.496013 101.436242 
L 303.775355 102.113066 
L 307.054697 103.665644 
L 310.33402 104.486974 
L 313.613382 105.519172 
L 316.892705 106.154828 
L 320.172047 106.796347 
L 323.451389 107.775255 
L 326.730731 108.126137 
L 330.010073 108.195749 
L 333.289396 108.495206 
L 336.568738 108.403876 
L 339.84808 108.309625 
L 343.127423 107.71986 
L 346.406765 107.379921 
L 349.686088 106.111464 
L 352.96543 105.478144 
L 356.244772 103.107357 
L 359.524114 101.362123 
L 362.803456 99.57176 
L 366.082798 97.206813 
L 369.362141 95.230792 
L 372.641463 92.740692 
L 375.920806 89.786913 
L 379.200148 87.52312 
" clip-path="url(#pfa75df92ef)" style="fill: none; stroke: #ff0000; stroke-width: 0.5; stroke-linecap: round"/>
   </g>
   <g id="line2d_21">
    <path d="M 54.545602 131.647512 
L 57.824941 130.665824 
L 61.10428 128.813445 
L 64.383619 127.018748 
L 67.662958 124.969306 
L 70.942296 122.72079 
L 74.221636 120.370354 
L 77.500973 118.062931 
L 80.780313 116.151308 
L 84.059653 113.799967 
L 87.33899 111.710838 
L 90.61833 110.03064 
L 93.89767 109.095093 
L 97.177007 108.018667 
L 100.456344 107.360125 
L 103.735686 106.372569 
L 107.015024 106.086476 
L 110.294361 106.083413 
L 113.573703 106.260462 
L 116.853041 106.422853 
L 120.132378 106.843737 
L 123.41172 107.562357 
L 126.691057 107.649488 
L 129.970395 108.016105 
L 133.249737 108.585686 
L 136.529069 108.395476 
L 139.808412 108.267282 
L 143.087754 108.248454 
L 146.367086 107.240092 
L 149.646428 106.900502 
L 152.92577 105.695789 
L 156.205103 104.236346 
L 159.484445 102.936127 
L 162.763787 101.053266 
L 166.04312 99.452484 
L 169.322462 96.708916 
L 172.601804 94.1489 
L 175.881137 91.449607 
L 179.160479 88.573529 
L 182.439821 85.105747 
L 185.719153 82.104907 
L 188.998496 78.25473 
L 192.277838 74.757057 
L 195.55717 71.131114 
L 198.836512 67.459503 
L 202.115855 63.639027 
L 205.395187 60.43023 
L 208.674529 57.299545 
L 211.953871 54.407303 
L 215.233204 50.972641 
L 218.512556 49.082717 
L 221.791879 46.771074 
L 225.071221 45.429558 
L 228.350563 44.568046 
L 231.629886 44.193175 
L 234.909247 44.502546 
L 238.18857 45.074492 
L 241.467912 47.077406 
L 244.747254 49.195843 
L 248.026597 52.381817 
L 251.305939 55.880274 
L 254.585262 59.932072 
L 257.864623 64.726582 
L 261.143946 70.153776 
L 264.423288 75.294575 
L 267.70263 81.257167 
L 270.981953 86.788549 
L 274.261315 92.939056 
L 277.540637 98.683241 
L 280.81998 104.169988 
L 284.099322 109.491057 
L 287.378664 114.678258 
L 290.658006 118.944587 
L 293.937329 123.039143 
L 297.21669 126.625498 
L 300.496013 129.025514 
L 303.775355 131.739704 
L 307.054697 133.095286 
L 310.33402 133.975856 
L 313.613382 134.495262 
L 316.892705 134.165364 
L 320.172047 133.102912 
L 323.451389 131.85452 
L 326.730731 130.021921 
L 330.010073 128.419095 
L 333.289396 125.414711 
L 336.568738 122.928428 
L 339.84808 119.976225 
L 343.127423 117.001058 
L 346.406765 113.51007 
L 349.686088 109.965335 
L 352.96543 106.702859 
L 356.244772 103.175203 
L 359.524114 99.57445 
L 362.803456 96.716883 
L 366.082798 93.19623 
L 369.362141 90.121312 
L 372.641463 87.154314 
L 375.920806 85.014446 
L 379.200148 81.716111 
" clip-path="url(#pfa75df92ef)" style="fill: none; stroke: #ff0000; stroke-width: 0.5; stroke-linecap: round"/>
   </g>
   <g id="line2d_22">
    <path d="M 54.545602 96.042619 
L 57.824941 96.180549 
L 61.10428 96.579662 
L 64.383619 97.007417 
L 67.662958 97.912138 
L 70.942296 98.579516 
L 74.221636 99.851899 
L 77.500973 100.487601 
L 80.780313 101.378716 
L 84.059653 102.432086 
L 87.33899 103.243584 
L 90.61833 103.719221 
L 93.89767 104.099218 
L 97.177007 105.221089 
L 100.456344 105.635259 
L 103.735686 105.731332 
L 107.015024 105.951723 
L 110.294361 105.895582 
L 113.573703 106.27409 
L 116.853041 106.441751 
L 120.132378 106.684825 
L 123.41172 106.145028 
L 126.691057 106.333956 
L 129.970395 106.066126 
L 133.249737 106.464865 
L 136.529069 106.482772 
L 139.808412 105.735931 
L 143.087754 105.883844 
L 146.367086 105.299023 
L 149.646428 105.095898 
L 152.92577 104.352612 
L 156.205103 104.398269 
L 159.484445 103.799362 
L 162.763787 102.853438 
L 166.04312 102.404777 
L 169.322462 100.956846 
L 172.601804 99.979454 
L 175.881137 98.676835 
L 179.160479 96.901298 
L 182.439821 95.655458 
L 185.719153 93.66989 
L 188.998496 91.758888 
L 192.277838 89.774063 
L 195.55717 87.642486 
L 198.836512 85.485935 
L 202.115855 83.152707 
L 205.395187 81.108943 
L 208.674529 78.978813 
L 211.953871 77.27569 
L 215.233204 75.023606 
L 218.512556 73.342136 
L 221.791879 71.170673 
L 225.071221 69.430881 
L 228.350563 67.677285 
L 231.629886 66.525522 
L 234.909247 64.709396 
L 238.18857 63.764459 
L 241.467912 61.876174 
L 244.747254 60.943856 
L 248.026597 60.118036 
L 251.305939 58.739308 
L 254.585262 58.336446 
L 257.864623 57.785944 
L 261.143946 57.07894 
L 264.423288 57.536415 
L 267.70263 57.065253 
L 270.981953 57.439502 
L 274.261315 58.352012 
L 277.540637 59.534813 
L 280.81998 60.641731 
L 284.099322 62.435598 
L 287.378664 64.311943 
L 290.658006 66.573503 
L 293.937329 69.164776 
L 297.21669 72.292767 
L 300.496013 75.324002 
L 303.775355 78.564953 
L 307.054697 81.597339 
L 310.33402 84.943579 
L 313.613382 88.188763 
L 316.892705 90.96394 
L 320.172047 94.072745 
L 323.451389 96.433157 
L 326.730731 98.821228 
L 330.010073 100.83024 
L 333.289396 102.199597 
L 336.568738 103.634478 
L 339.84808 104.193647 
L 343.127423 104.363087 
L 346.406765 104.46204 
L 349.686088 104.59446 
L 352.96543 104.11416 
L 356.244772 103.12291 
L 359.524114 102.725519 
L 362.803456 101.625965 
L 366.082798 100.6756 
L 369.362141 99.952552 
L 372.641463 99.463438 
L 375.920806 98.935521 
L 379.200148 98.873665 
" clip-path="url(#pfa75df92ef)" style="fill: none; stroke: #ff0000; stroke-width: 0.5; stroke-linecap: round"/>
   </g>
   <g id="line2d_23">
    <path d="M 54.545602 59.759768 
L 57.824941 59.45769 
L 61.10428 59.387996 
L 64.383619 61.154546 
L 67.662958 62.115761 
L 70.942296 64.487395 
L 74.221636 66.737645 
L 77.500973 69.530764 
L 80.780313 72.701977 
L 84.059653 76.205047 
L 87.33899 79.138814 
L 90.61833 82.877101 
L 93.89767 86.109019 
L 97.177007 90.349527 
L 100.456344 93.488408 
L 103.735686 96.758975 
L 107.015024 99.647646 
L 110.294361 103.294296 
L 113.573703 105.766225 
L 116.853041 108.550823 
L 120.132378 110.209904 
L 123.41172 111.920676 
L 126.691057 113.660204 
L 129.970395 114.483723 
L 133.249737 114.881525 
L 136.529069 114.839436 
L 139.808412 114.069193 
L 143.087754 113.444546 
L 146.367086 111.578663 
L 149.646428 109.894751 
L 152.92577 107.184491 
L 156.205103 104.764129 
L 159.484445 101.913029 
L 162.763787 99.424478 
L 166.04312 96.04254 
L 169.322462 92.780371 
L 172.601804 89.889757 
L 175.881137 87.013838 
L 179.160479 84.650221 
L 182.439821 82.251287 
L 185.719153 80.348288 
L 188.998496 79.01894 
L 192.277838 77.870306 
L 195.55717 76.826542 
L 198.836512 76.760288 
L 202.115855 76.875383 
L 205.395187 77.071766 
L 208.674529 78.71477 
L 211.953871 79.253397 
L 215.233204 81.3534 
L 218.512556 82.672811 
L 221.791879 84.446502 
L 225.071221 87.05417 
L 228.350563 88.892244 
L 231.629886 91.041604 
L 234.909247 93.512796 
L 238.18857 95.609694 
L 241.467912 97.416589 
L 244.747254 99.478329 
L 248.026597 100.728274 
L 251.305939 102.238783 
L 254.585262 103.666602 
L 257.864623 105.213459 
L 261.143946 106.18641 
L 264.423288 107.050008 
L 267.70263 108.344258 
L 270.981953 108.633127 
L 274.261315 108.697098 
L 277.540637 109.371934 
L 280.81998 109.911154 
L 284.099322 110.384494 
L 287.378664 111.076277 
L 290.658006 111.270079 
L 293.937329 111.782655 
L 297.21669 112.438317 
L 300.496013 113.813512 
L 303.775355 114.126213 
L 307.054697 115.114412 
L 310.33402 116.83402 
L 313.613382 117.414811 
L 316.892705 118.642771 
L 320.172047 119.665161 
L 323.451389 120.649394 
L 326.730731 121.664348 
L 330.010073 122.023378 
L 333.289396 122.132736 
L 336.568738 120.993869 
L 339.84808 120.044712 
L 343.127423 117.942563 
L 346.406765 115.765571 
L 349.686088 112.714809 
L 352.96543 108.264139 
L 356.244772 103.422404 
L 359.524114 97.949586 
L 362.803456 91.481171 
L 366.082798 84.614144 
L 369.362141 77.311951 
L 372.641463 68.54222 
L 375.920806 60.67677 
L 379.200148 52.406696 
" clip-path="url(#pfa75df92ef)" style="fill: none; stroke: #ff0000; stroke-width: 0.5; stroke-linecap: round"/>
   </g>
   <g id="line2d_24">
    <path d="M 54.545602 80.283913 
L 57.824941 77.240479 
L 61.10428 75.914002 
L 64.383619 74.827933 
L 67.662958 74.650228 
L 70.942296 75.031255 
L 74.221636 75.262319 
L 77.500973 76.940396 
L 80.780313 78.398612 
L 84.059653 80.944704 
L 87.33899 83.777357 
L 90.61833 86.009758 
L 93.89767 89.275589 
L 97.177007 92.130058 
L 100.456344 95.419431 
L 103.735686 98.381035 
L 107.015024 100.637376 
L 110.294361 103.485304 
L 113.573703 106.076645 
L 116.853041 107.797387 
L 120.132378 109.759522 
L 123.41172 111.134492 
L 126.691057 111.96777 
L 129.970395 112.561627 
L 133.249737 112.96127 
L 136.529069 112.872557 
L 139.808412 112.462604 
L 143.087754 111.01945 
L 146.367086 110.065325 
L 149.646428 108.240183 
L 152.92577 106.877766 
L 156.205103 104.594987 
L 159.484445 102.629827 
L 162.763787 100.161723 
L 166.04312 97.662779 
L 169.322462 94.833972 
L 172.601804 93.178775 
L 175.881137 90.159834 
L 179.160479 87.313571 
L 182.439821 85.327816 
L 185.719153 83.29777 
L 188.998496 81.211953 
L 192.277838 79.573485 
L 195.55717 77.835712 
L 198.836512 77.270124 
L 202.115855 76.258556 
L 205.395187 75.746535 
L 208.674529 76.114227 
L 211.953871 76.323018 
L 215.233204 77.380162 
L 218.512556 78.583304 
L 221.791879 80.126581 
L 225.071221 81.937392 
L 228.350563 84.385876 
L 231.629886 86.741545 
L 234.909247 89.59422 
L 238.18857 92.177981 
L 241.467912 95.064258 
L 244.747254 97.837203 
L 248.026597 100.452589 
L 251.305939 103.181184 
L 254.585262 106.004447 
L 257.864623 108.050396 
L 261.143946 110.268203 
L 264.423288 111.986341 
L 267.70263 114.105333 
L 270.981953 115.328375 
L 274.261315 116.420199 
L 277.540637 117.222956 
L 280.81998 117.893847 
L 284.099322 118.060829 
L 287.378664 118.524121 
L 290.658006 118.99108 
L 293.937329 119.437805 
L 297.21669 119.891967 
L 300.496013 119.867102 
L 303.775355 120.134214 
L 307.054697 120.573557 
L 310.33402 120.649564 
L 313.613382 120.834554 
L 316.892705 121.022883 
L 320.172047 120.352251 
L 323.451389 119.918615 
L 326.730731 119.278779 
L 330.010073 118.671348 
L 333.289396 117.608517 
L 336.568738 116.484242 
L 339.84808 114.593901 
L 343.127423 113.312989 
L 346.406765 110.989849 
L 349.686088 108.5292 
L 352.96543 106.489446 
L 356.244772 103.588323 
L 359.524114 100.110034 
L 362.803456 97.165571 
L 366.082798 93.974396 
L 369.362141 90.719374 
L 372.641463 87.656204 
L 375.920806 84.258065 
L 379.200148 81.39254 
" clip-path="url(#pfa75df92ef)" style="fill: none; stroke: #ff0000; stroke-width: 0.5; stroke-linecap: round"/>
   </g>
   <g id="line2d_25">
    <path d="M 54.545602 87.04627 
L 57.824941 89.815397 
L 61.10428 92.386018 
L 64.383619 94.776774 
L 67.662958 96.908029 
L 70.942296 98.555255 
L 74.221636 101.097631 
L 77.500973 102.275799 
L 80.780313 103.381335 
L 84.059653 104.827237 
L 87.33899 105.756616 
L 90.61833 105.949915 
L 93.89767 106.591379 
L 97.177007 107.150623 
L 100.456344 106.893786 
L 103.735686 107.138536 
L 107.015024 106.597597 
L 110.294361 106.38623 
L 113.573703 106.348934 
L 116.853041 106.042603 
L 120.132378 105.613125 
L 123.41172 105.356974 
L 126.691057 104.377169 
L 129.970395 104.362621 
L 133.249737 103.825773 
L 136.529069 103.728033 
L 139.808412 103.514699 
L 143.087754 103.421908 
L 146.367086 103.238132 
L 149.646428 103.504207 
L 152.92577 103.576224 
L 156.205103 104.042608 
L 159.484445 104.63107 
L 162.763787 105.153024 
L 166.04312 105.955771 
L 169.322462 106.559894 
L 172.601804 107.537392 
L 175.881137 108.708901 
L 179.160479 109.814999 
L 182.439821 110.939282 
L 185.719153 111.764843 
L 188.998496 113.064173 
L 192.277838 113.224888 
L 195.55717 114.036604 
L 198.836512 114.149536 
L 202.115855 114.202436 
L 205.395187 114.037903 
L 208.674529 113.975262 
L 211.953871 113.598374 
L 215.233204 112.427029 
L 218.512556 111.638367 
L 221.791879 110.349295 
L 225.071221 108.650042 
L 228.350563 106.954339 
L 231.629886 104.913727 
L 234.909247 102.883925 
L 238.18857 100.628602 
L 241.467912 98.603462 
L 244.747254 96.933514 
L 248.026597 94.691222 
L 251.305939 92.977414 
L 254.585262 92.090577 
L 257.864623 90.497761 
L 261.143946 89.660778 
L 264.423288 89.453809 
L 267.70263 89.433804 
L 270.981953 90.117907 
L 274.261315 91.3805 
L 277.540637 92.174621 
L 280.81998 93.918118 
L 284.099322 95.741725 
L 287.378664 98.103617 
L 290.658006 100.572912 
L 293.937329 103.287953 
L 297.21669 105.048948 
L 300.496013 107.54176 
L 303.775355 109.744643 
L 307.054697 111.413724 
L 310.33402 113.360048 
L 313.613382 114.19063 
L 316.892705 114.96299 
L 320.172047 115.285298 
L 323.451389 115.170624 
L 326.730731 115.622038 
L 330.010073 114.231349 
L 333.289396 113.734859 
L 336.568738 112.395034 
L 339.84808 111.418637 
L 343.127423 109.42548 
L 346.406765 108.111776 
L 349.686088 106.448968 
L 352.96543 104.812163 
L 356.244772 103.208613 
L 359.524114 101.698975 
L 362.803456 100.896993 
L 366.082798 99.489743 
L 369.362141 98.512169 
L 372.641463 97.292008 
L 375.920806 96.887258 
L 379.200148 96.048492 
" clip-path="url(#pfa75df92ef)" style="fill: none; stroke: #ff0000; stroke-width: 0.5; stroke-linecap: round"/>
   </g>
   <g id="line2d_26">
    <path d="M 54.545602 96.791073 
L 57.824941 94.23665 
L 61.10428 90.643635 
L 64.383619 87.9553 
L 67.662958 86.170736 
L 70.942296 84.604032 
L 74.221636 84.011727 
L 77.500973 83.578149 
L 80.780313 84.19723 
L 84.059653 85.270904 
L 87.33899 86.400785 
L 90.61833 87.917656 
L 93.89767 90.027389 
L 97.177007 92.627775 
L 100.456344 95.149136 
L 103.735686 97.614893 
L 107.015024 100.601715 
L 110.294361 103.154201 
L 113.573703 105.50629 
L 116.853041 108.226188 
L 120.132378 110.398294 
L 123.41172 112.411429 
L 126.691057 113.646694 
L 129.970395 114.820476 
L 133.249737 115.312203 
L 136.529069 115.674944 
L 139.808412 115.143406 
L 143.087754 114.149654 
L 146.367086 112.816186 
L 149.646428 110.89728 
L 152.92577 108.067019 
L 156.205103 105.320217 
L 159.484445 101.734686 
L 162.763787 97.75706 
L 166.04312 93.633405 
L 169.322462 89.182051 
L 172.601804 84.274366 
L 175.881137 79.652783 
L 179.160479 75.765512 
L 182.439821 70.917831 
L 185.719153 66.470545 
L 188.998496 62.652015 
L 192.277838 58.630326 
L 195.55717 55.767906 
L 198.836512 52.727215 
L 202.115855 50.92885 
L 205.395187 49.127052 
L 208.674529 47.381329 
L 211.953871 46.662949 
L 215.233204 46.19839 
L 218.512556 45.992613 
L 221.791879 45.984612 
L 225.071221 46.21099 
L 228.350563 47.130344 
L 231.629886 48.253678 
L 234.909247 49.266946 
L 238.18857 50.318702 
L 241.467912 51.748275 
L 244.747254 53.353177 
L 248.026597 54.939658 
L 251.305939 56.693616 
L 254.585262 58.433311 
L 257.864623 60.251736 
L 261.143946 62.142286 
L 264.423288 64.190876 
L 267.70263 66.548347 
L 270.981953 68.921196 
L 274.261315 71.944077 
L 277.540637 74.381587 
L 280.81998 77.50386 
L 284.099322 80.637837 
L 287.378664 83.648405 
L 290.658006 87.396499 
L 293.937329 90.272268 
L 297.21669 93.664762 
L 300.496013 97.303283 
L 303.775355 99.95106 
L 307.054697 102.971188 
L 310.33402 105.893101 
L 313.613382 108.125164 
L 316.892705 109.8813 
L 320.172047 111.273936 
L 323.451389 112.274572 
L 326.730731 113.433428 
L 330.010073 113.477385 
L 333.289396 113.421502 
L 336.568738 113.017568 
L 339.84808 111.857399 
L 343.127423 110.54975 
L 346.406765 109.204617 
L 349.686088 107.301748 
L 352.96543 105.547494 
L 356.244772 103.27819 
L 359.524114 101.418797 
L 362.803456 99.475155 
L 366.082798 97.339787 
L 369.362141 95.986253 
L 372.641463 94.268835 
L 375.920806 93.021909 
L 379.200148 91.800536 
" clip-path="url(#pfa75df92ef)" style="fill: none; stroke: #ff0000; stroke-width: 0.5; stroke-linecap: round"/>
   </g>
   <g id="line2d_27"/>
   <g id="patch_3">
    <path d="M 38.312875 261.273566 
L 38.312875 16.89357 
" style="fill: none; stroke: #262626; stroke-linejoin: miter; stroke-linecap: square"/>
   </g>
   <g id="patch_4">
    <path d="M 54.545602 273.312 
L 379.200148 273.312 
" style="fill: none; stroke: #262626; stroke-linejoin: miter; stroke-linecap: square"/>
   </g>
   <g id="legend_1">
    <g id="line2d_28">
     <g>
      <use xlink:href="#mb6c7ad4a3f" x="55.032875" y="194.65925" style="stroke: #000000; stroke-width: 2"/>
     </g>
    </g>
    <g id="text_16">
     <!-- Observations -->
     <g style="fill: #262626" transform="translate(70.872875 197.73925) scale(0.088 -0.088)">
      <defs>
       <path id="ArialMT-4f" d="M 309 2231 
Q 309 3372 921 4017 
Q 1534 4663 2503 4663 
Q 3138 4663 3647 4359 
Q 4156 4056 4423 3514 
Q 4691 2972 4691 2284 
Q 4691 1588 4409 1038 
Q 4128 488 3612 205 
Q 3097 -78 2500 -78 
Q 1853 -78 1343 234 
Q 834 547 571 1087 
Q 309 1628 309 2231 
z
M 934 2222 
Q 934 1394 1379 917 
Q 1825 441 2497 441 
Q 3181 441 3623 922 
Q 4066 1403 4066 2288 
Q 4066 2847 3877 3264 
Q 3688 3681 3323 3911 
Q 2959 4141 2506 4141 
Q 1863 4141 1398 3698 
Q 934 3256 934 2222 
z
" transform="scale(0.015625)"/>
       <path id="ArialMT-62" d="M 941 0 
L 419 0 
L 419 4581 
L 981 4581 
L 981 2947 
Q 1338 3394 1891 3394 
Q 2197 3394 2470 3270 
Q 2744 3147 2920 2923 
Q 3097 2700 3197 2384 
Q 3297 2069 3297 1709 
Q 3297 856 2875 390 
Q 2453 -75 1863 -75 
Q 1275 -75 941 416 
L 941 0 
z
M 934 1684 
Q 934 1088 1097 822 
Q 1363 388 1816 388 
Q 2184 388 2453 708 
Q 2722 1028 2722 1663 
Q 2722 2313 2464 2622 
Q 2206 2931 1841 2931 
Q 1472 2931 1203 2611 
Q 934 2291 934 1684 
z
" transform="scale(0.015625)"/>
       <path id="ArialMT-73" d="M 197 991 
L 753 1078 
Q 800 744 1014 566 
Q 1228 388 1613 388 
Q 2000 388 2187 545 
Q 2375 703 2375 916 
Q 2375 1106 2209 1216 
Q 2094 1291 1634 1406 
Q 1016 1563 777 1677 
Q 538 1791 414 1992 
Q 291 2194 291 2438 
Q 291 2659 392 2848 
Q 494 3038 669 3163 
Q 800 3259 1026 3326 
Q 1253 3394 1513 3394 
Q 1903 3394 2198 3281 
Q 2494 3169 2634 2976 
Q 2775 2784 2828 2463 
L 2278 2388 
Q 2241 2644 2061 2787 
Q 1881 2931 1553 2931 
Q 1166 2931 1000 2803 
Q 834 2675 834 2503 
Q 834 2394 903 2306 
Q 972 2216 1119 2156 
Q 1203 2125 1616 2013 
Q 2213 1853 2448 1751 
Q 2684 1650 2818 1456 
Q 2953 1263 2953 975 
Q 2953 694 2789 445 
Q 2625 197 2315 61 
Q 2006 -75 1616 -75 
Q 969 -75 630 194 
Q 291 463 197 991 
z
" transform="scale(0.015625)"/>
       <path id="ArialMT-65" d="M 2694 1069 
L 3275 997 
Q 3138 488 2766 206 
Q 2394 -75 1816 -75 
Q 1088 -75 661 373 
Q 234 822 234 1631 
Q 234 2469 665 2931 
Q 1097 3394 1784 3394 
Q 2450 3394 2872 2941 
Q 3294 2488 3294 1666 
Q 3294 1616 3291 1516 
L 816 1516 
Q 847 969 1125 678 
Q 1403 388 1819 388 
Q 2128 388 2347 550 
Q 2566 713 2694 1069 
z
M 847 1978 
L 2700 1978 
Q 2663 2397 2488 2606 
Q 2219 2931 1791 2931 
Q 1403 2931 1139 2672 
Q 875 2413 847 1978 
z
" transform="scale(0.015625)"/>
       <path id="ArialMT-72" d="M 416 0 
L 416 3319 
L 922 3319 
L 922 2816 
Q 1116 3169 1280 3281 
Q 1444 3394 1641 3394 
Q 1925 3394 2219 3213 
L 2025 2691 
Q 1819 2813 1613 2813 
Q 1428 2813 1281 2702 
Q 1134 2591 1072 2394 
Q 978 2094 978 1738 
L 978 0 
L 416 0 
z
" transform="scale(0.015625)"/>
       <path id="ArialMT-76" d="M 1344 0 
L 81 3319 
L 675 3319 
L 1388 1331 
Q 1503 1009 1600 663 
Q 1675 925 1809 1294 
L 2547 3319 
L 3125 3319 
L 1869 0 
L 1344 0 
z
" transform="scale(0.015625)"/>
       <path id="ArialMT-61" d="M 2588 409 
Q 2275 144 1986 34 
Q 1697 -75 1366 -75 
Q 819 -75 525 192 
Q 231 459 231 875 
Q 231 1119 342 1320 
Q 453 1522 633 1644 
Q 813 1766 1038 1828 
Q 1203 1872 1538 1913 
Q 2219 1994 2541 2106 
Q 2544 2222 2544 2253 
Q 2544 2597 2384 2738 
Q 2169 2928 1744 2928 
Q 1347 2928 1158 2789 
Q 969 2650 878 2297 
L 328 2372 
Q 403 2725 575 2942 
Q 747 3159 1072 3276 
Q 1397 3394 1825 3394 
Q 2250 3394 2515 3294 
Q 2781 3194 2906 3042 
Q 3031 2891 3081 2659 
Q 3109 2516 3109 2141 
L 3109 1391 
Q 3109 606 3145 398 
Q 3181 191 3288 0 
L 2700 0 
Q 2613 175 2588 409 
z
M 2541 1666 
Q 2234 1541 1622 1453 
Q 1275 1403 1131 1340 
Q 988 1278 909 1158 
Q 831 1038 831 891 
Q 831 666 1001 516 
Q 1172 366 1500 366 
Q 1825 366 2078 508 
Q 2331 650 2450 897 
Q 2541 1088 2541 1459 
L 2541 1666 
z
" transform="scale(0.015625)"/>
       <path id="ArialMT-74" d="M 1650 503 
L 1731 6 
Q 1494 -44 1306 -44 
Q 1000 -44 831 53 
Q 663 150 594 308 
Q 525 466 525 972 
L 525 2881 
L 113 2881 
L 113 3319 
L 525 3319 
L 525 4141 
L 1084 4478 
L 1084 3319 
L 1650 3319 
L 1650 2881 
L 1084 2881 
L 1084 941 
Q 1084 700 1114 631 
Q 1144 563 1211 522 
Q 1278 481 1403 481 
Q 1497 481 1650 503 
z
" transform="scale(0.015625)"/>
       <path id="ArialMT-69" d="M 425 3934 
L 425 4581 
L 988 4581 
L 988 3934 
L 425 3934 
z
M 425 0 
L 425 3319 
L 988 3319 
L 988 0 
L 425 0 
z
" transform="scale(0.015625)"/>
       <path id="ArialMT-6f" d="M 213 1659 
Q 213 2581 725 3025 
Q 1153 3394 1769 3394 
Q 2453 3394 2887 2945 
Q 3322 2497 3322 1706 
Q 3322 1066 3130 698 
Q 2938 331 2570 128 
Q 2203 -75 1769 -75 
Q 1072 -75 642 372 
Q 213 819 213 1659 
z
M 791 1659 
Q 791 1022 1069 705 
Q 1347 388 1769 388 
Q 2188 388 2466 706 
Q 2744 1025 2744 1678 
Q 2744 2294 2464 2611 
Q 2184 2928 1769 2928 
Q 1347 2928 1069 2612 
Q 791 2297 791 1659 
z
" transform="scale(0.015625)"/>
       <path id="ArialMT-6e" d="M 422 0 
L 422 3319 
L 928 3319 
L 928 2847 
Q 1294 3394 1984 3394 
Q 2284 3394 2536 3286 
Q 2788 3178 2913 3003 
Q 3038 2828 3088 2588 
Q 3119 2431 3119 2041 
L 3119 0 
L 2556 0 
L 2556 2019 
Q 2556 2363 2490 2533 
Q 2425 2703 2258 2804 
Q 2091 2906 1866 2906 
Q 1506 2906 1245 2678 
Q 984 2450 984 1813 
L 984 0 
L 422 0 
z
" transform="scale(0.015625)"/>
      </defs>
      <use xlink:href="#ArialMT-4f"/>
      <use xlink:href="#ArialMT-62" x="77.783203"/>
      <use xlink:href="#ArialMT-73" x="133.398438"/>
      <use xlink:href="#ArialMT-65" x="183.398438"/>
      <use xlink:href="#ArialMT-72" x="239.013672"/>
      <use xlink:href="#ArialMT-76" x="272.314453"/>
      <use xlink:href="#ArialMT-61" x="322.314453"/>
      <use xlink:href="#ArialMT-74" x="377.929688"/>
      <use xlink:href="#ArialMT-69" x="405.712891"/>
      <use xlink:href="#ArialMT-6f" x="427.929688"/>
      <use xlink:href="#ArialMT-6e" x="483.544922"/>
      <use xlink:href="#ArialMT-73" x="539.160156"/>
     </g>
    </g>
    <g id="line2d_29">
     <path d="M 46.232875 207.24325 
L 55.032875 207.24325 
L 63.832875 207.24325 
" style="fill: none; stroke: #1f77b4; stroke-width: 2; stroke-linecap: round"/>
    </g>
    <g id="text_17">
     <!-- $m_n(x)$ -->
     <g style="fill: #262626" transform="translate(70.872875 210.32325) scale(0.088 -0.088)">
      <defs>
       <path id="DejaVuSans-Oblique-6d" d="M 5747 2113 
L 5338 0 
L 4763 0 
L 5166 2094 
Q 5191 2228 5203 2325 
Q 5216 2422 5216 2491 
Q 5216 2772 5059 2928 
Q 4903 3084 4622 3084 
Q 4203 3084 3875 2770 
Q 3547 2456 3450 1953 
L 3066 0 
L 2491 0 
L 2900 2094 
Q 2925 2209 2937 2307 
Q 2950 2406 2950 2484 
Q 2950 2769 2794 2926 
Q 2638 3084 2363 3084 
Q 1938 3084 1609 2770 
Q 1281 2456 1184 1953 
L 800 0 
L 225 0 
L 909 3500 
L 1484 3500 
L 1375 2956 
Q 1609 3263 1923 3423 
Q 2238 3584 2597 3584 
Q 2978 3584 3223 3384 
Q 3469 3184 3519 2828 
Q 3781 3197 4126 3390 
Q 4472 3584 4856 3584 
Q 5306 3584 5551 3325 
Q 5797 3066 5797 2591 
Q 5797 2488 5784 2364 
Q 5772 2241 5747 2113 
z
" transform="scale(0.015625)"/>
       <path id="DejaVuSans-Oblique-6e" d="M 3566 2113 
L 3156 0 
L 2578 0 
L 2988 2091 
Q 3016 2238 3031 2350 
Q 3047 2463 3047 2528 
Q 3047 2791 2881 2937 
Q 2716 3084 2419 3084 
Q 1956 3084 1622 2776 
Q 1288 2469 1184 1941 
L 800 0 
L 225 0 
L 903 3500 
L 1478 3500 
L 1363 2950 
Q 1603 3253 1940 3418 
Q 2278 3584 2650 3584 
Q 3113 3584 3367 3334 
Q 3622 3084 3622 2631 
Q 3622 2519 3608 2391 
Q 3594 2263 3566 2113 
z
" transform="scale(0.015625)"/>
       <path id="DejaVuSans-28" d="M 1984 4856 
Q 1566 4138 1362 3434 
Q 1159 2731 1159 2009 
Q 1159 1288 1364 580 
Q 1569 -128 1984 -844 
L 1484 -844 
Q 1016 -109 783 600 
Q 550 1309 550 2009 
Q 550 2706 781 3412 
Q 1013 4119 1484 4856 
L 1984 4856 
z
" transform="scale(0.015625)"/>
       <path id="DejaVuSans-29" d="M 513 4856 
L 1013 4856 
Q 1481 4119 1714 3412 
Q 1947 2706 1947 2009 
Q 1947 1309 1714 600 
Q 1481 -109 1013 -844 
L 513 -844 
Q 928 -128 1133 580 
Q 1338 1288 1338 2009 
Q 1338 2731 1133 3434 
Q 928 4138 513 4856 
z
" transform="scale(0.015625)"/>
      </defs>
      <use xlink:href="#DejaVuSans-Oblique-6d" transform="translate(0 0.125)"/>
      <use xlink:href="#DejaVuSans-Oblique-6e" transform="translate(97.412109 -16.28125) scale(0.7)"/>
      <use xlink:href="#DejaVuSans-28" transform="translate(144.511719 0.125)"/>
      <use xlink:href="#DejaVuSans-Oblique-78" transform="translate(183.525391 0.125)"/>
      <use xlink:href="#DejaVuSans-29" transform="translate(242.705078 0.125)"/>
     </g>
    </g>
    <g id="patch_5">
     <path d="M 46.232875 224.48025 
L 63.832875 224.48025 
L 63.832875 218.32025 
L 46.232875 218.32025 
z
" style="fill: #1f77b4; fill-opacity: 0.5; stroke: #1f77b4; stroke-opacity: 0.5; stroke-width: 0.8; stroke-linejoin: miter"/>
    </g>
    <g id="text_18">
     <!-- $f(\mathbf{x}^*)$ 95% pred. -->
     <g style="fill: #262626" transform="translate(70.872875 224.48025) scale(0.088 -0.088)">
      <defs>
       <path id="DejaVuSans-Oblique-66" d="M 3059 4863 
L 2969 4384 
L 2419 4384 
Q 2106 4384 1964 4261 
Q 1822 4138 1753 3809 
L 1691 3500 
L 2638 3500 
L 2553 3053 
L 1606 3053 
L 1013 0 
L 434 0 
L 1031 3053 
L 481 3053 
L 563 3500 
L 1113 3500 
L 1159 3744 
Q 1278 4363 1576 4613 
Q 1875 4863 2516 4863 
L 3059 4863 
z
" transform="scale(0.015625)"/>
       <path id="DejaVuSans-Bold-78" d="M 1422 1791 
L 159 3500 
L 1344 3500 
L 2059 2463 
L 2784 3500 
L 3969 3500 
L 2706 1797 
L 4031 0 
L 2847 0 
L 2059 1106 
L 1281 0 
L 97 0 
L 1422 1791 
z
" transform="scale(0.015625)"/>
       <path id="DejaVuSans-2a" d="M 3009 3897 
L 1888 3291 
L 3009 2681 
L 2828 2375 
L 1778 3009 
L 1778 1831 
L 1422 1831 
L 1422 3009 
L 372 2375 
L 191 2681 
L 1313 3291 
L 191 3897 
L 372 4206 
L 1422 3572 
L 1422 4750 
L 1778 4750 
L 1778 3572 
L 2828 4206 
L 3009 3897 
z
" transform="scale(0.015625)"/>
       <path id="ArialMT-20" transform="scale(0.015625)"/>
       <path id="ArialMT-39" d="M 350 1059 
L 891 1109 
Q 959 728 1153 556 
Q 1347 384 1650 384 
Q 1909 384 2104 503 
Q 2300 622 2425 820 
Q 2550 1019 2634 1356 
Q 2719 1694 2719 2044 
Q 2719 2081 2716 2156 
Q 2547 1888 2255 1720 
Q 1963 1553 1622 1553 
Q 1053 1553 659 1965 
Q 266 2378 266 3053 
Q 266 3750 677 4175 
Q 1088 4600 1706 4600 
Q 2153 4600 2523 4359 
Q 2894 4119 3086 3673 
Q 3278 3228 3278 2384 
Q 3278 1506 3087 986 
Q 2897 466 2520 194 
Q 2144 -78 1638 -78 
Q 1100 -78 759 220 
Q 419 519 350 1059 
z
M 2653 3081 
Q 2653 3566 2395 3850 
Q 2138 4134 1775 4134 
Q 1400 4134 1122 3828 
Q 844 3522 844 3034 
Q 844 2597 1108 2323 
Q 1372 2050 1759 2050 
Q 2150 2050 2401 2323 
Q 2653 2597 2653 3081 
z
" transform="scale(0.015625)"/>
       <path id="ArialMT-35" d="M 266 1200 
L 856 1250 
Q 922 819 1161 601 
Q 1400 384 1738 384 
Q 2144 384 2425 690 
Q 2706 997 2706 1503 
Q 2706 1984 2436 2262 
Q 2166 2541 1728 2541 
Q 1456 2541 1237 2417 
Q 1019 2294 894 2097 
L 366 2166 
L 809 4519 
L 3088 4519 
L 3088 3981 
L 1259 3981 
L 1013 2750 
Q 1425 3038 1878 3038 
Q 2478 3038 2890 2622 
Q 3303 2206 3303 1553 
Q 3303 931 2941 478 
Q 2500 -78 1738 -78 
Q 1113 -78 717 272 
Q 322 622 266 1200 
z
" transform="scale(0.015625)"/>
       <path id="ArialMT-25" d="M 372 3481 
Q 372 3972 619 4315 
Q 866 4659 1334 4659 
Q 1766 4659 2048 4351 
Q 2331 4044 2331 3447 
Q 2331 2866 2045 2552 
Q 1759 2238 1341 2238 
Q 925 2238 648 2547 
Q 372 2856 372 3481 
z
M 1350 4272 
Q 1141 4272 1002 4090 
Q 863 3909 863 3425 
Q 863 2984 1003 2804 
Q 1144 2625 1350 2625 
Q 1563 2625 1702 2806 
Q 1841 2988 1841 3469 
Q 1841 3913 1700 4092 
Q 1559 4272 1350 4272 
z
M 1353 -169 
L 3859 4659 
L 4316 4659 
L 1819 -169 
L 1353 -169 
z
M 3334 1075 
Q 3334 1569 3581 1911 
Q 3828 2253 4300 2253 
Q 4731 2253 5014 1945 
Q 5297 1638 5297 1041 
Q 5297 459 5011 145 
Q 4725 -169 4303 -169 
Q 3888 -169 3611 142 
Q 3334 453 3334 1075 
z
M 4316 1866 
Q 4103 1866 3964 1684 
Q 3825 1503 3825 1019 
Q 3825 581 3965 400 
Q 4106 219 4313 219 
Q 4528 219 4667 400 
Q 4806 581 4806 1063 
Q 4806 1506 4665 1686 
Q 4525 1866 4316 1866 
z
" transform="scale(0.015625)"/>
       <path id="ArialMT-70" d="M 422 -1272 
L 422 3319 
L 934 3319 
L 934 2888 
Q 1116 3141 1344 3267 
Q 1572 3394 1897 3394 
Q 2322 3394 2647 3175 
Q 2972 2956 3137 2557 
Q 3303 2159 3303 1684 
Q 3303 1175 3120 767 
Q 2938 359 2589 142 
Q 2241 -75 1856 -75 
Q 1575 -75 1351 44 
Q 1128 163 984 344 
L 984 -1272 
L 422 -1272 
z
M 931 1641 
Q 931 1000 1190 694 
Q 1450 388 1819 388 
Q 2194 388 2461 705 
Q 2728 1022 2728 1688 
Q 2728 2322 2467 2637 
Q 2206 2953 1844 2953 
Q 1484 2953 1207 2617 
Q 931 2281 931 1641 
z
" transform="scale(0.015625)"/>
       <path id="ArialMT-64" d="M 2575 0 
L 2575 419 
Q 2259 -75 1647 -75 
Q 1250 -75 917 144 
Q 584 363 401 755 
Q 219 1147 219 1656 
Q 219 2153 384 2558 
Q 550 2963 881 3178 
Q 1213 3394 1622 3394 
Q 1922 3394 2156 3267 
Q 2391 3141 2538 2938 
L 2538 4581 
L 3097 4581 
L 3097 0 
L 2575 0 
z
M 797 1656 
Q 797 1019 1065 703 
Q 1334 388 1700 388 
Q 2069 388 2326 689 
Q 2584 991 2584 1609 
Q 2584 2291 2321 2609 
Q 2059 2928 1675 2928 
Q 1300 2928 1048 2622 
Q 797 2316 797 1656 
z
" transform="scale(0.015625)"/>
      </defs>
      <use xlink:href="#DejaVuSans-Oblique-66" transform="translate(0 0.765625)"/>
      <use xlink:href="#DejaVuSans-28" transform="translate(35.205078 0.765625)"/>
      <use xlink:href="#DejaVuSans-Bold-78" transform="translate(74.21875 0.765625)"/>
      <use xlink:href="#DejaVuSans-2a" transform="translate(153.31543 39.046875) scale(0.7)"/>
      <use xlink:href="#DejaVuSans-29" transform="translate(204.6875 0.765625)"/>
      <use xlink:href="#ArialMT-20" transform="translate(243.701172 0.765625)"/>
      <use xlink:href="#ArialMT-39" transform="translate(271.484375 0.765625)"/>
      <use xlink:href="#ArialMT-35" transform="translate(327.099609 0.765625)"/>
      <use xlink:href="#ArialMT-25" transform="translate(382.714844 0.765625)"/>
      <use xlink:href="#ArialMT-20" transform="translate(471.630859 0.765625)"/>
      <use xlink:href="#ArialMT-70" transform="translate(499.414062 0.765625)"/>
      <use xlink:href="#ArialMT-72" transform="translate(555.029297 0.765625)"/>
      <use xlink:href="#ArialMT-65" transform="translate(588.330078 0.765625)"/>
      <use xlink:href="#ArialMT-64" transform="translate(643.945312 0.765625)"/>
      <use xlink:href="#ArialMT-2e" transform="translate(699.560547 0.765625)"/>
     </g>
    </g>
    <g id="patch_6">
     <path d="M 46.232875 238.64825 
L 63.832875 238.64825 
L 63.832875 232.48825 
L 46.232875 232.48825 
z
" style="fill: #ff7f0e; fill-opacity: 0.5; stroke: #ff7f0e; stroke-opacity: 0.5; stroke-width: 0.8; stroke-linejoin: miter"/>
    </g>
    <g id="text_19">
     <!-- $y^*$ 95% pred. -->
     <g style="fill: #262626" transform="translate(70.872875 238.64825) scale(0.088 -0.088)">
      <use xlink:href="#DejaVuSans-Oblique-79" transform="translate(0 0.765625)"/>
      <use xlink:href="#DejaVuSans-2a" transform="translate(77.283529 39.046875) scale(0.7)"/>
      <use xlink:href="#ArialMT-20" transform="translate(128.655599 0.765625)"/>
      <use xlink:href="#ArialMT-39" transform="translate(156.438802 0.765625)"/>
      <use xlink:href="#ArialMT-35" transform="translate(212.054036 0.765625)"/>
      <use xlink:href="#ArialMT-25" transform="translate(267.669271 0.765625)"/>
      <use xlink:href="#ArialMT-20" transform="translate(356.585286 0.765625)"/>
      <use xlink:href="#ArialMT-70" transform="translate(384.36849 0.765625)"/>
      <use xlink:href="#ArialMT-72" transform="translate(439.983724 0.765625)"/>
      <use xlink:href="#ArialMT-65" transform="translate(473.284505 0.765625)"/>
      <use xlink:href="#ArialMT-64" transform="translate(528.89974 0.765625)"/>
      <use xlink:href="#ArialMT-2e" transform="translate(584.514974 0.765625)"/>
     </g>
    </g>
    <g id="line2d_30">
     <path d="M 46.232875 248.115125 
L 55.032875 248.115125 
L 63.832875 248.115125 
" style="fill: none; stroke-dasharray: 7.68,1.92,1.2,1.92; stroke-dashoffset: 0; stroke: #bf00bf; stroke-width: 1.2"/>
    </g>
    <g id="text_20">
     <!-- True function -->
     <g style="fill: #262626" transform="translate(70.872875 251.195125) scale(0.088 -0.088)">
      <defs>
       <path id="ArialMT-54" d="M 1659 0 
L 1659 4041 
L 150 4041 
L 150 4581 
L 3781 4581 
L 3781 4041 
L 2266 4041 
L 2266 0 
L 1659 0 
z
" transform="scale(0.015625)"/>
       <path id="ArialMT-75" d="M 2597 0 
L 2597 488 
Q 2209 -75 1544 -75 
Q 1250 -75 995 37 
Q 741 150 617 320 
Q 494 491 444 738 
Q 409 903 409 1263 
L 409 3319 
L 972 3319 
L 972 1478 
Q 972 1038 1006 884 
Q 1059 663 1231 536 
Q 1403 409 1656 409 
Q 1909 409 2131 539 
Q 2353 669 2445 892 
Q 2538 1116 2538 1541 
L 2538 3319 
L 3100 3319 
L 3100 0 
L 2597 0 
z
" transform="scale(0.015625)"/>
       <path id="ArialMT-66" d="M 556 0 
L 556 2881 
L 59 2881 
L 59 3319 
L 556 3319 
L 556 3672 
Q 556 4006 616 4169 
Q 697 4388 901 4523 
Q 1106 4659 1475 4659 
Q 1713 4659 2000 4603 
L 1916 4113 
Q 1741 4144 1584 4144 
Q 1328 4144 1222 4034 
Q 1116 3925 1116 3625 
L 1116 3319 
L 1763 3319 
L 1763 2881 
L 1116 2881 
L 1116 0 
L 556 0 
z
" transform="scale(0.015625)"/>
       <path id="ArialMT-63" d="M 2588 1216 
L 3141 1144 
Q 3050 572 2676 248 
Q 2303 -75 1759 -75 
Q 1078 -75 664 370 
Q 250 816 250 1647 
Q 250 2184 428 2587 
Q 606 2991 970 3192 
Q 1334 3394 1763 3394 
Q 2303 3394 2647 3120 
Q 2991 2847 3088 2344 
L 2541 2259 
Q 2463 2594 2264 2762 
Q 2066 2931 1784 2931 
Q 1359 2931 1093 2626 
Q 828 2322 828 1663 
Q 828 994 1084 691 
Q 1341 388 1753 388 
Q 2084 388 2306 591 
Q 2528 794 2588 1216 
z
" transform="scale(0.015625)"/>
      </defs>
      <use xlink:href="#ArialMT-54"/>
      <use xlink:href="#ArialMT-72" x="57.333984"/>
      <use xlink:href="#ArialMT-75" x="90.634766"/>
      <use xlink:href="#ArialMT-65" x="146.25"/>
      <use xlink:href="#ArialMT-20" x="201.865234"/>
      <use xlink:href="#ArialMT-66" x="229.648438"/>
      <use xlink:href="#ArialMT-75" x="257.431641"/>
      <use xlink:href="#ArialMT-6e" x="313.046875"/>
      <use xlink:href="#ArialMT-63" x="368.662109"/>
      <use xlink:href="#ArialMT-74" x="418.662109"/>
      <use xlink:href="#ArialMT-69" x="446.445312"/>
      <use xlink:href="#ArialMT-6f" x="468.662109"/>
      <use xlink:href="#ArialMT-6e" x="524.277344"/>
     </g>
    </g>
    <g id="line2d_31">
     <path d="M 46.232875 260.563 
L 55.032875 260.563 
L 63.832875 260.563 
" style="fill: none; stroke: #ff0000; stroke-width: 0.5; stroke-linecap: round"/>
    </g>
    <g id="text_21">
     <!-- Posterior samples -->
     <g style="fill: #262626" transform="translate(70.872875 263.643) scale(0.088 -0.088)">
      <defs>
       <path id="ArialMT-50" d="M 494 0 
L 494 4581 
L 2222 4581 
Q 2678 4581 2919 4538 
Q 3256 4481 3484 4323 
Q 3713 4166 3852 3881 
Q 3991 3597 3991 3256 
Q 3991 2672 3619 2267 
Q 3247 1863 2275 1863 
L 1100 1863 
L 1100 0 
L 494 0 
z
M 1100 2403 
L 2284 2403 
Q 2872 2403 3119 2622 
Q 3366 2841 3366 3238 
Q 3366 3525 3220 3729 
Q 3075 3934 2838 4000 
Q 2684 4041 2272 4041 
L 1100 4041 
L 1100 2403 
z
" transform="scale(0.015625)"/>
       <path id="ArialMT-6d" d="M 422 0 
L 422 3319 
L 925 3319 
L 925 2853 
Q 1081 3097 1340 3245 
Q 1600 3394 1931 3394 
Q 2300 3394 2536 3241 
Q 2772 3088 2869 2813 
Q 3263 3394 3894 3394 
Q 4388 3394 4653 3120 
Q 4919 2847 4919 2278 
L 4919 0 
L 4359 0 
L 4359 2091 
Q 4359 2428 4304 2576 
Q 4250 2725 4106 2815 
Q 3963 2906 3769 2906 
Q 3419 2906 3187 2673 
Q 2956 2441 2956 1928 
L 2956 0 
L 2394 0 
L 2394 2156 
Q 2394 2531 2256 2718 
Q 2119 2906 1806 2906 
Q 1569 2906 1367 2781 
Q 1166 2656 1075 2415 
Q 984 2175 984 1722 
L 984 0 
L 422 0 
z
" transform="scale(0.015625)"/>
       <path id="ArialMT-6c" d="M 409 0 
L 409 4581 
L 972 4581 
L 972 0 
L 409 0 
z
" transform="scale(0.015625)"/>
      </defs>
      <use xlink:href="#ArialMT-50"/>
      <use xlink:href="#ArialMT-6f" x="66.699219"/>
      <use xlink:href="#ArialMT-73" x="122.314453"/>
      <use xlink:href="#ArialMT-74" x="172.314453"/>
      <use xlink:href="#ArialMT-65" x="200.097656"/>
      <use xlink:href="#ArialMT-72" x="255.712891"/>
      <use xlink:href="#ArialMT-69" x="289.013672"/>
      <use xlink:href="#ArialMT-6f" x="311.230469"/>
      <use xlink:href="#ArialMT-72" x="366.845703"/>
      <use xlink:href="#ArialMT-20" x="400.146484"/>
      <use xlink:href="#ArialMT-73" x="427.929688"/>
      <use xlink:href="#ArialMT-61" x="477.929688"/>
      <use xlink:href="#ArialMT-6d" x="533.544922"/>
      <use xlink:href="#ArialMT-70" x="616.845703"/>
      <use xlink:href="#ArialMT-6c" x="672.460938"/>
      <use xlink:href="#ArialMT-65" x="694.677734"/>
      <use xlink:href="#ArialMT-73" x="750.292969"/>
     </g>
    </g>
   </g>
  </g>
 </g>
 <defs>
  <clipPath id="pfa75df92ef">
   <rect x="38.312875" y="7.2" width="357.12" height="266.112"/>
  </clipPath>
 </defs>
</svg>