<?xml version="1.0" encoding="utf-8" standalone="no"?>
<!DOCTYPE svg PUBLIC "-//W3C//DTD SVG 1.1//EN"
  "http://www.w3.org/Graphics/SVG/1.1/DTD/svg11.dtd">
<svg xmlns:xlink="http://www.w3.org/1999/xlink" width="402.632875pt" height="309.639375pt" viewBox="0 0 402.632875 309.639375" xmlns="http://www.w3.org/2000/svg" version="1.1">
 <metadata>
  <rdf:RDF xmlns:dc="http://purl.org/dc/elements/1.1/" xmlns:cc="http://creativecommons.org/ns#" xmlns:rdf="http://www.w3.org/1999/02/22-rdf-syntax-ns#">
   <cc:Work>
    <dc:type rdf:resource="http://purl.org/dc/dcmitype/StillImage"/>
    <dc:date>2023-10-23T22:30:58.046146</dc:date>
    <dc:format>image/svg+xml</dc:format>
    <dc:creator>
     <cc:Agent>
      <dc:title>Matplotlib v3.7.1, https://matplotlib.org/</dc:title>
     </cc:Agent>
    </dc:creator>
   </cc:Work>
  </rdf:RDF>
 </metadata>
 <defs>
  <style type="text/css">*{stroke-linejoin: round; stroke-linecap: butt}</style>
 </defs>
 <g id="figure_1">
  <g id="patch_1">
   <path d="M 0 309.639375 
L 402.632875 309.639375 
L 402.632875 0 
L 0 0 
z
" style="fill: #ffffff"/>
  </g>
  <g id="axes_1">
   <g id="patch_2">
    <path d="M 38.312875 273.312 
L 395.432875 273.312 
L 395.432875 7.2 
L 38.312875 7.2 
z
" style="fill: #ffffff"/>
   </g>
   <g id="matplotlib.axis_1">
    <g id="xtick_1">
     <g id="line2d_1">
      <defs>
       <path id="m059dee258a" d="M 0 0 
L 0 4.8 
" style="stroke: #262626"/>
      </defs>
      <g>
       <use xlink:href="#m059dee258a" x="54.545602" y="273.312" style="fill: #262626; stroke: #262626"/>
      </g>
     </g>
     <g id="text_1">
      <!-- 0.0 -->
      <g style="fill: #262626" transform="translate(48.429602 287.910875) scale(0.088 -0.088)">
       <defs>
        <path id="ArialMT-30" d="M 266 2259 
Q 266 3072 433 3567 
Q 600 4063 929 4331 
Q 1259 4600 1759 4600 
Q 2128 4600 2406 4451 
Q 2684 4303 2865 4023 
Q 3047 3744 3150 3342 
Q 3253 2941 3253 2259 
Q 3253 1453 3087 958 
Q 2922 463 2592 192 
Q 2263 -78 1759 -78 
Q 1097 -78 719 397 
Q 266 969 266 2259 
z
M 844 2259 
Q 844 1131 1108 757 
Q 1372 384 1759 384 
Q 2147 384 2411 759 
Q 2675 1134 2675 2259 
Q 2675 3391 2411 3762 
Q 2147 4134 1753 4134 
Q 1366 4134 1134 3806 
Q 844 3388 844 2259 
z
" transform="scale(0.015625)"/>
        <path id="ArialMT-2e" d="M 581 0 
L 581 641 
L 1222 641 
L 1222 0 
L 581 0 
z
" transform="scale(0.015625)"/>
       </defs>
       <use xlink:href="#ArialMT-30"/>
       <use xlink:href="#ArialMT-2e" x="55.615234"/>
       <use xlink:href="#ArialMT-30" x="83.398438"/>
      </g>
     </g>
    </g>
    <g id="xtick_2">
     <g id="line2d_2">
      <g>
       <use xlink:href="#m059dee258a" x="119.476511" y="273.312" style="fill: #262626; stroke: #262626"/>
      </g>
     </g>
     <g id="text_2">
      <!-- 0.2 -->
      <g style="fill: #262626" transform="translate(113.360511 287.910875) scale(0.088 -0.088)">
       <defs>
        <path id="ArialMT-32" d="M 3222 541 
L 3222 0 
L 194 0 
Q 188 203 259 391 
Q 375 700 629 1000 
Q 884 1300 1366 1694 
Q 2113 2306 2375 2664 
Q 2638 3022 2638 3341 
Q 2638 3675 2398 3904 
Q 2159 4134 1775 4134 
Q 1369 4134 1125 3890 
Q 881 3647 878 3216 
L 300 3275 
Q 359 3922 746 4261 
Q 1134 4600 1788 4600 
Q 2447 4600 2831 4234 
Q 3216 3869 3216 3328 
Q 3216 3053 3103 2787 
Q 2991 2522 2730 2228 
Q 2469 1934 1863 1422 
Q 1356 997 1212 845 
Q 1069 694 975 541 
L 3222 541 
z
" transform="scale(0.015625)"/>
       </defs>
       <use xlink:href="#ArialMT-30"/>
       <use xlink:href="#ArialMT-2e" x="55.615234"/>
       <use xlink:href="#ArialMT-32" x="83.398438"/>
      </g>
     </g>
    </g>
    <g id="xtick_3">
     <g id="line2d_3">
      <g>
       <use xlink:href="#m059dee258a" x="184.40742" y="273.312" style="fill: #262626; stroke: #262626"/>
      </g>
     </g>
     <g id="text_3">
      <!-- 0.4 -->
      <g style="fill: #262626" transform="translate(178.29142 287.910875) scale(0.088 -0.088)">
       <defs>
        <path id="ArialMT-34" d="M 2069 0 
L 2069 1097 
L 81 1097 
L 81 1613 
L 2172 4581 
L 2631 4581 
L 2631 1613 
L 3250 1613 
L 3250 1097 
L 2631 1097 
L 2631 0 
L 2069 0 
z
M 2069 1613 
L 2069 3678 
L 634 1613 
L 2069 1613 
z
" transform="scale(0.015625)"/>
       </defs>
       <use xlink:href="#ArialMT-30"/>
       <use xlink:href="#ArialMT-2e" x="55.615234"/>
       <use xlink:href="#ArialMT-34" x="83.398438"/>
      </g>
     </g>
    </g>
    <g id="xtick_4">
     <g id="line2d_4">
      <g>
       <use xlink:href="#m059dee258a" x="249.33833" y="273.312" style="fill: #262626; stroke: #262626"/>
      </g>
     </g>
     <g id="text_4">
      <!-- 0.6 -->
      <g style="fill: #262626" transform="translate(243.22233 287.910875) scale(0.088 -0.088)">
       <defs>
        <path id="ArialMT-36" d="M 3184 3459 
L 2625 3416 
Q 2550 3747 2413 3897 
Q 2184 4138 1850 4138 
Q 1581 4138 1378 3988 
Q 1113 3794 959 3422 
Q 806 3050 800 2363 
Q 1003 2672 1297 2822 
Q 1591 2972 1913 2972 
Q 2475 2972 2870 2558 
Q 3266 2144 3266 1488 
Q 3266 1056 3080 686 
Q 2894 316 2569 119 
Q 2244 -78 1831 -78 
Q 1128 -78 684 439 
Q 241 956 241 2144 
Q 241 3472 731 4075 
Q 1159 4600 1884 4600 
Q 2425 4600 2770 4297 
Q 3116 3994 3184 3459 
z
M 888 1484 
Q 888 1194 1011 928 
Q 1134 663 1356 523 
Q 1578 384 1822 384 
Q 2178 384 2434 671 
Q 2691 959 2691 1453 
Q 2691 1928 2437 2201 
Q 2184 2475 1800 2475 
Q 1419 2475 1153 2201 
Q 888 1928 888 1484 
z
" transform="scale(0.015625)"/>
       </defs>
       <use xlink:href="#ArialMT-30"/>
       <use xlink:href="#ArialMT-2e" x="55.615234"/>
       <use xlink:href="#ArialMT-36" x="83.398438"/>
      </g>
     </g>
    </g>
    <g id="xtick_5">
     <g id="line2d_5">
      <g>
       <use xlink:href="#m059dee258a" x="314.269239" y="273.312" style="fill: #262626; stroke: #262626"/>
      </g>
     </g>
     <g id="text_5">
      <!-- 0.8 -->
      <g style="fill: #262626" transform="translate(308.153239 287.910875) scale(0.088 -0.088)">
       <defs>
        <path id="ArialMT-38" d="M 1131 2484 
Q 781 2613 612 2850 
Q 444 3088 444 3419 
Q 444 3919 803 4259 
Q 1163 4600 1759 4600 
Q 2359 4600 2725 4251 
Q 3091 3903 3091 3403 
Q 3091 3084 2923 2848 
Q 2756 2613 2416 2484 
Q 2838 2347 3058 2040 
Q 3278 1734 3278 1309 
Q 3278 722 2862 322 
Q 2447 -78 1769 -78 
Q 1091 -78 675 323 
Q 259 725 259 1325 
Q 259 1772 486 2073 
Q 713 2375 1131 2484 
z
M 1019 3438 
Q 1019 3113 1228 2906 
Q 1438 2700 1772 2700 
Q 2097 2700 2305 2904 
Q 2513 3109 2513 3406 
Q 2513 3716 2298 3927 
Q 2084 4138 1766 4138 
Q 1444 4138 1231 3931 
Q 1019 3725 1019 3438 
z
M 838 1322 
Q 838 1081 952 856 
Q 1066 631 1291 507 
Q 1516 384 1775 384 
Q 2178 384 2440 643 
Q 2703 903 2703 1303 
Q 2703 1709 2433 1975 
Q 2163 2241 1756 2241 
Q 1359 2241 1098 1978 
Q 838 1716 838 1322 
z
" transform="scale(0.015625)"/>
       </defs>
       <use xlink:href="#ArialMT-30"/>
       <use xlink:href="#ArialMT-2e" x="55.615234"/>
       <use xlink:href="#ArialMT-38" x="83.398438"/>
      </g>
     </g>
    </g>
    <g id="xtick_6">
     <g id="line2d_6">
      <g>
       <use xlink:href="#m059dee258a" x="379.200148" y="273.312" style="fill: #262626; stroke: #262626"/>
      </g>
     </g>
     <g id="text_6">
      <!-- 1.0 -->
      <g style="fill: #262626" transform="translate(373.084148 287.910875) scale(0.088 -0.088)">
       <defs>
        <path id="ArialMT-31" d="M 2384 0 
L 1822 0 
L 1822 3584 
Q 1619 3391 1289 3197 
Q 959 3003 697 2906 
L 697 3450 
Q 1169 3672 1522 3987 
Q 1875 4303 2022 4600 
L 2384 4600 
L 2384 0 
z
" transform="scale(0.015625)"/>
       </defs>
       <use xlink:href="#ArialMT-31"/>
       <use xlink:href="#ArialMT-2e" x="55.615234"/>
       <use xlink:href="#ArialMT-30" x="83.398438"/>
      </g>
     </g>
    </g>
    <g id="text_7">
     <!-- $x$ -->
     <g style="fill: #262626" transform="translate(213.992875 300.531375) scale(0.096 -0.096)">
      <defs>
       <path id="DejaVuSans-Oblique-78" d="M 3841 3500 
L 2234 1784 
L 3219 0 
L 2559 0 
L 1819 1388 
L 531 0 
L -166 0 
L 1556 1844 
L 641 3500 
L 1300 3500 
L 1972 2234 
L 3144 3500 
L 3841 3500 
z
" transform="scale(0.015625)"/>
      </defs>
      <use xlink:href="#DejaVuSans-Oblique-78" transform="translate(0 0.3125)"/>
     </g>
    </g>
   </g>
   <g id="matplotlib.axis_2">
    <g id="ytick_1">
     <g id="line2d_7">
      <defs>
       <path id="m03613b2ad2" d="M 0 0 
L -4.8 0 
" style="stroke: #262626"/>
      </defs>
      <g>
       <use xlink:href="#m03613b2ad2" x="38.312875" y="246.7008" style="fill: #262626; stroke: #262626"/>
      </g>
     </g>
     <g id="text_8">
      <!-- −4 -->
      <g style="fill: #262626" transform="translate(19.9795 249.850237) scale(0.088 -0.088)">
       <defs>
        <path id="ArialMT-2212" d="M 3381 1997 
L 356 1997 
L 356 2522 
L 3381 2522 
L 3381 1997 
z
" transform="scale(0.015625)"/>
       </defs>
       <use xlink:href="#ArialMT-2212"/>
       <use xlink:href="#ArialMT-34" x="58.398438"/>
      </g>
     </g>
    </g>
    <g id="ytick_2">
     <g id="line2d_8">
      <g>
       <use xlink:href="#m03613b2ad2" x="38.312875" y="193.4784" style="fill: #262626; stroke: #262626"/>
      </g>
     </g>
     <g id="text_9">
      <!-- −2 -->
      <g style="fill: #262626" transform="translate(19.9795 196.627837) scale(0.088 -0.088)">
       <use xlink:href="#ArialMT-2212"/>
       <use xlink:href="#ArialMT-32" x="58.398438"/>
      </g>
     </g>
    </g>
    <g id="ytick_3">
     <g id="line2d_9">
      <g>
       <use xlink:href="#m03613b2ad2" x="38.312875" y="140.256" style="fill: #262626; stroke: #262626"/>
      </g>
     </g>
     <g id="text_10">
      <!-- 0 -->
      <g style="fill: #262626" transform="translate(25.11925 143.405437) scale(0.088 -0.088)">
       <use xlink:href="#ArialMT-30"/>
      </g>
     </g>
    </g>
    <g id="ytick_4">
     <g id="line2d_10">
      <g>
       <use xlink:href="#m03613b2ad2" x="38.312875" y="87.0336" style="fill: #262626; stroke: #262626"/>
      </g>
     </g>
     <g id="text_11">
      <!-- 2 -->
      <g style="fill: #262626" transform="translate(25.11925 90.183037) scale(0.088 -0.088)">
       <use xlink:href="#ArialMT-32"/>
      </g>
     </g>
    </g>
    <g id="ytick_5">
     <g id="line2d_11">
      <g>
       <use xlink:href="#m03613b2ad2" x="38.312875" y="33.8112" style="fill: #262626; stroke: #262626"/>
      </g>
     </g>
     <g id="text_12">
      <!-- 4 -->
      <g style="fill: #262626" transform="translate(25.11925 36.960637) scale(0.088 -0.088)">
       <use xlink:href="#ArialMT-34"/>
      </g>
     </g>
    </g>
    <g id="text_13">
     <!-- $y$ -->
     <g style="fill: #262626" transform="translate(13.9635 143.136) rotate(-90) scale(0.096 -0.096)">
      <defs>
       <path id="DejaVuSans-Oblique-79" d="M 1588 -325 
Q 1188 -997 936 -1164 
Q 684 -1331 294 -1331 
L -159 -1331 
L -63 -850 
L 269 -850 
Q 509 -850 678 -719 
Q 847 -588 1056 -206 
L 1234 128 
L 459 3500 
L 1069 3500 
L 1650 819 
L 3256 3500 
L 3859 3500 
L 1588 -325 
z
" transform="scale(0.015625)"/>
      </defs>
      <use xlink:href="#DejaVuSans-Oblique-79" transform="translate(0 0.3125)"/>
     </g>
    </g>
   </g>
   <g id="line2d_12">
    <path d="M 54.545602 140.256 
L 379.200148 140.256 
L 379.200148 140.256 
" clip-path="url(#p795e5c08bf)" style="fill: none; stroke: #1f77b4; stroke-width: 1.2; stroke-linecap: round"/>
   </g>
   <g id="line2d_13">
    <path d="M 54.545602 143.550756 
L 56.177032 142.497758 
L 57.808462 142.054076 
L 59.439892 142.537011 
L 61.071322 143.644049 
L 62.702752 145.438477 
L 64.334181 147.728137 
L 67.597041 153.334075 
L 70.859901 159.244775 
L 74.12276 164.57711 
L 75.75419 166.835437 
L 79.01705 170.132647 
L 80.64848 171.642089 
L 87.1742 175.35913 
L 88.80563 175.851112 
L 92.06849 176.142726 
L 93.699918 175.510889 
L 95.33135 174.532748 
L 96.962778 172.746919 
L 98.59421 170.138174 
L 100.225638 166.790663 
L 101.85707 162.471453 
L 105.11993 152.220294 
L 111.645645 129.162845 
L 113.277078 124.250877 
L 114.908505 119.89238 
L 116.539938 116.732506 
L 118.171365 114.179894 
L 119.802798 112.708984 
L 121.434225 112.080646 
L 123.065658 112.261641 
L 124.697085 113.060938 
L 126.328518 114.624363 
L 127.959945 116.514725 
L 131.222806 121.54845 
L 132.854233 124.303204 
L 134.485666 126.826796 
L 137.748526 132.34893 
L 141.011381 136.923216 
L 142.642818 138.623251 
L 144.274246 139.982465 
L 145.905673 141.1184 
L 147.537101 141.360756 
L 149.168538 141.321583 
L 150.799966 140.69747 
L 152.431393 139.813995 
L 154.062821 138.195726 
L 157.325686 134.358256 
L 167.114261 119.494233 
L 170.377126 115.66773 
L 172.008553 113.947066 
L 173.639981 112.731221 
L 176.902846 111.019606 
L 178.534273 110.604786 
L 180.165701 110.735101 
L 181.797129 110.987077 
L 183.428566 111.527545 
L 188.322849 115.610435 
L 189.954276 117.631929 
L 194.848569 124.338076 
L 196.479996 127.123923 
L 198.111434 129.423261 
L 201.374289 133.511292 
L 204.637154 136.620826 
L 207.900009 138.278612 
L 209.531436 138.712786 
L 211.162864 138.939198 
L 212.794301 139.3778 
L 214.425729 139.240726 
L 222.582886 140.25715 
L 225.845741 139.900036 
L 227.477179 139.36822 
L 229.108596 138.493631 
L 230.740034 137.240941 
L 234.002889 133.230968 
L 237.265763 127.902242 
L 238.897181 124.954023 
L 240.528599 122.326195 
L 242.160037 119.46292 
L 245.422911 114.820259 
L 248.685747 111.765563 
L 251.948621 109.876698 
L 255.211477 108.699479 
L 256.842895 108.307281 
L 260.105769 106.926936 
L 261.737206 106.227174 
L 263.368624 105.316371 
L 268.262917 103.116214 
L 269.894354 103.073062 
L 271.525791 103.264361 
L 273.157209 103.89084 
L 274.788627 105.179667 
L 276.420064 106.875497 
L 278.051502 109.126642 
L 279.682939 111.759263 
L 281.314357 114.710878 
L 282.945775 118.102403 
L 286.208649 125.295729 
L 289.471504 132.197623 
L 291.102922 135.351911 
L 292.73436 138.053756 
L 294.365797 140.387441 
L 295.997234 142.483037 
L 297.628652 143.742638 
L 299.260089 144.838838 
L 300.891507 145.216191 
L 302.522944 145.24975 
L 304.154382 144.793087 
L 305.7858 143.896793 
L 309.048655 141.247509 
L 310.680092 139.43705 
L 312.311529 137.333751 
L 313.942947 135.668538 
L 317.205802 131.850496 
L 320.468677 128.923957 
L 322.100114 127.796388 
L 323.731532 127.046113 
L 325.362969 126.853742 
L 326.994387 127.06525 
L 328.625825 127.510098 
L 330.257262 128.348191 
L 331.88868 129.815483 
L 335.151535 133.288531 
L 338.41441 137.759601 
L 341.677265 141.836158 
L 344.94012 145.054513 
L 348.202975 146.423397 
L 349.834412 146.494984 
L 351.46583 145.96392 
L 353.097268 144.848498 
L 354.728705 143.593979 
L 357.99156 140.052151 
L 361.254415 136.276498 
L 362.885852 134.429125 
L 366.148708 131.529539 
L 367.780145 130.266376 
L 371.043 129.033154 
L 374.305855 128.396136 
L 375.937293 128.164139 
L 379.200148 128.034068 
L 379.200148 128.034068 
" clip-path="url(#p795e5c08bf)" style="fill: none; stroke: #ff7f0e; stroke-width: 0.5; stroke-linecap: round"/>
   </g>
   <g id="line2d_14">
    <path d="M 54.545602 184.102978 
L 57.808462 183.999009 
L 59.439892 183.477835 
L 61.071322 182.561445 
L 64.334181 180.277454 
L 67.597041 176.909434 
L 70.859901 172.844388 
L 72.491331 170.349823 
L 74.12276 168.319325 
L 75.75419 165.965752 
L 77.38562 163.998552 
L 79.01705 161.74985 
L 82.27991 158.410516 
L 83.91134 156.996394 
L 85.54277 155.96995 
L 87.1742 155.20726 
L 88.80563 154.571645 
L 90.43706 154.129157 
L 93.699918 154.353289 
L 96.962778 155.159682 
L 98.59421 156.116334 
L 100.225638 156.737576 
L 103.488498 158.361912 
L 105.11993 159.149287 
L 108.382785 159.989328 
L 110.014218 160.008354 
L 111.645645 159.709382 
L 113.277078 158.732597 
L 114.908505 157.299489 
L 116.539938 155.418545 
L 118.171365 153.048218 
L 119.802798 150.342177 
L 123.065658 144.235343 
L 126.328518 138.072185 
L 127.959945 135.686648 
L 131.222806 132.313709 
L 132.854233 131.62077 
L 134.485666 131.46819 
L 136.117098 131.96335 
L 137.748526 133.082731 
L 139.379953 134.415127 
L 142.642818 138.390365 
L 145.905673 143.18179 
L 147.537101 145.389746 
L 150.799966 149.106784 
L 152.431393 150.429155 
L 154.062821 151.423038 
L 155.694258 151.992212 
L 157.325686 152.131626 
L 158.957113 151.908271 
L 160.588541 151.355162 
L 162.219968 150.598462 
L 163.851406 149.508971 
L 165.482833 148.561699 
L 167.114261 147.391569 
L 168.745688 146.534561 
L 170.377126 145.986933 
L 172.008553 145.719997 
L 173.639981 145.826351 
L 175.271409 146.312141 
L 176.902846 147.069282 
L 180.165701 149.590702 
L 186.691421 155.990537 
L 188.322849 157.47144 
L 189.954276 158.698579 
L 193.217141 160.885044 
L 194.848569 161.799006 
L 198.111434 163.33533 
L 199.742861 164.194343 
L 204.637154 167.618036 
L 212.794301 174.310785 
L 214.425729 175.238151 
L 217.688594 176.118011 
L 219.320031 175.942583 
L 220.951449 175.549696 
L 224.214304 173.29405 
L 227.477179 170.154416 
L 229.108596 168.136806 
L 232.371452 164.598423 
L 234.002889 162.928225 
L 237.265763 160.259594 
L 238.897181 159.375302 
L 240.528599 158.752064 
L 242.160037 158.527999 
L 243.791474 158.439702 
L 245.422911 158.853422 
L 247.054329 159.543147 
L 248.685747 160.369246 
L 250.317184 161.406052 
L 251.948621 162.593846 
L 253.580059 164.05996 
L 261.737206 172.766616 
L 263.368624 174.249639 
L 265.000062 175.906656 
L 268.262917 178.789765 
L 271.525791 180.300637 
L 273.157209 180.506418 
L 274.788627 180.353586 
L 276.420064 179.563426 
L 278.051502 178.295742 
L 281.314357 174.452695 
L 284.577212 169.258719 
L 287.840086 163.142362 
L 289.471504 160.575559 
L 292.73436 156.27974 
L 294.365797 154.763482 
L 295.997234 153.750779 
L 297.628652 153.417619 
L 299.260089 153.507737 
L 300.891507 154.200465 
L 302.522944 155.226754 
L 304.154382 156.753604 
L 307.417237 160.778711 
L 312.311529 167.576489 
L 315.574385 171.640918 
L 318.83724 174.807114 
L 320.468677 175.918851 
L 322.100114 176.740436 
L 323.731532 177.269864 
L 325.362969 177.480527 
L 328.625825 177.631443 
L 330.257262 177.557313 
L 333.520117 176.776 
L 335.151535 176.611091 
L 336.782972 176.087528 
L 338.41441 175.836612 
L 340.045827 175.207684 
L 341.677265 174.359312 
L 343.308683 173.760809 
L 346.571557 171.027731 
L 348.202975 169.651485 
L 351.46583 165.975967 
L 354.728705 162.646376 
L 356.360123 161.421716 
L 357.99156 160.745318 
L 359.622997 160.57596 
L 361.254415 160.947939 
L 362.885852 161.818955 
L 364.51727 163.316217 
L 366.148708 165.328001 
L 369.411563 170.050456 
L 371.043 172.861601 
L 372.674437 175.406168 
L 374.305855 177.235258 
L 375.937293 178.546415 
L 377.56871 179.424492 
L 379.200148 179.535104 
L 379.200148 179.535104 
" clip-path="url(#p795e5c08bf)" style="fill: none; stroke: #ff7f0e; stroke-width: 0.5; stroke-linecap: round"/>
   </g>
   <g id="line2d_15">
    <path d="M 54.545602 133.323925 
L 61.071322 148.251413 
L 62.702752 151.660308 
L 64.334181 154.677514 
L 65.965611 157.441351 
L 67.597041 159.780708 
L 69.228471 161.736699 
L 70.859901 163.449728 
L 74.12276 166.035023 
L 75.75419 166.671683 
L 77.38562 167.503456 
L 80.64848 168.869725 
L 83.91134 170.709118 
L 85.54277 171.874095 
L 87.1742 173.393669 
L 88.80563 175.267552 
L 90.43706 177.314962 
L 93.699918 182.349126 
L 100.225638 192.978597 
L 101.85707 194.967707 
L 103.488498 196.562125 
L 105.11993 197.743053 
L 106.751358 198.49808 
L 108.382785 198.575249 
L 110.014218 198.022038 
L 111.645645 196.964855 
L 113.277078 195.630509 
L 121.434225 185.95696 
L 123.065658 184.514654 
L 124.697085 183.658983 
L 126.328518 183.254171 
L 127.959945 183.285095 
L 129.591378 184.487515 
L 131.222806 185.970151 
L 132.854233 188.518689 
L 136.117098 195.328169 
L 139.379953 203.8466 
L 142.642818 213.300632 
L 144.274246 217.774105 
L 145.905673 221.866007 
L 147.537101 225.574352 
L 149.168538 228.325074 
L 150.799966 230.645442 
L 152.431393 231.903564 
L 154.062821 232.682821 
L 155.694258 232.522385 
L 157.325686 231.660046 
L 158.957113 230.379241 
L 160.588541 228.671299 
L 165.482833 220.970034 
L 167.114261 218.115743 
L 172.008553 210.406262 
L 173.639981 208.197013 
L 175.271409 206.237558 
L 180.165701 201.004643 
L 181.797129 199.402034 
L 183.428566 198.024068 
L 186.691421 195.034674 
L 189.954276 192.409597 
L 191.585713 190.971158 
L 194.848569 188.465154 
L 199.742861 186.128353 
L 201.374289 185.811897 
L 203.005716 185.747442 
L 206.268581 186.627928 
L 207.900009 187.184289 
L 209.531436 188.386154 
L 211.162864 189.370719 
L 212.794301 190.749732 
L 216.057156 194.336552 
L 220.951449 200.245225 
L 222.582886 202.520096 
L 225.845741 206.311511 
L 227.477179 207.805507 
L 229.108596 209.469944 
L 230.740034 210.412892 
L 232.371452 211.114421 
L 234.002889 211.448947 
L 235.634326 211.584042 
L 237.265763 211.270555 
L 238.897181 210.714857 
L 242.160037 208.497386 
L 243.791474 206.686693 
L 245.422911 204.551264 
L 248.685747 199.661439 
L 250.317184 196.403041 
L 251.948621 193.445976 
L 258.474332 179.688326 
L 261.737206 172.815578 
L 263.368624 169.3553 
L 265.000062 166.443666 
L 266.631479 163.138892 
L 271.525791 154.664847 
L 274.788627 149.559617 
L 276.420064 147.231617 
L 278.051502 145.111906 
L 279.682939 143.360415 
L 281.314357 142.163886 
L 282.945775 141.19832 
L 284.577212 140.90839 
L 286.208649 141.109483 
L 287.840086 141.898028 
L 289.471504 143.280105 
L 291.102922 145.015094 
L 292.73436 147.033456 
L 299.260089 156.471026 
L 302.522944 159.970152 
L 304.154382 161.041337 
L 305.7858 161.588524 
L 307.417237 161.48537 
L 309.048655 161.102537 
L 310.680092 160.042639 
L 313.942947 156.923479 
L 317.205802 152.906221 
L 318.83724 150.682279 
L 323.731532 145.882627 
L 325.362969 144.83729 
L 326.994387 144.239016 
L 328.625825 143.956364 
L 330.257262 143.889672 
L 340.045827 146.687208 
L 343.308683 147.179328 
L 344.94012 147.042363 
L 346.571557 147.097305 
L 348.202975 146.787624 
L 351.46583 146.612729 
L 353.097268 146.808137 
L 356.360123 146.778555 
L 357.99156 147.039102 
L 359.622997 147.109994 
L 362.885852 147.60893 
L 367.780145 148.77537 
L 372.674437 150.807036 
L 375.937293 152.678986 
L 377.56871 154.135485 
L 379.200148 155.352419 
L 379.200148 155.352419 
" clip-path="url(#p795e5c08bf)" style="fill: none; stroke: #ff7f0e; stroke-width: 0.5; stroke-linecap: round"/>
   </g>
   <g id="line2d_16">
    <path d="M 54.545602 184.336691 
L 56.177032 183.594065 
L 59.439892 181.810736 
L 65.965611 179.223343 
L 67.597041 178.951759 
L 70.859901 178.196494 
L 72.491331 177.961693 
L 74.12276 177.896159 
L 75.75419 177.273722 
L 77.38562 177.322347 
L 79.01705 177.00373 
L 80.64848 176.494661 
L 82.27991 176.439451 
L 85.54277 175.892676 
L 90.43706 175.776535 
L 95.33135 175.908477 
L 103.488498 176.622042 
L 106.751358 176.500178 
L 110.014218 175.692348 
L 113.277078 174.380037 
L 116.539938 172.797882 
L 119.802798 170.744413 
L 123.065658 168.846764 
L 126.328518 167.268319 
L 129.591378 166.767882 
L 132.854233 167.031633 
L 134.485666 167.601109 
L 137.748526 169.364982 
L 147.537101 176.292567 
L 149.168538 177.164144 
L 150.799966 178.212968 
L 152.431393 179.408916 
L 154.062821 180.252609 
L 158.957113 183.587875 
L 160.588541 185.050402 
L 162.219968 186.250379 
L 163.851406 187.868919 
L 168.745688 191.224165 
L 170.377126 191.972124 
L 172.008553 192.248023 
L 173.639981 192.093366 
L 175.271409 191.743138 
L 176.902846 190.990462 
L 178.534273 189.882906 
L 180.165701 188.444645 
L 181.797129 186.820366 
L 185.059993 183.042509 
L 186.691421 180.921622 
L 189.954276 177.477431 
L 191.585713 176.125485 
L 193.217141 175.002794 
L 196.479996 173.246925 
L 198.111434 172.888081 
L 203.005716 172.401465 
L 204.637154 172.476976 
L 206.268581 172.19643 
L 207.900009 172.324435 
L 211.162864 171.962469 
L 216.057156 170.891963 
L 217.688594 170.381353 
L 219.320031 170.15866 
L 220.951449 169.728962 
L 225.845741 169.491087 
L 229.108596 170.427468 
L 232.371452 172.797324 
L 235.634326 175.834705 
L 237.265763 177.514157 
L 238.897181 179.527779 
L 240.528599 181.362559 
L 243.791474 184.57593 
L 245.422911 185.830071 
L 247.054329 186.725939 
L 248.685747 187.207748 
L 250.317184 187.499346 
L 251.948621 187.148889 
L 253.580059 186.312924 
L 255.211477 185.111142 
L 258.474332 181.778791 
L 261.737206 177.705758 
L 263.368624 174.993379 
L 265.000062 172.661055 
L 273.157209 159.775905 
L 274.788627 157.353627 
L 276.420064 155.138383 
L 278.051502 153.146405 
L 279.682939 151.442564 
L 281.314357 150.126816 
L 282.945775 149.388276 
L 284.577212 149.156895 
L 286.208649 149.383084 
L 287.840086 150.387505 
L 289.471504 151.732558 
L 291.102922 153.603449 
L 295.997234 160.844721 
L 297.628652 163.683274 
L 300.891507 168.35756 
L 304.154382 172.056036 
L 305.7858 173.352877 
L 307.417237 174.150124 
L 309.048655 175.245799 
L 310.680092 175.650629 
L 317.205802 178.089993 
L 320.468677 179.741548 
L 322.100114 180.924274 
L 325.362969 182.578658 
L 328.625825 183.71491 
L 330.257262 183.939373 
L 331.88868 183.595492 
L 333.520117 183.09469 
L 335.151535 182.459205 
L 338.41441 180.681466 
L 340.045827 179.703325 
L 341.677265 178.893445 
L 343.308683 178.351124 
L 344.94012 178.012259 
L 346.571557 177.882201 
L 348.202975 177.949927 
L 349.834412 178.222827 
L 351.46583 178.711079 
L 354.728705 179.974214 
L 359.622997 181.584754 
L 361.254415 181.815282 
L 364.51727 182.001188 
L 366.148708 181.629204 
L 367.780145 181.47418 
L 371.043 180.45806 
L 374.305855 179.02265 
L 375.937293 177.996277 
L 379.200148 175.337383 
L 379.200148 175.337383 
" clip-path="url(#p795e5c08bf)" style="fill: none; stroke: #ff7f0e; stroke-width: 0.5; stroke-linecap: round"/>
   </g>
   <g id="line2d_17">
    <path d="M 54.545602 143.605297 
L 56.177032 144.821177 
L 57.808462 146.451118 
L 64.334181 154.04917 
L 67.597041 157.30957 
L 70.859901 159.648466 
L 72.491331 160.67085 
L 75.75419 161.36055 
L 77.38562 161.220914 
L 79.01705 161.197571 
L 80.64848 160.795263 
L 83.91134 160.71228 
L 85.54277 160.851512 
L 87.1742 161.479441 
L 90.43706 163.689886 
L 92.06849 165.48588 
L 93.699918 167.859474 
L 95.33135 170.541072 
L 98.59421 176.658359 
L 100.225638 180.216394 
L 103.488498 186.619213 
L 105.11993 189.261271 
L 106.751358 191.638132 
L 108.382785 193.456257 
L 110.014218 194.638657 
L 111.645645 195.037371 
L 113.277078 194.895613 
L 114.908505 193.915607 
L 116.539938 192.334287 
L 118.171365 190.11982 
L 119.802798 187.543657 
L 126.328518 175.491808 
L 127.959945 172.87384 
L 129.591378 170.827673 
L 131.222806 169.26974 
L 132.854233 168.441772 
L 134.485666 168.264165 
L 136.117098 168.695125 
L 137.748526 169.871183 
L 139.379953 171.21221 
L 141.011381 172.727146 
L 142.642818 174.774132 
L 145.905673 177.670669 
L 147.537101 178.823817 
L 149.168538 179.252991 
L 150.799966 179.403542 
L 152.431393 178.685739 
L 154.062821 177.235848 
L 155.694258 175.367406 
L 157.325686 173.181014 
L 167.114261 156.635683 
L 172.008553 150.255403 
L 173.639981 148.837936 
L 175.271409 147.148141 
L 178.534273 145.165158 
L 180.165701 144.160714 
L 181.797129 143.44541 
L 185.059993 143.109826 
L 186.691421 143.46674 
L 188.322849 143.963094 
L 191.585713 146.194256 
L 196.479996 151.359784 
L 199.742861 155.694109 
L 203.005716 158.972843 
L 204.637154 160.315606 
L 206.268581 161.394141 
L 207.900009 162.07185 
L 209.531436 162.473825 
L 211.162864 162.536197 
L 212.794301 162.419045 
L 214.425729 162.067354 
L 216.057156 161.438144 
L 219.320031 160.57549 
L 222.582886 160.092714 
L 224.214304 160.079457 
L 225.845741 160.224202 
L 229.108596 161.455367 
L 230.740034 162.128908 
L 234.002889 164.021761 
L 237.265763 165.608856 
L 240.528599 167.383162 
L 243.791474 168.303714 
L 245.422911 168.953636 
L 247.054329 169.181433 
L 248.685747 168.936318 
L 250.317184 168.963394 
L 251.948621 168.720821 
L 255.211477 167.378429 
L 256.842895 166.58973 
L 258.474332 166.026115 
L 260.105769 165.289865 
L 263.368624 164.133193 
L 265.000062 163.73159 
L 266.631479 163.514684 
L 268.262917 163.421082 
L 271.525791 163.685184 
L 274.788627 164.651166 
L 278.051502 166.076997 
L 281.314357 167.862354 
L 286.208649 171.550149 
L 291.102922 176.458853 
L 292.73436 178.27655 
L 294.365797 180.300555 
L 299.260089 184.648636 
L 300.891507 185.403438 
L 302.522944 185.945413 
L 304.154382 185.84126 
L 305.7858 185.244309 
L 307.417237 184.238239 
L 309.048655 182.569582 
L 310.680092 180.432516 
L 312.311529 177.774704 
L 313.942947 174.714613 
L 315.574385 171.376951 
L 318.83724 163.663736 
L 323.731532 151.667944 
L 325.362969 147.983716 
L 328.625825 141.841285 
L 330.257262 139.276127 
L 333.520117 135.298121 
L 335.151535 133.861757 
L 338.41441 132.563426 
L 340.045827 132.449299 
L 341.677265 132.453168 
L 343.308683 132.809275 
L 344.94012 133.443655 
L 348.202975 135.003212 
L 349.834412 136.209716 
L 351.46583 137.257587 
L 353.097268 138.469939 
L 354.728705 139.438945 
L 357.99156 141.753271 
L 359.622997 142.733842 
L 361.254415 144.011709 
L 367.780145 147.521254 
L 374.305855 150.697883 
L 375.937293 151.768594 
L 377.56871 152.615394 
L 379.200148 153.764164 
L 379.200148 153.764164 
" clip-path="url(#p795e5c08bf)" style="fill: none; stroke: #ff7f0e; stroke-width: 0.5; stroke-linecap: round"/>
   </g>
   <g id="patch_3">
    <path d="M 38.312875 246.7008 
L 38.312875 33.8112 
" style="fill: none; stroke: #262626; stroke-linejoin: miter; stroke-linecap: square"/>
   </g>
   <g id="patch_4">
    <path d="M 54.545602 273.312 
L 379.200148 273.312 
" style="fill: none; stroke: #262626; stroke-linejoin: miter; stroke-linecap: square"/>
   </g>
   <g id="legend_1">
    <g id="line2d_18">
     <path d="M 334.506625 18.338875 
L 343.306625 18.338875 
L 352.106625 18.338875 
" style="fill: none; stroke: #1f77b4; stroke-width: 1.2; stroke-linecap: round"/>
    </g>
    <g id="text_14">
     <!-- mean -->
     <g style="fill: #262626" transform="translate(359.146625 21.418875) scale(0.088 -0.088)">
      <defs>
       <path id="ArialMT-6d" d="M 422 0 
L 422 3319 
L 925 3319 
L 925 2853 
Q 1081 3097 1340 3245 
Q 1600 3394 1931 3394 
Q 2300 3394 2536 3241 
Q 2772 3088 2869 2813 
Q 3263 3394 3894 3394 
Q 4388 3394 4653 3120 
Q 4919 2847 4919 2278 
L 4919 0 
L 4359 0 
L 4359 2091 
Q 4359 2428 4304 2576 
Q 4250 2725 4106 2815 
Q 3963 2906 3769 2906 
Q 3419 2906 3187 2673 
Q 2956 2441 2956 1928 
L 2956 0 
L 2394 0 
L 2394 2156 
Q 2394 2531 2256 2718 
Q 2119 2906 1806 2906 
Q 1569 2906 1367 2781 
Q 1166 2656 1075 2415 
Q 984 2175 984 1722 
L 984 0 
L 422 0 
z
" transform="scale(0.015625)"/>
       <path id="ArialMT-65" d="M 2694 1069 
L 3275 997 
Q 3138 488 2766 206 
Q 2394 -75 1816 -75 
Q 1088 -75 661 373 
Q 234 822 234 1631 
Q 234 2469 665 2931 
Q 1097 3394 1784 3394 
Q 2450 3394 2872 2941 
Q 3294 2488 3294 1666 
Q 3294 1616 3291 1516 
L 816 1516 
Q 847 969 1125 678 
Q 1403 388 1819 388 
Q 2128 388 2347 550 
Q 2566 713 2694 1069 
z
M 847 1978 
L 2700 1978 
Q 2663 2397 2488 2606 
Q 2219 2931 1791 2931 
Q 1403 2931 1139 2672 
Q 875 2413 847 1978 
z
" transform="scale(0.015625)"/>
       <path id="ArialMT-61" d="M 2588 409 
Q 2275 144 1986 34 
Q 1697 -75 1366 -75 
Q 819 -75 525 192 
Q 231 459 231 875 
Q 231 1119 342 1320 
Q 453 1522 633 1644 
Q 813 1766 1038 1828 
Q 1203 1872 1538 1913 
Q 2219 1994 2541 2106 
Q 2544 2222 2544 2253 
Q 2544 2597 2384 2738 
Q 2169 2928 1744 2928 
Q 1347 2928 1158 2789 
Q 969 2650 878 2297 
L 328 2372 
Q 403 2725 575 2942 
Q 747 3159 1072 3276 
Q 1397 3394 1825 3394 
Q 2250 3394 2515 3294 
Q 2781 3194 2906 3042 
Q 3031 2891 3081 2659 
Q 3109 2516 3109 2141 
L 3109 1391 
Q 3109 606 3145 398 
Q 3181 191 3288 0 
L 2700 0 
Q 2613 175 2588 409 
z
M 2541 1666 
Q 2234 1541 1622 1453 
Q 1275 1403 1131 1340 
Q 988 1278 909 1158 
Q 831 1038 831 891 
Q 831 666 1001 516 
Q 1172 366 1500 366 
Q 1825 366 2078 508 
Q 2331 650 2450 897 
Q 2541 1088 2541 1459 
L 2541 1666 
z
" transform="scale(0.015625)"/>
       <path id="ArialMT-6e" d="M 422 0 
L 422 3319 
L 928 3319 
L 928 2847 
Q 1294 3394 1984 3394 
Q 2284 3394 2536 3286 
Q 2788 3178 2913 3003 
Q 3038 2828 3088 2588 
Q 3119 2431 3119 2041 
L 3119 0 
L 2556 0 
L 2556 2019 
Q 2556 2363 2490 2533 
Q 2425 2703 2258 2804 
Q 2091 2906 1866 2906 
Q 1506 2906 1245 2678 
Q 984 2450 984 1813 
L 984 0 
L 422 0 
z
" transform="scale(0.015625)"/>
      </defs>
      <use xlink:href="#ArialMT-6d"/>
      <use xlink:href="#ArialMT-65" x="83.300781"/>
      <use xlink:href="#ArialMT-61" x="138.916016"/>
      <use xlink:href="#ArialMT-6e" x="194.53125"/>
     </g>
    </g>
    <g id="line2d_19">
     <path d="M 334.506625 30.78675 
L 343.306625 30.78675 
L 352.106625 30.78675 
" style="fill: none; stroke: #ff7f0e; stroke-width: 0.5; stroke-linecap: round"/>
    </g>
    <g id="text_15">
     <!-- sample -->
     <g style="fill: #262626" transform="translate(359.146625 33.86675) scale(0.088 -0.088)">
      <defs>
       <path id="ArialMT-73" d="M 197 991 
L 753 1078 
Q 800 744 1014 566 
Q 1228 388 1613 388 
Q 2000 388 2187 545 
Q 2375 703 2375 916 
Q 2375 1106 2209 1216 
Q 2094 1291 1634 1406 
Q 1016 1563 777 1677 
Q 538 1791 414 1992 
Q 291 2194 291 2438 
Q 291 2659 392 2848 
Q 494 3038 669 3163 
Q 800 3259 1026 3326 
Q 1253 3394 1513 3394 
Q 1903 3394 2198 3281 
Q 2494 3169 2634 2976 
Q 2775 2784 2828 2463 
L 2278 2388 
Q 2241 2644 2061 2787 
Q 1881 2931 1553 2931 
Q 1166 2931 1000 2803 
Q 834 2675 834 2503 
Q 834 2394 903 2306 
Q 972 2216 1119 2156 
Q 1203 2125 1616 2013 
Q 2213 1853 2448 1751 
Q 2684 1650 2818 1456 
Q 2953 1263 2953 975 
Q 2953 694 2789 445 
Q 2625 197 2315 61 
Q 2006 -75 1616 -75 
Q 969 -75 630 194 
Q 291 463 197 991 
z
" transform="scale(0.015625)"/>
       <path id="ArialMT-70" d="M 422 -1272 
L 422 3319 
L 934 3319 
L 934 2888 
Q 1116 3141 1344 3267 
Q 1572 3394 1897 3394 
Q 2322 3394 2647 3175 
Q 2972 2956 3137 2557 
Q 3303 2159 3303 1684 
Q 3303 1175 3120 767 
Q 2938 359 2589 142 
Q 2241 -75 1856 -75 
Q 1575 -75 1351 44 
Q 1128 163 984 344 
L 984 -1272 
L 422 -1272 
z
M 931 1641 
Q 931 1000 1190 694 
Q 1450 388 1819 388 
Q 2194 388 2461 705 
Q 2728 1022 2728 1688 
Q 2728 2322 2467 2637 
Q 2206 2953 1844 2953 
Q 1484 2953 1207 2617 
Q 931 2281 931 1641 
z
" transform="scale(0.015625)"/>
       <path id="ArialMT-6c" d="M 409 0 
L 409 4581 
L 972 4581 
L 972 0 
L 409 0 
z
" transform="scale(0.015625)"/>
      </defs>
      <use xlink:href="#ArialMT-73"/>
      <use xlink:href="#ArialMT-61" x="50"/>
      <use xlink:href="#ArialMT-6d" x="105.615234"/>
      <use xlink:href="#ArialMT-70" x="188.916016"/>
      <use xlink:href="#ArialMT-6c" x="244.53125"/>
      <use xlink:href="#ArialMT-65" x="266.748047"/>
     </g>
    </g>
   </g>
  </g>
 </g>
 <defs>
  <clipPath id="p795e5c08bf">
   <rect x="38.312875" y="7.2" width="357.12" height="266.112"/>
  </clipPath>
 </defs>
</svg>