<?xml version="1.0" encoding="utf-8" standalone="no"?>
<!DOCTYPE svg PUBLIC "-//W3C//DTD SVG 1.1//EN"
  "http://www.w3.org/Graphics/SVG/1.1/DTD/svg11.dtd">
<svg xmlns:xlink="http://www.w3.org/1999/xlink" width="402.632875pt" height="309.639375pt" viewBox="0 0 402.632875 309.639375" xmlns="http://www.w3.org/2000/svg" version="1.1">
 <metadata>
  <rdf:RDF xmlns:dc="http://purl.org/dc/elements/1.1/" xmlns:cc="http://creativecommons.org/ns#" xmlns:rdf="http://www.w3.org/1999/02/22-rdf-syntax-ns#">
   <cc:Work>
    <dc:type rdf:resource="http://purl.org/dc/dcmitype/StillImage"/>
    <dc:date>2023-09-25T16:00:28.029956</dc:date>
    <dc:format>image/svg+xml</dc:format>
    <dc:creator>
     <cc:Agent>
      <dc:title>Matplotlib v3.7.1, https://matplotlib.org/</dc:title>
     </cc:Agent>
    </dc:creator>
   </cc:Work>
  </rdf:RDF>
 </metadata>
 <defs>
  <style type="text/css">*{stroke-linejoin: round; stroke-linecap: butt}</style>
 </defs>
 <g id="figure_1">
  <g id="patch_1">
   <path d="M 0 309.639375 
L 402.632875 309.639375 
L 402.632875 0 
L 0 0 
z
" style="fill: #ffffff"/>
  </g>
  <g id="axes_1">
   <g id="patch_2">
    <path d="M 38.312875 273.312 
L 395.432875 273.312 
L 395.432875 7.2 
L 38.312875 7.2 
z
" style="fill: #ffffff"/>
   </g>
   <g id="matplotlib.axis_1">
    <g id="xtick_1">
     <g id="line2d_1">
      <defs>
       <path id="m8f45255572" d="M 0 0 
L 0 4.8 
" style="stroke: #262626"/>
      </defs>
      <g>
       <use xlink:href="#m8f45255572" x="54.545602" y="273.312" style="fill: #262626; stroke: #262626"/>
      </g>
     </g>
     <g id="text_1">
      <!-- −1.00 -->
      <g style="fill: #262626" transform="translate(43.412915 287.910875) scale(0.088 -0.088)">
       <defs>
        <path id="ArialMT-2212" d="M 3381 1997 
L 356 1997 
L 356 2522 
L 3381 2522 
L 3381 1997 
z
" transform="scale(0.015625)"/>
        <path id="ArialMT-31" d="M 2384 0 
L 1822 0 
L 1822 3584 
Q 1619 3391 1289 3197 
Q 959 3003 697 2906 
L 697 3450 
Q 1169 3672 1522 3987 
Q 1875 4303 2022 4600 
L 2384 4600 
L 2384 0 
z
" transform="scale(0.015625)"/>
        <path id="ArialMT-2e" d="M 581 0 
L 581 641 
L 1222 641 
L 1222 0 
L 581 0 
z
" transform="scale(0.015625)"/>
        <path id="ArialMT-30" d="M 266 2259 
Q 266 3072 433 3567 
Q 600 4063 929 4331 
Q 1259 4600 1759 4600 
Q 2128 4600 2406 4451 
Q 2684 4303 2865 4023 
Q 3047 3744 3150 3342 
Q 3253 2941 3253 2259 
Q 3253 1453 3087 958 
Q 2922 463 2592 192 
Q 2263 -78 1759 -78 
Q 1097 -78 719 397 
Q 266 969 266 2259 
z
M 844 2259 
Q 844 1131 1108 757 
Q 1372 384 1759 384 
Q 2147 384 2411 759 
Q 2675 1134 2675 2259 
Q 2675 3391 2411 3762 
Q 2147 4134 1753 4134 
Q 1366 4134 1134 3806 
Q 844 3388 844 2259 
z
" transform="scale(0.015625)"/>
       </defs>
       <use xlink:href="#ArialMT-2212"/>
       <use xlink:href="#ArialMT-31" x="58.398438"/>
       <use xlink:href="#ArialMT-2e" x="114.013672"/>
       <use xlink:href="#ArialMT-30" x="141.796875"/>
       <use xlink:href="#ArialMT-30" x="197.412109"/>
      </g>
     </g>
    </g>
    <g id="xtick_2">
     <g id="line2d_2">
      <g>
       <use xlink:href="#m8f45255572" x="95.12742" y="273.312" style="fill: #262626; stroke: #262626"/>
      </g>
     </g>
     <g id="text_2">
      <!-- −0.75 -->
      <g style="fill: #262626" transform="translate(83.994733 287.910875) scale(0.088 -0.088)">
       <defs>
        <path id="ArialMT-37" d="M 303 3981 
L 303 4522 
L 3269 4522 
L 3269 4084 
Q 2831 3619 2401 2847 
Q 1972 2075 1738 1259 
Q 1569 684 1522 0 
L 944 0 
Q 953 541 1156 1306 
Q 1359 2072 1739 2783 
Q 2119 3494 2547 3981 
L 303 3981 
z
" transform="scale(0.015625)"/>
        <path id="ArialMT-35" d="M 266 1200 
L 856 1250 
Q 922 819 1161 601 
Q 1400 384 1738 384 
Q 2144 384 2425 690 
Q 2706 997 2706 1503 
Q 2706 1984 2436 2262 
Q 2166 2541 1728 2541 
Q 1456 2541 1237 2417 
Q 1019 2294 894 2097 
L 366 2166 
L 809 4519 
L 3088 4519 
L 3088 3981 
L 1259 3981 
L 1013 2750 
Q 1425 3038 1878 3038 
Q 2478 3038 2890 2622 
Q 3303 2206 3303 1553 
Q 3303 931 2941 478 
Q 2500 -78 1738 -78 
Q 1113 -78 717 272 
Q 322 622 266 1200 
z
" transform="scale(0.015625)"/>
       </defs>
       <use xlink:href="#ArialMT-2212"/>
       <use xlink:href="#ArialMT-30" x="58.398438"/>
       <use xlink:href="#ArialMT-2e" x="114.013672"/>
       <use xlink:href="#ArialMT-37" x="141.796875"/>
       <use xlink:href="#ArialMT-35" x="197.412109"/>
      </g>
     </g>
    </g>
    <g id="xtick_3">
     <g id="line2d_3">
      <g>
       <use xlink:href="#m8f45255572" x="135.709239" y="273.312" style="fill: #262626; stroke: #262626"/>
      </g>
     </g>
     <g id="text_3">
      <!-- −0.50 -->
      <g style="fill: #262626" transform="translate(124.576551 287.910875) scale(0.088 -0.088)">
       <use xlink:href="#ArialMT-2212"/>
       <use xlink:href="#ArialMT-30" x="58.398438"/>
       <use xlink:href="#ArialMT-2e" x="114.013672"/>
       <use xlink:href="#ArialMT-35" x="141.796875"/>
       <use xlink:href="#ArialMT-30" x="197.412109"/>
      </g>
     </g>
    </g>
    <g id="xtick_4">
     <g id="line2d_4">
      <g>
       <use xlink:href="#m8f45255572" x="176.291057" y="273.312" style="fill: #262626; stroke: #262626"/>
      </g>
     </g>
     <g id="text_4">
      <!-- −0.25 -->
      <g style="fill: #262626" transform="translate(165.158369 287.910875) scale(0.088 -0.088)">
       <defs>
        <path id="ArialMT-32" d="M 3222 541 
L 3222 0 
L 194 0 
Q 188 203 259 391 
Q 375 700 629 1000 
Q 884 1300 1366 1694 
Q 2113 2306 2375 2664 
Q 2638 3022 2638 3341 
Q 2638 3675 2398 3904 
Q 2159 4134 1775 4134 
Q 1369 4134 1125 3890 
Q 881 3647 878 3216 
L 300 3275 
Q 359 3922 746 4261 
Q 1134 4600 1788 4600 
Q 2447 4600 2831 4234 
Q 3216 3869 3216 3328 
Q 3216 3053 3103 2787 
Q 2991 2522 2730 2228 
Q 2469 1934 1863 1422 
Q 1356 997 1212 845 
Q 1069 694 975 541 
L 3222 541 
z
" transform="scale(0.015625)"/>
       </defs>
       <use xlink:href="#ArialMT-2212"/>
       <use xlink:href="#ArialMT-30" x="58.398438"/>
       <use xlink:href="#ArialMT-2e" x="114.013672"/>
       <use xlink:href="#ArialMT-32" x="141.796875"/>
       <use xlink:href="#ArialMT-35" x="197.412109"/>
      </g>
     </g>
    </g>
    <g id="xtick_5">
     <g id="line2d_5">
      <g>
       <use xlink:href="#m8f45255572" x="216.872875" y="273.312" style="fill: #262626; stroke: #262626"/>
      </g>
     </g>
     <g id="text_5">
      <!-- 0.00 -->
      <g style="fill: #262626" transform="translate(208.310063 287.910875) scale(0.088 -0.088)">
       <use xlink:href="#ArialMT-30"/>
       <use xlink:href="#ArialMT-2e" x="55.615234"/>
       <use xlink:href="#ArialMT-30" x="83.398438"/>
       <use xlink:href="#ArialMT-30" x="139.013672"/>
      </g>
     </g>
    </g>
    <g id="xtick_6">
     <g id="line2d_6">
      <g>
       <use xlink:href="#m8f45255572" x="257.454693" y="273.312" style="fill: #262626; stroke: #262626"/>
      </g>
     </g>
     <g id="text_6">
      <!-- 0.25 -->
      <g style="fill: #262626" transform="translate(248.891881 287.910875) scale(0.088 -0.088)">
       <use xlink:href="#ArialMT-30"/>
       <use xlink:href="#ArialMT-2e" x="55.615234"/>
       <use xlink:href="#ArialMT-32" x="83.398438"/>
       <use xlink:href="#ArialMT-35" x="139.013672"/>
      </g>
     </g>
    </g>
    <g id="xtick_7">
     <g id="line2d_7">
      <g>
       <use xlink:href="#m8f45255572" x="298.036511" y="273.312" style="fill: #262626; stroke: #262626"/>
      </g>
     </g>
     <g id="text_7">
      <!-- 0.50 -->
      <g style="fill: #262626" transform="translate(289.473699 287.910875) scale(0.088 -0.088)">
       <use xlink:href="#ArialMT-30"/>
       <use xlink:href="#ArialMT-2e" x="55.615234"/>
       <use xlink:href="#ArialMT-35" x="83.398438"/>
       <use xlink:href="#ArialMT-30" x="139.013672"/>
      </g>
     </g>
    </g>
    <g id="xtick_8">
     <g id="line2d_8">
      <g>
       <use xlink:href="#m8f45255572" x="338.61833" y="273.312" style="fill: #262626; stroke: #262626"/>
      </g>
     </g>
     <g id="text_8">
      <!-- 0.75 -->
      <g style="fill: #262626" transform="translate(330.055517 287.910875) scale(0.088 -0.088)">
       <use xlink:href="#ArialMT-30"/>
       <use xlink:href="#ArialMT-2e" x="55.615234"/>
       <use xlink:href="#ArialMT-37" x="83.398438"/>
       <use xlink:href="#ArialMT-35" x="139.013672"/>
      </g>
     </g>
    </g>
    <g id="xtick_9">
     <g id="line2d_9">
      <g>
       <use xlink:href="#m8f45255572" x="379.200148" y="273.312" style="fill: #262626; stroke: #262626"/>
      </g>
     </g>
     <g id="text_9">
      <!-- 1.00 -->
      <g style="fill: #262626" transform="translate(370.637335 287.910875) scale(0.088 -0.088)">
       <use xlink:href="#ArialMT-31"/>
       <use xlink:href="#ArialMT-2e" x="55.615234"/>
       <use xlink:href="#ArialMT-30" x="83.398438"/>
       <use xlink:href="#ArialMT-30" x="139.013672"/>
      </g>
     </g>
    </g>
    <g id="text_10">
     <!-- $x$ -->
     <g style="fill: #262626" transform="translate(213.992875 300.531375) scale(0.096 -0.096)">
      <defs>
       <path id="DejaVuSans-Oblique-78" d="M 3841 3500 
L 2234 1784 
L 3219 0 
L 2559 0 
L 1819 1388 
L 531 0 
L -166 0 
L 1556 1844 
L 641 3500 
L 1300 3500 
L 1972 2234 
L 3144 3500 
L 3841 3500 
z
" transform="scale(0.015625)"/>
      </defs>
      <use xlink:href="#DejaVuSans-Oblique-78" transform="translate(0 0.3125)"/>
     </g>
    </g>
   </g>
   <g id="matplotlib.axis_2">
    <g id="ytick_1">
     <g id="line2d_10">
      <defs>
       <path id="mad04db3445" d="M 0 0 
L -4.8 0 
" style="stroke: #262626"/>
      </defs>
      <g>
       <use xlink:href="#mad04db3445" x="38.312875" y="246.01574" style="fill: #262626; stroke: #262626"/>
      </g>
     </g>
     <g id="text_11">
      <!-- −1 -->
      <g style="fill: #262626" transform="translate(19.9795 249.165178) scale(0.088 -0.088)">
       <use xlink:href="#ArialMT-2212"/>
       <use xlink:href="#ArialMT-31" x="58.398438"/>
      </g>
     </g>
    </g>
    <g id="ytick_2">
     <g id="line2d_11">
      <g>
       <use xlink:href="#mad04db3445" x="38.312875" y="196.274496" style="fill: #262626; stroke: #262626"/>
      </g>
     </g>
     <g id="text_12">
      <!-- 0 -->
      <g style="fill: #262626" transform="translate(25.11925 199.423933) scale(0.088 -0.088)">
       <use xlink:href="#ArialMT-30"/>
      </g>
     </g>
    </g>
    <g id="ytick_3">
     <g id="line2d_12">
      <g>
       <use xlink:href="#mad04db3445" x="38.312875" y="146.533251" style="fill: #262626; stroke: #262626"/>
      </g>
     </g>
     <g id="text_13">
      <!-- 1 -->
      <g style="fill: #262626" transform="translate(25.11925 149.682689) scale(0.088 -0.088)">
       <use xlink:href="#ArialMT-31"/>
      </g>
     </g>
    </g>
    <g id="ytick_4">
     <g id="line2d_13">
      <g>
       <use xlink:href="#mad04db3445" x="38.312875" y="96.792006" style="fill: #262626; stroke: #262626"/>
      </g>
     </g>
     <g id="text_14">
      <!-- 2 -->
      <g style="fill: #262626" transform="translate(25.11925 99.941444) scale(0.088 -0.088)">
       <use xlink:href="#ArialMT-32"/>
      </g>
     </g>
    </g>
    <g id="ytick_5">
     <g id="line2d_14">
      <g>
       <use xlink:href="#mad04db3445" x="38.312875" y="47.050762" style="fill: #262626; stroke: #262626"/>
      </g>
     </g>
     <g id="text_15">
      <!-- 3 -->
      <g style="fill: #262626" transform="translate(25.11925 50.200199) scale(0.088 -0.088)">
       <defs>
        <path id="ArialMT-33" d="M 269 1209 
L 831 1284 
Q 928 806 1161 595 
Q 1394 384 1728 384 
Q 2125 384 2398 659 
Q 2672 934 2672 1341 
Q 2672 1728 2419 1979 
Q 2166 2231 1775 2231 
Q 1616 2231 1378 2169 
L 1441 2663 
Q 1497 2656 1531 2656 
Q 1891 2656 2178 2843 
Q 2466 3031 2466 3422 
Q 2466 3731 2256 3934 
Q 2047 4138 1716 4138 
Q 1388 4138 1169 3931 
Q 950 3725 888 3313 
L 325 3413 
Q 428 3978 793 4289 
Q 1159 4600 1703 4600 
Q 2078 4600 2393 4439 
Q 2709 4278 2876 4000 
Q 3044 3722 3044 3409 
Q 3044 3113 2884 2869 
Q 2725 2625 2413 2481 
Q 2819 2388 3044 2092 
Q 3269 1797 3269 1353 
Q 3269 753 2831 336 
Q 2394 -81 1725 -81 
Q 1122 -81 723 278 
Q 325 638 269 1209 
z
" transform="scale(0.015625)"/>
       </defs>
       <use xlink:href="#ArialMT-33"/>
      </g>
     </g>
    </g>
    <g id="text_16">
     <!-- $y$ -->
     <g style="fill: #262626" transform="translate(13.9635 143.136) rotate(-90) scale(0.096 -0.096)">
      <defs>
       <path id="DejaVuSans-Oblique-79" d="M 1588 -325 
Q 1188 -997 936 -1164 
Q 684 -1331 294 -1331 
L -159 -1331 
L -63 -850 
L 269 -850 
Q 509 -850 678 -719 
Q 847 -588 1056 -206 
L 1234 128 
L 459 3500 
L 1069 3500 
L 1650 819 
L 3256 3500 
L 3859 3500 
L 1588 -325 
z
" transform="scale(0.015625)"/>
      </defs>
      <use xlink:href="#DejaVuSans-Oblique-79" transform="translate(0 0.3125)"/>
     </g>
    </g>
   </g>
   <g id="line2d_15">
    <path d="M 54.545602 225.728446 
L 57.824941 228.172768 
L 61.10428 230.508363 
L 64.383619 232.735734 
L 67.662958 234.855384 
L 70.942296 236.867819 
L 74.221635 238.77354 
L 77.500974 240.573053 
L 80.780313 242.266861 
L 84.059652 243.855468 
L 87.338991 245.339378 
L 90.61833 246.719094 
L 93.897668 247.995119 
L 97.177007 249.167959 
L 100.456346 250.238117 
L 103.735685 251.206096 
L 107.015024 252.0724 
L 110.294363 252.837534 
L 113.573701 253.502 
L 116.85304 254.066303 
L 120.132379 254.530946 
L 123.411718 254.896433 
L 126.691057 255.163269 
L 129.970396 255.331956 
L 133.249735 255.402998 
L 136.529073 255.3769 
L 139.808412 255.254165 
L 143.087751 255.035297 
L 146.36709 254.7208 
L 149.646429 254.311177 
L 152.925768 253.806932 
L 156.205106 253.208569 
L 159.484445 252.516592 
L 162.763784 251.731504 
L 166.043123 250.85381 
L 169.322462 249.884013 
L 172.601801 248.822617 
L 175.881139 247.670125 
L 179.160478 246.427042 
L 182.439817 245.093871 
L 185.719156 243.671116 
L 188.998495 242.159281 
L 192.277834 240.55887 
L 195.557173 238.870386 
L 198.836511 237.094333 
L 202.11585 235.231214 
L 205.395189 233.281535 
L 208.674528 231.245798 
L 211.953867 229.124508 
L 215.233206 226.918167 
L 218.512544 224.62728 
L 221.791883 222.252351 
L 225.071222 219.793883 
L 228.350561 217.252381 
L 231.6299 214.628347 
L 234.909239 211.922286 
L 238.188577 209.134702 
L 241.467916 206.266097 
L 244.747255 203.316977 
L 248.026594 200.287845 
L 251.305933 197.179205 
L 254.585272 193.991559 
L 257.864611 190.725413 
L 261.143949 187.38127 
L 264.423288 183.959634 
L 267.702627 180.461008 
L 270.981966 176.885897 
L 274.261305 173.234804 
L 277.540644 169.508232 
L 280.819982 165.706687 
L 284.099321 161.83067 
L 287.37866 157.880687 
L 290.657999 153.857241 
L 293.937338 149.760836 
L 297.216677 145.591975 
L 300.496015 141.351163 
L 303.775354 137.038902 
L 307.054693 132.655698 
L 310.334032 128.202053 
L 313.613371 123.678472 
L 316.89271 119.085458 
L 320.172049 114.423515 
L 323.451387 109.693147 
L 326.730726 104.894858 
L 330.010065 100.029151 
L 333.289404 95.09653 
L 336.568743 90.097499 
L 339.848082 85.032561 
L 343.12742 79.902222 
L 346.406759 74.706983 
L 349.686098 69.44735 
L 352.965437 64.123825 
L 356.244776 58.736913 
L 359.524115 53.287117 
L 362.803454 47.774942 
L 366.082792 42.20089 
L 369.362131 36.565467 
L 372.64147 30.869175 
L 375.920809 25.112518 
L 379.200148 19.296 
" clip-path="url(#pfef2a15710)" style="fill: none; stroke: #ff0000; stroke-width: 0.5; stroke-linecap: round"/>
   </g>
   <g id="line2d_16">
    <path d="M 54.545602 213.514538 
L 57.824941 216.160778 
L 61.10428 218.692181 
L 64.383619 221.10943 
L 67.662958 223.413209 
L 70.942296 225.604204 
L 74.221635 227.683097 
L 77.500974 229.650574 
L 80.780313 231.507317 
L 84.059652 233.254011 
L 87.338991 234.891341 
L 90.61833 236.41999 
L 93.897668 237.840642 
L 97.177007 239.153981 
L 100.456346 240.360692 
L 103.735685 241.461458 
L 107.015024 242.456964 
L 110.294363 243.347894 
L 113.573701 244.134931 
L 116.85304 244.818761 
L 120.132379 245.400066 
L 123.411718 245.879531 
L 126.691057 246.25784 
L 129.970396 246.535677 
L 133.249735 246.713727 
L 136.529073 246.792673 
L 139.808412 246.773199 
L 143.087751 246.65599 
L 146.36709 246.441729 
L 149.646429 246.131101 
L 152.925768 245.724789 
L 156.205106 245.223478 
L 159.484445 244.627852 
L 162.763784 243.938595 
L 166.043123 243.156391 
L 169.322462 242.281924 
L 172.601801 241.315878 
L 175.881139 240.258937 
L 179.160478 239.111785 
L 182.439817 237.875107 
L 185.719156 236.549586 
L 188.998495 235.135907 
L 192.277834 233.634754 
L 195.557173 232.046809 
L 198.836511 230.372759 
L 202.11585 228.613287 
L 205.395189 226.769076 
L 208.674528 224.840811 
L 211.953867 222.829177 
L 215.233206 220.734856 
L 218.512544 218.558534 
L 221.791883 216.300894 
L 225.071222 213.96262 
L 228.350561 211.544397 
L 231.6299 209.046908 
L 234.909239 206.470838 
L 238.188577 203.81687 
L 241.467916 201.085689 
L 244.747255 198.277979 
L 248.026594 195.394424 
L 251.305933 192.435708 
L 254.585272 189.402514 
L 257.864611 186.295528 
L 261.143949 183.115433 
L 264.423288 179.862913 
L 267.702627 176.538653 
L 270.981966 173.143336 
L 274.261305 169.677646 
L 277.540644 166.142268 
L 280.819982 162.537886 
L 284.099321 158.865183 
L 287.37866 155.124844 
L 290.657999 151.317553 
L 293.937338 147.443994 
L 297.216677 143.504851 
L 300.496015 139.500808 
L 303.775354 135.432549 
L 307.054693 131.300759 
L 310.334032 127.10612 
L 313.613371 122.849318 
L 316.89271 118.531037 
L 320.172049 114.15196 
L 323.451387 109.712772 
L 326.730726 105.214156 
L 330.010065 100.656797 
L 333.289404 96.041379 
L 336.568743 91.368586 
L 339.848082 86.639102 
L 343.12742 81.853611 
L 346.406759 77.012797 
L 349.686098 72.117345 
L 352.965437 67.167937 
L 356.244776 62.165259 
L 359.524115 57.109995 
L 362.803454 52.002828 
L 366.082792 46.844442 
L 369.362131 41.635523 
L 372.64147 36.376753 
L 375.920809 31.068816 
L 379.200148 25.712398 
" clip-path="url(#pfef2a15710)" style="fill: none; stroke: #ff0000; stroke-width: 0.5; stroke-linecap: round"/>
   </g>
   <g id="line2d_17">
    <path d="M 54.545602 190.732035 
L 57.824941 194.69623 
L 61.10428 198.503878 
L 64.383619 202.156298 
L 67.662958 205.65481 
L 70.942296 209.000733 
L 74.221635 212.195386 
L 77.500974 215.24009 
L 80.780313 218.136164 
L 84.059652 220.884927 
L 87.338991 223.487698 
L 90.61833 225.945799 
L 93.897668 228.260547 
L 97.177007 230.433262 
L 100.456346 232.465264 
L 103.735685 234.357873 
L 107.015024 236.112408 
L 110.294363 237.730188 
L 113.573701 239.212533 
L 116.85304 240.560763 
L 120.132379 241.776197 
L 123.411718 242.860154 
L 126.691057 243.813955 
L 129.970396 244.638918 
L 133.249735 245.336363 
L 136.529073 245.90761 
L 139.808412 246.353978 
L 143.087751 246.676787 
L 146.36709 246.877356 
L 149.646429 246.957005 
L 152.925768 246.917053 
L 156.205106 246.75882 
L 159.484445 246.483625 
L 162.763784 246.092788 
L 166.043123 245.587628 
L 169.322462 244.969465 
L 172.601801 244.239619 
L 175.881139 243.399408 
L 179.160478 242.450153 
L 182.439817 241.393173 
L 185.719156 240.229787 
L 188.998495 238.961316 
L 192.277834 237.589078 
L 195.557173 236.114393 
L 198.836511 234.53858 
L 202.11585 232.86296 
L 205.395189 231.088851 
L 208.674528 229.217573 
L 211.953867 227.250446 
L 215.233206 225.188789 
L 218.512544 223.033922 
L 221.791883 220.787164 
L 225.071222 218.449835 
L 228.350561 216.023254 
L 231.6299 213.508741 
L 234.909239 210.907615 
L 238.188577 208.221196 
L 241.467916 205.450803 
L 244.747255 202.597756 
L 248.026594 199.663375 
L 251.305933 196.648978 
L 254.585272 193.555886 
L 257.864611 190.385418 
L 261.143949 187.138893 
L 264.423288 183.817632 
L 267.702627 180.422953 
L 270.981966 176.956175 
L 274.261305 173.41862 
L 277.540644 169.811605 
L 280.819982 166.136451 
L 284.099321 162.394478 
L 287.37866 158.587004 
L 290.657999 154.715349 
L 293.937338 150.780832 
L 297.216677 146.784774 
L 300.496015 142.728494 
L 303.775354 138.613311 
L 307.054693 134.440545 
L 310.334032 130.211515 
L 313.613371 125.927541 
L 316.89271 121.589942 
L 320.172049 117.200038 
L 323.451387 112.759148 
L 326.730726 108.268592 
L 330.010065 103.72969 
L 333.289404 99.143761 
L 336.568743 94.512124 
L 339.848082 89.836099 
L 343.12742 85.117006 
L 346.406759 80.356164 
L 349.686098 75.554892 
L 352.965437 70.71451 
L 356.244776 65.836338 
L 359.524115 60.921695 
L 362.803454 55.971901 
L 366.082792 50.988275 
L 369.362131 45.972136 
L 372.64147 40.924805 
L 375.920809 35.8476 
L 379.200148 30.741842 
" clip-path="url(#pfef2a15710)" style="fill: none; stroke: #ff0000; stroke-width: 0.5; stroke-linecap: round"/>
   </g>
   <g id="line2d_18">
    <path d="M 54.545602 261.216 
L 57.824941 260.586763 
L 61.10428 259.95847 
L 64.383619 259.330012 
L 67.662958 258.700282 
L 70.942296 258.068169 
L 74.221635 257.432568 
L 77.500974 256.792367 
L 80.780313 256.146461 
L 84.059652 255.493739 
L 87.338991 254.833094 
L 90.61833 254.163417 
L 93.897668 253.4836 
L 97.177007 252.792534 
L 100.456346 252.089112 
L 103.735685 251.372223 
L 107.015024 250.640762 
L 110.294363 249.893617 
L 113.573701 249.129683 
L 116.85304 248.347849 
L 120.132379 247.547008 
L 123.411718 246.726051 
L 126.691057 245.88387 
L 129.970396 245.019356 
L 133.249735 244.131402 
L 136.529073 243.218898 
L 139.808412 242.280736 
L 143.087751 241.315808 
L 146.36709 240.323005 
L 149.646429 239.301219 
L 152.925768 238.249342 
L 156.205106 237.166265 
L 159.484445 236.05088 
L 162.763784 234.902079 
L 166.043123 233.718752 
L 169.322462 232.499792 
L 172.601801 231.24409 
L 175.881139 229.950538 
L 179.160478 228.618027 
L 182.439817 227.24545 
L 185.719156 225.831697 
L 188.998495 224.37566 
L 192.277834 222.876231 
L 195.557173 221.332301 
L 198.836511 219.742762 
L 202.11585 218.106506 
L 205.395189 216.422424 
L 208.674528 214.689408 
L 211.953867 212.906349 
L 215.233206 211.07214 
L 218.512544 209.185671 
L 221.791883 207.245834 
L 225.071222 205.25152 
L 228.350561 203.201623 
L 231.6299 201.095032 
L 234.909239 198.93064 
L 238.188577 196.707338 
L 241.467916 194.424018 
L 244.747255 192.079571 
L 248.026594 189.672889 
L 251.305933 187.202864 
L 254.585272 184.668387 
L 257.864611 182.06835 
L 261.143949 179.401644 
L 264.423288 176.667161 
L 267.702627 173.863793 
L 270.981966 170.990431 
L 274.261305 168.045967 
L 277.540644 165.029292 
L 280.819982 161.939298 
L 284.099321 158.774877 
L 287.37866 155.53492 
L 290.657999 152.218319 
L 293.937338 148.823965 
L 297.216677 145.35075 
L 300.496015 141.797566 
L 303.775354 138.163304 
L 307.054693 134.446856 
L 310.334032 130.647113 
L 313.613371 126.762967 
L 316.89271 122.79331 
L 320.172049 118.737032 
L 323.451387 114.593027 
L 326.730726 110.360185 
L 330.010065 106.037398 
L 333.289404 101.623558 
L 336.568743 97.117556 
L 339.848082 92.518283 
L 343.12742 87.824632 
L 346.406759 83.035494 
L 349.686098 78.149761 
L 352.965437 73.166324 
L 356.244776 68.084074 
L 359.524115 62.901904 
L 362.803454 57.618705 
L 366.082792 52.233369 
L 369.362131 46.744787 
L 372.64147 41.15185 
L 375.920809 35.453451 
L 379.200148 29.648481 
" clip-path="url(#pfef2a15710)" style="fill: none; stroke: #ff0000; stroke-width: 0.5; stroke-linecap: round"/>
   </g>
   <g id="line2d_19">
    <path d="M 54.545602 224.024809 
L 57.824941 225.648371 
L 61.10428 227.198913 
L 64.383619 228.67642 
L 67.662958 230.080878 
L 70.942296 231.412274 
L 74.221635 232.670594 
L 77.500974 233.855824 
L 80.780313 234.96795 
L 84.059652 236.00696 
L 87.338991 236.972838 
L 90.61833 237.865571 
L 93.897668 238.685145 
L 97.177007 239.431548 
L 100.456346 240.104763 
L 103.735685 240.704779 
L 107.015024 241.231582 
L 110.294363 241.685157 
L 113.573701 242.06549 
L 116.85304 242.372569 
L 120.132379 242.606378 
L 123.411718 242.766906 
L 126.691057 242.854137 
L 129.970396 242.868057 
L 133.249735 242.808654 
L 136.529073 242.675914 
L 139.808412 242.469821 
L 143.087751 242.190364 
L 146.36709 241.837528 
L 149.646429 241.411299 
L 152.925768 240.911664 
L 156.205106 240.338608 
L 159.484445 239.692119 
L 162.763784 238.972181 
L 166.043123 238.178783 
L 169.322462 237.311908 
L 172.601801 236.371545 
L 175.881139 235.357679 
L 179.160478 234.270296 
L 182.439817 233.109383 
L 185.719156 231.874926 
L 188.998495 230.566911 
L 192.277834 229.185324 
L 195.557173 227.730152 
L 198.836511 226.201381 
L 202.11585 224.598996 
L 205.395189 222.922985 
L 208.674528 221.173333 
L 211.953867 219.350028 
L 215.233206 217.453054 
L 218.512544 215.482398 
L 221.791883 213.438046 
L 225.071222 211.319986 
L 228.350561 209.128202 
L 231.6299 206.862681 
L 234.909239 204.52341 
L 238.188577 202.110374 
L 241.467916 199.62356 
L 244.747255 197.062954 
L 248.026594 194.428542 
L 251.305933 191.720311 
L 254.585272 188.938247 
L 257.864611 186.082335 
L 261.143949 183.152563 
L 264.423288 180.148916 
L 267.702627 177.071381 
L 270.981966 173.919944 
L 274.261305 170.694591 
L 277.540644 167.395308 
L 280.819982 164.022082 
L 284.099321 160.574899 
L 287.37866 157.053744 
L 290.657999 153.458605 
L 293.937338 149.789468 
L 297.216677 146.046318 
L 300.496015 142.229143 
L 303.775354 138.337927 
L 307.054693 134.372658 
L 310.334032 130.333322 
L 313.613371 126.219905 
L 316.89271 122.032392 
L 320.172049 117.770772 
L 323.451387 113.435028 
L 326.730726 109.025149 
L 330.010065 104.54112 
L 333.289404 99.982927 
L 336.568743 95.350557 
L 339.848082 90.643995 
L 343.12742 85.863228 
L 346.406759 81.008243 
L 349.686098 76.079025 
L 352.965437 71.075561 
L 356.244776 65.997837 
L 359.524115 60.845839 
L 362.803454 55.619553 
L 366.082792 50.318966 
L 369.362131 44.944064 
L 372.64147 39.494833 
L 375.920809 33.97126 
L 379.200148 28.37333 
" clip-path="url(#pfef2a15710)" style="fill: none; stroke: #ff0000; stroke-width: 0.5; stroke-linecap: round"/>
   </g>
   <g id="line2d_20">
    <path d="M 54.545602 251.129615 
L 57.824941 250.888649 
L 61.10428 250.645843 
L 64.383619 250.400001 
L 67.662958 250.149926 
L 70.942296 249.894422 
L 74.221635 249.632295 
L 77.500974 249.362347 
L 80.780313 249.083384 
L 84.059652 248.794209 
L 87.338991 248.493626 
L 90.61833 248.18044 
L 93.897668 247.853455 
L 97.177007 247.511474 
L 100.456346 247.153302 
L 103.735685 246.777743 
L 107.015024 246.383601 
L 110.294363 245.969681 
L 113.573701 245.534786 
L 116.85304 245.07772 
L 120.132379 244.597288 
L 123.411718 244.092294 
L 126.691057 243.561542 
L 129.970396 243.003835 
L 133.249735 242.417979 
L 136.529073 241.802777 
L 139.808412 241.157034 
L 143.087751 240.479553 
L 146.36709 239.769139 
L 149.646429 239.024595 
L 152.925768 238.244727 
L 156.205106 237.428337 
L 159.484445 236.574231 
L 162.763784 235.681212 
L 166.043123 234.748084 
L 169.322462 233.773652 
L 172.601801 232.75672 
L 175.881139 231.696091 
L 179.160478 230.59057 
L 182.439817 229.438962 
L 185.719156 228.240069 
L 188.998495 226.992697 
L 192.277834 225.695649 
L 195.557173 224.34773 
L 198.836511 222.947744 
L 202.11585 221.494494 
L 205.395189 219.986785 
L 208.674528 218.423422 
L 211.953867 216.803207 
L 215.233206 215.124946 
L 218.512544 213.387442 
L 221.791883 211.5895 
L 225.071222 209.729924 
L 228.350561 207.807517 
L 231.6299 205.821085 
L 234.909239 203.76943 
L 238.188577 201.651358 
L 241.467916 199.465672 
L 244.747255 197.211176 
L 248.026594 194.886675 
L 251.305933 192.490973 
L 254.585272 190.022874 
L 257.864611 187.481181 
L 261.143949 184.8647 
L 264.423288 182.172234 
L 267.702627 179.402587 
L 270.981966 176.554564 
L 274.261305 173.626968 
L 277.540644 170.618604 
L 280.819982 167.528276 
L 284.099321 164.354788 
L 287.37866 161.096944 
L 290.657999 157.753548 
L 293.937338 154.323405 
L 297.216677 150.805318 
L 300.496015 147.198092 
L 303.775354 143.50053 
L 307.054693 139.711438 
L 310.334032 135.829618 
L 313.613371 131.853876 
L 316.89271 127.783014 
L 320.172049 123.615838 
L 323.451387 119.351152 
L 326.730726 114.987759 
L 330.010065 110.524464 
L 333.289404 105.960071 
L 336.568743 101.293384 
L 339.848082 96.523207 
L 343.12742 91.648345 
L 346.406759 86.667601 
L 349.686098 81.579779 
L 352.965437 76.383684 
L 356.244776 71.078119 
L 359.524115 65.66189 
L 362.803454 60.1338 
L 366.082792 54.492653 
L 369.362131 48.737253 
L 372.64147 42.866404 
L 375.920809 36.878911 
L 379.200148 30.773578 
" clip-path="url(#pfef2a15710)" style="fill: none; stroke: #ff0000; stroke-width: 0.5; stroke-linecap: round"/>
   </g>
   <g id="line2d_21">
    <path d="M 54.545602 231.873803 
L 57.824941 233.297297 
L 61.10428 234.654644 
L 64.383619 235.945678 
L 67.662958 237.170234 
L 70.942296 238.328146 
L 74.221635 239.419249 
L 77.500974 240.443377 
L 80.780313 241.400364 
L 84.059652 242.290044 
L 87.338991 243.112253 
L 90.61833 243.866824 
L 93.897668 244.553591 
L 97.177007 245.17239 
L 100.456346 245.723055 
L 103.735685 246.205419 
L 107.015024 246.619317 
L 110.294363 246.964585 
L 113.573701 247.241055 
L 116.85304 247.448562 
L 120.132379 247.586942 
L 123.411718 247.656027 
L 126.691057 247.655653 
L 129.970396 247.585654 
L 133.249735 247.445864 
L 136.529073 247.236118 
L 139.808412 246.956249 
L 143.087751 246.606093 
L 146.36709 246.185484 
L 149.646429 245.694256 
L 152.925768 245.132244 
L 156.205106 244.499281 
L 159.484445 243.795202 
L 162.763784 243.019843 
L 166.043123 242.173036 
L 169.322462 241.254616 
L 172.601801 240.264419 
L 175.881139 239.202277 
L 179.160478 238.068026 
L 182.439817 236.861499 
L 185.719156 235.582532 
L 188.998495 234.230959 
L 192.277834 232.806613 
L 195.557173 231.30933 
L 198.836511 229.738944 
L 202.11585 228.095289 
L 205.395189 226.378199 
L 208.674528 224.587509 
L 211.953867 222.723053 
L 215.233206 220.784666 
L 218.512544 218.772182 
L 221.791883 216.685435 
L 225.071222 214.52426 
L 228.350561 212.288491 
L 231.6299 209.977962 
L 234.909239 207.592509 
L 238.188577 205.131964 
L 241.467916 202.596163 
L 244.747255 199.98494 
L 248.026594 197.29813 
L 251.305933 194.535566 
L 254.585272 191.697083 
L 257.864611 188.782515 
L 261.143949 185.791698 
L 264.423288 182.724465 
L 267.702627 179.58065 
L 270.981966 176.360088 
L 274.261305 173.062614 
L 277.540644 169.688061 
L 280.819982 166.236264 
L 284.099321 162.707058 
L 287.37866 159.100276 
L 290.657999 155.415754 
L 293.937338 151.653325 
L 297.216677 147.812825 
L 300.496015 143.894086 
L 303.775354 139.896945 
L 307.054693 135.821234 
L 310.334032 131.666789 
L 313.613371 127.433443 
L 316.89271 123.121032 
L 320.172049 118.72939 
L 323.451387 114.25835 
L 326.730726 109.707747 
L 330.010065 105.077417 
L 333.289404 100.367192 
L 336.568743 95.576908 
L 339.848082 90.706398 
L 343.12742 85.755498 
L 346.406759 80.724041 
L 349.686098 75.611863 
L 352.965437 70.418796 
L 356.244776 65.144676 
L 359.524115 59.789338 
L 362.803454 54.352614 
L 366.082792 48.834341 
L 369.362131 43.234351 
L 372.64147 37.55248 
L 375.920809 31.788563 
L 379.200148 25.942432 
" clip-path="url(#pfef2a15710)" style="fill: none; stroke: #ff0000; stroke-width: 0.5; stroke-linecap: round"/>
   </g>
   <g id="line2d_22">
    <path d="M 54.545602 184.913851 
L 57.824941 189.351132 
L 61.10428 193.612429 
L 64.383619 197.699374 
L 67.662958 201.613598 
L 70.942296 205.356731 
L 74.221635 208.930407 
L 77.500974 212.336256 
L 80.780313 215.575909 
L 84.059652 218.650998 
L 87.338991 221.563154 
L 90.61833 224.314009 
L 93.897668 226.905195 
L 97.177007 229.338341 
L 100.456346 231.615081 
L 103.735685 233.737045 
L 107.015024 235.705864 
L 110.294363 237.523171 
L 113.573701 239.190597 
L 116.85304 240.709772 
L 120.132379 242.082328 
L 123.411718 243.309898 
L 126.691057 244.394111 
L 129.970396 245.3366 
L 133.249735 246.138996 
L 136.529073 246.802931 
L 139.808412 247.330035 
L 143.087751 247.72194 
L 146.36709 247.980278 
L 149.646429 248.10668 
L 152.925768 248.102777 
L 156.205106 247.970201 
L 159.484445 247.710583 
L 162.763784 247.325555 
L 166.043123 246.816748 
L 169.322462 246.185793 
L 172.601801 245.434322 
L 175.881139 244.563966 
L 179.160478 243.576357 
L 182.439817 242.473126 
L 185.719156 241.255904 
L 188.998495 239.926323 
L 192.277834 238.486014 
L 195.557173 236.936609 
L 198.836511 235.279739 
L 202.11585 233.517036 
L 205.395189 231.65013 
L 208.674528 229.680653 
L 211.953867 227.610238 
L 215.233206 225.440514 
L 218.512544 223.173113 
L 221.791883 220.809668 
L 225.071222 218.351809 
L 228.350561 215.801167 
L 231.6299 213.159375 
L 234.909239 210.428063 
L 238.188577 207.608863 
L 241.467916 204.703406 
L 244.747255 201.713324 
L 248.026594 198.640248 
L 251.305933 195.485809 
L 254.585272 192.251639 
L 257.864611 188.93937 
L 261.143949 185.550632 
L 264.423288 182.087058 
L 267.702627 178.550278 
L 270.981966 174.941924 
L 274.261305 171.263627 
L 277.540644 167.517019 
L 280.819982 163.703731 
L 284.099321 159.825395 
L 287.37866 155.883641 
L 290.657999 151.880102 
L 293.937338 147.816409 
L 297.216677 143.694193 
L 300.496015 139.515085 
L 303.775354 135.280717 
L 307.054693 130.992721 
L 310.334032 126.652728 
L 313.613371 122.262368 
L 316.89271 117.823274 
L 320.172049 113.337078 
L 323.451387 108.805409 
L 326.730726 104.2299 
L 330.010065 99.612183 
L 333.289404 94.953888 
L 336.568743 90.256647 
L 339.848082 85.522092 
L 343.12742 80.751853 
L 346.406759 75.947563 
L 349.686098 71.110852 
L 352.965437 66.243352 
L 356.244776 61.346695 
L 359.524115 56.422511 
L 362.803454 51.472433 
L 366.082792 46.498091 
L 369.362131 41.501117 
L 372.64147 36.483143 
L 375.920809 31.4458 
L 379.200148 26.390719 
" clip-path="url(#pfef2a15710)" style="fill: none; stroke: #ff0000; stroke-width: 0.5; stroke-linecap: round"/>
   </g>
   <g id="line2d_23">
    <path d="M 54.545602 201.911982 
L 57.824941 205.56578 
L 61.10428 209.06995 
L 64.383619 212.425688 
L 67.662958 215.634189 
L 70.942296 218.696649 
L 74.221635 221.614266 
L 77.500974 224.388233 
L 80.780313 227.019748 
L 84.059652 229.510007 
L 87.338991 231.860204 
L 90.61833 234.071537 
L 93.897668 236.1452 
L 97.177007 238.082391 
L 100.456346 239.884304 
L 103.735685 241.552136 
L 107.015024 243.087083 
L 110.294363 244.490341 
L 113.573701 245.763105 
L 116.85304 246.906572 
L 120.132379 247.921937 
L 123.411718 248.810397 
L 126.691057 249.573147 
L 129.970396 250.211383 
L 133.249735 250.726301 
L 136.529073 251.119097 
L 139.808412 251.390968 
L 143.087751 251.543108 
L 146.36709 251.576714 
L 149.646429 251.492982 
L 152.925768 251.293107 
L 156.205106 250.978286 
L 159.484445 250.549715 
L 162.763784 250.008589 
L 166.043123 249.356104 
L 169.322462 248.593457 
L 172.601801 247.721843 
L 175.881139 246.742458 
L 179.160478 245.656498 
L 182.439817 244.465159 
L 185.719156 243.169638 
L 188.998495 241.771129 
L 192.277834 240.270828 
L 195.557173 238.669933 
L 198.836511 236.969638 
L 202.11585 235.17114 
L 205.395189 233.275634 
L 208.674528 231.284316 
L 211.953867 229.198383 
L 215.233206 227.01903 
L 218.512544 224.747454 
L 221.791883 222.384849 
L 225.071222 219.932412 
L 228.350561 217.39134 
L 231.6299 214.762827 
L 234.909239 212.04807 
L 238.188577 209.248265 
L 241.467916 206.364607 
L 244.747255 203.398293 
L 248.026594 200.350519 
L 251.305933 197.222479 
L 254.585272 194.015372 
L 257.864611 190.730391 
L 261.143949 187.368734 
L 264.423288 183.931596 
L 267.702627 180.420173 
L 270.981966 176.83566 
L 274.261305 173.179255 
L 277.540644 169.452153 
L 280.819982 165.655549 
L 284.099321 161.79064 
L 287.37866 157.858621 
L 290.657999 153.860689 
L 293.937338 149.79804 
L 297.216677 145.671869 
L 300.496015 141.483372 
L 303.775354 137.233745 
L 307.054693 132.924185 
L 310.334032 128.555886 
L 313.613371 124.130046 
L 316.89271 119.647859 
L 320.172049 115.110523 
L 323.451387 110.519232 
L 326.730726 105.875183 
L 330.010065 101.179571 
L 333.289404 96.433593 
L 336.568743 91.638444 
L 339.848082 86.795321 
L 343.12742 81.905419 
L 346.406759 76.969934 
L 349.686098 71.990063 
L 352.965437 66.967 
L 356.244776 61.901943 
L 359.524115 56.796086 
L 362.803454 51.650627 
L 366.082792 46.46676 
L 369.362131 41.245681 
L 372.64147 35.988588 
L 375.920809 30.696675 
L 379.200148 25.371138 
" clip-path="url(#pfef2a15710)" style="fill: none; stroke: #ff0000; stroke-width: 0.5; stroke-linecap: round"/>
   </g>
   <g id="line2d_24">
    <path d="M 54.545602 240.530793 
L 57.824941 241.451811 
L 61.10428 242.323957 
L 64.383619 243.14678 
L 67.662958 243.919836 
L 70.942296 244.642676 
L 74.221635 245.314854 
L 77.500974 245.935922 
L 80.780313 246.505432 
L 84.059652 247.022938 
L 87.338991 247.487993 
L 90.61833 247.900148 
L 93.897668 248.258958 
L 97.177007 248.563974 
L 100.456346 248.81475 
L 103.735685 249.010838 
L 107.015024 249.151791 
L 110.294363 249.237162 
L 113.573701 249.266504 
L 116.85304 249.239368 
L 120.132379 249.155309 
L 123.411718 249.013879 
L 126.691057 248.814631 
L 129.970396 248.557117 
L 133.249735 248.24089 
L 136.529073 247.865504 
L 139.808412 247.43051 
L 143.087751 246.935462 
L 146.36709 246.379912 
L 149.646429 245.763413 
L 152.925768 245.085518 
L 156.205106 244.34578 
L 159.484445 243.543751 
L 162.763784 242.678984 
L 166.043123 241.751033 
L 169.322462 240.759449 
L 172.601801 239.703786 
L 175.881139 238.583596 
L 179.160478 237.398432 
L 182.439817 236.147847 
L 185.719156 234.831393 
L 188.998495 233.448624 
L 192.277834 231.999093 
L 195.557173 230.482351 
L 198.836511 228.897952 
L 202.11585 227.245448 
L 205.395189 225.524393 
L 208.674528 223.734339 
L 211.953867 221.874838 
L 215.233206 219.945445 
L 218.512544 217.94571 
L 221.791883 215.875188 
L 225.071222 213.733431 
L 228.350561 211.519991 
L 231.6299 209.234422 
L 234.909239 206.876277 
L 238.188577 204.445107 
L 241.467916 201.940466 
L 244.747255 199.361907 
L 248.026594 196.708982 
L 251.305933 193.981244 
L 254.585272 191.178246 
L 257.864611 188.299541 
L 261.143949 185.344681 
L 264.423288 182.31322 
L 267.702627 179.204709 
L 270.981966 176.018702 
L 274.261305 172.754752 
L 277.540644 169.412412 
L 280.819982 165.991233 
L 284.099321 162.490769 
L 287.37866 158.910573 
L 290.657999 155.250197 
L 293.937338 151.509195 
L 297.216677 147.687118 
L 300.496015 143.783521 
L 303.775354 139.797955 
L 307.054693 135.729973 
L 310.334032 131.579128 
L 313.613371 127.344973 
L 316.89271 123.027061 
L 320.172049 118.624944 
L 323.451387 114.138175 
L 326.730726 109.566308 
L 330.010065 104.908894 
L 333.289404 100.165486 
L 336.568743 95.335638 
L 339.848082 90.418902 
L 343.12742 85.414831 
L 346.406759 80.322977 
L 349.686098 75.142894 
L 352.965437 69.874134 
L 356.244776 64.51625 
L 359.524115 59.068795 
L 362.803454 53.531321 
L 366.082792 47.903381 
L 369.362131 42.184528 
L 372.64147 36.374316 
L 375.920809 30.472296 
L 379.200148 24.478021 
" clip-path="url(#pfef2a15710)" style="fill: none; stroke: #ff0000; stroke-width: 0.5; stroke-linecap: round"/>
   </g>
   <g id="line2d_25"/>
   <g id="line2d_26">
    <defs>
     <path id="m05646a4db8" d="M -2.4 2.4 
L 2.4 -2.4 
M -2.4 -2.4 
L 2.4 2.4 
" style="stroke: #000000"/>
    </defs>
    <g clip-path="url(#pfef2a15710)">
     <use xlink:href="#m05646a4db8" x="356.349692" y="57.210749" style="stroke: #000000"/>
     <use xlink:href="#m05646a4db8" x="157.258364" y="250.71014" style="stroke: #000000"/>
     <use xlink:href="#m05646a4db8" x="114.25568" y="242.910248" style="stroke: #000000"/>
     <use xlink:href="#m05646a4db8" x="120.957027" y="244.055466" style="stroke: #000000"/>
     <use xlink:href="#m05646a4db8" x="238.860114" y="199.115455" style="stroke: #000000"/>
     <use xlink:href="#m05646a4db8" x="247.891897" y="194.093239" style="stroke: #000000"/>
     <use xlink:href="#m05646a4db8" x="367.679625" y="52.816555" style="stroke: #000000"/>
     <use xlink:href="#m05646a4db8" x="266.602516" y="183.181112" style="stroke: #000000"/>
     <use xlink:href="#m05646a4db8" x="297.681546" y="138.665917" style="stroke: #000000"/>
     <use xlink:href="#m05646a4db8" x="266.730032" y="183.38693" style="stroke: #000000"/>
    </g>
   </g>
   <g id="line2d_27">
    <path d="M 54.545602 221.145118 
L 57.824941 223.114264 
L 61.10428 225.002209 
L 64.383619 226.808951 
L 67.662958 228.534492 
L 70.942296 230.178831 
L 74.221635 231.741967 
L 77.500974 233.223902 
L 80.780313 234.624635 
L 84.059652 235.944166 
L 87.338991 237.182495 
L 90.61833 238.339622 
L 93.897668 239.415548 
L 97.177007 240.410271 
L 100.456346 241.323793 
L 103.735685 242.156112 
L 107.015024 242.90723 
L 110.294363 243.577146 
L 113.573701 244.165859 
L 116.85304 244.673371 
L 120.132379 245.099681 
L 123.411718 245.444789 
L 126.691057 245.708696 
L 129.970396 245.8914 
L 133.249735 245.992902 
L 136.529073 246.013203 
L 139.808412 245.952301 
L 143.087751 245.810198 
L 146.36709 245.586893 
L 149.646429 245.282386 
L 152.925768 244.896677 
L 156.205106 244.429766 
L 159.484445 243.881653 
L 162.763784 243.252338 
L 166.043123 242.541821 
L 169.322462 241.750103 
L 172.601801 240.877182 
L 175.881139 239.92306 
L 179.160478 238.887735 
L 182.439817 237.771209 
L 185.719156 236.573481 
L 188.998495 235.294551 
L 192.277834 233.934419 
L 195.557173 232.493085 
L 198.836511 230.970549 
L 202.11585 229.366811 
L 205.395189 227.681872 
L 208.674528 225.91573 
L 211.953867 224.068387 
L 215.233206 222.139841 
L 218.512544 220.130094 
L 221.791883 218.039145 
L 225.071222 215.866994 
L 228.350561 213.613641 
L 231.6299 211.279086 
L 234.909239 208.863329 
L 238.188577 206.366371 
L 241.467916 203.78821 
L 244.747255 201.128847 
L 248.026594 198.388283 
L 251.305933 195.566517 
L 254.585272 192.663548 
L 257.864611 189.679378 
L 261.143949 186.614006 
L 264.423288 183.467432 
L 267.702627 180.239656 
L 270.981966 176.930678 
L 274.261305 173.540499 
L 277.540644 170.069117 
L 280.819982 166.516533 
L 284.099321 162.882748 
L 287.37866 159.167761 
L 290.657999 155.371571 
L 293.937338 151.49418 
L 297.216677 147.535587 
L 300.496015 143.495792 
L 303.775354 139.374795 
L 307.054693 135.172596 
L 310.334032 130.889196 
L 313.613371 126.524593 
L 316.89271 122.078788 
L 320.172049 117.551782 
L 323.451387 112.943574 
L 326.730726 108.254163 
L 330.010065 103.483551 
L 333.289404 98.631737 
L 336.568743 93.698721 
L 339.848082 88.684503 
L 343.12742 83.589083 
L 346.406759 78.412462 
L 349.686098 73.154638 
L 352.965437 67.815612 
L 356.244776 62.395385 
L 359.524115 56.893956 
L 362.803454 51.311324 
L 366.082792 45.647491 
L 369.362131 39.902456 
L 372.64147 34.076219 
L 375.920809 28.16878 
L 379.200148 22.180139 
" clip-path="url(#pfef2a15710)" style="fill: none; stroke: #1f77b4; stroke-width: 1.2; stroke-linecap: round"/>
   </g>
   <g id="patch_3">
    <path d="M 38.312875 246.01574 
L 38.312875 47.050762 
" style="fill: none; stroke: #262626; stroke-linejoin: miter; stroke-linecap: square"/>
   </g>
   <g id="patch_4">
    <path d="M 54.545602 273.312 
L 379.200148 273.312 
" style="fill: none; stroke: #262626; stroke-linejoin: miter; stroke-linecap: square"/>
   </g>
   <g id="legend_1">
    <g id="line2d_28">
     <path d="M 46.232875 18.338875 
L 55.032875 18.338875 
L 63.832875 18.338875 
" style="fill: none; stroke: #ff0000; stroke-width: 0.5; stroke-linecap: round"/>
    </g>
    <g id="text_17">
     <!-- Posterior samples -->
     <g style="fill: #262626" transform="translate(70.872875 21.418875) scale(0.088 -0.088)">
      <defs>
       <path id="ArialMT-50" d="M 494 0 
L 494 4581 
L 2222 4581 
Q 2678 4581 2919 4538 
Q 3256 4481 3484 4323 
Q 3713 4166 3852 3881 
Q 3991 3597 3991 3256 
Q 3991 2672 3619 2267 
Q 3247 1863 2275 1863 
L 1100 1863 
L 1100 0 
L 494 0 
z
M 1100 2403 
L 2284 2403 
Q 2872 2403 3119 2622 
Q 3366 2841 3366 3238 
Q 3366 3525 3220 3729 
Q 3075 3934 2838 4000 
Q 2684 4041 2272 4041 
L 1100 4041 
L 1100 2403 
z
" transform="scale(0.015625)"/>
       <path id="ArialMT-6f" d="M 213 1659 
Q 213 2581 725 3025 
Q 1153 3394 1769 3394 
Q 2453 3394 2887 2945 
Q 3322 2497 3322 1706 
Q 3322 1066 3130 698 
Q 2938 331 2570 128 
Q 2203 -75 1769 -75 
Q 1072 -75 642 372 
Q 213 819 213 1659 
z
M 791 1659 
Q 791 1022 1069 705 
Q 1347 388 1769 388 
Q 2188 388 2466 706 
Q 2744 1025 2744 1678 
Q 2744 2294 2464 2611 
Q 2184 2928 1769 2928 
Q 1347 2928 1069 2612 
Q 791 2297 791 1659 
z
" transform="scale(0.015625)"/>
       <path id="ArialMT-73" d="M 197 991 
L 753 1078 
Q 800 744 1014 566 
Q 1228 388 1613 388 
Q 2000 388 2187 545 
Q 2375 703 2375 916 
Q 2375 1106 2209 1216 
Q 2094 1291 1634 1406 
Q 1016 1563 777 1677 
Q 538 1791 414 1992 
Q 291 2194 291 2438 
Q 291 2659 392 2848 
Q 494 3038 669 3163 
Q 800 3259 1026 3326 
Q 1253 3394 1513 3394 
Q 1903 3394 2198 3281 
Q 2494 3169 2634 2976 
Q 2775 2784 2828 2463 
L 2278 2388 
Q 2241 2644 2061 2787 
Q 1881 2931 1553 2931 
Q 1166 2931 1000 2803 
Q 834 2675 834 2503 
Q 834 2394 903 2306 
Q 972 2216 1119 2156 
Q 1203 2125 1616 2013 
Q 2213 1853 2448 1751 
Q 2684 1650 2818 1456 
Q 2953 1263 2953 975 
Q 2953 694 2789 445 
Q 2625 197 2315 61 
Q 2006 -75 1616 -75 
Q 969 -75 630 194 
Q 291 463 197 991 
z
" transform="scale(0.015625)"/>
       <path id="ArialMT-74" d="M 1650 503 
L 1731 6 
Q 1494 -44 1306 -44 
Q 1000 -44 831 53 
Q 663 150 594 308 
Q 525 466 525 972 
L 525 2881 
L 113 2881 
L 113 3319 
L 525 3319 
L 525 4141 
L 1084 4478 
L 1084 3319 
L 1650 3319 
L 1650 2881 
L 1084 2881 
L 1084 941 
Q 1084 700 1114 631 
Q 1144 563 1211 522 
Q 1278 481 1403 481 
Q 1497 481 1650 503 
z
" transform="scale(0.015625)"/>
       <path id="ArialMT-65" d="M 2694 1069 
L 3275 997 
Q 3138 488 2766 206 
Q 2394 -75 1816 -75 
Q 1088 -75 661 373 
Q 234 822 234 1631 
Q 234 2469 665 2931 
Q 1097 3394 1784 3394 
Q 2450 3394 2872 2941 
Q 3294 2488 3294 1666 
Q 3294 1616 3291 1516 
L 816 1516 
Q 847 969 1125 678 
Q 1403 388 1819 388 
Q 2128 388 2347 550 
Q 2566 713 2694 1069 
z
M 847 1978 
L 2700 1978 
Q 2663 2397 2488 2606 
Q 2219 2931 1791 2931 
Q 1403 2931 1139 2672 
Q 875 2413 847 1978 
z
" transform="scale(0.015625)"/>
       <path id="ArialMT-72" d="M 416 0 
L 416 3319 
L 922 3319 
L 922 2816 
Q 1116 3169 1280 3281 
Q 1444 3394 1641 3394 
Q 1925 3394 2219 3213 
L 2025 2691 
Q 1819 2813 1613 2813 
Q 1428 2813 1281 2702 
Q 1134 2591 1072 2394 
Q 978 2094 978 1738 
L 978 0 
L 416 0 
z
" transform="scale(0.015625)"/>
       <path id="ArialMT-69" d="M 425 3934 
L 425 4581 
L 988 4581 
L 988 3934 
L 425 3934 
z
M 425 0 
L 425 3319 
L 988 3319 
L 988 0 
L 425 0 
z
" transform="scale(0.015625)"/>
       <path id="ArialMT-20" transform="scale(0.015625)"/>
       <path id="ArialMT-61" d="M 2588 409 
Q 2275 144 1986 34 
Q 1697 -75 1366 -75 
Q 819 -75 525 192 
Q 231 459 231 875 
Q 231 1119 342 1320 
Q 453 1522 633 1644 
Q 813 1766 1038 1828 
Q 1203 1872 1538 1913 
Q 2219 1994 2541 2106 
Q 2544 2222 2544 2253 
Q 2544 2597 2384 2738 
Q 2169 2928 1744 2928 
Q 1347 2928 1158 2789 
Q 969 2650 878 2297 
L 328 2372 
Q 403 2725 575 2942 
Q 747 3159 1072 3276 
Q 1397 3394 1825 3394 
Q 2250 3394 2515 3294 
Q 2781 3194 2906 3042 
Q 3031 2891 3081 2659 
Q 3109 2516 3109 2141 
L 3109 1391 
Q 3109 606 3145 398 
Q 3181 191 3288 0 
L 2700 0 
Q 2613 175 2588 409 
z
M 2541 1666 
Q 2234 1541 1622 1453 
Q 1275 1403 1131 1340 
Q 988 1278 909 1158 
Q 831 1038 831 891 
Q 831 666 1001 516 
Q 1172 366 1500 366 
Q 1825 366 2078 508 
Q 2331 650 2450 897 
Q 2541 1088 2541 1459 
L 2541 1666 
z
" transform="scale(0.015625)"/>
       <path id="ArialMT-6d" d="M 422 0 
L 422 3319 
L 925 3319 
L 925 2853 
Q 1081 3097 1340 3245 
Q 1600 3394 1931 3394 
Q 2300 3394 2536 3241 
Q 2772 3088 2869 2813 
Q 3263 3394 3894 3394 
Q 4388 3394 4653 3120 
Q 4919 2847 4919 2278 
L 4919 0 
L 4359 0 
L 4359 2091 
Q 4359 2428 4304 2576 
Q 4250 2725 4106 2815 
Q 3963 2906 3769 2906 
Q 3419 2906 3187 2673 
Q 2956 2441 2956 1928 
L 2956 0 
L 2394 0 
L 2394 2156 
Q 2394 2531 2256 2718 
Q 2119 2906 1806 2906 
Q 1569 2906 1367 2781 
Q 1166 2656 1075 2415 
Q 984 2175 984 1722 
L 984 0 
L 422 0 
z
" transform="scale(0.015625)"/>
       <path id="ArialMT-70" d="M 422 -1272 
L 422 3319 
L 934 3319 
L 934 2888 
Q 1116 3141 1344 3267 
Q 1572 3394 1897 3394 
Q 2322 3394 2647 3175 
Q 2972 2956 3137 2557 
Q 3303 2159 3303 1684 
Q 3303 1175 3120 767 
Q 2938 359 2589 142 
Q 2241 -75 1856 -75 
Q 1575 -75 1351 44 
Q 1128 163 984 344 
L 984 -1272 
L 422 -1272 
z
M 931 1641 
Q 931 1000 1190 694 
Q 1450 388 1819 388 
Q 2194 388 2461 705 
Q 2728 1022 2728 1688 
Q 2728 2322 2467 2637 
Q 2206 2953 1844 2953 
Q 1484 2953 1207 2617 
Q 931 2281 931 1641 
z
" transform="scale(0.015625)"/>
       <path id="ArialMT-6c" d="M 409 0 
L 409 4581 
L 972 4581 
L 972 0 
L 409 0 
z
" transform="scale(0.015625)"/>
      </defs>
      <use xlink:href="#ArialMT-50"/>
      <use xlink:href="#ArialMT-6f" x="66.699219"/>
      <use xlink:href="#ArialMT-73" x="122.314453"/>
      <use xlink:href="#ArialMT-74" x="172.314453"/>
      <use xlink:href="#ArialMT-65" x="200.097656"/>
      <use xlink:href="#ArialMT-72" x="255.712891"/>
      <use xlink:href="#ArialMT-69" x="289.013672"/>
      <use xlink:href="#ArialMT-6f" x="311.230469"/>
      <use xlink:href="#ArialMT-72" x="366.845703"/>
      <use xlink:href="#ArialMT-20" x="400.146484"/>
      <use xlink:href="#ArialMT-73" x="427.929688"/>
      <use xlink:href="#ArialMT-61" x="477.929688"/>
      <use xlink:href="#ArialMT-6d" x="533.544922"/>
      <use xlink:href="#ArialMT-70" x="616.845703"/>
      <use xlink:href="#ArialMT-6c" x="672.460938"/>
      <use xlink:href="#ArialMT-65" x="694.677734"/>
      <use xlink:href="#ArialMT-73" x="750.292969"/>
     </g>
    </g>
    <g id="line2d_29">
     <g>
      <use xlink:href="#m05646a4db8" x="55.032875" y="30.78675" style="stroke: #000000"/>
     </g>
    </g>
    <g id="text_18">
     <!-- Observed data -->
     <g style="fill: #262626" transform="translate(70.872875 33.86675) scale(0.088 -0.088)">
      <defs>
       <path id="ArialMT-4f" d="M 309 2231 
Q 309 3372 921 4017 
Q 1534 4663 2503 4663 
Q 3138 4663 3647 4359 
Q 4156 4056 4423 3514 
Q 4691 2972 4691 2284 
Q 4691 1588 4409 1038 
Q 4128 488 3612 205 
Q 3097 -78 2500 -78 
Q 1853 -78 1343 234 
Q 834 547 571 1087 
Q 309 1628 309 2231 
z
M 934 2222 
Q 934 1394 1379 917 
Q 1825 441 2497 441 
Q 3181 441 3623 922 
Q 4066 1403 4066 2288 
Q 4066 2847 3877 3264 
Q 3688 3681 3323 3911 
Q 2959 4141 2506 4141 
Q 1863 4141 1398 3698 
Q 934 3256 934 2222 
z
" transform="scale(0.015625)"/>
       <path id="ArialMT-62" d="M 941 0 
L 419 0 
L 419 4581 
L 981 4581 
L 981 2947 
Q 1338 3394 1891 3394 
Q 2197 3394 2470 3270 
Q 2744 3147 2920 2923 
Q 3097 2700 3197 2384 
Q 3297 2069 3297 1709 
Q 3297 856 2875 390 
Q 2453 -75 1863 -75 
Q 1275 -75 941 416 
L 941 0 
z
M 934 1684 
Q 934 1088 1097 822 
Q 1363 388 1816 388 
Q 2184 388 2453 708 
Q 2722 1028 2722 1663 
Q 2722 2313 2464 2622 
Q 2206 2931 1841 2931 
Q 1472 2931 1203 2611 
Q 934 2291 934 1684 
z
" transform="scale(0.015625)"/>
       <path id="ArialMT-76" d="M 1344 0 
L 81 3319 
L 675 3319 
L 1388 1331 
Q 1503 1009 1600 663 
Q 1675 925 1809 1294 
L 2547 3319 
L 3125 3319 
L 1869 0 
L 1344 0 
z
" transform="scale(0.015625)"/>
       <path id="ArialMT-64" d="M 2575 0 
L 2575 419 
Q 2259 -75 1647 -75 
Q 1250 -75 917 144 
Q 584 363 401 755 
Q 219 1147 219 1656 
Q 219 2153 384 2558 
Q 550 2963 881 3178 
Q 1213 3394 1622 3394 
Q 1922 3394 2156 3267 
Q 2391 3141 2538 2938 
L 2538 4581 
L 3097 4581 
L 3097 0 
L 2575 0 
z
M 797 1656 
Q 797 1019 1065 703 
Q 1334 388 1700 388 
Q 2069 388 2326 689 
Q 2584 991 2584 1609 
Q 2584 2291 2321 2609 
Q 2059 2928 1675 2928 
Q 1300 2928 1048 2622 
Q 797 2316 797 1656 
z
" transform="scale(0.015625)"/>
      </defs>
      <use xlink:href="#ArialMT-4f"/>
      <use xlink:href="#ArialMT-62" x="77.783203"/>
      <use xlink:href="#ArialMT-73" x="133.398438"/>
      <use xlink:href="#ArialMT-65" x="183.398438"/>
      <use xlink:href="#ArialMT-72" x="239.013672"/>
      <use xlink:href="#ArialMT-76" x="272.314453"/>
      <use xlink:href="#ArialMT-65" x="322.314453"/>
      <use xlink:href="#ArialMT-64" x="377.929688"/>
      <use xlink:href="#ArialMT-20" x="433.544922"/>
      <use xlink:href="#ArialMT-64" x="461.328125"/>
      <use xlink:href="#ArialMT-61" x="516.943359"/>
      <use xlink:href="#ArialMT-74" x="572.558594"/>
      <use xlink:href="#ArialMT-61" x="600.341797"/>
     </g>
    </g>
    <g id="line2d_30">
     <path d="M 46.232875 43.341875 
L 55.032875 43.341875 
L 63.832875 43.341875 
" style="fill: none; stroke: #1f77b4; stroke-width: 1.2; stroke-linecap: round"/>
    </g>
    <g id="text_19">
     <!-- True response surface -->
     <g style="fill: #262626" transform="translate(70.872875 46.421875) scale(0.088 -0.088)">
      <defs>
       <path id="ArialMT-54" d="M 1659 0 
L 1659 4041 
L 150 4041 
L 150 4581 
L 3781 4581 
L 3781 4041 
L 2266 4041 
L 2266 0 
L 1659 0 
z
" transform="scale(0.015625)"/>
       <path id="ArialMT-75" d="M 2597 0 
L 2597 488 
Q 2209 -75 1544 -75 
Q 1250 -75 995 37 
Q 741 150 617 320 
Q 494 491 444 738 
Q 409 903 409 1263 
L 409 3319 
L 972 3319 
L 972 1478 
Q 972 1038 1006 884 
Q 1059 663 1231 536 
Q 1403 409 1656 409 
Q 1909 409 2131 539 
Q 2353 669 2445 892 
Q 2538 1116 2538 1541 
L 2538 3319 
L 3100 3319 
L 3100 0 
L 2597 0 
z
" transform="scale(0.015625)"/>
       <path id="ArialMT-6e" d="M 422 0 
L 422 3319 
L 928 3319 
L 928 2847 
Q 1294 3394 1984 3394 
Q 2284 3394 2536 3286 
Q 2788 3178 2913 3003 
Q 3038 2828 3088 2588 
Q 3119 2431 3119 2041 
L 3119 0 
L 2556 0 
L 2556 2019 
Q 2556 2363 2490 2533 
Q 2425 2703 2258 2804 
Q 2091 2906 1866 2906 
Q 1506 2906 1245 2678 
Q 984 2450 984 1813 
L 984 0 
L 422 0 
z
" transform="scale(0.015625)"/>
       <path id="ArialMT-66" d="M 556 0 
L 556 2881 
L 59 2881 
L 59 3319 
L 556 3319 
L 556 3672 
Q 556 4006 616 4169 
Q 697 4388 901 4523 
Q 1106 4659 1475 4659 
Q 1713 4659 2000 4603 
L 1916 4113 
Q 1741 4144 1584 4144 
Q 1328 4144 1222 4034 
Q 1116 3925 1116 3625 
L 1116 3319 
L 1763 3319 
L 1763 2881 
L 1116 2881 
L 1116 0 
L 556 0 
z
" transform="scale(0.015625)"/>
       <path id="ArialMT-63" d="M 2588 1216 
L 3141 1144 
Q 3050 572 2676 248 
Q 2303 -75 1759 -75 
Q 1078 -75 664 370 
Q 250 816 250 1647 
Q 250 2184 428 2587 
Q 606 2991 970 3192 
Q 1334 3394 1763 3394 
Q 2303 3394 2647 3120 
Q 2991 2847 3088 2344 
L 2541 2259 
Q 2463 2594 2264 2762 
Q 2066 2931 1784 2931 
Q 1359 2931 1093 2626 
Q 828 2322 828 1663 
Q 828 994 1084 691 
Q 1341 388 1753 388 
Q 2084 388 2306 591 
Q 2528 794 2588 1216 
z
" transform="scale(0.015625)"/>
      </defs>
      <use xlink:href="#ArialMT-54"/>
      <use xlink:href="#ArialMT-72" x="57.333984"/>
      <use xlink:href="#ArialMT-75" x="90.634766"/>
      <use xlink:href="#ArialMT-65" x="146.25"/>
      <use xlink:href="#ArialMT-20" x="201.865234"/>
      <use xlink:href="#ArialMT-72" x="229.648438"/>
      <use xlink:href="#ArialMT-65" x="262.949219"/>
      <use xlink:href="#ArialMT-73" x="318.564453"/>
      <use xlink:href="#ArialMT-70" x="368.564453"/>
      <use xlink:href="#ArialMT-6f" x="424.179688"/>
      <use xlink:href="#ArialMT-6e" x="479.794922"/>
      <use xlink:href="#ArialMT-73" x="535.410156"/>
      <use xlink:href="#ArialMT-65" x="585.410156"/>
      <use xlink:href="#ArialMT-20" x="641.025391"/>
      <use xlink:href="#ArialMT-73" x="668.808594"/>
      <use xlink:href="#ArialMT-75" x="718.808594"/>
      <use xlink:href="#ArialMT-72" x="774.423828"/>
      <use xlink:href="#ArialMT-66" x="807.724609"/>
      <use xlink:href="#ArialMT-61" x="835.507812"/>
      <use xlink:href="#ArialMT-63" x="891.123047"/>
      <use xlink:href="#ArialMT-65" x="941.123047"/>
     </g>
    </g>
   </g>
  </g>
 </g>
 <defs>
  <clipPath id="pfef2a15710">
   <rect x="38.312875" y="7.2" width="357.12" height="266.112"/>
  </clipPath>
 </defs>
</svg>