<?xml version="1.0" encoding="utf-8" standalone="no"?>
<!DOCTYPE svg PUBLIC "-//W3C//DTD SVG 1.1//EN"
  "http://www.w3.org/Graphics/SVG/1.1/DTD/svg11.dtd">
<svg xmlns:xlink="http://www.w3.org/1999/xlink" width="402.632875pt" height="309.639375pt" viewBox="0 0 402.632875 309.639375" xmlns="http://www.w3.org/2000/svg" version="1.1">
 <metadata>
  <rdf:RDF xmlns:dc="http://purl.org/dc/elements/1.1/" xmlns:cc="http://creativecommons.org/ns#" xmlns:rdf="http://www.w3.org/1999/02/22-rdf-syntax-ns#">
   <cc:Work>
    <dc:type rdf:resource="http://purl.org/dc/dcmitype/StillImage"/>
    <dc:date>2023-10-15T22:24:32.743103</dc:date>
    <dc:format>image/svg+xml</dc:format>
    <dc:creator>
     <cc:Agent>
      <dc:title>Matplotlib v3.7.1, https://matplotlib.org/</dc:title>
     </cc:Agent>
    </dc:creator>
   </cc:Work>
  </rdf:RDF>
 </metadata>
 <defs>
  <style type="text/css">*{stroke-linejoin: round; stroke-linecap: butt}</style>
 </defs>
 <g id="figure_1">
  <g id="patch_1">
   <path d="M 0 309.639375 
L 402.632875 309.639375 
L 402.632875 0 
L 0 0 
z
" style="fill: #ffffff"/>
  </g>
  <g id="axes_1">
   <g id="patch_2">
    <path d="M 38.312875 273.312 
L 395.432875 273.312 
L 395.432875 7.2 
L 38.312875 7.2 
z
" style="fill: #ffffff"/>
   </g>
   <g id="matplotlib.axis_1">
    <g id="xtick_1">
     <g id="line2d_1">
      <defs>
       <path id="md83f4f3e77" d="M 0 0 
L 0 4.8 
" style="stroke: #262626"/>
      </defs>
      <g>
       <use xlink:href="#md83f4f3e77" x="54.545602" y="273.312" style="fill: #262626; stroke: #262626"/>
      </g>
     </g>
     <g id="text_1">
      <!-- 0.0 -->
      <g style="fill: #262626" transform="translate(48.429602 287.910875) scale(0.088 -0.088)">
       <defs>
        <path id="ArialMT-30" d="M 266 2259 
Q 266 3072 433 3567 
Q 600 4063 929 4331 
Q 1259 4600 1759 4600 
Q 2128 4600 2406 4451 
Q 2684 4303 2865 4023 
Q 3047 3744 3150 3342 
Q 3253 2941 3253 2259 
Q 3253 1453 3087 958 
Q 2922 463 2592 192 
Q 2263 -78 1759 -78 
Q 1097 -78 719 397 
Q 266 969 266 2259 
z
M 844 2259 
Q 844 1131 1108 757 
Q 1372 384 1759 384 
Q 2147 384 2411 759 
Q 2675 1134 2675 2259 
Q 2675 3391 2411 3762 
Q 2147 4134 1753 4134 
Q 1366 4134 1134 3806 
Q 844 3388 844 2259 
z
" transform="scale(0.015625)"/>
        <path id="ArialMT-2e" d="M 581 0 
L 581 641 
L 1222 641 
L 1222 0 
L 581 0 
z
" transform="scale(0.015625)"/>
       </defs>
       <use xlink:href="#ArialMT-30"/>
       <use xlink:href="#ArialMT-2e" x="55.615234"/>
       <use xlink:href="#ArialMT-30" x="83.398438"/>
      </g>
     </g>
    </g>
    <g id="xtick_2">
     <g id="line2d_2">
      <g>
       <use xlink:href="#md83f4f3e77" x="119.476511" y="273.312" style="fill: #262626; stroke: #262626"/>
      </g>
     </g>
     <g id="text_2">
      <!-- 0.2 -->
      <g style="fill: #262626" transform="translate(113.360511 287.910875) scale(0.088 -0.088)">
       <defs>
        <path id="ArialMT-32" d="M 3222 541 
L 3222 0 
L 194 0 
Q 188 203 259 391 
Q 375 700 629 1000 
Q 884 1300 1366 1694 
Q 2113 2306 2375 2664 
Q 2638 3022 2638 3341 
Q 2638 3675 2398 3904 
Q 2159 4134 1775 4134 
Q 1369 4134 1125 3890 
Q 881 3647 878 3216 
L 300 3275 
Q 359 3922 746 4261 
Q 1134 4600 1788 4600 
Q 2447 4600 2831 4234 
Q 3216 3869 3216 3328 
Q 3216 3053 3103 2787 
Q 2991 2522 2730 2228 
Q 2469 1934 1863 1422 
Q 1356 997 1212 845 
Q 1069 694 975 541 
L 3222 541 
z
" transform="scale(0.015625)"/>
       </defs>
       <use xlink:href="#ArialMT-30"/>
       <use xlink:href="#ArialMT-2e" x="55.615234"/>
       <use xlink:href="#ArialMT-32" x="83.398438"/>
      </g>
     </g>
    </g>
    <g id="xtick_3">
     <g id="line2d_3">
      <g>
       <use xlink:href="#md83f4f3e77" x="184.40742" y="273.312" style="fill: #262626; stroke: #262626"/>
      </g>
     </g>
     <g id="text_3">
      <!-- 0.4 -->
      <g style="fill: #262626" transform="translate(178.29142 287.910875) scale(0.088 -0.088)">
       <defs>
        <path id="ArialMT-34" d="M 2069 0 
L 2069 1097 
L 81 1097 
L 81 1613 
L 2172 4581 
L 2631 4581 
L 2631 1613 
L 3250 1613 
L 3250 1097 
L 2631 1097 
L 2631 0 
L 2069 0 
z
M 2069 1613 
L 2069 3678 
L 634 1613 
L 2069 1613 
z
" transform="scale(0.015625)"/>
       </defs>
       <use xlink:href="#ArialMT-30"/>
       <use xlink:href="#ArialMT-2e" x="55.615234"/>
       <use xlink:href="#ArialMT-34" x="83.398438"/>
      </g>
     </g>
    </g>
    <g id="xtick_4">
     <g id="line2d_4">
      <g>
       <use xlink:href="#md83f4f3e77" x="249.33833" y="273.312" style="fill: #262626; stroke: #262626"/>
      </g>
     </g>
     <g id="text_4">
      <!-- 0.6 -->
      <g style="fill: #262626" transform="translate(243.22233 287.910875) scale(0.088 -0.088)">
       <defs>
        <path id="ArialMT-36" d="M 3184 3459 
L 2625 3416 
Q 2550 3747 2413 3897 
Q 2184 4138 1850 4138 
Q 1581 4138 1378 3988 
Q 1113 3794 959 3422 
Q 806 3050 800 2363 
Q 1003 2672 1297 2822 
Q 1591 2972 1913 2972 
Q 2475 2972 2870 2558 
Q 3266 2144 3266 1488 
Q 3266 1056 3080 686 
Q 2894 316 2569 119 
Q 2244 -78 1831 -78 
Q 1128 -78 684 439 
Q 241 956 241 2144 
Q 241 3472 731 4075 
Q 1159 4600 1884 4600 
Q 2425 4600 2770 4297 
Q 3116 3994 3184 3459 
z
M 888 1484 
Q 888 1194 1011 928 
Q 1134 663 1356 523 
Q 1578 384 1822 384 
Q 2178 384 2434 671 
Q 2691 959 2691 1453 
Q 2691 1928 2437 2201 
Q 2184 2475 1800 2475 
Q 1419 2475 1153 2201 
Q 888 1928 888 1484 
z
" transform="scale(0.015625)"/>
       </defs>
       <use xlink:href="#ArialMT-30"/>
       <use xlink:href="#ArialMT-2e" x="55.615234"/>
       <use xlink:href="#ArialMT-36" x="83.398438"/>
      </g>
     </g>
    </g>
    <g id="xtick_5">
     <g id="line2d_5">
      <g>
       <use xlink:href="#md83f4f3e77" x="314.269239" y="273.312" style="fill: #262626; stroke: #262626"/>
      </g>
     </g>
     <g id="text_5">
      <!-- 0.8 -->
      <g style="fill: #262626" transform="translate(308.153239 287.910875) scale(0.088 -0.088)">
       <defs>
        <path id="ArialMT-38" d="M 1131 2484 
Q 781 2613 612 2850 
Q 444 3088 444 3419 
Q 444 3919 803 4259 
Q 1163 4600 1759 4600 
Q 2359 4600 2725 4251 
Q 3091 3903 3091 3403 
Q 3091 3084 2923 2848 
Q 2756 2613 2416 2484 
Q 2838 2347 3058 2040 
Q 3278 1734 3278 1309 
Q 3278 722 2862 322 
Q 2447 -78 1769 -78 
Q 1091 -78 675 323 
Q 259 725 259 1325 
Q 259 1772 486 2073 
Q 713 2375 1131 2484 
z
M 1019 3438 
Q 1019 3113 1228 2906 
Q 1438 2700 1772 2700 
Q 2097 2700 2305 2904 
Q 2513 3109 2513 3406 
Q 2513 3716 2298 3927 
Q 2084 4138 1766 4138 
Q 1444 4138 1231 3931 
Q 1019 3725 1019 3438 
z
M 838 1322 
Q 838 1081 952 856 
Q 1066 631 1291 507 
Q 1516 384 1775 384 
Q 2178 384 2440 643 
Q 2703 903 2703 1303 
Q 2703 1709 2433 1975 
Q 2163 2241 1756 2241 
Q 1359 2241 1098 1978 
Q 838 1716 838 1322 
z
" transform="scale(0.015625)"/>
       </defs>
       <use xlink:href="#ArialMT-30"/>
       <use xlink:href="#ArialMT-2e" x="55.615234"/>
       <use xlink:href="#ArialMT-38" x="83.398438"/>
      </g>
     </g>
    </g>
    <g id="xtick_6">
     <g id="line2d_6">
      <g>
       <use xlink:href="#md83f4f3e77" x="379.200148" y="273.312" style="fill: #262626; stroke: #262626"/>
      </g>
     </g>
     <g id="text_6">
      <!-- 1.0 -->
      <g style="fill: #262626" transform="translate(373.084148 287.910875) scale(0.088 -0.088)">
       <defs>
        <path id="ArialMT-31" d="M 2384 0 
L 1822 0 
L 1822 3584 
Q 1619 3391 1289 3197 
Q 959 3003 697 2906 
L 697 3450 
Q 1169 3672 1522 3987 
Q 1875 4303 2022 4600 
L 2384 4600 
L 2384 0 
z
" transform="scale(0.015625)"/>
       </defs>
       <use xlink:href="#ArialMT-31"/>
       <use xlink:href="#ArialMT-2e" x="55.615234"/>
       <use xlink:href="#ArialMT-30" x="83.398438"/>
      </g>
     </g>
    </g>
    <g id="text_7">
     <!-- $x$ -->
     <g style="fill: #262626" transform="translate(213.992875 300.531375) scale(0.096 -0.096)">
      <defs>
       <path id="DejaVuSans-Oblique-78" d="M 3841 3500 
L 2234 1784 
L 3219 0 
L 2559 0 
L 1819 1388 
L 531 0 
L -166 0 
L 1556 1844 
L 641 3500 
L 1300 3500 
L 1972 2234 
L 3144 3500 
L 3841 3500 
z
" transform="scale(0.015625)"/>
      </defs>
      <use xlink:href="#DejaVuSans-Oblique-78" transform="translate(0 0.3125)"/>
     </g>
    </g>
   </g>
   <g id="matplotlib.axis_2">
    <g id="ytick_1">
     <g id="line2d_7">
      <defs>
       <path id="m3120edea0e" d="M 0 0 
L -4.8 0 
" style="stroke: #262626"/>
      </defs>
      <g>
       <use xlink:href="#m3120edea0e" x="38.312875" y="237.439739" style="fill: #262626; stroke: #262626"/>
      </g>
     </g>
     <g id="text_8">
      <!-- −2 -->
      <g style="fill: #262626" transform="translate(19.9795 240.589177) scale(0.088 -0.088)">
       <defs>
        <path id="ArialMT-2212" d="M 3381 1997 
L 356 1997 
L 356 2522 
L 3381 2522 
L 3381 1997 
z
" transform="scale(0.015625)"/>
       </defs>
       <use xlink:href="#ArialMT-2212"/>
       <use xlink:href="#ArialMT-32" x="58.398438"/>
      </g>
     </g>
    </g>
    <g id="ytick_2">
     <g id="line2d_8">
      <g>
       <use xlink:href="#m3120edea0e" x="38.312875" y="186.51317" style="fill: #262626; stroke: #262626"/>
      </g>
     </g>
     <g id="text_9">
      <!-- −1 -->
      <g style="fill: #262626" transform="translate(19.9795 189.662607) scale(0.088 -0.088)">
       <use xlink:href="#ArialMT-2212"/>
       <use xlink:href="#ArialMT-31" x="58.398438"/>
      </g>
     </g>
    </g>
    <g id="ytick_3">
     <g id="line2d_9">
      <g>
       <use xlink:href="#m3120edea0e" x="38.312875" y="135.5866" style="fill: #262626; stroke: #262626"/>
      </g>
     </g>
     <g id="text_10">
      <!-- 0 -->
      <g style="fill: #262626" transform="translate(25.11925 138.736038) scale(0.088 -0.088)">
       <use xlink:href="#ArialMT-30"/>
      </g>
     </g>
    </g>
    <g id="ytick_4">
     <g id="line2d_10">
      <g>
       <use xlink:href="#m3120edea0e" x="38.312875" y="84.660031" style="fill: #262626; stroke: #262626"/>
      </g>
     </g>
     <g id="text_11">
      <!-- 1 -->
      <g style="fill: #262626" transform="translate(25.11925 87.809468) scale(0.088 -0.088)">
       <use xlink:href="#ArialMT-31"/>
      </g>
     </g>
    </g>
    <g id="ytick_5">
     <g id="line2d_11">
      <g>
       <use xlink:href="#m3120edea0e" x="38.312875" y="33.733462" style="fill: #262626; stroke: #262626"/>
      </g>
     </g>
     <g id="text_12">
      <!-- 2 -->
      <g style="fill: #262626" transform="translate(25.11925 36.882899) scale(0.088 -0.088)">
       <use xlink:href="#ArialMT-32"/>
      </g>
     </g>
    </g>
    <g id="text_13">
     <!-- $y$ -->
     <g style="fill: #262626" transform="translate(13.9635 143.136) rotate(-90) scale(0.096 -0.096)">
      <defs>
       <path id="DejaVuSans-Oblique-79" d="M 1588 -325 
Q 1188 -997 936 -1164 
Q 684 -1331 294 -1331 
L -159 -1331 
L -63 -850 
L 269 -850 
Q 509 -850 678 -719 
Q 847 -588 1056 -206 
L 1234 128 
L 459 3500 
L 1069 3500 
L 1650 819 
L 3256 3500 
L 3859 3500 
L 1588 -325 
z
" transform="scale(0.015625)"/>
      </defs>
      <use xlink:href="#DejaVuSans-Oblique-79" transform="translate(0 0.3125)"/>
     </g>
    </g>
   </g>
   <g id="PolyCollection_1">
    <defs>
     <path id="m882bd151e0" d="M 54.545602 -281.345591 
L 54.545602 -80.820792 
L 57.824941 -82.700561 
L 61.10428 -84.883761 
L 64.383619 -87.389194 
L 67.662958 -90.226274 
L 70.942296 -93.391458 
L 74.221636 -96.86386 
L 77.500973 -100.601671 
L 80.780313 -104.538578 
L 84.059653 -108.581416 
L 87.33899 -112.609587 
L 90.61833 -116.475203 
L 93.89767 -120.007683 
L 97.177007 -123.018361 
L 100.456344 -125.31201 
L 103.735686 -126.699746 
L 107.015024 -127.021414 
L 110.294361 -126.170972 
L 113.573703 -124.129455 
L 116.853041 -120.988853 
L 120.132378 -116.957276 
L 123.41172 -112.326949 
L 126.691057 -107.416522 
L 129.970395 -102.494912 
L 133.249737 -97.724085 
L 136.529069 -93.126498 
L 139.808412 -88.608987 
L 143.087754 -84.054759 
L 146.367086 -79.454185 
L 149.646428 -74.974168 
L 152.92577 -70.916753 
L 156.205103 -67.621725 
L 159.484445 -65.391682 
L 162.763787 -64.454307 
L 166.04312 -64.950423 
L 169.322462 -66.931437 
L 172.601804 -70.359868 
L 175.881137 -75.10998 
L 179.160479 -80.966251 
L 182.439821 -87.62015 
L 185.719153 -94.665033 
L 188.998496 -101.597945 
L 192.277838 -107.848286 
L 195.55717 -112.86887 
L 198.836512 -116.295376 
L 202.115855 -118.088052 
L 205.395187 -118.527447 
L 208.674529 -118.074107 
L 211.953871 -117.219158 
L 215.233204 -116.401162 
L 218.512556 -115.97794 
L 221.791879 -116.223217 
L 225.071221 -117.329618 
L 228.350563 -119.41127 
L 231.629886 -122.504464 
L 234.909247 -126.565958 
L 238.18857 -131.469058 
L 241.467912 -136.998215 
L 244.747254 -142.842933 
L 248.026597 -148.600056 
L 251.305939 -153.802008 
L 254.585262 -158.001605 
L 257.864623 -160.917237 
L 261.143946 -162.55916 
L 264.423288 -163.21831 
L 267.70263 -163.322739 
L 270.981953 -163.287886 
L 274.261315 -163.436666 
L 277.540637 -163.980177 
L 280.81998 -165.024588 
L 284.099322 -166.585868 
L 287.378664 -168.604015 
L 290.658006 -170.95496 
L 293.937329 -173.459773 
L 297.21669 -175.890837 
L 300.496013 -177.971754 
L 303.775355 -179.378301 
L 307.054697 -179.754762 
L 310.33402 -178.793579 
L 313.613382 -176.399196 
L 316.892705 -172.829246 
L 320.172047 -168.608704 
L 323.451389 -164.305375 
L 326.730731 -160.374548 
L 330.010073 -157.126169 
L 333.289396 -154.741742 
L 336.568738 -153.300733 
L 339.84808 -152.802363 
L 343.127423 -153.17743 
L 346.406765 -154.295439 
L 349.686088 -155.966638 
L 352.96543 -157.938338 
L 356.244772 -159.903263 
L 359.524114 -161.516247 
L 362.803456 -162.437681 
L 366.082798 -162.395417 
L 369.362141 -161.229206 
L 372.641463 -158.907228 
L 375.920806 -155.507225 
L 379.200148 -151.176579 
L 379.200148 -255.479525 
L 379.200148 -255.479525 
L 375.920806 -249.845529 
L 372.641463 -244.267811 
L 369.362141 -238.977963 
L 366.082798 -234.184134 
L 362.803456 -230.028128 
L 359.524114 -226.559295 
L 356.244772 -223.739705 
L 352.96543 -221.478014 
L 349.686088 -219.675348 
L 346.406765 -218.25498 
L 343.127423 -217.164819 
L 339.84808 -216.372139 
L 336.568738 -215.849746 
L 333.289396 -215.571221 
L 330.010073 -215.514549 
L 326.730731 -215.674839 
L 323.451389 -216.090901 
L 320.172047 -216.880661 
L 316.892705 -218.270194 
L 313.613382 -220.573398 
L 310.33402 -224.053517 
L 307.054697 -228.711369 
L 303.775355 -234.215496 
L 300.496013 -240.053645 
L 297.21669 -245.706661 
L 293.937329 -250.733632 
L 290.658006 -254.791368 
L 287.378664 -257.63398 
L 284.099322 -259.110118 
L 280.81998 -259.162868 
L 277.540637 -257.830872 
L 274.261315 -255.251878 
L 270.981953 -251.667777 
L 267.70263 -247.430554 
L 264.423288 -243.00104 
L 261.143946 -238.922803 
L 257.864623 -235.737039 
L 254.585262 -233.828536 
L 251.305939 -233.280168 
L 248.026597 -233.860117 
L 244.747254 -235.14839 
L 241.467912 -236.682821 
L 238.18857 -238.045385 
L 234.909247 -238.892478 
L 231.629886 -238.959319 
L 228.350563 -238.056792 
L 225.071221 -236.068487 
L 221.791879 -232.949928 
L 218.512556 -228.730323 
L 215.233204 -223.51682 
L 211.953871 -217.501379 
L 208.674529 -210.968301 
L 205.395187 -204.295962 
L 202.115855 -197.934002 
L 198.836512 -192.325352 
L 195.55717 -187.762243 
L 192.277838 -184.250224 
L 188.998496 -181.507503 
L 185.719153 -179.108704 
L 182.439821 -176.644478 
L 179.160479 -173.810281 
L 175.881137 -170.430676 
L 172.601804 -166.453649 
L 169.322462 -161.936375 
L 166.04312 -157.029699 
L 162.763787 -151.963844 
L 159.484445 -147.034503 
L 156.205103 -142.589545 
L 152.92577 -139.013466 
L 149.646428 -136.704167 
L 146.367086 -136.027317 
L 143.087754 -137.236578 
L 139.808412 -140.375881 
L 136.529069 -145.241308 
L 133.249737 -151.459214 
L 129.970395 -158.627708 
L 126.691057 -166.423716 
L 123.41172 -174.64299 
L 120.132378 -183.185882 
L 116.853041 -192.015793 
L 113.573703 -201.10026 
L 110.294361 -210.365862 
L 107.015024 -219.676665 
L 103.735686 -228.84601 
L 100.456344 -237.6637 
L 97.177007 -245.927224 
L 93.89767 -253.464174 
L 90.61833 -260.146296 
L 87.33899 -265.894857 
L 84.059653 -270.680484 
L 80.780313 -274.518344 
L 77.500973 -277.461222 
L 74.221636 -279.590913 
L 70.942296 -281.009105 
L 67.662958 -281.828545 
L 64.383619 -282.164923 
L 61.10428 -282.130161 
L 57.824941 -281.82704 
L 54.545602 -281.345591 
z
" style="stroke: #1f77b4; stroke-opacity: 0.5; stroke-width: 0.8"/>
    </defs>
    <g clip-path="url(#pa2d429f450)">
     <use xlink:href="#m882bd151e0" x="0" y="309.639375" style="fill: #1f77b4; fill-opacity: 0.5; stroke: #1f77b4; stroke-opacity: 0.5; stroke-width: 0.8"/>
    </g>
   </g>
   <g id="PolyCollection_2">
    <defs>
     <path id="m16136ee5da" d="M 54.545602 -80.820792 
L 54.545602 -72.859363 
L 57.824941 -74.687365 
L 61.10428 -76.799955 
L 64.383619 -79.210741 
L 67.662958 -81.923101 
L 70.942296 -84.926403 
L 74.221636 -88.191672 
L 77.500973 -91.667826 
L 80.780313 -95.278105 
L 84.059653 -98.917798 
L 87.33899 -102.453933 
L 90.61833 -105.726274 
L 93.89767 -108.553393 
L 97.177007 -110.74018 
L 100.456344 -112.09351 
L 103.735686 -112.440536 
L 107.015024 -111.655451 
L 110.294361 -109.684763 
L 113.573703 -106.570448 
L 116.853041 -102.455524 
L 120.132378 -97.570084 
L 123.41172 -92.194891 
L 126.691057 -86.617913 
L 129.970395 -81.088362 
L 133.249737 -75.788825 
L 136.529069 -70.822363 
L 139.808412 -66.224406 
L 143.087754 -61.994601 
L 146.367086 -58.142566 
L 149.646428 -54.726569 
L 152.92577 -51.869533 
L 156.205103 -49.744164 
L 159.484445 -48.53956 
L 162.763787 -48.423375 
L 166.04312 -49.512437 
L 169.322462 -51.853287 
L 172.601804 -55.41189 
L 175.881137 -60.069792 
L 179.160479 -65.623761 
L 182.439821 -71.790092 
L 185.719153 -78.213763 
L 188.998496 -84.489297 
L 192.277838 -90.199781 
L 195.55717 -94.979276 
L 198.836512 -98.587935 
L 202.115855 -100.969872 
L 205.395187 -102.260125 
L 208.674529 -102.737852 
L 211.953871 -102.753921 
L 215.233204 -102.666415 
L 218.512556 -102.797505 
L 221.791879 -103.409811 
L 225.071221 -104.695025 
L 228.350563 -106.768487 
L 231.629886 -109.666544 
L 234.909247 -113.345061 
L 238.18857 -117.679072 
L 241.467912 -122.465792 
L 244.747254 -127.433302 
L 248.026597 -132.262561 
L 251.305939 -136.628484 
L 254.585262 -140.261854 
L 257.864623 -143.015745 
L 261.143946 -144.904605 
L 264.423288 -146.090639 
L 267.70263 -146.824273 
L 270.981953 -147.372917 
L 274.261315 -147.965466 
L 277.540637 -148.761837 
L 280.81998 -149.84139 
L 284.099322 -151.203577 
L 287.378664 -152.774706 
L 290.658006 -154.41818 
L 293.937329 -155.948134 
L 297.21669 -157.147915 
L 300.496013 -157.793658 
L 303.775355 -157.688558 
L 307.054697 -156.703736 
L 310.33402 -154.819201 
L 313.613382 -152.143124 
L 316.892705 -148.901359 
L 320.172047 -145.390746 
L 323.451389 -141.925113 
L 326.730731 -138.786696 
L 330.010073 -136.199003 
L 333.289396 -134.31451 
L 336.568738 -133.214314 
L 339.84808 -132.913964 
L 343.127423 -133.369135 
L 346.406765 -134.481816 
L 349.686088 -136.104943 
L 352.96543 -138.044144 
L 356.244772 -140.06607 
L 359.524114 -141.908133 
L 362.803456 -143.299302 
L 366.082798 -143.99194 
L 369.362141 -143.791356 
L 372.641463 -142.583647 
L 375.920806 -140.348383 
L 379.200148 -137.149311 
L 379.200148 -151.176579 
L 379.200148 -151.176579 
L 375.920806 -155.507225 
L 372.641463 -158.907228 
L 369.362141 -161.229206 
L 366.082798 -162.395417 
L 362.803456 -162.437681 
L 359.524114 -161.516247 
L 356.244772 -159.903263 
L 352.96543 -157.938338 
L 349.686088 -155.966638 
L 346.406765 -154.295439 
L 343.127423 -153.17743 
L 339.84808 -152.802363 
L 336.568738 -153.300733 
L 333.289396 -154.741742 
L 330.010073 -157.126169 
L 326.730731 -160.374548 
L 323.451389 -164.305375 
L 320.172047 -168.608704 
L 316.892705 -172.829246 
L 313.613382 -176.399196 
L 310.33402 -178.793579 
L 307.054697 -179.754762 
L 303.775355 -179.378301 
L 300.496013 -177.971754 
L 297.21669 -175.890837 
L 293.937329 -173.459773 
L 290.658006 -170.95496 
L 287.378664 -168.604015 
L 284.099322 -166.585868 
L 280.81998 -165.024588 
L 277.540637 -163.980177 
L 274.261315 -163.436666 
L 270.981953 -163.287886 
L 267.70263 -163.322739 
L 264.423288 -163.21831 
L 261.143946 -162.55916 
L 257.864623 -160.917237 
L 254.585262 -158.001605 
L 251.305939 -153.802008 
L 248.026597 -148.600056 
L 244.747254 -142.842933 
L 241.467912 -136.998215 
L 238.18857 -131.469058 
L 234.909247 -126.565958 
L 231.629886 -122.504464 
L 228.350563 -119.41127 
L 225.071221 -117.329618 
L 221.791879 -116.223217 
L 218.512556 -115.97794 
L 215.233204 -116.401162 
L 211.953871 -117.219158 
L 208.674529 -118.074107 
L 205.395187 -118.527447 
L 202.115855 -118.088052 
L 198.836512 -116.295376 
L 195.55717 -112.86887 
L 192.277838 -107.848286 
L 188.998496 -101.597945 
L 185.719153 -94.665033 
L 182.439821 -87.62015 
L 179.160479 -80.966251 
L 175.881137 -75.10998 
L 172.601804 -70.359868 
L 169.322462 -66.931437 
L 166.04312 -64.950423 
L 162.763787 -64.454307 
L 159.484445 -65.391682 
L 156.205103 -67.621725 
L 152.92577 -70.916753 
L 149.646428 -74.974168 
L 146.367086 -79.454185 
L 143.087754 -84.054759 
L 139.808412 -88.608987 
L 136.529069 -93.126498 
L 133.249737 -97.724085 
L 129.970395 -102.494912 
L 126.691057 -107.416522 
L 123.41172 -112.326949 
L 120.132378 -116.957276 
L 116.853041 -120.988853 
L 113.573703 -124.129455 
L 110.294361 -126.170972 
L 107.015024 -127.021414 
L 103.735686 -126.699746 
L 100.456344 -125.31201 
L 97.177007 -123.018361 
L 93.89767 -120.007683 
L 90.61833 -116.475203 
L 87.33899 -112.609587 
L 84.059653 -108.581416 
L 80.780313 -104.538578 
L 77.500973 -100.601671 
L 74.221636 -96.86386 
L 70.942296 -93.391458 
L 67.662958 -90.226274 
L 64.383619 -87.389194 
L 61.10428 -84.883761 
L 57.824941 -82.700561 
L 54.545602 -80.820792 
z
" style="stroke: #ff7f0e; stroke-opacity: 0.5; stroke-width: 0.8"/>
    </defs>
    <g clip-path="url(#pa2d429f450)">
     <use xlink:href="#m16136ee5da" x="0" y="309.639375" style="fill: #ff7f0e; fill-opacity: 0.5; stroke: #ff7f0e; stroke-opacity: 0.5; stroke-width: 0.8"/>
    </g>
   </g>
   <g id="PolyCollection_3">
    <defs>
     <path id="m0a8990ce40" d="M 54.545602 -289.30702 
L 54.545602 -281.345591 
L 57.824941 -281.82704 
L 61.10428 -282.130161 
L 64.383619 -282.164923 
L 67.662958 -281.828545 
L 70.942296 -281.009105 
L 74.221636 -279.590913 
L 77.500973 -277.461222 
L 80.780313 -274.518344 
L 84.059653 -270.680484 
L 87.33899 -265.894857 
L 90.61833 -260.146296 
L 93.89767 -253.464174 
L 97.177007 -245.927224 
L 100.456344 -237.6637 
L 103.735686 -228.84601 
L 107.015024 -219.676665 
L 110.294361 -210.365862 
L 113.573703 -201.10026 
L 116.853041 -192.015793 
L 120.132378 -183.185882 
L 123.41172 -174.64299 
L 126.691057 -166.423716 
L 129.970395 -158.627708 
L 133.249737 -151.459214 
L 136.529069 -145.241308 
L 139.808412 -140.375881 
L 143.087754 -137.236578 
L 146.367086 -136.027317 
L 149.646428 -136.704167 
L 152.92577 -139.013466 
L 156.205103 -142.589545 
L 159.484445 -147.034503 
L 162.763787 -151.963844 
L 166.04312 -157.029699 
L 169.322462 -161.936375 
L 172.601804 -166.453649 
L 175.881137 -170.430676 
L 179.160479 -173.810281 
L 182.439821 -176.644478 
L 185.719153 -179.108704 
L 188.998496 -181.507503 
L 192.277838 -184.250224 
L 195.55717 -187.762243 
L 198.836512 -192.325352 
L 202.115855 -197.934002 
L 205.395187 -204.295962 
L 208.674529 -210.968301 
L 211.953871 -217.501379 
L 215.233204 -223.51682 
L 218.512556 -228.730323 
L 221.791879 -232.949928 
L 225.071221 -236.068487 
L 228.350563 -238.056792 
L 231.629886 -238.959319 
L 234.909247 -238.892478 
L 238.18857 -238.045385 
L 241.467912 -236.682821 
L 244.747254 -235.14839 
L 248.026597 -233.860117 
L 251.305939 -233.280168 
L 254.585262 -233.828536 
L 257.864623 -235.737039 
L 261.143946 -238.922803 
L 264.423288 -243.00104 
L 267.70263 -247.430554 
L 270.981953 -251.667777 
L 274.261315 -255.251878 
L 277.540637 -257.830872 
L 280.81998 -259.162868 
L 284.099322 -259.110118 
L 287.378664 -257.63398 
L 290.658006 -254.791368 
L 293.937329 -250.733632 
L 297.21669 -245.706661 
L 300.496013 -240.053645 
L 303.775355 -234.215496 
L 307.054697 -228.711369 
L 310.33402 -224.053517 
L 313.613382 -220.573398 
L 316.892705 -218.270194 
L 320.172047 -216.880661 
L 323.451389 -216.090901 
L 326.730731 -215.674839 
L 330.010073 -215.514549 
L 333.289396 -215.571221 
L 336.568738 -215.849746 
L 339.84808 -216.372139 
L 343.127423 -217.164819 
L 346.406765 -218.25498 
L 349.686088 -219.675348 
L 352.96543 -221.478014 
L 356.244772 -223.739705 
L 359.524114 -226.559295 
L 362.803456 -230.028128 
L 366.082798 -234.184134 
L 369.362141 -238.977963 
L 372.641463 -244.267811 
L 375.920806 -249.845529 
L 379.200148 -255.479525 
L 379.200148 -269.506799 
L 379.200148 -269.506799 
L 375.920806 -265.004374 
L 372.641463 -260.591398 
L 369.362141 -256.415813 
L 366.082798 -252.587612 
L 362.803456 -249.166509 
L 359.524114 -246.167408 
L 356.244772 -243.576898 
L 352.96543 -241.372213 
L 349.686088 -239.537046 
L 346.406765 -238.0686 
L 343.127423 -236.973115 
L 339.84808 -236.260534 
L 336.568738 -235.936165 
L 333.289396 -235.998453 
L 330.010073 -236.441715 
L 326.730731 -237.262691 
L 323.451389 -238.471163 
L 320.172047 -240.098619 
L 316.892705 -242.198082 
L 313.613382 -244.829468 
L 310.33402 -248.027896 
L 307.054697 -251.762392 
L 303.775355 -255.905243 
L 300.496013 -260.231745 
L 297.21669 -264.449583 
L 293.937329 -268.245274 
L 290.658006 -271.328148 
L 287.378664 -273.463291 
L 284.099322 -274.492409 
L 280.81998 -274.346063 
L 277.540637 -273.049212 
L 274.261315 -270.723078 
L 270.981953 -267.582743 
L 267.70263 -263.92902 
L 264.423288 -260.128709 
L 261.143946 -256.57736 
L 257.864623 -253.638531 
L 254.585262 -251.568287 
L 251.305939 -250.453696 
L 248.026597 -250.197619 
L 244.747254 -250.558025 
L 241.467912 -251.215244 
L 238.18857 -251.835371 
L 234.909247 -252.113376 
L 231.629886 -251.797239 
L 228.350563 -250.699574 
L 225.071221 -248.703079 
L 221.791879 -245.763333 
L 218.512556 -241.910758 
L 215.233204 -237.251563 
L 211.953871 -231.966621 
L 208.674529 -226.304559 
L 205.395187 -220.563284 
L 202.115855 -215.052184 
L 198.836512 -210.03279 
L 195.55717 -205.651835 
L 192.277838 -201.898729 
L 188.998496 -198.616149 
L 185.719153 -195.559975 
L 182.439821 -192.474527 
L 179.160479 -189.152762 
L 175.881137 -185.47087 
L 172.601804 -181.401624 
L 169.322462 -177.014528 
L 166.04312 -172.467682 
L 162.763787 -167.994773 
L 159.484445 -163.88663 
L 156.205103 -160.467112 
L 152.92577 -158.06069 
L 149.646428 -156.95177 
L 146.367086 -157.33893 
L 143.087754 -159.296732 
L 139.808412 -162.760463 
L 136.529069 -167.545437 
L 133.249737 -173.394474 
L 129.970395 -180.034258 
L 126.691057 -187.222325 
L 123.41172 -194.775047 
L 120.132378 -202.573071 
L 116.853041 -210.549119 
L 113.573703 -218.659267 
L 110.294361 -226.852065 
L 107.015024 -235.042629 
L 103.735686 -243.105217 
L 100.456344 -250.8822 
L 97.177007 -258.205393 
L 93.89767 -264.918465 
L 90.61833 -270.895225 
L 87.33899 -276.050511 
L 84.059653 -280.344096 
L 80.780313 -283.778816 
L 77.500973 -286.395067 
L 74.221636 -288.263101 
L 70.942296 -289.474165 
L 67.662958 -290.131718 
L 64.383619 -290.343375 
L 61.10428 -290.213967 
L 57.824941 -289.840241 
L 54.545602 -289.30702 
z
" style="stroke: #ff7f0e; stroke-opacity: 0.5; stroke-width: 0.8"/>
    </defs>
    <g clip-path="url(#pa2d429f450)">
     <use xlink:href="#m0a8990ce40" x="0" y="309.639375" style="fill: #ff7f0e; fill-opacity: 0.5; stroke: #ff7f0e; stroke-opacity: 0.5; stroke-width: 0.8"/>
    </g>
   </g>
   <g id="line2d_12">
    <defs>
     <path id="mada45ce7cd" d="M -5 5 
L 5 -5 
M -5 -5 
L 5 5 
" style="stroke: #000000; stroke-width: 2"/>
    </defs>
    <g clip-path="url(#pa2d429f450)">
     <use xlink:href="#mada45ce7cd" x="116.723262" y="143.103629" style="stroke: #000000; stroke-width: 2"/>
     <use xlink:href="#mada45ce7cd" x="256.516043" y="111.317942" style="stroke: #000000; stroke-width: 2"/>
     <use xlink:href="#mada45ce7cd" x="196.655902" y="157.966511" style="stroke: #000000; stroke-width: 2"/>
     <use xlink:href="#mada45ce7cd" x="309.515836" y="97.490446" style="stroke: #000000; stroke-width: 2"/>
     <use xlink:href="#mada45ce7cd" x="307.768294" y="95.662586" style="stroke: #000000; stroke-width: 2"/>
     <use xlink:href="#mada45ce7cd" x="143.044031" y="224.391881" style="stroke: #000000; stroke-width: 2"/>
     <use xlink:href="#mada45ce7cd" x="144.300979" y="191.913305" style="stroke: #000000; stroke-width: 2"/>
     <use xlink:href="#mada45ce7cd" x="314.87705" y="125.062457" style="stroke: #000000; stroke-width: 2"/>
     <use xlink:href="#mada45ce7cd" x="365.609899" y="102.411152" style="stroke: #000000; stroke-width: 2"/>
     <use xlink:href="#mada45ce7cd" x="338.921114" y="133.513774" style="stroke: #000000; stroke-width: 2"/>
    </g>
   </g>
   <g id="line2d_13">
    <path d="M 54.545602 128.556182 
L 57.824941 127.375574 
L 61.10428 126.132412 
L 64.383619 124.862316 
L 67.662958 123.611964 
L 70.942296 122.439092 
L 74.221636 121.411985 
L 77.500973 120.607925 
L 80.780313 120.110914 
L 84.059653 120.008425 
L 87.33899 120.387156 
L 90.61833 121.328625 
L 93.89767 122.903448 
L 97.177007 125.166585 
L 100.456344 128.15152 
L 103.735686 131.866495 
L 107.015024 136.290335 
L 110.294361 141.370958 
L 113.573703 147.024517 
L 116.853041 153.137054 
L 120.132378 159.567797 
L 123.41172 166.154406 
L 126.691057 172.719256 
L 129.970395 179.078065 
L 133.249737 185.047725 
L 136.529069 190.455473 
L 139.808412 195.146941 
L 143.087754 198.993707 
L 146.367086 201.898624 
L 149.646428 203.800206 
L 152.92577 204.674267 
L 156.205103 204.533737 
L 159.484445 203.42628 
L 162.763787 201.430301 
L 166.04312 198.649315 
L 169.322462 195.205471 
L 172.601804 191.232618 
L 175.881137 186.869047 
L 179.160479 182.251111 
L 182.439821 177.507063 
L 185.719153 172.752506 
L 188.998496 168.086652 
L 192.277838 163.590119 
L 195.55717 159.323818 
L 198.836512 155.329011 
L 202.115855 151.628348 
L 205.395187 148.227672 
L 208.674529 145.11817 
L 211.953871 142.279107 
L 215.233204 139.680383 
L 218.512556 137.285244 
L 221.791879 135.052805 
L 225.071221 132.940326 
L 228.350563 130.905342 
L 231.629886 128.907484 
L 234.909247 126.910158 
L 238.18857 124.882153 
L 241.467912 122.798858 
L 244.747254 120.643713 
L 248.026597 118.409287 
L 251.305939 116.098286 
L 254.585262 113.724303 
L 257.864623 111.312236 
L 261.143946 108.898392 
L 264.423288 106.529701 
L 267.70263 104.262729 
L 270.981953 102.161544 
L 274.261315 100.295103 
L 277.540637 98.733851 
L 280.81998 97.545647 
L 284.099322 96.791384 
L 287.378664 96.520378 
L 290.658006 96.766211 
L 293.937329 97.542672 
L 297.21669 98.840626 
L 300.496013 100.626675 
L 303.775355 102.842476 
L 307.054697 105.406311 
L 310.33402 108.215826 
L 313.613382 111.153077 
L 316.892705 114.089654 
L 320.172047 116.894693 
L 323.451389 119.441237 
L 326.730731 121.614681 
L 330.010073 123.319016 
L 333.289396 124.482893 
L 336.568738 125.064135 
L 339.84808 125.052124 
L 343.127423 124.46825 
L 346.406765 123.364166 
L 349.686088 121.818382 
L 352.96543 119.931198 
L 356.244772 117.817891 
L 359.524114 115.601603 
L 362.803456 113.406469 
L 366.082798 111.349601 
L 369.362141 109.53579 
L 372.641463 108.051854 
L 375.920806 106.962998 
L 379.200148 106.311321 
" clip-path="url(#pa2d429f450)" style="fill: none; stroke: #1f77b4; stroke-width: 2; stroke-linecap: round"/>
   </g>
   <g id="patch_3">
    <path d="M 38.312875 237.439739 
L 38.312875 33.733462 
" style="fill: none; stroke: #262626; stroke-linejoin: miter; stroke-linecap: square"/>
   </g>
   <g id="patch_4">
    <path d="M 54.545602 273.312 
L 379.200148 273.312 
" style="fill: none; stroke: #262626; stroke-linejoin: miter; stroke-linecap: square"/>
   </g>
   <g id="legend_1">
    <g id="line2d_14">
     <g>
      <use xlink:href="#mada45ce7cd" x="285.344875" y="18.338875" style="stroke: #000000; stroke-width: 2"/>
     </g>
    </g>
    <g id="text_14">
     <!-- data -->
     <g style="fill: #262626" transform="translate(301.184875 21.418875) scale(0.088 -0.088)">
      <defs>
       <path id="ArialMT-64" d="M 2575 0 
L 2575 419 
Q 2259 -75 1647 -75 
Q 1250 -75 917 144 
Q 584 363 401 755 
Q 219 1147 219 1656 
Q 219 2153 384 2558 
Q 550 2963 881 3178 
Q 1213 3394 1622 3394 
Q 1922 3394 2156 3267 
Q 2391 3141 2538 2938 
L 2538 4581 
L 3097 4581 
L 3097 0 
L 2575 0 
z
M 797 1656 
Q 797 1019 1065 703 
Q 1334 388 1700 388 
Q 2069 388 2326 689 
Q 2584 991 2584 1609 
Q 2584 2291 2321 2609 
Q 2059 2928 1675 2928 
Q 1300 2928 1048 2622 
Q 797 2316 797 1656 
z
" transform="scale(0.015625)"/>
       <path id="ArialMT-61" d="M 2588 409 
Q 2275 144 1986 34 
Q 1697 -75 1366 -75 
Q 819 -75 525 192 
Q 231 459 231 875 
Q 231 1119 342 1320 
Q 453 1522 633 1644 
Q 813 1766 1038 1828 
Q 1203 1872 1538 1913 
Q 2219 1994 2541 2106 
Q 2544 2222 2544 2253 
Q 2544 2597 2384 2738 
Q 2169 2928 1744 2928 
Q 1347 2928 1158 2789 
Q 969 2650 878 2297 
L 328 2372 
Q 403 2725 575 2942 
Q 747 3159 1072 3276 
Q 1397 3394 1825 3394 
Q 2250 3394 2515 3294 
Q 2781 3194 2906 3042 
Q 3031 2891 3081 2659 
Q 3109 2516 3109 2141 
L 3109 1391 
Q 3109 606 3145 398 
Q 3181 191 3288 0 
L 2700 0 
Q 2613 175 2588 409 
z
M 2541 1666 
Q 2234 1541 1622 1453 
Q 1275 1403 1131 1340 
Q 988 1278 909 1158 
Q 831 1038 831 891 
Q 831 666 1001 516 
Q 1172 366 1500 366 
Q 1825 366 2078 508 
Q 2331 650 2450 897 
Q 2541 1088 2541 1459 
L 2541 1666 
z
" transform="scale(0.015625)"/>
       <path id="ArialMT-74" d="M 1650 503 
L 1731 6 
Q 1494 -44 1306 -44 
Q 1000 -44 831 53 
Q 663 150 594 308 
Q 525 466 525 972 
L 525 2881 
L 113 2881 
L 113 3319 
L 525 3319 
L 525 4141 
L 1084 4478 
L 1084 3319 
L 1650 3319 
L 1650 2881 
L 1084 2881 
L 1084 941 
Q 1084 700 1114 631 
Q 1144 563 1211 522 
Q 1278 481 1403 481 
Q 1497 481 1650 503 
z
" transform="scale(0.015625)"/>
      </defs>
      <use xlink:href="#ArialMT-64"/>
      <use xlink:href="#ArialMT-61" x="55.615234"/>
      <use xlink:href="#ArialMT-74" x="111.230469"/>
      <use xlink:href="#ArialMT-61" x="139.013672"/>
     </g>
    </g>
    <g id="line2d_15">
     <path d="M 276.544875 30.922875 
L 285.344875 30.922875 
L 294.144875 30.922875 
" style="fill: none; stroke: #1f77b4; stroke-width: 2; stroke-linecap: round"/>
    </g>
    <g id="text_15">
     <!-- $m_n(x)$ -->
     <g style="fill: #262626" transform="translate(301.184875 34.002875) scale(0.088 -0.088)">
      <defs>
       <path id="DejaVuSans-Oblique-6d" d="M 5747 2113 
L 5338 0 
L 4763 0 
L 5166 2094 
Q 5191 2228 5203 2325 
Q 5216 2422 5216 2491 
Q 5216 2772 5059 2928 
Q 4903 3084 4622 3084 
Q 4203 3084 3875 2770 
Q 3547 2456 3450 1953 
L 3066 0 
L 2491 0 
L 2900 2094 
Q 2925 2209 2937 2307 
Q 2950 2406 2950 2484 
Q 2950 2769 2794 2926 
Q 2638 3084 2363 3084 
Q 1938 3084 1609 2770 
Q 1281 2456 1184 1953 
L 800 0 
L 225 0 
L 909 3500 
L 1484 3500 
L 1375 2956 
Q 1609 3263 1923 3423 
Q 2238 3584 2597 3584 
Q 2978 3584 3223 3384 
Q 3469 3184 3519 2828 
Q 3781 3197 4126 3390 
Q 4472 3584 4856 3584 
Q 5306 3584 5551 3325 
Q 5797 3066 5797 2591 
Q 5797 2488 5784 2364 
Q 5772 2241 5747 2113 
z
" transform="scale(0.015625)"/>
       <path id="DejaVuSans-Oblique-6e" d="M 3566 2113 
L 3156 0 
L 2578 0 
L 2988 2091 
Q 3016 2238 3031 2350 
Q 3047 2463 3047 2528 
Q 3047 2791 2881 2937 
Q 2716 3084 2419 3084 
Q 1956 3084 1622 2776 
Q 1288 2469 1184 1941 
L 800 0 
L 225 0 
L 903 3500 
L 1478 3500 
L 1363 2950 
Q 1603 3253 1940 3418 
Q 2278 3584 2650 3584 
Q 3113 3584 3367 3334 
Q 3622 3084 3622 2631 
Q 3622 2519 3608 2391 
Q 3594 2263 3566 2113 
z
" transform="scale(0.015625)"/>
       <path id="DejaVuSans-28" d="M 1984 4856 
Q 1566 4138 1362 3434 
Q 1159 2731 1159 2009 
Q 1159 1288 1364 580 
Q 1569 -128 1984 -844 
L 1484 -844 
Q 1016 -109 783 600 
Q 550 1309 550 2009 
Q 550 2706 781 3412 
Q 1013 4119 1484 4856 
L 1984 4856 
z
" transform="scale(0.015625)"/>
       <path id="DejaVuSans-29" d="M 513 4856 
L 1013 4856 
Q 1481 4119 1714 3412 
Q 1947 2706 1947 2009 
Q 1947 1309 1714 600 
Q 1481 -109 1013 -844 
L 513 -844 
Q 928 -128 1133 580 
Q 1338 1288 1338 2009 
Q 1338 2731 1133 3434 
Q 928 4138 513 4856 
z
" transform="scale(0.015625)"/>
      </defs>
      <use xlink:href="#DejaVuSans-Oblique-6d" transform="translate(0 0.125)"/>
      <use xlink:href="#DejaVuSans-Oblique-6e" transform="translate(97.412109 -16.28125) scale(0.7)"/>
      <use xlink:href="#DejaVuSans-28" transform="translate(144.511719 0.125)"/>
      <use xlink:href="#DejaVuSans-Oblique-78" transform="translate(183.525391 0.125)"/>
      <use xlink:href="#DejaVuSans-29" transform="translate(242.705078 0.125)"/>
     </g>
    </g>
    <g id="patch_5">
     <path d="M 276.544875 48.159875 
L 294.144875 48.159875 
L 294.144875 41.999875 
L 276.544875 41.999875 
z
" style="fill: #1f77b4; fill-opacity: 0.5; stroke: #1f77b4; stroke-opacity: 0.5; stroke-width: 0.8; stroke-linejoin: miter"/>
    </g>
    <g id="text_16">
     <!-- $f^*$ 95% CI (epistemic) -->
     <g style="fill: #262626" transform="translate(301.184875 48.159875) scale(0.088 -0.088)">
      <defs>
       <path id="DejaVuSans-Oblique-66" d="M 3059 4863 
L 2969 4384 
L 2419 4384 
Q 2106 4384 1964 4261 
Q 1822 4138 1753 3809 
L 1691 3500 
L 2638 3500 
L 2553 3053 
L 1606 3053 
L 1013 0 
L 434 0 
L 1031 3053 
L 481 3053 
L 563 3500 
L 1113 3500 
L 1159 3744 
Q 1278 4363 1576 4613 
Q 1875 4863 2516 4863 
L 3059 4863 
z
" transform="scale(0.015625)"/>
       <path id="DejaVuSans-2a" d="M 3009 3897 
L 1888 3291 
L 3009 2681 
L 2828 2375 
L 1778 3009 
L 1778 1831 
L 1422 1831 
L 1422 3009 
L 372 2375 
L 191 2681 
L 1313 3291 
L 191 3897 
L 372 4206 
L 1422 3572 
L 1422 4750 
L 1778 4750 
L 1778 3572 
L 2828 4206 
L 3009 3897 
z
" transform="scale(0.015625)"/>
       <path id="ArialMT-20" transform="scale(0.015625)"/>
       <path id="ArialMT-39" d="M 350 1059 
L 891 1109 
Q 959 728 1153 556 
Q 1347 384 1650 384 
Q 1909 384 2104 503 
Q 2300 622 2425 820 
Q 2550 1019 2634 1356 
Q 2719 1694 2719 2044 
Q 2719 2081 2716 2156 
Q 2547 1888 2255 1720 
Q 1963 1553 1622 1553 
Q 1053 1553 659 1965 
Q 266 2378 266 3053 
Q 266 3750 677 4175 
Q 1088 4600 1706 4600 
Q 2153 4600 2523 4359 
Q 2894 4119 3086 3673 
Q 3278 3228 3278 2384 
Q 3278 1506 3087 986 
Q 2897 466 2520 194 
Q 2144 -78 1638 -78 
Q 1100 -78 759 220 
Q 419 519 350 1059 
z
M 2653 3081 
Q 2653 3566 2395 3850 
Q 2138 4134 1775 4134 
Q 1400 4134 1122 3828 
Q 844 3522 844 3034 
Q 844 2597 1108 2323 
Q 1372 2050 1759 2050 
Q 2150 2050 2401 2323 
Q 2653 2597 2653 3081 
z
" transform="scale(0.015625)"/>
       <path id="ArialMT-35" d="M 266 1200 
L 856 1250 
Q 922 819 1161 601 
Q 1400 384 1738 384 
Q 2144 384 2425 690 
Q 2706 997 2706 1503 
Q 2706 1984 2436 2262 
Q 2166 2541 1728 2541 
Q 1456 2541 1237 2417 
Q 1019 2294 894 2097 
L 366 2166 
L 809 4519 
L 3088 4519 
L 3088 3981 
L 1259 3981 
L 1013 2750 
Q 1425 3038 1878 3038 
Q 2478 3038 2890 2622 
Q 3303 2206 3303 1553 
Q 3303 931 2941 478 
Q 2500 -78 1738 -78 
Q 1113 -78 717 272 
Q 322 622 266 1200 
z
" transform="scale(0.015625)"/>
       <path id="ArialMT-25" d="M 372 3481 
Q 372 3972 619 4315 
Q 866 4659 1334 4659 
Q 1766 4659 2048 4351 
Q 2331 4044 2331 3447 
Q 2331 2866 2045 2552 
Q 1759 2238 1341 2238 
Q 925 2238 648 2547 
Q 372 2856 372 3481 
z
M 1350 4272 
Q 1141 4272 1002 4090 
Q 863 3909 863 3425 
Q 863 2984 1003 2804 
Q 1144 2625 1350 2625 
Q 1563 2625 1702 2806 
Q 1841 2988 1841 3469 
Q 1841 3913 1700 4092 
Q 1559 4272 1350 4272 
z
M 1353 -169 
L 3859 4659 
L 4316 4659 
L 1819 -169 
L 1353 -169 
z
M 3334 1075 
Q 3334 1569 3581 1911 
Q 3828 2253 4300 2253 
Q 4731 2253 5014 1945 
Q 5297 1638 5297 1041 
Q 5297 459 5011 145 
Q 4725 -169 4303 -169 
Q 3888 -169 3611 142 
Q 3334 453 3334 1075 
z
M 4316 1866 
Q 4103 1866 3964 1684 
Q 3825 1503 3825 1019 
Q 3825 581 3965 400 
Q 4106 219 4313 219 
Q 4528 219 4667 400 
Q 4806 581 4806 1063 
Q 4806 1506 4665 1686 
Q 4525 1866 4316 1866 
z
" transform="scale(0.015625)"/>
       <path id="ArialMT-43" d="M 3763 1606 
L 4369 1453 
Q 4178 706 3683 314 
Q 3188 -78 2472 -78 
Q 1731 -78 1267 223 
Q 803 525 561 1097 
Q 319 1669 319 2325 
Q 319 3041 592 3573 
Q 866 4106 1370 4382 
Q 1875 4659 2481 4659 
Q 3169 4659 3637 4309 
Q 4106 3959 4291 3325 
L 3694 3184 
Q 3534 3684 3231 3912 
Q 2928 4141 2469 4141 
Q 1941 4141 1586 3887 
Q 1231 3634 1087 3207 
Q 944 2781 944 2328 
Q 944 1744 1114 1308 
Q 1284 872 1643 656 
Q 2003 441 2422 441 
Q 2931 441 3284 734 
Q 3638 1028 3763 1606 
z
" transform="scale(0.015625)"/>
       <path id="ArialMT-49" d="M 597 0 
L 597 4581 
L 1203 4581 
L 1203 0 
L 597 0 
z
" transform="scale(0.015625)"/>
       <path id="ArialMT-28" d="M 1497 -1347 
Q 1031 -759 709 28 
Q 388 816 388 1659 
Q 388 2403 628 3084 
Q 909 3875 1497 4659 
L 1900 4659 
Q 1522 4009 1400 3731 
Q 1209 3300 1100 2831 
Q 966 2247 966 1656 
Q 966 153 1900 -1347 
L 1497 -1347 
z
" transform="scale(0.015625)"/>
       <path id="ArialMT-65" d="M 2694 1069 
L 3275 997 
Q 3138 488 2766 206 
Q 2394 -75 1816 -75 
Q 1088 -75 661 373 
Q 234 822 234 1631 
Q 234 2469 665 2931 
Q 1097 3394 1784 3394 
Q 2450 3394 2872 2941 
Q 3294 2488 3294 1666 
Q 3294 1616 3291 1516 
L 816 1516 
Q 847 969 1125 678 
Q 1403 388 1819 388 
Q 2128 388 2347 550 
Q 2566 713 2694 1069 
z
M 847 1978 
L 2700 1978 
Q 2663 2397 2488 2606 
Q 2219 2931 1791 2931 
Q 1403 2931 1139 2672 
Q 875 2413 847 1978 
z
" transform="scale(0.015625)"/>
       <path id="ArialMT-70" d="M 422 -1272 
L 422 3319 
L 934 3319 
L 934 2888 
Q 1116 3141 1344 3267 
Q 1572 3394 1897 3394 
Q 2322 3394 2647 3175 
Q 2972 2956 3137 2557 
Q 3303 2159 3303 1684 
Q 3303 1175 3120 767 
Q 2938 359 2589 142 
Q 2241 -75 1856 -75 
Q 1575 -75 1351 44 
Q 1128 163 984 344 
L 984 -1272 
L 422 -1272 
z
M 931 1641 
Q 931 1000 1190 694 
Q 1450 388 1819 388 
Q 2194 388 2461 705 
Q 2728 1022 2728 1688 
Q 2728 2322 2467 2637 
Q 2206 2953 1844 2953 
Q 1484 2953 1207 2617 
Q 931 2281 931 1641 
z
" transform="scale(0.015625)"/>
       <path id="ArialMT-69" d="M 425 3934 
L 425 4581 
L 988 4581 
L 988 3934 
L 425 3934 
z
M 425 0 
L 425 3319 
L 988 3319 
L 988 0 
L 425 0 
z
" transform="scale(0.015625)"/>
       <path id="ArialMT-73" d="M 197 991 
L 753 1078 
Q 800 744 1014 566 
Q 1228 388 1613 388 
Q 2000 388 2187 545 
Q 2375 703 2375 916 
Q 2375 1106 2209 1216 
Q 2094 1291 1634 1406 
Q 1016 1563 777 1677 
Q 538 1791 414 1992 
Q 291 2194 291 2438 
Q 291 2659 392 2848 
Q 494 3038 669 3163 
Q 800 3259 1026 3326 
Q 1253 3394 1513 3394 
Q 1903 3394 2198 3281 
Q 2494 3169 2634 2976 
Q 2775 2784 2828 2463 
L 2278 2388 
Q 2241 2644 2061 2787 
Q 1881 2931 1553 2931 
Q 1166 2931 1000 2803 
Q 834 2675 834 2503 
Q 834 2394 903 2306 
Q 972 2216 1119 2156 
Q 1203 2125 1616 2013 
Q 2213 1853 2448 1751 
Q 2684 1650 2818 1456 
Q 2953 1263 2953 975 
Q 2953 694 2789 445 
Q 2625 197 2315 61 
Q 2006 -75 1616 -75 
Q 969 -75 630 194 
Q 291 463 197 991 
z
" transform="scale(0.015625)"/>
       <path id="ArialMT-6d" d="M 422 0 
L 422 3319 
L 925 3319 
L 925 2853 
Q 1081 3097 1340 3245 
Q 1600 3394 1931 3394 
Q 2300 3394 2536 3241 
Q 2772 3088 2869 2813 
Q 3263 3394 3894 3394 
Q 4388 3394 4653 3120 
Q 4919 2847 4919 2278 
L 4919 0 
L 4359 0 
L 4359 2091 
Q 4359 2428 4304 2576 
Q 4250 2725 4106 2815 
Q 3963 2906 3769 2906 
Q 3419 2906 3187 2673 
Q 2956 2441 2956 1928 
L 2956 0 
L 2394 0 
L 2394 2156 
Q 2394 2531 2256 2718 
Q 2119 2906 1806 2906 
Q 1569 2906 1367 2781 
Q 1166 2656 1075 2415 
Q 984 2175 984 1722 
L 984 0 
L 422 0 
z
" transform="scale(0.015625)"/>
       <path id="ArialMT-63" d="M 2588 1216 
L 3141 1144 
Q 3050 572 2676 248 
Q 2303 -75 1759 -75 
Q 1078 -75 664 370 
Q 250 816 250 1647 
Q 250 2184 428 2587 
Q 606 2991 970 3192 
Q 1334 3394 1763 3394 
Q 2303 3394 2647 3120 
Q 2991 2847 3088 2344 
L 2541 2259 
Q 2463 2594 2264 2762 
Q 2066 2931 1784 2931 
Q 1359 2931 1093 2626 
Q 828 2322 828 1663 
Q 828 994 1084 691 
Q 1341 388 1753 388 
Q 2084 388 2306 591 
Q 2528 794 2588 1216 
z
" transform="scale(0.015625)"/>
       <path id="ArialMT-29" d="M 791 -1347 
L 388 -1347 
Q 1322 153 1322 1656 
Q 1322 2244 1188 2822 
Q 1081 3291 891 3722 
Q 769 4003 388 4659 
L 791 4659 
Q 1378 3875 1659 3084 
Q 1900 2403 1900 1659 
Q 1900 816 1576 28 
Q 1253 -759 791 -1347 
z
" transform="scale(0.015625)"/>
      </defs>
      <use xlink:href="#DejaVuSans-Oblique-66" transform="translate(0 0.765625)"/>
      <use xlink:href="#DejaVuSans-2a" transform="translate(56.290482 39.046875) scale(0.7)"/>
      <use xlink:href="#ArialMT-20" transform="translate(107.662552 0.765625)"/>
      <use xlink:href="#ArialMT-39" transform="translate(135.445755 0.765625)"/>
      <use xlink:href="#ArialMT-35" transform="translate(191.06099 0.765625)"/>
      <use xlink:href="#ArialMT-25" transform="translate(246.676224 0.765625)"/>
      <use xlink:href="#ArialMT-20" transform="translate(335.59224 0.765625)"/>
      <use xlink:href="#ArialMT-43" transform="translate(363.375443 0.765625)"/>
      <use xlink:href="#ArialMT-49" transform="translate(435.59224 0.765625)"/>
      <use xlink:href="#ArialMT-20" transform="translate(463.375443 0.765625)"/>
      <use xlink:href="#ArialMT-28" transform="translate(491.158646 0.765625)"/>
      <use xlink:href="#ArialMT-65" transform="translate(524.459427 0.765625)"/>
      <use xlink:href="#ArialMT-70" transform="translate(580.074661 0.765625)"/>
      <use xlink:href="#ArialMT-69" transform="translate(635.689896 0.765625)"/>
      <use xlink:href="#ArialMT-73" transform="translate(657.906693 0.765625)"/>
      <use xlink:href="#ArialMT-74" transform="translate(707.906693 0.765625)"/>
      <use xlink:href="#ArialMT-65" transform="translate(735.689896 0.765625)"/>
      <use xlink:href="#ArialMT-6d" transform="translate(791.30513 0.765625)"/>
      <use xlink:href="#ArialMT-69" transform="translate(874.605911 0.765625)"/>
      <use xlink:href="#ArialMT-63" transform="translate(896.822708 0.765625)"/>
      <use xlink:href="#ArialMT-29" transform="translate(946.822708 0.765625)"/>
     </g>
    </g>
    <g id="patch_6">
     <path d="M 276.544875 62.503875 
L 294.144875 62.503875 
L 294.144875 56.343875 
L 276.544875 56.343875 
z
" style="fill: #ff7f0e; fill-opacity: 0.5; stroke: #ff7f0e; stroke-opacity: 0.5; stroke-width: 0.8; stroke-linejoin: miter"/>
    </g>
    <g id="text_17">
     <!-- $y^*$ 95% pred. -->
     <g style="fill: #262626" transform="translate(301.184875 62.503875) scale(0.088 -0.088)">
      <defs>
       <path id="ArialMT-72" d="M 416 0 
L 416 3319 
L 922 3319 
L 922 2816 
Q 1116 3169 1280 3281 
Q 1444 3394 1641 3394 
Q 1925 3394 2219 3213 
L 2025 2691 
Q 1819 2813 1613 2813 
Q 1428 2813 1281 2702 
Q 1134 2591 1072 2394 
Q 978 2094 978 1738 
L 978 0 
L 416 0 
z
" transform="scale(0.015625)"/>
      </defs>
      <use xlink:href="#DejaVuSans-Oblique-79" transform="translate(0 0.765625)"/>
      <use xlink:href="#DejaVuSans-2a" transform="translate(77.283529 39.046875) scale(0.7)"/>
      <use xlink:href="#ArialMT-20" transform="translate(128.655599 0.765625)"/>
      <use xlink:href="#ArialMT-39" transform="translate(156.438802 0.765625)"/>
      <use xlink:href="#ArialMT-35" transform="translate(212.054036 0.765625)"/>
      <use xlink:href="#ArialMT-25" transform="translate(267.669271 0.765625)"/>
      <use xlink:href="#ArialMT-20" transform="translate(356.585286 0.765625)"/>
      <use xlink:href="#ArialMT-70" transform="translate(384.36849 0.765625)"/>
      <use xlink:href="#ArialMT-72" transform="translate(439.983724 0.765625)"/>
      <use xlink:href="#ArialMT-65" transform="translate(473.284505 0.765625)"/>
      <use xlink:href="#ArialMT-64" transform="translate(528.89974 0.765625)"/>
      <use xlink:href="#ArialMT-2e" transform="translate(584.514974 0.765625)"/>
     </g>
    </g>
   </g>
  </g>
 </g>
 <defs>
  <clipPath id="pa2d429f450">
   <rect x="38.312875" y="7.2" width="357.12" height="266.112"/>
  </clipPath>
 </defs>
</svg>