<?xml version="1.0" encoding="UTF-8" standalone="no"?>
<!DOCTYPE svg PUBLIC "-//W3C//DTD SVG 1.1//EN"
 "http://www.w3.org/Graphics/SVG/1.1/DTD/svg11.dtd">
<!-- Generated by graphviz version 13.0.1 (20250615.1724)
 -->
<!-- Title: coin_toss_g Pages: 1 -->
<svg width="206pt" height="116pt"
 viewBox="0.00 0.00 206.00 116.00" xmlns="http://www.w3.org/2000/svg" xmlns:xlink="http://www.w3.org/1999/xlink">
<g id="graph0" class="graph" transform="scale(1 1) rotate(0) translate(4 112)">
<title>coin_toss_g</title>
<polygon fill="white" stroke="none" points="-4,4 -4,-112 202,-112 202,4 -4,4"/>
<!-- omega0 -->
<g id="node1" class="node">
<title>omega0</title>
<ellipse fill="none" stroke="black" cx="27" cy="-90" rx="27" ry="18"/>
<text xml:space="preserve" text-anchor="start" x="19.5" y="-85.95" font-family="Times,serif" font-size="14.00">ω</text>
<text xml:space="preserve" text-anchor="start" x="28.5" y="-85.95" font-family="Times,serif" baseline-shift="sub" font-size="14.00">0</text>
</g>
<!-- X -->
<g id="node4" class="node">
<title>X</title>
<ellipse fill="none" stroke="black" cx="99" cy="-18" rx="27" ry="18"/>
<text xml:space="preserve" text-anchor="middle" x="99" y="-12.95" font-family="Times,serif" font-size="14.00">X</text>
</g>
<!-- omega0&#45;&gt;X -->
<g id="edge3" class="edge">
<title>omega0&#45;&gt;X</title>
<path fill="none" stroke="black" d="M41.92,-74.5C51.77,-64.92 64.86,-52.19 76.03,-41.34"/>
<polygon fill="black" stroke="black" points="78.29,-44.02 83.02,-34.54 73.41,-39 78.29,-44.02"/>
</g>
<!-- v0 -->
<g id="node2" class="node">
<title>v0</title>
<ellipse fill="none" stroke="black" cx="99" cy="-90" rx="27" ry="18"/>
<text xml:space="preserve" text-anchor="start" x="92.62" y="-85.95" font-family="Times,serif" font-size="14.00">v</text>
<text xml:space="preserve" text-anchor="start" x="99.38" y="-85.95" font-family="Times,serif" baseline-shift="sub" font-size="14.00">0</text>
</g>
<!-- v0&#45;&gt;X -->
<g id="edge2" class="edge">
<title>v0&#45;&gt;X</title>
<path fill="none" stroke="black" d="M99,-71.7C99,-64.41 99,-55.73 99,-47.54"/>
<polygon fill="black" stroke="black" points="102.5,-47.62 99,-37.62 95.5,-47.62 102.5,-47.62"/>
</g>
<!-- g -->
<g id="node3" class="node">
<title>g</title>
<ellipse fill="lightgrey" stroke="black" cx="171" cy="-90" rx="27" ry="18"/>
<text xml:space="preserve" text-anchor="middle" x="171" y="-84.95" font-family="Times,serif" font-size="14.00">g</text>
</g>
<!-- g&#45;&gt;X -->
<g id="edge1" class="edge">
<title>g&#45;&gt;X</title>
<path fill="none" stroke="black" d="M156.08,-74.5C146.23,-64.92 133.14,-52.19 121.97,-41.34"/>
<polygon fill="black" stroke="black" points="124.59,-39 114.98,-34.54 119.71,-44.02 124.59,-39"/>
</g>
</g>
</svg>