<?xml version="1.0" encoding="utf-8" standalone="no"?>
<!DOCTYPE svg PUBLIC "-//W3C//DTD SVG 1.1//EN"
  "http://www.w3.org/Graphics/SVG/1.1/DTD/svg11.dtd">
<svg xmlns:xlink="http://www.w3.org/1999/xlink" width="409.97125pt" height="309.639375pt" viewBox="0 0 409.97125 309.639375" xmlns="http://www.w3.org/2000/svg" version="1.1">
 <metadata>
  <rdf:RDF xmlns:dc="http://purl.org/dc/elements/1.1/" xmlns:cc="http://creativecommons.org/ns#" xmlns:rdf="http://www.w3.org/1999/02/22-rdf-syntax-ns#">
   <cc:Work>
    <dc:type rdf:resource="http://purl.org/dc/dcmitype/StillImage"/>
    <dc:date>2023-10-16T10:15:33.993897</dc:date>
    <dc:format>image/svg+xml</dc:format>
    <dc:creator>
     <cc:Agent>
      <dc:title>Matplotlib v3.7.1, https://matplotlib.org/</dc:title>
     </cc:Agent>
    </dc:creator>
   </cc:Work>
  </rdf:RDF>
 </metadata>
 <defs>
  <style type="text/css">*{stroke-linejoin: round; stroke-linecap: butt}</style>
 </defs>
 <g id="figure_1">
  <g id="patch_1">
   <path d="M 0 309.639375 
L 409.97125 309.639375 
L 409.97125 0 
L 0 0 
z
" style="fill: #ffffff"/>
  </g>
  <g id="axes_1">
   <g id="patch_2">
    <path d="M 45.65125 273.312 
L 402.77125 273.312 
L 402.77125 7.2 
L 45.65125 7.2 
z
" style="fill: #ffffff"/>
   </g>
   <g id="matplotlib.axis_1">
    <g id="xtick_1">
     <g id="line2d_1">
      <defs>
       <path id="mec138363b0" d="M 0 0 
L 0 4.8 
" style="stroke: #262626"/>
      </defs>
      <g>
       <use xlink:href="#mec138363b0" x="61.883977" y="273.312" style="fill: #262626; stroke: #262626"/>
      </g>
     </g>
     <g id="text_1">
      <!-- 0.0 -->
      <g style="fill: #262626" transform="translate(55.767977 287.910875) scale(0.088 -0.088)">
       <defs>
        <path id="ArialMT-30" d="M 266 2259 
Q 266 3072 433 3567 
Q 600 4063 929 4331 
Q 1259 4600 1759 4600 
Q 2128 4600 2406 4451 
Q 2684 4303 2865 4023 
Q 3047 3744 3150 3342 
Q 3253 2941 3253 2259 
Q 3253 1453 3087 958 
Q 2922 463 2592 192 
Q 2263 -78 1759 -78 
Q 1097 -78 719 397 
Q 266 969 266 2259 
z
M 844 2259 
Q 844 1131 1108 757 
Q 1372 384 1759 384 
Q 2147 384 2411 759 
Q 2675 1134 2675 2259 
Q 2675 3391 2411 3762 
Q 2147 4134 1753 4134 
Q 1366 4134 1134 3806 
Q 844 3388 844 2259 
z
" transform="scale(0.015625)"/>
        <path id="ArialMT-2e" d="M 581 0 
L 581 641 
L 1222 641 
L 1222 0 
L 581 0 
z
" transform="scale(0.015625)"/>
       </defs>
       <use xlink:href="#ArialMT-30"/>
       <use xlink:href="#ArialMT-2e" x="55.615234"/>
       <use xlink:href="#ArialMT-30" x="83.398438"/>
      </g>
     </g>
    </g>
    <g id="xtick_2">
     <g id="line2d_2">
      <g>
       <use xlink:href="#mec138363b0" x="126.814886" y="273.312" style="fill: #262626; stroke: #262626"/>
      </g>
     </g>
     <g id="text_2">
      <!-- 0.2 -->
      <g style="fill: #262626" transform="translate(120.698886 287.910875) scale(0.088 -0.088)">
       <defs>
        <path id="ArialMT-32" d="M 3222 541 
L 3222 0 
L 194 0 
Q 188 203 259 391 
Q 375 700 629 1000 
Q 884 1300 1366 1694 
Q 2113 2306 2375 2664 
Q 2638 3022 2638 3341 
Q 2638 3675 2398 3904 
Q 2159 4134 1775 4134 
Q 1369 4134 1125 3890 
Q 881 3647 878 3216 
L 300 3275 
Q 359 3922 746 4261 
Q 1134 4600 1788 4600 
Q 2447 4600 2831 4234 
Q 3216 3869 3216 3328 
Q 3216 3053 3103 2787 
Q 2991 2522 2730 2228 
Q 2469 1934 1863 1422 
Q 1356 997 1212 845 
Q 1069 694 975 541 
L 3222 541 
z
" transform="scale(0.015625)"/>
       </defs>
       <use xlink:href="#ArialMT-30"/>
       <use xlink:href="#ArialMT-2e" x="55.615234"/>
       <use xlink:href="#ArialMT-32" x="83.398438"/>
      </g>
     </g>
    </g>
    <g id="xtick_3">
     <g id="line2d_3">
      <g>
       <use xlink:href="#mec138363b0" x="191.745795" y="273.312" style="fill: #262626; stroke: #262626"/>
      </g>
     </g>
     <g id="text_3">
      <!-- 0.4 -->
      <g style="fill: #262626" transform="translate(185.629795 287.910875) scale(0.088 -0.088)">
       <defs>
        <path id="ArialMT-34" d="M 2069 0 
L 2069 1097 
L 81 1097 
L 81 1613 
L 2172 4581 
L 2631 4581 
L 2631 1613 
L 3250 1613 
L 3250 1097 
L 2631 1097 
L 2631 0 
L 2069 0 
z
M 2069 1613 
L 2069 3678 
L 634 1613 
L 2069 1613 
z
" transform="scale(0.015625)"/>
       </defs>
       <use xlink:href="#ArialMT-30"/>
       <use xlink:href="#ArialMT-2e" x="55.615234"/>
       <use xlink:href="#ArialMT-34" x="83.398438"/>
      </g>
     </g>
    </g>
    <g id="xtick_4">
     <g id="line2d_4">
      <g>
       <use xlink:href="#mec138363b0" x="256.676705" y="273.312" style="fill: #262626; stroke: #262626"/>
      </g>
     </g>
     <g id="text_4">
      <!-- 0.6 -->
      <g style="fill: #262626" transform="translate(250.560705 287.910875) scale(0.088 -0.088)">
       <defs>
        <path id="ArialMT-36" d="M 3184 3459 
L 2625 3416 
Q 2550 3747 2413 3897 
Q 2184 4138 1850 4138 
Q 1581 4138 1378 3988 
Q 1113 3794 959 3422 
Q 806 3050 800 2363 
Q 1003 2672 1297 2822 
Q 1591 2972 1913 2972 
Q 2475 2972 2870 2558 
Q 3266 2144 3266 1488 
Q 3266 1056 3080 686 
Q 2894 316 2569 119 
Q 2244 -78 1831 -78 
Q 1128 -78 684 439 
Q 241 956 241 2144 
Q 241 3472 731 4075 
Q 1159 4600 1884 4600 
Q 2425 4600 2770 4297 
Q 3116 3994 3184 3459 
z
M 888 1484 
Q 888 1194 1011 928 
Q 1134 663 1356 523 
Q 1578 384 1822 384 
Q 2178 384 2434 671 
Q 2691 959 2691 1453 
Q 2691 1928 2437 2201 
Q 2184 2475 1800 2475 
Q 1419 2475 1153 2201 
Q 888 1928 888 1484 
z
" transform="scale(0.015625)"/>
       </defs>
       <use xlink:href="#ArialMT-30"/>
       <use xlink:href="#ArialMT-2e" x="55.615234"/>
       <use xlink:href="#ArialMT-36" x="83.398438"/>
      </g>
     </g>
    </g>
    <g id="xtick_5">
     <g id="line2d_5">
      <g>
       <use xlink:href="#mec138363b0" x="321.607614" y="273.312" style="fill: #262626; stroke: #262626"/>
      </g>
     </g>
     <g id="text_5">
      <!-- 0.8 -->
      <g style="fill: #262626" transform="translate(315.491614 287.910875) scale(0.088 -0.088)">
       <defs>
        <path id="ArialMT-38" d="M 1131 2484 
Q 781 2613 612 2850 
Q 444 3088 444 3419 
Q 444 3919 803 4259 
Q 1163 4600 1759 4600 
Q 2359 4600 2725 4251 
Q 3091 3903 3091 3403 
Q 3091 3084 2923 2848 
Q 2756 2613 2416 2484 
Q 2838 2347 3058 2040 
Q 3278 1734 3278 1309 
Q 3278 722 2862 322 
Q 2447 -78 1769 -78 
Q 1091 -78 675 323 
Q 259 725 259 1325 
Q 259 1772 486 2073 
Q 713 2375 1131 2484 
z
M 1019 3438 
Q 1019 3113 1228 2906 
Q 1438 2700 1772 2700 
Q 2097 2700 2305 2904 
Q 2513 3109 2513 3406 
Q 2513 3716 2298 3927 
Q 2084 4138 1766 4138 
Q 1444 4138 1231 3931 
Q 1019 3725 1019 3438 
z
M 838 1322 
Q 838 1081 952 856 
Q 1066 631 1291 507 
Q 1516 384 1775 384 
Q 2178 384 2440 643 
Q 2703 903 2703 1303 
Q 2703 1709 2433 1975 
Q 2163 2241 1756 2241 
Q 1359 2241 1098 1978 
Q 838 1716 838 1322 
z
" transform="scale(0.015625)"/>
       </defs>
       <use xlink:href="#ArialMT-30"/>
       <use xlink:href="#ArialMT-2e" x="55.615234"/>
       <use xlink:href="#ArialMT-38" x="83.398438"/>
      </g>
     </g>
    </g>
    <g id="xtick_6">
     <g id="line2d_6">
      <g>
       <use xlink:href="#mec138363b0" x="386.538523" y="273.312" style="fill: #262626; stroke: #262626"/>
      </g>
     </g>
     <g id="text_6">
      <!-- 1.0 -->
      <g style="fill: #262626" transform="translate(380.422523 287.910875) scale(0.088 -0.088)">
       <defs>
        <path id="ArialMT-31" d="M 2384 0 
L 1822 0 
L 1822 3584 
Q 1619 3391 1289 3197 
Q 959 3003 697 2906 
L 697 3450 
Q 1169 3672 1522 3987 
Q 1875 4303 2022 4600 
L 2384 4600 
L 2384 0 
z
" transform="scale(0.015625)"/>
       </defs>
       <use xlink:href="#ArialMT-31"/>
       <use xlink:href="#ArialMT-2e" x="55.615234"/>
       <use xlink:href="#ArialMT-30" x="83.398438"/>
      </g>
     </g>
    </g>
    <g id="text_7">
     <!-- $x$ -->
     <g style="fill: #262626" transform="translate(221.33125 300.531375) scale(0.096 -0.096)">
      <defs>
       <path id="DejaVuSans-Oblique-78" d="M 3841 3500 
L 2234 1784 
L 3219 0 
L 2559 0 
L 1819 1388 
L 531 0 
L -166 0 
L 1556 1844 
L 641 3500 
L 1300 3500 
L 1972 2234 
L 3144 3500 
L 3841 3500 
z
" transform="scale(0.015625)"/>
      </defs>
      <use xlink:href="#DejaVuSans-Oblique-78" transform="translate(0 0.3125)"/>
     </g>
    </g>
   </g>
   <g id="matplotlib.axis_2">
    <g id="ytick_1">
     <g id="line2d_7">
      <defs>
       <path id="mf072334d51" d="M 0 0 
L -4.8 0 
" style="stroke: #262626"/>
      </defs>
      <g>
       <use xlink:href="#mf072334d51" x="45.65125" y="250.23161" style="fill: #262626; stroke: #262626"/>
      </g>
     </g>
     <g id="text_8">
      <!-- −2.0 -->
      <g style="fill: #262626" transform="translate(19.9795 253.381047) scale(0.088 -0.088)">
       <defs>
        <path id="ArialMT-2212" d="M 3381 1997 
L 356 1997 
L 356 2522 
L 3381 2522 
L 3381 1997 
z
" transform="scale(0.015625)"/>
       </defs>
       <use xlink:href="#ArialMT-2212"/>
       <use xlink:href="#ArialMT-32" x="58.398438"/>
       <use xlink:href="#ArialMT-2e" x="114.013672"/>
       <use xlink:href="#ArialMT-30" x="141.796875"/>
      </g>
     </g>
    </g>
    <g id="ytick_2">
     <g id="line2d_8">
      <g>
       <use xlink:href="#mf072334d51" x="45.65125" y="218.763558" style="fill: #262626; stroke: #262626"/>
      </g>
     </g>
     <g id="text_9">
      <!-- −1.5 -->
      <g style="fill: #262626" transform="translate(19.9795 221.912995) scale(0.088 -0.088)">
       <defs>
        <path id="ArialMT-35" d="M 266 1200 
L 856 1250 
Q 922 819 1161 601 
Q 1400 384 1738 384 
Q 2144 384 2425 690 
Q 2706 997 2706 1503 
Q 2706 1984 2436 2262 
Q 2166 2541 1728 2541 
Q 1456 2541 1237 2417 
Q 1019 2294 894 2097 
L 366 2166 
L 809 4519 
L 3088 4519 
L 3088 3981 
L 1259 3981 
L 1013 2750 
Q 1425 3038 1878 3038 
Q 2478 3038 2890 2622 
Q 3303 2206 3303 1553 
Q 3303 931 2941 478 
Q 2500 -78 1738 -78 
Q 1113 -78 717 272 
Q 322 622 266 1200 
z
" transform="scale(0.015625)"/>
       </defs>
       <use xlink:href="#ArialMT-2212"/>
       <use xlink:href="#ArialMT-31" x="58.398438"/>
       <use xlink:href="#ArialMT-2e" x="114.013672"/>
       <use xlink:href="#ArialMT-35" x="141.796875"/>
      </g>
     </g>
    </g>
    <g id="ytick_3">
     <g id="line2d_9">
      <g>
       <use xlink:href="#mf072334d51" x="45.65125" y="187.295505" style="fill: #262626; stroke: #262626"/>
      </g>
     </g>
     <g id="text_10">
      <!-- −1.0 -->
      <g style="fill: #262626" transform="translate(19.9795 190.444943) scale(0.088 -0.088)">
       <use xlink:href="#ArialMT-2212"/>
       <use xlink:href="#ArialMT-31" x="58.398438"/>
       <use xlink:href="#ArialMT-2e" x="114.013672"/>
       <use xlink:href="#ArialMT-30" x="141.796875"/>
      </g>
     </g>
    </g>
    <g id="ytick_4">
     <g id="line2d_10">
      <g>
       <use xlink:href="#mf072334d51" x="45.65125" y="155.827453" style="fill: #262626; stroke: #262626"/>
      </g>
     </g>
     <g id="text_11">
      <!-- −0.5 -->
      <g style="fill: #262626" transform="translate(19.9795 158.97689) scale(0.088 -0.088)">
       <use xlink:href="#ArialMT-2212"/>
       <use xlink:href="#ArialMT-30" x="58.398438"/>
       <use xlink:href="#ArialMT-2e" x="114.013672"/>
       <use xlink:href="#ArialMT-35" x="141.796875"/>
      </g>
     </g>
    </g>
    <g id="ytick_5">
     <g id="line2d_11">
      <g>
       <use xlink:href="#mf072334d51" x="45.65125" y="124.359401" style="fill: #262626; stroke: #262626"/>
      </g>
     </g>
     <g id="text_12">
      <!-- 0.0 -->
      <g style="fill: #262626" transform="translate(25.11925 127.508838) scale(0.088 -0.088)">
       <use xlink:href="#ArialMT-30"/>
       <use xlink:href="#ArialMT-2e" x="55.615234"/>
       <use xlink:href="#ArialMT-30" x="83.398438"/>
      </g>
     </g>
    </g>
    <g id="ytick_6">
     <g id="line2d_12">
      <g>
       <use xlink:href="#mf072334d51" x="45.65125" y="92.891348" style="fill: #262626; stroke: #262626"/>
      </g>
     </g>
     <g id="text_13">
      <!-- 0.5 -->
      <g style="fill: #262626" transform="translate(25.11925 96.040786) scale(0.088 -0.088)">
       <use xlink:href="#ArialMT-30"/>
       <use xlink:href="#ArialMT-2e" x="55.615234"/>
       <use xlink:href="#ArialMT-35" x="83.398438"/>
      </g>
     </g>
    </g>
    <g id="ytick_7">
     <g id="line2d_13">
      <g>
       <use xlink:href="#mf072334d51" x="45.65125" y="61.423296" style="fill: #262626; stroke: #262626"/>
      </g>
     </g>
     <g id="text_14">
      <!-- 1.0 -->
      <g style="fill: #262626" transform="translate(25.11925 64.572734) scale(0.088 -0.088)">
       <use xlink:href="#ArialMT-31"/>
       <use xlink:href="#ArialMT-2e" x="55.615234"/>
       <use xlink:href="#ArialMT-30" x="83.398438"/>
      </g>
     </g>
    </g>
    <g id="ytick_8">
     <g id="line2d_14">
      <g>
       <use xlink:href="#mf072334d51" x="45.65125" y="29.955244" style="fill: #262626; stroke: #262626"/>
      </g>
     </g>
     <g id="text_15">
      <!-- 1.5 -->
      <g style="fill: #262626" transform="translate(25.11925 33.104681) scale(0.088 -0.088)">
       <use xlink:href="#ArialMT-31"/>
       <use xlink:href="#ArialMT-2e" x="55.615234"/>
       <use xlink:href="#ArialMT-35" x="83.398438"/>
      </g>
     </g>
    </g>
    <g id="text_16">
     <!-- $y$ -->
     <g style="fill: #262626" transform="translate(13.9635 143.136) rotate(-90) scale(0.096 -0.096)">
      <defs>
       <path id="DejaVuSans-Oblique-79" d="M 1588 -325 
Q 1188 -997 936 -1164 
Q 684 -1331 294 -1331 
L -159 -1331 
L -63 -850 
L 269 -850 
Q 509 -850 678 -719 
Q 847 -588 1056 -206 
L 1234 128 
L 459 3500 
L 1069 3500 
L 1650 819 
L 3256 3500 
L 3859 3500 
L 1588 -325 
z
" transform="scale(0.015625)"/>
      </defs>
      <use xlink:href="#DejaVuSans-Oblique-79" transform="translate(0 0.3125)"/>
     </g>
    </g>
   </g>
   <g id="PolyCollection_1">
    <defs>
     <path id="m6c464f5c3c" d="M 61.883977 -264.345738 
L 61.883977 -101.005208 
L 65.163316 -101.005208 
L 68.442655 -101.005208 
L 71.721994 -101.005208 
L 75.001333 -101.005208 
L 78.280671 -101.0052 
L 81.560011 -101.005155 
L 84.839348 -101.004937 
L 88.118688 -101.003932 
L 91.398028 -100.999978 
L 94.677365 -100.986721 
L 97.956705 -100.950986 
L 101.236045 -100.884934 
L 104.515382 -100.870731 
L 107.794719 -101.340467 
L 111.074061 -103.47999 
L 114.353399 -109.258708 
L 117.632736 -120.205645 
L 120.912078 -134.337243 
L 124.191416 -141.203207 
L 127.470753 -130.361369 
L 130.750095 -111.685601 
L 134.029432 -93.604171 
L 137.30877 -77.890507 
L 140.588112 -65.794326 
L 143.867444 -60.698582 
L 147.146787 -65.989963 
L 150.426129 -76.974894 
L 153.705461 -76.734572 
L 156.984803 -73.711157 
L 160.264145 -76.709663 
L 163.543478 -83.650927 
L 166.82282 -90.820201 
L 170.102162 -96.016292 
L 173.381495 -98.905614 
L 176.660837 -100.112567 
L 179.940179 -100.289748 
L 183.219512 -99.766248 
L 186.498854 -98.757933 
L 189.778196 -97.964949 
L 193.057528 -99.133782 
L 196.336871 -104.66277 
L 199.616213 -115.349698 
L 202.895545 -125.68177 
L 206.174887 -123.098981 
L 209.45423 -111.393151 
L 212.733562 -102.235636 
L 216.012904 -98.382385 
L 219.292246 -98.123118 
L 222.571579 -99.139926 
L 225.850931 -100.096631 
L 229.130254 -100.655258 
L 232.409596 -100.934218 
L 235.688938 -101.146811 
L 238.968261 -101.536344 
L 242.247622 -102.474098 
L 245.526945 -104.636368 
L 248.806287 -109.217166 
L 252.085629 -117.939427 
L 255.364972 -132.289406 
L 258.644314 -151.526692 
L 261.923637 -169.309857 
L 265.202998 -171.261812 
L 268.482321 -155.106511 
L 271.761663 -135.43234 
L 275.041005 -120.055069 
L 278.320328 -110.418793 
L 281.59969 -105.268519 
L 284.879012 -102.893124 
L 288.158355 -102.155704 
L 291.437697 -102.697239 
L 294.717039 -104.924362 
L 297.996381 -110.029297 
L 301.275704 -119.848748 
L 304.555065 -136.023325 
L 307.834388 -158.121315 
L 311.11373 -181.675069 
L 314.393072 -198.045744 
L 317.672395 -197.95012 
L 320.951757 -181.934772 
L 324.23108 -158.605722 
L 327.510422 -135.041862 
L 330.789764 -117.995959 
L 334.069106 -111.571982 
L 337.348448 -116.23092 
L 340.627771 -129.631463 
L 343.907113 -145.540224 
L 347.186455 -150.480695 
L 350.465798 -139.312927 
L 353.74514 -126.081214 
L 357.024463 -119.627925 
L 360.303805 -122.443811 
L 363.583147 -134.433182 
L 366.862489 -153.604896 
L 370.141831 -173.983879 
L 373.421173 -181.867983 
L 376.700516 -168.428861 
L 379.979838 -146.919815 
L 383.259181 -128.112459 
L 386.538523 -115.231608 
L 386.538523 -272.040747 
L 386.538523 -272.040747 
L 383.259181 -273.204658 
L 379.979838 -269.946022 
L 376.700516 -261.347036 
L 373.421173 -253.855309 
L 370.141831 -258.575475 
L 366.862489 -268.042793 
L 363.583147 -272.660272 
L 360.303805 -271.018372 
L 357.024463 -264.027396 
L 353.74514 -252.073284 
L 350.465798 -236.322561 
L 347.186455 -223.645929 
L 343.907113 -226.452437 
L 340.627771 -238.897728 
L 337.348448 -248.108845 
L 334.069106 -250.036877 
L 330.789764 -245.899923 
L 327.510422 -239.692569 
L 324.23108 -236.411774 
L 320.951757 -238.846346 
L 317.672395 -245.838706 
L 314.393072 -257.506224 
L 311.11373 -270.536745 
L 307.834388 -278.360648 
L 304.555065 -279.306429 
L 301.275704 -275.804951 
L 297.996381 -271.257089 
L 294.717039 -267.800888 
L 291.437697 -265.955827 
L 288.158355 -265.448458 
L 284.879012 -265.984569 
L 281.59969 -267.36868 
L 278.320328 -268.997308 
L 275.041005 -269.197184 
L 271.761663 -265.41054 
L 268.482321 -256.258179 
L 265.202998 -246.166628 
L 261.923637 -247.494332 
L 258.644314 -258.202905 
L 255.364972 -266.47607 
L 252.085629 -269.374657 
L 248.806287 -268.736083 
L 245.526945 -267.026473 
L 242.247622 -265.633321 
L 238.968261 -264.850466 
L 235.688938 -264.484205 
L 232.409596 -264.272048 
L 229.130254 -263.97322 
L 225.850931 -263.279113 
L 222.571579 -261.634797 
L 219.292246 -257.994866 
L 216.012904 -250.70988 
L 212.733562 -238.122172 
L 209.45423 -220.418441 
L 206.174887 -202.961399 
L 202.895545 -199.488186 
L 199.616213 -214.129531 
L 196.336871 -232.731581 
L 193.057528 -247.196318 
L 189.778196 -256.084893 
L 186.498854 -260.711614 
L 183.219512 -262.823392 
L 179.940179 -263.583237 
L 176.660837 -263.422367 
L 173.381495 -262.07273 
L 170.102162 -258.455029 
L 166.82282 -250.528723 
L 163.543478 -235.563035 
L 160.264145 -211.476122 
L 156.984803 -179.315838 
L 153.705461 -146.262609 
L 150.426129 -131.219809 
L 147.146787 -148.103064 
L 143.867444 -177.495178 
L 140.588112 -205.722462 
L 137.30877 -225.848267 
L 134.029432 -234.459895 
L 130.750095 -231.221944 
L 127.470753 -220.077599 
L 124.191416 -212.795707 
L 120.912078 -221.856555 
L 117.632736 -238.057781 
L 114.353399 -251.121426 
L 111.074061 -258.786455 
L 107.794719 -262.331823 
L 104.515382 -263.68143 
L 101.236045 -264.134008 
L 97.956705 -264.279483 
L 94.677365 -264.326051 
L 91.398028 -264.340419 
L 88.118688 -264.344462 
L 84.839348 -264.345468 
L 81.560011 -264.345685 
L 78.280671 -264.34573 
L 75.001333 -264.345738 
L 71.721994 -264.345738 
L 68.442655 -264.345738 
L 65.163316 -264.345738 
L 61.883977 -264.345738 
z
" style="stroke: #1f77b4; stroke-opacity: 0.5; stroke-width: 0.8"/>
    </defs>
    <g clip-path="url(#pbdb5926a54)">
     <use xlink:href="#m6c464f5c3c" x="0" y="309.639375" style="fill: #1f77b4; fill-opacity: 0.5; stroke: #1f77b4; stroke-opacity: 0.5; stroke-width: 0.8"/>
    </g>
   </g>
   <g id="PolyCollection_2">
    <defs>
     <path id="m4ea36a534f" d="M 61.883977 -101.005208 
L 61.883977 -91.821666 
L 65.163316 -91.821666 
L 68.442655 -91.821666 
L 71.721994 -91.821666 
L 75.001333 -91.821666 
L 78.280671 -91.821659 
L 81.560011 -91.821621 
L 84.839348 -91.821396 
L 88.118688 -91.820391 
L 91.398028 -91.816429 
L 94.677365 -91.80312 
L 97.956705 -91.766838 
L 101.236045 -91.696771 
L 104.515382 -91.660346 
L 107.794719 -92.036727 
L 111.074061 -93.872658 
L 114.353399 -98.853493 
L 117.632736 -108.021497 
L 120.912078 -118.942115 
L 124.191416 -123.46673 
L 127.470753 -115.247558 
L 130.750095 -99.644189 
L 134.029432 -83.134172 
L 137.30877 -67.861914 
L 140.588112 -55.263977 
L 143.867444 -48.423375 
L 147.146787 -49.862413 
L 150.426129 -55.93088 
L 153.705461 -58.650516 
L 156.984803 -60.388854 
L 160.264145 -65.831277 
L 163.543478 -73.85324 
L 166.82282 -81.449553 
L 170.102162 -86.786963 
L 173.381495 -89.713302 
L 176.660837 -90.927473 
L 179.940179 -91.103836 
L 183.219512 -90.56837 
L 186.498854 -89.503793 
L 189.778196 -88.510175 
L 193.057528 -89.111438 
L 196.336871 -93.299657 
L 199.616213 -101.306616 
L 202.895545 -108.305807 
L 206.174887 -106.648609 
L 209.45423 -98.407571 
L 212.733562 -91.434579 
L 216.012904 -88.608376 
L 219.292246 -88.761031 
L 222.571579 -89.913448 
L 225.850931 -90.9051 
L 229.130254 -91.470576 
L 232.409596 -91.750542 
L 235.688938 -91.963112 
L 238.968261 -92.351475 
L 242.247622 -93.281388 
L 245.526945 -95.404555 
L 248.806287 -99.836547 
L 252.085629 -108.114431 
L 255.364972 -121.370584 
L 258.644314 -138.311556 
L 261.923637 -152.611552 
L 265.202998 -154.060178 
L 268.482321 -141.321669 
L 271.761663 -124.211439 
L 275.041005 -110.0967 
L 278.320328 -100.988447 
L 281.59969 -96.021882 
L 284.879012 -93.696978 
L 288.158355 -92.969747 
L 291.437697 -93.509557 
L 294.717039 -95.717315 
L 297.996381 -100.737793 
L 301.275704 -110.277061 
L 304.555065 -125.708224 
L 307.834388 -146.138584 
L 311.11373 -166.452902 
L 314.393072 -178.094314 
L 317.672395 -175.443252 
L 320.951757 -161.460884 
L 324.23108 -141.850622 
L 327.510422 -121.622835 
L 330.789764 -106.620407 
L 334.069106 -100.945097 
L 337.348448 -105.148276 
L 340.627771 -116.669025 
L 343.907113 -129.241791 
L 347.186455 -133.001598 
L 350.465798 -125.07144 
L 353.74514 -114.559588 
L 357.024463 -109.382635 
L 360.303805 -112.451906 
L 363.583147 -123.790459 
L 366.862489 -141.121703 
L 370.141831 -158.199424 
L 373.421173 -164.196711 
L 376.700516 -153.709291 
L 379.979838 -135.164619 
L 383.259181 -117.910039 
L 386.538523 -105.706332 
L 386.538523 -115.231608 
L 386.538523 -115.231608 
L 383.259181 -128.112459 
L 379.979838 -146.919815 
L 376.700516 -168.428861 
L 373.421173 -181.867983 
L 370.141831 -173.983879 
L 366.862489 -153.604896 
L 363.583147 -134.433182 
L 360.303805 -122.443811 
L 357.024463 -119.627925 
L 353.74514 -126.081214 
L 350.465798 -139.312927 
L 347.186455 -150.480695 
L 343.907113 -145.540224 
L 340.627771 -129.631463 
L 337.348448 -116.23092 
L 334.069106 -111.571982 
L 330.789764 -117.995959 
L 327.510422 -135.041862 
L 324.23108 -158.605722 
L 320.951757 -181.934772 
L 317.672395 -197.95012 
L 314.393072 -198.045744 
L 311.11373 -181.675069 
L 307.834388 -158.121315 
L 304.555065 -136.023325 
L 301.275704 -119.848748 
L 297.996381 -110.029297 
L 294.717039 -104.924362 
L 291.437697 -102.697239 
L 288.158355 -102.155704 
L 284.879012 -102.893124 
L 281.59969 -105.268519 
L 278.320328 -110.418793 
L 275.041005 -120.055069 
L 271.761663 -135.43234 
L 268.482321 -155.106511 
L 265.202998 -171.261812 
L 261.923637 -169.309857 
L 258.644314 -151.526692 
L 255.364972 -132.289406 
L 252.085629 -117.939427 
L 248.806287 -109.217166 
L 245.526945 -104.636368 
L 242.247622 -102.474098 
L 238.968261 -101.536344 
L 235.688938 -101.146811 
L 232.409596 -100.934218 
L 229.130254 -100.655258 
L 225.850931 -100.096631 
L 222.571579 -99.139926 
L 219.292246 -98.123118 
L 216.012904 -98.382385 
L 212.733562 -102.235636 
L 209.45423 -111.393151 
L 206.174887 -123.098981 
L 202.895545 -125.68177 
L 199.616213 -115.349698 
L 196.336871 -104.66277 
L 193.057528 -99.133782 
L 189.778196 -97.964949 
L 186.498854 -98.757933 
L 183.219512 -99.766248 
L 179.940179 -100.289748 
L 176.660837 -100.112567 
L 173.381495 -98.905614 
L 170.102162 -96.016292 
L 166.82282 -90.820201 
L 163.543478 -83.650927 
L 160.264145 -76.709663 
L 156.984803 -73.711157 
L 153.705461 -76.734572 
L 150.426129 -76.974894 
L 147.146787 -65.989963 
L 143.867444 -60.698582 
L 140.588112 -65.794326 
L 137.30877 -77.890507 
L 134.029432 -93.604171 
L 130.750095 -111.685601 
L 127.470753 -130.361369 
L 124.191416 -141.203207 
L 120.912078 -134.337243 
L 117.632736 -120.205645 
L 114.353399 -109.258708 
L 111.074061 -103.47999 
L 107.794719 -101.340467 
L 104.515382 -100.870731 
L 101.236045 -100.884934 
L 97.956705 -100.950986 
L 94.677365 -100.986721 
L 91.398028 -100.999978 
L 88.118688 -101.003932 
L 84.839348 -101.004937 
L 81.560011 -101.005155 
L 78.280671 -101.0052 
L 75.001333 -101.005208 
L 71.721994 -101.005208 
L 68.442655 -101.005208 
L 65.163316 -101.005208 
L 61.883977 -101.005208 
z
" style="stroke: #ff7f0e; stroke-opacity: 0.5; stroke-width: 0.8"/>
    </defs>
    <g clip-path="url(#pbdb5926a54)">
     <use xlink:href="#m4ea36a534f" x="0" y="309.639375" style="fill: #ff7f0e; fill-opacity: 0.5; stroke: #ff7f0e; stroke-opacity: 0.5; stroke-width: 0.8"/>
    </g>
   </g>
   <g id="PolyCollection_3">
    <defs>
     <path id="mc84a4a44e7" d="M 61.883977 -273.529279 
L 61.883977 -264.345738 
L 65.163316 -264.345738 
L 68.442655 -264.345738 
L 71.721994 -264.345738 
L 75.001333 -264.345738 
L 78.280671 -264.34573 
L 81.560011 -264.345685 
L 84.839348 -264.345468 
L 88.118688 -264.344462 
L 91.398028 -264.340419 
L 94.677365 -264.326051 
L 97.956705 -264.279483 
L 101.236045 -264.134008 
L 104.515382 -263.68143 
L 107.794719 -262.331823 
L 111.074061 -258.786455 
L 114.353399 -251.121426 
L 117.632736 -238.057781 
L 120.912078 -221.856555 
L 124.191416 -212.795707 
L 127.470753 -220.077599 
L 130.750095 -231.221944 
L 134.029432 -234.459895 
L 137.30877 -225.848267 
L 140.588112 -205.722462 
L 143.867444 -177.495178 
L 147.146787 -148.103064 
L 150.426129 -131.219809 
L 153.705461 -146.262609 
L 156.984803 -179.315838 
L 160.264145 -211.476122 
L 163.543478 -235.563035 
L 166.82282 -250.528723 
L 170.102162 -258.455029 
L 173.381495 -262.07273 
L 176.660837 -263.422367 
L 179.940179 -263.583237 
L 183.219512 -262.823392 
L 186.498854 -260.711614 
L 189.778196 -256.084893 
L 193.057528 -247.196318 
L 196.336871 -232.731581 
L 199.616213 -214.129531 
L 202.895545 -199.488186 
L 206.174887 -202.961399 
L 209.45423 -220.418441 
L 212.733562 -238.122172 
L 216.012904 -250.70988 
L 219.292246 -257.994866 
L 222.571579 -261.634797 
L 225.850931 -263.279113 
L 229.130254 -263.97322 
L 232.409596 -264.272048 
L 235.688938 -264.484205 
L 238.968261 -264.850466 
L 242.247622 -265.633321 
L 245.526945 -267.026473 
L 248.806287 -268.736083 
L 252.085629 -269.374657 
L 255.364972 -266.47607 
L 258.644314 -258.202905 
L 261.923637 -247.494332 
L 265.202998 -246.166628 
L 268.482321 -256.258179 
L 271.761663 -265.41054 
L 275.041005 -269.197184 
L 278.320328 -268.997308 
L 281.59969 -267.36868 
L 284.879012 -265.984569 
L 288.158355 -265.448458 
L 291.437697 -265.955827 
L 294.717039 -267.800888 
L 297.996381 -271.257089 
L 301.275704 -275.804951 
L 304.555065 -279.306429 
L 307.834388 -278.360648 
L 311.11373 -270.536745 
L 314.393072 -257.506224 
L 317.672395 -245.838706 
L 320.951757 -238.846346 
L 324.23108 -236.411774 
L 327.510422 -239.692569 
L 330.789764 -245.899923 
L 334.069106 -250.036877 
L 337.348448 -248.108845 
L 340.627771 -238.897728 
L 343.907113 -226.452437 
L 347.186455 -223.645929 
L 350.465798 -236.322561 
L 353.74514 -252.073284 
L 357.024463 -264.027396 
L 360.303805 -271.018372 
L 363.583147 -272.660272 
L 366.862489 -268.042793 
L 370.141831 -258.575475 
L 373.421173 -253.855309 
L 376.700516 -261.347036 
L 379.979838 -269.946022 
L 383.259181 -273.204658 
L 386.538523 -272.040747 
L 386.538523 -281.566023 
L 386.538523 -281.566023 
L 383.259181 -283.407078 
L 379.979838 -281.701212 
L 376.700516 -276.066603 
L 373.421173 -271.526589 
L 370.141831 -274.359926 
L 366.862489 -280.525994 
L 363.583147 -283.302995 
L 360.303805 -281.010278 
L 357.024463 -274.272686 
L 353.74514 -263.594911 
L 350.465798 -250.564053 
L 347.186455 -241.125026 
L 343.907113 -242.75087 
L 340.627771 -251.860159 
L 337.348448 -259.191488 
L 334.069106 -260.663762 
L 330.789764 -257.275475 
L 327.510422 -253.111602 
L 324.23108 -253.166874 
L 320.951757 -259.32024 
L 317.672395 -268.345575 
L 314.393072 -277.457654 
L 311.11373 -285.758916 
L 307.834388 -290.343375 
L 304.555065 -289.62153 
L 301.275704 -285.376637 
L 297.996381 -280.548592 
L 294.717039 -277.007935 
L 291.437697 -275.143509 
L 288.158355 -274.634415 
L 284.879012 -275.180714 
L 281.59969 -276.615318 
L 278.320328 -278.427653 
L 275.041005 -279.155553 
L 271.761663 -276.631441 
L 268.482321 -270.043023 
L 265.202998 -263.368266 
L 261.923637 -264.192633 
L 258.644314 -271.418041 
L 255.364972 -277.394895 
L 252.085629 -279.199653 
L 248.806287 -278.116702 
L 245.526945 -276.258286 
L 242.247622 -274.826031 
L 238.968261 -274.035335 
L 235.688938 -273.667904 
L 232.409596 -273.455724 
L 229.130254 -273.157902 
L 225.850931 -272.470644 
L 222.571579 -270.861261 
L 219.292246 -267.356954 
L 216.012904 -260.483888 
L 212.733562 -248.923226 
L 209.45423 -233.404017 
L 206.174887 -219.411768 
L 202.895545 -216.864144 
L 199.616213 -228.172615 
L 196.336871 -244.094693 
L 193.057528 -257.218666 
L 189.778196 -265.539667 
L 186.498854 -269.965754 
L 183.219512 -272.02127 
L 179.940179 -272.769149 
L 176.660837 -272.607461 
L 173.381495 -271.265042 
L 170.102162 -267.684358 
L 166.82282 -259.899371 
L 163.543478 -245.360721 
L 160.264145 -222.354508 
L 156.984803 -192.638141 
L 153.705461 -164.346661 
L 150.426129 -152.263823 
L 147.146787 -164.230619 
L 143.867444 -189.770374 
L 140.588112 -216.25282 
L 137.30877 -235.87686 
L 134.029432 -244.929894 
L 130.750095 -243.263348 
L 127.470753 -235.19141 
L 124.191416 -230.532184 
L 120.912078 -237.251687 
L 117.632736 -250.241937 
L 114.353399 -261.52664 
L 111.074061 -268.393786 
L 107.794719 -271.635563 
L 104.515382 -272.891816 
L 101.236045 -273.322171 
L 97.956705 -273.463617 
L 94.677365 -273.509652 
L 91.398028 -273.523952 
L 88.118688 -273.528004 
L 84.839348 -273.529009 
L 81.560011 -273.529234 
L 78.280671 -273.529272 
L 75.001333 -273.529279 
L 71.721994 -273.529279 
L 68.442655 -273.529279 
L 65.163316 -273.529279 
L 61.883977 -273.529279 
z
" style="stroke: #ff7f0e; stroke-opacity: 0.5; stroke-width: 0.8"/>
    </defs>
    <g clip-path="url(#pbdb5926a54)">
     <use xlink:href="#mc84a4a44e7" x="0" y="309.639375" style="fill: #ff7f0e; fill-opacity: 0.5; stroke: #ff7f0e; stroke-opacity: 0.5; stroke-width: 0.8"/>
    </g>
   </g>
   <g id="line2d_15">
    <defs>
     <path id="mde1be479bc" d="M -5 5 
L 5 -5 
M -5 -5 
L 5 5 
" style="stroke: #000000; stroke-width: 2"/>
    </defs>
    <g clip-path="url(#pbdb5926a54)">
     <use xlink:href="#mde1be479bc" x="124.061639" y="133.6491" style="stroke: #000000; stroke-width: 2"/>
     <use xlink:href="#mde1be479bc" x="263.854413" y="94.367693" style="stroke: #000000; stroke-width: 2"/>
     <use xlink:href="#mde1be479bc" x="203.994281" y="152.016957" style="stroke: #000000; stroke-width: 2"/>
     <use xlink:href="#mde1be479bc" x="316.854219" y="77.279389" style="stroke: #000000; stroke-width: 2"/>
     <use xlink:href="#mde1be479bc" x="315.106676" y="75.020478" style="stroke: #000000; stroke-width: 2"/>
     <use xlink:href="#mde1be479bc" x="150.382405" y="234.106797" style="stroke: #000000; stroke-width: 2"/>
     <use xlink:href="#mde1be479bc" x="151.639354" y="193.969107" style="stroke: #000000; stroke-width: 2"/>
     <use xlink:href="#mde1be479bc" x="322.21543" y="111.353447" style="stroke: #000000; stroke-width: 2"/>
     <use xlink:href="#mde1be479bc" x="372.948276" y="83.360498" style="stroke: #000000; stroke-width: 2"/>
     <use xlink:href="#mde1be479bc" x="346.259488" y="121.797759" style="stroke: #000000; stroke-width: 2"/>
    </g>
   </g>
   <g id="line2d_16">
    <path d="M 61.883977 126.963902 
L 65.163316 126.963902 
L 68.442655 126.963902 
L 71.721994 126.963902 
L 75.001333 126.963903 
L 78.280671 126.96391 
L 81.560011 126.963951 
L 84.839348 126.96417 
L 88.118688 126.965176 
L 91.398028 126.96918 
L 94.677365 126.982988 
L 97.956705 127.024144 
L 101.236045 127.129905 
L 104.515382 127.363297 
L 107.794719 127.803233 
L 111.074061 128.506152 
L 114.353399 129.449307 
L 117.632736 130.50766 
L 120.912078 131.542475 
L 124.191416 132.639917 
L 127.470753 134.419889 
L 130.750095 138.185604 
L 134.029432 145.607344 
L 137.30877 157.769988 
L 140.588112 173.880981 
L 143.867444 190.542497 
L 147.146787 202.592859 
L 150.426129 205.542021 
L 153.705461 198.140783 
L 156.984803 183.125878 
L 160.264145 165.546483 
L 163.543478 150.032392 
L 166.82282 138.964911 
L 170.102162 132.403714 
L 173.381495 129.150205 
L 176.660837 127.871911 
L 179.940179 127.702884 
L 183.219512 128.344558 
L 186.498854 129.904601 
L 189.778196 132.614457 
L 193.057528 136.474326 
L 196.336871 140.9422 
L 199.616213 144.899762 
L 202.895545 147.054398 
L 206.174887 146.609184 
L 209.45423 143.733579 
L 212.733562 139.46047 
L 216.012904 135.093245 
L 219.292246 131.58038 
L 222.571579 129.252017 
L 225.850931 127.951504 
L 229.130254 127.325134 
L 232.409596 127.036241 
L 235.688938 126.823864 
L 238.968261 126.445973 
L 242.247622 125.585662 
L 245.526945 123.807955 
L 248.806287 120.662751 
L 252.085629 115.98233 
L 255.364972 110.256638 
L 258.644314 104.774574 
L 261.923637 101.23728 
L 265.202998 100.925155 
L 268.482321 103.957031 
L 271.761663 109.217936 
L 275.041005 115.013247 
L 278.320328 119.931325 
L 281.59969 123.320778 
L 284.879012 125.200527 
L 288.158355 125.837293 
L 291.437697 125.312839 
L 294.717039 123.276748 
L 297.996381 118.996185 
L 301.275704 111.812528 
L 304.555065 101.974496 
L 307.834388 91.398394 
L 311.11373 83.533466 
L 314.393072 81.863391 
L 317.672395 87.744962 
L 320.951757 99.248815 
L 324.23108 112.130627 
L 327.510422 122.27216 
L 330.789764 127.691434 
L 334.069106 128.834946 
L 337.348448 127.469493 
L 340.627771 125.37478 
L 343.907113 123.643044 
L 347.186455 122.576062 
L 350.465798 121.82163 
L 353.74514 120.562125 
L 357.024463 117.811712 
L 360.303805 112.908284 
L 363.583147 106.092646 
L 366.862489 98.815528 
L 370.141831 93.3597 
L 373.421173 91.777727 
L 376.700516 94.751426 
L 379.979838 101.206458 
L 383.259181 108.980817 
L 386.538523 116.003195 
" clip-path="url(#pbdb5926a54)" style="fill: none; stroke: #1f77b4; stroke-width: 2; stroke-linecap: round"/>
   </g>
   <g id="line2d_17">
    <path d="M 61.883977 187.295505 
L 65.163316 179.296582 
L 68.442655 171.362519 
L 71.721994 163.619534 
L 75.001333 156.189842 
L 78.280671 149.189642 
L 81.560011 142.727278 
L 84.839348 136.901515 
L 88.118688 131.799912 
L 91.398028 127.497455 
L 94.677365 124.055348 
L 97.956705 121.520027 
L 101.236045 119.922442 
L 104.515382 119.27754 
L 107.794719 119.584065 
L 111.074061 120.824573 
L 114.353399 122.96572 
L 117.632736 125.958836 
L 120.912078 129.740693 
L 124.191416 134.234551 
L 127.470753 139.351434 
L 130.750095 144.991531 
L 134.029432 151.045847 
L 137.30877 157.397954 
L 140.588112 163.925962 
L 143.867444 170.504322 
L 147.146787 177.006138 
L 150.426129 183.304942 
L 153.705461 189.276934 
L 156.984803 194.802973 
L 160.264145 199.770446 
L 163.543478 204.075164 
L 166.82282 207.623069 
L 170.102162 210.331721 
L 173.381495 212.131692 
L 176.660837 212.967696 
L 179.940179 212.799511 
L 183.219512 211.602641 
L 186.498854 209.368751 
L 189.778196 206.105809 
L 193.057528 201.838034 
L 196.336871 196.605465 
L 199.616213 190.463375 
L 202.895545 183.481462 
L 206.174887 175.742672 
L 209.45423 167.341941 
L 212.733562 158.384745 
L 216.012904 148.985251 
L 219.292246 139.264714 
L 222.571579 129.349586 
L 225.850931 119.369151 
L 229.130254 109.45406 
L 232.409596 99.733522 
L 235.688938 90.334031 
L 238.968261 81.376864 
L 242.247622 72.976081 
L 245.526945 65.237321 
L 248.806287 58.255404 
L 252.085629 52.113329 
L 255.364972 46.880753 
L 258.644314 42.612977 
L 261.923637 39.350057 
L 265.202998 37.116145 
L 268.482321 35.919291 
L 271.761663 35.751105 
L 275.041005 36.587117 
L 278.320328 38.387073 
L 281.59969 41.09574 
L 284.879012 44.643645 
L 288.158355 48.948371 
L 291.437697 53.915851 
L 294.717039 59.44189 
L 297.996381 65.413897 
L 301.275704 71.712656 
L 304.555065 78.214509 
L 307.834388 84.792847 
L 311.11373 91.320843 
L 314.393072 97.673009 
L 317.672395 103.727276 
L 320.951757 109.367412 
L 324.23108 114.484254 
L 327.510422 118.978124 
L 330.789764 122.759981 
L 334.069106 125.753089 
L 337.348448 127.894236 
L 340.627771 129.13474 
L 343.907113 129.441262 
L 347.186455 128.796356 
L 350.465798 127.198763 
L 353.74514 124.663439 
L 357.024463 121.22135 
L 360.303805 116.918894 
L 363.583147 111.81729 
L 366.862489 105.991519 
L 370.141831 99.529156 
L 373.421173 92.528952 
L 376.700516 85.099196 
L 379.979838 77.356268 
L 383.259181 69.422201 
L 386.538523 61.423274 
" clip-path="url(#pbdb5926a54)" style="fill: none; stroke-dasharray: 7.68,1.92,1.2,1.92; stroke-dashoffset: 0; stroke: #bf00bf; stroke-width: 1.2"/>
   </g>
   <g id="patch_3">
    <path d="M 45.65125 250.23161 
L 45.65125 29.955244 
" style="fill: none; stroke: #262626; stroke-linejoin: miter; stroke-linecap: square"/>
   </g>
   <g id="patch_4">
    <path d="M 61.883977 273.312 
L 386.538523 273.312 
" style="fill: none; stroke: #262626; stroke-linejoin: miter; stroke-linecap: square"/>
   </g>
   <g id="legend_1">
    <g id="line2d_18">
     <g>
      <use xlink:href="#mde1be479bc" x="62.37125" y="18.338875" style="stroke: #000000; stroke-width: 2"/>
     </g>
    </g>
    <g id="text_17">
     <!-- Observations -->
     <g style="fill: #262626" transform="translate(78.21125 21.418875) scale(0.088 -0.088)">
      <defs>
       <path id="ArialMT-4f" d="M 309 2231 
Q 309 3372 921 4017 
Q 1534 4663 2503 4663 
Q 3138 4663 3647 4359 
Q 4156 4056 4423 3514 
Q 4691 2972 4691 2284 
Q 4691 1588 4409 1038 
Q 4128 488 3612 205 
Q 3097 -78 2500 -78 
Q 1853 -78 1343 234 
Q 834 547 571 1087 
Q 309 1628 309 2231 
z
M 934 2222 
Q 934 1394 1379 917 
Q 1825 441 2497 441 
Q 3181 441 3623 922 
Q 4066 1403 4066 2288 
Q 4066 2847 3877 3264 
Q 3688 3681 3323 3911 
Q 2959 4141 2506 4141 
Q 1863 4141 1398 3698 
Q 934 3256 934 2222 
z
" transform="scale(0.015625)"/>
       <path id="ArialMT-62" d="M 941 0 
L 419 0 
L 419 4581 
L 981 4581 
L 981 2947 
Q 1338 3394 1891 3394 
Q 2197 3394 2470 3270 
Q 2744 3147 2920 2923 
Q 3097 2700 3197 2384 
Q 3297 2069 3297 1709 
Q 3297 856 2875 390 
Q 2453 -75 1863 -75 
Q 1275 -75 941 416 
L 941 0 
z
M 934 1684 
Q 934 1088 1097 822 
Q 1363 388 1816 388 
Q 2184 388 2453 708 
Q 2722 1028 2722 1663 
Q 2722 2313 2464 2622 
Q 2206 2931 1841 2931 
Q 1472 2931 1203 2611 
Q 934 2291 934 1684 
z
" transform="scale(0.015625)"/>
       <path id="ArialMT-73" d="M 197 991 
L 753 1078 
Q 800 744 1014 566 
Q 1228 388 1613 388 
Q 2000 388 2187 545 
Q 2375 703 2375 916 
Q 2375 1106 2209 1216 
Q 2094 1291 1634 1406 
Q 1016 1563 777 1677 
Q 538 1791 414 1992 
Q 291 2194 291 2438 
Q 291 2659 392 2848 
Q 494 3038 669 3163 
Q 800 3259 1026 3326 
Q 1253 3394 1513 3394 
Q 1903 3394 2198 3281 
Q 2494 3169 2634 2976 
Q 2775 2784 2828 2463 
L 2278 2388 
Q 2241 2644 2061 2787 
Q 1881 2931 1553 2931 
Q 1166 2931 1000 2803 
Q 834 2675 834 2503 
Q 834 2394 903 2306 
Q 972 2216 1119 2156 
Q 1203 2125 1616 2013 
Q 2213 1853 2448 1751 
Q 2684 1650 2818 1456 
Q 2953 1263 2953 975 
Q 2953 694 2789 445 
Q 2625 197 2315 61 
Q 2006 -75 1616 -75 
Q 969 -75 630 194 
Q 291 463 197 991 
z
" transform="scale(0.015625)"/>
       <path id="ArialMT-65" d="M 2694 1069 
L 3275 997 
Q 3138 488 2766 206 
Q 2394 -75 1816 -75 
Q 1088 -75 661 373 
Q 234 822 234 1631 
Q 234 2469 665 2931 
Q 1097 3394 1784 3394 
Q 2450 3394 2872 2941 
Q 3294 2488 3294 1666 
Q 3294 1616 3291 1516 
L 816 1516 
Q 847 969 1125 678 
Q 1403 388 1819 388 
Q 2128 388 2347 550 
Q 2566 713 2694 1069 
z
M 847 1978 
L 2700 1978 
Q 2663 2397 2488 2606 
Q 2219 2931 1791 2931 
Q 1403 2931 1139 2672 
Q 875 2413 847 1978 
z
" transform="scale(0.015625)"/>
       <path id="ArialMT-72" d="M 416 0 
L 416 3319 
L 922 3319 
L 922 2816 
Q 1116 3169 1280 3281 
Q 1444 3394 1641 3394 
Q 1925 3394 2219 3213 
L 2025 2691 
Q 1819 2813 1613 2813 
Q 1428 2813 1281 2702 
Q 1134 2591 1072 2394 
Q 978 2094 978 1738 
L 978 0 
L 416 0 
z
" transform="scale(0.015625)"/>
       <path id="ArialMT-76" d="M 1344 0 
L 81 3319 
L 675 3319 
L 1388 1331 
Q 1503 1009 1600 663 
Q 1675 925 1809 1294 
L 2547 3319 
L 3125 3319 
L 1869 0 
L 1344 0 
z
" transform="scale(0.015625)"/>
       <path id="ArialMT-61" d="M 2588 409 
Q 2275 144 1986 34 
Q 1697 -75 1366 -75 
Q 819 -75 525 192 
Q 231 459 231 875 
Q 231 1119 342 1320 
Q 453 1522 633 1644 
Q 813 1766 1038 1828 
Q 1203 1872 1538 1913 
Q 2219 1994 2541 2106 
Q 2544 2222 2544 2253 
Q 2544 2597 2384 2738 
Q 2169 2928 1744 2928 
Q 1347 2928 1158 2789 
Q 969 2650 878 2297 
L 328 2372 
Q 403 2725 575 2942 
Q 747 3159 1072 3276 
Q 1397 3394 1825 3394 
Q 2250 3394 2515 3294 
Q 2781 3194 2906 3042 
Q 3031 2891 3081 2659 
Q 3109 2516 3109 2141 
L 3109 1391 
Q 3109 606 3145 398 
Q 3181 191 3288 0 
L 2700 0 
Q 2613 175 2588 409 
z
M 2541 1666 
Q 2234 1541 1622 1453 
Q 1275 1403 1131 1340 
Q 988 1278 909 1158 
Q 831 1038 831 891 
Q 831 666 1001 516 
Q 1172 366 1500 366 
Q 1825 366 2078 508 
Q 2331 650 2450 897 
Q 2541 1088 2541 1459 
L 2541 1666 
z
" transform="scale(0.015625)"/>
       <path id="ArialMT-74" d="M 1650 503 
L 1731 6 
Q 1494 -44 1306 -44 
Q 1000 -44 831 53 
Q 663 150 594 308 
Q 525 466 525 972 
L 525 2881 
L 113 2881 
L 113 3319 
L 525 3319 
L 525 4141 
L 1084 4478 
L 1084 3319 
L 1650 3319 
L 1650 2881 
L 1084 2881 
L 1084 941 
Q 1084 700 1114 631 
Q 1144 563 1211 522 
Q 1278 481 1403 481 
Q 1497 481 1650 503 
z
" transform="scale(0.015625)"/>
       <path id="ArialMT-69" d="M 425 3934 
L 425 4581 
L 988 4581 
L 988 3934 
L 425 3934 
z
M 425 0 
L 425 3319 
L 988 3319 
L 988 0 
L 425 0 
z
" transform="scale(0.015625)"/>
       <path id="ArialMT-6f" d="M 213 1659 
Q 213 2581 725 3025 
Q 1153 3394 1769 3394 
Q 2453 3394 2887 2945 
Q 3322 2497 3322 1706 
Q 3322 1066 3130 698 
Q 2938 331 2570 128 
Q 2203 -75 1769 -75 
Q 1072 -75 642 372 
Q 213 819 213 1659 
z
M 791 1659 
Q 791 1022 1069 705 
Q 1347 388 1769 388 
Q 2188 388 2466 706 
Q 2744 1025 2744 1678 
Q 2744 2294 2464 2611 
Q 2184 2928 1769 2928 
Q 1347 2928 1069 2612 
Q 791 2297 791 1659 
z
" transform="scale(0.015625)"/>
       <path id="ArialMT-6e" d="M 422 0 
L 422 3319 
L 928 3319 
L 928 2847 
Q 1294 3394 1984 3394 
Q 2284 3394 2536 3286 
Q 2788 3178 2913 3003 
Q 3038 2828 3088 2588 
Q 3119 2431 3119 2041 
L 3119 0 
L 2556 0 
L 2556 2019 
Q 2556 2363 2490 2533 
Q 2425 2703 2258 2804 
Q 2091 2906 1866 2906 
Q 1506 2906 1245 2678 
Q 984 2450 984 1813 
L 984 0 
L 422 0 
z
" transform="scale(0.015625)"/>
      </defs>
      <use xlink:href="#ArialMT-4f"/>
      <use xlink:href="#ArialMT-62" x="77.783203"/>
      <use xlink:href="#ArialMT-73" x="133.398438"/>
      <use xlink:href="#ArialMT-65" x="183.398438"/>
      <use xlink:href="#ArialMT-72" x="239.013672"/>
      <use xlink:href="#ArialMT-76" x="272.314453"/>
      <use xlink:href="#ArialMT-61" x="322.314453"/>
      <use xlink:href="#ArialMT-74" x="377.929688"/>
      <use xlink:href="#ArialMT-69" x="405.712891"/>
      <use xlink:href="#ArialMT-6f" x="427.929688"/>
      <use xlink:href="#ArialMT-6e" x="483.544922"/>
      <use xlink:href="#ArialMT-73" x="539.160156"/>
     </g>
    </g>
    <g id="line2d_19">
     <path d="M 53.57125 30.922875 
L 62.37125 30.922875 
L 71.17125 30.922875 
" style="fill: none; stroke: #1f77b4; stroke-width: 2; stroke-linecap: round"/>
    </g>
    <g id="text_18">
     <!-- $m_n(x)$ -->
     <g style="fill: #262626" transform="translate(78.21125 34.002875) scale(0.088 -0.088)">
      <defs>
       <path id="DejaVuSans-Oblique-6d" d="M 5747 2113 
L 5338 0 
L 4763 0 
L 5166 2094 
Q 5191 2228 5203 2325 
Q 5216 2422 5216 2491 
Q 5216 2772 5059 2928 
Q 4903 3084 4622 3084 
Q 4203 3084 3875 2770 
Q 3547 2456 3450 1953 
L 3066 0 
L 2491 0 
L 2900 2094 
Q 2925 2209 2937 2307 
Q 2950 2406 2950 2484 
Q 2950 2769 2794 2926 
Q 2638 3084 2363 3084 
Q 1938 3084 1609 2770 
Q 1281 2456 1184 1953 
L 800 0 
L 225 0 
L 909 3500 
L 1484 3500 
L 1375 2956 
Q 1609 3263 1923 3423 
Q 2238 3584 2597 3584 
Q 2978 3584 3223 3384 
Q 3469 3184 3519 2828 
Q 3781 3197 4126 3390 
Q 4472 3584 4856 3584 
Q 5306 3584 5551 3325 
Q 5797 3066 5797 2591 
Q 5797 2488 5784 2364 
Q 5772 2241 5747 2113 
z
" transform="scale(0.015625)"/>
       <path id="DejaVuSans-Oblique-6e" d="M 3566 2113 
L 3156 0 
L 2578 0 
L 2988 2091 
Q 3016 2238 3031 2350 
Q 3047 2463 3047 2528 
Q 3047 2791 2881 2937 
Q 2716 3084 2419 3084 
Q 1956 3084 1622 2776 
Q 1288 2469 1184 1941 
L 800 0 
L 225 0 
L 903 3500 
L 1478 3500 
L 1363 2950 
Q 1603 3253 1940 3418 
Q 2278 3584 2650 3584 
Q 3113 3584 3367 3334 
Q 3622 3084 3622 2631 
Q 3622 2519 3608 2391 
Q 3594 2263 3566 2113 
z
" transform="scale(0.015625)"/>
       <path id="DejaVuSans-28" d="M 1984 4856 
Q 1566 4138 1362 3434 
Q 1159 2731 1159 2009 
Q 1159 1288 1364 580 
Q 1569 -128 1984 -844 
L 1484 -844 
Q 1016 -109 783 600 
Q 550 1309 550 2009 
Q 550 2706 781 3412 
Q 1013 4119 1484 4856 
L 1984 4856 
z
" transform="scale(0.015625)"/>
       <path id="DejaVuSans-29" d="M 513 4856 
L 1013 4856 
Q 1481 4119 1714 3412 
Q 1947 2706 1947 2009 
Q 1947 1309 1714 600 
Q 1481 -109 1013 -844 
L 513 -844 
Q 928 -128 1133 580 
Q 1338 1288 1338 2009 
Q 1338 2731 1133 3434 
Q 928 4138 513 4856 
z
" transform="scale(0.015625)"/>
      </defs>
      <use xlink:href="#DejaVuSans-Oblique-6d" transform="translate(0 0.125)"/>
      <use xlink:href="#DejaVuSans-Oblique-6e" transform="translate(97.412109 -16.28125) scale(0.7)"/>
      <use xlink:href="#DejaVuSans-28" transform="translate(144.511719 0.125)"/>
      <use xlink:href="#DejaVuSans-Oblique-78" transform="translate(183.525391 0.125)"/>
      <use xlink:href="#DejaVuSans-29" transform="translate(242.705078 0.125)"/>
     </g>
    </g>
    <g id="patch_5">
     <path d="M 53.57125 48.159875 
L 71.17125 48.159875 
L 71.17125 41.999875 
L 53.57125 41.999875 
z
" style="fill: #1f77b4; fill-opacity: 0.5; stroke: #1f77b4; stroke-opacity: 0.5; stroke-width: 0.8; stroke-linejoin: miter"/>
    </g>
    <g id="text_19">
     <!-- $f(\mathbf{x}^*)$ 95% pred. -->
     <g style="fill: #262626" transform="translate(78.21125 48.159875) scale(0.088 -0.088)">
      <defs>
       <path id="DejaVuSans-Oblique-66" d="M 3059 4863 
L 2969 4384 
L 2419 4384 
Q 2106 4384 1964 4261 
Q 1822 4138 1753 3809 
L 1691 3500 
L 2638 3500 
L 2553 3053 
L 1606 3053 
L 1013 0 
L 434 0 
L 1031 3053 
L 481 3053 
L 563 3500 
L 1113 3500 
L 1159 3744 
Q 1278 4363 1576 4613 
Q 1875 4863 2516 4863 
L 3059 4863 
z
" transform="scale(0.015625)"/>
       <path id="DejaVuSans-Bold-78" d="M 1422 1791 
L 159 3500 
L 1344 3500 
L 2059 2463 
L 2784 3500 
L 3969 3500 
L 2706 1797 
L 4031 0 
L 2847 0 
L 2059 1106 
L 1281 0 
L 97 0 
L 1422 1791 
z
" transform="scale(0.015625)"/>
       <path id="DejaVuSans-2a" d="M 3009 3897 
L 1888 3291 
L 3009 2681 
L 2828 2375 
L 1778 3009 
L 1778 1831 
L 1422 1831 
L 1422 3009 
L 372 2375 
L 191 2681 
L 1313 3291 
L 191 3897 
L 372 4206 
L 1422 3572 
L 1422 4750 
L 1778 4750 
L 1778 3572 
L 2828 4206 
L 3009 3897 
z
" transform="scale(0.015625)"/>
       <path id="ArialMT-20" transform="scale(0.015625)"/>
       <path id="ArialMT-39" d="M 350 1059 
L 891 1109 
Q 959 728 1153 556 
Q 1347 384 1650 384 
Q 1909 384 2104 503 
Q 2300 622 2425 820 
Q 2550 1019 2634 1356 
Q 2719 1694 2719 2044 
Q 2719 2081 2716 2156 
Q 2547 1888 2255 1720 
Q 1963 1553 1622 1553 
Q 1053 1553 659 1965 
Q 266 2378 266 3053 
Q 266 3750 677 4175 
Q 1088 4600 1706 4600 
Q 2153 4600 2523 4359 
Q 2894 4119 3086 3673 
Q 3278 3228 3278 2384 
Q 3278 1506 3087 986 
Q 2897 466 2520 194 
Q 2144 -78 1638 -78 
Q 1100 -78 759 220 
Q 419 519 350 1059 
z
M 2653 3081 
Q 2653 3566 2395 3850 
Q 2138 4134 1775 4134 
Q 1400 4134 1122 3828 
Q 844 3522 844 3034 
Q 844 2597 1108 2323 
Q 1372 2050 1759 2050 
Q 2150 2050 2401 2323 
Q 2653 2597 2653 3081 
z
" transform="scale(0.015625)"/>
       <path id="ArialMT-25" d="M 372 3481 
Q 372 3972 619 4315 
Q 866 4659 1334 4659 
Q 1766 4659 2048 4351 
Q 2331 4044 2331 3447 
Q 2331 2866 2045 2552 
Q 1759 2238 1341 2238 
Q 925 2238 648 2547 
Q 372 2856 372 3481 
z
M 1350 4272 
Q 1141 4272 1002 4090 
Q 863 3909 863 3425 
Q 863 2984 1003 2804 
Q 1144 2625 1350 2625 
Q 1563 2625 1702 2806 
Q 1841 2988 1841 3469 
Q 1841 3913 1700 4092 
Q 1559 4272 1350 4272 
z
M 1353 -169 
L 3859 4659 
L 4316 4659 
L 1819 -169 
L 1353 -169 
z
M 3334 1075 
Q 3334 1569 3581 1911 
Q 3828 2253 4300 2253 
Q 4731 2253 5014 1945 
Q 5297 1638 5297 1041 
Q 5297 459 5011 145 
Q 4725 -169 4303 -169 
Q 3888 -169 3611 142 
Q 3334 453 3334 1075 
z
M 4316 1866 
Q 4103 1866 3964 1684 
Q 3825 1503 3825 1019 
Q 3825 581 3965 400 
Q 4106 219 4313 219 
Q 4528 219 4667 400 
Q 4806 581 4806 1063 
Q 4806 1506 4665 1686 
Q 4525 1866 4316 1866 
z
" transform="scale(0.015625)"/>
       <path id="ArialMT-70" d="M 422 -1272 
L 422 3319 
L 934 3319 
L 934 2888 
Q 1116 3141 1344 3267 
Q 1572 3394 1897 3394 
Q 2322 3394 2647 3175 
Q 2972 2956 3137 2557 
Q 3303 2159 3303 1684 
Q 3303 1175 3120 767 
Q 2938 359 2589 142 
Q 2241 -75 1856 -75 
Q 1575 -75 1351 44 
Q 1128 163 984 344 
L 984 -1272 
L 422 -1272 
z
M 931 1641 
Q 931 1000 1190 694 
Q 1450 388 1819 388 
Q 2194 388 2461 705 
Q 2728 1022 2728 1688 
Q 2728 2322 2467 2637 
Q 2206 2953 1844 2953 
Q 1484 2953 1207 2617 
Q 931 2281 931 1641 
z
" transform="scale(0.015625)"/>
       <path id="ArialMT-64" d="M 2575 0 
L 2575 419 
Q 2259 -75 1647 -75 
Q 1250 -75 917 144 
Q 584 363 401 755 
Q 219 1147 219 1656 
Q 219 2153 384 2558 
Q 550 2963 881 3178 
Q 1213 3394 1622 3394 
Q 1922 3394 2156 3267 
Q 2391 3141 2538 2938 
L 2538 4581 
L 3097 4581 
L 3097 0 
L 2575 0 
z
M 797 1656 
Q 797 1019 1065 703 
Q 1334 388 1700 388 
Q 2069 388 2326 689 
Q 2584 991 2584 1609 
Q 2584 2291 2321 2609 
Q 2059 2928 1675 2928 
Q 1300 2928 1048 2622 
Q 797 2316 797 1656 
z
" transform="scale(0.015625)"/>
      </defs>
      <use xlink:href="#DejaVuSans-Oblique-66" transform="translate(0 0.765625)"/>
      <use xlink:href="#DejaVuSans-28" transform="translate(35.205078 0.765625)"/>
      <use xlink:href="#DejaVuSans-Bold-78" transform="translate(74.21875 0.765625)"/>
      <use xlink:href="#DejaVuSans-2a" transform="translate(153.31543 39.046875) scale(0.7)"/>
      <use xlink:href="#DejaVuSans-29" transform="translate(204.6875 0.765625)"/>
      <use xlink:href="#ArialMT-20" transform="translate(243.701172 0.765625)"/>
      <use xlink:href="#ArialMT-39" transform="translate(271.484375 0.765625)"/>
      <use xlink:href="#ArialMT-35" transform="translate(327.099609 0.765625)"/>
      <use xlink:href="#ArialMT-25" transform="translate(382.714844 0.765625)"/>
      <use xlink:href="#ArialMT-20" transform="translate(471.630859 0.765625)"/>
      <use xlink:href="#ArialMT-70" transform="translate(499.414062 0.765625)"/>
      <use xlink:href="#ArialMT-72" transform="translate(555.029297 0.765625)"/>
      <use xlink:href="#ArialMT-65" transform="translate(588.330078 0.765625)"/>
      <use xlink:href="#ArialMT-64" transform="translate(643.945312 0.765625)"/>
      <use xlink:href="#ArialMT-2e" transform="translate(699.560547 0.765625)"/>
     </g>
    </g>
    <g id="patch_6">
     <path d="M 53.57125 62.327875 
L 71.17125 62.327875 
L 71.17125 56.167875 
L 53.57125 56.167875 
z
" style="fill: #ff7f0e; fill-opacity: 0.5; stroke: #ff7f0e; stroke-opacity: 0.5; stroke-width: 0.8; stroke-linejoin: miter"/>
    </g>
    <g id="text_20">
     <!-- $y^*$ 95% pred. -->
     <g style="fill: #262626" transform="translate(78.21125 62.327875) scale(0.088 -0.088)">
      <use xlink:href="#DejaVuSans-Oblique-79" transform="translate(0 0.765625)"/>
      <use xlink:href="#DejaVuSans-2a" transform="translate(77.283529 39.046875) scale(0.7)"/>
      <use xlink:href="#ArialMT-20" transform="translate(128.655599 0.765625)"/>
      <use xlink:href="#ArialMT-39" transform="translate(156.438802 0.765625)"/>
      <use xlink:href="#ArialMT-35" transform="translate(212.054036 0.765625)"/>
      <use xlink:href="#ArialMT-25" transform="translate(267.669271 0.765625)"/>
      <use xlink:href="#ArialMT-20" transform="translate(356.585286 0.765625)"/>
      <use xlink:href="#ArialMT-70" transform="translate(384.36849 0.765625)"/>
      <use xlink:href="#ArialMT-72" transform="translate(439.983724 0.765625)"/>
      <use xlink:href="#ArialMT-65" transform="translate(473.284505 0.765625)"/>
      <use xlink:href="#ArialMT-64" transform="translate(528.89974 0.765625)"/>
      <use xlink:href="#ArialMT-2e" transform="translate(584.514974 0.765625)"/>
     </g>
    </g>
    <g id="line2d_20">
     <path d="M 53.57125 71.79475 
L 62.37125 71.79475 
L 71.17125 71.79475 
" style="fill: none; stroke-dasharray: 7.68,1.92,1.2,1.92; stroke-dashoffset: 0; stroke: #bf00bf; stroke-width: 1.2"/>
    </g>
    <g id="text_21">
     <!-- True function -->
     <g style="fill: #262626" transform="translate(78.21125 74.87475) scale(0.088 -0.088)">
      <defs>
       <path id="ArialMT-54" d="M 1659 0 
L 1659 4041 
L 150 4041 
L 150 4581 
L 3781 4581 
L 3781 4041 
L 2266 4041 
L 2266 0 
L 1659 0 
z
" transform="scale(0.015625)"/>
       <path id="ArialMT-75" d="M 2597 0 
L 2597 488 
Q 2209 -75 1544 -75 
Q 1250 -75 995 37 
Q 741 150 617 320 
Q 494 491 444 738 
Q 409 903 409 1263 
L 409 3319 
L 972 3319 
L 972 1478 
Q 972 1038 1006 884 
Q 1059 663 1231 536 
Q 1403 409 1656 409 
Q 1909 409 2131 539 
Q 2353 669 2445 892 
Q 2538 1116 2538 1541 
L 2538 3319 
L 3100 3319 
L 3100 0 
L 2597 0 
z
" transform="scale(0.015625)"/>
       <path id="ArialMT-66" d="M 556 0 
L 556 2881 
L 59 2881 
L 59 3319 
L 556 3319 
L 556 3672 
Q 556 4006 616 4169 
Q 697 4388 901 4523 
Q 1106 4659 1475 4659 
Q 1713 4659 2000 4603 
L 1916 4113 
Q 1741 4144 1584 4144 
Q 1328 4144 1222 4034 
Q 1116 3925 1116 3625 
L 1116 3319 
L 1763 3319 
L 1763 2881 
L 1116 2881 
L 1116 0 
L 556 0 
z
" transform="scale(0.015625)"/>
       <path id="ArialMT-63" d="M 2588 1216 
L 3141 1144 
Q 3050 572 2676 248 
Q 2303 -75 1759 -75 
Q 1078 -75 664 370 
Q 250 816 250 1647 
Q 250 2184 428 2587 
Q 606 2991 970 3192 
Q 1334 3394 1763 3394 
Q 2303 3394 2647 3120 
Q 2991 2847 3088 2344 
L 2541 2259 
Q 2463 2594 2264 2762 
Q 2066 2931 1784 2931 
Q 1359 2931 1093 2626 
Q 828 2322 828 1663 
Q 828 994 1084 691 
Q 1341 388 1753 388 
Q 2084 388 2306 591 
Q 2528 794 2588 1216 
z
" transform="scale(0.015625)"/>
      </defs>
      <use xlink:href="#ArialMT-54"/>
      <use xlink:href="#ArialMT-72" x="57.333984"/>
      <use xlink:href="#ArialMT-75" x="90.634766"/>
      <use xlink:href="#ArialMT-65" x="146.25"/>
      <use xlink:href="#ArialMT-20" x="201.865234"/>
      <use xlink:href="#ArialMT-66" x="229.648438"/>
      <use xlink:href="#ArialMT-75" x="257.431641"/>
      <use xlink:href="#ArialMT-6e" x="313.046875"/>
      <use xlink:href="#ArialMT-63" x="368.662109"/>
      <use xlink:href="#ArialMT-74" x="418.662109"/>
      <use xlink:href="#ArialMT-69" x="446.445312"/>
      <use xlink:href="#ArialMT-6f" x="468.662109"/>
      <use xlink:href="#ArialMT-6e" x="524.277344"/>
     </g>
    </g>
   </g>
  </g>
 </g>
 <defs>
  <clipPath id="pbdb5926a54">
   <rect x="45.65125" y="7.2" width="357.12" height="266.112"/>
  </clipPath>
 </defs>
</svg>