<?xml version="1.0" encoding="utf-8" standalone="no"?>
<!DOCTYPE svg PUBLIC "-//W3C//DTD SVG 1.1//EN"
  "http://www.w3.org/Graphics/SVG/1.1/DTD/svg11.dtd">
<svg xmlns:xlink="http://www.w3.org/1999/xlink" width="410.257625pt" height="310.171875pt" viewBox="0 0 410.257625 310.171875" xmlns="http://www.w3.org/2000/svg" version="1.1">
 <metadata>
  <rdf:RDF xmlns:dc="http://purl.org/dc/elements/1.1/" xmlns:cc="http://creativecommons.org/ns#" xmlns:rdf="http://www.w3.org/1999/02/22-rdf-syntax-ns#">
   <cc:Work>
    <dc:type rdf:resource="http://purl.org/dc/dcmitype/StillImage"/>
    <dc:date>2023-09-16T15:53:26.457348</dc:date>
    <dc:format>image/svg+xml</dc:format>
    <dc:creator>
     <cc:Agent>
      <dc:title>Matplotlib v3.7.1, https://matplotlib.org/</dc:title>
     </cc:Agent>
    </dc:creator>
   </cc:Work>
  </rdf:RDF>
 </metadata>
 <defs>
  <style type="text/css">*{stroke-linejoin: round; stroke-linecap: butt}</style>
 </defs>
 <g id="figure_1">
  <g id="patch_1">
   <path d="M 0 310.171875 
L 410.257625 310.171875 
L 410.257625 0 
L 0 0 
z
" style="fill: #ffffff"/>
  </g>
  <g id="axes_1">
   <g id="patch_2">
    <path d="M 45.937625 273.312 
L 403.057625 273.312 
L 403.057625 7.2 
L 45.937625 7.2 
z
" style="fill: #ffffff"/>
   </g>
   <g id="matplotlib.axis_1">
    <g id="xtick_1">
     <g id="line2d_1">
      <defs>
       <path id="macbd737377" d="M 0 0 
L 0 4.8 
" style="stroke: #262626"/>
      </defs>
      <g>
       <use xlink:href="#macbd737377" x="94.487793" y="273.312" style="fill: #262626; stroke: #262626"/>
      </g>
     </g>
     <g id="text_1">
      <!-- 4 -->
      <g style="fill: #262626" transform="translate(92.04098 287.910875) scale(0.088 -0.088)">
       <defs>
        <path id="ArialMT-34" d="M 2069 0 
L 2069 1097 
L 81 1097 
L 81 1613 
L 2172 4581 
L 2631 4581 
L 2631 1613 
L 3250 1613 
L 3250 1097 
L 2631 1097 
L 2631 0 
L 2069 0 
z
M 2069 1613 
L 2069 3678 
L 634 1613 
L 2069 1613 
z
" transform="scale(0.015625)"/>
       </defs>
       <use xlink:href="#ArialMT-34"/>
      </g>
     </g>
    </g>
    <g id="xtick_2">
     <g id="line2d_2">
      <g>
       <use xlink:href="#macbd737377" x="156.347369" y="273.312" style="fill: #262626; stroke: #262626"/>
      </g>
     </g>
     <g id="text_2">
      <!-- 6 -->
      <g style="fill: #262626" transform="translate(153.900557 287.910875) scale(0.088 -0.088)">
       <defs>
        <path id="ArialMT-36" d="M 3184 3459 
L 2625 3416 
Q 2550 3747 2413 3897 
Q 2184 4138 1850 4138 
Q 1581 4138 1378 3988 
Q 1113 3794 959 3422 
Q 806 3050 800 2363 
Q 1003 2672 1297 2822 
Q 1591 2972 1913 2972 
Q 2475 2972 2870 2558 
Q 3266 2144 3266 1488 
Q 3266 1056 3080 686 
Q 2894 316 2569 119 
Q 2244 -78 1831 -78 
Q 1128 -78 684 439 
Q 241 956 241 2144 
Q 241 3472 731 4075 
Q 1159 4600 1884 4600 
Q 2425 4600 2770 4297 
Q 3116 3994 3184 3459 
z
M 888 1484 
Q 888 1194 1011 928 
Q 1134 663 1356 523 
Q 1578 384 1822 384 
Q 2178 384 2434 671 
Q 2691 959 2691 1453 
Q 2691 1928 2437 2201 
Q 2184 2475 1800 2475 
Q 1419 2475 1153 2201 
Q 888 1928 888 1484 
z
" transform="scale(0.015625)"/>
       </defs>
       <use xlink:href="#ArialMT-36"/>
      </g>
     </g>
    </g>
    <g id="xtick_3">
     <g id="line2d_3">
      <g>
       <use xlink:href="#macbd737377" x="218.206945" y="273.312" style="fill: #262626; stroke: #262626"/>
      </g>
     </g>
     <g id="text_3">
      <!-- 8 -->
      <g style="fill: #262626" transform="translate(215.760133 287.910875) scale(0.088 -0.088)">
       <defs>
        <path id="ArialMT-38" d="M 1131 2484 
Q 781 2613 612 2850 
Q 444 3088 444 3419 
Q 444 3919 803 4259 
Q 1163 4600 1759 4600 
Q 2359 4600 2725 4251 
Q 3091 3903 3091 3403 
Q 3091 3084 2923 2848 
Q 2756 2613 2416 2484 
Q 2838 2347 3058 2040 
Q 3278 1734 3278 1309 
Q 3278 722 2862 322 
Q 2447 -78 1769 -78 
Q 1091 -78 675 323 
Q 259 725 259 1325 
Q 259 1772 486 2073 
Q 713 2375 1131 2484 
z
M 1019 3438 
Q 1019 3113 1228 2906 
Q 1438 2700 1772 2700 
Q 2097 2700 2305 2904 
Q 2513 3109 2513 3406 
Q 2513 3716 2298 3927 
Q 2084 4138 1766 4138 
Q 1444 4138 1231 3931 
Q 1019 3725 1019 3438 
z
M 838 1322 
Q 838 1081 952 856 
Q 1066 631 1291 507 
Q 1516 384 1775 384 
Q 2178 384 2440 643 
Q 2703 903 2703 1303 
Q 2703 1709 2433 1975 
Q 2163 2241 1756 2241 
Q 1359 2241 1098 1978 
Q 838 1716 838 1322 
z
" transform="scale(0.015625)"/>
       </defs>
       <use xlink:href="#ArialMT-38"/>
      </g>
     </g>
    </g>
    <g id="xtick_4">
     <g id="line2d_4">
      <g>
       <use xlink:href="#macbd737377" x="280.066522" y="273.312" style="fill: #262626; stroke: #262626"/>
      </g>
     </g>
     <g id="text_4">
      <!-- 10 -->
      <g style="fill: #262626" transform="translate(275.172897 287.910875) scale(0.088 -0.088)">
       <defs>
        <path id="ArialMT-31" d="M 2384 0 
L 1822 0 
L 1822 3584 
Q 1619 3391 1289 3197 
Q 959 3003 697 2906 
L 697 3450 
Q 1169 3672 1522 3987 
Q 1875 4303 2022 4600 
L 2384 4600 
L 2384 0 
z
" transform="scale(0.015625)"/>
        <path id="ArialMT-30" d="M 266 2259 
Q 266 3072 433 3567 
Q 600 4063 929 4331 
Q 1259 4600 1759 4600 
Q 2128 4600 2406 4451 
Q 2684 4303 2865 4023 
Q 3047 3744 3150 3342 
Q 3253 2941 3253 2259 
Q 3253 1453 3087 958 
Q 2922 463 2592 192 
Q 2263 -78 1759 -78 
Q 1097 -78 719 397 
Q 266 969 266 2259 
z
M 844 2259 
Q 844 1131 1108 757 
Q 1372 384 1759 384 
Q 2147 384 2411 759 
Q 2675 1134 2675 2259 
Q 2675 3391 2411 3762 
Q 2147 4134 1753 4134 
Q 1366 4134 1134 3806 
Q 844 3388 844 2259 
z
" transform="scale(0.015625)"/>
       </defs>
       <use xlink:href="#ArialMT-31"/>
       <use xlink:href="#ArialMT-30" x="55.615234"/>
      </g>
     </g>
    </g>
    <g id="xtick_5">
     <g id="line2d_5">
      <g>
       <use xlink:href="#macbd737377" x="341.926098" y="273.312" style="fill: #262626; stroke: #262626"/>
      </g>
     </g>
     <g id="text_5">
      <!-- 12 -->
      <g style="fill: #262626" transform="translate(337.032473 287.910875) scale(0.088 -0.088)">
       <defs>
        <path id="ArialMT-32" d="M 3222 541 
L 3222 0 
L 194 0 
Q 188 203 259 391 
Q 375 700 629 1000 
Q 884 1300 1366 1694 
Q 2113 2306 2375 2664 
Q 2638 3022 2638 3341 
Q 2638 3675 2398 3904 
Q 2159 4134 1775 4134 
Q 1369 4134 1125 3890 
Q 881 3647 878 3216 
L 300 3275 
Q 359 3922 746 4261 
Q 1134 4600 1788 4600 
Q 2447 4600 2831 4234 
Q 3216 3869 3216 3328 
Q 3216 3053 3103 2787 
Q 2991 2522 2730 2228 
Q 2469 1934 1863 1422 
Q 1356 997 1212 845 
Q 1069 694 975 541 
L 3222 541 
z
" transform="scale(0.015625)"/>
       </defs>
       <use xlink:href="#ArialMT-31"/>
       <use xlink:href="#ArialMT-32" x="55.615234"/>
      </g>
     </g>
    </g>
    <g id="text_6">
     <!-- $y(t=1)$ -->
     <g style="fill: #262626" transform="translate(207.073625 300.955875) scale(0.096 -0.096)">
      <defs>
       <path id="DejaVuSans-Oblique-79" d="M 1588 -325 
Q 1188 -997 936 -1164 
Q 684 -1331 294 -1331 
L -159 -1331 
L -63 -850 
L 269 -850 
Q 509 -850 678 -719 
Q 847 -588 1056 -206 
L 1234 128 
L 459 3500 
L 1069 3500 
L 1650 819 
L 3256 3500 
L 3859 3500 
L 1588 -325 
z
" transform="scale(0.015625)"/>
       <path id="DejaVuSans-28" d="M 1984 4856 
Q 1566 4138 1362 3434 
Q 1159 2731 1159 2009 
Q 1159 1288 1364 580 
Q 1569 -128 1984 -844 
L 1484 -844 
Q 1016 -109 783 600 
Q 550 1309 550 2009 
Q 550 2706 781 3412 
Q 1013 4119 1484 4856 
L 1984 4856 
z
" transform="scale(0.015625)"/>
       <path id="DejaVuSans-Oblique-74" d="M 2706 3500 
L 2619 3053 
L 1472 3053 
L 1100 1153 
Q 1081 1047 1072 975 
Q 1063 903 1063 863 
Q 1063 663 1183 572 
Q 1303 481 1569 481 
L 2150 481 
L 2053 0 
L 1503 0 
Q 991 0 739 200 
Q 488 400 488 806 
Q 488 878 497 964 
Q 506 1050 525 1153 
L 897 3053 
L 409 3053 
L 500 3500 
L 978 3500 
L 1172 4494 
L 1747 4494 
L 1556 3500 
L 2706 3500 
z
" transform="scale(0.015625)"/>
       <path id="DejaVuSans-3d" d="M 678 2906 
L 4684 2906 
L 4684 2381 
L 678 2381 
L 678 2906 
z
M 678 1631 
L 4684 1631 
L 4684 1100 
L 678 1100 
L 678 1631 
z
" transform="scale(0.015625)"/>
       <path id="DejaVuSans-31" d="M 794 531 
L 1825 531 
L 1825 4091 
L 703 3866 
L 703 4441 
L 1819 4666 
L 2450 4666 
L 2450 531 
L 3481 531 
L 3481 0 
L 794 0 
L 794 531 
z
" transform="scale(0.015625)"/>
       <path id="DejaVuSans-29" d="M 513 4856 
L 1013 4856 
Q 1481 4119 1714 3412 
Q 1947 2706 1947 2009 
Q 1947 1309 1714 600 
Q 1481 -109 1013 -844 
L 513 -844 
Q 928 -128 1133 580 
Q 1338 1288 1338 2009 
Q 1338 2731 1133 3434 
Q 928 4138 513 4856 
z
" transform="scale(0.015625)"/>
      </defs>
      <use xlink:href="#DejaVuSans-Oblique-79" transform="translate(0 0.125)"/>
      <use xlink:href="#DejaVuSans-28" transform="translate(59.179688 0.125)"/>
      <use xlink:href="#DejaVuSans-Oblique-74" transform="translate(98.193359 0.125)"/>
      <use xlink:href="#DejaVuSans-3d" transform="translate(156.884766 0.125)"/>
      <use xlink:href="#DejaVuSans-31" transform="translate(260.15625 0.125)"/>
      <use xlink:href="#DejaVuSans-29" transform="translate(323.779297 0.125)"/>
     </g>
    </g>
   </g>
   <g id="matplotlib.axis_2">
    <g id="ytick_1">
     <g id="line2d_6">
      <defs>
       <path id="m77cd33009b" d="M 0 0 
L -4.8 0 
" style="stroke: #262626"/>
      </defs>
      <g>
       <use xlink:href="#m77cd33009b" x="45.937625" y="273.312" style="fill: #262626; stroke: #262626"/>
      </g>
     </g>
     <g id="text_7">
      <!-- 0.00 -->
      <g style="fill: #262626" transform="translate(20.512 276.461437) scale(0.088 -0.088)">
       <defs>
        <path id="ArialMT-2e" d="M 581 0 
L 581 641 
L 1222 641 
L 1222 0 
L 581 0 
z
" transform="scale(0.015625)"/>
       </defs>
       <use xlink:href="#ArialMT-30"/>
       <use xlink:href="#ArialMT-2e" x="55.615234"/>
       <use xlink:href="#ArialMT-30" x="83.398438"/>
       <use xlink:href="#ArialMT-30" x="139.013672"/>
      </g>
     </g>
    </g>
    <g id="ytick_2">
     <g id="line2d_7">
      <g>
       <use xlink:href="#m77cd33009b" x="45.937625" y="238.492194" style="fill: #262626; stroke: #262626"/>
      </g>
     </g>
     <g id="text_8">
      <!-- 0.05 -->
      <g style="fill: #262626" transform="translate(20.512 241.641632) scale(0.088 -0.088)">
       <defs>
        <path id="ArialMT-35" d="M 266 1200 
L 856 1250 
Q 922 819 1161 601 
Q 1400 384 1738 384 
Q 2144 384 2425 690 
Q 2706 997 2706 1503 
Q 2706 1984 2436 2262 
Q 2166 2541 1728 2541 
Q 1456 2541 1237 2417 
Q 1019 2294 894 2097 
L 366 2166 
L 809 4519 
L 3088 4519 
L 3088 3981 
L 1259 3981 
L 1013 2750 
Q 1425 3038 1878 3038 
Q 2478 3038 2890 2622 
Q 3303 2206 3303 1553 
Q 3303 931 2941 478 
Q 2500 -78 1738 -78 
Q 1113 -78 717 272 
Q 322 622 266 1200 
z
" transform="scale(0.015625)"/>
       </defs>
       <use xlink:href="#ArialMT-30"/>
       <use xlink:href="#ArialMT-2e" x="55.615234"/>
       <use xlink:href="#ArialMT-30" x="83.398438"/>
       <use xlink:href="#ArialMT-35" x="139.013672"/>
      </g>
     </g>
    </g>
    <g id="ytick_3">
     <g id="line2d_8">
      <g>
       <use xlink:href="#m77cd33009b" x="45.937625" y="203.672389" style="fill: #262626; stroke: #262626"/>
      </g>
     </g>
     <g id="text_9">
      <!-- 0.10 -->
      <g style="fill: #262626" transform="translate(20.512 206.821826) scale(0.088 -0.088)">
       <use xlink:href="#ArialMT-30"/>
       <use xlink:href="#ArialMT-2e" x="55.615234"/>
       <use xlink:href="#ArialMT-31" x="83.398438"/>
       <use xlink:href="#ArialMT-30" x="139.013672"/>
      </g>
     </g>
    </g>
    <g id="ytick_4">
     <g id="line2d_9">
      <g>
       <use xlink:href="#m77cd33009b" x="45.937625" y="168.852583" style="fill: #262626; stroke: #262626"/>
      </g>
     </g>
     <g id="text_10">
      <!-- 0.15 -->
      <g style="fill: #262626" transform="translate(20.512 172.00202) scale(0.088 -0.088)">
       <use xlink:href="#ArialMT-30"/>
       <use xlink:href="#ArialMT-2e" x="55.615234"/>
       <use xlink:href="#ArialMT-31" x="83.398438"/>
       <use xlink:href="#ArialMT-35" x="139.013672"/>
      </g>
     </g>
    </g>
    <g id="ytick_5">
     <g id="line2d_10">
      <g>
       <use xlink:href="#m77cd33009b" x="45.937625" y="134.032777" style="fill: #262626; stroke: #262626"/>
      </g>
     </g>
     <g id="text_11">
      <!-- 0.20 -->
      <g style="fill: #262626" transform="translate(20.512 137.182215) scale(0.088 -0.088)">
       <use xlink:href="#ArialMT-30"/>
       <use xlink:href="#ArialMT-2e" x="55.615234"/>
       <use xlink:href="#ArialMT-32" x="83.398438"/>
       <use xlink:href="#ArialMT-30" x="139.013672"/>
      </g>
     </g>
    </g>
    <g id="ytick_6">
     <g id="line2d_11">
      <g>
       <use xlink:href="#m77cd33009b" x="45.937625" y="99.212971" style="fill: #262626; stroke: #262626"/>
      </g>
     </g>
     <g id="text_12">
      <!-- 0.25 -->
      <g style="fill: #262626" transform="translate(20.512 102.362409) scale(0.088 -0.088)">
       <use xlink:href="#ArialMT-30"/>
       <use xlink:href="#ArialMT-2e" x="55.615234"/>
       <use xlink:href="#ArialMT-32" x="83.398438"/>
       <use xlink:href="#ArialMT-35" x="139.013672"/>
      </g>
     </g>
    </g>
    <g id="ytick_7">
     <g id="line2d_12">
      <g>
       <use xlink:href="#m77cd33009b" x="45.937625" y="64.393166" style="fill: #262626; stroke: #262626"/>
      </g>
     </g>
     <g id="text_13">
      <!-- 0.30 -->
      <g style="fill: #262626" transform="translate(20.512 67.542603) scale(0.088 -0.088)">
       <defs>
        <path id="ArialMT-33" d="M 269 1209 
L 831 1284 
Q 928 806 1161 595 
Q 1394 384 1728 384 
Q 2125 384 2398 659 
Q 2672 934 2672 1341 
Q 2672 1728 2419 1979 
Q 2166 2231 1775 2231 
Q 1616 2231 1378 2169 
L 1441 2663 
Q 1497 2656 1531 2656 
Q 1891 2656 2178 2843 
Q 2466 3031 2466 3422 
Q 2466 3731 2256 3934 
Q 2047 4138 1716 4138 
Q 1388 4138 1169 3931 
Q 950 3725 888 3313 
L 325 3413 
Q 428 3978 793 4289 
Q 1159 4600 1703 4600 
Q 2078 4600 2393 4439 
Q 2709 4278 2876 4000 
Q 3044 3722 3044 3409 
Q 3044 3113 2884 2869 
Q 2725 2625 2413 2481 
Q 2819 2388 3044 2092 
Q 3269 1797 3269 1353 
Q 3269 753 2831 336 
Q 2394 -81 1725 -81 
Q 1122 -81 723 278 
Q 325 638 269 1209 
z
" transform="scale(0.015625)"/>
       </defs>
       <use xlink:href="#ArialMT-30"/>
       <use xlink:href="#ArialMT-2e" x="55.615234"/>
       <use xlink:href="#ArialMT-33" x="83.398438"/>
       <use xlink:href="#ArialMT-30" x="139.013672"/>
      </g>
     </g>
    </g>
    <g id="ytick_8">
     <g id="line2d_13">
      <g>
       <use xlink:href="#m77cd33009b" x="45.937625" y="29.57336" style="fill: #262626; stroke: #262626"/>
      </g>
     </g>
     <g id="text_14">
      <!-- 0.35 -->
      <g style="fill: #262626" transform="translate(20.512 32.722797) scale(0.088 -0.088)">
       <use xlink:href="#ArialMT-30"/>
       <use xlink:href="#ArialMT-2e" x="55.615234"/>
       <use xlink:href="#ArialMT-33" x="83.398438"/>
       <use xlink:href="#ArialMT-35" x="139.013672"/>
      </g>
     </g>
    </g>
    <g id="text_15">
     <!-- $p(y(t=1))$ -->
     <g style="fill: #262626" transform="translate(14.496 164.496) rotate(-90) scale(0.096 -0.096)">
      <defs>
       <path id="DejaVuSans-Oblique-70" d="M 3175 2156 
Q 3175 2616 2975 2859 
Q 2775 3103 2400 3103 
Q 2144 3103 1911 2972 
Q 1678 2841 1497 2591 
Q 1319 2344 1212 1994 
Q 1106 1644 1106 1300 
Q 1106 863 1306 627 
Q 1506 391 1875 391 
Q 2147 391 2380 519 
Q 2613 647 2778 891 
Q 2956 1147 3065 1494 
Q 3175 1841 3175 2156 
z
M 1394 2969 
Q 1625 3272 1939 3428 
Q 2253 3584 2638 3584 
Q 3175 3584 3472 3232 
Q 3769 2881 3769 2247 
Q 3769 1728 3584 1258 
Q 3400 788 3053 416 
Q 2822 169 2531 39 
Q 2241 -91 1919 -91 
Q 1547 -91 1294 64 
Q 1041 219 916 525 
L 556 -1331 
L -19 -1331 
L 922 3500 
L 1497 3500 
L 1394 2969 
z
" transform="scale(0.015625)"/>
      </defs>
      <use xlink:href="#DejaVuSans-Oblique-70" transform="translate(0 0.125)"/>
      <use xlink:href="#DejaVuSans-28" transform="translate(63.476562 0.125)"/>
      <use xlink:href="#DejaVuSans-Oblique-79" transform="translate(102.490234 0.125)"/>
      <use xlink:href="#DejaVuSans-28" transform="translate(161.669922 0.125)"/>
      <use xlink:href="#DejaVuSans-Oblique-74" transform="translate(200.683594 0.125)"/>
      <use xlink:href="#DejaVuSans-3d" transform="translate(259.375 0.125)"/>
      <use xlink:href="#DejaVuSans-31" transform="translate(362.646484 0.125)"/>
      <use xlink:href="#DejaVuSans-29" transform="translate(426.269531 0.125)"/>
      <use xlink:href="#DejaVuSans-29" transform="translate(465.283203 0.125)"/>
     </g>
    </g>
   </g>
   <g id="patch_3">
    <path d="M 62.170352 273.312 
L 65.416898 273.312 
L 65.416898 272.648545 
L 62.170352 272.648545 
z
" clip-path="url(#pe131ecbf55)" style="fill: #1f77b4; opacity: 0.25; stroke: #ffffff; stroke-width: 0.8; stroke-linejoin: miter"/>
   </g>
   <g id="patch_4">
    <path d="M 65.416898 273.312 
L 68.663443 273.312 
L 68.663443 273.312 
L 65.416898 273.312 
z
" clip-path="url(#pe131ecbf55)" style="fill: #1f77b4; opacity: 0.25; stroke: #ffffff; stroke-width: 0.8; stroke-linejoin: miter"/>
   </g>
   <g id="patch_5">
    <path d="M 68.663443 273.312 
L 71.909989 273.312 
L 71.909989 273.312 
L 68.663443 273.312 
z
" clip-path="url(#pe131ecbf55)" style="fill: #1f77b4; opacity: 0.25; stroke: #ffffff; stroke-width: 0.8; stroke-linejoin: miter"/>
   </g>
   <g id="patch_6">
    <path d="M 71.909989 273.312 
L 75.156534 273.312 
L 75.156534 273.312 
L 71.909989 273.312 
z
" clip-path="url(#pe131ecbf55)" style="fill: #1f77b4; opacity: 0.25; stroke: #ffffff; stroke-width: 0.8; stroke-linejoin: miter"/>
   </g>
   <g id="patch_7">
    <path d="M 75.156534 273.312 
L 78.40308 273.312 
L 78.40308 273.312 
L 75.156534 273.312 
z
" clip-path="url(#pe131ecbf55)" style="fill: #1f77b4; opacity: 0.25; stroke: #ffffff; stroke-width: 0.8; stroke-linejoin: miter"/>
   </g>
   <g id="patch_8">
    <path d="M 78.40308 273.312 
L 81.649625 273.312 
L 81.649625 273.312 
L 78.40308 273.312 
z
" clip-path="url(#pe131ecbf55)" style="fill: #1f77b4; opacity: 0.25; stroke: #ffffff; stroke-width: 0.8; stroke-linejoin: miter"/>
   </g>
   <g id="patch_9">
    <path d="M 81.649625 273.312 
L 84.89617 273.312 
L 84.89617 272.648545 
L 81.649625 272.648545 
z
" clip-path="url(#pe131ecbf55)" style="fill: #1f77b4; opacity: 0.25; stroke: #ffffff; stroke-width: 0.8; stroke-linejoin: miter"/>
   </g>
   <g id="patch_10">
    <path d="M 84.89617 273.312 
L 88.142716 273.312 
L 88.142716 272.648545 
L 84.89617 272.648545 
z
" clip-path="url(#pe131ecbf55)" style="fill: #1f77b4; opacity: 0.25; stroke: #ffffff; stroke-width: 0.8; stroke-linejoin: miter"/>
   </g>
   <g id="patch_11">
    <path d="M 88.142716 273.312 
L 91.389261 273.312 
L 91.389261 273.312 
L 88.142716 273.312 
z
" clip-path="url(#pe131ecbf55)" style="fill: #1f77b4; opacity: 0.25; stroke: #ffffff; stroke-width: 0.8; stroke-linejoin: miter"/>
   </g>
   <g id="patch_12">
    <path d="M 91.389261 273.312 
L 94.635807 273.312 
L 94.635807 273.312 
L 91.389261 273.312 
z
" clip-path="url(#pe131ecbf55)" style="fill: #1f77b4; opacity: 0.25; stroke: #ffffff; stroke-width: 0.8; stroke-linejoin: miter"/>
   </g>
   <g id="patch_13">
    <path d="M 94.635807 273.312 
L 97.882352 273.312 
L 97.882352 272.648545 
L 94.635807 272.648545 
z
" clip-path="url(#pe131ecbf55)" style="fill: #1f77b4; opacity: 0.25; stroke: #ffffff; stroke-width: 0.8; stroke-linejoin: miter"/>
   </g>
   <g id="patch_14">
    <path d="M 97.882352 273.312 
L 101.128898 273.312 
L 101.128898 273.312 
L 97.882352 273.312 
z
" clip-path="url(#pe131ecbf55)" style="fill: #1f77b4; opacity: 0.25; stroke: #ffffff; stroke-width: 0.8; stroke-linejoin: miter"/>
   </g>
   <g id="patch_15">
    <path d="M 101.128898 273.312 
L 104.375443 273.312 
L 104.375443 271.321634 
L 101.128898 271.321634 
z
" clip-path="url(#pe131ecbf55)" style="fill: #1f77b4; opacity: 0.25; stroke: #ffffff; stroke-width: 0.8; stroke-linejoin: miter"/>
   </g>
   <g id="patch_16">
    <path d="M 104.375443 273.312 
L 107.621989 273.312 
L 107.621989 273.312 
L 104.375443 273.312 
z
" clip-path="url(#pe131ecbf55)" style="fill: #1f77b4; opacity: 0.25; stroke: #ffffff; stroke-width: 0.8; stroke-linejoin: miter"/>
   </g>
   <g id="patch_17">
    <path d="M 107.621989 273.312 
L 110.868534 273.312 
L 110.868534 273.312 
L 107.621989 273.312 
z
" clip-path="url(#pe131ecbf55)" style="fill: #1f77b4; opacity: 0.25; stroke: #ffffff; stroke-width: 0.8; stroke-linejoin: miter"/>
   </g>
   <g id="patch_18">
    <path d="M 110.868534 273.312 
L 114.11508 273.312 
L 114.11508 271.985089 
L 110.868534 271.985089 
z
" clip-path="url(#pe131ecbf55)" style="fill: #1f77b4; opacity: 0.25; stroke: #ffffff; stroke-width: 0.8; stroke-linejoin: miter"/>
   </g>
   <g id="patch_19">
    <path d="M 114.11508 273.312 
L 117.361625 273.312 
L 117.361625 269.331267 
L 114.11508 269.331267 
z
" clip-path="url(#pe131ecbf55)" style="fill: #1f77b4; opacity: 0.25; stroke: #ffffff; stroke-width: 0.8; stroke-linejoin: miter"/>
   </g>
   <g id="patch_20">
    <path d="M 117.361625 273.312 
L 120.60817 273.312 
L 120.60817 269.994723 
L 117.361625 269.994723 
z
" clip-path="url(#pe131ecbf55)" style="fill: #1f77b4; opacity: 0.25; stroke: #ffffff; stroke-width: 0.8; stroke-linejoin: miter"/>
   </g>
   <g id="patch_21">
    <path d="M 120.60817 273.312 
L 123.854716 273.312 
L 123.854716 268.667812 
L 120.60817 268.667812 
z
" clip-path="url(#pe131ecbf55)" style="fill: #1f77b4; opacity: 0.25; stroke: #ffffff; stroke-width: 0.8; stroke-linejoin: miter"/>
   </g>
   <g id="patch_22">
    <path d="M 123.854716 273.312 
L 127.101261 273.312 
L 127.101261 270.658178 
L 123.854716 270.658178 
z
" clip-path="url(#pe131ecbf55)" style="fill: #1f77b4; opacity: 0.25; stroke: #ffffff; stroke-width: 0.8; stroke-linejoin: miter"/>
   </g>
   <g id="patch_23">
    <path d="M 127.101261 273.312 
L 130.347807 273.312 
L 130.347807 268.667812 
L 127.101261 268.667812 
z
" clip-path="url(#pe131ecbf55)" style="fill: #1f77b4; opacity: 0.25; stroke: #ffffff; stroke-width: 0.8; stroke-linejoin: miter"/>
   </g>
   <g id="patch_24">
    <path d="M 130.347807 273.312 
L 133.594352 273.312 
L 133.594352 267.340901 
L 130.347807 267.340901 
z
" clip-path="url(#pe131ecbf55)" style="fill: #1f77b4; opacity: 0.25; stroke: #ffffff; stroke-width: 0.8; stroke-linejoin: miter"/>
   </g>
   <g id="patch_25">
    <path d="M 133.594352 273.312 
L 136.840898 273.312 
L 136.840898 263.360168 
L 133.594352 263.360168 
z
" clip-path="url(#pe131ecbf55)" style="fill: #1f77b4; opacity: 0.25; stroke: #ffffff; stroke-width: 0.8; stroke-linejoin: miter"/>
   </g>
   <g id="patch_26">
    <path d="M 136.840898 273.312 
L 140.087443 273.312 
L 140.087443 261.369801 
L 136.840898 261.369801 
z
" clip-path="url(#pe131ecbf55)" style="fill: #1f77b4; opacity: 0.25; stroke: #ffffff; stroke-width: 0.8; stroke-linejoin: miter"/>
   </g>
   <g id="patch_27">
    <path d="M 140.087443 273.312 
L 143.333989 273.312 
L 143.333989 266.01399 
L 140.087443 266.01399 
z
" clip-path="url(#pe131ecbf55)" style="fill: #1f77b4; opacity: 0.25; stroke: #ffffff; stroke-width: 0.8; stroke-linejoin: miter"/>
   </g>
   <g id="patch_28">
    <path d="M 143.333989 273.312 
L 146.580534 273.312 
L 146.580534 261.369801 
L 143.333989 261.369801 
z
" clip-path="url(#pe131ecbf55)" style="fill: #1f77b4; opacity: 0.25; stroke: #ffffff; stroke-width: 0.8; stroke-linejoin: miter"/>
   </g>
   <g id="patch_29">
    <path d="M 146.580534 273.312 
L 149.82708 273.312 
L 149.82708 260.04289 
L 146.580534 260.04289 
z
" clip-path="url(#pe131ecbf55)" style="fill: #1f77b4; opacity: 0.25; stroke: #ffffff; stroke-width: 0.8; stroke-linejoin: miter"/>
   </g>
   <g id="patch_30">
    <path d="M 149.82708 273.312 
L 153.073625 273.312 
L 153.073625 256.062157 
L 149.82708 256.062157 
z
" clip-path="url(#pe131ecbf55)" style="fill: #1f77b4; opacity: 0.25; stroke: #ffffff; stroke-width: 0.8; stroke-linejoin: miter"/>
   </g>
   <g id="patch_31">
    <path d="M 153.073625 273.312 
L 156.32017 273.312 
L 156.32017 254.071791 
L 153.073625 254.071791 
z
" clip-path="url(#pe131ecbf55)" style="fill: #1f77b4; opacity: 0.25; stroke: #ffffff; stroke-width: 0.8; stroke-linejoin: miter"/>
   </g>
   <g id="patch_32">
    <path d="M 156.32017 273.312 
L 159.566716 273.312 
L 159.566716 248.100691 
L 156.32017 248.100691 
z
" clip-path="url(#pe131ecbf55)" style="fill: #1f77b4; opacity: 0.25; stroke: #ffffff; stroke-width: 0.8; stroke-linejoin: miter"/>
   </g>
   <g id="patch_33">
    <path d="M 159.566716 273.312 
L 162.813261 273.312 
L 162.813261 246.110325 
L 159.566716 246.110325 
z
" clip-path="url(#pe131ecbf55)" style="fill: #1f77b4; opacity: 0.25; stroke: #ffffff; stroke-width: 0.8; stroke-linejoin: miter"/>
   </g>
   <g id="patch_34">
    <path d="M 162.813261 273.312 
L 166.059807 273.312 
L 166.059807 239.47577 
L 162.813261 239.47577 
z
" clip-path="url(#pe131ecbf55)" style="fill: #1f77b4; opacity: 0.25; stroke: #ffffff; stroke-width: 0.8; stroke-linejoin: miter"/>
   </g>
   <g id="patch_35">
    <path d="M 166.059807 273.312 
L 169.306352 273.312 
L 169.306352 235.495037 
L 166.059807 235.495037 
z
" clip-path="url(#pe131ecbf55)" style="fill: #1f77b4; opacity: 0.25; stroke: #ffffff; stroke-width: 0.8; stroke-linejoin: miter"/>
   </g>
   <g id="patch_36">
    <path d="M 169.306352 273.312 
L 172.552898 273.312 
L 172.552898 234.168126 
L 169.306352 234.168126 
z
" clip-path="url(#pe131ecbf55)" style="fill: #1f77b4; opacity: 0.25; stroke: #ffffff; stroke-width: 0.8; stroke-linejoin: miter"/>
   </g>
   <g id="patch_37">
    <path d="M 172.552898 273.312 
L 175.799443 273.312 
L 175.799443 221.562471 
L 172.552898 221.562471 
z
" clip-path="url(#pe131ecbf55)" style="fill: #1f77b4; opacity: 0.25; stroke: #ffffff; stroke-width: 0.8; stroke-linejoin: miter"/>
   </g>
   <g id="patch_38">
    <path d="M 175.799443 273.312 
L 179.045989 273.312 
L 179.045989 220.23556 
L 175.799443 220.23556 
z
" clip-path="url(#pe131ecbf55)" style="fill: #1f77b4; opacity: 0.25; stroke: #ffffff; stroke-width: 0.8; stroke-linejoin: miter"/>
   </g>
   <g id="patch_39">
    <path d="M 179.045989 273.312 
L 182.292534 273.312 
L 182.292534 217.581738 
L 179.045989 217.581738 
z
" clip-path="url(#pe131ecbf55)" style="fill: #1f77b4; opacity: 0.25; stroke: #ffffff; stroke-width: 0.8; stroke-linejoin: miter"/>
   </g>
   <g id="patch_40">
    <path d="M 182.292534 273.312 
L 185.53908 273.312 
L 185.53908 200.995351 
L 182.292534 200.995351 
z
" clip-path="url(#pe131ecbf55)" style="fill: #1f77b4; opacity: 0.25; stroke: #ffffff; stroke-width: 0.8; stroke-linejoin: miter"/>
   </g>
   <g id="patch_41">
    <path d="M 185.53908 273.312 
L 188.785625 273.312 
L 188.785625 191.043518 
L 185.53908 191.043518 
z
" clip-path="url(#pe131ecbf55)" style="fill: #1f77b4; opacity: 0.25; stroke: #ffffff; stroke-width: 0.8; stroke-linejoin: miter"/>
   </g>
   <g id="patch_42">
    <path d="M 188.785625 273.312 
L 192.03217 273.312 
L 192.03217 192.370429 
L 188.785625 192.370429 
z
" clip-path="url(#pe131ecbf55)" style="fill: #1f77b4; opacity: 0.25; stroke: #ffffff; stroke-width: 0.8; stroke-linejoin: miter"/>
   </g>
   <g id="patch_43">
    <path d="M 192.03217 273.312 
L 195.278716 273.312 
L 195.278716 173.793675 
L 192.03217 173.793675 
z
" clip-path="url(#pe131ecbf55)" style="fill: #1f77b4; opacity: 0.25; stroke: #ffffff; stroke-width: 0.8; stroke-linejoin: miter"/>
   </g>
   <g id="patch_44">
    <path d="M 195.278716 273.312 
L 198.525261 273.312 
L 198.525261 161.851476 
L 195.278716 161.851476 
z
" clip-path="url(#pe131ecbf55)" style="fill: #1f77b4; opacity: 0.25; stroke: #ffffff; stroke-width: 0.8; stroke-linejoin: miter"/>
   </g>
   <g id="patch_45">
    <path d="M 198.525261 273.312 
L 201.771807 273.312 
L 201.771807 135.976712 
L 198.525261 135.976712 
z
" clip-path="url(#pe131ecbf55)" style="fill: #1f77b4; opacity: 0.25; stroke: #ffffff; stroke-width: 0.8; stroke-linejoin: miter"/>
   </g>
   <g id="patch_46">
    <path d="M 201.771807 273.312 
L 205.018352 273.312 
L 205.018352 135.313257 
L 201.771807 135.313257 
z
" clip-path="url(#pe131ecbf55)" style="fill: #1f77b4; opacity: 0.25; stroke: #ffffff; stroke-width: 0.8; stroke-linejoin: miter"/>
   </g>
   <g id="patch_47">
    <path d="M 205.018352 273.312 
L 208.264898 273.312 
L 208.264898 108.111581 
L 205.018352 108.111581 
z
" clip-path="url(#pe131ecbf55)" style="fill: #1f77b4; opacity: 0.25; stroke: #ffffff; stroke-width: 0.8; stroke-linejoin: miter"/>
   </g>
   <g id="patch_48">
    <path d="M 208.264898 273.312 
L 211.511443 273.312 
L 211.511443 109.438492 
L 208.264898 109.438492 
z
" clip-path="url(#pe131ecbf55)" style="fill: #1f77b4; opacity: 0.25; stroke: #ffffff; stroke-width: 0.8; stroke-linejoin: miter"/>
   </g>
   <g id="patch_49">
    <path d="M 211.511443 273.312 
L 214.757989 273.312 
L 214.757989 101.477026 
L 211.511443 101.477026 
z
" clip-path="url(#pe131ecbf55)" style="fill: #1f77b4; opacity: 0.25; stroke: #ffffff; stroke-width: 0.8; stroke-linejoin: miter"/>
   </g>
   <g id="patch_50">
    <path d="M 214.757989 273.312 
L 218.004534 273.312 
L 218.004534 84.890639 
L 214.757989 84.890639 
z
" clip-path="url(#pe131ecbf55)" style="fill: #1f77b4; opacity: 0.25; stroke: #ffffff; stroke-width: 0.8; stroke-linejoin: miter"/>
   </g>
   <g id="patch_51">
    <path d="M 218.004534 273.312 
L 221.25108 273.312 
L 221.25108 82.236817 
L 218.004534 82.236817 
z
" clip-path="url(#pe131ecbf55)" style="fill: #1f77b4; opacity: 0.25; stroke: #ffffff; stroke-width: 0.8; stroke-linejoin: miter"/>
   </g>
   <g id="patch_52">
    <path d="M 221.25108 273.312 
L 224.497625 273.312 
L 224.497625 66.97734 
L 221.25108 66.97734 
z
" clip-path="url(#pe131ecbf55)" style="fill: #1f77b4; opacity: 0.25; stroke: #ffffff; stroke-width: 0.8; stroke-linejoin: miter"/>
   </g>
   <g id="patch_53">
    <path d="M 224.497625 273.312 
L 227.74417 273.312 
L 227.74417 31.150743 
L 224.497625 31.150743 
z
" clip-path="url(#pe131ecbf55)" style="fill: #1f77b4; opacity: 0.25; stroke: #ffffff; stroke-width: 0.8; stroke-linejoin: miter"/>
   </g>
   <g id="patch_54">
    <path d="M 227.74417 273.312 
L 230.990716 273.312 
L 230.990716 66.313885 
L 227.74417 66.313885 
z
" clip-path="url(#pe131ecbf55)" style="fill: #1f77b4; opacity: 0.25; stroke: #ffffff; stroke-width: 0.8; stroke-linejoin: miter"/>
   </g>
   <g id="patch_55">
    <path d="M 230.990716 273.312 
L 234.237261 273.312 
L 234.237261 36.458387 
L 230.990716 36.458387 
z
" clip-path="url(#pe131ecbf55)" style="fill: #1f77b4; opacity: 0.25; stroke: #ffffff; stroke-width: 0.8; stroke-linejoin: miter"/>
   </g>
   <g id="patch_56">
    <path d="M 234.237261 273.312 
L 237.483807 273.312 
L 237.483807 35.794932 
L 234.237261 35.794932 
z
" clip-path="url(#pe131ecbf55)" style="fill: #1f77b4; opacity: 0.25; stroke: #ffffff; stroke-width: 0.8; stroke-linejoin: miter"/>
   </g>
   <g id="patch_57">
    <path d="M 237.483807 273.312 
L 240.730352 273.312 
L 240.730352 31.150743 
L 237.483807 31.150743 
z
" clip-path="url(#pe131ecbf55)" style="fill: #1f77b4; opacity: 0.25; stroke: #ffffff; stroke-width: 0.8; stroke-linejoin: miter"/>
   </g>
   <g id="patch_58">
    <path d="M 240.730352 273.312 
L 243.976898 273.312 
L 243.976898 35.794932 
L 240.730352 35.794932 
z
" clip-path="url(#pe131ecbf55)" style="fill: #1f77b4; opacity: 0.25; stroke: #ffffff; stroke-width: 0.8; stroke-linejoin: miter"/>
   </g>
   <g id="patch_59">
    <path d="M 243.976898 273.312 
L 247.223443 273.312 
L 247.223443 19.872 
L 243.976898 19.872 
z
" clip-path="url(#pe131ecbf55)" style="fill: #1f77b4; opacity: 0.25; stroke: #ffffff; stroke-width: 0.8; stroke-linejoin: miter"/>
   </g>
   <g id="patch_60">
    <path d="M 247.223443 273.312 
L 250.469989 273.312 
L 250.469989 47.737131 
L 247.223443 47.737131 
z
" clip-path="url(#pe131ecbf55)" style="fill: #1f77b4; opacity: 0.25; stroke: #ffffff; stroke-width: 0.8; stroke-linejoin: miter"/>
   </g>
   <g id="patch_61">
    <path d="M 250.469989 273.312 
L 253.716534 273.312 
L 253.716534 48.400586 
L 250.469989 48.400586 
z
" clip-path="url(#pe131ecbf55)" style="fill: #1f77b4; opacity: 0.25; stroke: #ffffff; stroke-width: 0.8; stroke-linejoin: miter"/>
   </g>
   <g id="patch_62">
    <path d="M 253.716534 273.312 
L 256.96308 273.312 
L 256.96308 58.352419 
L 253.716534 58.352419 
z
" clip-path="url(#pe131ecbf55)" style="fill: #1f77b4; opacity: 0.25; stroke: #ffffff; stroke-width: 0.8; stroke-linejoin: miter"/>
   </g>
   <g id="patch_63">
    <path d="M 256.96308 273.312 
L 260.209625 273.312 
L 260.209625 78.919539 
L 256.96308 78.919539 
z
" clip-path="url(#pe131ecbf55)" style="fill: #1f77b4; opacity: 0.25; stroke: #ffffff; stroke-width: 0.8; stroke-linejoin: miter"/>
   </g>
   <g id="patch_64">
    <path d="M 260.209625 273.312 
L 263.45617 273.312 
L 263.45617 69.631162 
L 260.209625 69.631162 
z
" clip-path="url(#pe131ecbf55)" style="fill: #1f77b4; opacity: 0.25; stroke: #ffffff; stroke-width: 0.8; stroke-linejoin: miter"/>
   </g>
   <g id="patch_65">
    <path d="M 263.45617 273.312 
L 266.702716 273.312 
L 266.702716 84.890639 
L 263.45617 84.890639 
z
" clip-path="url(#pe131ecbf55)" style="fill: #1f77b4; opacity: 0.25; stroke: #ffffff; stroke-width: 0.8; stroke-linejoin: miter"/>
   </g>
   <g id="patch_66">
    <path d="M 266.702716 273.312 
L 269.949261 273.312 
L 269.949261 106.121215 
L 266.702716 106.121215 
z
" clip-path="url(#pe131ecbf55)" style="fill: #1f77b4; opacity: 0.25; stroke: #ffffff; stroke-width: 0.8; stroke-linejoin: miter"/>
   </g>
   <g id="patch_67">
    <path d="M 269.949261 273.312 
L 273.195807 273.312 
L 273.195807 115.409592 
L 269.949261 115.409592 
z
" clip-path="url(#pe131ecbf55)" style="fill: #1f77b4; opacity: 0.25; stroke: #ffffff; stroke-width: 0.8; stroke-linejoin: miter"/>
   </g>
   <g id="patch_68">
    <path d="M 273.195807 273.312 
L 276.442352 273.312 
L 276.442352 117.399958 
L 273.195807 117.399958 
z
" clip-path="url(#pe131ecbf55)" style="fill: #1f77b4; opacity: 0.25; stroke: #ffffff; stroke-width: 0.8; stroke-linejoin: miter"/>
   </g>
   <g id="patch_69">
    <path d="M 276.442352 273.312 
L 279.688898 273.312 
L 279.688898 140.620901 
L 276.442352 140.620901 
z
" clip-path="url(#pe131ecbf55)" style="fill: #1f77b4; opacity: 0.25; stroke: #ffffff; stroke-width: 0.8; stroke-linejoin: miter"/>
   </g>
   <g id="patch_70">
    <path d="M 279.688898 273.312 
L 282.935443 273.312 
L 282.935443 160.524565 
L 279.688898 160.524565 
z
" clip-path="url(#pe131ecbf55)" style="fill: #1f77b4; opacity: 0.25; stroke: #ffffff; stroke-width: 0.8; stroke-linejoin: miter"/>
   </g>
   <g id="patch_71">
    <path d="M 282.935443 273.312 
L 286.181989 273.312 
L 286.181989 167.15912 
L 282.935443 167.15912 
z
" clip-path="url(#pe131ecbf55)" style="fill: #1f77b4; opacity: 0.25; stroke: #ffffff; stroke-width: 0.8; stroke-linejoin: miter"/>
   </g>
   <g id="patch_72">
    <path d="M 286.181989 273.312 
L 289.428534 273.312 
L 289.428534 183.745508 
L 286.181989 183.745508 
z
" clip-path="url(#pe131ecbf55)" style="fill: #1f77b4; opacity: 0.25; stroke: #ffffff; stroke-width: 0.8; stroke-linejoin: miter"/>
   </g>
   <g id="patch_73">
    <path d="M 289.428534 273.312 
L 292.67508 273.312 
L 292.67508 199.004984 
L 289.428534 199.004984 
z
" clip-path="url(#pe131ecbf55)" style="fill: #1f77b4; opacity: 0.25; stroke: #ffffff; stroke-width: 0.8; stroke-linejoin: miter"/>
   </g>
   <g id="patch_74">
    <path d="M 292.67508 273.312 
L 295.921625 273.312 
L 295.921625 192.370429 
L 292.67508 192.370429 
z
" clip-path="url(#pe131ecbf55)" style="fill: #1f77b4; opacity: 0.25; stroke: #ffffff; stroke-width: 0.8; stroke-linejoin: miter"/>
   </g>
   <g id="patch_75">
    <path d="M 295.921625 273.312 
L 299.16817 273.312 
L 299.16817 211.610639 
L 295.921625 211.610639 
z
" clip-path="url(#pe131ecbf55)" style="fill: #1f77b4; opacity: 0.25; stroke: #ffffff; stroke-width: 0.8; stroke-linejoin: miter"/>
   </g>
   <g id="patch_76">
    <path d="M 299.16817 273.312 
L 302.414716 273.312 
L 302.414716 214.264461 
L 299.16817 214.264461 
z
" clip-path="url(#pe131ecbf55)" style="fill: #1f77b4; opacity: 0.25; stroke: #ffffff; stroke-width: 0.8; stroke-linejoin: miter"/>
   </g>
   <g id="patch_77">
    <path d="M 302.414716 273.312 
L 305.661261 273.312 
L 305.661261 230.187393 
L 302.414716 230.187393 
z
" clip-path="url(#pe131ecbf55)" style="fill: #1f77b4; opacity: 0.25; stroke: #ffffff; stroke-width: 0.8; stroke-linejoin: miter"/>
   </g>
   <g id="patch_78">
    <path d="M 305.661261 273.312 
L 308.907807 273.312 
L 308.907807 228.197026 
L 305.661261 228.197026 
z
" clip-path="url(#pe131ecbf55)" style="fill: #1f77b4; opacity: 0.25; stroke: #ffffff; stroke-width: 0.8; stroke-linejoin: miter"/>
   </g>
   <g id="patch_79">
    <path d="M 308.907807 273.312 
L 312.154352 273.312 
L 312.154352 242.129592 
L 308.907807 242.129592 
z
" clip-path="url(#pe131ecbf55)" style="fill: #1f77b4; opacity: 0.25; stroke: #ffffff; stroke-width: 0.8; stroke-linejoin: miter"/>
   </g>
   <g id="patch_80">
    <path d="M 312.154352 273.312 
L 315.400898 273.312 
L 315.400898 239.47577 
L 312.154352 239.47577 
z
" clip-path="url(#pe131ecbf55)" style="fill: #1f77b4; opacity: 0.25; stroke: #ffffff; stroke-width: 0.8; stroke-linejoin: miter"/>
   </g>
   <g id="patch_81">
    <path d="M 315.400898 273.312 
L 318.647443 273.312 
L 318.647443 246.77378 
L 315.400898 246.77378 
z
" clip-path="url(#pe131ecbf55)" style="fill: #1f77b4; opacity: 0.25; stroke: #ffffff; stroke-width: 0.8; stroke-linejoin: miter"/>
   </g>
   <g id="patch_82">
    <path d="M 318.647443 273.312 
L 321.893989 273.312 
L 321.893989 253.408335 
L 318.647443 253.408335 
z
" clip-path="url(#pe131ecbf55)" style="fill: #1f77b4; opacity: 0.25; stroke: #ffffff; stroke-width: 0.8; stroke-linejoin: miter"/>
   </g>
   <g id="patch_83">
    <path d="M 321.893989 273.312 
L 325.140534 273.312 
L 325.140534 260.706346 
L 321.893989 260.706346 
z
" clip-path="url(#pe131ecbf55)" style="fill: #1f77b4; opacity: 0.25; stroke: #ffffff; stroke-width: 0.8; stroke-linejoin: miter"/>
   </g>
   <g id="patch_84">
    <path d="M 325.140534 273.312 
L 328.38708 273.312 
L 328.38708 259.379435 
L 325.140534 259.379435 
z
" clip-path="url(#pe131ecbf55)" style="fill: #1f77b4; opacity: 0.25; stroke: #ffffff; stroke-width: 0.8; stroke-linejoin: miter"/>
   </g>
   <g id="patch_85">
    <path d="M 328.38708 273.312 
L 331.633625 273.312 
L 331.633625 266.677445 
L 328.38708 266.677445 
z
" clip-path="url(#pe131ecbf55)" style="fill: #1f77b4; opacity: 0.25; stroke: #ffffff; stroke-width: 0.8; stroke-linejoin: miter"/>
   </g>
   <g id="patch_86">
    <path d="M 331.633625 273.312 
L 334.88017 273.312 
L 334.88017 264.687079 
L 331.633625 264.687079 
z
" clip-path="url(#pe131ecbf55)" style="fill: #1f77b4; opacity: 0.25; stroke: #ffffff; stroke-width: 0.8; stroke-linejoin: miter"/>
   </g>
   <g id="patch_87">
    <path d="M 334.88017 273.312 
L 338.126716 273.312 
L 338.126716 268.004356 
L 334.88017 268.004356 
z
" clip-path="url(#pe131ecbf55)" style="fill: #1f77b4; opacity: 0.25; stroke: #ffffff; stroke-width: 0.8; stroke-linejoin: miter"/>
   </g>
   <g id="patch_88">
    <path d="M 338.126716 273.312 
L 341.373261 273.312 
L 341.373261 268.004356 
L 338.126716 268.004356 
z
" clip-path="url(#pe131ecbf55)" style="fill: #1f77b4; opacity: 0.25; stroke: #ffffff; stroke-width: 0.8; stroke-linejoin: miter"/>
   </g>
   <g id="patch_89">
    <path d="M 341.373261 273.312 
L 344.619807 273.312 
L 344.619807 269.331267 
L 341.373261 269.331267 
z
" clip-path="url(#pe131ecbf55)" style="fill: #1f77b4; opacity: 0.25; stroke: #ffffff; stroke-width: 0.8; stroke-linejoin: miter"/>
   </g>
   <g id="patch_90">
    <path d="M 344.619807 273.312 
L 347.866352 273.312 
L 347.866352 267.340901 
L 344.619807 267.340901 
z
" clip-path="url(#pe131ecbf55)" style="fill: #1f77b4; opacity: 0.25; stroke: #ffffff; stroke-width: 0.8; stroke-linejoin: miter"/>
   </g>
   <g id="patch_91">
    <path d="M 347.866352 273.312 
L 351.112898 273.312 
L 351.112898 270.658178 
L 347.866352 270.658178 
z
" clip-path="url(#pe131ecbf55)" style="fill: #1f77b4; opacity: 0.25; stroke: #ffffff; stroke-width: 0.8; stroke-linejoin: miter"/>
   </g>
   <g id="patch_92">
    <path d="M 351.112898 273.312 
L 354.359443 273.312 
L 354.359443 271.985089 
L 351.112898 271.985089 
z
" clip-path="url(#pe131ecbf55)" style="fill: #1f77b4; opacity: 0.25; stroke: #ffffff; stroke-width: 0.8; stroke-linejoin: miter"/>
   </g>
   <g id="patch_93">
    <path d="M 354.359443 273.312 
L 357.605989 273.312 
L 357.605989 269.994723 
L 354.359443 269.994723 
z
" clip-path="url(#pe131ecbf55)" style="fill: #1f77b4; opacity: 0.25; stroke: #ffffff; stroke-width: 0.8; stroke-linejoin: miter"/>
   </g>
   <g id="patch_94">
    <path d="M 357.605989 273.312 
L 360.852534 273.312 
L 360.852534 271.321634 
L 357.605989 271.321634 
z
" clip-path="url(#pe131ecbf55)" style="fill: #1f77b4; opacity: 0.25; stroke: #ffffff; stroke-width: 0.8; stroke-linejoin: miter"/>
   </g>
   <g id="patch_95">
    <path d="M 360.852534 273.312 
L 364.09908 273.312 
L 364.09908 273.312 
L 360.852534 273.312 
z
" clip-path="url(#pe131ecbf55)" style="fill: #1f77b4; opacity: 0.25; stroke: #ffffff; stroke-width: 0.8; stroke-linejoin: miter"/>
   </g>
   <g id="patch_96">
    <path d="M 364.09908 273.312 
L 367.345625 273.312 
L 367.345625 272.648545 
L 364.09908 272.648545 
z
" clip-path="url(#pe131ecbf55)" style="fill: #1f77b4; opacity: 0.25; stroke: #ffffff; stroke-width: 0.8; stroke-linejoin: miter"/>
   </g>
   <g id="patch_97">
    <path d="M 367.345625 273.312 
L 370.59217 273.312 
L 370.59217 273.312 
L 367.345625 273.312 
z
" clip-path="url(#pe131ecbf55)" style="fill: #1f77b4; opacity: 0.25; stroke: #ffffff; stroke-width: 0.8; stroke-linejoin: miter"/>
   </g>
   <g id="patch_98">
    <path d="M 370.59217 273.312 
L 373.838716 273.312 
L 373.838716 273.312 
L 370.59217 273.312 
z
" clip-path="url(#pe131ecbf55)" style="fill: #1f77b4; opacity: 0.25; stroke: #ffffff; stroke-width: 0.8; stroke-linejoin: miter"/>
   </g>
   <g id="patch_99">
    <path d="M 373.838716 273.312 
L 377.085261 273.312 
L 377.085261 273.312 
L 373.838716 273.312 
z
" clip-path="url(#pe131ecbf55)" style="fill: #1f77b4; opacity: 0.25; stroke: #ffffff; stroke-width: 0.8; stroke-linejoin: miter"/>
   </g>
   <g id="patch_100">
    <path d="M 377.085261 273.312 
L 380.331807 273.312 
L 380.331807 273.312 
L 377.085261 273.312 
z
" clip-path="url(#pe131ecbf55)" style="fill: #1f77b4; opacity: 0.25; stroke: #ffffff; stroke-width: 0.8; stroke-linejoin: miter"/>
   </g>
   <g id="patch_101">
    <path d="M 380.331807 273.312 
L 383.578352 273.312 
L 383.578352 272.648545 
L 380.331807 272.648545 
z
" clip-path="url(#pe131ecbf55)" style="fill: #1f77b4; opacity: 0.25; stroke: #ffffff; stroke-width: 0.8; stroke-linejoin: miter"/>
   </g>
   <g id="patch_102">
    <path d="M 383.578352 273.312 
L 386.824898 273.312 
L 386.824898 272.648545 
L 383.578352 272.648545 
z
" clip-path="url(#pe131ecbf55)" style="fill: #1f77b4; opacity: 0.25; stroke: #ffffff; stroke-width: 0.8; stroke-linejoin: miter"/>
   </g>
   <g id="line2d_14">
    <defs>
     <path id="mcc6923b707" d="M 0 2.5 
C 0.663008 2.5 1.29895 2.236584 1.767767 1.767767 
C 2.236584 1.29895 2.5 0.663008 2.5 0 
C 2.5 -0.663008 2.236584 -1.29895 1.767767 -1.767767 
C 1.29895 -2.236584 0.663008 -2.5 0 -2.5 
C -0.663008 -2.5 -1.29895 -2.236584 -1.767767 -1.767767 
C -2.236584 -1.29895 -2.5 -0.663008 -2.5 0 
C -2.5 0.663008 -2.236584 1.29895 -1.767767 1.767767 
C -1.29895 2.236584 -0.663008 2.5 0 2.5 
z
" style="stroke: #ff0000"/>
    </defs>
    <g clip-path="url(#pe131ecbf55)">
     <use xlink:href="#mcc6923b707" x="239.324093" y="273.312" style="fill: #ff0000; stroke: #ff0000"/>
    </g>
   </g>
   <g id="line2d_15">
    <defs>
     <path id="mc2ec48f272" d="M 0 2.5 
C 0.663008 2.5 1.29895 2.236584 1.767767 1.767767 
C 2.236584 1.29895 2.5 0.663008 2.5 0 
C 2.5 -0.663008 2.236584 -1.29895 1.767767 -1.767767 
C 1.29895 -2.236584 0.663008 -2.5 0 -2.5 
C -0.663008 -2.5 -1.29895 -2.236584 -1.767767 -1.767767 
C -2.236584 -1.29895 -2.5 -0.663008 -2.5 0 
C -2.5 0.663008 -2.236584 1.29895 -1.767767 1.767767 
C -1.29895 2.236584 -0.663008 2.5 0 2.5 
z
" style="stroke: #0000ff"/>
    </defs>
    <g clip-path="url(#pe131ecbf55)">
     <use xlink:href="#mc2ec48f272" x="161.786723" y="273.312" style="fill: #0000ff; stroke: #0000ff"/>
    </g>
   </g>
   <g id="line2d_16">
    <defs>
     <path id="madddf8e505" d="M 0 2.5 
C 0.663008 2.5 1.29895 2.236584 1.767767 1.767767 
C 2.236584 1.29895 2.5 0.663008 2.5 0 
C 2.5 -0.663008 2.236584 -1.29895 1.767767 -1.767767 
C 1.29895 -2.236584 0.663008 -2.5 0 -2.5 
C -0.663008 -2.5 -1.29895 -2.236584 -1.767767 -1.767767 
C -2.236584 -1.29895 -2.5 -0.663008 -2.5 0 
C -2.5 0.663008 -2.236584 1.29895 -1.767767 1.767767 
C -1.29895 2.236584 -0.663008 2.5 0 2.5 
z
" style="stroke: #008000"/>
    </defs>
    <g clip-path="url(#pe131ecbf55)">
     <use xlink:href="#madddf8e505" x="311.173451" y="273.312" style="fill: #008000; stroke: #008000"/>
    </g>
   </g>
   <g id="patch_103">
    <path d="M 45.937625 273.312 
L 45.937625 7.2 
" style="fill: none; stroke: #262626; stroke-linejoin: miter; stroke-linecap: square"/>
   </g>
   <g id="patch_104">
    <path d="M 45.937625 273.312 
L 403.057625 273.312 
" style="fill: none; stroke: #262626; stroke-linejoin: miter; stroke-linecap: square"/>
   </g>
   <g id="legend_1">
    <g id="line2d_17">
     <g>
      <use xlink:href="#mcc6923b707" x="286.36" y="18.446125" style="fill: #ff0000; stroke: #ff0000"/>
     </g>
    </g>
    <g id="text_16">
     <!-- 0.500-quantile (median) -->
     <g style="fill: #262626" transform="translate(302.2 21.526125) scale(0.088 -0.088)">
      <defs>
       <path id="ArialMT-2d" d="M 203 1375 
L 203 1941 
L 1931 1941 
L 1931 1375 
L 203 1375 
z
" transform="scale(0.015625)"/>
       <path id="ArialMT-71" d="M 2538 -1272 
L 2538 353 
Q 2406 169 2170 47 
Q 1934 -75 1669 -75 
Q 1078 -75 651 397 
Q 225 869 225 1691 
Q 225 2191 398 2587 
Q 572 2984 901 3189 
Q 1231 3394 1625 3394 
Q 2241 3394 2594 2875 
L 2594 3319 
L 3100 3319 
L 3100 -1272 
L 2538 -1272 
z
M 803 1669 
Q 803 1028 1072 708 
Q 1341 388 1716 388 
Q 2075 388 2334 692 
Q 2594 997 2594 1619 
Q 2594 2281 2320 2615 
Q 2047 2950 1678 2950 
Q 1313 2950 1058 2639 
Q 803 2328 803 1669 
z
" transform="scale(0.015625)"/>
       <path id="ArialMT-75" d="M 2597 0 
L 2597 488 
Q 2209 -75 1544 -75 
Q 1250 -75 995 37 
Q 741 150 617 320 
Q 494 491 444 738 
Q 409 903 409 1263 
L 409 3319 
L 972 3319 
L 972 1478 
Q 972 1038 1006 884 
Q 1059 663 1231 536 
Q 1403 409 1656 409 
Q 1909 409 2131 539 
Q 2353 669 2445 892 
Q 2538 1116 2538 1541 
L 2538 3319 
L 3100 3319 
L 3100 0 
L 2597 0 
z
" transform="scale(0.015625)"/>
       <path id="ArialMT-61" d="M 2588 409 
Q 2275 144 1986 34 
Q 1697 -75 1366 -75 
Q 819 -75 525 192 
Q 231 459 231 875 
Q 231 1119 342 1320 
Q 453 1522 633 1644 
Q 813 1766 1038 1828 
Q 1203 1872 1538 1913 
Q 2219 1994 2541 2106 
Q 2544 2222 2544 2253 
Q 2544 2597 2384 2738 
Q 2169 2928 1744 2928 
Q 1347 2928 1158 2789 
Q 969 2650 878 2297 
L 328 2372 
Q 403 2725 575 2942 
Q 747 3159 1072 3276 
Q 1397 3394 1825 3394 
Q 2250 3394 2515 3294 
Q 2781 3194 2906 3042 
Q 3031 2891 3081 2659 
Q 3109 2516 3109 2141 
L 3109 1391 
Q 3109 606 3145 398 
Q 3181 191 3288 0 
L 2700 0 
Q 2613 175 2588 409 
z
M 2541 1666 
Q 2234 1541 1622 1453 
Q 1275 1403 1131 1340 
Q 988 1278 909 1158 
Q 831 1038 831 891 
Q 831 666 1001 516 
Q 1172 366 1500 366 
Q 1825 366 2078 508 
Q 2331 650 2450 897 
Q 2541 1088 2541 1459 
L 2541 1666 
z
" transform="scale(0.015625)"/>
       <path id="ArialMT-6e" d="M 422 0 
L 422 3319 
L 928 3319 
L 928 2847 
Q 1294 3394 1984 3394 
Q 2284 3394 2536 3286 
Q 2788 3178 2913 3003 
Q 3038 2828 3088 2588 
Q 3119 2431 3119 2041 
L 3119 0 
L 2556 0 
L 2556 2019 
Q 2556 2363 2490 2533 
Q 2425 2703 2258 2804 
Q 2091 2906 1866 2906 
Q 1506 2906 1245 2678 
Q 984 2450 984 1813 
L 984 0 
L 422 0 
z
" transform="scale(0.015625)"/>
       <path id="ArialMT-74" d="M 1650 503 
L 1731 6 
Q 1494 -44 1306 -44 
Q 1000 -44 831 53 
Q 663 150 594 308 
Q 525 466 525 972 
L 525 2881 
L 113 2881 
L 113 3319 
L 525 3319 
L 525 4141 
L 1084 4478 
L 1084 3319 
L 1650 3319 
L 1650 2881 
L 1084 2881 
L 1084 941 
Q 1084 700 1114 631 
Q 1144 563 1211 522 
Q 1278 481 1403 481 
Q 1497 481 1650 503 
z
" transform="scale(0.015625)"/>
       <path id="ArialMT-69" d="M 425 3934 
L 425 4581 
L 988 4581 
L 988 3934 
L 425 3934 
z
M 425 0 
L 425 3319 
L 988 3319 
L 988 0 
L 425 0 
z
" transform="scale(0.015625)"/>
       <path id="ArialMT-6c" d="M 409 0 
L 409 4581 
L 972 4581 
L 972 0 
L 409 0 
z
" transform="scale(0.015625)"/>
       <path id="ArialMT-65" d="M 2694 1069 
L 3275 997 
Q 3138 488 2766 206 
Q 2394 -75 1816 -75 
Q 1088 -75 661 373 
Q 234 822 234 1631 
Q 234 2469 665 2931 
Q 1097 3394 1784 3394 
Q 2450 3394 2872 2941 
Q 3294 2488 3294 1666 
Q 3294 1616 3291 1516 
L 816 1516 
Q 847 969 1125 678 
Q 1403 388 1819 388 
Q 2128 388 2347 550 
Q 2566 713 2694 1069 
z
M 847 1978 
L 2700 1978 
Q 2663 2397 2488 2606 
Q 2219 2931 1791 2931 
Q 1403 2931 1139 2672 
Q 875 2413 847 1978 
z
" transform="scale(0.015625)"/>
       <path id="ArialMT-20" transform="scale(0.015625)"/>
       <path id="ArialMT-28" d="M 1497 -1347 
Q 1031 -759 709 28 
Q 388 816 388 1659 
Q 388 2403 628 3084 
Q 909 3875 1497 4659 
L 1900 4659 
Q 1522 4009 1400 3731 
Q 1209 3300 1100 2831 
Q 966 2247 966 1656 
Q 966 153 1900 -1347 
L 1497 -1347 
z
" transform="scale(0.015625)"/>
       <path id="ArialMT-6d" d="M 422 0 
L 422 3319 
L 925 3319 
L 925 2853 
Q 1081 3097 1340 3245 
Q 1600 3394 1931 3394 
Q 2300 3394 2536 3241 
Q 2772 3088 2869 2813 
Q 3263 3394 3894 3394 
Q 4388 3394 4653 3120 
Q 4919 2847 4919 2278 
L 4919 0 
L 4359 0 
L 4359 2091 
Q 4359 2428 4304 2576 
Q 4250 2725 4106 2815 
Q 3963 2906 3769 2906 
Q 3419 2906 3187 2673 
Q 2956 2441 2956 1928 
L 2956 0 
L 2394 0 
L 2394 2156 
Q 2394 2531 2256 2718 
Q 2119 2906 1806 2906 
Q 1569 2906 1367 2781 
Q 1166 2656 1075 2415 
Q 984 2175 984 1722 
L 984 0 
L 422 0 
z
" transform="scale(0.015625)"/>
       <path id="ArialMT-64" d="M 2575 0 
L 2575 419 
Q 2259 -75 1647 -75 
Q 1250 -75 917 144 
Q 584 363 401 755 
Q 219 1147 219 1656 
Q 219 2153 384 2558 
Q 550 2963 881 3178 
Q 1213 3394 1622 3394 
Q 1922 3394 2156 3267 
Q 2391 3141 2538 2938 
L 2538 4581 
L 3097 4581 
L 3097 0 
L 2575 0 
z
M 797 1656 
Q 797 1019 1065 703 
Q 1334 388 1700 388 
Q 2069 388 2326 689 
Q 2584 991 2584 1609 
Q 2584 2291 2321 2609 
Q 2059 2928 1675 2928 
Q 1300 2928 1048 2622 
Q 797 2316 797 1656 
z
" transform="scale(0.015625)"/>
       <path id="ArialMT-29" d="M 791 -1347 
L 388 -1347 
Q 1322 153 1322 1656 
Q 1322 2244 1188 2822 
Q 1081 3291 891 3722 
Q 769 4003 388 4659 
L 791 4659 
Q 1378 3875 1659 3084 
Q 1900 2403 1900 1659 
Q 1900 816 1576 28 
Q 1253 -759 791 -1347 
z
" transform="scale(0.015625)"/>
      </defs>
      <use xlink:href="#ArialMT-30"/>
      <use xlink:href="#ArialMT-2e" x="55.615234"/>
      <use xlink:href="#ArialMT-35" x="83.398438"/>
      <use xlink:href="#ArialMT-30" x="139.013672"/>
      <use xlink:href="#ArialMT-30" x="194.628906"/>
      <use xlink:href="#ArialMT-2d" x="250.244141"/>
      <use xlink:href="#ArialMT-71" x="283.544922"/>
      <use xlink:href="#ArialMT-75" x="339.160156"/>
      <use xlink:href="#ArialMT-61" x="394.775391"/>
      <use xlink:href="#ArialMT-6e" x="450.390625"/>
      <use xlink:href="#ArialMT-74" x="506.005859"/>
      <use xlink:href="#ArialMT-69" x="533.789062"/>
      <use xlink:href="#ArialMT-6c" x="556.005859"/>
      <use xlink:href="#ArialMT-65" x="578.222656"/>
      <use xlink:href="#ArialMT-20" x="633.837891"/>
      <use xlink:href="#ArialMT-28" x="661.621094"/>
      <use xlink:href="#ArialMT-6d" x="694.921875"/>
      <use xlink:href="#ArialMT-65" x="778.222656"/>
      <use xlink:href="#ArialMT-64" x="833.837891"/>
      <use xlink:href="#ArialMT-69" x="889.453125"/>
      <use xlink:href="#ArialMT-61" x="911.669922"/>
      <use xlink:href="#ArialMT-6e" x="967.285156"/>
      <use xlink:href="#ArialMT-29" x="1022.900391"/>
     </g>
    </g>
    <g id="line2d_18">
     <g>
      <use xlink:href="#mc2ec48f272" x="286.36" y="31.02325" style="fill: #0000ff; stroke: #0000ff"/>
     </g>
    </g>
    <g id="text_17">
     <!-- 0.025-quantile -->
     <g style="fill: #262626" transform="translate(302.2 34.10325) scale(0.088 -0.088)">
      <use xlink:href="#ArialMT-30"/>
      <use xlink:href="#ArialMT-2e" x="55.615234"/>
      <use xlink:href="#ArialMT-30" x="83.398438"/>
      <use xlink:href="#ArialMT-32" x="139.013672"/>
      <use xlink:href="#ArialMT-35" x="194.628906"/>
      <use xlink:href="#ArialMT-2d" x="250.244141"/>
      <use xlink:href="#ArialMT-71" x="283.544922"/>
      <use xlink:href="#ArialMT-75" x="339.160156"/>
      <use xlink:href="#ArialMT-61" x="394.775391"/>
      <use xlink:href="#ArialMT-6e" x="450.390625"/>
      <use xlink:href="#ArialMT-74" x="506.005859"/>
      <use xlink:href="#ArialMT-69" x="533.789062"/>
      <use xlink:href="#ArialMT-6c" x="556.005859"/>
      <use xlink:href="#ArialMT-65" x="578.222656"/>
     </g>
    </g>
    <g id="line2d_19">
     <g>
      <use xlink:href="#madddf8e505" x="286.36" y="43.49725" style="fill: #008000; stroke: #008000"/>
     </g>
    </g>
    <g id="text_18">
     <!-- 0.975-quantile -->
     <g style="fill: #262626" transform="translate(302.2 46.57725) scale(0.088 -0.088)">
      <defs>
       <path id="ArialMT-39" d="M 350 1059 
L 891 1109 
Q 959 728 1153 556 
Q 1347 384 1650 384 
Q 1909 384 2104 503 
Q 2300 622 2425 820 
Q 2550 1019 2634 1356 
Q 2719 1694 2719 2044 
Q 2719 2081 2716 2156 
Q 2547 1888 2255 1720 
Q 1963 1553 1622 1553 
Q 1053 1553 659 1965 
Q 266 2378 266 3053 
Q 266 3750 677 4175 
Q 1088 4600 1706 4600 
Q 2153 4600 2523 4359 
Q 2894 4119 3086 3673 
Q 3278 3228 3278 2384 
Q 3278 1506 3087 986 
Q 2897 466 2520 194 
Q 2144 -78 1638 -78 
Q 1100 -78 759 220 
Q 419 519 350 1059 
z
M 2653 3081 
Q 2653 3566 2395 3850 
Q 2138 4134 1775 4134 
Q 1400 4134 1122 3828 
Q 844 3522 844 3034 
Q 844 2597 1108 2323 
Q 1372 2050 1759 2050 
Q 2150 2050 2401 2323 
Q 2653 2597 2653 3081 
z
" transform="scale(0.015625)"/>
       <path id="ArialMT-37" d="M 303 3981 
L 303 4522 
L 3269 4522 
L 3269 4084 
Q 2831 3619 2401 2847 
Q 1972 2075 1738 1259 
Q 1569 684 1522 0 
L 944 0 
Q 953 541 1156 1306 
Q 1359 2072 1739 2783 
Q 2119 3494 2547 3981 
L 303 3981 
z
" transform="scale(0.015625)"/>
      </defs>
      <use xlink:href="#ArialMT-30"/>
      <use xlink:href="#ArialMT-2e" x="55.615234"/>
      <use xlink:href="#ArialMT-39" x="83.398438"/>
      <use xlink:href="#ArialMT-37" x="139.013672"/>
      <use xlink:href="#ArialMT-35" x="194.628906"/>
      <use xlink:href="#ArialMT-2d" x="250.244141"/>
      <use xlink:href="#ArialMT-71" x="283.544922"/>
      <use xlink:href="#ArialMT-75" x="339.160156"/>
      <use xlink:href="#ArialMT-61" x="394.775391"/>
      <use xlink:href="#ArialMT-6e" x="450.390625"/>
      <use xlink:href="#ArialMT-74" x="506.005859"/>
      <use xlink:href="#ArialMT-69" x="533.789062"/>
      <use xlink:href="#ArialMT-6c" x="556.005859"/>
      <use xlink:href="#ArialMT-65" x="578.222656"/>
     </g>
    </g>
   </g>
  </g>
 </g>
 <defs>
  <clipPath id="pe131ecbf55">
   <rect x="45.937625" y="7.2" width="357.12" height="266.112"/>
  </clipPath>
 </defs>
</svg>