<?xml version="1.0" encoding="utf-8" standalone="no"?>
<!DOCTYPE svg PUBLIC "-//W3C//DTD SVG 1.1//EN"
  "http://www.w3.org/Graphics/SVG/1.1/DTD/svg11.dtd">
<svg xmlns:xlink="http://www.w3.org/1999/xlink" width="440.838pt" height="322.539375pt" viewBox="0 0 440.838 322.539375" xmlns="http://www.w3.org/2000/svg" version="1.1">
 <metadata>
  <rdf:RDF xmlns:dc="http://purl.org/dc/elements/1.1/" xmlns:cc="http://creativecommons.org/ns#" xmlns:rdf="http://www.w3.org/1999/02/22-rdf-syntax-ns#">
   <cc:Work>
    <dc:type rdf:resource="http://purl.org/dc/dcmitype/StillImage"/>
    <dc:date>2023-10-22T09:01:48.651090</dc:date>
    <dc:format>image/svg+xml</dc:format>
    <dc:creator>
     <cc:Agent>
      <dc:title>Matplotlib v3.7.1, https://matplotlib.org/</dc:title>
     </cc:Agent>
    </dc:creator>
   </cc:Work>
  </rdf:RDF>
 </metadata>
 <defs>
  <style type="text/css">*{stroke-linejoin: round; stroke-linecap: butt}</style>
 </defs>
 <g id="figure_1">
  <g id="patch_1">
   <path d="M 0 322.539375 
L 440.838 322.539375 
L 440.838 0 
L 0 0 
z
" style="fill: #ffffff"/>
  </g>
  <g id="axes_1">
   <g id="patch_2">
    <path d="M 38.312875 286.212 
L 395.432875 286.212 
L 395.432875 20.1 
L 38.312875 20.1 
z
" style="fill: #ffffff"/>
   </g>
   <g id="matplotlib.axis_1">
    <g id="xtick_1">
     <g id="line2d_1">
      <defs>
       <path id="m6980fb2750" d="M 0 0 
L 0 4.8 
" style="stroke: #262626"/>
      </defs>
      <g>
       <use xlink:href="#m6980fb2750" x="54.545602" y="286.212" style="fill: #262626; stroke: #262626"/>
      </g>
     </g>
     <g id="text_1">
      <!-- 0.0 -->
      <g style="fill: #262626" transform="translate(48.429602 300.810875) scale(0.088 -0.088)">
       <defs>
        <path id="ArialMT-30" d="M 266 2259 
Q 266 3072 433 3567 
Q 600 4063 929 4331 
Q 1259 4600 1759 4600 
Q 2128 4600 2406 4451 
Q 2684 4303 2865 4023 
Q 3047 3744 3150 3342 
Q 3253 2941 3253 2259 
Q 3253 1453 3087 958 
Q 2922 463 2592 192 
Q 2263 -78 1759 -78 
Q 1097 -78 719 397 
Q 266 969 266 2259 
z
M 844 2259 
Q 844 1131 1108 757 
Q 1372 384 1759 384 
Q 2147 384 2411 759 
Q 2675 1134 2675 2259 
Q 2675 3391 2411 3762 
Q 2147 4134 1753 4134 
Q 1366 4134 1134 3806 
Q 844 3388 844 2259 
z
" transform="scale(0.015625)"/>
        <path id="ArialMT-2e" d="M 581 0 
L 581 641 
L 1222 641 
L 1222 0 
L 581 0 
z
" transform="scale(0.015625)"/>
       </defs>
       <use xlink:href="#ArialMT-30"/>
       <use xlink:href="#ArialMT-2e" x="55.615234"/>
       <use xlink:href="#ArialMT-30" x="83.398438"/>
      </g>
     </g>
    </g>
    <g id="xtick_2">
     <g id="line2d_2">
      <g>
       <use xlink:href="#m6980fb2750" x="119.476511" y="286.212" style="fill: #262626; stroke: #262626"/>
      </g>
     </g>
     <g id="text_2">
      <!-- 0.2 -->
      <g style="fill: #262626" transform="translate(113.360511 300.810875) scale(0.088 -0.088)">
       <defs>
        <path id="ArialMT-32" d="M 3222 541 
L 3222 0 
L 194 0 
Q 188 203 259 391 
Q 375 700 629 1000 
Q 884 1300 1366 1694 
Q 2113 2306 2375 2664 
Q 2638 3022 2638 3341 
Q 2638 3675 2398 3904 
Q 2159 4134 1775 4134 
Q 1369 4134 1125 3890 
Q 881 3647 878 3216 
L 300 3275 
Q 359 3922 746 4261 
Q 1134 4600 1788 4600 
Q 2447 4600 2831 4234 
Q 3216 3869 3216 3328 
Q 3216 3053 3103 2787 
Q 2991 2522 2730 2228 
Q 2469 1934 1863 1422 
Q 1356 997 1212 845 
Q 1069 694 975 541 
L 3222 541 
z
" transform="scale(0.015625)"/>
       </defs>
       <use xlink:href="#ArialMT-30"/>
       <use xlink:href="#ArialMT-2e" x="55.615234"/>
       <use xlink:href="#ArialMT-32" x="83.398438"/>
      </g>
     </g>
    </g>
    <g id="xtick_3">
     <g id="line2d_3">
      <g>
       <use xlink:href="#m6980fb2750" x="184.40742" y="286.212" style="fill: #262626; stroke: #262626"/>
      </g>
     </g>
     <g id="text_3">
      <!-- 0.4 -->
      <g style="fill: #262626" transform="translate(178.29142 300.810875) scale(0.088 -0.088)">
       <defs>
        <path id="ArialMT-34" d="M 2069 0 
L 2069 1097 
L 81 1097 
L 81 1613 
L 2172 4581 
L 2631 4581 
L 2631 1613 
L 3250 1613 
L 3250 1097 
L 2631 1097 
L 2631 0 
L 2069 0 
z
M 2069 1613 
L 2069 3678 
L 634 1613 
L 2069 1613 
z
" transform="scale(0.015625)"/>
       </defs>
       <use xlink:href="#ArialMT-30"/>
       <use xlink:href="#ArialMT-2e" x="55.615234"/>
       <use xlink:href="#ArialMT-34" x="83.398438"/>
      </g>
     </g>
    </g>
    <g id="xtick_4">
     <g id="line2d_4">
      <g>
       <use xlink:href="#m6980fb2750" x="249.33833" y="286.212" style="fill: #262626; stroke: #262626"/>
      </g>
     </g>
     <g id="text_4">
      <!-- 0.6 -->
      <g style="fill: #262626" transform="translate(243.22233 300.810875) scale(0.088 -0.088)">
       <defs>
        <path id="ArialMT-36" d="M 3184 3459 
L 2625 3416 
Q 2550 3747 2413 3897 
Q 2184 4138 1850 4138 
Q 1581 4138 1378 3988 
Q 1113 3794 959 3422 
Q 806 3050 800 2363 
Q 1003 2672 1297 2822 
Q 1591 2972 1913 2972 
Q 2475 2972 2870 2558 
Q 3266 2144 3266 1488 
Q 3266 1056 3080 686 
Q 2894 316 2569 119 
Q 2244 -78 1831 -78 
Q 1128 -78 684 439 
Q 241 956 241 2144 
Q 241 3472 731 4075 
Q 1159 4600 1884 4600 
Q 2425 4600 2770 4297 
Q 3116 3994 3184 3459 
z
M 888 1484 
Q 888 1194 1011 928 
Q 1134 663 1356 523 
Q 1578 384 1822 384 
Q 2178 384 2434 671 
Q 2691 959 2691 1453 
Q 2691 1928 2437 2201 
Q 2184 2475 1800 2475 
Q 1419 2475 1153 2201 
Q 888 1928 888 1484 
z
" transform="scale(0.015625)"/>
       </defs>
       <use xlink:href="#ArialMT-30"/>
       <use xlink:href="#ArialMT-2e" x="55.615234"/>
       <use xlink:href="#ArialMT-36" x="83.398438"/>
      </g>
     </g>
    </g>
    <g id="xtick_5">
     <g id="line2d_5">
      <g>
       <use xlink:href="#m6980fb2750" x="314.269239" y="286.212" style="fill: #262626; stroke: #262626"/>
      </g>
     </g>
     <g id="text_5">
      <!-- 0.8 -->
      <g style="fill: #262626" transform="translate(308.153239 300.810875) scale(0.088 -0.088)">
       <defs>
        <path id="ArialMT-38" d="M 1131 2484 
Q 781 2613 612 2850 
Q 444 3088 444 3419 
Q 444 3919 803 4259 
Q 1163 4600 1759 4600 
Q 2359 4600 2725 4251 
Q 3091 3903 3091 3403 
Q 3091 3084 2923 2848 
Q 2756 2613 2416 2484 
Q 2838 2347 3058 2040 
Q 3278 1734 3278 1309 
Q 3278 722 2862 322 
Q 2447 -78 1769 -78 
Q 1091 -78 675 323 
Q 259 725 259 1325 
Q 259 1772 486 2073 
Q 713 2375 1131 2484 
z
M 1019 3438 
Q 1019 3113 1228 2906 
Q 1438 2700 1772 2700 
Q 2097 2700 2305 2904 
Q 2513 3109 2513 3406 
Q 2513 3716 2298 3927 
Q 2084 4138 1766 4138 
Q 1444 4138 1231 3931 
Q 1019 3725 1019 3438 
z
M 838 1322 
Q 838 1081 952 856 
Q 1066 631 1291 507 
Q 1516 384 1775 384 
Q 2178 384 2440 643 
Q 2703 903 2703 1303 
Q 2703 1709 2433 1975 
Q 2163 2241 1756 2241 
Q 1359 2241 1098 1978 
Q 838 1716 838 1322 
z
" transform="scale(0.015625)"/>
       </defs>
       <use xlink:href="#ArialMT-30"/>
       <use xlink:href="#ArialMT-2e" x="55.615234"/>
       <use xlink:href="#ArialMT-38" x="83.398438"/>
      </g>
     </g>
    </g>
    <g id="xtick_6">
     <g id="line2d_6">
      <g>
       <use xlink:href="#m6980fb2750" x="379.200148" y="286.212" style="fill: #262626; stroke: #262626"/>
      </g>
     </g>
     <g id="text_6">
      <!-- 1.0 -->
      <g style="fill: #262626" transform="translate(373.084148 300.810875) scale(0.088 -0.088)">
       <defs>
        <path id="ArialMT-31" d="M 2384 0 
L 1822 0 
L 1822 3584 
Q 1619 3391 1289 3197 
Q 959 3003 697 2906 
L 697 3450 
Q 1169 3672 1522 3987 
Q 1875 4303 2022 4600 
L 2384 4600 
L 2384 0 
z
" transform="scale(0.015625)"/>
       </defs>
       <use xlink:href="#ArialMT-31"/>
       <use xlink:href="#ArialMT-2e" x="55.615234"/>
       <use xlink:href="#ArialMT-30" x="83.398438"/>
      </g>
     </g>
    </g>
    <g id="text_7">
     <!-- $x$ -->
     <g style="fill: #262626" transform="translate(213.992875 313.431375) scale(0.096 -0.096)">
      <defs>
       <path id="DejaVuSans-Oblique-78" d="M 3841 3500 
L 2234 1784 
L 3219 0 
L 2559 0 
L 1819 1388 
L 531 0 
L -166 0 
L 1556 1844 
L 641 3500 
L 1300 3500 
L 1972 2234 
L 3144 3500 
L 3841 3500 
z
" transform="scale(0.015625)"/>
      </defs>
      <use xlink:href="#DejaVuSans-Oblique-78" transform="translate(0 0.3125)"/>
     </g>
    </g>
   </g>
   <g id="matplotlib.axis_2">
    <g id="ytick_1">
     <g id="line2d_7">
      <defs>
       <path id="m477a7d7b50" d="M 0 0 
L -4.8 0 
" style="stroke: #262626"/>
      </defs>
      <g>
       <use xlink:href="#m477a7d7b50" x="38.312875" y="277.753525" style="fill: #262626; stroke: #262626"/>
      </g>
     </g>
     <g id="text_8">
      <!-- −4 -->
      <g style="fill: #262626" transform="translate(19.9795 280.902963) scale(0.088 -0.088)">
       <defs>
        <path id="ArialMT-2212" d="M 3381 1997 
L 356 1997 
L 356 2522 
L 3381 2522 
L 3381 1997 
z
" transform="scale(0.015625)"/>
       </defs>
       <use xlink:href="#ArialMT-2212"/>
       <use xlink:href="#ArialMT-34" x="58.398438"/>
      </g>
     </g>
    </g>
    <g id="ytick_2">
     <g id="line2d_8">
      <g>
       <use xlink:href="#m477a7d7b50" x="38.312875" y="246.918698" style="fill: #262626; stroke: #262626"/>
      </g>
     </g>
     <g id="text_9">
      <!-- −3 -->
      <g style="fill: #262626" transform="translate(19.9795 250.068135) scale(0.088 -0.088)">
       <defs>
        <path id="ArialMT-33" d="M 269 1209 
L 831 1284 
Q 928 806 1161 595 
Q 1394 384 1728 384 
Q 2125 384 2398 659 
Q 2672 934 2672 1341 
Q 2672 1728 2419 1979 
Q 2166 2231 1775 2231 
Q 1616 2231 1378 2169 
L 1441 2663 
Q 1497 2656 1531 2656 
Q 1891 2656 2178 2843 
Q 2466 3031 2466 3422 
Q 2466 3731 2256 3934 
Q 2047 4138 1716 4138 
Q 1388 4138 1169 3931 
Q 950 3725 888 3313 
L 325 3413 
Q 428 3978 793 4289 
Q 1159 4600 1703 4600 
Q 2078 4600 2393 4439 
Q 2709 4278 2876 4000 
Q 3044 3722 3044 3409 
Q 3044 3113 2884 2869 
Q 2725 2625 2413 2481 
Q 2819 2388 3044 2092 
Q 3269 1797 3269 1353 
Q 3269 753 2831 336 
Q 2394 -81 1725 -81 
Q 1122 -81 723 278 
Q 325 638 269 1209 
z
" transform="scale(0.015625)"/>
       </defs>
       <use xlink:href="#ArialMT-2212"/>
       <use xlink:href="#ArialMT-33" x="58.398438"/>
      </g>
     </g>
    </g>
    <g id="ytick_3">
     <g id="line2d_9">
      <g>
       <use xlink:href="#m477a7d7b50" x="38.312875" y="216.08387" style="fill: #262626; stroke: #262626"/>
      </g>
     </g>
     <g id="text_10">
      <!-- −2 -->
      <g style="fill: #262626" transform="translate(19.9795 219.233308) scale(0.088 -0.088)">
       <use xlink:href="#ArialMT-2212"/>
       <use xlink:href="#ArialMT-32" x="58.398438"/>
      </g>
     </g>
    </g>
    <g id="ytick_4">
     <g id="line2d_10">
      <g>
       <use xlink:href="#m477a7d7b50" x="38.312875" y="185.249042" style="fill: #262626; stroke: #262626"/>
      </g>
     </g>
     <g id="text_11">
      <!-- −1 -->
      <g style="fill: #262626" transform="translate(19.9795 188.39848) scale(0.088 -0.088)">
       <use xlink:href="#ArialMT-2212"/>
       <use xlink:href="#ArialMT-31" x="58.398438"/>
      </g>
     </g>
    </g>
    <g id="ytick_5">
     <g id="line2d_11">
      <g>
       <use xlink:href="#m477a7d7b50" x="38.312875" y="154.414215" style="fill: #262626; stroke: #262626"/>
      </g>
     </g>
     <g id="text_12">
      <!-- 0 -->
      <g style="fill: #262626" transform="translate(25.11925 157.563652) scale(0.088 -0.088)">
       <use xlink:href="#ArialMT-30"/>
      </g>
     </g>
    </g>
    <g id="ytick_6">
     <g id="line2d_12">
      <g>
       <use xlink:href="#m477a7d7b50" x="38.312875" y="123.579387" style="fill: #262626; stroke: #262626"/>
      </g>
     </g>
     <g id="text_13">
      <!-- 1 -->
      <g style="fill: #262626" transform="translate(25.11925 126.728824) scale(0.088 -0.088)">
       <use xlink:href="#ArialMT-31"/>
      </g>
     </g>
    </g>
    <g id="ytick_7">
     <g id="line2d_13">
      <g>
       <use xlink:href="#m477a7d7b50" x="38.312875" y="92.744559" style="fill: #262626; stroke: #262626"/>
      </g>
     </g>
     <g id="text_14">
      <!-- 2 -->
      <g style="fill: #262626" transform="translate(25.11925 95.893997) scale(0.088 -0.088)">
       <use xlink:href="#ArialMT-32"/>
      </g>
     </g>
    </g>
    <g id="ytick_8">
     <g id="line2d_14">
      <g>
       <use xlink:href="#m477a7d7b50" x="38.312875" y="61.909731" style="fill: #262626; stroke: #262626"/>
      </g>
     </g>
     <g id="text_15">
      <!-- 3 -->
      <g style="fill: #262626" transform="translate(25.11925 65.059169) scale(0.088 -0.088)">
       <use xlink:href="#ArialMT-33"/>
      </g>
     </g>
    </g>
    <g id="ytick_9">
     <g id="line2d_15">
      <g>
       <use xlink:href="#m477a7d7b50" x="38.312875" y="31.074904" style="fill: #262626; stroke: #262626"/>
      </g>
     </g>
     <g id="text_16">
      <!-- 4 -->
      <g style="fill: #262626" transform="translate(25.11925 34.224341) scale(0.088 -0.088)">
       <use xlink:href="#ArialMT-34"/>
      </g>
     </g>
    </g>
    <g id="text_17">
     <!-- $y$ -->
     <g style="fill: #262626" transform="translate(13.9635 156.036) rotate(-90) scale(0.096 -0.096)">
      <defs>
       <path id="DejaVuSans-Oblique-79" d="M 1588 -325 
Q 1188 -997 936 -1164 
Q 684 -1331 294 -1331 
L -159 -1331 
L -63 -850 
L 269 -850 
Q 509 -850 678 -719 
Q 847 -588 1056 -206 
L 1234 128 
L 459 3500 
L 1069 3500 
L 1650 819 
L 3256 3500 
L 3859 3500 
L 1588 -325 
z
" transform="scale(0.015625)"/>
      </defs>
      <use xlink:href="#DejaVuSans-Oblique-79" transform="translate(0 0.3125)"/>
     </g>
    </g>
   </g>
   <g id="PolyCollection_1">
    <defs>
     <path id="m04a196c473" d="M 54.545602 -276.454615 
L 54.545602 -70.766992 
L 57.824941 -74.777802 
L 61.10428 -79.194839 
L 64.383619 -84.018067 
L 67.662958 -89.239633 
L 70.942296 -94.843086 
L 74.221636 -100.80287 
L 77.500973 -107.084103 
L 80.780313 -113.642285 
L 84.059653 -120.423967 
L 87.33899 -127.366586 
L 90.61833 -134.399652 
L 93.89767 -141.445547 
L 97.177007 -148.420667 
L 100.456344 -155.237864 
L 103.735686 -161.806893 
L 107.015024 -168.036715 
L 110.294361 -173.838415 
L 113.573703 -179.120655 
L 116.853041 -176.51071 
L 120.132378 -172.424159 
L 123.41172 -168.966298 
L 126.691057 -166.193484 
L 129.970395 -164.151706 
L 133.249737 -162.873558 
L 136.529069 -162.380034 
L 139.808412 -162.678111 
L 143.087754 -163.76143 
L 146.367086 -165.610361 
L 149.646428 -168.192793 
L 152.92577 -171.463657 
L 156.205103 -175.367436 
L 159.484445 -173.021411 
L 162.763787 -167.10942 
L 166.04312 -160.768836 
L 169.322462 -154.090927 
L 172.601804 -147.167317 
L 175.881137 -140.089671 
L 179.160479 -132.946867 
L 182.439821 -125.823619 
L 185.719153 -118.799147 
L 188.998496 -111.945408 
L 192.277838 -105.326388 
L 195.55717 -98.997142 
L 198.836512 -93.003283 
L 202.115855 -87.380863 
L 205.395187 -82.156444 
L 208.674529 -77.347288 
L 211.953871 -72.962017 
L 215.233204 -69.001337 
L 218.512556 -65.458853 
L 221.791879 -62.322258 
L 225.071221 -59.574283 
L 228.350563 -57.193961 
L 231.629886 -55.15776 
L 234.909247 -53.440707 
L 238.18857 -52.017541 
L 241.467912 -50.863634 
L 244.747254 -49.955984 
L 248.026597 -49.273925 
L 251.305939 -48.79985 
L 254.585262 -48.519718 
L 257.864623 -48.42339 
L 261.143946 -48.50497 
L 264.423288 -48.762857 
L 267.70263 -49.199748 
L 270.981953 -49.822465 
L 274.261315 -50.641785 
L 277.540637 -51.671979 
L 280.81998 -52.930388 
L 284.099322 -54.436877 
L 287.378664 -56.213155 
L 290.658006 -58.282093 
L 293.937329 -60.666884 
L 297.21669 -63.390445 
L 300.496013 -66.474182 
L 303.775355 -69.937658 
L 307.054697 -73.79732 
L 310.33402 -78.066016 
L 313.613382 -82.752196 
L 316.892705 -87.859232 
L 320.172047 -93.384978 
L 323.451389 -99.321428 
L 326.730731 -105.654203 
L 330.010073 -112.362747 
L 333.289396 -119.420294 
L 336.568738 -126.794018 
L 339.84808 -134.445717 
L 343.127423 -142.33141 
L 346.406765 -150.403326 
L 349.686088 -158.610779 
L 352.96543 -166.89945 
L 356.244772 -175.20148 
L 359.524114 -167.430665 
L 362.803456 -159.138493 
L 366.082798 -150.924613 
L 369.362141 -142.842089 
L 372.641463 -134.942454 
L 375.920806 -127.274353 
L 379.200148 -119.880872 
L 379.200148 -229.540774 
L 379.200148 -229.540774 
L 375.920806 -222.539368 
L 372.641463 -215.211808 
L 369.362141 -207.596797 
L 366.082798 -199.739221 
L 362.803456 -191.687624 
L 359.524114 -183.492912 
L 356.244772 -175.753395 
L 352.96543 -184.020174 
L 349.686088 -192.207511 
L 346.406765 -200.248947 
L 343.127423 -208.092435 
L 339.84808 -215.690342 
L 336.568738 -222.998707 
L 333.289396 -229.978062 
L 330.010073 -236.595263 
L 326.730731 -242.823013 
L 323.451389 -248.640441 
L 320.172047 -254.033123 
L 316.892705 -258.992973 
L 313.613382 -263.518262 
L 310.33402 -267.613049 
L 307.054697 -271.286752 
L 303.775355 -274.553566 
L 300.496013 -277.431782 
L 297.21669 -279.942859 
L 293.937329 -282.110962 
L 290.658006 -283.961631 
L 287.378664 -285.521397 
L 284.099322 -286.816616 
L 280.81998 -287.872864 
L 277.540637 -288.71407 
L 274.261315 -289.361952 
L 270.981953 -289.835321 
L 267.70263 -290.149594 
L 264.423288 -290.316431 
L 261.143946 -290.34336 
L 257.864623 -290.233608 
L 254.585262 -289.986014 
L 251.305939 -289.595049 
L 248.026597 -289.051001 
L 244.747254 -288.340227 
L 241.467912 -287.445604 
L 238.18857 -286.347055 
L 234.909247 -285.022224 
L 231.629886 -283.447247 
L 228.350563 -281.597703 
L 225.071221 -279.44953 
L 221.791879 -276.980107 
L 218.512556 -274.169394 
L 215.233204 -271.000959 
L 211.953871 -267.463217 
L 208.674529 -263.550286 
L 205.395187 -259.263136 
L 202.115855 -254.610304 
L 198.836512 -249.608565 
L 195.55717 -244.283451 
L 192.277838 -238.669486 
L 188.998496 -232.810088 
L 185.719153 -226.757442 
L 182.439821 -220.571919 
L 179.160479 -214.321129 
L 175.881137 -208.079158 
L 172.601804 -201.924817 
L 169.322462 -195.940346 
L 166.04312 -190.210067 
L 162.763787 -184.817633 
L 159.484445 -179.845785 
L 156.205103 -178.422949 
L 152.92577 -183.223685 
L 149.646428 -187.355849 
L 146.367086 -190.754464 
L 143.087754 -193.365166 
L 139.808412 -195.146864 
L 136.529069 -196.07144 
L 133.249737 -196.124713 
L 129.970395 -195.306671 
L 126.691057 -193.632261 
L 123.41172 -191.129171 
L 120.132378 -187.839654 
L 116.853041 -183.817649 
L 113.573703 -181.167381 
L 110.294361 -186.304749 
L 107.015024 -191.858683 
L 103.735686 -197.740899 
L 100.456344 -203.866778 
L 97.177007 -210.150782 
L 93.89767 -216.509251 
L 90.61833 -222.862529 
L 87.33899 -229.13533 
L 84.059653 -235.258948 
L 80.780313 -241.172256 
L 77.500973 -246.82231 
L 74.221636 -252.165362 
L 70.942296 -257.166542 
L 67.662958 -261.800319 
L 64.383619 -266.050137 
L 61.10428 -269.907982 
L 57.824941 -273.373797 
L 54.545602 -276.454615 
z
" style="stroke: #1f77b4; stroke-opacity: 0.5; stroke-width: 0.8"/>
    </defs>
    <g clip-path="url(#p0036533f9f)">
     <use xlink:href="#m04a196c473" x="0" y="322.539375" style="fill: #1f77b4; fill-opacity: 0.5; stroke: #1f77b4; stroke-opacity: 0.5; stroke-width: 0.8"/>
    </g>
   </g>
   <g id="PolyCollection_2">
    <defs>
     <path id="md52b78b926" d="M 54.545602 -70.766992 
L 54.545602 -70.766977 
L 57.824941 -74.777787 
L 61.10428 -79.194817 
L 64.383619 -84.018045 
L 67.662958 -89.239611 
L 70.942296 -94.843064 
L 74.221636 -100.802848 
L 77.500973 -107.084074 
L 80.780313 -113.642256 
L 84.059653 -120.423934 
L 87.33899 -127.366549 
L 90.61833 -134.399608 
L 93.89767 -141.445495 
L 97.177007 -148.420605 
L 100.456344 -155.237787 
L 103.735686 -161.806788 
L 107.015024 -168.036556 
L 110.294361 -173.83811 
L 113.573703 -179.118798 
L 116.853041 -176.51019 
L 120.132378 -172.423912 
L 123.41172 -168.966127 
L 126.691057 -166.193347 
L 129.970395 -164.151583 
L 133.249737 -162.873442 
L 136.529069 -162.37992 
L 139.808412 -162.677994 
L 143.087754 -163.761302 
L 146.367086 -165.610211 
L 149.646428 -168.192595 
L 152.92577 -171.463334 
L 156.205103 -175.366191 
L 159.484445 -173.020854 
L 162.763787 -167.109206 
L 166.04312 -160.768707 
L 169.322462 -154.090835 
L 172.601804 -147.167249 
L 175.881137 -140.089616 
L 179.160479 -132.946819 
L 182.439821 -125.823578 
L 185.719153 -118.79911 
L 188.998496 -111.945379 
L 192.277838 -105.326359 
L 195.55717 -98.99712 
L 198.836512 -93.003261 
L 202.115855 -87.380841 
L 205.395187 -82.15643 
L 208.674529 -77.347266 
L 211.953871 -72.962002 
L 215.233204 -69.001315 
L 218.512556 -65.458831 
L 221.791879 -62.322243 
L 225.071221 -59.574268 
L 228.350563 -57.193946 
L 231.629886 -55.157738 
L 234.909247 -53.440692 
L 238.18857 -52.017526 
L 241.467912 -50.86362 
L 244.747254 -49.95597 
L 248.026597 -49.273911 
L 251.305939 -48.799836 
L 254.585262 -48.519703 
L 257.864623 -48.423375 
L 261.143946 -48.504956 
L 264.423288 -48.762842 
L 267.70263 -49.199733 
L 270.981953 -49.82245 
L 274.261315 -50.64177 
L 277.540637 -51.671964 
L 280.81998 -52.930374 
L 284.099322 -54.436863 
L 287.378664 -56.213141 
L 290.658006 -58.282078 
L 293.937329 -60.66687 
L 297.21669 -63.39043 
L 300.496013 -66.474167 
L 303.775355 -69.937636 
L 307.054697 -73.797305 
L 310.33402 -78.066002 
L 313.613382 -82.752181 
L 316.892705 -87.85921 
L 320.172047 -93.384956 
L 323.451389 -99.321399 
L 326.730731 -105.654174 
L 330.010073 -112.362718 
L 333.289396 -119.420261 
L 336.568738 -126.793978 
L 339.84808 -134.445669 
L 343.127423 -142.331351 
L 346.406765 -150.403251 
L 349.686088 -158.610665 
L 352.96543 -166.899228 
L 356.244772 -175.194673 
L 359.524114 -167.430428 
L 362.803456 -159.138376 
L 366.082798 -150.924536 
L 369.362141 -142.84203 
L 372.641463 -134.942406 
L 375.920806 -127.274313 
L 379.200148 -119.880842 
L 379.200148 -119.880872 
L 379.200148 -119.880872 
L 375.920806 -127.274353 
L 372.641463 -134.942454 
L 369.362141 -142.842089 
L 366.082798 -150.924613 
L 362.803456 -159.138493 
L 359.524114 -167.430665 
L 356.244772 -175.20148 
L 352.96543 -166.89945 
L 349.686088 -158.610779 
L 346.406765 -150.403326 
L 343.127423 -142.33141 
L 339.84808 -134.445717 
L 336.568738 -126.794018 
L 333.289396 -119.420294 
L 330.010073 -112.362747 
L 326.730731 -105.654203 
L 323.451389 -99.321428 
L 320.172047 -93.384978 
L 316.892705 -87.859232 
L 313.613382 -82.752196 
L 310.33402 -78.066016 
L 307.054697 -73.79732 
L 303.775355 -69.937658 
L 300.496013 -66.474182 
L 297.21669 -63.390445 
L 293.937329 -60.666884 
L 290.658006 -58.282093 
L 287.378664 -56.213155 
L 284.099322 -54.436877 
L 280.81998 -52.930388 
L 277.540637 -51.671979 
L 274.261315 -50.641785 
L 270.981953 -49.822465 
L 267.70263 -49.199748 
L 264.423288 -48.762857 
L 261.143946 -48.50497 
L 257.864623 -48.42339 
L 254.585262 -48.519718 
L 251.305939 -48.79985 
L 248.026597 -49.273925 
L 244.747254 -49.955984 
L 241.467912 -50.863634 
L 238.18857 -52.017541 
L 234.909247 -53.440707 
L 231.629886 -55.15776 
L 228.350563 -57.193961 
L 225.071221 -59.574283 
L 221.791879 -62.322258 
L 218.512556 -65.458853 
L 215.233204 -69.001337 
L 211.953871 -72.962017 
L 208.674529 -77.347288 
L 205.395187 -82.156444 
L 202.115855 -87.380863 
L 198.836512 -93.003283 
L 195.55717 -98.997142 
L 192.277838 -105.326388 
L 188.998496 -111.945408 
L 185.719153 -118.799147 
L 182.439821 -125.823619 
L 179.160479 -132.946867 
L 175.881137 -140.089671 
L 172.601804 -147.167317 
L 169.322462 -154.090927 
L 166.04312 -160.768836 
L 162.763787 -167.10942 
L 159.484445 -173.021411 
L 156.205103 -175.367436 
L 152.92577 -171.463657 
L 149.646428 -168.192793 
L 146.367086 -165.610361 
L 143.087754 -163.76143 
L 139.808412 -162.678111 
L 136.529069 -162.380034 
L 133.249737 -162.873558 
L 129.970395 -164.151706 
L 126.691057 -166.193484 
L 123.41172 -168.966298 
L 120.132378 -172.424159 
L 116.853041 -176.51071 
L 113.573703 -179.120655 
L 110.294361 -173.838415 
L 107.015024 -168.036715 
L 103.735686 -161.806893 
L 100.456344 -155.237864 
L 97.177007 -148.420667 
L 93.89767 -141.445547 
L 90.61833 -134.399652 
L 87.33899 -127.366586 
L 84.059653 -120.423967 
L 80.780313 -113.642285 
L 77.500973 -107.084103 
L 74.221636 -100.80287 
L 70.942296 -94.843086 
L 67.662958 -89.239633 
L 64.383619 -84.018067 
L 61.10428 -79.194839 
L 57.824941 -74.777802 
L 54.545602 -70.766992 
z
" style="stroke: #ff7f0e; stroke-opacity: 0.5; stroke-width: 0.8"/>
    </defs>
    <g clip-path="url(#p0036533f9f)">
     <use xlink:href="#md52b78b926" x="0" y="322.539375" style="fill: #ff7f0e; fill-opacity: 0.5; stroke: #ff7f0e; stroke-opacity: 0.5; stroke-width: 0.8"/>
    </g>
   </g>
   <g id="PolyCollection_3">
    <defs>
     <path id="m78c2ba0050" d="M 54.545602 -276.45463 
L 54.545602 -276.454615 
L 57.824941 -273.373797 
L 61.10428 -269.907982 
L 64.383619 -266.050137 
L 67.662958 -261.800319 
L 70.942296 -257.166542 
L 74.221636 -252.165362 
L 77.500973 -246.82231 
L 80.780313 -241.172256 
L 84.059653 -235.258948 
L 87.33899 -229.13533 
L 90.61833 -222.862529 
L 93.89767 -216.509251 
L 97.177007 -210.150782 
L 100.456344 -203.866778 
L 103.735686 -197.740899 
L 107.015024 -191.858683 
L 110.294361 -186.304749 
L 113.573703 -181.167381 
L 116.853041 -183.817649 
L 120.132378 -187.839654 
L 123.41172 -191.129171 
L 126.691057 -193.632261 
L 129.970395 -195.306671 
L 133.249737 -196.124713 
L 136.529069 -196.07144 
L 139.808412 -195.146864 
L 143.087754 -193.365166 
L 146.367086 -190.754464 
L 149.646428 -187.355849 
L 152.92577 -183.223685 
L 156.205103 -178.422949 
L 159.484445 -179.845785 
L 162.763787 -184.817633 
L 166.04312 -190.210067 
L 169.322462 -195.940346 
L 172.601804 -201.924817 
L 175.881137 -208.079158 
L 179.160479 -214.321129 
L 182.439821 -220.571919 
L 185.719153 -226.757442 
L 188.998496 -232.810088 
L 192.277838 -238.669486 
L 195.55717 -244.283451 
L 198.836512 -249.608565 
L 202.115855 -254.610304 
L 205.395187 -259.263136 
L 208.674529 -263.550286 
L 211.953871 -267.463217 
L 215.233204 -271.000959 
L 218.512556 -274.169394 
L 221.791879 -276.980107 
L 225.071221 -279.44953 
L 228.350563 -281.597703 
L 231.629886 -283.447247 
L 234.909247 -285.022224 
L 238.18857 -286.347055 
L 241.467912 -287.445604 
L 244.747254 -288.340227 
L 248.026597 -289.051001 
L 251.305939 -289.595049 
L 254.585262 -289.986014 
L 257.864623 -290.233608 
L 261.143946 -290.34336 
L 264.423288 -290.316431 
L 267.70263 -290.149594 
L 270.981953 -289.835321 
L 274.261315 -289.361952 
L 277.540637 -288.71407 
L 280.81998 -287.872864 
L 284.099322 -286.816616 
L 287.378664 -285.521397 
L 290.658006 -283.961631 
L 293.937329 -282.110962 
L 297.21669 -279.942859 
L 300.496013 -277.431782 
L 303.775355 -274.553566 
L 307.054697 -271.286752 
L 310.33402 -267.613049 
L 313.613382 -263.518262 
L 316.892705 -258.992973 
L 320.172047 -254.033123 
L 323.451389 -248.640441 
L 326.730731 -242.823013 
L 330.010073 -236.595263 
L 333.289396 -229.978062 
L 336.568738 -222.998707 
L 339.84808 -215.690342 
L 343.127423 -208.092435 
L 346.406765 -200.248947 
L 349.686088 -192.207511 
L 352.96543 -184.020174 
L 356.244772 -175.753395 
L 359.524114 -183.492912 
L 362.803456 -191.687624 
L 366.082798 -199.739221 
L 369.362141 -207.596797 
L 372.641463 -215.211808 
L 375.920806 -222.539368 
L 379.200148 -229.540774 
L 379.200148 -229.540811 
L 379.200148 -229.540811 
L 375.920806 -222.539408 
L 372.641463 -215.211856 
L 369.362141 -207.596856 
L 366.082798 -199.739298 
L 362.803456 -191.687742 
L 359.524114 -183.493149 
L 356.244772 -175.760202 
L 352.96543 -184.020399 
L 349.686088 -192.207625 
L 346.406765 -200.249024 
L 343.127423 -208.092493 
L 339.84808 -215.69039 
L 336.568738 -222.998747 
L 333.289396 -229.978091 
L 330.010073 -236.595292 
L 326.730731 -242.823042 
L 323.451389 -248.64047 
L 320.172047 -254.033145 
L 316.892705 -258.992995 
L 313.613382 -263.518277 
L 310.33402 -267.613064 
L 307.054697 -271.286767 
L 303.775355 -274.553588 
L 300.496013 -277.431797 
L 297.21669 -279.942874 
L 293.937329 -282.110977 
L 290.658006 -283.961646 
L 287.378664 -285.521412 
L 284.099322 -286.816631 
L 280.81998 -287.872879 
L 277.540637 -288.714085 
L 274.261315 -289.361966 
L 270.981953 -289.835336 
L 267.70263 -290.149609 
L 264.423288 -290.316446 
L 261.143946 -290.343375 
L 257.864623 -290.233623 
L 254.585262 -289.986029 
L 251.305939 -289.595063 
L 248.026597 -289.051016 
L 244.747254 -288.340242 
L 241.467912 -287.445619 
L 238.18857 -286.34707 
L 234.909247 -285.022238 
L 231.629886 -283.447269 
L 228.350563 -281.597718 
L 225.071221 -279.449545 
L 221.791879 -276.980122 
L 218.512556 -274.169416 
L 215.233204 -271.000981 
L 211.953871 -267.463231 
L 208.674529 -263.550308 
L 205.395187 -259.263151 
L 202.115855 -254.610326 
L 198.836512 -249.608587 
L 195.55717 -244.283473 
L 192.277838 -238.669515 
L 188.998496 -232.810117 
L 185.719153 -226.757478 
L 182.439821 -220.57196 
L 179.160479 -214.321177 
L 175.881137 -208.079213 
L 172.601804 -201.924887 
L 169.322462 -195.940438 
L 166.04312 -190.210196 
L 162.763787 -184.817848 
L 159.484445 -179.846342 
L 156.205103 -178.424193 
L 152.92577 -183.224008 
L 149.646428 -187.356047 
L 146.367086 -190.754615 
L 143.087754 -193.365295 
L 139.808412 -195.146982 
L 136.529069 -196.071553 
L 133.249737 -196.124827 
L 129.970395 -195.306793 
L 126.691057 -193.632399 
L 123.41172 -191.12934 
L 120.132378 -187.8399 
L 116.853041 -183.818169 
L 113.573703 -181.169237 
L 110.294361 -186.305054 
L 107.015024 -191.858843 
L 103.735686 -197.741002 
L 100.456344 -203.866855 
L 97.177007 -210.150845 
L 93.89767 -216.509302 
L 90.61833 -222.862573 
L 87.33899 -229.135367 
L 84.059653 -235.258985 
L 80.780313 -241.172285 
L 77.500973 -246.822339 
L 74.221636 -252.165384 
L 70.942296 -257.166564 
L 67.662958 -261.800341 
L 64.383619 -266.050159 
L 61.10428 -269.908004 
L 57.824941 -273.373811 
L 54.545602 -276.45463 
z
" style="stroke: #ff7f0e; stroke-opacity: 0.5; stroke-width: 0.8"/>
    </defs>
    <g clip-path="url(#p0036533f9f)">
     <use xlink:href="#m78c2ba0050" x="0" y="322.539375" style="fill: #ff7f0e; fill-opacity: 0.5; stroke: #ff7f0e; stroke-opacity: 0.5; stroke-width: 0.8"/>
    </g>
   </g>
   <g id="line2d_16">
    <defs>
     <path id="mc12da53271" d="M -5 5 
L 5 -5 
M -5 -5 
L 5 5 
" style="stroke: #000000; stroke-width: 2"/>
    </defs>
    <g clip-path="url(#p0036533f9f)">
     <use xlink:href="#mc12da53271" x="356.349693" y="147.06192" style="stroke: #000000; stroke-width: 2"/>
     <use xlink:href="#mc12da53271" x="157.258364" y="145.791232" style="stroke: #000000; stroke-width: 2"/>
     <use xlink:href="#mc12da53271" x="114.255683" y="142.386838" style="stroke: #000000; stroke-width: 2"/>
    </g>
   </g>
   <g id="line2d_17">
    <path d="M 54.545602 148.928573 
L 57.824941 148.463579 
L 61.10428 147.987967 
L 64.383619 147.505273 
L 67.662958 147.019396 
L 70.942296 146.534561 
L 74.221636 146.055256 
L 77.500973 145.586167 
L 80.780313 145.132104 
L 84.059653 144.697916 
L 87.33899 144.288418 
L 90.61833 143.908284 
L 93.89767 143.561977 
L 97.177007 143.253651 
L 100.456344 142.987054 
L 103.735686 142.76548 
L 107.015024 142.591676 
L 110.294361 142.467793 
L 113.573703 142.395357 
L 116.853041 142.375195 
L 120.132378 142.407469 
L 123.41172 142.491641 
L 126.691057 142.626502 
L 129.970395 142.810187 
L 133.249737 143.04024 
L 136.529069 143.313638 
L 139.808412 143.626887 
L 143.087754 143.976077 
L 146.367086 144.356962 
L 149.646428 144.765054 
L 152.92577 145.195704 
L 156.205103 145.644183 
L 159.484445 146.105777 
L 162.763787 146.575848 
L 166.04312 147.049923 
L 169.322462 147.523738 
L 172.601804 147.993307 
L 175.881137 148.454961 
L 179.160479 148.905377 
L 182.439821 149.341606 
L 185.719153 149.761081 
L 188.998496 150.161625 
L 192.277838 150.541435 
L 195.55717 150.899075 
L 198.836512 151.233454 
L 202.115855 151.54379 
L 205.395187 151.829584 
L 208.674529 152.09059 
L 211.953871 152.326761 
L 215.233204 152.538227 
L 218.512556 152.725252 
L 221.791879 152.88819 
L 225.071221 153.027468 
L 228.350563 153.14354 
L 231.629886 153.236871 
L 234.909247 153.307911 
L 238.18857 153.357079 
L 241.467912 153.384755 
L 244.747254 153.391271 
L 248.026597 153.376912 
L 251.305939 153.341922 
L 254.585262 153.286512 
L 257.864623 153.210875 
L 261.143946 153.115209 
L 264.423288 152.99973 
L 267.70263 152.864706 
L 270.981953 152.710484 
L 274.261315 152.537504 
L 277.540637 152.346348 
L 280.81998 152.13775 
L 284.099322 151.912625 
L 287.378664 151.6721 
L 290.658006 151.417514 
L 293.937329 151.150451 
L 297.21669 150.87272 
L 300.496013 150.586396 
L 303.775355 150.293763 
L 307.054697 149.997341 
L 310.33402 149.699842 
L 313.613382 149.404149 
L 316.892705 149.113275 
L 320.172047 148.830326 
L 323.451389 148.558444 
L 326.730731 148.30077 
L 330.010073 148.060372 
L 333.289396 147.840197 
L 336.568738 147.643012 
L 339.84808 147.471346 
L 343.127423 147.327452 
L 346.406765 147.213238 
L 349.686088 147.13023 
L 352.96543 147.079562 
L 356.244772 147.061937 
L 359.524114 147.077586 
L 362.803456 147.126316 
L 366.082798 147.207458 
L 369.362141 147.319932 
L 372.641463 147.462244 
L 375.920806 147.632514 
L 379.200148 147.82855 
" clip-path="url(#p0036533f9f)" style="fill: none; stroke: #1f77b4; stroke-width: 2; stroke-linecap: round"/>
   </g>
   <g id="patch_3">
    <path d="M 38.312875 277.753525 
L 38.312875 31.074904 
" style="fill: none; stroke: #262626; stroke-linejoin: miter; stroke-linecap: square"/>
   </g>
   <g id="patch_4">
    <path d="M 54.545602 286.212 
L 379.200148 286.212 
" style="fill: none; stroke: #262626; stroke-linejoin: miter; stroke-linecap: square"/>
   </g>
   <g id="text_18">
    <!-- psi=0.00 -->
    <g style="fill: #262626" transform="translate(198.592375 14.1) scale(0.096 -0.096)">
     <defs>
      <path id="ArialMT-70" d="M 422 -1272 
L 422 3319 
L 934 3319 
L 934 2888 
Q 1116 3141 1344 3267 
Q 1572 3394 1897 3394 
Q 2322 3394 2647 3175 
Q 2972 2956 3137 2557 
Q 3303 2159 3303 1684 
Q 3303 1175 3120 767 
Q 2938 359 2589 142 
Q 2241 -75 1856 -75 
Q 1575 -75 1351 44 
Q 1128 163 984 344 
L 984 -1272 
L 422 -1272 
z
M 931 1641 
Q 931 1000 1190 694 
Q 1450 388 1819 388 
Q 2194 388 2461 705 
Q 2728 1022 2728 1688 
Q 2728 2322 2467 2637 
Q 2206 2953 1844 2953 
Q 1484 2953 1207 2617 
Q 931 2281 931 1641 
z
" transform="scale(0.015625)"/>
      <path id="ArialMT-73" d="M 197 991 
L 753 1078 
Q 800 744 1014 566 
Q 1228 388 1613 388 
Q 2000 388 2187 545 
Q 2375 703 2375 916 
Q 2375 1106 2209 1216 
Q 2094 1291 1634 1406 
Q 1016 1563 777 1677 
Q 538 1791 414 1992 
Q 291 2194 291 2438 
Q 291 2659 392 2848 
Q 494 3038 669 3163 
Q 800 3259 1026 3326 
Q 1253 3394 1513 3394 
Q 1903 3394 2198 3281 
Q 2494 3169 2634 2976 
Q 2775 2784 2828 2463 
L 2278 2388 
Q 2241 2644 2061 2787 
Q 1881 2931 1553 2931 
Q 1166 2931 1000 2803 
Q 834 2675 834 2503 
Q 834 2394 903 2306 
Q 972 2216 1119 2156 
Q 1203 2125 1616 2013 
Q 2213 1853 2448 1751 
Q 2684 1650 2818 1456 
Q 2953 1263 2953 975 
Q 2953 694 2789 445 
Q 2625 197 2315 61 
Q 2006 -75 1616 -75 
Q 969 -75 630 194 
Q 291 463 197 991 
z
" transform="scale(0.015625)"/>
      <path id="ArialMT-69" d="M 425 3934 
L 425 4581 
L 988 4581 
L 988 3934 
L 425 3934 
z
M 425 0 
L 425 3319 
L 988 3319 
L 988 0 
L 425 0 
z
" transform="scale(0.015625)"/>
      <path id="ArialMT-3d" d="M 3381 2694 
L 356 2694 
L 356 3219 
L 3381 3219 
L 3381 2694 
z
M 3381 1303 
L 356 1303 
L 356 1828 
L 3381 1828 
L 3381 1303 
z
" transform="scale(0.015625)"/>
     </defs>
     <use xlink:href="#ArialMT-70"/>
     <use xlink:href="#ArialMT-73" x="55.615234"/>
     <use xlink:href="#ArialMT-69" x="105.615234"/>
     <use xlink:href="#ArialMT-3d" x="127.832031"/>
     <use xlink:href="#ArialMT-30" x="186.230469"/>
     <use xlink:href="#ArialMT-2e" x="241.845703"/>
     <use xlink:href="#ArialMT-30" x="269.628906"/>
     <use xlink:href="#ArialMT-30" x="325.244141"/>
    </g>
   </g>
   <g id="legend_1">
    <g id="line2d_18">
     <g>
      <use xlink:href="#mc12da53271" x="307.608875" y="31.238875" style="stroke: #000000; stroke-width: 2"/>
     </g>
    </g>
    <g id="text_19">
     <!-- Observations -->
     <g style="fill: #262626" transform="translate(323.448875 34.318875) scale(0.088 -0.088)">
      <defs>
       <path id="ArialMT-4f" d="M 309 2231 
Q 309 3372 921 4017 
Q 1534 4663 2503 4663 
Q 3138 4663 3647 4359 
Q 4156 4056 4423 3514 
Q 4691 2972 4691 2284 
Q 4691 1588 4409 1038 
Q 4128 488 3612 205 
Q 3097 -78 2500 -78 
Q 1853 -78 1343 234 
Q 834 547 571 1087 
Q 309 1628 309 2231 
z
M 934 2222 
Q 934 1394 1379 917 
Q 1825 441 2497 441 
Q 3181 441 3623 922 
Q 4066 1403 4066 2288 
Q 4066 2847 3877 3264 
Q 3688 3681 3323 3911 
Q 2959 4141 2506 4141 
Q 1863 4141 1398 3698 
Q 934 3256 934 2222 
z
" transform="scale(0.015625)"/>
       <path id="ArialMT-62" d="M 941 0 
L 419 0 
L 419 4581 
L 981 4581 
L 981 2947 
Q 1338 3394 1891 3394 
Q 2197 3394 2470 3270 
Q 2744 3147 2920 2923 
Q 3097 2700 3197 2384 
Q 3297 2069 3297 1709 
Q 3297 856 2875 390 
Q 2453 -75 1863 -75 
Q 1275 -75 941 416 
L 941 0 
z
M 934 1684 
Q 934 1088 1097 822 
Q 1363 388 1816 388 
Q 2184 388 2453 708 
Q 2722 1028 2722 1663 
Q 2722 2313 2464 2622 
Q 2206 2931 1841 2931 
Q 1472 2931 1203 2611 
Q 934 2291 934 1684 
z
" transform="scale(0.015625)"/>
       <path id="ArialMT-65" d="M 2694 1069 
L 3275 997 
Q 3138 488 2766 206 
Q 2394 -75 1816 -75 
Q 1088 -75 661 373 
Q 234 822 234 1631 
Q 234 2469 665 2931 
Q 1097 3394 1784 3394 
Q 2450 3394 2872 2941 
Q 3294 2488 3294 1666 
Q 3294 1616 3291 1516 
L 816 1516 
Q 847 969 1125 678 
Q 1403 388 1819 388 
Q 2128 388 2347 550 
Q 2566 713 2694 1069 
z
M 847 1978 
L 2700 1978 
Q 2663 2397 2488 2606 
Q 2219 2931 1791 2931 
Q 1403 2931 1139 2672 
Q 875 2413 847 1978 
z
" transform="scale(0.015625)"/>
       <path id="ArialMT-72" d="M 416 0 
L 416 3319 
L 922 3319 
L 922 2816 
Q 1116 3169 1280 3281 
Q 1444 3394 1641 3394 
Q 1925 3394 2219 3213 
L 2025 2691 
Q 1819 2813 1613 2813 
Q 1428 2813 1281 2702 
Q 1134 2591 1072 2394 
Q 978 2094 978 1738 
L 978 0 
L 416 0 
z
" transform="scale(0.015625)"/>
       <path id="ArialMT-76" d="M 1344 0 
L 81 3319 
L 675 3319 
L 1388 1331 
Q 1503 1009 1600 663 
Q 1675 925 1809 1294 
L 2547 3319 
L 3125 3319 
L 1869 0 
L 1344 0 
z
" transform="scale(0.015625)"/>
       <path id="ArialMT-61" d="M 2588 409 
Q 2275 144 1986 34 
Q 1697 -75 1366 -75 
Q 819 -75 525 192 
Q 231 459 231 875 
Q 231 1119 342 1320 
Q 453 1522 633 1644 
Q 813 1766 1038 1828 
Q 1203 1872 1538 1913 
Q 2219 1994 2541 2106 
Q 2544 2222 2544 2253 
Q 2544 2597 2384 2738 
Q 2169 2928 1744 2928 
Q 1347 2928 1158 2789 
Q 969 2650 878 2297 
L 328 2372 
Q 403 2725 575 2942 
Q 747 3159 1072 3276 
Q 1397 3394 1825 3394 
Q 2250 3394 2515 3294 
Q 2781 3194 2906 3042 
Q 3031 2891 3081 2659 
Q 3109 2516 3109 2141 
L 3109 1391 
Q 3109 606 3145 398 
Q 3181 191 3288 0 
L 2700 0 
Q 2613 175 2588 409 
z
M 2541 1666 
Q 2234 1541 1622 1453 
Q 1275 1403 1131 1340 
Q 988 1278 909 1158 
Q 831 1038 831 891 
Q 831 666 1001 516 
Q 1172 366 1500 366 
Q 1825 366 2078 508 
Q 2331 650 2450 897 
Q 2541 1088 2541 1459 
L 2541 1666 
z
" transform="scale(0.015625)"/>
       <path id="ArialMT-74" d="M 1650 503 
L 1731 6 
Q 1494 -44 1306 -44 
Q 1000 -44 831 53 
Q 663 150 594 308 
Q 525 466 525 972 
L 525 2881 
L 113 2881 
L 113 3319 
L 525 3319 
L 525 4141 
L 1084 4478 
L 1084 3319 
L 1650 3319 
L 1650 2881 
L 1084 2881 
L 1084 941 
Q 1084 700 1114 631 
Q 1144 563 1211 522 
Q 1278 481 1403 481 
Q 1497 481 1650 503 
z
" transform="scale(0.015625)"/>
       <path id="ArialMT-6f" d="M 213 1659 
Q 213 2581 725 3025 
Q 1153 3394 1769 3394 
Q 2453 3394 2887 2945 
Q 3322 2497 3322 1706 
Q 3322 1066 3130 698 
Q 2938 331 2570 128 
Q 2203 -75 1769 -75 
Q 1072 -75 642 372 
Q 213 819 213 1659 
z
M 791 1659 
Q 791 1022 1069 705 
Q 1347 388 1769 388 
Q 2188 388 2466 706 
Q 2744 1025 2744 1678 
Q 2744 2294 2464 2611 
Q 2184 2928 1769 2928 
Q 1347 2928 1069 2612 
Q 791 2297 791 1659 
z
" transform="scale(0.015625)"/>
       <path id="ArialMT-6e" d="M 422 0 
L 422 3319 
L 928 3319 
L 928 2847 
Q 1294 3394 1984 3394 
Q 2284 3394 2536 3286 
Q 2788 3178 2913 3003 
Q 3038 2828 3088 2588 
Q 3119 2431 3119 2041 
L 3119 0 
L 2556 0 
L 2556 2019 
Q 2556 2363 2490 2533 
Q 2425 2703 2258 2804 
Q 2091 2906 1866 2906 
Q 1506 2906 1245 2678 
Q 984 2450 984 1813 
L 984 0 
L 422 0 
z
" transform="scale(0.015625)"/>
      </defs>
      <use xlink:href="#ArialMT-4f"/>
      <use xlink:href="#ArialMT-62" x="77.783203"/>
      <use xlink:href="#ArialMT-73" x="133.398438"/>
      <use xlink:href="#ArialMT-65" x="183.398438"/>
      <use xlink:href="#ArialMT-72" x="239.013672"/>
      <use xlink:href="#ArialMT-76" x="272.314453"/>
      <use xlink:href="#ArialMT-61" x="322.314453"/>
      <use xlink:href="#ArialMT-74" x="377.929688"/>
      <use xlink:href="#ArialMT-69" x="405.712891"/>
      <use xlink:href="#ArialMT-6f" x="427.929688"/>
      <use xlink:href="#ArialMT-6e" x="483.544922"/>
      <use xlink:href="#ArialMT-73" x="539.160156"/>
     </g>
    </g>
    <g id="line2d_19">
     <path d="M 298.808875 43.822875 
L 307.608875 43.822875 
L 316.408875 43.822875 
" style="fill: none; stroke: #1f77b4; stroke-width: 2; stroke-linecap: round"/>
    </g>
    <g id="text_20">
     <!-- $m_n(x)$ -->
     <g style="fill: #262626" transform="translate(323.448875 46.902875) scale(0.088 -0.088)">
      <defs>
       <path id="DejaVuSans-Oblique-6d" d="M 5747 2113 
L 5338 0 
L 4763 0 
L 5166 2094 
Q 5191 2228 5203 2325 
Q 5216 2422 5216 2491 
Q 5216 2772 5059 2928 
Q 4903 3084 4622 3084 
Q 4203 3084 3875 2770 
Q 3547 2456 3450 1953 
L 3066 0 
L 2491 0 
L 2900 2094 
Q 2925 2209 2937 2307 
Q 2950 2406 2950 2484 
Q 2950 2769 2794 2926 
Q 2638 3084 2363 3084 
Q 1938 3084 1609 2770 
Q 1281 2456 1184 1953 
L 800 0 
L 225 0 
L 909 3500 
L 1484 3500 
L 1375 2956 
Q 1609 3263 1923 3423 
Q 2238 3584 2597 3584 
Q 2978 3584 3223 3384 
Q 3469 3184 3519 2828 
Q 3781 3197 4126 3390 
Q 4472 3584 4856 3584 
Q 5306 3584 5551 3325 
Q 5797 3066 5797 2591 
Q 5797 2488 5784 2364 
Q 5772 2241 5747 2113 
z
" transform="scale(0.015625)"/>
       <path id="DejaVuSans-Oblique-6e" d="M 3566 2113 
L 3156 0 
L 2578 0 
L 2988 2091 
Q 3016 2238 3031 2350 
Q 3047 2463 3047 2528 
Q 3047 2791 2881 2937 
Q 2716 3084 2419 3084 
Q 1956 3084 1622 2776 
Q 1288 2469 1184 1941 
L 800 0 
L 225 0 
L 903 3500 
L 1478 3500 
L 1363 2950 
Q 1603 3253 1940 3418 
Q 2278 3584 2650 3584 
Q 3113 3584 3367 3334 
Q 3622 3084 3622 2631 
Q 3622 2519 3608 2391 
Q 3594 2263 3566 2113 
z
" transform="scale(0.015625)"/>
       <path id="DejaVuSans-28" d="M 1984 4856 
Q 1566 4138 1362 3434 
Q 1159 2731 1159 2009 
Q 1159 1288 1364 580 
Q 1569 -128 1984 -844 
L 1484 -844 
Q 1016 -109 783 600 
Q 550 1309 550 2009 
Q 550 2706 781 3412 
Q 1013 4119 1484 4856 
L 1984 4856 
z
" transform="scale(0.015625)"/>
       <path id="DejaVuSans-29" d="M 513 4856 
L 1013 4856 
Q 1481 4119 1714 3412 
Q 1947 2706 1947 2009 
Q 1947 1309 1714 600 
Q 1481 -109 1013 -844 
L 513 -844 
Q 928 -128 1133 580 
Q 1338 1288 1338 2009 
Q 1338 2731 1133 3434 
Q 928 4138 513 4856 
z
" transform="scale(0.015625)"/>
      </defs>
      <use xlink:href="#DejaVuSans-Oblique-6d" transform="translate(0 0.125)"/>
      <use xlink:href="#DejaVuSans-Oblique-6e" transform="translate(97.412109 -16.28125) scale(0.7)"/>
      <use xlink:href="#DejaVuSans-28" transform="translate(144.511719 0.125)"/>
      <use xlink:href="#DejaVuSans-Oblique-78" transform="translate(183.525391 0.125)"/>
      <use xlink:href="#DejaVuSans-29" transform="translate(242.705078 0.125)"/>
     </g>
    </g>
    <g id="patch_5">
     <path d="M 298.808875 61.059875 
L 316.408875 61.059875 
L 316.408875 54.899875 
L 298.808875 54.899875 
z
" style="fill: #1f77b4; fill-opacity: 0.5; stroke: #1f77b4; stroke-opacity: 0.5; stroke-width: 0.8; stroke-linejoin: miter"/>
    </g>
    <g id="text_21">
     <!-- $f(\mathbf{x}^*)$ 95% pred. -->
     <g style="fill: #262626" transform="translate(323.448875 61.059875) scale(0.088 -0.088)">
      <defs>
       <path id="DejaVuSans-Oblique-66" d="M 3059 4863 
L 2969 4384 
L 2419 4384 
Q 2106 4384 1964 4261 
Q 1822 4138 1753 3809 
L 1691 3500 
L 2638 3500 
L 2553 3053 
L 1606 3053 
L 1013 0 
L 434 0 
L 1031 3053 
L 481 3053 
L 563 3500 
L 1113 3500 
L 1159 3744 
Q 1278 4363 1576 4613 
Q 1875 4863 2516 4863 
L 3059 4863 
z
" transform="scale(0.015625)"/>
       <path id="DejaVuSans-Bold-78" d="M 1422 1791 
L 159 3500 
L 1344 3500 
L 2059 2463 
L 2784 3500 
L 3969 3500 
L 2706 1797 
L 4031 0 
L 2847 0 
L 2059 1106 
L 1281 0 
L 97 0 
L 1422 1791 
z
" transform="scale(0.015625)"/>
       <path id="DejaVuSans-2a" d="M 3009 3897 
L 1888 3291 
L 3009 2681 
L 2828 2375 
L 1778 3009 
L 1778 1831 
L 1422 1831 
L 1422 3009 
L 372 2375 
L 191 2681 
L 1313 3291 
L 191 3897 
L 372 4206 
L 1422 3572 
L 1422 4750 
L 1778 4750 
L 1778 3572 
L 2828 4206 
L 3009 3897 
z
" transform="scale(0.015625)"/>
       <path id="ArialMT-20" transform="scale(0.015625)"/>
       <path id="ArialMT-39" d="M 350 1059 
L 891 1109 
Q 959 728 1153 556 
Q 1347 384 1650 384 
Q 1909 384 2104 503 
Q 2300 622 2425 820 
Q 2550 1019 2634 1356 
Q 2719 1694 2719 2044 
Q 2719 2081 2716 2156 
Q 2547 1888 2255 1720 
Q 1963 1553 1622 1553 
Q 1053 1553 659 1965 
Q 266 2378 266 3053 
Q 266 3750 677 4175 
Q 1088 4600 1706 4600 
Q 2153 4600 2523 4359 
Q 2894 4119 3086 3673 
Q 3278 3228 3278 2384 
Q 3278 1506 3087 986 
Q 2897 466 2520 194 
Q 2144 -78 1638 -78 
Q 1100 -78 759 220 
Q 419 519 350 1059 
z
M 2653 3081 
Q 2653 3566 2395 3850 
Q 2138 4134 1775 4134 
Q 1400 4134 1122 3828 
Q 844 3522 844 3034 
Q 844 2597 1108 2323 
Q 1372 2050 1759 2050 
Q 2150 2050 2401 2323 
Q 2653 2597 2653 3081 
z
" transform="scale(0.015625)"/>
       <path id="ArialMT-35" d="M 266 1200 
L 856 1250 
Q 922 819 1161 601 
Q 1400 384 1738 384 
Q 2144 384 2425 690 
Q 2706 997 2706 1503 
Q 2706 1984 2436 2262 
Q 2166 2541 1728 2541 
Q 1456 2541 1237 2417 
Q 1019 2294 894 2097 
L 366 2166 
L 809 4519 
L 3088 4519 
L 3088 3981 
L 1259 3981 
L 1013 2750 
Q 1425 3038 1878 3038 
Q 2478 3038 2890 2622 
Q 3303 2206 3303 1553 
Q 3303 931 2941 478 
Q 2500 -78 1738 -78 
Q 1113 -78 717 272 
Q 322 622 266 1200 
z
" transform="scale(0.015625)"/>
       <path id="ArialMT-25" d="M 372 3481 
Q 372 3972 619 4315 
Q 866 4659 1334 4659 
Q 1766 4659 2048 4351 
Q 2331 4044 2331 3447 
Q 2331 2866 2045 2552 
Q 1759 2238 1341 2238 
Q 925 2238 648 2547 
Q 372 2856 372 3481 
z
M 1350 4272 
Q 1141 4272 1002 4090 
Q 863 3909 863 3425 
Q 863 2984 1003 2804 
Q 1144 2625 1350 2625 
Q 1563 2625 1702 2806 
Q 1841 2988 1841 3469 
Q 1841 3913 1700 4092 
Q 1559 4272 1350 4272 
z
M 1353 -169 
L 3859 4659 
L 4316 4659 
L 1819 -169 
L 1353 -169 
z
M 3334 1075 
Q 3334 1569 3581 1911 
Q 3828 2253 4300 2253 
Q 4731 2253 5014 1945 
Q 5297 1638 5297 1041 
Q 5297 459 5011 145 
Q 4725 -169 4303 -169 
Q 3888 -169 3611 142 
Q 3334 453 3334 1075 
z
M 4316 1866 
Q 4103 1866 3964 1684 
Q 3825 1503 3825 1019 
Q 3825 581 3965 400 
Q 4106 219 4313 219 
Q 4528 219 4667 400 
Q 4806 581 4806 1063 
Q 4806 1506 4665 1686 
Q 4525 1866 4316 1866 
z
" transform="scale(0.015625)"/>
       <path id="ArialMT-64" d="M 2575 0 
L 2575 419 
Q 2259 -75 1647 -75 
Q 1250 -75 917 144 
Q 584 363 401 755 
Q 219 1147 219 1656 
Q 219 2153 384 2558 
Q 550 2963 881 3178 
Q 1213 3394 1622 3394 
Q 1922 3394 2156 3267 
Q 2391 3141 2538 2938 
L 2538 4581 
L 3097 4581 
L 3097 0 
L 2575 0 
z
M 797 1656 
Q 797 1019 1065 703 
Q 1334 388 1700 388 
Q 2069 388 2326 689 
Q 2584 991 2584 1609 
Q 2584 2291 2321 2609 
Q 2059 2928 1675 2928 
Q 1300 2928 1048 2622 
Q 797 2316 797 1656 
z
" transform="scale(0.015625)"/>
      </defs>
      <use xlink:href="#DejaVuSans-Oblique-66" transform="translate(0 0.765625)"/>
      <use xlink:href="#DejaVuSans-28" transform="translate(35.205078 0.765625)"/>
      <use xlink:href="#DejaVuSans-Bold-78" transform="translate(74.21875 0.765625)"/>
      <use xlink:href="#DejaVuSans-2a" transform="translate(153.31543 39.046875) scale(0.7)"/>
      <use xlink:href="#DejaVuSans-29" transform="translate(204.6875 0.765625)"/>
      <use xlink:href="#ArialMT-20" transform="translate(243.701172 0.765625)"/>
      <use xlink:href="#ArialMT-39" transform="translate(271.484375 0.765625)"/>
      <use xlink:href="#ArialMT-35" transform="translate(327.099609 0.765625)"/>
      <use xlink:href="#ArialMT-25" transform="translate(382.714844 0.765625)"/>
      <use xlink:href="#ArialMT-20" transform="translate(471.630859 0.765625)"/>
      <use xlink:href="#ArialMT-70" transform="translate(499.414062 0.765625)"/>
      <use xlink:href="#ArialMT-72" transform="translate(555.029297 0.765625)"/>
      <use xlink:href="#ArialMT-65" transform="translate(588.330078 0.765625)"/>
      <use xlink:href="#ArialMT-64" transform="translate(643.945312 0.765625)"/>
      <use xlink:href="#ArialMT-2e" transform="translate(699.560547 0.765625)"/>
     </g>
    </g>
    <g id="patch_6">
     <path d="M 298.808875 75.227875 
L 316.408875 75.227875 
L 316.408875 69.067875 
L 298.808875 69.067875 
z
" style="fill: #ff7f0e; fill-opacity: 0.5; stroke: #ff7f0e; stroke-opacity: 0.5; stroke-width: 0.8; stroke-linejoin: miter"/>
    </g>
    <g id="text_22">
     <!-- $y^*$ 95% pred. -->
     <g style="fill: #262626" transform="translate(323.448875 75.227875) scale(0.088 -0.088)">
      <use xlink:href="#DejaVuSans-Oblique-79" transform="translate(0 0.765625)"/>
      <use xlink:href="#DejaVuSans-2a" transform="translate(77.283529 39.046875) scale(0.7)"/>
      <use xlink:href="#ArialMT-20" transform="translate(128.655599 0.765625)"/>
      <use xlink:href="#ArialMT-39" transform="translate(156.438802 0.765625)"/>
      <use xlink:href="#ArialMT-35" transform="translate(212.054036 0.765625)"/>
      <use xlink:href="#ArialMT-25" transform="translate(267.669271 0.765625)"/>
      <use xlink:href="#ArialMT-20" transform="translate(356.585286 0.765625)"/>
      <use xlink:href="#ArialMT-70" transform="translate(384.36849 0.765625)"/>
      <use xlink:href="#ArialMT-72" transform="translate(439.983724 0.765625)"/>
      <use xlink:href="#ArialMT-65" transform="translate(473.284505 0.765625)"/>
      <use xlink:href="#ArialMT-64" transform="translate(528.89974 0.765625)"/>
      <use xlink:href="#ArialMT-2e" transform="translate(584.514974 0.765625)"/>
     </g>
    </g>
   </g>
  </g>
  <g id="axes_2">
   <g id="matplotlib.axis_3">
    <g id="ytick_10">
     <g id="line2d_20">
      <defs>
       <path id="m0ea2a51fdd" d="M 0 0 
L 4.8 0 
" style="stroke: #262626"/>
      </defs>
      <g>
       <use xlink:href="#m0ea2a51fdd" x="395.432875" y="274.116" style="fill: #262626; stroke: #262626"/>
      </g>
     </g>
     <g id="text_23">
      <!-- 0.00 -->
      <g style="fill: #ff7f0e" transform="translate(403.732875 277.265437) scale(0.088 -0.088)">
       <use xlink:href="#ArialMT-30"/>
       <use xlink:href="#ArialMT-2e" x="55.615234"/>
       <use xlink:href="#ArialMT-30" x="83.398438"/>
       <use xlink:href="#ArialMT-30" x="139.013672"/>
      </g>
     </g>
    </g>
    <g id="ytick_11">
     <g id="line2d_21">
      <g>
       <use xlink:href="#m0ea2a51fdd" x="395.432875" y="243.135231" style="fill: #262626; stroke: #262626"/>
      </g>
     </g>
     <g id="text_24">
      <!-- 0.05 -->
      <g style="fill: #ff7f0e" transform="translate(403.732875 246.284668) scale(0.088 -0.088)">
       <use xlink:href="#ArialMT-30"/>
       <use xlink:href="#ArialMT-2e" x="55.615234"/>
       <use xlink:href="#ArialMT-30" x="83.398438"/>
       <use xlink:href="#ArialMT-35" x="139.013672"/>
      </g>
     </g>
    </g>
    <g id="ytick_12">
     <g id="line2d_22">
      <g>
       <use xlink:href="#m0ea2a51fdd" x="395.432875" y="212.154462" style="fill: #262626; stroke: #262626"/>
      </g>
     </g>
     <g id="text_25">
      <!-- 0.10 -->
      <g style="fill: #ff7f0e" transform="translate(403.732875 215.303899) scale(0.088 -0.088)">
       <use xlink:href="#ArialMT-30"/>
       <use xlink:href="#ArialMT-2e" x="55.615234"/>
       <use xlink:href="#ArialMT-31" x="83.398438"/>
       <use xlink:href="#ArialMT-30" x="139.013672"/>
      </g>
     </g>
    </g>
    <g id="ytick_13">
     <g id="line2d_23">
      <g>
       <use xlink:href="#m0ea2a51fdd" x="395.432875" y="181.173693" style="fill: #262626; stroke: #262626"/>
      </g>
     </g>
     <g id="text_26">
      <!-- 0.15 -->
      <g style="fill: #ff7f0e" transform="translate(403.732875 184.32313) scale(0.088 -0.088)">
       <use xlink:href="#ArialMT-30"/>
       <use xlink:href="#ArialMT-2e" x="55.615234"/>
       <use xlink:href="#ArialMT-31" x="83.398438"/>
       <use xlink:href="#ArialMT-35" x="139.013672"/>
      </g>
     </g>
    </g>
    <g id="ytick_14">
     <g id="line2d_24">
      <g>
       <use xlink:href="#m0ea2a51fdd" x="395.432875" y="150.192923" style="fill: #262626; stroke: #262626"/>
      </g>
     </g>
     <g id="text_27">
      <!-- 0.20 -->
      <g style="fill: #ff7f0e" transform="translate(403.732875 153.342361) scale(0.088 -0.088)">
       <use xlink:href="#ArialMT-30"/>
       <use xlink:href="#ArialMT-2e" x="55.615234"/>
       <use xlink:href="#ArialMT-32" x="83.398438"/>
       <use xlink:href="#ArialMT-30" x="139.013672"/>
      </g>
     </g>
    </g>
    <g id="ytick_15">
     <g id="line2d_25">
      <g>
       <use xlink:href="#m0ea2a51fdd" x="395.432875" y="119.212154" style="fill: #262626; stroke: #262626"/>
      </g>
     </g>
     <g id="text_28">
      <!-- 0.25 -->
      <g style="fill: #ff7f0e" transform="translate(403.732875 122.361592) scale(0.088 -0.088)">
       <use xlink:href="#ArialMT-30"/>
       <use xlink:href="#ArialMT-2e" x="55.615234"/>
       <use xlink:href="#ArialMT-32" x="83.398438"/>
       <use xlink:href="#ArialMT-35" x="139.013672"/>
      </g>
     </g>
    </g>
    <g id="ytick_16">
     <g id="line2d_26">
      <g>
       <use xlink:href="#m0ea2a51fdd" x="395.432875" y="88.231385" style="fill: #262626; stroke: #262626"/>
      </g>
     </g>
     <g id="text_29">
      <!-- 0.30 -->
      <g style="fill: #ff7f0e" transform="translate(403.732875 91.380823) scale(0.088 -0.088)">
       <use xlink:href="#ArialMT-30"/>
       <use xlink:href="#ArialMT-2e" x="55.615234"/>
       <use xlink:href="#ArialMT-33" x="83.398438"/>
       <use xlink:href="#ArialMT-30" x="139.013672"/>
      </g>
     </g>
    </g>
    <g id="ytick_17">
     <g id="line2d_27">
      <g>
       <use xlink:href="#m0ea2a51fdd" x="395.432875" y="57.250616" style="fill: #262626; stroke: #262626"/>
      </g>
     </g>
     <g id="text_30">
      <!-- 0.35 -->
      <g style="fill: #ff7f0e" transform="translate(403.732875 60.400053) scale(0.088 -0.088)">
       <use xlink:href="#ArialMT-30"/>
       <use xlink:href="#ArialMT-2e" x="55.615234"/>
       <use xlink:href="#ArialMT-33" x="83.398438"/>
       <use xlink:href="#ArialMT-35" x="139.013672"/>
      </g>
     </g>
    </g>
    <g id="ytick_18">
     <g id="line2d_28">
      <g>
       <use xlink:href="#m0ea2a51fdd" x="395.432875" y="26.269847" style="fill: #262626; stroke: #262626"/>
      </g>
     </g>
     <g id="text_31">
      <!-- 0.40 -->
      <g style="fill: #ff7f0e" transform="translate(403.732875 29.419284) scale(0.088 -0.088)">
       <use xlink:href="#ArialMT-30"/>
       <use xlink:href="#ArialMT-2e" x="55.615234"/>
       <use xlink:href="#ArialMT-34" x="83.398438"/>
       <use xlink:href="#ArialMT-30" x="139.013672"/>
      </g>
     </g>
    </g>
    <g id="text_32">
     <!-- Maximum Upper Interval -->
     <g style="fill: #ff7f0e" transform="translate(431.73 205.43475) rotate(-90) scale(0.096 -0.096)">
      <defs>
       <path id="ArialMT-4d" d="M 475 0 
L 475 4581 
L 1388 4581 
L 2472 1338 
Q 2622 884 2691 659 
Q 2769 909 2934 1394 
L 4031 4581 
L 4847 4581 
L 4847 0 
L 4263 0 
L 4263 3834 
L 2931 0 
L 2384 0 
L 1059 3900 
L 1059 0 
L 475 0 
z
" transform="scale(0.015625)"/>
       <path id="ArialMT-78" d="M 47 0 
L 1259 1725 
L 138 3319 
L 841 3319 
L 1350 2541 
Q 1494 2319 1581 2169 
Q 1719 2375 1834 2534 
L 2394 3319 
L 3066 3319 
L 1919 1756 
L 3153 0 
L 2463 0 
L 1781 1031 
L 1600 1309 
L 728 0 
L 47 0 
z
" transform="scale(0.015625)"/>
       <path id="ArialMT-6d" d="M 422 0 
L 422 3319 
L 925 3319 
L 925 2853 
Q 1081 3097 1340 3245 
Q 1600 3394 1931 3394 
Q 2300 3394 2536 3241 
Q 2772 3088 2869 2813 
Q 3263 3394 3894 3394 
Q 4388 3394 4653 3120 
Q 4919 2847 4919 2278 
L 4919 0 
L 4359 0 
L 4359 2091 
Q 4359 2428 4304 2576 
Q 4250 2725 4106 2815 
Q 3963 2906 3769 2906 
Q 3419 2906 3187 2673 
Q 2956 2441 2956 1928 
L 2956 0 
L 2394 0 
L 2394 2156 
Q 2394 2531 2256 2718 
Q 2119 2906 1806 2906 
Q 1569 2906 1367 2781 
Q 1166 2656 1075 2415 
Q 984 2175 984 1722 
L 984 0 
L 422 0 
z
" transform="scale(0.015625)"/>
       <path id="ArialMT-75" d="M 2597 0 
L 2597 488 
Q 2209 -75 1544 -75 
Q 1250 -75 995 37 
Q 741 150 617 320 
Q 494 491 444 738 
Q 409 903 409 1263 
L 409 3319 
L 972 3319 
L 972 1478 
Q 972 1038 1006 884 
Q 1059 663 1231 536 
Q 1403 409 1656 409 
Q 1909 409 2131 539 
Q 2353 669 2445 892 
Q 2538 1116 2538 1541 
L 2538 3319 
L 3100 3319 
L 3100 0 
L 2597 0 
z
" transform="scale(0.015625)"/>
       <path id="ArialMT-55" d="M 3500 4581 
L 4106 4581 
L 4106 1934 
Q 4106 1244 3950 837 
Q 3794 431 3386 176 
Q 2978 -78 2316 -78 
Q 1672 -78 1262 144 
Q 853 366 678 786 
Q 503 1206 503 1934 
L 503 4581 
L 1109 4581 
L 1109 1938 
Q 1109 1341 1220 1058 
Q 1331 775 1601 622 
Q 1872 469 2263 469 
Q 2931 469 3215 772 
Q 3500 1075 3500 1938 
L 3500 4581 
z
" transform="scale(0.015625)"/>
       <path id="ArialMT-49" d="M 597 0 
L 597 4581 
L 1203 4581 
L 1203 0 
L 597 0 
z
" transform="scale(0.015625)"/>
       <path id="ArialMT-6c" d="M 409 0 
L 409 4581 
L 972 4581 
L 972 0 
L 409 0 
z
" transform="scale(0.015625)"/>
      </defs>
      <use xlink:href="#ArialMT-4d"/>
      <use xlink:href="#ArialMT-61" x="83.300781"/>
      <use xlink:href="#ArialMT-78" x="138.916016"/>
      <use xlink:href="#ArialMT-69" x="188.916016"/>
      <use xlink:href="#ArialMT-6d" x="211.132812"/>
      <use xlink:href="#ArialMT-75" x="294.433594"/>
      <use xlink:href="#ArialMT-6d" x="350.048828"/>
      <use xlink:href="#ArialMT-20" x="433.349609"/>
      <use xlink:href="#ArialMT-55" x="461.132812"/>
      <use xlink:href="#ArialMT-70" x="533.349609"/>
      <use xlink:href="#ArialMT-70" x="588.964844"/>
      <use xlink:href="#ArialMT-65" x="644.580078"/>
      <use xlink:href="#ArialMT-72" x="700.195312"/>
      <use xlink:href="#ArialMT-20" x="733.496094"/>
      <use xlink:href="#ArialMT-49" x="761.279297"/>
      <use xlink:href="#ArialMT-6e" x="789.0625"/>
      <use xlink:href="#ArialMT-74" x="844.677734"/>
      <use xlink:href="#ArialMT-65" x="872.460938"/>
      <use xlink:href="#ArialMT-72" x="928.076172"/>
      <use xlink:href="#ArialMT-76" x="961.376953"/>
      <use xlink:href="#ArialMT-61" x="1011.376953"/>
      <use xlink:href="#ArialMT-6c" x="1066.992188"/>
     </g>
    </g>
   </g>
   <g id="line2d_29">
    <path d="M 54.545602 163.883902 
L 57.824941 154.540007 
L 61.10428 144.982746 
L 64.383619 135.283168 
L 67.662958 125.519624 
L 70.942296 115.777039 
L 74.221636 106.145573 
L 77.500973 96.719375 
L 80.780313 87.595151 
L 84.059653 78.870291 
L 87.33899 70.641556 
L 90.61833 63.002901 
L 93.89767 56.043979 
L 97.177007 49.848274 
L 100.456344 44.491091 
L 103.735686 40.03863 
L 107.015024 36.546104 
L 110.294361 34.056724 
L 113.573703 32.601144 
L 116.853041 32.196 
L 120.132378 32.844525 
L 123.41172 34.535935 
L 126.691057 37.245928 
L 129.970395 40.937 
L 133.249737 45.559846 
L 136.529069 51.053696 
L 139.808412 57.348323 
L 143.087754 64.365173 
L 146.367086 72.018933 
L 149.646428 80.219396 
L 152.92577 88.873163 
L 156.205103 97.885188 
L 159.484445 107.160777 
L 162.763787 116.606697 
L 166.04312 126.133064 
L 169.322462 135.654214 
L 172.601804 145.090052 
L 175.881137 154.366823 
L 179.160479 163.417784 
L 182.439821 172.183657 
L 185.719153 180.612868 
L 188.998496 188.661661 
L 192.277838 196.293816 
L 195.55717 203.480474 
L 198.836512 210.199694 
L 202.115855 216.435784 
L 205.395187 222.17873 
L 208.674529 227.423544 
L 211.953871 232.169332 
L 215.233204 236.418667 
L 218.512556 240.176861 
L 221.791879 243.451052 
L 225.071221 246.249792 
L 228.350563 248.58223 
L 231.629886 250.457676 
L 234.909247 251.885198 
L 238.18857 252.873213 
L 241.467912 253.429357 
L 244.747254 253.560293 
L 248.026597 253.271759 
L 251.305939 252.568649 
L 254.585262 251.455197 
L 257.864623 249.935303 
L 261.143946 248.012914 
L 264.423288 245.69241 
L 267.70263 242.979161 
L 270.981953 239.880106 
L 274.261315 236.404135 
L 277.540637 232.56293 
L 280.81998 228.371227 
L 284.099322 223.847413 
L 287.378664 219.014133 
L 290.658006 213.898314 
L 293.937329 208.531778 
L 297.21669 202.950879 
L 300.496013 197.197296 
L 303.775355 191.31693 
L 307.054697 185.360425 
L 310.33402 179.382286 
L 313.613382 173.440433 
L 316.892705 167.595425 
L 320.172047 161.909658 
L 323.451389 156.446286 
L 326.730731 151.268417 
L 330.010073 146.43769 
L 333.289396 142.013352 
L 336.568738 138.050987 
L 339.84808 134.601414 
L 343.127423 131.709919 
L 346.406765 129.414828 
L 349.686088 127.746815 
L 352.96543 126.728657 
L 356.244772 126.374488 
L 359.524114 126.688945 
L 362.803456 127.66815 
L 366.082798 129.298677 
L 369.362141 131.558802 
L 372.641463 134.418517 
L 375.920806 137.840023 
L 379.200148 141.779314 
" clip-path="url(#p0036533f9f)" style="fill: none; stroke: #ff7f0e; stroke-width: 1.2; stroke-linecap: round"/>
   </g>
   <g id="line2d_30">
    <path d="M 116.853041 274.116 
L 116.853041 271.672364 
L 116.853041 269.228727 
L 116.853041 266.785091 
L 116.853041 264.341455 
L 116.853041 261.897819 
L 116.853041 259.454182 
L 116.853041 257.010546 
L 116.853041 254.56691 
L 116.853041 252.123275 
L 116.853041 249.679637 
L 116.853041 247.236 
L 116.853041 244.792365 
L 116.853041 242.34873 
L 116.853041 239.905092 
L 116.853041 237.461455 
L 116.853041 235.01782 
L 116.853041 232.574185 
L 116.853041 230.13055 
L 116.853041 227.68691 
L 116.853041 225.243275 
L 116.853041 222.79964 
L 116.853041 220.356 
L 116.853041 217.912365 
L 116.853041 215.46873 
L 116.853041 213.025095 
L 116.853041 210.58146 
L 116.853041 208.13782 
L 116.853041 205.694185 
L 116.853041 203.25055 
L 116.853041 200.80691 
L 116.853041 198.363275 
L 116.853041 195.91964 
L 116.853041 193.476 
L 116.853041 191.03237 
L 116.853041 188.58873 
L 116.853041 186.145099 
L 116.853041 183.70146 
L 116.853041 181.25782 
L 116.853041 178.814189 
L 116.853041 176.37055 
L 116.853041 173.92691 
L 116.853041 171.483279 
L 116.853041 169.03964 
L 116.853041 166.596 
L 116.853041 164.15237 
L 116.853041 161.70873 
L 116.853041 159.265099 
L 116.853041 156.82146 
L 116.853041 154.37782 
L 116.853041 151.93418 
L 116.853041 149.49054 
L 116.853041 147.046901 
L 116.853041 144.60327 
L 116.853041 142.15963 
L 116.853041 139.716 
L 116.853041 137.27236 
L 116.853041 134.828721 
L 116.853041 132.38509 
L 116.853041 129.94145 
L 116.853041 127.497811 
L 116.853041 125.05418 
L 116.853041 122.61054 
L 116.853041 120.166901 
L 116.853041 117.723279 
L 116.853041 115.27964 
L 116.853041 112.836 
L 116.853041 110.39236 
L 116.853041 107.948721 
L 116.853041 105.505081 
L 116.853041 103.061441 
L 116.853041 100.61782 
L 116.853041 98.17418 
L 116.853041 95.73054 
L 116.853041 93.286901 
L 116.853041 90.843279 
L 116.853041 88.39964 
L 116.853041 85.956 
L 116.853041 83.51236 
L 116.853041 81.068721 
L 116.853041 78.625081 
L 116.853041 76.181441 
L 116.853041 73.73782 
L 116.853041 71.29418 
L 116.853041 68.85054 
L 116.853041 66.406901 
L 116.853041 63.963279 
L 116.853041 61.51964 
L 116.853041 59.076 
L 116.853041 56.63236 
L 116.853041 54.188721 
L 116.853041 51.745081 
L 116.853041 49.30146 
L 116.853041 46.85782 
L 116.853041 44.41418 
L 116.853041 41.97054 
L 116.853041 39.526901 
L 116.853041 37.083279 
L 116.853041 34.63964 
L 116.853041 32.196 
" clip-path="url(#p0036533f9f)" style="fill: none; stroke: #ff7f0e; stroke-linecap: round"/>
   </g>
   <g id="patch_7">
    <path d="M 38.312875 286.212 
L 38.312875 20.1 
" style="fill: none; stroke: #262626; stroke-linejoin: miter; stroke-linecap: square"/>
   </g>
   <g id="patch_8">
    <path d="M 395.432875 286.212 
L 395.432875 20.1 
" style="fill: none; stroke: #262626; stroke-linejoin: miter; stroke-linecap: square"/>
   </g>
   <g id="patch_9">
    <path d="M 38.312875 286.212 
L 395.432875 286.212 
" style="fill: none; stroke: #262626; stroke-linejoin: miter; stroke-linecap: square"/>
   </g>
   <g id="patch_10">
    <path d="M 38.312875 20.1 
L 395.432875 20.1 
" style="fill: none; stroke: #262626; stroke-linejoin: miter; stroke-linecap: square"/>
   </g>
  </g>
 </g>
 <defs>
  <clipPath id="p0036533f9f">
   <rect x="38.312875" y="20.1" width="357.12" height="266.112"/>
  </clipPath>
 </defs>
</svg>