<?xml version="1.0" encoding="utf-8" standalone="no"?>
<!DOCTYPE svg PUBLIC "-//W3C//DTD SVG 1.1//EN"
  "http://www.w3.org/Graphics/SVG/1.1/DTD/svg11.dtd">
<svg xmlns:xlink="http://www.w3.org/1999/xlink" width="402.632875pt" height="309.639375pt" viewBox="0 0 402.632875 309.639375" xmlns="http://www.w3.org/2000/svg" version="1.1">
 <metadata>
  <rdf:RDF xmlns:dc="http://purl.org/dc/elements/1.1/" xmlns:cc="http://creativecommons.org/ns#" xmlns:rdf="http://www.w3.org/1999/02/22-rdf-syntax-ns#">
   <cc:Work>
    <dc:type rdf:resource="http://purl.org/dc/dcmitype/StillImage"/>
    <dc:date>2023-09-30T21:40:50.709833</dc:date>
    <dc:format>image/svg+xml</dc:format>
    <dc:creator>
     <cc:Agent>
      <dc:title>Matplotlib v3.7.1, https://matplotlib.org/</dc:title>
     </cc:Agent>
    </dc:creator>
   </cc:Work>
  </rdf:RDF>
 </metadata>
 <defs>
  <style type="text/css">*{stroke-linejoin: round; stroke-linecap: butt}</style>
 </defs>
 <g id="figure_1">
  <g id="patch_1">
   <path d="M 0 309.639375 
L 402.632875 309.639375 
L 402.632875 0 
L 0 0 
z
" style="fill: #ffffff"/>
  </g>
  <g id="axes_1">
   <g id="patch_2">
    <path d="M 38.312875 273.312 
L 395.432875 273.312 
L 395.432875 7.2 
L 38.312875 7.2 
z
" style="fill: #ffffff"/>
   </g>
   <g id="matplotlib.axis_1">
    <g id="xtick_1">
     <g id="line2d_1">
      <defs>
       <path id="m70caf4402f" d="M 0 0 
L 0 4.8 
" style="stroke: #262626"/>
      </defs>
      <g>
       <use xlink:href="#m70caf4402f" x="73.799154" y="273.312" style="fill: #262626; stroke: #262626"/>
      </g>
     </g>
     <g id="text_1">
      <!-- −7.5 -->
      <g style="fill: #262626" transform="translate(65.113279 287.910875) scale(0.088 -0.088)">
       <defs>
        <path id="ArialMT-2212" d="M 3381 1997 
L 356 1997 
L 356 2522 
L 3381 2522 
L 3381 1997 
z
" transform="scale(0.015625)"/>
        <path id="ArialMT-37" d="M 303 3981 
L 303 4522 
L 3269 4522 
L 3269 4084 
Q 2831 3619 2401 2847 
Q 1972 2075 1738 1259 
Q 1569 684 1522 0 
L 944 0 
Q 953 541 1156 1306 
Q 1359 2072 1739 2783 
Q 2119 3494 2547 3981 
L 303 3981 
z
" transform="scale(0.015625)"/>
        <path id="ArialMT-2e" d="M 581 0 
L 581 641 
L 1222 641 
L 1222 0 
L 581 0 
z
" transform="scale(0.015625)"/>
        <path id="ArialMT-35" d="M 266 1200 
L 856 1250 
Q 922 819 1161 601 
Q 1400 384 1738 384 
Q 2144 384 2425 690 
Q 2706 997 2706 1503 
Q 2706 1984 2436 2262 
Q 2166 2541 1728 2541 
Q 1456 2541 1237 2417 
Q 1019 2294 894 2097 
L 366 2166 
L 809 4519 
L 3088 4519 
L 3088 3981 
L 1259 3981 
L 1013 2750 
Q 1425 3038 1878 3038 
Q 2478 3038 2890 2622 
Q 3303 2206 3303 1553 
Q 3303 931 2941 478 
Q 2500 -78 1738 -78 
Q 1113 -78 717 272 
Q 322 622 266 1200 
z
" transform="scale(0.015625)"/>
       </defs>
       <use xlink:href="#ArialMT-2212"/>
       <use xlink:href="#ArialMT-37" x="58.398438"/>
       <use xlink:href="#ArialMT-2e" x="114.013672"/>
       <use xlink:href="#ArialMT-35" x="141.796875"/>
      </g>
     </g>
    </g>
    <g id="xtick_2">
     <g id="line2d_2">
      <g>
       <use xlink:href="#m70caf4402f" x="123.363503" y="273.312" style="fill: #262626; stroke: #262626"/>
      </g>
     </g>
     <g id="text_2">
      <!-- −5.0 -->
      <g style="fill: #262626" transform="translate(114.677628 287.910875) scale(0.088 -0.088)">
       <defs>
        <path id="ArialMT-30" d="M 266 2259 
Q 266 3072 433 3567 
Q 600 4063 929 4331 
Q 1259 4600 1759 4600 
Q 2128 4600 2406 4451 
Q 2684 4303 2865 4023 
Q 3047 3744 3150 3342 
Q 3253 2941 3253 2259 
Q 3253 1453 3087 958 
Q 2922 463 2592 192 
Q 2263 -78 1759 -78 
Q 1097 -78 719 397 
Q 266 969 266 2259 
z
M 844 2259 
Q 844 1131 1108 757 
Q 1372 384 1759 384 
Q 2147 384 2411 759 
Q 2675 1134 2675 2259 
Q 2675 3391 2411 3762 
Q 2147 4134 1753 4134 
Q 1366 4134 1134 3806 
Q 844 3388 844 2259 
z
" transform="scale(0.015625)"/>
       </defs>
       <use xlink:href="#ArialMT-2212"/>
       <use xlink:href="#ArialMT-35" x="58.398438"/>
       <use xlink:href="#ArialMT-2e" x="114.013672"/>
       <use xlink:href="#ArialMT-30" x="141.796875"/>
      </g>
     </g>
    </g>
    <g id="xtick_3">
     <g id="line2d_3">
      <g>
       <use xlink:href="#m70caf4402f" x="172.927852" y="273.312" style="fill: #262626; stroke: #262626"/>
      </g>
     </g>
     <g id="text_3">
      <!-- −2.5 -->
      <g style="fill: #262626" transform="translate(164.241977 287.910875) scale(0.088 -0.088)">
       <defs>
        <path id="ArialMT-32" d="M 3222 541 
L 3222 0 
L 194 0 
Q 188 203 259 391 
Q 375 700 629 1000 
Q 884 1300 1366 1694 
Q 2113 2306 2375 2664 
Q 2638 3022 2638 3341 
Q 2638 3675 2398 3904 
Q 2159 4134 1775 4134 
Q 1369 4134 1125 3890 
Q 881 3647 878 3216 
L 300 3275 
Q 359 3922 746 4261 
Q 1134 4600 1788 4600 
Q 2447 4600 2831 4234 
Q 3216 3869 3216 3328 
Q 3216 3053 3103 2787 
Q 2991 2522 2730 2228 
Q 2469 1934 1863 1422 
Q 1356 997 1212 845 
Q 1069 694 975 541 
L 3222 541 
z
" transform="scale(0.015625)"/>
       </defs>
       <use xlink:href="#ArialMT-2212"/>
       <use xlink:href="#ArialMT-32" x="58.398438"/>
       <use xlink:href="#ArialMT-2e" x="114.013672"/>
       <use xlink:href="#ArialMT-35" x="141.796875"/>
      </g>
     </g>
    </g>
    <g id="xtick_4">
     <g id="line2d_4">
      <g>
       <use xlink:href="#m70caf4402f" x="222.492201" y="273.312" style="fill: #262626; stroke: #262626"/>
      </g>
     </g>
     <g id="text_4">
      <!-- 0.0 -->
      <g style="fill: #262626" transform="translate(216.376201 287.910875) scale(0.088 -0.088)">
       <use xlink:href="#ArialMT-30"/>
       <use xlink:href="#ArialMT-2e" x="55.615234"/>
       <use xlink:href="#ArialMT-30" x="83.398438"/>
      </g>
     </g>
    </g>
    <g id="xtick_5">
     <g id="line2d_5">
      <g>
       <use xlink:href="#m70caf4402f" x="272.056551" y="273.312" style="fill: #262626; stroke: #262626"/>
      </g>
     </g>
     <g id="text_5">
      <!-- 2.5 -->
      <g style="fill: #262626" transform="translate(265.940551 287.910875) scale(0.088 -0.088)">
       <use xlink:href="#ArialMT-32"/>
       <use xlink:href="#ArialMT-2e" x="55.615234"/>
       <use xlink:href="#ArialMT-35" x="83.398438"/>
      </g>
     </g>
    </g>
    <g id="xtick_6">
     <g id="line2d_6">
      <g>
       <use xlink:href="#m70caf4402f" x="321.6209" y="273.312" style="fill: #262626; stroke: #262626"/>
      </g>
     </g>
     <g id="text_6">
      <!-- 5.0 -->
      <g style="fill: #262626" transform="translate(315.5049 287.910875) scale(0.088 -0.088)">
       <use xlink:href="#ArialMT-35"/>
       <use xlink:href="#ArialMT-2e" x="55.615234"/>
       <use xlink:href="#ArialMT-30" x="83.398438"/>
      </g>
     </g>
    </g>
    <g id="xtick_7">
     <g id="line2d_7">
      <g>
       <use xlink:href="#m70caf4402f" x="371.185249" y="273.312" style="fill: #262626; stroke: #262626"/>
      </g>
     </g>
     <g id="text_7">
      <!-- 7.5 -->
      <g style="fill: #262626" transform="translate(365.069249 287.910875) scale(0.088 -0.088)">
       <use xlink:href="#ArialMT-37"/>
       <use xlink:href="#ArialMT-2e" x="55.615234"/>
       <use xlink:href="#ArialMT-35" x="83.398438"/>
      </g>
     </g>
    </g>
    <g id="text_8">
     <!-- $x_1$ -->
     <g style="fill: #262626" transform="translate(211.736875 300.531375) scale(0.096 -0.096)">
      <defs>
       <path id="DejaVuSans-Oblique-78" d="M 3841 3500 
L 2234 1784 
L 3219 0 
L 2559 0 
L 1819 1388 
L 531 0 
L -166 0 
L 1556 1844 
L 641 3500 
L 1300 3500 
L 1972 2234 
L 3144 3500 
L 3841 3500 
z
" transform="scale(0.015625)"/>
       <path id="DejaVuSans-31" d="M 794 531 
L 1825 531 
L 1825 4091 
L 703 3866 
L 703 4441 
L 1819 4666 
L 2450 4666 
L 2450 531 
L 3481 531 
L 3481 0 
L 794 0 
L 794 531 
z
" transform="scale(0.015625)"/>
      </defs>
      <use xlink:href="#DejaVuSans-Oblique-78" transform="translate(0 0.3125)"/>
      <use xlink:href="#DejaVuSans-31" transform="translate(59.179688 -16.09375) scale(0.7)"/>
     </g>
    </g>
   </g>
   <g id="matplotlib.axis_2">
    <g id="ytick_1">
     <g id="line2d_8">
      <defs>
       <path id="mfc3523363b" d="M 0 0 
L -4.8 0 
" style="stroke: #262626"/>
      </defs>
      <g>
       <use xlink:href="#mfc3523363b" x="38.312875" y="224.502703" style="fill: #262626; stroke: #262626"/>
      </g>
     </g>
     <g id="text_9">
      <!-- −6 -->
      <g style="fill: #262626" transform="translate(19.9795 227.65214) scale(0.088 -0.088)">
       <defs>
        <path id="ArialMT-36" d="M 3184 3459 
L 2625 3416 
Q 2550 3747 2413 3897 
Q 2184 4138 1850 4138 
Q 1581 4138 1378 3988 
Q 1113 3794 959 3422 
Q 806 3050 800 2363 
Q 1003 2672 1297 2822 
Q 1591 2972 1913 2972 
Q 2475 2972 2870 2558 
Q 3266 2144 3266 1488 
Q 3266 1056 3080 686 
Q 2894 316 2569 119 
Q 2244 -78 1831 -78 
Q 1128 -78 684 439 
Q 241 956 241 2144 
Q 241 3472 731 4075 
Q 1159 4600 1884 4600 
Q 2425 4600 2770 4297 
Q 3116 3994 3184 3459 
z
M 888 1484 
Q 888 1194 1011 928 
Q 1134 663 1356 523 
Q 1578 384 1822 384 
Q 2178 384 2434 671 
Q 2691 959 2691 1453 
Q 2691 1928 2437 2201 
Q 2184 2475 1800 2475 
Q 1419 2475 1153 2201 
Q 888 1928 888 1484 
z
" transform="scale(0.015625)"/>
       </defs>
       <use xlink:href="#ArialMT-2212"/>
       <use xlink:href="#ArialMT-36" x="58.398438"/>
      </g>
     </g>
    </g>
    <g id="ytick_2">
     <g id="line2d_9">
      <g>
       <use xlink:href="#mfc3523363b" x="38.312875" y="167.280588" style="fill: #262626; stroke: #262626"/>
      </g>
     </g>
     <g id="text_10">
      <!-- −4 -->
      <g style="fill: #262626" transform="translate(19.9795 170.430025) scale(0.088 -0.088)">
       <defs>
        <path id="ArialMT-34" d="M 2069 0 
L 2069 1097 
L 81 1097 
L 81 1613 
L 2172 4581 
L 2631 4581 
L 2631 1613 
L 3250 1613 
L 3250 1097 
L 2631 1097 
L 2631 0 
L 2069 0 
z
M 2069 1613 
L 2069 3678 
L 634 1613 
L 2069 1613 
z
" transform="scale(0.015625)"/>
       </defs>
       <use xlink:href="#ArialMT-2212"/>
       <use xlink:href="#ArialMT-34" x="58.398438"/>
      </g>
     </g>
    </g>
    <g id="ytick_3">
     <g id="line2d_10">
      <g>
       <use xlink:href="#mfc3523363b" x="38.312875" y="110.058473" style="fill: #262626; stroke: #262626"/>
      </g>
     </g>
     <g id="text_11">
      <!-- −2 -->
      <g style="fill: #262626" transform="translate(19.9795 113.20791) scale(0.088 -0.088)">
       <use xlink:href="#ArialMT-2212"/>
       <use xlink:href="#ArialMT-32" x="58.398438"/>
      </g>
     </g>
    </g>
    <g id="ytick_4">
     <g id="line2d_11">
      <g>
       <use xlink:href="#mfc3523363b" x="38.312875" y="52.836358" style="fill: #262626; stroke: #262626"/>
      </g>
     </g>
     <g id="text_12">
      <!-- 0 -->
      <g style="fill: #262626" transform="translate(25.11925 55.985796) scale(0.088 -0.088)">
       <use xlink:href="#ArialMT-30"/>
      </g>
     </g>
    </g>
    <g id="text_13">
     <!-- $x_2$ -->
     <g style="fill: #262626" transform="translate(14.0715 145.392) rotate(-90) scale(0.096 -0.096)">
      <defs>
       <path id="DejaVuSans-32" d="M 1228 531 
L 3431 531 
L 3431 0 
L 469 0 
L 469 531 
Q 828 903 1448 1529 
Q 2069 2156 2228 2338 
Q 2531 2678 2651 2914 
Q 2772 3150 2772 3378 
Q 2772 3750 2511 3984 
Q 2250 4219 1831 4219 
Q 1534 4219 1204 4116 
Q 875 4013 500 3803 
L 500 4441 
Q 881 4594 1212 4672 
Q 1544 4750 1819 4750 
Q 2544 4750 2975 4387 
Q 3406 4025 3406 3419 
Q 3406 3131 3298 2873 
Q 3191 2616 2906 2266 
Q 2828 2175 2409 1742 
Q 1991 1309 1228 531 
z
" transform="scale(0.015625)"/>
      </defs>
      <use xlink:href="#DejaVuSans-Oblique-78" transform="translate(0 0.3125)"/>
      <use xlink:href="#DejaVuSans-32" transform="translate(59.179688 -16.09375) scale(0.7)"/>
     </g>
    </g>
   </g>
   <g id="PathCollection_1">
    <defs>
     <path id="C0_0_a187778428" d="M 0 2.4 
C 0.636487 2.4 1.246992 2.147121 1.697056 1.697056 
C 2.147121 1.246992 2.4 0.636487 2.4 -0 
C 2.4 -0.636487 2.147121 -1.246992 1.697056 -1.697056 
C 1.246992 -2.147121 0.636487 -2.4 0 -2.4 
C -0.636487 -2.4 -1.246992 -2.147121 -1.697056 -1.697056 
C -2.147121 -1.246992 -2.4 -0.636487 -2.4 0 
C -2.4 0.636487 -2.147121 1.246992 -1.697056 1.697056 
C -1.246992 2.147121 -0.636487 2.4 0 2.4 
z
"/>
    </defs>
    <g clip-path="url(#p9ff116202e)">
     <use xlink:href="#C0_0_a187778428" x="266.456607" y="95.269604" style="fill: #03051a; stroke: #03051a; stroke-width: 0.8"/>
    </g>
    <g clip-path="url(#p9ff116202e)">
     <use xlink:href="#C0_0_a187778428" x="322.043191" y="67.708419" style="fill: #cb1b4f; stroke: #cb1b4f; stroke-width: 0.8"/>
    </g>
    <g clip-path="url(#p9ff116202e)">
     <use xlink:href="#C0_0_a187778428" x="263.448145" y="105.706457" style="fill: #03051a; stroke: #03051a; stroke-width: 0.8"/>
    </g>
    <g clip-path="url(#p9ff116202e)">
     <use xlink:href="#C0_0_a187778428" x="72.37394" y="216.186642" style="fill: #611f53; stroke: #611f53; stroke-width: 0.8"/>
    </g>
    <g clip-path="url(#p9ff116202e)">
     <use xlink:href="#C0_0_a187778428" x="268.810571" y="87.490581" style="fill: #03051a; stroke: #03051a; stroke-width: 0.8"/>
    </g>
    <g clip-path="url(#p9ff116202e)">
     <use xlink:href="#C0_0_a187778428" x="87.871765" y="235.845253" style="fill: #611f53; stroke: #611f53; stroke-width: 0.8"/>
    </g>
    <g clip-path="url(#p9ff116202e)">
     <use xlink:href="#C0_0_a187778428" x="271.382869" y="67.336221" style="fill: #03051a; stroke: #03051a; stroke-width: 0.8"/>
    </g>
    <g clip-path="url(#p9ff116202e)">
     <use xlink:href="#C0_0_a187778428" x="350.915449" y="79.059444" style="fill: #faebdd; stroke: #faebdd; stroke-width: 0.8"/>
    </g>
    <g clip-path="url(#p9ff116202e)">
     <use xlink:href="#C0_0_a187778428" x="70.60051" y="212.088266" style="fill: #611f53; stroke: #611f53; stroke-width: 0.8"/>
    </g>
    <g clip-path="url(#p9ff116202e)">
     <use xlink:href="#C0_0_a187778428" x="77.76001" y="223.685788" style="fill: #611f53; stroke: #611f53; stroke-width: 0.8"/>
    </g>
    <g clip-path="url(#p9ff116202e)">
     <use xlink:href="#C0_0_a187778428" x="72.54214" y="217.155557" style="fill: #611f53; stroke: #611f53; stroke-width: 0.8"/>
    </g>
    <g clip-path="url(#p9ff116202e)">
     <use xlink:href="#C0_0_a187778428" x="64.109602" y="206.625523" style="fill: #611f53; stroke: #611f53; stroke-width: 0.8"/>
    </g>
    <g clip-path="url(#p9ff116202e)">
     <use xlink:href="#C0_0_a187778428" x="72.894167" y="214.495783" style="fill: #611f53; stroke: #611f53; stroke-width: 0.8"/>
    </g>
    <g clip-path="url(#p9ff116202e)">
     <use xlink:href="#C0_0_a187778428" x="84.444539" y="234.272929" style="fill: #611f53; stroke: #611f53; stroke-width: 0.8"/>
    </g>
    <g clip-path="url(#p9ff116202e)">
     <use xlink:href="#C0_0_a187778428" x="88.348392" y="235.705417" style="fill: #611f53; stroke: #611f53; stroke-width: 0.8"/>
    </g>
    <g clip-path="url(#p9ff116202e)">
     <use xlink:href="#C0_0_a187778428" x="269.604143" y="58.319051" style="fill: #f58860; stroke: #f58860; stroke-width: 0.8"/>
    </g>
    <g clip-path="url(#p9ff116202e)">
     <use xlink:href="#C0_0_a187778428" x="286.289596" y="37.87758" style="fill: #f58860; stroke: #f58860; stroke-width: 0.8"/>
    </g>
    <g clip-path="url(#p9ff116202e)">
     <use xlink:href="#C0_0_a187778428" x="360.48847" y="86.343352" style="fill: #faebdd; stroke: #faebdd; stroke-width: 0.8"/>
    </g>
    <g clip-path="url(#p9ff116202e)">
     <use xlink:href="#C0_0_a187778428" x="276.757748" y="49.032643" style="fill: #f58860; stroke: #f58860; stroke-width: 0.8"/>
    </g>
    <g clip-path="url(#p9ff116202e)">
     <use xlink:href="#C0_0_a187778428" x="85.369753" y="244.345771" style="fill: #611f53; stroke: #611f53; stroke-width: 0.8"/>
    </g>
    <g clip-path="url(#p9ff116202e)">
     <use xlink:href="#C0_0_a187778428" x="356.225865" y="86.592777" style="fill: #faebdd; stroke: #faebdd; stroke-width: 0.8"/>
    </g>
    <g clip-path="url(#p9ff116202e)">
     <use xlink:href="#C0_0_a187778428" x="266.967339" y="134.132858" style="fill: #03051a; stroke: #03051a; stroke-width: 0.8"/>
    </g>
    <g clip-path="url(#p9ff116202e)">
     <use xlink:href="#C0_0_a187778428" x="341.781338" y="77.70104" style="fill: #faebdd; stroke: #faebdd; stroke-width: 0.8"/>
    </g>
    <g clip-path="url(#p9ff116202e)">
     <use xlink:href="#C0_0_a187778428" x="276.85408" y="83.218751" style="fill: #03051a; stroke: #03051a; stroke-width: 0.8"/>
    </g>
    <g clip-path="url(#p9ff116202e)">
     <use xlink:href="#C0_0_a187778428" x="82.874246" y="233.866" style="fill: #611f53; stroke: #611f53; stroke-width: 0.8"/>
    </g>
    <g clip-path="url(#p9ff116202e)">
     <use xlink:href="#C0_0_a187778428" x="286.43748" y="35.658018" style="fill: #f58860; stroke: #f58860; stroke-width: 0.8"/>
    </g>
    <g clip-path="url(#p9ff116202e)">
     <use xlink:href="#C0_0_a187778428" x="258.802804" y="121.715388" style="fill: #03051a; stroke: #03051a; stroke-width: 0.8"/>
    </g>
    <g clip-path="url(#p9ff116202e)">
     <use xlink:href="#C0_0_a187778428" x="353.334652" y="87.54966" style="fill: #faebdd; stroke: #faebdd; stroke-width: 0.8"/>
    </g>
    <g clip-path="url(#p9ff116202e)">
     <use xlink:href="#C0_0_a187778428" x="339.289249" y="72.32195" style="fill: #cb1b4f; stroke: #cb1b4f; stroke-width: 0.8"/>
    </g>
    <g clip-path="url(#p9ff116202e)">
     <use xlink:href="#C0_0_a187778428" x="337.024427" y="75.68383" style="fill: #cb1b4f; stroke: #cb1b4f; stroke-width: 0.8"/>
    </g>
    <g clip-path="url(#p9ff116202e)">
     <use xlink:href="#C0_0_a187778428" x="82.401716" y="224.417923" style="fill: #611f53; stroke: #611f53; stroke-width: 0.8"/>
    </g>
    <g clip-path="url(#p9ff116202e)">
     <use xlink:href="#C0_0_a187778428" x="281.700283" y="51.796335" style="fill: #03051a; stroke: #03051a; stroke-width: 0.8"/>
    </g>
    <g clip-path="url(#p9ff116202e)">
     <use xlink:href="#C0_0_a187778428" x="68.239358" y="202.409449" style="fill: #611f53; stroke: #611f53; stroke-width: 0.8"/>
    </g>
    <g clip-path="url(#p9ff116202e)">
     <use xlink:href="#C0_0_a187778428" x="365.235347" y="91.122384" style="fill: #faebdd; stroke: #faebdd; stroke-width: 0.8"/>
    </g>
    <g clip-path="url(#p9ff116202e)">
     <use xlink:href="#C0_0_a187778428" x="258.891748" y="126.50363" style="fill: #03051a; stroke: #03051a; stroke-width: 0.8"/>
    </g>
    <g clip-path="url(#p9ff116202e)">
     <use xlink:href="#C0_0_a187778428" x="271.670399" y="99.410179" style="fill: #03051a; stroke: #03051a; stroke-width: 0.8"/>
    </g>
    <g clip-path="url(#p9ff116202e)">
     <use xlink:href="#C0_0_a187778428" x="269.029715" y="103.541577" style="fill: #03051a; stroke: #03051a; stroke-width: 0.8"/>
    </g>
    <g clip-path="url(#p9ff116202e)">
     <use xlink:href="#C0_0_a187778428" x="68.508226" y="203.750042" style="fill: #611f53; stroke: #611f53; stroke-width: 0.8"/>
    </g>
    <g clip-path="url(#p9ff116202e)">
     <use xlink:href="#C0_0_a187778428" x="73.473654" y="222.70589" style="fill: #611f53; stroke: #611f53; stroke-width: 0.8"/>
    </g>
    <g clip-path="url(#p9ff116202e)">
     <use xlink:href="#C0_0_a187778428" x="271.750499" y="104.776985" style="fill: #03051a; stroke: #03051a; stroke-width: 0.8"/>
    </g>
    <g clip-path="url(#p9ff116202e)">
     <use xlink:href="#C0_0_a187778428" x="270.637821" y="130.068459" style="fill: #03051a; stroke: #03051a; stroke-width: 0.8"/>
    </g>
    <g clip-path="url(#p9ff116202e)">
     <use xlink:href="#C0_0_a187778428" x="354.677905" y="92.701287" style="fill: #faebdd; stroke: #faebdd; stroke-width: 0.8"/>
    </g>
    <g clip-path="url(#p9ff116202e)">
     <use xlink:href="#C0_0_a187778428" x="350.424351" y="80.327571" style="fill: #faebdd; stroke: #faebdd; stroke-width: 0.8"/>
    </g>
    <g clip-path="url(#p9ff116202e)">
     <use xlink:href="#C0_0_a187778428" x="336.440098" y="64.149634" style="fill: #cb1b4f; stroke: #cb1b4f; stroke-width: 0.8"/>
    </g>
    <g clip-path="url(#p9ff116202e)">
     <use xlink:href="#C0_0_a187778428" x="273.483691" y="70.469782" style="fill: #03051a; stroke: #03051a; stroke-width: 0.8"/>
    </g>
    <g clip-path="url(#p9ff116202e)">
     <use xlink:href="#C0_0_a187778428" x="339.445467" y="62.494586" style="fill: #cb1b4f; stroke: #cb1b4f; stroke-width: 0.8"/>
    </g>
    <g clip-path="url(#p9ff116202e)">
     <use xlink:href="#C0_0_a187778428" x="65.291611" y="189.445572" style="fill: #611f53; stroke: #611f53; stroke-width: 0.8"/>
    </g>
    <g clip-path="url(#p9ff116202e)">
     <use xlink:href="#C0_0_a187778428" x="269.328969" y="106.648861" style="fill: #03051a; stroke: #03051a; stroke-width: 0.8"/>
    </g>
    <g clip-path="url(#p9ff116202e)">
     <use xlink:href="#C0_0_a187778428" x="73.291019" y="204.842107" style="fill: #611f53; stroke: #611f53; stroke-width: 0.8"/>
    </g>
    <g clip-path="url(#p9ff116202e)">
     <use xlink:href="#C0_0_a187778428" x="56.059878" y="168.170104" style="fill: #611f53; stroke: #611f53; stroke-width: 0.8"/>
    </g>
    <g clip-path="url(#p9ff116202e)">
     <use xlink:href="#C0_0_a187778428" x="272.271653" y="127.177591" style="fill: #03051a; stroke: #03051a; stroke-width: 0.8"/>
    </g>
    <g clip-path="url(#p9ff116202e)">
     <use xlink:href="#C0_0_a187778428" x="355.154324" y="82.853067" style="fill: #faebdd; stroke: #faebdd; stroke-width: 0.8"/>
    </g>
    <g clip-path="url(#p9ff116202e)">
     <use xlink:href="#C0_0_a187778428" x="372.310343" y="102.964468" style="fill: #faebdd; stroke: #faebdd; stroke-width: 0.8"/>
    </g>
    <g clip-path="url(#p9ff116202e)">
     <use xlink:href="#C0_0_a187778428" x="69.343518" y="212.88487" style="fill: #611f53; stroke: #611f53; stroke-width: 0.8"/>
    </g>
    <g clip-path="url(#p9ff116202e)">
     <use xlink:href="#C0_0_a187778428" x="72.083969" y="213.913548" style="fill: #611f53; stroke: #611f53; stroke-width: 0.8"/>
    </g>
    <g clip-path="url(#p9ff116202e)">
     <use xlink:href="#C0_0_a187778428" x="79.327686" y="237.19517" style="fill: #611f53; stroke: #611f53; stroke-width: 0.8"/>
    </g>
    <g clip-path="url(#p9ff116202e)">
     <use xlink:href="#C0_0_a187778428" x="80.61109" y="231.610901" style="fill: #611f53; stroke: #611f53; stroke-width: 0.8"/>
    </g>
    <g clip-path="url(#p9ff116202e)">
     <use xlink:href="#C0_0_a187778428" x="335.150725" y="84.327766" style="fill: #faebdd; stroke: #faebdd; stroke-width: 0.8"/>
    </g>
    <g clip-path="url(#p9ff116202e)">
     <use xlink:href="#C0_0_a187778428" x="67.290856" y="206.581224" style="fill: #611f53; stroke: #611f53; stroke-width: 0.8"/>
    </g>
    <g clip-path="url(#p9ff116202e)">
     <use xlink:href="#C0_0_a187778428" x="273.116733" y="94.969773" style="fill: #03051a; stroke: #03051a; stroke-width: 0.8"/>
    </g>
    <g clip-path="url(#p9ff116202e)">
     <use xlink:href="#C0_0_a187778428" x="353.310303" y="90.581315" style="fill: #faebdd; stroke: #faebdd; stroke-width: 0.8"/>
    </g>
    <g clip-path="url(#p9ff116202e)">
     <use xlink:href="#C0_0_a187778428" x="329.170054" y="76.335959" style="fill: #cb1b4f; stroke: #cb1b4f; stroke-width: 0.8"/>
    </g>
    <g clip-path="url(#p9ff116202e)">
     <use xlink:href="#C0_0_a187778428" x="67.997991" y="198.991448" style="fill: #611f53; stroke: #611f53; stroke-width: 0.8"/>
    </g>
    <g clip-path="url(#p9ff116202e)">
     <use xlink:href="#C0_0_a187778428" x="89.306483" y="244.672823" style="fill: #611f53; stroke: #611f53; stroke-width: 0.8"/>
    </g>
    <g clip-path="url(#p9ff116202e)">
     <use xlink:href="#C0_0_a187778428" x="73.055306" y="209.155693" style="fill: #611f53; stroke: #611f53; stroke-width: 0.8"/>
    </g>
    <g clip-path="url(#p9ff116202e)">
     <use xlink:href="#C0_0_a187778428" x="80.47224" y="239.458262" style="fill: #611f53; stroke: #611f53; stroke-width: 0.8"/>
    </g>
    <g clip-path="url(#p9ff116202e)">
     <use xlink:href="#C0_0_a187778428" x="329.644289" y="67.692455" style="fill: #cb1b4f; stroke: #cb1b4f; stroke-width: 0.8"/>
    </g>
    <g clip-path="url(#p9ff116202e)">
     <use xlink:href="#C0_0_a187778428" x="262.356954" y="105.431126" style="fill: #03051a; stroke: #03051a; stroke-width: 0.8"/>
    </g>
    <g clip-path="url(#p9ff116202e)">
     <use xlink:href="#C0_0_a187778428" x="54.545602" y="171.092346" style="fill: #611f53; stroke: #611f53; stroke-width: 0.8"/>
    </g>
    <g clip-path="url(#p9ff116202e)">
     <use xlink:href="#C0_0_a187778428" x="80.378454" y="237.990838" style="fill: #611f53; stroke: #611f53; stroke-width: 0.8"/>
    </g>
    <g clip-path="url(#p9ff116202e)">
     <use xlink:href="#C0_0_a187778428" x="79.037338" y="234.741819" style="fill: #611f53; stroke: #611f53; stroke-width: 0.8"/>
    </g>
    <g clip-path="url(#p9ff116202e)">
     <use xlink:href="#C0_0_a187778428" x="345.327667" y="80.801868" style="fill: #faebdd; stroke: #faebdd; stroke-width: 0.8"/>
    </g>
    <g clip-path="url(#p9ff116202e)">
     <use xlink:href="#C0_0_a187778428" x="81.385255" y="233.112465" style="fill: #611f53; stroke: #611f53; stroke-width: 0.8"/>
    </g>
    <g clip-path="url(#p9ff116202e)">
     <use xlink:href="#C0_0_a187778428" x="265.906431" y="98.401655" style="fill: #03051a; stroke: #03051a; stroke-width: 0.8"/>
    </g>
    <g clip-path="url(#p9ff116202e)">
     <use xlink:href="#C0_0_a187778428" x="274.68375" y="50.580599" style="fill: #f58860; stroke: #f58860; stroke-width: 0.8"/>
    </g>
    <g clip-path="url(#p9ff116202e)">
     <use xlink:href="#C0_0_a187778428" x="330.266571" y="75.661464" style="fill: #cb1b4f; stroke: #cb1b4f; stroke-width: 0.8"/>
    </g>
    <g clip-path="url(#p9ff116202e)">
     <use xlink:href="#C0_0_a187778428" x="317.462233" y="71.698063" style="fill: #cb1b4f; stroke: #cb1b4f; stroke-width: 0.8"/>
    </g>
    <g clip-path="url(#p9ff116202e)">
     <use xlink:href="#C0_0_a187778428" x="325.990661" y="71.969011" style="fill: #cb1b4f; stroke: #cb1b4f; stroke-width: 0.8"/>
    </g>
    <g clip-path="url(#p9ff116202e)">
     <use xlink:href="#C0_0_a187778428" x="85.423178" y="236.976014" style="fill: #611f53; stroke: #611f53; stroke-width: 0.8"/>
    </g>
    <g clip-path="url(#p9ff116202e)">
     <use xlink:href="#C0_0_a187778428" x="344.139337" y="67.014649" style="fill: #cb1b4f; stroke: #cb1b4f; stroke-width: 0.8"/>
    </g>
    <g clip-path="url(#p9ff116202e)">
     <use xlink:href="#C0_0_a187778428" x="93.854767" y="253.333774" style="fill: #611f53; stroke: #611f53; stroke-width: 0.8"/>
    </g>
    <g clip-path="url(#p9ff116202e)">
     <use xlink:href="#C0_0_a187778428" x="265.749208" y="79.046391" style="fill: #03051a; stroke: #03051a; stroke-width: 0.8"/>
    </g>
    <g clip-path="url(#p9ff116202e)">
     <use xlink:href="#C0_0_a187778428" x="337.773045" y="71.783793" style="fill: #cb1b4f; stroke: #cb1b4f; stroke-width: 0.8"/>
    </g>
    <g clip-path="url(#p9ff116202e)">
     <use xlink:href="#C0_0_a187778428" x="61.241386" y="196.89621" style="fill: #611f53; stroke: #611f53; stroke-width: 0.8"/>
    </g>
    <g clip-path="url(#p9ff116202e)">
     <use xlink:href="#C0_0_a187778428" x="266.60166" y="47.618031" style="fill: #f58860; stroke: #f58860; stroke-width: 0.8"/>
    </g>
    <g clip-path="url(#p9ff116202e)">
     <use xlink:href="#C0_0_a187778428" x="263.307845" y="151.423845" style="fill: #03051a; stroke: #03051a; stroke-width: 0.8"/>
    </g>
    <g clip-path="url(#p9ff116202e)">
     <use xlink:href="#C0_0_a187778428" x="345.921672" y="67.924548" style="fill: #cb1b4f; stroke: #cb1b4f; stroke-width: 0.8"/>
    </g>
    <g clip-path="url(#p9ff116202e)">
     <use xlink:href="#C0_0_a187778428" x="350.636226" y="83.245456" style="fill: #faebdd; stroke: #faebdd; stroke-width: 0.8"/>
    </g>
    <g clip-path="url(#p9ff116202e)">
     <use xlink:href="#C0_0_a187778428" x="252.472401" y="138.594837" style="fill: #03051a; stroke: #03051a; stroke-width: 0.8"/>
    </g>
    <g clip-path="url(#p9ff116202e)">
     <use xlink:href="#C0_0_a187778428" x="347.699998" y="81.87748" style="fill: #faebdd; stroke: #faebdd; stroke-width: 0.8"/>
    </g>
    <g clip-path="url(#p9ff116202e)">
     <use xlink:href="#C0_0_a187778428" x="336.983256" y="70.328185" style="fill: #cb1b4f; stroke: #cb1b4f; stroke-width: 0.8"/>
    </g>
    <g clip-path="url(#p9ff116202e)">
     <use xlink:href="#C0_0_a187778428" x="344.938937" y="83.328621" style="fill: #faebdd; stroke: #faebdd; stroke-width: 0.8"/>
    </g>
    <g clip-path="url(#p9ff116202e)">
     <use xlink:href="#C0_0_a187778428" x="379.200148" y="97.607863" style="fill: #faebdd; stroke: #faebdd; stroke-width: 0.8"/>
    </g>
    <g clip-path="url(#p9ff116202e)">
     <use xlink:href="#C0_0_a187778428" x="261.506657" y="129.612716" style="fill: #03051a; stroke: #03051a; stroke-width: 0.8"/>
    </g>
    <g clip-path="url(#p9ff116202e)">
     <use xlink:href="#C0_0_a187778428" x="356.267732" y="82.838058" style="fill: #faebdd; stroke: #faebdd; stroke-width: 0.8"/>
    </g>
    <g clip-path="url(#p9ff116202e)">
     <use xlink:href="#C0_0_a187778428" x="64.294446" y="192.79857" style="fill: #611f53; stroke: #611f53; stroke-width: 0.8"/>
    </g>
    <g clip-path="url(#p9ff116202e)">
     <use xlink:href="#C0_0_a187778428" x="272.926337" y="72.198445" style="fill: #03051a; stroke: #03051a; stroke-width: 0.8"/>
    </g>
    <g clip-path="url(#p9ff116202e)">
     <use xlink:href="#C0_0_a187778428" x="285.558972" y="36.500956" style="fill: #f58860; stroke: #f58860; stroke-width: 0.8"/>
    </g>
    <g clip-path="url(#p9ff116202e)">
     <use xlink:href="#C0_0_a187778428" x="69.731909" y="208.634506" style="fill: #611f53; stroke: #611f53; stroke-width: 0.8"/>
    </g>
    <g clip-path="url(#p9ff116202e)">
     <use xlink:href="#C0_0_a187778428" x="71.735254" y="212.923181" style="fill: #611f53; stroke: #611f53; stroke-width: 0.8"/>
    </g>
    <g clip-path="url(#p9ff116202e)">
     <use xlink:href="#C0_0_a187778428" x="367.091422" y="96.601314" style="fill: #faebdd; stroke: #faebdd; stroke-width: 0.8"/>
    </g>
    <g clip-path="url(#p9ff116202e)">
     <use xlink:href="#C0_0_a187778428" x="68.384448" y="207.192856" style="fill: #611f53; stroke: #611f53; stroke-width: 0.8"/>
    </g>
    <g clip-path="url(#p9ff116202e)">
     <use xlink:href="#C0_0_a187778428" x="272.970185" y="77.110496" style="fill: #03051a; stroke: #03051a; stroke-width: 0.8"/>
    </g>
    <g clip-path="url(#p9ff116202e)">
     <use xlink:href="#C0_0_a187778428" x="373.879106" y="91.388978" style="fill: #faebdd; stroke: #faebdd; stroke-width: 0.8"/>
    </g>
    <g clip-path="url(#p9ff116202e)">
     <use xlink:href="#C0_0_a187778428" x="291.193331" y="22.953985" style="fill: #f58860; stroke: #f58860; stroke-width: 0.8"/>
    </g>
    <g clip-path="url(#p9ff116202e)">
     <use xlink:href="#C0_0_a187778428" x="270.334464" y="114.093233" style="fill: #03051a; stroke: #03051a; stroke-width: 0.8"/>
    </g>
    <g clip-path="url(#p9ff116202e)">
     <use xlink:href="#C0_0_a187778428" x="60.700213" y="185.276622" style="fill: #611f53; stroke: #611f53; stroke-width: 0.8"/>
    </g>
    <g clip-path="url(#p9ff116202e)">
     <use xlink:href="#C0_0_a187778428" x="93.04132" y="261.216" style="fill: #611f53; stroke: #611f53; stroke-width: 0.8"/>
    </g>
    <g clip-path="url(#p9ff116202e)">
     <use xlink:href="#C0_0_a187778428" x="332.449789" y="61.612138" style="fill: #cb1b4f; stroke: #cb1b4f; stroke-width: 0.8"/>
    </g>
    <g clip-path="url(#p9ff116202e)">
     <use xlink:href="#C0_0_a187778428" x="278.663435" y="54.499786" style="fill: #03051a; stroke: #03051a; stroke-width: 0.8"/>
    </g>
    <g clip-path="url(#p9ff116202e)">
     <use xlink:href="#C0_0_a187778428" x="270.325639" y="89.430692" style="fill: #03051a; stroke: #03051a; stroke-width: 0.8"/>
    </g>
    <g clip-path="url(#p9ff116202e)">
     <use xlink:href="#C0_0_a187778428" x="353.460364" y="81.440278" style="fill: #faebdd; stroke: #faebdd; stroke-width: 0.8"/>
    </g>
    <g clip-path="url(#p9ff116202e)">
     <use xlink:href="#C0_0_a187778428" x="341.25454" y="79.851953" style="fill: #faebdd; stroke: #faebdd; stroke-width: 0.8"/>
    </g>
    <g clip-path="url(#p9ff116202e)">
     <use xlink:href="#C0_0_a187778428" x="74.032385" y="206.818515" style="fill: #611f53; stroke: #611f53; stroke-width: 0.8"/>
    </g>
    <g clip-path="url(#p9ff116202e)">
     <use xlink:href="#C0_0_a187778428" x="337.434472" y="82.001233" style="fill: #faebdd; stroke: #faebdd; stroke-width: 0.8"/>
    </g>
    <g clip-path="url(#p9ff116202e)">
     <use xlink:href="#C0_0_a187778428" x="275.222548" y="46.486685" style="fill: #f58860; stroke: #f58860; stroke-width: 0.8"/>
    </g>
    <g clip-path="url(#p9ff116202e)">
     <use xlink:href="#C0_0_a187778428" x="351.461557" y="92.009937" style="fill: #faebdd; stroke: #faebdd; stroke-width: 0.8"/>
    </g>
    <g clip-path="url(#p9ff116202e)">
     <use xlink:href="#C0_0_a187778428" x="70.787991" y="210.618298" style="fill: #611f53; stroke: #611f53; stroke-width: 0.8"/>
    </g>
    <g clip-path="url(#p9ff116202e)">
     <use xlink:href="#C0_0_a187778428" x="347.861692" y="82.561838" style="fill: #faebdd; stroke: #faebdd; stroke-width: 0.8"/>
    </g>
    <g clip-path="url(#p9ff116202e)">
     <use xlink:href="#C0_0_a187778428" x="277.628853" y="42.637141" style="fill: #f58860; stroke: #f58860; stroke-width: 0.8"/>
    </g>
    <g clip-path="url(#p9ff116202e)">
     <use xlink:href="#C0_0_a187778428" x="342.815643" y="73.888498" style="fill: #cb1b4f; stroke: #cb1b4f; stroke-width: 0.8"/>
    </g>
    <g clip-path="url(#p9ff116202e)">
     <use xlink:href="#C0_0_a187778428" x="70.267275" y="209.759075" style="fill: #611f53; stroke: #611f53; stroke-width: 0.8"/>
    </g>
    <g clip-path="url(#p9ff116202e)">
     <use xlink:href="#C0_0_a187778428" x="266.788262" y="127.753316" style="fill: #03051a; stroke: #03051a; stroke-width: 0.8"/>
    </g>
    <g clip-path="url(#p9ff116202e)">
     <use xlink:href="#C0_0_a187778428" x="363.272224" y="82.540741" style="fill: #faebdd; stroke: #faebdd; stroke-width: 0.8"/>
    </g>
    <g clip-path="url(#p9ff116202e)">
     <use xlink:href="#C0_0_a187778428" x="329.707678" y="59.648626" style="fill: #cb1b4f; stroke: #cb1b4f; stroke-width: 0.8"/>
    </g>
    <g clip-path="url(#p9ff116202e)">
     <use xlink:href="#C0_0_a187778428" x="354.781387" y="89.263791" style="fill: #faebdd; stroke: #faebdd; stroke-width: 0.8"/>
    </g>
    <g clip-path="url(#p9ff116202e)">
     <use xlink:href="#C0_0_a187778428" x="62.994448" y="191.550858" style="fill: #611f53; stroke: #611f53; stroke-width: 0.8"/>
    </g>
    <g clip-path="url(#p9ff116202e)">
     <use xlink:href="#C0_0_a187778428" x="251.17295" y="173.678114" style="fill: #03051a; stroke: #03051a; stroke-width: 0.8"/>
    </g>
    <g clip-path="url(#p9ff116202e)">
     <use xlink:href="#C0_0_a187778428" x="262.331006" y="115.949138" style="fill: #03051a; stroke: #03051a; stroke-width: 0.8"/>
    </g>
    <g clip-path="url(#p9ff116202e)">
     <use xlink:href="#C0_0_a187778428" x="259.914424" y="145.29585" style="fill: #03051a; stroke: #03051a; stroke-width: 0.8"/>
    </g>
    <g clip-path="url(#p9ff116202e)">
     <use xlink:href="#C0_0_a187778428" x="334.858911" y="80.900642" style="fill: #faebdd; stroke: #faebdd; stroke-width: 0.8"/>
    </g>
    <g clip-path="url(#p9ff116202e)">
     <use xlink:href="#C0_0_a187778428" x="334.379357" y="64.33621" style="fill: #cb1b4f; stroke: #cb1b4f; stroke-width: 0.8"/>
    </g>
    <g clip-path="url(#p9ff116202e)">
     <use xlink:href="#C0_0_a187778428" x="245.523757" y="206.580689" style="fill: #03051a; stroke: #03051a; stroke-width: 0.8"/>
    </g>
    <g clip-path="url(#p9ff116202e)">
     <use xlink:href="#C0_0_a187778428" x="70.516612" y="197.677899" style="fill: #611f53; stroke: #611f53; stroke-width: 0.8"/>
    </g>
    <g clip-path="url(#p9ff116202e)">
     <use xlink:href="#C0_0_a187778428" x="270.699186" y="93.569468" style="fill: #03051a; stroke: #03051a; stroke-width: 0.8"/>
    </g>
    <g clip-path="url(#p9ff116202e)">
     <use xlink:href="#C0_0_a187778428" x="350.372378" y="84.749052" style="fill: #faebdd; stroke: #faebdd; stroke-width: 0.8"/>
    </g>
    <g clip-path="url(#p9ff116202e)">
     <use xlink:href="#C0_0_a187778428" x="81.062726" y="230.153896" style="fill: #611f53; stroke: #611f53; stroke-width: 0.8"/>
    </g>
    <g clip-path="url(#p9ff116202e)">
     <use xlink:href="#C0_0_a187778428" x="274.806246" y="93.148351" style="fill: #03051a; stroke: #03051a; stroke-width: 0.8"/>
    </g>
    <g clip-path="url(#p9ff116202e)">
     <use xlink:href="#C0_0_a187778428" x="274.195645" y="50.007131" style="fill: #f58860; stroke: #f58860; stroke-width: 0.8"/>
    </g>
    <g clip-path="url(#p9ff116202e)">
     <use xlink:href="#C0_0_a187778428" x="283.486628" y="19.296" style="fill: #03051a; stroke: #03051a; stroke-width: 0.8"/>
    </g>
    <g clip-path="url(#p9ff116202e)">
     <use xlink:href="#C0_0_a187778428" x="341.342602" y="65.369828" style="fill: #cb1b4f; stroke: #cb1b4f; stroke-width: 0.8"/>
    </g>
    <g clip-path="url(#p9ff116202e)">
     <use xlink:href="#C0_0_a187778428" x="259.48116" y="114.446503" style="fill: #03051a; stroke: #03051a; stroke-width: 0.8"/>
    </g>
    <g clip-path="url(#p9ff116202e)">
     <use xlink:href="#C0_0_a187778428" x="272.366712" y="42.609759" style="fill: #f58860; stroke: #f58860; stroke-width: 0.8"/>
    </g>
    <g clip-path="url(#p9ff116202e)">
     <use xlink:href="#C0_0_a187778428" x="367.223715" y="103.792629" style="fill: #faebdd; stroke: #faebdd; stroke-width: 0.8"/>
    </g>
    <g clip-path="url(#p9ff116202e)">
     <use xlink:href="#C0_0_a187778428" x="69.540156" y="206.335838" style="fill: #611f53; stroke: #611f53; stroke-width: 0.8"/>
    </g>
    <g clip-path="url(#p9ff116202e)">
     <use xlink:href="#C0_0_a187778428" x="340.746495" y="76.738108" style="fill: #faebdd; stroke: #faebdd; stroke-width: 0.8"/>
    </g>
    <g clip-path="url(#p9ff116202e)">
     <use xlink:href="#C0_0_a187778428" x="272.379382" y="79.706527" style="fill: #03051a; stroke: #03051a; stroke-width: 0.8"/>
    </g>
    <g clip-path="url(#p9ff116202e)">
     <use xlink:href="#C0_0_a187778428" x="89.465673" y="259.547511" style="fill: #611f53; stroke: #611f53; stroke-width: 0.8"/>
    </g>
    <g clip-path="url(#p9ff116202e)">
     <use xlink:href="#C0_0_a187778428" x="81.610357" y="234.463294" style="fill: #611f53; stroke: #611f53; stroke-width: 0.8"/>
    </g>
    <g clip-path="url(#p9ff116202e)">
     <use xlink:href="#C0_0_a187778428" x="60.422738" y="188.554316" style="fill: #611f53; stroke: #611f53; stroke-width: 0.8"/>
    </g>
   </g>
   <g id="patch_3">
    <path d="M 38.312875 224.502703 
L 38.312875 52.836358 
" style="fill: none; stroke: #262626; stroke-linejoin: miter; stroke-linecap: square"/>
   </g>
   <g id="patch_4">
    <path d="M 73.799154 273.312 
L 371.185249 273.312 
" style="fill: none; stroke: #262626; stroke-linejoin: miter; stroke-linecap: square"/>
   </g>
  </g>
 </g>
 <defs>
  <clipPath id="p9ff116202e">
   <rect x="38.312875" y="7.2" width="357.12" height="266.112"/>
  </clipPath>
 </defs>
</svg>