<?xml version="1.0" encoding="UTF-8" standalone="no"?>
<!DOCTYPE svg PUBLIC "-//W3C//DTD SVG 1.1//EN"
 "http://www.w3.org/Graphics/SVG/1.1/DTD/svg11.dtd">
<!-- Generated by graphviz version 8.1.0 (20230707.0739)
 -->
<!-- Title: coin_toss_g Pages: 1 -->
<svg width="206pt" height="116pt"
 viewBox="0.00 0.00 206.00 116.00" xmlns="http://www.w3.org/2000/svg" xmlns:xlink="http://www.w3.org/1999/xlink">
<g id="graph0" class="graph" transform="scale(1 1) rotate(0) translate(4 112)">
<title>coin_toss_g</title>
<polygon fill="white" stroke="none" points="-4,4 -4,-112 202,-112 202,4 -4,4"/>
<!-- omega0 -->
<g id="node1" class="node">
<title>omega0</title>
<ellipse fill="none" stroke="black" cx="27" cy="-90" rx="27" ry="18"/>
<text text-anchor="start" x="19.5" y="-85.95" font-family="Times,serif" font-size="14.00">ω</text>
<text text-anchor="start" x="28.5" y="-85.95" font-family="Times,serif" baseline-shift="sub" font-size="14.00">0</text>
</g>
<!-- X -->
<g id="node4" class="node">
<title>X</title>
<ellipse fill="none" stroke="black" cx="99" cy="-18" rx="27" ry="18"/>
<text text-anchor="middle" x="99" y="-12.95" font-family="Times,serif" font-size="14.00">X</text>
</g>
<!-- omega0&#45;&gt;X -->
<g id="edge3" class="edge">
<title>omega0&#45;&gt;X</title>
<path fill="none" stroke="black" d="M41.92,-74.5C51.86,-64.83 65.12,-51.94 76.35,-41.02"/>
<polygon fill="black" stroke="black" points="78.37,-43.97 83.1,-34.49 73.49,-38.95 78.37,-43.97"/>
</g>
<!-- v0 -->
<g id="node2" class="node">
<title>v0</title>
<ellipse fill="none" stroke="black" cx="99" cy="-90" rx="27" ry="18"/>
<text text-anchor="start" x="92.62" y="-85.95" font-family="Times,serif" font-size="14.00">v</text>
<text text-anchor="start" x="99.38" y="-85.95" font-family="Times,serif" baseline-shift="sub" font-size="14.00">0</text>
</g>
<!-- v0&#45;&gt;X -->
<g id="edge2" class="edge">
<title>v0&#45;&gt;X</title>
<path fill="none" stroke="black" d="M99,-71.7C99,-64.24 99,-55.32 99,-46.97"/>
<polygon fill="black" stroke="black" points="102.5,-47.1 99,-37.1 95.5,-47.1 102.5,-47.1"/>
</g>
<!-- g -->
<g id="node3" class="node">
<title>g</title>
<ellipse fill="lightgrey" stroke="black" cx="171" cy="-90" rx="27" ry="18"/>
<text text-anchor="middle" x="171" y="-84.95" font-family="Times,serif" font-size="14.00">g</text>
</g>
<!-- g&#45;&gt;X -->
<g id="edge1" class="edge">
<title>g&#45;&gt;X</title>
<path fill="none" stroke="black" d="M156.08,-74.5C146.14,-64.83 132.88,-51.94 121.65,-41.02"/>
<polygon fill="black" stroke="black" points="124.51,-38.95 114.9,-34.49 119.63,-43.97 124.51,-38.95"/>
</g>
</g>
</svg>