<?xml version="1.0" encoding="UTF-8" standalone="no"?>
<!DOCTYPE svg PUBLIC "-//W3C//DTD SVG 1.1//EN"
 "http://www.w3.org/Graphics/SVG/1.1/DTD/svg11.dtd">
<!-- Generated by graphviz version 3.0.0 (20220226.1711)
 -->
<!-- Title: space_shuttle_disaster Pages: 1 -->
<svg width="134pt" height="227pt"
 viewBox="0.00 0.00 134.00 227.00" xmlns="http://www.w3.org/2000/svg" xmlns:xlink="http://www.w3.org/1999/xlink">
<g id="graph0" class="graph" transform="scale(1 1) rotate(0) translate(4 223)">
<title>space_shuttle_disaster</title>
<polygon fill="white" stroke="transparent" points="-4,4 -4,-223 130,-223 130,4 -4,4"/>
<g id="clust1" class="cluster">
<title>cluster_0</title>
<polygon fill="none" stroke="blue" points="28,-8 28,-155 98,-155 98,-8 28,-8"/>
<text text-anchor="middle" x="63" y="-15.8" font-family="Times,serif" font-size="14.00">i=1,2...</text>
</g>
<!-- alpha -->
<g id="node1" class="node">
<title>alpha</title>
<ellipse fill="none" stroke="black" cx="27" cy="-201" rx="27" ry="18"/>
<text text-anchor="start" x="23" y="-197.3" font-family="Times,serif" font-size="14.00">α</text>
</g>
<!-- pi -->
<g id="node3" class="node">
<title>pi</title>
<ellipse fill="none" stroke="black" cx="63" cy="-129" rx="27" ry="18"/>
<text text-anchor="start" x="57.5" y="-126.3" font-family="Times,serif" font-size="14.00">p</text>
<text text-anchor="start" x="64.5" y="-126.3" font-family="Times,serif" baseline-shift="sub" font-size="14.00">i</text>
</g>
<!-- alpha&#45;&gt;pi -->
<g id="edge1" class="edge">
<title>alpha&#45;&gt;pi</title>
<path fill="none" stroke="black" d="M35.35,-183.76C39.71,-175.28 45.15,-164.71 50.04,-155.2"/>
<polygon fill="black" stroke="black" points="53.23,-156.64 54.7,-146.15 47.01,-153.44 53.23,-156.64"/>
</g>
<!-- beta -->
<g id="node2" class="node">
<title>beta</title>
<ellipse fill="none" stroke="black" cx="99" cy="-201" rx="27" ry="18"/>
<text text-anchor="start" x="95.5" y="-197.3" font-family="Times,serif" font-size="14.00">β</text>
</g>
<!-- beta&#45;&gt;pi -->
<g id="edge2" class="edge">
<title>beta&#45;&gt;pi</title>
<path fill="none" stroke="black" d="M90.65,-183.76C86.29,-175.28 80.85,-164.71 75.96,-155.2"/>
<polygon fill="black" stroke="black" points="78.99,-153.44 71.3,-146.15 72.77,-156.64 78.99,-153.44"/>
</g>
<!-- xi -->
<g id="node4" class="node">
<title>xi</title>
<ellipse fill="lightgrey" stroke="black" cx="63" cy="-57" rx="27" ry="18"/>
<text text-anchor="start" x="57.5" y="-54.3" font-family="Times,serif" font-size="14.00">x</text>
<text text-anchor="start" x="64.5" y="-54.3" font-family="Times,serif" baseline-shift="sub" font-size="14.00">i</text>
</g>
<!-- pi&#45;&gt;xi -->
<g id="edge3" class="edge">
<title>pi&#45;&gt;xi</title>
<path fill="none" stroke="black" d="M63,-110.7C63,-102.98 63,-93.71 63,-85.11"/>
<polygon fill="black" stroke="black" points="66.5,-85.1 63,-75.1 59.5,-85.1 66.5,-85.1"/>
</g>
</g>
</svg>