<?xml version="1.0" encoding="utf-8" standalone="no"?>
<!DOCTYPE svg PUBLIC "-//W3C//DTD SVG 1.1//EN"
  "http://www.w3.org/Graphics/SVG/1.1/DTD/svg11.dtd">
<svg xmlns:xlink="http://www.w3.org/1999/xlink" width="409.97125pt" height="309.639375pt" viewBox="0 0 409.97125 309.639375" xmlns="http://www.w3.org/2000/svg" version="1.1">
 <metadata>
  <rdf:RDF xmlns:dc="http://purl.org/dc/elements/1.1/" xmlns:cc="http://creativecommons.org/ns#" xmlns:rdf="http://www.w3.org/1999/02/22-rdf-syntax-ns#">
   <cc:Work>
    <dc:type rdf:resource="http://purl.org/dc/dcmitype/StillImage"/>
    <dc:date>2023-10-16T21:07:56.404834</dc:date>
    <dc:format>image/svg+xml</dc:format>
    <dc:creator>
     <cc:Agent>
      <dc:title>Matplotlib v3.7.1, https://matplotlib.org/</dc:title>
     </cc:Agent>
    </dc:creator>
   </cc:Work>
  </rdf:RDF>
 </metadata>
 <defs>
  <style type="text/css">*{stroke-linejoin: round; stroke-linecap: butt}</style>
 </defs>
 <g id="figure_1">
  <g id="patch_1">
   <path d="M 0 309.639375 
L 409.97125 309.639375 
L 409.97125 0 
L 0 0 
z
" style="fill: #ffffff"/>
  </g>
  <g id="axes_1">
   <g id="patch_2">
    <path d="M 45.65125 273.312 
L 402.77125 273.312 
L 402.77125 7.2 
L 45.65125 7.2 
z
" style="fill: #ffffff"/>
   </g>
   <g id="matplotlib.axis_1">
    <g id="xtick_1">
     <g id="line2d_1">
      <defs>
       <path id="mb90687f9ae" d="M 0 0 
L 0 4.8 
" style="stroke: #262626"/>
      </defs>
      <g>
       <use xlink:href="#mb90687f9ae" x="61.883977" y="273.312" style="fill: #262626; stroke: #262626"/>
      </g>
     </g>
     <g id="text_1">
      <!-- 0.0 -->
      <g style="fill: #262626" transform="translate(55.767977 287.910875) scale(0.088 -0.088)">
       <defs>
        <path id="ArialMT-30" d="M 266 2259 
Q 266 3072 433 3567 
Q 600 4063 929 4331 
Q 1259 4600 1759 4600 
Q 2128 4600 2406 4451 
Q 2684 4303 2865 4023 
Q 3047 3744 3150 3342 
Q 3253 2941 3253 2259 
Q 3253 1453 3087 958 
Q 2922 463 2592 192 
Q 2263 -78 1759 -78 
Q 1097 -78 719 397 
Q 266 969 266 2259 
z
M 844 2259 
Q 844 1131 1108 757 
Q 1372 384 1759 384 
Q 2147 384 2411 759 
Q 2675 1134 2675 2259 
Q 2675 3391 2411 3762 
Q 2147 4134 1753 4134 
Q 1366 4134 1134 3806 
Q 844 3388 844 2259 
z
" transform="scale(0.015625)"/>
        <path id="ArialMT-2e" d="M 581 0 
L 581 641 
L 1222 641 
L 1222 0 
L 581 0 
z
" transform="scale(0.015625)"/>
       </defs>
       <use xlink:href="#ArialMT-30"/>
       <use xlink:href="#ArialMT-2e" x="55.615234"/>
       <use xlink:href="#ArialMT-30" x="83.398438"/>
      </g>
     </g>
    </g>
    <g id="xtick_2">
     <g id="line2d_2">
      <g>
       <use xlink:href="#mb90687f9ae" x="126.814886" y="273.312" style="fill: #262626; stroke: #262626"/>
      </g>
     </g>
     <g id="text_2">
      <!-- 0.2 -->
      <g style="fill: #262626" transform="translate(120.698886 287.910875) scale(0.088 -0.088)">
       <defs>
        <path id="ArialMT-32" d="M 3222 541 
L 3222 0 
L 194 0 
Q 188 203 259 391 
Q 375 700 629 1000 
Q 884 1300 1366 1694 
Q 2113 2306 2375 2664 
Q 2638 3022 2638 3341 
Q 2638 3675 2398 3904 
Q 2159 4134 1775 4134 
Q 1369 4134 1125 3890 
Q 881 3647 878 3216 
L 300 3275 
Q 359 3922 746 4261 
Q 1134 4600 1788 4600 
Q 2447 4600 2831 4234 
Q 3216 3869 3216 3328 
Q 3216 3053 3103 2787 
Q 2991 2522 2730 2228 
Q 2469 1934 1863 1422 
Q 1356 997 1212 845 
Q 1069 694 975 541 
L 3222 541 
z
" transform="scale(0.015625)"/>
       </defs>
       <use xlink:href="#ArialMT-30"/>
       <use xlink:href="#ArialMT-2e" x="55.615234"/>
       <use xlink:href="#ArialMT-32" x="83.398438"/>
      </g>
     </g>
    </g>
    <g id="xtick_3">
     <g id="line2d_3">
      <g>
       <use xlink:href="#mb90687f9ae" x="191.745795" y="273.312" style="fill: #262626; stroke: #262626"/>
      </g>
     </g>
     <g id="text_3">
      <!-- 0.4 -->
      <g style="fill: #262626" transform="translate(185.629795 287.910875) scale(0.088 -0.088)">
       <defs>
        <path id="ArialMT-34" d="M 2069 0 
L 2069 1097 
L 81 1097 
L 81 1613 
L 2172 4581 
L 2631 4581 
L 2631 1613 
L 3250 1613 
L 3250 1097 
L 2631 1097 
L 2631 0 
L 2069 0 
z
M 2069 1613 
L 2069 3678 
L 634 1613 
L 2069 1613 
z
" transform="scale(0.015625)"/>
       </defs>
       <use xlink:href="#ArialMT-30"/>
       <use xlink:href="#ArialMT-2e" x="55.615234"/>
       <use xlink:href="#ArialMT-34" x="83.398438"/>
      </g>
     </g>
    </g>
    <g id="xtick_4">
     <g id="line2d_4">
      <g>
       <use xlink:href="#mb90687f9ae" x="256.676705" y="273.312" style="fill: #262626; stroke: #262626"/>
      </g>
     </g>
     <g id="text_4">
      <!-- 0.6 -->
      <g style="fill: #262626" transform="translate(250.560705 287.910875) scale(0.088 -0.088)">
       <defs>
        <path id="ArialMT-36" d="M 3184 3459 
L 2625 3416 
Q 2550 3747 2413 3897 
Q 2184 4138 1850 4138 
Q 1581 4138 1378 3988 
Q 1113 3794 959 3422 
Q 806 3050 800 2363 
Q 1003 2672 1297 2822 
Q 1591 2972 1913 2972 
Q 2475 2972 2870 2558 
Q 3266 2144 3266 1488 
Q 3266 1056 3080 686 
Q 2894 316 2569 119 
Q 2244 -78 1831 -78 
Q 1128 -78 684 439 
Q 241 956 241 2144 
Q 241 3472 731 4075 
Q 1159 4600 1884 4600 
Q 2425 4600 2770 4297 
Q 3116 3994 3184 3459 
z
M 888 1484 
Q 888 1194 1011 928 
Q 1134 663 1356 523 
Q 1578 384 1822 384 
Q 2178 384 2434 671 
Q 2691 959 2691 1453 
Q 2691 1928 2437 2201 
Q 2184 2475 1800 2475 
Q 1419 2475 1153 2201 
Q 888 1928 888 1484 
z
" transform="scale(0.015625)"/>
       </defs>
       <use xlink:href="#ArialMT-30"/>
       <use xlink:href="#ArialMT-2e" x="55.615234"/>
       <use xlink:href="#ArialMT-36" x="83.398438"/>
      </g>
     </g>
    </g>
    <g id="xtick_5">
     <g id="line2d_5">
      <g>
       <use xlink:href="#mb90687f9ae" x="321.607614" y="273.312" style="fill: #262626; stroke: #262626"/>
      </g>
     </g>
     <g id="text_5">
      <!-- 0.8 -->
      <g style="fill: #262626" transform="translate(315.491614 287.910875) scale(0.088 -0.088)">
       <defs>
        <path id="ArialMT-38" d="M 1131 2484 
Q 781 2613 612 2850 
Q 444 3088 444 3419 
Q 444 3919 803 4259 
Q 1163 4600 1759 4600 
Q 2359 4600 2725 4251 
Q 3091 3903 3091 3403 
Q 3091 3084 2923 2848 
Q 2756 2613 2416 2484 
Q 2838 2347 3058 2040 
Q 3278 1734 3278 1309 
Q 3278 722 2862 322 
Q 2447 -78 1769 -78 
Q 1091 -78 675 323 
Q 259 725 259 1325 
Q 259 1772 486 2073 
Q 713 2375 1131 2484 
z
M 1019 3438 
Q 1019 3113 1228 2906 
Q 1438 2700 1772 2700 
Q 2097 2700 2305 2904 
Q 2513 3109 2513 3406 
Q 2513 3716 2298 3927 
Q 2084 4138 1766 4138 
Q 1444 4138 1231 3931 
Q 1019 3725 1019 3438 
z
M 838 1322 
Q 838 1081 952 856 
Q 1066 631 1291 507 
Q 1516 384 1775 384 
Q 2178 384 2440 643 
Q 2703 903 2703 1303 
Q 2703 1709 2433 1975 
Q 2163 2241 1756 2241 
Q 1359 2241 1098 1978 
Q 838 1716 838 1322 
z
" transform="scale(0.015625)"/>
       </defs>
       <use xlink:href="#ArialMT-30"/>
       <use xlink:href="#ArialMT-2e" x="55.615234"/>
       <use xlink:href="#ArialMT-38" x="83.398438"/>
      </g>
     </g>
    </g>
    <g id="xtick_6">
     <g id="line2d_6">
      <g>
       <use xlink:href="#mb90687f9ae" x="386.538523" y="273.312" style="fill: #262626; stroke: #262626"/>
      </g>
     </g>
     <g id="text_6">
      <!-- 1.0 -->
      <g style="fill: #262626" transform="translate(380.422523 287.910875) scale(0.088 -0.088)">
       <defs>
        <path id="ArialMT-31" d="M 2384 0 
L 1822 0 
L 1822 3584 
Q 1619 3391 1289 3197 
Q 959 3003 697 2906 
L 697 3450 
Q 1169 3672 1522 3987 
Q 1875 4303 2022 4600 
L 2384 4600 
L 2384 0 
z
" transform="scale(0.015625)"/>
       </defs>
       <use xlink:href="#ArialMT-31"/>
       <use xlink:href="#ArialMT-2e" x="55.615234"/>
       <use xlink:href="#ArialMT-30" x="83.398438"/>
      </g>
     </g>
    </g>
    <g id="text_7">
     <!-- $x$ -->
     <g style="fill: #262626" transform="translate(221.33125 300.531375) scale(0.096 -0.096)">
      <defs>
       <path id="DejaVuSans-Oblique-78" d="M 3841 3500 
L 2234 1784 
L 3219 0 
L 2559 0 
L 1819 1388 
L 531 0 
L -166 0 
L 1556 1844 
L 641 3500 
L 1300 3500 
L 1972 2234 
L 3144 3500 
L 3841 3500 
z
" transform="scale(0.015625)"/>
      </defs>
      <use xlink:href="#DejaVuSans-Oblique-78" transform="translate(0 0.3125)"/>
     </g>
    </g>
   </g>
   <g id="matplotlib.axis_2">
    <g id="ytick_1">
     <g id="line2d_7">
      <defs>
       <path id="m8a57352d22" d="M 0 0 
L -4.8 0 
" style="stroke: #262626"/>
      </defs>
      <g>
       <use xlink:href="#m8a57352d22" x="45.65125" y="249.877682" style="fill: #262626; stroke: #262626"/>
      </g>
     </g>
     <g id="text_8">
      <!-- −2.0 -->
      <g style="fill: #262626" transform="translate(19.9795 253.02712) scale(0.088 -0.088)">
       <defs>
        <path id="ArialMT-2212" d="M 3381 1997 
L 356 1997 
L 356 2522 
L 3381 2522 
L 3381 1997 
z
" transform="scale(0.015625)"/>
       </defs>
       <use xlink:href="#ArialMT-2212"/>
       <use xlink:href="#ArialMT-32" x="58.398438"/>
       <use xlink:href="#ArialMT-2e" x="114.013672"/>
       <use xlink:href="#ArialMT-30" x="141.796875"/>
      </g>
     </g>
    </g>
    <g id="ytick_2">
     <g id="line2d_8">
      <g>
       <use xlink:href="#m8a57352d22" x="45.65125" y="218.171673" style="fill: #262626; stroke: #262626"/>
      </g>
     </g>
     <g id="text_9">
      <!-- −1.5 -->
      <g style="fill: #262626" transform="translate(19.9795 221.321111) scale(0.088 -0.088)">
       <defs>
        <path id="ArialMT-35" d="M 266 1200 
L 856 1250 
Q 922 819 1161 601 
Q 1400 384 1738 384 
Q 2144 384 2425 690 
Q 2706 997 2706 1503 
Q 2706 1984 2436 2262 
Q 2166 2541 1728 2541 
Q 1456 2541 1237 2417 
Q 1019 2294 894 2097 
L 366 2166 
L 809 4519 
L 3088 4519 
L 3088 3981 
L 1259 3981 
L 1013 2750 
Q 1425 3038 1878 3038 
Q 2478 3038 2890 2622 
Q 3303 2206 3303 1553 
Q 3303 931 2941 478 
Q 2500 -78 1738 -78 
Q 1113 -78 717 272 
Q 322 622 266 1200 
z
" transform="scale(0.015625)"/>
       </defs>
       <use xlink:href="#ArialMT-2212"/>
       <use xlink:href="#ArialMT-31" x="58.398438"/>
       <use xlink:href="#ArialMT-2e" x="114.013672"/>
       <use xlink:href="#ArialMT-35" x="141.796875"/>
      </g>
     </g>
    </g>
    <g id="ytick_3">
     <g id="line2d_9">
      <g>
       <use xlink:href="#m8a57352d22" x="45.65125" y="186.465664" style="fill: #262626; stroke: #262626"/>
      </g>
     </g>
     <g id="text_10">
      <!-- −1.0 -->
      <g style="fill: #262626" transform="translate(19.9795 189.615101) scale(0.088 -0.088)">
       <use xlink:href="#ArialMT-2212"/>
       <use xlink:href="#ArialMT-31" x="58.398438"/>
       <use xlink:href="#ArialMT-2e" x="114.013672"/>
       <use xlink:href="#ArialMT-30" x="141.796875"/>
      </g>
     </g>
    </g>
    <g id="ytick_4">
     <g id="line2d_10">
      <g>
       <use xlink:href="#m8a57352d22" x="45.65125" y="154.759654" style="fill: #262626; stroke: #262626"/>
      </g>
     </g>
     <g id="text_11">
      <!-- −0.5 -->
      <g style="fill: #262626" transform="translate(19.9795 157.909092) scale(0.088 -0.088)">
       <use xlink:href="#ArialMT-2212"/>
       <use xlink:href="#ArialMT-30" x="58.398438"/>
       <use xlink:href="#ArialMT-2e" x="114.013672"/>
       <use xlink:href="#ArialMT-35" x="141.796875"/>
      </g>
     </g>
    </g>
    <g id="ytick_5">
     <g id="line2d_11">
      <g>
       <use xlink:href="#m8a57352d22" x="45.65125" y="123.053645" style="fill: #262626; stroke: #262626"/>
      </g>
     </g>
     <g id="text_12">
      <!-- 0.0 -->
      <g style="fill: #262626" transform="translate(25.11925 126.203082) scale(0.088 -0.088)">
       <use xlink:href="#ArialMT-30"/>
       <use xlink:href="#ArialMT-2e" x="55.615234"/>
       <use xlink:href="#ArialMT-30" x="83.398438"/>
      </g>
     </g>
    </g>
    <g id="ytick_6">
     <g id="line2d_12">
      <g>
       <use xlink:href="#m8a57352d22" x="45.65125" y="91.347635" style="fill: #262626; stroke: #262626"/>
      </g>
     </g>
     <g id="text_13">
      <!-- 0.5 -->
      <g style="fill: #262626" transform="translate(25.11925 94.497073) scale(0.088 -0.088)">
       <use xlink:href="#ArialMT-30"/>
       <use xlink:href="#ArialMT-2e" x="55.615234"/>
       <use xlink:href="#ArialMT-35" x="83.398438"/>
      </g>
     </g>
    </g>
    <g id="ytick_7">
     <g id="line2d_13">
      <g>
       <use xlink:href="#m8a57352d22" x="45.65125" y="59.641626" style="fill: #262626; stroke: #262626"/>
      </g>
     </g>
     <g id="text_14">
      <!-- 1.0 -->
      <g style="fill: #262626" transform="translate(25.11925 62.791064) scale(0.088 -0.088)">
       <use xlink:href="#ArialMT-31"/>
       <use xlink:href="#ArialMT-2e" x="55.615234"/>
       <use xlink:href="#ArialMT-30" x="83.398438"/>
      </g>
     </g>
    </g>
    <g id="ytick_8">
     <g id="line2d_14">
      <g>
       <use xlink:href="#m8a57352d22" x="45.65125" y="27.935617" style="fill: #262626; stroke: #262626"/>
      </g>
     </g>
     <g id="text_15">
      <!-- 1.5 -->
      <g style="fill: #262626" transform="translate(25.11925 31.085054) scale(0.088 -0.088)">
       <use xlink:href="#ArialMT-31"/>
       <use xlink:href="#ArialMT-2e" x="55.615234"/>
       <use xlink:href="#ArialMT-35" x="83.398438"/>
      </g>
     </g>
    </g>
    <g id="text_16">
     <!-- $y$ -->
     <g style="fill: #262626" transform="translate(13.9635 143.136) rotate(-90) scale(0.096 -0.096)">
      <defs>
       <path id="DejaVuSans-Oblique-79" d="M 1588 -325 
Q 1188 -997 936 -1164 
Q 684 -1331 294 -1331 
L -159 -1331 
L -63 -850 
L 269 -850 
Q 509 -850 678 -719 
Q 847 -588 1056 -206 
L 1234 128 
L 459 3500 
L 1069 3500 
L 1650 819 
L 3256 3500 
L 3859 3500 
L 1588 -325 
z
" transform="scale(0.015625)"/>
      </defs>
      <use xlink:href="#DejaVuSans-Oblique-79" transform="translate(0 0.3125)"/>
     </g>
    </g>
   </g>
   <g id="PolyCollection_1">
    <defs>
     <path id="maa161506b1" d="M 61.883977 -266.989207 
L 61.883977 -101.015788 
L 65.163316 -101.015788 
L 68.442655 -101.015788 
L 71.721994 -101.015788 
L 75.001333 -101.015788 
L 78.280671 -101.015788 
L 81.560011 -101.015788 
L 84.839348 -101.015773 
L 88.118688 -101.01569 
L 91.398028 -101.015115 
L 94.677365 -101.012076 
L 97.956705 -100.998802 
L 101.236045 -100.953945 
L 104.515382 -100.854276 
L 107.794719 -100.83441 
L 111.074061 -101.757718 
L 114.353399 -106.016818 
L 117.632736 -116.922244 
L 120.912078 -134.45761 
L 124.191416 -145.309906 
L 127.470753 -131.822959 
L 130.750095 -111.900563 
L 134.029432 -95.52617 
L 137.30877 -80.941178 
L 140.588112 -66.785856 
L 143.867444 -57.826995 
L 147.146787 -62.082965 
L 150.426129 -77.48663 
L 153.705461 -78.145204 
L 156.984803 -76.563201 
L 160.264145 -82.032817 
L 163.543478 -89.899419 
L 166.82282 -95.990908 
L 170.102162 -99.243086 
L 173.381495 -100.517244 
L 176.660837 -100.86981 
L 179.940179 -100.838008 
L 183.219512 -100.479025 
L 186.498854 -99.605245 
L 189.778196 -98.306194 
L 193.057528 -98.032184 
L 196.336871 -102.241846 
L 199.616213 -114.045341 
L 202.895545 -128.282356 
L 206.174887 -124.421045 
L 209.45423 -109.320278 
L 212.733562 -100.102148 
L 216.012904 -97.830555 
L 219.292246 -98.734391 
L 222.571579 -99.960774 
L 225.850931 -100.648565 
L 229.130254 -100.914584 
L 232.409596 -100.998999 
L 235.688938 -101.045647 
L 238.968261 -101.164714 
L 242.247622 -101.566974 
L 245.526945 -102.761125 
L 248.806287 -105.876018 
L 252.085629 -113.057325 
L 255.364972 -127.174241 
L 258.644314 -149.288245 
L 261.923637 -172.9048 
L 265.202998 -175.773357 
L 268.482321 -153.763847 
L 271.761663 -130.559837 
L 275.041005 -114.979753 
L 278.320328 -106.775197 
L 281.59969 -103.130782 
L 284.879012 -101.71872 
L 288.158355 -101.303971 
L 291.437697 -101.469883 
L 294.717039 -102.477152 
L 297.996381 -105.429014 
L 301.275704 -112.592564 
L 304.555065 -127.182965 
L 307.834388 -151.121561 
L 311.11373 -180.575503 
L 314.393072 -202.889419 
L 317.672395 -202.207141 
L 320.951757 -183.572184 
L 324.23108 -157.427651 
L 327.510422 -130.037981 
L 330.789764 -111.530935 
L 334.069106 -105.843475 
L 337.348448 -111.759052 
L 340.627771 -127.436356 
L 343.907113 -147.878987 
L 347.186455 -154.271915 
L 350.465798 -137.514765 
L 353.74514 -120.419767 
L 357.024463 -112.64653 
L 360.303805 -115.132028 
L 363.583147 -127.63732 
L 366.862489 -149.738874 
L 370.141831 -176.175627 
L 373.421173 -187.708139 
L 376.700516 -168.794611 
L 379.979838 -142.29247 
L 383.259181 -122.131745 
L 386.538523 -110.363711 
L 386.538523 -273.20962 
L 386.538523 -273.20962 
L 383.259181 -276.036784 
L 379.979838 -274.454826 
L 376.700516 -264.905221 
L 373.421173 -254.151631 
L 370.141831 -261.122153 
L 366.862489 -272.633201 
L 363.583147 -276.362666 
L 360.303805 -273.740057 
L 357.024463 -267.387552 
L 353.74514 -256.376303 
L 350.465798 -239.086025 
L 347.186455 -222.546682 
L 343.907113 -227.823524 
L 340.627771 -245.155268 
L 337.348448 -256.055917 
L 334.069106 -257.151471 
L 330.789764 -250.333276 
L 327.510422 -239.906988 
L 324.23108 -233.552019 
L 320.951757 -237.971096 
L 317.672395 -247.635702 
L 314.393072 -259.661243 
L 311.11373 -274.016848 
L 307.834388 -281.125404 
L 304.555065 -279.885504 
L 301.275704 -275.012975 
L 297.996381 -270.728401 
L 294.717039 -268.36119 
L 291.437697 -267.434866 
L 288.158355 -267.273581 
L 284.879012 -267.651833 
L 281.59969 -268.759649 
L 278.320328 -270.689296 
L 275.041005 -272.261246 
L 271.761663 -270.072374 
L 268.482321 -260.396861 
L 265.202998 -246.688135 
L 261.923637 -248.686452 
L 258.644314 -262.694791 
L 255.364972 -270.932834 
L 252.085629 -272.13214 
L 248.806287 -270.310923 
L 245.526945 -268.492888 
L 242.247622 -267.513891 
L 238.968261 -267.136107 
L 235.688938 -267.018945 
L 232.409596 -266.972312 
L 229.130254 -266.886355 
L 225.850931 -266.599926 
L 222.571579 -265.727371 
L 219.292246 -263.354861 
L 216.012904 -257.576591 
L 212.733562 -245.527919 
L 209.45423 -225.54069 
L 206.174887 -202.636361 
L 202.895545 -197.530618 
L 199.616213 -217.701044 
L 196.336871 -239.775267 
L 193.057528 -254.437886 
L 189.778196 -261.953677 
L 186.498854 -265.178838 
L 183.219512 -266.404397 
L 179.940179 -266.807285 
L 176.660837 -266.840826 
L 173.381495 -266.463223 
L 170.102162 -264.974744 
L 166.82282 -260.465167 
L 163.543478 -249.25278 
L 160.264145 -226.698379 
L 156.984803 -191.010326 
L 153.705461 -149.213329 
L 150.426129 -127.44932 
L 147.146787 -149.143534 
L 143.867444 -184.89671 
L 140.588112 -217.475743 
L 137.30877 -239.134594 
L 134.029432 -246.992019 
L 130.750095 -240.735586 
L 127.470753 -223.802924 
L 124.191416 -211.138482 
L 120.912078 -223.377645 
L 117.632736 -243.364908 
L 114.353399 -257.062839 
L 111.074061 -263.620571 
L 107.794719 -266.00169 
L 104.515382 -266.716846 
L 101.236045 -266.916736 
L 97.956705 -266.971511 
L 94.677365 -266.98545 
L 91.398028 -266.988534 
L 88.118688 -266.989109 
L 84.839348 -266.989192 
L 81.560011 -266.989207 
L 78.280671 -266.989207 
L 75.001333 -266.989207 
L 71.721994 -266.989207 
L 68.442655 -266.989207 
L 65.163316 -266.989207 
L 61.883977 -266.989207 
z
" style="stroke: #1f77b4; stroke-opacity: 0.5; stroke-width: 0.8"/>
    </defs>
    <g clip-path="url(#pc801523d05)">
     <use xlink:href="#maa161506b1" x="0" y="309.639375" style="fill: #1f77b4; fill-opacity: 0.5; stroke: #1f77b4; stroke-opacity: 0.5; stroke-width: 0.8"/>
    </g>
   </g>
   <g id="PolyCollection_2">
    <defs>
     <path id="m2b6f6bf60e" d="M 61.883977 -101.015788 
L 61.883977 -93.613689 
L 65.163316 -93.613689 
L 68.442655 -93.613689 
L 71.721994 -93.613689 
L 75.001333 -93.613689 
L 78.280671 -93.613689 
L 81.560011 -93.613689 
L 84.839348 -93.613674 
L 88.118688 -93.613591 
L 91.398028 -93.613017 
L 94.677365 -93.60997 
L 97.956705 -93.596673 
L 101.236045 -93.551408 
L 104.515382 -93.447634 
L 107.794719 -93.399156 
L 111.074061 -94.183555 
L 114.353399 -97.951141 
L 117.632736 -107.478046 
L 120.912078 -121.820899 
L 124.191416 -129.575521 
L 127.470753 -119.51696 
L 130.750095 -102.60947 
L 134.029432 -87.480699 
L 137.30877 -73.206825 
L 140.588112 -58.702967 
L 143.867444 -48.423375 
L 147.146787 -49.237466 
L 150.426129 -58.794057 
L 153.705461 -63.221237 
L 156.984803 -66.274696 
L 160.264145 -73.647729 
L 163.543478 -82.216402 
L 166.82282 -88.526937 
L 170.102162 -91.83107 
L 173.381495 -93.11402 
L 176.660837 -93.467614 
L 179.940179 -93.435744 
L 183.219512 -93.074953 
L 186.498854 -92.186735 
L 189.778196 -90.807669 
L 193.057528 -90.217424 
L 196.336871 -93.470153 
L 199.616213 -102.869472 
L 202.895545 -113.085075 
L 206.174887 -110.493315 
L 209.45423 -99.165271 
L 212.733562 -91.756377 
L 216.012904 -90.164766 
L 219.292246 -91.276497 
L 222.571579 -92.550194 
L 225.850931 -93.245559 
L 229.130254 -93.512417 
L 232.409596 -93.596893 
L 235.688938 -93.643541 
L 238.968261 -93.762532 
L 242.247622 -94.163787 
L 245.526945 -95.349116 
L 248.806287 -98.410399 
L 252.085629 -105.362046 
L 255.364972 -118.741791 
L 258.644314 -138.91988 
L 261.923637 -158.651041 
L 265.202998 -160.826682 
L 268.482321 -142.846461 
L 271.761663 -121.89876 
L 275.041005 -107.204588 
L 278.320328 -99.287845 
L 281.59969 -95.714548 
L 284.879012 -94.314966 
L 288.158355 -93.901714 
L 291.437697 -94.067429 
L 294.717039 -95.071387 
L 297.996381 -97.999211 
L 301.275704 -105.04219 
L 304.555065 -119.19646 
L 307.834388 -141.90359 
L 311.11373 -168.422036 
L 314.393072 -185.568626 
L 317.672395 -182.50348 
L 320.951757 -165.792162 
L 324.23108 -143.220598 
L 327.510422 -119.389389 
L 330.789764 -102.830466 
L 334.069106 -97.790423 
L 337.348448 -103.354772 
L 340.627771 -117.391685 
L 343.907113 -134.175141 
L 347.186455 -138.924919 
L 350.465798 -126.151196 
L 353.74514 -111.55802 
L 357.024463 -104.75545 
L 360.303805 -107.416105 
L 363.583147 -119.458186 
L 366.862489 -140.058704 
L 370.141831 -163.085222 
L 373.421173 -172.072672 
L 376.700516 -156.911155 
L 379.979838 -133.206734 
L 383.259181 -114.201795 
L 386.538523 -102.831396 
L 386.538523 -110.363711 
L 386.538523 -110.363711 
L 383.259181 -122.131745 
L 379.979838 -142.29247 
L 376.700516 -168.794611 
L 373.421173 -187.708139 
L 370.141831 -176.175627 
L 366.862489 -149.738874 
L 363.583147 -127.63732 
L 360.303805 -115.132028 
L 357.024463 -112.64653 
L 353.74514 -120.419767 
L 350.465798 -137.514765 
L 347.186455 -154.271915 
L 343.907113 -147.878987 
L 340.627771 -127.436356 
L 337.348448 -111.759052 
L 334.069106 -105.843475 
L 330.789764 -111.530935 
L 327.510422 -130.037981 
L 324.23108 -157.427651 
L 320.951757 -183.572184 
L 317.672395 -202.207141 
L 314.393072 -202.889419 
L 311.11373 -180.575503 
L 307.834388 -151.121561 
L 304.555065 -127.182965 
L 301.275704 -112.592564 
L 297.996381 -105.429014 
L 294.717039 -102.477152 
L 291.437697 -101.469883 
L 288.158355 -101.303971 
L 284.879012 -101.71872 
L 281.59969 -103.130782 
L 278.320328 -106.775197 
L 275.041005 -114.979753 
L 271.761663 -130.559837 
L 268.482321 -153.763847 
L 265.202998 -175.773357 
L 261.923637 -172.9048 
L 258.644314 -149.288245 
L 255.364972 -127.174241 
L 252.085629 -113.057325 
L 248.806287 -105.876018 
L 245.526945 -102.761125 
L 242.247622 -101.566974 
L 238.968261 -101.164714 
L 235.688938 -101.045647 
L 232.409596 -100.998999 
L 229.130254 -100.914584 
L 225.850931 -100.648565 
L 222.571579 -99.960774 
L 219.292246 -98.734391 
L 216.012904 -97.830555 
L 212.733562 -100.102148 
L 209.45423 -109.320278 
L 206.174887 -124.421045 
L 202.895545 -128.282356 
L 199.616213 -114.045341 
L 196.336871 -102.241846 
L 193.057528 -98.032184 
L 189.778196 -98.306194 
L 186.498854 -99.605245 
L 183.219512 -100.479025 
L 179.940179 -100.838008 
L 176.660837 -100.86981 
L 173.381495 -100.517244 
L 170.102162 -99.243086 
L 166.82282 -95.990908 
L 163.543478 -89.899419 
L 160.264145 -82.032817 
L 156.984803 -76.563201 
L 153.705461 -78.145204 
L 150.426129 -77.48663 
L 147.146787 -62.082965 
L 143.867444 -57.826995 
L 140.588112 -66.785856 
L 137.30877 -80.941178 
L 134.029432 -95.52617 
L 130.750095 -111.900563 
L 127.470753 -131.822959 
L 124.191416 -145.309906 
L 120.912078 -134.45761 
L 117.632736 -116.922244 
L 114.353399 -106.016818 
L 111.074061 -101.757718 
L 107.794719 -100.83441 
L 104.515382 -100.854276 
L 101.236045 -100.953945 
L 97.956705 -100.998802 
L 94.677365 -101.012076 
L 91.398028 -101.015115 
L 88.118688 -101.01569 
L 84.839348 -101.015773 
L 81.560011 -101.015788 
L 78.280671 -101.015788 
L 75.001333 -101.015788 
L 71.721994 -101.015788 
L 68.442655 -101.015788 
L 65.163316 -101.015788 
L 61.883977 -101.015788 
z
" style="stroke: #ff7f0e; stroke-opacity: 0.5; stroke-width: 0.8"/>
    </defs>
    <g clip-path="url(#pc801523d05)">
     <use xlink:href="#m2b6f6bf60e" x="0" y="309.639375" style="fill: #ff7f0e; fill-opacity: 0.5; stroke: #ff7f0e; stroke-opacity: 0.5; stroke-width: 0.8"/>
    </g>
   </g>
   <g id="PolyCollection_3">
    <defs>
     <path id="m00410e1a0d" d="M 61.883977 -274.391306 
L 61.883977 -266.989207 
L 65.163316 -266.989207 
L 68.442655 -266.989207 
L 71.721994 -266.989207 
L 75.001333 -266.989207 
L 78.280671 -266.989207 
L 81.560011 -266.989207 
L 84.839348 -266.989192 
L 88.118688 -266.989109 
L 91.398028 -266.988534 
L 94.677365 -266.98545 
L 97.956705 -266.971511 
L 101.236045 -266.916736 
L 104.515382 -266.716846 
L 107.794719 -266.00169 
L 111.074061 -263.620571 
L 114.353399 -257.062839 
L 117.632736 -243.364908 
L 120.912078 -223.377645 
L 124.191416 -211.138482 
L 127.470753 -223.802924 
L 130.750095 -240.735586 
L 134.029432 -246.992019 
L 137.30877 -239.134594 
L 140.588112 -217.475743 
L 143.867444 -184.89671 
L 147.146787 -149.143534 
L 150.426129 -127.44932 
L 153.705461 -149.213329 
L 156.984803 -191.010326 
L 160.264145 -226.698379 
L 163.543478 -249.25278 
L 166.82282 -260.465167 
L 170.102162 -264.974744 
L 173.381495 -266.463223 
L 176.660837 -266.840826 
L 179.940179 -266.807285 
L 183.219512 -266.404397 
L 186.498854 -265.178838 
L 189.778196 -261.953677 
L 193.057528 -254.437886 
L 196.336871 -239.775267 
L 199.616213 -217.701044 
L 202.895545 -197.530618 
L 206.174887 -202.636361 
L 209.45423 -225.54069 
L 212.733562 -245.527919 
L 216.012904 -257.576591 
L 219.292246 -263.354861 
L 222.571579 -265.727371 
L 225.850931 -266.599926 
L 229.130254 -266.886355 
L 232.409596 -266.972312 
L 235.688938 -267.018945 
L 238.968261 -267.136107 
L 242.247622 -267.513891 
L 245.526945 -268.492888 
L 248.806287 -270.310923 
L 252.085629 -272.13214 
L 255.364972 -270.932834 
L 258.644314 -262.694791 
L 261.923637 -248.686452 
L 265.202998 -246.688135 
L 268.482321 -260.396861 
L 271.761663 -270.072374 
L 275.041005 -272.261246 
L 278.320328 -270.689296 
L 281.59969 -268.759649 
L 284.879012 -267.651833 
L 288.158355 -267.273581 
L 291.437697 -267.434866 
L 294.717039 -268.36119 
L 297.996381 -270.728401 
L 301.275704 -275.012975 
L 304.555065 -279.885504 
L 307.834388 -281.125404 
L 311.11373 -274.016848 
L 314.393072 -259.661243 
L 317.672395 -247.635702 
L 320.951757 -237.971096 
L 324.23108 -233.552019 
L 327.510422 -239.906988 
L 330.789764 -250.333276 
L 334.069106 -257.151471 
L 337.348448 -256.055917 
L 340.627771 -245.155268 
L 343.907113 -227.823524 
L 347.186455 -222.546682 
L 350.465798 -239.086025 
L 353.74514 -256.376303 
L 357.024463 -267.387552 
L 360.303805 -273.740057 
L 363.583147 -276.362666 
L 366.862489 -272.633201 
L 370.141831 -261.122153 
L 373.421173 -254.151631 
L 376.700516 -264.905221 
L 379.979838 -274.454826 
L 383.259181 -276.036784 
L 386.538523 -273.20962 
L 386.538523 -280.741935 
L 386.538523 -280.741935 
L 383.259181 -283.966734 
L 379.979838 -283.540563 
L 376.700516 -276.788678 
L 373.421173 -269.787101 
L 370.141831 -274.212558 
L 366.862489 -282.313363 
L 363.583147 -284.5418 
L 360.303805 -281.45598 
L 357.024463 -275.278632 
L 353.74514 -265.23805 
L 350.465798 -250.449599 
L 347.186455 -237.893678 
L 343.907113 -241.52737 
L 340.627771 -255.199932 
L 337.348448 -264.460197 
L 334.069106 -265.204524 
L 330.789764 -259.033745 
L 327.510422 -250.55558 
L 324.23108 -247.759073 
L 320.951757 -255.751118 
L 317.672395 -267.339362 
L 314.393072 -276.982037 
L 311.11373 -286.170315 
L 307.834388 -290.343375 
L 304.555065 -287.872012 
L 301.275704 -282.563349 
L 297.996381 -278.158204 
L 294.717039 -275.766955 
L 291.437697 -274.83732 
L 288.158355 -274.675838 
L 284.879012 -275.055587 
L 281.59969 -276.175883 
L 278.320328 -278.176649 
L 275.041005 -280.036411 
L 271.761663 -278.733452 
L 268.482321 -271.314239 
L 265.202998 -261.63481 
L 261.923637 -262.940211 
L 258.644314 -273.063151 
L 255.364972 -279.365281 
L 252.085629 -279.827434 
L 248.806287 -277.776542 
L 245.526945 -275.904897 
L 242.247622 -274.917078 
L 238.968261 -274.538289 
L 235.688938 -274.421052 
L 232.409596 -274.374418 
L 229.130254 -274.288522 
L 225.850931 -274.002931 
L 222.571579 -273.137951 
L 219.292246 -270.812755 
L 216.012904 -265.242381 
L 212.733562 -253.87369 
L 209.45423 -235.695694 
L 206.174887 -216.564088 
L 202.895545 -212.727903 
L 199.616213 -228.876916 
L 196.336871 -248.54696 
L 193.057528 -262.252647 
L 189.778196 -269.452202 
L 186.498854 -272.597347 
L 183.219512 -273.808468 
L 179.940179 -274.20955 
L 176.660837 -274.243022 
L 173.381495 -273.866448 
L 170.102162 -272.38676 
L 166.82282 -267.929138 
L 163.543478 -256.935797 
L 160.264145 -235.083466 
L 156.984803 -201.298826 
L 153.705461 -164.137295 
L 150.426129 -146.14189 
L 147.146787 -161.989032 
L 143.867444 -194.300323 
L 140.588112 -225.558632 
L 137.30877 -246.868946 
L 134.029432 -255.03749 
L 130.750095 -250.026678 
L 127.470753 -236.108923 
L 124.191416 -226.872866 
L 120.912078 -236.014352 
L 117.632736 -252.809114 
L 114.353399 -265.128515 
L 111.074061 -271.194734 
L 107.794719 -273.436944 
L 104.515382 -274.123487 
L 101.236045 -274.319273 
L 97.956705 -274.37364 
L 94.677365 -274.387556 
L 91.398028 -274.390633 
L 88.118688 -274.391207 
L 84.839348 -274.391291 
L 81.560011 -274.391306 
L 78.280671 -274.391306 
L 75.001333 -274.391306 
L 71.721994 -274.391306 
L 68.442655 -274.391306 
L 65.163316 -274.391306 
L 61.883977 -274.391306 
z
" style="stroke: #ff7f0e; stroke-opacity: 0.5; stroke-width: 0.8"/>
    </defs>
    <g clip-path="url(#pc801523d05)">
     <use xlink:href="#m00410e1a0d" x="0" y="309.639375" style="fill: #ff7f0e; fill-opacity: 0.5; stroke: #ff7f0e; stroke-opacity: 0.5; stroke-width: 0.8"/>
    </g>
   </g>
   <g id="line2d_15">
    <defs>
     <path id="m70da21dfcd" d="M -5 5 
L 5 -5 
M -5 -5 
L 5 5 
" style="stroke: #000000; stroke-width: 2"/>
    </defs>
    <g clip-path="url(#pc801523d05)">
     <use xlink:href="#m70da21dfcd" x="124.061639" y="132.413592" style="stroke: #000000; stroke-width: 2"/>
     <use xlink:href="#m70da21dfcd" x="263.854413" y="92.835143" style="stroke: #000000; stroke-width: 2"/>
     <use xlink:href="#m70da21dfcd" x="203.994281" y="150.920343" style="stroke: #000000; stroke-width: 2"/>
     <use xlink:href="#m70da21dfcd" x="316.854219" y="75.617621" style="stroke: #000000; stroke-width: 2"/>
     <use xlink:href="#m70da21dfcd" x="315.106676" y="73.341628" style="stroke: #000000; stroke-width: 2"/>
     <use xlink:href="#m70da21dfcd" x="150.382405" y="233.630936" style="stroke: #000000; stroke-width: 2"/>
     <use xlink:href="#m70da21dfcd" x="151.639354" y="193.189731" style="stroke: #000000; stroke-width: 2"/>
     <use xlink:href="#m70da21dfcd" x="322.21543" y="109.949342" style="stroke: #000000; stroke-width: 2"/>
     <use xlink:href="#m70da21dfcd" x="372.948276" y="81.744714" style="stroke: #000000; stroke-width: 2"/>
     <use xlink:href="#m70da21dfcd" x="346.259488" y="120.472632" style="stroke: #000000; stroke-width: 2"/>
    </g>
   </g>
   <g id="line2d_16">
    <path d="M 61.883977 125.636877 
L 65.163316 125.636877 
L 68.442655 125.636877 
L 71.721994 125.636877 
L 75.001333 125.636877 
L 78.280671 125.636877 
L 81.560011 125.636879 
L 84.839348 125.63689 
L 88.118688 125.636978 
L 91.398028 125.637548 
L 94.677365 125.640612 
L 97.956705 125.654218 
L 101.236045 125.704037 
L 104.515382 125.853816 
L 107.794719 126.221326 
L 111.074061 126.950232 
L 114.353399 128.099546 
L 117.632736 129.495798 
L 120.912078 130.721749 
L 124.191416 131.41518 
L 127.470753 131.826433 
L 130.750095 133.321299 
L 134.029432 138.380278 
L 137.30877 149.601491 
L 140.588112 167.508575 
L 143.867444 188.277522 
L 147.146787 204.026126 
L 150.426129 207.1714 
L 153.705461 195.960109 
L 156.984803 175.852612 
L 160.264145 155.273777 
L 163.543478 140.063277 
L 166.82282 131.411335 
L 170.102162 127.530458 
L 173.381495 126.149142 
L 176.660837 125.784059 
L 179.940179 125.816727 
L 183.219512 126.197663 
L 186.498854 127.247335 
L 189.778196 129.509438 
L 193.057528 133.404342 
L 196.336871 138.630819 
L 199.616213 143.766181 
L 202.895545 146.732887 
L 206.174887 146.110672 
L 209.45423 142.208893 
L 212.733562 136.824343 
L 216.012904 131.935801 
L 219.292246 128.59475 
L 222.571579 126.795302 
L 225.850931 126.015131 
L 229.130254 125.738909 
L 232.409596 125.653721 
L 235.688938 125.607079 
L 238.968261 125.488966 
L 242.247622 125.098945 
L 245.526945 124.01237 
L 248.806287 121.545903 
L 252.085629 117.044639 
L 255.364972 110.585836 
L 258.644314 103.647859 
L 261.923637 98.843749 
L 265.202998 98.40863 
L 268.482321 102.559023 
L 271.761663 109.323269 
L 275.041005 116.018875 
L 278.320328 120.907127 
L 281.59969 123.694157 
L 284.879012 124.9541 
L 288.158355 125.350601 
L 291.437697 125.187001 
L 294.717039 124.220204 
L 297.996381 121.56067 
L 301.275704 115.836605 
L 304.555065 106.105142 
L 307.834388 93.515893 
L 311.11373 82.343199 
L 314.393072 78.364043 
L 317.672395 84.717954 
L 320.951757 98.867735 
L 324.23108 114.149541 
L 327.510422 124.666891 
L 330.789764 128.707268 
L 334.069106 128.141902 
L 337.348448 125.731892 
L 340.627771 123.343563 
L 343.907113 121.788118 
L 347.186455 121.230077 
L 350.465798 121.33898 
L 353.74514 121.241339 
L 357.024463 119.622337 
L 360.303805 115.20333 
L 363.583147 107.639382 
L 366.862489 98.453339 
L 370.141831 90.990485 
L 373.421173 88.709488 
L 376.700516 92.789459 
L 379.979838 101.265728 
L 383.259181 110.555112 
L 386.538523 117.852709 
" clip-path="url(#pc801523d05)" style="fill: none; stroke: #1f77b4; stroke-width: 2; stroke-linecap: round"/>
   </g>
   <g id="line2d_17">
    <path d="M 61.883977 186.465664 
L 65.163316 178.406254 
L 68.442655 170.412194 
L 71.721994 162.610658 
L 75.001333 155.124784 
L 78.280671 148.071649 
L 81.560011 141.560418 
L 84.839348 135.690601 
L 88.118688 130.55042 
L 91.398028 126.215429 
L 94.677365 122.747293 
L 97.956705 120.192801 
L 101.236045 118.583134 
L 104.515382 117.933356 
L 107.794719 118.242198 
L 111.074061 119.492087 
L 114.353399 121.649425 
L 117.632736 124.665175 
L 120.912078 128.47563 
L 124.191416 133.00347 
L 127.470753 138.159046 
L 130.750095 143.841793 
L 134.029432 149.94189 
L 137.30877 156.342032 
L 140.588112 162.919403 
L 143.867444 169.547508 
L 147.146787 176.09849 
L 150.426129 182.444924 
L 153.705461 188.462075 
L 156.984803 194.029902 
L 160.264145 199.034938 
L 163.543478 203.372208 
L 166.82282 206.946942 
L 170.102162 209.676076 
L 173.381495 211.489659 
L 176.660837 212.331984 
L 179.940179 212.162527 
L 183.219512 210.956607 
L 186.498854 208.705825 
L 189.778196 205.418209 
L 193.057528 201.11816 
L 196.336871 195.846024 
L 199.616213 189.657488 
L 202.895545 182.622779 
L 206.174887 174.825469 
L 209.45423 166.361213 
L 212.733562 157.336284 
L 216.012904 147.865713 
L 219.292246 138.07167 
L 222.571579 128.081566 
L 225.850931 118.025659 
L 229.130254 108.035592 
L 232.409596 98.241549 
L 235.688938 88.770979 
L 238.968261 79.74608 
L 242.247622 71.281771 
L 245.526945 63.484492 
L 248.806287 56.449779 
L 252.085629 50.261258 
L 255.364972 44.989114 
L 258.644314 40.689066 
L 261.923637 37.401473 
L 265.202998 35.150668 
L 268.482321 33.944763 
L 271.761663 33.775306 
L 275.041005 34.617639 
L 278.320328 36.431206 
L 281.59969 39.160356 
L 284.879012 42.735089 
L 288.158355 47.072367 
L 291.437697 52.077411 
L 294.717039 57.645237 
L 297.996381 63.662403 
L 301.275704 70.008793 
L 304.555065 76.559812 
L 307.834388 83.187895 
L 311.11373 89.765254 
L 314.393072 96.165454 
L 317.672395 102.265503 
L 320.951757 107.948289 
L 324.23108 113.103824 
L 327.510422 117.631675 
L 330.789764 121.44213 
L 334.069106 124.457872 
L 337.348448 126.61521 
L 340.627771 127.865095 
L 343.907113 128.173934 
L 347.186455 127.524152 
L 350.465798 125.914478 
L 353.74514 123.359982 
L 357.024463 119.891865 
L 360.303805 115.556874 
L 363.583147 110.416692 
L 366.862489 104.546868 
L 370.141831 98.035637 
L 373.421173 90.982498 
L 376.700516 83.49656 
L 379.979838 75.695081 
L 383.259181 67.701017 
L 386.538523 59.641603 
" clip-path="url(#pc801523d05)" style="fill: none; stroke-dasharray: 7.68,1.92,1.2,1.92; stroke-dashoffset: 0; stroke: #bf00bf; stroke-width: 1.2"/>
   </g>
   <g id="patch_3">
    <path d="M 45.65125 249.877682 
L 45.65125 27.935617 
" style="fill: none; stroke: #262626; stroke-linejoin: miter; stroke-linecap: square"/>
   </g>
   <g id="patch_4">
    <path d="M 61.883977 273.312 
L 386.538523 273.312 
" style="fill: none; stroke: #262626; stroke-linejoin: miter; stroke-linecap: square"/>
   </g>
   <g id="legend_1">
    <g id="line2d_18">
     <g>
      <use xlink:href="#m70da21dfcd" x="62.37125" y="18.338875" style="stroke: #000000; stroke-width: 2"/>
     </g>
    </g>
    <g id="text_17">
     <!-- Observations -->
     <g style="fill: #262626" transform="translate(78.21125 21.418875) scale(0.088 -0.088)">
      <defs>
       <path id="ArialMT-4f" d="M 309 2231 
Q 309 3372 921 4017 
Q 1534 4663 2503 4663 
Q 3138 4663 3647 4359 
Q 4156 4056 4423 3514 
Q 4691 2972 4691 2284 
Q 4691 1588 4409 1038 
Q 4128 488 3612 205 
Q 3097 -78 2500 -78 
Q 1853 -78 1343 234 
Q 834 547 571 1087 
Q 309 1628 309 2231 
z
M 934 2222 
Q 934 1394 1379 917 
Q 1825 441 2497 441 
Q 3181 441 3623 922 
Q 4066 1403 4066 2288 
Q 4066 2847 3877 3264 
Q 3688 3681 3323 3911 
Q 2959 4141 2506 4141 
Q 1863 4141 1398 3698 
Q 934 3256 934 2222 
z
" transform="scale(0.015625)"/>
       <path id="ArialMT-62" d="M 941 0 
L 419 0 
L 419 4581 
L 981 4581 
L 981 2947 
Q 1338 3394 1891 3394 
Q 2197 3394 2470 3270 
Q 2744 3147 2920 2923 
Q 3097 2700 3197 2384 
Q 3297 2069 3297 1709 
Q 3297 856 2875 390 
Q 2453 -75 1863 -75 
Q 1275 -75 941 416 
L 941 0 
z
M 934 1684 
Q 934 1088 1097 822 
Q 1363 388 1816 388 
Q 2184 388 2453 708 
Q 2722 1028 2722 1663 
Q 2722 2313 2464 2622 
Q 2206 2931 1841 2931 
Q 1472 2931 1203 2611 
Q 934 2291 934 1684 
z
" transform="scale(0.015625)"/>
       <path id="ArialMT-73" d="M 197 991 
L 753 1078 
Q 800 744 1014 566 
Q 1228 388 1613 388 
Q 2000 388 2187 545 
Q 2375 703 2375 916 
Q 2375 1106 2209 1216 
Q 2094 1291 1634 1406 
Q 1016 1563 777 1677 
Q 538 1791 414 1992 
Q 291 2194 291 2438 
Q 291 2659 392 2848 
Q 494 3038 669 3163 
Q 800 3259 1026 3326 
Q 1253 3394 1513 3394 
Q 1903 3394 2198 3281 
Q 2494 3169 2634 2976 
Q 2775 2784 2828 2463 
L 2278 2388 
Q 2241 2644 2061 2787 
Q 1881 2931 1553 2931 
Q 1166 2931 1000 2803 
Q 834 2675 834 2503 
Q 834 2394 903 2306 
Q 972 2216 1119 2156 
Q 1203 2125 1616 2013 
Q 2213 1853 2448 1751 
Q 2684 1650 2818 1456 
Q 2953 1263 2953 975 
Q 2953 694 2789 445 
Q 2625 197 2315 61 
Q 2006 -75 1616 -75 
Q 969 -75 630 194 
Q 291 463 197 991 
z
" transform="scale(0.015625)"/>
       <path id="ArialMT-65" d="M 2694 1069 
L 3275 997 
Q 3138 488 2766 206 
Q 2394 -75 1816 -75 
Q 1088 -75 661 373 
Q 234 822 234 1631 
Q 234 2469 665 2931 
Q 1097 3394 1784 3394 
Q 2450 3394 2872 2941 
Q 3294 2488 3294 1666 
Q 3294 1616 3291 1516 
L 816 1516 
Q 847 969 1125 678 
Q 1403 388 1819 388 
Q 2128 388 2347 550 
Q 2566 713 2694 1069 
z
M 847 1978 
L 2700 1978 
Q 2663 2397 2488 2606 
Q 2219 2931 1791 2931 
Q 1403 2931 1139 2672 
Q 875 2413 847 1978 
z
" transform="scale(0.015625)"/>
       <path id="ArialMT-72" d="M 416 0 
L 416 3319 
L 922 3319 
L 922 2816 
Q 1116 3169 1280 3281 
Q 1444 3394 1641 3394 
Q 1925 3394 2219 3213 
L 2025 2691 
Q 1819 2813 1613 2813 
Q 1428 2813 1281 2702 
Q 1134 2591 1072 2394 
Q 978 2094 978 1738 
L 978 0 
L 416 0 
z
" transform="scale(0.015625)"/>
       <path id="ArialMT-76" d="M 1344 0 
L 81 3319 
L 675 3319 
L 1388 1331 
Q 1503 1009 1600 663 
Q 1675 925 1809 1294 
L 2547 3319 
L 3125 3319 
L 1869 0 
L 1344 0 
z
" transform="scale(0.015625)"/>
       <path id="ArialMT-61" d="M 2588 409 
Q 2275 144 1986 34 
Q 1697 -75 1366 -75 
Q 819 -75 525 192 
Q 231 459 231 875 
Q 231 1119 342 1320 
Q 453 1522 633 1644 
Q 813 1766 1038 1828 
Q 1203 1872 1538 1913 
Q 2219 1994 2541 2106 
Q 2544 2222 2544 2253 
Q 2544 2597 2384 2738 
Q 2169 2928 1744 2928 
Q 1347 2928 1158 2789 
Q 969 2650 878 2297 
L 328 2372 
Q 403 2725 575 2942 
Q 747 3159 1072 3276 
Q 1397 3394 1825 3394 
Q 2250 3394 2515 3294 
Q 2781 3194 2906 3042 
Q 3031 2891 3081 2659 
Q 3109 2516 3109 2141 
L 3109 1391 
Q 3109 606 3145 398 
Q 3181 191 3288 0 
L 2700 0 
Q 2613 175 2588 409 
z
M 2541 1666 
Q 2234 1541 1622 1453 
Q 1275 1403 1131 1340 
Q 988 1278 909 1158 
Q 831 1038 831 891 
Q 831 666 1001 516 
Q 1172 366 1500 366 
Q 1825 366 2078 508 
Q 2331 650 2450 897 
Q 2541 1088 2541 1459 
L 2541 1666 
z
" transform="scale(0.015625)"/>
       <path id="ArialMT-74" d="M 1650 503 
L 1731 6 
Q 1494 -44 1306 -44 
Q 1000 -44 831 53 
Q 663 150 594 308 
Q 525 466 525 972 
L 525 2881 
L 113 2881 
L 113 3319 
L 525 3319 
L 525 4141 
L 1084 4478 
L 1084 3319 
L 1650 3319 
L 1650 2881 
L 1084 2881 
L 1084 941 
Q 1084 700 1114 631 
Q 1144 563 1211 522 
Q 1278 481 1403 481 
Q 1497 481 1650 503 
z
" transform="scale(0.015625)"/>
       <path id="ArialMT-69" d="M 425 3934 
L 425 4581 
L 988 4581 
L 988 3934 
L 425 3934 
z
M 425 0 
L 425 3319 
L 988 3319 
L 988 0 
L 425 0 
z
" transform="scale(0.015625)"/>
       <path id="ArialMT-6f" d="M 213 1659 
Q 213 2581 725 3025 
Q 1153 3394 1769 3394 
Q 2453 3394 2887 2945 
Q 3322 2497 3322 1706 
Q 3322 1066 3130 698 
Q 2938 331 2570 128 
Q 2203 -75 1769 -75 
Q 1072 -75 642 372 
Q 213 819 213 1659 
z
M 791 1659 
Q 791 1022 1069 705 
Q 1347 388 1769 388 
Q 2188 388 2466 706 
Q 2744 1025 2744 1678 
Q 2744 2294 2464 2611 
Q 2184 2928 1769 2928 
Q 1347 2928 1069 2612 
Q 791 2297 791 1659 
z
" transform="scale(0.015625)"/>
       <path id="ArialMT-6e" d="M 422 0 
L 422 3319 
L 928 3319 
L 928 2847 
Q 1294 3394 1984 3394 
Q 2284 3394 2536 3286 
Q 2788 3178 2913 3003 
Q 3038 2828 3088 2588 
Q 3119 2431 3119 2041 
L 3119 0 
L 2556 0 
L 2556 2019 
Q 2556 2363 2490 2533 
Q 2425 2703 2258 2804 
Q 2091 2906 1866 2906 
Q 1506 2906 1245 2678 
Q 984 2450 984 1813 
L 984 0 
L 422 0 
z
" transform="scale(0.015625)"/>
      </defs>
      <use xlink:href="#ArialMT-4f"/>
      <use xlink:href="#ArialMT-62" x="77.783203"/>
      <use xlink:href="#ArialMT-73" x="133.398438"/>
      <use xlink:href="#ArialMT-65" x="183.398438"/>
      <use xlink:href="#ArialMT-72" x="239.013672"/>
      <use xlink:href="#ArialMT-76" x="272.314453"/>
      <use xlink:href="#ArialMT-61" x="322.314453"/>
      <use xlink:href="#ArialMT-74" x="377.929688"/>
      <use xlink:href="#ArialMT-69" x="405.712891"/>
      <use xlink:href="#ArialMT-6f" x="427.929688"/>
      <use xlink:href="#ArialMT-6e" x="483.544922"/>
      <use xlink:href="#ArialMT-73" x="539.160156"/>
     </g>
    </g>
    <g id="line2d_19">
     <path d="M 53.57125 30.922875 
L 62.37125 30.922875 
L 71.17125 30.922875 
" style="fill: none; stroke: #1f77b4; stroke-width: 2; stroke-linecap: round"/>
    </g>
    <g id="text_18">
     <!-- $m_n(x)$ -->
     <g style="fill: #262626" transform="translate(78.21125 34.002875) scale(0.088 -0.088)">
      <defs>
       <path id="DejaVuSans-Oblique-6d" d="M 5747 2113 
L 5338 0 
L 4763 0 
L 5166 2094 
Q 5191 2228 5203 2325 
Q 5216 2422 5216 2491 
Q 5216 2772 5059 2928 
Q 4903 3084 4622 3084 
Q 4203 3084 3875 2770 
Q 3547 2456 3450 1953 
L 3066 0 
L 2491 0 
L 2900 2094 
Q 2925 2209 2937 2307 
Q 2950 2406 2950 2484 
Q 2950 2769 2794 2926 
Q 2638 3084 2363 3084 
Q 1938 3084 1609 2770 
Q 1281 2456 1184 1953 
L 800 0 
L 225 0 
L 909 3500 
L 1484 3500 
L 1375 2956 
Q 1609 3263 1923 3423 
Q 2238 3584 2597 3584 
Q 2978 3584 3223 3384 
Q 3469 3184 3519 2828 
Q 3781 3197 4126 3390 
Q 4472 3584 4856 3584 
Q 5306 3584 5551 3325 
Q 5797 3066 5797 2591 
Q 5797 2488 5784 2364 
Q 5772 2241 5747 2113 
z
" transform="scale(0.015625)"/>
       <path id="DejaVuSans-Oblique-6e" d="M 3566 2113 
L 3156 0 
L 2578 0 
L 2988 2091 
Q 3016 2238 3031 2350 
Q 3047 2463 3047 2528 
Q 3047 2791 2881 2937 
Q 2716 3084 2419 3084 
Q 1956 3084 1622 2776 
Q 1288 2469 1184 1941 
L 800 0 
L 225 0 
L 903 3500 
L 1478 3500 
L 1363 2950 
Q 1603 3253 1940 3418 
Q 2278 3584 2650 3584 
Q 3113 3584 3367 3334 
Q 3622 3084 3622 2631 
Q 3622 2519 3608 2391 
Q 3594 2263 3566 2113 
z
" transform="scale(0.015625)"/>
       <path id="DejaVuSans-28" d="M 1984 4856 
Q 1566 4138 1362 3434 
Q 1159 2731 1159 2009 
Q 1159 1288 1364 580 
Q 1569 -128 1984 -844 
L 1484 -844 
Q 1016 -109 783 600 
Q 550 1309 550 2009 
Q 550 2706 781 3412 
Q 1013 4119 1484 4856 
L 1984 4856 
z
" transform="scale(0.015625)"/>
       <path id="DejaVuSans-29" d="M 513 4856 
L 1013 4856 
Q 1481 4119 1714 3412 
Q 1947 2706 1947 2009 
Q 1947 1309 1714 600 
Q 1481 -109 1013 -844 
L 513 -844 
Q 928 -128 1133 580 
Q 1338 1288 1338 2009 
Q 1338 2731 1133 3434 
Q 928 4138 513 4856 
z
" transform="scale(0.015625)"/>
      </defs>
      <use xlink:href="#DejaVuSans-Oblique-6d" transform="translate(0 0.125)"/>
      <use xlink:href="#DejaVuSans-Oblique-6e" transform="translate(97.412109 -16.28125) scale(0.7)"/>
      <use xlink:href="#DejaVuSans-28" transform="translate(144.511719 0.125)"/>
      <use xlink:href="#DejaVuSans-Oblique-78" transform="translate(183.525391 0.125)"/>
      <use xlink:href="#DejaVuSans-29" transform="translate(242.705078 0.125)"/>
     </g>
    </g>
    <g id="patch_5">
     <path d="M 53.57125 48.159875 
L 71.17125 48.159875 
L 71.17125 41.999875 
L 53.57125 41.999875 
z
" style="fill: #1f77b4; fill-opacity: 0.5; stroke: #1f77b4; stroke-opacity: 0.5; stroke-width: 0.8; stroke-linejoin: miter"/>
    </g>
    <g id="text_19">
     <!-- $f(\mathbf{x}^*)$ 95% pred. -->
     <g style="fill: #262626" transform="translate(78.21125 48.159875) scale(0.088 -0.088)">
      <defs>
       <path id="DejaVuSans-Oblique-66" d="M 3059 4863 
L 2969 4384 
L 2419 4384 
Q 2106 4384 1964 4261 
Q 1822 4138 1753 3809 
L 1691 3500 
L 2638 3500 
L 2553 3053 
L 1606 3053 
L 1013 0 
L 434 0 
L 1031 3053 
L 481 3053 
L 563 3500 
L 1113 3500 
L 1159 3744 
Q 1278 4363 1576 4613 
Q 1875 4863 2516 4863 
L 3059 4863 
z
" transform="scale(0.015625)"/>
       <path id="DejaVuSans-Bold-78" d="M 1422 1791 
L 159 3500 
L 1344 3500 
L 2059 2463 
L 2784 3500 
L 3969 3500 
L 2706 1797 
L 4031 0 
L 2847 0 
L 2059 1106 
L 1281 0 
L 97 0 
L 1422 1791 
z
" transform="scale(0.015625)"/>
       <path id="DejaVuSans-2a" d="M 3009 3897 
L 1888 3291 
L 3009 2681 
L 2828 2375 
L 1778 3009 
L 1778 1831 
L 1422 1831 
L 1422 3009 
L 372 2375 
L 191 2681 
L 1313 3291 
L 191 3897 
L 372 4206 
L 1422 3572 
L 1422 4750 
L 1778 4750 
L 1778 3572 
L 2828 4206 
L 3009 3897 
z
" transform="scale(0.015625)"/>
       <path id="ArialMT-20" transform="scale(0.015625)"/>
       <path id="ArialMT-39" d="M 350 1059 
L 891 1109 
Q 959 728 1153 556 
Q 1347 384 1650 384 
Q 1909 384 2104 503 
Q 2300 622 2425 820 
Q 2550 1019 2634 1356 
Q 2719 1694 2719 2044 
Q 2719 2081 2716 2156 
Q 2547 1888 2255 1720 
Q 1963 1553 1622 1553 
Q 1053 1553 659 1965 
Q 266 2378 266 3053 
Q 266 3750 677 4175 
Q 1088 4600 1706 4600 
Q 2153 4600 2523 4359 
Q 2894 4119 3086 3673 
Q 3278 3228 3278 2384 
Q 3278 1506 3087 986 
Q 2897 466 2520 194 
Q 2144 -78 1638 -78 
Q 1100 -78 759 220 
Q 419 519 350 1059 
z
M 2653 3081 
Q 2653 3566 2395 3850 
Q 2138 4134 1775 4134 
Q 1400 4134 1122 3828 
Q 844 3522 844 3034 
Q 844 2597 1108 2323 
Q 1372 2050 1759 2050 
Q 2150 2050 2401 2323 
Q 2653 2597 2653 3081 
z
" transform="scale(0.015625)"/>
       <path id="ArialMT-25" d="M 372 3481 
Q 372 3972 619 4315 
Q 866 4659 1334 4659 
Q 1766 4659 2048 4351 
Q 2331 4044 2331 3447 
Q 2331 2866 2045 2552 
Q 1759 2238 1341 2238 
Q 925 2238 648 2547 
Q 372 2856 372 3481 
z
M 1350 4272 
Q 1141 4272 1002 4090 
Q 863 3909 863 3425 
Q 863 2984 1003 2804 
Q 1144 2625 1350 2625 
Q 1563 2625 1702 2806 
Q 1841 2988 1841 3469 
Q 1841 3913 1700 4092 
Q 1559 4272 1350 4272 
z
M 1353 -169 
L 3859 4659 
L 4316 4659 
L 1819 -169 
L 1353 -169 
z
M 3334 1075 
Q 3334 1569 3581 1911 
Q 3828 2253 4300 2253 
Q 4731 2253 5014 1945 
Q 5297 1638 5297 1041 
Q 5297 459 5011 145 
Q 4725 -169 4303 -169 
Q 3888 -169 3611 142 
Q 3334 453 3334 1075 
z
M 4316 1866 
Q 4103 1866 3964 1684 
Q 3825 1503 3825 1019 
Q 3825 581 3965 400 
Q 4106 219 4313 219 
Q 4528 219 4667 400 
Q 4806 581 4806 1063 
Q 4806 1506 4665 1686 
Q 4525 1866 4316 1866 
z
" transform="scale(0.015625)"/>
       <path id="ArialMT-70" d="M 422 -1272 
L 422 3319 
L 934 3319 
L 934 2888 
Q 1116 3141 1344 3267 
Q 1572 3394 1897 3394 
Q 2322 3394 2647 3175 
Q 2972 2956 3137 2557 
Q 3303 2159 3303 1684 
Q 3303 1175 3120 767 
Q 2938 359 2589 142 
Q 2241 -75 1856 -75 
Q 1575 -75 1351 44 
Q 1128 163 984 344 
L 984 -1272 
L 422 -1272 
z
M 931 1641 
Q 931 1000 1190 694 
Q 1450 388 1819 388 
Q 2194 388 2461 705 
Q 2728 1022 2728 1688 
Q 2728 2322 2467 2637 
Q 2206 2953 1844 2953 
Q 1484 2953 1207 2617 
Q 931 2281 931 1641 
z
" transform="scale(0.015625)"/>
       <path id="ArialMT-64" d="M 2575 0 
L 2575 419 
Q 2259 -75 1647 -75 
Q 1250 -75 917 144 
Q 584 363 401 755 
Q 219 1147 219 1656 
Q 219 2153 384 2558 
Q 550 2963 881 3178 
Q 1213 3394 1622 3394 
Q 1922 3394 2156 3267 
Q 2391 3141 2538 2938 
L 2538 4581 
L 3097 4581 
L 3097 0 
L 2575 0 
z
M 797 1656 
Q 797 1019 1065 703 
Q 1334 388 1700 388 
Q 2069 388 2326 689 
Q 2584 991 2584 1609 
Q 2584 2291 2321 2609 
Q 2059 2928 1675 2928 
Q 1300 2928 1048 2622 
Q 797 2316 797 1656 
z
" transform="scale(0.015625)"/>
      </defs>
      <use xlink:href="#DejaVuSans-Oblique-66" transform="translate(0 0.765625)"/>
      <use xlink:href="#DejaVuSans-28" transform="translate(35.205078 0.765625)"/>
      <use xlink:href="#DejaVuSans-Bold-78" transform="translate(74.21875 0.765625)"/>
      <use xlink:href="#DejaVuSans-2a" transform="translate(153.31543 39.046875) scale(0.7)"/>
      <use xlink:href="#DejaVuSans-29" transform="translate(204.6875 0.765625)"/>
      <use xlink:href="#ArialMT-20" transform="translate(243.701172 0.765625)"/>
      <use xlink:href="#ArialMT-39" transform="translate(271.484375 0.765625)"/>
      <use xlink:href="#ArialMT-35" transform="translate(327.099609 0.765625)"/>
      <use xlink:href="#ArialMT-25" transform="translate(382.714844 0.765625)"/>
      <use xlink:href="#ArialMT-20" transform="translate(471.630859 0.765625)"/>
      <use xlink:href="#ArialMT-70" transform="translate(499.414062 0.765625)"/>
      <use xlink:href="#ArialMT-72" transform="translate(555.029297 0.765625)"/>
      <use xlink:href="#ArialMT-65" transform="translate(588.330078 0.765625)"/>
      <use xlink:href="#ArialMT-64" transform="translate(643.945312 0.765625)"/>
      <use xlink:href="#ArialMT-2e" transform="translate(699.560547 0.765625)"/>
     </g>
    </g>
    <g id="patch_6">
     <path d="M 53.57125 62.327875 
L 71.17125 62.327875 
L 71.17125 56.167875 
L 53.57125 56.167875 
z
" style="fill: #ff7f0e; fill-opacity: 0.5; stroke: #ff7f0e; stroke-opacity: 0.5; stroke-width: 0.8; stroke-linejoin: miter"/>
    </g>
    <g id="text_20">
     <!-- $y^*$ 95% pred. -->
     <g style="fill: #262626" transform="translate(78.21125 62.327875) scale(0.088 -0.088)">
      <use xlink:href="#DejaVuSans-Oblique-79" transform="translate(0 0.765625)"/>
      <use xlink:href="#DejaVuSans-2a" transform="translate(77.283529 39.046875) scale(0.7)"/>
      <use xlink:href="#ArialMT-20" transform="translate(128.655599 0.765625)"/>
      <use xlink:href="#ArialMT-39" transform="translate(156.438802 0.765625)"/>
      <use xlink:href="#ArialMT-35" transform="translate(212.054036 0.765625)"/>
      <use xlink:href="#ArialMT-25" transform="translate(267.669271 0.765625)"/>
      <use xlink:href="#ArialMT-20" transform="translate(356.585286 0.765625)"/>
      <use xlink:href="#ArialMT-70" transform="translate(384.36849 0.765625)"/>
      <use xlink:href="#ArialMT-72" transform="translate(439.983724 0.765625)"/>
      <use xlink:href="#ArialMT-65" transform="translate(473.284505 0.765625)"/>
      <use xlink:href="#ArialMT-64" transform="translate(528.89974 0.765625)"/>
      <use xlink:href="#ArialMT-2e" transform="translate(584.514974 0.765625)"/>
     </g>
    </g>
    <g id="line2d_20">
     <path d="M 53.57125 71.79475 
L 62.37125 71.79475 
L 71.17125 71.79475 
" style="fill: none; stroke-dasharray: 7.68,1.92,1.2,1.92; stroke-dashoffset: 0; stroke: #bf00bf; stroke-width: 1.2"/>
    </g>
    <g id="text_21">
     <!-- True function -->
     <g style="fill: #262626" transform="translate(78.21125 74.87475) scale(0.088 -0.088)">
      <defs>
       <path id="ArialMT-54" d="M 1659 0 
L 1659 4041 
L 150 4041 
L 150 4581 
L 3781 4581 
L 3781 4041 
L 2266 4041 
L 2266 0 
L 1659 0 
z
" transform="scale(0.015625)"/>
       <path id="ArialMT-75" d="M 2597 0 
L 2597 488 
Q 2209 -75 1544 -75 
Q 1250 -75 995 37 
Q 741 150 617 320 
Q 494 491 444 738 
Q 409 903 409 1263 
L 409 3319 
L 972 3319 
L 972 1478 
Q 972 1038 1006 884 
Q 1059 663 1231 536 
Q 1403 409 1656 409 
Q 1909 409 2131 539 
Q 2353 669 2445 892 
Q 2538 1116 2538 1541 
L 2538 3319 
L 3100 3319 
L 3100 0 
L 2597 0 
z
" transform="scale(0.015625)"/>
       <path id="ArialMT-66" d="M 556 0 
L 556 2881 
L 59 2881 
L 59 3319 
L 556 3319 
L 556 3672 
Q 556 4006 616 4169 
Q 697 4388 901 4523 
Q 1106 4659 1475 4659 
Q 1713 4659 2000 4603 
L 1916 4113 
Q 1741 4144 1584 4144 
Q 1328 4144 1222 4034 
Q 1116 3925 1116 3625 
L 1116 3319 
L 1763 3319 
L 1763 2881 
L 1116 2881 
L 1116 0 
L 556 0 
z
" transform="scale(0.015625)"/>
       <path id="ArialMT-63" d="M 2588 1216 
L 3141 1144 
Q 3050 572 2676 248 
Q 2303 -75 1759 -75 
Q 1078 -75 664 370 
Q 250 816 250 1647 
Q 250 2184 428 2587 
Q 606 2991 970 3192 
Q 1334 3394 1763 3394 
Q 2303 3394 2647 3120 
Q 2991 2847 3088 2344 
L 2541 2259 
Q 2463 2594 2264 2762 
Q 2066 2931 1784 2931 
Q 1359 2931 1093 2626 
Q 828 2322 828 1663 
Q 828 994 1084 691 
Q 1341 388 1753 388 
Q 2084 388 2306 591 
Q 2528 794 2588 1216 
z
" transform="scale(0.015625)"/>
      </defs>
      <use xlink:href="#ArialMT-54"/>
      <use xlink:href="#ArialMT-72" x="57.333984"/>
      <use xlink:href="#ArialMT-75" x="90.634766"/>
      <use xlink:href="#ArialMT-65" x="146.25"/>
      <use xlink:href="#ArialMT-20" x="201.865234"/>
      <use xlink:href="#ArialMT-66" x="229.648438"/>
      <use xlink:href="#ArialMT-75" x="257.431641"/>
      <use xlink:href="#ArialMT-6e" x="313.046875"/>
      <use xlink:href="#ArialMT-63" x="368.662109"/>
      <use xlink:href="#ArialMT-74" x="418.662109"/>
      <use xlink:href="#ArialMT-69" x="446.445312"/>
      <use xlink:href="#ArialMT-6f" x="468.662109"/>
      <use xlink:href="#ArialMT-6e" x="524.277344"/>
     </g>
    </g>
   </g>
  </g>
 </g>
 <defs>
  <clipPath id="pc801523d05">
   <rect x="45.65125" y="7.2" width="357.12" height="266.112"/>
  </clipPath>
 </defs>
</svg>