<?xml version="1.0" encoding="utf-8" standalone="no"?>
<!DOCTYPE svg PUBLIC "-//W3C//DTD SVG 1.1//EN"
  "http://www.w3.org/Graphics/SVG/1.1/DTD/svg11.dtd">
<svg xmlns:xlink="http://www.w3.org/1999/xlink" width="415.15125pt" height="309.639375pt" viewBox="0 0 415.15125 309.639375" xmlns="http://www.w3.org/2000/svg" version="1.1">
 <metadata>
  <rdf:RDF xmlns:dc="http://purl.org/dc/elements/1.1/" xmlns:cc="http://creativecommons.org/ns#" xmlns:rdf="http://www.w3.org/1999/02/22-rdf-syntax-ns#">
   <cc:Work>
    <dc:type rdf:resource="http://purl.org/dc/dcmitype/StillImage"/>
    <dc:date>2023-08-15T14:31:16.576979</dc:date>
    <dc:format>image/svg+xml</dc:format>
    <dc:creator>
     <cc:Agent>
      <dc:title>Matplotlib v3.7.1, https://matplotlib.org/</dc:title>
     </cc:Agent>
    </dc:creator>
   </cc:Work>
  </rdf:RDF>
 </metadata>
 <defs>
  <style type="text/css">*{stroke-linejoin: round; stroke-linecap: butt}</style>
 </defs>
 <g id="figure_1">
  <g id="patch_1">
   <path d="M 0 309.639375 
L 415.15125 309.639375 
L 415.15125 0 
L 0 0 
z
" style="fill: #ffffff"/>
  </g>
  <g id="axes_1">
   <g id="patch_2">
    <path d="M 50.83125 273.312 
L 407.95125 273.312 
L 407.95125 7.2 
L 50.83125 7.2 
z
" style="fill: #ffffff"/>
   </g>
   <g id="matplotlib.axis_1">
    <g id="xtick_1">
     <g id="line2d_1">
      <defs>
       <path id="m4f7e3a9efe" d="M 0 0 
L 0 4.8 
" style="stroke: #262626"/>
      </defs>
      <g>
       <use xlink:href="#m4f7e3a9efe" x="100.895713" y="273.312" style="fill: #262626; stroke: #262626"/>
      </g>
     </g>
     <g id="text_1">
      <!-- 60 -->
      <g style="fill: #262626" transform="translate(96.002088 287.910875) scale(0.088 -0.088)">
       <defs>
        <path id="ArialMT-36" d="M 3184 3459 
L 2625 3416 
Q 2550 3747 2413 3897 
Q 2184 4138 1850 4138 
Q 1581 4138 1378 3988 
Q 1113 3794 959 3422 
Q 806 3050 800 2363 
Q 1003 2672 1297 2822 
Q 1591 2972 1913 2972 
Q 2475 2972 2870 2558 
Q 3266 2144 3266 1488 
Q 3266 1056 3080 686 
Q 2894 316 2569 119 
Q 2244 -78 1831 -78 
Q 1128 -78 684 439 
Q 241 956 241 2144 
Q 241 3472 731 4075 
Q 1159 4600 1884 4600 
Q 2425 4600 2770 4297 
Q 3116 3994 3184 3459 
z
M 888 1484 
Q 888 1194 1011 928 
Q 1134 663 1356 523 
Q 1578 384 1822 384 
Q 2178 384 2434 671 
Q 2691 959 2691 1453 
Q 2691 1928 2437 2201 
Q 2184 2475 1800 2475 
Q 1419 2475 1153 2201 
Q 888 1928 888 1484 
z
" transform="scale(0.015625)"/>
        <path id="ArialMT-30" d="M 266 2259 
Q 266 3072 433 3567 
Q 600 4063 929 4331 
Q 1259 4600 1759 4600 
Q 2128 4600 2406 4451 
Q 2684 4303 2865 4023 
Q 3047 3744 3150 3342 
Q 3253 2941 3253 2259 
Q 3253 1453 3087 958 
Q 2922 463 2592 192 
Q 2263 -78 1759 -78 
Q 1097 -78 719 397 
Q 266 969 266 2259 
z
M 844 2259 
Q 844 1131 1108 757 
Q 1372 384 1759 384 
Q 2147 384 2411 759 
Q 2675 1134 2675 2259 
Q 2675 3391 2411 3762 
Q 2147 4134 1753 4134 
Q 1366 4134 1134 3806 
Q 844 3388 844 2259 
z
" transform="scale(0.015625)"/>
       </defs>
       <use xlink:href="#ArialMT-36"/>
       <use xlink:href="#ArialMT-30" x="55.615234"/>
      </g>
     </g>
    </g>
    <g id="xtick_2">
     <g id="line2d_2">
      <g>
       <use xlink:href="#m4f7e3a9efe" x="165.956745" y="273.312" style="fill: #262626; stroke: #262626"/>
      </g>
     </g>
     <g id="text_2">
      <!-- 80 -->
      <g style="fill: #262626" transform="translate(161.06312 287.910875) scale(0.088 -0.088)">
       <defs>
        <path id="ArialMT-38" d="M 1131 2484 
Q 781 2613 612 2850 
Q 444 3088 444 3419 
Q 444 3919 803 4259 
Q 1163 4600 1759 4600 
Q 2359 4600 2725 4251 
Q 3091 3903 3091 3403 
Q 3091 3084 2923 2848 
Q 2756 2613 2416 2484 
Q 2838 2347 3058 2040 
Q 3278 1734 3278 1309 
Q 3278 722 2862 322 
Q 2447 -78 1769 -78 
Q 1091 -78 675 323 
Q 259 725 259 1325 
Q 259 1772 486 2073 
Q 713 2375 1131 2484 
z
M 1019 3438 
Q 1019 3113 1228 2906 
Q 1438 2700 1772 2700 
Q 2097 2700 2305 2904 
Q 2513 3109 2513 3406 
Q 2513 3716 2298 3927 
Q 2084 4138 1766 4138 
Q 1444 4138 1231 3931 
Q 1019 3725 1019 3438 
z
M 838 1322 
Q 838 1081 952 856 
Q 1066 631 1291 507 
Q 1516 384 1775 384 
Q 2178 384 2440 643 
Q 2703 903 2703 1303 
Q 2703 1709 2433 1975 
Q 2163 2241 1756 2241 
Q 1359 2241 1098 1978 
Q 838 1716 838 1322 
z
" transform="scale(0.015625)"/>
       </defs>
       <use xlink:href="#ArialMT-38"/>
       <use xlink:href="#ArialMT-30" x="55.615234"/>
      </g>
     </g>
    </g>
    <g id="xtick_3">
     <g id="line2d_3">
      <g>
       <use xlink:href="#m4f7e3a9efe" x="231.017776" y="273.312" style="fill: #262626; stroke: #262626"/>
      </g>
     </g>
     <g id="text_3">
      <!-- 100 -->
      <g style="fill: #262626" transform="translate(223.677338 287.910875) scale(0.088 -0.088)">
       <defs>
        <path id="ArialMT-31" d="M 2384 0 
L 1822 0 
L 1822 3584 
Q 1619 3391 1289 3197 
Q 959 3003 697 2906 
L 697 3450 
Q 1169 3672 1522 3987 
Q 1875 4303 2022 4600 
L 2384 4600 
L 2384 0 
z
" transform="scale(0.015625)"/>
       </defs>
       <use xlink:href="#ArialMT-31"/>
       <use xlink:href="#ArialMT-30" x="55.615234"/>
       <use xlink:href="#ArialMT-30" x="111.230469"/>
      </g>
     </g>
    </g>
    <g id="xtick_4">
     <g id="line2d_4">
      <g>
       <use xlink:href="#m4f7e3a9efe" x="296.078807" y="273.312" style="fill: #262626; stroke: #262626"/>
      </g>
     </g>
     <g id="text_4">
      <!-- 120 -->
      <g style="fill: #262626" transform="translate(288.738369 287.910875) scale(0.088 -0.088)">
       <defs>
        <path id="ArialMT-32" d="M 3222 541 
L 3222 0 
L 194 0 
Q 188 203 259 391 
Q 375 700 629 1000 
Q 884 1300 1366 1694 
Q 2113 2306 2375 2664 
Q 2638 3022 2638 3341 
Q 2638 3675 2398 3904 
Q 2159 4134 1775 4134 
Q 1369 4134 1125 3890 
Q 881 3647 878 3216 
L 300 3275 
Q 359 3922 746 4261 
Q 1134 4600 1788 4600 
Q 2447 4600 2831 4234 
Q 3216 3869 3216 3328 
Q 3216 3053 3103 2787 
Q 2991 2522 2730 2228 
Q 2469 1934 1863 1422 
Q 1356 997 1212 845 
Q 1069 694 975 541 
L 3222 541 
z
" transform="scale(0.015625)"/>
       </defs>
       <use xlink:href="#ArialMT-31"/>
       <use xlink:href="#ArialMT-32" x="55.615234"/>
       <use xlink:href="#ArialMT-30" x="111.230469"/>
      </g>
     </g>
    </g>
    <g id="xtick_5">
     <g id="line2d_5">
      <g>
       <use xlink:href="#m4f7e3a9efe" x="361.139838" y="273.312" style="fill: #262626; stroke: #262626"/>
      </g>
     </g>
     <g id="text_5">
      <!-- 140 -->
      <g style="fill: #262626" transform="translate(353.799401 287.910875) scale(0.088 -0.088)">
       <defs>
        <path id="ArialMT-34" d="M 2069 0 
L 2069 1097 
L 81 1097 
L 81 1613 
L 2172 4581 
L 2631 4581 
L 2631 1613 
L 3250 1613 
L 3250 1097 
L 2631 1097 
L 2631 0 
L 2069 0 
z
M 2069 1613 
L 2069 3678 
L 634 1613 
L 2069 1613 
z
" transform="scale(0.015625)"/>
       </defs>
       <use xlink:href="#ArialMT-31"/>
       <use xlink:href="#ArialMT-34" x="55.615234"/>
       <use xlink:href="#ArialMT-30" x="111.230469"/>
      </g>
     </g>
    </g>
    <g id="text_6">
     <!-- $d$ -->
     <g style="fill: #262626" transform="translate(226.31925 300.531375) scale(0.096 -0.096)">
      <defs>
       <path id="DejaVuSans-Oblique-64" d="M 2675 525 
Q 2444 222 2128 65 
Q 1813 -91 1428 -91 
Q 903 -91 598 267 
Q 294 625 294 1247 
Q 294 1766 478 2236 
Q 663 2706 1013 3078 
Q 1244 3325 1534 3454 
Q 1825 3584 2144 3584 
Q 2481 3584 2739 3421 
Q 2997 3259 3138 2956 
L 3513 4863 
L 4091 4863 
L 3144 0 
L 2566 0 
L 2675 525 
z
M 891 1350 
Q 891 897 1095 644 
Q 1300 391 1663 391 
Q 1931 391 2161 520 
Q 2391 650 2566 903 
Q 2750 1166 2856 1509 
Q 2963 1853 2963 2188 
Q 2963 2622 2758 2865 
Q 2553 3109 2194 3109 
Q 1922 3109 1687 2981 
Q 1453 2853 1288 2613 
Q 1106 2353 998 2009 
Q 891 1666 891 1350 
z
" transform="scale(0.015625)"/>
      </defs>
      <use xlink:href="#DejaVuSans-Oblique-64" transform="translate(0 0.015625)"/>
     </g>
    </g>
   </g>
   <g id="matplotlib.axis_2">
    <g id="ytick_1">
     <g id="line2d_6">
      <defs>
       <path id="m97082331ab" d="M 0 0 
L -4.8 0 
" style="stroke: #262626"/>
      </defs>
      <g>
       <use xlink:href="#m97082331ab" x="50.83125" y="273.312" style="fill: #262626; stroke: #262626"/>
      </g>
     </g>
     <g id="text_7">
      <!-- 0.000 -->
      <g style="fill: #262626" transform="translate(20.512 276.461437) scale(0.088 -0.088)">
       <defs>
        <path id="ArialMT-2e" d="M 581 0 
L 581 641 
L 1222 641 
L 1222 0 
L 581 0 
z
" transform="scale(0.015625)"/>
       </defs>
       <use xlink:href="#ArialMT-30"/>
       <use xlink:href="#ArialMT-2e" x="55.615234"/>
       <use xlink:href="#ArialMT-30" x="83.398438"/>
       <use xlink:href="#ArialMT-30" x="139.013672"/>
       <use xlink:href="#ArialMT-30" x="194.628906"/>
      </g>
     </g>
    </g>
    <g id="ytick_2">
     <g id="line2d_7">
      <g>
       <use xlink:href="#m97082331ab" x="50.83125" y="241.521526" style="fill: #262626; stroke: #262626"/>
      </g>
     </g>
     <g id="text_8">
      <!-- 0.005 -->
      <g style="fill: #262626" transform="translate(20.512 244.670963) scale(0.088 -0.088)">
       <defs>
        <path id="ArialMT-35" d="M 266 1200 
L 856 1250 
Q 922 819 1161 601 
Q 1400 384 1738 384 
Q 2144 384 2425 690 
Q 2706 997 2706 1503 
Q 2706 1984 2436 2262 
Q 2166 2541 1728 2541 
Q 1456 2541 1237 2417 
Q 1019 2294 894 2097 
L 366 2166 
L 809 4519 
L 3088 4519 
L 3088 3981 
L 1259 3981 
L 1013 2750 
Q 1425 3038 1878 3038 
Q 2478 3038 2890 2622 
Q 3303 2206 3303 1553 
Q 3303 931 2941 478 
Q 2500 -78 1738 -78 
Q 1113 -78 717 272 
Q 322 622 266 1200 
z
" transform="scale(0.015625)"/>
       </defs>
       <use xlink:href="#ArialMT-30"/>
       <use xlink:href="#ArialMT-2e" x="55.615234"/>
       <use xlink:href="#ArialMT-30" x="83.398438"/>
       <use xlink:href="#ArialMT-30" x="139.013672"/>
       <use xlink:href="#ArialMT-35" x="194.628906"/>
      </g>
     </g>
    </g>
    <g id="ytick_3">
     <g id="line2d_8">
      <g>
       <use xlink:href="#m97082331ab" x="50.83125" y="209.731051" style="fill: #262626; stroke: #262626"/>
      </g>
     </g>
     <g id="text_9">
      <!-- 0.010 -->
      <g style="fill: #262626" transform="translate(20.512 212.880489) scale(0.088 -0.088)">
       <use xlink:href="#ArialMT-30"/>
       <use xlink:href="#ArialMT-2e" x="55.615234"/>
       <use xlink:href="#ArialMT-30" x="83.398438"/>
       <use xlink:href="#ArialMT-31" x="139.013672"/>
       <use xlink:href="#ArialMT-30" x="194.628906"/>
      </g>
     </g>
    </g>
    <g id="ytick_4">
     <g id="line2d_9">
      <g>
       <use xlink:href="#m97082331ab" x="50.83125" y="177.940577" style="fill: #262626; stroke: #262626"/>
      </g>
     </g>
     <g id="text_10">
      <!-- 0.015 -->
      <g style="fill: #262626" transform="translate(20.512 181.090014) scale(0.088 -0.088)">
       <use xlink:href="#ArialMT-30"/>
       <use xlink:href="#ArialMT-2e" x="55.615234"/>
       <use xlink:href="#ArialMT-30" x="83.398438"/>
       <use xlink:href="#ArialMT-31" x="139.013672"/>
       <use xlink:href="#ArialMT-35" x="194.628906"/>
      </g>
     </g>
    </g>
    <g id="ytick_5">
     <g id="line2d_10">
      <g>
       <use xlink:href="#m97082331ab" x="50.83125" y="146.150102" style="fill: #262626; stroke: #262626"/>
      </g>
     </g>
     <g id="text_11">
      <!-- 0.020 -->
      <g style="fill: #262626" transform="translate(20.512 149.29954) scale(0.088 -0.088)">
       <use xlink:href="#ArialMT-30"/>
       <use xlink:href="#ArialMT-2e" x="55.615234"/>
       <use xlink:href="#ArialMT-30" x="83.398438"/>
       <use xlink:href="#ArialMT-32" x="139.013672"/>
       <use xlink:href="#ArialMT-30" x="194.628906"/>
      </g>
     </g>
    </g>
    <g id="ytick_6">
     <g id="line2d_11">
      <g>
       <use xlink:href="#m97082331ab" x="50.83125" y="114.359628" style="fill: #262626; stroke: #262626"/>
      </g>
     </g>
     <g id="text_12">
      <!-- 0.025 -->
      <g style="fill: #262626" transform="translate(20.512 117.509065) scale(0.088 -0.088)">
       <use xlink:href="#ArialMT-30"/>
       <use xlink:href="#ArialMT-2e" x="55.615234"/>
       <use xlink:href="#ArialMT-30" x="83.398438"/>
       <use xlink:href="#ArialMT-32" x="139.013672"/>
       <use xlink:href="#ArialMT-35" x="194.628906"/>
      </g>
     </g>
    </g>
    <g id="ytick_7">
     <g id="line2d_12">
      <g>
       <use xlink:href="#m97082331ab" x="50.83125" y="82.569153" style="fill: #262626; stroke: #262626"/>
      </g>
     </g>
     <g id="text_13">
      <!-- 0.030 -->
      <g style="fill: #262626" transform="translate(20.512 85.718591) scale(0.088 -0.088)">
       <defs>
        <path id="ArialMT-33" d="M 269 1209 
L 831 1284 
Q 928 806 1161 595 
Q 1394 384 1728 384 
Q 2125 384 2398 659 
Q 2672 934 2672 1341 
Q 2672 1728 2419 1979 
Q 2166 2231 1775 2231 
Q 1616 2231 1378 2169 
L 1441 2663 
Q 1497 2656 1531 2656 
Q 1891 2656 2178 2843 
Q 2466 3031 2466 3422 
Q 2466 3731 2256 3934 
Q 2047 4138 1716 4138 
Q 1388 4138 1169 3931 
Q 950 3725 888 3313 
L 325 3413 
Q 428 3978 793 4289 
Q 1159 4600 1703 4600 
Q 2078 4600 2393 4439 
Q 2709 4278 2876 4000 
Q 3044 3722 3044 3409 
Q 3044 3113 2884 2869 
Q 2725 2625 2413 2481 
Q 2819 2388 3044 2092 
Q 3269 1797 3269 1353 
Q 3269 753 2831 336 
Q 2394 -81 1725 -81 
Q 1122 -81 723 278 
Q 325 638 269 1209 
z
" transform="scale(0.015625)"/>
       </defs>
       <use xlink:href="#ArialMT-30"/>
       <use xlink:href="#ArialMT-2e" x="55.615234"/>
       <use xlink:href="#ArialMT-30" x="83.398438"/>
       <use xlink:href="#ArialMT-33" x="139.013672"/>
       <use xlink:href="#ArialMT-30" x="194.628906"/>
      </g>
     </g>
    </g>
    <g id="ytick_8">
     <g id="line2d_13">
      <g>
       <use xlink:href="#m97082331ab" x="50.83125" y="50.778679" style="fill: #262626; stroke: #262626"/>
      </g>
     </g>
     <g id="text_14">
      <!-- 0.035 -->
      <g style="fill: #262626" transform="translate(20.512 53.928116) scale(0.088 -0.088)">
       <use xlink:href="#ArialMT-30"/>
       <use xlink:href="#ArialMT-2e" x="55.615234"/>
       <use xlink:href="#ArialMT-30" x="83.398438"/>
       <use xlink:href="#ArialMT-33" x="139.013672"/>
       <use xlink:href="#ArialMT-35" x="194.628906"/>
      </g>
     </g>
    </g>
    <g id="ytick_9">
     <g id="line2d_14">
      <g>
       <use xlink:href="#m97082331ab" x="50.83125" y="18.988205" style="fill: #262626; stroke: #262626"/>
      </g>
     </g>
     <g id="text_15">
      <!-- 0.040 -->
      <g style="fill: #262626" transform="translate(20.512 22.137642) scale(0.088 -0.088)">
       <use xlink:href="#ArialMT-30"/>
       <use xlink:href="#ArialMT-2e" x="55.615234"/>
       <use xlink:href="#ArialMT-30" x="83.398438"/>
       <use xlink:href="#ArialMT-34" x="139.013672"/>
       <use xlink:href="#ArialMT-30" x="194.628906"/>
      </g>
     </g>
    </g>
    <g id="text_16">
     <!-- $p(D=d)$ -->
     <g style="fill: #262626" transform="translate(14.496 159.696) rotate(-90) scale(0.096 -0.096)">
      <defs>
       <path id="DejaVuSans-Oblique-70" d="M 3175 2156 
Q 3175 2616 2975 2859 
Q 2775 3103 2400 3103 
Q 2144 3103 1911 2972 
Q 1678 2841 1497 2591 
Q 1319 2344 1212 1994 
Q 1106 1644 1106 1300 
Q 1106 863 1306 627 
Q 1506 391 1875 391 
Q 2147 391 2380 519 
Q 2613 647 2778 891 
Q 2956 1147 3065 1494 
Q 3175 1841 3175 2156 
z
M 1394 2969 
Q 1625 3272 1939 3428 
Q 2253 3584 2638 3584 
Q 3175 3584 3472 3232 
Q 3769 2881 3769 2247 
Q 3769 1728 3584 1258 
Q 3400 788 3053 416 
Q 2822 169 2531 39 
Q 2241 -91 1919 -91 
Q 1547 -91 1294 64 
Q 1041 219 916 525 
L 556 -1331 
L -19 -1331 
L 922 3500 
L 1497 3500 
L 1394 2969 
z
" transform="scale(0.015625)"/>
       <path id="DejaVuSans-28" d="M 1984 4856 
Q 1566 4138 1362 3434 
Q 1159 2731 1159 2009 
Q 1159 1288 1364 580 
Q 1569 -128 1984 -844 
L 1484 -844 
Q 1016 -109 783 600 
Q 550 1309 550 2009 
Q 550 2706 781 3412 
Q 1013 4119 1484 4856 
L 1984 4856 
z
" transform="scale(0.015625)"/>
       <path id="DejaVuSans-Oblique-44" d="M 1081 4666 
L 2438 4666 
Q 3519 4666 4070 4208 
Q 4622 3750 4622 2847 
Q 4622 2250 4412 1698 
Q 4203 1147 3834 769 
Q 3463 381 2891 190 
Q 2319 0 1538 0 
L 172 0 
L 1081 4666 
z
M 1613 4147 
L 909 519 
L 1734 519 
Q 2794 519 3375 1128 
Q 3956 1738 3956 2847 
Q 3956 3519 3581 3833 
Q 3206 4147 2406 4147 
L 1613 4147 
z
" transform="scale(0.015625)"/>
       <path id="DejaVuSans-3d" d="M 678 2906 
L 4684 2906 
L 4684 2381 
L 678 2381 
L 678 2906 
z
M 678 1631 
L 4684 1631 
L 4684 1100 
L 678 1100 
L 678 1631 
z
" transform="scale(0.015625)"/>
       <path id="DejaVuSans-29" d="M 513 4856 
L 1013 4856 
Q 1481 4119 1714 3412 
Q 1947 2706 1947 2009 
Q 1947 1309 1714 600 
Q 1481 -109 1013 -844 
L 513 -844 
Q 928 -128 1133 580 
Q 1338 1288 1338 2009 
Q 1338 2731 1133 3434 
Q 928 4138 513 4856 
z
" transform="scale(0.015625)"/>
      </defs>
      <use xlink:href="#DejaVuSans-Oblique-70" transform="translate(0 0.015625)"/>
      <use xlink:href="#DejaVuSans-28" transform="translate(63.476562 0.015625)"/>
      <use xlink:href="#DejaVuSans-Oblique-44" transform="translate(102.490234 0.015625)"/>
      <use xlink:href="#DejaVuSans-3d" transform="translate(198.974609 0.015625)"/>
      <use xlink:href="#DejaVuSans-Oblique-64" transform="translate(302.246094 0.015625)"/>
      <use xlink:href="#DejaVuSans-29" transform="translate(365.722656 0.015625)"/>
     </g>
    </g>
   </g>
   <g id="patch_3">
    <path d="M 67.063977 273.312 
L 69.666419 273.312 
L 69.666419 273.311922 
L 67.063977 273.311922 
z
" clip-path="url(#p9e747cc6d9)" style="fill: #1f77b4; stroke: #ffffff; stroke-width: 0.8; stroke-linejoin: miter"/>
   </g>
   <g id="patch_4">
    <path d="M 70.317029 273.312 
L 72.91947 273.312 
L 72.91947 273.311848 
L 70.317029 273.311848 
z
" clip-path="url(#p9e747cc6d9)" style="fill: #1f77b4; stroke: #ffffff; stroke-width: 0.8; stroke-linejoin: miter"/>
   </g>
   <g id="patch_5">
    <path d="M 73.57008 273.312 
L 76.172522 273.312 
L 76.172522 273.311707 
L 73.57008 273.311707 
z
" clip-path="url(#p9e747cc6d9)" style="fill: #1f77b4; stroke: #ffffff; stroke-width: 0.8; stroke-linejoin: miter"/>
   </g>
   <g id="patch_6">
    <path d="M 76.823132 273.312 
L 79.425573 273.312 
L 79.425573 273.311447 
L 76.823132 273.311447 
z
" clip-path="url(#p9e747cc6d9)" style="fill: #1f77b4; stroke: #ffffff; stroke-width: 0.8; stroke-linejoin: miter"/>
   </g>
   <g id="patch_7">
    <path d="M 80.076184 273.312 
L 82.678625 273.312 
L 82.678625 273.310975 
L 80.076184 273.310975 
z
" clip-path="url(#p9e747cc6d9)" style="fill: #1f77b4; stroke: #ffffff; stroke-width: 0.8; stroke-linejoin: miter"/>
   </g>
   <g id="patch_8">
    <path d="M 83.329235 273.312 
L 85.931676 273.312 
L 85.931676 273.310137 
L 83.329235 273.310137 
z
" clip-path="url(#p9e747cc6d9)" style="fill: #1f77b4; stroke: #ffffff; stroke-width: 0.8; stroke-linejoin: miter"/>
   </g>
   <g id="patch_9">
    <path d="M 86.582287 273.312 
L 89.184728 273.312 
L 89.184728 273.308673 
L 86.582287 273.308673 
z
" clip-path="url(#p9e747cc6d9)" style="fill: #1f77b4; stroke: #ffffff; stroke-width: 0.8; stroke-linejoin: miter"/>
   </g>
   <g id="patch_10">
    <path d="M 89.835338 273.312 
L 92.437779 273.312 
L 92.437779 273.306164 
L 89.835338 273.306164 
z
" clip-path="url(#p9e747cc6d9)" style="fill: #1f77b4; stroke: #ffffff; stroke-width: 0.8; stroke-linejoin: miter"/>
   </g>
   <g id="patch_11">
    <path d="M 93.08839 273.312 
L 95.690831 273.312 
L 95.690831 273.301937 
L 93.08839 273.301937 
z
" clip-path="url(#p9e747cc6d9)" style="fill: #1f77b4; stroke: #ffffff; stroke-width: 0.8; stroke-linejoin: miter"/>
   </g>
   <g id="patch_12">
    <path d="M 96.341441 273.312 
L 98.943883 273.312 
L 98.943883 273.294945 
L 96.341441 273.294945 
z
" clip-path="url(#p9e747cc6d9)" style="fill: #1f77b4; stroke: #ffffff; stroke-width: 0.8; stroke-linejoin: miter"/>
   </g>
   <g id="patch_13">
    <path d="M 99.594493 273.312 
L 102.196934 273.312 
L 102.196934 273.283575 
L 99.594493 273.283575 
z
" clip-path="url(#p9e747cc6d9)" style="fill: #1f77b4; stroke: #ffffff; stroke-width: 0.8; stroke-linejoin: miter"/>
   </g>
   <g id="patch_14">
    <path d="M 102.847544 273.312 
L 105.449986 273.312 
L 105.449986 273.265401 
L 102.847544 273.265401 
z
" clip-path="url(#p9e747cc6d9)" style="fill: #1f77b4; stroke: #ffffff; stroke-width: 0.8; stroke-linejoin: miter"/>
   </g>
   <g id="patch_15">
    <path d="M 106.100596 273.312 
L 108.703037 273.312 
L 108.703037 273.236841 
L 106.100596 273.236841 
z
" clip-path="url(#p9e747cc6d9)" style="fill: #1f77b4; stroke: #ffffff; stroke-width: 0.8; stroke-linejoin: miter"/>
   </g>
   <g id="patch_16">
    <path d="M 109.353648 273.312 
L 111.956089 273.312 
L 111.956089 273.1927 
L 109.353648 273.1927 
z
" clip-path="url(#p9e747cc6d9)" style="fill: #1f77b4; stroke: #ffffff; stroke-width: 0.8; stroke-linejoin: miter"/>
   </g>
   <g id="patch_17">
    <path d="M 112.606699 273.312 
L 115.20914 273.312 
L 115.20914 273.125593 
L 112.606699 273.125593 
z
" clip-path="url(#p9e747cc6d9)" style="fill: #1f77b4; stroke: #ffffff; stroke-width: 0.8; stroke-linejoin: miter"/>
   </g>
   <g id="patch_18">
    <path d="M 115.859751 273.312 
L 118.462192 273.312 
L 118.462192 273.02522 
L 115.859751 273.02522 
z
" clip-path="url(#p9e747cc6d9)" style="fill: #1f77b4; stroke: #ffffff; stroke-width: 0.8; stroke-linejoin: miter"/>
   </g>
   <g id="patch_19">
    <path d="M 119.112802 273.312 
L 121.715243 273.312 
L 121.715243 272.877485 
L 119.112802 272.877485 
z
" clip-path="url(#p9e747cc6d9)" style="fill: #1f77b4; stroke: #ffffff; stroke-width: 0.8; stroke-linejoin: miter"/>
   </g>
   <g id="patch_20">
    <path d="M 122.365854 273.312 
L 124.968295 273.312 
L 124.968295 272.66347 
L 122.365854 272.66347 
z
" clip-path="url(#p9e747cc6d9)" style="fill: #1f77b4; stroke: #ffffff; stroke-width: 0.8; stroke-linejoin: miter"/>
   </g>
   <g id="patch_21">
    <path d="M 125.618905 273.312 
L 128.221347 273.312 
L 128.221347 272.35828 
L 125.618905 272.35828 
z
" clip-path="url(#p9e747cc6d9)" style="fill: #1f77b4; stroke: #ffffff; stroke-width: 0.8; stroke-linejoin: miter"/>
   </g>
   <g id="patch_22">
    <path d="M 128.871957 273.312 
L 131.474398 273.312 
L 131.474398 271.929797 
L 128.871957 271.929797 
z
" clip-path="url(#p9e747cc6d9)" style="fill: #1f77b4; stroke: #ffffff; stroke-width: 0.8; stroke-linejoin: miter"/>
   </g>
   <g id="patch_23">
    <path d="M 132.125008 273.312 
L 134.72745 273.312 
L 134.72745 271.337424 
L 132.125008 271.337424 
z
" clip-path="url(#p9e747cc6d9)" style="fill: #1f77b4; stroke: #ffffff; stroke-width: 0.8; stroke-linejoin: miter"/>
   </g>
   <g id="patch_24">
    <path d="M 135.37806 273.312 
L 137.980501 273.312 
L 137.980501 270.530908 
L 135.37806 270.530908 
z
" clip-path="url(#p9e747cc6d9)" style="fill: #1f77b4; stroke: #ffffff; stroke-width: 0.8; stroke-linejoin: miter"/>
   </g>
   <g id="patch_25">
    <path d="M 138.631112 273.312 
L 141.233553 273.312 
L 141.233553 269.449372 
L 138.631112 269.449372 
z
" clip-path="url(#p9e747cc6d9)" style="fill: #1f77b4; stroke: #ffffff; stroke-width: 0.8; stroke-linejoin: miter"/>
   </g>
   <g id="patch_26">
    <path d="M 141.884163 273.312 
L 144.486604 273.312 
L 144.486604 268.020728 
L 141.884163 268.020728 
z
" clip-path="url(#p9e747cc6d9)" style="fill: #1f77b4; stroke: #ffffff; stroke-width: 0.8; stroke-linejoin: miter"/>
   </g>
   <g id="patch_27">
    <path d="M 145.137215 273.312 
L 147.739656 273.312 
L 147.739656 266.161633 
L 145.137215 266.161633 
z
" clip-path="url(#p9e747cc6d9)" style="fill: #1f77b4; stroke: #ffffff; stroke-width: 0.8; stroke-linejoin: miter"/>
   </g>
   <g id="patch_28">
    <path d="M 148.390266 273.312 
L 150.992707 273.312 
L 150.992707 263.778177 
L 148.390266 263.778177 
z
" clip-path="url(#p9e747cc6d9)" style="fill: #1f77b4; stroke: #ffffff; stroke-width: 0.8; stroke-linejoin: miter"/>
   </g>
   <g id="patch_29">
    <path d="M 151.643318 273.312 
L 154.245759 273.312 
L 154.245759 260.767496 
L 151.643318 260.767496 
z
" clip-path="url(#p9e747cc6d9)" style="fill: #1f77b4; stroke: #ffffff; stroke-width: 0.8; stroke-linejoin: miter"/>
   </g>
   <g id="patch_30">
    <path d="M 154.896369 273.312 
L 157.498811 273.312 
L 157.498811 257.020436 
L 154.896369 257.020436 
z
" clip-path="url(#p9e747cc6d9)" style="fill: #1f77b4; stroke: #ffffff; stroke-width: 0.8; stroke-linejoin: miter"/>
   </g>
   <g id="patch_31">
    <path d="M 158.149421 273.312 
L 160.751862 273.312 
L 160.751862 252.42538 
L 158.149421 252.42538 
z
" clip-path="url(#p9e747cc6d9)" style="fill: #1f77b4; stroke: #ffffff; stroke-width: 0.8; stroke-linejoin: miter"/>
   </g>
   <g id="patch_32">
    <path d="M 161.402472 273.312 
L 164.004914 273.312 
L 164.004914 246.87324 
L 161.402472 246.87324 
z
" clip-path="url(#p9e747cc6d9)" style="fill: #1f77b4; stroke: #ffffff; stroke-width: 0.8; stroke-linejoin: miter"/>
   </g>
   <g id="patch_33">
    <path d="M 164.655524 273.312 
L 167.257965 273.312 
L 167.257965 240.26355 
L 164.655524 240.26355 
z
" clip-path="url(#p9e747cc6d9)" style="fill: #1f77b4; stroke: #ffffff; stroke-width: 0.8; stroke-linejoin: miter"/>
   </g>
   <g id="patch_34">
    <path d="M 167.908576 273.312 
L 170.511017 273.312 
L 170.511017 232.511445 
L 167.908576 232.511445 
z
" clip-path="url(#p9e747cc6d9)" style="fill: #1f77b4; stroke: #ffffff; stroke-width: 0.8; stroke-linejoin: miter"/>
   </g>
   <g id="patch_35">
    <path d="M 171.161627 273.312 
L 173.764068 273.312 
L 173.764068 223.555225 
L 171.161627 223.555225 
z
" clip-path="url(#p9e747cc6d9)" style="fill: #1f77b4; stroke: #ffffff; stroke-width: 0.8; stroke-linejoin: miter"/>
   </g>
   <g id="patch_36">
    <path d="M 174.414679 273.312 
L 177.01712 273.312 
L 177.01712 213.364079 
L 174.414679 213.364079 
z
" clip-path="url(#p9e747cc6d9)" style="fill: #1f77b4; stroke: #ffffff; stroke-width: 0.8; stroke-linejoin: miter"/>
   </g>
   <g id="patch_37">
    <path d="M 177.66773 273.312 
L 180.270171 273.312 
L 180.270171 201.945427 
L 177.66773 201.945427 
z
" clip-path="url(#p9e747cc6d9)" style="fill: #1f77b4; stroke: #ffffff; stroke-width: 0.8; stroke-linejoin: miter"/>
   </g>
   <g id="patch_38">
    <path d="M 180.920782 273.312 
L 183.523223 273.312 
L 183.523223 189.351326 
L 180.920782 189.351326 
z
" clip-path="url(#p9e747cc6d9)" style="fill: #1f77b4; stroke: #ffffff; stroke-width: 0.8; stroke-linejoin: miter"/>
   </g>
   <g id="patch_39">
    <path d="M 184.173833 273.312 
L 186.776275 273.312 
L 186.776275 175.683309 
L 184.173833 175.683309 
z
" clip-path="url(#p9e747cc6d9)" style="fill: #1f77b4; stroke: #ffffff; stroke-width: 0.8; stroke-linejoin: miter"/>
   </g>
   <g id="patch_40">
    <path d="M 187.426885 273.312 
L 190.029326 273.312 
L 190.029326 161.095114 
L 187.426885 161.095114 
z
" clip-path="url(#p9e747cc6d9)" style="fill: #1f77b4; stroke: #ffffff; stroke-width: 0.8; stroke-linejoin: miter"/>
   </g>
   <g id="patch_41">
    <path d="M 190.679936 273.312 
L 193.282378 273.312 
L 193.282378 145.792811 
L 190.679936 145.792811 
z
" clip-path="url(#p9e747cc6d9)" style="fill: #1f77b4; stroke: #ffffff; stroke-width: 0.8; stroke-linejoin: miter"/>
   </g>
   <g id="patch_42">
    <path d="M 193.932988 273.312 
L 196.535429 273.312 
L 196.535429 130.032013 
L 193.932988 130.032013 
z
" clip-path="url(#p9e747cc6d9)" style="fill: #1f77b4; stroke: #ffffff; stroke-width: 0.8; stroke-linejoin: miter"/>
   </g>
   <g id="patch_43">
    <path d="M 197.18604 273.312 
L 199.788481 273.312 
L 199.788481 114.112014 
L 197.18604 114.112014 
z
" clip-path="url(#p9e747cc6d9)" style="fill: #1f77b4; stroke: #ffffff; stroke-width: 0.8; stroke-linejoin: miter"/>
   </g>
   <g id="patch_44">
    <path d="M 200.439091 273.312 
L 203.041532 273.312 
L 203.041532 98.366961 
L 200.439091 98.366961 
z
" clip-path="url(#p9e747cc6d9)" style="fill: #1f77b4; stroke: #ffffff; stroke-width: 0.8; stroke-linejoin: miter"/>
   </g>
   <g id="patch_45">
    <path d="M 203.692143 273.312 
L 206.294584 273.312 
L 206.294584 83.154349 
L 203.692143 83.154349 
z
" clip-path="url(#p9e747cc6d9)" style="fill: #1f77b4; stroke: #ffffff; stroke-width: 0.8; stroke-linejoin: miter"/>
   </g>
   <g id="patch_46">
    <path d="M 206.945194 273.312 
L 209.547635 273.312 
L 209.547635 68.841407 
L 206.945194 68.841407 
z
" clip-path="url(#p9e747cc6d9)" style="fill: #1f77b4; stroke: #ffffff; stroke-width: 0.8; stroke-linejoin: miter"/>
   </g>
   <g id="patch_47">
    <path d="M 210.198246 273.312 
L 212.800687 273.312 
L 212.800687 55.790093 
L 210.198246 55.790093 
z
" clip-path="url(#p9e747cc6d9)" style="fill: #1f77b4; stroke: #ffffff; stroke-width: 0.8; stroke-linejoin: miter"/>
   </g>
   <g id="patch_48">
    <path d="M 213.451297 273.312 
L 216.053739 273.312 
L 216.053739 44.341571 
L 213.451297 44.341571 
z
" clip-path="url(#p9e747cc6d9)" style="fill: #1f77b4; stroke: #ffffff; stroke-width: 0.8; stroke-linejoin: miter"/>
   </g>
   <g id="patch_49">
    <path d="M 216.704349 273.312 
L 219.30679 273.312 
L 219.30679 34.801137 
L 216.704349 34.801137 
z
" clip-path="url(#p9e747cc6d9)" style="fill: #1f77b4; stroke: #ffffff; stroke-width: 0.8; stroke-linejoin: miter"/>
   </g>
   <g id="patch_50">
    <path d="M 219.9574 273.312 
L 222.559842 273.312 
L 222.559842 27.424512 
L 219.9574 27.424512 
z
" clip-path="url(#p9e747cc6d9)" style="fill: #1f77b4; stroke: #ffffff; stroke-width: 0.8; stroke-linejoin: miter"/>
   </g>
   <g id="patch_51">
    <path d="M 223.210452 273.312 
L 225.812893 273.312 
L 225.812893 22.4064 
L 223.210452 22.4064 
z
" clip-path="url(#p9e747cc6d9)" style="fill: #1f77b4; stroke: #ffffff; stroke-width: 0.8; stroke-linejoin: miter"/>
   </g>
   <g id="patch_52">
    <path d="M 226.463504 273.312 
L 229.065945 273.312 
L 229.065945 19.872 
L 226.463504 19.872 
z
" clip-path="url(#p9e747cc6d9)" style="fill: #1f77b4; stroke: #ffffff; stroke-width: 0.8; stroke-linejoin: miter"/>
   </g>
   <g id="patch_53">
    <path d="M 229.716555 273.312 
L 232.318996 273.312 
L 232.318996 19.872 
L 229.716555 19.872 
z
" clip-path="url(#p9e747cc6d9)" style="fill: #1f77b4; stroke: #ffffff; stroke-width: 0.8; stroke-linejoin: miter"/>
   </g>
   <g id="patch_54">
    <path d="M 232.969607 273.312 
L 235.572048 273.312 
L 235.572048 22.381307 
L 232.969607 22.381307 
z
" clip-path="url(#p9e747cc6d9)" style="fill: #1f77b4; stroke: #ffffff; stroke-width: 0.8; stroke-linejoin: miter"/>
   </g>
   <g id="patch_55">
    <path d="M 236.222658 273.312 
L 238.8251 273.312 
L 238.8251 27.301517 
L 236.222658 27.301517 
z
" clip-path="url(#p9e747cc6d9)" style="fill: #1f77b4; stroke: #ffffff; stroke-width: 0.8; stroke-linejoin: miter"/>
   </g>
   <g id="patch_56">
    <path d="M 239.47571 273.312 
L 242.078151 273.312 
L 242.078151 34.46687 
L 239.47571 34.46687 
z
" clip-path="url(#p9e747cc6d9)" style="fill: #1f77b4; stroke: #ffffff; stroke-width: 0.8; stroke-linejoin: miter"/>
   </g>
   <g id="patch_57">
    <path d="M 242.728761 273.312 
L 245.331203 273.312 
L 245.331203 43.653222 
L 242.728761 43.653222 
z
" clip-path="url(#p9e747cc6d9)" style="fill: #1f77b4; stroke: #ffffff; stroke-width: 0.8; stroke-linejoin: miter"/>
   </g>
   <g id="patch_58">
    <path d="M 245.981813 273.312 
L 248.584254 273.312 
L 248.584254 54.589354 
L 245.981813 54.589354 
z
" clip-path="url(#p9e747cc6d9)" style="fill: #1f77b4; stroke: #ffffff; stroke-width: 0.8; stroke-linejoin: miter"/>
   </g>
   <g id="patch_59">
    <path d="M 249.234865 273.312 
L 251.837306 273.312 
L 251.837306 66.969881 
L 249.234865 66.969881 
z
" clip-path="url(#p9e747cc6d9)" style="fill: #1f77b4; stroke: #ffffff; stroke-width: 0.8; stroke-linejoin: miter"/>
   </g>
   <g id="patch_60">
    <path d="M 252.487916 273.312 
L 255.090357 273.312 
L 255.090357 80.468898 
L 252.487916 80.468898 
z
" clip-path="url(#p9e747cc6d9)" style="fill: #1f77b4; stroke: #ffffff; stroke-width: 0.8; stroke-linejoin: miter"/>
   </g>
   <g id="patch_61">
    <path d="M 255.740968 273.312 
L 258.343409 273.312 
L 258.343409 94.753572 
L 255.740968 94.753572 
z
" clip-path="url(#p9e747cc6d9)" style="fill: #1f77b4; stroke: #ffffff; stroke-width: 0.8; stroke-linejoin: miter"/>
   </g>
   <g id="patch_62">
    <path d="M 258.994019 273.312 
L 261.59646 273.312 
L 261.59646 109.496929 
L 258.994019 109.496929 
z
" clip-path="url(#p9e747cc6d9)" style="fill: #1f77b4; stroke: #ffffff; stroke-width: 0.8; stroke-linejoin: miter"/>
   </g>
   <g id="patch_63">
    <path d="M 262.247071 273.312 
L 264.849512 273.312 
L 264.849512 124.389208 
L 262.247071 124.389208 
z
" clip-path="url(#p9e747cc6d9)" style="fill: #1f77b4; stroke: #ffffff; stroke-width: 0.8; stroke-linejoin: miter"/>
   </g>
   <g id="patch_64">
    <path d="M 265.500122 273.312 
L 268.102564 273.312 
L 268.102564 139.147323 
L 265.500122 139.147323 
z
" clip-path="url(#p9e747cc6d9)" style="fill: #1f77b4; stroke: #ffffff; stroke-width: 0.8; stroke-linejoin: miter"/>
   </g>
   <g id="patch_65">
    <path d="M 268.753174 273.312 
L 271.355615 273.312 
L 271.355615 153.522109 
L 268.753174 153.522109 
z
" clip-path="url(#p9e747cc6d9)" style="fill: #1f77b4; stroke: #ffffff; stroke-width: 0.8; stroke-linejoin: miter"/>
   </g>
   <g id="patch_66">
    <path d="M 272.006225 273.312 
L 274.608667 273.312 
L 274.608667 167.303247 
L 272.006225 167.303247 
z
" clip-path="url(#p9e747cc6d9)" style="fill: #1f77b4; stroke: #ffffff; stroke-width: 0.8; stroke-linejoin: miter"/>
   </g>
   <g id="patch_67">
    <path d="M 275.259277 273.312 
L 277.861718 273.312 
L 277.861718 180.321866 
L 275.259277 180.321866 
z
" clip-path="url(#p9e747cc6d9)" style="fill: #1f77b4; stroke: #ffffff; stroke-width: 0.8; stroke-linejoin: miter"/>
   </g>
   <g id="patch_68">
    <path d="M 278.512329 273.312 
L 281.11477 273.312 
L 281.11477 192.451014 
L 278.512329 192.451014 
z
" clip-path="url(#p9e747cc6d9)" style="fill: #1f77b4; stroke: #ffffff; stroke-width: 0.8; stroke-linejoin: miter"/>
   </g>
   <g id="patch_69">
    <path d="M 281.76538 273.312 
L 284.367821 273.312 
L 284.367821 203.604253 
L 281.76538 203.604253 
z
" clip-path="url(#p9e747cc6d9)" style="fill: #1f77b4; stroke: #ffffff; stroke-width: 0.8; stroke-linejoin: miter"/>
   </g>
   <g id="patch_70">
    <path d="M 285.018432 273.312 
L 287.620873 273.312 
L 287.620873 213.732729 
L 285.018432 213.732729 
z
" clip-path="url(#p9e747cc6d9)" style="fill: #1f77b4; stroke: #ffffff; stroke-width: 0.8; stroke-linejoin: miter"/>
   </g>
   <g id="patch_71">
    <path d="M 288.271483 273.312 
L 290.873924 273.312 
L 290.873924 222.821093 
L 288.271483 222.821093 
z
" clip-path="url(#p9e747cc6d9)" style="fill: #1f77b4; stroke: #ffffff; stroke-width: 0.8; stroke-linejoin: miter"/>
   </g>
   <g id="patch_72">
    <path d="M 291.524535 273.312 
L 294.126976 273.312 
L 294.126976 230.882666 
L 291.524535 230.882666 
z
" clip-path="url(#p9e747cc6d9)" style="fill: #1f77b4; stroke: #ffffff; stroke-width: 0.8; stroke-linejoin: miter"/>
   </g>
   <g id="patch_73">
    <path d="M 294.777586 273.312 
L 297.380028 273.312 
L 297.380028 237.954222 
L 294.777586 237.954222 
z
" clip-path="url(#p9e747cc6d9)" style="fill: #1f77b4; stroke: #ffffff; stroke-width: 0.8; stroke-linejoin: miter"/>
   </g>
   <g id="patch_74">
    <path d="M 298.030638 273.312 
L 300.633079 273.312 
L 300.633079 244.090696 
L 298.030638 244.090696 
z
" clip-path="url(#p9e747cc6d9)" style="fill: #1f77b4; stroke: #ffffff; stroke-width: 0.8; stroke-linejoin: miter"/>
   </g>
   <g id="patch_75">
    <path d="M 301.283689 273.312 
L 303.886131 273.312 
L 303.886131 249.360111 
L 301.283689 249.360111 
z
" clip-path="url(#p9e747cc6d9)" style="fill: #1f77b4; stroke: #ffffff; stroke-width: 0.8; stroke-linejoin: miter"/>
   </g>
   <g id="patch_76">
    <path d="M 304.536741 273.312 
L 307.139182 273.312 
L 307.139182 253.83892 
L 304.536741 253.83892 
z
" clip-path="url(#p9e747cc6d9)" style="fill: #1f77b4; stroke: #ffffff; stroke-width: 0.8; stroke-linejoin: miter"/>
   </g>
   <g id="patch_77">
    <path d="M 307.789793 273.312 
L 310.392234 273.312 
L 310.392234 257.607903 
L 307.789793 257.607903 
z
" clip-path="url(#p9e747cc6d9)" style="fill: #1f77b4; stroke: #ffffff; stroke-width: 0.8; stroke-linejoin: miter"/>
   </g>
   <g id="patch_78">
    <path d="M 311.042844 273.312 
L 313.645285 273.312 
L 313.645285 260.748722 
L 311.042844 260.748722 
z
" clip-path="url(#p9e747cc6d9)" style="fill: #1f77b4; stroke: #ffffff; stroke-width: 0.8; stroke-linejoin: miter"/>
   </g>
   <g id="patch_79">
    <path d="M 314.295896 273.312 
L 316.898337 273.312 
L 316.898337 263.341145 
L 314.295896 263.341145 
z
" clip-path="url(#p9e747cc6d9)" style="fill: #1f77b4; stroke: #ffffff; stroke-width: 0.8; stroke-linejoin: miter"/>
   </g>
   <g id="patch_80">
    <path d="M 317.548947 273.312 
L 320.151388 273.312 
L 320.151388 265.460933 
L 317.548947 265.460933 
z
" clip-path="url(#p9e747cc6d9)" style="fill: #1f77b4; stroke: #ffffff; stroke-width: 0.8; stroke-linejoin: miter"/>
   </g>
   <g id="patch_81">
    <path d="M 320.801999 273.312 
L 323.40444 273.312 
L 323.40444 267.178354 
L 320.801999 267.178354 
z
" clip-path="url(#p9e747cc6d9)" style="fill: #1f77b4; stroke: #ffffff; stroke-width: 0.8; stroke-linejoin: miter"/>
   </g>
   <g id="patch_82">
    <path d="M 324.05505 273.312 
L 326.657492 273.312 
L 326.657492 268.557236 
L 324.05505 268.557236 
z
" clip-path="url(#p9e747cc6d9)" style="fill: #1f77b4; stroke: #ffffff; stroke-width: 0.8; stroke-linejoin: miter"/>
   </g>
   <g id="patch_83">
    <path d="M 327.308102 273.312 
L 329.910543 273.312 
L 329.910543 269.654489 
L 327.308102 269.654489 
z
" clip-path="url(#p9e747cc6d9)" style="fill: #1f77b4; stroke: #ffffff; stroke-width: 0.8; stroke-linejoin: miter"/>
   </g>
   <g id="patch_84">
    <path d="M 330.561153 273.312 
L 333.163595 273.312 
L 333.163595 270.520007 
L 330.561153 270.520007 
z
" clip-path="url(#p9e747cc6d9)" style="fill: #1f77b4; stroke: #ffffff; stroke-width: 0.8; stroke-linejoin: miter"/>
   </g>
   <g id="patch_85">
    <path d="M 333.814205 273.312 
L 336.416646 273.312 
L 336.416646 271.196854 
L 333.814205 271.196854 
z
" clip-path="url(#p9e747cc6d9)" style="fill: #1f77b4; stroke: #ffffff; stroke-width: 0.8; stroke-linejoin: miter"/>
   </g>
   <g id="patch_86">
    <path d="M 337.067257 273.312 
L 339.669698 273.312 
L 339.669698 271.721664 
L 337.067257 271.721664 
z
" clip-path="url(#p9e747cc6d9)" style="fill: #1f77b4; stroke: #ffffff; stroke-width: 0.8; stroke-linejoin: miter"/>
   </g>
   <g id="patch_87">
    <path d="M 340.320308 273.312 
L 342.922749 273.312 
L 342.922749 272.125182 
L 340.320308 272.125182 
z
" clip-path="url(#p9e747cc6d9)" style="fill: #1f77b4; stroke: #ffffff; stroke-width: 0.8; stroke-linejoin: miter"/>
   </g>
   <g id="patch_88">
    <path d="M 343.57336 273.312 
L 346.175801 273.312 
L 346.175801 272.432876 
L 343.57336 272.432876 
z
" clip-path="url(#p9e747cc6d9)" style="fill: #1f77b4; stroke: #ffffff; stroke-width: 0.8; stroke-linejoin: miter"/>
   </g>
   <g id="patch_89">
    <path d="M 346.826411 273.312 
L 349.428852 273.312 
L 349.428852 272.665585 
L 346.826411 272.665585 
z
" clip-path="url(#p9e747cc6d9)" style="fill: #1f77b4; stroke: #ffffff; stroke-width: 0.8; stroke-linejoin: miter"/>
   </g>
   <g id="patch_90">
    <path d="M 350.079463 273.312 
L 352.681904 273.312 
L 352.681904 272.840164 
L 350.079463 272.840164 
z
" clip-path="url(#p9e747cc6d9)" style="fill: #1f77b4; stroke: #ffffff; stroke-width: 0.8; stroke-linejoin: miter"/>
   </g>
   <g id="patch_91">
    <path d="M 353.332514 273.312 
L 355.934956 273.312 
L 355.934956 272.97009 
L 353.332514 272.97009 
z
" clip-path="url(#p9e747cc6d9)" style="fill: #1f77b4; stroke: #ffffff; stroke-width: 0.8; stroke-linejoin: miter"/>
   </g>
   <g id="patch_92">
    <path d="M 356.585566 273.312 
L 359.188007 273.312 
L 359.188007 273.066022 
L 356.585566 273.066022 
z
" clip-path="url(#p9e747cc6d9)" style="fill: #1f77b4; stroke: #ffffff; stroke-width: 0.8; stroke-linejoin: miter"/>
   </g>
   <g id="patch_93">
    <path d="M 359.838617 273.312 
L 362.441059 273.312 
L 362.441059 273.136301 
L 359.838617 273.136301 
z
" clip-path="url(#p9e747cc6d9)" style="fill: #1f77b4; stroke: #ffffff; stroke-width: 0.8; stroke-linejoin: miter"/>
   </g>
   <g id="patch_94">
    <path d="M 363.091669 273.312 
L 365.69411 273.312 
L 365.69411 273.187391 
L 363.091669 273.187391 
z
" clip-path="url(#p9e747cc6d9)" style="fill: #1f77b4; stroke: #ffffff; stroke-width: 0.8; stroke-linejoin: miter"/>
   </g>
   <g id="patch_95">
    <path d="M 366.344721 273.312 
L 368.947162 273.312 
L 368.947162 273.224247 
L 366.344721 273.224247 
z
" clip-path="url(#p9e747cc6d9)" style="fill: #1f77b4; stroke: #ffffff; stroke-width: 0.8; stroke-linejoin: miter"/>
   </g>
   <g id="patch_96">
    <path d="M 369.597772 273.312 
L 372.200213 273.312 
L 372.200213 273.250634 
L 369.597772 273.250634 
z
" clip-path="url(#p9e747cc6d9)" style="fill: #1f77b4; stroke: #ffffff; stroke-width: 0.8; stroke-linejoin: miter"/>
   </g>
   <g id="patch_97">
    <path d="M 372.850824 273.312 
L 375.453265 273.312 
L 375.453265 273.269385 
L 372.850824 273.269385 
z
" clip-path="url(#p9e747cc6d9)" style="fill: #1f77b4; stroke: #ffffff; stroke-width: 0.8; stroke-linejoin: miter"/>
   </g>
   <g id="patch_98">
    <path d="M 376.103875 273.312 
L 378.706316 273.312 
L 378.706316 273.28261 
L 376.103875 273.28261 
z
" clip-path="url(#p9e747cc6d9)" style="fill: #1f77b4; stroke: #ffffff; stroke-width: 0.8; stroke-linejoin: miter"/>
   </g>
   <g id="patch_99">
    <path d="M 379.356927 273.312 
L 381.959368 273.312 
L 381.959368 273.29187 
L 379.356927 273.29187 
z
" clip-path="url(#p9e747cc6d9)" style="fill: #1f77b4; stroke: #ffffff; stroke-width: 0.8; stroke-linejoin: miter"/>
   </g>
   <g id="patch_100">
    <path d="M 382.609978 273.312 
L 385.21242 273.312 
L 385.21242 273.298306 
L 382.609978 273.298306 
z
" clip-path="url(#p9e747cc6d9)" style="fill: #1f77b4; stroke: #ffffff; stroke-width: 0.8; stroke-linejoin: miter"/>
   </g>
   <g id="patch_101">
    <path d="M 385.86303 273.312 
L 388.465471 273.312 
L 388.465471 273.302747 
L 385.86303 273.302747 
z
" clip-path="url(#p9e747cc6d9)" style="fill: #1f77b4; stroke: #ffffff; stroke-width: 0.8; stroke-linejoin: miter"/>
   </g>
   <g id="patch_102">
    <path d="M 389.116081 273.312 
L 391.718523 273.312 
L 391.718523 273.30579 
L 389.116081 273.30579 
z
" clip-path="url(#p9e747cc6d9)" style="fill: #1f77b4; stroke: #ffffff; stroke-width: 0.8; stroke-linejoin: miter"/>
   </g>
   <g id="patch_103">
    <path d="M 50.83125 273.312 
L 50.83125 18.988205 
" style="fill: none; stroke: #262626; stroke-linejoin: miter; stroke-linecap: square"/>
   </g>
   <g id="patch_104">
    <path d="M 100.895713 273.312 
L 361.139838 273.312 
" style="fill: none; stroke: #262626; stroke-linejoin: miter; stroke-linecap: square"/>
   </g>
  </g>
 </g>
 <defs>
  <clipPath id="p9e747cc6d9">
   <rect x="50.83125" y="7.2" width="357.12" height="266.112"/>
  </clipPath>
 </defs>
</svg>