<?xml version="1.0" encoding="utf-8" standalone="no"?>
<!DOCTYPE svg PUBLIC "-//W3C//DTD SVG 1.1//EN"
  "http://www.w3.org/Graphics/SVG/1.1/DTD/svg11.dtd">
<svg xmlns:xlink="http://www.w3.org/1999/xlink" width="402.632875pt" height="309.639375pt" viewBox="0 0 402.632875 309.639375" xmlns="http://www.w3.org/2000/svg" version="1.1">
 <metadata>
  <rdf:RDF xmlns:dc="http://purl.org/dc/elements/1.1/" xmlns:cc="http://creativecommons.org/ns#" xmlns:rdf="http://www.w3.org/1999/02/22-rdf-syntax-ns#">
   <cc:Work>
    <dc:type rdf:resource="http://purl.org/dc/dcmitype/StillImage"/>
    <dc:date>2023-10-14T21:28:55.588729</dc:date>
    <dc:format>image/svg+xml</dc:format>
    <dc:creator>
     <cc:Agent>
      <dc:title>Matplotlib v3.7.1, https://matplotlib.org/</dc:title>
     </cc:Agent>
    </dc:creator>
   </cc:Work>
  </rdf:RDF>
 </metadata>
 <defs>
  <style type="text/css">*{stroke-linejoin: round; stroke-linecap: butt}</style>
 </defs>
 <g id="figure_1">
  <g id="patch_1">
   <path d="M 0 309.639375 
L 402.632875 309.639375 
L 402.632875 0 
L 0 0 
z
" style="fill: #ffffff"/>
  </g>
  <g id="axes_1">
   <g id="patch_2">
    <path d="M 38.312875 273.312 
L 395.432875 273.312 
L 395.432875 7.2 
L 38.312875 7.2 
z
" style="fill: #ffffff"/>
   </g>
   <g id="matplotlib.axis_1">
    <g id="xtick_1">
     <g id="line2d_1">
      <defs>
       <path id="mceb02b9062" d="M 0 0 
L 0 4.8 
" style="stroke: #262626"/>
      </defs>
      <g>
       <use xlink:href="#mceb02b9062" x="54.545602" y="273.312" style="fill: #262626; stroke: #262626"/>
      </g>
     </g>
     <g id="text_1">
      <!-- 0.0 -->
      <g style="fill: #262626" transform="translate(48.429602 287.910875) scale(0.088 -0.088)">
       <defs>
        <path id="ArialMT-30" d="M 266 2259 
Q 266 3072 433 3567 
Q 600 4063 929 4331 
Q 1259 4600 1759 4600 
Q 2128 4600 2406 4451 
Q 2684 4303 2865 4023 
Q 3047 3744 3150 3342 
Q 3253 2941 3253 2259 
Q 3253 1453 3087 958 
Q 2922 463 2592 192 
Q 2263 -78 1759 -78 
Q 1097 -78 719 397 
Q 266 969 266 2259 
z
M 844 2259 
Q 844 1131 1108 757 
Q 1372 384 1759 384 
Q 2147 384 2411 759 
Q 2675 1134 2675 2259 
Q 2675 3391 2411 3762 
Q 2147 4134 1753 4134 
Q 1366 4134 1134 3806 
Q 844 3388 844 2259 
z
" transform="scale(0.015625)"/>
        <path id="ArialMT-2e" d="M 581 0 
L 581 641 
L 1222 641 
L 1222 0 
L 581 0 
z
" transform="scale(0.015625)"/>
       </defs>
       <use xlink:href="#ArialMT-30"/>
       <use xlink:href="#ArialMT-2e" x="55.615234"/>
       <use xlink:href="#ArialMT-30" x="83.398438"/>
      </g>
     </g>
    </g>
    <g id="xtick_2">
     <g id="line2d_2">
      <g>
       <use xlink:href="#mceb02b9062" x="119.476511" y="273.312" style="fill: #262626; stroke: #262626"/>
      </g>
     </g>
     <g id="text_2">
      <!-- 0.2 -->
      <g style="fill: #262626" transform="translate(113.360511 287.910875) scale(0.088 -0.088)">
       <defs>
        <path id="ArialMT-32" d="M 3222 541 
L 3222 0 
L 194 0 
Q 188 203 259 391 
Q 375 700 629 1000 
Q 884 1300 1366 1694 
Q 2113 2306 2375 2664 
Q 2638 3022 2638 3341 
Q 2638 3675 2398 3904 
Q 2159 4134 1775 4134 
Q 1369 4134 1125 3890 
Q 881 3647 878 3216 
L 300 3275 
Q 359 3922 746 4261 
Q 1134 4600 1788 4600 
Q 2447 4600 2831 4234 
Q 3216 3869 3216 3328 
Q 3216 3053 3103 2787 
Q 2991 2522 2730 2228 
Q 2469 1934 1863 1422 
Q 1356 997 1212 845 
Q 1069 694 975 541 
L 3222 541 
z
" transform="scale(0.015625)"/>
       </defs>
       <use xlink:href="#ArialMT-30"/>
       <use xlink:href="#ArialMT-2e" x="55.615234"/>
       <use xlink:href="#ArialMT-32" x="83.398438"/>
      </g>
     </g>
    </g>
    <g id="xtick_3">
     <g id="line2d_3">
      <g>
       <use xlink:href="#mceb02b9062" x="184.40742" y="273.312" style="fill: #262626; stroke: #262626"/>
      </g>
     </g>
     <g id="text_3">
      <!-- 0.4 -->
      <g style="fill: #262626" transform="translate(178.29142 287.910875) scale(0.088 -0.088)">
       <defs>
        <path id="ArialMT-34" d="M 2069 0 
L 2069 1097 
L 81 1097 
L 81 1613 
L 2172 4581 
L 2631 4581 
L 2631 1613 
L 3250 1613 
L 3250 1097 
L 2631 1097 
L 2631 0 
L 2069 0 
z
M 2069 1613 
L 2069 3678 
L 634 1613 
L 2069 1613 
z
" transform="scale(0.015625)"/>
       </defs>
       <use xlink:href="#ArialMT-30"/>
       <use xlink:href="#ArialMT-2e" x="55.615234"/>
       <use xlink:href="#ArialMT-34" x="83.398438"/>
      </g>
     </g>
    </g>
    <g id="xtick_4">
     <g id="line2d_4">
      <g>
       <use xlink:href="#mceb02b9062" x="249.33833" y="273.312" style="fill: #262626; stroke: #262626"/>
      </g>
     </g>
     <g id="text_4">
      <!-- 0.6 -->
      <g style="fill: #262626" transform="translate(243.22233 287.910875) scale(0.088 -0.088)">
       <defs>
        <path id="ArialMT-36" d="M 3184 3459 
L 2625 3416 
Q 2550 3747 2413 3897 
Q 2184 4138 1850 4138 
Q 1581 4138 1378 3988 
Q 1113 3794 959 3422 
Q 806 3050 800 2363 
Q 1003 2672 1297 2822 
Q 1591 2972 1913 2972 
Q 2475 2972 2870 2558 
Q 3266 2144 3266 1488 
Q 3266 1056 3080 686 
Q 2894 316 2569 119 
Q 2244 -78 1831 -78 
Q 1128 -78 684 439 
Q 241 956 241 2144 
Q 241 3472 731 4075 
Q 1159 4600 1884 4600 
Q 2425 4600 2770 4297 
Q 3116 3994 3184 3459 
z
M 888 1484 
Q 888 1194 1011 928 
Q 1134 663 1356 523 
Q 1578 384 1822 384 
Q 2178 384 2434 671 
Q 2691 959 2691 1453 
Q 2691 1928 2437 2201 
Q 2184 2475 1800 2475 
Q 1419 2475 1153 2201 
Q 888 1928 888 1484 
z
" transform="scale(0.015625)"/>
       </defs>
       <use xlink:href="#ArialMT-30"/>
       <use xlink:href="#ArialMT-2e" x="55.615234"/>
       <use xlink:href="#ArialMT-36" x="83.398438"/>
      </g>
     </g>
    </g>
    <g id="xtick_5">
     <g id="line2d_5">
      <g>
       <use xlink:href="#mceb02b9062" x="314.269239" y="273.312" style="fill: #262626; stroke: #262626"/>
      </g>
     </g>
     <g id="text_5">
      <!-- 0.8 -->
      <g style="fill: #262626" transform="translate(308.153239 287.910875) scale(0.088 -0.088)">
       <defs>
        <path id="ArialMT-38" d="M 1131 2484 
Q 781 2613 612 2850 
Q 444 3088 444 3419 
Q 444 3919 803 4259 
Q 1163 4600 1759 4600 
Q 2359 4600 2725 4251 
Q 3091 3903 3091 3403 
Q 3091 3084 2923 2848 
Q 2756 2613 2416 2484 
Q 2838 2347 3058 2040 
Q 3278 1734 3278 1309 
Q 3278 722 2862 322 
Q 2447 -78 1769 -78 
Q 1091 -78 675 323 
Q 259 725 259 1325 
Q 259 1772 486 2073 
Q 713 2375 1131 2484 
z
M 1019 3438 
Q 1019 3113 1228 2906 
Q 1438 2700 1772 2700 
Q 2097 2700 2305 2904 
Q 2513 3109 2513 3406 
Q 2513 3716 2298 3927 
Q 2084 4138 1766 4138 
Q 1444 4138 1231 3931 
Q 1019 3725 1019 3438 
z
M 838 1322 
Q 838 1081 952 856 
Q 1066 631 1291 507 
Q 1516 384 1775 384 
Q 2178 384 2440 643 
Q 2703 903 2703 1303 
Q 2703 1709 2433 1975 
Q 2163 2241 1756 2241 
Q 1359 2241 1098 1978 
Q 838 1716 838 1322 
z
" transform="scale(0.015625)"/>
       </defs>
       <use xlink:href="#ArialMT-30"/>
       <use xlink:href="#ArialMT-2e" x="55.615234"/>
       <use xlink:href="#ArialMT-38" x="83.398438"/>
      </g>
     </g>
    </g>
    <g id="xtick_6">
     <g id="line2d_6">
      <g>
       <use xlink:href="#mceb02b9062" x="379.200148" y="273.312" style="fill: #262626; stroke: #262626"/>
      </g>
     </g>
     <g id="text_6">
      <!-- 1.0 -->
      <g style="fill: #262626" transform="translate(373.084148 287.910875) scale(0.088 -0.088)">
       <defs>
        <path id="ArialMT-31" d="M 2384 0 
L 1822 0 
L 1822 3584 
Q 1619 3391 1289 3197 
Q 959 3003 697 2906 
L 697 3450 
Q 1169 3672 1522 3987 
Q 1875 4303 2022 4600 
L 2384 4600 
L 2384 0 
z
" transform="scale(0.015625)"/>
       </defs>
       <use xlink:href="#ArialMT-31"/>
       <use xlink:href="#ArialMT-2e" x="55.615234"/>
       <use xlink:href="#ArialMT-30" x="83.398438"/>
      </g>
     </g>
    </g>
    <g id="text_7">
     <!-- $x$ -->
     <g style="fill: #262626" transform="translate(213.992875 300.531375) scale(0.096 -0.096)">
      <defs>
       <path id="DejaVuSans-Oblique-78" d="M 3841 3500 
L 2234 1784 
L 3219 0 
L 2559 0 
L 1819 1388 
L 531 0 
L -166 0 
L 1556 1844 
L 641 3500 
L 1300 3500 
L 1972 2234 
L 3144 3500 
L 3841 3500 
z
" transform="scale(0.015625)"/>
      </defs>
      <use xlink:href="#DejaVuSans-Oblique-78" transform="translate(0 0.3125)"/>
     </g>
    </g>
   </g>
   <g id="matplotlib.axis_2">
    <g id="ytick_1">
     <g id="line2d_7">
      <defs>
       <path id="me47169ec29" d="M 0 0 
L -4.8 0 
" style="stroke: #262626"/>
      </defs>
      <g>
       <use xlink:href="#me47169ec29" x="38.312875" y="246.7008" style="fill: #262626; stroke: #262626"/>
      </g>
     </g>
     <g id="text_8">
      <!-- −4 -->
      <g style="fill: #262626" transform="translate(19.9795 249.850237) scale(0.088 -0.088)">
       <defs>
        <path id="ArialMT-2212" d="M 3381 1997 
L 356 1997 
L 356 2522 
L 3381 2522 
L 3381 1997 
z
" transform="scale(0.015625)"/>
       </defs>
       <use xlink:href="#ArialMT-2212"/>
       <use xlink:href="#ArialMT-34" x="58.398438"/>
      </g>
     </g>
    </g>
    <g id="ytick_2">
     <g id="line2d_8">
      <g>
       <use xlink:href="#me47169ec29" x="38.312875" y="193.4784" style="fill: #262626; stroke: #262626"/>
      </g>
     </g>
     <g id="text_9">
      <!-- −2 -->
      <g style="fill: #262626" transform="translate(19.9795 196.627837) scale(0.088 -0.088)">
       <use xlink:href="#ArialMT-2212"/>
       <use xlink:href="#ArialMT-32" x="58.398438"/>
      </g>
     </g>
    </g>
    <g id="ytick_3">
     <g id="line2d_9">
      <g>
       <use xlink:href="#me47169ec29" x="38.312875" y="140.256" style="fill: #262626; stroke: #262626"/>
      </g>
     </g>
     <g id="text_10">
      <!-- 0 -->
      <g style="fill: #262626" transform="translate(25.11925 143.405437) scale(0.088 -0.088)">
       <use xlink:href="#ArialMT-30"/>
      </g>
     </g>
    </g>
    <g id="ytick_4">
     <g id="line2d_10">
      <g>
       <use xlink:href="#me47169ec29" x="38.312875" y="87.0336" style="fill: #262626; stroke: #262626"/>
      </g>
     </g>
     <g id="text_11">
      <!-- 2 -->
      <g style="fill: #262626" transform="translate(25.11925 90.183037) scale(0.088 -0.088)">
       <use xlink:href="#ArialMT-32"/>
      </g>
     </g>
    </g>
    <g id="ytick_5">
     <g id="line2d_11">
      <g>
       <use xlink:href="#me47169ec29" x="38.312875" y="33.8112" style="fill: #262626; stroke: #262626"/>
      </g>
     </g>
     <g id="text_12">
      <!-- 4 -->
      <g style="fill: #262626" transform="translate(25.11925 36.960637) scale(0.088 -0.088)">
       <use xlink:href="#ArialMT-34"/>
      </g>
     </g>
    </g>
    <g id="text_13">
     <!-- $y$ -->
     <g style="fill: #262626" transform="translate(13.9635 143.136) rotate(-90) scale(0.096 -0.096)">
      <defs>
       <path id="DejaVuSans-Oblique-79" d="M 1588 -325 
Q 1188 -997 936 -1164 
Q 684 -1331 294 -1331 
L -159 -1331 
L -63 -850 
L 269 -850 
Q 509 -850 678 -719 
Q 847 -588 1056 -206 
L 1234 128 
L 459 3500 
L 1069 3500 
L 1650 819 
L 3256 3500 
L 3859 3500 
L 1588 -325 
z
" transform="scale(0.015625)"/>
      </defs>
      <use xlink:href="#DejaVuSans-Oblique-79" transform="translate(0 0.3125)"/>
     </g>
    </g>
   </g>
   <g id="line2d_12">
    <path d="M 54.545602 140.256 
L 57.824941 133.518446 
L 61.10428 126.889301 
L 64.383619 120.47523 
L 67.662958 114.379442 
L 70.942296 108.700015 
L 74.221636 103.528334 
L 77.500973 98.947622 
L 80.780313 95.031574 
L 84.059653 91.8432 
L 87.33899 89.433811 
L 90.61833 87.842166 
L 93.89767 87.093883 
L 97.177007 87.200996 
L 100.456344 88.161785 
L 103.735686 89.960791 
L 107.015024 92.569061 
L 110.294361 95.944638 
L 113.573703 100.0332 
L 116.853041 104.768952 
L 120.132378 110.075716 
L 123.41172 115.868089 
L 126.691057 122.052874 
L 129.970395 128.530544 
L 133.249737 135.196904 
L 136.529069 141.94463 
L 139.808412 148.665222 
L 143.087754 155.250494 
L 146.367086 161.594488 
L 149.646428 167.595148 
L 152.92577 173.155912 
L 156.205103 178.187294 
L 159.484445 182.608357 
L 162.763787 186.347953 
L 166.04312 189.345912 
L 169.322462 191.553996 
L 172.601804 192.936675 
L 175.881137 193.4717 
L 179.160479 193.15047 
L 182.439821 191.978139 
L 185.719153 189.97359 
L 188.998496 187.169062 
L 192.277838 183.609682 
L 195.55717 179.352725 
L 198.836512 174.466688 
L 202.115855 169.030184 
L 205.395187 163.130718 
L 208.674529 156.863167 
L 211.953871 150.328376 
L 215.233204 143.631566 
L 218.512556 136.88039 
L 221.791879 130.183606 
L 225.071221 123.648815 
L 228.350563 117.381264 
L 231.629886 111.48182 
L 234.909247 106.04528 
L 238.18857 101.159262 
L 241.467912 96.902309 
L 244.747254 93.342932 
L 248.026597 90.538404 
L 251.305939 88.533852 
L 254.585262 87.361534 
L 257.864623 87.0403 
L 261.143946 87.575328 
L 264.423288 88.958007 
L 267.70263 91.166095 
L 270.981953 94.164031 
L 274.261315 97.903655 
L 277.540637 102.324719 
L 280.81998 107.356114 
L 284.099322 112.916877 
L 287.378664 118.917541 
L 290.658006 125.261547 
L 293.937329 131.846771 
L 297.21669 138.567402 
L 300.496013 145.315102 
L 303.775355 151.98145 
L 307.054697 158.459178 
L 310.33402 164.643916 
L 313.613382 170.436332 
L 316.892705 175.743051 
L 320.172047 180.478813 
L 323.451389 184.567371 
L 326.730731 187.942945 
L 330.010073 190.551218 
L 333.289396 192.350221 
L 336.568738 193.311007 
L 339.84808 193.418117 
L 343.127423 192.669828 
L 346.406765 191.078179 
L 349.686088 188.668803 
L 352.96543 185.48043 
L 356.244772 181.564381 
L 359.524114 176.983662 
L 362.803456 171.811982 
L 366.082798 166.132553 
L 369.362141 160.036713 
L 372.641463 153.622687 
L 375.920806 146.993539 
L 379.200148 140.255981 
" clip-path="url(#p8f1afd8d4c)" style="fill: none; stroke: #1f77b4; stroke-width: 1.2; stroke-linecap: round"/>
   </g>
   <g id="line2d_13">
    <path d="M 54.545602 136.772475 
L 57.824941 121.442752 
L 61.10428 105.922598 
L 64.383619 91.166494 
L 67.662958 77.899996 
L 70.942296 66.727338 
L 74.221636 58.458732 
L 77.500973 53.676969 
L 80.780313 52.61393 
L 84.059653 55.336514 
L 87.33899 61.985558 
L 90.61833 71.92848 
L 93.89767 83.814113 
L 97.177007 96.696934 
L 100.456344 108.628166 
L 103.735686 118.761172 
L 107.015024 126.698027 
L 110.294361 132.201953 
L 113.573703 136.091084 
L 116.853041 139.017641 
L 120.132378 141.980689 
L 123.41172 145.152525 
L 126.691057 149.111598 
L 129.970395 154.381155 
L 133.249737 160.555378 
L 136.529069 167.718716 
L 139.808412 175.378592 
L 143.087754 182.172994 
L 146.367086 186.958646 
L 149.646428 188.961156 
L 152.92577 187.50269 
L 156.205103 183.613653 
L 159.484445 177.86147 
L 162.763787 171.802465 
L 166.04312 166.884952 
L 169.322462 163.064859 
L 172.601804 160.944223 
L 175.881137 159.879316 
L 179.160479 158.984908 
L 182.439821 157.92114 
L 185.719153 155.898413 
L 188.998496 153.238333 
L 192.277838 150.302795 
L 195.55717 147.528487 
L 198.836512 145.569038 
L 202.115855 144.578076 
L 205.395187 143.853886 
L 208.674529 143.266596 
L 211.953871 142.544971 
L 215.233204 141.292787 
L 218.512556 139.52001 
L 221.791879 137.908078 
L 225.071221 136.218499 
L 228.350563 135.256436 
L 231.629886 134.865312 
L 234.909247 135.011563 
L 238.18857 135.166863 
L 241.467912 134.480142 
L 244.747254 131.955157 
L 248.026597 127.110195 
L 251.305939 120.445896 
L 254.585262 112.079897 
L 257.864623 103.435018 
L 261.143946 95.25518 
L 264.423288 88.761553 
L 267.70263 83.84038 
L 270.981953 81.561861 
L 274.261315 82.190256 
L 277.540637 86.179642 
L 280.81998 92.94988 
L 284.099322 102.738691 
L 287.378664 114.339463 
L 290.658006 126.628139 
L 293.937329 138.522927 
L 297.21669 149.5161 
L 300.496013 159.125931 
L 303.775355 167.009218 
L 307.054697 173.090534 
L 310.33402 177.680519 
L 313.613382 180.306046 
L 316.892705 181.758843 
L 320.172047 182.386287 
L 323.451389 182.861123 
L 326.730731 183.45153 
L 330.010073 184.612513 
L 333.289396 186.207889 
L 336.568738 187.580773 
L 339.84808 188.032172 
L 343.127423 187.219625 
L 346.406765 184.191422 
L 349.686088 179.327356 
L 352.96543 172.386162 
L 356.244772 164.072713 
L 359.524114 155.086432 
L 362.803456 146.166521 
L 366.082798 137.925095 
L 369.362141 131.143416 
L 372.641463 125.785361 
L 375.920806 122.086683 
L 379.200148 119.734612 
" clip-path="url(#p8f1afd8d4c)" style="fill: none; stroke: #ff7f0e; stroke-width: 0.5; stroke-linecap: round"/>
   </g>
   <g id="line2d_14">
    <path d="M 54.545602 119.21679 
L 57.824941 123.836884 
L 61.10428 131.394166 
L 64.383619 139.79489 
L 67.662958 147.935319 
L 70.942296 153.981464 
L 74.221636 157.375329 
L 77.500973 157.241245 
L 80.780313 154.426722 
L 84.059653 149.112386 
L 87.33899 142.757237 
L 90.61833 136.216669 
L 93.89767 130.087572 
L 97.177007 124.313271 
L 100.456344 119.45248 
L 103.735686 114.867921 
L 107.015024 110.894052 
L 110.294361 107.495863 
L 113.573703 105.175911 
L 116.853041 104.169117 
L 120.132378 105.313195 
L 123.41172 109.339646 
L 126.691057 116.246787 
L 129.970395 125.683265 
L 133.249737 136.691547 
L 136.529069 147.847414 
L 139.808412 157.689852 
L 143.087754 165.381776 
L 146.367086 171.602223 
L 149.646428 176.292348 
L 152.92577 180.425436 
L 156.205103 184.748113 
L 159.484445 189.478774 
L 162.763787 194.282832 
L 166.04312 198.449778 
L 169.322462 201.148481 
L 172.601804 201.482518 
L 175.881137 198.672417 
L 179.160479 192.136243 
L 182.439821 182.864635 
L 185.719153 171.099378 
L 188.998496 158.283658 
L 192.277838 145.764481 
L 195.55717 134.732435 
L 198.836512 125.371923 
L 202.115855 118.812005 
L 205.395187 115.028109 
L 208.674529 114.747879 
L 211.953871 117.782234 
L 215.233204 123.31631 
L 218.512556 131.067189 
L 221.791879 138.72452 
L 225.071221 145.542458 
L 228.350563 149.461349 
L 231.629886 149.874766 
L 234.909247 147.015006 
L 238.18857 140.876407 
L 241.467912 132.995193 
L 244.747254 123.650029 
L 248.026597 114.124814 
L 251.305939 105.141374 
L 254.585262 97.507958 
L 257.864623 91.238607 
L 261.143946 87.180471 
L 264.423288 85.409197 
L 267.70263 86.407299 
L 270.981953 90.243678 
L 274.261315 96.789261 
L 277.540637 105.438568 
L 280.81998 115.160404 
L 284.099322 125.729321 
L 287.378664 135.532355 
L 290.658006 143.751492 
L 293.937329 150.814585 
L 297.21669 156.370978 
L 300.496013 161.451354 
L 303.775355 166.790408 
L 307.054697 172.819568 
L 310.33402 179.294485 
L 313.613382 185.150631 
L 316.892705 190.109548 
L 320.172047 192.913197 
L 323.451389 193.691852 
L 326.730731 192.535931 
L 330.010073 190.356483 
L 333.289396 187.548777 
L 336.568738 185.665185 
L 339.84808 184.144526 
L 343.127423 183.39302 
L 346.406765 182.756624 
L 349.686088 181.350657 
L 352.96543 178.565978 
L 356.244772 174.666952 
L 359.524114 170.850146 
L 362.803456 168.591886 
L 366.082798 168.581379 
L 369.362141 172.035191 
L 372.641463 177.151696 
L 375.920806 183.084158 
L 379.200148 187.10245 
" clip-path="url(#p8f1afd8d4c)" style="fill: none; stroke: #ff7f0e; stroke-width: 0.5; stroke-linecap: round"/>
   </g>
   <g id="line2d_15">
    <path d="M 54.545602 134.043152 
L 57.824941 127.823092 
L 61.10428 123.252915 
L 64.383619 120.843763 
L 67.662958 119.054429 
L 70.942296 116.829772 
L 74.221636 112.612983 
L 77.500973 106.375736 
L 80.780313 97.556621 
L 84.059653 87.326819 
L 87.33899 76.855947 
L 90.61833 67.475855 
L 93.89767 59.756978 
L 97.177007 54.977118 
L 100.456344 52.54558 
L 103.735686 52.955435 
L 107.015024 55.851493 
L 110.294361 60.324344 
L 113.573703 65.934732 
L 116.853041 71.763431 
L 120.132378 77.243247 
L 123.41172 81.976214 
L 126.691057 86.112934 
L 129.970395 90.352545 
L 133.249737 95.464675 
L 136.529069 101.752556 
L 139.808412 110.16448 
L 143.087754 120.313276 
L 146.367086 131.941294 
L 149.646428 144.1552 
L 152.92577 155.486648 
L 156.205103 164.532676 
L 159.484445 170.921421 
L 162.763787 173.98945 
L 166.04312 174.414354 
L 169.322462 173.213835 
L 172.601804 171.237043 
L 175.881137 169.228148 
L 179.160479 167.923056 
L 182.439821 166.870874 
L 185.719153 166.950086 
L 188.998496 167.537685 
L 192.277838 168.817849 
L 195.55717 170.873107 
L 198.836512 172.634071 
L 202.115855 173.781144 
L 205.395187 173.446304 
L 208.674529 171.200819 
L 211.953871 166.715878 
L 215.233204 160.283328 
L 218.512556 152.210275 
L 221.791879 143.86523 
L 225.071221 135.419485 
L 228.350563 127.526885 
L 231.629886 120.770003 
L 234.909247 115.848305 
L 238.18857 112.937662 
L 241.467912 112.740196 
L 244.747254 115.062559 
L 248.026597 120.024538 
L 251.305939 126.156389 
L 254.585262 132.547547 
L 257.864623 137.710208 
L 261.143946 140.794225 
L 264.423288 142.05335 
L 267.70263 141.788993 
L 270.981953 140.941325 
L 274.261315 139.874347 
L 277.540637 139.296959 
L 280.81998 139.05476 
L 284.099322 138.975096 
L 287.378664 138.499493 
L 290.658006 138.429402 
L 293.937329 138.501216 
L 297.21669 139.926729 
L 300.496013 142.699797 
L 303.775355 147.980387 
L 307.054697 155.860328 
L 310.33402 165.903188 
L 313.613382 177.28025 
L 316.892705 188.865359 
L 320.172047 199.81836 
L 323.451389 208.481956 
L 326.730731 214.261421 
L 330.010073 217.194513 
L 333.289396 217.802015 
L 336.568738 217.044615 
L 339.84808 217.086045 
L 343.127423 217.931584 
L 346.406765 219.786328 
L 349.686088 221.552025 
L 352.96543 221.087879 
L 356.244772 217.068579 
L 359.524114 207.884859 
L 362.803456 193.588707 
L 366.082798 175.59868 
L 369.362141 156.028885 
L 372.641463 137.17198 
L 375.920806 121.433107 
L 379.200148 110.306986 
" clip-path="url(#p8f1afd8d4c)" style="fill: none; stroke: #ff7f0e; stroke-width: 0.5; stroke-linecap: round"/>
   </g>
   <g id="line2d_16">
    <path d="M 54.545602 112.657094 
L 57.824941 107.415648 
L 61.10428 103.083495 
L 64.383619 98.962465 
L 67.662958 94.096103 
L 70.942296 88.31514 
L 74.221636 81.892072 
L 77.500973 75.798803 
L 80.780313 70.887279 
L 84.059653 67.80153 
L 87.33899 67.185964 
L 90.61833 69.150406 
L 93.89767 73.198885 
L 97.177007 78.945435 
L 100.456344 85.50226 
L 103.735686 91.993453 
L 107.015024 97.928771 
L 110.294361 103.071939 
L 113.573703 107.865982 
L 116.853041 112.137239 
L 120.132378 117.16136 
L 123.41172 123.200786 
L 126.691057 130.241185 
L 129.970395 139.114541 
L 133.249737 149.622154 
L 136.529069 161.709279 
L 139.808412 174.999638 
L 143.087754 188.695672 
L 146.367086 201.689733 
L 149.646428 212.294187 
L 152.92577 218.99199 
L 156.205103 220.899013 
L 159.484445 217.008254 
L 162.763787 208.073427 
L 166.04312 195.534585 
L 169.322462 181.216678 
L 172.601804 167.553439 
L 175.881137 157.066693 
L 179.160479 150.845903 
L 182.439821 148.928741 
L 185.719153 151.180435 
L 188.998496 155.681554 
L 192.277838 160.858238 
L 195.55717 165.978736 
L 198.836512 169.842629 
L 202.115855 171.739964 
L 205.395187 172.097111 
L 208.674529 170.272736 
L 211.953871 166.029582 
L 215.233204 159.702053 
L 218.512556 150.868132 
L 221.791879 140.244078 
L 225.071221 128.615308 
L 228.350563 116.583051 
L 231.629886 105.344284 
L 234.909247 95.227403 
L 238.18857 86.477254 
L 241.467912 79.424928 
L 244.747254 73.890929 
L 248.026597 69.749305 
L 251.305939 66.193776 
L 254.585262 62.945142 
L 257.864623 59.575928 
L 261.143946 55.628518 
L 264.423288 51.574081 
L 267.70263 48.747433 
L 270.981953 48.936027 
L 274.261315 53.824557 
L 277.540637 63.957499 
L 280.81998 79.524837 
L 284.099322 99.555743 
L 287.378664 121.672263 
L 290.658006 143.976143 
L 293.937329 164.441713 
L 297.21669 181.55699 
L 300.496013 194.155192 
L 303.775355 202.534841 
L 307.054697 206.735743 
L 310.33402 207.997361 
L 313.613382 206.802247 
L 316.892705 204.894202 
L 320.172047 202.766571 
L 323.451389 200.68018 
L 326.730731 198.390279 
L 330.010073 196.052628 
L 333.289396 193.169513 
L 336.568738 190.936777 
L 339.84808 189.431532 
L 343.127423 189.795643 
L 346.406765 192.408268 
L 349.686088 196.862999 
L 352.96543 202.339928 
L 356.244772 206.949696 
L 359.524114 208.789276 
L 362.803456 206.585579 
L 366.082798 199.736927 
L 369.362141 188.662899 
L 372.641463 175.026247 
L 375.920806 160.264928 
L 379.200148 146.304386 
" clip-path="url(#p8f1afd8d4c)" style="fill: none; stroke: #ff7f0e; stroke-width: 0.5; stroke-linecap: round"/>
   </g>
   <g id="line2d_17">
    <path d="M 54.545602 117.204215 
L 57.824941 118.117689 
L 61.10428 116.360854 
L 64.383619 111.934266 
L 67.662958 105.578403 
L 70.942296 99.355285 
L 74.221636 93.477688 
L 77.500973 89.006014 
L 80.780313 86.039965 
L 84.059653 84.647857 
L 87.33899 84.617575 
L 90.61833 85.81791 
L 93.89767 87.671474 
L 97.177007 89.62467 
L 100.456344 90.893924 
L 103.735686 91.169311 
L 107.015024 90.075616 
L 110.294361 88.212745 
L 113.573703 86.212126 
L 116.853041 85.414711 
L 120.132378 86.387446 
L 123.41172 90.084574 
L 126.691057 96.12887 
L 129.970395 103.825906 
L 133.249737 112.06571 
L 136.529069 119.634311 
L 139.808412 125.989177 
L 143.087754 130.675121 
L 146.367086 134.769684 
L 149.646428 138.98016 
L 152.92577 143.85511 
L 156.205103 150.040091 
L 159.484445 156.666645 
L 162.763787 163.721222 
L 166.04312 169.938947 
L 169.322462 175.218035 
L 172.601804 179.263022 
L 175.881137 181.994234 
L 179.160479 183.639387 
L 182.439821 183.865303 
L 185.719153 182.158953 
L 188.998496 178.368356 
L 192.277838 172.300418 
L 195.55717 163.352092 
L 198.836512 151.789351 
L 202.115855 138.398119 
L 205.395187 123.160313 
L 208.674529 107.996142 
L 211.953871 93.940946 
L 215.233204 81.933344 
L 218.512556 72.95262 
L 221.791879 67.215987 
L 225.071221 64.670893 
L 228.350563 64.05749 
L 231.629886 64.744827 
L 234.909247 66.505175 
L 238.18857 67.773068 
L 241.467912 68.606952 
L 244.747254 68.59012 
L 248.026597 67.982009 
L 251.305939 67.067504 
L 254.585262 66.294763 
L 257.864623 65.748905 
L 261.143946 65.554817 
L 264.423288 65.550427 
L 267.70263 65.877098 
L 270.981953 66.773761 
L 274.261315 68.459034 
L 277.540637 71.190069 
L 280.81998 74.896169 
L 284.099322 79.56083 
L 287.378664 84.932572 
L 290.658006 90.539946 
L 293.937329 96.466974 
L 297.21669 103.441826 
L 300.496013 111.419643 
L 303.775355 120.848616 
L 307.054697 131.67379 
L 310.33402 142.980181 
L 313.613382 154.089376 
L 316.892705 164.093275 
L 320.172047 171.581343 
L 323.451389 176.881321 
L 326.730731 179.447142 
L 330.010073 180.177003 
L 333.289396 179.870245 
L 336.568738 179.19469 
L 339.84808 179.167957 
L 343.127423 180.058629 
L 346.406765 182.318717 
L 349.686088 185.306359 
L 352.96543 188.345621 
L 356.244772 190.902294 
L 359.524114 191.741358 
L 362.803456 189.745907 
L 366.082798 184.730881 
L 369.362141 176.52471 
L 372.641463 166.794573 
L 375.920806 156.290884 
L 379.200148 146.277649 
" clip-path="url(#p8f1afd8d4c)" style="fill: none; stroke: #ff7f0e; stroke-width: 0.5; stroke-linecap: round"/>
   </g>
   <g id="line2d_18">
    <path d="M 54.545602 159.547631 
L 57.824941 153.404646 
L 61.10428 148.792895 
L 64.383619 145.469087 
L 67.662958 142.658667 
L 70.942296 139.438891 
L 74.221636 135.188628 
L 77.500973 129.318549 
L 80.780313 121.491052 
L 84.059653 111.94082 
L 87.33899 100.846029 
L 90.61833 89.1325 
L 93.89767 78.525079 
L 97.177007 70.160936 
L 100.456344 65.364111 
L 103.735686 64.012571 
L 107.015024 66.260883 
L 110.294361 71.112849 
L 113.573703 77.83957 
L 116.853041 85.298953 
L 120.132378 93.318223 
L 123.41172 102.085968 
L 126.691057 110.62231 
L 129.970395 119.131416 
L 133.249737 126.78758 
L 136.529069 134.196962 
L 139.808412 140.513577 
L 143.087754 145.94271 
L 146.367086 150.065774 
L 149.646428 152.99083 
L 152.92577 154.693254 
L 156.205103 155.610658 
L 159.484445 156.548335 
L 162.763787 158.61681 
L 166.04312 162.182008 
L 169.322462 167.266152 
L 172.601804 172.737764 
L 175.881137 177.59381 
L 179.160479 180.307153 
L 182.439821 180.383044 
L 185.719153 177.860055 
L 188.998496 173.707629 
L 192.277838 168.494778 
L 195.55717 163.296238 
L 198.836512 158.861592 
L 202.115855 155.653311 
L 205.395187 153.498969 
L 208.674529 153.117944 
L 211.953871 154.20441 
L 215.233204 156.479033 
L 218.512556 159.923836 
L 221.791879 163.8624 
L 225.071221 167.3157 
L 228.350563 169.980881 
L 231.629886 171.280047 
L 234.909247 170.906508 
L 238.18857 168.506078 
L 241.467912 164.201216 
L 244.747254 158.083898 
L 248.026597 150.544798 
L 251.305939 141.826372 
L 254.585262 132.514828 
L 257.864623 123.95936 
L 261.143946 116.446308 
L 264.423288 110.132687 
L 267.70263 105.377469 
L 270.981953 101.912678 
L 274.261315 98.868016 
L 277.540637 96.52103 
L 280.81998 95.287017 
L 284.099322 95.727894 
L 287.378664 98.935282 
L 290.658006 105.201854 
L 293.937329 113.928631 
L 297.21669 124.897226 
L 300.496013 136.541062 
L 303.775355 148.036678 
L 307.054697 158.078911 
L 310.33402 166.75934 
L 313.613382 173.747495 
L 316.892705 179.462017 
L 320.172047 183.76836 
L 323.451389 186.48302 
L 326.730731 187.192813 
L 330.010073 185.876986 
L 333.289396 182.420643 
L 336.568738 177.577029 
L 339.84808 172.070934 
L 343.127423 167.112038 
L 346.406765 163.93933 
L 349.686088 162.560568 
L 352.96543 163.050817 
L 356.244772 165.507288 
L 359.524114 169.501264 
L 362.803456 174.521128 
L 366.082798 179.884539 
L 369.362141 184.530021 
L 372.641463 186.937259 
L 375.920806 185.611427 
L 379.200148 179.784225 
" clip-path="url(#p8f1afd8d4c)" style="fill: none; stroke: #ff7f0e; stroke-width: 0.5; stroke-linecap: round"/>
   </g>
   <g id="line2d_19">
    <path d="M 54.545602 125.779617 
L 57.824941 119.744847 
L 61.10428 114.11248 
L 64.383619 108.896987 
L 67.662958 103.695731 
L 70.942296 99.579351 
L 74.221636 95.491589 
L 77.500973 91.901847 
L 80.780313 88.521917 
L 84.059653 85.552998 
L 87.33899 83.076597 
L 90.61833 81.188741 
L 93.89767 80.707814 
L 97.177007 81.462079 
L 100.456344 83.905329 
L 103.735686 87.444299 
L 107.015024 92.00796 
L 110.294361 96.545387 
L 113.573703 100.516805 
L 116.853041 103.340934 
L 120.132378 104.787945 
L 123.41172 105.889476 
L 126.691057 106.970796 
L 129.970395 108.991106 
L 133.249737 112.749269 
L 136.529069 118.676833 
L 139.808412 126.719225 
L 143.087754 136.585097 
L 146.367086 147.540743 
L 149.646428 159.447766 
L 152.92577 171.280228 
L 156.205103 181.566919 
L 159.484445 190.067693 
L 162.763787 196.464983 
L 166.04312 200.038455 
L 169.322462 201.760767 
L 172.601804 201.892082 
L 175.881137 200.695971 
L 179.160479 198.881091 
L 182.439821 196.728538 
L 185.719153 193.603071 
L 188.998496 189.022146 
L 192.277838 182.87077 
L 195.55717 175.013127 
L 198.836512 167.007422 
L 202.115855 159.301691 
L 205.395187 152.86714 
L 208.674529 148.411842 
L 211.953871 145.665775 
L 215.233204 144.167484 
L 218.512556 142.985655 
L 221.791879 141.087704 
L 225.071221 138.025213 
L 228.350563 133.026753 
L 231.629886 126.084049 
L 234.909247 117.490452 
L 238.18857 107.585405 
L 241.467912 97.033046 
L 244.747254 87.251442 
L 248.026597 79.24254 
L 251.305939 74.208337 
L 254.585262 73.646707 
L 257.864623 77.840655 
L 261.143946 87.044148 
L 264.423288 100.086069 
L 267.70263 115.167905 
L 270.981953 130.8701 
L 274.261315 144.847885 
L 277.540637 156.599549 
L 280.81998 165.990493 
L 284.099322 173.316979 
L 287.378664 178.991898 
L 290.658006 182.847565 
L 293.937329 184.842359 
L 297.21669 184.205691 
L 300.496013 180.979114 
L 303.775355 175.359964 
L 307.054697 169.157348 
L 310.33402 163.285604 
L 313.613382 159.760585 
L 316.892705 159.350542 
L 320.172047 162.59083 
L 323.451389 169.176341 
L 326.730731 177.600662 
L 330.010073 186.715318 
L 333.289396 194.910098 
L 336.568738 200.735987 
L 339.84808 204.405509 
L 343.127423 205.26061 
L 346.406765 203.4203 
L 349.686088 199.321673 
L 352.96543 193.845321 
L 356.244772 187.267413 
L 359.524114 180.356816 
L 362.803456 174.551239 
L 366.082798 170.127829 
L 369.362141 167.530795 
L 372.641463 166.842665 
L 375.920806 166.545551 
L 379.200148 166.271142 
" clip-path="url(#p8f1afd8d4c)" style="fill: none; stroke: #ff7f0e; stroke-width: 0.5; stroke-linecap: round"/>
   </g>
   <g id="line2d_20">
    <path d="M 54.545602 111.532259 
L 57.824941 111.323693 
L 61.10428 115.152145 
L 64.383619 121.881101 
L 67.662958 130.473714 
L 70.942296 139.585509 
L 74.221636 147.617413 
L 77.500973 153.036048 
L 80.780313 154.947684 
L 84.059653 153.236823 
L 87.33899 147.806825 
L 90.61833 139.504009 
L 93.89767 130.043801 
L 97.177007 120.12287 
L 100.456344 110.972189 
L 103.735686 103.282744 
L 107.015024 97.359704 
L 110.294361 93.472682 
L 113.573703 91.296089 
L 116.853041 90.888207 
L 120.132378 92.622553 
L 123.41172 96.710933 
L 126.691057 104.016127 
L 129.970395 114.881217 
L 133.249737 129.57391 
L 136.529069 146.998038 
L 139.808412 165.486053 
L 143.087754 182.830174 
L 146.367086 196.560863 
L 149.646428 205.601949 
L 152.92577 209.172027 
L 156.205103 208.979284 
L 159.484445 205.944 
L 162.763787 202.382082 
L 166.04312 199.431599 
L 169.322462 197.411833 
L 172.601804 196.525333 
L 175.881137 195.411474 
L 179.160479 193.639312 
L 182.439821 191.08972 
L 185.719153 187.426117 
L 188.998496 183.293543 
L 192.277838 179.26108 
L 195.55717 176.219613 
L 198.836512 174.331967 
L 202.115855 174.276667 
L 205.395187 175.636846 
L 208.674529 178.440901 
L 211.953871 181.803754 
L 215.233204 184.370498 
L 218.512556 185.346638 
L 221.791879 183.668823 
L 225.071221 178.184959 
L 228.350563 168.354436 
L 231.629886 155.250696 
L 234.909247 139.770838 
L 238.18857 124.09693 
L 241.467912 110.237046 
L 244.747254 98.975132 
L 248.026597 91.621104 
L 251.305939 88.255482 
L 254.585262 88.394778 
L 257.864623 91.41198 
L 261.143946 96.502814 
L 264.423288 102.781565 
L 267.70263 109.648077 
L 270.981953 116.029218 
L 274.261315 121.711321 
L 277.540637 125.913162 
L 280.81998 127.865233 
L 284.099322 127.735991 
L 287.378664 125.86191 
L 290.658006 122.611438 
L 293.937329 119.688022 
L 297.21669 117.836823 
L 300.496013 118.634625 
L 303.775355 122.988248 
L 307.054697 130.30524 
L 310.33402 140.733562 
L 313.613382 152.98578 
L 316.892705 166.550856 
L 320.172047 179.474608 
L 323.451389 191.504606 
L 326.730731 201.882209 
L 330.010073 210.240693 
L 333.289396 216.421143 
L 336.568738 220.423846 
L 339.84808 222.515092 
L 343.127423 222.709884 
L 346.406765 221.290215 
L 349.686088 218.160942 
L 352.96543 213.500893 
L 356.244772 206.985416 
L 359.524114 198.739625 
L 362.803456 188.827443 
L 366.082798 176.970006 
L 369.362141 163.549191 
L 372.641463 148.317362 
L 375.920806 132.133729 
L 379.200148 115.50434 
" clip-path="url(#p8f1afd8d4c)" style="fill: none; stroke: #ff7f0e; stroke-width: 0.5; stroke-linecap: round"/>
   </g>
   <g id="line2d_21">
    <path d="M 54.545602 151.886731 
L 57.824941 140.593228 
L 61.10428 128.745223 
L 64.383619 117.43737 
L 67.662958 107.51115 
L 70.942296 98.624939 
L 74.221636 91.573939 
L 77.500973 85.422692 
L 80.780313 79.839758 
L 84.059653 74.277709 
L 87.33899 67.78657 
L 90.61833 60.733444 
L 93.89767 53.470807 
L 97.177007 46.594601 
L 100.456344 40.811837 
L 103.735686 36.551194 
L 107.015024 34.082153 
L 110.294361 33.4264 
L 113.573703 34.293631 
L 116.853041 36.710418 
L 120.132378 41.064542 
L 123.41172 47.826184 
L 126.691057 57.452421 
L 129.970395 69.732314 
L 133.249737 84.195398 
L 136.529069 99.636573 
L 139.808412 114.581365 
L 143.087754 127.685846 
L 146.367086 139.077172 
L 149.646428 148.817102 
L 152.92577 157.094723 
L 156.205103 164.480149 
L 159.484445 169.92916 
L 162.763787 173.897019 
L 166.04312 175.880567 
L 169.322462 176.128416 
L 172.601804 175.321043 
L 175.881137 174.367189 
L 179.160479 173.194208 
L 182.439821 171.331289 
L 185.719153 168.833139 
L 188.998496 165.627528 
L 192.277838 162.523557 
L 195.55717 160.257545 
L 198.836512 159.770892 
L 202.115855 161.281025 
L 205.395187 163.843055 
L 208.674529 164.800055 
L 211.953871 163.566883 
L 215.233204 158.062248 
L 218.512556 148.131841 
L 221.791879 135.135895 
L 225.071221 120.528542 
L 228.350563 106.696221 
L 231.629886 95.115465 
L 234.909247 86.957033 
L 238.18857 82.6526 
L 241.467912 81.724162 
L 244.747254 82.568724 
L 248.026597 84.552866 
L 251.305939 86.434416 
L 254.585262 87.68154 
L 257.864623 87.77687 
L 261.143946 87.313118 
L 264.423288 86.801591 
L 267.70263 87.067258 
L 270.981953 88.949233 
L 274.261315 92.742437 
L 277.540637 98.194946 
L 280.81998 104.282648 
L 284.099322 110.158354 
L 287.378664 114.705948 
L 290.658006 117.801036 
L 293.937329 120.008757 
L 297.21669 122.330481 
L 300.496013 126.448761 
L 303.775355 132.738309 
L 307.054697 141.128672 
L 310.33402 151.372228 
L 313.613382 163.342334 
L 316.892705 175.552557 
L 320.172047 188.761808 
L 323.451389 202.246542 
L 326.730731 215.530424 
L 330.010073 228.432343 
L 333.289396 239.659127 
L 336.568738 248.457913 
L 339.84808 254.430406 
L 343.127423 256.71605 
L 346.406765 255.166596 
L 349.686088 249.815557 
L 352.96543 240.612556 
L 356.244772 227.94403 
L 359.524114 211.91827 
L 362.803456 193.383884 
L 366.082798 173.600405 
L 369.362141 154.433304 
L 372.641463 137.660389 
L 375.920806 124.746633 
L 379.200148 117.079671 
" clip-path="url(#p8f1afd8d4c)" style="fill: none; stroke: #ff7f0e; stroke-width: 0.5; stroke-linecap: round"/>
   </g>
   <g id="line2d_22">
    <path d="M 54.545602 145.419542 
L 57.824941 144.859396 
L 61.10428 142.626587 
L 64.383619 138.068011 
L 67.662958 131.471265 
L 70.942296 123.263147 
L 74.221636 115.402249 
L 77.500973 108.675243 
L 80.780313 104.64501 
L 84.059653 103.557989 
L 87.33899 104.133635 
L 90.61833 105.652099 
L 93.89767 106.685432 
L 97.177007 106.135282 
L 100.456344 104.290277 
L 103.735686 102.013976 
L 107.015024 100.052173 
L 110.294361 99.806304 
L 113.573703 101.792939 
L 116.853041 106.828944 
L 120.132378 113.753711 
L 123.41172 121.378226 
L 126.691057 128.916872 
L 129.970395 135.325854 
L 133.249737 139.852651 
L 136.529069 142.219688 
L 139.808412 142.908279 
L 143.087754 142.385224 
L 146.367086 141.149553 
L 149.646428 139.934303 
L 152.92577 138.692724 
L 156.205103 138.060358 
L 159.484445 136.730065 
L 162.763787 134.672104 
L 166.04312 131.298948 
L 169.322462 126.969113 
L 172.601804 121.537846 
L 175.881137 116.300233 
L 179.160479 112.387353 
L 182.439821 110.235505 
L 185.719153 110.511669 
L 188.998496 113.118671 
L 192.277838 116.368859 
L 195.55717 119.982511 
L 198.836512 121.275313 
L 202.115855 119.684153 
L 205.395187 114.928363 
L 208.674529 106.475365 
L 211.953871 95.896905 
L 215.233204 84.027685 
L 218.512556 73.692318 
L 221.791879 65.736711 
L 225.071221 61.91703 
L 228.350563 63.561545 
L 231.629886 69.947288 
L 234.909247 80.261934 
L 238.18857 93.384283 
L 241.467912 106.998224 
L 244.747254 118.149233 
L 248.026597 125.687903 
L 251.305939 127.977794 
L 254.585262 124.65956 
L 257.864623 117.311518 
L 261.143946 107.382548 
L 264.423288 97.175279 
L 267.70263 88.602446 
L 270.981953 83.566413 
L 274.261315 82.57819 
L 277.540637 85.741858 
L 280.81998 92.269209 
L 284.099322 100.584454 
L 287.378664 110.173239 
L 290.658006 119.852918 
L 293.937329 129.456221 
L 297.21669 138.548981 
L 300.496013 146.947784 
L 303.775355 153.962462 
L 307.054697 159.413143 
L 310.33402 163.977096 
L 313.613382 167.788208 
L 316.892705 171.678764 
L 320.172047 176.28981 
L 323.451389 182.042463 
L 326.730731 188.426937 
L 330.010073 195.007767 
L 333.289396 200.975388 
L 336.568738 205.058172 
L 339.84808 207.005217 
L 343.127423 207.004983 
L 346.406765 205.290442 
L 349.686088 202.499558 
L 352.96543 198.936118 
L 356.244772 194.27704 
L 359.524114 189.173262 
L 362.803456 183.40642 
L 366.082798 177.293485 
L 369.362141 171.867173 
L 372.641463 167.434655 
L 375.920806 164.781383 
L 379.200148 162.852915 
" clip-path="url(#p8f1afd8d4c)" style="fill: none; stroke: #ff7f0e; stroke-width: 0.5; stroke-linecap: round"/>
   </g>
   <g id="patch_3">
    <path d="M 38.312875 246.7008 
L 38.312875 33.8112 
" style="fill: none; stroke: #262626; stroke-linejoin: miter; stroke-linecap: square"/>
   </g>
   <g id="patch_4">
    <path d="M 54.545602 273.312 
L 379.200148 273.312 
" style="fill: none; stroke: #262626; stroke-linejoin: miter; stroke-linecap: square"/>
   </g>
   <g id="legend_1">
    <g id="line2d_23">
     <path d="M 334.506625 18.338875 
L 343.306625 18.338875 
L 352.106625 18.338875 
" style="fill: none; stroke: #1f77b4; stroke-width: 1.2; stroke-linecap: round"/>
    </g>
    <g id="text_14">
     <!-- mean -->
     <g style="fill: #262626" transform="translate(359.146625 21.418875) scale(0.088 -0.088)">
      <defs>
       <path id="ArialMT-6d" d="M 422 0 
L 422 3319 
L 925 3319 
L 925 2853 
Q 1081 3097 1340 3245 
Q 1600 3394 1931 3394 
Q 2300 3394 2536 3241 
Q 2772 3088 2869 2813 
Q 3263 3394 3894 3394 
Q 4388 3394 4653 3120 
Q 4919 2847 4919 2278 
L 4919 0 
L 4359 0 
L 4359 2091 
Q 4359 2428 4304 2576 
Q 4250 2725 4106 2815 
Q 3963 2906 3769 2906 
Q 3419 2906 3187 2673 
Q 2956 2441 2956 1928 
L 2956 0 
L 2394 0 
L 2394 2156 
Q 2394 2531 2256 2718 
Q 2119 2906 1806 2906 
Q 1569 2906 1367 2781 
Q 1166 2656 1075 2415 
Q 984 2175 984 1722 
L 984 0 
L 422 0 
z
" transform="scale(0.015625)"/>
       <path id="ArialMT-65" d="M 2694 1069 
L 3275 997 
Q 3138 488 2766 206 
Q 2394 -75 1816 -75 
Q 1088 -75 661 373 
Q 234 822 234 1631 
Q 234 2469 665 2931 
Q 1097 3394 1784 3394 
Q 2450 3394 2872 2941 
Q 3294 2488 3294 1666 
Q 3294 1616 3291 1516 
L 816 1516 
Q 847 969 1125 678 
Q 1403 388 1819 388 
Q 2128 388 2347 550 
Q 2566 713 2694 1069 
z
M 847 1978 
L 2700 1978 
Q 2663 2397 2488 2606 
Q 2219 2931 1791 2931 
Q 1403 2931 1139 2672 
Q 875 2413 847 1978 
z
" transform="scale(0.015625)"/>
       <path id="ArialMT-61" d="M 2588 409 
Q 2275 144 1986 34 
Q 1697 -75 1366 -75 
Q 819 -75 525 192 
Q 231 459 231 875 
Q 231 1119 342 1320 
Q 453 1522 633 1644 
Q 813 1766 1038 1828 
Q 1203 1872 1538 1913 
Q 2219 1994 2541 2106 
Q 2544 2222 2544 2253 
Q 2544 2597 2384 2738 
Q 2169 2928 1744 2928 
Q 1347 2928 1158 2789 
Q 969 2650 878 2297 
L 328 2372 
Q 403 2725 575 2942 
Q 747 3159 1072 3276 
Q 1397 3394 1825 3394 
Q 2250 3394 2515 3294 
Q 2781 3194 2906 3042 
Q 3031 2891 3081 2659 
Q 3109 2516 3109 2141 
L 3109 1391 
Q 3109 606 3145 398 
Q 3181 191 3288 0 
L 2700 0 
Q 2613 175 2588 409 
z
M 2541 1666 
Q 2234 1541 1622 1453 
Q 1275 1403 1131 1340 
Q 988 1278 909 1158 
Q 831 1038 831 891 
Q 831 666 1001 516 
Q 1172 366 1500 366 
Q 1825 366 2078 508 
Q 2331 650 2450 897 
Q 2541 1088 2541 1459 
L 2541 1666 
z
" transform="scale(0.015625)"/>
       <path id="ArialMT-6e" d="M 422 0 
L 422 3319 
L 928 3319 
L 928 2847 
Q 1294 3394 1984 3394 
Q 2284 3394 2536 3286 
Q 2788 3178 2913 3003 
Q 3038 2828 3088 2588 
Q 3119 2431 3119 2041 
L 3119 0 
L 2556 0 
L 2556 2019 
Q 2556 2363 2490 2533 
Q 2425 2703 2258 2804 
Q 2091 2906 1866 2906 
Q 1506 2906 1245 2678 
Q 984 2450 984 1813 
L 984 0 
L 422 0 
z
" transform="scale(0.015625)"/>
      </defs>
      <use xlink:href="#ArialMT-6d"/>
      <use xlink:href="#ArialMT-65" x="83.300781"/>
      <use xlink:href="#ArialMT-61" x="138.916016"/>
      <use xlink:href="#ArialMT-6e" x="194.53125"/>
     </g>
    </g>
    <g id="line2d_24">
     <path d="M 334.506625 30.78675 
L 343.306625 30.78675 
L 352.106625 30.78675 
" style="fill: none; stroke: #ff7f0e; stroke-width: 0.5; stroke-linecap: round"/>
    </g>
    <g id="text_15">
     <!-- sample -->
     <g style="fill: #262626" transform="translate(359.146625 33.86675) scale(0.088 -0.088)">
      <defs>
       <path id="ArialMT-73" d="M 197 991 
L 753 1078 
Q 800 744 1014 566 
Q 1228 388 1613 388 
Q 2000 388 2187 545 
Q 2375 703 2375 916 
Q 2375 1106 2209 1216 
Q 2094 1291 1634 1406 
Q 1016 1563 777 1677 
Q 538 1791 414 1992 
Q 291 2194 291 2438 
Q 291 2659 392 2848 
Q 494 3038 669 3163 
Q 800 3259 1026 3326 
Q 1253 3394 1513 3394 
Q 1903 3394 2198 3281 
Q 2494 3169 2634 2976 
Q 2775 2784 2828 2463 
L 2278 2388 
Q 2241 2644 2061 2787 
Q 1881 2931 1553 2931 
Q 1166 2931 1000 2803 
Q 834 2675 834 2503 
Q 834 2394 903 2306 
Q 972 2216 1119 2156 
Q 1203 2125 1616 2013 
Q 2213 1853 2448 1751 
Q 2684 1650 2818 1456 
Q 2953 1263 2953 975 
Q 2953 694 2789 445 
Q 2625 197 2315 61 
Q 2006 -75 1616 -75 
Q 969 -75 630 194 
Q 291 463 197 991 
z
" transform="scale(0.015625)"/>
       <path id="ArialMT-70" d="M 422 -1272 
L 422 3319 
L 934 3319 
L 934 2888 
Q 1116 3141 1344 3267 
Q 1572 3394 1897 3394 
Q 2322 3394 2647 3175 
Q 2972 2956 3137 2557 
Q 3303 2159 3303 1684 
Q 3303 1175 3120 767 
Q 2938 359 2589 142 
Q 2241 -75 1856 -75 
Q 1575 -75 1351 44 
Q 1128 163 984 344 
L 984 -1272 
L 422 -1272 
z
M 931 1641 
Q 931 1000 1190 694 
Q 1450 388 1819 388 
Q 2194 388 2461 705 
Q 2728 1022 2728 1688 
Q 2728 2322 2467 2637 
Q 2206 2953 1844 2953 
Q 1484 2953 1207 2617 
Q 931 2281 931 1641 
z
" transform="scale(0.015625)"/>
       <path id="ArialMT-6c" d="M 409 0 
L 409 4581 
L 972 4581 
L 972 0 
L 409 0 
z
" transform="scale(0.015625)"/>
      </defs>
      <use xlink:href="#ArialMT-73"/>
      <use xlink:href="#ArialMT-61" x="50"/>
      <use xlink:href="#ArialMT-6d" x="105.615234"/>
      <use xlink:href="#ArialMT-70" x="188.916016"/>
      <use xlink:href="#ArialMT-6c" x="244.53125"/>
      <use xlink:href="#ArialMT-65" x="266.748047"/>
     </g>
    </g>
   </g>
  </g>
 </g>
 <defs>
  <clipPath id="p8f1afd8d4c">
   <rect x="38.312875" y="7.2" width="357.12" height="266.112"/>
  </clipPath>
 </defs>
</svg>