<?xml version="1.0" encoding="UTF-8" standalone="no"?>
<!DOCTYPE svg PUBLIC "-//W3C//DTD SVG 1.1//EN"
 "http://www.w3.org/Graphics/SVG/1.1/DTD/svg11.dtd">
<!-- Generated by graphviz version 2.43.0 (0)
 -->
<!-- Title: coin_toss_g Pages: 1 -->
<svg width="206pt" height="116pt"
 viewBox="0.00 0.00 206.00 116.00" xmlns="http://www.w3.org/2000/svg" xmlns:xlink="http://www.w3.org/1999/xlink">
<g id="graph0" class="graph" transform="scale(1 1) rotate(0) translate(4 112)">
<title>coin_toss_g</title>
<polygon fill="white" stroke="transparent" points="-4,4 -4,-112 202,-112 202,4 -4,4"/>
<!-- omega0 -->
<g id="node1" class="node">
<title>omega0</title>
<ellipse fill="none" stroke="black" cx="27" cy="-90" rx="27" ry="18"/>
<text text-anchor="start" x="18.44" y="-86.8" font-family="Times,serif" font-size="14.00">ω</text>
<text text-anchor="start" x="28.56" y="-86.8" font-family="Times,serif" baseline-shift="sub" font-size="14.00">0</text>
</g>
<!-- X -->
<g id="node4" class="node">
<title>X</title>
<ellipse fill="none" stroke="black" cx="99" cy="-18" rx="27" ry="18"/>
<text text-anchor="middle" x="99" y="-13.8" font-family="Times,serif" font-size="14.00">X</text>
</g>
<!-- omega0&#45;&gt;X -->
<g id="edge3" class="edge">
<title>omega0&#45;&gt;X</title>
<path fill="none" stroke="black" d="M41.57,-74.83C51.75,-64.94 65.52,-51.55 77.03,-40.36"/>
<polygon fill="black" stroke="black" points="79.47,-42.87 84.2,-33.38 74.59,-37.85 79.47,-42.87"/>
</g>
<!-- v0 -->
<g id="node2" class="node">
<title>v0</title>
<ellipse fill="none" stroke="black" cx="99" cy="-90" rx="27" ry="18"/>
<text text-anchor="start" x="92" y="-86.8" font-family="Times,serif" font-size="14.00">v</text>
<text text-anchor="start" x="99" y="-86.8" font-family="Times,serif" baseline-shift="sub" font-size="14.00">0</text>
</g>
<!-- v0&#45;&gt;X -->
<g id="edge2" class="edge">
<title>v0&#45;&gt;X</title>
<path fill="none" stroke="black" d="M99,-71.7C99,-63.98 99,-54.71 99,-46.11"/>
<polygon fill="black" stroke="black" points="102.5,-46.1 99,-36.1 95.5,-46.1 102.5,-46.1"/>
</g>
<!-- g -->
<g id="node3" class="node">
<title>g</title>
<ellipse fill="lightgrey" stroke="black" cx="171" cy="-90" rx="27" ry="18"/>
<text text-anchor="middle" x="171" y="-85.8" font-family="Times,serif" font-size="14.00">g</text>
</g>
<!-- g&#45;&gt;X -->
<g id="edge1" class="edge">
<title>g&#45;&gt;X</title>
<path fill="none" stroke="black" d="M156.43,-74.83C146.25,-64.94 132.48,-51.55 120.97,-40.36"/>
<polygon fill="black" stroke="black" points="123.41,-37.85 113.8,-33.38 118.53,-42.87 123.41,-37.85"/>
</g>
</g>
</svg>