<?xml version="1.0" encoding="utf-8" standalone="no"?>
<!DOCTYPE svg PUBLIC "-//W3C//DTD SVG 1.1//EN"
  "http://www.w3.org/Graphics/SVG/1.1/DTD/svg11.dtd">
<svg xmlns:xlink="http://www.w3.org/1999/xlink" width="405.079687pt" height="312.788812pt" viewBox="0 0 405.079687 312.788812" xmlns="http://www.w3.org/2000/svg" version="1.1">
 <metadata>
  <rdf:RDF xmlns:dc="http://purl.org/dc/elements/1.1/" xmlns:cc="http://creativecommons.org/ns#" xmlns:rdf="http://www.w3.org/1999/02/22-rdf-syntax-ns#">
   <cc:Work>
    <dc:type rdf:resource="http://purl.org/dc/dcmitype/StillImage"/>
    <dc:date>2023-08-11T10:11:09.421454</dc:date>
    <dc:format>image/svg+xml</dc:format>
    <dc:creator>
     <cc:Agent>
      <dc:title>Matplotlib v3.7.1, https://matplotlib.org/</dc:title>
     </cc:Agent>
    </dc:creator>
   </cc:Work>
  </rdf:RDF>
 </metadata>
 <defs>
  <style type="text/css">*{stroke-linejoin: round; stroke-linecap: butt}</style>
 </defs>
 <g id="figure_1">
  <g id="patch_1">
   <path d="M 0 312.788812 
L 405.079687 312.788812 
L 405.079687 0 
L 0 0 
z
" style="fill: #ffffff"/>
  </g>
  <g id="axes_1">
   <g id="patch_2">
    <path d="M 38.312875 276.461437 
L 395.432875 276.461437 
L 395.432875 10.349437 
L 38.312875 10.349437 
z
" style="fill: #ffffff"/>
   </g>
   <g id="matplotlib.axis_1">
    <g id="xtick_1">
     <g id="line2d_1">
      <defs>
       <path id="m8789531eb0" d="M 0 0 
L 0 4.8 
" style="stroke: #262626"/>
      </defs>
      <g>
       <use xlink:href="#m8789531eb0" x="38.312875" y="276.461437" style="fill: #262626; stroke: #262626"/>
      </g>
     </g>
     <g id="text_1">
      <!-- −3 -->
      <g style="fill: #262626" transform="translate(33.296188 291.060312) scale(0.088 -0.088)">
       <defs>
        <path id="ArialMT-2212" d="M 3381 1997 
L 356 1997 
L 356 2522 
L 3381 2522 
L 3381 1997 
z
" transform="scale(0.015625)"/>
        <path id="ArialMT-33" d="M 269 1209 
L 831 1284 
Q 928 806 1161 595 
Q 1394 384 1728 384 
Q 2125 384 2398 659 
Q 2672 934 2672 1341 
Q 2672 1728 2419 1979 
Q 2166 2231 1775 2231 
Q 1616 2231 1378 2169 
L 1441 2663 
Q 1497 2656 1531 2656 
Q 1891 2656 2178 2843 
Q 2466 3031 2466 3422 
Q 2466 3731 2256 3934 
Q 2047 4138 1716 4138 
Q 1388 4138 1169 3931 
Q 950 3725 888 3313 
L 325 3413 
Q 428 3978 793 4289 
Q 1159 4600 1703 4600 
Q 2078 4600 2393 4439 
Q 2709 4278 2876 4000 
Q 3044 3722 3044 3409 
Q 3044 3113 2884 2869 
Q 2725 2625 2413 2481 
Q 2819 2388 3044 2092 
Q 3269 1797 3269 1353 
Q 3269 753 2831 336 
Q 2394 -81 1725 -81 
Q 1122 -81 723 278 
Q 325 638 269 1209 
z
" transform="scale(0.015625)"/>
       </defs>
       <use xlink:href="#ArialMT-2212"/>
       <use xlink:href="#ArialMT-33" x="58.398438"/>
      </g>
     </g>
    </g>
    <g id="xtick_2">
     <g id="line2d_2">
      <g>
       <use xlink:href="#m8789531eb0" x="82.952875" y="276.461437" style="fill: #262626; stroke: #262626"/>
      </g>
     </g>
     <g id="text_2">
      <!-- −2 -->
      <g style="fill: #262626" transform="translate(77.936188 291.060312) scale(0.088 -0.088)">
       <defs>
        <path id="ArialMT-32" d="M 3222 541 
L 3222 0 
L 194 0 
Q 188 203 259 391 
Q 375 700 629 1000 
Q 884 1300 1366 1694 
Q 2113 2306 2375 2664 
Q 2638 3022 2638 3341 
Q 2638 3675 2398 3904 
Q 2159 4134 1775 4134 
Q 1369 4134 1125 3890 
Q 881 3647 878 3216 
L 300 3275 
Q 359 3922 746 4261 
Q 1134 4600 1788 4600 
Q 2447 4600 2831 4234 
Q 3216 3869 3216 3328 
Q 3216 3053 3103 2787 
Q 2991 2522 2730 2228 
Q 2469 1934 1863 1422 
Q 1356 997 1212 845 
Q 1069 694 975 541 
L 3222 541 
z
" transform="scale(0.015625)"/>
       </defs>
       <use xlink:href="#ArialMT-2212"/>
       <use xlink:href="#ArialMT-32" x="58.398438"/>
      </g>
     </g>
    </g>
    <g id="xtick_3">
     <g id="line2d_3">
      <g>
       <use xlink:href="#m8789531eb0" x="127.592875" y="276.461437" style="fill: #262626; stroke: #262626"/>
      </g>
     </g>
     <g id="text_3">
      <!-- −1 -->
      <g style="fill: #262626" transform="translate(122.576188 291.060312) scale(0.088 -0.088)">
       <defs>
        <path id="ArialMT-31" d="M 2384 0 
L 1822 0 
L 1822 3584 
Q 1619 3391 1289 3197 
Q 959 3003 697 2906 
L 697 3450 
Q 1169 3672 1522 3987 
Q 1875 4303 2022 4600 
L 2384 4600 
L 2384 0 
z
" transform="scale(0.015625)"/>
       </defs>
       <use xlink:href="#ArialMT-2212"/>
       <use xlink:href="#ArialMT-31" x="58.398438"/>
      </g>
     </g>
    </g>
    <g id="xtick_4">
     <g id="line2d_4">
      <g>
       <use xlink:href="#m8789531eb0" x="172.232875" y="276.461437" style="fill: #262626; stroke: #262626"/>
      </g>
     </g>
     <g id="text_4">
      <!-- 0 -->
      <g style="fill: #262626" transform="translate(169.786063 291.060312) scale(0.088 -0.088)">
       <defs>
        <path id="ArialMT-30" d="M 266 2259 
Q 266 3072 433 3567 
Q 600 4063 929 4331 
Q 1259 4600 1759 4600 
Q 2128 4600 2406 4451 
Q 2684 4303 2865 4023 
Q 3047 3744 3150 3342 
Q 3253 2941 3253 2259 
Q 3253 1453 3087 958 
Q 2922 463 2592 192 
Q 2263 -78 1759 -78 
Q 1097 -78 719 397 
Q 266 969 266 2259 
z
M 844 2259 
Q 844 1131 1108 757 
Q 1372 384 1759 384 
Q 2147 384 2411 759 
Q 2675 1134 2675 2259 
Q 2675 3391 2411 3762 
Q 2147 4134 1753 4134 
Q 1366 4134 1134 3806 
Q 844 3388 844 2259 
z
" transform="scale(0.015625)"/>
       </defs>
       <use xlink:href="#ArialMT-30"/>
      </g>
     </g>
    </g>
    <g id="xtick_5">
     <g id="line2d_5">
      <g>
       <use xlink:href="#m8789531eb0" x="216.872875" y="276.461437" style="fill: #262626; stroke: #262626"/>
      </g>
     </g>
     <g id="text_5">
      <!-- 1 -->
      <g style="fill: #262626" transform="translate(214.426063 291.060312) scale(0.088 -0.088)">
       <use xlink:href="#ArialMT-31"/>
      </g>
     </g>
    </g>
    <g id="xtick_6">
     <g id="line2d_6">
      <g>
       <use xlink:href="#m8789531eb0" x="261.512875" y="276.461437" style="fill: #262626; stroke: #262626"/>
      </g>
     </g>
     <g id="text_6">
      <!-- 2 -->
      <g style="fill: #262626" transform="translate(259.066062 291.060312) scale(0.088 -0.088)">
       <use xlink:href="#ArialMT-32"/>
      </g>
     </g>
    </g>
    <g id="xtick_7">
     <g id="line2d_7">
      <g>
       <use xlink:href="#m8789531eb0" x="306.152875" y="276.461437" style="fill: #262626; stroke: #262626"/>
      </g>
     </g>
     <g id="text_7">
      <!-- 3 -->
      <g style="fill: #262626" transform="translate(303.706063 291.060312) scale(0.088 -0.088)">
       <use xlink:href="#ArialMT-33"/>
      </g>
     </g>
    </g>
    <g id="xtick_8">
     <g id="line2d_8">
      <g>
       <use xlink:href="#m8789531eb0" x="350.792875" y="276.461437" style="fill: #262626; stroke: #262626"/>
      </g>
     </g>
     <g id="text_8">
      <!-- 4 -->
      <g style="fill: #262626" transform="translate(348.346063 291.060312) scale(0.088 -0.088)">
       <defs>
        <path id="ArialMT-34" d="M 2069 0 
L 2069 1097 
L 81 1097 
L 81 1613 
L 2172 4581 
L 2631 4581 
L 2631 1613 
L 3250 1613 
L 3250 1097 
L 2631 1097 
L 2631 0 
L 2069 0 
z
M 2069 1613 
L 2069 3678 
L 634 1613 
L 2069 1613 
z
" transform="scale(0.015625)"/>
       </defs>
       <use xlink:href="#ArialMT-34"/>
      </g>
     </g>
    </g>
    <g id="xtick_9">
     <g id="line2d_9">
      <g>
       <use xlink:href="#m8789531eb0" x="395.432875" y="276.461437" style="fill: #262626; stroke: #262626"/>
      </g>
     </g>
     <g id="text_9">
      <!-- 5 -->
      <g style="fill: #262626" transform="translate(392.986063 291.060312) scale(0.088 -0.088)">
       <defs>
        <path id="ArialMT-35" d="M 266 1200 
L 856 1250 
Q 922 819 1161 601 
Q 1400 384 1738 384 
Q 2144 384 2425 690 
Q 2706 997 2706 1503 
Q 2706 1984 2436 2262 
Q 2166 2541 1728 2541 
Q 1456 2541 1237 2417 
Q 1019 2294 894 2097 
L 366 2166 
L 809 4519 
L 3088 4519 
L 3088 3981 
L 1259 3981 
L 1013 2750 
Q 1425 3038 1878 3038 
Q 2478 3038 2890 2622 
Q 3303 2206 3303 1553 
Q 3303 931 2941 478 
Q 2500 -78 1738 -78 
Q 1113 -78 717 272 
Q 322 622 266 1200 
z
" transform="scale(0.015625)"/>
       </defs>
       <use xlink:href="#ArialMT-35"/>
      </g>
     </g>
    </g>
    <g id="text_10">
     <!-- $x_1$ -->
     <g style="fill: #262626" transform="translate(211.736875 303.680812) scale(0.096 -0.096)">
      <defs>
       <path id="DejaVuSans-Oblique-78" d="M 3841 3500 
L 2234 1784 
L 3219 0 
L 2559 0 
L 1819 1388 
L 531 0 
L -166 0 
L 1556 1844 
L 641 3500 
L 1300 3500 
L 1972 2234 
L 3144 3500 
L 3841 3500 
z
" transform="scale(0.015625)"/>
       <path id="DejaVuSans-31" d="M 794 531 
L 1825 531 
L 1825 4091 
L 703 3866 
L 703 4441 
L 1819 4666 
L 2450 4666 
L 2450 531 
L 3481 531 
L 3481 0 
L 794 0 
L 794 531 
z
" transform="scale(0.015625)"/>
      </defs>
      <use xlink:href="#DejaVuSans-Oblique-78" transform="translate(0 0.3125)"/>
      <use xlink:href="#DejaVuSans-31" transform="translate(59.179688 -16.09375) scale(0.7)"/>
     </g>
    </g>
   </g>
   <g id="matplotlib.axis_2">
    <g id="ytick_1">
     <g id="line2d_10">
      <defs>
       <path id="m7e789e8a8f" d="M 0 0 
L -4.8 0 
" style="stroke: #262626"/>
      </defs>
      <g>
       <use xlink:href="#m7e789e8a8f" x="38.312875" y="276.461437" style="fill: #262626; stroke: #262626"/>
      </g>
     </g>
     <g id="text_11">
      <!-- −3 -->
      <g style="fill: #262626" transform="translate(19.9795 279.610875) scale(0.088 -0.088)">
       <use xlink:href="#ArialMT-2212"/>
       <use xlink:href="#ArialMT-33" x="58.398438"/>
      </g>
     </g>
    </g>
    <g id="ytick_2">
     <g id="line2d_11">
      <g>
       <use xlink:href="#m7e789e8a8f" x="38.312875" y="243.197437" style="fill: #262626; stroke: #262626"/>
      </g>
     </g>
     <g id="text_12">
      <!-- −2 -->
      <g style="fill: #262626" transform="translate(19.9795 246.346875) scale(0.088 -0.088)">
       <use xlink:href="#ArialMT-2212"/>
       <use xlink:href="#ArialMT-32" x="58.398438"/>
      </g>
     </g>
    </g>
    <g id="ytick_3">
     <g id="line2d_12">
      <g>
       <use xlink:href="#m7e789e8a8f" x="38.312875" y="209.933437" style="fill: #262626; stroke: #262626"/>
      </g>
     </g>
     <g id="text_13">
      <!-- −1 -->
      <g style="fill: #262626" transform="translate(19.9795 213.082875) scale(0.088 -0.088)">
       <use xlink:href="#ArialMT-2212"/>
       <use xlink:href="#ArialMT-31" x="58.398438"/>
      </g>
     </g>
    </g>
    <g id="ytick_4">
     <g id="line2d_13">
      <g>
       <use xlink:href="#m7e789e8a8f" x="38.312875" y="176.669437" style="fill: #262626; stroke: #262626"/>
      </g>
     </g>
     <g id="text_14">
      <!-- 0 -->
      <g style="fill: #262626" transform="translate(25.11925 179.818875) scale(0.088 -0.088)">
       <use xlink:href="#ArialMT-30"/>
      </g>
     </g>
    </g>
    <g id="ytick_5">
     <g id="line2d_14">
      <g>
       <use xlink:href="#m7e789e8a8f" x="38.312875" y="143.405437" style="fill: #262626; stroke: #262626"/>
      </g>
     </g>
     <g id="text_15">
      <!-- 1 -->
      <g style="fill: #262626" transform="translate(25.11925 146.554875) scale(0.088 -0.088)">
       <use xlink:href="#ArialMT-31"/>
      </g>
     </g>
    </g>
    <g id="ytick_6">
     <g id="line2d_15">
      <g>
       <use xlink:href="#m7e789e8a8f" x="38.312875" y="110.141437" style="fill: #262626; stroke: #262626"/>
      </g>
     </g>
     <g id="text_16">
      <!-- 2 -->
      <g style="fill: #262626" transform="translate(25.11925 113.290875) scale(0.088 -0.088)">
       <use xlink:href="#ArialMT-32"/>
      </g>
     </g>
    </g>
    <g id="ytick_7">
     <g id="line2d_16">
      <g>
       <use xlink:href="#m7e789e8a8f" x="38.312875" y="76.877437" style="fill: #262626; stroke: #262626"/>
      </g>
     </g>
     <g id="text_17">
      <!-- 3 -->
      <g style="fill: #262626" transform="translate(25.11925 80.026875) scale(0.088 -0.088)">
       <use xlink:href="#ArialMT-33"/>
      </g>
     </g>
    </g>
    <g id="ytick_8">
     <g id="line2d_17">
      <g>
       <use xlink:href="#m7e789e8a8f" x="38.312875" y="43.613437" style="fill: #262626; stroke: #262626"/>
      </g>
     </g>
     <g id="text_18">
      <!-- 4 -->
      <g style="fill: #262626" transform="translate(25.11925 46.762875) scale(0.088 -0.088)">
       <use xlink:href="#ArialMT-34"/>
      </g>
     </g>
    </g>
    <g id="ytick_9">
     <g id="line2d_18">
      <g>
       <use xlink:href="#m7e789e8a8f" x="38.312875" y="10.349437" style="fill: #262626; stroke: #262626"/>
      </g>
     </g>
     <g id="text_19">
      <!-- 5 -->
      <g style="fill: #262626" transform="translate(25.11925 13.498875) scale(0.088 -0.088)">
       <use xlink:href="#ArialMT-35"/>
      </g>
     </g>
    </g>
    <g id="text_20">
     <!-- $x_2$ -->
     <g style="fill: #262626" transform="translate(14.0715 148.541437) rotate(-90) scale(0.096 -0.096)">
      <defs>
       <path id="DejaVuSans-32" d="M 1228 531 
L 3431 531 
L 3431 0 
L 469 0 
L 469 531 
Q 828 903 1448 1529 
Q 2069 2156 2228 2338 
Q 2531 2678 2651 2914 
Q 2772 3150 2772 3378 
Q 2772 3750 2511 3984 
Q 2250 4219 1831 4219 
Q 1534 4219 1204 4116 
Q 875 4013 500 3803 
L 500 4441 
Q 881 4594 1212 4672 
Q 1544 4750 1819 4750 
Q 2544 4750 2975 4387 
Q 3406 4025 3406 3419 
Q 3406 3131 3298 2873 
Q 3191 2616 2906 2266 
Q 2828 2175 2409 1742 
Q 1991 1309 1228 531 
z
" transform="scale(0.015625)"/>
      </defs>
      <use xlink:href="#DejaVuSans-Oblique-78" transform="translate(0 0.3125)"/>
      <use xlink:href="#DejaVuSans-32" transform="translate(59.179688 -16.09375) scale(0.7)"/>
     </g>
    </g>
   </g>
   <g id="PathCollection_1"/>
   <g id="PathCollection_2">
    <path d="M 255.095191 163.837431 
L 258.451677 162.413437 
L 259.387161 162.018755 
L 265.055732 159.208598 
L 266.820139 158.189437 
L 270.724304 155.818877 
L 273.410758 153.965437 
L 276.392875 151.712821 
L 278.788914 149.741437 
L 282.061446 146.665356 
L 283.229017 145.517437 
L 286.932168 141.293437 
L 287.730018 140.210808 
L 290.069244 137.069437 
L 292.567092 132.845437 
L 293.398589 131.078535 
L 294.632148 128.621437 
L 296.256528 124.397437 
L 297.397794 120.173437 
L 298.114096 115.949437 
L 298.44103 111.725437 
L 298.394607 107.501437 
L 297.972563 103.277437 
L 297.154174 99.053437 
L 295.898553 94.829437 
L 294.141228 90.605437 
L 293.398589 89.19555 
L 292.003519 86.381437 
L 289.335537 82.157437 
L 287.730018 80.072903 
L 286.092635 77.933437 
L 282.146527 73.709437 
L 282.061446 73.627921 
L 277.520902 69.485438 
L 276.392875 68.578472 
L 271.881133 65.261437 
L 270.724304 64.479725 
L 265.055732 61.110714 
L 264.915402 61.037437 
L 259.387161 58.230073 
L 255.951599 56.813437 
L 253.718589 55.882315 
L 248.050018 53.926052 
L 243.014695 52.589438 
L 242.381446 52.409991 
L 236.712875 51.125856 
L 231.044304 50.215673 
L 225.375732 49.632891 
L 219.707161 49.348473 
L 214.038589 49.348473 
L 208.370018 49.632891 
L 202.701446 50.215673 
L 197.032875 51.125856 
L 191.364304 52.409991 
L 190.731055 52.589438 
L 185.695732 53.926052 
L 180.027161 55.882315 
L 177.794151 56.813437 
L 174.358589 58.230073 
L 168.830348 61.037437 
L 168.690018 61.110714 
L 163.021446 64.479725 
L 161.864617 65.261437 
L 157.352875 68.578472 
L 156.224848 69.485438 
L 151.684304 73.627921 
L 151.599223 73.709437 
L 147.653115 77.933437 
L 146.015732 80.072903 
L 144.410213 82.157437 
L 141.742231 86.381437 
L 140.347161 89.19555 
L 139.604522 90.605437 
L 137.847197 94.829437 
L 136.591576 99.053437 
L 135.773187 103.277437 
L 135.351143 107.501437 
L 135.30472 111.725437 
L 135.631654 115.949437 
L 136.347956 120.173437 
L 137.489222 124.397437 
L 139.113602 128.621437 
L 140.347161 131.078535 
L 141.178658 132.845437 
L 143.676506 137.069437 
L 146.015732 140.210808 
L 146.813582 141.293437 
L 150.516733 145.517437 
L 151.684304 146.665356 
L 154.956836 149.741437 
L 157.352875 151.712821 
L 160.334992 153.965437 
L 163.021446 155.818877 
L 166.925611 158.189437 
L 168.690018 159.208598 
L 174.358589 162.018755 
L 175.294073 162.413437 
L 180.027161 164.421456 
L 185.695732 166.314019 
L 186.888423 166.637437 
L 191.364304 167.926143 
L 197.032875 169.161773 
L 202.701446 170.037576 
L 208.370018 170.598346 
L 213.815957 170.861437 
L 214.038589 170.873881 
L 219.707161 170.873881 
L 219.929793 170.861437 
L 225.375732 170.598346 
L 229.225689 170.217485 
" clip-path="url(#p7b0cf22074)" style="fill: none; stroke: #3f1b43; stroke-width: 1.2"/>
   </g>
   <g id="PathCollection_3">
    <path d="M 235.397173 65.79664 
L 232.827195 65.261437 
L 231.044304 64.8794 
L 225.375732 64.075239 
L 219.707161 63.68278 
L 214.038589 63.68278 
L 208.370018 64.075239 
L 202.701446 64.8794 
L 200.918555 65.261437 
L 197.032875 66.070637 
L 191.364304 67.711398 
L 186.734554 69.485438 
L 185.695732 69.895463 
L 180.027161 72.64405 
L 178.194371 73.709437 
L 174.358589 76.149268 
L 171.929234 77.933437 
L 168.690018 80.663178 
L 167.078848 82.157437 
L 163.283986 86.381437 
L 163.021446 86.736103 
L 160.255761 90.605437 
L 157.984231 94.829437 
L 157.352875 96.422277 
L 156.285283 99.053437 
L 155.146434 103.277437 
L 154.559129 107.501437 
L 154.494528 111.725437 
L 154.949481 115.949437 
L 155.946267 120.173437 
L 157.352875 123.934053 
L 157.521511 124.397437 
L 159.621194 128.621437 
L 162.456082 132.845437 
L 163.021446 133.539559 
L 166.035244 137.069437 
L 168.690018 139.616066 
L 170.606672 141.293437 
L 174.358589 144.130799 
L 176.467172 145.517437 
L 180.027161 147.640946 
L 184.296452 149.741437 
L 185.695732 150.39464 
L 191.364304 152.566767 
L 196.227223 153.965437 
L 197.032875 154.198579 
L 202.701446 155.427725 
L 208.370018 156.214737 
L 214.038589 156.598826 
L 219.707161 156.598826 
L 225.375732 156.214737 
L 231.044304 155.427725 
L 236.712875 154.198579 
L 237.518527 153.965437 
L 242.381446 152.566767 
L 248.050018 150.39464 
L 249.449298 149.741437 
L 253.718589 147.640946 
L 257.278578 145.517437 
L 259.387161 144.130799 
L 263.139078 141.293437 
L 265.055732 139.616066 
L 267.710506 137.069437 
L 270.724304 133.539559 
L 271.289668 132.845437 
L 274.124556 128.621437 
L 276.224239 124.397437 
L 276.392875 123.934053 
L 277.799483 120.173437 
L 278.796269 115.949437 
L 279.251222 111.725437 
L 279.186621 107.501437 
L 278.599316 103.277437 
L 277.460467 99.053437 
L 276.392875 96.422277 
L 275.761519 94.829437 
L 273.489989 90.605437 
L 270.724304 86.736103 
L 270.461764 86.381437 
L 266.666902 82.157438 
L 265.055732 80.663178 
L 261.816516 77.933437 
L 259.672699 76.358973 
" clip-path="url(#p7b0cf22074)" style="fill: none; stroke: #841e5a; stroke-width: 1.2"/>
   </g>
   <g id="PathCollection_4">
    <path d="M 227.348254 144.73024 
L 231.044304 144.054435 
L 236.712875 142.435688 
L 239.639384 141.293437 
L 242.381446 140.132254 
L 247.94962 137.069437 
L 248.050018 137.006222 
L 253.522851 132.845437 
L 253.718589 132.664262 
L 257.56126 128.621437 
L 259.387161 126.099956 
L 260.530661 124.397437 
L 262.600659 120.173437 
L 263.899868 115.949437 
L 264.492853 111.725437 
L 264.408652 107.501437 
L 263.643159 103.277437 
L 262.158787 99.053437 
L 259.881376 94.829437 
L 259.387161 94.136833 
L 256.65941 90.605437 
L 253.718589 87.656506 
L 252.267426 86.381437 
L 248.050018 83.299871 
L 246.154558 82.157437 
L 242.381446 80.150867 
L 236.943561 77.933437 
L 236.712875 77.845996 
L 231.044304 76.225704 
L 225.375732 75.188245 
L 219.707161 74.681928 
L 214.038589 74.681928 
L 208.370018 75.188245 
L 202.701446 76.225704 
L 197.032875 77.845996 
L 196.802189 77.933437 
L 191.364304 80.150867 
L 187.591192 82.157437 
L 185.695732 83.299871 
L 181.478324 86.381437 
L 180.027161 87.656506 
L 177.08634 90.605437 
L 174.358589 94.136833 
L 173.864374 94.829437 
L 171.586963 99.053437 
L 170.102591 103.277437 
L 169.337098 107.501437 
L 169.252897 111.725437 
L 169.845882 115.949437 
L 171.145091 120.173437 
L 173.215089 124.397437 
L 174.358589 126.099956 
L 176.18449 128.621437 
L 180.027161 132.664262 
L 180.222899 132.845437 
L 185.695732 137.006222 
L 185.79613 137.069437 
L 191.364304 140.132254 
L 194.106366 141.293437 
L 197.032875 142.435688 
L 200.863665 143.529629 
" clip-path="url(#p7b0cf22074)" style="fill: none; stroke: #cb1b4f; stroke-width: 1.2"/>
   </g>
   <g id="PathCollection_5">
    <path d="M 194.760251 128.835557 
L 197.032875 130.234792 
L 202.701446 132.79716 
L 202.863104 132.845437 
L 208.370018 134.286243 
L 214.038589 135.010726 
L 219.707161 135.010726 
L 225.375732 134.286243 
L 230.882646 132.845437 
L 231.044304 132.79716 
L 236.712875 130.234792 
L 239.333271 128.621437 
L 242.381446 126.274396 
L 244.351138 124.397437 
L 247.57706 120.173437 
L 248.050018 119.209421 
L 249.4629 115.949437 
L 250.304317 111.725437 
L 250.18484 107.501437 
L 249.098643 103.277437 
L 248.050018 101.13828 
L 246.888439 99.053437 
L 243.33928 94.829437 
L 242.381446 93.970305 
L 237.719964 90.605437 
L 236.712875 90.014455 
L 231.044304 87.527521 
L 227.001556 86.381437 
L 225.375732 85.972616 
L 219.707161 85.260714 
L 214.038589 85.260714 
L 208.370018 85.972616 
L 206.744194 86.381437 
L 202.701446 87.527521 
L 197.032875 90.014455 
L 196.025786 90.605437 
L 191.364304 93.970305 
L 190.40647 94.829437 
L 186.857311 99.053437 
L 185.695732 101.13828 
L 184.647107 103.277437 
L 183.879523 106.262415 
" clip-path="url(#p7b0cf22074)" style="fill: none; stroke: #f06043; stroke-width: 1.2"/>
   </g>
   <g id="PathCollection_6">
    <path d="M 207.004896 101.775848 
L 204.865975 103.277437 
L 202.701446 106.165242 
L 202.018825 107.501437 
L 201.778494 111.725437 
L 202.701446 114.043585 
L 203.810271 115.949437 
L 208.370018 119.570069 
L 209.899023 120.173437 
L 214.038589 121.262614 
L 219.707161 121.262614 
L 223.846727 120.173437 
L 225.375732 119.570069 
L 229.935479 115.949437 
L 231.044304 114.043585 
L 231.967256 111.725437 
L 231.726925 107.501437 
L 231.044304 106.165242 
L 230.712172 105.722129 
" clip-path="url(#p7b0cf22074)" style="fill: none; stroke: #f6ab83; stroke-width: 1.2"/>
   </g>
   <g id="PathCollection_7"/>
   <g id="patch_3">
    <path d="M 38.312875 276.461437 
L 38.312875 10.349437 
" style="fill: none; stroke: #262626; stroke-linejoin: miter; stroke-linecap: square"/>
   </g>
   <g id="patch_4">
    <path d="M 38.312875 276.461437 
L 395.432875 276.461437 
" style="fill: none; stroke: #262626; stroke-linejoin: miter; stroke-linecap: square"/>
   </g>
   <g id="text_21">
    <g clip-path="url(#p7b0cf22074)">
     <!-- 0.03 -->
     <g style="fill: #3f1b43" transform="translate(233.555788 172.771017) rotate(-13.886293) scale(0.1 -0.1)">
      <defs>
       <path id="ArialMT-2e" d="M 581 0 
L 581 641 
L 1222 641 
L 1222 0 
L 581 0 
z
" transform="scale(0.015625)"/>
      </defs>
      <use xlink:href="#ArialMT-30"/>
      <use xlink:href="#ArialMT-2e" x="55.615234"/>
      <use xlink:href="#ArialMT-30" x="83.398438"/>
      <use xlink:href="#ArialMT-33" x="139.013672"/>
     </g>
    </g>
   </g>
   <g id="text_22">
    <g clip-path="url(#p7b0cf22074)">
     <!-- 0.06 -->
     <g style="fill: #841e5a" transform="translate(238.094582 68.39401) rotate(-336.545002) scale(0.1 -0.1)">
      <defs>
       <path id="ArialMT-36" d="M 3184 3459 
L 2625 3416 
Q 2550 3747 2413 3897 
Q 2184 4138 1850 4138 
Q 1581 4138 1378 3988 
Q 1113 3794 959 3422 
Q 806 3050 800 2363 
Q 1003 2672 1297 2822 
Q 1591 2972 1913 2972 
Q 2475 2972 2870 2558 
Q 3266 2144 3266 1488 
Q 3266 1056 3080 686 
Q 2894 316 2569 119 
Q 2244 -78 1831 -78 
Q 1128 -78 684 439 
Q 241 956 241 2144 
Q 241 3472 731 4075 
Q 1159 4600 1884 4600 
Q 2425 4600 2770 4297 
Q 3116 3994 3184 3459 
z
M 888 1484 
Q 888 1194 1011 928 
Q 1134 663 1356 523 
Q 1578 384 1822 384 
Q 2178 384 2434 671 
Q 2691 959 2691 1453 
Q 2691 1928 2437 2201 
Q 2184 2475 1800 2475 
Q 1419 2475 1153 2201 
Q 888 1928 888 1484 
z
" transform="scale(0.015625)"/>
      </defs>
      <use xlink:href="#ArialMT-30"/>
      <use xlink:href="#ArialMT-2e" x="55.615234"/>
      <use xlink:href="#ArialMT-30" x="83.398438"/>
      <use xlink:href="#ArialMT-36" x="139.013672"/>
     </g>
    </g>
   </g>
   <g id="text_23">
    <g clip-path="url(#p7b0cf22074)">
     <!-- 0.09 -->
     <g style="fill: #cb1b4f" transform="translate(204.201664 147.742713) rotate(-357.421304) scale(0.1 -0.1)">
      <defs>
       <path id="ArialMT-39" d="M 350 1059 
L 891 1109 
Q 959 728 1153 556 
Q 1347 384 1650 384 
Q 1909 384 2104 503 
Q 2300 622 2425 820 
Q 2550 1019 2634 1356 
Q 2719 1694 2719 2044 
Q 2719 2081 2716 2156 
Q 2547 1888 2255 1720 
Q 1963 1553 1622 1553 
Q 1053 1553 659 1965 
Q 266 2378 266 3053 
Q 266 3750 677 4175 
Q 1088 4600 1706 4600 
Q 2153 4600 2523 4359 
Q 2894 4119 3086 3673 
Q 3278 3228 3278 2384 
Q 3278 1506 3087 986 
Q 2897 466 2520 194 
Q 2144 -78 1638 -78 
Q 1100 -78 759 220 
Q 419 519 350 1059 
z
M 2653 3081 
Q 2653 3566 2395 3850 
Q 2138 4134 1775 4134 
Q 1400 4134 1122 3828 
Q 844 3522 844 3034 
Q 844 2597 1108 2323 
Q 1372 2050 1759 2050 
Q 2150 2050 2401 2323 
Q 2653 2597 2653 3081 
z
" transform="scale(0.015625)"/>
      </defs>
      <use xlink:href="#ArialMT-30"/>
      <use xlink:href="#ArialMT-2e" x="55.615234"/>
      <use xlink:href="#ArialMT-30" x="83.398438"/>
      <use xlink:href="#ArialMT-39" x="139.013672"/>
     </g>
    </g>
   </g>
   <g id="text_24">
    <g clip-path="url(#p7b0cf22074)">
     <!-- 0.12 -->
     <g style="fill: #f06043" transform="translate(179.045606 111.650263) rotate(-296.461084) scale(0.1 -0.1)">
      <use xlink:href="#ArialMT-30"/>
      <use xlink:href="#ArialMT-2e" x="55.615234"/>
      <use xlink:href="#ArialMT-31" x="83.398438"/>
      <use xlink:href="#ArialMT-32" x="139.013672"/>
     </g>
    </g>
   </g>
   <g id="text_25">
    <g clip-path="url(#p7b0cf22074)">
     <!-- 0.15 -->
     <g style="fill: #f6ab83" transform="translate(209.698192 99.99872) rotate(-351.330248) scale(0.1 -0.1)">
      <use xlink:href="#ArialMT-30"/>
      <use xlink:href="#ArialMT-2e" x="55.615234"/>
      <use xlink:href="#ArialMT-31" x="83.398438"/>
      <use xlink:href="#ArialMT-35" x="139.013672"/>
     </g>
    </g>
   </g>
  </g>
 </g>
 <defs>
  <clipPath id="p7b0cf22074">
   <rect x="38.312875" y="10.349437" width="357.12" height="266.112"/>
  </clipPath>
 </defs>
</svg>