<?xml version="1.0" encoding="utf-8" standalone="no"?>
<!DOCTYPE svg PUBLIC "-//W3C//DTD SVG 1.1//EN"
  "http://www.w3.org/Graphics/SVG/1.1/DTD/svg11.dtd">
<svg xmlns:xlink="http://www.w3.org/1999/xlink" width="428.606pt" height="322.539375pt" viewBox="0 0 428.606 322.539375" xmlns="http://www.w3.org/2000/svg" version="1.1">
 <metadata>
  <rdf:RDF xmlns:dc="http://purl.org/dc/elements/1.1/" xmlns:cc="http://creativecommons.org/ns#" xmlns:rdf="http://www.w3.org/1999/02/22-rdf-syntax-ns#">
   <cc:Work>
    <dc:type rdf:resource="http://purl.org/dc/dcmitype/StillImage"/>
    <dc:date>2023-10-22T09:21:38.271709</dc:date>
    <dc:format>image/svg+xml</dc:format>
    <dc:creator>
     <cc:Agent>
      <dc:title>Matplotlib v3.7.1, https://matplotlib.org/</dc:title>
     </cc:Agent>
    </dc:creator>
   </cc:Work>
  </rdf:RDF>
 </metadata>
 <defs>
  <style type="text/css">*{stroke-linejoin: round; stroke-linecap: butt}</style>
 </defs>
 <g id="figure_1">
  <g id="patch_1">
   <path d="M 0 322.539375 
L 428.606 322.539375 
L 428.606 0 
L 0 0 
z
" style="fill: #ffffff"/>
  </g>
  <g id="axes_1">
   <g id="patch_2">
    <path d="M 38.312875 286.212 
L 395.432875 286.212 
L 395.432875 20.1 
L 38.312875 20.1 
z
" style="fill: #ffffff"/>
   </g>
   <g id="matplotlib.axis_1">
    <g id="xtick_1">
     <g id="line2d_1">
      <defs>
       <path id="m312c6a7217" d="M 0 0 
L 0 4.8 
" style="stroke: #262626"/>
      </defs>
      <g>
       <use xlink:href="#m312c6a7217" x="54.545602" y="286.212" style="fill: #262626; stroke: #262626"/>
      </g>
     </g>
     <g id="text_1">
      <!-- 0.0 -->
      <g style="fill: #262626" transform="translate(48.429602 300.810875) scale(0.088 -0.088)">
       <defs>
        <path id="ArialMT-30" d="M 266 2259 
Q 266 3072 433 3567 
Q 600 4063 929 4331 
Q 1259 4600 1759 4600 
Q 2128 4600 2406 4451 
Q 2684 4303 2865 4023 
Q 3047 3744 3150 3342 
Q 3253 2941 3253 2259 
Q 3253 1453 3087 958 
Q 2922 463 2592 192 
Q 2263 -78 1759 -78 
Q 1097 -78 719 397 
Q 266 969 266 2259 
z
M 844 2259 
Q 844 1131 1108 757 
Q 1372 384 1759 384 
Q 2147 384 2411 759 
Q 2675 1134 2675 2259 
Q 2675 3391 2411 3762 
Q 2147 4134 1753 4134 
Q 1366 4134 1134 3806 
Q 844 3388 844 2259 
z
" transform="scale(0.015625)"/>
        <path id="ArialMT-2e" d="M 581 0 
L 581 641 
L 1222 641 
L 1222 0 
L 581 0 
z
" transform="scale(0.015625)"/>
       </defs>
       <use xlink:href="#ArialMT-30"/>
       <use xlink:href="#ArialMT-2e" x="55.615234"/>
       <use xlink:href="#ArialMT-30" x="83.398438"/>
      </g>
     </g>
    </g>
    <g id="xtick_2">
     <g id="line2d_2">
      <g>
       <use xlink:href="#m312c6a7217" x="119.476511" y="286.212" style="fill: #262626; stroke: #262626"/>
      </g>
     </g>
     <g id="text_2">
      <!-- 0.2 -->
      <g style="fill: #262626" transform="translate(113.360511 300.810875) scale(0.088 -0.088)">
       <defs>
        <path id="ArialMT-32" d="M 3222 541 
L 3222 0 
L 194 0 
Q 188 203 259 391 
Q 375 700 629 1000 
Q 884 1300 1366 1694 
Q 2113 2306 2375 2664 
Q 2638 3022 2638 3341 
Q 2638 3675 2398 3904 
Q 2159 4134 1775 4134 
Q 1369 4134 1125 3890 
Q 881 3647 878 3216 
L 300 3275 
Q 359 3922 746 4261 
Q 1134 4600 1788 4600 
Q 2447 4600 2831 4234 
Q 3216 3869 3216 3328 
Q 3216 3053 3103 2787 
Q 2991 2522 2730 2228 
Q 2469 1934 1863 1422 
Q 1356 997 1212 845 
Q 1069 694 975 541 
L 3222 541 
z
" transform="scale(0.015625)"/>
       </defs>
       <use xlink:href="#ArialMT-30"/>
       <use xlink:href="#ArialMT-2e" x="55.615234"/>
       <use xlink:href="#ArialMT-32" x="83.398438"/>
      </g>
     </g>
    </g>
    <g id="xtick_3">
     <g id="line2d_3">
      <g>
       <use xlink:href="#m312c6a7217" x="184.40742" y="286.212" style="fill: #262626; stroke: #262626"/>
      </g>
     </g>
     <g id="text_3">
      <!-- 0.4 -->
      <g style="fill: #262626" transform="translate(178.29142 300.810875) scale(0.088 -0.088)">
       <defs>
        <path id="ArialMT-34" d="M 2069 0 
L 2069 1097 
L 81 1097 
L 81 1613 
L 2172 4581 
L 2631 4581 
L 2631 1613 
L 3250 1613 
L 3250 1097 
L 2631 1097 
L 2631 0 
L 2069 0 
z
M 2069 1613 
L 2069 3678 
L 634 1613 
L 2069 1613 
z
" transform="scale(0.015625)"/>
       </defs>
       <use xlink:href="#ArialMT-30"/>
       <use xlink:href="#ArialMT-2e" x="55.615234"/>
       <use xlink:href="#ArialMT-34" x="83.398438"/>
      </g>
     </g>
    </g>
    <g id="xtick_4">
     <g id="line2d_4">
      <g>
       <use xlink:href="#m312c6a7217" x="249.33833" y="286.212" style="fill: #262626; stroke: #262626"/>
      </g>
     </g>
     <g id="text_4">
      <!-- 0.6 -->
      <g style="fill: #262626" transform="translate(243.22233 300.810875) scale(0.088 -0.088)">
       <defs>
        <path id="ArialMT-36" d="M 3184 3459 
L 2625 3416 
Q 2550 3747 2413 3897 
Q 2184 4138 1850 4138 
Q 1581 4138 1378 3988 
Q 1113 3794 959 3422 
Q 806 3050 800 2363 
Q 1003 2672 1297 2822 
Q 1591 2972 1913 2972 
Q 2475 2972 2870 2558 
Q 3266 2144 3266 1488 
Q 3266 1056 3080 686 
Q 2894 316 2569 119 
Q 2244 -78 1831 -78 
Q 1128 -78 684 439 
Q 241 956 241 2144 
Q 241 3472 731 4075 
Q 1159 4600 1884 4600 
Q 2425 4600 2770 4297 
Q 3116 3994 3184 3459 
z
M 888 1484 
Q 888 1194 1011 928 
Q 1134 663 1356 523 
Q 1578 384 1822 384 
Q 2178 384 2434 671 
Q 2691 959 2691 1453 
Q 2691 1928 2437 2201 
Q 2184 2475 1800 2475 
Q 1419 2475 1153 2201 
Q 888 1928 888 1484 
z
" transform="scale(0.015625)"/>
       </defs>
       <use xlink:href="#ArialMT-30"/>
       <use xlink:href="#ArialMT-2e" x="55.615234"/>
       <use xlink:href="#ArialMT-36" x="83.398438"/>
      </g>
     </g>
    </g>
    <g id="xtick_5">
     <g id="line2d_5">
      <g>
       <use xlink:href="#m312c6a7217" x="314.269239" y="286.212" style="fill: #262626; stroke: #262626"/>
      </g>
     </g>
     <g id="text_5">
      <!-- 0.8 -->
      <g style="fill: #262626" transform="translate(308.153239 300.810875) scale(0.088 -0.088)">
       <defs>
        <path id="ArialMT-38" d="M 1131 2484 
Q 781 2613 612 2850 
Q 444 3088 444 3419 
Q 444 3919 803 4259 
Q 1163 4600 1759 4600 
Q 2359 4600 2725 4251 
Q 3091 3903 3091 3403 
Q 3091 3084 2923 2848 
Q 2756 2613 2416 2484 
Q 2838 2347 3058 2040 
Q 3278 1734 3278 1309 
Q 3278 722 2862 322 
Q 2447 -78 1769 -78 
Q 1091 -78 675 323 
Q 259 725 259 1325 
Q 259 1772 486 2073 
Q 713 2375 1131 2484 
z
M 1019 3438 
Q 1019 3113 1228 2906 
Q 1438 2700 1772 2700 
Q 2097 2700 2305 2904 
Q 2513 3109 2513 3406 
Q 2513 3716 2298 3927 
Q 2084 4138 1766 4138 
Q 1444 4138 1231 3931 
Q 1019 3725 1019 3438 
z
M 838 1322 
Q 838 1081 952 856 
Q 1066 631 1291 507 
Q 1516 384 1775 384 
Q 2178 384 2440 643 
Q 2703 903 2703 1303 
Q 2703 1709 2433 1975 
Q 2163 2241 1756 2241 
Q 1359 2241 1098 1978 
Q 838 1716 838 1322 
z
" transform="scale(0.015625)"/>
       </defs>
       <use xlink:href="#ArialMT-30"/>
       <use xlink:href="#ArialMT-2e" x="55.615234"/>
       <use xlink:href="#ArialMT-38" x="83.398438"/>
      </g>
     </g>
    </g>
    <g id="xtick_6">
     <g id="line2d_6">
      <g>
       <use xlink:href="#m312c6a7217" x="379.200148" y="286.212" style="fill: #262626; stroke: #262626"/>
      </g>
     </g>
     <g id="text_6">
      <!-- 1.0 -->
      <g style="fill: #262626" transform="translate(373.084148 300.810875) scale(0.088 -0.088)">
       <defs>
        <path id="ArialMT-31" d="M 2384 0 
L 1822 0 
L 1822 3584 
Q 1619 3391 1289 3197 
Q 959 3003 697 2906 
L 697 3450 
Q 1169 3672 1522 3987 
Q 1875 4303 2022 4600 
L 2384 4600 
L 2384 0 
z
" transform="scale(0.015625)"/>
       </defs>
       <use xlink:href="#ArialMT-31"/>
       <use xlink:href="#ArialMT-2e" x="55.615234"/>
       <use xlink:href="#ArialMT-30" x="83.398438"/>
      </g>
     </g>
    </g>
    <g id="text_7">
     <!-- $x$ -->
     <g style="fill: #262626" transform="translate(213.992875 313.431375) scale(0.096 -0.096)">
      <defs>
       <path id="DejaVuSans-Oblique-78" d="M 3841 3500 
L 2234 1784 
L 3219 0 
L 2559 0 
L 1819 1388 
L 531 0 
L -166 0 
L 1556 1844 
L 641 3500 
L 1300 3500 
L 1972 2234 
L 3144 3500 
L 3841 3500 
z
" transform="scale(0.015625)"/>
      </defs>
      <use xlink:href="#DejaVuSans-Oblique-78" transform="translate(0 0.3125)"/>
     </g>
    </g>
   </g>
   <g id="matplotlib.axis_2">
    <g id="ytick_1">
     <g id="line2d_7">
      <defs>
       <path id="m1a7d2e3d35" d="M 0 0 
L -4.8 0 
" style="stroke: #262626"/>
      </defs>
      <g>
       <use xlink:href="#m1a7d2e3d35" x="38.312875" y="250.579122" style="fill: #262626; stroke: #262626"/>
      </g>
     </g>
     <g id="text_8">
      <!-- −2 -->
      <g style="fill: #262626" transform="translate(19.9795 253.72856) scale(0.088 -0.088)">
       <defs>
        <path id="ArialMT-2212" d="M 3381 1997 
L 356 1997 
L 356 2522 
L 3381 2522 
L 3381 1997 
z
" transform="scale(0.015625)"/>
       </defs>
       <use xlink:href="#ArialMT-2212"/>
       <use xlink:href="#ArialMT-32" x="58.398438"/>
      </g>
     </g>
    </g>
    <g id="ytick_2">
     <g id="line2d_8">
      <g>
       <use xlink:href="#m1a7d2e3d35" x="38.312875" y="206.980894" style="fill: #262626; stroke: #262626"/>
      </g>
     </g>
     <g id="text_9">
      <!-- 0 -->
      <g style="fill: #262626" transform="translate(25.11925 210.130332) scale(0.088 -0.088)">
       <use xlink:href="#ArialMT-30"/>
      </g>
     </g>
    </g>
    <g id="ytick_3">
     <g id="line2d_9">
      <g>
       <use xlink:href="#m1a7d2e3d35" x="38.312875" y="163.382666" style="fill: #262626; stroke: #262626"/>
      </g>
     </g>
     <g id="text_10">
      <!-- 2 -->
      <g style="fill: #262626" transform="translate(25.11925 166.532104) scale(0.088 -0.088)">
       <use xlink:href="#ArialMT-32"/>
      </g>
     </g>
    </g>
    <g id="ytick_4">
     <g id="line2d_10">
      <g>
       <use xlink:href="#m1a7d2e3d35" x="38.312875" y="119.784438" style="fill: #262626; stroke: #262626"/>
      </g>
     </g>
     <g id="text_11">
      <!-- 4 -->
      <g style="fill: #262626" transform="translate(25.11925 122.933875) scale(0.088 -0.088)">
       <use xlink:href="#ArialMT-34"/>
      </g>
     </g>
    </g>
    <g id="ytick_5">
     <g id="line2d_11">
      <g>
       <use xlink:href="#m1a7d2e3d35" x="38.312875" y="76.18621" style="fill: #262626; stroke: #262626"/>
      </g>
     </g>
     <g id="text_12">
      <!-- 6 -->
      <g style="fill: #262626" transform="translate(25.11925 79.335647) scale(0.088 -0.088)">
       <use xlink:href="#ArialMT-36"/>
      </g>
     </g>
    </g>
    <g id="ytick_6">
     <g id="line2d_12">
      <g>
       <use xlink:href="#m1a7d2e3d35" x="38.312875" y="32.587981" style="fill: #262626; stroke: #262626"/>
      </g>
     </g>
     <g id="text_13">
      <!-- 8 -->
      <g style="fill: #262626" transform="translate(25.11925 35.737419) scale(0.088 -0.088)">
       <use xlink:href="#ArialMT-38"/>
      </g>
     </g>
    </g>
    <g id="text_14">
     <!-- $y$ -->
     <g style="fill: #262626" transform="translate(13.9635 156.036) rotate(-90) scale(0.096 -0.096)">
      <defs>
       <path id="DejaVuSans-Oblique-79" d="M 1588 -325 
Q 1188 -997 936 -1164 
Q 684 -1331 294 -1331 
L -159 -1331 
L -63 -850 
L 269 -850 
Q 509 -850 678 -719 
Q 847 -588 1056 -206 
L 1234 128 
L 459 3500 
L 1069 3500 
L 1650 819 
L 3256 3500 
L 3859 3500 
L 1588 -325 
z
" transform="scale(0.015625)"/>
      </defs>
      <use xlink:href="#DejaVuSans-Oblique-79" transform="translate(0 0.3125)"/>
     </g>
    </g>
   </g>
   <g id="PolyCollection_1">
    <defs>
     <path id="m61803067f3" d="M 54.545602 -196.671481 
L 54.545602 -53.960884 
L 57.824941 -57.224433 
L 61.10428 -60.736352 
L 64.383619 -64.483927 
L 67.662958 -68.448334 
L 70.942296 -72.604236 
L 74.221636 -76.919963 
L 77.500973 -81.357656 
L 80.780313 -85.873581 
L 84.059653 -90.419175 
L 87.33899 -94.941445 
L 90.61833 -99.384432 
L 93.89767 -103.690406 
L 97.177007 -107.8011 
L 100.456344 -111.660306 
L 103.735686 -115.214177 
L 107.015024 -118.413072 
L 110.294361 -121.210644 
L 113.573703 -123.477404 
L 116.853041 -121.172579 
L 120.132378 -117.999299 
L 123.41172 -115.306475 
L 126.691057 -113.151978 
L 129.970395 -111.574472 
L 133.249737 -110.599972 
L 136.529069 -110.243807 
L 139.808412 -110.509649 
L 143.087754 -111.389891 
L 146.367086 -112.865636 
L 149.646428 -114.908075 
L 152.92577 -117.47266 
L 156.205103 -120.443044 
L 159.484445 -121.206649 
L 162.763787 -120.994343 
L 166.04312 -121.192459 
L 169.322462 -121.897197 
L 172.601804 -123.171982 
L 175.881137 -125.063984 
L 179.160479 -127.604602 
L 182.439821 -130.808201 
L 185.719153 -134.672353 
L 188.998496 -139.17977 
L 192.277838 -144.295318 
L 195.55717 -149.971234 
L 198.836512 -156.147735 
L 202.115855 -162.754669 
L 205.395187 -169.714896 
L 208.674529 -176.944661 
L 211.953871 -184.362605 
L 215.233204 -191.883757 
L 218.512556 -199.428667 
L 221.791879 -206.922653 
L 225.071221 -214.300053 
L 228.350563 -221.497355 
L 231.629886 -228.465134 
L 234.909247 -235.152528 
L 238.18857 -241.507575 
L 241.467912 -247.435849 
L 244.747254 -252.887301 
L 248.026597 -258.038182 
L 251.305939 -262.970267 
L 254.585262 -267.664553 
L 257.864623 -272.062385 
L 261.143946 -276.088557 
L 264.423288 -279.666492 
L 267.70263 -282.747127 
L 270.981953 -285.308332 
L 274.261315 -287.336656 
L 277.540637 -288.804326 
L 280.81998 -289.656903 
L 284.099322 -289.65656 
L 287.378664 -288.556497 
L 290.658006 -286.50282 
L 293.937329 -283.48133 
L 297.21669 -279.491394 
L 300.496013 -274.527097 
L 303.775355 -268.601712 
L 307.054697 -261.754573 
L 310.33402 -254.040668 
L 313.613382 -245.532406 
L 316.892705 -236.326154 
L 320.172047 -226.533583 
L 323.451389 -216.275728 
L 326.730731 -205.704122 
L 330.010073 -194.963873 
L 333.289396 -184.207237 
L 336.568738 -173.591032 
L 339.84808 -163.274156 
L 343.127423 -153.407019 
L 346.406765 -144.118923 
L 349.686088 -135.542584 
L 352.96543 -127.775645 
L 356.244772 -120.606327 
L 359.524114 -109.314485 
L 362.803456 -97.867391 
L 366.082798 -86.829359 
L 369.362141 -76.293708 
L 372.641463 -66.338983 
L 375.920806 -57.032044 
L 379.200148 -48.426946 
L 379.200148 -101.606806 
L 379.200148 -101.606806 
L 375.920806 -101.352169 
L 372.641463 -102.047688 
L 369.362141 -103.745051 
L 366.082798 -106.482009 
L 362.803456 -110.277444 
L 359.524114 -115.133449 
L 356.244772 -121.496675 
L 352.96543 -133.18712 
L 349.686088 -145.313253 
L 346.406765 -157.467294 
L 343.127423 -169.535251 
L 339.84808 -181.417667 
L 336.568738 -193.010171 
L 333.289396 -204.219187 
L 330.010073 -214.959644 
L 326.730731 -225.153011 
L 323.451389 -234.727855 
L 320.172047 -243.621894 
L 316.892705 -251.792736 
L 313.613382 -259.198264 
L 310.33402 -265.809777 
L 307.054697 -271.612547 
L 303.775355 -276.597655 
L 300.496013 -280.766867 
L 297.21669 -284.133406 
L 293.937329 -286.714371 
L 290.658006 -288.531955 
L 287.378664 -289.630595 
L 284.099322 -290.066608 
L 280.81998 -290.06561 
L 277.540637 -289.475902 
L 274.261315 -288.159474 
L 270.981953 -286.16699 
L 267.70263 -283.573791 
L 264.423288 -280.473364 
L 261.143946 -276.943369 
L 257.864623 -273.027547 
L 254.585262 -268.740459 
L 251.305939 -264.085735 
L 248.026597 -259.080056 
L 244.747254 -253.771946 
L 241.467912 -248.305547 
L 238.18857 -242.915652 
L 234.909247 -237.606097 
L 231.629886 -232.336343 
L 228.350563 -227.108146 
L 225.071221 -221.923369 
L 221.791879 -216.789462 
L 218.512556 -211.700626 
L 215.233204 -206.652985 
L 211.953871 -201.636553 
L 208.674529 -196.638988 
L 205.395187 -191.64492 
L 202.115855 -186.645671 
L 198.836512 -181.628168 
L 195.55717 -176.587034 
L 192.277838 -171.520313 
L 188.998496 -166.433406 
L 185.719153 -161.338479 
L 182.439821 -156.253895 
L 179.160479 -151.207859 
L 175.881137 -146.235199 
L 172.601804 -141.376763 
L 169.322462 -136.680894 
L 166.04312 -132.201332 
L 162.763787 -127.996845 
L 159.484445 -124.148354 
L 156.205103 -122.016868 
L 152.92577 -122.798683 
L 149.646428 -123.837889 
L 146.367086 -124.967377 
L 143.087754 -126.085693 
L 139.808412 -127.10173 
L 136.529069 -127.931201 
L 133.249737 -128.498702 
L 129.970395 -128.739355 
L 126.691057 -128.600595 
L 123.41172 -128.04224 
L 120.132378 -127.039977 
L 116.853041 -125.592616 
L 113.573703 -124.995036 
L 110.294361 -128.901969 
L 107.015024 -133.230359 
L 103.735686 -137.815065 
L 100.456344 -142.580851 
L 97.177007 -147.4559 
L 93.89767 -152.370899 
L 90.61833 -157.260404 
L 87.33899 -162.062964 
L 84.059653 -166.723083 
L 80.780313 -171.191848 
L 77.500973 -175.42756 
L 74.221636 -179.396359 
L 70.942296 -183.072081 
L 67.662958 -186.436494 
L 64.383619 -189.47894 
L 61.10428 -192.195908 
L 57.824941 -194.590477 
L 54.545602 -196.671481 
z
" style="stroke: #1f77b4; stroke-opacity: 0.5; stroke-width: 0.8"/>
    </defs>
    <g clip-path="url(#pf45bb73323)">
     <use xlink:href="#m61803067f3" x="0" y="322.539375" style="fill: #1f77b4; fill-opacity: 0.5; stroke: #1f77b4; stroke-opacity: 0.5; stroke-width: 0.8"/>
    </g>
   </g>
   <g id="PolyCollection_2">
    <defs>
     <path id="m5c36ebee01" d="M 54.545602 -53.960884 
L 54.545602 -53.959554 
L 57.824941 -57.223051 
L 61.10428 -60.734907 
L 64.383619 -64.482409 
L 67.662958 -68.446723 
L 70.942296 -72.602516 
L 74.221636 -76.918108 
L 77.500973 -81.355634 
L 80.780313 -85.871354 
L 84.059653 -90.416683 
L 87.33899 -94.938612 
L 90.61833 -99.38115 
L 93.89767 -103.686502 
L 97.177007 -107.796307 
L 100.456344 -111.65416 
L 103.735686 -115.20577 
L 107.015024 -118.400255 
L 110.294361 -121.186009 
L 113.573703 -123.361074 
L 116.853041 -121.129986 
L 120.132378 -117.978323 
L 123.41172 -115.291567 
L 126.691057 -113.139683 
L 129.970395 -111.563405 
L 133.249737 -110.589358 
L 136.529069 -110.233067 
L 139.808412 -110.498201 
L 143.087754 -111.376968 
L 146.367086 -112.84995 
L 149.646428 -114.886839 
L 152.92577 -117.437207 
L 156.205103 -120.330339 
L 159.484445 -121.143393 
L 162.763787 -120.967303 
L 166.04312 -121.17522 
L 169.322462 -121.884351 
L 172.601804 -123.161546 
L 175.881137 -125.05501 
L 179.160479 -127.596551 
L 182.439821 -130.800734 
L 185.719153 -134.665226 
L 188.998496 -139.172798 
L 192.277838 -144.288338 
L 195.55717 -149.964095 
L 198.836512 -156.140276 
L 202.115855 -162.746712 
L 205.395187 -169.706232 
L 208.674529 -176.935015 
L 211.953871 -184.351608 
L 215.233204 -191.870894 
L 218.512556 -199.4132 
L 221.791879 -206.903423 
L 225.071221 -214.275199 
L 228.350563 -221.463677 
L 231.629886 -228.416643 
L 234.909247 -235.077354 
L 238.18857 -241.383515 
L 241.467912 -247.254931 
L 244.747254 -252.708545 
L 248.026597 -257.87982 
L 251.305939 -262.820085 
L 254.585262 -267.510068 
L 257.864623 -271.894605 
L 261.143946 -275.905424 
L 264.423288 -279.475927 
L 267.70263 -282.559691 
L 270.981953 -285.125771 
L 274.261315 -287.148617 
L 277.540637 -288.589812 
L 280.81998 -289.379751 
L 284.099322 -289.379803 
L 287.378664 -288.401804 
L 290.658006 -286.413104 
L 293.937329 -283.423567 
L 297.21669 -279.450803 
L 300.496013 -274.496776 
L 303.775355 -268.578012 
L 307.054697 -261.735333 
L 310.33402 -254.024536 
L 313.613382 -245.518508 
L 316.892705 -236.313868 
L 320.172047 -226.522472 
L 323.451389 -216.265438 
L 326.730731 -205.694351 
L 330.010073 -194.954372 
L 333.289396 -184.197741 
L 336.568738 -173.581251 
L 339.84808 -163.263689 
L 343.127423 -153.395242 
L 346.406765 -144.104698 
L 349.686088 -135.523169 
L 352.96543 -127.740744 
L 356.244772 -120.428395 
L 359.524114 -109.282001 
L 362.803456 -97.852093 
L 366.082798 -86.819692 
L 369.362141 -76.286785 
L 372.641463 -66.333661 
L 375.920806 -57.027757 
L 379.200148 -48.423375 
L 379.200148 -48.426946 
L 379.200148 -48.426946 
L 375.920806 -57.032044 
L 372.641463 -66.338983 
L 369.362141 -76.293708 
L 366.082798 -86.829359 
L 362.803456 -97.867391 
L 359.524114 -109.314485 
L 356.244772 -120.606327 
L 352.96543 -127.775645 
L 349.686088 -135.542584 
L 346.406765 -144.118923 
L 343.127423 -153.407019 
L 339.84808 -163.274156 
L 336.568738 -173.591032 
L 333.289396 -184.207237 
L 330.010073 -194.963873 
L 326.730731 -205.704122 
L 323.451389 -216.275728 
L 320.172047 -226.533583 
L 316.892705 -236.326154 
L 313.613382 -245.532406 
L 310.33402 -254.040668 
L 307.054697 -261.754573 
L 303.775355 -268.601712 
L 300.496013 -274.527097 
L 297.21669 -279.491394 
L 293.937329 -283.48133 
L 290.658006 -286.50282 
L 287.378664 -288.556497 
L 284.099322 -289.65656 
L 280.81998 -289.656903 
L 277.540637 -288.804326 
L 274.261315 -287.336656 
L 270.981953 -285.308332 
L 267.70263 -282.747127 
L 264.423288 -279.666492 
L 261.143946 -276.088557 
L 257.864623 -272.062385 
L 254.585262 -267.664553 
L 251.305939 -262.970267 
L 248.026597 -258.038182 
L 244.747254 -252.887301 
L 241.467912 -247.435849 
L 238.18857 -241.507575 
L 234.909247 -235.152528 
L 231.629886 -228.465134 
L 228.350563 -221.497355 
L 225.071221 -214.300053 
L 221.791879 -206.922653 
L 218.512556 -199.428667 
L 215.233204 -191.883757 
L 211.953871 -184.362605 
L 208.674529 -176.944661 
L 205.395187 -169.714896 
L 202.115855 -162.754669 
L 198.836512 -156.147735 
L 195.55717 -149.971234 
L 192.277838 -144.295318 
L 188.998496 -139.17977 
L 185.719153 -134.672353 
L 182.439821 -130.808201 
L 179.160479 -127.604602 
L 175.881137 -125.063984 
L 172.601804 -123.171982 
L 169.322462 -121.897197 
L 166.04312 -121.192459 
L 162.763787 -120.994343 
L 159.484445 -121.206649 
L 156.205103 -120.443044 
L 152.92577 -117.47266 
L 149.646428 -114.908075 
L 146.367086 -112.865636 
L 143.087754 -111.389891 
L 139.808412 -110.509649 
L 136.529069 -110.243807 
L 133.249737 -110.599972 
L 129.970395 -111.574472 
L 126.691057 -113.151978 
L 123.41172 -115.306475 
L 120.132378 -117.999299 
L 116.853041 -121.172579 
L 113.573703 -123.477404 
L 110.294361 -121.210644 
L 107.015024 -118.413072 
L 103.735686 -115.214177 
L 100.456344 -111.660306 
L 97.177007 -107.8011 
L 93.89767 -103.690406 
L 90.61833 -99.384432 
L 87.33899 -94.941445 
L 84.059653 -90.419175 
L 80.780313 -85.873581 
L 77.500973 -81.357656 
L 74.221636 -76.919963 
L 70.942296 -72.604236 
L 67.662958 -68.448334 
L 64.383619 -64.483927 
L 61.10428 -60.736352 
L 57.824941 -57.224433 
L 54.545602 -53.960884 
z
" style="stroke: #ff7f0e; stroke-opacity: 0.5; stroke-width: 0.8"/>
    </defs>
    <g clip-path="url(#pf45bb73323)">
     <use xlink:href="#m5c36ebee01" x="0" y="322.539375" style="fill: #ff7f0e; fill-opacity: 0.5; stroke: #ff7f0e; stroke-opacity: 0.5; stroke-width: 0.8"/>
    </g>
   </g>
   <g id="PolyCollection_3">
    <defs>
     <path id="m6276ddc7ff" d="M 54.545602 -196.672812 
L 54.545602 -196.671481 
L 57.824941 -194.590477 
L 61.10428 -192.195908 
L 64.383619 -189.47894 
L 67.662958 -186.436494 
L 70.942296 -183.072081 
L 74.221636 -179.396359 
L 77.500973 -175.42756 
L 80.780313 -171.191848 
L 84.059653 -166.723083 
L 87.33899 -162.062964 
L 90.61833 -157.260404 
L 93.89767 -152.370899 
L 97.177007 -147.4559 
L 100.456344 -142.580851 
L 103.735686 -137.815065 
L 107.015024 -133.230359 
L 110.294361 -128.901969 
L 113.573703 -124.995036 
L 116.853041 -125.592616 
L 120.132378 -127.039977 
L 123.41172 -128.04224 
L 126.691057 -128.600595 
L 129.970395 -128.739355 
L 133.249737 -128.498702 
L 136.529069 -127.931201 
L 139.808412 -127.10173 
L 143.087754 -126.085693 
L 146.367086 -124.967377 
L 149.646428 -123.837889 
L 152.92577 -122.798683 
L 156.205103 -122.016868 
L 159.484445 -124.148354 
L 162.763787 -127.996845 
L 166.04312 -132.201332 
L 169.322462 -136.680894 
L 172.601804 -141.376763 
L 175.881137 -146.235199 
L 179.160479 -151.207859 
L 182.439821 -156.253895 
L 185.719153 -161.338479 
L 188.998496 -166.433406 
L 192.277838 -171.520313 
L 195.55717 -176.587034 
L 198.836512 -181.628168 
L 202.115855 -186.645671 
L 205.395187 -191.64492 
L 208.674529 -196.638988 
L 211.953871 -201.636553 
L 215.233204 -206.652985 
L 218.512556 -211.700626 
L 221.791879 -216.789462 
L 225.071221 -221.923369 
L 228.350563 -227.108146 
L 231.629886 -232.336343 
L 234.909247 -237.606097 
L 238.18857 -242.915652 
L 241.467912 -248.305547 
L 244.747254 -253.771946 
L 248.026597 -259.080056 
L 251.305939 -264.085735 
L 254.585262 -268.740459 
L 257.864623 -273.027547 
L 261.143946 -276.943369 
L 264.423288 -280.473364 
L 267.70263 -283.573791 
L 270.981953 -286.16699 
L 274.261315 -288.159474 
L 277.540637 -289.475902 
L 280.81998 -290.06561 
L 284.099322 -290.066608 
L 287.378664 -289.630595 
L 290.658006 -288.531955 
L 293.937329 -286.714371 
L 297.21669 -284.133406 
L 300.496013 -280.766867 
L 303.775355 -276.597655 
L 307.054697 -271.612547 
L 310.33402 -265.809777 
L 313.613382 -259.198264 
L 316.892705 -251.792736 
L 320.172047 -243.621894 
L 323.451389 -234.727855 
L 326.730731 -225.153011 
L 330.010073 -214.959644 
L 333.289396 -204.219187 
L 336.568738 -193.010171 
L 339.84808 -181.417667 
L 343.127423 -169.535251 
L 346.406765 -157.467294 
L 349.686088 -145.313253 
L 352.96543 -133.18712 
L 356.244772 -121.496675 
L 359.524114 -115.133449 
L 362.803456 -110.277444 
L 366.082798 -106.482009 
L 369.362141 -103.745051 
L 372.641463 -102.047688 
L 375.920806 -101.352169 
L 379.200148 -101.606806 
L 379.200148 -101.61038 
L 379.200148 -101.61038 
L 375.920806 -101.356457 
L 372.641463 -102.05301 
L 369.362141 -103.751974 
L 366.082798 -106.491677 
L 362.803456 -110.292742 
L 359.524114 -115.165934 
L 356.244772 -121.674606 
L 352.96543 -133.222021 
L 349.686088 -145.332668 
L 346.406765 -157.481519 
L 343.127423 -169.547028 
L 339.84808 -181.428134 
L 336.568738 -193.019953 
L 333.289396 -204.228687 
L 330.010073 -214.969144 
L 326.730731 -225.162781 
L 323.451389 -234.738146 
L 320.172047 -243.633006 
L 316.892705 -251.805023 
L 313.613382 -259.212162 
L 310.33402 -265.82591 
L 307.054697 -271.631788 
L 303.775355 -276.621354 
L 300.496013 -280.797188 
L 297.21669 -284.173997 
L 293.937329 -286.772134 
L 290.658006 -288.621671 
L 287.378664 -289.785287 
L 284.099322 -290.343375 
L 280.81998 -290.342751 
L 277.540637 -289.690416 
L 274.261315 -288.347513 
L 270.981953 -286.349551 
L 267.70263 -283.761227 
L 264.423288 -280.663929 
L 261.143946 -277.126502 
L 257.864623 -273.195327 
L 254.585262 -268.894944 
L 251.305939 -264.235916 
L 248.026597 -259.238419 
L 244.747254 -253.950703 
L 241.467912 -248.486465 
L 238.18857 -243.039712 
L 234.909247 -237.681271 
L 231.629886 -232.384834 
L 228.350563 -227.141825 
L 225.071221 -221.948222 
L 221.791879 -216.808692 
L 218.512556 -211.716094 
L 215.233204 -206.665843 
L 211.953871 -201.647551 
L 208.674529 -196.648634 
L 205.395187 -191.653584 
L 202.115855 -186.653628 
L 198.836512 -181.635627 
L 195.55717 -176.594175 
L 192.277838 -171.527293 
L 188.998496 -166.44038 
L 185.719153 -161.345604 
L 182.439821 -156.261361 
L 179.160479 -151.21591 
L 175.881137 -146.244173 
L 172.601804 -141.3872 
L 169.322462 -136.693741 
L 166.04312 -132.218572 
L 162.763787 -128.023886 
L 159.484445 -124.211609 
L 156.205103 -122.129573 
L 152.92577 -122.834137 
L 149.646428 -123.859124 
L 146.367086 -124.983064 
L 143.087754 -126.098616 
L 139.808412 -127.113179 
L 136.529069 -127.941941 
L 133.249737 -128.509316 
L 129.970395 -128.750422 
L 126.691057 -128.61289 
L 123.41172 -128.057147 
L 120.132378 -127.060954 
L 116.853041 -125.635209 
L 113.573703 -125.111366 
L 110.294361 -128.926605 
L 107.015024 -133.243175 
L 103.735686 -137.823472 
L 100.456344 -142.586997 
L 97.177007 -147.460695 
L 93.89767 -152.374802 
L 90.61833 -157.263686 
L 87.33899 -162.065796 
L 84.059653 -166.725573 
L 80.780313 -171.194072 
L 77.500973 -175.429582 
L 74.221636 -179.398209 
L 70.942296 -183.073801 
L 67.662958 -186.438106 
L 64.383619 -189.480457 
L 61.10428 -192.197353 
L 57.824941 -194.591859 
L 54.545602 -196.672812 
z
" style="stroke: #ff7f0e; stroke-opacity: 0.5; stroke-width: 0.8"/>
    </defs>
    <g clip-path="url(#pf45bb73323)">
     <use xlink:href="#m6276ddc7ff" x="0" y="322.539375" style="fill: #ff7f0e; fill-opacity: 0.5; stroke: #ff7f0e; stroke-opacity: 0.5; stroke-width: 0.8"/>
    </g>
   </g>
   <g id="line2d_13">
    <defs>
     <path id="m48f2b6ba55" d="M -5 5 
L 5 -5 
M -5 -5 
L 5 5 
" style="stroke: #000000; stroke-width: 2"/>
    </defs>
    <g clip-path="url(#pf45bb73323)">
     <use xlink:href="#m48f2b6ba55" x="356.349693" y="201.783087" style="stroke: #000000; stroke-width: 2"/>
     <use xlink:href="#m48f2b6ba55" x="157.258364" y="200.884756" style="stroke: #000000; stroke-width: 2"/>
     <use xlink:href="#m48f2b6ba55" x="114.255683" y="198.477972" style="stroke: #000000; stroke-width: 2"/>
     <use xlink:href="#m48f2b6ba55" x="261.143946" y="46.00544" style="stroke: #000000; stroke-width: 2"/>
     <use xlink:href="#m48f2b6ba55" x="241.467912" y="74.669966" style="stroke: #000000; stroke-width: 2"/>
     <use xlink:href="#m48f2b6ba55" x="280.81998" y="32.709754" style="stroke: #000000; stroke-width: 2"/>
     <use xlink:href="#m48f2b6ba55" x="284.099322" y="32.649601" style="stroke: #000000; stroke-width: 2"/>
     <use xlink:href="#m48f2b6ba55" x="280.81998" y="32.709754" style="stroke: #000000; stroke-width: 2"/>
     <use xlink:href="#m48f2b6ba55" x="284.099322" y="32.649601" style="stroke: #000000; stroke-width: 2"/>
     <use xlink:href="#m48f2b6ba55" x="280.81998" y="32.709754" style="stroke: #000000; stroke-width: 2"/>
     <use xlink:href="#m48f2b6ba55" x="284.099322" y="32.649601" style="stroke: #000000; stroke-width: 2"/>
     <use xlink:href="#m48f2b6ba55" x="280.81998" y="32.709754" style="stroke: #000000; stroke-width: 2"/>
     <use xlink:href="#m48f2b6ba55" x="284.099322" y="32.649601" style="stroke: #000000; stroke-width: 2"/>
    </g>
   </g>
   <g id="line2d_14">
    <path d="M 54.545602 197.223194 
L 57.824941 196.631922 
L 61.10428 196.073245 
L 64.383619 195.55794 
L 67.662958 195.096963 
L 70.942296 194.701218 
L 74.221636 194.381215 
L 77.500973 194.146767 
L 80.780313 194.00666 
L 84.059653 193.968247 
L 87.33899 194.03717 
L 90.61833 194.216957 
L 93.89767 194.508722 
L 97.177007 194.910875 
L 100.456344 195.418797 
L 103.735686 196.024754 
L 107.015024 196.71766 
L 110.294361 197.483068 
L 113.573703 198.303155 
L 116.853041 199.156777 
L 120.132378 200.019737 
L 123.41172 200.865018 
L 126.691057 201.663089 
L 129.970395 202.382462 
L 133.249737 202.990038 
L 136.529069 203.451871 
L 139.808412 203.733685 
L 143.087754 203.801583 
L 146.367086 203.622868 
L 149.646428 203.166393 
L 152.92577 202.403703 
L 156.205103 201.309419 
L 159.484445 199.861874 
L 162.763787 198.043781 
L 166.04312 195.842479 
L 169.322462 193.250329 
L 172.601804 190.265003 
L 175.881137 186.889784 
L 179.160479 183.133145 
L 182.439821 179.008328 
L 185.719153 174.53396 
L 188.998496 169.732786 
L 192.277838 164.63156 
L 195.55717 159.26024 
L 198.836512 153.651424 
L 202.115855 147.839205 
L 205.395187 141.859467 
L 208.674529 135.747551 
L 211.953871 129.539796 
L 215.233204 123.271004 
L 218.512556 116.974728 
L 221.791879 110.683318 
L 225.071221 104.427664 
L 228.350563 98.236624 
L 231.629886 92.138637 
L 234.909247 86.160063 
L 238.18857 80.327762 
L 241.467912 74.668677 
L 244.747254 69.209751 
L 248.026597 63.980256 
L 251.305939 59.011374 
L 254.585262 54.336869 
L 257.864623 49.994409 
L 261.143946 46.023412 
L 264.423288 42.469447 
L 267.70263 39.378916 
L 270.981953 36.801714 
L 274.261315 34.79131 
L 277.540637 33.399261 
L 280.81998 32.678124 
L 284.099322 32.677791 
L 287.378664 33.445829 
L 290.658006 35.021987 
L 293.937329 37.441524 
L 297.21669 40.726975 
L 300.496013 44.892393 
L 303.775355 49.939692 
L 307.054697 55.855815 
L 310.33402 62.614152 
L 313.613382 70.17404 
L 316.892705 78.47993 
L 320.172047 87.461636 
L 323.451389 97.037583 
L 326.730731 107.110809 
L 330.010073 117.577617 
L 333.289396 128.326161 
L 336.568738 139.238773 
L 339.84808 150.193464 
L 343.127423 161.06824 
L 346.406765 171.746267 
L 349.686088 182.111457 
L 352.96543 192.057993 
L 356.244772 201.487874 
L 359.524114 210.315408 
L 362.803456 218.466958 
L 366.082798 225.883691 
L 369.362141 232.519995 
L 372.641463 238.346039 
L 375.920806 243.347268 
L 379.200148 247.522499 
" clip-path="url(#pf45bb73323)" style="fill: none; stroke: #1f77b4; stroke-width: 2; stroke-linecap: round"/>
   </g>
   <g id="line2d_15">
    <path d="M 54.545602 120.420537 
L 57.824941 125.740279 
L 61.10428 131.040281 
L 64.383619 136.300888 
L 67.662958 141.502515 
L 70.942296 146.625799 
L 74.221636 151.65156 
L 77.500973 156.560958 
L 80.780313 161.335527 
L 84.059653 165.957207 
L 87.33899 170.408462 
L 90.61833 174.672302 
L 93.89767 178.732355 
L 97.177007 182.572921 
L 100.456344 186.179041 
L 103.735686 189.536505 
L 107.015024 192.631953 
L 110.294361 195.452888 
L 113.573703 197.987748 
L 116.853041 200.225909 
L 120.132378 202.15774 
L 123.41172 203.774656 
L 126.691057 205.06912 
L 129.970395 206.034682 
L 133.249737 206.666015 
L 136.529069 206.95892 
L 139.808412 206.910346 
L 143.087754 206.518427 
L 146.367086 205.782472 
L 149.646428 204.702974 
L 152.92577 203.281639 
L 156.205103 201.521386 
L 159.484445 199.426313 
L 162.763787 197.001766 
L 166.04312 194.254268 
L 169.322462 191.191564 
L 172.601804 187.822598 
L 175.881137 184.157509 
L 179.160479 180.207644 
L 182.439821 175.985487 
L 185.719153 171.504768 
L 188.998496 166.780327 
L 192.277838 161.828222 
L 195.55717 156.665606 
L 198.836512 151.310834 
L 202.115855 145.783423 
L 205.395187 140.104022 
L 208.674529 134.294413 
L 211.953871 128.377583 
L 215.233204 122.377632 
L 218.512556 116.319836 
L 221.791879 110.230694 
L 225.071221 104.13781 
L 228.350563 98.070009 
L 231.629886 92.057465 
L 234.909247 86.131311 
L 238.18857 80.324249 
L 241.467912 74.669966 
L 244.747254 69.203577 
L 248.026597 63.961421 
L 251.305939 58.981053 
L 254.585262 54.301381 
L 257.864623 49.962425 
L 261.143946 46.00544 
L 264.423288 42.472711 
L 267.70263 39.407522 
L 270.981953 36.853885 
L 274.261315 34.856453 
L 277.540637 33.460132 
L 280.81998 32.709754 
L 284.099322 32.649601 
L 287.378664 33.322819 
L 290.658006 34.770645 
L 293.937329 37.03155 
L 297.21669 40.14024 
L 300.496013 44.125956 
L 303.775355 49.011535 
L 307.054697 54.811009 
L 310.33402 61.527581 
L 313.613382 69.151417 
L 316.892705 77.656311 
L 320.172047 86.996893 
L 323.451389 97.10492 
L 326.730731 107.885417 
L 330.010073 119.212796 
L 333.289396 130.926756 
L 336.568738 142.82835 
L 339.84808 154.676854 
L 343.127423 166.187152 
L 346.406765 177.028759 
L 349.686088 186.827551 
L 352.96543 195.170373 
L 356.244772 201.613431 
L 359.524114 205.69747 
L 362.803456 206.96881 
L 366.082798 205.009179 
L 369.362141 199.474736 
L 372.641463 190.144716 
L 375.920806 176.9794 
L 379.200148 160.184681 
" clip-path="url(#pf45bb73323)" style="fill: none; stroke-dasharray: 7.68,1.92,1.2,1.92; stroke-dashoffset: 0; stroke: #bf00bf; stroke-width: 1.2"/>
   </g>
   <g id="patch_3">
    <path d="M 38.312875 250.579122 
L 38.312875 32.587981 
" style="fill: none; stroke: #262626; stroke-linejoin: miter; stroke-linecap: square"/>
   </g>
   <g id="patch_4">
    <path d="M 54.545602 286.212 
L 379.200148 286.212 
" style="fill: none; stroke: #262626; stroke-linejoin: miter; stroke-linecap: square"/>
   </g>
   <g id="text_15">
    <!-- N=9, psi=1.96 -->
    <g style="fill: #262626" transform="translate(186.986125 14.1) scale(0.096 -0.096)">
     <defs>
      <path id="ArialMT-4e" d="M 488 0 
L 488 4581 
L 1109 4581 
L 3516 984 
L 3516 4581 
L 4097 4581 
L 4097 0 
L 3475 0 
L 1069 3600 
L 1069 0 
L 488 0 
z
" transform="scale(0.015625)"/>
      <path id="ArialMT-3d" d="M 3381 2694 
L 356 2694 
L 356 3219 
L 3381 3219 
L 3381 2694 
z
M 3381 1303 
L 356 1303 
L 356 1828 
L 3381 1828 
L 3381 1303 
z
" transform="scale(0.015625)"/>
      <path id="ArialMT-39" d="M 350 1059 
L 891 1109 
Q 959 728 1153 556 
Q 1347 384 1650 384 
Q 1909 384 2104 503 
Q 2300 622 2425 820 
Q 2550 1019 2634 1356 
Q 2719 1694 2719 2044 
Q 2719 2081 2716 2156 
Q 2547 1888 2255 1720 
Q 1963 1553 1622 1553 
Q 1053 1553 659 1965 
Q 266 2378 266 3053 
Q 266 3750 677 4175 
Q 1088 4600 1706 4600 
Q 2153 4600 2523 4359 
Q 2894 4119 3086 3673 
Q 3278 3228 3278 2384 
Q 3278 1506 3087 986 
Q 2897 466 2520 194 
Q 2144 -78 1638 -78 
Q 1100 -78 759 220 
Q 419 519 350 1059 
z
M 2653 3081 
Q 2653 3566 2395 3850 
Q 2138 4134 1775 4134 
Q 1400 4134 1122 3828 
Q 844 3522 844 3034 
Q 844 2597 1108 2323 
Q 1372 2050 1759 2050 
Q 2150 2050 2401 2323 
Q 2653 2597 2653 3081 
z
" transform="scale(0.015625)"/>
      <path id="ArialMT-2c" d="M 569 0 
L 569 641 
L 1209 641 
L 1209 0 
Q 1209 -353 1084 -570 
Q 959 -788 688 -906 
L 531 -666 
Q 709 -588 793 -436 
Q 878 -284 888 0 
L 569 0 
z
" transform="scale(0.015625)"/>
      <path id="ArialMT-20" transform="scale(0.015625)"/>
      <path id="ArialMT-70" d="M 422 -1272 
L 422 3319 
L 934 3319 
L 934 2888 
Q 1116 3141 1344 3267 
Q 1572 3394 1897 3394 
Q 2322 3394 2647 3175 
Q 2972 2956 3137 2557 
Q 3303 2159 3303 1684 
Q 3303 1175 3120 767 
Q 2938 359 2589 142 
Q 2241 -75 1856 -75 
Q 1575 -75 1351 44 
Q 1128 163 984 344 
L 984 -1272 
L 422 -1272 
z
M 931 1641 
Q 931 1000 1190 694 
Q 1450 388 1819 388 
Q 2194 388 2461 705 
Q 2728 1022 2728 1688 
Q 2728 2322 2467 2637 
Q 2206 2953 1844 2953 
Q 1484 2953 1207 2617 
Q 931 2281 931 1641 
z
" transform="scale(0.015625)"/>
      <path id="ArialMT-73" d="M 197 991 
L 753 1078 
Q 800 744 1014 566 
Q 1228 388 1613 388 
Q 2000 388 2187 545 
Q 2375 703 2375 916 
Q 2375 1106 2209 1216 
Q 2094 1291 1634 1406 
Q 1016 1563 777 1677 
Q 538 1791 414 1992 
Q 291 2194 291 2438 
Q 291 2659 392 2848 
Q 494 3038 669 3163 
Q 800 3259 1026 3326 
Q 1253 3394 1513 3394 
Q 1903 3394 2198 3281 
Q 2494 3169 2634 2976 
Q 2775 2784 2828 2463 
L 2278 2388 
Q 2241 2644 2061 2787 
Q 1881 2931 1553 2931 
Q 1166 2931 1000 2803 
Q 834 2675 834 2503 
Q 834 2394 903 2306 
Q 972 2216 1119 2156 
Q 1203 2125 1616 2013 
Q 2213 1853 2448 1751 
Q 2684 1650 2818 1456 
Q 2953 1263 2953 975 
Q 2953 694 2789 445 
Q 2625 197 2315 61 
Q 2006 -75 1616 -75 
Q 969 -75 630 194 
Q 291 463 197 991 
z
" transform="scale(0.015625)"/>
      <path id="ArialMT-69" d="M 425 3934 
L 425 4581 
L 988 4581 
L 988 3934 
L 425 3934 
z
M 425 0 
L 425 3319 
L 988 3319 
L 988 0 
L 425 0 
z
" transform="scale(0.015625)"/>
     </defs>
     <use xlink:href="#ArialMT-4e"/>
     <use xlink:href="#ArialMT-3d" x="72.216797"/>
     <use xlink:href="#ArialMT-39" x="130.615234"/>
     <use xlink:href="#ArialMT-2c" x="186.230469"/>
     <use xlink:href="#ArialMT-20" x="214.013672"/>
     <use xlink:href="#ArialMT-70" x="241.796875"/>
     <use xlink:href="#ArialMT-73" x="297.412109"/>
     <use xlink:href="#ArialMT-69" x="347.412109"/>
     <use xlink:href="#ArialMT-3d" x="369.628906"/>
     <use xlink:href="#ArialMT-31" x="428.027344"/>
     <use xlink:href="#ArialMT-2e" x="483.642578"/>
     <use xlink:href="#ArialMT-39" x="511.425781"/>
     <use xlink:href="#ArialMT-36" x="567.041016"/>
    </g>
   </g>
   <g id="legend_1">
    <g id="line2d_16">
     <g>
      <use xlink:href="#m48f2b6ba55" x="55.032875" y="31.238875" style="stroke: #000000; stroke-width: 2"/>
     </g>
    </g>
    <g id="text_16">
     <!-- Observations -->
     <g style="fill: #262626" transform="translate(70.872875 34.318875) scale(0.088 -0.088)">
      <defs>
       <path id="ArialMT-4f" d="M 309 2231 
Q 309 3372 921 4017 
Q 1534 4663 2503 4663 
Q 3138 4663 3647 4359 
Q 4156 4056 4423 3514 
Q 4691 2972 4691 2284 
Q 4691 1588 4409 1038 
Q 4128 488 3612 205 
Q 3097 -78 2500 -78 
Q 1853 -78 1343 234 
Q 834 547 571 1087 
Q 309 1628 309 2231 
z
M 934 2222 
Q 934 1394 1379 917 
Q 1825 441 2497 441 
Q 3181 441 3623 922 
Q 4066 1403 4066 2288 
Q 4066 2847 3877 3264 
Q 3688 3681 3323 3911 
Q 2959 4141 2506 4141 
Q 1863 4141 1398 3698 
Q 934 3256 934 2222 
z
" transform="scale(0.015625)"/>
       <path id="ArialMT-62" d="M 941 0 
L 419 0 
L 419 4581 
L 981 4581 
L 981 2947 
Q 1338 3394 1891 3394 
Q 2197 3394 2470 3270 
Q 2744 3147 2920 2923 
Q 3097 2700 3197 2384 
Q 3297 2069 3297 1709 
Q 3297 856 2875 390 
Q 2453 -75 1863 -75 
Q 1275 -75 941 416 
L 941 0 
z
M 934 1684 
Q 934 1088 1097 822 
Q 1363 388 1816 388 
Q 2184 388 2453 708 
Q 2722 1028 2722 1663 
Q 2722 2313 2464 2622 
Q 2206 2931 1841 2931 
Q 1472 2931 1203 2611 
Q 934 2291 934 1684 
z
" transform="scale(0.015625)"/>
       <path id="ArialMT-65" d="M 2694 1069 
L 3275 997 
Q 3138 488 2766 206 
Q 2394 -75 1816 -75 
Q 1088 -75 661 373 
Q 234 822 234 1631 
Q 234 2469 665 2931 
Q 1097 3394 1784 3394 
Q 2450 3394 2872 2941 
Q 3294 2488 3294 1666 
Q 3294 1616 3291 1516 
L 816 1516 
Q 847 969 1125 678 
Q 1403 388 1819 388 
Q 2128 388 2347 550 
Q 2566 713 2694 1069 
z
M 847 1978 
L 2700 1978 
Q 2663 2397 2488 2606 
Q 2219 2931 1791 2931 
Q 1403 2931 1139 2672 
Q 875 2413 847 1978 
z
" transform="scale(0.015625)"/>
       <path id="ArialMT-72" d="M 416 0 
L 416 3319 
L 922 3319 
L 922 2816 
Q 1116 3169 1280 3281 
Q 1444 3394 1641 3394 
Q 1925 3394 2219 3213 
L 2025 2691 
Q 1819 2813 1613 2813 
Q 1428 2813 1281 2702 
Q 1134 2591 1072 2394 
Q 978 2094 978 1738 
L 978 0 
L 416 0 
z
" transform="scale(0.015625)"/>
       <path id="ArialMT-76" d="M 1344 0 
L 81 3319 
L 675 3319 
L 1388 1331 
Q 1503 1009 1600 663 
Q 1675 925 1809 1294 
L 2547 3319 
L 3125 3319 
L 1869 0 
L 1344 0 
z
" transform="scale(0.015625)"/>
       <path id="ArialMT-61" d="M 2588 409 
Q 2275 144 1986 34 
Q 1697 -75 1366 -75 
Q 819 -75 525 192 
Q 231 459 231 875 
Q 231 1119 342 1320 
Q 453 1522 633 1644 
Q 813 1766 1038 1828 
Q 1203 1872 1538 1913 
Q 2219 1994 2541 2106 
Q 2544 2222 2544 2253 
Q 2544 2597 2384 2738 
Q 2169 2928 1744 2928 
Q 1347 2928 1158 2789 
Q 969 2650 878 2297 
L 328 2372 
Q 403 2725 575 2942 
Q 747 3159 1072 3276 
Q 1397 3394 1825 3394 
Q 2250 3394 2515 3294 
Q 2781 3194 2906 3042 
Q 3031 2891 3081 2659 
Q 3109 2516 3109 2141 
L 3109 1391 
Q 3109 606 3145 398 
Q 3181 191 3288 0 
L 2700 0 
Q 2613 175 2588 409 
z
M 2541 1666 
Q 2234 1541 1622 1453 
Q 1275 1403 1131 1340 
Q 988 1278 909 1158 
Q 831 1038 831 891 
Q 831 666 1001 516 
Q 1172 366 1500 366 
Q 1825 366 2078 508 
Q 2331 650 2450 897 
Q 2541 1088 2541 1459 
L 2541 1666 
z
" transform="scale(0.015625)"/>
       <path id="ArialMT-74" d="M 1650 503 
L 1731 6 
Q 1494 -44 1306 -44 
Q 1000 -44 831 53 
Q 663 150 594 308 
Q 525 466 525 972 
L 525 2881 
L 113 2881 
L 113 3319 
L 525 3319 
L 525 4141 
L 1084 4478 
L 1084 3319 
L 1650 3319 
L 1650 2881 
L 1084 2881 
L 1084 941 
Q 1084 700 1114 631 
Q 1144 563 1211 522 
Q 1278 481 1403 481 
Q 1497 481 1650 503 
z
" transform="scale(0.015625)"/>
       <path id="ArialMT-6f" d="M 213 1659 
Q 213 2581 725 3025 
Q 1153 3394 1769 3394 
Q 2453 3394 2887 2945 
Q 3322 2497 3322 1706 
Q 3322 1066 3130 698 
Q 2938 331 2570 128 
Q 2203 -75 1769 -75 
Q 1072 -75 642 372 
Q 213 819 213 1659 
z
M 791 1659 
Q 791 1022 1069 705 
Q 1347 388 1769 388 
Q 2188 388 2466 706 
Q 2744 1025 2744 1678 
Q 2744 2294 2464 2611 
Q 2184 2928 1769 2928 
Q 1347 2928 1069 2612 
Q 791 2297 791 1659 
z
" transform="scale(0.015625)"/>
       <path id="ArialMT-6e" d="M 422 0 
L 422 3319 
L 928 3319 
L 928 2847 
Q 1294 3394 1984 3394 
Q 2284 3394 2536 3286 
Q 2788 3178 2913 3003 
Q 3038 2828 3088 2588 
Q 3119 2431 3119 2041 
L 3119 0 
L 2556 0 
L 2556 2019 
Q 2556 2363 2490 2533 
Q 2425 2703 2258 2804 
Q 2091 2906 1866 2906 
Q 1506 2906 1245 2678 
Q 984 2450 984 1813 
L 984 0 
L 422 0 
z
" transform="scale(0.015625)"/>
      </defs>
      <use xlink:href="#ArialMT-4f"/>
      <use xlink:href="#ArialMT-62" x="77.783203"/>
      <use xlink:href="#ArialMT-73" x="133.398438"/>
      <use xlink:href="#ArialMT-65" x="183.398438"/>
      <use xlink:href="#ArialMT-72" x="239.013672"/>
      <use xlink:href="#ArialMT-76" x="272.314453"/>
      <use xlink:href="#ArialMT-61" x="322.314453"/>
      <use xlink:href="#ArialMT-74" x="377.929688"/>
      <use xlink:href="#ArialMT-69" x="405.712891"/>
      <use xlink:href="#ArialMT-6f" x="427.929688"/>
      <use xlink:href="#ArialMT-6e" x="483.544922"/>
      <use xlink:href="#ArialMT-73" x="539.160156"/>
     </g>
    </g>
    <g id="line2d_17">
     <path d="M 46.232875 43.822875 
L 55.032875 43.822875 
L 63.832875 43.822875 
" style="fill: none; stroke: #1f77b4; stroke-width: 2; stroke-linecap: round"/>
    </g>
    <g id="text_17">
     <!-- $m_n(x)$ -->
     <g style="fill: #262626" transform="translate(70.872875 46.902875) scale(0.088 -0.088)">
      <defs>
       <path id="DejaVuSans-Oblique-6d" d="M 5747 2113 
L 5338 0 
L 4763 0 
L 5166 2094 
Q 5191 2228 5203 2325 
Q 5216 2422 5216 2491 
Q 5216 2772 5059 2928 
Q 4903 3084 4622 3084 
Q 4203 3084 3875 2770 
Q 3547 2456 3450 1953 
L 3066 0 
L 2491 0 
L 2900 2094 
Q 2925 2209 2937 2307 
Q 2950 2406 2950 2484 
Q 2950 2769 2794 2926 
Q 2638 3084 2363 3084 
Q 1938 3084 1609 2770 
Q 1281 2456 1184 1953 
L 800 0 
L 225 0 
L 909 3500 
L 1484 3500 
L 1375 2956 
Q 1609 3263 1923 3423 
Q 2238 3584 2597 3584 
Q 2978 3584 3223 3384 
Q 3469 3184 3519 2828 
Q 3781 3197 4126 3390 
Q 4472 3584 4856 3584 
Q 5306 3584 5551 3325 
Q 5797 3066 5797 2591 
Q 5797 2488 5784 2364 
Q 5772 2241 5747 2113 
z
" transform="scale(0.015625)"/>
       <path id="DejaVuSans-Oblique-6e" d="M 3566 2113 
L 3156 0 
L 2578 0 
L 2988 2091 
Q 3016 2238 3031 2350 
Q 3047 2463 3047 2528 
Q 3047 2791 2881 2937 
Q 2716 3084 2419 3084 
Q 1956 3084 1622 2776 
Q 1288 2469 1184 1941 
L 800 0 
L 225 0 
L 903 3500 
L 1478 3500 
L 1363 2950 
Q 1603 3253 1940 3418 
Q 2278 3584 2650 3584 
Q 3113 3584 3367 3334 
Q 3622 3084 3622 2631 
Q 3622 2519 3608 2391 
Q 3594 2263 3566 2113 
z
" transform="scale(0.015625)"/>
       <path id="DejaVuSans-28" d="M 1984 4856 
Q 1566 4138 1362 3434 
Q 1159 2731 1159 2009 
Q 1159 1288 1364 580 
Q 1569 -128 1984 -844 
L 1484 -844 
Q 1016 -109 783 600 
Q 550 1309 550 2009 
Q 550 2706 781 3412 
Q 1013 4119 1484 4856 
L 1984 4856 
z
" transform="scale(0.015625)"/>
       <path id="DejaVuSans-29" d="M 513 4856 
L 1013 4856 
Q 1481 4119 1714 3412 
Q 1947 2706 1947 2009 
Q 1947 1309 1714 600 
Q 1481 -109 1013 -844 
L 513 -844 
Q 928 -128 1133 580 
Q 1338 1288 1338 2009 
Q 1338 2731 1133 3434 
Q 928 4138 513 4856 
z
" transform="scale(0.015625)"/>
      </defs>
      <use xlink:href="#DejaVuSans-Oblique-6d" transform="translate(0 0.125)"/>
      <use xlink:href="#DejaVuSans-Oblique-6e" transform="translate(97.412109 -16.28125) scale(0.7)"/>
      <use xlink:href="#DejaVuSans-28" transform="translate(144.511719 0.125)"/>
      <use xlink:href="#DejaVuSans-Oblique-78" transform="translate(183.525391 0.125)"/>
      <use xlink:href="#DejaVuSans-29" transform="translate(242.705078 0.125)"/>
     </g>
    </g>
    <g id="patch_5">
     <path d="M 46.232875 61.059875 
L 63.832875 61.059875 
L 63.832875 54.899875 
L 46.232875 54.899875 
z
" style="fill: #1f77b4; fill-opacity: 0.5; stroke: #1f77b4; stroke-opacity: 0.5; stroke-width: 0.8; stroke-linejoin: miter"/>
    </g>
    <g id="text_18">
     <!-- $f(\mathbf{x}^*)$ 95% pred. -->
     <g style="fill: #262626" transform="translate(70.872875 61.059875) scale(0.088 -0.088)">
      <defs>
       <path id="DejaVuSans-Oblique-66" d="M 3059 4863 
L 2969 4384 
L 2419 4384 
Q 2106 4384 1964 4261 
Q 1822 4138 1753 3809 
L 1691 3500 
L 2638 3500 
L 2553 3053 
L 1606 3053 
L 1013 0 
L 434 0 
L 1031 3053 
L 481 3053 
L 563 3500 
L 1113 3500 
L 1159 3744 
Q 1278 4363 1576 4613 
Q 1875 4863 2516 4863 
L 3059 4863 
z
" transform="scale(0.015625)"/>
       <path id="DejaVuSans-Bold-78" d="M 1422 1791 
L 159 3500 
L 1344 3500 
L 2059 2463 
L 2784 3500 
L 3969 3500 
L 2706 1797 
L 4031 0 
L 2847 0 
L 2059 1106 
L 1281 0 
L 97 0 
L 1422 1791 
z
" transform="scale(0.015625)"/>
       <path id="DejaVuSans-2a" d="M 3009 3897 
L 1888 3291 
L 3009 2681 
L 2828 2375 
L 1778 3009 
L 1778 1831 
L 1422 1831 
L 1422 3009 
L 372 2375 
L 191 2681 
L 1313 3291 
L 191 3897 
L 372 4206 
L 1422 3572 
L 1422 4750 
L 1778 4750 
L 1778 3572 
L 2828 4206 
L 3009 3897 
z
" transform="scale(0.015625)"/>
       <path id="ArialMT-35" d="M 266 1200 
L 856 1250 
Q 922 819 1161 601 
Q 1400 384 1738 384 
Q 2144 384 2425 690 
Q 2706 997 2706 1503 
Q 2706 1984 2436 2262 
Q 2166 2541 1728 2541 
Q 1456 2541 1237 2417 
Q 1019 2294 894 2097 
L 366 2166 
L 809 4519 
L 3088 4519 
L 3088 3981 
L 1259 3981 
L 1013 2750 
Q 1425 3038 1878 3038 
Q 2478 3038 2890 2622 
Q 3303 2206 3303 1553 
Q 3303 931 2941 478 
Q 2500 -78 1738 -78 
Q 1113 -78 717 272 
Q 322 622 266 1200 
z
" transform="scale(0.015625)"/>
       <path id="ArialMT-25" d="M 372 3481 
Q 372 3972 619 4315 
Q 866 4659 1334 4659 
Q 1766 4659 2048 4351 
Q 2331 4044 2331 3447 
Q 2331 2866 2045 2552 
Q 1759 2238 1341 2238 
Q 925 2238 648 2547 
Q 372 2856 372 3481 
z
M 1350 4272 
Q 1141 4272 1002 4090 
Q 863 3909 863 3425 
Q 863 2984 1003 2804 
Q 1144 2625 1350 2625 
Q 1563 2625 1702 2806 
Q 1841 2988 1841 3469 
Q 1841 3913 1700 4092 
Q 1559 4272 1350 4272 
z
M 1353 -169 
L 3859 4659 
L 4316 4659 
L 1819 -169 
L 1353 -169 
z
M 3334 1075 
Q 3334 1569 3581 1911 
Q 3828 2253 4300 2253 
Q 4731 2253 5014 1945 
Q 5297 1638 5297 1041 
Q 5297 459 5011 145 
Q 4725 -169 4303 -169 
Q 3888 -169 3611 142 
Q 3334 453 3334 1075 
z
M 4316 1866 
Q 4103 1866 3964 1684 
Q 3825 1503 3825 1019 
Q 3825 581 3965 400 
Q 4106 219 4313 219 
Q 4528 219 4667 400 
Q 4806 581 4806 1063 
Q 4806 1506 4665 1686 
Q 4525 1866 4316 1866 
z
" transform="scale(0.015625)"/>
       <path id="ArialMT-64" d="M 2575 0 
L 2575 419 
Q 2259 -75 1647 -75 
Q 1250 -75 917 144 
Q 584 363 401 755 
Q 219 1147 219 1656 
Q 219 2153 384 2558 
Q 550 2963 881 3178 
Q 1213 3394 1622 3394 
Q 1922 3394 2156 3267 
Q 2391 3141 2538 2938 
L 2538 4581 
L 3097 4581 
L 3097 0 
L 2575 0 
z
M 797 1656 
Q 797 1019 1065 703 
Q 1334 388 1700 388 
Q 2069 388 2326 689 
Q 2584 991 2584 1609 
Q 2584 2291 2321 2609 
Q 2059 2928 1675 2928 
Q 1300 2928 1048 2622 
Q 797 2316 797 1656 
z
" transform="scale(0.015625)"/>
      </defs>
      <use xlink:href="#DejaVuSans-Oblique-66" transform="translate(0 0.765625)"/>
      <use xlink:href="#DejaVuSans-28" transform="translate(35.205078 0.765625)"/>
      <use xlink:href="#DejaVuSans-Bold-78" transform="translate(74.21875 0.765625)"/>
      <use xlink:href="#DejaVuSans-2a" transform="translate(153.31543 39.046875) scale(0.7)"/>
      <use xlink:href="#DejaVuSans-29" transform="translate(204.6875 0.765625)"/>
      <use xlink:href="#ArialMT-20" transform="translate(243.701172 0.765625)"/>
      <use xlink:href="#ArialMT-39" transform="translate(271.484375 0.765625)"/>
      <use xlink:href="#ArialMT-35" transform="translate(327.099609 0.765625)"/>
      <use xlink:href="#ArialMT-25" transform="translate(382.714844 0.765625)"/>
      <use xlink:href="#ArialMT-20" transform="translate(471.630859 0.765625)"/>
      <use xlink:href="#ArialMT-70" transform="translate(499.414062 0.765625)"/>
      <use xlink:href="#ArialMT-72" transform="translate(555.029297 0.765625)"/>
      <use xlink:href="#ArialMT-65" transform="translate(588.330078 0.765625)"/>
      <use xlink:href="#ArialMT-64" transform="translate(643.945312 0.765625)"/>
      <use xlink:href="#ArialMT-2e" transform="translate(699.560547 0.765625)"/>
     </g>
    </g>
    <g id="patch_6">
     <path d="M 46.232875 75.227875 
L 63.832875 75.227875 
L 63.832875 69.067875 
L 46.232875 69.067875 
z
" style="fill: #ff7f0e; fill-opacity: 0.5; stroke: #ff7f0e; stroke-opacity: 0.5; stroke-width: 0.8; stroke-linejoin: miter"/>
    </g>
    <g id="text_19">
     <!-- $y^*$ 95% pred. -->
     <g style="fill: #262626" transform="translate(70.872875 75.227875) scale(0.088 -0.088)">
      <use xlink:href="#DejaVuSans-Oblique-79" transform="translate(0 0.765625)"/>
      <use xlink:href="#DejaVuSans-2a" transform="translate(77.283529 39.046875) scale(0.7)"/>
      <use xlink:href="#ArialMT-20" transform="translate(128.655599 0.765625)"/>
      <use xlink:href="#ArialMT-39" transform="translate(156.438802 0.765625)"/>
      <use xlink:href="#ArialMT-35" transform="translate(212.054036 0.765625)"/>
      <use xlink:href="#ArialMT-25" transform="translate(267.669271 0.765625)"/>
      <use xlink:href="#ArialMT-20" transform="translate(356.585286 0.765625)"/>
      <use xlink:href="#ArialMT-70" transform="translate(384.36849 0.765625)"/>
      <use xlink:href="#ArialMT-72" transform="translate(439.983724 0.765625)"/>
      <use xlink:href="#ArialMT-65" transform="translate(473.284505 0.765625)"/>
      <use xlink:href="#ArialMT-64" transform="translate(528.89974 0.765625)"/>
      <use xlink:href="#ArialMT-2e" transform="translate(584.514974 0.765625)"/>
     </g>
    </g>
    <g id="line2d_18">
     <path d="M 46.232875 84.69475 
L 55.032875 84.69475 
L 63.832875 84.69475 
" style="fill: none; stroke-dasharray: 7.68,1.92,1.2,1.92; stroke-dashoffset: 0; stroke: #bf00bf; stroke-width: 1.2"/>
    </g>
    <g id="text_20">
     <!-- True function -->
     <g style="fill: #262626" transform="translate(70.872875 87.77475) scale(0.088 -0.088)">
      <defs>
       <path id="ArialMT-54" d="M 1659 0 
L 1659 4041 
L 150 4041 
L 150 4581 
L 3781 4581 
L 3781 4041 
L 2266 4041 
L 2266 0 
L 1659 0 
z
" transform="scale(0.015625)"/>
       <path id="ArialMT-75" d="M 2597 0 
L 2597 488 
Q 2209 -75 1544 -75 
Q 1250 -75 995 37 
Q 741 150 617 320 
Q 494 491 444 738 
Q 409 903 409 1263 
L 409 3319 
L 972 3319 
L 972 1478 
Q 972 1038 1006 884 
Q 1059 663 1231 536 
Q 1403 409 1656 409 
Q 1909 409 2131 539 
Q 2353 669 2445 892 
Q 2538 1116 2538 1541 
L 2538 3319 
L 3100 3319 
L 3100 0 
L 2597 0 
z
" transform="scale(0.015625)"/>
       <path id="ArialMT-66" d="M 556 0 
L 556 2881 
L 59 2881 
L 59 3319 
L 556 3319 
L 556 3672 
Q 556 4006 616 4169 
Q 697 4388 901 4523 
Q 1106 4659 1475 4659 
Q 1713 4659 2000 4603 
L 1916 4113 
Q 1741 4144 1584 4144 
Q 1328 4144 1222 4034 
Q 1116 3925 1116 3625 
L 1116 3319 
L 1763 3319 
L 1763 2881 
L 1116 2881 
L 1116 0 
L 556 0 
z
" transform="scale(0.015625)"/>
       <path id="ArialMT-63" d="M 2588 1216 
L 3141 1144 
Q 3050 572 2676 248 
Q 2303 -75 1759 -75 
Q 1078 -75 664 370 
Q 250 816 250 1647 
Q 250 2184 428 2587 
Q 606 2991 970 3192 
Q 1334 3394 1763 3394 
Q 2303 3394 2647 3120 
Q 2991 2847 3088 2344 
L 2541 2259 
Q 2463 2594 2264 2762 
Q 2066 2931 1784 2931 
Q 1359 2931 1093 2626 
Q 828 2322 828 1663 
Q 828 994 1084 691 
Q 1341 388 1753 388 
Q 2084 388 2306 591 
Q 2528 794 2588 1216 
z
" transform="scale(0.015625)"/>
      </defs>
      <use xlink:href="#ArialMT-54"/>
      <use xlink:href="#ArialMT-72" x="57.333984"/>
      <use xlink:href="#ArialMT-75" x="90.634766"/>
      <use xlink:href="#ArialMT-65" x="146.25"/>
      <use xlink:href="#ArialMT-20" x="201.865234"/>
      <use xlink:href="#ArialMT-66" x="229.648438"/>
      <use xlink:href="#ArialMT-75" x="257.431641"/>
      <use xlink:href="#ArialMT-6e" x="313.046875"/>
      <use xlink:href="#ArialMT-63" x="368.662109"/>
      <use xlink:href="#ArialMT-74" x="418.662109"/>
      <use xlink:href="#ArialMT-69" x="446.445312"/>
      <use xlink:href="#ArialMT-6f" x="468.662109"/>
      <use xlink:href="#ArialMT-6e" x="524.277344"/>
     </g>
    </g>
   </g>
  </g>
  <g id="axes_2">
   <g id="matplotlib.axis_3">
    <g id="ytick_7">
     <g id="line2d_19">
      <defs>
       <path id="mf1135e23c6" d="M 0 0 
L 4.8 0 
" style="stroke: #262626"/>
      </defs>
      <g>
       <use xlink:href="#mf1135e23c6" x="395.432875" y="255.379845" style="fill: #262626; stroke: #262626"/>
      </g>
     </g>
     <g id="text_21">
      <!-- 0 -->
      <g style="fill: #ff7f0e" transform="translate(403.732875 258.529283) scale(0.088 -0.088)">
       <use xlink:href="#ArialMT-30"/>
      </g>
     </g>
    </g>
    <g id="ytick_8">
     <g id="line2d_20">
      <g>
       <use xlink:href="#mf1135e23c6" x="395.432875" y="199.619413" style="fill: #262626; stroke: #262626"/>
      </g>
     </g>
     <g id="text_22">
      <!-- 2 -->
      <g style="fill: #ff7f0e" transform="translate(403.732875 202.768851) scale(0.088 -0.088)">
       <use xlink:href="#ArialMT-32"/>
      </g>
     </g>
    </g>
    <g id="ytick_9">
     <g id="line2d_21">
      <g>
       <use xlink:href="#mf1135e23c6" x="395.432875" y="143.858981" style="fill: #262626; stroke: #262626"/>
      </g>
     </g>
     <g id="text_23">
      <!-- 4 -->
      <g style="fill: #ff7f0e" transform="translate(403.732875 147.008418) scale(0.088 -0.088)">
       <use xlink:href="#ArialMT-34"/>
      </g>
     </g>
    </g>
    <g id="ytick_10">
     <g id="line2d_22">
      <g>
       <use xlink:href="#mf1135e23c6" x="395.432875" y="88.098549" style="fill: #262626; stroke: #262626"/>
      </g>
     </g>
     <g id="text_24">
      <!-- 6 -->
      <g style="fill: #ff7f0e" transform="translate(403.732875 91.247986) scale(0.088 -0.088)">
       <use xlink:href="#ArialMT-36"/>
      </g>
     </g>
    </g>
    <g id="ytick_11">
     <g id="line2d_23">
      <g>
       <use xlink:href="#mf1135e23c6" x="395.432875" y="32.338116" style="fill: #262626; stroke: #262626"/>
      </g>
     </g>
     <g id="text_25">
      <!-- 8 -->
      <g style="fill: #ff7f0e" transform="translate(403.732875 35.487554) scale(0.088 -0.088)">
       <use xlink:href="#ArialMT-38"/>
      </g>
     </g>
    </g>
    <g id="text_26">
     <!-- Maximum Upper Interval -->
     <g style="fill: #ff7f0e" transform="translate(419.498 205.43475) rotate(-90) scale(0.096 -0.096)">
      <defs>
       <path id="ArialMT-4d" d="M 475 0 
L 475 4581 
L 1388 4581 
L 2472 1338 
Q 2622 884 2691 659 
Q 2769 909 2934 1394 
L 4031 4581 
L 4847 4581 
L 4847 0 
L 4263 0 
L 4263 3834 
L 2931 0 
L 2384 0 
L 1059 3900 
L 1059 0 
L 475 0 
z
" transform="scale(0.015625)"/>
       <path id="ArialMT-78" d="M 47 0 
L 1259 1725 
L 138 3319 
L 841 3319 
L 1350 2541 
Q 1494 2319 1581 2169 
Q 1719 2375 1834 2534 
L 2394 3319 
L 3066 3319 
L 1919 1756 
L 3153 0 
L 2463 0 
L 1781 1031 
L 1600 1309 
L 728 0 
L 47 0 
z
" transform="scale(0.015625)"/>
       <path id="ArialMT-6d" d="M 422 0 
L 422 3319 
L 925 3319 
L 925 2853 
Q 1081 3097 1340 3245 
Q 1600 3394 1931 3394 
Q 2300 3394 2536 3241 
Q 2772 3088 2869 2813 
Q 3263 3394 3894 3394 
Q 4388 3394 4653 3120 
Q 4919 2847 4919 2278 
L 4919 0 
L 4359 0 
L 4359 2091 
Q 4359 2428 4304 2576 
Q 4250 2725 4106 2815 
Q 3963 2906 3769 2906 
Q 3419 2906 3187 2673 
Q 2956 2441 2956 1928 
L 2956 0 
L 2394 0 
L 2394 2156 
Q 2394 2531 2256 2718 
Q 2119 2906 1806 2906 
Q 1569 2906 1367 2781 
Q 1166 2656 1075 2415 
Q 984 2175 984 1722 
L 984 0 
L 422 0 
z
" transform="scale(0.015625)"/>
       <path id="ArialMT-55" d="M 3500 4581 
L 4106 4581 
L 4106 1934 
Q 4106 1244 3950 837 
Q 3794 431 3386 176 
Q 2978 -78 2316 -78 
Q 1672 -78 1262 144 
Q 853 366 678 786 
Q 503 1206 503 1934 
L 503 4581 
L 1109 4581 
L 1109 1938 
Q 1109 1341 1220 1058 
Q 1331 775 1601 622 
Q 1872 469 2263 469 
Q 2931 469 3215 772 
Q 3500 1075 3500 1938 
L 3500 4581 
z
" transform="scale(0.015625)"/>
       <path id="ArialMT-49" d="M 597 0 
L 597 4581 
L 1203 4581 
L 1203 0 
L 597 0 
z
" transform="scale(0.015625)"/>
       <path id="ArialMT-6c" d="M 409 0 
L 409 4581 
L 972 4581 
L 972 0 
L 409 0 
z
" transform="scale(0.015625)"/>
      </defs>
      <use xlink:href="#ArialMT-4d"/>
      <use xlink:href="#ArialMT-61" x="83.300781"/>
      <use xlink:href="#ArialMT-78" x="138.916016"/>
      <use xlink:href="#ArialMT-69" x="188.916016"/>
      <use xlink:href="#ArialMT-6d" x="211.132812"/>
      <use xlink:href="#ArialMT-75" x="294.433594"/>
      <use xlink:href="#ArialMT-6d" x="350.048828"/>
      <use xlink:href="#ArialMT-20" x="433.349609"/>
      <use xlink:href="#ArialMT-55" x="461.132812"/>
      <use xlink:href="#ArialMT-70" x="533.349609"/>
      <use xlink:href="#ArialMT-70" x="588.964844"/>
      <use xlink:href="#ArialMT-65" x="644.580078"/>
      <use xlink:href="#ArialMT-72" x="700.195312"/>
      <use xlink:href="#ArialMT-20" x="733.496094"/>
      <use xlink:href="#ArialMT-49" x="761.279297"/>
      <use xlink:href="#ArialMT-6e" x="789.0625"/>
      <use xlink:href="#ArialMT-74" x="844.677734"/>
      <use xlink:href="#ArialMT-65" x="872.460938"/>
      <use xlink:href="#ArialMT-72" x="928.076172"/>
      <use xlink:href="#ArialMT-76" x="961.376953"/>
      <use xlink:href="#ArialMT-61" x="1011.376953"/>
      <use xlink:href="#ArialMT-6c" x="1066.992188"/>
     </g>
    </g>
   </g>
   <g id="line2d_24">
    <path d="M 54.545602 153.464694 
L 57.824941 156.057865 
L 61.10428 159.04488 
L 64.383619 162.437099 
L 67.662958 166.238657 
L 70.942296 170.445427 
L 74.221636 175.044325 
L 77.500973 180.012746 
L 80.780313 185.318125 
L 84.059653 190.918212 
L 87.33899 196.760881 
L 90.61833 202.784924 
L 93.89767 208.920799 
L 97.177007 215.091459 
L 100.456344 221.214751 
L 103.735686 227.203598 
L 107.015024 232.96771 
L 110.294361 238.412414 
L 113.573703 243.330271 
L 116.853041 242.603108 
L 120.132378 240.811085 
L 123.41172 239.57649 
L 126.691057 238.897072 
L 129.970395 238.741555 
L 133.249737 239.058724 
L 136.529069 239.781835 
L 139.808412 240.828685 
L 143.087754 242.103905 
L 146.367086 243.50101 
L 149.646428 244.905014 
L 152.92577 246.188027 
L 156.205103 247.139949 
L 159.484445 244.431356 
L 162.763787 239.561221 
L 166.04312 234.235087 
L 169.322462 228.55418 
L 172.601804 222.592103 
L 175.881137 216.416292 
L 179.160479 210.087556 
L 182.439821 203.657441 
L 185.719153 197.170067 
L 188.998496 190.661366 
L 192.277838 184.155044 
L 195.55717 177.667109 
L 198.836512 171.205177 
L 202.115855 164.767661 
L 205.395187 158.348736 
L 208.674529 151.932922 
L 211.953871 145.510275 
L 215.233204 139.062416 
L 218.512556 132.574746 
L 221.791879 126.035561 
L 225.071221 119.440806 
L 228.350563 112.783926 
L 231.629886 106.075026 
L 234.909247 99.317083 
L 238.18857 92.513008 
L 241.467912 85.612656 
L 244.747254 78.621531 
L 248.026597 71.834686 
L 251.305939 65.433549 
L 254.585262 59.479833 
L 257.864623 53.995393 
L 261.143946 48.985799 
L 264.423288 44.470462 
L 267.70263 40.505391 
L 270.981953 37.189201 
L 274.261315 34.64044 
L 277.540637 32.95484 
L 280.81998 32.197276 
L 284.099322 32.196 
L 287.378664 32.762139 
L 290.658006 34.179473 
L 293.937329 36.5195 
L 297.21669 39.838468 
L 300.496013 44.16456 
L 303.775355 49.519301 
L 307.054697 55.918869 
L 310.33402 63.36482 
L 313.613382 71.844949 
L 316.892705 81.339356 
L 320.172047 91.810297 
L 323.451389 103.202867 
L 326.730731 115.461456 
L 330.010073 128.505367 
L 333.289396 142.242205 
L 336.568738 156.570521 
L 339.84808 171.380569 
L 343.127423 186.551938 
L 346.406765 201.950828 
L 349.686088 217.449616 
L 352.96543 232.902715 
L 356.244772 247.796514 
L 359.524114 255.997866 
L 362.803456 262.292804 
L 366.082798 267.239648 
L 369.362141 270.839852 
L 372.641463 273.116322 
L 375.920806 274.116 
L 379.200148 273.90364 
" clip-path="url(#pf45bb73323)" style="fill: none; stroke: #ff7f0e; stroke-width: 1.2; stroke-linecap: round"/>
   </g>
   <g id="line2d_25">
    <path d="M 284.099322 255.379845 
L 284.099322 253.125463 
L 284.099322 250.871081 
L 284.099322 248.616698 
L 284.099322 246.362316 
L 284.099322 244.107934 
L 284.099322 241.853551 
L 284.099322 239.599168 
L 284.099322 237.344787 
L 284.099322 235.090405 
L 284.099322 232.836022 
L 284.099322 230.581639 
L 284.099322 228.327257 
L 284.099322 226.072876 
L 284.099322 223.818491 
L 284.099322 221.564109 
L 284.099322 219.309728 
L 284.099322 217.055346 
L 284.099322 214.800965 
L 284.099322 212.54658 
L 284.099322 210.292199 
L 284.099322 208.037817 
L 284.099322 205.783432 
L 284.099322 203.529051 
L 284.099322 201.274669 
L 284.099322 199.020284 
L 284.099322 196.765906 
L 284.099322 194.511521 
L 284.099322 192.257137 
L 284.099322 190.002758 
L 284.099322 187.748374 
L 284.099322 185.493995 
L 284.099322 183.239611 
L 284.099322 180.985226 
L 284.099322 178.730848 
L 284.099322 176.476463 
L 284.099322 174.222085 
L 284.099322 171.9677 
L 284.099322 169.713315 
L 284.099322 167.458937 
L 284.099322 165.204552 
L 284.099322 162.950167 
L 284.099322 160.695789 
L 284.099322 158.441404 
L 284.099322 156.187019 
L 284.099322 153.932641 
L 284.099322 151.678256 
L 284.099322 149.423878 
L 284.099322 147.169493 
L 284.099322 144.915108 
L 284.099322 142.660737 
L 284.099322 140.406352 
L 284.099322 138.151967 
L 284.099322 135.897596 
L 284.099322 133.643198 
L 284.099322 131.388826 
L 284.099322 129.134441 
L 284.099322 126.880056 
L 284.099322 124.625685 
L 284.099322 122.371287 
L 284.099322 120.116915 
L 284.099322 117.86253 
L 284.099322 115.608146 
L 284.099322 113.353761 
L 284.099322 111.099376 
L 284.099322 108.845004 
L 284.099322 106.59062 
L 284.099322 104.336235 
L 284.099322 102.08185 
L 284.099322 99.827465 
L 284.099322 97.573094 
L 284.099322 95.318709 
L 284.099322 93.064324 
L 284.099322 90.809939 
L 284.099322 88.555554 
L 284.099322 86.301183 
L 284.099322 84.046798 
L 284.099322 81.792413 
L 284.099322 79.538028 
L 284.099322 77.283643 
L 284.099322 75.029272 
L 284.099322 72.774874 
L 284.099322 70.520502 
L 284.099322 68.266117 
L 284.099322 66.011733 
L 284.099322 63.757361 
L 284.099322 61.502963 
L 284.099322 59.248591 
L 284.099322 56.994207 
L 284.099322 54.739822 
L 284.099322 52.485437 
L 284.099322 50.231052 
L 284.099322 47.97668 
L 284.099322 45.722296 
L 284.099322 43.467911 
L 284.099322 41.213526 
L 284.099322 38.959141 
L 284.099322 36.70477 
L 284.099322 34.450385 
L 284.099322 32.196 
" clip-path="url(#pf45bb73323)" style="fill: none; stroke: #ff7f0e; stroke-linecap: round"/>
   </g>
   <g id="patch_7">
    <path d="M 38.312875 286.212 
L 38.312875 20.1 
" style="fill: none; stroke: #262626; stroke-linejoin: miter; stroke-linecap: square"/>
   </g>
   <g id="patch_8">
    <path d="M 395.432875 286.212 
L 395.432875 20.1 
" style="fill: none; stroke: #262626; stroke-linejoin: miter; stroke-linecap: square"/>
   </g>
   <g id="patch_9">
    <path d="M 38.312875 286.212 
L 395.432875 286.212 
" style="fill: none; stroke: #262626; stroke-linejoin: miter; stroke-linecap: square"/>
   </g>
   <g id="patch_10">
    <path d="M 38.312875 20.1 
L 395.432875 20.1 
" style="fill: none; stroke: #262626; stroke-linejoin: miter; stroke-linecap: square"/>
   </g>
  </g>
 </g>
 <defs>
  <clipPath id="pf45bb73323">
   <rect x="38.312875" y="20.1" width="357.12" height="266.112"/>
  </clipPath>
 </defs>
</svg>