<?xml version="1.0" encoding="utf-8" standalone="no"?>
<!DOCTYPE svg PUBLIC "-//W3C//DTD SVG 1.1//EN"
  "http://www.w3.org/Graphics/SVG/1.1/DTD/svg11.dtd">
<svg xmlns:xlink="http://www.w3.org/1999/xlink" width="409.97125pt" height="322.627875pt" viewBox="0 0 409.97125 322.627875" xmlns="http://www.w3.org/2000/svg" version="1.1">
 <metadata>
  <rdf:RDF xmlns:dc="http://purl.org/dc/elements/1.1/" xmlns:cc="http://creativecommons.org/ns#" xmlns:rdf="http://www.w3.org/1999/02/22-rdf-syntax-ns#">
   <cc:Work>
    <dc:type rdf:resource="http://purl.org/dc/dcmitype/StillImage"/>
    <dc:date>2023-10-16T21:49:36.575614</dc:date>
    <dc:format>image/svg+xml</dc:format>
    <dc:creator>
     <cc:Agent>
      <dc:title>Matplotlib v3.7.1, https://matplotlib.org/</dc:title>
     </cc:Agent>
    </dc:creator>
   </cc:Work>
  </rdf:RDF>
 </metadata>
 <defs>
  <style type="text/css">*{stroke-linejoin: round; stroke-linecap: butt}</style>
 </defs>
 <g id="figure_1">
  <g id="patch_1">
   <path d="M 0 322.627875 
L 409.97125 322.627875 
L 409.97125 0 
L 0 0 
z
" style="fill: #ffffff"/>
  </g>
  <g id="axes_1">
   <g id="patch_2">
    <path d="M 45.65125 286.3005 
L 402.77125 286.3005 
L 402.77125 20.1885 
L 45.65125 20.1885 
z
" style="fill: #ffffff"/>
   </g>
   <g id="matplotlib.axis_1">
    <g id="xtick_1">
     <g id="line2d_1">
      <defs>
       <path id="m62781330b8" d="M 0 0 
L 0 4.8 
" style="stroke: #262626"/>
      </defs>
      <g>
       <use xlink:href="#m62781330b8" x="61.598738" y="286.3005" style="fill: #262626; stroke: #262626"/>
      </g>
     </g>
     <g id="text_1">
      <!-- −1.0 -->
      <g style="fill: #262626" transform="translate(52.912863 300.899375) scale(0.088 -0.088)">
       <defs>
        <path id="ArialMT-2212" d="M 3381 1997 
L 356 1997 
L 356 2522 
L 3381 2522 
L 3381 1997 
z
" transform="scale(0.015625)"/>
        <path id="ArialMT-31" d="M 2384 0 
L 1822 0 
L 1822 3584 
Q 1619 3391 1289 3197 
Q 959 3003 697 2906 
L 697 3450 
Q 1169 3672 1522 3987 
Q 1875 4303 2022 4600 
L 2384 4600 
L 2384 0 
z
" transform="scale(0.015625)"/>
        <path id="ArialMT-2e" d="M 581 0 
L 581 641 
L 1222 641 
L 1222 0 
L 581 0 
z
" transform="scale(0.015625)"/>
        <path id="ArialMT-30" d="M 266 2259 
Q 266 3072 433 3567 
Q 600 4063 929 4331 
Q 1259 4600 1759 4600 
Q 2128 4600 2406 4451 
Q 2684 4303 2865 4023 
Q 3047 3744 3150 3342 
Q 3253 2941 3253 2259 
Q 3253 1453 3087 958 
Q 2922 463 2592 192 
Q 2263 -78 1759 -78 
Q 1097 -78 719 397 
Q 266 969 266 2259 
z
M 844 2259 
Q 844 1131 1108 757 
Q 1372 384 1759 384 
Q 2147 384 2411 759 
Q 2675 1134 2675 2259 
Q 2675 3391 2411 3762 
Q 2147 4134 1753 4134 
Q 1366 4134 1134 3806 
Q 844 3388 844 2259 
z
" transform="scale(0.015625)"/>
       </defs>
       <use xlink:href="#ArialMT-2212"/>
       <use xlink:href="#ArialMT-31" x="58.398438"/>
       <use xlink:href="#ArialMT-2e" x="114.013672"/>
       <use xlink:href="#ArialMT-30" x="141.796875"/>
      </g>
     </g>
    </g>
    <g id="xtick_2">
     <g id="line2d_2">
      <g>
       <use xlink:href="#m62781330b8" x="107.131393" y="286.3005" style="fill: #262626; stroke: #262626"/>
      </g>
     </g>
     <g id="text_2">
      <!-- −0.5 -->
      <g style="fill: #262626" transform="translate(98.445518 300.899375) scale(0.088 -0.088)">
       <defs>
        <path id="ArialMT-35" d="M 266 1200 
L 856 1250 
Q 922 819 1161 601 
Q 1400 384 1738 384 
Q 2144 384 2425 690 
Q 2706 997 2706 1503 
Q 2706 1984 2436 2262 
Q 2166 2541 1728 2541 
Q 1456 2541 1237 2417 
Q 1019 2294 894 2097 
L 366 2166 
L 809 4519 
L 3088 4519 
L 3088 3981 
L 1259 3981 
L 1013 2750 
Q 1425 3038 1878 3038 
Q 2478 3038 2890 2622 
Q 3303 2206 3303 1553 
Q 3303 931 2941 478 
Q 2500 -78 1738 -78 
Q 1113 -78 717 272 
Q 322 622 266 1200 
z
" transform="scale(0.015625)"/>
       </defs>
       <use xlink:href="#ArialMT-2212"/>
       <use xlink:href="#ArialMT-30" x="58.398438"/>
       <use xlink:href="#ArialMT-2e" x="114.013672"/>
       <use xlink:href="#ArialMT-35" x="141.796875"/>
      </g>
     </g>
    </g>
    <g id="xtick_3">
     <g id="line2d_3">
      <g>
       <use xlink:href="#m62781330b8" x="152.664048" y="286.3005" style="fill: #262626; stroke: #262626"/>
      </g>
     </g>
     <g id="text_3">
      <!-- 0.0 -->
      <g style="fill: #262626" transform="translate(146.548048 300.899375) scale(0.088 -0.088)">
       <use xlink:href="#ArialMT-30"/>
       <use xlink:href="#ArialMT-2e" x="55.615234"/>
       <use xlink:href="#ArialMT-30" x="83.398438"/>
      </g>
     </g>
    </g>
    <g id="xtick_4">
     <g id="line2d_4">
      <g>
       <use xlink:href="#m62781330b8" x="198.196703" y="286.3005" style="fill: #262626; stroke: #262626"/>
      </g>
     </g>
     <g id="text_4">
      <!-- 0.5 -->
      <g style="fill: #262626" transform="translate(192.080703 300.899375) scale(0.088 -0.088)">
       <use xlink:href="#ArialMT-30"/>
       <use xlink:href="#ArialMT-2e" x="55.615234"/>
       <use xlink:href="#ArialMT-35" x="83.398438"/>
      </g>
     </g>
    </g>
    <g id="xtick_5">
     <g id="line2d_5">
      <g>
       <use xlink:href="#m62781330b8" x="243.729358" y="286.3005" style="fill: #262626; stroke: #262626"/>
      </g>
     </g>
     <g id="text_5">
      <!-- 1.0 -->
      <g style="fill: #262626" transform="translate(237.613358 300.899375) scale(0.088 -0.088)">
       <use xlink:href="#ArialMT-31"/>
       <use xlink:href="#ArialMT-2e" x="55.615234"/>
       <use xlink:href="#ArialMT-30" x="83.398438"/>
      </g>
     </g>
    </g>
    <g id="xtick_6">
     <g id="line2d_6">
      <g>
       <use xlink:href="#m62781330b8" x="289.262013" y="286.3005" style="fill: #262626; stroke: #262626"/>
      </g>
     </g>
     <g id="text_6">
      <!-- 1.5 -->
      <g style="fill: #262626" transform="translate(283.146013 300.899375) scale(0.088 -0.088)">
       <use xlink:href="#ArialMT-31"/>
       <use xlink:href="#ArialMT-2e" x="55.615234"/>
       <use xlink:href="#ArialMT-35" x="83.398438"/>
      </g>
     </g>
    </g>
    <g id="xtick_7">
     <g id="line2d_7">
      <g>
       <use xlink:href="#m62781330b8" x="334.794669" y="286.3005" style="fill: #262626; stroke: #262626"/>
      </g>
     </g>
     <g id="text_7">
      <!-- 2.0 -->
      <g style="fill: #262626" transform="translate(328.678669 300.899375) scale(0.088 -0.088)">
       <defs>
        <path id="ArialMT-32" d="M 3222 541 
L 3222 0 
L 194 0 
Q 188 203 259 391 
Q 375 700 629 1000 
Q 884 1300 1366 1694 
Q 2113 2306 2375 2664 
Q 2638 3022 2638 3341 
Q 2638 3675 2398 3904 
Q 2159 4134 1775 4134 
Q 1369 4134 1125 3890 
Q 881 3647 878 3216 
L 300 3275 
Q 359 3922 746 4261 
Q 1134 4600 1788 4600 
Q 2447 4600 2831 4234 
Q 3216 3869 3216 3328 
Q 3216 3053 3103 2787 
Q 2991 2522 2730 2228 
Q 2469 1934 1863 1422 
Q 1356 997 1212 845 
Q 1069 694 975 541 
L 3222 541 
z
" transform="scale(0.015625)"/>
       </defs>
       <use xlink:href="#ArialMT-32"/>
       <use xlink:href="#ArialMT-2e" x="55.615234"/>
       <use xlink:href="#ArialMT-30" x="83.398438"/>
      </g>
     </g>
    </g>
    <g id="xtick_8">
     <g id="line2d_8">
      <g>
       <use xlink:href="#m62781330b8" x="380.327324" y="286.3005" style="fill: #262626; stroke: #262626"/>
      </g>
     </g>
     <g id="text_8">
      <!-- 2.5 -->
      <g style="fill: #262626" transform="translate(374.211324 300.899375) scale(0.088 -0.088)">
       <use xlink:href="#ArialMT-32"/>
       <use xlink:href="#ArialMT-2e" x="55.615234"/>
       <use xlink:href="#ArialMT-35" x="83.398438"/>
      </g>
     </g>
    </g>
    <g id="text_9">
     <!-- Test labels -->
     <g style="fill: #262626" transform="translate(201.5365 313.519875) scale(0.096 -0.096)">
      <defs>
       <path id="ArialMT-54" d="M 1659 0 
L 1659 4041 
L 150 4041 
L 150 4581 
L 3781 4581 
L 3781 4041 
L 2266 4041 
L 2266 0 
L 1659 0 
z
" transform="scale(0.015625)"/>
       <path id="ArialMT-65" d="M 2694 1069 
L 3275 997 
Q 3138 488 2766 206 
Q 2394 -75 1816 -75 
Q 1088 -75 661 373 
Q 234 822 234 1631 
Q 234 2469 665 2931 
Q 1097 3394 1784 3394 
Q 2450 3394 2872 2941 
Q 3294 2488 3294 1666 
Q 3294 1616 3291 1516 
L 816 1516 
Q 847 969 1125 678 
Q 1403 388 1819 388 
Q 2128 388 2347 550 
Q 2566 713 2694 1069 
z
M 847 1978 
L 2700 1978 
Q 2663 2397 2488 2606 
Q 2219 2931 1791 2931 
Q 1403 2931 1139 2672 
Q 875 2413 847 1978 
z
" transform="scale(0.015625)"/>
       <path id="ArialMT-73" d="M 197 991 
L 753 1078 
Q 800 744 1014 566 
Q 1228 388 1613 388 
Q 2000 388 2187 545 
Q 2375 703 2375 916 
Q 2375 1106 2209 1216 
Q 2094 1291 1634 1406 
Q 1016 1563 777 1677 
Q 538 1791 414 1992 
Q 291 2194 291 2438 
Q 291 2659 392 2848 
Q 494 3038 669 3163 
Q 800 3259 1026 3326 
Q 1253 3394 1513 3394 
Q 1903 3394 2198 3281 
Q 2494 3169 2634 2976 
Q 2775 2784 2828 2463 
L 2278 2388 
Q 2241 2644 2061 2787 
Q 1881 2931 1553 2931 
Q 1166 2931 1000 2803 
Q 834 2675 834 2503 
Q 834 2394 903 2306 
Q 972 2216 1119 2156 
Q 1203 2125 1616 2013 
Q 2213 1853 2448 1751 
Q 2684 1650 2818 1456 
Q 2953 1263 2953 975 
Q 2953 694 2789 445 
Q 2625 197 2315 61 
Q 2006 -75 1616 -75 
Q 969 -75 630 194 
Q 291 463 197 991 
z
" transform="scale(0.015625)"/>
       <path id="ArialMT-74" d="M 1650 503 
L 1731 6 
Q 1494 -44 1306 -44 
Q 1000 -44 831 53 
Q 663 150 594 308 
Q 525 466 525 972 
L 525 2881 
L 113 2881 
L 113 3319 
L 525 3319 
L 525 4141 
L 1084 4478 
L 1084 3319 
L 1650 3319 
L 1650 2881 
L 1084 2881 
L 1084 941 
Q 1084 700 1114 631 
Q 1144 563 1211 522 
Q 1278 481 1403 481 
Q 1497 481 1650 503 
z
" transform="scale(0.015625)"/>
       <path id="ArialMT-20" transform="scale(0.015625)"/>
       <path id="ArialMT-6c" d="M 409 0 
L 409 4581 
L 972 4581 
L 972 0 
L 409 0 
z
" transform="scale(0.015625)"/>
       <path id="ArialMT-61" d="M 2588 409 
Q 2275 144 1986 34 
Q 1697 -75 1366 -75 
Q 819 -75 525 192 
Q 231 459 231 875 
Q 231 1119 342 1320 
Q 453 1522 633 1644 
Q 813 1766 1038 1828 
Q 1203 1872 1538 1913 
Q 2219 1994 2541 2106 
Q 2544 2222 2544 2253 
Q 2544 2597 2384 2738 
Q 2169 2928 1744 2928 
Q 1347 2928 1158 2789 
Q 969 2650 878 2297 
L 328 2372 
Q 403 2725 575 2942 
Q 747 3159 1072 3276 
Q 1397 3394 1825 3394 
Q 2250 3394 2515 3294 
Q 2781 3194 2906 3042 
Q 3031 2891 3081 2659 
Q 3109 2516 3109 2141 
L 3109 1391 
Q 3109 606 3145 398 
Q 3181 191 3288 0 
L 2700 0 
Q 2613 175 2588 409 
z
M 2541 1666 
Q 2234 1541 1622 1453 
Q 1275 1403 1131 1340 
Q 988 1278 909 1158 
Q 831 1038 831 891 
Q 831 666 1001 516 
Q 1172 366 1500 366 
Q 1825 366 2078 508 
Q 2331 650 2450 897 
Q 2541 1088 2541 1459 
L 2541 1666 
z
" transform="scale(0.015625)"/>
       <path id="ArialMT-62" d="M 941 0 
L 419 0 
L 419 4581 
L 981 4581 
L 981 2947 
Q 1338 3394 1891 3394 
Q 2197 3394 2470 3270 
Q 2744 3147 2920 2923 
Q 3097 2700 3197 2384 
Q 3297 2069 3297 1709 
Q 3297 856 2875 390 
Q 2453 -75 1863 -75 
Q 1275 -75 941 416 
L 941 0 
z
M 934 1684 
Q 934 1088 1097 822 
Q 1363 388 1816 388 
Q 2184 388 2453 708 
Q 2722 1028 2722 1663 
Q 2722 2313 2464 2622 
Q 2206 2931 1841 2931 
Q 1472 2931 1203 2611 
Q 934 2291 934 1684 
z
" transform="scale(0.015625)"/>
      </defs>
      <use xlink:href="#ArialMT-54"/>
      <use xlink:href="#ArialMT-65" x="49.958984"/>
      <use xlink:href="#ArialMT-73" x="105.574219"/>
      <use xlink:href="#ArialMT-74" x="155.574219"/>
      <use xlink:href="#ArialMT-20" x="183.357422"/>
      <use xlink:href="#ArialMT-6c" x="211.140625"/>
      <use xlink:href="#ArialMT-61" x="233.357422"/>
      <use xlink:href="#ArialMT-62" x="288.972656"/>
      <use xlink:href="#ArialMT-65" x="344.587891"/>
      <use xlink:href="#ArialMT-6c" x="400.203125"/>
      <use xlink:href="#ArialMT-73" x="422.419922"/>
     </g>
    </g>
   </g>
   <g id="matplotlib.axis_2">
    <g id="ytick_1">
     <g id="line2d_9">
      <defs>
       <path id="m90fbfce4b6" d="M 0 0 
L -4.8 0 
" style="stroke: #262626"/>
      </defs>
      <g>
       <use xlink:href="#m90fbfce4b6" x="45.65125" y="274.41705" style="fill: #262626; stroke: #262626"/>
      </g>
     </g>
     <g id="text_10">
      <!-- −1.0 -->
      <g style="fill: #262626" transform="translate(19.9795 277.566487) scale(0.088 -0.088)">
       <use xlink:href="#ArialMT-2212"/>
       <use xlink:href="#ArialMT-31" x="58.398438"/>
       <use xlink:href="#ArialMT-2e" x="114.013672"/>
       <use xlink:href="#ArialMT-30" x="141.796875"/>
      </g>
     </g>
    </g>
    <g id="ytick_2">
     <g id="line2d_10">
      <g>
       <use xlink:href="#m90fbfce4b6" x="45.65125" y="240.487877" style="fill: #262626; stroke: #262626"/>
      </g>
     </g>
     <g id="text_11">
      <!-- −0.5 -->
      <g style="fill: #262626" transform="translate(19.9795 243.637315) scale(0.088 -0.088)">
       <use xlink:href="#ArialMT-2212"/>
       <use xlink:href="#ArialMT-30" x="58.398438"/>
       <use xlink:href="#ArialMT-2e" x="114.013672"/>
       <use xlink:href="#ArialMT-35" x="141.796875"/>
      </g>
     </g>
    </g>
    <g id="ytick_3">
     <g id="line2d_11">
      <g>
       <use xlink:href="#m90fbfce4b6" x="45.65125" y="206.558705" style="fill: #262626; stroke: #262626"/>
      </g>
     </g>
     <g id="text_12">
      <!-- 0.0 -->
      <g style="fill: #262626" transform="translate(25.11925 209.708143) scale(0.088 -0.088)">
       <use xlink:href="#ArialMT-30"/>
       <use xlink:href="#ArialMT-2e" x="55.615234"/>
       <use xlink:href="#ArialMT-30" x="83.398438"/>
      </g>
     </g>
    </g>
    <g id="ytick_4">
     <g id="line2d_12">
      <g>
       <use xlink:href="#m90fbfce4b6" x="45.65125" y="172.629533" style="fill: #262626; stroke: #262626"/>
      </g>
     </g>
     <g id="text_13">
      <!-- 0.5 -->
      <g style="fill: #262626" transform="translate(25.11925 175.778971) scale(0.088 -0.088)">
       <use xlink:href="#ArialMT-30"/>
       <use xlink:href="#ArialMT-2e" x="55.615234"/>
       <use xlink:href="#ArialMT-35" x="83.398438"/>
      </g>
     </g>
    </g>
    <g id="ytick_5">
     <g id="line2d_13">
      <g>
       <use xlink:href="#m90fbfce4b6" x="45.65125" y="138.700361" style="fill: #262626; stroke: #262626"/>
      </g>
     </g>
     <g id="text_14">
      <!-- 1.0 -->
      <g style="fill: #262626" transform="translate(25.11925 141.849799) scale(0.088 -0.088)">
       <use xlink:href="#ArialMT-31"/>
       <use xlink:href="#ArialMT-2e" x="55.615234"/>
       <use xlink:href="#ArialMT-30" x="83.398438"/>
      </g>
     </g>
    </g>
    <g id="ytick_6">
     <g id="line2d_14">
      <g>
       <use xlink:href="#m90fbfce4b6" x="45.65125" y="104.771189" style="fill: #262626; stroke: #262626"/>
      </g>
     </g>
     <g id="text_15">
      <!-- 1.5 -->
      <g style="fill: #262626" transform="translate(25.11925 107.920627) scale(0.088 -0.088)">
       <use xlink:href="#ArialMT-31"/>
       <use xlink:href="#ArialMT-2e" x="55.615234"/>
       <use xlink:href="#ArialMT-35" x="83.398438"/>
      </g>
     </g>
    </g>
    <g id="ytick_7">
     <g id="line2d_15">
      <g>
       <use xlink:href="#m90fbfce4b6" x="45.65125" y="70.842017" style="fill: #262626; stroke: #262626"/>
      </g>
     </g>
     <g id="text_16">
      <!-- 2.0 -->
      <g style="fill: #262626" transform="translate(25.11925 73.991455) scale(0.088 -0.088)">
       <use xlink:href="#ArialMT-32"/>
       <use xlink:href="#ArialMT-2e" x="55.615234"/>
       <use xlink:href="#ArialMT-30" x="83.398438"/>
      </g>
     </g>
    </g>
    <g id="ytick_8">
     <g id="line2d_16">
      <g>
       <use xlink:href="#m90fbfce4b6" x="45.65125" y="36.912845" style="fill: #262626; stroke: #262626"/>
      </g>
     </g>
     <g id="text_17">
      <!-- 2.5 -->
      <g style="fill: #262626" transform="translate(25.11925 40.062283) scale(0.088 -0.088)">
       <use xlink:href="#ArialMT-32"/>
       <use xlink:href="#ArialMT-2e" x="55.615234"/>
       <use xlink:href="#ArialMT-35" x="83.398438"/>
      </g>
     </g>
    </g>
    <g id="text_18">
     <!-- Predictions -->
     <g style="fill: #262626" transform="translate(14.0715 176.988) rotate(-90) scale(0.096 -0.096)">
      <defs>
       <path id="ArialMT-50" d="M 494 0 
L 494 4581 
L 2222 4581 
Q 2678 4581 2919 4538 
Q 3256 4481 3484 4323 
Q 3713 4166 3852 3881 
Q 3991 3597 3991 3256 
Q 3991 2672 3619 2267 
Q 3247 1863 2275 1863 
L 1100 1863 
L 1100 0 
L 494 0 
z
M 1100 2403 
L 2284 2403 
Q 2872 2403 3119 2622 
Q 3366 2841 3366 3238 
Q 3366 3525 3220 3729 
Q 3075 3934 2838 4000 
Q 2684 4041 2272 4041 
L 1100 4041 
L 1100 2403 
z
" transform="scale(0.015625)"/>
       <path id="ArialMT-72" d="M 416 0 
L 416 3319 
L 922 3319 
L 922 2816 
Q 1116 3169 1280 3281 
Q 1444 3394 1641 3394 
Q 1925 3394 2219 3213 
L 2025 2691 
Q 1819 2813 1613 2813 
Q 1428 2813 1281 2702 
Q 1134 2591 1072 2394 
Q 978 2094 978 1738 
L 978 0 
L 416 0 
z
" transform="scale(0.015625)"/>
       <path id="ArialMT-64" d="M 2575 0 
L 2575 419 
Q 2259 -75 1647 -75 
Q 1250 -75 917 144 
Q 584 363 401 755 
Q 219 1147 219 1656 
Q 219 2153 384 2558 
Q 550 2963 881 3178 
Q 1213 3394 1622 3394 
Q 1922 3394 2156 3267 
Q 2391 3141 2538 2938 
L 2538 4581 
L 3097 4581 
L 3097 0 
L 2575 0 
z
M 797 1656 
Q 797 1019 1065 703 
Q 1334 388 1700 388 
Q 2069 388 2326 689 
Q 2584 991 2584 1609 
Q 2584 2291 2321 2609 
Q 2059 2928 1675 2928 
Q 1300 2928 1048 2622 
Q 797 2316 797 1656 
z
" transform="scale(0.015625)"/>
       <path id="ArialMT-69" d="M 425 3934 
L 425 4581 
L 988 4581 
L 988 3934 
L 425 3934 
z
M 425 0 
L 425 3319 
L 988 3319 
L 988 0 
L 425 0 
z
" transform="scale(0.015625)"/>
       <path id="ArialMT-63" d="M 2588 1216 
L 3141 1144 
Q 3050 572 2676 248 
Q 2303 -75 1759 -75 
Q 1078 -75 664 370 
Q 250 816 250 1647 
Q 250 2184 428 2587 
Q 606 2991 970 3192 
Q 1334 3394 1763 3394 
Q 2303 3394 2647 3120 
Q 2991 2847 3088 2344 
L 2541 2259 
Q 2463 2594 2264 2762 
Q 2066 2931 1784 2931 
Q 1359 2931 1093 2626 
Q 828 2322 828 1663 
Q 828 994 1084 691 
Q 1341 388 1753 388 
Q 2084 388 2306 591 
Q 2528 794 2588 1216 
z
" transform="scale(0.015625)"/>
       <path id="ArialMT-6f" d="M 213 1659 
Q 213 2581 725 3025 
Q 1153 3394 1769 3394 
Q 2453 3394 2887 2945 
Q 3322 2497 3322 1706 
Q 3322 1066 3130 698 
Q 2938 331 2570 128 
Q 2203 -75 1769 -75 
Q 1072 -75 642 372 
Q 213 819 213 1659 
z
M 791 1659 
Q 791 1022 1069 705 
Q 1347 388 1769 388 
Q 2188 388 2466 706 
Q 2744 1025 2744 1678 
Q 2744 2294 2464 2611 
Q 2184 2928 1769 2928 
Q 1347 2928 1069 2612 
Q 791 2297 791 1659 
z
" transform="scale(0.015625)"/>
       <path id="ArialMT-6e" d="M 422 0 
L 422 3319 
L 928 3319 
L 928 2847 
Q 1294 3394 1984 3394 
Q 2284 3394 2536 3286 
Q 2788 3178 2913 3003 
Q 3038 2828 3088 2588 
Q 3119 2431 3119 2041 
L 3119 0 
L 2556 0 
L 2556 2019 
Q 2556 2363 2490 2533 
Q 2425 2703 2258 2804 
Q 2091 2906 1866 2906 
Q 1506 2906 1245 2678 
Q 984 2450 984 1813 
L 984 0 
L 422 0 
z
" transform="scale(0.015625)"/>
      </defs>
      <use xlink:href="#ArialMT-50"/>
      <use xlink:href="#ArialMT-72" x="66.699219"/>
      <use xlink:href="#ArialMT-65" x="100"/>
      <use xlink:href="#ArialMT-64" x="155.615234"/>
      <use xlink:href="#ArialMT-69" x="211.230469"/>
      <use xlink:href="#ArialMT-63" x="233.447266"/>
      <use xlink:href="#ArialMT-74" x="283.447266"/>
      <use xlink:href="#ArialMT-69" x="311.230469"/>
      <use xlink:href="#ArialMT-6f" x="333.447266"/>
      <use xlink:href="#ArialMT-6e" x="389.0625"/>
      <use xlink:href="#ArialMT-73" x="444.677734"/>
     </g>
    </g>
   </g>
   <g id="line2d_17">
    <path d="M 61.883977 274.2045 
L 65.163316 271.760864 
L 68.442655 269.317227 
L 71.721994 266.873591 
L 75.001333 264.429955 
L 78.280671 261.986318 
L 81.56001 259.542682 
L 84.839349 257.099045 
L 88.118688 254.655409 
L 91.398027 252.211773 
L 94.677366 249.768136 
L 97.956705 247.3245 
L 101.236043 244.880864 
L 104.515382 242.437227 
L 107.794721 239.993591 
L 111.07406 237.549955 
L 114.353399 235.106318 
L 117.632738 232.662682 
L 120.912076 230.219045 
L 124.191415 227.775409 
L 127.470754 225.331773 
L 130.750093 222.888136 
L 134.029432 220.4445 
L 137.308771 218.000864 
L 140.58811 215.557227 
L 143.867448 213.113591 
L 147.146787 210.669955 
L 150.426126 208.226318 
L 153.705465 205.782682 
L 156.984804 203.339045 
L 160.264143 200.895409 
L 163.543481 198.451773 
L 166.82282 196.008136 
L 170.102159 193.5645 
L 173.381498 191.120864 
L 176.660837 188.677227 
L 179.940176 186.233591 
L 183.219514 183.789955 
L 186.498853 181.346318 
L 189.778192 178.902682 
L 193.057531 176.459045 
L 196.33687 174.015409 
L 199.616209 171.571773 
L 202.895548 169.128136 
L 206.174886 166.6845 
L 209.454225 164.240864 
L 212.733564 161.797227 
L 216.012903 159.353591 
L 219.292242 156.909955 
L 222.571581 154.466318 
L 225.850919 152.022682 
L 229.130258 149.579045 
L 232.409597 147.135409 
L 235.688936 144.691773 
L 238.968275 142.248136 
L 242.247614 139.8045 
L 245.526952 137.360864 
L 248.806291 134.917227 
L 252.08563 132.473591 
L 255.364969 130.029955 
L 258.644308 127.586318 
L 261.923647 125.142682 
L 265.202986 122.699045 
L 268.482324 120.255409 
L 271.761663 117.811773 
L 275.041002 115.368136 
L 278.320341 112.9245 
L 281.59968 110.480864 
L 284.879019 108.037227 
L 288.158357 105.593591 
L 291.437696 103.149955 
L 294.717035 100.706318 
L 297.996374 98.262682 
L 301.275713 95.819045 
L 304.555052 93.375409 
L 307.83439 90.931773 
L 311.113729 88.488136 
L 314.393068 86.0445 
L 317.672407 83.600864 
L 320.951746 81.157227 
L 324.231085 78.713591 
L 327.510424 76.269955 
L 330.789762 73.826318 
L 334.069101 71.382682 
L 337.34844 68.939045 
L 340.627779 66.495409 
L 343.907118 64.051773 
L 347.186457 61.608136 
L 350.465795 59.1645 
L 353.745134 56.720864 
L 357.024473 54.277227 
L 360.303812 51.833591 
L 363.583151 49.389955 
L 366.86249 46.946318 
L 370.141829 44.502682 
L 373.421167 42.059045 
L 376.700506 39.615409 
L 379.979845 37.171773 
L 383.259184 34.728136 
L 386.538523 32.2845 
" clip-path="url(#pa7763598ea)" style="fill: none; stroke-dasharray: 4.44,1.92; stroke-dashoffset: 0; stroke: #ff0000; stroke-width: 1.2"/>
   </g>
   <g id="line2d_18">
    <defs>
     <path id="md10febdc78" d="M 0 2.4 
C 0.636487 2.4 1.246992 2.147121 1.697056 1.697056 
C 2.147121 1.246992 2.4 0.636487 2.4 0 
C 2.4 -0.636487 2.147121 -1.246992 1.697056 -1.697056 
C 1.246992 -2.147121 0.636487 -2.4 0 -2.4 
C -0.636487 -2.4 -1.246992 -2.147121 -1.697056 -1.697056 
C -2.147121 -1.246992 -2.4 -0.636487 -2.4 0 
C -2.4 0.636487 -2.147121 1.246992 -1.697056 1.697056 
C -1.246992 2.147121 -0.636487 2.4 0 2.4 
z
" style="stroke: #1f77b4"/>
    </defs>
    <g clip-path="url(#pa7763598ea)">
     <use xlink:href="#md10febdc78" x="174.770972" y="190.267315" style="fill: #1f77b4; stroke: #1f77b4"/>
     <use xlink:href="#md10febdc78" x="106.251942" y="240.510819" style="fill: #1f77b4; stroke: #1f77b4"/>
     <use xlink:href="#md10febdc78" x="167.102333" y="194.264098" style="fill: #1f77b4; stroke: #1f77b4"/>
     <use xlink:href="#md10febdc78" x="138.711008" y="221.359392" style="fill: #1f77b4; stroke: #1f77b4"/>
     <use xlink:href="#md10febdc78" x="85.607269" y="257.251751" style="fill: #1f77b4; stroke: #1f77b4"/>
     <use xlink:href="#md10febdc78" x="177.820968" y="188.09704" style="fill: #1f77b4; stroke: #1f77b4"/>
     <use xlink:href="#md10febdc78" x="122.970583" y="228.202589" style="fill: #1f77b4; stroke: #1f77b4"/>
     <use xlink:href="#md10febdc78" x="164.508963" y="195.628803" style="fill: #1f77b4; stroke: #1f77b4"/>
     <use xlink:href="#md10febdc78" x="221.851018" y="154.128522" style="fill: #1f77b4; stroke: #1f77b4"/>
     <use xlink:href="#md10febdc78" x="188.978516" y="178.981061" style="fill: #1f77b4; stroke: #1f77b4"/>
     <use xlink:href="#md10febdc78" x="106.790499" y="240.705481" style="fill: #1f77b4; stroke: #1f77b4"/>
     <use xlink:href="#md10febdc78" x="248.054818" y="136.46191" style="fill: #1f77b4; stroke: #1f77b4"/>
     <use xlink:href="#md10febdc78" x="269.084359" y="118.221667" style="fill: #1f77b4; stroke: #1f77b4"/>
     <use xlink:href="#md10febdc78" x="129.530946" y="223.169334" style="fill: #1f77b4; stroke: #1f77b4"/>
     <use xlink:href="#md10febdc78" x="71.628635" y="264.272008" style="fill: #1f77b4; stroke: #1f77b4"/>
     <use xlink:href="#md10febdc78" x="168.353258" y="194.160555" style="fill: #1f77b4; stroke: #1f77b4"/>
     <use xlink:href="#md10febdc78" x="287.135979" y="109.076695" style="fill: #1f77b4; stroke: #1f77b4"/>
     <use xlink:href="#md10febdc78" x="158.594347" y="202.317721" style="fill: #1f77b4; stroke: #1f77b4"/>
     <use xlink:href="#md10febdc78" x="91.666258" y="254.17547" style="fill: #1f77b4; stroke: #1f77b4"/>
     <use xlink:href="#md10febdc78" x="285.953988" y="109.002143" style="fill: #1f77b4; stroke: #1f77b4"/>
     <use xlink:href="#md10febdc78" x="77.457096" y="262.468278" style="fill: #1f77b4; stroke: #1f77b4"/>
     <use xlink:href="#md10febdc78" x="72.962171" y="266.641086" style="fill: #1f77b4; stroke: #1f77b4"/>
     <use xlink:href="#md10febdc78" x="117.628043" y="232.314306" style="fill: #1f77b4; stroke: #1f77b4"/>
     <use xlink:href="#md10febdc78" x="189.731985" y="178.840241" style="fill: #1f77b4; stroke: #1f77b4"/>
     <use xlink:href="#md10febdc78" x="70.102471" y="267.204363" style="fill: #1f77b4; stroke: #1f77b4"/>
     <use xlink:href="#md10febdc78" x="117.663993" y="229.889315" style="fill: #1f77b4; stroke: #1f77b4"/>
     <use xlink:href="#md10febdc78" x="222.654806" y="154.035333" style="fill: #1f77b4; stroke: #1f77b4"/>
     <use xlink:href="#md10febdc78" x="233.469267" y="148.299016" style="fill: #1f77b4; stroke: #1f77b4"/>
     <use xlink:href="#md10febdc78" x="109.103873" y="238.626325" style="fill: #1f77b4; stroke: #1f77b4"/>
     <use xlink:href="#md10febdc78" x="386.538523" y="33.030121" style="fill: #1f77b4; stroke: #1f77b4"/>
     <use xlink:href="#md10febdc78" x="66.460869" y="269.775351" style="fill: #1f77b4; stroke: #1f77b4"/>
     <use xlink:href="#md10febdc78" x="73.763563" y="263.489218" style="fill: #1f77b4; stroke: #1f77b4"/>
     <use xlink:href="#md10febdc78" x="113.976964" y="235.491024" style="fill: #1f77b4; stroke: #1f77b4"/>
     <use xlink:href="#md10febdc78" x="66.769024" y="273.158121" style="fill: #1f77b4; stroke: #1f77b4"/>
     <use xlink:href="#md10febdc78" x="212.349963" y="164.791443" style="fill: #1f77b4; stroke: #1f77b4"/>
     <use xlink:href="#md10febdc78" x="197.166676" y="171.325046" style="fill: #1f77b4; stroke: #1f77b4"/>
     <use xlink:href="#md10febdc78" x="318.923899" y="82.105653" style="fill: #1f77b4; stroke: #1f77b4"/>
     <use xlink:href="#md10febdc78" x="92.100224" y="251.612765" style="fill: #1f77b4; stroke: #1f77b4"/>
     <use xlink:href="#md10febdc78" x="134.737651" y="221.670022" style="fill: #1f77b4; stroke: #1f77b4"/>
     <use xlink:href="#md10febdc78" x="165.891273" y="201.408608" style="fill: #1f77b4; stroke: #1f77b4"/>
     <use xlink:href="#md10febdc78" x="112.166051" y="237.868386" style="fill: #1f77b4; stroke: #1f77b4"/>
     <use xlink:href="#md10febdc78" x="67.035993" y="269.411913" style="fill: #1f77b4; stroke: #1f77b4"/>
     <use xlink:href="#md10febdc78" x="260.351461" y="128.807966" style="fill: #1f77b4; stroke: #1f77b4"/>
     <use xlink:href="#md10febdc78" x="66.245277" y="270.952642" style="fill: #1f77b4; stroke: #1f77b4"/>
     <use xlink:href="#md10febdc78" x="160.38433" y="200.671377" style="fill: #1f77b4; stroke: #1f77b4"/>
     <use xlink:href="#md10febdc78" x="112.813497" y="233.991713" style="fill: #1f77b4; stroke: #1f77b4"/>
     <use xlink:href="#md10febdc78" x="215.72251" y="158.837685" style="fill: #1f77b4; stroke: #1f77b4"/>
     <use xlink:href="#md10febdc78" x="91.179571" y="251.345623" style="fill: #1f77b4; stroke: #1f77b4"/>
     <use xlink:href="#md10febdc78" x="237.459464" y="145.420504" style="fill: #1f77b4; stroke: #1f77b4"/>
     <use xlink:href="#md10febdc78" x="214.608805" y="160.780164" style="fill: #1f77b4; stroke: #1f77b4"/>
     <use xlink:href="#md10febdc78" x="270.540257" y="120.160003" style="fill: #1f77b4; stroke: #1f77b4"/>
     <use xlink:href="#md10febdc78" x="175.227071" y="189.207028" style="fill: #1f77b4; stroke: #1f77b4"/>
     <use xlink:href="#md10febdc78" x="88.163647" y="255.098043" style="fill: #1f77b4; stroke: #1f77b4"/>
     <use xlink:href="#md10febdc78" x="61.883977" y="273.106349" style="fill: #1f77b4; stroke: #1f77b4"/>
     <use xlink:href="#md10febdc78" x="240.481162" y="147.209737" style="fill: #1f77b4; stroke: #1f77b4"/>
     <use xlink:href="#md10febdc78" x="115.633595" y="233.888169" style="fill: #1f77b4; stroke: #1f77b4"/>
     <use xlink:href="#md10febdc78" x="186.525028" y="180.326092" style="fill: #1f77b4; stroke: #1f77b4"/>
     <use xlink:href="#md10febdc78" x="101.884408" y="243.57571" style="fill: #1f77b4; stroke: #1f77b4"/>
     <use xlink:href="#md10febdc78" x="96.079468" y="250.144517" style="fill: #1f77b4; stroke: #1f77b4"/>
     <use xlink:href="#md10febdc78" x="202.151831" y="169.330795" style="fill: #1f77b4; stroke: #1f77b4"/>
     <use xlink:href="#md10febdc78" x="73.680014" y="265.692626" style="fill: #1f77b4; stroke: #1f77b4"/>
     <use xlink:href="#md10febdc78" x="70.278909" y="265.328153" style="fill: #1f77b4; stroke: #1f77b4"/>
     <use xlink:href="#md10febdc78" x="66.93718" y="270.576779" style="fill: #1f77b4; stroke: #1f77b4"/>
     <use xlink:href="#md10febdc78" x="180.228329" y="186.966344" style="fill: #1f77b4; stroke: #1f77b4"/>
     <use xlink:href="#md10febdc78" x="223.82363" y="151.896121" style="fill: #1f77b4; stroke: #1f77b4"/>
     <use xlink:href="#md10febdc78" x="81.01471" y="262.325388" style="fill: #1f77b4; stroke: #1f77b4"/>
     <use xlink:href="#md10febdc78" x="81.365181" y="261.273385" style="fill: #1f77b4; stroke: #1f77b4"/>
     <use xlink:href="#md10febdc78" x="77.693463" y="262.002332" style="fill: #1f77b4; stroke: #1f77b4"/>
     <use xlink:href="#md10febdc78" x="63.408413" y="270.335522" style="fill: #1f77b4; stroke: #1f77b4"/>
     <use xlink:href="#md10febdc78" x="86.003847" y="257.139924" style="fill: #1f77b4; stroke: #1f77b4"/>
     <use xlink:href="#md10febdc78" x="62.160655" y="271.851401" style="fill: #1f77b4; stroke: #1f77b4"/>
     <use xlink:href="#md10febdc78" x="351.720315" y="58.899458" style="fill: #1f77b4; stroke: #1f77b4"/>
     <use xlink:href="#md10febdc78" x="141.08889" y="215.89643" style="fill: #1f77b4; stroke: #1f77b4"/>
     <use xlink:href="#md10febdc78" x="117.776155" y="233.291758" style="fill: #1f77b4; stroke: #1f77b4"/>
     <use xlink:href="#md10febdc78" x="122.244759" y="228.787611" style="fill: #1f77b4; stroke: #1f77b4"/>
     <use xlink:href="#md10febdc78" x="167.509944" y="197.291714" style="fill: #1f77b4; stroke: #1f77b4"/>
     <use xlink:href="#md10febdc78" x="154.847778" y="205.421958" style="fill: #1f77b4; stroke: #1f77b4"/>
     <use xlink:href="#md10febdc78" x="177.10153" y="187.497523" style="fill: #1f77b4; stroke: #1f77b4"/>
     <use xlink:href="#md10febdc78" x="63.756965" y="270.745555" style="fill: #1f77b4; stroke: #1f77b4"/>
     <use xlink:href="#md10febdc78" x="370.843678" y="49.40658" style="fill: #1f77b4; stroke: #1f77b4"/>
     <use xlink:href="#md10febdc78" x="221.289537" y="153.824104" style="fill: #1f77b4; stroke: #1f77b4"/>
     <use xlink:href="#md10febdc78" x="126.18393" y="225.633672" style="fill: #1f77b4; stroke: #1f77b4"/>
     <use xlink:href="#md10febdc78" x="87.454583" y="253.764402" style="fill: #1f77b4; stroke: #1f77b4"/>
     <use xlink:href="#md10febdc78" x="230.425531" y="152.990577" style="fill: #1f77b4; stroke: #1f77b4"/>
     <use xlink:href="#md10febdc78" x="163.110363" y="199.163782" style="fill: #1f77b4; stroke: #1f77b4"/>
     <use xlink:href="#md10febdc78" x="164.8371" y="196.386742" style="fill: #1f77b4; stroke: #1f77b4"/>
     <use xlink:href="#md10febdc78" x="67.120041" y="269.117849" style="fill: #1f77b4; stroke: #1f77b4"/>
     <use xlink:href="#md10febdc78" x="142.006191" y="212.901949" style="fill: #1f77b4; stroke: #1f77b4"/>
     <use xlink:href="#md10febdc78" x="64.721474" y="271.035477" style="fill: #1f77b4; stroke: #1f77b4"/>
     <use xlink:href="#md10febdc78" x="261.466017" y="126.629408" style="fill: #1f77b4; stroke: #1f77b4"/>
     <use xlink:href="#md10febdc78" x="144.994362" y="212.090167" style="fill: #1f77b4; stroke: #1f77b4"/>
     <use xlink:href="#md10febdc78" x="90.636214" y="253.114148" style="fill: #1f77b4; stroke: #1f77b4"/>
     <use xlink:href="#md10febdc78" x="106.608339" y="239.450532" style="fill: #1f77b4; stroke: #1f77b4"/>
     <use xlink:href="#md10febdc78" x="69.918516" y="272.808144" style="fill: #1f77b4; stroke: #1f77b4"/>
     <use xlink:href="#md10febdc78" x="177.952666" y="187.47785" style="fill: #1f77b4; stroke: #1f77b4"/>
     <use xlink:href="#md10febdc78" x="70.687116" y="267.19815" style="fill: #1f77b4; stroke: #1f77b4"/>
     <use xlink:href="#md10febdc78" x="129.794643" y="224.681071" style="fill: #1f77b4; stroke: #1f77b4"/>
     <use xlink:href="#md10febdc78" x="297.955483" y="99.579674" style="fill: #1f77b4; stroke: #1f77b4"/>
     <use xlink:href="#md10febdc78" x="299.359345" y="101.110049" style="fill: #1f77b4; stroke: #1f77b4"/>
     <use xlink:href="#md10febdc78" x="70.767665" y="268.38476" style="fill: #1f77b4; stroke: #1f77b4"/>
    </g>
   </g>
   <g id="patch_3">
    <path d="M 45.65125 274.41705 
L 45.65125 36.912845 
" style="fill: none; stroke: #262626; stroke-linejoin: miter; stroke-linecap: square"/>
   </g>
   <g id="patch_4">
    <path d="M 61.598738 286.3005 
L 380.327324 286.3005 
" style="fill: none; stroke: #262626; stroke-linejoin: miter; stroke-linecap: square"/>
   </g>
   <g id="text_19">
    <!-- Predictions vs True test values (ARD, RMSE = 0.027) -->
    <g style="fill: #262626" transform="translate(110.43775 14.1885) scale(0.096 -0.096)">
     <defs>
      <path id="ArialMT-76" d="M 1344 0 
L 81 3319 
L 675 3319 
L 1388 1331 
Q 1503 1009 1600 663 
Q 1675 925 1809 1294 
L 2547 3319 
L 3125 3319 
L 1869 0 
L 1344 0 
z
" transform="scale(0.015625)"/>
      <path id="ArialMT-75" d="M 2597 0 
L 2597 488 
Q 2209 -75 1544 -75 
Q 1250 -75 995 37 
Q 741 150 617 320 
Q 494 491 444 738 
Q 409 903 409 1263 
L 409 3319 
L 972 3319 
L 972 1478 
Q 972 1038 1006 884 
Q 1059 663 1231 536 
Q 1403 409 1656 409 
Q 1909 409 2131 539 
Q 2353 669 2445 892 
Q 2538 1116 2538 1541 
L 2538 3319 
L 3100 3319 
L 3100 0 
L 2597 0 
z
" transform="scale(0.015625)"/>
      <path id="ArialMT-28" d="M 1497 -1347 
Q 1031 -759 709 28 
Q 388 816 388 1659 
Q 388 2403 628 3084 
Q 909 3875 1497 4659 
L 1900 4659 
Q 1522 4009 1400 3731 
Q 1209 3300 1100 2831 
Q 966 2247 966 1656 
Q 966 153 1900 -1347 
L 1497 -1347 
z
" transform="scale(0.015625)"/>
      <path id="ArialMT-41" d="M -9 0 
L 1750 4581 
L 2403 4581 
L 4278 0 
L 3588 0 
L 3053 1388 
L 1138 1388 
L 634 0 
L -9 0 
z
M 1313 1881 
L 2866 1881 
L 2388 3150 
Q 2169 3728 2063 4100 
Q 1975 3659 1816 3225 
L 1313 1881 
z
" transform="scale(0.015625)"/>
      <path id="ArialMT-52" d="M 503 0 
L 503 4581 
L 2534 4581 
Q 3147 4581 3465 4457 
Q 3784 4334 3975 4021 
Q 4166 3709 4166 3331 
Q 4166 2844 3850 2509 
Q 3534 2175 2875 2084 
Q 3116 1969 3241 1856 
Q 3506 1613 3744 1247 
L 4541 0 
L 3778 0 
L 3172 953 
Q 2906 1366 2734 1584 
Q 2563 1803 2427 1890 
Q 2291 1978 2150 2013 
Q 2047 2034 1813 2034 
L 1109 2034 
L 1109 0 
L 503 0 
z
M 1109 2559 
L 2413 2559 
Q 2828 2559 3062 2645 
Q 3297 2731 3419 2920 
Q 3541 3109 3541 3331 
Q 3541 3656 3305 3865 
Q 3069 4075 2559 4075 
L 1109 4075 
L 1109 2559 
z
" transform="scale(0.015625)"/>
      <path id="ArialMT-44" d="M 494 0 
L 494 4581 
L 2072 4581 
Q 2606 4581 2888 4516 
Q 3281 4425 3559 4188 
Q 3922 3881 4101 3404 
Q 4281 2928 4281 2316 
Q 4281 1794 4159 1391 
Q 4038 988 3847 723 
Q 3656 459 3429 307 
Q 3203 156 2883 78 
Q 2563 0 2147 0 
L 494 0 
z
M 1100 541 
L 2078 541 
Q 2531 541 2789 625 
Q 3047 709 3200 863 
Q 3416 1078 3536 1442 
Q 3656 1806 3656 2325 
Q 3656 3044 3420 3430 
Q 3184 3816 2847 3947 
Q 2603 4041 2063 4041 
L 1100 4041 
L 1100 541 
z
" transform="scale(0.015625)"/>
      <path id="ArialMT-2c" d="M 569 0 
L 569 641 
L 1209 641 
L 1209 0 
Q 1209 -353 1084 -570 
Q 959 -788 688 -906 
L 531 -666 
Q 709 -588 793 -436 
Q 878 -284 888 0 
L 569 0 
z
" transform="scale(0.015625)"/>
      <path id="ArialMT-4d" d="M 475 0 
L 475 4581 
L 1388 4581 
L 2472 1338 
Q 2622 884 2691 659 
Q 2769 909 2934 1394 
L 4031 4581 
L 4847 4581 
L 4847 0 
L 4263 0 
L 4263 3834 
L 2931 0 
L 2384 0 
L 1059 3900 
L 1059 0 
L 475 0 
z
" transform="scale(0.015625)"/>
      <path id="ArialMT-53" d="M 288 1472 
L 859 1522 
Q 900 1178 1048 958 
Q 1197 738 1509 602 
Q 1822 466 2213 466 
Q 2559 466 2825 569 
Q 3091 672 3220 851 
Q 3350 1031 3350 1244 
Q 3350 1459 3225 1620 
Q 3100 1781 2813 1891 
Q 2628 1963 1997 2114 
Q 1366 2266 1113 2400 
Q 784 2572 623 2826 
Q 463 3081 463 3397 
Q 463 3744 659 4045 
Q 856 4347 1234 4503 
Q 1613 4659 2075 4659 
Q 2584 4659 2973 4495 
Q 3363 4331 3572 4012 
Q 3781 3694 3797 3291 
L 3216 3247 
Q 3169 3681 2898 3903 
Q 2628 4125 2100 4125 
Q 1550 4125 1298 3923 
Q 1047 3722 1047 3438 
Q 1047 3191 1225 3031 
Q 1400 2872 2139 2705 
Q 2878 2538 3153 2413 
Q 3553 2228 3743 1945 
Q 3934 1663 3934 1294 
Q 3934 928 3725 604 
Q 3516 281 3123 101 
Q 2731 -78 2241 -78 
Q 1619 -78 1198 103 
Q 778 284 539 648 
Q 300 1013 288 1472 
z
" transform="scale(0.015625)"/>
      <path id="ArialMT-45" d="M 506 0 
L 506 4581 
L 3819 4581 
L 3819 4041 
L 1113 4041 
L 1113 2638 
L 3647 2638 
L 3647 2100 
L 1113 2100 
L 1113 541 
L 3925 541 
L 3925 0 
L 506 0 
z
" transform="scale(0.015625)"/>
      <path id="ArialMT-3d" d="M 3381 2694 
L 356 2694 
L 356 3219 
L 3381 3219 
L 3381 2694 
z
M 3381 1303 
L 356 1303 
L 356 1828 
L 3381 1828 
L 3381 1303 
z
" transform="scale(0.015625)"/>
      <path id="ArialMT-37" d="M 303 3981 
L 303 4522 
L 3269 4522 
L 3269 4084 
Q 2831 3619 2401 2847 
Q 1972 2075 1738 1259 
Q 1569 684 1522 0 
L 944 0 
Q 953 541 1156 1306 
Q 1359 2072 1739 2783 
Q 2119 3494 2547 3981 
L 303 3981 
z
" transform="scale(0.015625)"/>
      <path id="ArialMT-29" d="M 791 -1347 
L 388 -1347 
Q 1322 153 1322 1656 
Q 1322 2244 1188 2822 
Q 1081 3291 891 3722 
Q 769 4003 388 4659 
L 791 4659 
Q 1378 3875 1659 3084 
Q 1900 2403 1900 1659 
Q 1900 816 1576 28 
Q 1253 -759 791 -1347 
z
" transform="scale(0.015625)"/>
     </defs>
     <use xlink:href="#ArialMT-50"/>
     <use xlink:href="#ArialMT-72" x="66.699219"/>
     <use xlink:href="#ArialMT-65" x="100"/>
     <use xlink:href="#ArialMT-64" x="155.615234"/>
     <use xlink:href="#ArialMT-69" x="211.230469"/>
     <use xlink:href="#ArialMT-63" x="233.447266"/>
     <use xlink:href="#ArialMT-74" x="283.447266"/>
     <use xlink:href="#ArialMT-69" x="311.230469"/>
     <use xlink:href="#ArialMT-6f" x="333.447266"/>
     <use xlink:href="#ArialMT-6e" x="389.0625"/>
     <use xlink:href="#ArialMT-73" x="444.677734"/>
     <use xlink:href="#ArialMT-20" x="494.677734"/>
     <use xlink:href="#ArialMT-76" x="522.460938"/>
     <use xlink:href="#ArialMT-73" x="572.460938"/>
     <use xlink:href="#ArialMT-20" x="622.460938"/>
     <use xlink:href="#ArialMT-54" x="648.494141"/>
     <use xlink:href="#ArialMT-72" x="705.828125"/>
     <use xlink:href="#ArialMT-75" x="739.128906"/>
     <use xlink:href="#ArialMT-65" x="794.744141"/>
     <use xlink:href="#ArialMT-20" x="850.359375"/>
     <use xlink:href="#ArialMT-74" x="878.142578"/>
     <use xlink:href="#ArialMT-65" x="905.925781"/>
     <use xlink:href="#ArialMT-73" x="961.541016"/>
     <use xlink:href="#ArialMT-74" x="1011.541016"/>
     <use xlink:href="#ArialMT-20" x="1039.324219"/>
     <use xlink:href="#ArialMT-76" x="1067.107422"/>
     <use xlink:href="#ArialMT-61" x="1117.107422"/>
     <use xlink:href="#ArialMT-6c" x="1172.722656"/>
     <use xlink:href="#ArialMT-75" x="1194.939453"/>
     <use xlink:href="#ArialMT-65" x="1250.554688"/>
     <use xlink:href="#ArialMT-73" x="1306.169922"/>
     <use xlink:href="#ArialMT-20" x="1356.169922"/>
     <use xlink:href="#ArialMT-28" x="1383.953125"/>
     <use xlink:href="#ArialMT-41" x="1417.253906"/>
     <use xlink:href="#ArialMT-52" x="1483.953125"/>
     <use xlink:href="#ArialMT-44" x="1556.169922"/>
     <use xlink:href="#ArialMT-2c" x="1628.386719"/>
     <use xlink:href="#ArialMT-20" x="1656.169922"/>
     <use xlink:href="#ArialMT-52" x="1683.953125"/>
     <use xlink:href="#ArialMT-4d" x="1756.169922"/>
     <use xlink:href="#ArialMT-53" x="1839.470703"/>
     <use xlink:href="#ArialMT-45" x="1906.169922"/>
     <use xlink:href="#ArialMT-20" x="1972.869141"/>
     <use xlink:href="#ArialMT-3d" x="2000.652344"/>
     <use xlink:href="#ArialMT-20" x="2059.050781"/>
     <use xlink:href="#ArialMT-30" x="2086.833984"/>
     <use xlink:href="#ArialMT-2e" x="2142.449219"/>
     <use xlink:href="#ArialMT-30" x="2170.232422"/>
     <use xlink:href="#ArialMT-32" x="2225.847656"/>
     <use xlink:href="#ArialMT-37" x="2281.462891"/>
     <use xlink:href="#ArialMT-29" x="2337.078125"/>
    </g>
   </g>
  </g>
 </g>
 <defs>
  <clipPath id="pa7763598ea">
   <rect x="45.65125" y="20.1885" width="357.12" height="266.112"/>
  </clipPath>
 </defs>
</svg>