<?xml version="1.0" encoding="utf-8" standalone="no"?>
<!DOCTYPE svg PUBLIC "-//W3C//DTD SVG 1.1//EN"
  "http://www.w3.org/Graphics/SVG/1.1/DTD/svg11.dtd">
<svg xmlns:xlink="http://www.w3.org/1999/xlink" width="402.632875pt" height="309.639375pt" viewBox="0 0 402.632875 309.639375" xmlns="http://www.w3.org/2000/svg" version="1.1">
 <metadata>
  <rdf:RDF xmlns:dc="http://purl.org/dc/elements/1.1/" xmlns:cc="http://creativecommons.org/ns#" xmlns:rdf="http://www.w3.org/1999/02/22-rdf-syntax-ns#">
   <cc:Work>
    <dc:type rdf:resource="http://purl.org/dc/dcmitype/StillImage"/>
    <dc:date>2023-10-15T22:38:48.042070</dc:date>
    <dc:format>image/svg+xml</dc:format>
    <dc:creator>
     <cc:Agent>
      <dc:title>Matplotlib v3.7.1, https://matplotlib.org/</dc:title>
     </cc:Agent>
    </dc:creator>
   </cc:Work>
  </rdf:RDF>
 </metadata>
 <defs>
  <style type="text/css">*{stroke-linejoin: round; stroke-linecap: butt}</style>
 </defs>
 <g id="figure_1">
  <g id="patch_1">
   <path d="M 0 309.639375 
L 402.632875 309.639375 
L 402.632875 0 
L 0 0 
z
" style="fill: #ffffff"/>
  </g>
  <g id="axes_1">
   <g id="patch_2">
    <path d="M 38.312875 273.312 
L 395.432875 273.312 
L 395.432875 7.2 
L 38.312875 7.2 
z
" style="fill: #ffffff"/>
   </g>
   <g id="matplotlib.axis_1">
    <g id="xtick_1">
     <g id="line2d_1">
      <defs>
       <path id="mb0b03e2067" d="M 0 0 
L 0 4.8 
" style="stroke: #262626"/>
      </defs>
      <g>
       <use xlink:href="#mb0b03e2067" x="54.545602" y="273.312" style="fill: #262626; stroke: #262626"/>
      </g>
     </g>
     <g id="text_1">
      <!-- 0 -->
      <g style="fill: #262626" transform="translate(52.09879 287.910875) scale(0.088 -0.088)">
       <defs>
        <path id="ArialMT-30" d="M 266 2259 
Q 266 3072 433 3567 
Q 600 4063 929 4331 
Q 1259 4600 1759 4600 
Q 2128 4600 2406 4451 
Q 2684 4303 2865 4023 
Q 3047 3744 3150 3342 
Q 3253 2941 3253 2259 
Q 3253 1453 3087 958 
Q 2922 463 2592 192 
Q 2263 -78 1759 -78 
Q 1097 -78 719 397 
Q 266 969 266 2259 
z
M 844 2259 
Q 844 1131 1108 757 
Q 1372 384 1759 384 
Q 2147 384 2411 759 
Q 2675 1134 2675 2259 
Q 2675 3391 2411 3762 
Q 2147 4134 1753 4134 
Q 1366 4134 1134 3806 
Q 844 3388 844 2259 
z
" transform="scale(0.015625)"/>
       </defs>
       <use xlink:href="#ArialMT-30"/>
      </g>
     </g>
    </g>
    <g id="xtick_2">
     <g id="line2d_2">
      <g>
       <use xlink:href="#mb0b03e2067" x="120.132379" y="273.312" style="fill: #262626; stroke: #262626"/>
      </g>
     </g>
     <g id="text_2">
      <!-- 20 -->
      <g style="fill: #262626" transform="translate(115.238754 287.910875) scale(0.088 -0.088)">
       <defs>
        <path id="ArialMT-32" d="M 3222 541 
L 3222 0 
L 194 0 
Q 188 203 259 391 
Q 375 700 629 1000 
Q 884 1300 1366 1694 
Q 2113 2306 2375 2664 
Q 2638 3022 2638 3341 
Q 2638 3675 2398 3904 
Q 2159 4134 1775 4134 
Q 1369 4134 1125 3890 
Q 881 3647 878 3216 
L 300 3275 
Q 359 3922 746 4261 
Q 1134 4600 1788 4600 
Q 2447 4600 2831 4234 
Q 3216 3869 3216 3328 
Q 3216 3053 3103 2787 
Q 2991 2522 2730 2228 
Q 2469 1934 1863 1422 
Q 1356 997 1212 845 
Q 1069 694 975 541 
L 3222 541 
z
" transform="scale(0.015625)"/>
       </defs>
       <use xlink:href="#ArialMT-32"/>
       <use xlink:href="#ArialMT-30" x="55.615234"/>
      </g>
     </g>
    </g>
    <g id="xtick_3">
     <g id="line2d_3">
      <g>
       <use xlink:href="#mb0b03e2067" x="185.719156" y="273.312" style="fill: #262626; stroke: #262626"/>
      </g>
     </g>
     <g id="text_3">
      <!-- 40 -->
      <g style="fill: #262626" transform="translate(180.825531 287.910875) scale(0.088 -0.088)">
       <defs>
        <path id="ArialMT-34" d="M 2069 0 
L 2069 1097 
L 81 1097 
L 81 1613 
L 2172 4581 
L 2631 4581 
L 2631 1613 
L 3250 1613 
L 3250 1097 
L 2631 1097 
L 2631 0 
L 2069 0 
z
M 2069 1613 
L 2069 3678 
L 634 1613 
L 2069 1613 
z
" transform="scale(0.015625)"/>
       </defs>
       <use xlink:href="#ArialMT-34"/>
       <use xlink:href="#ArialMT-30" x="55.615234"/>
      </g>
     </g>
    </g>
    <g id="xtick_4">
     <g id="line2d_4">
      <g>
       <use xlink:href="#mb0b03e2067" x="251.305933" y="273.312" style="fill: #262626; stroke: #262626"/>
      </g>
     </g>
     <g id="text_4">
      <!-- 60 -->
      <g style="fill: #262626" transform="translate(246.412308 287.910875) scale(0.088 -0.088)">
       <defs>
        <path id="ArialMT-36" d="M 3184 3459 
L 2625 3416 
Q 2550 3747 2413 3897 
Q 2184 4138 1850 4138 
Q 1581 4138 1378 3988 
Q 1113 3794 959 3422 
Q 806 3050 800 2363 
Q 1003 2672 1297 2822 
Q 1591 2972 1913 2972 
Q 2475 2972 2870 2558 
Q 3266 2144 3266 1488 
Q 3266 1056 3080 686 
Q 2894 316 2569 119 
Q 2244 -78 1831 -78 
Q 1128 -78 684 439 
Q 241 956 241 2144 
Q 241 3472 731 4075 
Q 1159 4600 1884 4600 
Q 2425 4600 2770 4297 
Q 3116 3994 3184 3459 
z
M 888 1484 
Q 888 1194 1011 928 
Q 1134 663 1356 523 
Q 1578 384 1822 384 
Q 2178 384 2434 671 
Q 2691 959 2691 1453 
Q 2691 1928 2437 2201 
Q 2184 2475 1800 2475 
Q 1419 2475 1153 2201 
Q 888 1928 888 1484 
z
" transform="scale(0.015625)"/>
       </defs>
       <use xlink:href="#ArialMT-36"/>
       <use xlink:href="#ArialMT-30" x="55.615234"/>
      </g>
     </g>
    </g>
    <g id="xtick_5">
     <g id="line2d_5">
      <g>
       <use xlink:href="#mb0b03e2067" x="316.89271" y="273.312" style="fill: #262626; stroke: #262626"/>
      </g>
     </g>
     <g id="text_5">
      <!-- 80 -->
      <g style="fill: #262626" transform="translate(311.999085 287.910875) scale(0.088 -0.088)">
       <defs>
        <path id="ArialMT-38" d="M 1131 2484 
Q 781 2613 612 2850 
Q 444 3088 444 3419 
Q 444 3919 803 4259 
Q 1163 4600 1759 4600 
Q 2359 4600 2725 4251 
Q 3091 3903 3091 3403 
Q 3091 3084 2923 2848 
Q 2756 2613 2416 2484 
Q 2838 2347 3058 2040 
Q 3278 1734 3278 1309 
Q 3278 722 2862 322 
Q 2447 -78 1769 -78 
Q 1091 -78 675 323 
Q 259 725 259 1325 
Q 259 1772 486 2073 
Q 713 2375 1131 2484 
z
M 1019 3438 
Q 1019 3113 1228 2906 
Q 1438 2700 1772 2700 
Q 2097 2700 2305 2904 
Q 2513 3109 2513 3406 
Q 2513 3716 2298 3927 
Q 2084 4138 1766 4138 
Q 1444 4138 1231 3931 
Q 1019 3725 1019 3438 
z
M 838 1322 
Q 838 1081 952 856 
Q 1066 631 1291 507 
Q 1516 384 1775 384 
Q 2178 384 2440 643 
Q 2703 903 2703 1303 
Q 2703 1709 2433 1975 
Q 2163 2241 1756 2241 
Q 1359 2241 1098 1978 
Q 838 1716 838 1322 
z
" transform="scale(0.015625)"/>
       </defs>
       <use xlink:href="#ArialMT-38"/>
       <use xlink:href="#ArialMT-30" x="55.615234"/>
      </g>
     </g>
    </g>
    <g id="xtick_6">
     <g id="line2d_6">
      <g>
       <use xlink:href="#mb0b03e2067" x="382.479487" y="273.312" style="fill: #262626; stroke: #262626"/>
      </g>
     </g>
     <g id="text_6">
      <!-- 100 -->
      <g style="fill: #262626" transform="translate(375.139049 287.910875) scale(0.088 -0.088)">
       <defs>
        <path id="ArialMT-31" d="M 2384 0 
L 1822 0 
L 1822 3584 
Q 1619 3391 1289 3197 
Q 959 3003 697 2906 
L 697 3450 
Q 1169 3672 1522 3987 
Q 1875 4303 2022 4600 
L 2384 4600 
L 2384 0 
z
" transform="scale(0.015625)"/>
       </defs>
       <use xlink:href="#ArialMT-31"/>
       <use xlink:href="#ArialMT-30" x="55.615234"/>
       <use xlink:href="#ArialMT-30" x="111.230469"/>
      </g>
     </g>
    </g>
    <g id="text_7">
     <!-- $i$ -->
     <g style="fill: #262626" transform="translate(215.528875 300.531375) scale(0.096 -0.096)">
      <defs>
       <path id="DejaVuSans-Oblique-69" d="M 1172 4863 
L 1747 4863 
L 1606 4134 
L 1031 4134 
L 1172 4863 
z
M 909 3500 
L 1484 3500 
L 800 0 
L 225 0 
L 909 3500 
z
" transform="scale(0.015625)"/>
      </defs>
      <use xlink:href="#DejaVuSans-Oblique-69" transform="translate(0 0.015625)"/>
     </g>
    </g>
   </g>
   <g id="matplotlib.axis_2">
    <g id="ytick_1">
     <g id="line2d_7">
      <defs>
       <path id="mbccb30ade0" d="M 0 0 
L -4.8 0 
" style="stroke: #262626"/>
      </defs>
      <g>
       <use xlink:href="#mbccb30ade0" x="38.312875" y="261.216" style="fill: #262626; stroke: #262626"/>
      </g>
     </g>
     <g id="text_8">
      <!-- −2 -->
      <g style="fill: #262626" transform="translate(19.9795 264.365437) scale(0.088 -0.088)">
       <defs>
        <path id="ArialMT-2212" d="M 3381 1997 
L 356 1997 
L 356 2522 
L 3381 2522 
L 3381 1997 
z
" transform="scale(0.015625)"/>
       </defs>
       <use xlink:href="#ArialMT-2212"/>
       <use xlink:href="#ArialMT-32" x="58.398438"/>
      </g>
     </g>
    </g>
    <g id="ytick_2">
     <g id="line2d_8">
      <g>
       <use xlink:href="#mbccb30ade0" x="38.312875" y="212.272084" style="fill: #262626; stroke: #262626"/>
      </g>
     </g>
     <g id="text_9">
      <!-- −1 -->
      <g style="fill: #262626" transform="translate(19.9795 215.421522) scale(0.088 -0.088)">
       <use xlink:href="#ArialMT-2212"/>
       <use xlink:href="#ArialMT-31" x="58.398438"/>
      </g>
     </g>
    </g>
    <g id="ytick_3">
     <g id="line2d_9">
      <g>
       <use xlink:href="#mbccb30ade0" x="38.312875" y="163.328169" style="fill: #262626; stroke: #262626"/>
      </g>
     </g>
     <g id="text_10">
      <!-- 0 -->
      <g style="fill: #262626" transform="translate(25.11925 166.477606) scale(0.088 -0.088)">
       <use xlink:href="#ArialMT-30"/>
      </g>
     </g>
    </g>
    <g id="ytick_4">
     <g id="line2d_10">
      <g>
       <use xlink:href="#mbccb30ade0" x="38.312875" y="114.384253" style="fill: #262626; stroke: #262626"/>
      </g>
     </g>
     <g id="text_11">
      <!-- 1 -->
      <g style="fill: #262626" transform="translate(25.11925 117.533691) scale(0.088 -0.088)">
       <use xlink:href="#ArialMT-31"/>
      </g>
     </g>
    </g>
    <g id="ytick_5">
     <g id="line2d_11">
      <g>
       <use xlink:href="#mbccb30ade0" x="38.312875" y="65.440338" style="fill: #262626; stroke: #262626"/>
      </g>
     </g>
     <g id="text_12">
      <!-- 2 -->
      <g style="fill: #262626" transform="translate(25.11925 68.589775) scale(0.088 -0.088)">
       <use xlink:href="#ArialMT-32"/>
      </g>
     </g>
    </g>
    <g id="ytick_6">
     <g id="line2d_12">
      <g>
       <use xlink:href="#mbccb30ade0" x="38.312875" y="16.496422" style="fill: #262626; stroke: #262626"/>
      </g>
     </g>
     <g id="text_13">
      <!-- 3 -->
      <g style="fill: #262626" transform="translate(25.11925 19.645859) scale(0.088 -0.088)">
       <defs>
        <path id="ArialMT-33" d="M 269 1209 
L 831 1284 
Q 928 806 1161 595 
Q 1394 384 1728 384 
Q 2125 384 2398 659 
Q 2672 934 2672 1341 
Q 2672 1728 2419 1979 
Q 2166 2231 1775 2231 
Q 1616 2231 1378 2169 
L 1441 2663 
Q 1497 2656 1531 2656 
Q 1891 2656 2178 2843 
Q 2466 3031 2466 3422 
Q 2466 3731 2256 3934 
Q 2047 4138 1716 4138 
Q 1388 4138 1169 3931 
Q 950 3725 888 3313 
L 325 3413 
Q 428 3978 793 4289 
Q 1159 4600 1703 4600 
Q 2078 4600 2393 4439 
Q 2709 4278 2876 4000 
Q 3044 3722 3044 3409 
Q 3044 3113 2884 2869 
Q 2725 2625 2413 2481 
Q 2819 2388 3044 2092 
Q 3269 1797 3269 1353 
Q 3269 753 2831 336 
Q 2394 -81 1725 -81 
Q 1122 -81 723 278 
Q 325 638 269 1209 
z
" transform="scale(0.015625)"/>
       </defs>
       <use xlink:href="#ArialMT-33"/>
      </g>
     </g>
    </g>
    <g id="text_14">
     <!-- $e_i$ -->
     <g style="fill: #262626" transform="translate(14.0715 144.288) rotate(-90) scale(0.096 -0.096)">
      <defs>
       <path id="DejaVuSans-Oblique-65" d="M 3078 2063 
Q 3088 2113 3092 2166 
Q 3097 2219 3097 2272 
Q 3097 2653 2873 2875 
Q 2650 3097 2266 3097 
Q 1838 3097 1509 2826 
Q 1181 2556 1013 2059 
L 3078 2063 
z
M 3578 1613 
L 903 1613 
Q 884 1494 878 1425 
Q 872 1356 872 1306 
Q 872 872 1139 634 
Q 1406 397 1894 397 
Q 2269 397 2603 481 
Q 2938 566 3225 728 
L 3116 159 
Q 2806 34 2476 -28 
Q 2147 -91 1806 -91 
Q 1078 -91 686 257 
Q 294 606 294 1247 
Q 294 1794 489 2264 
Q 684 2734 1063 3103 
Q 1306 3334 1642 3459 
Q 1978 3584 2356 3584 
Q 2950 3584 3301 3228 
Q 3653 2872 3653 2272 
Q 3653 2128 3634 1964 
Q 3616 1800 3578 1613 
z
" transform="scale(0.015625)"/>
      </defs>
      <use xlink:href="#DejaVuSans-Oblique-65"/>
      <use xlink:href="#DejaVuSans-Oblique-69" transform="translate(61.523438 -16.40625) scale(0.7)"/>
     </g>
    </g>
   </g>
   <g id="line2d_13">
    <defs>
     <path id="m2dfd87f5ec" d="M 0 2.4 
C 0.636487 2.4 1.246992 2.147121 1.697056 1.697056 
C 2.147121 1.246992 2.4 0.636487 2.4 0 
C 2.4 -0.636487 2.147121 -1.246992 1.697056 -1.697056 
C 1.246992 -2.147121 0.636487 -2.4 0 -2.4 
C -0.636487 -2.4 -1.246992 -2.147121 -1.697056 -1.697056 
C -2.147121 -1.246992 -2.4 -0.636487 -2.4 0 
C -2.4 0.636487 -2.147121 1.246992 -1.697056 1.697056 
C -1.246992 2.147121 -0.636487 2.4 0 2.4 
z
" style="stroke: #1f77b4"/>
    </defs>
    <g clip-path="url(#pc0ffc5a299)">
     <use xlink:href="#m2dfd87f5ec" x="54.545602" y="185.45055" style="fill: #1f77b4; stroke: #1f77b4"/>
     <use xlink:href="#m2dfd87f5ec" x="57.824941" y="90.641045" style="fill: #1f77b4; stroke: #1f77b4"/>
     <use xlink:href="#m2dfd87f5ec" x="61.10428" y="215.037764" style="fill: #1f77b4; stroke: #1f77b4"/>
     <use xlink:href="#m2dfd87f5ec" x="64.383619" y="207.176632" style="fill: #1f77b4; stroke: #1f77b4"/>
     <use xlink:href="#m2dfd87f5ec" x="67.662958" y="239.560395" style="fill: #1f77b4; stroke: #1f77b4"/>
     <use xlink:href="#m2dfd87f5ec" x="70.942296" y="109.419787" style="fill: #1f77b4; stroke: #1f77b4"/>
     <use xlink:href="#m2dfd87f5ec" x="74.221635" y="109.110205" style="fill: #1f77b4; stroke: #1f77b4"/>
     <use xlink:href="#m2dfd87f5ec" x="77.500974" y="205.084204" style="fill: #1f77b4; stroke: #1f77b4"/>
     <use xlink:href="#m2dfd87f5ec" x="80.780313" y="146.845844" style="fill: #1f77b4; stroke: #1f77b4"/>
     <use xlink:href="#m2dfd87f5ec" x="84.059652" y="38.122242" style="fill: #1f77b4; stroke: #1f77b4"/>
     <use xlink:href="#m2dfd87f5ec" x="87.338991" y="162.93193" style="fill: #1f77b4; stroke: #1f77b4"/>
     <use xlink:href="#m2dfd87f5ec" x="90.61833" y="193.653547" style="fill: #1f77b4; stroke: #1f77b4"/>
     <use xlink:href="#m2dfd87f5ec" x="93.897668" y="67.580895" style="fill: #1f77b4; stroke: #1f77b4"/>
     <use xlink:href="#m2dfd87f5ec" x="97.177007" y="93.182344" style="fill: #1f77b4; stroke: #1f77b4"/>
     <use xlink:href="#m2dfd87f5ec" x="100.456346" y="106.744719" style="fill: #1f77b4; stroke: #1f77b4"/>
     <use xlink:href="#m2dfd87f5ec" x="103.735685" y="85.317619" style="fill: #1f77b4; stroke: #1f77b4"/>
     <use xlink:href="#m2dfd87f5ec" x="107.015024" y="127.309356" style="fill: #1f77b4; stroke: #1f77b4"/>
     <use xlink:href="#m2dfd87f5ec" x="110.294363" y="128.298003" style="fill: #1f77b4; stroke: #1f77b4"/>
     <use xlink:href="#m2dfd87f5ec" x="113.573701" y="194.302748" style="fill: #1f77b4; stroke: #1f77b4"/>
     <use xlink:href="#m2dfd87f5ec" x="116.85304" y="161.26312" style="fill: #1f77b4; stroke: #1f77b4"/>
     <use xlink:href="#m2dfd87f5ec" x="120.132379" y="173.547183" style="fill: #1f77b4; stroke: #1f77b4"/>
     <use xlink:href="#m2dfd87f5ec" x="123.411718" y="192.182434" style="fill: #1f77b4; stroke: #1f77b4"/>
     <use xlink:href="#m2dfd87f5ec" x="126.691057" y="171.568998" style="fill: #1f77b4; stroke: #1f77b4"/>
     <use xlink:href="#m2dfd87f5ec" x="129.970396" y="79.308094" style="fill: #1f77b4; stroke: #1f77b4"/>
     <use xlink:href="#m2dfd87f5ec" x="133.249735" y="176.707677" style="fill: #1f77b4; stroke: #1f77b4"/>
     <use xlink:href="#m2dfd87f5ec" x="136.529073" y="71.645285" style="fill: #1f77b4; stroke: #1f77b4"/>
     <use xlink:href="#m2dfd87f5ec" x="139.808412" y="260.593562" style="fill: #1f77b4; stroke: #1f77b4"/>
     <use xlink:href="#m2dfd87f5ec" x="143.087751" y="204.217041" style="fill: #1f77b4; stroke: #1f77b4"/>
     <use xlink:href="#m2dfd87f5ec" x="146.36709" y="56.087254" style="fill: #1f77b4; stroke: #1f77b4"/>
     <use xlink:href="#m2dfd87f5ec" x="149.646429" y="169.245017" style="fill: #1f77b4; stroke: #1f77b4"/>
     <use xlink:href="#m2dfd87f5ec" x="152.925768" y="159.558742" style="fill: #1f77b4; stroke: #1f77b4"/>
     <use xlink:href="#m2dfd87f5ec" x="156.205106" y="173.27043" style="fill: #1f77b4; stroke: #1f77b4"/>
     <use xlink:href="#m2dfd87f5ec" x="159.484445" y="180.970452" style="fill: #1f77b4; stroke: #1f77b4"/>
     <use xlink:href="#m2dfd87f5ec" x="162.763784" y="226.026831" style="fill: #1f77b4; stroke: #1f77b4"/>
     <use xlink:href="#m2dfd87f5ec" x="166.043123" y="194.951643" style="fill: #1f77b4; stroke: #1f77b4"/>
     <use xlink:href="#m2dfd87f5ec" x="169.322462" y="120.811729" style="fill: #1f77b4; stroke: #1f77b4"/>
     <use xlink:href="#m2dfd87f5ec" x="172.601801" y="110.084129" style="fill: #1f77b4; stroke: #1f77b4"/>
     <use xlink:href="#m2dfd87f5ec" x="175.881139" y="165.112409" style="fill: #1f77b4; stroke: #1f77b4"/>
     <use xlink:href="#m2dfd87f5ec" x="179.160478" y="80.820986" style="fill: #1f77b4; stroke: #1f77b4"/>
     <use xlink:href="#m2dfd87f5ec" x="182.439817" y="150.069209" style="fill: #1f77b4; stroke: #1f77b4"/>
     <use xlink:href="#m2dfd87f5ec" x="185.719156" y="219.578721" style="fill: #1f77b4; stroke: #1f77b4"/>
     <use xlink:href="#m2dfd87f5ec" x="188.998495" y="177.788792" style="fill: #1f77b4; stroke: #1f77b4"/>
     <use xlink:href="#m2dfd87f5ec" x="192.277834" y="147.546204" style="fill: #1f77b4; stroke: #1f77b4"/>
     <use xlink:href="#m2dfd87f5ec" x="195.557173" y="94.806717" style="fill: #1f77b4; stroke: #1f77b4"/>
     <use xlink:href="#m2dfd87f5ec" x="198.836511" y="98.604596" style="fill: #1f77b4; stroke: #1f77b4"/>
     <use xlink:href="#m2dfd87f5ec" x="202.11585" y="124.88829" style="fill: #1f77b4; stroke: #1f77b4"/>
     <use xlink:href="#m2dfd87f5ec" x="205.395189" y="217.440095" style="fill: #1f77b4; stroke: #1f77b4"/>
     <use xlink:href="#m2dfd87f5ec" x="208.674528" y="154.346239" style="fill: #1f77b4; stroke: #1f77b4"/>
     <use xlink:href="#m2dfd87f5ec" x="211.953867" y="19.296" style="fill: #1f77b4; stroke: #1f77b4"/>
     <use xlink:href="#m2dfd87f5ec" x="215.233206" y="161.928568" style="fill: #1f77b4; stroke: #1f77b4"/>
     <use xlink:href="#m2dfd87f5ec" x="218.512544" y="56.198228" style="fill: #1f77b4; stroke: #1f77b4"/>
     <use xlink:href="#m2dfd87f5ec" x="221.791883" y="210.920436" style="fill: #1f77b4; stroke: #1f77b4"/>
     <use xlink:href="#m2dfd87f5ec" x="225.071222" y="75.181075" style="fill: #1f77b4; stroke: #1f77b4"/>
     <use xlink:href="#m2dfd87f5ec" x="228.350561" y="168.766566" style="fill: #1f77b4; stroke: #1f77b4"/>
     <use xlink:href="#m2dfd87f5ec" x="231.6299" y="135.02773" style="fill: #1f77b4; stroke: #1f77b4"/>
     <use xlink:href="#m2dfd87f5ec" x="234.909239" y="141.972828" style="fill: #1f77b4; stroke: #1f77b4"/>
     <use xlink:href="#m2dfd87f5ec" x="238.188577" y="212.841859" style="fill: #1f77b4; stroke: #1f77b4"/>
     <use xlink:href="#m2dfd87f5ec" x="241.467916" y="94.366773" style="fill: #1f77b4; stroke: #1f77b4"/>
     <use xlink:href="#m2dfd87f5ec" x="244.747255" y="100.072819" style="fill: #1f77b4; stroke: #1f77b4"/>
     <use xlink:href="#m2dfd87f5ec" x="248.026594" y="144.108438" style="fill: #1f77b4; stroke: #1f77b4"/>
     <use xlink:href="#m2dfd87f5ec" x="251.305933" y="154.262676" style="fill: #1f77b4; stroke: #1f77b4"/>
     <use xlink:href="#m2dfd87f5ec" x="254.585272" y="145.832097" style="fill: #1f77b4; stroke: #1f77b4"/>
     <use xlink:href="#m2dfd87f5ec" x="257.864611" y="129.79623" style="fill: #1f77b4; stroke: #1f77b4"/>
     <use xlink:href="#m2dfd87f5ec" x="261.143949" y="183.954328" style="fill: #1f77b4; stroke: #1f77b4"/>
     <use xlink:href="#m2dfd87f5ec" x="264.423288" y="120.107802" style="fill: #1f77b4; stroke: #1f77b4"/>
     <use xlink:href="#m2dfd87f5ec" x="267.702627" y="159.878484" style="fill: #1f77b4; stroke: #1f77b4"/>
     <use xlink:href="#m2dfd87f5ec" x="270.981966" y="210.53548" style="fill: #1f77b4; stroke: #1f77b4"/>
     <use xlink:href="#m2dfd87f5ec" x="274.261305" y="163.664708" style="fill: #1f77b4; stroke: #1f77b4"/>
     <use xlink:href="#m2dfd87f5ec" x="277.540644" y="187.760131" style="fill: #1f77b4; stroke: #1f77b4"/>
     <use xlink:href="#m2dfd87f5ec" x="280.819982" y="119.888213" style="fill: #1f77b4; stroke: #1f77b4"/>
     <use xlink:href="#m2dfd87f5ec" x="284.099321" y="119.425867" style="fill: #1f77b4; stroke: #1f77b4"/>
     <use xlink:href="#m2dfd87f5ec" x="287.37866" y="219.154041" style="fill: #1f77b4; stroke: #1f77b4"/>
     <use xlink:href="#m2dfd87f5ec" x="290.657999" y="206.388548" style="fill: #1f77b4; stroke: #1f77b4"/>
     <use xlink:href="#m2dfd87f5ec" x="293.937338" y="31.699536" style="fill: #1f77b4; stroke: #1f77b4"/>
     <use xlink:href="#m2dfd87f5ec" x="297.216677" y="206.841378" style="fill: #1f77b4; stroke: #1f77b4"/>
     <use xlink:href="#m2dfd87f5ec" x="300.496015" y="102.301403" style="fill: #1f77b4; stroke: #1f77b4"/>
     <use xlink:href="#m2dfd87f5ec" x="303.775354" y="167.749336" style="fill: #1f77b4; stroke: #1f77b4"/>
     <use xlink:href="#m2dfd87f5ec" x="307.054693" y="132.022402" style="fill: #1f77b4; stroke: #1f77b4"/>
     <use xlink:href="#m2dfd87f5ec" x="310.334032" y="157.022351" style="fill: #1f77b4; stroke: #1f77b4"/>
     <use xlink:href="#m2dfd87f5ec" x="313.613371" y="153.485233" style="fill: #1f77b4; stroke: #1f77b4"/>
     <use xlink:href="#m2dfd87f5ec" x="316.89271" y="129.196883" style="fill: #1f77b4; stroke: #1f77b4"/>
     <use xlink:href="#m2dfd87f5ec" x="320.172049" y="159.075654" style="fill: #1f77b4; stroke: #1f77b4"/>
     <use xlink:href="#m2dfd87f5ec" x="323.451387" y="172.459314" style="fill: #1f77b4; stroke: #1f77b4"/>
     <use xlink:href="#m2dfd87f5ec" x="326.730726" y="170.848449" style="fill: #1f77b4; stroke: #1f77b4"/>
     <use xlink:href="#m2dfd87f5ec" x="330.010065" y="187.969393" style="fill: #1f77b4; stroke: #1f77b4"/>
     <use xlink:href="#m2dfd87f5ec" x="333.289404" y="152.380964" style="fill: #1f77b4; stroke: #1f77b4"/>
     <use xlink:href="#m2dfd87f5ec" x="336.568743" y="121.602479" style="fill: #1f77b4; stroke: #1f77b4"/>
     <use xlink:href="#m2dfd87f5ec" x="339.848082" y="89.716452" style="fill: #1f77b4; stroke: #1f77b4"/>
     <use xlink:href="#m2dfd87f5ec" x="343.12742" y="205.704113" style="fill: #1f77b4; stroke: #1f77b4"/>
     <use xlink:href="#m2dfd87f5ec" x="346.406759" y="208.565808" style="fill: #1f77b4; stroke: #1f77b4"/>
     <use xlink:href="#m2dfd87f5ec" x="349.686098" y="114.251003" style="fill: #1f77b4; stroke: #1f77b4"/>
     <use xlink:href="#m2dfd87f5ec" x="352.965437" y="241.48718" style="fill: #1f77b4; stroke: #1f77b4"/>
     <use xlink:href="#m2dfd87f5ec" x="356.244776" y="213.044861" style="fill: #1f77b4; stroke: #1f77b4"/>
     <use xlink:href="#m2dfd87f5ec" x="359.524115" y="103.386615" style="fill: #1f77b4; stroke: #1f77b4"/>
     <use xlink:href="#m2dfd87f5ec" x="362.803454" y="218.505493" style="fill: #1f77b4; stroke: #1f77b4"/>
     <use xlink:href="#m2dfd87f5ec" x="366.082792" y="181.088335" style="fill: #1f77b4; stroke: #1f77b4"/>
     <use xlink:href="#m2dfd87f5ec" x="369.362131" y="219.559765" style="fill: #1f77b4; stroke: #1f77b4"/>
     <use xlink:href="#m2dfd87f5ec" x="372.64147" y="234.762319" style="fill: #1f77b4; stroke: #1f77b4"/>
     <use xlink:href="#m2dfd87f5ec" x="375.920809" y="93.300231" style="fill: #1f77b4; stroke: #1f77b4"/>
     <use xlink:href="#m2dfd87f5ec" x="379.200148" y="180.605925" style="fill: #1f77b4; stroke: #1f77b4"/>
    </g>
   </g>
   <g id="line2d_14">
    <path d="M 54.545602 65.440338 
L 57.824941 65.440338 
L 61.10428 65.440338 
L 64.383619 65.440338 
L 67.662958 65.440338 
L 70.942296 65.440338 
L 74.221635 65.440338 
L 77.500974 65.440338 
L 80.780313 65.440338 
L 84.059652 65.440338 
L 87.338991 65.440338 
L 90.61833 65.440338 
L 93.897668 65.440338 
L 97.177007 65.440338 
L 100.456346 65.440338 
L 103.735685 65.440338 
L 107.015024 65.440338 
L 110.294363 65.440338 
L 113.573701 65.440338 
L 116.85304 65.440338 
L 120.132379 65.440338 
L 123.411718 65.440338 
L 126.691057 65.440338 
L 129.970396 65.440338 
L 133.249735 65.440338 
L 136.529073 65.440338 
L 139.808412 65.440338 
L 143.087751 65.440338 
L 146.36709 65.440338 
L 149.646429 65.440338 
L 152.925768 65.440338 
L 156.205106 65.440338 
L 159.484445 65.440338 
L 162.763784 65.440338 
L 166.043123 65.440338 
L 169.322462 65.440338 
L 172.601801 65.440338 
L 175.881139 65.440338 
L 179.160478 65.440338 
L 182.439817 65.440338 
L 185.719156 65.440338 
L 188.998495 65.440338 
L 192.277834 65.440338 
L 195.557173 65.440338 
L 198.836511 65.440338 
L 202.11585 65.440338 
L 205.395189 65.440338 
L 208.674528 65.440338 
L 211.953867 65.440338 
L 215.233206 65.440338 
L 218.512544 65.440338 
L 221.791883 65.440338 
L 225.071222 65.440338 
L 228.350561 65.440338 
L 231.6299 65.440338 
L 234.909239 65.440338 
L 238.188577 65.440338 
L 241.467916 65.440338 
L 244.747255 65.440338 
L 248.026594 65.440338 
L 251.305933 65.440338 
L 254.585272 65.440338 
L 257.864611 65.440338 
L 261.143949 65.440338 
L 264.423288 65.440338 
L 267.702627 65.440338 
L 270.981966 65.440338 
L 274.261305 65.440338 
L 277.540644 65.440338 
L 280.819982 65.440338 
L 284.099321 65.440338 
L 287.37866 65.440338 
L 290.657999 65.440338 
L 293.937338 65.440338 
L 297.216677 65.440338 
L 300.496015 65.440338 
L 303.775354 65.440338 
L 307.054693 65.440338 
L 310.334032 65.440338 
L 313.613371 65.440338 
L 316.89271 65.440338 
L 320.172049 65.440338 
L 323.451387 65.440338 
L 326.730726 65.440338 
L 330.010065 65.440338 
L 333.289404 65.440338 
L 336.568743 65.440338 
L 339.848082 65.440338 
L 343.12742 65.440338 
L 346.406759 65.440338 
L 349.686098 65.440338 
L 352.965437 65.440338 
L 356.244776 65.440338 
L 359.524115 65.440338 
L 362.803454 65.440338 
L 366.082792 65.440338 
L 369.362131 65.440338 
L 372.64147 65.440338 
L 375.920809 65.440338 
L 379.200148 65.440338 
" clip-path="url(#pc0ffc5a299)" style="fill: none; stroke-dasharray: 4.44,1.92; stroke-dashoffset: 0; stroke: #ff0000; stroke-width: 1.2"/>
   </g>
   <g id="line2d_15">
    <path d="M 54.545602 261.216 
L 57.824941 261.216 
L 61.10428 261.216 
L 64.383619 261.216 
L 67.662958 261.216 
L 70.942296 261.216 
L 74.221635 261.216 
L 77.500974 261.216 
L 80.780313 261.216 
L 84.059652 261.216 
L 87.338991 261.216 
L 90.61833 261.216 
L 93.897668 261.216 
L 97.177007 261.216 
L 100.456346 261.216 
L 103.735685 261.216 
L 107.015024 261.216 
L 110.294363 261.216 
L 113.573701 261.216 
L 116.85304 261.216 
L 120.132379 261.216 
L 123.411718 261.216 
L 126.691057 261.216 
L 129.970396 261.216 
L 133.249735 261.216 
L 136.529073 261.216 
L 139.808412 261.216 
L 143.087751 261.216 
L 146.36709 261.216 
L 149.646429 261.216 
L 152.925768 261.216 
L 156.205106 261.216 
L 159.484445 261.216 
L 162.763784 261.216 
L 166.043123 261.216 
L 169.322462 261.216 
L 172.601801 261.216 
L 175.881139 261.216 
L 179.160478 261.216 
L 182.439817 261.216 
L 185.719156 261.216 
L 188.998495 261.216 
L 192.277834 261.216 
L 195.557173 261.216 
L 198.836511 261.216 
L 202.11585 261.216 
L 205.395189 261.216 
L 208.674528 261.216 
L 211.953867 261.216 
L 215.233206 261.216 
L 218.512544 261.216 
L 221.791883 261.216 
L 225.071222 261.216 
L 228.350561 261.216 
L 231.6299 261.216 
L 234.909239 261.216 
L 238.188577 261.216 
L 241.467916 261.216 
L 244.747255 261.216 
L 248.026594 261.216 
L 251.305933 261.216 
L 254.585272 261.216 
L 257.864611 261.216 
L 261.143949 261.216 
L 264.423288 261.216 
L 267.702627 261.216 
L 270.981966 261.216 
L 274.261305 261.216 
L 277.540644 261.216 
L 280.819982 261.216 
L 284.099321 261.216 
L 287.37866 261.216 
L 290.657999 261.216 
L 293.937338 261.216 
L 297.216677 261.216 
L 300.496015 261.216 
L 303.775354 261.216 
L 307.054693 261.216 
L 310.334032 261.216 
L 313.613371 261.216 
L 316.89271 261.216 
L 320.172049 261.216 
L 323.451387 261.216 
L 326.730726 261.216 
L 330.010065 261.216 
L 333.289404 261.216 
L 336.568743 261.216 
L 339.848082 261.216 
L 343.12742 261.216 
L 346.406759 261.216 
L 349.686098 261.216 
L 352.965437 261.216 
L 356.244776 261.216 
L 359.524115 261.216 
L 362.803454 261.216 
L 366.082792 261.216 
L 369.362131 261.216 
L 372.64147 261.216 
L 375.920809 261.216 
L 379.200148 261.216 
" clip-path="url(#pc0ffc5a299)" style="fill: none; stroke-dasharray: 4.44,1.92; stroke-dashoffset: 0; stroke: #ff0000; stroke-width: 1.2"/>
   </g>
   <g id="patch_3">
    <path d="M 38.312875 261.216 
L 38.312875 16.496422 
" style="fill: none; stroke: #262626; stroke-linejoin: miter; stroke-linecap: square"/>
   </g>
   <g id="patch_4">
    <path d="M 54.545602 273.312 
L 382.479487 273.312 
" style="fill: none; stroke: #262626; stroke-linejoin: miter; stroke-linecap: square"/>
   </g>
  </g>
 </g>
 <defs>
  <clipPath id="pc0ffc5a299">
   <rect x="38.312875" y="7.2" width="357.12" height="266.112"/>
  </clipPath>
 </defs>
</svg>