<?xml version="1.0" encoding="UTF-8" standalone="no"?>
<!DOCTYPE svg PUBLIC "-//W3C//DTD SVG 1.1//EN"
 "http://www.w3.org/Graphics/SVG/1.1/DTD/svg11.dtd">
<!-- Generated by graphviz version 3.0.0 (20220226.1711)
 -->
<!-- Title: gp2 Pages: 1 -->
<svg width="244pt" height="188pt"
 viewBox="0.00 0.00 243.80 188.00" xmlns="http://www.w3.org/2000/svg" xmlns:xlink="http://www.w3.org/1999/xlink">
<g id="graph0" class="graph" transform="scale(1 1) rotate(0) translate(4 184)">
<title>gp2</title>
<polygon fill="white" stroke="transparent" points="-4,4 -4,-184 239.8,-184 239.8,4 -4,4"/>
<!-- sigma -->
<g id="node1" class="node">
<title>sigma</title>
<ellipse fill="lightgrey" stroke="black" cx="27" cy="-90" rx="27" ry="18"/>
<text text-anchor="start" x="23" y="-86.3" font-family="Times,serif" font-size="14.00">σ</text>
</g>
<!-- y1n -->
<g id="node5" class="node">
<title>y1n</title>
<ellipse fill="lightgrey" stroke="black" cx="75" cy="-18" rx="27" ry="18"/>
<text text-anchor="start" x="63.5" y="-15.3" font-family="Times,serif" font-weight="bold" font-size="14.00">y</text>
<text text-anchor="start" x="70.5" y="-15.3" font-family="Times,serif" baseline-shift="sub" font-size="14.00">1:n</text>
</g>
<!-- sigma&#45;&gt;y1n -->
<g id="edge5" class="edge">
<title>sigma&#45;&gt;y1n</title>
<path fill="none" stroke="black" d="M37.89,-73.12C43.97,-64.26 51.66,-53.04 58.46,-43.12"/>
<polygon fill="black" stroke="black" points="61.38,-45.05 64.15,-34.82 55.61,-41.09 61.38,-45.05"/>
</g>
<!-- theta -->
<g id="node2" class="node">
<title>theta</title>
<ellipse fill="lightgrey" stroke="black" cx="51" cy="-162" rx="27" ry="18"/>
<text text-anchor="start" x="47.5" y="-158.3" font-family="Times,serif" font-size="14.00">θ</text>
</g>
<!-- f -->
<g id="node4" class="node">
<title>f</title>
<ellipse fill="none" stroke="black" cx="123" cy="-90" rx="51.19" ry="18"/>
<text text-anchor="start" x="91.5" y="-87.3" font-family="Times,serif" font-weight="bold" font-size="14.00">f</text>
<text text-anchor="start" x="96.5" y="-87.3" font-family="Times,serif" baseline-shift="sub" font-size="14.00">1:n</text>
<text text-anchor="start" x="112.5" y="-87.3" font-family="Times,serif" font-size="14.00">, </text>
<text text-anchor="start" x="120.5" y="-87.3" font-family="Times,serif" font-weight="bold" font-size="14.00">f</text>
<text text-anchor="start" x="125.5" y="-87.3" font-family="Times,serif" font-size="14.00">*</text>
<text text-anchor="start" x="132.5" y="-87.3" font-family="Times,serif" baseline-shift="sub" font-size="14.00">1:n*</text>
</g>
<!-- theta&#45;&gt;f -->
<g id="edge1" class="edge">
<title>theta&#45;&gt;f</title>
<path fill="none" stroke="black" d="M65.57,-146.83C75.19,-137.49 88.01,-125.02 99.1,-114.24"/>
<polygon fill="black" stroke="black" points="101.71,-116.58 106.44,-107.1 96.83,-111.56 101.71,-116.58"/>
</g>
<!-- x1n -->
<g id="node3" class="node">
<title>x1n</title>
<ellipse fill="lightgrey" stroke="black" cx="123" cy="-162" rx="27" ry="18"/>
<text text-anchor="start" x="111.5" y="-159.3" font-family="Times,serif" font-weight="bold" font-size="14.00">x</text>
<text text-anchor="start" x="118.5" y="-159.3" font-family="Times,serif" baseline-shift="sub" font-size="14.00">1:n</text>
</g>
<!-- x1n&#45;&gt;f -->
<g id="edge2" class="edge">
<title>x1n&#45;&gt;f</title>
<path fill="none" stroke="black" d="M123,-143.7C123,-135.98 123,-126.71 123,-118.11"/>
<polygon fill="black" stroke="black" points="126.5,-118.1 123,-108.1 119.5,-118.1 126.5,-118.1"/>
</g>
<!-- f&#45;&gt;y1n -->
<g id="edge3" class="edge">
<title>f&#45;&gt;y1n</title>
<path fill="none" stroke="black" d="M111.62,-72.41C105.68,-63.74 98.29,-52.97 91.71,-43.38"/>
<polygon fill="black" stroke="black" points="94.51,-41.26 85.96,-34.99 88.73,-45.21 94.51,-41.26"/>
</g>
<!-- xs1ns -->
<g id="node6" class="node">
<title>xs1ns</title>
<ellipse fill="lightgrey" stroke="black" cx="202" cy="-162" rx="33.6" ry="18"/>
<text text-anchor="start" x="184" y="-159.3" font-family="Times,serif" font-weight="bold" font-size="14.00">x</text>
<text text-anchor="start" x="191" y="-159.3" font-family="Times,serif" font-size="14.00">*</text>
<text text-anchor="start" x="198" y="-159.3" font-family="Times,serif" baseline-shift="sub" font-size="14.00">1:n*</text>
</g>
<!-- xs1ns&#45;&gt;f -->
<g id="edge4" class="edge">
<title>xs1ns&#45;&gt;f</title>
<path fill="none" stroke="black" d="M185.25,-146.15C174.62,-136.74 160.66,-124.37 148.66,-113.73"/>
<polygon fill="black" stroke="black" points="150.91,-111.06 141.11,-107.04 146.27,-116.29 150.91,-111.06"/>
</g>
</g>
</svg>