<?xml version="1.0" encoding="utf-8" standalone="no"?>
<!DOCTYPE svg PUBLIC "-//W3C//DTD SVG 1.1//EN"
  "http://www.w3.org/Graphics/SVG/1.1/DTD/svg11.dtd">
<svg xmlns:xlink="http://www.w3.org/1999/xlink" width="402.632875pt" height="309.639375pt" viewBox="0 0 402.632875 309.639375" xmlns="http://www.w3.org/2000/svg" version="1.1">
 <metadata>
  <rdf:RDF xmlns:dc="http://purl.org/dc/elements/1.1/" xmlns:cc="http://creativecommons.org/ns#" xmlns:rdf="http://www.w3.org/1999/02/22-rdf-syntax-ns#">
   <cc:Work>
    <dc:type rdf:resource="http://purl.org/dc/dcmitype/StillImage"/>
    <dc:date>2023-09-25T15:59:57.535473</dc:date>
    <dc:format>image/svg+xml</dc:format>
    <dc:creator>
     <cc:Agent>
      <dc:title>Matplotlib v3.7.1, https://matplotlib.org/</dc:title>
     </cc:Agent>
    </dc:creator>
   </cc:Work>
  </rdf:RDF>
 </metadata>
 <defs>
  <style type="text/css">*{stroke-linejoin: round; stroke-linecap: butt}</style>
 </defs>
 <g id="figure_1">
  <g id="patch_1">
   <path d="M 0 309.639375 
L 402.632875 309.639375 
L 402.632875 0 
L 0 0 
z
" style="fill: #ffffff"/>
  </g>
  <g id="axes_1">
   <g id="patch_2">
    <path d="M 38.312875 273.312 
L 395.432875 273.312 
L 395.432875 7.2 
L 38.312875 7.2 
z
" style="fill: #ffffff"/>
   </g>
   <g id="matplotlib.axis_1">
    <g id="xtick_1">
     <g id="line2d_1">
      <defs>
       <path id="md91494d493" d="M 0 0 
L 0 4.8 
" style="stroke: #262626"/>
      </defs>
      <g>
       <use xlink:href="#md91494d493" x="54.545602" y="273.312" style="fill: #262626; stroke: #262626"/>
      </g>
     </g>
     <g id="text_1">
      <!-- −1.00 -->
      <g style="fill: #262626" transform="translate(43.412915 287.910875) scale(0.088 -0.088)">
       <defs>
        <path id="ArialMT-2212" d="M 3381 1997 
L 356 1997 
L 356 2522 
L 3381 2522 
L 3381 1997 
z
" transform="scale(0.015625)"/>
        <path id="ArialMT-31" d="M 2384 0 
L 1822 0 
L 1822 3584 
Q 1619 3391 1289 3197 
Q 959 3003 697 2906 
L 697 3450 
Q 1169 3672 1522 3987 
Q 1875 4303 2022 4600 
L 2384 4600 
L 2384 0 
z
" transform="scale(0.015625)"/>
        <path id="ArialMT-2e" d="M 581 0 
L 581 641 
L 1222 641 
L 1222 0 
L 581 0 
z
" transform="scale(0.015625)"/>
        <path id="ArialMT-30" d="M 266 2259 
Q 266 3072 433 3567 
Q 600 4063 929 4331 
Q 1259 4600 1759 4600 
Q 2128 4600 2406 4451 
Q 2684 4303 2865 4023 
Q 3047 3744 3150 3342 
Q 3253 2941 3253 2259 
Q 3253 1453 3087 958 
Q 2922 463 2592 192 
Q 2263 -78 1759 -78 
Q 1097 -78 719 397 
Q 266 969 266 2259 
z
M 844 2259 
Q 844 1131 1108 757 
Q 1372 384 1759 384 
Q 2147 384 2411 759 
Q 2675 1134 2675 2259 
Q 2675 3391 2411 3762 
Q 2147 4134 1753 4134 
Q 1366 4134 1134 3806 
Q 844 3388 844 2259 
z
" transform="scale(0.015625)"/>
       </defs>
       <use xlink:href="#ArialMT-2212"/>
       <use xlink:href="#ArialMT-31" x="58.398438"/>
       <use xlink:href="#ArialMT-2e" x="114.013672"/>
       <use xlink:href="#ArialMT-30" x="141.796875"/>
       <use xlink:href="#ArialMT-30" x="197.412109"/>
      </g>
     </g>
    </g>
    <g id="xtick_2">
     <g id="line2d_2">
      <g>
       <use xlink:href="#md91494d493" x="95.12742" y="273.312" style="fill: #262626; stroke: #262626"/>
      </g>
     </g>
     <g id="text_2">
      <!-- −0.75 -->
      <g style="fill: #262626" transform="translate(83.994733 287.910875) scale(0.088 -0.088)">
       <defs>
        <path id="ArialMT-37" d="M 303 3981 
L 303 4522 
L 3269 4522 
L 3269 4084 
Q 2831 3619 2401 2847 
Q 1972 2075 1738 1259 
Q 1569 684 1522 0 
L 944 0 
Q 953 541 1156 1306 
Q 1359 2072 1739 2783 
Q 2119 3494 2547 3981 
L 303 3981 
z
" transform="scale(0.015625)"/>
        <path id="ArialMT-35" d="M 266 1200 
L 856 1250 
Q 922 819 1161 601 
Q 1400 384 1738 384 
Q 2144 384 2425 690 
Q 2706 997 2706 1503 
Q 2706 1984 2436 2262 
Q 2166 2541 1728 2541 
Q 1456 2541 1237 2417 
Q 1019 2294 894 2097 
L 366 2166 
L 809 4519 
L 3088 4519 
L 3088 3981 
L 1259 3981 
L 1013 2750 
Q 1425 3038 1878 3038 
Q 2478 3038 2890 2622 
Q 3303 2206 3303 1553 
Q 3303 931 2941 478 
Q 2500 -78 1738 -78 
Q 1113 -78 717 272 
Q 322 622 266 1200 
z
" transform="scale(0.015625)"/>
       </defs>
       <use xlink:href="#ArialMT-2212"/>
       <use xlink:href="#ArialMT-30" x="58.398438"/>
       <use xlink:href="#ArialMT-2e" x="114.013672"/>
       <use xlink:href="#ArialMT-37" x="141.796875"/>
       <use xlink:href="#ArialMT-35" x="197.412109"/>
      </g>
     </g>
    </g>
    <g id="xtick_3">
     <g id="line2d_3">
      <g>
       <use xlink:href="#md91494d493" x="135.709239" y="273.312" style="fill: #262626; stroke: #262626"/>
      </g>
     </g>
     <g id="text_3">
      <!-- −0.50 -->
      <g style="fill: #262626" transform="translate(124.576551 287.910875) scale(0.088 -0.088)">
       <use xlink:href="#ArialMT-2212"/>
       <use xlink:href="#ArialMT-30" x="58.398438"/>
       <use xlink:href="#ArialMT-2e" x="114.013672"/>
       <use xlink:href="#ArialMT-35" x="141.796875"/>
       <use xlink:href="#ArialMT-30" x="197.412109"/>
      </g>
     </g>
    </g>
    <g id="xtick_4">
     <g id="line2d_4">
      <g>
       <use xlink:href="#md91494d493" x="176.291057" y="273.312" style="fill: #262626; stroke: #262626"/>
      </g>
     </g>
     <g id="text_4">
      <!-- −0.25 -->
      <g style="fill: #262626" transform="translate(165.158369 287.910875) scale(0.088 -0.088)">
       <defs>
        <path id="ArialMT-32" d="M 3222 541 
L 3222 0 
L 194 0 
Q 188 203 259 391 
Q 375 700 629 1000 
Q 884 1300 1366 1694 
Q 2113 2306 2375 2664 
Q 2638 3022 2638 3341 
Q 2638 3675 2398 3904 
Q 2159 4134 1775 4134 
Q 1369 4134 1125 3890 
Q 881 3647 878 3216 
L 300 3275 
Q 359 3922 746 4261 
Q 1134 4600 1788 4600 
Q 2447 4600 2831 4234 
Q 3216 3869 3216 3328 
Q 3216 3053 3103 2787 
Q 2991 2522 2730 2228 
Q 2469 1934 1863 1422 
Q 1356 997 1212 845 
Q 1069 694 975 541 
L 3222 541 
z
" transform="scale(0.015625)"/>
       </defs>
       <use xlink:href="#ArialMT-2212"/>
       <use xlink:href="#ArialMT-30" x="58.398438"/>
       <use xlink:href="#ArialMT-2e" x="114.013672"/>
       <use xlink:href="#ArialMT-32" x="141.796875"/>
       <use xlink:href="#ArialMT-35" x="197.412109"/>
      </g>
     </g>
    </g>
    <g id="xtick_5">
     <g id="line2d_5">
      <g>
       <use xlink:href="#md91494d493" x="216.872875" y="273.312" style="fill: #262626; stroke: #262626"/>
      </g>
     </g>
     <g id="text_5">
      <!-- 0.00 -->
      <g style="fill: #262626" transform="translate(208.310063 287.910875) scale(0.088 -0.088)">
       <use xlink:href="#ArialMT-30"/>
       <use xlink:href="#ArialMT-2e" x="55.615234"/>
       <use xlink:href="#ArialMT-30" x="83.398438"/>
       <use xlink:href="#ArialMT-30" x="139.013672"/>
      </g>
     </g>
    </g>
    <g id="xtick_6">
     <g id="line2d_6">
      <g>
       <use xlink:href="#md91494d493" x="257.454693" y="273.312" style="fill: #262626; stroke: #262626"/>
      </g>
     </g>
     <g id="text_6">
      <!-- 0.25 -->
      <g style="fill: #262626" transform="translate(248.891881 287.910875) scale(0.088 -0.088)">
       <use xlink:href="#ArialMT-30"/>
       <use xlink:href="#ArialMT-2e" x="55.615234"/>
       <use xlink:href="#ArialMT-32" x="83.398438"/>
       <use xlink:href="#ArialMT-35" x="139.013672"/>
      </g>
     </g>
    </g>
    <g id="xtick_7">
     <g id="line2d_7">
      <g>
       <use xlink:href="#md91494d493" x="298.036511" y="273.312" style="fill: #262626; stroke: #262626"/>
      </g>
     </g>
     <g id="text_7">
      <!-- 0.50 -->
      <g style="fill: #262626" transform="translate(289.473699 287.910875) scale(0.088 -0.088)">
       <use xlink:href="#ArialMT-30"/>
       <use xlink:href="#ArialMT-2e" x="55.615234"/>
       <use xlink:href="#ArialMT-35" x="83.398438"/>
       <use xlink:href="#ArialMT-30" x="139.013672"/>
      </g>
     </g>
    </g>
    <g id="xtick_8">
     <g id="line2d_8">
      <g>
       <use xlink:href="#md91494d493" x="338.61833" y="273.312" style="fill: #262626; stroke: #262626"/>
      </g>
     </g>
     <g id="text_8">
      <!-- 0.75 -->
      <g style="fill: #262626" transform="translate(330.055517 287.910875) scale(0.088 -0.088)">
       <use xlink:href="#ArialMT-30"/>
       <use xlink:href="#ArialMT-2e" x="55.615234"/>
       <use xlink:href="#ArialMT-37" x="83.398438"/>
       <use xlink:href="#ArialMT-35" x="139.013672"/>
      </g>
     </g>
    </g>
    <g id="xtick_9">
     <g id="line2d_9">
      <g>
       <use xlink:href="#md91494d493" x="379.200148" y="273.312" style="fill: #262626; stroke: #262626"/>
      </g>
     </g>
     <g id="text_9">
      <!-- 1.00 -->
      <g style="fill: #262626" transform="translate(370.637335 287.910875) scale(0.088 -0.088)">
       <use xlink:href="#ArialMT-31"/>
       <use xlink:href="#ArialMT-2e" x="55.615234"/>
       <use xlink:href="#ArialMT-30" x="83.398438"/>
       <use xlink:href="#ArialMT-30" x="139.013672"/>
      </g>
     </g>
    </g>
    <g id="text_10">
     <!-- $x$ -->
     <g style="fill: #262626" transform="translate(213.992875 300.531375) scale(0.096 -0.096)">
      <defs>
       <path id="DejaVuSans-Oblique-78" d="M 3841 3500 
L 2234 1784 
L 3219 0 
L 2559 0 
L 1819 1388 
L 531 0 
L -166 0 
L 1556 1844 
L 641 3500 
L 1300 3500 
L 1972 2234 
L 3144 3500 
L 3841 3500 
z
" transform="scale(0.015625)"/>
      </defs>
      <use xlink:href="#DejaVuSans-Oblique-78" transform="translate(0 0.3125)"/>
     </g>
    </g>
   </g>
   <g id="matplotlib.axis_2">
    <g id="ytick_1">
     <g id="line2d_10">
      <defs>
       <path id="m66182dbb2b" d="M 0 0 
L -4.8 0 
" style="stroke: #262626"/>
      </defs>
      <g>
       <use xlink:href="#m66182dbb2b" x="38.312875" y="245.639182" style="fill: #262626; stroke: #262626"/>
      </g>
     </g>
     <g id="text_11">
      <!-- −1 -->
      <g style="fill: #262626" transform="translate(19.9795 248.78862) scale(0.088 -0.088)">
       <use xlink:href="#ArialMT-2212"/>
       <use xlink:href="#ArialMT-31" x="58.398438"/>
      </g>
     </g>
    </g>
    <g id="ytick_2">
     <g id="line2d_11">
      <g>
       <use xlink:href="#m66182dbb2b" x="38.312875" y="197.198" style="fill: #262626; stroke: #262626"/>
      </g>
     </g>
     <g id="text_12">
      <!-- 0 -->
      <g style="fill: #262626" transform="translate(25.11925 200.347438) scale(0.088 -0.088)">
       <use xlink:href="#ArialMT-30"/>
      </g>
     </g>
    </g>
    <g id="ytick_3">
     <g id="line2d_12">
      <g>
       <use xlink:href="#m66182dbb2b" x="38.312875" y="148.756818" style="fill: #262626; stroke: #262626"/>
      </g>
     </g>
     <g id="text_13">
      <!-- 1 -->
      <g style="fill: #262626" transform="translate(25.11925 151.906255) scale(0.088 -0.088)">
       <use xlink:href="#ArialMT-31"/>
      </g>
     </g>
    </g>
    <g id="ytick_4">
     <g id="line2d_13">
      <g>
       <use xlink:href="#m66182dbb2b" x="38.312875" y="100.315636" style="fill: #262626; stroke: #262626"/>
      </g>
     </g>
     <g id="text_14">
      <!-- 2 -->
      <g style="fill: #262626" transform="translate(25.11925 103.465073) scale(0.088 -0.088)">
       <use xlink:href="#ArialMT-32"/>
      </g>
     </g>
    </g>
    <g id="ytick_5">
     <g id="line2d_14">
      <g>
       <use xlink:href="#m66182dbb2b" x="38.312875" y="51.874454" style="fill: #262626; stroke: #262626"/>
      </g>
     </g>
     <g id="text_15">
      <!-- 3 -->
      <g style="fill: #262626" transform="translate(25.11925 55.023891) scale(0.088 -0.088)">
       <defs>
        <path id="ArialMT-33" d="M 269 1209 
L 831 1284 
Q 928 806 1161 595 
Q 1394 384 1728 384 
Q 2125 384 2398 659 
Q 2672 934 2672 1341 
Q 2672 1728 2419 1979 
Q 2166 2231 1775 2231 
Q 1616 2231 1378 2169 
L 1441 2663 
Q 1497 2656 1531 2656 
Q 1891 2656 2178 2843 
Q 2466 3031 2466 3422 
Q 2466 3731 2256 3934 
Q 2047 4138 1716 4138 
Q 1388 4138 1169 3931 
Q 950 3725 888 3313 
L 325 3413 
Q 428 3978 793 4289 
Q 1159 4600 1703 4600 
Q 2078 4600 2393 4439 
Q 2709 4278 2876 4000 
Q 3044 3722 3044 3409 
Q 3044 3113 2884 2869 
Q 2725 2625 2413 2481 
Q 2819 2388 3044 2092 
Q 3269 1797 3269 1353 
Q 3269 753 2831 336 
Q 2394 -81 1725 -81 
Q 1122 -81 723 278 
Q 325 638 269 1209 
z
" transform="scale(0.015625)"/>
       </defs>
       <use xlink:href="#ArialMT-33"/>
      </g>
     </g>
    </g>
    <g id="text_16">
     <!-- $y$ -->
     <g style="fill: #262626" transform="translate(13.9635 143.136) rotate(-90) scale(0.096 -0.096)">
      <defs>
       <path id="DejaVuSans-Oblique-79" d="M 1588 -325 
Q 1188 -997 936 -1164 
Q 684 -1331 294 -1331 
L -159 -1331 
L -63 -850 
L 269 -850 
Q 509 -850 678 -719 
Q 847 -588 1056 -206 
L 1234 128 
L 459 3500 
L 1069 3500 
L 1650 819 
L 3256 3500 
L 3859 3500 
L 1588 -325 
z
" transform="scale(0.015625)"/>
      </defs>
      <use xlink:href="#DejaVuSans-Oblique-79" transform="translate(0 0.3125)"/>
     </g>
    </g>
   </g>
   <g id="PolyCollection_1">
    <defs>
     <path id="m087c4e4eb8" d="M 54.545602 -156.721599 
L 54.545602 -60.974275 
L 57.824941 -60.718831 
L 61.10428 -60.480315 
L 64.383619 -60.259069 
L 67.662958 -60.055321 
L 70.942296 -59.869157 
L 74.221635 -59.700483 
L 77.500974 -59.548973 
L 80.780313 -59.414008 
L 84.059652 -59.294586 
L 87.338991 -59.189207 
L 90.61833 -59.095717 
L 93.897668 -59.011102 
L 97.177007 -58.931217 
L 100.456346 -58.850439 
L 103.735685 -58.761254 
L 107.015024 -58.653843 
L 110.294363 -58.515823 
L 113.573701 -58.33253 
L 116.85304 -58.088476 
L 120.132379 -57.770688 
L 123.411718 -57.373887 
L 126.691057 -56.905614 
L 129.970396 -56.387896 
L 133.249735 -55.853567 
L 136.529073 -55.339275 
L 139.808412 -54.879138 
L 143.087751 -54.501295 
L 146.36709 -54.22714 
L 149.646429 -54.07204 
L 152.925768 -54.046531 
L 156.205106 -54.157494 
L 159.484445 -54.409106 
L 162.763784 -54.803567 
L 166.043123 -55.341626 
L 169.322462 -56.022964 
L 172.601801 -56.846459 
L 175.881139 -57.810381 
L 179.160478 -58.912531 
L 182.439817 -60.150337 
L 185.719156 -61.520926 
L 188.998495 -63.021169 
L 192.277834 -64.647719 
L 195.557173 -66.397031 
L 198.836511 -68.265371 
L 202.11585 -70.248821 
L 205.395189 -72.343276 
L 208.674528 -74.544435 
L 211.953867 -76.847779 
L 215.233206 -79.248561 
L 218.512544 -81.741773 
L 221.791883 -84.322127 
L 225.071222 -86.984036 
L 228.350561 -89.721599 
L 231.6299 -92.528619 
L 234.909239 -95.398647 
L 238.188577 -98.325088 
L 241.467916 -101.301375 
L 244.747255 -104.321237 
L 248.026594 -107.379034 
L 251.305933 -110.47015 
L 254.585272 -113.591358 
L 257.864611 -116.741074 
L 261.143949 -119.919439 
L 264.423288 -123.128189 
L 267.702627 -126.370345 
L 270.981966 -129.649816 
L 274.261305 -132.970982 
L 277.540644 -136.33834 
L 280.819982 -139.756236 
L 284.099321 -143.228691 
L 287.37866 -146.759304 
L 290.657999 -150.351201 
L 293.937338 -154.007025 
L 297.216677 -157.728936 
L 300.496015 -161.51862 
L 303.775354 -165.37728 
L 307.054693 -169.30563 
L 310.334032 -173.303854 
L 313.613371 -177.371558 
L 316.89271 -181.507676 
L 320.172049 -185.710351 
L 323.451387 -189.976768 
L 326.730726 -194.302929 
L 330.010065 -198.683371 
L 333.289404 -203.110827 
L 336.568743 -207.575831 
L 339.848082 -212.066343 
L 343.12742 -216.567462 
L 346.406759 -221.061427 
L 349.686098 -225.528102 
L 352.965437 -229.946137 
L 356.244776 -234.294758 
L 359.524115 -238.55583 
L 362.803454 -242.715504 
L 366.082792 -246.764907 
L 369.362131 -250.699707 
L 372.64147 -254.518956 
L 375.920809 -258.223722 
L 379.200148 -261.815926 
L 379.200148 -286.101567 
L 379.200148 -286.101567 
L 375.920809 -280.219632 
L 372.64147 -274.487789 
L 369.362131 -268.910674 
L 366.082792 -263.492068 
L 362.803454 -258.233737 
L 359.524115 -253.134064 
L 356.244776 -248.186888 
L 352.965437 -243.381075 
L 349.686098 -238.701202 
L 346.406759 -234.129212 
L 343.12742 -229.646466 
L 339.848082 -225.235543 
L 336.568743 -220.881395 
L 333.289404 -216.571837 
L 330.010065 -212.297539 
L 326.730726 -208.051753 
L 323.451387 -203.829922 
L 320.172049 -199.629299 
L 316.89271 -195.4486 
L 313.613371 -191.287722 
L 310.334032 -187.147523 
L 307.054693 -183.029652 
L 303.775354 -178.936427 
L 300.496015 -174.870746 
L 297.216677 -170.836037 
L 293.937338 -166.836217 
L 290.657999 -162.875686 
L 287.37866 -158.959317 
L 284.099321 -155.092467 
L 280.819982 -151.280978 
L 277.540644 -147.531159 
L 274.261305 -143.849747 
L 270.981966 -140.243802 
L 267.702627 -136.720534 
L 264.423288 -133.287037 
L 261.143949 -129.949934 
L 257.864611 -126.71496 
L 254.585272 -123.586564 
L 251.305933 -120.567601 
L 248.026594 -117.659202 
L 244.747255 -114.860853 
L 241.467916 -112.17065 
L 238.188577 -109.58567 
L 234.909239 -107.102353 
L 231.6299 -104.716848 
L 228.350561 -102.425273 
L 225.071222 -100.223893 
L 221.791883 -98.109223 
L 218.512544 -96.078079 
L 215.233206 -94.127585 
L 211.953867 -92.255167 
L 208.674528 -90.458534 
L 205.395189 -88.735648 
L 202.11585 -87.084708 
L 198.836511 -85.504124 
L 195.557173 -83.992506 
L 192.277834 -82.54865 
L 188.998495 -81.171535 
L 185.719156 -79.860331 
L 182.439817 -78.614403 
L 179.160478 -77.433337 
L 175.881139 -76.316974 
L 172.601801 -75.265456 
L 169.322462 -74.279296 
L 166.043123 -73.359479 
L 162.763784 -72.507598 
L 159.484445 -71.726046 
L 156.205106 -71.018286 
L 152.925768 -70.389232 
L 149.646429 -69.845777 
L 146.36709 -69.397512 
L 143.087751 -69.057689 
L 139.808412 -68.844388 
L 136.529073 -68.781717 
L 133.249735 -68.90053 
L 129.970396 -69.237658 
L 126.691057 -69.832462 
L 123.411718 -70.720489 
L 120.132379 -71.926483 
L 116.85304 -73.460696 
L 113.573701 -75.320564 
L 110.294363 -77.495828 
L 107.015024 -79.973713 
L 103.735685 -82.742269 
L 100.456346 -85.791828 
L 97.177007 -89.115282 
L 93.897668 -92.707834 
L 90.61833 -96.566574 
L 87.338991 -100.690069 
L 84.059652 -105.078019 
L 80.780313 -109.730986 
L 77.500974 -114.650182 
L 74.221635 -119.83732 
L 70.942296 -125.294494 
L 67.662958 -131.024092 
L 64.383619 -137.028733 
L 61.10428 -143.311218 
L 57.824941 -149.874488 
L 54.545602 -156.721599 
z
" style="stroke: #ff0000; stroke-opacity: 0.25; stroke-width: 0.8"/>
    </defs>
    <g clip-path="url(#pb1d5788cec)">
     <use xlink:href="#m087c4e4eb8" x="0" y="309.639375" style="fill: #ff0000; fill-opacity: 0.25; stroke: #ff0000; stroke-opacity: 0.25; stroke-width: 0.8"/>
    </g>
   </g>
   <g id="PolyCollection_2">
    <defs>
     <path id="mdb7207d25e" d="M 54.545602 -60.974275 
L 54.545602 -59.726704 
L 57.824941 -59.381621 
L 61.10428 -59.044307 
L 64.383619 -58.713921 
L 67.662958 -58.389342 
L 70.942296 -58.069123 
L 74.221635 -57.751441 
L 77.500974 -57.434046 
L 80.780313 -57.11421 
L 84.059652 -56.788692 
L 87.338991 -56.45372 
L 90.61833 -56.105026 
L 93.897668 -55.737952 
L 97.177007 -55.347667 
L 100.456346 -54.929539 
L 103.735685 -54.479693 
L 107.015024 -53.995744 
L 110.294363 -53.477642 
L 113.573701 -52.928479 
L 116.85304 -52.355039 
L 120.132379 -51.76789 
L 123.411718 -51.180918 
L 126.691057 -50.610362 
L 129.970396 -50.073583 
L 133.249735 -49.587843 
L 136.529073 -49.169306 
L 139.808412 -48.832373 
L 143.087751 -48.589339 
L 146.36709 -48.450327 
L 149.646429 -48.423375 
L 152.925768 -48.514637 
L 156.205106 -48.728614 
L 159.484445 -49.068395 
L 162.763784 -49.535875 
L 166.043123 -50.131948 
L 169.322462 -50.856677 
L 172.601801 -51.709431 
L 175.881139 -52.688996 
L 179.160478 -53.793677 
L 182.439817 -55.021368 
L 185.719156 -56.369615 
L 188.998495 -57.835675 
L 192.277834 -59.416549 
L 195.557173 -61.109026 
L 198.836511 -62.909712 
L 202.11585 -64.815059 
L 205.395189 -66.821393 
L 208.674528 -68.924938 
L 211.953867 -71.121847 
L 215.233206 -73.408227 
L 218.512544 -75.780174 
L 221.791883 -78.233804 
L 225.071222 -80.765296 
L 228.350561 -83.370925 
L 231.6299 -86.047115 
L 234.909239 -88.790478 
L 238.188577 -91.597865 
L 241.467916 -94.466406 
L 244.747255 -97.393552 
L 248.026594 -100.377107 
L 251.305933 -103.415257 
L 254.585272 -106.506577 
L 257.864611 -109.650038 
L 261.143949 -112.844994 
L 264.423288 -116.091157 
L 267.702627 -119.388566 
L 270.981966 -122.737546 
L 274.261305 -126.138655 
L 277.540644 -129.592636 
L 280.819982 -133.100359 
L 284.099321 -136.662769 
L 287.37866 -140.280835 
L 290.657999 -143.955496 
L 293.937338 -147.687611 
L 297.216677 -151.477918 
L 300.496015 -155.32698 
L 303.775354 -159.235144 
L 307.054693 -163.202489 
L 310.334032 -167.228776 
L 313.613371 -171.313386 
L 316.89271 -175.455262 
L 320.172049 -179.652827 
L 323.451387 -183.903905 
L 326.730726 -188.205621 
L 330.010065 -192.55429 
L 333.289404 -196.945299 
L 336.568743 -201.372974 
L 339.848082 -205.830455 
L 343.12742 -210.30958 
L 346.406759 -214.800801 
L 349.686098 -219.293162 
L 352.965437 -223.774372 
L 356.244776 -228.230989 
L 359.524115 -232.648766 
L 362.803454 -237.013126 
L 366.082792 -241.309752 
L 369.362131 -245.525211 
L 372.64147 -249.647514 
L 375.920809 -253.666517 
L 379.200148 -257.574118 
L 379.200148 -261.815926 
L 379.200148 -261.815926 
L 375.920809 -258.223722 
L 372.64147 -254.518956 
L 369.362131 -250.699707 
L 366.082792 -246.764907 
L 362.803454 -242.715504 
L 359.524115 -238.55583 
L 356.244776 -234.294758 
L 352.965437 -229.946137 
L 349.686098 -225.528102 
L 346.406759 -221.061427 
L 343.12742 -216.567462 
L 339.848082 -212.066343 
L 336.568743 -207.575831 
L 333.289404 -203.110827 
L 330.010065 -198.683371 
L 326.730726 -194.302929 
L 323.451387 -189.976768 
L 320.172049 -185.710351 
L 316.89271 -181.507676 
L 313.613371 -177.371558 
L 310.334032 -173.303854 
L 307.054693 -169.30563 
L 303.775354 -165.37728 
L 300.496015 -161.51862 
L 297.216677 -157.728936 
L 293.937338 -154.007025 
L 290.657999 -150.351201 
L 287.37866 -146.759304 
L 284.099321 -143.228691 
L 280.819982 -139.756236 
L 277.540644 -136.33834 
L 274.261305 -132.970982 
L 270.981966 -129.649816 
L 267.702627 -126.370345 
L 264.423288 -123.128189 
L 261.143949 -119.919439 
L 257.864611 -116.741074 
L 254.585272 -113.591358 
L 251.305933 -110.47015 
L 248.026594 -107.379034 
L 244.747255 -104.321237 
L 241.467916 -101.301375 
L 238.188577 -98.325088 
L 234.909239 -95.398647 
L 231.6299 -92.528619 
L 228.350561 -89.721599 
L 225.071222 -86.984036 
L 221.791883 -84.322127 
L 218.512544 -81.741773 
L 215.233206 -79.248561 
L 211.953867 -76.847779 
L 208.674528 -74.544435 
L 205.395189 -72.343276 
L 202.11585 -70.248821 
L 198.836511 -68.265371 
L 195.557173 -66.397031 
L 192.277834 -64.647719 
L 188.998495 -63.021169 
L 185.719156 -61.520926 
L 182.439817 -60.150337 
L 179.160478 -58.912531 
L 175.881139 -57.810381 
L 172.601801 -56.846459 
L 169.322462 -56.022964 
L 166.043123 -55.341626 
L 162.763784 -54.803567 
L 159.484445 -54.409106 
L 156.205106 -54.157494 
L 152.925768 -54.046531 
L 149.646429 -54.07204 
L 146.36709 -54.22714 
L 143.087751 -54.501295 
L 139.808412 -54.879138 
L 136.529073 -55.339275 
L 133.249735 -55.853567 
L 129.970396 -56.387896 
L 126.691057 -56.905614 
L 123.411718 -57.373887 
L 120.132379 -57.770688 
L 116.85304 -58.088476 
L 113.573701 -58.33253 
L 110.294363 -58.515823 
L 107.015024 -58.653843 
L 103.735685 -58.761254 
L 100.456346 -58.850439 
L 97.177007 -58.931217 
L 93.897668 -59.011102 
L 90.61833 -59.095717 
L 87.338991 -59.189207 
L 84.059652 -59.294586 
L 80.780313 -59.414008 
L 77.500974 -59.548973 
L 74.221635 -59.700483 
L 70.942296 -59.869157 
L 67.662958 -60.055321 
L 64.383619 -60.259069 
L 61.10428 -60.480315 
L 57.824941 -60.718831 
L 54.545602 -60.974275 
z
" style="stroke: #008000; stroke-opacity: 0.25; stroke-width: 0.8"/>
    </defs>
    <g clip-path="url(#pb1d5788cec)">
     <use xlink:href="#mdb7207d25e" x="0" y="309.639375" style="fill: #008000; fill-opacity: 0.25; stroke: #008000; stroke-opacity: 0.25; stroke-width: 0.8"/>
    </g>
   </g>
   <g id="PolyCollection_3">
    <defs>
     <path id="m108e9aaa98" d="M 54.545602 -157.96917 
L 54.545602 -156.721599 
L 57.824941 -149.874488 
L 61.10428 -143.311218 
L 64.383619 -137.028733 
L 67.662958 -131.024092 
L 70.942296 -125.294494 
L 74.221635 -119.83732 
L 77.500974 -114.650182 
L 80.780313 -109.730986 
L 84.059652 -105.078019 
L 87.338991 -100.690069 
L 90.61833 -96.566574 
L 93.897668 -92.707834 
L 97.177007 -89.115282 
L 100.456346 -85.791828 
L 103.735685 -82.742269 
L 107.015024 -79.973713 
L 110.294363 -77.495828 
L 113.573701 -75.320564 
L 116.85304 -73.460696 
L 120.132379 -71.926483 
L 123.411718 -70.720489 
L 126.691057 -69.832462 
L 129.970396 -69.237658 
L 133.249735 -68.90053 
L 136.529073 -68.781717 
L 139.808412 -68.844388 
L 143.087751 -69.057689 
L 146.36709 -69.397512 
L 149.646429 -69.845777 
L 152.925768 -70.389232 
L 156.205106 -71.018286 
L 159.484445 -71.726046 
L 162.763784 -72.507598 
L 166.043123 -73.359479 
L 169.322462 -74.279296 
L 172.601801 -75.265456 
L 175.881139 -76.316974 
L 179.160478 -77.433337 
L 182.439817 -78.614403 
L 185.719156 -79.860331 
L 188.998495 -81.171535 
L 192.277834 -82.54865 
L 195.557173 -83.992506 
L 198.836511 -85.504124 
L 202.11585 -87.084708 
L 205.395189 -88.735648 
L 208.674528 -90.458534 
L 211.953867 -92.255167 
L 215.233206 -94.127585 
L 218.512544 -96.078079 
L 221.791883 -98.109223 
L 225.071222 -100.223893 
L 228.350561 -102.425273 
L 231.6299 -104.716848 
L 234.909239 -107.102353 
L 238.188577 -109.58567 
L 241.467916 -112.17065 
L 244.747255 -114.860853 
L 248.026594 -117.659202 
L 251.305933 -120.567601 
L 254.585272 -123.586564 
L 257.864611 -126.71496 
L 261.143949 -129.949934 
L 264.423288 -133.287037 
L 267.702627 -136.720534 
L 270.981966 -140.243802 
L 274.261305 -143.849747 
L 277.540644 -147.531159 
L 280.819982 -151.280978 
L 284.099321 -155.092467 
L 287.37866 -158.959317 
L 290.657999 -162.875686 
L 293.937338 -166.836217 
L 297.216677 -170.836037 
L 300.496015 -174.870746 
L 303.775354 -178.936427 
L 307.054693 -183.029652 
L 310.334032 -187.147523 
L 313.613371 -191.287722 
L 316.89271 -195.4486 
L 320.172049 -199.629299 
L 323.451387 -203.829922 
L 326.730726 -208.051753 
L 330.010065 -212.297539 
L 333.289404 -216.571837 
L 336.568743 -220.881395 
L 339.848082 -225.235543 
L 343.12742 -229.646466 
L 346.406759 -234.129212 
L 349.686098 -238.701202 
L 352.965437 -243.381075 
L 356.244776 -248.186888 
L 359.524115 -253.134064 
L 362.803454 -258.233737 
L 366.082792 -263.492068 
L 369.362131 -268.910674 
L 372.64147 -274.487789 
L 375.920809 -280.219632 
L 379.200148 -286.101567 
L 379.200148 -290.343375 
L 379.200148 -290.343375 
L 375.920809 -284.776836 
L 372.64147 -279.359231 
L 369.362131 -274.085169 
L 366.082792 -268.947223 
L 362.803454 -263.936116 
L 359.524115 -259.041128 
L 356.244776 -254.250657 
L 352.965437 -249.55284 
L 349.686098 -244.936142 
L 346.406759 -240.389839 
L 343.12742 -235.904349 
L 339.848082 -231.471432 
L 336.568743 -227.084253 
L 333.289404 -222.737365 
L 330.010065 -218.42662 
L 326.730726 -214.14906 
L 323.451387 -209.902785 
L 320.172049 -205.686823 
L 316.89271 -201.501014 
L 313.613371 -197.345894 
L 310.334032 -193.222602 
L 307.054693 -189.132793 
L 303.775354 -185.078563 
L 300.496015 -181.062386 
L 297.216677 -177.087055 
L 293.937338 -173.155631 
L 290.657999 -169.271391 
L 287.37866 -165.437786 
L 284.099321 -161.658389 
L 280.819982 -157.936855 
L 277.540644 -154.276863 
L 274.261305 -150.682074 
L 270.981966 -147.156072 
L 267.702627 -143.702313 
L 264.423288 -140.324069 
L 261.143949 -137.024379 
L 257.864611 -133.805995 
L 254.585272 -130.671345 
L 251.305933 -127.622495 
L 248.026594 -124.661129 
L 244.747255 -121.788538 
L 241.467916 -119.005619 
L 238.188577 -116.312893 
L 234.909239 -113.710522 
L 231.6299 -111.198353 
L 228.350561 -108.775948 
L 225.071222 -106.442633 
L 221.791883 -104.197546 
L 218.512544 -102.039678 
L 215.233206 -99.967919 
L 211.953867 -97.9811 
L 208.674528 -96.07803 
L 205.395189 -94.257531 
L 202.11585 -92.51847 
L 198.836511 -90.859783 
L 195.557173 -89.280511 
L 192.277834 -87.77982 
L 188.998495 -86.357029 
L 185.719156 -85.011641 
L 182.439817 -83.743372 
L 179.160478 -82.552191 
L 175.881139 -81.438359 
L 172.601801 -80.402484 
L 169.322462 -79.445583 
L 166.043123 -78.569158 
L 162.763784 -77.77529 
L 159.484445 -77.066757 
L 156.205106 -76.447166 
L 152.925768 -75.921127 
L 149.646429 -75.494441 
L 146.36709 -75.174325 
L 143.087751 -74.969644 
L 139.808412 -74.891154 
L 136.529073 -74.951686 
L 133.249735 -75.166254 
L 129.970396 -75.551971 
L 126.691057 -76.127714 
L 123.411718 -76.913458 
L 120.132379 -77.929281 
L 116.85304 -79.194134 
L 113.573701 -80.724615 
L 110.294363 -82.534009 
L 107.015024 -84.631812 
L 103.735685 -87.023831 
L 100.456346 -89.712728 
L 97.177007 -92.698833 
L 93.897668 -95.980984 
L 90.61833 -99.557264 
L 87.338991 -103.425556 
L 84.059652 -107.583914 
L 80.780313 -112.030784 
L 77.500974 -116.765109 
L 74.221635 -121.786362 
L 70.942296 -127.094528 
L 67.662958 -132.690071 
L 64.383619 -138.573881 
L 61.10428 -144.747226 
L 57.824941 -151.211698 
L 54.545602 -157.96917 
z
" style="stroke: #008000; stroke-opacity: 0.25; stroke-width: 0.8"/>
    </defs>
    <g clip-path="url(#pb1d5788cec)">
     <use xlink:href="#m108e9aaa98" x="0" y="309.639375" style="fill: #008000; fill-opacity: 0.25; stroke: #008000; stroke-opacity: 0.25; stroke-width: 0.8"/>
    </g>
   </g>
   <g id="line2d_15">
    <path d="M 54.545602 200.791438 
L 57.824941 204.342715 
L 61.10428 207.743609 
L 64.383619 210.995474 
L 67.662958 214.099669 
L 70.942296 217.05755 
L 74.221635 219.870474 
L 77.500974 222.539797 
L 80.780313 225.066878 
L 84.059652 227.453072 
L 87.338991 229.699737 
L 90.61833 231.80823 
L 93.897668 233.779907 
L 97.177007 235.616125 
L 100.456346 237.318242 
L 103.735685 238.887613 
L 107.015024 240.325597 
L 110.294363 241.633549 
L 113.573701 242.812828 
L 116.85304 243.864789 
L 120.132379 244.79079 
L 123.411718 245.592187 
L 126.691057 246.270337 
L 129.970396 246.826598 
L 133.249735 247.262326 
L 136.529073 247.578879 
L 139.808412 247.777612 
L 143.087751 247.859883 
L 146.36709 247.827049 
L 149.646429 247.680467 
L 152.925768 247.421493 
L 156.205106 247.051485 
L 159.484445 246.571799 
L 162.763784 245.983793 
L 166.043123 245.288822 
L 169.322462 244.488245 
L 172.601801 243.583418 
L 175.881139 242.575697 
L 179.160478 241.466441 
L 182.439817 240.257005 
L 185.719156 238.948747 
L 188.998495 237.543023 
L 192.277834 236.041191 
L 195.557173 234.444606 
L 198.836511 232.754627 
L 202.11585 230.972611 
L 205.395189 229.099913 
L 208.674528 227.137891 
L 211.953867 225.087902 
L 215.233206 222.951302 
L 218.512544 220.729449 
L 221.791883 218.4237 
L 225.071222 216.035411 
L 228.350561 213.565939 
L 231.6299 211.016641 
L 234.909239 208.388875 
L 238.188577 205.683996 
L 241.467916 202.903362 
L 244.747255 200.04833 
L 248.026594 197.120257 
L 251.305933 194.120499 
L 254.585272 191.050414 
L 257.864611 187.911358 
L 261.143949 184.704688 
L 264.423288 181.431762 
L 267.702627 178.093935 
L 270.981966 174.692566 
L 274.261305 171.22901 
L 277.540644 167.704626 
L 280.819982 164.120768 
L 284.099321 160.478796 
L 287.37866 156.780064 
L 290.657999 153.025932 
L 293.937338 149.217754 
L 297.216677 145.356889 
L 300.496015 141.444692 
L 303.775354 137.482522 
L 307.054693 133.471734 
L 310.334032 129.413686 
L 313.613371 125.309735 
L 316.89271 121.161237 
L 320.172049 116.96955 
L 323.451387 112.73603 
L 326.730726 108.462034 
L 330.010065 104.14892 
L 333.289404 99.798043 
L 336.568743 95.410762 
L 339.848082 90.988432 
L 343.12742 86.532411 
L 346.406759 82.044055 
L 349.686098 77.524723 
L 352.965437 72.975769 
L 356.244776 68.398552 
L 359.524115 63.794428 
L 362.803454 59.164754 
L 366.082792 54.510888 
L 369.362131 49.834185 
L 372.64147 45.136003 
L 375.920809 40.417698 
L 379.200148 35.680629 
" clip-path="url(#pb1d5788cec)" style="fill: none; stroke: #ff0000; stroke-width: 1.2; stroke-linecap: round"/>
   </g>
   <g id="line2d_16">
    <defs>
     <path id="m7bc6450672" d="M -2.4 2.4 
L 2.4 -2.4 
M -2.4 -2.4 
L 2.4 2.4 
" style="stroke: #000000"/>
    </defs>
    <g clip-path="url(#pb1d5788cec)">
     <use xlink:href="#m7bc6450672" x="356.349692" y="61.768894" style="stroke: #000000"/>
     <use xlink:href="#m7bc6450672" x="157.258364" y="250.210886" style="stroke: #000000"/>
     <use xlink:href="#m7bc6450672" x="114.25568" y="242.614856" style="stroke: #000000"/>
     <use xlink:href="#m7bc6450672" x="120.957027" y="243.730143" style="stroke: #000000"/>
     <use xlink:href="#m7bc6450672" x="238.860114" y="199.964707" style="stroke: #000000"/>
     <use xlink:href="#m7bc6450672" x="247.891897" y="195.073754" style="stroke: #000000"/>
     <use xlink:href="#m7bc6450672" x="367.679625" y="57.489549" style="stroke: #000000"/>
     <use xlink:href="#m7bc6450672" x="266.602516" y="184.446832" style="stroke: #000000"/>
     <use xlink:href="#m7bc6450672" x="297.681546" y="141.095109" style="stroke: #000000"/>
     <use xlink:href="#m7bc6450672" x="266.730032" y="184.64727" style="stroke: #000000"/>
    </g>
   </g>
   <g id="line2d_17">
    <path d="M 54.545602 221.418591 
L 57.824941 223.336271 
L 61.10428 225.174871 
L 64.383619 226.934391 
L 67.662958 228.614832 
L 70.942296 230.216194 
L 74.221635 231.738476 
L 77.500974 233.181678 
L 80.780313 234.545801 
L 84.059652 235.830844 
L 87.338991 237.036807 
L 90.61833 238.163691 
L 93.897668 239.211495 
L 97.177007 240.18022 
L 100.456346 241.069865 
L 103.735685 241.880431 
L 107.015024 242.611917 
L 110.294363 243.264324 
L 113.573701 243.837651 
L 116.85304 244.331898 
L 120.132379 244.747066 
L 123.411718 245.083154 
L 126.691057 245.340163 
L 129.970396 245.518092 
L 133.249735 245.616941 
L 136.529073 245.636711 
L 139.808412 245.577401 
L 143.087751 245.439012 
L 146.36709 245.221543 
L 149.646429 244.924995 
L 152.925768 244.549367 
L 156.205106 244.094659 
L 159.484445 243.560872 
L 162.763784 242.948005 
L 166.043123 242.256059 
L 169.322462 241.485033 
L 172.601801 240.634928 
L 175.881139 239.705743 
L 179.160478 238.697478 
L 182.439817 237.610134 
L 185.719156 236.44371 
L 188.998495 235.198207 
L 192.277834 233.873624 
L 195.557173 232.469962 
L 198.836511 230.98722 
L 202.11585 229.425398 
L 205.395189 227.784497 
L 208.674528 226.064516 
L 211.953867 224.265456 
L 215.233206 222.387316 
L 218.512544 220.430096 
L 221.791883 218.393797 
L 225.071222 216.278419 
L 228.350561 214.083961 
L 231.6299 211.810423 
L 234.909239 209.457805 
L 238.188577 207.026108 
L 241.467916 204.515332 
L 244.747255 201.925476 
L 248.026594 199.25654 
L 251.305933 196.508525 
L 254.585272 193.68143 
L 257.864611 190.775256 
L 261.143949 187.790002 
L 264.423288 184.725668 
L 267.702627 181.582255 
L 270.981966 178.359763 
L 274.261305 175.05819 
L 277.540644 171.677538 
L 280.819982 168.217807 
L 284.099321 164.678996 
L 287.37866 161.061106 
L 290.657999 157.364135 
L 293.937338 153.588086 
L 297.216677 149.732956 
L 300.496015 145.798748 
L 303.775354 141.785459 
L 307.054693 137.693091 
L 310.334032 133.521644 
L 313.613371 129.271116 
L 316.89271 124.94151 
L 320.172049 120.532823 
L 323.451387 116.045058 
L 326.730726 111.478212 
L 330.010065 106.832287 
L 333.289404 102.107282 
L 336.568743 97.303198 
L 339.848082 92.420035 
L 343.12742 87.457791 
L 346.406759 82.416468 
L 349.686098 77.296066 
L 352.965437 72.096584 
L 356.244776 66.818022 
L 359.524115 61.460381 
L 362.803454 56.02366 
L 366.082792 50.50786 
L 369.362131 44.91298 
L 372.64147 39.23902 
L 375.920809 33.485981 
L 379.200148 27.653863 
" clip-path="url(#pb1d5788cec)" style="fill: none; stroke-dasharray: 4.44,1.92; stroke-dashoffset: 0; stroke: #1f77b4; stroke-width: 1.2"/>
   </g>
   <g id="patch_3">
    <path d="M 38.312875 245.639182 
L 38.312875 51.874454 
" style="fill: none; stroke: #262626; stroke-linejoin: miter; stroke-linecap: square"/>
   </g>
   <g id="patch_4">
    <path d="M 54.545602 273.312 
L 379.200148 273.312 
" style="fill: none; stroke: #262626; stroke-linejoin: miter; stroke-linecap: square"/>
   </g>
   <g id="legend_1">
    <g id="line2d_18">
     <path d="M 46.232875 18.338875 
L 55.032875 18.338875 
L 63.832875 18.338875 
" style="fill: none; stroke: #ff0000; stroke-width: 1.2; stroke-linecap: round"/>
    </g>
    <g id="text_17">
     <!-- Posterior mean -->
     <g style="fill: #262626" transform="translate(70.872875 21.418875) scale(0.088 -0.088)">
      <defs>
       <path id="ArialMT-50" d="M 494 0 
L 494 4581 
L 2222 4581 
Q 2678 4581 2919 4538 
Q 3256 4481 3484 4323 
Q 3713 4166 3852 3881 
Q 3991 3597 3991 3256 
Q 3991 2672 3619 2267 
Q 3247 1863 2275 1863 
L 1100 1863 
L 1100 0 
L 494 0 
z
M 1100 2403 
L 2284 2403 
Q 2872 2403 3119 2622 
Q 3366 2841 3366 3238 
Q 3366 3525 3220 3729 
Q 3075 3934 2838 4000 
Q 2684 4041 2272 4041 
L 1100 4041 
L 1100 2403 
z
" transform="scale(0.015625)"/>
       <path id="ArialMT-6f" d="M 213 1659 
Q 213 2581 725 3025 
Q 1153 3394 1769 3394 
Q 2453 3394 2887 2945 
Q 3322 2497 3322 1706 
Q 3322 1066 3130 698 
Q 2938 331 2570 128 
Q 2203 -75 1769 -75 
Q 1072 -75 642 372 
Q 213 819 213 1659 
z
M 791 1659 
Q 791 1022 1069 705 
Q 1347 388 1769 388 
Q 2188 388 2466 706 
Q 2744 1025 2744 1678 
Q 2744 2294 2464 2611 
Q 2184 2928 1769 2928 
Q 1347 2928 1069 2612 
Q 791 2297 791 1659 
z
" transform="scale(0.015625)"/>
       <path id="ArialMT-73" d="M 197 991 
L 753 1078 
Q 800 744 1014 566 
Q 1228 388 1613 388 
Q 2000 388 2187 545 
Q 2375 703 2375 916 
Q 2375 1106 2209 1216 
Q 2094 1291 1634 1406 
Q 1016 1563 777 1677 
Q 538 1791 414 1992 
Q 291 2194 291 2438 
Q 291 2659 392 2848 
Q 494 3038 669 3163 
Q 800 3259 1026 3326 
Q 1253 3394 1513 3394 
Q 1903 3394 2198 3281 
Q 2494 3169 2634 2976 
Q 2775 2784 2828 2463 
L 2278 2388 
Q 2241 2644 2061 2787 
Q 1881 2931 1553 2931 
Q 1166 2931 1000 2803 
Q 834 2675 834 2503 
Q 834 2394 903 2306 
Q 972 2216 1119 2156 
Q 1203 2125 1616 2013 
Q 2213 1853 2448 1751 
Q 2684 1650 2818 1456 
Q 2953 1263 2953 975 
Q 2953 694 2789 445 
Q 2625 197 2315 61 
Q 2006 -75 1616 -75 
Q 969 -75 630 194 
Q 291 463 197 991 
z
" transform="scale(0.015625)"/>
       <path id="ArialMT-74" d="M 1650 503 
L 1731 6 
Q 1494 -44 1306 -44 
Q 1000 -44 831 53 
Q 663 150 594 308 
Q 525 466 525 972 
L 525 2881 
L 113 2881 
L 113 3319 
L 525 3319 
L 525 4141 
L 1084 4478 
L 1084 3319 
L 1650 3319 
L 1650 2881 
L 1084 2881 
L 1084 941 
Q 1084 700 1114 631 
Q 1144 563 1211 522 
Q 1278 481 1403 481 
Q 1497 481 1650 503 
z
" transform="scale(0.015625)"/>
       <path id="ArialMT-65" d="M 2694 1069 
L 3275 997 
Q 3138 488 2766 206 
Q 2394 -75 1816 -75 
Q 1088 -75 661 373 
Q 234 822 234 1631 
Q 234 2469 665 2931 
Q 1097 3394 1784 3394 
Q 2450 3394 2872 2941 
Q 3294 2488 3294 1666 
Q 3294 1616 3291 1516 
L 816 1516 
Q 847 969 1125 678 
Q 1403 388 1819 388 
Q 2128 388 2347 550 
Q 2566 713 2694 1069 
z
M 847 1978 
L 2700 1978 
Q 2663 2397 2488 2606 
Q 2219 2931 1791 2931 
Q 1403 2931 1139 2672 
Q 875 2413 847 1978 
z
" transform="scale(0.015625)"/>
       <path id="ArialMT-72" d="M 416 0 
L 416 3319 
L 922 3319 
L 922 2816 
Q 1116 3169 1280 3281 
Q 1444 3394 1641 3394 
Q 1925 3394 2219 3213 
L 2025 2691 
Q 1819 2813 1613 2813 
Q 1428 2813 1281 2702 
Q 1134 2591 1072 2394 
Q 978 2094 978 1738 
L 978 0 
L 416 0 
z
" transform="scale(0.015625)"/>
       <path id="ArialMT-69" d="M 425 3934 
L 425 4581 
L 988 4581 
L 988 3934 
L 425 3934 
z
M 425 0 
L 425 3319 
L 988 3319 
L 988 0 
L 425 0 
z
" transform="scale(0.015625)"/>
       <path id="ArialMT-20" transform="scale(0.015625)"/>
       <path id="ArialMT-6d" d="M 422 0 
L 422 3319 
L 925 3319 
L 925 2853 
Q 1081 3097 1340 3245 
Q 1600 3394 1931 3394 
Q 2300 3394 2536 3241 
Q 2772 3088 2869 2813 
Q 3263 3394 3894 3394 
Q 4388 3394 4653 3120 
Q 4919 2847 4919 2278 
L 4919 0 
L 4359 0 
L 4359 2091 
Q 4359 2428 4304 2576 
Q 4250 2725 4106 2815 
Q 3963 2906 3769 2906 
Q 3419 2906 3187 2673 
Q 2956 2441 2956 1928 
L 2956 0 
L 2394 0 
L 2394 2156 
Q 2394 2531 2256 2718 
Q 2119 2906 1806 2906 
Q 1569 2906 1367 2781 
Q 1166 2656 1075 2415 
Q 984 2175 984 1722 
L 984 0 
L 422 0 
z
" transform="scale(0.015625)"/>
       <path id="ArialMT-61" d="M 2588 409 
Q 2275 144 1986 34 
Q 1697 -75 1366 -75 
Q 819 -75 525 192 
Q 231 459 231 875 
Q 231 1119 342 1320 
Q 453 1522 633 1644 
Q 813 1766 1038 1828 
Q 1203 1872 1538 1913 
Q 2219 1994 2541 2106 
Q 2544 2222 2544 2253 
Q 2544 2597 2384 2738 
Q 2169 2928 1744 2928 
Q 1347 2928 1158 2789 
Q 969 2650 878 2297 
L 328 2372 
Q 403 2725 575 2942 
Q 747 3159 1072 3276 
Q 1397 3394 1825 3394 
Q 2250 3394 2515 3294 
Q 2781 3194 2906 3042 
Q 3031 2891 3081 2659 
Q 3109 2516 3109 2141 
L 3109 1391 
Q 3109 606 3145 398 
Q 3181 191 3288 0 
L 2700 0 
Q 2613 175 2588 409 
z
M 2541 1666 
Q 2234 1541 1622 1453 
Q 1275 1403 1131 1340 
Q 988 1278 909 1158 
Q 831 1038 831 891 
Q 831 666 1001 516 
Q 1172 366 1500 366 
Q 1825 366 2078 508 
Q 2331 650 2450 897 
Q 2541 1088 2541 1459 
L 2541 1666 
z
" transform="scale(0.015625)"/>
       <path id="ArialMT-6e" d="M 422 0 
L 422 3319 
L 928 3319 
L 928 2847 
Q 1294 3394 1984 3394 
Q 2284 3394 2536 3286 
Q 2788 3178 2913 3003 
Q 3038 2828 3088 2588 
Q 3119 2431 3119 2041 
L 3119 0 
L 2556 0 
L 2556 2019 
Q 2556 2363 2490 2533 
Q 2425 2703 2258 2804 
Q 2091 2906 1866 2906 
Q 1506 2906 1245 2678 
Q 984 2450 984 1813 
L 984 0 
L 422 0 
z
" transform="scale(0.015625)"/>
      </defs>
      <use xlink:href="#ArialMT-50"/>
      <use xlink:href="#ArialMT-6f" x="66.699219"/>
      <use xlink:href="#ArialMT-73" x="122.314453"/>
      <use xlink:href="#ArialMT-74" x="172.314453"/>
      <use xlink:href="#ArialMT-65" x="200.097656"/>
      <use xlink:href="#ArialMT-72" x="255.712891"/>
      <use xlink:href="#ArialMT-69" x="289.013672"/>
      <use xlink:href="#ArialMT-6f" x="311.230469"/>
      <use xlink:href="#ArialMT-72" x="366.845703"/>
      <use xlink:href="#ArialMT-20" x="400.146484"/>
      <use xlink:href="#ArialMT-6d" x="427.929688"/>
      <use xlink:href="#ArialMT-65" x="511.230469"/>
      <use xlink:href="#ArialMT-61" x="566.845703"/>
      <use xlink:href="#ArialMT-6e" x="622.460938"/>
     </g>
    </g>
    <g id="patch_5">
     <path d="M 46.232875 33.974 
L 63.832875 33.974 
L 63.832875 27.814 
L 46.232875 27.814 
z
" style="fill: #ff0000; fill-opacity: 0.25; stroke: #ff0000; stroke-opacity: 0.25; stroke-width: 0.8; stroke-linejoin: miter"/>
    </g>
    <g id="text_18">
     <!-- 95% epistemic credible interval -->
     <g style="fill: #262626" transform="translate(70.872875 33.974) scale(0.088 -0.088)">
      <defs>
       <path id="ArialMT-39" d="M 350 1059 
L 891 1109 
Q 959 728 1153 556 
Q 1347 384 1650 384 
Q 1909 384 2104 503 
Q 2300 622 2425 820 
Q 2550 1019 2634 1356 
Q 2719 1694 2719 2044 
Q 2719 2081 2716 2156 
Q 2547 1888 2255 1720 
Q 1963 1553 1622 1553 
Q 1053 1553 659 1965 
Q 266 2378 266 3053 
Q 266 3750 677 4175 
Q 1088 4600 1706 4600 
Q 2153 4600 2523 4359 
Q 2894 4119 3086 3673 
Q 3278 3228 3278 2384 
Q 3278 1506 3087 986 
Q 2897 466 2520 194 
Q 2144 -78 1638 -78 
Q 1100 -78 759 220 
Q 419 519 350 1059 
z
M 2653 3081 
Q 2653 3566 2395 3850 
Q 2138 4134 1775 4134 
Q 1400 4134 1122 3828 
Q 844 3522 844 3034 
Q 844 2597 1108 2323 
Q 1372 2050 1759 2050 
Q 2150 2050 2401 2323 
Q 2653 2597 2653 3081 
z
" transform="scale(0.015625)"/>
       <path id="ArialMT-25" d="M 372 3481 
Q 372 3972 619 4315 
Q 866 4659 1334 4659 
Q 1766 4659 2048 4351 
Q 2331 4044 2331 3447 
Q 2331 2866 2045 2552 
Q 1759 2238 1341 2238 
Q 925 2238 648 2547 
Q 372 2856 372 3481 
z
M 1350 4272 
Q 1141 4272 1002 4090 
Q 863 3909 863 3425 
Q 863 2984 1003 2804 
Q 1144 2625 1350 2625 
Q 1563 2625 1702 2806 
Q 1841 2988 1841 3469 
Q 1841 3913 1700 4092 
Q 1559 4272 1350 4272 
z
M 1353 -169 
L 3859 4659 
L 4316 4659 
L 1819 -169 
L 1353 -169 
z
M 3334 1075 
Q 3334 1569 3581 1911 
Q 3828 2253 4300 2253 
Q 4731 2253 5014 1945 
Q 5297 1638 5297 1041 
Q 5297 459 5011 145 
Q 4725 -169 4303 -169 
Q 3888 -169 3611 142 
Q 3334 453 3334 1075 
z
M 4316 1866 
Q 4103 1866 3964 1684 
Q 3825 1503 3825 1019 
Q 3825 581 3965 400 
Q 4106 219 4313 219 
Q 4528 219 4667 400 
Q 4806 581 4806 1063 
Q 4806 1506 4665 1686 
Q 4525 1866 4316 1866 
z
" transform="scale(0.015625)"/>
       <path id="ArialMT-70" d="M 422 -1272 
L 422 3319 
L 934 3319 
L 934 2888 
Q 1116 3141 1344 3267 
Q 1572 3394 1897 3394 
Q 2322 3394 2647 3175 
Q 2972 2956 3137 2557 
Q 3303 2159 3303 1684 
Q 3303 1175 3120 767 
Q 2938 359 2589 142 
Q 2241 -75 1856 -75 
Q 1575 -75 1351 44 
Q 1128 163 984 344 
L 984 -1272 
L 422 -1272 
z
M 931 1641 
Q 931 1000 1190 694 
Q 1450 388 1819 388 
Q 2194 388 2461 705 
Q 2728 1022 2728 1688 
Q 2728 2322 2467 2637 
Q 2206 2953 1844 2953 
Q 1484 2953 1207 2617 
Q 931 2281 931 1641 
z
" transform="scale(0.015625)"/>
       <path id="ArialMT-63" d="M 2588 1216 
L 3141 1144 
Q 3050 572 2676 248 
Q 2303 -75 1759 -75 
Q 1078 -75 664 370 
Q 250 816 250 1647 
Q 250 2184 428 2587 
Q 606 2991 970 3192 
Q 1334 3394 1763 3394 
Q 2303 3394 2647 3120 
Q 2991 2847 3088 2344 
L 2541 2259 
Q 2463 2594 2264 2762 
Q 2066 2931 1784 2931 
Q 1359 2931 1093 2626 
Q 828 2322 828 1663 
Q 828 994 1084 691 
Q 1341 388 1753 388 
Q 2084 388 2306 591 
Q 2528 794 2588 1216 
z
" transform="scale(0.015625)"/>
       <path id="ArialMT-64" d="M 2575 0 
L 2575 419 
Q 2259 -75 1647 -75 
Q 1250 -75 917 144 
Q 584 363 401 755 
Q 219 1147 219 1656 
Q 219 2153 384 2558 
Q 550 2963 881 3178 
Q 1213 3394 1622 3394 
Q 1922 3394 2156 3267 
Q 2391 3141 2538 2938 
L 2538 4581 
L 3097 4581 
L 3097 0 
L 2575 0 
z
M 797 1656 
Q 797 1019 1065 703 
Q 1334 388 1700 388 
Q 2069 388 2326 689 
Q 2584 991 2584 1609 
Q 2584 2291 2321 2609 
Q 2059 2928 1675 2928 
Q 1300 2928 1048 2622 
Q 797 2316 797 1656 
z
" transform="scale(0.015625)"/>
       <path id="ArialMT-62" d="M 941 0 
L 419 0 
L 419 4581 
L 981 4581 
L 981 2947 
Q 1338 3394 1891 3394 
Q 2197 3394 2470 3270 
Q 2744 3147 2920 2923 
Q 3097 2700 3197 2384 
Q 3297 2069 3297 1709 
Q 3297 856 2875 390 
Q 2453 -75 1863 -75 
Q 1275 -75 941 416 
L 941 0 
z
M 934 1684 
Q 934 1088 1097 822 
Q 1363 388 1816 388 
Q 2184 388 2453 708 
Q 2722 1028 2722 1663 
Q 2722 2313 2464 2622 
Q 2206 2931 1841 2931 
Q 1472 2931 1203 2611 
Q 934 2291 934 1684 
z
" transform="scale(0.015625)"/>
       <path id="ArialMT-6c" d="M 409 0 
L 409 4581 
L 972 4581 
L 972 0 
L 409 0 
z
" transform="scale(0.015625)"/>
       <path id="ArialMT-76" d="M 1344 0 
L 81 3319 
L 675 3319 
L 1388 1331 
Q 1503 1009 1600 663 
Q 1675 925 1809 1294 
L 2547 3319 
L 3125 3319 
L 1869 0 
L 1344 0 
z
" transform="scale(0.015625)"/>
      </defs>
      <use xlink:href="#ArialMT-39"/>
      <use xlink:href="#ArialMT-35" x="55.615234"/>
      <use xlink:href="#ArialMT-25" x="111.230469"/>
      <use xlink:href="#ArialMT-20" x="200.146484"/>
      <use xlink:href="#ArialMT-65" x="227.929688"/>
      <use xlink:href="#ArialMT-70" x="283.544922"/>
      <use xlink:href="#ArialMT-69" x="339.160156"/>
      <use xlink:href="#ArialMT-73" x="361.376953"/>
      <use xlink:href="#ArialMT-74" x="411.376953"/>
      <use xlink:href="#ArialMT-65" x="439.160156"/>
      <use xlink:href="#ArialMT-6d" x="494.775391"/>
      <use xlink:href="#ArialMT-69" x="578.076172"/>
      <use xlink:href="#ArialMT-63" x="600.292969"/>
      <use xlink:href="#ArialMT-20" x="650.292969"/>
      <use xlink:href="#ArialMT-63" x="678.076172"/>
      <use xlink:href="#ArialMT-72" x="728.076172"/>
      <use xlink:href="#ArialMT-65" x="761.376953"/>
      <use xlink:href="#ArialMT-64" x="816.992188"/>
      <use xlink:href="#ArialMT-69" x="872.607422"/>
      <use xlink:href="#ArialMT-62" x="894.824219"/>
      <use xlink:href="#ArialMT-6c" x="950.439453"/>
      <use xlink:href="#ArialMT-65" x="972.65625"/>
      <use xlink:href="#ArialMT-20" x="1028.271484"/>
      <use xlink:href="#ArialMT-69" x="1056.054688"/>
      <use xlink:href="#ArialMT-6e" x="1078.271484"/>
      <use xlink:href="#ArialMT-74" x="1133.886719"/>
      <use xlink:href="#ArialMT-65" x="1161.669922"/>
      <use xlink:href="#ArialMT-72" x="1217.285156"/>
      <use xlink:href="#ArialMT-76" x="1250.585938"/>
      <use xlink:href="#ArialMT-61" x="1300.585938"/>
      <use xlink:href="#ArialMT-6c" x="1356.201172"/>
     </g>
    </g>
    <g id="patch_6">
     <path d="M 46.232875 46.529125 
L 63.832875 46.529125 
L 63.832875 40.369125 
L 46.232875 40.369125 
z
" style="fill: #008000; fill-opacity: 0.25; stroke: #008000; stroke-opacity: 0.25; stroke-width: 0.8; stroke-linejoin: miter"/>
    </g>
    <g id="text_19">
     <!-- 95% epistemic + aleatory credible interval -->
     <g style="fill: #262626" transform="translate(70.872875 46.529125) scale(0.088 -0.088)">
      <defs>
       <path id="ArialMT-2b" d="M 1603 741 
L 1603 1997 
L 356 1997 
L 356 2522 
L 1603 2522 
L 1603 3769 
L 2134 3769 
L 2134 2522 
L 3381 2522 
L 3381 1997 
L 2134 1997 
L 2134 741 
L 1603 741 
z
" transform="scale(0.015625)"/>
       <path id="ArialMT-79" d="M 397 -1278 
L 334 -750 
Q 519 -800 656 -800 
Q 844 -800 956 -737 
Q 1069 -675 1141 -563 
Q 1194 -478 1313 -144 
Q 1328 -97 1363 -6 
L 103 3319 
L 709 3319 
L 1400 1397 
Q 1534 1031 1641 628 
Q 1738 1016 1872 1384 
L 2581 3319 
L 3144 3319 
L 1881 -56 
Q 1678 -603 1566 -809 
Q 1416 -1088 1222 -1217 
Q 1028 -1347 759 -1347 
Q 597 -1347 397 -1278 
z
" transform="scale(0.015625)"/>
      </defs>
      <use xlink:href="#ArialMT-39"/>
      <use xlink:href="#ArialMT-35" x="55.615234"/>
      <use xlink:href="#ArialMT-25" x="111.230469"/>
      <use xlink:href="#ArialMT-20" x="200.146484"/>
      <use xlink:href="#ArialMT-65" x="227.929688"/>
      <use xlink:href="#ArialMT-70" x="283.544922"/>
      <use xlink:href="#ArialMT-69" x="339.160156"/>
      <use xlink:href="#ArialMT-73" x="361.376953"/>
      <use xlink:href="#ArialMT-74" x="411.376953"/>
      <use xlink:href="#ArialMT-65" x="439.160156"/>
      <use xlink:href="#ArialMT-6d" x="494.775391"/>
      <use xlink:href="#ArialMT-69" x="578.076172"/>
      <use xlink:href="#ArialMT-63" x="600.292969"/>
      <use xlink:href="#ArialMT-20" x="650.292969"/>
      <use xlink:href="#ArialMT-2b" x="678.076172"/>
      <use xlink:href="#ArialMT-20" x="736.474609"/>
      <use xlink:href="#ArialMT-61" x="764.257812"/>
      <use xlink:href="#ArialMT-6c" x="819.873047"/>
      <use xlink:href="#ArialMT-65" x="842.089844"/>
      <use xlink:href="#ArialMT-61" x="897.705078"/>
      <use xlink:href="#ArialMT-74" x="953.320312"/>
      <use xlink:href="#ArialMT-6f" x="981.103516"/>
      <use xlink:href="#ArialMT-72" x="1036.71875"/>
      <use xlink:href="#ArialMT-79" x="1070.019531"/>
      <use xlink:href="#ArialMT-20" x="1120.019531"/>
      <use xlink:href="#ArialMT-63" x="1147.802734"/>
      <use xlink:href="#ArialMT-72" x="1197.802734"/>
      <use xlink:href="#ArialMT-65" x="1231.103516"/>
      <use xlink:href="#ArialMT-64" x="1286.71875"/>
      <use xlink:href="#ArialMT-69" x="1342.333984"/>
      <use xlink:href="#ArialMT-62" x="1364.550781"/>
      <use xlink:href="#ArialMT-6c" x="1420.166016"/>
      <use xlink:href="#ArialMT-65" x="1442.382812"/>
      <use xlink:href="#ArialMT-20" x="1497.998047"/>
      <use xlink:href="#ArialMT-69" x="1525.78125"/>
      <use xlink:href="#ArialMT-6e" x="1547.998047"/>
      <use xlink:href="#ArialMT-74" x="1603.613281"/>
      <use xlink:href="#ArialMT-65" x="1631.396484"/>
      <use xlink:href="#ArialMT-72" x="1687.011719"/>
      <use xlink:href="#ArialMT-76" x="1720.3125"/>
      <use xlink:href="#ArialMT-61" x="1770.3125"/>
      <use xlink:href="#ArialMT-6c" x="1825.927734"/>
     </g>
    </g>
    <g id="line2d_19">
     <g>
      <use xlink:href="#m7bc6450672" x="55.032875" y="56.000125" style="stroke: #000000"/>
     </g>
    </g>
    <g id="text_20">
     <!-- Observed data -->
     <g style="fill: #262626" transform="translate(70.872875 59.080125) scale(0.088 -0.088)">
      <defs>
       <path id="ArialMT-4f" d="M 309 2231 
Q 309 3372 921 4017 
Q 1534 4663 2503 4663 
Q 3138 4663 3647 4359 
Q 4156 4056 4423 3514 
Q 4691 2972 4691 2284 
Q 4691 1588 4409 1038 
Q 4128 488 3612 205 
Q 3097 -78 2500 -78 
Q 1853 -78 1343 234 
Q 834 547 571 1087 
Q 309 1628 309 2231 
z
M 934 2222 
Q 934 1394 1379 917 
Q 1825 441 2497 441 
Q 3181 441 3623 922 
Q 4066 1403 4066 2288 
Q 4066 2847 3877 3264 
Q 3688 3681 3323 3911 
Q 2959 4141 2506 4141 
Q 1863 4141 1398 3698 
Q 934 3256 934 2222 
z
" transform="scale(0.015625)"/>
      </defs>
      <use xlink:href="#ArialMT-4f"/>
      <use xlink:href="#ArialMT-62" x="77.783203"/>
      <use xlink:href="#ArialMT-73" x="133.398438"/>
      <use xlink:href="#ArialMT-65" x="183.398438"/>
      <use xlink:href="#ArialMT-72" x="239.013672"/>
      <use xlink:href="#ArialMT-76" x="272.314453"/>
      <use xlink:href="#ArialMT-65" x="322.314453"/>
      <use xlink:href="#ArialMT-64" x="377.929688"/>
      <use xlink:href="#ArialMT-20" x="433.544922"/>
      <use xlink:href="#ArialMT-64" x="461.328125"/>
      <use xlink:href="#ArialMT-61" x="516.943359"/>
      <use xlink:href="#ArialMT-74" x="572.558594"/>
      <use xlink:href="#ArialMT-61" x="600.341797"/>
     </g>
    </g>
    <g id="line2d_20">
     <path d="M 46.232875 68.448 
L 55.032875 68.448 
L 63.832875 68.448 
" style="fill: none; stroke-dasharray: 4.44,1.92; stroke-dashoffset: 0; stroke: #1f77b4; stroke-width: 1.2"/>
    </g>
    <g id="text_21">
     <!-- True response -->
     <g style="fill: #262626" transform="translate(70.872875 71.528) scale(0.088 -0.088)">
      <defs>
       <path id="ArialMT-54" d="M 1659 0 
L 1659 4041 
L 150 4041 
L 150 4581 
L 3781 4581 
L 3781 4041 
L 2266 4041 
L 2266 0 
L 1659 0 
z
" transform="scale(0.015625)"/>
       <path id="ArialMT-75" d="M 2597 0 
L 2597 488 
Q 2209 -75 1544 -75 
Q 1250 -75 995 37 
Q 741 150 617 320 
Q 494 491 444 738 
Q 409 903 409 1263 
L 409 3319 
L 972 3319 
L 972 1478 
Q 972 1038 1006 884 
Q 1059 663 1231 536 
Q 1403 409 1656 409 
Q 1909 409 2131 539 
Q 2353 669 2445 892 
Q 2538 1116 2538 1541 
L 2538 3319 
L 3100 3319 
L 3100 0 
L 2597 0 
z
" transform="scale(0.015625)"/>
      </defs>
      <use xlink:href="#ArialMT-54"/>
      <use xlink:href="#ArialMT-72" x="57.333984"/>
      <use xlink:href="#ArialMT-75" x="90.634766"/>
      <use xlink:href="#ArialMT-65" x="146.25"/>
      <use xlink:href="#ArialMT-20" x="201.865234"/>
      <use xlink:href="#ArialMT-72" x="229.648438"/>
      <use xlink:href="#ArialMT-65" x="262.949219"/>
      <use xlink:href="#ArialMT-73" x="318.564453"/>
      <use xlink:href="#ArialMT-70" x="368.564453"/>
      <use xlink:href="#ArialMT-6f" x="424.179688"/>
      <use xlink:href="#ArialMT-6e" x="479.794922"/>
      <use xlink:href="#ArialMT-73" x="535.410156"/>
      <use xlink:href="#ArialMT-65" x="585.410156"/>
     </g>
    </g>
   </g>
  </g>
 </g>
 <defs>
  <clipPath id="pb1d5788cec">
   <rect x="38.312875" y="7.2" width="357.12" height="266.112"/>
  </clipPath>
 </defs>
</svg>