<?xml version="1.0" encoding="utf-8" standalone="no"?>
<!DOCTYPE svg PUBLIC "-//W3C//DTD SVG 1.1//EN"
  "http://www.w3.org/Graphics/SVG/1.1/DTD/svg11.dtd">
<svg xmlns:xlink="http://www.w3.org/1999/xlink" width="402.38675pt" height="309.979875pt" viewBox="0 0 402.38675 309.979875" xmlns="http://www.w3.org/2000/svg" version="1.1">
 <metadata>
  <rdf:RDF xmlns:dc="http://purl.org/dc/elements/1.1/" xmlns:cc="http://creativecommons.org/ns#" xmlns:rdf="http://www.w3.org/1999/02/22-rdf-syntax-ns#">
   <cc:Work>
    <dc:type rdf:resource="http://purl.org/dc/dcmitype/StillImage"/>
    <dc:date>2023-10-25T12:59:09.000562</dc:date>
    <dc:format>image/svg+xml</dc:format>
    <dc:creator>
     <cc:Agent>
      <dc:title>Matplotlib v3.8.0, https://matplotlib.org/</dc:title>
     </cc:Agent>
    </dc:creator>
   </cc:Work>
  </rdf:RDF>
 </metadata>
 <defs>
  <style type="text/css">*{stroke-linejoin: round; stroke-linecap: butt}</style>
 </defs>
 <g id="figure_1">
  <g id="patch_1">
   <path d="M 0 309.979875 
L 402.38675 309.979875 
L 402.38675 0 
L 0 0 
z
" style="fill: #ffffff"/>
  </g>
  <g id="axes_1">
   <g id="patch_2">
    <path d="M 38.06675 273.312 
L 395.18675 273.312 
L 395.18675 7.2 
L 38.06675 7.2 
z
" style="fill: #ffffff"/>
   </g>
   <g id="matplotlib.axis_1">
    <g id="xtick_1">
     <g id="line2d_1">
      <defs>
       <path id="m9dd88f510c" d="M 0 0 
L 0 4.8 
" style="stroke: #262626"/>
      </defs>
      <g>
       <use xlink:href="#m9dd88f510c" x="54.299477" y="273.312" style="fill: #262626; stroke: #262626"/>
      </g>
     </g>
     <g id="text_1">
      <!-- 0 -->
      <g style="fill: #262626" transform="translate(51.852665 287.910875) scale(0.088 -0.088)">
       <defs>
        <path id="ArialMT-30" d="M 266 2259 
Q 266 3072 433 3567 
Q 600 4063 929 4331 
Q 1259 4600 1759 4600 
Q 2128 4600 2406 4451 
Q 2684 4303 2865 4023 
Q 3047 3744 3150 3342 
Q 3253 2941 3253 2259 
Q 3253 1453 3087 958 
Q 2922 463 2592 192 
Q 2263 -78 1759 -78 
Q 1097 -78 719 397 
Q 266 969 266 2259 
z
M 844 2259 
Q 844 1131 1108 757 
Q 1372 384 1759 384 
Q 2147 384 2411 759 
Q 2675 1134 2675 2259 
Q 2675 3391 2411 3762 
Q 2147 4134 1753 4134 
Q 1366 4134 1134 3806 
Q 844 3388 844 2259 
z
" transform="scale(0.015625)"/>
       </defs>
       <use xlink:href="#ArialMT-30"/>
      </g>
     </g>
    </g>
    <g id="xtick_2">
     <g id="line2d_2">
      <g>
       <use xlink:href="#m9dd88f510c" x="119.230386" y="273.312" style="fill: #262626; stroke: #262626"/>
      </g>
     </g>
     <g id="text_2">
      <!-- 2000 -->
      <g style="fill: #262626" transform="translate(109.443136 287.910875) scale(0.088 -0.088)">
       <defs>
        <path id="ArialMT-32" d="M 3222 541 
L 3222 0 
L 194 0 
Q 188 203 259 391 
Q 375 700 629 1000 
Q 884 1300 1366 1694 
Q 2113 2306 2375 2664 
Q 2638 3022 2638 3341 
Q 2638 3675 2398 3904 
Q 2159 4134 1775 4134 
Q 1369 4134 1125 3890 
Q 881 3647 878 3216 
L 300 3275 
Q 359 3922 746 4261 
Q 1134 4600 1788 4600 
Q 2447 4600 2831 4234 
Q 3216 3869 3216 3328 
Q 3216 3053 3103 2787 
Q 2991 2522 2730 2228 
Q 2469 1934 1863 1422 
Q 1356 997 1212 845 
Q 1069 694 975 541 
L 3222 541 
z
" transform="scale(0.015625)"/>
       </defs>
       <use xlink:href="#ArialMT-32"/>
       <use xlink:href="#ArialMT-30" x="55.615234"/>
       <use xlink:href="#ArialMT-30" x="111.230469"/>
       <use xlink:href="#ArialMT-30" x="166.845703"/>
      </g>
     </g>
    </g>
    <g id="xtick_3">
     <g id="line2d_3">
      <g>
       <use xlink:href="#m9dd88f510c" x="184.161295" y="273.312" style="fill: #262626; stroke: #262626"/>
      </g>
     </g>
     <g id="text_3">
      <!-- 4000 -->
      <g style="fill: #262626" transform="translate(174.374045 287.910875) scale(0.088 -0.088)">
       <defs>
        <path id="ArialMT-34" d="M 2069 0 
L 2069 1097 
L 81 1097 
L 81 1613 
L 2172 4581 
L 2631 4581 
L 2631 1613 
L 3250 1613 
L 3250 1097 
L 2631 1097 
L 2631 0 
L 2069 0 
z
M 2069 1613 
L 2069 3678 
L 634 1613 
L 2069 1613 
z
" transform="scale(0.015625)"/>
       </defs>
       <use xlink:href="#ArialMT-34"/>
       <use xlink:href="#ArialMT-30" x="55.615234"/>
       <use xlink:href="#ArialMT-30" x="111.230469"/>
       <use xlink:href="#ArialMT-30" x="166.845703"/>
      </g>
     </g>
    </g>
    <g id="xtick_4">
     <g id="line2d_4">
      <g>
       <use xlink:href="#m9dd88f510c" x="249.092205" y="273.312" style="fill: #262626; stroke: #262626"/>
      </g>
     </g>
     <g id="text_4">
      <!-- 6000 -->
      <g style="fill: #262626" transform="translate(239.304955 287.910875) scale(0.088 -0.088)">
       <defs>
        <path id="ArialMT-36" d="M 3184 3459 
L 2625 3416 
Q 2550 3747 2413 3897 
Q 2184 4138 1850 4138 
Q 1581 4138 1378 3988 
Q 1113 3794 959 3422 
Q 806 3050 800 2363 
Q 1003 2672 1297 2822 
Q 1591 2972 1913 2972 
Q 2475 2972 2870 2558 
Q 3266 2144 3266 1488 
Q 3266 1056 3080 686 
Q 2894 316 2569 119 
Q 2244 -78 1831 -78 
Q 1128 -78 684 439 
Q 241 956 241 2144 
Q 241 3472 731 4075 
Q 1159 4600 1884 4600 
Q 2425 4600 2770 4297 
Q 3116 3994 3184 3459 
z
M 888 1484 
Q 888 1194 1011 928 
Q 1134 663 1356 523 
Q 1578 384 1822 384 
Q 2178 384 2434 671 
Q 2691 959 2691 1453 
Q 2691 1928 2437 2201 
Q 2184 2475 1800 2475 
Q 1419 2475 1153 2201 
Q 888 1928 888 1484 
z
" transform="scale(0.015625)"/>
       </defs>
       <use xlink:href="#ArialMT-36"/>
       <use xlink:href="#ArialMT-30" x="55.615234"/>
       <use xlink:href="#ArialMT-30" x="111.230469"/>
       <use xlink:href="#ArialMT-30" x="166.845703"/>
      </g>
     </g>
    </g>
    <g id="xtick_5">
     <g id="line2d_5">
      <g>
       <use xlink:href="#m9dd88f510c" x="314.023114" y="273.312" style="fill: #262626; stroke: #262626"/>
      </g>
     </g>
     <g id="text_5">
      <!-- 8000 -->
      <g style="fill: #262626" transform="translate(304.235864 287.910875) scale(0.088 -0.088)">
       <defs>
        <path id="ArialMT-38" d="M 1131 2484 
Q 781 2613 612 2850 
Q 444 3088 444 3419 
Q 444 3919 803 4259 
Q 1163 4600 1759 4600 
Q 2359 4600 2725 4251 
Q 3091 3903 3091 3403 
Q 3091 3084 2923 2848 
Q 2756 2613 2416 2484 
Q 2838 2347 3058 2040 
Q 3278 1734 3278 1309 
Q 3278 722 2862 322 
Q 2447 -78 1769 -78 
Q 1091 -78 675 323 
Q 259 725 259 1325 
Q 259 1772 486 2073 
Q 713 2375 1131 2484 
z
M 1019 3438 
Q 1019 3113 1228 2906 
Q 1438 2700 1772 2700 
Q 2097 2700 2305 2904 
Q 2513 3109 2513 3406 
Q 2513 3716 2298 3927 
Q 2084 4138 1766 4138 
Q 1444 4138 1231 3931 
Q 1019 3725 1019 3438 
z
M 838 1322 
Q 838 1081 952 856 
Q 1066 631 1291 507 
Q 1516 384 1775 384 
Q 2178 384 2440 643 
Q 2703 903 2703 1303 
Q 2703 1709 2433 1975 
Q 2163 2241 1756 2241 
Q 1359 2241 1098 1978 
Q 838 1716 838 1322 
z
" transform="scale(0.015625)"/>
       </defs>
       <use xlink:href="#ArialMT-38"/>
       <use xlink:href="#ArialMT-30" x="55.615234"/>
       <use xlink:href="#ArialMT-30" x="111.230469"/>
       <use xlink:href="#ArialMT-30" x="166.845703"/>
      </g>
     </g>
    </g>
    <g id="xtick_6">
     <g id="line2d_6">
      <g>
       <use xlink:href="#m9dd88f510c" x="378.954023" y="273.312" style="fill: #262626; stroke: #262626"/>
      </g>
     </g>
     <g id="text_6">
      <!-- 10000 -->
      <g style="fill: #262626" transform="translate(366.71996 287.910875) scale(0.088 -0.088)">
       <defs>
        <path id="ArialMT-31" d="M 2384 0 
L 1822 0 
L 1822 3584 
Q 1619 3391 1289 3197 
Q 959 3003 697 2906 
L 697 3450 
Q 1169 3672 1522 3987 
Q 1875 4303 2022 4600 
L 2384 4600 
L 2384 0 
z
" transform="scale(0.015625)"/>
       </defs>
       <use xlink:href="#ArialMT-31"/>
       <use xlink:href="#ArialMT-30" x="55.615234"/>
       <use xlink:href="#ArialMT-30" x="111.230469"/>
       <use xlink:href="#ArialMT-30" x="166.845703"/>
       <use xlink:href="#ArialMT-30" x="222.460938"/>
      </g>
     </g>
    </g>
    <g id="text_7">
     <!-- $n$ (steps) -->
     <g style="fill: #262626" transform="translate(197.57075 300.667875) scale(0.096 -0.096)">
      <defs>
       <path id="DejaVuSans-Oblique-6e" d="M 3566 2113 
L 3156 0 
L 2578 0 
L 2988 2091 
Q 3016 2238 3031 2350 
Q 3047 2463 3047 2528 
Q 3047 2791 2881 2937 
Q 2716 3084 2419 3084 
Q 1956 3084 1622 2776 
Q 1288 2469 1184 1941 
L 800 0 
L 225 0 
L 903 3500 
L 1478 3500 
L 1363 2950 
Q 1603 3253 1940 3418 
Q 2278 3584 2650 3584 
Q 3113 3584 3367 3334 
Q 3622 3084 3622 2631 
Q 3622 2519 3608 2391 
Q 3594 2263 3566 2113 
z
" transform="scale(0.015625)"/>
       <path id="ArialMT-20" transform="scale(0.015625)"/>
       <path id="ArialMT-28" d="M 1497 -1347 
Q 1031 -759 709 28 
Q 388 816 388 1659 
Q 388 2403 628 3084 
Q 909 3875 1497 4659 
L 1900 4659 
Q 1522 4009 1400 3731 
Q 1209 3300 1100 2831 
Q 966 2247 966 1656 
Q 966 153 1900 -1347 
L 1497 -1347 
z
" transform="scale(0.015625)"/>
       <path id="ArialMT-73" d="M 197 991 
L 753 1078 
Q 800 744 1014 566 
Q 1228 388 1613 388 
Q 2000 388 2187 545 
Q 2375 703 2375 916 
Q 2375 1106 2209 1216 
Q 2094 1291 1634 1406 
Q 1016 1563 777 1677 
Q 538 1791 414 1992 
Q 291 2194 291 2438 
Q 291 2659 392 2848 
Q 494 3038 669 3163 
Q 800 3259 1026 3326 
Q 1253 3394 1513 3394 
Q 1903 3394 2198 3281 
Q 2494 3169 2634 2976 
Q 2775 2784 2828 2463 
L 2278 2388 
Q 2241 2644 2061 2787 
Q 1881 2931 1553 2931 
Q 1166 2931 1000 2803 
Q 834 2675 834 2503 
Q 834 2394 903 2306 
Q 972 2216 1119 2156 
Q 1203 2125 1616 2013 
Q 2213 1853 2448 1751 
Q 2684 1650 2818 1456 
Q 2953 1263 2953 975 
Q 2953 694 2789 445 
Q 2625 197 2315 61 
Q 2006 -75 1616 -75 
Q 969 -75 630 194 
Q 291 463 197 991 
z
" transform="scale(0.015625)"/>
       <path id="ArialMT-74" d="M 1650 503 
L 1731 6 
Q 1494 -44 1306 -44 
Q 1000 -44 831 53 
Q 663 150 594 308 
Q 525 466 525 972 
L 525 2881 
L 113 2881 
L 113 3319 
L 525 3319 
L 525 4141 
L 1084 4478 
L 1084 3319 
L 1650 3319 
L 1650 2881 
L 1084 2881 
L 1084 941 
Q 1084 700 1114 631 
Q 1144 563 1211 522 
Q 1278 481 1403 481 
Q 1497 481 1650 503 
z
" transform="scale(0.015625)"/>
       <path id="ArialMT-65" d="M 2694 1069 
L 3275 997 
Q 3138 488 2766 206 
Q 2394 -75 1816 -75 
Q 1088 -75 661 373 
Q 234 822 234 1631 
Q 234 2469 665 2931 
Q 1097 3394 1784 3394 
Q 2450 3394 2872 2941 
Q 3294 2488 3294 1666 
Q 3294 1616 3291 1516 
L 816 1516 
Q 847 969 1125 678 
Q 1403 388 1819 388 
Q 2128 388 2347 550 
Q 2566 713 2694 1069 
z
M 847 1978 
L 2700 1978 
Q 2663 2397 2488 2606 
Q 2219 2931 1791 2931 
Q 1403 2931 1139 2672 
Q 875 2413 847 1978 
z
" transform="scale(0.015625)"/>
       <path id="ArialMT-70" d="M 422 -1272 
L 422 3319 
L 934 3319 
L 934 2888 
Q 1116 3141 1344 3267 
Q 1572 3394 1897 3394 
Q 2322 3394 2647 3175 
Q 2972 2956 3137 2557 
Q 3303 2159 3303 1684 
Q 3303 1175 3120 767 
Q 2938 359 2589 142 
Q 2241 -75 1856 -75 
Q 1575 -75 1351 44 
Q 1128 163 984 344 
L 984 -1272 
L 422 -1272 
z
M 931 1641 
Q 931 1000 1190 694 
Q 1450 388 1819 388 
Q 2194 388 2461 705 
Q 2728 1022 2728 1688 
Q 2728 2322 2467 2637 
Q 2206 2953 1844 2953 
Q 1484 2953 1207 2617 
Q 931 2281 931 1641 
z
" transform="scale(0.015625)"/>
       <path id="ArialMT-29" d="M 791 -1347 
L 388 -1347 
Q 1322 153 1322 1656 
Q 1322 2244 1188 2822 
Q 1081 3291 891 3722 
Q 769 4003 388 4659 
L 791 4659 
Q 1378 3875 1659 3084 
Q 1900 2403 1900 1659 
Q 1900 816 1576 28 
Q 1253 -759 791 -1347 
z
" transform="scale(0.015625)"/>
      </defs>
      <use xlink:href="#DejaVuSans-Oblique-6e" transform="translate(0 0.203125)"/>
      <use xlink:href="#ArialMT-20" transform="translate(63.378906 0.203125)"/>
      <use xlink:href="#ArialMT-28" transform="translate(91.162109 0.203125)"/>
      <use xlink:href="#ArialMT-73" transform="translate(124.462891 0.203125)"/>
      <use xlink:href="#ArialMT-74" transform="translate(174.462891 0.203125)"/>
      <use xlink:href="#ArialMT-65" transform="translate(202.246094 0.203125)"/>
      <use xlink:href="#ArialMT-70" transform="translate(257.861328 0.203125)"/>
      <use xlink:href="#ArialMT-73" transform="translate(313.476562 0.203125)"/>
      <use xlink:href="#ArialMT-29" transform="translate(363.476562 0.203125)"/>
     </g>
    </g>
   </g>
   <g id="matplotlib.axis_2">
    <g id="ytick_1">
     <g id="line2d_7">
      <defs>
       <path id="mbcff665608" d="M 0 0 
L -4.8 0 
" style="stroke: #262626"/>
      </defs>
      <g>
       <use xlink:href="#mbcff665608" x="38.06675" y="261.225172" style="fill: #262626; stroke: #262626"/>
      </g>
     </g>
     <g id="text_8">
      <!-- 0 -->
      <g style="fill: #262626" transform="translate(24.873125 264.37461) scale(0.088 -0.088)">
       <use xlink:href="#ArialMT-30"/>
      </g>
     </g>
    </g>
    <g id="ytick_2">
     <g id="line2d_8">
      <g>
       <use xlink:href="#mbcff665608" x="38.06675" y="212.839338" style="fill: #262626; stroke: #262626"/>
      </g>
     </g>
     <g id="text_9">
      <!-- 2 -->
      <g style="fill: #262626" transform="translate(24.873125 215.988775) scale(0.088 -0.088)">
       <use xlink:href="#ArialMT-32"/>
      </g>
     </g>
    </g>
    <g id="ytick_3">
     <g id="line2d_9">
      <g>
       <use xlink:href="#mbcff665608" x="38.06675" y="164.453503" style="fill: #262626; stroke: #262626"/>
      </g>
     </g>
     <g id="text_10">
      <!-- 4 -->
      <g style="fill: #262626" transform="translate(24.873125 167.602941) scale(0.088 -0.088)">
       <use xlink:href="#ArialMT-34"/>
      </g>
     </g>
    </g>
    <g id="ytick_4">
     <g id="line2d_10">
      <g>
       <use xlink:href="#mbcff665608" x="38.06675" y="116.067669" style="fill: #262626; stroke: #262626"/>
      </g>
     </g>
     <g id="text_11">
      <!-- 6 -->
      <g style="fill: #262626" transform="translate(24.873125 119.217106) scale(0.088 -0.088)">
       <use xlink:href="#ArialMT-36"/>
      </g>
     </g>
    </g>
    <g id="ytick_5">
     <g id="line2d_11">
      <g>
       <use xlink:href="#mbcff665608" x="38.06675" y="67.681834" style="fill: #262626; stroke: #262626"/>
      </g>
     </g>
     <g id="text_12">
      <!-- 8 -->
      <g style="fill: #262626" transform="translate(24.873125 70.831272) scale(0.088 -0.088)">
       <use xlink:href="#ArialMT-38"/>
      </g>
     </g>
    </g>
    <g id="ytick_6">
     <g id="line2d_12">
      <g>
       <use xlink:href="#mbcff665608" x="38.06675" y="19.296" style="fill: #262626; stroke: #262626"/>
      </g>
     </g>
     <g id="text_13">
      <!-- 10 -->
      <g style="fill: #262626" transform="translate(19.9795 22.445437) scale(0.088 -0.088)">
       <use xlink:href="#ArialMT-31"/>
       <use xlink:href="#ArialMT-30" x="55.615234"/>
      </g>
     </g>
    </g>
    <g id="text_14">
     <!-- $X_n$ -->
     <g style="fill: #262626" transform="translate(14.0715 145.824) rotate(-90) scale(0.096 -0.096)">
      <defs>
       <path id="DejaVuSans-Oblique-58" d="M 878 4666 
L 1516 4666 
L 2316 2981 
L 3763 4666 
L 4500 4666 
L 2578 2438 
L 3738 0 
L 3103 0 
L 2163 1966 
L 459 0 
L -275 0 
L 1906 2509 
L 878 4666 
z
" transform="scale(0.015625)"/>
      </defs>
      <use xlink:href="#DejaVuSans-Oblique-58" transform="translate(0 0.09375)"/>
      <use xlink:href="#DejaVuSans-Oblique-6e" transform="translate(68.505859 -16.3125) scale(0.7)"/>
     </g>
    </g>
   </g>
   <g id="patch_3">
    <path d="M 54.299477 273.312 
L 54.299477 7.2 
L 60.792568 7.2 
L 60.792568 273.312 
z
" clip-path="url(#p532052f0fb)" style="fill: #ff0000; opacity: 0.5; stroke: #ff0000; stroke-width: 0.8; stroke-linejoin: miter"/>
   </g>
   <g id="line2d_13">
    <path d="M 54.299477 19.296 
L 54.461805 62.342301 
L 54.559201 63.105459 
L 54.753994 183.006156 
L 54.786459 183.043474 
L 54.85139 229.299295 
L 54.916321 224.815345 
L 55.20851 252.340125 
L 55.305906 252.340125 
L 55.435768 260.652954 
L 55.56563 260.355787 
L 55.663026 260.355787 
L 55.792888 259.471689 
L 56.766852 259.471689 
L 56.864248 250.821586 
L 56.896714 251.374817 
L 57.026575 256.012536 
L 57.059041 256.012536 
L 57.091506 252.173984 
L 57.123972 256.463462 
L 57.156437 256.463462 
L 57.513557 256.463462 
L 57.643419 257.134912 
L 58.227797 257.046667 
L 58.357659 260.856861 
L 58.519986 260.856861 
L 58.649848 260.357957 
L 60.013397 260.357957 
L 60.143259 253.305413 
L 60.273121 253.305413 
L 60.402983 251.790334 
L 60.435448 251.790334 
L 60.56531 257.469914 
L 60.889965 257.469914 
L 61.019826 250.775436 
L 61.149688 256.912892 
L 61.214619 256.912892 
L 61.344481 256.167747 
L 62.318445 256.167747 
L 62.448306 255.34771 
L 62.480772 255.34771 
L 62.610634 249.335391 
L 62.675565 249.335391 
L 62.805426 256.916825 
L 62.837892 249.750787 
L 62.902823 256.576256 
L 63.292408 256.576256 
L 63.42227 258.829506 
L 64.461165 258.829506 
L 64.49363 260.060365 
L 64.526095 257.493338 
L 64.623492 257.493338 
L 64.655957 260.837464 
L 64.688423 259.089471 
L 64.720888 251.268997 
L 64.753354 259.320991 
L 64.785819 259.320991 
L 65.467594 259.331965 
L 65.597455 254.7054 
L 65.694852 254.7054 
L 65.824714 255.310391 
L 66.181834 255.310391 
L 66.311695 260.724557 
L 66.409092 260.724557 
L 66.538954 260.550635 
L 67.35059 260.550635 
L 67.480452 260.830002 
L 68.324554 260.843186 
L 68.454415 256.226705 
L 68.551812 256.226705 
L 68.616743 258.503598 
L 68.681674 258.05231 
L 69.266052 258.05231 
L 69.395914 258.774047 
L 69.49331 258.774047 
L 69.623172 259.006588 
L 69.655637 259.006588 
L 69.720568 256.211313 
L 69.753034 259.681798 
L 70.142619 259.681798 
L 70.272481 260.989407 
L 72.187943 260.989407 
L 72.317805 260.400685 
L 73.129441 260.400685 
L 73.259303 257.739338 
L 73.356699 257.739338 
L 73.486561 259.873107 
L 73.713819 259.873107 
L 73.843681 257.941907 
L 74.298197 257.941907 
L 74.428059 260.340991 
L 75.661746 260.340991 
L 75.791608 260.163996 
L 75.953935 260.163996 
L 76.083797 260.750422 
L 76.27859 260.750422 
L 76.408452 259.710838 
L 76.440917 259.710838 
L 76.570779 258.994652 
L 76.798037 258.994652 
L 76.927899 259.380915 
L 77.447346 259.380915 
L 77.577208 260.181114 
L 79.979652 260.181114 
L 80.109514 260.391038 
L 80.271841 260.391038 
L 80.401703 259.308222 
L 80.628961 259.308222 
L 80.758823 258.563364 
L 80.791288 258.563364 
L 80.92115 260.640171 
L 81.797717 260.640171 
L 81.960045 258.791822 
L 82.284699 258.791822 
L 82.414561 259.575531 
L 84.330023 259.637778 
L 84.459885 260.06783 
L 85.336452 260.06783 
L 85.466314 260.295807 
L 85.888365 260.295807 
L 85.953295 260.136035 
L 86.018226 257.02636 
L 86.050692 258.51751 
L 86.407812 258.51751 
L 86.537674 259.205577 
L 86.764932 259.205577 
L 86.894794 259.668775 
L 88.225877 259.76089 
L 88.355739 258.69826 
L 88.453135 258.69826 
L 88.582997 260.596532 
L 88.77779 260.596532 
L 88.875186 257.681429 
L 88.972583 260.862404 
L 89.102445 257.972827 
L 89.49203 257.972827 
L 89.621892 250.326179 
L 89.686823 250.326179 
L 89.816685 255.766654 
L 90.011477 255.766654 
L 90.141339 260.919006 
L 90.271201 260.176818 
L 90.336132 260.176818 
L 90.465994 258.772121 
L 90.725717 258.772121 
L 90.855579 258.001293 
L 90.92051 258.001293 
L 91.050372 261.207968 
L 92.998299 261.207968 
L 93.128161 259.986867 
L 93.355419 259.986867 
L 93.387885 252.834648 
L 93.452815 258.749813 
L 93.647608 258.749813 
L 93.745005 257.921961 
L 93.874866 258.935143 
L 94.621572 258.935143 
L 94.654037 256.394208 
L 94.718968 258.1058 
L 94.751434 258.1058 
L 94.881295 259.493107 
L 95.433208 259.493107 
L 95.56307 260.619269 
L 95.92019 260.619269 
L 96.050052 256.450011 
L 96.407172 256.450011 
L 96.537034 260.190661 
L 96.666895 260.190661 
L 96.796757 259.302176 
L 97.575928 259.302176 
L 97.70579 260.294315 
L 98.257703 260.294315 
L 98.387565 257.024068 
L 99.069339 257.024068 
L 99.199201 258.572495 
L 100.173165 258.572495 
L 100.303026 260.38083 
L 102.218488 260.38083 
L 102.34835 258.86733 
L 102.673005 258.86733 
L 102.802866 259.183884 
L 102.835332 259.183884 
L 102.965194 250.023454 
L 103.06259 250.023454 
L 103.192452 259.599525 
L 103.484641 259.599525 
L 103.614503 260.956343 
L 103.874226 260.956343 
L 104.004088 257.769908 
L 104.198881 257.769908 
L 104.328743 260.359494 
L 104.426139 260.359494 
L 104.556001 258.271356 
L 104.653397 258.271356 
L 104.750794 259.934314 
L 104.880655 253.533454 
L 104.913121 253.533454 
L 105.042983 261.018495 
L 107.315565 260.930528 
L 107.445426 260.101323 
L 107.510357 260.101323 
L 107.640219 254.428465 
L 108.808975 254.428465 
L 108.938837 253.316313 
L 109.425819 253.316313 
L 109.555681 256.71437 
L 109.750474 260.01202 
L 110.399783 260.01202 
L 110.464714 259.13356 
L 110.594575 252.581791 
L 110.756903 252.581791 
L 110.886765 258.840097 
L 111.373746 258.840097 
L 111.503608 258.608841 
L 111.698401 258.608841 
L 111.828263 259.946931 
L 113.41907 259.946931 
L 113.548932 259.259534 
L 113.646328 259.259534 
L 113.678794 256.370698 
L 113.743725 257.943969 
L 114.003448 257.943969 
L 114.13331 257.254321 
L 114.263172 258.245997 
L 114.587826 258.245997 
L 114.717688 258.400798 
L 114.944946 258.400798 
L 115.009877 258.258355 
L 115.042343 253.755865 
L 115.074808 258.908067 
L 115.107274 258.908067 
L 115.366997 258.908067 
L 115.496859 259.844417 
L 117.34739 259.844417 
L 117.477252 253.236031 
L 117.542183 253.236031 
L 117.639579 252.78691 
L 117.769441 255.822728 
L 117.931768 255.822728 
L 117.964234 261.047351 
L 118.029165 256.665758 
L 118.321354 256.665758 
L 118.483681 260.88046 
L 119.327783 260.88046 
L 119.360248 258.819409 
L 119.457645 259.1807 
L 120.106954 259.1807 
L 120.171885 260.168905 
L 120.20435 259.275964 
L 120.951055 259.275964 
L 121.080917 260.0279 
L 121.145848 260.0279 
L 121.243245 259.758487 
L 121.373106 260.42982 
L 121.827623 260.42982 
L 121.957485 256.598657 
L 122.314605 256.702159 
L 122.412001 261.119515 
L 122.541863 253.231885 
L 123.093775 253.231885 
L 123.321034 256.91192 
L 123.41843 256.91192 
L 123.548292 257.628787 
L 124.749514 257.628787 
L 124.944306 254.564459 
L 125.139099 254.564459 
L 125.268961 256.440001 
L 125.333892 256.440001 
L 125.463754 257.926211 
L 125.626081 257.926211 
L 125.658546 258.638577 
L 125.691012 257.779173 
L 125.723477 257.779173 
L 126.372786 257.779173 
L 126.502648 260.213085 
L 126.892234 260.213085 
L 126.924699 257.520659 
L 126.957165 260.335588 
L 126.98963 260.335588 
L 127.054561 260.335588 
L 127.087026 256.274126 
L 127.119492 261.088653 
L 127.151957 261.088653 
L 130.268641 261.088653 
L 130.398503 259.44318 
L 130.593295 259.44318 
L 130.723157 261.067148 
L 131.080277 261.067148 
L 131.210139 259.674122 
L 132.216568 259.674122 
L 132.34643 257.587368 
L 132.800946 257.587368 
L 132.930808 259.985909 
L 133.677514 259.985909 
L 133.807375 254.387362 
L 133.969703 254.387362 
L 134.099565 252.836808 
L 134.261892 252.836808 
L 134.391754 260.402832 
L 134.456685 259.918215 
L 135.852699 259.918215 
L 135.982561 258.032843 
L 136.177354 258.032843 
L 136.307215 259.381877 
L 136.534474 259.381877 
L 136.664335 261.053384 
L 137.475972 261.053384 
L 137.605834 260.344794 
L 138.287608 260.344794 
L 138.41747 260.541847 
L 138.644728 260.541847 
L 138.77459 259.601852 
L 139.164175 259.601852 
L 139.196641 261.216 
L 139.229106 250.816711 
L 139.294037 257.554313 
L 139.586226 257.547534 
L 139.716088 258.43787 
L 140.138139 258.43787 
L 140.268001 252.69037 
L 140.300466 252.69037 
L 140.430328 254.503016 
L 140.495259 254.503016 
L 140.625121 259.066228 
L 141.664015 259.066228 
L 141.793877 257.743521 
L 143.287288 257.724814 
L 143.41715 259.811485 
L 144.261252 259.811485 
L 144.358648 260.262827 
L 144.48851 259.354958 
L 144.553441 259.354958 
L 144.650837 260.6317 
L 144.715768 258.39661 
L 144.748234 259.518417 
L 145.170285 259.518417 
L 145.300146 259.845139 
L 145.494939 259.845139 
L 145.624801 259.294642 
L 145.91699 259.294642 
L 146.046852 257.161923 
L 146.079317 257.161923 
L 146.209179 256.607062 
L 146.371506 256.607062 
L 146.501368 256.366847 
L 146.696161 256.366847 
L 146.890954 260.706945 
L 146.923419 260.006142 
L 147.637659 260.006142 
L 147.767521 260.566728 
L 148.77395 260.566728 
L 148.806415 260.424224 
L 148.871346 260.562482 
L 150.040103 260.562482 
L 150.169965 259.98029 
L 150.527085 259.98029 
L 150.656946 261.14972 
L 154.065819 261.097223 
L 154.195681 259.873568 
L 154.260612 259.873568 
L 154.390474 260.901672 
L 154.422939 260.901672 
L 154.552801 253.107896 
L 154.812525 253.107896 
L 154.942386 254.248697 
L 155.234575 254.248697 
L 155.299506 259.927793 
L 155.364437 259.188235 
L 155.494299 259.188235 
L 155.624161 260.973647 
L 156.890314 260.973647 
L 157.020175 254.794424 
L 157.117572 254.794424 
L 157.279899 258.380896 
L 157.799346 258.380896 
L 157.929208 260.645741 
L 158.675914 260.645741 
L 158.805775 257.067166 
L 159.065499 257.067166 
L 159.13043 251.894644 
L 159.162895 256.759778 
L 159.227826 256.759778 
L 159.357688 257.294747 
L 159.584946 257.294747 
L 159.617412 255.115856 
L 159.747274 261.03313 
L 160.20179 260.954585 
L 160.331652 258.854164 
L 160.591375 258.854164 
L 160.721237 261.118059 
L 162.376975 261.205528 
L 162.669165 255.887826 
L 162.799026 260.923189 
L 165.526125 260.906633 
L 165.655986 261.084996 
L 165.818314 261.084996 
L 165.948175 256.467233 
L 165.980641 256.467233 
L 166.110503 260.319717 
L 166.207899 260.319717 
L 166.337761 257.498358 
L 166.500088 257.498358 
L 166.727346 250.624873 
L 166.759812 250.624873 
L 166.889674 260.852273 
L 167.019535 260.852273 
L 167.149397 258.631187 
L 167.279259 258.631187 
L 167.409121 257.523091 
L 167.733775 257.523091 
L 167.863637 258.590722 
L 167.896103 258.590722 
L 168.025965 255.263958 
L 168.090895 255.263958 
L 168.123361 249.289418 
L 168.155826 259.993419 
L 168.41555 259.993419 
L 168.512946 261.209443 
L 168.545412 261.036702 
L 169.649237 260.948056 
L 169.779099 250.448769 
L 169.941426 250.448769 
L 169.973892 244.295782 
L 170.006357 257.936114 
L 170.103754 258.100132 
L 170.233615 259.293079 
L 170.655666 259.293079 
L 170.785528 257.669103 
L 170.850459 257.669103 
L 170.980321 260.81101 
L 171.240045 260.81101 
L 171.369906 259.274998 
L 171.98675 259.274998 
L 172.116612 252.819239 
L 172.278939 252.819239 
L 172.376335 258.445285 
L 172.473732 255.970203 
L 172.603594 257.281404 
L 172.733455 256.555055 
L 173.187972 256.555055 
L 173.317834 255.719878 
L 173.447695 260.892906 
L 173.512626 260.892906 
L 173.642488 259.408076 
L 173.967143 259.408076 
L 174.097005 255.916058 
L 174.12947 255.916058 
L 174.259332 255.718715 
L 174.421659 257.475002 
L 174.551521 257.475002 
L 174.681383 258.87488 
L 174.746314 258.87488 
L 174.778779 259.365465 
L 174.908641 252.684789 
L 175.20083 252.684789 
L 175.330692 259.911536 
L 175.395623 259.911536 
L 175.525485 260.406596 
L 175.687812 260.406596 
L 175.817674 260.730587 
L 176.012466 260.730587 
L 176.142328 259.981378 
L 177.505877 259.981378 
L 177.635739 260.410535 
L 177.765601 260.004081 
L 179.745994 260.004081 
L 179.810925 255.565142 
L 179.84339 257.803073 
L 180.297906 257.803073 
L 180.427768 256.744819 
L 182.408161 256.744819 
L 182.538023 260.433317 
L 182.602954 260.433317 
L 182.765281 251.243253 
L 182.895143 258.488614 
L 183.025005 258.488614 
L 183.154866 260.936515 
L 184.063899 260.868522 
L 184.226226 256.060016 
L 184.356088 257.757247 
L 184.518415 257.757247 
L 184.648277 258.185834 
L 184.680743 258.185834 
L 184.810605 256.638623 
L 185.135259 256.638623 
L 185.265121 258.997671 
L 186.368946 258.997671 
L 186.498808 254.999465 
L 186.823463 254.999465 
L 186.953325 257.030176 
L 187.505237 257.030176 
L 187.635099 257.525848 
L 188.089615 257.525848 
L 188.219477 259.542797 
L 189.84275 259.542797 
L 189.972612 251.295382 
L 190.394663 251.295382 
L 190.459594 253.457903 
L 190.589455 247.938428 
L 190.91411 247.938428 
L 191.043972 248.690292 
L 191.238765 248.690292 
L 191.368626 243.451266 
L 191.498488 255.069266 
L 191.530954 255.069266 
L 191.660815 255.999821 
L 191.855608 255.999821 
L 191.98547 259.363713 
L 192.34259 259.363713 
L 192.472452 259.976843 
L 193.41395 259.976843 
L 193.543812 254.892931 
L 193.608743 254.892931 
L 193.738605 258.023416 
L 193.77107 258.023416 
L 193.900932 259.840766 
L 194.193121 259.840766 
L 194.258052 258.902913 
L 194.387914 260.957043 
L 195.55667 260.957043 
L 195.686532 256.27237 
L 195.816394 256.27237 
L 195.946255 252.558689 
L 196.076117 255.97772 
L 196.205979 255.97772 
L 196.238445 253.024769 
L 196.368306 260.360778 
L 198.640888 260.360778 
L 198.77075 259.1647 
L 199.355128 259.1647 
L 199.387594 250.652063 
L 199.452525 256.072598 
L 199.582386 256.072598 
L 199.712248 257.747322 
L 199.777179 257.747322 
L 199.907041 255.086826 
L 200.231695 255.196778 
L 200.394023 261.071715 
L 201.303055 261.071715 
L 201.432917 259.127999 
L 201.465383 259.127999 
L 201.595245 259.94766 
L 201.790037 259.94766 
L 201.919899 259.007529 
L 201.98483 259.007529 
L 202.082226 257.408442 
L 202.212088 259.116715 
L 202.828932 259.116715 
L 202.861397 248.183098 
L 202.893863 260.456477 
L 202.926328 260.456477 
L 205.328772 260.456477 
L 205.393703 256.124245 
L 205.458634 256.451201 
L 205.620961 256.451201 
L 205.750823 257.818416 
L 205.945615 257.818416 
L 206.075477 260.110647 
L 206.887114 260.110647 
L 207.016975 259.35777 
L 207.114372 259.35777 
L 207.244234 260.194069 
L 208.867506 260.194069 
L 208.997368 260.722397 
L 209.062299 260.722397 
L 209.192161 261.027466 
L 209.646677 261.061444 
L 209.776539 260.385514 
L 211.010226 260.385514 
L 211.140088 257.097598 
L 211.367346 257.097598 
L 211.497208 258.676196 
L 211.62707 256.903404 
L 212.211448 256.903404 
L 212.34131 258.923201 
L 212.568568 258.923201 
L 212.69843 258.777908 
L 212.990619 258.777908 
L 213.120481 259.791488 
L 213.250343 255.45191 
L 213.282808 255.45191 
L 213.41267 246.70157 
L 213.445135 246.70157 
L 213.477601 247.1833 
L 213.607463 244.320847 
L 213.704859 244.320847 
L 213.834721 250.385362 
L 214.094445 250.385362 
L 214.224306 250.248305 
L 214.256772 247.981591 
L 214.321703 248.862902 
L 214.451565 250.17868 
L 214.48403 250.17868 
L 214.613892 255.652847 
L 214.776219 255.652847 
L 214.84115 255.975158 
L 214.971012 254.916663 
L 215.100874 257.35624 
L 215.133339 257.35624 
L 215.263201 260.837749 
L 216.172234 260.837749 
L 216.204699 258.740789 
L 216.302095 258.945394 
L 216.399492 258.945394 
L 216.529354 259.094663 
L 216.756612 259.094663 
L 216.886474 257.840396 
L 216.951405 257.840396 
L 217.113732 259.78437 
L 217.243594 259.78437 
L 217.470852 249.254218 
L 217.535783 257.332259 
L 217.568248 253.869072 
L 217.860437 253.869072 
L 217.990299 254.41242 
L 218.185092 254.41242 
L 218.314954 260.193343 
L 218.834401 260.193343 
L 218.996728 254.078369 
L 219.321383 254.078369 
L 219.451245 258.906937 
L 219.646037 258.906937 
L 219.775899 260.706923 
L 220.100554 260.706923 
L 220.230415 261.106716 
L 220.620001 261.106716 
L 220.782328 257.777941 
L 220.847259 257.777941 
L 220.977121 256.705006 
L 221.074517 256.705006 
L 221.204379 258.218533 
L 221.334241 258.218533 
L 221.464103 260.918985 
L 222.989979 260.918985 
L 223.119841 246.307107 
L 223.249703 246.307107 
L 223.379565 256.875238 
L 223.476961 256.875238 
L 223.606823 257.05527 
L 223.639288 257.05527 
L 223.76915 256.570456 
L 223.996408 256.570456 
L 224.12627 257.556306 
L 224.288597 257.513564 
L 224.418459 260.97861 
L 224.905441 260.97861 
L 225.035303 258.039372 
L 225.359957 258.039372 
L 225.489819 257.497675 
L 226.041732 257.497675 
L 226.171594 255.069548 
L 226.301455 255.334152 
L 226.431317 255.334152 
L 226.561179 254.962529 
L 226.62611 254.962529 
L 226.755972 250.065287 
L 226.788437 249.843756 
L 226.885834 258.602114 
L 226.918299 256.989395 
L 227.113092 256.989395 
L 227.145557 255.701821 
L 227.275419 259.778749 
L 227.69747 259.778749 
L 227.827332 260.443895 
L 229.515535 260.443895 
L 229.645397 261.153087 
L 229.905121 261.153087 
L 229.937586 260.393552 
L 229.970052 256.745843 
L 230.034983 258.545468 
L 230.976481 258.545468 
L 231.106343 257.780036 
L 231.138808 257.780036 
L 231.26867 258.537227 
L 231.333601 258.537227 
L 231.463463 253.488167 
L 231.593325 253.488167 
L 231.723186 257.84786 
L 232.372495 257.84786 
L 232.502357 260.677868 
L 232.632219 259.248047 
L 233.281528 259.248047 
L 233.41139 250.736367 
L 233.573717 260.226378 
L 234.223026 260.226378 
L 234.352888 258.66675 
L 235.521645 258.66675 
L 235.651506 256.484461 
L 235.748903 256.484461 
L 235.878765 259.586479 
L 235.943695 259.586479 
L 236.073557 254.524572 
L 236.26835 254.524572 
L 236.430677 260.689231 
L 236.852728 260.689231 
L 236.98259 258.472102 
L 237.015055 258.472102 
L 237.144917 260.990772 
L 237.372175 260.990772 
L 237.502037 256.450393 
L 237.566968 256.450393 
L 237.69683 255.65191 
L 237.794226 255.535634 
L 237.924088 248.411506 
L 237.989019 248.411506 
L 238.118881 260.362647 
L 238.248743 258.49981 
L 238.443535 258.49981 
L 238.573397 257.735352 
L 238.605863 257.735352 
L 238.670794 260.682088 
L 238.703259 257.437858 
L 238.962983 257.437858 
L 239.027914 257.15516 
L 239.157775 258.820121 
L 239.320103 258.820121 
L 239.449965 258.203688 
L 240.878445 258.203688 
L 241.008306 255.514387 
L 241.592685 255.514387 
L 241.722546 250.597795 
L 242.079666 250.597795 
L 242.241994 258.641037 
L 242.404321 258.641037 
L 242.534183 259.679029 
L 243.086095 259.679029 
L 243.215957 260.317301 
L 243.345819 257.506356 
L 243.865266 257.506356 
L 243.995128 258.489119 
L 244.352248 258.489119 
L 244.48211 260.728644 
L 246.007986 260.728644 
L 246.137848 258.221315 
L 246.98195 258.221315 
L 247.111812 261.211914 
L 247.209208 261.211914 
L 247.33907 259.992249 
L 247.663725 259.992249 
L 247.69619 258.69022 
L 247.761121 259.756306 
L 248.313034 259.756306 
L 248.442895 260.975336 
L 248.832481 260.975336 
L 248.962343 256.8645 
L 249.157135 256.8645 
L 249.286997 259.717594 
L 250.650546 259.739171 
L 250.780408 251.493993 
L 250.812874 251.493993 
L 250.942735 257.365277 
L 251.007666 257.365277 
L 251.072597 252.826897 
L 251.105063 256.713473 
L 252.208888 256.713473 
L 252.33875 257.718786 
L 252.468612 256.490422 
L 252.630939 256.490422 
L 252.760801 258.204584 
L 253.41011 258.204584 
L 253.539972 260.012216 
L 253.734765 248.165204 
L 253.76723 248.165204 
L 253.799695 242.060328 
L 253.864626 245.92406 
L 253.994488 251.657162 
L 254.156815 251.657162 
L 254.286677 257.677107 
L 254.903521 257.677107 
L 255.033383 260.032977 
L 255.650226 260.032977 
L 255.780088 258.702252 
L 255.812554 258.702252 
L 255.942415 259.032235 
L 256.656655 259.032235 
L 256.786517 258.083114 
L 256.883914 258.083114 
L 257.013775 257.632635 
L 258.637048 257.632635 
L 258.76691 252.18005 
L 259.091565 252.18005 
L 259.156495 251.21511 
L 259.318823 258.367162 
L 259.513615 258.367162 
L 259.643477 260.220134 
L 261.169354 260.220134 
L 261.299215 261.138929 
L 262.890023 261.138929 
L 263.019885 260.241399 
L 263.214677 260.241399 
L 263.344539 260.740279 
L 263.571797 260.740279 
L 263.701659 260.559891 
L 264.318503 260.559891 
L 264.448365 260.89322 
L 265.065208 260.89322 
L 265.19507 259.258695 
L 265.292466 259.258695 
L 265.422328 257.11286 
L 265.55219 258.12665 
L 266.26643 258.12665 
L 266.331361 247.804267 
L 266.363826 258.601526 
L 266.493688 255.504844 
L 267.435186 255.504844 
L 267.565048 261.163571 
L 268.993528 261.163571 
L 269.12339 260.045534 
L 269.220786 260.045534 
L 269.350648 255.766449 
L 269.610372 255.766449 
L 269.740234 254.354955 
L 269.967492 254.354955 
L 270.097354 252.18992 
L 270.129819 252.18992 
L 270.259681 258.943837 
L 270.519405 258.943837 
L 270.649266 259.086482 
L 272.33747 259.086482 
L 272.467332 260.50423 
L 273.571157 260.50423 
L 273.701019 257.591347 
L 273.76595 257.591347 
L 273.798415 259.259727 
L 273.928277 255.178668 
L 274.188001 255.178668 
L 274.545121 258.058174 
L 274.804845 258.058174 
L 274.934706 257.682267 
L 275.55155 257.676335 
L 275.681412 260.0305 
L 275.811274 260.0305 
L 275.941135 257.433591 
L 276.233325 257.433591 
L 276.363186 260.339003 
L 276.882634 260.339003 
L 277.012495 257.833859 
L 277.207288 257.833859 
L 277.33715 256.416854 
L 277.661805 256.416854 
L 277.791666 259.289288 
L 277.921528 259.289288 
L 278.05139 259.454437 
L 278.733165 259.454437 
L 278.863026 260.078342 
L 279.090285 260.078342 
L 279.155215 254.431632 
L 279.187681 261.077473 
L 279.47987 261.077473 
L 279.609732 258.404233 
L 280.031783 258.404233 
L 280.161645 258.675608 
L 280.875885 258.675608 
L 280.940815 251.991138 
L 280.973281 258.269836 
L 281.233005 258.269836 
L 281.362866 257.720312 
L 281.460263 257.720312 
L 281.590125 260.962516 
L 282.596554 260.962516 
L 282.726415 259.734692 
L 282.856277 260.153654 
L 282.986139 260.153654 
L 283.018605 259.569334 
L 283.116001 259.815193 
L 284.771739 259.815193 
L 284.901601 260.699739 
L 285.063928 260.699739 
L 285.19379 259.286703 
L 285.356117 259.286703 
L 285.518445 253.326702 
L 285.55091 256.712859 
L 285.680772 243.339308 
L 285.745703 243.339308 
L 285.940495 251.286024 
L 286.037892 251.286024 
L 286.102823 258.263012 
L 286.167754 257.652257 
L 286.362546 257.652257 
L 286.427477 256.46295 
L 286.492408 252.946103 
L 286.557339 254.283209 
L 286.719666 254.283209 
L 286.849528 257.875016 
L 286.914459 257.875016 
L 287.044321 250.577528 
L 287.141717 250.577528 
L 287.271579 260.17097 
L 287.401441 260.17097 
L 287.531303 261.076125 
L 288.018285 261.076125 
L 288.148146 252.98066 
L 288.959783 252.98066 
L 289.089645 258.94722 
L 289.284437 258.94722 
L 289.414299 259.353286 
L 289.83635 259.353286 
L 289.901281 259.052707 
L 290.031143 253.183552 
L 290.19347 253.183552 
L 290.323332 260.579582 
L 290.355797 260.579582 
L 290.485659 258.619131 
L 291.394692 258.619131 
L 291.459623 260.367419 
L 291.589485 255.647145 
L 291.62195 258.695617 
L 291.719346 257.962891 
L 291.97907 257.962891 
L 292.108932 258.575346 
L 292.855637 258.514687 
L 292.985499 253.680796 
L 293.245223 253.680796 
L 293.472481 257.774705 
L 293.537412 257.774705 
L 293.667274 260.910687 
L 293.797135 260.706609 
L 293.829601 253.57934 
L 293.894532 258.744459 
L 294.024394 258.744459 
L 294.154255 260.118589 
L 295.290546 260.118589 
L 295.420408 260.999033 
L 295.777528 260.999033 
L 295.874925 253.327621 
L 295.90739 255.944391 
L 296.004786 255.944391 
L 296.134648 260.102609 
L 296.97875 260.102609 
L 297.108612 258.274561 
L 297.206008 258.274561 
L 297.33587 259.226804 
L 297.887783 259.199461 
L 298.017645 258.422869 
L 298.147506 259.752595 
L 298.244903 259.661842 
L 298.374765 255.311812 
L 298.504626 255.311812 
L 298.634488 260.777028 
L 298.699419 260.777028 
L 298.76435 261.192719 
L 298.894212 258.830567 
L 299.381194 258.830567 
L 299.511055 257.57198 
L 299.543521 257.57198 
L 299.673383 256.993145 
L 299.868175 256.993145 
L 299.998037 259.392236 
L 300.062968 259.392236 
L 300.19283 258.519027 
L 300.387623 258.519027 
L 300.517485 259.877886 
L 300.744743 259.877886 
L 300.874605 260.968806 
L 302.33555 260.968806 
L 302.465412 254.984385 
L 302.725135 254.984385 
L 302.790066 257.112356 
L 302.919928 250.782696 
L 303.114721 250.782696 
L 303.212117 254.926709 
L 303.244583 253.625138 
L 303.341979 253.625138 
L 303.471841 260.88578 
L 304.543201 260.88578 
L 304.737994 249.126779 
L 304.83539 249.126779 
L 304.965252 254.934872 
L 305.484699 254.934872 
L 305.614561 260.841845 
L 305.744423 260.085073 
L 307.043041 260.085073 
L 307.172903 253.35099 
L 307.237834 253.35099 
L 307.367695 255.329394 
L 307.465092 255.329394 
L 307.530023 253.410317 
L 307.659885 260.399349 
L 308.179332 260.399349 
L 308.309194 256.99689 
L 309.185761 256.99689 
L 309.315623 259.811345 
L 309.672743 259.811345 
L 309.802605 257.685139 
L 310.19219 257.685139 
L 310.322052 250.866561 
L 310.451914 254.621769 
L 310.646706 254.621769 
L 310.776568 258.68388 
L 310.873965 258.68388 
L 311.003826 260.390255 
L 312.821892 260.390255 
L 312.951754 258.106147 
L 313.081615 260.530185 
L 313.341339 260.530185 
L 313.471201 259.16049 
L 313.958183 259.065957 
L 314.088045 260.928941 
L 317.529383 260.926266 
L 317.659245 260.132576 
L 319.055259 260.132576 
L 319.185121 254.187715 
L 319.444845 254.187715 
L 319.574706 260.401187 
L 320.418808 260.401187 
L 320.54867 258.255628 
L 320.970721 258.255628 
L 321.100583 259.280589 
L 321.490168 259.280589 
L 321.62003 258.892347 
L 321.944685 258.892347 
L 322.074546 260.393529 
L 323.535492 260.393529 
L 323.665354 259.998283 
L 324.736714 259.998283 
L 324.866575 257.296575 
L 325.028903 257.296575 
L 325.061368 256.919843 
L 325.093834 254.479792 
L 325.126299 258.856862 
L 325.483419 258.856862 
L 325.613281 260.244081 
L 326.230125 260.244081 
L 326.359986 261.085387 
L 327.204088 261.085387 
L 327.33395 258.655098 
L 328.015725 258.655098 
L 328.145586 259.695886 
L 328.697499 259.695886 
L 328.827361 257.907957 
L 329.087085 257.907957 
L 329.216946 260.761003 
L 329.638997 260.761003 
L 329.83379 258.522298 
L 329.963652 261.035633 
L 330.061048 261.035633 
L 330.19091 258.060262 
L 330.580495 258.060262 
L 330.710357 260.854952 
L 331.846648 260.854952 
L 331.97651 258.976186 
L 332.788146 258.976186 
L 332.918008 260.953617 
L 334.541281 260.858216 
L 334.573746 259.190185 
L 334.638677 260.246268 
L 334.963332 260.246268 
L 335.093194 257.893345 
L 336.132088 257.90825 
L 336.326881 252.601351 
L 336.359346 252.601351 
L 336.489208 252.473455 
L 336.61907 259.812473 
L 336.748932 259.812473 
L 336.878794 257.399971 
L 337.495637 257.460264 
L 337.593034 259.486585 
L 337.722895 256.465422 
L 337.755361 256.465422 
L 337.885223 257.004872 
L 338.080015 257.004872 
L 338.177412 258.909156 
L 338.307274 256.455446 
L 338.40467 257.344519 
L 338.534532 249.829123 
L 338.599463 249.829123 
L 338.76179 260.54903 
L 338.924117 260.54903 
L 339.053979 259.830377 
L 339.313703 259.830377 
L 339.411099 259.602583 
L 339.540961 260.868978 
L 340.19027 260.868978 
L 340.320132 260.606034 
L 340.385063 260.606034 
L 340.514925 259.85777 
L 340.677252 259.85777 
L 340.742183 259.605693 
L 340.872045 260.430762 
L 341.61875 260.430762 
L 341.748612 259.640767 
L 343.891332 259.640767 
L 344.021194 261.152176 
L 345.18995 261.152176 
L 345.319812 259.183054 
L 345.774328 259.183054 
L 345.90419 256.343645 
L 346.26131 256.343645 
L 346.391172 255.327891 
L 346.521034 255.327891 
L 346.650895 260.643993 
L 347.527463 260.643993 
L 347.657325 260.120024 
L 348.04691 260.120024 
L 348.176772 258.02035 
L 348.306634 258.633693 
L 348.436495 255.179359 
L 348.468961 255.179359 
L 348.598823 258.965322 
L 348.891012 258.965322 
L 349.020874 259.30254 
L 349.248132 259.30254 
L 349.377994 259.000434 
L 350.319492 259.000434 
L 350.449354 257.65537 
L 350.644146 257.65537 
L 350.774008 257.923485 
L 351.163594 257.923485 
L 351.293455 258.852967 
L 351.423317 257.807067 
L 351.812903 257.807067 
L 351.942765 260.675916 
L 352.559608 260.675916 
L 352.68947 260.408075 
L 353.40371 260.408075 
L 353.533572 257.090543 
L 353.566037 257.090543 
L 353.630968 261.192916 
L 353.663434 258.991165 
L 353.923157 258.991165 
L 354.053019 258.448837 
L 354.247812 258.448837 
L 354.377674 254.454522 
L 354.734794 254.454522 
L 354.799725 257.491151 
L 354.864655 256.789163 
L 354.897121 256.789163 
L 355.026983 257.862393 
L 355.059448 257.862393 
L 355.18931 257.533947 
L 355.319172 257.713708 
L 355.54643 257.713708 
L 355.676292 260.225578 
L 356.000946 260.225578 
L 356.195739 256.824223 
L 356.325601 261.188821 
L 357.137237 261.188821 
L 357.267099 258.041066 
L 357.851477 258.041066 
L 357.981339 260.480976 
L 358.955303 260.480976 
L 359.085165 256.719389 
L 359.11763 256.719389 
L 359.247492 259.491031 
L 359.279957 259.491031 
L 359.409819 260.596885 
L 359.539681 260.596885 
L 359.637077 256.613994 
L 359.669543 258.397456 
L 359.702008 255.377155 
L 360.416248 255.377155 
L 360.513645 241.517724 
L 360.643506 255.503023 
L 360.935695 255.503023 
L 361.065557 256.404257 
L 361.390212 256.511095 
L 361.520074 260.191443 
L 361.682401 260.191443 
L 361.812263 259.613224 
L 362.136917 259.613224 
L 362.266779 254.170009 
L 362.396641 254.170009 
L 362.526503 260.421214 
L 362.883623 260.421214 
L 363.013485 261.068997 
L 363.273208 261.068997 
L 363.40307 250.418788 
L 363.500466 250.418788 
L 363.565397 247.286843 
L 363.630328 248.4275 
L 363.954983 248.4275 
L 364.084845 253.502024 
L 364.149775 253.502024 
L 364.182241 252.97837 
L 364.344568 258.453272 
L 364.47443 256.007414 
L 364.604292 256.007414 
L 364.734154 254.237419 
L 364.961412 254.237419 
L 364.993877 254.463863 
L 365.058808 250.471456 
L 365.18867 257.399538 
L 365.253601 257.399538 
L 365.383463 255.317744 
L 365.448394 255.317744 
L 365.578255 256.124623 
L 365.610721 256.124623 
L 365.740583 259.638481 
L 365.90291 259.638481 
L 366.032772 256.55019 
L 366.941805 256.55019 
L 367.071666 260.346768 
L 367.396321 260.346768 
L 367.526183 254.46318 
L 367.720975 254.46318 
L 367.850837 258.959144 
L 368.143026 258.959144 
L 368.272888 254.495016 
L 368.597543 254.495016 
L 368.727405 254.696898 
L 368.857266 259.482169 
L 369.863695 259.482169 
L 369.993557 257.662939 
L 370.513005 257.662939 
L 370.642866 255.074428 
L 370.772728 255.074428 
L 370.90259 248.873729 
L 371.032452 248.873729 
L 371.162314 256.278459 
L 371.357106 256.278459 
L 371.486968 254.472013 
L 371.519434 254.472013 
L 371.681761 260.374631 
L 373.012845 260.374631 
L 373.142706 259.58428 
L 373.564757 259.58428 
L 373.694619 260.945527 
L 374.246532 260.945527 
L 374.376394 256.467739 
L 374.506255 256.742226 
L 374.571186 256.742226 
L 374.701048 259.40034 
L 375.285426 259.40034 
L 375.415288 258.924141 
L 375.707477 258.924141 
L 375.739943 260.673551 
L 375.772408 257.692342 
L 376.356786 257.692342 
L 376.486648 258.240671 
L 376.519114 258.240671 
L 376.648975 255.276373 
L 376.908699 255.276373 
L 377.038561 257.006561 
L 377.233354 257.006561 
L 377.363215 261.204818 
L 377.655405 261.204818 
L 377.785266 259.817555 
L 378.954023 259.817555 
L 378.954023 259.817555 
" clip-path="url(#p532052f0fb)" style="fill: none; stroke: #1f77b4; stroke-linecap: round"/>
   </g>
   <g id="patch_4">
    <path d="M 38.06675 261.225172 
L 38.06675 19.296 
" style="fill: none; stroke: #262626; stroke-linejoin: miter; stroke-linecap: square"/>
   </g>
   <g id="patch_5">
    <path d="M 54.299477 273.312 
L 378.954023 273.312 
" style="fill: none; stroke: #262626; stroke-linejoin: miter; stroke-linecap: square"/>
   </g>
   <g id="legend_1">
    <g id="line2d_14">
     <path d="M 292.20475 18.338875 
L 301.00475 18.338875 
L 309.80475 18.338875 
" style="fill: none; stroke: #1f77b4; stroke-linecap: round"/>
    </g>
    <g id="text_15">
     <!-- Posterior samples -->
     <g style="fill: #262626" transform="translate(316.84475 21.418875) scale(0.088 -0.088)">
      <defs>
       <path id="ArialMT-50" d="M 494 0 
L 494 4581 
L 2222 4581 
Q 2678 4581 2919 4538 
Q 3256 4481 3484 4323 
Q 3713 4166 3852 3881 
Q 3991 3597 3991 3256 
Q 3991 2672 3619 2267 
Q 3247 1863 2275 1863 
L 1100 1863 
L 1100 0 
L 494 0 
z
M 1100 2403 
L 2284 2403 
Q 2872 2403 3119 2622 
Q 3366 2841 3366 3238 
Q 3366 3525 3220 3729 
Q 3075 3934 2838 4000 
Q 2684 4041 2272 4041 
L 1100 4041 
L 1100 2403 
z
" transform="scale(0.015625)"/>
       <path id="ArialMT-6f" d="M 213 1659 
Q 213 2581 725 3025 
Q 1153 3394 1769 3394 
Q 2453 3394 2887 2945 
Q 3322 2497 3322 1706 
Q 3322 1066 3130 698 
Q 2938 331 2570 128 
Q 2203 -75 1769 -75 
Q 1072 -75 642 372 
Q 213 819 213 1659 
z
M 791 1659 
Q 791 1022 1069 705 
Q 1347 388 1769 388 
Q 2188 388 2466 706 
Q 2744 1025 2744 1678 
Q 2744 2294 2464 2611 
Q 2184 2928 1769 2928 
Q 1347 2928 1069 2612 
Q 791 2297 791 1659 
z
" transform="scale(0.015625)"/>
       <path id="ArialMT-72" d="M 416 0 
L 416 3319 
L 922 3319 
L 922 2816 
Q 1116 3169 1280 3281 
Q 1444 3394 1641 3394 
Q 1925 3394 2219 3213 
L 2025 2691 
Q 1819 2813 1613 2813 
Q 1428 2813 1281 2702 
Q 1134 2591 1072 2394 
Q 978 2094 978 1738 
L 978 0 
L 416 0 
z
" transform="scale(0.015625)"/>
       <path id="ArialMT-69" d="M 425 3934 
L 425 4581 
L 988 4581 
L 988 3934 
L 425 3934 
z
M 425 0 
L 425 3319 
L 988 3319 
L 988 0 
L 425 0 
z
" transform="scale(0.015625)"/>
       <path id="ArialMT-61" d="M 2588 409 
Q 2275 144 1986 34 
Q 1697 -75 1366 -75 
Q 819 -75 525 192 
Q 231 459 231 875 
Q 231 1119 342 1320 
Q 453 1522 633 1644 
Q 813 1766 1038 1828 
Q 1203 1872 1538 1913 
Q 2219 1994 2541 2106 
Q 2544 2222 2544 2253 
Q 2544 2597 2384 2738 
Q 2169 2928 1744 2928 
Q 1347 2928 1158 2789 
Q 969 2650 878 2297 
L 328 2372 
Q 403 2725 575 2942 
Q 747 3159 1072 3276 
Q 1397 3394 1825 3394 
Q 2250 3394 2515 3294 
Q 2781 3194 2906 3042 
Q 3031 2891 3081 2659 
Q 3109 2516 3109 2141 
L 3109 1391 
Q 3109 606 3145 398 
Q 3181 191 3288 0 
L 2700 0 
Q 2613 175 2588 409 
z
M 2541 1666 
Q 2234 1541 1622 1453 
Q 1275 1403 1131 1340 
Q 988 1278 909 1158 
Q 831 1038 831 891 
Q 831 666 1001 516 
Q 1172 366 1500 366 
Q 1825 366 2078 508 
Q 2331 650 2450 897 
Q 2541 1088 2541 1459 
L 2541 1666 
z
" transform="scale(0.015625)"/>
       <path id="ArialMT-6d" d="M 422 0 
L 422 3319 
L 925 3319 
L 925 2853 
Q 1081 3097 1340 3245 
Q 1600 3394 1931 3394 
Q 2300 3394 2536 3241 
Q 2772 3088 2869 2813 
Q 3263 3394 3894 3394 
Q 4388 3394 4653 3120 
Q 4919 2847 4919 2278 
L 4919 0 
L 4359 0 
L 4359 2091 
Q 4359 2428 4304 2576 
Q 4250 2725 4106 2815 
Q 3963 2906 3769 2906 
Q 3419 2906 3187 2673 
Q 2956 2441 2956 1928 
L 2956 0 
L 2394 0 
L 2394 2156 
Q 2394 2531 2256 2718 
Q 2119 2906 1806 2906 
Q 1569 2906 1367 2781 
Q 1166 2656 1075 2415 
Q 984 2175 984 1722 
L 984 0 
L 422 0 
z
" transform="scale(0.015625)"/>
       <path id="ArialMT-6c" d="M 409 0 
L 409 4581 
L 972 4581 
L 972 0 
L 409 0 
z
" transform="scale(0.015625)"/>
      </defs>
      <use xlink:href="#ArialMT-50"/>
      <use xlink:href="#ArialMT-6f" x="66.699219"/>
      <use xlink:href="#ArialMT-73" x="122.314453"/>
      <use xlink:href="#ArialMT-74" x="172.314453"/>
      <use xlink:href="#ArialMT-65" x="200.097656"/>
      <use xlink:href="#ArialMT-72" x="255.712891"/>
      <use xlink:href="#ArialMT-69" x="289.013672"/>
      <use xlink:href="#ArialMT-6f" x="311.230469"/>
      <use xlink:href="#ArialMT-72" x="366.845703"/>
      <use xlink:href="#ArialMT-20" x="400.146484"/>
      <use xlink:href="#ArialMT-73" x="427.929688"/>
      <use xlink:href="#ArialMT-61" x="477.929688"/>
      <use xlink:href="#ArialMT-6d" x="533.544922"/>
      <use xlink:href="#ArialMT-70" x="616.845703"/>
      <use xlink:href="#ArialMT-6c" x="672.460938"/>
      <use xlink:href="#ArialMT-65" x="694.677734"/>
      <use xlink:href="#ArialMT-73" x="750.292969"/>
     </g>
    </g>
    <g id="patch_6">
     <path d="M 292.20475 33.86675 
L 309.80475 33.86675 
L 309.80475 27.70675 
L 292.20475 27.70675 
z
" style="fill: #ff0000; opacity: 0.5; stroke: #ff0000; stroke-width: 0.8; stroke-linejoin: miter"/>
    </g>
    <g id="text_16">
     <!-- Transient -->
     <g style="fill: #262626" transform="translate(316.84475 33.86675) scale(0.088 -0.088)">
      <defs>
       <path id="ArialMT-54" d="M 1659 0 
L 1659 4041 
L 150 4041 
L 150 4581 
L 3781 4581 
L 3781 4041 
L 2266 4041 
L 2266 0 
L 1659 0 
z
" transform="scale(0.015625)"/>
       <path id="ArialMT-6e" d="M 422 0 
L 422 3319 
L 928 3319 
L 928 2847 
Q 1294 3394 1984 3394 
Q 2284 3394 2536 3286 
Q 2788 3178 2913 3003 
Q 3038 2828 3088 2588 
Q 3119 2431 3119 2041 
L 3119 0 
L 2556 0 
L 2556 2019 
Q 2556 2363 2490 2533 
Q 2425 2703 2258 2804 
Q 2091 2906 1866 2906 
Q 1506 2906 1245 2678 
Q 984 2450 984 1813 
L 984 0 
L 422 0 
z
" transform="scale(0.015625)"/>
      </defs>
      <use xlink:href="#ArialMT-54"/>
      <use xlink:href="#ArialMT-72" x="57.333984"/>
      <use xlink:href="#ArialMT-61" x="90.634766"/>
      <use xlink:href="#ArialMT-6e" x="146.25"/>
      <use xlink:href="#ArialMT-73" x="201.865234"/>
      <use xlink:href="#ArialMT-69" x="251.865234"/>
      <use xlink:href="#ArialMT-65" x="274.082031"/>
      <use xlink:href="#ArialMT-6e" x="329.697266"/>
      <use xlink:href="#ArialMT-74" x="385.3125"/>
     </g>
    </g>
   </g>
  </g>
 </g>
 <defs>
  <clipPath id="p532052f0fb">
   <rect x="38.06675" y="7.2" width="357.12" height="266.112"/>
  </clipPath>
 </defs>
</svg>