<?xml version="1.0" encoding="utf-8" standalone="no"?>
<!DOCTYPE svg PUBLIC "-//W3C//DTD SVG 1.1//EN"
  "http://www.w3.org/Graphics/SVG/1.1/DTD/svg11.dtd">
<svg xmlns:xlink="http://www.w3.org/1999/xlink" width="402.632875pt" height="309.639375pt" viewBox="0 0 402.632875 309.639375" xmlns="http://www.w3.org/2000/svg" version="1.1">
 <metadata>
  <rdf:RDF xmlns:dc="http://purl.org/dc/elements/1.1/" xmlns:cc="http://creativecommons.org/ns#" xmlns:rdf="http://www.w3.org/1999/02/22-rdf-syntax-ns#">
   <cc:Work>
    <dc:type rdf:resource="http://purl.org/dc/dcmitype/StillImage"/>
    <dc:date>2023-10-15T22:37:15.155800</dc:date>
    <dc:format>image/svg+xml</dc:format>
    <dc:creator>
     <cc:Agent>
      <dc:title>Matplotlib v3.7.1, https://matplotlib.org/</dc:title>
     </cc:Agent>
    </dc:creator>
   </cc:Work>
  </rdf:RDF>
 </metadata>
 <defs>
  <style type="text/css">*{stroke-linejoin: round; stroke-linecap: butt}</style>
 </defs>
 <g id="figure_1">
  <g id="patch_1">
   <path d="M 0 309.639375 
L 402.632875 309.639375 
L 402.632875 0 
L 0 0 
z
" style="fill: #ffffff"/>
  </g>
  <g id="axes_1">
   <g id="patch_2">
    <path d="M 38.312875 273.312 
L 395.432875 273.312 
L 395.432875 7.2 
L 38.312875 7.2 
z
" style="fill: #ffffff"/>
   </g>
   <g id="matplotlib.axis_1">
    <g id="xtick_1">
     <g id="line2d_1">
      <defs>
       <path id="m5bf86d24a5" d="M 0 0 
L 0 4.8 
" style="stroke: #262626"/>
      </defs>
      <g>
       <use xlink:href="#m5bf86d24a5" x="68.034011" y="273.312" style="fill: #262626; stroke: #262626"/>
      </g>
     </g>
     <g id="text_1">
      <!-- −2 -->
      <g style="fill: #262626" transform="translate(63.017324 287.910875) scale(0.088 -0.088)">
       <defs>
        <path id="ArialMT-2212" d="M 3381 1997 
L 356 1997 
L 356 2522 
L 3381 2522 
L 3381 1997 
z
" transform="scale(0.015625)"/>
        <path id="ArialMT-32" d="M 3222 541 
L 3222 0 
L 194 0 
Q 188 203 259 391 
Q 375 700 629 1000 
Q 884 1300 1366 1694 
Q 2113 2306 2375 2664 
Q 2638 3022 2638 3341 
Q 2638 3675 2398 3904 
Q 2159 4134 1775 4134 
Q 1369 4134 1125 3890 
Q 881 3647 878 3216 
L 300 3275 
Q 359 3922 746 4261 
Q 1134 4600 1788 4600 
Q 2447 4600 2831 4234 
Q 3216 3869 3216 3328 
Q 3216 3053 3103 2787 
Q 2991 2522 2730 2228 
Q 2469 1934 1863 1422 
Q 1356 997 1212 845 
Q 1069 694 975 541 
L 3222 541 
z
" transform="scale(0.015625)"/>
       </defs>
       <use xlink:href="#ArialMT-2212"/>
       <use xlink:href="#ArialMT-32" x="58.398438"/>
      </g>
     </g>
    </g>
    <g id="xtick_2">
     <g id="line2d_2">
      <g>
       <use xlink:href="#m5bf86d24a5" x="142.619176" y="273.312" style="fill: #262626; stroke: #262626"/>
      </g>
     </g>
     <g id="text_2">
      <!-- −1 -->
      <g style="fill: #262626" transform="translate(137.602488 287.910875) scale(0.088 -0.088)">
       <defs>
        <path id="ArialMT-31" d="M 2384 0 
L 1822 0 
L 1822 3584 
Q 1619 3391 1289 3197 
Q 959 3003 697 2906 
L 697 3450 
Q 1169 3672 1522 3987 
Q 1875 4303 2022 4600 
L 2384 4600 
L 2384 0 
z
" transform="scale(0.015625)"/>
       </defs>
       <use xlink:href="#ArialMT-2212"/>
       <use xlink:href="#ArialMT-31" x="58.398438"/>
      </g>
     </g>
    </g>
    <g id="xtick_3">
     <g id="line2d_3">
      <g>
       <use xlink:href="#m5bf86d24a5" x="217.204341" y="273.312" style="fill: #262626; stroke: #262626"/>
      </g>
     </g>
     <g id="text_3">
      <!-- 0 -->
      <g style="fill: #262626" transform="translate(214.757528 287.910875) scale(0.088 -0.088)">
       <defs>
        <path id="ArialMT-30" d="M 266 2259 
Q 266 3072 433 3567 
Q 600 4063 929 4331 
Q 1259 4600 1759 4600 
Q 2128 4600 2406 4451 
Q 2684 4303 2865 4023 
Q 3047 3744 3150 3342 
Q 3253 2941 3253 2259 
Q 3253 1453 3087 958 
Q 2922 463 2592 192 
Q 2263 -78 1759 -78 
Q 1097 -78 719 397 
Q 266 969 266 2259 
z
M 844 2259 
Q 844 1131 1108 757 
Q 1372 384 1759 384 
Q 2147 384 2411 759 
Q 2675 1134 2675 2259 
Q 2675 3391 2411 3762 
Q 2147 4134 1753 4134 
Q 1366 4134 1134 3806 
Q 844 3388 844 2259 
z
" transform="scale(0.015625)"/>
       </defs>
       <use xlink:href="#ArialMT-30"/>
      </g>
     </g>
    </g>
    <g id="xtick_4">
     <g id="line2d_4">
      <g>
       <use xlink:href="#m5bf86d24a5" x="291.789505" y="273.312" style="fill: #262626; stroke: #262626"/>
      </g>
     </g>
     <g id="text_4">
      <!-- 1 -->
      <g style="fill: #262626" transform="translate(289.342693 287.910875) scale(0.088 -0.088)">
       <use xlink:href="#ArialMT-31"/>
      </g>
     </g>
    </g>
    <g id="xtick_5">
     <g id="line2d_5">
      <g>
       <use xlink:href="#m5bf86d24a5" x="366.37467" y="273.312" style="fill: #262626; stroke: #262626"/>
      </g>
     </g>
     <g id="text_5">
      <!-- 2 -->
      <g style="fill: #262626" transform="translate(363.927857 287.910875) scale(0.088 -0.088)">
       <use xlink:href="#ArialMT-32"/>
      </g>
     </g>
    </g>
    <g id="text_6">
     <!-- Prediction -->
     <g style="fill: #262626" transform="translate(195.529375 300.531375) scale(0.096 -0.096)">
      <defs>
       <path id="ArialMT-50" d="M 494 0 
L 494 4581 
L 2222 4581 
Q 2678 4581 2919 4538 
Q 3256 4481 3484 4323 
Q 3713 4166 3852 3881 
Q 3991 3597 3991 3256 
Q 3991 2672 3619 2267 
Q 3247 1863 2275 1863 
L 1100 1863 
L 1100 0 
L 494 0 
z
M 1100 2403 
L 2284 2403 
Q 2872 2403 3119 2622 
Q 3366 2841 3366 3238 
Q 3366 3525 3220 3729 
Q 3075 3934 2838 4000 
Q 2684 4041 2272 4041 
L 1100 4041 
L 1100 2403 
z
" transform="scale(0.015625)"/>
       <path id="ArialMT-72" d="M 416 0 
L 416 3319 
L 922 3319 
L 922 2816 
Q 1116 3169 1280 3281 
Q 1444 3394 1641 3394 
Q 1925 3394 2219 3213 
L 2025 2691 
Q 1819 2813 1613 2813 
Q 1428 2813 1281 2702 
Q 1134 2591 1072 2394 
Q 978 2094 978 1738 
L 978 0 
L 416 0 
z
" transform="scale(0.015625)"/>
       <path id="ArialMT-65" d="M 2694 1069 
L 3275 997 
Q 3138 488 2766 206 
Q 2394 -75 1816 -75 
Q 1088 -75 661 373 
Q 234 822 234 1631 
Q 234 2469 665 2931 
Q 1097 3394 1784 3394 
Q 2450 3394 2872 2941 
Q 3294 2488 3294 1666 
Q 3294 1616 3291 1516 
L 816 1516 
Q 847 969 1125 678 
Q 1403 388 1819 388 
Q 2128 388 2347 550 
Q 2566 713 2694 1069 
z
M 847 1978 
L 2700 1978 
Q 2663 2397 2488 2606 
Q 2219 2931 1791 2931 
Q 1403 2931 1139 2672 
Q 875 2413 847 1978 
z
" transform="scale(0.015625)"/>
       <path id="ArialMT-64" d="M 2575 0 
L 2575 419 
Q 2259 -75 1647 -75 
Q 1250 -75 917 144 
Q 584 363 401 755 
Q 219 1147 219 1656 
Q 219 2153 384 2558 
Q 550 2963 881 3178 
Q 1213 3394 1622 3394 
Q 1922 3394 2156 3267 
Q 2391 3141 2538 2938 
L 2538 4581 
L 3097 4581 
L 3097 0 
L 2575 0 
z
M 797 1656 
Q 797 1019 1065 703 
Q 1334 388 1700 388 
Q 2069 388 2326 689 
Q 2584 991 2584 1609 
Q 2584 2291 2321 2609 
Q 2059 2928 1675 2928 
Q 1300 2928 1048 2622 
Q 797 2316 797 1656 
z
" transform="scale(0.015625)"/>
       <path id="ArialMT-69" d="M 425 3934 
L 425 4581 
L 988 4581 
L 988 3934 
L 425 3934 
z
M 425 0 
L 425 3319 
L 988 3319 
L 988 0 
L 425 0 
z
" transform="scale(0.015625)"/>
       <path id="ArialMT-63" d="M 2588 1216 
L 3141 1144 
Q 3050 572 2676 248 
Q 2303 -75 1759 -75 
Q 1078 -75 664 370 
Q 250 816 250 1647 
Q 250 2184 428 2587 
Q 606 2991 970 3192 
Q 1334 3394 1763 3394 
Q 2303 3394 2647 3120 
Q 2991 2847 3088 2344 
L 2541 2259 
Q 2463 2594 2264 2762 
Q 2066 2931 1784 2931 
Q 1359 2931 1093 2626 
Q 828 2322 828 1663 
Q 828 994 1084 691 
Q 1341 388 1753 388 
Q 2084 388 2306 591 
Q 2528 794 2588 1216 
z
" transform="scale(0.015625)"/>
       <path id="ArialMT-74" d="M 1650 503 
L 1731 6 
Q 1494 -44 1306 -44 
Q 1000 -44 831 53 
Q 663 150 594 308 
Q 525 466 525 972 
L 525 2881 
L 113 2881 
L 113 3319 
L 525 3319 
L 525 4141 
L 1084 4478 
L 1084 3319 
L 1650 3319 
L 1650 2881 
L 1084 2881 
L 1084 941 
Q 1084 700 1114 631 
Q 1144 563 1211 522 
Q 1278 481 1403 481 
Q 1497 481 1650 503 
z
" transform="scale(0.015625)"/>
       <path id="ArialMT-6f" d="M 213 1659 
Q 213 2581 725 3025 
Q 1153 3394 1769 3394 
Q 2453 3394 2887 2945 
Q 3322 2497 3322 1706 
Q 3322 1066 3130 698 
Q 2938 331 2570 128 
Q 2203 -75 1769 -75 
Q 1072 -75 642 372 
Q 213 819 213 1659 
z
M 791 1659 
Q 791 1022 1069 705 
Q 1347 388 1769 388 
Q 2188 388 2466 706 
Q 2744 1025 2744 1678 
Q 2744 2294 2464 2611 
Q 2184 2928 1769 2928 
Q 1347 2928 1069 2612 
Q 791 2297 791 1659 
z
" transform="scale(0.015625)"/>
       <path id="ArialMT-6e" d="M 422 0 
L 422 3319 
L 928 3319 
L 928 2847 
Q 1294 3394 1984 3394 
Q 2284 3394 2536 3286 
Q 2788 3178 2913 3003 
Q 3038 2828 3088 2588 
Q 3119 2431 3119 2041 
L 3119 0 
L 2556 0 
L 2556 2019 
Q 2556 2363 2490 2533 
Q 2425 2703 2258 2804 
Q 2091 2906 1866 2906 
Q 1506 2906 1245 2678 
Q 984 2450 984 1813 
L 984 0 
L 422 0 
z
" transform="scale(0.015625)"/>
      </defs>
      <use xlink:href="#ArialMT-50"/>
      <use xlink:href="#ArialMT-72" x="66.699219"/>
      <use xlink:href="#ArialMT-65" x="100"/>
      <use xlink:href="#ArialMT-64" x="155.615234"/>
      <use xlink:href="#ArialMT-69" x="211.230469"/>
      <use xlink:href="#ArialMT-63" x="233.447266"/>
      <use xlink:href="#ArialMT-74" x="283.447266"/>
      <use xlink:href="#ArialMT-69" x="311.230469"/>
      <use xlink:href="#ArialMT-6f" x="333.447266"/>
      <use xlink:href="#ArialMT-6e" x="389.0625"/>
     </g>
    </g>
   </g>
   <g id="matplotlib.axis_2">
    <g id="ytick_1">
     <g id="line2d_6">
      <defs>
       <path id="mae15640ddc" d="M 0 0 
L -4.8 0 
" style="stroke: #262626"/>
      </defs>
      <g>
       <use xlink:href="#mae15640ddc" x="38.312875" y="251.16496" style="fill: #262626; stroke: #262626"/>
      </g>
     </g>
     <g id="text_7">
      <!-- −2 -->
      <g style="fill: #262626" transform="translate(19.9795 254.314397) scale(0.088 -0.088)">
       <use xlink:href="#ArialMT-2212"/>
       <use xlink:href="#ArialMT-32" x="58.398438"/>
      </g>
     </g>
    </g>
    <g id="ytick_2">
     <g id="line2d_7">
      <g>
       <use xlink:href="#mae15640ddc" x="38.312875" y="195.586982" style="fill: #262626; stroke: #262626"/>
      </g>
     </g>
     <g id="text_8">
      <!-- −1 -->
      <g style="fill: #262626" transform="translate(19.9795 198.73642) scale(0.088 -0.088)">
       <use xlink:href="#ArialMT-2212"/>
       <use xlink:href="#ArialMT-31" x="58.398438"/>
      </g>
     </g>
    </g>
    <g id="ytick_3">
     <g id="line2d_8">
      <g>
       <use xlink:href="#mae15640ddc" x="38.312875" y="140.009005" style="fill: #262626; stroke: #262626"/>
      </g>
     </g>
     <g id="text_9">
      <!-- 0 -->
      <g style="fill: #262626" transform="translate(25.11925 143.158442) scale(0.088 -0.088)">
       <use xlink:href="#ArialMT-30"/>
      </g>
     </g>
    </g>
    <g id="ytick_4">
     <g id="line2d_9">
      <g>
       <use xlink:href="#mae15640ddc" x="38.312875" y="84.431027" style="fill: #262626; stroke: #262626"/>
      </g>
     </g>
     <g id="text_10">
      <!-- 1 -->
      <g style="fill: #262626" transform="translate(25.11925 87.580465) scale(0.088 -0.088)">
       <use xlink:href="#ArialMT-31"/>
      </g>
     </g>
    </g>
    <g id="ytick_5">
     <g id="line2d_10">
      <g>
       <use xlink:href="#mae15640ddc" x="38.312875" y="28.85305" style="fill: #262626; stroke: #262626"/>
      </g>
     </g>
     <g id="text_11">
      <!-- 2 -->
      <g style="fill: #262626" transform="translate(25.11925 32.002487) scale(0.088 -0.088)">
       <use xlink:href="#ArialMT-32"/>
      </g>
     </g>
    </g>
    <g id="text_12">
     <!-- Observation -->
     <g style="fill: #262626" transform="translate(14.0715 166.134) rotate(-90) scale(0.096 -0.096)">
      <defs>
       <path id="ArialMT-4f" d="M 309 2231 
Q 309 3372 921 4017 
Q 1534 4663 2503 4663 
Q 3138 4663 3647 4359 
Q 4156 4056 4423 3514 
Q 4691 2972 4691 2284 
Q 4691 1588 4409 1038 
Q 4128 488 3612 205 
Q 3097 -78 2500 -78 
Q 1853 -78 1343 234 
Q 834 547 571 1087 
Q 309 1628 309 2231 
z
M 934 2222 
Q 934 1394 1379 917 
Q 1825 441 2497 441 
Q 3181 441 3623 922 
Q 4066 1403 4066 2288 
Q 4066 2847 3877 3264 
Q 3688 3681 3323 3911 
Q 2959 4141 2506 4141 
Q 1863 4141 1398 3698 
Q 934 3256 934 2222 
z
" transform="scale(0.015625)"/>
       <path id="ArialMT-62" d="M 941 0 
L 419 0 
L 419 4581 
L 981 4581 
L 981 2947 
Q 1338 3394 1891 3394 
Q 2197 3394 2470 3270 
Q 2744 3147 2920 2923 
Q 3097 2700 3197 2384 
Q 3297 2069 3297 1709 
Q 3297 856 2875 390 
Q 2453 -75 1863 -75 
Q 1275 -75 941 416 
L 941 0 
z
M 934 1684 
Q 934 1088 1097 822 
Q 1363 388 1816 388 
Q 2184 388 2453 708 
Q 2722 1028 2722 1663 
Q 2722 2313 2464 2622 
Q 2206 2931 1841 2931 
Q 1472 2931 1203 2611 
Q 934 2291 934 1684 
z
" transform="scale(0.015625)"/>
       <path id="ArialMT-73" d="M 197 991 
L 753 1078 
Q 800 744 1014 566 
Q 1228 388 1613 388 
Q 2000 388 2187 545 
Q 2375 703 2375 916 
Q 2375 1106 2209 1216 
Q 2094 1291 1634 1406 
Q 1016 1563 777 1677 
Q 538 1791 414 1992 
Q 291 2194 291 2438 
Q 291 2659 392 2848 
Q 494 3038 669 3163 
Q 800 3259 1026 3326 
Q 1253 3394 1513 3394 
Q 1903 3394 2198 3281 
Q 2494 3169 2634 2976 
Q 2775 2784 2828 2463 
L 2278 2388 
Q 2241 2644 2061 2787 
Q 1881 2931 1553 2931 
Q 1166 2931 1000 2803 
Q 834 2675 834 2503 
Q 834 2394 903 2306 
Q 972 2216 1119 2156 
Q 1203 2125 1616 2013 
Q 2213 1853 2448 1751 
Q 2684 1650 2818 1456 
Q 2953 1263 2953 975 
Q 2953 694 2789 445 
Q 2625 197 2315 61 
Q 2006 -75 1616 -75 
Q 969 -75 630 194 
Q 291 463 197 991 
z
" transform="scale(0.015625)"/>
       <path id="ArialMT-76" d="M 1344 0 
L 81 3319 
L 675 3319 
L 1388 1331 
Q 1503 1009 1600 663 
Q 1675 925 1809 1294 
L 2547 3319 
L 3125 3319 
L 1869 0 
L 1344 0 
z
" transform="scale(0.015625)"/>
       <path id="ArialMT-61" d="M 2588 409 
Q 2275 144 1986 34 
Q 1697 -75 1366 -75 
Q 819 -75 525 192 
Q 231 459 231 875 
Q 231 1119 342 1320 
Q 453 1522 633 1644 
Q 813 1766 1038 1828 
Q 1203 1872 1538 1913 
Q 2219 1994 2541 2106 
Q 2544 2222 2544 2253 
Q 2544 2597 2384 2738 
Q 2169 2928 1744 2928 
Q 1347 2928 1158 2789 
Q 969 2650 878 2297 
L 328 2372 
Q 403 2725 575 2942 
Q 747 3159 1072 3276 
Q 1397 3394 1825 3394 
Q 2250 3394 2515 3294 
Q 2781 3194 2906 3042 
Q 3031 2891 3081 2659 
Q 3109 2516 3109 2141 
L 3109 1391 
Q 3109 606 3145 398 
Q 3181 191 3288 0 
L 2700 0 
Q 2613 175 2588 409 
z
M 2541 1666 
Q 2234 1541 1622 1453 
Q 1275 1403 1131 1340 
Q 988 1278 909 1158 
Q 831 1038 831 891 
Q 831 666 1001 516 
Q 1172 366 1500 366 
Q 1825 366 2078 508 
Q 2331 650 2450 897 
Q 2541 1088 2541 1459 
L 2541 1666 
z
" transform="scale(0.015625)"/>
      </defs>
      <use xlink:href="#ArialMT-4f"/>
      <use xlink:href="#ArialMT-62" x="77.783203"/>
      <use xlink:href="#ArialMT-73" x="133.398438"/>
      <use xlink:href="#ArialMT-65" x="183.398438"/>
      <use xlink:href="#ArialMT-72" x="239.013672"/>
      <use xlink:href="#ArialMT-76" x="272.314453"/>
      <use xlink:href="#ArialMT-61" x="322.314453"/>
      <use xlink:href="#ArialMT-74" x="377.929688"/>
      <use xlink:href="#ArialMT-69" x="405.712891"/>
      <use xlink:href="#ArialMT-6f" x="427.929688"/>
      <use xlink:href="#ArialMT-6e" x="483.544922"/>
     </g>
    </g>
   </g>
   <g id="line2d_11">
    <path d="M 54.545602 261.216 
L 61.171205 256.278857 
L 67.796808 251.341714 
L 74.422411 246.404571 
L 81.048014 241.467429 
L 87.673617 236.530286 
L 94.29922 231.593143 
L 100.924823 226.656 
L 107.550426 221.718857 
L 114.176029 216.781714 
L 120.801632 211.844571 
L 127.427235 206.907429 
L 134.052838 201.970286 
L 140.678441 197.033143 
L 147.304044 192.096 
L 153.929647 187.158857 
L 160.55525 182.221714 
L 167.180853 177.284571 
L 173.806456 172.347429 
L 180.432059 167.410286 
L 187.057662 162.473143 
L 193.683265 157.536 
L 200.308868 152.598857 
L 206.934471 147.661714 
L 213.560074 142.724571 
L 220.185676 137.787429 
L 226.811279 132.850286 
L 233.436882 127.913143 
L 240.062485 122.976 
L 246.688088 118.038857 
L 253.313691 113.101714 
L 259.939294 108.164571 
L 266.564897 103.227429 
L 273.1905 98.290286 
L 279.816103 93.353143 
L 286.441706 88.416 
L 293.067309 83.478857 
L 299.692912 78.541714 
L 306.318515 73.604571 
L 312.944118 68.667429 
L 319.569721 63.730286 
L 326.195324 58.793143 
L 332.820927 53.856 
L 339.44653 48.918857 
L 346.072133 43.981714 
L 352.697736 39.044571 
L 359.323339 34.107429 
L 365.948942 29.170286 
L 372.574545 24.233143 
L 379.200148 19.296 
" clip-path="url(#p5dc867011e)" style="fill: none; stroke: #ff0000; stroke-width: 2; stroke-linecap: round"/>
   </g>
   <g id="line2d_12">
    <defs>
     <path id="m24c855a33f" d="M 0 2.4 
C 0.636487 2.4 1.246992 2.147121 1.697056 1.697056 
C 2.147121 1.246992 2.4 0.636487 2.4 0 
C 2.4 -0.636487 2.147121 -1.246992 1.697056 -1.697056 
C 1.246992 -2.147121 0.636487 -2.4 0 -2.4 
C -0.636487 -2.4 -1.246992 -2.147121 -1.697056 -1.697056 
C -2.147121 -1.246992 -2.4 -0.636487 -2.4 0 
C -2.4 0.636487 -2.147121 1.246992 -1.697056 1.697056 
C -1.246992 2.147121 -0.636487 2.4 0 2.4 
z
" style="stroke: #0000ff"/>
    </defs>
    <g clip-path="url(#p5dc867011e)">
     <use xlink:href="#m24c855a33f" x="204.373052" y="124.76769" style="fill: #0000ff; stroke: #0000ff"/>
     <use xlink:href="#m24c855a33f" x="311.232932" y="114.807335" style="fill: #0000ff; stroke: #0000ff"/>
     <use xlink:href="#m24c855a33f" x="149.146292" y="129.35219" style="fill: #0000ff; stroke: #0000ff"/>
     <use xlink:href="#m24c855a33f" x="200.763882" y="127.517713" style="fill: #0000ff; stroke: #0000ff"/>
     <use xlink:href="#m24c855a33f" x="54.545602" y="215.476798" style="fill: #0000ff; stroke: #0000ff"/>
     <use xlink:href="#m24c855a33f" x="309.138537" y="102.121995" style="fill: #0000ff; stroke: #0000ff"/>
     <use xlink:href="#m24c855a33f" x="287.066209" y="128.85323" style="fill: #0000ff; stroke: #0000ff"/>
     <use xlink:href="#m24c855a33f" x="169.083032" y="127.238343" style="fill: #0000ff; stroke: #0000ff"/>
     <use xlink:href="#m24c855a33f" x="249.390423" y="128.357855" style="fill: #0000ff; stroke: #0000ff"/>
     <use xlink:href="#m24c855a33f" x="374.17663" y="105.28162" style="fill: #0000ff; stroke: #0000ff"/>
     <use xlink:href="#m24c855a33f" x="199.536544" y="153.42054" style="fill: #0000ff; stroke: #0000ff"/>
     <use xlink:href="#m24c855a33f" x="232.206729" y="113.16208" style="fill: #0000ff; stroke: #0000ff"/>
     <use xlink:href="#m24c855a33f" x="328.161266" y="117.129669" style="fill: #0000ff; stroke: #0000ff"/>
     <use xlink:href="#m24c855a33f" x="302.737855" y="130.518877" style="fill: #0000ff; stroke: #0000ff"/>
     <use xlink:href="#m24c855a33f" x="300.782466" y="112.673428" style="fill: #0000ff; stroke: #0000ff"/>
     <use xlink:href="#m24c855a33f" x="343.531951" y="99.894333" style="fill: #0000ff; stroke: #0000ff"/>
     <use xlink:href="#m24c855a33f" x="172.838787" y="192.714409" style="fill: #0000ff; stroke: #0000ff"/>
     <use xlink:href="#m24c855a33f" x="281.694217" y="110.153676" style="fill: #0000ff; stroke: #0000ff"/>
     <use xlink:href="#m24c855a33f" x="210.25381" y="127.677395" style="fill: #0000ff; stroke: #0000ff"/>
     <use xlink:href="#m24c855a33f" x="275.821964" y="97.67267" style="fill: #0000ff; stroke: #0000ff"/>
     <use xlink:href="#m24c855a33f" x="262.67108" y="99.032254" style="fill: #0000ff; stroke: #0000ff"/>
     <use xlink:href="#m24c855a33f" x="175.811681" y="151.188536" style="fill: #0000ff; stroke: #0000ff"/>
     <use xlink:href="#m24c855a33f" x="227.441278" y="127.719662" style="fill: #0000ff; stroke: #0000ff"/>
     <use xlink:href="#m24c855a33f" x="340.796355" y="103.95029" style="fill: #0000ff; stroke: #0000ff"/>
     <use xlink:href="#m24c855a33f" x="108.817536" y="211.855441" style="fill: #0000ff; stroke: #0000ff"/>
     <use xlink:href="#m24c855a33f" x="317.01" y="138.731572" style="fill: #0000ff; stroke: #0000ff"/>
     <use xlink:href="#m24c855a33f" x="68.686869" y="185.372374" style="fill: #0000ff; stroke: #0000ff"/>
     <use xlink:href="#m24c855a33f" x="168.525248" y="128.202928" style="fill: #0000ff; stroke: #0000ff"/>
     <use xlink:href="#m24c855a33f" x="339.070867" y="125.805251" style="fill: #0000ff; stroke: #0000ff"/>
     <use xlink:href="#m24c855a33f" x="230.364098" y="126.887358" style="fill: #0000ff; stroke: #0000ff"/>
     <use xlink:href="#m24c855a33f" x="253.302155" y="115.344131" style="fill: #0000ff; stroke: #0000ff"/>
     <use xlink:href="#m24c855a33f" x="261.145502" y="100.402174" style="fill: #0000ff; stroke: #0000ff"/>
     <use xlink:href="#m24c855a33f" x="214.328263" y="123.321643" style="fill: #0000ff; stroke: #0000ff"/>
     <use xlink:href="#m24c855a33f" x="112.770388" y="177.50817" style="fill: #0000ff; stroke: #0000ff"/>
     <use xlink:href="#m24c855a33f" x="185.867009" y="126.74392" style="fill: #0000ff; stroke: #0000ff"/>
     <use xlink:href="#m24c855a33f" x="243.617627" y="147.776713" style="fill: #0000ff; stroke: #0000ff"/>
     <use xlink:href="#m24c855a33f" x="286.292707" y="128.383267" style="fill: #0000ff; stroke: #0000ff"/>
     <use xlink:href="#m24c855a33f" x="206.255508" y="147.008748" style="fill: #0000ff; stroke: #0000ff"/>
     <use xlink:href="#m24c855a33f" x="315.67081" y="128.115081" style="fill: #0000ff; stroke: #0000ff"/>
     <use xlink:href="#m24c855a33f" x="231.715527" y="139.695706" style="fill: #0000ff; stroke: #0000ff"/>
     <use xlink:href="#m24c855a33f" x="189.375972" y="128.531026" style="fill: #0000ff; stroke: #0000ff"/>
     <use xlink:href="#m24c855a33f" x="261.449645" y="97.397086" style="fill: #0000ff; stroke: #0000ff"/>
     <use xlink:href="#m24c855a33f" x="248.286418" y="125.955325" style="fill: #0000ff; stroke: #0000ff"/>
     <use xlink:href="#m24c855a33f" x="172.374677" y="210.874926" style="fill: #0000ff; stroke: #0000ff"/>
     <use xlink:href="#m24c855a33f" x="180.637319" y="202.091188" style="fill: #0000ff; stroke: #0000ff"/>
     <use xlink:href="#m24c855a33f" x="309.031887" y="98.221529" style="fill: #0000ff; stroke: #0000ff"/>
     <use xlink:href="#m24c855a33f" x="193.708002" y="126.281312" style="fill: #0000ff; stroke: #0000ff"/>
     <use xlink:href="#m24c855a33f" x="266.310217" y="109.447043" style="fill: #0000ff; stroke: #0000ff"/>
     <use xlink:href="#m24c855a33f" x="379.200148" y="109.709416" style="fill: #0000ff; stroke: #0000ff"/>
     <use xlink:href="#m24c855a33f" x="120.91267" y="212.684439" style="fill: #0000ff; stroke: #0000ff"/>
     <use xlink:href="#m24c855a33f" x="337.014705" y="118.58483" style="fill: #0000ff; stroke: #0000ff"/>
     <use xlink:href="#m24c855a33f" x="209.090531" y="120.745347" style="fill: #0000ff; stroke: #0000ff"/>
     <use xlink:href="#m24c855a33f" x="326.340908" y="113.072425" style="fill: #0000ff; stroke: #0000ff"/>
     <use xlink:href="#m24c855a33f" x="230.158783" y="125.527837" style="fill: #0000ff; stroke: #0000ff"/>
     <use xlink:href="#m24c855a33f" x="140.258097" y="213.121623" style="fill: #0000ff; stroke: #0000ff"/>
     <use xlink:href="#m24c855a33f" x="278.257493" y="109.092192" style="fill: #0000ff; stroke: #0000ff"/>
     <use xlink:href="#m24c855a33f" x="139.872119" y="167.059762" style="fill: #0000ff; stroke: #0000ff"/>
     <use xlink:href="#m24c855a33f" x="302.322429" y="126.400796" style="fill: #0000ff; stroke: #0000ff"/>
     <use xlink:href="#m24c855a33f" x="289.877483" y="136.678354" style="fill: #0000ff; stroke: #0000ff"/>
     <use xlink:href="#m24c855a33f" x="201.472322" y="163.114666" style="fill: #0000ff; stroke: #0000ff"/>
     <use xlink:href="#m24c855a33f" x="221.456792" y="142.941415" style="fill: #0000ff; stroke: #0000ff"/>
     <use xlink:href="#m24c855a33f" x="231.325745" y="142.889522" style="fill: #0000ff; stroke: #0000ff"/>
     <use xlink:href="#m24c855a33f" x="290.488098" y="108.742424" style="fill: #0000ff; stroke: #0000ff"/>
     <use xlink:href="#m24c855a33f" x="137.226289" y="185.731292" style="fill: #0000ff; stroke: #0000ff"/>
     <use xlink:href="#m24c855a33f" x="313.704111" y="97.407849" style="fill: #0000ff; stroke: #0000ff"/>
     <use xlink:href="#m24c855a33f" x="208.359586" y="148.80976" style="fill: #0000ff; stroke: #0000ff"/>
     <use xlink:href="#m24c855a33f" x="170.370479" y="123.663017" style="fill: #0000ff; stroke: #0000ff"/>
     <use xlink:href="#m24c855a33f" x="218.537582" y="138.778871" style="fill: #0000ff; stroke: #0000ff"/>
     <use xlink:href="#m24c855a33f" x="193.655095" y="140.747066" style="fill: #0000ff; stroke: #0000ff"/>
     <use xlink:href="#m24c855a33f" x="152.109468" y="212.584779" style="fill: #0000ff; stroke: #0000ff"/>
     <use xlink:href="#m24c855a33f" x="271.677644" y="134.606815" style="fill: #0000ff; stroke: #0000ff"/>
     <use xlink:href="#m24c855a33f" x="222.918886" y="105.774551" style="fill: #0000ff; stroke: #0000ff"/>
     <use xlink:href="#m24c855a33f" x="199.400603" y="128.45385" style="fill: #0000ff; stroke: #0000ff"/>
     <use xlink:href="#m24c855a33f" x="366.798231" y="110.616961" style="fill: #0000ff; stroke: #0000ff"/>
     <use xlink:href="#m24c855a33f" x="201.539532" y="127.213305" style="fill: #0000ff; stroke: #0000ff"/>
     <use xlink:href="#m24c855a33f" x="296.444312" y="120.770818" style="fill: #0000ff; stroke: #0000ff"/>
     <use xlink:href="#m24c855a33f" x="268.323044" y="98.846792" style="fill: #0000ff; stroke: #0000ff"/>
     <use xlink:href="#m24c855a33f" x="258.251584" y="134.504879" style="fill: #0000ff; stroke: #0000ff"/>
     <use xlink:href="#m24c855a33f" x="238.41813" y="127.843249" style="fill: #0000ff; stroke: #0000ff"/>
     <use xlink:href="#m24c855a33f" x="251.748908" y="125.451486" style="fill: #0000ff; stroke: #0000ff"/>
     <use xlink:href="#m24c855a33f" x="283.212597" y="108.687665" style="fill: #0000ff; stroke: #0000ff"/>
     <use xlink:href="#m24c855a33f" x="230.509333" y="133.311065" style="fill: #0000ff; stroke: #0000ff"/>
     <use xlink:href="#m24c855a33f" x="223.972491" y="124.735481" style="fill: #0000ff; stroke: #0000ff"/>
     <use xlink:href="#m24c855a33f" x="226.443786" y="124.704557" style="fill: #0000ff; stroke: #0000ff"/>
     <use xlink:href="#m24c855a33f" x="199.098317" y="125.486208" style="fill: #0000ff; stroke: #0000ff"/>
     <use xlink:href="#m24c855a33f" x="229.92181" y="139.231657" style="fill: #0000ff; stroke: #0000ff"/>
     <use xlink:href="#m24c855a33f" x="199.955605" y="180.081956" style="fill: #0000ff; stroke: #0000ff"/>
     <use xlink:href="#m24c855a33f" x="332.788821" y="108.076199" style="fill: #0000ff; stroke: #0000ff"/>
     <use xlink:href="#m24c855a33f" x="185.470458" y="124.127964" style="fill: #0000ff; stroke: #0000ff"/>
     <use xlink:href="#m24c855a33f" x="79.252566" y="213.260956" style="fill: #0000ff; stroke: #0000ff"/>
     <use xlink:href="#m24c855a33f" x="307.889095" y="108.170999" style="fill: #0000ff; stroke: #0000ff"/>
     <use xlink:href="#m24c855a33f" x="91.576071" y="182.066996" style="fill: #0000ff; stroke: #0000ff"/>
     <use xlink:href="#m24c855a33f" x="194.422436" y="128.300068" style="fill: #0000ff; stroke: #0000ff"/>
     <use xlink:href="#m24c855a33f" x="293.272529" y="127.551033" style="fill: #0000ff; stroke: #0000ff"/>
     <use xlink:href="#m24c855a33f" x="206.780432" y="114.946465" style="fill: #0000ff; stroke: #0000ff"/>
     <use xlink:href="#m24c855a33f" x="219.342483" y="128.163866" style="fill: #0000ff; stroke: #0000ff"/>
     <use xlink:href="#m24c855a33f" x="220.975088" y="107.515855" style="fill: #0000ff; stroke: #0000ff"/>
     <use xlink:href="#m24c855a33f" x="120.570641" y="128.099156" style="fill: #0000ff; stroke: #0000ff"/>
     <use xlink:href="#m24c855a33f" x="310.986609" y="112.933493" style="fill: #0000ff; stroke: #0000ff"/>
     <use xlink:href="#m24c855a33f" x="200.856201" y="138.38968" style="fill: #0000ff; stroke: #0000ff"/>
    </g>
   </g>
   <g id="patch_3">
    <path d="M 38.312875 273.312 
L 38.312875 7.2 
" style="fill: none; stroke: #262626; stroke-linejoin: miter; stroke-linecap: square"/>
   </g>
   <g id="patch_4">
    <path d="M 395.432875 273.312 
L 395.432875 7.2 
" style="fill: none; stroke: #262626; stroke-linejoin: miter; stroke-linecap: square"/>
   </g>
   <g id="patch_5">
    <path d="M 38.312875 273.312 
L 395.432875 273.312 
" style="fill: none; stroke: #262626; stroke-linejoin: miter; stroke-linecap: square"/>
   </g>
   <g id="patch_6">
    <path d="M 38.312875 7.2 
L 395.432875 7.2 
" style="fill: none; stroke: #262626; stroke-linejoin: miter; stroke-linecap: square"/>
   </g>
  </g>
 </g>
 <defs>
  <clipPath id="p5dc867011e">
   <rect x="38.312875" y="7.2" width="357.12" height="266.112"/>
  </clipPath>
 </defs>
</svg>