<?xml version="1.0" encoding="utf-8" standalone="no"?>
<!DOCTYPE svg PUBLIC "-//W3C//DTD SVG 1.1//EN"
  "http://www.w3.org/Graphics/SVG/1.1/DTD/svg11.dtd">
<svg xmlns:xlink="http://www.w3.org/1999/xlink" width="402.632875pt" height="309.639375pt" viewBox="0 0 402.632875 309.639375" xmlns="http://www.w3.org/2000/svg" version="1.1">
 <metadata>
  <rdf:RDF xmlns:dc="http://purl.org/dc/elements/1.1/" xmlns:cc="http://creativecommons.org/ns#" xmlns:rdf="http://www.w3.org/1999/02/22-rdf-syntax-ns#">
   <cc:Work>
    <dc:type rdf:resource="http://purl.org/dc/dcmitype/StillImage"/>
    <dc:date>2023-10-23T22:30:06.040326</dc:date>
    <dc:format>image/svg+xml</dc:format>
    <dc:creator>
     <cc:Agent>
      <dc:title>Matplotlib v3.7.1, https://matplotlib.org/</dc:title>
     </cc:Agent>
    </dc:creator>
   </cc:Work>
  </rdf:RDF>
 </metadata>
 <defs>
  <style type="text/css">*{stroke-linejoin: round; stroke-linecap: butt}</style>
 </defs>
 <g id="figure_1">
  <g id="patch_1">
   <path d="M 0 309.639375 
L 402.632875 309.639375 
L 402.632875 0 
L 0 0 
z
" style="fill: #ffffff"/>
  </g>
  <g id="axes_1">
   <g id="patch_2">
    <path d="M 38.312875 273.312 
L 395.432875 273.312 
L 395.432875 7.2 
L 38.312875 7.2 
z
" style="fill: #ffffff"/>
   </g>
   <g id="matplotlib.axis_1">
    <g id="xtick_1">
     <g id="line2d_1">
      <defs>
       <path id="m77fce1277c" d="M 0 0 
L 0 4.8 
" style="stroke: #262626"/>
      </defs>
      <g>
       <use xlink:href="#m77fce1277c" x="54.545602" y="273.312" style="fill: #262626; stroke: #262626"/>
      </g>
     </g>
     <g id="text_1">
      <!-- 0.0 -->
      <g style="fill: #262626" transform="translate(48.429602 287.910875) scale(0.088 -0.088)">
       <defs>
        <path id="ArialMT-30" d="M 266 2259 
Q 266 3072 433 3567 
Q 600 4063 929 4331 
Q 1259 4600 1759 4600 
Q 2128 4600 2406 4451 
Q 2684 4303 2865 4023 
Q 3047 3744 3150 3342 
Q 3253 2941 3253 2259 
Q 3253 1453 3087 958 
Q 2922 463 2592 192 
Q 2263 -78 1759 -78 
Q 1097 -78 719 397 
Q 266 969 266 2259 
z
M 844 2259 
Q 844 1131 1108 757 
Q 1372 384 1759 384 
Q 2147 384 2411 759 
Q 2675 1134 2675 2259 
Q 2675 3391 2411 3762 
Q 2147 4134 1753 4134 
Q 1366 4134 1134 3806 
Q 844 3388 844 2259 
z
" transform="scale(0.015625)"/>
        <path id="ArialMT-2e" d="M 581 0 
L 581 641 
L 1222 641 
L 1222 0 
L 581 0 
z
" transform="scale(0.015625)"/>
       </defs>
       <use xlink:href="#ArialMT-30"/>
       <use xlink:href="#ArialMT-2e" x="55.615234"/>
       <use xlink:href="#ArialMT-30" x="83.398438"/>
      </g>
     </g>
    </g>
    <g id="xtick_2">
     <g id="line2d_2">
      <g>
       <use xlink:href="#m77fce1277c" x="119.476511" y="273.312" style="fill: #262626; stroke: #262626"/>
      </g>
     </g>
     <g id="text_2">
      <!-- 0.2 -->
      <g style="fill: #262626" transform="translate(113.360511 287.910875) scale(0.088 -0.088)">
       <defs>
        <path id="ArialMT-32" d="M 3222 541 
L 3222 0 
L 194 0 
Q 188 203 259 391 
Q 375 700 629 1000 
Q 884 1300 1366 1694 
Q 2113 2306 2375 2664 
Q 2638 3022 2638 3341 
Q 2638 3675 2398 3904 
Q 2159 4134 1775 4134 
Q 1369 4134 1125 3890 
Q 881 3647 878 3216 
L 300 3275 
Q 359 3922 746 4261 
Q 1134 4600 1788 4600 
Q 2447 4600 2831 4234 
Q 3216 3869 3216 3328 
Q 3216 3053 3103 2787 
Q 2991 2522 2730 2228 
Q 2469 1934 1863 1422 
Q 1356 997 1212 845 
Q 1069 694 975 541 
L 3222 541 
z
" transform="scale(0.015625)"/>
       </defs>
       <use xlink:href="#ArialMT-30"/>
       <use xlink:href="#ArialMT-2e" x="55.615234"/>
       <use xlink:href="#ArialMT-32" x="83.398438"/>
      </g>
     </g>
    </g>
    <g id="xtick_3">
     <g id="line2d_3">
      <g>
       <use xlink:href="#m77fce1277c" x="184.40742" y="273.312" style="fill: #262626; stroke: #262626"/>
      </g>
     </g>
     <g id="text_3">
      <!-- 0.4 -->
      <g style="fill: #262626" transform="translate(178.29142 287.910875) scale(0.088 -0.088)">
       <defs>
        <path id="ArialMT-34" d="M 2069 0 
L 2069 1097 
L 81 1097 
L 81 1613 
L 2172 4581 
L 2631 4581 
L 2631 1613 
L 3250 1613 
L 3250 1097 
L 2631 1097 
L 2631 0 
L 2069 0 
z
M 2069 1613 
L 2069 3678 
L 634 1613 
L 2069 1613 
z
" transform="scale(0.015625)"/>
       </defs>
       <use xlink:href="#ArialMT-30"/>
       <use xlink:href="#ArialMT-2e" x="55.615234"/>
       <use xlink:href="#ArialMT-34" x="83.398438"/>
      </g>
     </g>
    </g>
    <g id="xtick_4">
     <g id="line2d_4">
      <g>
       <use xlink:href="#m77fce1277c" x="249.33833" y="273.312" style="fill: #262626; stroke: #262626"/>
      </g>
     </g>
     <g id="text_4">
      <!-- 0.6 -->
      <g style="fill: #262626" transform="translate(243.22233 287.910875) scale(0.088 -0.088)">
       <defs>
        <path id="ArialMT-36" d="M 3184 3459 
L 2625 3416 
Q 2550 3747 2413 3897 
Q 2184 4138 1850 4138 
Q 1581 4138 1378 3988 
Q 1113 3794 959 3422 
Q 806 3050 800 2363 
Q 1003 2672 1297 2822 
Q 1591 2972 1913 2972 
Q 2475 2972 2870 2558 
Q 3266 2144 3266 1488 
Q 3266 1056 3080 686 
Q 2894 316 2569 119 
Q 2244 -78 1831 -78 
Q 1128 -78 684 439 
Q 241 956 241 2144 
Q 241 3472 731 4075 
Q 1159 4600 1884 4600 
Q 2425 4600 2770 4297 
Q 3116 3994 3184 3459 
z
M 888 1484 
Q 888 1194 1011 928 
Q 1134 663 1356 523 
Q 1578 384 1822 384 
Q 2178 384 2434 671 
Q 2691 959 2691 1453 
Q 2691 1928 2437 2201 
Q 2184 2475 1800 2475 
Q 1419 2475 1153 2201 
Q 888 1928 888 1484 
z
" transform="scale(0.015625)"/>
       </defs>
       <use xlink:href="#ArialMT-30"/>
       <use xlink:href="#ArialMT-2e" x="55.615234"/>
       <use xlink:href="#ArialMT-36" x="83.398438"/>
      </g>
     </g>
    </g>
    <g id="xtick_5">
     <g id="line2d_5">
      <g>
       <use xlink:href="#m77fce1277c" x="314.269239" y="273.312" style="fill: #262626; stroke: #262626"/>
      </g>
     </g>
     <g id="text_5">
      <!-- 0.8 -->
      <g style="fill: #262626" transform="translate(308.153239 287.910875) scale(0.088 -0.088)">
       <defs>
        <path id="ArialMT-38" d="M 1131 2484 
Q 781 2613 612 2850 
Q 444 3088 444 3419 
Q 444 3919 803 4259 
Q 1163 4600 1759 4600 
Q 2359 4600 2725 4251 
Q 3091 3903 3091 3403 
Q 3091 3084 2923 2848 
Q 2756 2613 2416 2484 
Q 2838 2347 3058 2040 
Q 3278 1734 3278 1309 
Q 3278 722 2862 322 
Q 2447 -78 1769 -78 
Q 1091 -78 675 323 
Q 259 725 259 1325 
Q 259 1772 486 2073 
Q 713 2375 1131 2484 
z
M 1019 3438 
Q 1019 3113 1228 2906 
Q 1438 2700 1772 2700 
Q 2097 2700 2305 2904 
Q 2513 3109 2513 3406 
Q 2513 3716 2298 3927 
Q 2084 4138 1766 4138 
Q 1444 4138 1231 3931 
Q 1019 3725 1019 3438 
z
M 838 1322 
Q 838 1081 952 856 
Q 1066 631 1291 507 
Q 1516 384 1775 384 
Q 2178 384 2440 643 
Q 2703 903 2703 1303 
Q 2703 1709 2433 1975 
Q 2163 2241 1756 2241 
Q 1359 2241 1098 1978 
Q 838 1716 838 1322 
z
" transform="scale(0.015625)"/>
       </defs>
       <use xlink:href="#ArialMT-30"/>
       <use xlink:href="#ArialMT-2e" x="55.615234"/>
       <use xlink:href="#ArialMT-38" x="83.398438"/>
      </g>
     </g>
    </g>
    <g id="xtick_6">
     <g id="line2d_6">
      <g>
       <use xlink:href="#m77fce1277c" x="379.200148" y="273.312" style="fill: #262626; stroke: #262626"/>
      </g>
     </g>
     <g id="text_6">
      <!-- 1.0 -->
      <g style="fill: #262626" transform="translate(373.084148 287.910875) scale(0.088 -0.088)">
       <defs>
        <path id="ArialMT-31" d="M 2384 0 
L 1822 0 
L 1822 3584 
Q 1619 3391 1289 3197 
Q 959 3003 697 2906 
L 697 3450 
Q 1169 3672 1522 3987 
Q 1875 4303 2022 4600 
L 2384 4600 
L 2384 0 
z
" transform="scale(0.015625)"/>
       </defs>
       <use xlink:href="#ArialMT-31"/>
       <use xlink:href="#ArialMT-2e" x="55.615234"/>
       <use xlink:href="#ArialMT-30" x="83.398438"/>
      </g>
     </g>
    </g>
    <g id="text_7">
     <!-- $x$ -->
     <g style="fill: #262626" transform="translate(213.992875 300.531375) scale(0.096 -0.096)">
      <defs>
       <path id="DejaVuSans-Oblique-78" d="M 3841 3500 
L 2234 1784 
L 3219 0 
L 2559 0 
L 1819 1388 
L 531 0 
L -166 0 
L 1556 1844 
L 641 3500 
L 1300 3500 
L 1972 2234 
L 3144 3500 
L 3841 3500 
z
" transform="scale(0.015625)"/>
      </defs>
      <use xlink:href="#DejaVuSans-Oblique-78" transform="translate(0 0.3125)"/>
     </g>
    </g>
   </g>
   <g id="matplotlib.axis_2">
    <g id="ytick_1">
     <g id="line2d_7">
      <defs>
       <path id="meeecdf04d8" d="M 0 0 
L -4.8 0 
" style="stroke: #262626"/>
      </defs>
      <g>
       <use xlink:href="#meeecdf04d8" x="38.312875" y="246.7008" style="fill: #262626; stroke: #262626"/>
      </g>
     </g>
     <g id="text_8">
      <!-- −4 -->
      <g style="fill: #262626" transform="translate(19.9795 249.850237) scale(0.088 -0.088)">
       <defs>
        <path id="ArialMT-2212" d="M 3381 1997 
L 356 1997 
L 356 2522 
L 3381 2522 
L 3381 1997 
z
" transform="scale(0.015625)"/>
       </defs>
       <use xlink:href="#ArialMT-2212"/>
       <use xlink:href="#ArialMT-34" x="58.398438"/>
      </g>
     </g>
    </g>
    <g id="ytick_2">
     <g id="line2d_8">
      <g>
       <use xlink:href="#meeecdf04d8" x="38.312875" y="193.4784" style="fill: #262626; stroke: #262626"/>
      </g>
     </g>
     <g id="text_9">
      <!-- −2 -->
      <g style="fill: #262626" transform="translate(19.9795 196.627837) scale(0.088 -0.088)">
       <use xlink:href="#ArialMT-2212"/>
       <use xlink:href="#ArialMT-32" x="58.398438"/>
      </g>
     </g>
    </g>
    <g id="ytick_3">
     <g id="line2d_9">
      <g>
       <use xlink:href="#meeecdf04d8" x="38.312875" y="140.256" style="fill: #262626; stroke: #262626"/>
      </g>
     </g>
     <g id="text_10">
      <!-- 0 -->
      <g style="fill: #262626" transform="translate(25.11925 143.405437) scale(0.088 -0.088)">
       <use xlink:href="#ArialMT-30"/>
      </g>
     </g>
    </g>
    <g id="ytick_4">
     <g id="line2d_10">
      <g>
       <use xlink:href="#meeecdf04d8" x="38.312875" y="87.0336" style="fill: #262626; stroke: #262626"/>
      </g>
     </g>
     <g id="text_11">
      <!-- 2 -->
      <g style="fill: #262626" transform="translate(25.11925 90.183037) scale(0.088 -0.088)">
       <use xlink:href="#ArialMT-32"/>
      </g>
     </g>
    </g>
    <g id="ytick_5">
     <g id="line2d_11">
      <g>
       <use xlink:href="#meeecdf04d8" x="38.312875" y="33.8112" style="fill: #262626; stroke: #262626"/>
      </g>
     </g>
     <g id="text_12">
      <!-- 4 -->
      <g style="fill: #262626" transform="translate(25.11925 36.960637) scale(0.088 -0.088)">
       <use xlink:href="#ArialMT-34"/>
      </g>
     </g>
    </g>
    <g id="text_13">
     <!-- $y$ -->
     <g style="fill: #262626" transform="translate(13.9635 143.136) rotate(-90) scale(0.096 -0.096)">
      <defs>
       <path id="DejaVuSans-Oblique-79" d="M 1588 -325 
Q 1188 -997 936 -1164 
Q 684 -1331 294 -1331 
L -159 -1331 
L -63 -850 
L 269 -850 
Q 509 -850 678 -719 
Q 847 -588 1056 -206 
L 1234 128 
L 459 3500 
L 1069 3500 
L 1650 819 
L 3256 3500 
L 3859 3500 
L 1588 -325 
z
" transform="scale(0.015625)"/>
      </defs>
      <use xlink:href="#DejaVuSans-Oblique-79" transform="translate(0 0.3125)"/>
     </g>
    </g>
   </g>
   <g id="line2d_12">
    <path d="M 54.545602 140.256 
L 379.200148 140.256 
L 379.200148 140.256 
" clip-path="url(#pbb152a1a25)" style="fill: none; stroke: #1f77b4; stroke-width: 1.2; stroke-linecap: round"/>
   </g>
   <g id="line2d_13">
    <path d="M 54.545602 70.11174 
L 57.808462 73.324217 
L 59.439892 75.119226 
L 62.702752 77.848662 
L 64.334181 78.864624 
L 67.597041 80.264516 
L 69.228471 80.945686 
L 72.491331 81.983809 
L 74.12276 82.833808 
L 75.75419 84.124231 
L 77.38562 85.932132 
L 80.64848 90.397858 
L 82.27991 92.679787 
L 83.91134 95.353042 
L 85.54277 97.729766 
L 92.06849 108.117917 
L 95.33135 114.512712 
L 96.962778 118.020339 
L 105.11993 137.024464 
L 106.751358 140.431977 
L 110.014218 146.280463 
L 111.645645 148.685975 
L 113.277078 150.663598 
L 114.908505 152.860476 
L 116.539938 155.399218 
L 119.802798 160.847436 
L 124.697085 168.845917 
L 127.959945 172.946581 
L 129.591378 174.380037 
L 131.222806 175.538723 
L 134.485666 177.280453 
L 136.117098 177.794833 
L 137.748526 178.02669 
L 139.379953 177.968316 
L 144.274246 176.689047 
L 145.905673 176.465372 
L 147.537101 176.631768 
L 149.168538 177.045519 
L 150.799966 177.62744 
L 152.431393 178.645828 
L 154.062821 179.237593 
L 155.694258 179.626482 
L 157.325686 179.538647 
L 158.957113 178.954201 
L 160.588541 177.730108 
L 162.219968 175.684896 
L 168.745688 165.705563 
L 175.271409 155.570728 
L 176.902846 152.656863 
L 178.534273 149.456853 
L 181.797129 142.182879 
L 185.059993 134.025537 
L 186.691421 130.449722 
L 189.954276 124.865536 
L 191.585713 122.807782 
L 193.217141 120.999126 
L 194.848569 119.432615 
L 196.479996 118.328203 
L 198.111434 117.593338 
L 199.742861 117.573205 
L 201.374289 117.766645 
L 203.005716 118.608186 
L 204.637154 119.750849 
L 207.900009 123.372606 
L 211.162864 127.510505 
L 212.794301 129.0269 
L 216.057156 131.579845 
L 217.688594 132.129187 
L 219.320031 131.888642 
L 220.951449 131.307134 
L 222.582886 131.02382 
L 224.214304 130.96624 
L 227.477179 130.437796 
L 229.108596 130.117338 
L 230.740034 130.050004 
L 234.002889 131.040229 
L 235.634326 131.646445 
L 237.265763 131.955218 
L 238.897181 132.611936 
L 242.160037 133.206259 
L 245.422911 131.964485 
L 248.685747 130.302964 
L 250.317184 129.232323 
L 251.948621 127.984006 
L 255.211477 126.00711 
L 256.842895 125.323515 
L 258.474332 125.131081 
L 260.105769 125.12378 
L 261.737206 125.288451 
L 263.368624 126.274733 
L 265.000062 126.966241 
L 266.631479 128.037965 
L 269.894354 130.867002 
L 274.788627 135.080682 
L 278.051502 137.418485 
L 279.682939 138.351304 
L 289.471504 145.152642 
L 291.102922 145.997405 
L 292.73436 146.48238 
L 297.628652 149.394492 
L 300.891507 152.028775 
L 302.522944 152.940008 
L 304.154382 153.54204 
L 305.7858 153.837429 
L 307.417237 153.495956 
L 309.048655 152.96226 
L 310.680092 151.355469 
L 312.311529 149.525139 
L 313.942947 147.053036 
L 318.83724 138.492775 
L 322.100114 132.060378 
L 325.362969 125.598493 
L 326.994387 122.482028 
L 328.625825 119.67514 
L 330.257262 117.091291 
L 331.88868 114.980656 
L 335.151535 112.202177 
L 338.41441 110.624578 
L 340.045827 110.027915 
L 344.94012 109.382 
L 346.571557 109.132923 
L 348.202975 109.297325 
L 349.834412 109.701114 
L 351.46583 110.350041 
L 354.728705 112.165739 
L 356.360123 112.745592 
L 359.622997 114.095944 
L 361.254415 114.71444 
L 362.885852 115.582985 
L 364.51727 116.748761 
L 369.411563 119.732442 
L 371.043 120.481391 
L 374.305855 122.499825 
L 375.937293 123.813737 
L 377.56871 125.992745 
L 379.200148 128.614766 
L 379.200148 128.614766 
" clip-path="url(#pbb152a1a25)" style="fill: none; stroke: #ff7f0e; stroke-width: 0.5; stroke-linecap: round"/>
   </g>
   <g id="line2d_14">
    <path d="M 54.545602 113.066718 
L 57.808462 111.24305 
L 59.439892 110.862669 
L 61.071322 110.750861 
L 64.334181 112.49353 
L 65.965611 113.66272 
L 67.597041 115.057239 
L 69.228471 116.231752 
L 70.859901 117.142501 
L 72.491331 117.254682 
L 74.12276 116.959938 
L 75.75419 116.473253 
L 77.38562 115.443273 
L 79.01705 114.108085 
L 82.27991 110.846208 
L 83.91134 109.079524 
L 85.54277 107.506716 
L 87.1742 106.211468 
L 88.80563 105.297131 
L 90.43706 104.928046 
L 92.06849 105.669626 
L 93.699918 106.835031 
L 96.962778 110.324418 
L 103.488498 119.154807 
L 106.751358 122.429536 
L 108.382785 123.597738 
L 110.014218 124.54507 
L 111.645645 125.071066 
L 113.277078 125.129096 
L 114.908505 124.76199 
L 116.539938 124.023513 
L 118.171365 122.735581 
L 119.802798 121.051264 
L 121.434225 118.770703 
L 124.697085 112.511958 
L 126.328518 109.115149 
L 129.591378 103.004981 
L 131.222806 100.344447 
L 132.854233 98.168501 
L 134.485666 96.413853 
L 136.117098 95.156464 
L 137.748526 94.417736 
L 139.379953 94.413463 
L 141.011381 94.688299 
L 142.642818 95.159097 
L 144.274246 95.998111 
L 145.905673 97.048019 
L 147.537101 98.311363 
L 150.799966 102.819331 
L 154.062821 107.953956 
L 157.325686 113.606282 
L 162.219968 124.665597 
L 165.482833 132.03815 
L 167.114261 135.359041 
L 170.377126 140.42601 
L 172.008553 142.419645 
L 173.639981 143.417147 
L 175.271409 144.079886 
L 176.902846 144.42861 
L 180.165701 143.658056 
L 181.797129 143.053646 
L 183.428566 142.185611 
L 186.691421 139.919766 
L 189.954276 136.584407 
L 191.585713 134.597761 
L 193.217141 133.003576 
L 194.848569 132.032606 
L 196.479996 131.231777 
L 198.111434 130.934441 
L 199.742861 130.502757 
L 201.374289 130.373067 
L 203.005716 130.492872 
L 204.637154 131.256773 
L 206.268581 132.253144 
L 209.531436 134.512922 
L 211.162864 135.447324 
L 212.794301 136.714262 
L 219.320031 140.530635 
L 220.951449 141.286742 
L 222.582886 142.432317 
L 224.214304 143.800088 
L 227.477179 147.116703 
L 229.108596 148.5703 
L 230.740034 149.385667 
L 232.371452 149.424104 
L 234.002889 148.799824 
L 235.634326 147.529991 
L 237.265763 145.953889 
L 238.897181 144.03058 
L 240.528599 142.331611 
L 242.160037 140.217395 
L 248.685747 129.106225 
L 251.948621 124.165282 
L 253.580059 122.57441 
L 255.211477 121.195373 
L 256.842895 120.360645 
L 258.474332 119.969394 
L 260.105769 119.818005 
L 265.000062 120.438877 
L 266.631479 120.244445 
L 268.262917 119.763156 
L 271.525791 118.471864 
L 273.157209 117.73612 
L 274.788627 116.724441 
L 276.420064 115.931529 
L 278.051502 114.963252 
L 279.682939 113.655587 
L 281.314357 111.835167 
L 289.471504 100.584067 
L 291.102922 99.307421 
L 292.73436 98.677345 
L 294.365797 98.642259 
L 295.997234 99.342888 
L 297.628652 100.334194 
L 299.260089 102.199762 
L 300.891507 104.823072 
L 302.522944 107.937869 
L 305.7858 115.001876 
L 309.048655 122.66054 
L 315.574385 136.857408 
L 318.83724 143.147367 
L 322.100114 149.638136 
L 328.625825 164.982096 
L 330.257262 168.32552 
L 331.88868 171.135184 
L 333.520117 173.284634 
L 335.151535 174.562374 
L 336.782972 175.674774 
L 338.41441 176.163308 
L 343.308683 176.523948 
L 344.94012 176.503887 
L 346.571557 176.107834 
L 349.834412 174.730002 
L 351.46583 173.826454 
L 353.097268 172.499591 
L 354.728705 171.31918 
L 357.99156 169.454079 
L 359.622997 168.887398 
L 361.254415 167.839346 
L 367.780145 165.425715 
L 369.411563 164.738044 
L 371.043 163.278346 
L 372.674437 162.003179 
L 374.305855 160.450461 
L 375.937293 159.242039 
L 377.56871 157.705501 
L 379.200148 156.477347 
L 379.200148 156.477347 
" clip-path="url(#pbb152a1a25)" style="fill: none; stroke: #ff7f0e; stroke-width: 0.5; stroke-linecap: round"/>
   </g>
   <g id="line2d_15">
    <path d="M 54.545602 181.411279 
L 59.439892 178.551611 
L 62.702752 176.572735 
L 65.965611 174.023768 
L 67.597041 172.18021 
L 69.228471 170.663662 
L 70.859901 168.53519 
L 72.491331 166.005433 
L 75.75419 161.731719 
L 77.38562 159.857935 
L 79.01705 158.202399 
L 82.27991 155.454927 
L 83.91134 154.434256 
L 87.1742 153.082657 
L 88.80563 151.817806 
L 90.43706 150.374104 
L 92.06849 148.238846 
L 93.699918 145.637558 
L 95.33135 143.268833 
L 100.225638 134.743656 
L 101.85707 132.212636 
L 103.488498 130.176189 
L 106.751358 125.884958 
L 108.382785 124.085108 
L 110.014218 121.935712 
L 111.645645 119.998856 
L 113.277078 118.43099 
L 114.908505 117.1025 
L 116.539938 115.966346 
L 118.171365 115.209946 
L 121.434225 114.00906 
L 123.065658 113.147237 
L 124.697085 111.884356 
L 126.328518 110.290347 
L 131.222806 104.649267 
L 132.854233 103.666961 
L 134.485666 103.006151 
L 136.117098 103.856132 
L 137.748526 105.365104 
L 139.379953 107.339272 
L 145.905673 116.133068 
L 150.799966 121.974644 
L 152.431393 124.41377 
L 154.062821 126.442746 
L 155.694258 127.705498 
L 157.325686 128.504621 
L 158.957113 128.505979 
L 160.588541 128.06954 
L 162.219968 127.154395 
L 163.851406 125.980377 
L 167.114261 122.66543 
L 168.745688 121.194055 
L 170.377126 119.559816 
L 172.008553 118.104902 
L 173.639981 117.050425 
L 175.271409 116.174524 
L 178.534273 113.48845 
L 181.797129 110.057304 
L 186.691421 103.600162 
L 189.954276 100.18318 
L 191.585713 98.804713 
L 193.217141 97.951798 
L 194.848569 97.747826 
L 196.479996 97.95169 
L 198.111434 98.475111 
L 199.742861 99.160185 
L 201.374289 100.473991 
L 203.005716 102.149043 
L 204.637154 103.558728 
L 206.268581 105.122264 
L 209.531436 107.884051 
L 216.057156 115.756671 
L 217.688594 117.050003 
L 219.320031 118.143842 
L 220.951449 118.941552 
L 222.582886 119.863632 
L 225.845741 121.342525 
L 227.477179 121.864998 
L 229.108596 122.144641 
L 230.740034 122.230926 
L 232.371452 121.858849 
L 234.002889 121.205116 
L 235.634326 119.861437 
L 237.265763 118.025234 
L 238.897181 115.515678 
L 240.528599 113.421562 
L 242.160037 111.126795 
L 243.791474 109.074087 
L 247.054329 106.103321 
L 250.317184 104.161666 
L 251.948621 103.460292 
L 255.211477 102.957631 
L 258.474332 103.748901 
L 260.105769 104.414793 
L 261.737206 104.760124 
L 263.368624 105.224085 
L 265.000062 105.979731 
L 268.262917 108.249694 
L 269.894354 109.931925 
L 271.525791 111.419014 
L 273.157209 113.15566 
L 278.051502 119.723033 
L 279.682939 122.441518 
L 281.314357 124.818505 
L 282.945775 126.907062 
L 284.577212 128.724136 
L 286.208649 129.700608 
L 287.840086 130.05466 
L 289.471504 130.097573 
L 291.102922 129.525688 
L 292.73436 129.237836 
L 294.365797 129.069389 
L 295.997234 129.068767 
L 297.628652 128.70159 
L 299.260089 128.570488 
L 302.522944 128.597538 
L 304.154382 128.381012 
L 309.048655 126.259588 
L 310.680092 125.798672 
L 312.311529 125.67595 
L 315.574385 127.098575 
L 320.468677 129.897673 
L 322.100114 130.540011 
L 323.731532 131.617562 
L 325.362969 132.986972 
L 328.625825 136.672485 
L 330.257262 138.941706 
L 331.88868 141.672539 
L 333.520117 144.106244 
L 338.41441 153.508543 
L 341.677265 158.588801 
L 344.94012 162.705536 
L 346.571557 164.563975 
L 348.202975 166.599696 
L 349.834412 168.230459 
L 351.46583 169.057744 
L 353.097268 169.084903 
L 354.728705 168.572363 
L 356.360123 167.426293 
L 359.622997 164.034312 
L 364.51727 157.408167 
L 374.305855 142.73825 
L 375.937293 140.088318 
L 377.56871 137.226203 
L 379.200148 133.772662 
L 379.200148 133.772662 
" clip-path="url(#pbb152a1a25)" style="fill: none; stroke: #ff7f0e; stroke-width: 0.5; stroke-linecap: round"/>
   </g>
   <g id="line2d_16">
    <path d="M 54.545602 129.734259 
L 56.177032 130.112829 
L 57.808462 130.257755 
L 61.071322 129.905587 
L 62.702752 129.029332 
L 64.334181 128.56949 
L 65.965611 128.43508 
L 69.228471 127.374933 
L 72.491331 126.433754 
L 75.75419 126.432833 
L 79.01705 125.328754 
L 80.64848 124.516637 
L 82.27991 123.947543 
L 85.54277 122.447152 
L 87.1742 121.949575 
L 88.80563 121.95759 
L 90.43706 122.103492 
L 92.06849 122.102792 
L 93.699918 121.85232 
L 95.33135 121.383136 
L 96.962778 121.08769 
L 98.59421 120.963804 
L 101.85707 121.665678 
L 103.488498 122.190792 
L 105.11993 122.973123 
L 106.751358 123.960592 
L 108.382785 125.390485 
L 110.014218 126.618741 
L 113.277078 128.606947 
L 114.908505 129.227421 
L 119.802798 131.562745 
L 121.434225 131.814236 
L 123.065658 132.357741 
L 124.697085 132.385188 
L 127.959945 132.746786 
L 129.591378 133.297695 
L 131.222806 133.984812 
L 132.854233 135.195386 
L 134.485666 136.205208 
L 136.117098 137.418222 
L 139.379953 140.662983 
L 141.011381 142.328434 
L 142.642818 144.215812 
L 147.537101 149.195012 
L 149.168538 150.81606 
L 152.431393 153.63374 
L 154.062821 154.62539 
L 162.219968 158.350709 
L 165.482833 160.890175 
L 167.114261 162.601922 
L 168.745688 163.974262 
L 170.377126 165.078475 
L 175.271409 169.632965 
L 176.902846 171.377103 
L 180.165701 173.721828 
L 181.797129 174.61952 
L 183.428566 174.991339 
L 185.059993 174.946775 
L 186.691421 174.052312 
L 188.322849 172.746491 
L 189.954276 170.414709 
L 191.585713 167.884561 
L 193.217141 164.590283 
L 198.111434 154.000816 
L 201.374289 147.140718 
L 206.268581 137.079698 
L 207.900009 133.353767 
L 216.057156 116.821721 
L 217.688594 112.943715 
L 220.951449 106.380399 
L 222.582886 103.596634 
L 224.214304 101.204071 
L 225.845741 99.24893 
L 227.477179 97.681585 
L 229.108596 96.476224 
L 230.740034 96.012338 
L 232.371452 95.697583 
L 234.002889 95.975914 
L 235.634326 97.079701 
L 238.897181 100.020853 
L 243.791474 105.257055 
L 245.422911 105.901474 
L 247.054329 106.042803 
L 248.685747 105.48298 
L 250.317184 104.020714 
L 251.948621 102.337909 
L 253.580059 100.088658 
L 256.842895 96.32035 
L 258.474332 94.650634 
L 260.105769 93.505008 
L 263.368624 92.478184 
L 265.000062 92.424912 
L 266.631479 92.730078 
L 268.262917 92.857687 
L 269.894354 93.508212 
L 271.525791 94.953145 
L 273.157209 97.305369 
L 276.420064 104.128312 
L 279.682939 112.359034 
L 282.945775 121.704844 
L 286.208649 129.663715 
L 289.471504 136.788572 
L 291.102922 140.113411 
L 292.73436 142.878691 
L 294.365797 145.24807 
L 295.997234 146.713665 
L 304.154382 152.952846 
L 307.417237 154.718259 
L 309.048655 154.319461 
L 312.311529 151.883029 
L 317.205802 146.952644 
L 318.83724 144.78728 
L 320.468677 142.165314 
L 325.362969 132.637283 
L 326.994387 130.233979 
L 328.625825 128.376642 
L 330.257262 127.86829 
L 331.88868 128.047825 
L 333.520117 129.092278 
L 335.151535 130.569889 
L 336.782972 132.670921 
L 341.677265 137.640975 
L 343.308683 139.016846 
L 344.94012 140.245636 
L 346.571557 141.207316 
L 351.46583 143.690103 
L 353.097268 144.251669 
L 356.360123 144.788933 
L 359.622997 144.938826 
L 361.254415 145.225627 
L 362.885852 145.277031 
L 364.51727 144.89825 
L 366.148708 144.168806 
L 369.411563 142.058137 
L 372.674437 140.056039 
L 374.305855 138.734607 
L 375.937293 137.197972 
L 377.56871 135.865291 
L 379.200148 134.251988 
L 379.200148 134.251988 
" clip-path="url(#pbb152a1a25)" style="fill: none; stroke: #ff7f0e; stroke-width: 0.5; stroke-linecap: round"/>
   </g>
   <g id="line2d_17">
    <path d="M 54.545602 174.120352 
L 56.177032 173.451472 
L 57.808462 172.212593 
L 64.334181 166.285668 
L 67.597041 162.353769 
L 70.859901 159.441703 
L 72.491331 158.321689 
L 74.12276 157.540433 
L 77.38562 156.402573 
L 80.64848 154.689173 
L 83.91134 152.181465 
L 87.1742 149.805735 
L 88.80563 149.326774 
L 90.43706 149.459049 
L 92.06849 149.792399 
L 93.699918 150.499346 
L 96.962778 152.22662 
L 100.225638 154.040908 
L 105.11993 154.74878 
L 108.382785 154.680768 
L 110.014218 155.108713 
L 111.645645 155.865202 
L 113.277078 156.454695 
L 114.908505 157.204669 
L 118.171365 158.297781 
L 119.802798 159.042753 
L 123.065658 159.378711 
L 124.697085 159.0414 
L 126.328518 158.446865 
L 127.959945 158.195525 
L 129.591378 158.20258 
L 131.222806 158.348225 
L 136.117098 159.657789 
L 137.748526 159.215994 
L 139.379953 158.398189 
L 141.011381 157.253478 
L 142.642818 155.547702 
L 144.274246 153.376206 
L 147.537101 148.623209 
L 149.168538 146.494328 
L 150.799966 145.08735 
L 152.431393 143.972151 
L 154.062821 143.685081 
L 155.694258 143.954032 
L 157.325686 144.417903 
L 158.957113 145.166851 
L 160.588541 146.166745 
L 162.219968 147.832062 
L 163.851406 149.706486 
L 168.745688 154.875901 
L 172.008553 158.751843 
L 173.639981 160.5564 
L 175.271409 162.584142 
L 176.902846 164.301704 
L 178.534273 165.825524 
L 180.165701 167.122332 
L 181.797129 168.121243 
L 183.428566 168.802952 
L 185.059993 169.613148 
L 186.691421 170.271582 
L 188.322849 170.596999 
L 189.954276 170.700746 
L 191.585713 170.476163 
L 193.217141 170.450566 
L 198.111434 171.264065 
L 199.742861 171.821105 
L 203.005716 172.448907 
L 204.637154 172.557241 
L 206.268581 172.446674 
L 207.900009 171.970115 
L 209.531436 171.028233 
L 214.425729 167.252362 
L 216.057156 165.852542 
L 219.320031 163.473885 
L 220.951449 162.696387 
L 222.582886 162.296555 
L 224.214304 161.748616 
L 227.477179 161.208904 
L 229.108596 160.446325 
L 230.740034 159.548375 
L 232.371452 157.850948 
L 237.265763 152.079949 
L 238.897181 149.564885 
L 240.528599 146.669148 
L 245.422911 136.788895 
L 247.054329 133.237973 
L 248.685747 130.11287 
L 250.317184 126.547589 
L 256.842895 113.86847 
L 260.105769 108.104653 
L 261.737206 105.86629 
L 263.368624 104.111784 
L 265.000062 103.135965 
L 266.631479 102.977534 
L 268.262917 103.625585 
L 269.894354 104.92087 
L 271.525791 106.504861 
L 273.157209 108.327121 
L 274.788627 110.835894 
L 281.314357 121.868321 
L 282.945775 124.532411 
L 284.577212 126.693643 
L 286.208649 128.47245 
L 287.840086 129.653074 
L 289.471504 129.730257 
L 291.102922 129.221218 
L 292.73436 128.539627 
L 294.365797 127.993498 
L 295.997234 127.794282 
L 299.260089 127.898354 
L 300.891507 128.252322 
L 304.154382 128.664952 
L 305.7858 128.539704 
L 307.417237 128.260486 
L 309.048655 127.630997 
L 310.680092 126.442073 
L 312.311529 125.461431 
L 313.942947 123.814725 
L 317.205802 119.865169 
L 320.468677 116.395887 
L 323.731532 112.936273 
L 325.362969 110.859395 
L 328.625825 105.779502 
L 330.257262 103.750646 
L 331.88868 102.204863 
L 333.520117 101.518453 
L 335.151535 101.422027 
L 336.782972 102.261501 
L 338.41441 103.694373 
L 340.045827 105.589354 
L 341.677265 108.133359 
L 343.308683 110.969217 
L 346.571557 116.032505 
L 349.834412 120.107125 
L 353.097268 123.940337 
L 354.728705 126.182175 
L 356.360123 128.231223 
L 357.99156 130.046537 
L 362.885852 134.215404 
L 364.51727 135.500966 
L 367.780145 137.410481 
L 371.043 138.323463 
L 374.305855 139.685706 
L 375.937293 140.679257 
L 379.200148 142.262601 
L 379.200148 142.262601 
" clip-path="url(#pbb152a1a25)" style="fill: none; stroke: #ff7f0e; stroke-width: 0.5; stroke-linecap: round"/>
   </g>
   <g id="patch_3">
    <path d="M 38.312875 246.7008 
L 38.312875 33.8112 
" style="fill: none; stroke: #262626; stroke-linejoin: miter; stroke-linecap: square"/>
   </g>
   <g id="patch_4">
    <path d="M 54.545602 273.312 
L 379.200148 273.312 
" style="fill: none; stroke: #262626; stroke-linejoin: miter; stroke-linecap: square"/>
   </g>
   <g id="legend_1">
    <g id="line2d_18">
     <path d="M 334.506625 18.338875 
L 343.306625 18.338875 
L 352.106625 18.338875 
" style="fill: none; stroke: #1f77b4; stroke-width: 1.2; stroke-linecap: round"/>
    </g>
    <g id="text_14">
     <!-- mean -->
     <g style="fill: #262626" transform="translate(359.146625 21.418875) scale(0.088 -0.088)">
      <defs>
       <path id="ArialMT-6d" d="M 422 0 
L 422 3319 
L 925 3319 
L 925 2853 
Q 1081 3097 1340 3245 
Q 1600 3394 1931 3394 
Q 2300 3394 2536 3241 
Q 2772 3088 2869 2813 
Q 3263 3394 3894 3394 
Q 4388 3394 4653 3120 
Q 4919 2847 4919 2278 
L 4919 0 
L 4359 0 
L 4359 2091 
Q 4359 2428 4304 2576 
Q 4250 2725 4106 2815 
Q 3963 2906 3769 2906 
Q 3419 2906 3187 2673 
Q 2956 2441 2956 1928 
L 2956 0 
L 2394 0 
L 2394 2156 
Q 2394 2531 2256 2718 
Q 2119 2906 1806 2906 
Q 1569 2906 1367 2781 
Q 1166 2656 1075 2415 
Q 984 2175 984 1722 
L 984 0 
L 422 0 
z
" transform="scale(0.015625)"/>
       <path id="ArialMT-65" d="M 2694 1069 
L 3275 997 
Q 3138 488 2766 206 
Q 2394 -75 1816 -75 
Q 1088 -75 661 373 
Q 234 822 234 1631 
Q 234 2469 665 2931 
Q 1097 3394 1784 3394 
Q 2450 3394 2872 2941 
Q 3294 2488 3294 1666 
Q 3294 1616 3291 1516 
L 816 1516 
Q 847 969 1125 678 
Q 1403 388 1819 388 
Q 2128 388 2347 550 
Q 2566 713 2694 1069 
z
M 847 1978 
L 2700 1978 
Q 2663 2397 2488 2606 
Q 2219 2931 1791 2931 
Q 1403 2931 1139 2672 
Q 875 2413 847 1978 
z
" transform="scale(0.015625)"/>
       <path id="ArialMT-61" d="M 2588 409 
Q 2275 144 1986 34 
Q 1697 -75 1366 -75 
Q 819 -75 525 192 
Q 231 459 231 875 
Q 231 1119 342 1320 
Q 453 1522 633 1644 
Q 813 1766 1038 1828 
Q 1203 1872 1538 1913 
Q 2219 1994 2541 2106 
Q 2544 2222 2544 2253 
Q 2544 2597 2384 2738 
Q 2169 2928 1744 2928 
Q 1347 2928 1158 2789 
Q 969 2650 878 2297 
L 328 2372 
Q 403 2725 575 2942 
Q 747 3159 1072 3276 
Q 1397 3394 1825 3394 
Q 2250 3394 2515 3294 
Q 2781 3194 2906 3042 
Q 3031 2891 3081 2659 
Q 3109 2516 3109 2141 
L 3109 1391 
Q 3109 606 3145 398 
Q 3181 191 3288 0 
L 2700 0 
Q 2613 175 2588 409 
z
M 2541 1666 
Q 2234 1541 1622 1453 
Q 1275 1403 1131 1340 
Q 988 1278 909 1158 
Q 831 1038 831 891 
Q 831 666 1001 516 
Q 1172 366 1500 366 
Q 1825 366 2078 508 
Q 2331 650 2450 897 
Q 2541 1088 2541 1459 
L 2541 1666 
z
" transform="scale(0.015625)"/>
       <path id="ArialMT-6e" d="M 422 0 
L 422 3319 
L 928 3319 
L 928 2847 
Q 1294 3394 1984 3394 
Q 2284 3394 2536 3286 
Q 2788 3178 2913 3003 
Q 3038 2828 3088 2588 
Q 3119 2431 3119 2041 
L 3119 0 
L 2556 0 
L 2556 2019 
Q 2556 2363 2490 2533 
Q 2425 2703 2258 2804 
Q 2091 2906 1866 2906 
Q 1506 2906 1245 2678 
Q 984 2450 984 1813 
L 984 0 
L 422 0 
z
" transform="scale(0.015625)"/>
      </defs>
      <use xlink:href="#ArialMT-6d"/>
      <use xlink:href="#ArialMT-65" x="83.300781"/>
      <use xlink:href="#ArialMT-61" x="138.916016"/>
      <use xlink:href="#ArialMT-6e" x="194.53125"/>
     </g>
    </g>
    <g id="line2d_19">
     <path d="M 334.506625 30.78675 
L 343.306625 30.78675 
L 352.106625 30.78675 
" style="fill: none; stroke: #ff7f0e; stroke-width: 0.5; stroke-linecap: round"/>
    </g>
    <g id="text_15">
     <!-- sample -->
     <g style="fill: #262626" transform="translate(359.146625 33.86675) scale(0.088 -0.088)">
      <defs>
       <path id="ArialMT-73" d="M 197 991 
L 753 1078 
Q 800 744 1014 566 
Q 1228 388 1613 388 
Q 2000 388 2187 545 
Q 2375 703 2375 916 
Q 2375 1106 2209 1216 
Q 2094 1291 1634 1406 
Q 1016 1563 777 1677 
Q 538 1791 414 1992 
Q 291 2194 291 2438 
Q 291 2659 392 2848 
Q 494 3038 669 3163 
Q 800 3259 1026 3326 
Q 1253 3394 1513 3394 
Q 1903 3394 2198 3281 
Q 2494 3169 2634 2976 
Q 2775 2784 2828 2463 
L 2278 2388 
Q 2241 2644 2061 2787 
Q 1881 2931 1553 2931 
Q 1166 2931 1000 2803 
Q 834 2675 834 2503 
Q 834 2394 903 2306 
Q 972 2216 1119 2156 
Q 1203 2125 1616 2013 
Q 2213 1853 2448 1751 
Q 2684 1650 2818 1456 
Q 2953 1263 2953 975 
Q 2953 694 2789 445 
Q 2625 197 2315 61 
Q 2006 -75 1616 -75 
Q 969 -75 630 194 
Q 291 463 197 991 
z
" transform="scale(0.015625)"/>
       <path id="ArialMT-70" d="M 422 -1272 
L 422 3319 
L 934 3319 
L 934 2888 
Q 1116 3141 1344 3267 
Q 1572 3394 1897 3394 
Q 2322 3394 2647 3175 
Q 2972 2956 3137 2557 
Q 3303 2159 3303 1684 
Q 3303 1175 3120 767 
Q 2938 359 2589 142 
Q 2241 -75 1856 -75 
Q 1575 -75 1351 44 
Q 1128 163 984 344 
L 984 -1272 
L 422 -1272 
z
M 931 1641 
Q 931 1000 1190 694 
Q 1450 388 1819 388 
Q 2194 388 2461 705 
Q 2728 1022 2728 1688 
Q 2728 2322 2467 2637 
Q 2206 2953 1844 2953 
Q 1484 2953 1207 2617 
Q 931 2281 931 1641 
z
" transform="scale(0.015625)"/>
       <path id="ArialMT-6c" d="M 409 0 
L 409 4581 
L 972 4581 
L 972 0 
L 409 0 
z
" transform="scale(0.015625)"/>
      </defs>
      <use xlink:href="#ArialMT-73"/>
      <use xlink:href="#ArialMT-61" x="50"/>
      <use xlink:href="#ArialMT-6d" x="105.615234"/>
      <use xlink:href="#ArialMT-70" x="188.916016"/>
      <use xlink:href="#ArialMT-6c" x="244.53125"/>
      <use xlink:href="#ArialMT-65" x="266.748047"/>
     </g>
    </g>
   </g>
  </g>
 </g>
 <defs>
  <clipPath id="pbb152a1a25">
   <rect x="38.312875" y="7.2" width="357.12" height="266.112"/>
  </clipPath>
 </defs>
</svg>