<?xml version="1.0" encoding="utf-8" standalone="no"?>
<!DOCTYPE svg PUBLIC "-//W3C//DTD SVG 1.1//EN"
  "http://www.w3.org/Graphics/SVG/1.1/DTD/svg11.dtd">
<svg xmlns:xlink="http://www.w3.org/1999/xlink" width="440.955pt" height="322.510875pt" viewBox="0 0 440.955 322.510875" xmlns="http://www.w3.org/2000/svg" version="1.1">
 <metadata>
  <rdf:RDF xmlns:dc="http://purl.org/dc/elements/1.1/" xmlns:cc="http://creativecommons.org/ns#" xmlns:rdf="http://www.w3.org/1999/02/22-rdf-syntax-ns#">
   <cc:Work>
    <dc:type rdf:resource="http://purl.org/dc/dcmitype/StillImage"/>
    <dc:date>2023-10-23T15:33:56.211423</dc:date>
    <dc:format>image/svg+xml</dc:format>
    <dc:creator>
     <cc:Agent>
      <dc:title>Matplotlib v3.8.0, https://matplotlib.org/</dc:title>
     </cc:Agent>
    </dc:creator>
   </cc:Work>
  </rdf:RDF>
 </metadata>
 <defs>
  <style type="text/css">*{stroke-linejoin: round; stroke-linecap: butt}</style>
 </defs>
 <g id="figure_1">
  <g id="patch_1">
   <path d="M 0 322.510875 
L 440.955 322.510875 
L 440.955 0 
L 0 0 
z
" style="fill: #ffffff"/>
  </g>
  <g id="axes_1">
   <g id="patch_2">
    <path d="M 38.312875 286.1835 
L 395.432875 286.1835 
L 395.432875 20.0715 
L 38.312875 20.0715 
z
" style="fill: #ffffff"/>
   </g>
   <g id="matplotlib.axis_1">
    <g id="xtick_1">
     <g id="line2d_1">
      <defs>
       <path id="m39337a8b11" d="M 0 0 
L 0 4.8 
" style="stroke: #262626"/>
      </defs>
      <g>
       <use xlink:href="#m39337a8b11" x="54.545602" y="286.1835" style="fill: #262626; stroke: #262626"/>
      </g>
     </g>
     <g id="text_1">
      <!-- 0.0 -->
      <g style="fill: #262626" transform="translate(48.429602 300.782375) scale(0.088 -0.088)">
       <defs>
        <path id="ArialMT-30" d="M 266 2259 
Q 266 3072 433 3567 
Q 600 4063 929 4331 
Q 1259 4600 1759 4600 
Q 2128 4600 2406 4451 
Q 2684 4303 2865 4023 
Q 3047 3744 3150 3342 
Q 3253 2941 3253 2259 
Q 3253 1453 3087 958 
Q 2922 463 2592 192 
Q 2263 -78 1759 -78 
Q 1097 -78 719 397 
Q 266 969 266 2259 
z
M 844 2259 
Q 844 1131 1108 757 
Q 1372 384 1759 384 
Q 2147 384 2411 759 
Q 2675 1134 2675 2259 
Q 2675 3391 2411 3762 
Q 2147 4134 1753 4134 
Q 1366 4134 1134 3806 
Q 844 3388 844 2259 
z
" transform="scale(0.015625)"/>
        <path id="ArialMT-2e" d="M 581 0 
L 581 641 
L 1222 641 
L 1222 0 
L 581 0 
z
" transform="scale(0.015625)"/>
       </defs>
       <use xlink:href="#ArialMT-30"/>
       <use xlink:href="#ArialMT-2e" x="55.615234"/>
       <use xlink:href="#ArialMT-30" x="83.398438"/>
      </g>
     </g>
    </g>
    <g id="xtick_2">
     <g id="line2d_2">
      <g>
       <use xlink:href="#m39337a8b11" x="119.476511" y="286.1835" style="fill: #262626; stroke: #262626"/>
      </g>
     </g>
     <g id="text_2">
      <!-- 0.2 -->
      <g style="fill: #262626" transform="translate(113.360511 300.782375) scale(0.088 -0.088)">
       <defs>
        <path id="ArialMT-32" d="M 3222 541 
L 3222 0 
L 194 0 
Q 188 203 259 391 
Q 375 700 629 1000 
Q 884 1300 1366 1694 
Q 2113 2306 2375 2664 
Q 2638 3022 2638 3341 
Q 2638 3675 2398 3904 
Q 2159 4134 1775 4134 
Q 1369 4134 1125 3890 
Q 881 3647 878 3216 
L 300 3275 
Q 359 3922 746 4261 
Q 1134 4600 1788 4600 
Q 2447 4600 2831 4234 
Q 3216 3869 3216 3328 
Q 3216 3053 3103 2787 
Q 2991 2522 2730 2228 
Q 2469 1934 1863 1422 
Q 1356 997 1212 845 
Q 1069 694 975 541 
L 3222 541 
z
" transform="scale(0.015625)"/>
       </defs>
       <use xlink:href="#ArialMT-30"/>
       <use xlink:href="#ArialMT-2e" x="55.615234"/>
       <use xlink:href="#ArialMT-32" x="83.398438"/>
      </g>
     </g>
    </g>
    <g id="xtick_3">
     <g id="line2d_3">
      <g>
       <use xlink:href="#m39337a8b11" x="184.40742" y="286.1835" style="fill: #262626; stroke: #262626"/>
      </g>
     </g>
     <g id="text_3">
      <!-- 0.4 -->
      <g style="fill: #262626" transform="translate(178.29142 300.782375) scale(0.088 -0.088)">
       <defs>
        <path id="ArialMT-34" d="M 2069 0 
L 2069 1097 
L 81 1097 
L 81 1613 
L 2172 4581 
L 2631 4581 
L 2631 1613 
L 3250 1613 
L 3250 1097 
L 2631 1097 
L 2631 0 
L 2069 0 
z
M 2069 1613 
L 2069 3678 
L 634 1613 
L 2069 1613 
z
" transform="scale(0.015625)"/>
       </defs>
       <use xlink:href="#ArialMT-30"/>
       <use xlink:href="#ArialMT-2e" x="55.615234"/>
       <use xlink:href="#ArialMT-34" x="83.398438"/>
      </g>
     </g>
    </g>
    <g id="xtick_4">
     <g id="line2d_4">
      <g>
       <use xlink:href="#m39337a8b11" x="249.33833" y="286.1835" style="fill: #262626; stroke: #262626"/>
      </g>
     </g>
     <g id="text_4">
      <!-- 0.6 -->
      <g style="fill: #262626" transform="translate(243.22233 300.782375) scale(0.088 -0.088)">
       <defs>
        <path id="ArialMT-36" d="M 3184 3459 
L 2625 3416 
Q 2550 3747 2413 3897 
Q 2184 4138 1850 4138 
Q 1581 4138 1378 3988 
Q 1113 3794 959 3422 
Q 806 3050 800 2363 
Q 1003 2672 1297 2822 
Q 1591 2972 1913 2972 
Q 2475 2972 2870 2558 
Q 3266 2144 3266 1488 
Q 3266 1056 3080 686 
Q 2894 316 2569 119 
Q 2244 -78 1831 -78 
Q 1128 -78 684 439 
Q 241 956 241 2144 
Q 241 3472 731 4075 
Q 1159 4600 1884 4600 
Q 2425 4600 2770 4297 
Q 3116 3994 3184 3459 
z
M 888 1484 
Q 888 1194 1011 928 
Q 1134 663 1356 523 
Q 1578 384 1822 384 
Q 2178 384 2434 671 
Q 2691 959 2691 1453 
Q 2691 1928 2437 2201 
Q 2184 2475 1800 2475 
Q 1419 2475 1153 2201 
Q 888 1928 888 1484 
z
" transform="scale(0.015625)"/>
       </defs>
       <use xlink:href="#ArialMT-30"/>
       <use xlink:href="#ArialMT-2e" x="55.615234"/>
       <use xlink:href="#ArialMT-36" x="83.398438"/>
      </g>
     </g>
    </g>
    <g id="xtick_5">
     <g id="line2d_5">
      <g>
       <use xlink:href="#m39337a8b11" x="314.269239" y="286.1835" style="fill: #262626; stroke: #262626"/>
      </g>
     </g>
     <g id="text_5">
      <!-- 0.8 -->
      <g style="fill: #262626" transform="translate(308.153239 300.782375) scale(0.088 -0.088)">
       <defs>
        <path id="ArialMT-38" d="M 1131 2484 
Q 781 2613 612 2850 
Q 444 3088 444 3419 
Q 444 3919 803 4259 
Q 1163 4600 1759 4600 
Q 2359 4600 2725 4251 
Q 3091 3903 3091 3403 
Q 3091 3084 2923 2848 
Q 2756 2613 2416 2484 
Q 2838 2347 3058 2040 
Q 3278 1734 3278 1309 
Q 3278 722 2862 322 
Q 2447 -78 1769 -78 
Q 1091 -78 675 323 
Q 259 725 259 1325 
Q 259 1772 486 2073 
Q 713 2375 1131 2484 
z
M 1019 3438 
Q 1019 3113 1228 2906 
Q 1438 2700 1772 2700 
Q 2097 2700 2305 2904 
Q 2513 3109 2513 3406 
Q 2513 3716 2298 3927 
Q 2084 4138 1766 4138 
Q 1444 4138 1231 3931 
Q 1019 3725 1019 3438 
z
M 838 1322 
Q 838 1081 952 856 
Q 1066 631 1291 507 
Q 1516 384 1775 384 
Q 2178 384 2440 643 
Q 2703 903 2703 1303 
Q 2703 1709 2433 1975 
Q 2163 2241 1756 2241 
Q 1359 2241 1098 1978 
Q 838 1716 838 1322 
z
" transform="scale(0.015625)"/>
       </defs>
       <use xlink:href="#ArialMT-30"/>
       <use xlink:href="#ArialMT-2e" x="55.615234"/>
       <use xlink:href="#ArialMT-38" x="83.398438"/>
      </g>
     </g>
    </g>
    <g id="xtick_6">
     <g id="line2d_6">
      <g>
       <use xlink:href="#m39337a8b11" x="379.200148" y="286.1835" style="fill: #262626; stroke: #262626"/>
      </g>
     </g>
     <g id="text_6">
      <!-- 1.0 -->
      <g style="fill: #262626" transform="translate(373.084148 300.782375) scale(0.088 -0.088)">
       <defs>
        <path id="ArialMT-31" d="M 2384 0 
L 1822 0 
L 1822 3584 
Q 1619 3391 1289 3197 
Q 959 3003 697 2906 
L 697 3450 
Q 1169 3672 1522 3987 
Q 1875 4303 2022 4600 
L 2384 4600 
L 2384 0 
z
" transform="scale(0.015625)"/>
       </defs>
       <use xlink:href="#ArialMT-31"/>
       <use xlink:href="#ArialMT-2e" x="55.615234"/>
       <use xlink:href="#ArialMT-30" x="83.398438"/>
      </g>
     </g>
    </g>
    <g id="text_7">
     <!-- $x$ -->
     <g style="fill: #262626" transform="translate(213.992875 313.402875) scale(0.096 -0.096)">
      <defs>
       <path id="DejaVuSans-Oblique-78" d="M 3841 3500 
L 2234 1784 
L 3219 0 
L 2559 0 
L 1819 1388 
L 531 0 
L -166 0 
L 1556 1844 
L 641 3500 
L 1300 3500 
L 1972 2234 
L 3144 3500 
L 3841 3500 
z
" transform="scale(0.015625)"/>
      </defs>
      <use xlink:href="#DejaVuSans-Oblique-78" transform="translate(0 0.3125)"/>
     </g>
    </g>
   </g>
   <g id="matplotlib.axis_2">
    <g id="ytick_1">
     <g id="line2d_7">
      <defs>
       <path id="m8b6ace4220" d="M 0 0 
L -4.8 0 
" style="stroke: #262626"/>
      </defs>
      <g>
       <use xlink:href="#m8b6ace4220" x="38.312875" y="269.777005" style="fill: #262626; stroke: #262626"/>
      </g>
     </g>
     <g id="text_8">
      <!-- −8 -->
      <g style="fill: #262626" transform="translate(19.9795 272.926443) scale(0.088 -0.088)">
       <defs>
        <path id="ArialMT-2212" d="M 3381 1997 
L 356 1997 
L 356 2522 
L 3381 2522 
L 3381 1997 
z
" transform="scale(0.015625)"/>
       </defs>
       <use xlink:href="#ArialMT-2212"/>
       <use xlink:href="#ArialMT-38" x="58.398438"/>
      </g>
     </g>
    </g>
    <g id="ytick_2">
     <g id="line2d_8">
      <g>
       <use xlink:href="#m8b6ace4220" x="38.312875" y="220.77941" style="fill: #262626; stroke: #262626"/>
      </g>
     </g>
     <g id="text_9">
      <!-- −6 -->
      <g style="fill: #262626" transform="translate(19.9795 223.928847) scale(0.088 -0.088)">
       <use xlink:href="#ArialMT-2212"/>
       <use xlink:href="#ArialMT-36" x="58.398438"/>
      </g>
     </g>
    </g>
    <g id="ytick_3">
     <g id="line2d_9">
      <g>
       <use xlink:href="#m8b6ace4220" x="38.312875" y="171.781814" style="fill: #262626; stroke: #262626"/>
      </g>
     </g>
     <g id="text_10">
      <!-- −4 -->
      <g style="fill: #262626" transform="translate(19.9795 174.931252) scale(0.088 -0.088)">
       <use xlink:href="#ArialMT-2212"/>
       <use xlink:href="#ArialMT-34" x="58.398438"/>
      </g>
     </g>
    </g>
    <g id="ytick_4">
     <g id="line2d_10">
      <g>
       <use xlink:href="#m8b6ace4220" x="38.312875" y="122.784219" style="fill: #262626; stroke: #262626"/>
      </g>
     </g>
     <g id="text_11">
      <!-- −2 -->
      <g style="fill: #262626" transform="translate(19.9795 125.933656) scale(0.088 -0.088)">
       <use xlink:href="#ArialMT-2212"/>
       <use xlink:href="#ArialMT-32" x="58.398438"/>
      </g>
     </g>
    </g>
    <g id="ytick_5">
     <g id="line2d_11">
      <g>
       <use xlink:href="#m8b6ace4220" x="38.312875" y="73.786623" style="fill: #262626; stroke: #262626"/>
      </g>
     </g>
     <g id="text_12">
      <!-- 0 -->
      <g style="fill: #262626" transform="translate(25.11925 76.936061) scale(0.088 -0.088)">
       <use xlink:href="#ArialMT-30"/>
      </g>
     </g>
    </g>
    <g id="ytick_6">
     <g id="line2d_12">
      <g>
       <use xlink:href="#m8b6ace4220" x="38.312875" y="24.789028" style="fill: #262626; stroke: #262626"/>
      </g>
     </g>
     <g id="text_13">
      <!-- 2 -->
      <g style="fill: #262626" transform="translate(25.11925 27.938465) scale(0.088 -0.088)">
       <use xlink:href="#ArialMT-32"/>
      </g>
     </g>
    </g>
    <g id="text_14">
     <!-- $y$ -->
     <g style="fill: #262626" transform="translate(13.9635 156.0075) rotate(-90) scale(0.096 -0.096)">
      <defs>
       <path id="DejaVuSans-Oblique-79" d="M 1588 -325 
Q 1188 -997 936 -1164 
Q 684 -1331 294 -1331 
L -159 -1331 
L -63 -850 
L 269 -850 
Q 509 -850 678 -719 
Q 847 -588 1056 -206 
L 1234 128 
L 459 3500 
L 1069 3500 
L 1650 819 
L 3256 3500 
L 3859 3500 
L 1588 -325 
z
" transform="scale(0.015625)"/>
      </defs>
      <use xlink:href="#DejaVuSans-Oblique-79" transform="translate(0 0.3125)"/>
     </g>
    </g>
   </g>
   <g id="PolyCollection_1">
    <defs>
     <path id="mdb34d9b1eb" d="M 54.545602 -191.025868 
L 54.545602 -132.814506 
L 57.824941 -134.976027 
L 61.10428 -137.085236 
L 64.383619 -139.271627 
L 67.662958 -141.671728 
L 70.942296 -144.402123 
L 74.221636 -147.545242 
L 77.500973 -151.145405 
L 80.780313 -155.210696 
L 84.059653 -159.71754 
L 87.33899 -164.614889 
L 90.61833 -169.829495 
L 93.89767 -175.270258 
L 97.177007 -180.832922 
L 100.456344 -186.40558 
L 103.735686 -191.873322 
L 107.015024 -197.124826 
L 110.294361 -202.058388 
L 113.573703 -206.587569 
L 116.853041 -210.646145 
L 120.132378 -214.189099 
L 123.41172 -217.191681 
L 126.691057 -219.644444 
L 129.970395 -221.54666 
L 133.249737 -222.897775 
L 136.529069 -223.69078 
L 139.808412 -223.905637 
L 143.087754 -223.50641 
L 146.367086 -222.441336 
L 149.646428 -220.647236 
L 152.92577 -218.058597 
L 156.205103 -214.620951 
L 159.484445 -210.303318 
L 162.763787 -205.108069 
L 166.04312 -199.073075 
L 169.322462 -192.268125 
L 172.601804 -184.78679 
L 175.881137 -176.738543 
L 179.160479 -168.241488 
L 182.439821 -159.417519 
L 185.719153 -150.389093 
L 188.998496 -141.276843 
L 192.277838 -132.198529 
L 195.55717 -123.26784 
L 198.836512 -114.593617 
L 202.115855 -106.279196 
L 205.395187 -98.421622 
L 208.674529 -91.110622 
L 211.953871 -84.427876 
L 215.233204 -78.445673 
L 218.512556 -73.225436 
L 221.791879 -68.816182 
L 225.071221 -65.251906 
L 228.350563 -62.548893 
L 231.629886 -60.701675 
L 234.909247 -59.677765 
L 238.18857 -59.410949 
L 241.467912 -59.793346 
L 244.747254 -60.669047 
L 248.026597 -61.836225 
L 251.305939 -63.071204 
L 254.585262 -64.184831 
L 257.864623 -65.094247 
L 261.143946 -65.859075 
L 264.423288 -66.647991 
L 267.70263 -67.66689 
L 270.981953 -69.101186 
L 274.261315 -71.090211 
L 277.540637 -73.723869 
L 280.81998 -77.048724 
L 284.099322 -81.075849 
L 287.378664 -85.78742 
L 290.658006 -91.142981 
L 293.937329 -97.083491 
L 297.21669 -103.535507 
L 300.496013 -110.413668 
L 303.775355 -117.6246 
L 307.054697 -125.068541 
L 310.33402 -132.642396 
L 313.613382 -140.241999 
L 316.892705 -147.764115 
L 320.172047 -155.108759 
L 323.451389 -162.181103 
L 326.730731 -168.892744 
L 330.010073 -175.163783 
L 333.289396 -180.923445 
L 336.568738 -186.110903 
L 339.84808 -190.675059 
L 343.127423 -194.573321 
L 346.406765 -197.770761 
L 349.686088 -200.236473 
L 352.96543 -201.938578 
L 356.244772 -202.840085 
L 359.524114 -202.897835 
L 362.803456 -202.063777 
L 366.082798 -200.303831 
L 369.362141 -197.621816 
L 372.641463 -194.084321 
L 375.920806 -189.8216 
L 379.200148 -185.002316 
L 379.200148 -237.88856 
L 379.200148 -237.88856 
L 375.920806 -238.711768 
L 372.641463 -240.16329 
L 369.362141 -242.265623 
L 366.082798 -244.995523 
L 362.803456 -248.263811 
L 359.524114 -251.917906 
L 356.244772 -255.770954 
L 352.96543 -259.629206 
L 349.686088 -263.313759 
L 346.406765 -266.66618 
L 343.127423 -269.549235 
L 339.84808 -271.845667 
L 336.568738 -273.455534 
L 333.289396 -274.294969 
L 330.010073 -274.29614 
L 326.730731 -273.406666 
L 323.451389 -271.590259 
L 320.172047 -268.826879 
L 316.892705 -265.113268 
L 313.613382 -260.462986 
L 310.33402 -254.906251 
L 307.054697 -248.490087 
L 303.775355 -241.277309 
L 300.496013 -233.346214 
L 297.21669 -224.789808 
L 293.937329 -215.714205 
L 290.658006 -206.238869 
L 287.378664 -196.494574 
L 284.099322 -186.624137 
L 280.81998 -176.781737 
L 277.540637 -167.135045 
L 274.261315 -157.866724 
L 270.981953 -149.179253 
L 267.70263 -141.300195 
L 264.423288 -134.485561 
L 261.143946 -129.015529 
L 257.864623 -125.167066 
L 254.585262 -123.155764 
L 251.305939 -123.063815 
L 248.026597 -124.806725 
L 244.747254 -128.170154 
L 241.467912 -132.883184 
L 238.18857 -138.676 
L 234.909247 -145.305756 
L 231.629886 -152.561396 
L 228.350563 -160.259021 
L 225.071221 -168.237113 
L 221.791879 -176.352268 
L 218.512556 -184.476354 
L 215.233204 -192.495671 
L 211.953871 -200.309766 
L 208.674529 -207.832098 
L 205.395187 -214.989761 
L 202.115855 -221.724082 
L 198.836512 -227.990928 
L 195.55717 -233.760671 
L 192.277838 -239.018279 
L 188.998496 -243.763167 
L 185.719153 -248.008561 
L 182.439821 -251.780848 
L 179.160479 -255.118357 
L 175.881137 -258.069673 
L 172.601804 -260.691015 
L 169.322462 -263.042519 
L 166.04312 -265.182685 
L 162.763787 -267.160818 
L 159.484445 -269.008585 
L 156.205103 -270.731678 
L 152.92577 -272.305892 
L 149.646428 -273.679451 
L 146.367086 -274.782787 
L 143.087754 -275.541286 
L 139.808412 -275.889154 
L 136.529069 -275.778768 
L 133.249737 -275.185898 
L 129.970395 -274.110266 
L 126.691057 -272.573193 
L 123.41172 -270.611771 
L 120.132378 -268.272595 
L 116.853041 -265.603497 
L 113.573703 -262.647174 
L 110.294361 -259.436226 
L 107.015024 -255.991823 
L 103.735686 -252.323968 
L 100.456344 -248.436219 
L 97.177007 -244.329346 
L 93.89767 -240.006962 
L 90.61833 -235.479701 
L 87.33899 -230.768632 
L 84.059653 -225.90869 
L 80.780313 -220.950951 
L 77.500973 -215.965425 
L 74.221636 -211.043912 
L 70.942296 -206.30241 
L 67.662958 -201.883019 
L 64.383619 -197.955149 
L 61.10428 -194.709159 
L 57.824941 -192.341382 
L 54.545602 -191.025868 
z
" style="stroke: #1f77b4; stroke-opacity: 0.5; stroke-width: 0.8"/>
    </defs>
    <g clip-path="url(#p40032070a9)">
     <use xlink:href="#mdb34d9b1eb" x="0" y="322.510875" style="fill: #1f77b4; fill-opacity: 0.5; stroke: #1f77b4; stroke-opacity: 0.5; stroke-width: 0.8"/>
    </g>
   </g>
   <g id="PolyCollection_2">
    <defs>
     <path id="m0ecda6e189" d="M 54.545602 -132.814506 
L 54.545602 -119.406119 
L 57.824941 -121.433099 
L 61.10428 -123.583662 
L 64.383619 -125.93735 
L 67.662958 -128.572561 
L 70.942296 -131.554808 
L 74.221636 -134.928762 
L 77.500973 -138.714422 
L 80.780313 -142.906146 
L 84.059653 -147.474146 
L 87.33899 -152.366436 
L 90.61833 -157.512674 
L 93.89767 -162.827716 
L 97.177007 -168.21612 
L 100.456344 -173.577358 
L 103.735686 -178.810358 
L 107.015024 -183.819152 
L 110.294361 -188.517464 
L 113.573703 -192.832497 
L 116.853041 -196.707635 
L 120.132378 -200.102245 
L 123.41172 -202.990455 
L 126.691057 -205.357513 
L 129.970395 -207.195485 
L 133.249737 -208.497814 
L 136.529069 -209.255206 
L 139.808412 -209.451416 
L 143.087754 -209.061362 
L 146.367086 -208.050836 
L 149.646428 -206.378427 
L 152.92577 -203.999748 
L 156.205103 -200.874293 
L 159.484445 -196.972429 
L 162.763787 -192.283083 
L 166.04312 -186.818653 
L 169.322462 -180.617472 
L 172.601804 -173.74229 
L 175.881137 -166.276878 
L 179.160479 -158.320731 
L 182.439821 -149.983963 
L 185.719153 -141.382763 
L 188.998496 -132.635387 
L 192.277838 -123.859554 
L 195.55717 -115.170179 
L 198.836512 -106.677691 
L 202.115855 -98.486854 
L 205.395187 -90.695551 
L 208.674529 -83.393511 
L 211.953871 -76.661456 
L 215.233204 -70.569547 
L 218.512556 -65.17595 
L 221.791879 -60.525324 
L 225.071221 -56.646302 
L 228.350563 -53.549631 
L 231.629886 -51.225241 
L 234.909247 -49.639675 
L 238.18857 -48.733998 
L 241.467912 -48.423375 
L 244.747254 -48.600333 
L 248.026597 -49.144244 
L 251.305939 -49.938803 
L 254.585262 -50.89532 
L 257.864623 -51.974053 
L 261.143946 -53.193764 
L 264.423288 -54.623446 
L 267.70263 -56.361076 
L 270.981953 -58.509887 
L 274.261315 -61.160121 
L 277.540637 -64.378425 
L 280.81998 -68.204294 
L 284.099322 -72.650194 
L 287.378664 -77.703426 
L 290.658006 -83.329844 
L 293.937329 -89.476377 
L 297.21669 -96.074791 
L 300.496013 -103.043837 
L 303.775355 -110.293133 
L 307.054697 -117.724808 
L 310.33402 -125.236609 
L 313.613382 -132.724263 
L 316.892705 -140.083498 
L 320.172047 -147.212447 
L 323.451389 -154.013618 
L 326.730731 -160.395315 
L 330.010073 -166.273893 
L 333.289396 -171.574701 
L 336.568738 -176.233457 
L 339.84808 -180.196946 
L 343.127423 -183.423298 
L 346.406765 -185.883269 
L 349.686088 -187.559825 
L 352.96543 -188.447641 
L 356.244772 -188.553526 
L 359.524114 -187.897772 
L 362.803456 -186.512575 
L 366.082798 -184.444404 
L 369.362141 -181.752454 
L 372.641463 -178.508736 
L 375.920806 -174.796853 
L 379.200148 -170.70793 
L 379.200148 -185.002316 
L 379.200148 -185.002316 
L 375.920806 -189.8216 
L 372.641463 -194.084321 
L 369.362141 -197.621816 
L 366.082798 -200.303831 
L 362.803456 -202.063777 
L 359.524114 -202.897835 
L 356.244772 -202.840085 
L 352.96543 -201.938578 
L 349.686088 -200.236473 
L 346.406765 -197.770761 
L 343.127423 -194.573321 
L 339.84808 -190.675059 
L 336.568738 -186.110903 
L 333.289396 -180.923445 
L 330.010073 -175.163783 
L 326.730731 -168.892744 
L 323.451389 -162.181103 
L 320.172047 -155.108759 
L 316.892705 -147.764115 
L 313.613382 -140.241999 
L 310.33402 -132.642396 
L 307.054697 -125.068541 
L 303.775355 -117.6246 
L 300.496013 -110.413668 
L 297.21669 -103.535507 
L 293.937329 -97.083491 
L 290.658006 -91.142981 
L 287.378664 -85.78742 
L 284.099322 -81.075849 
L 280.81998 -77.048724 
L 277.540637 -73.723869 
L 274.261315 -71.090211 
L 270.981953 -69.101186 
L 267.70263 -67.66689 
L 264.423288 -66.647991 
L 261.143946 -65.859075 
L 257.864623 -65.094247 
L 254.585262 -64.184831 
L 251.305939 -63.071204 
L 248.026597 -61.836225 
L 244.747254 -60.669047 
L 241.467912 -59.793346 
L 238.18857 -59.410949 
L 234.909247 -59.677765 
L 231.629886 -60.701675 
L 228.350563 -62.548893 
L 225.071221 -65.251906 
L 221.791879 -68.816182 
L 218.512556 -73.225436 
L 215.233204 -78.445673 
L 211.953871 -84.427876 
L 208.674529 -91.110622 
L 205.395187 -98.421622 
L 202.115855 -106.279196 
L 198.836512 -114.593617 
L 195.55717 -123.26784 
L 192.277838 -132.198529 
L 188.998496 -141.276843 
L 185.719153 -150.389093 
L 182.439821 -159.417519 
L 179.160479 -168.241488 
L 175.881137 -176.738543 
L 172.601804 -184.78679 
L 169.322462 -192.268125 
L 166.04312 -199.073075 
L 162.763787 -205.108069 
L 159.484445 -210.303318 
L 156.205103 -214.620951 
L 152.92577 -218.058597 
L 149.646428 -220.647236 
L 146.367086 -222.441336 
L 143.087754 -223.50641 
L 139.808412 -223.905637 
L 136.529069 -223.69078 
L 133.249737 -222.897775 
L 129.970395 -221.54666 
L 126.691057 -219.644444 
L 123.41172 -217.191681 
L 120.132378 -214.189099 
L 116.853041 -210.646145 
L 113.573703 -206.587569 
L 110.294361 -202.058388 
L 107.015024 -197.124826 
L 103.735686 -191.873322 
L 100.456344 -186.40558 
L 97.177007 -180.832922 
L 93.89767 -175.270258 
L 90.61833 -169.829495 
L 87.33899 -164.614889 
L 84.059653 -159.71754 
L 80.780313 -155.210696 
L 77.500973 -151.145405 
L 74.221636 -147.545242 
L 70.942296 -144.402123 
L 67.662958 -141.671728 
L 64.383619 -139.271627 
L 61.10428 -137.085236 
L 57.824941 -134.976027 
L 54.545602 -132.814506 
z
" style="stroke: #ff7f0e; stroke-opacity: 0.5; stroke-width: 0.8"/>
    </defs>
    <g clip-path="url(#p40032070a9)">
     <use xlink:href="#m0ecda6e189" x="0" y="322.510875" style="fill: #ff7f0e; fill-opacity: 0.5; stroke: #ff7f0e; stroke-opacity: 0.5; stroke-width: 0.8"/>
    </g>
   </g>
   <g id="PolyCollection_3">
    <defs>
     <path id="md1b2d8d07a" d="M 54.545602 -204.434258 
L 54.545602 -191.025868 
L 57.824941 -192.341382 
L 61.10428 -194.709159 
L 64.383619 -197.955149 
L 67.662958 -201.883019 
L 70.942296 -206.30241 
L 74.221636 -211.043912 
L 77.500973 -215.965425 
L 80.780313 -220.950951 
L 84.059653 -225.90869 
L 87.33899 -230.768632 
L 90.61833 -235.479701 
L 93.89767 -240.006962 
L 97.177007 -244.329346 
L 100.456344 -248.436219 
L 103.735686 -252.323968 
L 107.015024 -255.991823 
L 110.294361 -259.436226 
L 113.573703 -262.647174 
L 116.853041 -265.603497 
L 120.132378 -268.272595 
L 123.41172 -270.611771 
L 126.691057 -272.573193 
L 129.970395 -274.110266 
L 133.249737 -275.185898 
L 136.529069 -275.778768 
L 139.808412 -275.889154 
L 143.087754 -275.541286 
L 146.367086 -274.782787 
L 149.646428 -273.679451 
L 152.92577 -272.305892 
L 156.205103 -270.731678 
L 159.484445 -269.008585 
L 162.763787 -267.160818 
L 166.04312 -265.182685 
L 169.322462 -263.042519 
L 172.601804 -260.691015 
L 175.881137 -258.069673 
L 179.160479 -255.118357 
L 182.439821 -251.780848 
L 185.719153 -248.008561 
L 188.998496 -243.763167 
L 192.277838 -239.018279 
L 195.55717 -233.760671 
L 198.836512 -227.990928 
L 202.115855 -221.724082 
L 205.395187 -214.989761 
L 208.674529 -207.832098 
L 211.953871 -200.309766 
L 215.233204 -192.495671 
L 218.512556 -184.476354 
L 221.791879 -176.352268 
L 225.071221 -168.237113 
L 228.350563 -160.259021 
L 231.629886 -152.561396 
L 234.909247 -145.305756 
L 238.18857 -138.676 
L 241.467912 -132.883184 
L 244.747254 -128.170154 
L 248.026597 -124.806725 
L 251.305939 -123.063815 
L 254.585262 -123.155764 
L 257.864623 -125.167066 
L 261.143946 -129.015529 
L 264.423288 -134.485561 
L 267.70263 -141.300195 
L 270.981953 -149.179253 
L 274.261315 -157.866724 
L 277.540637 -167.135045 
L 280.81998 -176.781737 
L 284.099322 -186.624137 
L 287.378664 -196.494574 
L 290.658006 -206.238869 
L 293.937329 -215.714205 
L 297.21669 -224.789808 
L 300.496013 -233.346214 
L 303.775355 -241.277309 
L 307.054697 -248.490087 
L 310.33402 -254.906251 
L 313.613382 -260.462986 
L 316.892705 -265.113268 
L 320.172047 -268.826879 
L 323.451389 -271.590259 
L 326.730731 -273.406666 
L 330.010073 -274.29614 
L 333.289396 -274.294969 
L 336.568738 -273.455534 
L 339.84808 -271.845667 
L 343.127423 -269.549235 
L 346.406765 -266.66618 
L 349.686088 -263.313759 
L 352.96543 -259.629206 
L 356.244772 -255.770954 
L 359.524114 -251.917906 
L 362.803456 -248.263811 
L 366.082798 -244.995523 
L 369.362141 -242.265623 
L 372.641463 -240.16329 
L 375.920806 -238.711768 
L 379.200148 -237.88856 
L 379.200148 -252.182943 
L 379.200148 -252.182943 
L 375.920806 -253.736518 
L 372.641463 -255.738875 
L 369.362141 -258.134989 
L 366.082798 -260.854947 
L 362.803456 -263.81501 
L 359.524114 -266.917966 
L 356.244772 -270.057513 
L 352.96543 -273.12014 
L 349.686088 -275.990404 
L 346.406765 -278.553666 
L 343.127423 -280.699253 
L 339.84808 -282.323781 
L 336.568738 -283.332977 
L 333.289396 -283.643717 
L 330.010073 -283.18603 
L 326.730731 -281.904095 
L 323.451389 -279.757744 
L 320.172047 -276.723191 
L 316.892705 -272.793884 
L 313.613382 -267.980722 
L 310.33402 -262.312038 
L 307.054697 -255.833826 
L 303.775355 -248.608776 
L 300.496013 -240.716038 
L 297.21669 -232.250524 
L 293.937329 -223.321319 
L 290.658006 -214.052011 
L 287.378664 -204.578556 
L 284.099322 -195.049793 
L 280.81998 -185.626173 
L 277.540637 -176.480483 
L 274.261315 -167.796815 
L 270.981953 -159.770547 
L 267.70263 -152.606009 
L 264.423288 -146.510106 
L 261.143946 -141.68084 
L 257.864623 -138.287249 
L 254.585262 -136.445276 
L 251.305939 -136.196205 
L 248.026597 -137.498694 
L 244.747254 -140.238868 
L 241.467912 -144.253155 
L 238.18857 -149.352952 
L 234.909247 -155.343852 
L 231.629886 -162.03783 
L 228.350563 -169.258283 
L 225.071221 -176.842711 
L 221.791879 -184.643132 
L 218.512556 -192.525834 
L 215.233204 -200.371803 
L 211.953871 -208.076192 
L 208.674529 -215.549203 
L 205.395187 -222.715832 
L 202.115855 -229.516419 
L 198.836512 -235.906848 
L 195.55717 -241.858333 
L 192.277838 -247.357255 
L 188.998496 -252.404623 
L 185.719153 -257.014881 
L 182.439821 -261.214398 
L 179.160479 -265.039114 
L 175.881137 -268.531338 
L 172.601804 -271.735521 
L 169.322462 -274.693171 
L 166.04312 -277.437104 
L 162.763787 -279.985799 
L 159.484445 -282.33947 
L 156.205103 -284.478336 
L 152.92577 -286.364741 
L 149.646428 -287.948265 
L 146.367086 -289.17328 
L 143.087754 -289.986334 
L 139.808412 -290.343375 
L 136.529069 -290.214342 
L 133.249737 -289.58586 
L 129.970395 -288.461441 
L 126.691057 -286.860122 
L 123.41172 -284.812997 
L 120.132378 -282.359449 
L 116.853041 -279.542011 
L 113.573703 -276.402242 
L 110.294361 -272.97715 
L 107.015024 -269.297494 
L 103.735686 -265.386932 
L 100.456344 -261.264437 
L 97.177007 -256.946151 
L 93.89767 -252.449502 
L 90.61833 -247.796519 
L 87.33899 -243.017088 
L 84.059653 -238.152093 
L 80.780313 -233.255495 
L 77.500973 -228.396405 
L 74.221636 -223.660399 
L 70.942296 -219.149722 
L 67.662958 -214.982185 
L 64.383619 -211.289432 
L 61.10428 -208.21073 
L 57.824941 -205.88431 
L 54.545602 -204.434258 
z
" style="stroke: #ff7f0e; stroke-opacity: 0.5; stroke-width: 0.8"/>
    </defs>
    <g clip-path="url(#p40032070a9)">
     <use xlink:href="#md1b2d8d07a" x="0" y="322.510875" style="fill: #ff7f0e; fill-opacity: 0.5; stroke: #ff7f0e; stroke-opacity: 0.5; stroke-width: 0.8"/>
    </g>
   </g>
   <g id="line2d_13">
    <defs>
     <path id="m5ab579c7b6" d="M -5 5 
L 5 -5 
M -5 -5 
L 5 5 
" style="stroke: #000000; stroke-width: 2"/>
    </defs>
    <g clip-path="url(#p40032070a9)">
     <use xlink:href="#m5ab579c7b6" x="356.349693" y="79.628147" style="stroke: #000000; stroke-width: 2"/>
     <use xlink:href="#m5ab579c7b6" x="157.258364" y="80.637731" style="stroke: #000000; stroke-width: 2"/>
     <use xlink:href="#m5ab579c7b6" x="114.255683" y="83.342579" style="stroke: #000000; stroke-width: 2"/>
     <use xlink:href="#m5ab579c7b6" x="254.585262" y="245.374537" style="stroke: #000000; stroke-width: 2"/>
     <use xlink:href="#m5ab579c7b6" x="54.545602" y="171.066938" style="stroke: #000000; stroke-width: 2"/>
     <use xlink:href="#m5ab579c7b6" x="379.200148" y="126.378254" style="stroke: #000000; stroke-width: 2"/>
    </g>
   </g>
   <g id="line2d_14">
    <path d="M 54.545602 160.590688 
L 57.824941 158.85217 
L 61.10428 156.613678 
L 64.383619 153.897487 
L 67.662958 150.733499 
L 70.942296 147.15861 
L 74.221636 143.216295 
L 77.500973 138.95546 
L 80.780313 134.430053 
L 84.059653 129.697759 
L 87.33899 124.819113 
L 90.61833 119.856279 
L 93.89767 114.872265 
L 97.177007 109.929739 
L 100.456344 105.089977 
L 103.735686 100.412232 
L 107.015024 95.952551 
L 110.294361 91.763568 
L 113.573703 87.893504 
L 116.853041 84.386053 
L 120.132378 81.280028 
L 123.41172 78.609149 
L 126.691057 76.402056 
L 129.970395 74.682412 
L 133.249737 73.469039 
L 136.529069 72.776101 
L 139.808412 72.613479 
L 143.087754 72.987026 
L 146.367086 73.898815 
L 149.646428 75.34753 
L 152.92577 77.328631 
L 156.205103 79.834561 
L 159.484445 82.854924 
L 162.763787 86.376432 
L 166.04312 90.382997 
L 169.322462 94.855555 
L 172.601804 99.771971 
L 175.881137 105.106767 
L 179.160479 110.830954 
L 182.439821 116.911692 
L 185.719153 123.31205 
L 188.998496 129.99087 
L 192.277838 136.902471 
L 195.55717 143.996619 
L 198.836512 151.218603 
L 202.115855 158.509236 
L 205.395187 165.805184 
L 208.674529 173.039515 
L 211.953871 180.142051 
L 215.233204 187.0402 
L 218.512556 193.65998 
L 221.791879 199.92665 
L 225.071221 205.766368 
L 228.350563 211.106918 
L 231.629886 215.87934 
L 234.909247 220.019114 
L 238.18857 223.4674 
L 241.467912 226.17261 
L 244.747254 228.091275 
L 248.026597 229.1894 
L 251.305939 229.443365 
L 254.585262 228.840577 
L 257.864623 227.380218 
L 261.143946 225.073573 
L 264.423288 221.944099 
L 267.70263 218.027332 
L 270.981953 213.370655 
L 274.261315 208.032407 
L 277.540637 202.081418 
L 280.81998 195.595642 
L 284.099322 188.660882 
L 287.378664 181.369881 
L 290.658006 173.81995 
L 293.937329 166.112027 
L 297.21669 158.348218 
L 300.496013 150.630937 
L 303.775355 143.05992 
L 307.054697 135.731561 
L 310.33402 128.736551 
L 313.613382 122.158382 
L 316.892705 116.072187 
L 320.172047 110.543056 
L 323.451389 105.625194 
L 326.730731 101.36117 
L 330.010073 97.780913 
L 333.289396 94.901666 
L 336.568738 92.727658 
L 339.84808 91.250512 
L 343.127423 90.449598 
L 346.406765 90.292406 
L 349.686088 90.735759 
L 352.96543 91.726983 
L 356.244772 93.205356 
L 359.524114 95.103004 
L 362.803456 97.347081 
L 366.082798 99.861198 
L 369.362141 102.567155 
L 372.641463 105.387069 
L 375.920806 108.244191 
L 379.200148 111.065437 
" clip-path="url(#p40032070a9)" style="fill: none; stroke: #1f77b4; stroke-width: 2; stroke-linecap: round"/>
   </g>
   <g id="line2d_15">
    <path d="M 54.545602 171.066938 
L 57.824941 165.08838 
L 61.10428 159.132005 
L 64.383619 153.219906 
L 67.662958 147.374089 
L 70.942296 141.616319 
L 74.221636 135.968149 
L 77.500973 130.450753 
L 80.780313 125.084883 
L 84.059653 119.890837 
L 87.33899 114.888322 
L 90.61833 110.096432 
L 93.89767 105.533567 
L 97.177007 101.217371 
L 100.456344 97.164656 
L 103.735686 93.39139 
L 107.015024 89.912591 
L 110.294361 86.742301 
L 113.573703 83.893514 
L 116.853041 81.378171 
L 120.132378 79.207095 
L 123.41172 77.389934 
L 126.691057 75.935159 
L 129.970395 74.850018 
L 133.249737 74.140498 
L 136.529069 73.811319 
L 139.808412 73.865909 
L 143.087754 74.306364 
L 146.367086 75.133463 
L 149.646428 76.34665 
L 152.92577 77.944009 
L 156.205103 79.922257 
L 159.484445 82.276792 
L 162.763787 85.001604 
L 166.04312 88.089362 
L 169.322462 91.531363 
L 172.601804 95.317555 
L 175.881137 99.436542 
L 179.160479 103.875573 
L 182.439821 108.620618 
L 185.719153 113.656245 
L 188.998496 118.965779 
L 192.277838 124.531171 
L 195.55717 130.333145 
L 198.836512 136.351072 
L 202.115855 142.563018 
L 205.395187 148.945777 
L 208.674529 155.47487 
L 211.953871 162.124462 
L 215.233204 168.867469 
L 218.512556 175.675486 
L 221.791879 182.51873 
L 225.071221 189.366179 
L 228.350563 196.185439 
L 231.629886 202.942599 
L 234.909247 209.60267 
L 238.18857 216.128901 
L 241.467912 222.483431 
L 244.747254 228.626798 
L 248.026597 234.518162 
L 251.305939 240.115317 
L 254.585262 245.374537 
L 257.864623 250.250846 
L 261.143946 254.697879 
L 264.423288 258.668114 
L 267.70263 262.112907 
L 270.981953 264.982797 
L 274.261315 267.227598 
L 277.540637 268.796844 
L 280.81998 269.640152 
L 284.099322 269.707755 
L 287.378664 268.951163 
L 290.658006 267.324032 
L 293.937329 264.783129 
L 297.21669 261.289447 
L 300.496013 256.810125 
L 303.775355 251.319498 
L 307.054697 244.801795 
L 310.33402 237.253418 
L 313.613382 228.685418 
L 316.892705 219.127245 
L 320.172047 208.629892 
L 323.451389 197.270049 
L 326.730731 185.154455 
L 330.010073 172.424251 
L 333.289396 159.25959 
L 336.568738 145.884058 
L 339.84808 132.568192 
L 343.127423 119.632415 
L 346.406765 107.448143 
L 349.686088 96.435832 
L 352.96543 87.059804 
L 356.244772 79.818814 
L 359.524114 75.228992 
L 362.803456 73.800204 
L 366.082798 76.002523 
L 369.362141 82.222372 
L 372.641463 92.707857 
L 375.920806 107.503614 
L 379.200148 126.378254 
" clip-path="url(#p40032070a9)" style="fill: none; stroke-dasharray: 7.68,1.92,1.2,1.92; stroke-dashoffset: 0; stroke: #bf00bf; stroke-width: 1.2"/>
   </g>
   <g id="patch_3">
    <path d="M 38.312875 269.777005 
L 38.312875 24.789028 
" style="fill: none; stroke: #262626; stroke-linejoin: miter; stroke-linecap: square"/>
   </g>
   <g id="patch_4">
    <path d="M 54.545602 286.1835 
L 379.200148 286.1835 
" style="fill: none; stroke: #262626; stroke-linejoin: miter; stroke-linecap: square"/>
   </g>
   <g id="text_15">
    <!-- N=2,  -->
    <g style="fill: #262626" transform="translate(205.266625 14.0715) scale(0.096 -0.096)">
     <defs>
      <path id="ArialMT-4e" d="M 488 0 
L 488 4581 
L 1109 4581 
L 3516 984 
L 3516 4581 
L 4097 4581 
L 4097 0 
L 3475 0 
L 1069 3600 
L 1069 0 
L 488 0 
z
" transform="scale(0.015625)"/>
      <path id="ArialMT-3d" d="M 3381 2694 
L 356 2694 
L 356 3219 
L 3381 3219 
L 3381 2694 
z
M 3381 1303 
L 356 1303 
L 356 1828 
L 3381 1828 
L 3381 1303 
z
" transform="scale(0.015625)"/>
      <path id="ArialMT-2c" d="M 569 0 
L 569 641 
L 1209 641 
L 1209 0 
Q 1209 -353 1084 -570 
Q 959 -788 688 -906 
L 531 -666 
Q 709 -588 793 -436 
Q 878 -284 888 0 
L 569 0 
z
" transform="scale(0.015625)"/>
      <path id="ArialMT-20" transform="scale(0.015625)"/>
     </defs>
     <use xlink:href="#ArialMT-4e"/>
     <use xlink:href="#ArialMT-3d" x="72.216797"/>
     <use xlink:href="#ArialMT-32" x="130.615234"/>
     <use xlink:href="#ArialMT-2c" x="186.230469"/>
     <use xlink:href="#ArialMT-20" x="214.013672"/>
    </g>
   </g>
   <g id="legend_1">
    <g id="line2d_16">
     <g>
      <use xlink:href="#m5ab579c7b6" x="55.032875" y="219.978625" style="stroke: #000000; stroke-width: 2"/>
     </g>
    </g>
    <g id="text_16">
     <!-- Observations -->
     <g style="fill: #262626" transform="translate(70.872875 223.058625) scale(0.088 -0.088)">
      <defs>
       <path id="ArialMT-4f" d="M 309 2231 
Q 309 3372 921 4017 
Q 1534 4663 2503 4663 
Q 3138 4663 3647 4359 
Q 4156 4056 4423 3514 
Q 4691 2972 4691 2284 
Q 4691 1588 4409 1038 
Q 4128 488 3612 205 
Q 3097 -78 2500 -78 
Q 1853 -78 1343 234 
Q 834 547 571 1087 
Q 309 1628 309 2231 
z
M 934 2222 
Q 934 1394 1379 917 
Q 1825 441 2497 441 
Q 3181 441 3623 922 
Q 4066 1403 4066 2288 
Q 4066 2847 3877 3264 
Q 3688 3681 3323 3911 
Q 2959 4141 2506 4141 
Q 1863 4141 1398 3698 
Q 934 3256 934 2222 
z
" transform="scale(0.015625)"/>
       <path id="ArialMT-62" d="M 941 0 
L 419 0 
L 419 4581 
L 981 4581 
L 981 2947 
Q 1338 3394 1891 3394 
Q 2197 3394 2470 3270 
Q 2744 3147 2920 2923 
Q 3097 2700 3197 2384 
Q 3297 2069 3297 1709 
Q 3297 856 2875 390 
Q 2453 -75 1863 -75 
Q 1275 -75 941 416 
L 941 0 
z
M 934 1684 
Q 934 1088 1097 822 
Q 1363 388 1816 388 
Q 2184 388 2453 708 
Q 2722 1028 2722 1663 
Q 2722 2313 2464 2622 
Q 2206 2931 1841 2931 
Q 1472 2931 1203 2611 
Q 934 2291 934 1684 
z
" transform="scale(0.015625)"/>
       <path id="ArialMT-73" d="M 197 991 
L 753 1078 
Q 800 744 1014 566 
Q 1228 388 1613 388 
Q 2000 388 2187 545 
Q 2375 703 2375 916 
Q 2375 1106 2209 1216 
Q 2094 1291 1634 1406 
Q 1016 1563 777 1677 
Q 538 1791 414 1992 
Q 291 2194 291 2438 
Q 291 2659 392 2848 
Q 494 3038 669 3163 
Q 800 3259 1026 3326 
Q 1253 3394 1513 3394 
Q 1903 3394 2198 3281 
Q 2494 3169 2634 2976 
Q 2775 2784 2828 2463 
L 2278 2388 
Q 2241 2644 2061 2787 
Q 1881 2931 1553 2931 
Q 1166 2931 1000 2803 
Q 834 2675 834 2503 
Q 834 2394 903 2306 
Q 972 2216 1119 2156 
Q 1203 2125 1616 2013 
Q 2213 1853 2448 1751 
Q 2684 1650 2818 1456 
Q 2953 1263 2953 975 
Q 2953 694 2789 445 
Q 2625 197 2315 61 
Q 2006 -75 1616 -75 
Q 969 -75 630 194 
Q 291 463 197 991 
z
" transform="scale(0.015625)"/>
       <path id="ArialMT-65" d="M 2694 1069 
L 3275 997 
Q 3138 488 2766 206 
Q 2394 -75 1816 -75 
Q 1088 -75 661 373 
Q 234 822 234 1631 
Q 234 2469 665 2931 
Q 1097 3394 1784 3394 
Q 2450 3394 2872 2941 
Q 3294 2488 3294 1666 
Q 3294 1616 3291 1516 
L 816 1516 
Q 847 969 1125 678 
Q 1403 388 1819 388 
Q 2128 388 2347 550 
Q 2566 713 2694 1069 
z
M 847 1978 
L 2700 1978 
Q 2663 2397 2488 2606 
Q 2219 2931 1791 2931 
Q 1403 2931 1139 2672 
Q 875 2413 847 1978 
z
" transform="scale(0.015625)"/>
       <path id="ArialMT-72" d="M 416 0 
L 416 3319 
L 922 3319 
L 922 2816 
Q 1116 3169 1280 3281 
Q 1444 3394 1641 3394 
Q 1925 3394 2219 3213 
L 2025 2691 
Q 1819 2813 1613 2813 
Q 1428 2813 1281 2702 
Q 1134 2591 1072 2394 
Q 978 2094 978 1738 
L 978 0 
L 416 0 
z
" transform="scale(0.015625)"/>
       <path id="ArialMT-76" d="M 1344 0 
L 81 3319 
L 675 3319 
L 1388 1331 
Q 1503 1009 1600 663 
Q 1675 925 1809 1294 
L 2547 3319 
L 3125 3319 
L 1869 0 
L 1344 0 
z
" transform="scale(0.015625)"/>
       <path id="ArialMT-61" d="M 2588 409 
Q 2275 144 1986 34 
Q 1697 -75 1366 -75 
Q 819 -75 525 192 
Q 231 459 231 875 
Q 231 1119 342 1320 
Q 453 1522 633 1644 
Q 813 1766 1038 1828 
Q 1203 1872 1538 1913 
Q 2219 1994 2541 2106 
Q 2544 2222 2544 2253 
Q 2544 2597 2384 2738 
Q 2169 2928 1744 2928 
Q 1347 2928 1158 2789 
Q 969 2650 878 2297 
L 328 2372 
Q 403 2725 575 2942 
Q 747 3159 1072 3276 
Q 1397 3394 1825 3394 
Q 2250 3394 2515 3294 
Q 2781 3194 2906 3042 
Q 3031 2891 3081 2659 
Q 3109 2516 3109 2141 
L 3109 1391 
Q 3109 606 3145 398 
Q 3181 191 3288 0 
L 2700 0 
Q 2613 175 2588 409 
z
M 2541 1666 
Q 2234 1541 1622 1453 
Q 1275 1403 1131 1340 
Q 988 1278 909 1158 
Q 831 1038 831 891 
Q 831 666 1001 516 
Q 1172 366 1500 366 
Q 1825 366 2078 508 
Q 2331 650 2450 897 
Q 2541 1088 2541 1459 
L 2541 1666 
z
" transform="scale(0.015625)"/>
       <path id="ArialMT-74" d="M 1650 503 
L 1731 6 
Q 1494 -44 1306 -44 
Q 1000 -44 831 53 
Q 663 150 594 308 
Q 525 466 525 972 
L 525 2881 
L 113 2881 
L 113 3319 
L 525 3319 
L 525 4141 
L 1084 4478 
L 1084 3319 
L 1650 3319 
L 1650 2881 
L 1084 2881 
L 1084 941 
Q 1084 700 1114 631 
Q 1144 563 1211 522 
Q 1278 481 1403 481 
Q 1497 481 1650 503 
z
" transform="scale(0.015625)"/>
       <path id="ArialMT-69" d="M 425 3934 
L 425 4581 
L 988 4581 
L 988 3934 
L 425 3934 
z
M 425 0 
L 425 3319 
L 988 3319 
L 988 0 
L 425 0 
z
" transform="scale(0.015625)"/>
       <path id="ArialMT-6f" d="M 213 1659 
Q 213 2581 725 3025 
Q 1153 3394 1769 3394 
Q 2453 3394 2887 2945 
Q 3322 2497 3322 1706 
Q 3322 1066 3130 698 
Q 2938 331 2570 128 
Q 2203 -75 1769 -75 
Q 1072 -75 642 372 
Q 213 819 213 1659 
z
M 791 1659 
Q 791 1022 1069 705 
Q 1347 388 1769 388 
Q 2188 388 2466 706 
Q 2744 1025 2744 1678 
Q 2744 2294 2464 2611 
Q 2184 2928 1769 2928 
Q 1347 2928 1069 2612 
Q 791 2297 791 1659 
z
" transform="scale(0.015625)"/>
       <path id="ArialMT-6e" d="M 422 0 
L 422 3319 
L 928 3319 
L 928 2847 
Q 1294 3394 1984 3394 
Q 2284 3394 2536 3286 
Q 2788 3178 2913 3003 
Q 3038 2828 3088 2588 
Q 3119 2431 3119 2041 
L 3119 0 
L 2556 0 
L 2556 2019 
Q 2556 2363 2490 2533 
Q 2425 2703 2258 2804 
Q 2091 2906 1866 2906 
Q 1506 2906 1245 2678 
Q 984 2450 984 1813 
L 984 0 
L 422 0 
z
" transform="scale(0.015625)"/>
      </defs>
      <use xlink:href="#ArialMT-4f"/>
      <use xlink:href="#ArialMT-62" x="77.783203"/>
      <use xlink:href="#ArialMT-73" x="133.398438"/>
      <use xlink:href="#ArialMT-65" x="183.398438"/>
      <use xlink:href="#ArialMT-72" x="239.013672"/>
      <use xlink:href="#ArialMT-76" x="272.314453"/>
      <use xlink:href="#ArialMT-61" x="322.314453"/>
      <use xlink:href="#ArialMT-74" x="377.929688"/>
      <use xlink:href="#ArialMT-69" x="405.712891"/>
      <use xlink:href="#ArialMT-6f" x="427.929688"/>
      <use xlink:href="#ArialMT-6e" x="483.544922"/>
      <use xlink:href="#ArialMT-73" x="539.160156"/>
     </g>
    </g>
    <g id="line2d_17">
     <path d="M 46.232875 232.562625 
L 55.032875 232.562625 
L 63.832875 232.562625 
" style="fill: none; stroke: #1f77b4; stroke-width: 2; stroke-linecap: round"/>
    </g>
    <g id="text_17">
     <!-- $m_n(x)$ -->
     <g style="fill: #262626" transform="translate(70.872875 235.642625) scale(0.088 -0.088)">
      <defs>
       <path id="DejaVuSans-Oblique-6d" d="M 5747 2113 
L 5338 0 
L 4763 0 
L 5166 2094 
Q 5191 2228 5203 2325 
Q 5216 2422 5216 2491 
Q 5216 2772 5059 2928 
Q 4903 3084 4622 3084 
Q 4203 3084 3875 2770 
Q 3547 2456 3450 1953 
L 3066 0 
L 2491 0 
L 2900 2094 
Q 2925 2209 2937 2307 
Q 2950 2406 2950 2484 
Q 2950 2769 2794 2926 
Q 2638 3084 2363 3084 
Q 1938 3084 1609 2770 
Q 1281 2456 1184 1953 
L 800 0 
L 225 0 
L 909 3500 
L 1484 3500 
L 1375 2956 
Q 1609 3263 1923 3423 
Q 2238 3584 2597 3584 
Q 2978 3584 3223 3384 
Q 3469 3184 3519 2828 
Q 3781 3197 4126 3390 
Q 4472 3584 4856 3584 
Q 5306 3584 5551 3325 
Q 5797 3066 5797 2591 
Q 5797 2488 5784 2364 
Q 5772 2241 5747 2113 
z
" transform="scale(0.015625)"/>
       <path id="DejaVuSans-Oblique-6e" d="M 3566 2113 
L 3156 0 
L 2578 0 
L 2988 2091 
Q 3016 2238 3031 2350 
Q 3047 2463 3047 2528 
Q 3047 2791 2881 2937 
Q 2716 3084 2419 3084 
Q 1956 3084 1622 2776 
Q 1288 2469 1184 1941 
L 800 0 
L 225 0 
L 903 3500 
L 1478 3500 
L 1363 2950 
Q 1603 3253 1940 3418 
Q 2278 3584 2650 3584 
Q 3113 3584 3367 3334 
Q 3622 3084 3622 2631 
Q 3622 2519 3608 2391 
Q 3594 2263 3566 2113 
z
" transform="scale(0.015625)"/>
       <path id="DejaVuSans-28" d="M 1984 4856 
Q 1566 4138 1362 3434 
Q 1159 2731 1159 2009 
Q 1159 1288 1364 580 
Q 1569 -128 1984 -844 
L 1484 -844 
Q 1016 -109 783 600 
Q 550 1309 550 2009 
Q 550 2706 781 3412 
Q 1013 4119 1484 4856 
L 1984 4856 
z
" transform="scale(0.015625)"/>
       <path id="DejaVuSans-29" d="M 513 4856 
L 1013 4856 
Q 1481 4119 1714 3412 
Q 1947 2706 1947 2009 
Q 1947 1309 1714 600 
Q 1481 -109 1013 -844 
L 513 -844 
Q 928 -128 1133 580 
Q 1338 1288 1338 2009 
Q 1338 2731 1133 3434 
Q 928 4138 513 4856 
z
" transform="scale(0.015625)"/>
      </defs>
      <use xlink:href="#DejaVuSans-Oblique-6d" transform="translate(0 0.125)"/>
      <use xlink:href="#DejaVuSans-Oblique-6e" transform="translate(97.412109 -16.28125) scale(0.7)"/>
      <use xlink:href="#DejaVuSans-28" transform="translate(144.511719 0.125)"/>
      <use xlink:href="#DejaVuSans-Oblique-78" transform="translate(183.525391 0.125)"/>
      <use xlink:href="#DejaVuSans-29" transform="translate(242.705078 0.125)"/>
     </g>
    </g>
    <g id="patch_5">
     <path d="M 46.232875 249.799625 
L 63.832875 249.799625 
L 63.832875 243.639625 
L 46.232875 243.639625 
z
" style="fill: #1f77b4; fill-opacity: 0.5; stroke: #1f77b4; stroke-opacity: 0.5; stroke-width: 0.8; stroke-linejoin: miter"/>
    </g>
    <g id="text_18">
     <!-- $f(\mathbf{x}^*)$ 95% pred. -->
     <g style="fill: #262626" transform="translate(70.872875 249.799625) scale(0.088 -0.088)">
      <defs>
       <path id="DejaVuSans-Oblique-66" d="M 3059 4863 
L 2969 4384 
L 2419 4384 
Q 2106 4384 1964 4261 
Q 1822 4138 1753 3809 
L 1691 3500 
L 2638 3500 
L 2553 3053 
L 1606 3053 
L 1013 0 
L 434 0 
L 1031 3053 
L 481 3053 
L 563 3500 
L 1113 3500 
L 1159 3744 
Q 1278 4363 1576 4613 
Q 1875 4863 2516 4863 
L 3059 4863 
z
" transform="scale(0.015625)"/>
       <path id="DejaVuSans-Bold-78" d="M 1422 1791 
L 159 3500 
L 1344 3500 
L 2059 2463 
L 2784 3500 
L 3969 3500 
L 2706 1797 
L 4031 0 
L 2847 0 
L 2059 1106 
L 1281 0 
L 97 0 
L 1422 1791 
z
" transform="scale(0.015625)"/>
       <path id="DejaVuSans-2a" d="M 3009 3897 
L 1888 3291 
L 3009 2681 
L 2828 2375 
L 1778 3009 
L 1778 1831 
L 1422 1831 
L 1422 3009 
L 372 2375 
L 191 2681 
L 1313 3291 
L 191 3897 
L 372 4206 
L 1422 3572 
L 1422 4750 
L 1778 4750 
L 1778 3572 
L 2828 4206 
L 3009 3897 
z
" transform="scale(0.015625)"/>
       <path id="ArialMT-39" d="M 350 1059 
L 891 1109 
Q 959 728 1153 556 
Q 1347 384 1650 384 
Q 1909 384 2104 503 
Q 2300 622 2425 820 
Q 2550 1019 2634 1356 
Q 2719 1694 2719 2044 
Q 2719 2081 2716 2156 
Q 2547 1888 2255 1720 
Q 1963 1553 1622 1553 
Q 1053 1553 659 1965 
Q 266 2378 266 3053 
Q 266 3750 677 4175 
Q 1088 4600 1706 4600 
Q 2153 4600 2523 4359 
Q 2894 4119 3086 3673 
Q 3278 3228 3278 2384 
Q 3278 1506 3087 986 
Q 2897 466 2520 194 
Q 2144 -78 1638 -78 
Q 1100 -78 759 220 
Q 419 519 350 1059 
z
M 2653 3081 
Q 2653 3566 2395 3850 
Q 2138 4134 1775 4134 
Q 1400 4134 1122 3828 
Q 844 3522 844 3034 
Q 844 2597 1108 2323 
Q 1372 2050 1759 2050 
Q 2150 2050 2401 2323 
Q 2653 2597 2653 3081 
z
" transform="scale(0.015625)"/>
       <path id="ArialMT-35" d="M 266 1200 
L 856 1250 
Q 922 819 1161 601 
Q 1400 384 1738 384 
Q 2144 384 2425 690 
Q 2706 997 2706 1503 
Q 2706 1984 2436 2262 
Q 2166 2541 1728 2541 
Q 1456 2541 1237 2417 
Q 1019 2294 894 2097 
L 366 2166 
L 809 4519 
L 3088 4519 
L 3088 3981 
L 1259 3981 
L 1013 2750 
Q 1425 3038 1878 3038 
Q 2478 3038 2890 2622 
Q 3303 2206 3303 1553 
Q 3303 931 2941 478 
Q 2500 -78 1738 -78 
Q 1113 -78 717 272 
Q 322 622 266 1200 
z
" transform="scale(0.015625)"/>
       <path id="ArialMT-25" d="M 372 3481 
Q 372 3972 619 4315 
Q 866 4659 1334 4659 
Q 1766 4659 2048 4351 
Q 2331 4044 2331 3447 
Q 2331 2866 2045 2552 
Q 1759 2238 1341 2238 
Q 925 2238 648 2547 
Q 372 2856 372 3481 
z
M 1350 4272 
Q 1141 4272 1002 4090 
Q 863 3909 863 3425 
Q 863 2984 1003 2804 
Q 1144 2625 1350 2625 
Q 1563 2625 1702 2806 
Q 1841 2988 1841 3469 
Q 1841 3913 1700 4092 
Q 1559 4272 1350 4272 
z
M 1353 -169 
L 3859 4659 
L 4316 4659 
L 1819 -169 
L 1353 -169 
z
M 3334 1075 
Q 3334 1569 3581 1911 
Q 3828 2253 4300 2253 
Q 4731 2253 5014 1945 
Q 5297 1638 5297 1041 
Q 5297 459 5011 145 
Q 4725 -169 4303 -169 
Q 3888 -169 3611 142 
Q 3334 453 3334 1075 
z
M 4316 1866 
Q 4103 1866 3964 1684 
Q 3825 1503 3825 1019 
Q 3825 581 3965 400 
Q 4106 219 4313 219 
Q 4528 219 4667 400 
Q 4806 581 4806 1063 
Q 4806 1506 4665 1686 
Q 4525 1866 4316 1866 
z
" transform="scale(0.015625)"/>
       <path id="ArialMT-70" d="M 422 -1272 
L 422 3319 
L 934 3319 
L 934 2888 
Q 1116 3141 1344 3267 
Q 1572 3394 1897 3394 
Q 2322 3394 2647 3175 
Q 2972 2956 3137 2557 
Q 3303 2159 3303 1684 
Q 3303 1175 3120 767 
Q 2938 359 2589 142 
Q 2241 -75 1856 -75 
Q 1575 -75 1351 44 
Q 1128 163 984 344 
L 984 -1272 
L 422 -1272 
z
M 931 1641 
Q 931 1000 1190 694 
Q 1450 388 1819 388 
Q 2194 388 2461 705 
Q 2728 1022 2728 1688 
Q 2728 2322 2467 2637 
Q 2206 2953 1844 2953 
Q 1484 2953 1207 2617 
Q 931 2281 931 1641 
z
" transform="scale(0.015625)"/>
       <path id="ArialMT-64" d="M 2575 0 
L 2575 419 
Q 2259 -75 1647 -75 
Q 1250 -75 917 144 
Q 584 363 401 755 
Q 219 1147 219 1656 
Q 219 2153 384 2558 
Q 550 2963 881 3178 
Q 1213 3394 1622 3394 
Q 1922 3394 2156 3267 
Q 2391 3141 2538 2938 
L 2538 4581 
L 3097 4581 
L 3097 0 
L 2575 0 
z
M 797 1656 
Q 797 1019 1065 703 
Q 1334 388 1700 388 
Q 2069 388 2326 689 
Q 2584 991 2584 1609 
Q 2584 2291 2321 2609 
Q 2059 2928 1675 2928 
Q 1300 2928 1048 2622 
Q 797 2316 797 1656 
z
" transform="scale(0.015625)"/>
      </defs>
      <use xlink:href="#DejaVuSans-Oblique-66" transform="translate(0 0.765625)"/>
      <use xlink:href="#DejaVuSans-28" transform="translate(35.205078 0.765625)"/>
      <use xlink:href="#DejaVuSans-Bold-78" transform="translate(74.21875 0.765625)"/>
      <use xlink:href="#DejaVuSans-2a" transform="translate(153.31543 39.046875) scale(0.7)"/>
      <use xlink:href="#DejaVuSans-29" transform="translate(204.6875 0.765625)"/>
      <use xlink:href="#ArialMT-20" transform="translate(243.701172 0.765625)"/>
      <use xlink:href="#ArialMT-39" transform="translate(271.484375 0.765625)"/>
      <use xlink:href="#ArialMT-35" transform="translate(327.099609 0.765625)"/>
      <use xlink:href="#ArialMT-25" transform="translate(382.714844 0.765625)"/>
      <use xlink:href="#ArialMT-20" transform="translate(471.630859 0.765625)"/>
      <use xlink:href="#ArialMT-70" transform="translate(499.414062 0.765625)"/>
      <use xlink:href="#ArialMT-72" transform="translate(555.029297 0.765625)"/>
      <use xlink:href="#ArialMT-65" transform="translate(588.330078 0.765625)"/>
      <use xlink:href="#ArialMT-64" transform="translate(643.945312 0.765625)"/>
      <use xlink:href="#ArialMT-2e" transform="translate(699.560547 0.765625)"/>
     </g>
    </g>
    <g id="patch_6">
     <path d="M 46.232875 263.967625 
L 63.832875 263.967625 
L 63.832875 257.807625 
L 46.232875 257.807625 
z
" style="fill: #ff7f0e; fill-opacity: 0.5; stroke: #ff7f0e; stroke-opacity: 0.5; stroke-width: 0.8; stroke-linejoin: miter"/>
    </g>
    <g id="text_19">
     <!-- $y^*$ 95% pred. -->
     <g style="fill: #262626" transform="translate(70.872875 263.967625) scale(0.088 -0.088)">
      <use xlink:href="#DejaVuSans-Oblique-79" transform="translate(0 0.765625)"/>
      <use xlink:href="#DejaVuSans-2a" transform="translate(77.283529 39.046875) scale(0.7)"/>
      <use xlink:href="#ArialMT-20" transform="translate(128.655599 0.765625)"/>
      <use xlink:href="#ArialMT-39" transform="translate(156.438802 0.765625)"/>
      <use xlink:href="#ArialMT-35" transform="translate(212.054036 0.765625)"/>
      <use xlink:href="#ArialMT-25" transform="translate(267.669271 0.765625)"/>
      <use xlink:href="#ArialMT-20" transform="translate(356.585286 0.765625)"/>
      <use xlink:href="#ArialMT-70" transform="translate(384.36849 0.765625)"/>
      <use xlink:href="#ArialMT-72" transform="translate(439.983724 0.765625)"/>
      <use xlink:href="#ArialMT-65" transform="translate(473.284505 0.765625)"/>
      <use xlink:href="#ArialMT-64" transform="translate(528.89974 0.765625)"/>
      <use xlink:href="#ArialMT-2e" transform="translate(584.514974 0.765625)"/>
     </g>
    </g>
    <g id="line2d_18">
     <path d="M 46.232875 273.4345 
L 55.032875 273.4345 
L 63.832875 273.4345 
" style="fill: none; stroke-dasharray: 7.68,1.92,1.2,1.92; stroke-dashoffset: 0; stroke: #bf00bf; stroke-width: 1.2"/>
    </g>
    <g id="text_20">
     <!-- True function -->
     <g style="fill: #262626" transform="translate(70.872875 276.5145) scale(0.088 -0.088)">
      <defs>
       <path id="ArialMT-54" d="M 1659 0 
L 1659 4041 
L 150 4041 
L 150 4581 
L 3781 4581 
L 3781 4041 
L 2266 4041 
L 2266 0 
L 1659 0 
z
" transform="scale(0.015625)"/>
       <path id="ArialMT-75" d="M 2597 0 
L 2597 488 
Q 2209 -75 1544 -75 
Q 1250 -75 995 37 
Q 741 150 617 320 
Q 494 491 444 738 
Q 409 903 409 1263 
L 409 3319 
L 972 3319 
L 972 1478 
Q 972 1038 1006 884 
Q 1059 663 1231 536 
Q 1403 409 1656 409 
Q 1909 409 2131 539 
Q 2353 669 2445 892 
Q 2538 1116 2538 1541 
L 2538 3319 
L 3100 3319 
L 3100 0 
L 2597 0 
z
" transform="scale(0.015625)"/>
       <path id="ArialMT-66" d="M 556 0 
L 556 2881 
L 59 2881 
L 59 3319 
L 556 3319 
L 556 3672 
Q 556 4006 616 4169 
Q 697 4388 901 4523 
Q 1106 4659 1475 4659 
Q 1713 4659 2000 4603 
L 1916 4113 
Q 1741 4144 1584 4144 
Q 1328 4144 1222 4034 
Q 1116 3925 1116 3625 
L 1116 3319 
L 1763 3319 
L 1763 2881 
L 1116 2881 
L 1116 0 
L 556 0 
z
" transform="scale(0.015625)"/>
       <path id="ArialMT-63" d="M 2588 1216 
L 3141 1144 
Q 3050 572 2676 248 
Q 2303 -75 1759 -75 
Q 1078 -75 664 370 
Q 250 816 250 1647 
Q 250 2184 428 2587 
Q 606 2991 970 3192 
Q 1334 3394 1763 3394 
Q 2303 3394 2647 3120 
Q 2991 2847 3088 2344 
L 2541 2259 
Q 2463 2594 2264 2762 
Q 2066 2931 1784 2931 
Q 1359 2931 1093 2626 
Q 828 2322 828 1663 
Q 828 994 1084 691 
Q 1341 388 1753 388 
Q 2084 388 2306 591 
Q 2528 794 2588 1216 
z
" transform="scale(0.015625)"/>
      </defs>
      <use xlink:href="#ArialMT-54"/>
      <use xlink:href="#ArialMT-72" x="57.333984"/>
      <use xlink:href="#ArialMT-75" x="90.634766"/>
      <use xlink:href="#ArialMT-65" x="146.25"/>
      <use xlink:href="#ArialMT-20" x="201.865234"/>
      <use xlink:href="#ArialMT-66" x="229.648438"/>
      <use xlink:href="#ArialMT-75" x="257.431641"/>
      <use xlink:href="#ArialMT-6e" x="313.046875"/>
      <use xlink:href="#ArialMT-63" x="368.662109"/>
      <use xlink:href="#ArialMT-74" x="418.662109"/>
      <use xlink:href="#ArialMT-69" x="446.445312"/>
      <use xlink:href="#ArialMT-6f" x="468.662109"/>
      <use xlink:href="#ArialMT-6e" x="524.277344"/>
     </g>
    </g>
   </g>
  </g>
  <g id="axes_2">
   <g id="matplotlib.axis_3">
    <g id="ytick_7">
     <g id="line2d_19">
      <defs>
       <path id="m186eddf620" d="M 0 0 
L 4.8 0 
" style="stroke: #262626"/>
      </defs>
      <g>
       <use xlink:href="#m186eddf620" x="395.432875" y="274.087474" style="fill: #262626; stroke: #262626"/>
      </g>
     </g>
     <g id="text_21">
      <!-- 0.00 -->
      <g style="fill: #ff7f0e" transform="translate(403.732875 277.236912) scale(0.088 -0.088)">
       <use xlink:href="#ArialMT-30"/>
       <use xlink:href="#ArialMT-2e" x="55.615234"/>
       <use xlink:href="#ArialMT-30" x="83.398438"/>
       <use xlink:href="#ArialMT-30" x="139.013672"/>
      </g>
     </g>
    </g>
    <g id="ytick_8">
     <g id="line2d_20">
      <g>
       <use xlink:href="#m186eddf620" x="395.432875" y="242.660411" style="fill: #262626; stroke: #262626"/>
      </g>
     </g>
     <g id="text_22">
      <!-- 0.05 -->
      <g style="fill: #ff7f0e" transform="translate(403.732875 245.809848) scale(0.088 -0.088)">
       <use xlink:href="#ArialMT-30"/>
       <use xlink:href="#ArialMT-2e" x="55.615234"/>
       <use xlink:href="#ArialMT-30" x="83.398438"/>
       <use xlink:href="#ArialMT-35" x="139.013672"/>
      </g>
     </g>
    </g>
    <g id="ytick_9">
     <g id="line2d_21">
      <g>
       <use xlink:href="#m186eddf620" x="395.432875" y="211.233347" style="fill: #262626; stroke: #262626"/>
      </g>
     </g>
     <g id="text_23">
      <!-- 0.10 -->
      <g style="fill: #ff7f0e" transform="translate(403.732875 214.382785) scale(0.088 -0.088)">
       <use xlink:href="#ArialMT-30"/>
       <use xlink:href="#ArialMT-2e" x="55.615234"/>
       <use xlink:href="#ArialMT-31" x="83.398438"/>
       <use xlink:href="#ArialMT-30" x="139.013672"/>
      </g>
     </g>
    </g>
    <g id="ytick_10">
     <g id="line2d_22">
      <g>
       <use xlink:href="#m186eddf620" x="395.432875" y="179.806283" style="fill: #262626; stroke: #262626"/>
      </g>
     </g>
     <g id="text_24">
      <!-- 0.15 -->
      <g style="fill: #ff7f0e" transform="translate(403.732875 182.955721) scale(0.088 -0.088)">
       <use xlink:href="#ArialMT-30"/>
       <use xlink:href="#ArialMT-2e" x="55.615234"/>
       <use xlink:href="#ArialMT-31" x="83.398438"/>
       <use xlink:href="#ArialMT-35" x="139.013672"/>
      </g>
     </g>
    </g>
    <g id="ytick_11">
     <g id="line2d_23">
      <g>
       <use xlink:href="#m186eddf620" x="395.432875" y="148.37922" style="fill: #262626; stroke: #262626"/>
      </g>
     </g>
     <g id="text_25">
      <!-- 0.20 -->
      <g style="fill: #ff7f0e" transform="translate(403.732875 151.528657) scale(0.088 -0.088)">
       <use xlink:href="#ArialMT-30"/>
       <use xlink:href="#ArialMT-2e" x="55.615234"/>
       <use xlink:href="#ArialMT-32" x="83.398438"/>
       <use xlink:href="#ArialMT-30" x="139.013672"/>
      </g>
     </g>
    </g>
    <g id="ytick_12">
     <g id="line2d_24">
      <g>
       <use xlink:href="#m186eddf620" x="395.432875" y="116.952156" style="fill: #262626; stroke: #262626"/>
      </g>
     </g>
     <g id="text_26">
      <!-- 0.25 -->
      <g style="fill: #ff7f0e" transform="translate(403.732875 120.101594) scale(0.088 -0.088)">
       <use xlink:href="#ArialMT-30"/>
       <use xlink:href="#ArialMT-2e" x="55.615234"/>
       <use xlink:href="#ArialMT-32" x="83.398438"/>
       <use xlink:href="#ArialMT-35" x="139.013672"/>
      </g>
     </g>
    </g>
    <g id="ytick_13">
     <g id="line2d_25">
      <g>
       <use xlink:href="#m186eddf620" x="395.432875" y="85.525093" style="fill: #262626; stroke: #262626"/>
      </g>
     </g>
     <g id="text_27">
      <!-- 0.30 -->
      <g style="fill: #ff7f0e" transform="translate(403.732875 88.67453) scale(0.088 -0.088)">
       <defs>
        <path id="ArialMT-33" d="M 269 1209 
L 831 1284 
Q 928 806 1161 595 
Q 1394 384 1728 384 
Q 2125 384 2398 659 
Q 2672 934 2672 1341 
Q 2672 1728 2419 1979 
Q 2166 2231 1775 2231 
Q 1616 2231 1378 2169 
L 1441 2663 
Q 1497 2656 1531 2656 
Q 1891 2656 2178 2843 
Q 2466 3031 2466 3422 
Q 2466 3731 2256 3934 
Q 2047 4138 1716 4138 
Q 1388 4138 1169 3931 
Q 950 3725 888 3313 
L 325 3413 
Q 428 3978 793 4289 
Q 1159 4600 1703 4600 
Q 2078 4600 2393 4439 
Q 2709 4278 2876 4000 
Q 3044 3722 3044 3409 
Q 3044 3113 2884 2869 
Q 2725 2625 2413 2481 
Q 2819 2388 3044 2092 
Q 3269 1797 3269 1353 
Q 3269 753 2831 336 
Q 2394 -81 1725 -81 
Q 1122 -81 723 278 
Q 325 638 269 1209 
z
" transform="scale(0.015625)"/>
       </defs>
       <use xlink:href="#ArialMT-30"/>
       <use xlink:href="#ArialMT-2e" x="55.615234"/>
       <use xlink:href="#ArialMT-33" x="83.398438"/>
       <use xlink:href="#ArialMT-30" x="139.013672"/>
      </g>
     </g>
    </g>
    <g id="ytick_14">
     <g id="line2d_26">
      <g>
       <use xlink:href="#m186eddf620" x="395.432875" y="54.098029" style="fill: #262626; stroke: #262626"/>
      </g>
     </g>
     <g id="text_28">
      <!-- 0.35 -->
      <g style="fill: #ff7f0e" transform="translate(403.732875 57.247467) scale(0.088 -0.088)">
       <use xlink:href="#ArialMT-30"/>
       <use xlink:href="#ArialMT-2e" x="55.615234"/>
       <use xlink:href="#ArialMT-33" x="83.398438"/>
       <use xlink:href="#ArialMT-35" x="139.013672"/>
      </g>
     </g>
    </g>
    <g id="ytick_15">
     <g id="line2d_27">
      <g>
       <use xlink:href="#m186eddf620" x="395.432875" y="22.670966" style="fill: #262626; stroke: #262626"/>
      </g>
     </g>
     <g id="text_29">
      <!-- 0.40 -->
      <g style="fill: #ff7f0e" transform="translate(403.732875 25.820403) scale(0.088 -0.088)">
       <use xlink:href="#ArialMT-30"/>
       <use xlink:href="#ArialMT-2e" x="55.615234"/>
       <use xlink:href="#ArialMT-34" x="83.398438"/>
       <use xlink:href="#ArialMT-30" x="139.013672"/>
      </g>
     </g>
    </g>
    <g id="text_30">
     <!-- Information Acquisition Function -->
     <g style="fill: #ff7f0e" transform="translate(431.847 221.16075) rotate(-90) scale(0.096 -0.096)">
      <defs>
       <path id="ArialMT-49" d="M 597 0 
L 597 4581 
L 1203 4581 
L 1203 0 
L 597 0 
z
" transform="scale(0.015625)"/>
       <path id="ArialMT-6d" d="M 422 0 
L 422 3319 
L 925 3319 
L 925 2853 
Q 1081 3097 1340 3245 
Q 1600 3394 1931 3394 
Q 2300 3394 2536 3241 
Q 2772 3088 2869 2813 
Q 3263 3394 3894 3394 
Q 4388 3394 4653 3120 
Q 4919 2847 4919 2278 
L 4919 0 
L 4359 0 
L 4359 2091 
Q 4359 2428 4304 2576 
Q 4250 2725 4106 2815 
Q 3963 2906 3769 2906 
Q 3419 2906 3187 2673 
Q 2956 2441 2956 1928 
L 2956 0 
L 2394 0 
L 2394 2156 
Q 2394 2531 2256 2718 
Q 2119 2906 1806 2906 
Q 1569 2906 1367 2781 
Q 1166 2656 1075 2415 
Q 984 2175 984 1722 
L 984 0 
L 422 0 
z
" transform="scale(0.015625)"/>
       <path id="ArialMT-41" d="M -9 0 
L 1750 4581 
L 2403 4581 
L 4278 0 
L 3588 0 
L 3053 1388 
L 1138 1388 
L 634 0 
L -9 0 
z
M 1313 1881 
L 2866 1881 
L 2388 3150 
Q 2169 3728 2063 4100 
Q 1975 3659 1816 3225 
L 1313 1881 
z
" transform="scale(0.015625)"/>
       <path id="ArialMT-71" d="M 2538 -1272 
L 2538 353 
Q 2406 169 2170 47 
Q 1934 -75 1669 -75 
Q 1078 -75 651 397 
Q 225 869 225 1691 
Q 225 2191 398 2587 
Q 572 2984 901 3189 
Q 1231 3394 1625 3394 
Q 2241 3394 2594 2875 
L 2594 3319 
L 3100 3319 
L 3100 -1272 
L 2538 -1272 
z
M 803 1669 
Q 803 1028 1072 708 
Q 1341 388 1716 388 
Q 2075 388 2334 692 
Q 2594 997 2594 1619 
Q 2594 2281 2320 2615 
Q 2047 2950 1678 2950 
Q 1313 2950 1058 2639 
Q 803 2328 803 1669 
z
" transform="scale(0.015625)"/>
       <path id="ArialMT-46" d="M 525 0 
L 525 4581 
L 3616 4581 
L 3616 4041 
L 1131 4041 
L 1131 2622 
L 3281 2622 
L 3281 2081 
L 1131 2081 
L 1131 0 
L 525 0 
z
" transform="scale(0.015625)"/>
      </defs>
      <use xlink:href="#ArialMT-49"/>
      <use xlink:href="#ArialMT-6e" x="27.783203"/>
      <use xlink:href="#ArialMT-66" x="83.398438"/>
      <use xlink:href="#ArialMT-6f" x="111.181641"/>
      <use xlink:href="#ArialMT-72" x="166.796875"/>
      <use xlink:href="#ArialMT-6d" x="200.097656"/>
      <use xlink:href="#ArialMT-61" x="283.398438"/>
      <use xlink:href="#ArialMT-74" x="339.013672"/>
      <use xlink:href="#ArialMT-69" x="366.796875"/>
      <use xlink:href="#ArialMT-6f" x="389.013672"/>
      <use xlink:href="#ArialMT-6e" x="444.628906"/>
      <use xlink:href="#ArialMT-20" x="500.244141"/>
      <use xlink:href="#ArialMT-41" x="522.527344"/>
      <use xlink:href="#ArialMT-63" x="589.226562"/>
      <use xlink:href="#ArialMT-71" x="639.226562"/>
      <use xlink:href="#ArialMT-75" x="694.841797"/>
      <use xlink:href="#ArialMT-69" x="750.457031"/>
      <use xlink:href="#ArialMT-73" x="772.673828"/>
      <use xlink:href="#ArialMT-69" x="822.673828"/>
      <use xlink:href="#ArialMT-74" x="844.890625"/>
      <use xlink:href="#ArialMT-69" x="872.673828"/>
      <use xlink:href="#ArialMT-6f" x="894.890625"/>
      <use xlink:href="#ArialMT-6e" x="950.505859"/>
      <use xlink:href="#ArialMT-20" x="1006.121094"/>
      <use xlink:href="#ArialMT-46" x="1033.904297"/>
      <use xlink:href="#ArialMT-75" x="1094.988281"/>
      <use xlink:href="#ArialMT-6e" x="1150.603516"/>
      <use xlink:href="#ArialMT-63" x="1206.21875"/>
      <use xlink:href="#ArialMT-74" x="1256.21875"/>
      <use xlink:href="#ArialMT-69" x="1284.001953"/>
      <use xlink:href="#ArialMT-6f" x="1306.21875"/>
      <use xlink:href="#ArialMT-6e" x="1361.833984"/>
     </g>
    </g>
   </g>
   <g id="line2d_28">
    <path d="M 54.545602 274.087446 
L 57.824941 274.0875 
L 61.10428 274.087499 
L 64.383619 274.087463 
L 67.662958 274.087395 
L 70.942296 274.086971 
L 74.221636 274.084651 
L 77.500973 274.074848 
L 80.780313 274.040494 
L 84.059653 273.939492 
L 87.33899 273.683237 
L 90.61833 273.106391 
L 93.89767 271.925712 
L 97.177007 269.688042 
L 100.456344 265.715712 
L 103.735686 259.078046 
L 107.015024 248.648411 
L 110.294361 233.323743 
L 113.573703 212.421844 
L 116.853041 186.14732 
L 120.132378 155.856551 
L 123.41172 123.92587 
L 126.691057 93.262821 
L 129.970395 66.727946 
L 133.249737 46.700283 
L 136.529069 34.868541 
L 139.808412 32.1675 
L 143.087754 38.764008 
L 146.367086 54.022824 
L 149.646428 76.463879 
L 152.92577 103.789805 
L 156.205103 133.142768 
L 159.484445 161.648454 
L 162.763787 187.082459 
L 166.04312 208.28494 
L 169.322462 225.111662 
L 172.601804 238.06022 
L 175.881137 247.867807 
L 179.160479 255.248923 
L 182.439821 260.787003 
L 185.719153 264.920802 
L 188.998496 267.970707 
L 192.277838 270.173701 
L 195.55717 271.713272 
L 198.836512 272.740069 
L 202.115855 273.383534 
L 205.395187 273.755465 
L 208.674529 273.949535 
L 211.953871 274.038569 
L 215.233204 274.073261 
L 218.512556 274.084287 
L 221.791879 274.086899 
L 225.071221 274.0874 
L 228.350563 274.087447 
L 231.629886 274.087469 
L 234.909247 274.087474 
L 238.18857 274.087474 
L 241.467912 274.087474 
L 244.747254 274.087474 
L 248.026597 274.087474 
L 251.305939 274.087474 
L 254.585262 274.087474 
L 257.864623 274.087474 
L 261.143946 274.087474 
L 264.423288 274.087474 
L 267.70263 274.087474 
L 270.981953 274.087474 
L 274.261315 274.087469 
L 277.540637 274.087499 
L 280.81998 274.08723 
L 284.099322 274.084868 
L 287.378664 274.06724 
L 290.658006 273.983747 
L 293.937329 273.697669 
L 297.21669 272.937594 
L 300.496013 271.286221 
L 303.775355 268.234596 
L 307.054697 263.295788 
L 310.33402 256.144396 
L 313.613382 246.738132 
L 316.892705 235.39093 
L 320.172047 222.780039 
L 323.451389 209.892477 
L 326.730731 197.921706 
L 330.010073 188.13072 
L 333.289396 181.701236 
L 336.568738 179.576813 
L 339.84808 182.314212 
L 343.127423 189.942178 
L 346.406765 201.846418 
L 349.686088 216.709306 
L 352.96543 232.574945 
L 356.244772 247.17662 
L 359.524114 258.600685 
L 362.803456 266.056319 
L 366.082798 270.106247 
L 369.362141 271.993563 
L 372.641463 272.784665 
L 375.920806 273.070646 
L 379.200148 273.100805 
" clip-path="url(#p40032070a9)" style="fill: none; stroke: #ff7f0e; stroke-width: 1.2; stroke-linecap: round"/>
   </g>
   <g id="line2d_29">
    <path d="M 139.808412 274.087474 
L 139.808412 271.643838 
L 139.808412 269.200202 
L 139.808412 266.756566 
L 139.808412 264.31293 
L 139.808412 261.869294 
L 139.808412 259.425658 
L 139.808412 256.982022 
L 139.808412 254.538386 
L 139.808412 252.094751 
L 139.808412 249.651114 
L 139.808412 247.207476 
L 139.808412 244.763842 
L 139.808412 242.320207 
L 139.808412 239.87657 
L 139.808412 237.432932 
L 139.808412 234.989297 
L 139.808412 232.545663 
L 139.808412 230.102028 
L 139.808412 227.658388 
L 139.808412 225.214753 
L 139.808412 222.771118 
L 139.808412 220.327479 
L 139.808412 217.883844 
L 139.808412 215.440209 
L 139.808412 212.996574 
L 139.808412 210.552939 
L 139.808412 208.1093 
L 139.808412 205.665665 
L 139.808412 203.22203 
L 139.808412 200.77839 
L 139.808412 198.334756 
L 139.808412 195.891121 
L 139.808412 193.447486 
L 139.808412 191.003851 
L 139.808412 188.560216 
L 139.808412 186.116581 
L 139.808412 183.672937 
L 139.808412 181.229302 
L 139.808412 178.785667 
L 139.808412 176.342032 
L 139.808412 173.898398 
L 139.808412 171.454763 
L 139.808412 169.011128 
L 139.808412 166.567484 
L 139.808412 164.123849 
L 139.808412 161.680214 
L 139.808412 159.236579 
L 139.808412 156.792944 
L 139.808412 154.349309 
L 139.808412 151.905665 
L 139.808412 149.46203 
L 139.808412 147.018395 
L 139.808412 144.57476 
L 139.808412 142.131125 
L 139.808412 139.687491 
L 139.808412 137.243846 
L 139.808412 134.800211 
L 139.808412 132.356577 
L 139.808412 129.912942 
L 139.808412 127.469307 
L 139.808412 125.025672 
L 139.808412 122.582037 
L 139.808412 120.138393 
L 139.808412 117.694758 
L 139.808412 115.251123 
L 139.808412 112.807479 
L 139.808412 110.363853 
L 139.808412 107.920228 
L 139.808412 105.476584 
L 139.808412 103.032939 
L 139.808412 100.589314 
L 139.808412 98.14567 
L 139.808412 95.702025 
L 139.808412 93.2584 
L 139.808412 90.814774 
L 139.808412 88.37113 
L 139.808412 85.927486 
L 139.808412 83.48386 
L 139.808412 81.040216 
L 139.808412 78.596591 
L 139.808412 76.152946 
L 139.808412 73.709321 
L 139.808412 71.265677 
L 139.808412 68.822032 
L 139.808412 66.378407 
L 139.808412 63.934763 
L 139.808412 61.491137 
L 139.808412 59.047493 
L 139.808412 56.603867 
L 139.808412 54.160223 
L 139.808412 51.716579 
L 139.808412 49.272953 
L 139.808412 46.829309 
L 139.808412 44.385684 
L 139.808412 41.942039 
L 139.808412 39.498414 
L 139.808412 37.05477 
L 139.808412 34.611144 
L 139.808412 32.1675 
" clip-path="url(#p40032070a9)" style="fill: none; stroke: #ff7f0e; stroke-linecap: round"/>
   </g>
   <g id="patch_7">
    <path d="M 38.312875 286.1835 
L 38.312875 20.0715 
" style="fill: none; stroke: #262626; stroke-linejoin: miter; stroke-linecap: square"/>
   </g>
   <g id="patch_8">
    <path d="M 395.432875 286.1835 
L 395.432875 20.0715 
" style="fill: none; stroke: #262626; stroke-linejoin: miter; stroke-linecap: square"/>
   </g>
   <g id="patch_9">
    <path d="M 38.312875 286.1835 
L 395.432875 286.1835 
" style="fill: none; stroke: #262626; stroke-linejoin: miter; stroke-linecap: square"/>
   </g>
   <g id="patch_10">
    <path d="M 38.312875 20.0715 
L 395.432875 20.0715 
" style="fill: none; stroke: #262626; stroke-linejoin: miter; stroke-linecap: square"/>
   </g>
  </g>
 </g>
 <defs>
  <clipPath id="p40032070a9">
   <rect x="38.312875" y="20.0715" width="357.12" height="266.112"/>
  </clipPath>
 </defs>
</svg>