<?xml version="1.0" encoding="utf-8" standalone="no"?>
<!DOCTYPE svg PUBLIC "-//W3C//DTD SVG 1.1//EN"
  "http://www.w3.org/Graphics/SVG/1.1/DTD/svg11.dtd">
<svg xmlns:xlink="http://www.w3.org/1999/xlink" width="402.91925pt" height="309.650869pt" viewBox="0 0 402.91925 309.650869" xmlns="http://www.w3.org/2000/svg" version="1.1">
 <metadata>
  <rdf:RDF xmlns:dc="http://purl.org/dc/elements/1.1/" xmlns:cc="http://creativecommons.org/ns#" xmlns:rdf="http://www.w3.org/1999/02/22-rdf-syntax-ns#">
   <cc:Work>
    <dc:type rdf:resource="http://purl.org/dc/dcmitype/StillImage"/>
    <dc:date>2023-09-16T15:53:27.017538</dc:date>
    <dc:format>image/svg+xml</dc:format>
    <dc:creator>
     <cc:Agent>
      <dc:title>Matplotlib v3.7.1, https://matplotlib.org/</dc:title>
     </cc:Agent>
    </dc:creator>
   </cc:Work>
  </rdf:RDF>
 </metadata>
 <defs>
  <style type="text/css">*{stroke-linejoin: round; stroke-linecap: butt}</style>
 </defs>
 <g id="figure_1">
  <g id="patch_1">
   <path d="M 0 309.650869 
L 402.91925 309.650869 
L 402.91925 0 
L 0 0 
z
" style="fill: #ffffff"/>
  </g>
  <g id="axes_1">
   <g id="patch_2">
    <path d="M 38.59925 273.323494 
L 395.71925 273.323494 
L 395.71925 7.211494 
L 38.59925 7.211494 
z
" style="fill: #ffffff"/>
   </g>
   <g id="matplotlib.axis_1">
    <g id="xtick_1">
     <g id="line2d_1">
      <defs>
       <path id="ma952be1040" d="M 0 0 
L 0 4.8 
" style="stroke: #262626"/>
      </defs>
      <g>
       <use xlink:href="#ma952be1040" x="54.831977" y="273.323494" style="fill: #262626; stroke: #262626"/>
      </g>
     </g>
     <g id="text_1">
      <!-- 0 -->
      <g style="fill: #262626" transform="translate(52.385165 287.922369) scale(0.088 -0.088)">
       <defs>
        <path id="ArialMT-30" d="M 266 2259 
Q 266 3072 433 3567 
Q 600 4063 929 4331 
Q 1259 4600 1759 4600 
Q 2128 4600 2406 4451 
Q 2684 4303 2865 4023 
Q 3047 3744 3150 3342 
Q 3253 2941 3253 2259 
Q 3253 1453 3087 958 
Q 2922 463 2592 192 
Q 2263 -78 1759 -78 
Q 1097 -78 719 397 
Q 266 969 266 2259 
z
M 844 2259 
Q 844 1131 1108 757 
Q 1372 384 1759 384 
Q 2147 384 2411 759 
Q 2675 1134 2675 2259 
Q 2675 3391 2411 3762 
Q 2147 4134 1753 4134 
Q 1366 4134 1134 3806 
Q 844 3388 844 2259 
z
" transform="scale(0.015625)"/>
       </defs>
       <use xlink:href="#ArialMT-30"/>
      </g>
     </g>
    </g>
    <g id="xtick_2">
     <g id="line2d_2">
      <g>
       <use xlink:href="#ma952be1040" x="119.762886" y="273.323494" style="fill: #262626; stroke: #262626"/>
      </g>
     </g>
     <g id="text_2">
      <!-- 20 -->
      <g style="fill: #262626" transform="translate(114.869261 287.922369) scale(0.088 -0.088)">
       <defs>
        <path id="ArialMT-32" d="M 3222 541 
L 3222 0 
L 194 0 
Q 188 203 259 391 
Q 375 700 629 1000 
Q 884 1300 1366 1694 
Q 2113 2306 2375 2664 
Q 2638 3022 2638 3341 
Q 2638 3675 2398 3904 
Q 2159 4134 1775 4134 
Q 1369 4134 1125 3890 
Q 881 3647 878 3216 
L 300 3275 
Q 359 3922 746 4261 
Q 1134 4600 1788 4600 
Q 2447 4600 2831 4234 
Q 3216 3869 3216 3328 
Q 3216 3053 3103 2787 
Q 2991 2522 2730 2228 
Q 2469 1934 1863 1422 
Q 1356 997 1212 845 
Q 1069 694 975 541 
L 3222 541 
z
" transform="scale(0.015625)"/>
       </defs>
       <use xlink:href="#ArialMT-32"/>
       <use xlink:href="#ArialMT-30" x="55.615234"/>
      </g>
     </g>
    </g>
    <g id="xtick_3">
     <g id="line2d_3">
      <g>
       <use xlink:href="#ma952be1040" x="184.693795" y="273.323494" style="fill: #262626; stroke: #262626"/>
      </g>
     </g>
     <g id="text_3">
      <!-- 40 -->
      <g style="fill: #262626" transform="translate(179.80017 287.922369) scale(0.088 -0.088)">
       <defs>
        <path id="ArialMT-34" d="M 2069 0 
L 2069 1097 
L 81 1097 
L 81 1613 
L 2172 4581 
L 2631 4581 
L 2631 1613 
L 3250 1613 
L 3250 1097 
L 2631 1097 
L 2631 0 
L 2069 0 
z
M 2069 1613 
L 2069 3678 
L 634 1613 
L 2069 1613 
z
" transform="scale(0.015625)"/>
       </defs>
       <use xlink:href="#ArialMT-34"/>
       <use xlink:href="#ArialMT-30" x="55.615234"/>
      </g>
     </g>
    </g>
    <g id="xtick_4">
     <g id="line2d_4">
      <g>
       <use xlink:href="#ma952be1040" x="249.624705" y="273.323494" style="fill: #262626; stroke: #262626"/>
      </g>
     </g>
     <g id="text_4">
      <!-- 60 -->
      <g style="fill: #262626" transform="translate(244.73108 287.922369) scale(0.088 -0.088)">
       <defs>
        <path id="ArialMT-36" d="M 3184 3459 
L 2625 3416 
Q 2550 3747 2413 3897 
Q 2184 4138 1850 4138 
Q 1581 4138 1378 3988 
Q 1113 3794 959 3422 
Q 806 3050 800 2363 
Q 1003 2672 1297 2822 
Q 1591 2972 1913 2972 
Q 2475 2972 2870 2558 
Q 3266 2144 3266 1488 
Q 3266 1056 3080 686 
Q 2894 316 2569 119 
Q 2244 -78 1831 -78 
Q 1128 -78 684 439 
Q 241 956 241 2144 
Q 241 3472 731 4075 
Q 1159 4600 1884 4600 
Q 2425 4600 2770 4297 
Q 3116 3994 3184 3459 
z
M 888 1484 
Q 888 1194 1011 928 
Q 1134 663 1356 523 
Q 1578 384 1822 384 
Q 2178 384 2434 671 
Q 2691 959 2691 1453 
Q 2691 1928 2437 2201 
Q 2184 2475 1800 2475 
Q 1419 2475 1153 2201 
Q 888 1928 888 1484 
z
" transform="scale(0.015625)"/>
       </defs>
       <use xlink:href="#ArialMT-36"/>
       <use xlink:href="#ArialMT-30" x="55.615234"/>
      </g>
     </g>
    </g>
    <g id="xtick_5">
     <g id="line2d_5">
      <g>
       <use xlink:href="#ma952be1040" x="314.555614" y="273.323494" style="fill: #262626; stroke: #262626"/>
      </g>
     </g>
     <g id="text_5">
      <!-- 80 -->
      <g style="fill: #262626" transform="translate(309.661989 287.922369) scale(0.088 -0.088)">
       <defs>
        <path id="ArialMT-38" d="M 1131 2484 
Q 781 2613 612 2850 
Q 444 3088 444 3419 
Q 444 3919 803 4259 
Q 1163 4600 1759 4600 
Q 2359 4600 2725 4251 
Q 3091 3903 3091 3403 
Q 3091 3084 2923 2848 
Q 2756 2613 2416 2484 
Q 2838 2347 3058 2040 
Q 3278 1734 3278 1309 
Q 3278 722 2862 322 
Q 2447 -78 1769 -78 
Q 1091 -78 675 323 
Q 259 725 259 1325 
Q 259 1772 486 2073 
Q 713 2375 1131 2484 
z
M 1019 3438 
Q 1019 3113 1228 2906 
Q 1438 2700 1772 2700 
Q 2097 2700 2305 2904 
Q 2513 3109 2513 3406 
Q 2513 3716 2298 3927 
Q 2084 4138 1766 4138 
Q 1444 4138 1231 3931 
Q 1019 3725 1019 3438 
z
M 838 1322 
Q 838 1081 952 856 
Q 1066 631 1291 507 
Q 1516 384 1775 384 
Q 2178 384 2440 643 
Q 2703 903 2703 1303 
Q 2703 1709 2433 1975 
Q 2163 2241 1756 2241 
Q 1359 2241 1098 1978 
Q 838 1716 838 1322 
z
" transform="scale(0.015625)"/>
       </defs>
       <use xlink:href="#ArialMT-38"/>
       <use xlink:href="#ArialMT-30" x="55.615234"/>
      </g>
     </g>
    </g>
    <g id="xtick_6">
     <g id="line2d_6">
      <g>
       <use xlink:href="#ma952be1040" x="379.486523" y="273.323494" style="fill: #262626; stroke: #262626"/>
      </g>
     </g>
     <g id="text_6">
      <!-- 100 -->
      <g style="fill: #262626" transform="translate(372.146085 287.922369) scale(0.088 -0.088)">
       <defs>
        <path id="ArialMT-31" d="M 2384 0 
L 1822 0 
L 1822 3584 
Q 1619 3391 1289 3197 
Q 959 3003 697 2906 
L 697 3450 
Q 1169 3672 1522 3987 
Q 1875 4303 2022 4600 
L 2384 4600 
L 2384 0 
z
" transform="scale(0.015625)"/>
       </defs>
       <use xlink:href="#ArialMT-31"/>
       <use xlink:href="#ArialMT-30" x="55.615234"/>
       <use xlink:href="#ArialMT-30" x="111.230469"/>
      </g>
     </g>
    </g>
    <g id="text_7">
     <!-- $t$ -->
     <g style="fill: #262626" transform="translate(215.23925 300.542869) scale(0.096 -0.096)">
      <defs>
       <path id="DejaVuSans-Oblique-74" d="M 2706 3500 
L 2619 3053 
L 1472 3053 
L 1100 1153 
Q 1081 1047 1072 975 
Q 1063 903 1063 863 
Q 1063 663 1183 572 
Q 1303 481 1569 481 
L 2150 481 
L 2053 0 
L 1503 0 
Q 991 0 739 200 
Q 488 400 488 806 
Q 488 878 497 964 
Q 506 1050 525 1153 
L 897 3053 
L 409 3053 
L 500 3500 
L 978 3500 
L 1172 4494 
L 1747 4494 
L 1556 3500 
L 2706 3500 
z
" transform="scale(0.015625)"/>
      </defs>
      <use xlink:href="#DejaVuSans-Oblique-74" transform="translate(0 0.78125)"/>
     </g>
    </g>
   </g>
   <g id="matplotlib.axis_2">
    <g id="ytick_1">
     <g id="line2d_7">
      <defs>
       <path id="m4359b40e31" d="M 0 0 
L -4.8 0 
" style="stroke: #262626"/>
      </defs>
      <g>
       <use xlink:href="#m4359b40e31" x="38.59925" y="261.227494" style="fill: #262626; stroke: #262626"/>
      </g>
     </g>
     <g id="text_8">
      <!-- 0 -->
      <g style="fill: #262626" transform="translate(25.405625 264.376931) scale(0.088 -0.088)">
       <use xlink:href="#ArialMT-30"/>
      </g>
     </g>
    </g>
    <g id="ytick_2">
     <g id="line2d_8">
      <g>
       <use xlink:href="#m4359b40e31" x="38.59925" y="219.414484" style="fill: #262626; stroke: #262626"/>
      </g>
     </g>
     <g id="text_9">
      <!-- 2 -->
      <g style="fill: #262626" transform="translate(25.405625 222.563922) scale(0.088 -0.088)">
       <use xlink:href="#ArialMT-32"/>
      </g>
     </g>
    </g>
    <g id="ytick_3">
     <g id="line2d_9">
      <g>
       <use xlink:href="#m4359b40e31" x="38.59925" y="177.601475" style="fill: #262626; stroke: #262626"/>
      </g>
     </g>
     <g id="text_10">
      <!-- 4 -->
      <g style="fill: #262626" transform="translate(25.405625 180.750913) scale(0.088 -0.088)">
       <use xlink:href="#ArialMT-34"/>
      </g>
     </g>
    </g>
    <g id="ytick_4">
     <g id="line2d_10">
      <g>
       <use xlink:href="#m4359b40e31" x="38.59925" y="135.788466" style="fill: #262626; stroke: #262626"/>
      </g>
     </g>
     <g id="text_11">
      <!-- 6 -->
      <g style="fill: #262626" transform="translate(25.405625 138.937903) scale(0.088 -0.088)">
       <use xlink:href="#ArialMT-36"/>
      </g>
     </g>
    </g>
    <g id="ytick_5">
     <g id="line2d_11">
      <g>
       <use xlink:href="#m4359b40e31" x="38.59925" y="93.975456" style="fill: #262626; stroke: #262626"/>
      </g>
     </g>
     <g id="text_12">
      <!-- 8 -->
      <g style="fill: #262626" transform="translate(25.405625 97.124894) scale(0.088 -0.088)">
       <use xlink:href="#ArialMT-38"/>
      </g>
     </g>
    </g>
    <g id="ytick_6">
     <g id="line2d_12">
      <g>
       <use xlink:href="#m4359b40e31" x="38.59925" y="52.162447" style="fill: #262626; stroke: #262626"/>
      </g>
     </g>
     <g id="text_13">
      <!-- 10 -->
      <g style="fill: #262626" transform="translate(20.512 55.311884) scale(0.088 -0.088)">
       <use xlink:href="#ArialMT-31"/>
       <use xlink:href="#ArialMT-30" x="55.615234"/>
      </g>
     </g>
    </g>
    <g id="ytick_7">
     <g id="line2d_13">
      <g>
       <use xlink:href="#m4359b40e31" x="38.59925" y="10.349437" style="fill: #262626; stroke: #262626"/>
      </g>
     </g>
     <g id="text_14">
      <!-- 12 -->
      <g style="fill: #262626" transform="translate(20.512 13.498875) scale(0.088 -0.088)">
       <use xlink:href="#ArialMT-31"/>
       <use xlink:href="#ArialMT-32" x="55.615234"/>
      </g>
     </g>
    </g>
    <g id="text_15">
     <!-- $y(t)$ -->
     <g style="fill: #262626" transform="translate(14.496 148.763494) rotate(-90) scale(0.096 -0.096)">
      <defs>
       <path id="DejaVuSans-Oblique-79" d="M 1588 -325 
Q 1188 -997 936 -1164 
Q 684 -1331 294 -1331 
L -159 -1331 
L -63 -850 
L 269 -850 
Q 509 -850 678 -719 
Q 847 -588 1056 -206 
L 1234 128 
L 459 3500 
L 1069 3500 
L 1650 819 
L 3256 3500 
L 3859 3500 
L 1588 -325 
z
" transform="scale(0.015625)"/>
       <path id="DejaVuSans-28" d="M 1984 4856 
Q 1566 4138 1362 3434 
Q 1159 2731 1159 2009 
Q 1159 1288 1364 580 
Q 1569 -128 1984 -844 
L 1484 -844 
Q 1016 -109 783 600 
Q 550 1309 550 2009 
Q 550 2706 781 3412 
Q 1013 4119 1484 4856 
L 1984 4856 
z
" transform="scale(0.015625)"/>
       <path id="DejaVuSans-29" d="M 513 4856 
L 1013 4856 
Q 1481 4119 1714 3412 
Q 1947 2706 1947 2009 
Q 1947 1309 1714 600 
Q 1481 -109 1013 -844 
L 513 -844 
Q 928 -128 1133 580 
Q 1338 1288 1338 2009 
Q 1338 2731 1133 3434 
Q 928 4138 513 4856 
z
" transform="scale(0.015625)"/>
      </defs>
      <use xlink:href="#DejaVuSans-Oblique-79" transform="translate(0 0.125)"/>
      <use xlink:href="#DejaVuSans-28" transform="translate(59.179688 0.125)"/>
      <use xlink:href="#DejaVuSans-Oblique-74" transform="translate(98.193359 0.125)"/>
      <use xlink:href="#DejaVuSans-29" transform="translate(137.402344 0.125)"/>
     </g>
    </g>
   </g>
   <g id="PolyCollection_1">
    <defs>
     <path id="m9be0baa89f" d="M 54.831977 -290.343375 
L 54.831977 -209.435835 
L 58.111316 -177.539049 
L 61.390655 -138.948954 
L 64.669994 -110.976382 
L 67.949333 -91.33878 
L 71.228671 -77.733101 
L 74.50801 -68.403186 
L 77.787349 -62.046912 
L 81.066688 -57.80428 
L 84.346027 -54.85848 
L 87.625366 -52.767287 
L 90.904705 -51.372357 
L 94.184043 -50.437856 
L 97.463382 -49.801349 
L 100.742721 -49.362819 
L 104.02206 -49.063635 
L 107.301399 -48.861802 
L 110.580738 -48.723782 
L 113.860076 -48.627608 
L 117.139415 -48.563356 
L 120.418754 -48.519566 
L 123.698093 -48.489428 
L 126.977432 -48.468432 
L 130.256771 -48.454112 
L 133.53611 -48.444354 
L 136.815448 -48.437731 
L 140.094787 -48.433199 
L 143.374126 -48.430073 
L 146.653465 -48.427926 
L 149.932804 -48.426471 
L 153.212143 -48.425481 
L 156.491481 -48.424806 
L 159.77082 -48.424351 
L 163.050159 -48.42404 
L 166.329498 -48.423829 
L 169.608837 -48.423685 
L 172.888176 -48.423587 
L 176.167514 -48.42352 
L 179.446853 -48.423474 
L 182.726192 -48.423443 
L 186.005531 -48.423421 
L 189.28487 -48.423407 
L 192.564209 -48.423397 
L 195.843548 -48.42339 
L 199.122886 -48.423385 
L 202.402225 -48.423382 
L 205.681564 -48.42338 
L 208.960903 -48.423378 
L 212.240242 -48.423377 
L 215.519581 -48.423376 
L 218.798919 -48.423376 
L 222.078258 -48.423376 
L 225.357597 -48.423375 
L 228.636936 -48.423375 
L 231.916275 -48.423375 
L 235.195614 -48.423375 
L 238.474952 -48.423375 
L 241.754291 -48.423375 
L 245.03363 -48.423375 
L 248.312969 -48.423375 
L 251.592308 -48.423375 
L 254.871647 -48.423375 
L 258.150986 -48.423375 
L 261.430324 -48.423375 
L 264.709663 -48.423375 
L 267.989002 -48.423375 
L 271.268341 -48.423375 
L 274.54768 -48.423375 
L 277.827019 -48.423375 
L 281.106357 -48.423375 
L 284.385696 -48.423375 
L 287.665035 -48.423375 
L 290.944374 -48.423375 
L 294.223713 -48.423375 
L 297.503052 -48.423375 
L 300.78239 -48.423375 
L 304.061729 -48.423375 
L 307.341068 -48.423375 
L 310.620407 -48.423375 
L 313.899746 -48.423375 
L 317.179085 -48.423375 
L 320.458424 -48.423375 
L 323.737762 -48.423375 
L 327.017101 -48.423375 
L 330.29644 -48.423375 
L 333.575779 -48.423375 
L 336.855118 -48.423375 
L 340.134457 -48.423375 
L 343.413795 -48.423375 
L 346.693134 -48.423375 
L 349.972473 -48.423375 
L 353.251812 -48.423375 
L 356.531151 -48.423375 
L 359.81049 -48.423375 
L 363.089829 -48.423375 
L 366.369167 -48.423375 
L 369.648506 -48.423375 
L 372.927845 -48.423375 
L 376.207184 -48.423375 
L 379.486523 -48.423375 
L 379.486523 -203.233851 
L 379.486523 -203.233851 
L 376.207184 -203.59094 
L 372.927845 -204.010812 
L 369.648506 -204.306313 
L 366.369167 -204.66566 
L 363.089829 -205.270653 
L 359.81049 -205.756881 
L 356.531151 -206.200698 
L 353.251812 -206.641 
L 349.972473 -207.077326 
L 346.693134 -207.49924 
L 343.413795 -207.93766 
L 340.134457 -208.404809 
L 336.855118 -208.852491 
L 333.575779 -209.140959 
L 330.29644 -209.336871 
L 327.017101 -209.851135 
L 323.737762 -210.066363 
L 320.458424 -210.666699 
L 317.179085 -211.058298 
L 313.899746 -211.551774 
L 310.620407 -211.829877 
L 307.341068 -212.173023 
L 304.061729 -212.682281 
L 300.78239 -213.096831 
L 297.503052 -213.670047 
L 294.223713 -214.150617 
L 290.944374 -214.482092 
L 287.665035 -214.753557 
L 284.385696 -215.075519 
L 281.106357 -215.476838 
L 277.827019 -215.789888 
L 274.54768 -216.346206 
L 271.268341 -216.715772 
L 267.989002 -217.073602 
L 264.709663 -217.541168 
L 261.430324 -218.0554 
L 258.150986 -218.268219 
L 254.871647 -219.028556 
L 251.592308 -219.562321 
L 248.312969 -219.951773 
L 245.03363 -220.634396 
L 241.754291 -221.1782 
L 238.474952 -221.863321 
L 235.195614 -222.412267 
L 231.916275 -222.794718 
L 228.636936 -223.156761 
L 225.357597 -223.604366 
L 222.078258 -223.996287 
L 218.798919 -224.39008 
L 215.519581 -225.056875 
L 212.240242 -225.506429 
L 208.960903 -226.072724 
L 205.681564 -226.900162 
L 202.402225 -227.466917 
L 199.122886 -228.047158 
L 195.843548 -228.619346 
L 192.564209 -229.273379 
L 189.28487 -229.740328 
L 186.005531 -230.131454 
L 182.726192 -230.939191 
L 179.446853 -231.402037 
L 176.167514 -231.917868 
L 172.888176 -232.376877 
L 169.608837 -233.334521 
L 166.329498 -233.847701 
L 163.050159 -234.261921 
L 159.77082 -234.9768 
L 156.491481 -235.49796 
L 153.212143 -235.946103 
L 149.932804 -236.709775 
L 146.653465 -237.389033 
L 143.374126 -237.916576 
L 140.094787 -238.724246 
L 136.815448 -239.308632 
L 133.53611 -240.081824 
L 130.256771 -240.645396 
L 126.977432 -241.290475 
L 123.698093 -242.356344 
L 120.418754 -243.45093 
L 117.139415 -244.272356 
L 113.860076 -244.813847 
L 110.580738 -245.675245 
L 107.301399 -246.760869 
L 104.02206 -247.593475 
L 100.742721 -248.673246 
L 97.463382 -249.335336 
L 94.184043 -250.542523 
L 90.904705 -251.986892 
L 87.625366 -253.505258 
L 84.346027 -255.253348 
L 81.066688 -256.78286 
L 77.787349 -258.764705 
L 74.50801 -261.09462 
L 71.228671 -262.923546 
L 67.949333 -265.082121 
L 64.669994 -268.40718 
L 61.390655 -272.325192 
L 58.111316 -278.514662 
L 54.831977 -290.343375 
z
" style="stroke: #ffffff; stroke-opacity: 0.25; stroke-width: 0.8"/>
    </defs>
    <g clip-path="url(#pae6557d43c)">
     <use xlink:href="#m9be0baa89f" x="0" y="309.650869" style="fill: #1f77b4; fill-opacity: 0.25; stroke: #ffffff; stroke-opacity: 0.25; stroke-width: 0.8"/>
    </g>
   </g>
   <g id="line2d_14">
    <path d="M 54.831977 62.914281 
L 58.111316 79.701652 
L 61.390655 91.959887 
L 64.669994 102.746472 
L 67.949333 113.287851 
L 71.228671 122.893786 
L 74.50801 132.181882 
L 77.787349 140.856095 
L 81.066688 148.675688 
L 84.346027 156.209424 
L 87.625366 163.420665 
L 90.904705 169.836653 
L 94.184043 175.911194 
L 97.463382 181.83866 
L 100.742721 186.984803 
L 104.02206 192.086656 
L 107.301399 196.916096 
L 110.580738 201.23649 
L 113.860076 205.267109 
L 117.139415 209.134238 
L 120.418754 212.729742 
L 123.698093 216.114692 
L 126.977432 219.145608 
L 130.256771 221.987473 
L 133.53611 224.603164 
L 136.815448 227.039753 
L 140.094787 229.346997 
L 143.374126 231.498141 
L 146.653465 233.48984 
L 149.932804 235.355609 
L 153.212143 237.106785 
L 156.491481 238.731593 
L 159.77082 240.221481 
L 163.050159 241.668205 
L 166.329498 243.00548 
L 169.608837 244.237531 
L 172.888176 245.382861 
L 176.167514 246.428052 
L 179.446853 247.434994 
L 182.726192 248.358959 
L 186.005531 249.224491 
L 189.28487 250.022861 
L 192.564209 250.759582 
L 195.843548 251.453522 
L 199.122886 252.107405 
L 202.402225 252.740829 
L 205.681564 253.307619 
L 208.960903 253.838632 
L 212.240242 254.339236 
L 215.519581 254.804399 
L 218.798919 255.246602 
L 222.078258 255.652511 
L 225.357597 256.024508 
L 228.636936 256.373389 
L 231.916275 256.701142 
L 235.195614 257.010052 
L 238.474952 257.2931 
L 241.754291 257.559269 
L 245.03363 257.8069 
L 248.312969 258.037183 
L 251.592308 258.250531 
L 254.871647 258.451769 
L 258.150986 258.641427 
L 261.430324 258.815621 
L 264.709663 258.978055 
L 267.989002 259.131077 
L 271.268341 259.271792 
L 274.54768 259.405897 
L 277.827019 259.531078 
L 281.106357 259.646621 
L 284.385696 259.753447 
L 287.665035 259.852076 
L 290.944374 259.945839 
L 294.223713 260.031038 
L 297.503052 260.11218 
L 300.78239 260.187897 
L 304.061729 260.257754 
L 307.341068 260.322646 
L 310.620407 260.383197 
L 313.899746 260.439633 
L 317.179085 260.492101 
L 320.458424 260.541473 
L 323.737762 260.587501 
L 327.017101 260.630327 
L 330.29644 260.670288 
L 333.575779 260.707575 
L 336.855118 260.742585 
L 340.134457 260.775391 
L 343.413795 260.805977 
L 346.693134 260.834184 
L 349.972473 260.860833 
L 353.251812 260.885052 
L 356.531151 260.907925 
L 359.81049 260.929306 
L 363.089829 260.949252 
L 366.369167 260.967862 
L 369.648506 260.985316 
L 372.927845 261.001641 
L 376.207184 261.016688 
L 379.486523 261.030739 
" clip-path="url(#pae6557d43c)" style="fill: none; stroke: #1f77b4; stroke-width: 1.2; stroke-linecap: round"/>
   </g>
   <g id="patch_3">
    <path d="M 38.59925 261.227494 
L 38.59925 10.349437 
" style="fill: none; stroke: #262626; stroke-linejoin: miter; stroke-linecap: square"/>
   </g>
   <g id="patch_4">
    <path d="M 54.831977 273.323494 
L 379.486523 273.323494 
" style="fill: none; stroke: #262626; stroke-linejoin: miter; stroke-linecap: square"/>
   </g>
   <g id="legend_1">
    <g id="line2d_15">
     <path d="M 274.63125 18.350369 
L 283.43125 18.350369 
L 292.23125 18.350369 
" style="fill: none; stroke: #1f77b4; stroke-width: 1.2; stroke-linecap: round"/>
    </g>
    <g id="text_16">
     <!-- Median -->
     <g style="fill: #262626" transform="translate(299.27125 21.430369) scale(0.088 -0.088)">
      <defs>
       <path id="ArialMT-4d" d="M 475 0 
L 475 4581 
L 1388 4581 
L 2472 1338 
Q 2622 884 2691 659 
Q 2769 909 2934 1394 
L 4031 4581 
L 4847 4581 
L 4847 0 
L 4263 0 
L 4263 3834 
L 2931 0 
L 2384 0 
L 1059 3900 
L 1059 0 
L 475 0 
z
" transform="scale(0.015625)"/>
       <path id="ArialMT-65" d="M 2694 1069 
L 3275 997 
Q 3138 488 2766 206 
Q 2394 -75 1816 -75 
Q 1088 -75 661 373 
Q 234 822 234 1631 
Q 234 2469 665 2931 
Q 1097 3394 1784 3394 
Q 2450 3394 2872 2941 
Q 3294 2488 3294 1666 
Q 3294 1616 3291 1516 
L 816 1516 
Q 847 969 1125 678 
Q 1403 388 1819 388 
Q 2128 388 2347 550 
Q 2566 713 2694 1069 
z
M 847 1978 
L 2700 1978 
Q 2663 2397 2488 2606 
Q 2219 2931 1791 2931 
Q 1403 2931 1139 2672 
Q 875 2413 847 1978 
z
" transform="scale(0.015625)"/>
       <path id="ArialMT-64" d="M 2575 0 
L 2575 419 
Q 2259 -75 1647 -75 
Q 1250 -75 917 144 
Q 584 363 401 755 
Q 219 1147 219 1656 
Q 219 2153 384 2558 
Q 550 2963 881 3178 
Q 1213 3394 1622 3394 
Q 1922 3394 2156 3267 
Q 2391 3141 2538 2938 
L 2538 4581 
L 3097 4581 
L 3097 0 
L 2575 0 
z
M 797 1656 
Q 797 1019 1065 703 
Q 1334 388 1700 388 
Q 2069 388 2326 689 
Q 2584 991 2584 1609 
Q 2584 2291 2321 2609 
Q 2059 2928 1675 2928 
Q 1300 2928 1048 2622 
Q 797 2316 797 1656 
z
" transform="scale(0.015625)"/>
       <path id="ArialMT-69" d="M 425 3934 
L 425 4581 
L 988 4581 
L 988 3934 
L 425 3934 
z
M 425 0 
L 425 3319 
L 988 3319 
L 988 0 
L 425 0 
z
" transform="scale(0.015625)"/>
       <path id="ArialMT-61" d="M 2588 409 
Q 2275 144 1986 34 
Q 1697 -75 1366 -75 
Q 819 -75 525 192 
Q 231 459 231 875 
Q 231 1119 342 1320 
Q 453 1522 633 1644 
Q 813 1766 1038 1828 
Q 1203 1872 1538 1913 
Q 2219 1994 2541 2106 
Q 2544 2222 2544 2253 
Q 2544 2597 2384 2738 
Q 2169 2928 1744 2928 
Q 1347 2928 1158 2789 
Q 969 2650 878 2297 
L 328 2372 
Q 403 2725 575 2942 
Q 747 3159 1072 3276 
Q 1397 3394 1825 3394 
Q 2250 3394 2515 3294 
Q 2781 3194 2906 3042 
Q 3031 2891 3081 2659 
Q 3109 2516 3109 2141 
L 3109 1391 
Q 3109 606 3145 398 
Q 3181 191 3288 0 
L 2700 0 
Q 2613 175 2588 409 
z
M 2541 1666 
Q 2234 1541 1622 1453 
Q 1275 1403 1131 1340 
Q 988 1278 909 1158 
Q 831 1038 831 891 
Q 831 666 1001 516 
Q 1172 366 1500 366 
Q 1825 366 2078 508 
Q 2331 650 2450 897 
Q 2541 1088 2541 1459 
L 2541 1666 
z
" transform="scale(0.015625)"/>
       <path id="ArialMT-6e" d="M 422 0 
L 422 3319 
L 928 3319 
L 928 2847 
Q 1294 3394 1984 3394 
Q 2284 3394 2536 3286 
Q 2788 3178 2913 3003 
Q 3038 2828 3088 2588 
Q 3119 2431 3119 2041 
L 3119 0 
L 2556 0 
L 2556 2019 
Q 2556 2363 2490 2533 
Q 2425 2703 2258 2804 
Q 2091 2906 1866 2906 
Q 1506 2906 1245 2678 
Q 984 2450 984 1813 
L 984 0 
L 422 0 
z
" transform="scale(0.015625)"/>
      </defs>
      <use xlink:href="#ArialMT-4d"/>
      <use xlink:href="#ArialMT-65" x="83.300781"/>
      <use xlink:href="#ArialMT-64" x="138.916016"/>
      <use xlink:href="#ArialMT-69" x="194.53125"/>
      <use xlink:href="#ArialMT-61" x="216.748047"/>
      <use xlink:href="#ArialMT-6e" x="272.363281"/>
     </g>
    </g>
    <g id="patch_5">
     <path d="M 274.63125 33.985494 
L 292.23125 33.985494 
L 292.23125 27.825494 
L 274.63125 27.825494 
z
" style="fill: #1f77b4; fill-opacity: 0.25; stroke: #ffffff; stroke-opacity: 0.25; stroke-width: 0.8; stroke-linejoin: miter"/>
    </g>
    <g id="text_17">
     <!-- 95% predictive interval -->
     <g style="fill: #262626" transform="translate(299.27125 33.985494) scale(0.088 -0.088)">
      <defs>
       <path id="ArialMT-39" d="M 350 1059 
L 891 1109 
Q 959 728 1153 556 
Q 1347 384 1650 384 
Q 1909 384 2104 503 
Q 2300 622 2425 820 
Q 2550 1019 2634 1356 
Q 2719 1694 2719 2044 
Q 2719 2081 2716 2156 
Q 2547 1888 2255 1720 
Q 1963 1553 1622 1553 
Q 1053 1553 659 1965 
Q 266 2378 266 3053 
Q 266 3750 677 4175 
Q 1088 4600 1706 4600 
Q 2153 4600 2523 4359 
Q 2894 4119 3086 3673 
Q 3278 3228 3278 2384 
Q 3278 1506 3087 986 
Q 2897 466 2520 194 
Q 2144 -78 1638 -78 
Q 1100 -78 759 220 
Q 419 519 350 1059 
z
M 2653 3081 
Q 2653 3566 2395 3850 
Q 2138 4134 1775 4134 
Q 1400 4134 1122 3828 
Q 844 3522 844 3034 
Q 844 2597 1108 2323 
Q 1372 2050 1759 2050 
Q 2150 2050 2401 2323 
Q 2653 2597 2653 3081 
z
" transform="scale(0.015625)"/>
       <path id="ArialMT-35" d="M 266 1200 
L 856 1250 
Q 922 819 1161 601 
Q 1400 384 1738 384 
Q 2144 384 2425 690 
Q 2706 997 2706 1503 
Q 2706 1984 2436 2262 
Q 2166 2541 1728 2541 
Q 1456 2541 1237 2417 
Q 1019 2294 894 2097 
L 366 2166 
L 809 4519 
L 3088 4519 
L 3088 3981 
L 1259 3981 
L 1013 2750 
Q 1425 3038 1878 3038 
Q 2478 3038 2890 2622 
Q 3303 2206 3303 1553 
Q 3303 931 2941 478 
Q 2500 -78 1738 -78 
Q 1113 -78 717 272 
Q 322 622 266 1200 
z
" transform="scale(0.015625)"/>
       <path id="ArialMT-25" d="M 372 3481 
Q 372 3972 619 4315 
Q 866 4659 1334 4659 
Q 1766 4659 2048 4351 
Q 2331 4044 2331 3447 
Q 2331 2866 2045 2552 
Q 1759 2238 1341 2238 
Q 925 2238 648 2547 
Q 372 2856 372 3481 
z
M 1350 4272 
Q 1141 4272 1002 4090 
Q 863 3909 863 3425 
Q 863 2984 1003 2804 
Q 1144 2625 1350 2625 
Q 1563 2625 1702 2806 
Q 1841 2988 1841 3469 
Q 1841 3913 1700 4092 
Q 1559 4272 1350 4272 
z
M 1353 -169 
L 3859 4659 
L 4316 4659 
L 1819 -169 
L 1353 -169 
z
M 3334 1075 
Q 3334 1569 3581 1911 
Q 3828 2253 4300 2253 
Q 4731 2253 5014 1945 
Q 5297 1638 5297 1041 
Q 5297 459 5011 145 
Q 4725 -169 4303 -169 
Q 3888 -169 3611 142 
Q 3334 453 3334 1075 
z
M 4316 1866 
Q 4103 1866 3964 1684 
Q 3825 1503 3825 1019 
Q 3825 581 3965 400 
Q 4106 219 4313 219 
Q 4528 219 4667 400 
Q 4806 581 4806 1063 
Q 4806 1506 4665 1686 
Q 4525 1866 4316 1866 
z
" transform="scale(0.015625)"/>
       <path id="ArialMT-20" transform="scale(0.015625)"/>
       <path id="ArialMT-70" d="M 422 -1272 
L 422 3319 
L 934 3319 
L 934 2888 
Q 1116 3141 1344 3267 
Q 1572 3394 1897 3394 
Q 2322 3394 2647 3175 
Q 2972 2956 3137 2557 
Q 3303 2159 3303 1684 
Q 3303 1175 3120 767 
Q 2938 359 2589 142 
Q 2241 -75 1856 -75 
Q 1575 -75 1351 44 
Q 1128 163 984 344 
L 984 -1272 
L 422 -1272 
z
M 931 1641 
Q 931 1000 1190 694 
Q 1450 388 1819 388 
Q 2194 388 2461 705 
Q 2728 1022 2728 1688 
Q 2728 2322 2467 2637 
Q 2206 2953 1844 2953 
Q 1484 2953 1207 2617 
Q 931 2281 931 1641 
z
" transform="scale(0.015625)"/>
       <path id="ArialMT-72" d="M 416 0 
L 416 3319 
L 922 3319 
L 922 2816 
Q 1116 3169 1280 3281 
Q 1444 3394 1641 3394 
Q 1925 3394 2219 3213 
L 2025 2691 
Q 1819 2813 1613 2813 
Q 1428 2813 1281 2702 
Q 1134 2591 1072 2394 
Q 978 2094 978 1738 
L 978 0 
L 416 0 
z
" transform="scale(0.015625)"/>
       <path id="ArialMT-63" d="M 2588 1216 
L 3141 1144 
Q 3050 572 2676 248 
Q 2303 -75 1759 -75 
Q 1078 -75 664 370 
Q 250 816 250 1647 
Q 250 2184 428 2587 
Q 606 2991 970 3192 
Q 1334 3394 1763 3394 
Q 2303 3394 2647 3120 
Q 2991 2847 3088 2344 
L 2541 2259 
Q 2463 2594 2264 2762 
Q 2066 2931 1784 2931 
Q 1359 2931 1093 2626 
Q 828 2322 828 1663 
Q 828 994 1084 691 
Q 1341 388 1753 388 
Q 2084 388 2306 591 
Q 2528 794 2588 1216 
z
" transform="scale(0.015625)"/>
       <path id="ArialMT-74" d="M 1650 503 
L 1731 6 
Q 1494 -44 1306 -44 
Q 1000 -44 831 53 
Q 663 150 594 308 
Q 525 466 525 972 
L 525 2881 
L 113 2881 
L 113 3319 
L 525 3319 
L 525 4141 
L 1084 4478 
L 1084 3319 
L 1650 3319 
L 1650 2881 
L 1084 2881 
L 1084 941 
Q 1084 700 1114 631 
Q 1144 563 1211 522 
Q 1278 481 1403 481 
Q 1497 481 1650 503 
z
" transform="scale(0.015625)"/>
       <path id="ArialMT-76" d="M 1344 0 
L 81 3319 
L 675 3319 
L 1388 1331 
Q 1503 1009 1600 663 
Q 1675 925 1809 1294 
L 2547 3319 
L 3125 3319 
L 1869 0 
L 1344 0 
z
" transform="scale(0.015625)"/>
       <path id="ArialMT-6c" d="M 409 0 
L 409 4581 
L 972 4581 
L 972 0 
L 409 0 
z
" transform="scale(0.015625)"/>
      </defs>
      <use xlink:href="#ArialMT-39"/>
      <use xlink:href="#ArialMT-35" x="55.615234"/>
      <use xlink:href="#ArialMT-25" x="111.230469"/>
      <use xlink:href="#ArialMT-20" x="200.146484"/>
      <use xlink:href="#ArialMT-70" x="227.929688"/>
      <use xlink:href="#ArialMT-72" x="283.544922"/>
      <use xlink:href="#ArialMT-65" x="316.845703"/>
      <use xlink:href="#ArialMT-64" x="372.460938"/>
      <use xlink:href="#ArialMT-69" x="428.076172"/>
      <use xlink:href="#ArialMT-63" x="450.292969"/>
      <use xlink:href="#ArialMT-74" x="500.292969"/>
      <use xlink:href="#ArialMT-69" x="528.076172"/>
      <use xlink:href="#ArialMT-76" x="550.292969"/>
      <use xlink:href="#ArialMT-65" x="600.292969"/>
      <use xlink:href="#ArialMT-20" x="655.908203"/>
      <use xlink:href="#ArialMT-69" x="683.691406"/>
      <use xlink:href="#ArialMT-6e" x="705.908203"/>
      <use xlink:href="#ArialMT-74" x="761.523438"/>
      <use xlink:href="#ArialMT-65" x="789.306641"/>
      <use xlink:href="#ArialMT-72" x="844.921875"/>
      <use xlink:href="#ArialMT-76" x="878.222656"/>
      <use xlink:href="#ArialMT-61" x="928.222656"/>
      <use xlink:href="#ArialMT-6c" x="983.837891"/>
     </g>
    </g>
   </g>
  </g>
 </g>
 <defs>
  <clipPath id="pae6557d43c">
   <rect x="38.59925" y="7.211494" width="357.12" height="266.112"/>
  </clipPath>
 </defs>
</svg>