<?xml version="1.0" encoding="utf-8" standalone="no"?>
<!DOCTYPE svg PUBLIC "-//W3C//DTD SVG 1.1//EN"
  "http://www.w3.org/Graphics/SVG/1.1/DTD/svg11.dtd">
<svg xmlns:xlink="http://www.w3.org/1999/xlink" width="445.848625pt" height="322.539375pt" viewBox="0 0 445.848625 322.539375" xmlns="http://www.w3.org/2000/svg" version="1.1">
 <metadata>
  <rdf:RDF xmlns:dc="http://purl.org/dc/elements/1.1/" xmlns:cc="http://creativecommons.org/ns#" xmlns:rdf="http://www.w3.org/1999/02/22-rdf-syntax-ns#">
   <cc:Work>
    <dc:type rdf:resource="http://purl.org/dc/dcmitype/StillImage"/>
    <dc:date>2023-10-23T15:18:34.169848</dc:date>
    <dc:format>image/svg+xml</dc:format>
    <dc:creator>
     <cc:Agent>
      <dc:title>Matplotlib v3.8.0, https://matplotlib.org/</dc:title>
     </cc:Agent>
    </dc:creator>
   </cc:Work>
  </rdf:RDF>
 </metadata>
 <defs>
  <style type="text/css">*{stroke-linejoin: round; stroke-linecap: butt}</style>
 </defs>
 <g id="figure_1">
  <g id="patch_1">
   <path d="M 0 322.539375 
L 445.848625 322.539375 
L 445.848625 0 
L 0 0 
z
" style="fill: #ffffff"/>
  </g>
  <g id="axes_1">
   <g id="patch_2">
    <path d="M 43.2065 286.212 
L 400.3265 286.212 
L 400.3265 20.1 
L 43.2065 20.1 
z
" style="fill: #ffffff"/>
   </g>
   <g id="matplotlib.axis_1">
    <g id="xtick_1">
     <g id="line2d_1">
      <defs>
       <path id="m25197b5681" d="M 0 0 
L 0 4.8 
" style="stroke: #262626"/>
      </defs>
      <g>
       <use xlink:href="#m25197b5681" x="59.439227" y="286.212" style="fill: #262626; stroke: #262626"/>
      </g>
     </g>
     <g id="text_1">
      <!-- 0.0 -->
      <g style="fill: #262626" transform="translate(53.323227 300.810875) scale(0.088 -0.088)">
       <defs>
        <path id="ArialMT-30" d="M 266 2259 
Q 266 3072 433 3567 
Q 600 4063 929 4331 
Q 1259 4600 1759 4600 
Q 2128 4600 2406 4451 
Q 2684 4303 2865 4023 
Q 3047 3744 3150 3342 
Q 3253 2941 3253 2259 
Q 3253 1453 3087 958 
Q 2922 463 2592 192 
Q 2263 -78 1759 -78 
Q 1097 -78 719 397 
Q 266 969 266 2259 
z
M 844 2259 
Q 844 1131 1108 757 
Q 1372 384 1759 384 
Q 2147 384 2411 759 
Q 2675 1134 2675 2259 
Q 2675 3391 2411 3762 
Q 2147 4134 1753 4134 
Q 1366 4134 1134 3806 
Q 844 3388 844 2259 
z
" transform="scale(0.015625)"/>
        <path id="ArialMT-2e" d="M 581 0 
L 581 641 
L 1222 641 
L 1222 0 
L 581 0 
z
" transform="scale(0.015625)"/>
       </defs>
       <use xlink:href="#ArialMT-30"/>
       <use xlink:href="#ArialMT-2e" x="55.615234"/>
       <use xlink:href="#ArialMT-30" x="83.398438"/>
      </g>
     </g>
    </g>
    <g id="xtick_2">
     <g id="line2d_2">
      <g>
       <use xlink:href="#m25197b5681" x="124.370136" y="286.212" style="fill: #262626; stroke: #262626"/>
      </g>
     </g>
     <g id="text_2">
      <!-- 0.2 -->
      <g style="fill: #262626" transform="translate(118.254136 300.810875) scale(0.088 -0.088)">
       <defs>
        <path id="ArialMT-32" d="M 3222 541 
L 3222 0 
L 194 0 
Q 188 203 259 391 
Q 375 700 629 1000 
Q 884 1300 1366 1694 
Q 2113 2306 2375 2664 
Q 2638 3022 2638 3341 
Q 2638 3675 2398 3904 
Q 2159 4134 1775 4134 
Q 1369 4134 1125 3890 
Q 881 3647 878 3216 
L 300 3275 
Q 359 3922 746 4261 
Q 1134 4600 1788 4600 
Q 2447 4600 2831 4234 
Q 3216 3869 3216 3328 
Q 3216 3053 3103 2787 
Q 2991 2522 2730 2228 
Q 2469 1934 1863 1422 
Q 1356 997 1212 845 
Q 1069 694 975 541 
L 3222 541 
z
" transform="scale(0.015625)"/>
       </defs>
       <use xlink:href="#ArialMT-30"/>
       <use xlink:href="#ArialMT-2e" x="55.615234"/>
       <use xlink:href="#ArialMT-32" x="83.398438"/>
      </g>
     </g>
    </g>
    <g id="xtick_3">
     <g id="line2d_3">
      <g>
       <use xlink:href="#m25197b5681" x="189.301045" y="286.212" style="fill: #262626; stroke: #262626"/>
      </g>
     </g>
     <g id="text_3">
      <!-- 0.4 -->
      <g style="fill: #262626" transform="translate(183.185045 300.810875) scale(0.088 -0.088)">
       <defs>
        <path id="ArialMT-34" d="M 2069 0 
L 2069 1097 
L 81 1097 
L 81 1613 
L 2172 4581 
L 2631 4581 
L 2631 1613 
L 3250 1613 
L 3250 1097 
L 2631 1097 
L 2631 0 
L 2069 0 
z
M 2069 1613 
L 2069 3678 
L 634 1613 
L 2069 1613 
z
" transform="scale(0.015625)"/>
       </defs>
       <use xlink:href="#ArialMT-30"/>
       <use xlink:href="#ArialMT-2e" x="55.615234"/>
       <use xlink:href="#ArialMT-34" x="83.398438"/>
      </g>
     </g>
    </g>
    <g id="xtick_4">
     <g id="line2d_4">
      <g>
       <use xlink:href="#m25197b5681" x="254.231955" y="286.212" style="fill: #262626; stroke: #262626"/>
      </g>
     </g>
     <g id="text_4">
      <!-- 0.6 -->
      <g style="fill: #262626" transform="translate(248.115955 300.810875) scale(0.088 -0.088)">
       <defs>
        <path id="ArialMT-36" d="M 3184 3459 
L 2625 3416 
Q 2550 3747 2413 3897 
Q 2184 4138 1850 4138 
Q 1581 4138 1378 3988 
Q 1113 3794 959 3422 
Q 806 3050 800 2363 
Q 1003 2672 1297 2822 
Q 1591 2972 1913 2972 
Q 2475 2972 2870 2558 
Q 3266 2144 3266 1488 
Q 3266 1056 3080 686 
Q 2894 316 2569 119 
Q 2244 -78 1831 -78 
Q 1128 -78 684 439 
Q 241 956 241 2144 
Q 241 3472 731 4075 
Q 1159 4600 1884 4600 
Q 2425 4600 2770 4297 
Q 3116 3994 3184 3459 
z
M 888 1484 
Q 888 1194 1011 928 
Q 1134 663 1356 523 
Q 1578 384 1822 384 
Q 2178 384 2434 671 
Q 2691 959 2691 1453 
Q 2691 1928 2437 2201 
Q 2184 2475 1800 2475 
Q 1419 2475 1153 2201 
Q 888 1928 888 1484 
z
" transform="scale(0.015625)"/>
       </defs>
       <use xlink:href="#ArialMT-30"/>
       <use xlink:href="#ArialMT-2e" x="55.615234"/>
       <use xlink:href="#ArialMT-36" x="83.398438"/>
      </g>
     </g>
    </g>
    <g id="xtick_5">
     <g id="line2d_5">
      <g>
       <use xlink:href="#m25197b5681" x="319.162864" y="286.212" style="fill: #262626; stroke: #262626"/>
      </g>
     </g>
     <g id="text_5">
      <!-- 0.8 -->
      <g style="fill: #262626" transform="translate(313.046864 300.810875) scale(0.088 -0.088)">
       <defs>
        <path id="ArialMT-38" d="M 1131 2484 
Q 781 2613 612 2850 
Q 444 3088 444 3419 
Q 444 3919 803 4259 
Q 1163 4600 1759 4600 
Q 2359 4600 2725 4251 
Q 3091 3903 3091 3403 
Q 3091 3084 2923 2848 
Q 2756 2613 2416 2484 
Q 2838 2347 3058 2040 
Q 3278 1734 3278 1309 
Q 3278 722 2862 322 
Q 2447 -78 1769 -78 
Q 1091 -78 675 323 
Q 259 725 259 1325 
Q 259 1772 486 2073 
Q 713 2375 1131 2484 
z
M 1019 3438 
Q 1019 3113 1228 2906 
Q 1438 2700 1772 2700 
Q 2097 2700 2305 2904 
Q 2513 3109 2513 3406 
Q 2513 3716 2298 3927 
Q 2084 4138 1766 4138 
Q 1444 4138 1231 3931 
Q 1019 3725 1019 3438 
z
M 838 1322 
Q 838 1081 952 856 
Q 1066 631 1291 507 
Q 1516 384 1775 384 
Q 2178 384 2440 643 
Q 2703 903 2703 1303 
Q 2703 1709 2433 1975 
Q 2163 2241 1756 2241 
Q 1359 2241 1098 1978 
Q 838 1716 838 1322 
z
" transform="scale(0.015625)"/>
       </defs>
       <use xlink:href="#ArialMT-30"/>
       <use xlink:href="#ArialMT-2e" x="55.615234"/>
       <use xlink:href="#ArialMT-38" x="83.398438"/>
      </g>
     </g>
    </g>
    <g id="xtick_6">
     <g id="line2d_6">
      <g>
       <use xlink:href="#m25197b5681" x="384.093773" y="286.212" style="fill: #262626; stroke: #262626"/>
      </g>
     </g>
     <g id="text_6">
      <!-- 1.0 -->
      <g style="fill: #262626" transform="translate(377.977773 300.810875) scale(0.088 -0.088)">
       <defs>
        <path id="ArialMT-31" d="M 2384 0 
L 1822 0 
L 1822 3584 
Q 1619 3391 1289 3197 
Q 959 3003 697 2906 
L 697 3450 
Q 1169 3672 1522 3987 
Q 1875 4303 2022 4600 
L 2384 4600 
L 2384 0 
z
" transform="scale(0.015625)"/>
       </defs>
       <use xlink:href="#ArialMT-31"/>
       <use xlink:href="#ArialMT-2e" x="55.615234"/>
       <use xlink:href="#ArialMT-30" x="83.398438"/>
      </g>
     </g>
    </g>
    <g id="text_7">
     <!-- $x$ -->
     <g style="fill: #262626" transform="translate(218.8865 313.431375) scale(0.096 -0.096)">
      <defs>
       <path id="DejaVuSans-Oblique-78" d="M 3841 3500 
L 2234 1784 
L 3219 0 
L 2559 0 
L 1819 1388 
L 531 0 
L -166 0 
L 1556 1844 
L 641 3500 
L 1300 3500 
L 1972 2234 
L 3144 3500 
L 3841 3500 
z
" transform="scale(0.015625)"/>
      </defs>
      <use xlink:href="#DejaVuSans-Oblique-78" transform="translate(0 0.3125)"/>
     </g>
    </g>
   </g>
   <g id="matplotlib.axis_2">
    <g id="ytick_1">
     <g id="line2d_7">
      <defs>
       <path id="mb6dc1e0ef1" d="M 0 0 
L -4.8 0 
" style="stroke: #262626"/>
      </defs>
      <g>
       <use xlink:href="#mb6dc1e0ef1" x="43.2065" y="250.415383" style="fill: #262626; stroke: #262626"/>
      </g>
     </g>
     <g id="text_8">
      <!-- −10 -->
      <g style="fill: #262626" transform="translate(19.9795 253.564821) scale(0.088 -0.088)">
       <defs>
        <path id="ArialMT-2212" d="M 3381 1997 
L 356 1997 
L 356 2522 
L 3381 2522 
L 3381 1997 
z
" transform="scale(0.015625)"/>
       </defs>
       <use xlink:href="#ArialMT-2212"/>
       <use xlink:href="#ArialMT-31" x="58.398438"/>
       <use xlink:href="#ArialMT-30" x="114.013672"/>
      </g>
     </g>
    </g>
    <g id="ytick_2">
     <g id="line2d_8">
      <g>
       <use xlink:href="#mb6dc1e0ef1" x="43.2065" y="214.205704" style="fill: #262626; stroke: #262626"/>
      </g>
     </g>
     <g id="text_9">
      <!-- −8 -->
      <g style="fill: #262626" transform="translate(24.873125 217.355142) scale(0.088 -0.088)">
       <use xlink:href="#ArialMT-2212"/>
       <use xlink:href="#ArialMT-38" x="58.398438"/>
      </g>
     </g>
    </g>
    <g id="ytick_3">
     <g id="line2d_9">
      <g>
       <use xlink:href="#mb6dc1e0ef1" x="43.2065" y="177.996025" style="fill: #262626; stroke: #262626"/>
      </g>
     </g>
     <g id="text_10">
      <!-- −6 -->
      <g style="fill: #262626" transform="translate(24.873125 181.145463) scale(0.088 -0.088)">
       <use xlink:href="#ArialMT-2212"/>
       <use xlink:href="#ArialMT-36" x="58.398438"/>
      </g>
     </g>
    </g>
    <g id="ytick_4">
     <g id="line2d_10">
      <g>
       <use xlink:href="#mb6dc1e0ef1" x="43.2065" y="141.786346" style="fill: #262626; stroke: #262626"/>
      </g>
     </g>
     <g id="text_11">
      <!-- −4 -->
      <g style="fill: #262626" transform="translate(24.873125 144.935783) scale(0.088 -0.088)">
       <use xlink:href="#ArialMT-2212"/>
       <use xlink:href="#ArialMT-34" x="58.398438"/>
      </g>
     </g>
    </g>
    <g id="ytick_5">
     <g id="line2d_11">
      <g>
       <use xlink:href="#mb6dc1e0ef1" x="43.2065" y="105.576667" style="fill: #262626; stroke: #262626"/>
      </g>
     </g>
     <g id="text_12">
      <!-- −2 -->
      <g style="fill: #262626" transform="translate(24.873125 108.726104) scale(0.088 -0.088)">
       <use xlink:href="#ArialMT-2212"/>
       <use xlink:href="#ArialMT-32" x="58.398438"/>
      </g>
     </g>
    </g>
    <g id="ytick_6">
     <g id="line2d_12">
      <g>
       <use xlink:href="#mb6dc1e0ef1" x="43.2065" y="69.366988" style="fill: #262626; stroke: #262626"/>
      </g>
     </g>
     <g id="text_13">
      <!-- 0 -->
      <g style="fill: #262626" transform="translate(30.012875 72.516425) scale(0.088 -0.088)">
       <use xlink:href="#ArialMT-30"/>
      </g>
     </g>
    </g>
    <g id="ytick_7">
     <g id="line2d_13">
      <g>
       <use xlink:href="#mb6dc1e0ef1" x="43.2065" y="33.157309" style="fill: #262626; stroke: #262626"/>
      </g>
     </g>
     <g id="text_14">
      <!-- 2 -->
      <g style="fill: #262626" transform="translate(30.012875 36.306746) scale(0.088 -0.088)">
       <use xlink:href="#ArialMT-32"/>
      </g>
     </g>
    </g>
    <g id="text_15">
     <!-- $y$ -->
     <g style="fill: #262626" transform="translate(13.9635 156.036) rotate(-90) scale(0.096 -0.096)">
      <defs>
       <path id="DejaVuSans-Oblique-79" d="M 1588 -325 
Q 1188 -997 936 -1164 
Q 684 -1331 294 -1331 
L -159 -1331 
L -63 -850 
L 269 -850 
Q 509 -850 678 -719 
Q 847 -588 1056 -206 
L 1234 128 
L 459 3500 
L 1069 3500 
L 1650 819 
L 3256 3500 
L 3859 3500 
L 1588 -325 
z
" transform="scale(0.015625)"/>
      </defs>
      <use xlink:href="#DejaVuSans-Oblique-79" transform="translate(0 0.3125)"/>
     </g>
    </g>
   </g>
   <g id="PolyCollection_1">
    <defs>
     <path id="m9e01f8f8fd" d="M 59.439227 -290.220941 
L 59.439227 -183.252093 
L 62.718566 -185.300114 
L 65.997905 -187.635926 
L 69.277244 -190.255896 
L 72.556583 -193.150082 
L 75.835921 -196.301948 
L 79.115261 -199.688352 
L 82.394598 -203.279696 
L 85.673938 -207.040279 
L 88.953278 -210.929041 
L 92.232615 -214.899476 
L 95.511955 -218.90102 
L 98.791295 -222.879074 
L 102.070632 -226.774732 
L 105.349969 -230.524939 
L 108.629311 -234.057976 
L 111.908649 -237.287017 
L 115.187986 -240.098848 
L 118.467328 -242.35586 
L 121.746666 -243.98497 
L 125.026003 -245.105458 
L 128.305345 -245.944541 
L 131.584682 -246.657394 
L 134.86402 -247.304276 
L 138.143362 -247.888897 
L 141.422694 -248.390188 
L 144.702037 -248.768726 
L 147.981379 -248.970442 
L 151.260711 -248.911522 
L 154.540053 -248.456041 
L 157.819395 -247.417515 
L 161.098728 -245.673 
L 164.37807 -243.261053 
L 167.657412 -240.294451 
L 170.936745 -236.870821 
L 174.216087 -233.064643 
L 177.495429 -228.937738 
L 180.774762 -224.548546 
L 184.054104 -219.955018 
L 187.333446 -215.215053 
L 190.612778 -210.386846 
L 193.892121 -205.52658 
L 197.171463 -200.687654 
L 200.450795 -195.918523 
L 203.730137 -191.261155 
L 207.00948 -186.749626 
L 210.288812 -182.408979 
L 213.568154 -178.254285 
L 216.847496 -174.290277 
L 220.126829 -170.510991 
L 223.406181 -166.899851 
L 226.685504 -163.429352 
L 229.964846 -160.058815 
L 233.244188 -156.727542 
L 236.523511 -153.325667 
L 239.802872 -149.565469 
L 243.082195 -144.463011 
L 246.361537 -136.791751 
L 249.640879 -127.679823 
L 252.920222 -118.157739 
L 256.199564 -108.598671 
L 259.478887 -99.211668 
L 262.758248 -90.167502 
L 266.037571 -81.628128 
L 269.316913 -73.752066 
L 272.596255 -66.695299 
L 275.875578 -60.608715 
L 279.15494 -55.636159 
L 282.434262 -51.909163 
L 285.713605 -49.543894 
L 288.992947 -48.638597 
L 292.272289 -49.266911 
L 295.551631 -51.476129 
L 298.830954 -55.285294 
L 302.110315 -60.679057 
L 305.389638 -67.609246 
L 308.66898 -75.992069 
L 311.948322 -85.709545 
L 315.227645 -96.608162 
L 318.507007 -108.504441 
L 321.78633 -121.185172 
L 325.065672 -134.412074 
L 328.345014 -147.928977 
L 331.624356 -161.461092 
L 334.903698 -174.726022 
L 338.183021 -187.432544 
L 341.462363 -199.283612 
L 344.741705 -209.976784 
L 348.021048 -219.221104 
L 351.30039 -226.817038 
L 354.579713 -232.719101 
L 357.859055 -236.953974 
L 361.138397 -239.541002 
L 364.417739 -240.495242 
L 367.697081 -239.827703 
L 370.976423 -237.580675 
L 374.255766 -233.796886 
L 377.535088 -228.514095 
L 380.814431 -221.738241 
L 384.093773 -213.46195 
L 384.093773 -220.570656 
L 384.093773 -220.570656 
L 380.814431 -228.067862 
L 377.535088 -234.776987 
L 374.255766 -240.319915 
L 370.976423 -244.386548 
L 367.697081 -246.77789 
L 364.417739 -247.384729 
L 361.138397 -246.170344 
L 357.859055 -243.171437 
L 354.579713 -238.504451 
L 351.30039 -232.383493 
L 348.021048 -225.109015 
L 344.741705 -216.968974 
L 341.462363 -208.161653 
L 338.183021 -198.845838 
L 334.903698 -189.19204 
L 331.624356 -179.398001 
L 328.345014 -169.671685 
L 325.065672 -160.212769 
L 321.78633 -151.215272 
L 318.507007 -142.844597 
L 315.227645 -135.245078 
L 311.948322 -128.530318 
L 308.66898 -122.780665 
L 305.389638 -118.047866 
L 302.110315 -114.350145 
L 298.830954 -111.678412 
L 295.551631 -109.995008 
L 292.272289 -109.24262 
L 288.992947 -109.341339 
L 285.713605 -110.200087 
L 282.434262 -111.718236 
L 279.15494 -113.788729 
L 275.875578 -116.305939 
L 272.596255 -119.168179 
L 269.316913 -122.280328 
L 266.037571 -125.559423 
L 262.758248 -128.935986 
L 259.478887 -132.357621 
L 256.199564 -135.792915 
L 252.920222 -139.241157 
L 249.640879 -142.762021 
L 246.361537 -146.603224 
L 243.082195 -151.692991 
L 239.802872 -159.079843 
L 236.523511 -167.478758 
L 233.244188 -175.865586 
L 229.964846 -183.929261 
L 226.685504 -191.549767 
L 223.406181 -198.667056 
L 220.126829 -205.249135 
L 216.847496 -211.281835 
L 213.568154 -216.764873 
L 210.288812 -221.708515 
L 207.00948 -226.132024 
L 203.730137 -230.061771 
L 200.450795 -233.529452 
L 197.171463 -236.570321 
L 193.892121 -239.221896 
L 190.612778 -241.5222 
L 187.333446 -243.508726 
L 184.054104 -245.216967 
L 180.774762 -246.680246 
L 177.495429 -247.928909 
L 174.216087 -248.991845 
L 170.936745 -249.898316 
L 167.657412 -250.682302 
L 164.37807 -251.3936 
L 161.098728 -252.109082 
L 157.819395 -252.926713 
L 154.540053 -253.876744 
L 151.260711 -254.835703 
L 147.981379 -255.624791 
L 144.702037 -256.124503 
L 141.422694 -256.276181 
L 138.143362 -256.059323 
L 134.86402 -255.476374 
L 131.584682 -254.555199 
L 128.305345 -253.354551 
L 125.026003 -251.995242 
L 121.746666 -250.696195 
L 118.467328 -249.750616 
L 115.187986 -249.344207 
L 111.908649 -249.469879 
L 108.629311 -250.052835 
L 105.349969 -251.039179 
L 102.070632 -252.396208 
L 98.791295 -254.100043 
L 95.511955 -256.128503 
L 92.232615 -258.455665 
L 88.953278 -261.05201 
L 85.673938 -263.883947 
L 82.394598 -266.913593 
L 79.115261 -270.100901 
L 75.835921 -273.404059 
L 72.556583 -276.780626 
L 69.277244 -280.188893 
L 65.997905 -283.589154 
L 62.718566 -286.944317 
L 59.439227 -290.220941 
z
" style="stroke: #1f77b4; stroke-opacity: 0.5; stroke-width: 0.8"/>
    </defs>
    <g clip-path="url(#p2a8fe0773f)">
     <use xlink:href="#m9e01f8f8fd" x="0" y="322.539375" style="fill: #1f77b4; fill-opacity: 0.5; stroke: #1f77b4; stroke-opacity: 0.5; stroke-width: 0.8"/>
    </g>
   </g>
   <g id="PolyCollection_2">
    <defs>
     <path id="m32c2fc02be" d="M 59.439227 -183.252093 
L 59.439227 -183.129659 
L 62.718566 -185.171291 
L 65.997905 -187.499476 
L 69.277244 -190.110343 
L 72.556583 -192.993595 
L 75.835921 -196.132269 
L 79.115261 -199.502637 
L 82.394598 -203.074316 
L 85.673938 -206.810549 
L 88.953278 -210.66881 
L 92.232615 -214.600504 
L 95.511955 -218.552093 
L 98.791295 -222.464622 
L 102.070632 -226.272829 
L 105.349969 -229.904563 
L 108.629311 -233.276438 
L 111.908649 -236.292057 
L 115.187986 -238.849511 
L 118.467328 -240.878102 
L 121.746666 -242.403827 
L 125.026003 -243.552482 
L 128.305345 -244.46896 
L 131.584682 -245.248569 
L 134.86402 -245.930727 
L 138.143362 -246.515138 
L 141.422694 -246.979809 
L 144.702037 -247.285386 
L 147.981379 -247.380147 
L 151.260711 -247.195429 
L 154.540053 -246.643405 
L 157.819395 -245.622473 
L 161.098728 -244.046746 
L 164.37807 -241.882514 
L 167.657412 -239.156847 
L 170.936745 -235.932031 
L 174.216087 -232.280082 
L 177.495429 -228.270765 
L 180.774762 -223.971182 
L 184.054104 -219.446245 
L 187.333446 -214.758999 
L 190.612778 -209.97128 
L 193.892121 -205.141856 
L 197.171463 -200.325903 
L 200.450795 -195.573088 
L 203.730137 -190.926132 
L 207.00948 -186.419468 
L 210.288812 -182.078139 
L 213.568154 -177.916775 
L 216.847496 -173.939162 
L 220.126829 -170.137568 
L 223.406181 -166.492353 
L 226.685504 -162.970574 
L 229.964846 -159.521632 
L 233.244188 -156.06536 
L 236.523511 -152.453063 
L 239.802872 -148.344176 
L 243.082195 -142.961411 
L 246.361537 -135.600138 
L 249.640879 -126.855539 
L 252.920222 -117.553192 
L 256.199564 -108.124785 
L 259.478887 -98.820712 
L 262.758248 -89.832211 
L 266.037571 -81.331686 
L 269.316913 -73.483371 
L 272.596255 -66.446615 
L 275.875578 -60.374293 
L 279.15494 -55.411561 
L 282.434262 -51.690747 
L 285.713605 -49.3285 
L 288.992947 -48.423375 
L 292.272289 -49.049082 
L 295.551631 -51.25293 
L 298.830954 -55.053738 
L 302.110315 -60.435864 
L 305.389638 -67.350617 
L 308.66898 -75.713497 
L 311.948322 -85.405506 
L 315.227645 -96.271732 
L 318.507007 -108.126788 
L 321.78633 -120.754728 
L 325.065672 -133.913523 
L 328.345014 -147.341808 
L 331.624356 -160.757696 
L 334.903698 -173.870287 
L 338.183021 -186.380697 
L 341.462363 -197.994079 
L 344.741705 -208.439581 
L 348.021048 -217.498338 
L 351.30039 -225.033234 
L 354.579713 -230.977234 
L 357.859055 -235.290324 
L 361.138397 -237.946656 
L 364.417739 -238.94222 
L 367.697081 -238.284063 
L 370.976423 -236.014569 
L 374.255766 -232.185118 
L 377.535088 -226.858332 
L 380.814431 -220.093952 
L 384.093773 -211.942363 
L 384.093773 -213.46195 
L 384.093773 -213.46195 
L 380.814431 -221.738241 
L 377.535088 -228.514095 
L 374.255766 -233.796886 
L 370.976423 -237.580675 
L 367.697081 -239.827703 
L 364.417739 -240.495242 
L 361.138397 -239.541002 
L 357.859055 -236.953974 
L 354.579713 -232.719101 
L 351.30039 -226.817038 
L 348.021048 -219.221104 
L 344.741705 -209.976784 
L 341.462363 -199.283612 
L 338.183021 -187.432544 
L 334.903698 -174.726022 
L 331.624356 -161.461092 
L 328.345014 -147.928977 
L 325.065672 -134.412074 
L 321.78633 -121.185172 
L 318.507007 -108.504441 
L 315.227645 -96.608162 
L 311.948322 -85.709545 
L 308.66898 -75.992069 
L 305.389638 -67.609246 
L 302.110315 -60.679057 
L 298.830954 -55.285294 
L 295.551631 -51.476129 
L 292.272289 -49.266911 
L 288.992947 -48.638597 
L 285.713605 -49.543894 
L 282.434262 -51.909163 
L 279.15494 -55.636159 
L 275.875578 -60.608715 
L 272.596255 -66.695299 
L 269.316913 -73.752066 
L 266.037571 -81.628128 
L 262.758248 -90.167502 
L 259.478887 -99.211668 
L 256.199564 -108.598671 
L 252.920222 -118.157739 
L 249.640879 -127.679823 
L 246.361537 -136.791751 
L 243.082195 -144.463011 
L 239.802872 -149.565469 
L 236.523511 -153.325667 
L 233.244188 -156.727542 
L 229.964846 -160.058815 
L 226.685504 -163.429352 
L 223.406181 -166.899851 
L 220.126829 -170.510991 
L 216.847496 -174.290277 
L 213.568154 -178.254285 
L 210.288812 -182.408979 
L 207.00948 -186.749626 
L 203.730137 -191.261155 
L 200.450795 -195.918523 
L 197.171463 -200.687654 
L 193.892121 -205.52658 
L 190.612778 -210.386846 
L 187.333446 -215.215053 
L 184.054104 -219.955018 
L 180.774762 -224.548546 
L 177.495429 -228.937738 
L 174.216087 -233.064643 
L 170.936745 -236.870821 
L 167.657412 -240.294451 
L 164.37807 -243.261053 
L 161.098728 -245.673 
L 157.819395 -247.417515 
L 154.540053 -248.456041 
L 151.260711 -248.911522 
L 147.981379 -248.970442 
L 144.702037 -248.768726 
L 141.422694 -248.390188 
L 138.143362 -247.888897 
L 134.86402 -247.304276 
L 131.584682 -246.657394 
L 128.305345 -245.944541 
L 125.026003 -245.105458 
L 121.746666 -243.98497 
L 118.467328 -242.35586 
L 115.187986 -240.098848 
L 111.908649 -237.287017 
L 108.629311 -234.057976 
L 105.349969 -230.524939 
L 102.070632 -226.774732 
L 98.791295 -222.879074 
L 95.511955 -218.90102 
L 92.232615 -214.899476 
L 88.953278 -210.929041 
L 85.673938 -207.040279 
L 82.394598 -203.279696 
L 79.115261 -199.688352 
L 75.835921 -196.301948 
L 72.556583 -193.150082 
L 69.277244 -190.255896 
L 65.997905 -187.635926 
L 62.718566 -185.300114 
L 59.439227 -183.252093 
z
" style="stroke: #ff7f0e; stroke-opacity: 0.5; stroke-width: 0.8"/>
    </defs>
    <g clip-path="url(#p2a8fe0773f)">
     <use xlink:href="#m32c2fc02be" x="0" y="322.539375" style="fill: #ff7f0e; fill-opacity: 0.5; stroke: #ff7f0e; stroke-opacity: 0.5; stroke-width: 0.8"/>
    </g>
   </g>
   <g id="PolyCollection_3">
    <defs>
     <path id="m51b025431f" d="M 59.439227 -290.343375 
L 59.439227 -290.220941 
L 62.718566 -286.944317 
L 65.997905 -283.589154 
L 69.277244 -280.188893 
L 72.556583 -276.780626 
L 75.835921 -273.404059 
L 79.115261 -270.100901 
L 82.394598 -266.913593 
L 85.673938 -263.883947 
L 88.953278 -261.05201 
L 92.232615 -258.455665 
L 95.511955 -256.128503 
L 98.791295 -254.100043 
L 102.070632 -252.396208 
L 105.349969 -251.039179 
L 108.629311 -250.052835 
L 111.908649 -249.469879 
L 115.187986 -249.344207 
L 118.467328 -249.750616 
L 121.746666 -250.696195 
L 125.026003 -251.995242 
L 128.305345 -253.354551 
L 131.584682 -254.555199 
L 134.86402 -255.476374 
L 138.143362 -256.059323 
L 141.422694 -256.276181 
L 144.702037 -256.124503 
L 147.981379 -255.624791 
L 151.260711 -254.835703 
L 154.540053 -253.876744 
L 157.819395 -252.926713 
L 161.098728 -252.109082 
L 164.37807 -251.3936 
L 167.657412 -250.682302 
L 170.936745 -249.898316 
L 174.216087 -248.991845 
L 177.495429 -247.928909 
L 180.774762 -246.680246 
L 184.054104 -245.216967 
L 187.333446 -243.508726 
L 190.612778 -241.5222 
L 193.892121 -239.221896 
L 197.171463 -236.570321 
L 200.450795 -233.529452 
L 203.730137 -230.061771 
L 207.00948 -226.132024 
L 210.288812 -221.708515 
L 213.568154 -216.764873 
L 216.847496 -211.281835 
L 220.126829 -205.249135 
L 223.406181 -198.667056 
L 226.685504 -191.549767 
L 229.964846 -183.929261 
L 233.244188 -175.865586 
L 236.523511 -167.478758 
L 239.802872 -159.079843 
L 243.082195 -151.692991 
L 246.361537 -146.603224 
L 249.640879 -142.762021 
L 252.920222 -139.241157 
L 256.199564 -135.792915 
L 259.478887 -132.357621 
L 262.758248 -128.935986 
L 266.037571 -125.559423 
L 269.316913 -122.280328 
L 272.596255 -119.168179 
L 275.875578 -116.305939 
L 279.15494 -113.788729 
L 282.434262 -111.718236 
L 285.713605 -110.200087 
L 288.992947 -109.341339 
L 292.272289 -109.24262 
L 295.551631 -109.995008 
L 298.830954 -111.678412 
L 302.110315 -114.350145 
L 305.389638 -118.047866 
L 308.66898 -122.780665 
L 311.948322 -128.530318 
L 315.227645 -135.245078 
L 318.507007 -142.844597 
L 321.78633 -151.215272 
L 325.065672 -160.212769 
L 328.345014 -169.671685 
L 331.624356 -179.398001 
L 334.903698 -189.19204 
L 338.183021 -198.845838 
L 341.462363 -208.161653 
L 344.741705 -216.968974 
L 348.021048 -225.109015 
L 351.30039 -232.383493 
L 354.579713 -238.504451 
L 357.859055 -243.171437 
L 361.138397 -246.170344 
L 364.417739 -247.384729 
L 367.697081 -246.77789 
L 370.976423 -244.386548 
L 374.255766 -240.319915 
L 377.535088 -234.776987 
L 380.814431 -228.067862 
L 384.093773 -220.570656 
L 384.093773 -222.090241 
L 384.093773 -222.090241 
L 380.814431 -229.712152 
L 377.535088 -236.43275 
L 374.255766 -241.931683 
L 370.976423 -245.952654 
L 367.697081 -248.32153 
L 364.417739 -248.937751 
L 361.138397 -247.764691 
L 357.859055 -244.835087 
L 354.579713 -240.246318 
L 351.30039 -234.167297 
L 348.021048 -226.831781 
L 344.741705 -218.506178 
L 341.462363 -209.451186 
L 338.183021 -199.897686 
L 334.903698 -190.047779 
L 331.624356 -180.101397 
L 328.345014 -170.258854 
L 325.065672 -160.711319 
L 321.78633 -151.645717 
L 318.507007 -143.222259 
L 315.227645 -135.5815 
L 311.948322 -128.834349 
L 308.66898 -123.059237 
L 305.389638 -118.306496 
L 302.110315 -114.59333 
L 298.830954 -111.909959 
L 295.551631 -110.218216 
L 292.272289 -109.46044 
L 288.992947 -109.55657 
L 285.713605 -110.415481 
L 282.434262 -111.936661 
L 279.15494 -114.013327 
L 275.875578 -116.540361 
L 272.596255 -119.416863 
L 269.316913 -122.549014 
L 266.037571 -125.855865 
L 262.758248 -129.271276 
L 259.478887 -132.748569 
L 256.199564 -136.2668 
L 252.920222 -139.845705 
L 249.640879 -143.586306 
L 246.361537 -147.794837 
L 243.082195 -153.194591 
L 239.802872 -160.301137 
L 236.523511 -168.351362 
L 233.244188 -176.527768 
L 229.964846 -184.466445 
L 226.685504 -192.008545 
L 223.406181 -199.074563 
L 220.126829 -205.622553 
L 216.847496 -211.632946 
L 213.568154 -217.10238 
L 210.288812 -222.039358 
L 207.00948 -226.462182 
L 203.730137 -230.396797 
L 200.450795 -233.874886 
L 197.171463 -236.932071 
L 193.892121 -239.60662 
L 190.612778 -241.937763 
L 187.333446 -243.96478 
L 184.054104 -245.725739 
L 180.774762 -247.257611 
L 177.495429 -248.59588 
L 174.216087 -249.776407 
L 170.936745 -250.837107 
L 167.657412 -251.819907 
L 164.37807 -252.77214 
L 161.098728 -253.735337 
L 157.819395 -254.721755 
L 154.540053 -255.68938 
L 151.260711 -256.551796 
L 147.981379 -257.215086 
L 144.702037 -257.607843 
L 141.422694 -257.686561 
L 138.143362 -257.433082 
L 134.86402 -256.849923 
L 131.584682 -255.964024 
L 128.305345 -254.830132 
L 125.026003 -253.548219 
L 121.746666 -252.277337 
L 118.467328 -251.228373 
L 115.187986 -250.593544 
L 111.908649 -250.46484 
L 108.629311 -250.834374 
L 105.349969 -251.659555 
L 102.070632 -252.898112 
L 98.791295 -254.514497 
L 95.511955 -256.477429 
L 92.232615 -258.754634 
L 88.953278 -261.312243 
L 85.673938 -264.113678 
L 82.394598 -267.118975 
L 79.115261 -270.28662 
L 75.835921 -273.573737 
L 72.556583 -276.937113 
L 69.277244 -280.334447 
L 65.997905 -283.725603 
L 62.718566 -287.073144 
L 59.439227 -290.343375 
z
" style="stroke: #ff7f0e; stroke-opacity: 0.5; stroke-width: 0.8"/>
    </defs>
    <g clip-path="url(#p2a8fe0773f)">
     <use xlink:href="#m51b025431f" x="0" y="322.539375" style="fill: #ff7f0e; fill-opacity: 0.5; stroke: #ff7f0e; stroke-opacity: 0.5; stroke-width: 0.8"/>
    </g>
   </g>
   <g id="line2d_14">
    <defs>
     <path id="m0af59e3531" d="M -5 5 
L 5 -5 
M -5 -5 
L 5 5 
" style="stroke: #000000; stroke-width: 2"/>
    </defs>
    <g clip-path="url(#p2a8fe0773f)">
     <use xlink:href="#m0af59e3531" x="361.243318" y="73.683928" style="stroke: #000000; stroke-width: 2"/>
     <use xlink:href="#m0af59e3531" x="162.151989" y="74.43002" style="stroke: #000000; stroke-width: 2"/>
     <use xlink:href="#m0af59e3531" x="119.149308" y="76.428928" style="stroke: #000000; stroke-width: 2"/>
     <use xlink:href="#m0af59e3531" x="243.082195" y="174.559256" style="stroke: #000000; stroke-width: 2"/>
     <use xlink:href="#m0af59e3531" x="147.981379" y="69.751081" style="stroke: #000000; stroke-width: 2"/>
     <use xlink:href="#m0af59e3531" x="384.093773" y="108.232693" style="stroke: #000000; stroke-width: 2"/>
     <use xlink:href="#m0af59e3531" x="344.741705" y="112.807114" style="stroke: #000000; stroke-width: 2"/>
    </g>
   </g>
   <g id="line2d_15">
    <path d="M 59.439227 85.802856 
L 62.718566 86.417159 
L 65.997905 86.926835 
L 69.277244 87.31698 
L 72.556583 87.574021 
L 75.835921 87.686372 
L 79.115261 87.644747 
L 82.394598 87.44273 
L 85.673938 87.077262 
L 88.953278 86.54885 
L 92.232615 85.861805 
L 95.511955 85.024614 
L 98.791295 84.049816 
L 102.070632 82.953905 
L 105.349969 81.757315 
L 108.629311 80.483969 
L 111.908649 79.160927 
L 115.187986 77.817847 
L 118.467328 76.486137 
L 121.746666 75.198793 
L 125.026003 73.989025 
L 128.305345 72.889829 
L 131.584682 71.933079 
L 134.86402 71.14905 
L 138.143362 70.565265 
L 141.422694 70.20619 
L 144.702037 70.09276 
L 147.981379 70.241758 
L 151.260711 70.665763 
L 154.540053 71.372983 
L 157.819395 72.367261 
L 161.098728 73.648334 
L 164.37807 75.212049 
L 167.657412 77.050998 
L 170.936745 79.154806 
L 174.216087 81.511131 
L 177.495429 84.106052 
L 180.774762 86.924979 
L 184.054104 89.953383 
L 187.333446 93.177486 
L 190.612778 96.584853 
L 193.892121 100.165137 
L 197.171463 103.910387 
L 200.450795 107.815388 
L 203.730137 111.877912 
L 207.00948 116.09855 
L 210.288812 120.480627 
L 213.568154 125.029796 
L 216.847496 129.753319 
L 220.126829 134.659314 
L 223.406181 139.755919 
L 226.685504 145.049815 
L 229.964846 150.545337 
L 233.244188 156.242811 
L 236.523511 162.137163 
L 239.802872 168.216719 
L 243.082195 174.461374 
L 246.361537 180.841888 
L 249.640879 187.318453 
L 252.920222 193.839927 
L 256.199564 200.343582 
L 259.478887 206.754734 
L 262.758248 212.987631 
L 266.037571 218.9456 
L 269.316913 224.523178 
L 272.596255 229.607636 
L 275.875578 234.082048 
L 279.15494 237.826931 
L 282.434262 240.725671 
L 285.713605 242.667385 
L 288.992947 243.549407 
L 292.272289 243.284614 
L 295.551631 241.803802 
L 298.830954 239.057522 
L 302.110315 235.024778 
L 305.389638 229.710819 
L 308.66898 223.153008 
L 311.948322 215.419443 
L 315.227645 206.612755 
L 318.507007 196.864856 
L 321.78633 186.339153 
L 325.065672 175.226954 
L 328.345014 163.739044 
L 331.624356 152.109828 
L 334.903698 140.580342 
L 338.183021 129.400184 
L 341.462363 118.816742 
L 344.741705 109.066495 
L 348.021048 100.374316 
L 351.30039 92.93911 
L 354.579713 86.927599 
L 357.859055 82.47667 
L 361.138397 79.683702 
L 364.417739 78.59939 
L 367.697081 79.236578 
L 370.976423 81.555764 
L 374.255766 85.480974 
L 377.535088 90.893834 
L 380.814431 97.636323 
L 384.093773 105.523073 
" clip-path="url(#p2a8fe0773f)" style="fill: none; stroke: #1f77b4; stroke-width: 2; stroke-linecap: round"/>
   </g>
   <g id="line2d_16">
    <path d="M 59.439227 141.258046 
L 62.718566 136.839836 
L 65.997905 132.438019 
L 69.277244 128.068923 
L 72.556583 123.74881 
L 75.835921 119.493764 
L 79.115261 115.319714 
L 82.394598 111.242307 
L 85.673938 107.276879 
L 88.953278 103.43843 
L 92.232615 99.741525 
L 95.511955 96.200274 
L 98.791295 92.828274 
L 102.070632 89.638566 
L 105.349969 86.643571 
L 108.629311 83.855093 
L 111.908649 81.284228 
L 115.187986 78.941354 
L 118.467328 76.836074 
L 121.746666 74.977212 
L 125.026003 73.372766 
L 128.305345 72.029868 
L 131.584682 70.954776 
L 134.86402 70.152847 
L 138.143362 69.628505 
L 141.422694 69.385238 
L 144.702037 69.42558 
L 147.981379 69.751081 
L 151.260711 70.362315 
L 154.540053 71.258871 
L 157.819395 72.439334 
L 161.098728 73.901278 
L 164.37807 75.641302 
L 167.657412 77.654963 
L 170.936745 79.936845 
L 174.216087 82.480516 
L 177.495429 85.278546 
L 180.774762 88.322516 
L 184.054104 91.603001 
L 187.333446 95.109634 
L 190.612778 98.831009 
L 193.892121 102.754804 
L 197.171463 106.867681 
L 200.450795 111.155394 
L 203.730137 115.602697 
L 207.00948 120.193383 
L 210.288812 124.910302 
L 213.568154 129.735362 
L 216.847496 134.649473 
L 220.126829 139.632618 
L 223.406181 144.663805 
L 226.685504 149.721026 
L 229.964846 154.781355 
L 233.244188 159.820852 
L 236.523511 164.814456 
L 239.802872 169.73631 
L 243.082195 174.559256 
L 246.361537 179.255312 
L 249.640879 183.795318 
L 252.920222 188.149091 
L 256.199564 192.285441 
L 259.478887 196.172053 
L 262.758248 199.775691 
L 266.037571 203.06209 
L 269.316913 205.99613 
L 272.596255 208.541864 
L 275.875578 210.66274 
L 279.15494 212.321668 
L 282.434262 213.481356 
L 285.713605 214.104568 
L 288.992947 214.154527 
L 292.272289 213.595399 
L 295.551631 212.392934 
L 298.830954 210.515183 
L 302.110315 207.93332 
L 305.389638 204.623059 
L 308.66898 200.565435 
L 311.948322 195.748791 
L 315.227645 190.17047 
L 318.507007 183.838639 
L 321.78633 176.77506 
L 325.065672 169.017418 
L 328.345014 160.622388 
L 331.624356 151.668852 
L 334.903698 142.261112 
L 338.183021 132.532305 
L 341.462363 122.647663 
L 344.741705 112.807114 
L 348.021048 103.247454 
L 351.30039 94.243164 
L 354.579713 86.104963 
L 357.859055 79.175992 
L 361.138397 73.824832 
L 364.417739 70.432912 
L 367.697081 69.377024 
L 370.976423 71.004558 
L 374.255766 75.601085 
L 377.535088 83.349955 
L 380.814431 94.284158 
L 384.093773 108.232693 
" clip-path="url(#p2a8fe0773f)" style="fill: none; stroke-dasharray: 7.68,1.92,1.2,1.92; stroke-dashoffset: 0; stroke: #bf00bf; stroke-width: 1.2"/>
   </g>
   <g id="patch_3">
    <path d="M 43.2065 250.415383 
L 43.2065 33.157309 
" style="fill: none; stroke: #262626; stroke-linejoin: miter; stroke-linecap: square"/>
   </g>
   <g id="patch_4">
    <path d="M 59.439227 286.212 
L 384.093773 286.212 
" style="fill: none; stroke: #262626; stroke-linejoin: miter; stroke-linecap: square"/>
   </g>
   <g id="text_16">
    <!-- N=3, psi=0.10 -->
    <g style="fill: #262626" transform="translate(191.87975 14.1) scale(0.096 -0.096)">
     <defs>
      <path id="ArialMT-4e" d="M 488 0 
L 488 4581 
L 1109 4581 
L 3516 984 
L 3516 4581 
L 4097 4581 
L 4097 0 
L 3475 0 
L 1069 3600 
L 1069 0 
L 488 0 
z
" transform="scale(0.015625)"/>
      <path id="ArialMT-3d" d="M 3381 2694 
L 356 2694 
L 356 3219 
L 3381 3219 
L 3381 2694 
z
M 3381 1303 
L 356 1303 
L 356 1828 
L 3381 1828 
L 3381 1303 
z
" transform="scale(0.015625)"/>
      <path id="ArialMT-33" d="M 269 1209 
L 831 1284 
Q 928 806 1161 595 
Q 1394 384 1728 384 
Q 2125 384 2398 659 
Q 2672 934 2672 1341 
Q 2672 1728 2419 1979 
Q 2166 2231 1775 2231 
Q 1616 2231 1378 2169 
L 1441 2663 
Q 1497 2656 1531 2656 
Q 1891 2656 2178 2843 
Q 2466 3031 2466 3422 
Q 2466 3731 2256 3934 
Q 2047 4138 1716 4138 
Q 1388 4138 1169 3931 
Q 950 3725 888 3313 
L 325 3413 
Q 428 3978 793 4289 
Q 1159 4600 1703 4600 
Q 2078 4600 2393 4439 
Q 2709 4278 2876 4000 
Q 3044 3722 3044 3409 
Q 3044 3113 2884 2869 
Q 2725 2625 2413 2481 
Q 2819 2388 3044 2092 
Q 3269 1797 3269 1353 
Q 3269 753 2831 336 
Q 2394 -81 1725 -81 
Q 1122 -81 723 278 
Q 325 638 269 1209 
z
" transform="scale(0.015625)"/>
      <path id="ArialMT-2c" d="M 569 0 
L 569 641 
L 1209 641 
L 1209 0 
Q 1209 -353 1084 -570 
Q 959 -788 688 -906 
L 531 -666 
Q 709 -588 793 -436 
Q 878 -284 888 0 
L 569 0 
z
" transform="scale(0.015625)"/>
      <path id="ArialMT-20" transform="scale(0.015625)"/>
      <path id="ArialMT-70" d="M 422 -1272 
L 422 3319 
L 934 3319 
L 934 2888 
Q 1116 3141 1344 3267 
Q 1572 3394 1897 3394 
Q 2322 3394 2647 3175 
Q 2972 2956 3137 2557 
Q 3303 2159 3303 1684 
Q 3303 1175 3120 767 
Q 2938 359 2589 142 
Q 2241 -75 1856 -75 
Q 1575 -75 1351 44 
Q 1128 163 984 344 
L 984 -1272 
L 422 -1272 
z
M 931 1641 
Q 931 1000 1190 694 
Q 1450 388 1819 388 
Q 2194 388 2461 705 
Q 2728 1022 2728 1688 
Q 2728 2322 2467 2637 
Q 2206 2953 1844 2953 
Q 1484 2953 1207 2617 
Q 931 2281 931 1641 
z
" transform="scale(0.015625)"/>
      <path id="ArialMT-73" d="M 197 991 
L 753 1078 
Q 800 744 1014 566 
Q 1228 388 1613 388 
Q 2000 388 2187 545 
Q 2375 703 2375 916 
Q 2375 1106 2209 1216 
Q 2094 1291 1634 1406 
Q 1016 1563 777 1677 
Q 538 1791 414 1992 
Q 291 2194 291 2438 
Q 291 2659 392 2848 
Q 494 3038 669 3163 
Q 800 3259 1026 3326 
Q 1253 3394 1513 3394 
Q 1903 3394 2198 3281 
Q 2494 3169 2634 2976 
Q 2775 2784 2828 2463 
L 2278 2388 
Q 2241 2644 2061 2787 
Q 1881 2931 1553 2931 
Q 1166 2931 1000 2803 
Q 834 2675 834 2503 
Q 834 2394 903 2306 
Q 972 2216 1119 2156 
Q 1203 2125 1616 2013 
Q 2213 1853 2448 1751 
Q 2684 1650 2818 1456 
Q 2953 1263 2953 975 
Q 2953 694 2789 445 
Q 2625 197 2315 61 
Q 2006 -75 1616 -75 
Q 969 -75 630 194 
Q 291 463 197 991 
z
" transform="scale(0.015625)"/>
      <path id="ArialMT-69" d="M 425 3934 
L 425 4581 
L 988 4581 
L 988 3934 
L 425 3934 
z
M 425 0 
L 425 3319 
L 988 3319 
L 988 0 
L 425 0 
z
" transform="scale(0.015625)"/>
     </defs>
     <use xlink:href="#ArialMT-4e"/>
     <use xlink:href="#ArialMT-3d" x="72.216797"/>
     <use xlink:href="#ArialMT-33" x="130.615234"/>
     <use xlink:href="#ArialMT-2c" x="186.230469"/>
     <use xlink:href="#ArialMT-20" x="214.013672"/>
     <use xlink:href="#ArialMT-70" x="241.796875"/>
     <use xlink:href="#ArialMT-73" x="297.412109"/>
     <use xlink:href="#ArialMT-69" x="347.412109"/>
     <use xlink:href="#ArialMT-3d" x="369.628906"/>
     <use xlink:href="#ArialMT-30" x="428.027344"/>
     <use xlink:href="#ArialMT-2e" x="483.642578"/>
     <use xlink:href="#ArialMT-31" x="511.425781"/>
     <use xlink:href="#ArialMT-30" x="567.041016"/>
    </g>
   </g>
   <g id="legend_1">
    <g id="line2d_17">
     <g>
      <use xlink:href="#m0af59e3531" x="59.9265" y="220.007125" style="stroke: #000000; stroke-width: 2"/>
     </g>
    </g>
    <g id="text_17">
     <!-- Observations -->
     <g style="fill: #262626" transform="translate(75.7665 223.087125) scale(0.088 -0.088)">
      <defs>
       <path id="ArialMT-4f" d="M 309 2231 
Q 309 3372 921 4017 
Q 1534 4663 2503 4663 
Q 3138 4663 3647 4359 
Q 4156 4056 4423 3514 
Q 4691 2972 4691 2284 
Q 4691 1588 4409 1038 
Q 4128 488 3612 205 
Q 3097 -78 2500 -78 
Q 1853 -78 1343 234 
Q 834 547 571 1087 
Q 309 1628 309 2231 
z
M 934 2222 
Q 934 1394 1379 917 
Q 1825 441 2497 441 
Q 3181 441 3623 922 
Q 4066 1403 4066 2288 
Q 4066 2847 3877 3264 
Q 3688 3681 3323 3911 
Q 2959 4141 2506 4141 
Q 1863 4141 1398 3698 
Q 934 3256 934 2222 
z
" transform="scale(0.015625)"/>
       <path id="ArialMT-62" d="M 941 0 
L 419 0 
L 419 4581 
L 981 4581 
L 981 2947 
Q 1338 3394 1891 3394 
Q 2197 3394 2470 3270 
Q 2744 3147 2920 2923 
Q 3097 2700 3197 2384 
Q 3297 2069 3297 1709 
Q 3297 856 2875 390 
Q 2453 -75 1863 -75 
Q 1275 -75 941 416 
L 941 0 
z
M 934 1684 
Q 934 1088 1097 822 
Q 1363 388 1816 388 
Q 2184 388 2453 708 
Q 2722 1028 2722 1663 
Q 2722 2313 2464 2622 
Q 2206 2931 1841 2931 
Q 1472 2931 1203 2611 
Q 934 2291 934 1684 
z
" transform="scale(0.015625)"/>
       <path id="ArialMT-65" d="M 2694 1069 
L 3275 997 
Q 3138 488 2766 206 
Q 2394 -75 1816 -75 
Q 1088 -75 661 373 
Q 234 822 234 1631 
Q 234 2469 665 2931 
Q 1097 3394 1784 3394 
Q 2450 3394 2872 2941 
Q 3294 2488 3294 1666 
Q 3294 1616 3291 1516 
L 816 1516 
Q 847 969 1125 678 
Q 1403 388 1819 388 
Q 2128 388 2347 550 
Q 2566 713 2694 1069 
z
M 847 1978 
L 2700 1978 
Q 2663 2397 2488 2606 
Q 2219 2931 1791 2931 
Q 1403 2931 1139 2672 
Q 875 2413 847 1978 
z
" transform="scale(0.015625)"/>
       <path id="ArialMT-72" d="M 416 0 
L 416 3319 
L 922 3319 
L 922 2816 
Q 1116 3169 1280 3281 
Q 1444 3394 1641 3394 
Q 1925 3394 2219 3213 
L 2025 2691 
Q 1819 2813 1613 2813 
Q 1428 2813 1281 2702 
Q 1134 2591 1072 2394 
Q 978 2094 978 1738 
L 978 0 
L 416 0 
z
" transform="scale(0.015625)"/>
       <path id="ArialMT-76" d="M 1344 0 
L 81 3319 
L 675 3319 
L 1388 1331 
Q 1503 1009 1600 663 
Q 1675 925 1809 1294 
L 2547 3319 
L 3125 3319 
L 1869 0 
L 1344 0 
z
" transform="scale(0.015625)"/>
       <path id="ArialMT-61" d="M 2588 409 
Q 2275 144 1986 34 
Q 1697 -75 1366 -75 
Q 819 -75 525 192 
Q 231 459 231 875 
Q 231 1119 342 1320 
Q 453 1522 633 1644 
Q 813 1766 1038 1828 
Q 1203 1872 1538 1913 
Q 2219 1994 2541 2106 
Q 2544 2222 2544 2253 
Q 2544 2597 2384 2738 
Q 2169 2928 1744 2928 
Q 1347 2928 1158 2789 
Q 969 2650 878 2297 
L 328 2372 
Q 403 2725 575 2942 
Q 747 3159 1072 3276 
Q 1397 3394 1825 3394 
Q 2250 3394 2515 3294 
Q 2781 3194 2906 3042 
Q 3031 2891 3081 2659 
Q 3109 2516 3109 2141 
L 3109 1391 
Q 3109 606 3145 398 
Q 3181 191 3288 0 
L 2700 0 
Q 2613 175 2588 409 
z
M 2541 1666 
Q 2234 1541 1622 1453 
Q 1275 1403 1131 1340 
Q 988 1278 909 1158 
Q 831 1038 831 891 
Q 831 666 1001 516 
Q 1172 366 1500 366 
Q 1825 366 2078 508 
Q 2331 650 2450 897 
Q 2541 1088 2541 1459 
L 2541 1666 
z
" transform="scale(0.015625)"/>
       <path id="ArialMT-74" d="M 1650 503 
L 1731 6 
Q 1494 -44 1306 -44 
Q 1000 -44 831 53 
Q 663 150 594 308 
Q 525 466 525 972 
L 525 2881 
L 113 2881 
L 113 3319 
L 525 3319 
L 525 4141 
L 1084 4478 
L 1084 3319 
L 1650 3319 
L 1650 2881 
L 1084 2881 
L 1084 941 
Q 1084 700 1114 631 
Q 1144 563 1211 522 
Q 1278 481 1403 481 
Q 1497 481 1650 503 
z
" transform="scale(0.015625)"/>
       <path id="ArialMT-6f" d="M 213 1659 
Q 213 2581 725 3025 
Q 1153 3394 1769 3394 
Q 2453 3394 2887 2945 
Q 3322 2497 3322 1706 
Q 3322 1066 3130 698 
Q 2938 331 2570 128 
Q 2203 -75 1769 -75 
Q 1072 -75 642 372 
Q 213 819 213 1659 
z
M 791 1659 
Q 791 1022 1069 705 
Q 1347 388 1769 388 
Q 2188 388 2466 706 
Q 2744 1025 2744 1678 
Q 2744 2294 2464 2611 
Q 2184 2928 1769 2928 
Q 1347 2928 1069 2612 
Q 791 2297 791 1659 
z
" transform="scale(0.015625)"/>
       <path id="ArialMT-6e" d="M 422 0 
L 422 3319 
L 928 3319 
L 928 2847 
Q 1294 3394 1984 3394 
Q 2284 3394 2536 3286 
Q 2788 3178 2913 3003 
Q 3038 2828 3088 2588 
Q 3119 2431 3119 2041 
L 3119 0 
L 2556 0 
L 2556 2019 
Q 2556 2363 2490 2533 
Q 2425 2703 2258 2804 
Q 2091 2906 1866 2906 
Q 1506 2906 1245 2678 
Q 984 2450 984 1813 
L 984 0 
L 422 0 
z
" transform="scale(0.015625)"/>
      </defs>
      <use xlink:href="#ArialMT-4f"/>
      <use xlink:href="#ArialMT-62" x="77.783203"/>
      <use xlink:href="#ArialMT-73" x="133.398438"/>
      <use xlink:href="#ArialMT-65" x="183.398438"/>
      <use xlink:href="#ArialMT-72" x="239.013672"/>
      <use xlink:href="#ArialMT-76" x="272.314453"/>
      <use xlink:href="#ArialMT-61" x="322.314453"/>
      <use xlink:href="#ArialMT-74" x="377.929688"/>
      <use xlink:href="#ArialMT-69" x="405.712891"/>
      <use xlink:href="#ArialMT-6f" x="427.929688"/>
      <use xlink:href="#ArialMT-6e" x="483.544922"/>
      <use xlink:href="#ArialMT-73" x="539.160156"/>
     </g>
    </g>
    <g id="line2d_18">
     <path d="M 51.1265 232.591125 
L 59.9265 232.591125 
L 68.7265 232.591125 
" style="fill: none; stroke: #1f77b4; stroke-width: 2; stroke-linecap: round"/>
    </g>
    <g id="text_18">
     <!-- $m_n(x)$ -->
     <g style="fill: #262626" transform="translate(75.7665 235.671125) scale(0.088 -0.088)">
      <defs>
       <path id="DejaVuSans-Oblique-6d" d="M 5747 2113 
L 5338 0 
L 4763 0 
L 5166 2094 
Q 5191 2228 5203 2325 
Q 5216 2422 5216 2491 
Q 5216 2772 5059 2928 
Q 4903 3084 4622 3084 
Q 4203 3084 3875 2770 
Q 3547 2456 3450 1953 
L 3066 0 
L 2491 0 
L 2900 2094 
Q 2925 2209 2937 2307 
Q 2950 2406 2950 2484 
Q 2950 2769 2794 2926 
Q 2638 3084 2363 3084 
Q 1938 3084 1609 2770 
Q 1281 2456 1184 1953 
L 800 0 
L 225 0 
L 909 3500 
L 1484 3500 
L 1375 2956 
Q 1609 3263 1923 3423 
Q 2238 3584 2597 3584 
Q 2978 3584 3223 3384 
Q 3469 3184 3519 2828 
Q 3781 3197 4126 3390 
Q 4472 3584 4856 3584 
Q 5306 3584 5551 3325 
Q 5797 3066 5797 2591 
Q 5797 2488 5784 2364 
Q 5772 2241 5747 2113 
z
" transform="scale(0.015625)"/>
       <path id="DejaVuSans-Oblique-6e" d="M 3566 2113 
L 3156 0 
L 2578 0 
L 2988 2091 
Q 3016 2238 3031 2350 
Q 3047 2463 3047 2528 
Q 3047 2791 2881 2937 
Q 2716 3084 2419 3084 
Q 1956 3084 1622 2776 
Q 1288 2469 1184 1941 
L 800 0 
L 225 0 
L 903 3500 
L 1478 3500 
L 1363 2950 
Q 1603 3253 1940 3418 
Q 2278 3584 2650 3584 
Q 3113 3584 3367 3334 
Q 3622 3084 3622 2631 
Q 3622 2519 3608 2391 
Q 3594 2263 3566 2113 
z
" transform="scale(0.015625)"/>
       <path id="DejaVuSans-28" d="M 1984 4856 
Q 1566 4138 1362 3434 
Q 1159 2731 1159 2009 
Q 1159 1288 1364 580 
Q 1569 -128 1984 -844 
L 1484 -844 
Q 1016 -109 783 600 
Q 550 1309 550 2009 
Q 550 2706 781 3412 
Q 1013 4119 1484 4856 
L 1984 4856 
z
" transform="scale(0.015625)"/>
       <path id="DejaVuSans-29" d="M 513 4856 
L 1013 4856 
Q 1481 4119 1714 3412 
Q 1947 2706 1947 2009 
Q 1947 1309 1714 600 
Q 1481 -109 1013 -844 
L 513 -844 
Q 928 -128 1133 580 
Q 1338 1288 1338 2009 
Q 1338 2731 1133 3434 
Q 928 4138 513 4856 
z
" transform="scale(0.015625)"/>
      </defs>
      <use xlink:href="#DejaVuSans-Oblique-6d" transform="translate(0 0.125)"/>
      <use xlink:href="#DejaVuSans-Oblique-6e" transform="translate(97.412109 -16.28125) scale(0.7)"/>
      <use xlink:href="#DejaVuSans-28" transform="translate(144.511719 0.125)"/>
      <use xlink:href="#DejaVuSans-Oblique-78" transform="translate(183.525391 0.125)"/>
      <use xlink:href="#DejaVuSans-29" transform="translate(242.705078 0.125)"/>
     </g>
    </g>
    <g id="patch_5">
     <path d="M 51.1265 249.828125 
L 68.7265 249.828125 
L 68.7265 243.668125 
L 51.1265 243.668125 
z
" style="fill: #1f77b4; fill-opacity: 0.5; stroke: #1f77b4; stroke-opacity: 0.5; stroke-width: 0.8; stroke-linejoin: miter"/>
    </g>
    <g id="text_19">
     <!-- $f(\mathbf{x}^*)$ 95% pred. -->
     <g style="fill: #262626" transform="translate(75.7665 249.828125) scale(0.088 -0.088)">
      <defs>
       <path id="DejaVuSans-Oblique-66" d="M 3059 4863 
L 2969 4384 
L 2419 4384 
Q 2106 4384 1964 4261 
Q 1822 4138 1753 3809 
L 1691 3500 
L 2638 3500 
L 2553 3053 
L 1606 3053 
L 1013 0 
L 434 0 
L 1031 3053 
L 481 3053 
L 563 3500 
L 1113 3500 
L 1159 3744 
Q 1278 4363 1576 4613 
Q 1875 4863 2516 4863 
L 3059 4863 
z
" transform="scale(0.015625)"/>
       <path id="DejaVuSans-Bold-78" d="M 1422 1791 
L 159 3500 
L 1344 3500 
L 2059 2463 
L 2784 3500 
L 3969 3500 
L 2706 1797 
L 4031 0 
L 2847 0 
L 2059 1106 
L 1281 0 
L 97 0 
L 1422 1791 
z
" transform="scale(0.015625)"/>
       <path id="DejaVuSans-2a" d="M 3009 3897 
L 1888 3291 
L 3009 2681 
L 2828 2375 
L 1778 3009 
L 1778 1831 
L 1422 1831 
L 1422 3009 
L 372 2375 
L 191 2681 
L 1313 3291 
L 191 3897 
L 372 4206 
L 1422 3572 
L 1422 4750 
L 1778 4750 
L 1778 3572 
L 2828 4206 
L 3009 3897 
z
" transform="scale(0.015625)"/>
       <path id="ArialMT-39" d="M 350 1059 
L 891 1109 
Q 959 728 1153 556 
Q 1347 384 1650 384 
Q 1909 384 2104 503 
Q 2300 622 2425 820 
Q 2550 1019 2634 1356 
Q 2719 1694 2719 2044 
Q 2719 2081 2716 2156 
Q 2547 1888 2255 1720 
Q 1963 1553 1622 1553 
Q 1053 1553 659 1965 
Q 266 2378 266 3053 
Q 266 3750 677 4175 
Q 1088 4600 1706 4600 
Q 2153 4600 2523 4359 
Q 2894 4119 3086 3673 
Q 3278 3228 3278 2384 
Q 3278 1506 3087 986 
Q 2897 466 2520 194 
Q 2144 -78 1638 -78 
Q 1100 -78 759 220 
Q 419 519 350 1059 
z
M 2653 3081 
Q 2653 3566 2395 3850 
Q 2138 4134 1775 4134 
Q 1400 4134 1122 3828 
Q 844 3522 844 3034 
Q 844 2597 1108 2323 
Q 1372 2050 1759 2050 
Q 2150 2050 2401 2323 
Q 2653 2597 2653 3081 
z
" transform="scale(0.015625)"/>
       <path id="ArialMT-35" d="M 266 1200 
L 856 1250 
Q 922 819 1161 601 
Q 1400 384 1738 384 
Q 2144 384 2425 690 
Q 2706 997 2706 1503 
Q 2706 1984 2436 2262 
Q 2166 2541 1728 2541 
Q 1456 2541 1237 2417 
Q 1019 2294 894 2097 
L 366 2166 
L 809 4519 
L 3088 4519 
L 3088 3981 
L 1259 3981 
L 1013 2750 
Q 1425 3038 1878 3038 
Q 2478 3038 2890 2622 
Q 3303 2206 3303 1553 
Q 3303 931 2941 478 
Q 2500 -78 1738 -78 
Q 1113 -78 717 272 
Q 322 622 266 1200 
z
" transform="scale(0.015625)"/>
       <path id="ArialMT-25" d="M 372 3481 
Q 372 3972 619 4315 
Q 866 4659 1334 4659 
Q 1766 4659 2048 4351 
Q 2331 4044 2331 3447 
Q 2331 2866 2045 2552 
Q 1759 2238 1341 2238 
Q 925 2238 648 2547 
Q 372 2856 372 3481 
z
M 1350 4272 
Q 1141 4272 1002 4090 
Q 863 3909 863 3425 
Q 863 2984 1003 2804 
Q 1144 2625 1350 2625 
Q 1563 2625 1702 2806 
Q 1841 2988 1841 3469 
Q 1841 3913 1700 4092 
Q 1559 4272 1350 4272 
z
M 1353 -169 
L 3859 4659 
L 4316 4659 
L 1819 -169 
L 1353 -169 
z
M 3334 1075 
Q 3334 1569 3581 1911 
Q 3828 2253 4300 2253 
Q 4731 2253 5014 1945 
Q 5297 1638 5297 1041 
Q 5297 459 5011 145 
Q 4725 -169 4303 -169 
Q 3888 -169 3611 142 
Q 3334 453 3334 1075 
z
M 4316 1866 
Q 4103 1866 3964 1684 
Q 3825 1503 3825 1019 
Q 3825 581 3965 400 
Q 4106 219 4313 219 
Q 4528 219 4667 400 
Q 4806 581 4806 1063 
Q 4806 1506 4665 1686 
Q 4525 1866 4316 1866 
z
" transform="scale(0.015625)"/>
       <path id="ArialMT-64" d="M 2575 0 
L 2575 419 
Q 2259 -75 1647 -75 
Q 1250 -75 917 144 
Q 584 363 401 755 
Q 219 1147 219 1656 
Q 219 2153 384 2558 
Q 550 2963 881 3178 
Q 1213 3394 1622 3394 
Q 1922 3394 2156 3267 
Q 2391 3141 2538 2938 
L 2538 4581 
L 3097 4581 
L 3097 0 
L 2575 0 
z
M 797 1656 
Q 797 1019 1065 703 
Q 1334 388 1700 388 
Q 2069 388 2326 689 
Q 2584 991 2584 1609 
Q 2584 2291 2321 2609 
Q 2059 2928 1675 2928 
Q 1300 2928 1048 2622 
Q 797 2316 797 1656 
z
" transform="scale(0.015625)"/>
      </defs>
      <use xlink:href="#DejaVuSans-Oblique-66" transform="translate(0 0.765625)"/>
      <use xlink:href="#DejaVuSans-28" transform="translate(35.205078 0.765625)"/>
      <use xlink:href="#DejaVuSans-Bold-78" transform="translate(74.21875 0.765625)"/>
      <use xlink:href="#DejaVuSans-2a" transform="translate(153.31543 39.046875) scale(0.7)"/>
      <use xlink:href="#DejaVuSans-29" transform="translate(204.6875 0.765625)"/>
      <use xlink:href="#ArialMT-20" transform="translate(243.701172 0.765625)"/>
      <use xlink:href="#ArialMT-39" transform="translate(271.484375 0.765625)"/>
      <use xlink:href="#ArialMT-35" transform="translate(327.099609 0.765625)"/>
      <use xlink:href="#ArialMT-25" transform="translate(382.714844 0.765625)"/>
      <use xlink:href="#ArialMT-20" transform="translate(471.630859 0.765625)"/>
      <use xlink:href="#ArialMT-70" transform="translate(499.414062 0.765625)"/>
      <use xlink:href="#ArialMT-72" transform="translate(555.029297 0.765625)"/>
      <use xlink:href="#ArialMT-65" transform="translate(588.330078 0.765625)"/>
      <use xlink:href="#ArialMT-64" transform="translate(643.945312 0.765625)"/>
      <use xlink:href="#ArialMT-2e" transform="translate(699.560547 0.765625)"/>
     </g>
    </g>
    <g id="patch_6">
     <path d="M 51.1265 263.996125 
L 68.7265 263.996125 
L 68.7265 257.836125 
L 51.1265 257.836125 
z
" style="fill: #ff7f0e; fill-opacity: 0.5; stroke: #ff7f0e; stroke-opacity: 0.5; stroke-width: 0.8; stroke-linejoin: miter"/>
    </g>
    <g id="text_20">
     <!-- $y^*$ 95% pred. -->
     <g style="fill: #262626" transform="translate(75.7665 263.996125) scale(0.088 -0.088)">
      <use xlink:href="#DejaVuSans-Oblique-79" transform="translate(0 0.765625)"/>
      <use xlink:href="#DejaVuSans-2a" transform="translate(77.283529 39.046875) scale(0.7)"/>
      <use xlink:href="#ArialMT-20" transform="translate(128.655599 0.765625)"/>
      <use xlink:href="#ArialMT-39" transform="translate(156.438802 0.765625)"/>
      <use xlink:href="#ArialMT-35" transform="translate(212.054036 0.765625)"/>
      <use xlink:href="#ArialMT-25" transform="translate(267.669271 0.765625)"/>
      <use xlink:href="#ArialMT-20" transform="translate(356.585286 0.765625)"/>
      <use xlink:href="#ArialMT-70" transform="translate(384.36849 0.765625)"/>
      <use xlink:href="#ArialMT-72" transform="translate(439.983724 0.765625)"/>
      <use xlink:href="#ArialMT-65" transform="translate(473.284505 0.765625)"/>
      <use xlink:href="#ArialMT-64" transform="translate(528.89974 0.765625)"/>
      <use xlink:href="#ArialMT-2e" transform="translate(584.514974 0.765625)"/>
     </g>
    </g>
    <g id="line2d_19">
     <path d="M 51.1265 273.463 
L 59.9265 273.463 
L 68.7265 273.463 
" style="fill: none; stroke-dasharray: 7.68,1.92,1.2,1.92; stroke-dashoffset: 0; stroke: #bf00bf; stroke-width: 1.2"/>
    </g>
    <g id="text_21">
     <!-- True function -->
     <g style="fill: #262626" transform="translate(75.7665 276.543) scale(0.088 -0.088)">
      <defs>
       <path id="ArialMT-54" d="M 1659 0 
L 1659 4041 
L 150 4041 
L 150 4581 
L 3781 4581 
L 3781 4041 
L 2266 4041 
L 2266 0 
L 1659 0 
z
" transform="scale(0.015625)"/>
       <path id="ArialMT-75" d="M 2597 0 
L 2597 488 
Q 2209 -75 1544 -75 
Q 1250 -75 995 37 
Q 741 150 617 320 
Q 494 491 444 738 
Q 409 903 409 1263 
L 409 3319 
L 972 3319 
L 972 1478 
Q 972 1038 1006 884 
Q 1059 663 1231 536 
Q 1403 409 1656 409 
Q 1909 409 2131 539 
Q 2353 669 2445 892 
Q 2538 1116 2538 1541 
L 2538 3319 
L 3100 3319 
L 3100 0 
L 2597 0 
z
" transform="scale(0.015625)"/>
       <path id="ArialMT-66" d="M 556 0 
L 556 2881 
L 59 2881 
L 59 3319 
L 556 3319 
L 556 3672 
Q 556 4006 616 4169 
Q 697 4388 901 4523 
Q 1106 4659 1475 4659 
Q 1713 4659 2000 4603 
L 1916 4113 
Q 1741 4144 1584 4144 
Q 1328 4144 1222 4034 
Q 1116 3925 1116 3625 
L 1116 3319 
L 1763 3319 
L 1763 2881 
L 1116 2881 
L 1116 0 
L 556 0 
z
" transform="scale(0.015625)"/>
       <path id="ArialMT-63" d="M 2588 1216 
L 3141 1144 
Q 3050 572 2676 248 
Q 2303 -75 1759 -75 
Q 1078 -75 664 370 
Q 250 816 250 1647 
Q 250 2184 428 2587 
Q 606 2991 970 3192 
Q 1334 3394 1763 3394 
Q 2303 3394 2647 3120 
Q 2991 2847 3088 2344 
L 2541 2259 
Q 2463 2594 2264 2762 
Q 2066 2931 1784 2931 
Q 1359 2931 1093 2626 
Q 828 2322 828 1663 
Q 828 994 1084 691 
Q 1341 388 1753 388 
Q 2084 388 2306 591 
Q 2528 794 2588 1216 
z
" transform="scale(0.015625)"/>
      </defs>
      <use xlink:href="#ArialMT-54"/>
      <use xlink:href="#ArialMT-72" x="57.333984"/>
      <use xlink:href="#ArialMT-75" x="90.634766"/>
      <use xlink:href="#ArialMT-65" x="146.25"/>
      <use xlink:href="#ArialMT-20" x="201.865234"/>
      <use xlink:href="#ArialMT-66" x="229.648438"/>
      <use xlink:href="#ArialMT-75" x="257.431641"/>
      <use xlink:href="#ArialMT-6e" x="313.046875"/>
      <use xlink:href="#ArialMT-63" x="368.662109"/>
      <use xlink:href="#ArialMT-74" x="418.662109"/>
      <use xlink:href="#ArialMT-69" x="446.445312"/>
      <use xlink:href="#ArialMT-6f" x="468.662109"/>
      <use xlink:href="#ArialMT-6e" x="524.277344"/>
     </g>
    </g>
   </g>
  </g>
  <g id="axes_2">
   <g id="matplotlib.axis_3">
    <g id="ytick_8">
     <g id="line2d_20">
      <defs>
       <path id="me060e3c065" d="M 0 0 
L 4.8 0 
" style="stroke: #262626"/>
      </defs>
      <g>
       <use xlink:href="#me060e3c065" x="400.3265" y="274.116" style="fill: #262626; stroke: #262626"/>
      </g>
     </g>
     <g id="text_22">
      <!-- 0.00 -->
      <g style="fill: #ff7f0e" transform="translate(408.6265 277.265437) scale(0.088 -0.088)">
       <use xlink:href="#ArialMT-30"/>
       <use xlink:href="#ArialMT-2e" x="55.615234"/>
       <use xlink:href="#ArialMT-30" x="83.398438"/>
       <use xlink:href="#ArialMT-30" x="139.013672"/>
      </g>
     </g>
    </g>
    <g id="ytick_9">
     <g id="line2d_21">
      <g>
       <use xlink:href="#me060e3c065" x="400.3265" y="226.132213" style="fill: #262626; stroke: #262626"/>
      </g>
     </g>
     <g id="text_23">
      <!-- 0.05 -->
      <g style="fill: #ff7f0e" transform="translate(408.6265 229.281651) scale(0.088 -0.088)">
       <use xlink:href="#ArialMT-30"/>
       <use xlink:href="#ArialMT-2e" x="55.615234"/>
       <use xlink:href="#ArialMT-30" x="83.398438"/>
       <use xlink:href="#ArialMT-35" x="139.013672"/>
      </g>
     </g>
    </g>
    <g id="ytick_10">
     <g id="line2d_22">
      <g>
       <use xlink:href="#me060e3c065" x="400.3265" y="178.148427" style="fill: #262626; stroke: #262626"/>
      </g>
     </g>
     <g id="text_24">
      <!-- 0.10 -->
      <g style="fill: #ff7f0e" transform="translate(408.6265 181.297864) scale(0.088 -0.088)">
       <use xlink:href="#ArialMT-30"/>
       <use xlink:href="#ArialMT-2e" x="55.615234"/>
       <use xlink:href="#ArialMT-31" x="83.398438"/>
       <use xlink:href="#ArialMT-30" x="139.013672"/>
      </g>
     </g>
    </g>
    <g id="ytick_11">
     <g id="line2d_23">
      <g>
       <use xlink:href="#me060e3c065" x="400.3265" y="130.16464" style="fill: #262626; stroke: #262626"/>
      </g>
     </g>
     <g id="text_25">
      <!-- 0.15 -->
      <g style="fill: #ff7f0e" transform="translate(408.6265 133.314078) scale(0.088 -0.088)">
       <use xlink:href="#ArialMT-30"/>
       <use xlink:href="#ArialMT-2e" x="55.615234"/>
       <use xlink:href="#ArialMT-31" x="83.398438"/>
       <use xlink:href="#ArialMT-35" x="139.013672"/>
      </g>
     </g>
    </g>
    <g id="ytick_12">
     <g id="line2d_24">
      <g>
       <use xlink:href="#me060e3c065" x="400.3265" y="82.180854" style="fill: #262626; stroke: #262626"/>
      </g>
     </g>
     <g id="text_26">
      <!-- 0.20 -->
      <g style="fill: #ff7f0e" transform="translate(408.6265 85.330291) scale(0.088 -0.088)">
       <use xlink:href="#ArialMT-30"/>
       <use xlink:href="#ArialMT-2e" x="55.615234"/>
       <use xlink:href="#ArialMT-32" x="83.398438"/>
       <use xlink:href="#ArialMT-30" x="139.013672"/>
      </g>
     </g>
    </g>
    <g id="ytick_13">
     <g id="line2d_25">
      <g>
       <use xlink:href="#me060e3c065" x="400.3265" y="34.197067" style="fill: #262626; stroke: #262626"/>
      </g>
     </g>
     <g id="text_27">
      <!-- 0.25 -->
      <g style="fill: #ff7f0e" transform="translate(408.6265 37.346505) scale(0.088 -0.088)">
       <use xlink:href="#ArialMT-30"/>
       <use xlink:href="#ArialMT-2e" x="55.615234"/>
       <use xlink:href="#ArialMT-32" x="83.398438"/>
       <use xlink:href="#ArialMT-35" x="139.013672"/>
      </g>
     </g>
    </g>
    <g id="text_28">
     <!-- Information Acquisition Function -->
     <g style="fill: #ff7f0e" transform="translate(436.740625 221.18925) rotate(-90) scale(0.096 -0.096)">
      <defs>
       <path id="ArialMT-49" d="M 597 0 
L 597 4581 
L 1203 4581 
L 1203 0 
L 597 0 
z
" transform="scale(0.015625)"/>
       <path id="ArialMT-6d" d="M 422 0 
L 422 3319 
L 925 3319 
L 925 2853 
Q 1081 3097 1340 3245 
Q 1600 3394 1931 3394 
Q 2300 3394 2536 3241 
Q 2772 3088 2869 2813 
Q 3263 3394 3894 3394 
Q 4388 3394 4653 3120 
Q 4919 2847 4919 2278 
L 4919 0 
L 4359 0 
L 4359 2091 
Q 4359 2428 4304 2576 
Q 4250 2725 4106 2815 
Q 3963 2906 3769 2906 
Q 3419 2906 3187 2673 
Q 2956 2441 2956 1928 
L 2956 0 
L 2394 0 
L 2394 2156 
Q 2394 2531 2256 2718 
Q 2119 2906 1806 2906 
Q 1569 2906 1367 2781 
Q 1166 2656 1075 2415 
Q 984 2175 984 1722 
L 984 0 
L 422 0 
z
" transform="scale(0.015625)"/>
       <path id="ArialMT-41" d="M -9 0 
L 1750 4581 
L 2403 4581 
L 4278 0 
L 3588 0 
L 3053 1388 
L 1138 1388 
L 634 0 
L -9 0 
z
M 1313 1881 
L 2866 1881 
L 2388 3150 
Q 2169 3728 2063 4100 
Q 1975 3659 1816 3225 
L 1313 1881 
z
" transform="scale(0.015625)"/>
       <path id="ArialMT-71" d="M 2538 -1272 
L 2538 353 
Q 2406 169 2170 47 
Q 1934 -75 1669 -75 
Q 1078 -75 651 397 
Q 225 869 225 1691 
Q 225 2191 398 2587 
Q 572 2984 901 3189 
Q 1231 3394 1625 3394 
Q 2241 3394 2594 2875 
L 2594 3319 
L 3100 3319 
L 3100 -1272 
L 2538 -1272 
z
M 803 1669 
Q 803 1028 1072 708 
Q 1341 388 1716 388 
Q 2075 388 2334 692 
Q 2594 997 2594 1619 
Q 2594 2281 2320 2615 
Q 2047 2950 1678 2950 
Q 1313 2950 1058 2639 
Q 803 2328 803 1669 
z
" transform="scale(0.015625)"/>
       <path id="ArialMT-46" d="M 525 0 
L 525 4581 
L 3616 4581 
L 3616 4041 
L 1131 4041 
L 1131 2622 
L 3281 2622 
L 3281 2081 
L 1131 2081 
L 1131 0 
L 525 0 
z
" transform="scale(0.015625)"/>
      </defs>
      <use xlink:href="#ArialMT-49"/>
      <use xlink:href="#ArialMT-6e" x="27.783203"/>
      <use xlink:href="#ArialMT-66" x="83.398438"/>
      <use xlink:href="#ArialMT-6f" x="111.181641"/>
      <use xlink:href="#ArialMT-72" x="166.796875"/>
      <use xlink:href="#ArialMT-6d" x="200.097656"/>
      <use xlink:href="#ArialMT-61" x="283.398438"/>
      <use xlink:href="#ArialMT-74" x="339.013672"/>
      <use xlink:href="#ArialMT-69" x="366.796875"/>
      <use xlink:href="#ArialMT-6f" x="389.013672"/>
      <use xlink:href="#ArialMT-6e" x="444.628906"/>
      <use xlink:href="#ArialMT-20" x="500.244141"/>
      <use xlink:href="#ArialMT-41" x="522.527344"/>
      <use xlink:href="#ArialMT-63" x="589.226562"/>
      <use xlink:href="#ArialMT-71" x="639.226562"/>
      <use xlink:href="#ArialMT-75" x="694.841797"/>
      <use xlink:href="#ArialMT-69" x="750.457031"/>
      <use xlink:href="#ArialMT-73" x="772.673828"/>
      <use xlink:href="#ArialMT-69" x="822.673828"/>
      <use xlink:href="#ArialMT-74" x="844.890625"/>
      <use xlink:href="#ArialMT-69" x="872.673828"/>
      <use xlink:href="#ArialMT-6f" x="894.890625"/>
      <use xlink:href="#ArialMT-6e" x="950.505859"/>
      <use xlink:href="#ArialMT-20" x="1006.121094"/>
      <use xlink:href="#ArialMT-46" x="1033.904297"/>
      <use xlink:href="#ArialMT-75" x="1094.988281"/>
      <use xlink:href="#ArialMT-6e" x="1150.603516"/>
      <use xlink:href="#ArialMT-63" x="1206.21875"/>
      <use xlink:href="#ArialMT-74" x="1256.21875"/>
      <use xlink:href="#ArialMT-69" x="1284.001953"/>
      <use xlink:href="#ArialMT-6f" x="1306.21875"/>
      <use xlink:href="#ArialMT-6e" x="1361.833984"/>
     </g>
    </g>
   </g>
   <g id="line2d_26">
    <path d="M 59.439227 32.196 
L 62.718566 49.954892 
L 65.997905 68.426567 
L 69.277244 87.559974 
L 72.556583 107.27523 
L 75.835921 127.454359 
L 79.115261 147.923898 
L 82.394598 168.437454 
L 85.673938 188.655108 
L 88.953278 208.11825 
L 92.232615 226.225955 
L 95.511955 242.249221 
L 98.791295 255.389208 
L 102.070632 264.958242 
L 105.349969 270.729035 
L 108.629311 273.296508 
L 111.908649 274.005773 
L 115.187986 274.106762 
L 118.467328 274.11417 
L 121.746666 274.108707 
L 125.026003 273.902182 
L 128.305345 270.494139 
L 131.584682 253.401955 
L 134.86402 218.304971 
L 138.143362 178.721159 
L 141.422694 153.923954 
L 144.702037 158.057536 
L 147.981379 194.180966 
L 151.260711 242.559938 
L 154.540053 268.686297 
L 157.819395 273.487874 
L 161.098728 273.929238 
L 164.37807 273.948858 
L 167.657412 273.899408 
L 170.936745 273.840148 
L 174.216087 273.802109 
L 177.495429 273.798276 
L 180.774762 273.827563 
L 184.054104 273.880274 
L 187.333446 273.943253 
L 190.612778 274.004029 
L 193.892121 274.053336 
L 197.171463 274.086827 
L 200.450795 274.105303 
L 203.730137 274.113169 
L 207.00948 274.115514 
L 210.288812 274.115971 
L 213.568154 274.116 
L 216.847496 274.116 
L 220.126829 274.116 
L 223.406181 274.116 
L 226.685504 274.116 
L 229.964846 274.116 
L 233.244188 274.116 
L 236.523511 274.116 
L 239.802872 274.116 
L 243.082195 274.116 
L 246.361537 274.116 
L 249.640879 274.116 
L 252.920222 274.116 
L 256.199564 274.116 
L 259.478887 274.116 
L 262.758248 274.116 
L 266.037571 274.116 
L 269.316913 274.116 
L 272.596255 274.116 
L 275.875578 274.116 
L 279.15494 274.116 
L 282.434262 274.116 
L 285.713605 274.116 
L 288.992947 274.116 
L 292.272289 274.116 
L 295.551631 274.116 
L 298.830954 274.116 
L 302.110315 274.116 
L 305.389638 274.116 
L 308.66898 274.116 
L 311.948322 274.116 
L 315.227645 274.116 
L 318.507007 274.116 
L 321.78633 274.116 
L 325.065672 274.116 
L 328.345014 274.116 
L 331.624356 274.116 
L 334.903698 274.116 
L 338.183021 274.116 
L 341.462363 274.116 
L 344.741705 274.116 
L 348.021048 274.116 
L 351.30039 274.116 
L 354.579713 274.116 
L 357.859055 274.116 
L 361.138397 274.116 
L 364.417739 274.116 
L 367.697081 274.116 
L 370.976423 274.116 
L 374.255766 274.116 
L 377.535088 274.116 
L 380.814431 274.116 
L 384.093773 274.116 
" clip-path="url(#p2a8fe0773f)" style="fill: none; stroke: #ff7f0e; stroke-width: 1.2; stroke-linecap: round"/>
   </g>
   <g id="line2d_27">
    <path d="M 59.439227 274.116 
L 59.439227 271.672364 
L 59.439227 269.228727 
L 59.439227 266.785091 
L 59.439227 264.341455 
L 59.439227 261.897819 
L 59.439227 259.454182 
L 59.439227 257.010545 
L 59.439227 254.566909 
L 59.439227 252.123273 
L 59.439227 249.679637 
L 59.439227 247.236 
L 59.439227 244.792364 
L 59.439227 242.348726 
L 59.439227 239.90509 
L 59.439227 237.461454 
L 59.439227 235.017819 
L 59.439227 232.574183 
L 59.439227 230.130547 
L 59.439227 227.686911 
L 59.439227 225.243275 
L 59.439227 222.799635 
L 59.439227 220.356 
L 59.439227 217.912364 
L 59.439227 215.468728 
L 59.439227 213.025092 
L 59.439227 210.581452 
L 59.439227 208.13782 
L 59.439227 205.694181 
L 59.439227 203.250548 
L 59.439227 200.806909 
L 59.439227 198.363277 
L 59.439227 195.919637 
L 59.439227 193.475998 
L 59.439227 191.032365 
L 59.439227 188.588726 
L 59.439227 186.145094 
L 59.439227 183.701454 
L 59.439227 181.257822 
L 59.439227 178.814182 
L 59.439227 176.37055 
L 59.439227 173.92691 
L 59.439227 171.483271 
L 59.439227 169.039639 
L 59.439227 166.595999 
L 59.439227 164.152367 
L 59.439227 161.708727 
L 59.439227 159.265095 
L 59.439227 156.821456 
L 59.439227 154.377816 
L 59.439227 151.934184 
L 59.439227 149.490552 
L 59.439227 147.046905 
L 59.439227 144.603273 
L 59.439227 142.159626 
L 59.439227 139.715994 
L 59.439227 137.272361 
L 59.439227 134.828729 
L 59.439227 132.385097 
L 59.439227 129.94145 
L 59.439227 127.497818 
L 59.439227 125.054171 
L 59.439227 122.610539 
L 59.439227 120.166906 
L 59.439227 117.723274 
L 59.439227 115.279642 
L 59.439227 112.83601 
L 59.439227 110.392363 
L 59.439227 107.948716 
L 59.439227 105.505084 
L 59.439227 103.061452 
L 59.439227 100.617819 
L 59.439227 98.174187 
L 59.439227 95.730555 
L 59.439227 93.286908 
L 59.439227 90.843276 
L 59.439227 88.399629 
L 59.439227 85.955997 
L 59.439227 83.512365 
L 59.439227 81.068732 
L 59.439227 78.625086 
L 59.439227 76.181453 
L 59.439227 73.737821 
L 59.439227 71.294174 
L 59.439227 68.850542 
L 59.439227 66.40691 
L 59.439227 63.963277 
L 59.439227 61.519631 
L 59.439227 59.075998 
L 59.439227 56.632366 
L 59.439227 54.188719 
L 59.439227 51.745087 
L 59.439227 49.301455 
L 59.439227 46.857823 
L 59.439227 44.414176 
L 59.439227 41.970544 
L 59.439227 39.526911 
L 59.439227 37.083279 
L 59.439227 34.639632 
L 59.439227 32.196 
" clip-path="url(#p2a8fe0773f)" style="fill: none; stroke: #ff7f0e; stroke-linecap: round"/>
   </g>
   <g id="patch_7">
    <path d="M 43.2065 286.212 
L 43.2065 20.1 
" style="fill: none; stroke: #262626; stroke-linejoin: miter; stroke-linecap: square"/>
   </g>
   <g id="patch_8">
    <path d="M 400.3265 286.212 
L 400.3265 20.1 
" style="fill: none; stroke: #262626; stroke-linejoin: miter; stroke-linecap: square"/>
   </g>
   <g id="patch_9">
    <path d="M 43.2065 286.212 
L 400.3265 286.212 
" style="fill: none; stroke: #262626; stroke-linejoin: miter; stroke-linecap: square"/>
   </g>
   <g id="patch_10">
    <path d="M 43.2065 20.1 
L 400.3265 20.1 
" style="fill: none; stroke: #262626; stroke-linejoin: miter; stroke-linecap: square"/>
   </g>
  </g>
 </g>
 <defs>
  <clipPath id="p2a8fe0773f">
   <rect x="43.2065" y="20.1" width="357.12" height="266.112"/>
  </clipPath>
 </defs>
</svg>