<?xml version="1.0" encoding="utf-8" standalone="no"?>
<!DOCTYPE svg PUBLIC "-//W3C//DTD SVG 1.1//EN"
  "http://www.w3.org/Graphics/SVG/1.1/DTD/svg11.dtd">
<svg xmlns:xlink="http://www.w3.org/1999/xlink" width="377.215225pt" height="309.731375pt" viewBox="0 0 377.215225 309.731375" xmlns="http://www.w3.org/2000/svg" version="1.1">
 <metadata>
  <rdf:RDF xmlns:dc="http://purl.org/dc/elements/1.1/" xmlns:cc="http://creativecommons.org/ns#" xmlns:rdf="http://www.w3.org/1999/02/22-rdf-syntax-ns#">
   <cc:Work>
    <dc:type rdf:resource="http://purl.org/dc/dcmitype/StillImage"/>
    <dc:date>2023-10-23T20:24:17.289811</dc:date>
    <dc:format>image/svg+xml</dc:format>
    <dc:creator>
     <cc:Agent>
      <dc:title>Matplotlib v3.8.0, https://matplotlib.org/</dc:title>
     </cc:Agent>
    </dc:creator>
   </cc:Work>
  </rdf:RDF>
 </metadata>
 <defs>
  <style type="text/css">*{stroke-linejoin: round; stroke-linecap: butt}</style>
 </defs>
 <g id="figure_1">
  <g id="patch_1">
   <path d="M 0 309.731375 
L 377.215225 309.731375 
L 377.215225 0 
L 0 0 
z
" style="fill: #ffffff"/>
  </g>
  <g id="axes_1">
   <g id="patch_2">
    <path d="M 27.732 286.1835 
L 313.428 286.1835 
L 313.428 20.0715 
L 27.732 20.0715 
z
" style="fill: #ffffff"/>
   </g>
   <g id="matplotlib.axis_1">
    <g id="xtick_1">
     <g id="line2d_1">
      <defs>
       <path id="m7292c9a849" d="M 0 0 
L 0 4.8 
" style="stroke: #262626"/>
      </defs>
      <g>
       <use xlink:href="#m7292c9a849" x="27.732" y="286.1835" style="fill: #262626; stroke: #262626"/>
      </g>
     </g>
     <g id="text_1">
      <!-- 0.0 -->
      <g style="fill: #262626" transform="translate(21.616 300.782375) scale(0.088 -0.088)">
       <defs>
        <path id="ArialMT-30" d="M 266 2259 
Q 266 3072 433 3567 
Q 600 4063 929 4331 
Q 1259 4600 1759 4600 
Q 2128 4600 2406 4451 
Q 2684 4303 2865 4023 
Q 3047 3744 3150 3342 
Q 3253 2941 3253 2259 
Q 3253 1453 3087 958 
Q 2922 463 2592 192 
Q 2263 -78 1759 -78 
Q 1097 -78 719 397 
Q 266 969 266 2259 
z
M 844 2259 
Q 844 1131 1108 757 
Q 1372 384 1759 384 
Q 2147 384 2411 759 
Q 2675 1134 2675 2259 
Q 2675 3391 2411 3762 
Q 2147 4134 1753 4134 
Q 1366 4134 1134 3806 
Q 844 3388 844 2259 
z
" transform="scale(0.015625)"/>
        <path id="ArialMT-2e" d="M 581 0 
L 581 641 
L 1222 641 
L 1222 0 
L 581 0 
z
" transform="scale(0.015625)"/>
       </defs>
       <use xlink:href="#ArialMT-30"/>
       <use xlink:href="#ArialMT-2e" x="55.615234"/>
       <use xlink:href="#ArialMT-30" x="83.398438"/>
      </g>
     </g>
    </g>
    <g id="xtick_2">
     <g id="line2d_2">
      <g>
       <use xlink:href="#m7292c9a849" x="84.8712" y="286.1835" style="fill: #262626; stroke: #262626"/>
      </g>
     </g>
     <g id="text_2">
      <!-- 0.2 -->
      <g style="fill: #262626" transform="translate(78.7552 300.782375) scale(0.088 -0.088)">
       <defs>
        <path id="ArialMT-32" d="M 3222 541 
L 3222 0 
L 194 0 
Q 188 203 259 391 
Q 375 700 629 1000 
Q 884 1300 1366 1694 
Q 2113 2306 2375 2664 
Q 2638 3022 2638 3341 
Q 2638 3675 2398 3904 
Q 2159 4134 1775 4134 
Q 1369 4134 1125 3890 
Q 881 3647 878 3216 
L 300 3275 
Q 359 3922 746 4261 
Q 1134 4600 1788 4600 
Q 2447 4600 2831 4234 
Q 3216 3869 3216 3328 
Q 3216 3053 3103 2787 
Q 2991 2522 2730 2228 
Q 2469 1934 1863 1422 
Q 1356 997 1212 845 
Q 1069 694 975 541 
L 3222 541 
z
" transform="scale(0.015625)"/>
       </defs>
       <use xlink:href="#ArialMT-30"/>
       <use xlink:href="#ArialMT-2e" x="55.615234"/>
       <use xlink:href="#ArialMT-32" x="83.398438"/>
      </g>
     </g>
    </g>
    <g id="xtick_3">
     <g id="line2d_3">
      <g>
       <use xlink:href="#m7292c9a849" x="142.0104" y="286.1835" style="fill: #262626; stroke: #262626"/>
      </g>
     </g>
     <g id="text_3">
      <!-- 0.4 -->
      <g style="fill: #262626" transform="translate(135.8944 300.782375) scale(0.088 -0.088)">
       <defs>
        <path id="ArialMT-34" d="M 2069 0 
L 2069 1097 
L 81 1097 
L 81 1613 
L 2172 4581 
L 2631 4581 
L 2631 1613 
L 3250 1613 
L 3250 1097 
L 2631 1097 
L 2631 0 
L 2069 0 
z
M 2069 1613 
L 2069 3678 
L 634 1613 
L 2069 1613 
z
" transform="scale(0.015625)"/>
       </defs>
       <use xlink:href="#ArialMT-30"/>
       <use xlink:href="#ArialMT-2e" x="55.615234"/>
       <use xlink:href="#ArialMT-34" x="83.398438"/>
      </g>
     </g>
    </g>
    <g id="xtick_4">
     <g id="line2d_4">
      <g>
       <use xlink:href="#m7292c9a849" x="199.1496" y="286.1835" style="fill: #262626; stroke: #262626"/>
      </g>
     </g>
     <g id="text_4">
      <!-- 0.6 -->
      <g style="fill: #262626" transform="translate(193.0336 300.782375) scale(0.088 -0.088)">
       <defs>
        <path id="ArialMT-36" d="M 3184 3459 
L 2625 3416 
Q 2550 3747 2413 3897 
Q 2184 4138 1850 4138 
Q 1581 4138 1378 3988 
Q 1113 3794 959 3422 
Q 806 3050 800 2363 
Q 1003 2672 1297 2822 
Q 1591 2972 1913 2972 
Q 2475 2972 2870 2558 
Q 3266 2144 3266 1488 
Q 3266 1056 3080 686 
Q 2894 316 2569 119 
Q 2244 -78 1831 -78 
Q 1128 -78 684 439 
Q 241 956 241 2144 
Q 241 3472 731 4075 
Q 1159 4600 1884 4600 
Q 2425 4600 2770 4297 
Q 3116 3994 3184 3459 
z
M 888 1484 
Q 888 1194 1011 928 
Q 1134 663 1356 523 
Q 1578 384 1822 384 
Q 2178 384 2434 671 
Q 2691 959 2691 1453 
Q 2691 1928 2437 2201 
Q 2184 2475 1800 2475 
Q 1419 2475 1153 2201 
Q 888 1928 888 1484 
z
" transform="scale(0.015625)"/>
       </defs>
       <use xlink:href="#ArialMT-30"/>
       <use xlink:href="#ArialMT-2e" x="55.615234"/>
       <use xlink:href="#ArialMT-36" x="83.398438"/>
      </g>
     </g>
    </g>
    <g id="xtick_5">
     <g id="line2d_5">
      <g>
       <use xlink:href="#m7292c9a849" x="256.2888" y="286.1835" style="fill: #262626; stroke: #262626"/>
      </g>
     </g>
     <g id="text_5">
      <!-- 0.8 -->
      <g style="fill: #262626" transform="translate(250.1728 300.782375) scale(0.088 -0.088)">
       <defs>
        <path id="ArialMT-38" d="M 1131 2484 
Q 781 2613 612 2850 
Q 444 3088 444 3419 
Q 444 3919 803 4259 
Q 1163 4600 1759 4600 
Q 2359 4600 2725 4251 
Q 3091 3903 3091 3403 
Q 3091 3084 2923 2848 
Q 2756 2613 2416 2484 
Q 2838 2347 3058 2040 
Q 3278 1734 3278 1309 
Q 3278 722 2862 322 
Q 2447 -78 1769 -78 
Q 1091 -78 675 323 
Q 259 725 259 1325 
Q 259 1772 486 2073 
Q 713 2375 1131 2484 
z
M 1019 3438 
Q 1019 3113 1228 2906 
Q 1438 2700 1772 2700 
Q 2097 2700 2305 2904 
Q 2513 3109 2513 3406 
Q 2513 3716 2298 3927 
Q 2084 4138 1766 4138 
Q 1444 4138 1231 3931 
Q 1019 3725 1019 3438 
z
M 838 1322 
Q 838 1081 952 856 
Q 1066 631 1291 507 
Q 1516 384 1775 384 
Q 2178 384 2440 643 
Q 2703 903 2703 1303 
Q 2703 1709 2433 1975 
Q 2163 2241 1756 2241 
Q 1359 2241 1098 1978 
Q 838 1716 838 1322 
z
" transform="scale(0.015625)"/>
       </defs>
       <use xlink:href="#ArialMT-30"/>
       <use xlink:href="#ArialMT-2e" x="55.615234"/>
       <use xlink:href="#ArialMT-38" x="83.398438"/>
      </g>
     </g>
    </g>
    <g id="xtick_6">
     <g id="line2d_6">
      <g>
       <use xlink:href="#m7292c9a849" x="313.428" y="286.1835" style="fill: #262626; stroke: #262626"/>
      </g>
     </g>
     <g id="text_6">
      <!-- 1.0 -->
      <g style="fill: #262626" transform="translate(307.312 300.782375) scale(0.088 -0.088)">
       <defs>
        <path id="ArialMT-31" d="M 2384 0 
L 1822 0 
L 1822 3584 
Q 1619 3391 1289 3197 
Q 959 3003 697 2906 
L 697 3450 
Q 1169 3672 1522 3987 
Q 1875 4303 2022 4600 
L 2384 4600 
L 2384 0 
z
" transform="scale(0.015625)"/>
       </defs>
       <use xlink:href="#ArialMT-31"/>
       <use xlink:href="#ArialMT-2e" x="55.615234"/>
       <use xlink:href="#ArialMT-30" x="83.398438"/>
      </g>
     </g>
    </g>
   </g>
   <g id="matplotlib.axis_2">
    <g id="ytick_1">
     <g id="line2d_7">
      <defs>
       <path id="m49b1589ac5" d="M 0 0 
L -4.8 0 
" style="stroke: #262626"/>
      </defs>
      <g>
       <use xlink:href="#m49b1589ac5" x="27.732" y="286.1835" style="fill: #262626; stroke: #262626"/>
      </g>
     </g>
     <g id="text_7">
      <!-- 0.0 -->
      <g style="fill: #262626" transform="translate(7.2 289.332937) scale(0.088 -0.088)">
       <use xlink:href="#ArialMT-30"/>
       <use xlink:href="#ArialMT-2e" x="55.615234"/>
       <use xlink:href="#ArialMT-30" x="83.398438"/>
      </g>
     </g>
    </g>
    <g id="ytick_2">
     <g id="line2d_8">
      <g>
       <use xlink:href="#m49b1589ac5" x="27.732" y="232.9611" style="fill: #262626; stroke: #262626"/>
      </g>
     </g>
     <g id="text_8">
      <!-- 0.2 -->
      <g style="fill: #262626" transform="translate(7.2 236.110537) scale(0.088 -0.088)">
       <use xlink:href="#ArialMT-30"/>
       <use xlink:href="#ArialMT-2e" x="55.615234"/>
       <use xlink:href="#ArialMT-32" x="83.398438"/>
      </g>
     </g>
    </g>
    <g id="ytick_3">
     <g id="line2d_9">
      <g>
       <use xlink:href="#m49b1589ac5" x="27.732" y="179.7387" style="fill: #262626; stroke: #262626"/>
      </g>
     </g>
     <g id="text_9">
      <!-- 0.4 -->
      <g style="fill: #262626" transform="translate(7.2 182.888137) scale(0.088 -0.088)">
       <use xlink:href="#ArialMT-30"/>
       <use xlink:href="#ArialMT-2e" x="55.615234"/>
       <use xlink:href="#ArialMT-34" x="83.398438"/>
      </g>
     </g>
    </g>
    <g id="ytick_4">
     <g id="line2d_10">
      <g>
       <use xlink:href="#m49b1589ac5" x="27.732" y="126.5163" style="fill: #262626; stroke: #262626"/>
      </g>
     </g>
     <g id="text_10">
      <!-- 0.6 -->
      <g style="fill: #262626" transform="translate(7.2 129.665737) scale(0.088 -0.088)">
       <use xlink:href="#ArialMT-30"/>
       <use xlink:href="#ArialMT-2e" x="55.615234"/>
       <use xlink:href="#ArialMT-36" x="83.398438"/>
      </g>
     </g>
    </g>
    <g id="ytick_5">
     <g id="line2d_11">
      <g>
       <use xlink:href="#m49b1589ac5" x="27.732" y="73.2939" style="fill: #262626; stroke: #262626"/>
      </g>
     </g>
     <g id="text_11">
      <!-- 0.8 -->
      <g style="fill: #262626" transform="translate(7.2 76.443337) scale(0.088 -0.088)">
       <use xlink:href="#ArialMT-30"/>
       <use xlink:href="#ArialMT-2e" x="55.615234"/>
       <use xlink:href="#ArialMT-38" x="83.398438"/>
      </g>
     </g>
    </g>
    <g id="ytick_6">
     <g id="line2d_12">
      <g>
       <use xlink:href="#m49b1589ac5" x="27.732" y="20.0715" style="fill: #262626; stroke: #262626"/>
      </g>
     </g>
     <g id="text_12">
      <!-- 1.0 -->
      <g style="fill: #262626" transform="translate(7.2 23.220937) scale(0.088 -0.088)">
       <use xlink:href="#ArialMT-31"/>
       <use xlink:href="#ArialMT-2e" x="55.615234"/>
       <use xlink:href="#ArialMT-30" x="83.398438"/>
      </g>
     </g>
    </g>
   </g>
   <g id="QuadContourSet_1">
    <path d="M 32.266857 286.1835 
L 36.801714 286.1835 
L 41.336571 286.1835 
L 45.871429 286.1835 
L 50.406286 286.1835 
L 54.941143 286.1835 
L 59.476 286.1835 
L 64.010857 286.1835 
L 68.545714 286.1835 
L 73.080571 286.1835 
L 77.615429 286.1835 
L 79.029014 286.1835 
L 79.027613 281.9595 
L 79.017798 277.7355 
L 78.991159 273.5115 
L 78.939264 269.2875 
L 78.853673 265.0635 
L 78.72589 260.8395 
L 78.547364 256.6155 
L 78.30945 252.3915 
L 78.003387 248.1675 
L 77.620244 243.9435 
L 77.615429 243.900095 
L 77.166973 239.7195 
L 76.621595 235.4955 
L 75.974603 231.2715 
L 75.216286 227.0475 
L 74.336489 222.8235 
L 73.324547 218.5995 
L 73.080571 217.704691 
L 72.200716 214.3755 
L 70.935506 210.1515 
L 69.508216 205.9275 
L 68.545714 203.384889 
L 67.927756 201.7035 
L 66.197824 197.4795 
L 64.270536 193.2555 
L 64.010857 192.739769 
L 62.194723 189.0315 
L 59.90538 184.8075 
L 59.476 184.085491 
L 57.447458 180.5835 
L 54.941143 176.652259 
L 54.759197 176.3595 
L 51.893654 172.1355 
L 50.406286 170.130334 
L 48.799443 167.9115 
L 45.871429 164.206314 
L 45.470813 163.6875 
L 41.927635 159.4635 
L 41.336571 158.813771 
L 38.154154 155.2395 
L 36.801714 153.837864 
L 34.133879 151.0155 
L 32.266857 149.189218 
L 29.863352 146.7915 
L 27.732 144.821832 
L 27.732 146.7915 
L 27.732 151.0155 
L 27.732 155.2395 
L 27.732 159.4635 
L 27.732 163.6875 
L 27.732 167.9115 
L 27.732 172.1355 
L 27.732 176.3595 
L 27.732 180.5835 
L 27.732 184.8075 
L 27.732 189.0315 
L 27.732 193.2555 
L 27.732 197.4795 
L 27.732 201.7035 
L 27.732 205.9275 
L 27.732 210.1515 
L 27.732 214.3755 
L 27.732 218.5995 
L 27.732 222.8235 
L 27.732 227.0475 
L 27.732 231.2715 
L 27.732 235.4955 
L 27.732 239.7195 
L 27.732 243.9435 
L 27.732 248.1675 
L 27.732 252.3915 
L 27.732 256.6155 
L 27.732 260.8395 
L 27.732 265.0635 
L 27.732 269.2875 
L 27.732 273.5115 
L 27.732 277.7355 
L 27.732 281.9595 
L 27.732 286.1835 
z
" clip-path="url(#p1ebe9b7bc0)" style="fill: #1b112b"/>
    <path d="M 82.150286 286.1835 
L 86.685143 286.1835 
L 91.22 286.1835 
L 95.754857 286.1835 
L 100.289714 286.1835 
L 104.824571 286.1835 
L 109.359429 286.1835 
L 113.894286 286.1835 
L 118.429143 286.1835 
L 122.964 286.1835 
L 127.498857 286.1835 
L 132.033714 286.1835 
L 136.568571 286.1835 
L 141.103429 286.1835 
L 145.638286 286.1835 
L 150.173143 286.1835 
L 154.708 286.1835 
L 159.242857 286.1835 
L 163.777714 286.1835 
L 167.566977 286.1835 
L 167.564777 281.9595 
L 167.549359 277.7355 
L 167.507489 273.5115 
L 167.425932 269.2875 
L 167.291339 265.0635 
L 167.090331 260.8395 
L 166.809338 256.6155 
L 166.434547 252.3915 
L 165.951886 248.1675 
L 165.346778 243.9435 
L 164.604238 239.7195 
L 163.777714 235.820798 
L 163.711685 235.4955 
L 162.694936 231.2715 
L 161.499817 227.0475 
L 160.108643 222.8235 
L 159.242857 220.540935 
L 158.535781 218.5995 
L 156.777428 214.3755 
L 154.773342 210.1515 
L 154.708 210.029145 
L 152.599365 205.9275 
L 150.173143 201.746585 
L 150.149043 201.7035 
L 147.51331 197.4795 
L 145.638286 194.790382 
L 144.604598 193.2555 
L 141.44303 189.0315 
L 141.103429 188.62062 
L 138.05304 184.8075 
L 136.568571 183.127109 
L 134.390886 180.5835 
L 132.033714 178.081933 
L 130.458782 176.3595 
L 127.498857 173.409265 
L 126.25718 172.1355 
L 122.964 169.047802 
L 121.784977 167.9115 
L 118.429143 164.947642 
L 117.039328 163.6875 
L 113.894286 161.067852 
L 112.015701 159.4635 
L 109.359429 157.374701 
L 106.707791 155.2395 
L 104.824571 153.840202 
L 101.107313 151.0155 
L 100.289714 150.441046 
L 95.754857 147.180526 
L 95.226492 146.7915 
L 91.22 144.058795 
L 89.076248 142.5675 
L 86.685143 141.023856 
L 82.60897 138.3435 
L 82.150286 138.063122 
L 77.615429 135.22571 
L 75.880011 134.1195 
L 73.080571 132.458066 
L 68.83001 129.8955 
L 68.545714 129.73568 
L 64.010857 127.126289 
L 61.521025 125.6715 
L 59.476 124.555724 
L 54.941143 122.03968 
L 53.89495 121.4475 
L 50.406286 119.601052 
L 45.966182 117.2235 
L 45.871429 117.175997 
L 41.336571 114.849604 
L 37.768347 112.9995 
L 36.801714 112.529686 
L 32.266857 110.281904 
L 29.264858 108.7755 
L 27.732 108.05363 
L 27.732 108.7755 
L 27.732 112.9995 
L 27.732 117.2235 
L 27.732 121.4475 
L 27.732 125.6715 
L 27.732 129.8955 
L 27.732 134.1195 
L 27.732 138.3435 
L 27.732 142.5675 
L 27.732 144.821832 
L 29.863352 146.7915 
L 32.266857 149.189218 
L 34.133879 151.0155 
L 36.801714 153.837864 
L 38.154154 155.2395 
L 41.336571 158.813771 
L 41.927635 159.4635 
L 45.470813 163.6875 
L 45.871429 164.206314 
L 48.799443 167.9115 
L 50.406286 170.130334 
L 51.893654 172.1355 
L 54.759197 176.3595 
L 54.941143 176.652259 
L 57.447458 180.5835 
L 59.476 184.085491 
L 59.90538 184.8075 
L 62.194723 189.0315 
L 64.010857 192.739769 
L 64.270536 193.2555 
L 66.197824 197.4795 
L 67.927756 201.7035 
L 68.545714 203.384889 
L 69.508216 205.9275 
L 70.935506 210.1515 
L 72.200716 214.3755 
L 73.080571 217.704691 
L 73.324547 218.5995 
L 74.336489 222.8235 
L 75.216286 227.0475 
L 75.974603 231.2715 
L 76.621595 235.4955 
L 77.166973 239.7195 
L 77.615429 243.900095 
L 77.620244 243.9435 
L 78.003387 248.1675 
L 78.30945 252.3915 
L 78.547364 256.6155 
L 78.72589 260.8395 
L 78.853673 265.0635 
L 78.939264 269.2875 
L 78.991159 273.5115 
L 79.017798 277.7355 
L 79.027613 281.9595 
L 79.029014 286.1835 
z
" clip-path="url(#p1ebe9b7bc0)" style="fill: #511e4d"/>
    <path d="M 168.312571 286.1835 
L 172.847429 286.1835 
L 177.382286 286.1835 
L 181.917143 286.1835 
L 186.452 286.1835 
L 190.986857 286.1835 
L 195.521714 286.1835 
L 200.056571 286.1835 
L 204.591429 286.1835 
L 209.126286 286.1835 
L 213.661143 286.1835 
L 218.196 286.1835 
L 222.730857 286.1835 
L 227.265714 286.1835 
L 231.800571 286.1835 
L 236.335429 286.1835 
L 240.870286 286.1835 
L 245.405143 286.1835 
L 249.94 286.1835 
L 254.474857 286.1835 
L 259.009714 286.1835 
L 263.544571 286.1835 
L 268.079429 286.1835 
L 272.614286 286.1835 
L 277.149143 286.1835 
L 281.684 286.1835 
L 286.218857 286.1835 
L 290.753714 286.1835 
L 295.288571 286.1835 
L 299.823429 286.1835 
L 304.358286 286.1835 
L 308.893143 286.1835 
L 313.428 286.1835 
L 313.428 281.9595 
L 313.428 277.7355 
L 313.428 273.5115 
L 313.428 269.2875 
L 313.428 265.0635 
L 313.428 260.8395 
L 313.428 256.6155 
L 313.428 252.3915 
L 313.428 248.1675 
L 313.428 243.9435 
L 313.428 239.7195 
L 313.428 235.4955 
L 313.428 231.2715 
L 313.428 227.0475 
L 313.428 222.8235 
L 313.428 218.5995 
L 313.428 214.3755 
L 313.428 210.1515 
L 313.428 205.9275 
L 313.428 201.7035 
L 313.428 197.4795 
L 313.428 193.2555 
L 313.428 189.0315 
L 313.428 184.8075 
L 313.428 180.5835 
L 313.428 176.3595 
L 313.428 172.1355 
L 313.428 167.9115 
L 313.428 163.6875 
L 313.428 159.4635 
L 313.428 155.2395 
L 313.428 151.0155 
L 313.428 146.7915 
L 313.428 142.5675 
L 313.428 138.3435 
L 313.428 134.1195 
L 313.428 129.8955 
L 313.428 125.6715 
L 313.428 124.773719 
L 308.893143 125.578849 
L 308.327929 125.6715 
L 304.358286 126.346575 
L 299.823429 127.044556 
L 295.288571 127.668971 
L 290.753714 128.220943 
L 286.218857 128.701677 
L 281.684 129.112265 
L 277.149143 129.453832 
L 272.614286 129.727402 
L 268.93694 129.8955 
L 268.079429 129.936224 
L 263.544571 130.084938 
L 259.009714 130.165241 
L 254.474857 130.178202 
L 249.94 130.124931 
L 245.405143 130.00644 
L 242.668162 129.8955 
L 240.870286 129.827547 
L 236.335429 129.594634 
L 231.800571 129.30281 
L 227.265714 128.953002 
L 222.730857 128.546137 
L 218.196 128.083101 
L 213.661143 127.564761 
L 209.126286 126.99203 
L 204.591429 126.365717 
L 200.056571 125.686701 
L 199.963711 125.6715 
L 195.521714 124.992517 
L 190.986857 124.250643 
L 186.452 123.461084 
L 181.917143 122.624581 
L 177.382286 121.741904 
L 175.959411 121.4475 
L 172.847429 120.845427 
L 168.312571 119.921142 
L 163.777714 118.955035 
L 159.242857 117.947723 
L 156.123945 117.2235 
L 154.708 116.915673 
L 150.173143 115.880986 
L 145.638286 114.808933 
L 141.103429 113.70011 
L 138.345717 112.9995 
L 136.568571 112.576275 
L 132.033714 111.451858 
L 127.498857 110.294058 
L 122.964 109.103385 
L 121.762283 108.7755 
L 118.429143 107.922008 
L 113.894286 106.725514 
L 109.359429 105.499146 
L 105.950658 104.5515 
L 104.824571 104.257379 
L 100.289714 103.031036 
L 95.754857 101.777505 
L 91.22 100.497216 
L 90.639064 100.3275 
L 86.685143 99.241102 
L 82.150286 97.96775 
L 77.615429 96.670009 
L 75.689366 96.1035 
L 73.080571 95.381097 
L 68.545714 94.094225 
L 64.010857 92.7851 
L 60.941114 91.8795 
L 59.476 91.472185 
L 54.941143 90.177176 
L 50.406286 88.861859 
L 46.315669 87.6555 
L 45.871429 87.531925 
L 41.336571 86.233402 
L 36.801714 84.916322 
L 32.266857 83.580984 
L 31.772975 83.4315 
L 27.732 82.276799 
L 27.732 83.4315 
L 27.732 87.6555 
L 27.732 91.8795 
L 27.732 96.1035 
L 27.732 100.3275 
L 27.732 104.5515 
L 27.732 108.05363 
L 29.264858 108.7755 
L 32.266857 110.281904 
L 36.801714 112.529686 
L 37.768347 112.9995 
L 41.336571 114.849604 
L 45.871429 117.175997 
L 45.966182 117.2235 
L 50.406286 119.601052 
L 53.89495 121.4475 
L 54.941143 122.03968 
L 59.476 124.555724 
L 61.521025 125.6715 
L 64.010857 127.126289 
L 68.545714 129.73568 
L 68.83001 129.8955 
L 73.080571 132.458066 
L 75.880011 134.1195 
L 77.615429 135.22571 
L 82.150286 138.063122 
L 82.60897 138.3435 
L 86.685143 141.023856 
L 89.076248 142.5675 
L 91.22 144.058795 
L 95.226492 146.7915 
L 95.754857 147.180526 
L 100.289714 150.441046 
L 101.107313 151.0155 
L 104.824571 153.840202 
L 106.707791 155.2395 
L 109.359429 157.374701 
L 112.015701 159.4635 
L 113.894286 161.067852 
L 117.039328 163.6875 
L 118.429143 164.947642 
L 121.784977 167.9115 
L 122.964 169.047802 
L 126.25718 172.1355 
L 127.498857 173.409265 
L 130.458782 176.3595 
L 132.033714 178.081933 
L 134.390886 180.5835 
L 136.568571 183.127109 
L 138.05304 184.8075 
L 141.103429 188.62062 
L 141.44303 189.0315 
L 144.604598 193.2555 
L 145.638286 194.790382 
L 147.51331 197.4795 
L 150.149043 201.7035 
L 150.173143 201.746585 
L 152.599365 205.9275 
L 154.708 210.029145 
L 154.773342 210.1515 
L 156.777428 214.3755 
L 158.535781 218.5995 
L 159.242857 220.540935 
L 160.108643 222.8235 
L 161.499817 227.0475 
L 162.694936 231.2715 
L 163.711685 235.4955 
L 163.777714 235.820798 
L 164.604238 239.7195 
L 165.346778 243.9435 
L 165.951886 248.1675 
L 166.434547 252.3915 
L 166.809338 256.6155 
L 167.090331 260.8395 
L 167.291339 265.0635 
L 167.425932 269.2875 
L 167.507489 273.5115 
L 167.549359 277.7355 
L 167.564777 281.9595 
L 167.566977 286.1835 
z
" clip-path="url(#p1ebe9b7bc0)" style="fill: #8e1d5b"/>
    <path d="M 245.405143 130.00644 
L 249.94 130.124931 
L 254.474857 130.178202 
L 259.009714 130.165241 
L 263.544571 130.084938 
L 268.079429 129.936224 
L 268.93694 129.8955 
L 272.614286 129.727402 
L 277.149143 129.453832 
L 281.684 129.112265 
L 286.218857 128.701677 
L 290.753714 128.220943 
L 295.288571 127.668971 
L 299.823429 127.044556 
L 304.358286 126.346575 
L 308.327929 125.6715 
L 308.893143 125.578849 
L 313.428 124.773719 
L 313.428 121.4475 
L 313.428 117.2235 
L 313.428 112.9995 
L 313.428 108.7755 
L 313.428 104.5515 
L 313.428 100.3275 
L 313.428 96.1035 
L 313.428 91.8795 
L 313.428 87.6555 
L 313.428 83.4315 
L 313.428 79.2075 
L 313.428 74.9835 
L 313.428 70.7595 
L 313.428 66.5355 
L 313.428 62.3115 
L 313.428 58.0875 
L 313.428 57.941538 
L 312.866647 58.0875 
L 308.893143 59.142787 
L 304.358286 60.299783 
L 299.823429 61.407813 
L 295.965827 62.3115 
L 295.288571 62.473662 
L 290.753714 63.524995 
L 286.218857 64.527846 
L 281.684 65.482989 
L 277.149143 66.391166 
L 276.399743 66.5355 
L 272.614286 67.281232 
L 268.079429 68.12968 
L 263.544571 68.931597 
L 259.009714 69.687686 
L 254.474857 70.398708 
L 252.038457 70.7595 
L 249.94 71.077585 
L 245.405143 71.725442 
L 240.870286 72.32861 
L 236.335429 72.887781 
L 231.800571 73.403623 
L 227.265714 73.876838 
L 222.730857 74.308107 
L 218.196 74.698075 
L 214.501229 74.9835 
L 213.661143 75.049982 
L 209.126286 75.371911 
L 204.591429 75.652844 
L 200.056571 75.893459 
L 195.521714 76.094358 
L 190.986857 76.256172 
L 186.452 76.37954 
L 181.917143 76.465031 
L 177.382286 76.513278 
L 172.847429 76.524829 
L 168.312571 76.500302 
L 163.777714 76.44024 
L 159.242857 76.345208 
L 154.708 76.215767 
L 150.173143 76.052445 
L 145.638286 75.85576 
L 141.103429 75.626292 
L 136.568571 75.364494 
L 132.033714 75.070929 
L 130.82746 74.9835 
L 127.498857 74.755353 
L 122.964 74.413636 
L 118.429143 74.04278 
L 113.894286 73.643261 
L 109.359429 73.215535 
L 104.824571 72.760032 
L 100.289714 72.277194 
L 95.754857 71.767448 
L 91.22 71.231227 
L 87.425199 70.7595 
L 86.685143 70.672435 
L 82.150286 70.107111 
L 77.615429 69.517508 
L 73.080571 68.904013 
L 68.545714 68.266999 
L 64.010857 67.606833 
L 59.476 66.923888 
L 56.996852 66.5355 
L 54.941143 66.230479 
L 50.406286 65.530479 
L 45.871429 64.809579 
L 41.336571 64.068104 
L 36.801714 63.306375 
L 32.266857 62.524714 
L 31.074171 62.3115 
L 27.732 61.745215 
L 27.732 62.3115 
L 27.732 66.5355 
L 27.732 70.7595 
L 27.732 74.9835 
L 27.732 79.2075 
L 27.732 82.276799 
L 31.772975 83.4315 
L 32.266857 83.580984 
L 36.801714 84.916322 
L 41.336571 86.233402 
L 45.871429 87.531925 
L 46.315669 87.6555 
L 50.406286 88.861859 
L 54.941143 90.177176 
L 59.476 91.472185 
L 60.941114 91.8795 
L 64.010857 92.7851 
L 68.545714 94.094225 
L 73.080571 95.381097 
L 75.689366 96.1035 
L 77.615429 96.670009 
L 82.150286 97.96775 
L 86.685143 99.241102 
L 90.639064 100.3275 
L 91.22 100.497216 
L 95.754857 101.777505 
L 100.289714 103.031036 
L 104.824571 104.257379 
L 105.950658 104.5515 
L 109.359429 105.499146 
L 113.894286 106.725514 
L 118.429143 107.922008 
L 121.762283 108.7755 
L 122.964 109.103385 
L 127.498857 110.294058 
L 132.033714 111.451858 
L 136.568571 112.576275 
L 138.345717 112.9995 
L 141.103429 113.70011 
L 145.638286 114.808933 
L 150.173143 115.880986 
L 154.708 116.915673 
L 156.123945 117.2235 
L 159.242857 117.947723 
L 163.777714 118.955035 
L 168.312571 119.921142 
L 172.847429 120.845427 
L 175.959411 121.4475 
L 177.382286 121.741904 
L 181.917143 122.624581 
L 186.452 123.461084 
L 190.986857 124.250643 
L 195.521714 124.992517 
L 199.963711 125.6715 
L 200.056571 125.686701 
L 204.591429 126.365717 
L 209.126286 126.99203 
L 213.661143 127.564761 
L 218.196 128.083101 
L 222.730857 128.546137 
L 227.265714 128.953002 
L 231.800571 129.30281 
L 236.335429 129.594634 
L 240.870286 129.827547 
L 242.668162 129.8955 
z
" clip-path="url(#p1ebe9b7bc0)" style="fill: #cb1b4f"/>
    <path d="M 132.033714 75.070929 
L 136.568571 75.364494 
L 141.103429 75.626292 
L 145.638286 75.85576 
L 150.173143 76.052445 
L 154.708 76.215767 
L 159.242857 76.345208 
L 163.777714 76.44024 
L 168.312571 76.500302 
L 172.847429 76.524829 
L 177.382286 76.513278 
L 181.917143 76.465031 
L 186.452 76.37954 
L 190.986857 76.256172 
L 195.521714 76.094358 
L 200.056571 75.893459 
L 204.591429 75.652844 
L 209.126286 75.371911 
L 213.661143 75.049982 
L 214.501229 74.9835 
L 218.196 74.698075 
L 222.730857 74.308107 
L 227.265714 73.876838 
L 231.800571 73.403623 
L 236.335429 72.887781 
L 240.870286 72.32861 
L 245.405143 71.725442 
L 249.94 71.077585 
L 252.038457 70.7595 
L 254.474857 70.398708 
L 259.009714 69.687686 
L 263.544571 68.931597 
L 268.079429 68.12968 
L 272.614286 67.281232 
L 276.399743 66.5355 
L 277.149143 66.391166 
L 281.684 65.482989 
L 286.218857 64.527846 
L 290.753714 63.524995 
L 295.288571 62.473662 
L 295.965827 62.3115 
L 299.823429 61.407813 
L 304.358286 60.299783 
L 308.893143 59.142787 
L 312.866647 58.0875 
L 313.428 57.941538 
L 313.428 53.8635 
L 313.428 49.6395 
L 313.428 45.4155 
L 313.428 41.1915 
L 313.428 36.9675 
L 313.428 32.7435 
L 313.428 28.5195 
L 313.428 24.2955 
L 313.428 20.0715 
L 308.893143 20.0715 
L 304.358286 20.0715 
L 302.365139 20.0715 
L 299.823429 20.835401 
L 295.288571 22.1638 
L 290.753714 23.448723 
L 287.677988 24.2955 
L 286.218857 24.70385 
L 281.684 25.943286 
L 277.149143 27.139934 
L 272.614286 28.294464 
L 271.709008 28.5195 
L 268.079429 29.437142 
L 263.544571 30.545176 
L 259.009714 31.611707 
L 254.474857 32.637407 
L 253.993532 32.7435 
L 249.94 33.652708 
L 245.405143 34.630718 
L 240.870286 35.568461 
L 236.335429 36.466588 
L 233.708871 36.9675 
L 231.800571 37.338052 
L 227.265714 38.187076 
L 222.730857 38.997031 
L 218.196 39.768508 
L 213.661143 40.502113 
L 209.172362 41.1915 
L 209.126286 41.198709 
L 204.591429 41.881505 
L 200.056571 42.526956 
L 195.521714 43.135615 
L 190.986857 43.708068 
L 186.452 44.244901 
L 181.917143 44.746653 
L 177.382286 45.213884 
L 175.289856 45.4155 
L 172.847429 45.655407 
L 168.312571 46.069522 
L 163.777714 46.449522 
L 159.242857 46.795987 
L 154.708 47.109431 
L 150.173143 47.390372 
L 145.638286 47.639308 
L 141.103429 47.856764 
L 136.568571 48.04323 
L 132.033714 48.199189 
L 127.498857 48.325122 
L 122.964 48.42151 
L 118.429143 48.488816 
L 113.894286 48.527485 
L 109.359429 48.537989 
L 104.824571 48.520753 
L 100.289714 48.476226 
L 95.754857 48.404818 
L 91.22 48.306982 
L 86.685143 48.183117 
L 82.150286 48.033638 
L 77.615429 47.858946 
L 73.080571 47.659432 
L 68.545714 47.435496 
L 64.010857 47.187514 
L 59.476 46.915876 
L 54.941143 46.620952 
L 50.406286 46.3031 
L 45.871429 45.962683 
L 41.336571 45.600062 
L 39.177649 45.4155 
L 36.801714 45.222478 
L 32.266857 44.830489 
L 27.732 44.418056 
L 27.732 45.4155 
L 27.732 49.6395 
L 27.732 53.8635 
L 27.732 58.0875 
L 27.732 61.745215 
L 31.074171 62.3115 
L 32.266857 62.524714 
L 36.801714 63.306375 
L 41.336571 64.068104 
L 45.871429 64.809579 
L 50.406286 65.530479 
L 54.941143 66.230479 
L 56.996852 66.5355 
L 59.476 66.923888 
L 64.010857 67.606833 
L 68.545714 68.266999 
L 73.080571 68.904013 
L 77.615429 69.517508 
L 82.150286 70.107111 
L 86.685143 70.672435 
L 87.425199 70.7595 
L 91.22 71.231227 
L 95.754857 71.767448 
L 100.289714 72.277194 
L 104.824571 72.760032 
L 109.359429 73.215535 
L 113.894286 73.643261 
L 118.429143 74.04278 
L 122.964 74.413636 
L 127.498857 74.755353 
L 130.82746 74.9835 
z
" clip-path="url(#p1ebe9b7bc0)" style="fill: #ee543f"/>
    <path d="M 41.336571 45.600062 
L 45.871429 45.962683 
L 50.406286 46.3031 
L 54.941143 46.620952 
L 59.476 46.915876 
L 64.010857 47.187514 
L 68.545714 47.435496 
L 73.080571 47.659432 
L 77.615429 47.858946 
L 82.150286 48.033638 
L 86.685143 48.183117 
L 91.22 48.306982 
L 95.754857 48.404818 
L 100.289714 48.476226 
L 104.824571 48.520753 
L 109.359429 48.537989 
L 113.894286 48.527485 
L 118.429143 48.488816 
L 122.964 48.42151 
L 127.498857 48.325122 
L 132.033714 48.199189 
L 136.568571 48.04323 
L 141.103429 47.856764 
L 145.638286 47.639308 
L 150.173143 47.390372 
L 154.708 47.109431 
L 159.242857 46.795987 
L 163.777714 46.449522 
L 168.312571 46.069522 
L 172.847429 45.655407 
L 175.289856 45.4155 
L 177.382286 45.213884 
L 181.917143 44.746653 
L 186.452 44.244901 
L 190.986857 43.708068 
L 195.521714 43.135615 
L 200.056571 42.526956 
L 204.591429 41.881505 
L 209.126286 41.198709 
L 209.172362 41.1915 
L 213.661143 40.502113 
L 218.196 39.768508 
L 222.730857 38.997031 
L 227.265714 38.187076 
L 231.800571 37.338052 
L 233.708871 36.9675 
L 236.335429 36.466588 
L 240.870286 35.568461 
L 245.405143 34.630718 
L 249.94 33.652708 
L 253.993532 32.7435 
L 254.474857 32.637407 
L 259.009714 31.611707 
L 263.544571 30.545176 
L 268.079429 29.437142 
L 271.709008 28.5195 
L 272.614286 28.294464 
L 277.149143 27.139934 
L 281.684 25.943286 
L 286.218857 24.70385 
L 287.677988 24.2955 
L 290.753714 23.448723 
L 295.288571 22.1638 
L 299.823429 20.835401 
L 302.365139 20.0715 
L 299.823429 20.0715 
L 295.288571 20.0715 
L 290.753714 20.0715 
L 286.218857 20.0715 
L 281.684 20.0715 
L 277.149143 20.0715 
L 272.614286 20.0715 
L 268.079429 20.0715 
L 263.544571 20.0715 
L 259.009714 20.0715 
L 254.474857 20.0715 
L 249.94 20.0715 
L 245.405143 20.0715 
L 240.870286 20.0715 
L 236.335429 20.0715 
L 231.800571 20.0715 
L 227.265714 20.0715 
L 222.730857 20.0715 
L 218.196 20.0715 
L 213.661143 20.0715 
L 209.126286 20.0715 
L 204.591429 20.0715 
L 200.056571 20.0715 
L 195.521714 20.0715 
L 190.986857 20.0715 
L 186.452 20.0715 
L 181.917143 20.0715 
L 179.660511 20.0715 
L 177.382286 20.450636 
L 172.847429 21.176801 
L 168.312571 21.869019 
L 163.777714 22.527799 
L 159.242857 23.15368 
L 154.708 23.747179 
L 150.282196 24.2955 
L 150.173143 24.309234 
L 145.638286 24.85686 
L 141.103429 25.372602 
L 136.568571 25.856955 
L 132.033714 26.310413 
L 127.498857 26.733457 
L 122.964 27.126575 
L 118.429143 27.490241 
L 113.894286 27.824906 
L 109.359429 28.131037 
L 104.824571 28.409087 
L 102.842566 28.5195 
L 100.289714 28.664139 
L 95.754857 28.894767 
L 91.22 29.097714 
L 86.685143 29.273434 
L 82.150286 29.422339 
L 77.615429 29.544859 
L 73.080571 29.641396 
L 68.545714 29.712385 
L 64.010857 29.758193 
L 59.476 29.779253 
L 54.941143 29.775938 
L 50.406286 29.74863 
L 45.871429 29.697709 
L 41.336571 29.623545 
L 36.801714 29.526509 
L 32.266857 29.406958 
L 27.732 29.26525 
L 27.732 32.7435 
L 27.732 36.9675 
L 27.732 41.1915 
L 27.732 44.418056 
L 32.266857 44.830489 
L 36.801714 45.222478 
L 39.177649 45.4155 
z
" clip-path="url(#p1ebe9b7bc0)" style="fill: #f5976e"/>
    <path d="M 32.266857 29.406958 
L 36.801714 29.526509 
L 41.336571 29.623545 
L 45.871429 29.697709 
L 50.406286 29.74863 
L 54.941143 29.775938 
L 59.476 29.779253 
L 64.010857 29.758193 
L 68.545714 29.712385 
L 73.080571 29.641396 
L 77.615429 29.544859 
L 82.150286 29.422339 
L 86.685143 29.273434 
L 91.22 29.097714 
L 95.754857 28.894767 
L 100.289714 28.664139 
L 102.842566 28.5195 
L 104.824571 28.409087 
L 109.359429 28.131037 
L 113.894286 27.824906 
L 118.429143 27.490241 
L 122.964 27.126575 
L 127.498857 26.733457 
L 132.033714 26.310413 
L 136.568571 25.856955 
L 141.103429 25.372602 
L 145.638286 24.85686 
L 150.173143 24.309234 
L 150.282196 24.2955 
L 154.708 23.747179 
L 159.242857 23.15368 
L 163.777714 22.527799 
L 168.312571 21.869019 
L 172.847429 21.176801 
L 177.382286 20.450636 
L 179.660511 20.0715 
L 177.382286 20.0715 
L 172.847429 20.0715 
L 168.312571 20.0715 
L 163.777714 20.0715 
L 159.242857 20.0715 
L 154.708 20.0715 
L 150.173143 20.0715 
L 145.638286 20.0715 
L 141.103429 20.0715 
L 136.568571 20.0715 
L 132.033714 20.0715 
L 127.498857 20.0715 
L 122.964 20.0715 
L 118.429143 20.0715 
L 113.894286 20.0715 
L 109.359429 20.0715 
L 104.824571 20.0715 
L 100.289714 20.0715 
L 95.754857 20.0715 
L 91.22 20.0715 
L 86.685143 20.0715 
L 82.150286 20.0715 
L 77.615429 20.0715 
L 73.080571 20.0715 
L 68.545714 20.0715 
L 64.010857 20.0715 
L 59.476 20.0715 
L 54.941143 20.0715 
L 50.406286 20.0715 
L 45.871429 20.0715 
L 41.336571 20.0715 
L 36.801714 20.0715 
L 32.266857 20.0715 
L 27.732 20.0715 
L 27.732 24.2955 
L 27.732 28.5195 
L 27.732 29.26525 
z
" clip-path="url(#p1ebe9b7bc0)" style="fill: #f7d0b5"/>
   </g>
   <g id="patch_3">
    <path d="M 27.732 286.1835 
L 27.732 20.0715 
" style="fill: none; stroke: #262626; stroke-linejoin: miter; stroke-linecap: square"/>
   </g>
   <g id="patch_4">
    <path d="M 313.428 286.1835 
L 313.428 20.0715 
" style="fill: none; stroke: #262626; stroke-linejoin: miter; stroke-linecap: square"/>
   </g>
   <g id="patch_5">
    <path d="M 27.732 286.1835 
L 313.428 286.1835 
" style="fill: none; stroke: #262626; stroke-linejoin: miter; stroke-linecap: square"/>
   </g>
   <g id="patch_6">
    <path d="M 27.732 20.0715 
L 313.428 20.0715 
" style="fill: none; stroke: #262626; stroke-linejoin: miter; stroke-linecap: square"/>
   </g>
   <g id="text_13">
    <!-- True solution -->
    <g style="fill: #262626" transform="translate(143.0145 14.0715) scale(0.096 -0.096)">
     <defs>
      <path id="ArialMT-54" d="M 1659 0 
L 1659 4041 
L 150 4041 
L 150 4581 
L 3781 4581 
L 3781 4041 
L 2266 4041 
L 2266 0 
L 1659 0 
z
" transform="scale(0.015625)"/>
      <path id="ArialMT-72" d="M 416 0 
L 416 3319 
L 922 3319 
L 922 2816 
Q 1116 3169 1280 3281 
Q 1444 3394 1641 3394 
Q 1925 3394 2219 3213 
L 2025 2691 
Q 1819 2813 1613 2813 
Q 1428 2813 1281 2702 
Q 1134 2591 1072 2394 
Q 978 2094 978 1738 
L 978 0 
L 416 0 
z
" transform="scale(0.015625)"/>
      <path id="ArialMT-75" d="M 2597 0 
L 2597 488 
Q 2209 -75 1544 -75 
Q 1250 -75 995 37 
Q 741 150 617 320 
Q 494 491 444 738 
Q 409 903 409 1263 
L 409 3319 
L 972 3319 
L 972 1478 
Q 972 1038 1006 884 
Q 1059 663 1231 536 
Q 1403 409 1656 409 
Q 1909 409 2131 539 
Q 2353 669 2445 892 
Q 2538 1116 2538 1541 
L 2538 3319 
L 3100 3319 
L 3100 0 
L 2597 0 
z
" transform="scale(0.015625)"/>
      <path id="ArialMT-65" d="M 2694 1069 
L 3275 997 
Q 3138 488 2766 206 
Q 2394 -75 1816 -75 
Q 1088 -75 661 373 
Q 234 822 234 1631 
Q 234 2469 665 2931 
Q 1097 3394 1784 3394 
Q 2450 3394 2872 2941 
Q 3294 2488 3294 1666 
Q 3294 1616 3291 1516 
L 816 1516 
Q 847 969 1125 678 
Q 1403 388 1819 388 
Q 2128 388 2347 550 
Q 2566 713 2694 1069 
z
M 847 1978 
L 2700 1978 
Q 2663 2397 2488 2606 
Q 2219 2931 1791 2931 
Q 1403 2931 1139 2672 
Q 875 2413 847 1978 
z
" transform="scale(0.015625)"/>
      <path id="ArialMT-20" transform="scale(0.015625)"/>
      <path id="ArialMT-73" d="M 197 991 
L 753 1078 
Q 800 744 1014 566 
Q 1228 388 1613 388 
Q 2000 388 2187 545 
Q 2375 703 2375 916 
Q 2375 1106 2209 1216 
Q 2094 1291 1634 1406 
Q 1016 1563 777 1677 
Q 538 1791 414 1992 
Q 291 2194 291 2438 
Q 291 2659 392 2848 
Q 494 3038 669 3163 
Q 800 3259 1026 3326 
Q 1253 3394 1513 3394 
Q 1903 3394 2198 3281 
Q 2494 3169 2634 2976 
Q 2775 2784 2828 2463 
L 2278 2388 
Q 2241 2644 2061 2787 
Q 1881 2931 1553 2931 
Q 1166 2931 1000 2803 
Q 834 2675 834 2503 
Q 834 2394 903 2306 
Q 972 2216 1119 2156 
Q 1203 2125 1616 2013 
Q 2213 1853 2448 1751 
Q 2684 1650 2818 1456 
Q 2953 1263 2953 975 
Q 2953 694 2789 445 
Q 2625 197 2315 61 
Q 2006 -75 1616 -75 
Q 969 -75 630 194 
Q 291 463 197 991 
z
" transform="scale(0.015625)"/>
      <path id="ArialMT-6f" d="M 213 1659 
Q 213 2581 725 3025 
Q 1153 3394 1769 3394 
Q 2453 3394 2887 2945 
Q 3322 2497 3322 1706 
Q 3322 1066 3130 698 
Q 2938 331 2570 128 
Q 2203 -75 1769 -75 
Q 1072 -75 642 372 
Q 213 819 213 1659 
z
M 791 1659 
Q 791 1022 1069 705 
Q 1347 388 1769 388 
Q 2188 388 2466 706 
Q 2744 1025 2744 1678 
Q 2744 2294 2464 2611 
Q 2184 2928 1769 2928 
Q 1347 2928 1069 2612 
Q 791 2297 791 1659 
z
" transform="scale(0.015625)"/>
      <path id="ArialMT-6c" d="M 409 0 
L 409 4581 
L 972 4581 
L 972 0 
L 409 0 
z
" transform="scale(0.015625)"/>
      <path id="ArialMT-74" d="M 1650 503 
L 1731 6 
Q 1494 -44 1306 -44 
Q 1000 -44 831 53 
Q 663 150 594 308 
Q 525 466 525 972 
L 525 2881 
L 113 2881 
L 113 3319 
L 525 3319 
L 525 4141 
L 1084 4478 
L 1084 3319 
L 1650 3319 
L 1650 2881 
L 1084 2881 
L 1084 941 
Q 1084 700 1114 631 
Q 1144 563 1211 522 
Q 1278 481 1403 481 
Q 1497 481 1650 503 
z
" transform="scale(0.015625)"/>
      <path id="ArialMT-69" d="M 425 3934 
L 425 4581 
L 988 4581 
L 988 3934 
L 425 3934 
z
M 425 0 
L 425 3319 
L 988 3319 
L 988 0 
L 425 0 
z
" transform="scale(0.015625)"/>
      <path id="ArialMT-6e" d="M 422 0 
L 422 3319 
L 928 3319 
L 928 2847 
Q 1294 3394 1984 3394 
Q 2284 3394 2536 3286 
Q 2788 3178 2913 3003 
Q 3038 2828 3088 2588 
Q 3119 2431 3119 2041 
L 3119 0 
L 2556 0 
L 2556 2019 
Q 2556 2363 2490 2533 
Q 2425 2703 2258 2804 
Q 2091 2906 1866 2906 
Q 1506 2906 1245 2678 
Q 984 2450 984 1813 
L 984 0 
L 422 0 
z
" transform="scale(0.015625)"/>
     </defs>
     <use xlink:href="#ArialMT-54"/>
     <use xlink:href="#ArialMT-72" x="57.333984"/>
     <use xlink:href="#ArialMT-75" x="90.634766"/>
     <use xlink:href="#ArialMT-65" x="146.25"/>
     <use xlink:href="#ArialMT-20" x="201.865234"/>
     <use xlink:href="#ArialMT-73" x="229.648438"/>
     <use xlink:href="#ArialMT-6f" x="279.648438"/>
     <use xlink:href="#ArialMT-6c" x="335.263672"/>
     <use xlink:href="#ArialMT-75" x="357.480469"/>
     <use xlink:href="#ArialMT-74" x="413.095703"/>
     <use xlink:href="#ArialMT-69" x="440.878906"/>
     <use xlink:href="#ArialMT-6f" x="463.095703"/>
     <use xlink:href="#ArialMT-6e" x="518.710938"/>
    </g>
   </g>
  </g>
  <g id="axes_2">
   <g id="patch_7">
    <path d="M 331.284 286.1835 
L 344.5896 286.1835 
L 344.5896 20.0715 
L 331.284 20.0715 
z
" style="fill: #ffffff"/>
   </g>
   <g id="matplotlib.axis_3"/>
   <g id="matplotlib.axis_4">
    <g id="ytick_7">
     <g id="line2d_13">
      <defs>
       <path id="m2afc8c0698" d="M 0 0 
L 4.8 0 
" style="stroke: #262626"/>
      </defs>
      <g>
       <use xlink:href="#m2afc8c0698" x="344.5896" y="286.1835" style="fill: #262626; stroke: #262626"/>
      </g>
     </g>
     <g id="text_14">
      <!-- 0.00 -->
      <g style="fill: #262626" transform="translate(352.8896 289.332937) scale(0.088 -0.088)">
       <use xlink:href="#ArialMT-30"/>
       <use xlink:href="#ArialMT-2e" x="55.615234"/>
       <use xlink:href="#ArialMT-30" x="83.398438"/>
       <use xlink:href="#ArialMT-30" x="139.013672"/>
      </g>
     </g>
    </g>
    <g id="ytick_8">
     <g id="line2d_14">
      <g>
       <use xlink:href="#m2afc8c0698" x="344.5896" y="248.1675" style="fill: #262626; stroke: #262626"/>
      </g>
     </g>
     <g id="text_15">
      <!-- 0.15 -->
      <g style="fill: #262626" transform="translate(352.8896 251.316937) scale(0.088 -0.088)">
       <defs>
        <path id="ArialMT-35" d="M 266 1200 
L 856 1250 
Q 922 819 1161 601 
Q 1400 384 1738 384 
Q 2144 384 2425 690 
Q 2706 997 2706 1503 
Q 2706 1984 2436 2262 
Q 2166 2541 1728 2541 
Q 1456 2541 1237 2417 
Q 1019 2294 894 2097 
L 366 2166 
L 809 4519 
L 3088 4519 
L 3088 3981 
L 1259 3981 
L 1013 2750 
Q 1425 3038 1878 3038 
Q 2478 3038 2890 2622 
Q 3303 2206 3303 1553 
Q 3303 931 2941 478 
Q 2500 -78 1738 -78 
Q 1113 -78 717 272 
Q 322 622 266 1200 
z
" transform="scale(0.015625)"/>
       </defs>
       <use xlink:href="#ArialMT-30"/>
       <use xlink:href="#ArialMT-2e" x="55.615234"/>
       <use xlink:href="#ArialMT-31" x="83.398438"/>
       <use xlink:href="#ArialMT-35" x="139.013672"/>
      </g>
     </g>
    </g>
    <g id="ytick_9">
     <g id="line2d_15">
      <g>
       <use xlink:href="#m2afc8c0698" x="344.5896" y="210.1515" style="fill: #262626; stroke: #262626"/>
      </g>
     </g>
     <g id="text_16">
      <!-- 0.30 -->
      <g style="fill: #262626" transform="translate(352.8896 213.300937) scale(0.088 -0.088)">
       <defs>
        <path id="ArialMT-33" d="M 269 1209 
L 831 1284 
Q 928 806 1161 595 
Q 1394 384 1728 384 
Q 2125 384 2398 659 
Q 2672 934 2672 1341 
Q 2672 1728 2419 1979 
Q 2166 2231 1775 2231 
Q 1616 2231 1378 2169 
L 1441 2663 
Q 1497 2656 1531 2656 
Q 1891 2656 2178 2843 
Q 2466 3031 2466 3422 
Q 2466 3731 2256 3934 
Q 2047 4138 1716 4138 
Q 1388 4138 1169 3931 
Q 950 3725 888 3313 
L 325 3413 
Q 428 3978 793 4289 
Q 1159 4600 1703 4600 
Q 2078 4600 2393 4439 
Q 2709 4278 2876 4000 
Q 3044 3722 3044 3409 
Q 3044 3113 2884 2869 
Q 2725 2625 2413 2481 
Q 2819 2388 3044 2092 
Q 3269 1797 3269 1353 
Q 3269 753 2831 336 
Q 2394 -81 1725 -81 
Q 1122 -81 723 278 
Q 325 638 269 1209 
z
" transform="scale(0.015625)"/>
       </defs>
       <use xlink:href="#ArialMT-30"/>
       <use xlink:href="#ArialMT-2e" x="55.615234"/>
       <use xlink:href="#ArialMT-33" x="83.398438"/>
       <use xlink:href="#ArialMT-30" x="139.013672"/>
      </g>
     </g>
    </g>
    <g id="ytick_10">
     <g id="line2d_16">
      <g>
       <use xlink:href="#m2afc8c0698" x="344.5896" y="172.1355" style="fill: #262626; stroke: #262626"/>
      </g>
     </g>
     <g id="text_17">
      <!-- 0.45 -->
      <g style="fill: #262626" transform="translate(352.8896 175.284937) scale(0.088 -0.088)">
       <use xlink:href="#ArialMT-30"/>
       <use xlink:href="#ArialMT-2e" x="55.615234"/>
       <use xlink:href="#ArialMT-34" x="83.398438"/>
       <use xlink:href="#ArialMT-35" x="139.013672"/>
      </g>
     </g>
    </g>
    <g id="ytick_11">
     <g id="line2d_17">
      <g>
       <use xlink:href="#m2afc8c0698" x="344.5896" y="134.1195" style="fill: #262626; stroke: #262626"/>
      </g>
     </g>
     <g id="text_18">
      <!-- 0.60 -->
      <g style="fill: #262626" transform="translate(352.8896 137.268937) scale(0.088 -0.088)">
       <use xlink:href="#ArialMT-30"/>
       <use xlink:href="#ArialMT-2e" x="55.615234"/>
       <use xlink:href="#ArialMT-36" x="83.398438"/>
       <use xlink:href="#ArialMT-30" x="139.013672"/>
      </g>
     </g>
    </g>
    <g id="ytick_12">
     <g id="line2d_18">
      <g>
       <use xlink:href="#m2afc8c0698" x="344.5896" y="96.1035" style="fill: #262626; stroke: #262626"/>
      </g>
     </g>
     <g id="text_19">
      <!-- 0.75 -->
      <g style="fill: #262626" transform="translate(352.8896 99.252937) scale(0.088 -0.088)">
       <defs>
        <path id="ArialMT-37" d="M 303 3981 
L 303 4522 
L 3269 4522 
L 3269 4084 
Q 2831 3619 2401 2847 
Q 1972 2075 1738 1259 
Q 1569 684 1522 0 
L 944 0 
Q 953 541 1156 1306 
Q 1359 2072 1739 2783 
Q 2119 3494 2547 3981 
L 303 3981 
z
" transform="scale(0.015625)"/>
       </defs>
       <use xlink:href="#ArialMT-30"/>
       <use xlink:href="#ArialMT-2e" x="55.615234"/>
       <use xlink:href="#ArialMT-37" x="83.398438"/>
       <use xlink:href="#ArialMT-35" x="139.013672"/>
      </g>
     </g>
    </g>
    <g id="ytick_13">
     <g id="line2d_19">
      <g>
       <use xlink:href="#m2afc8c0698" x="344.5896" y="58.0875" style="fill: #262626; stroke: #262626"/>
      </g>
     </g>
     <g id="text_20">
      <!-- 0.90 -->
      <g style="fill: #262626" transform="translate(352.8896 61.236937) scale(0.088 -0.088)">
       <defs>
        <path id="ArialMT-39" d="M 350 1059 
L 891 1109 
Q 959 728 1153 556 
Q 1347 384 1650 384 
Q 1909 384 2104 503 
Q 2300 622 2425 820 
Q 2550 1019 2634 1356 
Q 2719 1694 2719 2044 
Q 2719 2081 2716 2156 
Q 2547 1888 2255 1720 
Q 1963 1553 1622 1553 
Q 1053 1553 659 1965 
Q 266 2378 266 3053 
Q 266 3750 677 4175 
Q 1088 4600 1706 4600 
Q 2153 4600 2523 4359 
Q 2894 4119 3086 3673 
Q 3278 3228 3278 2384 
Q 3278 1506 3087 986 
Q 2897 466 2520 194 
Q 2144 -78 1638 -78 
Q 1100 -78 759 220 
Q 419 519 350 1059 
z
M 2653 3081 
Q 2653 3566 2395 3850 
Q 2138 4134 1775 4134 
Q 1400 4134 1122 3828 
Q 844 3522 844 3034 
Q 844 2597 1108 2323 
Q 1372 2050 1759 2050 
Q 2150 2050 2401 2323 
Q 2653 2597 2653 3081 
z
" transform="scale(0.015625)"/>
       </defs>
       <use xlink:href="#ArialMT-30"/>
       <use xlink:href="#ArialMT-2e" x="55.615234"/>
       <use xlink:href="#ArialMT-39" x="83.398438"/>
       <use xlink:href="#ArialMT-30" x="139.013672"/>
      </g>
     </g>
    </g>
    <g id="ytick_14">
     <g id="line2d_20">
      <g>
       <use xlink:href="#m2afc8c0698" x="344.5896" y="20.0715" style="fill: #262626; stroke: #262626"/>
      </g>
     </g>
     <g id="text_21">
      <!-- 1.05 -->
      <g style="fill: #262626" transform="translate(352.8896 23.220937) scale(0.088 -0.088)">
       <use xlink:href="#ArialMT-31"/>
       <use xlink:href="#ArialMT-2e" x="55.615234"/>
       <use xlink:href="#ArialMT-30" x="83.398438"/>
       <use xlink:href="#ArialMT-35" x="139.013672"/>
      </g>
     </g>
    </g>
   </g>
   <g id="QuadMesh_1">
    <path d="M 331.284 286.1835 
L 344.5896 286.1835 
L 344.5896 248.1675 
L 331.284 248.1675 
L 331.284 286.1835 
" clip-path="url(#pf256c72948)" style="fill: #1b112b"/>
    <path d="M 331.284 248.1675 
L 344.5896 248.1675 
L 344.5896 210.1515 
L 331.284 210.1515 
L 331.284 248.1675 
" clip-path="url(#pf256c72948)" style="fill: #511e4d"/>
    <path d="M 331.284 210.1515 
L 344.5896 210.1515 
L 344.5896 172.1355 
L 331.284 172.1355 
L 331.284 210.1515 
" clip-path="url(#pf256c72948)" style="fill: #8e1d5b"/>
    <path d="M 331.284 172.1355 
L 344.5896 172.1355 
L 344.5896 134.1195 
L 331.284 134.1195 
L 331.284 172.1355 
" clip-path="url(#pf256c72948)" style="fill: #cb1b4f"/>
    <path d="M 331.284 134.1195 
L 344.5896 134.1195 
L 344.5896 96.1035 
L 331.284 96.1035 
L 331.284 134.1195 
" clip-path="url(#pf256c72948)" style="fill: #ee543f"/>
    <path d="M 331.284 96.1035 
L 344.5896 96.1035 
L 344.5896 58.0875 
L 331.284 58.0875 
L 331.284 96.1035 
" clip-path="url(#pf256c72948)" style="fill: #f5976e"/>
    <path d="M 331.284 58.0875 
L 344.5896 58.0875 
L 344.5896 20.0715 
L 331.284 20.0715 
L 331.284 58.0875 
" clip-path="url(#pf256c72948)" style="fill: #f7d0b5"/>
   </g>
   <g id="LineCollection_1"/>
   <g id="patch_8">
    <path d="M 331.284 286.1835 
L 337.9368 286.1835 
L 344.5896 286.1835 
L 344.5896 20.0715 
L 337.9368 20.0715 
L 331.284 20.0715 
L 331.284 286.1835 
z
" style="fill: none; stroke: #262626; stroke-linejoin: miter; stroke-linecap: square"/>
   </g>
  </g>
 </g>
 <defs>
  <clipPath id="p1ebe9b7bc0">
   <rect x="27.732" y="20.0715" width="285.696" height="266.112"/>
  </clipPath>
  <clipPath id="pf256c72948">
   <rect x="331.284" y="20.0715" width="13.3056" height="266.112"/>
  </clipPath>
 </defs>
</svg>