<?xml version="1.0" encoding="utf-8" standalone="no"?>
<!DOCTYPE svg PUBLIC "-//W3C//DTD SVG 1.1//EN"
  "http://www.w3.org/Graphics/SVG/1.1/DTD/svg11.dtd">
<svg xmlns:xlink="http://www.w3.org/1999/xlink" width="402.38675pt" height="309.639375pt" viewBox="0 0 402.38675 309.639375" xmlns="http://www.w3.org/2000/svg" version="1.1">
 <metadata>
  <rdf:RDF xmlns:dc="http://purl.org/dc/elements/1.1/" xmlns:cc="http://creativecommons.org/ns#" xmlns:rdf="http://www.w3.org/1999/02/22-rdf-syntax-ns#">
   <cc:Work>
    <dc:type rdf:resource="http://purl.org/dc/dcmitype/StillImage"/>
    <dc:date>2023-10-25T16:42:51.530314</dc:date>
    <dc:format>image/svg+xml</dc:format>
    <dc:creator>
     <cc:Agent>
      <dc:title>Matplotlib v3.8.0, https://matplotlib.org/</dc:title>
     </cc:Agent>
    </dc:creator>
   </cc:Work>
  </rdf:RDF>
 </metadata>
 <defs>
  <style type="text/css">*{stroke-linejoin: round; stroke-linecap: butt}</style>
 </defs>
 <g id="figure_1">
  <g id="patch_1">
   <path d="M 0 309.639375 
L 402.38675 309.639375 
L 402.38675 0 
L 0 0 
z
" style="fill: #ffffff"/>
  </g>
  <g id="axes_1">
   <g id="patch_2">
    <path d="M 38.06675 273.312 
L 395.18675 273.312 
L 395.18675 7.2 
L 38.06675 7.2 
z
" style="fill: #ffffff"/>
   </g>
   <g id="matplotlib.axis_1">
    <g id="xtick_1">
     <g id="line2d_1">
      <defs>
       <path id="m9579dd3e83" d="M 0 0 
L 0 4.8 
" style="stroke: #262626"/>
      </defs>
      <g>
       <use xlink:href="#m9579dd3e83" x="54.299419" y="273.312" style="fill: #262626; stroke: #262626"/>
      </g>
     </g>
     <g id="text_1">
      <!-- 0.0 -->
      <g style="fill: #262626" transform="translate(48.183419 287.910875) scale(0.088 -0.088)">
       <defs>
        <path id="ArialMT-30" d="M 266 2259 
Q 266 3072 433 3567 
Q 600 4063 929 4331 
Q 1259 4600 1759 4600 
Q 2128 4600 2406 4451 
Q 2684 4303 2865 4023 
Q 3047 3744 3150 3342 
Q 3253 2941 3253 2259 
Q 3253 1453 3087 958 
Q 2922 463 2592 192 
Q 2263 -78 1759 -78 
Q 1097 -78 719 397 
Q 266 969 266 2259 
z
M 844 2259 
Q 844 1131 1108 757 
Q 1372 384 1759 384 
Q 2147 384 2411 759 
Q 2675 1134 2675 2259 
Q 2675 3391 2411 3762 
Q 2147 4134 1753 4134 
Q 1366 4134 1134 3806 
Q 844 3388 844 2259 
z
" transform="scale(0.015625)"/>
        <path id="ArialMT-2e" d="M 581 0 
L 581 641 
L 1222 641 
L 1222 0 
L 581 0 
z
" transform="scale(0.015625)"/>
       </defs>
       <use xlink:href="#ArialMT-30"/>
       <use xlink:href="#ArialMT-2e" x="55.615234"/>
       <use xlink:href="#ArialMT-30" x="83.398438"/>
      </g>
     </g>
    </g>
    <g id="xtick_2">
     <g id="line2d_2">
      <g>
       <use xlink:href="#m9579dd3e83" x="119.230353" y="273.312" style="fill: #262626; stroke: #262626"/>
      </g>
     </g>
     <g id="text_2">
      <!-- 0.2 -->
      <g style="fill: #262626" transform="translate(113.114353 287.910875) scale(0.088 -0.088)">
       <defs>
        <path id="ArialMT-32" d="M 3222 541 
L 3222 0 
L 194 0 
Q 188 203 259 391 
Q 375 700 629 1000 
Q 884 1300 1366 1694 
Q 2113 2306 2375 2664 
Q 2638 3022 2638 3341 
Q 2638 3675 2398 3904 
Q 2159 4134 1775 4134 
Q 1369 4134 1125 3890 
Q 881 3647 878 3216 
L 300 3275 
Q 359 3922 746 4261 
Q 1134 4600 1788 4600 
Q 2447 4600 2831 4234 
Q 3216 3869 3216 3328 
Q 3216 3053 3103 2787 
Q 2991 2522 2730 2228 
Q 2469 1934 1863 1422 
Q 1356 997 1212 845 
Q 1069 694 975 541 
L 3222 541 
z
" transform="scale(0.015625)"/>
       </defs>
       <use xlink:href="#ArialMT-30"/>
       <use xlink:href="#ArialMT-2e" x="55.615234"/>
       <use xlink:href="#ArialMT-32" x="83.398438"/>
      </g>
     </g>
    </g>
    <g id="xtick_3">
     <g id="line2d_3">
      <g>
       <use xlink:href="#m9579dd3e83" x="184.161287" y="273.312" style="fill: #262626; stroke: #262626"/>
      </g>
     </g>
     <g id="text_3">
      <!-- 0.4 -->
      <g style="fill: #262626" transform="translate(178.045287 287.910875) scale(0.088 -0.088)">
       <defs>
        <path id="ArialMT-34" d="M 2069 0 
L 2069 1097 
L 81 1097 
L 81 1613 
L 2172 4581 
L 2631 4581 
L 2631 1613 
L 3250 1613 
L 3250 1097 
L 2631 1097 
L 2631 0 
L 2069 0 
z
M 2069 1613 
L 2069 3678 
L 634 1613 
L 2069 1613 
z
" transform="scale(0.015625)"/>
       </defs>
       <use xlink:href="#ArialMT-30"/>
       <use xlink:href="#ArialMT-2e" x="55.615234"/>
       <use xlink:href="#ArialMT-34" x="83.398438"/>
      </g>
     </g>
    </g>
    <g id="xtick_4">
     <g id="line2d_4">
      <g>
       <use xlink:href="#m9579dd3e83" x="249.092221" y="273.312" style="fill: #262626; stroke: #262626"/>
      </g>
     </g>
     <g id="text_4">
      <!-- 0.6 -->
      <g style="fill: #262626" transform="translate(242.976221 287.910875) scale(0.088 -0.088)">
       <defs>
        <path id="ArialMT-36" d="M 3184 3459 
L 2625 3416 
Q 2550 3747 2413 3897 
Q 2184 4138 1850 4138 
Q 1581 4138 1378 3988 
Q 1113 3794 959 3422 
Q 806 3050 800 2363 
Q 1003 2672 1297 2822 
Q 1591 2972 1913 2972 
Q 2475 2972 2870 2558 
Q 3266 2144 3266 1488 
Q 3266 1056 3080 686 
Q 2894 316 2569 119 
Q 2244 -78 1831 -78 
Q 1128 -78 684 439 
Q 241 956 241 2144 
Q 241 3472 731 4075 
Q 1159 4600 1884 4600 
Q 2425 4600 2770 4297 
Q 3116 3994 3184 3459 
z
M 888 1484 
Q 888 1194 1011 928 
Q 1134 663 1356 523 
Q 1578 384 1822 384 
Q 2178 384 2434 671 
Q 2691 959 2691 1453 
Q 2691 1928 2437 2201 
Q 2184 2475 1800 2475 
Q 1419 2475 1153 2201 
Q 888 1928 888 1484 
z
" transform="scale(0.015625)"/>
       </defs>
       <use xlink:href="#ArialMT-30"/>
       <use xlink:href="#ArialMT-2e" x="55.615234"/>
       <use xlink:href="#ArialMT-36" x="83.398438"/>
      </g>
     </g>
    </g>
    <g id="xtick_5">
     <g id="line2d_5">
      <g>
       <use xlink:href="#m9579dd3e83" x="314.023155" y="273.312" style="fill: #262626; stroke: #262626"/>
      </g>
     </g>
     <g id="text_5">
      <!-- 0.8 -->
      <g style="fill: #262626" transform="translate(307.907155 287.910875) scale(0.088 -0.088)">
       <defs>
        <path id="ArialMT-38" d="M 1131 2484 
Q 781 2613 612 2850 
Q 444 3088 444 3419 
Q 444 3919 803 4259 
Q 1163 4600 1759 4600 
Q 2359 4600 2725 4251 
Q 3091 3903 3091 3403 
Q 3091 3084 2923 2848 
Q 2756 2613 2416 2484 
Q 2838 2347 3058 2040 
Q 3278 1734 3278 1309 
Q 3278 722 2862 322 
Q 2447 -78 1769 -78 
Q 1091 -78 675 323 
Q 259 725 259 1325 
Q 259 1772 486 2073 
Q 713 2375 1131 2484 
z
M 1019 3438 
Q 1019 3113 1228 2906 
Q 1438 2700 1772 2700 
Q 2097 2700 2305 2904 
Q 2513 3109 2513 3406 
Q 2513 3716 2298 3927 
Q 2084 4138 1766 4138 
Q 1444 4138 1231 3931 
Q 1019 3725 1019 3438 
z
M 838 1322 
Q 838 1081 952 856 
Q 1066 631 1291 507 
Q 1516 384 1775 384 
Q 2178 384 2440 643 
Q 2703 903 2703 1303 
Q 2703 1709 2433 1975 
Q 2163 2241 1756 2241 
Q 1359 2241 1098 1978 
Q 838 1716 838 1322 
z
" transform="scale(0.015625)"/>
       </defs>
       <use xlink:href="#ArialMT-30"/>
       <use xlink:href="#ArialMT-2e" x="55.615234"/>
       <use xlink:href="#ArialMT-38" x="83.398438"/>
      </g>
     </g>
    </g>
    <g id="xtick_6">
     <g id="line2d_6">
      <g>
       <use xlink:href="#m9579dd3e83" x="378.954089" y="273.312" style="fill: #262626; stroke: #262626"/>
      </g>
     </g>
     <g id="text_6">
      <!-- 1.0 -->
      <g style="fill: #262626" transform="translate(372.838089 287.910875) scale(0.088 -0.088)">
       <defs>
        <path id="ArialMT-31" d="M 2384 0 
L 1822 0 
L 1822 3584 
Q 1619 3391 1289 3197 
Q 959 3003 697 2906 
L 697 3450 
Q 1169 3672 1522 3987 
Q 1875 4303 2022 4600 
L 2384 4600 
L 2384 0 
z
" transform="scale(0.015625)"/>
       </defs>
       <use xlink:href="#ArialMT-31"/>
       <use xlink:href="#ArialMT-2e" x="55.615234"/>
       <use xlink:href="#ArialMT-30" x="83.398438"/>
      </g>
     </g>
    </g>
    <g id="text_7">
     <!-- $x$ -->
     <g style="fill: #262626" transform="translate(213.74675 300.531375) scale(0.096 -0.096)">
      <defs>
       <path id="DejaVuSans-Oblique-78" d="M 3841 3500 
L 2234 1784 
L 3219 0 
L 2559 0 
L 1819 1388 
L 531 0 
L -166 0 
L 1556 1844 
L 641 3500 
L 1300 3500 
L 1972 2234 
L 3144 3500 
L 3841 3500 
z
" transform="scale(0.015625)"/>
      </defs>
      <use xlink:href="#DejaVuSans-Oblique-78" transform="translate(0 0.3125)"/>
     </g>
    </g>
   </g>
   <g id="matplotlib.axis_2">
    <g id="ytick_1">
     <g id="line2d_7">
      <defs>
       <path id="m20f610785d" d="M 0 0 
L -4.8 0 
" style="stroke: #262626"/>
      </defs>
      <g>
       <use xlink:href="#m20f610785d" x="38.06675" y="273.312" style="fill: #262626; stroke: #262626"/>
      </g>
     </g>
     <g id="text_8">
      <!-- 0 -->
      <g style="fill: #262626" transform="translate(24.873125 276.461437) scale(0.088 -0.088)">
       <use xlink:href="#ArialMT-30"/>
      </g>
     </g>
    </g>
    <g id="ytick_2">
     <g id="line2d_8">
      <g>
       <use xlink:href="#m20f610785d" x="38.06675" y="242.592012" style="fill: #262626; stroke: #262626"/>
      </g>
     </g>
     <g id="text_9">
      <!-- 2 -->
      <g style="fill: #262626" transform="translate(24.873125 245.741449) scale(0.088 -0.088)">
       <use xlink:href="#ArialMT-32"/>
      </g>
     </g>
    </g>
    <g id="ytick_3">
     <g id="line2d_9">
      <g>
       <use xlink:href="#m20f610785d" x="38.06675" y="211.872024" style="fill: #262626; stroke: #262626"/>
      </g>
     </g>
     <g id="text_10">
      <!-- 4 -->
      <g style="fill: #262626" transform="translate(24.873125 215.021461) scale(0.088 -0.088)">
       <use xlink:href="#ArialMT-34"/>
      </g>
     </g>
    </g>
    <g id="ytick_4">
     <g id="line2d_10">
      <g>
       <use xlink:href="#m20f610785d" x="38.06675" y="181.152035" style="fill: #262626; stroke: #262626"/>
      </g>
     </g>
     <g id="text_11">
      <!-- 6 -->
      <g style="fill: #262626" transform="translate(24.873125 184.301473) scale(0.088 -0.088)">
       <use xlink:href="#ArialMT-36"/>
      </g>
     </g>
    </g>
    <g id="ytick_5">
     <g id="line2d_11">
      <g>
       <use xlink:href="#m20f610785d" x="38.06675" y="150.432047" style="fill: #262626; stroke: #262626"/>
      </g>
     </g>
     <g id="text_12">
      <!-- 8 -->
      <g style="fill: #262626" transform="translate(24.873125 153.581485) scale(0.088 -0.088)">
       <use xlink:href="#ArialMT-38"/>
      </g>
     </g>
    </g>
    <g id="ytick_6">
     <g id="line2d_12">
      <g>
       <use xlink:href="#m20f610785d" x="38.06675" y="119.712059" style="fill: #262626; stroke: #262626"/>
      </g>
     </g>
     <g id="text_13">
      <!-- 10 -->
      <g style="fill: #262626" transform="translate(19.9795 122.861496) scale(0.088 -0.088)">
       <use xlink:href="#ArialMT-31"/>
       <use xlink:href="#ArialMT-30" x="55.615234"/>
      </g>
     </g>
    </g>
    <g id="ytick_7">
     <g id="line2d_13">
      <g>
       <use xlink:href="#m20f610785d" x="38.06675" y="88.992071" style="fill: #262626; stroke: #262626"/>
      </g>
     </g>
     <g id="text_14">
      <!-- 12 -->
      <g style="fill: #262626" transform="translate(19.9795 92.141508) scale(0.088 -0.088)">
       <use xlink:href="#ArialMT-31"/>
       <use xlink:href="#ArialMT-32" x="55.615234"/>
      </g>
     </g>
    </g>
    <g id="ytick_8">
     <g id="line2d_14">
      <g>
       <use xlink:href="#m20f610785d" x="38.06675" y="58.272083" style="fill: #262626; stroke: #262626"/>
      </g>
     </g>
     <g id="text_15">
      <!-- 14 -->
      <g style="fill: #262626" transform="translate(19.9795 61.42152) scale(0.088 -0.088)">
       <use xlink:href="#ArialMT-31"/>
       <use xlink:href="#ArialMT-34" x="55.615234"/>
      </g>
     </g>
    </g>
    <g id="ytick_9">
     <g id="line2d_15">
      <g>
       <use xlink:href="#m20f610785d" x="38.06675" y="27.552094" style="fill: #262626; stroke: #262626"/>
      </g>
     </g>
     <g id="text_16">
      <!-- 16 -->
      <g style="fill: #262626" transform="translate(19.9795 30.701532) scale(0.088 -0.088)">
       <use xlink:href="#ArialMT-31"/>
       <use xlink:href="#ArialMT-36" x="55.615234"/>
      </g>
     </g>
    </g>
    <g id="text_17">
     <!-- $\pi(x)$ -->
     <g style="fill: #262626" transform="translate(14.0715 149.76) rotate(-90) scale(0.096 -0.096)">
      <defs>
       <path id="DejaVuSans-Oblique-3c0" d="M 584 3500 
L 3938 3500 
L 3825 2925 
L 3384 2925 
L 2966 775 
Q 2922 550 2981 450 
Q 3038 353 3209 353 
Q 3256 353 3325 363 
Q 3397 369 3419 372 
L 3338 -44 
Q 3222 -84 3103 -103 
Q 2981 -122 2866 -122 
Q 2491 -122 2388 81 
Q 2284 288 2391 838 
L 2797 2925 
L 1506 2925 
L 938 0 
L 350 0 
L 919 2925 
L 472 2925 
L 584 3500 
z
" transform="scale(0.015625)"/>
       <path id="DejaVuSans-28" d="M 1984 4856 
Q 1566 4138 1362 3434 
Q 1159 2731 1159 2009 
Q 1159 1288 1364 580 
Q 1569 -128 1984 -844 
L 1484 -844 
Q 1016 -109 783 600 
Q 550 1309 550 2009 
Q 550 2706 781 3412 
Q 1013 4119 1484 4856 
L 1984 4856 
z
" transform="scale(0.015625)"/>
       <path id="DejaVuSans-29" d="M 513 4856 
L 1013 4856 
Q 1481 4119 1714 3412 
Q 1947 2706 1947 2009 
Q 1947 1309 1714 600 
Q 1481 -109 1013 -844 
L 513 -844 
Q 928 -128 1133 580 
Q 1338 1288 1338 2009 
Q 1338 2731 1133 3434 
Q 928 4138 513 4856 
z
" transform="scale(0.015625)"/>
      </defs>
      <use xlink:href="#DejaVuSans-Oblique-3c0" transform="translate(0 0.125)"/>
      <use xlink:href="#DejaVuSans-28" transform="translate(60.205078 0.125)"/>
      <use xlink:href="#DejaVuSans-Oblique-78" transform="translate(99.21875 0.125)"/>
      <use xlink:href="#DejaVuSans-29" transform="translate(158.398438 0.125)"/>
     </g>
    </g>
   </g>
   <g id="patch_3">
    <path d="M 54.299477 273.312 
L 60.792568 273.312 
L 60.792568 62.88 
L 54.299477 62.88 
z
" clip-path="url(#p664a4f1a08)" style="fill: #1f77b4; opacity: 0.25; stroke: #ffffff; stroke-width: 0.8; stroke-linejoin: miter"/>
   </g>
   <g id="patch_4">
    <path d="M 60.792568 273.312 
L 67.285659 273.312 
L 67.285659 253.344 
L 60.792568 253.344 
z
" clip-path="url(#p664a4f1a08)" style="fill: #1f77b4; opacity: 0.25; stroke: #ffffff; stroke-width: 0.8; stroke-linejoin: miter"/>
   </g>
   <g id="patch_5">
    <path d="M 67.285659 273.312 
L 73.77875 273.312 
L 73.77875 258.72 
L 67.285659 258.72 
z
" clip-path="url(#p664a4f1a08)" style="fill: #1f77b4; opacity: 0.25; stroke: #ffffff; stroke-width: 0.8; stroke-linejoin: miter"/>
   </g>
   <g id="patch_6">
    <path d="M 73.77875 273.312 
L 80.271841 273.312 
L 80.271841 263.328 
L 73.77875 263.328 
z
" clip-path="url(#p664a4f1a08)" style="fill: #1f77b4; opacity: 0.25; stroke: #ffffff; stroke-width: 0.8; stroke-linejoin: miter"/>
   </g>
   <g id="patch_7">
    <path d="M 80.271841 273.312 
L 86.764932 273.312 
L 86.764932 268.704 
L 80.271841 268.704 
z
" clip-path="url(#p664a4f1a08)" style="fill: #1f77b4; opacity: 0.25; stroke: #ffffff; stroke-width: 0.8; stroke-linejoin: miter"/>
   </g>
   <g id="patch_8">
    <path d="M 86.764932 273.312 
L 93.258023 273.312 
L 93.258023 257.952 
L 86.764932 257.952 
z
" clip-path="url(#p664a4f1a08)" style="fill: #1f77b4; opacity: 0.25; stroke: #ffffff; stroke-width: 0.8; stroke-linejoin: miter"/>
   </g>
   <g id="patch_9">
    <path d="M 93.258023 273.312 
L 99.751114 273.312 
L 99.751114 269.472 
L 93.258023 269.472 
z
" clip-path="url(#p664a4f1a08)" style="fill: #1f77b4; opacity: 0.25; stroke: #ffffff; stroke-width: 0.8; stroke-linejoin: miter"/>
   </g>
   <g id="patch_10">
    <path d="M 99.751114 273.312 
L 106.244205 273.312 
L 106.244205 265.632 
L 99.751114 265.632 
z
" clip-path="url(#p664a4f1a08)" style="fill: #1f77b4; opacity: 0.25; stroke: #ffffff; stroke-width: 0.8; stroke-linejoin: miter"/>
   </g>
   <g id="patch_11">
    <path d="M 106.244205 273.312 
L 112.737295 273.312 
L 112.737295 267.936 
L 106.244205 267.936 
z
" clip-path="url(#p664a4f1a08)" style="fill: #1f77b4; opacity: 0.25; stroke: #ffffff; stroke-width: 0.8; stroke-linejoin: miter"/>
   </g>
   <g id="patch_12">
    <path d="M 112.737295 273.312 
L 119.230386 273.312 
L 119.230386 268.704 
L 112.737295 268.704 
z
" clip-path="url(#p664a4f1a08)" style="fill: #1f77b4; opacity: 0.25; stroke: #ffffff; stroke-width: 0.8; stroke-linejoin: miter"/>
   </g>
   <g id="patch_13">
    <path d="M 119.230386 273.312 
L 125.723477 273.312 
L 125.723477 268.704 
L 119.230386 268.704 
z
" clip-path="url(#p664a4f1a08)" style="fill: #1f77b4; opacity: 0.25; stroke: #ffffff; stroke-width: 0.8; stroke-linejoin: miter"/>
   </g>
   <g id="patch_14">
    <path d="M 125.723477 273.312 
L 132.216568 273.312 
L 132.216568 267.936 
L 125.723477 267.936 
z
" clip-path="url(#p664a4f1a08)" style="fill: #1f77b4; opacity: 0.25; stroke: #ffffff; stroke-width: 0.8; stroke-linejoin: miter"/>
   </g>
   <g id="patch_15">
    <path d="M 132.216568 273.312 
L 138.709659 273.312 
L 138.709659 266.4 
L 132.216568 266.4 
z
" clip-path="url(#p664a4f1a08)" style="fill: #1f77b4; opacity: 0.25; stroke: #ffffff; stroke-width: 0.8; stroke-linejoin: miter"/>
   </g>
   <g id="patch_16">
    <path d="M 138.709659 273.312 
L 145.20275 273.312 
L 145.20275 267.936 
L 138.709659 267.936 
z
" clip-path="url(#p664a4f1a08)" style="fill: #1f77b4; opacity: 0.25; stroke: #ffffff; stroke-width: 0.8; stroke-linejoin: miter"/>
   </g>
   <g id="patch_17">
    <path d="M 145.20275 273.312 
L 151.695841 273.312 
L 151.695841 271.776 
L 145.20275 271.776 
z
" clip-path="url(#p664a4f1a08)" style="fill: #1f77b4; opacity: 0.25; stroke: #ffffff; stroke-width: 0.8; stroke-linejoin: miter"/>
   </g>
   <g id="patch_18">
    <path d="M 151.695841 273.312 
L 158.188932 273.312 
L 158.188932 265.632 
L 151.695841 265.632 
z
" clip-path="url(#p664a4f1a08)" style="fill: #1f77b4; opacity: 0.25; stroke: #ffffff; stroke-width: 0.8; stroke-linejoin: miter"/>
   </g>
   <g id="patch_19">
    <path d="M 158.188932 273.312 
L 164.682023 273.312 
L 164.682023 270.24 
L 158.188932 270.24 
z
" clip-path="url(#p664a4f1a08)" style="fill: #1f77b4; opacity: 0.25; stroke: #ffffff; stroke-width: 0.8; stroke-linejoin: miter"/>
   </g>
   <g id="patch_20">
    <path d="M 164.682023 273.312 
L 171.175114 273.312 
L 171.175114 269.472 
L 164.682023 269.472 
z
" clip-path="url(#p664a4f1a08)" style="fill: #1f77b4; opacity: 0.25; stroke: #ffffff; stroke-width: 0.8; stroke-linejoin: miter"/>
   </g>
   <g id="patch_21">
    <path d="M 171.175114 273.312 
L 177.668205 273.312 
L 177.668205 266.4 
L 171.175114 266.4 
z
" clip-path="url(#p664a4f1a08)" style="fill: #1f77b4; opacity: 0.25; stroke: #ffffff; stroke-width: 0.8; stroke-linejoin: miter"/>
   </g>
   <g id="patch_22">
    <path d="M 177.668205 273.312 
L 184.161295 273.312 
L 184.161295 272.544 
L 177.668205 272.544 
z
" clip-path="url(#p664a4f1a08)" style="fill: #1f77b4; opacity: 0.25; stroke: #ffffff; stroke-width: 0.8; stroke-linejoin: miter"/>
   </g>
   <g id="patch_23">
    <path d="M 184.161295 273.312 
L 190.654386 273.312 
L 190.654386 268.704 
L 184.161295 268.704 
z
" clip-path="url(#p664a4f1a08)" style="fill: #1f77b4; opacity: 0.25; stroke: #ffffff; stroke-width: 0.8; stroke-linejoin: miter"/>
   </g>
   <g id="patch_24">
    <path d="M 190.654386 273.312 
L 197.147477 273.312 
L 197.147477 269.472 
L 190.654386 269.472 
z
" clip-path="url(#p664a4f1a08)" style="fill: #1f77b4; opacity: 0.25; stroke: #ffffff; stroke-width: 0.8; stroke-linejoin: miter"/>
   </g>
   <g id="patch_25">
    <path d="M 197.147477 273.312 
L 203.640568 273.312 
L 203.640568 267.168 
L 197.147477 267.168 
z
" clip-path="url(#p664a4f1a08)" style="fill: #1f77b4; opacity: 0.25; stroke: #ffffff; stroke-width: 0.8; stroke-linejoin: miter"/>
   </g>
   <g id="patch_26">
    <path d="M 203.640568 273.312 
L 210.133659 273.312 
L 210.133659 270.24 
L 203.640568 270.24 
z
" clip-path="url(#p664a4f1a08)" style="fill: #1f77b4; opacity: 0.25; stroke: #ffffff; stroke-width: 0.8; stroke-linejoin: miter"/>
   </g>
   <g id="patch_27">
    <path d="M 210.133659 273.312 
L 216.62675 273.312 
L 216.62675 271.776 
L 210.133659 271.776 
z
" clip-path="url(#p664a4f1a08)" style="fill: #1f77b4; opacity: 0.25; stroke: #ffffff; stroke-width: 0.8; stroke-linejoin: miter"/>
   </g>
   <g id="patch_28">
    <path d="M 216.62675 273.312 
L 223.119841 273.312 
L 223.119841 267.936 
L 216.62675 267.936 
z
" clip-path="url(#p664a4f1a08)" style="fill: #1f77b4; opacity: 0.25; stroke: #ffffff; stroke-width: 0.8; stroke-linejoin: miter"/>
   </g>
   <g id="patch_29">
    <path d="M 223.119841 273.312 
L 229.612932 273.312 
L 229.612932 269.472 
L 223.119841 269.472 
z
" clip-path="url(#p664a4f1a08)" style="fill: #1f77b4; opacity: 0.25; stroke: #ffffff; stroke-width: 0.8; stroke-linejoin: miter"/>
   </g>
   <g id="patch_30">
    <path d="M 229.612932 273.312 
L 236.106023 273.312 
L 236.106023 270.24 
L 229.612932 270.24 
z
" clip-path="url(#p664a4f1a08)" style="fill: #1f77b4; opacity: 0.25; stroke: #ffffff; stroke-width: 0.8; stroke-linejoin: miter"/>
   </g>
   <g id="patch_31">
    <path d="M 236.106023 273.312 
L 242.599114 273.312 
L 242.599114 271.776 
L 236.106023 271.776 
z
" clip-path="url(#p664a4f1a08)" style="fill: #1f77b4; opacity: 0.25; stroke: #ffffff; stroke-width: 0.8; stroke-linejoin: miter"/>
   </g>
   <g id="patch_32">
    <path d="M 242.599114 273.312 
L 249.092205 273.312 
L 249.092205 271.008 
L 242.599114 271.008 
z
" clip-path="url(#p664a4f1a08)" style="fill: #1f77b4; opacity: 0.25; stroke: #ffffff; stroke-width: 0.8; stroke-linejoin: miter"/>
   </g>
   <g id="patch_33">
    <path d="M 249.092205 273.312 
L 255.585295 273.312 
L 255.585295 268.704 
L 249.092205 268.704 
z
" clip-path="url(#p664a4f1a08)" style="fill: #1f77b4; opacity: 0.25; stroke: #ffffff; stroke-width: 0.8; stroke-linejoin: miter"/>
   </g>
   <g id="patch_34">
    <path d="M 255.585295 273.312 
L 262.078386 273.312 
L 262.078386 270.24 
L 255.585295 270.24 
z
" clip-path="url(#p664a4f1a08)" style="fill: #1f77b4; opacity: 0.25; stroke: #ffffff; stroke-width: 0.8; stroke-linejoin: miter"/>
   </g>
   <g id="patch_35">
    <path d="M 262.078386 273.312 
L 268.571477 273.312 
L 268.571477 270.24 
L 262.078386 270.24 
z
" clip-path="url(#p664a4f1a08)" style="fill: #1f77b4; opacity: 0.25; stroke: #ffffff; stroke-width: 0.8; stroke-linejoin: miter"/>
   </g>
   <g id="patch_36">
    <path d="M 268.571477 273.312 
L 275.064568 273.312 
L 275.064568 271.008 
L 268.571477 271.008 
z
" clip-path="url(#p664a4f1a08)" style="fill: #1f77b4; opacity: 0.25; stroke: #ffffff; stroke-width: 0.8; stroke-linejoin: miter"/>
   </g>
   <g id="patch_37">
    <path d="M 275.064568 273.312 
L 281.557659 273.312 
L 281.557659 266.4 
L 275.064568 266.4 
z
" clip-path="url(#p664a4f1a08)" style="fill: #1f77b4; opacity: 0.25; stroke: #ffffff; stroke-width: 0.8; stroke-linejoin: miter"/>
   </g>
   <g id="patch_38">
    <path d="M 281.557659 273.312 
L 288.05075 273.312 
L 288.05075 266.4 
L 281.557659 266.4 
z
" clip-path="url(#p664a4f1a08)" style="fill: #1f77b4; opacity: 0.25; stroke: #ffffff; stroke-width: 0.8; stroke-linejoin: miter"/>
   </g>
   <g id="patch_39">
    <path d="M 288.05075 273.312 
L 294.543841 273.312 
L 294.543841 267.936 
L 288.05075 267.936 
z
" clip-path="url(#p664a4f1a08)" style="fill: #1f77b4; opacity: 0.25; stroke: #ffffff; stroke-width: 0.8; stroke-linejoin: miter"/>
   </g>
   <g id="patch_40">
    <path d="M 294.543841 273.312 
L 301.036932 273.312 
L 301.036932 268.704 
L 294.543841 268.704 
z
" clip-path="url(#p664a4f1a08)" style="fill: #1f77b4; opacity: 0.25; stroke: #ffffff; stroke-width: 0.8; stroke-linejoin: miter"/>
   </g>
   <g id="patch_41">
    <path d="M 301.036932 273.312 
L 307.530023 273.312 
L 307.530023 267.936 
L 301.036932 267.936 
z
" clip-path="url(#p664a4f1a08)" style="fill: #1f77b4; opacity: 0.25; stroke: #ffffff; stroke-width: 0.8; stroke-linejoin: miter"/>
   </g>
   <g id="patch_42">
    <path d="M 307.530023 273.312 
L 314.023114 273.312 
L 314.023114 268.704 
L 307.530023 268.704 
z
" clip-path="url(#p664a4f1a08)" style="fill: #1f77b4; opacity: 0.25; stroke: #ffffff; stroke-width: 0.8; stroke-linejoin: miter"/>
   </g>
   <g id="patch_43">
    <path d="M 314.023114 273.312 
L 320.516205 273.312 
L 320.516205 266.4 
L 314.023114 266.4 
z
" clip-path="url(#p664a4f1a08)" style="fill: #1f77b4; opacity: 0.25; stroke: #ffffff; stroke-width: 0.8; stroke-linejoin: miter"/>
   </g>
   <g id="patch_44">
    <path d="M 320.516205 273.312 
L 327.009295 273.312 
L 327.009295 262.56 
L 320.516205 262.56 
z
" clip-path="url(#p664a4f1a08)" style="fill: #1f77b4; opacity: 0.25; stroke: #ffffff; stroke-width: 0.8; stroke-linejoin: miter"/>
   </g>
   <g id="patch_45">
    <path d="M 327.009295 273.312 
L 333.502386 273.312 
L 333.502386 265.632 
L 327.009295 265.632 
z
" clip-path="url(#p664a4f1a08)" style="fill: #1f77b4; opacity: 0.25; stroke: #ffffff; stroke-width: 0.8; stroke-linejoin: miter"/>
   </g>
   <g id="patch_46">
    <path d="M 333.502386 273.312 
L 339.995477 273.312 
L 339.995477 270.24 
L 333.502386 270.24 
z
" clip-path="url(#p664a4f1a08)" style="fill: #1f77b4; opacity: 0.25; stroke: #ffffff; stroke-width: 0.8; stroke-linejoin: miter"/>
   </g>
   <g id="patch_47">
    <path d="M 339.995477 273.312 
L 346.488568 273.312 
L 346.488568 264.864 
L 339.995477 264.864 
z
" clip-path="url(#p664a4f1a08)" style="fill: #1f77b4; opacity: 0.25; stroke: #ffffff; stroke-width: 0.8; stroke-linejoin: miter"/>
   </g>
   <g id="patch_48">
    <path d="M 346.488568 273.312 
L 352.981659 273.312 
L 352.981659 266.4 
L 346.488568 266.4 
z
" clip-path="url(#p664a4f1a08)" style="fill: #1f77b4; opacity: 0.25; stroke: #ffffff; stroke-width: 0.8; stroke-linejoin: miter"/>
   </g>
   <g id="patch_49">
    <path d="M 352.981659 273.312 
L 359.47475 273.312 
L 359.47475 263.328 
L 352.981659 263.328 
z
" clip-path="url(#p664a4f1a08)" style="fill: #1f77b4; opacity: 0.25; stroke: #ffffff; stroke-width: 0.8; stroke-linejoin: miter"/>
   </g>
   <g id="patch_50">
    <path d="M 359.47475 273.312 
L 365.967841 273.312 
L 365.967841 260.256 
L 359.47475 260.256 
z
" clip-path="url(#p664a4f1a08)" style="fill: #1f77b4; opacity: 0.25; stroke: #ffffff; stroke-width: 0.8; stroke-linejoin: miter"/>
   </g>
   <g id="patch_51">
    <path d="M 365.967841 273.312 
L 372.460932 273.312 
L 372.460932 250.272 
L 365.967841 250.272 
z
" clip-path="url(#p664a4f1a08)" style="fill: #1f77b4; opacity: 0.25; stroke: #ffffff; stroke-width: 0.8; stroke-linejoin: miter"/>
   </g>
   <g id="patch_52">
    <path d="M 372.460932 273.312 
L 378.954023 273.312 
L 378.954023 19.872 
L 372.460932 19.872 
z
" clip-path="url(#p664a4f1a08)" style="fill: #1f77b4; opacity: 0.25; stroke: #ffffff; stroke-width: 0.8; stroke-linejoin: miter"/>
   </g>
   <g id="line2d_16">
    <path d="M 57.578759 224.148579 
L 60.858099 246.721653 
L 64.137439 254.678591 
L 67.416779 258.792879 
L 70.696119 261.320942 
L 73.97546 263.037167 
L 77.2548 264.280741 
L 80.53414 265.224257 
L 83.81348 265.965017 
L 87.09282 266.562143 
L 90.37216 267.05368 
L 93.6515 267.465242 
L 96.93084 267.814719 
L 100.21018 268.114993 
L 103.48952 268.37558 
L 106.768861 268.603666 
L 110.048201 268.804777 
L 113.327541 268.983237 
L 116.606881 269.142477 
L 119.886221 269.285255 
L 123.165561 269.41381 
L 126.444901 269.529983 
L 129.724241 269.635299 
L 133.003581 269.731033 
L 136.282921 269.818257 
L 139.562262 269.897879 
L 142.841602 269.970673 
L 146.120942 270.037305 
L 149.400282 270.098346 
L 152.679622 270.15429 
L 155.958962 270.205567 
L 159.238302 270.252551 
L 162.517642 270.295568 
L 165.796982 270.334906 
L 169.076323 270.370815 
L 172.355663 270.403515 
L 175.635003 270.4332 
L 178.914343 270.46004 
L 182.193683 270.484183 
L 185.473023 270.50576 
L 188.752363 270.524885 
L 192.031703 270.541655 
L 195.311043 270.556155 
L 198.590383 270.568457 
L 201.869724 270.578621 
L 205.149064 270.586694 
L 208.428404 270.592717 
L 211.707744 270.596716 
L 214.987084 270.598711 
L 218.266424 270.598711 
L 221.545764 270.596716 
L 224.825104 270.592717 
L 228.104444 270.586694 
L 231.383784 270.578621 
L 234.663125 270.568457 
L 237.942465 270.556155 
L 241.221805 270.541655 
L 244.501145 270.524885 
L 247.780485 270.50576 
L 251.059825 270.484183 
L 254.339165 270.46004 
L 257.618505 270.4332 
L 260.897845 270.403515 
L 264.177185 270.370815 
L 267.456526 270.334906 
L 270.735866 270.295568 
L 274.015206 270.252551 
L 277.294546 270.205567 
L 280.573886 270.15429 
L 283.853226 270.098346 
L 287.132566 270.037305 
L 290.411906 269.970673 
L 293.691246 269.897879 
L 296.970586 269.818257 
L 300.249927 269.731033 
L 303.529267 269.635299 
L 306.808607 269.529983 
L 310.087947 269.41381 
L 313.367287 269.285255 
L 316.646627 269.142477 
L 319.925967 268.983237 
L 323.205307 268.804777 
L 326.484647 268.603666 
L 329.763988 268.37558 
L 333.043328 268.114993 
L 336.322668 267.814719 
L 339.602008 267.465242 
L 342.881348 267.05368 
L 346.160688 266.562143 
L 349.440028 265.965017 
L 352.719368 265.224257 
L 355.998708 264.280741 
L 359.278048 263.037167 
L 362.557389 261.320942 
L 365.836729 258.792879 
L 369.116069 254.678591 
L 372.395409 246.721653 
L 375.674749 224.148579 
" clip-path="url(#p664a4f1a08)" style="fill: none; stroke: #ff7f0e; stroke-width: 1.2; stroke-linecap: round"/>
   </g>
   <g id="patch_53">
    <path d="M 38.06675 273.312 
L 38.06675 27.552094 
" style="fill: none; stroke: #262626; stroke-linejoin: miter; stroke-linecap: square"/>
   </g>
   <g id="patch_54">
    <path d="M 54.299419 273.312 
L 378.954089 273.312 
" style="fill: none; stroke: #262626; stroke-linejoin: miter; stroke-linecap: square"/>
   </g>
  </g>
 </g>
 <defs>
  <clipPath id="p664a4f1a08">
   <rect x="38.06675" y="7.2" width="357.12" height="266.112"/>
  </clipPath>
 </defs>
</svg>