<?xml version="1.0" encoding="utf-8" standalone="no"?>
<!DOCTYPE svg PUBLIC "-//W3C//DTD SVG 1.1//EN"
  "http://www.w3.org/Graphics/SVG/1.1/DTD/svg11.dtd">
<svg xmlns:xlink="http://www.w3.org/1999/xlink" width="402.49925pt" height="322.627875pt" viewBox="0 0 402.49925 322.627875" xmlns="http://www.w3.org/2000/svg" version="1.1">
 <metadata>
  <rdf:RDF xmlns:dc="http://purl.org/dc/elements/1.1/" xmlns:cc="http://creativecommons.org/ns#" xmlns:rdf="http://www.w3.org/1999/02/22-rdf-syntax-ns#">
   <cc:Work>
    <dc:type rdf:resource="http://purl.org/dc/dcmitype/StillImage"/>
    <dc:date>2023-11-03T13:24:07.116690</dc:date>
    <dc:format>image/svg+xml</dc:format>
    <dc:creator>
     <cc:Agent>
      <dc:title>Matplotlib v3.8.0, https://matplotlib.org/</dc:title>
     </cc:Agent>
    </dc:creator>
   </cc:Work>
  </rdf:RDF>
 </metadata>
 <defs>
  <style type="text/css">*{stroke-linejoin: round; stroke-linecap: butt}</style>
 </defs>
 <g id="figure_1">
  <g id="patch_1">
   <path d="M 0 322.627875 
L 402.49925 322.627875 
L 402.49925 0 
L 0 0 
z
" style="fill: #ffffff"/>
  </g>
  <g id="axes_1">
   <g id="patch_2">
    <path d="M 38.17925 286.3005 
L 395.29925 286.3005 
L 395.29925 20.1885 
L 38.17925 20.1885 
z
" style="fill: #ffffff"/>
   </g>
   <g id="matplotlib.axis_1">
    <g id="xtick_1">
     <g id="line2d_1">
      <defs>
       <path id="m7ce791b10f" d="M 0 0 
L 0 4.8 
" style="stroke: #262626"/>
      </defs>
      <g>
       <use xlink:href="#m7ce791b10f" x="54.086672" y="286.3005" style="fill: #262626; stroke: #262626"/>
      </g>
     </g>
     <g id="text_1">
      <!-- 0.0 -->
      <g style="fill: #262626" transform="translate(47.970672 300.899375) scale(0.088 -0.088)">
       <defs>
        <path id="ArialMT-30" d="M 266 2259 
Q 266 3072 433 3567 
Q 600 4063 929 4331 
Q 1259 4600 1759 4600 
Q 2128 4600 2406 4451 
Q 2684 4303 2865 4023 
Q 3047 3744 3150 3342 
Q 3253 2941 3253 2259 
Q 3253 1453 3087 958 
Q 2922 463 2592 192 
Q 2263 -78 1759 -78 
Q 1097 -78 719 397 
Q 266 969 266 2259 
z
M 844 2259 
Q 844 1131 1108 757 
Q 1372 384 1759 384 
Q 2147 384 2411 759 
Q 2675 1134 2675 2259 
Q 2675 3391 2411 3762 
Q 2147 4134 1753 4134 
Q 1366 4134 1134 3806 
Q 844 3388 844 2259 
z
" transform="scale(0.015625)"/>
        <path id="ArialMT-2e" d="M 581 0 
L 581 641 
L 1222 641 
L 1222 0 
L 581 0 
z
" transform="scale(0.015625)"/>
       </defs>
       <use xlink:href="#ArialMT-30"/>
       <use xlink:href="#ArialMT-2e" x="55.615234"/>
       <use xlink:href="#ArialMT-30" x="83.398438"/>
      </g>
     </g>
    </g>
    <g id="xtick_2">
     <g id="line2d_2">
      <g>
       <use xlink:href="#m7ce791b10f" x="119.147703" y="286.3005" style="fill: #262626; stroke: #262626"/>
      </g>
     </g>
     <g id="text_2">
      <!-- 0.2 -->
      <g style="fill: #262626" transform="translate(113.031703 300.899375) scale(0.088 -0.088)">
       <defs>
        <path id="ArialMT-32" d="M 3222 541 
L 3222 0 
L 194 0 
Q 188 203 259 391 
Q 375 700 629 1000 
Q 884 1300 1366 1694 
Q 2113 2306 2375 2664 
Q 2638 3022 2638 3341 
Q 2638 3675 2398 3904 
Q 2159 4134 1775 4134 
Q 1369 4134 1125 3890 
Q 881 3647 878 3216 
L 300 3275 
Q 359 3922 746 4261 
Q 1134 4600 1788 4600 
Q 2447 4600 2831 4234 
Q 3216 3869 3216 3328 
Q 3216 3053 3103 2787 
Q 2991 2522 2730 2228 
Q 2469 1934 1863 1422 
Q 1356 997 1212 845 
Q 1069 694 975 541 
L 3222 541 
z
" transform="scale(0.015625)"/>
       </defs>
       <use xlink:href="#ArialMT-30"/>
       <use xlink:href="#ArialMT-2e" x="55.615234"/>
       <use xlink:href="#ArialMT-32" x="83.398438"/>
      </g>
     </g>
    </g>
    <g id="xtick_3">
     <g id="line2d_3">
      <g>
       <use xlink:href="#m7ce791b10f" x="184.208734" y="286.3005" style="fill: #262626; stroke: #262626"/>
      </g>
     </g>
     <g id="text_3">
      <!-- 0.4 -->
      <g style="fill: #262626" transform="translate(178.092734 300.899375) scale(0.088 -0.088)">
       <defs>
        <path id="ArialMT-34" d="M 2069 0 
L 2069 1097 
L 81 1097 
L 81 1613 
L 2172 4581 
L 2631 4581 
L 2631 1613 
L 3250 1613 
L 3250 1097 
L 2631 1097 
L 2631 0 
L 2069 0 
z
M 2069 1613 
L 2069 3678 
L 634 1613 
L 2069 1613 
z
" transform="scale(0.015625)"/>
       </defs>
       <use xlink:href="#ArialMT-30"/>
       <use xlink:href="#ArialMT-2e" x="55.615234"/>
       <use xlink:href="#ArialMT-34" x="83.398438"/>
      </g>
     </g>
    </g>
    <g id="xtick_4">
     <g id="line2d_4">
      <g>
       <use xlink:href="#m7ce791b10f" x="249.269766" y="286.3005" style="fill: #262626; stroke: #262626"/>
      </g>
     </g>
     <g id="text_4">
      <!-- 0.6 -->
      <g style="fill: #262626" transform="translate(243.153766 300.899375) scale(0.088 -0.088)">
       <defs>
        <path id="ArialMT-36" d="M 3184 3459 
L 2625 3416 
Q 2550 3747 2413 3897 
Q 2184 4138 1850 4138 
Q 1581 4138 1378 3988 
Q 1113 3794 959 3422 
Q 806 3050 800 2363 
Q 1003 2672 1297 2822 
Q 1591 2972 1913 2972 
Q 2475 2972 2870 2558 
Q 3266 2144 3266 1488 
Q 3266 1056 3080 686 
Q 2894 316 2569 119 
Q 2244 -78 1831 -78 
Q 1128 -78 684 439 
Q 241 956 241 2144 
Q 241 3472 731 4075 
Q 1159 4600 1884 4600 
Q 2425 4600 2770 4297 
Q 3116 3994 3184 3459 
z
M 888 1484 
Q 888 1194 1011 928 
Q 1134 663 1356 523 
Q 1578 384 1822 384 
Q 2178 384 2434 671 
Q 2691 959 2691 1453 
Q 2691 1928 2437 2201 
Q 2184 2475 1800 2475 
Q 1419 2475 1153 2201 
Q 888 1928 888 1484 
z
" transform="scale(0.015625)"/>
       </defs>
       <use xlink:href="#ArialMT-30"/>
       <use xlink:href="#ArialMT-2e" x="55.615234"/>
       <use xlink:href="#ArialMT-36" x="83.398438"/>
      </g>
     </g>
    </g>
    <g id="xtick_5">
     <g id="line2d_5">
      <g>
       <use xlink:href="#m7ce791b10f" x="314.330797" y="286.3005" style="fill: #262626; stroke: #262626"/>
      </g>
     </g>
     <g id="text_5">
      <!-- 0.8 -->
      <g style="fill: #262626" transform="translate(308.214797 300.899375) scale(0.088 -0.088)">
       <defs>
        <path id="ArialMT-38" d="M 1131 2484 
Q 781 2613 612 2850 
Q 444 3088 444 3419 
Q 444 3919 803 4259 
Q 1163 4600 1759 4600 
Q 2359 4600 2725 4251 
Q 3091 3903 3091 3403 
Q 3091 3084 2923 2848 
Q 2756 2613 2416 2484 
Q 2838 2347 3058 2040 
Q 3278 1734 3278 1309 
Q 3278 722 2862 322 
Q 2447 -78 1769 -78 
Q 1091 -78 675 323 
Q 259 725 259 1325 
Q 259 1772 486 2073 
Q 713 2375 1131 2484 
z
M 1019 3438 
Q 1019 3113 1228 2906 
Q 1438 2700 1772 2700 
Q 2097 2700 2305 2904 
Q 2513 3109 2513 3406 
Q 2513 3716 2298 3927 
Q 2084 4138 1766 4138 
Q 1444 4138 1231 3931 
Q 1019 3725 1019 3438 
z
M 838 1322 
Q 838 1081 952 856 
Q 1066 631 1291 507 
Q 1516 384 1775 384 
Q 2178 384 2440 643 
Q 2703 903 2703 1303 
Q 2703 1709 2433 1975 
Q 2163 2241 1756 2241 
Q 1359 2241 1098 1978 
Q 838 1716 838 1322 
z
" transform="scale(0.015625)"/>
       </defs>
       <use xlink:href="#ArialMT-30"/>
       <use xlink:href="#ArialMT-2e" x="55.615234"/>
       <use xlink:href="#ArialMT-38" x="83.398438"/>
      </g>
     </g>
    </g>
    <g id="xtick_6">
     <g id="line2d_6">
      <g>
       <use xlink:href="#m7ce791b10f" x="379.391828" y="286.3005" style="fill: #262626; stroke: #262626"/>
      </g>
     </g>
     <g id="text_6">
      <!-- 1.0 -->
      <g style="fill: #262626" transform="translate(373.275828 300.899375) scale(0.088 -0.088)">
       <defs>
        <path id="ArialMT-31" d="M 2384 0 
L 1822 0 
L 1822 3584 
Q 1619 3391 1289 3197 
Q 959 3003 697 2906 
L 697 3450 
Q 1169 3672 1522 3987 
Q 1875 4303 2022 4600 
L 2384 4600 
L 2384 0 
z
" transform="scale(0.015625)"/>
       </defs>
       <use xlink:href="#ArialMT-31"/>
       <use xlink:href="#ArialMT-2e" x="55.615234"/>
       <use xlink:href="#ArialMT-30" x="83.398438"/>
      </g>
     </g>
    </g>
    <g id="text_7">
     <!-- $\theta$ -->
     <g style="fill: #262626" transform="translate(213.76325 313.519875) scale(0.096 -0.096)">
      <defs>
       <path id="DejaVuSans-Oblique-3b8" d="M 2913 2219 
L 925 2219 
Q 791 1284 928 888 
Q 1100 400 1566 400 
Q 2034 400 2391 891 
Q 2703 1322 2913 2219 
z
M 3009 2750 
Q 3094 3638 2984 3950 
Q 2813 4444 2353 4444 
Q 1875 4444 1525 3956 
Q 1250 3563 1034 2750 
L 3009 2750 
z
M 2444 4913 
Q 3194 4913 3494 4250 
Q 3794 3591 3566 2422 
Q 3341 1256 2781 594 
Q 2225 -72 1475 -72 
Q 722 -72 425 594 
Q 128 1256 353 2422 
Q 581 3591 1134 4250 
Q 1691 4913 2444 4913 
z
" transform="scale(0.015625)"/>
      </defs>
      <use xlink:href="#DejaVuSans-Oblique-3b8" transform="translate(0 0.234375)"/>
     </g>
    </g>
   </g>
   <g id="matplotlib.axis_2">
    <g id="ytick_1">
     <g id="line2d_7">
      <defs>
       <path id="m0c22c30513" d="M 0 0 
L -4.8 0 
" style="stroke: #262626"/>
      </defs>
      <g>
       <use xlink:href="#m0c22c30513" x="38.17925" y="286.3005" style="fill: #262626; stroke: #262626"/>
      </g>
     </g>
     <g id="text_8">
      <!-- 0 -->
      <g style="fill: #262626" transform="translate(24.985625 289.449937) scale(0.088 -0.088)">
       <use xlink:href="#ArialMT-30"/>
      </g>
     </g>
    </g>
    <g id="ytick_2">
     <g id="line2d_8">
      <g>
       <use xlink:href="#m0c22c30513" x="38.17925" y="255.987591" style="fill: #262626; stroke: #262626"/>
      </g>
     </g>
     <g id="text_9">
      <!-- 2 -->
      <g style="fill: #262626" transform="translate(24.985625 259.137029) scale(0.088 -0.088)">
       <use xlink:href="#ArialMT-32"/>
      </g>
     </g>
    </g>
    <g id="ytick_3">
     <g id="line2d_9">
      <g>
       <use xlink:href="#m0c22c30513" x="38.17925" y="225.674682" style="fill: #262626; stroke: #262626"/>
      </g>
     </g>
     <g id="text_10">
      <!-- 4 -->
      <g style="fill: #262626" transform="translate(24.985625 228.82412) scale(0.088 -0.088)">
       <use xlink:href="#ArialMT-34"/>
      </g>
     </g>
    </g>
    <g id="ytick_4">
     <g id="line2d_10">
      <g>
       <use xlink:href="#m0c22c30513" x="38.17925" y="195.361773" style="fill: #262626; stroke: #262626"/>
      </g>
     </g>
     <g id="text_11">
      <!-- 6 -->
      <g style="fill: #262626" transform="translate(24.985625 198.511211) scale(0.088 -0.088)">
       <use xlink:href="#ArialMT-36"/>
      </g>
     </g>
    </g>
    <g id="ytick_5">
     <g id="line2d_11">
      <g>
       <use xlink:href="#m0c22c30513" x="38.17925" y="165.048864" style="fill: #262626; stroke: #262626"/>
      </g>
     </g>
     <g id="text_12">
      <!-- 8 -->
      <g style="fill: #262626" transform="translate(24.985625 168.198302) scale(0.088 -0.088)">
       <use xlink:href="#ArialMT-38"/>
      </g>
     </g>
    </g>
    <g id="ytick_6">
     <g id="line2d_12">
      <g>
       <use xlink:href="#m0c22c30513" x="38.17925" y="134.735955" style="fill: #262626; stroke: #262626"/>
      </g>
     </g>
     <g id="text_13">
      <!-- 10 -->
      <g style="fill: #262626" transform="translate(20.092 137.885393) scale(0.088 -0.088)">
       <use xlink:href="#ArialMT-31"/>
       <use xlink:href="#ArialMT-30" x="55.615234"/>
      </g>
     </g>
    </g>
    <g id="ytick_7">
     <g id="line2d_13">
      <g>
       <use xlink:href="#m0c22c30513" x="38.17925" y="104.423046" style="fill: #262626; stroke: #262626"/>
      </g>
     </g>
     <g id="text_14">
      <!-- 12 -->
      <g style="fill: #262626" transform="translate(20.092 107.572484) scale(0.088 -0.088)">
       <use xlink:href="#ArialMT-31"/>
       <use xlink:href="#ArialMT-32" x="55.615234"/>
      </g>
     </g>
    </g>
    <g id="ytick_8">
     <g id="line2d_14">
      <g>
       <use xlink:href="#m0c22c30513" x="38.17925" y="74.110137" style="fill: #262626; stroke: #262626"/>
      </g>
     </g>
     <g id="text_15">
      <!-- 14 -->
      <g style="fill: #262626" transform="translate(20.092 77.259575) scale(0.088 -0.088)">
       <use xlink:href="#ArialMT-31"/>
       <use xlink:href="#ArialMT-34" x="55.615234"/>
      </g>
     </g>
    </g>
    <g id="ytick_9">
     <g id="line2d_15">
      <g>
       <use xlink:href="#m0c22c30513" x="38.17925" y="43.797229" style="fill: #262626; stroke: #262626"/>
      </g>
     </g>
     <g id="text_16">
      <!-- 16 -->
      <g style="fill: #262626" transform="translate(20.092 46.946666) scale(0.088 -0.088)">
       <use xlink:href="#ArialMT-31"/>
       <use xlink:href="#ArialMT-36" x="55.615234"/>
      </g>
     </g>
    </g>
    <g id="text_17">
     <!-- Density -->
     <g style="fill: #262626" transform="translate(14.0715 169.2495) rotate(-90) scale(0.096 -0.096)">
      <defs>
       <path id="ArialMT-44" d="M 494 0 
L 494 4581 
L 2072 4581 
Q 2606 4581 2888 4516 
Q 3281 4425 3559 4188 
Q 3922 3881 4101 3404 
Q 4281 2928 4281 2316 
Q 4281 1794 4159 1391 
Q 4038 988 3847 723 
Q 3656 459 3429 307 
Q 3203 156 2883 78 
Q 2563 0 2147 0 
L 494 0 
z
M 1100 541 
L 2078 541 
Q 2531 541 2789 625 
Q 3047 709 3200 863 
Q 3416 1078 3536 1442 
Q 3656 1806 3656 2325 
Q 3656 3044 3420 3430 
Q 3184 3816 2847 3947 
Q 2603 4041 2063 4041 
L 1100 4041 
L 1100 541 
z
" transform="scale(0.015625)"/>
       <path id="ArialMT-65" d="M 2694 1069 
L 3275 997 
Q 3138 488 2766 206 
Q 2394 -75 1816 -75 
Q 1088 -75 661 373 
Q 234 822 234 1631 
Q 234 2469 665 2931 
Q 1097 3394 1784 3394 
Q 2450 3394 2872 2941 
Q 3294 2488 3294 1666 
Q 3294 1616 3291 1516 
L 816 1516 
Q 847 969 1125 678 
Q 1403 388 1819 388 
Q 2128 388 2347 550 
Q 2566 713 2694 1069 
z
M 847 1978 
L 2700 1978 
Q 2663 2397 2488 2606 
Q 2219 2931 1791 2931 
Q 1403 2931 1139 2672 
Q 875 2413 847 1978 
z
" transform="scale(0.015625)"/>
       <path id="ArialMT-6e" d="M 422 0 
L 422 3319 
L 928 3319 
L 928 2847 
Q 1294 3394 1984 3394 
Q 2284 3394 2536 3286 
Q 2788 3178 2913 3003 
Q 3038 2828 3088 2588 
Q 3119 2431 3119 2041 
L 3119 0 
L 2556 0 
L 2556 2019 
Q 2556 2363 2490 2533 
Q 2425 2703 2258 2804 
Q 2091 2906 1866 2906 
Q 1506 2906 1245 2678 
Q 984 2450 984 1813 
L 984 0 
L 422 0 
z
" transform="scale(0.015625)"/>
       <path id="ArialMT-73" d="M 197 991 
L 753 1078 
Q 800 744 1014 566 
Q 1228 388 1613 388 
Q 2000 388 2187 545 
Q 2375 703 2375 916 
Q 2375 1106 2209 1216 
Q 2094 1291 1634 1406 
Q 1016 1563 777 1677 
Q 538 1791 414 1992 
Q 291 2194 291 2438 
Q 291 2659 392 2848 
Q 494 3038 669 3163 
Q 800 3259 1026 3326 
Q 1253 3394 1513 3394 
Q 1903 3394 2198 3281 
Q 2494 3169 2634 2976 
Q 2775 2784 2828 2463 
L 2278 2388 
Q 2241 2644 2061 2787 
Q 1881 2931 1553 2931 
Q 1166 2931 1000 2803 
Q 834 2675 834 2503 
Q 834 2394 903 2306 
Q 972 2216 1119 2156 
Q 1203 2125 1616 2013 
Q 2213 1853 2448 1751 
Q 2684 1650 2818 1456 
Q 2953 1263 2953 975 
Q 2953 694 2789 445 
Q 2625 197 2315 61 
Q 2006 -75 1616 -75 
Q 969 -75 630 194 
Q 291 463 197 991 
z
" transform="scale(0.015625)"/>
       <path id="ArialMT-69" d="M 425 3934 
L 425 4581 
L 988 4581 
L 988 3934 
L 425 3934 
z
M 425 0 
L 425 3319 
L 988 3319 
L 988 0 
L 425 0 
z
" transform="scale(0.015625)"/>
       <path id="ArialMT-74" d="M 1650 503 
L 1731 6 
Q 1494 -44 1306 -44 
Q 1000 -44 831 53 
Q 663 150 594 308 
Q 525 466 525 972 
L 525 2881 
L 113 2881 
L 113 3319 
L 525 3319 
L 525 4141 
L 1084 4478 
L 1084 3319 
L 1650 3319 
L 1650 2881 
L 1084 2881 
L 1084 941 
Q 1084 700 1114 631 
Q 1144 563 1211 522 
Q 1278 481 1403 481 
Q 1497 481 1650 503 
z
" transform="scale(0.015625)"/>
       <path id="ArialMT-79" d="M 397 -1278 
L 334 -750 
Q 519 -800 656 -800 
Q 844 -800 956 -737 
Q 1069 -675 1141 -563 
Q 1194 -478 1313 -144 
Q 1328 -97 1363 -6 
L 103 3319 
L 709 3319 
L 1400 1397 
Q 1534 1031 1641 628 
Q 1738 1016 1872 1384 
L 2581 3319 
L 3144 3319 
L 1881 -56 
Q 1678 -603 1566 -809 
Q 1416 -1088 1222 -1217 
Q 1028 -1347 759 -1347 
Q 597 -1347 397 -1278 
z
" transform="scale(0.015625)"/>
      </defs>
      <use xlink:href="#ArialMT-44"/>
      <use xlink:href="#ArialMT-65" x="72.216797"/>
      <use xlink:href="#ArialMT-6e" x="127.832031"/>
      <use xlink:href="#ArialMT-73" x="183.447266"/>
      <use xlink:href="#ArialMT-69" x="233.447266"/>
      <use xlink:href="#ArialMT-74" x="255.664062"/>
      <use xlink:href="#ArialMT-79" x="283.447266"/>
     </g>
    </g>
   </g>
   <g id="patch_3">
    <path d="M 122.898981 286.3005 
L 124.358041 286.3005 
L 124.358041 282.921289 
L 122.898981 282.921289 
z
" clip-path="url(#pbbdca79712)" style="fill: #1f77b4; stroke: #ffffff; stroke-width: 0.8; stroke-linejoin: miter"/>
   </g>
   <g id="patch_4">
    <path d="M 124.358041 286.3005 
L 125.817106 286.3005 
L 125.817106 279.5421 
L 124.358041 279.5421 
z
" clip-path="url(#pbbdca79712)" style="fill: #1f77b4; stroke: #ffffff; stroke-width: 0.8; stroke-linejoin: miter"/>
   </g>
   <g id="patch_5">
    <path d="M 125.817106 286.3005 
L 127.276166 286.3005 
L 127.276166 286.3005 
L 125.817106 286.3005 
z
" clip-path="url(#pbbdca79712)" style="fill: #1f77b4; stroke: #ffffff; stroke-width: 0.8; stroke-linejoin: miter"/>
   </g>
   <g id="patch_6">
    <path d="M 127.276166 286.3005 
L 128.735231 286.3005 
L 128.735231 282.9213 
L 127.276166 282.9213 
z
" clip-path="url(#pbbdca79712)" style="fill: #1f77b4; stroke: #ffffff; stroke-width: 0.8; stroke-linejoin: miter"/>
   </g>
   <g id="patch_7">
    <path d="M 128.735231 286.3005 
L 130.194292 286.3005 
L 130.194292 266.025233 
L 128.735231 266.025233 
z
" clip-path="url(#pbbdca79712)" style="fill: #1f77b4; stroke: #ffffff; stroke-width: 0.8; stroke-linejoin: miter"/>
   </g>
   <g id="patch_8">
    <path d="M 130.194292 286.3005 
L 131.653357 286.3005 
L 131.653357 266.0253 
L 130.194292 266.0253 
z
" clip-path="url(#pbbdca79712)" style="fill: #1f77b4; stroke: #ffffff; stroke-width: 0.8; stroke-linejoin: miter"/>
   </g>
   <g id="patch_9">
    <path d="M 131.653357 286.3005 
L 133.112417 286.3005 
L 133.112417 249.129177 
L 131.653357 249.129177 
z
" clip-path="url(#pbbdca79712)" style="fill: #1f77b4; stroke: #ffffff; stroke-width: 0.8; stroke-linejoin: miter"/>
   </g>
   <g id="patch_10">
    <path d="M 133.112417 286.3005 
L 134.571477 286.3005 
L 134.571477 252.508388 
L 133.112417 252.508388 
z
" clip-path="url(#pbbdca79712)" style="fill: #1f77b4; stroke: #ffffff; stroke-width: 0.8; stroke-linejoin: miter"/>
   </g>
   <g id="patch_11">
    <path d="M 134.571477 286.3005 
L 136.030542 286.3005 
L 136.030542 215.3373 
L 134.571477 215.3373 
z
" clip-path="url(#pbbdca79712)" style="fill: #1f77b4; stroke: #ffffff; stroke-width: 0.8; stroke-linejoin: miter"/>
   </g>
   <g id="patch_12">
    <path d="M 136.030542 286.3005 
L 137.489607 286.3005 
L 137.489607 238.9917 
L 136.030542 238.9917 
z
" clip-path="url(#pbbdca79712)" style="fill: #1f77b4; stroke: #ffffff; stroke-width: 0.8; stroke-linejoin: miter"/>
   </g>
   <g id="patch_13">
    <path d="M 137.489607 286.3005 
L 138.948663 286.3005 
L 138.948663 211.957606 
L 137.489607 211.957606 
z
" clip-path="url(#pbbdca79712)" style="fill: #1f77b4; stroke: #ffffff; stroke-width: 0.8; stroke-linejoin: miter"/>
   </g>
   <g id="patch_14">
    <path d="M 138.948663 286.3005 
L 140.407728 286.3005 
L 140.407728 161.2701 
L 138.948663 161.2701 
z
" clip-path="url(#pbbdca79712)" style="fill: #1f77b4; stroke: #ffffff; stroke-width: 0.8; stroke-linejoin: miter"/>
   </g>
   <g id="patch_15">
    <path d="M 140.407728 286.3005 
L 141.866793 286.3005 
L 141.866793 184.9245 
L 140.407728 184.9245 
z
" clip-path="url(#pbbdca79712)" style="fill: #1f77b4; stroke: #ffffff; stroke-width: 0.8; stroke-linejoin: miter"/>
   </g>
   <g id="patch_16">
    <path d="M 141.866793 286.3005 
L 143.325848 286.3005 
L 143.325848 191.682271 
L 141.866793 191.682271 
z
" clip-path="url(#pbbdca79712)" style="fill: #1f77b4; stroke: #ffffff; stroke-width: 0.8; stroke-linejoin: miter"/>
   </g>
   <g id="patch_17">
    <path d="M 143.325848 286.3005 
L 144.784914 286.3005 
L 144.784914 168.0285 
L 143.325848 168.0285 
z
" clip-path="url(#pbbdca79712)" style="fill: #1f77b4; stroke: #ffffff; stroke-width: 0.8; stroke-linejoin: miter"/>
   </g>
   <g id="patch_18">
    <path d="M 144.784914 286.3005 
L 146.243979 286.3005 
L 146.243979 113.9613 
L 144.784914 113.9613 
z
" clip-path="url(#pbbdca79712)" style="fill: #1f77b4; stroke: #ffffff; stroke-width: 0.8; stroke-linejoin: miter"/>
   </g>
   <g id="patch_19">
    <path d="M 146.243979 286.3005 
L 147.703044 286.3005 
L 147.703044 90.3069 
L 146.243979 90.3069 
z
" clip-path="url(#pbbdca79712)" style="fill: #1f77b4; stroke: #ffffff; stroke-width: 0.8; stroke-linejoin: miter"/>
   </g>
   <g id="patch_20">
    <path d="M 147.703044 286.3005 
L 149.162099 286.3005 
L 149.162099 151.131602 
L 147.703044 151.131602 
z
" clip-path="url(#pbbdca79712)" style="fill: #1f77b4; stroke: #ffffff; stroke-width: 0.8; stroke-linejoin: miter"/>
   </g>
   <g id="patch_21">
    <path d="M 149.162099 286.3005 
L 150.621164 286.3005 
L 150.621164 120.7197 
L 149.162099 120.7197 
z
" clip-path="url(#pbbdca79712)" style="fill: #1f77b4; stroke: #ffffff; stroke-width: 0.8; stroke-linejoin: miter"/>
   </g>
   <g id="patch_22">
    <path d="M 150.621164 286.3005 
L 152.080229 286.3005 
L 152.080229 83.5485 
L 150.621164 83.5485 
z
" clip-path="url(#pbbdca79712)" style="fill: #1f77b4; stroke: #ffffff; stroke-width: 0.8; stroke-linejoin: miter"/>
   </g>
   <g id="patch_23">
    <path d="M 152.080229 286.3005 
L 153.539285 286.3005 
L 153.539285 130.856267 
L 152.080229 130.856267 
z
" clip-path="url(#pbbdca79712)" style="fill: #1f77b4; stroke: #ffffff; stroke-width: 0.8; stroke-linejoin: miter"/>
   </g>
   <g id="patch_24">
    <path d="M 153.539285 286.3005 
L 154.99835 286.3005 
L 154.99835 32.8605 
L 153.539285 32.8605 
z
" clip-path="url(#pbbdca79712)" style="fill: #1f77b4; stroke: #ffffff; stroke-width: 0.8; stroke-linejoin: miter"/>
   </g>
   <g id="patch_25">
    <path d="M 154.99835 286.3005 
L 156.457415 286.3005 
L 156.457415 110.5821 
L 154.99835 110.5821 
z
" clip-path="url(#pbbdca79712)" style="fill: #1f77b4; stroke: #ffffff; stroke-width: 0.8; stroke-linejoin: miter"/>
   </g>
   <g id="patch_26">
    <path d="M 156.457415 286.3005 
L 157.91648 286.3005 
L 157.91648 117.3405 
L 156.457415 117.3405 
z
" clip-path="url(#pbbdca79712)" style="fill: #1f77b4; stroke: #ffffff; stroke-width: 0.8; stroke-linejoin: miter"/>
   </g>
   <g id="patch_27">
    <path d="M 157.91648 286.3005 
L 159.375535 286.3005 
L 159.375535 127.477045 
L 157.91648 127.477045 
z
" clip-path="url(#pbbdca79712)" style="fill: #1f77b4; stroke: #ffffff; stroke-width: 0.8; stroke-linejoin: miter"/>
   </g>
   <g id="patch_28">
    <path d="M 159.375535 286.3005 
L 160.834601 286.3005 
L 160.834601 147.7533 
L 159.375535 147.7533 
z
" clip-path="url(#pbbdca79712)" style="fill: #1f77b4; stroke: #ffffff; stroke-width: 0.8; stroke-linejoin: miter"/>
   </g>
   <g id="patch_29">
    <path d="M 160.834601 286.3005 
L 162.293666 286.3005 
L 162.293666 184.9245 
L 160.834601 184.9245 
z
" clip-path="url(#pbbdca79712)" style="fill: #1f77b4; stroke: #ffffff; stroke-width: 0.8; stroke-linejoin: miter"/>
   </g>
   <g id="patch_30">
    <path d="M 162.293666 286.3005 
L 163.752721 286.3005 
L 163.752721 161.269269 
L 162.293666 161.269269 
z
" clip-path="url(#pbbdca79712)" style="fill: #1f77b4; stroke: #ffffff; stroke-width: 0.8; stroke-linejoin: miter"/>
   </g>
   <g id="patch_31">
    <path d="M 163.752721 286.3005 
L 165.211786 286.3005 
L 165.211786 208.5789 
L 163.752721 208.5789 
z
" clip-path="url(#pbbdca79712)" style="fill: #1f77b4; stroke: #ffffff; stroke-width: 0.8; stroke-linejoin: miter"/>
   </g>
   <g id="patch_32">
    <path d="M 165.211786 286.3005 
L 166.670851 286.3005 
L 166.670851 215.3373 
L 165.211786 215.3373 
z
" clip-path="url(#pbbdca79712)" style="fill: #1f77b4; stroke: #ffffff; stroke-width: 0.8; stroke-linejoin: miter"/>
   </g>
   <g id="patch_33">
    <path d="M 166.670851 286.3005 
L 168.129916 286.3005 
L 168.129916 201.8205 
L 166.670851 201.8205 
z
" clip-path="url(#pbbdca79712)" style="fill: #1f77b4; stroke: #ffffff; stroke-width: 0.8; stroke-linejoin: miter"/>
   </g>
   <g id="patch_34">
    <path d="M 168.129916 286.3005 
L 169.588972 286.3005 
L 169.588972 242.370608 
L 168.129916 242.370608 
z
" clip-path="url(#pbbdca79712)" style="fill: #1f77b4; stroke: #ffffff; stroke-width: 0.8; stroke-linejoin: miter"/>
   </g>
   <g id="patch_35">
    <path d="M 169.588972 286.3005 
L 171.048037 286.3005 
L 171.048037 255.8877 
L 169.588972 255.8877 
z
" clip-path="url(#pbbdca79712)" style="fill: #1f77b4; stroke: #ffffff; stroke-width: 0.8; stroke-linejoin: miter"/>
   </g>
   <g id="patch_36">
    <path d="M 171.048037 286.3005 
L 172.507102 286.3005 
L 172.507102 245.7501 
L 171.048037 245.7501 
z
" clip-path="url(#pbbdca79712)" style="fill: #1f77b4; stroke: #ffffff; stroke-width: 0.8; stroke-linejoin: miter"/>
   </g>
   <g id="patch_37">
    <path d="M 172.507102 286.3005 
L 173.966157 286.3005 
L 173.966157 259.26672 
L 172.507102 259.26672 
z
" clip-path="url(#pbbdca79712)" style="fill: #1f77b4; stroke: #ffffff; stroke-width: 0.8; stroke-linejoin: miter"/>
   </g>
   <g id="patch_38">
    <path d="M 173.966157 286.3005 
L 175.425222 286.3005 
L 175.425222 269.4045 
L 173.966157 269.4045 
z
" clip-path="url(#pbbdca79712)" style="fill: #1f77b4; stroke: #ffffff; stroke-width: 0.8; stroke-linejoin: miter"/>
   </g>
   <g id="patch_39">
    <path d="M 175.425222 286.3005 
L 176.884288 286.3005 
L 176.884288 255.8877 
L 175.425222 255.8877 
z
" clip-path="url(#pbbdca79712)" style="fill: #1f77b4; stroke: #ffffff; stroke-width: 0.8; stroke-linejoin: miter"/>
   </g>
   <g id="patch_40">
    <path d="M 176.884288 286.3005 
L 178.343343 286.3005 
L 178.343343 279.542055 
L 176.884288 279.542055 
z
" clip-path="url(#pbbdca79712)" style="fill: #1f77b4; stroke: #ffffff; stroke-width: 0.8; stroke-linejoin: miter"/>
   </g>
   <g id="patch_41">
    <path d="M 178.343343 286.3005 
L 179.802408 286.3005 
L 179.802408 272.7837 
L 178.343343 272.7837 
z
" clip-path="url(#pbbdca79712)" style="fill: #1f77b4; stroke: #ffffff; stroke-width: 0.8; stroke-linejoin: miter"/>
   </g>
   <g id="patch_42">
    <path d="M 179.802408 286.3005 
L 181.261473 286.3005 
L 181.261473 276.1629 
L 179.802408 276.1629 
z
" clip-path="url(#pbbdca79712)" style="fill: #1f77b4; stroke: #ffffff; stroke-width: 0.8; stroke-linejoin: miter"/>
   </g>
   <g id="patch_43">
    <path d="M 181.261473 286.3005 
L 182.720538 286.3005 
L 182.720538 279.5421 
L 181.261473 279.5421 
z
" clip-path="url(#pbbdca79712)" style="fill: #1f77b4; stroke: #ffffff; stroke-width: 0.8; stroke-linejoin: miter"/>
   </g>
   <g id="patch_44">
    <path d="M 182.720538 286.3005 
L 184.179594 286.3005 
L 184.179594 282.921278 
L 182.720538 282.921278 
z
" clip-path="url(#pbbdca79712)" style="fill: #1f77b4; stroke: #ffffff; stroke-width: 0.8; stroke-linejoin: miter"/>
   </g>
   <g id="patch_45">
    <path d="M 184.179594 286.3005 
L 185.638659 286.3005 
L 185.638659 282.9213 
L 184.179594 282.9213 
z
" clip-path="url(#pbbdca79712)" style="fill: #1f77b4; stroke: #ffffff; stroke-width: 0.8; stroke-linejoin: miter"/>
   </g>
   <g id="patch_46">
    <path d="M 185.638659 286.3005 
L 187.097724 286.3005 
L 187.097724 286.3005 
L 185.638659 286.3005 
z
" clip-path="url(#pbbdca79712)" style="fill: #1f77b4; stroke: #ffffff; stroke-width: 0.8; stroke-linejoin: miter"/>
   </g>
   <g id="patch_47">
    <path d="M 187.097724 286.3005 
L 188.556779 286.3005 
L 188.556779 286.3005 
L 187.097724 286.3005 
z
" clip-path="url(#pbbdca79712)" style="fill: #1f77b4; stroke: #ffffff; stroke-width: 0.8; stroke-linejoin: miter"/>
   </g>
   <g id="patch_48">
    <path d="M 188.556779 286.3005 
L 190.015844 286.3005 
L 190.015844 282.9213 
L 188.556779 282.9213 
z
" clip-path="url(#pbbdca79712)" style="fill: #1f77b4; stroke: #ffffff; stroke-width: 0.8; stroke-linejoin: miter"/>
   </g>
   <g id="patch_49">
    <path d="M 190.015844 286.3005 
L 191.474909 286.3005 
L 191.474909 286.3005 
L 190.015844 286.3005 
z
" clip-path="url(#pbbdca79712)" style="fill: #1f77b4; stroke: #ffffff; stroke-width: 0.8; stroke-linejoin: miter"/>
   </g>
   <g id="patch_50">
    <path d="M 191.474909 286.3005 
L 192.933975 286.3005 
L 192.933975 286.3005 
L 191.474909 286.3005 
z
" clip-path="url(#pbbdca79712)" style="fill: #1f77b4; stroke: #ffffff; stroke-width: 0.8; stroke-linejoin: miter"/>
   </g>
   <g id="patch_51">
    <path d="M 192.933975 286.3005 
L 194.39303 286.3005 
L 194.39303 286.3005 
L 192.933975 286.3005 
z
" clip-path="url(#pbbdca79712)" style="fill: #1f77b4; stroke: #ffffff; stroke-width: 0.8; stroke-linejoin: miter"/>
   </g>
   <g id="patch_52">
    <path d="M 194.39303 286.3005 
L 195.852095 286.3005 
L 195.852095 282.9213 
L 194.39303 282.9213 
z
" clip-path="url(#pbbdca79712)" style="fill: #1f77b4; stroke: #ffffff; stroke-width: 0.8; stroke-linejoin: miter"/>
   </g>
   <g id="line2d_16">
    <path d="M 54.411977 286.209652 
L 66.11124 283.063297 
L 77.810503 280.152183 
L 89.184786 277.547464 
L 100.55907 275.165099 
L 111.933353 273.005088 
L 123.307637 271.067432 
L 134.68192 269.352129 
L 146.056203 267.85918 
L 157.430487 266.588586 
L 168.80477 265.540345 
L 180.179053 264.714459 
L 191.553337 264.110926 
L 202.92762 263.729748 
L 214.301904 263.570923 
L 225.676187 263.634453 
L 237.05047 263.920337 
L 248.424754 264.428575 
L 259.799037 265.159167 
L 271.17332 266.112113 
L 282.547604 267.287413 
L 293.921887 268.685067 
L 305.296171 270.305075 
L 316.670454 272.147437 
L 328.044737 274.212153 
L 339.419021 276.499224 
L 350.793304 279.008648 
L 362.167587 281.740426 
L 373.86685 284.78223 
L 379.066523 286.209652 
L 379.066523 286.209652 
" clip-path="url(#pbbdca79712)" style="fill: none; stroke: #ff7f0e; stroke-width: 1.2; stroke-linecap: round"/>
   </g>
   <g id="line2d_17">
    <path d="M 54.411977 286.3005 
L 115.508128 286.19245 
L 118.107964 285.965079 
L 120.057841 285.573206 
L 121.357759 285.1231 
L 122.657678 284.444022 
L 123.632616 283.731784 
L 124.607555 282.79584 
L 125.582493 281.584051 
L 126.557432 280.037904 
L 127.53237 278.09343 
L 128.507309 275.682669 
L 129.482248 272.735748 
L 130.457186 269.183572 
L 131.432125 264.961069 
L 132.732043 258.190884 
L 134.031961 250.02716 
L 135.331879 240.423376 
L 136.956777 226.43885 
L 138.581674 210.484109 
L 140.856531 185.75768 
L 145.081265 139.228906 
L 146.706162 124.011868 
L 148.00608 113.930296 
L 148.981019 107.862558 
L 149.955958 103.229577 
L 150.605917 100.989356 
L 151.255876 99.452635 
L 151.905835 98.631572 
L 152.230814 98.490966 
L 152.555794 98.530114 
L 152.880773 98.748232 
L 153.205753 99.144035 
L 153.855712 100.461109 
L 154.505671 102.461439 
L 155.15563 105.117912 
L 156.130569 110.257417 
L 157.105507 116.657698 
L 158.405425 126.869323 
L 160.030323 141.71839 
L 162.630159 168.190905 
L 166.204934 204.564518 
L 168.154811 222.249772 
L 169.779709 235.205784 
L 171.404606 246.368441 
L 172.704524 253.991472 
L 174.004442 260.494419 
L 175.304361 265.950986 
L 176.604279 270.456862 
L 177.904197 274.120227 
L 179.204115 277.053728 
L 180.504033 279.368136 
L 181.803951 281.167688 
L 183.103869 282.547018 
L 184.403787 283.589446 
L 185.703705 284.366377 
L 187.328603 285.054106 
L 189.27848 285.583242 
L 191.553337 285.936926 
L 194.478153 286.156837 
L 199.352845 286.273853 
L 214.301904 286.300448 
L 379.066523 286.3005 
L 379.066523 286.3005 
" clip-path="url(#pbbdca79712)" style="fill: none; stroke: #2ca02c; stroke-width: 1.2; stroke-linecap: round"/>
   </g>
   <g id="line2d_18">
    <path d="M 151.678219 286.3005 
L 151.678219 284.403434 
L 151.678219 282.506368 
L 151.678219 280.609302 
L 151.678219 278.712236 
L 151.678219 276.81517 
L 151.678219 274.918104 
L 151.678219 273.021038 
L 151.678219 271.123972 
L 151.678219 269.226906 
L 151.678219 267.32984 
L 151.678219 265.432774 
L 151.678219 263.535708 
L 151.678219 261.638642 
L 151.678219 259.741576 
L 151.678219 257.84451 
L 151.678219 255.947444 
L 151.678219 254.050378 
L 151.678219 252.153312 
L 151.678219 250.256246 
L 151.678219 248.35918 
L 151.678219 246.462114 
L 151.678219 244.565048 
L 151.678219 242.667982 
L 151.678219 240.770916 
L 151.678219 238.87385 
L 151.678219 236.976784 
L 151.678219 235.079718 
L 151.678219 233.182652 
L 151.678219 231.285586 
L 151.678219 229.38852 
L 151.678219 227.491454 
L 151.678219 225.594388 
L 151.678219 223.697322 
L 151.678219 221.800256 
L 151.678219 219.90319 
L 151.678219 218.006124 
L 151.678219 216.109058 
L 151.678219 214.211992 
L 151.678219 212.314926 
L 151.678219 210.41786 
L 151.678219 208.520794 
L 151.678219 206.623728 
L 151.678219 204.726662 
L 151.678219 202.829596 
L 151.678219 200.93253 
L 151.678219 199.035464 
L 151.678219 197.138398 
L 151.678219 195.241332 
L 151.678219 193.344266 
L 151.678219 191.4472 
L 151.678219 189.550134 
L 151.678219 187.653068 
L 151.678219 185.756002 
L 151.678219 183.858936 
L 151.678219 181.96187 
L 151.678219 180.064804 
L 151.678219 178.167738 
L 151.678219 176.270672 
L 151.678219 174.373606 
L 151.678219 172.47654 
L 151.678219 170.579474 
L 151.678219 168.682408 
L 151.678219 166.785342 
L 151.678219 164.888276 
L 151.678219 162.99121 
L 151.678219 161.094144 
L 151.678219 159.197078 
L 151.678219 157.300012 
L 151.678219 155.402946 
L 151.678219 153.50588 
L 151.678219 151.608814 
L 151.678219 149.711748 
L 151.678219 147.814682 
L 151.678219 145.917616 
L 151.678219 144.02055 
L 151.678219 142.123484 
L 151.678219 140.226418 
L 151.678219 138.329352 
L 151.678219 136.432286 
L 151.678219 134.53522 
L 151.678219 132.638154 
L 151.678219 130.741088 
L 151.678219 128.844022 
L 151.678219 126.946956 
L 151.678219 125.04989 
L 151.678219 123.152824 
L 151.678219 121.255758 
L 151.678219 119.358692 
L 151.678219 117.461626 
L 151.678219 115.56456 
L 151.678219 113.667494 
L 151.678219 111.770428 
L 151.678219 109.873362 
L 151.678219 107.976296 
L 151.678219 106.07923 
L 151.678219 104.182164 
L 151.678219 102.285098 
L 151.678219 100.388032 
L 151.678219 98.490966 
" clip-path="url(#pbbdca79712)" style="fill: none; stroke-dasharray: 4.44,1.92; stroke-dashoffset: 0; stroke: #ff0000; stroke-width: 1.2"/>
   </g>
   <g id="patch_53">
    <path d="M 38.17925 286.3005 
L 38.17925 43.797229 
" style="fill: none; stroke: #262626; stroke-linejoin: miter; stroke-linecap: square"/>
   </g>
   <g id="patch_54">
    <path d="M 54.086672 286.3005 
L 379.391828 286.3005 
" style="fill: none; stroke: #262626; stroke-linejoin: miter; stroke-linecap: square"/>
   </g>
   <g id="text_18">
    <!-- Coin Toss Bayesian Inference -->
    <g style="fill: #262626" transform="translate(153.3275 14.1885) scale(0.096 -0.096)">
     <defs>
      <path id="ArialMT-43" d="M 3763 1606 
L 4369 1453 
Q 4178 706 3683 314 
Q 3188 -78 2472 -78 
Q 1731 -78 1267 223 
Q 803 525 561 1097 
Q 319 1669 319 2325 
Q 319 3041 592 3573 
Q 866 4106 1370 4382 
Q 1875 4659 2481 4659 
Q 3169 4659 3637 4309 
Q 4106 3959 4291 3325 
L 3694 3184 
Q 3534 3684 3231 3912 
Q 2928 4141 2469 4141 
Q 1941 4141 1586 3887 
Q 1231 3634 1087 3207 
Q 944 2781 944 2328 
Q 944 1744 1114 1308 
Q 1284 872 1643 656 
Q 2003 441 2422 441 
Q 2931 441 3284 734 
Q 3638 1028 3763 1606 
z
" transform="scale(0.015625)"/>
      <path id="ArialMT-6f" d="M 213 1659 
Q 213 2581 725 3025 
Q 1153 3394 1769 3394 
Q 2453 3394 2887 2945 
Q 3322 2497 3322 1706 
Q 3322 1066 3130 698 
Q 2938 331 2570 128 
Q 2203 -75 1769 -75 
Q 1072 -75 642 372 
Q 213 819 213 1659 
z
M 791 1659 
Q 791 1022 1069 705 
Q 1347 388 1769 388 
Q 2188 388 2466 706 
Q 2744 1025 2744 1678 
Q 2744 2294 2464 2611 
Q 2184 2928 1769 2928 
Q 1347 2928 1069 2612 
Q 791 2297 791 1659 
z
" transform="scale(0.015625)"/>
      <path id="ArialMT-20" transform="scale(0.015625)"/>
      <path id="ArialMT-54" d="M 1659 0 
L 1659 4041 
L 150 4041 
L 150 4581 
L 3781 4581 
L 3781 4041 
L 2266 4041 
L 2266 0 
L 1659 0 
z
" transform="scale(0.015625)"/>
      <path id="ArialMT-42" d="M 469 0 
L 469 4581 
L 2188 4581 
Q 2713 4581 3030 4442 
Q 3347 4303 3526 4014 
Q 3706 3725 3706 3409 
Q 3706 3116 3547 2856 
Q 3388 2597 3066 2438 
Q 3481 2316 3704 2022 
Q 3928 1728 3928 1328 
Q 3928 1006 3792 729 
Q 3656 453 3456 303 
Q 3256 153 2954 76 
Q 2653 0 2216 0 
L 469 0 
z
M 1075 2656 
L 2066 2656 
Q 2469 2656 2644 2709 
Q 2875 2778 2992 2937 
Q 3109 3097 3109 3338 
Q 3109 3566 3000 3739 
Q 2891 3913 2687 3977 
Q 2484 4041 1991 4041 
L 1075 4041 
L 1075 2656 
z
M 1075 541 
L 2216 541 
Q 2509 541 2628 563 
Q 2838 600 2978 687 
Q 3119 775 3209 942 
Q 3300 1109 3300 1328 
Q 3300 1584 3169 1773 
Q 3038 1963 2805 2039 
Q 2572 2116 2134 2116 
L 1075 2116 
L 1075 541 
z
" transform="scale(0.015625)"/>
      <path id="ArialMT-61" d="M 2588 409 
Q 2275 144 1986 34 
Q 1697 -75 1366 -75 
Q 819 -75 525 192 
Q 231 459 231 875 
Q 231 1119 342 1320 
Q 453 1522 633 1644 
Q 813 1766 1038 1828 
Q 1203 1872 1538 1913 
Q 2219 1994 2541 2106 
Q 2544 2222 2544 2253 
Q 2544 2597 2384 2738 
Q 2169 2928 1744 2928 
Q 1347 2928 1158 2789 
Q 969 2650 878 2297 
L 328 2372 
Q 403 2725 575 2942 
Q 747 3159 1072 3276 
Q 1397 3394 1825 3394 
Q 2250 3394 2515 3294 
Q 2781 3194 2906 3042 
Q 3031 2891 3081 2659 
Q 3109 2516 3109 2141 
L 3109 1391 
Q 3109 606 3145 398 
Q 3181 191 3288 0 
L 2700 0 
Q 2613 175 2588 409 
z
M 2541 1666 
Q 2234 1541 1622 1453 
Q 1275 1403 1131 1340 
Q 988 1278 909 1158 
Q 831 1038 831 891 
Q 831 666 1001 516 
Q 1172 366 1500 366 
Q 1825 366 2078 508 
Q 2331 650 2450 897 
Q 2541 1088 2541 1459 
L 2541 1666 
z
" transform="scale(0.015625)"/>
      <path id="ArialMT-49" d="M 597 0 
L 597 4581 
L 1203 4581 
L 1203 0 
L 597 0 
z
" transform="scale(0.015625)"/>
      <path id="ArialMT-66" d="M 556 0 
L 556 2881 
L 59 2881 
L 59 3319 
L 556 3319 
L 556 3672 
Q 556 4006 616 4169 
Q 697 4388 901 4523 
Q 1106 4659 1475 4659 
Q 1713 4659 2000 4603 
L 1916 4113 
Q 1741 4144 1584 4144 
Q 1328 4144 1222 4034 
Q 1116 3925 1116 3625 
L 1116 3319 
L 1763 3319 
L 1763 2881 
L 1116 2881 
L 1116 0 
L 556 0 
z
" transform="scale(0.015625)"/>
      <path id="ArialMT-72" d="M 416 0 
L 416 3319 
L 922 3319 
L 922 2816 
Q 1116 3169 1280 3281 
Q 1444 3394 1641 3394 
Q 1925 3394 2219 3213 
L 2025 2691 
Q 1819 2813 1613 2813 
Q 1428 2813 1281 2702 
Q 1134 2591 1072 2394 
Q 978 2094 978 1738 
L 978 0 
L 416 0 
z
" transform="scale(0.015625)"/>
      <path id="ArialMT-63" d="M 2588 1216 
L 3141 1144 
Q 3050 572 2676 248 
Q 2303 -75 1759 -75 
Q 1078 -75 664 370 
Q 250 816 250 1647 
Q 250 2184 428 2587 
Q 606 2991 970 3192 
Q 1334 3394 1763 3394 
Q 2303 3394 2647 3120 
Q 2991 2847 3088 2344 
L 2541 2259 
Q 2463 2594 2264 2762 
Q 2066 2931 1784 2931 
Q 1359 2931 1093 2626 
Q 828 2322 828 1663 
Q 828 994 1084 691 
Q 1341 388 1753 388 
Q 2084 388 2306 591 
Q 2528 794 2588 1216 
z
" transform="scale(0.015625)"/>
     </defs>
     <use xlink:href="#ArialMT-43"/>
     <use xlink:href="#ArialMT-6f" x="72.216797"/>
     <use xlink:href="#ArialMT-69" x="127.832031"/>
     <use xlink:href="#ArialMT-6e" x="150.048828"/>
     <use xlink:href="#ArialMT-20" x="205.664062"/>
     <use xlink:href="#ArialMT-54" x="231.697266"/>
     <use xlink:href="#ArialMT-6f" x="281.65625"/>
     <use xlink:href="#ArialMT-73" x="337.271484"/>
     <use xlink:href="#ArialMT-73" x="387.271484"/>
     <use xlink:href="#ArialMT-20" x="437.271484"/>
     <use xlink:href="#ArialMT-42" x="465.054688"/>
     <use xlink:href="#ArialMT-61" x="531.753906"/>
     <use xlink:href="#ArialMT-79" x="587.369141"/>
     <use xlink:href="#ArialMT-65" x="637.369141"/>
     <use xlink:href="#ArialMT-73" x="692.984375"/>
     <use xlink:href="#ArialMT-69" x="742.984375"/>
     <use xlink:href="#ArialMT-61" x="765.201172"/>
     <use xlink:href="#ArialMT-6e" x="820.816406"/>
     <use xlink:href="#ArialMT-20" x="876.431641"/>
     <use xlink:href="#ArialMT-49" x="904.214844"/>
     <use xlink:href="#ArialMT-6e" x="931.998047"/>
     <use xlink:href="#ArialMT-66" x="987.613281"/>
     <use xlink:href="#ArialMT-65" x="1015.396484"/>
     <use xlink:href="#ArialMT-72" x="1071.011719"/>
     <use xlink:href="#ArialMT-65" x="1104.3125"/>
     <use xlink:href="#ArialMT-6e" x="1159.927734"/>
     <use xlink:href="#ArialMT-63" x="1215.542969"/>
     <use xlink:href="#ArialMT-65" x="1265.542969"/>
    </g>
   </g>
   <g id="legend_1">
    <g id="patch_55">
     <path d="M 271.289375 34.514625 
L 288.889375 34.514625 
L 288.889375 28.354625 
L 271.289375 28.354625 
z
" style="fill: #1f77b4; stroke: #ffffff; stroke-width: 0.8; stroke-linejoin: miter"/>
    </g>
    <g id="text_19">
     <!-- VI Posterior (Gaussian) -->
     <g style="fill: #262626" transform="translate(295.929375 34.514625) scale(0.088 -0.088)">
      <defs>
       <path id="ArialMT-56" d="M 1803 0 
L 28 4581 
L 684 4581 
L 1875 1253 
Q 2019 853 2116 503 
Q 2222 878 2363 1253 
L 3600 4581 
L 4219 4581 
L 2425 0 
L 1803 0 
z
" transform="scale(0.015625)"/>
       <path id="ArialMT-50" d="M 494 0 
L 494 4581 
L 2222 4581 
Q 2678 4581 2919 4538 
Q 3256 4481 3484 4323 
Q 3713 4166 3852 3881 
Q 3991 3597 3991 3256 
Q 3991 2672 3619 2267 
Q 3247 1863 2275 1863 
L 1100 1863 
L 1100 0 
L 494 0 
z
M 1100 2403 
L 2284 2403 
Q 2872 2403 3119 2622 
Q 3366 2841 3366 3238 
Q 3366 3525 3220 3729 
Q 3075 3934 2838 4000 
Q 2684 4041 2272 4041 
L 1100 4041 
L 1100 2403 
z
" transform="scale(0.015625)"/>
       <path id="ArialMT-28" d="M 1497 -1347 
Q 1031 -759 709 28 
Q 388 816 388 1659 
Q 388 2403 628 3084 
Q 909 3875 1497 4659 
L 1900 4659 
Q 1522 4009 1400 3731 
Q 1209 3300 1100 2831 
Q 966 2247 966 1656 
Q 966 153 1900 -1347 
L 1497 -1347 
z
" transform="scale(0.015625)"/>
       <path id="ArialMT-47" d="M 2638 1797 
L 2638 2334 
L 4578 2338 
L 4578 638 
Q 4131 281 3656 101 
Q 3181 -78 2681 -78 
Q 2006 -78 1454 211 
Q 903 500 622 1047 
Q 341 1594 341 2269 
Q 341 2938 620 3517 
Q 900 4097 1425 4378 
Q 1950 4659 2634 4659 
Q 3131 4659 3532 4498 
Q 3934 4338 4162 4050 
Q 4391 3763 4509 3300 
L 3963 3150 
Q 3859 3500 3706 3700 
Q 3553 3900 3268 4020 
Q 2984 4141 2638 4141 
Q 2222 4141 1919 4014 
Q 1616 3888 1430 3681 
Q 1244 3475 1141 3228 
Q 966 2803 966 2306 
Q 966 1694 1177 1281 
Q 1388 869 1791 669 
Q 2194 469 2647 469 
Q 3041 469 3416 620 
Q 3791 772 3984 944 
L 3984 1797 
L 2638 1797 
z
" transform="scale(0.015625)"/>
       <path id="ArialMT-75" d="M 2597 0 
L 2597 488 
Q 2209 -75 1544 -75 
Q 1250 -75 995 37 
Q 741 150 617 320 
Q 494 491 444 738 
Q 409 903 409 1263 
L 409 3319 
L 972 3319 
L 972 1478 
Q 972 1038 1006 884 
Q 1059 663 1231 536 
Q 1403 409 1656 409 
Q 1909 409 2131 539 
Q 2353 669 2445 892 
Q 2538 1116 2538 1541 
L 2538 3319 
L 3100 3319 
L 3100 0 
L 2597 0 
z
" transform="scale(0.015625)"/>
       <path id="ArialMT-29" d="M 791 -1347 
L 388 -1347 
Q 1322 153 1322 1656 
Q 1322 2244 1188 2822 
Q 1081 3291 891 3722 
Q 769 4003 388 4659 
L 791 4659 
Q 1378 3875 1659 3084 
Q 1900 2403 1900 1659 
Q 1900 816 1576 28 
Q 1253 -759 791 -1347 
z
" transform="scale(0.015625)"/>
      </defs>
      <use xlink:href="#ArialMT-56"/>
      <use xlink:href="#ArialMT-49" x="66.699219"/>
      <use xlink:href="#ArialMT-20" x="94.482422"/>
      <use xlink:href="#ArialMT-50" x="122.265625"/>
      <use xlink:href="#ArialMT-6f" x="188.964844"/>
      <use xlink:href="#ArialMT-73" x="244.580078"/>
      <use xlink:href="#ArialMT-74" x="294.580078"/>
      <use xlink:href="#ArialMT-65" x="322.363281"/>
      <use xlink:href="#ArialMT-72" x="377.978516"/>
      <use xlink:href="#ArialMT-69" x="411.279297"/>
      <use xlink:href="#ArialMT-6f" x="433.496094"/>
      <use xlink:href="#ArialMT-72" x="489.111328"/>
      <use xlink:href="#ArialMT-20" x="522.412109"/>
      <use xlink:href="#ArialMT-28" x="550.195312"/>
      <use xlink:href="#ArialMT-47" x="583.496094"/>
      <use xlink:href="#ArialMT-61" x="661.279297"/>
      <use xlink:href="#ArialMT-75" x="716.894531"/>
      <use xlink:href="#ArialMT-73" x="772.509766"/>
      <use xlink:href="#ArialMT-73" x="822.509766"/>
      <use xlink:href="#ArialMT-69" x="872.509766"/>
      <use xlink:href="#ArialMT-61" x="894.726562"/>
      <use xlink:href="#ArialMT-6e" x="950.341797"/>
      <use xlink:href="#ArialMT-29" x="1005.957031"/>
     </g>
    </g>
    <g id="line2d_19">
     <path d="M 271.289375 43.985625 
L 280.089375 43.985625 
L 288.889375 43.985625 
" style="fill: none; stroke: #ff7f0e; stroke-width: 1.2; stroke-linecap: round"/>
    </g>
    <g id="text_20">
     <!-- Prior -->
     <g style="fill: #262626" transform="translate(295.929375 47.065625) scale(0.088 -0.088)">
      <use xlink:href="#ArialMT-50"/>
      <use xlink:href="#ArialMT-72" x="66.699219"/>
      <use xlink:href="#ArialMT-69" x="100"/>
      <use xlink:href="#ArialMT-6f" x="122.216797"/>
      <use xlink:href="#ArialMT-72" x="177.832031"/>
     </g>
    </g>
    <g id="line2d_20">
     <path d="M 271.289375 56.4335 
L 280.089375 56.4335 
L 288.889375 56.4335 
" style="fill: none; stroke: #2ca02c; stroke-width: 1.2; stroke-linecap: round"/>
    </g>
    <g id="text_21">
     <!-- True Posterior -->
     <g style="fill: #262626" transform="translate(295.929375 59.5135) scale(0.088 -0.088)">
      <use xlink:href="#ArialMT-54"/>
      <use xlink:href="#ArialMT-72" x="57.333984"/>
      <use xlink:href="#ArialMT-75" x="90.634766"/>
      <use xlink:href="#ArialMT-65" x="146.25"/>
      <use xlink:href="#ArialMT-20" x="201.865234"/>
      <use xlink:href="#ArialMT-50" x="229.648438"/>
      <use xlink:href="#ArialMT-6f" x="296.347656"/>
      <use xlink:href="#ArialMT-73" x="351.962891"/>
      <use xlink:href="#ArialMT-74" x="401.962891"/>
      <use xlink:href="#ArialMT-65" x="429.746094"/>
      <use xlink:href="#ArialMT-72" x="485.361328"/>
      <use xlink:href="#ArialMT-69" x="518.662109"/>
      <use xlink:href="#ArialMT-6f" x="540.878906"/>
      <use xlink:href="#ArialMT-72" x="596.494141"/>
     </g>
    </g>
    <g id="line2d_21">
     <path d="M 271.289375 68.881375 
L 280.089375 68.881375 
L 288.889375 68.881375 
" style="fill: none; stroke-dasharray: 4.44,1.92; stroke-dashoffset: 0; stroke: #ff0000; stroke-width: 1.2"/>
    </g>
    <g id="text_22">
     <!-- True $\theta$ -->
     <g style="fill: #262626" transform="translate(295.929375 71.961375) scale(0.088 -0.088)">
      <use xlink:href="#ArialMT-54" transform="translate(0 0.234375)"/>
      <use xlink:href="#ArialMT-72" transform="translate(61.083984 0.234375)"/>
      <use xlink:href="#ArialMT-75" transform="translate(94.384766 0.234375)"/>
      <use xlink:href="#ArialMT-65" transform="translate(150 0.234375)"/>
      <use xlink:href="#ArialMT-20" transform="translate(205.615234 0.234375)"/>
      <use xlink:href="#DejaVuSans-Oblique-3b8" transform="translate(233.398438 0.234375)"/>
     </g>
    </g>
   </g>
  </g>
 </g>
 <defs>
  <clipPath id="pbbdca79712">
   <rect x="38.17925" y="20.1885" width="357.12" height="266.112"/>
  </clipPath>
 </defs>
</svg>