<?xml version="1.0" encoding="UTF-8" standalone="no"?>
<!DOCTYPE svg PUBLIC "-//W3C//DTD SVG 1.1//EN"
 "http://www.w3.org/Graphics/SVG/1.1/DTD/svg11.dtd">
<!-- Generated by graphviz version 3.0.0 (20220226.1711)
 -->
<!-- Title: Urn1 Pages: 1 -->
<svg width="226pt" height="116pt"
 viewBox="0.00 0.00 226.09 116.00" xmlns="http://www.w3.org/2000/svg" xmlns:xlink="http://www.w3.org/1999/xlink">
<g id="graph0" class="graph" transform="scale(1 1) rotate(0) translate(4 112)">
<title>Urn1</title>
<polygon fill="white" stroke="transparent" points="-4,4 -4,-112 222.09,-112 222.09,4 -4,4"/>
<!-- reds -->
<g id="node1" class="node">
<title>reds</title>
<ellipse fill="lightgrey" stroke="black" cx="48.1" cy="-90" rx="48.19" ry="18"/>
<text text-anchor="middle" x="48.1" y="-86.3" font-family="Times,serif" font-size="14.00"># red balls</text>
</g>
<!-- first -->
<g id="node3" class="node">
<title>first</title>
<ellipse fill="none" stroke="black" cx="107.1" cy="-18" rx="40.89" ry="18"/>
<text text-anchor="middle" x="107.1" y="-14.3" font-family="Times,serif" font-size="14.00">1st draw</text>
</g>
<!-- reds&#45;&gt;first -->
<g id="edge1" class="edge">
<title>reds&#45;&gt;first</title>
<path fill="none" stroke="black" d="M62.08,-72.41C69.43,-63.69 78.57,-52.85 86.69,-43.21"/>
<polygon fill="black" stroke="black" points="89.45,-45.37 93.21,-35.47 84.09,-40.86 89.45,-45.37"/>
</g>
<!-- blues -->
<g id="node2" class="node">
<title>blues</title>
<ellipse fill="lightgrey" stroke="black" cx="166.1" cy="-90" rx="51.99" ry="18"/>
<text text-anchor="middle" x="166.1" y="-86.3" font-family="Times,serif" font-size="14.00"># blue balls</text>
</g>
<!-- blues&#45;&gt;first -->
<g id="edge2" class="edge">
<title>blues&#45;&gt;first</title>
<path fill="none" stroke="black" d="M152.11,-72.41C144.77,-63.69 135.62,-52.85 127.5,-43.21"/>
<polygon fill="black" stroke="black" points="130.1,-40.86 120.98,-35.47 124.75,-45.37 130.1,-40.86"/>
</g>
</g>
</svg>