<?xml version="1.0" encoding="utf-8" standalone="no"?>
<!DOCTYPE svg PUBLIC "-//W3C//DTD SVG 1.1//EN"
  "http://www.w3.org/Graphics/SVG/1.1/DTD/svg11.dtd">
<svg xmlns:xlink="http://www.w3.org/1999/xlink" width="454.464pt" height="339.264pt" viewBox="0 0 454.464 339.264" xmlns="http://www.w3.org/2000/svg" version="1.1">
 <metadata>
  <rdf:RDF xmlns:dc="http://purl.org/dc/elements/1.1/" xmlns:cc="http://creativecommons.org/ns#" xmlns:rdf="http://www.w3.org/1999/02/22-rdf-syntax-ns#">
   <cc:Work>
    <dc:type rdf:resource="http://purl.org/dc/dcmitype/StillImage"/>
    <dc:date>2026-08-16T16:32:28.405859</dc:date>
    <dc:format>image/svg+xml</dc:format>
    <dc:creator>
     <cc:Agent>
      <dc:title>Matplotlib v3.11.1, https://matplotlib.org/</dc:title>
     </cc:Agent>
    </dc:creator>
   </cc:Work>
  </rdf:RDF>
 </metadata>
 <defs>
  <style type="text/css">*{stroke-linejoin: round; stroke-linecap: butt}</style>
 </defs>
 <g id="figure_1">
  <g id="patch_1">
   <path d="M 0 339.264 
L 454.464 339.264 
L 454.464 0 
L 0 0 
z
" style="fill: #ffffff"/>
  </g>
  <g id="axes_1">
   <g id="patch_2">
    <path d="M 37.967969 305.564 
L 447.264 305.564 
L 447.264 7.2 
L 37.967969 7.2 
z
" style="fill: #ffffff"/>
   </g>
   <g id="matplotlib.axis_1">
    <g id="xtick_1">
     <g id="line2d_1"/>
     <g id="text_1">
      <!-- 0.0 -->
      <g style="fill: #262626" transform="translate(49.415928 315.901891) scale(0.09 -0.09)">
       <defs>
        <path id="DejaVuSerif-13" d="M 2034 219 
Q 2513 219 2750 744 
Q 2988 1269 2988 2328 
Q 2988 3391 2750 3916 
Q 2513 4441 2034 4441 
Q 1556 4441 1318 3916 
Q 1081 3391 1081 2328 
Q 1081 1269 1318 744 
Q 1556 219 2034 219 
z
M 2034 -91 
Q 1275 -91 848 546 
Q 422 1184 422 2328 
Q 422 3475 848 4112 
Q 1275 4750 2034 4750 
Q 2797 4750 3222 4112 
Q 3647 3475 3647 2328 
Q 3647 1184 3222 546 
Q 2797 -91 2034 -91 
z
" transform="scale(0.015625)"/>
        <path id="DejaVuSerif-11" d="M 603 325 
Q 603 500 722 622 
Q 841 744 1019 744 
Q 1191 744 1312 622 
Q 1434 500 1434 325 
Q 1434 153 1312 31 
Q 1191 -91 1019 -91 
Q 841 -91 722 29 
Q 603 150 603 325 
z
" transform="scale(0.015625)"/>
       </defs>
       <use xlink:href="#DejaVuSerif-13"/>
       <use xlink:href="#DejaVuSerif-11" transform="translate(63.625 0)"/>
       <use xlink:href="#DejaVuSerif-13" transform="translate(95.40625 0)"/>
      </g>
     </g>
    </g>
    <g id="xtick_2">
     <g id="line2d_2"/>
     <g id="text_2">
      <!-- 0.2 -->
      <g style="fill: #262626" transform="translate(123.833388 315.901891) scale(0.09 -0.09)">
       <defs>
        <path id="DejaVuSerif-15" d="M 819 3553 
L 469 3553 
L 469 4384 
Q 803 4563 1142 4656 
Q 1481 4750 1806 4750 
Q 2534 4750 2956 4397 
Q 3378 4044 3378 3438 
Q 3378 2753 2422 1800 
Q 2347 1728 2309 1691 
L 1131 513 
L 3078 513 
L 3078 1088 
L 3444 1088 
L 3444 0 
L 434 0 
L 434 341 
L 1850 1753 
Q 2319 2222 2519 2614 
Q 2719 3006 2719 3438 
Q 2719 3909 2473 4175 
Q 2228 4441 1797 4441 
Q 1350 4441 1106 4219 
Q 863 3997 819 3553 
z
" transform="scale(0.015625)"/>
       </defs>
       <use xlink:href="#DejaVuSerif-13"/>
       <use xlink:href="#DejaVuSerif-11" transform="translate(63.625 0)"/>
       <use xlink:href="#DejaVuSerif-15" transform="translate(95.40625 0)"/>
      </g>
     </g>
    </g>
    <g id="xtick_3">
     <g id="line2d_3"/>
     <g id="text_3">
      <!-- 0.4 -->
      <g style="fill: #262626" transform="translate(198.250848 315.901891) scale(0.09 -0.09)">
       <defs>
        <path id="DejaVuSerif-17" d="M 2234 1581 
L 2234 4063 
L 641 1581 
L 2234 1581 
z
M 3609 0 
L 1484 0 
L 1484 331 
L 2234 331 
L 2234 1247 
L 197 1247 
L 197 1588 
L 2241 4750 
L 2859 4750 
L 2859 1581 
L 3750 1581 
L 3750 1247 
L 2859 1247 
L 2859 331 
L 3609 331 
L 3609 0 
z
" transform="scale(0.015625)"/>
       </defs>
       <use xlink:href="#DejaVuSerif-13"/>
       <use xlink:href="#DejaVuSerif-11" transform="translate(63.625 0)"/>
       <use xlink:href="#DejaVuSerif-17" transform="translate(95.40625 0)"/>
      </g>
     </g>
    </g>
    <g id="xtick_4">
     <g id="line2d_4"/>
     <g id="text_4">
      <!-- 0.6 -->
      <g style="fill: #262626" transform="translate(272.668308 315.901891) scale(0.09 -0.09)">
       <defs>
        <path id="DejaVuSerif-19" d="M 2094 219 
Q 2534 219 2771 542 
Q 3009 866 3009 1472 
Q 3009 2078 2771 2401 
Q 2534 2725 2094 2725 
Q 1647 2725 1412 2412 
Q 1178 2100 1178 1509 
Q 1178 888 1415 553 
Q 1653 219 2094 219 
z
M 1075 2569 
Q 1288 2803 1556 2918 
Q 1825 3034 2163 3034 
Q 2859 3034 3264 2615 
Q 3669 2197 3669 1472 
Q 3669 763 3233 336 
Q 2797 -91 2069 -91 
Q 1278 -91 853 498 
Q 428 1088 428 2181 
Q 428 3406 931 4078 
Q 1434 4750 2350 4750 
Q 2597 4750 2869 4703 
Q 3141 4656 3425 4563 
L 3425 3794 
L 3072 3794 
Q 3034 4109 2831 4275 
Q 2628 4441 2284 4441 
Q 1678 4441 1381 3981 
Q 1084 3522 1075 2569 
z
" transform="scale(0.015625)"/>
       </defs>
       <use xlink:href="#DejaVuSerif-13"/>
       <use xlink:href="#DejaVuSerif-11" transform="translate(63.625 0)"/>
       <use xlink:href="#DejaVuSerif-19" transform="translate(95.40625 0)"/>
      </g>
     </g>
    </g>
    <g id="xtick_5">
     <g id="line2d_5"/>
     <g id="text_5">
      <!-- 0.8 -->
      <g style="fill: #262626" transform="translate(347.085768 315.901891) scale(0.09 -0.09)">
       <defs>
        <path id="DejaVuSerif-1b" d="M 2981 1275 
Q 2981 1775 2732 2051 
Q 2484 2328 2034 2328 
Q 1584 2328 1336 2051 
Q 1088 1775 1088 1275 
Q 1088 772 1336 495 
Q 1584 219 2034 219 
Q 2484 219 2732 495 
Q 2981 772 2981 1275 
z
M 2853 3541 
Q 2853 3966 2637 4203 
Q 2422 4441 2034 4441 
Q 1650 4441 1433 4203 
Q 1216 3966 1216 3541 
Q 1216 3113 1433 2875 
Q 1650 2638 2034 2638 
Q 2422 2638 2637 2875 
Q 2853 3113 2853 3541 
z
M 2516 2484 
Q 3047 2413 3344 2092 
Q 3641 1772 3641 1275 
Q 3641 619 3225 264 
Q 2809 -91 2034 -91 
Q 1263 -91 845 264 
Q 428 619 428 1275 
Q 428 1772 725 2092 
Q 1022 2413 1556 2484 
Q 1084 2569 832 2842 
Q 581 3116 581 3541 
Q 581 4103 968 4426 
Q 1356 4750 2034 4750 
Q 2713 4750 3100 4426 
Q 3488 4103 3488 3541 
Q 3488 3116 3236 2842 
Q 2984 2569 2516 2484 
z
" transform="scale(0.015625)"/>
       </defs>
       <use xlink:href="#DejaVuSerif-13"/>
       <use xlink:href="#DejaVuSerif-11" transform="translate(63.625 0)"/>
       <use xlink:href="#DejaVuSerif-1b" transform="translate(95.40625 0)"/>
      </g>
     </g>
    </g>
    <g id="xtick_6">
     <g id="line2d_6"/>
     <g id="text_6">
      <!-- 1.0 -->
      <g style="fill: #262626" transform="translate(421.503229 315.901891) scale(0.09 -0.09)">
       <defs>
        <path id="DejaVuSerif-14" d="M 909 0 
L 909 331 
L 1722 331 
L 1722 4213 
L 781 3603 
L 781 4013 
L 1919 4750 
L 2350 4750 
L 2350 331 
L 3163 331 
L 3163 0 
L 909 0 
z
" transform="scale(0.015625)"/>
       </defs>
       <use xlink:href="#DejaVuSerif-14"/>
       <use xlink:href="#DejaVuSerif-11" transform="translate(63.625 0)"/>
       <use xlink:href="#DejaVuSerif-13" transform="translate(95.40625 0)"/>
      </g>
     </g>
    </g>
    <g id="text_7">
     <!-- $x$ -->
     <g style="fill: #262626" transform="translate(239.615984 329.661656) scale(0.1 -0.1)">
      <defs>
       <path id="DejaVuSans-Oblique-5b" d="M 3841 3500 
L 2234 1784 
L 3219 0 
L 2559 0 
L 1819 1388 
L 531 0 
L -166 0 
L 1556 1844 
L 641 3500 
L 1300 3500 
L 1972 2234 
L 3144 3500 
L 3841 3500 
z
" transform="scale(0.015625)"/>
      </defs>
      <use xlink:href="#DejaVuSans-Oblique-5b" transform="translate(0 0.3125)"/>
     </g>
    </g>
   </g>
   <g id="matplotlib.axis_2">
    <g id="ytick_1">
     <g id="line2d_7"/>
     <g id="text_8">
      <!-- −4 -->
      <g style="fill: #262626" transform="translate(21.2 279.146545) scale(0.09 -0.09)">
       <defs>
        <path id="DejaVuSerif-8cf" d="M 678 2259 
L 4684 2259 
L 4684 1753 
L 678 1753 
L 678 2259 
z
" transform="scale(0.015625)"/>
       </defs>
       <use xlink:href="#DejaVuSerif-8cf"/>
       <use xlink:href="#DejaVuSerif-17" transform="translate(83.796875 0)"/>
      </g>
     </g>
    </g>
    <g id="ytick_2">
     <g id="line2d_8"/>
     <g id="text_9">
      <!-- −2 -->
      <g style="fill: #262626" transform="translate(21.2 219.473745) scale(0.09 -0.09)">
       <use xlink:href="#DejaVuSerif-8cf"/>
       <use xlink:href="#DejaVuSerif-15" transform="translate(83.796875 0)"/>
      </g>
     </g>
    </g>
    <g id="ytick_3">
     <g id="line2d_9"/>
     <g id="text_10">
      <!-- 0 -->
      <g style="fill: #262626" transform="translate(28.741719 159.800945) scale(0.09 -0.09)">
       <use xlink:href="#DejaVuSerif-13"/>
      </g>
     </g>
    </g>
    <g id="ytick_4">
     <g id="line2d_10"/>
     <g id="text_11">
      <!-- 2 -->
      <g style="fill: #262626" transform="translate(28.741719 100.128145) scale(0.09 -0.09)">
       <use xlink:href="#DejaVuSerif-15"/>
      </g>
     </g>
    </g>
    <g id="ytick_5">
     <g id="line2d_11"/>
     <g id="text_12">
      <!-- 4 -->
      <g style="fill: #262626" transform="translate(28.741719 40.455345) scale(0.09 -0.09)">
       <use xlink:href="#DejaVuSerif-17"/>
      </g>
     </g>
    </g>
    <g id="text_13">
     <!-- $y$ -->
     <g style="fill: #262626" transform="translate(14.797656 159.382) rotate(-90) scale(0.1 -0.1)">
      <defs>
       <path id="DejaVuSans-Oblique-5c" d="M 1588 -325 
Q 1188 -997 936 -1164 
Q 684 -1331 294 -1331 
L -159 -1331 
L -63 -850 
L 269 -850 
Q 509 -850 678 -719 
Q 847 -588 1056 -206 
L 1234 128 
L 459 3500 
L 1069 3500 
L 1650 819 
L 3256 3500 
L 3859 3500 
L 1588 -325 
z
" transform="scale(0.015625)"/>
      </defs>
      <use xlink:href="#DejaVuSans-Oblique-5c" transform="translate(0 0.3125)"/>
     </g>
    </g>
   </g>
   <g id="line2d_12">
    <path d="M 56.572334 156.382 
L 428.659635 156.382 
L 428.659635 156.382 
" clip-path="url(#p88e91be33a)" style="fill: none; stroke: #000000; stroke-width: 1.4; stroke-linecap: round"/>
   </g>
   <g id="line2d_13">
    <path d="M 56.572334 121.654183 
L 58.442119 122.249118 
L 60.311905 127.621119 
L 62.18169 134.002008 
L 64.051475 143.12331 
L 67.791046 158.648869 
L 69.660832 160.742751 
L 71.530617 160.003225 
L 73.400403 156.322669 
L 75.270188 149.73122 
L 77.139974 141.683289 
L 79.009758 135.098953 
L 80.879544 132.160672 
L 82.749329 131.941862 
L 84.619115 135.844304 
L 86.4889 144.479315 
L 90.228472 162.932884 
L 92.098257 168.523941 
L 93.968043 170.747385 
L 95.837828 166.656233 
L 97.707614 157.753167 
L 103.316971 122.658421 
L 105.186754 115.994111 
L 107.056542 114.372509 
L 108.926325 117.580874 
L 110.796113 124.116229 
L 114.535684 139.882029 
L 116.405467 146.382933 
L 118.27525 150.341409 
L 120.145038 152.294652 
L 122.014821 153.352765 
L 123.884609 153.769645 
L 125.754392 153.667252 
L 127.624181 154.876487 
L 129.493963 153.682184 
L 131.363752 151.130028 
L 133.233535 149.255251 
L 135.103323 146.538674 
L 136.973106 144.697975 
L 138.842894 146.093824 
L 140.712677 148.555947 
L 142.582465 154.82449 
L 144.452248 163.228569 
L 148.191819 181.723916 
L 150.061608 189.10679 
L 151.93139 193.990183 
L 153.801173 193.857466 
L 155.670956 190.724359 
L 157.54075 183.447693 
L 161.280316 166.339929 
L 163.150098 159.564815 
L 165.019892 154.456655 
L 168.759458 148.013584 
L 172.499035 145.014636 
L 174.368817 144.257103 
L 178.108383 140.630846 
L 179.978166 137.09236 
L 181.84796 133.929618 
L 183.717743 127.520516 
L 185.587525 123.86515 
L 187.457308 121.061375 
L 189.327102 120.903632 
L 191.196885 121.56999 
L 193.066668 123.983725 
L 194.936451 125.617865 
L 198.676027 127.298594 
L 200.54581 126.441643 
L 202.415593 127.447357 
L 204.285387 128.970747 
L 206.15517 132.433174 
L 208.024952 138.542079 
L 209.894735 146.892193 
L 211.764518 158.014602 
L 215.504095 185.592925 
L 217.373878 200.517305 
L 219.24366 213.195661 
L 221.113454 220.814784 
L 222.983237 224.682415 
L 224.85302 222.355799 
L 226.722803 215.18429 
L 228.592597 204.922347 
L 234.201945 165.549268 
L 236.071728 151.42174 
L 237.941522 140.081096 
L 239.811305 130.080529 
L 241.681087 123.66958 
L 243.550881 121.700723 
L 245.420675 124.027246 
L 247.290447 130.483163 
L 249.160241 138.584081 
L 251.030013 147.566641 
L 252.899806 155.090983 
L 254.7696 160.032871 
L 256.639372 160.699396 
L 258.509166 158.319404 
L 260.378938 153.250284 
L 264.118526 138.133434 
L 265.988297 133.180061 
L 267.858091 131.764696 
L 269.727885 133.672472 
L 271.597657 139.807047 
L 277.207016 166.855859 
L 279.07681 170.316291 
L 280.946582 169.298578 
L 282.816376 162.522827 
L 284.686148 151.980322 
L 288.425735 127.575176 
L 290.295507 118.940267 
L 292.165301 114.495221 
L 294.035095 115.488288 
L 295.904867 119.784656 
L 297.774661 127.751215 
L 299.644432 136.688469 
L 301.514226 143.754242 
L 303.38402 148.613238 
L 305.253792 151.517457 
L 307.123586 153.065672 
L 308.993357 153.159299 
L 310.863151 154.333913 
L 312.732945 154.753391 
L 314.602717 154.10441 
L 316.472511 153.924987 
L 320.212076 147.778543 
L 322.08187 145.409779 
L 323.951642 144.779552 
L 325.821436 146.938753 
L 327.69123 151.736778 
L 329.561002 158.69582 
L 331.430796 167.697559 
L 333.300589 177.680412 
L 335.170361 185.878009 
L 337.040155 191.64184 
L 338.909927 194.779251 
L 340.779721 192.967838 
L 342.649515 187.276175 
L 346.38908 171.151995 
L 348.258852 163.402621 
L 350.128646 156.592942 
L 351.99844 152.240469 
L 353.868211 149.16371 
L 355.738005 147.079539 
L 357.607799 145.660934 
L 361.347365 143.335309 
L 363.217137 141.822226 
L 365.086931 139.05012 
L 366.956724 135.72614 
L 370.69629 125.829472 
L 372.566062 122.113999 
L 374.435856 120.756357 
L 376.30565 121.212101 
L 378.175421 123.486392 
L 380.045215 125.305487 
L 381.915009 126.357959 
L 383.784781 127.575045 
L 385.654575 126.518394 
L 387.524347 126.367932 
L 389.39414 127.313576 
L 391.263934 130.396472 
L 393.133706 135.139223 
L 395.0035 142.5505 
L 396.873294 152.357177 
L 398.743066 164.228324 
L 402.482631 193.458232 
L 404.352425 207.403163 
L 406.222219 217.819402 
L 408.091991 223.579181 
L 409.961785 224.313897 
L 411.831556 219.459488 
L 413.70135 210.962998 
L 415.571144 199.187597 
L 417.440916 185.947082 
L 421.180504 158.227204 
L 423.050275 145.826964 
L 424.920069 135.010745 
L 426.789841 126.19328 
L 428.659635 122.601413 
L 428.659635 122.601413 
" clip-path="url(#p88e91be33a)" style="fill: none; stroke: #262626; stroke-width: 0.7; stroke-linecap: round"/>
    <defs>
     <path id="mfe642cf65a" d="M 0 1.1 
C 0.291723 1.1 0.571538 0.984097 0.777817 0.777817 
C 0.984097 0.571538 1.1 0.291723 1.1 0 
C 1.1 -0.291723 0.984097 -0.571538 0.777817 -0.777817 
C 0.571538 -0.984097 0.291723 -1.1 0 -1.1 
C -0.291723 -1.1 -0.571538 -0.984097 -0.777817 -0.777817 
C -0.984097 -0.571538 -1.1 -0.291723 -1.1 0 
C -1.1 0.291723 -0.984097 0.571538 -0.777817 0.777817 
C -0.571538 0.984097 -0.291723 1.1 0 1.1 
z
" style="stroke: #262626; stroke-width: 0.4"/>
    </defs>
    <g clip-path="url(#p88e91be33a)">
     <use xlink:href="#mfe642cf65a" x="56.572334" y="121.654183" style="fill: #ffffff; stroke: #262626; stroke-width: 0.4"/>
     <use xlink:href="#mfe642cf65a" x="103.316971" y="122.658421" style="fill: #ffffff; stroke: #262626; stroke-width: 0.4"/>
     <use xlink:href="#mfe642cf65a" x="150.061608" y="189.10679" style="fill: #ffffff; stroke: #262626; stroke-width: 0.4"/>
     <use xlink:href="#mfe642cf65a" x="196.806244" y="126.451971" style="fill: #ffffff; stroke: #262626; stroke-width: 0.4"/>
     <use xlink:href="#mfe642cf65a" x="243.550881" y="121.700723" style="fill: #ffffff; stroke: #262626; stroke-width: 0.4"/>
     <use xlink:href="#mfe642cf65a" x="290.295507" y="118.940267" style="fill: #ffffff; stroke: #262626; stroke-width: 0.4"/>
     <use xlink:href="#mfe642cf65a" x="337.040155" y="191.64184" style="fill: #ffffff; stroke: #262626; stroke-width: 0.4"/>
     <use xlink:href="#mfe642cf65a" x="383.784781" y="127.575045" style="fill: #ffffff; stroke: #262626; stroke-width: 0.4"/>
    </g>
   </g>
   <g id="line2d_14">
    <path d="M 56.572334 127.534451 
L 58.442119 129.538599 
L 60.311905 132.115556 
L 62.18169 136.334929 
L 65.921261 141.370893 
L 67.791046 142.557284 
L 69.660832 144.229161 
L 71.530617 145.270022 
L 75.270188 147.002175 
L 77.139974 147.384251 
L 79.009758 145.371731 
L 80.879544 142.627008 
L 82.749329 138.251492 
L 86.4889 131.754024 
L 88.358686 132.418024 
L 90.228472 135.294341 
L 92.098257 140.97697 
L 95.837828 157.08298 
L 97.707614 163.987444 
L 99.5774 167.920262 
L 101.447182 168.699208 
L 103.316971 168.17394 
L 105.186754 167.053741 
L 107.056542 167.030465 
L 108.926325 170.214626 
L 110.796113 176.736903 
L 112.665896 186.298598 
L 116.405467 210.882366 
L 118.27525 222.073776 
L 120.145038 230.187963 
L 122.014821 234.279066 
L 123.884609 235.818588 
L 125.754392 233.192435 
L 127.624181 227.865914 
L 129.493963 221.347361 
L 133.233535 203.18154 
L 136.973106 183.806002 
L 138.842894 175.825808 
L 140.712677 171.06194 
L 142.582465 167.921071 
L 144.452248 169.103343 
L 146.322031 172.466543 
L 150.061608 181.108812 
L 151.93139 183.816829 
L 153.801173 183.851837 
L 155.670956 181.13791 
L 157.54075 175.089137 
L 159.410533 166.378671 
L 163.150098 147.159196 
L 165.019892 139.948388 
L 166.889675 135.586196 
L 168.759458 135.101357 
L 170.629241 137.222629 
L 172.499035 143.460556 
L 174.368817 150.760872 
L 179.978166 176.287856 
L 181.84796 182.712272 
L 183.717743 187.413185 
L 185.587525 190.177885 
L 187.457308 191.038294 
L 189.327102 190.013053 
L 191.196885 187.850043 
L 193.066668 186.846306 
L 194.936451 185.312759 
L 196.806244 184.342773 
L 198.676027 181.79145 
L 200.54581 178.8589 
L 202.415593 173.012436 
L 204.285387 166.73304 
L 206.15517 159.143328 
L 208.024952 152.190299 
L 209.894735 146.30966 
L 211.764518 143.789747 
L 213.634312 142.321019 
L 215.504095 143.14133 
L 217.373878 144.54642 
L 219.24366 147.360184 
L 222.983237 154.572574 
L 224.85302 156.106794 
L 226.722803 156.50218 
L 228.592597 153.686495 
L 230.462379 150.268773 
L 232.332162 145.64599 
L 234.201945 139.869635 
L 236.071728 135.671836 
L 237.941522 131.193581 
L 239.811305 128.234569 
L 241.681087 127.729243 
L 243.550881 128.335492 
L 245.420675 130.534229 
L 249.160241 137.894035 
L 251.030013 140.244459 
L 252.899806 141.62982 
L 254.7696 143.351 
L 258.509166 145.894318 
L 260.378938 146.877551 
L 262.248732 147.174531 
L 264.118526 146.694743 
L 265.988297 144.080342 
L 267.858091 140.218619 
L 271.597657 133.665094 
L 273.467451 132.145692 
L 275.337222 133.885214 
L 277.207016 138.244178 
L 279.07681 145.491226 
L 282.816376 161.357453 
L 284.686148 165.898482 
L 286.555941 168.661254 
L 288.425735 168.66563 
L 290.295507 167.825714 
L 292.165301 166.822669 
L 294.035095 167.82563 
L 295.904867 172.657297 
L 297.774661 181.126045 
L 301.514226 204.410438 
L 303.38402 216.947657 
L 305.253792 226.646851 
L 307.123586 233.337267 
L 308.993357 235.89641 
L 310.863151 234.89362 
L 312.732945 231.189423 
L 314.602717 224.828022 
L 316.472511 216.931161 
L 320.212076 198.210881 
L 322.08187 188.140258 
L 323.951642 179.6509 
L 325.821436 173.249488 
L 327.69123 168.934706 
L 329.561002 168.038288 
L 331.430796 170.556645 
L 333.300589 174.171388 
L 335.170361 178.624448 
L 337.040155 182.391433 
L 338.909927 184.409395 
L 340.779721 182.833297 
L 342.649515 178.049986 
L 344.519286 170.415694 
L 346.38908 161.672933 
L 348.258852 151.597131 
L 350.128646 143.203758 
L 351.99844 137.132963 
L 353.868211 134.954023 
L 355.738005 135.536105 
L 357.607799 140.338043 
L 359.477571 146.913839 
L 361.347365 155.559034 
L 363.217137 163.660014 
L 365.086931 172.274575 
L 366.956724 180.354743 
L 368.826496 185.656225 
L 370.69629 189.269338 
L 372.566062 191.268076 
L 374.435856 190.333238 
L 376.30565 188.547505 
L 380.045215 185.926867 
L 381.915009 184.909624 
L 383.784781 183.699939 
L 385.654575 180.258243 
L 387.524347 176.31254 
L 389.39414 169.87729 
L 393.133706 155.395247 
L 395.0035 149.921298 
L 396.873294 144.851291 
L 398.743066 142.755216 
L 400.612859 142.67805 
L 402.482631 143.978217 
L 404.352425 146.783136 
L 406.222219 150.030196 
L 408.091991 152.98668 
L 409.961785 155.280125 
L 411.831556 155.273065 
L 413.70135 154.834918 
L 415.571144 152.539814 
L 417.440916 148.032321 
L 419.31071 143.902804 
L 423.050275 133.541188 
L 424.920069 129.219709 
L 426.789841 127.693642 
L 428.659635 126.798115 
L 428.659635 126.798115 
" clip-path="url(#p88e91be33a)" style="fill: none; stroke-dasharray: 2.59,1.12; stroke-dashoffset: 0; stroke: #333333; stroke-width: 0.7"/>
    <defs>
     <path id="md755525cd3" d="M -1.1 1.1 
L 1.1 1.1 
L 1.1 -1.1 
L -1.1 -1.1 
z
" style="stroke: #333333; stroke-width: 0.4; stroke-linejoin: miter"/>
    </defs>
    <g clip-path="url(#p88e91be33a)">
     <use xlink:href="#md755525cd3" x="56.572334" y="127.534451" style="fill: #ffffff; stroke: #333333; stroke-width: 0.4; stroke-linejoin: miter"/>
     <use xlink:href="#md755525cd3" x="103.316971" y="168.17394" style="fill: #ffffff; stroke: #333333; stroke-width: 0.4; stroke-linejoin: miter"/>
     <use xlink:href="#md755525cd3" x="150.061608" y="181.108812" style="fill: #ffffff; stroke: #333333; stroke-width: 0.4; stroke-linejoin: miter"/>
     <use xlink:href="#md755525cd3" x="196.806244" y="184.342773" style="fill: #ffffff; stroke: #333333; stroke-width: 0.4; stroke-linejoin: miter"/>
     <use xlink:href="#md755525cd3" x="243.550881" y="128.335492" style="fill: #ffffff; stroke: #333333; stroke-width: 0.4; stroke-linejoin: miter"/>
     <use xlink:href="#md755525cd3" x="290.295507" y="167.825714" style="fill: #ffffff; stroke: #333333; stroke-width: 0.4; stroke-linejoin: miter"/>
     <use xlink:href="#md755525cd3" x="337.040155" y="182.391433" style="fill: #ffffff; stroke: #333333; stroke-width: 0.4; stroke-linejoin: miter"/>
     <use xlink:href="#md755525cd3" x="383.784781" y="183.699939" style="fill: #ffffff; stroke: #333333; stroke-width: 0.4; stroke-linejoin: miter"/>
    </g>
   </g>
   <g id="line2d_15">
    <path d="M 56.572334 201.630569 
L 58.442119 199.841998 
L 60.311905 196.51824 
L 62.18169 189.769955 
L 64.051475 181.259381 
L 65.921261 169.721335 
L 69.660832 143.771833 
L 71.530617 131.894459 
L 73.400403 124.938044 
L 75.270188 120.404165 
L 77.139974 121.114986 
L 79.009758 126.299379 
L 86.4889 161.932429 
L 88.358686 168.994257 
L 90.228472 175.124355 
L 92.098257 180.201486 
L 93.968043 183.879119 
L 95.837828 185.780671 
L 97.707614 186.935567 
L 99.5774 187.749066 
L 101.447182 185.924998 
L 103.316971 184.616944 
L 105.186754 182.186574 
L 108.926325 173.917715 
L 112.665896 162.906803 
L 114.535684 159.530026 
L 116.405467 157.194069 
L 118.27525 159.131094 
L 120.145038 164.329226 
L 122.014821 172.790187 
L 123.884609 182.410455 
L 125.754392 191.192587 
L 127.624181 195.97788 
L 129.493963 196.271467 
L 131.363752 190.474001 
L 133.233535 179.905973 
L 136.973106 153.043907 
L 138.842894 141.005982 
L 140.712677 134.11756 
L 142.582465 131.821926 
L 144.452248 135.197347 
L 146.322031 143.102317 
L 148.191819 152.222477 
L 150.061608 160.588242 
L 151.93139 167.519247 
L 153.801173 173.355442 
L 155.670956 177.41155 
L 157.54075 179.731125 
L 159.410533 183.443265 
L 161.280316 187.62428 
L 166.889675 201.646869 
L 168.759458 205.847308 
L 170.629241 208.479948 
L 172.499035 209.327542 
L 174.368817 209.053934 
L 176.2386 204.056208 
L 178.108383 195.617842 
L 179.978166 183.670432 
L 185.587525 141.202576 
L 187.457308 131.803847 
L 189.327102 125.873483 
L 191.196885 124.651282 
L 193.066668 125.640087 
L 194.936451 128.600577 
L 196.806244 130.126054 
L 198.676027 130.33638 
L 200.54581 126.692699 
L 202.415593 121.086187 
L 204.285387 112.795637 
L 208.024952 93.225331 
L 209.894735 84.232122 
L 211.764518 76.759642 
L 213.634312 73.672225 
L 215.504095 74.214356 
L 217.373878 79.412328 
L 219.24366 89.797253 
L 221.113454 102.914088 
L 222.983237 118.963695 
L 226.722803 154.662409 
L 228.592597 168.720817 
L 230.462379 180.556004 
L 232.332162 189.647125 
L 234.201945 195.408135 
L 236.071728 199.170325 
L 237.941522 201.27317 
L 239.811305 202.014508 
L 241.681087 202.381048 
L 243.550881 201.162483 
L 245.420675 198.513549 
L 247.290447 193.780561 
L 249.160241 185.623682 
L 251.030013 175.94965 
L 252.899806 163.644697 
L 256.639372 137.253746 
L 258.509166 127.974951 
L 260.378938 122.415642 
L 262.248732 120.475499 
L 264.118526 123.57216 
L 265.988297 130.47579 
L 269.727885 148.710294 
L 273.467451 165.498186 
L 275.337222 172.441737 
L 277.207016 177.858024 
L 279.07681 182.246589 
L 280.946582 185.339414 
L 282.816376 187.268688 
L 284.686148 187.326873 
L 286.555941 186.901977 
L 288.425735 185.293997 
L 290.295507 183.150691 
L 294.035095 175.765668 
L 299.644432 160.464966 
L 301.514226 157.544931 
L 303.38402 158.187747 
L 305.253792 161.443105 
L 307.123586 168.474777 
L 308.993357 177.20898 
L 310.863151 187.115469 
L 312.732945 193.699054 
L 314.602717 196.638242 
L 316.472511 193.815193 
L 318.342305 186.126196 
L 320.212076 173.873584 
L 322.08187 159.272103 
L 323.951642 146.106566 
L 325.821436 136.845463 
L 327.69123 131.965993 
L 329.561002 133.162119 
L 331.430796 138.875354 
L 333.300589 147.21945 
L 335.170361 156.808162 
L 337.040155 165.077538 
L 338.909927 170.731402 
L 340.779721 174.907859 
L 342.649515 178.240087 
L 346.38908 185.395127 
L 353.868211 203.738663 
L 355.738005 207.031039 
L 357.607799 208.942599 
L 359.477571 209.437425 
L 361.347365 206.303344 
L 363.217137 200.332434 
L 365.086931 190.313633 
L 368.826496 162.270558 
L 370.69629 147.255615 
L 372.566062 135.204312 
L 374.435856 127.778788 
L 376.30565 124.952929 
L 378.175421 125.210393 
L 380.045215 127.251743 
L 383.784781 130.806479 
L 385.654575 129.187614 
L 387.524347 123.863065 
L 389.39414 117.126233 
L 391.263934 108.22873 
L 393.133706 98.005439 
L 395.0035 88.418334 
L 396.873294 80.478486 
L 398.743066 74.623904 
L 400.612859 73.870956 
L 402.482631 75.927086 
L 404.352425 83.80644 
L 406.222219 95.820269 
L 408.091991 110.974319 
L 413.70135 161.961533 
L 415.571144 175.39364 
L 417.440916 185.642875 
L 419.31071 193.011241 
L 421.180504 197.802258 
L 423.050275 200.286452 
L 424.920069 201.680026 
L 426.789841 201.683895 
L 428.659635 202.211849 
L 428.659635 202.211849 
" clip-path="url(#p88e91be33a)" style="fill: none; stroke-dasharray: 0.7,1.155; stroke-dashoffset: 0; stroke: #424242; stroke-width: 0.7"/>
    <defs>
     <path id="m1642a6dda9" d="M 0 -1.1 
L -1.1 1.1 
L 1.1 1.1 
z
" style="stroke: #424242; stroke-width: 0.4; stroke-linejoin: miter"/>
    </defs>
    <g clip-path="url(#p88e91be33a)">
     <use xlink:href="#m1642a6dda9" x="56.572334" y="201.630569" style="fill: #ffffff; stroke: #424242; stroke-width: 0.4; stroke-linejoin: miter"/>
     <use xlink:href="#m1642a6dda9" x="103.316971" y="184.616944" style="fill: #ffffff; stroke: #424242; stroke-width: 0.4; stroke-linejoin: miter"/>
     <use xlink:href="#m1642a6dda9" x="150.061608" y="160.588242" style="fill: #ffffff; stroke: #424242; stroke-width: 0.4; stroke-linejoin: miter"/>
     <use xlink:href="#m1642a6dda9" x="196.806244" y="130.126054" style="fill: #ffffff; stroke: #424242; stroke-width: 0.4; stroke-linejoin: miter"/>
     <use xlink:href="#m1642a6dda9" x="243.550881" y="201.162483" style="fill: #ffffff; stroke: #424242; stroke-width: 0.4; stroke-linejoin: miter"/>
     <use xlink:href="#m1642a6dda9" x="290.295507" y="183.150691" style="fill: #ffffff; stroke: #424242; stroke-width: 0.4; stroke-linejoin: miter"/>
     <use xlink:href="#m1642a6dda9" x="337.040155" y="165.077538" style="fill: #ffffff; stroke: #424242; stroke-width: 0.4; stroke-linejoin: miter"/>
     <use xlink:href="#m1642a6dda9" x="383.784781" y="130.806479" style="fill: #ffffff; stroke: #424242; stroke-width: 0.4; stroke-linejoin: miter"/>
    </g>
   </g>
   <g id="line2d_16">
    <path d="M 56.572334 138.057075 
L 58.442119 138.028266 
L 60.311905 139.17914 
L 62.18169 140.803027 
L 64.051475 142.235563 
L 65.921261 144.092368 
L 69.660832 148.150743 
L 71.530617 150.806997 
L 73.400403 154.272346 
L 79.009758 166.677614 
L 82.749329 178.118714 
L 84.619115 184.365835 
L 86.4889 188.974613 
L 88.358686 190.916545 
L 90.228472 189.819579 
L 92.098257 183.297691 
L 93.968043 173.23011 
L 97.707614 150.952949 
L 99.5774 142.810159 
L 101.447182 137.94196 
L 103.316971 135.748541 
L 105.186754 136.867352 
L 107.056542 139.213319 
L 110.796113 146.777429 
L 114.535684 154.646169 
L 116.405467 158.015663 
L 118.27525 160.799199 
L 120.145038 162.210866 
L 122.014821 162.261851 
L 125.754392 156.433577 
L 129.493963 148.223151 
L 133.233535 147.817598 
L 135.103323 150.906007 
L 136.973106 155.67893 
L 138.842894 159.545872 
L 140.712677 164.086441 
L 142.582465 166.917727 
L 144.452248 168.613433 
L 146.322031 170.040746 
L 148.191819 170.917816 
L 151.93139 174.572085 
L 153.801173 177.394085 
L 155.670956 180.855363 
L 157.54075 183.866983 
L 159.410533 188.354664 
L 161.280316 191.081132 
L 163.150098 194.600362 
L 165.019892 195.789343 
L 166.889675 195.440537 
L 168.759458 192.288828 
L 170.629241 187.596025 
L 172.499035 181.372302 
L 174.368817 175.747532 
L 176.2386 172.89657 
L 178.108383 173.11536 
L 179.978166 176.403462 
L 183.717743 189.988575 
L 185.587525 195.123411 
L 187.457308 195.880916 
L 189.327102 190.102858 
L 191.196885 179.029569 
L 193.066668 162.14465 
L 198.676027 103.927079 
L 200.54581 88.953607 
L 202.415593 77.560229 
L 204.285387 72.044978 
L 206.15517 73.152018 
L 208.024952 79.700348 
L 209.894735 90.706593 
L 211.764518 104.712807 
L 213.634312 120.607481 
L 215.504095 135.105038 
L 217.373878 146.836125 
L 219.24366 155.304365 
L 221.113454 160.718718 
L 222.983237 163.380824 
L 224.85302 163.795451 
L 226.722803 161.041933 
L 228.592597 157.941929 
L 230.462379 154.040018 
L 234.201945 145.257749 
L 236.071728 141.63107 
L 237.941522 138.348598 
L 239.811305 137.188978 
L 241.681087 136.74706 
L 243.550881 137.793744 
L 245.420675 138.993601 
L 247.290447 140.756339 
L 249.160241 141.177008 
L 251.030013 143.509482 
L 252.899806 144.782464 
L 256.639372 149.615428 
L 258.509166 153.196325 
L 260.378938 156.024207 
L 262.248732 159.879131 
L 264.118526 163.408713 
L 265.988297 168.851603 
L 269.727885 181.231092 
L 271.597657 187.09654 
L 273.467451 190.677459 
L 275.337222 190.636762 
L 277.207016 186.336257 
L 279.07681 178.611925 
L 280.946582 167.711802 
L 282.816376 155.856004 
L 284.686148 146.192374 
L 286.555941 139.337312 
L 288.425735 135.939202 
L 290.295507 135.669481 
L 292.165301 137.631968 
L 294.035095 140.713217 
L 295.904867 144.574643 
L 297.774661 149.491448 
L 299.644432 152.578737 
L 303.38402 159.893777 
L 305.253792 161.833553 
L 307.123586 162.277355 
L 308.993357 161.08969 
L 310.863151 157.710338 
L 312.732945 153.432532 
L 314.602717 149.809686 
L 316.472511 147.956764 
L 318.342305 146.965707 
L 320.212076 148.848466 
L 322.08187 152.829571 
L 325.821436 162.118145 
L 327.69123 165.418237 
L 329.561002 167.461196 
L 331.430796 169.301866 
L 333.300589 169.427536 
L 335.170361 171.231622 
L 338.909927 176.371028 
L 340.779721 178.988943 
L 342.649515 183.174792 
L 344.519286 186.369101 
L 346.38908 189.901232 
L 348.258852 193.133783 
L 350.128646 195.378944 
L 351.99844 195.799658 
L 353.868211 194.023119 
L 355.738005 190.380845 
L 357.607799 184.356357 
L 359.477571 178.772033 
L 361.347365 174.04373 
L 363.217137 172.434196 
L 365.086931 174.273983 
L 366.956724 179.732727 
L 368.826496 186.758464 
L 370.69629 192.846011 
L 372.566062 196.35099 
L 374.435856 193.645276 
L 376.30565 185.079622 
L 378.175421 170.993206 
L 380.045215 153.051597 
L 383.784781 113.078558 
L 385.654575 95.899052 
L 387.524347 82.102019 
L 389.39414 73.383891 
L 391.263934 71.62646 
L 393.133706 75.724093 
L 395.0035 84.136665 
L 396.873294 97.355224 
L 400.612859 128.441573 
L 402.482631 140.617481 
L 404.352425 151.755344 
L 406.222219 158.635795 
L 408.091991 162.663119 
L 409.961785 163.168328 
L 411.831556 162.369696 
L 413.70135 159.687054 
L 415.571144 155.932665 
L 417.440916 151.696437 
L 419.31071 147.871152 
L 421.180504 143.299048 
L 423.050275 140.219515 
L 424.920069 137.688007 
L 426.789841 136.898564 
L 428.659635 136.806774 
L 428.659635 136.806774 
" clip-path="url(#p88e91be33a)" style="fill: none; stroke-dasharray: 4.48,1.12,0.7,1.12; stroke-dashoffset: 0; stroke: #525252; stroke-width: 0.7"/>
    <defs>
     <path id="m3e3a28e6c9" d="M -0 1.555635 
L 1.555635 0 
L 0 -1.555635 
L -1.555635 -0 
z
" style="stroke: #525252; stroke-width: 0.4; stroke-linejoin: miter"/>
    </defs>
    <g clip-path="url(#p88e91be33a)">
     <use xlink:href="#m3e3a28e6c9" x="56.572334" y="138.057075" style="fill: #ffffff; stroke: #525252; stroke-width: 0.4; stroke-linejoin: miter"/>
     <use xlink:href="#m3e3a28e6c9" x="103.316971" y="135.748541" style="fill: #ffffff; stroke: #525252; stroke-width: 0.4; stroke-linejoin: miter"/>
     <use xlink:href="#m3e3a28e6c9" x="150.061608" y="172.781345" style="fill: #ffffff; stroke: #525252; stroke-width: 0.4; stroke-linejoin: miter"/>
     <use xlink:href="#m3e3a28e6c9" x="196.806244" y="123.05519" style="fill: #ffffff; stroke: #525252; stroke-width: 0.4; stroke-linejoin: miter"/>
     <use xlink:href="#m3e3a28e6c9" x="243.550881" y="137.793744" style="fill: #ffffff; stroke: #525252; stroke-width: 0.4; stroke-linejoin: miter"/>
     <use xlink:href="#m3e3a28e6c9" x="290.295507" y="135.669481" style="fill: #ffffff; stroke: #525252; stroke-width: 0.4; stroke-linejoin: miter"/>
     <use xlink:href="#m3e3a28e6c9" x="337.040155" y="173.897358" style="fill: #ffffff; stroke: #525252; stroke-width: 0.4; stroke-linejoin: miter"/>
     <use xlink:href="#m3e3a28e6c9" x="383.784781" y="113.078558" style="fill: #ffffff; stroke: #525252; stroke-width: 0.4; stroke-linejoin: miter"/>
    </g>
   </g>
   <g id="line2d_17">
    <path d="M 56.572334 172.406948 
L 60.311905 186.952451 
L 62.18169 192.96379 
L 64.051475 197.172737 
L 65.921261 198.537977 
L 67.791046 197.790157 
L 69.660832 192.807136 
L 71.530617 186.230226 
L 75.270188 163.606634 
L 77.139974 148.962366 
L 80.879544 118.05432 
L 82.749329 103.733075 
L 84.619115 92.807986 
L 86.4889 85.953317 
L 88.358686 83.155721 
L 90.228472 84.482398 
L 92.098257 89.891614 
L 93.968043 95.793074 
L 95.837828 104.539087 
L 97.707614 115.419478 
L 99.5774 127.759296 
L 103.316971 154.572648 
L 105.186754 166.679069 
L 107.056542 174.82613 
L 108.926325 181.889172 
L 110.796113 184.205361 
L 112.665896 185.570124 
L 114.535684 184.865073 
L 118.27525 186.689459 
L 120.145038 187.999484 
L 122.014821 188.045701 
L 123.884609 187.398232 
L 125.754392 185.732413 
L 129.493963 177.986292 
L 131.363752 175.217855 
L 133.233535 173.368871 
L 135.103323 172.960108 
L 138.842894 173.859649 
L 140.712677 174.079675 
L 142.582465 174.145884 
L 146.322031 169.659333 
L 148.191819 166.736374 
L 150.061608 163.576228 
L 151.93139 162.79859 
L 153.801173 162.258298 
L 155.670956 163.662721 
L 157.54075 166.550771 
L 159.410533 170.415166 
L 161.280316 176.868262 
L 163.150098 181.345201 
L 165.019892 185.524619 
L 166.889675 187.166523 
L 168.759458 187.079488 
L 170.629241 186.282735 
L 172.499035 184.112917 
L 174.368817 183.648359 
L 176.2386 182.536493 
L 178.108383 182.50145 
L 179.978166 182.067692 
L 181.84796 182.176933 
L 185.587525 180.347603 
L 187.457308 178.381332 
L 191.196885 170.768313 
L 193.066668 165.430264 
L 194.936451 161.431669 
L 196.806244 158.846975 
L 198.676027 159.482012 
L 200.54581 162.376212 
L 202.415593 167.459532 
L 204.285387 175.744922 
L 206.15517 184.901009 
L 208.024952 193.403916 
L 209.894735 200.990089 
L 211.764518 206.560157 
L 213.634312 208.593221 
L 215.504095 208.187514 
L 217.373878 203.722622 
L 219.24366 195.271597 
L 224.85302 162.839046 
L 226.722803 154.567676 
L 228.592597 150.181018 
L 230.462379 148.596034 
L 232.332162 149.968154 
L 234.201945 152.006329 
L 236.071728 155.289234 
L 237.941522 159.400765 
L 239.811305 163.973813 
L 241.681087 169.669626 
L 245.420675 183.634452 
L 247.290447 190.120809 
L 249.160241 195.383131 
L 251.030013 198.453411 
L 252.899806 198.517433 
L 254.7696 196.099174 
L 256.639372 189.338475 
L 258.509166 181.290401 
L 262.248732 156.116494 
L 267.858091 111.007941 
L 269.727885 98.445095 
L 271.597657 88.987752 
L 273.467451 83.979932 
L 275.337222 83.460202 
L 277.207016 86.303709 
L 279.07681 91.857444 
L 280.946582 99.688583 
L 282.816376 110.190925 
L 284.686148 121.641329 
L 290.295507 160.743543 
L 292.165301 171.457774 
L 294.035095 178.930507 
L 295.904867 183.090845 
L 297.774661 184.23283 
L 299.644432 185.165696 
L 303.38402 185.864865 
L 305.253792 187.208429 
L 308.993357 188.454229 
L 310.863151 186.530703 
L 312.732945 183.964492 
L 314.602717 180.288187 
L 316.472511 176.909024 
L 318.342305 174.573962 
L 320.212076 172.70139 
L 322.08187 173.329209 
L 323.951642 173.37791 
L 325.821436 174.132834 
L 327.69123 174.324071 
L 329.561002 172.868121 
L 331.430796 171.1107 
L 333.300589 167.863906 
L 335.170361 165.566286 
L 337.040155 163.634106 
L 338.909927 162.564857 
L 340.779721 162.869789 
L 342.649515 165.053493 
L 344.519286 168.429539 
L 350.128646 184.286502 
L 351.99844 186.829717 
L 353.868211 187.593222 
L 355.738005 187.096319 
L 357.607799 185.241435 
L 359.477571 183.92158 
L 361.347365 182.30662 
L 365.086931 181.801258 
L 366.956724 182.214071 
L 368.826496 180.899455 
L 370.69629 181.12441 
L 372.566062 179.642583 
L 374.435856 176.786877 
L 376.30565 172.593666 
L 378.175421 167.953626 
L 380.045215 163.747512 
L 381.915009 159.815144 
L 383.784781 158.350163 
L 385.654575 160.773632 
L 387.524347 164.598809 
L 389.39414 171.928762 
L 391.263934 180.049108 
L 395.0035 197.447796 
L 396.873294 204.24136 
L 398.743066 208.391513 
L 400.612859 209.001325 
L 402.482631 206.379473 
L 404.352425 200.297009 
L 406.222219 189.922512 
L 409.961785 167.421901 
L 411.831556 158.343052 
L 413.70135 151.259219 
L 415.571144 148.795719 
L 417.440916 148.54694 
L 419.31071 150.648987 
L 423.050275 156.792162 
L 426.789841 166.570726 
L 428.659635 172.717205 
L 428.659635 172.717205 
" clip-path="url(#p88e91be33a)" style="fill: none; stroke-dasharray: 3.5,0.7; stroke-dashoffset: 0; stroke: #5e5e5e; stroke-width: 0.7"/>
    <defs>
     <path id="mddc5aa83ae" d="M -0 1.1 
L 1.1 -1.1 
L -1.1 -1.1 
z
" style="stroke: #5e5e5e; stroke-width: 0.4; stroke-linejoin: miter"/>
    </defs>
    <g clip-path="url(#p88e91be33a)">
     <use xlink:href="#mddc5aa83ae" x="56.572334" y="172.406948" style="fill: #ffffff; stroke: #5e5e5e; stroke-width: 0.4; stroke-linejoin: miter"/>
     <use xlink:href="#mddc5aa83ae" x="103.316971" y="154.572648" style="fill: #ffffff; stroke: #5e5e5e; stroke-width: 0.4; stroke-linejoin: miter"/>
     <use xlink:href="#mddc5aa83ae" x="150.061608" y="163.576228" style="fill: #ffffff; stroke: #5e5e5e; stroke-width: 0.4; stroke-linejoin: miter"/>
     <use xlink:href="#mddc5aa83ae" x="196.806244" y="158.846975" style="fill: #ffffff; stroke: #5e5e5e; stroke-width: 0.4; stroke-linejoin: miter"/>
     <use xlink:href="#mddc5aa83ae" x="243.550881" y="176.759307" style="fill: #ffffff; stroke: #5e5e5e; stroke-width: 0.4; stroke-linejoin: miter"/>
     <use xlink:href="#mddc5aa83ae" x="290.295507" y="160.743543" style="fill: #ffffff; stroke: #5e5e5e; stroke-width: 0.4; stroke-linejoin: miter"/>
     <use xlink:href="#mddc5aa83ae" x="337.040155" y="163.634106" style="fill: #ffffff; stroke: #5e5e5e; stroke-width: 0.4; stroke-linejoin: miter"/>
     <use xlink:href="#mddc5aa83ae" x="383.784781" y="158.350163" style="fill: #ffffff; stroke: #5e5e5e; stroke-width: 0.4; stroke-linejoin: miter"/>
    </g>
   </g>
   <g id="patch_3">
    <path d="M 37.967969 275.7276 
L 37.967969 37.0364 
" style="fill: none; stroke: #262626; stroke-width: 0.5; stroke-linejoin: miter; stroke-linecap: square"/>
   </g>
   <g id="patch_4">
    <path d="M 56.572334 305.564 
L 428.659635 305.564 
" style="fill: none; stroke: #262626; stroke-width: 0.5; stroke-linejoin: miter; stroke-linecap: square"/>
   </g>
   <g id="legend_1">
    <g id="line2d_18">
     <path d="M 381.478219 18.988594 
L 390.478219 18.988594 
L 399.478219 18.988594 
" style="fill: none; stroke: #000000; stroke-width: 1.4; stroke-linecap: round"/>
    </g>
    <g id="text_14">
     <!-- mean -->
     <g style="fill: #262626" transform="translate(406.678219 22.138594) scale(0.09 -0.09)">
      <defs>
       <path id="DejaVuSerif-50" d="M 3316 2675 
Q 3481 3041 3739 3227 
Q 3997 3413 4341 3413 
Q 4863 3413 5119 3089 
Q 5375 2766 5375 2113 
L 5375 331 
L 5894 331 
L 5894 0 
L 4300 0 
L 4300 331 
L 4800 331 
L 4800 2047 
Q 4800 2556 4650 2772 
Q 4500 2988 4153 2988 
Q 3769 2988 3567 2697 
Q 3366 2406 3366 1850 
L 3366 331 
L 3866 331 
L 3866 0 
L 2291 0 
L 2291 331 
L 2791 331 
L 2791 2069 
Q 2791 2566 2641 2777 
Q 2491 2988 2144 2988 
Q 1759 2988 1557 2697 
Q 1356 2406 1356 1850 
L 1356 331 
L 1856 331 
L 1856 0 
L 263 0 
L 263 331 
L 781 331 
L 781 2994 
L 231 2994 
L 231 3322 
L 1356 3322 
L 1356 2731 
Q 1516 3063 1762 3238 
Q 2009 3413 2322 3413 
Q 2709 3413 2968 3220 
Q 3228 3028 3316 2675 
z
" transform="scale(0.015625)"/>
       <path id="DejaVuSerif-48" d="M 3469 1600 
L 991 1600 
L 991 1575 
Q 991 903 1244 561 
Q 1497 219 1991 219 
Q 2369 219 2611 417 
Q 2853 616 2950 1006 
L 3413 1006 
Q 3275 459 2904 184 
Q 2534 -91 1931 -91 
Q 1203 -91 761 389 
Q 319 869 319 1663 
Q 319 2450 753 2931 
Q 1188 3413 1894 3413 
Q 2647 3413 3050 2948 
Q 3453 2484 3469 1600 
z
M 2791 1931 
Q 2772 2513 2545 2808 
Q 2319 3103 1894 3103 
Q 1497 3103 1269 2806 
Q 1041 2509 991 1931 
L 2791 1931 
z
" transform="scale(0.015625)"/>
       <path id="DejaVuSerif-44" d="M 2547 1044 
L 2547 1747 
L 1806 1747 
Q 1378 1747 1168 1562 
Q 959 1378 959 997 
Q 959 650 1171 447 
Q 1384 244 1747 244 
Q 2106 244 2326 466 
Q 2547 688 2547 1044 
z
M 3122 2075 
L 3122 331 
L 3634 331 
L 3634 0 
L 2547 0 
L 2547 359 
Q 2356 128 2106 18 
Q 1856 -91 1522 -91 
Q 969 -91 644 203 
Q 319 497 319 997 
Q 319 1513 691 1797 
Q 1063 2081 1741 2081 
L 2547 2081 
L 2547 2309 
Q 2547 2688 2317 2895 
Q 2088 3103 1672 3103 
Q 1328 3103 1125 2947 
Q 922 2791 872 2484 
L 575 2484 
L 575 3156 
Q 875 3284 1158 3348 
Q 1441 3413 1709 3413 
Q 2400 3413 2761 3070 
Q 3122 2728 3122 2075 
z
" transform="scale(0.015625)"/>
       <path id="DejaVuSerif-51" d="M 263 0 
L 263 331 
L 781 331 
L 781 2988 
L 231 2988 
L 231 3322 
L 1356 3322 
L 1356 2731 
Q 1516 3069 1770 3241 
Q 2025 3413 2363 3413 
Q 2913 3413 3172 3097 
Q 3431 2781 3431 2113 
L 3431 331 
L 3944 331 
L 3944 0 
L 2356 0 
L 2356 331 
L 2853 331 
L 2853 1931 
Q 2853 2541 2703 2767 
Q 2553 2994 2175 2994 
Q 1775 2994 1565 2701 
Q 1356 2409 1356 1850 
L 1356 331 
L 1856 331 
L 1856 0 
L 263 0 
z
" transform="scale(0.015625)"/>
      </defs>
      <use xlink:href="#DejaVuSerif-50"/>
      <use xlink:href="#DejaVuSerif-48" transform="translate(94.828125 0)"/>
      <use xlink:href="#DejaVuSerif-44" transform="translate(154.015625 0)"/>
      <use xlink:href="#DejaVuSerif-51" transform="translate(213.640625 0)"/>
     </g>
    </g>
    <g id="line2d_19">
     <path d="M 381.478219 32.489297 
L 390.478219 32.489297 
L 399.478219 32.489297 
" style="fill: none; stroke: #262626; stroke-width: 0.7; stroke-linecap: round"/>
     <g>
      <use xlink:href="#mfe642cf65a" x="390.478219" y="32.489297" style="fill: #ffffff; stroke: #262626; stroke-width: 0.4"/>
     </g>
    </g>
    <g id="text_15">
     <!-- sample -->
     <g style="fill: #262626" transform="translate(406.678219 35.639297) scale(0.09 -0.09)">
      <defs>
       <path id="DejaVuSerif-56" d="M 359 184 
L 359 959 
L 691 959 
Q 703 588 923 403 
Q 1144 219 1575 219 
Q 1963 219 2166 364 
Q 2369 509 2369 788 
Q 2369 1006 2220 1140 
Q 2072 1275 1594 1428 
L 1178 1569 
Q 750 1706 558 1912 
Q 366 2119 366 2438 
Q 366 2894 700 3153 
Q 1034 3413 1625 3413 
Q 1888 3413 2178 3344 
Q 2469 3275 2778 3144 
L 2778 2419 
L 2447 2419 
Q 2434 2741 2221 2922 
Q 2009 3103 1644 3103 
Q 1281 3103 1095 2975 
Q 909 2847 909 2591 
Q 909 2381 1050 2254 
Q 1191 2128 1613 1997 
L 2069 1856 
Q 2541 1709 2748 1489 
Q 2956 1269 2956 922 
Q 2956 450 2595 179 
Q 2234 -91 1600 -91 
Q 1278 -91 972 -22 
Q 666 47 359 184 
z
" transform="scale(0.015625)"/>
       <path id="DejaVuSerif-53" d="M 1313 1825 
L 1313 1497 
Q 1313 897 1542 583 
Q 1772 269 2209 269 
Q 2650 269 2876 622 
Q 3103 975 3103 1663 
Q 3103 2353 2876 2703 
Q 2650 3053 2209 3053 
Q 1772 3053 1542 2737 
Q 1313 2422 1313 1825 
z
M 738 2988 
L 184 2988 
L 184 3322 
L 1313 3322 
L 1313 2803 
Q 1481 3116 1742 3264 
Q 2003 3413 2388 3413 
Q 3000 3413 3387 2928 
Q 3775 2444 3775 1663 
Q 3775 881 3387 395 
Q 3000 -91 2388 -91 
Q 2003 -91 1742 57 
Q 1481 206 1313 519 
L 1313 -997 
L 1856 -997 
L 1856 -1331 
L 184 -1331 
L 184 -997 
L 738 -997 
L 738 2988 
z
" transform="scale(0.015625)"/>
       <path id="DejaVuSerif-4f" d="M 1313 331 
L 1856 331 
L 1856 0 
L 184 0 
L 184 331 
L 738 331 
L 738 4531 
L 184 4531 
L 184 4863 
L 1313 4863 
L 1313 331 
z
" transform="scale(0.015625)"/>
      </defs>
      <use xlink:href="#DejaVuSerif-56"/>
      <use xlink:href="#DejaVuSerif-44" transform="translate(51.3125 0)"/>
      <use xlink:href="#DejaVuSerif-50" transform="translate(110.9375 0)"/>
      <use xlink:href="#DejaVuSerif-53" transform="translate(205.765625 0)"/>
      <use xlink:href="#DejaVuSerif-4f" transform="translate(269.78125 0)"/>
      <use xlink:href="#DejaVuSerif-48" transform="translate(301.765625 0)"/>
     </g>
    </g>
   </g>
  </g>
 </g>
 <defs>
  <clipPath id="p88e91be33a">
   <rect x="37.967969" y="7.2" width="409.296031" height="298.364"/>
  </clipPath>
 </defs>
</svg>