<?xml version="1.0" encoding="utf-8" standalone="no"?>
<!DOCTYPE svg PUBLIC "-//W3C//DTD SVG 1.1//EN"
  "http://www.w3.org/Graphics/SVG/1.1/DTD/svg11.dtd">
<svg xmlns:xlink="http://www.w3.org/1999/xlink" width="402.632875pt" height="312.064388pt" viewBox="0 0 402.632875 312.064388" xmlns="http://www.w3.org/2000/svg" version="1.1">
 <metadata>
  <rdf:RDF xmlns:dc="http://purl.org/dc/elements/1.1/" xmlns:cc="http://creativecommons.org/ns#" xmlns:rdf="http://www.w3.org/1999/02/22-rdf-syntax-ns#">
   <cc:Work>
    <dc:type rdf:resource="http://purl.org/dc/dcmitype/StillImage"/>
    <dc:date>2023-09-17T11:21:26.415543</dc:date>
    <dc:format>image/svg+xml</dc:format>
    <dc:creator>
     <cc:Agent>
      <dc:title>Matplotlib v3.7.1, https://matplotlib.org/</dc:title>
     </cc:Agent>
    </dc:creator>
   </cc:Work>
  </rdf:RDF>
 </metadata>
 <defs>
  <style type="text/css">*{stroke-linejoin: round; stroke-linecap: butt}</style>
 </defs>
 <g id="figure_1">
  <g id="patch_1">
   <path d="M 0 312.064388 
L 402.632875 312.064388 
L 402.632875 0 
L 0 0 
z
" style="fill: #ffffff"/>
  </g>
  <g id="axes_1">
   <g id="patch_2">
    <path d="M 38.312875 275.737013 
L 395.432875 275.737013 
L 395.432875 9.625013 
L 38.312875 9.625013 
z
" style="fill: #ffffff"/>
   </g>
   <g id="matplotlib.axis_1">
    <g id="xtick_1">
     <g id="line2d_1">
      <defs>
       <path id="m705b0ea202" d="M 0 0 
L 0 4.8 
" style="stroke: #262626"/>
      </defs>
      <g>
       <use xlink:href="#m705b0ea202" x="54.545602" y="275.737013" style="fill: #262626; stroke: #262626"/>
      </g>
     </g>
     <g id="text_1">
      <!-- −1.00 -->
      <g style="fill: #262626" transform="translate(43.412915 290.335888) scale(0.088 -0.088)">
       <defs>
        <path id="ArialMT-2212" d="M 3381 1997 
L 356 1997 
L 356 2522 
L 3381 2522 
L 3381 1997 
z
" transform="scale(0.015625)"/>
        <path id="ArialMT-31" d="M 2384 0 
L 1822 0 
L 1822 3584 
Q 1619 3391 1289 3197 
Q 959 3003 697 2906 
L 697 3450 
Q 1169 3672 1522 3987 
Q 1875 4303 2022 4600 
L 2384 4600 
L 2384 0 
z
" transform="scale(0.015625)"/>
        <path id="ArialMT-2e" d="M 581 0 
L 581 641 
L 1222 641 
L 1222 0 
L 581 0 
z
" transform="scale(0.015625)"/>
        <path id="ArialMT-30" d="M 266 2259 
Q 266 3072 433 3567 
Q 600 4063 929 4331 
Q 1259 4600 1759 4600 
Q 2128 4600 2406 4451 
Q 2684 4303 2865 4023 
Q 3047 3744 3150 3342 
Q 3253 2941 3253 2259 
Q 3253 1453 3087 958 
Q 2922 463 2592 192 
Q 2263 -78 1759 -78 
Q 1097 -78 719 397 
Q 266 969 266 2259 
z
M 844 2259 
Q 844 1131 1108 757 
Q 1372 384 1759 384 
Q 2147 384 2411 759 
Q 2675 1134 2675 2259 
Q 2675 3391 2411 3762 
Q 2147 4134 1753 4134 
Q 1366 4134 1134 3806 
Q 844 3388 844 2259 
z
" transform="scale(0.015625)"/>
       </defs>
       <use xlink:href="#ArialMT-2212"/>
       <use xlink:href="#ArialMT-31" x="58.398438"/>
       <use xlink:href="#ArialMT-2e" x="114.013672"/>
       <use xlink:href="#ArialMT-30" x="141.796875"/>
       <use xlink:href="#ArialMT-30" x="197.412109"/>
      </g>
     </g>
    </g>
    <g id="xtick_2">
     <g id="line2d_2">
      <g>
       <use xlink:href="#m705b0ea202" x="95.12742" y="275.737013" style="fill: #262626; stroke: #262626"/>
      </g>
     </g>
     <g id="text_2">
      <!-- −0.75 -->
      <g style="fill: #262626" transform="translate(83.994733 290.335888) scale(0.088 -0.088)">
       <defs>
        <path id="ArialMT-37" d="M 303 3981 
L 303 4522 
L 3269 4522 
L 3269 4084 
Q 2831 3619 2401 2847 
Q 1972 2075 1738 1259 
Q 1569 684 1522 0 
L 944 0 
Q 953 541 1156 1306 
Q 1359 2072 1739 2783 
Q 2119 3494 2547 3981 
L 303 3981 
z
" transform="scale(0.015625)"/>
        <path id="ArialMT-35" d="M 266 1200 
L 856 1250 
Q 922 819 1161 601 
Q 1400 384 1738 384 
Q 2144 384 2425 690 
Q 2706 997 2706 1503 
Q 2706 1984 2436 2262 
Q 2166 2541 1728 2541 
Q 1456 2541 1237 2417 
Q 1019 2294 894 2097 
L 366 2166 
L 809 4519 
L 3088 4519 
L 3088 3981 
L 1259 3981 
L 1013 2750 
Q 1425 3038 1878 3038 
Q 2478 3038 2890 2622 
Q 3303 2206 3303 1553 
Q 3303 931 2941 478 
Q 2500 -78 1738 -78 
Q 1113 -78 717 272 
Q 322 622 266 1200 
z
" transform="scale(0.015625)"/>
       </defs>
       <use xlink:href="#ArialMT-2212"/>
       <use xlink:href="#ArialMT-30" x="58.398438"/>
       <use xlink:href="#ArialMT-2e" x="114.013672"/>
       <use xlink:href="#ArialMT-37" x="141.796875"/>
       <use xlink:href="#ArialMT-35" x="197.412109"/>
      </g>
     </g>
    </g>
    <g id="xtick_3">
     <g id="line2d_3">
      <g>
       <use xlink:href="#m705b0ea202" x="135.709239" y="275.737013" style="fill: #262626; stroke: #262626"/>
      </g>
     </g>
     <g id="text_3">
      <!-- −0.50 -->
      <g style="fill: #262626" transform="translate(124.576551 290.335888) scale(0.088 -0.088)">
       <use xlink:href="#ArialMT-2212"/>
       <use xlink:href="#ArialMT-30" x="58.398438"/>
       <use xlink:href="#ArialMT-2e" x="114.013672"/>
       <use xlink:href="#ArialMT-35" x="141.796875"/>
       <use xlink:href="#ArialMT-30" x="197.412109"/>
      </g>
     </g>
    </g>
    <g id="xtick_4">
     <g id="line2d_4">
      <g>
       <use xlink:href="#m705b0ea202" x="176.291057" y="275.737013" style="fill: #262626; stroke: #262626"/>
      </g>
     </g>
     <g id="text_4">
      <!-- −0.25 -->
      <g style="fill: #262626" transform="translate(165.158369 290.335888) scale(0.088 -0.088)">
       <defs>
        <path id="ArialMT-32" d="M 3222 541 
L 3222 0 
L 194 0 
Q 188 203 259 391 
Q 375 700 629 1000 
Q 884 1300 1366 1694 
Q 2113 2306 2375 2664 
Q 2638 3022 2638 3341 
Q 2638 3675 2398 3904 
Q 2159 4134 1775 4134 
Q 1369 4134 1125 3890 
Q 881 3647 878 3216 
L 300 3275 
Q 359 3922 746 4261 
Q 1134 4600 1788 4600 
Q 2447 4600 2831 4234 
Q 3216 3869 3216 3328 
Q 3216 3053 3103 2787 
Q 2991 2522 2730 2228 
Q 2469 1934 1863 1422 
Q 1356 997 1212 845 
Q 1069 694 975 541 
L 3222 541 
z
" transform="scale(0.015625)"/>
       </defs>
       <use xlink:href="#ArialMT-2212"/>
       <use xlink:href="#ArialMT-30" x="58.398438"/>
       <use xlink:href="#ArialMT-2e" x="114.013672"/>
       <use xlink:href="#ArialMT-32" x="141.796875"/>
       <use xlink:href="#ArialMT-35" x="197.412109"/>
      </g>
     </g>
    </g>
    <g id="xtick_5">
     <g id="line2d_5">
      <g>
       <use xlink:href="#m705b0ea202" x="216.872875" y="275.737013" style="fill: #262626; stroke: #262626"/>
      </g>
     </g>
     <g id="text_5">
      <!-- 0.00 -->
      <g style="fill: #262626" transform="translate(208.310063 290.335888) scale(0.088 -0.088)">
       <use xlink:href="#ArialMT-30"/>
       <use xlink:href="#ArialMT-2e" x="55.615234"/>
       <use xlink:href="#ArialMT-30" x="83.398438"/>
       <use xlink:href="#ArialMT-30" x="139.013672"/>
      </g>
     </g>
    </g>
    <g id="xtick_6">
     <g id="line2d_6">
      <g>
       <use xlink:href="#m705b0ea202" x="257.454693" y="275.737013" style="fill: #262626; stroke: #262626"/>
      </g>
     </g>
     <g id="text_6">
      <!-- 0.25 -->
      <g style="fill: #262626" transform="translate(248.891881 290.335888) scale(0.088 -0.088)">
       <use xlink:href="#ArialMT-30"/>
       <use xlink:href="#ArialMT-2e" x="55.615234"/>
       <use xlink:href="#ArialMT-32" x="83.398438"/>
       <use xlink:href="#ArialMT-35" x="139.013672"/>
      </g>
     </g>
    </g>
    <g id="xtick_7">
     <g id="line2d_7">
      <g>
       <use xlink:href="#m705b0ea202" x="298.036511" y="275.737013" style="fill: #262626; stroke: #262626"/>
      </g>
     </g>
     <g id="text_7">
      <!-- 0.50 -->
      <g style="fill: #262626" transform="translate(289.473699 290.335888) scale(0.088 -0.088)">
       <use xlink:href="#ArialMT-30"/>
       <use xlink:href="#ArialMT-2e" x="55.615234"/>
       <use xlink:href="#ArialMT-35" x="83.398438"/>
       <use xlink:href="#ArialMT-30" x="139.013672"/>
      </g>
     </g>
    </g>
    <g id="xtick_8">
     <g id="line2d_8">
      <g>
       <use xlink:href="#m705b0ea202" x="338.61833" y="275.737013" style="fill: #262626; stroke: #262626"/>
      </g>
     </g>
     <g id="text_8">
      <!-- 0.75 -->
      <g style="fill: #262626" transform="translate(330.055517 290.335888) scale(0.088 -0.088)">
       <use xlink:href="#ArialMT-30"/>
       <use xlink:href="#ArialMT-2e" x="55.615234"/>
       <use xlink:href="#ArialMT-37" x="83.398438"/>
       <use xlink:href="#ArialMT-35" x="139.013672"/>
      </g>
     </g>
    </g>
    <g id="xtick_9">
     <g id="line2d_9">
      <g>
       <use xlink:href="#m705b0ea202" x="379.200148" y="275.737013" style="fill: #262626; stroke: #262626"/>
      </g>
     </g>
     <g id="text_9">
      <!-- 1.00 -->
      <g style="fill: #262626" transform="translate(370.637335 290.335888) scale(0.088 -0.088)">
       <use xlink:href="#ArialMT-31"/>
       <use xlink:href="#ArialMT-2e" x="55.615234"/>
       <use xlink:href="#ArialMT-30" x="83.398438"/>
       <use xlink:href="#ArialMT-30" x="139.013672"/>
      </g>
     </g>
    </g>
    <g id="text_10">
     <!-- $x$ -->
     <g style="fill: #262626" transform="translate(213.992875 302.956388) scale(0.096 -0.096)">
      <defs>
       <path id="DejaVuSans-Oblique-78" d="M 3841 3500 
L 2234 1784 
L 3219 0 
L 2559 0 
L 1819 1388 
L 531 0 
L -166 0 
L 1556 1844 
L 641 3500 
L 1300 3500 
L 1972 2234 
L 3144 3500 
L 3841 3500 
z
" transform="scale(0.015625)"/>
      </defs>
      <use xlink:href="#DejaVuSans-Oblique-78" transform="translate(0 0.3125)"/>
     </g>
    </g>
   </g>
   <g id="matplotlib.axis_2">
    <g id="ytick_1">
     <g id="line2d_10">
      <defs>
       <path id="md841282343" d="M 0 0 
L -4.8 0 
" style="stroke: #262626"/>
      </defs>
      <g>
       <use xlink:href="#md841282343" x="38.312875" y="257.903651" style="fill: #262626; stroke: #262626"/>
      </g>
     </g>
     <g id="text_11">
      <!-- −1 -->
      <g style="fill: #262626" transform="translate(19.9795 261.053088) scale(0.088 -0.088)">
       <use xlink:href="#ArialMT-2212"/>
       <use xlink:href="#ArialMT-31" x="58.398438"/>
      </g>
     </g>
    </g>
    <g id="ytick_2">
     <g id="line2d_11">
      <g>
       <use xlink:href="#md841282343" x="38.312875" y="208.392808" style="fill: #262626; stroke: #262626"/>
      </g>
     </g>
     <g id="text_12">
      <!-- 0 -->
      <g style="fill: #262626" transform="translate(25.11925 211.542246) scale(0.088 -0.088)">
       <use xlink:href="#ArialMT-30"/>
      </g>
     </g>
    </g>
    <g id="ytick_3">
     <g id="line2d_12">
      <g>
       <use xlink:href="#md841282343" x="38.312875" y="158.881965" style="fill: #262626; stroke: #262626"/>
      </g>
     </g>
     <g id="text_13">
      <!-- 1 -->
      <g style="fill: #262626" transform="translate(25.11925 162.031403) scale(0.088 -0.088)">
       <use xlink:href="#ArialMT-31"/>
      </g>
     </g>
    </g>
    <g id="ytick_4">
     <g id="line2d_13">
      <g>
       <use xlink:href="#md841282343" x="38.312875" y="109.371123" style="fill: #262626; stroke: #262626"/>
      </g>
     </g>
     <g id="text_14">
      <!-- 2 -->
      <g style="fill: #262626" transform="translate(25.11925 112.52056) scale(0.088 -0.088)">
       <use xlink:href="#ArialMT-32"/>
      </g>
     </g>
    </g>
    <g id="ytick_5">
     <g id="line2d_14">
      <g>
       <use xlink:href="#md841282343" x="38.312875" y="59.86028" style="fill: #262626; stroke: #262626"/>
      </g>
     </g>
     <g id="text_15">
      <!-- 3 -->
      <g style="fill: #262626" transform="translate(25.11925 63.009718) scale(0.088 -0.088)">
       <defs>
        <path id="ArialMT-33" d="M 269 1209 
L 831 1284 
Q 928 806 1161 595 
Q 1394 384 1728 384 
Q 2125 384 2398 659 
Q 2672 934 2672 1341 
Q 2672 1728 2419 1979 
Q 2166 2231 1775 2231 
Q 1616 2231 1378 2169 
L 1441 2663 
Q 1497 2656 1531 2656 
Q 1891 2656 2178 2843 
Q 2466 3031 2466 3422 
Q 2466 3731 2256 3934 
Q 2047 4138 1716 4138 
Q 1388 4138 1169 3931 
Q 950 3725 888 3313 
L 325 3413 
Q 428 3978 793 4289 
Q 1159 4600 1703 4600 
Q 2078 4600 2393 4439 
Q 2709 4278 2876 4000 
Q 3044 3722 3044 3409 
Q 3044 3113 2884 2869 
Q 2725 2625 2413 2481 
Q 2819 2388 3044 2092 
Q 3269 1797 3269 1353 
Q 3269 753 2831 336 
Q 2394 -81 1725 -81 
Q 1122 -81 723 278 
Q 325 638 269 1209 
z
" transform="scale(0.015625)"/>
       </defs>
       <use xlink:href="#ArialMT-33"/>
      </g>
     </g>
    </g>
    <g id="ytick_6">
     <g id="line2d_15">
      <g>
       <use xlink:href="#md841282343" x="38.312875" y="10.349438" style="fill: #262626; stroke: #262626"/>
      </g>
     </g>
     <g id="text_16">
      <!-- 4 -->
      <g style="fill: #262626" transform="translate(25.11925 13.498875) scale(0.088 -0.088)">
       <defs>
        <path id="ArialMT-34" d="M 2069 0 
L 2069 1097 
L 81 1097 
L 81 1613 
L 2172 4581 
L 2631 4581 
L 2631 1613 
L 3250 1613 
L 3250 1097 
L 2631 1097 
L 2631 0 
L 2069 0 
z
M 2069 1613 
L 2069 3678 
L 634 1613 
L 2069 1613 
z
" transform="scale(0.015625)"/>
       </defs>
       <use xlink:href="#ArialMT-34"/>
      </g>
     </g>
    </g>
    <g id="text_17">
     <!-- $y$ -->
     <g style="fill: #262626" transform="translate(13.9635 145.561013) rotate(-90) scale(0.096 -0.096)">
      <defs>
       <path id="DejaVuSans-Oblique-79" d="M 1588 -325 
Q 1188 -997 936 -1164 
Q 684 -1331 294 -1331 
L -159 -1331 
L -63 -850 
L 269 -850 
Q 509 -850 678 -719 
Q 847 -588 1056 -206 
L 1234 128 
L 459 3500 
L 1069 3500 
L 1650 819 
L 3256 3500 
L 3859 3500 
L 1588 -325 
z
" transform="scale(0.015625)"/>
      </defs>
      <use xlink:href="#DejaVuSans-Oblique-79" transform="translate(0 0.3125)"/>
     </g>
    </g>
   </g>
   <g id="PolyCollection_1">
    <defs>
     <path id="m2b6c392292" d="M 54.545602 -99.964651 
L 54.545602 -80.732009 
L 57.824941 -78.408858 
L 61.10428 -76.172365 
L 64.383619 -74.022527 
L 67.662958 -71.959346 
L 70.942296 -69.982822 
L 74.221635 -68.092954 
L 77.500974 -66.289742 
L 80.780313 -64.573187 
L 84.059652 -62.943289 
L 87.338991 -61.400047 
L 90.61833 -59.943461 
L 93.897668 -58.573532 
L 97.177007 -57.29026 
L 100.456346 -56.093644 
L 103.735685 -54.983684 
L 107.015024 -53.960381 
L 110.294363 -53.023734 
L 113.573701 -52.173744 
L 116.85304 -51.410411 
L 120.132379 -50.733733 
L 123.411718 -50.143713 
L 126.691057 -49.640349 
L 129.970396 -49.223641 
L 133.249735 -48.89359 
L 136.529073 -48.650195 
L 139.808412 -48.493457 
L 143.087751 -48.423375 
L 146.36709 -48.43995 
L 149.646429 -48.543181 
L 152.925768 -48.733069 
L 156.205106 -49.009613 
L 159.484445 -49.372813 
L 162.763784 -49.822671 
L 166.043123 -50.359184 
L 169.322462 -50.982354 
L 172.601801 -51.692181 
L 175.881139 -52.488664 
L 179.160478 -53.371804 
L 182.439817 -54.3416 
L 185.719156 -55.398052 
L 188.998495 -56.541161 
L 192.277834 -57.770927 
L 195.557173 -59.087349 
L 198.836511 -60.490427 
L 202.11585 -61.980162 
L 205.395189 -63.556554 
L 208.674528 -65.219602 
L 211.953867 -66.969306 
L 215.233206 -68.805667 
L 218.512544 -70.728685 
L 221.791883 -72.738358 
L 225.071222 -74.834689 
L 228.350561 -77.017676 
L 231.6299 -79.287319 
L 234.909239 -81.643619 
L 238.188577 -84.086575 
L 241.467916 -86.616188 
L 244.747255 -89.232457 
L 248.026594 -91.935383 
L 251.305933 -94.724965 
L 254.585272 -97.601204 
L 257.864611 -100.564099 
L 261.143949 -103.613651 
L 264.423288 -106.749859 
L 267.702627 -109.972724 
L 270.981966 -113.282245 
L 274.261305 -116.678423 
L 277.540644 -120.161257 
L 280.819982 -123.730748 
L 284.099321 -127.386895 
L 287.37866 -131.129698 
L 290.657999 -134.959158 
L 293.937338 -138.875275 
L 297.216677 -142.878048 
L 300.496015 -146.967478 
L 303.775354 -151.143564 
L 307.054693 -155.406306 
L 310.334032 -159.755705 
L 313.613371 -164.191761 
L 316.89271 -168.714473 
L 320.172049 -173.323841 
L 323.451387 -178.019866 
L 326.730726 -182.802548 
L 330.010065 -187.671885 
L 333.289404 -192.62788 
L 336.568743 -197.670531 
L 339.848082 -202.799838 
L 343.12742 -208.015802 
L 346.406759 -213.318422 
L 349.686098 -218.707699 
L 352.965437 -224.183632 
L 356.244776 -229.746222 
L 359.524115 -235.395469 
L 362.803454 -241.131371 
L 366.082792 -246.953931 
L 369.362131 -252.863146 
L 372.64147 -258.859019 
L 375.920809 -264.941547 
L 379.200148 -271.110733 
L 379.200148 -290.343375 
L 379.200148 -290.343375 
L 375.920809 -284.17419 
L 372.64147 -278.091661 
L 369.362131 -272.095789 
L 366.082792 -266.186573 
L 362.803454 -260.364014 
L 359.524115 -254.628111 
L 356.244776 -248.978865 
L 352.965437 -243.416275 
L 349.686098 -237.940342 
L 346.406759 -232.551065 
L 343.12742 -227.248444 
L 339.848082 -222.032481 
L 336.568743 -216.903173 
L 333.289404 -211.860522 
L 330.010065 -206.904528 
L 326.730726 -202.03519 
L 323.451387 -197.252509 
L 320.172049 -192.556484 
L 316.89271 -187.947115 
L 313.613371 -183.424403 
L 310.334032 -178.988348 
L 307.054693 -174.638949 
L 303.775354 -170.376206 
L 300.496015 -166.20012 
L 297.216677 -162.110691 
L 293.937338 -158.107918 
L 290.657999 -154.191801 
L 287.37866 -150.362341 
L 284.099321 -146.619537 
L 280.819982 -142.96339 
L 277.540644 -139.3939 
L 274.261305 -135.911065 
L 270.981966 -132.514888 
L 267.702627 -129.205367 
L 264.423288 -125.982502 
L 261.143949 -122.846294 
L 257.864611 -119.796742 
L 254.585272 -116.833847 
L 251.305933 -113.957608 
L 248.026594 -111.168026 
L 244.747255 -108.4651 
L 241.467916 -105.848831 
L 238.188577 -103.319218 
L 234.909239 -100.876261 
L 231.6299 -98.519962 
L 228.350561 -96.250318 
L 225.071222 -94.067331 
L 221.791883 -91.971001 
L 218.512544 -89.961327 
L 215.233206 -88.03831 
L 211.953867 -86.201949 
L 208.674528 -84.452244 
L 205.395189 -82.789196 
L 202.11585 -81.212805 
L 198.836511 -79.72307 
L 195.557173 -78.319991 
L 192.277834 -77.003569 
L 188.998495 -75.773804 
L 185.719156 -74.630695 
L 182.439817 -73.574242 
L 179.160478 -72.604446 
L 175.881139 -71.721307 
L 172.601801 -70.924824 
L 169.322462 -70.214997 
L 166.043123 -69.591827 
L 162.763784 -69.055313 
L 159.484445 -68.605456 
L 156.205106 -68.242255 
L 152.925768 -67.965711 
L 149.646429 -67.775823 
L 146.36709 -67.672592 
L 143.087751 -67.656017 
L 139.808412 -67.726099 
L 136.529073 -67.882837 
L 133.249735 -68.126232 
L 129.970396 -68.456283 
L 126.691057 -68.872991 
L 123.411718 -69.376355 
L 120.132379 -69.966376 
L 116.85304 -70.643053 
L 113.573701 -71.406387 
L 110.294363 -72.256377 
L 107.015024 -73.193024 
L 103.735685 -74.216327 
L 100.456346 -75.326286 
L 97.177007 -76.522902 
L 93.897668 -77.806175 
L 90.61833 -79.176104 
L 87.338991 -80.632689 
L 84.059652 -82.175931 
L 80.780313 -83.80583 
L 77.500974 -85.522385 
L 74.221635 -87.325596 
L 70.942296 -89.215464 
L 67.662958 -91.191989 
L 64.383619 -93.25517 
L 61.10428 -95.405007 
L 57.824941 -97.641501 
L 54.545602 -99.964651 
z
" style="stroke: #ffffff; stroke-opacity: 0.25; stroke-width: 0.8"/>
    </defs>
    <g clip-path="url(#pb6dc6fe6e3)">
     <use xlink:href="#m2b6c392292" x="0" y="312.064388" style="fill: #1f77b4; fill-opacity: 0.25; stroke: #ffffff; stroke-opacity: 0.25; stroke-width: 0.8"/>
    </g>
   </g>
   <g id="line2d_16">
    <path d="M 54.545602 221.716058 
L 57.824941 224.039208 
L 61.10428 226.275702 
L 64.383619 228.42554 
L 67.662958 230.488721 
L 70.942296 232.465245 
L 74.221635 234.355113 
L 77.500974 236.158324 
L 80.780313 237.874879 
L 84.059652 239.504778 
L 87.338991 241.04802 
L 90.61833 242.504605 
L 93.897668 243.874535 
L 97.177007 245.157807 
L 100.456346 246.354423 
L 103.735685 247.464383 
L 107.015024 248.487686 
L 110.294363 249.424332 
L 113.573701 250.274323 
L 116.85304 251.037656 
L 120.132379 251.714333 
L 123.411718 252.304354 
L 126.691057 252.807718 
L 129.970396 253.224426 
L 133.249735 253.554477 
L 136.529073 253.797872 
L 139.808412 253.95461 
L 143.087751 254.024692 
L 146.36709 254.008117 
L 149.646429 253.904886 
L 152.925768 253.714998 
L 156.205106 253.438454 
L 159.484445 253.075253 
L 162.763784 252.625396 
L 166.043123 252.088883 
L 169.322462 251.465712 
L 172.601801 250.755886 
L 175.881139 249.959403 
L 179.160478 249.076263 
L 182.439817 248.106467 
L 185.719156 247.050015 
L 188.998495 245.906905 
L 192.277834 244.67714 
L 195.557173 243.360718 
L 198.836511 241.957639 
L 202.11585 240.467904 
L 205.395189 238.891513 
L 208.674528 237.228465 
L 211.953867 235.478761 
L 215.233206 233.6424 
L 218.512544 231.719382 
L 221.791883 229.709708 
L 225.071222 227.613378 
L 228.350561 225.430391 
L 231.6299 223.160748 
L 234.909239 220.804448 
L 238.188577 218.361492 
L 241.467916 215.831879 
L 244.747255 213.215609 
L 248.026594 210.512684 
L 251.305933 207.723101 
L 254.585272 204.846863 
L 257.864611 201.883967 
L 261.143949 198.834416 
L 264.423288 195.698208 
L 267.702627 192.475343 
L 270.981966 189.165822 
L 274.261305 185.769644 
L 277.540644 182.28681 
L 280.819982 178.717319 
L 284.099321 175.061172 
L 287.37866 171.318368 
L 290.657999 167.488908 
L 293.937338 163.572792 
L 297.216677 159.570019 
L 300.496015 155.480589 
L 303.775354 151.304503 
L 307.054693 147.041761 
L 310.334032 142.692362 
L 313.613371 138.256306 
L 316.89271 133.733594 
L 320.172049 129.124226 
L 323.451387 124.428201 
L 326.730726 119.645519 
L 330.010065 114.776181 
L 333.289404 109.820187 
L 336.568743 104.777536 
L 339.848082 99.648229 
L 343.12742 94.432265 
L 346.406759 89.129645 
L 349.686098 83.740368 
L 352.965437 78.264434 
L 356.244776 72.701845 
L 359.524115 67.052598 
L 362.803454 61.316696 
L 366.082792 55.494136 
L 369.362131 49.58492 
L 372.64147 43.589048 
L 375.920809 37.50652 
L 379.200148 31.337334 
" clip-path="url(#pb6dc6fe6e3)" style="fill: none; stroke-dasharray: 4.44,1.92; stroke-dashoffset: 0; stroke: #1f77b4; stroke-width: 1.2"/>
   </g>
   <g id="line2d_17">
    <defs>
     <path id="m5b73afed4e" d="M -2.4 2.4 
L 2.4 -2.4 
M -2.4 -2.4 
L 2.4 2.4 
" style="stroke: #000000"/>
    </defs>
    <g clip-path="url(#pb6dc6fe6e3)">
     <use xlink:href="#m5b73afed4e" x="179.367285" y="248.177008" style="stroke: #000000"/>
     <use xlink:href="#m5b73afed4e" x="191.792412" y="248.56627" style="stroke: #000000"/>
     <use xlink:href="#m5b73afed4e" x="102.453003" y="252.645168" style="stroke: #000000"/>
     <use xlink:href="#m5b73afed4e" x="221.96759" y="225.4386" style="stroke: #000000"/>
     <use xlink:href="#m5b73afed4e" x="56.14902" y="218.603847" style="stroke: #000000"/>
     <use xlink:href="#m5b73afed4e" x="296.912339" y="153.947937" style="stroke: #000000"/>
     <use xlink:href="#m5b73afed4e" x="337.226992" y="112.708175" style="stroke: #000000"/>
     <use xlink:href="#m5b73afed4e" x="222.873965" y="232.353629" style="stroke: #000000"/>
     <use xlink:href="#m5b73afed4e" x="293.575383" y="159.68339" style="stroke: #000000"/>
     <use xlink:href="#m5b73afed4e" x="339.968697" y="97.456004" style="stroke: #000000"/>
    </g>
   </g>
   <g id="line2d_18">
    <path d="M 54.545602 233.148229 
L 57.824941 235.108255 
L 61.10428 236.987454 
L 64.383619 238.785828 
L 67.662958 240.503375 
L 70.942296 242.140098 
L 74.221635 243.695994 
L 77.500974 245.171064 
L 80.780313 246.565309 
L 84.059652 247.878728 
L 87.338991 249.111321 
L 90.61833 250.263089 
L 93.897668 251.33403 
L 97.177007 252.324146 
L 100.456346 253.233436 
L 103.735685 254.0619 
L 107.015024 254.809539 
L 110.294363 255.476351 
L 113.573701 256.062338 
L 116.85304 256.567499 
L 120.132379 256.991835 
L 123.411718 257.335344 
L 126.691057 257.598028 
L 129.970396 257.779886 
L 133.249735 257.880918 
L 136.529073 257.901125 
L 139.808412 257.840506 
L 143.087751 257.69906 
L 146.36709 257.47679 
L 149.646429 257.173693 
L 152.925768 256.78977 
L 156.205106 256.325022 
L 159.484445 255.779448 
L 162.763784 255.153048 
L 166.043123 254.445823 
L 169.322462 253.657771 
L 172.601801 252.788894 
L 175.881139 251.839191 
L 179.160478 250.808663 
L 182.439817 249.697308 
L 185.719156 248.505128 
L 188.998495 247.232122 
L 192.277834 245.87829 
L 195.557173 244.443632 
L 198.836511 242.928149 
L 202.11585 241.33184 
L 205.395189 239.654705 
L 208.674528 237.896744 
L 211.953867 236.057957 
L 215.233206 234.138345 
L 218.512544 232.137907 
L 221.791883 230.056643 
L 225.071222 227.894554 
L 228.350561 225.651638 
L 231.6299 223.327897 
L 234.909239 220.92333 
L 238.188577 218.437937 
L 241.467916 215.871719 
L 244.747255 213.224674 
L 248.026594 210.496804 
L 251.305933 207.688108 
L 254.585272 204.798587 
L 257.864611 201.828239 
L 261.143949 198.777066 
L 264.423288 195.645067 
L 267.702627 192.432242 
L 270.981966 189.138591 
L 274.261305 185.764115 
L 277.540644 182.308813 
L 280.819982 178.772685 
L 284.099321 175.155731 
L 287.37866 171.457952 
L 290.657999 167.679347 
L 293.937338 163.819915 
L 297.216677 159.879659 
L 300.496015 155.858576 
L 303.775354 151.756668 
L 307.054693 147.573933 
L 310.334032 143.310373 
L 313.613371 138.965988 
L 316.89271 134.540776 
L 320.172049 130.034739 
L 323.451387 125.447876 
L 326.730726 120.780187 
L 330.010065 116.031672 
L 333.289404 111.202332 
L 336.568743 106.292166 
L 339.848082 101.301174 
L 343.12742 96.229356 
L 346.406759 91.076712 
L 349.686098 85.843243 
L 352.965437 80.528948 
L 356.244776 75.133827 
L 359.524115 69.65788 
L 362.803454 64.101108 
L 366.082792 58.46351 
L 369.362131 52.745086 
L 372.64147 46.945836 
L 375.920809 41.06576 
L 379.200148 35.104859 
" clip-path="url(#pb6dc6fe6e3)" style="fill: none; stroke: #ff7f0e; stroke-width: 1.2; stroke-linecap: round"/>
   </g>
   <g id="patch_3">
    <path d="M 38.312875 257.903651 
L 38.312875 10.349438 
" style="fill: none; stroke: #262626; stroke-linejoin: miter; stroke-linecap: square"/>
   </g>
   <g id="patch_4">
    <path d="M 54.545602 275.737013 
L 379.200148 275.737013 
" style="fill: none; stroke: #262626; stroke-linejoin: miter; stroke-linecap: square"/>
   </g>
   <g id="legend_1">
    <g id="line2d_19">
     <path d="M 46.232875 20.763888 
L 55.032875 20.763888 
L 63.832875 20.763888 
" style="fill: none; stroke-dasharray: 4.44,1.92; stroke-dashoffset: 0; stroke: #1f77b4; stroke-width: 1.2"/>
    </g>
    <g id="text_18">
     <!-- Mean prediction -->
     <g style="fill: #262626" transform="translate(70.872875 23.843888) scale(0.088 -0.088)">
      <defs>
       <path id="ArialMT-4d" d="M 475 0 
L 475 4581 
L 1388 4581 
L 2472 1338 
Q 2622 884 2691 659 
Q 2769 909 2934 1394 
L 4031 4581 
L 4847 4581 
L 4847 0 
L 4263 0 
L 4263 3834 
L 2931 0 
L 2384 0 
L 1059 3900 
L 1059 0 
L 475 0 
z
" transform="scale(0.015625)"/>
       <path id="ArialMT-65" d="M 2694 1069 
L 3275 997 
Q 3138 488 2766 206 
Q 2394 -75 1816 -75 
Q 1088 -75 661 373 
Q 234 822 234 1631 
Q 234 2469 665 2931 
Q 1097 3394 1784 3394 
Q 2450 3394 2872 2941 
Q 3294 2488 3294 1666 
Q 3294 1616 3291 1516 
L 816 1516 
Q 847 969 1125 678 
Q 1403 388 1819 388 
Q 2128 388 2347 550 
Q 2566 713 2694 1069 
z
M 847 1978 
L 2700 1978 
Q 2663 2397 2488 2606 
Q 2219 2931 1791 2931 
Q 1403 2931 1139 2672 
Q 875 2413 847 1978 
z
" transform="scale(0.015625)"/>
       <path id="ArialMT-61" d="M 2588 409 
Q 2275 144 1986 34 
Q 1697 -75 1366 -75 
Q 819 -75 525 192 
Q 231 459 231 875 
Q 231 1119 342 1320 
Q 453 1522 633 1644 
Q 813 1766 1038 1828 
Q 1203 1872 1538 1913 
Q 2219 1994 2541 2106 
Q 2544 2222 2544 2253 
Q 2544 2597 2384 2738 
Q 2169 2928 1744 2928 
Q 1347 2928 1158 2789 
Q 969 2650 878 2297 
L 328 2372 
Q 403 2725 575 2942 
Q 747 3159 1072 3276 
Q 1397 3394 1825 3394 
Q 2250 3394 2515 3294 
Q 2781 3194 2906 3042 
Q 3031 2891 3081 2659 
Q 3109 2516 3109 2141 
L 3109 1391 
Q 3109 606 3145 398 
Q 3181 191 3288 0 
L 2700 0 
Q 2613 175 2588 409 
z
M 2541 1666 
Q 2234 1541 1622 1453 
Q 1275 1403 1131 1340 
Q 988 1278 909 1158 
Q 831 1038 831 891 
Q 831 666 1001 516 
Q 1172 366 1500 366 
Q 1825 366 2078 508 
Q 2331 650 2450 897 
Q 2541 1088 2541 1459 
L 2541 1666 
z
" transform="scale(0.015625)"/>
       <path id="ArialMT-6e" d="M 422 0 
L 422 3319 
L 928 3319 
L 928 2847 
Q 1294 3394 1984 3394 
Q 2284 3394 2536 3286 
Q 2788 3178 2913 3003 
Q 3038 2828 3088 2588 
Q 3119 2431 3119 2041 
L 3119 0 
L 2556 0 
L 2556 2019 
Q 2556 2363 2490 2533 
Q 2425 2703 2258 2804 
Q 2091 2906 1866 2906 
Q 1506 2906 1245 2678 
Q 984 2450 984 1813 
L 984 0 
L 422 0 
z
" transform="scale(0.015625)"/>
       <path id="ArialMT-20" transform="scale(0.015625)"/>
       <path id="ArialMT-70" d="M 422 -1272 
L 422 3319 
L 934 3319 
L 934 2888 
Q 1116 3141 1344 3267 
Q 1572 3394 1897 3394 
Q 2322 3394 2647 3175 
Q 2972 2956 3137 2557 
Q 3303 2159 3303 1684 
Q 3303 1175 3120 767 
Q 2938 359 2589 142 
Q 2241 -75 1856 -75 
Q 1575 -75 1351 44 
Q 1128 163 984 344 
L 984 -1272 
L 422 -1272 
z
M 931 1641 
Q 931 1000 1190 694 
Q 1450 388 1819 388 
Q 2194 388 2461 705 
Q 2728 1022 2728 1688 
Q 2728 2322 2467 2637 
Q 2206 2953 1844 2953 
Q 1484 2953 1207 2617 
Q 931 2281 931 1641 
z
" transform="scale(0.015625)"/>
       <path id="ArialMT-72" d="M 416 0 
L 416 3319 
L 922 3319 
L 922 2816 
Q 1116 3169 1280 3281 
Q 1444 3394 1641 3394 
Q 1925 3394 2219 3213 
L 2025 2691 
Q 1819 2813 1613 2813 
Q 1428 2813 1281 2702 
Q 1134 2591 1072 2394 
Q 978 2094 978 1738 
L 978 0 
L 416 0 
z
" transform="scale(0.015625)"/>
       <path id="ArialMT-64" d="M 2575 0 
L 2575 419 
Q 2259 -75 1647 -75 
Q 1250 -75 917 144 
Q 584 363 401 755 
Q 219 1147 219 1656 
Q 219 2153 384 2558 
Q 550 2963 881 3178 
Q 1213 3394 1622 3394 
Q 1922 3394 2156 3267 
Q 2391 3141 2538 2938 
L 2538 4581 
L 3097 4581 
L 3097 0 
L 2575 0 
z
M 797 1656 
Q 797 1019 1065 703 
Q 1334 388 1700 388 
Q 2069 388 2326 689 
Q 2584 991 2584 1609 
Q 2584 2291 2321 2609 
Q 2059 2928 1675 2928 
Q 1300 2928 1048 2622 
Q 797 2316 797 1656 
z
" transform="scale(0.015625)"/>
       <path id="ArialMT-69" d="M 425 3934 
L 425 4581 
L 988 4581 
L 988 3934 
L 425 3934 
z
M 425 0 
L 425 3319 
L 988 3319 
L 988 0 
L 425 0 
z
" transform="scale(0.015625)"/>
       <path id="ArialMT-63" d="M 2588 1216 
L 3141 1144 
Q 3050 572 2676 248 
Q 2303 -75 1759 -75 
Q 1078 -75 664 370 
Q 250 816 250 1647 
Q 250 2184 428 2587 
Q 606 2991 970 3192 
Q 1334 3394 1763 3394 
Q 2303 3394 2647 3120 
Q 2991 2847 3088 2344 
L 2541 2259 
Q 2463 2594 2264 2762 
Q 2066 2931 1784 2931 
Q 1359 2931 1093 2626 
Q 828 2322 828 1663 
Q 828 994 1084 691 
Q 1341 388 1753 388 
Q 2084 388 2306 591 
Q 2528 794 2588 1216 
z
" transform="scale(0.015625)"/>
       <path id="ArialMT-74" d="M 1650 503 
L 1731 6 
Q 1494 -44 1306 -44 
Q 1000 -44 831 53 
Q 663 150 594 308 
Q 525 466 525 972 
L 525 2881 
L 113 2881 
L 113 3319 
L 525 3319 
L 525 4141 
L 1084 4478 
L 1084 3319 
L 1650 3319 
L 1650 2881 
L 1084 2881 
L 1084 941 
Q 1084 700 1114 631 
Q 1144 563 1211 522 
Q 1278 481 1403 481 
Q 1497 481 1650 503 
z
" transform="scale(0.015625)"/>
       <path id="ArialMT-6f" d="M 213 1659 
Q 213 2581 725 3025 
Q 1153 3394 1769 3394 
Q 2453 3394 2887 2945 
Q 3322 2497 3322 1706 
Q 3322 1066 3130 698 
Q 2938 331 2570 128 
Q 2203 -75 1769 -75 
Q 1072 -75 642 372 
Q 213 819 213 1659 
z
M 791 1659 
Q 791 1022 1069 705 
Q 1347 388 1769 388 
Q 2188 388 2466 706 
Q 2744 1025 2744 1678 
Q 2744 2294 2464 2611 
Q 2184 2928 1769 2928 
Q 1347 2928 1069 2612 
Q 791 2297 791 1659 
z
" transform="scale(0.015625)"/>
      </defs>
      <use xlink:href="#ArialMT-4d"/>
      <use xlink:href="#ArialMT-65" x="83.300781"/>
      <use xlink:href="#ArialMT-61" x="138.916016"/>
      <use xlink:href="#ArialMT-6e" x="194.53125"/>
      <use xlink:href="#ArialMT-20" x="250.146484"/>
      <use xlink:href="#ArialMT-70" x="277.929688"/>
      <use xlink:href="#ArialMT-72" x="333.544922"/>
      <use xlink:href="#ArialMT-65" x="366.845703"/>
      <use xlink:href="#ArialMT-64" x="422.460938"/>
      <use xlink:href="#ArialMT-69" x="478.076172"/>
      <use xlink:href="#ArialMT-63" x="500.292969"/>
      <use xlink:href="#ArialMT-74" x="550.292969"/>
      <use xlink:href="#ArialMT-69" x="578.076172"/>
      <use xlink:href="#ArialMT-6f" x="600.292969"/>
      <use xlink:href="#ArialMT-6e" x="655.908203"/>
     </g>
    </g>
    <g id="patch_5">
     <path d="M 46.232875 36.291763 
L 63.832875 36.291763 
L 63.832875 30.131763 
L 46.232875 30.131763 
z
" style="fill: #1f77b4; fill-opacity: 0.25; stroke: #ffffff; stroke-opacity: 0.25; stroke-width: 0.8; stroke-linejoin: miter"/>
    </g>
    <g id="text_19">
     <!-- 95% credible interval -->
     <g style="fill: #262626" transform="translate(70.872875 36.291763) scale(0.088 -0.088)">
      <defs>
       <path id="ArialMT-39" d="M 350 1059 
L 891 1109 
Q 959 728 1153 556 
Q 1347 384 1650 384 
Q 1909 384 2104 503 
Q 2300 622 2425 820 
Q 2550 1019 2634 1356 
Q 2719 1694 2719 2044 
Q 2719 2081 2716 2156 
Q 2547 1888 2255 1720 
Q 1963 1553 1622 1553 
Q 1053 1553 659 1965 
Q 266 2378 266 3053 
Q 266 3750 677 4175 
Q 1088 4600 1706 4600 
Q 2153 4600 2523 4359 
Q 2894 4119 3086 3673 
Q 3278 3228 3278 2384 
Q 3278 1506 3087 986 
Q 2897 466 2520 194 
Q 2144 -78 1638 -78 
Q 1100 -78 759 220 
Q 419 519 350 1059 
z
M 2653 3081 
Q 2653 3566 2395 3850 
Q 2138 4134 1775 4134 
Q 1400 4134 1122 3828 
Q 844 3522 844 3034 
Q 844 2597 1108 2323 
Q 1372 2050 1759 2050 
Q 2150 2050 2401 2323 
Q 2653 2597 2653 3081 
z
" transform="scale(0.015625)"/>
       <path id="ArialMT-25" d="M 372 3481 
Q 372 3972 619 4315 
Q 866 4659 1334 4659 
Q 1766 4659 2048 4351 
Q 2331 4044 2331 3447 
Q 2331 2866 2045 2552 
Q 1759 2238 1341 2238 
Q 925 2238 648 2547 
Q 372 2856 372 3481 
z
M 1350 4272 
Q 1141 4272 1002 4090 
Q 863 3909 863 3425 
Q 863 2984 1003 2804 
Q 1144 2625 1350 2625 
Q 1563 2625 1702 2806 
Q 1841 2988 1841 3469 
Q 1841 3913 1700 4092 
Q 1559 4272 1350 4272 
z
M 1353 -169 
L 3859 4659 
L 4316 4659 
L 1819 -169 
L 1353 -169 
z
M 3334 1075 
Q 3334 1569 3581 1911 
Q 3828 2253 4300 2253 
Q 4731 2253 5014 1945 
Q 5297 1638 5297 1041 
Q 5297 459 5011 145 
Q 4725 -169 4303 -169 
Q 3888 -169 3611 142 
Q 3334 453 3334 1075 
z
M 4316 1866 
Q 4103 1866 3964 1684 
Q 3825 1503 3825 1019 
Q 3825 581 3965 400 
Q 4106 219 4313 219 
Q 4528 219 4667 400 
Q 4806 581 4806 1063 
Q 4806 1506 4665 1686 
Q 4525 1866 4316 1866 
z
" transform="scale(0.015625)"/>
       <path id="ArialMT-62" d="M 941 0 
L 419 0 
L 419 4581 
L 981 4581 
L 981 2947 
Q 1338 3394 1891 3394 
Q 2197 3394 2470 3270 
Q 2744 3147 2920 2923 
Q 3097 2700 3197 2384 
Q 3297 2069 3297 1709 
Q 3297 856 2875 390 
Q 2453 -75 1863 -75 
Q 1275 -75 941 416 
L 941 0 
z
M 934 1684 
Q 934 1088 1097 822 
Q 1363 388 1816 388 
Q 2184 388 2453 708 
Q 2722 1028 2722 1663 
Q 2722 2313 2464 2622 
Q 2206 2931 1841 2931 
Q 1472 2931 1203 2611 
Q 934 2291 934 1684 
z
" transform="scale(0.015625)"/>
       <path id="ArialMT-6c" d="M 409 0 
L 409 4581 
L 972 4581 
L 972 0 
L 409 0 
z
" transform="scale(0.015625)"/>
       <path id="ArialMT-76" d="M 1344 0 
L 81 3319 
L 675 3319 
L 1388 1331 
Q 1503 1009 1600 663 
Q 1675 925 1809 1294 
L 2547 3319 
L 3125 3319 
L 1869 0 
L 1344 0 
z
" transform="scale(0.015625)"/>
      </defs>
      <use xlink:href="#ArialMT-39"/>
      <use xlink:href="#ArialMT-35" x="55.615234"/>
      <use xlink:href="#ArialMT-25" x="111.230469"/>
      <use xlink:href="#ArialMT-20" x="200.146484"/>
      <use xlink:href="#ArialMT-63" x="227.929688"/>
      <use xlink:href="#ArialMT-72" x="277.929688"/>
      <use xlink:href="#ArialMT-65" x="311.230469"/>
      <use xlink:href="#ArialMT-64" x="366.845703"/>
      <use xlink:href="#ArialMT-69" x="422.460938"/>
      <use xlink:href="#ArialMT-62" x="444.677734"/>
      <use xlink:href="#ArialMT-6c" x="500.292969"/>
      <use xlink:href="#ArialMT-65" x="522.509766"/>
      <use xlink:href="#ArialMT-20" x="578.125"/>
      <use xlink:href="#ArialMT-69" x="605.908203"/>
      <use xlink:href="#ArialMT-6e" x="628.125"/>
      <use xlink:href="#ArialMT-74" x="683.740234"/>
      <use xlink:href="#ArialMT-65" x="711.523438"/>
      <use xlink:href="#ArialMT-72" x="767.138672"/>
      <use xlink:href="#ArialMT-76" x="800.439453"/>
      <use xlink:href="#ArialMT-61" x="850.439453"/>
      <use xlink:href="#ArialMT-6c" x="906.054688"/>
     </g>
    </g>
    <g id="line2d_20">
     <g>
      <use xlink:href="#m5b73afed4e" x="55.032875" y="45.659638" style="stroke: #000000"/>
     </g>
    </g>
    <g id="text_20">
     <!-- Observed data -->
     <g style="fill: #262626" transform="translate(70.872875 48.739638) scale(0.088 -0.088)">
      <defs>
       <path id="ArialMT-4f" d="M 309 2231 
Q 309 3372 921 4017 
Q 1534 4663 2503 4663 
Q 3138 4663 3647 4359 
Q 4156 4056 4423 3514 
Q 4691 2972 4691 2284 
Q 4691 1588 4409 1038 
Q 4128 488 3612 205 
Q 3097 -78 2500 -78 
Q 1853 -78 1343 234 
Q 834 547 571 1087 
Q 309 1628 309 2231 
z
M 934 2222 
Q 934 1394 1379 917 
Q 1825 441 2497 441 
Q 3181 441 3623 922 
Q 4066 1403 4066 2288 
Q 4066 2847 3877 3264 
Q 3688 3681 3323 3911 
Q 2959 4141 2506 4141 
Q 1863 4141 1398 3698 
Q 934 3256 934 2222 
z
" transform="scale(0.015625)"/>
       <path id="ArialMT-73" d="M 197 991 
L 753 1078 
Q 800 744 1014 566 
Q 1228 388 1613 388 
Q 2000 388 2187 545 
Q 2375 703 2375 916 
Q 2375 1106 2209 1216 
Q 2094 1291 1634 1406 
Q 1016 1563 777 1677 
Q 538 1791 414 1992 
Q 291 2194 291 2438 
Q 291 2659 392 2848 
Q 494 3038 669 3163 
Q 800 3259 1026 3326 
Q 1253 3394 1513 3394 
Q 1903 3394 2198 3281 
Q 2494 3169 2634 2976 
Q 2775 2784 2828 2463 
L 2278 2388 
Q 2241 2644 2061 2787 
Q 1881 2931 1553 2931 
Q 1166 2931 1000 2803 
Q 834 2675 834 2503 
Q 834 2394 903 2306 
Q 972 2216 1119 2156 
Q 1203 2125 1616 2013 
Q 2213 1853 2448 1751 
Q 2684 1650 2818 1456 
Q 2953 1263 2953 975 
Q 2953 694 2789 445 
Q 2625 197 2315 61 
Q 2006 -75 1616 -75 
Q 969 -75 630 194 
Q 291 463 197 991 
z
" transform="scale(0.015625)"/>
      </defs>
      <use xlink:href="#ArialMT-4f"/>
      <use xlink:href="#ArialMT-62" x="77.783203"/>
      <use xlink:href="#ArialMT-73" x="133.398438"/>
      <use xlink:href="#ArialMT-65" x="183.398438"/>
      <use xlink:href="#ArialMT-72" x="239.013672"/>
      <use xlink:href="#ArialMT-76" x="272.314453"/>
      <use xlink:href="#ArialMT-65" x="322.314453"/>
      <use xlink:href="#ArialMT-64" x="377.929688"/>
      <use xlink:href="#ArialMT-20" x="433.544922"/>
      <use xlink:href="#ArialMT-64" x="461.328125"/>
      <use xlink:href="#ArialMT-61" x="516.943359"/>
      <use xlink:href="#ArialMT-74" x="572.558594"/>
      <use xlink:href="#ArialMT-61" x="600.341797"/>
     </g>
    </g>
    <g id="line2d_21">
     <path d="M 46.232875 58.214763 
L 55.032875 58.214763 
L 63.832875 58.214763 
" style="fill: none; stroke: #ff7f0e; stroke-width: 1.2; stroke-linecap: round"/>
    </g>
    <g id="text_21">
     <!-- True response surface -->
     <g style="fill: #262626" transform="translate(70.872875 61.294763) scale(0.088 -0.088)">
      <defs>
       <path id="ArialMT-54" d="M 1659 0 
L 1659 4041 
L 150 4041 
L 150 4581 
L 3781 4581 
L 3781 4041 
L 2266 4041 
L 2266 0 
L 1659 0 
z
" transform="scale(0.015625)"/>
       <path id="ArialMT-75" d="M 2597 0 
L 2597 488 
Q 2209 -75 1544 -75 
Q 1250 -75 995 37 
Q 741 150 617 320 
Q 494 491 444 738 
Q 409 903 409 1263 
L 409 3319 
L 972 3319 
L 972 1478 
Q 972 1038 1006 884 
Q 1059 663 1231 536 
Q 1403 409 1656 409 
Q 1909 409 2131 539 
Q 2353 669 2445 892 
Q 2538 1116 2538 1541 
L 2538 3319 
L 3100 3319 
L 3100 0 
L 2597 0 
z
" transform="scale(0.015625)"/>
       <path id="ArialMT-66" d="M 556 0 
L 556 2881 
L 59 2881 
L 59 3319 
L 556 3319 
L 556 3672 
Q 556 4006 616 4169 
Q 697 4388 901 4523 
Q 1106 4659 1475 4659 
Q 1713 4659 2000 4603 
L 1916 4113 
Q 1741 4144 1584 4144 
Q 1328 4144 1222 4034 
Q 1116 3925 1116 3625 
L 1116 3319 
L 1763 3319 
L 1763 2881 
L 1116 2881 
L 1116 0 
L 556 0 
z
" transform="scale(0.015625)"/>
      </defs>
      <use xlink:href="#ArialMT-54"/>
      <use xlink:href="#ArialMT-72" x="57.333984"/>
      <use xlink:href="#ArialMT-75" x="90.634766"/>
      <use xlink:href="#ArialMT-65" x="146.25"/>
      <use xlink:href="#ArialMT-20" x="201.865234"/>
      <use xlink:href="#ArialMT-72" x="229.648438"/>
      <use xlink:href="#ArialMT-65" x="262.949219"/>
      <use xlink:href="#ArialMT-73" x="318.564453"/>
      <use xlink:href="#ArialMT-70" x="368.564453"/>
      <use xlink:href="#ArialMT-6f" x="424.179688"/>
      <use xlink:href="#ArialMT-6e" x="479.794922"/>
      <use xlink:href="#ArialMT-73" x="535.410156"/>
      <use xlink:href="#ArialMT-65" x="585.410156"/>
      <use xlink:href="#ArialMT-20" x="641.025391"/>
      <use xlink:href="#ArialMT-73" x="668.808594"/>
      <use xlink:href="#ArialMT-75" x="718.808594"/>
      <use xlink:href="#ArialMT-72" x="774.423828"/>
      <use xlink:href="#ArialMT-66" x="807.724609"/>
      <use xlink:href="#ArialMT-61" x="835.507812"/>
      <use xlink:href="#ArialMT-63" x="891.123047"/>
      <use xlink:href="#ArialMT-65" x="941.123047"/>
     </g>
    </g>
   </g>
  </g>
 </g>
 <defs>
  <clipPath id="pb6dc6fe6e3">
   <rect x="38.312875" y="9.625013" width="357.12" height="266.112"/>
  </clipPath>
 </defs>
</svg>