<?xml version="1.0" encoding="utf-8" standalone="no"?>
<!DOCTYPE svg PUBLIC "-//W3C//DTD SVG 1.1//EN"
  "http://www.w3.org/Graphics/SVG/1.1/DTD/svg11.dtd">
<svg xmlns:xlink="http://www.w3.org/1999/xlink" width="392.052pt" height="322.510875pt" viewBox="0 0 392.052 322.510875" xmlns="http://www.w3.org/2000/svg" version="1.1">
 <metadata>
  <rdf:RDF xmlns:dc="http://purl.org/dc/elements/1.1/" xmlns:cc="http://creativecommons.org/ns#" xmlns:rdf="http://www.w3.org/1999/02/22-rdf-syntax-ns#">
   <cc:Work>
    <dc:type rdf:resource="http://purl.org/dc/dcmitype/StillImage"/>
    <dc:date>2023-09-16T21:45:30.894042</dc:date>
    <dc:format>image/svg+xml</dc:format>
    <dc:creator>
     <cc:Agent>
      <dc:title>Matplotlib v3.7.1, https://matplotlib.org/</dc:title>
     </cc:Agent>
    </dc:creator>
   </cc:Work>
  </rdf:RDF>
 </metadata>
 <defs>
  <style type="text/css">*{stroke-linejoin: round; stroke-linecap: butt}</style>
 </defs>
 <g id="figure_1">
  <g id="patch_1">
   <path d="M 0 322.510875 
L 392.052 322.510875 
L 392.052 0 
L 0 0 
z
" style="fill: #ffffff"/>
  </g>
  <g id="axes_1">
   <g id="patch_2">
    <path d="M 27.732 286.1835 
L 384.852 286.1835 
L 384.852 20.0715 
L 27.732 20.0715 
z
" style="fill: #ffffff"/>
   </g>
   <g id="matplotlib.axis_1">
    <g id="xtick_1">
     <g id="line2d_1">
      <defs>
       <path id="m4e83ee9b38" d="M 0 0 
L 0 4.8 
" style="stroke: #262626"/>
      </defs>
      <g>
       <use xlink:href="#m4e83ee9b38" x="43.964727" y="286.1835" style="fill: #262626; stroke: #262626"/>
      </g>
     </g>
     <g id="text_1">
      <!-- 0.0 -->
      <g style="fill: #262626" transform="translate(37.848727 300.782375) scale(0.088 -0.088)">
       <defs>
        <path id="ArialMT-30" d="M 266 2259 
Q 266 3072 433 3567 
Q 600 4063 929 4331 
Q 1259 4600 1759 4600 
Q 2128 4600 2406 4451 
Q 2684 4303 2865 4023 
Q 3047 3744 3150 3342 
Q 3253 2941 3253 2259 
Q 3253 1453 3087 958 
Q 2922 463 2592 192 
Q 2263 -78 1759 -78 
Q 1097 -78 719 397 
Q 266 969 266 2259 
z
M 844 2259 
Q 844 1131 1108 757 
Q 1372 384 1759 384 
Q 2147 384 2411 759 
Q 2675 1134 2675 2259 
Q 2675 3391 2411 3762 
Q 2147 4134 1753 4134 
Q 1366 4134 1134 3806 
Q 844 3388 844 2259 
z
" transform="scale(0.015625)"/>
        <path id="ArialMT-2e" d="M 581 0 
L 581 641 
L 1222 641 
L 1222 0 
L 581 0 
z
" transform="scale(0.015625)"/>
       </defs>
       <use xlink:href="#ArialMT-30"/>
       <use xlink:href="#ArialMT-2e" x="55.615234"/>
       <use xlink:href="#ArialMT-30" x="83.398438"/>
      </g>
     </g>
    </g>
    <g id="xtick_2">
     <g id="line2d_2">
      <g>
       <use xlink:href="#m4e83ee9b38" x="108.895636" y="286.1835" style="fill: #262626; stroke: #262626"/>
      </g>
     </g>
     <g id="text_2">
      <!-- 0.2 -->
      <g style="fill: #262626" transform="translate(102.779636 300.782375) scale(0.088 -0.088)">
       <defs>
        <path id="ArialMT-32" d="M 3222 541 
L 3222 0 
L 194 0 
Q 188 203 259 391 
Q 375 700 629 1000 
Q 884 1300 1366 1694 
Q 2113 2306 2375 2664 
Q 2638 3022 2638 3341 
Q 2638 3675 2398 3904 
Q 2159 4134 1775 4134 
Q 1369 4134 1125 3890 
Q 881 3647 878 3216 
L 300 3275 
Q 359 3922 746 4261 
Q 1134 4600 1788 4600 
Q 2447 4600 2831 4234 
Q 3216 3869 3216 3328 
Q 3216 3053 3103 2787 
Q 2991 2522 2730 2228 
Q 2469 1934 1863 1422 
Q 1356 997 1212 845 
Q 1069 694 975 541 
L 3222 541 
z
" transform="scale(0.015625)"/>
       </defs>
       <use xlink:href="#ArialMT-30"/>
       <use xlink:href="#ArialMT-2e" x="55.615234"/>
       <use xlink:href="#ArialMT-32" x="83.398438"/>
      </g>
     </g>
    </g>
    <g id="xtick_3">
     <g id="line2d_3">
      <g>
       <use xlink:href="#m4e83ee9b38" x="173.826545" y="286.1835" style="fill: #262626; stroke: #262626"/>
      </g>
     </g>
     <g id="text_3">
      <!-- 0.4 -->
      <g style="fill: #262626" transform="translate(167.710545 300.782375) scale(0.088 -0.088)">
       <defs>
        <path id="ArialMT-34" d="M 2069 0 
L 2069 1097 
L 81 1097 
L 81 1613 
L 2172 4581 
L 2631 4581 
L 2631 1613 
L 3250 1613 
L 3250 1097 
L 2631 1097 
L 2631 0 
L 2069 0 
z
M 2069 1613 
L 2069 3678 
L 634 1613 
L 2069 1613 
z
" transform="scale(0.015625)"/>
       </defs>
       <use xlink:href="#ArialMT-30"/>
       <use xlink:href="#ArialMT-2e" x="55.615234"/>
       <use xlink:href="#ArialMT-34" x="83.398438"/>
      </g>
     </g>
    </g>
    <g id="xtick_4">
     <g id="line2d_4">
      <g>
       <use xlink:href="#m4e83ee9b38" x="238.757455" y="286.1835" style="fill: #262626; stroke: #262626"/>
      </g>
     </g>
     <g id="text_4">
      <!-- 0.6 -->
      <g style="fill: #262626" transform="translate(232.641455 300.782375) scale(0.088 -0.088)">
       <defs>
        <path id="ArialMT-36" d="M 3184 3459 
L 2625 3416 
Q 2550 3747 2413 3897 
Q 2184 4138 1850 4138 
Q 1581 4138 1378 3988 
Q 1113 3794 959 3422 
Q 806 3050 800 2363 
Q 1003 2672 1297 2822 
Q 1591 2972 1913 2972 
Q 2475 2972 2870 2558 
Q 3266 2144 3266 1488 
Q 3266 1056 3080 686 
Q 2894 316 2569 119 
Q 2244 -78 1831 -78 
Q 1128 -78 684 439 
Q 241 956 241 2144 
Q 241 3472 731 4075 
Q 1159 4600 1884 4600 
Q 2425 4600 2770 4297 
Q 3116 3994 3184 3459 
z
M 888 1484 
Q 888 1194 1011 928 
Q 1134 663 1356 523 
Q 1578 384 1822 384 
Q 2178 384 2434 671 
Q 2691 959 2691 1453 
Q 2691 1928 2437 2201 
Q 2184 2475 1800 2475 
Q 1419 2475 1153 2201 
Q 888 1928 888 1484 
z
" transform="scale(0.015625)"/>
       </defs>
       <use xlink:href="#ArialMT-30"/>
       <use xlink:href="#ArialMT-2e" x="55.615234"/>
       <use xlink:href="#ArialMT-36" x="83.398438"/>
      </g>
     </g>
    </g>
    <g id="xtick_5">
     <g id="line2d_5">
      <g>
       <use xlink:href="#m4e83ee9b38" x="303.688364" y="286.1835" style="fill: #262626; stroke: #262626"/>
      </g>
     </g>
     <g id="text_5">
      <!-- 0.8 -->
      <g style="fill: #262626" transform="translate(297.572364 300.782375) scale(0.088 -0.088)">
       <defs>
        <path id="ArialMT-38" d="M 1131 2484 
Q 781 2613 612 2850 
Q 444 3088 444 3419 
Q 444 3919 803 4259 
Q 1163 4600 1759 4600 
Q 2359 4600 2725 4251 
Q 3091 3903 3091 3403 
Q 3091 3084 2923 2848 
Q 2756 2613 2416 2484 
Q 2838 2347 3058 2040 
Q 3278 1734 3278 1309 
Q 3278 722 2862 322 
Q 2447 -78 1769 -78 
Q 1091 -78 675 323 
Q 259 725 259 1325 
Q 259 1772 486 2073 
Q 713 2375 1131 2484 
z
M 1019 3438 
Q 1019 3113 1228 2906 
Q 1438 2700 1772 2700 
Q 2097 2700 2305 2904 
Q 2513 3109 2513 3406 
Q 2513 3716 2298 3927 
Q 2084 4138 1766 4138 
Q 1444 4138 1231 3931 
Q 1019 3725 1019 3438 
z
M 838 1322 
Q 838 1081 952 856 
Q 1066 631 1291 507 
Q 1516 384 1775 384 
Q 2178 384 2440 643 
Q 2703 903 2703 1303 
Q 2703 1709 2433 1975 
Q 2163 2241 1756 2241 
Q 1359 2241 1098 1978 
Q 838 1716 838 1322 
z
" transform="scale(0.015625)"/>
       </defs>
       <use xlink:href="#ArialMT-30"/>
       <use xlink:href="#ArialMT-2e" x="55.615234"/>
       <use xlink:href="#ArialMT-38" x="83.398438"/>
      </g>
     </g>
    </g>
    <g id="xtick_6">
     <g id="line2d_6">
      <g>
       <use xlink:href="#m4e83ee9b38" x="368.619273" y="286.1835" style="fill: #262626; stroke: #262626"/>
      </g>
     </g>
     <g id="text_6">
      <!-- 1.0 -->
      <g style="fill: #262626" transform="translate(362.503273 300.782375) scale(0.088 -0.088)">
       <defs>
        <path id="ArialMT-31" d="M 2384 0 
L 1822 0 
L 1822 3584 
Q 1619 3391 1289 3197 
Q 959 3003 697 2906 
L 697 3450 
Q 1169 3672 1522 3987 
Q 1875 4303 2022 4600 
L 2384 4600 
L 2384 0 
z
" transform="scale(0.015625)"/>
       </defs>
       <use xlink:href="#ArialMT-31"/>
       <use xlink:href="#ArialMT-2e" x="55.615234"/>
       <use xlink:href="#ArialMT-30" x="83.398438"/>
      </g>
     </g>
    </g>
    <g id="text_7">
     <!-- $\theta$ -->
     <g style="fill: #262626" transform="translate(203.316 313.402875) scale(0.096 -0.096)">
      <defs>
       <path id="DejaVuSans-Oblique-3b8" d="M 2913 2219 
L 925 2219 
Q 791 1284 928 888 
Q 1100 400 1566 400 
Q 2034 400 2391 891 
Q 2703 1322 2913 2219 
z
M 3009 2750 
Q 3094 3638 2984 3950 
Q 2813 4444 2353 4444 
Q 1875 4444 1525 3956 
Q 1250 3563 1034 2750 
L 3009 2750 
z
M 2444 4913 
Q 3194 4913 3494 4250 
Q 3794 3591 3566 2422 
Q 3341 1256 2781 594 
Q 2225 -72 1475 -72 
Q 722 -72 425 594 
Q 128 1256 353 2422 
Q 581 3591 1134 4250 
Q 1691 4913 2444 4913 
z
" transform="scale(0.015625)"/>
      </defs>
      <use xlink:href="#DejaVuSans-Oblique-3b8" transform="translate(0 0.234375)"/>
     </g>
    </g>
   </g>
   <g id="matplotlib.axis_2">
    <g id="ytick_1">
     <g id="line2d_7">
      <defs>
       <path id="m86e53ee145" d="M 0 0 
L -4.8 0 
" style="stroke: #262626"/>
      </defs>
      <g>
       <use xlink:href="#m86e53ee145" x="27.732" y="274.0875" style="fill: #262626; stroke: #262626"/>
      </g>
     </g>
     <g id="text_8">
      <!-- 0.0 -->
      <g style="fill: #262626" transform="translate(7.2 277.236937) scale(0.088 -0.088)">
       <use xlink:href="#ArialMT-30"/>
       <use xlink:href="#ArialMT-2e" x="55.615234"/>
       <use xlink:href="#ArialMT-30" x="83.398438"/>
      </g>
     </g>
    </g>
    <g id="ytick_2">
     <g id="line2d_8">
      <g>
       <use xlink:href="#m86e53ee145" x="27.732" y="224.865627" style="fill: #262626; stroke: #262626"/>
      </g>
     </g>
     <g id="text_9">
      <!-- 0.5 -->
      <g style="fill: #262626" transform="translate(7.2 228.015064) scale(0.088 -0.088)">
       <defs>
        <path id="ArialMT-35" d="M 266 1200 
L 856 1250 
Q 922 819 1161 601 
Q 1400 384 1738 384 
Q 2144 384 2425 690 
Q 2706 997 2706 1503 
Q 2706 1984 2436 2262 
Q 2166 2541 1728 2541 
Q 1456 2541 1237 2417 
Q 1019 2294 894 2097 
L 366 2166 
L 809 4519 
L 3088 4519 
L 3088 3981 
L 1259 3981 
L 1013 2750 
Q 1425 3038 1878 3038 
Q 2478 3038 2890 2622 
Q 3303 2206 3303 1553 
Q 3303 931 2941 478 
Q 2500 -78 1738 -78 
Q 1113 -78 717 272 
Q 322 622 266 1200 
z
" transform="scale(0.015625)"/>
       </defs>
       <use xlink:href="#ArialMT-30"/>
       <use xlink:href="#ArialMT-2e" x="55.615234"/>
       <use xlink:href="#ArialMT-35" x="83.398438"/>
      </g>
     </g>
    </g>
    <g id="ytick_3">
     <g id="line2d_9">
      <g>
       <use xlink:href="#m86e53ee145" x="27.732" y="175.643754" style="fill: #262626; stroke: #262626"/>
      </g>
     </g>
     <g id="text_10">
      <!-- 1.0 -->
      <g style="fill: #262626" transform="translate(7.2 178.793191) scale(0.088 -0.088)">
       <use xlink:href="#ArialMT-31"/>
       <use xlink:href="#ArialMT-2e" x="55.615234"/>
       <use xlink:href="#ArialMT-30" x="83.398438"/>
      </g>
     </g>
    </g>
    <g id="ytick_4">
     <g id="line2d_10">
      <g>
       <use xlink:href="#m86e53ee145" x="27.732" y="126.421881" style="fill: #262626; stroke: #262626"/>
      </g>
     </g>
     <g id="text_11">
      <!-- 1.5 -->
      <g style="fill: #262626" transform="translate(7.2 129.571318) scale(0.088 -0.088)">
       <use xlink:href="#ArialMT-31"/>
       <use xlink:href="#ArialMT-2e" x="55.615234"/>
       <use xlink:href="#ArialMT-35" x="83.398438"/>
      </g>
     </g>
    </g>
    <g id="ytick_5">
     <g id="line2d_11">
      <g>
       <use xlink:href="#m86e53ee145" x="27.732" y="77.200008" style="fill: #262626; stroke: #262626"/>
      </g>
     </g>
     <g id="text_12">
      <!-- 2.0 -->
      <g style="fill: #262626" transform="translate(7.2 80.349445) scale(0.088 -0.088)">
       <use xlink:href="#ArialMT-32"/>
       <use xlink:href="#ArialMT-2e" x="55.615234"/>
       <use xlink:href="#ArialMT-30" x="83.398438"/>
      </g>
     </g>
    </g>
    <g id="ytick_6">
     <g id="line2d_12">
      <g>
       <use xlink:href="#m86e53ee145" x="27.732" y="27.978135" style="fill: #262626; stroke: #262626"/>
      </g>
     </g>
     <g id="text_13">
      <!-- 2.5 -->
      <g style="fill: #262626" transform="translate(7.2 31.127572) scale(0.088 -0.088)">
       <use xlink:href="#ArialMT-32"/>
       <use xlink:href="#ArialMT-2e" x="55.615234"/>
       <use xlink:href="#ArialMT-35" x="83.398438"/>
      </g>
     </g>
    </g>
   </g>
   <g id="line2d_13">
    <defs>
     <path id="m79074e7db7" d="M 0 5 
C 1.326016 5 2.597899 4.473168 3.535534 3.535534 
C 4.473168 2.597899 5 1.326016 5 0 
C 5 -1.326016 4.473168 -2.597899 3.535534 -3.535534 
C 2.597899 -4.473168 1.326016 -5 0 -5 
C -1.326016 -5 -2.597899 -4.473168 -3.535534 -3.535534 
C -4.473168 -2.597899 -5 -1.326016 -5 0 
C -5 1.326016 -4.473168 2.597899 -3.535534 3.535534 
C -2.597899 4.473168 -1.326016 5 0 5 
z
" style="stroke: #1f77b4; stroke-width: 2"/>
    </defs>
    <g clip-path="url(#p59d269bf80)">
     <use xlink:href="#m79074e7db7" x="303.688364" y="274.0875" style="fill: #1f77b4; stroke: #1f77b4; stroke-width: 2"/>
    </g>
   </g>
   <g id="line2d_14">
    <path d="M 43.964727 274.0875 
L 47.244066 274.08747 
L 50.523405 274.087018 
L 53.802744 274.085085 
L 57.082083 274.079947 
L 60.361421 274.069255 
L 63.64076 274.05007 
L 66.920099 274.018902 
L 70.199438 273.971746 
L 73.478777 273.904123 
L 76.758116 273.811109 
L 80.037455 273.687383 
L 83.316793 273.527255 
L 86.596132 273.32471 
L 89.875471 273.073438 
L 93.15481 272.76688 
L 96.434149 272.39826 
L 99.713488 271.96062 
L 102.992826 271.446865 
L 106.272165 270.849791 
L 109.551504 270.162131 
L 112.830843 269.376586 
L 116.110182 268.485864 
L 119.389521 267.48272 
L 122.66886 266.359989 
L 125.948198 265.110625 
L 129.227537 263.727741 
L 132.506876 262.20464 
L 135.786215 260.53486 
L 139.065554 258.712205 
L 142.344893 256.730785 
L 145.624231 254.585053 
L 148.90357 252.269842 
L 152.182909 249.780402 
L 155.462248 247.112439 
L 158.741587 244.262149 
L 162.020926 241.226259 
L 165.300264 238.002061 
L 168.579603 234.587451 
L 171.858942 230.980967 
L 175.138281 227.181825 
L 178.41762 223.189955 
L 181.696959 219.006042 
L 184.976298 214.631558 
L 188.255636 210.068806 
L 191.534975 205.320951 
L 194.814314 200.392061 
L 198.093653 195.287142 
L 201.372992 190.012178 
L 204.652331 184.574165 
L 207.931669 178.981151 
L 211.211008 173.242271 
L 214.490347 167.367788 
L 217.769686 161.369124 
L 221.049025 155.258904 
L 224.328364 149.050989 
L 227.607702 142.760514 
L 230.887041 136.403928 
L 234.16638 129.999025 
L 237.445719 123.56499 
L 240.725058 117.122429 
L 244.004397 110.693408 
L 247.283736 104.301493 
L 250.563074 97.971784 
L 253.842413 91.730956 
L 257.121752 85.60729 
L 260.401091 79.630718 
L 263.68043 73.832853 
L 266.959769 68.247033 
L 270.239107 62.908353 
L 273.518446 57.853705 
L 276.797785 53.121813 
L 280.077124 48.753273 
L 283.356463 44.79059 
L 286.635802 41.278213 
L 289.91514 38.262573 
L 293.194479 35.792122 
L 296.473818 33.917369 
L 299.753157 32.690917 
L 303.032496 32.1675 
L 306.311835 32.404022 
L 309.591174 33.459593 
L 312.870512 35.395566 
L 316.149851 38.275574 
L 319.42919 42.16557 
L 322.708529 47.133861 
L 325.987868 53.251145 
L 329.267207 60.590553 
L 332.546545 69.22768 
L 335.825884 79.240627 
L 339.105223 90.710037 
L 342.384562 103.71913 
L 345.663901 118.353742 
L 348.94324 134.702366 
L 352.222579 152.856181 
L 355.501917 172.909096 
L 358.781256 194.957785 
L 362.060595 219.101726 
L 365.339934 245.443233 
L 368.619273 274.0875 
" clip-path="url(#p59d269bf80)" style="fill: none; stroke: #ff7f0e; stroke-width: 1.2; stroke-linecap: round"/>
   </g>
   <g id="line2d_15">
    <defs>
     <path id="m27d3241e3a" d="M -2.4 2.4 
L 2.4 -2.4 
M -2.4 -2.4 
L 2.4 2.4 
" style="stroke: #2ca02c; stroke-width: 2"/>
    </defs>
    <g clip-path="url(#p59d269bf80)">
     <use xlink:href="#m27d3241e3a" x="303.032496" y="274.0875" style="fill: #2ca02c; stroke: #2ca02c; stroke-width: 2"/>
    </g>
   </g>
   <g id="line2d_16">
    <defs>
     <path id="m5d0a9659e7" d="M -2.4 2.4 
L 2.4 2.4 
L 2.4 -2.4 
L -2.4 -2.4 
z
" style="stroke: #d62728; stroke-width: 2; stroke-linejoin: miter"/>
    </defs>
    <g clip-path="url(#p59d269bf80)">
     <use xlink:href="#m5d0a9659e7" x="275.860831" y="274.0875" style="fill: #d62728; stroke: #d62728; stroke-width: 2; stroke-linejoin: miter"/>
    </g>
   </g>
   <g id="line2d_17">
    <defs>
     <path id="mec614cddf3" d="M -0 3.394113 
L 2.036468 0 
L 0 -3.394113 
L -2.036468 -0 
z
" style="stroke: #9467bd; stroke-width: 2; stroke-linejoin: miter"/>
    </defs>
    <g clip-path="url(#p59d269bf80)">
     <use xlink:href="#mec614cddf3" x="282.764384" y="274.0875" style="fill: #9467bd; stroke: #9467bd; stroke-width: 2; stroke-linejoin: miter"/>
    </g>
   </g>
   <g id="patch_3">
    <path d="M 27.732 274.0875 
L 27.732 27.978135 
" style="fill: none; stroke: #262626; stroke-linejoin: miter; stroke-linecap: square"/>
   </g>
   <g id="patch_4">
    <path d="M 43.964727 286.1835 
L 368.619273 286.1835 
" style="fill: none; stroke: #262626; stroke-linejoin: miter; stroke-linecap: square"/>
   </g>
   <g id="text_14">
    <!-- $N=5$ -->
    <g style="fill: #262626" transform="translate(193.716 14.0715) scale(0.096 -0.096)">
     <defs>
      <path id="DejaVuSans-Oblique-4e" d="M 1081 4666 
L 1931 4666 
L 3219 666 
L 4000 4666 
L 4616 4666 
L 3706 0 
L 2853 0 
L 1569 4025 
L 788 0 
L 172 0 
L 1081 4666 
z
" transform="scale(0.015625)"/>
      <path id="DejaVuSans-3d" d="M 678 2906 
L 4684 2906 
L 4684 2381 
L 678 2381 
L 678 2906 
z
M 678 1631 
L 4684 1631 
L 4684 1100 
L 678 1100 
L 678 1631 
z
" transform="scale(0.015625)"/>
      <path id="DejaVuSans-35" d="M 691 4666 
L 3169 4666 
L 3169 4134 
L 1269 4134 
L 1269 2991 
Q 1406 3038 1543 3061 
Q 1681 3084 1819 3084 
Q 2600 3084 3056 2656 
Q 3513 2228 3513 1497 
Q 3513 744 3044 326 
Q 2575 -91 1722 -91 
Q 1428 -91 1123 -41 
Q 819 9 494 109 
L 494 744 
Q 775 591 1075 516 
Q 1375 441 1709 441 
Q 2250 441 2565 725 
Q 2881 1009 2881 1497 
Q 2881 1984 2565 2268 
Q 2250 2553 1709 2553 
Q 1456 2553 1204 2497 
Q 953 2441 691 2322 
L 691 4666 
z
" transform="scale(0.015625)"/>
     </defs>
     <use xlink:href="#DejaVuSans-Oblique-4e" transform="translate(0 0.09375)"/>
     <use xlink:href="#DejaVuSans-3d" transform="translate(94.287109 0.09375)"/>
     <use xlink:href="#DejaVuSans-35" transform="translate(197.558594 0.09375)"/>
    </g>
   </g>
   <g id="legend_1">
    <g id="line2d_18">
     <g>
      <use xlink:href="#m79074e7db7" x="44.452" y="31.210375" style="fill: #1f77b4; stroke: #1f77b4; stroke-width: 2"/>
     </g>
    </g>
    <g id="text_15">
     <!-- True value -->
     <g style="fill: #262626" transform="translate(60.292 34.290375) scale(0.088 -0.088)">
      <defs>
       <path id="ArialMT-54" d="M 1659 0 
L 1659 4041 
L 150 4041 
L 150 4581 
L 3781 4581 
L 3781 4041 
L 2266 4041 
L 2266 0 
L 1659 0 
z
" transform="scale(0.015625)"/>
       <path id="ArialMT-72" d="M 416 0 
L 416 3319 
L 922 3319 
L 922 2816 
Q 1116 3169 1280 3281 
Q 1444 3394 1641 3394 
Q 1925 3394 2219 3213 
L 2025 2691 
Q 1819 2813 1613 2813 
Q 1428 2813 1281 2702 
Q 1134 2591 1072 2394 
Q 978 2094 978 1738 
L 978 0 
L 416 0 
z
" transform="scale(0.015625)"/>
       <path id="ArialMT-75" d="M 2597 0 
L 2597 488 
Q 2209 -75 1544 -75 
Q 1250 -75 995 37 
Q 741 150 617 320 
Q 494 491 444 738 
Q 409 903 409 1263 
L 409 3319 
L 972 3319 
L 972 1478 
Q 972 1038 1006 884 
Q 1059 663 1231 536 
Q 1403 409 1656 409 
Q 1909 409 2131 539 
Q 2353 669 2445 892 
Q 2538 1116 2538 1541 
L 2538 3319 
L 3100 3319 
L 3100 0 
L 2597 0 
z
" transform="scale(0.015625)"/>
       <path id="ArialMT-65" d="M 2694 1069 
L 3275 997 
Q 3138 488 2766 206 
Q 2394 -75 1816 -75 
Q 1088 -75 661 373 
Q 234 822 234 1631 
Q 234 2469 665 2931 
Q 1097 3394 1784 3394 
Q 2450 3394 2872 2941 
Q 3294 2488 3294 1666 
Q 3294 1616 3291 1516 
L 816 1516 
Q 847 969 1125 678 
Q 1403 388 1819 388 
Q 2128 388 2347 550 
Q 2566 713 2694 1069 
z
M 847 1978 
L 2700 1978 
Q 2663 2397 2488 2606 
Q 2219 2931 1791 2931 
Q 1403 2931 1139 2672 
Q 875 2413 847 1978 
z
" transform="scale(0.015625)"/>
       <path id="ArialMT-20" transform="scale(0.015625)"/>
       <path id="ArialMT-76" d="M 1344 0 
L 81 3319 
L 675 3319 
L 1388 1331 
Q 1503 1009 1600 663 
Q 1675 925 1809 1294 
L 2547 3319 
L 3125 3319 
L 1869 0 
L 1344 0 
z
" transform="scale(0.015625)"/>
       <path id="ArialMT-61" d="M 2588 409 
Q 2275 144 1986 34 
Q 1697 -75 1366 -75 
Q 819 -75 525 192 
Q 231 459 231 875 
Q 231 1119 342 1320 
Q 453 1522 633 1644 
Q 813 1766 1038 1828 
Q 1203 1872 1538 1913 
Q 2219 1994 2541 2106 
Q 2544 2222 2544 2253 
Q 2544 2597 2384 2738 
Q 2169 2928 1744 2928 
Q 1347 2928 1158 2789 
Q 969 2650 878 2297 
L 328 2372 
Q 403 2725 575 2942 
Q 747 3159 1072 3276 
Q 1397 3394 1825 3394 
Q 2250 3394 2515 3294 
Q 2781 3194 2906 3042 
Q 3031 2891 3081 2659 
Q 3109 2516 3109 2141 
L 3109 1391 
Q 3109 606 3145 398 
Q 3181 191 3288 0 
L 2700 0 
Q 2613 175 2588 409 
z
M 2541 1666 
Q 2234 1541 1622 1453 
Q 1275 1403 1131 1340 
Q 988 1278 909 1158 
Q 831 1038 831 891 
Q 831 666 1001 516 
Q 1172 366 1500 366 
Q 1825 366 2078 508 
Q 2331 650 2450 897 
Q 2541 1088 2541 1459 
L 2541 1666 
z
" transform="scale(0.015625)"/>
       <path id="ArialMT-6c" d="M 409 0 
L 409 4581 
L 972 4581 
L 972 0 
L 409 0 
z
" transform="scale(0.015625)"/>
      </defs>
      <use xlink:href="#ArialMT-54"/>
      <use xlink:href="#ArialMT-72" x="57.333984"/>
      <use xlink:href="#ArialMT-75" x="90.634766"/>
      <use xlink:href="#ArialMT-65" x="146.25"/>
      <use xlink:href="#ArialMT-20" x="201.865234"/>
      <use xlink:href="#ArialMT-76" x="229.648438"/>
      <use xlink:href="#ArialMT-61" x="279.648438"/>
      <use xlink:href="#ArialMT-6c" x="335.263672"/>
      <use xlink:href="#ArialMT-75" x="357.480469"/>
      <use xlink:href="#ArialMT-65" x="413.095703"/>
     </g>
    </g>
    <g id="line2d_19">
     <path d="M 35.652 44.135375 
L 44.452 44.135375 
L 53.252 44.135375 
" style="fill: none; stroke: #ff7f0e; stroke-width: 1.2; stroke-linecap: round"/>
    </g>
    <g id="text_16">
     <!-- $p(\theta|x_{1:N})$ -->
     <g style="fill: #262626" transform="translate(60.292 47.215375) scale(0.088 -0.088)">
      <defs>
       <path id="DejaVuSans-Oblique-70" d="M 3175 2156 
Q 3175 2616 2975 2859 
Q 2775 3103 2400 3103 
Q 2144 3103 1911 2972 
Q 1678 2841 1497 2591 
Q 1319 2344 1212 1994 
Q 1106 1644 1106 1300 
Q 1106 863 1306 627 
Q 1506 391 1875 391 
Q 2147 391 2380 519 
Q 2613 647 2778 891 
Q 2956 1147 3065 1494 
Q 3175 1841 3175 2156 
z
M 1394 2969 
Q 1625 3272 1939 3428 
Q 2253 3584 2638 3584 
Q 3175 3584 3472 3232 
Q 3769 2881 3769 2247 
Q 3769 1728 3584 1258 
Q 3400 788 3053 416 
Q 2822 169 2531 39 
Q 2241 -91 1919 -91 
Q 1547 -91 1294 64 
Q 1041 219 916 525 
L 556 -1331 
L -19 -1331 
L 922 3500 
L 1497 3500 
L 1394 2969 
z
" transform="scale(0.015625)"/>
       <path id="DejaVuSans-28" d="M 1984 4856 
Q 1566 4138 1362 3434 
Q 1159 2731 1159 2009 
Q 1159 1288 1364 580 
Q 1569 -128 1984 -844 
L 1484 -844 
Q 1016 -109 783 600 
Q 550 1309 550 2009 
Q 550 2706 781 3412 
Q 1013 4119 1484 4856 
L 1984 4856 
z
" transform="scale(0.015625)"/>
       <path id="DejaVuSans-7c" d="M 1344 4891 
L 1344 -1509 
L 813 -1509 
L 813 4891 
L 1344 4891 
z
" transform="scale(0.015625)"/>
       <path id="DejaVuSans-Oblique-78" d="M 3841 3500 
L 2234 1784 
L 3219 0 
L 2559 0 
L 1819 1388 
L 531 0 
L -166 0 
L 1556 1844 
L 641 3500 
L 1300 3500 
L 1972 2234 
L 3144 3500 
L 3841 3500 
z
" transform="scale(0.015625)"/>
       <path id="DejaVuSans-31" d="M 794 531 
L 1825 531 
L 1825 4091 
L 703 3866 
L 703 4441 
L 1819 4666 
L 2450 4666 
L 2450 531 
L 3481 531 
L 3481 0 
L 794 0 
L 794 531 
z
" transform="scale(0.015625)"/>
       <path id="DejaVuSans-3a" d="M 750 794 
L 1409 794 
L 1409 0 
L 750 0 
L 750 794 
z
M 750 3309 
L 1409 3309 
L 1409 2516 
L 750 2516 
L 750 3309 
z
" transform="scale(0.015625)"/>
       <path id="DejaVuSans-29" d="M 513 4856 
L 1013 4856 
Q 1481 4119 1714 3412 
Q 1947 2706 1947 2009 
Q 1947 1309 1714 600 
Q 1481 -109 1013 -844 
L 513 -844 
Q 928 -128 1133 580 
Q 1338 1288 1338 2009 
Q 1338 2731 1133 3434 
Q 928 4138 513 4856 
z
" transform="scale(0.015625)"/>
      </defs>
      <use xlink:href="#DejaVuSans-Oblique-70" transform="translate(0 0.234375)"/>
      <use xlink:href="#DejaVuSans-28" transform="translate(63.476562 0.234375)"/>
      <use xlink:href="#DejaVuSans-Oblique-3b8" transform="translate(102.490234 0.234375)"/>
      <use xlink:href="#DejaVuSans-7c" transform="translate(163.671875 0.234375)"/>
      <use xlink:href="#DejaVuSans-Oblique-78" transform="translate(197.363281 0.234375)"/>
      <use xlink:href="#DejaVuSans-31" transform="translate(256.542969 -16.171875) scale(0.7)"/>
      <use xlink:href="#DejaVuSans-3a" transform="translate(314.716797 -16.171875) scale(0.7)"/>
      <use xlink:href="#DejaVuSans-Oblique-4e" transform="translate(351.938477 -16.171875) scale(0.7)"/>
      <use xlink:href="#DejaVuSans-29" transform="translate(407.036133 0.234375)"/>
     </g>
    </g>
    <g id="line2d_20">
     <g>
      <use xlink:href="#m27d3241e3a" x="44.452" y="58.655375" style="fill: #2ca02c; stroke: #2ca02c; stroke-width: 2"/>
     </g>
    </g>
    <g id="text_17">
     <!-- $\theta^*_{01}$ -->
     <g style="fill: #262626" transform="translate(60.292 61.735375) scale(0.088 -0.088)">
      <defs>
       <path id="DejaVuSans-2a" d="M 3009 3897 
L 1888 3291 
L 3009 2681 
L 2828 2375 
L 1778 3009 
L 1778 1831 
L 1422 1831 
L 1422 3009 
L 372 2375 
L 191 2681 
L 1313 3291 
L 191 3897 
L 372 4206 
L 1422 3572 
L 1422 4750 
L 1778 4750 
L 1778 3572 
L 2828 4206 
L 3009 3897 
z
" transform="scale(0.015625)"/>
       <path id="DejaVuSans-30" d="M 2034 4250 
Q 1547 4250 1301 3770 
Q 1056 3291 1056 2328 
Q 1056 1369 1301 889 
Q 1547 409 2034 409 
Q 2525 409 2770 889 
Q 3016 1369 3016 2328 
Q 3016 3291 2770 3770 
Q 2525 4250 2034 4250 
z
M 2034 4750 
Q 2819 4750 3233 4129 
Q 3647 3509 3647 2328 
Q 3647 1150 3233 529 
Q 2819 -91 2034 -91 
Q 1250 -91 836 529 
Q 422 1150 422 2328 
Q 422 3509 836 4129 
Q 1250 4750 2034 4750 
z
" transform="scale(0.015625)"/>
      </defs>
      <use xlink:href="#DejaVuSans-Oblique-3b8" transform="translate(0 0.765625)"/>
      <use xlink:href="#DejaVuSans-2a" transform="translate(82.376419 39.046875) scale(0.7)"/>
      <use xlink:href="#DejaVuSans-30" transform="translate(61.181641 -26.578125) scale(0.7)"/>
      <use xlink:href="#DejaVuSans-31" transform="translate(105.717773 -26.578125) scale(0.7)"/>
     </g>
    </g>
    <g id="line2d_21">
     <g>
      <use xlink:href="#m5d0a9659e7" x="44.452" y="73.615375" style="fill: #d62728; stroke: #d62728; stroke-width: 2; stroke-linejoin: miter"/>
     </g>
    </g>
    <g id="text_18">
     <!-- $\theta^*_{2}$ -->
     <g style="fill: #262626" transform="translate(60.292 76.695375) scale(0.088 -0.088)">
      <defs>
       <path id="DejaVuSans-32" d="M 1228 531 
L 3431 531 
L 3431 0 
L 469 0 
L 469 531 
Q 828 903 1448 1529 
Q 2069 2156 2228 2338 
Q 2531 2678 2651 2914 
Q 2772 3150 2772 3378 
Q 2772 3750 2511 3984 
Q 2250 4219 1831 4219 
Q 1534 4219 1204 4116 
Q 875 4013 500 3803 
L 500 4441 
Q 881 4594 1212 4672 
Q 1544 4750 1819 4750 
Q 2544 4750 2975 4387 
Q 3406 4025 3406 3419 
Q 3406 3131 3298 2873 
Q 3191 2616 2906 2266 
Q 2828 2175 2409 1742 
Q 1991 1309 1228 531 
z
" transform="scale(0.015625)"/>
      </defs>
      <use xlink:href="#DejaVuSans-Oblique-3b8" transform="translate(0 0.765625)"/>
      <use xlink:href="#DejaVuSans-2a" transform="translate(82.376419 39.046875) scale(0.7)"/>
      <use xlink:href="#DejaVuSans-32" transform="translate(61.181641 -26.578125) scale(0.7)"/>
     </g>
    </g>
    <g id="line2d_22">
     <g>
      <use xlink:href="#mec614cddf3" x="44.452" y="88.487375" style="fill: #9467bd; stroke: #9467bd; stroke-width: 2; stroke-linejoin: miter"/>
     </g>
    </g>
    <g id="text_19">
     <!-- $\theta^*_{1}$ -->
     <g style="fill: #262626" transform="translate(60.292 91.567375) scale(0.088 -0.088)">
      <use xlink:href="#DejaVuSans-Oblique-3b8" transform="translate(0 0.765625)"/>
      <use xlink:href="#DejaVuSans-2a" transform="translate(82.376419 39.046875) scale(0.7)"/>
      <use xlink:href="#DejaVuSans-31" transform="translate(61.181641 -26.578125) scale(0.7)"/>
     </g>
    </g>
   </g>
  </g>
 </g>
 <defs>
  <clipPath id="p59d269bf80">
   <rect x="27.732" y="20.0715" width="357.12" height="266.112"/>
  </clipPath>
 </defs>
</svg>