<?xml version="1.0" encoding="utf-8" standalone="no"?>
<!DOCTYPE svg PUBLIC "-//W3C//DTD SVG 1.1//EN"
  "http://www.w3.org/Graphics/SVG/1.1/DTD/svg11.dtd">
<svg xmlns:xlink="http://www.w3.org/1999/xlink" width="392.052pt" height="309.848375pt" viewBox="0 0 392.052 309.848375" xmlns="http://www.w3.org/2000/svg" version="1.1">
 <metadata>
  <rdf:RDF xmlns:dc="http://purl.org/dc/elements/1.1/" xmlns:cc="http://creativecommons.org/ns#" xmlns:rdf="http://www.w3.org/1999/02/22-rdf-syntax-ns#">
   <cc:Work>
    <dc:type rdf:resource="http://purl.org/dc/dcmitype/StillImage"/>
    <dc:date>2023-10-26T21:21:13.312187</dc:date>
    <dc:format>image/svg+xml</dc:format>
    <dc:creator>
     <cc:Agent>
      <dc:title>Matplotlib v3.8.0, https://matplotlib.org/</dc:title>
     </cc:Agent>
    </dc:creator>
   </cc:Work>
  </rdf:RDF>
 </metadata>
 <defs>
  <style type="text/css">*{stroke-linejoin: round; stroke-linecap: butt}</style>
 </defs>
 <g id="figure_1">
  <g id="patch_1">
   <path d="M 0 309.848375 
L 392.052 309.848375 
L 392.052 0 
L 0 0 
z
" style="fill: #ffffff"/>
  </g>
  <g id="axes_1">
   <g id="patch_2">
    <path d="M 27.732 286.3005 
L 384.852 286.3005 
L 384.852 20.1885 
L 27.732 20.1885 
z
" style="fill: #ffffff"/>
   </g>
   <g id="matplotlib.axis_1">
    <g id="xtick_1">
     <g id="line2d_1">
      <defs>
       <path id="mf24476f04b" d="M 0 0 
L 0 4.8 
" style="stroke: #262626"/>
      </defs>
      <g>
       <use xlink:href="#mf24476f04b" x="43.964727" y="286.3005" style="fill: #262626; stroke: #262626"/>
      </g>
     </g>
     <g id="text_1">
      <!-- −4 -->
      <g style="fill: #262626" transform="translate(38.94804 300.899375) scale(0.088 -0.088)">
       <defs>
        <path id="ArialMT-2212" d="M 3381 1997 
L 356 1997 
L 356 2522 
L 3381 2522 
L 3381 1997 
z
" transform="scale(0.015625)"/>
        <path id="ArialMT-34" d="M 2069 0 
L 2069 1097 
L 81 1097 
L 81 1613 
L 2172 4581 
L 2631 4581 
L 2631 1613 
L 3250 1613 
L 3250 1097 
L 2631 1097 
L 2631 0 
L 2069 0 
z
M 2069 1613 
L 2069 3678 
L 634 1613 
L 2069 1613 
z
" transform="scale(0.015625)"/>
       </defs>
       <use xlink:href="#ArialMT-2212"/>
       <use xlink:href="#ArialMT-34" x="58.398438"/>
      </g>
     </g>
    </g>
    <g id="xtick_2">
     <g id="line2d_2">
      <g>
       <use xlink:href="#mf24476f04b" x="84.546545" y="286.3005" style="fill: #262626; stroke: #262626"/>
      </g>
     </g>
     <g id="text_2">
      <!-- −3 -->
      <g style="fill: #262626" transform="translate(79.529858 300.899375) scale(0.088 -0.088)">
       <defs>
        <path id="ArialMT-33" d="M 269 1209 
L 831 1284 
Q 928 806 1161 595 
Q 1394 384 1728 384 
Q 2125 384 2398 659 
Q 2672 934 2672 1341 
Q 2672 1728 2419 1979 
Q 2166 2231 1775 2231 
Q 1616 2231 1378 2169 
L 1441 2663 
Q 1497 2656 1531 2656 
Q 1891 2656 2178 2843 
Q 2466 3031 2466 3422 
Q 2466 3731 2256 3934 
Q 2047 4138 1716 4138 
Q 1388 4138 1169 3931 
Q 950 3725 888 3313 
L 325 3413 
Q 428 3978 793 4289 
Q 1159 4600 1703 4600 
Q 2078 4600 2393 4439 
Q 2709 4278 2876 4000 
Q 3044 3722 3044 3409 
Q 3044 3113 2884 2869 
Q 2725 2625 2413 2481 
Q 2819 2388 3044 2092 
Q 3269 1797 3269 1353 
Q 3269 753 2831 336 
Q 2394 -81 1725 -81 
Q 1122 -81 723 278 
Q 325 638 269 1209 
z
" transform="scale(0.015625)"/>
       </defs>
       <use xlink:href="#ArialMT-2212"/>
       <use xlink:href="#ArialMT-33" x="58.398438"/>
      </g>
     </g>
    </g>
    <g id="xtick_3">
     <g id="line2d_3">
      <g>
       <use xlink:href="#mf24476f04b" x="125.128364" y="286.3005" style="fill: #262626; stroke: #262626"/>
      </g>
     </g>
     <g id="text_3">
      <!-- −2 -->
      <g style="fill: #262626" transform="translate(120.111676 300.899375) scale(0.088 -0.088)">
       <defs>
        <path id="ArialMT-32" d="M 3222 541 
L 3222 0 
L 194 0 
Q 188 203 259 391 
Q 375 700 629 1000 
Q 884 1300 1366 1694 
Q 2113 2306 2375 2664 
Q 2638 3022 2638 3341 
Q 2638 3675 2398 3904 
Q 2159 4134 1775 4134 
Q 1369 4134 1125 3890 
Q 881 3647 878 3216 
L 300 3275 
Q 359 3922 746 4261 
Q 1134 4600 1788 4600 
Q 2447 4600 2831 4234 
Q 3216 3869 3216 3328 
Q 3216 3053 3103 2787 
Q 2991 2522 2730 2228 
Q 2469 1934 1863 1422 
Q 1356 997 1212 845 
Q 1069 694 975 541 
L 3222 541 
z
" transform="scale(0.015625)"/>
       </defs>
       <use xlink:href="#ArialMT-2212"/>
       <use xlink:href="#ArialMT-32" x="58.398438"/>
      </g>
     </g>
    </g>
    <g id="xtick_4">
     <g id="line2d_4">
      <g>
       <use xlink:href="#mf24476f04b" x="165.710182" y="286.3005" style="fill: #262626; stroke: #262626"/>
      </g>
     </g>
     <g id="text_4">
      <!-- −1 -->
      <g style="fill: #262626" transform="translate(160.693494 300.899375) scale(0.088 -0.088)">
       <defs>
        <path id="ArialMT-31" d="M 2384 0 
L 1822 0 
L 1822 3584 
Q 1619 3391 1289 3197 
Q 959 3003 697 2906 
L 697 3450 
Q 1169 3672 1522 3987 
Q 1875 4303 2022 4600 
L 2384 4600 
L 2384 0 
z
" transform="scale(0.015625)"/>
       </defs>
       <use xlink:href="#ArialMT-2212"/>
       <use xlink:href="#ArialMT-31" x="58.398438"/>
      </g>
     </g>
    </g>
    <g id="xtick_5">
     <g id="line2d_5">
      <g>
       <use xlink:href="#mf24476f04b" x="206.292" y="286.3005" style="fill: #262626; stroke: #262626"/>
      </g>
     </g>
     <g id="text_5">
      <!-- 0 -->
      <g style="fill: #262626" transform="translate(203.845188 300.899375) scale(0.088 -0.088)">
       <defs>
        <path id="ArialMT-30" d="M 266 2259 
Q 266 3072 433 3567 
Q 600 4063 929 4331 
Q 1259 4600 1759 4600 
Q 2128 4600 2406 4451 
Q 2684 4303 2865 4023 
Q 3047 3744 3150 3342 
Q 3253 2941 3253 2259 
Q 3253 1453 3087 958 
Q 2922 463 2592 192 
Q 2263 -78 1759 -78 
Q 1097 -78 719 397 
Q 266 969 266 2259 
z
M 844 2259 
Q 844 1131 1108 757 
Q 1372 384 1759 384 
Q 2147 384 2411 759 
Q 2675 1134 2675 2259 
Q 2675 3391 2411 3762 
Q 2147 4134 1753 4134 
Q 1366 4134 1134 3806 
Q 844 3388 844 2259 
z
" transform="scale(0.015625)"/>
       </defs>
       <use xlink:href="#ArialMT-30"/>
      </g>
     </g>
    </g>
    <g id="xtick_6">
     <g id="line2d_6">
      <g>
       <use xlink:href="#mf24476f04b" x="246.873818" y="286.3005" style="fill: #262626; stroke: #262626"/>
      </g>
     </g>
     <g id="text_6">
      <!-- 1 -->
      <g style="fill: #262626" transform="translate(244.427006 300.899375) scale(0.088 -0.088)">
       <use xlink:href="#ArialMT-31"/>
      </g>
     </g>
    </g>
    <g id="xtick_7">
     <g id="line2d_7">
      <g>
       <use xlink:href="#mf24476f04b" x="287.455636" y="286.3005" style="fill: #262626; stroke: #262626"/>
      </g>
     </g>
     <g id="text_7">
      <!-- 2 -->
      <g style="fill: #262626" transform="translate(285.008824 300.899375) scale(0.088 -0.088)">
       <use xlink:href="#ArialMT-32"/>
      </g>
     </g>
    </g>
    <g id="xtick_8">
     <g id="line2d_8">
      <g>
       <use xlink:href="#mf24476f04b" x="328.037455" y="286.3005" style="fill: #262626; stroke: #262626"/>
      </g>
     </g>
     <g id="text_8">
      <!-- 3 -->
      <g style="fill: #262626" transform="translate(325.590642 300.899375) scale(0.088 -0.088)">
       <use xlink:href="#ArialMT-33"/>
      </g>
     </g>
    </g>
    <g id="xtick_9">
     <g id="line2d_9">
      <g>
       <use xlink:href="#mf24476f04b" x="368.619273" y="286.3005" style="fill: #262626; stroke: #262626"/>
      </g>
     </g>
     <g id="text_9">
      <!-- 4 -->
      <g style="fill: #262626" transform="translate(366.17246 300.899375) scale(0.088 -0.088)">
       <use xlink:href="#ArialMT-34"/>
      </g>
     </g>
    </g>
   </g>
   <g id="matplotlib.axis_2">
    <g id="ytick_1">
     <g id="line2d_10">
      <defs>
       <path id="me27bcb72c9" d="M 0 0 
L -4.8 0 
" style="stroke: #262626"/>
      </defs>
      <g>
       <use xlink:href="#me27bcb72c9" x="27.732" y="274.2045" style="fill: #262626; stroke: #262626"/>
      </g>
     </g>
     <g id="text_10">
      <!-- 0.0 -->
      <g style="fill: #262626" transform="translate(7.2 277.353938) scale(0.088 -0.088)">
       <defs>
        <path id="ArialMT-2e" d="M 581 0 
L 581 641 
L 1222 641 
L 1222 0 
L 581 0 
z
" transform="scale(0.015625)"/>
       </defs>
       <use xlink:href="#ArialMT-30"/>
       <use xlink:href="#ArialMT-2e" x="55.615234"/>
       <use xlink:href="#ArialMT-30" x="83.398438"/>
      </g>
     </g>
    </g>
    <g id="ytick_2">
     <g id="line2d_11">
      <g>
       <use xlink:href="#me27bcb72c9" x="27.732" y="225.8205" style="fill: #262626; stroke: #262626"/>
      </g>
     </g>
     <g id="text_11">
      <!-- 0.2 -->
      <g style="fill: #262626" transform="translate(7.2 228.969937) scale(0.088 -0.088)">
       <use xlink:href="#ArialMT-30"/>
       <use xlink:href="#ArialMT-2e" x="55.615234"/>
       <use xlink:href="#ArialMT-32" x="83.398438"/>
      </g>
     </g>
    </g>
    <g id="ytick_3">
     <g id="line2d_12">
      <g>
       <use xlink:href="#me27bcb72c9" x="27.732" y="177.4365" style="fill: #262626; stroke: #262626"/>
      </g>
     </g>
     <g id="text_12">
      <!-- 0.4 -->
      <g style="fill: #262626" transform="translate(7.2 180.585937) scale(0.088 -0.088)">
       <use xlink:href="#ArialMT-30"/>
       <use xlink:href="#ArialMT-2e" x="55.615234"/>
       <use xlink:href="#ArialMT-34" x="83.398438"/>
      </g>
     </g>
    </g>
    <g id="ytick_4">
     <g id="line2d_13">
      <g>
       <use xlink:href="#me27bcb72c9" x="27.732" y="129.0525" style="fill: #262626; stroke: #262626"/>
      </g>
     </g>
     <g id="text_13">
      <!-- 0.6 -->
      <g style="fill: #262626" transform="translate(7.2 132.201937) scale(0.088 -0.088)">
       <defs>
        <path id="ArialMT-36" d="M 3184 3459 
L 2625 3416 
Q 2550 3747 2413 3897 
Q 2184 4138 1850 4138 
Q 1581 4138 1378 3988 
Q 1113 3794 959 3422 
Q 806 3050 800 2363 
Q 1003 2672 1297 2822 
Q 1591 2972 1913 2972 
Q 2475 2972 2870 2558 
Q 3266 2144 3266 1488 
Q 3266 1056 3080 686 
Q 2894 316 2569 119 
Q 2244 -78 1831 -78 
Q 1128 -78 684 439 
Q 241 956 241 2144 
Q 241 3472 731 4075 
Q 1159 4600 1884 4600 
Q 2425 4600 2770 4297 
Q 3116 3994 3184 3459 
z
M 888 1484 
Q 888 1194 1011 928 
Q 1134 663 1356 523 
Q 1578 384 1822 384 
Q 2178 384 2434 671 
Q 2691 959 2691 1453 
Q 2691 1928 2437 2201 
Q 2184 2475 1800 2475 
Q 1419 2475 1153 2201 
Q 888 1928 888 1484 
z
" transform="scale(0.015625)"/>
       </defs>
       <use xlink:href="#ArialMT-30"/>
       <use xlink:href="#ArialMT-2e" x="55.615234"/>
       <use xlink:href="#ArialMT-36" x="83.398438"/>
      </g>
     </g>
    </g>
    <g id="ytick_5">
     <g id="line2d_14">
      <g>
       <use xlink:href="#me27bcb72c9" x="27.732" y="80.6685" style="fill: #262626; stroke: #262626"/>
      </g>
     </g>
     <g id="text_14">
      <!-- 0.8 -->
      <g style="fill: #262626" transform="translate(7.2 83.817937) scale(0.088 -0.088)">
       <defs>
        <path id="ArialMT-38" d="M 1131 2484 
Q 781 2613 612 2850 
Q 444 3088 444 3419 
Q 444 3919 803 4259 
Q 1163 4600 1759 4600 
Q 2359 4600 2725 4251 
Q 3091 3903 3091 3403 
Q 3091 3084 2923 2848 
Q 2756 2613 2416 2484 
Q 2838 2347 3058 2040 
Q 3278 1734 3278 1309 
Q 3278 722 2862 322 
Q 2447 -78 1769 -78 
Q 1091 -78 675 323 
Q 259 725 259 1325 
Q 259 1772 486 2073 
Q 713 2375 1131 2484 
z
M 1019 3438 
Q 1019 3113 1228 2906 
Q 1438 2700 1772 2700 
Q 2097 2700 2305 2904 
Q 2513 3109 2513 3406 
Q 2513 3716 2298 3927 
Q 2084 4138 1766 4138 
Q 1444 4138 1231 3931 
Q 1019 3725 1019 3438 
z
M 838 1322 
Q 838 1081 952 856 
Q 1066 631 1291 507 
Q 1516 384 1775 384 
Q 2178 384 2440 643 
Q 2703 903 2703 1303 
Q 2703 1709 2433 1975 
Q 2163 2241 1756 2241 
Q 1359 2241 1098 1978 
Q 838 1716 838 1322 
z
" transform="scale(0.015625)"/>
       </defs>
       <use xlink:href="#ArialMT-30"/>
       <use xlink:href="#ArialMT-2e" x="55.615234"/>
       <use xlink:href="#ArialMT-38" x="83.398438"/>
      </g>
     </g>
    </g>
    <g id="ytick_6">
     <g id="line2d_15">
      <g>
       <use xlink:href="#me27bcb72c9" x="27.732" y="32.2845" style="fill: #262626; stroke: #262626"/>
      </g>
     </g>
     <g id="text_15">
      <!-- 1.0 -->
      <g style="fill: #262626" transform="translate(7.2 35.433937) scale(0.088 -0.088)">
       <use xlink:href="#ArialMT-31"/>
       <use xlink:href="#ArialMT-2e" x="55.615234"/>
       <use xlink:href="#ArialMT-30" x="83.398438"/>
      </g>
     </g>
    </g>
   </g>
   <g id="line2d_16">
    <path d="M 43.964727 36.635723 
L 47.244066 36.994804 
L 50.523405 37.382882 
L 53.802744 37.80219 
L 57.082083 38.255113 
L 60.361421 38.744199 
L 63.64076 39.272162 
L 66.920099 39.841891 
L 70.199438 40.456457 
L 73.478777 41.119115 
L 76.758116 41.833312 
L 80.037455 42.60269 
L 83.316793 43.431086 
L 86.596132 44.322532 
L 89.875471 45.281257 
L 93.15481 46.311676 
L 96.434149 47.41839 
L 99.713488 48.606167 
L 102.992826 49.879933 
L 106.272165 51.244752 
L 109.551504 52.705797 
L 112.830843 54.268327 
L 116.110182 55.937647 
L 119.389521 57.719066 
L 122.66886 59.617849 
L 125.948198 61.639163 
L 129.227537 63.788009 
L 132.506876 66.069156 
L 135.786215 68.48706 
L 139.065554 71.045782 
L 142.344893 73.748899 
L 145.624231 76.599405 
L 148.90357 79.599617 
L 152.182909 82.751075 
L 155.462248 86.05444 
L 158.741587 89.509403 
L 162.020926 93.114589 
L 165.300264 96.867483 
L 168.579603 100.764355 
L 171.858942 104.800211 
L 175.138281 108.968757 
L 178.41762 113.262384 
L 181.696959 117.672184 
L 184.976298 122.187981 
L 188.255636 126.7984 
L 191.534975 131.490954 
L 194.814314 136.252165 
L 198.093653 141.067703 
L 201.372992 145.922553 
L 204.652331 150.801196 
L 207.931669 155.687804 
L 211.211008 160.566446 
L 214.490347 165.421296 
L 217.769686 170.236834 
L 221.049025 174.998045 
L 224.328364 179.6906 
L 227.607702 184.301018 
L 230.887041 188.816816 
L 234.16638 193.226616 
L 237.445719 197.520243 
L 240.725058 201.688788 
L 244.004397 205.724644 
L 247.283736 209.621516 
L 250.563074 213.37441 
L 253.842413 216.979597 
L 257.121752 220.43456 
L 260.401091 223.737925 
L 263.68043 226.889383 
L 266.959769 229.889595 
L 270.239107 232.740101 
L 273.518446 235.443217 
L 276.797785 238.00194 
L 280.077124 240.419844 
L 283.356463 242.70099 
L 286.635802 244.849836 
L 289.91514 246.87115 
L 293.194479 248.769934 
L 296.473818 250.551353 
L 299.753157 252.220672 
L 303.032496 253.783203 
L 306.311835 255.244248 
L 309.591174 256.609066 
L 312.870512 257.882833 
L 316.149851 259.07061 
L 319.42919 260.177323 
L 322.708529 261.207743 
L 325.987868 262.166467 
L 329.267207 263.057914 
L 332.546545 263.886309 
L 335.825884 264.655687 
L 339.105223 265.369885 
L 342.384562 266.032543 
L 345.663901 266.647108 
L 348.94324 267.216838 
L 352.222579 267.744801 
L 355.501917 268.233887 
L 358.781256 268.68681 
L 362.060595 269.106117 
L 365.339934 269.494195 
L 368.619273 269.853276 
" clip-path="url(#p2b2780947d)" style="fill: none; stroke: #1f77b4; stroke-width: 1.2; stroke-linecap: round"/>
   </g>
   <g id="line2d_17">
    <path d="M 43.964727 32.285986 
L 47.244066 32.286394 
L 50.523405 32.286913 
L 53.802744 32.287575 
L 57.082083 32.288419 
L 60.361421 32.289495 
L 63.64076 32.290865 
L 66.920099 32.292611 
L 70.199438 32.294836 
L 73.478777 32.297672 
L 76.758116 32.301285 
L 80.037455 32.30589 
L 83.316793 32.311757 
L 86.596132 32.319234 
L 89.875471 32.328761 
L 93.15481 32.340901 
L 96.434149 32.356369 
L 99.713488 32.376078 
L 102.992826 32.401189 
L 106.272165 32.433181 
L 109.551504 32.473938 
L 112.830843 32.525856 
L 116.110182 32.591984 
L 119.389521 32.676201 
L 122.66886 32.783436 
L 125.948198 32.919953 
L 129.227537 33.093696 
L 132.506876 33.314742 
L 135.786215 33.595841 
L 139.065554 33.953106 
L 142.344893 34.406847 
L 145.624231 34.982587 
L 148.90357 35.712278 
L 152.182909 36.635723 
L 155.462248 37.80219 
L 158.741587 39.272162 
L 162.020926 41.119115 
L 165.300264 43.431086 
L 168.579603 46.311676 
L 171.858942 49.879933 
L 175.138281 54.268327 
L 178.41762 59.617849 
L 181.696959 66.069156 
L 184.976298 73.748899 
L 188.255636 82.751075 
L 191.534975 93.114589 
L 194.814314 104.800211 
L 198.093653 117.672184 
L 201.372992 131.490954 
L 204.652331 145.922553 
L 207.931669 160.566446 
L 211.211008 174.998045 
L 214.490347 188.816816 
L 217.769686 201.688788 
L 221.049025 213.37441 
L 224.328364 223.737925 
L 227.607702 232.740101 
L 230.887041 240.419844 
L 234.16638 246.87115 
L 237.445719 252.220672 
L 240.725058 256.609066 
L 244.004397 260.177323 
L 247.283736 263.057914 
L 250.563074 265.369885 
L 253.842413 267.216838 
L 257.121752 268.68681 
L 260.401091 269.853276 
L 263.68043 270.776721 
L 266.959769 271.506413 
L 270.239107 272.082153 
L 273.518446 272.535893 
L 276.797785 272.893159 
L 280.077124 273.174258 
L 283.356463 273.395303 
L 286.635802 273.569047 
L 289.91514 273.705563 
L 293.194479 273.812799 
L 296.473818 273.897016 
L 299.753157 273.963144 
L 303.032496 274.015062 
L 306.311835 274.055818 
L 309.591174 274.087811 
L 312.870512 274.112922 
L 316.149851 274.13263 
L 319.42919 274.148099 
L 322.708529 274.160238 
L 325.987868 274.169765 
L 329.267207 274.177242 
L 332.546545 274.18311 
L 335.825884 274.187714 
L 339.105223 274.191328 
L 342.384562 274.194163 
L 345.663901 274.196388 
L 348.94324 274.198135 
L 352.222579 274.199505 
L 355.501917 274.20058 
L 358.781256 274.201424 
L 362.060595 274.202086 
L 365.339934 274.202606 
L 368.619273 274.203014 
" clip-path="url(#p2b2780947d)" style="fill: none; stroke: #ff7f0e; stroke-width: 1.2; stroke-linecap: round"/>
   </g>
   <g id="line2d_18">
    <path d="M 43.964727 274.2045 
L 47.244066 274.204499 
L 50.523405 274.204499 
L 53.802744 274.204498 
L 57.082083 274.204497 
L 60.361421 274.204496 
L 63.64076 274.204494 
L 66.920099 274.204492 
L 70.199438 274.204487 
L 73.478777 274.204481 
L 76.758116 274.204472 
L 80.037455 274.204458 
L 83.316793 274.204436 
L 86.596132 274.204405 
L 89.875471 274.204357 
L 93.15481 274.204286 
L 96.434149 274.20418 
L 99.713488 274.20402 
L 102.992826 274.203782 
L 106.272165 274.203424 
L 109.551504 274.202889 
L 112.830843 274.202086 
L 116.110182 274.200884 
L 119.389521 274.199084 
L 122.66886 274.196388 
L 125.948198 274.19235 
L 129.227537 274.186302 
L 132.506876 274.177242 
L 135.786215 274.163674 
L 139.065554 274.143353 
L 142.344893 274.112922 
L 145.624231 274.067354 
L 148.90357 273.999131 
L 152.182909 273.897016 
L 155.462248 273.744222 
L 158.741587 273.515718 
L 162.020926 273.174258 
L 165.300264 272.664602 
L 168.579603 271.905228 
L 171.858942 270.776721 
L 175.138281 269.106117 
L 178.41762 266.647108 
L 181.696959 263.057914 
L 184.976298 257.882833 
L 188.255636 250.551353 
L 191.534975 240.419844 
L 194.814314 226.889383 
L 198.093653 209.621516 
L 201.372992 188.816816 
L 204.652331 165.421296 
L 207.931669 141.067703 
L 211.211008 117.672184 
L 214.490347 96.867483 
L 217.769686 79.599617 
L 221.049025 66.069156 
L 224.328364 55.937647 
L 227.607702 48.606167 
L 230.887041 43.431086 
L 234.16638 39.841891 
L 237.445719 37.382882 
L 240.725058 35.712278 
L 244.004397 34.583772 
L 247.283736 33.824398 
L 250.563074 33.314742 
L 253.842413 32.973282 
L 257.121752 32.744778 
L 260.401091 32.591984 
L 263.68043 32.489868 
L 266.959769 32.421646 
L 270.239107 32.376078 
L 273.518446 32.345647 
L 276.797785 32.325326 
L 280.077124 32.311757 
L 283.356463 32.302698 
L 286.635802 32.296649 
L 289.91514 32.292611 
L 293.194479 32.289915 
L 296.473818 32.288115 
L 299.753157 32.286913 
L 303.032496 32.286111 
L 306.311835 32.285575 
L 309.591174 32.285218 
L 312.870512 32.284979 
L 316.149851 32.28482 
L 319.42919 32.284713 
L 322.708529 32.284642 
L 325.987868 32.284595 
L 329.267207 32.284563 
L 332.546545 32.284542 
L 335.825884 32.284528 
L 339.105223 32.284518 
L 342.384562 32.284512 
L 345.663901 32.284508 
L 348.94324 32.284505 
L 352.222579 32.284503 
L 355.501917 32.284502 
L 358.781256 32.284501 
L 362.060595 32.284501 
L 365.339934 32.2845 
L 368.619273 32.2845 
" clip-path="url(#p2b2780947d)" style="fill: none; stroke: #2ca02c; stroke-width: 1.2; stroke-linecap: round"/>
   </g>
   <g id="line2d_19">
    <path d="M 43.964727 43.757767 
L 47.244066 44.673937 
L 50.523405 45.659019 
L 53.802744 46.717501 
L 57.082083 47.854045 
L 60.361421 49.073483 
L 63.64076 50.380794 
L 66.920099 51.781086 
L 70.199438 53.279569 
L 73.478777 54.881522 
L 76.758116 56.592258 
L 80.037455 58.417076 
L 83.316793 60.36121 
L 86.596132 62.429773 
L 89.875471 64.627688 
L 93.15481 66.959616 
L 96.434149 69.429875 
L 99.713488 72.042355 
L 102.992826 74.800426 
L 106.272165 77.70684 
L 109.551504 80.763634 
L 112.830843 83.972029 
L 116.110182 87.332335 
L 119.389521 90.843853 
L 122.66886 94.504788 
L 125.948198 98.312178 
L 129.227537 102.261823 
L 132.506876 106.348246 
L 135.786215 110.564659 
L 139.065554 114.902964 
L 142.344893 119.353772 
L 145.624231 123.906447 
L 148.90357 128.549186 
L 152.182909 133.269115 
L 155.462248 138.052419 
L 158.741587 142.88449 
L 162.020926 147.750101 
L 165.300264 152.633596 
L 168.579603 157.519083 
L 171.858942 162.390646 
L 175.138281 167.232549 
L 178.41762 172.029441 
L 181.696959 176.766543 
L 184.976298 181.429826 
L 188.255636 186.006167 
L 191.534975 190.483486 
L 194.814314 194.850846 
L 198.093653 199.098543 
L 201.372992 203.218151 
L 204.652331 207.202555 
L 207.931669 211.045952 
L 211.211008 214.743826 
L 214.490347 218.29291 
L 217.769686 221.691126 
L 221.049025 224.937508 
L 224.328364 228.032122 
L 227.607702 230.97597 
L 230.887041 233.770895 
L 234.16638 236.419479 
L 237.445719 238.924947 
L 240.725058 241.291068 
L 244.004397 243.522061 
L 247.283736 245.62251 
L 250.563074 247.597278 
L 253.842413 249.451438 
L 257.121752 251.190199 
L 260.401091 252.81885 
L 263.68043 254.342703 
L 266.959769 255.767051 
L 270.239107 257.097124 
L 273.518446 258.338058 
L 276.797785 259.494867 
L 280.077124 260.57242 
L 283.356463 261.575425 
L 286.635802 262.508412 
L 289.91514 263.37573 
L 293.194479 264.181532 
L 296.473818 264.929778 
L 299.753157 265.624232 
L 303.032496 266.268462 
L 306.311835 266.865842 
L 309.591174 267.419559 
L 312.870512 267.932614 
L 316.149851 268.40783 
L 319.42919 268.847858 
L 322.708529 269.255183 
L 325.987868 269.632133 
L 329.267207 269.980886 
L 332.546545 270.303475 
L 335.825884 270.601799 
L 339.105223 270.877628 
L 342.384562 271.132612 
L 345.663901 271.368284 
L 348.94324 271.586075 
L 352.222579 271.78731 
L 355.501917 271.973224 
L 358.781256 272.144962 
L 362.060595 272.303586 
L 365.339934 272.450083 
L 368.619273 272.585366 
" clip-path="url(#p2b2780947d)" style="fill: none; stroke: #d62728; stroke-width: 1.2; stroke-linecap: round"/>
   </g>
   <g id="line2d_20">
    <path d="M 43.964727 32.314351 
L 47.244066 32.322539 
L 50.523405 32.332973 
L 53.802744 32.346267 
L 57.082083 32.363207 
L 60.361421 32.38479 
L 63.64076 32.412288 
L 66.920099 32.447322 
L 70.199438 32.491951 
L 73.478777 32.5488 
L 76.758116 32.621206 
L 80.037455 32.713413 
L 83.316793 32.830813 
L 86.596132 32.980254 
L 89.875471 33.170425 
L 93.15481 33.412332 
L 96.434149 33.7199 
L 99.713488 34.110708 
L 102.992826 34.60689 
L 106.272165 35.236229 
L 109.551504 36.033443 
L 112.830843 37.041684 
L 116.110182 38.314217 
L 119.389521 39.916195 
L 122.66886 41.92639 
L 125.948198 44.438605 
L 129.227537 47.562329 
L 132.506876 51.422013 
L 135.786215 56.154085 
L 139.065554 61.900694 
L 142.344893 68.799121 
L 145.624231 76.966205 
L 148.90357 86.478037 
L 152.182909 97.346808 
L 155.462248 109.49879 
L 158.741587 122.759355 
L 162.020926 136.851438 
L 165.300264 151.411913 
L 168.579603 166.025702 
L 171.858942 180.27166 
L 175.138281 193.769867 
L 178.41762 206.219469 
L 181.696959 217.419721 
L 184.976298 227.272657 
L 188.255636 235.770886 
L 191.534975 242.976736 
L 194.814314 248.998922 
L 198.093653 253.971275 
L 201.372992 258.035905 
L 204.652331 261.331412 
L 207.931669 263.985628 
L 211.211008 266.111925 
L 214.490347 267.808005 
L 217.769686 269.156288 
L 221.049025 270.225175 
L 224.328364 271.070734 
L 227.607702 271.738484 
L 230.887041 272.265105 
L 234.16638 272.67998 
L 237.445719 273.006549 
L 240.725058 273.263437 
L 244.004397 273.465407 
L 247.283736 273.624135 
L 250.563074 273.748839 
L 253.842413 273.846787 
L 257.121752 273.923705 
L 260.401091 273.984098 
L 263.68043 274.031512 
L 266.959769 274.068731 
L 270.239107 274.097946 
L 273.518446 274.120877 
L 276.797785 274.138874 
L 280.077124 274.152999 
L 283.356463 274.164084 
L 286.635802 274.172783 
L 289.91514 274.179611 
L 293.194479 274.184968 
L 296.473818 274.189173 
L 299.753157 274.192472 
L 303.032496 274.195061 
L 306.311835 274.197093 
L 309.591174 274.198688 
L 312.870512 274.199939 
L 316.149851 274.200921 
L 319.42919 274.201691 
L 322.708529 274.202296 
L 325.987868 274.20277 
L 329.267207 274.203143 
L 332.546545 274.203435 
L 335.825884 274.203664 
L 339.105223 274.203844 
L 342.384562 274.203985 
L 345.663901 274.204096 
L 348.94324 274.204183 
L 352.222579 274.204251 
L 355.501917 274.204305 
L 358.781256 274.204347 
L 362.060595 274.20438 
L 365.339934 274.204406 
L 368.619273 274.204426 
" clip-path="url(#p2b2780947d)" style="fill: none; stroke: #9467bd; stroke-width: 1.2; stroke-linecap: round"/>
   </g>
   <g id="line2d_21">
    <path d="M 43.964727 274.2045 
L 47.244066 274.2045 
L 50.523405 274.2045 
L 53.802744 274.2045 
L 57.082083 274.2045 
L 60.361421 274.2045 
L 63.64076 274.2045 
L 66.920099 274.2045 
L 70.199438 274.2045 
L 73.478777 274.2045 
L 76.758116 274.2045 
L 80.037455 274.2045 
L 83.316793 274.2045 
L 86.596132 274.204499 
L 89.875471 274.204499 
L 93.15481 274.204499 
L 96.434149 274.204498 
L 99.713488 274.204497 
L 102.992826 274.204495 
L 106.272165 274.204493 
L 109.551504 274.204489 
L 112.830843 274.204484 
L 116.110182 274.204476 
L 119.389521 274.204464 
L 122.66886 274.204445 
L 125.948198 274.204418 
L 129.227537 274.204377 
L 132.506876 274.204316 
L 135.786215 274.204225 
L 139.065554 274.204088 
L 142.344893 274.203883 
L 145.624231 274.203575 
L 148.90357 274.203115 
L 152.182909 274.202426 
L 155.462248 274.201393 
L 158.741587 274.199846 
L 162.020926 274.197529 
L 165.300264 274.194058 
L 168.579603 274.18886 
L 171.858942 274.181074 
L 175.138281 274.169413 
L 178.41762 274.151948 
L 181.696959 274.125793 
L 184.976298 274.086626 
L 188.255636 274.027984 
L 191.534975 273.940199 
L 194.814314 273.808829 
L 198.093653 273.61232 
L 201.372992 273.318574 
L 204.652331 272.879919 
L 207.931669 272.22585 
L 211.211008 271.25277 
L 214.490347 269.809904 
L 217.769686 267.680989 
L 221.049025 264.562609 
L 224.328364 260.043252 
L 227.607702 253.593545 
L 230.887041 244.588305 
L 234.16638 232.391902 
L 237.445719 216.537124 
L 240.725058 196.99021 
L 244.004397 174.406362 
L 247.283736 150.190603 
L 250.563074 126.21734 
L 253.842413 104.288331 
L 257.121752 85.633213 
L 260.401091 70.718113 
L 263.68043 59.373905 
L 266.959769 51.068994 
L 270.239107 45.157588 
L 273.518446 41.033537 
L 276.797785 38.196574 
L 280.077124 36.263825 
L 283.356463 34.95577 
L 286.635802 34.074455 
L 289.91514 33.482451 
L 293.194479 33.085591 
L 296.473818 32.819911 
L 299.753157 32.642213 
L 303.032496 32.523432 
L 306.311835 32.444068 
L 309.591174 32.391053 
L 312.870512 32.355647 
L 316.149851 32.332003 
L 319.42919 32.316216 
L 322.708529 32.305675 
L 325.987868 32.298637 
L 329.267207 32.293938 
L 332.546545 32.290801 
L 335.825884 32.288706 
L 339.105223 32.287308 
L 342.384562 32.286375 
L 345.663901 32.285751 
L 348.94324 32.285335 
L 352.222579 32.285057 
L 355.501917 32.284872 
L 358.781256 32.284748 
L 362.060595 32.284666 
L 365.339934 32.28461 
L 368.619273 32.284574 
" clip-path="url(#p2b2780947d)" style="fill: none; stroke: #8c564b; stroke-width: 1.2; stroke-linecap: round"/>
   </g>
   <g id="patch_3">
    <path d="M 27.732 274.2045 
L 27.732 32.2845 
" style="fill: none; stroke: #262626; stroke-linejoin: miter; stroke-linecap: square"/>
   </g>
   <g id="patch_4">
    <path d="M 43.964727 286.3005 
L 368.619273 286.3005 
" style="fill: none; stroke: #262626; stroke-linejoin: miter; stroke-linecap: square"/>
   </g>
   <g id="text_16">
    <!-- Logistic functon with bias -->
    <g style="fill: #262626" transform="translate(152.9325 14.1885) scale(0.096 -0.096)">
     <defs>
      <path id="ArialMT-4c" d="M 469 0 
L 469 4581 
L 1075 4581 
L 1075 541 
L 3331 541 
L 3331 0 
L 469 0 
z
" transform="scale(0.015625)"/>
      <path id="ArialMT-6f" d="M 213 1659 
Q 213 2581 725 3025 
Q 1153 3394 1769 3394 
Q 2453 3394 2887 2945 
Q 3322 2497 3322 1706 
Q 3322 1066 3130 698 
Q 2938 331 2570 128 
Q 2203 -75 1769 -75 
Q 1072 -75 642 372 
Q 213 819 213 1659 
z
M 791 1659 
Q 791 1022 1069 705 
Q 1347 388 1769 388 
Q 2188 388 2466 706 
Q 2744 1025 2744 1678 
Q 2744 2294 2464 2611 
Q 2184 2928 1769 2928 
Q 1347 2928 1069 2612 
Q 791 2297 791 1659 
z
" transform="scale(0.015625)"/>
      <path id="ArialMT-67" d="M 319 -275 
L 866 -356 
Q 900 -609 1056 -725 
Q 1266 -881 1628 -881 
Q 2019 -881 2231 -725 
Q 2444 -569 2519 -288 
Q 2563 -116 2559 434 
Q 2191 0 1641 0 
Q 956 0 581 494 
Q 206 988 206 1678 
Q 206 2153 378 2554 
Q 550 2956 876 3175 
Q 1203 3394 1644 3394 
Q 2231 3394 2613 2919 
L 2613 3319 
L 3131 3319 
L 3131 450 
Q 3131 -325 2973 -648 
Q 2816 -972 2473 -1159 
Q 2131 -1347 1631 -1347 
Q 1038 -1347 672 -1080 
Q 306 -813 319 -275 
z
M 784 1719 
Q 784 1066 1043 766 
Q 1303 466 1694 466 
Q 2081 466 2343 764 
Q 2606 1063 2606 1700 
Q 2606 2309 2336 2618 
Q 2066 2928 1684 2928 
Q 1309 2928 1046 2623 
Q 784 2319 784 1719 
z
" transform="scale(0.015625)"/>
      <path id="ArialMT-69" d="M 425 3934 
L 425 4581 
L 988 4581 
L 988 3934 
L 425 3934 
z
M 425 0 
L 425 3319 
L 988 3319 
L 988 0 
L 425 0 
z
" transform="scale(0.015625)"/>
      <path id="ArialMT-73" d="M 197 991 
L 753 1078 
Q 800 744 1014 566 
Q 1228 388 1613 388 
Q 2000 388 2187 545 
Q 2375 703 2375 916 
Q 2375 1106 2209 1216 
Q 2094 1291 1634 1406 
Q 1016 1563 777 1677 
Q 538 1791 414 1992 
Q 291 2194 291 2438 
Q 291 2659 392 2848 
Q 494 3038 669 3163 
Q 800 3259 1026 3326 
Q 1253 3394 1513 3394 
Q 1903 3394 2198 3281 
Q 2494 3169 2634 2976 
Q 2775 2784 2828 2463 
L 2278 2388 
Q 2241 2644 2061 2787 
Q 1881 2931 1553 2931 
Q 1166 2931 1000 2803 
Q 834 2675 834 2503 
Q 834 2394 903 2306 
Q 972 2216 1119 2156 
Q 1203 2125 1616 2013 
Q 2213 1853 2448 1751 
Q 2684 1650 2818 1456 
Q 2953 1263 2953 975 
Q 2953 694 2789 445 
Q 2625 197 2315 61 
Q 2006 -75 1616 -75 
Q 969 -75 630 194 
Q 291 463 197 991 
z
" transform="scale(0.015625)"/>
      <path id="ArialMT-74" d="M 1650 503 
L 1731 6 
Q 1494 -44 1306 -44 
Q 1000 -44 831 53 
Q 663 150 594 308 
Q 525 466 525 972 
L 525 2881 
L 113 2881 
L 113 3319 
L 525 3319 
L 525 4141 
L 1084 4478 
L 1084 3319 
L 1650 3319 
L 1650 2881 
L 1084 2881 
L 1084 941 
Q 1084 700 1114 631 
Q 1144 563 1211 522 
Q 1278 481 1403 481 
Q 1497 481 1650 503 
z
" transform="scale(0.015625)"/>
      <path id="ArialMT-63" d="M 2588 1216 
L 3141 1144 
Q 3050 572 2676 248 
Q 2303 -75 1759 -75 
Q 1078 -75 664 370 
Q 250 816 250 1647 
Q 250 2184 428 2587 
Q 606 2991 970 3192 
Q 1334 3394 1763 3394 
Q 2303 3394 2647 3120 
Q 2991 2847 3088 2344 
L 2541 2259 
Q 2463 2594 2264 2762 
Q 2066 2931 1784 2931 
Q 1359 2931 1093 2626 
Q 828 2322 828 1663 
Q 828 994 1084 691 
Q 1341 388 1753 388 
Q 2084 388 2306 591 
Q 2528 794 2588 1216 
z
" transform="scale(0.015625)"/>
      <path id="ArialMT-20" transform="scale(0.015625)"/>
      <path id="ArialMT-66" d="M 556 0 
L 556 2881 
L 59 2881 
L 59 3319 
L 556 3319 
L 556 3672 
Q 556 4006 616 4169 
Q 697 4388 901 4523 
Q 1106 4659 1475 4659 
Q 1713 4659 2000 4603 
L 1916 4113 
Q 1741 4144 1584 4144 
Q 1328 4144 1222 4034 
Q 1116 3925 1116 3625 
L 1116 3319 
L 1763 3319 
L 1763 2881 
L 1116 2881 
L 1116 0 
L 556 0 
z
" transform="scale(0.015625)"/>
      <path id="ArialMT-75" d="M 2597 0 
L 2597 488 
Q 2209 -75 1544 -75 
Q 1250 -75 995 37 
Q 741 150 617 320 
Q 494 491 444 738 
Q 409 903 409 1263 
L 409 3319 
L 972 3319 
L 972 1478 
Q 972 1038 1006 884 
Q 1059 663 1231 536 
Q 1403 409 1656 409 
Q 1909 409 2131 539 
Q 2353 669 2445 892 
Q 2538 1116 2538 1541 
L 2538 3319 
L 3100 3319 
L 3100 0 
L 2597 0 
z
" transform="scale(0.015625)"/>
      <path id="ArialMT-6e" d="M 422 0 
L 422 3319 
L 928 3319 
L 928 2847 
Q 1294 3394 1984 3394 
Q 2284 3394 2536 3286 
Q 2788 3178 2913 3003 
Q 3038 2828 3088 2588 
Q 3119 2431 3119 2041 
L 3119 0 
L 2556 0 
L 2556 2019 
Q 2556 2363 2490 2533 
Q 2425 2703 2258 2804 
Q 2091 2906 1866 2906 
Q 1506 2906 1245 2678 
Q 984 2450 984 1813 
L 984 0 
L 422 0 
z
" transform="scale(0.015625)"/>
      <path id="ArialMT-77" d="M 1034 0 
L 19 3319 
L 600 3319 
L 1128 1403 
L 1325 691 
Q 1338 744 1497 1375 
L 2025 3319 
L 2603 3319 
L 3100 1394 
L 3266 759 
L 3456 1400 
L 4025 3319 
L 4572 3319 
L 3534 0 
L 2950 0 
L 2422 1988 
L 2294 2553 
L 1622 0 
L 1034 0 
z
" transform="scale(0.015625)"/>
      <path id="ArialMT-68" d="M 422 0 
L 422 4581 
L 984 4581 
L 984 2938 
Q 1378 3394 1978 3394 
Q 2347 3394 2619 3248 
Q 2891 3103 3008 2847 
Q 3125 2591 3125 2103 
L 3125 0 
L 2563 0 
L 2563 2103 
Q 2563 2525 2380 2717 
Q 2197 2909 1863 2909 
Q 1613 2909 1392 2779 
Q 1172 2650 1078 2428 
Q 984 2206 984 1816 
L 984 0 
L 422 0 
z
" transform="scale(0.015625)"/>
      <path id="ArialMT-62" d="M 941 0 
L 419 0 
L 419 4581 
L 981 4581 
L 981 2947 
Q 1338 3394 1891 3394 
Q 2197 3394 2470 3270 
Q 2744 3147 2920 2923 
Q 3097 2700 3197 2384 
Q 3297 2069 3297 1709 
Q 3297 856 2875 390 
Q 2453 -75 1863 -75 
Q 1275 -75 941 416 
L 941 0 
z
M 934 1684 
Q 934 1088 1097 822 
Q 1363 388 1816 388 
Q 2184 388 2453 708 
Q 2722 1028 2722 1663 
Q 2722 2313 2464 2622 
Q 2206 2931 1841 2931 
Q 1472 2931 1203 2611 
Q 934 2291 934 1684 
z
" transform="scale(0.015625)"/>
      <path id="ArialMT-61" d="M 2588 409 
Q 2275 144 1986 34 
Q 1697 -75 1366 -75 
Q 819 -75 525 192 
Q 231 459 231 875 
Q 231 1119 342 1320 
Q 453 1522 633 1644 
Q 813 1766 1038 1828 
Q 1203 1872 1538 1913 
Q 2219 1994 2541 2106 
Q 2544 2222 2544 2253 
Q 2544 2597 2384 2738 
Q 2169 2928 1744 2928 
Q 1347 2928 1158 2789 
Q 969 2650 878 2297 
L 328 2372 
Q 403 2725 575 2942 
Q 747 3159 1072 3276 
Q 1397 3394 1825 3394 
Q 2250 3394 2515 3294 
Q 2781 3194 2906 3042 
Q 3031 2891 3081 2659 
Q 3109 2516 3109 2141 
L 3109 1391 
Q 3109 606 3145 398 
Q 3181 191 3288 0 
L 2700 0 
Q 2613 175 2588 409 
z
M 2541 1666 
Q 2234 1541 1622 1453 
Q 1275 1403 1131 1340 
Q 988 1278 909 1158 
Q 831 1038 831 891 
Q 831 666 1001 516 
Q 1172 366 1500 366 
Q 1825 366 2078 508 
Q 2331 650 2450 897 
Q 2541 1088 2541 1459 
L 2541 1666 
z
" transform="scale(0.015625)"/>
     </defs>
     <use xlink:href="#ArialMT-4c"/>
     <use xlink:href="#ArialMT-6f" x="55.615234"/>
     <use xlink:href="#ArialMT-67" x="111.230469"/>
     <use xlink:href="#ArialMT-69" x="166.845703"/>
     <use xlink:href="#ArialMT-73" x="189.0625"/>
     <use xlink:href="#ArialMT-74" x="239.0625"/>
     <use xlink:href="#ArialMT-69" x="266.845703"/>
     <use xlink:href="#ArialMT-63" x="289.0625"/>
     <use xlink:href="#ArialMT-20" x="339.0625"/>
     <use xlink:href="#ArialMT-66" x="366.845703"/>
     <use xlink:href="#ArialMT-75" x="394.628906"/>
     <use xlink:href="#ArialMT-6e" x="450.244141"/>
     <use xlink:href="#ArialMT-63" x="505.859375"/>
     <use xlink:href="#ArialMT-74" x="555.859375"/>
     <use xlink:href="#ArialMT-6f" x="583.642578"/>
     <use xlink:href="#ArialMT-6e" x="639.257812"/>
     <use xlink:href="#ArialMT-20" x="694.873047"/>
     <use xlink:href="#ArialMT-77" x="722.65625"/>
     <use xlink:href="#ArialMT-69" x="794.873047"/>
     <use xlink:href="#ArialMT-74" x="817.089844"/>
     <use xlink:href="#ArialMT-68" x="844.873047"/>
     <use xlink:href="#ArialMT-20" x="900.488281"/>
     <use xlink:href="#ArialMT-62" x="928.271484"/>
     <use xlink:href="#ArialMT-69" x="983.886719"/>
     <use xlink:href="#ArialMT-61" x="1006.103516"/>
     <use xlink:href="#ArialMT-73" x="1061.71875"/>
    </g>
   </g>
   <g id="legend_1">
    <g id="line2d_22">
     <path d="M 303.188 120.0685 
L 311.988 120.0685 
L 320.788 120.0685 
" style="fill: none; stroke: #1f77b4; stroke-width: 1.2; stroke-linecap: round"/>
    </g>
    <g id="text_17">
     <!-- $\alpha$ = 0, $\beta$ = 1 -->
     <g style="fill: #262626" transform="translate(327.828 123.1485) scale(0.088 -0.088)">
      <defs>
       <path id="DejaVuSans-Oblique-3b1" d="M 2619 1628 
L 2622 2350 
Q 2625 3088 2069 3091 
Q 1653 3094 1394 2747 
Q 1069 2319 959 1747 
Q 825 1059 994 731 
Q 1169 397 1547 397 
Q 1966 397 2319 1063 
L 2619 1628 
z
M 2166 3578 
Q 3141 3594 3128 2584 
Q 3128 2584 3616 3500 
L 4128 3500 
L 3119 1603 
L 3109 919 
Q 3109 766 3194 638 
Q 3291 488 3391 488 
L 3669 488 
L 3575 0 
L 3228 0 
Q 2934 0 2722 263 
Q 2622 394 2619 669 
Q 2416 334 2066 50 
Q 1900 -81 1453 -78 
Q 722 -72 456 397 
Q 184 884 353 1747 
Q 534 2675 1009 3097 
Q 1544 3569 2166 3578 
z
" transform="scale(0.015625)"/>
       <path id="ArialMT-3d" d="M 3381 2694 
L 356 2694 
L 356 3219 
L 3381 3219 
L 3381 2694 
z
M 3381 1303 
L 356 1303 
L 356 1828 
L 3381 1828 
L 3381 1303 
z
" transform="scale(0.015625)"/>
       <path id="ArialMT-2c" d="M 569 0 
L 569 641 
L 1209 641 
L 1209 0 
Q 1209 -353 1084 -570 
Q 959 -788 688 -906 
L 531 -666 
Q 709 -588 793 -436 
Q 878 -284 888 0 
L 569 0 
z
" transform="scale(0.015625)"/>
       <path id="DejaVuSans-Oblique-3b2" d="M 872 216 
L 572 -1331 
L -6 -1331 
L 928 3478 
Q 1206 4903 2538 4903 
Q 3888 4903 3659 3700 
Q 3503 2844 2894 2531 
Q 3713 2250 3553 1416 
Q 3272 -69 1759 -66 
Q 1097 -63 872 216 
z
M 1019 966 
Q 1259 422 1875 425 
Q 2775 425 2966 1406 
Q 3138 2288 1675 2219 
L 1778 2750 
Q 2909 2731 3106 3750 
Q 3241 4438 2509 4434 
Q 1691 4434 1503 3459 
L 1019 966 
z
" transform="scale(0.015625)"/>
      </defs>
      <use xlink:href="#DejaVuSans-Oblique-3b1" transform="translate(0 0.390625)"/>
      <use xlink:href="#ArialMT-20" transform="translate(65.917969 0.390625)"/>
      <use xlink:href="#ArialMT-3d" transform="translate(93.701172 0.390625)"/>
      <use xlink:href="#ArialMT-20" transform="translate(152.099609 0.390625)"/>
      <use xlink:href="#ArialMT-30" transform="translate(179.882812 0.390625)"/>
      <use xlink:href="#ArialMT-2c" transform="translate(235.498047 0.390625)"/>
      <use xlink:href="#ArialMT-20" transform="translate(263.28125 0.390625)"/>
      <use xlink:href="#DejaVuSans-Oblique-3b2" transform="translate(291.064453 0.390625)"/>
      <use xlink:href="#ArialMT-20" transform="translate(354.882812 0.390625)"/>
      <use xlink:href="#ArialMT-3d" transform="translate(382.666016 0.390625)"/>
      <use xlink:href="#ArialMT-20" transform="translate(441.064453 0.390625)"/>
      <use xlink:href="#ArialMT-31" transform="translate(468.847656 0.390625)"/>
     </g>
    </g>
    <g id="line2d_23">
     <path d="M 303.188 133.0925 
L 311.988 133.0925 
L 320.788 133.0925 
" style="fill: none; stroke: #ff7f0e; stroke-width: 1.2; stroke-linecap: round"/>
    </g>
    <g id="text_18">
     <!-- $\alpha$ = 0, $\beta$ = 3 -->
     <g style="fill: #262626" transform="translate(327.828 136.1725) scale(0.088 -0.088)">
      <use xlink:href="#DejaVuSans-Oblique-3b1" transform="translate(0 0.390625)"/>
      <use xlink:href="#ArialMT-20" transform="translate(65.917969 0.390625)"/>
      <use xlink:href="#ArialMT-3d" transform="translate(93.701172 0.390625)"/>
      <use xlink:href="#ArialMT-20" transform="translate(152.099609 0.390625)"/>
      <use xlink:href="#ArialMT-30" transform="translate(179.882812 0.390625)"/>
      <use xlink:href="#ArialMT-2c" transform="translate(235.498047 0.390625)"/>
      <use xlink:href="#ArialMT-20" transform="translate(263.28125 0.390625)"/>
      <use xlink:href="#DejaVuSans-Oblique-3b2" transform="translate(291.064453 0.390625)"/>
      <use xlink:href="#ArialMT-20" transform="translate(354.882812 0.390625)"/>
      <use xlink:href="#ArialMT-3d" transform="translate(382.666016 0.390625)"/>
      <use xlink:href="#ArialMT-20" transform="translate(441.064453 0.390625)"/>
      <use xlink:href="#ArialMT-33" transform="translate(468.847656 0.390625)"/>
     </g>
    </g>
    <g id="line2d_24">
     <path d="M 303.188 146.1165 
L 311.988 146.1165 
L 320.788 146.1165 
" style="fill: none; stroke: #2ca02c; stroke-width: 1.2; stroke-linecap: round"/>
    </g>
    <g id="text_19">
     <!-- $\alpha$ = 0, $\beta$ = -5 -->
     <g style="fill: #262626" transform="translate(327.828 149.1965) scale(0.088 -0.088)">
      <defs>
       <path id="ArialMT-2d" d="M 203 1375 
L 203 1941 
L 1931 1941 
L 1931 1375 
L 203 1375 
z
" transform="scale(0.015625)"/>
       <path id="ArialMT-35" d="M 266 1200 
L 856 1250 
Q 922 819 1161 601 
Q 1400 384 1738 384 
Q 2144 384 2425 690 
Q 2706 997 2706 1503 
Q 2706 1984 2436 2262 
Q 2166 2541 1728 2541 
Q 1456 2541 1237 2417 
Q 1019 2294 894 2097 
L 366 2166 
L 809 4519 
L 3088 4519 
L 3088 3981 
L 1259 3981 
L 1013 2750 
Q 1425 3038 1878 3038 
Q 2478 3038 2890 2622 
Q 3303 2206 3303 1553 
Q 3303 931 2941 478 
Q 2500 -78 1738 -78 
Q 1113 -78 717 272 
Q 322 622 266 1200 
z
" transform="scale(0.015625)"/>
      </defs>
      <use xlink:href="#DejaVuSans-Oblique-3b1" transform="translate(0 0.390625)"/>
      <use xlink:href="#ArialMT-20" transform="translate(65.917969 0.390625)"/>
      <use xlink:href="#ArialMT-3d" transform="translate(93.701172 0.390625)"/>
      <use xlink:href="#ArialMT-20" transform="translate(152.099609 0.390625)"/>
      <use xlink:href="#ArialMT-30" transform="translate(179.882812 0.390625)"/>
      <use xlink:href="#ArialMT-2c" transform="translate(235.498047 0.390625)"/>
      <use xlink:href="#ArialMT-20" transform="translate(263.28125 0.390625)"/>
      <use xlink:href="#DejaVuSans-Oblique-3b2" transform="translate(291.064453 0.390625)"/>
      <use xlink:href="#ArialMT-20" transform="translate(354.882812 0.390625)"/>
      <use xlink:href="#ArialMT-3d" transform="translate(382.666016 0.390625)"/>
      <use xlink:href="#ArialMT-20" transform="translate(441.064453 0.390625)"/>
      <use xlink:href="#ArialMT-2d" transform="translate(468.847656 0.390625)"/>
      <use xlink:href="#ArialMT-35" transform="translate(502.148438 0.390625)"/>
     </g>
    </g>
    <g id="line2d_25">
     <path d="M 303.188 159.1405 
L 311.988 159.1405 
L 320.788 159.1405 
" style="fill: none; stroke: #d62728; stroke-width: 1.2; stroke-linecap: round"/>
    </g>
    <g id="text_20">
     <!-- $\alpha$ = 1, $\beta$ = 1 -->
     <g style="fill: #262626" transform="translate(327.828 162.2205) scale(0.088 -0.088)">
      <use xlink:href="#DejaVuSans-Oblique-3b1" transform="translate(0 0.390625)"/>
      <use xlink:href="#ArialMT-20" transform="translate(65.917969 0.390625)"/>
      <use xlink:href="#ArialMT-3d" transform="translate(93.701172 0.390625)"/>
      <use xlink:href="#ArialMT-20" transform="translate(152.099609 0.390625)"/>
      <use xlink:href="#ArialMT-31" transform="translate(179.882812 0.390625)"/>
      <use xlink:href="#ArialMT-2c" transform="translate(235.498047 0.390625)"/>
      <use xlink:href="#ArialMT-20" transform="translate(263.28125 0.390625)"/>
      <use xlink:href="#DejaVuSans-Oblique-3b2" transform="translate(291.064453 0.390625)"/>
      <use xlink:href="#ArialMT-20" transform="translate(354.882812 0.390625)"/>
      <use xlink:href="#ArialMT-3d" transform="translate(382.666016 0.390625)"/>
      <use xlink:href="#ArialMT-20" transform="translate(441.064453 0.390625)"/>
      <use xlink:href="#ArialMT-31" transform="translate(468.847656 0.390625)"/>
     </g>
    </g>
    <g id="line2d_26">
     <path d="M 303.188 172.1645 
L 311.988 172.1645 
L 320.788 172.1645 
" style="fill: none; stroke: #9467bd; stroke-width: 1.2; stroke-linecap: round"/>
    </g>
    <g id="text_21">
     <!-- $\alpha$ = 3, $\beta$ = 3 -->
     <g style="fill: #262626" transform="translate(327.828 175.2445) scale(0.088 -0.088)">
      <use xlink:href="#DejaVuSans-Oblique-3b1" transform="translate(0 0.390625)"/>
      <use xlink:href="#ArialMT-20" transform="translate(65.917969 0.390625)"/>
      <use xlink:href="#ArialMT-3d" transform="translate(93.701172 0.390625)"/>
      <use xlink:href="#ArialMT-20" transform="translate(152.099609 0.390625)"/>
      <use xlink:href="#ArialMT-33" transform="translate(179.882812 0.390625)"/>
      <use xlink:href="#ArialMT-2c" transform="translate(235.498047 0.390625)"/>
      <use xlink:href="#ArialMT-20" transform="translate(263.28125 0.390625)"/>
      <use xlink:href="#DejaVuSans-Oblique-3b2" transform="translate(291.064453 0.390625)"/>
      <use xlink:href="#ArialMT-20" transform="translate(354.882812 0.390625)"/>
      <use xlink:href="#ArialMT-3d" transform="translate(382.666016 0.390625)"/>
      <use xlink:href="#ArialMT-20" transform="translate(441.064453 0.390625)"/>
      <use xlink:href="#ArialMT-33" transform="translate(468.847656 0.390625)"/>
     </g>
    </g>
    <g id="line2d_27">
     <path d="M 303.188 185.1885 
L 311.988 185.1885 
L 320.788 185.1885 
" style="fill: none; stroke: #8c564b; stroke-width: 1.2; stroke-linecap: round"/>
    </g>
    <g id="text_22">
     <!-- $\alpha$ = 5, $\beta$ = -5 -->
     <g style="fill: #262626" transform="translate(327.828 188.2685) scale(0.088 -0.088)">
      <use xlink:href="#DejaVuSans-Oblique-3b1" transform="translate(0 0.390625)"/>
      <use xlink:href="#ArialMT-20" transform="translate(65.917969 0.390625)"/>
      <use xlink:href="#ArialMT-3d" transform="translate(93.701172 0.390625)"/>
      <use xlink:href="#ArialMT-20" transform="translate(152.099609 0.390625)"/>
      <use xlink:href="#ArialMT-35" transform="translate(179.882812 0.390625)"/>
      <use xlink:href="#ArialMT-2c" transform="translate(235.498047 0.390625)"/>
      <use xlink:href="#ArialMT-20" transform="translate(263.28125 0.390625)"/>
      <use xlink:href="#DejaVuSans-Oblique-3b2" transform="translate(291.064453 0.390625)"/>
      <use xlink:href="#ArialMT-20" transform="translate(354.882812 0.390625)"/>
      <use xlink:href="#ArialMT-3d" transform="translate(382.666016 0.390625)"/>
      <use xlink:href="#ArialMT-20" transform="translate(441.064453 0.390625)"/>
      <use xlink:href="#ArialMT-2d" transform="translate(468.847656 0.390625)"/>
      <use xlink:href="#ArialMT-35" transform="translate(502.148438 0.390625)"/>
     </g>
    </g>
   </g>
  </g>
 </g>
 <defs>
  <clipPath id="p2b2780947d">
   <rect x="27.732" y="20.1885" width="357.12" height="266.112"/>
  </clipPath>
 </defs>
</svg>