<?xml version="1.0" encoding="UTF-8" standalone="no"?>
<!DOCTYPE svg PUBLIC "-//W3C//DTD SVG 1.1//EN"
 "http://www.w3.org/Graphics/SVG/1.1/DTD/svg11.dtd">
<!-- Generated by graphviz version 9.0.0 (20230911.1827)
 -->
<!-- Title: space_shuttle_disaster Pages: 1 -->
<svg width="134pt" height="229pt"
 viewBox="0.00 0.00 134.00 228.50" xmlns="http://www.w3.org/2000/svg" xmlns:xlink="http://www.w3.org/1999/xlink">
<g id="graph0" class="graph" transform="scale(1 1) rotate(0) translate(4 224.5)">
<title>space_shuttle_disaster</title>
<polygon fill="white" stroke="none" points="-4,4 -4,-224.5 130,-224.5 130,4 -4,4"/>
<g id="clust1" class="cluster">
<title>cluster_0</title>
<polygon fill="none" stroke="blue" points="28,-8 28,-156.5 98,-156.5 98,-8 28,-8"/>
<text text-anchor="middle" x="63" y="-15.2" font-family="Times,serif" font-size="14.00">i=1,2...</text>
</g>
<!-- alpha -->
<g id="node1" class="node">
<title>alpha</title>
<ellipse fill="none" stroke="black" cx="27" cy="-202.5" rx="27" ry="18"/>
<text text-anchor="start" x="23.25" y="-197.45" font-family="Times,serif" font-size="14.00">α</text>
</g>
<!-- pi -->
<g id="node3" class="node">
<title>pi</title>
<ellipse fill="none" stroke="black" cx="63" cy="-130.5" rx="27" ry="18"/>
<text text-anchor="start" x="58.12" y="-126.45" font-family="Times,serif" font-size="14.00">p</text>
<text text-anchor="start" x="64.88" y="-126.45" font-family="Times,serif" baseline-shift="sub" font-size="14.00">i</text>
</g>
<!-- alpha&#45;&gt;pi -->
<g id="edge1" class="edge">
<title>alpha&#45;&gt;pi</title>
<path fill="none" stroke="black" d="M35.35,-185.26C39.58,-177.05 44.81,-166.87 49.58,-157.59"/>
<polygon fill="black" stroke="black" points="52.54,-159.49 54,-148.99 46.32,-156.29 52.54,-159.49"/>
</g>
<!-- beta -->
<g id="node2" class="node">
<title>beta</title>
<ellipse fill="none" stroke="black" cx="99" cy="-202.5" rx="27" ry="18"/>
<text text-anchor="start" x="95.62" y="-197.45" font-family="Times,serif" font-size="14.00">β</text>
</g>
<!-- beta&#45;&gt;pi -->
<g id="edge2" class="edge">
<title>beta&#45;&gt;pi</title>
<path fill="none" stroke="black" d="M90.65,-185.26C86.42,-177.05 81.19,-166.87 76.42,-157.59"/>
<polygon fill="black" stroke="black" points="79.68,-156.29 72,-148.99 73.46,-159.49 79.68,-156.29"/>
</g>
<!-- xi -->
<g id="node4" class="node">
<title>xi</title>
<ellipse fill="lightgrey" stroke="black" cx="63" cy="-58.5" rx="27" ry="18"/>
<text text-anchor="start" x="58.12" y="-54.45" font-family="Times,serif" font-size="14.00">x</text>
<text text-anchor="start" x="64.88" y="-54.45" font-family="Times,serif" baseline-shift="sub" font-size="14.00">i</text>
</g>
<!-- pi&#45;&gt;xi -->
<g id="edge3" class="edge">
<title>pi&#45;&gt;xi</title>
<path fill="none" stroke="black" d="M63,-112.2C63,-104.91 63,-96.23 63,-88.04"/>
<polygon fill="black" stroke="black" points="66.5,-88.12 63,-78.12 59.5,-88.12 66.5,-88.12"/>
</g>
</g>
</svg>