<?xml version="1.0" encoding="UTF-8" standalone="no"?>
<!DOCTYPE svg PUBLIC "-//W3C//DTD SVG 1.1//EN"
 "http://www.w3.org/Graphics/SVG/1.1/DTD/svg11.dtd">
<!-- Generated by graphviz version 9.0.0 (20230911.1827)
 -->
<!-- Title: gp Pages: 1 -->
<svg width="170pt" height="188pt"
 viewBox="0.00 0.00 170.00 188.00" xmlns="http://www.w3.org/2000/svg" xmlns:xlink="http://www.w3.org/1999/xlink">
<g id="graph0" class="graph" transform="scale(1 1) rotate(0) translate(4 184)">
<title>gp</title>
<polygon fill="white" stroke="none" points="-4,4 -4,-184 166,-184 166,4 -4,4"/>
<!-- sigma -->
<g id="node1" class="node">
<title>sigma</title>
<ellipse fill="lightgrey" stroke="black" cx="27" cy="-90" rx="27" ry="18"/>
<text text-anchor="start" x="23.25" y="-84.95" font-family="Times,serif" font-size="14.00">σ</text>
</g>
<!-- y1n -->
<g id="node5" class="node">
<title>y1n</title>
<ellipse fill="lightgrey" stroke="black" cx="63" cy="-18" rx="27" ry="18"/>
<text text-anchor="start" x="52.12" y="-13.95" font-family="Times,serif" font-weight="bold" font-size="14.00">y</text>
<text text-anchor="start" x="58.88" y="-13.95" font-family="Times,serif" baseline-shift="sub" font-size="14.00">1:n</text>
</g>
<!-- sigma&#45;&gt;y1n -->
<g id="edge4" class="edge">
<title>sigma&#45;&gt;y1n</title>
<path fill="none" stroke="black" d="M35.35,-72.76C39.58,-64.55 44.81,-54.37 49.58,-45.09"/>
<polygon fill="black" stroke="black" points="52.54,-46.99 54,-36.49 46.32,-43.79 52.54,-46.99"/>
</g>
<!-- theta -->
<g id="node2" class="node">
<title>theta</title>
<ellipse fill="lightgrey" stroke="black" cx="63" cy="-162" rx="27" ry="18"/>
<text text-anchor="start" x="59.62" y="-156.95" font-family="Times,serif" font-size="14.00">θ</text>
</g>
<!-- f -->
<g id="node4" class="node">
<title>f</title>
<ellipse fill="none" stroke="black" cx="99" cy="-90" rx="27" ry="18"/>
<text text-anchor="start" x="89.25" y="-85.95" font-family="Times,serif" font-weight="bold" font-size="14.00">f</text>
<text text-anchor="start" x="93.75" y="-85.95" font-family="Times,serif" baseline-shift="sub" font-size="14.00">1:n</text>
</g>
<!-- theta&#45;&gt;f -->
<g id="edge1" class="edge">
<title>theta&#45;&gt;f</title>
<path fill="none" stroke="black" d="M71.35,-144.76C75.58,-136.55 80.81,-126.37 85.58,-117.09"/>
<polygon fill="black" stroke="black" points="88.54,-118.99 90,-108.49 82.32,-115.79 88.54,-118.99"/>
</g>
<!-- x1n -->
<g id="node3" class="node">
<title>x1n</title>
<ellipse fill="lightgrey" stroke="black" cx="135" cy="-162" rx="27" ry="18"/>
<text text-anchor="start" x="124.12" y="-157.95" font-family="Times,serif" font-weight="bold" font-size="14.00">x</text>
<text text-anchor="start" x="130.88" y="-157.95" font-family="Times,serif" baseline-shift="sub" font-size="14.00">1:n</text>
</g>
<!-- x1n&#45;&gt;f -->
<g id="edge2" class="edge">
<title>x1n&#45;&gt;f</title>
<path fill="none" stroke="black" d="M126.65,-144.76C122.42,-136.55 117.19,-126.37 112.42,-117.09"/>
<polygon fill="black" stroke="black" points="115.68,-115.79 108,-108.49 109.46,-118.99 115.68,-115.79"/>
</g>
<!-- f&#45;&gt;y1n -->
<g id="edge3" class="edge">
<title>f&#45;&gt;y1n</title>
<path fill="none" stroke="black" d="M90.65,-72.76C86.42,-64.55 81.19,-54.37 76.42,-45.09"/>
<polygon fill="black" stroke="black" points="79.68,-43.79 72,-36.49 73.46,-46.99 79.68,-43.79"/>
</g>
</g>
</svg>