<?xml version="1.0" encoding="utf-8" standalone="no"?>
<!DOCTYPE svg PUBLIC "-//W3C//DTD SVG 1.1//EN"
  "http://www.w3.org/Graphics/SVG/1.1/DTD/svg11.dtd">
<svg xmlns:xlink="http://www.w3.org/1999/xlink" width="402.632875pt" height="309.639375pt" viewBox="0 0 402.632875 309.639375" xmlns="http://www.w3.org/2000/svg" version="1.1">
 <metadata>
  <rdf:RDF xmlns:dc="http://purl.org/dc/elements/1.1/" xmlns:cc="http://creativecommons.org/ns#" xmlns:rdf="http://www.w3.org/1999/02/22-rdf-syntax-ns#">
   <cc:Work>
    <dc:type rdf:resource="http://purl.org/dc/dcmitype/StillImage"/>
    <dc:date>2023-10-15T22:12:11.425116</dc:date>
    <dc:format>image/svg+xml</dc:format>
    <dc:creator>
     <cc:Agent>
      <dc:title>Matplotlib v3.7.1, https://matplotlib.org/</dc:title>
     </cc:Agent>
    </dc:creator>
   </cc:Work>
  </rdf:RDF>
 </metadata>
 <defs>
  <style type="text/css">*{stroke-linejoin: round; stroke-linecap: butt}</style>
 </defs>
 <g id="figure_1">
  <g id="patch_1">
   <path d="M 0 309.639375 
L 402.632875 309.639375 
L 402.632875 0 
L 0 0 
z
" style="fill: #ffffff"/>
  </g>
  <g id="axes_1">
   <g id="patch_2">
    <path d="M 38.312875 273.312 
L 395.432875 273.312 
L 395.432875 7.2 
L 38.312875 7.2 
z
" style="fill: #ffffff"/>
   </g>
   <g id="matplotlib.axis_1">
    <g id="xtick_1">
     <g id="line2d_1">
      <defs>
       <path id="mcc1c82b850" d="M 0 0 
L 0 4.8 
" style="stroke: #262626"/>
      </defs>
      <g>
       <use xlink:href="#mcc1c82b850" x="54.545602" y="273.312" style="fill: #262626; stroke: #262626"/>
      </g>
     </g>
     <g id="text_1">
      <!-- 0.0 -->
      <g style="fill: #262626" transform="translate(48.429602 287.910875) scale(0.088 -0.088)">
       <defs>
        <path id="ArialMT-30" d="M 266 2259 
Q 266 3072 433 3567 
Q 600 4063 929 4331 
Q 1259 4600 1759 4600 
Q 2128 4600 2406 4451 
Q 2684 4303 2865 4023 
Q 3047 3744 3150 3342 
Q 3253 2941 3253 2259 
Q 3253 1453 3087 958 
Q 2922 463 2592 192 
Q 2263 -78 1759 -78 
Q 1097 -78 719 397 
Q 266 969 266 2259 
z
M 844 2259 
Q 844 1131 1108 757 
Q 1372 384 1759 384 
Q 2147 384 2411 759 
Q 2675 1134 2675 2259 
Q 2675 3391 2411 3762 
Q 2147 4134 1753 4134 
Q 1366 4134 1134 3806 
Q 844 3388 844 2259 
z
" transform="scale(0.015625)"/>
        <path id="ArialMT-2e" d="M 581 0 
L 581 641 
L 1222 641 
L 1222 0 
L 581 0 
z
" transform="scale(0.015625)"/>
       </defs>
       <use xlink:href="#ArialMT-30"/>
       <use xlink:href="#ArialMT-2e" x="55.615234"/>
       <use xlink:href="#ArialMT-30" x="83.398438"/>
      </g>
     </g>
    </g>
    <g id="xtick_2">
     <g id="line2d_2">
      <g>
       <use xlink:href="#mcc1c82b850" x="119.476511" y="273.312" style="fill: #262626; stroke: #262626"/>
      </g>
     </g>
     <g id="text_2">
      <!-- 0.2 -->
      <g style="fill: #262626" transform="translate(113.360511 287.910875) scale(0.088 -0.088)">
       <defs>
        <path id="ArialMT-32" d="M 3222 541 
L 3222 0 
L 194 0 
Q 188 203 259 391 
Q 375 700 629 1000 
Q 884 1300 1366 1694 
Q 2113 2306 2375 2664 
Q 2638 3022 2638 3341 
Q 2638 3675 2398 3904 
Q 2159 4134 1775 4134 
Q 1369 4134 1125 3890 
Q 881 3647 878 3216 
L 300 3275 
Q 359 3922 746 4261 
Q 1134 4600 1788 4600 
Q 2447 4600 2831 4234 
Q 3216 3869 3216 3328 
Q 3216 3053 3103 2787 
Q 2991 2522 2730 2228 
Q 2469 1934 1863 1422 
Q 1356 997 1212 845 
Q 1069 694 975 541 
L 3222 541 
z
" transform="scale(0.015625)"/>
       </defs>
       <use xlink:href="#ArialMT-30"/>
       <use xlink:href="#ArialMT-2e" x="55.615234"/>
       <use xlink:href="#ArialMT-32" x="83.398438"/>
      </g>
     </g>
    </g>
    <g id="xtick_3">
     <g id="line2d_3">
      <g>
       <use xlink:href="#mcc1c82b850" x="184.40742" y="273.312" style="fill: #262626; stroke: #262626"/>
      </g>
     </g>
     <g id="text_3">
      <!-- 0.4 -->
      <g style="fill: #262626" transform="translate(178.29142 287.910875) scale(0.088 -0.088)">
       <defs>
        <path id="ArialMT-34" d="M 2069 0 
L 2069 1097 
L 81 1097 
L 81 1613 
L 2172 4581 
L 2631 4581 
L 2631 1613 
L 3250 1613 
L 3250 1097 
L 2631 1097 
L 2631 0 
L 2069 0 
z
M 2069 1613 
L 2069 3678 
L 634 1613 
L 2069 1613 
z
" transform="scale(0.015625)"/>
       </defs>
       <use xlink:href="#ArialMT-30"/>
       <use xlink:href="#ArialMT-2e" x="55.615234"/>
       <use xlink:href="#ArialMT-34" x="83.398438"/>
      </g>
     </g>
    </g>
    <g id="xtick_4">
     <g id="line2d_4">
      <g>
       <use xlink:href="#mcc1c82b850" x="249.33833" y="273.312" style="fill: #262626; stroke: #262626"/>
      </g>
     </g>
     <g id="text_4">
      <!-- 0.6 -->
      <g style="fill: #262626" transform="translate(243.22233 287.910875) scale(0.088 -0.088)">
       <defs>
        <path id="ArialMT-36" d="M 3184 3459 
L 2625 3416 
Q 2550 3747 2413 3897 
Q 2184 4138 1850 4138 
Q 1581 4138 1378 3988 
Q 1113 3794 959 3422 
Q 806 3050 800 2363 
Q 1003 2672 1297 2822 
Q 1591 2972 1913 2972 
Q 2475 2972 2870 2558 
Q 3266 2144 3266 1488 
Q 3266 1056 3080 686 
Q 2894 316 2569 119 
Q 2244 -78 1831 -78 
Q 1128 -78 684 439 
Q 241 956 241 2144 
Q 241 3472 731 4075 
Q 1159 4600 1884 4600 
Q 2425 4600 2770 4297 
Q 3116 3994 3184 3459 
z
M 888 1484 
Q 888 1194 1011 928 
Q 1134 663 1356 523 
Q 1578 384 1822 384 
Q 2178 384 2434 671 
Q 2691 959 2691 1453 
Q 2691 1928 2437 2201 
Q 2184 2475 1800 2475 
Q 1419 2475 1153 2201 
Q 888 1928 888 1484 
z
" transform="scale(0.015625)"/>
       </defs>
       <use xlink:href="#ArialMT-30"/>
       <use xlink:href="#ArialMT-2e" x="55.615234"/>
       <use xlink:href="#ArialMT-36" x="83.398438"/>
      </g>
     </g>
    </g>
    <g id="xtick_5">
     <g id="line2d_5">
      <g>
       <use xlink:href="#mcc1c82b850" x="314.269239" y="273.312" style="fill: #262626; stroke: #262626"/>
      </g>
     </g>
     <g id="text_5">
      <!-- 0.8 -->
      <g style="fill: #262626" transform="translate(308.153239 287.910875) scale(0.088 -0.088)">
       <defs>
        <path id="ArialMT-38" d="M 1131 2484 
Q 781 2613 612 2850 
Q 444 3088 444 3419 
Q 444 3919 803 4259 
Q 1163 4600 1759 4600 
Q 2359 4600 2725 4251 
Q 3091 3903 3091 3403 
Q 3091 3084 2923 2848 
Q 2756 2613 2416 2484 
Q 2838 2347 3058 2040 
Q 3278 1734 3278 1309 
Q 3278 722 2862 322 
Q 2447 -78 1769 -78 
Q 1091 -78 675 323 
Q 259 725 259 1325 
Q 259 1772 486 2073 
Q 713 2375 1131 2484 
z
M 1019 3438 
Q 1019 3113 1228 2906 
Q 1438 2700 1772 2700 
Q 2097 2700 2305 2904 
Q 2513 3109 2513 3406 
Q 2513 3716 2298 3927 
Q 2084 4138 1766 4138 
Q 1444 4138 1231 3931 
Q 1019 3725 1019 3438 
z
M 838 1322 
Q 838 1081 952 856 
Q 1066 631 1291 507 
Q 1516 384 1775 384 
Q 2178 384 2440 643 
Q 2703 903 2703 1303 
Q 2703 1709 2433 1975 
Q 2163 2241 1756 2241 
Q 1359 2241 1098 1978 
Q 838 1716 838 1322 
z
" transform="scale(0.015625)"/>
       </defs>
       <use xlink:href="#ArialMT-30"/>
       <use xlink:href="#ArialMT-2e" x="55.615234"/>
       <use xlink:href="#ArialMT-38" x="83.398438"/>
      </g>
     </g>
    </g>
    <g id="xtick_6">
     <g id="line2d_6">
      <g>
       <use xlink:href="#mcc1c82b850" x="379.200148" y="273.312" style="fill: #262626; stroke: #262626"/>
      </g>
     </g>
     <g id="text_6">
      <!-- 1.0 -->
      <g style="fill: #262626" transform="translate(373.084148 287.910875) scale(0.088 -0.088)">
       <defs>
        <path id="ArialMT-31" d="M 2384 0 
L 1822 0 
L 1822 3584 
Q 1619 3391 1289 3197 
Q 959 3003 697 2906 
L 697 3450 
Q 1169 3672 1522 3987 
Q 1875 4303 2022 4600 
L 2384 4600 
L 2384 0 
z
" transform="scale(0.015625)"/>
       </defs>
       <use xlink:href="#ArialMT-31"/>
       <use xlink:href="#ArialMT-2e" x="55.615234"/>
       <use xlink:href="#ArialMT-30" x="83.398438"/>
      </g>
     </g>
    </g>
    <g id="text_7">
     <!-- $x$ -->
     <g style="fill: #262626" transform="translate(213.992875 300.531375) scale(0.096 -0.096)">
      <defs>
       <path id="DejaVuSans-Oblique-78" d="M 3841 3500 
L 2234 1784 
L 3219 0 
L 2559 0 
L 1819 1388 
L 531 0 
L -166 0 
L 1556 1844 
L 641 3500 
L 1300 3500 
L 1972 2234 
L 3144 3500 
L 3841 3500 
z
" transform="scale(0.015625)"/>
      </defs>
      <use xlink:href="#DejaVuSans-Oblique-78" transform="translate(0 0.3125)"/>
     </g>
    </g>
   </g>
   <g id="matplotlib.axis_2">
    <g id="ytick_1">
     <g id="line2d_7">
      <defs>
       <path id="m66ba1a7b7c" d="M 0 0 
L -4.8 0 
" style="stroke: #262626"/>
      </defs>
      <g>
       <use xlink:href="#m66ba1a7b7c" x="38.312875" y="233.158614" style="fill: #262626; stroke: #262626"/>
      </g>
     </g>
     <g id="text_8">
      <!-- −2 -->
      <g style="fill: #262626" transform="translate(19.9795 236.308051) scale(0.088 -0.088)">
       <defs>
        <path id="ArialMT-2212" d="M 3381 1997 
L 356 1997 
L 356 2522 
L 3381 2522 
L 3381 1997 
z
" transform="scale(0.015625)"/>
       </defs>
       <use xlink:href="#ArialMT-2212"/>
       <use xlink:href="#ArialMT-32" x="58.398438"/>
      </g>
     </g>
    </g>
    <g id="ytick_2">
     <g id="line2d_8">
      <g>
       <use xlink:href="#m66ba1a7b7c" x="38.312875" y="179.305853" style="fill: #262626; stroke: #262626"/>
      </g>
     </g>
     <g id="text_9">
      <!-- −1 -->
      <g style="fill: #262626" transform="translate(19.9795 182.45529) scale(0.088 -0.088)">
       <use xlink:href="#ArialMT-2212"/>
       <use xlink:href="#ArialMT-31" x="58.398438"/>
      </g>
     </g>
    </g>
    <g id="ytick_3">
     <g id="line2d_9">
      <g>
       <use xlink:href="#m66ba1a7b7c" x="38.312875" y="125.453091" style="fill: #262626; stroke: #262626"/>
      </g>
     </g>
     <g id="text_10">
      <!-- 0 -->
      <g style="fill: #262626" transform="translate(25.11925 128.602529) scale(0.088 -0.088)">
       <use xlink:href="#ArialMT-30"/>
      </g>
     </g>
    </g>
    <g id="ytick_4">
     <g id="line2d_10">
      <g>
       <use xlink:href="#m66ba1a7b7c" x="38.312875" y="71.60033" style="fill: #262626; stroke: #262626"/>
      </g>
     </g>
     <g id="text_11">
      <!-- 1 -->
      <g style="fill: #262626" transform="translate(25.11925 74.749768) scale(0.088 -0.088)">
       <use xlink:href="#ArialMT-31"/>
      </g>
     </g>
    </g>
    <g id="ytick_5">
     <g id="line2d_11">
      <g>
       <use xlink:href="#m66ba1a7b7c" x="38.312875" y="17.747569" style="fill: #262626; stroke: #262626"/>
      </g>
     </g>
     <g id="text_12">
      <!-- 2 -->
      <g style="fill: #262626" transform="translate(25.11925 20.897007) scale(0.088 -0.088)">
       <use xlink:href="#ArialMT-32"/>
      </g>
     </g>
    </g>
    <g id="text_13">
     <!-- $y$ -->
     <g style="fill: #262626" transform="translate(13.9635 143.136) rotate(-90) scale(0.096 -0.096)">
      <defs>
       <path id="DejaVuSans-Oblique-79" d="M 1588 -325 
Q 1188 -997 936 -1164 
Q 684 -1331 294 -1331 
L -159 -1331 
L -63 -850 
L 269 -850 
Q 509 -850 678 -719 
Q 847 -588 1056 -206 
L 1234 128 
L 459 3500 
L 1069 3500 
L 1650 819 
L 3256 3500 
L 3859 3500 
L 1588 -325 
z
" transform="scale(0.015625)"/>
      </defs>
      <use xlink:href="#DejaVuSans-Oblique-79" transform="translate(0 0.3125)"/>
     </g>
    </g>
   </g>
   <g id="line2d_12">
    <path d="M 54.545602 185.571168 
L 57.824941 180.780135 
L 61.10428 175.058534 
L 64.383619 168.264073 
L 67.662958 160.509539 
L 70.942296 151.478199 
L 74.221636 142.149755 
L 77.500973 132.391176 
L 80.780313 122.738268 
L 84.059653 113.714733 
L 87.33899 105.517385 
L 90.61833 98.510886 
L 93.89767 92.965507 
L 97.177007 90.018855 
L 100.456344 89.033744 
L 103.735686 89.574541 
L 107.015024 93.261435 
L 110.294361 98.312381 
L 113.573703 105.963907 
L 116.853041 114.484946 
L 120.132378 124.971435 
L 123.41172 135.347208 
L 126.691057 146.435782 
L 129.970395 156.500277 
L 133.249737 166.027484 
L 136.529069 174.404509 
L 139.808412 181.25919 
L 143.087754 186.321477 
L 146.367086 189.80421 
L 149.646428 191.327482 
L 152.92577 190.69798 
L 156.205103 189.073636 
L 159.484445 186.429605 
L 162.763787 182.654105 
L 166.04312 178.510574 
L 169.322462 174.019298 
L 172.601804 170.36205 
L 175.881137 166.363747 
L 179.160479 162.923471 
L 182.439821 160.725413 
L 185.719153 158.445532 
L 188.998496 156.938313 
L 192.277838 154.56973 
L 195.55717 152.261331 
L 198.836512 149.651067 
L 202.115855 146.530543 
L 205.395187 142.579972 
L 208.674529 138.221531 
L 211.953871 133.071652 
L 215.233204 127.891144 
L 218.512556 122.628933 
L 221.791879 117.28525 
L 225.071221 112.943393 
L 228.350563 109.104615 
L 231.629886 105.319416 
L 234.909247 103.392157 
L 238.18857 101.437801 
L 241.467912 100.898458 
L 244.747254 100.628071 
L 248.026597 100.333504 
L 251.305939 100.566076 
L 254.585262 100.461007 
L 257.864623 100.132399 
L 261.143946 99.55363 
L 264.423288 99.12062 
L 267.70263 98.501266 
L 270.981953 97.373769 
L 274.261315 96.433629 
L 277.540637 96.529745 
L 280.81998 96.070752 
L 284.099322 96.013167 
L 287.378664 96.767844 
L 290.658006 97.65151 
L 293.937329 98.531829 
L 297.21669 99.977744 
L 300.496013 101.957411 
L 303.775355 104.0202 
L 307.054697 105.95109 
L 310.33402 107.682556 
L 313.613382 110.051403 
L 316.892705 112.056444 
L 320.172047 113.966407 
L 323.451389 115.613298 
L 326.730731 117.667674 
L 330.010073 119.613028 
L 333.289396 121.7518 
L 336.568738 123.515402 
L 339.84808 126.045429 
L 343.127423 128.334938 
L 346.406765 130.157676 
L 349.686088 132.285685 
L 352.96543 134.335532 
L 356.244772 136.300821 
L 359.524114 137.599208 
L 362.803456 138.961817 
L 366.082798 140.131975 
L 369.362141 141.307911 
L 372.641463 141.396549 
L 375.920806 141.603643 
L 379.200148 142.042189 
" clip-path="url(#p319d1448a7)" style="fill: none; stroke: #ff0000; stroke-width: 0.5; stroke-linecap: round"/>
   </g>
   <g id="line2d_13">
    <path d="M 54.545602 144.351083 
L 57.824941 147.416759 
L 61.10428 149.805005 
L 64.383619 152.437141 
L 67.662958 154.16492 
L 70.942296 155.201523 
L 74.221636 155.718583 
L 77.500973 155.024508 
L 80.780313 154.086352 
L 84.059653 152.383452 
L 87.33899 150.295753 
L 90.61833 147.360114 
L 93.89767 145.716589 
L 97.177007 143.476984 
L 100.456344 142.214317 
L 103.735686 141.408982 
L 107.015024 142.192827 
L 110.294361 143.439355 
L 113.573703 146.083216 
L 116.853041 150.236122 
L 120.132378 154.815889 
L 123.41172 161.287715 
L 126.691057 168.078706 
L 129.970395 175.537505 
L 133.249737 183.053921 
L 136.529069 190.845525 
L 139.808412 197.668326 
L 143.087754 203.792651 
L 146.367086 209.041965 
L 149.646428 212.637962 
L 152.92577 214.642163 
L 156.205103 214.902239 
L 159.484445 213.20349 
L 162.763787 210.03745 
L 166.04312 205.996243 
L 169.322462 200.333119 
L 172.601804 193.609574 
L 175.881137 186.948969 
L 179.160479 179.562444 
L 182.439821 173.321237 
L 185.719153 166.993069 
L 188.998496 161.909048 
L 192.277838 158.153716 
L 195.55717 155.742994 
L 198.836512 155.194391 
L 202.115855 154.986696 
L 205.395187 155.783181 
L 208.674529 157.539391 
L 211.953871 158.862337 
L 215.233204 160.229798 
L 218.512556 160.791623 
L 221.791879 160.460996 
L 225.071221 158.633444 
L 228.350563 155.20673 
L 231.629886 150.677247 
L 234.909247 144.480514 
L 238.18857 137.29078 
L 241.467912 129.049231 
L 244.747254 120.269509 
L 248.026597 111.284282 
L 251.305939 103.150693 
L 254.585262 95.38841 
L 257.864623 88.602507 
L 261.143946 82.558406 
L 264.423288 77.8242 
L 267.70263 75.485447 
L 270.981953 74.128948 
L 274.261315 73.261408 
L 277.540637 75.000673 
L 280.81998 77.26756 
L 284.099322 80.701529 
L 287.378664 85.099292 
L 290.658006 90.264304 
L 293.937329 95.975997 
L 297.21669 102.002596 
L 300.496013 108.209365 
L 303.775355 114.251849 
L 307.054697 119.482394 
L 310.33402 124.356987 
L 313.613382 128.522133 
L 316.892705 131.77414 
L 320.172047 133.485106 
L 323.451389 134.21356 
L 326.730731 134.114129 
L 330.010073 132.796967 
L 333.289396 130.65453 
L 336.568738 128.574969 
L 339.84808 124.631343 
L 343.127423 120.99375 
L 346.406765 116.585366 
L 349.686088 112.367507 
L 352.96543 107.042403 
L 356.244772 102.118237 
L 359.524114 97.09165 
L 362.803456 91.369708 
L 366.082798 85.955095 
L 369.362141 80.455646 
L 372.641463 74.983326 
L 375.920806 69.853247 
L 379.200148 65.219343 
" clip-path="url(#p319d1448a7)" style="fill: none; stroke: #ff0000; stroke-width: 0.5; stroke-linecap: round"/>
   </g>
   <g id="line2d_14">
    <path d="M 54.545602 110.707251 
L 57.824941 104.107884 
L 61.10428 99.067719 
L 64.383619 93.828494 
L 67.662958 90.238372 
L 70.942296 86.741932 
L 74.221636 84.391116 
L 77.500973 82.697888 
L 80.780313 81.412359 
L 84.059653 81.459518 
L 87.33899 82.093125 
L 90.61833 83.440204 
L 93.89767 85.910716 
L 97.177007 89.944347 
L 100.456344 93.844204 
L 103.735686 99.08756 
L 107.015024 105.780283 
L 110.294361 113.414883 
L 113.573703 121.356436 
L 116.853041 130.461904 
L 120.132378 140.092656 
L 123.41172 149.624918 
L 126.691057 158.856977 
L 129.970395 168.663144 
L 133.249737 177.911595 
L 136.529069 186.104021 
L 139.808412 193.152841 
L 143.087754 199.227009 
L 146.367086 203.197785 
L 149.646428 205.516136 
L 152.92577 206.214726 
L 156.205103 205.670396 
L 159.484445 202.795099 
L 162.763787 199.772392 
L 166.04312 194.403017 
L 169.322462 188.950319 
L 172.601804 182.873262 
L 175.881137 176.2384 
L 179.160479 169.981619 
L 182.439821 163.458826 
L 185.719153 157.954244 
L 188.998496 153.303772 
L 192.277838 149.520775 
L 195.55717 146.16848 
L 198.836512 144.176987 
L 202.115855 142.852347 
L 205.395187 142.120923 
L 208.674529 142.365661 
L 211.953871 143.084243 
L 215.233204 143.818284 
L 218.512556 144.332302 
L 221.791879 144.748155 
L 225.071221 144.345822 
L 228.350563 143.649722 
L 231.629886 141.730334 
L 234.909247 139.012857 
L 238.18857 135.46365 
L 241.467912 130.700002 
L 244.747254 124.846043 
L 248.026597 118.375335 
L 251.305939 111.586051 
L 254.585262 104.054677 
L 257.864623 96.660146 
L 261.143946 88.842968 
L 264.423288 81.903592 
L 267.70263 75.536173 
L 270.981953 69.778791 
L 274.261315 65.024979 
L 277.540637 61.563932 
L 280.81998 59.363941 
L 284.099322 58.021354 
L 287.378664 57.713469 
L 290.658006 59.04235 
L 293.937329 61.468361 
L 297.21669 64.132724 
L 300.496013 68.261399 
L 303.775355 71.755399 
L 307.054697 75.962743 
L 310.33402 79.659812 
L 313.613382 83.654103 
L 316.892705 86.446415 
L 320.172047 88.78088 
L 323.451389 90.425385 
L 326.730731 91.540303 
L 330.010073 91.58605 
L 333.289396 91.770053 
L 336.568738 91.268639 
L 339.84808 90.964939 
L 343.127423 90.319479 
L 346.406765 90.9762 
L 349.686088 91.866202 
L 352.96543 94.152769 
L 356.244772 97.203857 
L 359.524114 101.033808 
L 362.803456 105.947848 
L 366.082798 111.479656 
L 369.362141 117.489574 
L 372.641463 122.85379 
L 375.920806 128.23042 
L 379.200148 132.459259 
" clip-path="url(#p319d1448a7)" style="fill: none; stroke: #ff0000; stroke-width: 0.5; stroke-linecap: round"/>
   </g>
   <g id="line2d_15">
    <path d="M 54.545602 122.38259 
L 57.824941 122.938597 
L 61.10428 123.302997 
L 64.383619 123.733201 
L 67.662958 123.074465 
L 70.942296 122.160789 
L 74.221636 120.505547 
L 77.500973 119.079515 
L 80.780313 117.128403 
L 84.059653 114.57199 
L 87.33899 112.439126 
L 90.61833 110.477874 
L 93.89767 108.601787 
L 97.177007 107.876651 
L 100.456344 107.818608 
L 103.735686 109.686392 
L 107.015024 111.959407 
L 110.294361 115.85049 
L 113.573703 121.095407 
L 116.853041 127.658407 
L 120.132378 135.460975 
L 123.41172 143.653957 
L 126.691057 152.814397 
L 129.970395 161.773401 
L 133.249737 170.913093 
L 136.529069 179.374537 
L 139.808412 186.833875 
L 143.087754 193.923237 
L 146.367086 198.901932 
L 149.646428 202.770223 
L 152.92577 204.963029 
L 156.205103 205.793989 
L 159.484445 205.02012 
L 162.763787 202.735094 
L 166.04312 199.417509 
L 169.322462 194.651442 
L 172.601804 188.739623 
L 175.881137 182.298977 
L 179.160479 174.659957 
L 182.439821 166.533026 
L 185.719153 159.001514 
L 188.998496 150.873043 
L 192.277838 143.254164 
L 195.55717 136.668371 
L 198.836512 130.783992 
L 202.115855 125.379585 
L 205.395187 121.588532 
L 208.674529 118.94745 
L 211.953871 117.615791 
L 215.233204 117.11545 
L 218.512556 117.28098 
L 221.791879 118.73961 
L 225.071221 119.456055 
L 228.350563 121.069298 
L 231.629886 122.431587 
L 234.909247 122.731942 
L 238.18857 122.775827 
L 241.467912 122.336529 
L 244.747254 120.116209 
L 248.026597 118.062969 
L 251.305939 114.516403 
L 254.585262 110.614383 
L 257.864623 105.84115 
L 261.143946 100.895629 
L 264.423288 95.644189 
L 267.70263 90.708493 
L 270.981953 85.772916 
L 274.261315 81.255213 
L 277.540637 78.014334 
L 280.81998 74.798364 
L 284.099322 73.799727 
L 287.378664 72.974455 
L 290.658006 73.386324 
L 293.937329 75.181055 
L 297.21669 77.913416 
L 300.496013 82.124713 
L 303.775355 86.756325 
L 307.054697 91.778116 
L 310.33402 97.335555 
L 313.613382 102.612413 
L 316.892705 107.570575 
L 320.172047 111.677134 
L 323.451389 115.579823 
L 326.730731 117.240053 
L 330.010073 119.026065 
L 333.289396 118.739748 
L 336.568738 117.680798 
L 339.84808 115.430135 
L 343.127423 112.689501 
L 346.406765 109.090121 
L 349.686088 105.036919 
L 352.96543 100.621183 
L 356.244772 97.05325 
L 359.524114 93.599184 
L 362.803456 90.637192 
L 366.082798 88.709935 
L 369.362141 87.306472 
L 372.641463 87.445472 
L 375.920806 88.113678 
L 379.200148 89.72267 
" clip-path="url(#p319d1448a7)" style="fill: none; stroke: #ff0000; stroke-width: 0.5; stroke-linecap: round"/>
   </g>
   <g id="line2d_16">
    <path d="M 54.545602 47.141284 
L 57.824941 51.053203 
L 61.10428 54.920428 
L 64.383619 58.515308 
L 67.662958 62.711931 
L 70.942296 65.905351 
L 74.221636 69.665431 
L 77.500973 72.594955 
L 80.780313 75.375753 
L 84.059653 78.043505 
L 87.33899 80.705069 
L 90.61833 83.45147 
L 93.89767 86.625247 
L 97.177007 90.374242 
L 100.456344 94.378147 
L 103.735686 99.23864 
L 107.015024 104.639152 
L 110.294361 111.913254 
L 113.573703 120.051813 
L 116.853041 129.480178 
L 120.132378 139.892145 
L 123.41172 151.366545 
L 126.691057 164.058598 
L 129.970395 177.280627 
L 133.249737 190.433724 
L 136.529069 204.329131 
L 139.808412 216.955988 
L 143.087754 229.02287 
L 146.367086 239.745456 
L 149.646428 248.797252 
L 152.92577 255.296452 
L 156.205103 259.647437 
L 159.484445 261.216 
L 162.763787 260.372137 
L 166.04312 256.733063 
L 169.322462 251.159206 
L 172.601804 242.883789 
L 175.881137 232.666135 
L 179.160479 221.097856 
L 182.439821 208.621856 
L 185.719153 194.933217 
L 188.998496 181.779953 
L 192.277838 167.942472 
L 195.55717 154.500471 
L 198.836512 142.025368 
L 202.115855 130.301938 
L 205.395187 120.52061 
L 208.674529 111.656716 
L 211.953871 103.837888 
L 215.233204 97.726935 
L 218.512556 93.496009 
L 221.791879 90.529231 
L 225.071221 88.770704 
L 228.350563 88.190613 
L 231.629886 89.316133 
L 234.909247 90.082693 
L 238.18857 92.234499 
L 241.467912 94.877623 
L 244.747254 97.657974 
L 248.026597 100.901983 
L 251.305939 104.593273 
L 254.585262 106.897933 
L 257.864623 110.140538 
L 261.143946 112.661428 
L 264.423288 114.899088 
L 267.70263 116.735277 
L 270.981953 118.124668 
L 274.261315 118.839989 
L 277.540637 119.038943 
L 280.81998 118.617978 
L 284.099322 117.678544 
L 287.378664 116.436053 
L 290.658006 115.168159 
L 293.937329 113.472574 
L 297.21669 111.868735 
L 300.496013 110.500558 
L 303.775355 109.015317 
L 307.054697 108.249193 
L 310.33402 107.456348 
L 313.613382 107.117931 
L 316.892705 107.179987 
L 320.172047 107.295976 
L 323.451389 107.339414 
L 326.730731 107.284909 
L 330.010073 106.806093 
L 333.289396 106.426697 
L 336.568738 106.093836 
L 339.84808 105.157423 
L 343.127423 103.596469 
L 346.406765 101.999401 
L 349.686088 100.372161 
L 352.96543 98.640947 
L 356.244772 96.596421 
L 359.524114 94.292995 
L 362.803456 92.832278 
L 366.082798 91.198037 
L 369.362141 90.180722 
L 372.641463 89.50088 
L 375.920806 89.413784 
L 379.200148 89.715576 
" clip-path="url(#p319d1448a7)" style="fill: none; stroke: #ff0000; stroke-width: 0.5; stroke-linecap: round"/>
   </g>
   <g id="line2d_17">
    <path d="M 54.545602 135.018489 
L 57.824941 135.48974 
L 61.10428 135.985643 
L 64.383619 135.845368 
L 67.662958 135.881565 
L 70.942296 135.784762 
L 74.221636 135.497592 
L 77.500973 135.229301 
L 80.780313 134.913377 
L 84.059653 134.968139 
L 87.33899 135.036493 
L 90.61833 135.31404 
L 93.89767 135.455658 
L 97.177007 136.113437 
L 100.456344 137.092091 
L 103.735686 138.394382 
L 107.015024 140.03037 
L 110.294361 141.960267 
L 113.573703 144.435279 
L 116.853041 148.097772 
L 120.132378 152.082111 
L 123.41172 157.267643 
L 126.691057 162.965022 
L 129.970395 169.419448 
L 133.249737 176.746433 
L 136.529069 184.79773 
L 139.808412 192.969865 
L 143.087754 201.440031 
L 146.367086 209.138223 
L 149.646428 215.87322 
L 152.92577 222.391744 
L 156.205103 226.774597 
L 159.484445 229.680509 
L 162.763787 230.218535 
L 166.04312 229.139966 
L 169.322462 225.734244 
L 172.601804 221.315999 
L 175.881137 215.092046 
L 179.160479 206.639457 
L 182.439821 197.941974 
L 185.719153 188.228508 
L 188.998496 178.210043 
L 192.277838 167.959263 
L 195.55717 157.878113 
L 198.836512 147.901308 
L 202.115855 138.252597 
L 205.395187 129.911298 
L 208.674529 121.755742 
L 211.953871 114.583645 
L 215.233204 107.947337 
L 218.512556 102.527653 
L 221.791879 98.578067 
L 225.071221 95.363107 
L 228.350563 93.094768 
L 231.629886 91.698162 
L 234.909247 91.693841 
L 238.18857 92.54865 
L 241.467912 94.394633 
L 244.747254 96.435124 
L 248.026597 99.129877 
L 251.305939 101.601392 
L 254.585262 104.555271 
L 257.864623 106.905248 
L 261.143946 109.311729 
L 264.423288 110.679422 
L 267.70263 111.882256 
L 270.981953 111.954509 
L 274.261315 111.531139 
L 277.540637 110.257509 
L 280.81998 108.334769 
L 284.099322 105.633638 
L 287.378664 102.215383 
L 290.658006 98.743018 
L 293.937329 95.261806 
L 297.21669 91.39018 
L 300.496013 88.023924 
L 303.775355 84.922212 
L 307.054697 82.383397 
L 310.33402 80.042946 
L 313.613382 78.456636 
L 316.892705 77.582455 
L 320.172047 77.383671 
L 323.451389 77.650116 
L 326.730731 78.024663 
L 330.010073 78.869124 
L 333.289396 80.012937 
L 336.568738 80.968976 
L 339.84808 81.689869 
L 343.127423 82.553745 
L 346.406765 82.557828 
L 349.686088 83.057769 
L 352.96543 83.766462 
L 356.244772 84.184676 
L 359.524114 85.151465 
L 362.803456 87.199294 
L 366.082798 88.794204 
L 369.362141 92.134595 
L 372.641463 95.523937 
L 375.920806 100.070942 
L 379.200148 105.160857 
" clip-path="url(#p319d1448a7)" style="fill: none; stroke: #ff0000; stroke-width: 0.5; stroke-linecap: round"/>
   </g>
   <g id="line2d_18">
    <path d="M 54.545602 44.578437 
L 57.824941 47.058816 
L 61.10428 49.558634 
L 64.383619 52.270394 
L 67.662958 55.127215 
L 70.942296 58.541867 
L 74.221636 62.458633 
L 77.500973 66.938308 
L 80.780313 71.997723 
L 84.059653 77.510095 
L 87.33899 82.836002 
L 90.61833 89.058781 
L 93.89767 95.093281 
L 97.177007 100.922362 
L 100.456344 106.393746 
L 103.735686 112.104893 
L 107.015024 116.433641 
L 110.294361 121.020885 
L 113.573703 125.125766 
L 116.853041 128.610409 
L 120.132378 131.896308 
L 123.41172 134.909857 
L 126.691057 137.537233 
L 129.970395 140.753226 
L 133.249737 143.998977 
L 136.529069 147.188793 
L 139.808412 150.307122 
L 143.087754 154.204376 
L 146.367086 157.50059 
L 149.646428 160.909672 
L 152.92577 164.672836 
L 156.205103 167.558363 
L 159.484445 169.72628 
L 162.763787 171.964128 
L 166.04312 173.470965 
L 169.322462 174.128732 
L 172.601804 173.664138 
L 175.881137 172.797434 
L 179.160479 170.584655 
L 182.439821 167.499625 
L 185.719153 163.114314 
L 188.998496 158.04925 
L 192.277838 151.917183 
L 195.55717 144.871866 
L 198.836512 136.680415 
L 202.115855 127.915561 
L 205.395187 118.818658 
L 208.674529 109.985447 
L 211.953871 100.572271 
L 215.233204 91.572196 
L 218.512556 83.118629 
L 221.791879 75.924516 
L 225.071221 70.123165 
L 228.350563 65.308141 
L 231.629886 62.884121 
L 234.909247 62.278918 
L 238.18857 63.361468 
L 241.467912 66.506356 
L 244.747254 71.913961 
L 248.026597 78.560437 
L 251.305939 86.716394 
L 254.585262 95.548185 
L 257.864623 105.271728 
L 261.143946 114.177752 
L 264.423288 122.93429 
L 267.70263 130.266639 
L 270.981953 136.286123 
L 274.261315 140.051553 
L 277.540637 141.733691 
L 280.81998 141.9329 
L 284.099322 139.932884 
L 287.378664 136.741261 
L 290.658006 132.16128 
L 293.937329 126.737019 
L 297.21669 121.303115 
L 300.496013 116.123812 
L 303.775355 111.083895 
L 307.054697 107.244922 
L 310.33402 104.602131 
L 313.613382 102.958108 
L 316.892705 102.045083 
L 320.172047 102.091497 
L 323.451389 103.219413 
L 326.730731 104.903713 
L 330.010073 106.816532 
L 333.289396 108.557861 
L 336.568738 110.840859 
L 339.84808 112.501794 
L 343.127423 113.869388 
L 346.406765 115.059625 
L 349.686088 116.168852 
L 352.96543 116.872293 
L 356.244772 117.174161 
L 359.524114 117.54591 
L 362.803456 116.772415 
L 366.082798 117.073489 
L 369.362141 116.578284 
L 372.641463 116.309094 
L 375.920806 116.148824 
L 379.200148 116.10559 
" clip-path="url(#p319d1448a7)" style="fill: none; stroke: #ff0000; stroke-width: 0.5; stroke-linecap: round"/>
   </g>
   <g id="line2d_19">
    <path d="M 54.545602 247.8933 
L 57.824941 236.898079 
L 61.10428 226.287793 
L 64.383619 215.457355 
L 67.662958 205.248529 
L 70.942296 195.688507 
L 74.221636 186.724277 
L 77.500973 177.42605 
L 80.780313 170.32601 
L 84.059653 164.265638 
L 87.33899 158.842645 
L 90.61833 154.940397 
L 93.89767 152.087224 
L 97.177007 150.872744 
L 100.456344 151.30209 
L 103.735686 152.937284 
L 107.015024 155.870792 
L 110.294361 160.040987 
L 113.573703 165.742264 
L 116.853041 172.279658 
L 120.132378 178.794821 
L 123.41172 186.210832 
L 126.691057 192.803055 
L 129.970395 199.719789 
L 133.249737 205.503951 
L 136.529069 209.411704 
L 139.808412 211.995197 
L 143.087754 213.135672 
L 146.367086 211.762096 
L 149.646428 208.924143 
L 152.92577 204.066152 
L 156.205103 198.032538 
L 159.484445 190.967693 
L 162.763787 182.900052 
L 166.04312 175.470348 
L 169.322462 167.875559 
L 172.601804 161.33404 
L 175.881137 155.727647 
L 179.160479 152.224055 
L 182.439821 150.203577 
L 185.719153 150.207254 
L 188.998496 151.749767 
L 192.277838 155.183972 
L 195.55717 159.52153 
L 198.836512 164.819996 
L 202.115855 170.921092 
L 205.395187 176.885138 
L 208.674529 182.146977 
L 211.953871 185.993466 
L 215.233204 188.461218 
L 218.512556 190.362728 
L 221.791879 189.761596 
L 225.071221 187.484979 
L 228.350563 183.787313 
L 231.629886 177.998843 
L 234.909247 171.524583 
L 238.18857 163.646299 
L 241.467912 155.26834 
L 244.747254 147.106088 
L 248.026597 138.062295 
L 251.305939 130.075484 
L 254.585262 122.070606 
L 257.864623 114.662096 
L 261.143946 108.337009 
L 264.423288 102.76445 
L 267.70263 97.511379 
L 270.981953 92.839131 
L 274.261315 89.477477 
L 277.540637 86.399002 
L 280.81998 84.203836 
L 284.099322 82.604227 
L 287.378664 81.996713 
L 290.658006 82.326123 
L 293.937329 83.187911 
L 297.21669 85.96019 
L 300.496013 89.418537 
L 303.775355 93.511596 
L 307.054697 98.309682 
L 310.33402 103.703805 
L 313.613382 109.561182 
L 316.892705 115.231136 
L 320.172047 120.385109 
L 323.451389 125.0601 
L 326.730731 128.536654 
L 330.010073 130.702052 
L 333.289396 131.13036 
L 336.568738 129.922015 
L 339.84808 127.055834 
L 343.127423 122.592726 
L 346.406765 116.342267 
L 349.686088 108.652511 
L 352.96543 100.244631 
L 356.244772 90.894252 
L 359.524114 81.262268 
L 362.803456 71.209246 
L 366.082798 61.823367 
L 369.362141 53.211331 
L 372.641463 44.447622 
L 375.920806 37.225962 
L 379.200148 30.685521 
" clip-path="url(#p319d1448a7)" style="fill: none; stroke: #ff0000; stroke-width: 0.5; stroke-linecap: round"/>
   </g>
   <g id="line2d_20">
    <path d="M 54.545602 123.353883 
L 57.824941 120.271397 
L 61.10428 117.237024 
L 64.383619 114.658568 
L 67.662958 112.200893 
L 70.942296 110.003912 
L 74.221636 108.38358 
L 77.500973 107.230631 
L 80.780313 107.030622 
L 84.059653 106.956232 
L 87.33899 107.591689 
L 90.61833 108.609223 
L 93.89767 110.88141 
L 97.177007 113.758334 
L 100.456344 117.608768 
L 103.735686 122.689511 
L 107.015024 128.510206 
L 110.294361 136.235354 
L 113.573703 144.401572 
L 116.853041 153.506559 
L 120.132378 163.962774 
L 123.41172 173.806361 
L 126.691057 184.281614 
L 129.970395 194.242992 
L 133.249737 203.178487 
L 136.529069 210.698286 
L 139.808412 216.808051 
L 143.087754 221.090409 
L 146.367086 222.838167 
L 149.646428 222.672319 
L 152.92577 220.43313 
L 156.205103 216.356537 
L 159.484445 211.073244 
L 162.763787 203.656829 
L 166.04312 195.63358 
L 169.322462 186.885105 
L 172.601804 178.01972 
L 175.881137 169.025844 
L 179.160479 160.522854 
L 182.439821 151.943966 
L 185.719153 144.168174 
L 188.998496 137.960726 
L 192.277838 132.31617 
L 195.55717 127.931559 
L 198.836512 124.662052 
L 202.115855 122.827079 
L 205.395187 123.101414 
L 208.674529 123.832142 
L 211.953871 125.916267 
L 215.233204 129.171503 
L 218.512556 133.016361 
L 221.791879 137.197754 
L 225.071221 141.108804 
L 228.350563 144.288657 
L 231.629886 146.119741 
L 234.909247 146.572069 
L 238.18857 145.015487 
L 241.467912 141.718356 
L 244.747254 136.075718 
L 248.026597 128.278624 
L 251.305939 118.542013 
L 254.585262 107.860094 
L 257.864623 95.720003 
L 261.143946 83.434817 
L 264.423288 71.322355 
L 267.70263 59.647502 
L 270.981953 49.393082 
L 274.261315 41.812141 
L 277.540637 35.969033 
L 280.81998 32.770829 
L 284.099322 32.780452 
L 287.378664 35.166583 
L 290.658006 40.281108 
L 293.937329 47.846834 
L 297.21669 56.811783 
L 300.496013 66.905279 
L 303.775355 77.697423 
L 307.054697 87.707774 
L 310.33402 97.464467 
L 313.613382 105.459275 
L 316.892705 111.633907 
L 320.172047 116.174536 
L 323.451389 118.725464 
L 326.730731 118.961842 
L 330.010073 118.665943 
L 333.289396 116.531397 
L 336.568738 113.744687 
L 339.84808 110.939978 
L 343.127423 108.427576 
L 346.406765 105.859129 
L 349.686088 104.852279 
L 352.96543 104.177886 
L 356.244772 104.20714 
L 359.524114 104.956045 
L 362.803456 106.643306 
L 366.082798 108.132171 
L 369.362141 110.072075 
L 372.641463 111.276291 
L 375.920806 112.334767 
L 379.200148 113.111309 
" clip-path="url(#p319d1448a7)" style="fill: none; stroke: #ff0000; stroke-width: 0.5; stroke-linecap: round"/>
   </g>
   <g id="line2d_21">
    <path d="M 54.545602 121.739251 
L 57.824941 109.135973 
L 61.10428 95.003652 
L 64.383619 80.519462 
L 67.662958 66.190048 
L 70.942296 52.449897 
L 74.221636 40.399077 
L 77.500973 30.110902 
L 80.780313 23.115391 
L 84.059653 19.563851 
L 87.33899 19.296 
L 90.61833 22.420396 
L 93.89767 29.37423 
L 97.177007 39.376681 
L 100.456344 52.722075 
L 103.735686 67.531224 
L 107.015024 83.910251 
L 110.294361 101.123041 
L 113.573703 119.231334 
L 116.853041 135.596812 
L 120.132378 151.364335 
L 123.41172 165.507368 
L 126.691057 177.040567 
L 129.970395 186.166684 
L 133.249737 193.711719 
L 136.529069 198.883475 
L 139.808412 202.14987 
L 143.087754 203.457014 
L 146.367086 203.805979 
L 149.646428 202.31236 
L 152.92577 200.589549 
L 156.205103 198.126946 
L 159.484445 195.014215 
L 162.763787 191.919331 
L 166.04312 188.062827 
L 169.322462 184.342936 
L 172.601804 180.057361 
L 175.881137 175.720756 
L 179.160479 170.366753 
L 182.439821 164.785644 
L 185.719153 159.086364 
L 188.998496 153.154673 
L 192.277838 146.697443 
L 195.55717 140.77981 
L 198.836512 135.081806 
L 202.115855 130.182933 
L 205.395187 125.536558 
L 208.674529 122.915879 
L 211.953871 120.42396 
L 215.233204 119.147648 
L 218.512556 118.885913 
L 221.791879 118.997826 
L 225.071221 120.150602 
L 228.350563 120.936084 
L 231.629886 121.860753 
L 234.909247 122.525921 
L 238.18857 122.706242 
L 241.467912 122.310521 
L 244.747254 120.921409 
L 248.026597 119.402716 
L 251.305939 116.848195 
L 254.585262 113.621945 
L 257.864623 110.480214 
L 261.143946 107.018714 
L 264.423288 103.145653 
L 267.70263 99.648071 
L 270.981953 96.52694 
L 274.261315 93.866307 
L 277.540637 91.500472 
L 280.81998 89.661538 
L 284.099322 88.154052 
L 287.378664 87.837112 
L 290.658006 87.741667 
L 293.937329 88.019863 
L 297.21669 89.817695 
L 300.496013 91.925045 
L 303.775355 94.904907 
L 307.054697 98.645585 
L 310.33402 102.81593 
L 313.613382 107.889835 
L 316.892705 113.296042 
L 320.172047 119.093282 
L 323.451389 124.645575 
L 326.730731 129.796883 
L 330.010073 133.849962 
L 333.289396 137.661669 
L 336.568738 139.623526 
L 339.84808 140.748897 
L 343.127423 139.738555 
L 346.406765 137.587283 
L 349.686088 134.389256 
L 352.96543 128.966256 
L 356.244772 122.357809 
L 359.524114 115.156654 
L 362.803456 106.954677 
L 366.082798 98.109893 
L 369.362141 89.285174 
L 372.641463 80.188729 
L 375.920806 71.06337 
L 379.200148 62.844351 
" clip-path="url(#p319d1448a7)" style="fill: none; stroke: #ff0000; stroke-width: 0.5; stroke-linecap: round"/>
   </g>
   <g id="line2d_22"/>
   <g id="line2d_23">
    <defs>
     <path id="m05b11638a5" d="M -5 5 
L 5 -5 
M -5 -5 
L 5 5 
" style="stroke: #000000; stroke-width: 2"/>
    </defs>
    <g clip-path="url(#p319d1448a7)">
     <use xlink:href="#m05b11638a5" x="116.723262" y="133.402042" style="stroke: #000000; stroke-width: 2"/>
     <use xlink:href="#m05b11638a5" x="256.516043" y="99.789979" style="stroke: #000000; stroke-width: 2"/>
     <use xlink:href="#m05b11638a5" x="196.655902" y="149.118931" style="stroke: #000000; stroke-width: 2"/>
     <use xlink:href="#m05b11638a5" x="309.515836" y="85.167969" style="stroke: #000000; stroke-width: 2"/>
     <use xlink:href="#m05b11638a5" x="307.768294" y="83.235081" style="stroke: #000000; stroke-width: 2"/>
     <use xlink:href="#m05b11638a5" x="143.044031" y="219.361039" style="stroke: #000000; stroke-width: 2"/>
     <use xlink:href="#m05b11638a5" x="144.300979" y="185.016275" style="stroke: #000000; stroke-width: 2"/>
     <use xlink:href="#m05b11638a5" x="314.87705" y="114.324241" style="stroke: #000000; stroke-width: 2"/>
     <use xlink:href="#m05b11638a5" x="365.609899" y="90.371413" style="stroke: #000000; stroke-width: 2"/>
     <use xlink:href="#m05b11638a5" x="338.921114" y="123.261162" style="stroke: #000000; stroke-width: 2"/>
    </g>
   </g>
   <g id="line2d_24">
    <path d="M 54.545602 179.305853 
L 57.824941 172.461385 
L 61.10428 165.672417 
L 64.383619 159.04695 
L 67.662958 152.689559 
L 70.942296 146.699673 
L 74.221636 141.169999 
L 77.500973 136.185048 
L 80.780313 131.81974 
L 84.059653 128.138242 
L 87.33899 125.192922 
L 90.61833 123.023515 
L 93.89767 121.656503 
L 97.177007 121.104677 
L 100.456344 121.366963 
L 103.735686 122.428433 
L 107.015024 124.260556 
L 110.294361 126.821686 
L 113.573703 130.057721 
L 116.853041 133.902997 
L 120.132378 138.281378 
L 123.41172 143.10746 
L 126.691057 148.287978 
L 129.970395 153.723309 
L 133.249737 159.309152 
L 136.529069 164.938081 
L 139.808412 170.501513 
L 143.087754 175.891233 
L 146.367086 181.001308 
L 149.646428 185.729794 
L 152.92577 189.980329 
L 156.205103 193.663763 
L 159.484445 196.699611 
L 162.763787 199.017334 
L 166.04312 200.557521 
L 169.322462 201.272868 
L 172.601804 201.128956 
L 175.881137 200.104826 
L 179.160479 198.193346 
L 182.439821 195.401333 
L 185.719153 191.74951 
L 188.998496 187.272139 
L 192.277838 182.016515 
L 195.55717 176.042277 
L 198.836512 169.420398 
L 202.115855 162.232115 
L 205.395187 154.567679 
L 208.674529 146.524781 
L 211.953871 138.207174 
L 215.233204 129.723061 
L 218.512556 121.183067 
L 221.791879 112.698986 
L 225.071221 104.381378 
L 228.350563 96.338482 
L 231.629886 88.674071 
L 234.909247 81.485743 
L 238.18857 74.86389 
L 241.467912 68.889649 
L 244.747254 63.634038 
L 248.026597 59.156661 
L 251.305939 55.504837 
L 254.585262 52.712843 
L 257.864623 50.801344 
L 261.143946 49.777227 
L 264.423288 49.633315 
L 267.70263 50.348668 
L 270.981953 51.888843 
L 274.261315 54.206578 
L 277.540637 57.242426 
L 280.81998 60.925866 
L 284.099322 65.176408 
L 287.378664 69.904894 
L 290.658006 75.014982 
L 293.937329 80.404664 
L 297.21669 85.968128 
L 300.496013 91.597038 
L 303.775355 97.182871 
L 307.054697 102.618252 
L 310.33402 107.798728 
L 313.613382 112.624843 
L 316.892705 117.003189 
L 320.172047 120.848475 
L 323.451389 124.08451 
L 326.730731 126.645634 
L 330.010073 128.477756 
L 333.289396 129.539223 
L 336.568738 129.801506 
L 339.84808 129.249677 
L 343.127423 127.882658 
L 346.406765 125.713249 
L 349.686088 122.767945 
L 352.96543 119.086446 
L 356.244772 114.721139 
L 359.524114 109.736181 
L 362.803456 104.206507 
L 366.082798 98.216618 
L 369.362141 91.859172 
L 372.641463 85.233753 
L 375.920806 78.444782 
L 379.200148 71.600311 
" clip-path="url(#p319d1448a7)" style="fill: none; stroke-dasharray: 7.68,1.92,1.2,1.92; stroke-dashoffset: 0; stroke: #bf00bf; stroke-width: 1.2"/>
   </g>
   <g id="patch_3">
    <path d="M 38.312875 233.158614 
L 38.312875 17.747569 
" style="fill: none; stroke: #262626; stroke-linejoin: miter; stroke-linecap: square"/>
   </g>
   <g id="patch_4">
    <path d="M 54.545602 273.312 
L 379.200148 273.312 
" style="fill: none; stroke: #262626; stroke-linejoin: miter; stroke-linecap: square"/>
   </g>
   <g id="legend_1">
    <g id="line2d_25">
     <path d="M 292.450875 235.66725 
L 301.250875 235.66725 
L 310.050875 235.66725 
" style="fill: none; stroke: #ff0000; stroke-width: 0.5; stroke-linecap: round"/>
    </g>
    <g id="text_14">
     <!-- Posterior samples -->
     <g style="fill: #262626" transform="translate(317.090875 238.74725) scale(0.088 -0.088)">
      <defs>
       <path id="ArialMT-50" d="M 494 0 
L 494 4581 
L 2222 4581 
Q 2678 4581 2919 4538 
Q 3256 4481 3484 4323 
Q 3713 4166 3852 3881 
Q 3991 3597 3991 3256 
Q 3991 2672 3619 2267 
Q 3247 1863 2275 1863 
L 1100 1863 
L 1100 0 
L 494 0 
z
M 1100 2403 
L 2284 2403 
Q 2872 2403 3119 2622 
Q 3366 2841 3366 3238 
Q 3366 3525 3220 3729 
Q 3075 3934 2838 4000 
Q 2684 4041 2272 4041 
L 1100 4041 
L 1100 2403 
z
" transform="scale(0.015625)"/>
       <path id="ArialMT-6f" d="M 213 1659 
Q 213 2581 725 3025 
Q 1153 3394 1769 3394 
Q 2453 3394 2887 2945 
Q 3322 2497 3322 1706 
Q 3322 1066 3130 698 
Q 2938 331 2570 128 
Q 2203 -75 1769 -75 
Q 1072 -75 642 372 
Q 213 819 213 1659 
z
M 791 1659 
Q 791 1022 1069 705 
Q 1347 388 1769 388 
Q 2188 388 2466 706 
Q 2744 1025 2744 1678 
Q 2744 2294 2464 2611 
Q 2184 2928 1769 2928 
Q 1347 2928 1069 2612 
Q 791 2297 791 1659 
z
" transform="scale(0.015625)"/>
       <path id="ArialMT-73" d="M 197 991 
L 753 1078 
Q 800 744 1014 566 
Q 1228 388 1613 388 
Q 2000 388 2187 545 
Q 2375 703 2375 916 
Q 2375 1106 2209 1216 
Q 2094 1291 1634 1406 
Q 1016 1563 777 1677 
Q 538 1791 414 1992 
Q 291 2194 291 2438 
Q 291 2659 392 2848 
Q 494 3038 669 3163 
Q 800 3259 1026 3326 
Q 1253 3394 1513 3394 
Q 1903 3394 2198 3281 
Q 2494 3169 2634 2976 
Q 2775 2784 2828 2463 
L 2278 2388 
Q 2241 2644 2061 2787 
Q 1881 2931 1553 2931 
Q 1166 2931 1000 2803 
Q 834 2675 834 2503 
Q 834 2394 903 2306 
Q 972 2216 1119 2156 
Q 1203 2125 1616 2013 
Q 2213 1853 2448 1751 
Q 2684 1650 2818 1456 
Q 2953 1263 2953 975 
Q 2953 694 2789 445 
Q 2625 197 2315 61 
Q 2006 -75 1616 -75 
Q 969 -75 630 194 
Q 291 463 197 991 
z
" transform="scale(0.015625)"/>
       <path id="ArialMT-74" d="M 1650 503 
L 1731 6 
Q 1494 -44 1306 -44 
Q 1000 -44 831 53 
Q 663 150 594 308 
Q 525 466 525 972 
L 525 2881 
L 113 2881 
L 113 3319 
L 525 3319 
L 525 4141 
L 1084 4478 
L 1084 3319 
L 1650 3319 
L 1650 2881 
L 1084 2881 
L 1084 941 
Q 1084 700 1114 631 
Q 1144 563 1211 522 
Q 1278 481 1403 481 
Q 1497 481 1650 503 
z
" transform="scale(0.015625)"/>
       <path id="ArialMT-65" d="M 2694 1069 
L 3275 997 
Q 3138 488 2766 206 
Q 2394 -75 1816 -75 
Q 1088 -75 661 373 
Q 234 822 234 1631 
Q 234 2469 665 2931 
Q 1097 3394 1784 3394 
Q 2450 3394 2872 2941 
Q 3294 2488 3294 1666 
Q 3294 1616 3291 1516 
L 816 1516 
Q 847 969 1125 678 
Q 1403 388 1819 388 
Q 2128 388 2347 550 
Q 2566 713 2694 1069 
z
M 847 1978 
L 2700 1978 
Q 2663 2397 2488 2606 
Q 2219 2931 1791 2931 
Q 1403 2931 1139 2672 
Q 875 2413 847 1978 
z
" transform="scale(0.015625)"/>
       <path id="ArialMT-72" d="M 416 0 
L 416 3319 
L 922 3319 
L 922 2816 
Q 1116 3169 1280 3281 
Q 1444 3394 1641 3394 
Q 1925 3394 2219 3213 
L 2025 2691 
Q 1819 2813 1613 2813 
Q 1428 2813 1281 2702 
Q 1134 2591 1072 2394 
Q 978 2094 978 1738 
L 978 0 
L 416 0 
z
" transform="scale(0.015625)"/>
       <path id="ArialMT-69" d="M 425 3934 
L 425 4581 
L 988 4581 
L 988 3934 
L 425 3934 
z
M 425 0 
L 425 3319 
L 988 3319 
L 988 0 
L 425 0 
z
" transform="scale(0.015625)"/>
       <path id="ArialMT-20" transform="scale(0.015625)"/>
       <path id="ArialMT-61" d="M 2588 409 
Q 2275 144 1986 34 
Q 1697 -75 1366 -75 
Q 819 -75 525 192 
Q 231 459 231 875 
Q 231 1119 342 1320 
Q 453 1522 633 1644 
Q 813 1766 1038 1828 
Q 1203 1872 1538 1913 
Q 2219 1994 2541 2106 
Q 2544 2222 2544 2253 
Q 2544 2597 2384 2738 
Q 2169 2928 1744 2928 
Q 1347 2928 1158 2789 
Q 969 2650 878 2297 
L 328 2372 
Q 403 2725 575 2942 
Q 747 3159 1072 3276 
Q 1397 3394 1825 3394 
Q 2250 3394 2515 3294 
Q 2781 3194 2906 3042 
Q 3031 2891 3081 2659 
Q 3109 2516 3109 2141 
L 3109 1391 
Q 3109 606 3145 398 
Q 3181 191 3288 0 
L 2700 0 
Q 2613 175 2588 409 
z
M 2541 1666 
Q 2234 1541 1622 1453 
Q 1275 1403 1131 1340 
Q 988 1278 909 1158 
Q 831 1038 831 891 
Q 831 666 1001 516 
Q 1172 366 1500 366 
Q 1825 366 2078 508 
Q 2331 650 2450 897 
Q 2541 1088 2541 1459 
L 2541 1666 
z
" transform="scale(0.015625)"/>
       <path id="ArialMT-6d" d="M 422 0 
L 422 3319 
L 925 3319 
L 925 2853 
Q 1081 3097 1340 3245 
Q 1600 3394 1931 3394 
Q 2300 3394 2536 3241 
Q 2772 3088 2869 2813 
Q 3263 3394 3894 3394 
Q 4388 3394 4653 3120 
Q 4919 2847 4919 2278 
L 4919 0 
L 4359 0 
L 4359 2091 
Q 4359 2428 4304 2576 
Q 4250 2725 4106 2815 
Q 3963 2906 3769 2906 
Q 3419 2906 3187 2673 
Q 2956 2441 2956 1928 
L 2956 0 
L 2394 0 
L 2394 2156 
Q 2394 2531 2256 2718 
Q 2119 2906 1806 2906 
Q 1569 2906 1367 2781 
Q 1166 2656 1075 2415 
Q 984 2175 984 1722 
L 984 0 
L 422 0 
z
" transform="scale(0.015625)"/>
       <path id="ArialMT-70" d="M 422 -1272 
L 422 3319 
L 934 3319 
L 934 2888 
Q 1116 3141 1344 3267 
Q 1572 3394 1897 3394 
Q 2322 3394 2647 3175 
Q 2972 2956 3137 2557 
Q 3303 2159 3303 1684 
Q 3303 1175 3120 767 
Q 2938 359 2589 142 
Q 2241 -75 1856 -75 
Q 1575 -75 1351 44 
Q 1128 163 984 344 
L 984 -1272 
L 422 -1272 
z
M 931 1641 
Q 931 1000 1190 694 
Q 1450 388 1819 388 
Q 2194 388 2461 705 
Q 2728 1022 2728 1688 
Q 2728 2322 2467 2637 
Q 2206 2953 1844 2953 
Q 1484 2953 1207 2617 
Q 931 2281 931 1641 
z
" transform="scale(0.015625)"/>
       <path id="ArialMT-6c" d="M 409 0 
L 409 4581 
L 972 4581 
L 972 0 
L 409 0 
z
" transform="scale(0.015625)"/>
      </defs>
      <use xlink:href="#ArialMT-50"/>
      <use xlink:href="#ArialMT-6f" x="66.699219"/>
      <use xlink:href="#ArialMT-73" x="122.314453"/>
      <use xlink:href="#ArialMT-74" x="172.314453"/>
      <use xlink:href="#ArialMT-65" x="200.097656"/>
      <use xlink:href="#ArialMT-72" x="255.712891"/>
      <use xlink:href="#ArialMT-69" x="289.013672"/>
      <use xlink:href="#ArialMT-6f" x="311.230469"/>
      <use xlink:href="#ArialMT-72" x="366.845703"/>
      <use xlink:href="#ArialMT-20" x="400.146484"/>
      <use xlink:href="#ArialMT-73" x="427.929688"/>
      <use xlink:href="#ArialMT-61" x="477.929688"/>
      <use xlink:href="#ArialMT-6d" x="533.544922"/>
      <use xlink:href="#ArialMT-70" x="616.845703"/>
      <use xlink:href="#ArialMT-6c" x="672.460938"/>
      <use xlink:href="#ArialMT-65" x="694.677734"/>
      <use xlink:href="#ArialMT-73" x="750.292969"/>
     </g>
    </g>
    <g id="line2d_26">
     <g>
      <use xlink:href="#m05b11638a5" x="301.250875" y="248.115125" style="stroke: #000000; stroke-width: 2"/>
     </g>
    </g>
    <g id="text_15">
     <!-- Observations -->
     <g style="fill: #262626" transform="translate(317.090875 251.195125) scale(0.088 -0.088)">
      <defs>
       <path id="ArialMT-4f" d="M 309 2231 
Q 309 3372 921 4017 
Q 1534 4663 2503 4663 
Q 3138 4663 3647 4359 
Q 4156 4056 4423 3514 
Q 4691 2972 4691 2284 
Q 4691 1588 4409 1038 
Q 4128 488 3612 205 
Q 3097 -78 2500 -78 
Q 1853 -78 1343 234 
Q 834 547 571 1087 
Q 309 1628 309 2231 
z
M 934 2222 
Q 934 1394 1379 917 
Q 1825 441 2497 441 
Q 3181 441 3623 922 
Q 4066 1403 4066 2288 
Q 4066 2847 3877 3264 
Q 3688 3681 3323 3911 
Q 2959 4141 2506 4141 
Q 1863 4141 1398 3698 
Q 934 3256 934 2222 
z
" transform="scale(0.015625)"/>
       <path id="ArialMT-62" d="M 941 0 
L 419 0 
L 419 4581 
L 981 4581 
L 981 2947 
Q 1338 3394 1891 3394 
Q 2197 3394 2470 3270 
Q 2744 3147 2920 2923 
Q 3097 2700 3197 2384 
Q 3297 2069 3297 1709 
Q 3297 856 2875 390 
Q 2453 -75 1863 -75 
Q 1275 -75 941 416 
L 941 0 
z
M 934 1684 
Q 934 1088 1097 822 
Q 1363 388 1816 388 
Q 2184 388 2453 708 
Q 2722 1028 2722 1663 
Q 2722 2313 2464 2622 
Q 2206 2931 1841 2931 
Q 1472 2931 1203 2611 
Q 934 2291 934 1684 
z
" transform="scale(0.015625)"/>
       <path id="ArialMT-76" d="M 1344 0 
L 81 3319 
L 675 3319 
L 1388 1331 
Q 1503 1009 1600 663 
Q 1675 925 1809 1294 
L 2547 3319 
L 3125 3319 
L 1869 0 
L 1344 0 
z
" transform="scale(0.015625)"/>
       <path id="ArialMT-6e" d="M 422 0 
L 422 3319 
L 928 3319 
L 928 2847 
Q 1294 3394 1984 3394 
Q 2284 3394 2536 3286 
Q 2788 3178 2913 3003 
Q 3038 2828 3088 2588 
Q 3119 2431 3119 2041 
L 3119 0 
L 2556 0 
L 2556 2019 
Q 2556 2363 2490 2533 
Q 2425 2703 2258 2804 
Q 2091 2906 1866 2906 
Q 1506 2906 1245 2678 
Q 984 2450 984 1813 
L 984 0 
L 422 0 
z
" transform="scale(0.015625)"/>
      </defs>
      <use xlink:href="#ArialMT-4f"/>
      <use xlink:href="#ArialMT-62" x="77.783203"/>
      <use xlink:href="#ArialMT-73" x="133.398438"/>
      <use xlink:href="#ArialMT-65" x="183.398438"/>
      <use xlink:href="#ArialMT-72" x="239.013672"/>
      <use xlink:href="#ArialMT-76" x="272.314453"/>
      <use xlink:href="#ArialMT-61" x="322.314453"/>
      <use xlink:href="#ArialMT-74" x="377.929688"/>
      <use xlink:href="#ArialMT-69" x="405.712891"/>
      <use xlink:href="#ArialMT-6f" x="427.929688"/>
      <use xlink:href="#ArialMT-6e" x="483.544922"/>
      <use xlink:href="#ArialMT-73" x="539.160156"/>
     </g>
    </g>
    <g id="line2d_27">
     <path d="M 292.450875 260.563 
L 301.250875 260.563 
L 310.050875 260.563 
" style="fill: none; stroke-dasharray: 7.68,1.92,1.2,1.92; stroke-dashoffset: 0; stroke: #bf00bf; stroke-width: 1.2"/>
    </g>
    <g id="text_16">
     <!-- True function -->
     <g style="fill: #262626" transform="translate(317.090875 263.643) scale(0.088 -0.088)">
      <defs>
       <path id="ArialMT-54" d="M 1659 0 
L 1659 4041 
L 150 4041 
L 150 4581 
L 3781 4581 
L 3781 4041 
L 2266 4041 
L 2266 0 
L 1659 0 
z
" transform="scale(0.015625)"/>
       <path id="ArialMT-75" d="M 2597 0 
L 2597 488 
Q 2209 -75 1544 -75 
Q 1250 -75 995 37 
Q 741 150 617 320 
Q 494 491 444 738 
Q 409 903 409 1263 
L 409 3319 
L 972 3319 
L 972 1478 
Q 972 1038 1006 884 
Q 1059 663 1231 536 
Q 1403 409 1656 409 
Q 1909 409 2131 539 
Q 2353 669 2445 892 
Q 2538 1116 2538 1541 
L 2538 3319 
L 3100 3319 
L 3100 0 
L 2597 0 
z
" transform="scale(0.015625)"/>
       <path id="ArialMT-66" d="M 556 0 
L 556 2881 
L 59 2881 
L 59 3319 
L 556 3319 
L 556 3672 
Q 556 4006 616 4169 
Q 697 4388 901 4523 
Q 1106 4659 1475 4659 
Q 1713 4659 2000 4603 
L 1916 4113 
Q 1741 4144 1584 4144 
Q 1328 4144 1222 4034 
Q 1116 3925 1116 3625 
L 1116 3319 
L 1763 3319 
L 1763 2881 
L 1116 2881 
L 1116 0 
L 556 0 
z
" transform="scale(0.015625)"/>
       <path id="ArialMT-63" d="M 2588 1216 
L 3141 1144 
Q 3050 572 2676 248 
Q 2303 -75 1759 -75 
Q 1078 -75 664 370 
Q 250 816 250 1647 
Q 250 2184 428 2587 
Q 606 2991 970 3192 
Q 1334 3394 1763 3394 
Q 2303 3394 2647 3120 
Q 2991 2847 3088 2344 
L 2541 2259 
Q 2463 2594 2264 2762 
Q 2066 2931 1784 2931 
Q 1359 2931 1093 2626 
Q 828 2322 828 1663 
Q 828 994 1084 691 
Q 1341 388 1753 388 
Q 2084 388 2306 591 
Q 2528 794 2588 1216 
z
" transform="scale(0.015625)"/>
      </defs>
      <use xlink:href="#ArialMT-54"/>
      <use xlink:href="#ArialMT-72" x="57.333984"/>
      <use xlink:href="#ArialMT-75" x="90.634766"/>
      <use xlink:href="#ArialMT-65" x="146.25"/>
      <use xlink:href="#ArialMT-20" x="201.865234"/>
      <use xlink:href="#ArialMT-66" x="229.648438"/>
      <use xlink:href="#ArialMT-75" x="257.431641"/>
      <use xlink:href="#ArialMT-6e" x="313.046875"/>
      <use xlink:href="#ArialMT-63" x="368.662109"/>
      <use xlink:href="#ArialMT-74" x="418.662109"/>
      <use xlink:href="#ArialMT-69" x="446.445312"/>
      <use xlink:href="#ArialMT-6f" x="468.662109"/>
      <use xlink:href="#ArialMT-6e" x="524.277344"/>
     </g>
    </g>
   </g>
  </g>
 </g>
 <defs>
  <clipPath id="p319d1448a7">
   <rect x="38.312875" y="7.2" width="357.12" height="266.112"/>
  </clipPath>
 </defs>
</svg>