<?xml version="1.0" encoding="utf-8" standalone="no"?>
<!DOCTYPE svg PUBLIC "-//W3C//DTD SVG 1.1//EN"
  "http://www.w3.org/Graphics/SVG/1.1/DTD/svg11.dtd">
<svg xmlns:xlink="http://www.w3.org/1999/xlink" width="397.722625pt" height="309.874875pt" viewBox="0 0 397.722625 309.874875" xmlns="http://www.w3.org/2000/svg" version="1.1">
 <metadata>
  <rdf:RDF xmlns:dc="http://purl.org/dc/elements/1.1/" xmlns:cc="http://creativecommons.org/ns#" xmlns:rdf="http://www.w3.org/1999/02/22-rdf-syntax-ns#">
   <cc:Work>
    <dc:type rdf:resource="http://purl.org/dc/dcmitype/StillImage"/>
    <dc:date>2023-11-03T13:24:32.873591</dc:date>
    <dc:format>image/svg+xml</dc:format>
    <dc:creator>
     <cc:Agent>
      <dc:title>Matplotlib v3.8.0, https://matplotlib.org/</dc:title>
     </cc:Agent>
    </dc:creator>
   </cc:Work>
  </rdf:RDF>
 </metadata>
 <defs>
  <style type="text/css">*{stroke-linejoin: round; stroke-linecap: butt}</style>
 </defs>
 <g id="figure_1">
  <g id="patch_1">
   <path d="M -0 309.874875 
L 397.722625 309.874875 
L 397.722625 0 
L -0 0 
z
" style="fill: #ffffff"/>
  </g>
  <g id="axes_1">
   <g id="patch_2">
    <path d="M 33.402625 273.312 
L 390.522625 273.312 
L 390.522625 7.2 
L 33.402625 7.2 
z
" style="fill: #ffffff"/>
   </g>
   <g id="matplotlib.axis_1">
    <g id="xtick_1">
     <g id="line2d_1">
      <defs>
       <path id="m75528f4d71" d="M 0 0 
L 0 4.8 
" style="stroke: #262626"/>
      </defs>
      <g>
       <use xlink:href="#m75528f4d71" x="72.824963" y="273.312" style="fill: #262626; stroke: #262626"/>
      </g>
     </g>
     <g id="text_1">
      <!-- 55 -->
      <g style="fill: #262626" transform="translate(67.931338 287.910875) scale(0.088 -0.088)">
       <defs>
        <path id="ArialMT-35" d="M 266 1200 
L 856 1250 
Q 922 819 1161 601 
Q 1400 384 1738 384 
Q 2144 384 2425 690 
Q 2706 997 2706 1503 
Q 2706 1984 2436 2262 
Q 2166 2541 1728 2541 
Q 1456 2541 1237 2417 
Q 1019 2294 894 2097 
L 366 2166 
L 809 4519 
L 3088 4519 
L 3088 3981 
L 1259 3981 
L 1013 2750 
Q 1425 3038 1878 3038 
Q 2478 3038 2890 2622 
Q 3303 2206 3303 1553 
Q 3303 931 2941 478 
Q 2500 -78 1738 -78 
Q 1113 -78 717 272 
Q 322 622 266 1200 
z
" transform="scale(0.015625)"/>
       </defs>
       <use xlink:href="#ArialMT-35"/>
       <use xlink:href="#ArialMT-35" x="55.615234"/>
      </g>
     </g>
    </g>
    <g id="xtick_2">
     <g id="line2d_2">
      <g>
       <use xlink:href="#m75528f4d71" x="130.798989" y="273.312" style="fill: #262626; stroke: #262626"/>
      </g>
     </g>
     <g id="text_2">
      <!-- 60 -->
      <g style="fill: #262626" transform="translate(125.905364 287.910875) scale(0.088 -0.088)">
       <defs>
        <path id="ArialMT-36" d="M 3184 3459 
L 2625 3416 
Q 2550 3747 2413 3897 
Q 2184 4138 1850 4138 
Q 1581 4138 1378 3988 
Q 1113 3794 959 3422 
Q 806 3050 800 2363 
Q 1003 2672 1297 2822 
Q 1591 2972 1913 2972 
Q 2475 2972 2870 2558 
Q 3266 2144 3266 1488 
Q 3266 1056 3080 686 
Q 2894 316 2569 119 
Q 2244 -78 1831 -78 
Q 1128 -78 684 439 
Q 241 956 241 2144 
Q 241 3472 731 4075 
Q 1159 4600 1884 4600 
Q 2425 4600 2770 4297 
Q 3116 3994 3184 3459 
z
M 888 1484 
Q 888 1194 1011 928 
Q 1134 663 1356 523 
Q 1578 384 1822 384 
Q 2178 384 2434 671 
Q 2691 959 2691 1453 
Q 2691 1928 2437 2201 
Q 2184 2475 1800 2475 
Q 1419 2475 1153 2201 
Q 888 1928 888 1484 
z
" transform="scale(0.015625)"/>
        <path id="ArialMT-30" d="M 266 2259 
Q 266 3072 433 3567 
Q 600 4063 929 4331 
Q 1259 4600 1759 4600 
Q 2128 4600 2406 4451 
Q 2684 4303 2865 4023 
Q 3047 3744 3150 3342 
Q 3253 2941 3253 2259 
Q 3253 1453 3087 958 
Q 2922 463 2592 192 
Q 2263 -78 1759 -78 
Q 1097 -78 719 397 
Q 266 969 266 2259 
z
M 844 2259 
Q 844 1131 1108 757 
Q 1372 384 1759 384 
Q 2147 384 2411 759 
Q 2675 1134 2675 2259 
Q 2675 3391 2411 3762 
Q 2147 4134 1753 4134 
Q 1366 4134 1134 3806 
Q 844 3388 844 2259 
z
" transform="scale(0.015625)"/>
       </defs>
       <use xlink:href="#ArialMT-36"/>
       <use xlink:href="#ArialMT-30" x="55.615234"/>
      </g>
     </g>
    </g>
    <g id="xtick_3">
     <g id="line2d_3">
      <g>
       <use xlink:href="#m75528f4d71" x="188.773015" y="273.312" style="fill: #262626; stroke: #262626"/>
      </g>
     </g>
     <g id="text_3">
      <!-- 65 -->
      <g style="fill: #262626" transform="translate(183.87939 287.910875) scale(0.088 -0.088)">
       <use xlink:href="#ArialMT-36"/>
       <use xlink:href="#ArialMT-35" x="55.615234"/>
      </g>
     </g>
    </g>
    <g id="xtick_4">
     <g id="line2d_4">
      <g>
       <use xlink:href="#m75528f4d71" x="246.747041" y="273.312" style="fill: #262626; stroke: #262626"/>
      </g>
     </g>
     <g id="text_4">
      <!-- 70 -->
      <g style="fill: #262626" transform="translate(241.853416 287.910875) scale(0.088 -0.088)">
       <defs>
        <path id="ArialMT-37" d="M 303 3981 
L 303 4522 
L 3269 4522 
L 3269 4084 
Q 2831 3619 2401 2847 
Q 1972 2075 1738 1259 
Q 1569 684 1522 0 
L 944 0 
Q 953 541 1156 1306 
Q 1359 2072 1739 2783 
Q 2119 3494 2547 3981 
L 303 3981 
z
" transform="scale(0.015625)"/>
       </defs>
       <use xlink:href="#ArialMT-37"/>
       <use xlink:href="#ArialMT-30" x="55.615234"/>
      </g>
     </g>
    </g>
    <g id="xtick_5">
     <g id="line2d_5">
      <g>
       <use xlink:href="#m75528f4d71" x="304.721067" y="273.312" style="fill: #262626; stroke: #262626"/>
      </g>
     </g>
     <g id="text_5">
      <!-- 75 -->
      <g style="fill: #262626" transform="translate(299.827442 287.910875) scale(0.088 -0.088)">
       <use xlink:href="#ArialMT-37"/>
       <use xlink:href="#ArialMT-35" x="55.615234"/>
      </g>
     </g>
    </g>
    <g id="xtick_6">
     <g id="line2d_6">
      <g>
       <use xlink:href="#m75528f4d71" x="362.695093" y="273.312" style="fill: #262626; stroke: #262626"/>
      </g>
     </g>
     <g id="text_6">
      <!-- 80 -->
      <g style="fill: #262626" transform="translate(357.801468 287.910875) scale(0.088 -0.088)">
       <defs>
        <path id="ArialMT-38" d="M 1131 2484 
Q 781 2613 612 2850 
Q 444 3088 444 3419 
Q 444 3919 803 4259 
Q 1163 4600 1759 4600 
Q 2359 4600 2725 4251 
Q 3091 3903 3091 3403 
Q 3091 3084 2923 2848 
Q 2756 2613 2416 2484 
Q 2838 2347 3058 2040 
Q 3278 1734 3278 1309 
Q 3278 722 2862 322 
Q 2447 -78 1769 -78 
Q 1091 -78 675 323 
Q 259 725 259 1325 
Q 259 1772 486 2073 
Q 713 2375 1131 2484 
z
M 1019 3438 
Q 1019 3113 1228 2906 
Q 1438 2700 1772 2700 
Q 2097 2700 2305 2904 
Q 2513 3109 2513 3406 
Q 2513 3716 2298 3927 
Q 2084 4138 1766 4138 
Q 1444 4138 1231 3931 
Q 1019 3725 1019 3438 
z
M 838 1322 
Q 838 1081 952 856 
Q 1066 631 1291 507 
Q 1516 384 1775 384 
Q 2178 384 2440 643 
Q 2703 903 2703 1303 
Q 2703 1709 2433 1975 
Q 2163 2241 1756 2241 
Q 1359 2241 1098 1978 
Q 838 1716 838 1322 
z
" transform="scale(0.015625)"/>
       </defs>
       <use xlink:href="#ArialMT-38"/>
       <use xlink:href="#ArialMT-30" x="55.615234"/>
      </g>
     </g>
    </g>
    <g id="text_7">
     <!-- Outside temperature (Fahrenheit) -->
     <g style="fill: #262626" transform="translate(140.735125 300.654375) scale(0.096 -0.096)">
      <defs>
       <path id="ArialMT-4f" d="M 309 2231 
Q 309 3372 921 4017 
Q 1534 4663 2503 4663 
Q 3138 4663 3647 4359 
Q 4156 4056 4423 3514 
Q 4691 2972 4691 2284 
Q 4691 1588 4409 1038 
Q 4128 488 3612 205 
Q 3097 -78 2500 -78 
Q 1853 -78 1343 234 
Q 834 547 571 1087 
Q 309 1628 309 2231 
z
M 934 2222 
Q 934 1394 1379 917 
Q 1825 441 2497 441 
Q 3181 441 3623 922 
Q 4066 1403 4066 2288 
Q 4066 2847 3877 3264 
Q 3688 3681 3323 3911 
Q 2959 4141 2506 4141 
Q 1863 4141 1398 3698 
Q 934 3256 934 2222 
z
" transform="scale(0.015625)"/>
       <path id="ArialMT-75" d="M 2597 0 
L 2597 488 
Q 2209 -75 1544 -75 
Q 1250 -75 995 37 
Q 741 150 617 320 
Q 494 491 444 738 
Q 409 903 409 1263 
L 409 3319 
L 972 3319 
L 972 1478 
Q 972 1038 1006 884 
Q 1059 663 1231 536 
Q 1403 409 1656 409 
Q 1909 409 2131 539 
Q 2353 669 2445 892 
Q 2538 1116 2538 1541 
L 2538 3319 
L 3100 3319 
L 3100 0 
L 2597 0 
z
" transform="scale(0.015625)"/>
       <path id="ArialMT-74" d="M 1650 503 
L 1731 6 
Q 1494 -44 1306 -44 
Q 1000 -44 831 53 
Q 663 150 594 308 
Q 525 466 525 972 
L 525 2881 
L 113 2881 
L 113 3319 
L 525 3319 
L 525 4141 
L 1084 4478 
L 1084 3319 
L 1650 3319 
L 1650 2881 
L 1084 2881 
L 1084 941 
Q 1084 700 1114 631 
Q 1144 563 1211 522 
Q 1278 481 1403 481 
Q 1497 481 1650 503 
z
" transform="scale(0.015625)"/>
       <path id="ArialMT-73" d="M 197 991 
L 753 1078 
Q 800 744 1014 566 
Q 1228 388 1613 388 
Q 2000 388 2187 545 
Q 2375 703 2375 916 
Q 2375 1106 2209 1216 
Q 2094 1291 1634 1406 
Q 1016 1563 777 1677 
Q 538 1791 414 1992 
Q 291 2194 291 2438 
Q 291 2659 392 2848 
Q 494 3038 669 3163 
Q 800 3259 1026 3326 
Q 1253 3394 1513 3394 
Q 1903 3394 2198 3281 
Q 2494 3169 2634 2976 
Q 2775 2784 2828 2463 
L 2278 2388 
Q 2241 2644 2061 2787 
Q 1881 2931 1553 2931 
Q 1166 2931 1000 2803 
Q 834 2675 834 2503 
Q 834 2394 903 2306 
Q 972 2216 1119 2156 
Q 1203 2125 1616 2013 
Q 2213 1853 2448 1751 
Q 2684 1650 2818 1456 
Q 2953 1263 2953 975 
Q 2953 694 2789 445 
Q 2625 197 2315 61 
Q 2006 -75 1616 -75 
Q 969 -75 630 194 
Q 291 463 197 991 
z
" transform="scale(0.015625)"/>
       <path id="ArialMT-69" d="M 425 3934 
L 425 4581 
L 988 4581 
L 988 3934 
L 425 3934 
z
M 425 0 
L 425 3319 
L 988 3319 
L 988 0 
L 425 0 
z
" transform="scale(0.015625)"/>
       <path id="ArialMT-64" d="M 2575 0 
L 2575 419 
Q 2259 -75 1647 -75 
Q 1250 -75 917 144 
Q 584 363 401 755 
Q 219 1147 219 1656 
Q 219 2153 384 2558 
Q 550 2963 881 3178 
Q 1213 3394 1622 3394 
Q 1922 3394 2156 3267 
Q 2391 3141 2538 2938 
L 2538 4581 
L 3097 4581 
L 3097 0 
L 2575 0 
z
M 797 1656 
Q 797 1019 1065 703 
Q 1334 388 1700 388 
Q 2069 388 2326 689 
Q 2584 991 2584 1609 
Q 2584 2291 2321 2609 
Q 2059 2928 1675 2928 
Q 1300 2928 1048 2622 
Q 797 2316 797 1656 
z
" transform="scale(0.015625)"/>
       <path id="ArialMT-65" d="M 2694 1069 
L 3275 997 
Q 3138 488 2766 206 
Q 2394 -75 1816 -75 
Q 1088 -75 661 373 
Q 234 822 234 1631 
Q 234 2469 665 2931 
Q 1097 3394 1784 3394 
Q 2450 3394 2872 2941 
Q 3294 2488 3294 1666 
Q 3294 1616 3291 1516 
L 816 1516 
Q 847 969 1125 678 
Q 1403 388 1819 388 
Q 2128 388 2347 550 
Q 2566 713 2694 1069 
z
M 847 1978 
L 2700 1978 
Q 2663 2397 2488 2606 
Q 2219 2931 1791 2931 
Q 1403 2931 1139 2672 
Q 875 2413 847 1978 
z
" transform="scale(0.015625)"/>
       <path id="ArialMT-20" transform="scale(0.015625)"/>
       <path id="ArialMT-6d" d="M 422 0 
L 422 3319 
L 925 3319 
L 925 2853 
Q 1081 3097 1340 3245 
Q 1600 3394 1931 3394 
Q 2300 3394 2536 3241 
Q 2772 3088 2869 2813 
Q 3263 3394 3894 3394 
Q 4388 3394 4653 3120 
Q 4919 2847 4919 2278 
L 4919 0 
L 4359 0 
L 4359 2091 
Q 4359 2428 4304 2576 
Q 4250 2725 4106 2815 
Q 3963 2906 3769 2906 
Q 3419 2906 3187 2673 
Q 2956 2441 2956 1928 
L 2956 0 
L 2394 0 
L 2394 2156 
Q 2394 2531 2256 2718 
Q 2119 2906 1806 2906 
Q 1569 2906 1367 2781 
Q 1166 2656 1075 2415 
Q 984 2175 984 1722 
L 984 0 
L 422 0 
z
" transform="scale(0.015625)"/>
       <path id="ArialMT-70" d="M 422 -1272 
L 422 3319 
L 934 3319 
L 934 2888 
Q 1116 3141 1344 3267 
Q 1572 3394 1897 3394 
Q 2322 3394 2647 3175 
Q 2972 2956 3137 2557 
Q 3303 2159 3303 1684 
Q 3303 1175 3120 767 
Q 2938 359 2589 142 
Q 2241 -75 1856 -75 
Q 1575 -75 1351 44 
Q 1128 163 984 344 
L 984 -1272 
L 422 -1272 
z
M 931 1641 
Q 931 1000 1190 694 
Q 1450 388 1819 388 
Q 2194 388 2461 705 
Q 2728 1022 2728 1688 
Q 2728 2322 2467 2637 
Q 2206 2953 1844 2953 
Q 1484 2953 1207 2617 
Q 931 2281 931 1641 
z
" transform="scale(0.015625)"/>
       <path id="ArialMT-72" d="M 416 0 
L 416 3319 
L 922 3319 
L 922 2816 
Q 1116 3169 1280 3281 
Q 1444 3394 1641 3394 
Q 1925 3394 2219 3213 
L 2025 2691 
Q 1819 2813 1613 2813 
Q 1428 2813 1281 2702 
Q 1134 2591 1072 2394 
Q 978 2094 978 1738 
L 978 0 
L 416 0 
z
" transform="scale(0.015625)"/>
       <path id="ArialMT-61" d="M 2588 409 
Q 2275 144 1986 34 
Q 1697 -75 1366 -75 
Q 819 -75 525 192 
Q 231 459 231 875 
Q 231 1119 342 1320 
Q 453 1522 633 1644 
Q 813 1766 1038 1828 
Q 1203 1872 1538 1913 
Q 2219 1994 2541 2106 
Q 2544 2222 2544 2253 
Q 2544 2597 2384 2738 
Q 2169 2928 1744 2928 
Q 1347 2928 1158 2789 
Q 969 2650 878 2297 
L 328 2372 
Q 403 2725 575 2942 
Q 747 3159 1072 3276 
Q 1397 3394 1825 3394 
Q 2250 3394 2515 3294 
Q 2781 3194 2906 3042 
Q 3031 2891 3081 2659 
Q 3109 2516 3109 2141 
L 3109 1391 
Q 3109 606 3145 398 
Q 3181 191 3288 0 
L 2700 0 
Q 2613 175 2588 409 
z
M 2541 1666 
Q 2234 1541 1622 1453 
Q 1275 1403 1131 1340 
Q 988 1278 909 1158 
Q 831 1038 831 891 
Q 831 666 1001 516 
Q 1172 366 1500 366 
Q 1825 366 2078 508 
Q 2331 650 2450 897 
Q 2541 1088 2541 1459 
L 2541 1666 
z
" transform="scale(0.015625)"/>
       <path id="ArialMT-28" d="M 1497 -1347 
Q 1031 -759 709 28 
Q 388 816 388 1659 
Q 388 2403 628 3084 
Q 909 3875 1497 4659 
L 1900 4659 
Q 1522 4009 1400 3731 
Q 1209 3300 1100 2831 
Q 966 2247 966 1656 
Q 966 153 1900 -1347 
L 1497 -1347 
z
" transform="scale(0.015625)"/>
       <path id="ArialMT-46" d="M 525 0 
L 525 4581 
L 3616 4581 
L 3616 4041 
L 1131 4041 
L 1131 2622 
L 3281 2622 
L 3281 2081 
L 1131 2081 
L 1131 0 
L 525 0 
z
" transform="scale(0.015625)"/>
       <path id="ArialMT-68" d="M 422 0 
L 422 4581 
L 984 4581 
L 984 2938 
Q 1378 3394 1978 3394 
Q 2347 3394 2619 3248 
Q 2891 3103 3008 2847 
Q 3125 2591 3125 2103 
L 3125 0 
L 2563 0 
L 2563 2103 
Q 2563 2525 2380 2717 
Q 2197 2909 1863 2909 
Q 1613 2909 1392 2779 
Q 1172 2650 1078 2428 
Q 984 2206 984 1816 
L 984 0 
L 422 0 
z
" transform="scale(0.015625)"/>
       <path id="ArialMT-6e" d="M 422 0 
L 422 3319 
L 928 3319 
L 928 2847 
Q 1294 3394 1984 3394 
Q 2284 3394 2536 3286 
Q 2788 3178 2913 3003 
Q 3038 2828 3088 2588 
Q 3119 2431 3119 2041 
L 3119 0 
L 2556 0 
L 2556 2019 
Q 2556 2363 2490 2533 
Q 2425 2703 2258 2804 
Q 2091 2906 1866 2906 
Q 1506 2906 1245 2678 
Q 984 2450 984 1813 
L 984 0 
L 422 0 
z
" transform="scale(0.015625)"/>
       <path id="ArialMT-29" d="M 791 -1347 
L 388 -1347 
Q 1322 153 1322 1656 
Q 1322 2244 1188 2822 
Q 1081 3291 891 3722 
Q 769 4003 388 4659 
L 791 4659 
Q 1378 3875 1659 3084 
Q 1900 2403 1900 1659 
Q 1900 816 1576 28 
Q 1253 -759 791 -1347 
z
" transform="scale(0.015625)"/>
      </defs>
      <use xlink:href="#ArialMT-4f"/>
      <use xlink:href="#ArialMT-75" x="77.783203"/>
      <use xlink:href="#ArialMT-74" x="133.398438"/>
      <use xlink:href="#ArialMT-73" x="161.181641"/>
      <use xlink:href="#ArialMT-69" x="211.181641"/>
      <use xlink:href="#ArialMT-64" x="233.398438"/>
      <use xlink:href="#ArialMT-65" x="289.013672"/>
      <use xlink:href="#ArialMT-20" x="344.628906"/>
      <use xlink:href="#ArialMT-74" x="372.412109"/>
      <use xlink:href="#ArialMT-65" x="400.195312"/>
      <use xlink:href="#ArialMT-6d" x="455.810547"/>
      <use xlink:href="#ArialMT-70" x="539.111328"/>
      <use xlink:href="#ArialMT-65" x="594.726562"/>
      <use xlink:href="#ArialMT-72" x="650.341797"/>
      <use xlink:href="#ArialMT-61" x="683.642578"/>
      <use xlink:href="#ArialMT-74" x="739.257812"/>
      <use xlink:href="#ArialMT-75" x="767.041016"/>
      <use xlink:href="#ArialMT-72" x="822.65625"/>
      <use xlink:href="#ArialMT-65" x="855.957031"/>
      <use xlink:href="#ArialMT-20" x="911.572266"/>
      <use xlink:href="#ArialMT-28" x="939.355469"/>
      <use xlink:href="#ArialMT-46" x="972.65625"/>
      <use xlink:href="#ArialMT-61" x="1033.740234"/>
      <use xlink:href="#ArialMT-68" x="1089.355469"/>
      <use xlink:href="#ArialMT-72" x="1144.970703"/>
      <use xlink:href="#ArialMT-65" x="1178.271484"/>
      <use xlink:href="#ArialMT-6e" x="1233.886719"/>
      <use xlink:href="#ArialMT-68" x="1289.501953"/>
      <use xlink:href="#ArialMT-65" x="1345.117188"/>
      <use xlink:href="#ArialMT-69" x="1400.732422"/>
      <use xlink:href="#ArialMT-74" x="1422.949219"/>
      <use xlink:href="#ArialMT-29" x="1450.732422"/>
     </g>
    </g>
   </g>
   <g id="matplotlib.axis_2">
    <g id="ytick_1">
     <g id="line2d_7">
      <defs>
       <path id="m46636b896b" d="M 0 0 
L -4.8 0 
" style="stroke: #262626"/>
      </defs>
      <g>
       <use xlink:href="#m46636b896b" x="33.402625" y="261.216" style="fill: #262626; stroke: #262626"/>
      </g>
     </g>
     <g id="text_8">
      <!-- 0 -->
      <g style="fill: #262626" transform="translate(20.209 264.365437) scale(0.088 -0.088)">
       <use xlink:href="#ArialMT-30"/>
      </g>
     </g>
    </g>
    <g id="ytick_2">
     <g id="line2d_8">
      <g>
       <use xlink:href="#m46636b896b" x="33.402625" y="19.296" style="fill: #262626; stroke: #262626"/>
      </g>
     </g>
     <g id="text_9">
      <!-- 1 -->
      <g style="fill: #262626" transform="translate(20.209 22.445437) scale(0.088 -0.088)">
       <defs>
        <path id="ArialMT-31" d="M 2384 0 
L 1822 0 
L 1822 3584 
Q 1619 3391 1289 3197 
Q 959 3003 697 2906 
L 697 3450 
Q 1169 3672 1522 3987 
Q 1875 4303 2022 4600 
L 2384 4600 
L 2384 0 
z
" transform="scale(0.015625)"/>
       </defs>
       <use xlink:href="#ArialMT-31"/>
      </g>
     </g>
    </g>
    <g id="text_10">
     <!-- Damage Incident? -->
     <g style="fill: #262626" transform="translate(14.1885 179.211) rotate(-90) scale(0.096 -0.096)">
      <defs>
       <path id="ArialMT-44" d="M 494 0 
L 494 4581 
L 2072 4581 
Q 2606 4581 2888 4516 
Q 3281 4425 3559 4188 
Q 3922 3881 4101 3404 
Q 4281 2928 4281 2316 
Q 4281 1794 4159 1391 
Q 4038 988 3847 723 
Q 3656 459 3429 307 
Q 3203 156 2883 78 
Q 2563 0 2147 0 
L 494 0 
z
M 1100 541 
L 2078 541 
Q 2531 541 2789 625 
Q 3047 709 3200 863 
Q 3416 1078 3536 1442 
Q 3656 1806 3656 2325 
Q 3656 3044 3420 3430 
Q 3184 3816 2847 3947 
Q 2603 4041 2063 4041 
L 1100 4041 
L 1100 541 
z
" transform="scale(0.015625)"/>
       <path id="ArialMT-67" d="M 319 -275 
L 866 -356 
Q 900 -609 1056 -725 
Q 1266 -881 1628 -881 
Q 2019 -881 2231 -725 
Q 2444 -569 2519 -288 
Q 2563 -116 2559 434 
Q 2191 0 1641 0 
Q 956 0 581 494 
Q 206 988 206 1678 
Q 206 2153 378 2554 
Q 550 2956 876 3175 
Q 1203 3394 1644 3394 
Q 2231 3394 2613 2919 
L 2613 3319 
L 3131 3319 
L 3131 450 
Q 3131 -325 2973 -648 
Q 2816 -972 2473 -1159 
Q 2131 -1347 1631 -1347 
Q 1038 -1347 672 -1080 
Q 306 -813 319 -275 
z
M 784 1719 
Q 784 1066 1043 766 
Q 1303 466 1694 466 
Q 2081 466 2343 764 
Q 2606 1063 2606 1700 
Q 2606 2309 2336 2618 
Q 2066 2928 1684 2928 
Q 1309 2928 1046 2623 
Q 784 2319 784 1719 
z
" transform="scale(0.015625)"/>
       <path id="ArialMT-49" d="M 597 0 
L 597 4581 
L 1203 4581 
L 1203 0 
L 597 0 
z
" transform="scale(0.015625)"/>
       <path id="ArialMT-63" d="M 2588 1216 
L 3141 1144 
Q 3050 572 2676 248 
Q 2303 -75 1759 -75 
Q 1078 -75 664 370 
Q 250 816 250 1647 
Q 250 2184 428 2587 
Q 606 2991 970 3192 
Q 1334 3394 1763 3394 
Q 2303 3394 2647 3120 
Q 2991 2847 3088 2344 
L 2541 2259 
Q 2463 2594 2264 2762 
Q 2066 2931 1784 2931 
Q 1359 2931 1093 2626 
Q 828 2322 828 1663 
Q 828 994 1084 691 
Q 1341 388 1753 388 
Q 2084 388 2306 591 
Q 2528 794 2588 1216 
z
" transform="scale(0.015625)"/>
       <path id="ArialMT-3f" d="M 1475 1128 
Q 1472 1241 1472 1297 
Q 1472 1628 1566 1869 
Q 1634 2050 1788 2234 
Q 1900 2369 2192 2626 
Q 2484 2884 2571 3037 
Q 2659 3191 2659 3372 
Q 2659 3700 2403 3948 
Q 2147 4197 1775 4197 
Q 1416 4197 1175 3972 
Q 934 3747 859 3269 
L 281 3338 
Q 359 3978 745 4318 
Q 1131 4659 1766 4659 
Q 2438 4659 2838 4293 
Q 3238 3928 3238 3409 
Q 3238 3109 3097 2856 
Q 2956 2603 2547 2241 
Q 2272 1997 2187 1881 
Q 2103 1766 2062 1616 
Q 2022 1466 2016 1128 
L 1475 1128 
z
M 1441 0 
L 1441 641 
L 2081 641 
L 2081 0 
L 1441 0 
z
" transform="scale(0.015625)"/>
      </defs>
      <use xlink:href="#ArialMT-44"/>
      <use xlink:href="#ArialMT-61" x="72.216797"/>
      <use xlink:href="#ArialMT-6d" x="127.832031"/>
      <use xlink:href="#ArialMT-61" x="211.132812"/>
      <use xlink:href="#ArialMT-67" x="266.748047"/>
      <use xlink:href="#ArialMT-65" x="322.363281"/>
      <use xlink:href="#ArialMT-20" x="377.978516"/>
      <use xlink:href="#ArialMT-49" x="405.761719"/>
      <use xlink:href="#ArialMT-6e" x="433.544922"/>
      <use xlink:href="#ArialMT-63" x="489.160156"/>
      <use xlink:href="#ArialMT-69" x="539.160156"/>
      <use xlink:href="#ArialMT-64" x="561.376953"/>
      <use xlink:href="#ArialMT-65" x="616.992188"/>
      <use xlink:href="#ArialMT-6e" x="672.607422"/>
      <use xlink:href="#ArialMT-74" x="728.222656"/>
      <use xlink:href="#ArialMT-3f" x="756.005859"/>
     </g>
    </g>
   </g>
   <g id="PolyCollection_1">
    <defs>
     <path id="m6969c75ef1" d="M 49.635352 -289.26596 
L 49.635352 -262.85862 
L 52.914703 -260.620172 
L 56.194009 -258.228328 
L 59.473359 -255.676961 
L 62.75271 -252.960388 
L 66.03206 -250.073853 
L 69.311367 -247.013144 
L 72.590717 -243.774713 
L 75.870067 -240.356615 
L 79.149418 -236.757739 
L 82.428724 -232.848468 
L 85.708075 -228.722932 
L 88.987425 -224.408385 
L 92.266776 -219.91107 
L 95.546082 -215.239177 
L 98.825432 -210.402944 
L 102.104783 -205.414932 
L 105.384133 -200.289717 
L 108.663439 -195.044214 
L 111.94279 -189.696621 
L 115.22214 -184.267038 
L 118.501447 -178.776893 
L 121.780797 -173.248508 
L 125.060147 -167.704888 
L 128.339498 -162.169293 
L 131.618804 -156.666949 
L 134.898155 -151.22025 
L 138.177505 -145.848865 
L 141.456811 -140.701062 
L 144.736162 -135.846329 
L 148.015512 -131.110175 
L 151.294863 -126.504029 
L 154.574213 -122.036908 
L 157.853519 -117.718237 
L 161.13287 -113.555873 
L 164.41222 -109.555925 
L 167.691526 -105.723207 
L 170.970877 -102.060398 
L 174.250227 -98.56929 
L 177.529578 -95.249941 
L 180.808928 -92.101474 
L 184.088279 -89.121698 
L 187.367541 -86.307603 
L 190.646891 -83.655111 
L 193.926242 -81.159818 
L 197.205592 -78.816469 
L 200.484943 -76.619563 
L 203.764293 -74.51792 
L 207.043644 -72.481832 
L 210.322906 -70.58983 
L 213.602344 -68.834122 
L 216.881606 -67.207191 
L 220.160957 -65.701342 
L 223.440307 -64.309217 
L 226.719658 -63.023519 
L 229.999008 -61.837296 
L 233.278359 -60.743832 
L 236.557709 -59.75461 
L 239.836971 -58.862683 
L 243.116322 -58.039524 
L 246.395672 -57.280699 
L 249.675023 -56.581643 
L 252.954373 -55.937499 
L 256.233724 -55.344229 
L 259.513074 -54.798039 
L 262.792336 -54.295425 
L 266.071686 -53.833047 
L 269.351037 -53.407836 
L 272.630387 -53.016926 
L 275.909738 -52.657651 
L 279.189088 -52.327536 
L 282.468439 -52.024289 
L 285.747789 -51.745778 
L 289.027051 -51.48504 
L 292.306402 -51.244196 
L 295.585752 -51.030537 
L 298.865103 -50.83438 
L 302.144453 -50.654416 
L 305.423803 -50.489289 
L 308.703154 -50.337734 
L 311.982504 -50.198646 
L 315.261766 -50.071014 
L 318.541117 -49.953904 
L 321.820467 -49.846177 
L 325.099818 -49.747083 
L 328.379168 -49.656225 
L 331.658519 -49.572924 
L 334.937869 -49.496556 
L 338.217131 -49.42655 
L 341.496482 -49.362376 
L 344.775832 -49.303552 
L 348.055183 -49.249634 
L 351.334533 -49.200216 
L 354.613883 -49.154924 
L 357.893234 -49.113414 
L 361.172584 -49.075371 
L 364.451846 -49.040508 
L 367.731197 -49.008559 
L 371.010547 -48.979281 
L 374.289898 -48.952451 
L 374.289898 -63.922764 
L 374.289898 -63.922764 
L 371.010547 -65.134621 
L 367.731197 -66.435175 
L 364.451846 -67.829629 
L 361.172584 -69.323347 
L 357.893234 -70.921897 
L 354.613883 -72.630669 
L 351.334533 -74.45519 
L 348.055183 -76.398807 
L 344.775832 -78.468067 
L 341.496482 -80.66863 
L 338.217131 -83.005399 
L 334.937869 -85.482725 
L 331.658519 -88.104849 
L 328.379168 -90.875264 
L 325.099818 -93.79203 
L 321.820467 -96.725317 
L 318.541117 -99.799635 
L 315.261766 -103.015535 
L 311.982504 -106.372328 
L 308.703154 -109.868851 
L 305.423803 -113.502744 
L 302.144453 -117.270358 
L 298.865103 -121.167351 
L 295.585752 -125.183378 
L 292.306402 -129.315864 
L 289.027051 -133.556864 
L 285.747789 -137.897446 
L 282.468439 -142.327559 
L 279.189088 -146.836301 
L 275.909738 -151.411533 
L 272.630387 -156.040801 
L 269.351037 -160.710603 
L 266.071686 -165.407262 
L 262.792336 -170.116768 
L 259.513074 -174.824536 
L 256.233724 -179.51679 
L 252.954373 -184.179122 
L 249.675023 -188.958917 
L 246.395672 -193.907333 
L 243.116322 -198.772578 
L 239.836971 -203.539596 
L 236.557709 -208.194935 
L 233.278359 -212.726411 
L 229.999008 -216.87819 
L 226.719658 -220.834238 
L 223.440307 -224.661217 
L 220.160957 -228.353979 
L 216.881606 -231.908789 
L 213.602344 -235.32295 
L 210.322906 -238.59482 
L 207.043644 -241.719552 
L 203.764293 -244.701083 
L 200.484943 -247.539789 
L 197.205592 -250.23887 
L 193.926242 -252.800836 
L 190.646891 -255.228685 
L 187.367541 -257.525706 
L 184.088279 -259.695748 
L 180.808928 -261.74308 
L 177.529578 -263.671955 
L 174.250227 -265.487002 
L 170.970877 -267.234999 
L 167.691526 -268.875396 
L 164.41222 -270.411108 
L 161.13287 -271.847454 
L 157.853519 -273.189525 
L 154.574213 -274.442368 
L 151.294863 -275.610972 
L 148.015512 -276.700168 
L 144.736162 -277.714569 
L 141.456811 -278.658719 
L 138.177505 -279.536884 
L 134.898155 -280.353262 
L 131.618804 -281.11173 
L 128.339498 -281.816082 
L 125.060147 -282.469836 
L 121.780797 -283.076423 
L 118.501447 -283.638959 
L 115.22214 -284.160659 
L 111.94279 -284.644478 
L 108.663439 -285.092681 
L 105.384133 -285.507748 
L 102.104783 -285.891885 
L 98.825432 -286.247212 
L 95.546082 -286.568696 
L 92.266776 -286.864138 
L 88.987425 -287.138153 
L 85.708075 -287.392211 
L 82.428724 -287.627725 
L 79.149418 -287.846066 
L 75.870067 -288.063239 
L 72.590717 -288.266988 
L 69.311367 -288.454355 
L 66.03206 -288.621045 
L 62.75271 -288.771398 
L 59.473359 -288.910273 
L 56.194009 -289.038477 
L 52.914703 -289.156761 
L 49.635352 -289.26596 
z
" style="stroke: #0000ff; stroke-opacity: 0.1; stroke-width: 0.8"/>
    </defs>
    <g clip-path="url(#p1778b4e213)">
     <use xlink:href="#m6969c75ef1" x="0" y="309.874875" style="fill: #0000ff; fill-opacity: 0.1; stroke: #0000ff; stroke-opacity: 0.1; stroke-width: 0.8"/>
    </g>
   </g>
   <g id="line2d_9">
    <defs>
     <path id="m883e10f839" d="M 0 2.4 
C 0.636487 2.4 1.246992 2.147121 1.697056 1.697056 
C 2.147121 1.246992 2.4 0.636487 2.4 0 
C 2.4 -0.636487 2.147121 -1.246992 1.697056 -1.697056 
C 1.246992 -2.147121 0.636487 -2.4 0 -2.4 
C -0.636487 -2.4 -1.246992 -2.147121 -1.697056 -1.697056 
C -2.147121 -1.246992 -2.4 -0.636487 -2.4 0 
C -2.4 0.636487 -2.147121 1.246992 -1.697056 1.697056 
C -1.246992 2.147121 -0.636487 2.4 0 2.4 
z
" style="stroke: #ff0000"/>
    </defs>
    <g clip-path="url(#p1778b4e213)">
     <use xlink:href="#m883e10f839" x="200.36782" y="261.216" style="fill: #ff0000; stroke: #ff0000"/>
     <use xlink:href="#m883e10f839" x="246.747041" y="19.296" style="fill: #ff0000; stroke: #ff0000"/>
     <use xlink:href="#m883e10f839" x="235.152235" y="261.216" style="fill: #ff0000; stroke: #ff0000"/>
     <use xlink:href="#m883e10f839" x="223.55743" y="261.216" style="fill: #ff0000; stroke: #ff0000"/>
     <use xlink:href="#m883e10f839" x="211.962625" y="261.216" style="fill: #ff0000; stroke: #ff0000"/>
     <use xlink:href="#m883e10f839" x="269.936651" y="261.216" style="fill: #ff0000; stroke: #ff0000"/>
     <use xlink:href="#m883e10f839" x="281.531456" y="261.216" style="fill: #ff0000; stroke: #ff0000"/>
     <use xlink:href="#m883e10f839" x="246.747041" y="261.216" style="fill: #ff0000; stroke: #ff0000"/>
     <use xlink:href="#m883e10f839" x="96.014573" y="19.296" style="fill: #ff0000; stroke: #ff0000"/>
     <use xlink:href="#m883e10f839" x="165.583404" y="19.296" style="fill: #ff0000; stroke: #ff0000"/>
     <use xlink:href="#m883e10f839" x="246.747041" y="19.296" style="fill: #ff0000; stroke: #ff0000"/>
     <use xlink:href="#m883e10f839" x="339.505482" y="261.216" style="fill: #ff0000; stroke: #ff0000"/>
     <use xlink:href="#m883e10f839" x="211.962625" y="261.216" style="fill: #ff0000; stroke: #ff0000"/>
     <use xlink:href="#m883e10f839" x="49.635352" y="19.296" style="fill: #ff0000; stroke: #ff0000"/>
     <use xlink:href="#m883e10f839" x="211.962625" y="261.216" style="fill: #ff0000; stroke: #ff0000"/>
     <use xlink:href="#m883e10f839" x="304.721067" y="261.216" style="fill: #ff0000; stroke: #ff0000"/>
     <use xlink:href="#m883e10f839" x="246.747041" y="261.216" style="fill: #ff0000; stroke: #ff0000"/>
     <use xlink:href="#m883e10f839" x="374.289898" y="261.216" style="fill: #ff0000; stroke: #ff0000"/>
     <use xlink:href="#m883e10f839" x="316.315872" y="261.216" style="fill: #ff0000; stroke: #ff0000"/>
     <use xlink:href="#m883e10f839" x="351.100287" y="261.216" style="fill: #ff0000; stroke: #ff0000"/>
     <use xlink:href="#m883e10f839" x="304.721067" y="19.296" style="fill: #ff0000; stroke: #ff0000"/>
     <use xlink:href="#m883e10f839" x="316.315872" y="261.216" style="fill: #ff0000; stroke: #ff0000"/>
     <use xlink:href="#m883e10f839" x="107.609378" y="19.296" style="fill: #ff0000; stroke: #ff0000"/>
    </g>
   </g>
   <g id="line2d_10">
    <path d="M 49.635352 25.667511 
L 52.914703 26.225245 
L 56.194009 26.813607 
L 59.473359 27.446034 
L 62.75271 28.132895 
L 66.03206 28.886389 
L 69.311367 29.701267 
L 72.590717 30.582013 
L 75.870067 31.533387 
L 79.149418 32.560333 
L 82.428724 33.668058 
L 85.708075 34.843857 
L 88.987425 36.098964 
L 92.266776 37.441814 
L 95.546082 38.865385 
L 98.825432 40.380332 
L 102.104783 42.048732 
L 105.384133 43.916122 
L 108.663439 45.870318 
L 111.94279 47.963288 
L 115.22214 50.148572 
L 118.501447 52.439262 
L 121.780797 54.861949 
L 125.060147 57.464679 
L 128.339498 60.26885 
L 131.618804 63.151175 
L 134.898155 66.222468 
L 138.177505 69.484878 
L 141.456811 72.96749 
L 144.736162 76.689436 
L 148.015512 80.627705 
L 151.294863 84.564489 
L 154.574213 88.633068 
L 157.853519 92.893643 
L 161.13287 97.297692 
L 164.41222 101.778627 
L 167.691526 106.449871 
L 170.970877 111.129766 
L 174.250227 115.945797 
L 177.529578 120.931315 
L 180.808928 126.010258 
L 184.088279 131.201629 
L 187.367541 136.334227 
L 190.646891 141.442528 
L 193.926242 146.579948 
L 197.205592 151.679749 
L 200.484943 156.787119 
L 203.764293 161.767533 
L 207.043644 166.658689 
L 210.322906 171.467503 
L 213.602344 176.196058 
L 216.881606 180.86095 
L 220.160957 185.393665 
L 223.440307 189.760079 
L 226.719658 193.935348 
L 229.999008 197.957179 
L 233.278359 201.824821 
L 236.557709 205.555801 
L 239.836971 209.057115 
L 243.116322 212.442942 
L 246.395672 215.696174 
L 249.675023 218.733696 
L 252.954373 221.603238 
L 256.233724 224.314742 
L 259.513074 226.886131 
L 262.792336 229.331158 
L 266.071686 231.634837 
L 269.351037 233.790196 
L 272.630387 235.784129 
L 275.909738 237.634661 
L 279.189088 239.368937 
L 282.468439 241.005318 
L 285.747789 242.519272 
L 289.027051 243.911362 
L 292.306402 245.225322 
L 295.585752 246.459708 
L 298.865103 247.604529 
L 302.144453 248.665432 
L 305.423803 249.638904 
L 308.703154 250.533755 
L 311.982504 251.366795 
L 315.261766 252.143112 
L 318.541117 252.864288 
L 321.820467 253.531714 
L 325.099818 254.145297 
L 328.379168 254.711251 
L 331.658519 255.234334 
L 334.937869 255.714255 
L 338.217131 256.154166 
L 341.496482 256.557843 
L 344.775832 256.930716 
L 348.055183 257.27052 
L 351.334533 257.583786 
L 354.613883 257.86844 
L 357.893234 258.134222 
L 361.172584 258.382425 
L 364.451846 258.612734 
L 367.731197 258.823991 
L 371.010547 259.018064 
L 374.289898 259.196523 
" clip-path="url(#p1778b4e213)" style="fill: none; stroke: #0000ff; stroke-width: 1.2; stroke-linecap: round"/>
   </g>
   <g id="line2d_11">
    <path d="M 49.635352 29.860516 
L 52.914703 30.750967 
L 56.194009 31.712405 
L 59.473359 32.74982 
L 62.75271 33.868446 
L 66.03206 35.073647 
L 69.311367 36.371032 
L 72.590717 37.766369 
L 75.870067 39.265643 
L 79.149418 40.874822 
L 82.428724 42.60005 
L 85.708075 44.447512 
L 88.987425 46.423222 
L 92.266776 48.53325 
L 95.546082 50.783248 
L 98.825432 53.178884 
L 102.104783 55.725219 
L 105.384133 58.426954 
L 108.663439 61.288068 
L 111.94279 64.311921 
L 115.22214 67.501094 
L 118.501447 70.856899 
L 121.780797 74.380058 
L 125.060147 78.069532 
L 128.339498 81.923375 
L 131.618804 85.937865 
L 134.898155 90.108073 
L 138.177505 94.42748 
L 141.456811 98.887593 
L 144.736162 103.479039 
L 148.015512 108.19021 
L 151.294863 113.008505 
L 154.574213 117.919531 
L 157.853519 122.908006 
L 161.13287 127.957575 
L 164.41222 133.050721 
L 167.691526 138.169649 
L 170.970877 143.296039 
L 174.250227 148.411643 
L 177.529578 153.498011 
L 180.808928 158.537516 
L 184.088279 163.512804 
L 187.367541 168.407673 
L 190.646891 173.206985 
L 193.926242 177.896786 
L 197.205592 182.464649 
L 200.484943 186.899333 
L 203.764293 191.191559 
L 207.043644 195.33323 
L 210.322906 199.318154 
L 213.602344 203.141647 
L 216.881606 206.800187 
L 220.160957 210.292243 
L 223.440307 213.617014 
L 226.719658 216.775297 
L 229.999008 219.768649 
L 233.278359 222.599871 
L 236.557709 225.272312 
L 239.836971 227.790212 
L 243.116322 230.158325 
L 246.395672 232.381869 
L 249.675023 234.466461 
L 252.954373 236.417838 
L 256.233724 238.242104 
L 259.513074 239.945279 
L 262.792336 241.533539 
L 266.071686 243.012989 
L 269.351037 244.389655 
L 272.630387 245.669468 
L 275.909738 246.85812 
L 279.189088 247.961239 
L 282.468439 248.984138 
L 285.747789 249.932013 
L 289.027051 250.809724 
L 292.306402 251.622039 
L 295.585752 252.373351 
L 298.865103 253.067889 
L 302.144453 253.709647 
L 305.423803 254.302341 
L 308.703154 254.849519 
L 311.982504 255.354461 
L 315.261766 255.820271 
L 318.541117 256.249843 
L 321.820467 256.645876 
L 325.099818 257.010895 
L 328.379168 257.347228 
L 331.658519 257.65707 
L 334.937869 257.942432 
L 338.217131 258.205202 
L 341.496482 258.447124 
L 344.775832 258.66982 
L 348.055183 258.874776 
L 351.334533 259.063381 
L 354.613883 259.236923 
L 357.893234 259.396576 
L 361.172584 259.543443 
L 364.451846 259.678524 
L 367.731197 259.802766 
L 371.010547 259.91702 
L 374.289898 260.022082 
" clip-path="url(#p1778b4e213)" style="fill: none; stroke: #0000ff; stroke-opacity: 0.1; stroke-width: 1.2; stroke-linecap: round"/>
   </g>
   <g id="line2d_12">
    <path d="M 49.635352 28.181777 
L 52.914703 28.956929 
L 56.194009 29.796623 
L 59.473359 30.705762 
L 62.75271 31.689377 
L 66.03206 32.752834 
L 69.311367 33.901755 
L 72.590717 35.141953 
L 75.870067 36.479482 
L 79.149418 37.920615 
L 82.428724 39.471756 
L 85.708075 41.139507 
L 88.987425 42.930373 
L 92.266776 44.851014 
L 95.546082 46.907949 
L 98.825432 49.107696 
L 102.104783 51.456382 
L 105.384133 53.959905 
L 108.663439 56.623558 
L 111.94279 59.452271 
L 115.22214 62.45014 
L 118.501447 65.620423 
L 121.780797 68.965385 
L 125.060147 72.486237 
L 128.339498 76.182791 
L 131.618804 80.053562 
L 134.898155 84.095464 
L 138.177505 88.303826 
L 141.456811 92.672187 
L 144.736162 97.192689 
L 148.015512 101.855166 
L 151.294863 106.648096 
L 154.574213 111.5582 
L 157.853519 116.570481 
L 161.13287 121.66902 
L 164.41222 126.835994 
L 167.691526 132.052917 
L 170.970877 137.300813 
L 174.250227 142.559856 
L 177.529578 147.810319 
L 180.808928 153.032224 
L 184.088279 158.206436 
L 187.367541 163.314218 
L 190.646891 168.338171 
L 193.926242 173.261757 
L 197.205592 178.069958 
L 200.484943 182.74927 
L 203.764293 187.287854 
L 207.043644 191.675602 
L 210.322906 195.904086 
L 213.602344 199.967077 
L 216.881606 203.859146 
L 220.160957 207.577394 
L 223.440307 211.120038 
L 226.719658 214.486762 
L 229.999008 217.678585 
L 233.278359 220.697647 
L 236.557709 223.547106 
L 239.836971 226.230932 
L 243.116322 228.753979 
L 246.395672 231.121537 
L 249.675023 233.339398 
L 252.954373 235.413768 
L 256.233724 237.350945 
L 259.513074 239.157528 
L 262.792336 240.840095 
L 266.071686 242.405336 
L 269.351037 243.859758 
L 272.630387 245.20979 
L 275.909738 246.461714 
L 279.189088 247.62161 
L 282.468439 248.695348 
L 285.747789 249.68858 
L 289.027051 250.606607 
L 292.306402 251.454675 
L 295.585752 252.237568 
L 298.865103 252.959902 
L 302.144453 253.626017 
L 305.423803 254.239993 
L 308.703154 254.805661 
L 311.982504 255.326611 
L 315.261766 255.806187 
L 318.541117 256.247542 
L 321.820467 256.653584 
L 325.099818 257.027029 
L 328.379168 257.370409 
L 331.658519 257.686053 
L 334.937869 257.976142 
L 338.217131 258.242683 
L 341.496482 258.487552 
L 344.775832 258.712465 
L 348.055183 258.919017 
L 351.334533 259.108677 
L 354.613883 259.282804 
L 357.893234 259.442649 
L 361.172584 259.58937 
L 364.451846 259.724018 
L 367.731197 259.847592 
L 371.010547 259.960982 
L 374.289898 260.065021 
" clip-path="url(#p1778b4e213)" style="fill: none; stroke: #0000ff; stroke-opacity: 0.1; stroke-width: 1.2; stroke-linecap: round"/>
   </g>
   <g id="line2d_13">
    <path d="M 49.635352 24.058404 
L 52.914703 24.474798 
L 56.194009 24.926736 
L 59.473359 25.417073 
L 62.75271 25.948967 
L 66.03206 26.525605 
L 69.311367 27.150548 
L 72.590717 27.827604 
L 75.870067 28.560665 
L 79.149418 29.354015 
L 82.428724 30.212123 
L 85.708075 31.139689 
L 88.987425 32.14169 
L 92.266776 33.223315 
L 95.546082 34.39003 
L 98.825432 35.647488 
L 102.104783 37.001484 
L 105.384133 38.458133 
L 108.663439 40.023491 
L 111.94279 41.703845 
L 115.22214 43.505598 
L 118.501447 45.434848 
L 121.780797 47.498055 
L 125.060147 49.701133 
L 128.339498 52.049891 
L 131.618804 54.549853 
L 134.898155 57.206036 
L 138.177505 60.022982 
L 141.456811 63.004326 
L 144.736162 66.153096 
L 148.015512 69.471339 
L 151.294863 72.959833 
L 154.574213 76.618478 
L 157.853519 80.445428 
L 161.13287 84.437727 
L 164.41222 88.590847 
L 167.691526 92.898401 
L 170.970877 97.352631 
L 174.250227 101.944192 
L 177.529578 106.661737 
L 180.808928 111.492764 
L 184.088279 116.422969 
L 187.367541 121.436951 
L 190.646891 126.518086 
L 193.926242 131.648938 
L 197.205592 136.81101 
L 200.484943 141.985763 
L 203.764293 147.154099 
L 207.043644 152.297389 
L 210.322906 157.39685 
L 213.602344 162.435202 
L 216.881606 167.394844 
L 220.160957 172.260442 
L 223.440307 177.017049 
L 226.719658 181.651718 
L 229.999008 186.152588 
L 233.278359 190.509831 
L 236.557709 194.714855 
L 239.836971 198.761018 
L 243.116322 202.643206 
L 246.395672 206.357925 
L 249.675023 209.902908 
L 252.954373 213.277592 
L 256.233724 216.482349 
L 259.513074 219.518985 
L 262.792336 222.389951 
L 266.071686 225.098953 
L 269.351037 227.650241 
L 272.630387 230.048545 
L 275.909738 232.299319 
L 279.189088 234.408229 
L 282.468439 236.381223 
L 285.747789 238.22457 
L 289.027051 239.944426 
L 292.306402 241.547225 
L 295.585752 243.039236 
L 298.865103 244.426585 
L 302.144453 245.71541 
L 305.423803 246.911557 
L 308.703154 248.020806 
L 311.982504 249.048611 
L 315.261766 250.000286 
L 318.541117 250.880873 
L 321.820467 251.695192 
L 325.099818 252.447763 
L 328.379168 253.142929 
L 331.658519 253.784723 
L 334.937869 254.377001 
L 338.217131 254.923317 
L 341.496482 255.427088 
L 344.775832 255.89143 
L 348.055183 256.319308 
L 351.334533 256.713448 
L 354.613883 257.076425 
L 357.893234 257.410602 
L 361.172584 257.718205 
L 364.451846 258.001268 
L 367.731197 258.261718 
L 371.010547 258.501302 
L 374.289898 258.721664 
" clip-path="url(#p1778b4e213)" style="fill: none; stroke: #0000ff; stroke-opacity: 0.1; stroke-width: 1.2; stroke-linecap: round"/>
   </g>
   <g id="line2d_14">
    <path d="M 49.635352 26.413291 
L 52.914703 27.017355 
L 56.194009 27.670806 
L 59.473359 28.377465 
L 62.75271 29.141197 
L 66.03206 29.966269 
L 69.311367 30.856965 
L 72.590717 31.818057 
L 75.870067 32.854304 
L 79.149418 33.970839 
L 82.428724 35.172897 
L 85.708075 36.466028 
L 88.987425 37.855814 
L 92.266776 39.34805 
L 95.546082 40.948592 
L 98.825432 42.66351 
L 102.104783 44.498672 
L 105.384133 46.460049 
L 108.663439 48.553423 
L 111.94279 50.784546 
L 115.22214 53.158668 
L 118.501447 55.680793 
L 121.780797 58.355563 
L 125.060147 61.186958 
L 128.339498 64.178107 
L 131.618804 67.331476 
L 134.898155 70.648811 
L 138.177505 74.130369 
L 141.456811 77.775445 
L 144.736162 81.582251 
L 148.015512 85.547456 
L 151.294863 89.666114 
L 154.574213 93.932009 
L 157.853519 98.33727 
L 161.13287 102.872855 
L 164.41222 107.527603 
L 167.691526 112.289214 
L 170.970877 117.144322 
L 174.250227 122.078088 
L 177.529578 127.074406 
L 180.808928 132.116651 
L 184.088279 137.18749 
L 187.367541 142.26902 
L 190.646891 147.343572 
L 193.926242 152.3932 
L 197.205592 157.400462 
L 200.484943 162.348576 
L 203.764293 167.221261 
L 207.043644 172.003565 
L 210.322906 176.681485 
L 213.602344 181.242779 
L 216.881606 185.675892 
L 220.160957 189.971463 
L 223.440307 194.121375 
L 226.719658 198.118822 
L 229.999008 201.958836 
L 233.278359 205.63778 
L 236.557709 209.153426 
L 239.836971 212.504744 
L 243.116322 215.692129 
L 246.395672 218.716829 
L 249.675023 221.581184 
L 252.954373 224.288174 
L 256.233724 226.841697 
L 259.513074 229.246187 
L 262.792336 231.506506 
L 266.071686 233.628065 
L 269.351037 235.6164 
L 272.630387 237.4773 
L 275.909738 239.216724 
L 279.189088 240.840559 
L 282.468439 242.354814 
L 285.747789 243.765396 
L 289.027051 245.078089 
L 292.306402 246.298625 
L 295.585752 247.432486 
L 298.865103 248.485019 
L 302.144453 249.461299 
L 305.423803 250.366257 
L 308.703154 251.204576 
L 311.982504 251.980708 
L 315.261766 252.698866 
L 318.541117 253.363078 
L 321.820467 253.977096 
L 325.099818 254.544487 
L 328.379168 255.068558 
L 331.658519 255.552452 
L 334.937869 255.9991 
L 338.217131 256.411231 
L 341.496482 256.791421 
L 344.775832 257.142044 
L 348.055183 257.465321 
L 351.334533 257.763324 
L 354.613883 258.037959 
L 357.893234 258.291018 
L 361.172584 258.524153 
L 364.451846 258.738894 
L 367.731197 258.936672 
L 371.010547 259.118797 
L 374.289898 259.286491 
" clip-path="url(#p1778b4e213)" style="fill: none; stroke: #0000ff; stroke-opacity: 0.1; stroke-width: 1.2; stroke-linecap: round"/>
   </g>
   <g id="line2d_15">
    <path d="M 49.635352 20.775201 
L 52.914703 20.903492 
L 56.194009 21.042857 
L 59.473359 21.194234 
L 62.75271 21.358573 
L 66.03206 21.537015 
L 69.311367 21.730756 
L 72.590717 21.941037 
L 75.870067 22.169284 
L 79.149418 22.416983 
L 82.428724 22.685706 
L 85.708075 22.977212 
L 88.987425 23.29336 
L 92.266776 23.636185 
L 95.546082 24.007806 
L 98.825432 24.410573 
L 102.104783 24.846967 
L 105.384133 25.319668 
L 108.663439 25.831491 
L 111.94279 26.385475 
L 115.22214 26.984911 
L 118.501447 27.633228 
L 121.780797 28.334091 
L 125.060147 29.091406 
L 128.339498 29.909283 
L 131.618804 30.792077 
L 134.898155 31.744345 
L 138.177505 32.770887 
L 141.456811 33.876665 
L 144.736162 35.066942 
L 148.015512 36.34711 
L 151.294863 37.722736 
L 154.574213 39.1995 
L 157.853519 40.783229 
L 161.13287 42.479834 
L 164.41222 44.295212 
L 167.691526 46.235176 
L 170.970877 48.305608 
L 174.250227 50.51206 
L 177.529578 52.859895 
L 180.808928 55.354074 
L 184.088279 57.999169 
L 187.367541 60.799115 
L 190.646891 63.757402 
L 193.926242 66.876453 
L 197.205592 70.157983 
L 200.484943 73.60257 
L 203.764293 77.209723 
L 207.043644 80.977625 
L 210.322906 84.903248 
L 213.602344 88.982324 
L 216.881606 93.208479 
L 220.160957 97.574562 
L 223.440307 102.071488 
L 226.719658 106.688774 
L 229.999008 111.414538 
L 233.278359 116.235529 
L 236.557709 121.137313 
L 239.836971 126.104115 
L 243.116322 131.120015 
L 246.395672 136.16771 
L 249.675023 141.229695 
L 252.954373 146.288284 
L 256.233724 151.325806 
L 259.513074 156.324893 
L 262.792336 161.268616 
L 266.071686 166.141107 
L 269.351037 170.927123 
L 272.630387 175.612657 
L 275.909738 180.184983 
L 279.189088 184.632738 
L 282.468439 188.946016 
L 285.747789 193.116332 
L 289.027051 197.136901 
L 292.306402 201.002405 
L 295.585752 204.708826 
L 298.865103 208.253592 
L 302.144453 211.635457 
L 305.423803 214.854356 
L 308.703154 217.911331 
L 311.982504 220.808382 
L 315.261766 223.548321 
L 318.541117 226.134872 
L 321.820467 228.572141 
L 325.099818 230.86498 
L 328.379168 233.018472 
L 331.658519 235.038075 
L 334.937869 236.929465 
L 338.217131 238.698422 
L 341.496482 240.350923 
L 344.775832 241.892833 
L 348.055183 243.330016 
L 351.334533 244.668253 
L 354.613883 245.913203 
L 357.893234 247.070369 
L 361.172584 248.14508 
L 364.451846 249.142424 
L 367.731197 250.067415 
L 371.010547 250.924714 
L 374.289898 251.718801 
" clip-path="url(#p1778b4e213)" style="fill: none; stroke: #0000ff; stroke-opacity: 0.1; stroke-width: 1.2; stroke-linecap: round"/>
   </g>
   <g id="line2d_16">
    <path d="M 49.635352 26.996677 
L 52.914703 27.655838 
L 56.194009 28.36926 
L 59.473359 29.140995 
L 62.75271 29.975354 
L 66.03206 30.876922 
L 69.311367 31.850444 
L 72.590717 32.900995 
L 75.870067 34.033766 
L 79.149418 35.254295 
L 82.428724 36.568205 
L 85.708075 37.981336 
L 88.987425 39.499715 
L 92.266776 41.129428 
L 95.546082 42.876516 
L 98.825432 44.747367 
L 102.104783 46.747921 
L 105.384133 48.884222 
L 108.663439 51.162079 
L 111.94279 53.586958 
L 115.22214 56.16405 
L 118.501447 58.897767 
L 121.780797 61.792305 
L 125.060147 64.850678 
L 128.339498 68.075338 
L 131.618804 71.467596 
L 134.898155 75.027712 
L 138.177505 78.754634 
L 141.456811 82.645967 
L 144.736162 86.69792 
L 148.015512 90.905186 
L 151.294863 95.260671 
L 154.574213 99.755924 
L 157.853519 104.380794 
L 161.13287 109.123588 
L 164.41222 113.971299 
L 167.691526 118.909045 
L 170.970877 123.921556 
L 174.250227 128.99176 
L 177.529578 134.102195 
L 180.808928 139.234778 
L 184.088279 144.371139 
L 187.367541 149.492446 
L 190.646891 154.58079 
L 193.926242 159.618226 
L 197.205592 164.587775 
L 200.484943 169.47307 
L 203.764293 174.259187 
L 207.043644 178.932529 
L 210.322906 183.4805 
L 213.602344 187.892754 
L 216.881606 192.15971 
L 220.160957 196.274193 
L 223.440307 200.229924 
L 226.719658 204.02257 
L 229.999008 207.649182 
L 233.278359 211.108289 
L 236.557709 214.399473 
L 239.836971 217.523654 
L 243.116322 220.482947 
L 246.395672 223.280222 
L 249.675023 225.919044 
L 252.954373 228.403836 
L 256.233724 230.739559 
L 259.513074 232.931454 
L 262.792336 234.985219 
L 266.071686 236.906868 
L 269.351037 238.702472 
L 272.630387 240.378107 
L 275.909738 241.939985 
L 279.189088 243.394233 
L 282.468439 244.74691 
L 285.747789 246.003863 
L 289.027051 247.170833 
L 292.306402 248.253422 
L 295.585752 249.256968 
L 298.865103 250.186543 
L 302.144453 251.047058 
L 305.423803 251.843178 
L 308.703154 252.579277 
L 311.982504 253.259545 
L 315.261766 253.887901 
L 318.541117 254.468089 
L 321.820467 255.003546 
L 325.099818 255.497548 
L 328.379168 255.953145 
L 331.658519 256.373197 
L 334.937869 256.760345 
L 338.217131 257.117071 
L 341.496482 257.445698 
L 344.775832 257.748368 
L 348.055183 258.02706 
L 351.334533 258.283629 
L 354.613883 258.519794 
L 357.893234 258.737131 
L 361.172584 258.937116 
L 364.451846 259.121104 
L 367.731197 259.290365 
L 371.010547 259.446047 
L 374.289898 259.589228 
" clip-path="url(#p1778b4e213)" style="fill: none; stroke: #0000ff; stroke-opacity: 0.1; stroke-width: 1.2; stroke-linecap: round"/>
   </g>
   <g id="line2d_17">
    <path d="M 49.635352 25.304066 
L 52.914703 25.812644 
L 56.194009 26.362995 
L 59.473359 26.958336 
L 62.75271 27.602068 
L 66.03206 28.297768 
L 69.311367 29.049315 
L 72.590717 29.860761 
L 75.870067 30.73636 
L 79.149418 31.680711 
L 82.428724 32.698429 
L 85.708075 33.794503 
L 88.987425 34.974094 
L 92.266776 36.242482 
L 95.546082 37.605188 
L 98.825432 39.067821 
L 102.104783 40.636164 
L 105.384133 42.316013 
L 108.663439 44.113223 
L 111.94279 46.033605 
L 115.22214 48.082898 
L 118.501447 50.266624 
L 121.780797 52.590134 
L 125.060147 55.058474 
L 128.339498 57.67607 
L 131.618804 60.446975 
L 134.898155 63.374736 
L 138.177505 66.46179 
L 141.456811 69.709924 
L 144.736162 73.119948 
L 148.015512 76.691498 
L 151.294863 80.423034 
L 154.574213 84.311772 
L 157.853519 88.353213 
L 161.13287 92.541993 
L 164.41222 96.870888 
L 167.691526 101.331001 
L 170.970877 105.912613 
L 174.250227 110.603856 
L 177.529578 115.391971 
L 180.808928 120.262853 
L 184.088279 125.201422 
L 187.367541 130.191294 
L 190.646891 135.21599 
L 193.926242 140.258192 
L 197.205592 145.300372 
L 200.484943 150.325183 
L 203.764293 155.315121 
L 207.043644 160.253523 
L 210.322906 165.124232 
L 213.602344 169.912477 
L 216.881606 174.603533 
L 220.160957 179.184929 
L 223.440307 183.645034 
L 226.719658 187.97372 
L 229.999008 192.162442 
L 233.278359 196.203847 
L 236.557709 200.092362 
L 239.836971 203.823667 
L 243.116322 207.395081 
L 246.395672 210.805035 
L 249.675023 214.053047 
L 252.954373 217.139953 
L 256.233724 220.067502 
L 259.513074 222.838381 
L 262.792336 225.455794 
L 266.071686 227.923942 
L 269.351037 230.247337 
L 272.630387 232.430953 
L 275.909738 234.480161 
L 279.189088 236.40043 
L 282.468439 238.19753 
L 285.747789 239.87728 
L 289.027051 241.445486 
L 292.306402 242.908076 
L 295.585752 244.270686 
L 298.865103 245.538994 
L 302.144453 246.718487 
L 305.423803 247.814521 
L 308.703154 248.832183 
L 311.982504 249.776435 
L 315.261766 250.651983 
L 318.541117 251.463373 
L 321.820467 252.214883 
L 325.099818 252.910541 
L 328.379168 253.554203 
L 331.658519 254.149492 
L 334.937869 254.699815 
L 338.217131 255.208376 
L 341.496482 255.67818 
L 344.775832 256.11204 
L 348.055183 256.512585 
L 351.334533 256.882281 
L 354.613883 257.223399 
L 357.893234 257.538082 
L 361.172584 257.828316 
L 364.451846 258.095941 
L 367.731197 258.342689 
L 371.010547 258.570135 
L 374.289898 258.77976 
" clip-path="url(#p1778b4e213)" style="fill: none; stroke: #0000ff; stroke-opacity: 0.1; stroke-width: 1.2; stroke-linecap: round"/>
   </g>
   <g id="line2d_18">
    <path d="M 49.635352 24.399715 
L 52.914703 24.844933 
L 56.194009 25.328061 
L 59.473359 25.852038 
L 62.75271 26.420198 
L 66.03206 27.035942 
L 69.311367 27.703034 
L 72.590717 28.425352 
L 75.870067 29.207109 
L 79.149418 30.052715 
L 82.428724 30.966828 
L 85.708075 31.95438 
L 88.987425 33.02049 
L 92.266776 34.170622 
L 95.546082 35.410257 
L 98.825432 36.745292 
L 102.104783 38.18171 
L 105.384133 39.725554 
L 108.663439 41.383169 
L 111.94279 43.160768 
L 115.22214 45.064611 
L 118.501447 47.101027 
L 121.780797 49.276015 
L 125.060147 51.595502 
L 128.339498 54.065009 
L 131.618804 56.689585 
L 134.898155 59.473929 
L 138.177505 62.421863 
L 141.456811 65.536472 
L 144.736162 68.820022 
L 148.015512 72.273649 
L 151.294863 75.89724 
L 154.574213 79.689454 
L 157.853519 83.647449 
L 161.13287 87.767058 
L 164.41222 92.04237 
L 167.691526 96.465756 
L 170.970877 101.028277 
L 174.250227 105.719045 
L 177.529578 110.525587 
L 180.808928 115.434292 
L 184.088279 120.429846 
L 187.367541 125.495782 
L 190.646891 130.614941 
L 193.926242 135.768966 
L 197.205592 140.93948 
L 200.484943 146.107499 
L 203.764293 151.254192 
L 207.043644 156.361043 
L 210.322906 161.409885 
L 213.602344 166.384148 
L 216.881606 171.267194 
L 220.160957 176.044501 
L 223.440307 180.702508 
L 226.719658 185.22926 
L 229.999008 189.614312 
L 233.278359 193.849134 
L 236.557709 197.926566 
L 239.836971 201.841075 
L 243.116322 205.588945 
L 246.395672 209.167608 
L 249.675023 212.576232 
L 252.954373 215.815009 
L 256.233724 218.885358 
L 259.513074 221.789719 
L 262.792336 224.53132 
L 266.071686 227.11449 
L 269.351037 229.543843 
L 272.630387 231.824603 
L 275.909738 233.962411 
L 279.189088 235.9632 
L 282.468439 237.833106 
L 285.747789 239.578337 
L 289.027051 241.205238 
L 292.306402 242.720117 
L 295.585752 244.129147 
L 298.865103 245.438416 
L 302.144453 246.653836 
L 305.423803 247.781211 
L 308.703154 248.826063 
L 311.982504 249.793718 
L 315.261766 250.689245 
L 318.541117 251.517515 
L 321.820467 252.283148 
L 325.099818 252.990481 
L 328.379168 253.643624 
L 331.658519 254.246451 
L 334.937869 254.802602 
L 338.217131 255.315466 
L 341.496482 255.788283 
L 344.775832 256.224013 
L 348.055183 256.625443 
L 351.334533 256.995167 
L 354.613883 257.335593 
L 357.893234 257.648981 
L 361.172584 257.937408 
L 364.451846 258.202802 
L 367.731197 258.446968 
L 371.010547 258.671554 
L 374.289898 258.878108 
" clip-path="url(#p1778b4e213)" style="fill: none; stroke: #0000ff; stroke-opacity: 0.1; stroke-width: 1.2; stroke-linecap: round"/>
   </g>
   <g id="line2d_19">
    <path d="M 49.635352 20.719124 
L 52.914703 20.839051 
L 56.194009 20.968986 
L 59.473359 21.109778 
L 62.75271 21.262352 
L 66.03206 21.427614 
L 69.311367 21.606633 
L 72.590717 21.800547 
L 75.870067 22.010539 
L 79.149418 22.237907 
L 82.428724 22.484092 
L 85.708075 22.750594 
L 88.987425 23.039014 
L 92.266776 23.351067 
L 95.546082 23.688687 
L 98.825432 24.053862 
L 102.104783 24.448698 
L 105.384133 24.875575 
L 108.663439 25.336885 
L 111.94279 25.835283 
L 115.22214 26.373579 
L 118.501447 26.954745 
L 121.780797 27.581938 
L 125.060147 28.258518 
L 128.339498 28.988076 
L 131.618804 29.774316 
L 134.898155 30.621263 
L 138.177505 31.533041 
L 141.456811 32.514003 
L 144.736162 33.56875 
L 148.015512 34.70194 
L 151.294863 35.91859 
L 154.574213 37.223675 
L 157.853519 38.62243 
L 161.13287 40.120203 
L 164.41222 41.722374 
L 167.691526 43.434293 
L 170.970877 45.261438 
L 174.250227 47.209232 
L 177.529578 49.282778 
L 180.808928 51.487225 
L 184.088279 53.827303 
L 187.367541 56.307452 
L 190.646891 58.93171 
L 193.926242 61.703567 
L 197.205592 64.625849 
L 200.484943 67.700559 
L 203.764293 70.929141 
L 207.043644 74.311753 
L 210.322906 77.847788 
L 213.602344 81.535604 
L 216.881606 85.371696 
L 220.160957 89.352243 
L 223.440307 93.471319 
L 226.719658 97.72219 
L 229.999008 102.096319 
L 233.278359 106.584247 
L 236.557709 111.174871 
L 239.836971 115.856151 
L 243.116322 120.614893 
L 246.395672 125.437023 
L 249.675023 130.307458 
L 252.954373 135.210468 
L 256.233724 140.130261 
L 259.513074 145.050351 
L 262.792336 149.954615 
L 266.071686 154.826983 
L 269.351037 159.651946 
L 272.630387 164.414278 
L 275.909738 169.099964 
L 279.189088 173.695635 
L 282.468439 178.188992 
L 285.747789 182.56927 
L 289.027051 186.826442 
L 292.306402 190.952541 
L 295.585752 194.940225 
L 298.865103 198.783996 
L 302.144453 202.479389 
L 305.423803 206.023226 
L 308.703154 209.413786 
L 311.982504 212.650165 
L 315.261766 215.73272 
L 318.541117 218.662676 
L 321.820467 221.442176 
L 325.099818 224.073881 
L 328.379168 226.561367 
L 331.658519 228.908542 
L 334.937869 231.119776 
L 338.217131 233.199892 
L 341.496482 235.153933 
L 344.775832 236.987161 
L 348.055183 238.704848 
L 351.334533 240.312491 
L 354.613883 241.81544 
L 357.893234 243.219158 
L 361.172584 244.52893 
L 364.451846 245.749907 
L 367.731197 246.887279 
L 371.010547 247.94589 
L 374.289898 248.930533 
" clip-path="url(#p1778b4e213)" style="fill: none; stroke: #0000ff; stroke-opacity: 0.1; stroke-width: 1.2; stroke-linecap: round"/>
   </g>
   <g id="line2d_20">
    <path d="M 49.635352 30.785387 
L 52.914703 31.769146 
L 56.194009 32.832156 
L 59.473359 33.979996 
L 62.75271 35.218362 
L 66.03206 36.553252 
L 69.311367 37.990795 
L 72.590717 39.537278 
L 75.870067 41.199146 
L 79.149418 42.982932 
L 82.428724 44.894994 
L 85.708075 46.941936 
L 88.987425 49.129931 
L 92.266776 51.465106 
L 95.546082 53.953186 
L 98.825432 56.599463 
L 102.104783 59.408796 
L 105.384133 62.38505 
L 108.663439 65.531541 
L 111.94279 68.850533 
L 115.22214 72.343209 
L 118.501447 76.009453 
L 121.780797 79.847853 
L 125.060147 83.855581 
L 128.339498 88.027951 
L 131.618804 92.358894 
L 134.898155 96.840535 
L 138.177505 101.463315 
L 141.456811 106.215957 
L 144.736162 111.085542 
L 148.015512 116.057736 
L 151.294863 121.116506 
L 154.574213 126.244878 
L 157.853519 131.424815 
L 161.13287 136.637542 
L 164.41222 141.863867 
L 167.691526 147.083941 
L 170.970877 152.278889 
L 174.250227 157.42928 
L 177.529578 162.516917 
L 180.808928 167.524411 
L 184.088279 172.435236 
L 187.367541 177.234388 
L 190.646891 181.908559 
L 193.926242 186.445853 
L 197.205592 190.835807 
L 200.484943 195.070016 
L 203.764293 199.141752 
L 207.043644 203.04571 
L 210.322906 206.778385 
L 213.602344 210.338087 
L 216.881606 213.723762 
L 220.160957 216.936428 
L 223.440307 219.977862 
L 226.719658 222.851006 
L 229.999008 225.559478 
L 233.278359 228.107842 
L 236.557709 230.501243 
L 239.836971 232.745126 
L 243.116322 234.845587 
L 246.395672 236.808806 
L 249.675023 238.641214 
L 252.954373 240.349214 
L 256.233724 241.939343 
L 259.513074 243.418085 
L 262.792336 244.791703 
L 266.071686 246.066498 
L 269.351037 247.248477 
L 272.630387 248.343493 
L 275.909738 249.35711 
L 279.189088 250.294717 
L 282.468439 251.161451 
L 285.747789 251.962138 
L 289.027051 252.701389 
L 292.306402 253.383587 
L 295.585752 254.012827 
L 298.865103 254.592933 
L 302.144453 255.127531 
L 305.423803 255.620005 
L 308.703154 256.073522 
L 311.982504 256.491012 
L 315.261766 256.87522 
L 318.541117 257.228727 
L 321.820467 257.553882 
L 325.099818 257.852896 
L 328.379168 258.127812 
L 331.658519 258.380527 
L 334.937869 258.612782 
L 338.217131 258.826199 
L 341.496482 259.022289 
L 344.775832 259.20242 
L 348.055183 259.367873 
L 351.334533 259.519829 
L 354.613883 259.659374 
L 357.893234 259.787504 
L 361.172584 259.905145 
L 364.451846 260.013144 
L 367.731197 260.11229 
L 371.010547 260.203296 
L 374.289898 260.286828 
" clip-path="url(#p1778b4e213)" style="fill: none; stroke: #0000ff; stroke-opacity: 0.1; stroke-width: 1.2; stroke-linecap: round"/>
   </g>
   <g id="patch_3">
    <path d="M 33.402625 261.216 
L 33.402625 19.296 
" style="fill: none; stroke: #262626; stroke-linejoin: miter; stroke-linecap: square"/>
   </g>
   <g id="patch_4">
    <path d="M 72.824963 273.312 
L 362.695093 273.312 
" style="fill: none; stroke: #262626; stroke-linejoin: miter; stroke-linecap: square"/>
   </g>
  </g>
 </g>
 <defs>
  <clipPath id="p1778b4e213">
   <rect x="33.402625" y="7.2" width="357.12" height="266.112"/>
  </clipPath>
 </defs>
</svg>