<?xml version="1.0" encoding="utf-8" standalone="no"?>
<!DOCTYPE svg PUBLIC "-//W3C//DTD SVG 1.1//EN"
  "http://www.w3.org/Graphics/SVG/1.1/DTD/svg11.dtd">
<svg xmlns:xlink="http://www.w3.org/1999/xlink" width="409.97125pt" height="309.639375pt" viewBox="0 0 409.97125 309.639375" xmlns="http://www.w3.org/2000/svg" version="1.1">
 <metadata>
  <rdf:RDF xmlns:dc="http://purl.org/dc/elements/1.1/" xmlns:cc="http://creativecommons.org/ns#" xmlns:rdf="http://www.w3.org/1999/02/22-rdf-syntax-ns#">
   <cc:Work>
    <dc:type rdf:resource="http://purl.org/dc/dcmitype/StillImage"/>
    <dc:date>2023-10-16T21:08:16.194252</dc:date>
    <dc:format>image/svg+xml</dc:format>
    <dc:creator>
     <cc:Agent>
      <dc:title>Matplotlib v3.7.1, https://matplotlib.org/</dc:title>
     </cc:Agent>
    </dc:creator>
   </cc:Work>
  </rdf:RDF>
 </metadata>
 <defs>
  <style type="text/css">*{stroke-linejoin: round; stroke-linecap: butt}</style>
 </defs>
 <g id="figure_1">
  <g id="patch_1">
   <path d="M 0 309.639375 
L 409.97125 309.639375 
L 409.97125 0 
L 0 0 
z
" style="fill: #ffffff"/>
  </g>
  <g id="axes_1">
   <g id="patch_2">
    <path d="M 45.65125 273.312 
L 402.77125 273.312 
L 402.77125 7.2 
L 45.65125 7.2 
z
" style="fill: #ffffff"/>
   </g>
   <g id="matplotlib.axis_1">
    <g id="xtick_1">
     <g id="line2d_1">
      <defs>
       <path id="mfa8e21e03c" d="M 0 0 
L 0 4.8 
" style="stroke: #262626"/>
      </defs>
      <g>
       <use xlink:href="#mfa8e21e03c" x="61.883977" y="273.312" style="fill: #262626; stroke: #262626"/>
      </g>
     </g>
     <g id="text_1">
      <!-- 0.0 -->
      <g style="fill: #262626" transform="translate(55.767977 287.910875) scale(0.088 -0.088)">
       <defs>
        <path id="ArialMT-30" d="M 266 2259 
Q 266 3072 433 3567 
Q 600 4063 929 4331 
Q 1259 4600 1759 4600 
Q 2128 4600 2406 4451 
Q 2684 4303 2865 4023 
Q 3047 3744 3150 3342 
Q 3253 2941 3253 2259 
Q 3253 1453 3087 958 
Q 2922 463 2592 192 
Q 2263 -78 1759 -78 
Q 1097 -78 719 397 
Q 266 969 266 2259 
z
M 844 2259 
Q 844 1131 1108 757 
Q 1372 384 1759 384 
Q 2147 384 2411 759 
Q 2675 1134 2675 2259 
Q 2675 3391 2411 3762 
Q 2147 4134 1753 4134 
Q 1366 4134 1134 3806 
Q 844 3388 844 2259 
z
" transform="scale(0.015625)"/>
        <path id="ArialMT-2e" d="M 581 0 
L 581 641 
L 1222 641 
L 1222 0 
L 581 0 
z
" transform="scale(0.015625)"/>
       </defs>
       <use xlink:href="#ArialMT-30"/>
       <use xlink:href="#ArialMT-2e" x="55.615234"/>
       <use xlink:href="#ArialMT-30" x="83.398438"/>
      </g>
     </g>
    </g>
    <g id="xtick_2">
     <g id="line2d_2">
      <g>
       <use xlink:href="#mfa8e21e03c" x="126.814886" y="273.312" style="fill: #262626; stroke: #262626"/>
      </g>
     </g>
     <g id="text_2">
      <!-- 0.2 -->
      <g style="fill: #262626" transform="translate(120.698886 287.910875) scale(0.088 -0.088)">
       <defs>
        <path id="ArialMT-32" d="M 3222 541 
L 3222 0 
L 194 0 
Q 188 203 259 391 
Q 375 700 629 1000 
Q 884 1300 1366 1694 
Q 2113 2306 2375 2664 
Q 2638 3022 2638 3341 
Q 2638 3675 2398 3904 
Q 2159 4134 1775 4134 
Q 1369 4134 1125 3890 
Q 881 3647 878 3216 
L 300 3275 
Q 359 3922 746 4261 
Q 1134 4600 1788 4600 
Q 2447 4600 2831 4234 
Q 3216 3869 3216 3328 
Q 3216 3053 3103 2787 
Q 2991 2522 2730 2228 
Q 2469 1934 1863 1422 
Q 1356 997 1212 845 
Q 1069 694 975 541 
L 3222 541 
z
" transform="scale(0.015625)"/>
       </defs>
       <use xlink:href="#ArialMT-30"/>
       <use xlink:href="#ArialMT-2e" x="55.615234"/>
       <use xlink:href="#ArialMT-32" x="83.398438"/>
      </g>
     </g>
    </g>
    <g id="xtick_3">
     <g id="line2d_3">
      <g>
       <use xlink:href="#mfa8e21e03c" x="191.745795" y="273.312" style="fill: #262626; stroke: #262626"/>
      </g>
     </g>
     <g id="text_3">
      <!-- 0.4 -->
      <g style="fill: #262626" transform="translate(185.629795 287.910875) scale(0.088 -0.088)">
       <defs>
        <path id="ArialMT-34" d="M 2069 0 
L 2069 1097 
L 81 1097 
L 81 1613 
L 2172 4581 
L 2631 4581 
L 2631 1613 
L 3250 1613 
L 3250 1097 
L 2631 1097 
L 2631 0 
L 2069 0 
z
M 2069 1613 
L 2069 3678 
L 634 1613 
L 2069 1613 
z
" transform="scale(0.015625)"/>
       </defs>
       <use xlink:href="#ArialMT-30"/>
       <use xlink:href="#ArialMT-2e" x="55.615234"/>
       <use xlink:href="#ArialMT-34" x="83.398438"/>
      </g>
     </g>
    </g>
    <g id="xtick_4">
     <g id="line2d_4">
      <g>
       <use xlink:href="#mfa8e21e03c" x="256.676705" y="273.312" style="fill: #262626; stroke: #262626"/>
      </g>
     </g>
     <g id="text_4">
      <!-- 0.6 -->
      <g style="fill: #262626" transform="translate(250.560705 287.910875) scale(0.088 -0.088)">
       <defs>
        <path id="ArialMT-36" d="M 3184 3459 
L 2625 3416 
Q 2550 3747 2413 3897 
Q 2184 4138 1850 4138 
Q 1581 4138 1378 3988 
Q 1113 3794 959 3422 
Q 806 3050 800 2363 
Q 1003 2672 1297 2822 
Q 1591 2972 1913 2972 
Q 2475 2972 2870 2558 
Q 3266 2144 3266 1488 
Q 3266 1056 3080 686 
Q 2894 316 2569 119 
Q 2244 -78 1831 -78 
Q 1128 -78 684 439 
Q 241 956 241 2144 
Q 241 3472 731 4075 
Q 1159 4600 1884 4600 
Q 2425 4600 2770 4297 
Q 3116 3994 3184 3459 
z
M 888 1484 
Q 888 1194 1011 928 
Q 1134 663 1356 523 
Q 1578 384 1822 384 
Q 2178 384 2434 671 
Q 2691 959 2691 1453 
Q 2691 1928 2437 2201 
Q 2184 2475 1800 2475 
Q 1419 2475 1153 2201 
Q 888 1928 888 1484 
z
" transform="scale(0.015625)"/>
       </defs>
       <use xlink:href="#ArialMT-30"/>
       <use xlink:href="#ArialMT-2e" x="55.615234"/>
       <use xlink:href="#ArialMT-36" x="83.398438"/>
      </g>
     </g>
    </g>
    <g id="xtick_5">
     <g id="line2d_5">
      <g>
       <use xlink:href="#mfa8e21e03c" x="321.607614" y="273.312" style="fill: #262626; stroke: #262626"/>
      </g>
     </g>
     <g id="text_5">
      <!-- 0.8 -->
      <g style="fill: #262626" transform="translate(315.491614 287.910875) scale(0.088 -0.088)">
       <defs>
        <path id="ArialMT-38" d="M 1131 2484 
Q 781 2613 612 2850 
Q 444 3088 444 3419 
Q 444 3919 803 4259 
Q 1163 4600 1759 4600 
Q 2359 4600 2725 4251 
Q 3091 3903 3091 3403 
Q 3091 3084 2923 2848 
Q 2756 2613 2416 2484 
Q 2838 2347 3058 2040 
Q 3278 1734 3278 1309 
Q 3278 722 2862 322 
Q 2447 -78 1769 -78 
Q 1091 -78 675 323 
Q 259 725 259 1325 
Q 259 1772 486 2073 
Q 713 2375 1131 2484 
z
M 1019 3438 
Q 1019 3113 1228 2906 
Q 1438 2700 1772 2700 
Q 2097 2700 2305 2904 
Q 2513 3109 2513 3406 
Q 2513 3716 2298 3927 
Q 2084 4138 1766 4138 
Q 1444 4138 1231 3931 
Q 1019 3725 1019 3438 
z
M 838 1322 
Q 838 1081 952 856 
Q 1066 631 1291 507 
Q 1516 384 1775 384 
Q 2178 384 2440 643 
Q 2703 903 2703 1303 
Q 2703 1709 2433 1975 
Q 2163 2241 1756 2241 
Q 1359 2241 1098 1978 
Q 838 1716 838 1322 
z
" transform="scale(0.015625)"/>
       </defs>
       <use xlink:href="#ArialMT-30"/>
       <use xlink:href="#ArialMT-2e" x="55.615234"/>
       <use xlink:href="#ArialMT-38" x="83.398438"/>
      </g>
     </g>
    </g>
    <g id="xtick_6">
     <g id="line2d_6">
      <g>
       <use xlink:href="#mfa8e21e03c" x="386.538523" y="273.312" style="fill: #262626; stroke: #262626"/>
      </g>
     </g>
     <g id="text_6">
      <!-- 1.0 -->
      <g style="fill: #262626" transform="translate(380.422523 287.910875) scale(0.088 -0.088)">
       <defs>
        <path id="ArialMT-31" d="M 2384 0 
L 1822 0 
L 1822 3584 
Q 1619 3391 1289 3197 
Q 959 3003 697 2906 
L 697 3450 
Q 1169 3672 1522 3987 
Q 1875 4303 2022 4600 
L 2384 4600 
L 2384 0 
z
" transform="scale(0.015625)"/>
       </defs>
       <use xlink:href="#ArialMT-31"/>
       <use xlink:href="#ArialMT-2e" x="55.615234"/>
       <use xlink:href="#ArialMT-30" x="83.398438"/>
      </g>
     </g>
    </g>
    <g id="text_7">
     <!-- $x$ -->
     <g style="fill: #262626" transform="translate(221.33125 300.531375) scale(0.096 -0.096)">
      <defs>
       <path id="DejaVuSans-Oblique-78" d="M 3841 3500 
L 2234 1784 
L 3219 0 
L 2559 0 
L 1819 1388 
L 531 0 
L -166 0 
L 1556 1844 
L 641 3500 
L 1300 3500 
L 1972 2234 
L 3144 3500 
L 3841 3500 
z
" transform="scale(0.015625)"/>
      </defs>
      <use xlink:href="#DejaVuSans-Oblique-78" transform="translate(0 0.3125)"/>
     </g>
    </g>
   </g>
   <g id="matplotlib.axis_2">
    <g id="ytick_1">
     <g id="line2d_7">
      <defs>
       <path id="m56dbe8270f" d="M 0 0 
L -4.8 0 
" style="stroke: #262626"/>
      </defs>
      <g>
       <use xlink:href="#m56dbe8270f" x="45.65125" y="251.877998" style="fill: #262626; stroke: #262626"/>
      </g>
     </g>
     <g id="text_8">
      <!-- −2.0 -->
      <g style="fill: #262626" transform="translate(19.9795 255.027436) scale(0.088 -0.088)">
       <defs>
        <path id="ArialMT-2212" d="M 3381 1997 
L 356 1997 
L 356 2522 
L 3381 2522 
L 3381 1997 
z
" transform="scale(0.015625)"/>
       </defs>
       <use xlink:href="#ArialMT-2212"/>
       <use xlink:href="#ArialMT-32" x="58.398438"/>
       <use xlink:href="#ArialMT-2e" x="114.013672"/>
       <use xlink:href="#ArialMT-30" x="141.796875"/>
      </g>
     </g>
    </g>
    <g id="ytick_2">
     <g id="line2d_8">
      <g>
       <use xlink:href="#m56dbe8270f" x="45.65125" y="222.023453" style="fill: #262626; stroke: #262626"/>
      </g>
     </g>
     <g id="text_9">
      <!-- −1.5 -->
      <g style="fill: #262626" transform="translate(19.9795 225.17289) scale(0.088 -0.088)">
       <defs>
        <path id="ArialMT-35" d="M 266 1200 
L 856 1250 
Q 922 819 1161 601 
Q 1400 384 1738 384 
Q 2144 384 2425 690 
Q 2706 997 2706 1503 
Q 2706 1984 2436 2262 
Q 2166 2541 1728 2541 
Q 1456 2541 1237 2417 
Q 1019 2294 894 2097 
L 366 2166 
L 809 4519 
L 3088 4519 
L 3088 3981 
L 1259 3981 
L 1013 2750 
Q 1425 3038 1878 3038 
Q 2478 3038 2890 2622 
Q 3303 2206 3303 1553 
Q 3303 931 2941 478 
Q 2500 -78 1738 -78 
Q 1113 -78 717 272 
Q 322 622 266 1200 
z
" transform="scale(0.015625)"/>
       </defs>
       <use xlink:href="#ArialMT-2212"/>
       <use xlink:href="#ArialMT-31" x="58.398438"/>
       <use xlink:href="#ArialMT-2e" x="114.013672"/>
       <use xlink:href="#ArialMT-35" x="141.796875"/>
      </g>
     </g>
    </g>
    <g id="ytick_3">
     <g id="line2d_9">
      <g>
       <use xlink:href="#m56dbe8270f" x="45.65125" y="192.168907" style="fill: #262626; stroke: #262626"/>
      </g>
     </g>
     <g id="text_10">
      <!-- −1.0 -->
      <g style="fill: #262626" transform="translate(19.9795 195.318345) scale(0.088 -0.088)">
       <use xlink:href="#ArialMT-2212"/>
       <use xlink:href="#ArialMT-31" x="58.398438"/>
       <use xlink:href="#ArialMT-2e" x="114.013672"/>
       <use xlink:href="#ArialMT-30" x="141.796875"/>
      </g>
     </g>
    </g>
    <g id="ytick_4">
     <g id="line2d_10">
      <g>
       <use xlink:href="#m56dbe8270f" x="45.65125" y="162.314362" style="fill: #262626; stroke: #262626"/>
      </g>
     </g>
     <g id="text_11">
      <!-- −0.5 -->
      <g style="fill: #262626" transform="translate(19.9795 165.463799) scale(0.088 -0.088)">
       <use xlink:href="#ArialMT-2212"/>
       <use xlink:href="#ArialMT-30" x="58.398438"/>
       <use xlink:href="#ArialMT-2e" x="114.013672"/>
       <use xlink:href="#ArialMT-35" x="141.796875"/>
      </g>
     </g>
    </g>
    <g id="ytick_5">
     <g id="line2d_11">
      <g>
       <use xlink:href="#m56dbe8270f" x="45.65125" y="132.459816" style="fill: #262626; stroke: #262626"/>
      </g>
     </g>
     <g id="text_12">
      <!-- 0.0 -->
      <g style="fill: #262626" transform="translate(25.11925 135.609254) scale(0.088 -0.088)">
       <use xlink:href="#ArialMT-30"/>
       <use xlink:href="#ArialMT-2e" x="55.615234"/>
       <use xlink:href="#ArialMT-30" x="83.398438"/>
      </g>
     </g>
    </g>
    <g id="ytick_6">
     <g id="line2d_12">
      <g>
       <use xlink:href="#m56dbe8270f" x="45.65125" y="102.605271" style="fill: #262626; stroke: #262626"/>
      </g>
     </g>
     <g id="text_13">
      <!-- 0.5 -->
      <g style="fill: #262626" transform="translate(25.11925 105.754708) scale(0.088 -0.088)">
       <use xlink:href="#ArialMT-30"/>
       <use xlink:href="#ArialMT-2e" x="55.615234"/>
       <use xlink:href="#ArialMT-35" x="83.398438"/>
      </g>
     </g>
    </g>
    <g id="ytick_7">
     <g id="line2d_13">
      <g>
       <use xlink:href="#m56dbe8270f" x="45.65125" y="72.750725" style="fill: #262626; stroke: #262626"/>
      </g>
     </g>
     <g id="text_14">
      <!-- 1.0 -->
      <g style="fill: #262626" transform="translate(25.11925 75.900163) scale(0.088 -0.088)">
       <use xlink:href="#ArialMT-31"/>
       <use xlink:href="#ArialMT-2e" x="55.615234"/>
       <use xlink:href="#ArialMT-30" x="83.398438"/>
      </g>
     </g>
    </g>
    <g id="ytick_8">
     <g id="line2d_14">
      <g>
       <use xlink:href="#m56dbe8270f" x="45.65125" y="42.89618" style="fill: #262626; stroke: #262626"/>
      </g>
     </g>
     <g id="text_15">
      <!-- 1.5 -->
      <g style="fill: #262626" transform="translate(25.11925 46.045617) scale(0.088 -0.088)">
       <use xlink:href="#ArialMT-31"/>
       <use xlink:href="#ArialMT-2e" x="55.615234"/>
       <use xlink:href="#ArialMT-35" x="83.398438"/>
      </g>
     </g>
    </g>
    <g id="ytick_9">
     <g id="line2d_15">
      <g>
       <use xlink:href="#m56dbe8270f" x="45.65125" y="13.041634" style="fill: #262626; stroke: #262626"/>
      </g>
     </g>
     <g id="text_16">
      <!-- 2.0 -->
      <g style="fill: #262626" transform="translate(25.11925 16.191072) scale(0.088 -0.088)">
       <use xlink:href="#ArialMT-32"/>
       <use xlink:href="#ArialMT-2e" x="55.615234"/>
       <use xlink:href="#ArialMT-30" x="83.398438"/>
      </g>
     </g>
    </g>
    <g id="text_17">
     <!-- $y$ -->
     <g style="fill: #262626" transform="translate(13.9635 143.136) rotate(-90) scale(0.096 -0.096)">
      <defs>
       <path id="DejaVuSans-Oblique-79" d="M 1588 -325 
Q 1188 -997 936 -1164 
Q 684 -1331 294 -1331 
L -159 -1331 
L -63 -850 
L 269 -850 
Q 509 -850 678 -719 
Q 847 -588 1056 -206 
L 1234 128 
L 459 3500 
L 1069 3500 
L 1650 819 
L 3256 3500 
L 3859 3500 
L 1588 -325 
z
" transform="scale(0.015625)"/>
      </defs>
      <use xlink:href="#DejaVuSans-Oblique-79" transform="translate(0 0.3125)"/>
     </g>
    </g>
   </g>
   <g id="PolyCollection_1">
    <defs>
     <path id="m14718af6e8" d="M 61.883977 -282.108018 
L 61.883977 -104.64173 
L 65.163316 -106.905515 
L 68.442655 -109.372329 
L 71.721994 -112.022742 
L 75.001333 -114.825692 
L 78.280671 -117.737007 
L 81.560011 -120.698372 
L 84.839348 -123.637159 
L 88.118688 -126.466715 
L 91.398028 -129.087824 
L 94.677365 -131.391635 
L 97.956705 -133.263104 
L 101.236045 -134.586559 
L 104.515382 -135.252159 
L 107.794719 -135.163417 
L 111.074061 -134.246816 
L 114.353399 -132.46078 
L 117.632736 -129.806018 
L 120.912078 -126.331568 
L 124.191416 -122.137956 
L 127.470753 -117.369109 
L 130.750095 -112.197728 
L 134.029432 -106.800028 
L 137.30877 -101.33092 
L 140.588112 -95.904812 
L 143.867444 -90.594711 
L 147.146787 -85.454443 
L 150.426129 -80.557969 
L 153.705461 -76.029589 
L 156.984803 -72.046417 
L 160.264145 -68.811221 
L 163.543478 -66.518218 
L 166.82282 -65.3263 
L 170.102162 -65.343953 
L 173.381495 -66.621277 
L 176.660837 -69.14769 
L 179.940179 -72.85125 
L 183.219512 -77.599081 
L 186.498854 -83.198951 
L 189.778196 -89.401755 
L 193.057528 -95.907738 
L 196.336871 -102.380651 
L 199.616213 -108.476644 
L 202.895545 -113.89283 
L 206.174887 -118.426477 
L 209.45423 -122.018528 
L 212.733562 -124.754908 
L 216.012904 -126.826577 
L 219.292246 -128.474985 
L 222.571579 -129.947215 
L 225.850931 -131.468206 
L 229.130254 -133.225859 
L 232.409596 -135.363547 
L 235.688938 -137.975684 
L 238.968261 -141.104496 
L 242.247622 -144.73759 
L 245.526945 -148.80587 
L 248.806287 -153.183634 
L 252.085629 -157.69205 
L 255.364972 -162.111156 
L 258.644314 -166.205662 
L 261.923637 -169.768011 
L 265.202998 -172.670194 
L 268.482321 -174.899272 
L 271.761663 -176.553879 
L 275.041005 -177.801626 
L 278.320328 -178.826088 
L 281.59969 -179.786353 
L 284.879012 -180.796558 
L 288.158355 -181.920354 
L 291.437697 -183.173691 
L 294.717039 -184.529547 
L 297.996381 -185.924684 
L 301.275704 -187.263589 
L 304.555065 -188.422486 
L 307.834388 -189.249954 
L 311.11373 -189.570879 
L 314.393072 -189.199102 
L 317.672395 -187.978111 
L 320.951757 -185.854749 
L 324.23108 -182.94764 
L 327.510422 -179.538311 
L 330.789764 -175.981305 
L 334.069106 -172.611979 
L 337.348448 -169.694878 
L 340.627771 -167.413467 
L 343.907113 -165.871663 
L 347.186455 -165.10245 
L 350.465798 -165.072592 
L 353.74514 -165.6867 
L 357.024463 -166.791263 
L 360.303805 -168.181696 
L 363.583147 -169.616034 
L 366.862489 -170.838228 
L 370.141831 -171.612025 
L 373.421173 -171.754059 
L 376.700516 -171.155684 
L 379.979838 -169.78178 
L 383.259181 -167.658766 
L 386.538523 -164.852265 
L 386.538523 -256.189659 
L 386.538523 -256.189659 
L 383.259181 -251.122086 
L 379.979838 -246.097746 
L 376.700516 -241.292922 
L 373.421173 -236.873827 
L 370.141831 -232.970671 
L 366.862489 -229.658181 
L 363.583147 -226.946444 
L 360.303805 -224.792417 
L 357.024463 -223.124958 
L 353.74514 -221.866951 
L 350.465798 -220.95151 
L 347.186455 -220.326201 
L 343.907113 -219.955039 
L 340.627771 -219.818333 
L 337.348448 -219.916065 
L 334.069106 -220.272511 
L 330.789764 -220.950304 
L 327.510422 -222.057176 
L 324.23108 -223.743267 
L 320.951757 -226.1601 
L 317.672395 -229.377701 
L 314.393072 -233.305097 
L 311.11373 -237.692109 
L 307.834388 -242.20579 
L 304.555065 -246.512107 
L 301.275704 -250.321752 
L 297.996381 -253.406476 
L 294.717039 -255.603986 
L 291.437697 -256.817826 
L 288.158355 -257.018209 
L 284.879012 -256.24199 
L 281.59969 -254.59287 
L 278.320328 -252.240184 
L 275.041005 -249.414094 
L 271.761663 -246.393167 
L 268.482321 -243.477058 
L 265.202998 -240.939975 
L 261.923637 -238.972473 
L 258.644314 -237.634817 
L 255.364972 -236.850402 
L 252.085629 -236.439786 
L 248.806287 -236.171908 
L 245.526945 -235.80796 
L 242.247622 -235.128914 
L 238.968261 -233.950301 
L 235.688938 -232.129455 
L 232.409596 -229.569748 
L 229.130254 -226.22373 
L 225.850931 -222.095987 
L 222.571579 -217.245565 
L 219.292246 -211.787687 
L 216.012904 -205.891599 
L 212.733562 -199.771466 
L 209.45423 -193.663447 
L 206.174887 -187.784977 
L 202.895545 -182.283277 
L 199.616213 -177.197403 
L 196.336871 -172.459508 
L 193.057528 -167.937342 
L 189.778196 -163.489854 
L 186.498854 -159.010943 
L 183.219512 -154.451283 
L 179.940179 -149.824171 
L 176.660837 -145.201864 
L 173.381495 -140.707529 
L 170.102162 -136.505685 
L 166.82282 -132.791615 
L 163.543478 -129.780799 
L 160.264145 -127.6974 
L 156.984803 -126.759769 
L 153.705461 -127.160526 
L 150.426129 -129.037838 
L 147.146787 -132.44249 
L 143.867444 -137.314087 
L 140.588112 -143.490982 
L 137.30877 -150.748556 
L 134.029432 -158.850154 
L 130.750095 -167.581146 
L 127.470753 -176.761252 
L 124.191416 -186.238308 
L 120.912078 -195.87494 
L 117.632736 -205.535574 
L 114.353399 -215.078606 
L 111.074061 -224.35739 
L 107.794719 -233.225516 
L 104.515382 -241.546468 
L 101.236045 -249.201469 
L 97.956705 -256.09697 
L 94.677365 -262.168314 
L 91.398028 -267.381811 
L 88.118688 -271.733625 
L 84.839348 -275.247579 
L 81.560011 -277.971107 
L 78.280671 -279.970619 
L 75.001333 -281.326148 
L 71.721994 -282.126311 
L 68.442655 -282.463272 
L 65.163316 -282.428294 
L 61.883977 -282.108018 
z
" style="stroke: #1f77b4; stroke-opacity: 0.5; stroke-width: 0.8"/>
    </defs>
    <g clip-path="url(#p32521130be)">
     <use xlink:href="#m14718af6e8" x="0" y="309.639375" style="fill: #1f77b4; fill-opacity: 0.5; stroke: #1f77b4; stroke-opacity: 0.5; stroke-width: 0.8"/>
    </g>
   </g>
   <g id="PolyCollection_2">
    <defs>
     <path id="ma68d153b34" d="M 61.883977 -104.64173 
L 61.883977 -96.940229 
L 65.163316 -99.125645 
L 68.442655 -101.492226 
L 71.721994 -104.016069 
L 75.001333 -106.661087 
L 78.280671 -109.377525 
L 81.560011 -112.100868 
L 84.839348 -114.751751 
L 88.118688 -117.236332 
L 91.398028 -119.44791 
L 94.677365 -121.27034 
L 97.956705 -122.582115 
L 101.236045 -123.263011 
L 104.515382 -123.201997 
L 107.794719 -122.30655 
L 111.074061 -120.513934 
L 114.353399 -117.800983 
L 117.632736 -114.193589 
L 120.912078 -109.769635 
L 124.191416 -104.657497 
L 127.470753 -99.024287 
L 130.750095 -93.061021 
L 134.029432 -86.962529 
L 137.30877 -80.91108 
L 140.588112 -75.064042 
L 143.867444 -69.550064 
L 147.146787 -64.473308 
L 150.426129 -59.924251 
L 153.705461 -55.99173 
L 156.984803 -52.772014 
L 160.264145 -50.369389 
L 163.543478 -48.888884 
L 166.82282 -48.423375 
L 170.102162 -49.039669 
L 173.381495 -50.765783 
L 176.660837 -53.582527 
L 179.940179 -57.418523 
L 183.219512 -62.149072 
L 186.498854 -67.598541 
L 189.778196 -73.546546 
L 193.057528 -79.738865 
L 196.336871 -85.904727 
L 199.616213 -91.781119 
L 202.895545 -97.143145 
L 206.174887 -101.834674 
L 209.45423 -105.789873 
L 212.733562 -109.037803 
L 216.012904 -111.688345 
L 219.292246 -113.905699 
L 222.571579 -115.878796 
L 225.850931 -117.795495 
L 229.130254 -119.82303 
L 232.409596 -122.094697 
L 235.688938 -124.701075 
L 238.968261 -127.684641 
L 242.247622 -131.037428 
L 245.526945 -134.70126 
L 248.806287 -138.572215 
L 252.085629 -142.509783 
L 255.364972 -146.353021 
L 258.644314 -149.94331 
L 261.923637 -153.151256 
L 265.202998 -155.900654 
L 268.482321 -158.180336 
L 271.761663 -160.039569 
L 275.041005 -161.567905 
L 278.320328 -162.869317 
L 281.59969 -164.038186 
L 284.879012 -165.142561 
L 288.158355 -166.215247 
L 291.437697 -167.251709 
L 294.717039 -168.211541 
L 297.996381 -169.024506 
L 301.275704 -169.59762 
L 304.555065 -169.826228 
L 307.834388 -169.60683 
L 311.11373 -168.854453 
L 314.393072 -167.521046 
L 317.672395 -165.613398 
L 320.951757 -163.203213 
L 324.23108 -160.425283 
L 327.510422 -157.461456 
L 330.789764 -154.515572 
L 334.069106 -151.788556 
L 337.348448 -149.455586 
L 340.627771 -147.65246 
L 343.907113 -146.466359 
L 347.186455 -145.933069 
L 350.465798 -146.036699 
L 353.74514 -146.711708 
L 357.024463 -147.847159 
L 360.303805 -149.293163 
L 363.583147 -150.870645 
L 366.862489 -152.383636 
L 370.141831 -153.636532 
L 373.421173 -154.451974 
L 376.700516 -154.689092 
L 379.979838 -154.254552 
L 383.259181 -153.108976 
L 386.538523 -151.261364 
L 386.538523 -164.852265 
L 386.538523 -164.852265 
L 383.259181 -167.658766 
L 379.979838 -169.78178 
L 376.700516 -171.155684 
L 373.421173 -171.754059 
L 370.141831 -171.612025 
L 366.862489 -170.838228 
L 363.583147 -169.616034 
L 360.303805 -168.181696 
L 357.024463 -166.791263 
L 353.74514 -165.6867 
L 350.465798 -165.072592 
L 347.186455 -165.10245 
L 343.907113 -165.871663 
L 340.627771 -167.413467 
L 337.348448 -169.694878 
L 334.069106 -172.611979 
L 330.789764 -175.981305 
L 327.510422 -179.538311 
L 324.23108 -182.94764 
L 320.951757 -185.854749 
L 317.672395 -187.978111 
L 314.393072 -189.199102 
L 311.11373 -189.570879 
L 307.834388 -189.249954 
L 304.555065 -188.422486 
L 301.275704 -187.263589 
L 297.996381 -185.924684 
L 294.717039 -184.529547 
L 291.437697 -183.173691 
L 288.158355 -181.920354 
L 284.879012 -180.796558 
L 281.59969 -179.786353 
L 278.320328 -178.826088 
L 275.041005 -177.801626 
L 271.761663 -176.553879 
L 268.482321 -174.899272 
L 265.202998 -172.670194 
L 261.923637 -169.768011 
L 258.644314 -166.205662 
L 255.364972 -162.111156 
L 252.085629 -157.69205 
L 248.806287 -153.183634 
L 245.526945 -148.80587 
L 242.247622 -144.73759 
L 238.968261 -141.104496 
L 235.688938 -137.975684 
L 232.409596 -135.363547 
L 229.130254 -133.225859 
L 225.850931 -131.468206 
L 222.571579 -129.947215 
L 219.292246 -128.474985 
L 216.012904 -126.826577 
L 212.733562 -124.754908 
L 209.45423 -122.018528 
L 206.174887 -118.426477 
L 202.895545 -113.89283 
L 199.616213 -108.476644 
L 196.336871 -102.380651 
L 193.057528 -95.907738 
L 189.778196 -89.401755 
L 186.498854 -83.198951 
L 183.219512 -77.599081 
L 179.940179 -72.85125 
L 176.660837 -69.14769 
L 173.381495 -66.621277 
L 170.102162 -65.343953 
L 166.82282 -65.3263 
L 163.543478 -66.518218 
L 160.264145 -68.811221 
L 156.984803 -72.046417 
L 153.705461 -76.029589 
L 150.426129 -80.557969 
L 147.146787 -85.454443 
L 143.867444 -90.594711 
L 140.588112 -95.904812 
L 137.30877 -101.33092 
L 134.029432 -106.800028 
L 130.750095 -112.197728 
L 127.470753 -117.369109 
L 124.191416 -122.137956 
L 120.912078 -126.331568 
L 117.632736 -129.806018 
L 114.353399 -132.46078 
L 111.074061 -134.246816 
L 107.794719 -135.163417 
L 104.515382 -135.252159 
L 101.236045 -134.586559 
L 97.956705 -133.263104 
L 94.677365 -131.391635 
L 91.398028 -129.087824 
L 88.118688 -126.466715 
L 84.839348 -123.637159 
L 81.560011 -120.698372 
L 78.280671 -117.737007 
L 75.001333 -114.825692 
L 71.721994 -112.022742 
L 68.442655 -109.372329 
L 65.163316 -106.905515 
L 61.883977 -104.64173 
z
" style="stroke: #ff7f0e; stroke-opacity: 0.5; stroke-width: 0.8"/>
    </defs>
    <g clip-path="url(#p32521130be)">
     <use xlink:href="#ma68d153b34" x="0" y="309.639375" style="fill: #ff7f0e; fill-opacity: 0.5; stroke: #ff7f0e; stroke-opacity: 0.5; stroke-width: 0.8"/>
    </g>
   </g>
   <g id="PolyCollection_3">
    <defs>
     <path id="m8d7f4b3bd5" d="M 61.883977 -289.80952 
L 61.883977 -282.108018 
L 65.163316 -282.428294 
L 68.442655 -282.463272 
L 71.721994 -282.126311 
L 75.001333 -281.326148 
L 78.280671 -279.970619 
L 81.560011 -277.971107 
L 84.839348 -275.247579 
L 88.118688 -271.733625 
L 91.398028 -267.381811 
L 94.677365 -262.168314 
L 97.956705 -256.09697 
L 101.236045 -249.201469 
L 104.515382 -241.546468 
L 107.794719 -233.225516 
L 111.074061 -224.35739 
L 114.353399 -215.078606 
L 117.632736 -205.535574 
L 120.912078 -195.87494 
L 124.191416 -186.238308 
L 127.470753 -176.761252 
L 130.750095 -167.581146 
L 134.029432 -158.850154 
L 137.30877 -150.748556 
L 140.588112 -143.490982 
L 143.867444 -137.314087 
L 147.146787 -132.44249 
L 150.426129 -129.037838 
L 153.705461 -127.160526 
L 156.984803 -126.759769 
L 160.264145 -127.6974 
L 163.543478 -129.780799 
L 166.82282 -132.791615 
L 170.102162 -136.505685 
L 173.381495 -140.707529 
L 176.660837 -145.201864 
L 179.940179 -149.824171 
L 183.219512 -154.451283 
L 186.498854 -159.010943 
L 189.778196 -163.489854 
L 193.057528 -167.937342 
L 196.336871 -172.459508 
L 199.616213 -177.197403 
L 202.895545 -182.283277 
L 206.174887 -187.784977 
L 209.45423 -193.663447 
L 212.733562 -199.771466 
L 216.012904 -205.891599 
L 219.292246 -211.787687 
L 222.571579 -217.245565 
L 225.850931 -222.095987 
L 229.130254 -226.22373 
L 232.409596 -229.569748 
L 235.688938 -232.129455 
L 238.968261 -233.950301 
L 242.247622 -235.128914 
L 245.526945 -235.80796 
L 248.806287 -236.171908 
L 252.085629 -236.439786 
L 255.364972 -236.850402 
L 258.644314 -237.634817 
L 261.923637 -238.972473 
L 265.202998 -240.939975 
L 268.482321 -243.477058 
L 271.761663 -246.393167 
L 275.041005 -249.414094 
L 278.320328 -252.240184 
L 281.59969 -254.59287 
L 284.879012 -256.24199 
L 288.158355 -257.018209 
L 291.437697 -256.817826 
L 294.717039 -255.603986 
L 297.996381 -253.406476 
L 301.275704 -250.321752 
L 304.555065 -246.512107 
L 307.834388 -242.20579 
L 311.11373 -237.692109 
L 314.393072 -233.305097 
L 317.672395 -229.377701 
L 320.951757 -226.1601 
L 324.23108 -223.743267 
L 327.510422 -222.057176 
L 330.789764 -220.950304 
L 334.069106 -220.272511 
L 337.348448 -219.916065 
L 340.627771 -219.818333 
L 343.907113 -219.955039 
L 347.186455 -220.326201 
L 350.465798 -220.95151 
L 353.74514 -221.866951 
L 357.024463 -223.124958 
L 360.303805 -224.792417 
L 363.583147 -226.946444 
L 366.862489 -229.658181 
L 370.141831 -232.970671 
L 373.421173 -236.873827 
L 376.700516 -241.292922 
L 379.979838 -246.097746 
L 383.259181 -251.122086 
L 386.538523 -256.189659 
L 386.538523 -269.780565 
L 386.538523 -269.780565 
L 383.259181 -265.671869 
L 379.979838 -261.624971 
L 376.700516 -257.759515 
L 373.421173 -254.175912 
L 370.141831 -250.94616 
L 366.862489 -248.112775 
L 363.583147 -245.691828 
L 360.303805 -243.680949 
L 357.024463 -242.069063 
L 353.74514 -240.841941 
L 350.465798 -239.987404 
L 347.186455 -239.49558 
L 343.907113 -239.360347 
L 340.627771 -239.579336 
L 337.348448 -240.155357 
L 334.069106 -241.095935 
L 330.789764 -242.416038 
L 327.510422 -244.134031 
L 324.23108 -246.265622 
L 320.951757 -248.811637 
L 317.672395 -251.742416 
L 314.393072 -254.983151 
L 311.11373 -258.408537 
L 307.834388 -261.848914 
L 304.555065 -265.108361 
L 301.275704 -267.987728 
L 297.996381 -270.306654 
L 294.717039 -271.921993 
L 291.437697 -272.739808 
L 288.158355 -272.723309 
L 284.879012 -271.895984 
L 281.59969 -270.341041 
L 278.320328 -268.196951 
L 275.041005 -265.647811 
L 271.761663 -262.907485 
L 268.482321 -260.195986 
L 265.202998 -257.709519 
L 261.923637 -255.589224 
L 258.644314 -253.897169 
L 255.364972 -252.608541 
L 252.085629 -251.622053 
L 248.806287 -250.783332 
L 245.526945 -249.912573 
L 242.247622 -248.829076 
L 238.968261 -247.370153 
L 235.688938 -245.404059 
L 232.409596 -242.838598 
L 229.130254 -239.626563 
L 225.850931 -235.768698 
L 222.571579 -231.313984 
L 219.292246 -226.356969 
L 216.012904 -221.029828 
L 212.733562 -215.488567 
L 209.45423 -209.892103 
L 206.174887 -204.37678 
L 202.895545 -199.032958 
L 199.616213 -193.892931 
L 196.336871 -188.935436 
L 193.057528 -184.106219 
L 189.778196 -179.345066 
L 186.498854 -174.611346 
L 183.219512 -169.901293 
L 179.940179 -165.256892 
L 176.660837 -160.767027 
L 173.381495 -156.563019 
L 170.102162 -152.809961 
L 166.82282 -149.694541 
L 163.543478 -147.410129 
L 160.264145 -146.139232 
L 156.984803 -146.034175 
L 153.705461 -147.198383 
L 150.426129 -149.671557 
L 147.146787 -153.423622 
L 143.867444 -158.358739 
L 140.588112 -164.331756 
L 137.30877 -171.1684 
L 134.029432 -178.687648 
L 130.750095 -186.717857 
L 127.470753 -195.106067 
L 124.191416 -203.718767 
L 120.912078 -212.436873 
L 117.632736 -221.148003 
L 114.353399 -229.738403 
L 111.074061 -238.090269 
L 107.794719 -246.082386 
L 104.515382 -253.596631 
L 101.236045 -260.525017 
L 97.956705 -266.777959 
L 94.677365 -272.28961 
L 91.398028 -277.021725 
L 88.118688 -280.964019 
L 84.839348 -284.132998 
L 81.560011 -286.568622 
L 78.280671 -288.330112 
L 75.001333 -289.490739 
L 71.721994 -290.132985 
L 68.442655 -290.343375 
L 65.163316 -290.208164 
L 61.883977 -289.80952 
z
" style="stroke: #ff7f0e; stroke-opacity: 0.5; stroke-width: 0.8"/>
    </defs>
    <g clip-path="url(#p32521130be)">
     <use xlink:href="#m8d7f4b3bd5" x="0" y="309.639375" style="fill: #ff7f0e; fill-opacity: 0.5; stroke: #ff7f0e; stroke-opacity: 0.5; stroke-width: 0.8"/>
    </g>
   </g>
   <g id="line2d_16">
    <defs>
     <path id="m7dc78b931a" d="M -5 5 
L 5 -5 
M -5 -5 
L 5 5 
" style="stroke: #000000; stroke-width: 2"/>
    </defs>
    <g clip-path="url(#p32521130be)">
     <use xlink:href="#m7dc78b931a" x="124.061639" y="141.273192" style="stroke: #000000; stroke-width: 2"/>
     <use xlink:href="#m7dc78b931a" x="263.854413" y="104.005916" style="stroke: #000000; stroke-width: 2"/>
     <use xlink:href="#m7dc78b931a" x="203.994281" y="158.699247" style="stroke: #000000; stroke-width: 2"/>
     <use xlink:href="#m7dc78b931a" x="316.854219" y="87.793806" style="stroke: #000000; stroke-width: 2"/>
     <use xlink:href="#m7dc78b931a" x="315.106676" y="85.65072" style="stroke: #000000; stroke-width: 2"/>
     <use xlink:href="#m7dc78b931a" x="150.382405" y="236.579977" style="stroke: #000000; stroke-width: 2"/>
     <use xlink:href="#m7dc78b931a" x="151.639354" y="198.500324" style="stroke: #000000; stroke-width: 2"/>
     <use xlink:href="#m7dc78b931a" x="322.21543" y="120.120736" style="stroke: #000000; stroke-width: 2"/>
     <use xlink:href="#m7dc78b931a" x="372.948276" y="93.56311" style="stroke: #000000; stroke-width: 2"/>
     <use xlink:href="#m7dc78b931a" x="346.259488" y="130.029521" style="stroke: #000000; stroke-width: 2"/>
    </g>
   </g>
   <g id="line2d_17">
    <path d="M 61.883977 116.264499 
L 65.163316 114.972467 
L 68.442655 113.721573 
L 71.721994 112.564848 
L 75.001333 111.563459 
L 78.280671 110.78556 
L 81.560011 110.304634 
L 84.839348 110.197004 
L 88.118688 110.539203 
L 91.398028 111.404559 
L 94.677365 112.859398 
L 97.956705 114.959338 
L 101.236045 117.74536 
L 104.515382 121.240062 
L 107.794719 125.444908 
L 111.074061 130.337273 
L 114.353399 135.869683 
L 117.632736 141.968578 
L 120.912078 148.536121 
L 124.191416 155.451243 
L 127.470753 162.574196 
L 130.750095 169.749936 
L 134.029432 176.814284 
L 137.30877 183.599637 
L 140.588112 189.941478 
L 143.867444 195.684976 
L 147.146787 200.690908 
L 150.426129 204.841471 
L 153.705461 208.044317 
L 156.984803 210.236282 
L 160.264145 211.385065 
L 163.543478 211.489869 
L 166.82282 210.580417 
L 170.102162 208.714558 
L 173.381495 205.974972 
L 176.660837 202.464598 
L 179.940179 198.301664 
L 183.219512 193.614193 
L 186.498854 188.53443 
L 189.778196 183.193569 
L 193.057528 177.716835 
L 196.336871 172.219295 
L 199.616213 166.802351 
L 202.895545 161.551322 
L 206.174887 156.533648 
L 209.45423 151.798387 
L 212.733562 147.376189 
L 216.012904 143.280288 
L 219.292246 139.50804 
L 222.571579 136.042984 
L 225.850931 132.85728 
L 229.130254 129.91458 
L 232.409596 127.172728 
L 235.688938 124.586807 
L 238.968261 122.111977 
L 242.247622 119.706122 
L 245.526945 117.33246 
L 248.806287 114.961603 
L 252.085629 112.573457 
L 255.364972 110.158596 
L 258.644314 107.719135 
L 261.923637 105.269133 
L 265.202998 102.834289 
L 268.482321 100.451212 
L 271.761663 98.16585 
L 275.041005 96.031515 
L 278.320328 94.106239 
L 281.59969 92.449763 
L 284.879012 91.120101 
L 288.158355 90.170095 
L 291.437697 89.643614 
L 294.717039 89.57261 
L 297.996381 89.973795 
L 301.275704 90.846703 
L 304.555065 92.17208 
L 307.834388 93.911505 
L 311.11373 96.00788 
L 314.393072 98.387277 
L 317.672395 100.961468 
L 320.951757 103.63195 
L 324.23108 106.293923 
L 327.510422 108.841632 
L 330.789764 111.17357 
L 334.069106 113.197129 
L 337.348448 114.833903 
L 340.627771 116.023475 
L 343.907113 116.726024 
L 347.186455 116.92505 
L 350.465798 116.627324 
L 353.74514 115.862551 
L 357.024463 114.681264 
L 360.303805 113.152319 
L 363.583147 111.358136 
L 366.862489 109.391171 
L 370.141831 107.348027 
L 373.421173 105.325432 
L 376.700516 103.415072 
L 379.979838 101.699613 
L 383.259181 100.248951 
L 386.538523 99.118411 
" clip-path="url(#p32521130be)" style="fill: none; stroke: #1f77b4; stroke-width: 2; stroke-linecap: round"/>
   </g>
   <g id="line2d_18">
    <path d="M 61.883977 192.168907 
L 65.163316 184.580124 
L 68.442655 177.052876 
L 71.721994 169.706908 
L 75.001333 162.65817 
L 78.280671 156.016901 
L 81.560011 149.885891 
L 84.839348 144.358841 
L 88.118688 139.518819 
L 91.398028 135.436969 
L 94.677365 132.171354 
L 97.956705 129.76603 
L 101.236045 128.25036 
L 104.515382 127.638525 
L 107.794719 127.929333 
L 111.074061 129.106235 
L 114.353399 131.137596 
L 117.632736 133.977241 
L 120.912078 137.565186 
L 124.191416 141.828624 
L 127.470753 146.683142 
L 130.750095 152.034046 
L 134.029432 157.77793 
L 137.30877 163.804337 
L 140.588112 169.997624 
L 143.867444 176.238683 
L 147.146787 182.407122 
L 150.426129 188.382958 
L 153.705461 194.048739 
L 156.984803 199.291434 
L 160.264145 204.004202 
L 163.543478 208.088199 
L 166.82282 211.454187 
L 170.102162 214.023954 
L 173.381495 215.731633 
L 176.660837 216.524771 
L 179.940179 216.365209 
L 183.219512 215.229709 
L 186.498854 213.11036 
L 189.778196 210.014724 
L 193.057528 205.965776 
L 196.336871 201.001504 
L 199.616213 195.174346 
L 202.895545 188.550427 
L 206.174887 181.208439 
L 209.45423 173.238451 
L 212.733562 164.74053 
L 216.012904 155.82299 
L 219.292246 146.600868 
L 222.571579 137.194133 
L 225.850931 127.725439 
L 229.130254 118.318739 
L 232.409596 109.096616 
L 235.688938 100.179078 
L 238.968261 91.681185 
L 242.247622 83.711148 
L 245.526945 76.369188 
L 248.806287 69.745265 
L 252.085629 63.918122 
L 255.364972 58.953843 
L 258.644314 54.904895 
L 261.923637 51.80928 
L 265.202998 49.68991 
L 268.482321 48.554423 
L 271.761663 48.394862 
L 275.041005 49.188007 
L 278.320328 50.895671 
L 281.59969 53.465453 
L 284.879012 56.831441 
L 288.158355 60.915445 
L 291.437697 65.62822 
L 294.717039 70.870915 
L 297.996381 76.536711 
L 301.275704 82.512504 
L 304.555065 88.680978 
L 307.834388 94.922016 
L 311.11373 101.115292 
L 314.393072 107.141754 
L 317.672395 112.885592 
L 320.951757 118.236534 
L 324.23108 123.091012 
L 327.510422 127.354461 
L 330.789764 130.942406 
L 334.069106 133.782044 
L 337.348448 135.813405 
L 340.627771 136.990303 
L 343.907113 137.281108 
L 347.186455 136.669269 
L 350.465798 135.153592 
L 353.74514 132.748265 
L 357.024463 129.482668 
L 360.303805 125.400817 
L 363.583147 120.560795 
L 366.862489 115.033738 
L 370.141831 108.902728 
L 373.421173 102.261456 
L 376.700516 95.212657 
L 379.979838 87.866743 
L 383.259181 80.33949 
L 386.538523 72.750704 
" clip-path="url(#p32521130be)" style="fill: none; stroke-dasharray: 7.68,1.92,1.2,1.92; stroke-dashoffset: 0; stroke: #bf00bf; stroke-width: 1.2"/>
   </g>
   <g id="patch_3">
    <path d="M 45.65125 251.877998 
L 45.65125 13.041634 
" style="fill: none; stroke: #262626; stroke-linejoin: miter; stroke-linecap: square"/>
   </g>
   <g id="patch_4">
    <path d="M 61.883977 273.312 
L 386.538523 273.312 
" style="fill: none; stroke: #262626; stroke-linejoin: miter; stroke-linecap: square"/>
   </g>
   <g id="legend_1">
    <g id="line2d_19">
     <g>
      <use xlink:href="#m7dc78b931a" x="62.37125" y="18.338875" style="stroke: #000000; stroke-width: 2"/>
     </g>
    </g>
    <g id="text_18">
     <!-- Observations -->
     <g style="fill: #262626" transform="translate(78.21125 21.418875) scale(0.088 -0.088)">
      <defs>
       <path id="ArialMT-4f" d="M 309 2231 
Q 309 3372 921 4017 
Q 1534 4663 2503 4663 
Q 3138 4663 3647 4359 
Q 4156 4056 4423 3514 
Q 4691 2972 4691 2284 
Q 4691 1588 4409 1038 
Q 4128 488 3612 205 
Q 3097 -78 2500 -78 
Q 1853 -78 1343 234 
Q 834 547 571 1087 
Q 309 1628 309 2231 
z
M 934 2222 
Q 934 1394 1379 917 
Q 1825 441 2497 441 
Q 3181 441 3623 922 
Q 4066 1403 4066 2288 
Q 4066 2847 3877 3264 
Q 3688 3681 3323 3911 
Q 2959 4141 2506 4141 
Q 1863 4141 1398 3698 
Q 934 3256 934 2222 
z
" transform="scale(0.015625)"/>
       <path id="ArialMT-62" d="M 941 0 
L 419 0 
L 419 4581 
L 981 4581 
L 981 2947 
Q 1338 3394 1891 3394 
Q 2197 3394 2470 3270 
Q 2744 3147 2920 2923 
Q 3097 2700 3197 2384 
Q 3297 2069 3297 1709 
Q 3297 856 2875 390 
Q 2453 -75 1863 -75 
Q 1275 -75 941 416 
L 941 0 
z
M 934 1684 
Q 934 1088 1097 822 
Q 1363 388 1816 388 
Q 2184 388 2453 708 
Q 2722 1028 2722 1663 
Q 2722 2313 2464 2622 
Q 2206 2931 1841 2931 
Q 1472 2931 1203 2611 
Q 934 2291 934 1684 
z
" transform="scale(0.015625)"/>
       <path id="ArialMT-73" d="M 197 991 
L 753 1078 
Q 800 744 1014 566 
Q 1228 388 1613 388 
Q 2000 388 2187 545 
Q 2375 703 2375 916 
Q 2375 1106 2209 1216 
Q 2094 1291 1634 1406 
Q 1016 1563 777 1677 
Q 538 1791 414 1992 
Q 291 2194 291 2438 
Q 291 2659 392 2848 
Q 494 3038 669 3163 
Q 800 3259 1026 3326 
Q 1253 3394 1513 3394 
Q 1903 3394 2198 3281 
Q 2494 3169 2634 2976 
Q 2775 2784 2828 2463 
L 2278 2388 
Q 2241 2644 2061 2787 
Q 1881 2931 1553 2931 
Q 1166 2931 1000 2803 
Q 834 2675 834 2503 
Q 834 2394 903 2306 
Q 972 2216 1119 2156 
Q 1203 2125 1616 2013 
Q 2213 1853 2448 1751 
Q 2684 1650 2818 1456 
Q 2953 1263 2953 975 
Q 2953 694 2789 445 
Q 2625 197 2315 61 
Q 2006 -75 1616 -75 
Q 969 -75 630 194 
Q 291 463 197 991 
z
" transform="scale(0.015625)"/>
       <path id="ArialMT-65" d="M 2694 1069 
L 3275 997 
Q 3138 488 2766 206 
Q 2394 -75 1816 -75 
Q 1088 -75 661 373 
Q 234 822 234 1631 
Q 234 2469 665 2931 
Q 1097 3394 1784 3394 
Q 2450 3394 2872 2941 
Q 3294 2488 3294 1666 
Q 3294 1616 3291 1516 
L 816 1516 
Q 847 969 1125 678 
Q 1403 388 1819 388 
Q 2128 388 2347 550 
Q 2566 713 2694 1069 
z
M 847 1978 
L 2700 1978 
Q 2663 2397 2488 2606 
Q 2219 2931 1791 2931 
Q 1403 2931 1139 2672 
Q 875 2413 847 1978 
z
" transform="scale(0.015625)"/>
       <path id="ArialMT-72" d="M 416 0 
L 416 3319 
L 922 3319 
L 922 2816 
Q 1116 3169 1280 3281 
Q 1444 3394 1641 3394 
Q 1925 3394 2219 3213 
L 2025 2691 
Q 1819 2813 1613 2813 
Q 1428 2813 1281 2702 
Q 1134 2591 1072 2394 
Q 978 2094 978 1738 
L 978 0 
L 416 0 
z
" transform="scale(0.015625)"/>
       <path id="ArialMT-76" d="M 1344 0 
L 81 3319 
L 675 3319 
L 1388 1331 
Q 1503 1009 1600 663 
Q 1675 925 1809 1294 
L 2547 3319 
L 3125 3319 
L 1869 0 
L 1344 0 
z
" transform="scale(0.015625)"/>
       <path id="ArialMT-61" d="M 2588 409 
Q 2275 144 1986 34 
Q 1697 -75 1366 -75 
Q 819 -75 525 192 
Q 231 459 231 875 
Q 231 1119 342 1320 
Q 453 1522 633 1644 
Q 813 1766 1038 1828 
Q 1203 1872 1538 1913 
Q 2219 1994 2541 2106 
Q 2544 2222 2544 2253 
Q 2544 2597 2384 2738 
Q 2169 2928 1744 2928 
Q 1347 2928 1158 2789 
Q 969 2650 878 2297 
L 328 2372 
Q 403 2725 575 2942 
Q 747 3159 1072 3276 
Q 1397 3394 1825 3394 
Q 2250 3394 2515 3294 
Q 2781 3194 2906 3042 
Q 3031 2891 3081 2659 
Q 3109 2516 3109 2141 
L 3109 1391 
Q 3109 606 3145 398 
Q 3181 191 3288 0 
L 2700 0 
Q 2613 175 2588 409 
z
M 2541 1666 
Q 2234 1541 1622 1453 
Q 1275 1403 1131 1340 
Q 988 1278 909 1158 
Q 831 1038 831 891 
Q 831 666 1001 516 
Q 1172 366 1500 366 
Q 1825 366 2078 508 
Q 2331 650 2450 897 
Q 2541 1088 2541 1459 
L 2541 1666 
z
" transform="scale(0.015625)"/>
       <path id="ArialMT-74" d="M 1650 503 
L 1731 6 
Q 1494 -44 1306 -44 
Q 1000 -44 831 53 
Q 663 150 594 308 
Q 525 466 525 972 
L 525 2881 
L 113 2881 
L 113 3319 
L 525 3319 
L 525 4141 
L 1084 4478 
L 1084 3319 
L 1650 3319 
L 1650 2881 
L 1084 2881 
L 1084 941 
Q 1084 700 1114 631 
Q 1144 563 1211 522 
Q 1278 481 1403 481 
Q 1497 481 1650 503 
z
" transform="scale(0.015625)"/>
       <path id="ArialMT-69" d="M 425 3934 
L 425 4581 
L 988 4581 
L 988 3934 
L 425 3934 
z
M 425 0 
L 425 3319 
L 988 3319 
L 988 0 
L 425 0 
z
" transform="scale(0.015625)"/>
       <path id="ArialMT-6f" d="M 213 1659 
Q 213 2581 725 3025 
Q 1153 3394 1769 3394 
Q 2453 3394 2887 2945 
Q 3322 2497 3322 1706 
Q 3322 1066 3130 698 
Q 2938 331 2570 128 
Q 2203 -75 1769 -75 
Q 1072 -75 642 372 
Q 213 819 213 1659 
z
M 791 1659 
Q 791 1022 1069 705 
Q 1347 388 1769 388 
Q 2188 388 2466 706 
Q 2744 1025 2744 1678 
Q 2744 2294 2464 2611 
Q 2184 2928 1769 2928 
Q 1347 2928 1069 2612 
Q 791 2297 791 1659 
z
" transform="scale(0.015625)"/>
       <path id="ArialMT-6e" d="M 422 0 
L 422 3319 
L 928 3319 
L 928 2847 
Q 1294 3394 1984 3394 
Q 2284 3394 2536 3286 
Q 2788 3178 2913 3003 
Q 3038 2828 3088 2588 
Q 3119 2431 3119 2041 
L 3119 0 
L 2556 0 
L 2556 2019 
Q 2556 2363 2490 2533 
Q 2425 2703 2258 2804 
Q 2091 2906 1866 2906 
Q 1506 2906 1245 2678 
Q 984 2450 984 1813 
L 984 0 
L 422 0 
z
" transform="scale(0.015625)"/>
      </defs>
      <use xlink:href="#ArialMT-4f"/>
      <use xlink:href="#ArialMT-62" x="77.783203"/>
      <use xlink:href="#ArialMT-73" x="133.398438"/>
      <use xlink:href="#ArialMT-65" x="183.398438"/>
      <use xlink:href="#ArialMT-72" x="239.013672"/>
      <use xlink:href="#ArialMT-76" x="272.314453"/>
      <use xlink:href="#ArialMT-61" x="322.314453"/>
      <use xlink:href="#ArialMT-74" x="377.929688"/>
      <use xlink:href="#ArialMT-69" x="405.712891"/>
      <use xlink:href="#ArialMT-6f" x="427.929688"/>
      <use xlink:href="#ArialMT-6e" x="483.544922"/>
      <use xlink:href="#ArialMT-73" x="539.160156"/>
     </g>
    </g>
    <g id="line2d_20">
     <path d="M 53.57125 30.922875 
L 62.37125 30.922875 
L 71.17125 30.922875 
" style="fill: none; stroke: #1f77b4; stroke-width: 2; stroke-linecap: round"/>
    </g>
    <g id="text_19">
     <!-- $m_n(x)$ -->
     <g style="fill: #262626" transform="translate(78.21125 34.002875) scale(0.088 -0.088)">
      <defs>
       <path id="DejaVuSans-Oblique-6d" d="M 5747 2113 
L 5338 0 
L 4763 0 
L 5166 2094 
Q 5191 2228 5203 2325 
Q 5216 2422 5216 2491 
Q 5216 2772 5059 2928 
Q 4903 3084 4622 3084 
Q 4203 3084 3875 2770 
Q 3547 2456 3450 1953 
L 3066 0 
L 2491 0 
L 2900 2094 
Q 2925 2209 2937 2307 
Q 2950 2406 2950 2484 
Q 2950 2769 2794 2926 
Q 2638 3084 2363 3084 
Q 1938 3084 1609 2770 
Q 1281 2456 1184 1953 
L 800 0 
L 225 0 
L 909 3500 
L 1484 3500 
L 1375 2956 
Q 1609 3263 1923 3423 
Q 2238 3584 2597 3584 
Q 2978 3584 3223 3384 
Q 3469 3184 3519 2828 
Q 3781 3197 4126 3390 
Q 4472 3584 4856 3584 
Q 5306 3584 5551 3325 
Q 5797 3066 5797 2591 
Q 5797 2488 5784 2364 
Q 5772 2241 5747 2113 
z
" transform="scale(0.015625)"/>
       <path id="DejaVuSans-Oblique-6e" d="M 3566 2113 
L 3156 0 
L 2578 0 
L 2988 2091 
Q 3016 2238 3031 2350 
Q 3047 2463 3047 2528 
Q 3047 2791 2881 2937 
Q 2716 3084 2419 3084 
Q 1956 3084 1622 2776 
Q 1288 2469 1184 1941 
L 800 0 
L 225 0 
L 903 3500 
L 1478 3500 
L 1363 2950 
Q 1603 3253 1940 3418 
Q 2278 3584 2650 3584 
Q 3113 3584 3367 3334 
Q 3622 3084 3622 2631 
Q 3622 2519 3608 2391 
Q 3594 2263 3566 2113 
z
" transform="scale(0.015625)"/>
       <path id="DejaVuSans-28" d="M 1984 4856 
Q 1566 4138 1362 3434 
Q 1159 2731 1159 2009 
Q 1159 1288 1364 580 
Q 1569 -128 1984 -844 
L 1484 -844 
Q 1016 -109 783 600 
Q 550 1309 550 2009 
Q 550 2706 781 3412 
Q 1013 4119 1484 4856 
L 1984 4856 
z
" transform="scale(0.015625)"/>
       <path id="DejaVuSans-29" d="M 513 4856 
L 1013 4856 
Q 1481 4119 1714 3412 
Q 1947 2706 1947 2009 
Q 1947 1309 1714 600 
Q 1481 -109 1013 -844 
L 513 -844 
Q 928 -128 1133 580 
Q 1338 1288 1338 2009 
Q 1338 2731 1133 3434 
Q 928 4138 513 4856 
z
" transform="scale(0.015625)"/>
      </defs>
      <use xlink:href="#DejaVuSans-Oblique-6d" transform="translate(0 0.125)"/>
      <use xlink:href="#DejaVuSans-Oblique-6e" transform="translate(97.412109 -16.28125) scale(0.7)"/>
      <use xlink:href="#DejaVuSans-28" transform="translate(144.511719 0.125)"/>
      <use xlink:href="#DejaVuSans-Oblique-78" transform="translate(183.525391 0.125)"/>
      <use xlink:href="#DejaVuSans-29" transform="translate(242.705078 0.125)"/>
     </g>
    </g>
    <g id="patch_5">
     <path d="M 53.57125 48.159875 
L 71.17125 48.159875 
L 71.17125 41.999875 
L 53.57125 41.999875 
z
" style="fill: #1f77b4; fill-opacity: 0.5; stroke: #1f77b4; stroke-opacity: 0.5; stroke-width: 0.8; stroke-linejoin: miter"/>
    </g>
    <g id="text_20">
     <!-- $f(\mathbf{x}^*)$ 95% pred. -->
     <g style="fill: #262626" transform="translate(78.21125 48.159875) scale(0.088 -0.088)">
      <defs>
       <path id="DejaVuSans-Oblique-66" d="M 3059 4863 
L 2969 4384 
L 2419 4384 
Q 2106 4384 1964 4261 
Q 1822 4138 1753 3809 
L 1691 3500 
L 2638 3500 
L 2553 3053 
L 1606 3053 
L 1013 0 
L 434 0 
L 1031 3053 
L 481 3053 
L 563 3500 
L 1113 3500 
L 1159 3744 
Q 1278 4363 1576 4613 
Q 1875 4863 2516 4863 
L 3059 4863 
z
" transform="scale(0.015625)"/>
       <path id="DejaVuSans-Bold-78" d="M 1422 1791 
L 159 3500 
L 1344 3500 
L 2059 2463 
L 2784 3500 
L 3969 3500 
L 2706 1797 
L 4031 0 
L 2847 0 
L 2059 1106 
L 1281 0 
L 97 0 
L 1422 1791 
z
" transform="scale(0.015625)"/>
       <path id="DejaVuSans-2a" d="M 3009 3897 
L 1888 3291 
L 3009 2681 
L 2828 2375 
L 1778 3009 
L 1778 1831 
L 1422 1831 
L 1422 3009 
L 372 2375 
L 191 2681 
L 1313 3291 
L 191 3897 
L 372 4206 
L 1422 3572 
L 1422 4750 
L 1778 4750 
L 1778 3572 
L 2828 4206 
L 3009 3897 
z
" transform="scale(0.015625)"/>
       <path id="ArialMT-20" transform="scale(0.015625)"/>
       <path id="ArialMT-39" d="M 350 1059 
L 891 1109 
Q 959 728 1153 556 
Q 1347 384 1650 384 
Q 1909 384 2104 503 
Q 2300 622 2425 820 
Q 2550 1019 2634 1356 
Q 2719 1694 2719 2044 
Q 2719 2081 2716 2156 
Q 2547 1888 2255 1720 
Q 1963 1553 1622 1553 
Q 1053 1553 659 1965 
Q 266 2378 266 3053 
Q 266 3750 677 4175 
Q 1088 4600 1706 4600 
Q 2153 4600 2523 4359 
Q 2894 4119 3086 3673 
Q 3278 3228 3278 2384 
Q 3278 1506 3087 986 
Q 2897 466 2520 194 
Q 2144 -78 1638 -78 
Q 1100 -78 759 220 
Q 419 519 350 1059 
z
M 2653 3081 
Q 2653 3566 2395 3850 
Q 2138 4134 1775 4134 
Q 1400 4134 1122 3828 
Q 844 3522 844 3034 
Q 844 2597 1108 2323 
Q 1372 2050 1759 2050 
Q 2150 2050 2401 2323 
Q 2653 2597 2653 3081 
z
" transform="scale(0.015625)"/>
       <path id="ArialMT-25" d="M 372 3481 
Q 372 3972 619 4315 
Q 866 4659 1334 4659 
Q 1766 4659 2048 4351 
Q 2331 4044 2331 3447 
Q 2331 2866 2045 2552 
Q 1759 2238 1341 2238 
Q 925 2238 648 2547 
Q 372 2856 372 3481 
z
M 1350 4272 
Q 1141 4272 1002 4090 
Q 863 3909 863 3425 
Q 863 2984 1003 2804 
Q 1144 2625 1350 2625 
Q 1563 2625 1702 2806 
Q 1841 2988 1841 3469 
Q 1841 3913 1700 4092 
Q 1559 4272 1350 4272 
z
M 1353 -169 
L 3859 4659 
L 4316 4659 
L 1819 -169 
L 1353 -169 
z
M 3334 1075 
Q 3334 1569 3581 1911 
Q 3828 2253 4300 2253 
Q 4731 2253 5014 1945 
Q 5297 1638 5297 1041 
Q 5297 459 5011 145 
Q 4725 -169 4303 -169 
Q 3888 -169 3611 142 
Q 3334 453 3334 1075 
z
M 4316 1866 
Q 4103 1866 3964 1684 
Q 3825 1503 3825 1019 
Q 3825 581 3965 400 
Q 4106 219 4313 219 
Q 4528 219 4667 400 
Q 4806 581 4806 1063 
Q 4806 1506 4665 1686 
Q 4525 1866 4316 1866 
z
" transform="scale(0.015625)"/>
       <path id="ArialMT-70" d="M 422 -1272 
L 422 3319 
L 934 3319 
L 934 2888 
Q 1116 3141 1344 3267 
Q 1572 3394 1897 3394 
Q 2322 3394 2647 3175 
Q 2972 2956 3137 2557 
Q 3303 2159 3303 1684 
Q 3303 1175 3120 767 
Q 2938 359 2589 142 
Q 2241 -75 1856 -75 
Q 1575 -75 1351 44 
Q 1128 163 984 344 
L 984 -1272 
L 422 -1272 
z
M 931 1641 
Q 931 1000 1190 694 
Q 1450 388 1819 388 
Q 2194 388 2461 705 
Q 2728 1022 2728 1688 
Q 2728 2322 2467 2637 
Q 2206 2953 1844 2953 
Q 1484 2953 1207 2617 
Q 931 2281 931 1641 
z
" transform="scale(0.015625)"/>
       <path id="ArialMT-64" d="M 2575 0 
L 2575 419 
Q 2259 -75 1647 -75 
Q 1250 -75 917 144 
Q 584 363 401 755 
Q 219 1147 219 1656 
Q 219 2153 384 2558 
Q 550 2963 881 3178 
Q 1213 3394 1622 3394 
Q 1922 3394 2156 3267 
Q 2391 3141 2538 2938 
L 2538 4581 
L 3097 4581 
L 3097 0 
L 2575 0 
z
M 797 1656 
Q 797 1019 1065 703 
Q 1334 388 1700 388 
Q 2069 388 2326 689 
Q 2584 991 2584 1609 
Q 2584 2291 2321 2609 
Q 2059 2928 1675 2928 
Q 1300 2928 1048 2622 
Q 797 2316 797 1656 
z
" transform="scale(0.015625)"/>
      </defs>
      <use xlink:href="#DejaVuSans-Oblique-66" transform="translate(0 0.765625)"/>
      <use xlink:href="#DejaVuSans-28" transform="translate(35.205078 0.765625)"/>
      <use xlink:href="#DejaVuSans-Bold-78" transform="translate(74.21875 0.765625)"/>
      <use xlink:href="#DejaVuSans-2a" transform="translate(153.31543 39.046875) scale(0.7)"/>
      <use xlink:href="#DejaVuSans-29" transform="translate(204.6875 0.765625)"/>
      <use xlink:href="#ArialMT-20" transform="translate(243.701172 0.765625)"/>
      <use xlink:href="#ArialMT-39" transform="translate(271.484375 0.765625)"/>
      <use xlink:href="#ArialMT-35" transform="translate(327.099609 0.765625)"/>
      <use xlink:href="#ArialMT-25" transform="translate(382.714844 0.765625)"/>
      <use xlink:href="#ArialMT-20" transform="translate(471.630859 0.765625)"/>
      <use xlink:href="#ArialMT-70" transform="translate(499.414062 0.765625)"/>
      <use xlink:href="#ArialMT-72" transform="translate(555.029297 0.765625)"/>
      <use xlink:href="#ArialMT-65" transform="translate(588.330078 0.765625)"/>
      <use xlink:href="#ArialMT-64" transform="translate(643.945312 0.765625)"/>
      <use xlink:href="#ArialMT-2e" transform="translate(699.560547 0.765625)"/>
     </g>
    </g>
    <g id="patch_6">
     <path d="M 53.57125 62.327875 
L 71.17125 62.327875 
L 71.17125 56.167875 
L 53.57125 56.167875 
z
" style="fill: #ff7f0e; fill-opacity: 0.5; stroke: #ff7f0e; stroke-opacity: 0.5; stroke-width: 0.8; stroke-linejoin: miter"/>
    </g>
    <g id="text_21">
     <!-- $y^*$ 95% pred. -->
     <g style="fill: #262626" transform="translate(78.21125 62.327875) scale(0.088 -0.088)">
      <use xlink:href="#DejaVuSans-Oblique-79" transform="translate(0 0.765625)"/>
      <use xlink:href="#DejaVuSans-2a" transform="translate(77.283529 39.046875) scale(0.7)"/>
      <use xlink:href="#ArialMT-20" transform="translate(128.655599 0.765625)"/>
      <use xlink:href="#ArialMT-39" transform="translate(156.438802 0.765625)"/>
      <use xlink:href="#ArialMT-35" transform="translate(212.054036 0.765625)"/>
      <use xlink:href="#ArialMT-25" transform="translate(267.669271 0.765625)"/>
      <use xlink:href="#ArialMT-20" transform="translate(356.585286 0.765625)"/>
      <use xlink:href="#ArialMT-70" transform="translate(384.36849 0.765625)"/>
      <use xlink:href="#ArialMT-72" transform="translate(439.983724 0.765625)"/>
      <use xlink:href="#ArialMT-65" transform="translate(473.284505 0.765625)"/>
      <use xlink:href="#ArialMT-64" transform="translate(528.89974 0.765625)"/>
      <use xlink:href="#ArialMT-2e" transform="translate(584.514974 0.765625)"/>
     </g>
    </g>
    <g id="line2d_21">
     <path d="M 53.57125 71.79475 
L 62.37125 71.79475 
L 71.17125 71.79475 
" style="fill: none; stroke-dasharray: 7.68,1.92,1.2,1.92; stroke-dashoffset: 0; stroke: #bf00bf; stroke-width: 1.2"/>
    </g>
    <g id="text_22">
     <!-- True function -->
     <g style="fill: #262626" transform="translate(78.21125 74.87475) scale(0.088 -0.088)">
      <defs>
       <path id="ArialMT-54" d="M 1659 0 
L 1659 4041 
L 150 4041 
L 150 4581 
L 3781 4581 
L 3781 4041 
L 2266 4041 
L 2266 0 
L 1659 0 
z
" transform="scale(0.015625)"/>
       <path id="ArialMT-75" d="M 2597 0 
L 2597 488 
Q 2209 -75 1544 -75 
Q 1250 -75 995 37 
Q 741 150 617 320 
Q 494 491 444 738 
Q 409 903 409 1263 
L 409 3319 
L 972 3319 
L 972 1478 
Q 972 1038 1006 884 
Q 1059 663 1231 536 
Q 1403 409 1656 409 
Q 1909 409 2131 539 
Q 2353 669 2445 892 
Q 2538 1116 2538 1541 
L 2538 3319 
L 3100 3319 
L 3100 0 
L 2597 0 
z
" transform="scale(0.015625)"/>
       <path id="ArialMT-66" d="M 556 0 
L 556 2881 
L 59 2881 
L 59 3319 
L 556 3319 
L 556 3672 
Q 556 4006 616 4169 
Q 697 4388 901 4523 
Q 1106 4659 1475 4659 
Q 1713 4659 2000 4603 
L 1916 4113 
Q 1741 4144 1584 4144 
Q 1328 4144 1222 4034 
Q 1116 3925 1116 3625 
L 1116 3319 
L 1763 3319 
L 1763 2881 
L 1116 2881 
L 1116 0 
L 556 0 
z
" transform="scale(0.015625)"/>
       <path id="ArialMT-63" d="M 2588 1216 
L 3141 1144 
Q 3050 572 2676 248 
Q 2303 -75 1759 -75 
Q 1078 -75 664 370 
Q 250 816 250 1647 
Q 250 2184 428 2587 
Q 606 2991 970 3192 
Q 1334 3394 1763 3394 
Q 2303 3394 2647 3120 
Q 2991 2847 3088 2344 
L 2541 2259 
Q 2463 2594 2264 2762 
Q 2066 2931 1784 2931 
Q 1359 2931 1093 2626 
Q 828 2322 828 1663 
Q 828 994 1084 691 
Q 1341 388 1753 388 
Q 2084 388 2306 591 
Q 2528 794 2588 1216 
z
" transform="scale(0.015625)"/>
      </defs>
      <use xlink:href="#ArialMT-54"/>
      <use xlink:href="#ArialMT-72" x="57.333984"/>
      <use xlink:href="#ArialMT-75" x="90.634766"/>
      <use xlink:href="#ArialMT-65" x="146.25"/>
      <use xlink:href="#ArialMT-20" x="201.865234"/>
      <use xlink:href="#ArialMT-66" x="229.648438"/>
      <use xlink:href="#ArialMT-75" x="257.431641"/>
      <use xlink:href="#ArialMT-6e" x="313.046875"/>
      <use xlink:href="#ArialMT-63" x="368.662109"/>
      <use xlink:href="#ArialMT-74" x="418.662109"/>
      <use xlink:href="#ArialMT-69" x="446.445312"/>
      <use xlink:href="#ArialMT-6f" x="468.662109"/>
      <use xlink:href="#ArialMT-6e" x="524.277344"/>
     </g>
    </g>
   </g>
  </g>
 </g>
 <defs>
  <clipPath id="p32521130be">
   <rect x="45.65125" y="7.2" width="357.12" height="266.112"/>
  </clipPath>
 </defs>
</svg>