<?xml version="1.0" encoding="utf-8" standalone="no"?>
<!DOCTYPE svg PUBLIC "-//W3C//DTD SVG 1.1//EN"
  "http://www.w3.org/Graphics/SVG/1.1/DTD/svg11.dtd">
<svg xmlns:xlink="http://www.w3.org/1999/xlink" width="411.064536pt" height="309.639375pt" viewBox="0 0 411.064536 309.639375" xmlns="http://www.w3.org/2000/svg" version="1.1">
 <metadata>
  <rdf:RDF xmlns:dc="http://purl.org/dc/elements/1.1/" xmlns:cc="http://creativecommons.org/ns#" xmlns:rdf="http://www.w3.org/1999/02/22-rdf-syntax-ns#">
   <cc:Work>
    <dc:type rdf:resource="http://purl.org/dc/dcmitype/StillImage"/>
    <dc:date>2023-08-15T13:10:23.796279</dc:date>
    <dc:format>image/svg+xml</dc:format>
    <dc:creator>
     <cc:Agent>
      <dc:title>Matplotlib v3.7.1, https://matplotlib.org/</dc:title>
     </cc:Agent>
    </dc:creator>
   </cc:Work>
  </rdf:RDF>
 </metadata>
 <defs>
  <style type="text/css">*{stroke-linejoin: round; stroke-linecap: butt}</style>
 </defs>
 <g id="figure_1">
  <g id="patch_1">
   <path d="M -0 309.639375 
L 411.064536 309.639375 
L 411.064536 0 
L -0 0 
z
" style="fill: #ffffff"/>
  </g>
  <g id="axes_1">
   <g id="patch_2">
    <path d="M 42.676 273.312 
L 399.796 273.312 
L 399.796 7.2 
L 42.676 7.2 
z
" style="fill: #ffffff"/>
   </g>
   <g id="matplotlib.axis_1">
    <g id="xtick_1">
     <g id="line2d_1">
      <defs>
       <path id="mf430dd9cbb" d="M 0 0 
L 0 4.8 
" style="stroke: #262626"/>
      </defs>
      <g>
       <use xlink:href="#mf430dd9cbb" x="58.908727" y="273.312" style="fill: #262626; stroke: #262626"/>
      </g>
     </g>
     <g id="text_1">
      <!-- 0.0 -->
      <g style="fill: #262626" transform="translate(52.792727 287.910875) scale(0.088 -0.088)">
       <defs>
        <path id="ArialMT-30" d="M 266 2259 
Q 266 3072 433 3567 
Q 600 4063 929 4331 
Q 1259 4600 1759 4600 
Q 2128 4600 2406 4451 
Q 2684 4303 2865 4023 
Q 3047 3744 3150 3342 
Q 3253 2941 3253 2259 
Q 3253 1453 3087 958 
Q 2922 463 2592 192 
Q 2263 -78 1759 -78 
Q 1097 -78 719 397 
Q 266 969 266 2259 
z
M 844 2259 
Q 844 1131 1108 757 
Q 1372 384 1759 384 
Q 2147 384 2411 759 
Q 2675 1134 2675 2259 
Q 2675 3391 2411 3762 
Q 2147 4134 1753 4134 
Q 1366 4134 1134 3806 
Q 844 3388 844 2259 
z
" transform="scale(0.015625)"/>
        <path id="ArialMT-2e" d="M 581 0 
L 581 641 
L 1222 641 
L 1222 0 
L 581 0 
z
" transform="scale(0.015625)"/>
       </defs>
       <use xlink:href="#ArialMT-30"/>
       <use xlink:href="#ArialMT-2e" x="55.615234"/>
       <use xlink:href="#ArialMT-30" x="83.398438"/>
      </g>
     </g>
    </g>
    <g id="xtick_2">
     <g id="line2d_2">
      <g>
       <use xlink:href="#mf430dd9cbb" x="101.263703" y="273.312" style="fill: #262626; stroke: #262626"/>
      </g>
     </g>
     <g id="text_2">
      <!-- 0.5 -->
      <g style="fill: #262626" transform="translate(95.147703 287.910875) scale(0.088 -0.088)">
       <defs>
        <path id="ArialMT-35" d="M 266 1200 
L 856 1250 
Q 922 819 1161 601 
Q 1400 384 1738 384 
Q 2144 384 2425 690 
Q 2706 997 2706 1503 
Q 2706 1984 2436 2262 
Q 2166 2541 1728 2541 
Q 1456 2541 1237 2417 
Q 1019 2294 894 2097 
L 366 2166 
L 809 4519 
L 3088 4519 
L 3088 3981 
L 1259 3981 
L 1013 2750 
Q 1425 3038 1878 3038 
Q 2478 3038 2890 2622 
Q 3303 2206 3303 1553 
Q 3303 931 2941 478 
Q 2500 -78 1738 -78 
Q 1113 -78 717 272 
Q 322 622 266 1200 
z
" transform="scale(0.015625)"/>
       </defs>
       <use xlink:href="#ArialMT-30"/>
       <use xlink:href="#ArialMT-2e" x="55.615234"/>
       <use xlink:href="#ArialMT-35" x="83.398438"/>
      </g>
     </g>
    </g>
    <g id="xtick_3">
     <g id="line2d_3">
      <g>
       <use xlink:href="#mf430dd9cbb" x="143.618679" y="273.312" style="fill: #262626; stroke: #262626"/>
      </g>
     </g>
     <g id="text_3">
      <!-- 1.0 -->
      <g style="fill: #262626" transform="translate(137.502679 287.910875) scale(0.088 -0.088)">
       <defs>
        <path id="ArialMT-31" d="M 2384 0 
L 1822 0 
L 1822 3584 
Q 1619 3391 1289 3197 
Q 959 3003 697 2906 
L 697 3450 
Q 1169 3672 1522 3987 
Q 1875 4303 2022 4600 
L 2384 4600 
L 2384 0 
z
" transform="scale(0.015625)"/>
       </defs>
       <use xlink:href="#ArialMT-31"/>
       <use xlink:href="#ArialMT-2e" x="55.615234"/>
       <use xlink:href="#ArialMT-30" x="83.398438"/>
      </g>
     </g>
    </g>
    <g id="xtick_4">
     <g id="line2d_4">
      <g>
       <use xlink:href="#mf430dd9cbb" x="185.973655" y="273.312" style="fill: #262626; stroke: #262626"/>
      </g>
     </g>
     <g id="text_4">
      <!-- 1.5 -->
      <g style="fill: #262626" transform="translate(179.857655 287.910875) scale(0.088 -0.088)">
       <use xlink:href="#ArialMT-31"/>
       <use xlink:href="#ArialMT-2e" x="55.615234"/>
       <use xlink:href="#ArialMT-35" x="83.398438"/>
      </g>
     </g>
    </g>
    <g id="xtick_5">
     <g id="line2d_5">
      <g>
       <use xlink:href="#mf430dd9cbb" x="228.328631" y="273.312" style="fill: #262626; stroke: #262626"/>
      </g>
     </g>
     <g id="text_5">
      <!-- 2.0 -->
      <g style="fill: #262626" transform="translate(222.212631 287.910875) scale(0.088 -0.088)">
       <defs>
        <path id="ArialMT-32" d="M 3222 541 
L 3222 0 
L 194 0 
Q 188 203 259 391 
Q 375 700 629 1000 
Q 884 1300 1366 1694 
Q 2113 2306 2375 2664 
Q 2638 3022 2638 3341 
Q 2638 3675 2398 3904 
Q 2159 4134 1775 4134 
Q 1369 4134 1125 3890 
Q 881 3647 878 3216 
L 300 3275 
Q 359 3922 746 4261 
Q 1134 4600 1788 4600 
Q 2447 4600 2831 4234 
Q 3216 3869 3216 3328 
Q 3216 3053 3103 2787 
Q 2991 2522 2730 2228 
Q 2469 1934 1863 1422 
Q 1356 997 1212 845 
Q 1069 694 975 541 
L 3222 541 
z
" transform="scale(0.015625)"/>
       </defs>
       <use xlink:href="#ArialMT-32"/>
       <use xlink:href="#ArialMT-2e" x="55.615234"/>
       <use xlink:href="#ArialMT-30" x="83.398438"/>
      </g>
     </g>
    </g>
    <g id="xtick_6">
     <g id="line2d_6">
      <g>
       <use xlink:href="#mf430dd9cbb" x="270.683607" y="273.312" style="fill: #262626; stroke: #262626"/>
      </g>
     </g>
     <g id="text_6">
      <!-- 2.5 -->
      <g style="fill: #262626" transform="translate(264.567607 287.910875) scale(0.088 -0.088)">
       <use xlink:href="#ArialMT-32"/>
       <use xlink:href="#ArialMT-2e" x="55.615234"/>
       <use xlink:href="#ArialMT-35" x="83.398438"/>
      </g>
     </g>
    </g>
    <g id="xtick_7">
     <g id="line2d_7">
      <g>
       <use xlink:href="#mf430dd9cbb" x="313.038583" y="273.312" style="fill: #262626; stroke: #262626"/>
      </g>
     </g>
     <g id="text_7">
      <!-- 3.0 -->
      <g style="fill: #262626" transform="translate(306.922583 287.910875) scale(0.088 -0.088)">
       <defs>
        <path id="ArialMT-33" d="M 269 1209 
L 831 1284 
Q 928 806 1161 595 
Q 1394 384 1728 384 
Q 2125 384 2398 659 
Q 2672 934 2672 1341 
Q 2672 1728 2419 1979 
Q 2166 2231 1775 2231 
Q 1616 2231 1378 2169 
L 1441 2663 
Q 1497 2656 1531 2656 
Q 1891 2656 2178 2843 
Q 2466 3031 2466 3422 
Q 2466 3731 2256 3934 
Q 2047 4138 1716 4138 
Q 1388 4138 1169 3931 
Q 950 3725 888 3313 
L 325 3413 
Q 428 3978 793 4289 
Q 1159 4600 1703 4600 
Q 2078 4600 2393 4439 
Q 2709 4278 2876 4000 
Q 3044 3722 3044 3409 
Q 3044 3113 2884 2869 
Q 2725 2625 2413 2481 
Q 2819 2388 3044 2092 
Q 3269 1797 3269 1353 
Q 3269 753 2831 336 
Q 2394 -81 1725 -81 
Q 1122 -81 723 278 
Q 325 638 269 1209 
z
" transform="scale(0.015625)"/>
       </defs>
       <use xlink:href="#ArialMT-33"/>
       <use xlink:href="#ArialMT-2e" x="55.615234"/>
       <use xlink:href="#ArialMT-30" x="83.398438"/>
      </g>
     </g>
    </g>
    <g id="xtick_8">
     <g id="line2d_8">
      <g>
       <use xlink:href="#mf430dd9cbb" x="355.39356" y="273.312" style="fill: #262626; stroke: #262626"/>
      </g>
     </g>
     <g id="text_8">
      <!-- 3.5 -->
      <g style="fill: #262626" transform="translate(349.27756 287.910875) scale(0.088 -0.088)">
       <use xlink:href="#ArialMT-33"/>
       <use xlink:href="#ArialMT-2e" x="55.615234"/>
       <use xlink:href="#ArialMT-35" x="83.398438"/>
      </g>
     </g>
    </g>
    <g id="xtick_9">
     <g id="line2d_9">
      <g>
       <use xlink:href="#mf430dd9cbb" x="397.748536" y="273.312" style="fill: #262626; stroke: #262626"/>
      </g>
     </g>
     <g id="text_9">
      <!-- 4.0 -->
      <g style="fill: #262626" transform="translate(391.632536 287.910875) scale(0.088 -0.088)">
       <defs>
        <path id="ArialMT-34" d="M 2069 0 
L 2069 1097 
L 81 1097 
L 81 1613 
L 2172 4581 
L 2631 4581 
L 2631 1613 
L 3250 1613 
L 3250 1097 
L 2631 1097 
L 2631 0 
L 2069 0 
z
M 2069 1613 
L 2069 3678 
L 634 1613 
L 2069 1613 
z
" transform="scale(0.015625)"/>
       </defs>
       <use xlink:href="#ArialMT-34"/>
       <use xlink:href="#ArialMT-2e" x="55.615234"/>
       <use xlink:href="#ArialMT-30" x="83.398438"/>
      </g>
     </g>
    </g>
    <g id="text_10">
     <!-- $y$ -->
     <g style="fill: #262626" transform="translate(218.356 300.423375) scale(0.096 -0.096)">
      <defs>
       <path id="DejaVuSans-Oblique-79" d="M 1588 -325 
Q 1188 -997 936 -1164 
Q 684 -1331 294 -1331 
L -159 -1331 
L -63 -850 
L 269 -850 
Q 509 -850 678 -719 
Q 847 -588 1056 -206 
L 1234 128 
L 459 3500 
L 1069 3500 
L 1650 819 
L 3256 3500 
L 3859 3500 
L 1588 -325 
z
" transform="scale(0.015625)"/>
      </defs>
      <use xlink:href="#DejaVuSans-Oblique-79" transform="translate(0 0.3125)"/>
     </g>
    </g>
   </g>
   <g id="matplotlib.axis_2">
    <g id="ytick_1">
     <g id="line2d_10">
      <defs>
       <path id="m357d1811f5" d="M 0 0 
L -4.8 0 
" style="stroke: #262626"/>
      </defs>
      <g>
       <use xlink:href="#m357d1811f5" x="42.676" y="261.216" style="fill: #262626; stroke: #262626"/>
      </g>
     </g>
     <g id="text_11">
      <!-- 0.0 -->
      <g style="fill: #262626" transform="translate(22.144 264.365437) scale(0.088 -0.088)">
       <use xlink:href="#ArialMT-30"/>
       <use xlink:href="#ArialMT-2e" x="55.615234"/>
       <use xlink:href="#ArialMT-30" x="83.398438"/>
      </g>
     </g>
    </g>
    <g id="ytick_2">
     <g id="line2d_11">
      <g>
       <use xlink:href="#m357d1811f5" x="42.676" y="212.832" style="fill: #262626; stroke: #262626"/>
      </g>
     </g>
     <g id="text_12">
      <!-- 0.2 -->
      <g style="fill: #262626" transform="translate(22.144 215.981437) scale(0.088 -0.088)">
       <use xlink:href="#ArialMT-30"/>
       <use xlink:href="#ArialMT-2e" x="55.615234"/>
       <use xlink:href="#ArialMT-32" x="83.398438"/>
      </g>
     </g>
    </g>
    <g id="ytick_3">
     <g id="line2d_12">
      <g>
       <use xlink:href="#m357d1811f5" x="42.676" y="164.448" style="fill: #262626; stroke: #262626"/>
      </g>
     </g>
     <g id="text_13">
      <!-- 0.4 -->
      <g style="fill: #262626" transform="translate(22.144 167.597437) scale(0.088 -0.088)">
       <use xlink:href="#ArialMT-30"/>
       <use xlink:href="#ArialMT-2e" x="55.615234"/>
       <use xlink:href="#ArialMT-34" x="83.398438"/>
      </g>
     </g>
    </g>
    <g id="ytick_4">
     <g id="line2d_13">
      <g>
       <use xlink:href="#m357d1811f5" x="42.676" y="116.064" style="fill: #262626; stroke: #262626"/>
      </g>
     </g>
     <g id="text_14">
      <!-- 0.6 -->
      <g style="fill: #262626" transform="translate(22.144 119.213437) scale(0.088 -0.088)">
       <defs>
        <path id="ArialMT-36" d="M 3184 3459 
L 2625 3416 
Q 2550 3747 2413 3897 
Q 2184 4138 1850 4138 
Q 1581 4138 1378 3988 
Q 1113 3794 959 3422 
Q 806 3050 800 2363 
Q 1003 2672 1297 2822 
Q 1591 2972 1913 2972 
Q 2475 2972 2870 2558 
Q 3266 2144 3266 1488 
Q 3266 1056 3080 686 
Q 2894 316 2569 119 
Q 2244 -78 1831 -78 
Q 1128 -78 684 439 
Q 241 956 241 2144 
Q 241 3472 731 4075 
Q 1159 4600 1884 4600 
Q 2425 4600 2770 4297 
Q 3116 3994 3184 3459 
z
M 888 1484 
Q 888 1194 1011 928 
Q 1134 663 1356 523 
Q 1578 384 1822 384 
Q 2178 384 2434 671 
Q 2691 959 2691 1453 
Q 2691 1928 2437 2201 
Q 2184 2475 1800 2475 
Q 1419 2475 1153 2201 
Q 888 1928 888 1484 
z
" transform="scale(0.015625)"/>
       </defs>
       <use xlink:href="#ArialMT-30"/>
       <use xlink:href="#ArialMT-2e" x="55.615234"/>
       <use xlink:href="#ArialMT-36" x="83.398438"/>
      </g>
     </g>
    </g>
    <g id="ytick_5">
     <g id="line2d_14">
      <g>
       <use xlink:href="#m357d1811f5" x="42.676" y="67.68" style="fill: #262626; stroke: #262626"/>
      </g>
     </g>
     <g id="text_15">
      <!-- 0.8 -->
      <g style="fill: #262626" transform="translate(22.144 70.829438) scale(0.088 -0.088)">
       <defs>
        <path id="ArialMT-38" d="M 1131 2484 
Q 781 2613 612 2850 
Q 444 3088 444 3419 
Q 444 3919 803 4259 
Q 1163 4600 1759 4600 
Q 2359 4600 2725 4251 
Q 3091 3903 3091 3403 
Q 3091 3084 2923 2848 
Q 2756 2613 2416 2484 
Q 2838 2347 3058 2040 
Q 3278 1734 3278 1309 
Q 3278 722 2862 322 
Q 2447 -78 1769 -78 
Q 1091 -78 675 323 
Q 259 725 259 1325 
Q 259 1772 486 2073 
Q 713 2375 1131 2484 
z
M 1019 3438 
Q 1019 3113 1228 2906 
Q 1438 2700 1772 2700 
Q 2097 2700 2305 2904 
Q 2513 3109 2513 3406 
Q 2513 3716 2298 3927 
Q 2084 4138 1766 4138 
Q 1444 4138 1231 3931 
Q 1019 3725 1019 3438 
z
M 838 1322 
Q 838 1081 952 856 
Q 1066 631 1291 507 
Q 1516 384 1775 384 
Q 2178 384 2440 643 
Q 2703 903 2703 1303 
Q 2703 1709 2433 1975 
Q 2163 2241 1756 2241 
Q 1359 2241 1098 1978 
Q 838 1716 838 1322 
z
" transform="scale(0.015625)"/>
       </defs>
       <use xlink:href="#ArialMT-30"/>
       <use xlink:href="#ArialMT-2e" x="55.615234"/>
       <use xlink:href="#ArialMT-38" x="83.398438"/>
      </g>
     </g>
    </g>
    <g id="ytick_6">
     <g id="line2d_15">
      <g>
       <use xlink:href="#m357d1811f5" x="42.676" y="19.296" style="fill: #262626; stroke: #262626"/>
      </g>
     </g>
     <g id="text_16">
      <!-- 1.0 -->
      <g style="fill: #262626" transform="translate(22.144 22.445437) scale(0.088 -0.088)">
       <use xlink:href="#ArialMT-31"/>
       <use xlink:href="#ArialMT-2e" x="55.615234"/>
       <use xlink:href="#ArialMT-30" x="83.398438"/>
      </g>
     </g>
    </g>
    <g id="text_17">
     <!-- $\bar{F}_N(y)$ -->
     <g style="fill: #262626" transform="translate(16.128 152.304) rotate(-90) scale(0.096 -0.096)">
      <defs>
       <path id="DejaVuSans-304" d="M -2518 4769 
L -650 4769 
L -650 4306 
L -2518 4306 
L -2518 4769 
z
" transform="scale(0.015625)"/>
       <path id="DejaVuSans-Oblique-46" d="M 1081 4666 
L 3756 4666 
L 3653 4134 
L 1606 4134 
L 1338 2759 
L 3188 2759 
L 3084 2228 
L 1234 2228 
L 800 0 
L 172 0 
L 1081 4666 
z
" transform="scale(0.015625)"/>
       <path id="DejaVuSans-Oblique-4e" d="M 1081 4666 
L 1931 4666 
L 3219 666 
L 4000 4666 
L 4616 4666 
L 3706 0 
L 2853 0 
L 1569 4025 
L 788 0 
L 172 0 
L 1081 4666 
z
" transform="scale(0.015625)"/>
       <path id="DejaVuSans-28" d="M 1984 4856 
Q 1566 4138 1362 3434 
Q 1159 2731 1159 2009 
Q 1159 1288 1364 580 
Q 1569 -128 1984 -844 
L 1484 -844 
Q 1016 -109 783 600 
Q 550 1309 550 2009 
Q 550 2706 781 3412 
Q 1013 4119 1484 4856 
L 1984 4856 
z
" transform="scale(0.015625)"/>
       <path id="DejaVuSans-29" d="M 513 4856 
L 1013 4856 
Q 1481 4119 1714 3412 
Q 1947 2706 1947 2009 
Q 1947 1309 1714 600 
Q 1481 -109 1013 -844 
L 513 -844 
Q 928 -128 1133 580 
Q 1338 1288 1338 2009 
Q 1338 2731 1133 3434 
Q 928 4138 513 4856 
z
" transform="scale(0.015625)"/>
      </defs>
      <use xlink:href="#DejaVuSans-304" transform="translate(60.723633 18.484375)"/>
      <use xlink:href="#DejaVuSans-Oblique-46" transform="translate(0 0.359375)"/>
      <use xlink:href="#DejaVuSans-Oblique-4e" transform="translate(58.476562 -16.046875) scale(0.7)"/>
      <use xlink:href="#DejaVuSans-28" transform="translate(113.574219 0.359375)"/>
      <use xlink:href="#DejaVuSans-Oblique-79" transform="translate(152.587891 0.359375)"/>
      <use xlink:href="#DejaVuSans-29" transform="translate(211.767578 0.359375)"/>
     </g>
    </g>
   </g>
   <g id="line2d_16">
    <path d="M 58.908727 261.216 
L 62.188066 212.832 
L 65.467405 188.64 
L 68.746744 188.64 
L 72.026083 188.64 
L 75.305421 188.64 
L 78.58476 188.64 
L 81.864099 188.64 
L 85.143438 188.64 
L 88.422777 164.448 
L 91.702116 164.448 
L 94.981455 164.448 
L 98.260793 140.256 
L 101.540132 140.256 
L 104.819471 140.256 
L 108.09881 140.256 
L 111.378149 140.256 
L 114.657488 140.256 
L 117.936826 140.256 
L 121.216165 140.256 
L 124.495504 140.256 
L 127.774843 140.256 
L 131.054182 140.256 
L 134.333521 140.256 
L 137.61286 140.256 
L 140.892198 140.256 
L 144.171537 140.256 
L 147.450876 140.256 
L 150.730215 140.256 
L 154.009554 140.256 
L 157.288893 116.064 
L 160.568231 116.064 
L 163.84757 116.064 
L 167.126909 116.064 
L 170.406248 91.872 
L 173.685587 91.872 
L 176.964926 91.872 
L 180.244264 91.872 
L 183.523603 91.872 
L 186.802942 91.872 
L 190.082281 91.872 
L 193.36162 91.872 
L 196.640959 91.872 
L 199.920298 91.872 
L 203.199636 91.872 
L 206.478975 91.872 
L 209.758314 91.872 
L 213.037653 91.872 
L 216.316992 91.872 
L 219.596331 91.872 
L 222.875669 91.872 
L 226.155008 91.872 
L 229.434347 91.872 
L 232.713686 91.872 
L 235.993025 91.872 
L 239.272364 91.872 
L 242.551702 91.872 
L 245.831041 91.872 
L 249.11038 91.872 
L 252.389719 91.872 
L 255.669058 91.872 
L 258.948397 91.872 
L 262.227736 91.872 
L 265.507074 91.872 
L 268.786413 91.872 
L 272.065752 67.68 
L 275.345091 43.488 
L 278.62443 43.488 
L 281.903769 43.488 
L 285.183107 43.488 
L 288.462446 43.488 
L 291.741785 43.488 
L 295.021124 43.488 
L 298.300463 43.488 
L 301.579802 43.488 
L 304.85914 43.488 
L 308.138479 43.488 
L 311.417818 43.488 
L 314.697157 43.488 
L 317.976496 43.488 
L 321.255835 43.488 
L 324.535174 43.488 
L 327.814512 43.488 
L 331.093851 43.488 
L 334.37319 43.488 
L 337.652529 43.488 
L 340.931868 43.488 
L 344.211207 43.488 
L 347.490545 43.488 
L 350.769884 43.488 
L 354.049223 43.488 
L 357.328562 43.488 
L 360.607901 19.296 
L 363.88724 19.296 
L 367.166579 19.296 
L 370.445917 19.296 
L 373.725256 19.296 
L 377.004595 19.296 
L 380.283934 19.296 
L 383.563273 19.296 
" clip-path="url(#peeb59f40c8)" style="fill: none; stroke: #1f77b4; stroke-width: 1.2; stroke-linecap: round"/>
    <defs>
     <path id="maea1cc5852" d="M 0 1.2 
C 0.318244 1.2 0.623496 1.07356 0.848528 0.848528 
C 1.07356 0.623496 1.2 0.318244 1.2 0 
C 1.2 -0.318244 1.07356 -0.623496 0.848528 -0.848528 
C 0.623496 -1.07356 0.318244 -1.2 0 -1.2 
C -0.318244 -1.2 -0.623496 -1.07356 -0.848528 -0.848528 
C -1.07356 -0.623496 -1.2 -0.318244 -1.2 0 
C -1.2 0.318244 -1.07356 0.623496 -0.848528 0.848528 
C -0.623496 1.07356 -0.318244 1.2 0 1.2 
z
" style="stroke: #1f77b4"/>
    </defs>
    <g clip-path="url(#peeb59f40c8)">
     <use xlink:href="#maea1cc5852" x="58.908727" y="261.216" style="fill: #1f77b4; stroke: #1f77b4"/>
     <use xlink:href="#maea1cc5852" x="62.188066" y="212.832" style="fill: #1f77b4; stroke: #1f77b4"/>
     <use xlink:href="#maea1cc5852" x="65.467405" y="188.64" style="fill: #1f77b4; stroke: #1f77b4"/>
     <use xlink:href="#maea1cc5852" x="68.746744" y="188.64" style="fill: #1f77b4; stroke: #1f77b4"/>
     <use xlink:href="#maea1cc5852" x="72.026083" y="188.64" style="fill: #1f77b4; stroke: #1f77b4"/>
     <use xlink:href="#maea1cc5852" x="75.305421" y="188.64" style="fill: #1f77b4; stroke: #1f77b4"/>
     <use xlink:href="#maea1cc5852" x="78.58476" y="188.64" style="fill: #1f77b4; stroke: #1f77b4"/>
     <use xlink:href="#maea1cc5852" x="81.864099" y="188.64" style="fill: #1f77b4; stroke: #1f77b4"/>
     <use xlink:href="#maea1cc5852" x="85.143438" y="188.64" style="fill: #1f77b4; stroke: #1f77b4"/>
     <use xlink:href="#maea1cc5852" x="88.422777" y="164.448" style="fill: #1f77b4; stroke: #1f77b4"/>
     <use xlink:href="#maea1cc5852" x="91.702116" y="164.448" style="fill: #1f77b4; stroke: #1f77b4"/>
     <use xlink:href="#maea1cc5852" x="94.981455" y="164.448" style="fill: #1f77b4; stroke: #1f77b4"/>
     <use xlink:href="#maea1cc5852" x="98.260793" y="140.256" style="fill: #1f77b4; stroke: #1f77b4"/>
     <use xlink:href="#maea1cc5852" x="101.540132" y="140.256" style="fill: #1f77b4; stroke: #1f77b4"/>
     <use xlink:href="#maea1cc5852" x="104.819471" y="140.256" style="fill: #1f77b4; stroke: #1f77b4"/>
     <use xlink:href="#maea1cc5852" x="108.09881" y="140.256" style="fill: #1f77b4; stroke: #1f77b4"/>
     <use xlink:href="#maea1cc5852" x="111.378149" y="140.256" style="fill: #1f77b4; stroke: #1f77b4"/>
     <use xlink:href="#maea1cc5852" x="114.657488" y="140.256" style="fill: #1f77b4; stroke: #1f77b4"/>
     <use xlink:href="#maea1cc5852" x="117.936826" y="140.256" style="fill: #1f77b4; stroke: #1f77b4"/>
     <use xlink:href="#maea1cc5852" x="121.216165" y="140.256" style="fill: #1f77b4; stroke: #1f77b4"/>
     <use xlink:href="#maea1cc5852" x="124.495504" y="140.256" style="fill: #1f77b4; stroke: #1f77b4"/>
     <use xlink:href="#maea1cc5852" x="127.774843" y="140.256" style="fill: #1f77b4; stroke: #1f77b4"/>
     <use xlink:href="#maea1cc5852" x="131.054182" y="140.256" style="fill: #1f77b4; stroke: #1f77b4"/>
     <use xlink:href="#maea1cc5852" x="134.333521" y="140.256" style="fill: #1f77b4; stroke: #1f77b4"/>
     <use xlink:href="#maea1cc5852" x="137.61286" y="140.256" style="fill: #1f77b4; stroke: #1f77b4"/>
     <use xlink:href="#maea1cc5852" x="140.892198" y="140.256" style="fill: #1f77b4; stroke: #1f77b4"/>
     <use xlink:href="#maea1cc5852" x="144.171537" y="140.256" style="fill: #1f77b4; stroke: #1f77b4"/>
     <use xlink:href="#maea1cc5852" x="147.450876" y="140.256" style="fill: #1f77b4; stroke: #1f77b4"/>
     <use xlink:href="#maea1cc5852" x="150.730215" y="140.256" style="fill: #1f77b4; stroke: #1f77b4"/>
     <use xlink:href="#maea1cc5852" x="154.009554" y="140.256" style="fill: #1f77b4; stroke: #1f77b4"/>
     <use xlink:href="#maea1cc5852" x="157.288893" y="116.064" style="fill: #1f77b4; stroke: #1f77b4"/>
     <use xlink:href="#maea1cc5852" x="160.568231" y="116.064" style="fill: #1f77b4; stroke: #1f77b4"/>
     <use xlink:href="#maea1cc5852" x="163.84757" y="116.064" style="fill: #1f77b4; stroke: #1f77b4"/>
     <use xlink:href="#maea1cc5852" x="167.126909" y="116.064" style="fill: #1f77b4; stroke: #1f77b4"/>
     <use xlink:href="#maea1cc5852" x="170.406248" y="91.872" style="fill: #1f77b4; stroke: #1f77b4"/>
     <use xlink:href="#maea1cc5852" x="173.685587" y="91.872" style="fill: #1f77b4; stroke: #1f77b4"/>
     <use xlink:href="#maea1cc5852" x="176.964926" y="91.872" style="fill: #1f77b4; stroke: #1f77b4"/>
     <use xlink:href="#maea1cc5852" x="180.244264" y="91.872" style="fill: #1f77b4; stroke: #1f77b4"/>
     <use xlink:href="#maea1cc5852" x="183.523603" y="91.872" style="fill: #1f77b4; stroke: #1f77b4"/>
     <use xlink:href="#maea1cc5852" x="186.802942" y="91.872" style="fill: #1f77b4; stroke: #1f77b4"/>
     <use xlink:href="#maea1cc5852" x="190.082281" y="91.872" style="fill: #1f77b4; stroke: #1f77b4"/>
     <use xlink:href="#maea1cc5852" x="193.36162" y="91.872" style="fill: #1f77b4; stroke: #1f77b4"/>
     <use xlink:href="#maea1cc5852" x="196.640959" y="91.872" style="fill: #1f77b4; stroke: #1f77b4"/>
     <use xlink:href="#maea1cc5852" x="199.920298" y="91.872" style="fill: #1f77b4; stroke: #1f77b4"/>
     <use xlink:href="#maea1cc5852" x="203.199636" y="91.872" style="fill: #1f77b4; stroke: #1f77b4"/>
     <use xlink:href="#maea1cc5852" x="206.478975" y="91.872" style="fill: #1f77b4; stroke: #1f77b4"/>
     <use xlink:href="#maea1cc5852" x="209.758314" y="91.872" style="fill: #1f77b4; stroke: #1f77b4"/>
     <use xlink:href="#maea1cc5852" x="213.037653" y="91.872" style="fill: #1f77b4; stroke: #1f77b4"/>
     <use xlink:href="#maea1cc5852" x="216.316992" y="91.872" style="fill: #1f77b4; stroke: #1f77b4"/>
     <use xlink:href="#maea1cc5852" x="219.596331" y="91.872" style="fill: #1f77b4; stroke: #1f77b4"/>
     <use xlink:href="#maea1cc5852" x="222.875669" y="91.872" style="fill: #1f77b4; stroke: #1f77b4"/>
     <use xlink:href="#maea1cc5852" x="226.155008" y="91.872" style="fill: #1f77b4; stroke: #1f77b4"/>
     <use xlink:href="#maea1cc5852" x="229.434347" y="91.872" style="fill: #1f77b4; stroke: #1f77b4"/>
     <use xlink:href="#maea1cc5852" x="232.713686" y="91.872" style="fill: #1f77b4; stroke: #1f77b4"/>
     <use xlink:href="#maea1cc5852" x="235.993025" y="91.872" style="fill: #1f77b4; stroke: #1f77b4"/>
     <use xlink:href="#maea1cc5852" x="239.272364" y="91.872" style="fill: #1f77b4; stroke: #1f77b4"/>
     <use xlink:href="#maea1cc5852" x="242.551702" y="91.872" style="fill: #1f77b4; stroke: #1f77b4"/>
     <use xlink:href="#maea1cc5852" x="245.831041" y="91.872" style="fill: #1f77b4; stroke: #1f77b4"/>
     <use xlink:href="#maea1cc5852" x="249.11038" y="91.872" style="fill: #1f77b4; stroke: #1f77b4"/>
     <use xlink:href="#maea1cc5852" x="252.389719" y="91.872" style="fill: #1f77b4; stroke: #1f77b4"/>
     <use xlink:href="#maea1cc5852" x="255.669058" y="91.872" style="fill: #1f77b4; stroke: #1f77b4"/>
     <use xlink:href="#maea1cc5852" x="258.948397" y="91.872" style="fill: #1f77b4; stroke: #1f77b4"/>
     <use xlink:href="#maea1cc5852" x="262.227736" y="91.872" style="fill: #1f77b4; stroke: #1f77b4"/>
     <use xlink:href="#maea1cc5852" x="265.507074" y="91.872" style="fill: #1f77b4; stroke: #1f77b4"/>
     <use xlink:href="#maea1cc5852" x="268.786413" y="91.872" style="fill: #1f77b4; stroke: #1f77b4"/>
     <use xlink:href="#maea1cc5852" x="272.065752" y="67.68" style="fill: #1f77b4; stroke: #1f77b4"/>
     <use xlink:href="#maea1cc5852" x="275.345091" y="43.488" style="fill: #1f77b4; stroke: #1f77b4"/>
     <use xlink:href="#maea1cc5852" x="278.62443" y="43.488" style="fill: #1f77b4; stroke: #1f77b4"/>
     <use xlink:href="#maea1cc5852" x="281.903769" y="43.488" style="fill: #1f77b4; stroke: #1f77b4"/>
     <use xlink:href="#maea1cc5852" x="285.183107" y="43.488" style="fill: #1f77b4; stroke: #1f77b4"/>
     <use xlink:href="#maea1cc5852" x="288.462446" y="43.488" style="fill: #1f77b4; stroke: #1f77b4"/>
     <use xlink:href="#maea1cc5852" x="291.741785" y="43.488" style="fill: #1f77b4; stroke: #1f77b4"/>
     <use xlink:href="#maea1cc5852" x="295.021124" y="43.488" style="fill: #1f77b4; stroke: #1f77b4"/>
     <use xlink:href="#maea1cc5852" x="298.300463" y="43.488" style="fill: #1f77b4; stroke: #1f77b4"/>
     <use xlink:href="#maea1cc5852" x="301.579802" y="43.488" style="fill: #1f77b4; stroke: #1f77b4"/>
     <use xlink:href="#maea1cc5852" x="304.85914" y="43.488" style="fill: #1f77b4; stroke: #1f77b4"/>
     <use xlink:href="#maea1cc5852" x="308.138479" y="43.488" style="fill: #1f77b4; stroke: #1f77b4"/>
     <use xlink:href="#maea1cc5852" x="311.417818" y="43.488" style="fill: #1f77b4; stroke: #1f77b4"/>
     <use xlink:href="#maea1cc5852" x="314.697157" y="43.488" style="fill: #1f77b4; stroke: #1f77b4"/>
     <use xlink:href="#maea1cc5852" x="317.976496" y="43.488" style="fill: #1f77b4; stroke: #1f77b4"/>
     <use xlink:href="#maea1cc5852" x="321.255835" y="43.488" style="fill: #1f77b4; stroke: #1f77b4"/>
     <use xlink:href="#maea1cc5852" x="324.535174" y="43.488" style="fill: #1f77b4; stroke: #1f77b4"/>
     <use xlink:href="#maea1cc5852" x="327.814512" y="43.488" style="fill: #1f77b4; stroke: #1f77b4"/>
     <use xlink:href="#maea1cc5852" x="331.093851" y="43.488" style="fill: #1f77b4; stroke: #1f77b4"/>
     <use xlink:href="#maea1cc5852" x="334.37319" y="43.488" style="fill: #1f77b4; stroke: #1f77b4"/>
     <use xlink:href="#maea1cc5852" x="337.652529" y="43.488" style="fill: #1f77b4; stroke: #1f77b4"/>
     <use xlink:href="#maea1cc5852" x="340.931868" y="43.488" style="fill: #1f77b4; stroke: #1f77b4"/>
     <use xlink:href="#maea1cc5852" x="344.211207" y="43.488" style="fill: #1f77b4; stroke: #1f77b4"/>
     <use xlink:href="#maea1cc5852" x="347.490545" y="43.488" style="fill: #1f77b4; stroke: #1f77b4"/>
     <use xlink:href="#maea1cc5852" x="350.769884" y="43.488" style="fill: #1f77b4; stroke: #1f77b4"/>
     <use xlink:href="#maea1cc5852" x="354.049223" y="43.488" style="fill: #1f77b4; stroke: #1f77b4"/>
     <use xlink:href="#maea1cc5852" x="357.328562" y="43.488" style="fill: #1f77b4; stroke: #1f77b4"/>
     <use xlink:href="#maea1cc5852" x="360.607901" y="19.296" style="fill: #1f77b4; stroke: #1f77b4"/>
     <use xlink:href="#maea1cc5852" x="363.88724" y="19.296" style="fill: #1f77b4; stroke: #1f77b4"/>
     <use xlink:href="#maea1cc5852" x="367.166579" y="19.296" style="fill: #1f77b4; stroke: #1f77b4"/>
     <use xlink:href="#maea1cc5852" x="370.445917" y="19.296" style="fill: #1f77b4; stroke: #1f77b4"/>
     <use xlink:href="#maea1cc5852" x="373.725256" y="19.296" style="fill: #1f77b4; stroke: #1f77b4"/>
     <use xlink:href="#maea1cc5852" x="377.004595" y="19.296" style="fill: #1f77b4; stroke: #1f77b4"/>
     <use xlink:href="#maea1cc5852" x="380.283934" y="19.296" style="fill: #1f77b4; stroke: #1f77b4"/>
     <use xlink:href="#maea1cc5852" x="383.563273" y="19.296" style="fill: #1f77b4; stroke: #1f77b4"/>
    </g>
   </g>
   <g id="line2d_17">
    <path d="M 58.908727 261.216 
L 62.188066 220.0896 
L 65.467405 207.9936 
L 68.746744 193.4784 
L 72.026083 186.2208 
L 75.305421 186.2208 
L 78.58476 174.1248 
L 81.864099 174.1248 
L 85.143438 171.7056 
L 88.422777 166.8672 
L 91.702116 159.6096 
L 94.981455 154.7712 
L 98.260793 149.9328 
L 101.540132 147.5136 
L 104.819471 145.0944 
L 108.09881 137.8368 
L 111.378149 137.8368 
L 114.657488 135.4176 
L 117.936826 132.9984 
L 121.216165 123.3216 
L 124.495504 120.9024 
L 127.774843 118.4832 
L 131.054182 116.064 
L 134.333521 116.064 
L 137.61286 113.6448 
L 140.892198 113.6448 
L 144.171537 111.2256 
L 147.450876 111.2256 
L 150.730215 108.8064 
L 154.009554 103.968 
L 157.288893 99.1296 
L 160.568231 96.7104 
L 163.84757 96.7104 
L 167.126909 96.7104 
L 170.406248 91.872 
L 173.685587 91.872 
L 176.964926 89.4528 
L 180.244264 89.4528 
L 183.523603 87.0336 
L 186.802942 87.0336 
L 190.082281 84.6144 
L 193.36162 84.6144 
L 196.640959 82.1952 
L 199.920298 82.1952 
L 203.199636 82.1952 
L 206.478975 79.776 
L 209.758314 79.776 
L 213.037653 77.3568 
L 216.316992 74.9376 
L 219.596331 74.9376 
L 222.875669 74.9376 
L 226.155008 74.9376 
L 229.434347 74.9376 
L 232.713686 72.5184 
L 235.993025 72.5184 
L 239.272364 72.5184 
L 242.551702 72.5184 
L 245.831041 72.5184 
L 249.11038 72.5184 
L 252.389719 70.0992 
L 255.669058 65.2608 
L 258.948397 62.8416 
L 262.227736 58.0032 
L 265.507074 55.584 
L 268.786413 53.1648 
L 272.065752 50.7456 
L 275.345091 45.9072 
L 278.62443 45.9072 
L 281.903769 45.9072 
L 285.183107 43.488 
L 288.462446 41.0688 
L 291.741785 38.6496 
L 295.021124 38.6496 
L 298.300463 38.6496 
L 301.579802 38.6496 
L 304.85914 38.6496 
L 308.138479 38.6496 
L 311.417818 38.6496 
L 314.697157 36.2304 
L 317.976496 36.2304 
L 321.255835 36.2304 
L 324.535174 36.2304 
L 327.814512 33.8112 
L 331.093851 33.8112 
L 334.37319 33.8112 
L 337.652529 33.8112 
L 340.931868 33.8112 
L 344.211207 33.8112 
L 347.490545 33.8112 
L 350.769884 33.8112 
L 354.049223 33.8112 
L 357.328562 33.8112 
L 360.607901 31.392 
L 363.88724 31.392 
L 367.166579 28.9728 
L 370.445917 28.9728 
L 373.725256 28.9728 
L 377.004595 28.9728 
L 380.283934 26.5536 
L 383.563273 19.296 
" clip-path="url(#peeb59f40c8)" style="fill: none; stroke-dasharray: 4.44,1.92; stroke-dashoffset: 0; stroke: #ff7f0e; stroke-width: 1.2"/>
   </g>
   <g id="line2d_18">
    <path d="M 58.908727 261.191808 
L 62.188066 215.37216 
L 65.467405 204.24384 
L 68.746744 195.2928 
L 72.026083 186.607872 
L 75.305421 178.576128 
L 78.58476 169.16544 
L 81.864099 165.6576 
L 85.143438 161.690112 
L 88.422777 158.76288 
L 91.702116 155.085696 
L 94.981455 152.037504 
L 98.260793 149.08608 
L 101.540132 146.66688 
L 104.819471 143.957376 
L 108.09881 140.8608 
L 111.378149 138.659328 
L 114.657488 136.046592 
L 117.936826 133.627392 
L 121.216165 131.038848 
L 124.495504 128.52288 
L 127.774843 125.934336 
L 131.054182 123.515136 
L 134.333521 121.120128 
L 137.61286 118.459008 
L 140.892198 115.604352 
L 144.171537 112.483584 
L 147.450876 109.096704 
L 150.730215 105.54048 
L 154.009554 101.282688 
L 157.288893 94.605696 
L 160.568231 90.130176 
L 163.84757 88.993152 
L 167.126909 87.807744 
L 170.406248 86.622336 
L 173.685587 85.727232 
L 176.964926 84.711168 
L 180.244264 83.64672 
L 183.523603 82.461312 
L 186.802942 81.372672 
L 190.082281 80.308224 
L 193.36162 79.267968 
L 196.640959 78.421248 
L 199.920298 77.139072 
L 203.199636 76.171392 
L 206.478975 75.034368 
L 209.758314 73.945728 
L 213.037653 73.074816 
L 216.316992 72.27648 
L 219.596331 70.970112 
L 222.875669 70.0992 
L 226.155008 68.744448 
L 229.434347 67.341312 
L 232.713686 66.083328 
L 235.993025 65.13984 
L 239.272364 64.0512 
L 242.551702 62.672256 
L 245.831041 61.39008 
L 249.11038 59.769216 
L 252.389719 58.220928 
L 255.669058 56.987136 
L 258.948397 55.124352 
L 262.227736 53.600256 
L 265.507074 52.148736 
L 268.786413 50.62464 
L 272.065752 48.955392 
L 275.345091 47.1168 
L 278.62443 44.891136 
L 281.903769 42.133248 
L 285.183107 37.488384 
L 288.462446 34.827264 
L 291.741785 34.561152 
L 295.021124 34.198272 
L 298.300463 33.762816 
L 301.579802 33.44832 
L 304.85914 33.08544 
L 308.138479 32.577408 
L 311.417818 32.141952 
L 314.697157 31.585536 
L 317.976496 31.319424 
L 321.255835 31.02912 
L 324.535174 30.569472 
L 327.814512 30.1824 
L 331.093851 29.81952 
L 334.37319 29.359872 
L 337.652529 29.045376 
L 340.931868 28.537344 
L 344.211207 28.00512 
L 347.490545 27.64224 
L 350.769884 27.230976 
L 354.049223 26.5536 
L 357.328562 26.214912 
L 360.607901 25.803648 
L 363.88724 25.247232 
L 367.166579 24.521472 
L 370.445917 24.061824 
L 373.725256 23.384448 
L 377.004595 22.586112 
L 380.283934 21.739392 
L 383.563273 19.296 
" clip-path="url(#peeb59f40c8)" style="fill: none; stroke: #2ca02c; stroke-width: 1.2; stroke-linecap: round"/>
   </g>
   <g id="patch_3">
    <path d="M 42.676 261.216 
L 42.676 19.296 
" style="fill: none; stroke: #262626; stroke-linejoin: miter; stroke-linecap: square"/>
   </g>
   <g id="patch_4">
    <path d="M 58.908727 273.312 
L 397.748536 273.312 
" style="fill: none; stroke: #262626; stroke-linejoin: miter; stroke-linecap: square"/>
   </g>
   <g id="legend_1">
    <g id="line2d_19">
     <path d="M 50.596 18.338875 
L 59.396 18.338875 
L 68.196 18.338875 
" style="fill: none; stroke: #1f77b4; stroke-width: 1.2; stroke-linecap: round"/>
     <g>
      <use xlink:href="#maea1cc5852" x="59.396" y="18.338875" style="fill: #1f77b4; stroke: #1f77b4"/>
     </g>
    </g>
    <g id="text_18">
     <!-- $N=10$ -->
     <g style="fill: #262626" transform="translate(75.236 21.418875) scale(0.088 -0.088)">
      <defs>
       <path id="DejaVuSans-3d" d="M 678 2906 
L 4684 2906 
L 4684 2381 
L 678 2381 
L 678 2906 
z
M 678 1631 
L 4684 1631 
L 4684 1100 
L 678 1100 
L 678 1631 
z
" transform="scale(0.015625)"/>
       <path id="DejaVuSans-31" d="M 794 531 
L 1825 531 
L 1825 4091 
L 703 3866 
L 703 4441 
L 1819 4666 
L 2450 4666 
L 2450 531 
L 3481 531 
L 3481 0 
L 794 0 
L 794 531 
z
" transform="scale(0.015625)"/>
       <path id="DejaVuSans-30" d="M 2034 4250 
Q 1547 4250 1301 3770 
Q 1056 3291 1056 2328 
Q 1056 1369 1301 889 
Q 1547 409 2034 409 
Q 2525 409 2770 889 
Q 3016 1369 3016 2328 
Q 3016 3291 2770 3770 
Q 2525 4250 2034 4250 
z
M 2034 4750 
Q 2819 4750 3233 4129 
Q 3647 3509 3647 2328 
Q 3647 1150 3233 529 
Q 2819 -91 2034 -91 
Q 1250 -91 836 529 
Q 422 1150 422 2328 
Q 422 3509 836 4129 
Q 1250 4750 2034 4750 
z
" transform="scale(0.015625)"/>
      </defs>
      <use xlink:href="#DejaVuSans-Oblique-4e" transform="translate(0 0.78125)"/>
      <use xlink:href="#DejaVuSans-3d" transform="translate(94.287109 0.78125)"/>
      <use xlink:href="#DejaVuSans-31" transform="translate(197.558594 0.78125)"/>
      <use xlink:href="#DejaVuSans-30" transform="translate(261.181641 0.78125)"/>
     </g>
    </g>
    <g id="line2d_20">
     <path d="M 50.596 30.78675 
L 59.396 30.78675 
L 68.196 30.78675 
" style="fill: none; stroke-dasharray: 4.44,1.92; stroke-dashoffset: 0; stroke: #ff7f0e; stroke-width: 1.2"/>
    </g>
    <g id="text_19">
     <!-- $N=100$ -->
     <g style="fill: #262626" transform="translate(75.236 33.86675) scale(0.088 -0.088)">
      <use xlink:href="#DejaVuSans-Oblique-4e" transform="translate(0 0.78125)"/>
      <use xlink:href="#DejaVuSans-3d" transform="translate(94.287109 0.78125)"/>
      <use xlink:href="#DejaVuSans-31" transform="translate(197.558594 0.78125)"/>
      <use xlink:href="#DejaVuSans-30" transform="translate(261.181641 0.78125)"/>
      <use xlink:href="#DejaVuSans-30" transform="translate(324.804688 0.78125)"/>
     </g>
    </g>
    <g id="line2d_21">
     <path d="M 50.596 43.234625 
L 59.396 43.234625 
L 68.196 43.234625 
" style="fill: none; stroke: #2ca02c; stroke-width: 1.2; stroke-linecap: round"/>
    </g>
    <g id="text_20">
     <!-- $N=10000$ -->
     <g style="fill: #262626" transform="translate(75.236 46.314625) scale(0.088 -0.088)">
      <use xlink:href="#DejaVuSans-Oblique-4e" transform="translate(0 0.78125)"/>
      <use xlink:href="#DejaVuSans-3d" transform="translate(94.287109 0.78125)"/>
      <use xlink:href="#DejaVuSans-31" transform="translate(197.558594 0.78125)"/>
      <use xlink:href="#DejaVuSans-30" transform="translate(261.181641 0.78125)"/>
      <use xlink:href="#DejaVuSans-30" transform="translate(324.804688 0.78125)"/>
      <use xlink:href="#DejaVuSans-30" transform="translate(388.427734 0.78125)"/>
      <use xlink:href="#DejaVuSans-30" transform="translate(452.050781 0.78125)"/>
     </g>
    </g>
   </g>
  </g>
 </g>
 <defs>
  <clipPath id="peeb59f40c8">
   <rect x="42.676" y="7.2" width="357.12" height="266.112"/>
  </clipPath>
 </defs>
</svg>