<?xml version="1.0" encoding="utf-8" standalone="no"?>
<!DOCTYPE svg PUBLIC "-//W3C//DTD SVG 1.1//EN"
  "http://www.w3.org/Graphics/SVG/1.1/DTD/svg11.dtd">
<svg xmlns:xlink="http://www.w3.org/1999/xlink" width="402.632875pt" height="309.639375pt" viewBox="0 0 402.632875 309.639375" xmlns="http://www.w3.org/2000/svg" version="1.1">
 <metadata>
  <rdf:RDF xmlns:dc="http://purl.org/dc/elements/1.1/" xmlns:cc="http://creativecommons.org/ns#" xmlns:rdf="http://www.w3.org/1999/02/22-rdf-syntax-ns#">
   <cc:Work>
    <dc:type rdf:resource="http://purl.org/dc/dcmitype/StillImage"/>
    <dc:date>2023-10-23T15:22:29.653318</dc:date>
    <dc:format>image/svg+xml</dc:format>
    <dc:creator>
     <cc:Agent>
      <dc:title>Matplotlib v3.8.0, https://matplotlib.org/</dc:title>
     </cc:Agent>
    </dc:creator>
   </cc:Work>
  </rdf:RDF>
 </metadata>
 <defs>
  <style type="text/css">*{stroke-linejoin: round; stroke-linecap: butt}</style>
 </defs>
 <g id="figure_1">
  <g id="patch_1">
   <path d="M 0 309.639375 
L 402.632875 309.639375 
L 402.632875 0 
L 0 0 
z
" style="fill: #ffffff"/>
  </g>
  <g id="axes_1">
   <g id="patch_2">
    <path d="M 38.312875 273.312 
L 395.432875 273.312 
L 395.432875 7.2 
L 38.312875 7.2 
z
" style="fill: #ffffff"/>
   </g>
   <g id="matplotlib.axis_1">
    <g id="xtick_1">
     <g id="line2d_1">
      <defs>
       <path id="m78c469a5cc" d="M 0 0 
L 0 4.8 
" style="stroke: #262626"/>
      </defs>
      <g>
       <use xlink:href="#m78c469a5cc" x="54.545602" y="273.312" style="fill: #262626; stroke: #262626"/>
      </g>
     </g>
     <g id="text_1">
      <!-- 0.0 -->
      <g style="fill: #262626" transform="translate(48.429602 287.910875) scale(0.088 -0.088)">
       <defs>
        <path id="ArialMT-30" d="M 266 2259 
Q 266 3072 433 3567 
Q 600 4063 929 4331 
Q 1259 4600 1759 4600 
Q 2128 4600 2406 4451 
Q 2684 4303 2865 4023 
Q 3047 3744 3150 3342 
Q 3253 2941 3253 2259 
Q 3253 1453 3087 958 
Q 2922 463 2592 192 
Q 2263 -78 1759 -78 
Q 1097 -78 719 397 
Q 266 969 266 2259 
z
M 844 2259 
Q 844 1131 1108 757 
Q 1372 384 1759 384 
Q 2147 384 2411 759 
Q 2675 1134 2675 2259 
Q 2675 3391 2411 3762 
Q 2147 4134 1753 4134 
Q 1366 4134 1134 3806 
Q 844 3388 844 2259 
z
" transform="scale(0.015625)"/>
        <path id="ArialMT-2e" d="M 581 0 
L 581 641 
L 1222 641 
L 1222 0 
L 581 0 
z
" transform="scale(0.015625)"/>
       </defs>
       <use xlink:href="#ArialMT-30"/>
       <use xlink:href="#ArialMT-2e" x="55.615234"/>
       <use xlink:href="#ArialMT-30" x="83.398438"/>
      </g>
     </g>
    </g>
    <g id="xtick_2">
     <g id="line2d_2">
      <g>
       <use xlink:href="#m78c469a5cc" x="119.476511" y="273.312" style="fill: #262626; stroke: #262626"/>
      </g>
     </g>
     <g id="text_2">
      <!-- 0.2 -->
      <g style="fill: #262626" transform="translate(113.360511 287.910875) scale(0.088 -0.088)">
       <defs>
        <path id="ArialMT-32" d="M 3222 541 
L 3222 0 
L 194 0 
Q 188 203 259 391 
Q 375 700 629 1000 
Q 884 1300 1366 1694 
Q 2113 2306 2375 2664 
Q 2638 3022 2638 3341 
Q 2638 3675 2398 3904 
Q 2159 4134 1775 4134 
Q 1369 4134 1125 3890 
Q 881 3647 878 3216 
L 300 3275 
Q 359 3922 746 4261 
Q 1134 4600 1788 4600 
Q 2447 4600 2831 4234 
Q 3216 3869 3216 3328 
Q 3216 3053 3103 2787 
Q 2991 2522 2730 2228 
Q 2469 1934 1863 1422 
Q 1356 997 1212 845 
Q 1069 694 975 541 
L 3222 541 
z
" transform="scale(0.015625)"/>
       </defs>
       <use xlink:href="#ArialMT-30"/>
       <use xlink:href="#ArialMT-2e" x="55.615234"/>
       <use xlink:href="#ArialMT-32" x="83.398438"/>
      </g>
     </g>
    </g>
    <g id="xtick_3">
     <g id="line2d_3">
      <g>
       <use xlink:href="#m78c469a5cc" x="184.40742" y="273.312" style="fill: #262626; stroke: #262626"/>
      </g>
     </g>
     <g id="text_3">
      <!-- 0.4 -->
      <g style="fill: #262626" transform="translate(178.29142 287.910875) scale(0.088 -0.088)">
       <defs>
        <path id="ArialMT-34" d="M 2069 0 
L 2069 1097 
L 81 1097 
L 81 1613 
L 2172 4581 
L 2631 4581 
L 2631 1613 
L 3250 1613 
L 3250 1097 
L 2631 1097 
L 2631 0 
L 2069 0 
z
M 2069 1613 
L 2069 3678 
L 634 1613 
L 2069 1613 
z
" transform="scale(0.015625)"/>
       </defs>
       <use xlink:href="#ArialMT-30"/>
       <use xlink:href="#ArialMT-2e" x="55.615234"/>
       <use xlink:href="#ArialMT-34" x="83.398438"/>
      </g>
     </g>
    </g>
    <g id="xtick_4">
     <g id="line2d_4">
      <g>
       <use xlink:href="#m78c469a5cc" x="249.33833" y="273.312" style="fill: #262626; stroke: #262626"/>
      </g>
     </g>
     <g id="text_4">
      <!-- 0.6 -->
      <g style="fill: #262626" transform="translate(243.22233 287.910875) scale(0.088 -0.088)">
       <defs>
        <path id="ArialMT-36" d="M 3184 3459 
L 2625 3416 
Q 2550 3747 2413 3897 
Q 2184 4138 1850 4138 
Q 1581 4138 1378 3988 
Q 1113 3794 959 3422 
Q 806 3050 800 2363 
Q 1003 2672 1297 2822 
Q 1591 2972 1913 2972 
Q 2475 2972 2870 2558 
Q 3266 2144 3266 1488 
Q 3266 1056 3080 686 
Q 2894 316 2569 119 
Q 2244 -78 1831 -78 
Q 1128 -78 684 439 
Q 241 956 241 2144 
Q 241 3472 731 4075 
Q 1159 4600 1884 4600 
Q 2425 4600 2770 4297 
Q 3116 3994 3184 3459 
z
M 888 1484 
Q 888 1194 1011 928 
Q 1134 663 1356 523 
Q 1578 384 1822 384 
Q 2178 384 2434 671 
Q 2691 959 2691 1453 
Q 2691 1928 2437 2201 
Q 2184 2475 1800 2475 
Q 1419 2475 1153 2201 
Q 888 1928 888 1484 
z
" transform="scale(0.015625)"/>
       </defs>
       <use xlink:href="#ArialMT-30"/>
       <use xlink:href="#ArialMT-2e" x="55.615234"/>
       <use xlink:href="#ArialMT-36" x="83.398438"/>
      </g>
     </g>
    </g>
    <g id="xtick_5">
     <g id="line2d_5">
      <g>
       <use xlink:href="#m78c469a5cc" x="314.269239" y="273.312" style="fill: #262626; stroke: #262626"/>
      </g>
     </g>
     <g id="text_5">
      <!-- 0.8 -->
      <g style="fill: #262626" transform="translate(308.153239 287.910875) scale(0.088 -0.088)">
       <defs>
        <path id="ArialMT-38" d="M 1131 2484 
Q 781 2613 612 2850 
Q 444 3088 444 3419 
Q 444 3919 803 4259 
Q 1163 4600 1759 4600 
Q 2359 4600 2725 4251 
Q 3091 3903 3091 3403 
Q 3091 3084 2923 2848 
Q 2756 2613 2416 2484 
Q 2838 2347 3058 2040 
Q 3278 1734 3278 1309 
Q 3278 722 2862 322 
Q 2447 -78 1769 -78 
Q 1091 -78 675 323 
Q 259 725 259 1325 
Q 259 1772 486 2073 
Q 713 2375 1131 2484 
z
M 1019 3438 
Q 1019 3113 1228 2906 
Q 1438 2700 1772 2700 
Q 2097 2700 2305 2904 
Q 2513 3109 2513 3406 
Q 2513 3716 2298 3927 
Q 2084 4138 1766 4138 
Q 1444 4138 1231 3931 
Q 1019 3725 1019 3438 
z
M 838 1322 
Q 838 1081 952 856 
Q 1066 631 1291 507 
Q 1516 384 1775 384 
Q 2178 384 2440 643 
Q 2703 903 2703 1303 
Q 2703 1709 2433 1975 
Q 2163 2241 1756 2241 
Q 1359 2241 1098 1978 
Q 838 1716 838 1322 
z
" transform="scale(0.015625)"/>
       </defs>
       <use xlink:href="#ArialMT-30"/>
       <use xlink:href="#ArialMT-2e" x="55.615234"/>
       <use xlink:href="#ArialMT-38" x="83.398438"/>
      </g>
     </g>
    </g>
    <g id="xtick_6">
     <g id="line2d_6">
      <g>
       <use xlink:href="#m78c469a5cc" x="379.200148" y="273.312" style="fill: #262626; stroke: #262626"/>
      </g>
     </g>
     <g id="text_6">
      <!-- 1.0 -->
      <g style="fill: #262626" transform="translate(373.084148 287.910875) scale(0.088 -0.088)">
       <defs>
        <path id="ArialMT-31" d="M 2384 0 
L 1822 0 
L 1822 3584 
Q 1619 3391 1289 3197 
Q 959 3003 697 2906 
L 697 3450 
Q 1169 3672 1522 3987 
Q 1875 4303 2022 4600 
L 2384 4600 
L 2384 0 
z
" transform="scale(0.015625)"/>
       </defs>
       <use xlink:href="#ArialMT-31"/>
       <use xlink:href="#ArialMT-2e" x="55.615234"/>
       <use xlink:href="#ArialMT-30" x="83.398438"/>
      </g>
     </g>
    </g>
    <g id="text_7">
     <!-- $x$ -->
     <g style="fill: #262626" transform="translate(213.992875 300.531375) scale(0.096 -0.096)">
      <defs>
       <path id="DejaVuSans-Oblique-78" d="M 3841 3500 
L 2234 1784 
L 3219 0 
L 2559 0 
L 1819 1388 
L 531 0 
L -166 0 
L 1556 1844 
L 641 3500 
L 1300 3500 
L 1972 2234 
L 3144 3500 
L 3841 3500 
z
" transform="scale(0.015625)"/>
      </defs>
      <use xlink:href="#DejaVuSans-Oblique-78" transform="translate(0 0.3125)"/>
     </g>
    </g>
   </g>
   <g id="matplotlib.axis_2">
    <g id="ytick_1">
     <g id="line2d_7">
      <defs>
       <path id="m867b73d0e9" d="M 0 0 
L -4.8 0 
" style="stroke: #262626"/>
      </defs>
      <g>
       <use xlink:href="#m867b73d0e9" x="38.312875" y="261.272337" style="fill: #262626; stroke: #262626"/>
      </g>
     </g>
     <g id="text_8">
      <!-- −8 -->
      <g style="fill: #262626" transform="translate(19.9795 264.421775) scale(0.088 -0.088)">
       <defs>
        <path id="ArialMT-2212" d="M 3381 1997 
L 356 1997 
L 356 2522 
L 3381 2522 
L 3381 1997 
z
" transform="scale(0.015625)"/>
       </defs>
       <use xlink:href="#ArialMT-2212"/>
       <use xlink:href="#ArialMT-38" x="58.398438"/>
      </g>
     </g>
    </g>
    <g id="ytick_2">
     <g id="line2d_8">
      <g>
       <use xlink:href="#m867b73d0e9" x="38.312875" y="221.411408" style="fill: #262626; stroke: #262626"/>
      </g>
     </g>
     <g id="text_9">
      <!-- −6 -->
      <g style="fill: #262626" transform="translate(19.9795 224.560845) scale(0.088 -0.088)">
       <use xlink:href="#ArialMT-2212"/>
       <use xlink:href="#ArialMT-36" x="58.398438"/>
      </g>
     </g>
    </g>
    <g id="ytick_3">
     <g id="line2d_9">
      <g>
       <use xlink:href="#m867b73d0e9" x="38.312875" y="181.550479" style="fill: #262626; stroke: #262626"/>
      </g>
     </g>
     <g id="text_10">
      <!-- −4 -->
      <g style="fill: #262626" transform="translate(19.9795 184.699916) scale(0.088 -0.088)">
       <use xlink:href="#ArialMT-2212"/>
       <use xlink:href="#ArialMT-34" x="58.398438"/>
      </g>
     </g>
    </g>
    <g id="ytick_4">
     <g id="line2d_10">
      <g>
       <use xlink:href="#m867b73d0e9" x="38.312875" y="141.689549" style="fill: #262626; stroke: #262626"/>
      </g>
     </g>
     <g id="text_11">
      <!-- −2 -->
      <g style="fill: #262626" transform="translate(19.9795 144.838987) scale(0.088 -0.088)">
       <use xlink:href="#ArialMT-2212"/>
       <use xlink:href="#ArialMT-32" x="58.398438"/>
      </g>
     </g>
    </g>
    <g id="ytick_5">
     <g id="line2d_11">
      <g>
       <use xlink:href="#m867b73d0e9" x="38.312875" y="101.82862" style="fill: #262626; stroke: #262626"/>
      </g>
     </g>
     <g id="text_12">
      <!-- 0 -->
      <g style="fill: #262626" transform="translate(25.11925 104.978058) scale(0.088 -0.088)">
       <use xlink:href="#ArialMT-30"/>
      </g>
     </g>
    </g>
    <g id="ytick_6">
     <g id="line2d_12">
      <g>
       <use xlink:href="#m867b73d0e9" x="38.312875" y="61.967691" style="fill: #262626; stroke: #262626"/>
      </g>
     </g>
     <g id="text_13">
      <!-- 2 -->
      <g style="fill: #262626" transform="translate(25.11925 65.117128) scale(0.088 -0.088)">
       <use xlink:href="#ArialMT-32"/>
      </g>
     </g>
    </g>
    <g id="ytick_7">
     <g id="line2d_13">
      <g>
       <use xlink:href="#m867b73d0e9" x="38.312875" y="22.106762" style="fill: #262626; stroke: #262626"/>
      </g>
     </g>
     <g id="text_14">
      <!-- 4 -->
      <g style="fill: #262626" transform="translate(25.11925 25.256199) scale(0.088 -0.088)">
       <use xlink:href="#ArialMT-34"/>
      </g>
     </g>
    </g>
    <g id="text_15">
     <!-- $y$ -->
     <g style="fill: #262626" transform="translate(13.9635 143.136) rotate(-90) scale(0.096 -0.096)">
      <defs>
       <path id="DejaVuSans-Oblique-79" d="M 1588 -325 
Q 1188 -997 936 -1164 
Q 684 -1331 294 -1331 
L -159 -1331 
L -63 -850 
L 269 -850 
Q 509 -850 678 -719 
Q 847 -588 1056 -206 
L 1234 128 
L 459 3500 
L 1069 3500 
L 1650 819 
L 3256 3500 
L 3859 3500 
L 1588 -325 
z
" transform="scale(0.015625)"/>
      </defs>
      <use xlink:href="#DejaVuSans-Oblique-79" transform="translate(0 0.3125)"/>
     </g>
    </g>
   </g>
   <g id="PolyCollection_1">
    <defs>
     <path id="m0fc782afd2" d="M 54.545602 -273.695767 
L 54.545602 -135.679995 
L 57.824941 -137.259258 
L 61.10428 -139.032813 
L 64.383619 -141.001656 
L 67.662958 -143.162192 
L 70.942296 -145.505586 
L 74.221636 -148.017256 
L 77.500973 -150.676288 
L 80.780313 -153.454985 
L 84.059653 -156.318681 
L 87.33899 -159.225196 
L 90.61833 -162.125063 
L 93.89767 -164.961713 
L 97.177007 -167.67243 
L 100.456344 -170.190838 
L 103.735686 -172.450555 
L 107.015024 -174.392178 
L 110.294361 -175.972862 
L 113.573703 -177.176332 
L 116.853041 -178.020918 
L 120.132378 -178.558655 
L 123.41172 -178.866438 
L 126.691057 -179.030363 
L 129.970395 -179.130296 
L 133.249737 -179.227261 
L 136.529069 -179.356752 
L 139.808412 -179.524775 
L 143.087754 -179.707736 
L 146.367086 -179.85401 
L 149.646428 -179.889247 
L 152.92577 -179.725745 
L 156.205103 -179.276979 
L 159.484445 -178.473538 
L 162.763787 -177.276676 
L 166.04312 -175.683193 
L 169.322462 -173.721921 
L 172.601804 -171.444009 
L 175.881137 -168.912838 
L 179.160479 -166.195582 
L 182.439821 -163.357759 
L 185.719153 -160.460235 
L 188.998496 -157.557459 
L 192.277838 -154.696956 
L 195.55717 -151.919043 
L 198.836512 -149.25697 
L 202.115855 -146.737161 
L 205.395187 -144.379592 
L 208.674529 -142.198182 
L 211.953871 -140.201374 
L 215.233204 -138.392642 
L 218.512556 -136.771163 
L 221.791879 -135.332496 
L 225.071221 -134.06918 
L 228.350563 -132.971525 
L 231.629886 -132.028266 
L 234.909247 -131.227185 
L 238.18857 -130.555804 
L 241.467912 -130.001897 
L 244.747254 -129.554045 
L 248.026597 -129.20208 
L 251.305939 -128.937481 
L 254.585262 -128.75362 
L 257.864623 -128.646082 
L 261.143946 -128.612772 
L 264.423288 -128.654008 
L 267.70263 -128.772561 
L 270.981953 -128.973552 
L 274.261315 -129.264381 
L 277.540637 -129.654503 
L 280.81998 -130.155171 
L 284.099322 -130.779129 
L 287.378664 -131.540228 
L 290.658006 -132.452976 
L 293.937329 -133.532047 
L 297.21669 -134.791776 
L 300.496013 -136.245458 
L 303.775355 -137.90488 
L 307.054697 -139.779495 
L 310.33402 -141.875787 
L 313.613382 -144.196472 
L 316.892705 -146.739632 
L 320.172047 -149.497715 
L 323.451389 -152.456405 
L 326.730731 -155.59293 
L 330.010073 -158.87411 
L 333.289396 -162.253324 
L 336.568738 -165.666185 
L 339.84808 -169.024477 
L 343.127423 -172.207496 
L 346.406765 -175.053946 
L 349.686088 -177.358929 
L 352.96543 -178.891682 
L 356.244772 -179.452902 
L 359.524114 -178.958457 
L 362.803456 -177.482802 
L 366.082798 -175.220625 
L 369.362141 -172.402431 
L 372.641463 -169.235801 
L 375.920806 -165.885186 
L 379.200148 -162.473142 
L 379.200148 -245.409047 
L 379.200148 -245.409047 
L 375.920806 -241.766612 
L 372.641463 -238.21588 
L 369.362141 -234.881986 
L 366.082798 -231.931583 
L 362.803456 -229.57401 
L 359.524114 -228.041029 
L 356.244772 -227.528123 
L 352.96543 -228.109966 
L 349.686088 -229.70214 
L 346.406765 -232.10452 
L 343.127423 -235.084994 
L 339.84808 -238.436864 
L 336.568738 -241.996577 
L 333.289396 -245.640773 
L 330.010073 -249.278237 
L 326.730731 -252.841312 
L 323.451389 -256.27989 
L 320.172047 -259.557149 
L 316.892705 -262.646604 
L 313.613382 -265.530191 
L 310.33402 -268.196674 
L 307.054697 -270.640531 
L 303.775355 -272.861029 
L 300.496013 -274.861411 
L 297.21669 -276.64808 
L 293.937329 -278.230066 
L 290.658006 -279.618136 
L 287.378664 -280.824393 
L 284.099322 -281.861543 
L 280.81998 -282.742431 
L 277.540637 -283.479443 
L 274.261315 -284.084147 
L 270.981953 -284.566815 
L 267.70263 -284.936096 
L 264.423288 -285.198751 
L 261.143946 -285.359409 
L 257.864623 -285.420413 
L 254.585262 -285.381748 
L 251.305939 -285.241033 
L 248.026597 -284.993569 
L 244.747254 -284.63249 
L 241.467912 -284.148999 
L 238.18857 -283.532644 
L 234.909247 -282.771711 
L 231.629886 -281.853669 
L 228.350563 -280.765727 
L 225.071221 -279.495364 
L 221.791879 -278.031037 
L 218.512556 -276.362849 
L 215.233204 -274.483216 
L 211.953871 -272.387675 
L 208.674529 -270.075538 
L 205.395187 -267.550611 
L 202.115855 -264.821889 
L 198.836512 -261.904088 
L 195.55717 -258.818307 
L 192.277838 -255.592405 
L 188.998496 -252.261408 
L 185.719153 -248.86781 
L 182.439821 -245.461675 
L 179.160479 -242.100411 
L 175.881137 -238.848217 
L 172.601804 -235.774339 
L 169.322462 -232.950033 
L 166.04312 -230.443084 
L 162.763787 -228.309332 
L 159.484445 -226.582521 
L 156.205103 -225.264533 
L 152.92577 -224.321794 
L 149.646428 -223.690072 
L 146.367086 -223.28796 
L 143.087754 -223.032703 
L 139.808412 -222.854655 
L 136.529069 -222.706551 
L 133.249737 -222.568731 
L 129.970395 -222.450625 
L 126.691057 -222.390584 
L 123.41172 -222.451841 
L 120.132378 -222.715775 
L 116.853041 -223.269283 
L 113.573703 -224.189299 
L 110.294361 -225.527139 
L 107.015024 -227.299688 
L 103.735686 -229.488489 
L 100.456344 -232.04785 
L 97.177007 -234.914892 
L 93.89767 -238.019205 
L 90.61833 -241.289921 
L 87.33899 -244.659442 
L 84.059653 -248.066007 
L 80.780313 -251.454777 
L 77.500973 -254.778095 
L 74.221636 -257.995834 
L 70.942296 -261.074896 
L 67.662958 -263.98917 
L 64.383619 -266.719104 
L 61.10428 -269.251244 
L 57.824941 -271.577746 
L 54.545602 -273.695767 
z
" style="stroke: #1f77b4; stroke-opacity: 0.5; stroke-width: 0.8"/>
    </defs>
    <g clip-path="url(#pd1488a2888)">
     <use xlink:href="#m0fc782afd2" x="0" y="309.639375" style="fill: #1f77b4; fill-opacity: 0.5; stroke: #1f77b4; stroke-opacity: 0.5; stroke-width: 0.8"/>
    </g>
   </g>
   <g id="PolyCollection_2">
    <defs>
     <path id="m45dcf62b24" d="M 54.545602 -135.679995 
L 54.545602 -131.219206 
L 57.824941 -132.683419 
L 61.10428 -134.322493 
L 64.383619 -136.134632 
L 67.662958 -138.113117 
L 70.942296 -140.245622 
L 74.221636 -142.513739 
L 77.500973 -144.892482 
L 80.780313 -147.350009 
L 84.059653 -149.847808 
L 87.33899 -152.340808 
L 90.61833 -154.778549 
L 93.89767 -157.106823 
L 97.177007 -159.270519 
L 100.456344 -161.217837 
L 103.735686 -162.905246 
L 107.015024 -164.303376 
L 110.294361 -165.402242 
L 113.573703 -166.21381 
L 116.853041 -166.771642 
L 120.132378 -167.125722 
L 123.41172 -167.335281 
L 126.691057 -167.460144 
L 129.970395 -167.553127 
L 133.249737 -167.653775 
L 136.529069 -167.784715 
L 139.808412 -167.94927 
L 143.087754 -168.131377 
L 146.367086 -168.296604 
L 149.646428 -168.395263 
L 152.92577 -168.36728 
L 156.205103 -168.149337 
L 159.484445 -167.683003 
L 162.763787 -166.923229 
L 166.04312 -165.84461 
L 169.322462 -164.444466 
L 172.601804 -162.741642 
L 175.881137 -160.772561 
L 179.160479 -158.585476 
L 182.439821 -156.234821 
L 185.719153 -153.776576 
L 188.998496 -151.264612 
L 192.277838 -148.74849 
L 195.55717 -146.27197 
L 198.836512 -143.872338 
L 202.115855 -141.580159 
L 205.395187 -139.419385 
L 208.674529 -137.407595 
L 211.953871 -135.556543 
L 215.233204 -133.87266 
L 218.512556 -132.357727 
L 221.791879 -131.009605 
L 225.071221 -129.822854 
L 228.350563 -128.789572 
L 231.629886 -127.900022 
L 234.909247 -127.143375 
L 238.18857 -126.508288 
L 241.467912 -125.983586 
L 244.747254 -125.55869 
L 248.026597 -125.224116 
L 251.305939 -124.97191 
L 254.585262 -124.795875 
L 257.864623 -124.691849 
L 261.143946 -124.657883 
L 264.423288 -124.694263 
L 267.70263 -124.803611 
L 270.981953 -124.990756 
L 274.261315 -125.262672 
L 277.540637 -125.628199 
L 280.81998 -126.097847 
L 284.099322 -126.683468 
L 287.378664 -127.397805 
L 290.658006 -128.254111 
L 293.937329 -129.265545 
L 297.21669 -130.444697 
L 300.496013 -131.802817 
L 303.775355 -133.349293 
L 307.054697 -135.090758 
L 310.33402 -137.030355 
L 313.613382 -139.16687 
L 316.892705 -141.493719 
L 320.172047 -143.997876 
L 323.451389 -146.658647 
L 326.730731 -149.446058 
L 330.010073 -152.319206 
L 333.289396 -155.22412 
L 336.568738 -158.091466 
L 339.84808 -160.834548 
L 343.127423 -163.347952 
L 346.406765 -165.510222 
L 349.686088 -167.19171 
L 352.96543 -168.270619 
L 356.244772 -168.657135 
L 359.524114 -168.316906 
L 362.803456 -167.280217 
L 366.082798 -165.634163 
L 369.362141 -163.498949 
L 372.641463 -161.004415 
L 375.920806 -158.273122 
L 379.200148 -155.411222 
L 379.200148 -162.473142 
L 379.200148 -162.473142 
L 375.920806 -165.885186 
L 372.641463 -169.235801 
L 369.362141 -172.402431 
L 366.082798 -175.220625 
L 362.803456 -177.482802 
L 359.524114 -178.958457 
L 356.244772 -179.452902 
L 352.96543 -178.891682 
L 349.686088 -177.358929 
L 346.406765 -175.053946 
L 343.127423 -172.207496 
L 339.84808 -169.024477 
L 336.568738 -165.666185 
L 333.289396 -162.253324 
L 330.010073 -158.87411 
L 326.730731 -155.59293 
L 323.451389 -152.456405 
L 320.172047 -149.497715 
L 316.892705 -146.739632 
L 313.613382 -144.196472 
L 310.33402 -141.875787 
L 307.054697 -139.779495 
L 303.775355 -137.90488 
L 300.496013 -136.245458 
L 297.21669 -134.791776 
L 293.937329 -133.532047 
L 290.658006 -132.452976 
L 287.378664 -131.540228 
L 284.099322 -130.779129 
L 280.81998 -130.155171 
L 277.540637 -129.654503 
L 274.261315 -129.264381 
L 270.981953 -128.973552 
L 267.70263 -128.772561 
L 264.423288 -128.654008 
L 261.143946 -128.612772 
L 257.864623 -128.646082 
L 254.585262 -128.75362 
L 251.305939 -128.937481 
L 248.026597 -129.20208 
L 244.747254 -129.554045 
L 241.467912 -130.001897 
L 238.18857 -130.555804 
L 234.909247 -131.227185 
L 231.629886 -132.028266 
L 228.350563 -132.971525 
L 225.071221 -134.06918 
L 221.791879 -135.332496 
L 218.512556 -136.771163 
L 215.233204 -138.392642 
L 211.953871 -140.201374 
L 208.674529 -142.198182 
L 205.395187 -144.379592 
L 202.115855 -146.737161 
L 198.836512 -149.25697 
L 195.55717 -151.919043 
L 192.277838 -154.696956 
L 188.998496 -157.557459 
L 185.719153 -160.460235 
L 182.439821 -163.357759 
L 179.160479 -166.195582 
L 175.881137 -168.912838 
L 172.601804 -171.444009 
L 169.322462 -173.721921 
L 166.04312 -175.683193 
L 162.763787 -177.276676 
L 159.484445 -178.473538 
L 156.205103 -179.276979 
L 152.92577 -179.725745 
L 149.646428 -179.889247 
L 146.367086 -179.85401 
L 143.087754 -179.707736 
L 139.808412 -179.524775 
L 136.529069 -179.356752 
L 133.249737 -179.227261 
L 129.970395 -179.130296 
L 126.691057 -179.030363 
L 123.41172 -178.866438 
L 120.132378 -178.558655 
L 116.853041 -178.020918 
L 113.573703 -177.176332 
L 110.294361 -175.972862 
L 107.015024 -174.392178 
L 103.735686 -172.450555 
L 100.456344 -170.190838 
L 97.177007 -167.67243 
L 93.89767 -164.961713 
L 90.61833 -162.125063 
L 87.33899 -159.225196 
L 84.059653 -156.318681 
L 80.780313 -153.454985 
L 77.500973 -150.676288 
L 74.221636 -148.017256 
L 70.942296 -145.505586 
L 67.662958 -143.162192 
L 64.383619 -141.001656 
L 61.10428 -139.032813 
L 57.824941 -137.259258 
L 54.545602 -135.679995 
z
" style="stroke: #ff7f0e; stroke-opacity: 0.5; stroke-width: 0.8"/>
    </defs>
    <g clip-path="url(#pd1488a2888)">
     <use xlink:href="#m45dcf62b24" x="0" y="309.639375" style="fill: #ff7f0e; fill-opacity: 0.5; stroke: #ff7f0e; stroke-opacity: 0.5; stroke-width: 0.8"/>
    </g>
   </g>
   <g id="PolyCollection_3">
    <defs>
     <path id="m9081a95e7b" d="M 54.545602 -278.156556 
L 54.545602 -273.695767 
L 57.824941 -271.577746 
L 61.10428 -269.251244 
L 64.383619 -266.719104 
L 67.662958 -263.98917 
L 70.942296 -261.074896 
L 74.221636 -257.995834 
L 77.500973 -254.778095 
L 80.780313 -251.454777 
L 84.059653 -248.066007 
L 87.33899 -244.659442 
L 90.61833 -241.289921 
L 93.89767 -238.019205 
L 97.177007 -234.914892 
L 100.456344 -232.04785 
L 103.735686 -229.488489 
L 107.015024 -227.299688 
L 110.294361 -225.527139 
L 113.573703 -224.189299 
L 116.853041 -223.269283 
L 120.132378 -222.715775 
L 123.41172 -222.451841 
L 126.691057 -222.390584 
L 129.970395 -222.450625 
L 133.249737 -222.568731 
L 136.529069 -222.706551 
L 139.808412 -222.854655 
L 143.087754 -223.032703 
L 146.367086 -223.28796 
L 149.646428 -223.690072 
L 152.92577 -224.321794 
L 156.205103 -225.264533 
L 159.484445 -226.582521 
L 162.763787 -228.309332 
L 166.04312 -230.443084 
L 169.322462 -232.950033 
L 172.601804 -235.774339 
L 175.881137 -238.848217 
L 179.160479 -242.100411 
L 182.439821 -245.461675 
L 185.719153 -248.86781 
L 188.998496 -252.261408 
L 192.277838 -255.592405 
L 195.55717 -258.818307 
L 198.836512 -261.904088 
L 202.115855 -264.821889 
L 205.395187 -267.550611 
L 208.674529 -270.075538 
L 211.953871 -272.387675 
L 215.233204 -274.483216 
L 218.512556 -276.362849 
L 221.791879 -278.031037 
L 225.071221 -279.495364 
L 228.350563 -280.765727 
L 231.629886 -281.853669 
L 234.909247 -282.771711 
L 238.18857 -283.532644 
L 241.467912 -284.148999 
L 244.747254 -284.63249 
L 248.026597 -284.993569 
L 251.305939 -285.241033 
L 254.585262 -285.381748 
L 257.864623 -285.420413 
L 261.143946 -285.359409 
L 264.423288 -285.198751 
L 267.70263 -284.936096 
L 270.981953 -284.566815 
L 274.261315 -284.084147 
L 277.540637 -283.479443 
L 280.81998 -282.742431 
L 284.099322 -281.861543 
L 287.378664 -280.824393 
L 290.658006 -279.618136 
L 293.937329 -278.230066 
L 297.21669 -276.64808 
L 300.496013 -274.861411 
L 303.775355 -272.861029 
L 307.054697 -270.640531 
L 310.33402 -268.196674 
L 313.613382 -265.530191 
L 316.892705 -262.646604 
L 320.172047 -259.557149 
L 323.451389 -256.27989 
L 326.730731 -252.841312 
L 330.010073 -249.278237 
L 333.289396 -245.640773 
L 336.568738 -241.996577 
L 339.84808 -238.436864 
L 343.127423 -235.084994 
L 346.406765 -232.10452 
L 349.686088 -229.70214 
L 352.96543 -228.109966 
L 356.244772 -227.528123 
L 359.524114 -228.041029 
L 362.803456 -229.57401 
L 366.082798 -231.931583 
L 369.362141 -234.881986 
L 372.641463 -238.21588 
L 375.920806 -241.766612 
L 379.200148 -245.409047 
L 379.200148 -252.470967 
L 379.200148 -252.470967 
L 375.920806 -249.378671 
L 372.641463 -246.447268 
L 369.362141 -243.785463 
L 366.082798 -241.518043 
L 362.803456 -239.776592 
L 359.524114 -238.682584 
L 356.244772 -238.32389 
L 352.96543 -238.731029 
L 349.686088 -239.869361 
L 346.406765 -241.64824 
L 343.127423 -243.944539 
L 339.84808 -246.626793 
L 336.568738 -249.571294 
L 333.289396 -252.669976 
L 330.010073 -255.833141 
L 326.730731 -258.988184 
L 323.451389 -262.077648 
L 320.172047 -265.056989 
L 316.892705 -267.892517 
L 313.613382 -270.559793 
L 310.33402 -273.042106 
L 307.054697 -275.329268 
L 303.775355 -277.416616 
L 300.496013 -279.304052 
L 297.21669 -280.995158 
L 293.937329 -282.496568 
L 290.658006 -283.817001 
L 287.378664 -284.966811 
L 284.099322 -285.957209 
L 280.81998 -286.799749 
L 277.540637 -287.505747 
L 274.261315 -288.085865 
L 270.981953 -288.549602 
L 267.70263 -288.905036 
L 264.423288 -289.158496 
L 261.143946 -289.314298 
L 257.864623 -289.374646 
L 254.585262 -289.339483 
L 251.305939 -289.206594 
L 248.026597 -288.971532 
L 244.747254 -288.627854 
L 241.467912 -288.167301 
L 238.18857 -287.58016 
L 234.909247 -286.855526 
L 231.629886 -285.981913 
L 228.350563 -284.947681 
L 225.071221 -283.74168 
L 221.791879 -282.353929 
L 218.512556 -280.776286 
L 215.233204 -279.003197 
L 211.953871 -277.032505 
L 208.674529 -274.866125 
L 205.395187 -272.510817 
L 202.115855 -269.978891 
L 198.836512 -267.28872 
L 195.55717 -264.465381 
L 192.277838 -261.540871 
L 188.998496 -258.554255 
L 185.719153 -255.551468 
L 182.439821 -252.58461 
L 179.160479 -249.710517 
L 175.881137 -246.988495 
L 172.601804 -244.476709 
L 169.322462 -242.227488 
L 166.04312 -240.281667 
L 162.763787 -238.662776 
L 159.484445 -237.373059 
L 156.205103 -236.392175 
L 152.92577 -235.680259 
L 149.646428 -235.184053 
L 146.367086 -234.845366 
L 143.087754 -234.609062 
L 139.808412 -234.430157 
L 136.529069 -234.278589 
L 133.249737 -234.142217 
L 129.970395 -234.027792 
L 126.691057 -233.960806 
L 123.41172 -233.982994 
L 120.132378 -234.148711 
L 116.853041 -234.518559 
L 113.573703 -235.151819 
L 110.294361 -236.097761 
L 107.015024 -237.388493 
L 103.735686 -239.033796 
L 100.456344 -241.020846 
L 97.177007 -243.316804 
L 93.89767 -245.874093 
L 90.61833 -248.636441 
L 87.33899 -251.54383 
L 84.059653 -254.53688 
L 80.780313 -257.559752 
L 77.500973 -260.561902 
L 74.221636 -263.499351 
L 70.942296 -266.33486 
L 67.662958 -269.038245 
L 64.383619 -271.586128 
L 61.10428 -273.961564 
L 57.824941 -276.153585 
L 54.545602 -278.156556 
z
" style="stroke: #ff7f0e; stroke-opacity: 0.5; stroke-width: 0.8"/>
    </defs>
    <g clip-path="url(#pd1488a2888)">
     <use xlink:href="#m9081a95e7b" x="0" y="309.639375" style="fill: #ff7f0e; fill-opacity: 0.5; stroke: #ff7f0e; stroke-opacity: 0.5; stroke-width: 0.8"/>
    </g>
   </g>
   <g id="line2d_14">
    <defs>
     <path id="m8e4aca2a1f" d="M -5 5 
L 5 -5 
M -5 -5 
L 5 5 
" style="stroke: #000000; stroke-width: 2"/>
    </defs>
    <g clip-path="url(#pd1488a2888)">
     <use xlink:href="#m8e4aca2a1f" x="356.349693" y="106.580865" style="stroke: #000000; stroke-width: 2"/>
     <use xlink:href="#m8e4aca2a1f" x="157.258364" y="107.40219" style="stroke: #000000; stroke-width: 2"/>
     <use xlink:href="#m8e4aca2a1f" x="114.255683" y="109.602661" style="stroke: #000000; stroke-width: 2"/>
    </g>
   </g>
   <g id="line2d_15">
    <path d="M 54.545602 104.951492 
L 57.824941 105.220875 
L 61.10428 105.497345 
L 64.383619 105.778993 
L 67.662958 106.063695 
L 70.942296 106.349133 
L 74.221636 106.632831 
L 77.500973 106.912183 
L 80.780313 107.184494 
L 84.059653 107.447032 
L 87.33899 107.697057 
L 90.61833 107.931882 
L 93.89767 108.148916 
L 97.177007 108.345715 
L 100.456344 108.520032 
L 103.735686 108.669853 
L 107.015024 108.793442 
L 110.294361 108.889375 
L 113.573703 108.95656 
L 116.853041 108.994274 
L 120.132378 109.002159 
L 123.41172 108.980236 
L 126.691057 108.928901 
L 129.970395 108.848915 
L 133.249737 108.741379 
L 136.529069 108.607724 
L 139.808412 108.449661 
L 143.087754 108.269155 
L 146.367086 108.06839 
L 149.646428 107.849716 
L 152.92577 107.615606 
L 156.205103 107.36862 
L 159.484445 107.111345 
L 162.763787 106.846372 
L 166.04312 106.576236 
L 169.322462 106.303398 
L 172.601804 106.0302 
L 175.881137 105.758848 
L 179.160479 105.491379 
L 182.439821 105.229658 
L 185.719153 104.975353 
L 188.998496 104.729939 
L 192.277838 104.494693 
L 195.55717 104.270697 
L 198.836512 104.058844 
L 202.115855 103.859851 
L 205.395187 103.674273 
L 208.674529 103.502514 
L 211.953871 103.344851 
L 215.233204 103.201446 
L 218.512556 103.072367 
L 221.791879 102.957609 
L 225.071221 102.857105 
L 228.350563 102.77075 
L 231.629886 102.698407 
L 234.909247 102.639926 
L 238.18857 102.595151 
L 241.467912 102.563927 
L 244.747254 102.546106 
L 248.026597 102.541549 
L 251.305939 102.550121 
L 254.585262 102.571692 
L 257.864623 102.606129 
L 261.143946 102.653286 
L 264.423288 102.712994 
L 267.70263 102.785048 
L 270.981953 102.869192 
L 274.261315 102.96511 
L 277.540637 103.072401 
L 280.81998 103.190576 
L 284.099322 103.319038 
L 287.378664 103.457066 
L 290.658006 103.60382 
L 293.937329 103.758318 
L 297.21669 103.919445 
L 300.496013 104.08594 
L 303.775355 104.25642 
L 307.054697 104.429364 
L 310.33402 104.603146 
L 313.613382 104.776044 
L 316.892705 104.946258 
L 320.172047 105.111942 
L 323.451389 105.271228 
L 326.730731 105.422254 
L 330.010073 105.563202 
L 333.289396 105.692327 
L 336.568738 105.807993 
L 339.84808 105.908705 
L 343.127423 105.99313 
L 346.406765 106.060143 
L 349.686088 106.10884 
L 352.96543 106.138552 
L 356.244772 106.148862 
L 359.524114 106.139631 
L 362.803456 106.11097 
L 366.082798 106.063271 
L 369.362141 105.997167 
L 372.641463 105.913534 
L 375.920806 105.813477 
L 379.200148 105.698282 
" clip-path="url(#pd1488a2888)" style="fill: none; stroke: #1f77b4; stroke-width: 2; stroke-linecap: round"/>
   </g>
   <g id="line2d_16">
    <path d="M 54.545602 180.968907 
L 57.824941 176.10518 
L 61.10428 171.259501 
L 64.383619 166.449841 
L 67.662958 161.694104 
L 70.942296 157.009996 
L 74.221636 152.41505 
L 77.500973 147.926492 
L 80.780313 143.561205 
L 84.059653 139.335701 
L 87.33899 135.266014 
L 90.61833 131.367676 
L 93.89767 127.655656 
L 97.177007 124.144309 
L 100.456344 120.847311 
L 103.735686 117.777652 
L 107.015024 114.947551 
L 110.294361 112.36843 
L 113.573703 110.050862 
L 116.853041 108.004559 
L 120.132378 106.238327 
L 123.41172 104.760016 
L 126.691057 103.576515 
L 129.970395 102.693722 
L 133.249737 102.116508 
L 136.529069 101.848711 
L 139.808412 101.893121 
L 143.087754 102.251444 
L 146.367086 102.924312 
L 149.646428 103.911274 
L 152.92577 105.210771 
L 156.205103 106.820132 
L 159.484445 108.735613 
L 162.763787 110.952324 
L 166.04312 113.464303 
L 169.322462 116.264468 
L 172.601804 119.344642 
L 175.881137 122.695554 
L 179.160479 126.306831 
L 182.439821 130.16706 
L 185.719153 134.263685 
L 188.998496 138.583141 
L 192.277838 143.110744 
L 195.55717 147.830814 
L 198.836512 152.726568 
L 202.115855 157.780161 
L 205.395187 162.972717 
L 208.674529 168.284318 
L 211.953871 173.69395 
L 215.233204 179.179576 
L 218.512556 184.71809 
L 221.791879 190.285263 
L 225.071221 195.855856 
L 228.350563 201.403518 
L 231.629886 206.900658 
L 234.909247 212.318814 
L 238.18857 217.628087 
L 241.467912 222.797677 
L 244.747254 227.79548 
L 248.026597 232.588272 
L 251.305939 237.141715 
L 254.585262 241.420239 
L 257.864623 245.387255 
L 261.143946 249.005042 
L 264.423288 252.23494 
L 267.70263 255.037377 
L 270.981953 257.372113 
L 274.261315 259.198322 
L 277.540637 260.474948 
L 280.81998 261.161003 
L 284.099322 261.216 
L 287.378664 260.600491 
L 290.658006 259.276774 
L 293.937329 257.209678 
L 297.21669 254.367469 
L 300.496013 250.723414 
L 303.775355 246.256633 
L 307.054697 240.954297 
L 310.33402 234.813479 
L 313.613382 227.843169 
L 316.892705 220.067325 
L 320.172047 211.527431 
L 323.451389 202.285878 
L 326.730731 192.4295 
L 330.010073 182.073119 
L 333.289396 171.363295 
L 336.568738 160.481922 
L 339.84808 149.649088 
L 343.127423 139.125468 
L 346.406765 129.213218 
L 349.686088 120.254392 
L 352.96543 112.626728 
L 356.244772 106.735977 
L 359.524114 103.002028 
L 362.803456 101.839668 
L 366.082798 103.631317 
L 369.362141 108.69134 
L 372.641463 117.221579 
L 375.920806 129.258346 
L 379.200148 144.613399 
" clip-path="url(#pd1488a2888)" style="fill: none; stroke-dasharray: 7.68,1.92,1.2,1.92; stroke-dashoffset: 0; stroke: #bf00bf; stroke-width: 1.2"/>
   </g>
   <g id="line2d_17">
    <path d="M 54.545602 112.34243 
L 57.824941 108.778007 
L 61.10428 105.608721 
L 64.383619 102.498837 
L 67.662958 99.789021 
L 70.942296 97.4467 
L 74.221636 95.206742 
L 77.500973 93.550529 
L 80.780313 92.500758 
L 84.059653 91.762341 
L 87.33899 91.637827 
L 90.61833 91.947474 
L 93.89767 92.760573 
L 97.177007 93.74097 
L 100.456344 95.272529 
L 103.735686 97.050884 
L 107.015024 98.857241 
L 110.294361 100.710583 
L 113.573703 102.807347 
L 116.853041 104.661442 
L 120.132378 106.302469 
L 123.41172 107.613239 
L 126.691057 108.484511 
L 129.970395 109.216442 
L 133.249737 109.26789 
L 136.529069 108.830397 
L 139.808412 108.017123 
L 143.087754 106.697145 
L 146.367086 104.997039 
L 149.646428 102.621495 
L 152.92577 100.099842 
L 156.205103 97.522445 
L 159.484445 94.553296 
L 162.763787 91.611738 
L 166.04312 88.429238 
L 169.322462 85.450886 
L 172.601804 82.66332 
L 175.881137 80.104817 
L 179.160479 78.030305 
L 182.439821 76.573284 
L 185.719153 75.426401 
L 188.998496 74.923533 
L 192.277838 75.000415 
L 195.55717 75.640241 
L 198.836512 77.060818 
L 202.115855 78.954565 
L 205.395187 81.572415 
L 208.674529 84.660369 
L 211.953871 88.458776 
L 215.233204 92.494353 
L 218.512556 96.861494 
L 221.791879 101.7058 
L 225.071221 106.429356 
L 228.350563 111.419906 
L 231.629886 116.221674 
L 234.909247 120.899551 
L 238.18857 125.330984 
L 241.467912 129.309865 
L 244.747254 132.919631 
L 248.026597 135.95749 
L 251.305939 138.647575 
L 254.585262 140.436155 
L 257.864623 142.020811 
L 261.143946 142.943115 
L 264.423288 143.210955 
L 267.70263 143.069955 
L 270.981953 142.658293 
L 274.261315 141.608108 
L 277.540637 140.337778 
L 280.81998 138.954569 
L 284.099322 137.332148 
L 287.378664 135.542017 
L 290.658006 133.733121 
L 293.937329 131.88967 
L 297.21669 130.318376 
L 300.496013 128.642159 
L 303.775355 127.046341 
L 307.054697 125.570439 
L 310.33402 124.078806 
L 313.613382 122.749841 
L 316.892705 121.512201 
L 320.172047 120.413141 
L 323.451389 119.174153 
L 326.730731 117.775045 
L 330.010073 116.540354 
L 333.289396 115.164148 
L 336.568738 113.77781 
L 339.84808 112.069465 
L 343.127423 110.337307 
L 346.406765 108.44001 
L 349.686088 106.570694 
L 352.96543 104.301588 
L 356.244772 101.94889 
L 359.524114 99.228841 
L 362.803456 96.507719 
L 366.082798 93.786803 
L 369.362141 90.73907 
L 372.641463 87.679679 
L 375.920806 84.601801 
L 379.200148 81.293086 
" clip-path="url(#pd1488a2888)" style="fill: none; stroke: #ff0000; stroke-width: 0.5; stroke-linecap: round"/>
   </g>
   <g id="line2d_18">
    <path d="M 54.545602 166.743435 
L 57.824941 166.820286 
L 61.10428 166.702812 
L 64.383619 166.050619 
L 67.662958 165.051773 
L 70.942296 164.027424 
L 74.221636 162.313419 
L 77.500973 160.364643 
L 80.780313 157.894138 
L 84.059653 155.08494 
L 87.33899 151.945582 
L 90.61833 148.700573 
L 93.89767 144.760838 
L 97.177007 140.695892 
L 100.456344 136.432023 
L 103.735686 132.108046 
L 107.015024 127.740452 
L 110.294361 123.332643 
L 113.573703 119.132374 
L 116.853041 114.969747 
L 120.132378 111.437694 
L 123.41172 107.998007 
L 126.691057 105.020197 
L 129.970395 102.699535 
L 133.249737 100.624364 
L 136.529069 99.26961 
L 139.808412 98.250224 
L 143.087754 97.978902 
L 146.367086 98.159991 
L 149.646428 98.642235 
L 152.92577 99.653498 
L 156.205103 100.986987 
L 159.484445 102.588232 
L 162.763787 104.406051 
L 166.04312 106.172199 
L 169.322462 108.034522 
L 172.601804 109.864576 
L 175.881137 111.629843 
L 179.160479 113.116994 
L 182.439821 114.570764 
L 185.719153 115.802655 
L 188.998496 116.695643 
L 192.277838 117.762776 
L 195.55717 118.59953 
L 198.836512 119.360949 
L 202.115855 120.100007 
L 205.395187 120.695788 
L 208.674529 121.729822 
L 211.953871 122.998006 
L 215.233204 124.417276 
L 218.512556 126.234015 
L 221.791879 128.249958 
L 225.071221 130.801837 
L 228.350563 133.606719 
L 231.629886 136.739455 
L 234.909247 140.147771 
L 238.18857 143.917247 
L 241.467912 147.766185 
L 244.747254 151.784919 
L 248.026597 155.815205 
L 251.305939 159.804069 
L 254.585262 163.613453 
L 257.864623 167.204469 
L 261.143946 170.537875 
L 264.423288 173.525261 
L 267.70263 176.107015 
L 270.981953 178.054461 
L 274.261315 179.566125 
L 277.540637 180.731289 
L 280.81998 180.94865 
L 284.099322 180.983609 
L 287.378664 180.120199 
L 290.658006 179.000291 
L 293.937329 177.078742 
L 297.21669 174.931996 
L 300.496013 172.352723 
L 303.775355 169.296978 
L 307.054697 165.834973 
L 310.33402 162.214235 
L 313.613382 158.359329 
L 316.892705 154.522266 
L 320.172047 150.503888 
L 323.451389 146.555751 
L 326.730731 142.54749 
L 330.010073 138.802847 
L 333.289396 135.196048 
L 336.568738 131.731317 
L 339.84808 128.567765 
L 343.127423 125.581762 
L 346.406765 123.032779 
L 349.686088 120.197242 
L 352.96543 117.90589 
L 356.244772 115.955592 
L 359.524114 113.858046 
L 362.803456 111.853047 
L 366.082798 110.091967 
L 369.362141 108.607789 
L 372.641463 106.775916 
L 375.920806 105.249658 
L 379.200148 103.521466 
" clip-path="url(#pd1488a2888)" style="fill: none; stroke: #ff0000; stroke-width: 0.5; stroke-linecap: round"/>
   </g>
   <g id="line2d_19">
    <path d="M 54.545602 92.535035 
L 57.824941 95.030687 
L 61.10428 97.584457 
L 64.383619 99.761573 
L 67.662958 102.159835 
L 70.942296 104.237866 
L 74.221636 106.466763 
L 77.500973 108.339127 
L 80.780313 110.193773 
L 84.059653 111.900458 
L 87.33899 113.646187 
L 90.61833 114.980243 
L 93.89767 116.260253 
L 97.177007 117.186665 
L 100.456344 118.254933 
L 103.735686 118.943949 
L 107.015024 119.359826 
L 110.294361 119.73434 
L 113.573703 119.913222 
L 116.853041 119.902988 
L 120.132378 119.785715 
L 123.41172 119.580345 
L 126.691057 119.250437 
L 129.970395 118.733366 
L 133.249737 118.229595 
L 136.529069 117.618608 
L 139.808412 117.087405 
L 143.087754 116.175996 
L 146.367086 115.27432 
L 149.646428 114.031253 
L 152.92577 112.777229 
L 156.205103 111.333538 
L 159.484445 109.513242 
L 162.763787 107.484158 
L 166.04312 105.337355 
L 169.322462 102.831873 
L 172.601804 100.070132 
L 175.881137 97.067376 
L 179.160479 93.792739 
L 182.439821 90.252964 
L 185.719153 86.631431 
L 188.998496 82.914685 
L 192.277838 79.14346 
L 195.55717 75.271578 
L 198.836512 71.456551 
L 202.115855 67.692269 
L 205.395187 64.169691 
L 208.674529 60.786509 
L 211.953871 57.745941 
L 215.233204 55.035462 
L 218.512556 52.546563 
L 221.791879 50.511403 
L 225.071221 48.909811 
L 228.350563 47.618364 
L 231.629886 46.888712 
L 234.909247 46.498604 
L 238.18857 46.661144 
L 241.467912 46.957708 
L 244.747254 47.844393 
L 248.026597 48.935594 
L 251.305939 50.442663 
L 254.585262 52.273696 
L 257.864623 54.343311 
L 261.143946 56.513801 
L 264.423288 59.080863 
L 267.70263 61.675641 
L 270.981953 64.369893 
L 274.261315 67.159707 
L 277.540637 70.282203 
L 280.81998 73.132568 
L 284.099322 76.184025 
L 287.378664 79.23795 
L 290.658006 82.235434 
L 293.937329 85.086852 
L 297.21669 88.033388 
L 300.496013 90.857266 
L 303.775355 93.357837 
L 307.054697 95.83521 
L 310.33402 98.218336 
L 313.613382 100.293366 
L 316.892705 102.130967 
L 320.172047 103.846599 
L 323.451389 105.355915 
L 326.730731 106.740757 
L 330.010073 107.778028 
L 333.289396 108.673811 
L 336.568738 109.529304 
L 339.84808 110.181788 
L 343.127423 110.809323 
L 346.406765 111.452814 
L 349.686088 111.855892 
L 352.96543 112.632904 
L 356.244772 113.400629 
L 359.524114 114.365028 
L 362.803456 115.581497 
L 366.082798 117.101901 
L 369.362141 118.940731 
L 372.641463 121.084798 
L 375.920806 123.85699 
L 379.200148 126.812455 
" clip-path="url(#pd1488a2888)" style="fill: none; stroke: #ff0000; stroke-width: 0.5; stroke-linecap: round"/>
   </g>
   <g id="line2d_20">
    <path d="M 54.545602 135.321422 
L 57.824941 136.286606 
L 61.10428 136.782658 
L 64.383619 137.07936 
L 67.662958 137.059911 
L 70.942296 136.731624 
L 74.221636 135.952192 
L 77.500973 135.12251 
L 80.780313 133.713974 
L 84.059653 132.251386 
L 87.33899 130.505677 
L 90.61833 128.482116 
L 93.89767 126.337129 
L 97.177007 123.900319 
L 100.456344 121.534963 
L 103.735686 118.715041 
L 107.015024 116.016329 
L 110.294361 113.198945 
L 113.573703 110.534827 
L 116.853041 107.794617 
L 120.132378 105.289674 
L 123.41172 102.876859 
L 126.691057 100.583113 
L 129.970395 98.684931 
L 133.249737 96.949421 
L 136.529069 95.613919 
L 139.808412 94.599166 
L 143.087754 93.827081 
L 146.367086 93.66818 
L 149.646428 93.852494 
L 152.92577 94.283404 
L 156.205103 95.197067 
L 159.484445 96.621706 
L 162.763787 98.307133 
L 166.04312 100.318076 
L 169.322462 102.644562 
L 172.601804 105.143498 
L 175.881137 107.912919 
L 179.160479 110.821209 
L 182.439821 113.886109 
L 185.719153 116.925632 
L 188.998496 119.764391 
L 192.277838 122.555471 
L 195.55717 125.126279 
L 198.836512 127.507094 
L 202.115855 129.410384 
L 205.395187 130.788024 
L 208.674529 131.946131 
L 211.953871 132.575499 
L 215.233204 132.824535 
L 218.512556 132.56605 
L 221.791879 131.970783 
L 225.071221 130.789566 
L 228.350563 129.517611 
L 231.629886 127.770462 
L 234.909247 125.769693 
L 238.18857 123.625948 
L 241.467912 121.444387 
L 244.747254 119.292657 
L 248.026597 117.22755 
L 251.305939 115.271047 
L 254.585262 113.581374 
L 257.864623 111.91181 
L 261.143946 110.756165 
L 264.423288 109.684841 
L 267.70263 109.097866 
L 270.981953 108.763756 
L 274.261315 108.620552 
L 277.540637 108.580428 
L 280.81998 108.881542 
L 284.099322 109.180547 
L 287.378664 109.697841 
L 290.658006 110.077564 
L 293.937329 110.523626 
L 297.21669 110.646944 
L 300.496013 110.683968 
L 303.775355 110.69774 
L 307.054697 110.395371 
L 310.33402 109.981593 
L 313.613382 109.363343 
L 316.892705 108.392173 
L 320.172047 107.465577 
L 323.451389 106.208353 
L 326.730731 105.022468 
L 330.010073 103.827408 
L 333.289396 102.739804 
L 336.568738 101.794522 
L 339.84808 100.922628 
L 343.127423 100.316361 
L 346.406765 100.03461 
L 349.686088 100.010383 
L 352.96543 100.62209 
L 356.244772 101.403122 
L 359.524114 102.765646 
L 362.803456 104.412421 
L 366.082798 106.740846 
L 369.362141 109.316998 
L 372.641463 112.218335 
L 375.920806 115.542411 
L 379.200148 119.257913 
" clip-path="url(#pd1488a2888)" style="fill: none; stroke: #ff0000; stroke-width: 0.5; stroke-linecap: round"/>
   </g>
   <g id="line2d_21">
    <path d="M 54.545602 53.0884 
L 57.824941 54.0169 
L 61.10428 55.63356 
L 64.383619 57.457222 
L 67.662958 59.505611 
L 70.942296 62.164092 
L 74.221636 65.042172 
L 77.500973 68.4091 
L 80.780313 71.882652 
L 84.059653 75.769041 
L 87.33899 79.644898 
L 90.61833 83.841846 
L 93.89767 87.903151 
L 97.177007 92.238491 
L 100.456344 96.222613 
L 103.735686 100.253793 
L 107.015024 103.865807 
L 110.294361 107.482039 
L 113.573703 110.555336 
L 116.853041 113.188807 
L 120.132378 115.494393 
L 123.41172 117.240393 
L 126.691057 118.571981 
L 129.970395 119.434089 
L 133.249737 119.774504 
L 136.529069 119.488081 
L 139.808412 119.134666 
L 143.087754 117.912131 
L 146.367086 116.653457 
L 149.646428 115.090955 
L 152.92577 113.428802 
L 156.205103 111.540192 
L 159.484445 109.585319 
L 162.763787 107.829828 
L 166.04312 106.272957 
L 169.322462 104.877672 
L 172.601804 103.810042 
L 175.881137 103.084733 
L 179.160479 102.784316 
L 182.439821 102.713153 
L 185.719153 103.131491 
L 188.998496 104.25315 
L 192.277838 105.685704 
L 195.55717 107.464914 
L 198.836512 109.695742 
L 202.115855 112.535967 
L 205.395187 115.306169 
L 208.674529 118.618252 
L 211.953871 121.982994 
L 215.233204 125.586379 
L 218.512556 129.190274 
L 221.791879 132.78468 
L 225.071221 136.273273 
L 228.350563 139.741369 
L 231.629886 143.01042 
L 234.909247 145.968587 
L 238.18857 148.708266 
L 241.467912 150.979523 
L 244.747254 153.019882 
L 248.026597 154.793355 
L 251.305939 156.193609 
L 254.585262 157.117742 
L 257.864623 157.82833 
L 261.143946 158.083977 
L 264.423288 158.149195 
L 267.70263 157.94235 
L 270.981953 157.307291 
L 274.261315 156.621508 
L 277.540637 155.640709 
L 280.81998 154.544347 
L 284.099322 153.133283 
L 287.378664 151.694573 
L 290.658006 149.75923 
L 293.937329 148.057389 
L 297.21669 146.04557 
L 300.496013 143.861608 
L 303.775355 141.262427 
L 307.054697 138.90301 
L 310.33402 136.375367 
L 313.613382 133.550856 
L 316.892705 130.629772 
L 320.172047 127.521394 
L 323.451389 124.442042 
L 326.730731 121.450149 
L 330.010073 118.332613 
L 333.289396 115.430041 
L 336.568738 112.659794 
L 339.84808 109.997222 
L 343.127423 107.755931 
L 346.406765 106.038529 
L 349.686088 104.566547 
L 352.96543 103.662769 
L 356.244772 103.228592 
L 359.524114 103.402882 
L 362.803456 103.910684 
L 366.082798 105.017887 
L 369.362141 106.479533 
L 372.641463 108.516635 
L 375.920806 110.926485 
L 379.200148 113.297576 
" clip-path="url(#pd1488a2888)" style="fill: none; stroke: #ff0000; stroke-width: 0.5; stroke-linecap: round"/>
   </g>
   <g id="line2d_22">
    <path d="M 54.545602 115.917969 
L 57.824941 114.219049 
L 61.10428 112.256539 
L 64.383619 110.218643 
L 67.662958 108.135035 
L 70.942296 105.839928 
L 74.221636 103.657169 
L 77.500973 101.606319 
L 80.780313 99.515355 
L 84.059653 97.57465 
L 87.33899 95.83001 
L 90.61833 94.254316 
L 93.89767 92.879469 
L 97.177007 91.90244 
L 100.456344 91.045377 
L 103.735686 90.538003 
L 107.015024 90.304231 
L 110.294361 90.260912 
L 113.573703 90.493574 
L 116.853041 90.958674 
L 120.132378 91.864167 
L 123.41172 92.656216 
L 126.691057 93.770537 
L 129.970395 95.001581 
L 133.249737 96.31308 
L 136.529069 97.563572 
L 139.808412 98.999406 
L 143.087754 100.470198 
L 146.367086 101.935673 
L 149.646428 103.334934 
L 152.92577 104.736342 
L 156.205103 106.087003 
L 159.484445 107.36238 
L 162.763787 108.561376 
L 166.04312 109.692936 
L 169.322462 110.490431 
L 172.601804 111.152025 
L 175.881137 111.757231 
L 179.160479 112.174819 
L 182.439821 112.233319 
L 185.719153 112.163085 
L 188.998496 111.979477 
L 192.277838 111.591632 
L 195.55717 110.881543 
L 198.836512 109.962527 
L 202.115855 108.879064 
L 205.395187 107.620294 
L 208.674529 106.069312 
L 211.953871 104.668903 
L 215.233204 102.925293 
L 218.512556 101.147446 
L 221.791879 99.550824 
L 225.071221 97.832785 
L 228.350563 96.053157 
L 231.629886 94.352735 
L 234.909247 92.887119 
L 238.18857 91.345262 
L 241.467912 90.000205 
L 244.747254 88.801458 
L 248.026597 87.887805 
L 251.305939 86.988085 
L 254.585262 86.25792 
L 257.864623 85.694957 
L 261.143946 85.263973 
L 264.423288 84.79501 
L 267.70263 84.650702 
L 270.981953 84.281025 
L 274.261315 84.135111 
L 277.540637 83.828059 
L 280.81998 83.7815 
L 284.099322 83.57516 
L 287.378664 83.468431 
L 290.658006 83.292257 
L 293.937329 83.114357 
L 297.21669 82.93407 
L 300.496013 82.9323 
L 303.775355 82.915677 
L 307.054697 83.05937 
L 310.33402 83.345362 
L 313.613382 83.734044 
L 316.892705 84.671708 
L 320.172047 85.511179 
L 323.451389 86.798191 
L 326.730731 88.087352 
L 330.010073 89.831585 
L 333.289396 91.606525 
L 336.568738 93.640029 
L 339.84808 95.727839 
L 343.127423 98.172226 
L 346.406765 100.418338 
L 349.686088 102.659028 
L 352.96543 104.801941 
L 356.244772 106.799086 
L 359.524114 108.649572 
L 362.803456 109.897103 
L 366.082798 110.770491 
L 369.362141 111.230718 
L 372.641463 111.193298 
L 375.920806 110.418611 
L 379.200148 109.337786 
" clip-path="url(#pd1488a2888)" style="fill: none; stroke: #ff0000; stroke-width: 0.5; stroke-linecap: round"/>
   </g>
   <g id="line2d_23">
    <path d="M 54.545602 64.644383 
L 57.824941 67.207935 
L 61.10428 69.834631 
L 64.383619 72.536878 
L 67.662958 75.079594 
L 70.942296 77.537561 
L 74.221636 79.714906 
L 77.500973 81.963231 
L 80.780313 83.719551 
L 84.059653 85.282034 
L 87.33899 86.731253 
L 90.61833 87.939906 
L 93.89767 89.090799 
L 97.177007 90.0289 
L 100.456344 90.914007 
L 103.735686 91.800403 
L 107.015024 92.415699 
L 110.294361 93.363095 
L 113.573703 94.171383 
L 116.853041 95.040048 
L 120.132378 96.031197 
L 123.41172 97.240594 
L 126.691057 98.619383 
L 129.970395 99.900652 
L 133.249737 101.220835 
L 136.529069 102.692364 
L 139.808412 104.143408 
L 143.087754 105.583251 
L 146.367086 106.882027 
L 149.646428 108.216641 
L 152.92577 109.372692 
L 156.205103 110.675682 
L 159.484445 111.645309 
L 162.763787 112.49044 
L 166.04312 113.36896 
L 169.322462 113.988252 
L 172.601804 114.639802 
L 175.881137 115.128123 
L 179.160479 115.677919 
L 182.439821 116.085823 
L 185.719153 116.606706 
L 188.998496 117.273611 
L 192.277838 117.665672 
L 195.55717 118.337654 
L 198.836512 118.870725 
L 202.115855 119.749448 
L 205.395187 120.458965 
L 208.674529 121.493762 
L 211.953871 122.316931 
L 215.233204 123.268387 
L 218.512556 124.243598 
L 221.791879 125.157781 
L 225.071221 126.105213 
L 228.350563 127.055704 
L 231.629886 127.928601 
L 234.909247 128.698463 
L 238.18857 129.520067 
L 241.467912 130.200534 
L 244.747254 130.823375 
L 248.026597 131.210164 
L 251.305939 131.848443 
L 254.585262 132.025476 
L 257.864623 132.105266 
L 261.143946 132.135903 
L 264.423288 131.945789 
L 267.70263 131.601683 
L 270.981953 130.971868 
L 274.261315 130.260494 
L 277.540637 129.292205 
L 280.81998 128.255907 
L 284.099322 126.835304 
L 287.378664 125.317325 
L 290.658006 123.537538 
L 293.937329 121.634549 
L 297.21669 119.688104 
L 300.496013 117.47837 
L 303.775355 115.169994 
L 307.054697 112.917774 
L 310.33402 110.51429 
L 313.613382 108.029858 
L 316.892705 105.697993 
L 320.172047 103.322077 
L 323.451389 101.149996 
L 326.730731 99.114357 
L 330.010073 96.989868 
L 333.289396 95.403856 
L 336.568738 93.914379 
L 339.84808 92.78601 
L 343.127423 91.756467 
L 346.406765 91.137824 
L 349.686088 90.911304 
L 352.96543 90.785594 
L 356.244772 91.12772 
L 359.524114 91.771622 
L 362.803456 92.521678 
L 366.082798 93.364414 
L 369.362141 94.588544 
L 372.641463 95.70843 
L 375.920806 96.858684 
L 379.200148 98.106843 
" clip-path="url(#pd1488a2888)" style="fill: none; stroke: #ff0000; stroke-width: 0.5; stroke-linecap: round"/>
   </g>
   <g id="line2d_24">
    <path d="M 54.545602 105.80178 
L 57.824941 104.714694 
L 61.10428 103.702785 
L 64.383619 102.848846 
L 67.662958 102.218226 
L 70.942296 101.612853 
L 74.221636 100.986852 
L 77.500973 100.690592 
L 80.780313 99.910193 
L 84.059653 99.330203 
L 87.33899 98.621247 
L 90.61833 97.784515 
L 93.89767 97.08332 
L 97.177007 96.168062 
L 100.456344 95.135301 
L 103.735686 93.913003 
L 107.015024 92.929336 
L 110.294361 91.723086 
L 113.573703 90.727384 
L 116.853041 89.750403 
L 120.132378 88.963119 
L 123.41172 88.389289 
L 126.691057 88.011934 
L 129.970395 87.944734 
L 133.249737 88.309165 
L 136.529069 88.733377 
L 139.808412 89.616745 
L 143.087754 90.708035 
L 146.367086 92.22567 
L 149.646428 93.79871 
L 152.92577 95.642106 
L 156.205103 97.878279 
L 159.484445 100.008452 
L 162.763787 102.357728 
L 166.04312 104.499049 
L 169.322462 106.828358 
L 172.601804 108.814826 
L 175.881137 110.808479 
L 179.160479 112.450016 
L 182.439821 113.821142 
L 185.719153 114.910413 
L 188.998496 115.689826 
L 192.277838 115.89574 
L 195.55717 115.971336 
L 198.836512 115.487636 
L 202.115855 114.651878 
L 205.395187 113.560522 
L 208.674529 112.037591 
L 211.953871 110.335329 
L 215.233204 108.208729 
L 218.512556 105.709366 
L 221.791879 103.311397 
L 225.071221 100.598773 
L 228.350563 97.713931 
L 231.629886 94.673891 
L 234.909247 91.683291 
L 238.18857 88.594481 
L 241.467912 85.335328 
L 244.747254 82.27753 
L 248.026597 78.932044 
L 251.305939 75.65998 
L 254.585262 72.477942 
L 257.864623 69.416485 
L 261.143946 66.180144 
L 264.423288 63.031807 
L 267.70263 59.951443 
L 270.981953 56.948277 
L 274.261315 54.008509 
L 277.540637 51.458758 
L 280.81998 48.963145 
L 284.099322 46.724637 
L 287.378664 44.725995 
L 290.658006 43.295582 
L 293.937329 42.01897 
L 297.21669 41.267483 
L 300.496013 41.162839 
L 303.775355 41.42931 
L 307.054697 42.391886 
L 310.33402 44.01152 
L 313.613382 46.099235 
L 316.892705 48.941795 
L 320.172047 52.413783 
L 323.451389 56.416984 
L 326.730731 60.861369 
L 330.010073 65.99259 
L 333.289396 71.429742 
L 336.568738 77.414478 
L 339.84808 83.7695 
L 343.127423 90.195004 
L 346.406765 97.019547 
L 349.686088 103.95217 
L 352.96543 110.87554 
L 356.244772 117.946774 
L 359.524114 124.819767 
L 362.803456 131.5442 
L 366.082798 138.164969 
L 369.362141 144.527596 
L 372.641463 150.619323 
L 375.920806 156.234555 
L 379.200148 161.616621 
" clip-path="url(#pd1488a2888)" style="fill: none; stroke: #ff0000; stroke-width: 0.5; stroke-linecap: round"/>
   </g>
   <g id="line2d_25">
    <path d="M 54.545602 94.7963 
L 57.824941 91.527971 
L 61.10428 88.7275 
L 64.383619 85.972054 
L 67.662958 83.422463 
L 70.942296 81.182968 
L 74.221636 79.257672 
L 77.500973 77.455343 
L 80.780313 76.007479 
L 84.059653 74.925707 
L 87.33899 73.949522 
L 90.61833 73.515615 
L 93.89767 73.374016 
L 97.177007 73.681664 
L 100.456344 74.3853 
L 103.735686 75.457746 
L 107.015024 76.721683 
L 110.294361 78.587966 
L 113.573703 80.514331 
L 116.853041 82.966024 
L 120.132378 85.212717 
L 123.41172 88.154301 
L 126.691057 90.777831 
L 129.970395 93.552703 
L 133.249737 96.348026 
L 136.529069 99.002517 
L 139.808412 101.706541 
L 143.087754 103.989928 
L 146.367086 106.33713 
L 149.646428 108.297742 
L 152.92577 110.13085 
L 156.205103 111.633469 
L 159.484445 112.705869 
L 162.763787 113.77153 
L 166.04312 114.49129 
L 169.322462 114.896617 
L 172.601804 115.114783 
L 175.881137 115.071711 
L 179.160479 114.77397 
L 182.439821 114.336503 
L 185.719153 113.550422 
L 188.998496 112.676652 
L 192.277838 111.490743 
L 195.55717 110.272912 
L 198.836512 108.690855 
L 202.115855 106.954967 
L 205.395187 104.975668 
L 208.674529 102.892209 
L 211.953871 100.600362 
L 215.233204 97.982116 
L 218.512556 95.170244 
L 221.791879 92.309394 
L 225.071221 89.19898 
L 228.350563 85.903088 
L 231.629886 82.612794 
L 234.909247 79.061684 
L 238.18857 75.407014 
L 241.467912 71.706987 
L 244.747254 67.892433 
L 248.026597 64.01382 
L 251.305939 60.149759 
L 254.585262 56.248647 
L 257.864623 52.427568 
L 261.143946 48.449049 
L 264.423288 44.650988 
L 267.70263 41.172072 
L 270.981953 37.567119 
L 274.261315 34.269385 
L 277.540637 31.124073 
L 280.81998 28.31525 
L 284.099322 25.651452 
L 287.378664 23.489671 
L 290.658006 21.858671 
L 293.937329 20.446409 
L 297.21669 19.576679 
L 300.496013 19.296 
L 303.775355 19.557273 
L 307.054697 20.495942 
L 310.33402 22.004579 
L 313.613382 24.198472 
L 316.892705 27.039308 
L 320.172047 30.434607 
L 323.451389 34.535571 
L 326.730731 39.248931 
L 330.010073 44.45031 
L 333.289396 50.187217 
L 336.568738 56.384757 
L 339.84808 62.917166 
L 343.127423 69.900472 
L 346.406765 77.044779 
L 349.686088 84.384785 
L 352.96543 91.749775 
L 356.244772 99.071043 
L 359.524114 106.603197 
L 362.803456 113.7611 
L 366.082798 120.612033 
L 369.362141 127.186744 
L 372.641463 133.379801 
L 375.920806 139.033197 
L 379.200148 144.059406 
" clip-path="url(#pd1488a2888)" style="fill: none; stroke: #ff0000; stroke-width: 0.5; stroke-linecap: round"/>
   </g>
   <g id="line2d_26">
    <path d="M 54.545602 130.970835 
L 57.824941 129.916773 
L 61.10428 128.596295 
L 64.383619 126.985489 
L 67.662958 125.441002 
L 70.942296 123.760637 
L 74.221636 122.102891 
L 77.500973 120.632287 
L 80.780313 119.153572 
L 84.059653 118.09781 
L 87.33899 117.016698 
L 90.61833 116.396007 
L 93.89767 116.096687 
L 97.177007 116.09676 
L 100.456344 116.392089 
L 103.735686 116.845121 
L 107.015024 117.641414 
L 110.294361 118.845276 
L 113.573703 120.046415 
L 116.853041 121.61104 
L 120.132378 123.187084 
L 123.41172 124.644856 
L 126.691057 126.298024 
L 129.970395 127.773446 
L 133.249737 129.070521 
L 136.529069 130.362049 
L 139.808412 131.231903 
L 143.087754 131.91968 
L 146.367086 132.377318 
L 149.646428 132.399765 
L 152.92577 132.068912 
L 156.205103 131.355124 
L 159.484445 130.556963 
L 162.763787 129.404862 
L 166.04312 128.026688 
L 169.322462 126.212781 
L 172.601804 124.610365 
L 175.881137 122.801676 
L 179.160479 121.132417 
L 182.439821 119.444389 
L 185.719153 117.918987 
L 188.998496 116.710959 
L 192.277838 115.722029 
L 195.55717 115.14755 
L 198.836512 114.907624 
L 202.115855 114.925155 
L 205.395187 115.48817 
L 208.674529 116.40678 
L 211.953871 117.545154 
L 215.233204 118.965423 
L 218.512556 120.668079 
L 221.791879 122.570824 
L 225.071221 124.38858 
L 228.350563 126.343002 
L 231.629886 128.127918 
L 234.909247 129.703254 
L 238.18857 131.027414 
L 241.467912 132.149251 
L 244.747254 132.819057 
L 248.026597 133.620793 
L 251.305939 133.650312 
L 254.585262 133.407376 
L 257.864623 132.999684 
L 261.143946 132.204339 
L 264.423288 131.263348 
L 267.70263 130.088702 
L 270.981953 128.6947 
L 274.261315 127.386712 
L 277.540637 125.944303 
L 280.81998 124.46481 
L 284.099322 123.044801 
L 287.378664 121.84973 
L 290.658006 120.488105 
L 293.937329 119.42548 
L 297.21669 118.315696 
L 300.496013 117.616565 
L 303.775355 116.919218 
L 307.054697 116.355359 
L 310.33402 115.912049 
L 313.613382 115.487184 
L 316.892705 115.33735 
L 320.172047 115.01582 
L 323.451389 114.77592 
L 326.730731 114.57262 
L 330.010073 114.284091 
L 333.289396 113.879998 
L 336.568738 113.64923 
L 339.84808 113.070548 
L 343.127423 112.371197 
L 346.406765 111.565739 
L 349.686088 110.708379 
L 352.96543 109.445499 
L 356.244772 108.136745 
L 359.524114 106.60419 
L 362.803456 105.018402 
L 366.082798 103.172535 
L 369.362141 101.222585 
L 372.641463 99.098651 
L 375.920806 97.054283 
L 379.200148 95.027637 
" clip-path="url(#pd1488a2888)" style="fill: none; stroke: #ff0000; stroke-width: 0.5; stroke-linecap: round"/>
   </g>
   <g id="line2d_27"/>
   <g id="patch_3">
    <path d="M 38.312875 261.272337 
L 38.312875 22.106762 
" style="fill: none; stroke: #262626; stroke-linejoin: miter; stroke-linecap: square"/>
   </g>
   <g id="patch_4">
    <path d="M 54.545602 273.312 
L 379.200148 273.312 
" style="fill: none; stroke: #262626; stroke-linejoin: miter; stroke-linecap: square"/>
   </g>
   <g id="legend_1">
    <g id="line2d_28">
     <g>
      <use xlink:href="#m8e4aca2a1f" x="55.032875" y="194.65925" style="stroke: #000000; stroke-width: 2"/>
     </g>
    </g>
    <g id="text_16">
     <!-- Observations -->
     <g style="fill: #262626" transform="translate(70.872875 197.73925) scale(0.088 -0.088)">
      <defs>
       <path id="ArialMT-4f" d="M 309 2231 
Q 309 3372 921 4017 
Q 1534 4663 2503 4663 
Q 3138 4663 3647 4359 
Q 4156 4056 4423 3514 
Q 4691 2972 4691 2284 
Q 4691 1588 4409 1038 
Q 4128 488 3612 205 
Q 3097 -78 2500 -78 
Q 1853 -78 1343 234 
Q 834 547 571 1087 
Q 309 1628 309 2231 
z
M 934 2222 
Q 934 1394 1379 917 
Q 1825 441 2497 441 
Q 3181 441 3623 922 
Q 4066 1403 4066 2288 
Q 4066 2847 3877 3264 
Q 3688 3681 3323 3911 
Q 2959 4141 2506 4141 
Q 1863 4141 1398 3698 
Q 934 3256 934 2222 
z
" transform="scale(0.015625)"/>
       <path id="ArialMT-62" d="M 941 0 
L 419 0 
L 419 4581 
L 981 4581 
L 981 2947 
Q 1338 3394 1891 3394 
Q 2197 3394 2470 3270 
Q 2744 3147 2920 2923 
Q 3097 2700 3197 2384 
Q 3297 2069 3297 1709 
Q 3297 856 2875 390 
Q 2453 -75 1863 -75 
Q 1275 -75 941 416 
L 941 0 
z
M 934 1684 
Q 934 1088 1097 822 
Q 1363 388 1816 388 
Q 2184 388 2453 708 
Q 2722 1028 2722 1663 
Q 2722 2313 2464 2622 
Q 2206 2931 1841 2931 
Q 1472 2931 1203 2611 
Q 934 2291 934 1684 
z
" transform="scale(0.015625)"/>
       <path id="ArialMT-73" d="M 197 991 
L 753 1078 
Q 800 744 1014 566 
Q 1228 388 1613 388 
Q 2000 388 2187 545 
Q 2375 703 2375 916 
Q 2375 1106 2209 1216 
Q 2094 1291 1634 1406 
Q 1016 1563 777 1677 
Q 538 1791 414 1992 
Q 291 2194 291 2438 
Q 291 2659 392 2848 
Q 494 3038 669 3163 
Q 800 3259 1026 3326 
Q 1253 3394 1513 3394 
Q 1903 3394 2198 3281 
Q 2494 3169 2634 2976 
Q 2775 2784 2828 2463 
L 2278 2388 
Q 2241 2644 2061 2787 
Q 1881 2931 1553 2931 
Q 1166 2931 1000 2803 
Q 834 2675 834 2503 
Q 834 2394 903 2306 
Q 972 2216 1119 2156 
Q 1203 2125 1616 2013 
Q 2213 1853 2448 1751 
Q 2684 1650 2818 1456 
Q 2953 1263 2953 975 
Q 2953 694 2789 445 
Q 2625 197 2315 61 
Q 2006 -75 1616 -75 
Q 969 -75 630 194 
Q 291 463 197 991 
z
" transform="scale(0.015625)"/>
       <path id="ArialMT-65" d="M 2694 1069 
L 3275 997 
Q 3138 488 2766 206 
Q 2394 -75 1816 -75 
Q 1088 -75 661 373 
Q 234 822 234 1631 
Q 234 2469 665 2931 
Q 1097 3394 1784 3394 
Q 2450 3394 2872 2941 
Q 3294 2488 3294 1666 
Q 3294 1616 3291 1516 
L 816 1516 
Q 847 969 1125 678 
Q 1403 388 1819 388 
Q 2128 388 2347 550 
Q 2566 713 2694 1069 
z
M 847 1978 
L 2700 1978 
Q 2663 2397 2488 2606 
Q 2219 2931 1791 2931 
Q 1403 2931 1139 2672 
Q 875 2413 847 1978 
z
" transform="scale(0.015625)"/>
       <path id="ArialMT-72" d="M 416 0 
L 416 3319 
L 922 3319 
L 922 2816 
Q 1116 3169 1280 3281 
Q 1444 3394 1641 3394 
Q 1925 3394 2219 3213 
L 2025 2691 
Q 1819 2813 1613 2813 
Q 1428 2813 1281 2702 
Q 1134 2591 1072 2394 
Q 978 2094 978 1738 
L 978 0 
L 416 0 
z
" transform="scale(0.015625)"/>
       <path id="ArialMT-76" d="M 1344 0 
L 81 3319 
L 675 3319 
L 1388 1331 
Q 1503 1009 1600 663 
Q 1675 925 1809 1294 
L 2547 3319 
L 3125 3319 
L 1869 0 
L 1344 0 
z
" transform="scale(0.015625)"/>
       <path id="ArialMT-61" d="M 2588 409 
Q 2275 144 1986 34 
Q 1697 -75 1366 -75 
Q 819 -75 525 192 
Q 231 459 231 875 
Q 231 1119 342 1320 
Q 453 1522 633 1644 
Q 813 1766 1038 1828 
Q 1203 1872 1538 1913 
Q 2219 1994 2541 2106 
Q 2544 2222 2544 2253 
Q 2544 2597 2384 2738 
Q 2169 2928 1744 2928 
Q 1347 2928 1158 2789 
Q 969 2650 878 2297 
L 328 2372 
Q 403 2725 575 2942 
Q 747 3159 1072 3276 
Q 1397 3394 1825 3394 
Q 2250 3394 2515 3294 
Q 2781 3194 2906 3042 
Q 3031 2891 3081 2659 
Q 3109 2516 3109 2141 
L 3109 1391 
Q 3109 606 3145 398 
Q 3181 191 3288 0 
L 2700 0 
Q 2613 175 2588 409 
z
M 2541 1666 
Q 2234 1541 1622 1453 
Q 1275 1403 1131 1340 
Q 988 1278 909 1158 
Q 831 1038 831 891 
Q 831 666 1001 516 
Q 1172 366 1500 366 
Q 1825 366 2078 508 
Q 2331 650 2450 897 
Q 2541 1088 2541 1459 
L 2541 1666 
z
" transform="scale(0.015625)"/>
       <path id="ArialMT-74" d="M 1650 503 
L 1731 6 
Q 1494 -44 1306 -44 
Q 1000 -44 831 53 
Q 663 150 594 308 
Q 525 466 525 972 
L 525 2881 
L 113 2881 
L 113 3319 
L 525 3319 
L 525 4141 
L 1084 4478 
L 1084 3319 
L 1650 3319 
L 1650 2881 
L 1084 2881 
L 1084 941 
Q 1084 700 1114 631 
Q 1144 563 1211 522 
Q 1278 481 1403 481 
Q 1497 481 1650 503 
z
" transform="scale(0.015625)"/>
       <path id="ArialMT-69" d="M 425 3934 
L 425 4581 
L 988 4581 
L 988 3934 
L 425 3934 
z
M 425 0 
L 425 3319 
L 988 3319 
L 988 0 
L 425 0 
z
" transform="scale(0.015625)"/>
       <path id="ArialMT-6f" d="M 213 1659 
Q 213 2581 725 3025 
Q 1153 3394 1769 3394 
Q 2453 3394 2887 2945 
Q 3322 2497 3322 1706 
Q 3322 1066 3130 698 
Q 2938 331 2570 128 
Q 2203 -75 1769 -75 
Q 1072 -75 642 372 
Q 213 819 213 1659 
z
M 791 1659 
Q 791 1022 1069 705 
Q 1347 388 1769 388 
Q 2188 388 2466 706 
Q 2744 1025 2744 1678 
Q 2744 2294 2464 2611 
Q 2184 2928 1769 2928 
Q 1347 2928 1069 2612 
Q 791 2297 791 1659 
z
" transform="scale(0.015625)"/>
       <path id="ArialMT-6e" d="M 422 0 
L 422 3319 
L 928 3319 
L 928 2847 
Q 1294 3394 1984 3394 
Q 2284 3394 2536 3286 
Q 2788 3178 2913 3003 
Q 3038 2828 3088 2588 
Q 3119 2431 3119 2041 
L 3119 0 
L 2556 0 
L 2556 2019 
Q 2556 2363 2490 2533 
Q 2425 2703 2258 2804 
Q 2091 2906 1866 2906 
Q 1506 2906 1245 2678 
Q 984 2450 984 1813 
L 984 0 
L 422 0 
z
" transform="scale(0.015625)"/>
      </defs>
      <use xlink:href="#ArialMT-4f"/>
      <use xlink:href="#ArialMT-62" x="77.783203"/>
      <use xlink:href="#ArialMT-73" x="133.398438"/>
      <use xlink:href="#ArialMT-65" x="183.398438"/>
      <use xlink:href="#ArialMT-72" x="239.013672"/>
      <use xlink:href="#ArialMT-76" x="272.314453"/>
      <use xlink:href="#ArialMT-61" x="322.314453"/>
      <use xlink:href="#ArialMT-74" x="377.929688"/>
      <use xlink:href="#ArialMT-69" x="405.712891"/>
      <use xlink:href="#ArialMT-6f" x="427.929688"/>
      <use xlink:href="#ArialMT-6e" x="483.544922"/>
      <use xlink:href="#ArialMT-73" x="539.160156"/>
     </g>
    </g>
    <g id="line2d_29">
     <path d="M 46.232875 207.24325 
L 55.032875 207.24325 
L 63.832875 207.24325 
" style="fill: none; stroke: #1f77b4; stroke-width: 2; stroke-linecap: round"/>
    </g>
    <g id="text_17">
     <!-- $m_n(x)$ -->
     <g style="fill: #262626" transform="translate(70.872875 210.32325) scale(0.088 -0.088)">
      <defs>
       <path id="DejaVuSans-Oblique-6d" d="M 5747 2113 
L 5338 0 
L 4763 0 
L 5166 2094 
Q 5191 2228 5203 2325 
Q 5216 2422 5216 2491 
Q 5216 2772 5059 2928 
Q 4903 3084 4622 3084 
Q 4203 3084 3875 2770 
Q 3547 2456 3450 1953 
L 3066 0 
L 2491 0 
L 2900 2094 
Q 2925 2209 2937 2307 
Q 2950 2406 2950 2484 
Q 2950 2769 2794 2926 
Q 2638 3084 2363 3084 
Q 1938 3084 1609 2770 
Q 1281 2456 1184 1953 
L 800 0 
L 225 0 
L 909 3500 
L 1484 3500 
L 1375 2956 
Q 1609 3263 1923 3423 
Q 2238 3584 2597 3584 
Q 2978 3584 3223 3384 
Q 3469 3184 3519 2828 
Q 3781 3197 4126 3390 
Q 4472 3584 4856 3584 
Q 5306 3584 5551 3325 
Q 5797 3066 5797 2591 
Q 5797 2488 5784 2364 
Q 5772 2241 5747 2113 
z
" transform="scale(0.015625)"/>
       <path id="DejaVuSans-Oblique-6e" d="M 3566 2113 
L 3156 0 
L 2578 0 
L 2988 2091 
Q 3016 2238 3031 2350 
Q 3047 2463 3047 2528 
Q 3047 2791 2881 2937 
Q 2716 3084 2419 3084 
Q 1956 3084 1622 2776 
Q 1288 2469 1184 1941 
L 800 0 
L 225 0 
L 903 3500 
L 1478 3500 
L 1363 2950 
Q 1603 3253 1940 3418 
Q 2278 3584 2650 3584 
Q 3113 3584 3367 3334 
Q 3622 3084 3622 2631 
Q 3622 2519 3608 2391 
Q 3594 2263 3566 2113 
z
" transform="scale(0.015625)"/>
       <path id="DejaVuSans-28" d="M 1984 4856 
Q 1566 4138 1362 3434 
Q 1159 2731 1159 2009 
Q 1159 1288 1364 580 
Q 1569 -128 1984 -844 
L 1484 -844 
Q 1016 -109 783 600 
Q 550 1309 550 2009 
Q 550 2706 781 3412 
Q 1013 4119 1484 4856 
L 1984 4856 
z
" transform="scale(0.015625)"/>
       <path id="DejaVuSans-29" d="M 513 4856 
L 1013 4856 
Q 1481 4119 1714 3412 
Q 1947 2706 1947 2009 
Q 1947 1309 1714 600 
Q 1481 -109 1013 -844 
L 513 -844 
Q 928 -128 1133 580 
Q 1338 1288 1338 2009 
Q 1338 2731 1133 3434 
Q 928 4138 513 4856 
z
" transform="scale(0.015625)"/>
      </defs>
      <use xlink:href="#DejaVuSans-Oblique-6d" transform="translate(0 0.125)"/>
      <use xlink:href="#DejaVuSans-Oblique-6e" transform="translate(97.412109 -16.28125) scale(0.7)"/>
      <use xlink:href="#DejaVuSans-28" transform="translate(144.511719 0.125)"/>
      <use xlink:href="#DejaVuSans-Oblique-78" transform="translate(183.525391 0.125)"/>
      <use xlink:href="#DejaVuSans-29" transform="translate(242.705078 0.125)"/>
     </g>
    </g>
    <g id="patch_5">
     <path d="M 46.232875 224.48025 
L 63.832875 224.48025 
L 63.832875 218.32025 
L 46.232875 218.32025 
z
" style="fill: #1f77b4; fill-opacity: 0.5; stroke: #1f77b4; stroke-opacity: 0.5; stroke-width: 0.8; stroke-linejoin: miter"/>
    </g>
    <g id="text_18">
     <!-- $f(\mathbf{x}^*)$ 95% pred. -->
     <g style="fill: #262626" transform="translate(70.872875 224.48025) scale(0.088 -0.088)">
      <defs>
       <path id="DejaVuSans-Oblique-66" d="M 3059 4863 
L 2969 4384 
L 2419 4384 
Q 2106 4384 1964 4261 
Q 1822 4138 1753 3809 
L 1691 3500 
L 2638 3500 
L 2553 3053 
L 1606 3053 
L 1013 0 
L 434 0 
L 1031 3053 
L 481 3053 
L 563 3500 
L 1113 3500 
L 1159 3744 
Q 1278 4363 1576 4613 
Q 1875 4863 2516 4863 
L 3059 4863 
z
" transform="scale(0.015625)"/>
       <path id="DejaVuSans-Bold-78" d="M 1422 1791 
L 159 3500 
L 1344 3500 
L 2059 2463 
L 2784 3500 
L 3969 3500 
L 2706 1797 
L 4031 0 
L 2847 0 
L 2059 1106 
L 1281 0 
L 97 0 
L 1422 1791 
z
" transform="scale(0.015625)"/>
       <path id="DejaVuSans-2a" d="M 3009 3897 
L 1888 3291 
L 3009 2681 
L 2828 2375 
L 1778 3009 
L 1778 1831 
L 1422 1831 
L 1422 3009 
L 372 2375 
L 191 2681 
L 1313 3291 
L 191 3897 
L 372 4206 
L 1422 3572 
L 1422 4750 
L 1778 4750 
L 1778 3572 
L 2828 4206 
L 3009 3897 
z
" transform="scale(0.015625)"/>
       <path id="ArialMT-20" transform="scale(0.015625)"/>
       <path id="ArialMT-39" d="M 350 1059 
L 891 1109 
Q 959 728 1153 556 
Q 1347 384 1650 384 
Q 1909 384 2104 503 
Q 2300 622 2425 820 
Q 2550 1019 2634 1356 
Q 2719 1694 2719 2044 
Q 2719 2081 2716 2156 
Q 2547 1888 2255 1720 
Q 1963 1553 1622 1553 
Q 1053 1553 659 1965 
Q 266 2378 266 3053 
Q 266 3750 677 4175 
Q 1088 4600 1706 4600 
Q 2153 4600 2523 4359 
Q 2894 4119 3086 3673 
Q 3278 3228 3278 2384 
Q 3278 1506 3087 986 
Q 2897 466 2520 194 
Q 2144 -78 1638 -78 
Q 1100 -78 759 220 
Q 419 519 350 1059 
z
M 2653 3081 
Q 2653 3566 2395 3850 
Q 2138 4134 1775 4134 
Q 1400 4134 1122 3828 
Q 844 3522 844 3034 
Q 844 2597 1108 2323 
Q 1372 2050 1759 2050 
Q 2150 2050 2401 2323 
Q 2653 2597 2653 3081 
z
" transform="scale(0.015625)"/>
       <path id="ArialMT-35" d="M 266 1200 
L 856 1250 
Q 922 819 1161 601 
Q 1400 384 1738 384 
Q 2144 384 2425 690 
Q 2706 997 2706 1503 
Q 2706 1984 2436 2262 
Q 2166 2541 1728 2541 
Q 1456 2541 1237 2417 
Q 1019 2294 894 2097 
L 366 2166 
L 809 4519 
L 3088 4519 
L 3088 3981 
L 1259 3981 
L 1013 2750 
Q 1425 3038 1878 3038 
Q 2478 3038 2890 2622 
Q 3303 2206 3303 1553 
Q 3303 931 2941 478 
Q 2500 -78 1738 -78 
Q 1113 -78 717 272 
Q 322 622 266 1200 
z
" transform="scale(0.015625)"/>
       <path id="ArialMT-25" d="M 372 3481 
Q 372 3972 619 4315 
Q 866 4659 1334 4659 
Q 1766 4659 2048 4351 
Q 2331 4044 2331 3447 
Q 2331 2866 2045 2552 
Q 1759 2238 1341 2238 
Q 925 2238 648 2547 
Q 372 2856 372 3481 
z
M 1350 4272 
Q 1141 4272 1002 4090 
Q 863 3909 863 3425 
Q 863 2984 1003 2804 
Q 1144 2625 1350 2625 
Q 1563 2625 1702 2806 
Q 1841 2988 1841 3469 
Q 1841 3913 1700 4092 
Q 1559 4272 1350 4272 
z
M 1353 -169 
L 3859 4659 
L 4316 4659 
L 1819 -169 
L 1353 -169 
z
M 3334 1075 
Q 3334 1569 3581 1911 
Q 3828 2253 4300 2253 
Q 4731 2253 5014 1945 
Q 5297 1638 5297 1041 
Q 5297 459 5011 145 
Q 4725 -169 4303 -169 
Q 3888 -169 3611 142 
Q 3334 453 3334 1075 
z
M 4316 1866 
Q 4103 1866 3964 1684 
Q 3825 1503 3825 1019 
Q 3825 581 3965 400 
Q 4106 219 4313 219 
Q 4528 219 4667 400 
Q 4806 581 4806 1063 
Q 4806 1506 4665 1686 
Q 4525 1866 4316 1866 
z
" transform="scale(0.015625)"/>
       <path id="ArialMT-70" d="M 422 -1272 
L 422 3319 
L 934 3319 
L 934 2888 
Q 1116 3141 1344 3267 
Q 1572 3394 1897 3394 
Q 2322 3394 2647 3175 
Q 2972 2956 3137 2557 
Q 3303 2159 3303 1684 
Q 3303 1175 3120 767 
Q 2938 359 2589 142 
Q 2241 -75 1856 -75 
Q 1575 -75 1351 44 
Q 1128 163 984 344 
L 984 -1272 
L 422 -1272 
z
M 931 1641 
Q 931 1000 1190 694 
Q 1450 388 1819 388 
Q 2194 388 2461 705 
Q 2728 1022 2728 1688 
Q 2728 2322 2467 2637 
Q 2206 2953 1844 2953 
Q 1484 2953 1207 2617 
Q 931 2281 931 1641 
z
" transform="scale(0.015625)"/>
       <path id="ArialMT-64" d="M 2575 0 
L 2575 419 
Q 2259 -75 1647 -75 
Q 1250 -75 917 144 
Q 584 363 401 755 
Q 219 1147 219 1656 
Q 219 2153 384 2558 
Q 550 2963 881 3178 
Q 1213 3394 1622 3394 
Q 1922 3394 2156 3267 
Q 2391 3141 2538 2938 
L 2538 4581 
L 3097 4581 
L 3097 0 
L 2575 0 
z
M 797 1656 
Q 797 1019 1065 703 
Q 1334 388 1700 388 
Q 2069 388 2326 689 
Q 2584 991 2584 1609 
Q 2584 2291 2321 2609 
Q 2059 2928 1675 2928 
Q 1300 2928 1048 2622 
Q 797 2316 797 1656 
z
" transform="scale(0.015625)"/>
      </defs>
      <use xlink:href="#DejaVuSans-Oblique-66" transform="translate(0 0.765625)"/>
      <use xlink:href="#DejaVuSans-28" transform="translate(35.205078 0.765625)"/>
      <use xlink:href="#DejaVuSans-Bold-78" transform="translate(74.21875 0.765625)"/>
      <use xlink:href="#DejaVuSans-2a" transform="translate(153.31543 39.046875) scale(0.7)"/>
      <use xlink:href="#DejaVuSans-29" transform="translate(204.6875 0.765625)"/>
      <use xlink:href="#ArialMT-20" transform="translate(243.701172 0.765625)"/>
      <use xlink:href="#ArialMT-39" transform="translate(271.484375 0.765625)"/>
      <use xlink:href="#ArialMT-35" transform="translate(327.099609 0.765625)"/>
      <use xlink:href="#ArialMT-25" transform="translate(382.714844 0.765625)"/>
      <use xlink:href="#ArialMT-20" transform="translate(471.630859 0.765625)"/>
      <use xlink:href="#ArialMT-70" transform="translate(499.414062 0.765625)"/>
      <use xlink:href="#ArialMT-72" transform="translate(555.029297 0.765625)"/>
      <use xlink:href="#ArialMT-65" transform="translate(588.330078 0.765625)"/>
      <use xlink:href="#ArialMT-64" transform="translate(643.945312 0.765625)"/>
      <use xlink:href="#ArialMT-2e" transform="translate(699.560547 0.765625)"/>
     </g>
    </g>
    <g id="patch_6">
     <path d="M 46.232875 238.64825 
L 63.832875 238.64825 
L 63.832875 232.48825 
L 46.232875 232.48825 
z
" style="fill: #ff7f0e; fill-opacity: 0.5; stroke: #ff7f0e; stroke-opacity: 0.5; stroke-width: 0.8; stroke-linejoin: miter"/>
    </g>
    <g id="text_19">
     <!-- $y^*$ 95% pred. -->
     <g style="fill: #262626" transform="translate(70.872875 238.64825) scale(0.088 -0.088)">
      <use xlink:href="#DejaVuSans-Oblique-79" transform="translate(0 0.765625)"/>
      <use xlink:href="#DejaVuSans-2a" transform="translate(77.283529 39.046875) scale(0.7)"/>
      <use xlink:href="#ArialMT-20" transform="translate(128.655599 0.765625)"/>
      <use xlink:href="#ArialMT-39" transform="translate(156.438802 0.765625)"/>
      <use xlink:href="#ArialMT-35" transform="translate(212.054036 0.765625)"/>
      <use xlink:href="#ArialMT-25" transform="translate(267.669271 0.765625)"/>
      <use xlink:href="#ArialMT-20" transform="translate(356.585286 0.765625)"/>
      <use xlink:href="#ArialMT-70" transform="translate(384.36849 0.765625)"/>
      <use xlink:href="#ArialMT-72" transform="translate(439.983724 0.765625)"/>
      <use xlink:href="#ArialMT-65" transform="translate(473.284505 0.765625)"/>
      <use xlink:href="#ArialMT-64" transform="translate(528.89974 0.765625)"/>
      <use xlink:href="#ArialMT-2e" transform="translate(584.514974 0.765625)"/>
     </g>
    </g>
    <g id="line2d_30">
     <path d="M 46.232875 248.115125 
L 55.032875 248.115125 
L 63.832875 248.115125 
" style="fill: none; stroke-dasharray: 7.68,1.92,1.2,1.92; stroke-dashoffset: 0; stroke: #bf00bf; stroke-width: 1.2"/>
    </g>
    <g id="text_20">
     <!-- True function -->
     <g style="fill: #262626" transform="translate(70.872875 251.195125) scale(0.088 -0.088)">
      <defs>
       <path id="ArialMT-54" d="M 1659 0 
L 1659 4041 
L 150 4041 
L 150 4581 
L 3781 4581 
L 3781 4041 
L 2266 4041 
L 2266 0 
L 1659 0 
z
" transform="scale(0.015625)"/>
       <path id="ArialMT-75" d="M 2597 0 
L 2597 488 
Q 2209 -75 1544 -75 
Q 1250 -75 995 37 
Q 741 150 617 320 
Q 494 491 444 738 
Q 409 903 409 1263 
L 409 3319 
L 972 3319 
L 972 1478 
Q 972 1038 1006 884 
Q 1059 663 1231 536 
Q 1403 409 1656 409 
Q 1909 409 2131 539 
Q 2353 669 2445 892 
Q 2538 1116 2538 1541 
L 2538 3319 
L 3100 3319 
L 3100 0 
L 2597 0 
z
" transform="scale(0.015625)"/>
       <path id="ArialMT-66" d="M 556 0 
L 556 2881 
L 59 2881 
L 59 3319 
L 556 3319 
L 556 3672 
Q 556 4006 616 4169 
Q 697 4388 901 4523 
Q 1106 4659 1475 4659 
Q 1713 4659 2000 4603 
L 1916 4113 
Q 1741 4144 1584 4144 
Q 1328 4144 1222 4034 
Q 1116 3925 1116 3625 
L 1116 3319 
L 1763 3319 
L 1763 2881 
L 1116 2881 
L 1116 0 
L 556 0 
z
" transform="scale(0.015625)"/>
       <path id="ArialMT-63" d="M 2588 1216 
L 3141 1144 
Q 3050 572 2676 248 
Q 2303 -75 1759 -75 
Q 1078 -75 664 370 
Q 250 816 250 1647 
Q 250 2184 428 2587 
Q 606 2991 970 3192 
Q 1334 3394 1763 3394 
Q 2303 3394 2647 3120 
Q 2991 2847 3088 2344 
L 2541 2259 
Q 2463 2594 2264 2762 
Q 2066 2931 1784 2931 
Q 1359 2931 1093 2626 
Q 828 2322 828 1663 
Q 828 994 1084 691 
Q 1341 388 1753 388 
Q 2084 388 2306 591 
Q 2528 794 2588 1216 
z
" transform="scale(0.015625)"/>
      </defs>
      <use xlink:href="#ArialMT-54"/>
      <use xlink:href="#ArialMT-72" x="57.333984"/>
      <use xlink:href="#ArialMT-75" x="90.634766"/>
      <use xlink:href="#ArialMT-65" x="146.25"/>
      <use xlink:href="#ArialMT-20" x="201.865234"/>
      <use xlink:href="#ArialMT-66" x="229.648438"/>
      <use xlink:href="#ArialMT-75" x="257.431641"/>
      <use xlink:href="#ArialMT-6e" x="313.046875"/>
      <use xlink:href="#ArialMT-63" x="368.662109"/>
      <use xlink:href="#ArialMT-74" x="418.662109"/>
      <use xlink:href="#ArialMT-69" x="446.445312"/>
      <use xlink:href="#ArialMT-6f" x="468.662109"/>
      <use xlink:href="#ArialMT-6e" x="524.277344"/>
     </g>
    </g>
    <g id="line2d_31">
     <path d="M 46.232875 260.563 
L 55.032875 260.563 
L 63.832875 260.563 
" style="fill: none; stroke: #ff0000; stroke-width: 0.5; stroke-linecap: round"/>
    </g>
    <g id="text_21">
     <!-- Posterior samples -->
     <g style="fill: #262626" transform="translate(70.872875 263.643) scale(0.088 -0.088)">
      <defs>
       <path id="ArialMT-50" d="M 494 0 
L 494 4581 
L 2222 4581 
Q 2678 4581 2919 4538 
Q 3256 4481 3484 4323 
Q 3713 4166 3852 3881 
Q 3991 3597 3991 3256 
Q 3991 2672 3619 2267 
Q 3247 1863 2275 1863 
L 1100 1863 
L 1100 0 
L 494 0 
z
M 1100 2403 
L 2284 2403 
Q 2872 2403 3119 2622 
Q 3366 2841 3366 3238 
Q 3366 3525 3220 3729 
Q 3075 3934 2838 4000 
Q 2684 4041 2272 4041 
L 1100 4041 
L 1100 2403 
z
" transform="scale(0.015625)"/>
       <path id="ArialMT-6d" d="M 422 0 
L 422 3319 
L 925 3319 
L 925 2853 
Q 1081 3097 1340 3245 
Q 1600 3394 1931 3394 
Q 2300 3394 2536 3241 
Q 2772 3088 2869 2813 
Q 3263 3394 3894 3394 
Q 4388 3394 4653 3120 
Q 4919 2847 4919 2278 
L 4919 0 
L 4359 0 
L 4359 2091 
Q 4359 2428 4304 2576 
Q 4250 2725 4106 2815 
Q 3963 2906 3769 2906 
Q 3419 2906 3187 2673 
Q 2956 2441 2956 1928 
L 2956 0 
L 2394 0 
L 2394 2156 
Q 2394 2531 2256 2718 
Q 2119 2906 1806 2906 
Q 1569 2906 1367 2781 
Q 1166 2656 1075 2415 
Q 984 2175 984 1722 
L 984 0 
L 422 0 
z
" transform="scale(0.015625)"/>
       <path id="ArialMT-6c" d="M 409 0 
L 409 4581 
L 972 4581 
L 972 0 
L 409 0 
z
" transform="scale(0.015625)"/>
      </defs>
      <use xlink:href="#ArialMT-50"/>
      <use xlink:href="#ArialMT-6f" x="66.699219"/>
      <use xlink:href="#ArialMT-73" x="122.314453"/>
      <use xlink:href="#ArialMT-74" x="172.314453"/>
      <use xlink:href="#ArialMT-65" x="200.097656"/>
      <use xlink:href="#ArialMT-72" x="255.712891"/>
      <use xlink:href="#ArialMT-69" x="289.013672"/>
      <use xlink:href="#ArialMT-6f" x="311.230469"/>
      <use xlink:href="#ArialMT-72" x="366.845703"/>
      <use xlink:href="#ArialMT-20" x="400.146484"/>
      <use xlink:href="#ArialMT-73" x="427.929688"/>
      <use xlink:href="#ArialMT-61" x="477.929688"/>
      <use xlink:href="#ArialMT-6d" x="533.544922"/>
      <use xlink:href="#ArialMT-70" x="616.845703"/>
      <use xlink:href="#ArialMT-6c" x="672.460938"/>
      <use xlink:href="#ArialMT-65" x="694.677734"/>
      <use xlink:href="#ArialMT-73" x="750.292969"/>
     </g>
    </g>
   </g>
  </g>
 </g>
 <defs>
  <clipPath id="pd1488a2888">
   <rect x="38.312875" y="7.2" width="357.12" height="266.112"/>
  </clipPath>
 </defs>
</svg>