<?xml version="1.0" encoding="utf-8" standalone="no"?>
<!DOCTYPE svg PUBLIC "-//W3C//DTD SVG 1.1//EN"
  "http://www.w3.org/Graphics/SVG/1.1/DTD/svg11.dtd">
<svg xmlns:xlink="http://www.w3.org/1999/xlink" width="428.606pt" height="322.539375pt" viewBox="0 0 428.606 322.539375" xmlns="http://www.w3.org/2000/svg" version="1.1">
 <metadata>
  <rdf:RDF xmlns:dc="http://purl.org/dc/elements/1.1/" xmlns:cc="http://creativecommons.org/ns#" xmlns:rdf="http://www.w3.org/1999/02/22-rdf-syntax-ns#">
   <cc:Work>
    <dc:type rdf:resource="http://purl.org/dc/dcmitype/StillImage"/>
    <dc:date>2023-10-22T09:21:37.985397</dc:date>
    <dc:format>image/svg+xml</dc:format>
    <dc:creator>
     <cc:Agent>
      <dc:title>Matplotlib v3.7.1, https://matplotlib.org/</dc:title>
     </cc:Agent>
    </dc:creator>
   </cc:Work>
  </rdf:RDF>
 </metadata>
 <defs>
  <style type="text/css">*{stroke-linejoin: round; stroke-linecap: butt}</style>
 </defs>
 <g id="figure_1">
  <g id="patch_1">
   <path d="M 0 322.539375 
L 428.606 322.539375 
L 428.606 0 
L 0 0 
z
" style="fill: #ffffff"/>
  </g>
  <g id="axes_1">
   <g id="patch_2">
    <path d="M 38.312875 286.212 
L 395.432875 286.212 
L 395.432875 20.1 
L 38.312875 20.1 
z
" style="fill: #ffffff"/>
   </g>
   <g id="matplotlib.axis_1">
    <g id="xtick_1">
     <g id="line2d_1">
      <defs>
       <path id="ma40e09517c" d="M 0 0 
L 0 4.8 
" style="stroke: #262626"/>
      </defs>
      <g>
       <use xlink:href="#ma40e09517c" x="54.545602" y="286.212" style="fill: #262626; stroke: #262626"/>
      </g>
     </g>
     <g id="text_1">
      <!-- 0.0 -->
      <g style="fill: #262626" transform="translate(48.429602 300.810875) scale(0.088 -0.088)">
       <defs>
        <path id="ArialMT-30" d="M 266 2259 
Q 266 3072 433 3567 
Q 600 4063 929 4331 
Q 1259 4600 1759 4600 
Q 2128 4600 2406 4451 
Q 2684 4303 2865 4023 
Q 3047 3744 3150 3342 
Q 3253 2941 3253 2259 
Q 3253 1453 3087 958 
Q 2922 463 2592 192 
Q 2263 -78 1759 -78 
Q 1097 -78 719 397 
Q 266 969 266 2259 
z
M 844 2259 
Q 844 1131 1108 757 
Q 1372 384 1759 384 
Q 2147 384 2411 759 
Q 2675 1134 2675 2259 
Q 2675 3391 2411 3762 
Q 2147 4134 1753 4134 
Q 1366 4134 1134 3806 
Q 844 3388 844 2259 
z
" transform="scale(0.015625)"/>
        <path id="ArialMT-2e" d="M 581 0 
L 581 641 
L 1222 641 
L 1222 0 
L 581 0 
z
" transform="scale(0.015625)"/>
       </defs>
       <use xlink:href="#ArialMT-30"/>
       <use xlink:href="#ArialMT-2e" x="55.615234"/>
       <use xlink:href="#ArialMT-30" x="83.398438"/>
      </g>
     </g>
    </g>
    <g id="xtick_2">
     <g id="line2d_2">
      <g>
       <use xlink:href="#ma40e09517c" x="119.476511" y="286.212" style="fill: #262626; stroke: #262626"/>
      </g>
     </g>
     <g id="text_2">
      <!-- 0.2 -->
      <g style="fill: #262626" transform="translate(113.360511 300.810875) scale(0.088 -0.088)">
       <defs>
        <path id="ArialMT-32" d="M 3222 541 
L 3222 0 
L 194 0 
Q 188 203 259 391 
Q 375 700 629 1000 
Q 884 1300 1366 1694 
Q 2113 2306 2375 2664 
Q 2638 3022 2638 3341 
Q 2638 3675 2398 3904 
Q 2159 4134 1775 4134 
Q 1369 4134 1125 3890 
Q 881 3647 878 3216 
L 300 3275 
Q 359 3922 746 4261 
Q 1134 4600 1788 4600 
Q 2447 4600 2831 4234 
Q 3216 3869 3216 3328 
Q 3216 3053 3103 2787 
Q 2991 2522 2730 2228 
Q 2469 1934 1863 1422 
Q 1356 997 1212 845 
Q 1069 694 975 541 
L 3222 541 
z
" transform="scale(0.015625)"/>
       </defs>
       <use xlink:href="#ArialMT-30"/>
       <use xlink:href="#ArialMT-2e" x="55.615234"/>
       <use xlink:href="#ArialMT-32" x="83.398438"/>
      </g>
     </g>
    </g>
    <g id="xtick_3">
     <g id="line2d_3">
      <g>
       <use xlink:href="#ma40e09517c" x="184.40742" y="286.212" style="fill: #262626; stroke: #262626"/>
      </g>
     </g>
     <g id="text_3">
      <!-- 0.4 -->
      <g style="fill: #262626" transform="translate(178.29142 300.810875) scale(0.088 -0.088)">
       <defs>
        <path id="ArialMT-34" d="M 2069 0 
L 2069 1097 
L 81 1097 
L 81 1613 
L 2172 4581 
L 2631 4581 
L 2631 1613 
L 3250 1613 
L 3250 1097 
L 2631 1097 
L 2631 0 
L 2069 0 
z
M 2069 1613 
L 2069 3678 
L 634 1613 
L 2069 1613 
z
" transform="scale(0.015625)"/>
       </defs>
       <use xlink:href="#ArialMT-30"/>
       <use xlink:href="#ArialMT-2e" x="55.615234"/>
       <use xlink:href="#ArialMT-34" x="83.398438"/>
      </g>
     </g>
    </g>
    <g id="xtick_4">
     <g id="line2d_4">
      <g>
       <use xlink:href="#ma40e09517c" x="249.33833" y="286.212" style="fill: #262626; stroke: #262626"/>
      </g>
     </g>
     <g id="text_4">
      <!-- 0.6 -->
      <g style="fill: #262626" transform="translate(243.22233 300.810875) scale(0.088 -0.088)">
       <defs>
        <path id="ArialMT-36" d="M 3184 3459 
L 2625 3416 
Q 2550 3747 2413 3897 
Q 2184 4138 1850 4138 
Q 1581 4138 1378 3988 
Q 1113 3794 959 3422 
Q 806 3050 800 2363 
Q 1003 2672 1297 2822 
Q 1591 2972 1913 2972 
Q 2475 2972 2870 2558 
Q 3266 2144 3266 1488 
Q 3266 1056 3080 686 
Q 2894 316 2569 119 
Q 2244 -78 1831 -78 
Q 1128 -78 684 439 
Q 241 956 241 2144 
Q 241 3472 731 4075 
Q 1159 4600 1884 4600 
Q 2425 4600 2770 4297 
Q 3116 3994 3184 3459 
z
M 888 1484 
Q 888 1194 1011 928 
Q 1134 663 1356 523 
Q 1578 384 1822 384 
Q 2178 384 2434 671 
Q 2691 959 2691 1453 
Q 2691 1928 2437 2201 
Q 2184 2475 1800 2475 
Q 1419 2475 1153 2201 
Q 888 1928 888 1484 
z
" transform="scale(0.015625)"/>
       </defs>
       <use xlink:href="#ArialMT-30"/>
       <use xlink:href="#ArialMT-2e" x="55.615234"/>
       <use xlink:href="#ArialMT-36" x="83.398438"/>
      </g>
     </g>
    </g>
    <g id="xtick_5">
     <g id="line2d_5">
      <g>
       <use xlink:href="#ma40e09517c" x="314.269239" y="286.212" style="fill: #262626; stroke: #262626"/>
      </g>
     </g>
     <g id="text_5">
      <!-- 0.8 -->
      <g style="fill: #262626" transform="translate(308.153239 300.810875) scale(0.088 -0.088)">
       <defs>
        <path id="ArialMT-38" d="M 1131 2484 
Q 781 2613 612 2850 
Q 444 3088 444 3419 
Q 444 3919 803 4259 
Q 1163 4600 1759 4600 
Q 2359 4600 2725 4251 
Q 3091 3903 3091 3403 
Q 3091 3084 2923 2848 
Q 2756 2613 2416 2484 
Q 2838 2347 3058 2040 
Q 3278 1734 3278 1309 
Q 3278 722 2862 322 
Q 2447 -78 1769 -78 
Q 1091 -78 675 323 
Q 259 725 259 1325 
Q 259 1772 486 2073 
Q 713 2375 1131 2484 
z
M 1019 3438 
Q 1019 3113 1228 2906 
Q 1438 2700 1772 2700 
Q 2097 2700 2305 2904 
Q 2513 3109 2513 3406 
Q 2513 3716 2298 3927 
Q 2084 4138 1766 4138 
Q 1444 4138 1231 3931 
Q 1019 3725 1019 3438 
z
M 838 1322 
Q 838 1081 952 856 
Q 1066 631 1291 507 
Q 1516 384 1775 384 
Q 2178 384 2440 643 
Q 2703 903 2703 1303 
Q 2703 1709 2433 1975 
Q 2163 2241 1756 2241 
Q 1359 2241 1098 1978 
Q 838 1716 838 1322 
z
" transform="scale(0.015625)"/>
       </defs>
       <use xlink:href="#ArialMT-30"/>
       <use xlink:href="#ArialMT-2e" x="55.615234"/>
       <use xlink:href="#ArialMT-38" x="83.398438"/>
      </g>
     </g>
    </g>
    <g id="xtick_6">
     <g id="line2d_6">
      <g>
       <use xlink:href="#ma40e09517c" x="379.200148" y="286.212" style="fill: #262626; stroke: #262626"/>
      </g>
     </g>
     <g id="text_6">
      <!-- 1.0 -->
      <g style="fill: #262626" transform="translate(373.084148 300.810875) scale(0.088 -0.088)">
       <defs>
        <path id="ArialMT-31" d="M 2384 0 
L 1822 0 
L 1822 3584 
Q 1619 3391 1289 3197 
Q 959 3003 697 2906 
L 697 3450 
Q 1169 3672 1522 3987 
Q 1875 4303 2022 4600 
L 2384 4600 
L 2384 0 
z
" transform="scale(0.015625)"/>
       </defs>
       <use xlink:href="#ArialMT-31"/>
       <use xlink:href="#ArialMT-2e" x="55.615234"/>
       <use xlink:href="#ArialMT-30" x="83.398438"/>
      </g>
     </g>
    </g>
    <g id="text_7">
     <!-- $x$ -->
     <g style="fill: #262626" transform="translate(213.992875 313.431375) scale(0.096 -0.096)">
      <defs>
       <path id="DejaVuSans-Oblique-78" d="M 3841 3500 
L 2234 1784 
L 3219 0 
L 2559 0 
L 1819 1388 
L 531 0 
L -166 0 
L 1556 1844 
L 641 3500 
L 1300 3500 
L 1972 2234 
L 3144 3500 
L 3841 3500 
z
" transform="scale(0.015625)"/>
      </defs>
      <use xlink:href="#DejaVuSans-Oblique-78" transform="translate(0 0.3125)"/>
     </g>
    </g>
   </g>
   <g id="matplotlib.axis_2">
    <g id="ytick_1">
     <g id="line2d_7">
      <defs>
       <path id="m434ebe9532" d="M 0 0 
L -4.8 0 
" style="stroke: #262626"/>
      </defs>
      <g>
       <use xlink:href="#m434ebe9532" x="38.312875" y="250.855506" style="fill: #262626; stroke: #262626"/>
      </g>
     </g>
     <g id="text_8">
      <!-- −2 -->
      <g style="fill: #262626" transform="translate(19.9795 254.004943) scale(0.088 -0.088)">
       <defs>
        <path id="ArialMT-2212" d="M 3381 1997 
L 356 1997 
L 356 2522 
L 3381 2522 
L 3381 1997 
z
" transform="scale(0.015625)"/>
       </defs>
       <use xlink:href="#ArialMT-2212"/>
       <use xlink:href="#ArialMT-32" x="58.398438"/>
      </g>
     </g>
    </g>
    <g id="ytick_2">
     <g id="line2d_8">
      <g>
       <use xlink:href="#m434ebe9532" x="38.312875" y="207.212051" style="fill: #262626; stroke: #262626"/>
      </g>
     </g>
     <g id="text_9">
      <!-- 0 -->
      <g style="fill: #262626" transform="translate(25.11925 210.361488) scale(0.088 -0.088)">
       <use xlink:href="#ArialMT-30"/>
      </g>
     </g>
    </g>
    <g id="ytick_3">
     <g id="line2d_9">
      <g>
       <use xlink:href="#m434ebe9532" x="38.312875" y="163.568596" style="fill: #262626; stroke: #262626"/>
      </g>
     </g>
     <g id="text_10">
      <!-- 2 -->
      <g style="fill: #262626" transform="translate(25.11925 166.718033) scale(0.088 -0.088)">
       <use xlink:href="#ArialMT-32"/>
      </g>
     </g>
    </g>
    <g id="ytick_4">
     <g id="line2d_10">
      <g>
       <use xlink:href="#m434ebe9532" x="38.312875" y="119.92514" style="fill: #262626; stroke: #262626"/>
      </g>
     </g>
     <g id="text_11">
      <!-- 4 -->
      <g style="fill: #262626" transform="translate(25.11925 123.074578) scale(0.088 -0.088)">
       <use xlink:href="#ArialMT-34"/>
      </g>
     </g>
    </g>
    <g id="ytick_5">
     <g id="line2d_11">
      <g>
       <use xlink:href="#m434ebe9532" x="38.312875" y="76.281685" style="fill: #262626; stroke: #262626"/>
      </g>
     </g>
     <g id="text_12">
      <!-- 6 -->
      <g style="fill: #262626" transform="translate(25.11925 79.431123) scale(0.088 -0.088)">
       <use xlink:href="#ArialMT-36"/>
      </g>
     </g>
    </g>
    <g id="ytick_6">
     <g id="line2d_12">
      <g>
       <use xlink:href="#m434ebe9532" x="38.312875" y="32.63823" style="fill: #262626; stroke: #262626"/>
      </g>
     </g>
     <g id="text_13">
      <!-- 8 -->
      <g style="fill: #262626" transform="translate(25.11925 35.787667) scale(0.088 -0.088)">
       <use xlink:href="#ArialMT-38"/>
      </g>
     </g>
    </g>
    <g id="text_14">
     <!-- $y$ -->
     <g style="fill: #262626" transform="translate(13.9635 156.036) rotate(-90) scale(0.096 -0.096)">
      <defs>
       <path id="DejaVuSans-Oblique-79" d="M 1588 -325 
Q 1188 -997 936 -1164 
Q 684 -1331 294 -1331 
L -159 -1331 
L -63 -850 
L 269 -850 
Q 509 -850 678 -719 
Q 847 -588 1056 -206 
L 1234 128 
L 459 3500 
L 1069 3500 
L 1650 819 
L 3256 3500 
L 3859 3500 
L 1588 -325 
z
" transform="scale(0.015625)"/>
      </defs>
      <use xlink:href="#DejaVuSans-Oblique-79" transform="translate(0 0.3125)"/>
     </g>
    </g>
   </g>
   <g id="PolyCollection_1">
    <defs>
     <path id="me1ab34127d" d="M 54.545602 -197.189171 
L 54.545602 -54.173639 
L 57.824941 -57.453237 
L 61.10428 -60.97691 
L 64.383619 -64.731442 
L 67.662958 -68.697501 
L 70.942296 -72.849462 
L 74.221636 -77.155396 
L 77.500973 -81.577362 
L 80.780313 -86.071654 
L 84.059653 -90.589975 
L 87.33899 -95.079673 
L 90.61833 -99.485403 
L 93.89767 -103.750123 
L 97.177007 -107.816444 
L 100.456344 -111.629223 
L 103.735686 -115.135758 
L 107.015024 -118.287633 
L 110.294361 -121.039749 
L 113.573703 -123.263692 
L 116.853041 -120.874241 
L 120.132378 -117.609728 
L 123.41172 -114.834458 
L 126.691057 -112.609447 
L 129.970395 -110.976345 
L 133.249737 -109.963916 
L 136.529069 -109.5901 
L 139.808412 -109.860387 
L 143.087754 -110.768813 
L 146.367086 -112.297169 
L 149.646428 -114.416502 
L 152.92577 -117.082282 
L 156.205103 -120.177435 
L 159.484445 -121.002379 
L 162.763787 -120.815827 
L 166.04312 -121.037494 
L 169.322462 -121.761713 
L 172.601804 -123.050984 
L 175.881137 -124.951893 
L 179.160479 -127.495342 
L 182.439821 -130.696061 
L 185.719153 -134.552471 
L 188.998496 -139.047202 
L 192.277838 -144.147289 
L 195.55717 -149.806222 
L 198.836512 -155.965291 
L 202.115855 -162.556286 
L 205.395187 -169.503349 
L 208.674529 -176.724829 
L 211.953871 -184.138606 
L 215.233204 -191.661952 
L 218.512556 -199.21513 
L 221.791879 -206.723831 
L 225.071221 -214.119175 
L 228.350563 -221.33848 
L 231.629886 -228.329459 
L 234.909247 -235.040751 
L 238.18857 -241.41342 
L 241.467912 -247.338656 
L 244.747254 -252.752102 
L 248.026597 -257.879483 
L 251.305939 -262.818067 
L 254.585262 -267.541614 
L 257.864623 -271.975536 
L 261.143946 -276.027996 
L 264.423288 -279.605324 
L 267.70263 -282.666086 
L 270.981953 -285.208711 
L 274.261315 -287.230555 
L 277.540637 -288.698124 
L 280.81998 -289.558859 
L 284.099322 -289.507321 
L 287.378664 -288.276371 
L 290.658006 -286.033777 
L 293.937329 -282.787934 
L 297.21669 -278.543504 
L 300.496013 -273.309832 
L 303.775355 -267.110903 
L 307.054697 -259.9987 
L 310.33402 -252.04058 
L 313.613382 -243.320711 
L 316.892705 -233.945894 
L 320.172047 -224.034719 
L 323.451389 -213.716423 
L 326.730731 -203.145452 
L 330.010073 -192.467482 
L 333.289396 -181.835946 
L 336.568738 -171.403325 
L 339.84808 -161.32453 
L 343.127423 -151.740606 
L 346.406765 -142.775674 
L 349.686088 -134.552114 
L 352.96543 -127.158043 
L 356.244772 -120.372706 
L 359.524114 -109.075742 
L 362.803456 -97.628975 
L 366.082798 -86.609718 
L 369.362141 -76.109243 
L 372.641463 -66.204297 
L 375.920806 -56.959568 
L 379.200148 -48.426824 
L 379.200148 -103.615697 
L 379.200148 -103.615697 
L 375.920806 -103.131743 
L 372.641463 -103.55922 
L 369.362141 -104.953635 
L 366.082798 -107.357368 
L 362.803456 -110.795138 
L 359.524114 -115.275891 
L 356.244772 -121.267559 
L 352.96543 -132.992864 
L 349.686088 -145.167958 
L 346.406765 -157.384454 
L 343.127423 -169.525024 
L 339.84808 -181.485794 
L 336.568738 -193.160134 
L 333.289396 -204.449021 
L 330.010073 -215.263281 
L 326.730731 -225.519831 
L 323.451389 -235.14518 
L 320.172047 -244.073396 
L 316.892705 -252.259312 
L 313.613382 -259.662013 
L 310.33402 -266.251582 
L 307.054697 -272.016284 
L 303.775355 -276.948386 
L 300.496013 -281.054975 
L 297.21669 -284.35374 
L 293.937329 -286.865335 
L 290.658006 -288.620749 
L 287.378664 -289.666264 
L 284.099322 -290.077538 
L 280.81998 -290.100596 
L 277.540637 -289.564499 
L 274.261315 -288.265394 
L 270.981953 -286.259595 
L 267.70263 -283.623488 
L 264.423288 -280.463979 
L 261.143946 -276.888045 
L 257.864623 -272.953145 
L 254.585262 -268.662505 
L 251.305939 -264.009861 
L 248.026597 -259.000874 
L 244.747254 -253.680889 
L 241.467912 -248.211108 
L 238.18857 -242.878356 
L 234.909247 -237.669886 
L 231.629886 -232.530664 
L 228.350563 -227.451201 
L 225.071221 -222.428415 
L 221.791879 -217.461465 
L 218.512556 -212.539279 
L 215.233204 -207.647925 
L 211.953871 -202.771179 
L 208.674529 -197.890589 
L 205.395187 -192.987102 
L 202.115855 -188.046608 
L 198.836512 -183.05405 
L 195.55717 -178.002993 
L 192.277838 -172.892329 
L 188.998496 -167.729019 
L 185.719153 -162.527739 
L 182.439821 -157.311837 
L 179.160479 -152.113723 
L 175.881137 -146.973653 
L 172.601804 -141.938564 
L 169.322462 -137.062401 
L 166.04312 -132.404588 
L 162.763787 -128.029082 
L 159.484445 -124.020955 
L 156.205103 -121.780194 
L 152.92577 -122.535692 
L 149.646428 -123.54853 
L 146.367086 -124.65397 
L 143.087754 -125.752687 
L 139.808412 -126.754585 
L 136.529069 -127.57616 
L 133.249737 -128.142839 
L 129.970395 -128.389941 
L 126.691057 -128.265027 
L 123.41172 -127.727701 
L 120.132378 -126.753118 
L 116.853041 -125.339416 
L 113.573703 -124.79284 
L 110.294361 -128.799277 
L 107.015024 -133.227247 
L 103.735686 -137.908904 
L 100.456344 -142.766782 
L 97.177007 -147.72719 
L 93.89767 -152.719313 
L 90.61833 -157.676565 
L 87.33899 -162.536714 
L 84.059653 -167.243742 
L 80.780313 -171.748676 
L 77.500973 -176.009899 
L 74.221636 -179.993996 
L 70.942296 -183.675389 
L 67.662958 -187.036612 
L 64.383619 -190.067911 
L 61.10428 -192.766752 
L 57.824941 -195.137214 
L 54.545602 -197.189171 
z
" style="stroke: #1f77b4; stroke-opacity: 0.5; stroke-width: 0.8"/>
    </defs>
    <g clip-path="url(#p69ab859008)">
     <use xlink:href="#me1ab34127d" x="0" y="322.539375" style="fill: #1f77b4; fill-opacity: 0.5; stroke: #1f77b4; stroke-opacity: 0.5; stroke-width: 0.8"/>
    </g>
   </g>
   <g id="PolyCollection_2">
    <defs>
     <path id="m1a104f4687" d="M 54.545602 -54.173639 
L 54.545602 -54.172307 
L 57.824941 -57.451858 
L 61.10428 -60.975469 
L 64.383619 -64.729923 
L 67.662958 -68.695893 
L 70.942296 -72.84774 
L 74.221636 -77.153543 
L 77.500973 -81.575343 
L 80.780313 -86.069427 
L 84.059653 -90.587493 
L 87.33899 -95.07685 
L 90.61833 -99.48213 
L 93.89767 -103.746234 
L 97.177007 -107.811672 
L 100.456344 -111.623106 
L 103.735686 -115.127397 
L 107.015024 -118.274895 
L 110.294361 -121.015279 
L 113.573703 -123.147898 
L 116.853041 -120.831982 
L 120.132378 -117.588943 
L 123.41172 -114.819702 
L 126.691057 -112.59729 
L 129.970395 -110.965414 
L 133.249737 -109.953444 
L 136.529069 -109.579516 
L 139.808412 -109.84912 
L 143.087754 -110.756112 
L 146.367086 -112.281774 
L 149.646428 -114.395692 
L 152.92577 -117.047575 
L 156.205103 -120.066299 
L 159.484445 -120.940545 
L 162.763787 -120.789516 
L 166.04312 -121.020762 
L 169.322462 -121.749274 
L 172.601804 -123.040904 
L 175.881137 -124.943248 
L 179.160479 -127.487607 
L 182.439821 -130.688907 
L 185.719153 -134.545664 
L 188.998496 -139.040563 
L 192.277838 -144.140666 
L 195.55717 -149.799466 
L 198.836512 -155.958262 
L 202.115855 -162.548815 
L 205.395187 -169.495244 
L 208.674529 -176.715834 
L 211.953871 -184.128388 
L 215.233204 -191.650043 
L 218.512556 -199.200849 
L 221.791879 -206.706121 
L 225.071221 -214.096314 
L 228.350563 -221.307472 
L 231.629886 -228.284601 
L 234.909247 -234.970202 
L 238.18857 -241.293258 
L 241.467912 -247.15782 
L 244.747254 -252.579206 
L 248.026597 -257.729645 
L 251.305939 -262.675336 
L 254.585262 -267.391724 
L 257.864623 -271.80905 
L 261.143946 -275.845319 
L 264.423288 -279.422449 
L 267.70263 -282.496998 
L 270.981953 -285.0511 
L 274.261315 -287.071071 
L 277.540637 -288.516393 
L 280.81998 -289.31607 
L 284.099322 -289.271118 
L 287.378664 -288.150684 
L 290.658006 -285.962135 
L 293.937329 -282.741744 
L 297.21669 -278.510904 
L 300.496013 -273.285317 
L 303.775355 -267.09158 
L 307.054697 -259.982874 
L 310.33402 -252.027188 
L 313.613382 -243.309057 
L 316.892705 -233.935499 
L 320.172047 -224.025219 
L 323.451389 -213.707537 
L 326.730731 -203.13694 
L 330.010073 -192.459131 
L 333.289396 -181.827523 
L 336.568738 -171.394574 
L 339.84808 -161.315087 
L 343.127423 -151.729901 
L 346.406765 -142.762646 
L 349.686088 -134.534201 
L 352.96543 -127.12558 
L 356.244772 -120.1951 
L 359.524114 -109.045172 
L 362.803456 -97.614524 
L 366.082798 -86.60054 
L 369.362141 -76.102641 
L 372.641463 -66.199198 
L 375.920806 -56.955447 
L 379.200148 -48.423375 
L 379.200148 -48.426824 
L 379.200148 -48.426824 
L 375.920806 -56.959568 
L 372.641463 -66.204297 
L 369.362141 -76.109243 
L 366.082798 -86.609718 
L 362.803456 -97.628975 
L 359.524114 -109.075742 
L 356.244772 -120.372706 
L 352.96543 -127.158043 
L 349.686088 -134.552114 
L 346.406765 -142.775674 
L 343.127423 -151.740606 
L 339.84808 -161.32453 
L 336.568738 -171.403325 
L 333.289396 -181.835946 
L 330.010073 -192.467482 
L 326.730731 -203.145452 
L 323.451389 -213.716423 
L 320.172047 -224.034719 
L 316.892705 -233.945894 
L 313.613382 -243.320711 
L 310.33402 -252.04058 
L 307.054697 -259.9987 
L 303.775355 -267.110903 
L 300.496013 -273.309832 
L 297.21669 -278.543504 
L 293.937329 -282.787934 
L 290.658006 -286.033777 
L 287.378664 -288.276371 
L 284.099322 -289.507321 
L 280.81998 -289.558859 
L 277.540637 -288.698124 
L 274.261315 -287.230555 
L 270.981953 -285.208711 
L 267.70263 -282.666086 
L 264.423288 -279.605324 
L 261.143946 -276.027996 
L 257.864623 -271.975536 
L 254.585262 -267.541614 
L 251.305939 -262.818067 
L 248.026597 -257.879483 
L 244.747254 -252.752102 
L 241.467912 -247.338656 
L 238.18857 -241.41342 
L 234.909247 -235.040751 
L 231.629886 -228.329459 
L 228.350563 -221.33848 
L 225.071221 -214.119175 
L 221.791879 -206.723831 
L 218.512556 -199.21513 
L 215.233204 -191.661952 
L 211.953871 -184.138606 
L 208.674529 -176.724829 
L 205.395187 -169.503349 
L 202.115855 -162.556286 
L 198.836512 -155.965291 
L 195.55717 -149.806222 
L 192.277838 -144.147289 
L 188.998496 -139.047202 
L 185.719153 -134.552471 
L 182.439821 -130.696061 
L 179.160479 -127.495342 
L 175.881137 -124.951893 
L 172.601804 -123.050984 
L 169.322462 -121.761713 
L 166.04312 -121.037494 
L 162.763787 -120.815827 
L 159.484445 -121.002379 
L 156.205103 -120.177435 
L 152.92577 -117.082282 
L 149.646428 -114.416502 
L 146.367086 -112.297169 
L 143.087754 -110.768813 
L 139.808412 -109.860387 
L 136.529069 -109.5901 
L 133.249737 -109.963916 
L 129.970395 -110.976345 
L 126.691057 -112.609447 
L 123.41172 -114.834458 
L 120.132378 -117.609728 
L 116.853041 -120.874241 
L 113.573703 -123.263692 
L 110.294361 -121.039749 
L 107.015024 -118.287633 
L 103.735686 -115.135758 
L 100.456344 -111.629223 
L 97.177007 -107.816444 
L 93.89767 -103.750123 
L 90.61833 -99.485403 
L 87.33899 -95.079673 
L 84.059653 -90.589975 
L 80.780313 -86.071654 
L 77.500973 -81.577362 
L 74.221636 -77.155396 
L 70.942296 -72.849462 
L 67.662958 -68.697501 
L 64.383619 -64.731442 
L 61.10428 -60.97691 
L 57.824941 -57.453237 
L 54.545602 -54.173639 
z
" style="stroke: #ff7f0e; stroke-opacity: 0.5; stroke-width: 0.8"/>
    </defs>
    <g clip-path="url(#p69ab859008)">
     <use xlink:href="#m1a104f4687" x="0" y="322.539375" style="fill: #ff7f0e; fill-opacity: 0.5; stroke: #ff7f0e; stroke-opacity: 0.5; stroke-width: 0.8"/>
    </g>
   </g>
   <g id="PolyCollection_3">
    <defs>
     <path id="m63bc4e03ec" d="M 54.545602 -197.190503 
L 54.545602 -197.189171 
L 57.824941 -195.137214 
L 61.10428 -192.766752 
L 64.383619 -190.067911 
L 67.662958 -187.036612 
L 70.942296 -183.675389 
L 74.221636 -179.993996 
L 77.500973 -176.009899 
L 80.780313 -171.748676 
L 84.059653 -167.243742 
L 87.33899 -162.536714 
L 90.61833 -157.676565 
L 93.89767 -152.719313 
L 97.177007 -147.72719 
L 100.456344 -142.766782 
L 103.735686 -137.908904 
L 107.015024 -133.227247 
L 110.294361 -128.799277 
L 113.573703 -124.79284 
L 116.853041 -125.339416 
L 120.132378 -126.753118 
L 123.41172 -127.727701 
L 126.691057 -128.265027 
L 129.970395 -128.389941 
L 133.249737 -128.142839 
L 136.529069 -127.57616 
L 139.808412 -126.754585 
L 143.087754 -125.752687 
L 146.367086 -124.65397 
L 149.646428 -123.54853 
L 152.92577 -122.535692 
L 156.205103 -121.780194 
L 159.484445 -124.020955 
L 162.763787 -128.029082 
L 166.04312 -132.404588 
L 169.322462 -137.062401 
L 172.601804 -141.938564 
L 175.881137 -146.973653 
L 179.160479 -152.113723 
L 182.439821 -157.311837 
L 185.719153 -162.527739 
L 188.998496 -167.729019 
L 192.277838 -172.892329 
L 195.55717 -178.002993 
L 198.836512 -183.05405 
L 202.115855 -188.046608 
L 205.395187 -192.987102 
L 208.674529 -197.890589 
L 211.953871 -202.771179 
L 215.233204 -207.647925 
L 218.512556 -212.539279 
L 221.791879 -217.461465 
L 225.071221 -222.428415 
L 228.350563 -227.451201 
L 231.629886 -232.530664 
L 234.909247 -237.669886 
L 238.18857 -242.878356 
L 241.467912 -248.211108 
L 244.747254 -253.680889 
L 248.026597 -259.000874 
L 251.305939 -264.009861 
L 254.585262 -268.662505 
L 257.864623 -272.953145 
L 261.143946 -276.888045 
L 264.423288 -280.463979 
L 267.70263 -283.623488 
L 270.981953 -286.259595 
L 274.261315 -288.265394 
L 277.540637 -289.564499 
L 280.81998 -290.100596 
L 284.099322 -290.077538 
L 287.378664 -289.666264 
L 290.658006 -288.620749 
L 293.937329 -286.865335 
L 297.21669 -284.35374 
L 300.496013 -281.054975 
L 303.775355 -276.948386 
L 307.054697 -272.016284 
L 310.33402 -266.251582 
L 313.613382 -259.662013 
L 316.892705 -252.259312 
L 320.172047 -244.073396 
L 323.451389 -235.14518 
L 326.730731 -225.519831 
L 330.010073 -215.263281 
L 333.289396 -204.449021 
L 336.568738 -193.160134 
L 339.84808 -181.485794 
L 343.127423 -169.525024 
L 346.406765 -157.384454 
L 349.686088 -145.167958 
L 352.96543 -132.992864 
L 356.244772 -121.267559 
L 359.524114 -115.275891 
L 362.803456 -110.795138 
L 366.082798 -107.357368 
L 369.362141 -104.953635 
L 372.641463 -103.55922 
L 375.920806 -103.131743 
L 379.200148 -103.615697 
L 379.200148 -103.619146 
L 379.200148 -103.619146 
L 375.920806 -103.135869 
L 372.641463 -103.564319 
L 369.362141 -104.960237 
L 366.082798 -107.366545 
L 362.803456 -110.809589 
L 359.524114 -115.306461 
L 356.244772 -121.445165 
L 352.96543 -133.025328 
L 349.686088 -145.185871 
L 346.406765 -157.397481 
L 343.127423 -169.535726 
L 339.84808 -181.495236 
L 336.568738 -193.168885 
L 333.289396 -204.457439 
L 330.010073 -215.271626 
L 326.730731 -225.528343 
L 323.451389 -235.154066 
L 320.172047 -244.082897 
L 316.892705 -252.269707 
L 313.613382 -259.673667 
L 310.33402 -266.264974 
L 307.054697 -272.03211 
L 303.775355 -276.967709 
L 300.496013 -281.07949 
L 297.21669 -284.38634 
L 293.937329 -286.911525 
L 290.658006 -288.69239 
L 287.378664 -289.791951 
L 284.099322 -290.31374 
L 280.81998 -290.343375 
L 277.540637 -289.746229 
L 274.261315 -288.424877 
L 270.981953 -286.417205 
L 267.70263 -283.792576 
L 264.423288 -280.646854 
L 261.143946 -277.070722 
L 257.864623 -273.119632 
L 254.585262 -268.812395 
L 251.305939 -264.152592 
L 248.026597 -259.150712 
L 244.747254 -253.853785 
L 241.467912 -248.391944 
L 238.18857 -242.998518 
L 234.909247 -237.740435 
L 231.629886 -232.575522 
L 228.350563 -227.482209 
L 225.071221 -222.451276 
L 221.791879 -217.479175 
L 218.512556 -212.553566 
L 215.233204 -207.659829 
L 211.953871 -202.781398 
L 208.674529 -197.899585 
L 205.395187 -192.995208 
L 202.115855 -188.054079 
L 198.836512 -183.061079 
L 195.55717 -178.009752 
L 192.277838 -172.898952 
L 188.998496 -167.735657 
L 185.719153 -162.534544 
L 182.439821 -157.318991 
L 179.160479 -152.12146 
L 175.881137 -146.982298 
L 172.601804 -141.948644 
L 169.322462 -137.074839 
L 166.04312 -132.42132 
L 162.763787 -128.055393 
L 159.484445 -124.082789 
L 156.205103 -121.89133 
L 152.92577 -122.570399 
L 149.646428 -123.569341 
L 146.367086 -124.669366 
L 143.087754 -125.765388 
L 139.808412 -126.765852 
L 136.529069 -127.586745 
L 133.249737 -128.15331 
L 129.970395 -128.400873 
L 126.691057 -128.277183 
L 123.41172 -127.742457 
L 120.132378 -126.773903 
L 116.853041 -125.381674 
L 113.573703 -124.908635 
L 110.294361 -128.823747 
L 107.015024 -133.239985 
L 103.735686 -137.917265 
L 100.456344 -142.772901 
L 97.177007 -147.731963 
L 93.89767 -152.723199 
L 90.61833 -157.679837 
L 87.33899 -162.539534 
L 84.059653 -167.246229 
L 80.780313 -171.750897 
L 77.500973 -176.011918 
L 74.221636 -179.995848 
L 70.942296 -183.677111 
L 67.662958 -187.03822 
L 64.383619 -190.06943 
L 61.10428 -192.768193 
L 57.824941 -195.138592 
L 54.545602 -197.190503 
z
" style="stroke: #ff7f0e; stroke-opacity: 0.5; stroke-width: 0.8"/>
    </defs>
    <g clip-path="url(#p69ab859008)">
     <use xlink:href="#m63bc4e03ec" x="0" y="322.539375" style="fill: #ff7f0e; fill-opacity: 0.5; stroke: #ff7f0e; stroke-opacity: 0.5; stroke-width: 0.8"/>
    </g>
   </g>
   <g id="line2d_13">
    <defs>
     <path id="mc42d69224f" d="M -5 5 
L 5 -5 
M -5 -5 
L 5 5 
" style="stroke: #000000; stroke-width: 2"/>
    </defs>
    <g clip-path="url(#p69ab859008)">
     <use xlink:href="#mc42d69224f" x="356.349693" y="202.008851" style="stroke: #000000; stroke-width: 2"/>
     <use xlink:href="#mc42d69224f" x="157.258364" y="201.109588" style="stroke: #000000; stroke-width: 2"/>
     <use xlink:href="#mc42d69224f" x="114.255683" y="198.700308" style="stroke: #000000; stroke-width: 2"/>
     <use xlink:href="#mc42d69224f" x="261.143946" y="46.069607" style="stroke: #000000; stroke-width: 2"/>
     <use xlink:href="#mc42d69224f" x="241.467912" y="74.763869" style="stroke: #000000; stroke-width: 2"/>
     <use xlink:href="#mc42d69224f" x="280.81998" y="32.760129" style="stroke: #000000; stroke-width: 2"/>
     <use xlink:href="#mc42d69224f" x="284.099322" y="32.699913" style="stroke: #000000; stroke-width: 2"/>
     <use xlink:href="#mc42d69224f" x="280.81998" y="32.760129" style="stroke: #000000; stroke-width: 2"/>
     <use xlink:href="#mc42d69224f" x="284.099322" y="32.699913" style="stroke: #000000; stroke-width: 2"/>
    </g>
   </g>
   <g id="line2d_14">
    <path d="M 54.545602 196.85797 
L 57.824941 196.24415 
L 61.10428 195.667543 
L 64.383619 195.139701 
L 67.662958 194.672317 
L 70.942296 194.276951 
L 74.221636 193.964681 
L 77.500973 193.745746 
L 80.780313 193.629211 
L 84.059653 193.622516 
L 87.33899 193.731183 
L 90.61833 193.958392 
L 93.89767 194.304658 
L 97.177007 194.767558 
L 100.456344 195.341372 
L 103.735686 196.017044 
L 107.015024 196.781935 
L 110.294361 197.619862 
L 113.573703 198.511109 
L 116.853041 199.432547 
L 120.132378 200.357952 
L 123.41172 201.258296 
L 126.691057 202.102138 
L 129.970395 202.856231 
L 133.249737 203.485998 
L 136.529069 203.956245 
L 139.808412 204.231889 
L 143.087754 204.278625 
L 146.367086 204.063805 
L 149.646428 203.556859 
L 152.92577 202.730388 
L 156.205103 201.56056 
L 159.484445 200.027708 
L 162.763787 198.116921 
L 166.04312 195.818334 
L 169.322462 193.127318 
L 172.601804 190.044601 
L 175.881137 186.576602 
L 179.160479 182.734842 
L 182.439821 178.535426 
L 185.719153 173.99927 
L 188.998496 169.151265 
L 192.277838 164.019566 
L 195.55717 158.634766 
L 198.836512 153.029704 
L 202.115855 147.237928 
L 205.395187 141.294149 
L 208.674529 135.231666 
L 211.953871 129.084482 
L 215.233204 122.884439 
L 218.512556 116.66217 
L 221.791879 110.446727 
L 225.071221 104.26558 
L 228.350563 98.144535 
L 231.629886 92.109314 
L 234.909247 86.184057 
L 238.18857 80.393487 
L 241.467912 74.764493 
L 244.747254 69.32288 
L 248.026597 64.099197 
L 251.305939 59.125411 
L 254.585262 54.437315 
L 257.864623 50.075034 
L 261.143946 46.081354 
L 264.423288 42.504723 
L 267.70263 39.394588 
L 270.981953 36.805222 
L 274.261315 34.791401 
L 277.540637 33.408064 
L 280.81998 32.709653 
L 284.099322 32.746946 
L 287.378664 33.568057 
L 290.658006 35.212112 
L 293.937329 37.712741 
L 297.21669 41.090753 
L 300.496013 45.356971 
L 303.775355 50.509731 
L 307.054697 56.531883 
L 310.33402 63.393294 
L 313.613382 71.048013 
L 316.892705 79.436772 
L 320.172047 88.485317 
L 323.451389 98.108574 
L 326.730731 108.206733 
L 330.010073 118.673994 
L 333.289396 129.396894 
L 336.568738 140.257646 
L 339.84808 151.134213 
L 343.127423 161.90656 
L 346.406765 172.459311 
L 349.686088 182.679339 
L 352.96543 192.463921 
L 356.244772 201.719243 
L 359.524114 210.363558 
L 362.803456 218.327318 
L 366.082798 225.555832 
L 369.362141 232.007936 
L 372.641463 237.657616 
L 375.920806 242.493718 
L 379.200148 246.518115 
" clip-path="url(#p69ab859008)" style="fill: none; stroke: #1f77b4; stroke-width: 2; stroke-linecap: round"/>
   </g>
   <g id="line2d_15">
    <path d="M 54.545602 120.561899 
L 57.824941 125.88716 
L 61.10428 131.19266 
L 64.383619 136.458724 
L 67.662958 141.665747 
L 70.942296 146.794345 
L 74.221636 151.82532 
L 77.500973 156.739811 
L 80.780313 161.519333 
L 84.059653 166.145808 
L 87.33899 170.60168 
L 90.61833 174.869943 
L 93.89767 178.934208 
L 97.177007 182.778758 
L 100.456344 186.388618 
L 103.735686 189.749566 
L 107.015024 192.848224 
L 110.294361 195.672086 
L 113.573703 198.209576 
L 116.853041 200.450058 
L 120.132378 202.383893 
L 123.41172 204.002486 
L 126.691057 205.298293 
L 129.970395 206.264857 
L 133.249737 206.896845 
L 136.529069 207.190054 
L 139.808412 207.141429 
L 143.087754 206.749104 
L 146.367086 206.012385 
L 149.646428 204.931767 
L 152.92577 203.508958 
L 156.205103 201.746879 
L 159.484445 199.649632 
L 162.763787 197.22257 
L 166.04312 194.472223 
L 169.322462 191.406341 
L 172.601804 188.03388 
L 175.881137 184.36499 
L 179.160479 180.411027 
L 182.439821 176.18449 
L 185.719153 171.699123 
L 188.998496 166.969781 
L 192.277838 162.012539 
L 195.55717 156.844567 
L 198.836512 151.484241 
L 202.115855 145.951096 
L 205.395187 140.265803 
L 208.674529 134.450167 
L 211.953871 128.5272 
L 215.233204 122.521025 
L 218.512556 116.456944 
L 221.791879 110.361486 
L 225.071221 104.262282 
L 228.350563 98.188186 
L 231.629886 92.169405 
L 234.909247 86.237103 
L 238.18857 80.424017 
L 241.467912 74.763869 
L 244.747254 69.291809 
L 248.026597 64.044215 
L 251.305939 59.058681 
L 254.585262 54.374155 
L 257.864623 50.030697 
L 261.143946 46.069607 
L 264.423288 42.533214 
L 267.70263 39.464845 
L 270.981953 36.908558 
L 274.261315 34.909055 
L 277.540637 33.511286 
L 280.81998 32.760129 
L 284.099322 32.699913 
L 287.378664 33.37383 
L 290.658006 34.823158 
L 293.937329 37.086408 
L 297.21669 40.198323 
L 300.496013 44.188173 
L 303.775355 49.07882 
L 307.054697 54.884311 
L 310.33402 61.60785 
L 313.613382 69.239595 
L 316.892705 77.753312 
L 320.172047 87.103583 
L 323.451389 97.222095 
L 326.730731 108.013775 
L 330.010073 119.352905 
L 333.289396 131.079017 
L 336.568738 142.992957 
L 339.84808 154.853752 
L 343.127423 166.375991 
L 346.406765 177.228845 
L 349.686088 187.037801 
L 352.96543 195.389278 
L 356.244772 201.839019 
L 359.524114 205.927295 
L 362.803456 207.199954 
L 366.082798 205.23829 
L 369.362141 199.698106 
L 372.641463 190.358407 
L 375.920806 177.179434 
L 379.200148 160.367293 
" clip-path="url(#p69ab859008)" style="fill: none; stroke-dasharray: 7.68,1.92,1.2,1.92; stroke-dashoffset: 0; stroke: #bf00bf; stroke-width: 1.2"/>
   </g>
   <g id="patch_3">
    <path d="M 38.312875 250.855506 
L 38.312875 32.63823 
" style="fill: none; stroke: #262626; stroke-linejoin: miter; stroke-linecap: square"/>
   </g>
   <g id="patch_4">
    <path d="M 54.545602 286.212 
L 379.200148 286.212 
" style="fill: none; stroke: #262626; stroke-linejoin: miter; stroke-linecap: square"/>
   </g>
   <g id="text_15">
    <!-- N=5, psi=1.96 -->
    <g style="fill: #262626" transform="translate(186.986125 14.1) scale(0.096 -0.096)">
     <defs>
      <path id="ArialMT-4e" d="M 488 0 
L 488 4581 
L 1109 4581 
L 3516 984 
L 3516 4581 
L 4097 4581 
L 4097 0 
L 3475 0 
L 1069 3600 
L 1069 0 
L 488 0 
z
" transform="scale(0.015625)"/>
      <path id="ArialMT-3d" d="M 3381 2694 
L 356 2694 
L 356 3219 
L 3381 3219 
L 3381 2694 
z
M 3381 1303 
L 356 1303 
L 356 1828 
L 3381 1828 
L 3381 1303 
z
" transform="scale(0.015625)"/>
      <path id="ArialMT-35" d="M 266 1200 
L 856 1250 
Q 922 819 1161 601 
Q 1400 384 1738 384 
Q 2144 384 2425 690 
Q 2706 997 2706 1503 
Q 2706 1984 2436 2262 
Q 2166 2541 1728 2541 
Q 1456 2541 1237 2417 
Q 1019 2294 894 2097 
L 366 2166 
L 809 4519 
L 3088 4519 
L 3088 3981 
L 1259 3981 
L 1013 2750 
Q 1425 3038 1878 3038 
Q 2478 3038 2890 2622 
Q 3303 2206 3303 1553 
Q 3303 931 2941 478 
Q 2500 -78 1738 -78 
Q 1113 -78 717 272 
Q 322 622 266 1200 
z
" transform="scale(0.015625)"/>
      <path id="ArialMT-2c" d="M 569 0 
L 569 641 
L 1209 641 
L 1209 0 
Q 1209 -353 1084 -570 
Q 959 -788 688 -906 
L 531 -666 
Q 709 -588 793 -436 
Q 878 -284 888 0 
L 569 0 
z
" transform="scale(0.015625)"/>
      <path id="ArialMT-20" transform="scale(0.015625)"/>
      <path id="ArialMT-70" d="M 422 -1272 
L 422 3319 
L 934 3319 
L 934 2888 
Q 1116 3141 1344 3267 
Q 1572 3394 1897 3394 
Q 2322 3394 2647 3175 
Q 2972 2956 3137 2557 
Q 3303 2159 3303 1684 
Q 3303 1175 3120 767 
Q 2938 359 2589 142 
Q 2241 -75 1856 -75 
Q 1575 -75 1351 44 
Q 1128 163 984 344 
L 984 -1272 
L 422 -1272 
z
M 931 1641 
Q 931 1000 1190 694 
Q 1450 388 1819 388 
Q 2194 388 2461 705 
Q 2728 1022 2728 1688 
Q 2728 2322 2467 2637 
Q 2206 2953 1844 2953 
Q 1484 2953 1207 2617 
Q 931 2281 931 1641 
z
" transform="scale(0.015625)"/>
      <path id="ArialMT-73" d="M 197 991 
L 753 1078 
Q 800 744 1014 566 
Q 1228 388 1613 388 
Q 2000 388 2187 545 
Q 2375 703 2375 916 
Q 2375 1106 2209 1216 
Q 2094 1291 1634 1406 
Q 1016 1563 777 1677 
Q 538 1791 414 1992 
Q 291 2194 291 2438 
Q 291 2659 392 2848 
Q 494 3038 669 3163 
Q 800 3259 1026 3326 
Q 1253 3394 1513 3394 
Q 1903 3394 2198 3281 
Q 2494 3169 2634 2976 
Q 2775 2784 2828 2463 
L 2278 2388 
Q 2241 2644 2061 2787 
Q 1881 2931 1553 2931 
Q 1166 2931 1000 2803 
Q 834 2675 834 2503 
Q 834 2394 903 2306 
Q 972 2216 1119 2156 
Q 1203 2125 1616 2013 
Q 2213 1853 2448 1751 
Q 2684 1650 2818 1456 
Q 2953 1263 2953 975 
Q 2953 694 2789 445 
Q 2625 197 2315 61 
Q 2006 -75 1616 -75 
Q 969 -75 630 194 
Q 291 463 197 991 
z
" transform="scale(0.015625)"/>
      <path id="ArialMT-69" d="M 425 3934 
L 425 4581 
L 988 4581 
L 988 3934 
L 425 3934 
z
M 425 0 
L 425 3319 
L 988 3319 
L 988 0 
L 425 0 
z
" transform="scale(0.015625)"/>
      <path id="ArialMT-39" d="M 350 1059 
L 891 1109 
Q 959 728 1153 556 
Q 1347 384 1650 384 
Q 1909 384 2104 503 
Q 2300 622 2425 820 
Q 2550 1019 2634 1356 
Q 2719 1694 2719 2044 
Q 2719 2081 2716 2156 
Q 2547 1888 2255 1720 
Q 1963 1553 1622 1553 
Q 1053 1553 659 1965 
Q 266 2378 266 3053 
Q 266 3750 677 4175 
Q 1088 4600 1706 4600 
Q 2153 4600 2523 4359 
Q 2894 4119 3086 3673 
Q 3278 3228 3278 2384 
Q 3278 1506 3087 986 
Q 2897 466 2520 194 
Q 2144 -78 1638 -78 
Q 1100 -78 759 220 
Q 419 519 350 1059 
z
M 2653 3081 
Q 2653 3566 2395 3850 
Q 2138 4134 1775 4134 
Q 1400 4134 1122 3828 
Q 844 3522 844 3034 
Q 844 2597 1108 2323 
Q 1372 2050 1759 2050 
Q 2150 2050 2401 2323 
Q 2653 2597 2653 3081 
z
" transform="scale(0.015625)"/>
     </defs>
     <use xlink:href="#ArialMT-4e"/>
     <use xlink:href="#ArialMT-3d" x="72.216797"/>
     <use xlink:href="#ArialMT-35" x="130.615234"/>
     <use xlink:href="#ArialMT-2c" x="186.230469"/>
     <use xlink:href="#ArialMT-20" x="214.013672"/>
     <use xlink:href="#ArialMT-70" x="241.796875"/>
     <use xlink:href="#ArialMT-73" x="297.412109"/>
     <use xlink:href="#ArialMT-69" x="347.412109"/>
     <use xlink:href="#ArialMT-3d" x="369.628906"/>
     <use xlink:href="#ArialMT-31" x="428.027344"/>
     <use xlink:href="#ArialMT-2e" x="483.642578"/>
     <use xlink:href="#ArialMT-39" x="511.425781"/>
     <use xlink:href="#ArialMT-36" x="567.041016"/>
    </g>
   </g>
   <g id="legend_1">
    <g id="line2d_16">
     <g>
      <use xlink:href="#mc42d69224f" x="55.032875" y="31.238875" style="stroke: #000000; stroke-width: 2"/>
     </g>
    </g>
    <g id="text_16">
     <!-- Observations -->
     <g style="fill: #262626" transform="translate(70.872875 34.318875) scale(0.088 -0.088)">
      <defs>
       <path id="ArialMT-4f" d="M 309 2231 
Q 309 3372 921 4017 
Q 1534 4663 2503 4663 
Q 3138 4663 3647 4359 
Q 4156 4056 4423 3514 
Q 4691 2972 4691 2284 
Q 4691 1588 4409 1038 
Q 4128 488 3612 205 
Q 3097 -78 2500 -78 
Q 1853 -78 1343 234 
Q 834 547 571 1087 
Q 309 1628 309 2231 
z
M 934 2222 
Q 934 1394 1379 917 
Q 1825 441 2497 441 
Q 3181 441 3623 922 
Q 4066 1403 4066 2288 
Q 4066 2847 3877 3264 
Q 3688 3681 3323 3911 
Q 2959 4141 2506 4141 
Q 1863 4141 1398 3698 
Q 934 3256 934 2222 
z
" transform="scale(0.015625)"/>
       <path id="ArialMT-62" d="M 941 0 
L 419 0 
L 419 4581 
L 981 4581 
L 981 2947 
Q 1338 3394 1891 3394 
Q 2197 3394 2470 3270 
Q 2744 3147 2920 2923 
Q 3097 2700 3197 2384 
Q 3297 2069 3297 1709 
Q 3297 856 2875 390 
Q 2453 -75 1863 -75 
Q 1275 -75 941 416 
L 941 0 
z
M 934 1684 
Q 934 1088 1097 822 
Q 1363 388 1816 388 
Q 2184 388 2453 708 
Q 2722 1028 2722 1663 
Q 2722 2313 2464 2622 
Q 2206 2931 1841 2931 
Q 1472 2931 1203 2611 
Q 934 2291 934 1684 
z
" transform="scale(0.015625)"/>
       <path id="ArialMT-65" d="M 2694 1069 
L 3275 997 
Q 3138 488 2766 206 
Q 2394 -75 1816 -75 
Q 1088 -75 661 373 
Q 234 822 234 1631 
Q 234 2469 665 2931 
Q 1097 3394 1784 3394 
Q 2450 3394 2872 2941 
Q 3294 2488 3294 1666 
Q 3294 1616 3291 1516 
L 816 1516 
Q 847 969 1125 678 
Q 1403 388 1819 388 
Q 2128 388 2347 550 
Q 2566 713 2694 1069 
z
M 847 1978 
L 2700 1978 
Q 2663 2397 2488 2606 
Q 2219 2931 1791 2931 
Q 1403 2931 1139 2672 
Q 875 2413 847 1978 
z
" transform="scale(0.015625)"/>
       <path id="ArialMT-72" d="M 416 0 
L 416 3319 
L 922 3319 
L 922 2816 
Q 1116 3169 1280 3281 
Q 1444 3394 1641 3394 
Q 1925 3394 2219 3213 
L 2025 2691 
Q 1819 2813 1613 2813 
Q 1428 2813 1281 2702 
Q 1134 2591 1072 2394 
Q 978 2094 978 1738 
L 978 0 
L 416 0 
z
" transform="scale(0.015625)"/>
       <path id="ArialMT-76" d="M 1344 0 
L 81 3319 
L 675 3319 
L 1388 1331 
Q 1503 1009 1600 663 
Q 1675 925 1809 1294 
L 2547 3319 
L 3125 3319 
L 1869 0 
L 1344 0 
z
" transform="scale(0.015625)"/>
       <path id="ArialMT-61" d="M 2588 409 
Q 2275 144 1986 34 
Q 1697 -75 1366 -75 
Q 819 -75 525 192 
Q 231 459 231 875 
Q 231 1119 342 1320 
Q 453 1522 633 1644 
Q 813 1766 1038 1828 
Q 1203 1872 1538 1913 
Q 2219 1994 2541 2106 
Q 2544 2222 2544 2253 
Q 2544 2597 2384 2738 
Q 2169 2928 1744 2928 
Q 1347 2928 1158 2789 
Q 969 2650 878 2297 
L 328 2372 
Q 403 2725 575 2942 
Q 747 3159 1072 3276 
Q 1397 3394 1825 3394 
Q 2250 3394 2515 3294 
Q 2781 3194 2906 3042 
Q 3031 2891 3081 2659 
Q 3109 2516 3109 2141 
L 3109 1391 
Q 3109 606 3145 398 
Q 3181 191 3288 0 
L 2700 0 
Q 2613 175 2588 409 
z
M 2541 1666 
Q 2234 1541 1622 1453 
Q 1275 1403 1131 1340 
Q 988 1278 909 1158 
Q 831 1038 831 891 
Q 831 666 1001 516 
Q 1172 366 1500 366 
Q 1825 366 2078 508 
Q 2331 650 2450 897 
Q 2541 1088 2541 1459 
L 2541 1666 
z
" transform="scale(0.015625)"/>
       <path id="ArialMT-74" d="M 1650 503 
L 1731 6 
Q 1494 -44 1306 -44 
Q 1000 -44 831 53 
Q 663 150 594 308 
Q 525 466 525 972 
L 525 2881 
L 113 2881 
L 113 3319 
L 525 3319 
L 525 4141 
L 1084 4478 
L 1084 3319 
L 1650 3319 
L 1650 2881 
L 1084 2881 
L 1084 941 
Q 1084 700 1114 631 
Q 1144 563 1211 522 
Q 1278 481 1403 481 
Q 1497 481 1650 503 
z
" transform="scale(0.015625)"/>
       <path id="ArialMT-6f" d="M 213 1659 
Q 213 2581 725 3025 
Q 1153 3394 1769 3394 
Q 2453 3394 2887 2945 
Q 3322 2497 3322 1706 
Q 3322 1066 3130 698 
Q 2938 331 2570 128 
Q 2203 -75 1769 -75 
Q 1072 -75 642 372 
Q 213 819 213 1659 
z
M 791 1659 
Q 791 1022 1069 705 
Q 1347 388 1769 388 
Q 2188 388 2466 706 
Q 2744 1025 2744 1678 
Q 2744 2294 2464 2611 
Q 2184 2928 1769 2928 
Q 1347 2928 1069 2612 
Q 791 2297 791 1659 
z
" transform="scale(0.015625)"/>
       <path id="ArialMT-6e" d="M 422 0 
L 422 3319 
L 928 3319 
L 928 2847 
Q 1294 3394 1984 3394 
Q 2284 3394 2536 3286 
Q 2788 3178 2913 3003 
Q 3038 2828 3088 2588 
Q 3119 2431 3119 2041 
L 3119 0 
L 2556 0 
L 2556 2019 
Q 2556 2363 2490 2533 
Q 2425 2703 2258 2804 
Q 2091 2906 1866 2906 
Q 1506 2906 1245 2678 
Q 984 2450 984 1813 
L 984 0 
L 422 0 
z
" transform="scale(0.015625)"/>
      </defs>
      <use xlink:href="#ArialMT-4f"/>
      <use xlink:href="#ArialMT-62" x="77.783203"/>
      <use xlink:href="#ArialMT-73" x="133.398438"/>
      <use xlink:href="#ArialMT-65" x="183.398438"/>
      <use xlink:href="#ArialMT-72" x="239.013672"/>
      <use xlink:href="#ArialMT-76" x="272.314453"/>
      <use xlink:href="#ArialMT-61" x="322.314453"/>
      <use xlink:href="#ArialMT-74" x="377.929688"/>
      <use xlink:href="#ArialMT-69" x="405.712891"/>
      <use xlink:href="#ArialMT-6f" x="427.929688"/>
      <use xlink:href="#ArialMT-6e" x="483.544922"/>
      <use xlink:href="#ArialMT-73" x="539.160156"/>
     </g>
    </g>
    <g id="line2d_17">
     <path d="M 46.232875 43.822875 
L 55.032875 43.822875 
L 63.832875 43.822875 
" style="fill: none; stroke: #1f77b4; stroke-width: 2; stroke-linecap: round"/>
    </g>
    <g id="text_17">
     <!-- $m_n(x)$ -->
     <g style="fill: #262626" transform="translate(70.872875 46.902875) scale(0.088 -0.088)">
      <defs>
       <path id="DejaVuSans-Oblique-6d" d="M 5747 2113 
L 5338 0 
L 4763 0 
L 5166 2094 
Q 5191 2228 5203 2325 
Q 5216 2422 5216 2491 
Q 5216 2772 5059 2928 
Q 4903 3084 4622 3084 
Q 4203 3084 3875 2770 
Q 3547 2456 3450 1953 
L 3066 0 
L 2491 0 
L 2900 2094 
Q 2925 2209 2937 2307 
Q 2950 2406 2950 2484 
Q 2950 2769 2794 2926 
Q 2638 3084 2363 3084 
Q 1938 3084 1609 2770 
Q 1281 2456 1184 1953 
L 800 0 
L 225 0 
L 909 3500 
L 1484 3500 
L 1375 2956 
Q 1609 3263 1923 3423 
Q 2238 3584 2597 3584 
Q 2978 3584 3223 3384 
Q 3469 3184 3519 2828 
Q 3781 3197 4126 3390 
Q 4472 3584 4856 3584 
Q 5306 3584 5551 3325 
Q 5797 3066 5797 2591 
Q 5797 2488 5784 2364 
Q 5772 2241 5747 2113 
z
" transform="scale(0.015625)"/>
       <path id="DejaVuSans-Oblique-6e" d="M 3566 2113 
L 3156 0 
L 2578 0 
L 2988 2091 
Q 3016 2238 3031 2350 
Q 3047 2463 3047 2528 
Q 3047 2791 2881 2937 
Q 2716 3084 2419 3084 
Q 1956 3084 1622 2776 
Q 1288 2469 1184 1941 
L 800 0 
L 225 0 
L 903 3500 
L 1478 3500 
L 1363 2950 
Q 1603 3253 1940 3418 
Q 2278 3584 2650 3584 
Q 3113 3584 3367 3334 
Q 3622 3084 3622 2631 
Q 3622 2519 3608 2391 
Q 3594 2263 3566 2113 
z
" transform="scale(0.015625)"/>
       <path id="DejaVuSans-28" d="M 1984 4856 
Q 1566 4138 1362 3434 
Q 1159 2731 1159 2009 
Q 1159 1288 1364 580 
Q 1569 -128 1984 -844 
L 1484 -844 
Q 1016 -109 783 600 
Q 550 1309 550 2009 
Q 550 2706 781 3412 
Q 1013 4119 1484 4856 
L 1984 4856 
z
" transform="scale(0.015625)"/>
       <path id="DejaVuSans-29" d="M 513 4856 
L 1013 4856 
Q 1481 4119 1714 3412 
Q 1947 2706 1947 2009 
Q 1947 1309 1714 600 
Q 1481 -109 1013 -844 
L 513 -844 
Q 928 -128 1133 580 
Q 1338 1288 1338 2009 
Q 1338 2731 1133 3434 
Q 928 4138 513 4856 
z
" transform="scale(0.015625)"/>
      </defs>
      <use xlink:href="#DejaVuSans-Oblique-6d" transform="translate(0 0.125)"/>
      <use xlink:href="#DejaVuSans-Oblique-6e" transform="translate(97.412109 -16.28125) scale(0.7)"/>
      <use xlink:href="#DejaVuSans-28" transform="translate(144.511719 0.125)"/>
      <use xlink:href="#DejaVuSans-Oblique-78" transform="translate(183.525391 0.125)"/>
      <use xlink:href="#DejaVuSans-29" transform="translate(242.705078 0.125)"/>
     </g>
    </g>
    <g id="patch_5">
     <path d="M 46.232875 61.059875 
L 63.832875 61.059875 
L 63.832875 54.899875 
L 46.232875 54.899875 
z
" style="fill: #1f77b4; fill-opacity: 0.5; stroke: #1f77b4; stroke-opacity: 0.5; stroke-width: 0.8; stroke-linejoin: miter"/>
    </g>
    <g id="text_18">
     <!-- $f(\mathbf{x}^*)$ 95% pred. -->
     <g style="fill: #262626" transform="translate(70.872875 61.059875) scale(0.088 -0.088)">
      <defs>
       <path id="DejaVuSans-Oblique-66" d="M 3059 4863 
L 2969 4384 
L 2419 4384 
Q 2106 4384 1964 4261 
Q 1822 4138 1753 3809 
L 1691 3500 
L 2638 3500 
L 2553 3053 
L 1606 3053 
L 1013 0 
L 434 0 
L 1031 3053 
L 481 3053 
L 563 3500 
L 1113 3500 
L 1159 3744 
Q 1278 4363 1576 4613 
Q 1875 4863 2516 4863 
L 3059 4863 
z
" transform="scale(0.015625)"/>
       <path id="DejaVuSans-Bold-78" d="M 1422 1791 
L 159 3500 
L 1344 3500 
L 2059 2463 
L 2784 3500 
L 3969 3500 
L 2706 1797 
L 4031 0 
L 2847 0 
L 2059 1106 
L 1281 0 
L 97 0 
L 1422 1791 
z
" transform="scale(0.015625)"/>
       <path id="DejaVuSans-2a" d="M 3009 3897 
L 1888 3291 
L 3009 2681 
L 2828 2375 
L 1778 3009 
L 1778 1831 
L 1422 1831 
L 1422 3009 
L 372 2375 
L 191 2681 
L 1313 3291 
L 191 3897 
L 372 4206 
L 1422 3572 
L 1422 4750 
L 1778 4750 
L 1778 3572 
L 2828 4206 
L 3009 3897 
z
" transform="scale(0.015625)"/>
       <path id="ArialMT-25" d="M 372 3481 
Q 372 3972 619 4315 
Q 866 4659 1334 4659 
Q 1766 4659 2048 4351 
Q 2331 4044 2331 3447 
Q 2331 2866 2045 2552 
Q 1759 2238 1341 2238 
Q 925 2238 648 2547 
Q 372 2856 372 3481 
z
M 1350 4272 
Q 1141 4272 1002 4090 
Q 863 3909 863 3425 
Q 863 2984 1003 2804 
Q 1144 2625 1350 2625 
Q 1563 2625 1702 2806 
Q 1841 2988 1841 3469 
Q 1841 3913 1700 4092 
Q 1559 4272 1350 4272 
z
M 1353 -169 
L 3859 4659 
L 4316 4659 
L 1819 -169 
L 1353 -169 
z
M 3334 1075 
Q 3334 1569 3581 1911 
Q 3828 2253 4300 2253 
Q 4731 2253 5014 1945 
Q 5297 1638 5297 1041 
Q 5297 459 5011 145 
Q 4725 -169 4303 -169 
Q 3888 -169 3611 142 
Q 3334 453 3334 1075 
z
M 4316 1866 
Q 4103 1866 3964 1684 
Q 3825 1503 3825 1019 
Q 3825 581 3965 400 
Q 4106 219 4313 219 
Q 4528 219 4667 400 
Q 4806 581 4806 1063 
Q 4806 1506 4665 1686 
Q 4525 1866 4316 1866 
z
" transform="scale(0.015625)"/>
       <path id="ArialMT-64" d="M 2575 0 
L 2575 419 
Q 2259 -75 1647 -75 
Q 1250 -75 917 144 
Q 584 363 401 755 
Q 219 1147 219 1656 
Q 219 2153 384 2558 
Q 550 2963 881 3178 
Q 1213 3394 1622 3394 
Q 1922 3394 2156 3267 
Q 2391 3141 2538 2938 
L 2538 4581 
L 3097 4581 
L 3097 0 
L 2575 0 
z
M 797 1656 
Q 797 1019 1065 703 
Q 1334 388 1700 388 
Q 2069 388 2326 689 
Q 2584 991 2584 1609 
Q 2584 2291 2321 2609 
Q 2059 2928 1675 2928 
Q 1300 2928 1048 2622 
Q 797 2316 797 1656 
z
" transform="scale(0.015625)"/>
      </defs>
      <use xlink:href="#DejaVuSans-Oblique-66" transform="translate(0 0.765625)"/>
      <use xlink:href="#DejaVuSans-28" transform="translate(35.205078 0.765625)"/>
      <use xlink:href="#DejaVuSans-Bold-78" transform="translate(74.21875 0.765625)"/>
      <use xlink:href="#DejaVuSans-2a" transform="translate(153.31543 39.046875) scale(0.7)"/>
      <use xlink:href="#DejaVuSans-29" transform="translate(204.6875 0.765625)"/>
      <use xlink:href="#ArialMT-20" transform="translate(243.701172 0.765625)"/>
      <use xlink:href="#ArialMT-39" transform="translate(271.484375 0.765625)"/>
      <use xlink:href="#ArialMT-35" transform="translate(327.099609 0.765625)"/>
      <use xlink:href="#ArialMT-25" transform="translate(382.714844 0.765625)"/>
      <use xlink:href="#ArialMT-20" transform="translate(471.630859 0.765625)"/>
      <use xlink:href="#ArialMT-70" transform="translate(499.414062 0.765625)"/>
      <use xlink:href="#ArialMT-72" transform="translate(555.029297 0.765625)"/>
      <use xlink:href="#ArialMT-65" transform="translate(588.330078 0.765625)"/>
      <use xlink:href="#ArialMT-64" transform="translate(643.945312 0.765625)"/>
      <use xlink:href="#ArialMT-2e" transform="translate(699.560547 0.765625)"/>
     </g>
    </g>
    <g id="patch_6">
     <path d="M 46.232875 75.227875 
L 63.832875 75.227875 
L 63.832875 69.067875 
L 46.232875 69.067875 
z
" style="fill: #ff7f0e; fill-opacity: 0.5; stroke: #ff7f0e; stroke-opacity: 0.5; stroke-width: 0.8; stroke-linejoin: miter"/>
    </g>
    <g id="text_19">
     <!-- $y^*$ 95% pred. -->
     <g style="fill: #262626" transform="translate(70.872875 75.227875) scale(0.088 -0.088)">
      <use xlink:href="#DejaVuSans-Oblique-79" transform="translate(0 0.765625)"/>
      <use xlink:href="#DejaVuSans-2a" transform="translate(77.283529 39.046875) scale(0.7)"/>
      <use xlink:href="#ArialMT-20" transform="translate(128.655599 0.765625)"/>
      <use xlink:href="#ArialMT-39" transform="translate(156.438802 0.765625)"/>
      <use xlink:href="#ArialMT-35" transform="translate(212.054036 0.765625)"/>
      <use xlink:href="#ArialMT-25" transform="translate(267.669271 0.765625)"/>
      <use xlink:href="#ArialMT-20" transform="translate(356.585286 0.765625)"/>
      <use xlink:href="#ArialMT-70" transform="translate(384.36849 0.765625)"/>
      <use xlink:href="#ArialMT-72" transform="translate(439.983724 0.765625)"/>
      <use xlink:href="#ArialMT-65" transform="translate(473.284505 0.765625)"/>
      <use xlink:href="#ArialMT-64" transform="translate(528.89974 0.765625)"/>
      <use xlink:href="#ArialMT-2e" transform="translate(584.514974 0.765625)"/>
     </g>
    </g>
    <g id="line2d_18">
     <path d="M 46.232875 84.69475 
L 55.032875 84.69475 
L 63.832875 84.69475 
" style="fill: none; stroke-dasharray: 7.68,1.92,1.2,1.92; stroke-dashoffset: 0; stroke: #bf00bf; stroke-width: 1.2"/>
    </g>
    <g id="text_20">
     <!-- True function -->
     <g style="fill: #262626" transform="translate(70.872875 87.77475) scale(0.088 -0.088)">
      <defs>
       <path id="ArialMT-54" d="M 1659 0 
L 1659 4041 
L 150 4041 
L 150 4581 
L 3781 4581 
L 3781 4041 
L 2266 4041 
L 2266 0 
L 1659 0 
z
" transform="scale(0.015625)"/>
       <path id="ArialMT-75" d="M 2597 0 
L 2597 488 
Q 2209 -75 1544 -75 
Q 1250 -75 995 37 
Q 741 150 617 320 
Q 494 491 444 738 
Q 409 903 409 1263 
L 409 3319 
L 972 3319 
L 972 1478 
Q 972 1038 1006 884 
Q 1059 663 1231 536 
Q 1403 409 1656 409 
Q 1909 409 2131 539 
Q 2353 669 2445 892 
Q 2538 1116 2538 1541 
L 2538 3319 
L 3100 3319 
L 3100 0 
L 2597 0 
z
" transform="scale(0.015625)"/>
       <path id="ArialMT-66" d="M 556 0 
L 556 2881 
L 59 2881 
L 59 3319 
L 556 3319 
L 556 3672 
Q 556 4006 616 4169 
Q 697 4388 901 4523 
Q 1106 4659 1475 4659 
Q 1713 4659 2000 4603 
L 1916 4113 
Q 1741 4144 1584 4144 
Q 1328 4144 1222 4034 
Q 1116 3925 1116 3625 
L 1116 3319 
L 1763 3319 
L 1763 2881 
L 1116 2881 
L 1116 0 
L 556 0 
z
" transform="scale(0.015625)"/>
       <path id="ArialMT-63" d="M 2588 1216 
L 3141 1144 
Q 3050 572 2676 248 
Q 2303 -75 1759 -75 
Q 1078 -75 664 370 
Q 250 816 250 1647 
Q 250 2184 428 2587 
Q 606 2991 970 3192 
Q 1334 3394 1763 3394 
Q 2303 3394 2647 3120 
Q 2991 2847 3088 2344 
L 2541 2259 
Q 2463 2594 2264 2762 
Q 2066 2931 1784 2931 
Q 1359 2931 1093 2626 
Q 828 2322 828 1663 
Q 828 994 1084 691 
Q 1341 388 1753 388 
Q 2084 388 2306 591 
Q 2528 794 2588 1216 
z
" transform="scale(0.015625)"/>
      </defs>
      <use xlink:href="#ArialMT-54"/>
      <use xlink:href="#ArialMT-72" x="57.333984"/>
      <use xlink:href="#ArialMT-75" x="90.634766"/>
      <use xlink:href="#ArialMT-65" x="146.25"/>
      <use xlink:href="#ArialMT-20" x="201.865234"/>
      <use xlink:href="#ArialMT-66" x="229.648438"/>
      <use xlink:href="#ArialMT-75" x="257.431641"/>
      <use xlink:href="#ArialMT-6e" x="313.046875"/>
      <use xlink:href="#ArialMT-63" x="368.662109"/>
      <use xlink:href="#ArialMT-74" x="418.662109"/>
      <use xlink:href="#ArialMT-69" x="446.445312"/>
      <use xlink:href="#ArialMT-6f" x="468.662109"/>
      <use xlink:href="#ArialMT-6e" x="524.277344"/>
     </g>
    </g>
   </g>
  </g>
  <g id="axes_2">
   <g id="matplotlib.axis_3">
    <g id="ytick_7">
     <g id="line2d_19">
      <defs>
       <path id="mf84eb71768" d="M 0 0 
L 4.8 0 
" style="stroke: #262626"/>
      </defs>
      <g>
       <use xlink:href="#mf84eb71768" x="395.432875" y="257.778519" style="fill: #262626; stroke: #262626"/>
      </g>
     </g>
     <g id="text_21">
      <!-- 0 -->
      <g style="fill: #ff7f0e" transform="translate(403.732875 260.927957) scale(0.088 -0.088)">
       <use xlink:href="#ArialMT-30"/>
      </g>
     </g>
    </g>
    <g id="ytick_8">
     <g id="line2d_20">
      <g>
       <use xlink:href="#mf84eb71768" x="395.432875" y="201.445497" style="fill: #262626; stroke: #262626"/>
      </g>
     </g>
     <g id="text_22">
      <!-- 2 -->
      <g style="fill: #ff7f0e" transform="translate(403.732875 204.594935) scale(0.088 -0.088)">
       <use xlink:href="#ArialMT-32"/>
      </g>
     </g>
    </g>
    <g id="ytick_9">
     <g id="line2d_21">
      <g>
       <use xlink:href="#mf84eb71768" x="395.432875" y="145.112475" style="fill: #262626; stroke: #262626"/>
      </g>
     </g>
     <g id="text_23">
      <!-- 4 -->
      <g style="fill: #ff7f0e" transform="translate(403.732875 148.261913) scale(0.088 -0.088)">
       <use xlink:href="#ArialMT-34"/>
      </g>
     </g>
    </g>
    <g id="ytick_10">
     <g id="line2d_22">
      <g>
       <use xlink:href="#mf84eb71768" x="395.432875" y="88.779453" style="fill: #262626; stroke: #262626"/>
      </g>
     </g>
     <g id="text_24">
      <!-- 6 -->
      <g style="fill: #ff7f0e" transform="translate(403.732875 91.928891) scale(0.088 -0.088)">
       <use xlink:href="#ArialMT-36"/>
      </g>
     </g>
    </g>
    <g id="ytick_11">
     <g id="line2d_23">
      <g>
       <use xlink:href="#mf84eb71768" x="395.432875" y="32.446431" style="fill: #262626; stroke: #262626"/>
      </g>
     </g>
     <g id="text_25">
      <!-- 8 -->
      <g style="fill: #ff7f0e" transform="translate(403.732875 35.595869) scale(0.088 -0.088)">
       <use xlink:href="#ArialMT-38"/>
      </g>
     </g>
    </g>
    <g id="text_26">
     <!-- Maximum Upper Interval -->
     <g style="fill: #ff7f0e" transform="translate(419.498 205.43475) rotate(-90) scale(0.096 -0.096)">
      <defs>
       <path id="ArialMT-4d" d="M 475 0 
L 475 4581 
L 1388 4581 
L 2472 1338 
Q 2622 884 2691 659 
Q 2769 909 2934 1394 
L 4031 4581 
L 4847 4581 
L 4847 0 
L 4263 0 
L 4263 3834 
L 2931 0 
L 2384 0 
L 1059 3900 
L 1059 0 
L 475 0 
z
" transform="scale(0.015625)"/>
       <path id="ArialMT-78" d="M 47 0 
L 1259 1725 
L 138 3319 
L 841 3319 
L 1350 2541 
Q 1494 2319 1581 2169 
Q 1719 2375 1834 2534 
L 2394 3319 
L 3066 3319 
L 1919 1756 
L 3153 0 
L 2463 0 
L 1781 1031 
L 1600 1309 
L 728 0 
L 47 0 
z
" transform="scale(0.015625)"/>
       <path id="ArialMT-6d" d="M 422 0 
L 422 3319 
L 925 3319 
L 925 2853 
Q 1081 3097 1340 3245 
Q 1600 3394 1931 3394 
Q 2300 3394 2536 3241 
Q 2772 3088 2869 2813 
Q 3263 3394 3894 3394 
Q 4388 3394 4653 3120 
Q 4919 2847 4919 2278 
L 4919 0 
L 4359 0 
L 4359 2091 
Q 4359 2428 4304 2576 
Q 4250 2725 4106 2815 
Q 3963 2906 3769 2906 
Q 3419 2906 3187 2673 
Q 2956 2441 2956 1928 
L 2956 0 
L 2394 0 
L 2394 2156 
Q 2394 2531 2256 2718 
Q 2119 2906 1806 2906 
Q 1569 2906 1367 2781 
Q 1166 2656 1075 2415 
Q 984 2175 984 1722 
L 984 0 
L 422 0 
z
" transform="scale(0.015625)"/>
       <path id="ArialMT-55" d="M 3500 4581 
L 4106 4581 
L 4106 1934 
Q 4106 1244 3950 837 
Q 3794 431 3386 176 
Q 2978 -78 2316 -78 
Q 1672 -78 1262 144 
Q 853 366 678 786 
Q 503 1206 503 1934 
L 503 4581 
L 1109 4581 
L 1109 1938 
Q 1109 1341 1220 1058 
Q 1331 775 1601 622 
Q 1872 469 2263 469 
Q 2931 469 3215 772 
Q 3500 1075 3500 1938 
L 3500 4581 
z
" transform="scale(0.015625)"/>
       <path id="ArialMT-49" d="M 597 0 
L 597 4581 
L 1203 4581 
L 1203 0 
L 597 0 
z
" transform="scale(0.015625)"/>
       <path id="ArialMT-6c" d="M 409 0 
L 409 4581 
L 972 4581 
L 972 0 
L 409 0 
z
" transform="scale(0.015625)"/>
      </defs>
      <use xlink:href="#ArialMT-4d"/>
      <use xlink:href="#ArialMT-61" x="83.300781"/>
      <use xlink:href="#ArialMT-78" x="138.916016"/>
      <use xlink:href="#ArialMT-69" x="188.916016"/>
      <use xlink:href="#ArialMT-6d" x="211.132812"/>
      <use xlink:href="#ArialMT-75" x="294.433594"/>
      <use xlink:href="#ArialMT-6d" x="350.048828"/>
      <use xlink:href="#ArialMT-20" x="433.349609"/>
      <use xlink:href="#ArialMT-55" x="461.132812"/>
      <use xlink:href="#ArialMT-70" x="533.349609"/>
      <use xlink:href="#ArialMT-70" x="588.964844"/>
      <use xlink:href="#ArialMT-65" x="644.580078"/>
      <use xlink:href="#ArialMT-72" x="700.195312"/>
      <use xlink:href="#ArialMT-20" x="733.496094"/>
      <use xlink:href="#ArialMT-49" x="761.279297"/>
      <use xlink:href="#ArialMT-6e" x="789.0625"/>
      <use xlink:href="#ArialMT-74" x="844.677734"/>
      <use xlink:href="#ArialMT-65" x="872.460938"/>
      <use xlink:href="#ArialMT-72" x="928.076172"/>
      <use xlink:href="#ArialMT-76" x="961.376953"/>
      <use xlink:href="#ArialMT-61" x="1011.376953"/>
      <use xlink:href="#ArialMT-6c" x="1066.992188"/>
     </g>
    </g>
   </g>
   <g id="line2d_24">
    <path d="M 54.545602 153.960887 
L 57.824941 156.540642 
L 61.10428 159.524249 
L 64.383619 162.924494 
L 67.662958 166.746844 
L 70.942296 170.988384 
L 74.221636 175.637066 
L 77.500973 180.671051 
L 80.780313 186.058242 
L 84.059653 191.756537 
L 87.33899 197.713457 
L 90.61833 203.867118 
L 93.89767 210.146686 
L 97.177007 216.473371 
L 100.456344 222.762804 
L 103.735686 228.925169 
L 107.015024 234.866931 
L 110.294361 240.489682 
L 113.573703 245.580592 
L 116.853041 244.912993 
L 120.132378 243.148635 
L 123.41172 241.939087 
L 126.691057 241.281188 
L 129.970395 241.142642 
L 133.249737 241.471473 
L 136.529069 242.200425 
L 139.808412 243.246784 
L 143.087754 244.515331 
L 146.367086 245.899598 
L 149.646428 247.284827 
L 152.92577 248.54467 
L 156.205103 249.470131 
L 159.484445 246.596132 
L 162.763787 241.476763 
L 166.04312 235.882672 
L 169.322462 229.921347 
L 172.601804 223.67371 
L 175.881137 217.215102 
L 179.160479 210.614039 
L 182.439821 203.93033 
L 185.719153 197.215428 
L 188.998496 190.510968 
L 192.277838 183.84721 
L 195.55717 177.243515 
L 198.836512 170.709539 
L 202.115855 164.244732 
L 205.395187 157.841869 
L 208.674529 151.482742 
L 211.953871 145.150397 
L 215.233204 138.821551 
L 218.512556 132.473653 
L 221.791879 126.08694 
L 225.071221 119.644475 
L 228.350563 113.132922 
L 231.629886 106.551905 
L 234.909247 99.898147 
L 238.18857 93.160257 
L 241.467912 86.269337 
L 244.747254 79.2099 
L 248.026597 72.3456 
L 251.305939 65.881122 
L 254.585262 59.874783 
L 257.864623 54.334764 
L 261.143946 49.254253 
L 264.423288 44.638598 
L 267.70263 40.561707 
L 270.981953 37.160347 
L 274.261315 34.57115 
L 277.540637 32.892134 
L 280.81998 32.196 
L 284.099322 32.226112 
L 287.378664 32.767536 
L 290.658006 34.132499 
L 293.937329 36.417541 
L 297.21669 39.681772 
L 300.496013 43.964638 
L 303.775355 49.292249 
L 307.054697 55.686524 
L 310.33402 63.155655 
L 313.613382 71.68867 
L 316.892705 81.26921 
L 320.172047 91.857493 
L 323.451389 103.39958 
L 326.730731 115.835744 
L 330.010073 129.079895 
L 333.289396 143.036094 
L 336.568738 157.596232 
L 339.84808 172.644359 
L 343.127423 188.052103 
L 346.406765 203.681618 
L 349.686088 219.398587 
L 352.96543 235.051941 
L 356.244772 250.122681 
L 359.524114 257.924935 
L 362.803456 263.798405 
L 366.082798 268.333583 
L 369.362141 271.540724 
L 372.641463 273.450423 
L 375.920806 274.116 
L 379.200148 273.607717 
" clip-path="url(#p69ab859008)" style="fill: none; stroke: #ff7f0e; stroke-width: 1.2; stroke-linecap: round"/>
   </g>
   <g id="line2d_25">
    <path d="M 280.81998 257.778519 
L 280.81998 255.499908 
L 280.81998 253.221297 
L 280.81998 250.942685 
L 280.81998 248.664074 
L 280.81998 246.385462 
L 280.81998 244.106852 
L 280.81998 241.828239 
L 280.81998 239.549629 
L 280.81998 237.271018 
L 280.81998 234.992406 
L 280.81998 232.713795 
L 280.81998 230.435184 
L 280.81998 228.156572 
L 280.81998 225.87796 
L 280.81998 223.599351 
L 280.81998 221.320738 
L 280.81998 219.042126 
L 280.81998 216.763517 
L 280.81998 214.484905 
L 280.81998 212.206292 
L 280.81998 209.927683 
L 280.81998 207.649071 
L 280.81998 205.370459 
L 280.81998 203.09185 
L 280.81998 200.813234 
L 280.81998 198.534625 
L 280.81998 196.256016 
L 280.81998 193.9774 
L 280.81998 191.698791 
L 280.81998 189.420182 
L 280.81998 187.141566 
L 280.81998 184.862957 
L 280.81998 182.584348 
L 280.81998 180.305733 
L 280.81998 178.027124 
L 280.81998 175.748515 
L 280.81998 173.469899 
L 280.81998 171.19129 
L 280.81998 168.912681 
L 280.81998 166.634065 
L 280.81998 164.355456 
L 280.81998 162.076847 
L 280.81998 159.798232 
L 280.81998 157.519623 
L 280.81998 155.241014 
L 280.81998 152.962398 
L 280.81998 150.683789 
L 280.81998 148.40518 
L 280.81998 146.126564 
L 280.81998 143.847962 
L 280.81998 141.569339 
L 280.81998 139.29073 
L 280.81998 137.012121 
L 280.81998 134.733499 
L 280.81998 132.454903 
L 280.81998 130.176281 
L 280.81998 127.897672 
L 280.81998 125.619063 
L 280.81998 123.340454 
L 280.81998 121.061845 
L 280.81998 118.783223 
L 280.81998 116.504627 
L 280.81998 114.226005 
L 280.81998 111.947396 
L 280.81998 109.668787 
L 280.81998 107.390164 
L 280.81998 105.111569 
L 280.81998 102.832946 
L 280.81998 100.554337 
L 280.81998 98.275728 
L 280.81998 95.997119 
L 280.81998 93.71851 
L 280.81998 91.439888 
L 280.81998 89.161292 
L 280.81998 86.88267 
L 280.81998 84.604061 
L 280.81998 82.325452 
L 280.81998 80.046829 
L 280.81998 77.768234 
L 280.81998 75.489611 
L 280.81998 73.211002 
L 280.81998 70.932393 
L 280.81998 68.653784 
L 280.81998 66.375175 
L 280.81998 64.096553 
L 280.81998 61.817944 
L 280.81998 59.539335 
L 280.81998 57.260726 
L 280.81998 54.982117 
L 280.81998 52.703494 
L 280.81998 50.424885 
L 280.81998 48.146276 
L 280.81998 45.867667 
L 280.81998 43.589058 
L 280.81998 41.310449 
L 280.81998 39.03184 
L 280.81998 36.753218 
L 280.81998 34.474609 
L 280.81998 32.196 
" clip-path="url(#p69ab859008)" style="fill: none; stroke: #ff7f0e; stroke-linecap: round"/>
   </g>
   <g id="patch_7">
    <path d="M 38.312875 286.212 
L 38.312875 20.1 
" style="fill: none; stroke: #262626; stroke-linejoin: miter; stroke-linecap: square"/>
   </g>
   <g id="patch_8">
    <path d="M 395.432875 286.212 
L 395.432875 20.1 
" style="fill: none; stroke: #262626; stroke-linejoin: miter; stroke-linecap: square"/>
   </g>
   <g id="patch_9">
    <path d="M 38.312875 286.212 
L 395.432875 286.212 
" style="fill: none; stroke: #262626; stroke-linejoin: miter; stroke-linecap: square"/>
   </g>
   <g id="patch_10">
    <path d="M 38.312875 20.1 
L 395.432875 20.1 
" style="fill: none; stroke: #262626; stroke-linejoin: miter; stroke-linecap: square"/>
   </g>
  </g>
 </g>
 <defs>
  <clipPath id="p69ab859008">
   <rect x="38.312875" y="20.1" width="357.12" height="266.112"/>
  </clipPath>
 </defs>
</svg>