<?xml version="1.0" encoding="utf-8" standalone="no"?>
<!DOCTYPE svg PUBLIC "-//W3C//DTD SVG 1.1//EN"
  "http://www.w3.org/Graphics/SVG/1.1/DTD/svg11.dtd">
<svg xmlns:xlink="http://www.w3.org/1999/xlink" width="402.91925pt" height="309.650869pt" viewBox="0 0 402.91925 309.650869" xmlns="http://www.w3.org/2000/svg" version="1.1">
 <metadata>
  <rdf:RDF xmlns:dc="http://purl.org/dc/elements/1.1/" xmlns:cc="http://creativecommons.org/ns#" xmlns:rdf="http://www.w3.org/1999/02/22-rdf-syntax-ns#">
   <cc:Work>
    <dc:type rdf:resource="http://purl.org/dc/dcmitype/StillImage"/>
    <dc:date>2023-09-16T15:53:26.780722</dc:date>
    <dc:format>image/svg+xml</dc:format>
    <dc:creator>
     <cc:Agent>
      <dc:title>Matplotlib v3.7.1, https://matplotlib.org/</dc:title>
     </cc:Agent>
    </dc:creator>
   </cc:Work>
  </rdf:RDF>
 </metadata>
 <defs>
  <style type="text/css">*{stroke-linejoin: round; stroke-linecap: butt}</style>
 </defs>
 <g id="figure_1">
  <g id="patch_1">
   <path d="M 0 309.650869 
L 402.91925 309.650869 
L 402.91925 0 
L 0 0 
z
" style="fill: #ffffff"/>
  </g>
  <g id="axes_1">
   <g id="patch_2">
    <path d="M 38.59925 273.323494 
L 395.71925 273.323494 
L 395.71925 7.211494 
L 38.59925 7.211494 
z
" style="fill: #ffffff"/>
   </g>
   <g id="matplotlib.axis_1">
    <g id="xtick_1">
     <g id="line2d_1">
      <defs>
       <path id="m7ab4effe2f" d="M 0 0 
L 0 4.8 
" style="stroke: #262626"/>
      </defs>
      <g>
       <use xlink:href="#m7ab4effe2f" x="54.831977" y="273.323494" style="fill: #262626; stroke: #262626"/>
      </g>
     </g>
     <g id="text_1">
      <!-- 0 -->
      <g style="fill: #262626" transform="translate(52.385165 287.922369) scale(0.088 -0.088)">
       <defs>
        <path id="ArialMT-30" d="M 266 2259 
Q 266 3072 433 3567 
Q 600 4063 929 4331 
Q 1259 4600 1759 4600 
Q 2128 4600 2406 4451 
Q 2684 4303 2865 4023 
Q 3047 3744 3150 3342 
Q 3253 2941 3253 2259 
Q 3253 1453 3087 958 
Q 2922 463 2592 192 
Q 2263 -78 1759 -78 
Q 1097 -78 719 397 
Q 266 969 266 2259 
z
M 844 2259 
Q 844 1131 1108 757 
Q 1372 384 1759 384 
Q 2147 384 2411 759 
Q 2675 1134 2675 2259 
Q 2675 3391 2411 3762 
Q 2147 4134 1753 4134 
Q 1366 4134 1134 3806 
Q 844 3388 844 2259 
z
" transform="scale(0.015625)"/>
       </defs>
       <use xlink:href="#ArialMT-30"/>
      </g>
     </g>
    </g>
    <g id="xtick_2">
     <g id="line2d_2">
      <g>
       <use xlink:href="#m7ab4effe2f" x="119.762886" y="273.323494" style="fill: #262626; stroke: #262626"/>
      </g>
     </g>
     <g id="text_2">
      <!-- 20 -->
      <g style="fill: #262626" transform="translate(114.869261 287.922369) scale(0.088 -0.088)">
       <defs>
        <path id="ArialMT-32" d="M 3222 541 
L 3222 0 
L 194 0 
Q 188 203 259 391 
Q 375 700 629 1000 
Q 884 1300 1366 1694 
Q 2113 2306 2375 2664 
Q 2638 3022 2638 3341 
Q 2638 3675 2398 3904 
Q 2159 4134 1775 4134 
Q 1369 4134 1125 3890 
Q 881 3647 878 3216 
L 300 3275 
Q 359 3922 746 4261 
Q 1134 4600 1788 4600 
Q 2447 4600 2831 4234 
Q 3216 3869 3216 3328 
Q 3216 3053 3103 2787 
Q 2991 2522 2730 2228 
Q 2469 1934 1863 1422 
Q 1356 997 1212 845 
Q 1069 694 975 541 
L 3222 541 
z
" transform="scale(0.015625)"/>
       </defs>
       <use xlink:href="#ArialMT-32"/>
       <use xlink:href="#ArialMT-30" x="55.615234"/>
      </g>
     </g>
    </g>
    <g id="xtick_3">
     <g id="line2d_3">
      <g>
       <use xlink:href="#m7ab4effe2f" x="184.693795" y="273.323494" style="fill: #262626; stroke: #262626"/>
      </g>
     </g>
     <g id="text_3">
      <!-- 40 -->
      <g style="fill: #262626" transform="translate(179.80017 287.922369) scale(0.088 -0.088)">
       <defs>
        <path id="ArialMT-34" d="M 2069 0 
L 2069 1097 
L 81 1097 
L 81 1613 
L 2172 4581 
L 2631 4581 
L 2631 1613 
L 3250 1613 
L 3250 1097 
L 2631 1097 
L 2631 0 
L 2069 0 
z
M 2069 1613 
L 2069 3678 
L 634 1613 
L 2069 1613 
z
" transform="scale(0.015625)"/>
       </defs>
       <use xlink:href="#ArialMT-34"/>
       <use xlink:href="#ArialMT-30" x="55.615234"/>
      </g>
     </g>
    </g>
    <g id="xtick_4">
     <g id="line2d_4">
      <g>
       <use xlink:href="#m7ab4effe2f" x="249.624705" y="273.323494" style="fill: #262626; stroke: #262626"/>
      </g>
     </g>
     <g id="text_4">
      <!-- 60 -->
      <g style="fill: #262626" transform="translate(244.73108 287.922369) scale(0.088 -0.088)">
       <defs>
        <path id="ArialMT-36" d="M 3184 3459 
L 2625 3416 
Q 2550 3747 2413 3897 
Q 2184 4138 1850 4138 
Q 1581 4138 1378 3988 
Q 1113 3794 959 3422 
Q 806 3050 800 2363 
Q 1003 2672 1297 2822 
Q 1591 2972 1913 2972 
Q 2475 2972 2870 2558 
Q 3266 2144 3266 1488 
Q 3266 1056 3080 686 
Q 2894 316 2569 119 
Q 2244 -78 1831 -78 
Q 1128 -78 684 439 
Q 241 956 241 2144 
Q 241 3472 731 4075 
Q 1159 4600 1884 4600 
Q 2425 4600 2770 4297 
Q 3116 3994 3184 3459 
z
M 888 1484 
Q 888 1194 1011 928 
Q 1134 663 1356 523 
Q 1578 384 1822 384 
Q 2178 384 2434 671 
Q 2691 959 2691 1453 
Q 2691 1928 2437 2201 
Q 2184 2475 1800 2475 
Q 1419 2475 1153 2201 
Q 888 1928 888 1484 
z
" transform="scale(0.015625)"/>
       </defs>
       <use xlink:href="#ArialMT-36"/>
       <use xlink:href="#ArialMT-30" x="55.615234"/>
      </g>
     </g>
    </g>
    <g id="xtick_5">
     <g id="line2d_5">
      <g>
       <use xlink:href="#m7ab4effe2f" x="314.555614" y="273.323494" style="fill: #262626; stroke: #262626"/>
      </g>
     </g>
     <g id="text_5">
      <!-- 80 -->
      <g style="fill: #262626" transform="translate(309.661989 287.922369) scale(0.088 -0.088)">
       <defs>
        <path id="ArialMT-38" d="M 1131 2484 
Q 781 2613 612 2850 
Q 444 3088 444 3419 
Q 444 3919 803 4259 
Q 1163 4600 1759 4600 
Q 2359 4600 2725 4251 
Q 3091 3903 3091 3403 
Q 3091 3084 2923 2848 
Q 2756 2613 2416 2484 
Q 2838 2347 3058 2040 
Q 3278 1734 3278 1309 
Q 3278 722 2862 322 
Q 2447 -78 1769 -78 
Q 1091 -78 675 323 
Q 259 725 259 1325 
Q 259 1772 486 2073 
Q 713 2375 1131 2484 
z
M 1019 3438 
Q 1019 3113 1228 2906 
Q 1438 2700 1772 2700 
Q 2097 2700 2305 2904 
Q 2513 3109 2513 3406 
Q 2513 3716 2298 3927 
Q 2084 4138 1766 4138 
Q 1444 4138 1231 3931 
Q 1019 3725 1019 3438 
z
M 838 1322 
Q 838 1081 952 856 
Q 1066 631 1291 507 
Q 1516 384 1775 384 
Q 2178 384 2440 643 
Q 2703 903 2703 1303 
Q 2703 1709 2433 1975 
Q 2163 2241 1756 2241 
Q 1359 2241 1098 1978 
Q 838 1716 838 1322 
z
" transform="scale(0.015625)"/>
       </defs>
       <use xlink:href="#ArialMT-38"/>
       <use xlink:href="#ArialMT-30" x="55.615234"/>
      </g>
     </g>
    </g>
    <g id="xtick_6">
     <g id="line2d_6">
      <g>
       <use xlink:href="#m7ab4effe2f" x="379.486523" y="273.323494" style="fill: #262626; stroke: #262626"/>
      </g>
     </g>
     <g id="text_6">
      <!-- 100 -->
      <g style="fill: #262626" transform="translate(372.146085 287.922369) scale(0.088 -0.088)">
       <defs>
        <path id="ArialMT-31" d="M 2384 0 
L 1822 0 
L 1822 3584 
Q 1619 3391 1289 3197 
Q 959 3003 697 2906 
L 697 3450 
Q 1169 3672 1522 3987 
Q 1875 4303 2022 4600 
L 2384 4600 
L 2384 0 
z
" transform="scale(0.015625)"/>
       </defs>
       <use xlink:href="#ArialMT-31"/>
       <use xlink:href="#ArialMT-30" x="55.615234"/>
       <use xlink:href="#ArialMT-30" x="111.230469"/>
      </g>
     </g>
    </g>
    <g id="text_7">
     <!-- $t$ -->
     <g style="fill: #262626" transform="translate(215.23925 300.542869) scale(0.096 -0.096)">
      <defs>
       <path id="DejaVuSans-Oblique-74" d="M 2706 3500 
L 2619 3053 
L 1472 3053 
L 1100 1153 
Q 1081 1047 1072 975 
Q 1063 903 1063 863 
Q 1063 663 1183 572 
Q 1303 481 1569 481 
L 2150 481 
L 2053 0 
L 1503 0 
Q 991 0 739 200 
Q 488 400 488 806 
Q 488 878 497 964 
Q 506 1050 525 1153 
L 897 3053 
L 409 3053 
L 500 3500 
L 978 3500 
L 1172 4494 
L 1747 4494 
L 1556 3500 
L 2706 3500 
z
" transform="scale(0.015625)"/>
      </defs>
      <use xlink:href="#DejaVuSans-Oblique-74" transform="translate(0 0.78125)"/>
     </g>
    </g>
   </g>
   <g id="matplotlib.axis_2">
    <g id="ytick_1">
     <g id="line2d_7">
      <defs>
       <path id="m65735b5b42" d="M 0 0 
L -4.8 0 
" style="stroke: #262626"/>
      </defs>
      <g>
       <use xlink:href="#m65735b5b42" x="38.59925" y="261.227494" style="fill: #262626; stroke: #262626"/>
      </g>
     </g>
     <g id="text_8">
      <!-- 0 -->
      <g style="fill: #262626" transform="translate(25.405625 264.376931) scale(0.088 -0.088)">
       <use xlink:href="#ArialMT-30"/>
      </g>
     </g>
    </g>
    <g id="ytick_2">
     <g id="line2d_8">
      <g>
       <use xlink:href="#m65735b5b42" x="38.59925" y="219.414484" style="fill: #262626; stroke: #262626"/>
      </g>
     </g>
     <g id="text_9">
      <!-- 2 -->
      <g style="fill: #262626" transform="translate(25.405625 222.563922) scale(0.088 -0.088)">
       <use xlink:href="#ArialMT-32"/>
      </g>
     </g>
    </g>
    <g id="ytick_3">
     <g id="line2d_9">
      <g>
       <use xlink:href="#m65735b5b42" x="38.59925" y="177.601475" style="fill: #262626; stroke: #262626"/>
      </g>
     </g>
     <g id="text_10">
      <!-- 4 -->
      <g style="fill: #262626" transform="translate(25.405625 180.750913) scale(0.088 -0.088)">
       <use xlink:href="#ArialMT-34"/>
      </g>
     </g>
    </g>
    <g id="ytick_4">
     <g id="line2d_10">
      <g>
       <use xlink:href="#m65735b5b42" x="38.59925" y="135.788466" style="fill: #262626; stroke: #262626"/>
      </g>
     </g>
     <g id="text_11">
      <!-- 6 -->
      <g style="fill: #262626" transform="translate(25.405625 138.937903) scale(0.088 -0.088)">
       <use xlink:href="#ArialMT-36"/>
      </g>
     </g>
    </g>
    <g id="ytick_5">
     <g id="line2d_11">
      <g>
       <use xlink:href="#m65735b5b42" x="38.59925" y="93.975456" style="fill: #262626; stroke: #262626"/>
      </g>
     </g>
     <g id="text_12">
      <!-- 8 -->
      <g style="fill: #262626" transform="translate(25.405625 97.124894) scale(0.088 -0.088)">
       <use xlink:href="#ArialMT-38"/>
      </g>
     </g>
    </g>
    <g id="ytick_6">
     <g id="line2d_12">
      <g>
       <use xlink:href="#m65735b5b42" x="38.59925" y="52.162447" style="fill: #262626; stroke: #262626"/>
      </g>
     </g>
     <g id="text_13">
      <!-- 10 -->
      <g style="fill: #262626" transform="translate(20.512 55.311884) scale(0.088 -0.088)">
       <use xlink:href="#ArialMT-31"/>
       <use xlink:href="#ArialMT-30" x="55.615234"/>
      </g>
     </g>
    </g>
    <g id="ytick_7">
     <g id="line2d_13">
      <g>
       <use xlink:href="#m65735b5b42" x="38.59925" y="10.349437" style="fill: #262626; stroke: #262626"/>
      </g>
     </g>
     <g id="text_14">
      <!-- 12 -->
      <g style="fill: #262626" transform="translate(20.512 13.498875) scale(0.088 -0.088)">
       <use xlink:href="#ArialMT-31"/>
       <use xlink:href="#ArialMT-32" x="55.615234"/>
      </g>
     </g>
    </g>
    <g id="text_15">
     <!-- $y(t)$ -->
     <g style="fill: #262626" transform="translate(14.496 148.763494) rotate(-90) scale(0.096 -0.096)">
      <defs>
       <path id="DejaVuSans-Oblique-79" d="M 1588 -325 
Q 1188 -997 936 -1164 
Q 684 -1331 294 -1331 
L -159 -1331 
L -63 -850 
L 269 -850 
Q 509 -850 678 -719 
Q 847 -588 1056 -206 
L 1234 128 
L 459 3500 
L 1069 3500 
L 1650 819 
L 3256 3500 
L 3859 3500 
L 1588 -325 
z
" transform="scale(0.015625)"/>
       <path id="DejaVuSans-28" d="M 1984 4856 
Q 1566 4138 1362 3434 
Q 1159 2731 1159 2009 
Q 1159 1288 1364 580 
Q 1569 -128 1984 -844 
L 1484 -844 
Q 1016 -109 783 600 
Q 550 1309 550 2009 
Q 550 2706 781 3412 
Q 1013 4119 1484 4856 
L 1984 4856 
z
" transform="scale(0.015625)"/>
       <path id="DejaVuSans-29" d="M 513 4856 
L 1013 4856 
Q 1481 4119 1714 3412 
Q 1947 2706 1947 2009 
Q 1947 1309 1714 600 
Q 1481 -109 1013 -844 
L 513 -844 
Q 928 -128 1133 580 
Q 1338 1288 1338 2009 
Q 1338 2731 1133 3434 
Q 928 4138 513 4856 
z
" transform="scale(0.015625)"/>
      </defs>
      <use xlink:href="#DejaVuSans-Oblique-79" transform="translate(0 0.125)"/>
      <use xlink:href="#DejaVuSans-28" transform="translate(59.179688 0.125)"/>
      <use xlink:href="#DejaVuSans-Oblique-74" transform="translate(98.193359 0.125)"/>
      <use xlink:href="#DejaVuSans-29" transform="translate(137.402344 0.125)"/>
     </g>
    </g>
   </g>
   <g id="line2d_14">
    <path d="M 54.831977 62.914281 
L 58.111316 79.701652 
L 61.390655 91.959887 
L 64.669994 102.746472 
L 67.949333 113.287851 
L 71.228671 122.893786 
L 74.50801 132.181882 
L 77.787349 140.856095 
L 81.066688 148.675688 
L 84.346027 156.209424 
L 87.625366 163.420665 
L 90.904705 169.836653 
L 94.184043 175.911194 
L 97.463382 181.83866 
L 100.742721 186.984803 
L 104.02206 192.086656 
L 107.301399 196.916096 
L 110.580738 201.23649 
L 113.860076 205.267109 
L 117.139415 209.134238 
L 120.418754 212.729742 
L 123.698093 216.114692 
L 126.977432 219.145608 
L 130.256771 221.987473 
L 133.53611 224.603164 
L 136.815448 227.039753 
L 140.094787 229.346997 
L 143.374126 231.498141 
L 146.653465 233.48984 
L 149.932804 235.355609 
L 153.212143 237.106785 
L 156.491481 238.731593 
L 159.77082 240.221481 
L 163.050159 241.668205 
L 166.329498 243.00548 
L 169.608837 244.237531 
L 172.888176 245.382861 
L 176.167514 246.428052 
L 179.446853 247.434994 
L 182.726192 248.358959 
L 186.005531 249.224491 
L 189.28487 250.022861 
L 192.564209 250.759582 
L 195.843548 251.453522 
L 199.122886 252.107405 
L 202.402225 252.740829 
L 205.681564 253.307619 
L 208.960903 253.838632 
L 212.240242 254.339236 
L 215.519581 254.804399 
L 218.798919 255.246602 
L 222.078258 255.652511 
L 225.357597 256.024508 
L 228.636936 256.373389 
L 231.916275 256.701142 
L 235.195614 257.010052 
L 238.474952 257.2931 
L 241.754291 257.559269 
L 245.03363 257.8069 
L 248.312969 258.037183 
L 251.592308 258.250531 
L 254.871647 258.451769 
L 258.150986 258.641427 
L 261.430324 258.815621 
L 264.709663 258.978055 
L 267.989002 259.131077 
L 271.268341 259.271792 
L 274.54768 259.405897 
L 277.827019 259.531078 
L 281.106357 259.646621 
L 284.385696 259.753447 
L 287.665035 259.852076 
L 290.944374 259.945839 
L 294.223713 260.031038 
L 297.503052 260.11218 
L 300.78239 260.187897 
L 304.061729 260.257754 
L 307.341068 260.322646 
L 310.620407 260.383197 
L 313.899746 260.439633 
L 317.179085 260.492101 
L 320.458424 260.541473 
L 323.737762 260.587501 
L 327.017101 260.630327 
L 330.29644 260.670288 
L 333.575779 260.707575 
L 336.855118 260.742585 
L 340.134457 260.775391 
L 343.413795 260.805977 
L 346.693134 260.834184 
L 349.972473 260.860833 
L 353.251812 260.885052 
L 356.531151 260.907925 
L 359.81049 260.929306 
L 363.089829 260.949252 
L 366.369167 260.967862 
L 369.648506 260.985316 
L 372.927845 261.001641 
L 376.207184 261.016688 
L 379.486523 261.030739 
" clip-path="url(#peb38db24d8)" style="fill: none; stroke: #1f77b4; stroke-width: 1.2; stroke-linecap: round"/>
   </g>
   <g id="line2d_15">
    <path d="M 54.831977 100.215034 
L 58.111316 132.11182 
L 61.390655 170.701914 
L 64.669994 198.674487 
L 67.949333 218.312088 
L 71.228671 231.917768 
L 74.50801 241.247683 
L 77.787349 247.603957 
L 81.066688 251.846588 
L 84.346027 254.792389 
L 87.625366 256.883582 
L 90.904705 258.278511 
L 94.184043 259.213013 
L 97.463382 259.84952 
L 100.742721 260.288049 
L 104.02206 260.587234 
L 107.301399 260.789067 
L 110.580738 260.927087 
L 113.860076 261.023261 
L 117.139415 261.087513 
L 120.418754 261.131303 
L 123.698093 261.161441 
L 126.977432 261.182436 
L 130.256771 261.196757 
L 133.53611 261.206514 
L 136.815448 261.213138 
L 140.094787 261.21767 
L 143.374126 261.220796 
L 146.653465 261.222943 
L 149.932804 261.224397 
L 153.212143 261.225388 
L 156.491481 261.226063 
L 159.77082 261.226518 
L 163.050159 261.226829 
L 166.329498 261.22704 
L 169.608837 261.227184 
L 172.888176 261.227282 
L 176.167514 261.227349 
L 179.446853 261.227395 
L 182.726192 261.227426 
L 186.005531 261.227448 
L 189.28487 261.227462 
L 192.564209 261.227472 
L 195.843548 261.227479 
L 199.122886 261.227484 
L 202.402225 261.227487 
L 205.681564 261.227489 
L 208.960903 261.227491 
L 212.240242 261.227492 
L 215.519581 261.227492 
L 218.798919 261.227493 
L 222.078258 261.227493 
L 225.357597 261.227493 
L 228.636936 261.227493 
L 231.916275 261.227494 
L 235.195614 261.227494 
L 238.474952 261.227494 
L 241.754291 261.227494 
L 245.03363 261.227494 
L 248.312969 261.227494 
L 251.592308 261.227494 
L 254.871647 261.227494 
L 258.150986 261.227494 
L 261.430324 261.227494 
L 264.709663 261.227494 
L 267.989002 261.227494 
L 271.268341 261.227494 
L 274.54768 261.227494 
L 277.827019 261.227494 
L 281.106357 261.227494 
L 284.385696 261.227494 
L 287.665035 261.227494 
L 290.944374 261.227494 
L 294.223713 261.227494 
L 297.503052 261.227494 
L 300.78239 261.227494 
L 304.061729 261.227494 
L 307.341068 261.227494 
L 310.620407 261.227494 
L 313.899746 261.227494 
L 317.179085 261.227494 
L 320.458424 261.227494 
L 323.737762 261.227494 
L 327.017101 261.227494 
L 330.29644 261.227494 
L 333.575779 261.227494 
L 336.855118 261.227494 
L 340.134457 261.227494 
L 343.413795 261.227494 
L 346.693134 261.227494 
L 349.972473 261.227494 
L 353.251812 261.227494 
L 356.531151 261.227494 
L 359.81049 261.227494 
L 363.089829 261.227494 
L 366.369167 261.227494 
L 369.648506 261.227494 
L 372.927845 261.227494 
L 376.207184 261.227494 
L 379.486523 261.227494 
" clip-path="url(#peb38db24d8)" style="fill: none; stroke-dasharray: 4.44,1.92; stroke-dashoffset: 0; stroke: #ff7f0e; stroke-width: 1.2"/>
   </g>
   <g id="line2d_16">
    <path d="M 54.831977 19.307494 
L 58.111316 31.136207 
L 61.390655 37.325677 
L 64.669994 41.243689 
L 67.949333 44.568748 
L 71.228671 46.727323 
L 74.50801 48.556249 
L 77.787349 50.886164 
L 81.066688 52.868008 
L 84.346027 54.39752 
L 87.625366 56.145611 
L 90.904705 57.663977 
L 94.184043 59.108346 
L 97.463382 60.315533 
L 100.742721 60.977623 
L 104.02206 62.057394 
L 107.301399 62.89 
L 110.580738 63.975624 
L 113.860076 64.837022 
L 117.139415 65.378513 
L 120.418754 66.199939 
L 123.698093 67.294525 
L 126.977432 68.360394 
L 130.256771 69.005472 
L 133.53611 69.569045 
L 136.815448 70.342236 
L 140.094787 70.926622 
L 143.374126 71.734293 
L 146.653465 72.261836 
L 149.932804 72.941094 
L 153.212143 73.704766 
L 156.491481 74.152908 
L 159.77082 74.674069 
L 163.050159 75.388948 
L 166.329498 75.803168 
L 169.608837 76.316348 
L 172.888176 77.273991 
L 176.167514 77.733 
L 179.446853 78.248832 
L 182.726192 78.711678 
L 186.005531 79.519415 
L 189.28487 79.910541 
L 192.564209 80.37749 
L 195.843548 81.031523 
L 199.122886 81.603711 
L 202.402225 82.183952 
L 205.681564 82.750707 
L 208.960903 83.578145 
L 212.240242 84.14444 
L 215.519581 84.593994 
L 218.798919 85.260788 
L 222.078258 85.654581 
L 225.357597 86.046503 
L 228.636936 86.494108 
L 231.916275 86.856151 
L 235.195614 87.238601 
L 238.474952 87.787548 
L 241.754291 88.472669 
L 245.03363 89.016473 
L 248.312969 89.699096 
L 251.592308 90.088548 
L 254.871647 90.622313 
L 258.150986 91.38265 
L 261.430324 91.595469 
L 264.709663 92.109701 
L 267.989002 92.577267 
L 271.268341 92.935097 
L 274.54768 93.304663 
L 277.827019 93.860981 
L 281.106357 94.174031 
L 284.385696 94.57535 
L 287.665035 94.897311 
L 290.944374 95.168777 
L 294.223713 95.500252 
L 297.503052 95.980822 
L 300.78239 96.554038 
L 304.061729 96.968588 
L 307.341068 97.477846 
L 310.620407 97.820992 
L 313.899746 98.099095 
L 317.179085 98.592571 
L 320.458424 98.984169 
L 323.737762 99.584506 
L 327.017101 99.799734 
L 330.29644 100.313998 
L 333.575779 100.50991 
L 336.855118 100.798378 
L 340.134457 101.24606 
L 343.413795 101.713209 
L 346.693134 102.151629 
L 349.972473 102.573543 
L 353.251812 103.009869 
L 356.531151 103.450171 
L 359.81049 103.893988 
L 363.089829 104.380215 
L 366.369167 104.985209 
L 369.648506 105.344555 
L 372.927845 105.640057 
L 376.207184 106.059928 
L 379.486523 106.417018 
" clip-path="url(#peb38db24d8)" style="fill: none; stroke-dasharray: 1.2,1.98; stroke-dashoffset: 0; stroke: #2ca02c; stroke-width: 1.2"/>
   </g>
   <g id="patch_3">
    <path d="M 38.59925 261.227494 
L 38.59925 10.349437 
" style="fill: none; stroke: #262626; stroke-linejoin: miter; stroke-linecap: square"/>
   </g>
   <g id="patch_4">
    <path d="M 54.831977 273.323494 
L 379.486523 273.323494 
" style="fill: none; stroke: #262626; stroke-linejoin: miter; stroke-linecap: square"/>
   </g>
   <g id="legend_1">
    <g id="line2d_17">
     <path d="M 307.3865 18.350369 
L 316.1865 18.350369 
L 324.9865 18.350369 
" style="fill: none; stroke: #1f77b4; stroke-width: 1.2; stroke-linecap: round"/>
    </g>
    <g id="text_16">
     <!-- Median -->
     <g style="fill: #262626" transform="translate(332.0265 21.430369) scale(0.088 -0.088)">
      <defs>
       <path id="ArialMT-4d" d="M 475 0 
L 475 4581 
L 1388 4581 
L 2472 1338 
Q 2622 884 2691 659 
Q 2769 909 2934 1394 
L 4031 4581 
L 4847 4581 
L 4847 0 
L 4263 0 
L 4263 3834 
L 2931 0 
L 2384 0 
L 1059 3900 
L 1059 0 
L 475 0 
z
" transform="scale(0.015625)"/>
       <path id="ArialMT-65" d="M 2694 1069 
L 3275 997 
Q 3138 488 2766 206 
Q 2394 -75 1816 -75 
Q 1088 -75 661 373 
Q 234 822 234 1631 
Q 234 2469 665 2931 
Q 1097 3394 1784 3394 
Q 2450 3394 2872 2941 
Q 3294 2488 3294 1666 
Q 3294 1616 3291 1516 
L 816 1516 
Q 847 969 1125 678 
Q 1403 388 1819 388 
Q 2128 388 2347 550 
Q 2566 713 2694 1069 
z
M 847 1978 
L 2700 1978 
Q 2663 2397 2488 2606 
Q 2219 2931 1791 2931 
Q 1403 2931 1139 2672 
Q 875 2413 847 1978 
z
" transform="scale(0.015625)"/>
       <path id="ArialMT-64" d="M 2575 0 
L 2575 419 
Q 2259 -75 1647 -75 
Q 1250 -75 917 144 
Q 584 363 401 755 
Q 219 1147 219 1656 
Q 219 2153 384 2558 
Q 550 2963 881 3178 
Q 1213 3394 1622 3394 
Q 1922 3394 2156 3267 
Q 2391 3141 2538 2938 
L 2538 4581 
L 3097 4581 
L 3097 0 
L 2575 0 
z
M 797 1656 
Q 797 1019 1065 703 
Q 1334 388 1700 388 
Q 2069 388 2326 689 
Q 2584 991 2584 1609 
Q 2584 2291 2321 2609 
Q 2059 2928 1675 2928 
Q 1300 2928 1048 2622 
Q 797 2316 797 1656 
z
" transform="scale(0.015625)"/>
       <path id="ArialMT-69" d="M 425 3934 
L 425 4581 
L 988 4581 
L 988 3934 
L 425 3934 
z
M 425 0 
L 425 3319 
L 988 3319 
L 988 0 
L 425 0 
z
" transform="scale(0.015625)"/>
       <path id="ArialMT-61" d="M 2588 409 
Q 2275 144 1986 34 
Q 1697 -75 1366 -75 
Q 819 -75 525 192 
Q 231 459 231 875 
Q 231 1119 342 1320 
Q 453 1522 633 1644 
Q 813 1766 1038 1828 
Q 1203 1872 1538 1913 
Q 2219 1994 2541 2106 
Q 2544 2222 2544 2253 
Q 2544 2597 2384 2738 
Q 2169 2928 1744 2928 
Q 1347 2928 1158 2789 
Q 969 2650 878 2297 
L 328 2372 
Q 403 2725 575 2942 
Q 747 3159 1072 3276 
Q 1397 3394 1825 3394 
Q 2250 3394 2515 3294 
Q 2781 3194 2906 3042 
Q 3031 2891 3081 2659 
Q 3109 2516 3109 2141 
L 3109 1391 
Q 3109 606 3145 398 
Q 3181 191 3288 0 
L 2700 0 
Q 2613 175 2588 409 
z
M 2541 1666 
Q 2234 1541 1622 1453 
Q 1275 1403 1131 1340 
Q 988 1278 909 1158 
Q 831 1038 831 891 
Q 831 666 1001 516 
Q 1172 366 1500 366 
Q 1825 366 2078 508 
Q 2331 650 2450 897 
Q 2541 1088 2541 1459 
L 2541 1666 
z
" transform="scale(0.015625)"/>
       <path id="ArialMT-6e" d="M 422 0 
L 422 3319 
L 928 3319 
L 928 2847 
Q 1294 3394 1984 3394 
Q 2284 3394 2536 3286 
Q 2788 3178 2913 3003 
Q 3038 2828 3088 2588 
Q 3119 2431 3119 2041 
L 3119 0 
L 2556 0 
L 2556 2019 
Q 2556 2363 2490 2533 
Q 2425 2703 2258 2804 
Q 2091 2906 1866 2906 
Q 1506 2906 1245 2678 
Q 984 2450 984 1813 
L 984 0 
L 422 0 
z
" transform="scale(0.015625)"/>
      </defs>
      <use xlink:href="#ArialMT-4d"/>
      <use xlink:href="#ArialMT-65" x="83.300781"/>
      <use xlink:href="#ArialMT-64" x="138.916016"/>
      <use xlink:href="#ArialMT-69" x="194.53125"/>
      <use xlink:href="#ArialMT-61" x="216.748047"/>
      <use xlink:href="#ArialMT-6e" x="272.363281"/>
     </g>
    </g>
    <g id="line2d_18">
     <path d="M 307.3865 30.824369 
L 316.1865 30.824369 
L 324.9865 30.824369 
" style="fill: none; stroke-dasharray: 4.44,1.92; stroke-dashoffset: 0; stroke: #ff7f0e; stroke-width: 1.2"/>
    </g>
    <g id="text_17">
     <!-- 0.025-quantile -->
     <g style="fill: #262626" transform="translate(332.0265 33.904369) scale(0.088 -0.088)">
      <defs>
       <path id="ArialMT-2e" d="M 581 0 
L 581 641 
L 1222 641 
L 1222 0 
L 581 0 
z
" transform="scale(0.015625)"/>
       <path id="ArialMT-35" d="M 266 1200 
L 856 1250 
Q 922 819 1161 601 
Q 1400 384 1738 384 
Q 2144 384 2425 690 
Q 2706 997 2706 1503 
Q 2706 1984 2436 2262 
Q 2166 2541 1728 2541 
Q 1456 2541 1237 2417 
Q 1019 2294 894 2097 
L 366 2166 
L 809 4519 
L 3088 4519 
L 3088 3981 
L 1259 3981 
L 1013 2750 
Q 1425 3038 1878 3038 
Q 2478 3038 2890 2622 
Q 3303 2206 3303 1553 
Q 3303 931 2941 478 
Q 2500 -78 1738 -78 
Q 1113 -78 717 272 
Q 322 622 266 1200 
z
" transform="scale(0.015625)"/>
       <path id="ArialMT-2d" d="M 203 1375 
L 203 1941 
L 1931 1941 
L 1931 1375 
L 203 1375 
z
" transform="scale(0.015625)"/>
       <path id="ArialMT-71" d="M 2538 -1272 
L 2538 353 
Q 2406 169 2170 47 
Q 1934 -75 1669 -75 
Q 1078 -75 651 397 
Q 225 869 225 1691 
Q 225 2191 398 2587 
Q 572 2984 901 3189 
Q 1231 3394 1625 3394 
Q 2241 3394 2594 2875 
L 2594 3319 
L 3100 3319 
L 3100 -1272 
L 2538 -1272 
z
M 803 1669 
Q 803 1028 1072 708 
Q 1341 388 1716 388 
Q 2075 388 2334 692 
Q 2594 997 2594 1619 
Q 2594 2281 2320 2615 
Q 2047 2950 1678 2950 
Q 1313 2950 1058 2639 
Q 803 2328 803 1669 
z
" transform="scale(0.015625)"/>
       <path id="ArialMT-75" d="M 2597 0 
L 2597 488 
Q 2209 -75 1544 -75 
Q 1250 -75 995 37 
Q 741 150 617 320 
Q 494 491 444 738 
Q 409 903 409 1263 
L 409 3319 
L 972 3319 
L 972 1478 
Q 972 1038 1006 884 
Q 1059 663 1231 536 
Q 1403 409 1656 409 
Q 1909 409 2131 539 
Q 2353 669 2445 892 
Q 2538 1116 2538 1541 
L 2538 3319 
L 3100 3319 
L 3100 0 
L 2597 0 
z
" transform="scale(0.015625)"/>
       <path id="ArialMT-74" d="M 1650 503 
L 1731 6 
Q 1494 -44 1306 -44 
Q 1000 -44 831 53 
Q 663 150 594 308 
Q 525 466 525 972 
L 525 2881 
L 113 2881 
L 113 3319 
L 525 3319 
L 525 4141 
L 1084 4478 
L 1084 3319 
L 1650 3319 
L 1650 2881 
L 1084 2881 
L 1084 941 
Q 1084 700 1114 631 
Q 1144 563 1211 522 
Q 1278 481 1403 481 
Q 1497 481 1650 503 
z
" transform="scale(0.015625)"/>
       <path id="ArialMT-6c" d="M 409 0 
L 409 4581 
L 972 4581 
L 972 0 
L 409 0 
z
" transform="scale(0.015625)"/>
      </defs>
      <use xlink:href="#ArialMT-30"/>
      <use xlink:href="#ArialMT-2e" x="55.615234"/>
      <use xlink:href="#ArialMT-30" x="83.398438"/>
      <use xlink:href="#ArialMT-32" x="139.013672"/>
      <use xlink:href="#ArialMT-35" x="194.628906"/>
      <use xlink:href="#ArialMT-2d" x="250.244141"/>
      <use xlink:href="#ArialMT-71" x="283.544922"/>
      <use xlink:href="#ArialMT-75" x="339.160156"/>
      <use xlink:href="#ArialMT-61" x="394.775391"/>
      <use xlink:href="#ArialMT-6e" x="450.390625"/>
      <use xlink:href="#ArialMT-74" x="506.005859"/>
      <use xlink:href="#ArialMT-69" x="533.789062"/>
      <use xlink:href="#ArialMT-6c" x="556.005859"/>
      <use xlink:href="#ArialMT-65" x="578.222656"/>
     </g>
    </g>
    <g id="line2d_19">
     <path d="M 307.3865 43.298369 
L 316.1865 43.298369 
L 324.9865 43.298369 
" style="fill: none; stroke-dasharray: 1.2,1.98; stroke-dashoffset: 0; stroke: #2ca02c; stroke-width: 1.2"/>
    </g>
    <g id="text_18">
     <!-- 0.975-quantile -->
     <g style="fill: #262626" transform="translate(332.0265 46.378369) scale(0.088 -0.088)">
      <defs>
       <path id="ArialMT-39" d="M 350 1059 
L 891 1109 
Q 959 728 1153 556 
Q 1347 384 1650 384 
Q 1909 384 2104 503 
Q 2300 622 2425 820 
Q 2550 1019 2634 1356 
Q 2719 1694 2719 2044 
Q 2719 2081 2716 2156 
Q 2547 1888 2255 1720 
Q 1963 1553 1622 1553 
Q 1053 1553 659 1965 
Q 266 2378 266 3053 
Q 266 3750 677 4175 
Q 1088 4600 1706 4600 
Q 2153 4600 2523 4359 
Q 2894 4119 3086 3673 
Q 3278 3228 3278 2384 
Q 3278 1506 3087 986 
Q 2897 466 2520 194 
Q 2144 -78 1638 -78 
Q 1100 -78 759 220 
Q 419 519 350 1059 
z
M 2653 3081 
Q 2653 3566 2395 3850 
Q 2138 4134 1775 4134 
Q 1400 4134 1122 3828 
Q 844 3522 844 3034 
Q 844 2597 1108 2323 
Q 1372 2050 1759 2050 
Q 2150 2050 2401 2323 
Q 2653 2597 2653 3081 
z
" transform="scale(0.015625)"/>
       <path id="ArialMT-37" d="M 303 3981 
L 303 4522 
L 3269 4522 
L 3269 4084 
Q 2831 3619 2401 2847 
Q 1972 2075 1738 1259 
Q 1569 684 1522 0 
L 944 0 
Q 953 541 1156 1306 
Q 1359 2072 1739 2783 
Q 2119 3494 2547 3981 
L 303 3981 
z
" transform="scale(0.015625)"/>
      </defs>
      <use xlink:href="#ArialMT-30"/>
      <use xlink:href="#ArialMT-2e" x="55.615234"/>
      <use xlink:href="#ArialMT-39" x="83.398438"/>
      <use xlink:href="#ArialMT-37" x="139.013672"/>
      <use xlink:href="#ArialMT-35" x="194.628906"/>
      <use xlink:href="#ArialMT-2d" x="250.244141"/>
      <use xlink:href="#ArialMT-71" x="283.544922"/>
      <use xlink:href="#ArialMT-75" x="339.160156"/>
      <use xlink:href="#ArialMT-61" x="394.775391"/>
      <use xlink:href="#ArialMT-6e" x="450.390625"/>
      <use xlink:href="#ArialMT-74" x="506.005859"/>
      <use xlink:href="#ArialMT-69" x="533.789062"/>
      <use xlink:href="#ArialMT-6c" x="556.005859"/>
      <use xlink:href="#ArialMT-65" x="578.222656"/>
     </g>
    </g>
   </g>
  </g>
 </g>
 <defs>
  <clipPath id="peb38db24d8">
   <rect x="38.59925" y="7.211494" width="357.12" height="266.112"/>
  </clipPath>
 </defs>
</svg>