<?xml version="1.0" encoding="utf-8" standalone="no"?>
<!DOCTYPE svg PUBLIC "-//W3C//DTD SVG 1.1//EN"
  "http://www.w3.org/Graphics/SVG/1.1/DTD/svg11.dtd">
<svg xmlns:xlink="http://www.w3.org/1999/xlink" width="419.512375pt" height="309.756375pt" viewBox="0 0 419.512375 309.756375" xmlns="http://www.w3.org/2000/svg" version="1.1">
 <metadata>
  <rdf:RDF xmlns:dc="http://purl.org/dc/elements/1.1/" xmlns:cc="http://creativecommons.org/ns#" xmlns:rdf="http://www.w3.org/1999/02/22-rdf-syntax-ns#">
   <cc:Work>
    <dc:type rdf:resource="http://purl.org/dc/dcmitype/StillImage"/>
    <dc:date>2023-10-26T20:32:49.659939</dc:date>
    <dc:format>image/svg+xml</dc:format>
    <dc:creator>
     <cc:Agent>
      <dc:title>Matplotlib v3.8.0, https://matplotlib.org/</dc:title>
     </cc:Agent>
    </dc:creator>
   </cc:Work>
  </rdf:RDF>
 </metadata>
 <defs>
  <style type="text/css">*{stroke-linejoin: round; stroke-linecap: butt}</style>
 </defs>
 <g id="figure_1">
  <g id="patch_1">
   <path d="M 0 309.756375 
L 419.512375 309.756375 
L 419.512375 0 
L 0 0 
z
" style="fill: #ffffff"/>
  </g>
  <g id="axes_1">
   <g id="patch_2">
    <path d="M 55.192375 273.312 
L 412.312375 273.312 
L 412.312375 7.2 
L 55.192375 7.2 
z
" style="fill: #ffffff"/>
   </g>
   <g id="matplotlib.axis_1">
    <g id="xtick_1">
     <g id="line2d_1">
      <defs>
       <path id="m35319fcb8f" d="M 0 0 
L 0 4.8 
" style="stroke: #262626"/>
      </defs>
      <g>
       <use xlink:href="#m35319fcb8f" x="71.425102" y="273.312" style="fill: #262626; stroke: #262626"/>
      </g>
     </g>
     <g id="text_1">
      <!-- 0 -->
      <g style="fill: #262626" transform="translate(68.97829 287.910875) scale(0.088 -0.088)">
       <defs>
        <path id="ArialMT-30" d="M 266 2259 
Q 266 3072 433 3567 
Q 600 4063 929 4331 
Q 1259 4600 1759 4600 
Q 2128 4600 2406 4451 
Q 2684 4303 2865 4023 
Q 3047 3744 3150 3342 
Q 3253 2941 3253 2259 
Q 3253 1453 3087 958 
Q 2922 463 2592 192 
Q 2263 -78 1759 -78 
Q 1097 -78 719 397 
Q 266 969 266 2259 
z
M 844 2259 
Q 844 1131 1108 757 
Q 1372 384 1759 384 
Q 2147 384 2411 759 
Q 2675 1134 2675 2259 
Q 2675 3391 2411 3762 
Q 2147 4134 1753 4134 
Q 1366 4134 1134 3806 
Q 844 3388 844 2259 
z
" transform="scale(0.015625)"/>
       </defs>
       <use xlink:href="#ArialMT-30"/>
      </g>
     </g>
    </g>
    <g id="xtick_2">
     <g id="line2d_2">
      <g>
       <use xlink:href="#m35319fcb8f" x="136.421007" y="273.312" style="fill: #262626; stroke: #262626"/>
      </g>
     </g>
     <g id="text_2">
      <!-- 200 -->
      <g style="fill: #262626" transform="translate(129.08057 287.910875) scale(0.088 -0.088)">
       <defs>
        <path id="ArialMT-32" d="M 3222 541 
L 3222 0 
L 194 0 
Q 188 203 259 391 
Q 375 700 629 1000 
Q 884 1300 1366 1694 
Q 2113 2306 2375 2664 
Q 2638 3022 2638 3341 
Q 2638 3675 2398 3904 
Q 2159 4134 1775 4134 
Q 1369 4134 1125 3890 
Q 881 3647 878 3216 
L 300 3275 
Q 359 3922 746 4261 
Q 1134 4600 1788 4600 
Q 2447 4600 2831 4234 
Q 3216 3869 3216 3328 
Q 3216 3053 3103 2787 
Q 2991 2522 2730 2228 
Q 2469 1934 1863 1422 
Q 1356 997 1212 845 
Q 1069 694 975 541 
L 3222 541 
z
" transform="scale(0.015625)"/>
       </defs>
       <use xlink:href="#ArialMT-32"/>
       <use xlink:href="#ArialMT-30" x="55.615234"/>
       <use xlink:href="#ArialMT-30" x="111.230469"/>
      </g>
     </g>
    </g>
    <g id="xtick_3">
     <g id="line2d_3">
      <g>
       <use xlink:href="#m35319fcb8f" x="201.416912" y="273.312" style="fill: #262626; stroke: #262626"/>
      </g>
     </g>
     <g id="text_3">
      <!-- 400 -->
      <g style="fill: #262626" transform="translate(194.076475 287.910875) scale(0.088 -0.088)">
       <defs>
        <path id="ArialMT-34" d="M 2069 0 
L 2069 1097 
L 81 1097 
L 81 1613 
L 2172 4581 
L 2631 4581 
L 2631 1613 
L 3250 1613 
L 3250 1097 
L 2631 1097 
L 2631 0 
L 2069 0 
z
M 2069 1613 
L 2069 3678 
L 634 1613 
L 2069 1613 
z
" transform="scale(0.015625)"/>
       </defs>
       <use xlink:href="#ArialMT-34"/>
       <use xlink:href="#ArialMT-30" x="55.615234"/>
       <use xlink:href="#ArialMT-30" x="111.230469"/>
      </g>
     </g>
    </g>
    <g id="xtick_4">
     <g id="line2d_4">
      <g>
       <use xlink:href="#m35319fcb8f" x="266.412817" y="273.312" style="fill: #262626; stroke: #262626"/>
      </g>
     </g>
     <g id="text_4">
      <!-- 600 -->
      <g style="fill: #262626" transform="translate(259.07238 287.910875) scale(0.088 -0.088)">
       <defs>
        <path id="ArialMT-36" d="M 3184 3459 
L 2625 3416 
Q 2550 3747 2413 3897 
Q 2184 4138 1850 4138 
Q 1581 4138 1378 3988 
Q 1113 3794 959 3422 
Q 806 3050 800 2363 
Q 1003 2672 1297 2822 
Q 1591 2972 1913 2972 
Q 2475 2972 2870 2558 
Q 3266 2144 3266 1488 
Q 3266 1056 3080 686 
Q 2894 316 2569 119 
Q 2244 -78 1831 -78 
Q 1128 -78 684 439 
Q 241 956 241 2144 
Q 241 3472 731 4075 
Q 1159 4600 1884 4600 
Q 2425 4600 2770 4297 
Q 3116 3994 3184 3459 
z
M 888 1484 
Q 888 1194 1011 928 
Q 1134 663 1356 523 
Q 1578 384 1822 384 
Q 2178 384 2434 671 
Q 2691 959 2691 1453 
Q 2691 1928 2437 2201 
Q 2184 2475 1800 2475 
Q 1419 2475 1153 2201 
Q 888 1928 888 1484 
z
" transform="scale(0.015625)"/>
       </defs>
       <use xlink:href="#ArialMT-36"/>
       <use xlink:href="#ArialMT-30" x="55.615234"/>
       <use xlink:href="#ArialMT-30" x="111.230469"/>
      </g>
     </g>
    </g>
    <g id="xtick_5">
     <g id="line2d_5">
      <g>
       <use xlink:href="#m35319fcb8f" x="331.408722" y="273.312" style="fill: #262626; stroke: #262626"/>
      </g>
     </g>
     <g id="text_5">
      <!-- 800 -->
      <g style="fill: #262626" transform="translate(324.068285 287.910875) scale(0.088 -0.088)">
       <defs>
        <path id="ArialMT-38" d="M 1131 2484 
Q 781 2613 612 2850 
Q 444 3088 444 3419 
Q 444 3919 803 4259 
Q 1163 4600 1759 4600 
Q 2359 4600 2725 4251 
Q 3091 3903 3091 3403 
Q 3091 3084 2923 2848 
Q 2756 2613 2416 2484 
Q 2838 2347 3058 2040 
Q 3278 1734 3278 1309 
Q 3278 722 2862 322 
Q 2447 -78 1769 -78 
Q 1091 -78 675 323 
Q 259 725 259 1325 
Q 259 1772 486 2073 
Q 713 2375 1131 2484 
z
M 1019 3438 
Q 1019 3113 1228 2906 
Q 1438 2700 1772 2700 
Q 2097 2700 2305 2904 
Q 2513 3109 2513 3406 
Q 2513 3716 2298 3927 
Q 2084 4138 1766 4138 
Q 1444 4138 1231 3931 
Q 1019 3725 1019 3438 
z
M 838 1322 
Q 838 1081 952 856 
Q 1066 631 1291 507 
Q 1516 384 1775 384 
Q 2178 384 2440 643 
Q 2703 903 2703 1303 
Q 2703 1709 2433 1975 
Q 2163 2241 1756 2241 
Q 1359 2241 1098 1978 
Q 838 1716 838 1322 
z
" transform="scale(0.015625)"/>
       </defs>
       <use xlink:href="#ArialMT-38"/>
       <use xlink:href="#ArialMT-30" x="55.615234"/>
       <use xlink:href="#ArialMT-30" x="111.230469"/>
      </g>
     </g>
    </g>
    <g id="xtick_6">
     <g id="line2d_6">
      <g>
       <use xlink:href="#m35319fcb8f" x="396.404627" y="273.312" style="fill: #262626; stroke: #262626"/>
      </g>
     </g>
     <g id="text_6">
      <!-- 1000 -->
      <g style="fill: #262626" transform="translate(386.617377 287.910875) scale(0.088 -0.088)">
       <defs>
        <path id="ArialMT-31" d="M 2384 0 
L 1822 0 
L 1822 3584 
Q 1619 3391 1289 3197 
Q 959 3003 697 2906 
L 697 3450 
Q 1169 3672 1522 3987 
Q 1875 4303 2022 4600 
L 2384 4600 
L 2384 0 
z
" transform="scale(0.015625)"/>
       </defs>
       <use xlink:href="#ArialMT-31"/>
       <use xlink:href="#ArialMT-30" x="55.615234"/>
       <use xlink:href="#ArialMT-30" x="111.230469"/>
       <use xlink:href="#ArialMT-30" x="166.845703"/>
      </g>
     </g>
    </g>
    <g id="text_7">
     <!-- Sample number -->
     <g style="fill: #262626" transform="translate(199.871125 300.648375) scale(0.096 -0.096)">
      <defs>
       <path id="ArialMT-53" d="M 288 1472 
L 859 1522 
Q 900 1178 1048 958 
Q 1197 738 1509 602 
Q 1822 466 2213 466 
Q 2559 466 2825 569 
Q 3091 672 3220 851 
Q 3350 1031 3350 1244 
Q 3350 1459 3225 1620 
Q 3100 1781 2813 1891 
Q 2628 1963 1997 2114 
Q 1366 2266 1113 2400 
Q 784 2572 623 2826 
Q 463 3081 463 3397 
Q 463 3744 659 4045 
Q 856 4347 1234 4503 
Q 1613 4659 2075 4659 
Q 2584 4659 2973 4495 
Q 3363 4331 3572 4012 
Q 3781 3694 3797 3291 
L 3216 3247 
Q 3169 3681 2898 3903 
Q 2628 4125 2100 4125 
Q 1550 4125 1298 3923 
Q 1047 3722 1047 3438 
Q 1047 3191 1225 3031 
Q 1400 2872 2139 2705 
Q 2878 2538 3153 2413 
Q 3553 2228 3743 1945 
Q 3934 1663 3934 1294 
Q 3934 928 3725 604 
Q 3516 281 3123 101 
Q 2731 -78 2241 -78 
Q 1619 -78 1198 103 
Q 778 284 539 648 
Q 300 1013 288 1472 
z
" transform="scale(0.015625)"/>
       <path id="ArialMT-61" d="M 2588 409 
Q 2275 144 1986 34 
Q 1697 -75 1366 -75 
Q 819 -75 525 192 
Q 231 459 231 875 
Q 231 1119 342 1320 
Q 453 1522 633 1644 
Q 813 1766 1038 1828 
Q 1203 1872 1538 1913 
Q 2219 1994 2541 2106 
Q 2544 2222 2544 2253 
Q 2544 2597 2384 2738 
Q 2169 2928 1744 2928 
Q 1347 2928 1158 2789 
Q 969 2650 878 2297 
L 328 2372 
Q 403 2725 575 2942 
Q 747 3159 1072 3276 
Q 1397 3394 1825 3394 
Q 2250 3394 2515 3294 
Q 2781 3194 2906 3042 
Q 3031 2891 3081 2659 
Q 3109 2516 3109 2141 
L 3109 1391 
Q 3109 606 3145 398 
Q 3181 191 3288 0 
L 2700 0 
Q 2613 175 2588 409 
z
M 2541 1666 
Q 2234 1541 1622 1453 
Q 1275 1403 1131 1340 
Q 988 1278 909 1158 
Q 831 1038 831 891 
Q 831 666 1001 516 
Q 1172 366 1500 366 
Q 1825 366 2078 508 
Q 2331 650 2450 897 
Q 2541 1088 2541 1459 
L 2541 1666 
z
" transform="scale(0.015625)"/>
       <path id="ArialMT-6d" d="M 422 0 
L 422 3319 
L 925 3319 
L 925 2853 
Q 1081 3097 1340 3245 
Q 1600 3394 1931 3394 
Q 2300 3394 2536 3241 
Q 2772 3088 2869 2813 
Q 3263 3394 3894 3394 
Q 4388 3394 4653 3120 
Q 4919 2847 4919 2278 
L 4919 0 
L 4359 0 
L 4359 2091 
Q 4359 2428 4304 2576 
Q 4250 2725 4106 2815 
Q 3963 2906 3769 2906 
Q 3419 2906 3187 2673 
Q 2956 2441 2956 1928 
L 2956 0 
L 2394 0 
L 2394 2156 
Q 2394 2531 2256 2718 
Q 2119 2906 1806 2906 
Q 1569 2906 1367 2781 
Q 1166 2656 1075 2415 
Q 984 2175 984 1722 
L 984 0 
L 422 0 
z
" transform="scale(0.015625)"/>
       <path id="ArialMT-70" d="M 422 -1272 
L 422 3319 
L 934 3319 
L 934 2888 
Q 1116 3141 1344 3267 
Q 1572 3394 1897 3394 
Q 2322 3394 2647 3175 
Q 2972 2956 3137 2557 
Q 3303 2159 3303 1684 
Q 3303 1175 3120 767 
Q 2938 359 2589 142 
Q 2241 -75 1856 -75 
Q 1575 -75 1351 44 
Q 1128 163 984 344 
L 984 -1272 
L 422 -1272 
z
M 931 1641 
Q 931 1000 1190 694 
Q 1450 388 1819 388 
Q 2194 388 2461 705 
Q 2728 1022 2728 1688 
Q 2728 2322 2467 2637 
Q 2206 2953 1844 2953 
Q 1484 2953 1207 2617 
Q 931 2281 931 1641 
z
" transform="scale(0.015625)"/>
       <path id="ArialMT-6c" d="M 409 0 
L 409 4581 
L 972 4581 
L 972 0 
L 409 0 
z
" transform="scale(0.015625)"/>
       <path id="ArialMT-65" d="M 2694 1069 
L 3275 997 
Q 3138 488 2766 206 
Q 2394 -75 1816 -75 
Q 1088 -75 661 373 
Q 234 822 234 1631 
Q 234 2469 665 2931 
Q 1097 3394 1784 3394 
Q 2450 3394 2872 2941 
Q 3294 2488 3294 1666 
Q 3294 1616 3291 1516 
L 816 1516 
Q 847 969 1125 678 
Q 1403 388 1819 388 
Q 2128 388 2347 550 
Q 2566 713 2694 1069 
z
M 847 1978 
L 2700 1978 
Q 2663 2397 2488 2606 
Q 2219 2931 1791 2931 
Q 1403 2931 1139 2672 
Q 875 2413 847 1978 
z
" transform="scale(0.015625)"/>
       <path id="ArialMT-20" transform="scale(0.015625)"/>
       <path id="ArialMT-6e" d="M 422 0 
L 422 3319 
L 928 3319 
L 928 2847 
Q 1294 3394 1984 3394 
Q 2284 3394 2536 3286 
Q 2788 3178 2913 3003 
Q 3038 2828 3088 2588 
Q 3119 2431 3119 2041 
L 3119 0 
L 2556 0 
L 2556 2019 
Q 2556 2363 2490 2533 
Q 2425 2703 2258 2804 
Q 2091 2906 1866 2906 
Q 1506 2906 1245 2678 
Q 984 2450 984 1813 
L 984 0 
L 422 0 
z
" transform="scale(0.015625)"/>
       <path id="ArialMT-75" d="M 2597 0 
L 2597 488 
Q 2209 -75 1544 -75 
Q 1250 -75 995 37 
Q 741 150 617 320 
Q 494 491 444 738 
Q 409 903 409 1263 
L 409 3319 
L 972 3319 
L 972 1478 
Q 972 1038 1006 884 
Q 1059 663 1231 536 
Q 1403 409 1656 409 
Q 1909 409 2131 539 
Q 2353 669 2445 892 
Q 2538 1116 2538 1541 
L 2538 3319 
L 3100 3319 
L 3100 0 
L 2597 0 
z
" transform="scale(0.015625)"/>
       <path id="ArialMT-62" d="M 941 0 
L 419 0 
L 419 4581 
L 981 4581 
L 981 2947 
Q 1338 3394 1891 3394 
Q 2197 3394 2470 3270 
Q 2744 3147 2920 2923 
Q 3097 2700 3197 2384 
Q 3297 2069 3297 1709 
Q 3297 856 2875 390 
Q 2453 -75 1863 -75 
Q 1275 -75 941 416 
L 941 0 
z
M 934 1684 
Q 934 1088 1097 822 
Q 1363 388 1816 388 
Q 2184 388 2453 708 
Q 2722 1028 2722 1663 
Q 2722 2313 2464 2622 
Q 2206 2931 1841 2931 
Q 1472 2931 1203 2611 
Q 934 2291 934 1684 
z
" transform="scale(0.015625)"/>
       <path id="ArialMT-72" d="M 416 0 
L 416 3319 
L 922 3319 
L 922 2816 
Q 1116 3169 1280 3281 
Q 1444 3394 1641 3394 
Q 1925 3394 2219 3213 
L 2025 2691 
Q 1819 2813 1613 2813 
Q 1428 2813 1281 2702 
Q 1134 2591 1072 2394 
Q 978 2094 978 1738 
L 978 0 
L 416 0 
z
" transform="scale(0.015625)"/>
      </defs>
      <use xlink:href="#ArialMT-53"/>
      <use xlink:href="#ArialMT-61" x="66.699219"/>
      <use xlink:href="#ArialMT-6d" x="122.314453"/>
      <use xlink:href="#ArialMT-70" x="205.615234"/>
      <use xlink:href="#ArialMT-6c" x="261.230469"/>
      <use xlink:href="#ArialMT-65" x="283.447266"/>
      <use xlink:href="#ArialMT-20" x="339.0625"/>
      <use xlink:href="#ArialMT-6e" x="366.845703"/>
      <use xlink:href="#ArialMT-75" x="422.460938"/>
      <use xlink:href="#ArialMT-6d" x="478.076172"/>
      <use xlink:href="#ArialMT-62" x="561.376953"/>
      <use xlink:href="#ArialMT-65" x="616.992188"/>
      <use xlink:href="#ArialMT-72" x="672.607422"/>
     </g>
    </g>
   </g>
   <g id="matplotlib.axis_2">
    <g id="ytick_1">
     <g id="line2d_7">
      <defs>
       <path id="m6d588c9c25" d="M 0 0 
L -4.8 0 
" style="stroke: #262626"/>
      </defs>
      <g>
       <use xlink:href="#m6d588c9c25" x="55.192375" y="250.888659" style="fill: #262626; stroke: #262626"/>
      </g>
     </g>
     <g id="text_8">
      <!-- 1946.0 -->
      <g style="fill: #262626" transform="translate(19.9795 254.038096) scale(0.088 -0.088)">
       <defs>
        <path id="ArialMT-39" d="M 350 1059 
L 891 1109 
Q 959 728 1153 556 
Q 1347 384 1650 384 
Q 1909 384 2104 503 
Q 2300 622 2425 820 
Q 2550 1019 2634 1356 
Q 2719 1694 2719 2044 
Q 2719 2081 2716 2156 
Q 2547 1888 2255 1720 
Q 1963 1553 1622 1553 
Q 1053 1553 659 1965 
Q 266 2378 266 3053 
Q 266 3750 677 4175 
Q 1088 4600 1706 4600 
Q 2153 4600 2523 4359 
Q 2894 4119 3086 3673 
Q 3278 3228 3278 2384 
Q 3278 1506 3087 986 
Q 2897 466 2520 194 
Q 2144 -78 1638 -78 
Q 1100 -78 759 220 
Q 419 519 350 1059 
z
M 2653 3081 
Q 2653 3566 2395 3850 
Q 2138 4134 1775 4134 
Q 1400 4134 1122 3828 
Q 844 3522 844 3034 
Q 844 2597 1108 2323 
Q 1372 2050 1759 2050 
Q 2150 2050 2401 2323 
Q 2653 2597 2653 3081 
z
" transform="scale(0.015625)"/>
        <path id="ArialMT-2e" d="M 581 0 
L 581 641 
L 1222 641 
L 1222 0 
L 581 0 
z
" transform="scale(0.015625)"/>
       </defs>
       <use xlink:href="#ArialMT-31"/>
       <use xlink:href="#ArialMT-39" x="55.615234"/>
       <use xlink:href="#ArialMT-34" x="111.230469"/>
       <use xlink:href="#ArialMT-36" x="166.845703"/>
       <use xlink:href="#ArialMT-2e" x="222.460938"/>
       <use xlink:href="#ArialMT-30" x="250.244141"/>
      </g>
     </g>
    </g>
    <g id="ytick_2">
     <g id="line2d_8">
      <g>
       <use xlink:href="#m6d588c9c25" x="55.192375" y="203.306218" style="fill: #262626; stroke: #262626"/>
      </g>
     </g>
     <g id="text_9">
      <!-- 1946.5 -->
      <g style="fill: #262626" transform="translate(19.9795 206.455656) scale(0.088 -0.088)">
       <defs>
        <path id="ArialMT-35" d="M 266 1200 
L 856 1250 
Q 922 819 1161 601 
Q 1400 384 1738 384 
Q 2144 384 2425 690 
Q 2706 997 2706 1503 
Q 2706 1984 2436 2262 
Q 2166 2541 1728 2541 
Q 1456 2541 1237 2417 
Q 1019 2294 894 2097 
L 366 2166 
L 809 4519 
L 3088 4519 
L 3088 3981 
L 1259 3981 
L 1013 2750 
Q 1425 3038 1878 3038 
Q 2478 3038 2890 2622 
Q 3303 2206 3303 1553 
Q 3303 931 2941 478 
Q 2500 -78 1738 -78 
Q 1113 -78 717 272 
Q 322 622 266 1200 
z
" transform="scale(0.015625)"/>
       </defs>
       <use xlink:href="#ArialMT-31"/>
       <use xlink:href="#ArialMT-39" x="55.615234"/>
       <use xlink:href="#ArialMT-34" x="111.230469"/>
       <use xlink:href="#ArialMT-36" x="166.845703"/>
       <use xlink:href="#ArialMT-2e" x="222.460938"/>
       <use xlink:href="#ArialMT-35" x="250.244141"/>
      </g>
     </g>
    </g>
    <g id="ytick_3">
     <g id="line2d_9">
      <g>
       <use xlink:href="#m6d588c9c25" x="55.192375" y="155.723778" style="fill: #262626; stroke: #262626"/>
      </g>
     </g>
     <g id="text_10">
      <!-- 1947.0 -->
      <g style="fill: #262626" transform="translate(19.9795 158.873216) scale(0.088 -0.088)">
       <defs>
        <path id="ArialMT-37" d="M 303 3981 
L 303 4522 
L 3269 4522 
L 3269 4084 
Q 2831 3619 2401 2847 
Q 1972 2075 1738 1259 
Q 1569 684 1522 0 
L 944 0 
Q 953 541 1156 1306 
Q 1359 2072 1739 2783 
Q 2119 3494 2547 3981 
L 303 3981 
z
" transform="scale(0.015625)"/>
       </defs>
       <use xlink:href="#ArialMT-31"/>
       <use xlink:href="#ArialMT-39" x="55.615234"/>
       <use xlink:href="#ArialMT-34" x="111.230469"/>
       <use xlink:href="#ArialMT-37" x="166.845703"/>
       <use xlink:href="#ArialMT-2e" x="222.460938"/>
       <use xlink:href="#ArialMT-30" x="250.244141"/>
      </g>
     </g>
    </g>
    <g id="ytick_4">
     <g id="line2d_10">
      <g>
       <use xlink:href="#m6d588c9c25" x="55.192375" y="108.141338" style="fill: #262626; stroke: #262626"/>
      </g>
     </g>
     <g id="text_11">
      <!-- 1947.5 -->
      <g style="fill: #262626" transform="translate(19.9795 111.290775) scale(0.088 -0.088)">
       <use xlink:href="#ArialMT-31"/>
       <use xlink:href="#ArialMT-39" x="55.615234"/>
       <use xlink:href="#ArialMT-34" x="111.230469"/>
       <use xlink:href="#ArialMT-37" x="166.845703"/>
       <use xlink:href="#ArialMT-2e" x="222.460938"/>
       <use xlink:href="#ArialMT-35" x="250.244141"/>
      </g>
     </g>
    </g>
    <g id="ytick_5">
     <g id="line2d_11">
      <g>
       <use xlink:href="#m6d588c9c25" x="55.192375" y="60.558897" style="fill: #262626; stroke: #262626"/>
      </g>
     </g>
     <g id="text_12">
      <!-- 1948.0 -->
      <g style="fill: #262626" transform="translate(19.9795 63.708335) scale(0.088 -0.088)">
       <use xlink:href="#ArialMT-31"/>
       <use xlink:href="#ArialMT-39" x="55.615234"/>
       <use xlink:href="#ArialMT-34" x="111.230469"/>
       <use xlink:href="#ArialMT-38" x="166.845703"/>
       <use xlink:href="#ArialMT-2e" x="222.460938"/>
       <use xlink:href="#ArialMT-30" x="250.244141"/>
      </g>
     </g>
    </g>
    <g id="ytick_6">
     <g id="line2d_12">
      <g>
       <use xlink:href="#m6d588c9c25" x="55.192375" y="12.976457" style="fill: #262626; stroke: #262626"/>
      </g>
     </g>
     <g id="text_13">
      <!-- 1948.5 -->
      <g style="fill: #262626" transform="translate(19.9795 16.125895) scale(0.088 -0.088)">
       <use xlink:href="#ArialMT-31"/>
       <use xlink:href="#ArialMT-39" x="55.615234"/>
       <use xlink:href="#ArialMT-34" x="111.230469"/>
       <use xlink:href="#ArialMT-38" x="166.845703"/>
       <use xlink:href="#ArialMT-2e" x="222.460938"/>
       <use xlink:href="#ArialMT-35" x="250.244141"/>
      </g>
     </g>
    </g>
    <g id="text_14">
     <!-- tau -->
     <g style="fill: #262626" transform="translate(14.0715 146.928) rotate(-90) scale(0.096 -0.096)">
      <defs>
       <path id="ArialMT-74" d="M 1650 503 
L 1731 6 
Q 1494 -44 1306 -44 
Q 1000 -44 831 53 
Q 663 150 594 308 
Q 525 466 525 972 
L 525 2881 
L 113 2881 
L 113 3319 
L 525 3319 
L 525 4141 
L 1084 4478 
L 1084 3319 
L 1650 3319 
L 1650 2881 
L 1084 2881 
L 1084 941 
Q 1084 700 1114 631 
Q 1144 563 1211 522 
Q 1278 481 1403 481 
Q 1497 481 1650 503 
z
" transform="scale(0.015625)"/>
      </defs>
      <use xlink:href="#ArialMT-74"/>
      <use xlink:href="#ArialMT-61" x="27.783203"/>
      <use xlink:href="#ArialMT-75" x="83.398438"/>
     </g>
    </g>
   </g>
   <g id="line2d_13">
    <path d="M 71.425102 225.668571 
L 71.750082 246.822776 
L 72.075061 228.340437 
L 72.400041 193.582951 
L 72.72502 243.198333 
L 73.05 240.166346 
L 73.374979 229.850622 
L 73.699959 247.345533 
L 74.024938 234.474111 
L 74.349918 247.35715 
L 74.674898 239.992094 
L 74.999877 248.925418 
L 75.649836 219.546514 
L 75.974816 212.053674 
L 76.299795 239.271852 
L 76.624775 220.859213 
L 76.949754 239.748141 
L 77.274734 193.071812 
L 77.924693 236.762622 
L 78.249672 222.206763 
L 78.574652 215.364464 
L 78.899631 226.876719 
L 79.224611 226.958037 
L 79.54959 194.651697 
L 79.87457 229.943556 
L 80.199549 244.278696 
L 80.524529 241.699765 
L 80.849508 235.972679 
L 81.174488 238.865264 
L 81.499468 217.78076 
L 81.824447 211.275348 
L 82.474406 246.207086 
L 83.124365 250.307818 
L 83.449345 239.144067 
L 84.099304 223.647247 
L 84.424283 200.669203 
L 84.749263 198.740813 
L 85.399222 168.88562 
L 85.724201 180.072605 
L 86.049181 178.109365 
L 86.69914 189.424134 
L 87.024119 167.816874 
L 87.349099 188.703892 
L 87.674079 228.491455 
L 87.999058 229.072296 
L 88.324038 207.453418 
L 88.649017 223.414911 
L 88.973997 222.25323 
L 89.298976 208.754501 
L 89.623956 237.819751 
L 89.948935 187.925566 
L 90.598894 211.751637 
L 90.923874 200.762138 
L 91.248853 236.971724 
L 91.573833 238.307657 
L 91.898812 200.436867 
L 92.223792 203.561788 
L 92.548771 189.400901 
L 92.873751 217.618124 
L 93.19873 207.290783 
L 93.52371 230.210743 
L 93.848689 240.503234 
L 94.173669 234.810998 
L 94.498649 203.863825 
L 94.823628 246.660141 
L 95.148608 246.776309 
L 95.473587 243.814024 
L 95.798567 249.819913 
L 96.448526 202.411724 
L 97.098485 189.36605 
L 97.423464 177.877029 
L 97.748444 171.313533 
L 98.073423 185.195617 
L 98.398403 189.679704 
L 98.723382 204.630534 
L 99.048362 170.082151 
L 99.373341 173.845997 
L 99.698321 179.979671 
L 100.0233 205.188141 
L 100.34828 200.053513 
L 100.67326 225.401385 
L 101.323219 157.187496 
L 101.648198 165.098541 
L 101.973178 197.776618 
L 102.298157 177.98158 
L 102.623137 188.23922 
L 102.948116 187.263408 
L 103.273096 246.892477 
L 103.598075 241.118924 
L 103.923055 250.818958 
L 104.248034 186.845203 
L 104.573014 192.64199 
L 104.897993 213.192121 
L 105.222973 193.036961 
L 105.547952 226.284262 
L 105.872932 207.325634 
L 106.197911 229.571818 
L 106.522891 211.310198 
L 106.84787 201.180343 
L 107.17285 235.020101 
L 107.49783 170.639758 
L 108.147789 202.179388 
L 108.472768 204.026461 
L 108.797748 204.862871 
L 109.122727 206.953896 
L 109.447707 194.419361 
L 110.097666 244.708518 
L 110.422645 249.761829 
L 110.747625 247.589486 
L 111.072604 239.817842 
L 111.397584 187.646763 
L 111.722563 162.763563 
L 112.047543 166.736511 
L 112.372522 190.899469 
L 112.697502 185.648672 
L 113.022481 159.801277 
L 113.347461 173.358091 
L 113.672441 177.18002 
L 113.99742 188.436706 
L 114.3224 168.176995 
L 114.647379 198.624645 
L 115.297338 244.59235 
L 115.622318 192.293486 
L 115.947297 171.06958 
L 116.272277 171.61557 
L 116.597256 155.119704 
L 117.247215 110.325297 
L 117.897174 89.83325 
L 118.222154 175.588518 
L 118.547133 180.548894 
L 118.872113 194.465829 
L 119.197092 188.390239 
L 119.522072 157.896121 
L 119.847051 169.652329 
L 120.172031 160.475052 
L 120.497011 168.920471 
L 120.82199 156.258151 
L 121.14697 160.149782 
L 121.471949 171.301916 
L 121.796929 157.849654 
L 122.121908 161.590266 
L 122.446888 191.863664 
L 122.771867 176.63403 
L 123.096847 177.110319 
L 123.421826 165.969802 
L 123.746806 198.97315 
L 124.071785 215.004343 
L 124.396765 99.335798 
L 124.721744 61.685728 
L 125.046724 47.280887 
L 125.371703 43.493808 
L 125.696683 38.126844 
L 126.671622 104.482044 
L 126.996601 124.404867 
L 127.321581 123.115402 
L 127.64656 136.497963 
L 127.97154 180.258474 
L 128.296519 161.485714 
L 128.621499 184.614776 
L 128.946478 162.693862 
L 129.596437 179.212961 
L 130.246396 208.64995 
L 130.571376 202.853163 
L 130.896355 156.223301 
L 131.221335 139.413782 
L 131.546314 237.7152 
L 131.871294 231.779012 
L 132.196273 238.098555 
L 132.521253 228.630857 
L 132.846232 233.045244 
L 133.171212 207.825156 
L 133.496192 194.256726 
L 133.821171 191.991449 
L 134.47113 215.782669 
L 134.79611 197.486198 
L 135.121089 198.764047 
L 135.446069 174.310669 
L 135.771048 171.232215 
L 136.096028 204.409815 
L 136.421007 197.997338 
L 136.745987 225.192282 
L 137.395946 247.113197 
L 138.045905 210.589956 
L 138.370884 235.600941 
L 138.695864 241.874017 
L 139.020843 245.451993 
L 139.345823 241.386111 
L 139.670803 231.05877 
L 139.995782 227.585345 
L 140.320762 200.64597 
L 140.645741 222.834071 
L 140.970721 230.733499 
L 141.2957 187.704847 
L 141.62068 194.152175 
L 141.945659 242.001802 
L 142.270639 242.710427 
L 142.595618 241.188625 
L 142.920598 219.500047 
L 143.245577 210.752592 
L 143.570557 189.017546 
L 143.895536 198.252908 
L 144.220516 201.540464 
L 144.545495 186.798736 
L 145.195454 212.425412 
L 145.520434 214.853324 
L 145.845413 233.126561 
L 146.170393 239.341553 
L 146.820352 195.488108 
L 147.145332 216.677163 
L 147.795291 186.299213 
L 148.12027 162.670629 
L 148.44525 158.511812 
L 148.770229 113.217882 
L 149.095209 121.616834 
L 149.420188 155.747012 
L 149.745168 157.605701 
L 150.070147 162.949432 
L 150.395127 149.985076 
L 150.720106 150.65885 
L 151.045086 156.943543 
L 151.370065 165.818783 
L 151.695045 184.103637 
L 152.020024 227.643429 
L 152.345004 223.577546 
L 152.669984 194.756249 
L 152.994963 214.528054 
L 153.319943 218.756571 
L 153.644922 240.747187 
L 153.969902 248.240027 
L 154.294881 246.636908 
L 154.619861 205.432094 
L 154.94484 217.095368 
L 155.26982 235.600941 
L 155.594799 242.791745 
L 156.244758 232.325002 
L 156.569738 158.964867 
L 156.894717 157.152645 
L 157.219697 161.055892 
L 157.544676 155.503059 
L 157.869656 145.512605 
L 158.194635 185.102682 
L 158.519615 188.285687 
L 158.844594 158.511812 
L 159.169574 163.530272 
L 159.494554 197.579133 
L 159.819533 195.313855 
L 160.144513 209.463126 
L 160.469492 201.470763 
L 160.794472 207.952941 
L 161.119451 232.685123 
L 161.444431 236.599987 
L 162.09439 173.718212 
L 162.419369 183.371778 
L 162.744349 165.052074 
L 163.069328 159.615408 
L 163.394308 186.032027 
L 163.719287 182.38435 
L 164.044267 174.38037 
L 164.369246 184.254655 
L 164.694226 184.231422 
L 165.019205 232.139133 
L 165.344185 224.251321 
L 165.994144 183.522797 
L 166.319124 160.544753 
L 166.969083 208.231745 
L 167.294062 204.374965 
L 167.619042 204.79317 
L 167.944021 196.998292 
L 168.269001 161.067509 
L 168.59398 212.390561 
L 168.91896 227.364625 
L 169.243939 182.988424 
L 169.893898 215.515482 
L 170.218878 200.727287 
L 170.543857 241.246709 
L 170.868837 191.375758 
L 171.193816 170.000834 
L 171.518796 158.755765 
L 171.843775 143.607449 
L 172.168755 139.588034 
L 172.493735 180.142306 
L 172.818714 195.313855 
L 173.143694 231.325956 
L 173.468673 209.044921 
L 173.793653 212.355711 
L 174.118632 166.341539 
L 174.443612 159.545708 
L 174.768591 172.846951 
L 175.093571 163.297936 
L 175.41855 169.17604 
L 175.74353 108.536309 
L 176.068509 154.608565 
L 176.393489 160.649304 
L 176.718468 193.18798 
L 177.043448 197.521049 
L 177.368427 190.144376 
L 177.693407 188.215987 
L 178.018386 166.480941 
L 178.343366 202.493042 
L 178.993325 184.126871 
L 179.318305 180.816081 
L 179.968264 128.284881 
L 180.293243 171.150897 
L 180.618223 181.385304 
L 180.943202 166.178904 
L 181.268182 160.835173 
L 181.593161 163.437338 
L 182.24312 152.180652 
L 182.5681 165.818783 
L 182.893079 172.19641 
L 183.218059 221.38197 
L 183.543038 225.517553 
L 183.868018 216.084706 
L 184.192997 234.683213 
L 184.517977 246.404571 
L 184.842956 214.272484 
L 185.167936 244.394864 
L 185.492916 231.244639 
L 185.817895 232.383086 
L 186.142875 225.076114 
L 186.467854 210.694508 
L 186.792834 230.710266 
L 187.117813 229.490501 
L 187.442793 197.137694 
L 187.767772 239.364787 
L 188.092752 227.817681 
L 188.417731 181.29237 
L 188.742711 178.969008 
L 189.06769 182.546985 
L 189.39267 187.809398 
L 189.717649 199.391355 
L 190.042629 216.758481 
L 190.367608 242.849829 
L 190.692588 246.090918 
L 191.017567 237.471247 
L 191.342547 236.007529 
L 191.667527 261.216 
L 192.317486 232.603805 
L 192.642465 234.346326 
L 192.967445 217.350938 
L 193.292424 182.663153 
L 193.617404 230.756733 
L 193.942383 246.985412 
L 194.267363 235.508007 
L 194.592342 233.800336 
L 194.917322 201.784417 
L 195.242301 193.141513 
L 196.21724 238.598077 
L 196.542219 205.861916 
L 197.192178 246.241936 
L 197.517158 247.717271 
L 198.167117 212.216309 
L 198.492097 171.185748 
L 198.817076 180.502427 
L 199.142056 203.99161 
L 199.467035 219.128309 
L 199.792015 219.081842 
L 200.116994 207.894857 
L 200.441974 186.589634 
L 200.766953 203.317835 
L 201.091933 186.101728 
L 201.416912 190.492881 
L 201.741892 187.077539 
L 202.066871 165.075308 
L 202.391851 164.262131 
L 202.71683 141.086602 
L 203.04181 69.771025 
L 203.691769 90.425708 
L 204.016748 104.586595 
L 204.341728 97.058904 
L 204.666708 86.185573 
L 204.991687 79.993815 
L 205.316667 77.600753 
L 205.641646 80.876692 
L 205.966626 94.061768 
L 206.291605 90.437324 
L 206.616585 100.241909 
L 206.941564 86.220424 
L 207.266544 64.136874 
L 207.591523 64.613163 
L 207.916503 33.259402 
L 208.241482 63.126212 
L 208.566462 66.820356 
L 208.891441 104.110306 
L 209.5414 90.716128 
L 209.86638 92.086911 
L 210.191359 120.954676 
L 210.516339 123.858877 
L 210.841318 179.189728 
L 211.166298 187.484128 
L 211.491278 217.490339 
L 211.816257 230.559247 
L 212.141237 167.770407 
L 212.466216 177.993197 
L 212.791196 167.073398 
L 213.116175 175.356182 
L 213.441155 197.637217 
L 214.091114 156.339469 
L 214.416093 198.856982 
L 214.741073 172.672699 
L 215.066052 160.59122 
L 215.391032 127.599489 
L 215.716011 155.665694 
L 216.040991 161.741284 
L 216.36597 171.487785 
L 216.69095 166.08597 
L 217.015929 157.187496 
L 217.340909 177.168403 
L 217.990868 162.879731 
L 218.315848 163.286319 
L 218.640827 156.571805 
L 218.965807 164.389916 
L 219.290786 150.612383 
L 219.615766 171.348383 
L 219.940745 162.821647 
L 220.265725 169.222508 
L 220.590704 184.812262 
L 220.915684 156.792524 
L 221.240663 166.08597 
L 221.565643 170.419039 
L 221.890622 158.790615 
L 222.215602 128.5056 
L 222.540581 143.537748 
L 222.865561 132.39723 
L 223.51552 173.416175 
L 223.840499 180.130689 
L 224.165479 234.98525 
L 224.490459 224.495274 
L 224.815438 190.67875 
L 225.140418 200.111597 
L 225.465397 201.157109 
L 225.790377 194.802716 
L 226.115356 227.213607 
L 226.765315 250.110333 
L 227.090295 244.929237 
L 227.415274 236.925257 
L 227.740254 242.501324 
L 228.390213 170.999879 
L 229.040172 199.681775 
L 229.365151 162.020087 
L 230.01511 193.989539 
L 230.34009 179.305896 
L 230.66507 172.393896 
L 230.990049 214.911408 
L 231.315029 241.130541 
L 231.640008 219.755617 
L 231.964988 237.564182 
L 232.289967 224.135153 
L 232.939926 207.732222 
L 233.264906 168.200229 
L 233.589885 165.226326 
L 233.914865 200.855072 
L 234.239844 205.908383 
L 234.564824 206.593775 
L 234.889803 236.541903 
L 235.214783 233.382131 
L 235.539762 221.103166 
L 235.864742 225.01803 
L 236.189721 181.884827 
L 236.514701 219.325795 
L 236.83968 195.569425 
L 237.16466 206.919045 
L 237.48964 172.254494 
L 237.814619 161.462481 
L 238.139599 158.581513 
L 238.464578 153.040296 
L 238.789558 227.097439 
L 239.114537 200.982857 
L 239.439517 162.066555 
L 239.764496 176.006723 
L 240.089476 196.045714 
L 240.414455 183.871301 
L 240.739435 158.140074 
L 241.064414 146.18638 
L 241.389394 156.838992 
L 241.714373 179.921587 
L 242.039353 191.387375 
L 242.364332 175.5072 
L 242.689312 180.816081 
L 243.014291 196.359368 
L 243.339271 249.088054 
L 243.664251 239.852692 
L 243.98923 235.264054 
L 244.31421 243.082165 
L 244.639189 211.507684 
L 244.964169 222.927005 
L 245.289148 238.272807 
L 245.614128 232.139133 
L 245.939107 219.244477 
L 246.264087 215.5968 
L 246.589066 227.666662 
L 246.914046 204.851254 
L 247.239025 225.842824 
L 247.564005 167.061782 
L 247.888984 187.019455 
L 248.213964 190.202461 
L 248.538943 211.809721 
L 248.863923 180.142306 
L 249.513882 257.312753 
L 249.838861 239.852692 
L 250.163841 249.250689 
L 250.488821 250.575005 
L 250.8138 167.538071 
L 251.13878 156.281385 
L 251.463759 161.752901 
L 251.788739 175.309714 
L 252.113718 205.734131 
L 252.438698 211.077862 
L 252.763677 223.368444 
L 253.088657 222.090595 
L 253.413636 248.170326 
L 254.388575 168.002743 
L 254.713554 223.60078 
L 255.038534 238.888497 
L 255.363513 247.055113 
L 255.688493 193.826904 
L 256.013472 188.006884 
L 256.338452 172.591382 
L 256.663432 171.859523 
L 256.988411 158.244625 
L 257.313391 162.624161 
L 257.63837 161.729667 
L 257.96335 143.502897 
L 258.288329 142.794272 
L 258.613309 145.988894 
L 258.938288 127.494938 
L 259.263268 74.464215 
L 259.588247 68.690662 
L 259.913227 81.701486 
L 260.238206 71.211509 
L 260.563186 71.408995 
L 260.888165 57.445593 
L 261.213145 71.420612 
L 261.538124 79.157405 
L 261.863104 79.076087 
L 262.188083 112.160753 
L 262.513063 128.958655 
L 262.838042 106.712471 
L 263.163022 73.2096 
L 263.488002 82.224242 
L 263.812981 98.882743 
L 264.137961 97.779146 
L 264.46294 77.031529 
L 264.78792 65.031368 
L 265.112899 82.85155 
L 265.437879 77.519435 
L 265.762858 32.82958 
L 266.087838 19.296 
L 266.412817 82.142924 
L 267.062776 46.792982 
L 267.387756 132.269445 
L 267.712735 97.407408 
L 268.037715 100.60203 
L 268.362694 86.940666 
L 268.687674 88.985224 
L 269.012653 111.138474 
L 269.337633 92.493499 
L 269.662613 119.700061 
L 269.987592 113.682555 
L 270.962531 152.134185 
L 271.28751 97.639745 
L 271.61249 118.213109 
L 271.937469 70.537734 
L 272.262449 79.099321 
L 272.587428 118.817183 
L 272.912408 121.105694 
L 273.237387 89.775166 
L 273.887346 130.619859 
L 274.212326 77.054763 
L 274.537305 160.730622 
L 274.862285 167.061782 
L 275.187264 168.734602 
L 275.512244 174.717257 
L 275.837223 162.089788 
L 276.162203 173.183839 
L 276.487183 222.113829 
L 276.812162 216.293808 
L 277.462121 193.745587 
L 277.787101 224.855395 
L 278.11208 200.471718 
L 278.43706 220.83598 
L 278.762039 196.591704 
L 279.087019 202.179388 
L 279.736978 219.395496 
L 280.061957 209.892948 
L 280.386937 165.388961 
L 280.711916 181.977761 
L 281.036896 239.283469 
L 281.361875 245.347442 
L 281.686855 239.190534 
L 282.011834 228.026783 
L 282.661794 241.82755 
L 282.986773 218.07118 
L 283.311753 219.836934 
L 283.636732 219.244477 
L 284.286691 175.646602 
L 284.611671 223.92605 
L 284.93665 219.19801 
L 285.26163 207.232699 
L 285.586609 215.155361 
L 285.911589 215.585183 
L 286.236568 241.618447 
L 286.561548 240.642635 
L 286.886527 223.763415 
L 287.211507 243.186716 
L 287.536486 220.208672 
L 287.861466 249.483025 
L 288.186445 219.383879 
L 288.511425 200.68082 
L 288.836404 240.317365 
L 289.486364 228.677324 
L 289.811343 234.671597 
L 290.136323 167.050165 
L 290.786282 143.572598 
L 291.111261 174.461687 
L 291.436241 225.122582 
L 291.76122 228.433371 
L 292.0862 243.965042 
L 292.411179 249.122904 
L 292.736159 225.006413 
L 293.061138 221.207718 
L 293.386118 205.408861 
L 293.711097 167.747173 
L 294.036077 177.272955 
L 294.361056 123.707859 
L 294.686036 155.944497 
L 295.011015 168.235079 
L 295.335995 159.510857 
L 295.660975 164.41315 
L 296.310934 209.590911 
L 296.635913 174.96121 
L 296.960893 165.760699 
L 297.285872 165.853634 
L 297.610852 216.224108 
L 297.935831 206.384672 
L 298.260811 241.258326 
L 298.58579 244.952471 
L 298.91077 224.344255 
L 299.235749 174.519771 
L 299.560729 197.486198 
L 299.885708 201.784417 
L 300.210688 154.352995 
L 300.535667 179.178111 
L 300.860647 192.096 
L 301.185626 220.197055 
L 301.510606 226.272645 
L 302.160565 244.464565 
L 302.485545 203.585022 
L 302.810524 209.800013 
L 303.135504 207.162998 
L 303.460483 191.224739 
L 303.785463 182.907106 
L 304.110442 171.278682 
L 304.435422 174.275818 
L 304.760401 163.344403 
L 305.085381 168.30478 
L 305.41036 119.316706 
L 305.73534 95.595187 
L 306.060319 95.479018 
L 306.385299 104.74923 
L 306.710278 118.817183 
L 307.035258 105.759892 
L 307.360237 124.300316 
L 307.685217 103.424914 
L 308.010196 164.320215 
L 308.335176 164.831355 
L 308.660156 168.084061 
L 308.985135 167.816874 
L 309.635094 218.872739 
L 309.960074 211.031395 
L 310.285053 197.07961 
L 310.610033 189.36605 
L 311.259992 222.137062 
L 311.584971 227.120672 
L 311.909951 242.745277 
L 312.23493 167.050165 
L 312.55991 211.798104 
L 312.884889 211.693553 
L 313.209869 224.47204 
L 313.859828 178.85284 
L 314.184807 178.550803 
L 314.509787 169.965983 
L 314.834766 180.45596 
L 315.159746 184.335973 
L 315.484726 168.01436 
L 316.134685 234.927166 
L 316.459664 193.246064 
L 317.109623 146.616202 
L 317.434603 158.233008 
L 317.759582 158.012289 
L 318.084562 156.629889 
L 318.409541 155.979348 
L 319.0595 130.073869 
L 319.38448 148.14962 
L 319.709459 111.9168 
L 320.034439 174.635939 
L 320.359418 184.161721 
L 320.684398 199.84441 
L 321.009377 191.410608 
L 321.334357 173.776296 
L 321.984316 159.557324 
L 322.309296 182.488901 
L 322.634275 227.225224 
L 322.959255 188.285687 
L 323.609214 245.42876 
L 323.934193 238.888497 
L 324.259173 191.538393 
L 324.909132 246.543973 
L 325.234111 233.626084 
L 325.559091 232.801291 
L 325.88407 233.904887 
L 326.20905 198.566561 
L 326.534029 182.361116 
L 326.859009 152.378138 
L 327.508968 219.767234 
L 327.833947 188.796827 
L 328.158927 230.419845 
L 328.483907 202.748612 
L 329.133866 220.394541 
L 329.458845 182.256565 
L 329.783825 221.96281 
L 330.108804 212.193076 
L 330.758763 226.423664 
L 331.083743 259.159825 
L 331.408722 182.361116 
L 331.733702 208.220128 
L 332.058681 209.068155 
L 332.383661 171.255449 
L 332.70864 184.475375 
L 333.03362 179.236195 
L 333.358599 211.310198 
L 333.683579 189.58677 
L 334.008558 187.344726 
L 334.333538 167.840108 
L 334.658518 156.304618 
L 334.983497 186.659334 
L 335.308477 190.283778 
L 335.633456 186.485082 
L 335.958436 201.168726 
L 336.283415 197.033143 
L 336.608395 225.680188 
L 336.933374 235.717109 
L 337.583333 217.467106 
L 337.908313 219.093459 
L 338.233292 204.82802 
L 338.558272 209.393425 
L 338.883251 232.383086 
L 339.208231 227.283308 
L 339.53321 231.233022 
L 339.85819 218.315133 
L 340.183169 212.599664 
L 340.508149 197.602366 
L 340.833128 226.319113 
L 341.158108 231.372424 
L 341.483088 245.242891 
L 342.133047 184.115254 
L 342.458026 224.332639 
L 342.783006 190.086292 
L 343.107985 178.504336 
L 343.432965 174.554622 
L 343.757944 158.66283 
L 344.082924 194.616847 
L 344.732883 177.877029 
L 345.057862 193.873371 
L 345.382842 192.64199 
L 345.707821 174.252585 
L 346.032801 189.342817 
L 346.35778 180.060988 
L 346.68276 201.703099 
L 347.007739 192.827859 
L 347.332719 236.007529 
L 347.657699 248.634998 
L 347.982678 237.471247 
L 348.632637 225.354918 
L 348.957617 210.0672 
L 349.282596 206.17557 
L 349.607576 171.847906 
L 349.932555 161.729667 
L 350.257535 177.307805 
L 350.582514 156.200067 
L 350.907494 167.944659 
L 351.232473 187.681613 
L 351.557453 198.810514 
L 351.882432 172.986353 
L 352.207412 178.388168 
L 352.532391 220.417775 
L 352.857371 203.19005 
L 353.18235 201.586931 
L 353.50733 174.786958 
L 353.832309 157.675402 
L 354.807248 172.521681 
L 355.132228 173.160605 
L 355.457207 176.157741 
L 355.782187 190.016592 
L 356.107166 167.642622 
L 356.432146 166.167287 
L 356.757125 187.937183 
L 357.407084 130.073869 
L 357.732064 128.993506 
L 358.057043 97.070521 
L 358.382023 100.509096 
L 358.707002 141.167919 
L 359.031982 148.811778 
L 359.356961 192.305103 
L 359.681941 176.239059 
L 360.00692 169.884666 
L 360.3319 175.611751 
L 360.65688 176.877983 
L 360.981859 211.252114 
L 361.306839 201.203576 
L 361.631818 164.610635 
L 362.281777 238.667778 
L 362.606757 229.931939 
L 362.931736 193.118279 
L 363.581695 182.70962 
L 363.906675 217.083751 
L 364.231654 178.539187 
L 364.881613 157.814803 
L 365.206593 200.332316 
L 365.531572 208.97522 
L 365.856552 156.234918 
L 366.181531 157.628934 
L 366.83149 216.43321 
L 367.15647 238.26119 
L 367.48145 232.348235 
L 367.806429 247.240982 
L 368.131409 249.924464 
L 368.456388 244.91762 
L 368.781368 215.155361 
L 369.106347 244.08121 
L 369.431327 242.071503 
L 369.756306 223.356827 
L 370.081286 250.214884 
L 370.406265 246.660141 
L 370.731245 245.115106 
L 371.056224 240.177963 
L 371.706183 228.189418 
L 372.031163 215.445782 
L 372.356142 243.79079 
L 372.681122 244.66205 
L 373.656061 185.056215 
L 373.98104 218.117647 
L 374.30602 217.548424 
L 374.955979 247.35715 
L 375.280958 217.618124 
L 375.605938 212.425412 
L 375.930917 249.250689 
L 376.255897 240.026945 
L 376.580876 234.40441 
L 376.905856 181.478239 
L 377.230835 166.248605 
L 377.555815 219.360645 
L 377.880794 228.131334 
L 378.205774 225.122582 
L 378.530753 237.7152 
L 378.855733 188.518024 
L 379.180712 158.755765 
L 379.505692 180.932249 
L 379.830671 190.190844 
L 380.155651 181.431771 
L 380.480631 159.17397 
L 380.80561 162.194339 
L 381.780549 227.49241 
L 382.105528 224.576592 
L 382.755487 233.893271 
L 383.405446 214.516437 
L 383.730426 209.77678 
L 384.380385 180.606978 
L 385.030344 242.733661 
L 385.355323 212.181459 
L 386.005282 208.824202 
L 386.330262 223.147724 
L 386.980221 194.454212 
L 387.305201 143.770084 
L 387.63018 158.291092 
L 387.95516 165.969802 
L 388.280139 94.677459 
L 388.605119 84.30365 
L 388.930098 115.146272 
L 389.255078 116.296336 
L 389.580057 133.419509 
L 389.905037 159.882595 
L 390.230016 160.033613 
L 390.554996 156.420787 
L 390.879975 178.167449 
L 391.204955 176.761815 
L 391.529934 216.630696 
L 391.854914 230.315294 
L 392.179893 239.155684 
L 392.504873 243.093782 
L 392.829852 239.422871 
L 393.154832 247.345533 
L 393.479812 229.943556 
L 393.804791 150.984121 
L 394.129771 149.601721 
L 394.45475 201.656632 
L 394.77973 196.359368 
L 395.104709 186.554783 
L 395.429689 202.585976 
L 395.754668 201.726333 
L 396.079648 219.19801 
L 396.079648 219.19801 
" clip-path="url(#pb1a71139da)" style="fill: none; stroke: #1f77b4; stroke-width: 1.2; stroke-linecap: round"/>
   </g>
   <g id="patch_3">
    <path d="M 55.192375 250.888659 
L 55.192375 12.976457 
" style="fill: none; stroke: #262626; stroke-linejoin: miter; stroke-linecap: square"/>
   </g>
   <g id="patch_4">
    <path d="M 71.425102 273.312 
L 396.404627 273.312 
" style="fill: none; stroke: #262626; stroke-linejoin: miter; stroke-linecap: square"/>
   </g>
  </g>
 </g>
 <defs>
  <clipPath id="pb1a71139da">
   <rect x="55.192375" y="7.2" width="357.12" height="266.112"/>
  </clipPath>
 </defs>
</svg>