<?xml version="1.0" encoding="utf-8" standalone="no"?>
<!DOCTYPE svg PUBLIC "-//W3C//DTD SVG 1.1//EN"
  "http://www.w3.org/Graphics/SVG/1.1/DTD/svg11.dtd">
<svg xmlns:xlink="http://www.w3.org/1999/xlink" width="412.649625pt" height="322.768875pt" viewBox="0 0 412.649625 322.768875" xmlns="http://www.w3.org/2000/svg" version="1.1">
 <metadata>
  <rdf:RDF xmlns:dc="http://purl.org/dc/elements/1.1/" xmlns:cc="http://creativecommons.org/ns#" xmlns:rdf="http://www.w3.org/1999/02/22-rdf-syntax-ns#">
   <cc:Work>
    <dc:type rdf:resource="http://purl.org/dc/dcmitype/StillImage"/>
    <dc:date>2023-09-17T10:51:49.778231</dc:date>
    <dc:format>image/svg+xml</dc:format>
    <dc:creator>
     <cc:Agent>
      <dc:title>Matplotlib v3.7.1, https://matplotlib.org/</dc:title>
     </cc:Agent>
    </dc:creator>
   </cc:Work>
  </rdf:RDF>
 </metadata>
 <defs>
  <style type="text/css">*{stroke-linejoin: round; stroke-linecap: butt}</style>
 </defs>
 <g id="figure_1">
  <g id="patch_1">
   <path d="M 0 322.768875 
L 412.649625 322.768875 
L 412.649625 0 
L 0 0 
z
" style="fill: #ffffff"/>
  </g>
  <g id="axes_1">
   <g id="patch_2">
    <path d="M 48.329625 286.212 
L 405.449625 286.212 
L 405.449625 20.1 
L 48.329625 20.1 
z
" style="fill: #ffffff"/>
   </g>
   <g id="matplotlib.axis_1">
    <g id="xtick_1">
     <g id="line2d_1">
      <defs>
       <path id="m473887b47d" d="M 0 0 
L 0 4.8 
" style="stroke: #262626"/>
      </defs>
      <g>
       <use xlink:href="#m473887b47d" x="64.562352" y="286.212" style="fill: #262626; stroke: #262626"/>
      </g>
     </g>
     <g id="text_1">
      <!-- 0 -->
      <g style="fill: #262626" transform="translate(62.11554 300.810875) scale(0.088 -0.088)">
       <defs>
        <path id="ArialMT-30" d="M 266 2259 
Q 266 3072 433 3567 
Q 600 4063 929 4331 
Q 1259 4600 1759 4600 
Q 2128 4600 2406 4451 
Q 2684 4303 2865 4023 
Q 3047 3744 3150 3342 
Q 3253 2941 3253 2259 
Q 3253 1453 3087 958 
Q 2922 463 2592 192 
Q 2263 -78 1759 -78 
Q 1097 -78 719 397 
Q 266 969 266 2259 
z
M 844 2259 
Q 844 1131 1108 757 
Q 1372 384 1759 384 
Q 2147 384 2411 759 
Q 2675 1134 2675 2259 
Q 2675 3391 2411 3762 
Q 2147 4134 1753 4134 
Q 1366 4134 1134 3806 
Q 844 3388 844 2259 
z
" transform="scale(0.015625)"/>
       </defs>
       <use xlink:href="#ArialMT-30"/>
      </g>
     </g>
    </g>
    <g id="xtick_2">
     <g id="line2d_2">
      <g>
       <use xlink:href="#m473887b47d" x="118.671443" y="286.212" style="fill: #262626; stroke: #262626"/>
      </g>
     </g>
     <g id="text_2">
      <!-- 10 -->
      <g style="fill: #262626" transform="translate(113.777818 300.810875) scale(0.088 -0.088)">
       <defs>
        <path id="ArialMT-31" d="M 2384 0 
L 1822 0 
L 1822 3584 
Q 1619 3391 1289 3197 
Q 959 3003 697 2906 
L 697 3450 
Q 1169 3672 1522 3987 
Q 1875 4303 2022 4600 
L 2384 4600 
L 2384 0 
z
" transform="scale(0.015625)"/>
       </defs>
       <use xlink:href="#ArialMT-31"/>
       <use xlink:href="#ArialMT-30" x="55.615234"/>
      </g>
     </g>
    </g>
    <g id="xtick_3">
     <g id="line2d_3">
      <g>
       <use xlink:href="#m473887b47d" x="172.780534" y="286.212" style="fill: #262626; stroke: #262626"/>
      </g>
     </g>
     <g id="text_3">
      <!-- 20 -->
      <g style="fill: #262626" transform="translate(167.886909 300.810875) scale(0.088 -0.088)">
       <defs>
        <path id="ArialMT-32" d="M 3222 541 
L 3222 0 
L 194 0 
Q 188 203 259 391 
Q 375 700 629 1000 
Q 884 1300 1366 1694 
Q 2113 2306 2375 2664 
Q 2638 3022 2638 3341 
Q 2638 3675 2398 3904 
Q 2159 4134 1775 4134 
Q 1369 4134 1125 3890 
Q 881 3647 878 3216 
L 300 3275 
Q 359 3922 746 4261 
Q 1134 4600 1788 4600 
Q 2447 4600 2831 4234 
Q 3216 3869 3216 3328 
Q 3216 3053 3103 2787 
Q 2991 2522 2730 2228 
Q 2469 1934 1863 1422 
Q 1356 997 1212 845 
Q 1069 694 975 541 
L 3222 541 
z
" transform="scale(0.015625)"/>
       </defs>
       <use xlink:href="#ArialMT-32"/>
       <use xlink:href="#ArialMT-30" x="55.615234"/>
      </g>
     </g>
    </g>
    <g id="xtick_4">
     <g id="line2d_4">
      <g>
       <use xlink:href="#m473887b47d" x="226.889625" y="286.212" style="fill: #262626; stroke: #262626"/>
      </g>
     </g>
     <g id="text_4">
      <!-- 30 -->
      <g style="fill: #262626" transform="translate(221.996 300.810875) scale(0.088 -0.088)">
       <defs>
        <path id="ArialMT-33" d="M 269 1209 
L 831 1284 
Q 928 806 1161 595 
Q 1394 384 1728 384 
Q 2125 384 2398 659 
Q 2672 934 2672 1341 
Q 2672 1728 2419 1979 
Q 2166 2231 1775 2231 
Q 1616 2231 1378 2169 
L 1441 2663 
Q 1497 2656 1531 2656 
Q 1891 2656 2178 2843 
Q 2466 3031 2466 3422 
Q 2466 3731 2256 3934 
Q 2047 4138 1716 4138 
Q 1388 4138 1169 3931 
Q 950 3725 888 3313 
L 325 3413 
Q 428 3978 793 4289 
Q 1159 4600 1703 4600 
Q 2078 4600 2393 4439 
Q 2709 4278 2876 4000 
Q 3044 3722 3044 3409 
Q 3044 3113 2884 2869 
Q 2725 2625 2413 2481 
Q 2819 2388 3044 2092 
Q 3269 1797 3269 1353 
Q 3269 753 2831 336 
Q 2394 -81 1725 -81 
Q 1122 -81 723 278 
Q 325 638 269 1209 
z
" transform="scale(0.015625)"/>
       </defs>
       <use xlink:href="#ArialMT-33"/>
       <use xlink:href="#ArialMT-30" x="55.615234"/>
      </g>
     </g>
    </g>
    <g id="xtick_5">
     <g id="line2d_5">
      <g>
       <use xlink:href="#m473887b47d" x="280.998716" y="286.212" style="fill: #262626; stroke: #262626"/>
      </g>
     </g>
     <g id="text_5">
      <!-- 40 -->
      <g style="fill: #262626" transform="translate(276.105091 300.810875) scale(0.088 -0.088)">
       <defs>
        <path id="ArialMT-34" d="M 2069 0 
L 2069 1097 
L 81 1097 
L 81 1613 
L 2172 4581 
L 2631 4581 
L 2631 1613 
L 3250 1613 
L 3250 1097 
L 2631 1097 
L 2631 0 
L 2069 0 
z
M 2069 1613 
L 2069 3678 
L 634 1613 
L 2069 1613 
z
" transform="scale(0.015625)"/>
       </defs>
       <use xlink:href="#ArialMT-34"/>
       <use xlink:href="#ArialMT-30" x="55.615234"/>
      </g>
     </g>
    </g>
    <g id="xtick_6">
     <g id="line2d_6">
      <g>
       <use xlink:href="#m473887b47d" x="335.107807" y="286.212" style="fill: #262626; stroke: #262626"/>
      </g>
     </g>
     <g id="text_6">
      <!-- 50 -->
      <g style="fill: #262626" transform="translate(330.214182 300.810875) scale(0.088 -0.088)">
       <defs>
        <path id="ArialMT-35" d="M 266 1200 
L 856 1250 
Q 922 819 1161 601 
Q 1400 384 1738 384 
Q 2144 384 2425 690 
Q 2706 997 2706 1503 
Q 2706 1984 2436 2262 
Q 2166 2541 1728 2541 
Q 1456 2541 1237 2417 
Q 1019 2294 894 2097 
L 366 2166 
L 809 4519 
L 3088 4519 
L 3088 3981 
L 1259 3981 
L 1013 2750 
Q 1425 3038 1878 3038 
Q 2478 3038 2890 2622 
Q 3303 2206 3303 1553 
Q 3303 931 2941 478 
Q 2500 -78 1738 -78 
Q 1113 -78 717 272 
Q 322 622 266 1200 
z
" transform="scale(0.015625)"/>
       </defs>
       <use xlink:href="#ArialMT-35"/>
       <use xlink:href="#ArialMT-30" x="55.615234"/>
      </g>
     </g>
    </g>
    <g id="xtick_7">
     <g id="line2d_7">
      <g>
       <use xlink:href="#m473887b47d" x="389.216898" y="286.212" style="fill: #262626; stroke: #262626"/>
      </g>
     </g>
     <g id="text_7">
      <!-- 60 -->
      <g style="fill: #262626" transform="translate(384.323273 300.810875) scale(0.088 -0.088)">
       <defs>
        <path id="ArialMT-36" d="M 3184 3459 
L 2625 3416 
Q 2550 3747 2413 3897 
Q 2184 4138 1850 4138 
Q 1581 4138 1378 3988 
Q 1113 3794 959 3422 
Q 806 3050 800 2363 
Q 1003 2672 1297 2822 
Q 1591 2972 1913 2972 
Q 2475 2972 2870 2558 
Q 3266 2144 3266 1488 
Q 3266 1056 3080 686 
Q 2894 316 2569 119 
Q 2244 -78 1831 -78 
Q 1128 -78 684 439 
Q 241 956 241 2144 
Q 241 3472 731 4075 
Q 1159 4600 1884 4600 
Q 2425 4600 2770 4297 
Q 3116 3994 3184 3459 
z
M 888 1484 
Q 888 1194 1011 928 
Q 1134 663 1356 523 
Q 1578 384 1822 384 
Q 2178 384 2434 671 
Q 2691 959 2691 1453 
Q 2691 1928 2437 2201 
Q 2184 2475 1800 2475 
Q 1419 2475 1153 2201 
Q 888 1928 888 1484 
z
" transform="scale(0.015625)"/>
       </defs>
       <use xlink:href="#ArialMT-36"/>
       <use xlink:href="#ArialMT-30" x="55.615234"/>
      </g>
     </g>
    </g>
    <g id="text_8">
     <!-- Time (ms) -->
     <g style="fill: #262626" transform="translate(205.475625 313.548375) scale(0.096 -0.096)">
      <defs>
       <path id="ArialMT-54" d="M 1659 0 
L 1659 4041 
L 150 4041 
L 150 4581 
L 3781 4581 
L 3781 4041 
L 2266 4041 
L 2266 0 
L 1659 0 
z
" transform="scale(0.015625)"/>
       <path id="ArialMT-69" d="M 425 3934 
L 425 4581 
L 988 4581 
L 988 3934 
L 425 3934 
z
M 425 0 
L 425 3319 
L 988 3319 
L 988 0 
L 425 0 
z
" transform="scale(0.015625)"/>
       <path id="ArialMT-6d" d="M 422 0 
L 422 3319 
L 925 3319 
L 925 2853 
Q 1081 3097 1340 3245 
Q 1600 3394 1931 3394 
Q 2300 3394 2536 3241 
Q 2772 3088 2869 2813 
Q 3263 3394 3894 3394 
Q 4388 3394 4653 3120 
Q 4919 2847 4919 2278 
L 4919 0 
L 4359 0 
L 4359 2091 
Q 4359 2428 4304 2576 
Q 4250 2725 4106 2815 
Q 3963 2906 3769 2906 
Q 3419 2906 3187 2673 
Q 2956 2441 2956 1928 
L 2956 0 
L 2394 0 
L 2394 2156 
Q 2394 2531 2256 2718 
Q 2119 2906 1806 2906 
Q 1569 2906 1367 2781 
Q 1166 2656 1075 2415 
Q 984 2175 984 1722 
L 984 0 
L 422 0 
z
" transform="scale(0.015625)"/>
       <path id="ArialMT-65" d="M 2694 1069 
L 3275 997 
Q 3138 488 2766 206 
Q 2394 -75 1816 -75 
Q 1088 -75 661 373 
Q 234 822 234 1631 
Q 234 2469 665 2931 
Q 1097 3394 1784 3394 
Q 2450 3394 2872 2941 
Q 3294 2488 3294 1666 
Q 3294 1616 3291 1516 
L 816 1516 
Q 847 969 1125 678 
Q 1403 388 1819 388 
Q 2128 388 2347 550 
Q 2566 713 2694 1069 
z
M 847 1978 
L 2700 1978 
Q 2663 2397 2488 2606 
Q 2219 2931 1791 2931 
Q 1403 2931 1139 2672 
Q 875 2413 847 1978 
z
" transform="scale(0.015625)"/>
       <path id="ArialMT-20" transform="scale(0.015625)"/>
       <path id="ArialMT-28" d="M 1497 -1347 
Q 1031 -759 709 28 
Q 388 816 388 1659 
Q 388 2403 628 3084 
Q 909 3875 1497 4659 
L 1900 4659 
Q 1522 4009 1400 3731 
Q 1209 3300 1100 2831 
Q 966 2247 966 1656 
Q 966 153 1900 -1347 
L 1497 -1347 
z
" transform="scale(0.015625)"/>
       <path id="ArialMT-73" d="M 197 991 
L 753 1078 
Q 800 744 1014 566 
Q 1228 388 1613 388 
Q 2000 388 2187 545 
Q 2375 703 2375 916 
Q 2375 1106 2209 1216 
Q 2094 1291 1634 1406 
Q 1016 1563 777 1677 
Q 538 1791 414 1992 
Q 291 2194 291 2438 
Q 291 2659 392 2848 
Q 494 3038 669 3163 
Q 800 3259 1026 3326 
Q 1253 3394 1513 3394 
Q 1903 3394 2198 3281 
Q 2494 3169 2634 2976 
Q 2775 2784 2828 2463 
L 2278 2388 
Q 2241 2644 2061 2787 
Q 1881 2931 1553 2931 
Q 1166 2931 1000 2803 
Q 834 2675 834 2503 
Q 834 2394 903 2306 
Q 972 2216 1119 2156 
Q 1203 2125 1616 2013 
Q 2213 1853 2448 1751 
Q 2684 1650 2818 1456 
Q 2953 1263 2953 975 
Q 2953 694 2789 445 
Q 2625 197 2315 61 
Q 2006 -75 1616 -75 
Q 969 -75 630 194 
Q 291 463 197 991 
z
" transform="scale(0.015625)"/>
       <path id="ArialMT-29" d="M 791 -1347 
L 388 -1347 
Q 1322 153 1322 1656 
Q 1322 2244 1188 2822 
Q 1081 3291 891 3722 
Q 769 4003 388 4659 
L 791 4659 
Q 1378 3875 1659 3084 
Q 1900 2403 1900 1659 
Q 1900 816 1576 28 
Q 1253 -759 791 -1347 
z
" transform="scale(0.015625)"/>
      </defs>
      <use xlink:href="#ArialMT-54"/>
      <use xlink:href="#ArialMT-69" x="57.333984"/>
      <use xlink:href="#ArialMT-6d" x="79.550781"/>
      <use xlink:href="#ArialMT-65" x="162.851562"/>
      <use xlink:href="#ArialMT-20" x="218.466797"/>
      <use xlink:href="#ArialMT-28" x="246.25"/>
      <use xlink:href="#ArialMT-6d" x="279.550781"/>
      <use xlink:href="#ArialMT-73" x="362.851562"/>
      <use xlink:href="#ArialMT-29" x="412.851562"/>
     </g>
    </g>
   </g>
   <g id="matplotlib.axis_2">
    <g id="ytick_1">
     <g id="line2d_8">
      <defs>
       <path id="m71014c8440" d="M 0 0 
L -4.8 0 
" style="stroke: #262626"/>
      </defs>
      <g>
       <use xlink:href="#m71014c8440" x="48.329625" y="234.760593" style="fill: #262626; stroke: #262626"/>
      </g>
     </g>
     <g id="text_9">
      <!-- −100 -->
      <g style="fill: #262626" transform="translate(20.209 237.910031) scale(0.088 -0.088)">
       <defs>
        <path id="ArialMT-2212" d="M 3381 1997 
L 356 1997 
L 356 2522 
L 3381 2522 
L 3381 1997 
z
" transform="scale(0.015625)"/>
       </defs>
       <use xlink:href="#ArialMT-2212"/>
       <use xlink:href="#ArialMT-31" x="58.398438"/>
       <use xlink:href="#ArialMT-30" x="114.013672"/>
       <use xlink:href="#ArialMT-30" x="169.628906"/>
      </g>
     </g>
    </g>
    <g id="ytick_2">
     <g id="line2d_9">
      <g>
       <use xlink:href="#m71014c8440" x="48.329625" y="176.884995" style="fill: #262626; stroke: #262626"/>
      </g>
     </g>
     <g id="text_10">
      <!-- −50 -->
      <g style="fill: #262626" transform="translate(25.102625 180.034433) scale(0.088 -0.088)">
       <use xlink:href="#ArialMT-2212"/>
       <use xlink:href="#ArialMT-35" x="58.398438"/>
       <use xlink:href="#ArialMT-30" x="114.013672"/>
      </g>
     </g>
    </g>
    <g id="ytick_3">
     <g id="line2d_10">
      <g>
       <use xlink:href="#m71014c8440" x="48.329625" y="119.009397" style="fill: #262626; stroke: #262626"/>
      </g>
     </g>
     <g id="text_11">
      <!-- 0 -->
      <g style="fill: #262626" transform="translate(35.136 122.158835) scale(0.088 -0.088)">
       <use xlink:href="#ArialMT-30"/>
      </g>
     </g>
    </g>
    <g id="ytick_4">
     <g id="line2d_11">
      <g>
       <use xlink:href="#m71014c8440" x="48.329625" y="61.133799" style="fill: #262626; stroke: #262626"/>
      </g>
     </g>
     <g id="text_12">
      <!-- 50 -->
      <g style="fill: #262626" transform="translate(30.242375 64.283237) scale(0.088 -0.088)">
       <use xlink:href="#ArialMT-35"/>
       <use xlink:href="#ArialMT-30" x="55.615234"/>
      </g>
     </g>
    </g>
    <g id="text_13">
     <!-- Acceleration (g) -->
     <g style="fill: #262626" transform="translate(14.1885 186.768) rotate(-90) scale(0.096 -0.096)">
      <defs>
       <path id="ArialMT-41" d="M -9 0 
L 1750 4581 
L 2403 4581 
L 4278 0 
L 3588 0 
L 3053 1388 
L 1138 1388 
L 634 0 
L -9 0 
z
M 1313 1881 
L 2866 1881 
L 2388 3150 
Q 2169 3728 2063 4100 
Q 1975 3659 1816 3225 
L 1313 1881 
z
" transform="scale(0.015625)"/>
       <path id="ArialMT-63" d="M 2588 1216 
L 3141 1144 
Q 3050 572 2676 248 
Q 2303 -75 1759 -75 
Q 1078 -75 664 370 
Q 250 816 250 1647 
Q 250 2184 428 2587 
Q 606 2991 970 3192 
Q 1334 3394 1763 3394 
Q 2303 3394 2647 3120 
Q 2991 2847 3088 2344 
L 2541 2259 
Q 2463 2594 2264 2762 
Q 2066 2931 1784 2931 
Q 1359 2931 1093 2626 
Q 828 2322 828 1663 
Q 828 994 1084 691 
Q 1341 388 1753 388 
Q 2084 388 2306 591 
Q 2528 794 2588 1216 
z
" transform="scale(0.015625)"/>
       <path id="ArialMT-6c" d="M 409 0 
L 409 4581 
L 972 4581 
L 972 0 
L 409 0 
z
" transform="scale(0.015625)"/>
       <path id="ArialMT-72" d="M 416 0 
L 416 3319 
L 922 3319 
L 922 2816 
Q 1116 3169 1280 3281 
Q 1444 3394 1641 3394 
Q 1925 3394 2219 3213 
L 2025 2691 
Q 1819 2813 1613 2813 
Q 1428 2813 1281 2702 
Q 1134 2591 1072 2394 
Q 978 2094 978 1738 
L 978 0 
L 416 0 
z
" transform="scale(0.015625)"/>
       <path id="ArialMT-61" d="M 2588 409 
Q 2275 144 1986 34 
Q 1697 -75 1366 -75 
Q 819 -75 525 192 
Q 231 459 231 875 
Q 231 1119 342 1320 
Q 453 1522 633 1644 
Q 813 1766 1038 1828 
Q 1203 1872 1538 1913 
Q 2219 1994 2541 2106 
Q 2544 2222 2544 2253 
Q 2544 2597 2384 2738 
Q 2169 2928 1744 2928 
Q 1347 2928 1158 2789 
Q 969 2650 878 2297 
L 328 2372 
Q 403 2725 575 2942 
Q 747 3159 1072 3276 
Q 1397 3394 1825 3394 
Q 2250 3394 2515 3294 
Q 2781 3194 2906 3042 
Q 3031 2891 3081 2659 
Q 3109 2516 3109 2141 
L 3109 1391 
Q 3109 606 3145 398 
Q 3181 191 3288 0 
L 2700 0 
Q 2613 175 2588 409 
z
M 2541 1666 
Q 2234 1541 1622 1453 
Q 1275 1403 1131 1340 
Q 988 1278 909 1158 
Q 831 1038 831 891 
Q 831 666 1001 516 
Q 1172 366 1500 366 
Q 1825 366 2078 508 
Q 2331 650 2450 897 
Q 2541 1088 2541 1459 
L 2541 1666 
z
" transform="scale(0.015625)"/>
       <path id="ArialMT-74" d="M 1650 503 
L 1731 6 
Q 1494 -44 1306 -44 
Q 1000 -44 831 53 
Q 663 150 594 308 
Q 525 466 525 972 
L 525 2881 
L 113 2881 
L 113 3319 
L 525 3319 
L 525 4141 
L 1084 4478 
L 1084 3319 
L 1650 3319 
L 1650 2881 
L 1084 2881 
L 1084 941 
Q 1084 700 1114 631 
Q 1144 563 1211 522 
Q 1278 481 1403 481 
Q 1497 481 1650 503 
z
" transform="scale(0.015625)"/>
       <path id="ArialMT-6f" d="M 213 1659 
Q 213 2581 725 3025 
Q 1153 3394 1769 3394 
Q 2453 3394 2887 2945 
Q 3322 2497 3322 1706 
Q 3322 1066 3130 698 
Q 2938 331 2570 128 
Q 2203 -75 1769 -75 
Q 1072 -75 642 372 
Q 213 819 213 1659 
z
M 791 1659 
Q 791 1022 1069 705 
Q 1347 388 1769 388 
Q 2188 388 2466 706 
Q 2744 1025 2744 1678 
Q 2744 2294 2464 2611 
Q 2184 2928 1769 2928 
Q 1347 2928 1069 2612 
Q 791 2297 791 1659 
z
" transform="scale(0.015625)"/>
       <path id="ArialMT-6e" d="M 422 0 
L 422 3319 
L 928 3319 
L 928 2847 
Q 1294 3394 1984 3394 
Q 2284 3394 2536 3286 
Q 2788 3178 2913 3003 
Q 3038 2828 3088 2588 
Q 3119 2431 3119 2041 
L 3119 0 
L 2556 0 
L 2556 2019 
Q 2556 2363 2490 2533 
Q 2425 2703 2258 2804 
Q 2091 2906 1866 2906 
Q 1506 2906 1245 2678 
Q 984 2450 984 1813 
L 984 0 
L 422 0 
z
" transform="scale(0.015625)"/>
       <path id="ArialMT-67" d="M 319 -275 
L 866 -356 
Q 900 -609 1056 -725 
Q 1266 -881 1628 -881 
Q 2019 -881 2231 -725 
Q 2444 -569 2519 -288 
Q 2563 -116 2559 434 
Q 2191 0 1641 0 
Q 956 0 581 494 
Q 206 988 206 1678 
Q 206 2153 378 2554 
Q 550 2956 876 3175 
Q 1203 3394 1644 3394 
Q 2231 3394 2613 2919 
L 2613 3319 
L 3131 3319 
L 3131 450 
Q 3131 -325 2973 -648 
Q 2816 -972 2473 -1159 
Q 2131 -1347 1631 -1347 
Q 1038 -1347 672 -1080 
Q 306 -813 319 -275 
z
M 784 1719 
Q 784 1066 1043 766 
Q 1303 466 1694 466 
Q 2081 466 2343 764 
Q 2606 1063 2606 1700 
Q 2606 2309 2336 2618 
Q 2066 2928 1684 2928 
Q 1309 2928 1046 2623 
Q 784 2319 784 1719 
z
" transform="scale(0.015625)"/>
      </defs>
      <use xlink:href="#ArialMT-41"/>
      <use xlink:href="#ArialMT-63" x="66.699219"/>
      <use xlink:href="#ArialMT-63" x="116.699219"/>
      <use xlink:href="#ArialMT-65" x="166.699219"/>
      <use xlink:href="#ArialMT-6c" x="222.314453"/>
      <use xlink:href="#ArialMT-65" x="244.53125"/>
      <use xlink:href="#ArialMT-72" x="300.146484"/>
      <use xlink:href="#ArialMT-61" x="333.447266"/>
      <use xlink:href="#ArialMT-74" x="389.0625"/>
      <use xlink:href="#ArialMT-69" x="416.845703"/>
      <use xlink:href="#ArialMT-6f" x="439.0625"/>
      <use xlink:href="#ArialMT-6e" x="494.677734"/>
      <use xlink:href="#ArialMT-20" x="550.292969"/>
      <use xlink:href="#ArialMT-28" x="578.076172"/>
      <use xlink:href="#ArialMT-67" x="611.376953"/>
      <use xlink:href="#ArialMT-29" x="666.992188"/>
     </g>
    </g>
   </g>
   <g id="line2d_12">
    <defs>
     <path id="ma9836fced0" d="M -2.4 2.4 
L 2.4 -2.4 
M -2.4 -2.4 
L 2.4 2.4 
" style="stroke: #1f77b4"/>
    </defs>
    <g clip-path="url(#p32649dca55)">
     <use xlink:href="#ma9836fced0" x="233.382716" y="109.63355" style="fill: #1f77b4; stroke: #1f77b4"/>
     <use xlink:href="#ma9836fced0" x="152.21908" y="143.895904" style="fill: #1f77b4; stroke: #1f77b4"/>
     <use xlink:href="#ma9836fced0" x="77.548534" y="119.009397" style="fill: #1f77b4; stroke: #1f77b4"/>
     <use xlink:href="#ma9836fced0" x="135.986352" y="122.134679" style="fill: #1f77b4; stroke: #1f77b4"/>
     <use xlink:href="#ma9836fced0" x="289.65617" y="83.358029" style="fill: #1f77b4; stroke: #1f77b4"/>
     <use xlink:href="#ma9836fced0" x="144.643807" y="122.134679" style="fill: #1f77b4; stroke: #1f77b4"/>
     <use xlink:href="#ma9836fced0" x="280.998716" y="143.895904" style="fill: #1f77b4; stroke: #1f77b4"/>
     <use xlink:href="#ma9836fced0" x="182.52017" y="244.483694" style="fill: #1f77b4; stroke: #1f77b4"/>
     <use xlink:href="#ma9836fced0" x="138.150716" y="122.134679" style="fill: #1f77b4; stroke: #1f77b4"/>
     <use xlink:href="#ma9836fced0" x="352.422716" y="136.024823" style="fill: #1f77b4; stroke: #1f77b4"/>
     <use xlink:href="#ma9836fced0" x="218.23217" y="143.895904" style="fill: #1f77b4; stroke: #1f77b4"/>
     <use xlink:href="#ma9836fced0" x="147.890352" y="145.40067" style="fill: #1f77b4; stroke: #1f77b4"/>
     <use xlink:href="#ma9836fced0" x="211.73908" y="171.791943" style="fill: #1f77b4; stroke: #1f77b4"/>
     <use xlink:href="#ma9836fced0" x="308.053261" y="106.624019" style="fill: #1f77b4; stroke: #1f77b4"/>
     <use xlink:href="#ma9836fced0" x="276.669989" y="112.758833" style="fill: #1f77b4; stroke: #1f77b4"/>
     <use xlink:href="#ma9836fced0" x="297.231443" y="101.993971" style="fill: #1f77b4; stroke: #1f77b4"/>
     <use xlink:href="#ma9836fced0" x="165.205261" y="249.229493" style="fill: #1f77b4; stroke: #1f77b4"/>
     <use xlink:href="#ma9836fced0" x="150.054716" y="143.895904" style="fill: #1f77b4; stroke: #1f77b4"/>
     <use xlink:href="#ma9836fced0" x="293.984898" y="84.978545" style="fill: #1f77b4; stroke: #1f77b4"/>
     <use xlink:href="#ma9836fced0" x="153.301261" y="125.259962" style="fill: #1f77b4; stroke: #1f77b4"/>
     <use xlink:href="#ma9836fced0" x="126.246716" y="119.009397" style="fill: #1f77b4; stroke: #1f77b4"/>
     <use xlink:href="#ma9836fced0" x="245.286716" y="100.489206" style="fill: #1f77b4; stroke: #1f77b4"/>
     <use xlink:href="#ma9836fced0" x="118.671443" y="122.134679" style="fill: #1f77b4; stroke: #1f77b4"/>
     <use xlink:href="#ma9836fced0" x="139.232898" y="119.009397" style="fill: #1f77b4; stroke: #1f77b4"/>
     <use xlink:href="#ma9836fced0" x="323.203807" y="150.030718" style="fill: #1f77b4; stroke: #1f77b4"/>
     <use xlink:href="#ma9836fced0" x="194.42417" y="249.229493" style="fill: #1f77b4; stroke: #1f77b4"/>
     <use xlink:href="#ma9836fced0" x="237.711443" y="55.46199" style="fill: #1f77b4; stroke: #1f77b4"/>
     <use xlink:href="#ma9836fced0" x="255.026352" y="137.529589" style="fill: #1f77b4; stroke: #1f77b4"/>
     <use xlink:href="#ma9836fced0" x="106.767443" y="122.134679" style="fill: #1f77b4; stroke: #1f77b4"/>
     <use xlink:href="#ma9836fced0" x="206.32817" y="242.978928" style="fill: #1f77b4; stroke: #1f77b4"/>
     <use xlink:href="#ma9836fced0" x="210.656898" y="137.529589" style="fill: #1f77b4; stroke: #1f77b4"/>
     <use xlink:href="#ma9836fced0" x="345.929625" y="106.624019" style="fill: #1f77b4; stroke: #1f77b4"/>
     <use xlink:href="#ma9836fced0" x="250.697625" y="117.504632" style="fill: #1f77b4; stroke: #1f77b4"/>
     <use xlink:href="#ma9836fced0" x="316.710716" y="106.624019" style="fill: #1f77b4; stroke: #1f77b4"/>
     <use xlink:href="#ma9836fced0" x="124.082352" y="125.259962" style="fill: #1f77b4; stroke: #1f77b4"/>
     <use xlink:href="#ma9836fced0" x="98.109989" y="122.134679" style="fill: #1f77b4; stroke: #1f77b4"/>
     <use xlink:href="#ma9836fced0" x="84.041625" y="119.009397" style="fill: #1f77b4; stroke: #1f77b4"/>
     <use xlink:href="#ma9836fced0" x="242.04017" y="64.722086" style="fill: #1f77b4; stroke: #1f77b4"/>
     <use xlink:href="#ma9836fced0" x="362.162352" y="122.134679" style="fill: #1f77b4; stroke: #1f77b4"/>
     <use xlink:href="#ma9836fced0" x="232.300534" y="32.196" style="fill: #1f77b4; stroke: #1f77b4"/>
     <use xlink:href="#ma9836fced0" x="160.876534" y="233.718833" style="fill: #1f77b4; stroke: #1f77b4"/>
     <use xlink:href="#ma9836fced0" x="213.903443" y="114.379349" style="fill: #1f77b4; stroke: #1f77b4"/>
     <use xlink:href="#ma9836fced0" x="217.149989" y="105.119254" style="fill: #1f77b4; stroke: #1f77b4"/>
     <use xlink:href="#ma9836fced0" x="338.354352" y="119.009397" style="fill: #1f77b4; stroke: #1f77b4"/>
     <use xlink:href="#ma9836fced0" x="148.972534" y="165.541378" style="fill: #1f77b4; stroke: #1f77b4"/>
     <use xlink:href="#ma9836fced0" x="191.177625" y="267.749684" style="fill: #1f77b4; stroke: #1f77b4"/>
     <use xlink:href="#ma9836fced0" x="101.356534" y="120.514163" style="fill: #1f77b4; stroke: #1f77b4"/>
     <use xlink:href="#ma9836fced0" x="179.273625" y="274.116" style="fill: #1f77b4; stroke: #1f77b4"/>
     <use xlink:href="#ma9836fced0" x="112.178352" y="120.514163" style="fill: #1f77b4; stroke: #1f77b4"/>
     <use xlink:href="#ma9836fced0" x="283.16308" y="134.404306" style="fill: #1f77b4; stroke: #1f77b4"/>
     <use xlink:href="#ma9836fced0" x="116.50708" y="122.134679" style="fill: #1f77b4; stroke: #1f77b4"/>
     <use xlink:href="#ma9836fced0" x="270.176898" y="64.722086" style="fill: #1f77b4; stroke: #1f77b4"/>
     <use xlink:href="#ma9836fced0" x="296.149261" y="119.009397" style="fill: #1f77b4; stroke: #1f77b4"/>
     <use xlink:href="#ma9836fced0" x="121.917989" y="122.134679" style="fill: #1f77b4; stroke: #1f77b4"/>
     <use xlink:href="#ma9836fced0" x="223.64308" y="139.150105" style="fill: #1f77b4; stroke: #1f77b4"/>
     <use xlink:href="#ma9836fced0" x="364.326716" y="122.134679" style="fill: #1f77b4; stroke: #1f77b4"/>
     <use xlink:href="#ma9836fced0" x="376.230716" y="106.624019" style="fill: #1f77b4; stroke: #1f77b4"/>
     <use xlink:href="#ma9836fced0" x="169.533989" y="218.092421" style="fill: #1f77b4; stroke: #1f77b4"/>
     <use xlink:href="#ma9836fced0" x="183.602352" y="261.49912" style="fill: #1f77b4; stroke: #1f77b4"/>
     <use xlink:href="#ma9836fced0" x="173.862716" y="261.49912" style="fill: #1f77b4; stroke: #1f77b4"/>
     <use xlink:href="#ma9836fced0" x="78.630716" y="120.514163" style="fill: #1f77b4; stroke: #1f77b4"/>
     <use xlink:href="#ma9836fced0" x="155.465625" y="201.192746" style="fill: #1f77b4; stroke: #1f77b4"/>
    </g>
   </g>
   <g id="line2d_13">
    <defs>
     <path id="mdd2c2cf697" d="M 0 2.4 
C 0.636487 2.4 1.246992 2.147121 1.697056 1.697056 
C 2.147121 1.246992 2.4 0.636487 2.4 0 
C 2.4 -0.636487 2.147121 -1.246992 1.697056 -1.697056 
C 1.246992 -2.147121 0.636487 -2.4 0 -2.4 
C -0.636487 -2.4 -1.246992 -2.147121 -1.697056 -1.697056 
C -2.147121 -1.246992 -2.4 -0.636487 -2.4 0 
C -2.4 0.636487 -2.147121 1.246992 -1.697056 1.697056 
C -1.246992 2.147121 -0.636487 2.4 0 2.4 
z
" style="stroke: #ff7f0e"/>
    </defs>
    <g clip-path="url(#p32649dca55)">
     <use xlink:href="#mdd2c2cf697" x="195.506352" y="229.088785" style="fill: #ff7f0e; stroke: #ff7f0e"/>
     <use xlink:href="#mdd2c2cf697" x="180.355807" y="236.959866" style="fill: #ff7f0e; stroke: #ff7f0e"/>
     <use xlink:href="#mdd2c2cf697" x="151.136898" y="168.66666" style="fill: #ff7f0e; stroke: #ff7f0e"/>
     <use xlink:href="#mdd2c2cf697" x="257.190716" y="78.727981" style="fill: #ff7f0e; stroke: #ff7f0e"/>
     <use xlink:href="#mdd2c2cf697" x="205.245989" y="125.259962" style="fill: #ff7f0e; stroke: #ff7f0e"/>
     <use xlink:href="#mdd2c2cf697" x="247.45108" y="66.226852" style="fill: #ff7f0e; stroke: #ff7f0e"/>
     <use xlink:href="#mdd2c2cf697" x="119.753625" y="125.259962" style="fill: #ff7f0e; stroke: #ff7f0e"/>
     <use xlink:href="#mdd2c2cf697" x="201.999443" y="202.697512" style="fill: #ff7f0e; stroke: #ff7f0e"/>
     <use xlink:href="#mdd2c2cf697" x="207.410352" y="194.942182" style="fill: #ff7f0e; stroke: #ff7f0e"/>
     <use xlink:href="#mdd2c2cf697" x="199.83508" y="193.553167" style="fill: #ff7f0e; stroke: #ff7f0e"/>
     <use xlink:href="#mdd2c2cf697" x="256.108534" y="38.446565" style="fill: #ff7f0e; stroke: #ff7f0e"/>
     <use xlink:href="#mdd2c2cf697" x="86.205989" y="122.134679" style="fill: #ff7f0e; stroke: #ff7f0e"/>
     <use xlink:href="#mdd2c2cf697" x="108.931807" y="122.134679" style="fill: #ff7f0e; stroke: #ff7f0e"/>
     <use xlink:href="#mdd2c2cf697" x="203.081625" y="150.030718" style="fill: #ff7f0e; stroke: #ff7f0e"/>
     <use xlink:href="#mdd2c2cf697" x="143.561625" y="134.404306" style="fill: #ff7f0e; stroke: #ff7f0e"/>
     <use xlink:href="#mdd2c2cf697" x="304.806716" y="119.009397" style="fill: #ff7f0e; stroke: #ff7f0e"/>
     <use xlink:href="#mdd2c2cf697" x="174.944898" y="255.480057" style="fill: #ff7f0e; stroke: #ff7f0e"/>
     <use xlink:href="#mdd2c2cf697" x="260.437261" y="162.416096" style="fill: #ff7f0e; stroke: #ff7f0e"/>
     <use xlink:href="#mdd2c2cf697" x="328.614716" y="134.404306" style="fill: #ff7f0e; stroke: #ff7f0e"/>
     <use xlink:href="#mdd2c2cf697" x="159.794352" y="162.416096" style="fill: #ff7f0e; stroke: #ff7f0e"/>
     <use xlink:href="#mdd2c2cf697" x="227.971807" y="77.107464" style="fill: #ff7f0e; stroke: #ff7f0e"/>
     <use xlink:href="#mdd2c2cf697" x="197.670716" y="180.936287" style="fill: #ff7f0e; stroke: #ff7f0e"/>
     <use xlink:href="#mdd2c2cf697" x="190.095443" y="261.49912" style="fill: #ff7f0e; stroke: #ff7f0e"/>
     <use xlink:href="#mdd2c2cf697" x="170.61617" y="266.244919" style="fill: #ff7f0e; stroke: #ff7f0e"/>
     <use xlink:href="#mdd2c2cf697" x="81.877261" y="122.134679" style="fill: #ff7f0e; stroke: #ff7f0e"/>
     <use xlink:href="#mdd2c2cf697" x="100.274352" y="122.134679" style="fill: #ff7f0e; stroke: #ff7f0e"/>
     <use xlink:href="#mdd2c2cf697" x="154.383443" y="187.302603" style="fill: #ff7f0e; stroke: #ff7f0e"/>
     <use xlink:href="#mdd2c2cf697" x="277.75217" y="120.514163" style="fill: #ff7f0e; stroke: #ff7f0e"/>
     <use xlink:href="#mdd2c2cf697" x="219.314352" y="64.722086" style="fill: #ff7f0e; stroke: #ff7f0e"/>
     <use xlink:href="#mdd2c2cf697" x="252.861989" y="32.196" style="fill: #ff7f0e; stroke: #ff7f0e"/>
     <use xlink:href="#mdd2c2cf697" x="302.642352" y="120.514163" style="fill: #ff7f0e; stroke: #ff7f0e"/>
     <use xlink:href="#mdd2c2cf697" x="168.451807" y="261.49912" style="fill: #ff7f0e; stroke: #ff7f0e"/>
    </g>
   </g>
   <g id="line2d_14">
    <path d="M 64.562352 36.931973 
L 67.841691 47.257525 
L 71.12103 57.10545 
L 74.400369 66.484817 
L 77.679708 75.404693 
L 80.959046 83.874147 
L 84.238385 91.902249 
L 87.517724 99.498066 
L 90.797063 106.670666 
L 94.076402 113.429119 
L 97.355741 119.782492 
L 100.63508 125.739855 
L 103.914418 131.310276 
L 107.193757 136.502822 
L 110.473096 141.326564 
L 113.752435 145.790568 
L 117.031774 149.903904 
L 120.311113 153.67564 
L 123.590451 157.114845 
L 126.86979 160.230587 
L 130.149129 163.031934 
L 133.428468 165.527956 
L 136.707807 167.727719 
L 139.987146 169.640294 
L 143.266485 171.274749 
L 146.545823 172.640151 
L 149.825162 173.745569 
L 153.104501 174.600073 
L 156.38384 175.21273 
L 159.663179 175.592609 
L 162.942518 175.748778 
L 166.221856 175.690306 
L 169.501195 175.426261 
L 172.780534 174.965712 
L 176.059873 174.317727 
L 179.339212 173.491375 
L 182.618551 172.495725 
L 185.897889 171.339844 
L 189.177228 170.032801 
L 192.456567 168.583664 
L 195.735906 167.001503 
L 199.015245 165.295386 
L 202.294584 163.47438 
L 205.573923 161.547556 
L 208.853261 159.52398 
L 212.1326 157.412722 
L 215.411939 155.222849 
L 218.691278 152.963432 
L 221.970617 150.643537 
L 225.249956 148.272234 
L 228.529294 145.85859 
L 231.808633 143.411675 
L 235.087972 140.940557 
L 238.367311 138.454304 
L 241.64665 135.961985 
L 244.925989 133.472669 
L 248.205327 130.995423 
L 251.484666 128.539317 
L 254.764005 126.113418 
L 258.043344 123.726795 
L 261.322683 121.388518 
L 264.602022 119.107653 
L 267.881361 116.89327 
L 271.160699 114.754438 
L 274.440038 112.700224 
L 277.719377 110.739697 
L 280.998716 108.881925 
L 284.278055 107.135978 
L 287.557394 105.510924 
L 290.836732 104.01583 
L 294.116071 102.659766 
L 297.39541 101.4518 
L 300.674749 100.401 
L 303.954088 99.516435 
L 307.233427 98.807174 
L 310.512765 98.282285 
L 313.792104 97.950836 
L 317.071443 97.821896 
L 320.350782 97.904533 
L 323.630121 98.207817 
L 326.90946 98.740814 
L 330.188799 99.512594 
L 333.468137 100.532226 
L 336.747476 101.808777 
L 340.026815 103.351317 
L 343.306154 105.168913 
L 346.585493 107.270635 
L 349.864832 109.66555 
L 353.14417 112.362727 
L 356.423509 115.371235 
L 359.702848 118.700142 
L 362.982187 122.358517 
L 366.261526 126.355427 
L 369.540865 130.699943 
L 372.820204 135.401131 
L 376.099542 140.468061 
L 379.378881 145.909801 
L 382.65822 151.735419 
L 385.937559 157.953984 
L 389.216898 164.574565 
" clip-path="url(#p32649dca55)" style="fill: none; stroke-dasharray: 4.44,1.92; stroke-dashoffset: 0; stroke: #2ca02c; stroke-width: 1.2"/>
   </g>
   <g id="patch_3">
    <path d="M 48.329625 234.760593 
L 48.329625 61.133799 
" style="fill: none; stroke: #262626; stroke-linejoin: miter; stroke-linecap: square"/>
   </g>
   <g id="patch_4">
    <path d="M 64.562352 286.212 
L 389.216898 286.212 
" style="fill: none; stroke: #262626; stroke-linejoin: miter; stroke-linecap: square"/>
   </g>
   <g id="text_14">
    <!-- Polynomial degree 3 -->
    <g style="fill: #262626" transform="translate(183.132375 14.1) scale(0.096 -0.096)">
     <defs>
      <path id="ArialMT-50" d="M 494 0 
L 494 4581 
L 2222 4581 
Q 2678 4581 2919 4538 
Q 3256 4481 3484 4323 
Q 3713 4166 3852 3881 
Q 3991 3597 3991 3256 
Q 3991 2672 3619 2267 
Q 3247 1863 2275 1863 
L 1100 1863 
L 1100 0 
L 494 0 
z
M 1100 2403 
L 2284 2403 
Q 2872 2403 3119 2622 
Q 3366 2841 3366 3238 
Q 3366 3525 3220 3729 
Q 3075 3934 2838 4000 
Q 2684 4041 2272 4041 
L 1100 4041 
L 1100 2403 
z
" transform="scale(0.015625)"/>
      <path id="ArialMT-79" d="M 397 -1278 
L 334 -750 
Q 519 -800 656 -800 
Q 844 -800 956 -737 
Q 1069 -675 1141 -563 
Q 1194 -478 1313 -144 
Q 1328 -97 1363 -6 
L 103 3319 
L 709 3319 
L 1400 1397 
Q 1534 1031 1641 628 
Q 1738 1016 1872 1384 
L 2581 3319 
L 3144 3319 
L 1881 -56 
Q 1678 -603 1566 -809 
Q 1416 -1088 1222 -1217 
Q 1028 -1347 759 -1347 
Q 597 -1347 397 -1278 
z
" transform="scale(0.015625)"/>
      <path id="ArialMT-64" d="M 2575 0 
L 2575 419 
Q 2259 -75 1647 -75 
Q 1250 -75 917 144 
Q 584 363 401 755 
Q 219 1147 219 1656 
Q 219 2153 384 2558 
Q 550 2963 881 3178 
Q 1213 3394 1622 3394 
Q 1922 3394 2156 3267 
Q 2391 3141 2538 2938 
L 2538 4581 
L 3097 4581 
L 3097 0 
L 2575 0 
z
M 797 1656 
Q 797 1019 1065 703 
Q 1334 388 1700 388 
Q 2069 388 2326 689 
Q 2584 991 2584 1609 
Q 2584 2291 2321 2609 
Q 2059 2928 1675 2928 
Q 1300 2928 1048 2622 
Q 797 2316 797 1656 
z
" transform="scale(0.015625)"/>
     </defs>
     <use xlink:href="#ArialMT-50"/>
     <use xlink:href="#ArialMT-6f" x="66.699219"/>
     <use xlink:href="#ArialMT-6c" x="122.314453"/>
     <use xlink:href="#ArialMT-79" x="144.53125"/>
     <use xlink:href="#ArialMT-6e" x="194.53125"/>
     <use xlink:href="#ArialMT-6f" x="250.146484"/>
     <use xlink:href="#ArialMT-6d" x="305.761719"/>
     <use xlink:href="#ArialMT-69" x="389.0625"/>
     <use xlink:href="#ArialMT-61" x="411.279297"/>
     <use xlink:href="#ArialMT-6c" x="466.894531"/>
     <use xlink:href="#ArialMT-20" x="489.111328"/>
     <use xlink:href="#ArialMT-64" x="516.894531"/>
     <use xlink:href="#ArialMT-65" x="572.509766"/>
     <use xlink:href="#ArialMT-67" x="628.125"/>
     <use xlink:href="#ArialMT-72" x="683.740234"/>
     <use xlink:href="#ArialMT-65" x="717.041016"/>
     <use xlink:href="#ArialMT-65" x="772.65625"/>
     <use xlink:href="#ArialMT-20" x="828.271484"/>
     <use xlink:href="#ArialMT-33" x="856.054688"/>
    </g>
   </g>
   <g id="legend_1">
    <g id="line2d_15">
     <g>
      <use xlink:href="#ma9836fced0" x="330.65925" y="31.238875" style="fill: #1f77b4; stroke: #1f77b4"/>
     </g>
    </g>
    <g id="text_15">
     <!-- Training data -->
     <g style="fill: #262626" transform="translate(346.49925 34.318875) scale(0.088 -0.088)">
      <use xlink:href="#ArialMT-54"/>
      <use xlink:href="#ArialMT-72" x="57.333984"/>
      <use xlink:href="#ArialMT-61" x="90.634766"/>
      <use xlink:href="#ArialMT-69" x="146.25"/>
      <use xlink:href="#ArialMT-6e" x="168.466797"/>
      <use xlink:href="#ArialMT-69" x="224.082031"/>
      <use xlink:href="#ArialMT-6e" x="246.298828"/>
      <use xlink:href="#ArialMT-67" x="301.914062"/>
      <use xlink:href="#ArialMT-20" x="357.529297"/>
      <use xlink:href="#ArialMT-64" x="385.3125"/>
      <use xlink:href="#ArialMT-61" x="440.927734"/>
      <use xlink:href="#ArialMT-74" x="496.542969"/>
      <use xlink:href="#ArialMT-61" x="524.326172"/>
     </g>
    </g>
    <g id="line2d_16">
     <g>
      <use xlink:href="#mdd2c2cf697" x="330.65925" y="43.789875" style="fill: #ff7f0e; stroke: #ff7f0e"/>
     </g>
    </g>
    <g id="text_16">
     <!-- Test data -->
     <g style="fill: #262626" transform="translate(346.49925 46.869875) scale(0.088 -0.088)">
      <use xlink:href="#ArialMT-54"/>
      <use xlink:href="#ArialMT-65" x="49.958984"/>
      <use xlink:href="#ArialMT-73" x="105.574219"/>
      <use xlink:href="#ArialMT-74" x="155.574219"/>
      <use xlink:href="#ArialMT-20" x="183.357422"/>
      <use xlink:href="#ArialMT-64" x="211.140625"/>
      <use xlink:href="#ArialMT-61" x="266.755859"/>
      <use xlink:href="#ArialMT-74" x="322.371094"/>
      <use xlink:href="#ArialMT-61" x="350.154297"/>
     </g>
    </g>
    <g id="line2d_17">
     <path d="M 321.85925 56.23775 
L 330.65925 56.23775 
L 339.45925 56.23775 
" style="fill: none; stroke-dasharray: 4.44,1.92; stroke-dashoffset: 0; stroke: #2ca02c; stroke-width: 1.2"/>
    </g>
    <g id="text_17">
     <!-- Prediction -->
     <g style="fill: #262626" transform="translate(346.49925 59.31775) scale(0.088 -0.088)">
      <use xlink:href="#ArialMT-50"/>
      <use xlink:href="#ArialMT-72" x="66.699219"/>
      <use xlink:href="#ArialMT-65" x="100"/>
      <use xlink:href="#ArialMT-64" x="155.615234"/>
      <use xlink:href="#ArialMT-69" x="211.230469"/>
      <use xlink:href="#ArialMT-63" x="233.447266"/>
      <use xlink:href="#ArialMT-74" x="283.447266"/>
      <use xlink:href="#ArialMT-69" x="311.230469"/>
      <use xlink:href="#ArialMT-6f" x="333.447266"/>
      <use xlink:href="#ArialMT-6e" x="389.0625"/>
     </g>
    </g>
   </g>
  </g>
 </g>
 <defs>
  <clipPath id="p32649dca55">
   <rect x="48.329625" y="20.1" width="357.12" height="266.112"/>
  </clipPath>
 </defs>
</svg>