<?xml version="1.0" encoding="utf-8" standalone="no"?>
<!DOCTYPE svg PUBLIC "-//W3C//DTD SVG 1.1//EN"
  "http://www.w3.org/Graphics/SVG/1.1/DTD/svg11.dtd">
<svg xmlns:xlink="http://www.w3.org/1999/xlink" width="409.725125pt" height="309.868875pt" viewBox="0 0 409.725125 309.868875" xmlns="http://www.w3.org/2000/svg" version="1.1">
 <metadata>
  <rdf:RDF xmlns:dc="http://purl.org/dc/elements/1.1/" xmlns:cc="http://creativecommons.org/ns#" xmlns:rdf="http://www.w3.org/1999/02/22-rdf-syntax-ns#">
   <cc:Work>
    <dc:type rdf:resource="http://purl.org/dc/dcmitype/StillImage"/>
    <dc:date>2023-10-25T12:26:47.728267</dc:date>
    <dc:format>image/svg+xml</dc:format>
    <dc:creator>
     <cc:Agent>
      <dc:title>Matplotlib v3.8.0, https://matplotlib.org/</dc:title>
     </cc:Agent>
    </dc:creator>
   </cc:Work>
  </rdf:RDF>
 </metadata>
 <defs>
  <style type="text/css">*{stroke-linejoin: round; stroke-linecap: butt}</style>
 </defs>
 <g id="figure_1">
  <g id="patch_1">
   <path d="M 0 309.868875 
L 409.725125 309.868875 
L 409.725125 0 
L 0 0 
z
" style="fill: #ffffff"/>
  </g>
  <g id="axes_1">
   <g id="patch_2">
    <path d="M 45.405125 273.312 
L 402.525125 273.312 
L 402.525125 7.2 
L 45.405125 7.2 
z
" style="fill: #ffffff"/>
   </g>
   <g id="matplotlib.axis_1">
    <g id="xtick_1">
     <g id="line2d_1">
      <defs>
       <path id="m8ddc5c30e5" d="M 0 0 
L 0 4.8 
" style="stroke: #262626"/>
      </defs>
      <g>
       <use xlink:href="#m8ddc5c30e5" x="61.637852" y="273.312" style="fill: #262626; stroke: #262626"/>
      </g>
     </g>
     <g id="text_1">
      <!-- 0 -->
      <g style="fill: #262626" transform="translate(59.19104 287.910875) scale(0.088 -0.088)">
       <defs>
        <path id="ArialMT-30" d="M 266 2259 
Q 266 3072 433 3567 
Q 600 4063 929 4331 
Q 1259 4600 1759 4600 
Q 2128 4600 2406 4451 
Q 2684 4303 2865 4023 
Q 3047 3744 3150 3342 
Q 3253 2941 3253 2259 
Q 3253 1453 3087 958 
Q 2922 463 2592 192 
Q 2263 -78 1759 -78 
Q 1097 -78 719 397 
Q 266 969 266 2259 
z
M 844 2259 
Q 844 1131 1108 757 
Q 1372 384 1759 384 
Q 2147 384 2411 759 
Q 2675 1134 2675 2259 
Q 2675 3391 2411 3762 
Q 2147 4134 1753 4134 
Q 1366 4134 1134 3806 
Q 844 3388 844 2259 
z
" transform="scale(0.015625)"/>
       </defs>
       <use xlink:href="#ArialMT-30"/>
      </g>
     </g>
    </g>
    <g id="xtick_2">
     <g id="line2d_2">
      <g>
       <use xlink:href="#m8ddc5c30e5" x="126.633757" y="273.312" style="fill: #262626; stroke: #262626"/>
      </g>
     </g>
     <g id="text_2">
      <!-- 200 -->
      <g style="fill: #262626" transform="translate(119.29332 287.910875) scale(0.088 -0.088)">
       <defs>
        <path id="ArialMT-32" d="M 3222 541 
L 3222 0 
L 194 0 
Q 188 203 259 391 
Q 375 700 629 1000 
Q 884 1300 1366 1694 
Q 2113 2306 2375 2664 
Q 2638 3022 2638 3341 
Q 2638 3675 2398 3904 
Q 2159 4134 1775 4134 
Q 1369 4134 1125 3890 
Q 881 3647 878 3216 
L 300 3275 
Q 359 3922 746 4261 
Q 1134 4600 1788 4600 
Q 2447 4600 2831 4234 
Q 3216 3869 3216 3328 
Q 3216 3053 3103 2787 
Q 2991 2522 2730 2228 
Q 2469 1934 1863 1422 
Q 1356 997 1212 845 
Q 1069 694 975 541 
L 3222 541 
z
" transform="scale(0.015625)"/>
       </defs>
       <use xlink:href="#ArialMT-32"/>
       <use xlink:href="#ArialMT-30" x="55.615234"/>
       <use xlink:href="#ArialMT-30" x="111.230469"/>
      </g>
     </g>
    </g>
    <g id="xtick_3">
     <g id="line2d_3">
      <g>
       <use xlink:href="#m8ddc5c30e5" x="191.629662" y="273.312" style="fill: #262626; stroke: #262626"/>
      </g>
     </g>
     <g id="text_3">
      <!-- 400 -->
      <g style="fill: #262626" transform="translate(184.289225 287.910875) scale(0.088 -0.088)">
       <defs>
        <path id="ArialMT-34" d="M 2069 0 
L 2069 1097 
L 81 1097 
L 81 1613 
L 2172 4581 
L 2631 4581 
L 2631 1613 
L 3250 1613 
L 3250 1097 
L 2631 1097 
L 2631 0 
L 2069 0 
z
M 2069 1613 
L 2069 3678 
L 634 1613 
L 2069 1613 
z
" transform="scale(0.015625)"/>
       </defs>
       <use xlink:href="#ArialMT-34"/>
       <use xlink:href="#ArialMT-30" x="55.615234"/>
       <use xlink:href="#ArialMT-30" x="111.230469"/>
      </g>
     </g>
    </g>
    <g id="xtick_4">
     <g id="line2d_4">
      <g>
       <use xlink:href="#m8ddc5c30e5" x="256.625567" y="273.312" style="fill: #262626; stroke: #262626"/>
      </g>
     </g>
     <g id="text_4">
      <!-- 600 -->
      <g style="fill: #262626" transform="translate(249.28513 287.910875) scale(0.088 -0.088)">
       <defs>
        <path id="ArialMT-36" d="M 3184 3459 
L 2625 3416 
Q 2550 3747 2413 3897 
Q 2184 4138 1850 4138 
Q 1581 4138 1378 3988 
Q 1113 3794 959 3422 
Q 806 3050 800 2363 
Q 1003 2672 1297 2822 
Q 1591 2972 1913 2972 
Q 2475 2972 2870 2558 
Q 3266 2144 3266 1488 
Q 3266 1056 3080 686 
Q 2894 316 2569 119 
Q 2244 -78 1831 -78 
Q 1128 -78 684 439 
Q 241 956 241 2144 
Q 241 3472 731 4075 
Q 1159 4600 1884 4600 
Q 2425 4600 2770 4297 
Q 3116 3994 3184 3459 
z
M 888 1484 
Q 888 1194 1011 928 
Q 1134 663 1356 523 
Q 1578 384 1822 384 
Q 2178 384 2434 671 
Q 2691 959 2691 1453 
Q 2691 1928 2437 2201 
Q 2184 2475 1800 2475 
Q 1419 2475 1153 2201 
Q 888 1928 888 1484 
z
" transform="scale(0.015625)"/>
       </defs>
       <use xlink:href="#ArialMT-36"/>
       <use xlink:href="#ArialMT-30" x="55.615234"/>
       <use xlink:href="#ArialMT-30" x="111.230469"/>
      </g>
     </g>
    </g>
    <g id="xtick_5">
     <g id="line2d_5">
      <g>
       <use xlink:href="#m8ddc5c30e5" x="321.621472" y="273.312" style="fill: #262626; stroke: #262626"/>
      </g>
     </g>
     <g id="text_5">
      <!-- 800 -->
      <g style="fill: #262626" transform="translate(314.281035 287.910875) scale(0.088 -0.088)">
       <defs>
        <path id="ArialMT-38" d="M 1131 2484 
Q 781 2613 612 2850 
Q 444 3088 444 3419 
Q 444 3919 803 4259 
Q 1163 4600 1759 4600 
Q 2359 4600 2725 4251 
Q 3091 3903 3091 3403 
Q 3091 3084 2923 2848 
Q 2756 2613 2416 2484 
Q 2838 2347 3058 2040 
Q 3278 1734 3278 1309 
Q 3278 722 2862 322 
Q 2447 -78 1769 -78 
Q 1091 -78 675 323 
Q 259 725 259 1325 
Q 259 1772 486 2073 
Q 713 2375 1131 2484 
z
M 1019 3438 
Q 1019 3113 1228 2906 
Q 1438 2700 1772 2700 
Q 2097 2700 2305 2904 
Q 2513 3109 2513 3406 
Q 2513 3716 2298 3927 
Q 2084 4138 1766 4138 
Q 1444 4138 1231 3931 
Q 1019 3725 1019 3438 
z
M 838 1322 
Q 838 1081 952 856 
Q 1066 631 1291 507 
Q 1516 384 1775 384 
Q 2178 384 2440 643 
Q 2703 903 2703 1303 
Q 2703 1709 2433 1975 
Q 2163 2241 1756 2241 
Q 1359 2241 1098 1978 
Q 838 1716 838 1322 
z
" transform="scale(0.015625)"/>
       </defs>
       <use xlink:href="#ArialMT-38"/>
       <use xlink:href="#ArialMT-30" x="55.615234"/>
       <use xlink:href="#ArialMT-30" x="111.230469"/>
      </g>
     </g>
    </g>
    <g id="xtick_6">
     <g id="line2d_6">
      <g>
       <use xlink:href="#m8ddc5c30e5" x="386.617377" y="273.312" style="fill: #262626; stroke: #262626"/>
      </g>
     </g>
     <g id="text_6">
      <!-- 1000 -->
      <g style="fill: #262626" transform="translate(376.830127 287.910875) scale(0.088 -0.088)">
       <defs>
        <path id="ArialMT-31" d="M 2384 0 
L 1822 0 
L 1822 3584 
Q 1619 3391 1289 3197 
Q 959 3003 697 2906 
L 697 3450 
Q 1169 3672 1522 3987 
Q 1875 4303 2022 4600 
L 2384 4600 
L 2384 0 
z
" transform="scale(0.015625)"/>
       </defs>
       <use xlink:href="#ArialMT-31"/>
       <use xlink:href="#ArialMT-30" x="55.615234"/>
       <use xlink:href="#ArialMT-30" x="111.230469"/>
       <use xlink:href="#ArialMT-30" x="166.845703"/>
      </g>
     </g>
    </g>
    <g id="text_7">
     <!-- Sampling iteration -->
     <g style="fill: #262626" transform="translate(185.546375 300.648375) scale(0.096 -0.096)">
      <defs>
       <path id="ArialMT-53" d="M 288 1472 
L 859 1522 
Q 900 1178 1048 958 
Q 1197 738 1509 602 
Q 1822 466 2213 466 
Q 2559 466 2825 569 
Q 3091 672 3220 851 
Q 3350 1031 3350 1244 
Q 3350 1459 3225 1620 
Q 3100 1781 2813 1891 
Q 2628 1963 1997 2114 
Q 1366 2266 1113 2400 
Q 784 2572 623 2826 
Q 463 3081 463 3397 
Q 463 3744 659 4045 
Q 856 4347 1234 4503 
Q 1613 4659 2075 4659 
Q 2584 4659 2973 4495 
Q 3363 4331 3572 4012 
Q 3781 3694 3797 3291 
L 3216 3247 
Q 3169 3681 2898 3903 
Q 2628 4125 2100 4125 
Q 1550 4125 1298 3923 
Q 1047 3722 1047 3438 
Q 1047 3191 1225 3031 
Q 1400 2872 2139 2705 
Q 2878 2538 3153 2413 
Q 3553 2228 3743 1945 
Q 3934 1663 3934 1294 
Q 3934 928 3725 604 
Q 3516 281 3123 101 
Q 2731 -78 2241 -78 
Q 1619 -78 1198 103 
Q 778 284 539 648 
Q 300 1013 288 1472 
z
" transform="scale(0.015625)"/>
       <path id="ArialMT-61" d="M 2588 409 
Q 2275 144 1986 34 
Q 1697 -75 1366 -75 
Q 819 -75 525 192 
Q 231 459 231 875 
Q 231 1119 342 1320 
Q 453 1522 633 1644 
Q 813 1766 1038 1828 
Q 1203 1872 1538 1913 
Q 2219 1994 2541 2106 
Q 2544 2222 2544 2253 
Q 2544 2597 2384 2738 
Q 2169 2928 1744 2928 
Q 1347 2928 1158 2789 
Q 969 2650 878 2297 
L 328 2372 
Q 403 2725 575 2942 
Q 747 3159 1072 3276 
Q 1397 3394 1825 3394 
Q 2250 3394 2515 3294 
Q 2781 3194 2906 3042 
Q 3031 2891 3081 2659 
Q 3109 2516 3109 2141 
L 3109 1391 
Q 3109 606 3145 398 
Q 3181 191 3288 0 
L 2700 0 
Q 2613 175 2588 409 
z
M 2541 1666 
Q 2234 1541 1622 1453 
Q 1275 1403 1131 1340 
Q 988 1278 909 1158 
Q 831 1038 831 891 
Q 831 666 1001 516 
Q 1172 366 1500 366 
Q 1825 366 2078 508 
Q 2331 650 2450 897 
Q 2541 1088 2541 1459 
L 2541 1666 
z
" transform="scale(0.015625)"/>
       <path id="ArialMT-6d" d="M 422 0 
L 422 3319 
L 925 3319 
L 925 2853 
Q 1081 3097 1340 3245 
Q 1600 3394 1931 3394 
Q 2300 3394 2536 3241 
Q 2772 3088 2869 2813 
Q 3263 3394 3894 3394 
Q 4388 3394 4653 3120 
Q 4919 2847 4919 2278 
L 4919 0 
L 4359 0 
L 4359 2091 
Q 4359 2428 4304 2576 
Q 4250 2725 4106 2815 
Q 3963 2906 3769 2906 
Q 3419 2906 3187 2673 
Q 2956 2441 2956 1928 
L 2956 0 
L 2394 0 
L 2394 2156 
Q 2394 2531 2256 2718 
Q 2119 2906 1806 2906 
Q 1569 2906 1367 2781 
Q 1166 2656 1075 2415 
Q 984 2175 984 1722 
L 984 0 
L 422 0 
z
" transform="scale(0.015625)"/>
       <path id="ArialMT-70" d="M 422 -1272 
L 422 3319 
L 934 3319 
L 934 2888 
Q 1116 3141 1344 3267 
Q 1572 3394 1897 3394 
Q 2322 3394 2647 3175 
Q 2972 2956 3137 2557 
Q 3303 2159 3303 1684 
Q 3303 1175 3120 767 
Q 2938 359 2589 142 
Q 2241 -75 1856 -75 
Q 1575 -75 1351 44 
Q 1128 163 984 344 
L 984 -1272 
L 422 -1272 
z
M 931 1641 
Q 931 1000 1190 694 
Q 1450 388 1819 388 
Q 2194 388 2461 705 
Q 2728 1022 2728 1688 
Q 2728 2322 2467 2637 
Q 2206 2953 1844 2953 
Q 1484 2953 1207 2617 
Q 931 2281 931 1641 
z
" transform="scale(0.015625)"/>
       <path id="ArialMT-6c" d="M 409 0 
L 409 4581 
L 972 4581 
L 972 0 
L 409 0 
z
" transform="scale(0.015625)"/>
       <path id="ArialMT-69" d="M 425 3934 
L 425 4581 
L 988 4581 
L 988 3934 
L 425 3934 
z
M 425 0 
L 425 3319 
L 988 3319 
L 988 0 
L 425 0 
z
" transform="scale(0.015625)"/>
       <path id="ArialMT-6e" d="M 422 0 
L 422 3319 
L 928 3319 
L 928 2847 
Q 1294 3394 1984 3394 
Q 2284 3394 2536 3286 
Q 2788 3178 2913 3003 
Q 3038 2828 3088 2588 
Q 3119 2431 3119 2041 
L 3119 0 
L 2556 0 
L 2556 2019 
Q 2556 2363 2490 2533 
Q 2425 2703 2258 2804 
Q 2091 2906 1866 2906 
Q 1506 2906 1245 2678 
Q 984 2450 984 1813 
L 984 0 
L 422 0 
z
" transform="scale(0.015625)"/>
       <path id="ArialMT-67" d="M 319 -275 
L 866 -356 
Q 900 -609 1056 -725 
Q 1266 -881 1628 -881 
Q 2019 -881 2231 -725 
Q 2444 -569 2519 -288 
Q 2563 -116 2559 434 
Q 2191 0 1641 0 
Q 956 0 581 494 
Q 206 988 206 1678 
Q 206 2153 378 2554 
Q 550 2956 876 3175 
Q 1203 3394 1644 3394 
Q 2231 3394 2613 2919 
L 2613 3319 
L 3131 3319 
L 3131 450 
Q 3131 -325 2973 -648 
Q 2816 -972 2473 -1159 
Q 2131 -1347 1631 -1347 
Q 1038 -1347 672 -1080 
Q 306 -813 319 -275 
z
M 784 1719 
Q 784 1066 1043 766 
Q 1303 466 1694 466 
Q 2081 466 2343 764 
Q 2606 1063 2606 1700 
Q 2606 2309 2336 2618 
Q 2066 2928 1684 2928 
Q 1309 2928 1046 2623 
Q 784 2319 784 1719 
z
" transform="scale(0.015625)"/>
       <path id="ArialMT-20" transform="scale(0.015625)"/>
       <path id="ArialMT-74" d="M 1650 503 
L 1731 6 
Q 1494 -44 1306 -44 
Q 1000 -44 831 53 
Q 663 150 594 308 
Q 525 466 525 972 
L 525 2881 
L 113 2881 
L 113 3319 
L 525 3319 
L 525 4141 
L 1084 4478 
L 1084 3319 
L 1650 3319 
L 1650 2881 
L 1084 2881 
L 1084 941 
Q 1084 700 1114 631 
Q 1144 563 1211 522 
Q 1278 481 1403 481 
Q 1497 481 1650 503 
z
" transform="scale(0.015625)"/>
       <path id="ArialMT-65" d="M 2694 1069 
L 3275 997 
Q 3138 488 2766 206 
Q 2394 -75 1816 -75 
Q 1088 -75 661 373 
Q 234 822 234 1631 
Q 234 2469 665 2931 
Q 1097 3394 1784 3394 
Q 2450 3394 2872 2941 
Q 3294 2488 3294 1666 
Q 3294 1616 3291 1516 
L 816 1516 
Q 847 969 1125 678 
Q 1403 388 1819 388 
Q 2128 388 2347 550 
Q 2566 713 2694 1069 
z
M 847 1978 
L 2700 1978 
Q 2663 2397 2488 2606 
Q 2219 2931 1791 2931 
Q 1403 2931 1139 2672 
Q 875 2413 847 1978 
z
" transform="scale(0.015625)"/>
       <path id="ArialMT-72" d="M 416 0 
L 416 3319 
L 922 3319 
L 922 2816 
Q 1116 3169 1280 3281 
Q 1444 3394 1641 3394 
Q 1925 3394 2219 3213 
L 2025 2691 
Q 1819 2813 1613 2813 
Q 1428 2813 1281 2702 
Q 1134 2591 1072 2394 
Q 978 2094 978 1738 
L 978 0 
L 416 0 
z
" transform="scale(0.015625)"/>
       <path id="ArialMT-6f" d="M 213 1659 
Q 213 2581 725 3025 
Q 1153 3394 1769 3394 
Q 2453 3394 2887 2945 
Q 3322 2497 3322 1706 
Q 3322 1066 3130 698 
Q 2938 331 2570 128 
Q 2203 -75 1769 -75 
Q 1072 -75 642 372 
Q 213 819 213 1659 
z
M 791 1659 
Q 791 1022 1069 705 
Q 1347 388 1769 388 
Q 2188 388 2466 706 
Q 2744 1025 2744 1678 
Q 2744 2294 2464 2611 
Q 2184 2928 1769 2928 
Q 1347 2928 1069 2612 
Q 791 2297 791 1659 
z
" transform="scale(0.015625)"/>
      </defs>
      <use xlink:href="#ArialMT-53"/>
      <use xlink:href="#ArialMT-61" x="66.699219"/>
      <use xlink:href="#ArialMT-6d" x="122.314453"/>
      <use xlink:href="#ArialMT-70" x="205.615234"/>
      <use xlink:href="#ArialMT-6c" x="261.230469"/>
      <use xlink:href="#ArialMT-69" x="283.447266"/>
      <use xlink:href="#ArialMT-6e" x="305.664062"/>
      <use xlink:href="#ArialMT-67" x="361.279297"/>
      <use xlink:href="#ArialMT-20" x="416.894531"/>
      <use xlink:href="#ArialMT-69" x="444.677734"/>
      <use xlink:href="#ArialMT-74" x="466.894531"/>
      <use xlink:href="#ArialMT-65" x="494.677734"/>
      <use xlink:href="#ArialMT-72" x="550.292969"/>
      <use xlink:href="#ArialMT-61" x="583.59375"/>
      <use xlink:href="#ArialMT-74" x="639.208984"/>
      <use xlink:href="#ArialMT-69" x="666.992188"/>
      <use xlink:href="#ArialMT-6f" x="689.208984"/>
      <use xlink:href="#ArialMT-6e" x="744.824219"/>
     </g>
    </g>
   </g>
   <g id="matplotlib.axis_2">
    <g id="ytick_1">
     <g id="line2d_7">
      <defs>
       <path id="me09512732e" d="M 0 0 
L -4.8 0 
" style="stroke: #262626"/>
      </defs>
      <g>
       <use xlink:href="#me09512732e" x="45.405125" y="240.269382" style="fill: #262626; stroke: #262626"/>
      </g>
     </g>
     <g id="text_8">
      <!-- 0.35 -->
      <g style="fill: #262626" transform="translate(19.9795 243.418819) scale(0.088 -0.088)">
       <defs>
        <path id="ArialMT-2e" d="M 581 0 
L 581 641 
L 1222 641 
L 1222 0 
L 581 0 
z
" transform="scale(0.015625)"/>
        <path id="ArialMT-33" d="M 269 1209 
L 831 1284 
Q 928 806 1161 595 
Q 1394 384 1728 384 
Q 2125 384 2398 659 
Q 2672 934 2672 1341 
Q 2672 1728 2419 1979 
Q 2166 2231 1775 2231 
Q 1616 2231 1378 2169 
L 1441 2663 
Q 1497 2656 1531 2656 
Q 1891 2656 2178 2843 
Q 2466 3031 2466 3422 
Q 2466 3731 2256 3934 
Q 2047 4138 1716 4138 
Q 1388 4138 1169 3931 
Q 950 3725 888 3313 
L 325 3413 
Q 428 3978 793 4289 
Q 1159 4600 1703 4600 
Q 2078 4600 2393 4439 
Q 2709 4278 2876 4000 
Q 3044 3722 3044 3409 
Q 3044 3113 2884 2869 
Q 2725 2625 2413 2481 
Q 2819 2388 3044 2092 
Q 3269 1797 3269 1353 
Q 3269 753 2831 336 
Q 2394 -81 1725 -81 
Q 1122 -81 723 278 
Q 325 638 269 1209 
z
" transform="scale(0.015625)"/>
        <path id="ArialMT-35" d="M 266 1200 
L 856 1250 
Q 922 819 1161 601 
Q 1400 384 1738 384 
Q 2144 384 2425 690 
Q 2706 997 2706 1503 
Q 2706 1984 2436 2262 
Q 2166 2541 1728 2541 
Q 1456 2541 1237 2417 
Q 1019 2294 894 2097 
L 366 2166 
L 809 4519 
L 3088 4519 
L 3088 3981 
L 1259 3981 
L 1013 2750 
Q 1425 3038 1878 3038 
Q 2478 3038 2890 2622 
Q 3303 2206 3303 1553 
Q 3303 931 2941 478 
Q 2500 -78 1738 -78 
Q 1113 -78 717 272 
Q 322 622 266 1200 
z
" transform="scale(0.015625)"/>
       </defs>
       <use xlink:href="#ArialMT-30"/>
       <use xlink:href="#ArialMT-2e" x="55.615234"/>
       <use xlink:href="#ArialMT-33" x="83.398438"/>
       <use xlink:href="#ArialMT-35" x="139.013672"/>
      </g>
     </g>
    </g>
    <g id="ytick_2">
     <g id="line2d_8">
      <g>
       <use xlink:href="#me09512732e" x="45.405125" y="202.446231" style="fill: #262626; stroke: #262626"/>
      </g>
     </g>
     <g id="text_9">
      <!-- 0.40 -->
      <g style="fill: #262626" transform="translate(19.9795 205.595668) scale(0.088 -0.088)">
       <use xlink:href="#ArialMT-30"/>
       <use xlink:href="#ArialMT-2e" x="55.615234"/>
       <use xlink:href="#ArialMT-34" x="83.398438"/>
       <use xlink:href="#ArialMT-30" x="139.013672"/>
      </g>
     </g>
    </g>
    <g id="ytick_3">
     <g id="line2d_9">
      <g>
       <use xlink:href="#me09512732e" x="45.405125" y="164.623079" style="fill: #262626; stroke: #262626"/>
      </g>
     </g>
     <g id="text_10">
      <!-- 0.45 -->
      <g style="fill: #262626" transform="translate(19.9795 167.772517) scale(0.088 -0.088)">
       <use xlink:href="#ArialMT-30"/>
       <use xlink:href="#ArialMT-2e" x="55.615234"/>
       <use xlink:href="#ArialMT-34" x="83.398438"/>
       <use xlink:href="#ArialMT-35" x="139.013672"/>
      </g>
     </g>
    </g>
    <g id="ytick_4">
     <g id="line2d_10">
      <g>
       <use xlink:href="#me09512732e" x="45.405125" y="126.799928" style="fill: #262626; stroke: #262626"/>
      </g>
     </g>
     <g id="text_11">
      <!-- 0.50 -->
      <g style="fill: #262626" transform="translate(19.9795 129.949366) scale(0.088 -0.088)">
       <use xlink:href="#ArialMT-30"/>
       <use xlink:href="#ArialMT-2e" x="55.615234"/>
       <use xlink:href="#ArialMT-35" x="83.398438"/>
       <use xlink:href="#ArialMT-30" x="139.013672"/>
      </g>
     </g>
    </g>
    <g id="ytick_5">
     <g id="line2d_11">
      <g>
       <use xlink:href="#me09512732e" x="45.405125" y="88.976777" style="fill: #262626; stroke: #262626"/>
      </g>
     </g>
     <g id="text_12">
      <!-- 0.55 -->
      <g style="fill: #262626" transform="translate(19.9795 92.126215) scale(0.088 -0.088)">
       <use xlink:href="#ArialMT-30"/>
       <use xlink:href="#ArialMT-2e" x="55.615234"/>
       <use xlink:href="#ArialMT-35" x="83.398438"/>
       <use xlink:href="#ArialMT-35" x="139.013672"/>
      </g>
     </g>
    </g>
    <g id="ytick_6">
     <g id="line2d_12">
      <g>
       <use xlink:href="#me09512732e" x="45.405125" y="51.153626" style="fill: #262626; stroke: #262626"/>
      </g>
     </g>
     <g id="text_13">
      <!-- 0.60 -->
      <g style="fill: #262626" transform="translate(19.9795 54.303064) scale(0.088 -0.088)">
       <use xlink:href="#ArialMT-30"/>
       <use xlink:href="#ArialMT-2e" x="55.615234"/>
       <use xlink:href="#ArialMT-36" x="83.398438"/>
       <use xlink:href="#ArialMT-30" x="139.013672"/>
      </g>
     </g>
    </g>
    <g id="ytick_7">
     <g id="line2d_13">
      <g>
       <use xlink:href="#me09512732e" x="45.405125" y="13.330475" style="fill: #262626; stroke: #262626"/>
      </g>
     </g>
     <g id="text_14">
      <!-- 0.65 -->
      <g style="fill: #262626" transform="translate(19.9795 16.479913) scale(0.088 -0.088)">
       <use xlink:href="#ArialMT-30"/>
       <use xlink:href="#ArialMT-2e" x="55.615234"/>
       <use xlink:href="#ArialMT-36" x="83.398438"/>
       <use xlink:href="#ArialMT-35" x="139.013672"/>
      </g>
     </g>
    </g>
    <g id="text_15">
     <!-- $\theta$ -->
     <g style="fill: #262626" transform="translate(14.0715 143.232) rotate(-90) scale(0.096 -0.096)">
      <defs>
       <path id="DejaVuSans-Oblique-3b8" d="M 2913 2219 
L 925 2219 
Q 791 1284 928 888 
Q 1100 400 1566 400 
Q 2034 400 2391 891 
Q 2703 1322 2913 2219 
z
M 3009 2750 
Q 3094 3638 2984 3950 
Q 2813 4444 2353 4444 
Q 1875 4444 1525 3956 
Q 1250 3563 1034 2750 
L 3009 2750 
z
M 2444 4913 
Q 3194 4913 3494 4250 
Q 3794 3591 3566 2422 
Q 3341 1256 2781 594 
Q 2225 -72 1475 -72 
Q 722 -72 425 594 
Q 128 1256 353 2422 
Q 581 3591 1134 4250 
Q 1691 4913 2444 4913 
z
" transform="scale(0.015625)"/>
      </defs>
      <use xlink:href="#DejaVuSans-Oblique-3b8" transform="translate(0 0.234375)"/>
     </g>
    </g>
   </g>
   <g id="line2d_14">
    <path d="M 61.637852 125.403802 
L 61.962832 77.224982 
L 62.287811 116.796322 
L 62.612791 100.742442 
L 63.26275 165.112955 
L 63.587729 227.270942 
L 63.912709 205.205227 
L 64.237688 191.155404 
L 64.562668 115.962857 
L 64.887648 146.677083 
L 65.212627 156.299172 
L 65.537607 104.360811 
L 65.862586 142.086354 
L 66.187566 121.008148 
L 66.512545 141.610555 
L 66.837525 143.626854 
L 67.162504 144.459936 
L 67.487484 102.999492 
L 67.812463 152.772175 
L 68.137443 152.566187 
L 68.787402 87.608777 
L 69.112381 154.287088 
L 69.437361 114.067824 
L 69.76234 160.540509 
L 70.08732 133.766359 
L 70.412299 140.081597 
L 70.737279 126.242091 
L 71.062258 130.233411 
L 71.387238 123.356729 
L 71.712218 127.796817 
L 72.037197 121.221373 
L 72.362177 209.548802 
L 72.687156 188.832299 
L 73.012136 65.013562 
L 73.662095 95.24996 
L 73.987074 106.78257 
L 74.312054 157.034163 
L 74.637033 124.430291 
L 75.286992 103.740615 
L 75.611972 148.606384 
L 75.936951 94.052044 
L 76.261931 94.052044 
L 76.58691 131.599351 
L 76.91189 149.583276 
L 77.561849 61.419947 
L 78.211808 179.210323 
L 78.536788 173.280797 
L 78.861767 154.579894 
L 79.186747 146.989751 
L 79.511726 101.652828 
L 79.836706 106.112146 
L 80.161685 100.44684 
L 80.486665 63.683986 
L 80.811644 104.610602 
L 81.136624 98.681527 
L 81.461603 155.164311 
L 81.786583 149.903225 
L 82.111562 117.011395 
L 82.436542 119.372014 
L 83.086501 136.460207 
L 83.73646 98.94507 
L 84.061439 126.26716 
L 84.386419 126.137936 
L 84.711399 163.739012 
L 85.036378 76.638874 
L 85.361358 129.574394 
L 85.686337 55.253164 
L 86.011317 55.253164 
L 86.336296 76.970952 
L 86.661276 74.582649 
L 86.986255 155.391784 
L 87.311235 189.727017 
L 87.636214 189.727017 
L 87.961194 204.009745 
L 88.286173 175.475445 
L 88.611153 175.475445 
L 88.936132 163.83877 
L 89.261112 101.22444 
L 89.586091 89.627669 
L 90.23605 169.560843 
L 90.56103 196.163565 
L 90.88601 118.512939 
L 91.210989 132.505003 
L 91.535969 65.206136 
L 91.860948 76.007317 
L 92.185928 244.650927 
L 92.510907 122.990293 
L 93.160866 154.873286 
L 93.485846 149.112415 
L 93.810825 149.378528 
L 94.135805 82.103716 
L 94.460784 79.737055 
L 95.110743 66.230551 
L 95.435723 159.848577 
L 95.760702 156.000572 
L 96.085682 171.421835 
L 96.410661 129.781442 
L 96.735641 124.695999 
L 97.06062 138.799815 
L 97.71058 115.907443 
L 98.035559 129.56452 
L 98.360539 180.189019 
L 98.685518 190.962222 
L 99.010498 62.754347 
L 99.335477 78.029184 
L 99.660457 87.66631 
L 99.985436 61.349698 
L 100.310416 76.46659 
L 100.635395 120.121569 
L 100.960375 106.000957 
L 101.285354 138.283865 
L 101.610334 142.912875 
L 101.935313 107.283235 
L 102.260293 89.993113 
L 102.585272 102.335877 
L 102.910252 133.738991 
L 103.235231 107.648364 
L 103.560211 138.101075 
L 103.885191 112.367934 
L 104.21017 144.610916 
L 104.860129 91.491185 
L 105.185109 80.934566 
L 105.510088 84.448509 
L 105.835068 173.455155 
L 106.160047 207.885998 
L 106.485027 200.204167 
L 106.810006 125.482797 
L 107.134986 142.787956 
L 107.459965 83.96101 
L 107.784945 117.163164 
L 108.109924 119.551963 
L 108.434904 79.20122 
L 108.759883 60.974786 
L 109.084863 86.511678 
L 109.734822 56.456446 
L 110.059801 77.243514 
L 110.384781 83.084801 
L 110.709761 144.187871 
L 111.03474 158.00233 
L 111.35972 117.609722 
L 111.684699 143.316779 
L 112.009679 122.151237 
L 112.334658 136.130158 
L 112.659638 116.15755 
L 112.984617 110.262472 
L 113.309597 161.934178 
L 113.634576 160.611073 
L 113.959556 183.452269 
L 114.934494 61.27688 
L 115.259474 62.886232 
L 115.584453 141.603476 
L 115.909433 101.579559 
L 116.234412 104.582692 
L 116.559392 146.570358 
L 116.884372 143.064553 
L 117.209351 154.264634 
L 117.85931 119.264884 
L 118.18429 53.498176 
L 118.509269 35.846442 
L 118.834249 131.463138 
L 119.159228 88.891641 
L 119.484208 84.021925 
L 119.809187 136.516027 
L 120.134167 138.148666 
L 120.459146 127.675822 
L 120.784126 170.416086 
L 121.109105 197.192647 
L 121.434085 99.853428 
L 121.759064 90.419697 
L 122.409023 153.016826 
L 122.734003 133.519206 
L 123.058982 147.734774 
L 123.383962 81.753016 
L 123.708942 61.629609 
L 124.033921 102.886635 
L 124.358901 102.886635 
L 124.68388 128.73074 
L 125.00886 128.73074 
L 125.333839 126.146909 
L 125.658819 81.706575 
L 125.983798 87.078669 
L 126.308778 125.996087 
L 126.633757 117.4713 
L 126.958737 132.186496 
L 127.283716 131.091765 
L 127.608696 108.452972 
L 127.933675 107.65684 
L 128.258655 74.300123 
L 128.583634 146.483833 
L 128.908614 156.821817 
L 129.558573 110.168958 
L 129.883553 134.550745 
L 130.208532 134.550745 
L 130.533512 110.134871 
L 130.858491 73.292931 
L 131.183471 83.82101 
L 131.50845 88.640046 
L 131.83343 165.501867 
L 132.158409 168.384659 
L 132.483389 162.039798 
L 132.808368 183.804998 
L 133.133348 198.056863 
L 133.458327 169.597343 
L 133.783307 190.038084 
L 134.108286 182.778553 
L 134.433266 210.136173 
L 134.758245 261.216 
L 135.408204 256.051246 
L 135.733184 59.329003 
L 136.058163 47.106536 
L 136.383143 121.956544 
L 136.708123 148.833947 
L 137.033102 117.744808 
L 137.358082 125.103105 
L 137.683061 82.282763 
L 138.008041 71.022489 
L 138.33302 112.603523 
L 138.658 101.397986 
L 138.982979 107.220246 
L 139.307959 73.147746 
L 139.957918 151.623157 
L 140.282897 160.678029 
L 140.607877 137.765232 
L 140.932856 172.651764 
L 141.257836 159.776616 
L 141.582815 170.860029 
L 141.907795 82.823828 
L 142.232774 73.231701 
L 142.557754 92.791679 
L 142.882734 121.033218 
L 143.207713 58.664035 
L 143.532693 39.181293 
L 143.857672 60.080587 
L 144.182652 132.340046 
L 144.507631 160.659926 
L 144.832611 58.193849 
L 145.15759 38.016877 
L 145.48257 53.462736 
L 145.807549 46.92086 
L 146.132529 78.243221 
L 146.457508 161.489356 
L 146.782488 104.055109 
L 147.107467 116.422356 
L 147.432447 148.597975 
L 147.757426 104.831176 
L 148.082406 99.797157 
L 148.407385 124.476597 
L 148.732365 134.781622 
L 149.057344 135.918669 
L 149.382324 159.309745 
L 149.707304 134.423618 
L 150.032283 136.259382 
L 150.357263 107.530682 
L 150.682242 99.773125 
L 151.007222 131.079568 
L 151.332201 121.874302 
L 151.657181 129.191005 
L 151.98216 100.690049 
L 152.30714 89.803064 
L 152.632119 69.797699 
L 152.957099 133.064125 
L 153.282078 124.476146 
L 153.607058 108.530389 
L 153.932037 164.382833 
L 154.257017 160.568328 
L 154.581996 101.415932 
L 154.906976 100.487375 
L 155.556935 141.885912 
L 155.881915 114.61759 
L 156.206894 129.379995 
L 156.531874 166.769965 
L 156.856853 167.122716 
L 157.181833 152.934088 
L 157.506812 108.358917 
L 157.831792 141.78356 
L 158.156771 106.884426 
L 158.481751 133.723255 
L 159.13171 146.387817 
L 159.456689 133.37765 
L 159.781669 114.292952 
L 160.106648 104.730899 
L 160.756607 142.505363 
L 161.081587 143.345974 
L 161.406566 115.996223 
L 161.731546 132.745957 
L 162.056525 127.065681 
L 162.381505 147.085068 
L 162.706485 141.34753 
L 163.031464 98.758313 
L 163.356444 90.913599 
L 163.681423 102.489088 
L 164.656362 54.670888 
L 164.981341 161.864516 
L 165.306321 146.960015 
L 165.6313 116.591033 
L 165.95628 187.870399 
L 166.281259 168.613823 
L 166.606239 74.325508 
L 166.931218 73.457911 
L 167.256198 172.552366 
L 167.581177 152.522789 
L 167.906157 150.532912 
L 168.231136 139.412007 
L 168.556116 72.906791 
L 168.881096 95.497002 
L 169.206075 99.399159 
L 169.531055 144.801483 
L 169.856034 105.248111 
L 170.181014 93.020008 
L 170.505993 101.370031 
L 170.830973 120.744289 
L 171.155952 173.762412 
L 171.480932 87.33351 
L 171.805911 165.906944 
L 172.130891 179.034748 
L 172.45587 129.3928 
L 172.78085 131.42878 
L 173.105829 159.248199 
L 173.430809 135.781284 
L 173.755788 168.251963 
L 174.080768 66.985336 
L 174.405747 77.62041 
L 174.730727 142.0717 
L 175.055706 80.581792 
L 175.380686 96.222479 
L 175.705666 140.320815 
L 176.030645 168.042458 
L 176.355625 125.445554 
L 176.680604 192.022055 
L 177.005584 94.930552 
L 177.330563 74.423125 
L 177.655543 135.298158 
L 177.980522 109.520041 
L 178.305502 143.748797 
L 178.630481 136.615898 
L 178.955461 163.564699 
L 179.28044 169.062207 
L 179.60542 126.714575 
L 179.930399 130.622031 
L 180.255379 115.307222 
L 180.580358 149.809982 
L 180.905338 163.1091 
L 181.230317 182.207031 
L 181.555297 183.835748 
L 181.880277 220.067615 
L 182.205256 90.385745 
L 182.530236 97.818168 
L 182.855215 148.110904 
L 183.180195 159.182595 
L 183.505174 117.332607 
L 183.830154 134.955259 
L 184.155133 174.405603 
L 184.480113 173.025505 
L 184.805092 142.932624 
L 185.130072 161.163161 
L 185.455051 167.941031 
L 185.780031 151.162621 
L 186.10501 103.050623 
L 186.42999 216.57802 
L 186.754969 124.233614 
L 187.079949 182.25708 
L 187.404928 165.731053 
L 187.729908 172.228336 
L 188.054887 163.872745 
L 188.379867 149.062817 
L 188.704847 92.419201 
L 189.029826 81.092782 
L 189.354806 81.914208 
L 189.679785 126.052583 
L 190.004765 133.572974 
L 190.329744 81.423012 
L 190.654724 81.423012 
L 190.979703 151.922997 
L 191.304683 157.843978 
L 191.629662 218.948085 
L 191.954642 202.217581 
L 192.279621 179.093724 
L 192.604601 188.00562 
L 192.92958 122.019984 
L 193.25456 100.183116 
L 193.579539 144.006096 
L 193.904519 120.933346 
L 194.229498 124.378169 
L 194.554478 138.169633 
L 194.879458 121.215151 
L 195.204437 153.489762 
L 195.529417 161.2716 
L 195.854396 100.54351 
L 196.179376 97.755089 
L 196.504355 97.658599 
L 196.829335 79.196531 
L 197.154314 135.646739 
L 197.479294 115.232059 
L 197.804273 146.19389 
L 198.129253 191.033394 
L 198.454232 103.020278 
L 198.779212 151.725553 
L 199.104191 146.293852 
L 199.429171 148.9769 
L 199.75415 84.646358 
L 200.07913 123.074699 
L 200.404109 114.432772 
L 200.729089 135.582893 
L 201.054068 171.334385 
L 201.379048 179.081437 
L 201.704028 205.981722 
L 202.029007 141.50888 
L 202.353987 179.278407 
L 202.678966 174.811559 
L 203.003946 205.985645 
L 203.328925 104.869051 
L 203.653905 141.812462 
L 203.978884 78.951384 
L 204.303864 72.98218 
L 204.628843 74.938444 
L 204.953823 189.32983 
L 205.278802 103.518508 
L 205.603782 180.495442 
L 205.928761 93.746297 
L 206.253741 103.004227 
L 206.57872 161.387387 
L 206.9037 158.734774 
L 207.228679 145.914137 
L 207.553659 157.141158 
L 207.878639 110.280372 
L 208.203618 148.982379 
L 208.528598 80.016605 
L 208.853577 115.775153 
L 209.178557 137.736781 
L 209.503536 125.480678 
L 209.828516 136.854147 
L 210.153495 99.360202 
L 210.478475 110.474299 
L 210.803454 116.324243 
L 211.128434 116.324243 
L 211.453413 116.478807 
L 211.778393 108.755382 
L 212.428352 82.156199 
L 212.753331 48.138616 
L 213.40329 75.313672 
L 213.72827 75.313672 
L 214.053249 84.885013 
L 214.378229 78.559518 
L 214.703209 78.105339 
L 215.028188 78.105339 
L 215.353168 92.255619 
L 215.678147 138.557779 
L 216.003127 108.461493 
L 216.328106 128.664797 
L 216.653086 135.973181 
L 216.978065 121.822 
L 217.303045 126.128107 
L 217.628024 168.637765 
L 217.953004 82.600819 
L 218.277983 82.400805 
L 218.927942 101.011621 
L 219.252922 134.047826 
L 219.577901 181.90257 
L 219.902881 167.041872 
L 220.22786 95.430451 
L 220.55284 158.059097 
L 220.87782 144.978907 
L 221.202799 187.815098 
L 221.527779 124.983304 
L 221.852758 104.679723 
L 222.502717 146.421137 
L 222.827697 115.170107 
L 223.152676 130.950637 
L 223.477656 123.512961 
L 223.802635 131.039439 
L 224.127615 163.482975 
L 224.452594 163.00224 
L 224.777574 138.342503 
L 225.102553 103.504937 
L 225.427533 104.128153 
L 225.752512 67.631953 
L 226.077492 109.412324 
L 226.402471 104.23862 
L 226.727451 123.055536 
L 227.05243 119.157843 
L 227.37741 70.490037 
L 227.70239 134.479189 
L 228.027369 122.896644 
L 228.352349 134.794653 
L 228.677328 141.039867 
L 229.002308 228.980864 
L 229.652267 184.561767 
L 229.977246 184.561767 
L 230.302226 190.816653 
L 230.627205 171.805044 
L 230.952185 134.916099 
L 231.277164 83.65355 
L 231.602144 59.818441 
L 231.927123 192.62311 
L 232.252103 136.591302 
L 232.577082 165.825943 
L 232.902062 174.868258 
L 233.227041 128.974422 
L 233.552021 115.376163 
L 233.877001 113.67979 
L 234.52696 136.609067 
L 234.851939 60.438771 
L 235.176919 114.636618 
L 235.501898 118.428668 
L 235.826878 75.08674 
L 236.151857 78.088656 
L 236.476837 172.209467 
L 237.126796 78.178834 
L 237.451775 63.599219 
L 237.776755 102.310537 
L 238.101734 94.518802 
L 238.426714 107.407951 
L 238.751693 151.817196 
L 239.076673 154.078237 
L 239.401652 103.682135 
L 239.726632 167.065995 
L 240.051611 87.182959 
L 240.376591 121.573696 
L 240.701571 123.598089 
L 241.02655 129.786672 
L 241.35153 117.305103 
L 241.676509 133.994756 
L 242.001489 136.24944 
L 242.326468 67.690434 
L 242.651448 55.77457 
L 242.976427 130.412143 
L 243.301407 127.890805 
L 243.626386 137.663038 
L 244.276345 58.914142 
L 244.601325 48.388408 
L 244.926304 154.102089 
L 245.251284 68.176039 
L 245.576263 205.275813 
L 245.901243 102.562447 
L 246.226222 122.604018 
L 246.551202 125.448169 
L 246.876182 134.047826 
L 247.201161 95.970343 
L 247.526141 122.669803 
L 247.85112 132.699899 
L 248.1761 110.15232 
L 248.501079 121.007292 
L 248.826059 118.787574 
L 249.151038 118.787574 
L 249.476018 145.667164 
L 249.800997 128.910148 
L 250.125977 133.338039 
L 250.450956 172.557597 
L 250.775936 106.998545 
L 251.100915 146.184196 
L 251.425895 153.797086 
L 251.750874 144.91797 
L 252.075854 85.790439 
L 252.400833 103.52933 
L 252.725813 107.095621 
L 253.050792 86.199168 
L 253.375772 143.398232 
L 253.700752 144.119764 
L 254.025731 104.331548 
L 254.67569 92.20503 
L 255.325649 135.755245 
L 255.650629 135.755245 
L 255.975608 135.599035 
L 256.300588 130.083266 
L 256.625567 118.222838 
L 256.950547 82.275324 
L 257.275526 72.741857 
L 257.600506 85.609634 
L 257.925485 144.409211 
L 258.250465 156.506963 
L 258.575444 164.149251 
L 258.900424 155.611524 
L 259.225403 166.560618 
L 259.550383 102.807414 
L 259.875363 161.026407 
L 260.200342 161.026407 
L 260.525322 159.554599 
L 260.850301 181.208429 
L 261.175281 139.246689 
L 261.50026 81.008015 
L 261.82524 120.614794 
L 262.150219 120.68378 
L 262.475199 109.653504 
L 262.800178 164.713424 
L 263.125158 164.713424 
L 263.450137 60.956029 
L 263.775117 111.713156 
L 264.100096 113.813072 
L 264.425076 100.180231 
L 264.750055 206.10522 
L 265.075035 127.448101 
L 265.400014 144.120508 
L 265.724994 142.52935 
L 266.049973 113.783359 
L 266.374953 110.750963 
L 266.699933 116.263103 
L 267.024912 112.59437 
L 267.349892 75.001027 
L 267.674871 56.974831 
L 267.999851 75.651476 
L 268.32483 117.781375 
L 268.64981 128.108989 
L 268.974789 96.427091 
L 269.299769 134.773281 
L 269.624748 113.357947 
L 269.949728 145.918759 
L 270.274707 142.35772 
L 270.599687 153.319777 
L 270.924666 160.201374 
L 271.249646 172.939047 
L 271.574625 91.497949 
L 271.899605 121.342661 
L 272.224584 118.443367 
L 272.549564 86.11864 
L 272.874544 86.11864 
L 273.199523 89.629292 
L 273.524503 113.859604 
L 273.849482 165.385448 
L 274.174462 87.713743 
L 274.499441 134.846414 
L 274.824421 117.276201 
L 275.1494 155.604648 
L 275.47438 117.157798 
L 276.124339 81.87205 
L 276.449318 75.058425 
L 276.774298 121.407229 
L 277.099277 100.875093 
L 277.424257 118.745687 
L 277.749236 154.390612 
L 278.074216 99.464447 
L 278.399195 101.667707 
L 278.724175 135.497788 
L 279.049154 120.404726 
L 279.374134 134.397759 
L 279.699114 113.573877 
L 280.024093 143.529012 
L 280.349073 91.187152 
L 280.674052 76.758765 
L 281.324011 220.489781 
L 281.97397 108.438273 
L 282.29895 150.966755 
L 282.623929 90.831087 
L 282.948909 90.831087 
L 283.273888 136.165665 
L 283.923847 122.381054 
L 284.573806 59.259747 
L 284.898786 116.789017 
L 285.223765 109.86781 
L 285.548745 136.456059 
L 285.873725 108.338131 
L 286.198704 150.039145 
L 286.523684 171.711597 
L 286.848663 171.711597 
L 287.173643 138.500719 
L 287.498622 141.730897 
L 287.823602 141.730897 
L 288.148581 115.913214 
L 288.79854 153.367819 
L 289.12352 121.696969 
L 289.448499 123.69751 
L 289.773479 93.371294 
L 290.098458 116.233389 
L 290.423438 114.318607 
L 290.748417 113.825021 
L 291.073397 77.732816 
L 291.398376 123.381212 
L 291.723356 129.476304 
L 292.048335 129.476304 
L 292.373315 165.472154 
L 292.698295 68.665071 
L 293.023274 53.891169 
L 293.348254 199.948988 
L 293.673233 220.583024 
L 293.998213 143.404342 
L 294.323192 97.004001 
L 294.648172 163.863276 
L 294.973151 128.670118 
L 295.298131 121.850405 
L 295.62311 97.695482 
L 295.94809 82.545585 
L 296.273069 156.528899 
L 296.598049 115.772267 
L 296.923028 131.76273 
L 297.248008 133.248042 
L 297.572987 117.578881 
L 297.897967 157.806893 
L 298.222946 42.995798 
L 298.547926 35.374048 
L 298.872906 156.2794 
L 299.197885 88.985155 
L 299.522865 69.36593 
L 299.847844 85.760455 
L 300.172824 82.449366 
L 300.497803 148.537105 
L 300.822783 148.537105 
L 301.147762 75.486091 
L 301.472742 75.100583 
L 301.797721 95.450019 
L 302.122701 158.212691 
L 302.44768 159.965853 
L 302.77266 91.14558 
L 303.097639 105.153876 
L 303.422619 106.836451 
L 303.747598 94.419021 
L 304.072578 94.961483 
L 304.397557 82.772156 
L 304.722537 135.150312 
L 305.047516 168.706187 
L 305.372496 100.92212 
L 305.697476 152.126978 
L 306.022455 136.509016 
L 306.347435 111.915785 
L 306.672414 111.915785 
L 306.997394 158.100488 
L 307.322373 98.033692 
L 307.647353 133.687612 
L 307.972332 144.729544 
L 308.297312 165.110723 
L 308.947271 116.092171 
L 309.27225 125.908344 
L 309.59723 83.212583 
L 309.922209 164.695546 
L 310.247189 116.470646 
L 310.572168 113.062977 
L 310.897148 112.175 
L 311.222127 118.17004 
L 311.547107 92.621018 
L 311.872087 131.279108 
L 312.197066 152.875338 
L 312.522046 119.358803 
L 312.847025 116.316533 
L 313.172005 117.654089 
L 313.496984 89.539926 
L 313.821964 93.902575 
L 314.146943 101.286302 
L 314.471923 37.149506 
L 315.121882 114.321403 
L 315.446861 114.218059 
L 315.771841 137.337791 
L 316.09682 99.503314 
L 316.746779 159.731031 
L 317.071759 154.929196 
L 317.396738 98.451529 
L 317.721718 81.189587 
L 318.046697 145.313105 
L 318.371677 98.978616 
L 318.696657 98.978616 
L 319.021636 103.116723 
L 319.346616 123.60102 
L 319.671595 135.407814 
L 319.996575 179.368923 
L 320.321554 179.368923 
L 320.646534 101.895225 
L 320.971513 102.032745 
L 321.296493 84.233526 
L 321.621472 153.604084 
L 321.946452 111.835707 
L 322.271431 157.630709 
L 322.596411 157.630709 
L 322.92139 174.877005 
L 323.24637 158.777811 
L 323.571349 61.403579 
L 323.896329 61.403579 
L 324.546288 161.764239 
L 324.871268 167.387996 
L 325.196247 84.211162 
L 325.521227 77.960018 
L 325.846206 91.38437 
L 326.171186 124.892811 
L 326.496165 124.892811 
L 326.821145 124.376951 
L 327.146124 63.700579 
L 327.471104 155.407294 
L 327.796083 115.42549 
L 328.121063 186.348745 
L 328.446042 94.718049 
L 328.771022 94.718049 
L 329.096001 105.129483 
L 329.420981 127.031865 
L 329.74596 139.016308 
L 330.07094 139.016308 
L 330.395919 120.342008 
L 330.720899 136.763383 
L 331.045878 164.258366 
L 331.370858 122.73482 
L 331.695838 171.971466 
L 332.020817 91.600435 
L 332.345797 67.900682 
L 332.670776 88.651769 
L 332.995756 77.2161 
L 333.320735 82.788298 
L 333.645715 170.562196 
L 333.970694 202.697528 
L 334.620653 231.594769 
L 334.945633 219.548126 
L 335.595592 166.733916 
L 335.920571 180.854483 
L 336.245551 176.0843 
L 336.57053 78.379298 
L 336.89551 183.863117 
L 337.220489 123.11555 
L 337.545469 153.211993 
L 337.870449 171.564563 
L 338.195428 170.066739 
L 338.520408 118.859581 
L 338.845387 132.209807 
L 339.170367 116.323657 
L 339.495346 143.277755 
L 339.820326 119.300008 
L 340.145305 155.005982 
L 340.470285 163.531761 
L 340.795264 115.290088 
L 341.120244 116.728373 
L 341.445223 154.838162 
L 341.770203 154.838162 
L 342.095182 144.021629 
L 342.420162 110.580528 
L 342.745141 111.789671 
L 343.3951 135.953906 
L 343.72008 120.690318 
L 344.045059 166.153467 
L 344.370039 164.350212 
L 344.695019 112.149299 
L 345.019998 138.727696 
L 345.344978 94.269777 
L 345.669957 163.702242 
L 345.994937 107.271197 
L 346.319916 137.301607 
L 346.644896 121.270429 
L 346.969875 121.270429 
L 347.294855 147.079297 
L 347.619834 108.942184 
L 347.944814 115.330262 
L 348.269793 130.761107 
L 348.594773 228.666844 
L 348.919752 241.174497 
L 349.244732 230.858944 
L 349.894691 181.365879 
L 350.21967 87.083042 
L 350.54465 59.45994 
L 350.86963 82.609656 
L 351.194609 167.531716 
L 351.519589 154.364798 
L 351.844568 81.973951 
L 352.169548 94.280959 
L 352.494527 126.355624 
L 352.819507 81.138006 
L 353.144486 89.186566 
L 353.469466 89.186566 
L 353.794445 77.001973 
L 354.119425 229.427062 
L 354.444404 209.425079 
L 354.769384 181.365811 
L 355.094363 192.214628 
L 355.419343 168.694847 
L 355.744322 156.861991 
L 356.069302 95.78318 
L 356.394281 103.602238 
L 356.719261 149.796072 
L 357.04424 126.001362 
L 357.36922 131.369872 
L 357.6942 103.358083 
L 358.019179 169.696989 
L 358.344159 101.578747 
L 358.669138 152.846549 
L 358.994118 157.947232 
L 359.319097 131.099926 
L 359.644077 73.136248 
L 359.969056 68.592208 
L 360.294036 76.274061 
L 360.619015 98.423755 
L 360.943995 154.953995 
L 361.268974 93.101754 
L 361.593954 67.761042 
L 361.918933 83.613647 
L 362.243913 83.613647 
L 362.568892 77.100898 
L 362.893872 161.423729 
L 363.218851 64.762463 
L 364.19379 136.349965 
L 364.51877 121.078757 
L 364.843749 67.484378 
L 365.168729 58.084825 
L 365.493708 52.377271 
L 366.143667 96.204038 
L 366.468647 85.39456 
L 366.793626 62.838798 
L 367.118606 128.395257 
L 367.443585 105.16348 
L 367.768565 100.359909 
L 368.093544 139.315427 
L 368.418524 108.346698 
L 368.743503 52.726708 
L 369.068483 50.80363 
L 369.393462 30.897505 
L 369.718442 52.773691 
L 370.043421 122.003887 
L 370.368401 136.447695 
L 370.693381 164.074021 
L 371.01836 134.732949 
L 371.34334 148.469968 
L 371.668319 78.670211 
L 371.993299 53.050039 
L 372.318278 81.918942 
L 372.643258 145.663331 
L 372.968237 110.329203 
L 373.293217 191.44546 
L 373.618196 163.97983 
L 373.943176 158.210279 
L 374.268155 158.210279 
L 374.918114 86.843035 
L 375.243094 102.437416 
L 375.568073 124.310806 
L 375.893053 90.693837 
L 376.218032 90.693837 
L 376.543012 83.911728 
L 376.867992 142.445733 
L 377.192971 107.439197 
L 377.517951 181.751748 
L 377.84293 139.431823 
L 378.16791 19.296 
L 379.142848 103.020864 
L 379.467828 49.878184 
L 379.792807 44.108001 
L 380.117787 44.108001 
L 380.442766 59.550884 
L 381.092725 124.410948 
L 381.417705 112.16995 
L 381.742684 114.936187 
L 382.067664 138.021494 
L 382.392643 177.947929 
L 382.717623 172.765591 
L 383.042602 182.927752 
L 383.692562 138.242406 
L 384.017541 135.771905 
L 384.342521 126.854937 
L 384.6675 123.637722 
L 384.99248 119.157572 
L 385.317459 149.622255 
L 385.642439 119.207711 
L 385.967418 212.460451 
L 386.292398 158.834893 
L 386.292398 158.834893 
" clip-path="url(#pbd52b52208)" style="fill: none; stroke: #1f77b4; stroke-width: 1.2; stroke-linecap: round"/>
   </g>
   <g id="patch_3">
    <path d="M 45.405125 240.269382 
L 45.405125 13.330475 
" style="fill: none; stroke: #262626; stroke-linejoin: miter; stroke-linecap: square"/>
   </g>
   <g id="patch_4">
    <path d="M 61.637852 273.312 
L 386.617377 273.312 
" style="fill: none; stroke: #262626; stroke-linejoin: miter; stroke-linecap: square"/>
   </g>
  </g>
 </g>
 <defs>
  <clipPath id="pbd52b52208">
   <rect x="45.405125" y="7.2" width="357.12" height="266.112"/>
  </clipPath>
 </defs>
</svg>