<?xml version="1.0" encoding="utf-8" standalone="no"?>
<!DOCTYPE svg PUBLIC "-//W3C//DTD SVG 1.1//EN"
  "http://www.w3.org/Graphics/SVG/1.1/DTD/svg11.dtd">
<svg xmlns:xlink="http://www.w3.org/1999/xlink" width="402.632875pt" height="309.639375pt" viewBox="0 0 402.632875 309.639375" xmlns="http://www.w3.org/2000/svg" version="1.1">
 <metadata>
  <rdf:RDF xmlns:dc="http://purl.org/dc/elements/1.1/" xmlns:cc="http://creativecommons.org/ns#" xmlns:rdf="http://www.w3.org/1999/02/22-rdf-syntax-ns#">
   <cc:Work>
    <dc:type rdf:resource="http://purl.org/dc/dcmitype/StillImage"/>
    <dc:date>2023-09-25T16:00:45.996860</dc:date>
    <dc:format>image/svg+xml</dc:format>
    <dc:creator>
     <cc:Agent>
      <dc:title>Matplotlib v3.7.1, https://matplotlib.org/</dc:title>
     </cc:Agent>
    </dc:creator>
   </cc:Work>
  </rdf:RDF>
 </metadata>
 <defs>
  <style type="text/css">*{stroke-linejoin: round; stroke-linecap: butt}</style>
 </defs>
 <g id="figure_1">
  <g id="patch_1">
   <path d="M 0 309.639375 
L 402.632875 309.639375 
L 402.632875 0 
L 0 0 
z
" style="fill: #ffffff"/>
  </g>
  <g id="axes_1">
   <g id="patch_2">
    <path d="M 38.312875 273.312 
L 395.432875 273.312 
L 395.432875 7.2 
L 38.312875 7.2 
z
" style="fill: #ffffff"/>
   </g>
   <g id="matplotlib.axis_1">
    <g id="xtick_1">
     <g id="line2d_1">
      <defs>
       <path id="mdacfce0716" d="M 0 0 
L 0 4.8 
" style="stroke: #262626"/>
      </defs>
      <g>
       <use xlink:href="#mdacfce0716" x="54.545602" y="273.312" style="fill: #262626; stroke: #262626"/>
      </g>
     </g>
     <g id="text_1">
      <!-- −1.00 -->
      <g style="fill: #262626" transform="translate(43.412915 287.910875) scale(0.088 -0.088)">
       <defs>
        <path id="ArialMT-2212" d="M 3381 1997 
L 356 1997 
L 356 2522 
L 3381 2522 
L 3381 1997 
z
" transform="scale(0.015625)"/>
        <path id="ArialMT-31" d="M 2384 0 
L 1822 0 
L 1822 3584 
Q 1619 3391 1289 3197 
Q 959 3003 697 2906 
L 697 3450 
Q 1169 3672 1522 3987 
Q 1875 4303 2022 4600 
L 2384 4600 
L 2384 0 
z
" transform="scale(0.015625)"/>
        <path id="ArialMT-2e" d="M 581 0 
L 581 641 
L 1222 641 
L 1222 0 
L 581 0 
z
" transform="scale(0.015625)"/>
        <path id="ArialMT-30" d="M 266 2259 
Q 266 3072 433 3567 
Q 600 4063 929 4331 
Q 1259 4600 1759 4600 
Q 2128 4600 2406 4451 
Q 2684 4303 2865 4023 
Q 3047 3744 3150 3342 
Q 3253 2941 3253 2259 
Q 3253 1453 3087 958 
Q 2922 463 2592 192 
Q 2263 -78 1759 -78 
Q 1097 -78 719 397 
Q 266 969 266 2259 
z
M 844 2259 
Q 844 1131 1108 757 
Q 1372 384 1759 384 
Q 2147 384 2411 759 
Q 2675 1134 2675 2259 
Q 2675 3391 2411 3762 
Q 2147 4134 1753 4134 
Q 1366 4134 1134 3806 
Q 844 3388 844 2259 
z
" transform="scale(0.015625)"/>
       </defs>
       <use xlink:href="#ArialMT-2212"/>
       <use xlink:href="#ArialMT-31" x="58.398438"/>
       <use xlink:href="#ArialMT-2e" x="114.013672"/>
       <use xlink:href="#ArialMT-30" x="141.796875"/>
       <use xlink:href="#ArialMT-30" x="197.412109"/>
      </g>
     </g>
    </g>
    <g id="xtick_2">
     <g id="line2d_2">
      <g>
       <use xlink:href="#mdacfce0716" x="95.12742" y="273.312" style="fill: #262626; stroke: #262626"/>
      </g>
     </g>
     <g id="text_2">
      <!-- −0.75 -->
      <g style="fill: #262626" transform="translate(83.994733 287.910875) scale(0.088 -0.088)">
       <defs>
        <path id="ArialMT-37" d="M 303 3981 
L 303 4522 
L 3269 4522 
L 3269 4084 
Q 2831 3619 2401 2847 
Q 1972 2075 1738 1259 
Q 1569 684 1522 0 
L 944 0 
Q 953 541 1156 1306 
Q 1359 2072 1739 2783 
Q 2119 3494 2547 3981 
L 303 3981 
z
" transform="scale(0.015625)"/>
        <path id="ArialMT-35" d="M 266 1200 
L 856 1250 
Q 922 819 1161 601 
Q 1400 384 1738 384 
Q 2144 384 2425 690 
Q 2706 997 2706 1503 
Q 2706 1984 2436 2262 
Q 2166 2541 1728 2541 
Q 1456 2541 1237 2417 
Q 1019 2294 894 2097 
L 366 2166 
L 809 4519 
L 3088 4519 
L 3088 3981 
L 1259 3981 
L 1013 2750 
Q 1425 3038 1878 3038 
Q 2478 3038 2890 2622 
Q 3303 2206 3303 1553 
Q 3303 931 2941 478 
Q 2500 -78 1738 -78 
Q 1113 -78 717 272 
Q 322 622 266 1200 
z
" transform="scale(0.015625)"/>
       </defs>
       <use xlink:href="#ArialMT-2212"/>
       <use xlink:href="#ArialMT-30" x="58.398438"/>
       <use xlink:href="#ArialMT-2e" x="114.013672"/>
       <use xlink:href="#ArialMT-37" x="141.796875"/>
       <use xlink:href="#ArialMT-35" x="197.412109"/>
      </g>
     </g>
    </g>
    <g id="xtick_3">
     <g id="line2d_3">
      <g>
       <use xlink:href="#mdacfce0716" x="135.709239" y="273.312" style="fill: #262626; stroke: #262626"/>
      </g>
     </g>
     <g id="text_3">
      <!-- −0.50 -->
      <g style="fill: #262626" transform="translate(124.576551 287.910875) scale(0.088 -0.088)">
       <use xlink:href="#ArialMT-2212"/>
       <use xlink:href="#ArialMT-30" x="58.398438"/>
       <use xlink:href="#ArialMT-2e" x="114.013672"/>
       <use xlink:href="#ArialMT-35" x="141.796875"/>
       <use xlink:href="#ArialMT-30" x="197.412109"/>
      </g>
     </g>
    </g>
    <g id="xtick_4">
     <g id="line2d_4">
      <g>
       <use xlink:href="#mdacfce0716" x="176.291057" y="273.312" style="fill: #262626; stroke: #262626"/>
      </g>
     </g>
     <g id="text_4">
      <!-- −0.25 -->
      <g style="fill: #262626" transform="translate(165.158369 287.910875) scale(0.088 -0.088)">
       <defs>
        <path id="ArialMT-32" d="M 3222 541 
L 3222 0 
L 194 0 
Q 188 203 259 391 
Q 375 700 629 1000 
Q 884 1300 1366 1694 
Q 2113 2306 2375 2664 
Q 2638 3022 2638 3341 
Q 2638 3675 2398 3904 
Q 2159 4134 1775 4134 
Q 1369 4134 1125 3890 
Q 881 3647 878 3216 
L 300 3275 
Q 359 3922 746 4261 
Q 1134 4600 1788 4600 
Q 2447 4600 2831 4234 
Q 3216 3869 3216 3328 
Q 3216 3053 3103 2787 
Q 2991 2522 2730 2228 
Q 2469 1934 1863 1422 
Q 1356 997 1212 845 
Q 1069 694 975 541 
L 3222 541 
z
" transform="scale(0.015625)"/>
       </defs>
       <use xlink:href="#ArialMT-2212"/>
       <use xlink:href="#ArialMT-30" x="58.398438"/>
       <use xlink:href="#ArialMT-2e" x="114.013672"/>
       <use xlink:href="#ArialMT-32" x="141.796875"/>
       <use xlink:href="#ArialMT-35" x="197.412109"/>
      </g>
     </g>
    </g>
    <g id="xtick_5">
     <g id="line2d_5">
      <g>
       <use xlink:href="#mdacfce0716" x="216.872875" y="273.312" style="fill: #262626; stroke: #262626"/>
      </g>
     </g>
     <g id="text_5">
      <!-- 0.00 -->
      <g style="fill: #262626" transform="translate(208.310063 287.910875) scale(0.088 -0.088)">
       <use xlink:href="#ArialMT-30"/>
       <use xlink:href="#ArialMT-2e" x="55.615234"/>
       <use xlink:href="#ArialMT-30" x="83.398438"/>
       <use xlink:href="#ArialMT-30" x="139.013672"/>
      </g>
     </g>
    </g>
    <g id="xtick_6">
     <g id="line2d_6">
      <g>
       <use xlink:href="#mdacfce0716" x="257.454693" y="273.312" style="fill: #262626; stroke: #262626"/>
      </g>
     </g>
     <g id="text_6">
      <!-- 0.25 -->
      <g style="fill: #262626" transform="translate(248.891881 287.910875) scale(0.088 -0.088)">
       <use xlink:href="#ArialMT-30"/>
       <use xlink:href="#ArialMT-2e" x="55.615234"/>
       <use xlink:href="#ArialMT-32" x="83.398438"/>
       <use xlink:href="#ArialMT-35" x="139.013672"/>
      </g>
     </g>
    </g>
    <g id="xtick_7">
     <g id="line2d_7">
      <g>
       <use xlink:href="#mdacfce0716" x="298.036511" y="273.312" style="fill: #262626; stroke: #262626"/>
      </g>
     </g>
     <g id="text_7">
      <!-- 0.50 -->
      <g style="fill: #262626" transform="translate(289.473699 287.910875) scale(0.088 -0.088)">
       <use xlink:href="#ArialMT-30"/>
       <use xlink:href="#ArialMT-2e" x="55.615234"/>
       <use xlink:href="#ArialMT-35" x="83.398438"/>
       <use xlink:href="#ArialMT-30" x="139.013672"/>
      </g>
     </g>
    </g>
    <g id="xtick_8">
     <g id="line2d_8">
      <g>
       <use xlink:href="#mdacfce0716" x="338.61833" y="273.312" style="fill: #262626; stroke: #262626"/>
      </g>
     </g>
     <g id="text_8">
      <!-- 0.75 -->
      <g style="fill: #262626" transform="translate(330.055517 287.910875) scale(0.088 -0.088)">
       <use xlink:href="#ArialMT-30"/>
       <use xlink:href="#ArialMT-2e" x="55.615234"/>
       <use xlink:href="#ArialMT-37" x="83.398438"/>
       <use xlink:href="#ArialMT-35" x="139.013672"/>
      </g>
     </g>
    </g>
    <g id="xtick_9">
     <g id="line2d_9">
      <g>
       <use xlink:href="#mdacfce0716" x="379.200148" y="273.312" style="fill: #262626; stroke: #262626"/>
      </g>
     </g>
     <g id="text_9">
      <!-- 1.00 -->
      <g style="fill: #262626" transform="translate(370.637335 287.910875) scale(0.088 -0.088)">
       <use xlink:href="#ArialMT-31"/>
       <use xlink:href="#ArialMT-2e" x="55.615234"/>
       <use xlink:href="#ArialMT-30" x="83.398438"/>
       <use xlink:href="#ArialMT-30" x="139.013672"/>
      </g>
     </g>
    </g>
    <g id="text_10">
     <!-- $x$ -->
     <g style="fill: #262626" transform="translate(213.992875 300.531375) scale(0.096 -0.096)">
      <defs>
       <path id="DejaVuSans-Oblique-78" d="M 3841 3500 
L 2234 1784 
L 3219 0 
L 2559 0 
L 1819 1388 
L 531 0 
L -166 0 
L 1556 1844 
L 641 3500 
L 1300 3500 
L 1972 2234 
L 3144 3500 
L 3841 3500 
z
" transform="scale(0.015625)"/>
      </defs>
      <use xlink:href="#DejaVuSans-Oblique-78" transform="translate(0 0.3125)"/>
     </g>
    </g>
   </g>
   <g id="matplotlib.axis_2">
    <g id="ytick_1">
     <g id="line2d_10">
      <defs>
       <path id="ma26924ad67" d="M 0 0 
L -4.8 0 
" style="stroke: #262626"/>
      </defs>
      <g>
       <use xlink:href="#ma26924ad67" x="38.312875" y="252.35603" style="fill: #262626; stroke: #262626"/>
      </g>
     </g>
     <g id="text_11">
      <!-- −1 -->
      <g style="fill: #262626" transform="translate(19.9795 255.505467) scale(0.088 -0.088)">
       <use xlink:href="#ArialMT-2212"/>
       <use xlink:href="#ArialMT-31" x="58.398438"/>
      </g>
     </g>
    </g>
    <g id="ytick_2">
     <g id="line2d_11">
      <g>
       <use xlink:href="#ma26924ad67" x="38.312875" y="200.911076" style="fill: #262626; stroke: #262626"/>
      </g>
     </g>
     <g id="text_12">
      <!-- 0 -->
      <g style="fill: #262626" transform="translate(25.11925 204.060514) scale(0.088 -0.088)">
       <use xlink:href="#ArialMT-30"/>
      </g>
     </g>
    </g>
    <g id="ytick_3">
     <g id="line2d_12">
      <g>
       <use xlink:href="#ma26924ad67" x="38.312875" y="149.466123" style="fill: #262626; stroke: #262626"/>
      </g>
     </g>
     <g id="text_13">
      <!-- 1 -->
      <g style="fill: #262626" transform="translate(25.11925 152.61556) scale(0.088 -0.088)">
       <use xlink:href="#ArialMT-31"/>
      </g>
     </g>
    </g>
    <g id="ytick_4">
     <g id="line2d_13">
      <g>
       <use xlink:href="#ma26924ad67" x="38.312875" y="98.021169" style="fill: #262626; stroke: #262626"/>
      </g>
     </g>
     <g id="text_14">
      <!-- 2 -->
      <g style="fill: #262626" transform="translate(25.11925 101.170607) scale(0.088 -0.088)">
       <use xlink:href="#ArialMT-32"/>
      </g>
     </g>
    </g>
    <g id="ytick_5">
     <g id="line2d_14">
      <g>
       <use xlink:href="#ma26924ad67" x="38.312875" y="46.576216" style="fill: #262626; stroke: #262626"/>
      </g>
     </g>
     <g id="text_15">
      <!-- 3 -->
      <g style="fill: #262626" transform="translate(25.11925 49.725653) scale(0.088 -0.088)">
       <defs>
        <path id="ArialMT-33" d="M 269 1209 
L 831 1284 
Q 928 806 1161 595 
Q 1394 384 1728 384 
Q 2125 384 2398 659 
Q 2672 934 2672 1341 
Q 2672 1728 2419 1979 
Q 2166 2231 1775 2231 
Q 1616 2231 1378 2169 
L 1441 2663 
Q 1497 2656 1531 2656 
Q 1891 2656 2178 2843 
Q 2466 3031 2466 3422 
Q 2466 3731 2256 3934 
Q 2047 4138 1716 4138 
Q 1388 4138 1169 3931 
Q 950 3725 888 3313 
L 325 3413 
Q 428 3978 793 4289 
Q 1159 4600 1703 4600 
Q 2078 4600 2393 4439 
Q 2709 4278 2876 4000 
Q 3044 3722 3044 3409 
Q 3044 3113 2884 2869 
Q 2725 2625 2413 2481 
Q 2819 2388 3044 2092 
Q 3269 1797 3269 1353 
Q 3269 753 2831 336 
Q 2394 -81 1725 -81 
Q 1122 -81 723 278 
Q 325 638 269 1209 
z
" transform="scale(0.015625)"/>
       </defs>
       <use xlink:href="#ArialMT-33"/>
      </g>
     </g>
    </g>
    <g id="text_16">
     <!-- $y$ -->
     <g style="fill: #262626" transform="translate(13.9635 143.136) rotate(-90) scale(0.096 -0.096)">
      <defs>
       <path id="DejaVuSans-Oblique-79" d="M 1588 -325 
Q 1188 -997 936 -1164 
Q 684 -1331 294 -1331 
L -159 -1331 
L -63 -850 
L 269 -850 
Q 509 -850 678 -719 
Q 847 -588 1056 -206 
L 1234 128 
L 459 3500 
L 1069 3500 
L 1650 819 
L 3256 3500 
L 3859 3500 
L 1588 -325 
z
" transform="scale(0.015625)"/>
      </defs>
      <use xlink:href="#DejaVuSans-Oblique-79" transform="translate(0 0.3125)"/>
     </g>
    </g>
   </g>
   <g id="line2d_15">
    <path d="M 54.545602 183.074801 
L 57.824941 188.360126 
L 61.10428 193.426503 
L 64.383619 198.276396 
L 67.662958 202.912265 
L 70.942296 207.336574 
L 74.221635 211.551783 
L 77.500974 215.560355 
L 80.780313 219.364751 
L 84.059652 222.967435 
L 87.338991 226.370867 
L 90.61833 229.57751 
L 93.897668 232.589826 
L 97.177007 235.410276 
L 100.456346 238.041323 
L 103.735685 240.485428 
L 107.015024 242.745054 
L 110.294363 244.822662 
L 113.573701 246.720715 
L 116.85304 248.441674 
L 120.132379 249.988001 
L 123.411718 251.362159 
L 126.691057 252.566609 
L 129.970396 253.603813 
L 133.249735 254.476234 
L 136.529073 255.186333 
L 139.808412 255.736571 
L 143.087751 256.129412 
L 146.36709 256.367317 
L 149.646429 256.452748 
L 152.925768 256.388167 
L 156.205106 256.176036 
L 159.484445 255.818817 
L 162.763784 255.318972 
L 166.043123 254.678963 
L 169.322462 253.901251 
L 172.601801 252.988299 
L 175.881139 251.942569 
L 179.160478 250.766523 
L 182.439817 249.462622 
L 185.719156 248.033329 
L 188.998495 246.481106 
L 192.277834 244.808414 
L 195.557173 243.017715 
L 198.836511 241.111473 
L 202.11585 239.092147 
L 205.395189 236.962201 
L 208.674528 234.724096 
L 211.953867 232.380295 
L 215.233206 229.933259 
L 218.512544 227.385451 
L 221.791883 224.739331 
L 225.071222 221.997363 
L 228.350561 219.162008 
L 231.6299 216.235728 
L 234.909239 213.220985 
L 238.188577 210.120241 
L 241.467916 206.935958 
L 244.747255 203.670598 
L 248.026594 200.326623 
L 251.305933 196.906495 
L 254.585272 193.412676 
L 257.864611 189.847628 
L 261.143949 186.213812 
L 264.423288 182.513692 
L 267.702627 178.749728 
L 270.981966 174.924382 
L 274.261305 171.040118 
L 277.540644 167.099396 
L 280.819982 163.104678 
L 284.099321 159.058427 
L 287.37866 154.963105 
L 290.657999 150.821173 
L 293.937338 146.635094 
L 297.216677 142.407329 
L 300.496015 138.14034 
L 303.775354 133.83659 
L 307.054693 129.49854 
L 310.334032 125.128652 
L 313.613371 120.729388 
L 316.89271 116.303211 
L 320.172049 111.852582 
L 323.451387 107.379962 
L 326.730726 102.887815 
L 330.010065 98.378602 
L 333.289404 93.854785 
L 336.568743 89.318826 
L 339.848082 84.773187 
L 343.12742 80.22033 
L 346.406759 75.662717 
L 349.686098 71.102809 
L 352.965437 66.543069 
L 356.244776 61.985959 
L 359.524115 57.433941 
L 362.803454 52.889476 
L 366.082792 48.355028 
L 369.362131 43.833056 
L 372.64147 39.326024 
L 375.920809 34.836394 
L 379.200148 30.366627 
" clip-path="url(#p5593776536)" style="fill: none; stroke: #ff0000; stroke-width: 0.5; stroke-linecap: round"/>
   </g>
   <g id="line2d_16">
    <path d="M 54.545602 192.330193 
L 57.824941 197.448922 
L 61.10428 202.348218 
L 64.383619 207.030678 
L 67.662958 211.498898 
L 70.942296 215.755475 
L 74.221635 219.803007 
L 77.500974 223.64409 
L 80.780313 227.28132 
L 84.059652 230.717295 
L 87.338991 233.954611 
L 90.61833 236.995865 
L 93.897668 239.843654 
L 97.177007 242.500575 
L 100.456346 244.969224 
L 103.735685 247.252199 
L 107.015024 249.352095 
L 110.294363 251.27151 
L 113.573701 253.013041 
L 116.85304 254.579285 
L 120.132379 255.972837 
L 123.411718 257.196295 
L 126.691057 258.252256 
L 129.970396 259.143317 
L 133.249735 259.872074 
L 136.529073 260.441124 
L 139.808412 260.853064 
L 143.087751 261.11049 
L 146.36709 261.216 
L 149.646429 261.17219 
L 152.925768 260.981657 
L 156.205106 260.646998 
L 159.484445 260.17081 
L 162.763784 259.555689 
L 166.043123 258.804232 
L 169.322462 257.919036 
L 172.601801 256.902698 
L 175.881139 255.757815 
L 179.160478 254.486982 
L 182.439817 253.092798 
L 185.719156 251.577859 
L 188.998495 249.944761 
L 192.277834 248.196102 
L 195.557173 246.334478 
L 198.836511 244.362486 
L 202.11585 242.282723 
L 205.395189 240.097786 
L 208.674528 237.810271 
L 211.953867 235.422775 
L 215.233206 232.937895 
L 218.512544 230.358228 
L 221.791883 227.68637 
L 225.071222 224.924919 
L 228.350561 222.07647 
L 231.6299 219.143622 
L 234.909239 216.12897 
L 238.188577 213.035112 
L 241.467916 209.864644 
L 244.747255 206.620163 
L 248.026594 203.304266 
L 251.305933 199.91955 
L 254.585272 196.468611 
L 257.864611 192.954046 
L 261.143949 189.378452 
L 264.423288 185.744426 
L 267.702627 182.054564 
L 270.981966 178.311464 
L 274.261305 174.517722 
L 277.540644 170.675935 
L 280.819982 166.788699 
L 284.099321 162.858612 
L 287.37866 158.88827 
L 290.657999 154.88027 
L 293.937338 150.837209 
L 297.216677 146.761684 
L 300.496015 142.656291 
L 303.775354 138.523627 
L 307.054693 134.36629 
L 310.334032 130.186875 
L 313.613371 125.987979 
L 316.89271 121.7722 
L 320.172049 117.542134 
L 323.451387 113.300378 
L 326.730726 109.049529 
L 330.010065 104.792183 
L 333.289404 100.530937 
L 336.568743 96.268389 
L 339.848082 92.007134 
L 343.12742 87.74977 
L 346.406759 83.498893 
L 349.686098 79.257101 
L 352.965437 75.026989 
L 356.244776 70.811156 
L 359.524115 66.612197 
L 362.803454 62.432709 
L 366.082792 58.275289 
L 369.362131 54.142535 
L 372.64147 50.037041 
L 375.920809 45.961407 
L 379.200148 41.918228 
" clip-path="url(#p5593776536)" style="fill: none; stroke: #ff0000; stroke-width: 0.5; stroke-linecap: round"/>
   </g>
   <g id="line2d_17">
    <path d="M 54.545602 219.833256 
L 57.824941 222.385439 
L 61.10428 224.818794 
L 64.383619 227.134193 
L 67.662958 229.332505 
L 70.942296 231.414601 
L 74.221635 233.381351 
L 77.500974 235.233626 
L 80.780313 236.972296 
L 84.059652 238.598232 
L 87.338991 240.112303 
L 90.61833 241.51538 
L 93.897668 242.808333 
L 97.177007 243.992034 
L 100.456346 245.067352 
L 103.735685 246.035157 
L 107.015024 246.89632 
L 110.294363 247.651712 
L 113.573701 248.302203 
L 116.85304 248.848662 
L 120.132379 249.291962 
L 123.411718 249.632971 
L 126.691057 249.87256 
L 129.970396 250.0116 
L 133.249735 250.050961 
L 136.529073 249.991513 
L 139.808412 249.834127 
L 143.087751 249.579674 
L 146.36709 249.229023 
L 149.646429 248.783044 
L 152.925768 248.242609 
L 156.205106 247.608588 
L 159.484445 246.88185 
L 162.763784 246.063267 
L 166.043123 245.153709 
L 169.322462 244.154046 
L 172.601801 243.065149 
L 175.881139 241.887887 
L 179.160478 240.623131 
L 182.439817 239.271753 
L 185.719156 237.834621 
L 188.998495 236.312607 
L 192.277834 234.70658 
L 195.557173 233.017412 
L 198.836511 231.245972 
L 202.11585 229.393131 
L 205.395189 227.45976 
L 208.674528 225.446728 
L 211.953867 223.354906 
L 215.233206 221.185164 
L 218.512544 218.938374 
L 221.791883 216.615404 
L 225.071222 214.217126 
L 228.350561 211.74441 
L 231.6299 209.198126 
L 234.909239 206.579145 
L 238.188577 203.888337 
L 241.467916 201.126572 
L 244.747255 198.294721 
L 248.026594 195.393655 
L 251.305933 192.424243 
L 254.585272 189.387355 
L 257.864611 186.283863 
L 261.143949 183.114637 
L 264.423288 179.880547 
L 267.702627 176.582463 
L 270.981966 173.221256 
L 274.261305 169.797797 
L 277.540644 166.312954 
L 280.819982 162.7676 
L 284.099321 159.162604 
L 287.37866 155.498837 
L 290.657999 151.777169 
L 293.937338 147.99847 
L 297.216677 144.163611 
L 300.496015 140.273462 
L 303.775354 136.328894 
L 307.054693 132.330777 
L 310.334032 128.279981 
L 313.613371 124.177377 
L 316.89271 120.023834 
L 320.172049 115.820225 
L 323.451387 111.567418 
L 326.730726 107.266284 
L 330.010065 102.917694 
L 333.289404 98.522518 
L 336.568743 94.081626 
L 339.848082 89.595889 
L 343.12742 85.066177 
L 346.406759 80.49336 
L 349.686098 75.878309 
L 352.965437 71.221895 
L 356.244776 66.524987 
L 359.524115 61.788456 
L 362.803454 57.013172 
L 366.082792 52.200006 
L 369.362131 47.349828 
L 372.64147 42.463509 
L 375.920809 37.541918 
L 379.200148 32.585927 
" clip-path="url(#p5593776536)" style="fill: none; stroke: #ff0000; stroke-width: 0.5; stroke-linecap: round"/>
   </g>
   <g id="line2d_18">
    <path d="M 54.545602 188.521038 
L 57.824941 193.579526 
L 61.10428 198.431497 
L 64.383619 203.079121 
L 67.662958 207.524567 
L 70.942296 211.770003 
L 74.221635 215.817597 
L 77.500974 219.669519 
L 80.780313 223.327938 
L 84.059652 226.795021 
L 87.338991 230.072938 
L 90.61833 233.163858 
L 93.897668 236.069949 
L 97.177007 238.79338 
L 100.456346 241.33632 
L 103.735685 243.700937 
L 107.015024 245.8894 
L 110.294363 247.903878 
L 113.573701 249.746539 
L 116.85304 251.419553 
L 120.132379 252.925087 
L 123.411718 254.265312 
L 126.691057 255.442395 
L 129.970396 256.458505 
L 133.249735 257.31581 
L 136.529073 258.016481 
L 139.808412 258.562685 
L 143.087751 258.95659 
L 146.36709 259.200367 
L 149.646429 259.296183 
L 152.925768 259.246207 
L 156.205106 259.052609 
L 159.484445 258.717555 
L 162.763784 258.243217 
L 166.043123 257.631761 
L 169.322462 256.885357 
L 172.601801 256.006174 
L 175.881139 254.99638 
L 179.160478 253.858144 
L 182.439817 252.593634 
L 185.719156 251.205021 
L 188.998495 249.694471 
L 192.277834 248.064154 
L 195.557173 246.316239 
L 198.836511 244.452894 
L 202.11585 242.476288 
L 205.395189 240.38859 
L 208.674528 238.191968 
L 211.953867 235.888591 
L 215.233206 233.480629 
L 218.512544 230.970249 
L 221.791883 228.359621 
L 225.071222 225.650912 
L 228.350561 222.846293 
L 231.6299 219.947931 
L 234.909239 216.957995 
L 238.188577 213.878654 
L 241.467916 210.712077 
L 244.747255 207.460432 
L 248.026594 204.125889 
L 251.305933 200.710615 
L 254.585272 197.21678 
L 257.864611 193.646552 
L 261.143949 190.002101 
L 264.423288 186.285594 
L 267.702627 182.4992 
L 270.981966 178.645089 
L 274.261305 174.725429 
L 277.540644 170.742388 
L 280.819982 166.698136 
L 284.099321 162.594841 
L 287.37866 158.434671 
L 290.657999 154.219797 
L 293.937338 149.952385 
L 297.216677 145.634605 
L 300.496015 141.268627 
L 303.775354 136.856617 
L 307.054693 132.400746 
L 310.334032 127.903181 
L 313.613371 123.366093 
L 316.89271 118.791648 
L 320.172049 114.182017 
L 323.451387 109.539367 
L 326.730726 104.865868 
L 330.010065 100.163688 
L 333.289404 95.434996 
L 336.568743 90.68196 
L 339.848082 85.90675 
L 343.12742 81.111534 
L 346.406759 76.298481 
L 349.686098 71.469759 
L 352.965437 66.627538 
L 356.244776 61.773986 
L 359.524115 56.911271 
L 362.803454 52.041563 
L 366.082792 47.16703 
L 369.362131 42.28984 
L 372.64147 37.412164 
L 375.920809 32.536169 
L 379.200148 27.664023 
" clip-path="url(#p5593776536)" style="fill: none; stroke: #ff0000; stroke-width: 0.5; stroke-linecap: round"/>
   </g>
   <g id="line2d_19">
    <path d="M 54.545602 221.381244 
L 57.824941 223.972372 
L 61.10428 226.44434 
L 64.383619 228.797991 
L 67.662958 231.034167 
L 70.942296 233.153711 
L 74.221635 235.157467 
L 77.500974 237.046276 
L 80.780313 238.820982 
L 84.059652 240.482427 
L 87.338991 242.031454 
L 90.61833 243.468906 
L 93.897668 244.795627 
L 97.177007 246.012457 
L 100.456346 247.120241 
L 103.735685 248.119822 
L 107.015024 249.012041 
L 110.294363 249.797742 
L 113.573701 250.477767 
L 116.85304 251.05296 
L 120.132379 251.524163 
L 123.411718 251.892219 
L 126.691057 252.157971 
L 129.970396 252.322261 
L 133.249735 252.385932 
L 136.529073 252.349828 
L 139.808412 252.21479 
L 143.087751 251.981662 
L 146.36709 251.651287 
L 149.646429 251.224507 
L 152.925768 250.702165 
L 156.205106 250.085104 
L 159.484445 249.374166 
L 162.763784 248.570195 
L 166.043123 247.674034 
L 169.322462 246.686524 
L 172.601801 245.608509 
L 175.881139 244.440832 
L 179.160478 243.184335 
L 182.439817 241.839861 
L 185.719156 240.408254 
L 188.998495 238.890355 
L 192.277834 237.287008 
L 195.557173 235.599055 
L 198.836511 233.82734 
L 202.11585 231.972704 
L 205.395189 230.035991 
L 208.674528 228.018044 
L 211.953867 225.919705 
L 215.233206 223.741817 
L 218.512544 221.485224 
L 221.791883 219.150767 
L 225.071222 216.739289 
L 228.350561 214.251634 
L 231.6299 211.688644 
L 234.909239 209.051162 
L 238.188577 206.340031 
L 241.467916 203.556093 
L 244.747255 200.700191 
L 248.026594 197.773169 
L 251.305933 194.775868 
L 254.585272 191.709132 
L 257.864611 188.573804 
L 261.143949 185.370726 
L 264.423288 182.100741 
L 267.702627 178.764692 
L 270.981966 175.363421 
L 274.261305 171.897772 
L 277.540644 168.368588 
L 280.819982 164.77671 
L 284.099321 161.122982 
L 287.37866 157.408247 
L 290.657999 153.633347 
L 293.937338 149.799125 
L 297.216677 145.906425 
L 300.496015 141.956088 
L 303.775354 137.948957 
L 307.054693 133.885877 
L 310.334032 129.767688 
L 313.613371 125.595234 
L 316.89271 121.369358 
L 320.172049 117.090903 
L 323.451387 112.760711 
L 326.730726 108.379625 
L 330.010065 103.948489 
L 333.289404 99.468144 
L 336.568743 94.939433 
L 339.848082 90.3632 
L 343.12742 85.740287 
L 346.406759 81.071536 
L 349.686098 76.357792 
L 352.965437 71.599896 
L 356.244776 66.798691 
L 359.524115 61.955021 
L 362.803454 57.069727 
L 366.082792 52.143653 
L 369.362131 47.177642 
L 372.64147 42.172536 
L 375.920809 37.129177 
L 379.200148 32.04841 
" clip-path="url(#p5593776536)" style="fill: none; stroke: #ff0000; stroke-width: 0.5; stroke-linecap: round"/>
   </g>
   <g id="line2d_20">
    <path d="M 54.545602 212.991024 
L 57.824941 216.549079 
L 61.10428 219.946283 
L 64.383619 223.184194 
L 67.662958 226.264372 
L 70.942296 229.188373 
L 74.221635 231.957757 
L 77.500974 234.574082 
L 80.780313 237.038906 
L 84.059652 239.353788 
L 87.338991 241.520286 
L 90.61833 243.539959 
L 93.897668 245.414364 
L 97.177007 247.14506 
L 100.456346 248.733605 
L 103.735685 250.181559 
L 107.015024 251.490478 
L 110.294363 252.661922 
L 113.573701 253.697449 
L 116.85304 254.598618 
L 120.132379 255.366985 
L 123.411718 256.004111 
L 126.691057 256.511553 
L 129.970396 256.89087 
L 133.249735 257.14362 
L 136.529073 257.271361 
L 139.808412 257.275652 
L 143.087751 257.158051 
L 146.36709 256.920116 
L 149.646429 256.563406 
L 152.925768 256.08948 
L 156.205106 255.499895 
L 159.484445 254.79621 
L 162.763784 253.979983 
L 166.043123 253.052773 
L 169.322462 252.016137 
L 172.601801 250.871636 
L 175.881139 249.620825 
L 179.160478 248.265265 
L 182.439817 246.806513 
L 185.719156 245.246128 
L 188.998495 243.585668 
L 192.277834 241.826692 
L 195.557173 239.970757 
L 198.836511 238.019423 
L 202.11585 235.974247 
L 205.395189 233.836788 
L 208.674528 231.608605 
L 211.953867 229.291255 
L 215.233206 226.886297 
L 218.512544 224.395289 
L 221.791883 221.81979 
L 225.071222 219.161358 
L 228.350561 216.421551 
L 231.6299 213.601929 
L 234.909239 210.704048 
L 238.188577 207.729468 
L 241.467916 204.679747 
L 244.747255 201.556443 
L 248.026594 198.361114 
L 251.305933 195.09532 
L 254.585272 191.760617 
L 257.864611 188.358566 
L 261.143949 184.890723 
L 264.423288 181.358648 
L 267.702627 177.763899 
L 270.981966 174.108033 
L 274.261305 170.39261 
L 277.540644 166.619188 
L 280.819982 162.789325 
L 284.099321 158.904579 
L 287.37866 154.96651 
L 290.657999 150.976674 
L 293.937338 146.936631 
L 297.216677 142.847939 
L 300.496015 138.712157 
L 303.775354 134.530842 
L 307.054693 130.305553 
L 310.334032 126.037848 
L 313.613371 121.729287 
L 316.89271 117.381426 
L 320.172049 112.995825 
L 323.451387 108.574041 
L 326.730726 104.117634 
L 330.010065 99.628161 
L 333.289404 95.107181 
L 336.568743 90.556253 
L 339.848082 85.976934 
L 343.12742 81.370783 
L 346.406759 76.739358 
L 349.686098 72.084218 
L 352.965437 67.406921 
L 356.244776 62.709025 
L 359.524115 57.992089 
L 362.803454 53.257672 
L 366.082792 48.50733 
L 369.362131 43.742624 
L 372.64147 38.965111 
L 375.920809 34.176349 
L 379.200148 29.377897 
" clip-path="url(#p5593776536)" style="fill: none; stroke: #ff0000; stroke-width: 0.5; stroke-linecap: round"/>
   </g>
   <g id="line2d_21">
    <path d="M 54.545602 164.307014 
L 57.824941 170.304025 
L 61.10428 176.069033 
L 64.383619 181.604559 
L 67.662958 186.913123 
L 70.942296 191.997245 
L 74.221635 196.859447 
L 77.500974 201.502249 
L 80.780313 205.928172 
L 84.059652 210.139735 
L 87.338991 214.139461 
L 90.61833 217.929869 
L 93.897668 221.513481 
L 97.177007 224.892816 
L 100.456346 228.070395 
L 103.735685 231.04874 
L 107.015024 233.830371 
L 110.294363 236.417807 
L 113.573701 238.813571 
L 116.85304 241.020183 
L 120.132379 243.040162 
L 123.411718 244.876031 
L 126.691057 246.530309 
L 129.970396 248.005517 
L 133.249735 249.304176 
L 136.529073 250.428806 
L 139.808412 251.381929 
L 143.087751 252.166064 
L 146.36709 252.783732 
L 149.646429 253.237455 
L 152.925768 253.529752 
L 156.205106 253.663144 
L 159.484445 253.640152 
L 162.763784 253.463297 
L 166.043123 253.135098 
L 169.322462 252.658078 
L 172.601801 252.034756 
L 175.881139 251.267653 
L 179.160478 250.359289 
L 182.439817 249.312186 
L 185.719156 248.128864 
L 188.998495 246.811843 
L 192.277834 245.363645 
L 195.557173 243.78679 
L 198.836511 242.083797 
L 202.11585 240.25719 
L 205.395189 238.309486 
L 208.674528 236.243208 
L 211.953867 234.060877 
L 215.233206 231.765011 
L 218.512544 229.358134 
L 221.791883 226.842764 
L 225.071222 224.221422 
L 228.350561 221.49663 
L 231.6299 218.670907 
L 234.909239 215.746776 
L 238.188577 212.726755 
L 241.467916 209.613365 
L 244.747255 206.409129 
L 248.026594 203.116565 
L 251.305933 199.738195 
L 254.585272 196.276539 
L 257.864611 192.734118 
L 261.143949 189.113452 
L 264.423288 185.417063 
L 267.702627 181.64747 
L 270.981966 177.807195 
L 274.261305 173.898758 
L 277.540644 169.92468 
L 280.819982 165.887481 
L 284.099321 161.789682 
L 287.37866 157.633803 
L 290.657999 153.422366 
L 293.937338 149.157891 
L 297.216677 144.842898 
L 300.496015 140.479908 
L 303.775354 136.071442 
L 307.054693 131.620021 
L 310.334032 127.128164 
L 313.613371 122.598394 
L 316.89271 118.033229 
L 320.172049 113.435192 
L 323.451387 108.806802 
L 326.730726 104.15058 
L 330.010065 99.469047 
L 333.289404 94.764724 
L 336.568743 90.040131 
L 339.848082 85.297788 
L 343.12742 80.540217 
L 346.406759 75.769938 
L 349.686098 70.989472 
L 352.965437 66.201338 
L 356.244776 61.408059 
L 359.524115 56.612155 
L 362.803454 51.816145 
L 366.082792 47.022551 
L 369.362131 42.233894 
L 372.64147 37.452694 
L 375.920809 32.681472 
L 379.200148 27.922748 
" clip-path="url(#p5593776536)" style="fill: none; stroke: #ff0000; stroke-width: 0.5; stroke-linecap: round"/>
   </g>
   <g id="line2d_22">
    <path d="M 54.545602 200.730005 
L 57.824941 204.402271 
L 61.10428 207.925219 
L 64.383619 211.299991 
L 67.662958 214.527731 
L 70.942296 217.609583 
L 74.221635 220.546691 
L 77.500974 223.340197 
L 80.780313 225.991246 
L 84.059652 228.50098 
L 87.338991 230.870544 
L 90.61833 233.10108 
L 93.897668 235.193733 
L 97.177007 237.149645 
L 100.456346 238.969961 
L 103.735685 240.655823 
L 107.015024 242.208376 
L 110.294363 243.628762 
L 113.573701 244.918126 
L 116.85304 246.077611 
L 120.132379 247.10836 
L 123.411718 248.011516 
L 126.691057 248.788224 
L 129.970396 249.439627 
L 133.249735 249.966868 
L 136.529073 250.37109 
L 139.808412 250.653438 
L 143.087751 250.815055 
L 146.36709 250.857084 
L 149.646429 250.780669 
L 152.925768 250.586953 
L 156.205106 250.27708 
L 159.484445 249.852193 
L 162.763784 249.313435 
L 166.043123 248.661951 
L 169.322462 247.898884 
L 172.601801 247.025377 
L 175.881139 246.042574 
L 179.160478 244.951618 
L 182.439817 243.753653 
L 185.719156 242.449823 
L 188.998495 241.041269 
L 192.277834 239.529138 
L 195.557173 237.914571 
L 198.836511 236.198712 
L 202.11585 234.382705 
L 205.395189 232.467693 
L 208.674528 230.45482 
L 211.953867 228.345229 
L 215.233206 226.140064 
L 218.512544 223.840469 
L 221.791883 221.447586 
L 225.071222 218.962559 
L 228.350561 216.386532 
L 231.6299 213.720648 
L 234.909239 210.966051 
L 238.188577 208.123885 
L 241.467916 205.195292 
L 244.747255 202.181416 
L 248.026594 199.083401 
L 251.305933 195.902391 
L 254.585272 192.639528 
L 257.864611 189.295956 
L 261.143949 185.872819 
L 264.423288 182.371261 
L 267.702627 178.792424 
L 270.981966 175.137452 
L 274.261305 171.407489 
L 277.540644 167.603679 
L 280.819982 163.727164 
L 284.099321 159.779088 
L 287.37866 155.760595 
L 290.657999 151.672829 
L 293.937338 147.516932 
L 297.216677 143.294048 
L 300.496015 139.005321 
L 303.775354 134.651895 
L 307.054693 130.234912 
L 310.334032 125.755516 
L 313.613371 121.214851 
L 316.89271 116.614061 
L 320.172049 111.954288 
L 323.451387 107.236676 
L 326.730726 102.462369 
L 330.010065 97.632511 
L 333.289404 92.748244 
L 336.568743 87.810712 
L 339.848082 82.821059 
L 343.12742 77.780428 
L 346.406759 72.689964 
L 349.686098 67.550808 
L 352.965437 62.364105 
L 356.244776 57.130998 
L 359.524115 51.852631 
L 362.803454 46.530148 
L 366.082792 41.164691 
L 369.362131 35.757404 
L 372.64147 30.309431 
L 375.920809 24.821915 
L 379.200148 19.296 
" clip-path="url(#p5593776536)" style="fill: none; stroke: #ff0000; stroke-width: 0.5; stroke-linecap: round"/>
   </g>
   <g id="line2d_23">
    <path d="M 54.545602 195.465054 
L 57.824941 199.385663 
L 61.10428 203.155214 
L 64.383619 206.774788 
L 67.662958 210.245463 
L 70.942296 213.56832 
L 74.221635 216.744439 
L 77.500974 219.774897 
L 80.780313 222.660776 
L 84.059652 225.403154 
L 87.338991 228.003112 
L 90.61833 230.461727 
L 93.897668 232.780081 
L 97.177007 234.959253 
L 100.456346 237.000321 
L 103.735685 238.904366 
L 107.015024 240.672467 
L 110.294363 242.305703 
L 113.573701 243.805155 
L 116.85304 245.171901 
L 120.132379 246.407021 
L 123.411718 247.511594 
L 126.691057 248.486701 
L 129.970396 249.33342 
L 133.249735 250.052832 
L 136.529073 250.646014 
L 139.808412 251.114048 
L 143.087751 251.458013 
L 146.36709 251.678987 
L 149.646429 251.778052 
L 152.925768 251.756285 
L 156.205106 251.614766 
L 159.484445 251.354576 
L 162.763784 250.976794 
L 166.043123 250.482498 
L 169.322462 249.872769 
L 172.601801 249.148686 
L 175.881139 248.311329 
L 179.160478 247.361777 
L 182.439817 246.301109 
L 185.719156 245.130406 
L 188.998495 243.850746 
L 192.277834 242.463209 
L 195.557173 240.968875 
L 198.836511 239.368823 
L 202.11585 237.664133 
L 205.395189 235.855884 
L 208.674528 233.945155 
L 211.953867 231.933026 
L 215.233206 229.820577 
L 218.512544 227.608888 
L 221.791883 225.299036 
L 225.071222 222.892103 
L 228.350561 220.389168 
L 231.6299 217.79131 
L 234.909239 215.099608 
L 238.188577 212.315143 
L 241.467916 209.438993 
L 244.747255 206.472238 
L 248.026594 203.415958 
L 251.305933 200.271232 
L 254.585272 197.03914 
L 257.864611 193.720761 
L 261.143949 190.317175 
L 264.423288 186.829461 
L 267.702627 183.258698 
L 270.981966 179.605967 
L 274.261305 175.872346 
L 277.540644 172.058915 
L 280.819982 168.166755 
L 284.099321 164.196943 
L 287.37866 160.15056 
L 290.657999 156.028685 
L 293.937338 151.832398 
L 297.216677 147.562778 
L 300.496015 143.220905 
L 303.775354 138.807858 
L 307.054693 134.324717 
L 310.334032 129.772561 
L 313.613371 125.152469 
L 316.89271 120.465522 
L 320.172049 115.712799 
L 323.451387 110.895379 
L 326.730726 106.014341 
L 330.010065 101.070766 
L 333.289404 96.065732 
L 336.568743 91.00032 
L 339.848082 85.875609 
L 343.12742 80.692677 
L 346.406759 75.452606 
L 349.686098 70.156473 
L 352.965437 64.80536 
L 356.244776 59.400344 
L 359.524115 53.942507 
L 362.803454 48.432926 
L 366.082792 42.872683 
L 369.362131 37.262855 
L 372.64147 31.604524 
L 375.920809 25.898767 
L 379.200148 20.146666 
" clip-path="url(#p5593776536)" style="fill: none; stroke: #ff0000; stroke-width: 0.5; stroke-linecap: round"/>
   </g>
   <g id="line2d_24">
    <path d="M 54.545602 208.436728 
L 57.824941 212.214106 
L 61.10428 215.825319 
L 64.383619 219.271984 
L 67.662958 222.555718 
L 70.942296 225.678135 
L 74.221635 228.640854 
L 77.500974 231.445489 
L 80.780313 234.093657 
L 84.059652 236.586975 
L 87.338991 238.927058 
L 90.61833 241.115522 
L 93.897668 243.153984 
L 97.177007 245.044061 
L 100.456346 246.787368 
L 103.735685 248.385521 
L 107.015024 249.840137 
L 110.294363 251.152831 
L 113.573701 252.325221 
L 116.85304 253.358922 
L 120.132379 254.255551 
L 123.411718 255.016723 
L 126.691057 255.644055 
L 129.970396 256.139163 
L 133.249735 256.503664 
L 136.529073 256.739173 
L 139.808412 256.847307 
L 143.087751 256.829682 
L 146.36709 256.687914 
L 149.646429 256.42362 
L 152.925768 256.038415 
L 156.205106 255.533915 
L 159.484445 254.911738 
L 162.763784 254.173499 
L 166.043123 253.320815 
L 169.322462 252.355301 
L 172.601801 251.278573 
L 175.881139 250.092249 
L 179.160478 248.797944 
L 182.439817 247.397275 
L 185.719156 245.891857 
L 188.998495 244.283307 
L 192.277834 242.573241 
L 195.557173 240.763275 
L 198.836511 238.855026 
L 202.11585 236.85011 
L 205.395189 234.750142 
L 208.674528 232.55674 
L 211.953867 230.271519 
L 215.233206 227.896095 
L 218.512544 225.432085 
L 221.791883 222.881105 
L 225.071222 220.244771 
L 228.350561 217.5247 
L 231.6299 214.722507 
L 234.909239 211.839808 
L 238.188577 208.878221 
L 241.467916 205.839361 
L 244.747255 202.724844 
L 248.026594 199.536287 
L 251.305933 196.275306 
L 254.585272 192.943517 
L 257.864611 189.542536 
L 261.143949 186.073979 
L 264.423288 182.539463 
L 267.702627 178.940604 
L 270.981966 175.279017 
L 274.261305 171.556321 
L 277.540644 167.774129 
L 280.819982 163.934059 
L 284.099321 160.037727 
L 287.37866 156.086749 
L 290.657999 152.082742 
L 293.937338 148.027321 
L 297.216677 143.922102 
L 300.496015 139.768703 
L 303.775354 135.568739 
L 307.054693 131.323826 
L 310.334032 127.03558 
L 313.613371 122.705618 
L 316.89271 118.335557 
L 320.172049 113.927011 
L 323.451387 109.481598 
L 326.730726 105.000933 
L 330.010065 100.486633 
L 333.289404 95.940314 
L 336.568743 91.363592 
L 339.848082 86.758084 
L 343.12742 82.125405 
L 346.406759 77.467172 
L 349.686098 72.785001 
L 352.965437 68.080508 
L 356.244776 63.35531 
L 359.524115 58.611022 
L 362.803454 53.849261 
L 366.082792 49.071643 
L 369.362131 44.279785 
L 372.64147 39.475302 
L 375.920809 34.65981 
L 379.200148 29.834927 
" clip-path="url(#p5593776536)" style="fill: none; stroke: #ff0000; stroke-width: 0.5; stroke-linecap: round"/>
   </g>
   <g id="line2d_25"/>
   <g id="line2d_26">
    <defs>
     <path id="m0714225f4f" d="M -2.4 2.4 
L 2.4 -2.4 
M -2.4 -2.4 
L 2.4 2.4 
" style="stroke: #000000"/>
    </defs>
    <g clip-path="url(#p5593776536)">
     <use xlink:href="#m0714225f4f" x="356.349692" y="57.084197" style="stroke: #000000"/>
     <use xlink:href="#m0714225f4f" x="157.258364" y="257.211219" style="stroke: #000000"/>
     <use xlink:href="#m0714225f4f" x="114.25568" y="249.144169" style="stroke: #000000"/>
     <use xlink:href="#m0714225f4f" x="120.957027" y="250.328613" style="stroke: #000000"/>
     <use xlink:href="#m0714225f4f" x="238.860114" y="203.849342" style="stroke: #000000"/>
     <use xlink:href="#m0714225f4f" x="247.891897" y="198.655109" style="stroke: #000000"/>
     <use xlink:href="#m0714225f4f" x="367.679625" y="52.539495" style="stroke: #000000"/>
     <use xlink:href="#m0714225f4f" x="266.602516" y="187.369225" style="stroke: #000000"/>
     <use xlink:href="#m0714225f4f" x="297.681546" y="141.329322" style="stroke: #000000"/>
     <use xlink:href="#m0714225f4f" x="266.730032" y="187.582092" style="stroke: #000000"/>
    </g>
   </g>
   <g id="line2d_27">
    <path d="M 54.545602 226.633553 
L 57.824941 228.670145 
L 61.10428 230.622754 
L 64.383619 232.49138 
L 67.662958 234.276023 
L 70.942296 235.976683 
L 74.221635 237.593359 
L 77.500974 239.126053 
L 80.780313 240.574763 
L 84.059652 241.939489 
L 87.338991 243.220233 
L 90.61833 244.416994 
L 93.897668 245.529771 
L 97.177007 246.558565 
L 100.456346 247.503376 
L 103.735685 248.364204 
L 107.015024 249.141048 
L 110.294363 249.833909 
L 113.573701 250.442788 
L 116.85304 250.967682 
L 120.132379 251.408594 
L 123.411718 251.765523 
L 126.691057 252.038468 
L 129.970396 252.22743 
L 133.249735 252.332409 
L 136.529073 252.353405 
L 139.808412 252.290418 
L 143.087751 252.143447 
L 146.36709 251.912493 
L 149.646429 251.597556 
L 152.925768 251.198636 
L 156.205106 250.715733 
L 159.484445 250.148846 
L 162.763784 249.497977 
L 166.043123 248.763124 
L 169.322462 247.944288 
L 172.601801 247.041468 
L 175.881139 246.054666 
L 179.160478 244.98388 
L 182.439817 243.829111 
L 185.719156 242.590359 
L 188.998495 241.267624 
L 192.277834 239.860905 
L 195.557173 238.370204 
L 198.836511 236.795519 
L 202.11585 235.136851 
L 205.395189 233.3942 
L 208.674528 231.567565 
L 211.953867 229.656948 
L 215.233206 227.662347 
L 218.512544 225.583763 
L 221.791883 223.421196 
L 225.071222 221.174645 
L 228.350561 218.844112 
L 231.6299 216.429595 
L 234.909239 213.931095 
L 238.188577 211.348612 
L 241.467916 208.682146 
L 244.747255 205.931696 
L 248.026594 203.097264 
L 251.305933 200.178848 
L 254.585272 197.176449 
L 257.864611 194.090066 
L 261.143949 190.919701 
L 264.423288 187.665352 
L 267.702627 184.32702 
L 270.981966 180.904705 
L 274.261305 177.398407 
L 277.540644 173.808126 
L 280.819982 170.133861 
L 284.099321 166.375613 
L 287.37866 162.533382 
L 290.657999 158.607168 
L 293.937338 154.596971 
L 297.216677 150.50279 
L 300.496015 146.324626 
L 303.775354 142.062479 
L 307.054693 137.716349 
L 310.334032 133.286236 
L 313.613371 128.772139 
L 316.89271 124.17406 
L 320.172049 119.491997 
L 323.451387 114.725951 
L 326.730726 109.875921 
L 330.010065 104.941909 
L 333.289404 99.923913 
L 336.568743 94.821934 
L 339.848082 89.635972 
L 343.12742 84.366027 
L 346.406759 79.012099 
L 349.686098 73.574187 
L 352.965437 68.052292 
L 356.244776 62.446414 
L 359.524115 56.756553 
L 362.803454 50.982709 
L 366.082792 45.124881 
L 369.362131 39.18307 
L 372.64147 33.157276 
L 375.920809 27.047499 
L 379.200148 20.853739 
" clip-path="url(#p5593776536)" style="fill: none; stroke: #1f77b4; stroke-width: 1.2; stroke-linecap: round"/>
   </g>
   <g id="patch_3">
    <path d="M 38.312875 252.35603 
L 38.312875 46.576216 
" style="fill: none; stroke: #262626; stroke-linejoin: miter; stroke-linecap: square"/>
   </g>
   <g id="patch_4">
    <path d="M 54.545602 273.312 
L 379.200148 273.312 
" style="fill: none; stroke: #262626; stroke-linejoin: miter; stroke-linecap: square"/>
   </g>
   <g id="legend_1">
    <g id="line2d_28">
     <path d="M 46.232875 18.338875 
L 55.032875 18.338875 
L 63.832875 18.338875 
" style="fill: none; stroke: #ff0000; stroke-width: 0.5; stroke-linecap: round"/>
    </g>
    <g id="text_17">
     <!-- Posterior samples -->
     <g style="fill: #262626" transform="translate(70.872875 21.418875) scale(0.088 -0.088)">
      <defs>
       <path id="ArialMT-50" d="M 494 0 
L 494 4581 
L 2222 4581 
Q 2678 4581 2919 4538 
Q 3256 4481 3484 4323 
Q 3713 4166 3852 3881 
Q 3991 3597 3991 3256 
Q 3991 2672 3619 2267 
Q 3247 1863 2275 1863 
L 1100 1863 
L 1100 0 
L 494 0 
z
M 1100 2403 
L 2284 2403 
Q 2872 2403 3119 2622 
Q 3366 2841 3366 3238 
Q 3366 3525 3220 3729 
Q 3075 3934 2838 4000 
Q 2684 4041 2272 4041 
L 1100 4041 
L 1100 2403 
z
" transform="scale(0.015625)"/>
       <path id="ArialMT-6f" d="M 213 1659 
Q 213 2581 725 3025 
Q 1153 3394 1769 3394 
Q 2453 3394 2887 2945 
Q 3322 2497 3322 1706 
Q 3322 1066 3130 698 
Q 2938 331 2570 128 
Q 2203 -75 1769 -75 
Q 1072 -75 642 372 
Q 213 819 213 1659 
z
M 791 1659 
Q 791 1022 1069 705 
Q 1347 388 1769 388 
Q 2188 388 2466 706 
Q 2744 1025 2744 1678 
Q 2744 2294 2464 2611 
Q 2184 2928 1769 2928 
Q 1347 2928 1069 2612 
Q 791 2297 791 1659 
z
" transform="scale(0.015625)"/>
       <path id="ArialMT-73" d="M 197 991 
L 753 1078 
Q 800 744 1014 566 
Q 1228 388 1613 388 
Q 2000 388 2187 545 
Q 2375 703 2375 916 
Q 2375 1106 2209 1216 
Q 2094 1291 1634 1406 
Q 1016 1563 777 1677 
Q 538 1791 414 1992 
Q 291 2194 291 2438 
Q 291 2659 392 2848 
Q 494 3038 669 3163 
Q 800 3259 1026 3326 
Q 1253 3394 1513 3394 
Q 1903 3394 2198 3281 
Q 2494 3169 2634 2976 
Q 2775 2784 2828 2463 
L 2278 2388 
Q 2241 2644 2061 2787 
Q 1881 2931 1553 2931 
Q 1166 2931 1000 2803 
Q 834 2675 834 2503 
Q 834 2394 903 2306 
Q 972 2216 1119 2156 
Q 1203 2125 1616 2013 
Q 2213 1853 2448 1751 
Q 2684 1650 2818 1456 
Q 2953 1263 2953 975 
Q 2953 694 2789 445 
Q 2625 197 2315 61 
Q 2006 -75 1616 -75 
Q 969 -75 630 194 
Q 291 463 197 991 
z
" transform="scale(0.015625)"/>
       <path id="ArialMT-74" d="M 1650 503 
L 1731 6 
Q 1494 -44 1306 -44 
Q 1000 -44 831 53 
Q 663 150 594 308 
Q 525 466 525 972 
L 525 2881 
L 113 2881 
L 113 3319 
L 525 3319 
L 525 4141 
L 1084 4478 
L 1084 3319 
L 1650 3319 
L 1650 2881 
L 1084 2881 
L 1084 941 
Q 1084 700 1114 631 
Q 1144 563 1211 522 
Q 1278 481 1403 481 
Q 1497 481 1650 503 
z
" transform="scale(0.015625)"/>
       <path id="ArialMT-65" d="M 2694 1069 
L 3275 997 
Q 3138 488 2766 206 
Q 2394 -75 1816 -75 
Q 1088 -75 661 373 
Q 234 822 234 1631 
Q 234 2469 665 2931 
Q 1097 3394 1784 3394 
Q 2450 3394 2872 2941 
Q 3294 2488 3294 1666 
Q 3294 1616 3291 1516 
L 816 1516 
Q 847 969 1125 678 
Q 1403 388 1819 388 
Q 2128 388 2347 550 
Q 2566 713 2694 1069 
z
M 847 1978 
L 2700 1978 
Q 2663 2397 2488 2606 
Q 2219 2931 1791 2931 
Q 1403 2931 1139 2672 
Q 875 2413 847 1978 
z
" transform="scale(0.015625)"/>
       <path id="ArialMT-72" d="M 416 0 
L 416 3319 
L 922 3319 
L 922 2816 
Q 1116 3169 1280 3281 
Q 1444 3394 1641 3394 
Q 1925 3394 2219 3213 
L 2025 2691 
Q 1819 2813 1613 2813 
Q 1428 2813 1281 2702 
Q 1134 2591 1072 2394 
Q 978 2094 978 1738 
L 978 0 
L 416 0 
z
" transform="scale(0.015625)"/>
       <path id="ArialMT-69" d="M 425 3934 
L 425 4581 
L 988 4581 
L 988 3934 
L 425 3934 
z
M 425 0 
L 425 3319 
L 988 3319 
L 988 0 
L 425 0 
z
" transform="scale(0.015625)"/>
       <path id="ArialMT-20" transform="scale(0.015625)"/>
       <path id="ArialMT-61" d="M 2588 409 
Q 2275 144 1986 34 
Q 1697 -75 1366 -75 
Q 819 -75 525 192 
Q 231 459 231 875 
Q 231 1119 342 1320 
Q 453 1522 633 1644 
Q 813 1766 1038 1828 
Q 1203 1872 1538 1913 
Q 2219 1994 2541 2106 
Q 2544 2222 2544 2253 
Q 2544 2597 2384 2738 
Q 2169 2928 1744 2928 
Q 1347 2928 1158 2789 
Q 969 2650 878 2297 
L 328 2372 
Q 403 2725 575 2942 
Q 747 3159 1072 3276 
Q 1397 3394 1825 3394 
Q 2250 3394 2515 3294 
Q 2781 3194 2906 3042 
Q 3031 2891 3081 2659 
Q 3109 2516 3109 2141 
L 3109 1391 
Q 3109 606 3145 398 
Q 3181 191 3288 0 
L 2700 0 
Q 2613 175 2588 409 
z
M 2541 1666 
Q 2234 1541 1622 1453 
Q 1275 1403 1131 1340 
Q 988 1278 909 1158 
Q 831 1038 831 891 
Q 831 666 1001 516 
Q 1172 366 1500 366 
Q 1825 366 2078 508 
Q 2331 650 2450 897 
Q 2541 1088 2541 1459 
L 2541 1666 
z
" transform="scale(0.015625)"/>
       <path id="ArialMT-6d" d="M 422 0 
L 422 3319 
L 925 3319 
L 925 2853 
Q 1081 3097 1340 3245 
Q 1600 3394 1931 3394 
Q 2300 3394 2536 3241 
Q 2772 3088 2869 2813 
Q 3263 3394 3894 3394 
Q 4388 3394 4653 3120 
Q 4919 2847 4919 2278 
L 4919 0 
L 4359 0 
L 4359 2091 
Q 4359 2428 4304 2576 
Q 4250 2725 4106 2815 
Q 3963 2906 3769 2906 
Q 3419 2906 3187 2673 
Q 2956 2441 2956 1928 
L 2956 0 
L 2394 0 
L 2394 2156 
Q 2394 2531 2256 2718 
Q 2119 2906 1806 2906 
Q 1569 2906 1367 2781 
Q 1166 2656 1075 2415 
Q 984 2175 984 1722 
L 984 0 
L 422 0 
z
" transform="scale(0.015625)"/>
       <path id="ArialMT-70" d="M 422 -1272 
L 422 3319 
L 934 3319 
L 934 2888 
Q 1116 3141 1344 3267 
Q 1572 3394 1897 3394 
Q 2322 3394 2647 3175 
Q 2972 2956 3137 2557 
Q 3303 2159 3303 1684 
Q 3303 1175 3120 767 
Q 2938 359 2589 142 
Q 2241 -75 1856 -75 
Q 1575 -75 1351 44 
Q 1128 163 984 344 
L 984 -1272 
L 422 -1272 
z
M 931 1641 
Q 931 1000 1190 694 
Q 1450 388 1819 388 
Q 2194 388 2461 705 
Q 2728 1022 2728 1688 
Q 2728 2322 2467 2637 
Q 2206 2953 1844 2953 
Q 1484 2953 1207 2617 
Q 931 2281 931 1641 
z
" transform="scale(0.015625)"/>
       <path id="ArialMT-6c" d="M 409 0 
L 409 4581 
L 972 4581 
L 972 0 
L 409 0 
z
" transform="scale(0.015625)"/>
      </defs>
      <use xlink:href="#ArialMT-50"/>
      <use xlink:href="#ArialMT-6f" x="66.699219"/>
      <use xlink:href="#ArialMT-73" x="122.314453"/>
      <use xlink:href="#ArialMT-74" x="172.314453"/>
      <use xlink:href="#ArialMT-65" x="200.097656"/>
      <use xlink:href="#ArialMT-72" x="255.712891"/>
      <use xlink:href="#ArialMT-69" x="289.013672"/>
      <use xlink:href="#ArialMT-6f" x="311.230469"/>
      <use xlink:href="#ArialMT-72" x="366.845703"/>
      <use xlink:href="#ArialMT-20" x="400.146484"/>
      <use xlink:href="#ArialMT-73" x="427.929688"/>
      <use xlink:href="#ArialMT-61" x="477.929688"/>
      <use xlink:href="#ArialMT-6d" x="533.544922"/>
      <use xlink:href="#ArialMT-70" x="616.845703"/>
      <use xlink:href="#ArialMT-6c" x="672.460938"/>
      <use xlink:href="#ArialMT-65" x="694.677734"/>
      <use xlink:href="#ArialMT-73" x="750.292969"/>
     </g>
    </g>
    <g id="line2d_29">
     <g>
      <use xlink:href="#m0714225f4f" x="55.032875" y="30.78675" style="stroke: #000000"/>
     </g>
    </g>
    <g id="text_18">
     <!-- Observed data -->
     <g style="fill: #262626" transform="translate(70.872875 33.86675) scale(0.088 -0.088)">
      <defs>
       <path id="ArialMT-4f" d="M 309 2231 
Q 309 3372 921 4017 
Q 1534 4663 2503 4663 
Q 3138 4663 3647 4359 
Q 4156 4056 4423 3514 
Q 4691 2972 4691 2284 
Q 4691 1588 4409 1038 
Q 4128 488 3612 205 
Q 3097 -78 2500 -78 
Q 1853 -78 1343 234 
Q 834 547 571 1087 
Q 309 1628 309 2231 
z
M 934 2222 
Q 934 1394 1379 917 
Q 1825 441 2497 441 
Q 3181 441 3623 922 
Q 4066 1403 4066 2288 
Q 4066 2847 3877 3264 
Q 3688 3681 3323 3911 
Q 2959 4141 2506 4141 
Q 1863 4141 1398 3698 
Q 934 3256 934 2222 
z
" transform="scale(0.015625)"/>
       <path id="ArialMT-62" d="M 941 0 
L 419 0 
L 419 4581 
L 981 4581 
L 981 2947 
Q 1338 3394 1891 3394 
Q 2197 3394 2470 3270 
Q 2744 3147 2920 2923 
Q 3097 2700 3197 2384 
Q 3297 2069 3297 1709 
Q 3297 856 2875 390 
Q 2453 -75 1863 -75 
Q 1275 -75 941 416 
L 941 0 
z
M 934 1684 
Q 934 1088 1097 822 
Q 1363 388 1816 388 
Q 2184 388 2453 708 
Q 2722 1028 2722 1663 
Q 2722 2313 2464 2622 
Q 2206 2931 1841 2931 
Q 1472 2931 1203 2611 
Q 934 2291 934 1684 
z
" transform="scale(0.015625)"/>
       <path id="ArialMT-76" d="M 1344 0 
L 81 3319 
L 675 3319 
L 1388 1331 
Q 1503 1009 1600 663 
Q 1675 925 1809 1294 
L 2547 3319 
L 3125 3319 
L 1869 0 
L 1344 0 
z
" transform="scale(0.015625)"/>
       <path id="ArialMT-64" d="M 2575 0 
L 2575 419 
Q 2259 -75 1647 -75 
Q 1250 -75 917 144 
Q 584 363 401 755 
Q 219 1147 219 1656 
Q 219 2153 384 2558 
Q 550 2963 881 3178 
Q 1213 3394 1622 3394 
Q 1922 3394 2156 3267 
Q 2391 3141 2538 2938 
L 2538 4581 
L 3097 4581 
L 3097 0 
L 2575 0 
z
M 797 1656 
Q 797 1019 1065 703 
Q 1334 388 1700 388 
Q 2069 388 2326 689 
Q 2584 991 2584 1609 
Q 2584 2291 2321 2609 
Q 2059 2928 1675 2928 
Q 1300 2928 1048 2622 
Q 797 2316 797 1656 
z
" transform="scale(0.015625)"/>
      </defs>
      <use xlink:href="#ArialMT-4f"/>
      <use xlink:href="#ArialMT-62" x="77.783203"/>
      <use xlink:href="#ArialMT-73" x="133.398438"/>
      <use xlink:href="#ArialMT-65" x="183.398438"/>
      <use xlink:href="#ArialMT-72" x="239.013672"/>
      <use xlink:href="#ArialMT-76" x="272.314453"/>
      <use xlink:href="#ArialMT-65" x="322.314453"/>
      <use xlink:href="#ArialMT-64" x="377.929688"/>
      <use xlink:href="#ArialMT-20" x="433.544922"/>
      <use xlink:href="#ArialMT-64" x="461.328125"/>
      <use xlink:href="#ArialMT-61" x="516.943359"/>
      <use xlink:href="#ArialMT-74" x="572.558594"/>
      <use xlink:href="#ArialMT-61" x="600.341797"/>
     </g>
    </g>
    <g id="line2d_30">
     <path d="M 46.232875 43.341875 
L 55.032875 43.341875 
L 63.832875 43.341875 
" style="fill: none; stroke: #1f77b4; stroke-width: 1.2; stroke-linecap: round"/>
    </g>
    <g id="text_19">
     <!-- True response surface -->
     <g style="fill: #262626" transform="translate(70.872875 46.421875) scale(0.088 -0.088)">
      <defs>
       <path id="ArialMT-54" d="M 1659 0 
L 1659 4041 
L 150 4041 
L 150 4581 
L 3781 4581 
L 3781 4041 
L 2266 4041 
L 2266 0 
L 1659 0 
z
" transform="scale(0.015625)"/>
       <path id="ArialMT-75" d="M 2597 0 
L 2597 488 
Q 2209 -75 1544 -75 
Q 1250 -75 995 37 
Q 741 150 617 320 
Q 494 491 444 738 
Q 409 903 409 1263 
L 409 3319 
L 972 3319 
L 972 1478 
Q 972 1038 1006 884 
Q 1059 663 1231 536 
Q 1403 409 1656 409 
Q 1909 409 2131 539 
Q 2353 669 2445 892 
Q 2538 1116 2538 1541 
L 2538 3319 
L 3100 3319 
L 3100 0 
L 2597 0 
z
" transform="scale(0.015625)"/>
       <path id="ArialMT-6e" d="M 422 0 
L 422 3319 
L 928 3319 
L 928 2847 
Q 1294 3394 1984 3394 
Q 2284 3394 2536 3286 
Q 2788 3178 2913 3003 
Q 3038 2828 3088 2588 
Q 3119 2431 3119 2041 
L 3119 0 
L 2556 0 
L 2556 2019 
Q 2556 2363 2490 2533 
Q 2425 2703 2258 2804 
Q 2091 2906 1866 2906 
Q 1506 2906 1245 2678 
Q 984 2450 984 1813 
L 984 0 
L 422 0 
z
" transform="scale(0.015625)"/>
       <path id="ArialMT-66" d="M 556 0 
L 556 2881 
L 59 2881 
L 59 3319 
L 556 3319 
L 556 3672 
Q 556 4006 616 4169 
Q 697 4388 901 4523 
Q 1106 4659 1475 4659 
Q 1713 4659 2000 4603 
L 1916 4113 
Q 1741 4144 1584 4144 
Q 1328 4144 1222 4034 
Q 1116 3925 1116 3625 
L 1116 3319 
L 1763 3319 
L 1763 2881 
L 1116 2881 
L 1116 0 
L 556 0 
z
" transform="scale(0.015625)"/>
       <path id="ArialMT-63" d="M 2588 1216 
L 3141 1144 
Q 3050 572 2676 248 
Q 2303 -75 1759 -75 
Q 1078 -75 664 370 
Q 250 816 250 1647 
Q 250 2184 428 2587 
Q 606 2991 970 3192 
Q 1334 3394 1763 3394 
Q 2303 3394 2647 3120 
Q 2991 2847 3088 2344 
L 2541 2259 
Q 2463 2594 2264 2762 
Q 2066 2931 1784 2931 
Q 1359 2931 1093 2626 
Q 828 2322 828 1663 
Q 828 994 1084 691 
Q 1341 388 1753 388 
Q 2084 388 2306 591 
Q 2528 794 2588 1216 
z
" transform="scale(0.015625)"/>
      </defs>
      <use xlink:href="#ArialMT-54"/>
      <use xlink:href="#ArialMT-72" x="57.333984"/>
      <use xlink:href="#ArialMT-75" x="90.634766"/>
      <use xlink:href="#ArialMT-65" x="146.25"/>
      <use xlink:href="#ArialMT-20" x="201.865234"/>
      <use xlink:href="#ArialMT-72" x="229.648438"/>
      <use xlink:href="#ArialMT-65" x="262.949219"/>
      <use xlink:href="#ArialMT-73" x="318.564453"/>
      <use xlink:href="#ArialMT-70" x="368.564453"/>
      <use xlink:href="#ArialMT-6f" x="424.179688"/>
      <use xlink:href="#ArialMT-6e" x="479.794922"/>
      <use xlink:href="#ArialMT-73" x="535.410156"/>
      <use xlink:href="#ArialMT-65" x="585.410156"/>
      <use xlink:href="#ArialMT-20" x="641.025391"/>
      <use xlink:href="#ArialMT-73" x="668.808594"/>
      <use xlink:href="#ArialMT-75" x="718.808594"/>
      <use xlink:href="#ArialMT-72" x="774.423828"/>
      <use xlink:href="#ArialMT-66" x="807.724609"/>
      <use xlink:href="#ArialMT-61" x="835.507812"/>
      <use xlink:href="#ArialMT-63" x="891.123047"/>
      <use xlink:href="#ArialMT-65" x="941.123047"/>
     </g>
    </g>
   </g>
  </g>
 </g>
 <defs>
  <clipPath id="p5593776536">
   <rect x="38.312875" y="7.2" width="357.12" height="266.112"/>
  </clipPath>
 </defs>
</svg>