<?xml version="1.0" encoding="utf-8" standalone="no"?>
<!DOCTYPE svg PUBLIC "-//W3C//DTD SVG 1.1//EN"
  "http://www.w3.org/Graphics/SVG/1.1/DTD/svg11.dtd">
<svg xmlns:xlink="http://www.w3.org/1999/xlink" width="407.620875pt" height="309.979875pt" viewBox="0 0 407.620875 309.979875" xmlns="http://www.w3.org/2000/svg" version="1.1">
 <metadata>
  <rdf:RDF xmlns:dc="http://purl.org/dc/elements/1.1/" xmlns:cc="http://creativecommons.org/ns#" xmlns:rdf="http://www.w3.org/1999/02/22-rdf-syntax-ns#">
   <cc:Work>
    <dc:type rdf:resource="http://purl.org/dc/dcmitype/StillImage"/>
    <dc:date>2023-09-30T21:48:33.389836</dc:date>
    <dc:format>image/svg+xml</dc:format>
    <dc:creator>
     <cc:Agent>
      <dc:title>Matplotlib v3.7.1, https://matplotlib.org/</dc:title>
     </cc:Agent>
    </dc:creator>
   </cc:Work>
  </rdf:RDF>
 </metadata>
 <defs>
  <style type="text/css">*{stroke-linejoin: round; stroke-linecap: butt}</style>
 </defs>
 <g id="figure_1">
  <g id="patch_1">
   <path d="M 0 309.979875 
L 407.620875 309.979875 
L 407.620875 0 
L 0 0 
z
" style="fill: #ffffff"/>
  </g>
  <g id="axes_1">
   <g id="patch_2">
    <path d="M 43.300875 273.312 
L 400.420875 273.312 
L 400.420875 7.2 
L 43.300875 7.2 
z
" style="fill: #ffffff"/>
   </g>
   <g id="matplotlib.axis_1">
    <g id="xtick_1">
     <g id="line2d_1">
      <defs>
       <path id="m07e65f61b1" d="M 0 0 
L 0 4.8 
" style="stroke: #262626"/>
      </defs>
      <g>
       <use xlink:href="#m07e65f61b1" x="59.533602" y="273.312" style="fill: #262626; stroke: #262626"/>
      </g>
     </g>
     <g id="text_1">
      <!-- 0.000 -->
      <g style="fill: #262626" transform="translate(48.523977 287.910875) scale(0.088 -0.088)">
       <defs>
        <path id="ArialMT-30" d="M 266 2259 
Q 266 3072 433 3567 
Q 600 4063 929 4331 
Q 1259 4600 1759 4600 
Q 2128 4600 2406 4451 
Q 2684 4303 2865 4023 
Q 3047 3744 3150 3342 
Q 3253 2941 3253 2259 
Q 3253 1453 3087 958 
Q 2922 463 2592 192 
Q 2263 -78 1759 -78 
Q 1097 -78 719 397 
Q 266 969 266 2259 
z
M 844 2259 
Q 844 1131 1108 757 
Q 1372 384 1759 384 
Q 2147 384 2411 759 
Q 2675 1134 2675 2259 
Q 2675 3391 2411 3762 
Q 2147 4134 1753 4134 
Q 1366 4134 1134 3806 
Q 844 3388 844 2259 
z
" transform="scale(0.015625)"/>
        <path id="ArialMT-2e" d="M 581 0 
L 581 641 
L 1222 641 
L 1222 0 
L 581 0 
z
" transform="scale(0.015625)"/>
       </defs>
       <use xlink:href="#ArialMT-30"/>
       <use xlink:href="#ArialMT-2e" x="55.615234"/>
       <use xlink:href="#ArialMT-30" x="83.398438"/>
       <use xlink:href="#ArialMT-30" x="139.013672"/>
       <use xlink:href="#ArialMT-30" x="194.628906"/>
      </g>
     </g>
    </g>
    <g id="xtick_2">
     <g id="line2d_2">
      <g>
       <use xlink:href="#m07e65f61b1" x="100.369337" y="273.312" style="fill: #262626; stroke: #262626"/>
      </g>
     </g>
     <g id="text_2">
      <!-- 0.005 -->
      <g style="fill: #262626" transform="translate(89.359712 287.910875) scale(0.088 -0.088)">
       <defs>
        <path id="ArialMT-35" d="M 266 1200 
L 856 1250 
Q 922 819 1161 601 
Q 1400 384 1738 384 
Q 2144 384 2425 690 
Q 2706 997 2706 1503 
Q 2706 1984 2436 2262 
Q 2166 2541 1728 2541 
Q 1456 2541 1237 2417 
Q 1019 2294 894 2097 
L 366 2166 
L 809 4519 
L 3088 4519 
L 3088 3981 
L 1259 3981 
L 1013 2750 
Q 1425 3038 1878 3038 
Q 2478 3038 2890 2622 
Q 3303 2206 3303 1553 
Q 3303 931 2941 478 
Q 2500 -78 1738 -78 
Q 1113 -78 717 272 
Q 322 622 266 1200 
z
" transform="scale(0.015625)"/>
       </defs>
       <use xlink:href="#ArialMT-30"/>
       <use xlink:href="#ArialMT-2e" x="55.615234"/>
       <use xlink:href="#ArialMT-30" x="83.398438"/>
       <use xlink:href="#ArialMT-30" x="139.013672"/>
       <use xlink:href="#ArialMT-35" x="194.628906"/>
      </g>
     </g>
    </g>
    <g id="xtick_3">
     <g id="line2d_3">
      <g>
       <use xlink:href="#m07e65f61b1" x="141.205072" y="273.312" style="fill: #262626; stroke: #262626"/>
      </g>
     </g>
     <g id="text_3">
      <!-- 0.010 -->
      <g style="fill: #262626" transform="translate(130.195447 287.910875) scale(0.088 -0.088)">
       <defs>
        <path id="ArialMT-31" d="M 2384 0 
L 1822 0 
L 1822 3584 
Q 1619 3391 1289 3197 
Q 959 3003 697 2906 
L 697 3450 
Q 1169 3672 1522 3987 
Q 1875 4303 2022 4600 
L 2384 4600 
L 2384 0 
z
" transform="scale(0.015625)"/>
       </defs>
       <use xlink:href="#ArialMT-30"/>
       <use xlink:href="#ArialMT-2e" x="55.615234"/>
       <use xlink:href="#ArialMT-30" x="83.398438"/>
       <use xlink:href="#ArialMT-31" x="139.013672"/>
       <use xlink:href="#ArialMT-30" x="194.628906"/>
      </g>
     </g>
    </g>
    <g id="xtick_4">
     <g id="line2d_4">
      <g>
       <use xlink:href="#m07e65f61b1" x="182.040807" y="273.312" style="fill: #262626; stroke: #262626"/>
      </g>
     </g>
     <g id="text_4">
      <!-- 0.015 -->
      <g style="fill: #262626" transform="translate(171.031182 287.910875) scale(0.088 -0.088)">
       <use xlink:href="#ArialMT-30"/>
       <use xlink:href="#ArialMT-2e" x="55.615234"/>
       <use xlink:href="#ArialMT-30" x="83.398438"/>
       <use xlink:href="#ArialMT-31" x="139.013672"/>
       <use xlink:href="#ArialMT-35" x="194.628906"/>
      </g>
     </g>
    </g>
    <g id="xtick_5">
     <g id="line2d_5">
      <g>
       <use xlink:href="#m07e65f61b1" x="222.876542" y="273.312" style="fill: #262626; stroke: #262626"/>
      </g>
     </g>
     <g id="text_5">
      <!-- 0.020 -->
      <g style="fill: #262626" transform="translate(211.866917 287.910875) scale(0.088 -0.088)">
       <defs>
        <path id="ArialMT-32" d="M 3222 541 
L 3222 0 
L 194 0 
Q 188 203 259 391 
Q 375 700 629 1000 
Q 884 1300 1366 1694 
Q 2113 2306 2375 2664 
Q 2638 3022 2638 3341 
Q 2638 3675 2398 3904 
Q 2159 4134 1775 4134 
Q 1369 4134 1125 3890 
Q 881 3647 878 3216 
L 300 3275 
Q 359 3922 746 4261 
Q 1134 4600 1788 4600 
Q 2447 4600 2831 4234 
Q 3216 3869 3216 3328 
Q 3216 3053 3103 2787 
Q 2991 2522 2730 2228 
Q 2469 1934 1863 1422 
Q 1356 997 1212 845 
Q 1069 694 975 541 
L 3222 541 
z
" transform="scale(0.015625)"/>
       </defs>
       <use xlink:href="#ArialMT-30"/>
       <use xlink:href="#ArialMT-2e" x="55.615234"/>
       <use xlink:href="#ArialMT-30" x="83.398438"/>
       <use xlink:href="#ArialMT-32" x="139.013672"/>
       <use xlink:href="#ArialMT-30" x="194.628906"/>
      </g>
     </g>
    </g>
    <g id="xtick_6">
     <g id="line2d_6">
      <g>
       <use xlink:href="#m07e65f61b1" x="263.712277" y="273.312" style="fill: #262626; stroke: #262626"/>
      </g>
     </g>
     <g id="text_6">
      <!-- 0.025 -->
      <g style="fill: #262626" transform="translate(252.702652 287.910875) scale(0.088 -0.088)">
       <use xlink:href="#ArialMT-30"/>
       <use xlink:href="#ArialMT-2e" x="55.615234"/>
       <use xlink:href="#ArialMT-30" x="83.398438"/>
       <use xlink:href="#ArialMT-32" x="139.013672"/>
       <use xlink:href="#ArialMT-35" x="194.628906"/>
      </g>
     </g>
    </g>
    <g id="xtick_7">
     <g id="line2d_7">
      <g>
       <use xlink:href="#m07e65f61b1" x="304.548012" y="273.312" style="fill: #262626; stroke: #262626"/>
      </g>
     </g>
     <g id="text_7">
      <!-- 0.030 -->
      <g style="fill: #262626" transform="translate(293.538387 287.910875) scale(0.088 -0.088)">
       <defs>
        <path id="ArialMT-33" d="M 269 1209 
L 831 1284 
Q 928 806 1161 595 
Q 1394 384 1728 384 
Q 2125 384 2398 659 
Q 2672 934 2672 1341 
Q 2672 1728 2419 1979 
Q 2166 2231 1775 2231 
Q 1616 2231 1378 2169 
L 1441 2663 
Q 1497 2656 1531 2656 
Q 1891 2656 2178 2843 
Q 2466 3031 2466 3422 
Q 2466 3731 2256 3934 
Q 2047 4138 1716 4138 
Q 1388 4138 1169 3931 
Q 950 3725 888 3313 
L 325 3413 
Q 428 3978 793 4289 
Q 1159 4600 1703 4600 
Q 2078 4600 2393 4439 
Q 2709 4278 2876 4000 
Q 3044 3722 3044 3409 
Q 3044 3113 2884 2869 
Q 2725 2625 2413 2481 
Q 2819 2388 3044 2092 
Q 3269 1797 3269 1353 
Q 3269 753 2831 336 
Q 2394 -81 1725 -81 
Q 1122 -81 723 278 
Q 325 638 269 1209 
z
" transform="scale(0.015625)"/>
       </defs>
       <use xlink:href="#ArialMT-30"/>
       <use xlink:href="#ArialMT-2e" x="55.615234"/>
       <use xlink:href="#ArialMT-30" x="83.398438"/>
       <use xlink:href="#ArialMT-33" x="139.013672"/>
       <use xlink:href="#ArialMT-30" x="194.628906"/>
      </g>
     </g>
    </g>
    <g id="xtick_8">
     <g id="line2d_8">
      <g>
       <use xlink:href="#m07e65f61b1" x="345.383747" y="273.312" style="fill: #262626; stroke: #262626"/>
      </g>
     </g>
     <g id="text_8">
      <!-- 0.035 -->
      <g style="fill: #262626" transform="translate(334.374122 287.910875) scale(0.088 -0.088)">
       <use xlink:href="#ArialMT-30"/>
       <use xlink:href="#ArialMT-2e" x="55.615234"/>
       <use xlink:href="#ArialMT-30" x="83.398438"/>
       <use xlink:href="#ArialMT-33" x="139.013672"/>
       <use xlink:href="#ArialMT-35" x="194.628906"/>
      </g>
     </g>
    </g>
    <g id="xtick_9">
     <g id="line2d_9">
      <g>
       <use xlink:href="#m07e65f61b1" x="386.219481" y="273.312" style="fill: #262626; stroke: #262626"/>
      </g>
     </g>
     <g id="text_9">
      <!-- 0.040 -->
      <g style="fill: #262626" transform="translate(375.209856 287.910875) scale(0.088 -0.088)">
       <defs>
        <path id="ArialMT-34" d="M 2069 0 
L 2069 1097 
L 81 1097 
L 81 1613 
L 2172 4581 
L 2631 4581 
L 2631 1613 
L 3250 1613 
L 3250 1097 
L 2631 1097 
L 2631 0 
L 2069 0 
z
M 2069 1613 
L 2069 3678 
L 634 1613 
L 2069 1613 
z
" transform="scale(0.015625)"/>
       </defs>
       <use xlink:href="#ArialMT-30"/>
       <use xlink:href="#ArialMT-2e" x="55.615234"/>
       <use xlink:href="#ArialMT-30" x="83.398438"/>
       <use xlink:href="#ArialMT-34" x="139.013672"/>
       <use xlink:href="#ArialMT-30" x="194.628906"/>
      </g>
     </g>
    </g>
    <g id="text_10">
     <!-- $\epsilon$ (strain in %) -->
     <g style="fill: #262626" transform="translate(192.292875 300.667875) scale(0.096 -0.096)">
      <defs>
       <path id="DejaVuSans-Oblique-3b5" d="M 1263 1888 
Q 925 1963 778 2166 
Q 669 2309 669 2503 
Q 669 3034 1175 3344 
Q 1575 3588 2188 3588 
Q 2425 3588 2684 3550 
Q 2944 3513 3234 3438 
L 3134 2916 
Q 2847 3006 2606 3047 
Q 2359 3088 2138 3088 
Q 1766 3088 1522 2944 
Q 1228 2772 1228 2522 
Q 1228 2356 1381 2241 
Q 1563 2103 1925 2103 
L 2409 2103 
L 2319 1628 
L 1856 1628 
Q 1425 1628 1172 1469 
Q 828 1253 828 916 
Q 828 703 1013 563 
Q 1244 388 1716 388 
Q 2006 388 2284 444 
Q 2563 503 2806 619 
L 2700 84 
Q 2403 -3 2131 -47 
Q 1859 -91 1609 -91 
Q 866 -91 516 194 
Q 250 413 250 781 
Q 250 1278 600 1584 
Q 859 1813 1263 1888 
z
" transform="scale(0.015625)"/>
       <path id="ArialMT-20" transform="scale(0.015625)"/>
       <path id="ArialMT-28" d="M 1497 -1347 
Q 1031 -759 709 28 
Q 388 816 388 1659 
Q 388 2403 628 3084 
Q 909 3875 1497 4659 
L 1900 4659 
Q 1522 4009 1400 3731 
Q 1209 3300 1100 2831 
Q 966 2247 966 1656 
Q 966 153 1900 -1347 
L 1497 -1347 
z
" transform="scale(0.015625)"/>
       <path id="ArialMT-73" d="M 197 991 
L 753 1078 
Q 800 744 1014 566 
Q 1228 388 1613 388 
Q 2000 388 2187 545 
Q 2375 703 2375 916 
Q 2375 1106 2209 1216 
Q 2094 1291 1634 1406 
Q 1016 1563 777 1677 
Q 538 1791 414 1992 
Q 291 2194 291 2438 
Q 291 2659 392 2848 
Q 494 3038 669 3163 
Q 800 3259 1026 3326 
Q 1253 3394 1513 3394 
Q 1903 3394 2198 3281 
Q 2494 3169 2634 2976 
Q 2775 2784 2828 2463 
L 2278 2388 
Q 2241 2644 2061 2787 
Q 1881 2931 1553 2931 
Q 1166 2931 1000 2803 
Q 834 2675 834 2503 
Q 834 2394 903 2306 
Q 972 2216 1119 2156 
Q 1203 2125 1616 2013 
Q 2213 1853 2448 1751 
Q 2684 1650 2818 1456 
Q 2953 1263 2953 975 
Q 2953 694 2789 445 
Q 2625 197 2315 61 
Q 2006 -75 1616 -75 
Q 969 -75 630 194 
Q 291 463 197 991 
z
" transform="scale(0.015625)"/>
       <path id="ArialMT-74" d="M 1650 503 
L 1731 6 
Q 1494 -44 1306 -44 
Q 1000 -44 831 53 
Q 663 150 594 308 
Q 525 466 525 972 
L 525 2881 
L 113 2881 
L 113 3319 
L 525 3319 
L 525 4141 
L 1084 4478 
L 1084 3319 
L 1650 3319 
L 1650 2881 
L 1084 2881 
L 1084 941 
Q 1084 700 1114 631 
Q 1144 563 1211 522 
Q 1278 481 1403 481 
Q 1497 481 1650 503 
z
" transform="scale(0.015625)"/>
       <path id="ArialMT-72" d="M 416 0 
L 416 3319 
L 922 3319 
L 922 2816 
Q 1116 3169 1280 3281 
Q 1444 3394 1641 3394 
Q 1925 3394 2219 3213 
L 2025 2691 
Q 1819 2813 1613 2813 
Q 1428 2813 1281 2702 
Q 1134 2591 1072 2394 
Q 978 2094 978 1738 
L 978 0 
L 416 0 
z
" transform="scale(0.015625)"/>
       <path id="ArialMT-61" d="M 2588 409 
Q 2275 144 1986 34 
Q 1697 -75 1366 -75 
Q 819 -75 525 192 
Q 231 459 231 875 
Q 231 1119 342 1320 
Q 453 1522 633 1644 
Q 813 1766 1038 1828 
Q 1203 1872 1538 1913 
Q 2219 1994 2541 2106 
Q 2544 2222 2544 2253 
Q 2544 2597 2384 2738 
Q 2169 2928 1744 2928 
Q 1347 2928 1158 2789 
Q 969 2650 878 2297 
L 328 2372 
Q 403 2725 575 2942 
Q 747 3159 1072 3276 
Q 1397 3394 1825 3394 
Q 2250 3394 2515 3294 
Q 2781 3194 2906 3042 
Q 3031 2891 3081 2659 
Q 3109 2516 3109 2141 
L 3109 1391 
Q 3109 606 3145 398 
Q 3181 191 3288 0 
L 2700 0 
Q 2613 175 2588 409 
z
M 2541 1666 
Q 2234 1541 1622 1453 
Q 1275 1403 1131 1340 
Q 988 1278 909 1158 
Q 831 1038 831 891 
Q 831 666 1001 516 
Q 1172 366 1500 366 
Q 1825 366 2078 508 
Q 2331 650 2450 897 
Q 2541 1088 2541 1459 
L 2541 1666 
z
" transform="scale(0.015625)"/>
       <path id="ArialMT-69" d="M 425 3934 
L 425 4581 
L 988 4581 
L 988 3934 
L 425 3934 
z
M 425 0 
L 425 3319 
L 988 3319 
L 988 0 
L 425 0 
z
" transform="scale(0.015625)"/>
       <path id="ArialMT-6e" d="M 422 0 
L 422 3319 
L 928 3319 
L 928 2847 
Q 1294 3394 1984 3394 
Q 2284 3394 2536 3286 
Q 2788 3178 2913 3003 
Q 3038 2828 3088 2588 
Q 3119 2431 3119 2041 
L 3119 0 
L 2556 0 
L 2556 2019 
Q 2556 2363 2490 2533 
Q 2425 2703 2258 2804 
Q 2091 2906 1866 2906 
Q 1506 2906 1245 2678 
Q 984 2450 984 1813 
L 984 0 
L 422 0 
z
" transform="scale(0.015625)"/>
       <path id="ArialMT-25" d="M 372 3481 
Q 372 3972 619 4315 
Q 866 4659 1334 4659 
Q 1766 4659 2048 4351 
Q 2331 4044 2331 3447 
Q 2331 2866 2045 2552 
Q 1759 2238 1341 2238 
Q 925 2238 648 2547 
Q 372 2856 372 3481 
z
M 1350 4272 
Q 1141 4272 1002 4090 
Q 863 3909 863 3425 
Q 863 2984 1003 2804 
Q 1144 2625 1350 2625 
Q 1563 2625 1702 2806 
Q 1841 2988 1841 3469 
Q 1841 3913 1700 4092 
Q 1559 4272 1350 4272 
z
M 1353 -169 
L 3859 4659 
L 4316 4659 
L 1819 -169 
L 1353 -169 
z
M 3334 1075 
Q 3334 1569 3581 1911 
Q 3828 2253 4300 2253 
Q 4731 2253 5014 1945 
Q 5297 1638 5297 1041 
Q 5297 459 5011 145 
Q 4725 -169 4303 -169 
Q 3888 -169 3611 142 
Q 3334 453 3334 1075 
z
M 4316 1866 
Q 4103 1866 3964 1684 
Q 3825 1503 3825 1019 
Q 3825 581 3965 400 
Q 4106 219 4313 219 
Q 4528 219 4667 400 
Q 4806 581 4806 1063 
Q 4806 1506 4665 1686 
Q 4525 1866 4316 1866 
z
" transform="scale(0.015625)"/>
       <path id="ArialMT-29" d="M 791 -1347 
L 388 -1347 
Q 1322 153 1322 1656 
Q 1322 2244 1188 2822 
Q 1081 3291 891 3722 
Q 769 4003 388 4659 
L 791 4659 
Q 1378 3875 1659 3084 
Q 1900 2403 1900 1659 
Q 1900 816 1576 28 
Q 1253 -759 791 -1347 
z
" transform="scale(0.015625)"/>
      </defs>
      <use xlink:href="#DejaVuSans-Oblique-3b5" transform="translate(0 0.203125)"/>
      <use xlink:href="#ArialMT-20" transform="translate(54.052734 0.203125)"/>
      <use xlink:href="#ArialMT-28" transform="translate(81.835938 0.203125)"/>
      <use xlink:href="#ArialMT-73" transform="translate(115.136719 0.203125)"/>
      <use xlink:href="#ArialMT-74" transform="translate(165.136719 0.203125)"/>
      <use xlink:href="#ArialMT-72" transform="translate(192.919922 0.203125)"/>
      <use xlink:href="#ArialMT-61" transform="translate(226.220703 0.203125)"/>
      <use xlink:href="#ArialMT-69" transform="translate(281.835938 0.203125)"/>
      <use xlink:href="#ArialMT-6e" transform="translate(304.052734 0.203125)"/>
      <use xlink:href="#ArialMT-20" transform="translate(359.667969 0.203125)"/>
      <use xlink:href="#ArialMT-69" transform="translate(387.451172 0.203125)"/>
      <use xlink:href="#ArialMT-6e" transform="translate(409.667969 0.203125)"/>
      <use xlink:href="#ArialMT-20" transform="translate(465.283203 0.203125)"/>
      <use xlink:href="#ArialMT-25" transform="translate(493.066406 0.203125)"/>
      <use xlink:href="#ArialMT-29" transform="translate(581.982422 0.203125)"/>
     </g>
    </g>
   </g>
   <g id="matplotlib.axis_2">
    <g id="ytick_1">
     <g id="line2d_10">
      <defs>
       <path id="me8ea95a4a8" d="M 0 0 
L -4.8 0 
" style="stroke: #262626"/>
      </defs>
      <g>
       <use xlink:href="#me8ea95a4a8" x="43.300875" y="237.549444" style="fill: #262626; stroke: #262626"/>
      </g>
     </g>
     <g id="text_11">
      <!-- 0 -->
      <g style="fill: #262626" transform="translate(30.10725 240.698881) scale(0.088 -0.088)">
       <use xlink:href="#ArialMT-30"/>
      </g>
     </g>
    </g>
    <g id="ytick_2">
     <g id="line2d_11">
      <g>
       <use xlink:href="#me8ea95a4a8" x="43.300875" y="197.422708" style="fill: #262626; stroke: #262626"/>
      </g>
     </g>
     <g id="text_12">
      <!-- 50 -->
      <g style="fill: #262626" transform="translate(25.213625 200.572146) scale(0.088 -0.088)">
       <use xlink:href="#ArialMT-35"/>
       <use xlink:href="#ArialMT-30" x="55.615234"/>
      </g>
     </g>
    </g>
    <g id="ytick_3">
     <g id="line2d_12">
      <g>
       <use xlink:href="#me8ea95a4a8" x="43.300875" y="157.295972" style="fill: #262626; stroke: #262626"/>
      </g>
     </g>
     <g id="text_13">
      <!-- 100 -->
      <g style="fill: #262626" transform="translate(20.32 160.44541) scale(0.088 -0.088)">
       <use xlink:href="#ArialMT-31"/>
       <use xlink:href="#ArialMT-30" x="55.615234"/>
       <use xlink:href="#ArialMT-30" x="111.230469"/>
      </g>
     </g>
    </g>
    <g id="ytick_4">
     <g id="line2d_13">
      <g>
       <use xlink:href="#me8ea95a4a8" x="43.300875" y="117.169236" style="fill: #262626; stroke: #262626"/>
      </g>
     </g>
     <g id="text_14">
      <!-- 150 -->
      <g style="fill: #262626" transform="translate(20.32 120.318674) scale(0.088 -0.088)">
       <use xlink:href="#ArialMT-31"/>
       <use xlink:href="#ArialMT-35" x="55.615234"/>
       <use xlink:href="#ArialMT-30" x="111.230469"/>
      </g>
     </g>
    </g>
    <g id="ytick_5">
     <g id="line2d_14">
      <g>
       <use xlink:href="#me8ea95a4a8" x="43.300875" y="77.042501" style="fill: #262626; stroke: #262626"/>
      </g>
     </g>
     <g id="text_15">
      <!-- 200 -->
      <g style="fill: #262626" transform="translate(20.32 80.191938) scale(0.088 -0.088)">
       <use xlink:href="#ArialMT-32"/>
       <use xlink:href="#ArialMT-30" x="55.615234"/>
       <use xlink:href="#ArialMT-30" x="111.230469"/>
      </g>
     </g>
    </g>
    <g id="ytick_6">
     <g id="line2d_15">
      <g>
       <use xlink:href="#me8ea95a4a8" x="43.300875" y="36.915765" style="fill: #262626; stroke: #262626"/>
      </g>
     </g>
     <g id="text_16">
      <!-- 250 -->
      <g style="fill: #262626" transform="translate(20.32 40.065202) scale(0.088 -0.088)">
       <use xlink:href="#ArialMT-32"/>
       <use xlink:href="#ArialMT-35" x="55.615234"/>
       <use xlink:href="#ArialMT-30" x="111.230469"/>
      </g>
     </g>
    </g>
    <g id="text_17">
     <!-- $\sigma$ (stress in MPa) -->
     <g style="fill: #262626" transform="translate(14.208 176.928) rotate(-90) scale(0.096 -0.096)">
      <defs>
       <path id="DejaVuSans-Oblique-3c3" d="M 2219 3044 
Q 1744 3044 1422 2700 
Q 1081 2341 969 1747 
Q 844 1119 1044 756 
Q 1241 397 1706 397 
Q 2166 397 2503 759 
Q 2844 1122 2966 1747 
Q 3075 2319 2881 2700 
Q 2700 3044 2219 3044 
z
M 2309 3503 
L 4219 3500 
L 4106 2925 
L 3463 2925 
Q 3706 2438 3575 1747 
Q 3406 888 2884 400 
Q 2359 -91 1609 -91 
Q 856 -91 525 400 
Q 194 888 363 1747 
Q 528 2609 1050 3097 
Q 1484 3503 2309 3503 
z
" transform="scale(0.015625)"/>
       <path id="ArialMT-65" d="M 2694 1069 
L 3275 997 
Q 3138 488 2766 206 
Q 2394 -75 1816 -75 
Q 1088 -75 661 373 
Q 234 822 234 1631 
Q 234 2469 665 2931 
Q 1097 3394 1784 3394 
Q 2450 3394 2872 2941 
Q 3294 2488 3294 1666 
Q 3294 1616 3291 1516 
L 816 1516 
Q 847 969 1125 678 
Q 1403 388 1819 388 
Q 2128 388 2347 550 
Q 2566 713 2694 1069 
z
M 847 1978 
L 2700 1978 
Q 2663 2397 2488 2606 
Q 2219 2931 1791 2931 
Q 1403 2931 1139 2672 
Q 875 2413 847 1978 
z
" transform="scale(0.015625)"/>
       <path id="ArialMT-4d" d="M 475 0 
L 475 4581 
L 1388 4581 
L 2472 1338 
Q 2622 884 2691 659 
Q 2769 909 2934 1394 
L 4031 4581 
L 4847 4581 
L 4847 0 
L 4263 0 
L 4263 3834 
L 2931 0 
L 2384 0 
L 1059 3900 
L 1059 0 
L 475 0 
z
" transform="scale(0.015625)"/>
       <path id="ArialMT-50" d="M 494 0 
L 494 4581 
L 2222 4581 
Q 2678 4581 2919 4538 
Q 3256 4481 3484 4323 
Q 3713 4166 3852 3881 
Q 3991 3597 3991 3256 
Q 3991 2672 3619 2267 
Q 3247 1863 2275 1863 
L 1100 1863 
L 1100 0 
L 494 0 
z
M 1100 2403 
L 2284 2403 
Q 2872 2403 3119 2622 
Q 3366 2841 3366 3238 
Q 3366 3525 3220 3729 
Q 3075 3934 2838 4000 
Q 2684 4041 2272 4041 
L 1100 4041 
L 1100 2403 
z
" transform="scale(0.015625)"/>
      </defs>
      <use xlink:href="#DejaVuSans-Oblique-3c3" transform="translate(0 0.203125)"/>
      <use xlink:href="#ArialMT-20" transform="translate(63.378906 0.203125)"/>
      <use xlink:href="#ArialMT-28" transform="translate(91.162109 0.203125)"/>
      <use xlink:href="#ArialMT-73" transform="translate(124.462891 0.203125)"/>
      <use xlink:href="#ArialMT-74" transform="translate(174.462891 0.203125)"/>
      <use xlink:href="#ArialMT-72" transform="translate(202.246094 0.203125)"/>
      <use xlink:href="#ArialMT-65" transform="translate(235.546875 0.203125)"/>
      <use xlink:href="#ArialMT-73" transform="translate(291.162109 0.203125)"/>
      <use xlink:href="#ArialMT-73" transform="translate(341.162109 0.203125)"/>
      <use xlink:href="#ArialMT-20" transform="translate(391.162109 0.203125)"/>
      <use xlink:href="#ArialMT-69" transform="translate(418.945312 0.203125)"/>
      <use xlink:href="#ArialMT-6e" transform="translate(441.162109 0.203125)"/>
      <use xlink:href="#ArialMT-20" transform="translate(496.777344 0.203125)"/>
      <use xlink:href="#ArialMT-4d" transform="translate(524.560547 0.203125)"/>
      <use xlink:href="#ArialMT-50" transform="translate(607.861328 0.203125)"/>
      <use xlink:href="#ArialMT-61" transform="translate(674.560547 0.203125)"/>
      <use xlink:href="#ArialMT-29" transform="translate(730.175781 0.203125)"/>
     </g>
    </g>
   </g>
   <g id="line2d_16">
    <defs>
     <path id="m78afe5d1dc" d="M 0 1 
C 0.265203 1 0.51958 0.894634 0.707107 0.707107 
C 0.894634 0.51958 1 0.265203 1 0 
C 1 -0.265203 0.894634 -0.51958 0.707107 -0.707107 
C 0.51958 -0.894634 0.265203 -1 0 -1 
C -0.265203 -1 -0.51958 -0.894634 -0.707107 -0.707107 
C -0.894634 -0.51958 -1 -0.265203 -1 0 
C -1 0.265203 -0.894634 0.51958 -0.707107 0.707107 
C -0.51958 0.894634 -0.265203 1 0 1 
z
" style="stroke: #ff0000"/>
    </defs>
    <g clip-path="url(#pa8828b11fe)">
     <use xlink:href="#m78afe5d1dc" x="59.533602" y="261.216" style="fill: #ff0000; stroke: #ff0000"/>
     <use xlink:href="#m78afe5d1dc" x="61.58886" y="228.095883" style="fill: #ff0000; stroke: #ff0000"/>
     <use xlink:href="#m78afe5d1dc" x="63.644117" y="201.278648" style="fill: #ff0000; stroke: #ff0000"/>
     <use xlink:href="#m78afe5d1dc" x="65.699374" y="197.827815" style="fill: #ff0000; stroke: #ff0000"/>
     <use xlink:href="#m78afe5d1dc" x="67.754632" y="203.615853" style="fill: #ff0000; stroke: #ff0000"/>
     <use xlink:href="#m78afe5d1dc" x="69.809889" y="230.811139" style="fill: #ff0000; stroke: #ff0000"/>
     <use xlink:href="#m78afe5d1dc" x="71.865147" y="249.563706" style="fill: #ff0000; stroke: #ff0000"/>
     <use xlink:href="#m78afe5d1dc" x="73.90953" y="193.160796" style="fill: #ff0000; stroke: #ff0000"/>
     <use xlink:href="#m78afe5d1dc" x="75.964787" y="197.331636" style="fill: #ff0000; stroke: #ff0000"/>
     <use xlink:href="#m78afe5d1dc" x="78.020044" y="182.629517" style="fill: #ff0000; stroke: #ff0000"/>
     <use xlink:href="#m78afe5d1dc" x="80.075302" y="236.714386" style="fill: #ff0000; stroke: #ff0000"/>
     <use xlink:href="#m78afe5d1dc" x="82.130559" y="261.009485" style="fill: #ff0000; stroke: #ff0000"/>
     <use xlink:href="#m78afe5d1dc" x="84.185816" y="206.060279" style="fill: #ff0000; stroke: #ff0000"/>
     <use xlink:href="#m78afe5d1dc" x="86.241074" y="225.112431" style="fill: #ff0000; stroke: #ff0000"/>
     <use xlink:href="#m78afe5d1dc" x="88.296331" y="204.640104" style="fill: #ff0000; stroke: #ff0000"/>
     <use xlink:href="#m78afe5d1dc" x="90.351589" y="212.174641" style="fill: #ff0000; stroke: #ff0000"/>
     <use xlink:href="#m78afe5d1dc" x="92.406846" y="185.800611" style="fill: #ff0000; stroke: #ff0000"/>
     <use xlink:href="#m78afe5d1dc" x="94.462103" y="213.934739" style="fill: #ff0000; stroke: #ff0000"/>
     <use xlink:href="#m78afe5d1dc" x="96.517361" y="192.2584" style="fill: #ff0000; stroke: #ff0000"/>
     <use xlink:href="#m78afe5d1dc" x="98.572618" y="184.428302" style="fill: #ff0000; stroke: #ff0000"/>
     <use xlink:href="#m78afe5d1dc" x="100.627876" y="169.828176" style="fill: #ff0000; stroke: #ff0000"/>
     <use xlink:href="#m78afe5d1dc" x="102.683133" y="186.079444" style="fill: #ff0000; stroke: #ff0000"/>
     <use xlink:href="#m78afe5d1dc" x="104.73839" y="223.355237" style="fill: #ff0000; stroke: #ff0000"/>
     <use xlink:href="#m78afe5d1dc" x="106.793648" y="231.022508" style="fill: #ff0000; stroke: #ff0000"/>
     <use xlink:href="#m78afe5d1dc" x="108.848905" y="179.908053" style="fill: #ff0000; stroke: #ff0000"/>
     <use xlink:href="#m78afe5d1dc" x="110.904162" y="194.127839" style="fill: #ff0000; stroke: #ff0000"/>
     <use xlink:href="#m78afe5d1dc" x="112.95942" y="130.065079" style="fill: #ff0000; stroke: #ff0000"/>
     <use xlink:href="#m78afe5d1dc" x="115.014677" y="201.656126" style="fill: #ff0000; stroke: #ff0000"/>
     <use xlink:href="#m78afe5d1dc" x="117.069935" y="137.129255" style="fill: #ff0000; stroke: #ff0000"/>
     <use xlink:href="#m78afe5d1dc" x="119.114318" y="170.434277" style="fill: #ff0000; stroke: #ff0000"/>
     <use xlink:href="#m78afe5d1dc" x="121.169575" y="189.404623" style="fill: #ff0000; stroke: #ff0000"/>
     <use xlink:href="#m78afe5d1dc" x="123.224832" y="186.857143" style="fill: #ff0000; stroke: #ff0000"/>
     <use xlink:href="#m78afe5d1dc" x="125.28009" y="194.769737" style="fill: #ff0000; stroke: #ff0000"/>
     <use xlink:href="#m78afe5d1dc" x="127.335347" y="152.428359" style="fill: #ff0000; stroke: #ff0000"/>
     <use xlink:href="#m78afe5d1dc" x="129.390604" y="201.501929" style="fill: #ff0000; stroke: #ff0000"/>
     <use xlink:href="#m78afe5d1dc" x="131.445862" y="214.015149" style="fill: #ff0000; stroke: #ff0000"/>
     <use xlink:href="#m78afe5d1dc" x="133.501119" y="206.528773" style="fill: #ff0000; stroke: #ff0000"/>
     <use xlink:href="#m78afe5d1dc" x="135.556377" y="173.959251" style="fill: #ff0000; stroke: #ff0000"/>
     <use xlink:href="#m78afe5d1dc" x="137.611634" y="172.108139" style="fill: #ff0000; stroke: #ff0000"/>
     <use xlink:href="#m78afe5d1dc" x="139.666891" y="197.76802" style="fill: #ff0000; stroke: #ff0000"/>
     <use xlink:href="#m78afe5d1dc" x="141.722149" y="146.871995" style="fill: #ff0000; stroke: #ff0000"/>
     <use xlink:href="#m78afe5d1dc" x="143.777406" y="158.51474" style="fill: #ff0000; stroke: #ff0000"/>
     <use xlink:href="#m78afe5d1dc" x="145.832663" y="131.773699" style="fill: #ff0000; stroke: #ff0000"/>
     <use xlink:href="#m78afe5d1dc" x="147.887921" y="190.375825" style="fill: #ff0000; stroke: #ff0000"/>
     <use xlink:href="#m78afe5d1dc" x="149.943178" y="172.66382" style="fill: #ff0000; stroke: #ff0000"/>
     <use xlink:href="#m78afe5d1dc" x="151.998436" y="194.156542" style="fill: #ff0000; stroke: #ff0000"/>
     <use xlink:href="#m78afe5d1dc" x="154.053693" y="151.593636" style="fill: #ff0000; stroke: #ff0000"/>
     <use xlink:href="#m78afe5d1dc" x="156.10895" y="139.45794" style="fill: #ff0000; stroke: #ff0000"/>
     <use xlink:href="#m78afe5d1dc" x="158.164208" y="176.529868" style="fill: #ff0000; stroke: #ff0000"/>
     <use xlink:href="#m78afe5d1dc" x="160.219465" y="191.645243" style="fill: #ff0000; stroke: #ff0000"/>
     <use xlink:href="#m78afe5d1dc" x="162.274723" y="143.584538" style="fill: #ff0000; stroke: #ff0000"/>
     <use xlink:href="#m78afe5d1dc" x="164.319106" y="139.710888" style="fill: #ff0000; stroke: #ff0000"/>
     <use xlink:href="#m78afe5d1dc" x="166.374363" y="165.136567" style="fill: #ff0000; stroke: #ff0000"/>
     <use xlink:href="#m78afe5d1dc" x="168.42962" y="154.875383" style="fill: #ff0000; stroke: #ff0000"/>
     <use xlink:href="#m78afe5d1dc" x="170.484878" y="177.107028" style="fill: #ff0000; stroke: #ff0000"/>
     <use xlink:href="#m78afe5d1dc" x="172.540135" y="148.012149" style="fill: #ff0000; stroke: #ff0000"/>
     <use xlink:href="#m78afe5d1dc" x="174.595392" y="148.992143" style="fill: #ff0000; stroke: #ff0000"/>
     <use xlink:href="#m78afe5d1dc" x="176.65065" y="148.620385" style="fill: #ff0000; stroke: #ff0000"/>
     <use xlink:href="#m78afe5d1dc" x="178.705907" y="138.868543" style="fill: #ff0000; stroke: #ff0000"/>
     <use xlink:href="#m78afe5d1dc" x="180.761165" y="139.661693" style="fill: #ff0000; stroke: #ff0000"/>
     <use xlink:href="#m78afe5d1dc" x="182.816422" y="129.814816" style="fill: #ff0000; stroke: #ff0000"/>
     <use xlink:href="#m78afe5d1dc" x="184.871679" y="135.948463" style="fill: #ff0000; stroke: #ff0000"/>
     <use xlink:href="#m78afe5d1dc" x="186.926937" y="140.707437" style="fill: #ff0000; stroke: #ff0000"/>
     <use xlink:href="#m78afe5d1dc" x="188.982194" y="160.500692" style="fill: #ff0000; stroke: #ff0000"/>
     <use xlink:href="#m78afe5d1dc" x="191.037451" y="180.914808" style="fill: #ff0000; stroke: #ff0000"/>
     <use xlink:href="#m78afe5d1dc" x="193.092709" y="143.578104" style="fill: #ff0000; stroke: #ff0000"/>
     <use xlink:href="#m78afe5d1dc" x="195.147966" y="130.414395" style="fill: #ff0000; stroke: #ff0000"/>
     <use xlink:href="#m78afe5d1dc" x="197.203224" y="108.163881" style="fill: #ff0000; stroke: #ff0000"/>
     <use xlink:href="#m78afe5d1dc" x="199.258481" y="131.788526" style="fill: #ff0000; stroke: #ff0000"/>
     <use xlink:href="#m78afe5d1dc" x="201.313738" y="116.807634" style="fill: #ff0000; stroke: #ff0000"/>
     <use xlink:href="#m78afe5d1dc" x="203.368996" y="149.378627" style="fill: #ff0000; stroke: #ff0000"/>
     <use xlink:href="#m78afe5d1dc" x="205.424253" y="100.155414" style="fill: #ff0000; stroke: #ff0000"/>
     <use xlink:href="#m78afe5d1dc" x="207.479511" y="134.723153" style="fill: #ff0000; stroke: #ff0000"/>
     <use xlink:href="#m78afe5d1dc" x="209.534768" y="139.489268" style="fill: #ff0000; stroke: #ff0000"/>
     <use xlink:href="#m78afe5d1dc" x="211.579151" y="169.914522" style="fill: #ff0000; stroke: #ff0000"/>
     <use xlink:href="#m78afe5d1dc" x="213.634408" y="125.313601" style="fill: #ff0000; stroke: #ff0000"/>
     <use xlink:href="#m78afe5d1dc" x="215.689666" y="164.612162" style="fill: #ff0000; stroke: #ff0000"/>
     <use xlink:href="#m78afe5d1dc" x="217.744923" y="114.403941" style="fill: #ff0000; stroke: #ff0000"/>
     <use xlink:href="#m78afe5d1dc" x="219.80018" y="103.122402" style="fill: #ff0000; stroke: #ff0000"/>
     <use xlink:href="#m78afe5d1dc" x="221.855438" y="106.290881" style="fill: #ff0000; stroke: #ff0000"/>
     <use xlink:href="#m78afe5d1dc" x="223.910695" y="154.057703" style="fill: #ff0000; stroke: #ff0000"/>
     <use xlink:href="#m78afe5d1dc" x="225.965953" y="119.048125" style="fill: #ff0000; stroke: #ff0000"/>
     <use xlink:href="#m78afe5d1dc" x="228.02121" y="91.920102" style="fill: #ff0000; stroke: #ff0000"/>
     <use xlink:href="#m78afe5d1dc" x="230.076467" y="144.096303" style="fill: #ff0000; stroke: #ff0000"/>
     <use xlink:href="#m78afe5d1dc" x="232.131725" y="138.373916" style="fill: #ff0000; stroke: #ff0000"/>
     <use xlink:href="#m78afe5d1dc" x="234.186982" y="128.441411" style="fill: #ff0000; stroke: #ff0000"/>
     <use xlink:href="#m78afe5d1dc" x="236.242239" y="123.678853" style="fill: #ff0000; stroke: #ff0000"/>
     <use xlink:href="#m78afe5d1dc" x="238.297497" y="118.666686" style="fill: #ff0000; stroke: #ff0000"/>
     <use xlink:href="#m78afe5d1dc" x="240.352754" y="119.164818" style="fill: #ff0000; stroke: #ff0000"/>
     <use xlink:href="#m78afe5d1dc" x="242.408012" y="123.289344" style="fill: #ff0000; stroke: #ff0000"/>
     <use xlink:href="#m78afe5d1dc" x="244.463269" y="149.613715" style="fill: #ff0000; stroke: #ff0000"/>
     <use xlink:href="#m78afe5d1dc" x="246.518526" y="143.03482" style="fill: #ff0000; stroke: #ff0000"/>
     <use xlink:href="#m78afe5d1dc" x="248.573784" y="104.394639" style="fill: #ff0000; stroke: #ff0000"/>
     <use xlink:href="#m78afe5d1dc" x="250.629041" y="127.3817" style="fill: #ff0000; stroke: #ff0000"/>
     <use xlink:href="#m78afe5d1dc" x="252.684299" y="107.216361" style="fill: #ff0000; stroke: #ff0000"/>
     <use xlink:href="#m78afe5d1dc" x="254.739556" y="105.119338" style="fill: #ff0000; stroke: #ff0000"/>
     <use xlink:href="#m78afe5d1dc" x="256.783939" y="105.729077" style="fill: #ff0000; stroke: #ff0000"/>
     <use xlink:href="#m78afe5d1dc" x="258.839196" y="127.018216" style="fill: #ff0000; stroke: #ff0000"/>
     <use xlink:href="#m78afe5d1dc" x="260.894454" y="85.025218" style="fill: #ff0000; stroke: #ff0000"/>
     <use xlink:href="#m78afe5d1dc" x="262.949711" y="115.94348" style="fill: #ff0000; stroke: #ff0000"/>
     <use xlink:href="#m78afe5d1dc" x="265.004968" y="84.610758" style="fill: #ff0000; stroke: #ff0000"/>
     <use xlink:href="#m78afe5d1dc" x="267.060226" y="78.024919" style="fill: #ff0000; stroke: #ff0000"/>
     <use xlink:href="#m78afe5d1dc" x="269.115483" y="100.397183" style="fill: #ff0000; stroke: #ff0000"/>
     <use xlink:href="#m78afe5d1dc" x="271.170741" y="111.112471" style="fill: #ff0000; stroke: #ff0000"/>
     <use xlink:href="#m78afe5d1dc" x="273.225998" y="91.975824" style="fill: #ff0000; stroke: #ff0000"/>
     <use xlink:href="#m78afe5d1dc" x="275.281255" y="87.460422" style="fill: #ff0000; stroke: #ff0000"/>
     <use xlink:href="#m78afe5d1dc" x="277.336513" y="106.430836" style="fill: #ff0000; stroke: #ff0000"/>
     <use xlink:href="#m78afe5d1dc" x="279.39177" y="82.414541" style="fill: #ff0000; stroke: #ff0000"/>
     <use xlink:href="#m78afe5d1dc" x="281.447027" y="112.13294" style="fill: #ff0000; stroke: #ff0000"/>
     <use xlink:href="#m78afe5d1dc" x="283.502285" y="90.206267" style="fill: #ff0000; stroke: #ff0000"/>
     <use xlink:href="#m78afe5d1dc" x="285.557542" y="109.759537" style="fill: #ff0000; stroke: #ff0000"/>
     <use xlink:href="#m78afe5d1dc" x="287.6128" y="79.162607" style="fill: #ff0000; stroke: #ff0000"/>
     <use xlink:href="#m78afe5d1dc" x="289.668057" y="112.44371" style="fill: #ff0000; stroke: #ff0000"/>
     <use xlink:href="#m78afe5d1dc" x="291.723314" y="86.200294" style="fill: #ff0000; stroke: #ff0000"/>
     <use xlink:href="#m78afe5d1dc" x="293.778572" y="122.51262" style="fill: #ff0000; stroke: #ff0000"/>
     <use xlink:href="#m78afe5d1dc" x="295.833829" y="42.890608" style="fill: #ff0000; stroke: #ff0000"/>
     <use xlink:href="#m78afe5d1dc" x="297.889087" y="56.791895" style="fill: #ff0000; stroke: #ff0000"/>
     <use xlink:href="#m78afe5d1dc" x="299.944344" y="57.597065" style="fill: #ff0000; stroke: #ff0000"/>
     <use xlink:href="#m78afe5d1dc" x="301.988727" y="77.461205" style="fill: #ff0000; stroke: #ff0000"/>
     <use xlink:href="#m78afe5d1dc" x="304.043984" y="91.478503" style="fill: #ff0000; stroke: #ff0000"/>
     <use xlink:href="#m78afe5d1dc" x="306.099242" y="74.333986" style="fill: #ff0000; stroke: #ff0000"/>
     <use xlink:href="#m78afe5d1dc" x="308.154499" y="68.690281" style="fill: #ff0000; stroke: #ff0000"/>
     <use xlink:href="#m78afe5d1dc" x="310.209756" y="75.093411" style="fill: #ff0000; stroke: #ff0000"/>
     <use xlink:href="#m78afe5d1dc" x="312.265014" y="45.961579" style="fill: #ff0000; stroke: #ff0000"/>
     <use xlink:href="#m78afe5d1dc" x="314.320271" y="63.045118" style="fill: #ff0000; stroke: #ff0000"/>
     <use xlink:href="#m78afe5d1dc" x="316.375529" y="86.861885" style="fill: #ff0000; stroke: #ff0000"/>
     <use xlink:href="#m78afe5d1dc" x="318.430786" y="33.840733" style="fill: #ff0000; stroke: #ff0000"/>
     <use xlink:href="#m78afe5d1dc" x="320.486043" y="69.657244" style="fill: #ff0000; stroke: #ff0000"/>
     <use xlink:href="#m78afe5d1dc" x="322.541301" y="49.331459" style="fill: #ff0000; stroke: #ff0000"/>
     <use xlink:href="#m78afe5d1dc" x="324.596558" y="66.263227" style="fill: #ff0000; stroke: #ff0000"/>
     <use xlink:href="#m78afe5d1dc" x="326.651815" y="70.697222" style="fill: #ff0000; stroke: #ff0000"/>
     <use xlink:href="#m78afe5d1dc" x="328.707073" y="81.930336" style="fill: #ff0000; stroke: #ff0000"/>
     <use xlink:href="#m78afe5d1dc" x="330.76233" y="80.068617" style="fill: #ff0000; stroke: #ff0000"/>
     <use xlink:href="#m78afe5d1dc" x="332.817588" y="63.447581" style="fill: #ff0000; stroke: #ff0000"/>
     <use xlink:href="#m78afe5d1dc" x="334.872845" y="52.810658" style="fill: #ff0000; stroke: #ff0000"/>
     <use xlink:href="#m78afe5d1dc" x="336.928102" y="36.298463" style="fill: #ff0000; stroke: #ff0000"/>
     <use xlink:href="#m78afe5d1dc" x="338.98336" y="60.36231" style="fill: #ff0000; stroke: #ff0000"/>
     <use xlink:href="#m78afe5d1dc" x="341.038617" y="78.212157" style="fill: #ff0000; stroke: #ff0000"/>
     <use xlink:href="#m78afe5d1dc" x="343.093874" y="73.588026" style="fill: #ff0000; stroke: #ff0000"/>
     <use xlink:href="#m78afe5d1dc" x="345.149132" y="88.190873" style="fill: #ff0000; stroke: #ff0000"/>
     <use xlink:href="#m78afe5d1dc" x="347.204389" y="110.760596" style="fill: #ff0000; stroke: #ff0000"/>
     <use xlink:href="#m78afe5d1dc" x="349.248772" y="50.072515" style="fill: #ff0000; stroke: #ff0000"/>
     <use xlink:href="#m78afe5d1dc" x="351.30403" y="60.732269" style="fill: #ff0000; stroke: #ff0000"/>
     <use xlink:href="#m78afe5d1dc" x="353.359287" y="39.278941" style="fill: #ff0000; stroke: #ff0000"/>
     <use xlink:href="#m78afe5d1dc" x="355.414544" y="55.920912" style="fill: #ff0000; stroke: #ff0000"/>
     <use xlink:href="#m78afe5d1dc" x="357.469802" y="73.312977" style="fill: #ff0000; stroke: #ff0000"/>
     <use xlink:href="#m78afe5d1dc" x="359.525059" y="83.722566" style="fill: #ff0000; stroke: #ff0000"/>
     <use xlink:href="#m78afe5d1dc" x="361.580317" y="83.685935" style="fill: #ff0000; stroke: #ff0000"/>
     <use xlink:href="#m78afe5d1dc" x="363.635574" y="51.094949" style="fill: #ff0000; stroke: #ff0000"/>
     <use xlink:href="#m78afe5d1dc" x="365.690831" y="76.293554" style="fill: #ff0000; stroke: #ff0000"/>
     <use xlink:href="#m78afe5d1dc" x="367.746089" y="57.629787" style="fill: #ff0000; stroke: #ff0000"/>
     <use xlink:href="#m78afe5d1dc" x="369.801346" y="69.131624" style="fill: #ff0000; stroke: #ff0000"/>
     <use xlink:href="#m78afe5d1dc" x="371.856603" y="76.374462" style="fill: #ff0000; stroke: #ff0000"/>
     <use xlink:href="#m78afe5d1dc" x="373.911861" y="53.367609" style="fill: #ff0000; stroke: #ff0000"/>
     <use xlink:href="#m78afe5d1dc" x="375.967118" y="51.793596" style="fill: #ff0000; stroke: #ff0000"/>
     <use xlink:href="#m78afe5d1dc" x="378.022376" y="75.753179" style="fill: #ff0000; stroke: #ff0000"/>
     <use xlink:href="#m78afe5d1dc" x="380.077633" y="77.905586" style="fill: #ff0000; stroke: #ff0000"/>
     <use xlink:href="#m78afe5d1dc" x="382.13289" y="67.992944" style="fill: #ff0000; stroke: #ff0000"/>
     <use xlink:href="#m78afe5d1dc" x="384.188148" y="19.296" style="fill: #ff0000; stroke: #ff0000"/>
    </g>
   </g>
   <g id="patch_3">
    <path d="M 43.300875 237.549444 
L 43.300875 36.915765 
" style="fill: none; stroke: #262626; stroke-linejoin: miter; stroke-linecap: square"/>
   </g>
   <g id="patch_4">
    <path d="M 59.533602 273.312 
L 386.219481 273.312 
" style="fill: none; stroke: #262626; stroke-linejoin: miter; stroke-linecap: square"/>
   </g>
   <g id="legend_1">
    <g id="line2d_17">
     <g>
      <use xlink:href="#m78afe5d1dc" x="60.020875" y="18.338875" style="fill: #ff0000; stroke: #ff0000"/>
     </g>
    </g>
    <g id="text_18">
     <!-- Stress-strain data -->
     <g style="fill: #262626" transform="translate(75.860875 21.418875) scale(0.088 -0.088)">
      <defs>
       <path id="ArialMT-53" d="M 288 1472 
L 859 1522 
Q 900 1178 1048 958 
Q 1197 738 1509 602 
Q 1822 466 2213 466 
Q 2559 466 2825 569 
Q 3091 672 3220 851 
Q 3350 1031 3350 1244 
Q 3350 1459 3225 1620 
Q 3100 1781 2813 1891 
Q 2628 1963 1997 2114 
Q 1366 2266 1113 2400 
Q 784 2572 623 2826 
Q 463 3081 463 3397 
Q 463 3744 659 4045 
Q 856 4347 1234 4503 
Q 1613 4659 2075 4659 
Q 2584 4659 2973 4495 
Q 3363 4331 3572 4012 
Q 3781 3694 3797 3291 
L 3216 3247 
Q 3169 3681 2898 3903 
Q 2628 4125 2100 4125 
Q 1550 4125 1298 3923 
Q 1047 3722 1047 3438 
Q 1047 3191 1225 3031 
Q 1400 2872 2139 2705 
Q 2878 2538 3153 2413 
Q 3553 2228 3743 1945 
Q 3934 1663 3934 1294 
Q 3934 928 3725 604 
Q 3516 281 3123 101 
Q 2731 -78 2241 -78 
Q 1619 -78 1198 103 
Q 778 284 539 648 
Q 300 1013 288 1472 
z
" transform="scale(0.015625)"/>
       <path id="ArialMT-2d" d="M 203 1375 
L 203 1941 
L 1931 1941 
L 1931 1375 
L 203 1375 
z
" transform="scale(0.015625)"/>
       <path id="ArialMT-64" d="M 2575 0 
L 2575 419 
Q 2259 -75 1647 -75 
Q 1250 -75 917 144 
Q 584 363 401 755 
Q 219 1147 219 1656 
Q 219 2153 384 2558 
Q 550 2963 881 3178 
Q 1213 3394 1622 3394 
Q 1922 3394 2156 3267 
Q 2391 3141 2538 2938 
L 2538 4581 
L 3097 4581 
L 3097 0 
L 2575 0 
z
M 797 1656 
Q 797 1019 1065 703 
Q 1334 388 1700 388 
Q 2069 388 2326 689 
Q 2584 991 2584 1609 
Q 2584 2291 2321 2609 
Q 2059 2928 1675 2928 
Q 1300 2928 1048 2622 
Q 797 2316 797 1656 
z
" transform="scale(0.015625)"/>
      </defs>
      <use xlink:href="#ArialMT-53"/>
      <use xlink:href="#ArialMT-74" x="66.699219"/>
      <use xlink:href="#ArialMT-72" x="94.482422"/>
      <use xlink:href="#ArialMT-65" x="127.783203"/>
      <use xlink:href="#ArialMT-73" x="183.398438"/>
      <use xlink:href="#ArialMT-73" x="233.398438"/>
      <use xlink:href="#ArialMT-2d" x="283.398438"/>
      <use xlink:href="#ArialMT-73" x="316.699219"/>
      <use xlink:href="#ArialMT-74" x="366.699219"/>
      <use xlink:href="#ArialMT-72" x="394.482422"/>
      <use xlink:href="#ArialMT-61" x="427.783203"/>
      <use xlink:href="#ArialMT-69" x="483.398438"/>
      <use xlink:href="#ArialMT-6e" x="505.615234"/>
      <use xlink:href="#ArialMT-20" x="561.230469"/>
      <use xlink:href="#ArialMT-64" x="589.013672"/>
      <use xlink:href="#ArialMT-61" x="644.628906"/>
      <use xlink:href="#ArialMT-74" x="700.244141"/>
      <use xlink:href="#ArialMT-61" x="728.027344"/>
     </g>
    </g>
   </g>
  </g>
 </g>
 <defs>
  <clipPath id="pa8828b11fe">
   <rect x="43.300875" y="7.2" width="357.12" height="266.112"/>
  </clipPath>
 </defs>
</svg>