<?xml version="1.0" encoding="UTF-8" standalone="no"?>
<!DOCTYPE svg PUBLIC "-//W3C//DTD SVG 1.1//EN"
 "http://www.w3.org/Graphics/SVG/1.1/DTD/svg11.dtd">
<!-- Generated by graphviz version 9.0.0 (20230911.1827)
 -->
<!-- Pages: 1 -->
<svg width="134pt" height="247pt"
 viewBox="0.00 0.00 134.00 247.13" xmlns="http://www.w3.org/2000/svg" xmlns:xlink="http://www.w3.org/1999/xlink">
<g id="graph0" class="graph" transform="scale(1 1) rotate(0) translate(4 243.13)">
<polygon fill="white" stroke="none" points="-4,4 -4,-243.13 130,-243.13 130,4 -4,4"/>
<g id="clust1" class="cluster">
<title>cluster25</title>
<path fill="none" stroke="black" d="M20,-8C20,-8 106,-8 106,-8 112,-8 118,-14 118,-20 118,-20 118,-117.82 118,-117.82 118,-123.82 112,-129.82 106,-129.82 106,-129.82 20,-129.82 20,-129.82 14,-129.82 8,-123.82 8,-117.82 8,-117.82 8,-20 8,-20 8,-14 14,-8 20,-8"/>
<text text-anchor="middle" x="103.25" y="-15.2" font-family="Times,serif" font-size="14.00">25</text>
</g>
<!-- theta -->
<g id="node1" class="node">
<title>theta</title>
<ellipse fill="none" stroke="black" cx="63" cy="-198.48" rx="44.72" ry="40.66"/>
<text text-anchor="middle" x="63" y="-209.93" font-family="Times,serif" font-size="14.00">theta</text>
<text text-anchor="middle" x="63" y="-193.43" font-family="Times,serif" font-size="14.00">~</text>
<text text-anchor="middle" x="63" y="-176.93" font-family="Times,serif" font-size="14.00">Uniform</text>
</g>
<!-- x -->
<g id="node2" class="node">
<title>x</title>
<ellipse fill="lightgrey" stroke="black" cx="63" cy="-81.16" rx="47.38" ry="40.66"/>
<text text-anchor="middle" x="63" y="-92.61" font-family="Times,serif" font-size="14.00">x</text>
<text text-anchor="middle" x="63" y="-76.11" font-family="Times,serif" font-size="14.00">~</text>
<text text-anchor="middle" x="63" y="-59.61" font-family="Times,serif" font-size="14.00">Bernoulli</text>
</g>
<!-- theta&#45;&gt;x -->
<g id="edge1" class="edge">
<title>theta&#45;&gt;x</title>
<path fill="none" stroke="black" d="M63,-157.47C63,-149.69 63,-141.43 63,-133.34"/>
<polygon fill="black" stroke="black" points="66.5,-133.61 63,-123.61 59.5,-133.61 66.5,-133.61"/>
</g>
</g>
</svg>