<?xml version="1.0" encoding="utf-8" standalone="no"?>
<!DOCTYPE svg PUBLIC "-//W3C//DTD SVG 1.1//EN"
  "http://www.w3.org/Graphics/SVG/1.1/DTD/svg11.dtd">
<svg xmlns:xlink="http://www.w3.org/1999/xlink" width="402.632875pt" height="309.639375pt" viewBox="0 0 402.632875 309.639375" xmlns="http://www.w3.org/2000/svg" version="1.1">
 <metadata>
  <rdf:RDF xmlns:dc="http://purl.org/dc/elements/1.1/" xmlns:cc="http://creativecommons.org/ns#" xmlns:rdf="http://www.w3.org/1999/02/22-rdf-syntax-ns#">
   <cc:Work>
    <dc:type rdf:resource="http://purl.org/dc/dcmitype/StillImage"/>
    <dc:date>2023-10-14T22:13:54.025544</dc:date>
    <dc:format>image/svg+xml</dc:format>
    <dc:creator>
     <cc:Agent>
      <dc:title>Matplotlib v3.7.1, https://matplotlib.org/</dc:title>
     </cc:Agent>
    </dc:creator>
   </cc:Work>
  </rdf:RDF>
 </metadata>
 <defs>
  <style type="text/css">*{stroke-linejoin: round; stroke-linecap: butt}</style>
 </defs>
 <g id="figure_1">
  <g id="patch_1">
   <path d="M 0 309.639375 
L 402.632875 309.639375 
L 402.632875 0 
L 0 0 
z
" style="fill: #ffffff"/>
  </g>
  <g id="axes_1">
   <g id="patch_2">
    <path d="M 38.312875 273.312 
L 395.432875 273.312 
L 395.432875 7.2 
L 38.312875 7.2 
z
" style="fill: #ffffff"/>
   </g>
   <g id="matplotlib.axis_1">
    <g id="xtick_1">
     <g id="line2d_1">
      <defs>
       <path id="mf07ec1671d" d="M 0 0 
L 0 4.8 
" style="stroke: #262626"/>
      </defs>
      <g>
       <use xlink:href="#mf07ec1671d" x="54.545602" y="273.312" style="fill: #262626; stroke: #262626"/>
      </g>
     </g>
     <g id="text_1">
      <!-- 0.0 -->
      <g style="fill: #262626" transform="translate(48.429602 287.910875) scale(0.088 -0.088)">
       <defs>
        <path id="ArialMT-30" d="M 266 2259 
Q 266 3072 433 3567 
Q 600 4063 929 4331 
Q 1259 4600 1759 4600 
Q 2128 4600 2406 4451 
Q 2684 4303 2865 4023 
Q 3047 3744 3150 3342 
Q 3253 2941 3253 2259 
Q 3253 1453 3087 958 
Q 2922 463 2592 192 
Q 2263 -78 1759 -78 
Q 1097 -78 719 397 
Q 266 969 266 2259 
z
M 844 2259 
Q 844 1131 1108 757 
Q 1372 384 1759 384 
Q 2147 384 2411 759 
Q 2675 1134 2675 2259 
Q 2675 3391 2411 3762 
Q 2147 4134 1753 4134 
Q 1366 4134 1134 3806 
Q 844 3388 844 2259 
z
" transform="scale(0.015625)"/>
        <path id="ArialMT-2e" d="M 581 0 
L 581 641 
L 1222 641 
L 1222 0 
L 581 0 
z
" transform="scale(0.015625)"/>
       </defs>
       <use xlink:href="#ArialMT-30"/>
       <use xlink:href="#ArialMT-2e" x="55.615234"/>
       <use xlink:href="#ArialMT-30" x="83.398438"/>
      </g>
     </g>
    </g>
    <g id="xtick_2">
     <g id="line2d_2">
      <g>
       <use xlink:href="#mf07ec1671d" x="119.476511" y="273.312" style="fill: #262626; stroke: #262626"/>
      </g>
     </g>
     <g id="text_2">
      <!-- 0.2 -->
      <g style="fill: #262626" transform="translate(113.360511 287.910875) scale(0.088 -0.088)">
       <defs>
        <path id="ArialMT-32" d="M 3222 541 
L 3222 0 
L 194 0 
Q 188 203 259 391 
Q 375 700 629 1000 
Q 884 1300 1366 1694 
Q 2113 2306 2375 2664 
Q 2638 3022 2638 3341 
Q 2638 3675 2398 3904 
Q 2159 4134 1775 4134 
Q 1369 4134 1125 3890 
Q 881 3647 878 3216 
L 300 3275 
Q 359 3922 746 4261 
Q 1134 4600 1788 4600 
Q 2447 4600 2831 4234 
Q 3216 3869 3216 3328 
Q 3216 3053 3103 2787 
Q 2991 2522 2730 2228 
Q 2469 1934 1863 1422 
Q 1356 997 1212 845 
Q 1069 694 975 541 
L 3222 541 
z
" transform="scale(0.015625)"/>
       </defs>
       <use xlink:href="#ArialMT-30"/>
       <use xlink:href="#ArialMT-2e" x="55.615234"/>
       <use xlink:href="#ArialMT-32" x="83.398438"/>
      </g>
     </g>
    </g>
    <g id="xtick_3">
     <g id="line2d_3">
      <g>
       <use xlink:href="#mf07ec1671d" x="184.40742" y="273.312" style="fill: #262626; stroke: #262626"/>
      </g>
     </g>
     <g id="text_3">
      <!-- 0.4 -->
      <g style="fill: #262626" transform="translate(178.29142 287.910875) scale(0.088 -0.088)">
       <defs>
        <path id="ArialMT-34" d="M 2069 0 
L 2069 1097 
L 81 1097 
L 81 1613 
L 2172 4581 
L 2631 4581 
L 2631 1613 
L 3250 1613 
L 3250 1097 
L 2631 1097 
L 2631 0 
L 2069 0 
z
M 2069 1613 
L 2069 3678 
L 634 1613 
L 2069 1613 
z
" transform="scale(0.015625)"/>
       </defs>
       <use xlink:href="#ArialMT-30"/>
       <use xlink:href="#ArialMT-2e" x="55.615234"/>
       <use xlink:href="#ArialMT-34" x="83.398438"/>
      </g>
     </g>
    </g>
    <g id="xtick_4">
     <g id="line2d_4">
      <g>
       <use xlink:href="#mf07ec1671d" x="249.33833" y="273.312" style="fill: #262626; stroke: #262626"/>
      </g>
     </g>
     <g id="text_4">
      <!-- 0.6 -->
      <g style="fill: #262626" transform="translate(243.22233 287.910875) scale(0.088 -0.088)">
       <defs>
        <path id="ArialMT-36" d="M 3184 3459 
L 2625 3416 
Q 2550 3747 2413 3897 
Q 2184 4138 1850 4138 
Q 1581 4138 1378 3988 
Q 1113 3794 959 3422 
Q 806 3050 800 2363 
Q 1003 2672 1297 2822 
Q 1591 2972 1913 2972 
Q 2475 2972 2870 2558 
Q 3266 2144 3266 1488 
Q 3266 1056 3080 686 
Q 2894 316 2569 119 
Q 2244 -78 1831 -78 
Q 1128 -78 684 439 
Q 241 956 241 2144 
Q 241 3472 731 4075 
Q 1159 4600 1884 4600 
Q 2425 4600 2770 4297 
Q 3116 3994 3184 3459 
z
M 888 1484 
Q 888 1194 1011 928 
Q 1134 663 1356 523 
Q 1578 384 1822 384 
Q 2178 384 2434 671 
Q 2691 959 2691 1453 
Q 2691 1928 2437 2201 
Q 2184 2475 1800 2475 
Q 1419 2475 1153 2201 
Q 888 1928 888 1484 
z
" transform="scale(0.015625)"/>
       </defs>
       <use xlink:href="#ArialMT-30"/>
       <use xlink:href="#ArialMT-2e" x="55.615234"/>
       <use xlink:href="#ArialMT-36" x="83.398438"/>
      </g>
     </g>
    </g>
    <g id="xtick_5">
     <g id="line2d_5">
      <g>
       <use xlink:href="#mf07ec1671d" x="314.269239" y="273.312" style="fill: #262626; stroke: #262626"/>
      </g>
     </g>
     <g id="text_5">
      <!-- 0.8 -->
      <g style="fill: #262626" transform="translate(308.153239 287.910875) scale(0.088 -0.088)">
       <defs>
        <path id="ArialMT-38" d="M 1131 2484 
Q 781 2613 612 2850 
Q 444 3088 444 3419 
Q 444 3919 803 4259 
Q 1163 4600 1759 4600 
Q 2359 4600 2725 4251 
Q 3091 3903 3091 3403 
Q 3091 3084 2923 2848 
Q 2756 2613 2416 2484 
Q 2838 2347 3058 2040 
Q 3278 1734 3278 1309 
Q 3278 722 2862 322 
Q 2447 -78 1769 -78 
Q 1091 -78 675 323 
Q 259 725 259 1325 
Q 259 1772 486 2073 
Q 713 2375 1131 2484 
z
M 1019 3438 
Q 1019 3113 1228 2906 
Q 1438 2700 1772 2700 
Q 2097 2700 2305 2904 
Q 2513 3109 2513 3406 
Q 2513 3716 2298 3927 
Q 2084 4138 1766 4138 
Q 1444 4138 1231 3931 
Q 1019 3725 1019 3438 
z
M 838 1322 
Q 838 1081 952 856 
Q 1066 631 1291 507 
Q 1516 384 1775 384 
Q 2178 384 2440 643 
Q 2703 903 2703 1303 
Q 2703 1709 2433 1975 
Q 2163 2241 1756 2241 
Q 1359 2241 1098 1978 
Q 838 1716 838 1322 
z
" transform="scale(0.015625)"/>
       </defs>
       <use xlink:href="#ArialMT-30"/>
       <use xlink:href="#ArialMT-2e" x="55.615234"/>
       <use xlink:href="#ArialMT-38" x="83.398438"/>
      </g>
     </g>
    </g>
    <g id="xtick_6">
     <g id="line2d_6">
      <g>
       <use xlink:href="#mf07ec1671d" x="379.200148" y="273.312" style="fill: #262626; stroke: #262626"/>
      </g>
     </g>
     <g id="text_6">
      <!-- 1.0 -->
      <g style="fill: #262626" transform="translate(373.084148 287.910875) scale(0.088 -0.088)">
       <defs>
        <path id="ArialMT-31" d="M 2384 0 
L 1822 0 
L 1822 3584 
Q 1619 3391 1289 3197 
Q 959 3003 697 2906 
L 697 3450 
Q 1169 3672 1522 3987 
Q 1875 4303 2022 4600 
L 2384 4600 
L 2384 0 
z
" transform="scale(0.015625)"/>
       </defs>
       <use xlink:href="#ArialMT-31"/>
       <use xlink:href="#ArialMT-2e" x="55.615234"/>
       <use xlink:href="#ArialMT-30" x="83.398438"/>
      </g>
     </g>
    </g>
    <g id="text_7">
     <!-- $x$ -->
     <g style="fill: #262626" transform="translate(213.992875 300.531375) scale(0.096 -0.096)">
      <defs>
       <path id="DejaVuSans-Oblique-78" d="M 3841 3500 
L 2234 1784 
L 3219 0 
L 2559 0 
L 1819 1388 
L 531 0 
L -166 0 
L 1556 1844 
L 641 3500 
L 1300 3500 
L 1972 2234 
L 3144 3500 
L 3841 3500 
z
" transform="scale(0.015625)"/>
      </defs>
      <use xlink:href="#DejaVuSans-Oblique-78" transform="translate(0 0.3125)"/>
     </g>
    </g>
   </g>
   <g id="matplotlib.axis_2">
    <g id="ytick_1">
     <g id="line2d_7">
      <defs>
       <path id="maeb95a7ba1" d="M 0 0 
L -4.8 0 
" style="stroke: #262626"/>
      </defs>
      <g>
       <use xlink:href="#maeb95a7ba1" x="38.312875" y="246.7008" style="fill: #262626; stroke: #262626"/>
      </g>
     </g>
     <g id="text_8">
      <!-- −4 -->
      <g style="fill: #262626" transform="translate(19.9795 249.850237) scale(0.088 -0.088)">
       <defs>
        <path id="ArialMT-2212" d="M 3381 1997 
L 356 1997 
L 356 2522 
L 3381 2522 
L 3381 1997 
z
" transform="scale(0.015625)"/>
       </defs>
       <use xlink:href="#ArialMT-2212"/>
       <use xlink:href="#ArialMT-34" x="58.398438"/>
      </g>
     </g>
    </g>
    <g id="ytick_2">
     <g id="line2d_8">
      <g>
       <use xlink:href="#maeb95a7ba1" x="38.312875" y="193.4784" style="fill: #262626; stroke: #262626"/>
      </g>
     </g>
     <g id="text_9">
      <!-- −2 -->
      <g style="fill: #262626" transform="translate(19.9795 196.627837) scale(0.088 -0.088)">
       <use xlink:href="#ArialMT-2212"/>
       <use xlink:href="#ArialMT-32" x="58.398438"/>
      </g>
     </g>
    </g>
    <g id="ytick_3">
     <g id="line2d_9">
      <g>
       <use xlink:href="#maeb95a7ba1" x="38.312875" y="140.256" style="fill: #262626; stroke: #262626"/>
      </g>
     </g>
     <g id="text_10">
      <!-- 0 -->
      <g style="fill: #262626" transform="translate(25.11925 143.405437) scale(0.088 -0.088)">
       <use xlink:href="#ArialMT-30"/>
      </g>
     </g>
    </g>
    <g id="ytick_4">
     <g id="line2d_10">
      <g>
       <use xlink:href="#maeb95a7ba1" x="38.312875" y="87.0336" style="fill: #262626; stroke: #262626"/>
      </g>
     </g>
     <g id="text_11">
      <!-- 2 -->
      <g style="fill: #262626" transform="translate(25.11925 90.183037) scale(0.088 -0.088)">
       <use xlink:href="#ArialMT-32"/>
      </g>
     </g>
    </g>
    <g id="ytick_5">
     <g id="line2d_11">
      <g>
       <use xlink:href="#maeb95a7ba1" x="38.312875" y="33.8112" style="fill: #262626; stroke: #262626"/>
      </g>
     </g>
     <g id="text_12">
      <!-- 4 -->
      <g style="fill: #262626" transform="translate(25.11925 36.960637) scale(0.088 -0.088)">
       <use xlink:href="#ArialMT-34"/>
      </g>
     </g>
    </g>
    <g id="text_13">
     <!-- $y$ -->
     <g style="fill: #262626" transform="translate(13.9635 143.136) rotate(-90) scale(0.096 -0.096)">
      <defs>
       <path id="DejaVuSans-Oblique-79" d="M 1588 -325 
Q 1188 -997 936 -1164 
Q 684 -1331 294 -1331 
L -159 -1331 
L -63 -850 
L 269 -850 
Q 509 -850 678 -719 
Q 847 -588 1056 -206 
L 1234 128 
L 459 3500 
L 1069 3500 
L 1650 819 
L 3256 3500 
L 3859 3500 
L 1588 -325 
z
" transform="scale(0.015625)"/>
      </defs>
      <use xlink:href="#DejaVuSans-Oblique-79" transform="translate(0 0.3125)"/>
     </g>
    </g>
   </g>
   <g id="line2d_12">
    <path d="M 54.545602 140.256 
L 57.824941 140.256 
L 61.10428 140.256 
L 64.383619 140.256 
L 67.662958 140.256 
L 70.942296 140.256 
L 74.221636 140.256 
L 77.500973 140.256 
L 80.780313 140.256 
L 84.059653 140.256 
L 87.33899 140.256 
L 90.61833 140.256 
L 93.89767 140.256 
L 97.177007 140.256 
L 100.456344 140.256 
L 103.735686 140.256 
L 107.015024 140.256 
L 110.294361 140.256 
L 113.573703 140.256 
L 116.853041 140.256 
L 120.132378 140.256 
L 123.41172 140.256 
L 126.691057 140.256 
L 129.970395 140.256 
L 133.249737 140.256 
L 136.529069 140.256 
L 139.808412 140.256 
L 143.087754 140.256 
L 146.367086 140.256 
L 149.646428 140.256 
L 152.92577 140.256 
L 156.205103 140.256 
L 159.484445 140.256 
L 162.763787 140.256 
L 166.04312 140.256 
L 169.322462 140.256 
L 172.601804 140.256 
L 175.881137 140.256 
L 179.160479 140.256 
L 182.439821 140.256 
L 185.719153 140.256 
L 188.998496 140.256 
L 192.277838 140.256 
L 195.55717 140.256 
L 198.836512 140.256 
L 202.115855 140.256 
L 205.395187 140.256 
L 208.674529 140.256 
L 211.953871 140.256 
L 215.233204 140.256 
L 218.512556 140.256 
L 221.791879 140.256 
L 225.071221 140.256 
L 228.350563 140.256 
L 231.629886 140.256 
L 234.909247 140.256 
L 238.18857 140.256 
L 241.467912 140.256 
L 244.747254 140.256 
L 248.026597 140.256 
L 251.305939 140.256 
L 254.585262 140.256 
L 257.864623 140.256 
L 261.143946 140.256 
L 264.423288 140.256 
L 267.70263 140.256 
L 270.981953 140.256 
L 274.261315 140.256 
L 277.540637 140.256 
L 280.81998 140.256 
L 284.099322 140.256 
L 287.378664 140.256 
L 290.658006 140.256 
L 293.937329 140.256 
L 297.21669 140.256 
L 300.496013 140.256 
L 303.775355 140.256 
L 307.054697 140.256 
L 310.33402 140.256 
L 313.613382 140.256 
L 316.892705 140.256 
L 320.172047 140.256 
L 323.451389 140.256 
L 326.730731 140.256 
L 330.010073 140.256 
L 333.289396 140.256 
L 336.568738 140.256 
L 339.84808 140.256 
L 343.127423 140.256 
L 346.406765 140.256 
L 349.686088 140.256 
L 352.96543 140.256 
L 356.244772 140.256 
L 359.524114 140.256 
L 362.803456 140.256 
L 366.082798 140.256 
L 369.362141 140.256 
L 372.641463 140.256 
L 375.920806 140.256 
L 379.200148 140.256 
" clip-path="url(#pf2065428f5)" style="fill: none; stroke: #1f77b4; stroke-width: 1.2; stroke-linecap: round"/>
   </g>
   <g id="line2d_13">
    <path d="M 54.545602 140.337462 
L 57.824941 140.250574 
L 61.10428 140.138263 
L 64.383619 140.099798 
L 67.662958 140.127648 
L 70.942296 140.319516 
L 74.221636 140.264998 
L 77.500973 140.266127 
L 80.780313 140.342333 
L 84.059653 140.270391 
L 87.33899 140.070099 
L 90.61833 140.296383 
L 93.89767 140.285723 
L 97.177007 140.313576 
L 100.456344 140.350805 
L 103.735686 140.281131 
L 107.015024 140.375689 
L 110.294361 140.39435 
L 113.573703 140.223911 
L 116.853041 140.191696 
L 120.132378 140.272023 
L 123.41172 140.29388 
L 126.691057 140.115505 
L 129.970395 140.214573 
L 133.249737 140.080063 
L 136.529069 140.187887 
L 139.808412 140.228185 
L 143.087754 140.139189 
L 146.367086 140.182412 
L 149.646428 140.158681 
L 152.92577 140.223794 
L 156.205103 140.210321 
L 159.484445 140.212464 
L 162.763787 140.14445 
L 166.04312 140.044026 
L 169.322462 140.120091 
L 172.601804 140.153314 
L 175.881137 140.033211 
L 179.160479 140.071185 
L 182.439821 139.990287 
L 185.719153 140.038262 
L 188.998496 140.000292 
L 192.277838 140.015469 
L 195.55717 140.067272 
L 198.836512 139.971148 
L 202.115855 140.018221 
L 205.395187 139.959656 
L 208.674529 139.843161 
L 211.953871 139.914106 
L 215.233204 139.857153 
L 218.512556 139.756915 
L 221.791879 139.778765 
L 225.071221 139.808864 
L 228.350563 139.984398 
L 231.629886 139.64445 
L 234.909247 139.64499 
L 238.18857 139.801393 
L 241.467912 139.665743 
L 244.747254 139.582133 
L 248.026597 139.565983 
L 251.305939 139.409832 
L 254.585262 139.606091 
L 257.864623 139.491418 
L 261.143946 139.325876 
L 264.423288 139.317133 
L 267.70263 139.217853 
L 270.981953 139.393671 
L 274.261315 139.334245 
L 277.540637 139.269238 
L 280.81998 139.069998 
L 284.099322 139.263667 
L 287.378664 139.234235 
L 290.658006 139.0852 
L 293.937329 139.115037 
L 297.21669 138.806391 
L 300.496013 138.849756 
L 303.775355 138.867313 
L 307.054697 138.82581 
L 310.33402 138.554879 
L 313.613382 138.72678 
L 316.892705 138.57363 
L 320.172047 138.534149 
L 323.451389 138.642338 
L 326.730731 138.446575 
L 330.010073 138.286797 
L 333.289396 138.242468 
L 336.568738 138.33413 
L 339.84808 138.011094 
L 343.127423 138.003504 
L 346.406765 137.975745 
L 349.686088 137.881928 
L 352.96543 137.964144 
L 356.244772 137.643317 
L 359.524114 137.717836 
L 362.803456 137.60685 
L 366.082798 137.459264 
L 369.362141 137.489976 
L 372.641463 137.301881 
L 375.920806 137.270085 
L 379.200148 136.947561 
" clip-path="url(#pf2065428f5)" style="fill: none; stroke: #ff7f0e; stroke-width: 0.5; stroke-linecap: round"/>
   </g>
   <g id="line2d_14">
    <path d="M 54.545602 140.281934 
L 57.824941 140.272255 
L 61.10428 140.373321 
L 64.383619 140.174648 
L 67.662958 140.188618 
L 70.942296 140.21801 
L 74.221636 140.270488 
L 77.500973 140.254681 
L 80.780313 140.251059 
L 84.059653 140.106889 
L 87.33899 140.349821 
L 90.61833 140.351074 
L 93.89767 140.276435 
L 97.177007 140.260783 
L 100.456344 140.31188 
L 103.735686 140.434056 
L 107.015024 140.30023 
L 110.294361 140.474932 
L 113.573703 140.400366 
L 116.853041 140.347945 
L 120.132378 140.297742 
L 123.41172 140.366989 
L 126.691057 140.615324 
L 129.970395 140.610473 
L 133.249737 140.436918 
L 136.529069 140.578228 
L 139.808412 140.535209 
L 143.087754 140.672508 
L 146.367086 140.653684 
L 149.646428 140.642018 
L 152.92577 140.716088 
L 156.205103 140.829431 
L 159.484445 140.991804 
L 162.763787 141.127267 
L 166.04312 141.084878 
L 169.322462 140.994224 
L 172.601804 141.028226 
L 175.881137 141.198374 
L 179.160479 141.157724 
L 182.439821 141.409038 
L 185.719153 141.485672 
L 188.998496 141.767811 
L 192.277838 141.574051 
L 195.55717 141.848226 
L 198.836512 141.95773 
L 202.115855 142.064694 
L 205.395187 142.228605 
L 208.674529 142.148874 
L 211.953871 142.356122 
L 215.233204 142.523697 
L 218.512556 142.707163 
L 221.791879 142.852134 
L 225.071221 143.124718 
L 228.350563 143.162493 
L 231.629886 143.497425 
L 234.909247 143.482789 
L 238.18857 143.680361 
L 241.467912 143.880329 
L 244.747254 144.051106 
L 248.026597 144.30003 
L 251.305939 144.524398 
L 254.585262 144.728329 
L 257.864623 145.016525 
L 261.143946 145.14715 
L 264.423288 145.473503 
L 267.70263 145.664276 
L 270.981953 145.889842 
L 274.261315 146.141791 
L 277.540637 146.374409 
L 280.81998 146.673253 
L 284.099322 147.109669 
L 287.378664 147.295921 
L 290.658006 147.515459 
L 293.937329 147.872084 
L 297.21669 148.285774 
L 300.496013 148.555834 
L 303.775355 148.88954 
L 307.054697 149.353966 
L 310.33402 149.644927 
L 313.613382 150.010258 
L 316.892705 150.337821 
L 320.172047 150.809356 
L 323.451389 151.21193 
L 326.730731 151.609897 
L 330.010073 151.965844 
L 333.289396 152.284288 
L 336.568738 152.784135 
L 339.84808 153.19572 
L 343.127423 153.727753 
L 346.406765 154.317777 
L 349.686088 154.669674 
L 352.96543 154.946654 
L 356.244772 155.678828 
L 359.524114 156.154865 
L 362.803456 156.651269 
L 366.082798 157.189819 
L 369.362141 157.559256 
L 372.641463 158.297731 
L 375.920806 158.806799 
L 379.200148 159.464452 
" clip-path="url(#pf2065428f5)" style="fill: none; stroke: #ff7f0e; stroke-width: 0.5; stroke-linecap: round"/>
   </g>
   <g id="line2d_15">
    <path d="M 54.545602 140.127858 
L 57.824941 140.265188 
L 61.10428 140.338661 
L 64.383619 140.387206 
L 67.662958 140.219319 
L 70.942296 140.147659 
L 74.221636 140.300702 
L 77.500973 140.292387 
L 80.780313 140.233654 
L 84.059653 140.18719 
L 87.33899 140.203024 
L 90.61833 140.308922 
L 93.89767 140.251334 
L 97.177007 140.470729 
L 100.456344 140.322618 
L 103.735686 140.304776 
L 107.015024 140.324822 
L 110.294361 140.248911 
L 113.573703 140.330389 
L 116.853041 140.469018 
L 120.132378 140.32448 
L 123.41172 140.274978 
L 126.691057 140.336043 
L 129.970395 140.463541 
L 133.249737 140.362714 
L 136.529069 140.538171 
L 139.808412 140.426108 
L 143.087754 140.416488 
L 146.367086 140.365693 
L 149.646428 140.571557 
L 152.92577 140.610234 
L 156.205103 140.50771 
L 159.484445 140.628263 
L 162.763787 140.530752 
L 166.04312 140.777344 
L 169.322462 140.690037 
L 172.601804 140.864479 
L 175.881137 140.836114 
L 179.160479 140.860964 
L 182.439821 140.956055 
L 185.719153 141.019304 
L 188.998496 140.986052 
L 192.277838 141.151023 
L 195.55717 141.206117 
L 198.836512 141.032632 
L 202.115855 141.173616 
L 205.395187 141.242578 
L 208.674529 141.415358 
L 211.953871 141.306381 
L 215.233204 141.424934 
L 218.512556 141.582729 
L 221.791879 141.627879 
L 225.071221 141.889908 
L 228.350563 141.831234 
L 231.629886 141.978116 
L 234.909247 141.99452 
L 238.18857 142.184862 
L 241.467912 142.23715 
L 244.747254 142.349796 
L 248.026597 142.441737 
L 251.305939 142.620193 
L 254.585262 142.785348 
L 257.864623 142.908495 
L 261.143946 142.899588 
L 264.423288 143.100091 
L 267.70263 143.331353 
L 270.981953 143.365183 
L 274.261315 143.61193 
L 277.540637 143.63865 
L 280.81998 143.73723 
L 284.099322 143.962815 
L 287.378664 144.195217 
L 290.658006 144.413601 
L 293.937329 144.454044 
L 297.21669 144.659945 
L 300.496013 144.640907 
L 303.775355 145.044099 
L 307.054697 145.179946 
L 310.33402 145.590506 
L 313.613382 145.675375 
L 316.892705 145.892438 
L 320.172047 145.996353 
L 323.451389 146.295226 
L 326.730731 146.45827 
L 330.010073 146.778436 
L 333.289396 146.886327 
L 336.568738 147.261866 
L 339.84808 147.322664 
L 343.127423 147.709579 
L 346.406765 147.86644 
L 349.686088 148.210619 
L 352.96543 148.30604 
L 356.244772 148.694778 
L 359.524114 149.018571 
L 362.803456 149.265231 
L 366.082798 149.510724 
L 369.362141 149.861955 
L 372.641463 150.080939 
L 375.920806 150.508548 
L 379.200148 150.793752 
" clip-path="url(#pf2065428f5)" style="fill: none; stroke: #ff7f0e; stroke-width: 0.5; stroke-linecap: round"/>
   </g>
   <g id="line2d_16">
    <path d="M 54.545602 140.192161 
L 57.824941 140.30555 
L 61.10428 140.256309 
L 64.383619 140.238629 
L 67.662958 140.257938 
L 70.942296 140.226849 
L 74.221636 140.272382 
L 77.500973 140.380031 
L 80.780313 140.315023 
L 84.059653 140.232862 
L 87.33899 140.310821 
L 90.61833 140.313535 
L 93.89767 140.342788 
L 97.177007 140.470323 
L 100.456344 140.420794 
L 103.735686 140.325429 
L 107.015024 140.25848 
L 110.294361 140.547797 
L 113.573703 140.685457 
L 116.853041 140.610958 
L 120.132378 140.452792 
L 123.41172 140.592696 
L 126.691057 140.587681 
L 129.970395 140.671454 
L 133.249737 140.767987 
L 136.529069 140.948328 
L 139.808412 140.984301 
L 143.087754 141.004804 
L 146.367086 141.199241 
L 149.646428 141.221048 
L 152.92577 141.414647 
L 156.205103 141.355568 
L 159.484445 141.575513 
L 162.763787 141.684557 
L 166.04312 141.730622 
L 169.322462 142.023627 
L 172.601804 142.128275 
L 175.881137 142.282697 
L 179.160479 142.434522 
L 182.439821 142.511713 
L 185.719153 142.809347 
L 188.998496 142.764819 
L 192.277838 143.107895 
L 195.55717 143.517362 
L 198.836512 143.682747 
L 202.115855 143.798963 
L 205.395187 144.099963 
L 208.674529 144.201978 
L 211.953871 144.636949 
L 215.233204 144.891758 
L 218.512556 145.220322 
L 221.791879 145.382904 
L 225.071221 145.849387 
L 228.350563 146.201814 
L 231.629886 146.598556 
L 234.909247 146.824133 
L 238.18857 147.159532 
L 241.467912 147.54052 
L 244.747254 148.085468 
L 248.026597 148.325614 
L 251.305939 148.890283 
L 254.585262 149.209667 
L 257.864623 149.664026 
L 261.143946 150.174415 
L 264.423288 150.657895 
L 267.70263 151.088089 
L 270.981953 151.542108 
L 274.261315 152.085927 
L 277.540637 152.695183 
L 280.81998 153.116709 
L 284.099322 153.739189 
L 287.378664 154.406108 
L 290.658006 154.853292 
L 293.937329 155.494929 
L 297.21669 156.216462 
L 300.496013 156.830434 
L 303.775355 157.62142 
L 307.054697 158.256572 
L 310.33402 158.934 
L 313.613382 159.782688 
L 316.892705 160.387836 
L 320.172047 161.131982 
L 323.451389 162.020858 
L 326.730731 162.655312 
L 330.010073 163.634075 
L 333.289396 164.477483 
L 336.568738 165.436942 
L 339.84808 166.318482 
L 343.127423 167.114786 
L 346.406765 168.057188 
L 349.686088 169.018275 
L 352.96543 169.950129 
L 356.244772 170.946064 
L 359.524114 172.046612 
L 362.803456 173.120848 
L 366.082798 174.027264 
L 369.362141 175.356642 
L 372.641463 176.355375 
L 375.920806 177.340918 
L 379.200148 178.503557 
" clip-path="url(#pf2065428f5)" style="fill: none; stroke: #ff7f0e; stroke-width: 0.5; stroke-linecap: round"/>
   </g>
   <g id="line2d_17">
    <path d="M 54.545602 140.367895 
L 57.824941 140.174303 
L 61.10428 140.214419 
L 64.383619 140.221099 
L 67.662958 140.209063 
L 70.942296 140.067788 
L 74.221636 140.216802 
L 77.500973 140.23942 
L 80.780313 140.295615 
L 84.059653 140.170573 
L 87.33899 140.168097 
L 90.61833 140.278999 
L 93.89767 140.261011 
L 97.177007 140.359119 
L 100.456344 140.257621 
L 103.735686 140.352002 
L 107.015024 140.33069 
L 110.294361 140.338217 
L 113.573703 140.307269 
L 116.853041 140.415962 
L 120.132378 140.293849 
L 123.41172 140.448455 
L 126.691057 140.406412 
L 129.970395 140.524374 
L 133.249737 140.393094 
L 136.529069 140.503899 
L 139.808412 140.50044 
L 143.087754 140.351372 
L 146.367086 140.494041 
L 149.646428 140.542368 
L 152.92577 140.589359 
L 156.205103 140.722019 
L 159.484445 140.648039 
L 162.763787 140.735083 
L 166.04312 140.765833 
L 169.322462 140.857749 
L 172.601804 140.949492 
L 175.881137 140.994781 
L 179.160479 140.914034 
L 182.439821 141.0699 
L 185.719153 141.012324 
L 188.998496 141.143419 
L 192.277838 141.306599 
L 195.55717 141.323287 
L 198.836512 141.317149 
L 202.115855 141.579194 
L 205.395187 141.416493 
L 208.674529 141.520296 
L 211.953871 141.761986 
L 215.233204 141.763964 
L 218.512556 141.943316 
L 221.791879 142.176376 
L 225.071221 142.112867 
L 228.350563 142.352767 
L 231.629886 142.506872 
L 234.909247 142.574641 
L 238.18857 142.605144 
L 241.467912 142.72236 
L 244.747254 142.971551 
L 248.026597 143.155799 
L 251.305939 143.1066 
L 254.585262 143.394271 
L 257.864623 143.488745 
L 261.143946 143.548714 
L 264.423288 143.917486 
L 267.70263 143.838494 
L 270.981953 144.105858 
L 274.261315 144.274605 
L 277.540637 144.541482 
L 280.81998 144.503397 
L 284.099322 144.794447 
L 287.378664 145.108685 
L 290.658006 145.142876 
L 293.937329 145.431607 
L 297.21669 145.702338 
L 300.496013 145.999462 
L 303.775355 146.224503 
L 307.054697 146.395535 
L 310.33402 146.800163 
L 313.613382 146.885289 
L 316.892705 147.257209 
L 320.172047 147.628254 
L 323.451389 147.673043 
L 326.730731 148.187798 
L 330.010073 148.322314 
L 333.289396 148.54331 
L 336.568738 148.849546 
L 339.84808 149.113047 
L 343.127423 149.486405 
L 346.406765 149.600535 
L 349.686088 149.952503 
L 352.96543 150.401109 
L 356.244772 150.699557 
L 359.524114 151.220044 
L 362.803456 151.3256 
L 366.082798 151.740331 
L 369.362141 152.141634 
L 372.641463 152.49819 
L 375.920806 152.974704 
L 379.200148 153.392004 
" clip-path="url(#pf2065428f5)" style="fill: none; stroke: #ff7f0e; stroke-width: 0.5; stroke-linecap: round"/>
   </g>
   <g id="line2d_18">
    <path d="M 54.545602 140.389246 
L 57.824941 140.146441 
L 61.10428 140.29011 
L 64.383619 140.214842 
L 67.662958 140.30623 
L 70.942296 140.300053 
L 74.221636 140.246121 
L 77.500973 140.191665 
L 80.780313 140.430281 
L 84.059653 140.271845 
L 87.33899 140.318029 
L 90.61833 140.406275 
L 93.89767 140.327561 
L 97.177007 140.341984 
L 100.456344 140.176341 
L 103.735686 140.265352 
L 107.015024 140.347541 
L 110.294361 140.316607 
L 113.573703 140.349417 
L 116.853041 140.230515 
L 120.132378 140.472152 
L 123.41172 140.378163 
L 126.691057 140.419932 
L 129.970395 140.475852 
L 133.249737 140.509436 
L 136.529069 140.556487 
L 139.808412 140.504413 
L 143.087754 140.491544 
L 146.367086 140.846902 
L 149.646428 140.62612 
L 152.92577 140.806745 
L 156.205103 140.666208 
L 159.484445 140.829792 
L 162.763787 140.990137 
L 166.04312 140.925716 
L 169.322462 141.009285 
L 172.601804 140.962476 
L 175.881137 141.083284 
L 179.160479 141.140777 
L 182.439821 141.194201 
L 185.719153 141.558322 
L 188.998496 141.320094 
L 192.277838 141.662375 
L 195.55717 141.567726 
L 198.836512 141.797945 
L 202.115855 141.825856 
L 205.395187 141.907213 
L 208.674529 142.043547 
L 211.953871 142.140031 
L 215.233204 142.306827 
L 218.512556 142.390765 
L 221.791879 142.447107 
L 225.071221 142.758096 
L 228.350563 142.92924 
L 231.629886 143.079772 
L 234.909247 143.189499 
L 238.18857 143.356919 
L 241.467912 143.480175 
L 244.747254 143.619841 
L 248.026597 143.829167 
L 251.305939 144.024917 
L 254.585262 144.084601 
L 257.864623 144.243785 
L 261.143946 144.630944 
L 264.423288 144.781281 
L 267.70263 144.940389 
L 270.981953 145.435456 
L 274.261315 145.539742 
L 277.540637 145.910185 
L 280.81998 146.102988 
L 284.099322 146.144224 
L 287.378664 146.513249 
L 290.658006 146.782327 
L 293.937329 147.184561 
L 297.21669 147.244962 
L 300.496013 147.824225 
L 303.775355 147.937673 
L 307.054697 148.138656 
L 310.33402 148.44982 
L 313.613382 149.048998 
L 316.892705 149.21532 
L 320.172047 149.566257 
L 323.451389 149.880546 
L 326.730731 150.190595 
L 330.010073 150.647693 
L 333.289396 150.880998 
L 336.568738 151.459285 
L 339.84808 151.725359 
L 343.127423 152.155393 
L 346.406765 152.619379 
L 349.686088 153.034447 
L 352.96543 153.489759 
L 356.244772 154.103545 
L 359.524114 154.40194 
L 362.803456 154.817343 
L 366.082798 155.20457 
L 369.362141 155.7695 
L 372.641463 156.2094 
L 375.920806 156.695497 
L 379.200148 157.263336 
" clip-path="url(#pf2065428f5)" style="fill: none; stroke: #ff7f0e; stroke-width: 0.5; stroke-linecap: round"/>
   </g>
   <g id="line2d_19">
    <path d="M 54.545602 140.363697 
L 57.824941 140.104289 
L 61.10428 140.386736 
L 64.383619 140.235914 
L 67.662958 140.18229 
L 70.942296 140.24071 
L 74.221636 140.232455 
L 77.500973 140.183632 
L 80.780313 140.196487 
L 84.059653 140.299405 
L 87.33899 140.196708 
L 90.61833 140.349391 
L 93.89767 140.299634 
L 97.177007 140.209307 
L 100.456344 140.091285 
L 103.735686 140.112765 
L 107.015024 140.150895 
L 110.294361 140.107745 
L 113.573703 140.046512 
L 116.853041 140.041193 
L 120.132378 139.993194 
L 123.41172 140.044408 
L 126.691057 139.942858 
L 129.970395 139.968451 
L 133.249737 139.808975 
L 136.529069 139.741045 
L 139.808412 139.831056 
L 143.087754 139.470324 
L 146.367086 139.530918 
L 149.646428 139.468244 
L 152.92577 139.493604 
L 156.205103 139.260779 
L 159.484445 139.103086 
L 162.763787 139.203565 
L 166.04312 138.901963 
L 169.322462 138.638872 
L 172.601804 138.880157 
L 175.881137 138.511767 
L 179.160479 138.447355 
L 182.439821 138.387974 
L 185.719153 138.210625 
L 188.998496 137.963087 
L 192.277838 137.957554 
L 195.55717 137.710653 
L 198.836512 137.49475 
L 202.115855 137.295497 
L 205.395187 137.21309 
L 208.674529 136.841016 
L 211.953871 136.642438 
L 215.233204 136.506747 
L 218.512556 136.190862 
L 221.791879 135.891585 
L 225.071221 135.502613 
L 228.350563 135.448389 
L 231.629886 135.091181 
L 234.909247 134.723062 
L 238.18857 134.536034 
L 241.467912 134.18829 
L 244.747254 133.976473 
L 248.026597 133.69297 
L 251.305939 133.066704 
L 254.585262 132.95827 
L 257.864623 132.488226 
L 261.143946 132.165893 
L 264.423288 131.637462 
L 267.70263 131.482262 
L 270.981953 131.012721 
L 274.261315 130.503528 
L 277.540637 129.946846 
L 280.81998 129.575475 
L 284.099322 129.077826 
L 287.378664 128.587129 
L 290.658006 128.121633 
L 293.937329 127.464046 
L 297.21669 127.086306 
L 300.496013 126.63536 
L 303.775355 125.891631 
L 307.054697 125.498157 
L 310.33402 124.79178 
L 313.613382 123.992198 
L 316.892705 123.406228 
L 320.172047 122.873233 
L 323.451389 122.308979 
L 326.730731 121.583551 
L 330.010073 120.865563 
L 333.289396 120.234639 
L 336.568738 119.650539 
L 339.84808 118.691221 
L 343.127423 117.935145 
L 346.406765 117.234634 
L 349.686088 116.440023 
L 352.96543 115.500701 
L 356.244772 114.846985 
L 359.524114 113.975062 
L 362.803456 113.071952 
L 366.082798 112.175628 
L 369.362141 111.507687 
L 372.641463 110.452544 
L 375.920806 109.451422 
L 379.200148 108.586187 
" clip-path="url(#pf2065428f5)" style="fill: none; stroke: #ff7f0e; stroke-width: 0.5; stroke-linecap: round"/>
   </g>
   <g id="line2d_20">
    <path d="M 54.545602 140.197232 
L 57.824941 140.166047 
L 61.10428 140.212545 
L 64.383619 140.289794 
L 67.662958 140.384094 
L 70.942296 140.28312 
L 74.221636 140.244025 
L 77.500973 140.138555 
L 80.780313 140.122615 
L 84.059653 140.405764 
L 87.33899 140.14819 
L 90.61833 140.265032 
L 93.89767 140.195384 
L 97.177007 140.21644 
L 100.456344 140.161011 
L 103.735686 140.080878 
L 107.015024 140.013379 
L 110.294361 140.015498 
L 113.573703 140.015543 
L 116.853041 139.918764 
L 120.132378 139.856957 
L 123.41172 139.982736 
L 126.691057 139.838947 
L 129.970395 139.954668 
L 133.249737 139.836998 
L 136.529069 139.72438 
L 139.808412 139.655081 
L 143.087754 139.546201 
L 146.367086 139.339961 
L 149.646428 139.162629 
L 152.92577 139.236344 
L 156.205103 139.015219 
L 159.484445 138.912628 
L 162.763787 138.82471 
L 166.04312 138.748802 
L 169.322462 138.690284 
L 172.601804 138.541221 
L 175.881137 138.231016 
L 179.160479 138.120849 
L 182.439821 138.012911 
L 185.719153 137.700694 
L 188.998496 137.455689 
L 192.277838 137.342365 
L 195.55717 137.092195 
L 198.836512 136.965264 
L 202.115855 136.755831 
L 205.395187 136.576484 
L 208.674529 136.316001 
L 211.953871 135.9677 
L 215.233204 135.57331 
L 218.512556 135.336898 
L 221.791879 135.064046 
L 225.071221 134.808186 
L 228.350563 134.548773 
L 231.629886 134.097867 
L 234.909247 133.803608 
L 238.18857 133.59968 
L 241.467912 133.111294 
L 244.747254 132.734879 
L 248.026597 132.31049 
L 251.305939 131.811434 
L 254.585262 131.623357 
L 257.864623 131.067832 
L 261.143946 130.474658 
L 264.423288 130.199442 
L 267.70263 129.696643 
L 270.981953 129.005201 
L 274.261315 128.630149 
L 277.540637 128.126644 
L 280.81998 127.638713 
L 284.099322 126.922784 
L 287.378664 126.333723 
L 290.658006 125.853258 
L 293.937329 125.206466 
L 297.21669 124.599557 
L 300.496013 123.89694 
L 303.775355 123.264569 
L 307.054697 122.585173 
L 310.33402 121.785158 
L 313.613382 121.265525 
L 316.892705 120.546732 
L 320.172047 119.700641 
L 323.451389 118.947896 
L 326.730731 118.013527 
L 330.010073 117.309415 
L 333.289396 116.472187 
L 336.568738 115.555973 
L 339.84808 114.671709 
L 343.127423 113.957421 
L 346.406765 112.719636 
L 349.686088 111.904875 
L 352.96543 110.85083 
L 356.244772 110.075659 
L 359.524114 109.100721 
L 362.803456 108.05908 
L 366.082798 107.104144 
L 369.362141 105.84526 
L 372.641463 104.853935 
L 375.920806 103.820938 
L 379.200148 102.74023 
" clip-path="url(#pf2065428f5)" style="fill: none; stroke: #ff7f0e; stroke-width: 0.5; stroke-linecap: round"/>
   </g>
   <g id="line2d_21">
    <path d="M 54.545602 140.357244 
L 57.824941 140.162723 
L 61.10428 140.212693 
L 64.383619 140.213831 
L 67.662958 140.321427 
L 70.942296 140.260768 
L 74.221636 140.283457 
L 77.500973 140.139677 
L 80.780313 140.308894 
L 84.059653 140.368381 
L 87.33899 140.287527 
L 90.61833 140.266572 
L 93.89767 140.247001 
L 97.177007 140.349961 
L 100.456344 140.180358 
L 103.735686 140.277286 
L 107.015024 140.274893 
L 110.294361 140.303714 
L 113.573703 140.527846 
L 116.853041 140.431451 
L 120.132378 140.331332 
L 123.41172 140.535663 
L 126.691057 140.449454 
L 129.970395 140.653444 
L 133.249737 140.62342 
L 136.529069 140.612248 
L 139.808412 140.572172 
L 143.087754 140.791234 
L 146.367086 140.732741 
L 149.646428 140.87412 
L 152.92577 141.028002 
L 156.205103 141.008844 
L 159.484445 140.973046 
L 162.763787 141.022649 
L 166.04312 141.311428 
L 169.322462 141.272212 
L 172.601804 141.373484 
L 175.881137 141.54894 
L 179.160479 141.68187 
L 182.439821 141.716655 
L 185.719153 141.830674 
L 188.998496 141.926764 
L 192.277838 142.268578 
L 195.55717 142.276854 
L 198.836512 142.445044 
L 202.115855 142.462051 
L 205.395187 142.642496 
L 208.674529 142.849557 
L 211.953871 142.906308 
L 215.233204 143.193942 
L 218.512556 143.475026 
L 221.791879 143.479382 
L 225.071221 143.89898 
L 228.350563 144.021744 
L 231.629886 144.176308 
L 234.909247 144.380539 
L 238.18857 144.675282 
L 241.467912 144.824114 
L 244.747254 145.139785 
L 248.026597 145.206113 
L 251.305939 145.570219 
L 254.585262 145.863036 
L 257.864623 146.196468 
L 261.143946 146.481139 
L 264.423288 146.991134 
L 267.70263 147.21439 
L 270.981953 147.562224 
L 274.261315 147.89754 
L 277.540637 148.219847 
L 280.81998 148.547832 
L 284.099322 148.937327 
L 287.378664 149.270663 
L 290.658006 149.654329 
L 293.937329 149.976823 
L 297.21669 150.49759 
L 300.496013 150.714486 
L 303.775355 151.403273 
L 307.054697 151.743933 
L 310.33402 152.080092 
L 313.613382 152.601027 
L 316.892705 153.0632 
L 320.172047 153.577547 
L 323.451389 153.894224 
L 326.730731 154.583138 
L 330.010073 154.946624 
L 333.289396 155.660121 
L 336.568738 156.198665 
L 339.84808 156.777881 
L 343.127423 157.123239 
L 346.406765 158.021088 
L 349.686088 158.419611 
L 352.96543 159.195345 
L 356.244772 159.609361 
L 359.524114 160.391963 
L 362.803456 161.027269 
L 366.082798 161.719375 
L 369.362141 162.231374 
L 372.641463 163.025103 
L 375.920806 163.809018 
L 379.200148 164.536203 
" clip-path="url(#pf2065428f5)" style="fill: none; stroke: #ff7f0e; stroke-width: 0.5; stroke-linecap: round"/>
   </g>
   <g id="line2d_22">
    <path d="M 54.545602 140.219217 
L 57.824941 140.18511 
L 61.10428 140.22934 
L 64.383619 140.146632 
L 67.662958 140.19997 
L 70.942296 140.191607 
L 74.221636 140.186823 
L 77.500973 140.139131 
L 80.780313 140.40997 
L 84.059653 140.139792 
L 87.33899 140.271394 
L 90.61833 140.387613 
L 93.89767 140.288148 
L 97.177007 140.143395 
L 100.456344 140.415088 
L 103.735686 140.273102 
L 107.015024 140.200058 
L 110.294361 140.298097 
L 113.573703 140.311062 
L 116.853041 140.21009 
L 120.132378 140.168753 
L 123.41172 140.232278 
L 126.691057 140.137633 
L 129.970395 140.126346 
L 133.249737 140.077635 
L 136.529069 139.952494 
L 139.808412 140.151772 
L 143.087754 140.163938 
L 146.367086 139.933701 
L 149.646428 140.075832 
L 152.92577 139.970335 
L 156.205103 139.931841 
L 159.484445 140.153055 
L 162.763787 140.033869 
L 166.04312 139.902296 
L 169.322462 139.971815 
L 172.601804 139.714333 
L 175.881137 139.786199 
L 179.160479 139.779347 
L 182.439821 139.611646 
L 185.719153 139.669758 
L 188.998496 139.806847 
L 192.277838 139.679283 
L 195.55717 139.653852 
L 198.836512 139.439323 
L 202.115855 139.536284 
L 205.395187 139.593233 
L 208.674529 139.458678 
L 211.953871 139.583654 
L 215.233204 139.323308 
L 218.512556 139.369822 
L 221.791879 139.144623 
L 225.071221 139.216574 
L 228.350563 139.033609 
L 231.629886 139.0797 
L 234.909247 138.965071 
L 238.18857 138.824665 
L 241.467912 138.713863 
L 244.747254 138.505289 
L 248.026597 138.553347 
L 251.305939 138.42396 
L 254.585262 138.376068 
L 257.864623 138.400945 
L 261.143946 138.256887 
L 264.423288 138.172866 
L 267.70263 138.018476 
L 270.981953 137.867936 
L 274.261315 137.895875 
L 277.540637 137.765424 
L 280.81998 137.516747 
L 284.099322 137.497569 
L 287.378664 137.285257 
L 290.658006 137.277333 
L 293.937329 136.966094 
L 297.21669 136.963054 
L 300.496013 136.893602 
L 303.775355 136.696684 
L 307.054697 136.568789 
L 310.33402 136.554513 
L 313.613382 136.290656 
L 316.892705 136.21734 
L 320.172047 135.932345 
L 323.451389 135.78775 
L 326.730731 135.600104 
L 330.010073 135.485049 
L 333.289396 135.328053 
L 336.568738 135.090039 
L 339.84808 135.058398 
L 343.127423 134.734118 
L 346.406765 134.538432 
L 349.686088 134.33177 
L 352.96543 134.213722 
L 356.244772 134.053363 
L 359.524114 133.823125 
L 362.803456 133.540741 
L 366.082798 133.522428 
L 369.362141 133.143537 
L 372.641463 132.854751 
L 375.920806 132.614611 
L 379.200148 132.647382 
" clip-path="url(#pf2065428f5)" style="fill: none; stroke: #ff7f0e; stroke-width: 0.5; stroke-linecap: round"/>
   </g>
   <g id="patch_3">
    <path d="M 38.312875 246.7008 
L 38.312875 33.8112 
" style="fill: none; stroke: #262626; stroke-linejoin: miter; stroke-linecap: square"/>
   </g>
   <g id="patch_4">
    <path d="M 54.545602 273.312 
L 379.200148 273.312 
" style="fill: none; stroke: #262626; stroke-linejoin: miter; stroke-linecap: square"/>
   </g>
   <g id="legend_1">
    <g id="line2d_23">
     <path d="M 334.506625 18.338875 
L 343.306625 18.338875 
L 352.106625 18.338875 
" style="fill: none; stroke: #1f77b4; stroke-width: 1.2; stroke-linecap: round"/>
    </g>
    <g id="text_14">
     <!-- mean -->
     <g style="fill: #262626" transform="translate(359.146625 21.418875) scale(0.088 -0.088)">
      <defs>
       <path id="ArialMT-6d" d="M 422 0 
L 422 3319 
L 925 3319 
L 925 2853 
Q 1081 3097 1340 3245 
Q 1600 3394 1931 3394 
Q 2300 3394 2536 3241 
Q 2772 3088 2869 2813 
Q 3263 3394 3894 3394 
Q 4388 3394 4653 3120 
Q 4919 2847 4919 2278 
L 4919 0 
L 4359 0 
L 4359 2091 
Q 4359 2428 4304 2576 
Q 4250 2725 4106 2815 
Q 3963 2906 3769 2906 
Q 3419 2906 3187 2673 
Q 2956 2441 2956 1928 
L 2956 0 
L 2394 0 
L 2394 2156 
Q 2394 2531 2256 2718 
Q 2119 2906 1806 2906 
Q 1569 2906 1367 2781 
Q 1166 2656 1075 2415 
Q 984 2175 984 1722 
L 984 0 
L 422 0 
z
" transform="scale(0.015625)"/>
       <path id="ArialMT-65" d="M 2694 1069 
L 3275 997 
Q 3138 488 2766 206 
Q 2394 -75 1816 -75 
Q 1088 -75 661 373 
Q 234 822 234 1631 
Q 234 2469 665 2931 
Q 1097 3394 1784 3394 
Q 2450 3394 2872 2941 
Q 3294 2488 3294 1666 
Q 3294 1616 3291 1516 
L 816 1516 
Q 847 969 1125 678 
Q 1403 388 1819 388 
Q 2128 388 2347 550 
Q 2566 713 2694 1069 
z
M 847 1978 
L 2700 1978 
Q 2663 2397 2488 2606 
Q 2219 2931 1791 2931 
Q 1403 2931 1139 2672 
Q 875 2413 847 1978 
z
" transform="scale(0.015625)"/>
       <path id="ArialMT-61" d="M 2588 409 
Q 2275 144 1986 34 
Q 1697 -75 1366 -75 
Q 819 -75 525 192 
Q 231 459 231 875 
Q 231 1119 342 1320 
Q 453 1522 633 1644 
Q 813 1766 1038 1828 
Q 1203 1872 1538 1913 
Q 2219 1994 2541 2106 
Q 2544 2222 2544 2253 
Q 2544 2597 2384 2738 
Q 2169 2928 1744 2928 
Q 1347 2928 1158 2789 
Q 969 2650 878 2297 
L 328 2372 
Q 403 2725 575 2942 
Q 747 3159 1072 3276 
Q 1397 3394 1825 3394 
Q 2250 3394 2515 3294 
Q 2781 3194 2906 3042 
Q 3031 2891 3081 2659 
Q 3109 2516 3109 2141 
L 3109 1391 
Q 3109 606 3145 398 
Q 3181 191 3288 0 
L 2700 0 
Q 2613 175 2588 409 
z
M 2541 1666 
Q 2234 1541 1622 1453 
Q 1275 1403 1131 1340 
Q 988 1278 909 1158 
Q 831 1038 831 891 
Q 831 666 1001 516 
Q 1172 366 1500 366 
Q 1825 366 2078 508 
Q 2331 650 2450 897 
Q 2541 1088 2541 1459 
L 2541 1666 
z
" transform="scale(0.015625)"/>
       <path id="ArialMT-6e" d="M 422 0 
L 422 3319 
L 928 3319 
L 928 2847 
Q 1294 3394 1984 3394 
Q 2284 3394 2536 3286 
Q 2788 3178 2913 3003 
Q 3038 2828 3088 2588 
Q 3119 2431 3119 2041 
L 3119 0 
L 2556 0 
L 2556 2019 
Q 2556 2363 2490 2533 
Q 2425 2703 2258 2804 
Q 2091 2906 1866 2906 
Q 1506 2906 1245 2678 
Q 984 2450 984 1813 
L 984 0 
L 422 0 
z
" transform="scale(0.015625)"/>
      </defs>
      <use xlink:href="#ArialMT-6d"/>
      <use xlink:href="#ArialMT-65" x="83.300781"/>
      <use xlink:href="#ArialMT-61" x="138.916016"/>
      <use xlink:href="#ArialMT-6e" x="194.53125"/>
     </g>
    </g>
    <g id="line2d_24">
     <path d="M 334.506625 30.78675 
L 343.306625 30.78675 
L 352.106625 30.78675 
" style="fill: none; stroke: #ff7f0e; stroke-width: 0.5; stroke-linecap: round"/>
    </g>
    <g id="text_15">
     <!-- sample -->
     <g style="fill: #262626" transform="translate(359.146625 33.86675) scale(0.088 -0.088)">
      <defs>
       <path id="ArialMT-73" d="M 197 991 
L 753 1078 
Q 800 744 1014 566 
Q 1228 388 1613 388 
Q 2000 388 2187 545 
Q 2375 703 2375 916 
Q 2375 1106 2209 1216 
Q 2094 1291 1634 1406 
Q 1016 1563 777 1677 
Q 538 1791 414 1992 
Q 291 2194 291 2438 
Q 291 2659 392 2848 
Q 494 3038 669 3163 
Q 800 3259 1026 3326 
Q 1253 3394 1513 3394 
Q 1903 3394 2198 3281 
Q 2494 3169 2634 2976 
Q 2775 2784 2828 2463 
L 2278 2388 
Q 2241 2644 2061 2787 
Q 1881 2931 1553 2931 
Q 1166 2931 1000 2803 
Q 834 2675 834 2503 
Q 834 2394 903 2306 
Q 972 2216 1119 2156 
Q 1203 2125 1616 2013 
Q 2213 1853 2448 1751 
Q 2684 1650 2818 1456 
Q 2953 1263 2953 975 
Q 2953 694 2789 445 
Q 2625 197 2315 61 
Q 2006 -75 1616 -75 
Q 969 -75 630 194 
Q 291 463 197 991 
z
" transform="scale(0.015625)"/>
       <path id="ArialMT-70" d="M 422 -1272 
L 422 3319 
L 934 3319 
L 934 2888 
Q 1116 3141 1344 3267 
Q 1572 3394 1897 3394 
Q 2322 3394 2647 3175 
Q 2972 2956 3137 2557 
Q 3303 2159 3303 1684 
Q 3303 1175 3120 767 
Q 2938 359 2589 142 
Q 2241 -75 1856 -75 
Q 1575 -75 1351 44 
Q 1128 163 984 344 
L 984 -1272 
L 422 -1272 
z
M 931 1641 
Q 931 1000 1190 694 
Q 1450 388 1819 388 
Q 2194 388 2461 705 
Q 2728 1022 2728 1688 
Q 2728 2322 2467 2637 
Q 2206 2953 1844 2953 
Q 1484 2953 1207 2617 
Q 931 2281 931 1641 
z
" transform="scale(0.015625)"/>
       <path id="ArialMT-6c" d="M 409 0 
L 409 4581 
L 972 4581 
L 972 0 
L 409 0 
z
" transform="scale(0.015625)"/>
      </defs>
      <use xlink:href="#ArialMT-73"/>
      <use xlink:href="#ArialMT-61" x="50"/>
      <use xlink:href="#ArialMT-6d" x="105.615234"/>
      <use xlink:href="#ArialMT-70" x="188.916016"/>
      <use xlink:href="#ArialMT-6c" x="244.53125"/>
      <use xlink:href="#ArialMT-65" x="266.748047"/>
     </g>
    </g>
   </g>
  </g>
 </g>
 <defs>
  <clipPath id="pf2065428f5">
   <rect x="38.312875" y="7.2" width="357.12" height="266.112"/>
  </clipPath>
 </defs>
</svg>