<?xml version="1.0" encoding="utf-8" standalone="no"?>
<!DOCTYPE svg PUBLIC "-//W3C//DTD SVG 1.1//EN"
  "http://www.w3.org/Graphics/SVG/1.1/DTD/svg11.dtd">
<svg xmlns:xlink="http://www.w3.org/1999/xlink" width="440.955pt" height="322.510875pt" viewBox="0 0 440.955 322.510875" xmlns="http://www.w3.org/2000/svg" version="1.1">
 <metadata>
  <rdf:RDF xmlns:dc="http://purl.org/dc/elements/1.1/" xmlns:cc="http://creativecommons.org/ns#" xmlns:rdf="http://www.w3.org/1999/02/22-rdf-syntax-ns#">
   <cc:Work>
    <dc:type rdf:resource="http://purl.org/dc/dcmitype/StillImage"/>
    <dc:date>2023-10-23T15:19:21.434891</dc:date>
    <dc:format>image/svg+xml</dc:format>
    <dc:creator>
     <cc:Agent>
      <dc:title>Matplotlib v3.8.0, https://matplotlib.org/</dc:title>
     </cc:Agent>
    </dc:creator>
   </cc:Work>
  </rdf:RDF>
 </metadata>
 <defs>
  <style type="text/css">*{stroke-linejoin: round; stroke-linecap: butt}</style>
 </defs>
 <g id="figure_1">
  <g id="patch_1">
   <path d="M 0 322.510875 
L 440.955 322.510875 
L 440.955 0 
L 0 0 
z
" style="fill: #ffffff"/>
  </g>
  <g id="axes_1">
   <g id="patch_2">
    <path d="M 38.312875 286.1835 
L 395.432875 286.1835 
L 395.432875 20.0715 
L 38.312875 20.0715 
z
" style="fill: #ffffff"/>
   </g>
   <g id="matplotlib.axis_1">
    <g id="xtick_1">
     <g id="line2d_1">
      <defs>
       <path id="mc1cffa5b13" d="M 0 0 
L 0 4.8 
" style="stroke: #262626"/>
      </defs>
      <g>
       <use xlink:href="#mc1cffa5b13" x="54.545602" y="286.1835" style="fill: #262626; stroke: #262626"/>
      </g>
     </g>
     <g id="text_1">
      <!-- 0.0 -->
      <g style="fill: #262626" transform="translate(48.429602 300.782375) scale(0.088 -0.088)">
       <defs>
        <path id="ArialMT-30" d="M 266 2259 
Q 266 3072 433 3567 
Q 600 4063 929 4331 
Q 1259 4600 1759 4600 
Q 2128 4600 2406 4451 
Q 2684 4303 2865 4023 
Q 3047 3744 3150 3342 
Q 3253 2941 3253 2259 
Q 3253 1453 3087 958 
Q 2922 463 2592 192 
Q 2263 -78 1759 -78 
Q 1097 -78 719 397 
Q 266 969 266 2259 
z
M 844 2259 
Q 844 1131 1108 757 
Q 1372 384 1759 384 
Q 2147 384 2411 759 
Q 2675 1134 2675 2259 
Q 2675 3391 2411 3762 
Q 2147 4134 1753 4134 
Q 1366 4134 1134 3806 
Q 844 3388 844 2259 
z
" transform="scale(0.015625)"/>
        <path id="ArialMT-2e" d="M 581 0 
L 581 641 
L 1222 641 
L 1222 0 
L 581 0 
z
" transform="scale(0.015625)"/>
       </defs>
       <use xlink:href="#ArialMT-30"/>
       <use xlink:href="#ArialMT-2e" x="55.615234"/>
       <use xlink:href="#ArialMT-30" x="83.398438"/>
      </g>
     </g>
    </g>
    <g id="xtick_2">
     <g id="line2d_2">
      <g>
       <use xlink:href="#mc1cffa5b13" x="119.476511" y="286.1835" style="fill: #262626; stroke: #262626"/>
      </g>
     </g>
     <g id="text_2">
      <!-- 0.2 -->
      <g style="fill: #262626" transform="translate(113.360511 300.782375) scale(0.088 -0.088)">
       <defs>
        <path id="ArialMT-32" d="M 3222 541 
L 3222 0 
L 194 0 
Q 188 203 259 391 
Q 375 700 629 1000 
Q 884 1300 1366 1694 
Q 2113 2306 2375 2664 
Q 2638 3022 2638 3341 
Q 2638 3675 2398 3904 
Q 2159 4134 1775 4134 
Q 1369 4134 1125 3890 
Q 881 3647 878 3216 
L 300 3275 
Q 359 3922 746 4261 
Q 1134 4600 1788 4600 
Q 2447 4600 2831 4234 
Q 3216 3869 3216 3328 
Q 3216 3053 3103 2787 
Q 2991 2522 2730 2228 
Q 2469 1934 1863 1422 
Q 1356 997 1212 845 
Q 1069 694 975 541 
L 3222 541 
z
" transform="scale(0.015625)"/>
       </defs>
       <use xlink:href="#ArialMT-30"/>
       <use xlink:href="#ArialMT-2e" x="55.615234"/>
       <use xlink:href="#ArialMT-32" x="83.398438"/>
      </g>
     </g>
    </g>
    <g id="xtick_3">
     <g id="line2d_3">
      <g>
       <use xlink:href="#mc1cffa5b13" x="184.40742" y="286.1835" style="fill: #262626; stroke: #262626"/>
      </g>
     </g>
     <g id="text_3">
      <!-- 0.4 -->
      <g style="fill: #262626" transform="translate(178.29142 300.782375) scale(0.088 -0.088)">
       <defs>
        <path id="ArialMT-34" d="M 2069 0 
L 2069 1097 
L 81 1097 
L 81 1613 
L 2172 4581 
L 2631 4581 
L 2631 1613 
L 3250 1613 
L 3250 1097 
L 2631 1097 
L 2631 0 
L 2069 0 
z
M 2069 1613 
L 2069 3678 
L 634 1613 
L 2069 1613 
z
" transform="scale(0.015625)"/>
       </defs>
       <use xlink:href="#ArialMT-30"/>
       <use xlink:href="#ArialMT-2e" x="55.615234"/>
       <use xlink:href="#ArialMT-34" x="83.398438"/>
      </g>
     </g>
    </g>
    <g id="xtick_4">
     <g id="line2d_4">
      <g>
       <use xlink:href="#mc1cffa5b13" x="249.33833" y="286.1835" style="fill: #262626; stroke: #262626"/>
      </g>
     </g>
     <g id="text_4">
      <!-- 0.6 -->
      <g style="fill: #262626" transform="translate(243.22233 300.782375) scale(0.088 -0.088)">
       <defs>
        <path id="ArialMT-36" d="M 3184 3459 
L 2625 3416 
Q 2550 3747 2413 3897 
Q 2184 4138 1850 4138 
Q 1581 4138 1378 3988 
Q 1113 3794 959 3422 
Q 806 3050 800 2363 
Q 1003 2672 1297 2822 
Q 1591 2972 1913 2972 
Q 2475 2972 2870 2558 
Q 3266 2144 3266 1488 
Q 3266 1056 3080 686 
Q 2894 316 2569 119 
Q 2244 -78 1831 -78 
Q 1128 -78 684 439 
Q 241 956 241 2144 
Q 241 3472 731 4075 
Q 1159 4600 1884 4600 
Q 2425 4600 2770 4297 
Q 3116 3994 3184 3459 
z
M 888 1484 
Q 888 1194 1011 928 
Q 1134 663 1356 523 
Q 1578 384 1822 384 
Q 2178 384 2434 671 
Q 2691 959 2691 1453 
Q 2691 1928 2437 2201 
Q 2184 2475 1800 2475 
Q 1419 2475 1153 2201 
Q 888 1928 888 1484 
z
" transform="scale(0.015625)"/>
       </defs>
       <use xlink:href="#ArialMT-30"/>
       <use xlink:href="#ArialMT-2e" x="55.615234"/>
       <use xlink:href="#ArialMT-36" x="83.398438"/>
      </g>
     </g>
    </g>
    <g id="xtick_5">
     <g id="line2d_5">
      <g>
       <use xlink:href="#mc1cffa5b13" x="314.269239" y="286.1835" style="fill: #262626; stroke: #262626"/>
      </g>
     </g>
     <g id="text_5">
      <!-- 0.8 -->
      <g style="fill: #262626" transform="translate(308.153239 300.782375) scale(0.088 -0.088)">
       <defs>
        <path id="ArialMT-38" d="M 1131 2484 
Q 781 2613 612 2850 
Q 444 3088 444 3419 
Q 444 3919 803 4259 
Q 1163 4600 1759 4600 
Q 2359 4600 2725 4251 
Q 3091 3903 3091 3403 
Q 3091 3084 2923 2848 
Q 2756 2613 2416 2484 
Q 2838 2347 3058 2040 
Q 3278 1734 3278 1309 
Q 3278 722 2862 322 
Q 2447 -78 1769 -78 
Q 1091 -78 675 323 
Q 259 725 259 1325 
Q 259 1772 486 2073 
Q 713 2375 1131 2484 
z
M 1019 3438 
Q 1019 3113 1228 2906 
Q 1438 2700 1772 2700 
Q 2097 2700 2305 2904 
Q 2513 3109 2513 3406 
Q 2513 3716 2298 3927 
Q 2084 4138 1766 4138 
Q 1444 4138 1231 3931 
Q 1019 3725 1019 3438 
z
M 838 1322 
Q 838 1081 952 856 
Q 1066 631 1291 507 
Q 1516 384 1775 384 
Q 2178 384 2440 643 
Q 2703 903 2703 1303 
Q 2703 1709 2433 1975 
Q 2163 2241 1756 2241 
Q 1359 2241 1098 1978 
Q 838 1716 838 1322 
z
" transform="scale(0.015625)"/>
       </defs>
       <use xlink:href="#ArialMT-30"/>
       <use xlink:href="#ArialMT-2e" x="55.615234"/>
       <use xlink:href="#ArialMT-38" x="83.398438"/>
      </g>
     </g>
    </g>
    <g id="xtick_6">
     <g id="line2d_6">
      <g>
       <use xlink:href="#mc1cffa5b13" x="379.200148" y="286.1835" style="fill: #262626; stroke: #262626"/>
      </g>
     </g>
     <g id="text_6">
      <!-- 1.0 -->
      <g style="fill: #262626" transform="translate(373.084148 300.782375) scale(0.088 -0.088)">
       <defs>
        <path id="ArialMT-31" d="M 2384 0 
L 1822 0 
L 1822 3584 
Q 1619 3391 1289 3197 
Q 959 3003 697 2906 
L 697 3450 
Q 1169 3672 1522 3987 
Q 1875 4303 2022 4600 
L 2384 4600 
L 2384 0 
z
" transform="scale(0.015625)"/>
       </defs>
       <use xlink:href="#ArialMT-31"/>
       <use xlink:href="#ArialMT-2e" x="55.615234"/>
       <use xlink:href="#ArialMT-30" x="83.398438"/>
      </g>
     </g>
    </g>
    <g id="text_7">
     <!-- $x$ -->
     <g style="fill: #262626" transform="translate(213.992875 313.402875) scale(0.096 -0.096)">
      <defs>
       <path id="DejaVuSans-Oblique-78" d="M 3841 3500 
L 2234 1784 
L 3219 0 
L 2559 0 
L 1819 1388 
L 531 0 
L -166 0 
L 1556 1844 
L 641 3500 
L 1300 3500 
L 1972 2234 
L 3144 3500 
L 3841 3500 
z
" transform="scale(0.015625)"/>
      </defs>
      <use xlink:href="#DejaVuSans-Oblique-78" transform="translate(0 0.3125)"/>
     </g>
    </g>
   </g>
   <g id="matplotlib.axis_2">
    <g id="ytick_1">
     <g id="line2d_7">
      <defs>
       <path id="m13a8fc26cb" d="M 0 0 
L -4.8 0 
" style="stroke: #262626"/>
      </defs>
      <g>
       <use xlink:href="#m13a8fc26cb" x="38.312875" y="248.231586" style="fill: #262626; stroke: #262626"/>
      </g>
     </g>
     <g id="text_8">
      <!-- −8 -->
      <g style="fill: #262626" transform="translate(19.9795 251.381024) scale(0.088 -0.088)">
       <defs>
        <path id="ArialMT-2212" d="M 3381 1997 
L 356 1997 
L 356 2522 
L 3381 2522 
L 3381 1997 
z
" transform="scale(0.015625)"/>
       </defs>
       <use xlink:href="#ArialMT-2212"/>
       <use xlink:href="#ArialMT-38" x="58.398438"/>
      </g>
     </g>
    </g>
    <g id="ytick_2">
     <g id="line2d_8">
      <g>
       <use xlink:href="#m13a8fc26cb" x="38.312875" y="203.271029" style="fill: #262626; stroke: #262626"/>
      </g>
     </g>
     <g id="text_9">
      <!-- −6 -->
      <g style="fill: #262626" transform="translate(19.9795 206.420466) scale(0.088 -0.088)">
       <use xlink:href="#ArialMT-2212"/>
       <use xlink:href="#ArialMT-36" x="58.398438"/>
      </g>
     </g>
    </g>
    <g id="ytick_3">
     <g id="line2d_9">
      <g>
       <use xlink:href="#m13a8fc26cb" x="38.312875" y="158.310471" style="fill: #262626; stroke: #262626"/>
      </g>
     </g>
     <g id="text_10">
      <!-- −4 -->
      <g style="fill: #262626" transform="translate(19.9795 161.459909) scale(0.088 -0.088)">
       <use xlink:href="#ArialMT-2212"/>
       <use xlink:href="#ArialMT-34" x="58.398438"/>
      </g>
     </g>
    </g>
    <g id="ytick_4">
     <g id="line2d_10">
      <g>
       <use xlink:href="#m13a8fc26cb" x="38.312875" y="113.349914" style="fill: #262626; stroke: #262626"/>
      </g>
     </g>
     <g id="text_11">
      <!-- −2 -->
      <g style="fill: #262626" transform="translate(19.9795 116.499351) scale(0.088 -0.088)">
       <use xlink:href="#ArialMT-2212"/>
       <use xlink:href="#ArialMT-32" x="58.398438"/>
      </g>
     </g>
    </g>
    <g id="ytick_5">
     <g id="line2d_11">
      <g>
       <use xlink:href="#m13a8fc26cb" x="38.312875" y="68.389357" style="fill: #262626; stroke: #262626"/>
      </g>
     </g>
     <g id="text_12">
      <!-- 0 -->
      <g style="fill: #262626" transform="translate(25.11925 71.538794) scale(0.088 -0.088)">
       <use xlink:href="#ArialMT-30"/>
      </g>
     </g>
    </g>
    <g id="ytick_6">
     <g id="line2d_12">
      <g>
       <use xlink:href="#m13a8fc26cb" x="38.312875" y="23.428799" style="fill: #262626; stroke: #262626"/>
      </g>
     </g>
     <g id="text_13">
      <!-- 2 -->
      <g style="fill: #262626" transform="translate(25.11925 26.578237) scale(0.088 -0.088)">
       <use xlink:href="#ArialMT-32"/>
      </g>
     </g>
    </g>
    <g id="text_14">
     <!-- $y$ -->
     <g style="fill: #262626" transform="translate(13.9635 156.0075) rotate(-90) scale(0.096 -0.096)">
      <defs>
       <path id="DejaVuSans-Oblique-79" d="M 1588 -325 
Q 1188 -997 936 -1164 
Q 684 -1331 294 -1331 
L -159 -1331 
L -63 -850 
L 269 -850 
Q 509 -850 678 -719 
Q 847 -588 1056 -206 
L 1234 128 
L 459 3500 
L 1069 3500 
L 1650 819 
L 3256 3500 
L 3859 3500 
L 1588 -325 
z
" transform="scale(0.015625)"/>
      </defs>
      <use xlink:href="#DejaVuSans-Oblique-79" transform="translate(0 0.3125)"/>
     </g>
    </g>
   </g>
   <g id="PolyCollection_1">
    <defs>
     <path id="m04f9522558" d="M 54.545602 -277.515179 
L 54.545602 -152.145705 
L 57.824941 -154.281713 
L 61.10428 -156.788056 
L 64.383619 -159.649876 
L 67.662958 -162.841158 
L 70.942296 -166.324363 
L 74.221636 -170.050416 
L 77.500973 -173.959171 
L 80.780313 -177.981627 
L 84.059653 -182.043552 
L 87.33899 -186.071572 
L 90.61833 -190.001991 
L 93.89767 -193.790126 
L 97.177007 -197.417748 
L 100.456344 -200.895143 
L 103.735686 -204.254248 
L 107.015024 -207.536935 
L 110.294361 -210.781026 
L 113.573703 -214.008765 
L 116.853041 -217.22121 
L 120.132378 -220.395285 
L 123.41172 -223.485354 
L 126.691057 -226.425234 
L 129.970395 -229.13293 
L 133.249737 -231.515935 
L 136.529069 -233.478548 
L 139.808412 -234.931095 
L 143.087754 -235.800232 
L 146.367086 -236.038127 
L 149.646428 -235.627837 
L 152.92577 -234.582251 
L 156.205103 -232.937814 
L 159.484445 -230.743908 
L 162.763787 -228.053381 
L 166.04312 -224.913941 
L 169.322462 -221.361963 
L 172.601804 -217.419067 
L 175.881137 -213.090113 
L 179.160479 -208.364164 
L 182.439821 -203.217132 
L 185.719153 -197.618137 
L 188.998496 -191.537764 
L 192.277838 -184.958638 
L 195.55717 -177.884397 
L 198.836512 -170.345222 
L 202.115855 -162.398639 
L 205.395187 -154.125863 
L 208.674529 -145.625439 
L 211.953871 -137.006983 
L 215.233204 -128.385215 
L 218.512556 -119.875391 
L 221.791879 -111.590363 
L 225.071221 -103.63752 
L 228.350563 -96.117602 
L 231.629886 -89.122669 
L 234.909247 -82.734798 
L 238.18857 -77.025007 
L 241.467912 -72.051426 
L 244.747254 -67.858092 
L 248.026597 -64.473366 
L 251.305939 -61.907863 
L 254.585262 -60.152728 
L 257.864623 -59.177495 
L 261.143946 -58.92829 
L 264.423288 -59.327503 
L 267.70263 -60.27613 
L 270.981953 -61.662174 
L 274.261315 -63.377262 
L 277.540637 -65.340054 
L 280.81998 -67.518586 
L 284.099322 -69.938776 
L 287.378664 -72.67236 
L 290.658006 -75.812028 
L 293.937329 -79.446227 
L 297.21669 -83.643292 
L 300.496013 -88.443496 
L 303.775355 -93.859039 
L 307.054697 -99.875492 
L 310.33402 -106.455958 
L 313.613382 -113.544547 
L 316.892705 -121.070168 
L 320.172047 -128.949594 
L 323.451389 -137.091045 
L 326.730731 -145.395743 
L 330.010073 -153.760641 
L 333.289396 -162.078953 
L 336.568738 -170.240911 
L 339.84808 -178.1326 
L 343.127423 -185.633469 
L 346.406765 -192.614788 
L 349.686088 -198.937249 
L 352.96543 -204.456706 
L 356.244772 -209.038143 
L 359.524114 -212.584029 
L 362.803456 -215.060738 
L 366.082798 -216.508274 
L 369.362141 -217.022485 
L 372.641463 -216.725884 
L 375.920806 -215.744003 
L 379.200148 -214.194313 
L 379.200148 -279.724979 
L 379.200148 -279.724979 
L 375.920806 -275.263693 
L 372.641463 -270.765125 
L 369.362141 -266.286321 
L 366.082798 -261.896424 
L 362.803456 -257.668006 
L 359.524114 -253.654721 
L 356.244772 -249.864167 
L 352.96543 -246.242221 
L 349.686088 -242.683612 
L 346.406765 -239.060671 
L 343.127423 -235.251821 
L 339.84808 -231.157346 
L 336.568738 -226.704673 
L 333.289396 -221.84698 
L 330.010073 -216.560322 
L 326.730731 -210.840811 
L 323.451389 -204.702336 
L 320.172047 -198.175022 
L 316.892705 -191.304686 
L 313.613382 -184.151797 
L 310.33402 -176.791304 
L 307.054697 -169.313294 
L 303.775355 -161.821997 
L 300.496013 -154.437423 
L 297.21669 -147.29573 
L 293.937329 -140.549156 
L 290.658006 -134.366605 
L 287.378664 -128.929291 
L 284.099322 -124.422145 
L 280.81998 -121.015306 
L 277.540637 -118.838361 
L 274.261315 -117.954254 
L 270.981953 -118.347378 
L 267.70263 -119.932354 
L 264.423288 -122.57703 
L 261.143946 -126.12721 
L 257.864623 -130.425027 
L 254.585262 -135.318844 
L 251.305939 -140.668452 
L 248.026597 -146.346321 
L 244.747254 -152.238814 
L 241.467912 -158.24607 
L 238.18857 -164.282536 
L 234.909247 -170.277287 
L 231.629886 -176.17417 
L 228.350563 -181.931947 
L 225.071221 -187.524323 
L 221.791879 -192.939298 
L 218.512556 -198.178699 
L 215.233204 -203.256783 
L 211.953871 -208.198377 
L 208.674529 -213.036389 
L 205.395187 -217.80793 
L 202.115855 -222.54943 
L 198.836512 -227.290187 
L 195.55717 -232.045346 
L 192.277838 -236.808971 
L 188.998496 -241.550275 
L 185.719153 -246.213729 
L 182.439821 -250.72482 
L 179.160479 -254.999252 
L 175.881137 -258.953541 
L 172.601804 -262.51426 
L 169.322462 -265.624911 
L 166.04312 -268.249974 
L 162.763787 -270.37638 
L 159.484445 -272.013288 
L 156.205103 -273.189464 
L 152.92577 -273.948345 
L 149.646428 -274.340771 
L 146.367086 -274.415793 
L 143.087754 -274.211275 
L 139.808412 -273.747515 
L 136.529069 -273.026569 
L 133.249737 -272.037061 
L 129.970395 -270.762853 
L 126.691057 -269.19224 
L 123.41172 -267.326009 
L 120.132378 -265.182883 
L 116.853041 -262.80335 
L 113.573703 -260.251474 
L 110.294361 -257.615919 
L 107.015024 -255.008243 
L 103.735686 -252.557995 
L 100.456344 -250.405204 
L 97.177007 -248.68663 
L 93.89767 -247.519618 
L 90.61833 -246.989687 
L 87.33899 -247.141423 
L 84.059653 -247.98038 
L 80.780313 -249.479728 
L 77.500973 -251.589146 
L 74.221636 -254.244299 
L 70.942296 -257.373068 
L 67.662958 -260.899959 
L 64.383619 -264.749565 
L 61.10428 -268.848295 
L 57.824941 -273.125501 
L 54.545602 -277.515179 
z
" style="stroke: #1f77b4; stroke-opacity: 0.5; stroke-width: 0.8"/>
    </defs>
    <g clip-path="url(#pa5d2c26a1b)">
     <use xlink:href="#m04f9522558" x="0" y="322.510875" style="fill: #1f77b4; fill-opacity: 0.5; stroke: #1f77b4; stroke-opacity: 0.5; stroke-width: 0.8"/>
    </g>
   </g>
   <g id="PolyCollection_2">
    <defs>
     <path id="m62a87f49c9" d="M 54.545602 -152.145705 
L 54.545602 -145.997629 
L 57.824941 -147.8284 
L 61.10428 -149.985429 
L 64.383619 -152.449687 
L 67.662958 -155.191964 
L 70.942296 -158.173328 
L 74.221636 -161.34644 
L 77.500973 -164.657802 
L 80.780313 -168.051628 
L 84.059653 -171.474664 
L 87.33899 -174.881653 
L 90.61833 -178.240652 
L 93.89767 -181.53588 
L 97.177007 -184.76766 
L 100.456344 -187.948818 
L 103.735686 -191.098026 
L 107.015024 -194.232581 
L 110.294361 -197.361567 
L 113.573703 -200.480729 
L 116.853041 -203.570359 
L 120.132378 -206.594295 
L 123.41172 -209.501903 
L 126.691057 -212.230165 
L 129.970395 -214.708093 
L 133.249737 -216.861297 
L 136.529069 -218.617427 
L 139.808412 -219.91171 
L 143.087754 -220.692012 
L 146.367086 -220.922558 
L 149.646428 -220.585852 
L 152.92577 -219.682022 
L 156.205103 -218.226452 
L 159.484445 -216.244978 
L 162.763787 -213.769293 
L 166.04312 -210.831662 
L 169.322462 -207.460355 
L 172.601804 -203.676514 
L 175.881137 -199.491787 
L 179.160479 -194.908232 
L 182.439821 -189.919312 
L 185.719153 -184.513213 
L 188.998496 -178.677233 
L 192.277838 -172.404006 
L 195.55717 -165.697415 
L 198.836512 -158.577633 
L 202.115855 -151.084299 
L 205.395187 -143.27694 
L 208.674529 -135.232842 
L 211.953871 -127.04355 
L 215.233204 -118.810168 
L 218.512556 -110.638692 
L 221.791879 -102.636282 
L 225.071221 -94.907164 
L 228.350563 -87.55046 
L 231.629886 -80.657351 
L 234.909247 -74.309282 
L 238.18857 -68.576422 
L 241.467912 -63.515821 
L 244.747254 -59.170077 
L 248.026597 -55.566312 
L 251.305939 -52.714621 
L 254.585262 -50.607588 
L 257.864623 -49.220193 
L 261.143946 -48.510653 
L 264.423288 -48.423375 
L 267.70263 -48.893829 
L 270.981953 -49.85652 
L 274.261315 -51.25457 
L 277.540637 -53.049517 
L 280.81998 -55.227792 
L 284.099322 -57.801678 
L 287.378664 -60.80344 
L 290.658006 -64.275829 
L 293.937329 -68.260735 
L 297.21669 -72.790617 
L 300.496013 -77.881532 
L 303.775355 -83.531134 
L 307.054697 -89.716975 
L 310.33402 -96.39813 
L 313.613382 -103.516872 
L 316.892705 -111.001105 
L 320.172047 -118.766991 
L 323.451389 -126.72201 
L 326.730731 -134.766869 
L 330.010073 -142.798585 
L 333.289396 -150.712088 
L 336.568738 -158.402606 
L 339.84808 -165.767124 
L 343.127423 -172.70571 
L 346.406765 -179.124169 
L 349.686088 -184.935414 
L 352.96543 -190.06366 
L 356.244772 -194.447275 
L 359.524114 -198.044009 
L 362.803456 -200.833742 
L 366.082798 -202.821012 
L 369.362141 -204.033771 
L 372.641463 -204.519994 
L 375.920806 -204.342833 
L 379.200148 -203.575922 
L 379.200148 -214.194313 
L 379.200148 -214.194313 
L 375.920806 -215.744003 
L 372.641463 -216.725884 
L 369.362141 -217.022485 
L 366.082798 -216.508274 
L 362.803456 -215.060738 
L 359.524114 -212.584029 
L 356.244772 -209.038143 
L 352.96543 -204.456706 
L 349.686088 -198.937249 
L 346.406765 -192.614788 
L 343.127423 -185.633469 
L 339.84808 -178.1326 
L 336.568738 -170.240911 
L 333.289396 -162.078953 
L 330.010073 -153.760641 
L 326.730731 -145.395743 
L 323.451389 -137.091045 
L 320.172047 -128.949594 
L 316.892705 -121.070168 
L 313.613382 -113.544547 
L 310.33402 -106.455958 
L 307.054697 -99.875492 
L 303.775355 -93.859039 
L 300.496013 -88.443496 
L 297.21669 -83.643292 
L 293.937329 -79.446227 
L 290.658006 -75.812028 
L 287.378664 -72.67236 
L 284.099322 -69.938776 
L 280.81998 -67.518586 
L 277.540637 -65.340054 
L 274.261315 -63.377262 
L 270.981953 -61.662174 
L 267.70263 -60.27613 
L 264.423288 -59.327503 
L 261.143946 -58.92829 
L 257.864623 -59.177495 
L 254.585262 -60.152728 
L 251.305939 -61.907863 
L 248.026597 -64.473366 
L 244.747254 -67.858092 
L 241.467912 -72.051426 
L 238.18857 -77.025007 
L 234.909247 -82.734798 
L 231.629886 -89.122669 
L 228.350563 -96.117602 
L 225.071221 -103.63752 
L 221.791879 -111.590363 
L 218.512556 -119.875391 
L 215.233204 -128.385215 
L 211.953871 -137.006983 
L 208.674529 -145.625439 
L 205.395187 -154.125863 
L 202.115855 -162.398639 
L 198.836512 -170.345222 
L 195.55717 -177.884397 
L 192.277838 -184.958638 
L 188.998496 -191.537764 
L 185.719153 -197.618137 
L 182.439821 -203.217132 
L 179.160479 -208.364164 
L 175.881137 -213.090113 
L 172.601804 -217.419067 
L 169.322462 -221.361963 
L 166.04312 -224.913941 
L 162.763787 -228.053381 
L 159.484445 -230.743908 
L 156.205103 -232.937814 
L 152.92577 -234.582251 
L 149.646428 -235.627837 
L 146.367086 -236.038127 
L 143.087754 -235.800232 
L 139.808412 -234.931095 
L 136.529069 -233.478548 
L 133.249737 -231.515935 
L 129.970395 -229.13293 
L 126.691057 -226.425234 
L 123.41172 -223.485354 
L 120.132378 -220.395285 
L 116.853041 -217.22121 
L 113.573703 -214.008765 
L 110.294361 -210.781026 
L 107.015024 -207.536935 
L 103.735686 -204.254248 
L 100.456344 -200.895143 
L 97.177007 -197.417748 
L 93.89767 -193.790126 
L 90.61833 -190.001991 
L 87.33899 -186.071572 
L 84.059653 -182.043552 
L 80.780313 -177.981627 
L 77.500973 -173.959171 
L 74.221636 -170.050416 
L 70.942296 -166.324363 
L 67.662958 -162.841158 
L 64.383619 -159.649876 
L 61.10428 -156.788056 
L 57.824941 -154.281713 
L 54.545602 -152.145705 
z
" style="stroke: #ff7f0e; stroke-opacity: 0.5; stroke-width: 0.8"/>
    </defs>
    <g clip-path="url(#pa5d2c26a1b)">
     <use xlink:href="#m62a87f49c9" x="0" y="322.510875" style="fill: #ff7f0e; fill-opacity: 0.5; stroke: #ff7f0e; stroke-opacity: 0.5; stroke-width: 0.8"/>
    </g>
   </g>
   <g id="PolyCollection_3">
    <defs>
     <path id="m9710398dfa" d="M 54.545602 -283.663261 
L 54.545602 -277.515179 
L 57.824941 -273.125501 
L 61.10428 -268.848295 
L 64.383619 -264.749565 
L 67.662958 -260.899959 
L 70.942296 -257.373068 
L 74.221636 -254.244299 
L 77.500973 -251.589146 
L 80.780313 -249.479728 
L 84.059653 -247.98038 
L 87.33899 -247.141423 
L 90.61833 -246.989687 
L 93.89767 -247.519618 
L 97.177007 -248.68663 
L 100.456344 -250.405204 
L 103.735686 -252.557995 
L 107.015024 -255.008243 
L 110.294361 -257.615919 
L 113.573703 -260.251474 
L 116.853041 -262.80335 
L 120.132378 -265.182883 
L 123.41172 -267.326009 
L 126.691057 -269.19224 
L 129.970395 -270.762853 
L 133.249737 -272.037061 
L 136.529069 -273.026569 
L 139.808412 -273.747515 
L 143.087754 -274.211275 
L 146.367086 -274.415793 
L 149.646428 -274.340771 
L 152.92577 -273.948345 
L 156.205103 -273.189464 
L 159.484445 -272.013288 
L 162.763787 -270.37638 
L 166.04312 -268.249974 
L 169.322462 -265.624911 
L 172.601804 -262.51426 
L 175.881137 -258.953541 
L 179.160479 -254.999252 
L 182.439821 -250.72482 
L 185.719153 -246.213729 
L 188.998496 -241.550275 
L 192.277838 -236.808971 
L 195.55717 -232.045346 
L 198.836512 -227.290187 
L 202.115855 -222.54943 
L 205.395187 -217.80793 
L 208.674529 -213.036389 
L 211.953871 -208.198377 
L 215.233204 -203.256783 
L 218.512556 -198.178699 
L 221.791879 -192.939298 
L 225.071221 -187.524323 
L 228.350563 -181.931947 
L 231.629886 -176.17417 
L 234.909247 -170.277287 
L 238.18857 -164.282536 
L 241.467912 -158.24607 
L 244.747254 -152.238814 
L 248.026597 -146.346321 
L 251.305939 -140.668452 
L 254.585262 -135.318844 
L 257.864623 -130.425027 
L 261.143946 -126.12721 
L 264.423288 -122.57703 
L 267.70263 -119.932354 
L 270.981953 -118.347378 
L 274.261315 -117.954254 
L 277.540637 -118.838361 
L 280.81998 -121.015306 
L 284.099322 -124.422145 
L 287.378664 -128.929291 
L 290.658006 -134.366605 
L 293.937329 -140.549156 
L 297.21669 -147.29573 
L 300.496013 -154.437423 
L 303.775355 -161.821997 
L 307.054697 -169.313294 
L 310.33402 -176.791304 
L 313.613382 -184.151797 
L 316.892705 -191.304686 
L 320.172047 -198.175022 
L 323.451389 -204.702336 
L 326.730731 -210.840811 
L 330.010073 -216.560322 
L 333.289396 -221.84698 
L 336.568738 -226.704673 
L 339.84808 -231.157346 
L 343.127423 -235.251821 
L 346.406765 -239.060671 
L 349.686088 -242.683612 
L 352.96543 -246.242221 
L 356.244772 -249.864167 
L 359.524114 -253.654721 
L 362.803456 -257.668006 
L 366.082798 -261.896424 
L 369.362141 -266.286321 
L 372.641463 -270.765125 
L 375.920806 -275.263693 
L 379.200148 -279.724979 
L 379.200148 -290.343375 
L 379.200148 -290.343375 
L 375.920806 -286.66486 
L 372.641463 -282.971013 
L 369.362141 -279.275036 
L 366.082798 -275.583687 
L 362.803456 -271.895002 
L 359.524114 -268.194737 
L 356.244772 -264.455038 
L 352.96543 -260.63527 
L 349.686088 -256.685446 
L 346.406765 -252.551293 
L 343.127423 -248.179576 
L 339.84808 -243.522817 
L 336.568738 -238.542978 
L 333.289396 -233.213845 
L 330.010073 -227.522384 
L 326.730731 -221.469691 
L 323.451389 -215.071372 
L 320.172047 -208.357631 
L 316.892705 -201.373738 
L 313.613382 -194.179472 
L 310.33402 -186.849133 
L 307.054697 -179.471811 
L 303.775355 -172.149902 
L 300.496013 -164.999387 
L 297.21669 -158.148416 
L 293.937329 -151.734647 
L 290.658006 -145.902794 
L 287.378664 -140.798211 
L 284.099322 -136.559265 
L 280.81998 -133.306099 
L 277.540637 -131.128897 
L 274.261315 -130.076967 
L 270.981953 -130.153054 
L 267.70263 -131.314643 
L 264.423288 -133.481159 
L 261.143946 -136.544847 
L 257.864623 -140.382318 
L 254.585262 -144.863984 
L 251.305939 -149.861694 
L 248.026597 -155.253365 
L 244.747254 -160.926807 
L 241.467912 -166.781686 
L 238.18857 -172.731115 
L 234.909247 -178.702809 
L 231.629886 -184.639493 
L 228.350563 -190.499099 
L 225.071221 -196.254679 
L 221.791879 -201.893384 
L 218.512556 -207.415398 
L 215.233204 -212.831836 
L 211.953871 -218.161811 
L 208.674529 -223.428984 
L 205.395187 -228.656851 
L 202.115855 -233.863767 
L 198.836512 -239.057774 
L 195.55717 -244.232325 
L 192.277838 -249.363605 
L 188.998496 -254.410806 
L 185.719153 -259.318656 
L 182.439821 -264.02264 
L 179.160479 -268.455184 
L 175.881137 -272.55187 
L 172.601804 -276.256811 
L 169.322462 -279.526517 
L 166.04312 -282.332253 
L 162.763787 -284.660468 
L 159.484445 -286.512218 
L 156.205103 -287.900826 
L 152.92577 -288.848574 
L 149.646428 -289.382756 
L 146.367086 -289.531362 
L 143.087754 -289.319495 
L 139.808412 -288.7669 
L 136.529069 -287.88769 
L 133.249737 -286.691699 
L 129.970395 -285.18769 
L 126.691057 -283.38731 
L 123.41172 -281.309461 
L 120.132378 -278.983875 
L 116.853041 -276.454201 
L 113.573703 -273.77951 
L 110.294361 -271.035378 
L 107.015024 -268.312594 
L 103.735686 -265.714215 
L 100.456344 -263.351528 
L 97.177007 -261.336717 
L 93.89767 -259.773862 
L 90.61833 -258.751024 
L 87.33899 -258.331337 
L 84.059653 -258.549271 
L 80.780313 -259.409725 
L 77.500973 -260.890518 
L 74.221636 -262.948274 
L 70.942296 -265.524108 
L 67.662958 -268.549148 
L 64.383619 -271.949754 
L 61.10428 -275.650927 
L 57.824941 -279.578809 
L 54.545602 -283.663261 
z
" style="stroke: #ff7f0e; stroke-opacity: 0.5; stroke-width: 0.8"/>
    </defs>
    <g clip-path="url(#pa5d2c26a1b)">
     <use xlink:href="#m9710398dfa" x="0" y="322.510875" style="fill: #ff7f0e; fill-opacity: 0.5; stroke: #ff7f0e; stroke-opacity: 0.5; stroke-width: 0.8"/>
    </g>
   </g>
   <g id="line2d_13">
    <defs>
     <path id="m8e181afd79" d="M -5 5 
L 5 -5 
M -5 -5 
L 5 5 
" style="stroke: #000000; stroke-width: 2"/>
    </defs>
    <g clip-path="url(#pa5d2c26a1b)">
     <use xlink:href="#m8e181afd79" x="95.766934" y="108.803883" style="stroke: #000000; stroke-width: 2"/>
     <use xlink:href="#m8e181afd79" x="368.394943" y="84.2587" style="stroke: #000000; stroke-width: 2"/>
     <use xlink:href="#m8e181afd79" x="139.110317" y="57.522381" style="stroke: #000000; stroke-width: 2"/>
     <use xlink:href="#m8e181afd79" x="345.837519" y="102.709982" style="stroke: #000000; stroke-width: 2"/>
     <use xlink:href="#m8e181afd79" x="192.277838" y="114.95293" style="stroke: #000000; stroke-width: 2"/>
     <use xlink:href="#m8e181afd79" x="277.540637" y="247.332183" style="stroke: #000000; stroke-width: 2"/>
     <use xlink:href="#m8e181afd79" x="149.646428" y="70.738456" style="stroke: #000000; stroke-width: 2"/>
    </g>
   </g>
   <g id="line2d_14">
    <path d="M 54.545602 107.680433 
L 57.824941 108.807271 
L 61.10428 109.692698 
L 64.383619 110.311156 
L 67.662958 110.640318 
L 70.942296 110.662158 
L 74.221636 110.363518 
L 77.500973 109.736715 
L 80.780313 108.780199 
L 84.059653 107.498908 
L 87.33899 105.904379 
L 90.61833 104.015036 
L 93.89767 101.856003 
L 97.177007 99.458688 
L 100.456344 96.860702 
L 103.735686 94.104755 
L 107.015024 91.238287 
L 110.294361 88.312402 
L 113.573703 85.380755 
L 116.853041 82.498595 
L 120.132378 79.72179 
L 123.41172 77.105193 
L 126.691057 74.702137 
L 129.970395 72.562984 
L 133.249737 70.734377 
L 136.529069 69.258317 
L 139.808412 68.17157 
L 143.087754 67.505121 
L 146.367086 67.283915 
L 149.646428 67.526571 
L 152.92577 68.245577 
L 156.205103 69.447236 
L 159.484445 71.132277 
L 162.763787 73.295994 
L 166.04312 75.928917 
L 169.322462 79.017438 
L 172.601804 82.544211 
L 175.881137 86.489048 
L 179.160479 90.829167 
L 182.439821 95.539899 
L 185.719153 100.594942 
L 188.998496 105.966854 
L 192.277838 111.627071 
L 195.55717 117.546004 
L 198.836512 123.693169 
L 202.115855 130.036843 
L 205.395187 136.543978 
L 208.674529 143.179961 
L 211.953871 149.908195 
L 215.233204 156.689876 
L 218.512556 163.48383 
L 221.791879 170.246045 
L 225.071221 176.929954 
L 228.350563 183.486098 
L 231.629886 189.862456 
L 234.909247 196.00483 
L 238.18857 201.857104 
L 241.467912 207.362122 
L 244.747254 212.462427 
L 248.026597 217.101037 
L 251.305939 221.222712 
L 254.585262 224.775089 
L 257.864623 227.709619 
L 261.143946 229.983125 
L 264.423288 231.558603 
L 267.70263 232.406639 
L 270.981953 232.506093 
L 274.261315 231.845112 
L 277.540637 230.421668 
L 280.81998 228.243929 
L 284.099322 225.330409 
L 287.378664 221.710049 
L 290.658006 217.421558 
L 293.937329 212.513184 
L 297.21669 207.041364 
L 300.496013 201.070415 
L 303.775355 194.670357 
L 307.054697 187.916482 
L 310.33402 180.887246 
L 313.613382 173.662703 
L 316.892705 166.323451 
L 320.172047 158.948567 
L 323.451389 151.614181 
L 326.730731 144.392596 
L 330.010073 137.35039 
L 333.289396 130.547908 
L 336.568738 124.038083 
L 339.84808 117.865904 
L 343.127423 112.068232 
L 346.406765 106.673144 
L 349.686088 101.700445 
L 352.96543 97.161411 
L 356.244772 93.05972 
L 359.524114 89.391501 
L 362.803456 86.146503 
L 366.082798 83.308526 
L 369.362141 80.856472 
L 372.641463 78.76537 
L 375.920806 77.007027 
L 379.200148 75.551228 
" clip-path="url(#pa5d2c26a1b)" style="fill: none; stroke: #1f77b4; stroke-width: 2; stroke-linecap: round"/>
   </g>
   <g id="line2d_15">
    <path d="M 54.545602 157.654496 
L 57.824941 152.168526 
L 61.10428 146.702913 
L 64.383619 141.277926 
L 67.662958 135.913761 
L 70.942296 130.630389 
L 74.221636 125.447586 
L 77.500973 120.384783 
L 80.780313 115.46102 
L 84.059653 110.694925 
L 87.33899 106.10458 
L 90.61833 101.707506 
L 93.89767 97.520587 
L 97.177007 93.560014 
L 100.456344 89.841213 
L 103.735686 86.378836 
L 107.015024 83.186664 
L 110.294361 80.277582 
L 113.573703 77.663515 
L 116.853041 75.355417 
L 120.132378 73.363221 
L 123.41172 71.695781 
L 126.691057 70.360869 
L 129.970395 69.365136 
L 133.249737 68.714075 
L 136.529069 68.412017 
L 139.808412 68.462109 
L 143.087754 68.866275 
L 146.367086 69.625227 
L 149.646428 70.738456 
L 152.92577 72.204204 
L 156.205103 74.01946 
L 159.484445 76.179999 
L 162.763787 78.680306 
L 166.04312 81.513656 
L 169.322462 84.672062 
L 172.601804 88.146299 
L 175.881137 91.925912 
L 179.160479 95.9992 
L 182.439821 100.353288 
L 185.719153 104.974018 
L 188.998496 109.846085 
L 192.277838 114.95293 
L 195.55717 120.276865 
L 198.836512 125.798959 
L 202.115855 131.499087 
L 205.395187 137.355954 
L 208.674529 143.347098 
L 211.953871 149.448813 
L 215.233204 155.636246 
L 218.512556 161.883333 
L 221.791879 168.162744 
L 225.071221 174.446015 
L 228.350563 180.703419 
L 231.629886 186.903839 
L 234.909247 193.015169 
L 238.18857 199.003687 
L 241.467912 204.834651 
L 244.747254 210.47185 
L 248.026597 215.87781 
L 251.305939 221.013801 
L 254.585262 225.8397 
L 257.864623 230.314238 
L 261.143946 234.394868 
L 264.423288 238.037985 
L 267.70263 241.198953 
L 270.981953 243.832385 
L 274.261315 245.892231 
L 277.540637 247.332183 
L 280.81998 248.106008 
L 284.099322 248.168042 
L 287.378664 247.473787 
L 290.658006 245.98072 
L 293.937329 243.649168 
L 297.21669 240.44334 
L 300.496013 236.333081 
L 303.775355 231.294841 
L 307.054697 225.314148 
L 310.33402 218.387701 
L 313.613382 210.52564 
L 316.892705 201.75499 
L 320.172047 192.122541 
L 323.451389 181.698665 
L 326.730731 170.581306 
L 330.010073 158.899976 
L 333.289396 146.819985 
L 336.568738 134.546498 
L 339.84808 122.32776 
L 343.127423 110.457795 
L 346.406765 99.277417 
L 349.686088 89.172438 
L 352.96543 80.568926 
L 356.244772 73.924539 
L 359.524114 69.712885 
L 362.803456 68.401818 
L 366.082798 70.422683 
L 369.362141 76.130062 
L 372.641463 85.751621 
L 375.920806 99.328318 
L 379.200148 116.647828 
" clip-path="url(#pa5d2c26a1b)" style="fill: none; stroke-dasharray: 7.68,1.92,1.2,1.92; stroke-dashoffset: 0; stroke: #bf00bf; stroke-width: 1.2"/>
   </g>
   <g id="patch_3">
    <path d="M 38.312875 248.231586 
L 38.312875 23.428799 
" style="fill: none; stroke: #262626; stroke-linejoin: miter; stroke-linecap: square"/>
   </g>
   <g id="patch_4">
    <path d="M 54.545602 286.1835 
L 379.200148 286.1835 
" style="fill: none; stroke: #262626; stroke-linejoin: miter; stroke-linecap: square"/>
   </g>
   <g id="text_15">
    <!-- N=2,  -->
    <g style="fill: #262626" transform="translate(205.266625 14.0715) scale(0.096 -0.096)">
     <defs>
      <path id="ArialMT-4e" d="M 488 0 
L 488 4581 
L 1109 4581 
L 3516 984 
L 3516 4581 
L 4097 4581 
L 4097 0 
L 3475 0 
L 1069 3600 
L 1069 0 
L 488 0 
z
" transform="scale(0.015625)"/>
      <path id="ArialMT-3d" d="M 3381 2694 
L 356 2694 
L 356 3219 
L 3381 3219 
L 3381 2694 
z
M 3381 1303 
L 356 1303 
L 356 1828 
L 3381 1828 
L 3381 1303 
z
" transform="scale(0.015625)"/>
      <path id="ArialMT-2c" d="M 569 0 
L 569 641 
L 1209 641 
L 1209 0 
Q 1209 -353 1084 -570 
Q 959 -788 688 -906 
L 531 -666 
Q 709 -588 793 -436 
Q 878 -284 888 0 
L 569 0 
z
" transform="scale(0.015625)"/>
      <path id="ArialMT-20" transform="scale(0.015625)"/>
     </defs>
     <use xlink:href="#ArialMT-4e"/>
     <use xlink:href="#ArialMT-3d" x="72.216797"/>
     <use xlink:href="#ArialMT-32" x="130.615234"/>
     <use xlink:href="#ArialMT-2c" x="186.230469"/>
     <use xlink:href="#ArialMT-20" x="214.013672"/>
    </g>
   </g>
   <g id="legend_1">
    <g id="line2d_16">
     <g>
      <use xlink:href="#m8e181afd79" x="55.032875" y="219.978625" style="stroke: #000000; stroke-width: 2"/>
     </g>
    </g>
    <g id="text_16">
     <!-- Observations -->
     <g style="fill: #262626" transform="translate(70.872875 223.058625) scale(0.088 -0.088)">
      <defs>
       <path id="ArialMT-4f" d="M 309 2231 
Q 309 3372 921 4017 
Q 1534 4663 2503 4663 
Q 3138 4663 3647 4359 
Q 4156 4056 4423 3514 
Q 4691 2972 4691 2284 
Q 4691 1588 4409 1038 
Q 4128 488 3612 205 
Q 3097 -78 2500 -78 
Q 1853 -78 1343 234 
Q 834 547 571 1087 
Q 309 1628 309 2231 
z
M 934 2222 
Q 934 1394 1379 917 
Q 1825 441 2497 441 
Q 3181 441 3623 922 
Q 4066 1403 4066 2288 
Q 4066 2847 3877 3264 
Q 3688 3681 3323 3911 
Q 2959 4141 2506 4141 
Q 1863 4141 1398 3698 
Q 934 3256 934 2222 
z
" transform="scale(0.015625)"/>
       <path id="ArialMT-62" d="M 941 0 
L 419 0 
L 419 4581 
L 981 4581 
L 981 2947 
Q 1338 3394 1891 3394 
Q 2197 3394 2470 3270 
Q 2744 3147 2920 2923 
Q 3097 2700 3197 2384 
Q 3297 2069 3297 1709 
Q 3297 856 2875 390 
Q 2453 -75 1863 -75 
Q 1275 -75 941 416 
L 941 0 
z
M 934 1684 
Q 934 1088 1097 822 
Q 1363 388 1816 388 
Q 2184 388 2453 708 
Q 2722 1028 2722 1663 
Q 2722 2313 2464 2622 
Q 2206 2931 1841 2931 
Q 1472 2931 1203 2611 
Q 934 2291 934 1684 
z
" transform="scale(0.015625)"/>
       <path id="ArialMT-73" d="M 197 991 
L 753 1078 
Q 800 744 1014 566 
Q 1228 388 1613 388 
Q 2000 388 2187 545 
Q 2375 703 2375 916 
Q 2375 1106 2209 1216 
Q 2094 1291 1634 1406 
Q 1016 1563 777 1677 
Q 538 1791 414 1992 
Q 291 2194 291 2438 
Q 291 2659 392 2848 
Q 494 3038 669 3163 
Q 800 3259 1026 3326 
Q 1253 3394 1513 3394 
Q 1903 3394 2198 3281 
Q 2494 3169 2634 2976 
Q 2775 2784 2828 2463 
L 2278 2388 
Q 2241 2644 2061 2787 
Q 1881 2931 1553 2931 
Q 1166 2931 1000 2803 
Q 834 2675 834 2503 
Q 834 2394 903 2306 
Q 972 2216 1119 2156 
Q 1203 2125 1616 2013 
Q 2213 1853 2448 1751 
Q 2684 1650 2818 1456 
Q 2953 1263 2953 975 
Q 2953 694 2789 445 
Q 2625 197 2315 61 
Q 2006 -75 1616 -75 
Q 969 -75 630 194 
Q 291 463 197 991 
z
" transform="scale(0.015625)"/>
       <path id="ArialMT-65" d="M 2694 1069 
L 3275 997 
Q 3138 488 2766 206 
Q 2394 -75 1816 -75 
Q 1088 -75 661 373 
Q 234 822 234 1631 
Q 234 2469 665 2931 
Q 1097 3394 1784 3394 
Q 2450 3394 2872 2941 
Q 3294 2488 3294 1666 
Q 3294 1616 3291 1516 
L 816 1516 
Q 847 969 1125 678 
Q 1403 388 1819 388 
Q 2128 388 2347 550 
Q 2566 713 2694 1069 
z
M 847 1978 
L 2700 1978 
Q 2663 2397 2488 2606 
Q 2219 2931 1791 2931 
Q 1403 2931 1139 2672 
Q 875 2413 847 1978 
z
" transform="scale(0.015625)"/>
       <path id="ArialMT-72" d="M 416 0 
L 416 3319 
L 922 3319 
L 922 2816 
Q 1116 3169 1280 3281 
Q 1444 3394 1641 3394 
Q 1925 3394 2219 3213 
L 2025 2691 
Q 1819 2813 1613 2813 
Q 1428 2813 1281 2702 
Q 1134 2591 1072 2394 
Q 978 2094 978 1738 
L 978 0 
L 416 0 
z
" transform="scale(0.015625)"/>
       <path id="ArialMT-76" d="M 1344 0 
L 81 3319 
L 675 3319 
L 1388 1331 
Q 1503 1009 1600 663 
Q 1675 925 1809 1294 
L 2547 3319 
L 3125 3319 
L 1869 0 
L 1344 0 
z
" transform="scale(0.015625)"/>
       <path id="ArialMT-61" d="M 2588 409 
Q 2275 144 1986 34 
Q 1697 -75 1366 -75 
Q 819 -75 525 192 
Q 231 459 231 875 
Q 231 1119 342 1320 
Q 453 1522 633 1644 
Q 813 1766 1038 1828 
Q 1203 1872 1538 1913 
Q 2219 1994 2541 2106 
Q 2544 2222 2544 2253 
Q 2544 2597 2384 2738 
Q 2169 2928 1744 2928 
Q 1347 2928 1158 2789 
Q 969 2650 878 2297 
L 328 2372 
Q 403 2725 575 2942 
Q 747 3159 1072 3276 
Q 1397 3394 1825 3394 
Q 2250 3394 2515 3294 
Q 2781 3194 2906 3042 
Q 3031 2891 3081 2659 
Q 3109 2516 3109 2141 
L 3109 1391 
Q 3109 606 3145 398 
Q 3181 191 3288 0 
L 2700 0 
Q 2613 175 2588 409 
z
M 2541 1666 
Q 2234 1541 1622 1453 
Q 1275 1403 1131 1340 
Q 988 1278 909 1158 
Q 831 1038 831 891 
Q 831 666 1001 516 
Q 1172 366 1500 366 
Q 1825 366 2078 508 
Q 2331 650 2450 897 
Q 2541 1088 2541 1459 
L 2541 1666 
z
" transform="scale(0.015625)"/>
       <path id="ArialMT-74" d="M 1650 503 
L 1731 6 
Q 1494 -44 1306 -44 
Q 1000 -44 831 53 
Q 663 150 594 308 
Q 525 466 525 972 
L 525 2881 
L 113 2881 
L 113 3319 
L 525 3319 
L 525 4141 
L 1084 4478 
L 1084 3319 
L 1650 3319 
L 1650 2881 
L 1084 2881 
L 1084 941 
Q 1084 700 1114 631 
Q 1144 563 1211 522 
Q 1278 481 1403 481 
Q 1497 481 1650 503 
z
" transform="scale(0.015625)"/>
       <path id="ArialMT-69" d="M 425 3934 
L 425 4581 
L 988 4581 
L 988 3934 
L 425 3934 
z
M 425 0 
L 425 3319 
L 988 3319 
L 988 0 
L 425 0 
z
" transform="scale(0.015625)"/>
       <path id="ArialMT-6f" d="M 213 1659 
Q 213 2581 725 3025 
Q 1153 3394 1769 3394 
Q 2453 3394 2887 2945 
Q 3322 2497 3322 1706 
Q 3322 1066 3130 698 
Q 2938 331 2570 128 
Q 2203 -75 1769 -75 
Q 1072 -75 642 372 
Q 213 819 213 1659 
z
M 791 1659 
Q 791 1022 1069 705 
Q 1347 388 1769 388 
Q 2188 388 2466 706 
Q 2744 1025 2744 1678 
Q 2744 2294 2464 2611 
Q 2184 2928 1769 2928 
Q 1347 2928 1069 2612 
Q 791 2297 791 1659 
z
" transform="scale(0.015625)"/>
       <path id="ArialMT-6e" d="M 422 0 
L 422 3319 
L 928 3319 
L 928 2847 
Q 1294 3394 1984 3394 
Q 2284 3394 2536 3286 
Q 2788 3178 2913 3003 
Q 3038 2828 3088 2588 
Q 3119 2431 3119 2041 
L 3119 0 
L 2556 0 
L 2556 2019 
Q 2556 2363 2490 2533 
Q 2425 2703 2258 2804 
Q 2091 2906 1866 2906 
Q 1506 2906 1245 2678 
Q 984 2450 984 1813 
L 984 0 
L 422 0 
z
" transform="scale(0.015625)"/>
      </defs>
      <use xlink:href="#ArialMT-4f"/>
      <use xlink:href="#ArialMT-62" x="77.783203"/>
      <use xlink:href="#ArialMT-73" x="133.398438"/>
      <use xlink:href="#ArialMT-65" x="183.398438"/>
      <use xlink:href="#ArialMT-72" x="239.013672"/>
      <use xlink:href="#ArialMT-76" x="272.314453"/>
      <use xlink:href="#ArialMT-61" x="322.314453"/>
      <use xlink:href="#ArialMT-74" x="377.929688"/>
      <use xlink:href="#ArialMT-69" x="405.712891"/>
      <use xlink:href="#ArialMT-6f" x="427.929688"/>
      <use xlink:href="#ArialMT-6e" x="483.544922"/>
      <use xlink:href="#ArialMT-73" x="539.160156"/>
     </g>
    </g>
    <g id="line2d_17">
     <path d="M 46.232875 232.562625 
L 55.032875 232.562625 
L 63.832875 232.562625 
" style="fill: none; stroke: #1f77b4; stroke-width: 2; stroke-linecap: round"/>
    </g>
    <g id="text_17">
     <!-- $m_n(x)$ -->
     <g style="fill: #262626" transform="translate(70.872875 235.642625) scale(0.088 -0.088)">
      <defs>
       <path id="DejaVuSans-Oblique-6d" d="M 5747 2113 
L 5338 0 
L 4763 0 
L 5166 2094 
Q 5191 2228 5203 2325 
Q 5216 2422 5216 2491 
Q 5216 2772 5059 2928 
Q 4903 3084 4622 3084 
Q 4203 3084 3875 2770 
Q 3547 2456 3450 1953 
L 3066 0 
L 2491 0 
L 2900 2094 
Q 2925 2209 2937 2307 
Q 2950 2406 2950 2484 
Q 2950 2769 2794 2926 
Q 2638 3084 2363 3084 
Q 1938 3084 1609 2770 
Q 1281 2456 1184 1953 
L 800 0 
L 225 0 
L 909 3500 
L 1484 3500 
L 1375 2956 
Q 1609 3263 1923 3423 
Q 2238 3584 2597 3584 
Q 2978 3584 3223 3384 
Q 3469 3184 3519 2828 
Q 3781 3197 4126 3390 
Q 4472 3584 4856 3584 
Q 5306 3584 5551 3325 
Q 5797 3066 5797 2591 
Q 5797 2488 5784 2364 
Q 5772 2241 5747 2113 
z
" transform="scale(0.015625)"/>
       <path id="DejaVuSans-Oblique-6e" d="M 3566 2113 
L 3156 0 
L 2578 0 
L 2988 2091 
Q 3016 2238 3031 2350 
Q 3047 2463 3047 2528 
Q 3047 2791 2881 2937 
Q 2716 3084 2419 3084 
Q 1956 3084 1622 2776 
Q 1288 2469 1184 1941 
L 800 0 
L 225 0 
L 903 3500 
L 1478 3500 
L 1363 2950 
Q 1603 3253 1940 3418 
Q 2278 3584 2650 3584 
Q 3113 3584 3367 3334 
Q 3622 3084 3622 2631 
Q 3622 2519 3608 2391 
Q 3594 2263 3566 2113 
z
" transform="scale(0.015625)"/>
       <path id="DejaVuSans-28" d="M 1984 4856 
Q 1566 4138 1362 3434 
Q 1159 2731 1159 2009 
Q 1159 1288 1364 580 
Q 1569 -128 1984 -844 
L 1484 -844 
Q 1016 -109 783 600 
Q 550 1309 550 2009 
Q 550 2706 781 3412 
Q 1013 4119 1484 4856 
L 1984 4856 
z
" transform="scale(0.015625)"/>
       <path id="DejaVuSans-29" d="M 513 4856 
L 1013 4856 
Q 1481 4119 1714 3412 
Q 1947 2706 1947 2009 
Q 1947 1309 1714 600 
Q 1481 -109 1013 -844 
L 513 -844 
Q 928 -128 1133 580 
Q 1338 1288 1338 2009 
Q 1338 2731 1133 3434 
Q 928 4138 513 4856 
z
" transform="scale(0.015625)"/>
      </defs>
      <use xlink:href="#DejaVuSans-Oblique-6d" transform="translate(0 0.125)"/>
      <use xlink:href="#DejaVuSans-Oblique-6e" transform="translate(97.412109 -16.28125) scale(0.7)"/>
      <use xlink:href="#DejaVuSans-28" transform="translate(144.511719 0.125)"/>
      <use xlink:href="#DejaVuSans-Oblique-78" transform="translate(183.525391 0.125)"/>
      <use xlink:href="#DejaVuSans-29" transform="translate(242.705078 0.125)"/>
     </g>
    </g>
    <g id="patch_5">
     <path d="M 46.232875 249.799625 
L 63.832875 249.799625 
L 63.832875 243.639625 
L 46.232875 243.639625 
z
" style="fill: #1f77b4; fill-opacity: 0.5; stroke: #1f77b4; stroke-opacity: 0.5; stroke-width: 0.8; stroke-linejoin: miter"/>
    </g>
    <g id="text_18">
     <!-- $f(\mathbf{x}^*)$ 95% pred. -->
     <g style="fill: #262626" transform="translate(70.872875 249.799625) scale(0.088 -0.088)">
      <defs>
       <path id="DejaVuSans-Oblique-66" d="M 3059 4863 
L 2969 4384 
L 2419 4384 
Q 2106 4384 1964 4261 
Q 1822 4138 1753 3809 
L 1691 3500 
L 2638 3500 
L 2553 3053 
L 1606 3053 
L 1013 0 
L 434 0 
L 1031 3053 
L 481 3053 
L 563 3500 
L 1113 3500 
L 1159 3744 
Q 1278 4363 1576 4613 
Q 1875 4863 2516 4863 
L 3059 4863 
z
" transform="scale(0.015625)"/>
       <path id="DejaVuSans-Bold-78" d="M 1422 1791 
L 159 3500 
L 1344 3500 
L 2059 2463 
L 2784 3500 
L 3969 3500 
L 2706 1797 
L 4031 0 
L 2847 0 
L 2059 1106 
L 1281 0 
L 97 0 
L 1422 1791 
z
" transform="scale(0.015625)"/>
       <path id="DejaVuSans-2a" d="M 3009 3897 
L 1888 3291 
L 3009 2681 
L 2828 2375 
L 1778 3009 
L 1778 1831 
L 1422 1831 
L 1422 3009 
L 372 2375 
L 191 2681 
L 1313 3291 
L 191 3897 
L 372 4206 
L 1422 3572 
L 1422 4750 
L 1778 4750 
L 1778 3572 
L 2828 4206 
L 3009 3897 
z
" transform="scale(0.015625)"/>
       <path id="ArialMT-39" d="M 350 1059 
L 891 1109 
Q 959 728 1153 556 
Q 1347 384 1650 384 
Q 1909 384 2104 503 
Q 2300 622 2425 820 
Q 2550 1019 2634 1356 
Q 2719 1694 2719 2044 
Q 2719 2081 2716 2156 
Q 2547 1888 2255 1720 
Q 1963 1553 1622 1553 
Q 1053 1553 659 1965 
Q 266 2378 266 3053 
Q 266 3750 677 4175 
Q 1088 4600 1706 4600 
Q 2153 4600 2523 4359 
Q 2894 4119 3086 3673 
Q 3278 3228 3278 2384 
Q 3278 1506 3087 986 
Q 2897 466 2520 194 
Q 2144 -78 1638 -78 
Q 1100 -78 759 220 
Q 419 519 350 1059 
z
M 2653 3081 
Q 2653 3566 2395 3850 
Q 2138 4134 1775 4134 
Q 1400 4134 1122 3828 
Q 844 3522 844 3034 
Q 844 2597 1108 2323 
Q 1372 2050 1759 2050 
Q 2150 2050 2401 2323 
Q 2653 2597 2653 3081 
z
" transform="scale(0.015625)"/>
       <path id="ArialMT-35" d="M 266 1200 
L 856 1250 
Q 922 819 1161 601 
Q 1400 384 1738 384 
Q 2144 384 2425 690 
Q 2706 997 2706 1503 
Q 2706 1984 2436 2262 
Q 2166 2541 1728 2541 
Q 1456 2541 1237 2417 
Q 1019 2294 894 2097 
L 366 2166 
L 809 4519 
L 3088 4519 
L 3088 3981 
L 1259 3981 
L 1013 2750 
Q 1425 3038 1878 3038 
Q 2478 3038 2890 2622 
Q 3303 2206 3303 1553 
Q 3303 931 2941 478 
Q 2500 -78 1738 -78 
Q 1113 -78 717 272 
Q 322 622 266 1200 
z
" transform="scale(0.015625)"/>
       <path id="ArialMT-25" d="M 372 3481 
Q 372 3972 619 4315 
Q 866 4659 1334 4659 
Q 1766 4659 2048 4351 
Q 2331 4044 2331 3447 
Q 2331 2866 2045 2552 
Q 1759 2238 1341 2238 
Q 925 2238 648 2547 
Q 372 2856 372 3481 
z
M 1350 4272 
Q 1141 4272 1002 4090 
Q 863 3909 863 3425 
Q 863 2984 1003 2804 
Q 1144 2625 1350 2625 
Q 1563 2625 1702 2806 
Q 1841 2988 1841 3469 
Q 1841 3913 1700 4092 
Q 1559 4272 1350 4272 
z
M 1353 -169 
L 3859 4659 
L 4316 4659 
L 1819 -169 
L 1353 -169 
z
M 3334 1075 
Q 3334 1569 3581 1911 
Q 3828 2253 4300 2253 
Q 4731 2253 5014 1945 
Q 5297 1638 5297 1041 
Q 5297 459 5011 145 
Q 4725 -169 4303 -169 
Q 3888 -169 3611 142 
Q 3334 453 3334 1075 
z
M 4316 1866 
Q 4103 1866 3964 1684 
Q 3825 1503 3825 1019 
Q 3825 581 3965 400 
Q 4106 219 4313 219 
Q 4528 219 4667 400 
Q 4806 581 4806 1063 
Q 4806 1506 4665 1686 
Q 4525 1866 4316 1866 
z
" transform="scale(0.015625)"/>
       <path id="ArialMT-70" d="M 422 -1272 
L 422 3319 
L 934 3319 
L 934 2888 
Q 1116 3141 1344 3267 
Q 1572 3394 1897 3394 
Q 2322 3394 2647 3175 
Q 2972 2956 3137 2557 
Q 3303 2159 3303 1684 
Q 3303 1175 3120 767 
Q 2938 359 2589 142 
Q 2241 -75 1856 -75 
Q 1575 -75 1351 44 
Q 1128 163 984 344 
L 984 -1272 
L 422 -1272 
z
M 931 1641 
Q 931 1000 1190 694 
Q 1450 388 1819 388 
Q 2194 388 2461 705 
Q 2728 1022 2728 1688 
Q 2728 2322 2467 2637 
Q 2206 2953 1844 2953 
Q 1484 2953 1207 2617 
Q 931 2281 931 1641 
z
" transform="scale(0.015625)"/>
       <path id="ArialMT-64" d="M 2575 0 
L 2575 419 
Q 2259 -75 1647 -75 
Q 1250 -75 917 144 
Q 584 363 401 755 
Q 219 1147 219 1656 
Q 219 2153 384 2558 
Q 550 2963 881 3178 
Q 1213 3394 1622 3394 
Q 1922 3394 2156 3267 
Q 2391 3141 2538 2938 
L 2538 4581 
L 3097 4581 
L 3097 0 
L 2575 0 
z
M 797 1656 
Q 797 1019 1065 703 
Q 1334 388 1700 388 
Q 2069 388 2326 689 
Q 2584 991 2584 1609 
Q 2584 2291 2321 2609 
Q 2059 2928 1675 2928 
Q 1300 2928 1048 2622 
Q 797 2316 797 1656 
z
" transform="scale(0.015625)"/>
      </defs>
      <use xlink:href="#DejaVuSans-Oblique-66" transform="translate(0 0.765625)"/>
      <use xlink:href="#DejaVuSans-28" transform="translate(35.205078 0.765625)"/>
      <use xlink:href="#DejaVuSans-Bold-78" transform="translate(74.21875 0.765625)"/>
      <use xlink:href="#DejaVuSans-2a" transform="translate(153.31543 39.046875) scale(0.7)"/>
      <use xlink:href="#DejaVuSans-29" transform="translate(204.6875 0.765625)"/>
      <use xlink:href="#ArialMT-20" transform="translate(243.701172 0.765625)"/>
      <use xlink:href="#ArialMT-39" transform="translate(271.484375 0.765625)"/>
      <use xlink:href="#ArialMT-35" transform="translate(327.099609 0.765625)"/>
      <use xlink:href="#ArialMT-25" transform="translate(382.714844 0.765625)"/>
      <use xlink:href="#ArialMT-20" transform="translate(471.630859 0.765625)"/>
      <use xlink:href="#ArialMT-70" transform="translate(499.414062 0.765625)"/>
      <use xlink:href="#ArialMT-72" transform="translate(555.029297 0.765625)"/>
      <use xlink:href="#ArialMT-65" transform="translate(588.330078 0.765625)"/>
      <use xlink:href="#ArialMT-64" transform="translate(643.945312 0.765625)"/>
      <use xlink:href="#ArialMT-2e" transform="translate(699.560547 0.765625)"/>
     </g>
    </g>
    <g id="patch_6">
     <path d="M 46.232875 263.967625 
L 63.832875 263.967625 
L 63.832875 257.807625 
L 46.232875 257.807625 
z
" style="fill: #ff7f0e; fill-opacity: 0.5; stroke: #ff7f0e; stroke-opacity: 0.5; stroke-width: 0.8; stroke-linejoin: miter"/>
    </g>
    <g id="text_19">
     <!-- $y^*$ 95% pred. -->
     <g style="fill: #262626" transform="translate(70.872875 263.967625) scale(0.088 -0.088)">
      <use xlink:href="#DejaVuSans-Oblique-79" transform="translate(0 0.765625)"/>
      <use xlink:href="#DejaVuSans-2a" transform="translate(77.283529 39.046875) scale(0.7)"/>
      <use xlink:href="#ArialMT-20" transform="translate(128.655599 0.765625)"/>
      <use xlink:href="#ArialMT-39" transform="translate(156.438802 0.765625)"/>
      <use xlink:href="#ArialMT-35" transform="translate(212.054036 0.765625)"/>
      <use xlink:href="#ArialMT-25" transform="translate(267.669271 0.765625)"/>
      <use xlink:href="#ArialMT-20" transform="translate(356.585286 0.765625)"/>
      <use xlink:href="#ArialMT-70" transform="translate(384.36849 0.765625)"/>
      <use xlink:href="#ArialMT-72" transform="translate(439.983724 0.765625)"/>
      <use xlink:href="#ArialMT-65" transform="translate(473.284505 0.765625)"/>
      <use xlink:href="#ArialMT-64" transform="translate(528.89974 0.765625)"/>
      <use xlink:href="#ArialMT-2e" transform="translate(584.514974 0.765625)"/>
     </g>
    </g>
    <g id="line2d_18">
     <path d="M 46.232875 273.4345 
L 55.032875 273.4345 
L 63.832875 273.4345 
" style="fill: none; stroke-dasharray: 7.68,1.92,1.2,1.92; stroke-dashoffset: 0; stroke: #bf00bf; stroke-width: 1.2"/>
    </g>
    <g id="text_20">
     <!-- True function -->
     <g style="fill: #262626" transform="translate(70.872875 276.5145) scale(0.088 -0.088)">
      <defs>
       <path id="ArialMT-54" d="M 1659 0 
L 1659 4041 
L 150 4041 
L 150 4581 
L 3781 4581 
L 3781 4041 
L 2266 4041 
L 2266 0 
L 1659 0 
z
" transform="scale(0.015625)"/>
       <path id="ArialMT-75" d="M 2597 0 
L 2597 488 
Q 2209 -75 1544 -75 
Q 1250 -75 995 37 
Q 741 150 617 320 
Q 494 491 444 738 
Q 409 903 409 1263 
L 409 3319 
L 972 3319 
L 972 1478 
Q 972 1038 1006 884 
Q 1059 663 1231 536 
Q 1403 409 1656 409 
Q 1909 409 2131 539 
Q 2353 669 2445 892 
Q 2538 1116 2538 1541 
L 2538 3319 
L 3100 3319 
L 3100 0 
L 2597 0 
z
" transform="scale(0.015625)"/>
       <path id="ArialMT-66" d="M 556 0 
L 556 2881 
L 59 2881 
L 59 3319 
L 556 3319 
L 556 3672 
Q 556 4006 616 4169 
Q 697 4388 901 4523 
Q 1106 4659 1475 4659 
Q 1713 4659 2000 4603 
L 1916 4113 
Q 1741 4144 1584 4144 
Q 1328 4144 1222 4034 
Q 1116 3925 1116 3625 
L 1116 3319 
L 1763 3319 
L 1763 2881 
L 1116 2881 
L 1116 0 
L 556 0 
z
" transform="scale(0.015625)"/>
       <path id="ArialMT-63" d="M 2588 1216 
L 3141 1144 
Q 3050 572 2676 248 
Q 2303 -75 1759 -75 
Q 1078 -75 664 370 
Q 250 816 250 1647 
Q 250 2184 428 2587 
Q 606 2991 970 3192 
Q 1334 3394 1763 3394 
Q 2303 3394 2647 3120 
Q 2991 2847 3088 2344 
L 2541 2259 
Q 2463 2594 2264 2762 
Q 2066 2931 1784 2931 
Q 1359 2931 1093 2626 
Q 828 2322 828 1663 
Q 828 994 1084 691 
Q 1341 388 1753 388 
Q 2084 388 2306 591 
Q 2528 794 2588 1216 
z
" transform="scale(0.015625)"/>
      </defs>
      <use xlink:href="#ArialMT-54"/>
      <use xlink:href="#ArialMT-72" x="57.333984"/>
      <use xlink:href="#ArialMT-75" x="90.634766"/>
      <use xlink:href="#ArialMT-65" x="146.25"/>
      <use xlink:href="#ArialMT-20" x="201.865234"/>
      <use xlink:href="#ArialMT-66" x="229.648438"/>
      <use xlink:href="#ArialMT-75" x="257.431641"/>
      <use xlink:href="#ArialMT-6e" x="313.046875"/>
      <use xlink:href="#ArialMT-63" x="368.662109"/>
      <use xlink:href="#ArialMT-74" x="418.662109"/>
      <use xlink:href="#ArialMT-69" x="446.445312"/>
      <use xlink:href="#ArialMT-6f" x="468.662109"/>
      <use xlink:href="#ArialMT-6e" x="524.277344"/>
     </g>
    </g>
   </g>
  </g>
  <g id="axes_2">
   <g id="matplotlib.axis_3">
    <g id="ytick_7">
     <g id="line2d_19">
      <defs>
       <path id="m4a716ea16f" d="M 0 0 
L 4.8 0 
" style="stroke: #262626"/>
      </defs>
      <g>
       <use xlink:href="#m4a716ea16f" x="395.432875" y="274.087149" style="fill: #262626; stroke: #262626"/>
      </g>
     </g>
     <g id="text_21">
      <!-- 0.00 -->
      <g style="fill: #ff7f0e" transform="translate(403.732875 277.236587) scale(0.088 -0.088)">
       <use xlink:href="#ArialMT-30"/>
       <use xlink:href="#ArialMT-2e" x="55.615234"/>
       <use xlink:href="#ArialMT-30" x="83.398438"/>
       <use xlink:href="#ArialMT-30" x="139.013672"/>
      </g>
     </g>
    </g>
    <g id="ytick_8">
     <g id="line2d_20">
      <g>
       <use xlink:href="#m4a716ea16f" x="395.432875" y="225.663703" style="fill: #262626; stroke: #262626"/>
      </g>
     </g>
     <g id="text_22">
      <!-- 0.01 -->
      <g style="fill: #ff7f0e" transform="translate(403.732875 228.813141) scale(0.088 -0.088)">
       <use xlink:href="#ArialMT-30"/>
       <use xlink:href="#ArialMT-2e" x="55.615234"/>
       <use xlink:href="#ArialMT-30" x="83.398438"/>
       <use xlink:href="#ArialMT-31" x="139.013672"/>
      </g>
     </g>
    </g>
    <g id="ytick_9">
     <g id="line2d_21">
      <g>
       <use xlink:href="#m4a716ea16f" x="395.432875" y="177.240258" style="fill: #262626; stroke: #262626"/>
      </g>
     </g>
     <g id="text_23">
      <!-- 0.02 -->
      <g style="fill: #ff7f0e" transform="translate(403.732875 180.389695) scale(0.088 -0.088)">
       <use xlink:href="#ArialMT-30"/>
       <use xlink:href="#ArialMT-2e" x="55.615234"/>
       <use xlink:href="#ArialMT-30" x="83.398438"/>
       <use xlink:href="#ArialMT-32" x="139.013672"/>
      </g>
     </g>
    </g>
    <g id="ytick_10">
     <g id="line2d_22">
      <g>
       <use xlink:href="#m4a716ea16f" x="395.432875" y="128.816812" style="fill: #262626; stroke: #262626"/>
      </g>
     </g>
     <g id="text_24">
      <!-- 0.03 -->
      <g style="fill: #ff7f0e" transform="translate(403.732875 131.96625) scale(0.088 -0.088)">
       <defs>
        <path id="ArialMT-33" d="M 269 1209 
L 831 1284 
Q 928 806 1161 595 
Q 1394 384 1728 384 
Q 2125 384 2398 659 
Q 2672 934 2672 1341 
Q 2672 1728 2419 1979 
Q 2166 2231 1775 2231 
Q 1616 2231 1378 2169 
L 1441 2663 
Q 1497 2656 1531 2656 
Q 1891 2656 2178 2843 
Q 2466 3031 2466 3422 
Q 2466 3731 2256 3934 
Q 2047 4138 1716 4138 
Q 1388 4138 1169 3931 
Q 950 3725 888 3313 
L 325 3413 
Q 428 3978 793 4289 
Q 1159 4600 1703 4600 
Q 2078 4600 2393 4439 
Q 2709 4278 2876 4000 
Q 3044 3722 3044 3409 
Q 3044 3113 2884 2869 
Q 2725 2625 2413 2481 
Q 2819 2388 3044 2092 
Q 3269 1797 3269 1353 
Q 3269 753 2831 336 
Q 2394 -81 1725 -81 
Q 1122 -81 723 278 
Q 325 638 269 1209 
z
" transform="scale(0.015625)"/>
       </defs>
       <use xlink:href="#ArialMT-30"/>
       <use xlink:href="#ArialMT-2e" x="55.615234"/>
       <use xlink:href="#ArialMT-30" x="83.398438"/>
       <use xlink:href="#ArialMT-33" x="139.013672"/>
      </g>
     </g>
    </g>
    <g id="ytick_11">
     <g id="line2d_23">
      <g>
       <use xlink:href="#m4a716ea16f" x="395.432875" y="80.393367" style="fill: #262626; stroke: #262626"/>
      </g>
     </g>
     <g id="text_25">
      <!-- 0.04 -->
      <g style="fill: #ff7f0e" transform="translate(403.732875 83.542804) scale(0.088 -0.088)">
       <use xlink:href="#ArialMT-30"/>
       <use xlink:href="#ArialMT-2e" x="55.615234"/>
       <use xlink:href="#ArialMT-30" x="83.398438"/>
       <use xlink:href="#ArialMT-34" x="139.013672"/>
      </g>
     </g>
    </g>
    <g id="ytick_12">
     <g id="line2d_24">
      <g>
       <use xlink:href="#m4a716ea16f" x="395.432875" y="31.969921" style="fill: #262626; stroke: #262626"/>
      </g>
     </g>
     <g id="text_26">
      <!-- 0.05 -->
      <g style="fill: #ff7f0e" transform="translate(403.732875 35.119358) scale(0.088 -0.088)">
       <use xlink:href="#ArialMT-30"/>
       <use xlink:href="#ArialMT-2e" x="55.615234"/>
       <use xlink:href="#ArialMT-30" x="83.398438"/>
       <use xlink:href="#ArialMT-35" x="139.013672"/>
      </g>
     </g>
    </g>
    <g id="text_27">
     <!-- Information Acquisition Function -->
     <g style="fill: #ff7f0e" transform="translate(431.847 221.16075) rotate(-90) scale(0.096 -0.096)">
      <defs>
       <path id="ArialMT-49" d="M 597 0 
L 597 4581 
L 1203 4581 
L 1203 0 
L 597 0 
z
" transform="scale(0.015625)"/>
       <path id="ArialMT-6d" d="M 422 0 
L 422 3319 
L 925 3319 
L 925 2853 
Q 1081 3097 1340 3245 
Q 1600 3394 1931 3394 
Q 2300 3394 2536 3241 
Q 2772 3088 2869 2813 
Q 3263 3394 3894 3394 
Q 4388 3394 4653 3120 
Q 4919 2847 4919 2278 
L 4919 0 
L 4359 0 
L 4359 2091 
Q 4359 2428 4304 2576 
Q 4250 2725 4106 2815 
Q 3963 2906 3769 2906 
Q 3419 2906 3187 2673 
Q 2956 2441 2956 1928 
L 2956 0 
L 2394 0 
L 2394 2156 
Q 2394 2531 2256 2718 
Q 2119 2906 1806 2906 
Q 1569 2906 1367 2781 
Q 1166 2656 1075 2415 
Q 984 2175 984 1722 
L 984 0 
L 422 0 
z
" transform="scale(0.015625)"/>
       <path id="ArialMT-41" d="M -9 0 
L 1750 4581 
L 2403 4581 
L 4278 0 
L 3588 0 
L 3053 1388 
L 1138 1388 
L 634 0 
L -9 0 
z
M 1313 1881 
L 2866 1881 
L 2388 3150 
Q 2169 3728 2063 4100 
Q 1975 3659 1816 3225 
L 1313 1881 
z
" transform="scale(0.015625)"/>
       <path id="ArialMT-71" d="M 2538 -1272 
L 2538 353 
Q 2406 169 2170 47 
Q 1934 -75 1669 -75 
Q 1078 -75 651 397 
Q 225 869 225 1691 
Q 225 2191 398 2587 
Q 572 2984 901 3189 
Q 1231 3394 1625 3394 
Q 2241 3394 2594 2875 
L 2594 3319 
L 3100 3319 
L 3100 -1272 
L 2538 -1272 
z
M 803 1669 
Q 803 1028 1072 708 
Q 1341 388 1716 388 
Q 2075 388 2334 692 
Q 2594 997 2594 1619 
Q 2594 2281 2320 2615 
Q 2047 2950 1678 2950 
Q 1313 2950 1058 2639 
Q 803 2328 803 1669 
z
" transform="scale(0.015625)"/>
       <path id="ArialMT-46" d="M 525 0 
L 525 4581 
L 3616 4581 
L 3616 4041 
L 1131 4041 
L 1131 2622 
L 3281 2622 
L 3281 2081 
L 1131 2081 
L 1131 0 
L 525 0 
z
" transform="scale(0.015625)"/>
      </defs>
      <use xlink:href="#ArialMT-49"/>
      <use xlink:href="#ArialMT-6e" x="27.783203"/>
      <use xlink:href="#ArialMT-66" x="83.398438"/>
      <use xlink:href="#ArialMT-6f" x="111.181641"/>
      <use xlink:href="#ArialMT-72" x="166.796875"/>
      <use xlink:href="#ArialMT-6d" x="200.097656"/>
      <use xlink:href="#ArialMT-61" x="283.398438"/>
      <use xlink:href="#ArialMT-74" x="339.013672"/>
      <use xlink:href="#ArialMT-69" x="366.796875"/>
      <use xlink:href="#ArialMT-6f" x="389.013672"/>
      <use xlink:href="#ArialMT-6e" x="444.628906"/>
      <use xlink:href="#ArialMT-20" x="500.244141"/>
      <use xlink:href="#ArialMT-41" x="522.527344"/>
      <use xlink:href="#ArialMT-63" x="589.226562"/>
      <use xlink:href="#ArialMT-71" x="639.226562"/>
      <use xlink:href="#ArialMT-75" x="694.841797"/>
      <use xlink:href="#ArialMT-69" x="750.457031"/>
      <use xlink:href="#ArialMT-73" x="772.673828"/>
      <use xlink:href="#ArialMT-69" x="822.673828"/>
      <use xlink:href="#ArialMT-74" x="844.890625"/>
      <use xlink:href="#ArialMT-69" x="872.673828"/>
      <use xlink:href="#ArialMT-6f" x="894.890625"/>
      <use xlink:href="#ArialMT-6e" x="950.505859"/>
      <use xlink:href="#ArialMT-20" x="1006.121094"/>
      <use xlink:href="#ArialMT-46" x="1033.904297"/>
      <use xlink:href="#ArialMT-75" x="1094.988281"/>
      <use xlink:href="#ArialMT-6e" x="1150.603516"/>
      <use xlink:href="#ArialMT-63" x="1206.21875"/>
      <use xlink:href="#ArialMT-74" x="1256.21875"/>
      <use xlink:href="#ArialMT-69" x="1284.001953"/>
      <use xlink:href="#ArialMT-6f" x="1306.21875"/>
      <use xlink:href="#ArialMT-6e" x="1361.833984"/>
     </g>
    </g>
   </g>
   <g id="line2d_25">
    <path d="M 54.545602 117.295316 
L 57.824941 164.29669 
L 61.10428 200.542841 
L 64.383619 227.189392 
L 67.662958 245.735539 
L 70.942296 257.870585 
L 74.221636 265.29071 
L 77.500973 269.515152 
L 80.780313 271.75739 
L 84.059653 272.875555 
L 87.33899 273.404633 
L 90.61833 273.639247 
L 93.89767 273.720234 
L 97.177007 273.69671 
L 100.456344 273.552317 
L 103.735686 273.19201 
L 107.015024 272.393141 
L 110.294361 270.72929 
L 113.573703 267.509042 
L 116.853041 261.806626 
L 120.132378 252.635952 
L 123.41172 239.241683 
L 126.691057 221.415045 
L 129.970395 199.726859 
L 133.249737 175.626118 
L 136.529069 151.386349 
L 139.808412 129.909906 
L 143.087754 114.350499 
L 146.367086 107.536864 
L 149.646428 111.253431 
L 152.92577 125.600464 
L 156.205103 148.698716 
L 159.484445 176.951796 
L 162.763787 205.877141 
L 166.04312 231.300602 
L 169.322462 250.508343 
L 172.601804 262.860401 
L 175.881137 269.526821 
L 179.160479 272.510372 
L 182.439821 273.615375 
L 185.719153 273.959989 
L 188.998496 274.054184 
L 192.277838 274.078279 
L 195.55717 274.084373 
L 198.836512 274.086036 
L 202.115855 274.086788 
L 205.395187 274.087121 
L 208.674529 274.086891 
L 211.953871 274.087366 
L 215.233204 274.08713 
L 218.512556 274.087099 
L 221.791879 274.0875 
L 225.071221 274.086985 
L 228.350563 274.087089 
L 231.629886 274.087132 
L 234.909247 274.087145 
L 238.18857 274.087148 
L 241.467912 274.087149 
L 244.747254 274.087149 
L 248.026597 274.087149 
L 251.305939 274.087149 
L 254.585262 274.087149 
L 257.864623 274.087149 
L 261.143946 274.087149 
L 264.423288 274.087149 
L 267.70263 274.087149 
L 270.981953 274.087149 
L 274.261315 274.087149 
L 277.540637 274.087149 
L 280.81998 274.087149 
L 284.099322 274.087149 
L 287.378664 274.087149 
L 290.658006 274.087149 
L 293.937329 274.087149 
L 297.21669 274.087149 
L 300.496013 274.087149 
L 303.775355 274.087149 
L 307.054697 274.087149 
L 310.33402 274.087149 
L 313.613382 274.087148 
L 316.892705 274.087142 
L 320.172047 274.087097 
L 323.451389 274.086878 
L 326.730731 274.087202 
L 330.010073 274.086942 
L 333.289396 274.086764 
L 336.568738 274.08636 
L 339.84808 274.085573 
L 343.127423 274.084116 
L 346.406765 274.080954 
L 349.686088 274.073091 
L 352.96543 274.048243 
L 356.244772 273.94942 
L 359.524114 273.504636 
L 362.803456 271.551743 
L 366.082798 264.389781 
L 369.362141 244.348483 
L 372.641463 201.927345 
L 375.920806 131.071627 
L 379.200148 32.1675 
" clip-path="url(#pa5d2c26a1b)" style="fill: none; stroke: #ff7f0e; stroke-width: 1.2; stroke-linecap: round"/>
   </g>
   <g id="line2d_26">
    <path d="M 379.200148 274.087149 
L 379.200148 271.643516 
L 379.200148 269.199883 
L 379.200148 266.75625 
L 379.200148 264.312618 
L 379.200148 261.868985 
L 379.200148 259.425352 
L 379.200148 256.981719 
L 379.200148 254.538086 
L 379.200148 252.094453 
L 379.200148 249.650821 
L 379.200148 247.207188 
L 379.200148 244.763554 
L 379.200148 242.319923 
L 379.200148 239.876289 
L 379.200148 237.432658 
L 379.200148 234.989024 
L 379.200148 232.545393 
L 379.200148 230.101757 
L 379.200148 227.658125 
L 379.200148 225.214494 
L 379.200148 222.770858 
L 379.200148 220.327227 
L 379.200148 217.883595 
L 379.200148 215.439959 
L 379.200148 212.996328 
L 379.200148 210.552696 
L 379.200148 208.109065 
L 379.200148 205.665429 
L 379.200148 203.221798 
L 379.200148 200.778166 
L 379.200148 198.334535 
L 379.200148 195.890899 
L 379.200148 193.447263 
L 379.200148 191.003636 
L 379.200148 188.56 
L 379.200148 186.116364 
L 379.200148 183.672737 
L 379.200148 181.229101 
L 379.200148 178.785466 
L 379.200148 176.341839 
L 379.200148 173.898203 
L 379.200148 171.454567 
L 379.200148 169.01094 
L 379.200148 166.567304 
L 379.200148 164.123668 
L 379.200148 161.680041 
L 379.200148 159.236405 
L 379.200148 156.792769 
L 379.200148 154.349142 
L 379.200148 151.905507 
L 379.200148 149.46188 
L 379.200148 147.018244 
L 379.200148 144.574608 
L 379.200148 142.130981 
L 379.200148 139.687345 
L 379.200148 137.243709 
L 379.200148 134.800082 
L 379.200148 132.356446 
L 379.200148 129.91281 
L 379.200148 127.469183 
L 379.200148 125.025548 
L 379.200148 122.581903 
L 379.200148 120.138285 
L 379.200148 117.694649 
L 379.200148 115.251013 
L 379.200148 112.807395 
L 379.200148 110.363741 
L 379.200148 107.920123 
L 379.200148 105.476487 
L 379.200148 103.032851 
L 379.200148 100.589215 
L 379.200148 98.14558 
L 379.200148 95.701962 
L 379.200148 93.258326 
L 379.200148 90.81469 
L 379.200148 88.371054 
L 379.200148 85.927418 
L 379.200148 83.4838 
L 379.200148 81.040146 
L 379.200148 78.596528 
L 379.200148 76.152892 
L 379.200148 73.709256 
L 379.200148 71.265621 
L 379.200148 68.821985 
L 379.200148 66.378367 
L 379.200148 63.934731 
L 379.200148 61.491095 
L 379.200148 59.047459 
L 379.200148 56.603823 
L 379.200148 54.160205 
L 379.200148 51.716569 
L 379.200148 49.272933 
L 379.200148 46.829297 
L 379.200148 44.385662 
L 379.200148 41.942026 
L 379.200148 39.49839 
L 379.200148 37.054772 
L 379.200148 34.611136 
L 379.200148 32.1675 
" clip-path="url(#pa5d2c26a1b)" style="fill: none; stroke: #ff7f0e; stroke-linecap: round"/>
   </g>
   <g id="patch_7">
    <path d="M 38.312875 286.1835 
L 38.312875 20.0715 
" style="fill: none; stroke: #262626; stroke-linejoin: miter; stroke-linecap: square"/>
   </g>
   <g id="patch_8">
    <path d="M 395.432875 286.1835 
L 395.432875 20.0715 
" style="fill: none; stroke: #262626; stroke-linejoin: miter; stroke-linecap: square"/>
   </g>
   <g id="patch_9">
    <path d="M 38.312875 286.1835 
L 395.432875 286.1835 
" style="fill: none; stroke: #262626; stroke-linejoin: miter; stroke-linecap: square"/>
   </g>
   <g id="patch_10">
    <path d="M 38.312875 20.0715 
L 395.432875 20.0715 
" style="fill: none; stroke: #262626; stroke-linejoin: miter; stroke-linecap: square"/>
   </g>
  </g>
 </g>
 <defs>
  <clipPath id="pa5d2c26a1b">
   <rect x="38.312875" y="20.0715" width="357.12" height="266.112"/>
  </clipPath>
 </defs>
</svg>