<?xml version="1.0" encoding="utf-8" standalone="no"?>
<!DOCTYPE svg PUBLIC "-//W3C//DTD SVG 1.1//EN"
  "http://www.w3.org/Graphics/SVG/1.1/DTD/svg11.dtd">
<svg xmlns:xlink="http://www.w3.org/1999/xlink" width="440.955pt" height="322.510875pt" viewBox="0 0 440.955 322.510875" xmlns="http://www.w3.org/2000/svg" version="1.1">
 <metadata>
  <rdf:RDF xmlns:dc="http://purl.org/dc/elements/1.1/" xmlns:cc="http://creativecommons.org/ns#" xmlns:rdf="http://www.w3.org/1999/02/22-rdf-syntax-ns#">
   <cc:Work>
    <dc:type rdf:resource="http://purl.org/dc/dcmitype/StillImage"/>
    <dc:date>2023-10-23T15:18:58.457703</dc:date>
    <dc:format>image/svg+xml</dc:format>
    <dc:creator>
     <cc:Agent>
      <dc:title>Matplotlib v3.8.0, https://matplotlib.org/</dc:title>
     </cc:Agent>
    </dc:creator>
   </cc:Work>
  </rdf:RDF>
 </metadata>
 <defs>
  <style type="text/css">*{stroke-linejoin: round; stroke-linecap: butt}</style>
 </defs>
 <g id="figure_1">
  <g id="patch_1">
   <path d="M 0 322.510875 
L 440.955 322.510875 
L 440.955 0 
L 0 0 
z
" style="fill: #ffffff"/>
  </g>
  <g id="axes_1">
   <g id="patch_2">
    <path d="M 43.2065 286.1835 
L 400.3265 286.1835 
L 400.3265 20.0715 
L 43.2065 20.0715 
z
" style="fill: #ffffff"/>
   </g>
   <g id="matplotlib.axis_1">
    <g id="xtick_1">
     <g id="line2d_1">
      <defs>
       <path id="m6bb9896eeb" d="M 0 0 
L 0 4.8 
" style="stroke: #262626"/>
      </defs>
      <g>
       <use xlink:href="#m6bb9896eeb" x="59.439227" y="286.1835" style="fill: #262626; stroke: #262626"/>
      </g>
     </g>
     <g id="text_1">
      <!-- 0.0 -->
      <g style="fill: #262626" transform="translate(53.323227 300.782375) scale(0.088 -0.088)">
       <defs>
        <path id="ArialMT-30" d="M 266 2259 
Q 266 3072 433 3567 
Q 600 4063 929 4331 
Q 1259 4600 1759 4600 
Q 2128 4600 2406 4451 
Q 2684 4303 2865 4023 
Q 3047 3744 3150 3342 
Q 3253 2941 3253 2259 
Q 3253 1453 3087 958 
Q 2922 463 2592 192 
Q 2263 -78 1759 -78 
Q 1097 -78 719 397 
Q 266 969 266 2259 
z
M 844 2259 
Q 844 1131 1108 757 
Q 1372 384 1759 384 
Q 2147 384 2411 759 
Q 2675 1134 2675 2259 
Q 2675 3391 2411 3762 
Q 2147 4134 1753 4134 
Q 1366 4134 1134 3806 
Q 844 3388 844 2259 
z
" transform="scale(0.015625)"/>
        <path id="ArialMT-2e" d="M 581 0 
L 581 641 
L 1222 641 
L 1222 0 
L 581 0 
z
" transform="scale(0.015625)"/>
       </defs>
       <use xlink:href="#ArialMT-30"/>
       <use xlink:href="#ArialMT-2e" x="55.615234"/>
       <use xlink:href="#ArialMT-30" x="83.398438"/>
      </g>
     </g>
    </g>
    <g id="xtick_2">
     <g id="line2d_2">
      <g>
       <use xlink:href="#m6bb9896eeb" x="124.370136" y="286.1835" style="fill: #262626; stroke: #262626"/>
      </g>
     </g>
     <g id="text_2">
      <!-- 0.2 -->
      <g style="fill: #262626" transform="translate(118.254136 300.782375) scale(0.088 -0.088)">
       <defs>
        <path id="ArialMT-32" d="M 3222 541 
L 3222 0 
L 194 0 
Q 188 203 259 391 
Q 375 700 629 1000 
Q 884 1300 1366 1694 
Q 2113 2306 2375 2664 
Q 2638 3022 2638 3341 
Q 2638 3675 2398 3904 
Q 2159 4134 1775 4134 
Q 1369 4134 1125 3890 
Q 881 3647 878 3216 
L 300 3275 
Q 359 3922 746 4261 
Q 1134 4600 1788 4600 
Q 2447 4600 2831 4234 
Q 3216 3869 3216 3328 
Q 3216 3053 3103 2787 
Q 2991 2522 2730 2228 
Q 2469 1934 1863 1422 
Q 1356 997 1212 845 
Q 1069 694 975 541 
L 3222 541 
z
" transform="scale(0.015625)"/>
       </defs>
       <use xlink:href="#ArialMT-30"/>
       <use xlink:href="#ArialMT-2e" x="55.615234"/>
       <use xlink:href="#ArialMT-32" x="83.398438"/>
      </g>
     </g>
    </g>
    <g id="xtick_3">
     <g id="line2d_3">
      <g>
       <use xlink:href="#m6bb9896eeb" x="189.301045" y="286.1835" style="fill: #262626; stroke: #262626"/>
      </g>
     </g>
     <g id="text_3">
      <!-- 0.4 -->
      <g style="fill: #262626" transform="translate(183.185045 300.782375) scale(0.088 -0.088)">
       <defs>
        <path id="ArialMT-34" d="M 2069 0 
L 2069 1097 
L 81 1097 
L 81 1613 
L 2172 4581 
L 2631 4581 
L 2631 1613 
L 3250 1613 
L 3250 1097 
L 2631 1097 
L 2631 0 
L 2069 0 
z
M 2069 1613 
L 2069 3678 
L 634 1613 
L 2069 1613 
z
" transform="scale(0.015625)"/>
       </defs>
       <use xlink:href="#ArialMT-30"/>
       <use xlink:href="#ArialMT-2e" x="55.615234"/>
       <use xlink:href="#ArialMT-34" x="83.398438"/>
      </g>
     </g>
    </g>
    <g id="xtick_4">
     <g id="line2d_4">
      <g>
       <use xlink:href="#m6bb9896eeb" x="254.231955" y="286.1835" style="fill: #262626; stroke: #262626"/>
      </g>
     </g>
     <g id="text_4">
      <!-- 0.6 -->
      <g style="fill: #262626" transform="translate(248.115955 300.782375) scale(0.088 -0.088)">
       <defs>
        <path id="ArialMT-36" d="M 3184 3459 
L 2625 3416 
Q 2550 3747 2413 3897 
Q 2184 4138 1850 4138 
Q 1581 4138 1378 3988 
Q 1113 3794 959 3422 
Q 806 3050 800 2363 
Q 1003 2672 1297 2822 
Q 1591 2972 1913 2972 
Q 2475 2972 2870 2558 
Q 3266 2144 3266 1488 
Q 3266 1056 3080 686 
Q 2894 316 2569 119 
Q 2244 -78 1831 -78 
Q 1128 -78 684 439 
Q 241 956 241 2144 
Q 241 3472 731 4075 
Q 1159 4600 1884 4600 
Q 2425 4600 2770 4297 
Q 3116 3994 3184 3459 
z
M 888 1484 
Q 888 1194 1011 928 
Q 1134 663 1356 523 
Q 1578 384 1822 384 
Q 2178 384 2434 671 
Q 2691 959 2691 1453 
Q 2691 1928 2437 2201 
Q 2184 2475 1800 2475 
Q 1419 2475 1153 2201 
Q 888 1928 888 1484 
z
" transform="scale(0.015625)"/>
       </defs>
       <use xlink:href="#ArialMT-30"/>
       <use xlink:href="#ArialMT-2e" x="55.615234"/>
       <use xlink:href="#ArialMT-36" x="83.398438"/>
      </g>
     </g>
    </g>
    <g id="xtick_5">
     <g id="line2d_5">
      <g>
       <use xlink:href="#m6bb9896eeb" x="319.162864" y="286.1835" style="fill: #262626; stroke: #262626"/>
      </g>
     </g>
     <g id="text_5">
      <!-- 0.8 -->
      <g style="fill: #262626" transform="translate(313.046864 300.782375) scale(0.088 -0.088)">
       <defs>
        <path id="ArialMT-38" d="M 1131 2484 
Q 781 2613 612 2850 
Q 444 3088 444 3419 
Q 444 3919 803 4259 
Q 1163 4600 1759 4600 
Q 2359 4600 2725 4251 
Q 3091 3903 3091 3403 
Q 3091 3084 2923 2848 
Q 2756 2613 2416 2484 
Q 2838 2347 3058 2040 
Q 3278 1734 3278 1309 
Q 3278 722 2862 322 
Q 2447 -78 1769 -78 
Q 1091 -78 675 323 
Q 259 725 259 1325 
Q 259 1772 486 2073 
Q 713 2375 1131 2484 
z
M 1019 3438 
Q 1019 3113 1228 2906 
Q 1438 2700 1772 2700 
Q 2097 2700 2305 2904 
Q 2513 3109 2513 3406 
Q 2513 3716 2298 3927 
Q 2084 4138 1766 4138 
Q 1444 4138 1231 3931 
Q 1019 3725 1019 3438 
z
M 838 1322 
Q 838 1081 952 856 
Q 1066 631 1291 507 
Q 1516 384 1775 384 
Q 2178 384 2440 643 
Q 2703 903 2703 1303 
Q 2703 1709 2433 1975 
Q 2163 2241 1756 2241 
Q 1359 2241 1098 1978 
Q 838 1716 838 1322 
z
" transform="scale(0.015625)"/>
       </defs>
       <use xlink:href="#ArialMT-30"/>
       <use xlink:href="#ArialMT-2e" x="55.615234"/>
       <use xlink:href="#ArialMT-38" x="83.398438"/>
      </g>
     </g>
    </g>
    <g id="xtick_6">
     <g id="line2d_6">
      <g>
       <use xlink:href="#m6bb9896eeb" x="384.093773" y="286.1835" style="fill: #262626; stroke: #262626"/>
      </g>
     </g>
     <g id="text_6">
      <!-- 1.0 -->
      <g style="fill: #262626" transform="translate(377.977773 300.782375) scale(0.088 -0.088)">
       <defs>
        <path id="ArialMT-31" d="M 2384 0 
L 1822 0 
L 1822 3584 
Q 1619 3391 1289 3197 
Q 959 3003 697 2906 
L 697 3450 
Q 1169 3672 1522 3987 
Q 1875 4303 2022 4600 
L 2384 4600 
L 2384 0 
z
" transform="scale(0.015625)"/>
       </defs>
       <use xlink:href="#ArialMT-31"/>
       <use xlink:href="#ArialMT-2e" x="55.615234"/>
       <use xlink:href="#ArialMT-30" x="83.398438"/>
      </g>
     </g>
    </g>
    <g id="text_7">
     <!-- $x$ -->
     <g style="fill: #262626" transform="translate(218.8865 313.402875) scale(0.096 -0.096)">
      <defs>
       <path id="DejaVuSans-Oblique-78" d="M 3841 3500 
L 2234 1784 
L 3219 0 
L 2559 0 
L 1819 1388 
L 531 0 
L -166 0 
L 1556 1844 
L 641 3500 
L 1300 3500 
L 1972 2234 
L 3144 3500 
L 3841 3500 
z
" transform="scale(0.015625)"/>
      </defs>
      <use xlink:href="#DejaVuSans-Oblique-78" transform="translate(0 0.3125)"/>
     </g>
    </g>
   </g>
   <g id="matplotlib.axis_2">
    <g id="ytick_1">
     <g id="line2d_7">
      <defs>
       <path id="me7abccce0b" d="M 0 0 
L -4.8 0 
" style="stroke: #262626"/>
      </defs>
      <g>
       <use xlink:href="#me7abccce0b" x="43.2065" y="276.387543" style="fill: #262626; stroke: #262626"/>
      </g>
     </g>
     <g id="text_8">
      <!-- −12 -->
      <g style="fill: #262626" transform="translate(19.9795 279.536981) scale(0.088 -0.088)">
       <defs>
        <path id="ArialMT-2212" d="M 3381 1997 
L 356 1997 
L 356 2522 
L 3381 2522 
L 3381 1997 
z
" transform="scale(0.015625)"/>
       </defs>
       <use xlink:href="#ArialMT-2212"/>
       <use xlink:href="#ArialMT-31" x="58.398438"/>
       <use xlink:href="#ArialMT-32" x="114.013672"/>
      </g>
     </g>
    </g>
    <g id="ytick_2">
     <g id="line2d_8">
      <g>
       <use xlink:href="#me7abccce0b" x="43.2065" y="244.137085" style="fill: #262626; stroke: #262626"/>
      </g>
     </g>
     <g id="text_9">
      <!-- −10 -->
      <g style="fill: #262626" transform="translate(19.9795 247.286522) scale(0.088 -0.088)">
       <use xlink:href="#ArialMT-2212"/>
       <use xlink:href="#ArialMT-31" x="58.398438"/>
       <use xlink:href="#ArialMT-30" x="114.013672"/>
      </g>
     </g>
    </g>
    <g id="ytick_3">
     <g id="line2d_9">
      <g>
       <use xlink:href="#me7abccce0b" x="43.2065" y="211.886627" style="fill: #262626; stroke: #262626"/>
      </g>
     </g>
     <g id="text_10">
      <!-- −8 -->
      <g style="fill: #262626" transform="translate(24.873125 215.036064) scale(0.088 -0.088)">
       <use xlink:href="#ArialMT-2212"/>
       <use xlink:href="#ArialMT-38" x="58.398438"/>
      </g>
     </g>
    </g>
    <g id="ytick_4">
     <g id="line2d_10">
      <g>
       <use xlink:href="#me7abccce0b" x="43.2065" y="179.636168" style="fill: #262626; stroke: #262626"/>
      </g>
     </g>
     <g id="text_11">
      <!-- −6 -->
      <g style="fill: #262626" transform="translate(24.873125 182.785606) scale(0.088 -0.088)">
       <use xlink:href="#ArialMT-2212"/>
       <use xlink:href="#ArialMT-36" x="58.398438"/>
      </g>
     </g>
    </g>
    <g id="ytick_5">
     <g id="line2d_11">
      <g>
       <use xlink:href="#me7abccce0b" x="43.2065" y="147.38571" style="fill: #262626; stroke: #262626"/>
      </g>
     </g>
     <g id="text_12">
      <!-- −4 -->
      <g style="fill: #262626" transform="translate(24.873125 150.535148) scale(0.088 -0.088)">
       <use xlink:href="#ArialMT-2212"/>
       <use xlink:href="#ArialMT-34" x="58.398438"/>
      </g>
     </g>
    </g>
    <g id="ytick_6">
     <g id="line2d_12">
      <g>
       <use xlink:href="#me7abccce0b" x="43.2065" y="115.135252" style="fill: #262626; stroke: #262626"/>
      </g>
     </g>
     <g id="text_13">
      <!-- −2 -->
      <g style="fill: #262626" transform="translate(24.873125 118.284689) scale(0.088 -0.088)">
       <use xlink:href="#ArialMT-2212"/>
       <use xlink:href="#ArialMT-32" x="58.398438"/>
      </g>
     </g>
    </g>
    <g id="ytick_7">
     <g id="line2d_13">
      <g>
       <use xlink:href="#me7abccce0b" x="43.2065" y="82.884794" style="fill: #262626; stroke: #262626"/>
      </g>
     </g>
     <g id="text_14">
      <!-- 0 -->
      <g style="fill: #262626" transform="translate(30.012875 86.034231) scale(0.088 -0.088)">
       <use xlink:href="#ArialMT-30"/>
      </g>
     </g>
    </g>
    <g id="ytick_8">
     <g id="line2d_14">
      <g>
       <use xlink:href="#me7abccce0b" x="43.2065" y="50.634336" style="fill: #262626; stroke: #262626"/>
      </g>
     </g>
     <g id="text_15">
      <!-- 2 -->
      <g style="fill: #262626" transform="translate(30.012875 53.783773) scale(0.088 -0.088)">
       <use xlink:href="#ArialMT-32"/>
      </g>
     </g>
    </g>
    <g id="text_16">
     <!-- $y$ -->
     <g style="fill: #262626" transform="translate(13.9635 156.0075) rotate(-90) scale(0.096 -0.096)">
      <defs>
       <path id="DejaVuSans-Oblique-79" d="M 1588 -325 
Q 1188 -997 936 -1164 
Q 684 -1331 294 -1331 
L -159 -1331 
L -63 -850 
L 269 -850 
Q 509 -850 678 -719 
Q 847 -588 1056 -206 
L 1234 128 
L 459 3500 
L 1069 3500 
L 1650 819 
L 3256 3500 
L 3859 3500 
L 1588 -325 
z
" transform="scale(0.015625)"/>
      </defs>
      <use xlink:href="#DejaVuSans-Oblique-79" transform="translate(0 0.3125)"/>
     </g>
    </g>
   </g>
   <g id="PolyCollection_1">
    <defs>
     <path id="m401de4afe6" d="M 59.439227 -290.343375 
L 59.439227 -182.94919 
L 62.718566 -184.565172 
L 65.997905 -186.383315 
L 69.277244 -188.407192 
L 72.556583 -190.636626 
L 75.835921 -193.067253 
L 79.115261 -195.69017 
L 82.394598 -198.491769 
L 85.673938 -201.453491 
L 88.953278 -204.552136 
L 92.232615 -207.759636 
L 95.511955 -211.043672 
L 98.791295 -214.367969 
L 102.070632 -217.692792 
L 105.349969 -220.976264 
L 108.629311 -224.174357 
L 111.908649 -227.242315 
L 115.187986 -230.135883 
L 118.467328 -232.809719 
L 121.746666 -231.474884 
L 125.026003 -229.445431 
L 128.305345 -227.802394 
L 131.584682 -226.571374 
L 134.86402 -225.770929 
L 138.143362 -225.411376 
L 141.422694 -225.495176 
L 144.702037 -226.015654 
L 147.981379 -226.957587 
L 151.260711 -228.296805 
L 154.540053 -230.00046 
L 157.819395 -232.027142 
L 161.098728 -234.328324 
L 164.37807 -233.537217 
L 167.657412 -231.005879 
L 170.936745 -228.266071 
L 174.216087 -225.358202 
L 177.495429 -222.321781 
L 180.774762 -219.194949 
L 184.054104 -216.012699 
L 187.333446 -212.805916 
L 190.612778 -209.600411 
L 193.892121 -206.41583 
L 197.171463 -203.265087 
L 200.450795 -200.15382 
L 203.730137 -197.080099 
L 207.00948 -194.034443 
L 210.288812 -191.000163 
L 213.568154 -187.953723 
L 216.847496 -184.865854 
L 220.126829 -181.702474 
L 223.406181 -178.426172 
L 226.685504 -174.997941 
L 229.964846 -171.378893 
L 233.244188 -167.532539 
L 236.523511 -163.426832 
L 239.802872 -159.036336 
L 243.082195 -154.344896 
L 246.361537 -149.347306 
L 249.640879 -144.051578 
L 252.920222 -138.480596 
L 256.199564 -132.67342 
L 259.478887 -126.65381 
L 262.758248 -114.848798 
L 266.037571 -103.391888 
L 269.316913 -92.513169 
L 272.596255 -82.411941 
L 275.875578 -73.285861 
L 279.15494 -65.326234 
L 282.434262 -58.710895 
L 285.713605 -53.601221 
L 288.992947 -50.135447 
L 292.272289 -48.423375 
L 295.551631 -48.542479 
L 298.830954 -50.533589 
L 302.110315 -54.39689 
L 305.389638 -60.09072 
L 308.66898 -67.52901 
L 311.948322 -76.583212 
L 315.227645 -87.08169 
L 318.507007 -98.814439 
L 321.78633 -111.537145 
L 325.065672 -124.974808 
L 328.345014 -138.830928 
L 331.624356 -152.794587 
L 334.903698 -166.546765 
L 338.183021 -179.774888 
L 341.462363 -192.138744 
L 344.741705 -202.69735 
L 348.021048 -212.219727 
L 351.30039 -220.491441 
L 354.579713 -227.290031 
L 357.859055 -232.420502 
L 361.138397 -235.68518 
L 364.417739 -236.496534 
L 367.697081 -235.314455 
L 370.976423 -232.289996 
L 374.255766 -227.548805 
L 377.535088 -221.268504 
L 380.814431 -213.676649 
L 384.093773 -204.976725 
L 384.093773 -205.041229 
L 384.093773 -205.041229 
L 380.814431 -214.676076 
L 377.535088 -222.818475 
L 374.255766 -229.24747 
L 370.976423 -233.820558 
L 367.697081 -236.446425 
L 364.417739 -237.066919 
L 361.138397 -235.749681 
L 357.859055 -232.978962 
L 354.579713 -228.288781 
L 351.30039 -221.71103 
L 348.021048 -213.375008 
L 344.741705 -203.453167 
L 341.462363 -192.203247 
L 338.183021 -180.925002 
L 334.903698 -169.246073 
L 331.624356 -157.413081 
L 328.345014 -145.710619 
L 325.065672 -134.399364 
L 321.78633 -123.726689 
L 318.507007 -113.908136 
L 315.227645 -105.123875 
L 311.948322 -97.522069 
L 308.66898 -91.208635 
L 305.389638 -86.253312 
L 302.110315 -82.684904 
L 298.830954 -80.497553 
L 295.551631 -79.649229 
L 292.272289 -80.068885 
L 288.992947 -81.659562 
L 285.713605 -84.303738 
L 282.434262 -87.869593 
L 279.15494 -92.214554 
L 275.875578 -97.191514 
L 272.596255 -102.65518 
L 269.316913 -108.46284 
L 266.037571 -114.482197 
L 262.758248 -120.591947 
L 259.478887 -126.718306 
L 256.199564 -138.713107 
L 252.920222 -150.749184 
L 249.640879 -162.625742 
L 246.361537 -174.189631 
L 243.082195 -185.303999 
L 239.802872 -195.849776 
L 236.523511 -205.726129 
L 233.244188 -214.85029 
L 229.964846 -223.157864 
L 226.685504 -230.601809 
L 223.406181 -237.151592 
L 220.126829 -242.792637 
L 216.847496 -247.524553 
L 213.568154 -251.360472 
L 210.288812 -254.325469 
L 207.00948 -256.455439 
L 203.730137 -257.795892 
L 200.450795 -258.400641 
L 197.171463 -258.330676 
L 193.892121 -257.653034 
L 190.612778 -256.439684 
L 187.333446 -254.766399 
L 184.054104 -252.711671 
L 180.774762 -250.355769 
L 177.495429 -247.779446 
L 174.216087 -245.063 
L 170.936745 -242.285399 
L 167.657412 -239.522654 
L 164.37807 -236.84765 
L 161.098728 -235.820849 
L 157.819395 -237.819563 
L 154.540053 -239.499096 
L 151.260711 -240.830163 
L 147.981379 -241.788014 
L 144.702037 -242.35414 
L 141.422694 -242.516611 
L 138.143362 -242.270539 
L 134.86402 -241.617848 
L 131.584682 -240.568027 
L 128.305345 -239.136938 
L 125.026003 -237.34735 
L 121.746666 -235.227805 
L 118.467328 -233.861109 
L 115.187986 -236.561983 
L 111.908649 -239.541167 
L 108.629311 -242.752036 
L 105.349969 -246.14822 
L 102.070632 -249.682075 
L 98.791295 -253.306014 
L 95.511955 -256.974038 
L 92.232615 -260.641806 
L 88.953278 -264.268059 
L 85.673938 -267.815241 
L 82.394598 -271.249889 
L 79.115261 -274.543345 
L 75.835921 -277.671636 
L 72.556583 -280.615872 
L 69.277244 -283.362076 
L 65.997905 -285.901108 
L 62.718566 -288.228355 
L 59.439227 -290.343375 
z
" style="stroke: #1f77b4; stroke-opacity: 0.5; stroke-width: 0.8"/>
    </defs>
    <g clip-path="url(#pa816e64d3d)">
     <use xlink:href="#m401de4afe6" x="0" y="322.510875" style="fill: #1f77b4; fill-opacity: 0.5; stroke: #1f77b4; stroke-opacity: 0.5; stroke-width: 0.8"/>
    </g>
   </g>
   <g id="PolyCollection_2">
    <defs>
     <path id="m6cfca83075" d="M 59.439227 -182.94919 
L 59.439227 -182.94919 
L 62.718566 -184.565172 
L 65.997905 -186.383315 
L 69.277244 -188.407192 
L 72.556583 -190.636626 
L 75.835921 -193.067253 
L 79.115261 -195.69017 
L 82.394598 -198.491769 
L 85.673938 -201.453491 
L 88.953278 -204.552136 
L 92.232615 -207.759636 
L 95.511955 -211.043672 
L 98.791295 -214.367969 
L 102.070632 -217.692792 
L 105.349969 -220.976264 
L 108.629311 -224.174357 
L 111.908649 -227.242315 
L 115.187986 -230.135883 
L 118.467328 -232.809719 
L 121.746666 -231.474884 
L 125.026003 -229.445431 
L 128.305345 -227.802394 
L 131.584682 -226.571374 
L 134.86402 -225.770929 
L 138.143362 -225.411376 
L 141.422694 -225.495176 
L 144.702037 -226.015654 
L 147.981379 -226.957587 
L 151.260711 -228.296805 
L 154.540053 -230.00046 
L 157.819395 -232.027142 
L 161.098728 -234.328324 
L 164.37807 -233.537217 
L 167.657412 -231.005879 
L 170.936745 -228.266071 
L 174.216087 -225.358202 
L 177.495429 -222.321781 
L 180.774762 -219.194949 
L 184.054104 -216.012699 
L 187.333446 -212.805916 
L 190.612778 -209.600411 
L 193.892121 -206.41583 
L 197.171463 -203.265087 
L 200.450795 -200.15382 
L 203.730137 -197.080099 
L 207.00948 -194.034443 
L 210.288812 -191.000163 
L 213.568154 -187.953723 
L 216.847496 -184.865854 
L 220.126829 -181.702474 
L 223.406181 -178.426172 
L 226.685504 -174.997941 
L 229.964846 -171.378893 
L 233.244188 -167.532539 
L 236.523511 -163.426832 
L 239.802872 -159.036336 
L 243.082195 -154.344896 
L 246.361537 -149.347306 
L 249.640879 -144.051578 
L 252.920222 -138.480596 
L 256.199564 -132.67342 
L 259.478887 -126.65381 
L 262.758248 -114.848798 
L 266.037571 -103.391888 
L 269.316913 -92.513169 
L 272.596255 -82.411941 
L 275.875578 -73.285861 
L 279.15494 -65.326234 
L 282.434262 -58.710895 
L 285.713605 -53.601221 
L 288.992947 -50.135447 
L 292.272289 -48.423375 
L 295.551631 -48.542479 
L 298.830954 -50.533589 
L 302.110315 -54.39689 
L 305.389638 -60.09072 
L 308.66898 -67.52901 
L 311.948322 -76.583212 
L 315.227645 -87.08169 
L 318.507007 -98.814439 
L 321.78633 -111.537145 
L 325.065672 -124.974808 
L 328.345014 -138.830928 
L 331.624356 -152.794587 
L 334.903698 -166.546765 
L 338.183021 -179.774888 
L 341.462363 -192.138744 
L 344.741705 -202.69735 
L 348.021048 -212.219727 
L 351.30039 -220.491441 
L 354.579713 -227.290031 
L 357.859055 -232.420502 
L 361.138397 -235.68518 
L 364.417739 -236.496534 
L 367.697081 -235.314455 
L 370.976423 -232.289996 
L 374.255766 -227.548805 
L 377.535088 -221.268504 
L 380.814431 -213.676649 
L 384.093773 -204.976725 
L 384.093773 -204.976725 
L 384.093773 -204.976725 
L 380.814431 -213.676649 
L 377.535088 -221.268504 
L 374.255766 -227.548805 
L 370.976423 -232.289996 
L 367.697081 -235.314455 
L 364.417739 -236.496534 
L 361.138397 -235.68518 
L 357.859055 -232.420502 
L 354.579713 -227.290031 
L 351.30039 -220.491441 
L 348.021048 -212.219727 
L 344.741705 -202.69735 
L 341.462363 -192.138744 
L 338.183021 -179.774888 
L 334.903698 -166.546765 
L 331.624356 -152.794587 
L 328.345014 -138.830928 
L 325.065672 -124.974808 
L 321.78633 -111.537145 
L 318.507007 -98.814439 
L 315.227645 -87.08169 
L 311.948322 -76.583212 
L 308.66898 -67.52901 
L 305.389638 -60.09072 
L 302.110315 -54.39689 
L 298.830954 -50.533589 
L 295.551631 -48.542479 
L 292.272289 -48.423375 
L 288.992947 -50.135447 
L 285.713605 -53.601221 
L 282.434262 -58.710895 
L 279.15494 -65.326234 
L 275.875578 -73.285861 
L 272.596255 -82.411941 
L 269.316913 -92.513169 
L 266.037571 -103.391888 
L 262.758248 -114.848798 
L 259.478887 -126.65381 
L 256.199564 -132.67342 
L 252.920222 -138.480596 
L 249.640879 -144.051578 
L 246.361537 -149.347306 
L 243.082195 -154.344896 
L 239.802872 -159.036336 
L 236.523511 -163.426832 
L 233.244188 -167.532539 
L 229.964846 -171.378893 
L 226.685504 -174.997941 
L 223.406181 -178.426172 
L 220.126829 -181.702474 
L 216.847496 -184.865854 
L 213.568154 -187.953723 
L 210.288812 -191.000163 
L 207.00948 -194.034443 
L 203.730137 -197.080099 
L 200.450795 -200.15382 
L 197.171463 -203.265087 
L 193.892121 -206.41583 
L 190.612778 -209.600411 
L 187.333446 -212.805916 
L 184.054104 -216.012699 
L 180.774762 -219.194949 
L 177.495429 -222.321781 
L 174.216087 -225.358202 
L 170.936745 -228.266071 
L 167.657412 -231.005879 
L 164.37807 -233.537217 
L 161.098728 -234.328324 
L 157.819395 -232.027142 
L 154.540053 -230.00046 
L 151.260711 -228.296805 
L 147.981379 -226.957587 
L 144.702037 -226.015654 
L 141.422694 -225.495176 
L 138.143362 -225.411376 
L 134.86402 -225.770929 
L 131.584682 -226.571374 
L 128.305345 -227.802394 
L 125.026003 -229.445431 
L 121.746666 -231.474884 
L 118.467328 -232.809719 
L 115.187986 -230.135883 
L 111.908649 -227.242315 
L 108.629311 -224.174357 
L 105.349969 -220.976264 
L 102.070632 -217.692792 
L 98.791295 -214.367969 
L 95.511955 -211.043672 
L 92.232615 -207.759636 
L 88.953278 -204.552136 
L 85.673938 -201.453491 
L 82.394598 -198.491769 
L 79.115261 -195.69017 
L 75.835921 -193.067253 
L 72.556583 -190.636626 
L 69.277244 -188.407192 
L 65.997905 -186.383315 
L 62.718566 -184.565172 
L 59.439227 -182.94919 
z
" style="stroke: #ff7f0e; stroke-opacity: 0.5; stroke-width: 0.8"/>
    </defs>
    <g clip-path="url(#pa816e64d3d)">
     <use xlink:href="#m6cfca83075" x="0" y="322.510875" style="fill: #ff7f0e; fill-opacity: 0.5; stroke: #ff7f0e; stroke-opacity: 0.5; stroke-width: 0.8"/>
    </g>
   </g>
   <g id="PolyCollection_3">
    <defs>
     <path id="m62042524b2" d="M 59.439227 -290.343375 
L 59.439227 -290.343375 
L 62.718566 -288.228355 
L 65.997905 -285.901108 
L 69.277244 -283.362076 
L 72.556583 -280.615872 
L 75.835921 -277.671636 
L 79.115261 -274.543345 
L 82.394598 -271.249889 
L 85.673938 -267.815241 
L 88.953278 -264.268059 
L 92.232615 -260.641806 
L 95.511955 -256.974038 
L 98.791295 -253.306014 
L 102.070632 -249.682075 
L 105.349969 -246.14822 
L 108.629311 -242.752036 
L 111.908649 -239.541167 
L 115.187986 -236.561983 
L 118.467328 -233.861109 
L 121.746666 -235.227805 
L 125.026003 -237.34735 
L 128.305345 -239.136938 
L 131.584682 -240.568027 
L 134.86402 -241.617848 
L 138.143362 -242.270539 
L 141.422694 -242.516611 
L 144.702037 -242.35414 
L 147.981379 -241.788014 
L 151.260711 -240.830163 
L 154.540053 -239.499096 
L 157.819395 -237.819563 
L 161.098728 -235.820849 
L 164.37807 -236.84765 
L 167.657412 -239.522654 
L 170.936745 -242.285399 
L 174.216087 -245.063 
L 177.495429 -247.779446 
L 180.774762 -250.355769 
L 184.054104 -252.711671 
L 187.333446 -254.766399 
L 190.612778 -256.439684 
L 193.892121 -257.653034 
L 197.171463 -258.330676 
L 200.450795 -258.400641 
L 203.730137 -257.795892 
L 207.00948 -256.455439 
L 210.288812 -254.325469 
L 213.568154 -251.360472 
L 216.847496 -247.524553 
L 220.126829 -242.792637 
L 223.406181 -237.151592 
L 226.685504 -230.601809 
L 229.964846 -223.157864 
L 233.244188 -214.85029 
L 236.523511 -205.726129 
L 239.802872 -195.849776 
L 243.082195 -185.303999 
L 246.361537 -174.189631 
L 249.640879 -162.625742 
L 252.920222 -150.749184 
L 256.199564 -138.713107 
L 259.478887 -126.718306 
L 262.758248 -120.591947 
L 266.037571 -114.482197 
L 269.316913 -108.46284 
L 272.596255 -102.65518 
L 275.875578 -97.191514 
L 279.15494 -92.214554 
L 282.434262 -87.869593 
L 285.713605 -84.303738 
L 288.992947 -81.659562 
L 292.272289 -80.068885 
L 295.551631 -79.649229 
L 298.830954 -80.497553 
L 302.110315 -82.684904 
L 305.389638 -86.253312 
L 308.66898 -91.208635 
L 311.948322 -97.522069 
L 315.227645 -105.123875 
L 318.507007 -113.908136 
L 321.78633 -123.726689 
L 325.065672 -134.399364 
L 328.345014 -145.710619 
L 331.624356 -157.413081 
L 334.903698 -169.246073 
L 338.183021 -180.925002 
L 341.462363 -192.203247 
L 344.741705 -203.453167 
L 348.021048 -213.375008 
L 351.30039 -221.71103 
L 354.579713 -228.288781 
L 357.859055 -232.978962 
L 361.138397 -235.749681 
L 364.417739 -237.066919 
L 367.697081 -236.446425 
L 370.976423 -233.820558 
L 374.255766 -229.24747 
L 377.535088 -222.818475 
L 380.814431 -214.676076 
L 384.093773 -205.041229 
L 384.093773 -205.041229 
L 384.093773 -205.041229 
L 380.814431 -214.676076 
L 377.535088 -222.818475 
L 374.255766 -229.24747 
L 370.976423 -233.820558 
L 367.697081 -236.446425 
L 364.417739 -237.066919 
L 361.138397 -235.749681 
L 357.859055 -232.978962 
L 354.579713 -228.288781 
L 351.30039 -221.71103 
L 348.021048 -213.375008 
L 344.741705 -203.453167 
L 341.462363 -192.203247 
L 338.183021 -180.925002 
L 334.903698 -169.246073 
L 331.624356 -157.413081 
L 328.345014 -145.710619 
L 325.065672 -134.399364 
L 321.78633 -123.726689 
L 318.507007 -113.908136 
L 315.227645 -105.123875 
L 311.948322 -97.522069 
L 308.66898 -91.208635 
L 305.389638 -86.253312 
L 302.110315 -82.684904 
L 298.830954 -80.497553 
L 295.551631 -79.649229 
L 292.272289 -80.068885 
L 288.992947 -81.659562 
L 285.713605 -84.303738 
L 282.434262 -87.869593 
L 279.15494 -92.214554 
L 275.875578 -97.191514 
L 272.596255 -102.65518 
L 269.316913 -108.46284 
L 266.037571 -114.482197 
L 262.758248 -120.591947 
L 259.478887 -126.718306 
L 256.199564 -138.713107 
L 252.920222 -150.749184 
L 249.640879 -162.625742 
L 246.361537 -174.189631 
L 243.082195 -185.303999 
L 239.802872 -195.849776 
L 236.523511 -205.726129 
L 233.244188 -214.85029 
L 229.964846 -223.157864 
L 226.685504 -230.601809 
L 223.406181 -237.151592 
L 220.126829 -242.792637 
L 216.847496 -247.524553 
L 213.568154 -251.360472 
L 210.288812 -254.325469 
L 207.00948 -256.455439 
L 203.730137 -257.795892 
L 200.450795 -258.400641 
L 197.171463 -258.330676 
L 193.892121 -257.653034 
L 190.612778 -256.439684 
L 187.333446 -254.766399 
L 184.054104 -252.711671 
L 180.774762 -250.355769 
L 177.495429 -247.779446 
L 174.216087 -245.063 
L 170.936745 -242.285399 
L 167.657412 -239.522654 
L 164.37807 -236.84765 
L 161.098728 -235.820849 
L 157.819395 -237.819563 
L 154.540053 -239.499096 
L 151.260711 -240.830163 
L 147.981379 -241.788014 
L 144.702037 -242.35414 
L 141.422694 -242.516611 
L 138.143362 -242.270539 
L 134.86402 -241.617848 
L 131.584682 -240.568027 
L 128.305345 -239.136938 
L 125.026003 -237.34735 
L 121.746666 -235.227805 
L 118.467328 -233.861109 
L 115.187986 -236.561983 
L 111.908649 -239.541167 
L 108.629311 -242.752036 
L 105.349969 -246.14822 
L 102.070632 -249.682075 
L 98.791295 -253.306014 
L 95.511955 -256.974038 
L 92.232615 -260.641806 
L 88.953278 -264.268059 
L 85.673938 -267.815241 
L 82.394598 -271.249889 
L 79.115261 -274.543345 
L 75.835921 -277.671636 
L 72.556583 -280.615872 
L 69.277244 -283.362076 
L 65.997905 -285.901108 
L 62.718566 -288.228355 
L 59.439227 -290.343375 
z
" style="stroke: #ff7f0e; stroke-opacity: 0.5; stroke-width: 0.8"/>
    </defs>
    <g clip-path="url(#pa816e64d3d)">
     <use xlink:href="#m62042524b2" x="0" y="322.510875" style="fill: #ff7f0e; fill-opacity: 0.5; stroke: #ff7f0e; stroke-opacity: 0.5; stroke-width: 0.8"/>
    </g>
   </g>
   <g id="line2d_15">
    <defs>
     <path id="mfe3e68898d" d="M -5 5 
L 5 -5 
M -5 -5 
L 5 5 
" style="stroke: #000000; stroke-width: 2"/>
    </defs>
    <g clip-path="url(#pa816e64d3d)">
     <use xlink:href="#mfe3e68898d" x="361.243318" y="86.729713" style="stroke: #000000; stroke-width: 2"/>
     <use xlink:href="#mfe3e68898d" x="162.151989" y="87.394226" style="stroke: #000000; stroke-width: 2"/>
     <use xlink:href="#mfe3e68898d" x="119.149308" y="89.174571" style="stroke: #000000; stroke-width: 2"/>
     <use xlink:href="#mfe3e68898d" x="259.478887" y="195.824802" style="stroke: #000000; stroke-width: 2"/>
     <use xlink:href="#mfe3e68898d" x="384.093773" y="117.500864" style="stroke: #000000; stroke-width: 2"/>
     <use xlink:href="#mfe3e68898d" x="341.462363" y="130.33968" style="stroke: #000000; stroke-width: 2"/>
    </g>
   </g>
   <g id="line2d_16">
    <path d="M 59.439227 85.864591 
L 62.718566 86.114111 
L 65.997905 86.368664 
L 69.277244 86.626239 
L 72.556583 86.884625 
L 75.835921 87.141429 
L 79.115261 87.394117 
L 82.394598 87.640047 
L 85.673938 87.876509 
L 88.953278 88.100778 
L 92.232615 88.310155 
L 95.511955 88.50202 
L 98.791295 88.673883 
L 102.070632 88.823441 
L 105.349969 88.948633 
L 108.629311 89.047679 
L 111.908649 89.119134 
L 115.187986 89.161942 
L 118.467328 89.175461 
L 121.746666 89.159531 
L 125.026003 89.114485 
L 128.305345 89.041209 
L 131.584682 88.941175 
L 134.86402 88.816487 
L 138.143362 88.669917 
L 141.422694 88.504981 
L 144.702037 88.325978 
L 147.981379 88.138074 
L 151.260711 87.947391 
L 154.540053 87.761097 
L 157.819395 87.587523 
L 161.098728 87.436288 
L 164.37807 87.318442 
L 167.657412 87.246608 
L 170.936745 87.23514 
L 174.216087 87.300273 
L 177.495429 87.460262 
L 180.774762 87.735516 
L 184.054104 88.148691 
L 187.333446 88.724718 
L 190.612778 89.490828 
L 193.892121 90.476442 
L 197.171463 91.712994 
L 200.450795 93.233646 
L 203.730137 95.072878 
L 207.00948 97.265933 
L 210.288812 99.848059 
L 213.568154 102.853777 
L 216.847496 106.315672 
L 220.126829 110.263319 
L 223.406181 114.721993 
L 226.685504 119.710998 
L 229.964846 125.242497 
L 233.244188 131.31946 
L 236.523511 137.934397 
L 239.802872 145.067821 
L 243.082195 152.686428 
L 246.361537 160.742407 
L 249.640879 169.172215 
L 252.920222 177.895985 
L 256.199564 186.817611 
L 259.478887 195.824817 
L 262.758248 204.790502 
L 266.037571 213.573832 
L 269.316913 222.022871 
L 272.596255 229.977315 
L 275.875578 237.272187 
L 279.15494 243.740481 
L 282.434262 249.220631 
L 285.713605 253.558396 
L 288.992947 256.613371 
L 292.272289 258.264745 
L 295.551631 258.415021 
L 298.830954 256.995304 
L 302.110315 253.969978 
L 305.389638 249.338859 
L 308.66898 243.142053 
L 311.948322 235.458234 
L 315.227645 226.408092 
L 318.507007 216.149591 
L 321.78633 204.878958 
L 325.065672 192.823789 
L 328.345014 180.240102 
L 331.624356 167.407041 
L 334.903698 154.614456 
L 338.183021 142.16093 
L 341.462363 130.33988 
L 344.741705 119.435617 
L 348.021048 109.713508 
L 351.30039 101.40964 
L 354.579713 94.721469 
L 357.859055 89.811143 
L 361.138397 86.793444 
L 364.417739 85.729149 
L 367.697081 86.630435 
L 370.976423 89.455598 
L 374.255766 94.112737 
L 377.535088 100.467386 
L 380.814431 108.334512 
L 384.093773 117.501898 
" clip-path="url(#pa816e64d3d)" style="fill: none; stroke: #1f77b4; stroke-width: 2; stroke-linecap: round"/>
   </g>
   <g id="line2d_17">
    <path d="M 59.439227 146.915175 
L 62.718566 142.980059 
L 65.997905 139.059544 
L 69.277244 135.168171 
L 72.556583 131.320425 
L 75.835921 127.530633 
L 79.115261 123.81298 
L 82.394598 120.181402 
L 85.673938 116.64956 
L 88.953278 113.230814 
L 92.232615 109.938134 
L 95.511955 106.784088 
L 98.791295 103.780788 
L 102.070632 100.939847 
L 105.349969 98.27233 
L 108.629311 95.788748 
L 111.908649 93.498985 
L 115.187986 91.412284 
L 118.467328 89.537199 
L 121.746666 87.881588 
L 125.026003 86.452575 
L 128.305345 85.256511 
L 131.584682 84.298971 
L 134.86402 83.584726 
L 138.143362 83.117716 
L 141.422694 82.901049 
L 144.702037 82.93698 
L 147.981379 83.22689 
L 151.260711 83.77129 
L 154.540053 84.569816 
L 157.819395 85.621205 
L 161.098728 86.923298 
L 164.37807 88.473065 
L 167.657412 90.266549 
L 170.936745 92.298927 
L 174.216087 94.564469 
L 177.495429 97.056559 
L 180.774762 99.767696 
L 184.054104 102.689488 
L 187.333446 105.8127 
L 190.612778 109.127175 
L 193.892121 112.621936 
L 197.171463 116.285104 
L 200.450795 120.103992 
L 203.730137 124.065021 
L 207.00948 128.153754 
L 210.288812 132.354918 
L 213.568154 136.652399 
L 216.847496 141.029193 
L 220.126829 145.467474 
L 223.406181 149.948544 
L 226.685504 154.4528 
L 229.964846 158.959825 
L 233.244188 163.448296 
L 236.523511 167.895892 
L 239.802872 172.279583 
L 243.082195 176.57518 
L 246.361537 180.757763 
L 249.640879 184.801358 
L 252.920222 188.679083 
L 256.199564 192.363158 
L 259.478887 195.824802 
L 262.758248 199.034413 
L 266.037571 201.961472 
L 269.316913 204.5747 
L 272.596255 206.842079 
L 275.875578 208.731055 
L 279.15494 210.208594 
L 282.434262 211.24148 
L 285.713605 211.796549 
L 288.992947 211.841046 
L 292.272289 211.343053 
L 295.551631 210.272068 
L 298.830954 208.599633 
L 302.110315 206.300074 
L 305.389638 203.351762 
L 308.66898 199.737805 
L 311.948322 195.44782 
L 315.227645 190.479441 
L 318.507007 184.839942 
L 321.78633 178.548705 
L 325.065672 171.639296 
L 328.345014 164.162191 
L 331.624356 156.187648 
L 334.903698 147.808565 
L 338.183021 139.14352 
L 341.462363 130.33968 
L 344.741705 121.575111 
L 348.021048 113.060719 
L 351.30039 105.040971 
L 354.579713 97.792614 
L 357.859055 91.621266 
L 361.138397 86.855211 
L 364.417739 83.834168 
L 367.697081 82.893732 
L 370.976423 84.34331 
L 374.255766 88.437245 
L 377.535088 95.338843 
L 380.814431 105.077483 
L 384.093773 117.500864 
" clip-path="url(#pa816e64d3d)" style="fill: none; stroke-dasharray: 7.68,1.92,1.2,1.92; stroke-dashoffset: 0; stroke: #bf00bf; stroke-width: 1.2"/>
   </g>
   <g id="patch_3">
    <path d="M 43.2065 276.387543 
L 43.2065 50.634336 
" style="fill: none; stroke: #262626; stroke-linejoin: miter; stroke-linecap: square"/>
   </g>
   <g id="patch_4">
    <path d="M 59.439227 286.1835 
L 384.093773 286.1835 
" style="fill: none; stroke: #262626; stroke-linejoin: miter; stroke-linecap: square"/>
   </g>
   <g id="text_17">
    <!-- N=2,  -->
    <g style="fill: #262626" transform="translate(210.16025 14.0715) scale(0.096 -0.096)">
     <defs>
      <path id="ArialMT-4e" d="M 488 0 
L 488 4581 
L 1109 4581 
L 3516 984 
L 3516 4581 
L 4097 4581 
L 4097 0 
L 3475 0 
L 1069 3600 
L 1069 0 
L 488 0 
z
" transform="scale(0.015625)"/>
      <path id="ArialMT-3d" d="M 3381 2694 
L 356 2694 
L 356 3219 
L 3381 3219 
L 3381 2694 
z
M 3381 1303 
L 356 1303 
L 356 1828 
L 3381 1828 
L 3381 1303 
z
" transform="scale(0.015625)"/>
      <path id="ArialMT-2c" d="M 569 0 
L 569 641 
L 1209 641 
L 1209 0 
Q 1209 -353 1084 -570 
Q 959 -788 688 -906 
L 531 -666 
Q 709 -588 793 -436 
Q 878 -284 888 0 
L 569 0 
z
" transform="scale(0.015625)"/>
      <path id="ArialMT-20" transform="scale(0.015625)"/>
     </defs>
     <use xlink:href="#ArialMT-4e"/>
     <use xlink:href="#ArialMT-3d" x="72.216797"/>
     <use xlink:href="#ArialMT-32" x="130.615234"/>
     <use xlink:href="#ArialMT-2c" x="186.230469"/>
     <use xlink:href="#ArialMT-20" x="214.013672"/>
    </g>
   </g>
   <g id="legend_1">
    <g id="line2d_18">
     <g>
      <use xlink:href="#mfe3e68898d" x="59.9265" y="219.978625" style="stroke: #000000; stroke-width: 2"/>
     </g>
    </g>
    <g id="text_18">
     <!-- Observations -->
     <g style="fill: #262626" transform="translate(75.7665 223.058625) scale(0.088 -0.088)">
      <defs>
       <path id="ArialMT-4f" d="M 309 2231 
Q 309 3372 921 4017 
Q 1534 4663 2503 4663 
Q 3138 4663 3647 4359 
Q 4156 4056 4423 3514 
Q 4691 2972 4691 2284 
Q 4691 1588 4409 1038 
Q 4128 488 3612 205 
Q 3097 -78 2500 -78 
Q 1853 -78 1343 234 
Q 834 547 571 1087 
Q 309 1628 309 2231 
z
M 934 2222 
Q 934 1394 1379 917 
Q 1825 441 2497 441 
Q 3181 441 3623 922 
Q 4066 1403 4066 2288 
Q 4066 2847 3877 3264 
Q 3688 3681 3323 3911 
Q 2959 4141 2506 4141 
Q 1863 4141 1398 3698 
Q 934 3256 934 2222 
z
" transform="scale(0.015625)"/>
       <path id="ArialMT-62" d="M 941 0 
L 419 0 
L 419 4581 
L 981 4581 
L 981 2947 
Q 1338 3394 1891 3394 
Q 2197 3394 2470 3270 
Q 2744 3147 2920 2923 
Q 3097 2700 3197 2384 
Q 3297 2069 3297 1709 
Q 3297 856 2875 390 
Q 2453 -75 1863 -75 
Q 1275 -75 941 416 
L 941 0 
z
M 934 1684 
Q 934 1088 1097 822 
Q 1363 388 1816 388 
Q 2184 388 2453 708 
Q 2722 1028 2722 1663 
Q 2722 2313 2464 2622 
Q 2206 2931 1841 2931 
Q 1472 2931 1203 2611 
Q 934 2291 934 1684 
z
" transform="scale(0.015625)"/>
       <path id="ArialMT-73" d="M 197 991 
L 753 1078 
Q 800 744 1014 566 
Q 1228 388 1613 388 
Q 2000 388 2187 545 
Q 2375 703 2375 916 
Q 2375 1106 2209 1216 
Q 2094 1291 1634 1406 
Q 1016 1563 777 1677 
Q 538 1791 414 1992 
Q 291 2194 291 2438 
Q 291 2659 392 2848 
Q 494 3038 669 3163 
Q 800 3259 1026 3326 
Q 1253 3394 1513 3394 
Q 1903 3394 2198 3281 
Q 2494 3169 2634 2976 
Q 2775 2784 2828 2463 
L 2278 2388 
Q 2241 2644 2061 2787 
Q 1881 2931 1553 2931 
Q 1166 2931 1000 2803 
Q 834 2675 834 2503 
Q 834 2394 903 2306 
Q 972 2216 1119 2156 
Q 1203 2125 1616 2013 
Q 2213 1853 2448 1751 
Q 2684 1650 2818 1456 
Q 2953 1263 2953 975 
Q 2953 694 2789 445 
Q 2625 197 2315 61 
Q 2006 -75 1616 -75 
Q 969 -75 630 194 
Q 291 463 197 991 
z
" transform="scale(0.015625)"/>
       <path id="ArialMT-65" d="M 2694 1069 
L 3275 997 
Q 3138 488 2766 206 
Q 2394 -75 1816 -75 
Q 1088 -75 661 373 
Q 234 822 234 1631 
Q 234 2469 665 2931 
Q 1097 3394 1784 3394 
Q 2450 3394 2872 2941 
Q 3294 2488 3294 1666 
Q 3294 1616 3291 1516 
L 816 1516 
Q 847 969 1125 678 
Q 1403 388 1819 388 
Q 2128 388 2347 550 
Q 2566 713 2694 1069 
z
M 847 1978 
L 2700 1978 
Q 2663 2397 2488 2606 
Q 2219 2931 1791 2931 
Q 1403 2931 1139 2672 
Q 875 2413 847 1978 
z
" transform="scale(0.015625)"/>
       <path id="ArialMT-72" d="M 416 0 
L 416 3319 
L 922 3319 
L 922 2816 
Q 1116 3169 1280 3281 
Q 1444 3394 1641 3394 
Q 1925 3394 2219 3213 
L 2025 2691 
Q 1819 2813 1613 2813 
Q 1428 2813 1281 2702 
Q 1134 2591 1072 2394 
Q 978 2094 978 1738 
L 978 0 
L 416 0 
z
" transform="scale(0.015625)"/>
       <path id="ArialMT-76" d="M 1344 0 
L 81 3319 
L 675 3319 
L 1388 1331 
Q 1503 1009 1600 663 
Q 1675 925 1809 1294 
L 2547 3319 
L 3125 3319 
L 1869 0 
L 1344 0 
z
" transform="scale(0.015625)"/>
       <path id="ArialMT-61" d="M 2588 409 
Q 2275 144 1986 34 
Q 1697 -75 1366 -75 
Q 819 -75 525 192 
Q 231 459 231 875 
Q 231 1119 342 1320 
Q 453 1522 633 1644 
Q 813 1766 1038 1828 
Q 1203 1872 1538 1913 
Q 2219 1994 2541 2106 
Q 2544 2222 2544 2253 
Q 2544 2597 2384 2738 
Q 2169 2928 1744 2928 
Q 1347 2928 1158 2789 
Q 969 2650 878 2297 
L 328 2372 
Q 403 2725 575 2942 
Q 747 3159 1072 3276 
Q 1397 3394 1825 3394 
Q 2250 3394 2515 3294 
Q 2781 3194 2906 3042 
Q 3031 2891 3081 2659 
Q 3109 2516 3109 2141 
L 3109 1391 
Q 3109 606 3145 398 
Q 3181 191 3288 0 
L 2700 0 
Q 2613 175 2588 409 
z
M 2541 1666 
Q 2234 1541 1622 1453 
Q 1275 1403 1131 1340 
Q 988 1278 909 1158 
Q 831 1038 831 891 
Q 831 666 1001 516 
Q 1172 366 1500 366 
Q 1825 366 2078 508 
Q 2331 650 2450 897 
Q 2541 1088 2541 1459 
L 2541 1666 
z
" transform="scale(0.015625)"/>
       <path id="ArialMT-74" d="M 1650 503 
L 1731 6 
Q 1494 -44 1306 -44 
Q 1000 -44 831 53 
Q 663 150 594 308 
Q 525 466 525 972 
L 525 2881 
L 113 2881 
L 113 3319 
L 525 3319 
L 525 4141 
L 1084 4478 
L 1084 3319 
L 1650 3319 
L 1650 2881 
L 1084 2881 
L 1084 941 
Q 1084 700 1114 631 
Q 1144 563 1211 522 
Q 1278 481 1403 481 
Q 1497 481 1650 503 
z
" transform="scale(0.015625)"/>
       <path id="ArialMT-69" d="M 425 3934 
L 425 4581 
L 988 4581 
L 988 3934 
L 425 3934 
z
M 425 0 
L 425 3319 
L 988 3319 
L 988 0 
L 425 0 
z
" transform="scale(0.015625)"/>
       <path id="ArialMT-6f" d="M 213 1659 
Q 213 2581 725 3025 
Q 1153 3394 1769 3394 
Q 2453 3394 2887 2945 
Q 3322 2497 3322 1706 
Q 3322 1066 3130 698 
Q 2938 331 2570 128 
Q 2203 -75 1769 -75 
Q 1072 -75 642 372 
Q 213 819 213 1659 
z
M 791 1659 
Q 791 1022 1069 705 
Q 1347 388 1769 388 
Q 2188 388 2466 706 
Q 2744 1025 2744 1678 
Q 2744 2294 2464 2611 
Q 2184 2928 1769 2928 
Q 1347 2928 1069 2612 
Q 791 2297 791 1659 
z
" transform="scale(0.015625)"/>
       <path id="ArialMT-6e" d="M 422 0 
L 422 3319 
L 928 3319 
L 928 2847 
Q 1294 3394 1984 3394 
Q 2284 3394 2536 3286 
Q 2788 3178 2913 3003 
Q 3038 2828 3088 2588 
Q 3119 2431 3119 2041 
L 3119 0 
L 2556 0 
L 2556 2019 
Q 2556 2363 2490 2533 
Q 2425 2703 2258 2804 
Q 2091 2906 1866 2906 
Q 1506 2906 1245 2678 
Q 984 2450 984 1813 
L 984 0 
L 422 0 
z
" transform="scale(0.015625)"/>
      </defs>
      <use xlink:href="#ArialMT-4f"/>
      <use xlink:href="#ArialMT-62" x="77.783203"/>
      <use xlink:href="#ArialMT-73" x="133.398438"/>
      <use xlink:href="#ArialMT-65" x="183.398438"/>
      <use xlink:href="#ArialMT-72" x="239.013672"/>
      <use xlink:href="#ArialMT-76" x="272.314453"/>
      <use xlink:href="#ArialMT-61" x="322.314453"/>
      <use xlink:href="#ArialMT-74" x="377.929688"/>
      <use xlink:href="#ArialMT-69" x="405.712891"/>
      <use xlink:href="#ArialMT-6f" x="427.929688"/>
      <use xlink:href="#ArialMT-6e" x="483.544922"/>
      <use xlink:href="#ArialMT-73" x="539.160156"/>
     </g>
    </g>
    <g id="line2d_19">
     <path d="M 51.1265 232.562625 
L 59.9265 232.562625 
L 68.7265 232.562625 
" style="fill: none; stroke: #1f77b4; stroke-width: 2; stroke-linecap: round"/>
    </g>
    <g id="text_19">
     <!-- $m_n(x)$ -->
     <g style="fill: #262626" transform="translate(75.7665 235.642625) scale(0.088 -0.088)">
      <defs>
       <path id="DejaVuSans-Oblique-6d" d="M 5747 2113 
L 5338 0 
L 4763 0 
L 5166 2094 
Q 5191 2228 5203 2325 
Q 5216 2422 5216 2491 
Q 5216 2772 5059 2928 
Q 4903 3084 4622 3084 
Q 4203 3084 3875 2770 
Q 3547 2456 3450 1953 
L 3066 0 
L 2491 0 
L 2900 2094 
Q 2925 2209 2937 2307 
Q 2950 2406 2950 2484 
Q 2950 2769 2794 2926 
Q 2638 3084 2363 3084 
Q 1938 3084 1609 2770 
Q 1281 2456 1184 1953 
L 800 0 
L 225 0 
L 909 3500 
L 1484 3500 
L 1375 2956 
Q 1609 3263 1923 3423 
Q 2238 3584 2597 3584 
Q 2978 3584 3223 3384 
Q 3469 3184 3519 2828 
Q 3781 3197 4126 3390 
Q 4472 3584 4856 3584 
Q 5306 3584 5551 3325 
Q 5797 3066 5797 2591 
Q 5797 2488 5784 2364 
Q 5772 2241 5747 2113 
z
" transform="scale(0.015625)"/>
       <path id="DejaVuSans-Oblique-6e" d="M 3566 2113 
L 3156 0 
L 2578 0 
L 2988 2091 
Q 3016 2238 3031 2350 
Q 3047 2463 3047 2528 
Q 3047 2791 2881 2937 
Q 2716 3084 2419 3084 
Q 1956 3084 1622 2776 
Q 1288 2469 1184 1941 
L 800 0 
L 225 0 
L 903 3500 
L 1478 3500 
L 1363 2950 
Q 1603 3253 1940 3418 
Q 2278 3584 2650 3584 
Q 3113 3584 3367 3334 
Q 3622 3084 3622 2631 
Q 3622 2519 3608 2391 
Q 3594 2263 3566 2113 
z
" transform="scale(0.015625)"/>
       <path id="DejaVuSans-28" d="M 1984 4856 
Q 1566 4138 1362 3434 
Q 1159 2731 1159 2009 
Q 1159 1288 1364 580 
Q 1569 -128 1984 -844 
L 1484 -844 
Q 1016 -109 783 600 
Q 550 1309 550 2009 
Q 550 2706 781 3412 
Q 1013 4119 1484 4856 
L 1984 4856 
z
" transform="scale(0.015625)"/>
       <path id="DejaVuSans-29" d="M 513 4856 
L 1013 4856 
Q 1481 4119 1714 3412 
Q 1947 2706 1947 2009 
Q 1947 1309 1714 600 
Q 1481 -109 1013 -844 
L 513 -844 
Q 928 -128 1133 580 
Q 1338 1288 1338 2009 
Q 1338 2731 1133 3434 
Q 928 4138 513 4856 
z
" transform="scale(0.015625)"/>
      </defs>
      <use xlink:href="#DejaVuSans-Oblique-6d" transform="translate(0 0.125)"/>
      <use xlink:href="#DejaVuSans-Oblique-6e" transform="translate(97.412109 -16.28125) scale(0.7)"/>
      <use xlink:href="#DejaVuSans-28" transform="translate(144.511719 0.125)"/>
      <use xlink:href="#DejaVuSans-Oblique-78" transform="translate(183.525391 0.125)"/>
      <use xlink:href="#DejaVuSans-29" transform="translate(242.705078 0.125)"/>
     </g>
    </g>
    <g id="patch_5">
     <path d="M 51.1265 249.799625 
L 68.7265 249.799625 
L 68.7265 243.639625 
L 51.1265 243.639625 
z
" style="fill: #1f77b4; fill-opacity: 0.5; stroke: #1f77b4; stroke-opacity: 0.5; stroke-width: 0.8; stroke-linejoin: miter"/>
    </g>
    <g id="text_20">
     <!-- $f(\mathbf{x}^*)$ 95% pred. -->
     <g style="fill: #262626" transform="translate(75.7665 249.799625) scale(0.088 -0.088)">
      <defs>
       <path id="DejaVuSans-Oblique-66" d="M 3059 4863 
L 2969 4384 
L 2419 4384 
Q 2106 4384 1964 4261 
Q 1822 4138 1753 3809 
L 1691 3500 
L 2638 3500 
L 2553 3053 
L 1606 3053 
L 1013 0 
L 434 0 
L 1031 3053 
L 481 3053 
L 563 3500 
L 1113 3500 
L 1159 3744 
Q 1278 4363 1576 4613 
Q 1875 4863 2516 4863 
L 3059 4863 
z
" transform="scale(0.015625)"/>
       <path id="DejaVuSans-Bold-78" d="M 1422 1791 
L 159 3500 
L 1344 3500 
L 2059 2463 
L 2784 3500 
L 3969 3500 
L 2706 1797 
L 4031 0 
L 2847 0 
L 2059 1106 
L 1281 0 
L 97 0 
L 1422 1791 
z
" transform="scale(0.015625)"/>
       <path id="DejaVuSans-2a" d="M 3009 3897 
L 1888 3291 
L 3009 2681 
L 2828 2375 
L 1778 3009 
L 1778 1831 
L 1422 1831 
L 1422 3009 
L 372 2375 
L 191 2681 
L 1313 3291 
L 191 3897 
L 372 4206 
L 1422 3572 
L 1422 4750 
L 1778 4750 
L 1778 3572 
L 2828 4206 
L 3009 3897 
z
" transform="scale(0.015625)"/>
       <path id="ArialMT-39" d="M 350 1059 
L 891 1109 
Q 959 728 1153 556 
Q 1347 384 1650 384 
Q 1909 384 2104 503 
Q 2300 622 2425 820 
Q 2550 1019 2634 1356 
Q 2719 1694 2719 2044 
Q 2719 2081 2716 2156 
Q 2547 1888 2255 1720 
Q 1963 1553 1622 1553 
Q 1053 1553 659 1965 
Q 266 2378 266 3053 
Q 266 3750 677 4175 
Q 1088 4600 1706 4600 
Q 2153 4600 2523 4359 
Q 2894 4119 3086 3673 
Q 3278 3228 3278 2384 
Q 3278 1506 3087 986 
Q 2897 466 2520 194 
Q 2144 -78 1638 -78 
Q 1100 -78 759 220 
Q 419 519 350 1059 
z
M 2653 3081 
Q 2653 3566 2395 3850 
Q 2138 4134 1775 4134 
Q 1400 4134 1122 3828 
Q 844 3522 844 3034 
Q 844 2597 1108 2323 
Q 1372 2050 1759 2050 
Q 2150 2050 2401 2323 
Q 2653 2597 2653 3081 
z
" transform="scale(0.015625)"/>
       <path id="ArialMT-35" d="M 266 1200 
L 856 1250 
Q 922 819 1161 601 
Q 1400 384 1738 384 
Q 2144 384 2425 690 
Q 2706 997 2706 1503 
Q 2706 1984 2436 2262 
Q 2166 2541 1728 2541 
Q 1456 2541 1237 2417 
Q 1019 2294 894 2097 
L 366 2166 
L 809 4519 
L 3088 4519 
L 3088 3981 
L 1259 3981 
L 1013 2750 
Q 1425 3038 1878 3038 
Q 2478 3038 2890 2622 
Q 3303 2206 3303 1553 
Q 3303 931 2941 478 
Q 2500 -78 1738 -78 
Q 1113 -78 717 272 
Q 322 622 266 1200 
z
" transform="scale(0.015625)"/>
       <path id="ArialMT-25" d="M 372 3481 
Q 372 3972 619 4315 
Q 866 4659 1334 4659 
Q 1766 4659 2048 4351 
Q 2331 4044 2331 3447 
Q 2331 2866 2045 2552 
Q 1759 2238 1341 2238 
Q 925 2238 648 2547 
Q 372 2856 372 3481 
z
M 1350 4272 
Q 1141 4272 1002 4090 
Q 863 3909 863 3425 
Q 863 2984 1003 2804 
Q 1144 2625 1350 2625 
Q 1563 2625 1702 2806 
Q 1841 2988 1841 3469 
Q 1841 3913 1700 4092 
Q 1559 4272 1350 4272 
z
M 1353 -169 
L 3859 4659 
L 4316 4659 
L 1819 -169 
L 1353 -169 
z
M 3334 1075 
Q 3334 1569 3581 1911 
Q 3828 2253 4300 2253 
Q 4731 2253 5014 1945 
Q 5297 1638 5297 1041 
Q 5297 459 5011 145 
Q 4725 -169 4303 -169 
Q 3888 -169 3611 142 
Q 3334 453 3334 1075 
z
M 4316 1866 
Q 4103 1866 3964 1684 
Q 3825 1503 3825 1019 
Q 3825 581 3965 400 
Q 4106 219 4313 219 
Q 4528 219 4667 400 
Q 4806 581 4806 1063 
Q 4806 1506 4665 1686 
Q 4525 1866 4316 1866 
z
" transform="scale(0.015625)"/>
       <path id="ArialMT-70" d="M 422 -1272 
L 422 3319 
L 934 3319 
L 934 2888 
Q 1116 3141 1344 3267 
Q 1572 3394 1897 3394 
Q 2322 3394 2647 3175 
Q 2972 2956 3137 2557 
Q 3303 2159 3303 1684 
Q 3303 1175 3120 767 
Q 2938 359 2589 142 
Q 2241 -75 1856 -75 
Q 1575 -75 1351 44 
Q 1128 163 984 344 
L 984 -1272 
L 422 -1272 
z
M 931 1641 
Q 931 1000 1190 694 
Q 1450 388 1819 388 
Q 2194 388 2461 705 
Q 2728 1022 2728 1688 
Q 2728 2322 2467 2637 
Q 2206 2953 1844 2953 
Q 1484 2953 1207 2617 
Q 931 2281 931 1641 
z
" transform="scale(0.015625)"/>
       <path id="ArialMT-64" d="M 2575 0 
L 2575 419 
Q 2259 -75 1647 -75 
Q 1250 -75 917 144 
Q 584 363 401 755 
Q 219 1147 219 1656 
Q 219 2153 384 2558 
Q 550 2963 881 3178 
Q 1213 3394 1622 3394 
Q 1922 3394 2156 3267 
Q 2391 3141 2538 2938 
L 2538 4581 
L 3097 4581 
L 3097 0 
L 2575 0 
z
M 797 1656 
Q 797 1019 1065 703 
Q 1334 388 1700 388 
Q 2069 388 2326 689 
Q 2584 991 2584 1609 
Q 2584 2291 2321 2609 
Q 2059 2928 1675 2928 
Q 1300 2928 1048 2622 
Q 797 2316 797 1656 
z
" transform="scale(0.015625)"/>
      </defs>
      <use xlink:href="#DejaVuSans-Oblique-66" transform="translate(0 0.765625)"/>
      <use xlink:href="#DejaVuSans-28" transform="translate(35.205078 0.765625)"/>
      <use xlink:href="#DejaVuSans-Bold-78" transform="translate(74.21875 0.765625)"/>
      <use xlink:href="#DejaVuSans-2a" transform="translate(153.31543 39.046875) scale(0.7)"/>
      <use xlink:href="#DejaVuSans-29" transform="translate(204.6875 0.765625)"/>
      <use xlink:href="#ArialMT-20" transform="translate(243.701172 0.765625)"/>
      <use xlink:href="#ArialMT-39" transform="translate(271.484375 0.765625)"/>
      <use xlink:href="#ArialMT-35" transform="translate(327.099609 0.765625)"/>
      <use xlink:href="#ArialMT-25" transform="translate(382.714844 0.765625)"/>
      <use xlink:href="#ArialMT-20" transform="translate(471.630859 0.765625)"/>
      <use xlink:href="#ArialMT-70" transform="translate(499.414062 0.765625)"/>
      <use xlink:href="#ArialMT-72" transform="translate(555.029297 0.765625)"/>
      <use xlink:href="#ArialMT-65" transform="translate(588.330078 0.765625)"/>
      <use xlink:href="#ArialMT-64" transform="translate(643.945312 0.765625)"/>
      <use xlink:href="#ArialMT-2e" transform="translate(699.560547 0.765625)"/>
     </g>
    </g>
    <g id="patch_6">
     <path d="M 51.1265 263.967625 
L 68.7265 263.967625 
L 68.7265 257.807625 
L 51.1265 257.807625 
z
" style="fill: #ff7f0e; fill-opacity: 0.5; stroke: #ff7f0e; stroke-opacity: 0.5; stroke-width: 0.8; stroke-linejoin: miter"/>
    </g>
    <g id="text_21">
     <!-- $y^*$ 95% pred. -->
     <g style="fill: #262626" transform="translate(75.7665 263.967625) scale(0.088 -0.088)">
      <use xlink:href="#DejaVuSans-Oblique-79" transform="translate(0 0.765625)"/>
      <use xlink:href="#DejaVuSans-2a" transform="translate(77.283529 39.046875) scale(0.7)"/>
      <use xlink:href="#ArialMT-20" transform="translate(128.655599 0.765625)"/>
      <use xlink:href="#ArialMT-39" transform="translate(156.438802 0.765625)"/>
      <use xlink:href="#ArialMT-35" transform="translate(212.054036 0.765625)"/>
      <use xlink:href="#ArialMT-25" transform="translate(267.669271 0.765625)"/>
      <use xlink:href="#ArialMT-20" transform="translate(356.585286 0.765625)"/>
      <use xlink:href="#ArialMT-70" transform="translate(384.36849 0.765625)"/>
      <use xlink:href="#ArialMT-72" transform="translate(439.983724 0.765625)"/>
      <use xlink:href="#ArialMT-65" transform="translate(473.284505 0.765625)"/>
      <use xlink:href="#ArialMT-64" transform="translate(528.89974 0.765625)"/>
      <use xlink:href="#ArialMT-2e" transform="translate(584.514974 0.765625)"/>
     </g>
    </g>
    <g id="line2d_20">
     <path d="M 51.1265 273.4345 
L 59.9265 273.4345 
L 68.7265 273.4345 
" style="fill: none; stroke-dasharray: 7.68,1.92,1.2,1.92; stroke-dashoffset: 0; stroke: #bf00bf; stroke-width: 1.2"/>
    </g>
    <g id="text_22">
     <!-- True function -->
     <g style="fill: #262626" transform="translate(75.7665 276.5145) scale(0.088 -0.088)">
      <defs>
       <path id="ArialMT-54" d="M 1659 0 
L 1659 4041 
L 150 4041 
L 150 4581 
L 3781 4581 
L 3781 4041 
L 2266 4041 
L 2266 0 
L 1659 0 
z
" transform="scale(0.015625)"/>
       <path id="ArialMT-75" d="M 2597 0 
L 2597 488 
Q 2209 -75 1544 -75 
Q 1250 -75 995 37 
Q 741 150 617 320 
Q 494 491 444 738 
Q 409 903 409 1263 
L 409 3319 
L 972 3319 
L 972 1478 
Q 972 1038 1006 884 
Q 1059 663 1231 536 
Q 1403 409 1656 409 
Q 1909 409 2131 539 
Q 2353 669 2445 892 
Q 2538 1116 2538 1541 
L 2538 3319 
L 3100 3319 
L 3100 0 
L 2597 0 
z
" transform="scale(0.015625)"/>
       <path id="ArialMT-66" d="M 556 0 
L 556 2881 
L 59 2881 
L 59 3319 
L 556 3319 
L 556 3672 
Q 556 4006 616 4169 
Q 697 4388 901 4523 
Q 1106 4659 1475 4659 
Q 1713 4659 2000 4603 
L 1916 4113 
Q 1741 4144 1584 4144 
Q 1328 4144 1222 4034 
Q 1116 3925 1116 3625 
L 1116 3319 
L 1763 3319 
L 1763 2881 
L 1116 2881 
L 1116 0 
L 556 0 
z
" transform="scale(0.015625)"/>
       <path id="ArialMT-63" d="M 2588 1216 
L 3141 1144 
Q 3050 572 2676 248 
Q 2303 -75 1759 -75 
Q 1078 -75 664 370 
Q 250 816 250 1647 
Q 250 2184 428 2587 
Q 606 2991 970 3192 
Q 1334 3394 1763 3394 
Q 2303 3394 2647 3120 
Q 2991 2847 3088 2344 
L 2541 2259 
Q 2463 2594 2264 2762 
Q 2066 2931 1784 2931 
Q 1359 2931 1093 2626 
Q 828 2322 828 1663 
Q 828 994 1084 691 
Q 1341 388 1753 388 
Q 2084 388 2306 591 
Q 2528 794 2588 1216 
z
" transform="scale(0.015625)"/>
      </defs>
      <use xlink:href="#ArialMT-54"/>
      <use xlink:href="#ArialMT-72" x="57.333984"/>
      <use xlink:href="#ArialMT-75" x="90.634766"/>
      <use xlink:href="#ArialMT-65" x="146.25"/>
      <use xlink:href="#ArialMT-20" x="201.865234"/>
      <use xlink:href="#ArialMT-66" x="229.648438"/>
      <use xlink:href="#ArialMT-75" x="257.431641"/>
      <use xlink:href="#ArialMT-6e" x="313.046875"/>
      <use xlink:href="#ArialMT-63" x="368.662109"/>
      <use xlink:href="#ArialMT-74" x="418.662109"/>
      <use xlink:href="#ArialMT-69" x="446.445312"/>
      <use xlink:href="#ArialMT-6f" x="468.662109"/>
      <use xlink:href="#ArialMT-6e" x="524.277344"/>
     </g>
    </g>
   </g>
  </g>
  <g id="axes_2">
   <g id="matplotlib.axis_3">
    <g id="ytick_9">
     <g id="line2d_21">
      <defs>
       <path id="mba2a2a7497" d="M 0 0 
L 4.8 0 
" style="stroke: #262626"/>
      </defs>
      <g>
       <use xlink:href="#mba2a2a7497" x="400.3265" y="274.0875" style="fill: #262626; stroke: #262626"/>
      </g>
     </g>
     <g id="text_23">
      <!-- 0.0 -->
      <g style="fill: #ff7f0e" transform="translate(408.6265 277.236937) scale(0.088 -0.088)">
       <use xlink:href="#ArialMT-30"/>
       <use xlink:href="#ArialMT-2e" x="55.615234"/>
       <use xlink:href="#ArialMT-30" x="83.398438"/>
      </g>
     </g>
    </g>
    <g id="ytick_10">
     <g id="line2d_22">
      <g>
       <use xlink:href="#mba2a2a7497" x="400.3265" y="239.098119" style="fill: #262626; stroke: #262626"/>
      </g>
     </g>
     <g id="text_24">
      <!-- 0.1 -->
      <g style="fill: #ff7f0e" transform="translate(408.6265 242.247556) scale(0.088 -0.088)">
       <use xlink:href="#ArialMT-30"/>
       <use xlink:href="#ArialMT-2e" x="55.615234"/>
       <use xlink:href="#ArialMT-31" x="83.398438"/>
      </g>
     </g>
    </g>
    <g id="ytick_11">
     <g id="line2d_23">
      <g>
       <use xlink:href="#mba2a2a7497" x="400.3265" y="204.108737" style="fill: #262626; stroke: #262626"/>
      </g>
     </g>
     <g id="text_25">
      <!-- 0.2 -->
      <g style="fill: #ff7f0e" transform="translate(408.6265 207.258175) scale(0.088 -0.088)">
       <use xlink:href="#ArialMT-30"/>
       <use xlink:href="#ArialMT-2e" x="55.615234"/>
       <use xlink:href="#ArialMT-32" x="83.398438"/>
      </g>
     </g>
    </g>
    <g id="ytick_12">
     <g id="line2d_24">
      <g>
       <use xlink:href="#mba2a2a7497" x="400.3265" y="169.119356" style="fill: #262626; stroke: #262626"/>
      </g>
     </g>
     <g id="text_26">
      <!-- 0.3 -->
      <g style="fill: #ff7f0e" transform="translate(408.6265 172.268793) scale(0.088 -0.088)">
       <defs>
        <path id="ArialMT-33" d="M 269 1209 
L 831 1284 
Q 928 806 1161 595 
Q 1394 384 1728 384 
Q 2125 384 2398 659 
Q 2672 934 2672 1341 
Q 2672 1728 2419 1979 
Q 2166 2231 1775 2231 
Q 1616 2231 1378 2169 
L 1441 2663 
Q 1497 2656 1531 2656 
Q 1891 2656 2178 2843 
Q 2466 3031 2466 3422 
Q 2466 3731 2256 3934 
Q 2047 4138 1716 4138 
Q 1388 4138 1169 3931 
Q 950 3725 888 3313 
L 325 3413 
Q 428 3978 793 4289 
Q 1159 4600 1703 4600 
Q 2078 4600 2393 4439 
Q 2709 4278 2876 4000 
Q 3044 3722 3044 3409 
Q 3044 3113 2884 2869 
Q 2725 2625 2413 2481 
Q 2819 2388 3044 2092 
Q 3269 1797 3269 1353 
Q 3269 753 2831 336 
Q 2394 -81 1725 -81 
Q 1122 -81 723 278 
Q 325 638 269 1209 
z
" transform="scale(0.015625)"/>
       </defs>
       <use xlink:href="#ArialMT-30"/>
       <use xlink:href="#ArialMT-2e" x="55.615234"/>
       <use xlink:href="#ArialMT-33" x="83.398438"/>
      </g>
     </g>
    </g>
    <g id="ytick_13">
     <g id="line2d_25">
      <g>
       <use xlink:href="#mba2a2a7497" x="400.3265" y="134.129975" style="fill: #262626; stroke: #262626"/>
      </g>
     </g>
     <g id="text_27">
      <!-- 0.4 -->
      <g style="fill: #ff7f0e" transform="translate(408.6265 137.279412) scale(0.088 -0.088)">
       <use xlink:href="#ArialMT-30"/>
       <use xlink:href="#ArialMT-2e" x="55.615234"/>
       <use xlink:href="#ArialMT-34" x="83.398438"/>
      </g>
     </g>
    </g>
    <g id="ytick_14">
     <g id="line2d_26">
      <g>
       <use xlink:href="#mba2a2a7497" x="400.3265" y="99.140593" style="fill: #262626; stroke: #262626"/>
      </g>
     </g>
     <g id="text_28">
      <!-- 0.5 -->
      <g style="fill: #ff7f0e" transform="translate(408.6265 102.290031) scale(0.088 -0.088)">
       <use xlink:href="#ArialMT-30"/>
       <use xlink:href="#ArialMT-2e" x="55.615234"/>
       <use xlink:href="#ArialMT-35" x="83.398438"/>
      </g>
     </g>
    </g>
    <g id="ytick_15">
     <g id="line2d_27">
      <g>
       <use xlink:href="#mba2a2a7497" x="400.3265" y="64.151212" style="fill: #262626; stroke: #262626"/>
      </g>
     </g>
     <g id="text_29">
      <!-- 0.6 -->
      <g style="fill: #ff7f0e" transform="translate(408.6265 67.300649) scale(0.088 -0.088)">
       <use xlink:href="#ArialMT-30"/>
       <use xlink:href="#ArialMT-2e" x="55.615234"/>
       <use xlink:href="#ArialMT-36" x="83.398438"/>
      </g>
     </g>
    </g>
    <g id="ytick_16">
     <g id="line2d_28">
      <g>
       <use xlink:href="#mba2a2a7497" x="400.3265" y="29.161831" style="fill: #262626; stroke: #262626"/>
      </g>
     </g>
     <g id="text_30">
      <!-- 0.7 -->
      <g style="fill: #ff7f0e" transform="translate(408.6265 32.311268) scale(0.088 -0.088)">
       <defs>
        <path id="ArialMT-37" d="M 303 3981 
L 303 4522 
L 3269 4522 
L 3269 4084 
Q 2831 3619 2401 2847 
Q 1972 2075 1738 1259 
Q 1569 684 1522 0 
L 944 0 
Q 953 541 1156 1306 
Q 1359 2072 1739 2783 
Q 2119 3494 2547 3981 
L 303 3981 
z
" transform="scale(0.015625)"/>
       </defs>
       <use xlink:href="#ArialMT-30"/>
       <use xlink:href="#ArialMT-2e" x="55.615234"/>
       <use xlink:href="#ArialMT-37" x="83.398438"/>
      </g>
     </g>
    </g>
    <g id="text_31">
     <!-- Information Acquisition Function -->
     <g style="fill: #ff7f0e" transform="translate(431.847 221.16075) rotate(-90) scale(0.096 -0.096)">
      <defs>
       <path id="ArialMT-49" d="M 597 0 
L 597 4581 
L 1203 4581 
L 1203 0 
L 597 0 
z
" transform="scale(0.015625)"/>
       <path id="ArialMT-6d" d="M 422 0 
L 422 3319 
L 925 3319 
L 925 2853 
Q 1081 3097 1340 3245 
Q 1600 3394 1931 3394 
Q 2300 3394 2536 3241 
Q 2772 3088 2869 2813 
Q 3263 3394 3894 3394 
Q 4388 3394 4653 3120 
Q 4919 2847 4919 2278 
L 4919 0 
L 4359 0 
L 4359 2091 
Q 4359 2428 4304 2576 
Q 4250 2725 4106 2815 
Q 3963 2906 3769 2906 
Q 3419 2906 3187 2673 
Q 2956 2441 2956 1928 
L 2956 0 
L 2394 0 
L 2394 2156 
Q 2394 2531 2256 2718 
Q 2119 2906 1806 2906 
Q 1569 2906 1367 2781 
Q 1166 2656 1075 2415 
Q 984 2175 984 1722 
L 984 0 
L 422 0 
z
" transform="scale(0.015625)"/>
       <path id="ArialMT-41" d="M -9 0 
L 1750 4581 
L 2403 4581 
L 4278 0 
L 3588 0 
L 3053 1388 
L 1138 1388 
L 634 0 
L -9 0 
z
M 1313 1881 
L 2866 1881 
L 2388 3150 
Q 2169 3728 2063 4100 
Q 1975 3659 1816 3225 
L 1313 1881 
z
" transform="scale(0.015625)"/>
       <path id="ArialMT-71" d="M 2538 -1272 
L 2538 353 
Q 2406 169 2170 47 
Q 1934 -75 1669 -75 
Q 1078 -75 651 397 
Q 225 869 225 1691 
Q 225 2191 398 2587 
Q 572 2984 901 3189 
Q 1231 3394 1625 3394 
Q 2241 3394 2594 2875 
L 2594 3319 
L 3100 3319 
L 3100 -1272 
L 2538 -1272 
z
M 803 1669 
Q 803 1028 1072 708 
Q 1341 388 1716 388 
Q 2075 388 2334 692 
Q 2594 997 2594 1619 
Q 2594 2281 2320 2615 
Q 2047 2950 1678 2950 
Q 1313 2950 1058 2639 
Q 803 2328 803 1669 
z
" transform="scale(0.015625)"/>
       <path id="ArialMT-46" d="M 525 0 
L 525 4581 
L 3616 4581 
L 3616 4041 
L 1131 4041 
L 1131 2622 
L 3281 2622 
L 3281 2081 
L 1131 2081 
L 1131 0 
L 525 0 
z
" transform="scale(0.015625)"/>
      </defs>
      <use xlink:href="#ArialMT-49"/>
      <use xlink:href="#ArialMT-6e" x="27.783203"/>
      <use xlink:href="#ArialMT-66" x="83.398438"/>
      <use xlink:href="#ArialMT-6f" x="111.181641"/>
      <use xlink:href="#ArialMT-72" x="166.796875"/>
      <use xlink:href="#ArialMT-6d" x="200.097656"/>
      <use xlink:href="#ArialMT-61" x="283.398438"/>
      <use xlink:href="#ArialMT-74" x="339.013672"/>
      <use xlink:href="#ArialMT-69" x="366.796875"/>
      <use xlink:href="#ArialMT-6f" x="389.013672"/>
      <use xlink:href="#ArialMT-6e" x="444.628906"/>
      <use xlink:href="#ArialMT-20" x="500.244141"/>
      <use xlink:href="#ArialMT-41" x="522.527344"/>
      <use xlink:href="#ArialMT-63" x="589.226562"/>
      <use xlink:href="#ArialMT-71" x="639.226562"/>
      <use xlink:href="#ArialMT-75" x="694.841797"/>
      <use xlink:href="#ArialMT-69" x="750.457031"/>
      <use xlink:href="#ArialMT-73" x="772.673828"/>
      <use xlink:href="#ArialMT-69" x="822.673828"/>
      <use xlink:href="#ArialMT-74" x="844.890625"/>
      <use xlink:href="#ArialMT-69" x="872.673828"/>
      <use xlink:href="#ArialMT-6f" x="894.890625"/>
      <use xlink:href="#ArialMT-6e" x="950.505859"/>
      <use xlink:href="#ArialMT-20" x="1006.121094"/>
      <use xlink:href="#ArialMT-46" x="1033.904297"/>
      <use xlink:href="#ArialMT-75" x="1094.988281"/>
      <use xlink:href="#ArialMT-6e" x="1150.603516"/>
      <use xlink:href="#ArialMT-63" x="1206.21875"/>
      <use xlink:href="#ArialMT-74" x="1256.21875"/>
      <use xlink:href="#ArialMT-69" x="1284.001953"/>
      <use xlink:href="#ArialMT-6f" x="1306.21875"/>
      <use xlink:href="#ArialMT-6e" x="1361.833984"/>
     </g>
    </g>
   </g>
   <g id="line2d_29">
    <path d="M 59.439227 32.1675 
L 62.718566 43.006269 
L 65.997905 54.779709 
L 69.277244 67.469594 
L 72.556583 81.038092 
L 75.835921 95.425973 
L 79.115261 110.551485 
L 82.394598 126.30982 
L 85.673938 142.571936 
L 88.953278 159.185776 
L 92.232615 175.974227 
L 95.511955 192.735457 
L 98.791295 209.238847 
L 102.070632 225.215365 
L 105.349969 240.334402 
L 108.629311 254.12571 
L 111.908649 265.739176 
L 115.187986 273.097984 
L 118.467328 274.0875 
L 121.746666 274.056716 
L 125.026003 271.717902 
L 128.305345 266.899238 
L 131.584682 261.934149 
L 134.86402 257.782441 
L 138.143362 254.853251 
L 141.422694 253.35165 
L 144.702037 253.381246 
L 147.981379 254.984377 
L 151.260711 258.151993 
L 154.540053 262.812154 
L 157.819395 268.721421 
L 161.098728 273.996509 
L 164.37807 271.570694 
L 167.657412 260.723675 
L 170.936745 248.916638 
L 174.216087 237.348497 
L 177.495429 226.557529 
L 180.774762 217.00282 
L 184.054104 209.113554 
L 187.333446 203.287262 
L 190.612778 199.873036 
L 193.892121 199.143669 
L 197.171463 201.260648 
L 200.450795 206.229141 
L 203.730137 213.84513 
L 207.00948 223.639946 
L 210.288812 234.837551 
L 213.568154 246.35592 
L 216.847496 256.904738 
L 220.126829 265.246004 
L 223.406181 270.62635 
L 226.685504 273.196542 
L 229.964846 273.970416 
L 233.244188 274.082538 
L 236.523511 274.087487 
L 239.802872 274.0875 
L 243.082195 274.0875 
L 246.361537 274.0875 
L 249.640879 274.0875 
L 252.920222 274.0875 
L 256.199564 274.0875 
L 259.478887 274.0875 
L 262.758248 274.0875 
L 266.037571 274.0875 
L 269.316913 274.0875 
L 272.596255 274.0875 
L 275.875578 274.0875 
L 279.15494 274.0875 
L 282.434262 274.0875 
L 285.713605 274.0875 
L 288.992947 274.0875 
L 292.272289 274.0875 
L 295.551631 274.0875 
L 298.830954 274.0875 
L 302.110315 274.0875 
L 305.389638 274.0875 
L 308.66898 274.0875 
L 311.948322 274.0875 
L 315.227645 274.0875 
L 318.507007 274.0875 
L 321.78633 274.0875 
L 325.065672 274.0875 
L 328.345014 274.0875 
L 331.624356 274.0875 
L 334.903698 274.0875 
L 338.183021 274.0875 
L 341.462363 274.0875 
L 344.741705 274.0875 
L 348.021048 274.0875 
L 351.30039 274.0875 
L 354.579713 274.0875 
L 357.859055 274.0875 
L 361.138397 274.087497 
L 364.417739 252.376719 
L 367.697081 270.411475 
L 370.976423 274.0875 
L 374.255766 274.0875 
L 377.535088 274.0875 
L 380.814431 274.0875 
L 384.093773 274.0875 
" clip-path="url(#pa816e64d3d)" style="fill: none; stroke: #ff7f0e; stroke-width: 1.2; stroke-linecap: round"/>
   </g>
   <g id="line2d_30">
    <path d="M 59.439227 274.0875 
L 59.439227 271.643864 
L 59.439227 269.200227 
L 59.439227 266.756591 
L 59.439227 264.312954 
L 59.439227 261.869318 
L 59.439227 259.425682 
L 59.439227 256.982044 
L 59.439227 254.538409 
L 59.439227 252.094771 
L 59.439227 249.651135 
L 59.439227 247.207499 
L 59.439227 244.763863 
L 59.439227 242.320228 
L 59.439227 239.876589 
L 59.439227 237.432953 
L 59.439227 234.989317 
L 59.439227 232.545681 
L 59.439227 230.102043 
L 59.439227 227.658407 
L 59.439227 225.214771 
L 59.439227 222.771135 
L 59.439227 220.327499 
L 59.439227 217.883863 
L 59.439227 215.440227 
L 59.439227 212.996591 
L 59.439227 210.552955 
L 59.439227 208.109314 
L 59.439227 205.665678 
L 59.439227 203.222042 
L 59.439227 200.778406 
L 59.439227 198.33477 
L 59.439227 195.891134 
L 59.439227 193.447498 
L 59.439227 191.003862 
L 59.439227 188.560226 
L 59.439227 186.116585 
L 59.439227 183.672949 
L 59.439227 181.229313 
L 59.439227 178.785677 
L 59.439227 176.342041 
L 59.439227 173.898406 
L 59.439227 171.45477 
L 59.439227 169.011134 
L 59.439227 166.567498 
L 59.439227 164.123862 
L 59.439227 161.680226 
L 59.439227 159.23659 
L 59.439227 156.792954 
L 59.439227 154.349318 
L 59.439227 151.905682 
L 59.439227 149.462046 
L 59.439227 147.01841 
L 59.439227 144.574774 
L 59.439227 142.131138 
L 59.439227 139.687502 
L 59.439227 137.243866 
L 59.439227 134.80023 
L 59.439227 132.356594 
L 59.439227 129.912959 
L 59.439227 127.469323 
L 59.439227 125.025687 
L 59.439227 122.582051 
L 59.439227 120.138415 
L 59.439227 117.694779 
L 59.439227 115.251143 
L 59.439227 112.807507 
L 59.439227 110.363871 
L 59.439227 107.920235 
L 59.439227 105.476599 
L 59.439227 103.032963 
L 59.439227 100.589327 
L 59.439227 98.145691 
L 59.439227 95.702055 
L 59.439227 93.258399 
L 59.439227 90.814783 
L 59.439227 88.371127 
L 59.439227 85.927512 
L 59.439227 83.483855 
L 59.439227 81.04024 
L 59.439227 78.596583 
L 59.439227 76.152968 
L 59.439227 73.709311 
L 59.439227 71.265675 
L 59.439227 68.822039 
L 59.439227 66.378403 
L 59.439227 63.934767 
L 59.439227 61.491131 
L 59.439227 59.047495 
L 59.439227 56.603859 
L 59.439227 54.160223 
L 59.439227 51.716588 
L 59.439227 49.272952 
L 59.439227 46.829316 
L 59.439227 44.38568 
L 59.439227 41.942044 
L 59.439227 39.498408 
L 59.439227 37.054772 
L 59.439227 34.611136 
L 59.439227 32.1675 
" clip-path="url(#pa816e64d3d)" style="fill: none; stroke: #ff7f0e; stroke-linecap: round"/>
   </g>
   <g id="patch_7">
    <path d="M 43.2065 286.1835 
L 43.2065 20.0715 
" style="fill: none; stroke: #262626; stroke-linejoin: miter; stroke-linecap: square"/>
   </g>
   <g id="patch_8">
    <path d="M 400.3265 286.1835 
L 400.3265 20.0715 
" style="fill: none; stroke: #262626; stroke-linejoin: miter; stroke-linecap: square"/>
   </g>
   <g id="patch_9">
    <path d="M 43.2065 286.1835 
L 400.3265 286.1835 
" style="fill: none; stroke: #262626; stroke-linejoin: miter; stroke-linecap: square"/>
   </g>
   <g id="patch_10">
    <path d="M 43.2065 20.0715 
L 400.3265 20.0715 
" style="fill: none; stroke: #262626; stroke-linejoin: miter; stroke-linecap: square"/>
   </g>
  </g>
 </g>
 <defs>
  <clipPath id="pa816e64d3d">
   <rect x="43.2065" y="20.0715" width="357.12" height="266.112"/>
  </clipPath>
 </defs>
</svg>