<?xml version="1.0" encoding="utf-8" standalone="no"?>
<!DOCTYPE svg PUBLIC "-//W3C//DTD SVG 1.1//EN"
  "http://www.w3.org/Graphics/SVG/1.1/DTD/svg11.dtd">
<svg xmlns:xlink="http://www.w3.org/1999/xlink" width="402.632875pt" height="309.639375pt" viewBox="0 0 402.632875 309.639375" xmlns="http://www.w3.org/2000/svg" version="1.1">
 <metadata>
  <rdf:RDF xmlns:dc="http://purl.org/dc/elements/1.1/" xmlns:cc="http://creativecommons.org/ns#" xmlns:rdf="http://www.w3.org/1999/02/22-rdf-syntax-ns#">
   <cc:Work>
    <dc:type rdf:resource="http://purl.org/dc/dcmitype/StillImage"/>
    <dc:date>2023-10-15T00:00:28.562695</dc:date>
    <dc:format>image/svg+xml</dc:format>
    <dc:creator>
     <cc:Agent>
      <dc:title>Matplotlib v3.7.1, https://matplotlib.org/</dc:title>
     </cc:Agent>
    </dc:creator>
   </cc:Work>
  </rdf:RDF>
 </metadata>
 <defs>
  <style type="text/css">*{stroke-linejoin: round; stroke-linecap: butt}</style>
 </defs>
 <g id="figure_1">
  <g id="patch_1">
   <path d="M 0 309.639375 
L 402.632875 309.639375 
L 402.632875 0 
L 0 0 
z
" style="fill: #ffffff"/>
  </g>
  <g id="axes_1">
   <g id="patch_2">
    <path d="M 38.312875 273.312 
L 395.432875 273.312 
L 395.432875 7.2 
L 38.312875 7.2 
z
" style="fill: #ffffff"/>
   </g>
   <g id="matplotlib.axis_1">
    <g id="xtick_1">
     <g id="line2d_1">
      <defs>
       <path id="mf59e9eb841" d="M 0 0 
L 0 4.8 
" style="stroke: #262626"/>
      </defs>
      <g>
       <use xlink:href="#mf59e9eb841" x="54.545602" y="273.312" style="fill: #262626; stroke: #262626"/>
      </g>
     </g>
     <g id="text_1">
      <!-- 0.0 -->
      <g style="fill: #262626" transform="translate(48.429602 287.910875) scale(0.088 -0.088)">
       <defs>
        <path id="ArialMT-30" d="M 266 2259 
Q 266 3072 433 3567 
Q 600 4063 929 4331 
Q 1259 4600 1759 4600 
Q 2128 4600 2406 4451 
Q 2684 4303 2865 4023 
Q 3047 3744 3150 3342 
Q 3253 2941 3253 2259 
Q 3253 1453 3087 958 
Q 2922 463 2592 192 
Q 2263 -78 1759 -78 
Q 1097 -78 719 397 
Q 266 969 266 2259 
z
M 844 2259 
Q 844 1131 1108 757 
Q 1372 384 1759 384 
Q 2147 384 2411 759 
Q 2675 1134 2675 2259 
Q 2675 3391 2411 3762 
Q 2147 4134 1753 4134 
Q 1366 4134 1134 3806 
Q 844 3388 844 2259 
z
" transform="scale(0.015625)"/>
        <path id="ArialMT-2e" d="M 581 0 
L 581 641 
L 1222 641 
L 1222 0 
L 581 0 
z
" transform="scale(0.015625)"/>
       </defs>
       <use xlink:href="#ArialMT-30"/>
       <use xlink:href="#ArialMT-2e" x="55.615234"/>
       <use xlink:href="#ArialMT-30" x="83.398438"/>
      </g>
     </g>
    </g>
    <g id="xtick_2">
     <g id="line2d_2">
      <g>
       <use xlink:href="#mf59e9eb841" x="119.476511" y="273.312" style="fill: #262626; stroke: #262626"/>
      </g>
     </g>
     <g id="text_2">
      <!-- 0.2 -->
      <g style="fill: #262626" transform="translate(113.360511 287.910875) scale(0.088 -0.088)">
       <defs>
        <path id="ArialMT-32" d="M 3222 541 
L 3222 0 
L 194 0 
Q 188 203 259 391 
Q 375 700 629 1000 
Q 884 1300 1366 1694 
Q 2113 2306 2375 2664 
Q 2638 3022 2638 3341 
Q 2638 3675 2398 3904 
Q 2159 4134 1775 4134 
Q 1369 4134 1125 3890 
Q 881 3647 878 3216 
L 300 3275 
Q 359 3922 746 4261 
Q 1134 4600 1788 4600 
Q 2447 4600 2831 4234 
Q 3216 3869 3216 3328 
Q 3216 3053 3103 2787 
Q 2991 2522 2730 2228 
Q 2469 1934 1863 1422 
Q 1356 997 1212 845 
Q 1069 694 975 541 
L 3222 541 
z
" transform="scale(0.015625)"/>
       </defs>
       <use xlink:href="#ArialMT-30"/>
       <use xlink:href="#ArialMT-2e" x="55.615234"/>
       <use xlink:href="#ArialMT-32" x="83.398438"/>
      </g>
     </g>
    </g>
    <g id="xtick_3">
     <g id="line2d_3">
      <g>
       <use xlink:href="#mf59e9eb841" x="184.40742" y="273.312" style="fill: #262626; stroke: #262626"/>
      </g>
     </g>
     <g id="text_3">
      <!-- 0.4 -->
      <g style="fill: #262626" transform="translate(178.29142 287.910875) scale(0.088 -0.088)">
       <defs>
        <path id="ArialMT-34" d="M 2069 0 
L 2069 1097 
L 81 1097 
L 81 1613 
L 2172 4581 
L 2631 4581 
L 2631 1613 
L 3250 1613 
L 3250 1097 
L 2631 1097 
L 2631 0 
L 2069 0 
z
M 2069 1613 
L 2069 3678 
L 634 1613 
L 2069 1613 
z
" transform="scale(0.015625)"/>
       </defs>
       <use xlink:href="#ArialMT-30"/>
       <use xlink:href="#ArialMT-2e" x="55.615234"/>
       <use xlink:href="#ArialMT-34" x="83.398438"/>
      </g>
     </g>
    </g>
    <g id="xtick_4">
     <g id="line2d_4">
      <g>
       <use xlink:href="#mf59e9eb841" x="249.33833" y="273.312" style="fill: #262626; stroke: #262626"/>
      </g>
     </g>
     <g id="text_4">
      <!-- 0.6 -->
      <g style="fill: #262626" transform="translate(243.22233 287.910875) scale(0.088 -0.088)">
       <defs>
        <path id="ArialMT-36" d="M 3184 3459 
L 2625 3416 
Q 2550 3747 2413 3897 
Q 2184 4138 1850 4138 
Q 1581 4138 1378 3988 
Q 1113 3794 959 3422 
Q 806 3050 800 2363 
Q 1003 2672 1297 2822 
Q 1591 2972 1913 2972 
Q 2475 2972 2870 2558 
Q 3266 2144 3266 1488 
Q 3266 1056 3080 686 
Q 2894 316 2569 119 
Q 2244 -78 1831 -78 
Q 1128 -78 684 439 
Q 241 956 241 2144 
Q 241 3472 731 4075 
Q 1159 4600 1884 4600 
Q 2425 4600 2770 4297 
Q 3116 3994 3184 3459 
z
M 888 1484 
Q 888 1194 1011 928 
Q 1134 663 1356 523 
Q 1578 384 1822 384 
Q 2178 384 2434 671 
Q 2691 959 2691 1453 
Q 2691 1928 2437 2201 
Q 2184 2475 1800 2475 
Q 1419 2475 1153 2201 
Q 888 1928 888 1484 
z
" transform="scale(0.015625)"/>
       </defs>
       <use xlink:href="#ArialMT-30"/>
       <use xlink:href="#ArialMT-2e" x="55.615234"/>
       <use xlink:href="#ArialMT-36" x="83.398438"/>
      </g>
     </g>
    </g>
    <g id="xtick_5">
     <g id="line2d_5">
      <g>
       <use xlink:href="#mf59e9eb841" x="314.269239" y="273.312" style="fill: #262626; stroke: #262626"/>
      </g>
     </g>
     <g id="text_5">
      <!-- 0.8 -->
      <g style="fill: #262626" transform="translate(308.153239 287.910875) scale(0.088 -0.088)">
       <defs>
        <path id="ArialMT-38" d="M 1131 2484 
Q 781 2613 612 2850 
Q 444 3088 444 3419 
Q 444 3919 803 4259 
Q 1163 4600 1759 4600 
Q 2359 4600 2725 4251 
Q 3091 3903 3091 3403 
Q 3091 3084 2923 2848 
Q 2756 2613 2416 2484 
Q 2838 2347 3058 2040 
Q 3278 1734 3278 1309 
Q 3278 722 2862 322 
Q 2447 -78 1769 -78 
Q 1091 -78 675 323 
Q 259 725 259 1325 
Q 259 1772 486 2073 
Q 713 2375 1131 2484 
z
M 1019 3438 
Q 1019 3113 1228 2906 
Q 1438 2700 1772 2700 
Q 2097 2700 2305 2904 
Q 2513 3109 2513 3406 
Q 2513 3716 2298 3927 
Q 2084 4138 1766 4138 
Q 1444 4138 1231 3931 
Q 1019 3725 1019 3438 
z
M 838 1322 
Q 838 1081 952 856 
Q 1066 631 1291 507 
Q 1516 384 1775 384 
Q 2178 384 2440 643 
Q 2703 903 2703 1303 
Q 2703 1709 2433 1975 
Q 2163 2241 1756 2241 
Q 1359 2241 1098 1978 
Q 838 1716 838 1322 
z
" transform="scale(0.015625)"/>
       </defs>
       <use xlink:href="#ArialMT-30"/>
       <use xlink:href="#ArialMT-2e" x="55.615234"/>
       <use xlink:href="#ArialMT-38" x="83.398438"/>
      </g>
     </g>
    </g>
    <g id="xtick_6">
     <g id="line2d_6">
      <g>
       <use xlink:href="#mf59e9eb841" x="379.200148" y="273.312" style="fill: #262626; stroke: #262626"/>
      </g>
     </g>
     <g id="text_6">
      <!-- 1.0 -->
      <g style="fill: #262626" transform="translate(373.084148 287.910875) scale(0.088 -0.088)">
       <defs>
        <path id="ArialMT-31" d="M 2384 0 
L 1822 0 
L 1822 3584 
Q 1619 3391 1289 3197 
Q 959 3003 697 2906 
L 697 3450 
Q 1169 3672 1522 3987 
Q 1875 4303 2022 4600 
L 2384 4600 
L 2384 0 
z
" transform="scale(0.015625)"/>
       </defs>
       <use xlink:href="#ArialMT-31"/>
       <use xlink:href="#ArialMT-2e" x="55.615234"/>
       <use xlink:href="#ArialMT-30" x="83.398438"/>
      </g>
     </g>
    </g>
    <g id="text_7">
     <!-- $x$ -->
     <g style="fill: #262626" transform="translate(213.992875 300.531375) scale(0.096 -0.096)">
      <defs>
       <path id="DejaVuSans-Oblique-78" d="M 3841 3500 
L 2234 1784 
L 3219 0 
L 2559 0 
L 1819 1388 
L 531 0 
L -166 0 
L 1556 1844 
L 641 3500 
L 1300 3500 
L 1972 2234 
L 3144 3500 
L 3841 3500 
z
" transform="scale(0.015625)"/>
      </defs>
      <use xlink:href="#DejaVuSans-Oblique-78" transform="translate(0 0.3125)"/>
     </g>
    </g>
   </g>
   <g id="matplotlib.axis_2">
    <g id="ytick_1">
     <g id="line2d_7">
      <defs>
       <path id="mb3ff1e2c5b" d="M 0 0 
L -4.8 0 
" style="stroke: #262626"/>
      </defs>
      <g>
       <use xlink:href="#mb3ff1e2c5b" x="38.312875" y="268.426059" style="fill: #262626; stroke: #262626"/>
      </g>
     </g>
     <g id="text_8">
      <!-- −2 -->
      <g style="fill: #262626" transform="translate(19.9795 271.575496) scale(0.088 -0.088)">
       <defs>
        <path id="ArialMT-2212" d="M 3381 1997 
L 356 1997 
L 356 2522 
L 3381 2522 
L 3381 1997 
z
" transform="scale(0.015625)"/>
       </defs>
       <use xlink:href="#ArialMT-2212"/>
       <use xlink:href="#ArialMT-32" x="58.398438"/>
      </g>
     </g>
    </g>
    <g id="ytick_2">
     <g id="line2d_8">
      <g>
       <use xlink:href="#mb3ff1e2c5b" x="38.312875" y="213.039385" style="fill: #262626; stroke: #262626"/>
      </g>
     </g>
     <g id="text_9">
      <!-- −1 -->
      <g style="fill: #262626" transform="translate(19.9795 216.188823) scale(0.088 -0.088)">
       <use xlink:href="#ArialMT-2212"/>
       <use xlink:href="#ArialMT-31" x="58.398438"/>
      </g>
     </g>
    </g>
    <g id="ytick_3">
     <g id="line2d_9">
      <g>
       <use xlink:href="#mb3ff1e2c5b" x="38.312875" y="157.652711" style="fill: #262626; stroke: #262626"/>
      </g>
     </g>
     <g id="text_10">
      <!-- 0 -->
      <g style="fill: #262626" transform="translate(25.11925 160.802149) scale(0.088 -0.088)">
       <use xlink:href="#ArialMT-30"/>
      </g>
     </g>
    </g>
    <g id="ytick_4">
     <g id="line2d_10">
      <g>
       <use xlink:href="#mb3ff1e2c5b" x="38.312875" y="102.266038" style="fill: #262626; stroke: #262626"/>
      </g>
     </g>
     <g id="text_11">
      <!-- 1 -->
      <g style="fill: #262626" transform="translate(25.11925 105.415475) scale(0.088 -0.088)">
       <use xlink:href="#ArialMT-31"/>
      </g>
     </g>
    </g>
    <g id="ytick_5">
     <g id="line2d_11">
      <g>
       <use xlink:href="#mb3ff1e2c5b" x="38.312875" y="46.879364" style="fill: #262626; stroke: #262626"/>
      </g>
     </g>
     <g id="text_12">
      <!-- 2 -->
      <g style="fill: #262626" transform="translate(25.11925 50.028801) scale(0.088 -0.088)">
       <use xlink:href="#ArialMT-32"/>
      </g>
     </g>
    </g>
    <g id="text_13">
     <!-- $y$ -->
     <g style="fill: #262626" transform="translate(13.9635 143.136) rotate(-90) scale(0.096 -0.096)">
      <defs>
       <path id="DejaVuSans-Oblique-79" d="M 1588 -325 
Q 1188 -997 936 -1164 
Q 684 -1331 294 -1331 
L -159 -1331 
L -63 -850 
L 269 -850 
Q 509 -850 678 -719 
Q 847 -588 1056 -206 
L 1234 128 
L 459 3500 
L 1069 3500 
L 1650 819 
L 3256 3500 
L 3859 3500 
L 1588 -325 
z
" transform="scale(0.015625)"/>
      </defs>
      <use xlink:href="#DejaVuSans-Oblique-79" transform="translate(0 0.3125)"/>
     </g>
    </g>
   </g>
   <g id="PolyCollection_1">
    <defs>
     <path id="mc62e34f3e8" d="M 54.545602 -260.423349 
L 54.545602 -48.423375 
L 57.824941 -50.793612 
L 61.10428 -53.759179 
L 64.383619 -57.394125 
L 67.662958 -61.75572 
L 70.942296 -66.875757 
L 74.221636 -72.751542 
L 77.500973 -79.338361 
L 80.780313 -86.543448 
L 84.059653 -94.222649 
L 87.33899 -102.184639 
L 90.61833 -110.190193 
L 93.89767 -117.968129 
L 97.177007 -125.222076 
L 100.456344 -131.659607 
L 103.735686 -136.995697 
L 107.015024 -140.988696 
L 110.294361 -143.44888 
L 113.573703 -144.26247 
L 116.853041 -143.180791 
L 120.132378 -136.812569 
L 123.41172 -130.9367 
L 126.691057 -125.481642 
L 129.970395 -120.333457 
L 133.249737 -115.337393 
L 136.529069 -110.382507 
L 139.808412 -105.308309 
L 143.087754 -100.001012 
L 146.367086 -94.69321 
L 149.646428 -89.056862 
L 152.92577 -83.382972 
L 156.205103 -77.762834 
L 159.484445 -72.438955 
L 162.763787 -67.641798 
L 166.04312 -63.673757 
L 169.322462 -60.811363 
L 172.601804 -59.318296 
L 175.881137 -59.434013 
L 179.160479 -61.32702 
L 182.439821 -65.107474 
L 185.719153 -70.797778 
L 188.998496 -78.334824 
L 192.277838 -87.574538 
L 195.55717 -98.294172 
L 198.836512 -102.149533 
L 202.115855 -102.271173 
L 205.395187 -102.822903 
L 208.674529 -104.090366 
L 211.953871 -106.342168 
L 215.233204 -109.803043 
L 218.512556 -114.639059 
L 221.791879 -120.937546 
L 225.071221 -128.696552 
L 228.350563 -137.820386 
L 231.629886 -148.121996 
L 234.909247 -159.327923 
L 238.18857 -171.089525 
L 241.467912 -183.014076 
L 244.747254 -194.671581 
L 248.026597 -205.631167 
L 251.305939 -215.494879 
L 254.585262 -223.90759 
L 257.864623 -227.543929 
L 261.143946 -226.15171 
L 264.423288 -224.614973 
L 267.70263 -222.966864 
L 270.981953 -221.144809 
L 274.261315 -219.071505 
L 277.540637 -216.662326 
L 280.81998 -213.896131 
L 284.099322 -210.582296 
L 287.378664 -206.793348 
L 290.658006 -202.409756 
L 293.937329 -197.54656 
L 297.21669 -192.383655 
L 300.496013 -186.661388 
L 303.775355 -180.974686 
L 307.054697 -175.366378 
L 310.33402 -170.030204 
L 313.613382 -165.06063 
L 316.892705 -160.4823 
L 320.172047 -156.459104 
L 323.451389 -152.984103 
L 326.730731 -150.292401 
L 330.010073 -148.355178 
L 333.289396 -147.176063 
L 336.568738 -147.166282 
L 339.84808 -148.018539 
L 343.127423 -149.129745 
L 346.406765 -150.944821 
L 349.686088 -153.647096 
L 352.96543 -157.116642 
L 356.244772 -161.523352 
L 359.524114 -166.863788 
L 362.803456 -173.064836 
L 366.082798 -179.497925 
L 369.362141 -181.819918 
L 372.641463 -182.707295 
L 375.920806 -181.987479 
L 379.200148 -179.587028 
L 379.200148 -214.619625 
L 379.200148 -214.619625 
L 375.920806 -205.430111 
L 372.641463 -196.487568 
L 369.362141 -188.006851 
L 366.082798 -180.179844 
L 362.803456 -176.069471 
L 359.524114 -171.75072 
L 356.244772 -167.01843 
L 352.96543 -162.165434 
L 349.686088 -157.526769 
L 346.406765 -153.576998 
L 343.127423 -150.37029 
L 339.84808 -148.24548 
L 336.568738 -147.678757 
L 333.289396 -148.075486 
L 330.010073 -149.083577 
L 326.730731 -150.976499 
L 323.451389 -153.641254 
L 320.172047 -156.907037 
L 316.892705 -160.843309 
L 313.613382 -165.304528 
L 310.33402 -170.251751 
L 307.054697 -175.587925 
L 303.775355 -181.19623 
L 300.496013 -187.119972 
L 297.21669 -193.216053 
L 293.937329 -199.841071 
L 290.658006 -206.530851 
L 287.378664 -213.213435 
L 284.099322 -219.735119 
L 280.81998 -225.726205 
L 277.540637 -230.99047 
L 274.261315 -235.106567 
L 270.981953 -237.839538 
L 267.70263 -238.917981 
L 264.423288 -238.136978 
L 261.143946 -235.360853 
L 257.864623 -230.592326 
L 254.585262 -228.747974 
L 251.305939 -229.659279 
L 248.026597 -230.131444 
L 244.747254 -229.981116 
L 241.467912 -229.017816 
L 238.18857 -227.0357 
L 234.909247 -223.847097 
L 231.629886 -219.306491 
L 228.350563 -213.308539 
L 225.071221 -205.814092 
L 221.791879 -196.855564 
L 218.512556 -186.537985 
L 215.233204 -175.039788 
L 211.953871 -162.608137 
L 208.674529 -149.548681 
L 205.395187 -136.209357 
L 202.115855 -122.966923 
L 198.836512 -110.204871 
L 195.55717 -102.177865 
L 192.277838 -102.103506 
L 188.998496 -101.723064 
L 185.719153 -100.899785 
L 182.439821 -99.575111 
L 179.160479 -97.769599 
L 175.881137 -95.58336 
L 172.601804 -93.196743 
L 169.322462 -90.830019 
L 166.04312 -88.755922 
L 162.763787 -87.240987 
L 159.484445 -86.532481 
L 156.205103 -86.866771 
L 152.92577 -88.366038 
L 149.646428 -91.127215 
L 146.367086 -95.054399 
L 143.087754 -100.222556 
L 139.808412 -106.0575 
L 136.529069 -112.532369 
L 133.249737 -119.264095 
L 129.970395 -125.829775 
L 126.691057 -131.868307 
L 123.41172 -137.002244 
L 120.132378 -140.92591 
L 116.853041 -143.416273 
L 113.573703 -150.144262 
L 110.294361 -157.653845 
L 107.015024 -165.676381 
L 103.735686 -174.116579 
L 100.456344 -182.839701 
L 97.177007 -191.686285 
L 93.89767 -200.474994 
L 90.61833 -209.032407 
L 87.33899 -217.186494 
L 84.059653 -224.791309 
L 80.780313 -231.727426 
L 77.500973 -237.914854 
L 74.221636 -243.307327 
L 70.942296 -247.896 
L 67.662958 -251.704707 
L 64.383619 -254.784736 
L 61.10428 -257.207351 
L 57.824941 -259.05684 
L 54.545602 -260.423349 
z
" style="stroke: #ffffff; stroke-opacity: 0.5; stroke-width: 0.8"/>
    </defs>
    <g clip-path="url(#p24f7de882e)">
     <use xlink:href="#mc62e34f3e8" x="0" y="309.639375" style="fill: #1f77b4; fill-opacity: 0.5; stroke: #ffffff; stroke-opacity: 0.5; stroke-width: 0.8"/>
    </g>
   </g>
   <g id="line2d_12">
    <path d="M 54.545602 155.21601 
L 57.824941 154.714151 
L 61.10428 154.156113 
L 64.383619 153.549944 
L 67.662958 152.909162 
L 70.942296 152.253496 
L 74.221636 151.60994 
L 77.500973 151.012768 
L 80.780313 150.503938 
L 84.059653 150.132396 
L 87.33899 149.953809 
L 90.61833 150.028075 
L 93.89767 150.417813 
L 97.177007 151.185195 
L 100.456344 152.389721 
L 103.735686 154.083237 
L 107.015024 156.306836 
L 110.294361 159.088012 
L 113.573703 162.436009 
L 116.853041 166.340843 
L 120.132378 170.770135 
L 123.41172 175.669903 
L 126.691057 180.964401 
L 129.970395 186.557759 
L 133.249737 192.338631 
L 136.529069 198.181937 
L 139.808412 203.956471 
L 143.087754 209.527591 
L 146.367086 214.765571 
L 149.646428 219.547336 
L 152.92577 223.76487 
L 156.205103 227.324572 
L 159.484445 230.153657 
L 162.763787 232.197982 
L 166.04312 233.424535 
L 169.322462 233.818684 
L 172.601804 233.381856 
L 175.881137 232.130689 
L 179.160479 230.091064 
L 182.439821 227.298083 
L 185.719153 223.790593 
L 188.998496 219.610431 
L 192.277838 214.800353 
L 195.55717 209.403356 
L 198.836512 203.462173 
L 202.115855 197.020327 
L 205.395187 190.123245 
L 208.674529 182.819852 
L 211.953871 175.164222 
L 215.233204 167.21796 
L 218.512556 159.050853 
L 221.791879 150.74282 
L 225.071221 142.384053 
L 228.350563 134.074911 
L 231.629886 125.925129 
L 234.909247 118.051865 
L 238.18857 110.576764 
L 241.467912 103.623428 
L 244.747254 97.313027 
L 248.026597 91.758069 
L 251.305939 87.062296 
L 254.585262 83.311593 
L 257.864623 80.571248 
L 261.143946 78.883093 
L 264.423288 78.263399 
L 267.70263 78.696953 
L 270.981953 80.147202 
L 274.261315 82.550339 
L 277.540637 85.812977 
L 280.81998 89.828207 
L 284.099322 94.480667 
L 287.378664 99.635982 
L 290.658006 105.169071 
L 293.937329 110.945559 
L 297.21669 116.839521 
L 300.496013 122.748695 
L 303.775355 128.553917 
L 307.054697 134.162224 
L 310.33402 139.498397 
L 313.613382 144.456796 
L 316.892705 148.97657 
L 320.172047 152.956304 
L 323.451389 156.326697 
L 326.730731 159.004925 
L 330.010073 160.919998 
L 333.289396 162.013601 
L 336.568738 162.216855 
L 339.84808 161.507366 
L 343.127423 159.889357 
L 346.406765 157.378466 
L 349.686088 154.052442 
L 352.96543 149.998337 
L 356.244772 145.368484 
L 359.524114 140.332121 
L 362.803456 135.072221 
L 366.082798 129.800489 
L 369.362141 124.725991 
L 372.641463 120.041943 
L 375.920806 115.93058 
L 379.200148 112.536048 
" clip-path="url(#p24f7de882e)" style="fill: none; stroke: #1f77b4; stroke-width: 2; stroke-linecap: round"/>
   </g>
   <g id="line2d_13">
    <defs>
     <path id="mae05a32425" d="M -5 5 
L 5 -5 
M -5 -5 
L 5 5 
" style="stroke: #000000; stroke-width: 2"/>
    </defs>
    <g clip-path="url(#p24f7de882e)">
     <use xlink:href="#mae05a32425" x="116.723264" y="166.175823" style="stroke: #000000; stroke-width: 2"/>
     <use xlink:href="#mae05a32425" x="256.516038" y="81.572678" style="stroke: #000000; stroke-width: 2"/>
     <use xlink:href="#mae05a32425" x="196.655906" y="207.471295" style="stroke: #000000; stroke-width: 2"/>
     <use xlink:href="#mae05a32425" x="309.515844" y="138.196367" style="stroke: #000000; stroke-width: 2"/>
     <use xlink:href="#mae05a32425" x="307.768301" y="135.352768" style="stroke: #000000; stroke-width: 2"/>
     <use xlink:href="#mae05a32425" x="143.04403" y="209.45525" style="stroke: #000000; stroke-width: 2"/>
     <use xlink:href="#mae05a32425" x="144.300979" y="211.511087" style="stroke: #000000; stroke-width: 2"/>
     <use xlink:href="#mae05a32425" x="314.877055" y="146.253804" style="stroke: #000000; stroke-width: 2"/>
     <use xlink:href="#mae05a32425" x="365.609901" y="130.554472" style="stroke: #000000; stroke-width: 2"/>
     <use xlink:href="#mae05a32425" x="338.921113" y="161.803085" style="stroke: #000000; stroke-width: 2"/>
    </g>
   </g>
   <g id="line2d_14">
    <path d="M 54.545602 47.457158 
L 57.824941 52.601202 
L 61.10428 59.473201 
L 64.383619 67.678009 
L 67.662958 77.124932 
L 70.942296 87.060474 
L 74.221636 97.465124 
L 77.500973 107.508636 
L 80.780313 117.130818 
L 84.059653 126.266788 
L 87.33899 134.048776 
L 90.61833 140.726944 
L 93.89767 146.52132 
L 97.177007 150.920332 
L 100.456344 154.488971 
L 103.735686 157.071112 
L 107.015024 159.35535 
L 110.294361 161.473628 
L 113.573703 163.606876 
L 116.853041 166.18467 
L 120.132378 169.567129 
L 123.41172 173.894611 
L 126.691057 178.602818 
L 129.970395 184.487336 
L 133.249737 190.656577 
L 136.529069 197.30585 
L 139.808412 203.683565 
L 143.087754 209.57511 
L 146.367086 214.668519 
L 149.646428 218.762782 
L 152.92577 221.324771 
L 156.205103 222.723408 
L 159.484445 222.639779 
L 162.763787 221.531829 
L 166.04312 219.573001 
L 169.322462 216.99461 
L 172.601804 214.494415 
L 175.881137 212.030362 
L 179.160479 209.998156 
L 182.439821 208.636517 
L 185.719153 207.803241 
L 188.998496 207.546208 
L 192.277838 207.526374 
L 195.55717 207.548562 
L 198.836512 207.154407 
L 202.115855 206.095527 
L 205.395187 203.855454 
L 208.674529 200.586392 
L 211.953871 195.782378 
L 215.233204 189.424871 
L 218.512556 181.799122 
L 221.791879 172.633212 
L 225.071221 162.83978 
L 228.350563 152.412264 
L 231.629886 141.379447 
L 234.909247 130.973393 
L 238.18857 120.659805 
L 241.467912 111.166605 
L 244.747254 102.674214 
L 248.026597 94.97336 
L 251.305939 88.825152 
L 254.585262 83.867757 
L 257.864623 80.086359 
L 261.143946 77.76722 
L 264.423288 76.954974 
L 267.70263 77.020775 
L 270.981953 78.207693 
L 274.261315 80.686694 
L 277.540637 84.110304 
L 280.81998 88.574894 
L 284.099322 93.372974 
L 287.378664 98.86761 
L 290.658006 104.769924 
L 293.937329 110.820173 
L 297.21669 116.69091 
L 300.496013 122.771504 
L 303.775355 128.631973 
L 307.054697 134.106361 
L 310.33402 139.427087 
L 313.613382 144.466425 
L 316.892705 149.009781 
L 320.172047 153.017267 
L 323.451389 156.665683 
L 326.730731 159.130196 
L 330.010073 161.254198 
L 333.289396 162.35151 
L 336.568738 162.374273 
L 339.84808 161.503736 
L 343.127423 159.538842 
L 346.406765 156.528065 
L 349.686088 153.134151 
L 352.96543 148.804248 
L 356.244772 144.248423 
L 359.524114 139.552695 
L 362.803456 134.59721 
L 366.082798 129.856321 
L 369.362141 125.22592 
L 372.641463 120.715716 
L 375.920806 116.391693 
L 379.200148 112.159482 
" clip-path="url(#p24f7de882e)" style="fill: none; stroke: #ff0000; stroke-width: 0.5; stroke-linecap: round"/>
   </g>
   <g id="line2d_15">
    <path d="M 54.545602 204.522195 
L 57.824941 202.107609 
L 61.10428 199.032812 
L 64.383619 195.537808 
L 67.662958 191.59899 
L 70.942296 187.306131 
L 74.221636 182.970814 
L 77.500973 178.563703 
L 80.780313 174.336252 
L 84.059653 170.205591 
L 87.33899 166.499533 
L 90.61833 163.316142 
L 93.89767 160.815715 
L 97.177007 159.004546 
L 100.456344 157.909479 
L 103.735686 157.892448 
L 107.015024 158.629116 
L 110.294361 160.370031 
L 113.573703 162.969031 
L 116.853041 166.376331 
L 120.132378 170.440886 
L 123.41172 175.289216 
L 126.691057 180.425425 
L 129.970395 186.120204 
L 133.249737 191.979881 
L 136.529069 197.982142 
L 139.808412 203.822788 
L 143.087754 209.54733 
L 146.367086 214.738493 
L 149.646428 219.28928 
L 152.92577 223.062636 
L 156.205103 226.01305 
L 159.484445 227.872635 
L 162.763787 228.694593 
L 166.04312 228.587631 
L 169.322462 227.716959 
L 172.601804 225.916633 
L 175.881137 223.672836 
L 179.160479 221.060442 
L 182.439821 218.29296 
L 185.719153 215.642185 
L 188.998496 213.019756 
L 192.277838 210.581011 
L 195.55717 208.250142 
L 198.836512 205.983233 
L 202.115855 203.573269 
L 205.395187 200.821708 
L 208.674529 197.546317 
L 211.953871 193.563906 
L 215.233204 188.65574 
L 218.512556 182.821243 
L 221.791879 175.394186 
L 225.071221 167.432495 
L 228.350563 158.569804 
L 231.629886 148.796596 
L 234.909247 138.527916 
L 238.18857 127.752909 
L 241.467912 117.74454 
L 244.747254 107.988506 
L 248.026597 98.821445 
L 251.305939 91.102919 
L 254.585262 84.625697 
L 257.864623 79.622605 
L 261.143946 76.319011 
L 264.423288 74.824689 
L 267.70263 74.484734 
L 270.981953 75.745145 
L 274.261315 78.789092 
L 277.540637 82.109569 
L 280.81998 86.943759 
L 284.099322 92.169656 
L 287.378664 98.165859 
L 290.658006 104.249946 
L 293.937329 110.41506 
L 297.21669 116.799351 
L 300.496013 122.562435 
L 303.775355 128.360171 
L 307.054697 134.063223 
L 310.33402 139.46114 
L 313.613382 144.524383 
L 316.892705 148.677308 
L 320.172047 152.893172 
L 323.451389 156.577529 
L 326.730731 159.23072 
L 330.010073 161.233317 
L 333.289396 162.03211 
L 336.568738 162.305574 
L 339.84808 161.462765 
L 343.127423 159.508545 
L 346.406765 157.024084 
L 349.686088 153.431043 
L 352.96543 149.421205 
L 356.244772 144.823538 
L 359.524114 140.014322 
L 362.803456 134.978857 
L 366.082798 129.855951 
L 369.362141 124.748093 
L 372.641463 119.650815 
L 375.920806 114.412297 
L 379.200148 109.031606 
" clip-path="url(#p24f7de882e)" style="fill: none; stroke: #ff0000; stroke-width: 0.5; stroke-linecap: round"/>
   </g>
   <g id="line2d_16">
    <path d="M 54.545602 128.53992 
L 57.824941 133.88643 
L 61.10428 139.340765 
L 64.383619 144.733226 
L 67.662958 149.708453 
L 70.942296 154.003096 
L 74.221636 157.505585 
L 77.500973 159.850431 
L 80.780313 161.31842 
L 84.059653 161.876302 
L 87.33899 161.527368 
L 90.61833 160.739715 
L 93.89767 159.76788 
L 97.177007 158.736296 
L 100.456344 158.11826 
L 103.735686 158.170431 
L 107.015024 158.762609 
L 110.294361 160.416652 
L 113.573703 162.91347 
L 116.853041 166.383453 
L 120.132378 170.486964 
L 123.41172 175.467566 
L 126.691057 180.650996 
L 129.970395 186.503931 
L 133.249737 192.207714 
L 136.529069 198.225164 
L 139.808412 203.903577 
L 143.087754 209.519103 
L 146.367086 214.810323 
L 149.646428 219.659336 
L 152.92577 224.014283 
L 156.205103 227.957789 
L 159.484445 231.120543 
L 162.763787 233.463728 
L 166.04312 235.129632 
L 169.322462 235.92308 
L 172.601804 235.655622 
L 175.881137 234.469952 
L 179.160479 232.450334 
L 182.439821 229.407239 
L 185.719153 225.506096 
L 188.998496 220.770944 
L 192.277838 215.499701 
L 195.55717 209.570445 
L 198.836512 203.237992 
L 202.115855 196.425541 
L 205.395187 189.576526 
L 208.674529 182.505815 
L 211.953871 175.301309 
L 215.233204 168.078826 
L 218.512556 160.792957 
L 221.791879 153.591955 
L 225.071221 146.594725 
L 228.350563 139.422348 
L 231.629886 132.04286 
L 234.909247 124.96892 
L 238.18857 117.277677 
L 241.467912 110.012918 
L 244.747254 102.570391 
L 248.026597 95.829302 
L 251.305939 89.539838 
L 254.585262 84.345654 
L 257.864623 79.990317 
L 261.143946 76.785366 
L 264.423288 75.187053 
L 267.70263 75.007971 
L 270.981953 75.884223 
L 274.261315 78.595101 
L 277.540637 82.369606 
L 280.81998 86.947893 
L 284.099322 92.000596 
L 287.378664 98.133889 
L 290.658006 103.893121 
L 293.937329 110.271364 
L 297.21669 116.39435 
L 300.496013 122.463717 
L 303.775355 128.392609 
L 307.054697 134.034782 
L 310.33402 139.312484 
L 313.613382 144.153119 
L 316.892705 148.743634 
L 320.172047 153.041792 
L 323.451389 156.271283 
L 326.730731 159.280033 
L 330.010073 161.147634 
L 333.289396 162.141392 
L 336.568738 162.189579 
L 339.84808 161.307146 
L 343.127423 159.395662 
L 346.406765 156.828965 
L 349.686088 152.980053 
L 352.96543 148.863817 
L 356.244772 143.990564 
L 359.524114 139.157698 
L 362.803456 134.408311 
L 366.082798 129.985161 
L 369.362141 126.181753 
L 372.641463 123.372773 
L 375.920806 121.77835 
L 379.200148 121.487934 
" clip-path="url(#p24f7de882e)" style="fill: none; stroke: #ff0000; stroke-width: 0.5; stroke-linecap: round"/>
   </g>
   <g id="line2d_17">
    <path d="M 54.545602 164.928455 
L 57.824941 161.759794 
L 61.10428 157.678844 
L 64.383619 152.904898 
L 67.662958 147.943028 
L 70.942296 143.137427 
L 74.221636 138.75998 
L 77.500973 135.388353 
L 80.780313 132.958684 
L 84.059653 131.532577 
L 87.33899 131.573664 
L 90.61833 132.893371 
L 93.89767 135.122294 
L 97.177007 138.044784 
L 100.456344 142.021431 
L 103.735686 146.440971 
L 107.015024 151.183071 
L 110.294361 156.241945 
L 113.573703 161.292171 
L 116.853041 166.320771 
L 120.132378 171.517729 
L 123.41172 176.704381 
L 126.691057 182.023386 
L 129.970395 187.372147 
L 133.249737 192.890704 
L 136.529069 198.527214 
L 139.808412 204.074255 
L 143.087754 209.565015 
L 146.367086 214.803734 
L 149.646428 219.702953 
L 152.92577 224.113672 
L 156.205103 228.032966 
L 159.484445 231.327765 
L 162.763787 233.831394 
L 166.04312 235.582623 
L 169.322462 236.622705 
L 172.601804 236.564008 
L 175.881137 235.87502 
L 179.160479 234.089913 
L 182.439821 231.400863 
L 185.719153 227.870251 
L 188.998496 222.963518 
L 192.277838 217.097822 
L 195.55717 210.103906 
L 198.836512 201.991377 
L 202.115855 192.822387 
L 205.395187 182.864881 
L 208.674529 172.066605 
L 211.953871 161.157036 
L 215.233204 150.227898 
L 218.512556 138.89537 
L 221.791879 128.664594 
L 225.071221 119.108275 
L 228.350563 110.325093 
L 231.629886 102.357636 
L 234.909247 95.939183 
L 238.18857 91.290849 
L 241.467912 87.443623 
L 244.747254 84.415899 
L 248.026597 82.640537 
L 251.305939 81.723462 
L 254.585262 81.467809 
L 257.864623 81.678703 
L 261.143946 82.346358 
L 264.423288 83.397222 
L 267.70263 84.820361 
L 270.981953 86.817088 
L 274.261315 88.938895 
L 277.540637 91.503268 
L 280.81998 94.635657 
L 284.099322 98.324348 
L 287.378664 102.287417 
L 290.658006 106.887535 
L 293.937329 112.073509 
L 297.21669 117.157162 
L 300.496013 123.03539 
L 303.775355 128.860321 
L 307.054697 134.17554 
L 310.33402 139.260954 
L 313.613382 144.812562 
L 316.892705 149.177857 
L 320.172047 152.850614 
L 323.451389 156.069731 
L 326.730731 158.702547 
L 330.010073 160.606288 
L 333.289396 161.652498 
L 336.568738 162.153849 
L 339.84808 161.596672 
L 343.127423 160.219709 
L 346.406765 158.525307 
L 349.686088 155.517895 
L 352.96543 151.726891 
L 356.244772 147.111582 
L 359.524114 141.904078 
L 362.803456 135.966987 
L 366.082798 129.685581 
L 369.362141 123.062995 
L 372.641463 116.229391 
L 375.920806 109.626223 
L 379.200148 103.241573 
" clip-path="url(#p24f7de882e)" style="fill: none; stroke: #ff0000; stroke-width: 0.5; stroke-linecap: round"/>
   </g>
   <g id="line2d_18">
    <path d="M 54.545602 37.504178 
L 57.824941 30.35798 
L 61.10428 24.694898 
L 64.383619 20.853145 
L 67.662958 19.296 
L 70.942296 20.021376 
L 74.221636 23.436653 
L 77.500973 29.215465 
L 80.780313 37.294929 
L 84.059653 47.466309 
L 87.33899 59.380005 
L 90.61833 72.332555 
L 93.89767 86.099656 
L 97.177007 100.226281 
L 100.456344 113.710401 
L 103.735686 126.579609 
L 107.015024 138.476613 
L 110.294361 149.083286 
L 113.573703 158.477748 
L 116.853041 166.402033 
L 120.132378 173.341424 
L 123.41172 179.243088 
L 126.691057 184.532498 
L 129.970395 189.438155 
L 133.249737 194.285723 
L 136.529069 199.091651 
L 139.808412 204.195231 
L 143.087754 209.639165 
L 146.367086 214.958142 
L 149.646428 220.504008 
L 152.92577 225.700965 
L 156.205103 230.49 
L 159.484445 234.544377 
L 162.763787 237.829596 
L 166.04312 239.948781 
L 169.322462 240.847271 
L 172.601804 240.632739 
L 175.881137 239.138041 
L 179.160479 236.437918 
L 182.439821 232.756358 
L 185.719153 228.131358 
L 188.998496 222.585083 
L 192.277838 216.483344 
L 195.55717 209.796954 
L 198.836512 202.615699 
L 202.115855 195.046396 
L 205.395187 187.093722 
L 208.674529 178.754414 
L 211.953871 170.082641 
L 215.233204 161.167657 
L 218.512556 152.163556 
L 221.791879 143.257485 
L 225.071221 134.560004 
L 228.350563 125.833182 
L 231.629886 117.839608 
L 234.909247 110.258548 
L 238.18857 103.52491 
L 241.467912 97.698493 
L 244.747254 92.510615 
L 248.026597 88.052542 
L 251.305939 84.959465 
L 254.585262 82.594187 
L 257.864623 81.01491 
L 261.143946 80.342672 
L 264.423288 80.570825 
L 267.70263 81.429692 
L 270.981953 82.892163 
L 274.261315 85.398043 
L 277.540637 88.266162 
L 280.81998 91.936327 
L 284.099322 96.151001 
L 287.378664 101.093098 
L 290.658006 105.930784 
L 293.937329 111.393995 
L 297.21669 116.941848 
L 300.496013 122.820706 
L 303.775355 128.47152 
L 307.054697 134.330159 
L 310.33402 139.435101 
L 313.613382 144.600806 
L 316.892705 148.73459 
L 320.172047 152.80836 
L 323.451389 156.361821 
L 326.730731 158.966785 
L 330.010073 160.862319 
L 333.289396 161.873597 
L 336.568738 162.157835 
L 339.84808 161.487487 
L 343.127423 159.992328 
L 346.406765 157.690716 
L 349.686088 154.599657 
L 352.96543 150.731601 
L 356.244772 146.180486 
L 359.524114 141.046561 
L 362.803456 135.365247 
L 366.082798 129.691784 
L 369.362141 123.998908 
L 372.641463 118.381883 
L 375.920806 113.432401 
L 379.200148 109.259317 
" clip-path="url(#p24f7de882e)" style="fill: none; stroke: #ff0000; stroke-width: 0.5; stroke-linecap: round"/>
   </g>
   <g id="line2d_19">
    <path d="M 54.545602 155.91514 
L 57.824941 160.269094 
L 61.10428 163.297459 
L 64.383619 165.428559 
L 67.662958 166.715137 
L 70.942296 166.957292 
L 74.221636 166.534613 
L 77.500973 165.513642 
L 80.780313 164.049725 
L 84.059653 162.268968 
L 87.33899 160.491902 
L 90.61833 158.965034 
L 93.89767 157.435212 
L 97.177007 156.512599 
L 100.456344 156.329639 
L 103.735686 156.778122 
L 107.015024 157.965839 
L 110.294361 159.977869 
L 113.573703 162.79003 
L 116.853041 166.421357 
L 120.132378 170.642372 
L 123.41172 175.458527 
L 126.691057 180.860178 
L 129.970395 186.485341 
L 133.249737 192.294344 
L 136.529069 198.229281 
L 139.808412 203.98471 
L 143.087754 209.513465 
L 146.367086 214.711753 
L 149.646428 219.366729 
L 152.92577 223.602327 
L 156.205103 227.096677 
L 159.484445 230.010895 
L 162.763787 232.078878 
L 166.04312 233.331683 
L 169.322462 233.973555 
L 172.601804 233.56004 
L 175.881137 232.524098 
L 179.160479 230.457238 
L 182.439821 227.715651 
L 185.719153 224.211318 
L 188.998496 219.894693 
L 192.277838 214.923571 
L 195.55717 209.460386 
L 198.836512 203.428648 
L 202.115855 197.019822 
L 205.395187 190.081328 
L 208.674529 182.76406 
L 211.953871 175.114351 
L 215.233204 167.054472 
L 218.512556 158.716188 
L 221.791879 150.508815 
L 225.071221 141.971704 
L 228.350563 132.951268 
L 231.629886 124.148837 
L 234.909247 116.05153 
L 238.18857 108.359461 
L 241.467912 101.20381 
L 244.747254 95.101167 
L 248.026597 89.966875 
L 251.305939 85.835968 
L 254.585262 82.718772 
L 257.864623 80.962188 
L 261.143946 80.062094 
L 264.423288 80.135145 
L 267.70263 81.156952 
L 270.981953 82.896124 
L 274.261315 84.868184 
L 277.540637 88.422677 
L 280.81998 91.849159 
L 284.099322 96.192743 
L 287.378664 100.912873 
L 290.658006 105.783071 
L 293.937329 111.287901 
L 297.21669 116.627789 
L 300.496013 122.837474 
L 303.775355 128.706863 
L 307.054697 134.197749 
L 310.33402 139.674464 
L 313.613382 144.56995 
L 316.892705 149.235732 
L 320.172047 152.978297 
L 323.451389 156.333088 
L 326.730731 158.539364 
L 330.010073 160.689819 
L 333.289396 161.841413 
L 336.568738 162.234939 
L 339.84808 161.628036 
L 343.127423 160.368401 
L 346.406765 158.230386 
L 349.686088 155.225722 
L 352.96543 151.311777 
L 356.244772 146.632956 
L 359.524114 141.438449 
L 362.803456 135.874311 
L 366.082798 129.755007 
L 369.362141 123.643596 
L 372.641463 117.632405 
L 375.920806 111.80407 
L 379.200148 106.156594 
" clip-path="url(#p24f7de882e)" style="fill: none; stroke: #ff0000; stroke-width: 0.5; stroke-linecap: round"/>
   </g>
   <g id="line2d_20">
    <path d="M 54.545602 130.506232 
L 57.824941 134.733064 
L 61.10428 137.902935 
L 64.383619 140.426067 
L 67.662958 142.098183 
L 70.942296 143.096 
L 74.221636 143.614599 
L 77.500973 143.643295 
L 80.780313 143.874151 
L 84.059653 144.03896 
L 87.33899 144.351385 
L 90.61833 145.177449 
L 93.89767 146.126273 
L 97.177007 147.561189 
L 100.456344 149.632429 
L 103.735686 152.112852 
L 107.015024 155.105508 
L 110.294361 158.408389 
L 113.573703 162.127599 
L 116.853041 166.361742 
L 120.132378 170.882807 
L 123.41172 175.800085 
L 126.691057 181.193121 
L 129.970395 186.713488 
L 133.249737 192.290841 
L 136.529069 198.261106 
L 139.808412 203.937726 
L 143.087754 209.45284 
L 146.367086 214.74433 
L 149.646428 219.481601 
L 152.92577 223.613974 
L 156.205103 227.027237 
L 159.484445 229.723616 
L 162.763787 231.535761 
L 166.04312 232.340843 
L 169.322462 232.591947 
L 172.601804 232.082998 
L 175.881137 230.731028 
L 179.160479 228.851564 
L 182.439821 226.155931 
L 185.719153 222.742714 
L 188.998496 218.867776 
L 192.277838 214.30976 
L 195.55717 209.333993 
L 198.836512 203.774572 
L 202.115855 197.71916 
L 205.395187 191.168438 
L 208.674529 184.544576 
L 211.953871 177.138123 
L 215.233204 169.925324 
L 218.512556 162.140244 
L 221.791879 154.079456 
L 225.071221 145.985253 
L 228.350563 138.173723 
L 231.629886 129.79525 
L 234.909247 121.579354 
L 238.18857 113.691412 
L 241.467912 106.232689 
L 244.747254 99.110309 
L 248.026597 93.037271 
L 251.305939 87.806165 
L 254.585262 83.513646 
L 257.864623 80.513151 
L 261.143946 78.659509 
L 264.423288 78.063122 
L 267.70263 78.619511 
L 270.981953 79.901836 
L 274.261315 82.702377 
L 277.540637 85.959449 
L 280.81998 90.149351 
L 284.099322 94.678171 
L 287.378664 99.985398 
L 290.658006 105.41109 
L 293.937329 111.000143 
L 297.21669 116.922902 
L 300.496013 122.783042 
L 303.775355 128.266863 
L 307.054697 133.940814 
L 310.33402 139.319425 
L 313.613382 144.464401 
L 316.892705 148.931233 
L 320.172047 152.715553 
L 323.451389 155.946106 
L 326.730731 158.839305 
L 330.010073 160.748228 
L 333.289396 161.697385 
L 336.568738 161.982717 
L 339.84808 161.508857 
L 343.127423 160.111692 
L 346.406765 157.93179 
L 349.686088 155.062863 
L 352.96543 151.215003 
L 356.244772 146.624011 
L 359.524114 141.286853 
L 362.803456 135.787488 
L 366.082798 129.698955 
L 369.362141 123.453107 
L 372.641463 117.388059 
L 375.920806 111.782245 
L 379.200148 106.856179 
" clip-path="url(#p24f7de882e)" style="fill: none; stroke: #ff0000; stroke-width: 0.5; stroke-linecap: round"/>
   </g>
   <g id="line2d_21">
    <path d="M 54.545602 191.20018 
L 57.824941 186.45219 
L 61.10428 181.952276 
L 64.383619 178.101331 
L 67.662958 174.632161 
L 70.942296 171.718971 
L 74.221636 169.186848 
L 77.500973 167.259157 
L 80.780313 165.691066 
L 84.059653 164.076651 
L 87.33899 162.917585 
L 90.61833 161.711898 
L 93.89767 160.779727 
L 97.177007 160.02969 
L 100.456344 159.690949 
L 103.735686 159.583013 
L 107.015024 160.206502 
L 110.294361 161.380156 
L 113.573703 163.405249 
L 116.853041 166.279512 
L 120.132378 170.014185 
L 123.41172 174.47444 
L 126.691057 179.750373 
L 129.970395 185.388516 
L 133.249737 191.575003 
L 136.529069 197.700425 
L 139.808412 203.846405 
L 143.087754 209.537195 
L 146.367086 214.667251 
L 149.646428 219.164266 
L 152.92577 222.814689 
L 156.205103 225.521929 
L 159.484445 227.343159 
L 162.763787 228.437692 
L 166.04312 228.847358 
L 169.322462 228.530604 
L 172.601804 227.586973 
L 175.881137 226.062213 
L 179.160479 224.148811 
L 182.439821 221.792216 
L 185.719153 219.018045 
L 188.998496 216.096187 
L 192.277838 212.653852 
L 195.55717 208.831498 
L 198.836512 204.719029 
L 202.115855 200.109911 
L 205.395187 195.456203 
L 208.674529 190.23711 
L 211.953871 184.894047 
L 215.233204 178.845928 
L 218.512556 172.835249 
L 221.791879 166.219664 
L 225.071221 159.147 
L 228.350563 151.685626 
L 231.629886 143.748706 
L 234.909247 135.211619 
L 238.18857 126.194364 
L 241.467912 117.631296 
L 244.747254 108.517639 
L 248.026597 99.991248 
L 251.305939 92.116479 
L 254.585262 85.054846 
L 257.864623 79.308869 
L 261.143946 75.096961 
L 264.423288 72.528349 
L 267.70263 71.74182 
L 270.981953 72.304824 
L 274.261315 74.817321 
L 277.540637 78.76245 
L 280.81998 83.78912 
L 284.099322 89.81856 
L 287.378664 96.275724 
L 290.658006 102.819207 
L 293.937329 109.517548 
L 297.21669 116.281994 
L 300.496013 122.690394 
L 303.775355 128.375713 
L 307.054697 134.260007 
L 310.33402 139.606299 
L 313.613382 144.447962 
L 316.892705 148.858781 
L 320.172047 153.092071 
L 323.451389 156.687115 
L 326.730731 159.713915 
L 330.010073 161.564971 
L 333.289396 162.518582 
L 336.568738 162.510914 
L 339.84808 161.415183 
L 343.127423 158.911686 
L 346.406765 155.725624 
L 349.686088 151.617254 
L 352.96543 147.267319 
L 356.244772 142.666341 
L 359.524114 137.799205 
L 362.803456 133.523359 
L 366.082798 130.132188 
L 369.362141 127.303179 
L 372.641463 125.505184 
L 375.920806 124.517454 
L 379.200148 124.46253 
" clip-path="url(#p24f7de882e)" style="fill: none; stroke: #ff0000; stroke-width: 0.5; stroke-linecap: round"/>
   </g>
   <g id="line2d_22">
    <path d="M 54.545602 162.64947 
L 57.824941 161.312391 
L 61.10428 160.897618 
L 64.383619 161.435311 
L 67.662958 162.669073 
L 70.942296 164.176199 
L 74.221636 165.927771 
L 77.500973 167.315277 
L 80.780313 168.36889 
L 84.059653 168.986646 
L 87.33899 168.66963 
L 90.61833 167.797046 
L 93.89767 166.746368 
L 97.177007 165.260365 
L 100.456344 163.858043 
L 103.735686 162.906288 
L 107.015024 162.285898 
L 110.294361 162.631785 
L 113.573703 163.880232 
L 116.853041 166.454666 
L 120.132378 169.815738 
L 123.41172 174.303797 
L 126.691057 179.524894 
L 129.970395 185.4283 
L 133.249737 191.596353 
L 136.529069 197.793004 
L 139.808412 203.956243 
L 143.087754 209.541767 
L 146.367086 214.661078 
L 149.646428 219.054089 
L 152.92577 222.690923 
L 156.205103 225.510381 
L 159.484445 227.515718 
L 162.763787 228.617046 
L 166.04312 229.24702 
L 169.322462 229.095754 
L 172.601804 228.26549 
L 175.881137 226.900031 
L 179.160479 225.102148 
L 182.439821 222.788859 
L 185.719153 220.007663 
L 188.998496 216.79706 
L 192.277838 213.118075 
L 195.55717 208.992199 
L 198.836512 204.367291 
L 202.115855 199.221055 
L 205.395187 193.546898 
L 208.674529 187.310608 
L 211.953871 180.42337 
L 215.233204 173.353316 
L 218.512556 165.330681 
L 221.791879 157.084336 
L 225.071221 148.896609 
L 228.350563 140.467407 
L 231.629886 131.795421 
L 234.909247 123.193836 
L 238.18857 114.801151 
L 241.467912 107.071662 
L 244.747254 99.906656 
L 248.026597 93.625484 
L 251.305939 88.094765 
L 254.585262 83.616119 
L 257.864623 80.385747 
L 261.143946 78.378436 
L 264.423288 77.48204 
L 267.70263 77.564262 
L 270.981953 78.874483 
L 274.261315 81.310357 
L 277.540637 84.533366 
L 280.81998 88.737153 
L 284.099322 93.588602 
L 287.378664 99.050925 
L 290.658006 104.728001 
L 293.937329 110.629641 
L 297.21669 116.648362 
L 300.496013 122.583976 
L 303.775355 128.481031 
L 307.054697 134.18032 
L 310.33402 139.575052 
L 313.613382 144.63244 
L 316.892705 148.778793 
L 320.172047 152.714385 
L 323.451389 156.236746 
L 326.730731 159.078005 
L 330.010073 161.038976 
L 333.289396 161.988419 
L 336.568738 162.264155 
L 339.84808 161.546609 
L 343.127423 159.594702 
L 346.406765 157.199705 
L 349.686088 153.409404 
L 352.96543 149.427567 
L 356.244772 144.738771 
L 359.524114 139.814817 
L 362.803456 134.710922 
L 366.082798 129.976563 
L 369.362141 125.315217 
L 372.641463 121.277783 
L 375.920806 117.690197 
L 379.200148 114.700663 
" clip-path="url(#p24f7de882e)" style="fill: none; stroke: #ff0000; stroke-width: 0.5; stroke-linecap: round"/>
   </g>
   <g id="line2d_23">
    <path d="M 54.545602 202.379055 
L 57.824941 198.478216 
L 61.10428 193.57032 
L 64.383619 187.58208 
L 67.662958 181.212573 
L 70.942296 174.279823 
L 74.221636 167.458365 
L 77.500973 161.104654 
L 80.780313 155.571133 
L 84.059653 150.764983 
L 87.33899 147.358422 
L 90.61833 145.401026 
L 93.89767 144.564604 
L 97.177007 145.038702 
L 100.456344 146.733001 
L 103.735686 149.346836 
L 107.015024 152.818702 
L 110.294361 156.902296 
L 113.573703 161.493436 
L 116.853041 166.32516 
L 120.132378 171.422626 
L 123.41172 176.550157 
L 126.691057 181.976719 
L 129.970395 187.408755 
L 133.249737 192.872616 
L 136.529069 198.522483 
L 139.808412 203.98269 
L 143.087754 209.583641 
L 146.367086 214.826605 
L 149.646428 219.86098 
L 152.92577 224.368896 
L 156.205103 228.414009 
L 159.484445 231.738804 
L 162.763787 234.308221 
L 166.04312 236.010981 
L 169.322462 236.88055 
L 172.601804 236.632583 
L 175.881137 235.795069 
L 179.160479 233.730157 
L 182.439821 230.967303 
L 185.719153 227.148071 
L 188.998496 222.300788 
L 192.277838 216.578118 
L 195.55717 209.873733 
L 198.836512 202.313957 
L 202.115855 194.007162 
L 205.395187 185.039179 
L 208.674529 175.730015 
L 211.953871 166.012252 
L 215.233204 155.901691 
L 218.512556 146.491093 
L 221.791879 137.378299 
L 225.071221 128.411611 
L 228.350563 120.294249 
L 231.629886 112.796362 
L 234.909247 106.05041 
L 238.18857 100.366508 
L 241.467912 95.568711 
L 244.747254 90.923579 
L 248.026597 87.457726 
L 251.305939 84.6576 
L 254.585262 82.392973 
L 257.864623 80.995168 
L 261.143946 80.210858 
L 264.423288 80.309329 
L 267.70263 80.790157 
L 270.981953 82.534433 
L 274.261315 84.891293 
L 277.540637 87.665801 
L 280.81998 91.472117 
L 284.099322 95.749899 
L 287.378664 100.605911 
L 290.658006 105.844221 
L 293.937329 111.204425 
L 297.21669 116.976485 
L 300.496013 122.699813 
L 303.775355 128.515362 
L 307.054697 134.36501 
L 310.33402 139.461715 
L 313.613382 144.566503 
L 316.892705 148.825432 
L 320.172047 152.954043 
L 323.451389 156.38193 
L 326.730731 159.271916 
L 330.010073 161.153509 
L 333.289396 162.036031 
L 336.568738 162.121593 
L 339.84808 161.603552 
L 343.127423 159.870642 
L 346.406765 157.662685 
L 349.686088 154.342677 
L 352.96543 150.544387 
L 356.244772 146.042094 
L 359.524114 140.660349 
L 362.803456 135.426757 
L 366.082798 129.92476 
L 369.362141 124.195947 
L 372.641463 119.027859 
L 375.920806 113.985611 
L 379.200148 109.544618 
" clip-path="url(#p24f7de882e)" style="fill: none; stroke: #ff0000; stroke-width: 0.5; stroke-linecap: round"/>
   </g>
   <g id="line2d_24"/>
   <g id="patch_3">
    <path d="M 38.312875 268.426059 
L 38.312875 46.879364 
" style="fill: none; stroke: #262626; stroke-linejoin: miter; stroke-linecap: square"/>
   </g>
   <g id="patch_4">
    <path d="M 54.545602 273.312 
L 379.200148 273.312 
" style="fill: none; stroke: #262626; stroke-linejoin: miter; stroke-linecap: square"/>
   </g>
   <g id="legend_1">
    <g id="line2d_25">
     <path d="M 292.450875 18.475 
L 301.250875 18.475 
L 310.050875 18.475 
" style="fill: none; stroke: #1f77b4; stroke-width: 2; stroke-linecap: round"/>
    </g>
    <g id="text_14">
     <!-- $m_n(x)$ -->
     <g style="fill: #262626" transform="translate(317.090875 21.555) scale(0.088 -0.088)">
      <defs>
       <path id="DejaVuSans-Oblique-6d" d="M 5747 2113 
L 5338 0 
L 4763 0 
L 5166 2094 
Q 5191 2228 5203 2325 
Q 5216 2422 5216 2491 
Q 5216 2772 5059 2928 
Q 4903 3084 4622 3084 
Q 4203 3084 3875 2770 
Q 3547 2456 3450 1953 
L 3066 0 
L 2491 0 
L 2900 2094 
Q 2925 2209 2937 2307 
Q 2950 2406 2950 2484 
Q 2950 2769 2794 2926 
Q 2638 3084 2363 3084 
Q 1938 3084 1609 2770 
Q 1281 2456 1184 1953 
L 800 0 
L 225 0 
L 909 3500 
L 1484 3500 
L 1375 2956 
Q 1609 3263 1923 3423 
Q 2238 3584 2597 3584 
Q 2978 3584 3223 3384 
Q 3469 3184 3519 2828 
Q 3781 3197 4126 3390 
Q 4472 3584 4856 3584 
Q 5306 3584 5551 3325 
Q 5797 3066 5797 2591 
Q 5797 2488 5784 2364 
Q 5772 2241 5747 2113 
z
" transform="scale(0.015625)"/>
       <path id="DejaVuSans-Oblique-6e" d="M 3566 2113 
L 3156 0 
L 2578 0 
L 2988 2091 
Q 3016 2238 3031 2350 
Q 3047 2463 3047 2528 
Q 3047 2791 2881 2937 
Q 2716 3084 2419 3084 
Q 1956 3084 1622 2776 
Q 1288 2469 1184 1941 
L 800 0 
L 225 0 
L 903 3500 
L 1478 3500 
L 1363 2950 
Q 1603 3253 1940 3418 
Q 2278 3584 2650 3584 
Q 3113 3584 3367 3334 
Q 3622 3084 3622 2631 
Q 3622 2519 3608 2391 
Q 3594 2263 3566 2113 
z
" transform="scale(0.015625)"/>
       <path id="DejaVuSans-28" d="M 1984 4856 
Q 1566 4138 1362 3434 
Q 1159 2731 1159 2009 
Q 1159 1288 1364 580 
Q 1569 -128 1984 -844 
L 1484 -844 
Q 1016 -109 783 600 
Q 550 1309 550 2009 
Q 550 2706 781 3412 
Q 1013 4119 1484 4856 
L 1984 4856 
z
" transform="scale(0.015625)"/>
       <path id="DejaVuSans-29" d="M 513 4856 
L 1013 4856 
Q 1481 4119 1714 3412 
Q 1947 2706 1947 2009 
Q 1947 1309 1714 600 
Q 1481 -109 1013 -844 
L 513 -844 
Q 928 -128 1133 580 
Q 1338 1288 1338 2009 
Q 1338 2731 1133 3434 
Q 928 4138 513 4856 
z
" transform="scale(0.015625)"/>
      </defs>
      <use xlink:href="#DejaVuSans-Oblique-6d" transform="translate(0 0.125)"/>
      <use xlink:href="#DejaVuSans-Oblique-6e" transform="translate(97.412109 -16.28125) scale(0.7)"/>
      <use xlink:href="#DejaVuSans-28" transform="translate(144.511719 0.125)"/>
      <use xlink:href="#DejaVuSans-Oblique-78" transform="translate(183.525391 0.125)"/>
      <use xlink:href="#DejaVuSans-29" transform="translate(242.705078 0.125)"/>
     </g>
    </g>
    <g id="patch_5">
     <path d="M 292.450875 35.712 
L 310.050875 35.712 
L 310.050875 29.552 
L 292.450875 29.552 
z
" style="fill: #1f77b4; fill-opacity: 0.5; stroke: #ffffff; stroke-opacity: 0.5; stroke-width: 0.8; stroke-linejoin: miter"/>
    </g>
    <g id="text_15">
     <!-- $f(\mathbf{x}^*)$ 95% pred. -->
     <g style="fill: #262626" transform="translate(317.090875 35.712) scale(0.088 -0.088)">
      <defs>
       <path id="DejaVuSans-Oblique-66" d="M 3059 4863 
L 2969 4384 
L 2419 4384 
Q 2106 4384 1964 4261 
Q 1822 4138 1753 3809 
L 1691 3500 
L 2638 3500 
L 2553 3053 
L 1606 3053 
L 1013 0 
L 434 0 
L 1031 3053 
L 481 3053 
L 563 3500 
L 1113 3500 
L 1159 3744 
Q 1278 4363 1576 4613 
Q 1875 4863 2516 4863 
L 3059 4863 
z
" transform="scale(0.015625)"/>
       <path id="DejaVuSans-Bold-78" d="M 1422 1791 
L 159 3500 
L 1344 3500 
L 2059 2463 
L 2784 3500 
L 3969 3500 
L 2706 1797 
L 4031 0 
L 2847 0 
L 2059 1106 
L 1281 0 
L 97 0 
L 1422 1791 
z
" transform="scale(0.015625)"/>
       <path id="DejaVuSans-2a" d="M 3009 3897 
L 1888 3291 
L 3009 2681 
L 2828 2375 
L 1778 3009 
L 1778 1831 
L 1422 1831 
L 1422 3009 
L 372 2375 
L 191 2681 
L 1313 3291 
L 191 3897 
L 372 4206 
L 1422 3572 
L 1422 4750 
L 1778 4750 
L 1778 3572 
L 2828 4206 
L 3009 3897 
z
" transform="scale(0.015625)"/>
       <path id="ArialMT-20" transform="scale(0.015625)"/>
       <path id="ArialMT-39" d="M 350 1059 
L 891 1109 
Q 959 728 1153 556 
Q 1347 384 1650 384 
Q 1909 384 2104 503 
Q 2300 622 2425 820 
Q 2550 1019 2634 1356 
Q 2719 1694 2719 2044 
Q 2719 2081 2716 2156 
Q 2547 1888 2255 1720 
Q 1963 1553 1622 1553 
Q 1053 1553 659 1965 
Q 266 2378 266 3053 
Q 266 3750 677 4175 
Q 1088 4600 1706 4600 
Q 2153 4600 2523 4359 
Q 2894 4119 3086 3673 
Q 3278 3228 3278 2384 
Q 3278 1506 3087 986 
Q 2897 466 2520 194 
Q 2144 -78 1638 -78 
Q 1100 -78 759 220 
Q 419 519 350 1059 
z
M 2653 3081 
Q 2653 3566 2395 3850 
Q 2138 4134 1775 4134 
Q 1400 4134 1122 3828 
Q 844 3522 844 3034 
Q 844 2597 1108 2323 
Q 1372 2050 1759 2050 
Q 2150 2050 2401 2323 
Q 2653 2597 2653 3081 
z
" transform="scale(0.015625)"/>
       <path id="ArialMT-35" d="M 266 1200 
L 856 1250 
Q 922 819 1161 601 
Q 1400 384 1738 384 
Q 2144 384 2425 690 
Q 2706 997 2706 1503 
Q 2706 1984 2436 2262 
Q 2166 2541 1728 2541 
Q 1456 2541 1237 2417 
Q 1019 2294 894 2097 
L 366 2166 
L 809 4519 
L 3088 4519 
L 3088 3981 
L 1259 3981 
L 1013 2750 
Q 1425 3038 1878 3038 
Q 2478 3038 2890 2622 
Q 3303 2206 3303 1553 
Q 3303 931 2941 478 
Q 2500 -78 1738 -78 
Q 1113 -78 717 272 
Q 322 622 266 1200 
z
" transform="scale(0.015625)"/>
       <path id="ArialMT-25" d="M 372 3481 
Q 372 3972 619 4315 
Q 866 4659 1334 4659 
Q 1766 4659 2048 4351 
Q 2331 4044 2331 3447 
Q 2331 2866 2045 2552 
Q 1759 2238 1341 2238 
Q 925 2238 648 2547 
Q 372 2856 372 3481 
z
M 1350 4272 
Q 1141 4272 1002 4090 
Q 863 3909 863 3425 
Q 863 2984 1003 2804 
Q 1144 2625 1350 2625 
Q 1563 2625 1702 2806 
Q 1841 2988 1841 3469 
Q 1841 3913 1700 4092 
Q 1559 4272 1350 4272 
z
M 1353 -169 
L 3859 4659 
L 4316 4659 
L 1819 -169 
L 1353 -169 
z
M 3334 1075 
Q 3334 1569 3581 1911 
Q 3828 2253 4300 2253 
Q 4731 2253 5014 1945 
Q 5297 1638 5297 1041 
Q 5297 459 5011 145 
Q 4725 -169 4303 -169 
Q 3888 -169 3611 142 
Q 3334 453 3334 1075 
z
M 4316 1866 
Q 4103 1866 3964 1684 
Q 3825 1503 3825 1019 
Q 3825 581 3965 400 
Q 4106 219 4313 219 
Q 4528 219 4667 400 
Q 4806 581 4806 1063 
Q 4806 1506 4665 1686 
Q 4525 1866 4316 1866 
z
" transform="scale(0.015625)"/>
       <path id="ArialMT-70" d="M 422 -1272 
L 422 3319 
L 934 3319 
L 934 2888 
Q 1116 3141 1344 3267 
Q 1572 3394 1897 3394 
Q 2322 3394 2647 3175 
Q 2972 2956 3137 2557 
Q 3303 2159 3303 1684 
Q 3303 1175 3120 767 
Q 2938 359 2589 142 
Q 2241 -75 1856 -75 
Q 1575 -75 1351 44 
Q 1128 163 984 344 
L 984 -1272 
L 422 -1272 
z
M 931 1641 
Q 931 1000 1190 694 
Q 1450 388 1819 388 
Q 2194 388 2461 705 
Q 2728 1022 2728 1688 
Q 2728 2322 2467 2637 
Q 2206 2953 1844 2953 
Q 1484 2953 1207 2617 
Q 931 2281 931 1641 
z
" transform="scale(0.015625)"/>
       <path id="ArialMT-72" d="M 416 0 
L 416 3319 
L 922 3319 
L 922 2816 
Q 1116 3169 1280 3281 
Q 1444 3394 1641 3394 
Q 1925 3394 2219 3213 
L 2025 2691 
Q 1819 2813 1613 2813 
Q 1428 2813 1281 2702 
Q 1134 2591 1072 2394 
Q 978 2094 978 1738 
L 978 0 
L 416 0 
z
" transform="scale(0.015625)"/>
       <path id="ArialMT-65" d="M 2694 1069 
L 3275 997 
Q 3138 488 2766 206 
Q 2394 -75 1816 -75 
Q 1088 -75 661 373 
Q 234 822 234 1631 
Q 234 2469 665 2931 
Q 1097 3394 1784 3394 
Q 2450 3394 2872 2941 
Q 3294 2488 3294 1666 
Q 3294 1616 3291 1516 
L 816 1516 
Q 847 969 1125 678 
Q 1403 388 1819 388 
Q 2128 388 2347 550 
Q 2566 713 2694 1069 
z
M 847 1978 
L 2700 1978 
Q 2663 2397 2488 2606 
Q 2219 2931 1791 2931 
Q 1403 2931 1139 2672 
Q 875 2413 847 1978 
z
" transform="scale(0.015625)"/>
       <path id="ArialMT-64" d="M 2575 0 
L 2575 419 
Q 2259 -75 1647 -75 
Q 1250 -75 917 144 
Q 584 363 401 755 
Q 219 1147 219 1656 
Q 219 2153 384 2558 
Q 550 2963 881 3178 
Q 1213 3394 1622 3394 
Q 1922 3394 2156 3267 
Q 2391 3141 2538 2938 
L 2538 4581 
L 3097 4581 
L 3097 0 
L 2575 0 
z
M 797 1656 
Q 797 1019 1065 703 
Q 1334 388 1700 388 
Q 2069 388 2326 689 
Q 2584 991 2584 1609 
Q 2584 2291 2321 2609 
Q 2059 2928 1675 2928 
Q 1300 2928 1048 2622 
Q 797 2316 797 1656 
z
" transform="scale(0.015625)"/>
      </defs>
      <use xlink:href="#DejaVuSans-Oblique-66" transform="translate(0 0.765625)"/>
      <use xlink:href="#DejaVuSans-28" transform="translate(35.205078 0.765625)"/>
      <use xlink:href="#DejaVuSans-Bold-78" transform="translate(74.21875 0.765625)"/>
      <use xlink:href="#DejaVuSans-2a" transform="translate(153.31543 39.046875) scale(0.7)"/>
      <use xlink:href="#DejaVuSans-29" transform="translate(204.6875 0.765625)"/>
      <use xlink:href="#ArialMT-20" transform="translate(243.701172 0.765625)"/>
      <use xlink:href="#ArialMT-39" transform="translate(271.484375 0.765625)"/>
      <use xlink:href="#ArialMT-35" transform="translate(327.099609 0.765625)"/>
      <use xlink:href="#ArialMT-25" transform="translate(382.714844 0.765625)"/>
      <use xlink:href="#ArialMT-20" transform="translate(471.630859 0.765625)"/>
      <use xlink:href="#ArialMT-70" transform="translate(499.414062 0.765625)"/>
      <use xlink:href="#ArialMT-72" transform="translate(555.029297 0.765625)"/>
      <use xlink:href="#ArialMT-65" transform="translate(588.330078 0.765625)"/>
      <use xlink:href="#ArialMT-64" transform="translate(643.945312 0.765625)"/>
      <use xlink:href="#ArialMT-2e" transform="translate(699.560547 0.765625)"/>
     </g>
    </g>
    <g id="line2d_26">
     <g>
      <use xlink:href="#mae05a32425" x="301.250875" y="45.090875" style="stroke: #000000; stroke-width: 2"/>
     </g>
    </g>
    <g id="text_16">
     <!-- Observations -->
     <g style="fill: #262626" transform="translate(317.090875 48.170875) scale(0.088 -0.088)">
      <defs>
       <path id="ArialMT-4f" d="M 309 2231 
Q 309 3372 921 4017 
Q 1534 4663 2503 4663 
Q 3138 4663 3647 4359 
Q 4156 4056 4423 3514 
Q 4691 2972 4691 2284 
Q 4691 1588 4409 1038 
Q 4128 488 3612 205 
Q 3097 -78 2500 -78 
Q 1853 -78 1343 234 
Q 834 547 571 1087 
Q 309 1628 309 2231 
z
M 934 2222 
Q 934 1394 1379 917 
Q 1825 441 2497 441 
Q 3181 441 3623 922 
Q 4066 1403 4066 2288 
Q 4066 2847 3877 3264 
Q 3688 3681 3323 3911 
Q 2959 4141 2506 4141 
Q 1863 4141 1398 3698 
Q 934 3256 934 2222 
z
" transform="scale(0.015625)"/>
       <path id="ArialMT-62" d="M 941 0 
L 419 0 
L 419 4581 
L 981 4581 
L 981 2947 
Q 1338 3394 1891 3394 
Q 2197 3394 2470 3270 
Q 2744 3147 2920 2923 
Q 3097 2700 3197 2384 
Q 3297 2069 3297 1709 
Q 3297 856 2875 390 
Q 2453 -75 1863 -75 
Q 1275 -75 941 416 
L 941 0 
z
M 934 1684 
Q 934 1088 1097 822 
Q 1363 388 1816 388 
Q 2184 388 2453 708 
Q 2722 1028 2722 1663 
Q 2722 2313 2464 2622 
Q 2206 2931 1841 2931 
Q 1472 2931 1203 2611 
Q 934 2291 934 1684 
z
" transform="scale(0.015625)"/>
       <path id="ArialMT-73" d="M 197 991 
L 753 1078 
Q 800 744 1014 566 
Q 1228 388 1613 388 
Q 2000 388 2187 545 
Q 2375 703 2375 916 
Q 2375 1106 2209 1216 
Q 2094 1291 1634 1406 
Q 1016 1563 777 1677 
Q 538 1791 414 1992 
Q 291 2194 291 2438 
Q 291 2659 392 2848 
Q 494 3038 669 3163 
Q 800 3259 1026 3326 
Q 1253 3394 1513 3394 
Q 1903 3394 2198 3281 
Q 2494 3169 2634 2976 
Q 2775 2784 2828 2463 
L 2278 2388 
Q 2241 2644 2061 2787 
Q 1881 2931 1553 2931 
Q 1166 2931 1000 2803 
Q 834 2675 834 2503 
Q 834 2394 903 2306 
Q 972 2216 1119 2156 
Q 1203 2125 1616 2013 
Q 2213 1853 2448 1751 
Q 2684 1650 2818 1456 
Q 2953 1263 2953 975 
Q 2953 694 2789 445 
Q 2625 197 2315 61 
Q 2006 -75 1616 -75 
Q 969 -75 630 194 
Q 291 463 197 991 
z
" transform="scale(0.015625)"/>
       <path id="ArialMT-76" d="M 1344 0 
L 81 3319 
L 675 3319 
L 1388 1331 
Q 1503 1009 1600 663 
Q 1675 925 1809 1294 
L 2547 3319 
L 3125 3319 
L 1869 0 
L 1344 0 
z
" transform="scale(0.015625)"/>
       <path id="ArialMT-61" d="M 2588 409 
Q 2275 144 1986 34 
Q 1697 -75 1366 -75 
Q 819 -75 525 192 
Q 231 459 231 875 
Q 231 1119 342 1320 
Q 453 1522 633 1644 
Q 813 1766 1038 1828 
Q 1203 1872 1538 1913 
Q 2219 1994 2541 2106 
Q 2544 2222 2544 2253 
Q 2544 2597 2384 2738 
Q 2169 2928 1744 2928 
Q 1347 2928 1158 2789 
Q 969 2650 878 2297 
L 328 2372 
Q 403 2725 575 2942 
Q 747 3159 1072 3276 
Q 1397 3394 1825 3394 
Q 2250 3394 2515 3294 
Q 2781 3194 2906 3042 
Q 3031 2891 3081 2659 
Q 3109 2516 3109 2141 
L 3109 1391 
Q 3109 606 3145 398 
Q 3181 191 3288 0 
L 2700 0 
Q 2613 175 2588 409 
z
M 2541 1666 
Q 2234 1541 1622 1453 
Q 1275 1403 1131 1340 
Q 988 1278 909 1158 
Q 831 1038 831 891 
Q 831 666 1001 516 
Q 1172 366 1500 366 
Q 1825 366 2078 508 
Q 2331 650 2450 897 
Q 2541 1088 2541 1459 
L 2541 1666 
z
" transform="scale(0.015625)"/>
       <path id="ArialMT-74" d="M 1650 503 
L 1731 6 
Q 1494 -44 1306 -44 
Q 1000 -44 831 53 
Q 663 150 594 308 
Q 525 466 525 972 
L 525 2881 
L 113 2881 
L 113 3319 
L 525 3319 
L 525 4141 
L 1084 4478 
L 1084 3319 
L 1650 3319 
L 1650 2881 
L 1084 2881 
L 1084 941 
Q 1084 700 1114 631 
Q 1144 563 1211 522 
Q 1278 481 1403 481 
Q 1497 481 1650 503 
z
" transform="scale(0.015625)"/>
       <path id="ArialMT-69" d="M 425 3934 
L 425 4581 
L 988 4581 
L 988 3934 
L 425 3934 
z
M 425 0 
L 425 3319 
L 988 3319 
L 988 0 
L 425 0 
z
" transform="scale(0.015625)"/>
       <path id="ArialMT-6f" d="M 213 1659 
Q 213 2581 725 3025 
Q 1153 3394 1769 3394 
Q 2453 3394 2887 2945 
Q 3322 2497 3322 1706 
Q 3322 1066 3130 698 
Q 2938 331 2570 128 
Q 2203 -75 1769 -75 
Q 1072 -75 642 372 
Q 213 819 213 1659 
z
M 791 1659 
Q 791 1022 1069 705 
Q 1347 388 1769 388 
Q 2188 388 2466 706 
Q 2744 1025 2744 1678 
Q 2744 2294 2464 2611 
Q 2184 2928 1769 2928 
Q 1347 2928 1069 2612 
Q 791 2297 791 1659 
z
" transform="scale(0.015625)"/>
       <path id="ArialMT-6e" d="M 422 0 
L 422 3319 
L 928 3319 
L 928 2847 
Q 1294 3394 1984 3394 
Q 2284 3394 2536 3286 
Q 2788 3178 2913 3003 
Q 3038 2828 3088 2588 
Q 3119 2431 3119 2041 
L 3119 0 
L 2556 0 
L 2556 2019 
Q 2556 2363 2490 2533 
Q 2425 2703 2258 2804 
Q 2091 2906 1866 2906 
Q 1506 2906 1245 2678 
Q 984 2450 984 1813 
L 984 0 
L 422 0 
z
" transform="scale(0.015625)"/>
      </defs>
      <use xlink:href="#ArialMT-4f"/>
      <use xlink:href="#ArialMT-62" x="77.783203"/>
      <use xlink:href="#ArialMT-73" x="133.398438"/>
      <use xlink:href="#ArialMT-65" x="183.398438"/>
      <use xlink:href="#ArialMT-72" x="239.013672"/>
      <use xlink:href="#ArialMT-76" x="272.314453"/>
      <use xlink:href="#ArialMT-61" x="322.314453"/>
      <use xlink:href="#ArialMT-74" x="377.929688"/>
      <use xlink:href="#ArialMT-69" x="405.712891"/>
      <use xlink:href="#ArialMT-6f" x="427.929688"/>
      <use xlink:href="#ArialMT-6e" x="483.544922"/>
      <use xlink:href="#ArialMT-73" x="539.160156"/>
     </g>
    </g>
    <g id="line2d_27">
     <path d="M 292.450875 57.53875 
L 301.250875 57.53875 
L 310.050875 57.53875 
" style="fill: none; stroke: #ff0000; stroke-width: 0.5; stroke-linecap: round"/>
    </g>
    <g id="text_17">
     <!-- Posterior samples -->
     <g style="fill: #262626" transform="translate(317.090875 60.61875) scale(0.088 -0.088)">
      <defs>
       <path id="ArialMT-50" d="M 494 0 
L 494 4581 
L 2222 4581 
Q 2678 4581 2919 4538 
Q 3256 4481 3484 4323 
Q 3713 4166 3852 3881 
Q 3991 3597 3991 3256 
Q 3991 2672 3619 2267 
Q 3247 1863 2275 1863 
L 1100 1863 
L 1100 0 
L 494 0 
z
M 1100 2403 
L 2284 2403 
Q 2872 2403 3119 2622 
Q 3366 2841 3366 3238 
Q 3366 3525 3220 3729 
Q 3075 3934 2838 4000 
Q 2684 4041 2272 4041 
L 1100 4041 
L 1100 2403 
z
" transform="scale(0.015625)"/>
       <path id="ArialMT-6d" d="M 422 0 
L 422 3319 
L 925 3319 
L 925 2853 
Q 1081 3097 1340 3245 
Q 1600 3394 1931 3394 
Q 2300 3394 2536 3241 
Q 2772 3088 2869 2813 
Q 3263 3394 3894 3394 
Q 4388 3394 4653 3120 
Q 4919 2847 4919 2278 
L 4919 0 
L 4359 0 
L 4359 2091 
Q 4359 2428 4304 2576 
Q 4250 2725 4106 2815 
Q 3963 2906 3769 2906 
Q 3419 2906 3187 2673 
Q 2956 2441 2956 1928 
L 2956 0 
L 2394 0 
L 2394 2156 
Q 2394 2531 2256 2718 
Q 2119 2906 1806 2906 
Q 1569 2906 1367 2781 
Q 1166 2656 1075 2415 
Q 984 2175 984 1722 
L 984 0 
L 422 0 
z
" transform="scale(0.015625)"/>
       <path id="ArialMT-6c" d="M 409 0 
L 409 4581 
L 972 4581 
L 972 0 
L 409 0 
z
" transform="scale(0.015625)"/>
      </defs>
      <use xlink:href="#ArialMT-50"/>
      <use xlink:href="#ArialMT-6f" x="66.699219"/>
      <use xlink:href="#ArialMT-73" x="122.314453"/>
      <use xlink:href="#ArialMT-74" x="172.314453"/>
      <use xlink:href="#ArialMT-65" x="200.097656"/>
      <use xlink:href="#ArialMT-72" x="255.712891"/>
      <use xlink:href="#ArialMT-69" x="289.013672"/>
      <use xlink:href="#ArialMT-6f" x="311.230469"/>
      <use xlink:href="#ArialMT-72" x="366.845703"/>
      <use xlink:href="#ArialMT-20" x="400.146484"/>
      <use xlink:href="#ArialMT-73" x="427.929688"/>
      <use xlink:href="#ArialMT-61" x="477.929688"/>
      <use xlink:href="#ArialMT-6d" x="533.544922"/>
      <use xlink:href="#ArialMT-70" x="616.845703"/>
      <use xlink:href="#ArialMT-6c" x="672.460938"/>
      <use xlink:href="#ArialMT-65" x="694.677734"/>
      <use xlink:href="#ArialMT-73" x="750.292969"/>
     </g>
    </g>
   </g>
  </g>
 </g>
 <defs>
  <clipPath id="p24f7de882e">
   <rect x="38.312875" y="7.2" width="357.12" height="266.112"/>
  </clipPath>
 </defs>
</svg>