<?xml version="1.0" encoding="utf-8" standalone="no"?>
<!DOCTYPE svg PUBLIC "-//W3C//DTD SVG 1.1//EN"
  "http://www.w3.org/Graphics/SVG/1.1/DTD/svg11.dtd">
<svg xmlns:xlink="http://www.w3.org/1999/xlink" width="397.493125pt" height="322.510875pt" viewBox="0 0 397.493125 322.510875" xmlns="http://www.w3.org/2000/svg" version="1.1">
 <metadata>
  <rdf:RDF xmlns:dc="http://purl.org/dc/elements/1.1/" xmlns:cc="http://creativecommons.org/ns#" xmlns:rdf="http://www.w3.org/1999/02/22-rdf-syntax-ns#">
   <cc:Work>
    <dc:type rdf:resource="http://purl.org/dc/dcmitype/StillImage"/>
    <dc:date>2023-10-26T19:22:07.275356</dc:date>
    <dc:format>image/svg+xml</dc:format>
    <dc:creator>
     <cc:Agent>
      <dc:title>Matplotlib v3.8.0, https://matplotlib.org/</dc:title>
     </cc:Agent>
    </dc:creator>
   </cc:Work>
  </rdf:RDF>
 </metadata>
 <defs>
  <style type="text/css">*{stroke-linejoin: round; stroke-linecap: butt}</style>
 </defs>
 <g id="figure_1">
  <g id="patch_1">
   <path d="M 0 322.510875 
L 397.493125 322.510875 
L 397.493125 0 
L 0 0 
z
" style="fill: #ffffff"/>
  </g>
  <g id="axes_1">
   <g id="patch_2">
    <path d="M 33.173125 286.1835 
L 390.293125 286.1835 
L 390.293125 20.0715 
L 33.173125 20.0715 
z
" style="fill: #ffffff"/>
   </g>
   <g id="matplotlib.axis_1">
    <g id="xtick_1">
     <g id="line2d_1">
      <defs>
       <path id="ma6b2dd8651" d="M 0 0 
L 0 4.8 
" style="stroke: #262626"/>
      </defs>
      <g>
       <use xlink:href="#ma6b2dd8651" x="77.191602" y="286.1835" style="fill: #262626; stroke: #262626"/>
      </g>
     </g>
     <g id="text_1">
      <!-- 1860 -->
      <g style="fill: #262626" transform="translate(67.404352 300.782375) scale(0.088 -0.088)">
       <defs>
        <path id="ArialMT-31" d="M 2384 0 
L 1822 0 
L 1822 3584 
Q 1619 3391 1289 3197 
Q 959 3003 697 2906 
L 697 3450 
Q 1169 3672 1522 3987 
Q 1875 4303 2022 4600 
L 2384 4600 
L 2384 0 
z
" transform="scale(0.015625)"/>
        <path id="ArialMT-38" d="M 1131 2484 
Q 781 2613 612 2850 
Q 444 3088 444 3419 
Q 444 3919 803 4259 
Q 1163 4600 1759 4600 
Q 2359 4600 2725 4251 
Q 3091 3903 3091 3403 
Q 3091 3084 2923 2848 
Q 2756 2613 2416 2484 
Q 2838 2347 3058 2040 
Q 3278 1734 3278 1309 
Q 3278 722 2862 322 
Q 2447 -78 1769 -78 
Q 1091 -78 675 323 
Q 259 725 259 1325 
Q 259 1772 486 2073 
Q 713 2375 1131 2484 
z
M 1019 3438 
Q 1019 3113 1228 2906 
Q 1438 2700 1772 2700 
Q 2097 2700 2305 2904 
Q 2513 3109 2513 3406 
Q 2513 3716 2298 3927 
Q 2084 4138 1766 4138 
Q 1444 4138 1231 3931 
Q 1019 3725 1019 3438 
z
M 838 1322 
Q 838 1081 952 856 
Q 1066 631 1291 507 
Q 1516 384 1775 384 
Q 2178 384 2440 643 
Q 2703 903 2703 1303 
Q 2703 1709 2433 1975 
Q 2163 2241 1756 2241 
Q 1359 2241 1098 1978 
Q 838 1716 838 1322 
z
" transform="scale(0.015625)"/>
        <path id="ArialMT-36" d="M 3184 3459 
L 2625 3416 
Q 2550 3747 2413 3897 
Q 2184 4138 1850 4138 
Q 1581 4138 1378 3988 
Q 1113 3794 959 3422 
Q 806 3050 800 2363 
Q 1003 2672 1297 2822 
Q 1591 2972 1913 2972 
Q 2475 2972 2870 2558 
Q 3266 2144 3266 1488 
Q 3266 1056 3080 686 
Q 2894 316 2569 119 
Q 2244 -78 1831 -78 
Q 1128 -78 684 439 
Q 241 956 241 2144 
Q 241 3472 731 4075 
Q 1159 4600 1884 4600 
Q 2425 4600 2770 4297 
Q 3116 3994 3184 3459 
z
M 888 1484 
Q 888 1194 1011 928 
Q 1134 663 1356 523 
Q 1578 384 1822 384 
Q 2178 384 2434 671 
Q 2691 959 2691 1453 
Q 2691 1928 2437 2201 
Q 2184 2475 1800 2475 
Q 1419 2475 1153 2201 
Q 888 1928 888 1484 
z
" transform="scale(0.015625)"/>
        <path id="ArialMT-30" d="M 266 2259 
Q 266 3072 433 3567 
Q 600 4063 929 4331 
Q 1259 4600 1759 4600 
Q 2128 4600 2406 4451 
Q 2684 4303 2865 4023 
Q 3047 3744 3150 3342 
Q 3253 2941 3253 2259 
Q 3253 1453 3087 958 
Q 2922 463 2592 192 
Q 2263 -78 1759 -78 
Q 1097 -78 719 397 
Q 266 969 266 2259 
z
M 844 2259 
Q 844 1131 1108 757 
Q 1372 384 1759 384 
Q 2147 384 2411 759 
Q 2675 1134 2675 2259 
Q 2675 3391 2411 3762 
Q 2147 4134 1753 4134 
Q 1366 4134 1134 3806 
Q 844 3388 844 2259 
z
" transform="scale(0.015625)"/>
       </defs>
       <use xlink:href="#ArialMT-31"/>
       <use xlink:href="#ArialMT-38" x="55.615234"/>
       <use xlink:href="#ArialMT-36" x="111.230469"/>
       <use xlink:href="#ArialMT-30" x="166.845703"/>
      </g>
     </g>
    </g>
    <g id="xtick_2">
     <g id="line2d_2">
      <g>
       <use xlink:href="#ma6b2dd8651" x="135.687916" y="286.1835" style="fill: #262626; stroke: #262626"/>
      </g>
     </g>
     <g id="text_2">
      <!-- 1880 -->
      <g style="fill: #262626" transform="translate(125.900666 300.782375) scale(0.088 -0.088)">
       <use xlink:href="#ArialMT-31"/>
       <use xlink:href="#ArialMT-38" x="55.615234"/>
       <use xlink:href="#ArialMT-38" x="111.230469"/>
       <use xlink:href="#ArialMT-30" x="166.845703"/>
      </g>
     </g>
    </g>
    <g id="xtick_3">
     <g id="line2d_3">
      <g>
       <use xlink:href="#ma6b2dd8651" x="194.184231" y="286.1835" style="fill: #262626; stroke: #262626"/>
      </g>
     </g>
     <g id="text_3">
      <!-- 1900 -->
      <g style="fill: #262626" transform="translate(184.396981 300.782375) scale(0.088 -0.088)">
       <defs>
        <path id="ArialMT-39" d="M 350 1059 
L 891 1109 
Q 959 728 1153 556 
Q 1347 384 1650 384 
Q 1909 384 2104 503 
Q 2300 622 2425 820 
Q 2550 1019 2634 1356 
Q 2719 1694 2719 2044 
Q 2719 2081 2716 2156 
Q 2547 1888 2255 1720 
Q 1963 1553 1622 1553 
Q 1053 1553 659 1965 
Q 266 2378 266 3053 
Q 266 3750 677 4175 
Q 1088 4600 1706 4600 
Q 2153 4600 2523 4359 
Q 2894 4119 3086 3673 
Q 3278 3228 3278 2384 
Q 3278 1506 3087 986 
Q 2897 466 2520 194 
Q 2144 -78 1638 -78 
Q 1100 -78 759 220 
Q 419 519 350 1059 
z
M 2653 3081 
Q 2653 3566 2395 3850 
Q 2138 4134 1775 4134 
Q 1400 4134 1122 3828 
Q 844 3522 844 3034 
Q 844 2597 1108 2323 
Q 1372 2050 1759 2050 
Q 2150 2050 2401 2323 
Q 2653 2597 2653 3081 
z
" transform="scale(0.015625)"/>
       </defs>
       <use xlink:href="#ArialMT-31"/>
       <use xlink:href="#ArialMT-39" x="55.615234"/>
       <use xlink:href="#ArialMT-30" x="111.230469"/>
       <use xlink:href="#ArialMT-30" x="166.845703"/>
      </g>
     </g>
    </g>
    <g id="xtick_4">
     <g id="line2d_4">
      <g>
       <use xlink:href="#ma6b2dd8651" x="252.680545" y="286.1835" style="fill: #262626; stroke: #262626"/>
      </g>
     </g>
     <g id="text_4">
      <!-- 1920 -->
      <g style="fill: #262626" transform="translate(242.893295 300.782375) scale(0.088 -0.088)">
       <defs>
        <path id="ArialMT-32" d="M 3222 541 
L 3222 0 
L 194 0 
Q 188 203 259 391 
Q 375 700 629 1000 
Q 884 1300 1366 1694 
Q 2113 2306 2375 2664 
Q 2638 3022 2638 3341 
Q 2638 3675 2398 3904 
Q 2159 4134 1775 4134 
Q 1369 4134 1125 3890 
Q 881 3647 878 3216 
L 300 3275 
Q 359 3922 746 4261 
Q 1134 4600 1788 4600 
Q 2447 4600 2831 4234 
Q 3216 3869 3216 3328 
Q 3216 3053 3103 2787 
Q 2991 2522 2730 2228 
Q 2469 1934 1863 1422 
Q 1356 997 1212 845 
Q 1069 694 975 541 
L 3222 541 
z
" transform="scale(0.015625)"/>
       </defs>
       <use xlink:href="#ArialMT-31"/>
       <use xlink:href="#ArialMT-39" x="55.615234"/>
       <use xlink:href="#ArialMT-32" x="111.230469"/>
       <use xlink:href="#ArialMT-30" x="166.845703"/>
      </g>
     </g>
    </g>
    <g id="xtick_5">
     <g id="line2d_5">
      <g>
       <use xlink:href="#ma6b2dd8651" x="311.17686" y="286.1835" style="fill: #262626; stroke: #262626"/>
      </g>
     </g>
     <g id="text_5">
      <!-- 1940 -->
      <g style="fill: #262626" transform="translate(301.38961 300.782375) scale(0.088 -0.088)">
       <defs>
        <path id="ArialMT-34" d="M 2069 0 
L 2069 1097 
L 81 1097 
L 81 1613 
L 2172 4581 
L 2631 4581 
L 2631 1613 
L 3250 1613 
L 3250 1097 
L 2631 1097 
L 2631 0 
L 2069 0 
z
M 2069 1613 
L 2069 3678 
L 634 1613 
L 2069 1613 
z
" transform="scale(0.015625)"/>
       </defs>
       <use xlink:href="#ArialMT-31"/>
       <use xlink:href="#ArialMT-39" x="55.615234"/>
       <use xlink:href="#ArialMT-34" x="111.230469"/>
       <use xlink:href="#ArialMT-30" x="166.845703"/>
      </g>
     </g>
    </g>
    <g id="xtick_6">
     <g id="line2d_6">
      <g>
       <use xlink:href="#ma6b2dd8651" x="369.673174" y="286.1835" style="fill: #262626; stroke: #262626"/>
      </g>
     </g>
     <g id="text_6">
      <!-- 1960 -->
      <g style="fill: #262626" transform="translate(359.885924 300.782375) scale(0.088 -0.088)">
       <use xlink:href="#ArialMT-31"/>
       <use xlink:href="#ArialMT-39" x="55.615234"/>
       <use xlink:href="#ArialMT-36" x="111.230469"/>
       <use xlink:href="#ArialMT-30" x="166.845703"/>
      </g>
     </g>
    </g>
    <g id="text_7">
     <!-- Year -->
     <g style="fill: #262626" transform="translate(202.032625 313.402875) scale(0.096 -0.096)">
      <defs>
       <path id="ArialMT-59" d="M 1784 0 
L 1784 1941 
L 19 4581 
L 756 4581 
L 1659 3200 
Q 1909 2813 2125 2425 
Q 2331 2784 2625 3234 
L 3513 4581 
L 4219 4581 
L 2391 1941 
L 2391 0 
L 1784 0 
z
" transform="scale(0.015625)"/>
       <path id="ArialMT-65" d="M 2694 1069 
L 3275 997 
Q 3138 488 2766 206 
Q 2394 -75 1816 -75 
Q 1088 -75 661 373 
Q 234 822 234 1631 
Q 234 2469 665 2931 
Q 1097 3394 1784 3394 
Q 2450 3394 2872 2941 
Q 3294 2488 3294 1666 
Q 3294 1616 3291 1516 
L 816 1516 
Q 847 969 1125 678 
Q 1403 388 1819 388 
Q 2128 388 2347 550 
Q 2566 713 2694 1069 
z
M 847 1978 
L 2700 1978 
Q 2663 2397 2488 2606 
Q 2219 2931 1791 2931 
Q 1403 2931 1139 2672 
Q 875 2413 847 1978 
z
" transform="scale(0.015625)"/>
       <path id="ArialMT-61" d="M 2588 409 
Q 2275 144 1986 34 
Q 1697 -75 1366 -75 
Q 819 -75 525 192 
Q 231 459 231 875 
Q 231 1119 342 1320 
Q 453 1522 633 1644 
Q 813 1766 1038 1828 
Q 1203 1872 1538 1913 
Q 2219 1994 2541 2106 
Q 2544 2222 2544 2253 
Q 2544 2597 2384 2738 
Q 2169 2928 1744 2928 
Q 1347 2928 1158 2789 
Q 969 2650 878 2297 
L 328 2372 
Q 403 2725 575 2942 
Q 747 3159 1072 3276 
Q 1397 3394 1825 3394 
Q 2250 3394 2515 3294 
Q 2781 3194 2906 3042 
Q 3031 2891 3081 2659 
Q 3109 2516 3109 2141 
L 3109 1391 
Q 3109 606 3145 398 
Q 3181 191 3288 0 
L 2700 0 
Q 2613 175 2588 409 
z
M 2541 1666 
Q 2234 1541 1622 1453 
Q 1275 1403 1131 1340 
Q 988 1278 909 1158 
Q 831 1038 831 891 
Q 831 666 1001 516 
Q 1172 366 1500 366 
Q 1825 366 2078 508 
Q 2331 650 2450 897 
Q 2541 1088 2541 1459 
L 2541 1666 
z
" transform="scale(0.015625)"/>
       <path id="ArialMT-72" d="M 416 0 
L 416 3319 
L 922 3319 
L 922 2816 
Q 1116 3169 1280 3281 
Q 1444 3394 1641 3394 
Q 1925 3394 2219 3213 
L 2025 2691 
Q 1819 2813 1613 2813 
Q 1428 2813 1281 2702 
Q 1134 2591 1072 2394 
Q 978 2094 978 1738 
L 978 0 
L 416 0 
z
" transform="scale(0.015625)"/>
      </defs>
      <use xlink:href="#ArialMT-59"/>
      <use xlink:href="#ArialMT-65" x="57.574219"/>
      <use xlink:href="#ArialMT-61" x="113.189453"/>
      <use xlink:href="#ArialMT-72" x="168.804688"/>
     </g>
    </g>
   </g>
   <g id="matplotlib.axis_2">
    <g id="ytick_1">
     <g id="line2d_7">
      <defs>
       <path id="m5de4957d5a" d="M 0 0 
L -4.8 0 
" style="stroke: #262626"/>
      </defs>
      <g>
       <use xlink:href="#m5de4957d5a" x="33.173125" y="286.1835" style="fill: #262626; stroke: #262626"/>
      </g>
     </g>
     <g id="text_8">
      <!-- 0 -->
      <g style="fill: #262626" transform="translate(19.9795 289.332937) scale(0.088 -0.088)">
       <use xlink:href="#ArialMT-30"/>
      </g>
     </g>
    </g>
    <g id="ytick_2">
     <g id="line2d_8">
      <g>
       <use xlink:href="#m5de4957d5a" x="33.173125" y="243.9435" style="fill: #262626; stroke: #262626"/>
      </g>
     </g>
     <g id="text_9">
      <!-- 1 -->
      <g style="fill: #262626" transform="translate(19.9795 247.092937) scale(0.088 -0.088)">
       <use xlink:href="#ArialMT-31"/>
      </g>
     </g>
    </g>
    <g id="ytick_3">
     <g id="line2d_9">
      <g>
       <use xlink:href="#m5de4957d5a" x="33.173125" y="201.7035" style="fill: #262626; stroke: #262626"/>
      </g>
     </g>
     <g id="text_10">
      <!-- 2 -->
      <g style="fill: #262626" transform="translate(19.9795 204.852937) scale(0.088 -0.088)">
       <use xlink:href="#ArialMT-32"/>
      </g>
     </g>
    </g>
    <g id="ytick_4">
     <g id="line2d_10">
      <g>
       <use xlink:href="#m5de4957d5a" x="33.173125" y="159.4635" style="fill: #262626; stroke: #262626"/>
      </g>
     </g>
     <g id="text_11">
      <!-- 3 -->
      <g style="fill: #262626" transform="translate(19.9795 162.612937) scale(0.088 -0.088)">
       <defs>
        <path id="ArialMT-33" d="M 269 1209 
L 831 1284 
Q 928 806 1161 595 
Q 1394 384 1728 384 
Q 2125 384 2398 659 
Q 2672 934 2672 1341 
Q 2672 1728 2419 1979 
Q 2166 2231 1775 2231 
Q 1616 2231 1378 2169 
L 1441 2663 
Q 1497 2656 1531 2656 
Q 1891 2656 2178 2843 
Q 2466 3031 2466 3422 
Q 2466 3731 2256 3934 
Q 2047 4138 1716 4138 
Q 1388 4138 1169 3931 
Q 950 3725 888 3313 
L 325 3413 
Q 428 3978 793 4289 
Q 1159 4600 1703 4600 
Q 2078 4600 2393 4439 
Q 2709 4278 2876 4000 
Q 3044 3722 3044 3409 
Q 3044 3113 2884 2869 
Q 2725 2625 2413 2481 
Q 2819 2388 3044 2092 
Q 3269 1797 3269 1353 
Q 3269 753 2831 336 
Q 2394 -81 1725 -81 
Q 1122 -81 723 278 
Q 325 638 269 1209 
z
" transform="scale(0.015625)"/>
       </defs>
       <use xlink:href="#ArialMT-33"/>
      </g>
     </g>
    </g>
    <g id="ytick_5">
     <g id="line2d_11">
      <g>
       <use xlink:href="#m5de4957d5a" x="33.173125" y="117.2235" style="fill: #262626; stroke: #262626"/>
      </g>
     </g>
     <g id="text_12">
      <!-- 4 -->
      <g style="fill: #262626" transform="translate(19.9795 120.372937) scale(0.088 -0.088)">
       <use xlink:href="#ArialMT-34"/>
      </g>
     </g>
    </g>
    <g id="ytick_6">
     <g id="line2d_12">
      <g>
       <use xlink:href="#m5de4957d5a" x="33.173125" y="74.9835" style="fill: #262626; stroke: #262626"/>
      </g>
     </g>
     <g id="text_13">
      <!-- 5 -->
      <g style="fill: #262626" transform="translate(19.9795 78.132937) scale(0.088 -0.088)">
       <defs>
        <path id="ArialMT-35" d="M 266 1200 
L 856 1250 
Q 922 819 1161 601 
Q 1400 384 1738 384 
Q 2144 384 2425 690 
Q 2706 997 2706 1503 
Q 2706 1984 2436 2262 
Q 2166 2541 1728 2541 
Q 1456 2541 1237 2417 
Q 1019 2294 894 2097 
L 366 2166 
L 809 4519 
L 3088 4519 
L 3088 3981 
L 1259 3981 
L 1013 2750 
Q 1425 3038 1878 3038 
Q 2478 3038 2890 2622 
Q 3303 2206 3303 1553 
Q 3303 931 2941 478 
Q 2500 -78 1738 -78 
Q 1113 -78 717 272 
Q 322 622 266 1200 
z
" transform="scale(0.015625)"/>
       </defs>
       <use xlink:href="#ArialMT-35"/>
      </g>
     </g>
    </g>
    <g id="ytick_7">
     <g id="line2d_13">
      <g>
       <use xlink:href="#m5de4957d5a" x="33.173125" y="32.7435" style="fill: #262626; stroke: #262626"/>
      </g>
     </g>
     <g id="text_14">
      <!-- 6 -->
      <g style="fill: #262626" transform="translate(19.9795 35.892937) scale(0.088 -0.088)">
       <use xlink:href="#ArialMT-36"/>
      </g>
     </g>
    </g>
    <g id="text_15">
     <!-- Number of disasters -->
     <g style="fill: #262626" transform="translate(14.0715 196.074) rotate(-90) scale(0.096 -0.096)">
      <defs>
       <path id="ArialMT-4e" d="M 488 0 
L 488 4581 
L 1109 4581 
L 3516 984 
L 3516 4581 
L 4097 4581 
L 4097 0 
L 3475 0 
L 1069 3600 
L 1069 0 
L 488 0 
z
" transform="scale(0.015625)"/>
       <path id="ArialMT-75" d="M 2597 0 
L 2597 488 
Q 2209 -75 1544 -75 
Q 1250 -75 995 37 
Q 741 150 617 320 
Q 494 491 444 738 
Q 409 903 409 1263 
L 409 3319 
L 972 3319 
L 972 1478 
Q 972 1038 1006 884 
Q 1059 663 1231 536 
Q 1403 409 1656 409 
Q 1909 409 2131 539 
Q 2353 669 2445 892 
Q 2538 1116 2538 1541 
L 2538 3319 
L 3100 3319 
L 3100 0 
L 2597 0 
z
" transform="scale(0.015625)"/>
       <path id="ArialMT-6d" d="M 422 0 
L 422 3319 
L 925 3319 
L 925 2853 
Q 1081 3097 1340 3245 
Q 1600 3394 1931 3394 
Q 2300 3394 2536 3241 
Q 2772 3088 2869 2813 
Q 3263 3394 3894 3394 
Q 4388 3394 4653 3120 
Q 4919 2847 4919 2278 
L 4919 0 
L 4359 0 
L 4359 2091 
Q 4359 2428 4304 2576 
Q 4250 2725 4106 2815 
Q 3963 2906 3769 2906 
Q 3419 2906 3187 2673 
Q 2956 2441 2956 1928 
L 2956 0 
L 2394 0 
L 2394 2156 
Q 2394 2531 2256 2718 
Q 2119 2906 1806 2906 
Q 1569 2906 1367 2781 
Q 1166 2656 1075 2415 
Q 984 2175 984 1722 
L 984 0 
L 422 0 
z
" transform="scale(0.015625)"/>
       <path id="ArialMT-62" d="M 941 0 
L 419 0 
L 419 4581 
L 981 4581 
L 981 2947 
Q 1338 3394 1891 3394 
Q 2197 3394 2470 3270 
Q 2744 3147 2920 2923 
Q 3097 2700 3197 2384 
Q 3297 2069 3297 1709 
Q 3297 856 2875 390 
Q 2453 -75 1863 -75 
Q 1275 -75 941 416 
L 941 0 
z
M 934 1684 
Q 934 1088 1097 822 
Q 1363 388 1816 388 
Q 2184 388 2453 708 
Q 2722 1028 2722 1663 
Q 2722 2313 2464 2622 
Q 2206 2931 1841 2931 
Q 1472 2931 1203 2611 
Q 934 2291 934 1684 
z
" transform="scale(0.015625)"/>
       <path id="ArialMT-20" transform="scale(0.015625)"/>
       <path id="ArialMT-6f" d="M 213 1659 
Q 213 2581 725 3025 
Q 1153 3394 1769 3394 
Q 2453 3394 2887 2945 
Q 3322 2497 3322 1706 
Q 3322 1066 3130 698 
Q 2938 331 2570 128 
Q 2203 -75 1769 -75 
Q 1072 -75 642 372 
Q 213 819 213 1659 
z
M 791 1659 
Q 791 1022 1069 705 
Q 1347 388 1769 388 
Q 2188 388 2466 706 
Q 2744 1025 2744 1678 
Q 2744 2294 2464 2611 
Q 2184 2928 1769 2928 
Q 1347 2928 1069 2612 
Q 791 2297 791 1659 
z
" transform="scale(0.015625)"/>
       <path id="ArialMT-66" d="M 556 0 
L 556 2881 
L 59 2881 
L 59 3319 
L 556 3319 
L 556 3672 
Q 556 4006 616 4169 
Q 697 4388 901 4523 
Q 1106 4659 1475 4659 
Q 1713 4659 2000 4603 
L 1916 4113 
Q 1741 4144 1584 4144 
Q 1328 4144 1222 4034 
Q 1116 3925 1116 3625 
L 1116 3319 
L 1763 3319 
L 1763 2881 
L 1116 2881 
L 1116 0 
L 556 0 
z
" transform="scale(0.015625)"/>
       <path id="ArialMT-64" d="M 2575 0 
L 2575 419 
Q 2259 -75 1647 -75 
Q 1250 -75 917 144 
Q 584 363 401 755 
Q 219 1147 219 1656 
Q 219 2153 384 2558 
Q 550 2963 881 3178 
Q 1213 3394 1622 3394 
Q 1922 3394 2156 3267 
Q 2391 3141 2538 2938 
L 2538 4581 
L 3097 4581 
L 3097 0 
L 2575 0 
z
M 797 1656 
Q 797 1019 1065 703 
Q 1334 388 1700 388 
Q 2069 388 2326 689 
Q 2584 991 2584 1609 
Q 2584 2291 2321 2609 
Q 2059 2928 1675 2928 
Q 1300 2928 1048 2622 
Q 797 2316 797 1656 
z
" transform="scale(0.015625)"/>
       <path id="ArialMT-69" d="M 425 3934 
L 425 4581 
L 988 4581 
L 988 3934 
L 425 3934 
z
M 425 0 
L 425 3319 
L 988 3319 
L 988 0 
L 425 0 
z
" transform="scale(0.015625)"/>
       <path id="ArialMT-73" d="M 197 991 
L 753 1078 
Q 800 744 1014 566 
Q 1228 388 1613 388 
Q 2000 388 2187 545 
Q 2375 703 2375 916 
Q 2375 1106 2209 1216 
Q 2094 1291 1634 1406 
Q 1016 1563 777 1677 
Q 538 1791 414 1992 
Q 291 2194 291 2438 
Q 291 2659 392 2848 
Q 494 3038 669 3163 
Q 800 3259 1026 3326 
Q 1253 3394 1513 3394 
Q 1903 3394 2198 3281 
Q 2494 3169 2634 2976 
Q 2775 2784 2828 2463 
L 2278 2388 
Q 2241 2644 2061 2787 
Q 1881 2931 1553 2931 
Q 1166 2931 1000 2803 
Q 834 2675 834 2503 
Q 834 2394 903 2306 
Q 972 2216 1119 2156 
Q 1203 2125 1616 2013 
Q 2213 1853 2448 1751 
Q 2684 1650 2818 1456 
Q 2953 1263 2953 975 
Q 2953 694 2789 445 
Q 2625 197 2315 61 
Q 2006 -75 1616 -75 
Q 969 -75 630 194 
Q 291 463 197 991 
z
" transform="scale(0.015625)"/>
       <path id="ArialMT-74" d="M 1650 503 
L 1731 6 
Q 1494 -44 1306 -44 
Q 1000 -44 831 53 
Q 663 150 594 308 
Q 525 466 525 972 
L 525 2881 
L 113 2881 
L 113 3319 
L 525 3319 
L 525 4141 
L 1084 4478 
L 1084 3319 
L 1650 3319 
L 1650 2881 
L 1084 2881 
L 1084 941 
Q 1084 700 1114 631 
Q 1144 563 1211 522 
Q 1278 481 1403 481 
Q 1497 481 1650 503 
z
" transform="scale(0.015625)"/>
      </defs>
      <use xlink:href="#ArialMT-4e"/>
      <use xlink:href="#ArialMT-75" x="72.216797"/>
      <use xlink:href="#ArialMT-6d" x="127.832031"/>
      <use xlink:href="#ArialMT-62" x="211.132812"/>
      <use xlink:href="#ArialMT-65" x="266.748047"/>
      <use xlink:href="#ArialMT-72" x="322.363281"/>
      <use xlink:href="#ArialMT-20" x="355.664062"/>
      <use xlink:href="#ArialMT-6f" x="383.447266"/>
      <use xlink:href="#ArialMT-66" x="439.0625"/>
      <use xlink:href="#ArialMT-20" x="466.845703"/>
      <use xlink:href="#ArialMT-64" x="494.628906"/>
      <use xlink:href="#ArialMT-69" x="550.244141"/>
      <use xlink:href="#ArialMT-73" x="572.460938"/>
      <use xlink:href="#ArialMT-61" x="622.460938"/>
      <use xlink:href="#ArialMT-73" x="678.076172"/>
      <use xlink:href="#ArialMT-74" x="728.076172"/>
      <use xlink:href="#ArialMT-65" x="755.859375"/>
      <use xlink:href="#ArialMT-72" x="811.474609"/>
      <use xlink:href="#ArialMT-73" x="844.775391"/>
     </g>
    </g>
   </g>
   <g id="patch_3">
    <path d="M 49.405852 286.1835 
L 52.330668 286.1835 
L 52.330668 117.2235 
L 49.405852 117.2235 
z
" clip-path="url(#pc89cedb753)" style="fill: #1f77b4; stroke: #ffffff; stroke-width: 0.8; stroke-linejoin: miter"/>
   </g>
   <g id="patch_4">
    <path d="M 52.330668 286.1835 
L 55.255484 286.1835 
L 55.255484 74.9835 
L 52.330668 74.9835 
z
" clip-path="url(#pc89cedb753)" style="fill: #1f77b4; stroke: #ffffff; stroke-width: 0.8; stroke-linejoin: miter"/>
   </g>
   <g id="patch_5">
    <path d="M 55.255484 286.1835 
L 58.180299 286.1835 
L 58.180299 117.2235 
L 55.255484 117.2235 
z
" clip-path="url(#pc89cedb753)" style="fill: #1f77b4; stroke: #ffffff; stroke-width: 0.8; stroke-linejoin: miter"/>
   </g>
   <g id="patch_6">
    <path d="M 58.180299 286.1835 
L 61.105115 286.1835 
L 61.105115 286.1835 
L 58.180299 286.1835 
z
" clip-path="url(#pc89cedb753)" style="fill: #1f77b4; stroke: #ffffff; stroke-width: 0.8; stroke-linejoin: miter"/>
   </g>
   <g id="patch_7">
    <path d="M 61.105115 286.1835 
L 64.029931 286.1835 
L 64.029931 243.9435 
L 61.105115 243.9435 
z
" clip-path="url(#pc89cedb753)" style="fill: #1f77b4; stroke: #ffffff; stroke-width: 0.8; stroke-linejoin: miter"/>
   </g>
   <g id="patch_8">
    <path d="M 64.029931 286.1835 
L 66.954747 286.1835 
L 66.954747 117.2235 
L 64.029931 117.2235 
z
" clip-path="url(#pc89cedb753)" style="fill: #1f77b4; stroke: #ffffff; stroke-width: 0.8; stroke-linejoin: miter"/>
   </g>
   <g id="patch_9">
    <path d="M 66.954747 286.1835 
L 69.879562 286.1835 
L 69.879562 159.4635 
L 66.954747 159.4635 
z
" clip-path="url(#pc89cedb753)" style="fill: #1f77b4; stroke: #ffffff; stroke-width: 0.8; stroke-linejoin: miter"/>
   </g>
   <g id="patch_10">
    <path d="M 69.879562 286.1835 
L 72.804378 286.1835 
L 72.804378 117.2235 
L 69.879562 117.2235 
z
" clip-path="url(#pc89cedb753)" style="fill: #1f77b4; stroke: #ffffff; stroke-width: 0.8; stroke-linejoin: miter"/>
   </g>
   <g id="patch_11">
    <path d="M 72.804378 286.1835 
L 75.729194 286.1835 
L 75.729194 286.1835 
L 72.804378 286.1835 
z
" clip-path="url(#pc89cedb753)" style="fill: #1f77b4; stroke: #ffffff; stroke-width: 0.8; stroke-linejoin: miter"/>
   </g>
   <g id="patch_12">
    <path d="M 75.729194 286.1835 
L 78.65401 286.1835 
L 78.65401 32.7435 
L 75.729194 32.7435 
z
" clip-path="url(#pc89cedb753)" style="fill: #1f77b4; stroke: #ffffff; stroke-width: 0.8; stroke-linejoin: miter"/>
   </g>
   <g id="patch_13">
    <path d="M 78.65401 286.1835 
L 81.578825 286.1835 
L 81.578825 159.4635 
L 78.65401 159.4635 
z
" clip-path="url(#pc89cedb753)" style="fill: #1f77b4; stroke: #ffffff; stroke-width: 0.8; stroke-linejoin: miter"/>
   </g>
   <g id="patch_14">
    <path d="M 81.578825 286.1835 
L 84.503641 286.1835 
L 84.503641 159.4635 
L 81.578825 159.4635 
z
" clip-path="url(#pc89cedb753)" style="fill: #1f77b4; stroke: #ffffff; stroke-width: 0.8; stroke-linejoin: miter"/>
   </g>
   <g id="patch_15">
    <path d="M 84.503641 286.1835 
L 87.428457 286.1835 
L 87.428457 117.2235 
L 84.503641 117.2235 
z
" clip-path="url(#pc89cedb753)" style="fill: #1f77b4; stroke: #ffffff; stroke-width: 0.8; stroke-linejoin: miter"/>
   </g>
   <g id="patch_16">
    <path d="M 87.428457 286.1835 
L 90.353272 286.1835 
L 90.353272 286.1835 
L 87.428457 286.1835 
z
" clip-path="url(#pc89cedb753)" style="fill: #1f77b4; stroke: #ffffff; stroke-width: 0.8; stroke-linejoin: miter"/>
   </g>
   <g id="patch_17">
    <path d="M 90.353272 286.1835 
L 93.278088 286.1835 
L 93.278088 201.7035 
L 90.353272 201.7035 
z
" clip-path="url(#pc89cedb753)" style="fill: #1f77b4; stroke: #ffffff; stroke-width: 0.8; stroke-linejoin: miter"/>
   </g>
   <g id="patch_18">
    <path d="M 93.278088 286.1835 
L 96.202904 286.1835 
L 96.202904 32.7435 
L 93.278088 32.7435 
z
" clip-path="url(#pc89cedb753)" style="fill: #1f77b4; stroke: #ffffff; stroke-width: 0.8; stroke-linejoin: miter"/>
   </g>
   <g id="patch_19">
    <path d="M 96.202904 286.1835 
L 99.12772 286.1835 
L 99.12772 159.4635 
L 96.202904 159.4635 
z
" clip-path="url(#pc89cedb753)" style="fill: #1f77b4; stroke: #ffffff; stroke-width: 0.8; stroke-linejoin: miter"/>
   </g>
   <g id="patch_20">
    <path d="M 99.12772 286.1835 
L 102.052535 286.1835 
L 102.052535 159.4635 
L 99.12772 159.4635 
z
" clip-path="url(#pc89cedb753)" style="fill: #1f77b4; stroke: #ffffff; stroke-width: 0.8; stroke-linejoin: miter"/>
   </g>
   <g id="patch_21">
    <path d="M 102.052535 286.1835 
L 104.977351 286.1835 
L 104.977351 74.9835 
L 102.052535 74.9835 
z
" clip-path="url(#pc89cedb753)" style="fill: #1f77b4; stroke: #ffffff; stroke-width: 0.8; stroke-linejoin: miter"/>
   </g>
   <g id="patch_22">
    <path d="M 104.977351 286.1835 
L 107.902167 286.1835 
L 107.902167 117.2235 
L 104.977351 117.2235 
z
" clip-path="url(#pc89cedb753)" style="fill: #1f77b4; stroke: #ffffff; stroke-width: 0.8; stroke-linejoin: miter"/>
   </g>
   <g id="patch_23">
    <path d="M 107.902167 286.1835 
L 110.826982 286.1835 
L 110.826982 74.9835 
L 107.902167 74.9835 
z
" clip-path="url(#pc89cedb753)" style="fill: #1f77b4; stroke: #ffffff; stroke-width: 0.8; stroke-linejoin: miter"/>
   </g>
   <g id="patch_24">
    <path d="M 110.826982 286.1835 
L 113.751798 286.1835 
L 113.751798 159.4635 
L 110.826982 159.4635 
z
" clip-path="url(#pc89cedb753)" style="fill: #1f77b4; stroke: #ffffff; stroke-width: 0.8; stroke-linejoin: miter"/>
   </g>
   <g id="patch_25">
    <path d="M 113.751798 286.1835 
L 116.676614 286.1835 
L 116.676614 243.9435 
L 113.751798 243.9435 
z
" clip-path="url(#pc89cedb753)" style="fill: #1f77b4; stroke: #ffffff; stroke-width: 0.8; stroke-linejoin: miter"/>
   </g>
   <g id="patch_26">
    <path d="M 116.676614 286.1835 
L 119.60143 286.1835 
L 119.60143 117.2235 
L 116.676614 117.2235 
z
" clip-path="url(#pc89cedb753)" style="fill: #1f77b4; stroke: #ffffff; stroke-width: 0.8; stroke-linejoin: miter"/>
   </g>
   <g id="patch_27">
    <path d="M 119.60143 286.1835 
L 122.526245 286.1835 
L 122.526245 117.2235 
L 119.60143 117.2235 
z
" clip-path="url(#pc89cedb753)" style="fill: #1f77b4; stroke: #ffffff; stroke-width: 0.8; stroke-linejoin: miter"/>
   </g>
   <g id="patch_28">
    <path d="M 122.526245 286.1835 
L 125.451061 286.1835 
L 125.451061 243.9435 
L 122.526245 243.9435 
z
" clip-path="url(#pc89cedb753)" style="fill: #1f77b4; stroke: #ffffff; stroke-width: 0.8; stroke-linejoin: miter"/>
   </g>
   <g id="patch_29">
    <path d="M 125.451061 286.1835 
L 128.375877 286.1835 
L 128.375877 74.9835 
L 125.451061 74.9835 
z
" clip-path="url(#pc89cedb753)" style="fill: #1f77b4; stroke: #ffffff; stroke-width: 0.8; stroke-linejoin: miter"/>
   </g>
   <g id="patch_30">
    <path d="M 128.375877 286.1835 
L 131.300693 286.1835 
L 131.300693 74.9835 
L 128.375877 74.9835 
z
" clip-path="url(#pc89cedb753)" style="fill: #1f77b4; stroke: #ffffff; stroke-width: 0.8; stroke-linejoin: miter"/>
   </g>
   <g id="patch_31">
    <path d="M 131.300693 286.1835 
L 134.225508 286.1835 
L 134.225508 159.4635 
L 131.300693 159.4635 
z
" clip-path="url(#pc89cedb753)" style="fill: #1f77b4; stroke: #ffffff; stroke-width: 0.8; stroke-linejoin: miter"/>
   </g>
   <g id="patch_32">
    <path d="M 134.225508 286.1835 
L 137.150324 286.1835 
L 137.150324 117.2235 
L 134.225508 117.2235 
z
" clip-path="url(#pc89cedb753)" style="fill: #1f77b4; stroke: #ffffff; stroke-width: 0.8; stroke-linejoin: miter"/>
   </g>
   <g id="patch_33">
    <path d="M 137.150324 286.1835 
L 140.07514 286.1835 
L 140.07514 201.7035 
L 137.150324 201.7035 
z
" clip-path="url(#pc89cedb753)" style="fill: #1f77b4; stroke: #ffffff; stroke-width: 0.8; stroke-linejoin: miter"/>
   </g>
   <g id="patch_34">
    <path d="M 140.07514 286.1835 
L 142.999955 286.1835 
L 142.999955 74.9835 
L 140.07514 74.9835 
z
" clip-path="url(#pc89cedb753)" style="fill: #1f77b4; stroke: #ffffff; stroke-width: 0.8; stroke-linejoin: miter"/>
   </g>
   <g id="patch_35">
    <path d="M 142.999955 286.1835 
L 145.924771 286.1835 
L 145.924771 201.7035 
L 142.999955 201.7035 
z
" clip-path="url(#pc89cedb753)" style="fill: #1f77b4; stroke: #ffffff; stroke-width: 0.8; stroke-linejoin: miter"/>
   </g>
   <g id="patch_36">
    <path d="M 145.924771 286.1835 
L 148.849587 286.1835 
L 148.849587 201.7035 
L 145.924771 201.7035 
z
" clip-path="url(#pc89cedb753)" style="fill: #1f77b4; stroke: #ffffff; stroke-width: 0.8; stroke-linejoin: miter"/>
   </g>
   <g id="patch_37">
    <path d="M 148.849587 286.1835 
L 151.774403 286.1835 
L 151.774403 159.4635 
L 148.849587 159.4635 
z
" clip-path="url(#pc89cedb753)" style="fill: #1f77b4; stroke: #ffffff; stroke-width: 0.8; stroke-linejoin: miter"/>
   </g>
   <g id="patch_38">
    <path d="M 151.774403 286.1835 
L 154.699218 286.1835 
L 154.699218 117.2235 
L 151.774403 117.2235 
z
" clip-path="url(#pc89cedb753)" style="fill: #1f77b4; stroke: #ffffff; stroke-width: 0.8; stroke-linejoin: miter"/>
   </g>
   <g id="patch_39">
    <path d="M 154.699218 286.1835 
L 157.624034 286.1835 
L 157.624034 201.7035 
L 154.699218 201.7035 
z
" clip-path="url(#pc89cedb753)" style="fill: #1f77b4; stroke: #ffffff; stroke-width: 0.8; stroke-linejoin: miter"/>
   </g>
   <g id="patch_40">
    <path d="M 157.624034 286.1835 
L 160.54885 286.1835 
L 160.54885 243.9435 
L 157.624034 243.9435 
z
" clip-path="url(#pc89cedb753)" style="fill: #1f77b4; stroke: #ffffff; stroke-width: 0.8; stroke-linejoin: miter"/>
   </g>
   <g id="patch_41">
    <path d="M 160.54885 286.1835 
L 163.473666 286.1835 
L 163.473666 159.4635 
L 160.54885 159.4635 
z
" clip-path="url(#pc89cedb753)" style="fill: #1f77b4; stroke: #ffffff; stroke-width: 0.8; stroke-linejoin: miter"/>
   </g>
   <g id="patch_42">
    <path d="M 163.473666 286.1835 
L 166.398481 286.1835 
L 166.398481 201.7035 
L 163.473666 201.7035 
z
" clip-path="url(#pc89cedb753)" style="fill: #1f77b4; stroke: #ffffff; stroke-width: 0.8; stroke-linejoin: miter"/>
   </g>
   <g id="patch_43">
    <path d="M 166.398481 286.1835 
L 169.323297 286.1835 
L 169.323297 201.7035 
L 166.398481 201.7035 
z
" clip-path="url(#pc89cedb753)" style="fill: #1f77b4; stroke: #ffffff; stroke-width: 0.8; stroke-linejoin: miter"/>
   </g>
   <g id="patch_44">
    <path d="M 169.323297 286.1835 
L 172.248113 286.1835 
L 172.248113 243.9435 
L 169.323297 243.9435 
z
" clip-path="url(#pc89cedb753)" style="fill: #1f77b4; stroke: #ffffff; stroke-width: 0.8; stroke-linejoin: miter"/>
   </g>
   <g id="patch_45">
    <path d="M 172.248113 286.1835 
L 175.172928 286.1835 
L 175.172928 243.9435 
L 172.248113 243.9435 
z
" clip-path="url(#pc89cedb753)" style="fill: #1f77b4; stroke: #ffffff; stroke-width: 0.8; stroke-linejoin: miter"/>
   </g>
   <g id="patch_46">
    <path d="M 175.172928 286.1835 
L 178.097744 286.1835 
L 178.097744 243.9435 
L 175.172928 243.9435 
z
" clip-path="url(#pc89cedb753)" style="fill: #1f77b4; stroke: #ffffff; stroke-width: 0.8; stroke-linejoin: miter"/>
   </g>
   <g id="patch_47">
    <path d="M 178.097744 286.1835 
L 181.02256 286.1835 
L 181.02256 243.9435 
L 178.097744 243.9435 
z
" clip-path="url(#pc89cedb753)" style="fill: #1f77b4; stroke: #ffffff; stroke-width: 0.8; stroke-linejoin: miter"/>
   </g>
   <g id="patch_48">
    <path d="M 181.02256 286.1835 
L 183.947376 286.1835 
L 183.947376 159.4635 
L 181.02256 159.4635 
z
" clip-path="url(#pc89cedb753)" style="fill: #1f77b4; stroke: #ffffff; stroke-width: 0.8; stroke-linejoin: miter"/>
   </g>
   <g id="patch_49">
    <path d="M 183.947376 286.1835 
L 186.872191 286.1835 
L 186.872191 286.1835 
L 183.947376 286.1835 
z
" clip-path="url(#pc89cedb753)" style="fill: #1f77b4; stroke: #ffffff; stroke-width: 0.8; stroke-linejoin: miter"/>
   </g>
   <g id="patch_50">
    <path d="M 186.872191 286.1835 
L 189.797007 286.1835 
L 189.797007 286.1835 
L 186.872191 286.1835 
z
" clip-path="url(#pc89cedb753)" style="fill: #1f77b4; stroke: #ffffff; stroke-width: 0.8; stroke-linejoin: miter"/>
   </g>
   <g id="patch_51">
    <path d="M 189.797007 286.1835 
L 192.721823 286.1835 
L 192.721823 243.9435 
L 189.797007 243.9435 
z
" clip-path="url(#pc89cedb753)" style="fill: #1f77b4; stroke: #ffffff; stroke-width: 0.8; stroke-linejoin: miter"/>
   </g>
   <g id="patch_52">
    <path d="M 192.721823 286.1835 
L 195.646639 286.1835 
L 195.646639 286.1835 
L 192.721823 286.1835 
z
" clip-path="url(#pc89cedb753)" style="fill: #1f77b4; stroke: #ffffff; stroke-width: 0.8; stroke-linejoin: miter"/>
   </g>
   <g id="patch_53">
    <path d="M 195.646639 286.1835 
L 198.571454 286.1835 
L 198.571454 243.9435 
L 195.646639 243.9435 
z
" clip-path="url(#pc89cedb753)" style="fill: #1f77b4; stroke: #ffffff; stroke-width: 0.8; stroke-linejoin: miter"/>
   </g>
   <g id="patch_54">
    <path d="M 198.571454 286.1835 
L 201.49627 286.1835 
L 201.49627 243.9435 
L 198.571454 243.9435 
z
" clip-path="url(#pc89cedb753)" style="fill: #1f77b4; stroke: #ffffff; stroke-width: 0.8; stroke-linejoin: miter"/>
   </g>
   <g id="patch_55">
    <path d="M 201.49627 286.1835 
L 204.421086 286.1835 
L 204.421086 286.1835 
L 201.49627 286.1835 
z
" clip-path="url(#pc89cedb753)" style="fill: #1f77b4; stroke: #ffffff; stroke-width: 0.8; stroke-linejoin: miter"/>
   </g>
   <g id="patch_56">
    <path d="M 204.421086 286.1835 
L 207.345901 286.1835 
L 207.345901 286.1835 
L 204.421086 286.1835 
z
" clip-path="url(#pc89cedb753)" style="fill: #1f77b4; stroke: #ffffff; stroke-width: 0.8; stroke-linejoin: miter"/>
   </g>
   <g id="patch_57">
    <path d="M 207.345901 286.1835 
L 210.270717 286.1835 
L 210.270717 159.4635 
L 207.345901 159.4635 
z
" clip-path="url(#pc89cedb753)" style="fill: #1f77b4; stroke: #ffffff; stroke-width: 0.8; stroke-linejoin: miter"/>
   </g>
   <g id="patch_58">
    <path d="M 210.270717 286.1835 
L 213.195533 286.1835 
L 213.195533 243.9435 
L 210.270717 243.9435 
z
" clip-path="url(#pc89cedb753)" style="fill: #1f77b4; stroke: #ffffff; stroke-width: 0.8; stroke-linejoin: miter"/>
   </g>
   <g id="patch_59">
    <path d="M 213.195533 286.1835 
L 216.120349 286.1835 
L 216.120349 286.1835 
L 213.195533 286.1835 
z
" clip-path="url(#pc89cedb753)" style="fill: #1f77b4; stroke: #ffffff; stroke-width: 0.8; stroke-linejoin: miter"/>
   </g>
   <g id="patch_60">
    <path d="M 216.120349 286.1835 
L 219.045164 286.1835 
L 219.045164 159.4635 
L 216.120349 159.4635 
z
" clip-path="url(#pc89cedb753)" style="fill: #1f77b4; stroke: #ffffff; stroke-width: 0.8; stroke-linejoin: miter"/>
   </g>
   <g id="patch_61">
    <path d="M 219.045164 286.1835 
L 221.96998 286.1835 
L 221.96998 201.7035 
L 219.045164 201.7035 
z
" clip-path="url(#pc89cedb753)" style="fill: #1f77b4; stroke: #ffffff; stroke-width: 0.8; stroke-linejoin: miter"/>
   </g>
   <g id="patch_62">
    <path d="M 221.96998 286.1835 
L 224.894796 286.1835 
L 224.894796 201.7035 
L 221.96998 201.7035 
z
" clip-path="url(#pc89cedb753)" style="fill: #1f77b4; stroke: #ffffff; stroke-width: 0.8; stroke-linejoin: miter"/>
   </g>
   <g id="patch_63">
    <path d="M 224.894796 286.1835 
L 227.819611 286.1835 
L 227.819611 286.1835 
L 224.894796 286.1835 
z
" clip-path="url(#pc89cedb753)" style="fill: #1f77b4; stroke: #ffffff; stroke-width: 0.8; stroke-linejoin: miter"/>
   </g>
   <g id="patch_64">
    <path d="M 227.819611 286.1835 
L 230.744427 286.1835 
L 230.744427 243.9435 
L 227.819611 243.9435 
z
" clip-path="url(#pc89cedb753)" style="fill: #1f77b4; stroke: #ffffff; stroke-width: 0.8; stroke-linejoin: miter"/>
   </g>
   <g id="patch_65">
    <path d="M 230.744427 286.1835 
L 233.669243 286.1835 
L 233.669243 243.9435 
L 230.744427 243.9435 
z
" clip-path="url(#pc89cedb753)" style="fill: #1f77b4; stroke: #ffffff; stroke-width: 0.8; stroke-linejoin: miter"/>
   </g>
   <g id="patch_66">
    <path d="M 233.669243 286.1835 
L 236.594059 286.1835 
L 236.594059 243.9435 
L 233.669243 243.9435 
z
" clip-path="url(#pc89cedb753)" style="fill: #1f77b4; stroke: #ffffff; stroke-width: 0.8; stroke-linejoin: miter"/>
   </g>
   <g id="patch_67">
    <path d="M 236.594059 286.1835 
L 239.518874 286.1835 
L 239.518874 286.1835 
L 236.594059 286.1835 
z
" clip-path="url(#pc89cedb753)" style="fill: #1f77b4; stroke: #ffffff; stroke-width: 0.8; stroke-linejoin: miter"/>
   </g>
   <g id="patch_68">
    <path d="M 239.518874 286.1835 
L 242.44369 286.1835 
L 242.44369 243.9435 
L 239.518874 243.9435 
z
" clip-path="url(#pc89cedb753)" style="fill: #1f77b4; stroke: #ffffff; stroke-width: 0.8; stroke-linejoin: miter"/>
   </g>
   <g id="patch_69">
    <path d="M 242.44369 286.1835 
L 245.368506 286.1835 
L 245.368506 286.1835 
L 242.44369 286.1835 
z
" clip-path="url(#pc89cedb753)" style="fill: #1f77b4; stroke: #ffffff; stroke-width: 0.8; stroke-linejoin: miter"/>
   </g>
   <g id="patch_70">
    <path d="M 245.368506 286.1835 
L 248.293322 286.1835 
L 248.293322 243.9435 
L 245.368506 243.9435 
z
" clip-path="url(#pc89cedb753)" style="fill: #1f77b4; stroke: #ffffff; stroke-width: 0.8; stroke-linejoin: miter"/>
   </g>
   <g id="patch_71">
    <path d="M 248.293322 286.1835 
L 251.218137 286.1835 
L 251.218137 286.1835 
L 248.293322 286.1835 
z
" clip-path="url(#pc89cedb753)" style="fill: #1f77b4; stroke: #ffffff; stroke-width: 0.8; stroke-linejoin: miter"/>
   </g>
   <g id="patch_72">
    <path d="M 251.218137 286.1835 
L 254.142953 286.1835 
L 254.142953 286.1835 
L 251.218137 286.1835 
z
" clip-path="url(#pc89cedb753)" style="fill: #1f77b4; stroke: #ffffff; stroke-width: 0.8; stroke-linejoin: miter"/>
   </g>
   <g id="patch_73">
    <path d="M 254.142953 286.1835 
L 257.067769 286.1835 
L 257.067769 286.1835 
L 254.142953 286.1835 
z
" clip-path="url(#pc89cedb753)" style="fill: #1f77b4; stroke: #ffffff; stroke-width: 0.8; stroke-linejoin: miter"/>
   </g>
   <g id="patch_74">
    <path d="M 257.067769 286.1835 
L 259.992584 286.1835 
L 259.992584 201.7035 
L 257.067769 201.7035 
z
" clip-path="url(#pc89cedb753)" style="fill: #1f77b4; stroke: #ffffff; stroke-width: 0.8; stroke-linejoin: miter"/>
   </g>
   <g id="patch_75">
    <path d="M 259.992584 286.1835 
L 262.9174 286.1835 
L 262.9174 243.9435 
L 259.992584 243.9435 
z
" clip-path="url(#pc89cedb753)" style="fill: #1f77b4; stroke: #ffffff; stroke-width: 0.8; stroke-linejoin: miter"/>
   </g>
   <g id="patch_76">
    <path d="M 262.9174 286.1835 
L 265.842216 286.1835 
L 265.842216 286.1835 
L 262.9174 286.1835 
z
" clip-path="url(#pc89cedb753)" style="fill: #1f77b4; stroke: #ffffff; stroke-width: 0.8; stroke-linejoin: miter"/>
   </g>
   <g id="patch_77">
    <path d="M 265.842216 286.1835 
L 268.767032 286.1835 
L 268.767032 286.1835 
L 265.842216 286.1835 
z
" clip-path="url(#pc89cedb753)" style="fill: #1f77b4; stroke: #ffffff; stroke-width: 0.8; stroke-linejoin: miter"/>
   </g>
   <g id="patch_78">
    <path d="M 268.767032 286.1835 
L 271.691847 286.1835 
L 271.691847 286.1835 
L 268.767032 286.1835 
z
" clip-path="url(#pc89cedb753)" style="fill: #1f77b4; stroke: #ffffff; stroke-width: 0.8; stroke-linejoin: miter"/>
   </g>
   <g id="patch_79">
    <path d="M 271.691847 286.1835 
L 274.616663 286.1835 
L 274.616663 243.9435 
L 271.691847 243.9435 
z
" clip-path="url(#pc89cedb753)" style="fill: #1f77b4; stroke: #ffffff; stroke-width: 0.8; stroke-linejoin: miter"/>
   </g>
   <g id="patch_80">
    <path d="M 274.616663 286.1835 
L 277.541479 286.1835 
L 277.541479 243.9435 
L 274.616663 243.9435 
z
" clip-path="url(#pc89cedb753)" style="fill: #1f77b4; stroke: #ffffff; stroke-width: 0.8; stroke-linejoin: miter"/>
   </g>
   <g id="patch_81">
    <path d="M 277.541479 286.1835 
L 280.466295 286.1835 
L 280.466295 286.1835 
L 277.541479 286.1835 
z
" clip-path="url(#pc89cedb753)" style="fill: #1f77b4; stroke: #ffffff; stroke-width: 0.8; stroke-linejoin: miter"/>
   </g>
   <g id="patch_82">
    <path d="M 280.466295 286.1835 
L 283.39111 286.1835 
L 283.39111 201.7035 
L 280.466295 201.7035 
z
" clip-path="url(#pc89cedb753)" style="fill: #1f77b4; stroke: #ffffff; stroke-width: 0.8; stroke-linejoin: miter"/>
   </g>
   <g id="patch_83">
    <path d="M 283.39111 286.1835 
L 286.315926 286.1835 
L 286.315926 159.4635 
L 283.39111 159.4635 
z
" clip-path="url(#pc89cedb753)" style="fill: #1f77b4; stroke: #ffffff; stroke-width: 0.8; stroke-linejoin: miter"/>
   </g>
   <g id="patch_84">
    <path d="M 286.315926 286.1835 
L 289.240742 286.1835 
L 289.240742 159.4635 
L 286.315926 159.4635 
z
" clip-path="url(#pc89cedb753)" style="fill: #1f77b4; stroke: #ffffff; stroke-width: 0.8; stroke-linejoin: miter"/>
   </g>
   <g id="patch_85">
    <path d="M 289.240742 286.1835 
L 292.165557 286.1835 
L 292.165557 243.9435 
L 289.240742 243.9435 
z
" clip-path="url(#pc89cedb753)" style="fill: #1f77b4; stroke: #ffffff; stroke-width: 0.8; stroke-linejoin: miter"/>
   </g>
   <g id="patch_86">
    <path d="M 292.165557 286.1835 
L 295.090373 286.1835 
L 295.090373 243.9435 
L 292.165557 243.9435 
z
" clip-path="url(#pc89cedb753)" style="fill: #1f77b4; stroke: #ffffff; stroke-width: 0.8; stroke-linejoin: miter"/>
   </g>
   <g id="patch_87">
    <path d="M 295.090373 286.1835 
L 298.015189 286.1835 
L 298.015189 201.7035 
L 295.090373 201.7035 
z
" clip-path="url(#pc89cedb753)" style="fill: #1f77b4; stroke: #ffffff; stroke-width: 0.8; stroke-linejoin: miter"/>
   </g>
   <g id="patch_88">
    <path d="M 298.015189 286.1835 
L 300.940005 286.1835 
L 300.940005 243.9435 
L 298.015189 243.9435 
z
" clip-path="url(#pc89cedb753)" style="fill: #1f77b4; stroke: #ffffff; stroke-width: 0.8; stroke-linejoin: miter"/>
   </g>
   <g id="patch_89">
    <path d="M 300.940005 286.1835 
L 303.86482 286.1835 
L 303.86482 243.9435 
L 300.940005 243.9435 
z
" clip-path="url(#pc89cedb753)" style="fill: #1f77b4; stroke: #ffffff; stroke-width: 0.8; stroke-linejoin: miter"/>
   </g>
   <g id="patch_90">
    <path d="M 303.86482 286.1835 
L 306.789636 286.1835 
L 306.789636 243.9435 
L 303.86482 243.9435 
z
" clip-path="url(#pc89cedb753)" style="fill: #1f77b4; stroke: #ffffff; stroke-width: 0.8; stroke-linejoin: miter"/>
   </g>
   <g id="patch_91">
    <path d="M 306.789636 286.1835 
L 309.714452 286.1835 
L 309.714452 243.9435 
L 306.789636 243.9435 
z
" clip-path="url(#pc89cedb753)" style="fill: #1f77b4; stroke: #ffffff; stroke-width: 0.8; stroke-linejoin: miter"/>
   </g>
   <g id="patch_92">
    <path d="M 309.714452 286.1835 
L 312.639268 286.1835 
L 312.639268 201.7035 
L 309.714452 201.7035 
z
" clip-path="url(#pc89cedb753)" style="fill: #1f77b4; stroke: #ffffff; stroke-width: 0.8; stroke-linejoin: miter"/>
   </g>
   <g id="patch_93">
    <path d="M 312.639268 286.1835 
L 315.564083 286.1835 
L 315.564083 117.2235 
L 312.639268 117.2235 
z
" clip-path="url(#pc89cedb753)" style="fill: #1f77b4; stroke: #ffffff; stroke-width: 0.8; stroke-linejoin: miter"/>
   </g>
   <g id="patch_94">
    <path d="M 315.564083 286.1835 
L 318.488899 286.1835 
L 318.488899 201.7035 
L 315.564083 201.7035 
z
" clip-path="url(#pc89cedb753)" style="fill: #1f77b4; stroke: #ffffff; stroke-width: 0.8; stroke-linejoin: miter"/>
   </g>
   <g id="patch_95">
    <path d="M 318.488899 286.1835 
L 321.413715 286.1835 
L 321.413715 286.1835 
L 318.488899 286.1835 
z
" clip-path="url(#pc89cedb753)" style="fill: #1f77b4; stroke: #ffffff; stroke-width: 0.8; stroke-linejoin: miter"/>
   </g>
   <g id="patch_96">
    <path d="M 321.413715 286.1835 
L 324.33853 286.1835 
L 324.33853 286.1835 
L 321.413715 286.1835 
z
" clip-path="url(#pc89cedb753)" style="fill: #1f77b4; stroke: #ffffff; stroke-width: 0.8; stroke-linejoin: miter"/>
   </g>
   <g id="patch_97">
    <path d="M 324.33853 286.1835 
L 327.263346 286.1835 
L 327.263346 243.9435 
L 324.33853 243.9435 
z
" clip-path="url(#pc89cedb753)" style="fill: #1f77b4; stroke: #ffffff; stroke-width: 0.8; stroke-linejoin: miter"/>
   </g>
   <g id="patch_98">
    <path d="M 327.263346 286.1835 
L 330.188162 286.1835 
L 330.188162 117.2235 
L 327.263346 117.2235 
z
" clip-path="url(#pc89cedb753)" style="fill: #1f77b4; stroke: #ffffff; stroke-width: 0.8; stroke-linejoin: miter"/>
   </g>
   <g id="patch_99">
    <path d="M 330.188162 286.1835 
L 333.112978 286.1835 
L 333.112978 286.1835 
L 330.188162 286.1835 
z
" clip-path="url(#pc89cedb753)" style="fill: #1f77b4; stroke: #ffffff; stroke-width: 0.8; stroke-linejoin: miter"/>
   </g>
   <g id="patch_100">
    <path d="M 333.112978 286.1835 
L 336.037793 286.1835 
L 336.037793 286.1835 
L 333.112978 286.1835 
z
" clip-path="url(#pc89cedb753)" style="fill: #1f77b4; stroke: #ffffff; stroke-width: 0.8; stroke-linejoin: miter"/>
   </g>
   <g id="patch_101">
    <path d="M 336.037793 286.1835 
L 338.962609 286.1835 
L 338.962609 286.1835 
L 336.037793 286.1835 
z
" clip-path="url(#pc89cedb753)" style="fill: #1f77b4; stroke: #ffffff; stroke-width: 0.8; stroke-linejoin: miter"/>
   </g>
   <g id="patch_102">
    <path d="M 338.962609 286.1835 
L 341.887425 286.1835 
L 341.887425 243.9435 
L 338.962609 243.9435 
z
" clip-path="url(#pc89cedb753)" style="fill: #1f77b4; stroke: #ffffff; stroke-width: 0.8; stroke-linejoin: miter"/>
   </g>
   <g id="patch_103">
    <path d="M 341.887425 286.1835 
L 344.81224 286.1835 
L 344.81224 286.1835 
L 341.887425 286.1835 
z
" clip-path="url(#pc89cedb753)" style="fill: #1f77b4; stroke: #ffffff; stroke-width: 0.8; stroke-linejoin: miter"/>
   </g>
   <g id="patch_104">
    <path d="M 344.81224 286.1835 
L 347.737056 286.1835 
L 347.737056 286.1835 
L 344.81224 286.1835 
z
" clip-path="url(#pc89cedb753)" style="fill: #1f77b4; stroke: #ffffff; stroke-width: 0.8; stroke-linejoin: miter"/>
   </g>
   <g id="patch_105">
    <path d="M 347.737056 286.1835 
L 350.661872 286.1835 
L 350.661872 286.1835 
L 347.737056 286.1835 
z
" clip-path="url(#pc89cedb753)" style="fill: #1f77b4; stroke: #ffffff; stroke-width: 0.8; stroke-linejoin: miter"/>
   </g>
   <g id="patch_106">
    <path d="M 350.661872 286.1835 
L 353.586688 286.1835 
L 353.586688 286.1835 
L 350.661872 286.1835 
z
" clip-path="url(#pc89cedb753)" style="fill: #1f77b4; stroke: #ffffff; stroke-width: 0.8; stroke-linejoin: miter"/>
   </g>
   <g id="patch_107">
    <path d="M 353.586688 286.1835 
L 356.511503 286.1835 
L 356.511503 286.1835 
L 353.586688 286.1835 
z
" clip-path="url(#pc89cedb753)" style="fill: #1f77b4; stroke: #ffffff; stroke-width: 0.8; stroke-linejoin: miter"/>
   </g>
   <g id="patch_108">
    <path d="M 356.511503 286.1835 
L 359.436319 286.1835 
L 359.436319 243.9435 
L 356.511503 243.9435 
z
" clip-path="url(#pc89cedb753)" style="fill: #1f77b4; stroke: #ffffff; stroke-width: 0.8; stroke-linejoin: miter"/>
   </g>
   <g id="patch_109">
    <path d="M 359.436319 286.1835 
L 362.361135 286.1835 
L 362.361135 286.1835 
L 359.436319 286.1835 
z
" clip-path="url(#pc89cedb753)" style="fill: #1f77b4; stroke: #ffffff; stroke-width: 0.8; stroke-linejoin: miter"/>
   </g>
   <g id="patch_110">
    <path d="M 362.361135 286.1835 
L 365.285951 286.1835 
L 365.285951 286.1835 
L 362.361135 286.1835 
z
" clip-path="url(#pc89cedb753)" style="fill: #1f77b4; stroke: #ffffff; stroke-width: 0.8; stroke-linejoin: miter"/>
   </g>
   <g id="patch_111">
    <path d="M 365.285951 286.1835 
L 368.210766 286.1835 
L 368.210766 243.9435 
L 365.285951 243.9435 
z
" clip-path="url(#pc89cedb753)" style="fill: #1f77b4; stroke: #ffffff; stroke-width: 0.8; stroke-linejoin: miter"/>
   </g>
   <g id="patch_112">
    <path d="M 368.210766 286.1835 
L 371.135582 286.1835 
L 371.135582 286.1835 
L 368.210766 286.1835 
z
" clip-path="url(#pc89cedb753)" style="fill: #1f77b4; stroke: #ffffff; stroke-width: 0.8; stroke-linejoin: miter"/>
   </g>
   <g id="patch_113">
    <path d="M 371.135582 286.1835 
L 374.060398 286.1835 
L 374.060398 243.9435 
L 371.135582 243.9435 
z
" clip-path="url(#pc89cedb753)" style="fill: #1f77b4; stroke: #ffffff; stroke-width: 0.8; stroke-linejoin: miter"/>
   </g>
   <g id="patch_114">
    <path d="M 33.173125 286.1835 
L 33.173125 32.7435 
" style="fill: none; stroke: #262626; stroke-linejoin: miter; stroke-linecap: square"/>
   </g>
   <g id="patch_115">
    <path d="M 77.191602 286.1835 
L 369.673174 286.1835 
" style="fill: none; stroke: #262626; stroke-linejoin: miter; stroke-linecap: square"/>
   </g>
   <g id="text_16">
    <!-- Recorded coal mining disasters in the UK. -->
    <g style="fill: #262626" transform="translate(122.361625 14.0715) scale(0.096 -0.096)">
     <defs>
      <path id="ArialMT-52" d="M 503 0 
L 503 4581 
L 2534 4581 
Q 3147 4581 3465 4457 
Q 3784 4334 3975 4021 
Q 4166 3709 4166 3331 
Q 4166 2844 3850 2509 
Q 3534 2175 2875 2084 
Q 3116 1969 3241 1856 
Q 3506 1613 3744 1247 
L 4541 0 
L 3778 0 
L 3172 953 
Q 2906 1366 2734 1584 
Q 2563 1803 2427 1890 
Q 2291 1978 2150 2013 
Q 2047 2034 1813 2034 
L 1109 2034 
L 1109 0 
L 503 0 
z
M 1109 2559 
L 2413 2559 
Q 2828 2559 3062 2645 
Q 3297 2731 3419 2920 
Q 3541 3109 3541 3331 
Q 3541 3656 3305 3865 
Q 3069 4075 2559 4075 
L 1109 4075 
L 1109 2559 
z
" transform="scale(0.015625)"/>
      <path id="ArialMT-63" d="M 2588 1216 
L 3141 1144 
Q 3050 572 2676 248 
Q 2303 -75 1759 -75 
Q 1078 -75 664 370 
Q 250 816 250 1647 
Q 250 2184 428 2587 
Q 606 2991 970 3192 
Q 1334 3394 1763 3394 
Q 2303 3394 2647 3120 
Q 2991 2847 3088 2344 
L 2541 2259 
Q 2463 2594 2264 2762 
Q 2066 2931 1784 2931 
Q 1359 2931 1093 2626 
Q 828 2322 828 1663 
Q 828 994 1084 691 
Q 1341 388 1753 388 
Q 2084 388 2306 591 
Q 2528 794 2588 1216 
z
" transform="scale(0.015625)"/>
      <path id="ArialMT-6c" d="M 409 0 
L 409 4581 
L 972 4581 
L 972 0 
L 409 0 
z
" transform="scale(0.015625)"/>
      <path id="ArialMT-6e" d="M 422 0 
L 422 3319 
L 928 3319 
L 928 2847 
Q 1294 3394 1984 3394 
Q 2284 3394 2536 3286 
Q 2788 3178 2913 3003 
Q 3038 2828 3088 2588 
Q 3119 2431 3119 2041 
L 3119 0 
L 2556 0 
L 2556 2019 
Q 2556 2363 2490 2533 
Q 2425 2703 2258 2804 
Q 2091 2906 1866 2906 
Q 1506 2906 1245 2678 
Q 984 2450 984 1813 
L 984 0 
L 422 0 
z
" transform="scale(0.015625)"/>
      <path id="ArialMT-67" d="M 319 -275 
L 866 -356 
Q 900 -609 1056 -725 
Q 1266 -881 1628 -881 
Q 2019 -881 2231 -725 
Q 2444 -569 2519 -288 
Q 2563 -116 2559 434 
Q 2191 0 1641 0 
Q 956 0 581 494 
Q 206 988 206 1678 
Q 206 2153 378 2554 
Q 550 2956 876 3175 
Q 1203 3394 1644 3394 
Q 2231 3394 2613 2919 
L 2613 3319 
L 3131 3319 
L 3131 450 
Q 3131 -325 2973 -648 
Q 2816 -972 2473 -1159 
Q 2131 -1347 1631 -1347 
Q 1038 -1347 672 -1080 
Q 306 -813 319 -275 
z
M 784 1719 
Q 784 1066 1043 766 
Q 1303 466 1694 466 
Q 2081 466 2343 764 
Q 2606 1063 2606 1700 
Q 2606 2309 2336 2618 
Q 2066 2928 1684 2928 
Q 1309 2928 1046 2623 
Q 784 2319 784 1719 
z
" transform="scale(0.015625)"/>
      <path id="ArialMT-68" d="M 422 0 
L 422 4581 
L 984 4581 
L 984 2938 
Q 1378 3394 1978 3394 
Q 2347 3394 2619 3248 
Q 2891 3103 3008 2847 
Q 3125 2591 3125 2103 
L 3125 0 
L 2563 0 
L 2563 2103 
Q 2563 2525 2380 2717 
Q 2197 2909 1863 2909 
Q 1613 2909 1392 2779 
Q 1172 2650 1078 2428 
Q 984 2206 984 1816 
L 984 0 
L 422 0 
z
" transform="scale(0.015625)"/>
      <path id="ArialMT-55" d="M 3500 4581 
L 4106 4581 
L 4106 1934 
Q 4106 1244 3950 837 
Q 3794 431 3386 176 
Q 2978 -78 2316 -78 
Q 1672 -78 1262 144 
Q 853 366 678 786 
Q 503 1206 503 1934 
L 503 4581 
L 1109 4581 
L 1109 1938 
Q 1109 1341 1220 1058 
Q 1331 775 1601 622 
Q 1872 469 2263 469 
Q 2931 469 3215 772 
Q 3500 1075 3500 1938 
L 3500 4581 
z
" transform="scale(0.015625)"/>
      <path id="ArialMT-4b" d="M 469 0 
L 469 4581 
L 1075 4581 
L 1075 2309 
L 3350 4581 
L 4172 4581 
L 2250 2725 
L 4256 0 
L 3456 0 
L 1825 2319 
L 1075 1588 
L 1075 0 
L 469 0 
z
" transform="scale(0.015625)"/>
      <path id="ArialMT-2e" d="M 581 0 
L 581 641 
L 1222 641 
L 1222 0 
L 581 0 
z
" transform="scale(0.015625)"/>
     </defs>
     <use xlink:href="#ArialMT-52"/>
     <use xlink:href="#ArialMT-65" x="72.216797"/>
     <use xlink:href="#ArialMT-63" x="127.832031"/>
     <use xlink:href="#ArialMT-6f" x="177.832031"/>
     <use xlink:href="#ArialMT-72" x="233.447266"/>
     <use xlink:href="#ArialMT-64" x="266.748047"/>
     <use xlink:href="#ArialMT-65" x="322.363281"/>
     <use xlink:href="#ArialMT-64" x="377.978516"/>
     <use xlink:href="#ArialMT-20" x="433.59375"/>
     <use xlink:href="#ArialMT-63" x="461.376953"/>
     <use xlink:href="#ArialMT-6f" x="511.376953"/>
     <use xlink:href="#ArialMT-61" x="566.992188"/>
     <use xlink:href="#ArialMT-6c" x="622.607422"/>
     <use xlink:href="#ArialMT-20" x="644.824219"/>
     <use xlink:href="#ArialMT-6d" x="672.607422"/>
     <use xlink:href="#ArialMT-69" x="755.908203"/>
     <use xlink:href="#ArialMT-6e" x="778.125"/>
     <use xlink:href="#ArialMT-69" x="833.740234"/>
     <use xlink:href="#ArialMT-6e" x="855.957031"/>
     <use xlink:href="#ArialMT-67" x="911.572266"/>
     <use xlink:href="#ArialMT-20" x="967.1875"/>
     <use xlink:href="#ArialMT-64" x="994.970703"/>
     <use xlink:href="#ArialMT-69" x="1050.585938"/>
     <use xlink:href="#ArialMT-73" x="1072.802734"/>
     <use xlink:href="#ArialMT-61" x="1122.802734"/>
     <use xlink:href="#ArialMT-73" x="1178.417969"/>
     <use xlink:href="#ArialMT-74" x="1228.417969"/>
     <use xlink:href="#ArialMT-65" x="1256.201172"/>
     <use xlink:href="#ArialMT-72" x="1311.816406"/>
     <use xlink:href="#ArialMT-73" x="1345.117188"/>
     <use xlink:href="#ArialMT-20" x="1395.117188"/>
     <use xlink:href="#ArialMT-69" x="1422.900391"/>
     <use xlink:href="#ArialMT-6e" x="1445.117188"/>
     <use xlink:href="#ArialMT-20" x="1500.732422"/>
     <use xlink:href="#ArialMT-74" x="1528.515625"/>
     <use xlink:href="#ArialMT-68" x="1556.298828"/>
     <use xlink:href="#ArialMT-65" x="1611.914062"/>
     <use xlink:href="#ArialMT-20" x="1667.529297"/>
     <use xlink:href="#ArialMT-55" x="1695.3125"/>
     <use xlink:href="#ArialMT-4b" x="1767.529297"/>
     <use xlink:href="#ArialMT-2e" x="1834.228516"/>
    </g>
   </g>
  </g>
 </g>
 <defs>
  <clipPath id="pc89cedb753">
   <rect x="33.173125" y="20.0715" width="357.12" height="266.112"/>
  </clipPath>
 </defs>
</svg>