<?xml version="1.0" encoding="utf-8" standalone="no"?>
<!DOCTYPE svg PUBLIC "-//W3C//DTD SVG 1.1//EN"
  "http://www.w3.org/Graphics/SVG/1.1/DTD/svg11.dtd">
<svg xmlns:xlink="http://www.w3.org/1999/xlink" width="397.493125pt" height="309.639375pt" viewBox="0 0 397.493125 309.639375" xmlns="http://www.w3.org/2000/svg" version="1.1">
 <metadata>
  <rdf:RDF xmlns:dc="http://purl.org/dc/elements/1.1/" xmlns:cc="http://creativecommons.org/ns#" xmlns:rdf="http://www.w3.org/1999/02/22-rdf-syntax-ns#">
   <cc:Work>
    <dc:type rdf:resource="http://purl.org/dc/dcmitype/StillImage"/>
    <dc:date>2023-08-11T00:15:52.986560</dc:date>
    <dc:format>image/svg+xml</dc:format>
    <dc:creator>
     <cc:Agent>
      <dc:title>Matplotlib v3.7.1, https://matplotlib.org/</dc:title>
     </cc:Agent>
    </dc:creator>
   </cc:Work>
  </rdf:RDF>
 </metadata>
 <defs>
  <style type="text/css">*{stroke-linejoin: round; stroke-linecap: butt}</style>
 </defs>
 <g id="figure_1">
  <g id="patch_1">
   <path d="M 0 309.639375 
L 397.493125 309.639375 
L 397.493125 0 
L 0 0 
z
" style="fill: #ffffff"/>
  </g>
  <g id="axes_1">
   <g id="patch_2">
    <path d="M 33.173125 273.312 
L 390.293125 273.312 
L 390.293125 7.2 
L 33.173125 7.2 
z
" style="fill: #ffffff"/>
   </g>
   <g id="matplotlib.axis_1">
    <g id="xtick_1">
     <g id="line2d_1">
      <defs>
       <path id="m50e2100c42" d="M 0 0 
L 0 4.8 
" style="stroke: #262626"/>
      </defs>
      <g>
       <use xlink:href="#m50e2100c42" x="49.405852" y="273.312" style="fill: #262626; stroke: #262626"/>
      </g>
     </g>
     <g id="text_1">
      <!-- 0.0 -->
      <g style="fill: #262626" transform="translate(43.289852 287.910875) scale(0.088 -0.088)">
       <defs>
        <path id="ArialMT-30" d="M 266 2259 
Q 266 3072 433 3567 
Q 600 4063 929 4331 
Q 1259 4600 1759 4600 
Q 2128 4600 2406 4451 
Q 2684 4303 2865 4023 
Q 3047 3744 3150 3342 
Q 3253 2941 3253 2259 
Q 3253 1453 3087 958 
Q 2922 463 2592 192 
Q 2263 -78 1759 -78 
Q 1097 -78 719 397 
Q 266 969 266 2259 
z
M 844 2259 
Q 844 1131 1108 757 
Q 1372 384 1759 384 
Q 2147 384 2411 759 
Q 2675 1134 2675 2259 
Q 2675 3391 2411 3762 
Q 2147 4134 1753 4134 
Q 1366 4134 1134 3806 
Q 844 3388 844 2259 
z
" transform="scale(0.015625)"/>
        <path id="ArialMT-2e" d="M 581 0 
L 581 641 
L 1222 641 
L 1222 0 
L 581 0 
z
" transform="scale(0.015625)"/>
       </defs>
       <use xlink:href="#ArialMT-30"/>
       <use xlink:href="#ArialMT-2e" x="55.615234"/>
       <use xlink:href="#ArialMT-30" x="83.398438"/>
      </g>
     </g>
    </g>
    <g id="xtick_2">
     <g id="line2d_2">
      <g>
       <use xlink:href="#m50e2100c42" x="89.98767" y="273.312" style="fill: #262626; stroke: #262626"/>
      </g>
     </g>
     <g id="text_2">
      <!-- 0.5 -->
      <g style="fill: #262626" transform="translate(83.87167 287.910875) scale(0.088 -0.088)">
       <defs>
        <path id="ArialMT-35" d="M 266 1200 
L 856 1250 
Q 922 819 1161 601 
Q 1400 384 1738 384 
Q 2144 384 2425 690 
Q 2706 997 2706 1503 
Q 2706 1984 2436 2262 
Q 2166 2541 1728 2541 
Q 1456 2541 1237 2417 
Q 1019 2294 894 2097 
L 366 2166 
L 809 4519 
L 3088 4519 
L 3088 3981 
L 1259 3981 
L 1013 2750 
Q 1425 3038 1878 3038 
Q 2478 3038 2890 2622 
Q 3303 2206 3303 1553 
Q 3303 931 2941 478 
Q 2500 -78 1738 -78 
Q 1113 -78 717 272 
Q 322 622 266 1200 
z
" transform="scale(0.015625)"/>
       </defs>
       <use xlink:href="#ArialMT-30"/>
       <use xlink:href="#ArialMT-2e" x="55.615234"/>
       <use xlink:href="#ArialMT-35" x="83.398438"/>
      </g>
     </g>
    </g>
    <g id="xtick_3">
     <g id="line2d_3">
      <g>
       <use xlink:href="#m50e2100c42" x="130.569489" y="273.312" style="fill: #262626; stroke: #262626"/>
      </g>
     </g>
     <g id="text_3">
      <!-- 1.0 -->
      <g style="fill: #262626" transform="translate(124.453489 287.910875) scale(0.088 -0.088)">
       <defs>
        <path id="ArialMT-31" d="M 2384 0 
L 1822 0 
L 1822 3584 
Q 1619 3391 1289 3197 
Q 959 3003 697 2906 
L 697 3450 
Q 1169 3672 1522 3987 
Q 1875 4303 2022 4600 
L 2384 4600 
L 2384 0 
z
" transform="scale(0.015625)"/>
       </defs>
       <use xlink:href="#ArialMT-31"/>
       <use xlink:href="#ArialMT-2e" x="55.615234"/>
       <use xlink:href="#ArialMT-30" x="83.398438"/>
      </g>
     </g>
    </g>
    <g id="xtick_4">
     <g id="line2d_4">
      <g>
       <use xlink:href="#m50e2100c42" x="171.151307" y="273.312" style="fill: #262626; stroke: #262626"/>
      </g>
     </g>
     <g id="text_4">
      <!-- 1.5 -->
      <g style="fill: #262626" transform="translate(165.035307 287.910875) scale(0.088 -0.088)">
       <use xlink:href="#ArialMT-31"/>
       <use xlink:href="#ArialMT-2e" x="55.615234"/>
       <use xlink:href="#ArialMT-35" x="83.398438"/>
      </g>
     </g>
    </g>
    <g id="xtick_5">
     <g id="line2d_5">
      <g>
       <use xlink:href="#m50e2100c42" x="211.733125" y="273.312" style="fill: #262626; stroke: #262626"/>
      </g>
     </g>
     <g id="text_5">
      <!-- 2.0 -->
      <g style="fill: #262626" transform="translate(205.617125 287.910875) scale(0.088 -0.088)">
       <defs>
        <path id="ArialMT-32" d="M 3222 541 
L 3222 0 
L 194 0 
Q 188 203 259 391 
Q 375 700 629 1000 
Q 884 1300 1366 1694 
Q 2113 2306 2375 2664 
Q 2638 3022 2638 3341 
Q 2638 3675 2398 3904 
Q 2159 4134 1775 4134 
Q 1369 4134 1125 3890 
Q 881 3647 878 3216 
L 300 3275 
Q 359 3922 746 4261 
Q 1134 4600 1788 4600 
Q 2447 4600 2831 4234 
Q 3216 3869 3216 3328 
Q 3216 3053 3103 2787 
Q 2991 2522 2730 2228 
Q 2469 1934 1863 1422 
Q 1356 997 1212 845 
Q 1069 694 975 541 
L 3222 541 
z
" transform="scale(0.015625)"/>
       </defs>
       <use xlink:href="#ArialMT-32"/>
       <use xlink:href="#ArialMT-2e" x="55.615234"/>
       <use xlink:href="#ArialMT-30" x="83.398438"/>
      </g>
     </g>
    </g>
    <g id="xtick_6">
     <g id="line2d_6">
      <g>
       <use xlink:href="#m50e2100c42" x="252.314943" y="273.312" style="fill: #262626; stroke: #262626"/>
      </g>
     </g>
     <g id="text_6">
      <!-- 2.5 -->
      <g style="fill: #262626" transform="translate(246.198943 287.910875) scale(0.088 -0.088)">
       <use xlink:href="#ArialMT-32"/>
       <use xlink:href="#ArialMT-2e" x="55.615234"/>
       <use xlink:href="#ArialMT-35" x="83.398438"/>
      </g>
     </g>
    </g>
    <g id="xtick_7">
     <g id="line2d_7">
      <g>
       <use xlink:href="#m50e2100c42" x="292.896761" y="273.312" style="fill: #262626; stroke: #262626"/>
      </g>
     </g>
     <g id="text_7">
      <!-- 3.0 -->
      <g style="fill: #262626" transform="translate(286.780761 287.910875) scale(0.088 -0.088)">
       <defs>
        <path id="ArialMT-33" d="M 269 1209 
L 831 1284 
Q 928 806 1161 595 
Q 1394 384 1728 384 
Q 2125 384 2398 659 
Q 2672 934 2672 1341 
Q 2672 1728 2419 1979 
Q 2166 2231 1775 2231 
Q 1616 2231 1378 2169 
L 1441 2663 
Q 1497 2656 1531 2656 
Q 1891 2656 2178 2843 
Q 2466 3031 2466 3422 
Q 2466 3731 2256 3934 
Q 2047 4138 1716 4138 
Q 1388 4138 1169 3931 
Q 950 3725 888 3313 
L 325 3413 
Q 428 3978 793 4289 
Q 1159 4600 1703 4600 
Q 2078 4600 2393 4439 
Q 2709 4278 2876 4000 
Q 3044 3722 3044 3409 
Q 3044 3113 2884 2869 
Q 2725 2625 2413 2481 
Q 2819 2388 3044 2092 
Q 3269 1797 3269 1353 
Q 3269 753 2831 336 
Q 2394 -81 1725 -81 
Q 1122 -81 723 278 
Q 325 638 269 1209 
z
" transform="scale(0.015625)"/>
       </defs>
       <use xlink:href="#ArialMT-33"/>
       <use xlink:href="#ArialMT-2e" x="55.615234"/>
       <use xlink:href="#ArialMT-30" x="83.398438"/>
      </g>
     </g>
    </g>
    <g id="xtick_8">
     <g id="line2d_8">
      <g>
       <use xlink:href="#m50e2100c42" x="333.47858" y="273.312" style="fill: #262626; stroke: #262626"/>
      </g>
     </g>
     <g id="text_8">
      <!-- 3.5 -->
      <g style="fill: #262626" transform="translate(327.36258 287.910875) scale(0.088 -0.088)">
       <use xlink:href="#ArialMT-33"/>
       <use xlink:href="#ArialMT-2e" x="55.615234"/>
       <use xlink:href="#ArialMT-35" x="83.398438"/>
      </g>
     </g>
    </g>
    <g id="xtick_9">
     <g id="line2d_9">
      <g>
       <use xlink:href="#m50e2100c42" x="374.060398" y="273.312" style="fill: #262626; stroke: #262626"/>
      </g>
     </g>
     <g id="text_9">
      <!-- 4.0 -->
      <g style="fill: #262626" transform="translate(367.944398 287.910875) scale(0.088 -0.088)">
       <defs>
        <path id="ArialMT-34" d="M 2069 0 
L 2069 1097 
L 81 1097 
L 81 1613 
L 2172 4581 
L 2631 4581 
L 2631 1613 
L 3250 1613 
L 3250 1097 
L 2631 1097 
L 2631 0 
L 2069 0 
z
M 2069 1613 
L 2069 3678 
L 634 1613 
L 2069 1613 
z
" transform="scale(0.015625)"/>
       </defs>
       <use xlink:href="#ArialMT-34"/>
       <use xlink:href="#ArialMT-2e" x="55.615234"/>
       <use xlink:href="#ArialMT-30" x="83.398438"/>
      </g>
     </g>
    </g>
    <g id="text_10">
     <!-- $x$ -->
     <g style="fill: #262626" transform="translate(208.853125 300.531375) scale(0.096 -0.096)">
      <defs>
       <path id="DejaVuSans-Oblique-78" d="M 3841 3500 
L 2234 1784 
L 3219 0 
L 2559 0 
L 1819 1388 
L 531 0 
L -166 0 
L 1556 1844 
L 641 3500 
L 1300 3500 
L 1972 2234 
L 3144 3500 
L 3841 3500 
z
" transform="scale(0.015625)"/>
      </defs>
      <use xlink:href="#DejaVuSans-Oblique-78" transform="translate(0 0.3125)"/>
     </g>
    </g>
   </g>
   <g id="matplotlib.axis_2">
    <g id="ytick_1">
     <g id="line2d_10">
      <defs>
       <path id="mf6015f4b16" d="M 0 0 
L -4.8 0 
" style="stroke: #262626"/>
      </defs>
      <g>
       <use xlink:href="#mf6015f4b16" x="33.173125" y="261.216" style="fill: #262626; stroke: #262626"/>
      </g>
     </g>
     <g id="text_11">
      <!-- 0 -->
      <g style="fill: #262626" transform="translate(19.9795 264.365437) scale(0.088 -0.088)">
       <use xlink:href="#ArialMT-30"/>
      </g>
     </g>
    </g>
    <g id="ytick_2">
     <g id="line2d_11">
      <g>
       <use xlink:href="#mf6015f4b16" x="33.173125" y="207.456" style="fill: #262626; stroke: #262626"/>
      </g>
     </g>
     <g id="text_12">
      <!-- 2 -->
      <g style="fill: #262626" transform="translate(19.9795 210.605437) scale(0.088 -0.088)">
       <use xlink:href="#ArialMT-32"/>
      </g>
     </g>
    </g>
    <g id="ytick_3">
     <g id="line2d_12">
      <g>
       <use xlink:href="#mf6015f4b16" x="33.173125" y="153.696" style="fill: #262626; stroke: #262626"/>
      </g>
     </g>
     <g id="text_13">
      <!-- 4 -->
      <g style="fill: #262626" transform="translate(19.9795 156.845437) scale(0.088 -0.088)">
       <use xlink:href="#ArialMT-34"/>
      </g>
     </g>
    </g>
    <g id="ytick_4">
     <g id="line2d_13">
      <g>
       <use xlink:href="#mf6015f4b16" x="33.173125" y="99.936" style="fill: #262626; stroke: #262626"/>
      </g>
     </g>
     <g id="text_14">
      <!-- 6 -->
      <g style="fill: #262626" transform="translate(19.9795 103.085437) scale(0.088 -0.088)">
       <defs>
        <path id="ArialMT-36" d="M 3184 3459 
L 2625 3416 
Q 2550 3747 2413 3897 
Q 2184 4138 1850 4138 
Q 1581 4138 1378 3988 
Q 1113 3794 959 3422 
Q 806 3050 800 2363 
Q 1003 2672 1297 2822 
Q 1591 2972 1913 2972 
Q 2475 2972 2870 2558 
Q 3266 2144 3266 1488 
Q 3266 1056 3080 686 
Q 2894 316 2569 119 
Q 2244 -78 1831 -78 
Q 1128 -78 684 439 
Q 241 956 241 2144 
Q 241 3472 731 4075 
Q 1159 4600 1884 4600 
Q 2425 4600 2770 4297 
Q 3116 3994 3184 3459 
z
M 888 1484 
Q 888 1194 1011 928 
Q 1134 663 1356 523 
Q 1578 384 1822 384 
Q 2178 384 2434 671 
Q 2691 959 2691 1453 
Q 2691 1928 2437 2201 
Q 2184 2475 1800 2475 
Q 1419 2475 1153 2201 
Q 888 1928 888 1484 
z
" transform="scale(0.015625)"/>
       </defs>
       <use xlink:href="#ArialMT-36"/>
      </g>
     </g>
    </g>
    <g id="ytick_5">
     <g id="line2d_14">
      <g>
       <use xlink:href="#mf6015f4b16" x="33.173125" y="46.176" style="fill: #262626; stroke: #262626"/>
      </g>
     </g>
     <g id="text_15">
      <!-- 8 -->
      <g style="fill: #262626" transform="translate(19.9795 49.325437) scale(0.088 -0.088)">
       <defs>
        <path id="ArialMT-38" d="M 1131 2484 
Q 781 2613 612 2850 
Q 444 3088 444 3419 
Q 444 3919 803 4259 
Q 1163 4600 1759 4600 
Q 2359 4600 2725 4251 
Q 3091 3903 3091 3403 
Q 3091 3084 2923 2848 
Q 2756 2613 2416 2484 
Q 2838 2347 3058 2040 
Q 3278 1734 3278 1309 
Q 3278 722 2862 322 
Q 2447 -78 1769 -78 
Q 1091 -78 675 323 
Q 259 725 259 1325 
Q 259 1772 486 2073 
Q 713 2375 1131 2484 
z
M 1019 3438 
Q 1019 3113 1228 2906 
Q 1438 2700 1772 2700 
Q 2097 2700 2305 2904 
Q 2513 3109 2513 3406 
Q 2513 3716 2298 3927 
Q 2084 4138 1766 4138 
Q 1444 4138 1231 3931 
Q 1019 3725 1019 3438 
z
M 838 1322 
Q 838 1081 952 856 
Q 1066 631 1291 507 
Q 1516 384 1775 384 
Q 2178 384 2440 643 
Q 2703 903 2703 1303 
Q 2703 1709 2433 1975 
Q 2163 2241 1756 2241 
Q 1359 2241 1098 1978 
Q 838 1716 838 1322 
z
" transform="scale(0.015625)"/>
       </defs>
       <use xlink:href="#ArialMT-38"/>
      </g>
     </g>
    </g>
    <g id="text_16">
     <!-- $y$ -->
     <g style="fill: #262626" transform="translate(13.9635 143.136) rotate(-90) scale(0.096 -0.096)">
      <defs>
       <path id="DejaVuSans-Oblique-79" d="M 1588 -325 
Q 1188 -997 936 -1164 
Q 684 -1331 294 -1331 
L -159 -1331 
L -63 -850 
L 269 -850 
Q 509 -850 678 -719 
Q 847 -588 1056 -206 
L 1234 128 
L 459 3500 
L 1069 3500 
L 1650 819 
L 3256 3500 
L 3859 3500 
L 1588 -325 
z
" transform="scale(0.015625)"/>
      </defs>
      <use xlink:href="#DejaVuSans-Oblique-79" transform="translate(0 0.3125)"/>
     </g>
    </g>
   </g>
   <g id="PathCollection_1">
    <defs>
     <path id="m7464e0f6e1" d="M 0 2.4 
C 0.636487 2.4 1.246992 2.147121 1.697056 1.697056 
C 2.147121 1.246992 2.4 0.636487 2.4 0 
C 2.4 -0.636487 2.147121 -1.246992 1.697056 -1.697056 
C 1.246992 -2.147121 0.636487 -2.4 0 -2.4 
C -0.636487 -2.4 -1.246992 -2.147121 -1.697056 -1.697056 
C -2.147121 -1.246992 -2.4 -0.636487 -2.4 0 
C -2.4 0.636487 -2.147121 1.246992 -1.697056 1.697056 
C -1.246992 2.147121 -0.636487 2.4 0 2.4 
z
" style="stroke: #1f77b4; stroke-opacity: 0.1; stroke-width: 0.8"/>
    </defs>
    <g clip-path="url(#p95f5c6109a)">
     <use xlink:href="#m7464e0f6e1" x="49.405852" y="19.296" style="fill: #1f77b4; fill-opacity: 0.1; stroke: #1f77b4; stroke-opacity: 0.1; stroke-width: 0.8"/>
     <use xlink:href="#m7464e0f6e1" x="49.405852" y="46.176" style="fill: #1f77b4; fill-opacity: 0.1; stroke: #1f77b4; stroke-opacity: 0.1; stroke-width: 0.8"/>
     <use xlink:href="#m7464e0f6e1" x="292.896761" y="207.456" style="fill: #1f77b4; fill-opacity: 0.1; stroke: #1f77b4; stroke-opacity: 0.1; stroke-width: 0.8"/>
     <use xlink:href="#m7464e0f6e1" x="374.060398" y="261.216" style="fill: #1f77b4; fill-opacity: 0.1; stroke: #1f77b4; stroke-opacity: 0.1; stroke-width: 0.8"/>
     <use xlink:href="#m7464e0f6e1" x="292.896761" y="234.336" style="fill: #1f77b4; fill-opacity: 0.1; stroke: #1f77b4; stroke-opacity: 0.1; stroke-width: 0.8"/>
     <use xlink:href="#m7464e0f6e1" x="130.569489" y="73.056" style="fill: #1f77b4; fill-opacity: 0.1; stroke: #1f77b4; stroke-opacity: 0.1; stroke-width: 0.8"/>
     <use xlink:href="#m7464e0f6e1" x="49.405852" y="99.936" style="fill: #1f77b4; fill-opacity: 0.1; stroke: #1f77b4; stroke-opacity: 0.1; stroke-width: 0.8"/>
     <use xlink:href="#m7464e0f6e1" x="211.733125" y="46.176" style="fill: #1f77b4; fill-opacity: 0.1; stroke: #1f77b4; stroke-opacity: 0.1; stroke-width: 0.8"/>
     <use xlink:href="#m7464e0f6e1" x="49.405852" y="46.176" style="fill: #1f77b4; fill-opacity: 0.1; stroke: #1f77b4; stroke-opacity: 0.1; stroke-width: 0.8"/>
     <use xlink:href="#m7464e0f6e1" x="130.569489" y="261.216" style="fill: #1f77b4; fill-opacity: 0.1; stroke: #1f77b4; stroke-opacity: 0.1; stroke-width: 0.8"/>
     <use xlink:href="#m7464e0f6e1" x="130.569489" y="126.816" style="fill: #1f77b4; fill-opacity: 0.1; stroke: #1f77b4; stroke-opacity: 0.1; stroke-width: 0.8"/>
     <use xlink:href="#m7464e0f6e1" x="292.896761" y="153.696" style="fill: #1f77b4; fill-opacity: 0.1; stroke: #1f77b4; stroke-opacity: 0.1; stroke-width: 0.8"/>
     <use xlink:href="#m7464e0f6e1" x="211.733125" y="207.456" style="fill: #1f77b4; fill-opacity: 0.1; stroke: #1f77b4; stroke-opacity: 0.1; stroke-width: 0.8"/>
     <use xlink:href="#m7464e0f6e1" x="374.060398" y="73.056" style="fill: #1f77b4; fill-opacity: 0.1; stroke: #1f77b4; stroke-opacity: 0.1; stroke-width: 0.8"/>
     <use xlink:href="#m7464e0f6e1" x="211.733125" y="19.296" style="fill: #1f77b4; fill-opacity: 0.1; stroke: #1f77b4; stroke-opacity: 0.1; stroke-width: 0.8"/>
     <use xlink:href="#m7464e0f6e1" x="49.405852" y="19.296" style="fill: #1f77b4; fill-opacity: 0.1; stroke: #1f77b4; stroke-opacity: 0.1; stroke-width: 0.8"/>
     <use xlink:href="#m7464e0f6e1" x="130.569489" y="153.696" style="fill: #1f77b4; fill-opacity: 0.1; stroke: #1f77b4; stroke-opacity: 0.1; stroke-width: 0.8"/>
     <use xlink:href="#m7464e0f6e1" x="130.569489" y="73.056" style="fill: #1f77b4; fill-opacity: 0.1; stroke: #1f77b4; stroke-opacity: 0.1; stroke-width: 0.8"/>
     <use xlink:href="#m7464e0f6e1" x="49.405852" y="180.576" style="fill: #1f77b4; fill-opacity: 0.1; stroke: #1f77b4; stroke-opacity: 0.1; stroke-width: 0.8"/>
     <use xlink:href="#m7464e0f6e1" x="130.569489" y="234.336" style="fill: #1f77b4; fill-opacity: 0.1; stroke: #1f77b4; stroke-opacity: 0.1; stroke-width: 0.8"/>
     <use xlink:href="#m7464e0f6e1" x="130.569489" y="46.176" style="fill: #1f77b4; fill-opacity: 0.1; stroke: #1f77b4; stroke-opacity: 0.1; stroke-width: 0.8"/>
     <use xlink:href="#m7464e0f6e1" x="211.733125" y="46.176" style="fill: #1f77b4; fill-opacity: 0.1; stroke: #1f77b4; stroke-opacity: 0.1; stroke-width: 0.8"/>
     <use xlink:href="#m7464e0f6e1" x="211.733125" y="46.176" style="fill: #1f77b4; fill-opacity: 0.1; stroke: #1f77b4; stroke-opacity: 0.1; stroke-width: 0.8"/>
     <use xlink:href="#m7464e0f6e1" x="374.060398" y="46.176" style="fill: #1f77b4; fill-opacity: 0.1; stroke: #1f77b4; stroke-opacity: 0.1; stroke-width: 0.8"/>
     <use xlink:href="#m7464e0f6e1" x="292.896761" y="19.296" style="fill: #1f77b4; fill-opacity: 0.1; stroke: #1f77b4; stroke-opacity: 0.1; stroke-width: 0.8"/>
     <use xlink:href="#m7464e0f6e1" x="130.569489" y="99.936" style="fill: #1f77b4; fill-opacity: 0.1; stroke: #1f77b4; stroke-opacity: 0.1; stroke-width: 0.8"/>
     <use xlink:href="#m7464e0f6e1" x="49.405852" y="153.696" style="fill: #1f77b4; fill-opacity: 0.1; stroke: #1f77b4; stroke-opacity: 0.1; stroke-width: 0.8"/>
     <use xlink:href="#m7464e0f6e1" x="292.896761" y="99.936" style="fill: #1f77b4; fill-opacity: 0.1; stroke: #1f77b4; stroke-opacity: 0.1; stroke-width: 0.8"/>
     <use xlink:href="#m7464e0f6e1" x="211.733125" y="153.696" style="fill: #1f77b4; fill-opacity: 0.1; stroke: #1f77b4; stroke-opacity: 0.1; stroke-width: 0.8"/>
     <use xlink:href="#m7464e0f6e1" x="211.733125" y="46.176" style="fill: #1f77b4; fill-opacity: 0.1; stroke: #1f77b4; stroke-opacity: 0.1; stroke-width: 0.8"/>
     <use xlink:href="#m7464e0f6e1" x="49.405852" y="234.336" style="fill: #1f77b4; fill-opacity: 0.1; stroke: #1f77b4; stroke-opacity: 0.1; stroke-width: 0.8"/>
     <use xlink:href="#m7464e0f6e1" x="292.896761" y="126.816" style="fill: #1f77b4; fill-opacity: 0.1; stroke: #1f77b4; stroke-opacity: 0.1; stroke-width: 0.8"/>
     <use xlink:href="#m7464e0f6e1" x="374.060398" y="207.456" style="fill: #1f77b4; fill-opacity: 0.1; stroke: #1f77b4; stroke-opacity: 0.1; stroke-width: 0.8"/>
     <use xlink:href="#m7464e0f6e1" x="292.896761" y="207.456" style="fill: #1f77b4; fill-opacity: 0.1; stroke: #1f77b4; stroke-opacity: 0.1; stroke-width: 0.8"/>
     <use xlink:href="#m7464e0f6e1" x="49.405852" y="46.176" style="fill: #1f77b4; fill-opacity: 0.1; stroke: #1f77b4; stroke-opacity: 0.1; stroke-width: 0.8"/>
     <use xlink:href="#m7464e0f6e1" x="130.569489" y="234.336" style="fill: #1f77b4; fill-opacity: 0.1; stroke: #1f77b4; stroke-opacity: 0.1; stroke-width: 0.8"/>
     <use xlink:href="#m7464e0f6e1" x="211.733125" y="261.216" style="fill: #1f77b4; fill-opacity: 0.1; stroke: #1f77b4; stroke-opacity: 0.1; stroke-width: 0.8"/>
     <use xlink:href="#m7464e0f6e1" x="292.896761" y="126.816" style="fill: #1f77b4; fill-opacity: 0.1; stroke: #1f77b4; stroke-opacity: 0.1; stroke-width: 0.8"/>
     <use xlink:href="#m7464e0f6e1" x="211.733125" y="99.936" style="fill: #1f77b4; fill-opacity: 0.1; stroke: #1f77b4; stroke-opacity: 0.1; stroke-width: 0.8"/>
     <use xlink:href="#m7464e0f6e1" x="292.896761" y="126.816" style="fill: #1f77b4; fill-opacity: 0.1; stroke: #1f77b4; stroke-opacity: 0.1; stroke-width: 0.8"/>
     <use xlink:href="#m7464e0f6e1" x="49.405852" y="99.936" style="fill: #1f77b4; fill-opacity: 0.1; stroke: #1f77b4; stroke-opacity: 0.1; stroke-width: 0.8"/>
     <use xlink:href="#m7464e0f6e1" x="374.060398" y="207.456" style="fill: #1f77b4; fill-opacity: 0.1; stroke: #1f77b4; stroke-opacity: 0.1; stroke-width: 0.8"/>
     <use xlink:href="#m7464e0f6e1" x="130.569489" y="261.216" style="fill: #1f77b4; fill-opacity: 0.1; stroke: #1f77b4; stroke-opacity: 0.1; stroke-width: 0.8"/>
     <use xlink:href="#m7464e0f6e1" x="130.569489" y="99.936" style="fill: #1f77b4; fill-opacity: 0.1; stroke: #1f77b4; stroke-opacity: 0.1; stroke-width: 0.8"/>
     <use xlink:href="#m7464e0f6e1" x="130.569489" y="99.936" style="fill: #1f77b4; fill-opacity: 0.1; stroke: #1f77b4; stroke-opacity: 0.1; stroke-width: 0.8"/>
     <use xlink:href="#m7464e0f6e1" x="130.569489" y="99.936" style="fill: #1f77b4; fill-opacity: 0.1; stroke: #1f77b4; stroke-opacity: 0.1; stroke-width: 0.8"/>
     <use xlink:href="#m7464e0f6e1" x="374.060398" y="261.216" style="fill: #1f77b4; fill-opacity: 0.1; stroke: #1f77b4; stroke-opacity: 0.1; stroke-width: 0.8"/>
     <use xlink:href="#m7464e0f6e1" x="130.569489" y="46.176" style="fill: #1f77b4; fill-opacity: 0.1; stroke: #1f77b4; stroke-opacity: 0.1; stroke-width: 0.8"/>
     <use xlink:href="#m7464e0f6e1" x="130.569489" y="99.936" style="fill: #1f77b4; fill-opacity: 0.1; stroke: #1f77b4; stroke-opacity: 0.1; stroke-width: 0.8"/>
     <use xlink:href="#m7464e0f6e1" x="49.405852" y="73.056" style="fill: #1f77b4; fill-opacity: 0.1; stroke: #1f77b4; stroke-opacity: 0.1; stroke-width: 0.8"/>
     <use xlink:href="#m7464e0f6e1" x="292.896761" y="153.696" style="fill: #1f77b4; fill-opacity: 0.1; stroke: #1f77b4; stroke-opacity: 0.1; stroke-width: 0.8"/>
     <use xlink:href="#m7464e0f6e1" x="130.569489" y="19.296" style="fill: #1f77b4; fill-opacity: 0.1; stroke: #1f77b4; stroke-opacity: 0.1; stroke-width: 0.8"/>
     <use xlink:href="#m7464e0f6e1" x="211.733125" y="46.176" style="fill: #1f77b4; fill-opacity: 0.1; stroke: #1f77b4; stroke-opacity: 0.1; stroke-width: 0.8"/>
     <use xlink:href="#m7464e0f6e1" x="49.405852" y="126.816" style="fill: #1f77b4; fill-opacity: 0.1; stroke: #1f77b4; stroke-opacity: 0.1; stroke-width: 0.8"/>
     <use xlink:href="#m7464e0f6e1" x="211.733125" y="99.936" style="fill: #1f77b4; fill-opacity: 0.1; stroke: #1f77b4; stroke-opacity: 0.1; stroke-width: 0.8"/>
     <use xlink:href="#m7464e0f6e1" x="49.405852" y="19.296" style="fill: #1f77b4; fill-opacity: 0.1; stroke: #1f77b4; stroke-opacity: 0.1; stroke-width: 0.8"/>
     <use xlink:href="#m7464e0f6e1" x="211.733125" y="73.056" style="fill: #1f77b4; fill-opacity: 0.1; stroke: #1f77b4; stroke-opacity: 0.1; stroke-width: 0.8"/>
     <use xlink:href="#m7464e0f6e1" x="292.896761" y="207.456" style="fill: #1f77b4; fill-opacity: 0.1; stroke: #1f77b4; stroke-opacity: 0.1; stroke-width: 0.8"/>
     <use xlink:href="#m7464e0f6e1" x="374.060398" y="207.456" style="fill: #1f77b4; fill-opacity: 0.1; stroke: #1f77b4; stroke-opacity: 0.1; stroke-width: 0.8"/>
     <use xlink:href="#m7464e0f6e1" x="292.896761" y="207.456" style="fill: #1f77b4; fill-opacity: 0.1; stroke: #1f77b4; stroke-opacity: 0.1; stroke-width: 0.8"/>
     <use xlink:href="#m7464e0f6e1" x="374.060398" y="99.936" style="fill: #1f77b4; fill-opacity: 0.1; stroke: #1f77b4; stroke-opacity: 0.1; stroke-width: 0.8"/>
     <use xlink:href="#m7464e0f6e1" x="130.569489" y="99.936" style="fill: #1f77b4; fill-opacity: 0.1; stroke: #1f77b4; stroke-opacity: 0.1; stroke-width: 0.8"/>
     <use xlink:href="#m7464e0f6e1" x="211.733125" y="46.176" style="fill: #1f77b4; fill-opacity: 0.1; stroke: #1f77b4; stroke-opacity: 0.1; stroke-width: 0.8"/>
     <use xlink:href="#m7464e0f6e1" x="292.896761" y="207.456" style="fill: #1f77b4; fill-opacity: 0.1; stroke: #1f77b4; stroke-opacity: 0.1; stroke-width: 0.8"/>
     <use xlink:href="#m7464e0f6e1" x="130.569489" y="261.216" style="fill: #1f77b4; fill-opacity: 0.1; stroke: #1f77b4; stroke-opacity: 0.1; stroke-width: 0.8"/>
     <use xlink:href="#m7464e0f6e1" x="292.896761" y="19.296" style="fill: #1f77b4; fill-opacity: 0.1; stroke: #1f77b4; stroke-opacity: 0.1; stroke-width: 0.8"/>
     <use xlink:href="#m7464e0f6e1" x="49.405852" y="46.176" style="fill: #1f77b4; fill-opacity: 0.1; stroke: #1f77b4; stroke-opacity: 0.1; stroke-width: 0.8"/>
     <use xlink:href="#m7464e0f6e1" x="130.569489" y="234.336" style="fill: #1f77b4; fill-opacity: 0.1; stroke: #1f77b4; stroke-opacity: 0.1; stroke-width: 0.8"/>
     <use xlink:href="#m7464e0f6e1" x="130.569489" y="99.936" style="fill: #1f77b4; fill-opacity: 0.1; stroke: #1f77b4; stroke-opacity: 0.1; stroke-width: 0.8"/>
     <use xlink:href="#m7464e0f6e1" x="292.896761" y="46.176" style="fill: #1f77b4; fill-opacity: 0.1; stroke: #1f77b4; stroke-opacity: 0.1; stroke-width: 0.8"/>
     <use xlink:href="#m7464e0f6e1" x="211.733125" y="99.936" style="fill: #1f77b4; fill-opacity: 0.1; stroke: #1f77b4; stroke-opacity: 0.1; stroke-width: 0.8"/>
     <use xlink:href="#m7464e0f6e1" x="211.733125" y="73.056" style="fill: #1f77b4; fill-opacity: 0.1; stroke: #1f77b4; stroke-opacity: 0.1; stroke-width: 0.8"/>
     <use xlink:href="#m7464e0f6e1" x="49.405852" y="261.216" style="fill: #1f77b4; fill-opacity: 0.1; stroke: #1f77b4; stroke-opacity: 0.1; stroke-width: 0.8"/>
     <use xlink:href="#m7464e0f6e1" x="374.060398" y="73.056" style="fill: #1f77b4; fill-opacity: 0.1; stroke: #1f77b4; stroke-opacity: 0.1; stroke-width: 0.8"/>
     <use xlink:href="#m7464e0f6e1" x="292.896761" y="234.336" style="fill: #1f77b4; fill-opacity: 0.1; stroke: #1f77b4; stroke-opacity: 0.1; stroke-width: 0.8"/>
     <use xlink:href="#m7464e0f6e1" x="374.060398" y="73.056" style="fill: #1f77b4; fill-opacity: 0.1; stroke: #1f77b4; stroke-opacity: 0.1; stroke-width: 0.8"/>
     <use xlink:href="#m7464e0f6e1" x="49.405852" y="19.296" style="fill: #1f77b4; fill-opacity: 0.1; stroke: #1f77b4; stroke-opacity: 0.1; stroke-width: 0.8"/>
     <use xlink:href="#m7464e0f6e1" x="211.733125" y="126.816" style="fill: #1f77b4; fill-opacity: 0.1; stroke: #1f77b4; stroke-opacity: 0.1; stroke-width: 0.8"/>
     <use xlink:href="#m7464e0f6e1" x="130.569489" y="261.216" style="fill: #1f77b4; fill-opacity: 0.1; stroke: #1f77b4; stroke-opacity: 0.1; stroke-width: 0.8"/>
     <use xlink:href="#m7464e0f6e1" x="49.405852" y="46.176" style="fill: #1f77b4; fill-opacity: 0.1; stroke: #1f77b4; stroke-opacity: 0.1; stroke-width: 0.8"/>
     <use xlink:href="#m7464e0f6e1" x="49.405852" y="126.816" style="fill: #1f77b4; fill-opacity: 0.1; stroke: #1f77b4; stroke-opacity: 0.1; stroke-width: 0.8"/>
     <use xlink:href="#m7464e0f6e1" x="49.405852" y="99.936" style="fill: #1f77b4; fill-opacity: 0.1; stroke: #1f77b4; stroke-opacity: 0.1; stroke-width: 0.8"/>
     <use xlink:href="#m7464e0f6e1" x="49.405852" y="73.056" style="fill: #1f77b4; fill-opacity: 0.1; stroke: #1f77b4; stroke-opacity: 0.1; stroke-width: 0.8"/>
     <use xlink:href="#m7464e0f6e1" x="130.569489" y="73.056" style="fill: #1f77b4; fill-opacity: 0.1; stroke: #1f77b4; stroke-opacity: 0.1; stroke-width: 0.8"/>
     <use xlink:href="#m7464e0f6e1" x="130.569489" y="126.816" style="fill: #1f77b4; fill-opacity: 0.1; stroke: #1f77b4; stroke-opacity: 0.1; stroke-width: 0.8"/>
     <use xlink:href="#m7464e0f6e1" x="130.569489" y="73.056" style="fill: #1f77b4; fill-opacity: 0.1; stroke: #1f77b4; stroke-opacity: 0.1; stroke-width: 0.8"/>
     <use xlink:href="#m7464e0f6e1" x="130.569489" y="73.056" style="fill: #1f77b4; fill-opacity: 0.1; stroke: #1f77b4; stroke-opacity: 0.1; stroke-width: 0.8"/>
     <use xlink:href="#m7464e0f6e1" x="49.405852" y="73.056" style="fill: #1f77b4; fill-opacity: 0.1; stroke: #1f77b4; stroke-opacity: 0.1; stroke-width: 0.8"/>
     <use xlink:href="#m7464e0f6e1" x="211.733125" y="126.816" style="fill: #1f77b4; fill-opacity: 0.1; stroke: #1f77b4; stroke-opacity: 0.1; stroke-width: 0.8"/>
     <use xlink:href="#m7464e0f6e1" x="374.060398" y="126.816" style="fill: #1f77b4; fill-opacity: 0.1; stroke: #1f77b4; stroke-opacity: 0.1; stroke-width: 0.8"/>
     <use xlink:href="#m7464e0f6e1" x="374.060398" y="46.176" style="fill: #1f77b4; fill-opacity: 0.1; stroke: #1f77b4; stroke-opacity: 0.1; stroke-width: 0.8"/>
     <use xlink:href="#m7464e0f6e1" x="49.405852" y="180.576" style="fill: #1f77b4; fill-opacity: 0.1; stroke: #1f77b4; stroke-opacity: 0.1; stroke-width: 0.8"/>
     <use xlink:href="#m7464e0f6e1" x="130.569489" y="261.216" style="fill: #1f77b4; fill-opacity: 0.1; stroke: #1f77b4; stroke-opacity: 0.1; stroke-width: 0.8"/>
     <use xlink:href="#m7464e0f6e1" x="374.060398" y="261.216" style="fill: #1f77b4; fill-opacity: 0.1; stroke: #1f77b4; stroke-opacity: 0.1; stroke-width: 0.8"/>
     <use xlink:href="#m7464e0f6e1" x="374.060398" y="207.456" style="fill: #1f77b4; fill-opacity: 0.1; stroke: #1f77b4; stroke-opacity: 0.1; stroke-width: 0.8"/>
     <use xlink:href="#m7464e0f6e1" x="130.569489" y="261.216" style="fill: #1f77b4; fill-opacity: 0.1; stroke: #1f77b4; stroke-opacity: 0.1; stroke-width: 0.8"/>
     <use xlink:href="#m7464e0f6e1" x="130.569489" y="261.216" style="fill: #1f77b4; fill-opacity: 0.1; stroke: #1f77b4; stroke-opacity: 0.1; stroke-width: 0.8"/>
     <use xlink:href="#m7464e0f6e1" x="49.405852" y="261.216" style="fill: #1f77b4; fill-opacity: 0.1; stroke: #1f77b4; stroke-opacity: 0.1; stroke-width: 0.8"/>
     <use xlink:href="#m7464e0f6e1" x="211.733125" y="99.936" style="fill: #1f77b4; fill-opacity: 0.1; stroke: #1f77b4; stroke-opacity: 0.1; stroke-width: 0.8"/>
     <use xlink:href="#m7464e0f6e1" x="374.060398" y="234.336" style="fill: #1f77b4; fill-opacity: 0.1; stroke: #1f77b4; stroke-opacity: 0.1; stroke-width: 0.8"/>
    </g>
   </g>
   <g id="patch_3">
    <path d="M 33.173125 261.216 
L 33.173125 46.176 
" style="fill: none; stroke: #262626; stroke-linejoin: miter; stroke-linecap: square"/>
   </g>
   <g id="patch_4">
    <path d="M 49.405852 273.312 
L 374.060398 273.312 
" style="fill: none; stroke: #262626; stroke-linejoin: miter; stroke-linecap: square"/>
   </g>
  </g>
 </g>
 <defs>
  <clipPath id="p95f5c6109a">
   <rect x="33.173125" y="7.2" width="357.12" height="266.112"/>
  </clipPath>
 </defs>
</svg>