<?xml version="1.0" encoding="utf-8" standalone="no"?>
<!DOCTYPE svg PUBLIC "-//W3C//DTD SVG 1.1//EN"
  "http://www.w3.org/Graphics/SVG/1.1/DTD/svg11.dtd">
<svg xmlns:xlink="http://www.w3.org/1999/xlink" width="402.632875pt" height="309.639375pt" viewBox="0 0 402.632875 309.639375" xmlns="http://www.w3.org/2000/svg" version="1.1">
 <metadata>
  <rdf:RDF xmlns:dc="http://purl.org/dc/elements/1.1/" xmlns:cc="http://creativecommons.org/ns#" xmlns:rdf="http://www.w3.org/1999/02/22-rdf-syntax-ns#">
   <cc:Work>
    <dc:type rdf:resource="http://purl.org/dc/dcmitype/StillImage"/>
    <dc:date>2023-10-23T22:29:12.470670</dc:date>
    <dc:format>image/svg+xml</dc:format>
    <dc:creator>
     <cc:Agent>
      <dc:title>Matplotlib v3.7.1, https://matplotlib.org/</dc:title>
     </cc:Agent>
    </dc:creator>
   </cc:Work>
  </rdf:RDF>
 </metadata>
 <defs>
  <style type="text/css">*{stroke-linejoin: round; stroke-linecap: butt}</style>
 </defs>
 <g id="figure_1">
  <g id="patch_1">
   <path d="M 0 309.639375 
L 402.632875 309.639375 
L 402.632875 0 
L 0 0 
z
" style="fill: #ffffff"/>
  </g>
  <g id="axes_1">
   <g id="patch_2">
    <path d="M 38.312875 273.312 
L 395.432875 273.312 
L 395.432875 7.2 
L 38.312875 7.2 
z
" style="fill: #ffffff"/>
   </g>
   <g id="matplotlib.axis_1">
    <g id="xtick_1">
     <g id="line2d_1">
      <defs>
       <path id="mdd997c164f" d="M 0 0 
L 0 4.8 
" style="stroke: #262626"/>
      </defs>
      <g>
       <use xlink:href="#mdd997c164f" x="54.545602" y="273.312" style="fill: #262626; stroke: #262626"/>
      </g>
     </g>
     <g id="text_1">
      <!-- 0.0 -->
      <g style="fill: #262626" transform="translate(48.429602 287.910875) scale(0.088 -0.088)">
       <defs>
        <path id="ArialMT-30" d="M 266 2259 
Q 266 3072 433 3567 
Q 600 4063 929 4331 
Q 1259 4600 1759 4600 
Q 2128 4600 2406 4451 
Q 2684 4303 2865 4023 
Q 3047 3744 3150 3342 
Q 3253 2941 3253 2259 
Q 3253 1453 3087 958 
Q 2922 463 2592 192 
Q 2263 -78 1759 -78 
Q 1097 -78 719 397 
Q 266 969 266 2259 
z
M 844 2259 
Q 844 1131 1108 757 
Q 1372 384 1759 384 
Q 2147 384 2411 759 
Q 2675 1134 2675 2259 
Q 2675 3391 2411 3762 
Q 2147 4134 1753 4134 
Q 1366 4134 1134 3806 
Q 844 3388 844 2259 
z
" transform="scale(0.015625)"/>
        <path id="ArialMT-2e" d="M 581 0 
L 581 641 
L 1222 641 
L 1222 0 
L 581 0 
z
" transform="scale(0.015625)"/>
       </defs>
       <use xlink:href="#ArialMT-30"/>
       <use xlink:href="#ArialMT-2e" x="55.615234"/>
       <use xlink:href="#ArialMT-30" x="83.398438"/>
      </g>
     </g>
    </g>
    <g id="xtick_2">
     <g id="line2d_2">
      <g>
       <use xlink:href="#mdd997c164f" x="119.476511" y="273.312" style="fill: #262626; stroke: #262626"/>
      </g>
     </g>
     <g id="text_2">
      <!-- 0.2 -->
      <g style="fill: #262626" transform="translate(113.360511 287.910875) scale(0.088 -0.088)">
       <defs>
        <path id="ArialMT-32" d="M 3222 541 
L 3222 0 
L 194 0 
Q 188 203 259 391 
Q 375 700 629 1000 
Q 884 1300 1366 1694 
Q 2113 2306 2375 2664 
Q 2638 3022 2638 3341 
Q 2638 3675 2398 3904 
Q 2159 4134 1775 4134 
Q 1369 4134 1125 3890 
Q 881 3647 878 3216 
L 300 3275 
Q 359 3922 746 4261 
Q 1134 4600 1788 4600 
Q 2447 4600 2831 4234 
Q 3216 3869 3216 3328 
Q 3216 3053 3103 2787 
Q 2991 2522 2730 2228 
Q 2469 1934 1863 1422 
Q 1356 997 1212 845 
Q 1069 694 975 541 
L 3222 541 
z
" transform="scale(0.015625)"/>
       </defs>
       <use xlink:href="#ArialMT-30"/>
       <use xlink:href="#ArialMT-2e" x="55.615234"/>
       <use xlink:href="#ArialMT-32" x="83.398438"/>
      </g>
     </g>
    </g>
    <g id="xtick_3">
     <g id="line2d_3">
      <g>
       <use xlink:href="#mdd997c164f" x="184.40742" y="273.312" style="fill: #262626; stroke: #262626"/>
      </g>
     </g>
     <g id="text_3">
      <!-- 0.4 -->
      <g style="fill: #262626" transform="translate(178.29142 287.910875) scale(0.088 -0.088)">
       <defs>
        <path id="ArialMT-34" d="M 2069 0 
L 2069 1097 
L 81 1097 
L 81 1613 
L 2172 4581 
L 2631 4581 
L 2631 1613 
L 3250 1613 
L 3250 1097 
L 2631 1097 
L 2631 0 
L 2069 0 
z
M 2069 1613 
L 2069 3678 
L 634 1613 
L 2069 1613 
z
" transform="scale(0.015625)"/>
       </defs>
       <use xlink:href="#ArialMT-30"/>
       <use xlink:href="#ArialMT-2e" x="55.615234"/>
       <use xlink:href="#ArialMT-34" x="83.398438"/>
      </g>
     </g>
    </g>
    <g id="xtick_4">
     <g id="line2d_4">
      <g>
       <use xlink:href="#mdd997c164f" x="249.33833" y="273.312" style="fill: #262626; stroke: #262626"/>
      </g>
     </g>
     <g id="text_4">
      <!-- 0.6 -->
      <g style="fill: #262626" transform="translate(243.22233 287.910875) scale(0.088 -0.088)">
       <defs>
        <path id="ArialMT-36" d="M 3184 3459 
L 2625 3416 
Q 2550 3747 2413 3897 
Q 2184 4138 1850 4138 
Q 1581 4138 1378 3988 
Q 1113 3794 959 3422 
Q 806 3050 800 2363 
Q 1003 2672 1297 2822 
Q 1591 2972 1913 2972 
Q 2475 2972 2870 2558 
Q 3266 2144 3266 1488 
Q 3266 1056 3080 686 
Q 2894 316 2569 119 
Q 2244 -78 1831 -78 
Q 1128 -78 684 439 
Q 241 956 241 2144 
Q 241 3472 731 4075 
Q 1159 4600 1884 4600 
Q 2425 4600 2770 4297 
Q 3116 3994 3184 3459 
z
M 888 1484 
Q 888 1194 1011 928 
Q 1134 663 1356 523 
Q 1578 384 1822 384 
Q 2178 384 2434 671 
Q 2691 959 2691 1453 
Q 2691 1928 2437 2201 
Q 2184 2475 1800 2475 
Q 1419 2475 1153 2201 
Q 888 1928 888 1484 
z
" transform="scale(0.015625)"/>
       </defs>
       <use xlink:href="#ArialMT-30"/>
       <use xlink:href="#ArialMT-2e" x="55.615234"/>
       <use xlink:href="#ArialMT-36" x="83.398438"/>
      </g>
     </g>
    </g>
    <g id="xtick_5">
     <g id="line2d_5">
      <g>
       <use xlink:href="#mdd997c164f" x="314.269239" y="273.312" style="fill: #262626; stroke: #262626"/>
      </g>
     </g>
     <g id="text_5">
      <!-- 0.8 -->
      <g style="fill: #262626" transform="translate(308.153239 287.910875) scale(0.088 -0.088)">
       <defs>
        <path id="ArialMT-38" d="M 1131 2484 
Q 781 2613 612 2850 
Q 444 3088 444 3419 
Q 444 3919 803 4259 
Q 1163 4600 1759 4600 
Q 2359 4600 2725 4251 
Q 3091 3903 3091 3403 
Q 3091 3084 2923 2848 
Q 2756 2613 2416 2484 
Q 2838 2347 3058 2040 
Q 3278 1734 3278 1309 
Q 3278 722 2862 322 
Q 2447 -78 1769 -78 
Q 1091 -78 675 323 
Q 259 725 259 1325 
Q 259 1772 486 2073 
Q 713 2375 1131 2484 
z
M 1019 3438 
Q 1019 3113 1228 2906 
Q 1438 2700 1772 2700 
Q 2097 2700 2305 2904 
Q 2513 3109 2513 3406 
Q 2513 3716 2298 3927 
Q 2084 4138 1766 4138 
Q 1444 4138 1231 3931 
Q 1019 3725 1019 3438 
z
M 838 1322 
Q 838 1081 952 856 
Q 1066 631 1291 507 
Q 1516 384 1775 384 
Q 2178 384 2440 643 
Q 2703 903 2703 1303 
Q 2703 1709 2433 1975 
Q 2163 2241 1756 2241 
Q 1359 2241 1098 1978 
Q 838 1716 838 1322 
z
" transform="scale(0.015625)"/>
       </defs>
       <use xlink:href="#ArialMT-30"/>
       <use xlink:href="#ArialMT-2e" x="55.615234"/>
       <use xlink:href="#ArialMT-38" x="83.398438"/>
      </g>
     </g>
    </g>
    <g id="xtick_6">
     <g id="line2d_6">
      <g>
       <use xlink:href="#mdd997c164f" x="379.200148" y="273.312" style="fill: #262626; stroke: #262626"/>
      </g>
     </g>
     <g id="text_6">
      <!-- 1.0 -->
      <g style="fill: #262626" transform="translate(373.084148 287.910875) scale(0.088 -0.088)">
       <defs>
        <path id="ArialMT-31" d="M 2384 0 
L 1822 0 
L 1822 3584 
Q 1619 3391 1289 3197 
Q 959 3003 697 2906 
L 697 3450 
Q 1169 3672 1522 3987 
Q 1875 4303 2022 4600 
L 2384 4600 
L 2384 0 
z
" transform="scale(0.015625)"/>
       </defs>
       <use xlink:href="#ArialMT-31"/>
       <use xlink:href="#ArialMT-2e" x="55.615234"/>
       <use xlink:href="#ArialMT-30" x="83.398438"/>
      </g>
     </g>
    </g>
    <g id="text_7">
     <!-- $x$ -->
     <g style="fill: #262626" transform="translate(213.992875 300.531375) scale(0.096 -0.096)">
      <defs>
       <path id="DejaVuSans-Oblique-78" d="M 3841 3500 
L 2234 1784 
L 3219 0 
L 2559 0 
L 1819 1388 
L 531 0 
L -166 0 
L 1556 1844 
L 641 3500 
L 1300 3500 
L 1972 2234 
L 3144 3500 
L 3841 3500 
z
" transform="scale(0.015625)"/>
      </defs>
      <use xlink:href="#DejaVuSans-Oblique-78" transform="translate(0 0.3125)"/>
     </g>
    </g>
   </g>
   <g id="matplotlib.axis_2">
    <g id="ytick_1">
     <g id="line2d_7">
      <defs>
       <path id="m7ac321cedd" d="M 0 0 
L -4.8 0 
" style="stroke: #262626"/>
      </defs>
      <g>
       <use xlink:href="#m7ac321cedd" x="38.312875" y="246.7008" style="fill: #262626; stroke: #262626"/>
      </g>
     </g>
     <g id="text_8">
      <!-- −4 -->
      <g style="fill: #262626" transform="translate(19.9795 249.850237) scale(0.088 -0.088)">
       <defs>
        <path id="ArialMT-2212" d="M 3381 1997 
L 356 1997 
L 356 2522 
L 3381 2522 
L 3381 1997 
z
" transform="scale(0.015625)"/>
       </defs>
       <use xlink:href="#ArialMT-2212"/>
       <use xlink:href="#ArialMT-34" x="58.398438"/>
      </g>
     </g>
    </g>
    <g id="ytick_2">
     <g id="line2d_8">
      <g>
       <use xlink:href="#m7ac321cedd" x="38.312875" y="193.4784" style="fill: #262626; stroke: #262626"/>
      </g>
     </g>
     <g id="text_9">
      <!-- −2 -->
      <g style="fill: #262626" transform="translate(19.9795 196.627837) scale(0.088 -0.088)">
       <use xlink:href="#ArialMT-2212"/>
       <use xlink:href="#ArialMT-32" x="58.398438"/>
      </g>
     </g>
    </g>
    <g id="ytick_3">
     <g id="line2d_9">
      <g>
       <use xlink:href="#m7ac321cedd" x="38.312875" y="140.256" style="fill: #262626; stroke: #262626"/>
      </g>
     </g>
     <g id="text_10">
      <!-- 0 -->
      <g style="fill: #262626" transform="translate(25.11925 143.405437) scale(0.088 -0.088)">
       <use xlink:href="#ArialMT-30"/>
      </g>
     </g>
    </g>
    <g id="ytick_4">
     <g id="line2d_10">
      <g>
       <use xlink:href="#m7ac321cedd" x="38.312875" y="87.0336" style="fill: #262626; stroke: #262626"/>
      </g>
     </g>
     <g id="text_11">
      <!-- 2 -->
      <g style="fill: #262626" transform="translate(25.11925 90.183037) scale(0.088 -0.088)">
       <use xlink:href="#ArialMT-32"/>
      </g>
     </g>
    </g>
    <g id="ytick_5">
     <g id="line2d_11">
      <g>
       <use xlink:href="#m7ac321cedd" x="38.312875" y="33.8112" style="fill: #262626; stroke: #262626"/>
      </g>
     </g>
     <g id="text_12">
      <!-- 4 -->
      <g style="fill: #262626" transform="translate(25.11925 36.960637) scale(0.088 -0.088)">
       <use xlink:href="#ArialMT-34"/>
      </g>
     </g>
    </g>
    <g id="text_13">
     <!-- $y$ -->
     <g style="fill: #262626" transform="translate(13.9635 143.136) rotate(-90) scale(0.096 -0.096)">
      <defs>
       <path id="DejaVuSans-Oblique-79" d="M 1588 -325 
Q 1188 -997 936 -1164 
Q 684 -1331 294 -1331 
L -159 -1331 
L -63 -850 
L 269 -850 
Q 509 -850 678 -719 
Q 847 -588 1056 -206 
L 1234 128 
L 459 3500 
L 1069 3500 
L 1650 819 
L 3256 3500 
L 3859 3500 
L 1588 -325 
z
" transform="scale(0.015625)"/>
      </defs>
      <use xlink:href="#DejaVuSans-Oblique-79" transform="translate(0 0.3125)"/>
     </g>
    </g>
   </g>
   <g id="line2d_12">
    <path d="M 54.545602 166.8672 
L 57.824941 166.732801 
L 61.10428 166.5984 
L 64.383619 166.464 
L 67.662958 166.329599 
L 70.942296 166.1952 
L 74.221636 166.060801 
L 77.500973 165.9264 
L 80.780313 165.792 
L 84.059653 165.6576 
L 87.33899 165.5232 
L 90.61833 165.388799 
L 93.89767 165.2544 
L 97.177007 165.120001 
L 100.456344 164.9856 
L 103.735686 164.8512 
L 107.015024 164.716799 
L 110.294361 164.5824 
L 113.573703 164.447999 
L 116.853041 164.3136 
L 120.132378 164.1792 
L 123.41172 164.0448 
L 126.691057 163.9104 
L 129.970395 163.776001 
L 133.249737 163.6416 
L 136.529069 163.507201 
L 139.808412 163.3728 
L 143.087754 163.2384 
L 146.367086 163.103999 
L 149.646428 162.9696 
L 152.92577 162.835201 
L 156.205103 162.7008 
L 159.484445 162.5664 
L 162.763787 162.431999 
L 166.04312 162.2976 
L 169.322462 162.163199 
L 172.601804 162.0288 
L 175.881137 161.894401 
L 179.160479 161.76 
L 182.439821 161.6256 
L 185.719153 161.491201 
L 188.998496 161.3568 
L 192.277838 161.222399 
L 195.55717 161.088 
L 198.836512 160.9536 
L 202.115855 160.819199 
L 205.395187 160.6848 
L 208.674529 160.550401 
L 211.953871 160.416 
L 215.233204 160.2816 
L 218.512556 160.1472 
L 221.791879 160.0128 
L 225.071221 159.878399 
L 228.350563 159.744 
L 231.629886 159.609601 
L 234.909247 159.4752 
L 238.18857 159.3408 
L 241.467912 159.206401 
L 244.747254 159.072 
L 248.026597 158.937599 
L 251.305939 158.8032 
L 254.585262 158.6688 
L 257.864623 158.534399 
L 261.143946 158.4 
L 264.423288 158.265601 
L 267.70263 158.1312 
L 270.981953 157.996801 
L 274.261315 157.8624 
L 277.540637 157.728 
L 280.81998 157.593599 
L 284.099322 157.4592 
L 287.378664 157.324801 
L 290.658006 157.1904 
L 293.937329 157.056 
L 297.21669 156.921599 
L 300.496013 156.7872 
L 303.775355 156.652799 
L 307.054697 156.5184 
L 310.33402 156.384 
L 313.613382 156.2496 
L 316.892705 156.1152 
L 320.172047 155.980801 
L 323.451389 155.8464 
L 326.730731 155.711999 
L 330.010073 155.5776 
L 333.289396 155.4432 
L 336.568738 155.308799 
L 339.84808 155.1744 
L 343.127423 155.040001 
L 346.406765 154.9056 
L 349.686088 154.7712 
L 352.96543 154.636801 
L 356.244772 154.5024 
L 359.524114 154.367999 
L 362.803456 154.2336 
L 366.082798 154.099201 
L 369.362141 153.9648 
L 372.641463 153.8304 
L 375.920806 153.696001 
L 379.200148 153.5616 
" clip-path="url(#p331661b52c)" style="fill: none; stroke: #1f77b4; stroke-width: 1.2; stroke-linecap: round"/>
   </g>
   <g id="line2d_13">
    <path d="M 54.545602 175.281935 
L 57.824941 171.695901 
L 61.10428 168.144518 
L 64.383619 164.989684 
L 67.662958 161.766707 
L 70.942296 159.182314 
L 74.221636 156.784973 
L 77.500973 154.711331 
L 80.780313 152.960386 
L 84.059653 151.503321 
L 87.33899 150.561097 
L 90.61833 149.93186 
L 93.89767 149.318833 
L 97.177007 149.394757 
L 100.456344 149.496031 
L 103.735686 150.081318 
L 107.015024 150.931439 
L 110.294361 152.08135 
L 113.573703 153.32086 
L 116.853041 154.76359 
L 120.132378 156.21708 
L 123.41172 158.006014 
L 126.691057 159.383636 
L 129.970395 160.946342 
L 133.249737 162.346117 
L 136.529069 164.05831 
L 139.808412 165.645743 
L 143.087754 167.310913 
L 146.367086 169.114713 
L 149.646428 171.105015 
L 152.92577 172.835049 
L 156.205103 174.561568 
L 159.484445 176.255578 
L 162.763787 177.580972 
L 166.04312 178.225711 
L 169.322462 178.254442 
L 172.601804 177.710757 
L 175.881137 176.147142 
L 179.160479 173.611876 
L 182.439821 170.640704 
L 185.719153 166.743288 
L 188.998496 162.41958 
L 192.277838 157.937797 
L 195.55717 153.313716 
L 198.836512 148.685964 
L 202.115855 144.561685 
L 205.395187 141.070159 
L 208.674529 137.997191 
L 211.953871 135.682662 
L 215.233204 134.307622 
L 218.512556 133.486756 
L 221.791879 133.14748 
L 225.071221 133.352824 
L 228.350563 134.024334 
L 231.629886 135.189568 
L 234.909247 136.474149 
L 238.18857 138.16797 
L 241.467912 139.754976 
L 244.747254 141.91855 
L 248.026597 143.724307 
L 251.305939 145.732326 
L 254.585262 147.666929 
L 257.864623 149.635951 
L 261.143946 151.321187 
L 264.423288 152.795 
L 267.70263 154.080463 
L 270.981953 154.765584 
L 274.261315 155.510149 
L 277.540637 155.633117 
L 280.81998 155.831089 
L 284.099322 155.630874 
L 287.378664 155.300601 
L 290.658006 155.375862 
L 293.937329 155.644624 
L 297.21669 156.346683 
L 300.496013 157.320369 
L 303.775355 158.90507 
L 307.054697 161.046842 
L 310.33402 163.767553 
L 313.613382 167.299788 
L 316.892705 171.054493 
L 320.172047 175.439325 
L 323.451389 180.174431 
L 326.730731 185.201124 
L 330.010073 190.139419 
L 333.289396 195.578045 
L 336.568738 200.461957 
L 339.84808 204.997664 
L 343.127423 208.992144 
L 346.406765 212.397909 
L 349.686088 214.945534 
L 352.96543 216.276842 
L 356.244772 216.833156 
L 359.524114 216.264578 
L 362.803456 215.0359 
L 366.082798 212.905922 
L 369.362141 210.23575 
L 372.641463 207.006842 
L 375.920806 203.57547 
L 379.200148 200.230277 
" clip-path="url(#p331661b52c)" style="fill: none; stroke: #ff7f0e; stroke-width: 0.5; stroke-linecap: round"/>
   </g>
   <g id="line2d_14">
    <path d="M 54.545602 141.490998 
L 57.824941 145.145114 
L 61.10428 148.352332 
L 64.383619 151.207552 
L 67.662958 152.905966 
L 70.942296 154.138199 
L 74.221636 154.544408 
L 77.500973 154.123464 
L 80.780313 152.883533 
L 84.059653 150.668646 
L 87.33899 148.473299 
L 90.61833 145.649851 
L 93.89767 142.504108 
L 97.177007 139.222783 
L 100.456344 135.959288 
L 103.735686 132.562001 
L 107.015024 129.372502 
L 110.294361 126.223924 
L 113.573703 123.240887 
L 116.853041 120.289649 
L 120.132378 117.412677 
L 123.41172 115.010435 
L 126.691057 112.519603 
L 129.970395 110.445362 
L 133.249737 108.333989 
L 136.529069 106.477903 
L 139.808412 105.241999 
L 143.087754 103.793466 
L 146.367086 102.895244 
L 149.646428 102.049452 
L 152.92577 101.32532 
L 156.205103 100.780055 
L 159.484445 100.309095 
L 162.763787 100.124924 
L 166.04312 99.382028 
L 169.322462 98.907607 
L 172.601804 98.236681 
L 175.881137 97.31743 
L 179.160479 96.383571 
L 182.439821 95.305473 
L 185.719153 94.124838 
L 188.998496 92.478022 
L 192.277838 91.083926 
L 195.55717 89.623569 
L 198.836512 88.160976 
L 202.115855 86.85767 
L 205.395187 85.674503 
L 208.674529 84.998758 
L 211.953871 84.693361 
L 215.233204 84.811593 
L 218.512556 85.670462 
L 221.791879 86.831378 
L 225.071221 88.972197 
L 228.350563 91.175878 
L 231.629886 93.851677 
L 234.909247 97.147861 
L 238.18857 100.414453 
L 241.467912 103.458823 
L 244.747254 106.80353 
L 248.026597 109.910708 
L 251.305939 112.424016 
L 254.585262 114.850992 
L 257.864623 117.012066 
L 261.143946 119.272659 
L 264.423288 121.296482 
L 267.70263 123.265593 
L 270.981953 125.177126 
L 274.261315 127.385905 
L 277.540637 129.841906 
L 280.81998 132.612266 
L 284.099322 135.698035 
L 287.378664 138.927665 
L 290.658006 141.978459 
L 293.937329 145.490026 
L 297.21669 148.733234 
L 300.496013 151.768788 
L 303.775355 154.272981 
L 307.054697 156.694858 
L 310.33402 158.705931 
L 313.613382 159.85815 
L 316.892705 160.875371 
L 320.172047 161.339067 
L 323.451389 161.360529 
L 326.730731 160.95191 
L 330.010073 160.395881 
L 333.289396 159.653242 
L 336.568738 158.837007 
L 339.84808 157.884836 
L 343.127423 156.962606 
L 346.406765 155.853401 
L 349.686088 154.684624 
L 352.96543 153.775797 
L 356.244772 152.786059 
L 359.524114 152.008783 
L 362.803456 151.117195 
L 366.082798 150.618274 
L 369.362141 150.18868 
L 372.641463 149.877568 
L 375.920806 149.695758 
L 379.200148 149.829242 
" clip-path="url(#p331661b52c)" style="fill: none; stroke: #ff7f0e; stroke-width: 0.5; stroke-linecap: round"/>
   </g>
   <g id="line2d_15">
    <path d="M 54.545602 169.946811 
L 57.824941 171.795419 
L 61.10428 173.061203 
L 64.383619 173.998041 
L 67.662958 173.725971 
L 70.942296 173.189627 
L 74.221636 171.724636 
L 77.500973 169.216908 
L 80.780313 166.131765 
L 84.059653 162.132298 
L 87.33899 157.66779 
L 90.61833 152.701804 
L 93.89767 147.795577 
L 97.177007 142.890511 
L 100.456344 138.657388 
L 103.735686 134.684363 
L 107.015024 131.810108 
L 110.294361 129.83164 
L 113.573703 129.157992 
L 116.853041 129.522206 
L 120.132378 131.072439 
L 123.41172 133.589328 
L 126.691057 136.999034 
L 129.970395 141.401266 
L 133.249737 146.330456 
L 136.529069 151.167618 
L 139.808412 156.240869 
L 143.087754 161.055695 
L 146.367086 165.734815 
L 149.646428 169.4645 
L 152.92577 172.490547 
L 156.205103 174.738037 
L 159.484445 175.800961 
L 162.763787 176.415912 
L 166.04312 175.948629 
L 169.322462 174.741863 
L 172.601804 172.630385 
L 175.881137 170.103415 
L 179.160479 167.096684 
L 182.439821 163.776459 
L 185.719153 160.572991 
L 188.998496 157.075432 
L 192.277838 153.931543 
L 195.55717 150.993406 
L 198.836512 148.647682 
L 202.115855 146.792503 
L 205.395187 145.535594 
L 208.674529 145.155275 
L 211.953871 145.479779 
L 215.233204 146.48864 
L 218.512556 148.447689 
L 221.791879 151.303936 
L 225.071221 154.826698 
L 228.350563 159.197558 
L 231.629886 164.16404 
L 234.909247 169.80597 
L 238.18857 175.86187 
L 241.467912 182.240332 
L 244.747254 188.881357 
L 248.026597 195.518958 
L 251.305939 202.055195 
L 254.585262 208.398753 
L 257.864623 214.03521 
L 261.143946 219.10873 
L 264.423288 223.493747 
L 267.70263 226.971637 
L 270.981953 229.660201 
L 274.261315 231.32684 
L 277.540637 232.039586 
L 280.81998 232.070079 
L 284.099322 231.345975 
L 287.378664 230.196504 
L 290.658006 228.224398 
L 293.937329 226.066909 
L 297.21669 223.530266 
L 300.496013 220.821399 
L 303.775355 217.896016 
L 307.054697 215.018326 
L 310.33402 212.1718 
L 313.613382 209.252616 
L 316.892705 206.23011 
L 320.172047 203.560116 
L 323.451389 200.898263 
L 326.730731 198.545798 
L 330.010073 196.492144 
L 333.289396 194.824966 
L 336.568738 193.403438 
L 339.84808 192.588436 
L 343.127423 192.009957 
L 346.406765 191.818236 
L 349.686088 192.195242 
L 352.96543 192.831767 
L 356.244772 193.83583 
L 359.524114 195.255651 
L 362.803456 196.523404 
L 366.082798 198.076322 
L 369.362141 199.580653 
L 372.641463 201.096062 
L 375.920806 202.292667 
L 379.200148 203.234835 
" clip-path="url(#p331661b52c)" style="fill: none; stroke: #ff7f0e; stroke-width: 0.5; stroke-linecap: round"/>
   </g>
   <g id="line2d_16">
    <path d="M 54.545602 148.761267 
L 57.824941 150.920317 
L 61.10428 152.922931 
L 64.383619 155.358059 
L 67.662958 157.87752 
L 70.942296 160.555622 
L 74.221636 163.294834 
L 77.500973 166.122343 
L 80.780313 168.824365 
L 84.059653 171.217987 
L 87.33899 173.436708 
L 90.61833 175.881614 
L 93.89767 177.497848 
L 97.177007 179.130191 
L 100.456344 180.210696 
L 103.735686 180.900577 
L 107.015024 181.19128 
L 110.294361 180.924293 
L 113.573703 180.243777 
L 116.853041 179.162447 
L 120.132378 177.850941 
L 123.41172 176.058771 
L 126.691057 173.741148 
L 129.970395 171.656989 
L 133.249737 169.349647 
L 136.529069 167.213818 
L 139.808412 165.042484 
L 143.087754 163.219279 
L 146.367086 161.854046 
L 149.646428 160.843212 
L 152.92577 160.183632 
L 156.205103 159.74806 
L 159.484445 160.022715 
L 162.763787 160.194446 
L 166.04312 160.67728 
L 169.322462 160.942226 
L 172.601804 161.075008 
L 175.881137 161.366282 
L 179.160479 161.137115 
L 182.439821 160.64687 
L 185.719153 160.148507 
L 188.998496 159.566332 
L 192.277838 158.874297 
L 195.55717 157.879141 
L 198.836512 157.584901 
L 202.115855 157.007726 
L 205.395187 156.700361 
L 208.674529 156.8178 
L 211.953871 157.305331 
L 215.233204 158.147594 
L 218.512556 159.334146 
L 221.791879 161.202713 
L 225.071221 163.133679 
L 228.350563 165.774583 
L 231.629886 168.489296 
L 234.909247 171.6269 
L 238.18857 174.73548 
L 241.467912 178.162934 
L 244.747254 181.444129 
L 248.026597 184.23789 
L 251.305939 187.048632 
L 254.585262 189.12412 
L 257.864623 190.570953 
L 261.143946 191.28469 
L 264.423288 191.264041 
L 267.70263 190.730013 
L 270.981953 188.910025 
L 274.261315 186.896089 
L 277.540637 183.670866 
L 280.81998 179.699385 
L 284.099322 175.274905 
L 287.378664 170.051154 
L 290.658006 164.627539 
L 293.937329 158.841091 
L 297.21669 152.93275 
L 300.496013 146.794821 
L 303.775355 140.627513 
L 307.054697 134.621999 
L 310.33402 129.196155 
L 313.613382 123.704998 
L 316.892705 118.988218 
L 320.172047 114.927365 
L 323.451389 111.389401 
L 326.730731 108.825597 
L 330.010073 107.103145 
L 333.289396 106.213917 
L 336.568738 106.245275 
L 339.84808 106.990084 
L 343.127423 108.477748 
L 346.406765 110.572187 
L 349.686088 113.137974 
L 352.96543 116.147975 
L 356.244772 119.458761 
L 359.524114 122.683117 
L 362.803456 125.855773 
L 366.082798 129.109166 
L 369.362141 131.777193 
L 372.641463 134.419806 
L 375.920806 136.542552 
L 379.200148 138.649107 
" clip-path="url(#p331661b52c)" style="fill: none; stroke: #ff7f0e; stroke-width: 0.5; stroke-linecap: round"/>
   </g>
   <g id="line2d_17">
    <path d="M 54.545602 179.396798 
L 57.824941 175.102446 
L 61.10428 170.974415 
L 64.383619 167.177765 
L 67.662958 163.802339 
L 70.942296 160.847741 
L 74.221636 158.515848 
L 77.500973 156.470493 
L 80.780313 155.249063 
L 84.059653 154.407656 
L 87.33899 153.735872 
L 90.61833 153.6732 
L 93.89767 153.824788 
L 97.177007 154.372688 
L 100.456344 154.75761 
L 103.735686 155.405282 
L 107.015024 156.017425 
L 110.294361 156.486329 
L 113.573703 156.933145 
L 116.853041 156.768623 
L 120.132378 156.499694 
L 123.41172 155.918678 
L 126.691057 155.006048 
L 129.970395 153.747965 
L 133.249737 152.376843 
L 136.529069 150.548627 
L 139.808412 148.783738 
L 143.087754 147.02676 
L 146.367086 144.893325 
L 149.646428 143.352854 
L 152.92577 141.754424 
L 156.205103 140.491378 
L 159.484445 139.727767 
L 162.763787 139.052053 
L 166.04312 138.647237 
L 169.322462 138.702436 
L 172.601804 138.677236 
L 175.881137 139.039701 
L 179.160479 139.108864 
L 182.439821 138.853333 
L 185.719153 138.800427 
L 188.998496 138.365149 
L 192.277838 137.608098 
L 195.55717 136.440377 
L 198.836512 135.026668 
L 202.115855 133.138845 
L 205.395187 131.408685 
L 208.674529 129.22319 
L 211.953871 127.511882 
L 215.233204 125.79549 
L 218.512556 124.298192 
L 221.791879 123.195441 
L 225.071221 122.680453 
L 228.350563 122.842886 
L 231.629886 123.422248 
L 234.909247 124.625375 
L 238.18857 126.373217 
L 241.467912 128.42672 
L 244.747254 130.71321 
L 248.026597 133.168828 
L 251.305939 135.718385 
L 254.585262 138.156007 
L 257.864623 140.593615 
L 261.143946 142.74882 
L 264.423288 144.410238 
L 267.70263 145.96293 
L 270.981953 146.991461 
L 274.261315 148.062896 
L 277.540637 148.326347 
L 280.81998 148.431719 
L 284.099322 148.513509 
L 287.378664 148.390602 
L 290.658006 148.084256 
L 293.937329 147.954593 
L 297.21669 148.115508 
L 300.496013 148.240706 
L 303.775355 148.638791 
L 307.054697 149.715046 
L 310.33402 151.009497 
L 313.613382 152.469982 
L 316.892705 154.248023 
L 320.172047 155.979787 
L 323.451389 157.760212 
L 326.730731 158.877427 
L 330.010073 159.156529 
L 333.289396 158.7289 
L 336.568738 157.198827 
L 339.84808 154.503398 
L 343.127423 150.770895 
L 346.406765 145.949273 
L 349.686088 140.158609 
L 352.96543 133.754674 
L 356.244772 126.89432 
L 359.524114 120.034768 
L 362.803456 113.27824 
L 366.082798 107.063088 
L 369.362141 101.69685 
L 372.641463 97.331356 
L 375.920806 94.255977 
L 379.200148 92.249702 
" clip-path="url(#p331661b52c)" style="fill: none; stroke: #ff7f0e; stroke-width: 0.5; stroke-linecap: round"/>
   </g>
   <g id="line2d_18">
    <path d="M 54.545602 180.921159 
L 57.824941 177.639317 
L 61.10428 174.220654 
L 64.383619 170.776793 
L 67.662958 167.308572 
L 70.942296 163.91457 
L 74.221636 160.754892 
L 77.500973 157.740578 
L 80.780313 155.441979 
L 84.059653 153.701997 
L 87.33899 152.582769 
L 90.61833 152.052023 
L 93.89767 152.202532 
L 97.177007 153.257752 
L 100.456344 154.778238 
L 103.735686 156.62086 
L 107.015024 158.758161 
L 110.294361 161.101588 
L 113.573703 163.004591 
L 116.853041 164.841342 
L 120.132378 166.017746 
L 123.41172 166.826027 
L 126.691057 166.863393 
L 129.970395 166.309163 
L 133.249737 164.862824 
L 136.529069 163.365337 
L 139.808412 161.159743 
L 143.087754 158.980723 
L 146.367086 156.455658 
L 149.646428 153.863794 
L 152.92577 151.514103 
L 156.205103 149.356003 
L 159.484445 147.856235 
L 162.763787 146.228229 
L 166.04312 145.254766 
L 169.322462 144.830536 
L 172.601804 144.763884 
L 175.881137 144.905215 
L 179.160479 145.491555 
L 182.439821 146.572465 
L 185.719153 147.712414 
L 188.998496 148.90901 
L 192.277838 150.437999 
L 195.55717 151.90063 
L 198.836512 153.693195 
L 202.115855 155.563148 
L 205.395187 157.578118 
L 208.674529 159.914736 
L 211.953871 162.252322 
L 215.233204 165.066355 
L 218.512556 167.955706 
L 221.791879 171.031986 
L 225.071221 174.309783 
L 228.350563 177.742058 
L 231.629886 181.332169 
L 234.909247 184.546605 
L 238.18857 187.942231 
L 241.467912 190.787549 
L 244.747254 193.285997 
L 248.026597 195.404622 
L 251.305939 196.318772 
L 254.585262 196.983236 
L 257.864623 196.440176 
L 261.143946 195.165849 
L 264.423288 193.134773 
L 267.70263 190.389326 
L 270.981953 187.212519 
L 274.261315 183.507232 
L 277.540637 179.543583 
L 280.81998 175.757748 
L 284.099322 172.64749 
L 287.378664 169.721063 
L 290.658006 167.414996 
L 293.937329 165.909165 
L 297.21669 165.305076 
L 300.496013 164.977488 
L 303.775355 165.448483 
L 307.054697 166.603323 
L 310.33402 168.231823 
L 313.613382 169.752742 
L 316.892705 171.490424 
L 320.172047 172.77791 
L 323.451389 174.131671 
L 326.730731 174.740096 
L 330.010073 174.971671 
L 333.289396 174.595671 
L 336.568738 173.755404 
L 339.84808 172.355771 
L 343.127423 170.605812 
L 346.406765 168.372587 
L 349.686088 166.023468 
L 352.96543 163.373136 
L 356.244772 161.022422 
L 359.524114 158.642535 
L 362.803456 156.799282 
L 366.082798 155.168977 
L 369.362141 154.253441 
L 372.641463 153.506175 
L 375.920806 153.467272 
L 379.200148 153.560347 
" clip-path="url(#p331661b52c)" style="fill: none; stroke: #ff7f0e; stroke-width: 0.5; stroke-linecap: round"/>
   </g>
   <g id="line2d_19">
    <path d="M 54.545602 148.235165 
L 57.824941 149.015789 
L 61.10428 150.194162 
L 64.383619 151.4547 
L 67.662958 153.089152 
L 70.942296 154.955024 
L 74.221636 157.21181 
L 77.500973 159.815369 
L 80.780313 162.75496 
L 84.059653 165.909606 
L 87.33899 169.209523 
L 90.61833 172.435704 
L 93.89767 175.403364 
L 97.177007 178.080495 
L 100.456344 180.724901 
L 103.735686 182.246223 
L 107.015024 183.022644 
L 110.294361 183.448634 
L 113.573703 182.93598 
L 116.853041 181.657177 
L 120.132378 179.686296 
L 123.41172 176.742028 
L 126.691057 173.368751 
L 129.970395 169.702623 
L 133.249737 165.653709 
L 136.529069 161.642929 
L 139.808412 158.020201 
L 143.087754 154.272015 
L 146.367086 151.260347 
L 149.646428 148.580876 
L 152.92577 146.840069 
L 156.205103 145.130553 
L 159.484445 144.871679 
L 162.763787 144.958359 
L 166.04312 145.589528 
L 169.322462 146.971688 
L 172.601804 148.95532 
L 175.881137 151.215995 
L 179.160479 153.774623 
L 182.439821 156.616729 
L 185.719153 159.472909 
L 188.998496 162.153749 
L 192.277838 164.867888 
L 195.55717 167.480787 
L 198.836512 169.501648 
L 202.115855 171.664083 
L 205.395187 173.30311 
L 208.674529 174.557 
L 211.953871 175.493445 
L 215.233204 176.151698 
L 218.512556 176.47697 
L 221.791879 176.557333 
L 225.071221 176.185254 
L 228.350563 176.018753 
L 231.629886 175.403313 
L 234.909247 174.785488 
L 238.18857 174.442296 
L 241.467912 173.838239 
L 244.747254 173.609694 
L 248.026597 173.437571 
L 251.305939 173.707978 
L 254.585262 174.298137 
L 257.864623 175.159858 
L 261.143946 176.264118 
L 264.423288 177.876294 
L 267.70263 179.434796 
L 270.981953 181.627421 
L 274.261315 183.797117 
L 277.540637 185.94691 
L 280.81998 188.343769 
L 284.099322 190.699958 
L 287.378664 192.955969 
L 290.658006 195.108253 
L 293.937329 197.047614 
L 297.21669 198.939436 
L 300.496013 200.712061 
L 303.775355 202.214438 
L 307.054697 203.245056 
L 310.33402 204.480642 
L 313.613382 205.108517 
L 316.892705 205.737527 
L 320.172047 205.884246 
L 323.451389 205.779586 
L 326.730731 205.661449 
L 330.010073 205.351363 
L 333.289396 204.750218 
L 336.568738 204.189932 
L 339.84808 203.493085 
L 343.127423 202.859126 
L 346.406765 202.147407 
L 349.686088 201.693299 
L 352.96543 200.985577 
L 356.244772 200.378792 
L 359.524114 199.794048 
L 362.803456 199.227373 
L 366.082798 198.032633 
L 369.362141 196.838414 
L 372.641463 195.348935 
L 375.920806 193.054174 
L 379.200148 190.571201 
" clip-path="url(#p331661b52c)" style="fill: none; stroke: #ff7f0e; stroke-width: 0.5; stroke-linecap: round"/>
   </g>
   <g id="line2d_20">
    <path d="M 54.545602 186.209298 
L 57.824941 190.714627 
L 61.10428 194.444258 
L 64.383619 197.503975 
L 67.662958 199.846568 
L 70.942296 201.420062 
L 74.221636 202.140003 
L 77.500973 202.545868 
L 80.780313 202.773753 
L 84.059653 202.60229 
L 87.33899 202.39243 
L 90.61833 202.430523 
L 93.89767 202.444494 
L 97.177007 202.766945 
L 100.456344 203.045385 
L 103.735686 203.713027 
L 107.015024 204.008381 
L 110.294361 204.244521 
L 113.573703 204.370982 
L 116.853041 203.729714 
L 120.132378 202.609295 
L 123.41172 201.166906 
L 126.691057 199.003358 
L 129.970395 196.635627 
L 133.249737 193.677862 
L 136.529069 190.4538 
L 139.808412 187.097067 
L 143.087754 183.670948 
L 146.367086 180.613217 
L 149.646428 177.418341 
L 152.92577 174.688835 
L 156.205103 172.745695 
L 159.484445 170.762679 
L 162.763787 169.490269 
L 166.04312 168.993651 
L 169.322462 168.542563 
L 172.601804 168.770188 
L 175.881137 169.552478 
L 179.160479 170.637802 
L 182.439821 172.322031 
L 185.719153 174.353376 
L 188.998496 176.214839 
L 192.277838 178.444371 
L 195.55717 180.485798 
L 198.836512 182.480333 
L 202.115855 183.934459 
L 205.395187 184.858144 
L 208.674529 185.290393 
L 211.953871 184.726665 
L 215.233204 183.416542 
L 218.512556 180.896044 
L 221.791879 177.810967 
L 225.071221 173.3054 
L 228.350563 168.250584 
L 231.629886 162.389949 
L 234.909247 156.351587 
L 238.18857 149.976877 
L 241.467912 143.923346 
L 244.747254 137.79895 
L 248.026597 132.146558 
L 251.305939 127.423871 
L 254.585262 123.228398 
L 257.864623 119.943025 
L 261.143946 117.725864 
L 264.423288 115.948488 
L 267.70263 115.258794 
L 270.981953 114.950585 
L 274.261315 115.119056 
L 277.540637 115.815391 
L 280.81998 116.864715 
L 284.099322 117.810891 
L 287.378664 119.326628 
L 290.658006 120.418052 
L 293.937329 121.669007 
L 297.21669 122.859179 
L 300.496013 123.999128 
L 303.775355 125.175018 
L 307.054697 126.164959 
L 310.33402 127.117111 
L 313.613382 128.03029 
L 316.892705 128.597607 
L 320.172047 129.616252 
L 323.451389 130.497245 
L 326.730731 131.419728 
L 330.010073 131.901228 
L 333.289396 132.564774 
L 336.568738 133.124617 
L 339.84808 133.561429 
L 343.127423 133.681064 
L 346.406765 133.961862 
L 349.686088 133.876026 
L 352.96543 133.848498 
L 356.244772 133.470525 
L 359.524114 133.183325 
L 362.803456 132.888615 
L 366.082798 132.650286 
L 369.362141 132.631603 
L 372.641463 133.143402 
L 375.920806 133.888598 
L 379.200148 135.049495 
" clip-path="url(#p331661b52c)" style="fill: none; stroke: #ff7f0e; stroke-width: 0.5; stroke-linecap: round"/>
   </g>
   <g id="line2d_21">
    <path d="M 54.545602 166.710701 
L 57.824941 167.510949 
L 61.10428 168.703817 
L 64.383619 170.183753 
L 67.662958 171.783701 
L 70.942296 173.528001 
L 74.221636 175.218597 
L 77.500973 176.657724 
L 80.780313 178.19848 
L 84.059653 179.175638 
L 87.33899 180.005794 
L 90.61833 180.154807 
L 93.89767 180.178034 
L 97.177007 179.521 
L 100.456344 178.383672 
L 103.735686 177.226156 
L 107.015024 175.607407 
L 110.294361 173.854779 
L 113.573703 171.782876 
L 116.853041 169.685109 
L 120.132378 167.484003 
L 123.41172 165.28201 
L 126.691057 162.967408 
L 129.970395 160.978922 
L 133.249737 158.820075 
L 136.529069 156.679862 
L 139.808412 154.917577 
L 143.087754 153.010688 
L 146.367086 151.252688 
L 149.646428 150.096526 
L 152.92577 148.76369 
L 156.205103 148.334677 
L 159.484445 148.087582 
L 162.763787 147.807972 
L 166.04312 147.997223 
L 169.322462 148.519879 
L 172.601804 149.122886 
L 175.881137 149.604572 
L 179.160479 149.915342 
L 182.439821 150.044787 
L 185.719153 149.719543 
L 188.998496 148.999339 
L 192.277838 147.817171 
L 195.55717 146.601277 
L 198.836512 144.821244 
L 202.115855 143.211612 
L 205.395187 141.521606 
L 208.674529 140.4546 
L 211.953871 139.776261 
L 215.233204 140.085633 
L 218.512556 140.868273 
L 221.791879 143.194599 
L 225.071221 146.179193 
L 228.350563 149.823289 
L 231.629886 154.571712 
L 234.909247 159.924761 
L 238.18857 165.850255 
L 241.467912 171.744037 
L 244.747254 177.907307 
L 248.026597 183.771993 
L 251.305939 189.418189 
L 254.585262 194.623347 
L 257.864623 199.45248 
L 261.143946 203.598666 
L 264.423288 207.408284 
L 267.70263 210.586931 
L 270.981953 213.26896 
L 274.261315 215.722399 
L 277.540637 217.627754 
L 280.81998 219.009596 
L 284.099322 220.152259 
L 287.378664 220.945938 
L 290.658006 221.17473 
L 293.937329 221.105289 
L 297.21669 220.427209 
L 300.496013 219.513688 
L 303.775355 218.277727 
L 307.054697 216.357862 
L 310.33402 214.260215 
L 313.613382 211.502362 
L 316.892705 208.250016 
L 320.172047 204.885631 
L 323.451389 201.091266 
L 326.730731 196.991103 
L 330.010073 192.945618 
L 333.289396 188.67346 
L 336.568738 184.69583 
L 339.84808 180.733041 
L 343.127423 177.137335 
L 346.406765 173.440461 
L 349.686088 170.461022 
L 352.96543 167.772448 
L 356.244772 165.267222 
L 359.524114 163.296239 
L 362.803456 161.41315 
L 366.082798 160.004724 
L 369.362141 158.857077 
L 372.641463 157.718696 
L 375.920806 156.686297 
L 379.200148 155.934346 
" clip-path="url(#p331661b52c)" style="fill: none; stroke: #ff7f0e; stroke-width: 0.5; stroke-linecap: round"/>
   </g>
   <g id="line2d_22">
    <path d="M 54.545602 192.95818 
L 57.824941 195.96492 
L 61.10428 199.038551 
L 64.383619 202.108046 
L 67.662958 204.707119 
L 70.942296 206.914064 
L 74.221636 208.635958 
L 77.500973 209.735447 
L 80.780313 210.131451 
L 84.059653 210.131997 
L 87.33899 209.084896 
L 90.61833 207.545264 
L 93.89767 205.569389 
L 97.177007 203.031331 
L 100.456344 200.116937 
L 103.735686 196.927035 
L 107.015024 193.161963 
L 110.294361 189.608014 
L 113.573703 185.37635 
L 116.853041 181.002357 
L 120.132378 176.319569 
L 123.41172 171.455992 
L 126.691057 166.125173 
L 129.970395 160.720181 
L 133.249737 155.373445 
L 136.529069 149.984699 
L 139.808412 145.170194 
L 143.087754 140.347989 
L 146.367086 136.631694 
L 149.646428 133.762619 
L 152.92577 131.59368 
L 156.205103 130.931005 
L 159.484445 131.435336 
L 162.763787 132.950589 
L 166.04312 135.607746 
L 169.322462 139.260419 
L 172.601804 143.375487 
L 175.881137 148.05048 
L 179.160479 152.767291 
L 182.439821 157.2318 
L 185.719153 161.521585 
L 188.998496 165.166015 
L 192.277838 168.132238 
L 195.55717 170.054929 
L 198.836512 171.328827 
L 202.115855 171.560139 
L 205.395187 171.077924 
L 208.674529 169.814021 
L 211.953871 167.929909 
L 215.233204 165.485475 
L 218.512556 163.054386 
L 221.791879 160.135018 
L 225.071221 157.531963 
L 228.350563 154.930834 
L 231.629886 152.594812 
L 234.909247 150.456103 
L 238.18857 149.084624 
L 241.467912 147.864807 
L 244.747254 147.330293 
L 248.026597 147.221066 
L 251.305939 147.628145 
L 254.585262 148.383427 
L 257.864623 149.22712 
L 261.143946 150.379299 
L 264.423288 151.643406 
L 267.70263 152.442589 
L 270.981953 153.549425 
L 274.261315 153.872367 
L 277.540637 154.015931 
L 280.81998 153.795656 
L 284.099322 153.219177 
L 287.378664 152.186585 
L 290.658006 151.196609 
L 293.937329 149.935013 
L 297.21669 148.721547 
L 300.496013 147.76611 
L 303.775355 147.125289 
L 307.054697 146.62677 
L 310.33402 146.600382 
L 313.613382 146.958968 
L 316.892705 147.547421 
L 320.172047 148.433537 
L 323.451389 149.417951 
L 326.730731 150.445555 
L 330.010073 151.421283 
L 333.289396 152.296453 
L 336.568738 152.910644 
L 339.84808 153.814041 
L 343.127423 154.459569 
L 346.406765 155.224678 
L 349.686088 156.085755 
L 352.96543 156.957226 
L 356.244772 157.866452 
L 359.524114 159.232363 
L 362.803456 160.625955 
L 366.082798 162.03941 
L 369.362141 163.326858 
L 372.641463 164.703571 
L 375.920806 165.445913 
L 379.200148 166.102126 
" clip-path="url(#p331661b52c)" style="fill: none; stroke: #ff7f0e; stroke-width: 0.5; stroke-linecap: round"/>
   </g>
   <g id="patch_3">
    <path d="M 38.312875 246.7008 
L 38.312875 33.8112 
" style="fill: none; stroke: #262626; stroke-linejoin: miter; stroke-linecap: square"/>
   </g>
   <g id="patch_4">
    <path d="M 54.545602 273.312 
L 379.200148 273.312 
" style="fill: none; stroke: #262626; stroke-linejoin: miter; stroke-linecap: square"/>
   </g>
   <g id="legend_1">
    <g id="line2d_23">
     <path d="M 334.506625 18.338875 
L 343.306625 18.338875 
L 352.106625 18.338875 
" style="fill: none; stroke: #1f77b4; stroke-width: 1.2; stroke-linecap: round"/>
    </g>
    <g id="text_14">
     <!-- mean -->
     <g style="fill: #262626" transform="translate(359.146625 21.418875) scale(0.088 -0.088)">
      <defs>
       <path id="ArialMT-6d" d="M 422 0 
L 422 3319 
L 925 3319 
L 925 2853 
Q 1081 3097 1340 3245 
Q 1600 3394 1931 3394 
Q 2300 3394 2536 3241 
Q 2772 3088 2869 2813 
Q 3263 3394 3894 3394 
Q 4388 3394 4653 3120 
Q 4919 2847 4919 2278 
L 4919 0 
L 4359 0 
L 4359 2091 
Q 4359 2428 4304 2576 
Q 4250 2725 4106 2815 
Q 3963 2906 3769 2906 
Q 3419 2906 3187 2673 
Q 2956 2441 2956 1928 
L 2956 0 
L 2394 0 
L 2394 2156 
Q 2394 2531 2256 2718 
Q 2119 2906 1806 2906 
Q 1569 2906 1367 2781 
Q 1166 2656 1075 2415 
Q 984 2175 984 1722 
L 984 0 
L 422 0 
z
" transform="scale(0.015625)"/>
       <path id="ArialMT-65" d="M 2694 1069 
L 3275 997 
Q 3138 488 2766 206 
Q 2394 -75 1816 -75 
Q 1088 -75 661 373 
Q 234 822 234 1631 
Q 234 2469 665 2931 
Q 1097 3394 1784 3394 
Q 2450 3394 2872 2941 
Q 3294 2488 3294 1666 
Q 3294 1616 3291 1516 
L 816 1516 
Q 847 969 1125 678 
Q 1403 388 1819 388 
Q 2128 388 2347 550 
Q 2566 713 2694 1069 
z
M 847 1978 
L 2700 1978 
Q 2663 2397 2488 2606 
Q 2219 2931 1791 2931 
Q 1403 2931 1139 2672 
Q 875 2413 847 1978 
z
" transform="scale(0.015625)"/>
       <path id="ArialMT-61" d="M 2588 409 
Q 2275 144 1986 34 
Q 1697 -75 1366 -75 
Q 819 -75 525 192 
Q 231 459 231 875 
Q 231 1119 342 1320 
Q 453 1522 633 1644 
Q 813 1766 1038 1828 
Q 1203 1872 1538 1913 
Q 2219 1994 2541 2106 
Q 2544 2222 2544 2253 
Q 2544 2597 2384 2738 
Q 2169 2928 1744 2928 
Q 1347 2928 1158 2789 
Q 969 2650 878 2297 
L 328 2372 
Q 403 2725 575 2942 
Q 747 3159 1072 3276 
Q 1397 3394 1825 3394 
Q 2250 3394 2515 3294 
Q 2781 3194 2906 3042 
Q 3031 2891 3081 2659 
Q 3109 2516 3109 2141 
L 3109 1391 
Q 3109 606 3145 398 
Q 3181 191 3288 0 
L 2700 0 
Q 2613 175 2588 409 
z
M 2541 1666 
Q 2234 1541 1622 1453 
Q 1275 1403 1131 1340 
Q 988 1278 909 1158 
Q 831 1038 831 891 
Q 831 666 1001 516 
Q 1172 366 1500 366 
Q 1825 366 2078 508 
Q 2331 650 2450 897 
Q 2541 1088 2541 1459 
L 2541 1666 
z
" transform="scale(0.015625)"/>
       <path id="ArialMT-6e" d="M 422 0 
L 422 3319 
L 928 3319 
L 928 2847 
Q 1294 3394 1984 3394 
Q 2284 3394 2536 3286 
Q 2788 3178 2913 3003 
Q 3038 2828 3088 2588 
Q 3119 2431 3119 2041 
L 3119 0 
L 2556 0 
L 2556 2019 
Q 2556 2363 2490 2533 
Q 2425 2703 2258 2804 
Q 2091 2906 1866 2906 
Q 1506 2906 1245 2678 
Q 984 2450 984 1813 
L 984 0 
L 422 0 
z
" transform="scale(0.015625)"/>
      </defs>
      <use xlink:href="#ArialMT-6d"/>
      <use xlink:href="#ArialMT-65" x="83.300781"/>
      <use xlink:href="#ArialMT-61" x="138.916016"/>
      <use xlink:href="#ArialMT-6e" x="194.53125"/>
     </g>
    </g>
    <g id="line2d_24">
     <path d="M 334.506625 30.78675 
L 343.306625 30.78675 
L 352.106625 30.78675 
" style="fill: none; stroke: #ff7f0e; stroke-width: 0.5; stroke-linecap: round"/>
    </g>
    <g id="text_15">
     <!-- sample -->
     <g style="fill: #262626" transform="translate(359.146625 33.86675) scale(0.088 -0.088)">
      <defs>
       <path id="ArialMT-73" d="M 197 991 
L 753 1078 
Q 800 744 1014 566 
Q 1228 388 1613 388 
Q 2000 388 2187 545 
Q 2375 703 2375 916 
Q 2375 1106 2209 1216 
Q 2094 1291 1634 1406 
Q 1016 1563 777 1677 
Q 538 1791 414 1992 
Q 291 2194 291 2438 
Q 291 2659 392 2848 
Q 494 3038 669 3163 
Q 800 3259 1026 3326 
Q 1253 3394 1513 3394 
Q 1903 3394 2198 3281 
Q 2494 3169 2634 2976 
Q 2775 2784 2828 2463 
L 2278 2388 
Q 2241 2644 2061 2787 
Q 1881 2931 1553 2931 
Q 1166 2931 1000 2803 
Q 834 2675 834 2503 
Q 834 2394 903 2306 
Q 972 2216 1119 2156 
Q 1203 2125 1616 2013 
Q 2213 1853 2448 1751 
Q 2684 1650 2818 1456 
Q 2953 1263 2953 975 
Q 2953 694 2789 445 
Q 2625 197 2315 61 
Q 2006 -75 1616 -75 
Q 969 -75 630 194 
Q 291 463 197 991 
z
" transform="scale(0.015625)"/>
       <path id="ArialMT-70" d="M 422 -1272 
L 422 3319 
L 934 3319 
L 934 2888 
Q 1116 3141 1344 3267 
Q 1572 3394 1897 3394 
Q 2322 3394 2647 3175 
Q 2972 2956 3137 2557 
Q 3303 2159 3303 1684 
Q 3303 1175 3120 767 
Q 2938 359 2589 142 
Q 2241 -75 1856 -75 
Q 1575 -75 1351 44 
Q 1128 163 984 344 
L 984 -1272 
L 422 -1272 
z
M 931 1641 
Q 931 1000 1190 694 
Q 1450 388 1819 388 
Q 2194 388 2461 705 
Q 2728 1022 2728 1688 
Q 2728 2322 2467 2637 
Q 2206 2953 1844 2953 
Q 1484 2953 1207 2617 
Q 931 2281 931 1641 
z
" transform="scale(0.015625)"/>
       <path id="ArialMT-6c" d="M 409 0 
L 409 4581 
L 972 4581 
L 972 0 
L 409 0 
z
" transform="scale(0.015625)"/>
      </defs>
      <use xlink:href="#ArialMT-73"/>
      <use xlink:href="#ArialMT-61" x="50"/>
      <use xlink:href="#ArialMT-6d" x="105.615234"/>
      <use xlink:href="#ArialMT-70" x="188.916016"/>
      <use xlink:href="#ArialMT-6c" x="244.53125"/>
      <use xlink:href="#ArialMT-65" x="266.748047"/>
     </g>
    </g>
   </g>
  </g>
 </g>
 <defs>
  <clipPath id="p331661b52c">
   <rect x="38.312875" y="7.2" width="357.12" height="266.112"/>
  </clipPath>
 </defs>
</svg>