<?xml version="1.0" encoding="utf-8" standalone="no"?>
<!DOCTYPE svg PUBLIC "-//W3C//DTD SVG 1.1//EN"
  "http://www.w3.org/Graphics/SVG/1.1/DTD/svg11.dtd">
<svg xmlns:xlink="http://www.w3.org/1999/xlink" width="402.632875pt" height="309.639375pt" viewBox="0 0 402.632875 309.639375" xmlns="http://www.w3.org/2000/svg" version="1.1">
 <metadata>
  <rdf:RDF xmlns:dc="http://purl.org/dc/elements/1.1/" xmlns:cc="http://creativecommons.org/ns#" xmlns:rdf="http://www.w3.org/1999/02/22-rdf-syntax-ns#">
   <cc:Work>
    <dc:type rdf:resource="http://purl.org/dc/dcmitype/StillImage"/>
    <dc:date>2023-09-17T16:03:25.172808</dc:date>
    <dc:format>image/svg+xml</dc:format>
    <dc:creator>
     <cc:Agent>
      <dc:title>Matplotlib v3.7.1, https://matplotlib.org/</dc:title>
     </cc:Agent>
    </dc:creator>
   </cc:Work>
  </rdf:RDF>
 </metadata>
 <defs>
  <style type="text/css">*{stroke-linejoin: round; stroke-linecap: butt}</style>
 </defs>
 <g id="figure_1">
  <g id="patch_1">
   <path d="M 0 309.639375 
L 402.632875 309.639375 
L 402.632875 0 
L 0 0 
z
" style="fill: #ffffff"/>
  </g>
  <g id="axes_1">
   <g id="patch_2">
    <path d="M 38.312875 273.312 
L 395.432875 273.312 
L 395.432875 7.2 
L 38.312875 7.2 
z
" style="fill: #ffffff"/>
   </g>
   <g id="matplotlib.axis_1">
    <g id="xtick_1">
     <g id="line2d_1">
      <defs>
       <path id="m725527547f" d="M 0 0 
L 0 4.8 
" style="stroke: #262626"/>
      </defs>
      <g>
       <use xlink:href="#m725527547f" x="54.545602" y="273.312" style="fill: #262626; stroke: #262626"/>
      </g>
     </g>
     <g id="text_1">
      <!-- −1.00 -->
      <g style="fill: #262626" transform="translate(43.412915 287.910875) scale(0.088 -0.088)">
       <defs>
        <path id="ArialMT-2212" d="M 3381 1997 
L 356 1997 
L 356 2522 
L 3381 2522 
L 3381 1997 
z
" transform="scale(0.015625)"/>
        <path id="ArialMT-31" d="M 2384 0 
L 1822 0 
L 1822 3584 
Q 1619 3391 1289 3197 
Q 959 3003 697 2906 
L 697 3450 
Q 1169 3672 1522 3987 
Q 1875 4303 2022 4600 
L 2384 4600 
L 2384 0 
z
" transform="scale(0.015625)"/>
        <path id="ArialMT-2e" d="M 581 0 
L 581 641 
L 1222 641 
L 1222 0 
L 581 0 
z
" transform="scale(0.015625)"/>
        <path id="ArialMT-30" d="M 266 2259 
Q 266 3072 433 3567 
Q 600 4063 929 4331 
Q 1259 4600 1759 4600 
Q 2128 4600 2406 4451 
Q 2684 4303 2865 4023 
Q 3047 3744 3150 3342 
Q 3253 2941 3253 2259 
Q 3253 1453 3087 958 
Q 2922 463 2592 192 
Q 2263 -78 1759 -78 
Q 1097 -78 719 397 
Q 266 969 266 2259 
z
M 844 2259 
Q 844 1131 1108 757 
Q 1372 384 1759 384 
Q 2147 384 2411 759 
Q 2675 1134 2675 2259 
Q 2675 3391 2411 3762 
Q 2147 4134 1753 4134 
Q 1366 4134 1134 3806 
Q 844 3388 844 2259 
z
" transform="scale(0.015625)"/>
       </defs>
       <use xlink:href="#ArialMT-2212"/>
       <use xlink:href="#ArialMT-31" x="58.398438"/>
       <use xlink:href="#ArialMT-2e" x="114.013672"/>
       <use xlink:href="#ArialMT-30" x="141.796875"/>
       <use xlink:href="#ArialMT-30" x="197.412109"/>
      </g>
     </g>
    </g>
    <g id="xtick_2">
     <g id="line2d_2">
      <g>
       <use xlink:href="#m725527547f" x="95.12742" y="273.312" style="fill: #262626; stroke: #262626"/>
      </g>
     </g>
     <g id="text_2">
      <!-- −0.75 -->
      <g style="fill: #262626" transform="translate(83.994733 287.910875) scale(0.088 -0.088)">
       <defs>
        <path id="ArialMT-37" d="M 303 3981 
L 303 4522 
L 3269 4522 
L 3269 4084 
Q 2831 3619 2401 2847 
Q 1972 2075 1738 1259 
Q 1569 684 1522 0 
L 944 0 
Q 953 541 1156 1306 
Q 1359 2072 1739 2783 
Q 2119 3494 2547 3981 
L 303 3981 
z
" transform="scale(0.015625)"/>
        <path id="ArialMT-35" d="M 266 1200 
L 856 1250 
Q 922 819 1161 601 
Q 1400 384 1738 384 
Q 2144 384 2425 690 
Q 2706 997 2706 1503 
Q 2706 1984 2436 2262 
Q 2166 2541 1728 2541 
Q 1456 2541 1237 2417 
Q 1019 2294 894 2097 
L 366 2166 
L 809 4519 
L 3088 4519 
L 3088 3981 
L 1259 3981 
L 1013 2750 
Q 1425 3038 1878 3038 
Q 2478 3038 2890 2622 
Q 3303 2206 3303 1553 
Q 3303 931 2941 478 
Q 2500 -78 1738 -78 
Q 1113 -78 717 272 
Q 322 622 266 1200 
z
" transform="scale(0.015625)"/>
       </defs>
       <use xlink:href="#ArialMT-2212"/>
       <use xlink:href="#ArialMT-30" x="58.398438"/>
       <use xlink:href="#ArialMT-2e" x="114.013672"/>
       <use xlink:href="#ArialMT-37" x="141.796875"/>
       <use xlink:href="#ArialMT-35" x="197.412109"/>
      </g>
     </g>
    </g>
    <g id="xtick_3">
     <g id="line2d_3">
      <g>
       <use xlink:href="#m725527547f" x="135.709239" y="273.312" style="fill: #262626; stroke: #262626"/>
      </g>
     </g>
     <g id="text_3">
      <!-- −0.50 -->
      <g style="fill: #262626" transform="translate(124.576551 287.910875) scale(0.088 -0.088)">
       <use xlink:href="#ArialMT-2212"/>
       <use xlink:href="#ArialMT-30" x="58.398438"/>
       <use xlink:href="#ArialMT-2e" x="114.013672"/>
       <use xlink:href="#ArialMT-35" x="141.796875"/>
       <use xlink:href="#ArialMT-30" x="197.412109"/>
      </g>
     </g>
    </g>
    <g id="xtick_4">
     <g id="line2d_4">
      <g>
       <use xlink:href="#m725527547f" x="176.291057" y="273.312" style="fill: #262626; stroke: #262626"/>
      </g>
     </g>
     <g id="text_4">
      <!-- −0.25 -->
      <g style="fill: #262626" transform="translate(165.158369 287.910875) scale(0.088 -0.088)">
       <defs>
        <path id="ArialMT-32" d="M 3222 541 
L 3222 0 
L 194 0 
Q 188 203 259 391 
Q 375 700 629 1000 
Q 884 1300 1366 1694 
Q 2113 2306 2375 2664 
Q 2638 3022 2638 3341 
Q 2638 3675 2398 3904 
Q 2159 4134 1775 4134 
Q 1369 4134 1125 3890 
Q 881 3647 878 3216 
L 300 3275 
Q 359 3922 746 4261 
Q 1134 4600 1788 4600 
Q 2447 4600 2831 4234 
Q 3216 3869 3216 3328 
Q 3216 3053 3103 2787 
Q 2991 2522 2730 2228 
Q 2469 1934 1863 1422 
Q 1356 997 1212 845 
Q 1069 694 975 541 
L 3222 541 
z
" transform="scale(0.015625)"/>
       </defs>
       <use xlink:href="#ArialMT-2212"/>
       <use xlink:href="#ArialMT-30" x="58.398438"/>
       <use xlink:href="#ArialMT-2e" x="114.013672"/>
       <use xlink:href="#ArialMT-32" x="141.796875"/>
       <use xlink:href="#ArialMT-35" x="197.412109"/>
      </g>
     </g>
    </g>
    <g id="xtick_5">
     <g id="line2d_5">
      <g>
       <use xlink:href="#m725527547f" x="216.872875" y="273.312" style="fill: #262626; stroke: #262626"/>
      </g>
     </g>
     <g id="text_5">
      <!-- 0.00 -->
      <g style="fill: #262626" transform="translate(208.310063 287.910875) scale(0.088 -0.088)">
       <use xlink:href="#ArialMT-30"/>
       <use xlink:href="#ArialMT-2e" x="55.615234"/>
       <use xlink:href="#ArialMT-30" x="83.398438"/>
       <use xlink:href="#ArialMT-30" x="139.013672"/>
      </g>
     </g>
    </g>
    <g id="xtick_6">
     <g id="line2d_6">
      <g>
       <use xlink:href="#m725527547f" x="257.454693" y="273.312" style="fill: #262626; stroke: #262626"/>
      </g>
     </g>
     <g id="text_6">
      <!-- 0.25 -->
      <g style="fill: #262626" transform="translate(248.891881 287.910875) scale(0.088 -0.088)">
       <use xlink:href="#ArialMT-30"/>
       <use xlink:href="#ArialMT-2e" x="55.615234"/>
       <use xlink:href="#ArialMT-32" x="83.398438"/>
       <use xlink:href="#ArialMT-35" x="139.013672"/>
      </g>
     </g>
    </g>
    <g id="xtick_7">
     <g id="line2d_7">
      <g>
       <use xlink:href="#m725527547f" x="298.036511" y="273.312" style="fill: #262626; stroke: #262626"/>
      </g>
     </g>
     <g id="text_7">
      <!-- 0.50 -->
      <g style="fill: #262626" transform="translate(289.473699 287.910875) scale(0.088 -0.088)">
       <use xlink:href="#ArialMT-30"/>
       <use xlink:href="#ArialMT-2e" x="55.615234"/>
       <use xlink:href="#ArialMT-35" x="83.398438"/>
       <use xlink:href="#ArialMT-30" x="139.013672"/>
      </g>
     </g>
    </g>
    <g id="xtick_8">
     <g id="line2d_8">
      <g>
       <use xlink:href="#m725527547f" x="338.61833" y="273.312" style="fill: #262626; stroke: #262626"/>
      </g>
     </g>
     <g id="text_8">
      <!-- 0.75 -->
      <g style="fill: #262626" transform="translate(330.055517 287.910875) scale(0.088 -0.088)">
       <use xlink:href="#ArialMT-30"/>
       <use xlink:href="#ArialMT-2e" x="55.615234"/>
       <use xlink:href="#ArialMT-37" x="83.398438"/>
       <use xlink:href="#ArialMT-35" x="139.013672"/>
      </g>
     </g>
    </g>
    <g id="xtick_9">
     <g id="line2d_9">
      <g>
       <use xlink:href="#m725527547f" x="379.200148" y="273.312" style="fill: #262626; stroke: #262626"/>
      </g>
     </g>
     <g id="text_9">
      <!-- 1.00 -->
      <g style="fill: #262626" transform="translate(370.637335 287.910875) scale(0.088 -0.088)">
       <use xlink:href="#ArialMT-31"/>
       <use xlink:href="#ArialMT-2e" x="55.615234"/>
       <use xlink:href="#ArialMT-30" x="83.398438"/>
       <use xlink:href="#ArialMT-30" x="139.013672"/>
      </g>
     </g>
    </g>
    <g id="text_10">
     <!-- $x$ -->
     <g style="fill: #262626" transform="translate(213.992875 300.531375) scale(0.096 -0.096)">
      <defs>
       <path id="DejaVuSans-Oblique-78" d="M 3841 3500 
L 2234 1784 
L 3219 0 
L 2559 0 
L 1819 1388 
L 531 0 
L -166 0 
L 1556 1844 
L 641 3500 
L 1300 3500 
L 1972 2234 
L 3144 3500 
L 3841 3500 
z
" transform="scale(0.015625)"/>
      </defs>
      <use xlink:href="#DejaVuSans-Oblique-78" transform="translate(0 0.3125)"/>
     </g>
    </g>
   </g>
   <g id="matplotlib.axis_2">
    <g id="ytick_1">
     <g id="line2d_10">
      <defs>
       <path id="m1233c819c0" d="M 0 0 
L -4.8 0 
" style="stroke: #262626"/>
      </defs>
      <g>
       <use xlink:href="#m1233c819c0" x="38.312875" y="265.902265" style="fill: #262626; stroke: #262626"/>
      </g>
     </g>
     <g id="text_11">
      <!-- −2 -->
      <g style="fill: #262626" transform="translate(19.9795 269.051703) scale(0.088 -0.088)">
       <use xlink:href="#ArialMT-2212"/>
       <use xlink:href="#ArialMT-32" x="58.398438"/>
      </g>
     </g>
    </g>
    <g id="ytick_2">
     <g id="line2d_11">
      <g>
       <use xlink:href="#m1233c819c0" x="38.312875" y="223.455041" style="fill: #262626; stroke: #262626"/>
      </g>
     </g>
     <g id="text_12">
      <!-- −1 -->
      <g style="fill: #262626" transform="translate(19.9795 226.604478) scale(0.088 -0.088)">
       <use xlink:href="#ArialMT-2212"/>
       <use xlink:href="#ArialMT-31" x="58.398438"/>
      </g>
     </g>
    </g>
    <g id="ytick_3">
     <g id="line2d_12">
      <g>
       <use xlink:href="#m1233c819c0" x="38.312875" y="181.007816" style="fill: #262626; stroke: #262626"/>
      </g>
     </g>
     <g id="text_13">
      <!-- 0 -->
      <g style="fill: #262626" transform="translate(25.11925 184.157254) scale(0.088 -0.088)">
       <use xlink:href="#ArialMT-30"/>
      </g>
     </g>
    </g>
    <g id="ytick_4">
     <g id="line2d_13">
      <g>
       <use xlink:href="#m1233c819c0" x="38.312875" y="138.560592" style="fill: #262626; stroke: #262626"/>
      </g>
     </g>
     <g id="text_14">
      <!-- 1 -->
      <g style="fill: #262626" transform="translate(25.11925 141.710029) scale(0.088 -0.088)">
       <use xlink:href="#ArialMT-31"/>
      </g>
     </g>
    </g>
    <g id="ytick_5">
     <g id="line2d_14">
      <g>
       <use xlink:href="#m1233c819c0" x="38.312875" y="96.113367" style="fill: #262626; stroke: #262626"/>
      </g>
     </g>
     <g id="text_15">
      <!-- 2 -->
      <g style="fill: #262626" transform="translate(25.11925 99.262804) scale(0.088 -0.088)">
       <use xlink:href="#ArialMT-32"/>
      </g>
     </g>
    </g>
    <g id="ytick_6">
     <g id="line2d_15">
      <g>
       <use xlink:href="#m1233c819c0" x="38.312875" y="53.666142" style="fill: #262626; stroke: #262626"/>
      </g>
     </g>
     <g id="text_16">
      <!-- 3 -->
      <g style="fill: #262626" transform="translate(25.11925 56.81558) scale(0.088 -0.088)">
       <defs>
        <path id="ArialMT-33" d="M 269 1209 
L 831 1284 
Q 928 806 1161 595 
Q 1394 384 1728 384 
Q 2125 384 2398 659 
Q 2672 934 2672 1341 
Q 2672 1728 2419 1979 
Q 2166 2231 1775 2231 
Q 1616 2231 1378 2169 
L 1441 2663 
Q 1497 2656 1531 2656 
Q 1891 2656 2178 2843 
Q 2466 3031 2466 3422 
Q 2466 3731 2256 3934 
Q 2047 4138 1716 4138 
Q 1388 4138 1169 3931 
Q 950 3725 888 3313 
L 325 3413 
Q 428 3978 793 4289 
Q 1159 4600 1703 4600 
Q 2078 4600 2393 4439 
Q 2709 4278 2876 4000 
Q 3044 3722 3044 3409 
Q 3044 3113 2884 2869 
Q 2725 2625 2413 2481 
Q 2819 2388 3044 2092 
Q 3269 1797 3269 1353 
Q 3269 753 2831 336 
Q 2394 -81 1725 -81 
Q 1122 -81 723 278 
Q 325 638 269 1209 
z
" transform="scale(0.015625)"/>
       </defs>
       <use xlink:href="#ArialMT-33"/>
      </g>
     </g>
    </g>
    <g id="ytick_7">
     <g id="line2d_16">
      <g>
       <use xlink:href="#m1233c819c0" x="38.312875" y="11.218918" style="fill: #262626; stroke: #262626"/>
      </g>
     </g>
     <g id="text_17">
      <!-- 4 -->
      <g style="fill: #262626" transform="translate(25.11925 14.368355) scale(0.088 -0.088)">
       <defs>
        <path id="ArialMT-34" d="M 2069 0 
L 2069 1097 
L 81 1097 
L 81 1613 
L 2172 4581 
L 2631 4581 
L 2631 1613 
L 3250 1613 
L 3250 1097 
L 2631 1097 
L 2631 0 
L 2069 0 
z
M 2069 1613 
L 2069 3678 
L 634 1613 
L 2069 1613 
z
" transform="scale(0.015625)"/>
       </defs>
       <use xlink:href="#ArialMT-34"/>
      </g>
     </g>
    </g>
    <g id="text_18">
     <!-- $y$ -->
     <g style="fill: #262626" transform="translate(13.9635 143.136) rotate(-90) scale(0.096 -0.096)">
      <defs>
       <path id="DejaVuSans-Oblique-79" d="M 1588 -325 
Q 1188 -997 936 -1164 
Q 684 -1331 294 -1331 
L -159 -1331 
L -63 -850 
L 269 -850 
Q 509 -850 678 -719 
Q 847 -588 1056 -206 
L 1234 128 
L 459 3500 
L 1069 3500 
L 1650 819 
L 3256 3500 
L 3859 3500 
L 1588 -325 
z
" transform="scale(0.015625)"/>
      </defs>
      <use xlink:href="#DejaVuSans-Oblique-79" transform="translate(0 0.3125)"/>
     </g>
    </g>
   </g>
   <g id="PolyCollection_1">
    <defs>
     <path id="m2ae09e0c56" d="M 54.545602 -178.129715 
L 54.545602 -48.97902 
L 57.824941 -52.743783 
L 61.10428 -56.112885 
L 64.383619 -59.126556 
L 67.662958 -61.821689 
L 70.942296 -64.231999 
L 74.221635 -66.388169 
L 77.500974 -68.317972 
L 80.780313 -70.046383 
L 84.059652 -71.595664 
L 87.338991 -72.985432 
L 90.61833 -74.232705 
L 93.897668 -75.351934 
L 97.177007 -76.355039 
L 100.456346 -77.251501 
L 103.735685 -78.048577 
L 107.015024 -78.751785 
L 110.294363 -79.365818 
L 113.573701 -79.896009 
L 116.85304 -80.350191 
L 120.132379 -80.740356 
L 123.411718 -81.083186 
L 126.691057 -81.398861 
L 129.970396 -81.708583 
L 133.249735 -82.03196 
L 136.529073 -82.385267 
L 139.808412 -82.78084 
L 143.087751 -83.227324 
L 146.36709 -83.730314 
L 149.646429 -84.293093 
L 152.925768 -84.917279 
L 156.205106 -85.603352 
L 159.484445 -86.351043 
L 162.763784 -87.159613 
L 166.043123 -88.028053 
L 169.322462 -88.95522 
L 172.601801 -89.939924 
L 175.881139 -90.980995 
L 179.160478 -92.077318 
L 182.439817 -93.227857 
L 185.719156 -94.431669 
L 188.998495 -95.687909 
L 192.277834 -96.995834 
L 195.557173 -98.354795 
L 198.836511 -99.764235 
L 202.11585 -101.223684 
L 205.395189 -102.732743 
L 208.674528 -104.291079 
L 211.953867 -105.898411 
L 215.233206 -107.554498 
L 218.512544 -109.259123 
L 221.791883 -111.012078 
L 225.071222 -112.813145 
L 228.350561 -114.662082 
L 231.6299 -116.558603 
L 234.909239 -118.502363 
L 238.188577 -120.492945 
L 241.467916 -122.529856 
L 244.747255 -124.612528 
L 248.026594 -126.74034 
L 251.305933 -128.912649 
L 254.585272 -131.128856 
L 257.864611 -133.388477 
L 261.143949 -135.691246 
L 264.423288 -138.03722 
L 267.702627 -140.426882 
L 270.981966 -142.861224 
L 274.261305 -145.3418 
L 277.540644 -147.870738 
L 280.819982 -150.450722 
L 284.099321 -153.084935 
L 287.37866 -155.777001 
L 290.657999 -158.530911 
L 293.937338 -161.350971 
L 297.216677 -164.24175 
L 300.496015 -167.208058 
L 303.775354 -170.254929 
L 307.054693 -173.387621 
L 310.334032 -176.611619 
L 313.613371 -179.932644 
L 316.89271 -183.35665 
L 320.172049 -186.88981 
L 323.451387 -190.538469 
L 326.730726 -194.309055 
L 330.010065 -198.207894 
L 333.289404 -202.240909 
L 336.568743 -206.413066 
L 339.848082 -210.727439 
L 343.12742 -215.183562 
L 346.406759 -219.774536 
L 349.686098 -224.48196 
L 352.965437 -229.267314 
L 356.244776 -234.059074 
L 359.524115 -238.739839 
L 362.803454 -243.151298 
L 366.082792 -247.13835 
L 369.362131 -250.605417 
L 372.64147 -253.521062 
L 375.920809 -255.87824 
L 379.200148 -257.662662 
L 379.200148 -288.138078 
L 379.200148 -288.138078 
L 375.920809 -280.377969 
L 372.64147 -273.177549 
L 369.362131 -266.549345 
L 366.082792 -260.510425 
L 362.803454 -255.050929 
L 359.524115 -250.094494 
L 356.244776 -245.503028 
L 352.965437 -241.133176 
L 349.686098 -236.880595 
L 346.406759 -232.685044 
L 343.12742 -228.517665 
L 339.848082 -224.368205 
L 336.568743 -220.236536 
L 333.289404 -216.127688 
L 330.010065 -212.049074 
L 326.730726 -208.008942 
L 323.451387 -204.015532 
L 320.172049 -200.076627 
L 316.89271 -196.199323 
L 313.613371 -192.389939 
L 310.334032 -188.653998 
L 307.054693 -184.996253 
L 303.775354 -181.420741 
L 300.496015 -177.930847 
L 297.216677 -174.529362 
L 293.937338 -171.218551 
L 290.657999 -168.000196 
L 287.37866 -164.875634 
L 284.099321 -161.845766 
L 280.819982 -158.911059 
L 277.540644 -156.071518 
L 274.261305 -153.326653 
L 270.981966 -150.675447 
L 267.702627 -148.116329 
L 264.423288 -145.647179 
L 261.143949 -143.265362 
L 257.864611 -140.967801 
L 254.585272 -138.751078 
L 251.305933 -136.611551 
L 248.026594 -134.545475 
L 244.747255 -132.549112 
L 241.467916 -130.618819 
L 238.188577 -128.751115 
L 234.909239 -126.942726 
L 231.6299 -125.190608 
L 228.350561 -123.49196 
L 225.071222 -121.844216 
L 221.791883 -120.245043 
L 218.512544 -118.692326 
L 215.233206 -117.184153 
L 211.953867 -115.718802 
L 208.674528 -114.294727 
L 205.395189 -112.910544 
L 202.11585 -111.565019 
L 198.836511 -110.257064 
L 195.557173 -108.985721 
L 192.277834 -107.750167 
L 188.998495 -106.549701 
L 185.719156 -105.383751 
L 182.439817 -104.251876 
L 179.160478 -103.153772 
L 175.881139 -102.089285 
L 172.601801 -101.058431 
L 169.322462 -100.061423 
L 166.043123 -99.098716 
L 162.763784 -98.171061 
L 159.484445 -97.279591 
L 156.205106 -96.425937 
L 152.925768 -95.612387 
L 149.646429 -94.84212 
L 146.36709 -94.119515 
L 143.087751 -93.45058 
L 139.808412 -92.843515 
L 136.529073 -92.309405 
L 133.249735 -91.863003 
L 129.970396 -91.523425 
L 126.691057 -91.314446 
L 123.411718 -91.26396 
L 120.132379 -91.402302 
L 116.85304 -91.759697 
L 113.573701 -92.363858 
L 110.294363 -93.238872 
L 107.015024 -94.405813 
L 103.735685 -95.884484 
L 100.456346 -97.695374 
L 97.177007 -99.861217 
L 93.897668 -102.408013 
L 90.61833 -105.365618 
L 87.338991 -108.768078 
L 84.059652 -112.653838 
L 80.780313 -117.065906 
L 77.500974 -122.052018 
L 74.221635 -127.664829 
L 70.942296 -133.962119 
L 67.662958 -141.00704 
L 64.383619 -148.868379 
L 61.10428 -157.620859 
L 57.824941 -167.34545 
L 54.545602 -178.129715 
z
" style="stroke: #ff0000; stroke-opacity: 0.25; stroke-width: 0.8"/>
    </defs>
    <g clip-path="url(#p50c71dfd38)">
     <use xlink:href="#m2ae09e0c56" x="0" y="309.639375" style="fill: #ff0000; fill-opacity: 0.25; stroke: #ff0000; stroke-opacity: 0.25; stroke-width: 0.8"/>
    </g>
   </g>
   <g id="PolyCollection_2">
    <defs>
     <path id="m42ac7c6edc" d="M 54.545602 -48.97902 
L 54.545602 -48.423375 
L 57.824941 -52.118317 
L 61.10428 -55.407783 
L 64.383619 -58.330528 
L 67.662958 -60.921765 
L 70.942296 -63.213315 
L 74.221635 -65.233765 
L 77.500974 -67.008629 
L 80.780313 -68.560553 
L 84.059652 -69.909574 
L 87.338991 -71.07347 
L 90.61833 -72.06825 
L 93.897668 -72.908795 
L 97.177007 -73.609653 
L 100.456346 -74.185899 
L 103.735685 -74.653912 
L 107.015024 -75.031816 
L 110.294363 -75.339404 
L 113.573701 -75.597484 
L 116.85304 -75.826802 
L 120.132379 -76.046862 
L 123.411718 -76.274951 
L 126.691057 -76.525561 
L 129.970396 -76.810217 
L 133.249735 -77.137638 
L 136.529073 -77.514086 
L 139.808412 -77.943792 
L 143.087751 -78.42939 
L 146.36709 -78.972299 
L 149.646429 -79.573049 
L 152.925768 -80.231538 
L 156.205106 -80.947234 
L 159.484445 -81.719329 
L 162.763784 -82.546855 
L 166.043123 -83.428762 
L 169.322462 -84.363982 
L 172.601801 -85.35147 
L 175.881139 -86.39023 
L 179.160478 -87.479341 
L 182.439817 -88.617964 
L 185.719156 -89.805349 
L 188.998495 -91.040844 
L 192.277834 -92.323891 
L 195.557173 -93.65403 
L 198.836511 -95.030893 
L 202.11585 -96.454207 
L 205.395189 -97.923786 
L 208.674528 -99.439532 
L 211.953867 -101.001431 
L 215.233206 -102.609549 
L 218.512544 -104.264031 
L 221.791883 -105.965094 
L 225.071222 -107.71303 
L 228.350561 -109.508199 
L 231.6299 -111.351027 
L 234.909239 -113.242006 
L 238.188577 -115.18169 
L 241.467916 -117.170694 
L 244.747255 -119.209694 
L 248.026594 -121.299423 
L 251.305933 -123.440676 
L 254.585272 -125.634311 
L 257.864611 -127.881246 
L 261.143949 -130.182472 
L 264.423288 -132.539053 
L 267.702627 -134.952133 
L 270.981966 -137.422952 
L 274.261305 -139.952854 
L 277.540644 -142.543304 
L 280.819982 -145.195902 
L 284.099321 -147.912408 
L 287.37866 -150.694757 
L 290.657999 -153.545085 
L 293.937338 -156.465751 
L 297.216677 -159.459357 
L 300.496015 -162.528774 
L 303.775354 -165.67715 
L 307.054693 -168.907932 
L 310.334032 -172.22486 
L 313.613371 -175.631965 
L 316.89271 -179.13354 
L 320.172049 -182.734092 
L 323.451387 -186.438252 
L 326.730726 -190.250634 
L 330.010065 -194.17562 
L 333.289404 -198.217014 
L 336.568743 -202.377529 
L 339.848082 -206.657997 
L 343.12742 -211.056159 
L 346.406759 -215.564849 
L 349.686098 -220.169274 
L 352.965437 -224.843106 
L 356.244776 -229.543292 
L 359.524115 -234.204296 
L 362.803454 -238.734292 
L 366.082792 -243.018196 
L 369.362131 -246.931657 
L 372.64147 -250.362194 
L 375.920809 -253.224083 
L 379.200148 -255.457365 
L 379.200148 -257.662662 
L 379.200148 -257.662662 
L 375.920809 -255.87824 
L 372.64147 -253.521062 
L 369.362131 -250.605417 
L 366.082792 -247.13835 
L 362.803454 -243.151298 
L 359.524115 -238.739839 
L 356.244776 -234.059074 
L 352.965437 -229.267314 
L 349.686098 -224.48196 
L 346.406759 -219.774536 
L 343.12742 -215.183562 
L 339.848082 -210.727439 
L 336.568743 -206.413066 
L 333.289404 -202.240909 
L 330.010065 -198.207894 
L 326.730726 -194.309055 
L 323.451387 -190.538469 
L 320.172049 -186.88981 
L 316.89271 -183.35665 
L 313.613371 -179.932644 
L 310.334032 -176.611619 
L 307.054693 -173.387621 
L 303.775354 -170.254929 
L 300.496015 -167.208058 
L 297.216677 -164.24175 
L 293.937338 -161.350971 
L 290.657999 -158.530911 
L 287.37866 -155.777001 
L 284.099321 -153.084935 
L 280.819982 -150.450722 
L 277.540644 -147.870738 
L 274.261305 -145.3418 
L 270.981966 -142.861224 
L 267.702627 -140.426882 
L 264.423288 -138.03722 
L 261.143949 -135.691246 
L 257.864611 -133.388477 
L 254.585272 -131.128856 
L 251.305933 -128.912649 
L 248.026594 -126.74034 
L 244.747255 -124.612528 
L 241.467916 -122.529856 
L 238.188577 -120.492945 
L 234.909239 -118.502363 
L 231.6299 -116.558603 
L 228.350561 -114.662082 
L 225.071222 -112.813145 
L 221.791883 -111.012078 
L 218.512544 -109.259123 
L 215.233206 -107.554498 
L 211.953867 -105.898411 
L 208.674528 -104.291079 
L 205.395189 -102.732743 
L 202.11585 -101.223684 
L 198.836511 -99.764235 
L 195.557173 -98.354795 
L 192.277834 -96.995834 
L 188.998495 -95.687909 
L 185.719156 -94.431669 
L 182.439817 -93.227857 
L 179.160478 -92.077318 
L 175.881139 -90.980995 
L 172.601801 -89.939924 
L 169.322462 -88.95522 
L 166.043123 -88.028053 
L 162.763784 -87.159613 
L 159.484445 -86.351043 
L 156.205106 -85.603352 
L 152.925768 -84.917279 
L 149.646429 -84.293093 
L 146.36709 -83.730314 
L 143.087751 -83.227324 
L 139.808412 -82.78084 
L 136.529073 -82.385267 
L 133.249735 -82.03196 
L 129.970396 -81.708583 
L 126.691057 -81.398861 
L 123.411718 -81.083186 
L 120.132379 -80.740356 
L 116.85304 -80.350191 
L 113.573701 -79.896009 
L 110.294363 -79.365818 
L 107.015024 -78.751785 
L 103.735685 -78.048577 
L 100.456346 -77.251501 
L 97.177007 -76.355039 
L 93.897668 -75.351934 
L 90.61833 -74.232705 
L 87.338991 -72.985432 
L 84.059652 -71.595664 
L 80.780313 -70.046383 
L 77.500974 -68.317972 
L 74.221635 -66.388169 
L 70.942296 -64.231999 
L 67.662958 -61.821689 
L 64.383619 -59.126556 
L 61.10428 -56.112885 
L 57.824941 -52.743783 
L 54.545602 -48.97902 
z
" style="stroke: #008000; stroke-opacity: 0.25; stroke-width: 0.8"/>
    </defs>
    <g clip-path="url(#p50c71dfd38)">
     <use xlink:href="#m42ac7c6edc" x="0" y="309.639375" style="fill: #008000; fill-opacity: 0.25; stroke: #008000; stroke-opacity: 0.25; stroke-width: 0.8"/>
    </g>
   </g>
   <g id="PolyCollection_3">
    <defs>
     <path id="m0ff436f9ad" d="M 54.545602 -178.68536 
L 54.545602 -178.129715 
L 57.824941 -167.34545 
L 61.10428 -157.620859 
L 64.383619 -148.868379 
L 67.662958 -141.00704 
L 70.942296 -133.962119 
L 74.221635 -127.664829 
L 77.500974 -122.052018 
L 80.780313 -117.065906 
L 84.059652 -112.653838 
L 87.338991 -108.768078 
L 90.61833 -105.365618 
L 93.897668 -102.408013 
L 97.177007 -99.861217 
L 100.456346 -97.695374 
L 103.735685 -95.884484 
L 107.015024 -94.405813 
L 110.294363 -93.238872 
L 113.573701 -92.363858 
L 116.85304 -91.759697 
L 120.132379 -91.402302 
L 123.411718 -91.26396 
L 126.691057 -91.314446 
L 129.970396 -91.523425 
L 133.249735 -91.863003 
L 136.529073 -92.309405 
L 139.808412 -92.843515 
L 143.087751 -93.45058 
L 146.36709 -94.119515 
L 149.646429 -94.84212 
L 152.925768 -95.612387 
L 156.205106 -96.425937 
L 159.484445 -97.279591 
L 162.763784 -98.171061 
L 166.043123 -99.098716 
L 169.322462 -100.061423 
L 172.601801 -101.058431 
L 175.881139 -102.089285 
L 179.160478 -103.153772 
L 182.439817 -104.251876 
L 185.719156 -105.383751 
L 188.998495 -106.549701 
L 192.277834 -107.750167 
L 195.557173 -108.985721 
L 198.836511 -110.257064 
L 202.11585 -111.565019 
L 205.395189 -112.910544 
L 208.674528 -114.294727 
L 211.953867 -115.718802 
L 215.233206 -117.184153 
L 218.512544 -118.692326 
L 221.791883 -120.245043 
L 225.071222 -121.844216 
L 228.350561 -123.49196 
L 231.6299 -125.190608 
L 234.909239 -126.942726 
L 238.188577 -128.751115 
L 241.467916 -130.618819 
L 244.747255 -132.549112 
L 248.026594 -134.545475 
L 251.305933 -136.611551 
L 254.585272 -138.751078 
L 257.864611 -140.967801 
L 261.143949 -143.265362 
L 264.423288 -145.647179 
L 267.702627 -148.116329 
L 270.981966 -150.675447 
L 274.261305 -153.326653 
L 277.540644 -156.071518 
L 280.819982 -158.911059 
L 284.099321 -161.845766 
L 287.37866 -164.875634 
L 290.657999 -168.000196 
L 293.937338 -171.218551 
L 297.216677 -174.529362 
L 300.496015 -177.930847 
L 303.775354 -181.420741 
L 307.054693 -184.996253 
L 310.334032 -188.653998 
L 313.613371 -192.389939 
L 316.89271 -196.199323 
L 320.172049 -200.076627 
L 323.451387 -204.015532 
L 326.730726 -208.008942 
L 330.010065 -212.049074 
L 333.289404 -216.127688 
L 336.568743 -220.236536 
L 339.848082 -224.368205 
L 343.12742 -228.517665 
L 346.406759 -232.685044 
L 349.686098 -236.880595 
L 352.965437 -241.133176 
L 356.244776 -245.503028 
L 359.524115 -250.094494 
L 362.803454 -255.050929 
L 366.082792 -260.510425 
L 369.362131 -266.549345 
L 372.64147 -273.177549 
L 375.920809 -280.377969 
L 379.200148 -288.138078 
L 379.200148 -290.343375 
L 379.200148 -290.343375 
L 375.920809 -283.032126 
L 372.64147 -276.336416 
L 369.362131 -270.223105 
L 366.082792 -264.630579 
L 362.803454 -259.467935 
L 359.524115 -254.630037 
L 356.244776 -250.018809 
L 352.965437 -245.557385 
L 349.686098 -241.19328 
L 346.406759 -236.894732 
L 343.12742 -232.645068 
L 339.848082 -228.437648 
L 336.568743 -224.272072 
L 333.289404 -220.151583 
L 330.010065 -216.081349 
L 326.730726 -212.067362 
L 323.451387 -208.11575 
L 320.172049 -204.232345 
L 316.89271 -200.422433 
L 313.613371 -196.690618 
L 310.334032 -193.040757 
L 307.054693 -189.475942 
L 303.775354 -185.99852 
L 300.496015 -182.610131 
L 297.216677 -179.311754 
L 293.937338 -176.103771 
L 290.657999 -172.986023 
L 287.37866 -169.957878 
L 284.099321 -167.018293 
L 280.819982 -164.165879 
L 277.540644 -161.398952 
L 274.261305 -158.715598 
L 270.981966 -156.113719 
L 267.702627 -153.591078 
L 264.423288 -151.145346 
L 261.143949 -148.774135 
L 257.864611 -146.475032 
L 254.585272 -144.245623 
L 251.305933 -142.083524 
L 248.026594 -139.986392 
L 244.747255 -137.951947 
L 241.467916 -135.977981 
L 238.188577 -134.06237 
L 234.909239 -132.203083 
L 231.6299 -130.398185 
L 228.350561 -128.645843 
L 225.071222 -126.944331 
L 221.791883 -125.292027 
L 218.512544 -123.687419 
L 215.233206 -122.129102 
L 211.953867 -120.615782 
L 208.674528 -119.146274 
L 205.395189 -117.719501 
L 202.11585 -116.334496 
L 198.836511 -114.990406 
L 195.557173 -113.686486 
L 192.277834 -112.422109 
L 188.998495 -111.196766 
L 185.719156 -110.010071 
L 182.439817 -108.86177 
L 179.160478 -107.751749 
L 175.881139 -106.68005 
L 172.601801 -105.646885 
L 169.322462 -104.65266 
L 166.043123 -103.698007 
L 162.763784 -102.783819 
L 159.484445 -101.911305 
L 156.205106 -101.082055 
L 152.925768 -100.298128 
L 149.646429 -99.562163 
L 146.36709 -98.877529 
L 143.087751 -98.248514 
L 139.808412 -97.680563 
L 136.529073 -97.180586 
L 133.249735 -96.757325 
L 129.970396 -96.421791 
L 126.691057 -96.187746 
L 123.411718 -96.072195 
L 120.132379 -96.095796 
L 116.85304 -96.283086 
L 113.573701 -96.662383 
L 110.294363 -97.265287 
L 107.015024 -98.125782 
L 103.735685 -99.279149 
L 100.456346 -100.760975 
L 97.177007 -102.606603 
L 93.897668 -104.851151 
L 90.61833 -107.530073 
L 87.338991 -110.680041 
L 84.059652 -114.339928 
L 80.780313 -118.551735 
L 77.500974 -123.361361 
L 74.221635 -128.819233 
L 70.942296 -134.980803 
L 67.662958 -141.906964 
L 64.383619 -149.664408 
L 61.10428 -158.325961 
L 57.824941 -167.970916 
L 54.545602 -178.68536 
z
" style="stroke: #008000; stroke-opacity: 0.25; stroke-width: 0.8"/>
    </defs>
    <g clip-path="url(#p50c71dfd38)">
     <use xlink:href="#m0ff436f9ad" x="0" y="309.639375" style="fill: #008000; fill-opacity: 0.25; stroke: #008000; stroke-opacity: 0.25; stroke-width: 0.8"/>
    </g>
   </g>
   <g id="line2d_17">
    <path d="M 54.545602 196.085008 
L 57.824941 199.594759 
L 61.10428 202.772503 
L 64.383619 205.641907 
L 67.662958 208.225011 
L 70.942296 210.542316 
L 74.221635 212.612876 
L 77.500974 214.45438 
L 80.780313 216.083231 
L 84.059652 217.514624 
L 87.338991 218.76262 
L 90.61833 219.840213 
L 93.897668 220.759402 
L 97.177007 221.531247 
L 100.456346 222.165938 
L 103.735685 222.672845 
L 107.015024 223.060576 
L 110.294363 223.33703 
L 113.573701 223.509441 
L 116.85304 223.584431 
L 120.132379 223.568046 
L 123.411718 223.465802 
L 126.691057 223.282722 
L 129.970396 223.023371 
L 133.249735 222.691893 
L 136.529073 222.292039 
L 139.808412 221.827198 
L 143.087751 221.300423 
L 146.36709 220.714461 
L 149.646429 220.071769 
L 152.925768 219.374542 
L 156.205106 218.624731 
L 159.484445 217.824058 
L 162.763784 216.974038 
L 166.043123 216.07599 
L 169.322462 215.131054 
L 172.601801 214.140198 
L 175.881139 213.104235 
L 179.160478 212.02383 
L 182.439817 210.899508 
L 185.719156 209.731665 
L 188.998495 208.52057 
L 192.277834 207.266375 
L 195.557173 205.969117 
L 198.836511 204.628725 
L 202.11585 203.245023 
L 205.395189 201.817732 
L 208.674528 200.346472 
L 211.953867 198.830768 
L 215.233206 197.270049 
L 218.512544 195.66365 
L 221.791883 194.010815 
L 225.071222 192.310695 
L 228.350561 190.562354 
L 231.6299 188.764769 
L 234.909239 186.916831 
L 238.188577 185.017345 
L 241.467916 183.065038 
L 244.747255 181.058555 
L 248.026594 178.996468 
L 251.305933 176.877275 
L 254.585272 174.699408 
L 257.864611 172.461236 
L 261.143949 170.161071 
L 264.423288 167.797176 
L 267.702627 165.36777 
L 270.981966 162.87104 
L 274.261305 160.305149 
L 277.540644 157.668247 
L 280.819982 154.958485 
L 284.099321 152.174024 
L 287.37866 149.313058 
L 290.657999 146.373821 
L 293.937338 143.354614 
L 297.216677 140.253819 
L 300.496015 137.069923 
L 303.775354 133.80154 
L 307.054693 130.447438 
L 310.334032 127.006567 
L 313.613371 123.478083 
L 316.89271 119.861388 
L 320.172049 116.156157 
L 323.451387 112.362374 
L 326.730726 108.480377 
L 330.010065 104.510891 
L 333.289404 100.455077 
L 336.568743 96.314574 
L 339.848082 92.091553 
L 343.12742 87.788762 
L 346.406759 83.409585 
L 349.686098 78.958098 
L 352.965437 74.43913 
L 356.244776 69.858324 
L 359.524115 65.222209 
L 362.803454 60.538261 
L 366.082792 55.814988 
L 369.362131 51.061994 
L 372.64147 46.29007 
L 375.920809 41.51127 
L 379.200148 36.739005 
" clip-path="url(#p50c71dfd38)" style="fill: none; stroke: #ff0000; stroke-width: 1.2; stroke-linecap: round"/>
   </g>
   <g id="line2d_18">
    <defs>
     <path id="m7a914a6417" d="M -2.4 2.4 
L 2.4 -2.4 
M -2.4 -2.4 
L 2.4 2.4 
" style="stroke: #000000"/>
    </defs>
    <g clip-path="url(#p50c71dfd38)">
     <use xlink:href="#m7a914a6417" x="356.349692" y="62.336277" style="stroke: #000000"/>
     <use xlink:href="#m7a914a6417" x="157.258364" y="227.461057" style="stroke: #000000"/>
     <use xlink:href="#m7a914a6417" x="114.25568" y="220.804935" style="stroke: #000000"/>
     <use xlink:href="#m7a914a6417" x="120.957027" y="221.782219" style="stroke: #000000"/>
     <use xlink:href="#m7a914a6417" x="238.860114" y="183.432179" style="stroke: #000000"/>
     <use xlink:href="#m7a914a6417" x="247.891897" y="179.146417" style="stroke: #000000"/>
     <use xlink:href="#m7a914a6417" x="367.679625" y="58.586444" style="stroke: #000000"/>
     <use xlink:href="#m7a914a6417" x="266.602516" y="169.834437" style="stroke: #000000"/>
     <use xlink:href="#m7a914a6417" x="297.681546" y="131.846918" style="stroke: #000000"/>
     <use xlink:href="#m7a914a6417" x="266.730032" y="170.010073" style="stroke: #000000"/>
    </g>
   </g>
   <g id="patch_3">
    <path d="M 38.312875 265.902265 
L 38.312875 11.218918 
" style="fill: none; stroke: #262626; stroke-linejoin: miter; stroke-linecap: square"/>
   </g>
   <g id="patch_4">
    <path d="M 54.545602 273.312 
L 379.200148 273.312 
" style="fill: none; stroke: #262626; stroke-linejoin: miter; stroke-linecap: square"/>
   </g>
   <g id="legend_1">
    <g id="line2d_19">
     <path d="M 46.232875 18.338875 
L 55.032875 18.338875 
L 63.832875 18.338875 
" style="fill: none; stroke: #ff0000; stroke-width: 1.2; stroke-linecap: round"/>
    </g>
    <g id="text_19">
     <!-- Posterior mean -->
     <g style="fill: #262626" transform="translate(70.872875 21.418875) scale(0.088 -0.088)">
      <defs>
       <path id="ArialMT-50" d="M 494 0 
L 494 4581 
L 2222 4581 
Q 2678 4581 2919 4538 
Q 3256 4481 3484 4323 
Q 3713 4166 3852 3881 
Q 3991 3597 3991 3256 
Q 3991 2672 3619 2267 
Q 3247 1863 2275 1863 
L 1100 1863 
L 1100 0 
L 494 0 
z
M 1100 2403 
L 2284 2403 
Q 2872 2403 3119 2622 
Q 3366 2841 3366 3238 
Q 3366 3525 3220 3729 
Q 3075 3934 2838 4000 
Q 2684 4041 2272 4041 
L 1100 4041 
L 1100 2403 
z
" transform="scale(0.015625)"/>
       <path id="ArialMT-6f" d="M 213 1659 
Q 213 2581 725 3025 
Q 1153 3394 1769 3394 
Q 2453 3394 2887 2945 
Q 3322 2497 3322 1706 
Q 3322 1066 3130 698 
Q 2938 331 2570 128 
Q 2203 -75 1769 -75 
Q 1072 -75 642 372 
Q 213 819 213 1659 
z
M 791 1659 
Q 791 1022 1069 705 
Q 1347 388 1769 388 
Q 2188 388 2466 706 
Q 2744 1025 2744 1678 
Q 2744 2294 2464 2611 
Q 2184 2928 1769 2928 
Q 1347 2928 1069 2612 
Q 791 2297 791 1659 
z
" transform="scale(0.015625)"/>
       <path id="ArialMT-73" d="M 197 991 
L 753 1078 
Q 800 744 1014 566 
Q 1228 388 1613 388 
Q 2000 388 2187 545 
Q 2375 703 2375 916 
Q 2375 1106 2209 1216 
Q 2094 1291 1634 1406 
Q 1016 1563 777 1677 
Q 538 1791 414 1992 
Q 291 2194 291 2438 
Q 291 2659 392 2848 
Q 494 3038 669 3163 
Q 800 3259 1026 3326 
Q 1253 3394 1513 3394 
Q 1903 3394 2198 3281 
Q 2494 3169 2634 2976 
Q 2775 2784 2828 2463 
L 2278 2388 
Q 2241 2644 2061 2787 
Q 1881 2931 1553 2931 
Q 1166 2931 1000 2803 
Q 834 2675 834 2503 
Q 834 2394 903 2306 
Q 972 2216 1119 2156 
Q 1203 2125 1616 2013 
Q 2213 1853 2448 1751 
Q 2684 1650 2818 1456 
Q 2953 1263 2953 975 
Q 2953 694 2789 445 
Q 2625 197 2315 61 
Q 2006 -75 1616 -75 
Q 969 -75 630 194 
Q 291 463 197 991 
z
" transform="scale(0.015625)"/>
       <path id="ArialMT-74" d="M 1650 503 
L 1731 6 
Q 1494 -44 1306 -44 
Q 1000 -44 831 53 
Q 663 150 594 308 
Q 525 466 525 972 
L 525 2881 
L 113 2881 
L 113 3319 
L 525 3319 
L 525 4141 
L 1084 4478 
L 1084 3319 
L 1650 3319 
L 1650 2881 
L 1084 2881 
L 1084 941 
Q 1084 700 1114 631 
Q 1144 563 1211 522 
Q 1278 481 1403 481 
Q 1497 481 1650 503 
z
" transform="scale(0.015625)"/>
       <path id="ArialMT-65" d="M 2694 1069 
L 3275 997 
Q 3138 488 2766 206 
Q 2394 -75 1816 -75 
Q 1088 -75 661 373 
Q 234 822 234 1631 
Q 234 2469 665 2931 
Q 1097 3394 1784 3394 
Q 2450 3394 2872 2941 
Q 3294 2488 3294 1666 
Q 3294 1616 3291 1516 
L 816 1516 
Q 847 969 1125 678 
Q 1403 388 1819 388 
Q 2128 388 2347 550 
Q 2566 713 2694 1069 
z
M 847 1978 
L 2700 1978 
Q 2663 2397 2488 2606 
Q 2219 2931 1791 2931 
Q 1403 2931 1139 2672 
Q 875 2413 847 1978 
z
" transform="scale(0.015625)"/>
       <path id="ArialMT-72" d="M 416 0 
L 416 3319 
L 922 3319 
L 922 2816 
Q 1116 3169 1280 3281 
Q 1444 3394 1641 3394 
Q 1925 3394 2219 3213 
L 2025 2691 
Q 1819 2813 1613 2813 
Q 1428 2813 1281 2702 
Q 1134 2591 1072 2394 
Q 978 2094 978 1738 
L 978 0 
L 416 0 
z
" transform="scale(0.015625)"/>
       <path id="ArialMT-69" d="M 425 3934 
L 425 4581 
L 988 4581 
L 988 3934 
L 425 3934 
z
M 425 0 
L 425 3319 
L 988 3319 
L 988 0 
L 425 0 
z
" transform="scale(0.015625)"/>
       <path id="ArialMT-20" transform="scale(0.015625)"/>
       <path id="ArialMT-6d" d="M 422 0 
L 422 3319 
L 925 3319 
L 925 2853 
Q 1081 3097 1340 3245 
Q 1600 3394 1931 3394 
Q 2300 3394 2536 3241 
Q 2772 3088 2869 2813 
Q 3263 3394 3894 3394 
Q 4388 3394 4653 3120 
Q 4919 2847 4919 2278 
L 4919 0 
L 4359 0 
L 4359 2091 
Q 4359 2428 4304 2576 
Q 4250 2725 4106 2815 
Q 3963 2906 3769 2906 
Q 3419 2906 3187 2673 
Q 2956 2441 2956 1928 
L 2956 0 
L 2394 0 
L 2394 2156 
Q 2394 2531 2256 2718 
Q 2119 2906 1806 2906 
Q 1569 2906 1367 2781 
Q 1166 2656 1075 2415 
Q 984 2175 984 1722 
L 984 0 
L 422 0 
z
" transform="scale(0.015625)"/>
       <path id="ArialMT-61" d="M 2588 409 
Q 2275 144 1986 34 
Q 1697 -75 1366 -75 
Q 819 -75 525 192 
Q 231 459 231 875 
Q 231 1119 342 1320 
Q 453 1522 633 1644 
Q 813 1766 1038 1828 
Q 1203 1872 1538 1913 
Q 2219 1994 2541 2106 
Q 2544 2222 2544 2253 
Q 2544 2597 2384 2738 
Q 2169 2928 1744 2928 
Q 1347 2928 1158 2789 
Q 969 2650 878 2297 
L 328 2372 
Q 403 2725 575 2942 
Q 747 3159 1072 3276 
Q 1397 3394 1825 3394 
Q 2250 3394 2515 3294 
Q 2781 3194 2906 3042 
Q 3031 2891 3081 2659 
Q 3109 2516 3109 2141 
L 3109 1391 
Q 3109 606 3145 398 
Q 3181 191 3288 0 
L 2700 0 
Q 2613 175 2588 409 
z
M 2541 1666 
Q 2234 1541 1622 1453 
Q 1275 1403 1131 1340 
Q 988 1278 909 1158 
Q 831 1038 831 891 
Q 831 666 1001 516 
Q 1172 366 1500 366 
Q 1825 366 2078 508 
Q 2331 650 2450 897 
Q 2541 1088 2541 1459 
L 2541 1666 
z
" transform="scale(0.015625)"/>
       <path id="ArialMT-6e" d="M 422 0 
L 422 3319 
L 928 3319 
L 928 2847 
Q 1294 3394 1984 3394 
Q 2284 3394 2536 3286 
Q 2788 3178 2913 3003 
Q 3038 2828 3088 2588 
Q 3119 2431 3119 2041 
L 3119 0 
L 2556 0 
L 2556 2019 
Q 2556 2363 2490 2533 
Q 2425 2703 2258 2804 
Q 2091 2906 1866 2906 
Q 1506 2906 1245 2678 
Q 984 2450 984 1813 
L 984 0 
L 422 0 
z
" transform="scale(0.015625)"/>
      </defs>
      <use xlink:href="#ArialMT-50"/>
      <use xlink:href="#ArialMT-6f" x="66.699219"/>
      <use xlink:href="#ArialMT-73" x="122.314453"/>
      <use xlink:href="#ArialMT-74" x="172.314453"/>
      <use xlink:href="#ArialMT-65" x="200.097656"/>
      <use xlink:href="#ArialMT-72" x="255.712891"/>
      <use xlink:href="#ArialMT-69" x="289.013672"/>
      <use xlink:href="#ArialMT-6f" x="311.230469"/>
      <use xlink:href="#ArialMT-72" x="366.845703"/>
      <use xlink:href="#ArialMT-20" x="400.146484"/>
      <use xlink:href="#ArialMT-6d" x="427.929688"/>
      <use xlink:href="#ArialMT-65" x="511.230469"/>
      <use xlink:href="#ArialMT-61" x="566.845703"/>
      <use xlink:href="#ArialMT-6e" x="622.460938"/>
     </g>
    </g>
    <g id="patch_5">
     <path d="M 46.232875 33.974 
L 63.832875 33.974 
L 63.832875 27.814 
L 46.232875 27.814 
z
" style="fill: #ff0000; fill-opacity: 0.25; stroke: #ff0000; stroke-opacity: 0.25; stroke-width: 0.8; stroke-linejoin: miter"/>
    </g>
    <g id="text_20">
     <!-- 95% epistemic credible interval -->
     <g style="fill: #262626" transform="translate(70.872875 33.974) scale(0.088 -0.088)">
      <defs>
       <path id="ArialMT-39" d="M 350 1059 
L 891 1109 
Q 959 728 1153 556 
Q 1347 384 1650 384 
Q 1909 384 2104 503 
Q 2300 622 2425 820 
Q 2550 1019 2634 1356 
Q 2719 1694 2719 2044 
Q 2719 2081 2716 2156 
Q 2547 1888 2255 1720 
Q 1963 1553 1622 1553 
Q 1053 1553 659 1965 
Q 266 2378 266 3053 
Q 266 3750 677 4175 
Q 1088 4600 1706 4600 
Q 2153 4600 2523 4359 
Q 2894 4119 3086 3673 
Q 3278 3228 3278 2384 
Q 3278 1506 3087 986 
Q 2897 466 2520 194 
Q 2144 -78 1638 -78 
Q 1100 -78 759 220 
Q 419 519 350 1059 
z
M 2653 3081 
Q 2653 3566 2395 3850 
Q 2138 4134 1775 4134 
Q 1400 4134 1122 3828 
Q 844 3522 844 3034 
Q 844 2597 1108 2323 
Q 1372 2050 1759 2050 
Q 2150 2050 2401 2323 
Q 2653 2597 2653 3081 
z
" transform="scale(0.015625)"/>
       <path id="ArialMT-25" d="M 372 3481 
Q 372 3972 619 4315 
Q 866 4659 1334 4659 
Q 1766 4659 2048 4351 
Q 2331 4044 2331 3447 
Q 2331 2866 2045 2552 
Q 1759 2238 1341 2238 
Q 925 2238 648 2547 
Q 372 2856 372 3481 
z
M 1350 4272 
Q 1141 4272 1002 4090 
Q 863 3909 863 3425 
Q 863 2984 1003 2804 
Q 1144 2625 1350 2625 
Q 1563 2625 1702 2806 
Q 1841 2988 1841 3469 
Q 1841 3913 1700 4092 
Q 1559 4272 1350 4272 
z
M 1353 -169 
L 3859 4659 
L 4316 4659 
L 1819 -169 
L 1353 -169 
z
M 3334 1075 
Q 3334 1569 3581 1911 
Q 3828 2253 4300 2253 
Q 4731 2253 5014 1945 
Q 5297 1638 5297 1041 
Q 5297 459 5011 145 
Q 4725 -169 4303 -169 
Q 3888 -169 3611 142 
Q 3334 453 3334 1075 
z
M 4316 1866 
Q 4103 1866 3964 1684 
Q 3825 1503 3825 1019 
Q 3825 581 3965 400 
Q 4106 219 4313 219 
Q 4528 219 4667 400 
Q 4806 581 4806 1063 
Q 4806 1506 4665 1686 
Q 4525 1866 4316 1866 
z
" transform="scale(0.015625)"/>
       <path id="ArialMT-70" d="M 422 -1272 
L 422 3319 
L 934 3319 
L 934 2888 
Q 1116 3141 1344 3267 
Q 1572 3394 1897 3394 
Q 2322 3394 2647 3175 
Q 2972 2956 3137 2557 
Q 3303 2159 3303 1684 
Q 3303 1175 3120 767 
Q 2938 359 2589 142 
Q 2241 -75 1856 -75 
Q 1575 -75 1351 44 
Q 1128 163 984 344 
L 984 -1272 
L 422 -1272 
z
M 931 1641 
Q 931 1000 1190 694 
Q 1450 388 1819 388 
Q 2194 388 2461 705 
Q 2728 1022 2728 1688 
Q 2728 2322 2467 2637 
Q 2206 2953 1844 2953 
Q 1484 2953 1207 2617 
Q 931 2281 931 1641 
z
" transform="scale(0.015625)"/>
       <path id="ArialMT-63" d="M 2588 1216 
L 3141 1144 
Q 3050 572 2676 248 
Q 2303 -75 1759 -75 
Q 1078 -75 664 370 
Q 250 816 250 1647 
Q 250 2184 428 2587 
Q 606 2991 970 3192 
Q 1334 3394 1763 3394 
Q 2303 3394 2647 3120 
Q 2991 2847 3088 2344 
L 2541 2259 
Q 2463 2594 2264 2762 
Q 2066 2931 1784 2931 
Q 1359 2931 1093 2626 
Q 828 2322 828 1663 
Q 828 994 1084 691 
Q 1341 388 1753 388 
Q 2084 388 2306 591 
Q 2528 794 2588 1216 
z
" transform="scale(0.015625)"/>
       <path id="ArialMT-64" d="M 2575 0 
L 2575 419 
Q 2259 -75 1647 -75 
Q 1250 -75 917 144 
Q 584 363 401 755 
Q 219 1147 219 1656 
Q 219 2153 384 2558 
Q 550 2963 881 3178 
Q 1213 3394 1622 3394 
Q 1922 3394 2156 3267 
Q 2391 3141 2538 2938 
L 2538 4581 
L 3097 4581 
L 3097 0 
L 2575 0 
z
M 797 1656 
Q 797 1019 1065 703 
Q 1334 388 1700 388 
Q 2069 388 2326 689 
Q 2584 991 2584 1609 
Q 2584 2291 2321 2609 
Q 2059 2928 1675 2928 
Q 1300 2928 1048 2622 
Q 797 2316 797 1656 
z
" transform="scale(0.015625)"/>
       <path id="ArialMT-62" d="M 941 0 
L 419 0 
L 419 4581 
L 981 4581 
L 981 2947 
Q 1338 3394 1891 3394 
Q 2197 3394 2470 3270 
Q 2744 3147 2920 2923 
Q 3097 2700 3197 2384 
Q 3297 2069 3297 1709 
Q 3297 856 2875 390 
Q 2453 -75 1863 -75 
Q 1275 -75 941 416 
L 941 0 
z
M 934 1684 
Q 934 1088 1097 822 
Q 1363 388 1816 388 
Q 2184 388 2453 708 
Q 2722 1028 2722 1663 
Q 2722 2313 2464 2622 
Q 2206 2931 1841 2931 
Q 1472 2931 1203 2611 
Q 934 2291 934 1684 
z
" transform="scale(0.015625)"/>
       <path id="ArialMT-6c" d="M 409 0 
L 409 4581 
L 972 4581 
L 972 0 
L 409 0 
z
" transform="scale(0.015625)"/>
       <path id="ArialMT-76" d="M 1344 0 
L 81 3319 
L 675 3319 
L 1388 1331 
Q 1503 1009 1600 663 
Q 1675 925 1809 1294 
L 2547 3319 
L 3125 3319 
L 1869 0 
L 1344 0 
z
" transform="scale(0.015625)"/>
      </defs>
      <use xlink:href="#ArialMT-39"/>
      <use xlink:href="#ArialMT-35" x="55.615234"/>
      <use xlink:href="#ArialMT-25" x="111.230469"/>
      <use xlink:href="#ArialMT-20" x="200.146484"/>
      <use xlink:href="#ArialMT-65" x="227.929688"/>
      <use xlink:href="#ArialMT-70" x="283.544922"/>
      <use xlink:href="#ArialMT-69" x="339.160156"/>
      <use xlink:href="#ArialMT-73" x="361.376953"/>
      <use xlink:href="#ArialMT-74" x="411.376953"/>
      <use xlink:href="#ArialMT-65" x="439.160156"/>
      <use xlink:href="#ArialMT-6d" x="494.775391"/>
      <use xlink:href="#ArialMT-69" x="578.076172"/>
      <use xlink:href="#ArialMT-63" x="600.292969"/>
      <use xlink:href="#ArialMT-20" x="650.292969"/>
      <use xlink:href="#ArialMT-63" x="678.076172"/>
      <use xlink:href="#ArialMT-72" x="728.076172"/>
      <use xlink:href="#ArialMT-65" x="761.376953"/>
      <use xlink:href="#ArialMT-64" x="816.992188"/>
      <use xlink:href="#ArialMT-69" x="872.607422"/>
      <use xlink:href="#ArialMT-62" x="894.824219"/>
      <use xlink:href="#ArialMT-6c" x="950.439453"/>
      <use xlink:href="#ArialMT-65" x="972.65625"/>
      <use xlink:href="#ArialMT-20" x="1028.271484"/>
      <use xlink:href="#ArialMT-69" x="1056.054688"/>
      <use xlink:href="#ArialMT-6e" x="1078.271484"/>
      <use xlink:href="#ArialMT-74" x="1133.886719"/>
      <use xlink:href="#ArialMT-65" x="1161.669922"/>
      <use xlink:href="#ArialMT-72" x="1217.285156"/>
      <use xlink:href="#ArialMT-76" x="1250.585938"/>
      <use xlink:href="#ArialMT-61" x="1300.585938"/>
      <use xlink:href="#ArialMT-6c" x="1356.201172"/>
     </g>
    </g>
    <g id="patch_6">
     <path d="M 46.232875 46.529125 
L 63.832875 46.529125 
L 63.832875 40.369125 
L 46.232875 40.369125 
z
" style="fill: #008000; fill-opacity: 0.25; stroke: #008000; stroke-opacity: 0.25; stroke-width: 0.8; stroke-linejoin: miter"/>
    </g>
    <g id="text_21">
     <!-- 95% epistemic + aleatory credible interval -->
     <g style="fill: #262626" transform="translate(70.872875 46.529125) scale(0.088 -0.088)">
      <defs>
       <path id="ArialMT-2b" d="M 1603 741 
L 1603 1997 
L 356 1997 
L 356 2522 
L 1603 2522 
L 1603 3769 
L 2134 3769 
L 2134 2522 
L 3381 2522 
L 3381 1997 
L 2134 1997 
L 2134 741 
L 1603 741 
z
" transform="scale(0.015625)"/>
       <path id="ArialMT-79" d="M 397 -1278 
L 334 -750 
Q 519 -800 656 -800 
Q 844 -800 956 -737 
Q 1069 -675 1141 -563 
Q 1194 -478 1313 -144 
Q 1328 -97 1363 -6 
L 103 3319 
L 709 3319 
L 1400 1397 
Q 1534 1031 1641 628 
Q 1738 1016 1872 1384 
L 2581 3319 
L 3144 3319 
L 1881 -56 
Q 1678 -603 1566 -809 
Q 1416 -1088 1222 -1217 
Q 1028 -1347 759 -1347 
Q 597 -1347 397 -1278 
z
" transform="scale(0.015625)"/>
      </defs>
      <use xlink:href="#ArialMT-39"/>
      <use xlink:href="#ArialMT-35" x="55.615234"/>
      <use xlink:href="#ArialMT-25" x="111.230469"/>
      <use xlink:href="#ArialMT-20" x="200.146484"/>
      <use xlink:href="#ArialMT-65" x="227.929688"/>
      <use xlink:href="#ArialMT-70" x="283.544922"/>
      <use xlink:href="#ArialMT-69" x="339.160156"/>
      <use xlink:href="#ArialMT-73" x="361.376953"/>
      <use xlink:href="#ArialMT-74" x="411.376953"/>
      <use xlink:href="#ArialMT-65" x="439.160156"/>
      <use xlink:href="#ArialMT-6d" x="494.775391"/>
      <use xlink:href="#ArialMT-69" x="578.076172"/>
      <use xlink:href="#ArialMT-63" x="600.292969"/>
      <use xlink:href="#ArialMT-20" x="650.292969"/>
      <use xlink:href="#ArialMT-2b" x="678.076172"/>
      <use xlink:href="#ArialMT-20" x="736.474609"/>
      <use xlink:href="#ArialMT-61" x="764.257812"/>
      <use xlink:href="#ArialMT-6c" x="819.873047"/>
      <use xlink:href="#ArialMT-65" x="842.089844"/>
      <use xlink:href="#ArialMT-61" x="897.705078"/>
      <use xlink:href="#ArialMT-74" x="953.320312"/>
      <use xlink:href="#ArialMT-6f" x="981.103516"/>
      <use xlink:href="#ArialMT-72" x="1036.71875"/>
      <use xlink:href="#ArialMT-79" x="1070.019531"/>
      <use xlink:href="#ArialMT-20" x="1120.019531"/>
      <use xlink:href="#ArialMT-63" x="1147.802734"/>
      <use xlink:href="#ArialMT-72" x="1197.802734"/>
      <use xlink:href="#ArialMT-65" x="1231.103516"/>
      <use xlink:href="#ArialMT-64" x="1286.71875"/>
      <use xlink:href="#ArialMT-69" x="1342.333984"/>
      <use xlink:href="#ArialMT-62" x="1364.550781"/>
      <use xlink:href="#ArialMT-6c" x="1420.166016"/>
      <use xlink:href="#ArialMT-65" x="1442.382812"/>
      <use xlink:href="#ArialMT-20" x="1497.998047"/>
      <use xlink:href="#ArialMT-69" x="1525.78125"/>
      <use xlink:href="#ArialMT-6e" x="1547.998047"/>
      <use xlink:href="#ArialMT-74" x="1603.613281"/>
      <use xlink:href="#ArialMT-65" x="1631.396484"/>
      <use xlink:href="#ArialMT-72" x="1687.011719"/>
      <use xlink:href="#ArialMT-76" x="1720.3125"/>
      <use xlink:href="#ArialMT-61" x="1770.3125"/>
      <use xlink:href="#ArialMT-6c" x="1825.927734"/>
     </g>
    </g>
    <g id="line2d_20">
     <g>
      <use xlink:href="#m7a914a6417" x="55.032875" y="56.000125" style="stroke: #000000"/>
     </g>
    </g>
    <g id="text_22">
     <!-- Observed data -->
     <g style="fill: #262626" transform="translate(70.872875 59.080125) scale(0.088 -0.088)">
      <defs>
       <path id="ArialMT-4f" d="M 309 2231 
Q 309 3372 921 4017 
Q 1534 4663 2503 4663 
Q 3138 4663 3647 4359 
Q 4156 4056 4423 3514 
Q 4691 2972 4691 2284 
Q 4691 1588 4409 1038 
Q 4128 488 3612 205 
Q 3097 -78 2500 -78 
Q 1853 -78 1343 234 
Q 834 547 571 1087 
Q 309 1628 309 2231 
z
M 934 2222 
Q 934 1394 1379 917 
Q 1825 441 2497 441 
Q 3181 441 3623 922 
Q 4066 1403 4066 2288 
Q 4066 2847 3877 3264 
Q 3688 3681 3323 3911 
Q 2959 4141 2506 4141 
Q 1863 4141 1398 3698 
Q 934 3256 934 2222 
z
" transform="scale(0.015625)"/>
      </defs>
      <use xlink:href="#ArialMT-4f"/>
      <use xlink:href="#ArialMT-62" x="77.783203"/>
      <use xlink:href="#ArialMT-73" x="133.398438"/>
      <use xlink:href="#ArialMT-65" x="183.398438"/>
      <use xlink:href="#ArialMT-72" x="239.013672"/>
      <use xlink:href="#ArialMT-76" x="272.314453"/>
      <use xlink:href="#ArialMT-65" x="322.314453"/>
      <use xlink:href="#ArialMT-64" x="377.929688"/>
      <use xlink:href="#ArialMT-20" x="433.544922"/>
      <use xlink:href="#ArialMT-64" x="461.328125"/>
      <use xlink:href="#ArialMT-61" x="516.943359"/>
      <use xlink:href="#ArialMT-74" x="572.558594"/>
      <use xlink:href="#ArialMT-61" x="600.341797"/>
     </g>
    </g>
   </g>
  </g>
 </g>
 <defs>
  <clipPath id="p50c71dfd38">
   <rect x="38.312875" y="7.2" width="357.12" height="266.112"/>
  </clipPath>
 </defs>
</svg>