<?xml version="1.0" encoding="utf-8" standalone="no"?>
<!DOCTYPE svg PUBLIC "-//W3C//DTD SVG 1.1//EN"
  "http://www.w3.org/Graphics/SVG/1.1/DTD/svg11.dtd">
<svg xmlns:xlink="http://www.w3.org/1999/xlink" width="428.606pt" height="322.539375pt" viewBox="0 0 428.606 322.539375" xmlns="http://www.w3.org/2000/svg" version="1.1">
 <metadata>
  <rdf:RDF xmlns:dc="http://purl.org/dc/elements/1.1/" xmlns:cc="http://creativecommons.org/ns#" xmlns:rdf="http://www.w3.org/1999/02/22-rdf-syntax-ns#">
   <cc:Work>
    <dc:type rdf:resource="http://purl.org/dc/dcmitype/StillImage"/>
    <dc:date>2023-10-22T09:21:37.648589</dc:date>
    <dc:format>image/svg+xml</dc:format>
    <dc:creator>
     <cc:Agent>
      <dc:title>Matplotlib v3.7.1, https://matplotlib.org/</dc:title>
     </cc:Agent>
    </dc:creator>
   </cc:Work>
  </rdf:RDF>
 </metadata>
 <defs>
  <style type="text/css">*{stroke-linejoin: round; stroke-linecap: butt}</style>
 </defs>
 <g id="figure_1">
  <g id="patch_1">
   <path d="M 0 322.539375 
L 428.606 322.539375 
L 428.606 0 
L 0 0 
z
" style="fill: #ffffff"/>
  </g>
  <g id="axes_1">
   <g id="patch_2">
    <path d="M 38.312875 286.212 
L 395.432875 286.212 
L 395.432875 20.1 
L 38.312875 20.1 
z
" style="fill: #ffffff"/>
   </g>
   <g id="matplotlib.axis_1">
    <g id="xtick_1">
     <g id="line2d_1">
      <defs>
       <path id="ma50cc42919" d="M 0 0 
L 0 4.8 
" style="stroke: #262626"/>
      </defs>
      <g>
       <use xlink:href="#ma50cc42919" x="54.545602" y="286.212" style="fill: #262626; stroke: #262626"/>
      </g>
     </g>
     <g id="text_1">
      <!-- 0.0 -->
      <g style="fill: #262626" transform="translate(48.429602 300.810875) scale(0.088 -0.088)">
       <defs>
        <path id="ArialMT-30" d="M 266 2259 
Q 266 3072 433 3567 
Q 600 4063 929 4331 
Q 1259 4600 1759 4600 
Q 2128 4600 2406 4451 
Q 2684 4303 2865 4023 
Q 3047 3744 3150 3342 
Q 3253 2941 3253 2259 
Q 3253 1453 3087 958 
Q 2922 463 2592 192 
Q 2263 -78 1759 -78 
Q 1097 -78 719 397 
Q 266 969 266 2259 
z
M 844 2259 
Q 844 1131 1108 757 
Q 1372 384 1759 384 
Q 2147 384 2411 759 
Q 2675 1134 2675 2259 
Q 2675 3391 2411 3762 
Q 2147 4134 1753 4134 
Q 1366 4134 1134 3806 
Q 844 3388 844 2259 
z
" transform="scale(0.015625)"/>
        <path id="ArialMT-2e" d="M 581 0 
L 581 641 
L 1222 641 
L 1222 0 
L 581 0 
z
" transform="scale(0.015625)"/>
       </defs>
       <use xlink:href="#ArialMT-30"/>
       <use xlink:href="#ArialMT-2e" x="55.615234"/>
       <use xlink:href="#ArialMT-30" x="83.398438"/>
      </g>
     </g>
    </g>
    <g id="xtick_2">
     <g id="line2d_2">
      <g>
       <use xlink:href="#ma50cc42919" x="119.476511" y="286.212" style="fill: #262626; stroke: #262626"/>
      </g>
     </g>
     <g id="text_2">
      <!-- 0.2 -->
      <g style="fill: #262626" transform="translate(113.360511 300.810875) scale(0.088 -0.088)">
       <defs>
        <path id="ArialMT-32" d="M 3222 541 
L 3222 0 
L 194 0 
Q 188 203 259 391 
Q 375 700 629 1000 
Q 884 1300 1366 1694 
Q 2113 2306 2375 2664 
Q 2638 3022 2638 3341 
Q 2638 3675 2398 3904 
Q 2159 4134 1775 4134 
Q 1369 4134 1125 3890 
Q 881 3647 878 3216 
L 300 3275 
Q 359 3922 746 4261 
Q 1134 4600 1788 4600 
Q 2447 4600 2831 4234 
Q 3216 3869 3216 3328 
Q 3216 3053 3103 2787 
Q 2991 2522 2730 2228 
Q 2469 1934 1863 1422 
Q 1356 997 1212 845 
Q 1069 694 975 541 
L 3222 541 
z
" transform="scale(0.015625)"/>
       </defs>
       <use xlink:href="#ArialMT-30"/>
       <use xlink:href="#ArialMT-2e" x="55.615234"/>
       <use xlink:href="#ArialMT-32" x="83.398438"/>
      </g>
     </g>
    </g>
    <g id="xtick_3">
     <g id="line2d_3">
      <g>
       <use xlink:href="#ma50cc42919" x="184.40742" y="286.212" style="fill: #262626; stroke: #262626"/>
      </g>
     </g>
     <g id="text_3">
      <!-- 0.4 -->
      <g style="fill: #262626" transform="translate(178.29142 300.810875) scale(0.088 -0.088)">
       <defs>
        <path id="ArialMT-34" d="M 2069 0 
L 2069 1097 
L 81 1097 
L 81 1613 
L 2172 4581 
L 2631 4581 
L 2631 1613 
L 3250 1613 
L 3250 1097 
L 2631 1097 
L 2631 0 
L 2069 0 
z
M 2069 1613 
L 2069 3678 
L 634 1613 
L 2069 1613 
z
" transform="scale(0.015625)"/>
       </defs>
       <use xlink:href="#ArialMT-30"/>
       <use xlink:href="#ArialMT-2e" x="55.615234"/>
       <use xlink:href="#ArialMT-34" x="83.398438"/>
      </g>
     </g>
    </g>
    <g id="xtick_4">
     <g id="line2d_4">
      <g>
       <use xlink:href="#ma50cc42919" x="249.33833" y="286.212" style="fill: #262626; stroke: #262626"/>
      </g>
     </g>
     <g id="text_4">
      <!-- 0.6 -->
      <g style="fill: #262626" transform="translate(243.22233 300.810875) scale(0.088 -0.088)">
       <defs>
        <path id="ArialMT-36" d="M 3184 3459 
L 2625 3416 
Q 2550 3747 2413 3897 
Q 2184 4138 1850 4138 
Q 1581 4138 1378 3988 
Q 1113 3794 959 3422 
Q 806 3050 800 2363 
Q 1003 2672 1297 2822 
Q 1591 2972 1913 2972 
Q 2475 2972 2870 2558 
Q 3266 2144 3266 1488 
Q 3266 1056 3080 686 
Q 2894 316 2569 119 
Q 2244 -78 1831 -78 
Q 1128 -78 684 439 
Q 241 956 241 2144 
Q 241 3472 731 4075 
Q 1159 4600 1884 4600 
Q 2425 4600 2770 4297 
Q 3116 3994 3184 3459 
z
M 888 1484 
Q 888 1194 1011 928 
Q 1134 663 1356 523 
Q 1578 384 1822 384 
Q 2178 384 2434 671 
Q 2691 959 2691 1453 
Q 2691 1928 2437 2201 
Q 2184 2475 1800 2475 
Q 1419 2475 1153 2201 
Q 888 1928 888 1484 
z
" transform="scale(0.015625)"/>
       </defs>
       <use xlink:href="#ArialMT-30"/>
       <use xlink:href="#ArialMT-2e" x="55.615234"/>
       <use xlink:href="#ArialMT-36" x="83.398438"/>
      </g>
     </g>
    </g>
    <g id="xtick_5">
     <g id="line2d_5">
      <g>
       <use xlink:href="#ma50cc42919" x="314.269239" y="286.212" style="fill: #262626; stroke: #262626"/>
      </g>
     </g>
     <g id="text_5">
      <!-- 0.8 -->
      <g style="fill: #262626" transform="translate(308.153239 300.810875) scale(0.088 -0.088)">
       <defs>
        <path id="ArialMT-38" d="M 1131 2484 
Q 781 2613 612 2850 
Q 444 3088 444 3419 
Q 444 3919 803 4259 
Q 1163 4600 1759 4600 
Q 2359 4600 2725 4251 
Q 3091 3903 3091 3403 
Q 3091 3084 2923 2848 
Q 2756 2613 2416 2484 
Q 2838 2347 3058 2040 
Q 3278 1734 3278 1309 
Q 3278 722 2862 322 
Q 2447 -78 1769 -78 
Q 1091 -78 675 323 
Q 259 725 259 1325 
Q 259 1772 486 2073 
Q 713 2375 1131 2484 
z
M 1019 3438 
Q 1019 3113 1228 2906 
Q 1438 2700 1772 2700 
Q 2097 2700 2305 2904 
Q 2513 3109 2513 3406 
Q 2513 3716 2298 3927 
Q 2084 4138 1766 4138 
Q 1444 4138 1231 3931 
Q 1019 3725 1019 3438 
z
M 838 1322 
Q 838 1081 952 856 
Q 1066 631 1291 507 
Q 1516 384 1775 384 
Q 2178 384 2440 643 
Q 2703 903 2703 1303 
Q 2703 1709 2433 1975 
Q 2163 2241 1756 2241 
Q 1359 2241 1098 1978 
Q 838 1716 838 1322 
z
" transform="scale(0.015625)"/>
       </defs>
       <use xlink:href="#ArialMT-30"/>
       <use xlink:href="#ArialMT-2e" x="55.615234"/>
       <use xlink:href="#ArialMT-38" x="83.398438"/>
      </g>
     </g>
    </g>
    <g id="xtick_6">
     <g id="line2d_6">
      <g>
       <use xlink:href="#ma50cc42919" x="379.200148" y="286.212" style="fill: #262626; stroke: #262626"/>
      </g>
     </g>
     <g id="text_6">
      <!-- 1.0 -->
      <g style="fill: #262626" transform="translate(373.084148 300.810875) scale(0.088 -0.088)">
       <defs>
        <path id="ArialMT-31" d="M 2384 0 
L 1822 0 
L 1822 3584 
Q 1619 3391 1289 3197 
Q 959 3003 697 2906 
L 697 3450 
Q 1169 3672 1522 3987 
Q 1875 4303 2022 4600 
L 2384 4600 
L 2384 0 
z
" transform="scale(0.015625)"/>
       </defs>
       <use xlink:href="#ArialMT-31"/>
       <use xlink:href="#ArialMT-2e" x="55.615234"/>
       <use xlink:href="#ArialMT-30" x="83.398438"/>
      </g>
     </g>
    </g>
    <g id="text_7">
     <!-- $x$ -->
     <g style="fill: #262626" transform="translate(213.992875 313.431375) scale(0.096 -0.096)">
      <defs>
       <path id="DejaVuSans-Oblique-78" d="M 3841 3500 
L 2234 1784 
L 3219 0 
L 2559 0 
L 1819 1388 
L 531 0 
L -166 0 
L 1556 1844 
L 641 3500 
L 1300 3500 
L 1972 2234 
L 3144 3500 
L 3841 3500 
z
" transform="scale(0.015625)"/>
      </defs>
      <use xlink:href="#DejaVuSans-Oblique-78" transform="translate(0 0.3125)"/>
     </g>
    </g>
   </g>
   <g id="matplotlib.axis_2">
    <g id="ytick_1">
     <g id="line2d_7">
      <defs>
       <path id="mbbfdb22095" d="M 0 0 
L -4.8 0 
" style="stroke: #262626"/>
      </defs>
      <g>
       <use xlink:href="#mbbfdb22095" x="38.312875" y="254.205522" style="fill: #262626; stroke: #262626"/>
      </g>
     </g>
     <g id="text_8">
      <!-- −2 -->
      <g style="fill: #262626" transform="translate(19.9795 257.354959) scale(0.088 -0.088)">
       <defs>
        <path id="ArialMT-2212" d="M 3381 1997 
L 356 1997 
L 356 2522 
L 3381 2522 
L 3381 1997 
z
" transform="scale(0.015625)"/>
       </defs>
       <use xlink:href="#ArialMT-2212"/>
       <use xlink:href="#ArialMT-32" x="58.398438"/>
      </g>
     </g>
    </g>
    <g id="ytick_2">
     <g id="line2d_8">
      <g>
       <use xlink:href="#mbbfdb22095" x="38.312875" y="210.320746" style="fill: #262626; stroke: #262626"/>
      </g>
     </g>
     <g id="text_9">
      <!-- 0 -->
      <g style="fill: #262626" transform="translate(25.11925 213.470184) scale(0.088 -0.088)">
       <use xlink:href="#ArialMT-30"/>
      </g>
     </g>
    </g>
    <g id="ytick_3">
     <g id="line2d_9">
      <g>
       <use xlink:href="#mbbfdb22095" x="38.312875" y="166.435971" style="fill: #262626; stroke: #262626"/>
      </g>
     </g>
     <g id="text_10">
      <!-- 2 -->
      <g style="fill: #262626" transform="translate(25.11925 169.585408) scale(0.088 -0.088)">
       <use xlink:href="#ArialMT-32"/>
      </g>
     </g>
    </g>
    <g id="ytick_4">
     <g id="line2d_10">
      <g>
       <use xlink:href="#mbbfdb22095" x="38.312875" y="122.551196" style="fill: #262626; stroke: #262626"/>
      </g>
     </g>
     <g id="text_11">
      <!-- 4 -->
      <g style="fill: #262626" transform="translate(25.11925 125.700633) scale(0.088 -0.088)">
       <use xlink:href="#ArialMT-34"/>
      </g>
     </g>
    </g>
    <g id="ytick_5">
     <g id="line2d_11">
      <g>
       <use xlink:href="#mbbfdb22095" x="38.312875" y="78.66642" style="fill: #262626; stroke: #262626"/>
      </g>
     </g>
     <g id="text_12">
      <!-- 6 -->
      <g style="fill: #262626" transform="translate(25.11925 81.815858) scale(0.088 -0.088)">
       <use xlink:href="#ArialMT-36"/>
      </g>
     </g>
    </g>
    <g id="ytick_6">
     <g id="line2d_12">
      <g>
       <use xlink:href="#mbbfdb22095" x="38.312875" y="34.781645" style="fill: #262626; stroke: #262626"/>
      </g>
     </g>
     <g id="text_13">
      <!-- 8 -->
      <g style="fill: #262626" transform="translate(25.11925 37.931083) scale(0.088 -0.088)">
       <use xlink:href="#ArialMT-38"/>
      </g>
     </g>
    </g>
    <g id="text_14">
     <!-- $y$ -->
     <g style="fill: #262626" transform="translate(13.9635 156.036) rotate(-90) scale(0.096 -0.096)">
      <defs>
       <path id="DejaVuSans-Oblique-79" d="M 1588 -325 
Q 1188 -997 936 -1164 
Q 684 -1331 294 -1331 
L -159 -1331 
L -63 -850 
L 269 -850 
Q 509 -850 678 -719 
Q 847 -588 1056 -206 
L 1234 128 
L 459 3500 
L 1069 3500 
L 1650 819 
L 3256 3500 
L 3859 3500 
L 1588 -325 
z
" transform="scale(0.015625)"/>
      </defs>
      <use xlink:href="#DejaVuSans-Oblique-79" transform="translate(0 0.3125)"/>
     </g>
    </g>
   </g>
   <g id="PolyCollection_1">
    <defs>
     <path id="m75653989cf" d="M 54.545602 -194.68097 
L 54.545602 -48.424693 
L 57.824941 -51.533004 
L 61.10428 -54.894262 
L 64.383619 -58.500594 
L 67.662958 -62.338538 
L 70.942296 -66.388729 
L 74.221636 -70.625735 
L 77.500973 -75.01819 
L 80.780313 -79.528829 
L 84.059653 -84.115261 
L 87.33899 -88.730043 
L 90.61833 -93.321985 
L 93.89767 -97.83673 
L 97.177007 -102.217979 
L 100.456344 -106.409384 
L 103.735686 -110.35479 
L 107.015024 -113.999761 
L 110.294361 -117.290826 
L 113.573703 -120.09688 
L 116.853041 -117.519647 
L 120.132378 -113.855573 
L 123.41172 -110.672861 
L 126.691057 -108.048911 
L 129.970395 -106.046285 
L 133.249737 -104.71816 
L 136.529069 -104.109916 
L 139.808412 -104.257049 
L 143.087754 -105.185218 
L 146.367086 -106.909652 
L 149.646428 -109.434542 
L 152.92577 -112.749675 
L 156.205103 -116.7891 
L 159.484445 -117.030091 
L 162.763787 -115.258672 
L 166.04312 -113.65854 
L 169.322462 -112.336005 
L 172.601804 -111.381274 
L 175.881137 -110.878327 
L 179.160479 -110.903988 
L 182.439821 -111.526494 
L 185.719153 -112.80408 
L 188.998496 -114.78367 
L 192.277838 -117.499701 
L 195.55717 -120.973242 
L 198.836512 -125.211672 
L 202.115855 -130.208006 
L 205.395187 -135.941135 
L 208.674529 -142.376082 
L 211.953871 -149.464424 
L 215.233204 -157.145058 
L 218.512556 -165.345439 
L 221.791879 -173.982313 
L 225.071221 -182.9638 
L 228.350563 -192.19035 
L 231.629886 -201.5567 
L 234.909247 -210.95366 
L 238.18857 -220.269752 
L 241.467912 -229.393263 
L 244.747254 -238.213903 
L 248.026597 -246.624647 
L 251.305939 -254.523229 
L 254.585262 -261.813443 
L 257.864623 -268.403561 
L 261.143946 -273.808761 
L 264.423288 -268.38974 
L 267.70263 -261.798366 
L 270.981953 -254.519358 
L 274.261315 -246.6437 
L 277.540637 -238.266783 
L 280.81998 -229.489606 
L 284.099322 -220.417552 
L 287.378664 -211.159069 
L 290.658006 -201.823736 
L 293.937329 -192.520806 
L 297.21669 -183.356888 
L 300.496013 -174.435275 
L 303.775355 -165.853237 
L 307.054697 -157.701452 
L 310.33402 -150.062104 
L 313.613382 -143.007908 
L 316.892705 -136.601446 
L 320.172047 -130.893914 
L 323.451389 -125.924962 
L 326.730731 -121.722434 
L 330.010073 -118.302034 
L 333.289396 -115.667817 
L 336.568738 -113.812303 
L 339.84808 -112.717376 
L 343.127423 -112.354375 
L 346.406765 -112.68575 
L 349.686088 -113.666018 
L 352.96543 -115.238882 
L 356.244772 -117.07945 
L 359.524114 -108.971457 
L 362.803456 -100.60249 
L 366.082798 -92.630647 
L 369.362141 -85.086306 
L 372.641463 -77.9916 
L 375.920806 -71.362994 
L 379.200148 -65.210659 
L 379.200148 -141.939725 
L 379.200148 -141.939725 
L 375.920806 -137.844133 
L 372.641463 -133.839822 
L 369.362141 -129.986849 
L 366.082798 -126.349399 
L 362.803456 -122.993916 
L 359.524114 -119.990579 
L 356.244772 -118.031887 
L 352.96543 -126.832823 
L 349.686088 -136.196896 
L 346.406765 -145.809529 
L 343.127423 -155.615022 
L 339.84808 -165.557021 
L 336.568738 -175.575255 
L 333.289396 -185.605359 
L 330.010073 -195.580339 
L 326.730731 -205.43025 
L 323.451389 -215.082757 
L 320.172047 -224.463897 
L 316.892705 -233.498368 
L 313.613382 -242.110775 
L 310.33402 -250.226139 
L 307.054697 -257.770655 
L 303.775355 -264.67304 
L 300.496013 -270.865283 
L 297.21669 -276.283729 
L 293.937329 -280.870506 
L 290.658006 -284.574086 
L 287.378664 -287.351035 
L 284.099322 -289.166503 
L 280.81998 -289.995482 
L 277.540637 -289.823597 
L 274.261315 -288.647666 
L 270.981953 -286.476772 
L 267.70263 -283.332406 
L 264.423288 -279.25191 
L 261.143946 -274.687062 
L 257.864623 -279.278747 
L 254.585262 -283.398647 
L 251.305939 -286.594836 
L 248.026597 -288.829659 
L 244.747254 -290.081215 
L 241.467912 -290.340215 
L 238.18857 -289.609734 
L 234.909247 -287.904295 
L 231.629886 -285.249469 
L 228.350563 -281.681228 
L 225.071221 -277.244834 
L 221.791879 -271.994298 
L 218.512556 -265.991235 
L 215.233204 -259.303875 
L 211.953871 -252.006399 
L 208.674529 -244.177657 
L 205.395187 -235.900504 
L 202.115855 -227.260936 
L 198.836512 -218.347029 
L 195.55717 -209.248514 
L 192.277838 -200.055665 
L 188.998496 -190.858726 
L 185.719153 -181.747101 
L 182.439821 -172.808616 
L 179.160479 -164.12864 
L 175.881137 -155.789463 
L 172.601804 -147.869278 
L 169.322462 -140.441465 
L 166.04312 -133.57421 
L 162.763787 -127.330389 
L 159.484445 -121.778665 
L 156.205103 -119.055975 
L 152.92577 -120.893726 
L 149.646428 -122.708071 
L 146.367086 -124.36682 
L 143.087754 -125.789712 
L 139.808412 -126.90851 
L 136.529069 -127.664827 
L 133.249737 -128.010919 
L 129.970395 -127.910179 
L 126.691057 -127.338281 
L 123.41172 -126.282159 
L 120.132378 -124.742397 
L 116.853041 -122.739421 
L 113.573703 -121.790175 
L 110.294361 -126.145906 
L 107.015024 -130.869521 
L 103.735686 -135.79774 
L 100.456344 -140.851531 
L 97.177007 -145.957433 
L 93.89767 -151.046526 
L 90.61833 -156.055599 
L 87.33899 -160.927068 
L 84.059653 -165.61023 
L 80.780313 -170.061936 
L 77.500973 -174.246571 
L 74.221636 -178.136605 
L 70.942296 -181.712154 
L 67.662958 -184.960967 
L 64.383619 -187.8779 
L 61.10428 -190.464429 
L 57.824941 -192.727957 
L 54.545602 -194.68097 
z
" style="stroke: #1f77b4; stroke-opacity: 0.5; stroke-width: 0.8"/>
    </defs>
    <g clip-path="url(#pb094666c4f)">
     <use xlink:href="#m75653989cf" x="0" y="322.539375" style="fill: #1f77b4; fill-opacity: 0.5; stroke: #1f77b4; stroke-opacity: 0.5; stroke-width: 0.8"/>
    </g>
   </g>
   <g id="PolyCollection_2">
    <defs>
     <path id="mec04762087" d="M 54.545602 -48.424693 
L 54.545602 -48.423375 
L 57.824941 -51.531639 
L 61.10428 -54.89285 
L 64.383619 -58.499108 
L 67.662958 -62.336969 
L 70.942296 -66.387055 
L 74.221636 -70.623946 
L 77.500973 -75.016249 
L 80.780313 -79.526705 
L 84.059653 -84.112899 
L 87.33899 -88.727375 
L 90.61833 -93.318914 
L 93.89767 -97.833113 
L 97.177007 -102.213577 
L 100.456344 -106.403793 
L 103.735686 -110.347222 
L 107.015024 -113.988352 
L 110.294361 -117.269131 
L 113.573703 -119.989903 
L 116.853041 -117.483008 
L 120.132378 -113.837912 
L 123.41172 -110.660533 
L 126.691057 -108.038932 
L 129.970395 -106.03748 
L 133.249737 -104.709896 
L 136.529069 -104.101743 
L 139.808412 -104.24855 
L 143.087754 -105.175875 
L 146.367086 -106.898626 
L 149.646428 -109.420049 
L 152.92577 -112.726096 
L 156.205103 -116.707109 
L 159.484445 -116.989875 
L 162.763787 -115.242739 
L 166.04312 -113.648875 
L 169.322462 -112.329154 
L 172.601804 -111.375997 
L 175.881137 -110.874039 
L 179.160479 -110.900371 
L 182.439821 -111.523353 
L 185.719153 -112.801287 
L 188.998496 -114.781138 
L 192.277838 -117.497368 
L 195.55717 -120.971061 
L 198.836512 -125.2096 
L 202.115855 -130.206018 
L 205.395187 -135.93921 
L 208.674529 -142.374188 
L 211.953871 -149.462546 
L 215.233204 -157.143175 
L 218.512556 -165.343524 
L 221.791879 -173.980351 
L 225.071221 -182.961754 
L 228.350563 -192.188195 
L 231.629886 -201.554399 
L 234.909247 -210.95116 
L 238.18857 -220.26698 
L 241.467912 -229.390103 
L 244.747254 -238.210189 
L 248.026597 -246.620085 
L 251.305939 -254.517223 
L 254.585262 -261.804519 
L 257.864623 -268.385879 
L 261.143946 -273.627072 
L 264.423288 -268.372036 
L 267.70263 -261.789431 
L 270.981953 -254.513331 
L 274.261315 -246.639117 
L 277.540637 -238.263047 
L 280.81998 -229.486425 
L 284.099322 -220.414748 
L 287.378664 -211.156537 
L 290.658006 -201.821403 
L 293.937329 -192.51863 
L 297.21669 -183.354816 
L 300.496013 -174.433282 
L 303.775355 -165.851291 
L 307.054697 -157.699526 
L 310.33402 -150.060184 
L 313.613382 -143.005962 
L 316.892705 -136.599458 
L 320.172047 -130.891853 
L 323.451389 -125.922802 
L 326.730731 -121.720134 
L 330.010073 -118.299541 
L 333.289396 -115.665063 
L 336.568738 -113.809187 
L 339.84808 -112.713733 
L 343.127423 -112.349924 
L 346.406765 -112.679936 
L 349.686088 -113.657473 
L 352.96543 -115.222295 
L 356.244772 -116.90808 
L 359.524114 -108.954008 
L 362.803456 -100.593892 
L 366.082798 -92.624936 
L 369.362141 -85.082016 
L 372.641463 -77.988152 
L 375.920806 -71.360096 
L 379.200148 -65.208148 
L 379.200148 -65.210659 
L 379.200148 -65.210659 
L 375.920806 -71.362994 
L 372.641463 -77.9916 
L 369.362141 -85.086306 
L 366.082798 -92.630647 
L 362.803456 -100.60249 
L 359.524114 -108.971457 
L 356.244772 -117.07945 
L 352.96543 -115.238882 
L 349.686088 -113.666018 
L 346.406765 -112.68575 
L 343.127423 -112.354375 
L 339.84808 -112.717376 
L 336.568738 -113.812303 
L 333.289396 -115.667817 
L 330.010073 -118.302034 
L 326.730731 -121.722434 
L 323.451389 -125.924962 
L 320.172047 -130.893914 
L 316.892705 -136.601446 
L 313.613382 -143.007908 
L 310.33402 -150.062104 
L 307.054697 -157.701452 
L 303.775355 -165.853237 
L 300.496013 -174.435275 
L 297.21669 -183.356888 
L 293.937329 -192.520806 
L 290.658006 -201.823736 
L 287.378664 -211.159069 
L 284.099322 -220.417552 
L 280.81998 -229.489606 
L 277.540637 -238.266783 
L 274.261315 -246.6437 
L 270.981953 -254.519358 
L 267.70263 -261.798366 
L 264.423288 -268.38974 
L 261.143946 -273.808761 
L 257.864623 -268.403561 
L 254.585262 -261.813443 
L 251.305939 -254.523229 
L 248.026597 -246.624647 
L 244.747254 -238.213903 
L 241.467912 -229.393263 
L 238.18857 -220.269752 
L 234.909247 -210.95366 
L 231.629886 -201.5567 
L 228.350563 -192.19035 
L 225.071221 -182.9638 
L 221.791879 -173.982313 
L 218.512556 -165.345439 
L 215.233204 -157.145058 
L 211.953871 -149.464424 
L 208.674529 -142.376082 
L 205.395187 -135.941135 
L 202.115855 -130.208006 
L 198.836512 -125.211672 
L 195.55717 -120.973242 
L 192.277838 -117.499701 
L 188.998496 -114.78367 
L 185.719153 -112.80408 
L 182.439821 -111.526494 
L 179.160479 -110.903988 
L 175.881137 -110.878327 
L 172.601804 -111.381274 
L 169.322462 -112.336005 
L 166.04312 -113.65854 
L 162.763787 -115.258672 
L 159.484445 -117.030091 
L 156.205103 -116.7891 
L 152.92577 -112.749675 
L 149.646428 -109.434542 
L 146.367086 -106.909652 
L 143.087754 -105.185218 
L 139.808412 -104.257049 
L 136.529069 -104.109916 
L 133.249737 -104.71816 
L 129.970395 -106.046285 
L 126.691057 -108.048911 
L 123.41172 -110.672861 
L 120.132378 -113.855573 
L 116.853041 -117.519647 
L 113.573703 -120.09688 
L 110.294361 -117.290826 
L 107.015024 -113.999761 
L 103.735686 -110.35479 
L 100.456344 -106.409384 
L 97.177007 -102.217979 
L 93.89767 -97.83673 
L 90.61833 -93.321985 
L 87.33899 -88.730043 
L 84.059653 -84.115261 
L 80.780313 -79.528829 
L 77.500973 -75.01819 
L 74.221636 -70.625735 
L 70.942296 -66.388729 
L 67.662958 -62.338538 
L 64.383619 -58.500594 
L 61.10428 -54.894262 
L 57.824941 -51.533004 
L 54.545602 -48.424693 
z
" style="stroke: #ff7f0e; stroke-opacity: 0.5; stroke-width: 0.8"/>
    </defs>
    <g clip-path="url(#pb094666c4f)">
     <use xlink:href="#mec04762087" x="0" y="322.539375" style="fill: #ff7f0e; fill-opacity: 0.5; stroke: #ff7f0e; stroke-opacity: 0.5; stroke-width: 0.8"/>
    </g>
   </g>
   <g id="PolyCollection_3">
    <defs>
     <path id="m64463c7898" d="M 54.545602 -194.682289 
L 54.545602 -194.68097 
L 57.824941 -192.727957 
L 61.10428 -190.464429 
L 64.383619 -187.8779 
L 67.662958 -184.960967 
L 70.942296 -181.712154 
L 74.221636 -178.136605 
L 77.500973 -174.246571 
L 80.780313 -170.061936 
L 84.059653 -165.61023 
L 87.33899 -160.927068 
L 90.61833 -156.055599 
L 93.89767 -151.046526 
L 97.177007 -145.957433 
L 100.456344 -140.851531 
L 103.735686 -135.79774 
L 107.015024 -130.869521 
L 110.294361 -126.145906 
L 113.573703 -121.790175 
L 116.853041 -122.739421 
L 120.132378 -124.742397 
L 123.41172 -126.282159 
L 126.691057 -127.338281 
L 129.970395 -127.910179 
L 133.249737 -128.010919 
L 136.529069 -127.664827 
L 139.808412 -126.90851 
L 143.087754 -125.789712 
L 146.367086 -124.36682 
L 149.646428 -122.708071 
L 152.92577 -120.893726 
L 156.205103 -119.055975 
L 159.484445 -121.778665 
L 162.763787 -127.330389 
L 166.04312 -133.57421 
L 169.322462 -140.441465 
L 172.601804 -147.869278 
L 175.881137 -155.789463 
L 179.160479 -164.12864 
L 182.439821 -172.808616 
L 185.719153 -181.747101 
L 188.998496 -190.858726 
L 192.277838 -200.055665 
L 195.55717 -209.248514 
L 198.836512 -218.347029 
L 202.115855 -227.260936 
L 205.395187 -235.900504 
L 208.674529 -244.177657 
L 211.953871 -252.006399 
L 215.233204 -259.303875 
L 218.512556 -265.991235 
L 221.791879 -271.994298 
L 225.071221 -277.244834 
L 228.350563 -281.681228 
L 231.629886 -285.249469 
L 234.909247 -287.904295 
L 238.18857 -289.609734 
L 241.467912 -290.340215 
L 244.747254 -290.081215 
L 248.026597 -288.829659 
L 251.305939 -286.594836 
L 254.585262 -283.398647 
L 257.864623 -279.278747 
L 261.143946 -274.687062 
L 264.423288 -279.25191 
L 267.70263 -283.332406 
L 270.981953 -286.476772 
L 274.261315 -288.647666 
L 277.540637 -289.823597 
L 280.81998 -289.995482 
L 284.099322 -289.166503 
L 287.378664 -287.351035 
L 290.658006 -284.574086 
L 293.937329 -280.870506 
L 297.21669 -276.283729 
L 300.496013 -270.865283 
L 303.775355 -264.67304 
L 307.054697 -257.770655 
L 310.33402 -250.226139 
L 313.613382 -242.110775 
L 316.892705 -233.498368 
L 320.172047 -224.463897 
L 323.451389 -215.082757 
L 326.730731 -205.43025 
L 330.010073 -195.580339 
L 333.289396 -185.605359 
L 336.568738 -175.575255 
L 339.84808 -165.557021 
L 343.127423 -155.615022 
L 346.406765 -145.809529 
L 349.686088 -136.196896 
L 352.96543 -126.832823 
L 356.244772 -118.031887 
L 359.524114 -119.990579 
L 362.803456 -122.993916 
L 366.082798 -126.349399 
L 369.362141 -129.986849 
L 372.641463 -133.839822 
L 375.920806 -137.844133 
L 379.200148 -141.939725 
L 379.200148 -141.942236 
L 379.200148 -141.942236 
L 375.920806 -137.847031 
L 372.641463 -133.84327 
L 369.362141 -129.991136 
L 366.082798 -126.355111 
L 362.803456 -123.002514 
L 359.524114 -120.008029 
L 356.244772 -118.203258 
L 352.96543 -126.84941 
L 349.686088 -136.205439 
L 346.406765 -145.815341 
L 343.127423 -155.619472 
L 339.84808 -165.560662 
L 336.568738 -175.578367 
L 333.289396 -185.608116 
L 330.010073 -195.582834 
L 326.730731 -205.432552 
L 323.451389 -215.084913 
L 320.172047 -224.465948 
L 316.892705 -233.500356 
L 313.613382 -242.112721 
L 310.33402 -250.228054 
L 307.054697 -257.772581 
L 303.775355 -264.674986 
L 300.496013 -270.867282 
L 297.21669 -276.2858 
L 293.937329 -280.872683 
L 290.658006 -284.576419 
L 287.378664 -287.353567 
L 284.099322 -289.169307 
L 280.81998 -289.998663 
L 277.540637 -289.827343 
L 274.261315 -288.652249 
L 270.981953 -286.482799 
L 267.70263 -283.341342 
L 264.423288 -279.269613 
L 261.143946 -274.868751 
L 257.864623 -279.296429 
L 254.585262 -283.407572 
L 251.305939 -286.600842 
L 248.026597 -288.834221 
L 244.747254 -290.08494 
L 241.467912 -290.343375 
L 238.18857 -289.612517 
L 234.909247 -287.906806 
L 231.629886 -285.251771 
L 228.350563 -281.683383 
L 225.071221 -277.246874 
L 221.791879 -271.996265 
L 218.512556 -265.99315 
L 215.233204 -259.305758 
L 211.953871 -252.008272 
L 208.674529 -244.17955 
L 205.395187 -235.902429 
L 202.115855 -227.262924 
L 198.836512 -218.349101 
L 195.55717 -209.25069 
L 192.277838 -200.058009 
L 188.998496 -190.861258 
L 185.719153 -181.749894 
L 182.439821 -172.811755 
L 179.160479 -164.132261 
L 175.881137 -155.793753 
L 172.601804 -147.874554 
L 169.322462 -140.448316 
L 166.04312 -133.583875 
L 162.763787 -127.346322 
L 159.484445 -121.818882 
L 156.205103 -119.137966 
L 152.92577 -120.917306 
L 149.646428 -122.722564 
L 146.367086 -124.377846 
L 143.087754 -125.799054 
L 139.808412 -126.917009 
L 136.529069 -127.673 
L 133.249737 -128.019183 
L 129.970395 -127.918984 
L 126.691057 -127.34826 
L 123.41172 -126.294488 
L 120.132378 -124.760058 
L 116.853041 -122.776059 
L 113.573703 -121.897152 
L 110.294361 -126.167602 
L 107.015024 -130.88093 
L 103.735686 -135.805305 
L 100.456344 -140.857124 
L 97.177007 -145.961833 
L 93.89767 -151.050146 
L 90.61833 -156.05867 
L 87.33899 -160.929736 
L 84.059653 -165.61259 
L 80.780313 -170.06406 
L 77.500973 -174.248511 
L 74.221636 -178.138394 
L 70.942296 -181.713828 
L 67.662958 -184.962536 
L 64.383619 -187.879386 
L 61.10428 -190.465852 
L 57.824941 -192.729322 
L 54.545602 -194.682289 
z
" style="stroke: #ff7f0e; stroke-opacity: 0.5; stroke-width: 0.8"/>
    </defs>
    <g clip-path="url(#pb094666c4f)">
     <use xlink:href="#m64463c7898" x="0" y="322.539375" style="fill: #ff7f0e; fill-opacity: 0.5; stroke: #ff7f0e; stroke-opacity: 0.5; stroke-width: 0.8"/>
    </g>
   </g>
   <g id="line2d_13">
    <defs>
     <path id="mf2c046888a" d="M -5 5 
L 5 -5 
M -5 -5 
L 5 5 
" style="stroke: #000000; stroke-width: 2"/>
    </defs>
    <g clip-path="url(#pb094666c4f)">
     <use xlink:href="#mf2c046888a" x="356.349693" y="205.088776" style="stroke: #000000; stroke-width: 2"/>
     <use xlink:href="#mf2c046888a" x="157.258364" y="204.184541" style="stroke: #000000; stroke-width: 2"/>
     <use xlink:href="#mf2c046888a" x="114.255683" y="201.761939" style="stroke: #000000; stroke-width: 2"/>
     <use xlink:href="#mf2c046888a" x="261.143946" y="48.287289" style="stroke: #000000; stroke-width: 2"/>
    </g>
   </g>
   <g id="line2d_14">
    <path d="M 54.545602 200.986542 
L 57.824941 200.408896 
L 61.10428 199.860027 
L 64.383619 199.350128 
L 67.662958 198.889622 
L 70.942296 198.488933 
L 74.221636 198.158205 
L 77.500973 197.906995 
L 80.780313 197.743994 
L 84.059653 197.676629 
L 87.33899 197.71082 
L 90.61833 197.850582 
L 93.89767 198.097746 
L 97.177007 198.45167 
L 100.456344 198.908917 
L 103.735686 199.463111 
L 107.015024 200.104734 
L 110.294361 200.821009 
L 113.573703 201.595848 
L 116.853041 202.409841 
L 120.132378 203.24039 
L 123.41172 204.061864 
L 126.691057 204.845778 
L 129.970395 205.561143 
L 133.249737 206.174835 
L 136.529069 206.652003 
L 139.808412 206.956595 
L 143.087754 207.05191 
L 146.367086 206.901139 
L 149.646428 206.468069 
L 152.92577 205.717674 
L 156.205103 204.616837 
L 159.484445 203.134997 
L 162.763787 201.244844 
L 166.04312 198.923 
L 169.322462 196.15064 
L 172.601804 192.914099 
L 175.881137 189.205479 
L 179.160479 185.023059 
L 182.439821 180.37182 
L 185.719153 175.263786 
L 188.998496 169.718179 
L 192.277838 163.761689 
L 195.55717 157.428499 
L 198.836512 150.760025 
L 202.115855 143.804907 
L 205.395187 136.618553 
L 208.674529 129.262506 
L 211.953871 121.803963 
L 215.233204 114.314911 
L 218.512556 106.871038 
L 221.791879 99.551067 
L 225.071221 92.435061 
L 228.350563 85.603584 
L 231.629886 79.13629 
L 234.909247 73.110397 
L 238.18857 67.599627 
L 241.467912 62.672636 
L 244.747254 58.391816 
L 248.026597 54.812222 
L 251.305939 51.980342 
L 254.585262 49.93333 
L 257.864623 48.698221 
L 261.143946 48.291463 
L 264.423288 48.71855 
L 267.70263 49.973989 
L 270.981953 52.04131 
L 274.261315 54.893687 
L 277.540637 58.494185 
L 280.81998 62.796831 
L 284.099322 67.747342 
L 287.378664 73.284323 
L 290.658006 79.340464 
L 293.937329 85.843719 
L 297.21669 92.719067 
L 300.496013 99.889093 
L 303.775355 107.276236 
L 307.054697 114.803322 
L 310.33402 122.395256 
L 313.613382 129.980034 
L 316.892705 137.489468 
L 320.172047 144.860472 
L 323.451389 152.035515 
L 326.730731 158.963032 
L 330.010073 165.598187 
L 333.289396 171.902787 
L 336.568738 177.845596 
L 339.84808 183.402176 
L 343.127423 188.554676 
L 346.406765 193.291736 
L 349.686088 197.607918 
L 352.96543 201.503523 
L 356.244772 204.983706 
L 359.524114 208.058357 
L 362.803456 210.741172 
L 366.082798 213.049352 
L 369.362141 215.002798 
L 372.641463 216.623664 
L 375.920806 217.935812 
L 379.200148 218.964183 
" clip-path="url(#pb094666c4f)" style="fill: none; stroke: #1f77b4; stroke-width: 2; stroke-linecap: round"/>
   </g>
   <g id="line2d_15">
    <path d="M 54.545602 123.191476 
L 57.824941 128.546181 
L 61.10428 133.881017 
L 64.383619 139.176199 
L 67.662958 144.412014 
L 70.942296 149.56897 
L 74.221636 154.627762 
L 77.500973 159.569427 
L 80.780313 164.375378 
L 84.059653 169.027433 
L 87.33899 173.507944 
L 90.61833 177.799808 
L 93.89767 181.886545 
L 97.177007 185.752353 
L 100.456344 189.382174 
L 103.735686 192.761705 
L 107.015024 195.877497 
L 110.294361 198.716973 
L 113.573703 201.268493 
L 116.853041 203.521364 
L 120.132378 205.465892 
L 123.41172 207.093435 
L 126.691057 208.396407 
L 129.970395 209.368315 
L 133.249737 210.003798 
L 136.529069 210.298628 
L 139.808412 210.249734 
L 143.087754 209.855239 
L 146.367086 209.114447 
L 149.646428 208.027855 
L 152.92577 206.597177 
L 156.205103 204.825356 
L 159.484445 202.716513 
L 162.763787 200.276031 
L 166.04312 197.510475 
L 169.322462 194.427642 
L 172.601804 191.036533 
L 175.881137 187.347356 
L 179.160479 183.37153 
L 182.439821 179.121623 
L 185.719153 174.611455 
L 188.998496 169.855963 
L 192.277838 164.871311 
L 195.55717 159.674763 
L 198.836512 154.284798 
L 202.115855 148.721058 
L 205.395187 143.004329 
L 208.674529 137.156537 
L 211.953871 131.200819 
L 215.233204 125.161434 
L 218.512556 119.063823 
L 221.791879 112.93466 
L 225.071221 106.801731 
L 228.350563 100.69405 
L 231.629886 94.641989 
L 234.909247 88.676886 
L 238.18857 82.831656 
L 241.467912 77.140211 
L 244.747254 71.637895 
L 248.026597 66.361285 
L 251.305939 61.348184 
L 254.585262 56.637755 
L 257.864623 52.270281 
L 261.143946 48.287289 
L 264.423288 44.731341 
L 267.70263 41.646007 
L 270.981953 39.075586 
L 274.261315 37.065026 
L 277.540637 35.659528 
L 280.81998 34.904218 
L 284.099322 34.843669 
L 287.378664 35.521313 
L 290.658006 36.978654 
L 293.937329 39.254418 
L 297.21669 42.38354 
L 300.496013 46.395452 
L 303.775355 51.313141 
L 307.054697 57.150733 
L 310.33402 63.911449 
L 313.613382 71.585392 
L 316.892705 80.146184 
L 320.172047 89.548156 
L 323.451389 99.722617 
L 326.730731 110.573969 
L 330.010073 121.975796 
L 333.289396 133.766746 
L 336.568738 145.746563 
L 339.84808 157.67294 
L 343.127423 169.258889 
L 346.406765 180.171752 
L 349.686088 190.034946 
L 352.96543 198.432601 
L 356.244772 204.918005 
L 359.524114 209.028886 
L 362.803456 210.308583 
L 366.082798 208.336072 
L 369.362141 202.765254 
L 372.641463 193.373913 
L 375.920806 180.122069 
L 379.200148 163.216967 
" clip-path="url(#pb094666c4f)" style="fill: none; stroke-dasharray: 7.68,1.92,1.2,1.92; stroke-dashoffset: 0; stroke: #bf00bf; stroke-width: 1.2"/>
   </g>
   <g id="patch_3">
    <path d="M 38.312875 254.205522 
L 38.312875 34.781645 
" style="fill: none; stroke: #262626; stroke-linejoin: miter; stroke-linecap: square"/>
   </g>
   <g id="patch_4">
    <path d="M 54.545602 286.212 
L 379.200148 286.212 
" style="fill: none; stroke: #262626; stroke-linejoin: miter; stroke-linecap: square"/>
   </g>
   <g id="text_15">
    <!-- N=0, psi=1.96 -->
    <g style="fill: #262626" transform="translate(186.986125 14.1) scale(0.096 -0.096)">
     <defs>
      <path id="ArialMT-4e" d="M 488 0 
L 488 4581 
L 1109 4581 
L 3516 984 
L 3516 4581 
L 4097 4581 
L 4097 0 
L 3475 0 
L 1069 3600 
L 1069 0 
L 488 0 
z
" transform="scale(0.015625)"/>
      <path id="ArialMT-3d" d="M 3381 2694 
L 356 2694 
L 356 3219 
L 3381 3219 
L 3381 2694 
z
M 3381 1303 
L 356 1303 
L 356 1828 
L 3381 1828 
L 3381 1303 
z
" transform="scale(0.015625)"/>
      <path id="ArialMT-2c" d="M 569 0 
L 569 641 
L 1209 641 
L 1209 0 
Q 1209 -353 1084 -570 
Q 959 -788 688 -906 
L 531 -666 
Q 709 -588 793 -436 
Q 878 -284 888 0 
L 569 0 
z
" transform="scale(0.015625)"/>
      <path id="ArialMT-20" transform="scale(0.015625)"/>
      <path id="ArialMT-70" d="M 422 -1272 
L 422 3319 
L 934 3319 
L 934 2888 
Q 1116 3141 1344 3267 
Q 1572 3394 1897 3394 
Q 2322 3394 2647 3175 
Q 2972 2956 3137 2557 
Q 3303 2159 3303 1684 
Q 3303 1175 3120 767 
Q 2938 359 2589 142 
Q 2241 -75 1856 -75 
Q 1575 -75 1351 44 
Q 1128 163 984 344 
L 984 -1272 
L 422 -1272 
z
M 931 1641 
Q 931 1000 1190 694 
Q 1450 388 1819 388 
Q 2194 388 2461 705 
Q 2728 1022 2728 1688 
Q 2728 2322 2467 2637 
Q 2206 2953 1844 2953 
Q 1484 2953 1207 2617 
Q 931 2281 931 1641 
z
" transform="scale(0.015625)"/>
      <path id="ArialMT-73" d="M 197 991 
L 753 1078 
Q 800 744 1014 566 
Q 1228 388 1613 388 
Q 2000 388 2187 545 
Q 2375 703 2375 916 
Q 2375 1106 2209 1216 
Q 2094 1291 1634 1406 
Q 1016 1563 777 1677 
Q 538 1791 414 1992 
Q 291 2194 291 2438 
Q 291 2659 392 2848 
Q 494 3038 669 3163 
Q 800 3259 1026 3326 
Q 1253 3394 1513 3394 
Q 1903 3394 2198 3281 
Q 2494 3169 2634 2976 
Q 2775 2784 2828 2463 
L 2278 2388 
Q 2241 2644 2061 2787 
Q 1881 2931 1553 2931 
Q 1166 2931 1000 2803 
Q 834 2675 834 2503 
Q 834 2394 903 2306 
Q 972 2216 1119 2156 
Q 1203 2125 1616 2013 
Q 2213 1853 2448 1751 
Q 2684 1650 2818 1456 
Q 2953 1263 2953 975 
Q 2953 694 2789 445 
Q 2625 197 2315 61 
Q 2006 -75 1616 -75 
Q 969 -75 630 194 
Q 291 463 197 991 
z
" transform="scale(0.015625)"/>
      <path id="ArialMT-69" d="M 425 3934 
L 425 4581 
L 988 4581 
L 988 3934 
L 425 3934 
z
M 425 0 
L 425 3319 
L 988 3319 
L 988 0 
L 425 0 
z
" transform="scale(0.015625)"/>
      <path id="ArialMT-39" d="M 350 1059 
L 891 1109 
Q 959 728 1153 556 
Q 1347 384 1650 384 
Q 1909 384 2104 503 
Q 2300 622 2425 820 
Q 2550 1019 2634 1356 
Q 2719 1694 2719 2044 
Q 2719 2081 2716 2156 
Q 2547 1888 2255 1720 
Q 1963 1553 1622 1553 
Q 1053 1553 659 1965 
Q 266 2378 266 3053 
Q 266 3750 677 4175 
Q 1088 4600 1706 4600 
Q 2153 4600 2523 4359 
Q 2894 4119 3086 3673 
Q 3278 3228 3278 2384 
Q 3278 1506 3087 986 
Q 2897 466 2520 194 
Q 2144 -78 1638 -78 
Q 1100 -78 759 220 
Q 419 519 350 1059 
z
M 2653 3081 
Q 2653 3566 2395 3850 
Q 2138 4134 1775 4134 
Q 1400 4134 1122 3828 
Q 844 3522 844 3034 
Q 844 2597 1108 2323 
Q 1372 2050 1759 2050 
Q 2150 2050 2401 2323 
Q 2653 2597 2653 3081 
z
" transform="scale(0.015625)"/>
     </defs>
     <use xlink:href="#ArialMT-4e"/>
     <use xlink:href="#ArialMT-3d" x="72.216797"/>
     <use xlink:href="#ArialMT-30" x="130.615234"/>
     <use xlink:href="#ArialMT-2c" x="186.230469"/>
     <use xlink:href="#ArialMT-20" x="214.013672"/>
     <use xlink:href="#ArialMT-70" x="241.796875"/>
     <use xlink:href="#ArialMT-73" x="297.412109"/>
     <use xlink:href="#ArialMT-69" x="347.412109"/>
     <use xlink:href="#ArialMT-3d" x="369.628906"/>
     <use xlink:href="#ArialMT-31" x="428.027344"/>
     <use xlink:href="#ArialMT-2e" x="483.642578"/>
     <use xlink:href="#ArialMT-39" x="511.425781"/>
     <use xlink:href="#ArialMT-36" x="567.041016"/>
    </g>
   </g>
   <g id="legend_1">
    <g id="line2d_16">
     <g>
      <use xlink:href="#mf2c046888a" x="55.032875" y="31.238875" style="stroke: #000000; stroke-width: 2"/>
     </g>
    </g>
    <g id="text_16">
     <!-- Observations -->
     <g style="fill: #262626" transform="translate(70.872875 34.318875) scale(0.088 -0.088)">
      <defs>
       <path id="ArialMT-4f" d="M 309 2231 
Q 309 3372 921 4017 
Q 1534 4663 2503 4663 
Q 3138 4663 3647 4359 
Q 4156 4056 4423 3514 
Q 4691 2972 4691 2284 
Q 4691 1588 4409 1038 
Q 4128 488 3612 205 
Q 3097 -78 2500 -78 
Q 1853 -78 1343 234 
Q 834 547 571 1087 
Q 309 1628 309 2231 
z
M 934 2222 
Q 934 1394 1379 917 
Q 1825 441 2497 441 
Q 3181 441 3623 922 
Q 4066 1403 4066 2288 
Q 4066 2847 3877 3264 
Q 3688 3681 3323 3911 
Q 2959 4141 2506 4141 
Q 1863 4141 1398 3698 
Q 934 3256 934 2222 
z
" transform="scale(0.015625)"/>
       <path id="ArialMT-62" d="M 941 0 
L 419 0 
L 419 4581 
L 981 4581 
L 981 2947 
Q 1338 3394 1891 3394 
Q 2197 3394 2470 3270 
Q 2744 3147 2920 2923 
Q 3097 2700 3197 2384 
Q 3297 2069 3297 1709 
Q 3297 856 2875 390 
Q 2453 -75 1863 -75 
Q 1275 -75 941 416 
L 941 0 
z
M 934 1684 
Q 934 1088 1097 822 
Q 1363 388 1816 388 
Q 2184 388 2453 708 
Q 2722 1028 2722 1663 
Q 2722 2313 2464 2622 
Q 2206 2931 1841 2931 
Q 1472 2931 1203 2611 
Q 934 2291 934 1684 
z
" transform="scale(0.015625)"/>
       <path id="ArialMT-65" d="M 2694 1069 
L 3275 997 
Q 3138 488 2766 206 
Q 2394 -75 1816 -75 
Q 1088 -75 661 373 
Q 234 822 234 1631 
Q 234 2469 665 2931 
Q 1097 3394 1784 3394 
Q 2450 3394 2872 2941 
Q 3294 2488 3294 1666 
Q 3294 1616 3291 1516 
L 816 1516 
Q 847 969 1125 678 
Q 1403 388 1819 388 
Q 2128 388 2347 550 
Q 2566 713 2694 1069 
z
M 847 1978 
L 2700 1978 
Q 2663 2397 2488 2606 
Q 2219 2931 1791 2931 
Q 1403 2931 1139 2672 
Q 875 2413 847 1978 
z
" transform="scale(0.015625)"/>
       <path id="ArialMT-72" d="M 416 0 
L 416 3319 
L 922 3319 
L 922 2816 
Q 1116 3169 1280 3281 
Q 1444 3394 1641 3394 
Q 1925 3394 2219 3213 
L 2025 2691 
Q 1819 2813 1613 2813 
Q 1428 2813 1281 2702 
Q 1134 2591 1072 2394 
Q 978 2094 978 1738 
L 978 0 
L 416 0 
z
" transform="scale(0.015625)"/>
       <path id="ArialMT-76" d="M 1344 0 
L 81 3319 
L 675 3319 
L 1388 1331 
Q 1503 1009 1600 663 
Q 1675 925 1809 1294 
L 2547 3319 
L 3125 3319 
L 1869 0 
L 1344 0 
z
" transform="scale(0.015625)"/>
       <path id="ArialMT-61" d="M 2588 409 
Q 2275 144 1986 34 
Q 1697 -75 1366 -75 
Q 819 -75 525 192 
Q 231 459 231 875 
Q 231 1119 342 1320 
Q 453 1522 633 1644 
Q 813 1766 1038 1828 
Q 1203 1872 1538 1913 
Q 2219 1994 2541 2106 
Q 2544 2222 2544 2253 
Q 2544 2597 2384 2738 
Q 2169 2928 1744 2928 
Q 1347 2928 1158 2789 
Q 969 2650 878 2297 
L 328 2372 
Q 403 2725 575 2942 
Q 747 3159 1072 3276 
Q 1397 3394 1825 3394 
Q 2250 3394 2515 3294 
Q 2781 3194 2906 3042 
Q 3031 2891 3081 2659 
Q 3109 2516 3109 2141 
L 3109 1391 
Q 3109 606 3145 398 
Q 3181 191 3288 0 
L 2700 0 
Q 2613 175 2588 409 
z
M 2541 1666 
Q 2234 1541 1622 1453 
Q 1275 1403 1131 1340 
Q 988 1278 909 1158 
Q 831 1038 831 891 
Q 831 666 1001 516 
Q 1172 366 1500 366 
Q 1825 366 2078 508 
Q 2331 650 2450 897 
Q 2541 1088 2541 1459 
L 2541 1666 
z
" transform="scale(0.015625)"/>
       <path id="ArialMT-74" d="M 1650 503 
L 1731 6 
Q 1494 -44 1306 -44 
Q 1000 -44 831 53 
Q 663 150 594 308 
Q 525 466 525 972 
L 525 2881 
L 113 2881 
L 113 3319 
L 525 3319 
L 525 4141 
L 1084 4478 
L 1084 3319 
L 1650 3319 
L 1650 2881 
L 1084 2881 
L 1084 941 
Q 1084 700 1114 631 
Q 1144 563 1211 522 
Q 1278 481 1403 481 
Q 1497 481 1650 503 
z
" transform="scale(0.015625)"/>
       <path id="ArialMT-6f" d="M 213 1659 
Q 213 2581 725 3025 
Q 1153 3394 1769 3394 
Q 2453 3394 2887 2945 
Q 3322 2497 3322 1706 
Q 3322 1066 3130 698 
Q 2938 331 2570 128 
Q 2203 -75 1769 -75 
Q 1072 -75 642 372 
Q 213 819 213 1659 
z
M 791 1659 
Q 791 1022 1069 705 
Q 1347 388 1769 388 
Q 2188 388 2466 706 
Q 2744 1025 2744 1678 
Q 2744 2294 2464 2611 
Q 2184 2928 1769 2928 
Q 1347 2928 1069 2612 
Q 791 2297 791 1659 
z
" transform="scale(0.015625)"/>
       <path id="ArialMT-6e" d="M 422 0 
L 422 3319 
L 928 3319 
L 928 2847 
Q 1294 3394 1984 3394 
Q 2284 3394 2536 3286 
Q 2788 3178 2913 3003 
Q 3038 2828 3088 2588 
Q 3119 2431 3119 2041 
L 3119 0 
L 2556 0 
L 2556 2019 
Q 2556 2363 2490 2533 
Q 2425 2703 2258 2804 
Q 2091 2906 1866 2906 
Q 1506 2906 1245 2678 
Q 984 2450 984 1813 
L 984 0 
L 422 0 
z
" transform="scale(0.015625)"/>
      </defs>
      <use xlink:href="#ArialMT-4f"/>
      <use xlink:href="#ArialMT-62" x="77.783203"/>
      <use xlink:href="#ArialMT-73" x="133.398438"/>
      <use xlink:href="#ArialMT-65" x="183.398438"/>
      <use xlink:href="#ArialMT-72" x="239.013672"/>
      <use xlink:href="#ArialMT-76" x="272.314453"/>
      <use xlink:href="#ArialMT-61" x="322.314453"/>
      <use xlink:href="#ArialMT-74" x="377.929688"/>
      <use xlink:href="#ArialMT-69" x="405.712891"/>
      <use xlink:href="#ArialMT-6f" x="427.929688"/>
      <use xlink:href="#ArialMT-6e" x="483.544922"/>
      <use xlink:href="#ArialMT-73" x="539.160156"/>
     </g>
    </g>
    <g id="line2d_17">
     <path d="M 46.232875 43.822875 
L 55.032875 43.822875 
L 63.832875 43.822875 
" style="fill: none; stroke: #1f77b4; stroke-width: 2; stroke-linecap: round"/>
    </g>
    <g id="text_17">
     <!-- $m_n(x)$ -->
     <g style="fill: #262626" transform="translate(70.872875 46.902875) scale(0.088 -0.088)">
      <defs>
       <path id="DejaVuSans-Oblique-6d" d="M 5747 2113 
L 5338 0 
L 4763 0 
L 5166 2094 
Q 5191 2228 5203 2325 
Q 5216 2422 5216 2491 
Q 5216 2772 5059 2928 
Q 4903 3084 4622 3084 
Q 4203 3084 3875 2770 
Q 3547 2456 3450 1953 
L 3066 0 
L 2491 0 
L 2900 2094 
Q 2925 2209 2937 2307 
Q 2950 2406 2950 2484 
Q 2950 2769 2794 2926 
Q 2638 3084 2363 3084 
Q 1938 3084 1609 2770 
Q 1281 2456 1184 1953 
L 800 0 
L 225 0 
L 909 3500 
L 1484 3500 
L 1375 2956 
Q 1609 3263 1923 3423 
Q 2238 3584 2597 3584 
Q 2978 3584 3223 3384 
Q 3469 3184 3519 2828 
Q 3781 3197 4126 3390 
Q 4472 3584 4856 3584 
Q 5306 3584 5551 3325 
Q 5797 3066 5797 2591 
Q 5797 2488 5784 2364 
Q 5772 2241 5747 2113 
z
" transform="scale(0.015625)"/>
       <path id="DejaVuSans-Oblique-6e" d="M 3566 2113 
L 3156 0 
L 2578 0 
L 2988 2091 
Q 3016 2238 3031 2350 
Q 3047 2463 3047 2528 
Q 3047 2791 2881 2937 
Q 2716 3084 2419 3084 
Q 1956 3084 1622 2776 
Q 1288 2469 1184 1941 
L 800 0 
L 225 0 
L 903 3500 
L 1478 3500 
L 1363 2950 
Q 1603 3253 1940 3418 
Q 2278 3584 2650 3584 
Q 3113 3584 3367 3334 
Q 3622 3084 3622 2631 
Q 3622 2519 3608 2391 
Q 3594 2263 3566 2113 
z
" transform="scale(0.015625)"/>
       <path id="DejaVuSans-28" d="M 1984 4856 
Q 1566 4138 1362 3434 
Q 1159 2731 1159 2009 
Q 1159 1288 1364 580 
Q 1569 -128 1984 -844 
L 1484 -844 
Q 1016 -109 783 600 
Q 550 1309 550 2009 
Q 550 2706 781 3412 
Q 1013 4119 1484 4856 
L 1984 4856 
z
" transform="scale(0.015625)"/>
       <path id="DejaVuSans-29" d="M 513 4856 
L 1013 4856 
Q 1481 4119 1714 3412 
Q 1947 2706 1947 2009 
Q 1947 1309 1714 600 
Q 1481 -109 1013 -844 
L 513 -844 
Q 928 -128 1133 580 
Q 1338 1288 1338 2009 
Q 1338 2731 1133 3434 
Q 928 4138 513 4856 
z
" transform="scale(0.015625)"/>
      </defs>
      <use xlink:href="#DejaVuSans-Oblique-6d" transform="translate(0 0.125)"/>
      <use xlink:href="#DejaVuSans-Oblique-6e" transform="translate(97.412109 -16.28125) scale(0.7)"/>
      <use xlink:href="#DejaVuSans-28" transform="translate(144.511719 0.125)"/>
      <use xlink:href="#DejaVuSans-Oblique-78" transform="translate(183.525391 0.125)"/>
      <use xlink:href="#DejaVuSans-29" transform="translate(242.705078 0.125)"/>
     </g>
    </g>
    <g id="patch_5">
     <path d="M 46.232875 61.059875 
L 63.832875 61.059875 
L 63.832875 54.899875 
L 46.232875 54.899875 
z
" style="fill: #1f77b4; fill-opacity: 0.5; stroke: #1f77b4; stroke-opacity: 0.5; stroke-width: 0.8; stroke-linejoin: miter"/>
    </g>
    <g id="text_18">
     <!-- $f(\mathbf{x}^*)$ 95% pred. -->
     <g style="fill: #262626" transform="translate(70.872875 61.059875) scale(0.088 -0.088)">
      <defs>
       <path id="DejaVuSans-Oblique-66" d="M 3059 4863 
L 2969 4384 
L 2419 4384 
Q 2106 4384 1964 4261 
Q 1822 4138 1753 3809 
L 1691 3500 
L 2638 3500 
L 2553 3053 
L 1606 3053 
L 1013 0 
L 434 0 
L 1031 3053 
L 481 3053 
L 563 3500 
L 1113 3500 
L 1159 3744 
Q 1278 4363 1576 4613 
Q 1875 4863 2516 4863 
L 3059 4863 
z
" transform="scale(0.015625)"/>
       <path id="DejaVuSans-Bold-78" d="M 1422 1791 
L 159 3500 
L 1344 3500 
L 2059 2463 
L 2784 3500 
L 3969 3500 
L 2706 1797 
L 4031 0 
L 2847 0 
L 2059 1106 
L 1281 0 
L 97 0 
L 1422 1791 
z
" transform="scale(0.015625)"/>
       <path id="DejaVuSans-2a" d="M 3009 3897 
L 1888 3291 
L 3009 2681 
L 2828 2375 
L 1778 3009 
L 1778 1831 
L 1422 1831 
L 1422 3009 
L 372 2375 
L 191 2681 
L 1313 3291 
L 191 3897 
L 372 4206 
L 1422 3572 
L 1422 4750 
L 1778 4750 
L 1778 3572 
L 2828 4206 
L 3009 3897 
z
" transform="scale(0.015625)"/>
       <path id="ArialMT-35" d="M 266 1200 
L 856 1250 
Q 922 819 1161 601 
Q 1400 384 1738 384 
Q 2144 384 2425 690 
Q 2706 997 2706 1503 
Q 2706 1984 2436 2262 
Q 2166 2541 1728 2541 
Q 1456 2541 1237 2417 
Q 1019 2294 894 2097 
L 366 2166 
L 809 4519 
L 3088 4519 
L 3088 3981 
L 1259 3981 
L 1013 2750 
Q 1425 3038 1878 3038 
Q 2478 3038 2890 2622 
Q 3303 2206 3303 1553 
Q 3303 931 2941 478 
Q 2500 -78 1738 -78 
Q 1113 -78 717 272 
Q 322 622 266 1200 
z
" transform="scale(0.015625)"/>
       <path id="ArialMT-25" d="M 372 3481 
Q 372 3972 619 4315 
Q 866 4659 1334 4659 
Q 1766 4659 2048 4351 
Q 2331 4044 2331 3447 
Q 2331 2866 2045 2552 
Q 1759 2238 1341 2238 
Q 925 2238 648 2547 
Q 372 2856 372 3481 
z
M 1350 4272 
Q 1141 4272 1002 4090 
Q 863 3909 863 3425 
Q 863 2984 1003 2804 
Q 1144 2625 1350 2625 
Q 1563 2625 1702 2806 
Q 1841 2988 1841 3469 
Q 1841 3913 1700 4092 
Q 1559 4272 1350 4272 
z
M 1353 -169 
L 3859 4659 
L 4316 4659 
L 1819 -169 
L 1353 -169 
z
M 3334 1075 
Q 3334 1569 3581 1911 
Q 3828 2253 4300 2253 
Q 4731 2253 5014 1945 
Q 5297 1638 5297 1041 
Q 5297 459 5011 145 
Q 4725 -169 4303 -169 
Q 3888 -169 3611 142 
Q 3334 453 3334 1075 
z
M 4316 1866 
Q 4103 1866 3964 1684 
Q 3825 1503 3825 1019 
Q 3825 581 3965 400 
Q 4106 219 4313 219 
Q 4528 219 4667 400 
Q 4806 581 4806 1063 
Q 4806 1506 4665 1686 
Q 4525 1866 4316 1866 
z
" transform="scale(0.015625)"/>
       <path id="ArialMT-64" d="M 2575 0 
L 2575 419 
Q 2259 -75 1647 -75 
Q 1250 -75 917 144 
Q 584 363 401 755 
Q 219 1147 219 1656 
Q 219 2153 384 2558 
Q 550 2963 881 3178 
Q 1213 3394 1622 3394 
Q 1922 3394 2156 3267 
Q 2391 3141 2538 2938 
L 2538 4581 
L 3097 4581 
L 3097 0 
L 2575 0 
z
M 797 1656 
Q 797 1019 1065 703 
Q 1334 388 1700 388 
Q 2069 388 2326 689 
Q 2584 991 2584 1609 
Q 2584 2291 2321 2609 
Q 2059 2928 1675 2928 
Q 1300 2928 1048 2622 
Q 797 2316 797 1656 
z
" transform="scale(0.015625)"/>
      </defs>
      <use xlink:href="#DejaVuSans-Oblique-66" transform="translate(0 0.765625)"/>
      <use xlink:href="#DejaVuSans-28" transform="translate(35.205078 0.765625)"/>
      <use xlink:href="#DejaVuSans-Bold-78" transform="translate(74.21875 0.765625)"/>
      <use xlink:href="#DejaVuSans-2a" transform="translate(153.31543 39.046875) scale(0.7)"/>
      <use xlink:href="#DejaVuSans-29" transform="translate(204.6875 0.765625)"/>
      <use xlink:href="#ArialMT-20" transform="translate(243.701172 0.765625)"/>
      <use xlink:href="#ArialMT-39" transform="translate(271.484375 0.765625)"/>
      <use xlink:href="#ArialMT-35" transform="translate(327.099609 0.765625)"/>
      <use xlink:href="#ArialMT-25" transform="translate(382.714844 0.765625)"/>
      <use xlink:href="#ArialMT-20" transform="translate(471.630859 0.765625)"/>
      <use xlink:href="#ArialMT-70" transform="translate(499.414062 0.765625)"/>
      <use xlink:href="#ArialMT-72" transform="translate(555.029297 0.765625)"/>
      <use xlink:href="#ArialMT-65" transform="translate(588.330078 0.765625)"/>
      <use xlink:href="#ArialMT-64" transform="translate(643.945312 0.765625)"/>
      <use xlink:href="#ArialMT-2e" transform="translate(699.560547 0.765625)"/>
     </g>
    </g>
    <g id="patch_6">
     <path d="M 46.232875 75.227875 
L 63.832875 75.227875 
L 63.832875 69.067875 
L 46.232875 69.067875 
z
" style="fill: #ff7f0e; fill-opacity: 0.5; stroke: #ff7f0e; stroke-opacity: 0.5; stroke-width: 0.8; stroke-linejoin: miter"/>
    </g>
    <g id="text_19">
     <!-- $y^*$ 95% pred. -->
     <g style="fill: #262626" transform="translate(70.872875 75.227875) scale(0.088 -0.088)">
      <use xlink:href="#DejaVuSans-Oblique-79" transform="translate(0 0.765625)"/>
      <use xlink:href="#DejaVuSans-2a" transform="translate(77.283529 39.046875) scale(0.7)"/>
      <use xlink:href="#ArialMT-20" transform="translate(128.655599 0.765625)"/>
      <use xlink:href="#ArialMT-39" transform="translate(156.438802 0.765625)"/>
      <use xlink:href="#ArialMT-35" transform="translate(212.054036 0.765625)"/>
      <use xlink:href="#ArialMT-25" transform="translate(267.669271 0.765625)"/>
      <use xlink:href="#ArialMT-20" transform="translate(356.585286 0.765625)"/>
      <use xlink:href="#ArialMT-70" transform="translate(384.36849 0.765625)"/>
      <use xlink:href="#ArialMT-72" transform="translate(439.983724 0.765625)"/>
      <use xlink:href="#ArialMT-65" transform="translate(473.284505 0.765625)"/>
      <use xlink:href="#ArialMT-64" transform="translate(528.89974 0.765625)"/>
      <use xlink:href="#ArialMT-2e" transform="translate(584.514974 0.765625)"/>
     </g>
    </g>
    <g id="line2d_18">
     <path d="M 46.232875 84.69475 
L 55.032875 84.69475 
L 63.832875 84.69475 
" style="fill: none; stroke-dasharray: 7.68,1.92,1.2,1.92; stroke-dashoffset: 0; stroke: #bf00bf; stroke-width: 1.2"/>
    </g>
    <g id="text_20">
     <!-- True function -->
     <g style="fill: #262626" transform="translate(70.872875 87.77475) scale(0.088 -0.088)">
      <defs>
       <path id="ArialMT-54" d="M 1659 0 
L 1659 4041 
L 150 4041 
L 150 4581 
L 3781 4581 
L 3781 4041 
L 2266 4041 
L 2266 0 
L 1659 0 
z
" transform="scale(0.015625)"/>
       <path id="ArialMT-75" d="M 2597 0 
L 2597 488 
Q 2209 -75 1544 -75 
Q 1250 -75 995 37 
Q 741 150 617 320 
Q 494 491 444 738 
Q 409 903 409 1263 
L 409 3319 
L 972 3319 
L 972 1478 
Q 972 1038 1006 884 
Q 1059 663 1231 536 
Q 1403 409 1656 409 
Q 1909 409 2131 539 
Q 2353 669 2445 892 
Q 2538 1116 2538 1541 
L 2538 3319 
L 3100 3319 
L 3100 0 
L 2597 0 
z
" transform="scale(0.015625)"/>
       <path id="ArialMT-66" d="M 556 0 
L 556 2881 
L 59 2881 
L 59 3319 
L 556 3319 
L 556 3672 
Q 556 4006 616 4169 
Q 697 4388 901 4523 
Q 1106 4659 1475 4659 
Q 1713 4659 2000 4603 
L 1916 4113 
Q 1741 4144 1584 4144 
Q 1328 4144 1222 4034 
Q 1116 3925 1116 3625 
L 1116 3319 
L 1763 3319 
L 1763 2881 
L 1116 2881 
L 1116 0 
L 556 0 
z
" transform="scale(0.015625)"/>
       <path id="ArialMT-63" d="M 2588 1216 
L 3141 1144 
Q 3050 572 2676 248 
Q 2303 -75 1759 -75 
Q 1078 -75 664 370 
Q 250 816 250 1647 
Q 250 2184 428 2587 
Q 606 2991 970 3192 
Q 1334 3394 1763 3394 
Q 2303 3394 2647 3120 
Q 2991 2847 3088 2344 
L 2541 2259 
Q 2463 2594 2264 2762 
Q 2066 2931 1784 2931 
Q 1359 2931 1093 2626 
Q 828 2322 828 1663 
Q 828 994 1084 691 
Q 1341 388 1753 388 
Q 2084 388 2306 591 
Q 2528 794 2588 1216 
z
" transform="scale(0.015625)"/>
      </defs>
      <use xlink:href="#ArialMT-54"/>
      <use xlink:href="#ArialMT-72" x="57.333984"/>
      <use xlink:href="#ArialMT-75" x="90.634766"/>
      <use xlink:href="#ArialMT-65" x="146.25"/>
      <use xlink:href="#ArialMT-20" x="201.865234"/>
      <use xlink:href="#ArialMT-66" x="229.648438"/>
      <use xlink:href="#ArialMT-75" x="257.431641"/>
      <use xlink:href="#ArialMT-6e" x="313.046875"/>
      <use xlink:href="#ArialMT-63" x="368.662109"/>
      <use xlink:href="#ArialMT-74" x="418.662109"/>
      <use xlink:href="#ArialMT-69" x="446.445312"/>
      <use xlink:href="#ArialMT-6f" x="468.662109"/>
      <use xlink:href="#ArialMT-6e" x="524.277344"/>
     </g>
    </g>
   </g>
  </g>
  <g id="axes_2">
   <g id="matplotlib.axis_3">
    <g id="ytick_7">
     <g id="line2d_19">
      <defs>
       <path id="m4f73271c33" d="M 0 0 
L 4.8 0 
" style="stroke: #262626"/>
      </defs>
      <g>
       <use xlink:href="#m4f73271c33" x="395.432875" y="274.116" style="fill: #262626; stroke: #262626"/>
      </g>
     </g>
     <g id="text_21">
      <!-- 0 -->
      <g style="fill: #ff7f0e" transform="translate(403.732875 277.265437) scale(0.088 -0.088)">
       <use xlink:href="#ArialMT-30"/>
      </g>
     </g>
    </g>
    <g id="ytick_8">
     <g id="line2d_20">
      <g>
       <use xlink:href="#m4f73271c33" x="395.432875" y="244.212113" style="fill: #262626; stroke: #262626"/>
      </g>
     </g>
     <g id="text_22">
      <!-- 1 -->
      <g style="fill: #ff7f0e" transform="translate(403.732875 247.36155) scale(0.088 -0.088)">
       <use xlink:href="#ArialMT-31"/>
      </g>
     </g>
    </g>
    <g id="ytick_9">
     <g id="line2d_21">
      <g>
       <use xlink:href="#m4f73271c33" x="395.432875" y="214.308225" style="fill: #262626; stroke: #262626"/>
      </g>
     </g>
     <g id="text_23">
      <!-- 2 -->
      <g style="fill: #ff7f0e" transform="translate(403.732875 217.457663) scale(0.088 -0.088)">
       <use xlink:href="#ArialMT-32"/>
      </g>
     </g>
    </g>
    <g id="ytick_10">
     <g id="line2d_22">
      <g>
       <use xlink:href="#m4f73271c33" x="395.432875" y="184.404338" style="fill: #262626; stroke: #262626"/>
      </g>
     </g>
     <g id="text_24">
      <!-- 3 -->
      <g style="fill: #ff7f0e" transform="translate(403.732875 187.553776) scale(0.088 -0.088)">
       <defs>
        <path id="ArialMT-33" d="M 269 1209 
L 831 1284 
Q 928 806 1161 595 
Q 1394 384 1728 384 
Q 2125 384 2398 659 
Q 2672 934 2672 1341 
Q 2672 1728 2419 1979 
Q 2166 2231 1775 2231 
Q 1616 2231 1378 2169 
L 1441 2663 
Q 1497 2656 1531 2656 
Q 1891 2656 2178 2843 
Q 2466 3031 2466 3422 
Q 2466 3731 2256 3934 
Q 2047 4138 1716 4138 
Q 1388 4138 1169 3931 
Q 950 3725 888 3313 
L 325 3413 
Q 428 3978 793 4289 
Q 1159 4600 1703 4600 
Q 2078 4600 2393 4439 
Q 2709 4278 2876 4000 
Q 3044 3722 3044 3409 
Q 3044 3113 2884 2869 
Q 2725 2625 2413 2481 
Q 2819 2388 3044 2092 
Q 3269 1797 3269 1353 
Q 3269 753 2831 336 
Q 2394 -81 1725 -81 
Q 1122 -81 723 278 
Q 325 638 269 1209 
z
" transform="scale(0.015625)"/>
       </defs>
       <use xlink:href="#ArialMT-33"/>
      </g>
     </g>
    </g>
    <g id="ytick_11">
     <g id="line2d_23">
      <g>
       <use xlink:href="#m4f73271c33" x="395.432875" y="154.500451" style="fill: #262626; stroke: #262626"/>
      </g>
     </g>
     <g id="text_25">
      <!-- 4 -->
      <g style="fill: #ff7f0e" transform="translate(403.732875 157.649888) scale(0.088 -0.088)">
       <use xlink:href="#ArialMT-34"/>
      </g>
     </g>
    </g>
    <g id="ytick_12">
     <g id="line2d_24">
      <g>
       <use xlink:href="#m4f73271c33" x="395.432875" y="124.596564" style="fill: #262626; stroke: #262626"/>
      </g>
     </g>
     <g id="text_26">
      <!-- 5 -->
      <g style="fill: #ff7f0e" transform="translate(403.732875 127.746001) scale(0.088 -0.088)">
       <use xlink:href="#ArialMT-35"/>
      </g>
     </g>
    </g>
    <g id="ytick_13">
     <g id="line2d_25">
      <g>
       <use xlink:href="#m4f73271c33" x="395.432875" y="94.692676" style="fill: #262626; stroke: #262626"/>
      </g>
     </g>
     <g id="text_27">
      <!-- 6 -->
      <g style="fill: #ff7f0e" transform="translate(403.732875 97.842114) scale(0.088 -0.088)">
       <use xlink:href="#ArialMT-36"/>
      </g>
     </g>
    </g>
    <g id="ytick_14">
     <g id="line2d_26">
      <g>
       <use xlink:href="#m4f73271c33" x="395.432875" y="64.788789" style="fill: #262626; stroke: #262626"/>
      </g>
     </g>
     <g id="text_28">
      <!-- 7 -->
      <g style="fill: #ff7f0e" transform="translate(403.732875 67.938227) scale(0.088 -0.088)">
       <defs>
        <path id="ArialMT-37" d="M 303 3981 
L 303 4522 
L 3269 4522 
L 3269 4084 
Q 2831 3619 2401 2847 
Q 1972 2075 1738 1259 
Q 1569 684 1522 0 
L 944 0 
Q 953 541 1156 1306 
Q 1359 2072 1739 2783 
Q 2119 3494 2547 3981 
L 303 3981 
z
" transform="scale(0.015625)"/>
       </defs>
       <use xlink:href="#ArialMT-37"/>
      </g>
     </g>
    </g>
    <g id="ytick_15">
     <g id="line2d_27">
      <g>
       <use xlink:href="#m4f73271c33" x="395.432875" y="34.884902" style="fill: #262626; stroke: #262626"/>
      </g>
     </g>
     <g id="text_29">
      <!-- 8 -->
      <g style="fill: #ff7f0e" transform="translate(403.732875 38.034339) scale(0.088 -0.088)">
       <use xlink:href="#ArialMT-38"/>
      </g>
     </g>
    </g>
    <g id="text_30">
     <!-- Maximum Upper Interval -->
     <g style="fill: #ff7f0e" transform="translate(419.498 205.43475) rotate(-90) scale(0.096 -0.096)">
      <defs>
       <path id="ArialMT-4d" d="M 475 0 
L 475 4581 
L 1388 4581 
L 2472 1338 
Q 2622 884 2691 659 
Q 2769 909 2934 1394 
L 4031 4581 
L 4847 4581 
L 4847 0 
L 4263 0 
L 4263 3834 
L 2931 0 
L 2384 0 
L 1059 3900 
L 1059 0 
L 475 0 
z
" transform="scale(0.015625)"/>
       <path id="ArialMT-78" d="M 47 0 
L 1259 1725 
L 138 3319 
L 841 3319 
L 1350 2541 
Q 1494 2319 1581 2169 
Q 1719 2375 1834 2534 
L 2394 3319 
L 3066 3319 
L 1919 1756 
L 3153 0 
L 2463 0 
L 1781 1031 
L 1600 1309 
L 728 0 
L 47 0 
z
" transform="scale(0.015625)"/>
       <path id="ArialMT-6d" d="M 422 0 
L 422 3319 
L 925 3319 
L 925 2853 
Q 1081 3097 1340 3245 
Q 1600 3394 1931 3394 
Q 2300 3394 2536 3241 
Q 2772 3088 2869 2813 
Q 3263 3394 3894 3394 
Q 4388 3394 4653 3120 
Q 4919 2847 4919 2278 
L 4919 0 
L 4359 0 
L 4359 2091 
Q 4359 2428 4304 2576 
Q 4250 2725 4106 2815 
Q 3963 2906 3769 2906 
Q 3419 2906 3187 2673 
Q 2956 2441 2956 1928 
L 2956 0 
L 2394 0 
L 2394 2156 
Q 2394 2531 2256 2718 
Q 2119 2906 1806 2906 
Q 1569 2906 1367 2781 
Q 1166 2656 1075 2415 
Q 984 2175 984 1722 
L 984 0 
L 422 0 
z
" transform="scale(0.015625)"/>
       <path id="ArialMT-55" d="M 3500 4581 
L 4106 4581 
L 4106 1934 
Q 4106 1244 3950 837 
Q 3794 431 3386 176 
Q 2978 -78 2316 -78 
Q 1672 -78 1262 144 
Q 853 366 678 786 
Q 503 1206 503 1934 
L 503 4581 
L 1109 4581 
L 1109 1938 
Q 1109 1341 1220 1058 
Q 1331 775 1601 622 
Q 1872 469 2263 469 
Q 2931 469 3215 772 
Q 3500 1075 3500 1938 
L 3500 4581 
z
" transform="scale(0.015625)"/>
       <path id="ArialMT-49" d="M 597 0 
L 597 4581 
L 1203 4581 
L 1203 0 
L 597 0 
z
" transform="scale(0.015625)"/>
       <path id="ArialMT-6c" d="M 409 0 
L 409 4581 
L 972 4581 
L 972 0 
L 409 0 
z
" transform="scale(0.015625)"/>
      </defs>
      <use xlink:href="#ArialMT-4d"/>
      <use xlink:href="#ArialMT-61" x="83.300781"/>
      <use xlink:href="#ArialMT-78" x="138.916016"/>
      <use xlink:href="#ArialMT-69" x="188.916016"/>
      <use xlink:href="#ArialMT-6d" x="211.132812"/>
      <use xlink:href="#ArialMT-75" x="294.433594"/>
      <use xlink:href="#ArialMT-6d" x="350.048828"/>
      <use xlink:href="#ArialMT-20" x="433.349609"/>
      <use xlink:href="#ArialMT-55" x="461.132812"/>
      <use xlink:href="#ArialMT-70" x="533.349609"/>
      <use xlink:href="#ArialMT-70" x="588.964844"/>
      <use xlink:href="#ArialMT-65" x="644.580078"/>
      <use xlink:href="#ArialMT-72" x="700.195312"/>
      <use xlink:href="#ArialMT-20" x="733.496094"/>
      <use xlink:href="#ArialMT-49" x="761.279297"/>
      <use xlink:href="#ArialMT-6e" x="789.0625"/>
      <use xlink:href="#ArialMT-74" x="844.677734"/>
      <use xlink:href="#ArialMT-65" x="872.460938"/>
      <use xlink:href="#ArialMT-72" x="928.076172"/>
      <use xlink:href="#ArialMT-76" x="961.376953"/>
      <use xlink:href="#ArialMT-61" x="1011.376953"/>
      <use xlink:href="#ArialMT-6c" x="1066.992188"/>
     </g>
    </g>
   </g>
   <g id="line2d_28">
    <path d="M 54.545602 163.726543 
L 57.824941 166.319202 
L 61.10428 169.327355 
L 64.383619 172.767978 
L 67.662958 176.651223 
L 70.942296 180.979351 
L 74.221636 185.745773 
L 77.500973 190.934378 
L 80.780313 196.518848 
L 84.059653 202.462617 
L 87.33899 208.718286 
L 90.61833 215.228327 
L 93.89767 221.925086 
L 97.177007 228.731624 
L 100.456344 235.563422 
L 103.735686 242.328272 
L 107.015024 248.92779 
L 110.294361 255.256078 
L 113.573703 261.094624 
L 116.853041 259.849017 
L 120.132378 257.196521 
L 123.41172 255.162434 
L 126.691057 253.773266 
L 129.970395 253.028951 
L 133.249737 252.911132 
L 136.529069 253.386371 
L 139.808412 254.404796 
L 143.087754 255.901639 
L 146.367086 257.797914 
L 149.646428 260.001501 
L 152.92577 262.40425 
L 156.205103 264.828709 
L 159.484445 261.151948 
L 162.763787 253.685657 
L 166.04312 245.283252 
L 169.322462 236.035917 
L 172.601804 226.027265 
L 175.881137 215.348141 
L 179.160479 204.096496 
L 182.439821 192.376925 
L 185.719153 180.299646 
L 188.998496 167.979182 
L 192.277838 155.533572 
L 195.55717 143.083184 
L 198.836512 130.749616 
L 202.115855 118.65482 
L 205.395187 106.920098 
L 208.674529 95.664803 
L 211.953871 85.005603 
L 215.233204 75.055118 
L 218.512556 65.92072 
L 221.791879 57.703607 
L 225.071221 50.497164 
L 228.350563 44.385792 
L 231.629886 39.443838 
L 234.909247 35.733871 
L 238.18857 33.305914 
L 241.467912 32.196 
L 244.747254 32.425232 
L 248.026597 33.999229 
L 251.305939 36.906811 
L 254.585262 41.119788 
L 257.864623 46.58858 
L 261.143946 52.710063 
L 264.423288 46.624984 
L 267.70263 41.209379 
L 270.981953 37.066173 
L 274.261315 34.244489 
L 277.540637 32.772104 
L 280.81998 32.659797 
L 284.099322 33.901895 
L 287.378664 36.477536 
L 290.658006 40.351441 
L 293.937329 45.47513 
L 297.21669 51.788528 
L 300.496013 59.220724 
L 303.775355 67.692322 
L 307.054697 77.116169 
L 310.33402 87.399395 
L 313.613382 98.44485 
L 316.892705 110.152079 
L 320.172047 122.419256 
L 323.451389 135.144085 
L 326.730731 148.224598 
L 330.010073 161.560793 
L 333.289396 175.055017 
L 336.568738 188.613002 
L 339.84808 202.144614 
L 343.127423 215.563381 
L 346.406765 228.788515 
L 349.686088 241.744601 
L 352.96543 254.357248 
L 356.244772 266.206459 
L 359.524114 263.674274 
L 362.803456 259.736203 
L 366.082798 255.3176 
L 369.362141 250.51274 
L 372.641463 245.410966 
L 375.920806 240.098655 
L 379.200148 234.656695 
" clip-path="url(#pb094666c4f)" style="fill: none; stroke: #ff7f0e; stroke-width: 1.2; stroke-linecap: round"/>
   </g>
   <g id="line2d_29">
    <path d="M 241.467912 274.116 
L 241.467912 271.672364 
L 241.467912 269.228727 
L 241.467912 266.785091 
L 241.467912 264.341455 
L 241.467912 261.897818 
L 241.467912 259.454182 
L 241.467912 257.010546 
L 241.467912 254.566909 
L 241.467912 252.123273 
L 241.467912 249.679636 
L 241.467912 247.236001 
L 241.467912 244.792364 
L 241.467912 242.348727 
L 241.467912 239.905092 
L 241.467912 237.461454 
L 241.467912 235.017819 
L 241.467912 232.574184 
L 241.467912 230.130545 
L 241.467912 227.68691 
L 241.467912 225.243272 
L 241.467912 222.799637 
L 241.467912 220.356002 
L 241.467912 217.912363 
L 241.467912 215.468728 
L 241.467912 213.025089 
L 241.467912 210.581454 
L 241.467912 208.137819 
L 241.467912 205.694184 
L 241.467912 203.250549 
L 241.467912 200.806907 
L 241.467912 198.363272 
L 241.467912 195.919637 
L 241.467912 193.476002 
L 241.467912 191.032367 
L 241.467912 188.588725 
L 241.467912 186.14509 
L 241.467912 183.701455 
L 241.467912 181.25782 
L 241.467912 178.814185 
L 241.467912 176.370543 
L 241.467912 173.926908 
L 241.467912 171.483273 
L 241.467912 169.039638 
L 241.467912 166.596003 
L 241.467912 164.152368 
L 241.467912 161.708726 
L 241.467912 159.265091 
L 241.467912 156.821456 
L 241.467912 154.377821 
L 241.467912 151.934179 
L 241.467912 149.490537 
L 241.467912 147.046909 
L 241.467912 144.603281 
L 241.467912 142.159639 
L 241.467912 139.715997 
L 241.467912 137.272355 
L 241.467912 134.828727 
L 241.467912 132.385099 
L 241.467912 129.941457 
L 241.467912 127.497815 
L 241.467912 125.054173 
L 241.467912 122.610545 
L 241.467912 120.166917 
L 241.467912 117.723275 
L 241.467912 115.279633 
L 241.467912 112.83599 
L 241.467912 110.392363 
L 241.467912 107.948735 
L 241.467912 105.505093 
L 241.467912 103.061451 
L 241.467912 100.617808 
L 241.467912 98.174181 
L 241.467912 95.730553 
L 241.467912 93.286911 
L 241.467912 90.843268 
L 241.467912 88.399641 
L 241.467912 85.955998 
L 241.467912 83.512371 
L 241.467912 81.068728 
L 241.467912 78.625086 
L 241.467912 76.181458 
L 241.467912 73.737816 
L 241.467912 71.294188 
L 241.467912 68.850546 
L 241.467912 66.406904 
L 241.467912 63.963276 
L 241.467912 61.519634 
L 241.467912 59.076006 
L 241.467912 56.632364 
L 241.467912 54.188722 
L 241.467912 51.745094 
L 241.467912 49.301452 
L 241.467912 46.857824 
L 241.467912 44.414182 
L 241.467912 41.97054 
L 241.467912 39.526912 
L 241.467912 37.08327 
L 241.467912 34.639642 
L 241.467912 32.196 
" clip-path="url(#pb094666c4f)" style="fill: none; stroke: #ff7f0e; stroke-linecap: round"/>
   </g>
   <g id="patch_7">
    <path d="M 38.312875 286.212 
L 38.312875 20.1 
" style="fill: none; stroke: #262626; stroke-linejoin: miter; stroke-linecap: square"/>
   </g>
   <g id="patch_8">
    <path d="M 395.432875 286.212 
L 395.432875 20.1 
" style="fill: none; stroke: #262626; stroke-linejoin: miter; stroke-linecap: square"/>
   </g>
   <g id="patch_9">
    <path d="M 38.312875 286.212 
L 395.432875 286.212 
" style="fill: none; stroke: #262626; stroke-linejoin: miter; stroke-linecap: square"/>
   </g>
   <g id="patch_10">
    <path d="M 38.312875 20.1 
L 395.432875 20.1 
" style="fill: none; stroke: #262626; stroke-linejoin: miter; stroke-linecap: square"/>
   </g>
  </g>
 </g>
 <defs>
  <clipPath id="pb094666c4f">
   <rect x="38.312875" y="20.1" width="357.12" height="266.112"/>
  </clipPath>
 </defs>
</svg>