<?xml version="1.0" encoding="UTF-8" standalone="no"?>
<!DOCTYPE svg PUBLIC "-//W3C//DTD SVG 1.1//EN"
 "http://www.w3.org/Graphics/SVG/1.1/DTD/svg11.dtd">
<!-- Generated by graphviz version 8.1.0 (20230707.0739)
 -->
<!-- Title: Urn2 Pages: 1 -->
<svg width="239pt" height="188pt"
 viewBox="0.00 0.00 238.73 188.00" xmlns="http://www.w3.org/2000/svg" xmlns:xlink="http://www.w3.org/1999/xlink">
<g id="graph0" class="graph" transform="scale(1 1) rotate(0) translate(4 184)">
<title>Urn2</title>
<polygon fill="white" stroke="none" points="-4,4 -4,-184 234.73,-184 234.73,4 -4,4"/>
<!-- reds -->
<g id="node1" class="node">
<title>reds</title>
<ellipse fill="lightgrey" stroke="black" cx="49.82" cy="-162" rx="49.82" ry="18"/>
<text text-anchor="middle" x="49.82" y="-156.95" font-family="Times,serif" font-size="14.00"># red balls</text>
</g>
<!-- first -->
<g id="node3" class="node">
<title>first</title>
<ellipse fill="none" stroke="black" cx="110.82" cy="-90" rx="42.65" ry="18"/>
<text text-anchor="middle" x="110.82" y="-84.95" font-family="Times,serif" font-size="14.00">1st draw</text>
</g>
<!-- reds&#45;&gt;first -->
<g id="edge1" class="edge">
<title>reds&#45;&gt;first</title>
<path fill="none" stroke="black" d="M64.27,-144.41C71.9,-135.66 81.4,-124.75 89.83,-115.08"/>
<polygon fill="black" stroke="black" points="92.95,-117.83 96.88,-107.99 87.67,-113.23 92.95,-117.83"/>
</g>
<!-- second -->
<g id="node4" class="node">
<title>second</title>
<ellipse fill="none" stroke="black" cx="110.82" cy="-18" rx="45.72" ry="18"/>
<text text-anchor="middle" x="110.82" y="-12.95" font-family="Times,serif" font-size="14.00">2nd draw</text>
</g>
<!-- reds&#45;&gt;second -->
<g id="edge4" class="edge">
<title>reds&#45;&gt;second</title>
<path fill="none" stroke="black" d="M48.28,-143.71C47.35,-125.1 48.01,-95.06 58.82,-72 64.18,-60.56 73.05,-50.11 81.97,-41.57"/>
<polygon fill="black" stroke="black" points="83.97,-44.58 89.07,-35.29 79.29,-39.38 83.97,-44.58"/>
</g>
<!-- blues -->
<g id="node2" class="node">
<title>blues</title>
<ellipse fill="lightgrey" stroke="black" cx="176.82" cy="-162" rx="53.91" ry="18"/>
<text text-anchor="middle" x="176.82" y="-156.95" font-family="Times,serif" font-size="14.00"># blue balls</text>
</g>
<!-- blues&#45;&gt;first -->
<g id="edge2" class="edge">
<title>blues&#45;&gt;first</title>
<path fill="none" stroke="black" d="M161.17,-144.41C152.84,-135.57 142.43,-124.53 133.25,-114.79"/>
<polygon fill="black" stroke="black" points="136.3,-112.86 126.89,-107.99 131.2,-117.67 136.3,-112.86"/>
</g>
<!-- blues&#45;&gt;second -->
<g id="edge5" class="edge">
<title>blues&#45;&gt;second</title>
<path fill="none" stroke="black" d="M177.16,-143.66C176.84,-125 174.34,-94.92 162.82,-72 157.14,-60.71 148.19,-50.3 139.3,-41.75"/>
<polygon fill="black" stroke="black" points="142.01,-39.57 132.26,-35.44 137.31,-44.76 142.01,-39.57"/>
</g>
<!-- first&#45;&gt;second -->
<g id="edge3" class="edge">
<title>first&#45;&gt;second</title>
<path fill="none" stroke="black" d="M110.82,-71.7C110.82,-64.24 110.82,-55.32 110.82,-46.97"/>
<polygon fill="black" stroke="black" points="114.32,-47.1 110.82,-37.1 107.32,-47.1 114.32,-47.1"/>
</g>
</g>
</svg>