<?xml version="1.0" encoding="utf-8" standalone="no"?>
<!DOCTYPE svg PUBLIC "-//W3C//DTD SVG 1.1//EN"
  "http://www.w3.org/Graphics/SVG/1.1/DTD/svg11.dtd">
<svg xmlns:xlink="http://www.w3.org/1999/xlink" width="402.632875pt" height="309.639375pt" viewBox="0 0 402.632875 309.639375" xmlns="http://www.w3.org/2000/svg" version="1.1">
 <metadata>
  <rdf:RDF xmlns:dc="http://purl.org/dc/elements/1.1/" xmlns:cc="http://creativecommons.org/ns#" xmlns:rdf="http://www.w3.org/1999/02/22-rdf-syntax-ns#">
   <cc:Work>
    <dc:type rdf:resource="http://purl.org/dc/dcmitype/StillImage"/>
    <dc:date>2023-11-05T19:31:18.648431</dc:date>
    <dc:format>image/svg+xml</dc:format>
    <dc:creator>
     <cc:Agent>
      <dc:title>Matplotlib v3.8.0, https://matplotlib.org/</dc:title>
     </cc:Agent>
    </dc:creator>
   </cc:Work>
  </rdf:RDF>
 </metadata>
 <defs>
  <style type="text/css">*{stroke-linejoin: round; stroke-linecap: butt}</style>
 </defs>
 <g id="figure_1">
  <g id="patch_1">
   <path d="M 0 309.639375 
L 402.632875 309.639375 
L 402.632875 0 
L 0 0 
z
" style="fill: #ffffff"/>
  </g>
  <g id="axes_1">
   <g id="patch_2">
    <path d="M 38.312875 273.312 
L 395.432875 273.312 
L 395.432875 7.2 
L 38.312875 7.2 
z
" style="fill: #ffffff"/>
   </g>
   <g id="matplotlib.axis_1">
    <g id="xtick_1">
     <g id="line2d_1">
      <defs>
       <path id="m2506c6432c" d="M 0 0 
L 0 4.8 
" style="stroke: #262626"/>
      </defs>
      <g>
       <use xlink:href="#m2506c6432c" x="70.304079" y="273.312" style="fill: #262626; stroke: #262626"/>
      </g>
     </g>
     <g id="text_1">
      <!-- −1.5 -->
      <g style="fill: #262626" transform="translate(61.618204 287.910875) scale(0.088 -0.088)">
       <defs>
        <path id="ArialMT-2212" d="M 3381 1997 
L 356 1997 
L 356 2522 
L 3381 2522 
L 3381 1997 
z
" transform="scale(0.015625)"/>
        <path id="ArialMT-31" d="M 2384 0 
L 1822 0 
L 1822 3584 
Q 1619 3391 1289 3197 
Q 959 3003 697 2906 
L 697 3450 
Q 1169 3672 1522 3987 
Q 1875 4303 2022 4600 
L 2384 4600 
L 2384 0 
z
" transform="scale(0.015625)"/>
        <path id="ArialMT-2e" d="M 581 0 
L 581 641 
L 1222 641 
L 1222 0 
L 581 0 
z
" transform="scale(0.015625)"/>
        <path id="ArialMT-35" d="M 266 1200 
L 856 1250 
Q 922 819 1161 601 
Q 1400 384 1738 384 
Q 2144 384 2425 690 
Q 2706 997 2706 1503 
Q 2706 1984 2436 2262 
Q 2166 2541 1728 2541 
Q 1456 2541 1237 2417 
Q 1019 2294 894 2097 
L 366 2166 
L 809 4519 
L 3088 4519 
L 3088 3981 
L 1259 3981 
L 1013 2750 
Q 1425 3038 1878 3038 
Q 2478 3038 2890 2622 
Q 3303 2206 3303 1553 
Q 3303 931 2941 478 
Q 2500 -78 1738 -78 
Q 1113 -78 717 272 
Q 322 622 266 1200 
z
" transform="scale(0.015625)"/>
       </defs>
       <use xlink:href="#ArialMT-2212"/>
       <use xlink:href="#ArialMT-31" x="58.398438"/>
       <use xlink:href="#ArialMT-2e" x="114.013672"/>
       <use xlink:href="#ArialMT-35" x="141.796875"/>
      </g>
     </g>
    </g>
    <g id="xtick_2">
     <g id="line2d_2">
      <g>
       <use xlink:href="#m2506c6432c" x="111.122399" y="273.312" style="fill: #262626; stroke: #262626"/>
      </g>
     </g>
     <g id="text_2">
      <!-- −1.0 -->
      <g style="fill: #262626" transform="translate(102.436524 287.910875) scale(0.088 -0.088)">
       <defs>
        <path id="ArialMT-30" d="M 266 2259 
Q 266 3072 433 3567 
Q 600 4063 929 4331 
Q 1259 4600 1759 4600 
Q 2128 4600 2406 4451 
Q 2684 4303 2865 4023 
Q 3047 3744 3150 3342 
Q 3253 2941 3253 2259 
Q 3253 1453 3087 958 
Q 2922 463 2592 192 
Q 2263 -78 1759 -78 
Q 1097 -78 719 397 
Q 266 969 266 2259 
z
M 844 2259 
Q 844 1131 1108 757 
Q 1372 384 1759 384 
Q 2147 384 2411 759 
Q 2675 1134 2675 2259 
Q 2675 3391 2411 3762 
Q 2147 4134 1753 4134 
Q 1366 4134 1134 3806 
Q 844 3388 844 2259 
z
" transform="scale(0.015625)"/>
       </defs>
       <use xlink:href="#ArialMT-2212"/>
       <use xlink:href="#ArialMT-31" x="58.398438"/>
       <use xlink:href="#ArialMT-2e" x="114.013672"/>
       <use xlink:href="#ArialMT-30" x="141.796875"/>
      </g>
     </g>
    </g>
    <g id="xtick_3">
     <g id="line2d_3">
      <g>
       <use xlink:href="#m2506c6432c" x="151.940719" y="273.312" style="fill: #262626; stroke: #262626"/>
      </g>
     </g>
     <g id="text_3">
      <!-- −0.5 -->
      <g style="fill: #262626" transform="translate(143.254844 287.910875) scale(0.088 -0.088)">
       <use xlink:href="#ArialMT-2212"/>
       <use xlink:href="#ArialMT-30" x="58.398438"/>
       <use xlink:href="#ArialMT-2e" x="114.013672"/>
       <use xlink:href="#ArialMT-35" x="141.796875"/>
      </g>
     </g>
    </g>
    <g id="xtick_4">
     <g id="line2d_4">
      <g>
       <use xlink:href="#m2506c6432c" x="192.75904" y="273.312" style="fill: #262626; stroke: #262626"/>
      </g>
     </g>
     <g id="text_4">
      <!-- 0.0 -->
      <g style="fill: #262626" transform="translate(186.64304 287.910875) scale(0.088 -0.088)">
       <use xlink:href="#ArialMT-30"/>
       <use xlink:href="#ArialMT-2e" x="55.615234"/>
       <use xlink:href="#ArialMT-30" x="83.398438"/>
      </g>
     </g>
    </g>
    <g id="xtick_5">
     <g id="line2d_5">
      <g>
       <use xlink:href="#m2506c6432c" x="233.57736" y="273.312" style="fill: #262626; stroke: #262626"/>
      </g>
     </g>
     <g id="text_5">
      <!-- 0.5 -->
      <g style="fill: #262626" transform="translate(227.46136 287.910875) scale(0.088 -0.088)">
       <use xlink:href="#ArialMT-30"/>
       <use xlink:href="#ArialMT-2e" x="55.615234"/>
       <use xlink:href="#ArialMT-35" x="83.398438"/>
      </g>
     </g>
    </g>
    <g id="xtick_6">
     <g id="line2d_6">
      <g>
       <use xlink:href="#m2506c6432c" x="274.39568" y="273.312" style="fill: #262626; stroke: #262626"/>
      </g>
     </g>
     <g id="text_6">
      <!-- 1.0 -->
      <g style="fill: #262626" transform="translate(268.27968 287.910875) scale(0.088 -0.088)">
       <use xlink:href="#ArialMT-31"/>
       <use xlink:href="#ArialMT-2e" x="55.615234"/>
       <use xlink:href="#ArialMT-30" x="83.398438"/>
      </g>
     </g>
    </g>
    <g id="xtick_7">
     <g id="line2d_7">
      <g>
       <use xlink:href="#m2506c6432c" x="315.214" y="273.312" style="fill: #262626; stroke: #262626"/>
      </g>
     </g>
     <g id="text_7">
      <!-- 1.5 -->
      <g style="fill: #262626" transform="translate(309.098 287.910875) scale(0.088 -0.088)">
       <use xlink:href="#ArialMT-31"/>
       <use xlink:href="#ArialMT-2e" x="55.615234"/>
       <use xlink:href="#ArialMT-35" x="83.398438"/>
      </g>
     </g>
    </g>
    <g id="xtick_8">
     <g id="line2d_8">
      <g>
       <use xlink:href="#m2506c6432c" x="356.032321" y="273.312" style="fill: #262626; stroke: #262626"/>
      </g>
     </g>
     <g id="text_8">
      <!-- 2.0 -->
      <g style="fill: #262626" transform="translate(349.916321 287.910875) scale(0.088 -0.088)">
       <defs>
        <path id="ArialMT-32" d="M 3222 541 
L 3222 0 
L 194 0 
Q 188 203 259 391 
Q 375 700 629 1000 
Q 884 1300 1366 1694 
Q 2113 2306 2375 2664 
Q 2638 3022 2638 3341 
Q 2638 3675 2398 3904 
Q 2159 4134 1775 4134 
Q 1369 4134 1125 3890 
Q 881 3647 878 3216 
L 300 3275 
Q 359 3922 746 4261 
Q 1134 4600 1788 4600 
Q 2447 4600 2831 4234 
Q 3216 3869 3216 3328 
Q 3216 3053 3103 2787 
Q 2991 2522 2730 2228 
Q 2469 1934 1863 1422 
Q 1356 997 1212 845 
Q 1069 694 975 541 
L 3222 541 
z
" transform="scale(0.015625)"/>
       </defs>
       <use xlink:href="#ArialMT-32"/>
       <use xlink:href="#ArialMT-2e" x="55.615234"/>
       <use xlink:href="#ArialMT-30" x="83.398438"/>
      </g>
     </g>
    </g>
    <g id="text_9">
     <!-- $x$ -->
     <g style="fill: #262626" transform="translate(213.992875 300.531375) scale(0.096 -0.096)">
      <defs>
       <path id="DejaVuSans-Oblique-78" d="M 3841 3500 
L 2234 1784 
L 3219 0 
L 2559 0 
L 1819 1388 
L 531 0 
L -166 0 
L 1556 1844 
L 641 3500 
L 1300 3500 
L 1972 2234 
L 3144 3500 
L 3841 3500 
z
" transform="scale(0.015625)"/>
      </defs>
      <use xlink:href="#DejaVuSans-Oblique-78" transform="translate(0 0.3125)"/>
     </g>
    </g>
   </g>
   <g id="matplotlib.axis_2">
    <g id="ytick_1">
     <g id="line2d_9">
      <defs>
       <path id="mb452cfe9a1" d="M 0 0 
L -4.8 0 
" style="stroke: #262626"/>
      </defs>
      <g>
       <use xlink:href="#mb452cfe9a1" x="38.312875" y="247.806733" style="fill: #262626; stroke: #262626"/>
      </g>
     </g>
     <g id="text_10">
      <!-- −2 -->
      <g style="fill: #262626" transform="translate(19.9795 250.956171) scale(0.088 -0.088)">
       <use xlink:href="#ArialMT-2212"/>
       <use xlink:href="#ArialMT-32" x="58.398438"/>
      </g>
     </g>
    </g>
    <g id="ytick_2">
     <g id="line2d_10">
      <g>
       <use xlink:href="#mb452cfe9a1" x="38.312875" y="189.56571" style="fill: #262626; stroke: #262626"/>
      </g>
     </g>
     <g id="text_11">
      <!-- −1 -->
      <g style="fill: #262626" transform="translate(19.9795 192.715148) scale(0.088 -0.088)">
       <use xlink:href="#ArialMT-2212"/>
       <use xlink:href="#ArialMT-31" x="58.398438"/>
      </g>
     </g>
    </g>
    <g id="ytick_3">
     <g id="line2d_11">
      <g>
       <use xlink:href="#mb452cfe9a1" x="38.312875" y="131.324687" style="fill: #262626; stroke: #262626"/>
      </g>
     </g>
     <g id="text_12">
      <!-- 0 -->
      <g style="fill: #262626" transform="translate(25.11925 134.474125) scale(0.088 -0.088)">
       <use xlink:href="#ArialMT-30"/>
      </g>
     </g>
    </g>
    <g id="ytick_4">
     <g id="line2d_12">
      <g>
       <use xlink:href="#mb452cfe9a1" x="38.312875" y="73.083664" style="fill: #262626; stroke: #262626"/>
      </g>
     </g>
     <g id="text_13">
      <!-- 1 -->
      <g style="fill: #262626" transform="translate(25.11925 76.233102) scale(0.088 -0.088)">
       <use xlink:href="#ArialMT-31"/>
      </g>
     </g>
    </g>
    <g id="ytick_5">
     <g id="line2d_13">
      <g>
       <use xlink:href="#mb452cfe9a1" x="38.312875" y="14.842641" style="fill: #262626; stroke: #262626"/>
      </g>
     </g>
     <g id="text_14">
      <!-- 2 -->
      <g style="fill: #262626" transform="translate(25.11925 17.992079) scale(0.088 -0.088)">
       <use xlink:href="#ArialMT-32"/>
      </g>
     </g>
    </g>
    <g id="text_15">
     <!-- $y$ -->
     <g style="fill: #262626" transform="translate(13.9635 143.136) rotate(-90) scale(0.096 -0.096)">
      <defs>
       <path id="DejaVuSans-Oblique-79" d="M 1588 -325 
Q 1188 -997 936 -1164 
Q 684 -1331 294 -1331 
L -159 -1331 
L -63 -850 
L 269 -850 
Q 509 -850 678 -719 
Q 847 -588 1056 -206 
L 1234 128 
L 459 3500 
L 1069 3500 
L 1650 819 
L 3256 3500 
L 3859 3500 
L 1588 -325 
z
" transform="scale(0.015625)"/>
      </defs>
      <use xlink:href="#DejaVuSans-Oblique-79" transform="translate(0 0.3125)"/>
     </g>
    </g>
   </g>
   <g id="line2d_14">
    <defs>
     <path id="m6ada187dff" d="M -2.4 2.4 
L 2.4 -2.4 
M -2.4 -2.4 
L 2.4 2.4 
" style="stroke: #1f77b4"/>
    </defs>
    <g clip-path="url(#p93047679e1)">
     <use xlink:href="#m6ada187dff" x="54.545602" y="106.109397" style="fill: #1f77b4; stroke: #1f77b4"/>
     <use xlink:href="#m6ada187dff" x="55.72189" y="107.614163" style="fill: #1f77b4; stroke: #1f77b4"/>
     <use xlink:href="#m6ada187dff" x="59.250745" y="109.23468" style="fill: #1f77b4; stroke: #1f77b4"/>
     <use xlink:href="#m6ada187dff" x="61.603312" y="106.109397" style="fill: #1f77b4; stroke: #1f77b4"/>
     <use xlink:href="#m6ada187dff" x="63.955879" y="109.23468" style="fill: #1f77b4; stroke: #1f77b4"/>
     <use xlink:href="#m6ada187dff" x="76.89501" y="109.23468" style="fill: #1f77b4; stroke: #1f77b4"/>
     <use xlink:href="#m6ada187dff" x="79.247577" y="109.23468" style="fill: #1f77b4; stroke: #1f77b4"/>
     <use xlink:href="#m6ada187dff" x="80.423865" y="107.614163" style="fill: #1f77b4; stroke: #1f77b4"/>
     <use xlink:href="#m6ada187dff" x="86.305287" y="109.23468" style="fill: #1f77b4; stroke: #1f77b4"/>
     <use xlink:href="#m6ada187dff" x="88.657854" y="109.23468" style="fill: #1f77b4; stroke: #1f77b4"/>
     <use xlink:href="#m6ada187dff" x="92.186708" y="107.614163" style="fill: #1f77b4; stroke: #1f77b4"/>
     <use xlink:href="#m6ada187dff" x="96.891852" y="109.23468" style="fill: #1f77b4; stroke: #1f77b4"/>
     <use xlink:href="#m6ada187dff" x="99.244418" y="109.23468" style="fill: #1f77b4; stroke: #1f77b4"/>
     <use xlink:href="#m6ada187dff" x="100.420706" y="112.359961" style="fill: #1f77b4; stroke: #1f77b4"/>
     <use xlink:href="#m6ada187dff" x="102.773273" y="109.23468" style="fill: #1f77b4; stroke: #1f77b4"/>
     <use xlink:href="#m6ada187dff" x="105.12584" y="112.359961" style="fill: #1f77b4; stroke: #1f77b4"/>
     <use xlink:href="#m6ada187dff" x="107.478407" y="106.109397" style="fill: #1f77b4; stroke: #1f77b4"/>
     <use xlink:href="#m6ada187dff" x="118.064971" y="109.23468" style="fill: #1f77b4; stroke: #1f77b4"/>
     <use xlink:href="#m6ada187dff" x="120.417543" y="109.23468" style="fill: #1f77b4; stroke: #1f77b4"/>
     <use xlink:href="#m6ada187dff" x="121.593826" y="106.109397" style="fill: #1f77b4; stroke: #1f77b4"/>
     <use xlink:href="#m6ada187dff" x="126.298965" y="121.504306" style="fill: #1f77b4; stroke: #1f77b4"/>
     <use xlink:href="#m6ada187dff" x="127.475248" y="109.23468" style="fill: #1f77b4; stroke: #1f77b4"/>
     <use xlink:href="#m6ada187dff" x="131.004103" y="132.50067" style="fill: #1f77b4; stroke: #1f77b4"/>
     <use xlink:href="#m6ada187dff" x="132.180386" y="152.641379" style="fill: #1f77b4; stroke: #1f77b4"/>
     <use xlink:href="#m6ada187dff" x="133.35667" y="130.995905" style="fill: #1f77b4; stroke: #1f77b4"/>
     <use xlink:href="#m6ada187dff" x="134.532953" y="155.766662" style="fill: #1f77b4; stroke: #1f77b4"/>
     <use xlink:href="#m6ada187dff" x="135.709241" y="130.995905" style="fill: #1f77b4; stroke: #1f77b4"/>
     <use xlink:href="#m6ada187dff" x="136.885524" y="112.359961" style="fill: #1f77b4; stroke: #1f77b4"/>
     <use xlink:href="#m6ada187dff" x="138.061808" y="174.402605" style="fill: #1f77b4; stroke: #1f77b4"/>
     <use xlink:href="#m6ada187dff" x="139.238091" y="188.292749" style="fill: #1f77b4; stroke: #1f77b4"/>
     <use xlink:href="#m6ada187dff" x="143.943229" y="149.516096" style="fill: #1f77b4; stroke: #1f77b4"/>
     <use xlink:href="#m6ada187dff" x="145.119518" y="220.818836" style="fill: #1f77b4; stroke: #1f77b4"/>
     <use xlink:href="#m6ada187dff" x="149.824656" y="236.329494" style="fill: #1f77b4; stroke: #1f77b4"/>
     <use xlink:href="#m6ada187dff" x="153.353508" y="248.599123" style="fill: #1f77b4; stroke: #1f77b4"/>
     <use xlink:href="#m6ada187dff" x="154.529792" y="205.192426" style="fill: #1f77b4; stroke: #1f77b4"/>
     <use xlink:href="#m6ada187dff" x="155.706077" y="253.344923" style="fill: #1f77b4; stroke: #1f77b4"/>
     <use xlink:href="#m6ada187dff" x="159.23493" y="248.599123" style="fill: #1f77b4; stroke: #1f77b4"/>
     <use xlink:href="#m6ada187dff" x="160.411216" y="242.580057" style="fill: #1f77b4; stroke: #1f77b4"/>
     <use xlink:href="#m6ada187dff" x="165.116354" y="261.216" style="fill: #1f77b4; stroke: #1f77b4"/>
     <use xlink:href="#m6ada187dff" x="166.292637" y="224.059865" style="fill: #1f77b4; stroke: #1f77b4"/>
     <use xlink:href="#m6ada187dff" x="168.645207" y="231.583695" style="fill: #1f77b4; stroke: #1f77b4"/>
     <use xlink:href="#m6ada187dff" x="169.82149" y="248.599123" style="fill: #1f77b4; stroke: #1f77b4"/>
     <use xlink:href="#m6ada187dff" x="176.879198" y="248.599123" style="fill: #1f77b4; stroke: #1f77b4"/>
     <use xlink:href="#m6ada187dff" x="178.055483" y="254.849693" style="fill: #1f77b4; stroke: #1f77b4"/>
     <use xlink:href="#m6ada187dff" x="181.584337" y="236.329494" style="fill: #1f77b4; stroke: #1f77b4"/>
     <use xlink:href="#m6ada187dff" x="182.760621" y="216.188788" style="fill: #1f77b4; stroke: #1f77b4"/>
     <use xlink:href="#m6ada187dff" x="185.11319" y="168.036287" style="fill: #1f77b4; stroke: #1f77b4"/>
     <use xlink:href="#m6ada187dff" x="187.465759" y="180.653168" style="fill: #1f77b4; stroke: #1f77b4"/>
     <use xlink:href="#m6ada187dff" x="189.818328" y="189.797512" style="fill: #1f77b4; stroke: #1f77b4"/>
     <use xlink:href="#m6ada187dff" x="190.994613" y="137.130718" style="fill: #1f77b4; stroke: #1f77b4"/>
     <use xlink:href="#m6ada187dff" x="193.347182" y="112.359961" style="fill: #1f77b4; stroke: #1f77b4"/>
     <use xlink:href="#m6ada187dff" x="194.523466" y="230.078932" style="fill: #1f77b4; stroke: #1f77b4"/>
     <use xlink:href="#m6ada187dff" x="195.699751" y="182.042183" style="fill: #1f77b4; stroke: #1f77b4"/>
     <use xlink:href="#m6ada187dff" x="199.228605" y="124.629589" style="fill: #1f77b4; stroke: #1f77b4"/>
     <use xlink:href="#m6ada187dff" x="200.404889" y="158.891943" style="fill: #1f77b4; stroke: #1f77b4"/>
     <use xlink:href="#m6ada187dff" x="202.757458" y="101.47935" style="fill: #1f77b4; stroke: #1f77b4"/>
     <use xlink:href="#m6ada187dff" x="206.286311" y="92.219255" style="fill: #1f77b4; stroke: #1f77b4"/>
     <use xlink:href="#m6ada187dff" x="207.462596" y="130.995905" style="fill: #1f77b4; stroke: #1f77b4"/>
     <use xlink:href="#m6ada187dff" x="208.638881" y="51.822087" style="fill: #1f77b4; stroke: #1f77b4"/>
     <use xlink:href="#m6ada187dff" x="213.34402" y="126.250106" style="fill: #1f77b4; stroke: #1f77b4"/>
     <use xlink:href="#m6ada187dff" x="218.049156" y="64.207461" style="fill: #1f77b4; stroke: #1f77b4"/>
     <use xlink:href="#m6ada187dff" x="222.754294" y="19.296" style="fill: #1f77b4; stroke: #1f77b4"/>
     <use xlink:href="#m6ada187dff" x="223.93058" y="96.733551" style="fill: #1f77b4; stroke: #1f77b4"/>
     <use xlink:href="#m6ada187dff" x="228.635718" y="42.561991" style="fill: #1f77b4; stroke: #1f77b4"/>
     <use xlink:href="#m6ada187dff" x="233.340857" y="51.822087" style="fill: #1f77b4; stroke: #1f77b4"/>
     <use xlink:href="#m6ada187dff" x="236.869711" y="87.589207" style="fill: #1f77b4; stroke: #1f77b4"/>
     <use xlink:href="#m6ada187dff" x="239.222278" y="53.32685" style="fill: #1f77b4; stroke: #1f77b4"/>
     <use xlink:href="#m6ada187dff" x="242.751133" y="104.604632" style="fill: #1f77b4; stroke: #1f77b4"/>
     <use xlink:href="#m6ada187dff" x="245.1037" y="19.296" style="fill: #1f77b4; stroke: #1f77b4"/>
     <use xlink:href="#m6ada187dff" x="247.456271" y="124.629589" style="fill: #1f77b4; stroke: #1f77b4"/>
     <use xlink:href="#m6ada187dff" x="248.632555" y="25.546563" style="fill: #1f77b4; stroke: #1f77b4"/>
     <use xlink:href="#m6ada187dff" x="249.808838" y="65.827982" style="fill: #1f77b4; stroke: #1f77b4"/>
     <use xlink:href="#m6ada187dff" x="253.337693" y="149.516096" style="fill: #1f77b4; stroke: #1f77b4"/>
     <use xlink:href="#m6ada187dff" x="263.924253" y="51.822087" style="fill: #1f77b4; stroke: #1f77b4"/>
     <use xlink:href="#m6ada187dff" x="270.981963" y="99.858832" style="fill: #1f77b4; stroke: #1f77b4"/>
     <use xlink:href="#m6ada187dff" x="272.158246" y="107.614163" style="fill: #1f77b4; stroke: #1f77b4"/>
     <use xlink:href="#m6ada187dff" x="275.687096" y="130.995905" style="fill: #1f77b4; stroke: #1f77b4"/>
     <use xlink:href="#m6ada187dff" x="278.039673" y="121.504306" style="fill: #1f77b4; stroke: #1f77b4"/>
     <use xlink:href="#m6ada187dff" x="285.097373" y="70.45803" style="fill: #1f77b4; stroke: #1f77b4"/>
     <use xlink:href="#m6ada187dff" x="289.802516" y="72.078545" style="fill: #1f77b4; stroke: #1f77b4"/>
     <use xlink:href="#m6ada187dff" x="292.155082" y="106.109397" style="fill: #1f77b4; stroke: #1f77b4"/>
     <use xlink:href="#m6ada187dff" x="293.331371" y="89.09397" style="fill: #1f77b4; stroke: #1f77b4"/>
     <use xlink:href="#m6ada187dff" x="299.212792" y="107.614163" style="fill: #1f77b4; stroke: #1f77b4"/>
     <use xlink:href="#m6ada187dff" x="301.565359" y="106.109397" style="fill: #1f77b4; stroke: #1f77b4"/>
     <use xlink:href="#m6ada187dff" x="305.094214" y="93.724018" style="fill: #1f77b4; stroke: #1f77b4"/>
     <use xlink:href="#m6ada187dff" x="314.50449" y="93.724018" style="fill: #1f77b4; stroke: #1f77b4"/>
     <use xlink:href="#m6ada187dff" x="321.5622" y="137.130718" style="fill: #1f77b4; stroke: #1f77b4"/>
     <use xlink:href="#m6ada187dff" x="327.443622" y="121.504306" style="fill: #1f77b4; stroke: #1f77b4"/>
     <use xlink:href="#m6ada187dff" x="338.030177" y="106.109397" style="fill: #1f77b4; stroke: #1f77b4"/>
     <use xlink:href="#m6ada187dff" x="346.264175" y="93.724018" style="fill: #1f77b4; stroke: #1f77b4"/>
     <use xlink:href="#m6ada187dff" x="353.321875" y="123.124823" style="fill: #1f77b4; stroke: #1f77b4"/>
     <use xlink:href="#m6ada187dff" x="363.90844" y="109.23468" style="fill: #1f77b4; stroke: #1f77b4"/>
     <use xlink:href="#m6ada187dff" x="366.261016" y="109.23468" style="fill: #1f77b4; stroke: #1f77b4"/>
     <use xlink:href="#m6ada187dff" x="379.200148" y="93.724018" style="fill: #1f77b4; stroke: #1f77b4"/>
    </g>
   </g>
   <g id="patch_3">
    <path d="M 38.312875 247.806733 
L 38.312875 14.842641 
" style="fill: none; stroke: #262626; stroke-linejoin: miter; stroke-linecap: square"/>
   </g>
   <g id="patch_4">
    <path d="M 70.304079 273.312 
L 356.032321 273.312 
" style="fill: none; stroke: #262626; stroke-linejoin: miter; stroke-linecap: square"/>
   </g>
  </g>
 </g>
 <defs>
  <clipPath id="p93047679e1">
   <rect x="38.312875" y="7.2" width="357.12" height="266.112"/>
  </clipPath>
 </defs>
</svg>