<?xml version="1.0" encoding="utf-8" standalone="no"?>
<!DOCTYPE svg PUBLIC "-//W3C//DTD SVG 1.1//EN"
  "http://www.w3.org/Graphics/SVG/1.1/DTD/svg11.dtd">
<svg xmlns:xlink="http://www.w3.org/1999/xlink" width="440.955pt" height="322.510875pt" viewBox="0 0 440.955 322.510875" xmlns="http://www.w3.org/2000/svg" version="1.1">
 <metadata>
  <rdf:RDF xmlns:dc="http://purl.org/dc/elements/1.1/" xmlns:cc="http://creativecommons.org/ns#" xmlns:rdf="http://www.w3.org/1999/02/22-rdf-syntax-ns#">
   <cc:Work>
    <dc:type rdf:resource="http://purl.org/dc/dcmitype/StillImage"/>
    <dc:date>2023-10-23T15:19:21.362388</dc:date>
    <dc:format>image/svg+xml</dc:format>
    <dc:creator>
     <cc:Agent>
      <dc:title>Matplotlib v3.8.0, https://matplotlib.org/</dc:title>
     </cc:Agent>
    </dc:creator>
   </cc:Work>
  </rdf:RDF>
 </metadata>
 <defs>
  <style type="text/css">*{stroke-linejoin: round; stroke-linecap: butt}</style>
 </defs>
 <g id="figure_1">
  <g id="patch_1">
   <path d="M 0 322.510875 
L 440.955 322.510875 
L 440.955 0 
L 0 0 
z
" style="fill: #ffffff"/>
  </g>
  <g id="axes_1">
   <g id="patch_2">
    <path d="M 38.312875 286.1835 
L 395.432875 286.1835 
L 395.432875 20.0715 
L 38.312875 20.0715 
z
" style="fill: #ffffff"/>
   </g>
   <g id="matplotlib.axis_1">
    <g id="xtick_1">
     <g id="line2d_1">
      <defs>
       <path id="me31b674ffe" d="M 0 0 
L 0 4.8 
" style="stroke: #262626"/>
      </defs>
      <g>
       <use xlink:href="#me31b674ffe" x="54.545602" y="286.1835" style="fill: #262626; stroke: #262626"/>
      </g>
     </g>
     <g id="text_1">
      <!-- 0.0 -->
      <g style="fill: #262626" transform="translate(48.429602 300.782375) scale(0.088 -0.088)">
       <defs>
        <path id="ArialMT-30" d="M 266 2259 
Q 266 3072 433 3567 
Q 600 4063 929 4331 
Q 1259 4600 1759 4600 
Q 2128 4600 2406 4451 
Q 2684 4303 2865 4023 
Q 3047 3744 3150 3342 
Q 3253 2941 3253 2259 
Q 3253 1453 3087 958 
Q 2922 463 2592 192 
Q 2263 -78 1759 -78 
Q 1097 -78 719 397 
Q 266 969 266 2259 
z
M 844 2259 
Q 844 1131 1108 757 
Q 1372 384 1759 384 
Q 2147 384 2411 759 
Q 2675 1134 2675 2259 
Q 2675 3391 2411 3762 
Q 2147 4134 1753 4134 
Q 1366 4134 1134 3806 
Q 844 3388 844 2259 
z
" transform="scale(0.015625)"/>
        <path id="ArialMT-2e" d="M 581 0 
L 581 641 
L 1222 641 
L 1222 0 
L 581 0 
z
" transform="scale(0.015625)"/>
       </defs>
       <use xlink:href="#ArialMT-30"/>
       <use xlink:href="#ArialMT-2e" x="55.615234"/>
       <use xlink:href="#ArialMT-30" x="83.398438"/>
      </g>
     </g>
    </g>
    <g id="xtick_2">
     <g id="line2d_2">
      <g>
       <use xlink:href="#me31b674ffe" x="119.476511" y="286.1835" style="fill: #262626; stroke: #262626"/>
      </g>
     </g>
     <g id="text_2">
      <!-- 0.2 -->
      <g style="fill: #262626" transform="translate(113.360511 300.782375) scale(0.088 -0.088)">
       <defs>
        <path id="ArialMT-32" d="M 3222 541 
L 3222 0 
L 194 0 
Q 188 203 259 391 
Q 375 700 629 1000 
Q 884 1300 1366 1694 
Q 2113 2306 2375 2664 
Q 2638 3022 2638 3341 
Q 2638 3675 2398 3904 
Q 2159 4134 1775 4134 
Q 1369 4134 1125 3890 
Q 881 3647 878 3216 
L 300 3275 
Q 359 3922 746 4261 
Q 1134 4600 1788 4600 
Q 2447 4600 2831 4234 
Q 3216 3869 3216 3328 
Q 3216 3053 3103 2787 
Q 2991 2522 2730 2228 
Q 2469 1934 1863 1422 
Q 1356 997 1212 845 
Q 1069 694 975 541 
L 3222 541 
z
" transform="scale(0.015625)"/>
       </defs>
       <use xlink:href="#ArialMT-30"/>
       <use xlink:href="#ArialMT-2e" x="55.615234"/>
       <use xlink:href="#ArialMT-32" x="83.398438"/>
      </g>
     </g>
    </g>
    <g id="xtick_3">
     <g id="line2d_3">
      <g>
       <use xlink:href="#me31b674ffe" x="184.40742" y="286.1835" style="fill: #262626; stroke: #262626"/>
      </g>
     </g>
     <g id="text_3">
      <!-- 0.4 -->
      <g style="fill: #262626" transform="translate(178.29142 300.782375) scale(0.088 -0.088)">
       <defs>
        <path id="ArialMT-34" d="M 2069 0 
L 2069 1097 
L 81 1097 
L 81 1613 
L 2172 4581 
L 2631 4581 
L 2631 1613 
L 3250 1613 
L 3250 1097 
L 2631 1097 
L 2631 0 
L 2069 0 
z
M 2069 1613 
L 2069 3678 
L 634 1613 
L 2069 1613 
z
" transform="scale(0.015625)"/>
       </defs>
       <use xlink:href="#ArialMT-30"/>
       <use xlink:href="#ArialMT-2e" x="55.615234"/>
       <use xlink:href="#ArialMT-34" x="83.398438"/>
      </g>
     </g>
    </g>
    <g id="xtick_4">
     <g id="line2d_4">
      <g>
       <use xlink:href="#me31b674ffe" x="249.33833" y="286.1835" style="fill: #262626; stroke: #262626"/>
      </g>
     </g>
     <g id="text_4">
      <!-- 0.6 -->
      <g style="fill: #262626" transform="translate(243.22233 300.782375) scale(0.088 -0.088)">
       <defs>
        <path id="ArialMT-36" d="M 3184 3459 
L 2625 3416 
Q 2550 3747 2413 3897 
Q 2184 4138 1850 4138 
Q 1581 4138 1378 3988 
Q 1113 3794 959 3422 
Q 806 3050 800 2363 
Q 1003 2672 1297 2822 
Q 1591 2972 1913 2972 
Q 2475 2972 2870 2558 
Q 3266 2144 3266 1488 
Q 3266 1056 3080 686 
Q 2894 316 2569 119 
Q 2244 -78 1831 -78 
Q 1128 -78 684 439 
Q 241 956 241 2144 
Q 241 3472 731 4075 
Q 1159 4600 1884 4600 
Q 2425 4600 2770 4297 
Q 3116 3994 3184 3459 
z
M 888 1484 
Q 888 1194 1011 928 
Q 1134 663 1356 523 
Q 1578 384 1822 384 
Q 2178 384 2434 671 
Q 2691 959 2691 1453 
Q 2691 1928 2437 2201 
Q 2184 2475 1800 2475 
Q 1419 2475 1153 2201 
Q 888 1928 888 1484 
z
" transform="scale(0.015625)"/>
       </defs>
       <use xlink:href="#ArialMT-30"/>
       <use xlink:href="#ArialMT-2e" x="55.615234"/>
       <use xlink:href="#ArialMT-36" x="83.398438"/>
      </g>
     </g>
    </g>
    <g id="xtick_5">
     <g id="line2d_5">
      <g>
       <use xlink:href="#me31b674ffe" x="314.269239" y="286.1835" style="fill: #262626; stroke: #262626"/>
      </g>
     </g>
     <g id="text_5">
      <!-- 0.8 -->
      <g style="fill: #262626" transform="translate(308.153239 300.782375) scale(0.088 -0.088)">
       <defs>
        <path id="ArialMT-38" d="M 1131 2484 
Q 781 2613 612 2850 
Q 444 3088 444 3419 
Q 444 3919 803 4259 
Q 1163 4600 1759 4600 
Q 2359 4600 2725 4251 
Q 3091 3903 3091 3403 
Q 3091 3084 2923 2848 
Q 2756 2613 2416 2484 
Q 2838 2347 3058 2040 
Q 3278 1734 3278 1309 
Q 3278 722 2862 322 
Q 2447 -78 1769 -78 
Q 1091 -78 675 323 
Q 259 725 259 1325 
Q 259 1772 486 2073 
Q 713 2375 1131 2484 
z
M 1019 3438 
Q 1019 3113 1228 2906 
Q 1438 2700 1772 2700 
Q 2097 2700 2305 2904 
Q 2513 3109 2513 3406 
Q 2513 3716 2298 3927 
Q 2084 4138 1766 4138 
Q 1444 4138 1231 3931 
Q 1019 3725 1019 3438 
z
M 838 1322 
Q 838 1081 952 856 
Q 1066 631 1291 507 
Q 1516 384 1775 384 
Q 2178 384 2440 643 
Q 2703 903 2703 1303 
Q 2703 1709 2433 1975 
Q 2163 2241 1756 2241 
Q 1359 2241 1098 1978 
Q 838 1716 838 1322 
z
" transform="scale(0.015625)"/>
       </defs>
       <use xlink:href="#ArialMT-30"/>
       <use xlink:href="#ArialMT-2e" x="55.615234"/>
       <use xlink:href="#ArialMT-38" x="83.398438"/>
      </g>
     </g>
    </g>
    <g id="xtick_6">
     <g id="line2d_6">
      <g>
       <use xlink:href="#me31b674ffe" x="379.200148" y="286.1835" style="fill: #262626; stroke: #262626"/>
      </g>
     </g>
     <g id="text_6">
      <!-- 1.0 -->
      <g style="fill: #262626" transform="translate(373.084148 300.782375) scale(0.088 -0.088)">
       <defs>
        <path id="ArialMT-31" d="M 2384 0 
L 1822 0 
L 1822 3584 
Q 1619 3391 1289 3197 
Q 959 3003 697 2906 
L 697 3450 
Q 1169 3672 1522 3987 
Q 1875 4303 2022 4600 
L 2384 4600 
L 2384 0 
z
" transform="scale(0.015625)"/>
       </defs>
       <use xlink:href="#ArialMT-31"/>
       <use xlink:href="#ArialMT-2e" x="55.615234"/>
       <use xlink:href="#ArialMT-30" x="83.398438"/>
      </g>
     </g>
    </g>
    <g id="text_7">
     <!-- $x$ -->
     <g style="fill: #262626" transform="translate(213.992875 313.402875) scale(0.096 -0.096)">
      <defs>
       <path id="DejaVuSans-Oblique-78" d="M 3841 3500 
L 2234 1784 
L 3219 0 
L 2559 0 
L 1819 1388 
L 531 0 
L -166 0 
L 1556 1844 
L 641 3500 
L 1300 3500 
L 1972 2234 
L 3144 3500 
L 3841 3500 
z
" transform="scale(0.015625)"/>
      </defs>
      <use xlink:href="#DejaVuSans-Oblique-78" transform="translate(0 0.3125)"/>
     </g>
    </g>
   </g>
   <g id="matplotlib.axis_2">
    <g id="ytick_1">
     <g id="line2d_7">
      <defs>
       <path id="m7789e97da2" d="M 0 0 
L -4.8 0 
" style="stroke: #262626"/>
      </defs>
      <g>
       <use xlink:href="#m7789e97da2" x="38.312875" y="248.280495" style="fill: #262626; stroke: #262626"/>
      </g>
     </g>
     <g id="text_8">
      <!-- −8 -->
      <g style="fill: #262626" transform="translate(19.9795 251.429933) scale(0.088 -0.088)">
       <defs>
        <path id="ArialMT-2212" d="M 3381 1997 
L 356 1997 
L 356 2522 
L 3381 2522 
L 3381 1997 
z
" transform="scale(0.015625)"/>
       </defs>
       <use xlink:href="#ArialMT-2212"/>
       <use xlink:href="#ArialMT-38" x="58.398438"/>
      </g>
     </g>
    </g>
    <g id="ytick_2">
     <g id="line2d_8">
      <g>
       <use xlink:href="#m7789e97da2" x="38.312875" y="204.570413" style="fill: #262626; stroke: #262626"/>
      </g>
     </g>
     <g id="text_9">
      <!-- −6 -->
      <g style="fill: #262626" transform="translate(19.9795 207.71985) scale(0.088 -0.088)">
       <use xlink:href="#ArialMT-2212"/>
       <use xlink:href="#ArialMT-36" x="58.398438"/>
      </g>
     </g>
    </g>
    <g id="ytick_3">
     <g id="line2d_9">
      <g>
       <use xlink:href="#m7789e97da2" x="38.312875" y="160.860331" style="fill: #262626; stroke: #262626"/>
      </g>
     </g>
     <g id="text_10">
      <!-- −4 -->
      <g style="fill: #262626" transform="translate(19.9795 164.009768) scale(0.088 -0.088)">
       <use xlink:href="#ArialMT-2212"/>
       <use xlink:href="#ArialMT-34" x="58.398438"/>
      </g>
     </g>
    </g>
    <g id="ytick_4">
     <g id="line2d_10">
      <g>
       <use xlink:href="#m7789e97da2" x="38.312875" y="117.150248" style="fill: #262626; stroke: #262626"/>
      </g>
     </g>
     <g id="text_11">
      <!-- −2 -->
      <g style="fill: #262626" transform="translate(19.9795 120.299686) scale(0.088 -0.088)">
       <use xlink:href="#ArialMT-2212"/>
       <use xlink:href="#ArialMT-32" x="58.398438"/>
      </g>
     </g>
    </g>
    <g id="ytick_5">
     <g id="line2d_11">
      <g>
       <use xlink:href="#m7789e97da2" x="38.312875" y="73.440166" style="fill: #262626; stroke: #262626"/>
      </g>
     </g>
     <g id="text_12">
      <!-- 0 -->
      <g style="fill: #262626" transform="translate(25.11925 76.589604) scale(0.088 -0.088)">
       <use xlink:href="#ArialMT-30"/>
      </g>
     </g>
    </g>
    <g id="ytick_6">
     <g id="line2d_12">
      <g>
       <use xlink:href="#m7789e97da2" x="38.312875" y="29.730084" style="fill: #262626; stroke: #262626"/>
      </g>
     </g>
     <g id="text_13">
      <!-- 2 -->
      <g style="fill: #262626" transform="translate(25.11925 32.879521) scale(0.088 -0.088)">
       <use xlink:href="#ArialMT-32"/>
      </g>
     </g>
    </g>
    <g id="text_14">
     <!-- $y$ -->
     <g style="fill: #262626" transform="translate(13.9635 156.0075) rotate(-90) scale(0.096 -0.096)">
      <defs>
       <path id="DejaVuSans-Oblique-79" d="M 1588 -325 
Q 1188 -997 936 -1164 
Q 684 -1331 294 -1331 
L -159 -1331 
L -63 -850 
L 269 -850 
Q 509 -850 678 -719 
Q 847 -588 1056 -206 
L 1234 128 
L 459 3500 
L 1069 3500 
L 1650 819 
L 3256 3500 
L 3859 3500 
L 1588 -325 
z
" transform="scale(0.015625)"/>
      </defs>
      <use xlink:href="#DejaVuSans-Oblique-79" transform="translate(0 0.3125)"/>
     </g>
    </g>
   </g>
   <g id="PolyCollection_1">
    <defs>
     <path id="m34537de628" d="M 54.545602 -271.342521 
L 54.545602 -149.218178 
L 57.824941 -151.251852 
L 61.10428 -153.653002 
L 64.383619 -156.409967 
L 67.662958 -159.500641 
L 70.942296 -162.892049 
L 74.221636 -166.540044 
L 77.500973 -170.389598 
L 80.780313 -174.376312 
L 84.059653 -178.429065 
L 87.33899 -182.474721 
L 90.61833 -186.445527 
L 93.89767 -190.287421 
L 97.177007 -193.96766 
L 100.456344 -197.478636 
L 103.735686 -200.833683 
L 107.015024 -204.057657 
L 110.294361 -207.174247 
L 113.573703 -210.195014 
L 116.853041 -213.113904 
L 120.132378 -215.905159 
L 123.41172 -218.526347 
L 126.691057 -220.922067 
L 129.970395 -223.030822 
L 133.249737 -224.791195 
L 136.529069 -226.148378 
L 139.808412 -227.059262 
L 143.087754 -227.496109 
L 146.367086 -227.447497 
L 149.646428 -226.917262 
L 152.92577 -225.921468 
L 156.205103 -224.484475 
L 159.484445 -222.633695 
L 162.763787 -220.395393 
L 166.04312 -217.790077 
L 169.322462 -214.828129 
L 172.601804 -211.506945 
L 175.881137 -207.807982 
L 179.160479 -203.696804 
L 182.439821 -199.124638 
L 185.719153 -194.035586 
L 188.998496 -188.377447 
L 192.277838 -182.117115 
L 195.55717 -175.254238 
L 198.836512 -167.828601 
L 202.115855 -159.918702 
L 205.395187 -151.632292 
L 208.674529 -143.094698 
L 211.953871 -134.43828 
L 215.233204 -125.794972 
L 218.512556 -117.291507 
L 221.791879 -109.04697 
L 225.071221 -101.171034 
L 228.350563 -93.763348 
L 231.629886 -86.912732 
L 234.909247 -80.696387 
L 238.18857 -75.179333 
L 241.467912 -70.413247 
L 244.747254 -66.435605 
L 248.026597 -63.268219 
L 251.305939 -60.915736 
L 254.585262 -59.363901 
L 257.864623 -58.577594 
L 261.143946 -58.499288 
L 264.423288 -59.048449 
L 267.70263 -60.124051 
L 270.981953 -61.612671 
L 274.261315 -63.405113 
L 277.540637 -65.419758 
L 280.81998 -67.624946 
L 284.099322 -70.047355 
L 287.378664 -72.759268 
L 290.658006 -75.853799 
L 293.937329 -79.419289 
L 297.21669 -83.523945 
L 300.496013 -88.208016 
L 303.775355 -93.484161 
L 307.054697 -99.338929 
L 310.33402 -105.737021 
L 313.613382 -112.624434 
L 316.892705 -119.932732 
L 320.172047 -127.581515 
L 323.451389 -135.482066 
L 326.730731 -143.53902 
L 330.010073 -151.652801 
L 333.289396 -159.720124 
L 336.568738 -167.634885 
L 339.84808 -175.286841 
L 343.127423 -182.559259 
L 346.406765 -189.327411 
L 349.686088 -195.456165 
L 352.96543 -200.805702 
L 356.244772 -205.244997 
L 359.524114 -208.679471 
L 362.803456 -211.076671 
L 366.082798 -212.475589 
L 369.362141 -212.969452 
L 372.641463 -212.677223 
L 375.920806 -211.720803 
L 379.200148 -210.214087 
L 379.200148 -273.924183 
L 379.200148 -273.924183 
L 375.920806 -269.587215 
L 372.641463 -265.215617 
L 369.362141 -260.86495 
L 366.082798 -256.602691 
L 362.803456 -252.499548 
L 359.524114 -248.607929 
L 356.244772 -244.935445 
L 352.96543 -241.429685 
L 349.686088 -237.988333 
L 346.406765 -234.48721 
L 343.127423 -230.807886 
L 339.84808 -226.85302 
L 336.568738 -222.551612 
L 333.289396 -217.857487 
L 330.010073 -212.746605 
L 326.730731 -207.21438 
L 323.451389 -201.273207 
L 320.172047 -194.951336 
L 316.892705 -188.292097 
L 313.613382 -181.352983 
L 310.33402 -174.205496 
L 307.054697 -166.935996 
L 303.775355 -159.644549 
L 300.496013 -152.446758 
L 297.21669 -145.474276 
L 293.937329 -138.874803 
L 290.658006 -132.812995 
L 287.378664 -127.466475 
L 284.099322 -123.017613 
L 280.81998 -119.635434 
L 277.540637 -117.449734 
L 274.261315 -116.525021 
L 270.981953 -116.847883 
L 267.70263 -118.335888 
L 264.423288 -120.860197 
L 261.143946 -124.270503 
L 257.864623 -128.413062 
L 254.585262 -133.140516 
L 251.305939 -138.316492 
L 248.026597 -143.817092 
L 244.747254 -149.531703 
L 241.467912 -155.362918 
L 238.18857 -161.227138 
L 234.909247 -167.054747 
L 231.629886 -172.790628 
L 228.350563 -178.394216 
L 225.071221 -183.840026 
L 221.791879 -189.117323 
L 218.512556 -194.230271 
L 215.233204 -199.197316 
L 211.953871 -204.050201 
L 208.674529 -208.832416 
L 205.395187 -213.596147 
L 202.115855 -218.397107 
L 198.836512 -223.28662 
L 195.55717 -228.300644 
L 192.277838 -233.447602 
L 188.998496 -238.699037 
L 185.719153 -243.987719 
L 182.439821 -249.215494 
L 179.160479 -254.267412 
L 175.881137 -259.027452 
L 172.601804 -263.390381 
L 169.322462 -267.269955 
L 166.04312 -270.601765 
L 162.763787 -273.344189 
L 159.484445 -275.477141 
L 156.205103 -277.000198 
L 152.92577 -277.929475 
L 149.646428 -278.29426 
L 146.367086 -278.133173 
L 143.087754 -277.48991 
L 139.808412 -276.409173 
L 136.529069 -274.93372 
L 133.249737 -273.102795 
L 129.970395 -270.952139 
L 126.691057 -268.516542 
L 123.41172 -265.833438 
L 120.132378 -262.9474 
L 116.853041 -259.91479 
L 113.573703 -256.807526 
L 110.294361 -253.715509 
L 107.015024 -250.74662 
L 103.735686 -248.022295 
L 100.456344 -245.670331 
L 97.177007 -243.811565 
L 93.89767 -242.545183 
L 90.61833 -241.938481 
L 87.33899 -242.020739 
L 84.059653 -242.786746 
L 80.780313 -244.203862 
L 77.500973 -246.219974 
L 74.221636 -248.771539 
L 70.942296 -251.788744 
L 67.662958 -255.198785 
L 64.383619 -258.928944 
L 61.10428 -262.908064 
L 57.824941 -267.067411 
L 54.545602 -271.342521 
z
" style="stroke: #1f77b4; stroke-opacity: 0.5; stroke-width: 0.8"/>
    </defs>
    <g clip-path="url(#pe29ab7b845)">
     <use xlink:href="#m34537de628" x="0" y="322.510875" style="fill: #1f77b4; fill-opacity: 0.5; stroke: #1f77b4; stroke-opacity: 0.5; stroke-width: 0.8"/>
    </g>
   </g>
   <g id="PolyCollection_2">
    <defs>
     <path id="m3f9d63df68" d="M 54.545602 -149.218178 
L 54.545602 -143.251872 
L 57.824941 -144.991572 
L 61.10428 -147.056395 
L 64.383619 -149.430606 
L 67.662958 -152.08886 
L 70.942296 -154.996495 
L 74.221636 -158.110534 
L 77.500973 -161.38155 
L 80.780313 -164.756955 
L 84.059653 -168.184957 
L 87.33899 -171.61941 
L 90.61833 -175.024474 
L 93.89767 -178.377542 
L 97.177007 -181.669562 
L 100.456344 -184.902445 
L 103.735686 -188.08353 
L 107.015024 -191.219361 
L 110.294361 -194.309707 
L 113.573703 -197.343138 
L 116.853041 -200.295439 
L 120.132378 -203.129286 
L 123.41172 -205.796945 
L 126.691057 -208.242777 
L 129.970395 -210.408129 
L 133.249737 -212.235534 
L 136.529069 -213.673301 
L 139.808412 -214.679096 
L 143.087754 -215.222731 
L 146.367086 -215.287163 
L 149.646428 -214.868147 
L 152.92577 -213.972387 
L 156.205103 -212.614867 
L 159.484445 -210.814916 
L 162.763787 -208.592875 
L 166.04312 -205.96639 
L 169.322462 -202.947013 
L 172.601804 -199.538228 
L 175.881137 -195.733673 
L 179.160479 -191.517785 
L 182.439821 -186.867224 
L 185.719153 -181.75535 
L 188.998496 -176.157848 
L 192.277838 -170.060572 
L 195.55717 -163.466752 
L 198.836512 -156.402453 
L 202.115855 -148.919118 
L 205.395187 -141.091839 
L 208.674529 -133.014866 
L 211.953871 -124.79559 
L 215.233204 -116.548302 
L 218.512556 -108.388719 
L 221.791879 -100.429872 
L 225.071221 -92.778577 
L 228.350563 -85.533505 
L 231.629886 -78.783277 
L 234.909247 -72.605012 
L 238.18857 -67.063384 
L 241.467912 -62.20929 
L 244.747254 -58.07906 
L 248.026597 -54.693327 
L 251.305939 -52.056176 
L 254.585262 -50.154748 
L 257.864623 -48.959092 
L 261.143946 -48.423375 
L 264.423288 -48.488654 
L 267.70263 -49.087941 
L 270.981953 -50.153935 
L 274.261315 -51.628924 
L 277.540637 -53.474118 
L 280.81998 -55.676263 
L 284.099322 -58.248135 
L 287.378664 -61.222664 
L 290.658006 -64.643142 
L 293.937329 -68.551878 
L 297.21669 -72.981784 
L 300.496013 -77.949532 
L 303.775355 -83.453706 
L 307.054697 -89.473182 
L 310.33402 -95.968848 
L 313.613382 -102.885066 
L 316.892705 -110.15244 
L 320.172047 -117.690038 
L 323.451389 -125.408498 
L 326.730731 -133.211943 
L 330.010073 -141.000893 
L 333.289396 -148.673759 
L 336.568738 -156.12929 
L 339.84808 -163.267862 
L 343.127423 -169.992823 
L 346.406765 -176.213049 
L 349.686088 -181.844249 
L 352.96543 -186.813096 
L 356.244772 -191.05992 
L 359.524114 -194.543864 
L 362.803456 -197.245496 
L 366.082798 -199.169257 
L 369.362141 -200.342304 
L 372.641463 -200.811147 
L 375.920806 -200.637028 
L 379.200148 -199.89127 
L 379.200148 -210.214087 
L 379.200148 -210.214087 
L 375.920806 -211.720803 
L 372.641463 -212.677223 
L 369.362141 -212.969452 
L 366.082798 -212.475589 
L 362.803456 -211.076671 
L 359.524114 -208.679471 
L 356.244772 -205.244997 
L 352.96543 -200.805702 
L 349.686088 -195.456165 
L 346.406765 -189.327411 
L 343.127423 -182.559259 
L 339.84808 -175.286841 
L 336.568738 -167.634885 
L 333.289396 -159.720124 
L 330.010073 -151.652801 
L 326.730731 -143.53902 
L 323.451389 -135.482066 
L 320.172047 -127.581515 
L 316.892705 -119.932732 
L 313.613382 -112.624434 
L 310.33402 -105.737021 
L 307.054697 -99.338929 
L 303.775355 -93.484161 
L 300.496013 -88.208016 
L 297.21669 -83.523945 
L 293.937329 -79.419289 
L 290.658006 -75.853799 
L 287.378664 -72.759268 
L 284.099322 -70.047355 
L 280.81998 -67.624946 
L 277.540637 -65.419758 
L 274.261315 -63.405113 
L 270.981953 -61.612671 
L 267.70263 -60.124051 
L 264.423288 -59.048449 
L 261.143946 -58.499288 
L 257.864623 -58.577594 
L 254.585262 -59.363901 
L 251.305939 -60.915736 
L 248.026597 -63.268219 
L 244.747254 -66.435605 
L 241.467912 -70.413247 
L 238.18857 -75.179333 
L 234.909247 -80.696387 
L 231.629886 -86.912732 
L 228.350563 -93.763348 
L 225.071221 -101.171034 
L 221.791879 -109.04697 
L 218.512556 -117.291507 
L 215.233204 -125.794972 
L 211.953871 -134.43828 
L 208.674529 -143.094698 
L 205.395187 -151.632292 
L 202.115855 -159.918702 
L 198.836512 -167.828601 
L 195.55717 -175.254238 
L 192.277838 -182.117115 
L 188.998496 -188.377447 
L 185.719153 -194.035586 
L 182.439821 -199.124638 
L 179.160479 -203.696804 
L 175.881137 -207.807982 
L 172.601804 -211.506945 
L 169.322462 -214.828129 
L 166.04312 -217.790077 
L 162.763787 -220.395393 
L 159.484445 -222.633695 
L 156.205103 -224.484475 
L 152.92577 -225.921468 
L 149.646428 -226.917262 
L 146.367086 -227.447497 
L 143.087754 -227.496109 
L 139.808412 -227.059262 
L 136.529069 -226.148378 
L 133.249737 -224.791195 
L 129.970395 -223.030822 
L 126.691057 -220.922067 
L 123.41172 -218.526347 
L 120.132378 -215.905159 
L 116.853041 -213.113904 
L 113.573703 -210.195014 
L 110.294361 -207.174247 
L 107.015024 -204.057657 
L 103.735686 -200.833683 
L 100.456344 -197.478636 
L 97.177007 -193.96766 
L 93.89767 -190.287421 
L 90.61833 -186.445527 
L 87.33899 -182.474721 
L 84.059653 -178.429065 
L 80.780313 -174.376312 
L 77.500973 -170.389598 
L 74.221636 -166.540044 
L 70.942296 -162.892049 
L 67.662958 -159.500641 
L 64.383619 -156.409967 
L 61.10428 -153.653002 
L 57.824941 -151.251852 
L 54.545602 -149.218178 
z
" style="stroke: #ff7f0e; stroke-opacity: 0.5; stroke-width: 0.8"/>
    </defs>
    <g clip-path="url(#pe29ab7b845)">
     <use xlink:href="#m3f9d63df68" x="0" y="322.510875" style="fill: #ff7f0e; fill-opacity: 0.5; stroke: #ff7f0e; stroke-opacity: 0.5; stroke-width: 0.8"/>
    </g>
   </g>
   <g id="PolyCollection_3">
    <defs>
     <path id="mb3bd473d78" d="M 54.545602 -277.308833 
L 54.545602 -271.342521 
L 57.824941 -267.067411 
L 61.10428 -262.908064 
L 64.383619 -258.928944 
L 67.662958 -255.198785 
L 70.942296 -251.788744 
L 74.221636 -248.771539 
L 77.500973 -246.219974 
L 80.780313 -244.203862 
L 84.059653 -242.786746 
L 87.33899 -242.020739 
L 90.61833 -241.938481 
L 93.89767 -242.545183 
L 97.177007 -243.811565 
L 100.456344 -245.670331 
L 103.735686 -248.022295 
L 107.015024 -250.74662 
L 110.294361 -253.715509 
L 113.573703 -256.807526 
L 116.853041 -259.91479 
L 120.132378 -262.9474 
L 123.41172 -265.833438 
L 126.691057 -268.516542 
L 129.970395 -270.952139 
L 133.249737 -273.102795 
L 136.529069 -274.93372 
L 139.808412 -276.409173 
L 143.087754 -277.48991 
L 146.367086 -278.133173 
L 149.646428 -278.29426 
L 152.92577 -277.929475 
L 156.205103 -277.000198 
L 159.484445 -275.477141 
L 162.763787 -273.344189 
L 166.04312 -270.601765 
L 169.322462 -267.269955 
L 172.601804 -263.390381 
L 175.881137 -259.027452 
L 179.160479 -254.267412 
L 182.439821 -249.215494 
L 185.719153 -243.987719 
L 188.998496 -238.699037 
L 192.277838 -233.447602 
L 195.55717 -228.300644 
L 198.836512 -223.28662 
L 202.115855 -218.397107 
L 205.395187 -213.596147 
L 208.674529 -208.832416 
L 211.953871 -204.050201 
L 215.233204 -199.197316 
L 218.512556 -194.230271 
L 221.791879 -189.117323 
L 225.071221 -183.840026 
L 228.350563 -178.394216 
L 231.629886 -172.790628 
L 234.909247 -167.054747 
L 238.18857 -161.227138 
L 241.467912 -155.362918 
L 244.747254 -149.531703 
L 248.026597 -143.817092 
L 251.305939 -138.316492 
L 254.585262 -133.140516 
L 257.864623 -128.413062 
L 261.143946 -124.270503 
L 264.423288 -120.860197 
L 267.70263 -118.335888 
L 270.981953 -116.847883 
L 274.261315 -116.525021 
L 277.540637 -117.449734 
L 280.81998 -119.635434 
L 284.099322 -123.017613 
L 287.378664 -127.466475 
L 290.658006 -132.812995 
L 293.937329 -138.874803 
L 297.21669 -145.474276 
L 300.496013 -152.446758 
L 303.775355 -159.644549 
L 307.054697 -166.935996 
L 310.33402 -174.205496 
L 313.613382 -181.352983 
L 316.892705 -188.292097 
L 320.172047 -194.951336 
L 323.451389 -201.273207 
L 326.730731 -207.21438 
L 330.010073 -212.746605 
L 333.289396 -217.857487 
L 336.568738 -222.551612 
L 339.84808 -226.85302 
L 343.127423 -230.807886 
L 346.406765 -234.48721 
L 349.686088 -237.988333 
L 352.96543 -241.429685 
L 356.244772 -244.935445 
L 359.524114 -248.607929 
L 362.803456 -252.499548 
L 366.082798 -256.602691 
L 369.362141 -260.86495 
L 372.641463 -265.215617 
L 375.920806 -269.587215 
L 379.200148 -273.924183 
L 379.200148 -284.247003 
L 379.200148 -284.247003 
L 375.920806 -280.67099 
L 372.641463 -277.081695 
L 369.362141 -273.492098 
L 366.082798 -269.909026 
L 362.803456 -266.330724 
L 359.524114 -262.74354 
L 356.244772 -259.120522 
L 352.96543 -255.422293 
L 349.686088 -251.600249 
L 346.406765 -247.601572 
L 343.127423 -243.374322 
L 339.84808 -238.871996 
L 336.568738 -234.057209 
L 333.289396 -228.90385 
L 330.010073 -223.398509 
L 326.730731 -217.541451 
L 323.451389 -211.346775 
L 320.172047 -204.842813 
L 316.892705 -198.072389 
L 313.613382 -191.092356 
L 310.33402 -183.973663 
L 307.054697 -176.801743 
L 303.775355 -169.675005 
L 300.496013 -162.705242 
L 297.21669 -156.016448 
L 293.937329 -149.742213 
L 290.658006 -144.023652 
L 287.378664 -139.003078 
L 284.099322 -134.816823 
L 280.81998 -131.584127 
L 277.540637 -129.395352 
L 274.261315 -128.30121 
L 270.981953 -128.306629 
L 267.70263 -129.372009 
L 264.423288 -131.419991 
L 261.143946 -134.346406 
L 257.864623 -138.031574 
L 254.585262 -142.349679 
L 251.305939 -147.176052 
L 248.026597 -152.392005 
L 244.747254 -157.888248 
L 241.467912 -163.566875 
L 238.18857 -169.343086 
L 234.909247 -175.146127 
L 231.629886 -180.920083 
L 228.350563 -186.624054 
L 225.071221 -192.232477 
L 221.791879 -197.734421 
L 218.512556 -203.133054 
L 215.233204 -208.443991 
L 211.953871 -213.692895 
L 208.674529 -218.912253 
L 205.395187 -224.136602 
L 202.115855 -229.396686 
L 198.836512 -234.712769 
L 195.55717 -240.08813 
L 192.277838 -245.504148 
L 188.998496 -250.918639 
L 185.719153 -256.26796 
L 182.439821 -261.472908 
L 179.160479 -266.446428 
L 175.881137 -271.101758 
L 172.601804 -275.359099 
L 169.322462 -279.151075 
L 166.04312 -282.425452 
L 162.763787 -285.146707 
L 159.484445 -287.29592 
L 156.205103 -288.869806 
L 152.92577 -289.878557 
L 149.646428 -290.343375 
L 146.367086 -290.293506 
L 143.087754 -289.763284 
L 139.808412 -288.789338 
L 136.529069 -287.408798 
L 133.249737 -285.65845 
L 129.970395 -283.574832 
L 126.691057 -281.195833 
L 123.41172 -278.56284 
L 120.132378 -275.723272 
L 116.853041 -272.733256 
L 113.573703 -269.659398 
L 110.294361 -266.580051 
L 107.015024 -263.584916 
L 103.735686 -260.772448 
L 100.456344 -258.246522 
L 97.177007 -256.109664 
L 93.89767 -254.455059 
L 90.61833 -253.359533 
L 87.33899 -252.876053 
L 84.059653 -253.030851 
L 80.780313 -253.823223 
L 77.500973 -255.228019 
L 74.221636 -257.201055 
L 70.942296 -259.684298 
L 67.662958 -262.610567 
L 64.383619 -265.908305 
L 61.10428 -269.504676 
L 57.824941 -273.327692 
L 54.545602 -277.308833 
z
" style="stroke: #ff7f0e; stroke-opacity: 0.5; stroke-width: 0.8"/>
    </defs>
    <g clip-path="url(#pe29ab7b845)">
     <use xlink:href="#mb3bd473d78" x="0" y="322.510875" style="fill: #ff7f0e; fill-opacity: 0.5; stroke: #ff7f0e; stroke-opacity: 0.5; stroke-width: 0.8"/>
    </g>
   </g>
   <g id="line2d_13">
    <defs>
     <path id="mdd5729de50" d="M -5 5 
L 5 -5 
M -5 -5 
L 5 5 
" style="stroke: #000000; stroke-width: 2"/>
    </defs>
    <g clip-path="url(#pe29ab7b845)">
     <use xlink:href="#mdd5729de50" x="95.766934" y="112.730655" style="stroke: #000000; stroke-width: 2"/>
     <use xlink:href="#mdd5729de50" x="368.394943" y="88.86814" style="stroke: #000000; stroke-width: 2"/>
     <use xlink:href="#mdd5729de50" x="139.110317" y="62.875431" style="stroke: #000000; stroke-width: 2"/>
     <use xlink:href="#mdd5729de50" x="345.837519" y="106.806242" style="stroke: #000000; stroke-width: 2"/>
     <use xlink:href="#mdd5729de50" x="192.277838" y="118.70868" style="stroke: #000000; stroke-width: 2"/>
     <use xlink:href="#mdd5729de50" x="277.540637" y="247.406107" style="stroke: #000000; stroke-width: 2"/>
    </g>
   </g>
   <g id="line2d_14">
    <path d="M 54.545602 112.230524 
L 57.824941 113.351243 
L 61.10428 114.230342 
L 64.383619 114.841418 
L 67.662958 115.161162 
L 70.942296 115.170478 
L 74.221636 114.855083 
L 77.500973 114.206089 
L 80.780313 113.220787 
L 84.059653 111.90297 
L 87.33899 110.263145 
L 90.61833 108.318873 
L 93.89767 106.094575 
L 97.177007 103.621262 
L 100.456344 100.936393 
L 103.735686 98.082886 
L 107.015024 95.108736 
L 110.294361 92.065997 
L 113.573703 89.009605 
L 116.853041 85.996529 
L 120.132378 83.084595 
L 123.41172 80.330982 
L 126.691057 77.79157 
L 129.970395 75.519394 
L 133.249737 73.563881 
L 136.529069 71.969825 
L 139.808412 70.776657 
L 143.087754 70.017866 
L 146.367086 69.72054 
L 149.646428 69.905115 
L 152.92577 70.585403 
L 156.205103 71.768538 
L 159.484445 73.455458 
L 162.763787 75.641085 
L 166.04312 78.314954 
L 169.322462 81.461832 
L 172.601804 85.062213 
L 175.881137 89.093158 
L 179.160479 93.528768 
L 182.439821 98.340808 
L 185.719153 103.499221 
L 188.998496 108.972632 
L 192.277838 114.728516 
L 195.55717 120.733434 
L 198.836512 126.953264 
L 202.115855 133.352972 
L 205.395187 139.896654 
L 208.674529 146.547317 
L 211.953871 153.266635 
L 215.233204 160.014731 
L 218.512556 166.749988 
L 221.791879 173.428726 
L 225.071221 180.005345 
L 228.350563 186.432096 
L 231.629886 192.659195 
L 234.909247 198.635308 
L 238.18857 204.30764 
L 241.467912 209.622793 
L 244.747254 214.527221 
L 248.026597 218.968215 
L 251.305939 222.894761 
L 254.585262 226.258661 
L 257.864623 229.015542 
L 261.143946 231.125979 
L 264.423288 232.556552 
L 267.70263 233.280905 
L 270.981953 233.280593 
L 274.261315 232.545808 
L 277.540637 231.076134 
L 280.81998 228.88068 
L 284.099322 225.978391 
L 287.378664 222.397998 
L 290.658006 218.177478 
L 293.937329 213.363829 
L 297.21669 208.011764 
L 300.496013 202.183488 
L 303.775355 195.94652 
L 307.054697 189.373413 
L 310.33402 182.539617 
L 313.613382 175.522166 
L 316.892705 168.39846 
L 320.172047 161.244449 
L 323.451389 154.133238 
L 326.730731 147.134176 
L 330.010073 140.311172 
L 333.289396 133.722068 
L 336.568738 127.417627 
L 339.84808 121.440946 
L 343.127423 115.827301 
L 346.406765 110.603564 
L 349.686088 105.788626 
L 352.96543 101.393182 
L 356.244772 97.420654 
L 359.524114 93.867175 
L 362.803456 90.722765 
L 366.082798 87.971734 
L 369.362141 85.593674 
L 372.641463 83.564454 
L 375.920806 81.856866 
L 379.200148 80.44174 
" clip-path="url(#pe29ab7b845)" style="fill: none; stroke: #1f77b4; stroke-width: 2; stroke-linecap: round"/>
   </g>
   <g id="line2d_15">
    <path d="M 54.545602 160.222599 
L 57.824941 154.88921 
L 61.10428 149.57561 
L 64.383619 144.301507 
L 67.662958 139.086534 
L 70.942296 133.950107 
L 74.221636 128.911452 
L 77.500973 123.989458 
L 80.780313 119.202639 
L 84.059653 114.569102 
L 87.33899 110.106427 
L 90.61833 105.831648 
L 93.89767 101.761178 
L 97.177007 97.91076 
L 100.456344 94.295388 
L 103.735686 90.92931 
L 107.015024 87.825921 
L 110.294361 84.997748 
L 113.573703 82.456385 
L 116.853041 80.212482 
L 120.132378 78.275694 
L 123.41172 76.654631 
L 126.691057 75.356846 
L 129.970395 74.388806 
L 133.249737 73.755853 
L 136.529069 73.462197 
L 139.808412 73.510896 
L 143.087754 73.90382 
L 146.367086 74.641663 
L 149.646428 75.723931 
L 152.92577 77.148913 
L 156.205103 78.913681 
L 159.484445 81.014129 
L 162.763787 83.444897 
L 166.04312 86.199443 
L 169.322462 89.270005 
L 172.601804 92.647615 
L 175.881137 96.322106 
L 179.160479 100.282105 
L 182.439821 104.515094 
L 185.719153 109.007309 
L 188.998496 113.743871 
L 192.277838 118.70868 
L 195.55717 123.884542 
L 198.836512 129.253051 
L 202.115855 134.794643 
L 205.395187 140.488615 
L 208.674529 146.313129 
L 211.953871 152.245139 
L 215.233204 158.260483 
L 218.512556 164.333821 
L 221.791879 170.438585 
L 225.071221 176.547101 
L 228.350563 182.630469 
L 231.629886 188.658439 
L 234.909247 194.599797 
L 238.18857 200.421758 
L 241.467912 206.090546 
L 244.747254 211.57096 
L 248.026597 216.826565 
L 251.305939 221.81971 
L 254.585262 226.511388 
L 257.864623 230.861477 
L 261.143946 234.828614 
L 264.423288 238.370406 
L 267.70263 241.443458 
L 270.981953 244.003647 
L 274.261315 246.006204 
L 277.540637 247.406107 
L 280.81998 248.15841 
L 284.099322 248.218718 
L 287.378664 247.543772 
L 290.658006 246.092231 
L 293.937329 243.825527 
L 297.21669 240.708861 
L 300.496013 236.712919 
L 303.775355 231.814806 
L 307.054697 226.000453 
L 310.33402 219.266649 
L 313.613382 211.623254 
L 316.892705 203.096539 
L 320.172047 193.731994 
L 323.451389 183.598035 
L 326.730731 172.78988 
L 330.010073 161.433439 
L 333.289396 149.689426 
L 336.568738 137.757298 
L 339.84808 125.878396 
L 343.127423 114.338567 
L 346.406765 103.469145 
L 349.686088 93.645214 
L 352.96543 85.280988 
L 356.244772 78.8214 
L 359.524114 74.726884 
L 362.803456 73.452281 
L 366.082798 75.41694 
L 369.362141 80.965582 
L 372.641463 90.319539 
L 375.920806 103.518631 
L 379.200148 120.356438 
" clip-path="url(#pe29ab7b845)" style="fill: none; stroke-dasharray: 7.68,1.92,1.2,1.92; stroke-dashoffset: 0; stroke: #bf00bf; stroke-width: 1.2"/>
   </g>
   <g id="patch_3">
    <path d="M 38.312875 248.280495 
L 38.312875 29.730084 
" style="fill: none; stroke: #262626; stroke-linejoin: miter; stroke-linecap: square"/>
   </g>
   <g id="patch_4">
    <path d="M 54.545602 286.1835 
L 379.200148 286.1835 
" style="fill: none; stroke: #262626; stroke-linejoin: miter; stroke-linecap: square"/>
   </g>
   <g id="text_15">
    <!-- N=1,  -->
    <g style="fill: #262626" transform="translate(205.266625 14.0715) scale(0.096 -0.096)">
     <defs>
      <path id="ArialMT-4e" d="M 488 0 
L 488 4581 
L 1109 4581 
L 3516 984 
L 3516 4581 
L 4097 4581 
L 4097 0 
L 3475 0 
L 1069 3600 
L 1069 0 
L 488 0 
z
" transform="scale(0.015625)"/>
      <path id="ArialMT-3d" d="M 3381 2694 
L 356 2694 
L 356 3219 
L 3381 3219 
L 3381 2694 
z
M 3381 1303 
L 356 1303 
L 356 1828 
L 3381 1828 
L 3381 1303 
z
" transform="scale(0.015625)"/>
      <path id="ArialMT-2c" d="M 569 0 
L 569 641 
L 1209 641 
L 1209 0 
Q 1209 -353 1084 -570 
Q 959 -788 688 -906 
L 531 -666 
Q 709 -588 793 -436 
Q 878 -284 888 0 
L 569 0 
z
" transform="scale(0.015625)"/>
      <path id="ArialMT-20" transform="scale(0.015625)"/>
     </defs>
     <use xlink:href="#ArialMT-4e"/>
     <use xlink:href="#ArialMT-3d" x="72.216797"/>
     <use xlink:href="#ArialMT-31" x="130.615234"/>
     <use xlink:href="#ArialMT-2c" x="186.230469"/>
     <use xlink:href="#ArialMT-20" x="214.013672"/>
    </g>
   </g>
   <g id="legend_1">
    <g id="line2d_16">
     <g>
      <use xlink:href="#mdd5729de50" x="55.032875" y="219.978625" style="stroke: #000000; stroke-width: 2"/>
     </g>
    </g>
    <g id="text_16">
     <!-- Observations -->
     <g style="fill: #262626" transform="translate(70.872875 223.058625) scale(0.088 -0.088)">
      <defs>
       <path id="ArialMT-4f" d="M 309 2231 
Q 309 3372 921 4017 
Q 1534 4663 2503 4663 
Q 3138 4663 3647 4359 
Q 4156 4056 4423 3514 
Q 4691 2972 4691 2284 
Q 4691 1588 4409 1038 
Q 4128 488 3612 205 
Q 3097 -78 2500 -78 
Q 1853 -78 1343 234 
Q 834 547 571 1087 
Q 309 1628 309 2231 
z
M 934 2222 
Q 934 1394 1379 917 
Q 1825 441 2497 441 
Q 3181 441 3623 922 
Q 4066 1403 4066 2288 
Q 4066 2847 3877 3264 
Q 3688 3681 3323 3911 
Q 2959 4141 2506 4141 
Q 1863 4141 1398 3698 
Q 934 3256 934 2222 
z
" transform="scale(0.015625)"/>
       <path id="ArialMT-62" d="M 941 0 
L 419 0 
L 419 4581 
L 981 4581 
L 981 2947 
Q 1338 3394 1891 3394 
Q 2197 3394 2470 3270 
Q 2744 3147 2920 2923 
Q 3097 2700 3197 2384 
Q 3297 2069 3297 1709 
Q 3297 856 2875 390 
Q 2453 -75 1863 -75 
Q 1275 -75 941 416 
L 941 0 
z
M 934 1684 
Q 934 1088 1097 822 
Q 1363 388 1816 388 
Q 2184 388 2453 708 
Q 2722 1028 2722 1663 
Q 2722 2313 2464 2622 
Q 2206 2931 1841 2931 
Q 1472 2931 1203 2611 
Q 934 2291 934 1684 
z
" transform="scale(0.015625)"/>
       <path id="ArialMT-73" d="M 197 991 
L 753 1078 
Q 800 744 1014 566 
Q 1228 388 1613 388 
Q 2000 388 2187 545 
Q 2375 703 2375 916 
Q 2375 1106 2209 1216 
Q 2094 1291 1634 1406 
Q 1016 1563 777 1677 
Q 538 1791 414 1992 
Q 291 2194 291 2438 
Q 291 2659 392 2848 
Q 494 3038 669 3163 
Q 800 3259 1026 3326 
Q 1253 3394 1513 3394 
Q 1903 3394 2198 3281 
Q 2494 3169 2634 2976 
Q 2775 2784 2828 2463 
L 2278 2388 
Q 2241 2644 2061 2787 
Q 1881 2931 1553 2931 
Q 1166 2931 1000 2803 
Q 834 2675 834 2503 
Q 834 2394 903 2306 
Q 972 2216 1119 2156 
Q 1203 2125 1616 2013 
Q 2213 1853 2448 1751 
Q 2684 1650 2818 1456 
Q 2953 1263 2953 975 
Q 2953 694 2789 445 
Q 2625 197 2315 61 
Q 2006 -75 1616 -75 
Q 969 -75 630 194 
Q 291 463 197 991 
z
" transform="scale(0.015625)"/>
       <path id="ArialMT-65" d="M 2694 1069 
L 3275 997 
Q 3138 488 2766 206 
Q 2394 -75 1816 -75 
Q 1088 -75 661 373 
Q 234 822 234 1631 
Q 234 2469 665 2931 
Q 1097 3394 1784 3394 
Q 2450 3394 2872 2941 
Q 3294 2488 3294 1666 
Q 3294 1616 3291 1516 
L 816 1516 
Q 847 969 1125 678 
Q 1403 388 1819 388 
Q 2128 388 2347 550 
Q 2566 713 2694 1069 
z
M 847 1978 
L 2700 1978 
Q 2663 2397 2488 2606 
Q 2219 2931 1791 2931 
Q 1403 2931 1139 2672 
Q 875 2413 847 1978 
z
" transform="scale(0.015625)"/>
       <path id="ArialMT-72" d="M 416 0 
L 416 3319 
L 922 3319 
L 922 2816 
Q 1116 3169 1280 3281 
Q 1444 3394 1641 3394 
Q 1925 3394 2219 3213 
L 2025 2691 
Q 1819 2813 1613 2813 
Q 1428 2813 1281 2702 
Q 1134 2591 1072 2394 
Q 978 2094 978 1738 
L 978 0 
L 416 0 
z
" transform="scale(0.015625)"/>
       <path id="ArialMT-76" d="M 1344 0 
L 81 3319 
L 675 3319 
L 1388 1331 
Q 1503 1009 1600 663 
Q 1675 925 1809 1294 
L 2547 3319 
L 3125 3319 
L 1869 0 
L 1344 0 
z
" transform="scale(0.015625)"/>
       <path id="ArialMT-61" d="M 2588 409 
Q 2275 144 1986 34 
Q 1697 -75 1366 -75 
Q 819 -75 525 192 
Q 231 459 231 875 
Q 231 1119 342 1320 
Q 453 1522 633 1644 
Q 813 1766 1038 1828 
Q 1203 1872 1538 1913 
Q 2219 1994 2541 2106 
Q 2544 2222 2544 2253 
Q 2544 2597 2384 2738 
Q 2169 2928 1744 2928 
Q 1347 2928 1158 2789 
Q 969 2650 878 2297 
L 328 2372 
Q 403 2725 575 2942 
Q 747 3159 1072 3276 
Q 1397 3394 1825 3394 
Q 2250 3394 2515 3294 
Q 2781 3194 2906 3042 
Q 3031 2891 3081 2659 
Q 3109 2516 3109 2141 
L 3109 1391 
Q 3109 606 3145 398 
Q 3181 191 3288 0 
L 2700 0 
Q 2613 175 2588 409 
z
M 2541 1666 
Q 2234 1541 1622 1453 
Q 1275 1403 1131 1340 
Q 988 1278 909 1158 
Q 831 1038 831 891 
Q 831 666 1001 516 
Q 1172 366 1500 366 
Q 1825 366 2078 508 
Q 2331 650 2450 897 
Q 2541 1088 2541 1459 
L 2541 1666 
z
" transform="scale(0.015625)"/>
       <path id="ArialMT-74" d="M 1650 503 
L 1731 6 
Q 1494 -44 1306 -44 
Q 1000 -44 831 53 
Q 663 150 594 308 
Q 525 466 525 972 
L 525 2881 
L 113 2881 
L 113 3319 
L 525 3319 
L 525 4141 
L 1084 4478 
L 1084 3319 
L 1650 3319 
L 1650 2881 
L 1084 2881 
L 1084 941 
Q 1084 700 1114 631 
Q 1144 563 1211 522 
Q 1278 481 1403 481 
Q 1497 481 1650 503 
z
" transform="scale(0.015625)"/>
       <path id="ArialMT-69" d="M 425 3934 
L 425 4581 
L 988 4581 
L 988 3934 
L 425 3934 
z
M 425 0 
L 425 3319 
L 988 3319 
L 988 0 
L 425 0 
z
" transform="scale(0.015625)"/>
       <path id="ArialMT-6f" d="M 213 1659 
Q 213 2581 725 3025 
Q 1153 3394 1769 3394 
Q 2453 3394 2887 2945 
Q 3322 2497 3322 1706 
Q 3322 1066 3130 698 
Q 2938 331 2570 128 
Q 2203 -75 1769 -75 
Q 1072 -75 642 372 
Q 213 819 213 1659 
z
M 791 1659 
Q 791 1022 1069 705 
Q 1347 388 1769 388 
Q 2188 388 2466 706 
Q 2744 1025 2744 1678 
Q 2744 2294 2464 2611 
Q 2184 2928 1769 2928 
Q 1347 2928 1069 2612 
Q 791 2297 791 1659 
z
" transform="scale(0.015625)"/>
       <path id="ArialMT-6e" d="M 422 0 
L 422 3319 
L 928 3319 
L 928 2847 
Q 1294 3394 1984 3394 
Q 2284 3394 2536 3286 
Q 2788 3178 2913 3003 
Q 3038 2828 3088 2588 
Q 3119 2431 3119 2041 
L 3119 0 
L 2556 0 
L 2556 2019 
Q 2556 2363 2490 2533 
Q 2425 2703 2258 2804 
Q 2091 2906 1866 2906 
Q 1506 2906 1245 2678 
Q 984 2450 984 1813 
L 984 0 
L 422 0 
z
" transform="scale(0.015625)"/>
      </defs>
      <use xlink:href="#ArialMT-4f"/>
      <use xlink:href="#ArialMT-62" x="77.783203"/>
      <use xlink:href="#ArialMT-73" x="133.398438"/>
      <use xlink:href="#ArialMT-65" x="183.398438"/>
      <use xlink:href="#ArialMT-72" x="239.013672"/>
      <use xlink:href="#ArialMT-76" x="272.314453"/>
      <use xlink:href="#ArialMT-61" x="322.314453"/>
      <use xlink:href="#ArialMT-74" x="377.929688"/>
      <use xlink:href="#ArialMT-69" x="405.712891"/>
      <use xlink:href="#ArialMT-6f" x="427.929688"/>
      <use xlink:href="#ArialMT-6e" x="483.544922"/>
      <use xlink:href="#ArialMT-73" x="539.160156"/>
     </g>
    </g>
    <g id="line2d_17">
     <path d="M 46.232875 232.562625 
L 55.032875 232.562625 
L 63.832875 232.562625 
" style="fill: none; stroke: #1f77b4; stroke-width: 2; stroke-linecap: round"/>
    </g>
    <g id="text_17">
     <!-- $m_n(x)$ -->
     <g style="fill: #262626" transform="translate(70.872875 235.642625) scale(0.088 -0.088)">
      <defs>
       <path id="DejaVuSans-Oblique-6d" d="M 5747 2113 
L 5338 0 
L 4763 0 
L 5166 2094 
Q 5191 2228 5203 2325 
Q 5216 2422 5216 2491 
Q 5216 2772 5059 2928 
Q 4903 3084 4622 3084 
Q 4203 3084 3875 2770 
Q 3547 2456 3450 1953 
L 3066 0 
L 2491 0 
L 2900 2094 
Q 2925 2209 2937 2307 
Q 2950 2406 2950 2484 
Q 2950 2769 2794 2926 
Q 2638 3084 2363 3084 
Q 1938 3084 1609 2770 
Q 1281 2456 1184 1953 
L 800 0 
L 225 0 
L 909 3500 
L 1484 3500 
L 1375 2956 
Q 1609 3263 1923 3423 
Q 2238 3584 2597 3584 
Q 2978 3584 3223 3384 
Q 3469 3184 3519 2828 
Q 3781 3197 4126 3390 
Q 4472 3584 4856 3584 
Q 5306 3584 5551 3325 
Q 5797 3066 5797 2591 
Q 5797 2488 5784 2364 
Q 5772 2241 5747 2113 
z
" transform="scale(0.015625)"/>
       <path id="DejaVuSans-Oblique-6e" d="M 3566 2113 
L 3156 0 
L 2578 0 
L 2988 2091 
Q 3016 2238 3031 2350 
Q 3047 2463 3047 2528 
Q 3047 2791 2881 2937 
Q 2716 3084 2419 3084 
Q 1956 3084 1622 2776 
Q 1288 2469 1184 1941 
L 800 0 
L 225 0 
L 903 3500 
L 1478 3500 
L 1363 2950 
Q 1603 3253 1940 3418 
Q 2278 3584 2650 3584 
Q 3113 3584 3367 3334 
Q 3622 3084 3622 2631 
Q 3622 2519 3608 2391 
Q 3594 2263 3566 2113 
z
" transform="scale(0.015625)"/>
       <path id="DejaVuSans-28" d="M 1984 4856 
Q 1566 4138 1362 3434 
Q 1159 2731 1159 2009 
Q 1159 1288 1364 580 
Q 1569 -128 1984 -844 
L 1484 -844 
Q 1016 -109 783 600 
Q 550 1309 550 2009 
Q 550 2706 781 3412 
Q 1013 4119 1484 4856 
L 1984 4856 
z
" transform="scale(0.015625)"/>
       <path id="DejaVuSans-29" d="M 513 4856 
L 1013 4856 
Q 1481 4119 1714 3412 
Q 1947 2706 1947 2009 
Q 1947 1309 1714 600 
Q 1481 -109 1013 -844 
L 513 -844 
Q 928 -128 1133 580 
Q 1338 1288 1338 2009 
Q 1338 2731 1133 3434 
Q 928 4138 513 4856 
z
" transform="scale(0.015625)"/>
      </defs>
      <use xlink:href="#DejaVuSans-Oblique-6d" transform="translate(0 0.125)"/>
      <use xlink:href="#DejaVuSans-Oblique-6e" transform="translate(97.412109 -16.28125) scale(0.7)"/>
      <use xlink:href="#DejaVuSans-28" transform="translate(144.511719 0.125)"/>
      <use xlink:href="#DejaVuSans-Oblique-78" transform="translate(183.525391 0.125)"/>
      <use xlink:href="#DejaVuSans-29" transform="translate(242.705078 0.125)"/>
     </g>
    </g>
    <g id="patch_5">
     <path d="M 46.232875 249.799625 
L 63.832875 249.799625 
L 63.832875 243.639625 
L 46.232875 243.639625 
z
" style="fill: #1f77b4; fill-opacity: 0.5; stroke: #1f77b4; stroke-opacity: 0.5; stroke-width: 0.8; stroke-linejoin: miter"/>
    </g>
    <g id="text_18">
     <!-- $f(\mathbf{x}^*)$ 95% pred. -->
     <g style="fill: #262626" transform="translate(70.872875 249.799625) scale(0.088 -0.088)">
      <defs>
       <path id="DejaVuSans-Oblique-66" d="M 3059 4863 
L 2969 4384 
L 2419 4384 
Q 2106 4384 1964 4261 
Q 1822 4138 1753 3809 
L 1691 3500 
L 2638 3500 
L 2553 3053 
L 1606 3053 
L 1013 0 
L 434 0 
L 1031 3053 
L 481 3053 
L 563 3500 
L 1113 3500 
L 1159 3744 
Q 1278 4363 1576 4613 
Q 1875 4863 2516 4863 
L 3059 4863 
z
" transform="scale(0.015625)"/>
       <path id="DejaVuSans-Bold-78" d="M 1422 1791 
L 159 3500 
L 1344 3500 
L 2059 2463 
L 2784 3500 
L 3969 3500 
L 2706 1797 
L 4031 0 
L 2847 0 
L 2059 1106 
L 1281 0 
L 97 0 
L 1422 1791 
z
" transform="scale(0.015625)"/>
       <path id="DejaVuSans-2a" d="M 3009 3897 
L 1888 3291 
L 3009 2681 
L 2828 2375 
L 1778 3009 
L 1778 1831 
L 1422 1831 
L 1422 3009 
L 372 2375 
L 191 2681 
L 1313 3291 
L 191 3897 
L 372 4206 
L 1422 3572 
L 1422 4750 
L 1778 4750 
L 1778 3572 
L 2828 4206 
L 3009 3897 
z
" transform="scale(0.015625)"/>
       <path id="ArialMT-39" d="M 350 1059 
L 891 1109 
Q 959 728 1153 556 
Q 1347 384 1650 384 
Q 1909 384 2104 503 
Q 2300 622 2425 820 
Q 2550 1019 2634 1356 
Q 2719 1694 2719 2044 
Q 2719 2081 2716 2156 
Q 2547 1888 2255 1720 
Q 1963 1553 1622 1553 
Q 1053 1553 659 1965 
Q 266 2378 266 3053 
Q 266 3750 677 4175 
Q 1088 4600 1706 4600 
Q 2153 4600 2523 4359 
Q 2894 4119 3086 3673 
Q 3278 3228 3278 2384 
Q 3278 1506 3087 986 
Q 2897 466 2520 194 
Q 2144 -78 1638 -78 
Q 1100 -78 759 220 
Q 419 519 350 1059 
z
M 2653 3081 
Q 2653 3566 2395 3850 
Q 2138 4134 1775 4134 
Q 1400 4134 1122 3828 
Q 844 3522 844 3034 
Q 844 2597 1108 2323 
Q 1372 2050 1759 2050 
Q 2150 2050 2401 2323 
Q 2653 2597 2653 3081 
z
" transform="scale(0.015625)"/>
       <path id="ArialMT-35" d="M 266 1200 
L 856 1250 
Q 922 819 1161 601 
Q 1400 384 1738 384 
Q 2144 384 2425 690 
Q 2706 997 2706 1503 
Q 2706 1984 2436 2262 
Q 2166 2541 1728 2541 
Q 1456 2541 1237 2417 
Q 1019 2294 894 2097 
L 366 2166 
L 809 4519 
L 3088 4519 
L 3088 3981 
L 1259 3981 
L 1013 2750 
Q 1425 3038 1878 3038 
Q 2478 3038 2890 2622 
Q 3303 2206 3303 1553 
Q 3303 931 2941 478 
Q 2500 -78 1738 -78 
Q 1113 -78 717 272 
Q 322 622 266 1200 
z
" transform="scale(0.015625)"/>
       <path id="ArialMT-25" d="M 372 3481 
Q 372 3972 619 4315 
Q 866 4659 1334 4659 
Q 1766 4659 2048 4351 
Q 2331 4044 2331 3447 
Q 2331 2866 2045 2552 
Q 1759 2238 1341 2238 
Q 925 2238 648 2547 
Q 372 2856 372 3481 
z
M 1350 4272 
Q 1141 4272 1002 4090 
Q 863 3909 863 3425 
Q 863 2984 1003 2804 
Q 1144 2625 1350 2625 
Q 1563 2625 1702 2806 
Q 1841 2988 1841 3469 
Q 1841 3913 1700 4092 
Q 1559 4272 1350 4272 
z
M 1353 -169 
L 3859 4659 
L 4316 4659 
L 1819 -169 
L 1353 -169 
z
M 3334 1075 
Q 3334 1569 3581 1911 
Q 3828 2253 4300 2253 
Q 4731 2253 5014 1945 
Q 5297 1638 5297 1041 
Q 5297 459 5011 145 
Q 4725 -169 4303 -169 
Q 3888 -169 3611 142 
Q 3334 453 3334 1075 
z
M 4316 1866 
Q 4103 1866 3964 1684 
Q 3825 1503 3825 1019 
Q 3825 581 3965 400 
Q 4106 219 4313 219 
Q 4528 219 4667 400 
Q 4806 581 4806 1063 
Q 4806 1506 4665 1686 
Q 4525 1866 4316 1866 
z
" transform="scale(0.015625)"/>
       <path id="ArialMT-70" d="M 422 -1272 
L 422 3319 
L 934 3319 
L 934 2888 
Q 1116 3141 1344 3267 
Q 1572 3394 1897 3394 
Q 2322 3394 2647 3175 
Q 2972 2956 3137 2557 
Q 3303 2159 3303 1684 
Q 3303 1175 3120 767 
Q 2938 359 2589 142 
Q 2241 -75 1856 -75 
Q 1575 -75 1351 44 
Q 1128 163 984 344 
L 984 -1272 
L 422 -1272 
z
M 931 1641 
Q 931 1000 1190 694 
Q 1450 388 1819 388 
Q 2194 388 2461 705 
Q 2728 1022 2728 1688 
Q 2728 2322 2467 2637 
Q 2206 2953 1844 2953 
Q 1484 2953 1207 2617 
Q 931 2281 931 1641 
z
" transform="scale(0.015625)"/>
       <path id="ArialMT-64" d="M 2575 0 
L 2575 419 
Q 2259 -75 1647 -75 
Q 1250 -75 917 144 
Q 584 363 401 755 
Q 219 1147 219 1656 
Q 219 2153 384 2558 
Q 550 2963 881 3178 
Q 1213 3394 1622 3394 
Q 1922 3394 2156 3267 
Q 2391 3141 2538 2938 
L 2538 4581 
L 3097 4581 
L 3097 0 
L 2575 0 
z
M 797 1656 
Q 797 1019 1065 703 
Q 1334 388 1700 388 
Q 2069 388 2326 689 
Q 2584 991 2584 1609 
Q 2584 2291 2321 2609 
Q 2059 2928 1675 2928 
Q 1300 2928 1048 2622 
Q 797 2316 797 1656 
z
" transform="scale(0.015625)"/>
      </defs>
      <use xlink:href="#DejaVuSans-Oblique-66" transform="translate(0 0.765625)"/>
      <use xlink:href="#DejaVuSans-28" transform="translate(35.205078 0.765625)"/>
      <use xlink:href="#DejaVuSans-Bold-78" transform="translate(74.21875 0.765625)"/>
      <use xlink:href="#DejaVuSans-2a" transform="translate(153.31543 39.046875) scale(0.7)"/>
      <use xlink:href="#DejaVuSans-29" transform="translate(204.6875 0.765625)"/>
      <use xlink:href="#ArialMT-20" transform="translate(243.701172 0.765625)"/>
      <use xlink:href="#ArialMT-39" transform="translate(271.484375 0.765625)"/>
      <use xlink:href="#ArialMT-35" transform="translate(327.099609 0.765625)"/>
      <use xlink:href="#ArialMT-25" transform="translate(382.714844 0.765625)"/>
      <use xlink:href="#ArialMT-20" transform="translate(471.630859 0.765625)"/>
      <use xlink:href="#ArialMT-70" transform="translate(499.414062 0.765625)"/>
      <use xlink:href="#ArialMT-72" transform="translate(555.029297 0.765625)"/>
      <use xlink:href="#ArialMT-65" transform="translate(588.330078 0.765625)"/>
      <use xlink:href="#ArialMT-64" transform="translate(643.945312 0.765625)"/>
      <use xlink:href="#ArialMT-2e" transform="translate(699.560547 0.765625)"/>
     </g>
    </g>
    <g id="patch_6">
     <path d="M 46.232875 263.967625 
L 63.832875 263.967625 
L 63.832875 257.807625 
L 46.232875 257.807625 
z
" style="fill: #ff7f0e; fill-opacity: 0.5; stroke: #ff7f0e; stroke-opacity: 0.5; stroke-width: 0.8; stroke-linejoin: miter"/>
    </g>
    <g id="text_19">
     <!-- $y^*$ 95% pred. -->
     <g style="fill: #262626" transform="translate(70.872875 263.967625) scale(0.088 -0.088)">
      <use xlink:href="#DejaVuSans-Oblique-79" transform="translate(0 0.765625)"/>
      <use xlink:href="#DejaVuSans-2a" transform="translate(77.283529 39.046875) scale(0.7)"/>
      <use xlink:href="#ArialMT-20" transform="translate(128.655599 0.765625)"/>
      <use xlink:href="#ArialMT-39" transform="translate(156.438802 0.765625)"/>
      <use xlink:href="#ArialMT-35" transform="translate(212.054036 0.765625)"/>
      <use xlink:href="#ArialMT-25" transform="translate(267.669271 0.765625)"/>
      <use xlink:href="#ArialMT-20" transform="translate(356.585286 0.765625)"/>
      <use xlink:href="#ArialMT-70" transform="translate(384.36849 0.765625)"/>
      <use xlink:href="#ArialMT-72" transform="translate(439.983724 0.765625)"/>
      <use xlink:href="#ArialMT-65" transform="translate(473.284505 0.765625)"/>
      <use xlink:href="#ArialMT-64" transform="translate(528.89974 0.765625)"/>
      <use xlink:href="#ArialMT-2e" transform="translate(584.514974 0.765625)"/>
     </g>
    </g>
    <g id="line2d_18">
     <path d="M 46.232875 273.4345 
L 55.032875 273.4345 
L 63.832875 273.4345 
" style="fill: none; stroke-dasharray: 7.68,1.92,1.2,1.92; stroke-dashoffset: 0; stroke: #bf00bf; stroke-width: 1.2"/>
    </g>
    <g id="text_20">
     <!-- True function -->
     <g style="fill: #262626" transform="translate(70.872875 276.5145) scale(0.088 -0.088)">
      <defs>
       <path id="ArialMT-54" d="M 1659 0 
L 1659 4041 
L 150 4041 
L 150 4581 
L 3781 4581 
L 3781 4041 
L 2266 4041 
L 2266 0 
L 1659 0 
z
" transform="scale(0.015625)"/>
       <path id="ArialMT-75" d="M 2597 0 
L 2597 488 
Q 2209 -75 1544 -75 
Q 1250 -75 995 37 
Q 741 150 617 320 
Q 494 491 444 738 
Q 409 903 409 1263 
L 409 3319 
L 972 3319 
L 972 1478 
Q 972 1038 1006 884 
Q 1059 663 1231 536 
Q 1403 409 1656 409 
Q 1909 409 2131 539 
Q 2353 669 2445 892 
Q 2538 1116 2538 1541 
L 2538 3319 
L 3100 3319 
L 3100 0 
L 2597 0 
z
" transform="scale(0.015625)"/>
       <path id="ArialMT-66" d="M 556 0 
L 556 2881 
L 59 2881 
L 59 3319 
L 556 3319 
L 556 3672 
Q 556 4006 616 4169 
Q 697 4388 901 4523 
Q 1106 4659 1475 4659 
Q 1713 4659 2000 4603 
L 1916 4113 
Q 1741 4144 1584 4144 
Q 1328 4144 1222 4034 
Q 1116 3925 1116 3625 
L 1116 3319 
L 1763 3319 
L 1763 2881 
L 1116 2881 
L 1116 0 
L 556 0 
z
" transform="scale(0.015625)"/>
       <path id="ArialMT-63" d="M 2588 1216 
L 3141 1144 
Q 3050 572 2676 248 
Q 2303 -75 1759 -75 
Q 1078 -75 664 370 
Q 250 816 250 1647 
Q 250 2184 428 2587 
Q 606 2991 970 3192 
Q 1334 3394 1763 3394 
Q 2303 3394 2647 3120 
Q 2991 2847 3088 2344 
L 2541 2259 
Q 2463 2594 2264 2762 
Q 2066 2931 1784 2931 
Q 1359 2931 1093 2626 
Q 828 2322 828 1663 
Q 828 994 1084 691 
Q 1341 388 1753 388 
Q 2084 388 2306 591 
Q 2528 794 2588 1216 
z
" transform="scale(0.015625)"/>
      </defs>
      <use xlink:href="#ArialMT-54"/>
      <use xlink:href="#ArialMT-72" x="57.333984"/>
      <use xlink:href="#ArialMT-75" x="90.634766"/>
      <use xlink:href="#ArialMT-65" x="146.25"/>
      <use xlink:href="#ArialMT-20" x="201.865234"/>
      <use xlink:href="#ArialMT-66" x="229.648438"/>
      <use xlink:href="#ArialMT-75" x="257.431641"/>
      <use xlink:href="#ArialMT-6e" x="313.046875"/>
      <use xlink:href="#ArialMT-63" x="368.662109"/>
      <use xlink:href="#ArialMT-74" x="418.662109"/>
      <use xlink:href="#ArialMT-69" x="446.445312"/>
      <use xlink:href="#ArialMT-6f" x="468.662109"/>
      <use xlink:href="#ArialMT-6e" x="524.277344"/>
     </g>
    </g>
   </g>
  </g>
  <g id="axes_2">
   <g id="matplotlib.axis_3">
    <g id="ytick_7">
     <g id="line2d_19">
      <defs>
       <path id="mc4e77d47c4" d="M 0 0 
L 4.8 0 
" style="stroke: #262626"/>
      </defs>
      <g>
       <use xlink:href="#mc4e77d47c4" x="395.432875" y="274.087357" style="fill: #262626; stroke: #262626"/>
      </g>
     </g>
     <g id="text_21">
      <!-- 0.00 -->
      <g style="fill: #ff7f0e" transform="translate(403.732875 277.236795) scale(0.088 -0.088)">
       <use xlink:href="#ArialMT-30"/>
       <use xlink:href="#ArialMT-2e" x="55.615234"/>
       <use xlink:href="#ArialMT-30" x="83.398438"/>
       <use xlink:href="#ArialMT-30" x="139.013672"/>
      </g>
     </g>
    </g>
    <g id="ytick_8">
     <g id="line2d_20">
      <g>
       <use xlink:href="#mc4e77d47c4" x="395.432875" y="229.244975" style="fill: #262626; stroke: #262626"/>
      </g>
     </g>
     <g id="text_22">
      <!-- 0.02 -->
      <g style="fill: #ff7f0e" transform="translate(403.732875 232.394413) scale(0.088 -0.088)">
       <use xlink:href="#ArialMT-30"/>
       <use xlink:href="#ArialMT-2e" x="55.615234"/>
       <use xlink:href="#ArialMT-30" x="83.398438"/>
       <use xlink:href="#ArialMT-32" x="139.013672"/>
      </g>
     </g>
    </g>
    <g id="ytick_9">
     <g id="line2d_21">
      <g>
       <use xlink:href="#mc4e77d47c4" x="395.432875" y="184.402594" style="fill: #262626; stroke: #262626"/>
      </g>
     </g>
     <g id="text_23">
      <!-- 0.04 -->
      <g style="fill: #ff7f0e" transform="translate(403.732875 187.552031) scale(0.088 -0.088)">
       <use xlink:href="#ArialMT-30"/>
       <use xlink:href="#ArialMT-2e" x="55.615234"/>
       <use xlink:href="#ArialMT-30" x="83.398438"/>
       <use xlink:href="#ArialMT-34" x="139.013672"/>
      </g>
     </g>
    </g>
    <g id="ytick_10">
     <g id="line2d_22">
      <g>
       <use xlink:href="#mc4e77d47c4" x="395.432875" y="139.560212" style="fill: #262626; stroke: #262626"/>
      </g>
     </g>
     <g id="text_24">
      <!-- 0.06 -->
      <g style="fill: #ff7f0e" transform="translate(403.732875 142.70965) scale(0.088 -0.088)">
       <use xlink:href="#ArialMT-30"/>
       <use xlink:href="#ArialMT-2e" x="55.615234"/>
       <use xlink:href="#ArialMT-30" x="83.398438"/>
       <use xlink:href="#ArialMT-36" x="139.013672"/>
      </g>
     </g>
    </g>
    <g id="ytick_11">
     <g id="line2d_23">
      <g>
       <use xlink:href="#mc4e77d47c4" x="395.432875" y="94.717831" style="fill: #262626; stroke: #262626"/>
      </g>
     </g>
     <g id="text_25">
      <!-- 0.08 -->
      <g style="fill: #ff7f0e" transform="translate(403.732875 97.867268) scale(0.088 -0.088)">
       <use xlink:href="#ArialMT-30"/>
       <use xlink:href="#ArialMT-2e" x="55.615234"/>
       <use xlink:href="#ArialMT-30" x="83.398438"/>
       <use xlink:href="#ArialMT-38" x="139.013672"/>
      </g>
     </g>
    </g>
    <g id="ytick_12">
     <g id="line2d_24">
      <g>
       <use xlink:href="#mc4e77d47c4" x="395.432875" y="49.875449" style="fill: #262626; stroke: #262626"/>
      </g>
     </g>
     <g id="text_26">
      <!-- 0.10 -->
      <g style="fill: #ff7f0e" transform="translate(403.732875 53.024886) scale(0.088 -0.088)">
       <use xlink:href="#ArialMT-30"/>
       <use xlink:href="#ArialMT-2e" x="55.615234"/>
       <use xlink:href="#ArialMT-31" x="83.398438"/>
       <use xlink:href="#ArialMT-30" x="139.013672"/>
      </g>
     </g>
    </g>
    <g id="text_27">
     <!-- Information Acquisition Function -->
     <g style="fill: #ff7f0e" transform="translate(431.847 221.16075) rotate(-90) scale(0.096 -0.096)">
      <defs>
       <path id="ArialMT-49" d="M 597 0 
L 597 4581 
L 1203 4581 
L 1203 0 
L 597 0 
z
" transform="scale(0.015625)"/>
       <path id="ArialMT-6d" d="M 422 0 
L 422 3319 
L 925 3319 
L 925 2853 
Q 1081 3097 1340 3245 
Q 1600 3394 1931 3394 
Q 2300 3394 2536 3241 
Q 2772 3088 2869 2813 
Q 3263 3394 3894 3394 
Q 4388 3394 4653 3120 
Q 4919 2847 4919 2278 
L 4919 0 
L 4359 0 
L 4359 2091 
Q 4359 2428 4304 2576 
Q 4250 2725 4106 2815 
Q 3963 2906 3769 2906 
Q 3419 2906 3187 2673 
Q 2956 2441 2956 1928 
L 2956 0 
L 2394 0 
L 2394 2156 
Q 2394 2531 2256 2718 
Q 2119 2906 1806 2906 
Q 1569 2906 1367 2781 
Q 1166 2656 1075 2415 
Q 984 2175 984 1722 
L 984 0 
L 422 0 
z
" transform="scale(0.015625)"/>
       <path id="ArialMT-41" d="M -9 0 
L 1750 4581 
L 2403 4581 
L 4278 0 
L 3588 0 
L 3053 1388 
L 1138 1388 
L 634 0 
L -9 0 
z
M 1313 1881 
L 2866 1881 
L 2388 3150 
Q 2169 3728 2063 4100 
Q 1975 3659 1816 3225 
L 1313 1881 
z
" transform="scale(0.015625)"/>
       <path id="ArialMT-71" d="M 2538 -1272 
L 2538 353 
Q 2406 169 2170 47 
Q 1934 -75 1669 -75 
Q 1078 -75 651 397 
Q 225 869 225 1691 
Q 225 2191 398 2587 
Q 572 2984 901 3189 
Q 1231 3394 1625 3394 
Q 2241 3394 2594 2875 
L 2594 3319 
L 3100 3319 
L 3100 -1272 
L 2538 -1272 
z
M 803 1669 
Q 803 1028 1072 708 
Q 1341 388 1716 388 
Q 2075 388 2334 692 
Q 2594 997 2594 1619 
Q 2594 2281 2320 2615 
Q 2047 2950 1678 2950 
Q 1313 2950 1058 2639 
Q 803 2328 803 1669 
z
" transform="scale(0.015625)"/>
       <path id="ArialMT-46" d="M 525 0 
L 525 4581 
L 3616 4581 
L 3616 4041 
L 1131 4041 
L 1131 2622 
L 3281 2622 
L 3281 2081 
L 1131 2081 
L 1131 0 
L 525 0 
z
" transform="scale(0.015625)"/>
      </defs>
      <use xlink:href="#ArialMT-49"/>
      <use xlink:href="#ArialMT-6e" x="27.783203"/>
      <use xlink:href="#ArialMT-66" x="83.398438"/>
      <use xlink:href="#ArialMT-6f" x="111.181641"/>
      <use xlink:href="#ArialMT-72" x="166.796875"/>
      <use xlink:href="#ArialMT-6d" x="200.097656"/>
      <use xlink:href="#ArialMT-61" x="283.398438"/>
      <use xlink:href="#ArialMT-74" x="339.013672"/>
      <use xlink:href="#ArialMT-69" x="366.796875"/>
      <use xlink:href="#ArialMT-6f" x="389.013672"/>
      <use xlink:href="#ArialMT-6e" x="444.628906"/>
      <use xlink:href="#ArialMT-20" x="500.244141"/>
      <use xlink:href="#ArialMT-41" x="522.527344"/>
      <use xlink:href="#ArialMT-63" x="589.226562"/>
      <use xlink:href="#ArialMT-71" x="639.226562"/>
      <use xlink:href="#ArialMT-75" x="694.841797"/>
      <use xlink:href="#ArialMT-69" x="750.457031"/>
      <use xlink:href="#ArialMT-73" x="772.673828"/>
      <use xlink:href="#ArialMT-69" x="822.673828"/>
      <use xlink:href="#ArialMT-74" x="844.890625"/>
      <use xlink:href="#ArialMT-69" x="872.673828"/>
      <use xlink:href="#ArialMT-6f" x="894.890625"/>
      <use xlink:href="#ArialMT-6e" x="950.505859"/>
      <use xlink:href="#ArialMT-20" x="1006.121094"/>
      <use xlink:href="#ArialMT-46" x="1033.904297"/>
      <use xlink:href="#ArialMT-75" x="1094.988281"/>
      <use xlink:href="#ArialMT-6e" x="1150.603516"/>
      <use xlink:href="#ArialMT-63" x="1206.21875"/>
      <use xlink:href="#ArialMT-74" x="1256.21875"/>
      <use xlink:href="#ArialMT-69" x="1284.001953"/>
      <use xlink:href="#ArialMT-6f" x="1306.21875"/>
      <use xlink:href="#ArialMT-6e" x="1361.833984"/>
     </g>
    </g>
   </g>
   <g id="line2d_25">
    <path d="M 54.545602 204.082844 
L 57.824941 225.243598 
L 61.10428 241.480193 
L 64.383619 253.357803 
L 67.662958 261.586237 
L 70.942296 266.949147 
L 74.221636 270.218621 
L 77.500973 272.07687 
L 80.780313 273.062691 
L 84.059653 273.554268 
L 87.33899 273.786724 
L 90.61833 273.888924 
L 93.89767 273.922225 
L 97.177007 273.905323 
L 100.456344 273.821411 
L 103.735686 273.598965 
L 107.015024 273.051244 
L 110.294361 271.759492 
L 113.573703 268.916702 
L 116.853041 263.224806 
L 120.132378 252.992221 
L 123.41172 236.532388 
L 126.691057 212.799994 
L 129.970395 182.040797 
L 133.249737 146.17766 
L 136.529069 108.735125 
L 139.808412 74.287578 
L 143.087754 47.602367 
L 146.367086 32.715076 
L 149.646428 32.1675 
L 152.92577 46.520028 
L 156.205103 74.158213 
L 159.484445 111.41569 
L 162.763787 153.058002 
L 166.04312 193.203304 
L 169.322462 226.657383 
L 172.601804 250.368369 
L 175.881137 264.274884 
L 179.160479 270.811775 
L 182.439821 273.209992 
L 185.719153 273.892852 
L 188.998496 274.048767 
L 192.277838 274.07951 
L 195.55717 274.085629 
L 198.836512 274.086846 
L 202.115855 274.087152 
L 205.395187 274.087231 
L 208.674529 274.08731 
L 211.953871 274.087199 
L 215.233204 274.087333 
L 218.512556 274.087309 
L 221.791879 274.0875 
L 225.071221 274.087267 
L 228.350563 274.087323 
L 231.629886 274.087347 
L 234.909247 274.087355 
L 238.18857 274.087357 
L 241.467912 274.087357 
L 244.747254 274.087357 
L 248.026597 274.087357 
L 251.305939 274.087357 
L 254.585262 274.087357 
L 257.864623 274.087357 
L 261.143946 274.087357 
L 264.423288 274.087357 
L 267.70263 274.087357 
L 270.981953 274.087357 
L 274.261315 274.087357 
L 277.540637 274.087357 
L 280.81998 274.087357 
L 284.099322 274.087357 
L 287.378664 274.087357 
L 290.658006 274.087357 
L 293.937329 274.087357 
L 297.21669 274.087357 
L 300.496013 274.087357 
L 303.775355 274.087357 
L 307.054697 274.087357 
L 310.33402 274.087357 
L 313.613382 274.087357 
L 316.892705 274.087353 
L 320.172047 274.08733 
L 323.451389 274.087218 
L 326.730731 274.087335 
L 330.010073 274.087376 
L 333.289396 274.087135 
L 336.568738 274.086917 
L 339.84808 274.086601 
L 343.127423 274.085854 
L 346.406765 274.084486 
L 349.686088 274.080734 
L 352.96543 274.069172 
L 356.244772 274.023443 
L 359.524114 273.818516 
L 362.803456 272.920346 
L 366.082798 269.628497 
L 369.362141 260.413072 
L 372.641463 240.887855 
L 375.920806 208.235696 
L 379.200148 162.601519 
" clip-path="url(#pe29ab7b845)" style="fill: none; stroke: #ff7f0e; stroke-width: 1.2; stroke-linecap: round"/>
   </g>
   <g id="line2d_26">
    <path d="M 149.646428 274.087357 
L 149.646428 271.643722 
L 149.646428 269.200087 
L 149.646428 266.756452 
L 149.646428 264.312817 
L 149.646428 261.869182 
L 149.646428 259.425547 
L 149.646428 256.981912 
L 149.646428 254.538277 
L 149.646428 252.094642 
L 149.646428 249.651007 
L 149.646428 247.207372 
L 149.646428 244.763737 
L 149.646428 242.320102 
L 149.646428 239.876467 
L 149.646428 237.432834 
L 149.646428 234.989197 
L 149.646428 232.54556 
L 149.646428 230.101927 
L 149.646428 227.658294 
L 149.646428 225.214657 
L 149.646428 222.771019 
L 149.646428 220.327386 
L 149.646428 217.883754 
L 149.646428 215.440116 
L 149.646428 212.996479 
L 149.646428 210.552846 
L 149.646428 208.109213 
L 149.646428 205.665576 
L 149.646428 203.221939 
L 149.646428 200.77831 
L 149.646428 198.334673 
L 149.646428 195.891036 
L 149.646428 193.447399 
L 149.646428 191.003762 
L 149.646428 188.560133 
L 149.646428 186.116496 
L 149.646428 183.672859 
L 149.646428 181.22923 
L 149.646428 178.785593 
L 149.646428 176.341956 
L 149.646428 173.898319 
L 149.646428 171.454682 
L 149.646428 169.011053 
L 149.646428 166.567416 
L 149.646428 164.123779 
L 149.646428 161.68015 
L 149.646428 159.236513 
L 149.646428 156.792876 
L 149.646428 154.349239 
L 149.646428 151.905618 
L 149.646428 149.461981 
L 149.646428 147.018344 
L 149.646428 144.574707 
L 149.646428 142.131078 
L 149.646428 139.687441 
L 149.646428 137.243804 
L 149.646428 134.800175 
L 149.646428 132.356538 
L 149.646428 129.912901 
L 149.646428 127.469264 
L 149.646428 125.025627 
L 149.646428 122.58199 
L 149.646428 120.138369 
L 149.646428 117.694715 
L 149.646428 115.251095 
L 149.646428 112.807458 
L 149.646428 110.363821 
L 149.646428 107.920184 
L 149.646428 105.476547 
L 149.646428 103.032926 
L 149.646428 100.589272 
L 149.646428 98.145652 
L 149.646428 95.702015 
L 149.646428 93.258378 
L 149.646428 90.814741 
L 149.646428 88.371103 
L 149.646428 85.927466 
L 149.646428 83.483829 
L 149.646428 81.040209 
L 149.646428 78.596555 
L 149.646428 76.152935 
L 149.646428 73.709298 
L 149.646428 71.26566 
L 149.646428 68.822023 
L 149.646428 66.378386 
L 149.646428 63.934749 
L 149.646428 61.491112 
L 149.646428 59.047492 
L 149.646428 56.603854 
L 149.646428 54.160217 
L 149.646428 51.71658 
L 149.646428 49.272943 
L 149.646428 46.829306 
L 149.646428 44.385669 
L 149.646428 41.942048 
L 149.646428 39.498411 
L 149.646428 37.054774 
L 149.646428 34.611137 
L 149.646428 32.1675 
" clip-path="url(#pe29ab7b845)" style="fill: none; stroke: #ff7f0e; stroke-linecap: round"/>
   </g>
   <g id="patch_7">
    <path d="M 38.312875 286.1835 
L 38.312875 20.0715 
" style="fill: none; stroke: #262626; stroke-linejoin: miter; stroke-linecap: square"/>
   </g>
   <g id="patch_8">
    <path d="M 395.432875 286.1835 
L 395.432875 20.0715 
" style="fill: none; stroke: #262626; stroke-linejoin: miter; stroke-linecap: square"/>
   </g>
   <g id="patch_9">
    <path d="M 38.312875 286.1835 
L 395.432875 286.1835 
" style="fill: none; stroke: #262626; stroke-linejoin: miter; stroke-linecap: square"/>
   </g>
   <g id="patch_10">
    <path d="M 38.312875 20.0715 
L 395.432875 20.0715 
" style="fill: none; stroke: #262626; stroke-linejoin: miter; stroke-linecap: square"/>
   </g>
  </g>
 </g>
 <defs>
  <clipPath id="pe29ab7b845">
   <rect x="38.312875" y="20.0715" width="357.12" height="266.112"/>
  </clipPath>
 </defs>
</svg>