<?xml version="1.0" encoding="utf-8" standalone="no"?>
<!DOCTYPE svg PUBLIC "-//W3C//DTD SVG 1.1//EN"
  "http://www.w3.org/Graphics/SVG/1.1/DTD/svg11.dtd">
<svg xmlns:xlink="http://www.w3.org/1999/xlink" width="407.280375pt" height="309.979875pt" viewBox="0 0 407.280375 309.979875" xmlns="http://www.w3.org/2000/svg" version="1.1">
 <metadata>
  <rdf:RDF xmlns:dc="http://purl.org/dc/elements/1.1/" xmlns:cc="http://creativecommons.org/ns#" xmlns:rdf="http://www.w3.org/1999/02/22-rdf-syntax-ns#">
   <cc:Work>
    <dc:type rdf:resource="http://purl.org/dc/dcmitype/StillImage"/>
    <dc:date>2023-08-15T14:42:59.075388</dc:date>
    <dc:format>image/svg+xml</dc:format>
    <dc:creator>
     <cc:Agent>
      <dc:title>Matplotlib v3.7.1, https://matplotlib.org/</dc:title>
     </cc:Agent>
    </dc:creator>
   </cc:Work>
  </rdf:RDF>
 </metadata>
 <defs>
  <style type="text/css">*{stroke-linejoin: round; stroke-linecap: butt}</style>
 </defs>
 <g id="figure_1">
  <g id="patch_1">
   <path d="M -0 309.979875 
L 407.280375 309.979875 
L 407.280375 0 
L -0 0 
z
" style="fill: #ffffff"/>
  </g>
  <g id="axes_1">
   <g id="patch_2">
    <path d="M 42.960375 273.312 
L 400.080375 273.312 
L 400.080375 7.2 
L 42.960375 7.2 
z
" style="fill: #ffffff"/>
   </g>
   <g id="matplotlib.axis_1">
    <g id="xtick_1">
     <g id="line2d_1">
      <defs>
       <path id="m4f4375d242" d="M 0 0 
L 0 4.8 
" style="stroke: #262626"/>
      </defs>
      <g>
       <use xlink:href="#m4f4375d242" x="59.193102" y="273.312" style="fill: #262626; stroke: #262626"/>
      </g>
     </g>
     <g id="text_1">
      <!-- 0.0 -->
      <g style="fill: #262626" transform="translate(53.077102 287.910875) scale(0.088 -0.088)">
       <defs>
        <path id="ArialMT-30" d="M 266 2259 
Q 266 3072 433 3567 
Q 600 4063 929 4331 
Q 1259 4600 1759 4600 
Q 2128 4600 2406 4451 
Q 2684 4303 2865 4023 
Q 3047 3744 3150 3342 
Q 3253 2941 3253 2259 
Q 3253 1453 3087 958 
Q 2922 463 2592 192 
Q 2263 -78 1759 -78 
Q 1097 -78 719 397 
Q 266 969 266 2259 
z
M 844 2259 
Q 844 1131 1108 757 
Q 1372 384 1759 384 
Q 2147 384 2411 759 
Q 2675 1134 2675 2259 
Q 2675 3391 2411 3762 
Q 2147 4134 1753 4134 
Q 1366 4134 1134 3806 
Q 844 3388 844 2259 
z
" transform="scale(0.015625)"/>
        <path id="ArialMT-2e" d="M 581 0 
L 581 641 
L 1222 641 
L 1222 0 
L 581 0 
z
" transform="scale(0.015625)"/>
       </defs>
       <use xlink:href="#ArialMT-30"/>
       <use xlink:href="#ArialMT-2e" x="55.615234"/>
       <use xlink:href="#ArialMT-30" x="83.398438"/>
      </g>
     </g>
    </g>
    <g id="xtick_2">
     <g id="line2d_2">
      <g>
       <use xlink:href="#m4f4375d242" x="124.124011" y="273.312" style="fill: #262626; stroke: #262626"/>
      </g>
     </g>
     <g id="text_2">
      <!-- 0.2 -->
      <g style="fill: #262626" transform="translate(118.008011 287.910875) scale(0.088 -0.088)">
       <defs>
        <path id="ArialMT-32" d="M 3222 541 
L 3222 0 
L 194 0 
Q 188 203 259 391 
Q 375 700 629 1000 
Q 884 1300 1366 1694 
Q 2113 2306 2375 2664 
Q 2638 3022 2638 3341 
Q 2638 3675 2398 3904 
Q 2159 4134 1775 4134 
Q 1369 4134 1125 3890 
Q 881 3647 878 3216 
L 300 3275 
Q 359 3922 746 4261 
Q 1134 4600 1788 4600 
Q 2447 4600 2831 4234 
Q 3216 3869 3216 3328 
Q 3216 3053 3103 2787 
Q 2991 2522 2730 2228 
Q 2469 1934 1863 1422 
Q 1356 997 1212 845 
Q 1069 694 975 541 
L 3222 541 
z
" transform="scale(0.015625)"/>
       </defs>
       <use xlink:href="#ArialMT-30"/>
       <use xlink:href="#ArialMT-2e" x="55.615234"/>
       <use xlink:href="#ArialMT-32" x="83.398438"/>
      </g>
     </g>
    </g>
    <g id="xtick_3">
     <g id="line2d_3">
      <g>
       <use xlink:href="#m4f4375d242" x="189.05492" y="273.312" style="fill: #262626; stroke: #262626"/>
      </g>
     </g>
     <g id="text_3">
      <!-- 0.4 -->
      <g style="fill: #262626" transform="translate(182.93892 287.910875) scale(0.088 -0.088)">
       <defs>
        <path id="ArialMT-34" d="M 2069 0 
L 2069 1097 
L 81 1097 
L 81 1613 
L 2172 4581 
L 2631 4581 
L 2631 1613 
L 3250 1613 
L 3250 1097 
L 2631 1097 
L 2631 0 
L 2069 0 
z
M 2069 1613 
L 2069 3678 
L 634 1613 
L 2069 1613 
z
" transform="scale(0.015625)"/>
       </defs>
       <use xlink:href="#ArialMT-30"/>
       <use xlink:href="#ArialMT-2e" x="55.615234"/>
       <use xlink:href="#ArialMT-34" x="83.398438"/>
      </g>
     </g>
    </g>
    <g id="xtick_4">
     <g id="line2d_4">
      <g>
       <use xlink:href="#m4f4375d242" x="253.98583" y="273.312" style="fill: #262626; stroke: #262626"/>
      </g>
     </g>
     <g id="text_4">
      <!-- 0.6 -->
      <g style="fill: #262626" transform="translate(247.86983 287.910875) scale(0.088 -0.088)">
       <defs>
        <path id="ArialMT-36" d="M 3184 3459 
L 2625 3416 
Q 2550 3747 2413 3897 
Q 2184 4138 1850 4138 
Q 1581 4138 1378 3988 
Q 1113 3794 959 3422 
Q 806 3050 800 2363 
Q 1003 2672 1297 2822 
Q 1591 2972 1913 2972 
Q 2475 2972 2870 2558 
Q 3266 2144 3266 1488 
Q 3266 1056 3080 686 
Q 2894 316 2569 119 
Q 2244 -78 1831 -78 
Q 1128 -78 684 439 
Q 241 956 241 2144 
Q 241 3472 731 4075 
Q 1159 4600 1884 4600 
Q 2425 4600 2770 4297 
Q 3116 3994 3184 3459 
z
M 888 1484 
Q 888 1194 1011 928 
Q 1134 663 1356 523 
Q 1578 384 1822 384 
Q 2178 384 2434 671 
Q 2691 959 2691 1453 
Q 2691 1928 2437 2201 
Q 2184 2475 1800 2475 
Q 1419 2475 1153 2201 
Q 888 1928 888 1484 
z
" transform="scale(0.015625)"/>
       </defs>
       <use xlink:href="#ArialMT-30"/>
       <use xlink:href="#ArialMT-2e" x="55.615234"/>
       <use xlink:href="#ArialMT-36" x="83.398438"/>
      </g>
     </g>
    </g>
    <g id="xtick_5">
     <g id="line2d_5">
      <g>
       <use xlink:href="#m4f4375d242" x="318.916739" y="273.312" style="fill: #262626; stroke: #262626"/>
      </g>
     </g>
     <g id="text_5">
      <!-- 0.8 -->
      <g style="fill: #262626" transform="translate(312.800739 287.910875) scale(0.088 -0.088)">
       <defs>
        <path id="ArialMT-38" d="M 1131 2484 
Q 781 2613 612 2850 
Q 444 3088 444 3419 
Q 444 3919 803 4259 
Q 1163 4600 1759 4600 
Q 2359 4600 2725 4251 
Q 3091 3903 3091 3403 
Q 3091 3084 2923 2848 
Q 2756 2613 2416 2484 
Q 2838 2347 3058 2040 
Q 3278 1734 3278 1309 
Q 3278 722 2862 322 
Q 2447 -78 1769 -78 
Q 1091 -78 675 323 
Q 259 725 259 1325 
Q 259 1772 486 2073 
Q 713 2375 1131 2484 
z
M 1019 3438 
Q 1019 3113 1228 2906 
Q 1438 2700 1772 2700 
Q 2097 2700 2305 2904 
Q 2513 3109 2513 3406 
Q 2513 3716 2298 3927 
Q 2084 4138 1766 4138 
Q 1444 4138 1231 3931 
Q 1019 3725 1019 3438 
z
M 838 1322 
Q 838 1081 952 856 
Q 1066 631 1291 507 
Q 1516 384 1775 384 
Q 2178 384 2440 643 
Q 2703 903 2703 1303 
Q 2703 1709 2433 1975 
Q 2163 2241 1756 2241 
Q 1359 2241 1098 1978 
Q 838 1716 838 1322 
z
" transform="scale(0.015625)"/>
       </defs>
       <use xlink:href="#ArialMT-30"/>
       <use xlink:href="#ArialMT-2e" x="55.615234"/>
       <use xlink:href="#ArialMT-38" x="83.398438"/>
      </g>
     </g>
    </g>
    <g id="xtick_6">
     <g id="line2d_6">
      <g>
       <use xlink:href="#m4f4375d242" x="383.847648" y="273.312" style="fill: #262626; stroke: #262626"/>
      </g>
     </g>
     <g id="text_6">
      <!-- 1.0 -->
      <g style="fill: #262626" transform="translate(377.731648 287.910875) scale(0.088 -0.088)">
       <defs>
        <path id="ArialMT-31" d="M 2384 0 
L 1822 0 
L 1822 3584 
Q 1619 3391 1289 3197 
Q 959 3003 697 2906 
L 697 3450 
Q 1169 3672 1522 3987 
Q 1875 4303 2022 4600 
L 2384 4600 
L 2384 0 
z
" transform="scale(0.015625)"/>
       </defs>
       <use xlink:href="#ArialMT-31"/>
       <use xlink:href="#ArialMT-2e" x="55.615234"/>
       <use xlink:href="#ArialMT-30" x="83.398438"/>
      </g>
     </g>
    </g>
    <g id="text_7">
     <!-- $x$ (m) -->
     <g style="fill: #262626" transform="translate(210.144375 300.667875) scale(0.096 -0.096)">
      <defs>
       <path id="DejaVuSans-Oblique-78" d="M 3841 3500 
L 2234 1784 
L 3219 0 
L 2559 0 
L 1819 1388 
L 531 0 
L -166 0 
L 1556 1844 
L 641 3500 
L 1300 3500 
L 1972 2234 
L 3144 3500 
L 3841 3500 
z
" transform="scale(0.015625)"/>
       <path id="ArialMT-20" transform="scale(0.015625)"/>
       <path id="ArialMT-28" d="M 1497 -1347 
Q 1031 -759 709 28 
Q 388 816 388 1659 
Q 388 2403 628 3084 
Q 909 3875 1497 4659 
L 1900 4659 
Q 1522 4009 1400 3731 
Q 1209 3300 1100 2831 
Q 966 2247 966 1656 
Q 966 153 1900 -1347 
L 1497 -1347 
z
" transform="scale(0.015625)"/>
       <path id="ArialMT-6d" d="M 422 0 
L 422 3319 
L 925 3319 
L 925 2853 
Q 1081 3097 1340 3245 
Q 1600 3394 1931 3394 
Q 2300 3394 2536 3241 
Q 2772 3088 2869 2813 
Q 3263 3394 3894 3394 
Q 4388 3394 4653 3120 
Q 4919 2847 4919 2278 
L 4919 0 
L 4359 0 
L 4359 2091 
Q 4359 2428 4304 2576 
Q 4250 2725 4106 2815 
Q 3963 2906 3769 2906 
Q 3419 2906 3187 2673 
Q 2956 2441 2956 1928 
L 2956 0 
L 2394 0 
L 2394 2156 
Q 2394 2531 2256 2718 
Q 2119 2906 1806 2906 
Q 1569 2906 1367 2781 
Q 1166 2656 1075 2415 
Q 984 2175 984 1722 
L 984 0 
L 422 0 
z
" transform="scale(0.015625)"/>
       <path id="ArialMT-29" d="M 791 -1347 
L 388 -1347 
Q 1322 153 1322 1656 
Q 1322 2244 1188 2822 
Q 1081 3291 891 3722 
Q 769 4003 388 4659 
L 791 4659 
Q 1378 3875 1659 3084 
Q 1900 2403 1900 1659 
Q 1900 816 1576 28 
Q 1253 -759 791 -1347 
z
" transform="scale(0.015625)"/>
      </defs>
      <use xlink:href="#DejaVuSans-Oblique-78" transform="translate(0 0.203125)"/>
      <use xlink:href="#ArialMT-20" transform="translate(59.179688 0.203125)"/>
      <use xlink:href="#ArialMT-28" transform="translate(86.962891 0.203125)"/>
      <use xlink:href="#ArialMT-6d" transform="translate(120.263672 0.203125)"/>
      <use xlink:href="#ArialMT-29" transform="translate(203.564453 0.203125)"/>
     </g>
    </g>
   </g>
   <g id="matplotlib.axis_2">
    <g id="ytick_1">
     <g id="line2d_7">
      <defs>
       <path id="mbc02e2daa2" d="M 0 0 
L -4.8 0 
" style="stroke: #262626"/>
      </defs>
      <g>
       <use xlink:href="#mbc02e2daa2" x="42.960375" y="263.659636" style="fill: #262626; stroke: #262626"/>
      </g>
     </g>
     <g id="text_8">
      <!-- 0 -->
      <g style="fill: #262626" transform="translate(29.76675 266.809074) scale(0.088 -0.088)">
       <use xlink:href="#ArialMT-30"/>
      </g>
     </g>
    </g>
    <g id="ytick_2">
     <g id="line2d_8">
      <g>
       <use xlink:href="#mbc02e2daa2" x="42.960375" y="233.114182" style="fill: #262626; stroke: #262626"/>
      </g>
     </g>
     <g id="text_9">
      <!-- 50 -->
      <g style="fill: #262626" transform="translate(24.873125 236.263619) scale(0.088 -0.088)">
       <defs>
        <path id="ArialMT-35" d="M 266 1200 
L 856 1250 
Q 922 819 1161 601 
Q 1400 384 1738 384 
Q 2144 384 2425 690 
Q 2706 997 2706 1503 
Q 2706 1984 2436 2262 
Q 2166 2541 1728 2541 
Q 1456 2541 1237 2417 
Q 1019 2294 894 2097 
L 366 2166 
L 809 4519 
L 3088 4519 
L 3088 3981 
L 1259 3981 
L 1013 2750 
Q 1425 3038 1878 3038 
Q 2478 3038 2890 2622 
Q 3303 2206 3303 1553 
Q 3303 931 2941 478 
Q 2500 -78 1738 -78 
Q 1113 -78 717 272 
Q 322 622 266 1200 
z
" transform="scale(0.015625)"/>
       </defs>
       <use xlink:href="#ArialMT-35"/>
       <use xlink:href="#ArialMT-30" x="55.615234"/>
      </g>
     </g>
    </g>
    <g id="ytick_3">
     <g id="line2d_9">
      <g>
       <use xlink:href="#mbc02e2daa2" x="42.960375" y="202.568727" style="fill: #262626; stroke: #262626"/>
      </g>
     </g>
     <g id="text_10">
      <!-- 100 -->
      <g style="fill: #262626" transform="translate(19.9795 205.718165) scale(0.088 -0.088)">
       <use xlink:href="#ArialMT-31"/>
       <use xlink:href="#ArialMT-30" x="55.615234"/>
       <use xlink:href="#ArialMT-30" x="111.230469"/>
      </g>
     </g>
    </g>
    <g id="ytick_4">
     <g id="line2d_10">
      <g>
       <use xlink:href="#mbc02e2daa2" x="42.960375" y="172.023273" style="fill: #262626; stroke: #262626"/>
      </g>
     </g>
     <g id="text_11">
      <!-- 150 -->
      <g style="fill: #262626" transform="translate(19.9795 175.17271) scale(0.088 -0.088)">
       <use xlink:href="#ArialMT-31"/>
       <use xlink:href="#ArialMT-35" x="55.615234"/>
       <use xlink:href="#ArialMT-30" x="111.230469"/>
      </g>
     </g>
    </g>
    <g id="ytick_5">
     <g id="line2d_11">
      <g>
       <use xlink:href="#mbc02e2daa2" x="42.960375" y="141.477818" style="fill: #262626; stroke: #262626"/>
      </g>
     </g>
     <g id="text_12">
      <!-- 200 -->
      <g style="fill: #262626" transform="translate(19.9795 144.627256) scale(0.088 -0.088)">
       <use xlink:href="#ArialMT-32"/>
       <use xlink:href="#ArialMT-30" x="55.615234"/>
       <use xlink:href="#ArialMT-30" x="111.230469"/>
      </g>
     </g>
    </g>
    <g id="ytick_6">
     <g id="line2d_12">
      <g>
       <use xlink:href="#mbc02e2daa2" x="42.960375" y="110.932364" style="fill: #262626; stroke: #262626"/>
      </g>
     </g>
     <g id="text_13">
      <!-- 250 -->
      <g style="fill: #262626" transform="translate(19.9795 114.081801) scale(0.088 -0.088)">
       <use xlink:href="#ArialMT-32"/>
       <use xlink:href="#ArialMT-35" x="55.615234"/>
       <use xlink:href="#ArialMT-30" x="111.230469"/>
      </g>
     </g>
    </g>
    <g id="ytick_7">
     <g id="line2d_13">
      <g>
       <use xlink:href="#mbc02e2daa2" x="42.960375" y="80.386909" style="fill: #262626; stroke: #262626"/>
      </g>
     </g>
     <g id="text_14">
      <!-- 300 -->
      <g style="fill: #262626" transform="translate(19.9795 83.536347) scale(0.088 -0.088)">
       <defs>
        <path id="ArialMT-33" d="M 269 1209 
L 831 1284 
Q 928 806 1161 595 
Q 1394 384 1728 384 
Q 2125 384 2398 659 
Q 2672 934 2672 1341 
Q 2672 1728 2419 1979 
Q 2166 2231 1775 2231 
Q 1616 2231 1378 2169 
L 1441 2663 
Q 1497 2656 1531 2656 
Q 1891 2656 2178 2843 
Q 2466 3031 2466 3422 
Q 2466 3731 2256 3934 
Q 2047 4138 1716 4138 
Q 1388 4138 1169 3931 
Q 950 3725 888 3313 
L 325 3413 
Q 428 3978 793 4289 
Q 1159 4600 1703 4600 
Q 2078 4600 2393 4439 
Q 2709 4278 2876 4000 
Q 3044 3722 3044 3409 
Q 3044 3113 2884 2869 
Q 2725 2625 2413 2481 
Q 2819 2388 3044 2092 
Q 3269 1797 3269 1353 
Q 3269 753 2831 336 
Q 2394 -81 1725 -81 
Q 1122 -81 723 278 
Q 325 638 269 1209 
z
" transform="scale(0.015625)"/>
       </defs>
       <use xlink:href="#ArialMT-33"/>
       <use xlink:href="#ArialMT-30" x="55.615234"/>
       <use xlink:href="#ArialMT-30" x="111.230469"/>
      </g>
     </g>
    </g>
    <g id="ytick_8">
     <g id="line2d_14">
      <g>
       <use xlink:href="#mbc02e2daa2" x="42.960375" y="49.841455" style="fill: #262626; stroke: #262626"/>
      </g>
     </g>
     <g id="text_15">
      <!-- 350 -->
      <g style="fill: #262626" transform="translate(19.9795 52.990892) scale(0.088 -0.088)">
       <use xlink:href="#ArialMT-33"/>
       <use xlink:href="#ArialMT-35" x="55.615234"/>
       <use xlink:href="#ArialMT-30" x="111.230469"/>
      </g>
     </g>
    </g>
    <g id="ytick_9">
     <g id="line2d_15">
      <g>
       <use xlink:href="#mbc02e2daa2" x="42.960375" y="19.296" style="fill: #262626; stroke: #262626"/>
      </g>
     </g>
     <g id="text_16">
      <!-- 400 -->
      <g style="fill: #262626" transform="translate(19.9795 22.445437) scale(0.088 -0.088)">
       <use xlink:href="#ArialMT-34"/>
       <use xlink:href="#ArialMT-30" x="55.615234"/>
       <use xlink:href="#ArialMT-30" x="111.230469"/>
      </g>
     </g>
    </g>
    <g id="text_17">
     <!-- $T(x)\;(^\circ C)$ -->
     <g style="fill: #262626" transform="translate(14.0715 161.76) rotate(-90) scale(0.096 -0.096)">
      <defs>
       <path id="DejaVuSans-Oblique-54" d="M 378 4666 
L 4325 4666 
L 4225 4134 
L 2559 4134 
L 1759 0 
L 1125 0 
L 1925 4134 
L 275 4134 
L 378 4666 
z
" transform="scale(0.015625)"/>
       <path id="DejaVuSans-28" d="M 1984 4856 
Q 1566 4138 1362 3434 
Q 1159 2731 1159 2009 
Q 1159 1288 1364 580 
Q 1569 -128 1984 -844 
L 1484 -844 
Q 1016 -109 783 600 
Q 550 1309 550 2009 
Q 550 2706 781 3412 
Q 1013 4119 1484 4856 
L 1984 4856 
z
" transform="scale(0.015625)"/>
       <path id="DejaVuSans-29" d="M 513 4856 
L 1013 4856 
Q 1481 4119 1714 3412 
Q 1947 2706 1947 2009 
Q 1947 1309 1714 600 
Q 1481 -109 1013 -844 
L 513 -844 
Q 928 -128 1133 580 
Q 1338 1288 1338 2009 
Q 1338 2731 1133 3434 
Q 928 4138 513 4856 
z
" transform="scale(0.015625)"/>
       <path id="DejaVuSans-2218" d="M 2000 2619 
Q 1750 2619 1578 2445 
Q 1406 2272 1406 2022 
Q 1406 1775 1578 1605 
Q 1750 1435 2000 1435 
Q 2250 1435 2422 1605 
Q 2594 1775 2594 2022 
Q 2594 2269 2420 2444 
Q 2247 2619 2000 2619 
z
M 2000 3022 
Q 2200 3022 2384 2945 
Q 2569 2869 2703 2725 
Q 2847 2585 2919 2406 
Q 2991 2228 2991 2022 
Q 2991 1610 2702 1324 
Q 2413 1038 1994 1038 
Q 1572 1038 1290 1319 
Q 1009 1600 1009 2022 
Q 1009 2441 1296 2731 
Q 1584 3022 2000 3022 
z
" transform="scale(0.015625)"/>
       <path id="DejaVuSans-Oblique-43" d="M 4447 4306 
L 4319 3641 
Q 4019 3944 3683 4091 
Q 3347 4238 2956 4238 
Q 2422 4238 2017 3981 
Q 1613 3725 1319 3200 
Q 1131 2863 1032 2486 
Q 934 2109 934 1728 
Q 934 1091 1264 756 
Q 1594 422 2222 422 
Q 2656 422 3056 561 
Q 3456 700 3834 978 
L 3688 231 
Q 3316 72 2936 -9 
Q 2556 -91 2175 -91 
Q 1278 -91 773 396 
Q 269 884 269 1753 
Q 269 2309 461 2846 
Q 653 3384 1013 3828 
Q 1394 4300 1883 4525 
Q 2372 4750 3022 4750 
Q 3422 4750 3780 4639 
Q 4138 4528 4447 4306 
z
" transform="scale(0.015625)"/>
      </defs>
      <use xlink:href="#DejaVuSans-Oblique-54" transform="translate(0 0.125)"/>
      <use xlink:href="#DejaVuSans-28" transform="translate(61.083984 0.125)"/>
      <use xlink:href="#DejaVuSans-Oblique-78" transform="translate(100.097656 0.125)"/>
      <use xlink:href="#DejaVuSans-29" transform="translate(159.277344 0.125)"/>
      <use xlink:href="#DejaVuSans-28" transform="translate(225.350151 0.125)"/>
      <use xlink:href="#DejaVuSans-2218" transform="translate(278.95855 38.40625) scale(0.7)"/>
      <use xlink:href="#DejaVuSans-Oblique-43" transform="translate(339.148979 0.125)"/>
      <use xlink:href="#DejaVuSans-29" transform="translate(408.973198 0.125)"/>
     </g>
    </g>
   </g>
   <g id="line2d_16">
    <path d="M 59.193102 19.296 
L 59.842411 20.242555 
L 78.672375 20.307491 
L 79.321684 21.254045 
L 83.866848 34.490134 
L 84.516157 35.436689 
L 95.554411 35.474755 
L 96.20372 36.421309 
L 104.644739 61.002617 
L 105.294048 61.949172 
L 112.436448 61.973803 
L 113.085757 62.920357 
L 118.929539 79.938186 
L 119.578848 80.88474 
L 148.797757 80.985504 
L 149.447066 81.932058 
L 150.745684 85.713798 
L 151.394993 86.660352 
L 152.044302 86.662591 
L 152.693611 87.609146 
L 167.62772 131.099152 
L 168.27703 132.045706 
L 168.926339 132.047946 
L 169.575648 132.9945 
L 172.172884 140.557979 
L 172.822193 141.504534 
L 220.221757 141.667995 
L 220.871066 142.614549 
L 222.169684 146.396289 
L 222.818993 147.342843 
L 236.454484 147.389866 
L 237.103793 148.336421 
L 237.753102 150.227291 
L 238.402411 151.173845 
L 243.596884 151.191759 
L 244.246193 152.138313 
L 248.142048 163.483532 
L 248.791357 164.430086 
L 253.98583 164.448 
L 254.635139 165.394555 
L 265.024084 195.648472 
L 265.673393 196.595026 
L 307.229175 196.738334 
L 307.878484 197.684889 
L 309.826411 203.357498 
L 310.47572 204.304053 
L 326.708448 204.360032 
L 327.357757 205.306587 
L 328.007066 207.197457 
L 328.656375 208.144011 
L 333.850848 208.161925 
L 334.500157 209.108479 
L 337.097393 216.671959 
L 337.746702 217.618513 
L 356.576666 217.683449 
L 357.225975 218.630004 
L 365.666993 243.211312 
L 366.316302 244.157866 
L 377.354557 244.195932 
L 378.003866 245.142487 
L 383.198339 260.269445 
L 383.847648 261.216 
L 383.847648 261.216 
" clip-path="url(#p381a2c9e38)" style="fill: none; stroke: #ff0000; stroke-width: 0.5; stroke-linecap: round"/>
   </g>
   <g id="line2d_17">
    <path d="M 59.193102 19.296 
L 82.56823 19.396647 
L 83.217539 20.578473 
L 90.359939 46.547887 
L 91.009248 47.729712 
L 119.578848 47.852725 
L 120.228157 49.034551 
L 122.176084 56.117119 
L 122.825393 57.298944 
L 128.019866 57.32131 
L 128.669175 58.503136 
L 129.967793 63.224848 
L 130.617102 64.406673 
L 132.56503 64.415061 
L 133.214339 65.596886 
L 144.252593 105.731435 
L 144.901902 106.913261 
L 146.20052 106.918852 
L 146.84983 108.100678 
L 148.797757 115.183245 
L 149.447066 116.365071 
L 192.950775 116.552387 
L 193.600084 117.734212 
L 194.898702 122.455924 
L 195.548011 123.63775 
L 196.84663 123.643341 
L 197.495939 124.825167 
L 198.145248 127.186023 
L 198.794557 128.367849 
L 220.871066 128.462904 
L 221.520375 129.64473 
L 229.961393 160.335855 
L 230.610702 161.517681 
L 233.857248 161.53166 
L 235.155866 163.895311 
L 252.687211 163.970796 
L 253.33652 165.152622 
L 258.530993 184.039469 
L 259.180302 185.221294 
L 268.919939 185.263231 
L 270.218557 187.626882 
L 285.801975 187.69398 
L 286.451284 188.875806 
L 287.100593 191.236662 
L 287.749902 192.418488 
L 306.579866 192.499564 
L 307.229175 193.68139 
L 322.163284 247.981073 
L 322.812593 249.162899 
L 334.500157 249.213223 
L 335.149466 250.395049 
L 335.798775 252.755904 
L 336.448084 253.93773 
L 358.524593 254.032786 
L 359.173902 255.214611 
L 360.47252 259.936323 
L 361.12183 261.118149 
L 383.847648 261.216 
L 383.847648 261.216 
" clip-path="url(#p381a2c9e38)" style="fill: none; stroke: #ff0000; stroke-width: 0.5; stroke-linecap: round"/>
   </g>
   <g id="line2d_18">
    <path d="M 59.193102 19.296 
L 74.77652 19.344617 
L 75.42583 20.200923 
L 86.464084 49.280903 
L 87.113393 50.137209 
L 91.658557 50.151389 
L 92.307866 51.007696 
L 92.957175 52.718283 
L 93.606484 53.574589 
L 113.735066 53.637386 
L 114.384375 54.493692 
L 116.981611 61.33604 
L 117.63092 62.192347 
L 120.877466 62.202475 
L 121.526775 63.058782 
L 122.176084 64.769369 
L 122.825393 65.625675 
L 155.290848 65.72696 
L 155.940157 66.583266 
L 163.082557 85.399724 
L 164.381175 87.112337 
L 165.030484 88.822924 
L 165.679793 89.67923 
L 169.575648 89.691384 
L 170.224957 90.547691 
L 176.068739 105.942974 
L 176.718048 106.79928 
L 178.016666 106.803332 
L 179.315284 108.515945 
L 211.780739 108.617229 
L 212.430048 109.473536 
L 215.027284 116.315884 
L 215.676593 117.17219 
L 221.520375 117.190422 
L 222.169684 118.046728 
L 234.506557 150.547882 
L 235.155866 151.404188 
L 235.805175 151.406214 
L 236.454484 152.262521 
L 242.298266 167.657804 
L 242.947575 168.51411 
L 244.246193 168.518162 
L 244.895502 169.374468 
L 247.492739 176.216816 
L 248.142048 177.073123 
L 259.829611 177.109585 
L 260.47892 177.965892 
L 261.12823 179.676479 
L 261.777539 180.532785 
L 274.114411 180.571273 
L 275.41303 182.283886 
L 287.100593 182.320349 
L 287.749902 183.176655 
L 288.399211 184.887242 
L 289.04852 185.743548 
L 290.996448 185.749626 
L 291.645757 186.605932 
L 297.489539 202.001215 
L 298.138848 202.857522 
L 301.385393 202.86765 
L 302.034702 203.723957 
L 304.631939 210.566305 
L 305.930557 212.278918 
L 309.177102 220.831853 
L 309.826411 221.688159 
L 326.708448 221.740827 
L 327.357757 222.597134 
L 333.201539 237.992417 
L 333.850848 238.848724 
L 341.642557 238.873032 
L 342.291866 239.729338 
L 347.486339 253.414035 
L 348.135648 254.270341 
L 357.875284 254.300727 
L 358.524593 255.157033 
L 359.173902 256.86762 
L 360.47252 258.580233 
L 361.12183 260.29082 
L 361.771139 261.147126 
L 383.847648 261.216 
L 383.847648 261.216 
" clip-path="url(#p381a2c9e38)" style="fill: none; stroke: #ff0000; stroke-width: 0.5; stroke-linecap: round"/>
   </g>
   <g id="line2d_19">
    <path d="M 59.193102 19.296 
L 63.738266 19.311798 
L 64.387575 20.2658 
L 66.335502 25.983043 
L 66.984811 26.937045 
L 74.127211 26.96187 
L 74.77652 27.915872 
L 78.672375 39.350358 
L 79.321684 40.304361 
L 94.255793 40.356267 
L 94.905102 41.31027 
L 97.502339 48.93326 
L 98.800957 50.841265 
L 103.99543 66.087246 
L 104.644739 67.041249 
L 109.189902 67.057046 
L 109.839211 68.011048 
L 111.787139 73.728292 
L 113.085757 75.636296 
L 121.526775 100.411016 
L 122.176084 101.365018 
L 123.474702 101.369532 
L 124.77332 103.277536 
L 130.617102 103.297848 
L 131.266411 104.25185 
L 138.408811 125.215074 
L 139.05812 126.169077 
L 150.096375 126.207442 
L 150.745684 127.161445 
L 160.48532 155.74766 
L 161.13463 156.701662 
L 165.030484 156.715203 
L 165.679793 157.669205 
L 168.27703 165.292196 
L 168.926339 166.246198 
L 181.263211 166.289078 
L 182.56183 168.197082 
L 242.298266 168.404708 
L 242.947575 169.358711 
L 246.19412 178.887449 
L 246.84343 179.841451 
L 281.256811 179.961062 
L 281.90612 180.915064 
L 284.503357 188.538055 
L 285.152666 189.492057 
L 318.916739 189.609411 
L 319.566048 190.563413 
L 320.864666 194.374909 
L 321.513975 195.328911 
L 343.590484 195.405643 
L 344.239793 196.359645 
L 344.889102 198.265392 
L 345.538411 199.219395 
L 359.823211 199.269044 
L 360.47252 200.223047 
L 365.666993 215.469028 
L 366.316302 216.42303 
L 368.26423 216.429801 
L 368.913539 217.383803 
L 383.847648 261.216 
L 383.847648 261.216 
" clip-path="url(#p381a2c9e38)" style="fill: none; stroke: #ff0000; stroke-width: 0.5; stroke-linecap: round"/>
   </g>
   <g id="line2d_20">
    <path d="M 59.193102 19.296 
L 61.790339 19.305514 
L 62.439648 20.310937 
L 69.582048 42.404088 
L 70.231357 43.409511 
L 80.620302 43.447566 
L 81.269611 44.45299 
L 83.217539 50.478394 
L 83.866848 51.483818 
L 94.905102 51.524251 
L 96.20372 53.535098 
L 115.033684 53.604073 
L 115.682993 54.609496 
L 131.266411 102.812734 
L 131.91572 103.818158 
L 134.512957 103.827671 
L 135.162266 104.833095 
L 135.811575 106.841563 
L 136.460884 107.846986 
L 147.499139 107.88742 
L 148.148448 108.892843 
L 150.745684 116.926716 
L 151.394993 117.93214 
L 161.783939 117.970195 
L 162.433248 118.975618 
L 163.082557 120.984087 
L 163.731866 121.98951 
L 173.471502 122.025187 
L 174.120811 123.03061 
L 182.56183 149.140697 
L 183.211139 150.14612 
L 183.860448 150.148499 
L 185.159066 152.159346 
L 216.325902 152.273511 
L 216.975211 153.278935 
L 217.62452 155.287403 
L 218.27383 156.292826 
L 258.530993 156.44029 
L 259.180302 157.445713 
L 266.322702 179.538864 
L 266.972011 180.544287 
L 291.645757 180.634668 
L 292.295066 181.640092 
L 295.541611 191.682433 
L 296.19092 192.687856 
L 296.84023 192.690235 
L 297.489539 193.695658 
L 305.930557 219.805745 
L 306.579866 220.811169 
L 320.864666 220.863495 
L 321.513975 221.868918 
L 322.812593 225.885854 
L 323.461902 226.891278 
L 345.538411 226.972145 
L 346.18772 227.977568 
L 355.278048 256.096124 
L 355.927357 257.101547 
L 375.40663 257.172901 
L 376.055939 258.178324 
L 376.705248 260.186792 
L 377.354557 261.192216 
L 383.847648 261.216 
L 383.847648 261.216 
" clip-path="url(#p381a2c9e38)" style="fill: none; stroke: #ff0000; stroke-width: 0.5; stroke-linecap: round"/>
   </g>
   <g id="line2d_21">
    <path d="M 59.193102 19.296 
L 97.502339 19.391289 
L 98.151648 20.074013 
L 109.839211 44.622996 
L 110.48852 45.305719 
L 166.978411 45.44623 
L 167.62772 46.128954 
L 172.172884 55.675781 
L 172.822193 56.358504 
L 210.48212 56.452178 
L 211.13143 57.134902 
L 212.430048 59.862567 
L 213.079357 60.54529 
L 215.676593 60.551751 
L 216.325902 61.234474 
L 229.312084 88.511122 
L 229.961393 89.193846 
L 231.260011 89.197076 
L 231.90932 89.8798 
L 237.103793 100.790459 
L 237.753102 101.473183 
L 243.596884 101.487718 
L 244.246193 102.170442 
L 247.492739 108.989604 
L 248.791357 110.355051 
L 250.739284 114.446549 
L 251.388593 115.129272 
L 257.881684 115.145423 
L 258.530993 115.828147 
L 272.166484 144.468627 
L 272.815793 145.151351 
L 273.465102 145.152966 
L 274.114411 145.83569 
L 277.360957 152.654852 
L 278.010266 153.337575 
L 290.996448 153.369877 
L 291.645757 154.0526 
L 313.722266 200.422902 
L 314.371575 201.105625 
L 322.163284 201.125006 
L 322.812593 201.80773 
L 324.111211 204.535395 
L 324.76052 205.218119 
L 331.90292 205.235884 
L 333.201539 206.601332 
L 333.850848 206.602947 
L 334.500157 207.28567 
L 350.083575 240.017648 
L 350.732884 240.700372 
L 357.875284 240.718137 
L 358.524593 241.400861 
L 366.316302 257.76685 
L 367.61492 259.132297 
L 368.26423 260.49613 
L 368.913539 261.178854 
L 383.847648 261.216 
L 383.847648 261.216 
" clip-path="url(#p381a2c9e38)" style="fill: none; stroke: #ff0000; stroke-width: 0.5; stroke-linecap: round"/>
   </g>
   <g id="line2d_22">
    <path d="M 59.193102 19.296 
L 59.842411 19.29795 
L 60.49172 20.122238 
L 70.231357 44.821626 
L 70.880666 45.645914 
L 98.151648 45.727812 
L 99.450266 47.376388 
L 108.540593 47.403687 
L 109.189902 48.227975 
L 119.578848 74.573989 
L 120.228157 75.398277 
L 125.42263 75.413877 
L 126.071939 76.238165 
L 137.759502 105.877431 
L 138.408811 106.701719 
L 143.603284 106.717318 
L 144.252593 107.541606 
L 144.901902 109.188232 
L 145.551211 110.01252 
L 156.589466 110.045669 
L 157.238775 110.869957 
L 157.888084 112.516583 
L 158.537393 113.340871 
L 191.002848 113.438368 
L 191.652157 114.262656 
L 194.249393 120.84916 
L 194.898702 121.673448 
L 196.19732 121.677348 
L 196.84663 122.501636 
L 201.391793 134.028017 
L 202.041102 134.852305 
L 202.690411 134.854255 
L 203.33972 135.678543 
L 203.98903 137.325168 
L 204.638339 138.149456 
L 215.676593 138.182606 
L 216.975211 139.831181 
L 218.27383 139.835081 
L 218.923139 140.659369 
L 220.871066 145.599247 
L 221.520375 146.423535 
L 255.284448 146.524932 
L 255.933757 147.34922 
L 261.12823 160.522227 
L 261.777539 161.346515 
L 272.166484 161.377714 
L 272.815793 162.202002 
L 275.41303 168.788506 
L 276.062339 169.612794 
L 281.256811 169.628393 
L 281.90612 170.452681 
L 285.152666 178.685811 
L 285.801975 179.510099 
L 298.788157 179.549098 
L 299.437466 180.373386 
L 311.774339 211.659277 
L 313.072957 213.307853 
L 313.722266 214.954479 
L 314.371575 215.778767 
L 315.020884 215.780717 
L 316.319502 217.429293 
L 356.576666 217.55019 
L 357.225975 218.374478 
L 364.368375 236.487362 
L 365.017684 237.31165 
L 370.861466 237.3292 
L 371.510775 238.153488 
L 372.809393 241.44674 
L 373.458702 242.271028 
L 376.055939 242.278827 
L 376.705248 243.103115 
L 383.847648 261.216 
L 383.847648 261.216 
" clip-path="url(#p381a2c9e38)" style="fill: none; stroke: #ff0000; stroke-width: 0.5; stroke-linecap: round"/>
   </g>
   <g id="line2d_23">
    <path d="M 59.193102 19.296 
L 68.28343 19.32772 
L 68.932739 20.28549 
L 70.231357 24.11204 
L 70.880666 25.06981 
L 71.529975 25.072076 
L 72.179284 26.029846 
L 74.127211 31.76967 
L 74.77652 32.727441 
L 94.255793 32.795412 
L 94.905102 33.753182 
L 105.943357 66.278854 
L 107.241975 68.194394 
L 107.891284 70.107669 
L 109.839211 72.980979 
L 127.370557 73.042154 
L 128.019866 73.999924 
L 133.863648 91.219397 
L 134.512957 92.177167 
L 137.110193 92.18623 
L 137.759502 93.144 
L 144.252593 112.276748 
L 144.901902 113.234518 
L 170.874266 113.325147 
L 171.523575 114.282917 
L 172.822193 118.109467 
L 173.471502 119.067237 
L 184.509757 119.105754 
L 185.159066 120.063525 
L 188.405611 129.629899 
L 189.05492 130.587669 
L 195.548011 130.610326 
L 196.19732 131.568096 
L 201.391793 146.874294 
L 202.041102 147.832065 
L 205.936957 147.845659 
L 206.586266 148.803429 
L 208.534193 154.543253 
L 209.183502 155.501024 
L 214.377975 155.519149 
L 215.027284 156.47692 
L 223.468302 181.349492 
L 224.117611 182.307262 
L 287.749902 182.529302 
L 288.399211 183.487073 
L 297.489539 210.272919 
L 298.138848 211.23069 
L 313.722266 211.285067 
L 314.371575 212.242837 
L 315.670193 216.069387 
L 316.319502 217.027157 
L 349.434266 217.142709 
L 350.083575 218.100479 
L 353.33012 227.666853 
L 353.97943 228.624623 
L 355.927357 228.63142 
L 356.576666 229.58919 
L 357.225975 231.502465 
L 357.875284 232.460235 
L 361.771139 232.47383 
L 362.420448 233.4316 
L 370.861466 258.304172 
L 371.510775 259.261942 
L 381.250411 259.295928 
L 382.54903 261.211469 
L 383.847648 261.216 
L 383.847648 261.216 
" clip-path="url(#p381a2c9e38)" style="fill: none; stroke: #ff0000; stroke-width: 0.5; stroke-linecap: round"/>
   </g>
   <g id="line2d_24">
    <path d="M 59.193102 19.296 
L 63.738266 19.308052 
L 64.387575 20.035855 
L 71.529975 36.028593 
L 72.179284 36.756397 
L 78.023066 36.771892 
L 78.672375 37.499695 
L 79.321684 38.953581 
L 79.970993 39.681384 
L 107.891284 39.755417 
L 108.540593 40.483221 
L 118.28023 62.2915 
L 118.929539 63.019303 
L 120.877466 63.024468 
L 121.526775 63.752272 
L 132.56503 88.468321 
L 133.214339 89.196124 
L 143.603284 89.223672 
L 144.252593 89.951475 
L 146.20052 94.313131 
L 146.84983 95.040934 
L 158.537393 95.071925 
L 159.186702 95.799728 
L 165.030484 108.884696 
L 165.679793 109.612499 
L 194.898702 109.689976 
L 195.548011 110.417779 
L 199.443866 119.141091 
L 200.093175 119.868894 
L 206.586266 119.886111 
L 207.235575 120.613915 
L 211.780739 130.791111 
L 212.430048 131.518915 
L 237.753102 131.586061 
L 238.402411 132.313865 
L 239.70103 135.221635 
L 240.350339 135.949439 
L 242.298266 135.954604 
L 242.947575 136.682407 
L 244.895502 141.044063 
L 245.544811 141.771867 
L 297.489539 141.909603 
L 298.138848 142.637407 
L 303.33332 154.268489 
L 304.631939 155.724096 
L 334.500157 222.602817 
L 335.149466 223.33062 
L 337.746702 223.337507 
L 338.396011 224.06531 
L 347.486339 244.419704 
L 348.135648 245.147507 
L 363.069757 245.187107 
L 363.719066 245.91491 
L 366.965611 253.184336 
L 367.61492 253.91214 
L 370.861466 253.920748 
L 371.510775 254.648552 
L 374.108011 260.464093 
L 374.75732 261.191896 
L 383.847648 261.216 
L 383.847648 261.216 
" clip-path="url(#p381a2c9e38)" style="fill: none; stroke: #ff0000; stroke-width: 0.5; stroke-linecap: round"/>
   </g>
   <g id="line2d_25">
    <path d="M 59.193102 19.296 
L 59.842411 21.364503 
L 60.49172 22.399979 
L 76.075139 22.458768 
L 76.724448 23.494245 
L 78.672375 29.699754 
L 79.321684 30.73523 
L 87.113393 30.764624 
L 87.762702 31.800101 
L 115.033684 118.677227 
L 115.682993 119.712703 
L 116.332302 119.715153 
L 116.981611 120.750629 
L 118.28023 124.887635 
L 118.929539 125.923111 
L 122.176084 125.935359 
L 123.474702 128.006312 
L 126.071939 128.01611 
L 126.721248 129.051586 
L 128.019866 133.188592 
L 128.669175 134.224068 
L 145.551211 134.287756 
L 146.20052 135.323233 
L 146.84983 137.391736 
L 147.499139 138.427212 
L 168.926339 138.508047 
L 169.575648 139.543523 
L 170.224957 141.612026 
L 170.874266 142.647502 
L 203.98903 142.772429 
L 204.638339 143.807905 
L 205.287648 145.876408 
L 205.936957 146.911885 
L 227.364157 146.99272 
L 228.662775 149.063672 
L 234.506557 149.085718 
L 235.155866 150.121194 
L 239.70103 164.600715 
L 240.350339 165.636192 
L 241.648957 165.641091 
L 242.947575 167.712043 
L 259.180302 167.773282 
L 260.47892 169.844234 
L 272.166484 169.888326 
L 272.815793 170.923802 
L 273.465102 172.992305 
L 274.114411 174.027782 
L 300.736084 174.128213 
L 301.385393 175.163689 
L 302.684011 179.300695 
L 303.33332 180.336172 
L 339.04532 180.470896 
L 339.69463 181.506373 
L 343.590484 193.917391 
L 344.239793 194.952867 
L 346.83703 194.962665 
L 347.486339 195.998141 
L 367.61492 260.121735 
L 368.26423 261.157211 
L 383.847648 261.216 
L 383.847648 261.216 
" clip-path="url(#p381a2c9e38)" style="fill: none; stroke: #ff0000; stroke-width: 0.5; stroke-linecap: round"/>
   </g>
   <g id="line2d_26">
    <path d="M 59.193102 19.296 
L 72.179284 19.334736 
L 72.828593 20.153458 
L 73.477902 21.788965 
L 74.127211 22.607686 
L 76.075139 22.613497 
L 76.724448 23.432219 
L 79.321684 29.974247 
L 79.970993 30.792969 
L 82.56823 30.800716 
L 83.217539 31.619438 
L 96.20372 64.329578 
L 96.85303 65.1483 
L 100.748884 65.15992 
L 101.398193 65.978642 
L 102.047502 67.614149 
L 102.696811 68.432871 
L 107.241975 68.446429 
L 107.891284 69.265151 
L 119.578848 98.704277 
L 120.228157 99.522999 
L 128.669175 99.548177 
L 129.318484 100.366899 
L 129.967793 102.002406 
L 130.617102 102.821128 
L 154.641539 102.892789 
L 155.290848 103.711511 
L 156.589466 106.982525 
L 157.238775 107.801246 
L 160.48532 107.81093 
L 161.13463 108.629652 
L 163.082557 113.536173 
L 163.731866 114.354895 
L 181.91252 114.409125 
L 182.56183 115.227847 
L 183.211139 116.863354 
L 183.860448 117.682076 
L 195.548011 117.716938 
L 196.19732 118.53566 
L 197.495939 121.806674 
L 198.145248 122.625396 
L 198.794557 122.627333 
L 199.443866 123.446055 
L 203.98903 134.894604 
L 204.638339 135.713325 
L 211.780739 135.73463 
L 212.430048 136.553352 
L 214.377975 141.459873 
L 215.027284 142.278595 
L 216.975211 142.284405 
L 217.62452 143.103127 
L 220.221757 149.645155 
L 220.871066 150.463877 
L 244.246193 150.533601 
L 244.895502 151.352323 
L 248.142048 159.529858 
L 248.791357 160.34858 
L 250.089975 160.352454 
L 250.739284 161.171176 
L 252.687211 166.077697 
L 253.33652 166.896419 
L 267.62132 166.939028 
L 268.27063 167.75775 
L 272.815793 179.206299 
L 273.465102 180.025021 
L 274.114411 180.026957 
L 274.76372 180.845679 
L 276.711648 185.7522 
L 277.360957 186.570922 
L 279.308884 186.576733 
L 279.958193 187.395454 
L 281.256811 190.666469 
L 281.90612 191.48519 
L 295.541611 191.525863 
L 296.19092 192.344585 
L 296.84023 193.980092 
L 297.489539 194.798814 
L 307.229175 194.827865 
L 307.878484 195.646587 
L 309.826411 200.553108 
L 310.47572 201.37183 
L 312.423648 201.377641 
L 313.072957 202.196363 
L 316.968811 212.009405 
L 317.61812 212.828126 
L 324.111211 212.847494 
L 324.76052 213.666216 
L 332.55223 233.2923 
L 333.201539 234.111022 
L 368.913539 234.217545 
L 369.562848 235.036267 
L 371.510775 239.942788 
L 372.160084 240.76151 
L 373.458702 240.765384 
L 374.108011 241.584106 
L 377.354557 249.761641 
L 378.003866 250.580362 
L 379.302484 250.584236 
L 379.951793 251.402958 
L 383.847648 261.216 
L 383.847648 261.216 
" clip-path="url(#p381a2c9e38)" style="fill: none; stroke: #ff0000; stroke-width: 0.5; stroke-linecap: round"/>
   </g>
   <g id="line2d_27">
    <path d="M 59.193102 19.296 
L 76.724448 19.35969 
L 77.373757 20.356845 
L 78.023066 22.348795 
L 78.672375 23.345949 
L 89.06132 23.383692 
L 89.71063 24.380846 
L 92.957175 34.340597 
L 93.606484 35.337752 
L 97.502339 35.351905 
L 98.151648 36.34906 
L 100.748884 44.316861 
L 101.398193 45.314016 
L 118.28023 45.375347 
L 118.929539 46.372501 
L 119.578848 48.364451 
L 120.228157 49.361606 
L 161.13463 49.510216 
L 161.783939 50.507371 
L 163.731866 56.483221 
L 164.381175 57.480376 
L 184.509757 57.553502 
L 185.159066 58.550656 
L 185.808375 60.542606 
L 186.457684 61.539761 
L 199.443866 61.586939 
L 200.093175 62.584093 
L 204.638339 76.527745 
L 205.287648 77.5249 
L 208.534193 77.536694 
L 209.183502 78.533849 
L 215.676593 98.453351 
L 216.325902 99.450506 
L 218.27383 99.457582 
L 219.572448 101.451892 
L 224.117611 101.468404 
L 224.76692 102.465558 
L 225.41623 104.457509 
L 226.065539 105.454663 
L 232.55863 105.478252 
L 233.207939 106.475407 
L 235.805175 114.443208 
L 236.454484 115.440362 
L 250.089975 115.489899 
L 250.739284 116.487054 
L 253.98583 126.446805 
L 254.635139 127.443959 
L 269.569248 127.498214 
L 270.218557 128.495368 
L 283.204739 168.334374 
L 283.854048 169.331528 
L 287.100593 169.343323 
L 287.749902 170.340477 
L 292.295066 184.284129 
L 292.944375 185.281284 
L 294.242993 185.286001 
L 294.892302 186.283156 
L 295.541611 188.275106 
L 296.19092 189.272261 
L 327.357757 189.385487 
L 328.007066 190.382642 
L 333.850848 208.310194 
L 334.500157 209.307349 
L 346.18772 209.349809 
L 346.83703 210.346963 
L 363.069757 260.14572 
L 363.719066 261.142874 
L 383.847648 261.216 
L 383.847648 261.216 
" clip-path="url(#p381a2c9e38)" style="fill: none; stroke: #ff0000; stroke-width: 0.5; stroke-linecap: round"/>
   </g>
   <g id="line2d_28">
    <path d="M 59.193102 19.296 
L 65.686193 19.323688 
L 66.335502 20.494105 
L 69.582048 32.184435 
L 70.231357 33.354853 
L 78.023066 33.388078 
L 78.672375 34.558495 
L 93.606484 88.334014 
L 94.255793 89.504431 
L 131.266411 89.662251 
L 131.91572 90.832668 
L 135.162266 102.522998 
L 135.811575 103.693416 
L 155.290848 103.776479 
L 155.940157 104.946896 
L 160.48532 121.313358 
L 161.13463 122.483776 
L 166.329102 122.505926 
L 167.62772 124.84676 
L 174.120811 124.874448 
L 174.77012 126.044865 
L 175.41943 128.382932 
L 176.068739 129.553349 
L 185.808375 129.59488 
L 186.457684 130.765298 
L 202.690411 189.216949 
L 204.638339 192.728201 
L 266.972011 192.994002 
L 267.62132 194.164419 
L 271.517175 208.192816 
L 272.166484 209.363233 
L 295.541611 209.462908 
L 296.19092 210.633326 
L 302.684011 234.013986 
L 303.33332 235.184403 
L 374.75732 235.488967 
L 375.40663 236.659385 
L 381.89972 260.040045 
L 382.54903 261.210462 
L 383.847648 261.216 
L 383.847648 261.216 
" clip-path="url(#p381a2c9e38)" style="fill: none; stroke: #ff0000; stroke-width: 0.5; stroke-linecap: round"/>
   </g>
   <g id="line2d_29">
    <path d="M 59.193102 19.296 
L 70.231357 19.347547 
L 71.529975 21.9111 
L 81.269611 21.956583 
L 81.91892 23.238359 
L 84.516157 33.480441 
L 85.165466 34.762218 
L 102.047502 34.841055 
L 102.696811 36.122831 
L 107.241975 54.046475 
L 107.891284 55.328251 
L 128.669175 55.425281 
L 129.318484 56.707058 
L 131.91572 66.94914 
L 132.56503 68.230916 
L 135.811575 68.246077 
L 136.460884 69.527854 
L 137.110193 72.088374 
L 137.759502 73.37015 
L 139.70743 73.379247 
L 140.356739 74.661023 
L 141.006048 77.221544 
L 141.655357 78.50332 
L 143.603284 78.512417 
L 144.252593 79.794193 
L 146.84983 90.036275 
L 147.499139 91.318052 
L 159.186702 91.372631 
L 159.836011 92.654407 
L 163.082557 105.45701 
L 163.731866 106.738786 
L 180.613902 106.817624 
L 181.263211 108.0994 
L 183.860448 118.341482 
L 184.509757 119.623258 
L 189.70423 119.647516 
L 190.353539 120.929292 
L 192.301466 128.610854 
L 192.950775 129.89263 
L 198.145248 129.916888 
L 198.794557 131.198664 
L 203.33972 149.122308 
L 203.98903 150.404084 
L 216.325902 150.461696 
L 216.975211 151.743472 
L 221.520375 169.667116 
L 222.169684 170.948892 
L 254.635139 171.100502 
L 255.933757 173.664055 
L 268.919939 173.724698 
L 269.569248 175.006475 
L 270.218557 177.566995 
L 270.867866 178.848772 
L 284.503357 178.912448 
L 285.152666 180.194224 
L 285.801975 182.754745 
L 286.451284 184.036521 
L 308.527793 184.139616 
L 309.177102 185.421392 
L 317.61812 218.708159 
L 318.26743 219.989935 
L 323.461902 220.014193 
L 324.111211 221.295969 
L 329.305684 241.780133 
L 329.954993 243.06191 
L 352.031502 243.165004 
L 352.680811 244.446781 
L 353.33012 247.007301 
L 353.97943 248.289077 
L 355.927357 248.298174 
L 356.576666 249.57995 
L 359.173902 259.822032 
L 359.823211 261.103809 
L 383.847648 261.216 
L 383.847648 261.216 
" clip-path="url(#p381a2c9e38)" style="fill: none; stroke: #ff0000; stroke-width: 0.5; stroke-linecap: round"/>
   </g>
   <g id="line2d_30">
    <path d="M 59.193102 19.296 
L 79.970993 19.360822 
L 80.620302 20.217129 
L 83.866848 28.770064 
L 84.516157 29.62637 
L 88.412011 29.638524 
L 89.06132 30.494831 
L 89.71063 32.205418 
L 90.359939 33.061724 
L 98.800957 33.088058 
L 99.450266 33.944365 
L 100.748884 37.365539 
L 101.398193 38.221845 
L 106.592666 38.238051 
L 107.241975 39.094357 
L 116.981611 64.753163 
L 117.63092 65.609469 
L 137.759502 65.672266 
L 138.408811 66.528572 
L 144.901902 83.634443 
L 145.551211 84.490749 
L 150.096375 84.504929 
L 150.745684 85.361236 
L 153.34292 92.203584 
L 153.99223 93.05989 
L 155.940157 93.065967 
L 156.589466 93.922274 
L 164.381175 114.449318 
L 165.030484 115.305625 
L 176.068739 115.340062 
L 177.367357 117.052674 
L 184.509757 117.074957 
L 185.159066 117.931263 
L 189.70423 129.905373 
L 190.353539 130.761679 
L 205.287648 130.80827 
L 205.936957 131.664576 
L 208.534193 138.506925 
L 209.832811 140.219537 
L 215.676593 155.614821 
L 216.325902 156.471127 
L 237.753102 156.537975 
L 238.402411 157.394282 
L 246.19412 177.921326 
L 246.84343 178.777633 
L 268.919939 178.846506 
L 269.569248 179.702813 
L 275.41303 195.098096 
L 276.062339 195.954403 
L 310.47572 196.061765 
L 311.12503 196.918071 
L 313.072957 202.049832 
L 313.722266 202.906139 
L 318.26743 202.920318 
L 318.916739 203.776625 
L 331.253611 236.277779 
L 331.90292 237.134085 
L 354.628739 237.204985 
L 355.278048 238.061291 
L 359.173902 248.324813 
L 359.823211 249.18112 
L 374.75732 249.227711 
L 375.40663 250.084017 
L 379.302484 260.347539 
L 379.951793 261.203846 
L 383.847648 261.216 
L 383.847648 261.216 
" clip-path="url(#p381a2c9e38)" style="fill: none; stroke: #ff0000; stroke-width: 0.5; stroke-linecap: round"/>
   </g>
   <g id="line2d_31">
    <path d="M 59.193102 19.296 
L 59.842411 20.183652 
L 77.373757 20.240347 
L 78.023066 21.127999 
L 92.307866 60.138473 
L 92.957175 61.026124 
L 113.735066 61.093319 
L 114.384375 61.980971 
L 115.033684 63.754174 
L 115.682993 64.641826 
L 120.877466 64.658625 
L 121.526775 65.546276 
L 122.825393 69.092683 
L 123.474702 69.980335 
L 138.408811 70.028631 
L 139.05812 70.916283 
L 144.252593 85.10191 
L 144.901902 85.989561 
L 156.589466 86.027358 
L 157.238775 86.91501 
L 163.082557 102.87384 
L 163.731866 103.761492 
L 165.679793 103.767791 
L 166.329102 104.655443 
L 166.978411 106.428646 
L 167.62772 107.316298 
L 187.106993 107.379293 
L 187.756302 108.266945 
L 205.287648 156.143435 
L 205.936957 157.031087 
L 208.534193 157.039486 
L 209.183502 157.927138 
L 220.871066 189.844798 
L 221.520375 190.73245 
L 229.961393 190.759748 
L 231.260011 192.535051 
L 248.791357 192.591747 
L 249.440666 193.479399 
L 250.089975 195.252602 
L 250.739284 196.140254 
L 258.530993 196.165452 
L 259.180302 197.053103 
L 268.919939 223.651154 
L 269.569248 224.538805 
L 296.84023 224.626999 
L 297.489539 225.51465 
L 298.138848 227.287854 
L 298.788157 228.175505 
L 308.527793 228.207003 
L 309.177102 229.094655 
L 315.020884 245.053485 
L 315.670193 245.941136 
L 360.47252 246.086026 
L 361.771139 247.861329 
L 368.913539 247.884427 
L 369.562848 248.772079 
L 370.861466 252.318486 
L 371.510775 253.206137 
L 376.705248 253.222936 
L 377.354557 254.110588 
L 378.003866 255.883791 
L 378.653175 256.771442 
L 379.302484 256.773542 
L 380.601102 258.548846 
L 382.54903 258.555145 
L 383.198339 259.442797 
L 383.847648 261.216 
L 383.847648 261.216 
" clip-path="url(#p381a2c9e38)" style="fill: none; stroke: #ff0000; stroke-width: 0.5; stroke-linecap: round"/>
   </g>
   <g id="line2d_32">
    <path d="M 59.193102 19.296 
L 59.842411 19.298033 
L 61.14103 21.016715 
L 61.790339 21.018748 
L 62.439648 21.878089 
L 63.088957 23.594738 
L 63.738266 24.454078 
L 91.009248 24.539459 
L 91.658557 25.3988 
L 98.800957 44.281939 
L 99.450266 45.14128 
L 128.669175 45.232759 
L 129.318484 46.0921 
L 131.266411 51.242047 
L 131.91572 52.101388 
L 159.836011 52.188801 
L 160.48532 53.048142 
L 163.731866 61.631387 
L 164.381175 62.490728 
L 180.613902 62.54155 
L 181.263211 63.400891 
L 187.106993 78.850732 
L 187.756302 79.710073 
L 196.19732 79.7365 
L 197.495939 81.455182 
L 205.287648 81.479576 
L 205.936957 82.338917 
L 211.780739 97.788758 
L 212.430048 98.648099 
L 216.975211 98.662329 
L 217.62452 99.52167 
L 218.27383 101.238319 
L 218.923139 102.09766 
L 229.961393 102.132219 
L 230.610702 102.99156 
L 233.857248 111.574805 
L 234.506557 112.434146 
L 239.70103 112.450409 
L 240.999648 114.169091 
L 241.648957 114.171123 
L 242.298266 115.030464 
L 244.895502 121.89706 
L 246.19412 123.615742 
L 248.791357 130.482338 
L 249.440666 131.341679 
L 265.024084 131.390468 
L 265.673393 132.249809 
L 271.517175 147.69965 
L 272.166484 148.558991 
L 276.711648 148.573221 
L 278.010266 150.291903 
L 282.55543 150.306133 
L 283.204739 151.165474 
L 286.451284 159.748719 
L 287.100593 160.60806 
L 294.242993 160.630421 
L 294.892302 161.489762 
L 298.788157 171.789656 
L 299.437466 172.648997 
L 313.072957 172.691687 
L 313.722266 173.551028 
L 315.670193 178.700975 
L 316.319502 179.560316 
L 324.111211 179.584711 
L 324.76052 180.444051 
L 328.007066 189.027296 
L 328.656375 189.886637 
L 331.253611 189.894769 
L 331.90292 190.75411 
L 344.889102 225.087089 
L 345.538411 225.94643 
L 360.47252 225.993186 
L 361.12183 226.852527 
L 362.420448 230.285825 
L 363.069757 231.145166 
L 366.965611 231.157363 
L 367.61492 232.016704 
L 374.108011 249.183194 
L 374.75732 250.042535 
L 377.354557 250.050667 
L 378.003866 250.910007 
L 378.653175 252.626656 
L 379.302484 253.485997 
L 380.601102 253.490063 
L 381.250411 254.349404 
L 383.847648 261.216 
L 383.847648 261.216 
" clip-path="url(#p381a2c9e38)" style="fill: none; stroke: #ff0000; stroke-width: 0.5; stroke-linecap: round"/>
   </g>
   <g id="line2d_33">
    <path d="M 59.193102 19.296 
L 59.842411 19.298284 
L 60.49172 20.26368 
L 65.686193 35.69175 
L 66.335502 36.657146 
L 113.085757 36.821577 
L 113.735066 37.786973 
L 118.28023 51.286534 
L 118.929539 52.25193 
L 119.578848 52.254214 
L 120.228157 53.21961 
L 122.176084 59.005136 
L 122.825393 59.970533 
L 124.124011 59.9751 
L 124.77332 60.940496 
L 125.42263 62.869005 
L 126.071939 63.834401 
L 128.019866 63.841253 
L 129.318484 65.772045 
L 159.836011 65.879382 
L 160.48532 66.844778 
L 161.783939 70.701796 
L 162.433248 71.667192 
L 174.77012 71.710583 
L 175.41943 72.675979 
L 187.106993 107.389136 
L 187.756302 108.354533 
L 203.33972 108.409343 
L 203.98903 109.374739 
L 207.884884 120.945791 
L 208.534193 121.911188 
L 216.325902 121.938593 
L 216.975211 122.903989 
L 219.572448 130.618024 
L 220.871066 132.548816 
L 223.468302 140.262851 
L 224.117611 141.228248 
L 237.753102 141.276206 
L 238.402411 142.241603 
L 244.895502 161.52669 
L 245.544811 162.492086 
L 246.84343 162.496654 
L 247.492739 163.46205 
L 249.440666 169.247576 
L 250.089975 170.212972 
L 252.037902 170.219824 
L 252.687211 171.18522 
L 256.583066 182.756272 
L 257.232375 183.721668 
L 290.996448 183.840424 
L 291.645757 184.80582 
L 300.736084 211.804942 
L 301.385393 212.770338 
L 319.566048 212.834284 
L 320.215357 213.79968 
L 328.656375 238.870293 
L 329.305684 239.83569 
L 335.798775 239.858527 
L 336.448084 240.823923 
L 339.04532 248.537958 
L 339.69463 249.503355 
L 340.993248 249.507922 
L 342.291866 251.438715 
L 371.510775 251.541484 
L 372.160084 252.50688 
L 374.75732 260.220915 
L 375.40663 261.186311 
L 383.847648 261.216 
L 383.847648 261.216 
" clip-path="url(#p381a2c9e38)" style="fill: none; stroke: #ff0000; stroke-width: 0.5; stroke-linecap: round"/>
   </g>
   <g id="line2d_34">
    <path d="M 59.193102 19.296 
L 67.63412 19.333253 
L 68.28343 20.544597 
L 79.970993 64.101401 
L 80.620302 65.312745 
L 81.91892 65.318476 
L 83.217539 67.741164 
L 89.71063 67.76982 
L 91.009248 70.192508 
L 108.540593 70.269879 
L 109.189902 71.481223 
L 111.13783 78.74069 
L 111.787139 79.952034 
L 134.512957 80.052329 
L 135.162266 81.263673 
L 137.759502 90.942963 
L 138.408811 92.154307 
L 154.641539 92.225947 
L 155.290848 93.437291 
L 159.836011 110.376048 
L 160.48532 111.587392 
L 183.211139 111.687687 
L 183.860448 112.899031 
L 192.301466 144.356723 
L 192.950775 145.568068 
L 201.391793 145.60532 
L 202.041102 146.816664 
L 202.690411 149.236487 
L 203.33972 150.447831 
L 233.207939 150.579647 
L 234.506557 153.002335 
L 237.753102 153.016663 
L 238.402411 154.228007 
L 244.895502 178.426232 
L 245.544811 179.637576 
L 272.166484 179.755065 
L 272.815793 180.966409 
L 276.062339 193.065521 
L 276.711648 194.276865 
L 303.33332 194.394354 
L 303.98263 195.605698 
L 309.826411 217.3841 
L 310.47572 218.595444 
L 324.111211 218.655621 
L 324.76052 219.866965 
L 325.40983 222.286788 
L 326.059139 223.498132 
L 333.201539 223.529653 
L 333.850848 224.740997 
L 336.448084 234.420287 
L 337.097393 235.631631 
L 344.889102 235.666018 
L 346.18772 238.088706 
L 368.26423 238.186136 
L 368.913539 239.39748 
L 370.212157 244.237125 
L 370.861466 245.448469 
L 379.302484 245.485721 
L 379.951793 246.697065 
L 383.847648 261.216 
L 383.847648 261.216 
" clip-path="url(#p381a2c9e38)" style="fill: none; stroke: #ff0000; stroke-width: 0.5; stroke-linecap: round"/>
   </g>
   <g id="line2d_35">
    <path d="M 59.193102 19.296 
L 64.387575 19.313844 
L 65.686193 21.199592 
L 94.905102 21.299964 
L 95.554411 22.242838 
L 98.151648 29.776908 
L 98.800957 30.719782 
L 113.085757 30.768853 
L 113.735066 31.711727 
L 115.033684 35.478762 
L 115.682993 36.421637 
L 118.28023 36.430558 
L 118.929539 37.373433 
L 138.408811 93.878962 
L 139.05812 94.821836 
L 140.356739 94.826297 
L 141.006048 95.769172 
L 146.20052 110.837313 
L 146.84983 111.780187 
L 161.783939 111.831488 
L 162.433248 112.774362 
L 163.082557 114.65788 
L 163.731866 115.600754 
L 178.016666 115.649824 
L 178.665975 116.592698 
L 179.315284 118.476216 
L 179.964593 119.41909 
L 200.093175 119.488235 
L 200.742484 120.431109 
L 211.13143 150.567392 
L 211.780739 151.510266 
L 226.065539 151.559336 
L 226.714848 152.502211 
L 229.312084 160.036281 
L 229.961393 160.979155 
L 245.544811 161.032687 
L 246.19412 161.975561 
L 263.076157 210.94702 
L 263.725466 211.889894 
L 268.27063 211.905508 
L 268.919939 212.848382 
L 270.218557 216.615417 
L 270.867866 217.558291 
L 306.579866 217.680968 
L 307.229175 218.623842 
L 316.968811 246.876607 
L 317.61812 247.819481 
L 326.059139 247.848477 
L 327.357757 249.734225 
L 352.031502 249.818983 
L 352.680811 250.761857 
L 354.628739 256.41241 
L 355.278048 257.355284 
L 378.003866 257.433351 
L 378.653175 258.376225 
L 379.302484 260.259743 
L 379.951793 261.202617 
L 383.847648 261.216 
L 383.847648 261.216 
" clip-path="url(#p381a2c9e38)" style="fill: none; stroke: #ff0000; stroke-width: 0.5; stroke-linecap: round"/>
   </g>
   <g id="patch_3">
    <path d="M 42.960375 263.659636 
L 42.960375 19.296 
" style="fill: none; stroke: #262626; stroke-linejoin: miter; stroke-linecap: square"/>
   </g>
   <g id="patch_4">
    <path d="M 59.193102 273.312 
L 383.847648 273.312 
" style="fill: none; stroke: #262626; stroke-linejoin: miter; stroke-linecap: square"/>
   </g>
  </g>
 </g>
 <defs>
  <clipPath id="p381a2c9e38">
   <rect x="42.960375" y="7.2" width="357.12" height="266.112"/>
  </clipPath>
 </defs>
</svg>