<?xml version="1.0" encoding="utf-8" standalone="no"?>
<!DOCTYPE svg PUBLIC "-//W3C//DTD SVG 1.1//EN"
  "http://www.w3.org/Graphics/SVG/1.1/DTD/svg11.dtd">
<svg xmlns:xlink="http://www.w3.org/1999/xlink" width="402.632875pt" height="309.639375pt" viewBox="0 0 402.632875 309.639375" xmlns="http://www.w3.org/2000/svg" version="1.1">
 <metadata>
  <rdf:RDF xmlns:dc="http://purl.org/dc/elements/1.1/" xmlns:cc="http://creativecommons.org/ns#" xmlns:rdf="http://www.w3.org/1999/02/22-rdf-syntax-ns#">
   <cc:Work>
    <dc:type rdf:resource="http://purl.org/dc/dcmitype/StillImage"/>
    <dc:date>2023-10-14T22:07:10.662266</dc:date>
    <dc:format>image/svg+xml</dc:format>
    <dc:creator>
     <cc:Agent>
      <dc:title>Matplotlib v3.7.1, https://matplotlib.org/</dc:title>
     </cc:Agent>
    </dc:creator>
   </cc:Work>
  </rdf:RDF>
 </metadata>
 <defs>
  <style type="text/css">*{stroke-linejoin: round; stroke-linecap: butt}</style>
 </defs>
 <g id="figure_1">
  <g id="patch_1">
   <path d="M 0 309.639375 
L 402.632875 309.639375 
L 402.632875 0 
L 0 0 
z
" style="fill: #ffffff"/>
  </g>
  <g id="axes_1">
   <g id="patch_2">
    <path d="M 38.312875 273.312 
L 395.432875 273.312 
L 395.432875 7.2 
L 38.312875 7.2 
z
" style="fill: #ffffff"/>
   </g>
   <g id="matplotlib.axis_1">
    <g id="xtick_1">
     <g id="line2d_1">
      <defs>
       <path id="mbb4a80cb8a" d="M 0 0 
L 0 4.8 
" style="stroke: #262626"/>
      </defs>
      <g>
       <use xlink:href="#mbb4a80cb8a" x="54.545602" y="273.312" style="fill: #262626; stroke: #262626"/>
      </g>
     </g>
     <g id="text_1">
      <!-- 0.0 -->
      <g style="fill: #262626" transform="translate(48.429602 287.910875) scale(0.088 -0.088)">
       <defs>
        <path id="ArialMT-30" d="M 266 2259 
Q 266 3072 433 3567 
Q 600 4063 929 4331 
Q 1259 4600 1759 4600 
Q 2128 4600 2406 4451 
Q 2684 4303 2865 4023 
Q 3047 3744 3150 3342 
Q 3253 2941 3253 2259 
Q 3253 1453 3087 958 
Q 2922 463 2592 192 
Q 2263 -78 1759 -78 
Q 1097 -78 719 397 
Q 266 969 266 2259 
z
M 844 2259 
Q 844 1131 1108 757 
Q 1372 384 1759 384 
Q 2147 384 2411 759 
Q 2675 1134 2675 2259 
Q 2675 3391 2411 3762 
Q 2147 4134 1753 4134 
Q 1366 4134 1134 3806 
Q 844 3388 844 2259 
z
" transform="scale(0.015625)"/>
        <path id="ArialMT-2e" d="M 581 0 
L 581 641 
L 1222 641 
L 1222 0 
L 581 0 
z
" transform="scale(0.015625)"/>
       </defs>
       <use xlink:href="#ArialMT-30"/>
       <use xlink:href="#ArialMT-2e" x="55.615234"/>
       <use xlink:href="#ArialMT-30" x="83.398438"/>
      </g>
     </g>
    </g>
    <g id="xtick_2">
     <g id="line2d_2">
      <g>
       <use xlink:href="#mbb4a80cb8a" x="119.476511" y="273.312" style="fill: #262626; stroke: #262626"/>
      </g>
     </g>
     <g id="text_2">
      <!-- 0.2 -->
      <g style="fill: #262626" transform="translate(113.360511 287.910875) scale(0.088 -0.088)">
       <defs>
        <path id="ArialMT-32" d="M 3222 541 
L 3222 0 
L 194 0 
Q 188 203 259 391 
Q 375 700 629 1000 
Q 884 1300 1366 1694 
Q 2113 2306 2375 2664 
Q 2638 3022 2638 3341 
Q 2638 3675 2398 3904 
Q 2159 4134 1775 4134 
Q 1369 4134 1125 3890 
Q 881 3647 878 3216 
L 300 3275 
Q 359 3922 746 4261 
Q 1134 4600 1788 4600 
Q 2447 4600 2831 4234 
Q 3216 3869 3216 3328 
Q 3216 3053 3103 2787 
Q 2991 2522 2730 2228 
Q 2469 1934 1863 1422 
Q 1356 997 1212 845 
Q 1069 694 975 541 
L 3222 541 
z
" transform="scale(0.015625)"/>
       </defs>
       <use xlink:href="#ArialMT-30"/>
       <use xlink:href="#ArialMT-2e" x="55.615234"/>
       <use xlink:href="#ArialMT-32" x="83.398438"/>
      </g>
     </g>
    </g>
    <g id="xtick_3">
     <g id="line2d_3">
      <g>
       <use xlink:href="#mbb4a80cb8a" x="184.40742" y="273.312" style="fill: #262626; stroke: #262626"/>
      </g>
     </g>
     <g id="text_3">
      <!-- 0.4 -->
      <g style="fill: #262626" transform="translate(178.29142 287.910875) scale(0.088 -0.088)">
       <defs>
        <path id="ArialMT-34" d="M 2069 0 
L 2069 1097 
L 81 1097 
L 81 1613 
L 2172 4581 
L 2631 4581 
L 2631 1613 
L 3250 1613 
L 3250 1097 
L 2631 1097 
L 2631 0 
L 2069 0 
z
M 2069 1613 
L 2069 3678 
L 634 1613 
L 2069 1613 
z
" transform="scale(0.015625)"/>
       </defs>
       <use xlink:href="#ArialMT-30"/>
       <use xlink:href="#ArialMT-2e" x="55.615234"/>
       <use xlink:href="#ArialMT-34" x="83.398438"/>
      </g>
     </g>
    </g>
    <g id="xtick_4">
     <g id="line2d_4">
      <g>
       <use xlink:href="#mbb4a80cb8a" x="249.33833" y="273.312" style="fill: #262626; stroke: #262626"/>
      </g>
     </g>
     <g id="text_4">
      <!-- 0.6 -->
      <g style="fill: #262626" transform="translate(243.22233 287.910875) scale(0.088 -0.088)">
       <defs>
        <path id="ArialMT-36" d="M 3184 3459 
L 2625 3416 
Q 2550 3747 2413 3897 
Q 2184 4138 1850 4138 
Q 1581 4138 1378 3988 
Q 1113 3794 959 3422 
Q 806 3050 800 2363 
Q 1003 2672 1297 2822 
Q 1591 2972 1913 2972 
Q 2475 2972 2870 2558 
Q 3266 2144 3266 1488 
Q 3266 1056 3080 686 
Q 2894 316 2569 119 
Q 2244 -78 1831 -78 
Q 1128 -78 684 439 
Q 241 956 241 2144 
Q 241 3472 731 4075 
Q 1159 4600 1884 4600 
Q 2425 4600 2770 4297 
Q 3116 3994 3184 3459 
z
M 888 1484 
Q 888 1194 1011 928 
Q 1134 663 1356 523 
Q 1578 384 1822 384 
Q 2178 384 2434 671 
Q 2691 959 2691 1453 
Q 2691 1928 2437 2201 
Q 2184 2475 1800 2475 
Q 1419 2475 1153 2201 
Q 888 1928 888 1484 
z
" transform="scale(0.015625)"/>
       </defs>
       <use xlink:href="#ArialMT-30"/>
       <use xlink:href="#ArialMT-2e" x="55.615234"/>
       <use xlink:href="#ArialMT-36" x="83.398438"/>
      </g>
     </g>
    </g>
    <g id="xtick_5">
     <g id="line2d_5">
      <g>
       <use xlink:href="#mbb4a80cb8a" x="314.269239" y="273.312" style="fill: #262626; stroke: #262626"/>
      </g>
     </g>
     <g id="text_5">
      <!-- 0.8 -->
      <g style="fill: #262626" transform="translate(308.153239 287.910875) scale(0.088 -0.088)">
       <defs>
        <path id="ArialMT-38" d="M 1131 2484 
Q 781 2613 612 2850 
Q 444 3088 444 3419 
Q 444 3919 803 4259 
Q 1163 4600 1759 4600 
Q 2359 4600 2725 4251 
Q 3091 3903 3091 3403 
Q 3091 3084 2923 2848 
Q 2756 2613 2416 2484 
Q 2838 2347 3058 2040 
Q 3278 1734 3278 1309 
Q 3278 722 2862 322 
Q 2447 -78 1769 -78 
Q 1091 -78 675 323 
Q 259 725 259 1325 
Q 259 1772 486 2073 
Q 713 2375 1131 2484 
z
M 1019 3438 
Q 1019 3113 1228 2906 
Q 1438 2700 1772 2700 
Q 2097 2700 2305 2904 
Q 2513 3109 2513 3406 
Q 2513 3716 2298 3927 
Q 2084 4138 1766 4138 
Q 1444 4138 1231 3931 
Q 1019 3725 1019 3438 
z
M 838 1322 
Q 838 1081 952 856 
Q 1066 631 1291 507 
Q 1516 384 1775 384 
Q 2178 384 2440 643 
Q 2703 903 2703 1303 
Q 2703 1709 2433 1975 
Q 2163 2241 1756 2241 
Q 1359 2241 1098 1978 
Q 838 1716 838 1322 
z
" transform="scale(0.015625)"/>
       </defs>
       <use xlink:href="#ArialMT-30"/>
       <use xlink:href="#ArialMT-2e" x="55.615234"/>
       <use xlink:href="#ArialMT-38" x="83.398438"/>
      </g>
     </g>
    </g>
    <g id="xtick_6">
     <g id="line2d_6">
      <g>
       <use xlink:href="#mbb4a80cb8a" x="379.200148" y="273.312" style="fill: #262626; stroke: #262626"/>
      </g>
     </g>
     <g id="text_6">
      <!-- 1.0 -->
      <g style="fill: #262626" transform="translate(373.084148 287.910875) scale(0.088 -0.088)">
       <defs>
        <path id="ArialMT-31" d="M 2384 0 
L 1822 0 
L 1822 3584 
Q 1619 3391 1289 3197 
Q 959 3003 697 2906 
L 697 3450 
Q 1169 3672 1522 3987 
Q 1875 4303 2022 4600 
L 2384 4600 
L 2384 0 
z
" transform="scale(0.015625)"/>
       </defs>
       <use xlink:href="#ArialMT-31"/>
       <use xlink:href="#ArialMT-2e" x="55.615234"/>
       <use xlink:href="#ArialMT-30" x="83.398438"/>
      </g>
     </g>
    </g>
    <g id="text_7">
     <!-- $x$ -->
     <g style="fill: #262626" transform="translate(213.992875 300.531375) scale(0.096 -0.096)">
      <defs>
       <path id="DejaVuSans-Oblique-78" d="M 3841 3500 
L 2234 1784 
L 3219 0 
L 2559 0 
L 1819 1388 
L 531 0 
L -166 0 
L 1556 1844 
L 641 3500 
L 1300 3500 
L 1972 2234 
L 3144 3500 
L 3841 3500 
z
" transform="scale(0.015625)"/>
      </defs>
      <use xlink:href="#DejaVuSans-Oblique-78" transform="translate(0 0.3125)"/>
     </g>
    </g>
   </g>
   <g id="matplotlib.axis_2">
    <g id="ytick_1">
     <g id="line2d_7">
      <defs>
       <path id="md0668909b4" d="M 0 0 
L -4.8 0 
" style="stroke: #262626"/>
      </defs>
      <g>
       <use xlink:href="#md0668909b4" x="38.312875" y="246.7008" style="fill: #262626; stroke: #262626"/>
      </g>
     </g>
     <g id="text_8">
      <!-- −4 -->
      <g style="fill: #262626" transform="translate(19.9795 249.850237) scale(0.088 -0.088)">
       <defs>
        <path id="ArialMT-2212" d="M 3381 1997 
L 356 1997 
L 356 2522 
L 3381 2522 
L 3381 1997 
z
" transform="scale(0.015625)"/>
       </defs>
       <use xlink:href="#ArialMT-2212"/>
       <use xlink:href="#ArialMT-34" x="58.398438"/>
      </g>
     </g>
    </g>
    <g id="ytick_2">
     <g id="line2d_8">
      <g>
       <use xlink:href="#md0668909b4" x="38.312875" y="193.4784" style="fill: #262626; stroke: #262626"/>
      </g>
     </g>
     <g id="text_9">
      <!-- −2 -->
      <g style="fill: #262626" transform="translate(19.9795 196.627837) scale(0.088 -0.088)">
       <use xlink:href="#ArialMT-2212"/>
       <use xlink:href="#ArialMT-32" x="58.398438"/>
      </g>
     </g>
    </g>
    <g id="ytick_3">
     <g id="line2d_9">
      <g>
       <use xlink:href="#md0668909b4" x="38.312875" y="140.256" style="fill: #262626; stroke: #262626"/>
      </g>
     </g>
     <g id="text_10">
      <!-- 0 -->
      <g style="fill: #262626" transform="translate(25.11925 143.405437) scale(0.088 -0.088)">
       <use xlink:href="#ArialMT-30"/>
      </g>
     </g>
    </g>
    <g id="ytick_4">
     <g id="line2d_10">
      <g>
       <use xlink:href="#md0668909b4" x="38.312875" y="87.0336" style="fill: #262626; stroke: #262626"/>
      </g>
     </g>
     <g id="text_11">
      <!-- 2 -->
      <g style="fill: #262626" transform="translate(25.11925 90.183037) scale(0.088 -0.088)">
       <use xlink:href="#ArialMT-32"/>
      </g>
     </g>
    </g>
    <g id="ytick_5">
     <g id="line2d_11">
      <g>
       <use xlink:href="#md0668909b4" x="38.312875" y="33.8112" style="fill: #262626; stroke: #262626"/>
      </g>
     </g>
     <g id="text_12">
      <!-- 4 -->
      <g style="fill: #262626" transform="translate(25.11925 36.960637) scale(0.088 -0.088)">
       <use xlink:href="#ArialMT-34"/>
      </g>
     </g>
    </g>
    <g id="text_13">
     <!-- $y$ -->
     <g style="fill: #262626" transform="translate(13.9635 143.136) rotate(-90) scale(0.096 -0.096)">
      <defs>
       <path id="DejaVuSans-Oblique-79" d="M 1588 -325 
Q 1188 -997 936 -1164 
Q 684 -1331 294 -1331 
L -159 -1331 
L -63 -850 
L 269 -850 
Q 509 -850 678 -719 
Q 847 -588 1056 -206 
L 1234 128 
L 459 3500 
L 1069 3500 
L 1650 819 
L 3256 3500 
L 3859 3500 
L 1588 -325 
z
" transform="scale(0.015625)"/>
      </defs>
      <use xlink:href="#DejaVuSans-Oblique-79" transform="translate(0 0.3125)"/>
     </g>
    </g>
   </g>
   <g id="line2d_12">
    <path d="M 54.545602 140.256 
L 57.824941 140.256 
L 61.10428 140.256 
L 64.383619 140.256 
L 67.662958 140.256 
L 70.942296 140.256 
L 74.221636 140.256 
L 77.500973 140.256 
L 80.780313 140.256 
L 84.059653 140.256 
L 87.33899 140.256 
L 90.61833 140.256 
L 93.89767 140.256 
L 97.177007 140.256 
L 100.456344 140.256 
L 103.735686 140.256 
L 107.015024 140.256 
L 110.294361 140.256 
L 113.573703 140.256 
L 116.853041 140.256 
L 120.132378 140.256 
L 123.41172 140.256 
L 126.691057 140.256 
L 129.970395 140.256 
L 133.249737 140.256 
L 136.529069 140.256 
L 139.808412 140.256 
L 143.087754 140.256 
L 146.367086 140.256 
L 149.646428 140.256 
L 152.92577 140.256 
L 156.205103 140.256 
L 159.484445 140.256 
L 162.763787 140.256 
L 166.04312 140.256 
L 169.322462 140.256 
L 172.601804 140.256 
L 175.881137 140.256 
L 179.160479 140.256 
L 182.439821 140.256 
L 185.719153 140.256 
L 188.998496 140.256 
L 192.277838 140.256 
L 195.55717 140.256 
L 198.836512 140.256 
L 202.115855 140.256 
L 205.395187 140.256 
L 208.674529 140.256 
L 211.953871 140.256 
L 215.233204 140.256 
L 218.512556 140.256 
L 221.791879 140.256 
L 225.071221 140.256 
L 228.350563 140.256 
L 231.629886 140.256 
L 234.909247 140.256 
L 238.18857 140.256 
L 241.467912 140.256 
L 244.747254 140.256 
L 248.026597 140.256 
L 251.305939 140.256 
L 254.585262 140.256 
L 257.864623 140.256 
L 261.143946 140.256 
L 264.423288 140.256 
L 267.70263 140.256 
L 270.981953 140.256 
L 274.261315 140.256 
L 277.540637 140.256 
L 280.81998 140.256 
L 284.099322 140.256 
L 287.378664 140.256 
L 290.658006 140.256 
L 293.937329 140.256 
L 297.21669 140.256 
L 300.496013 140.256 
L 303.775355 140.256 
L 307.054697 140.256 
L 310.33402 140.256 
L 313.613382 140.256 
L 316.892705 140.256 
L 320.172047 140.256 
L 323.451389 140.256 
L 326.730731 140.256 
L 330.010073 140.256 
L 333.289396 140.256 
L 336.568738 140.256 
L 339.84808 140.256 
L 343.127423 140.256 
L 346.406765 140.256 
L 349.686088 140.256 
L 352.96543 140.256 
L 356.244772 140.256 
L 359.524114 140.256 
L 362.803456 140.256 
L 366.082798 140.256 
L 369.362141 140.256 
L 372.641463 140.256 
L 375.920806 140.256 
L 379.200148 140.256 
" clip-path="url(#p3a348f40b5)" style="fill: none; stroke: #1f77b4; stroke-width: 1.2; stroke-linecap: round"/>
   </g>
   <g id="line2d_13">
    <path d="M 54.545602 140.36882 
L 57.824941 139.972479 
L 61.10428 139.778366 
L 64.383619 139.368461 
L 67.662958 139.18096 
L 70.942296 138.923921 
L 74.221636 138.595298 
L 77.500973 138.27675 
L 80.780313 137.963326 
L 84.059653 137.817879 
L 87.33899 137.393643 
L 90.61833 137.224901 
L 93.89767 136.932286 
L 97.177007 136.805337 
L 100.456344 136.424375 
L 103.735686 136.161834 
L 107.015024 135.731267 
L 110.294361 135.460958 
L 113.573703 135.184562 
L 116.853041 134.931403 
L 120.132378 134.764136 
L 123.41172 134.389846 
L 126.691057 134.274178 
L 129.970395 133.892592 
L 133.249737 133.524483 
L 136.529069 133.296215 
L 139.808412 132.984431 
L 143.087754 132.752926 
L 146.367086 132.403106 
L 149.646428 132.255407 
L 152.92577 131.884386 
L 156.205103 131.707388 
L 159.484445 131.397314 
L 162.763787 131.097264 
L 166.04312 130.796889 
L 169.322462 130.533594 
L 172.601804 130.316966 
L 175.881137 129.965695 
L 179.160479 129.720181 
L 182.439821 129.352312 
L 185.719153 129.136173 
L 188.998496 128.880522 
L 192.277838 128.48326 
L 195.55717 128.454967 
L 198.836512 127.991958 
L 202.115855 127.75664 
L 205.395187 127.490854 
L 208.674529 127.233224 
L 211.953871 127.006737 
L 215.233204 126.690772 
L 218.512556 126.354991 
L 221.791879 126.090741 
L 225.071221 125.844356 
L 228.350563 125.621215 
L 231.629886 125.322236 
L 234.909247 124.964066 
L 238.18857 124.69682 
L 241.467912 124.408637 
L 244.747254 124.291113 
L 248.026597 123.734523 
L 251.305939 123.739223 
L 254.585262 123.405359 
L 257.864623 123.113584 
L 261.143946 122.654554 
L 264.423288 122.349323 
L 267.70263 122.174821 
L 270.981953 121.891374 
L 274.261315 121.717483 
L 277.540637 121.474059 
L 280.81998 121.172464 
L 284.099322 120.881862 
L 287.378664 120.73579 
L 290.658006 120.299258 
L 293.937329 120.131673 
L 297.21669 119.647453 
L 300.496013 119.464009 
L 303.775355 119.164148 
L 307.054697 118.931137 
L 310.33402 118.480732 
L 313.613382 118.443177 
L 316.892705 117.999132 
L 320.172047 117.82121 
L 323.451389 117.488109 
L 326.730731 117.243506 
L 330.010073 116.997586 
L 333.289396 116.664461 
L 336.568738 116.297984 
L 339.84808 116.20987 
L 343.127423 115.816047 
L 346.406765 115.587797 
L 349.686088 115.314903 
L 352.96543 115.119173 
L 356.244772 114.721581 
L 359.524114 114.393037 
L 362.803456 114.261304 
L 366.082798 113.826925 
L 369.362141 113.780608 
L 372.641463 113.26143 
L 375.920806 113.061074 
L 379.200148 112.719294 
" clip-path="url(#p3a348f40b5)" style="fill: none; stroke: #ff7f0e; stroke-width: 0.5; stroke-linecap: round"/>
   </g>
   <g id="line2d_14">
    <path d="M 54.545602 140.19495 
L 57.824941 140.55263 
L 61.10428 140.989004 
L 64.383619 141.133701 
L 67.662958 141.720961 
L 70.942296 141.910924 
L 74.221636 142.255918 
L 77.500973 142.525127 
L 80.780313 142.955725 
L 84.059653 143.261431 
L 87.33899 143.627899 
L 90.61833 143.838166 
L 93.89767 144.325744 
L 97.177007 144.601968 
L 100.456344 144.975922 
L 103.735686 145.226979 
L 107.015024 145.566041 
L 110.294361 145.951333 
L 113.573703 146.314426 
L 116.853041 146.605838 
L 120.132378 147.182757 
L 123.41172 147.310464 
L 126.691057 147.520719 
L 129.970395 147.923337 
L 133.249737 148.244802 
L 136.529069 148.70012 
L 139.808412 148.953528 
L 143.087754 149.208437 
L 146.367086 149.658693 
L 149.646428 150.095771 
L 152.92577 150.288827 
L 156.205103 150.718982 
L 159.484445 151.107898 
L 162.763787 151.514167 
L 166.04312 151.699898 
L 169.322462 151.926342 
L 172.601804 152.216354 
L 175.881137 152.773929 
L 179.160479 152.924875 
L 182.439821 153.466832 
L 185.719153 153.717452 
L 188.998496 153.934655 
L 192.277838 154.352041 
L 195.55717 154.814252 
L 198.836512 155.00446 
L 202.115855 155.406594 
L 205.395187 155.628969 
L 208.674529 155.921036 
L 211.953871 156.41946 
L 215.233204 156.637875 
L 218.512556 157.021311 
L 221.791879 157.292856 
L 225.071221 157.713439 
L 228.350563 158.051699 
L 231.629886 158.196722 
L 234.909247 158.593189 
L 238.18857 159.112596 
L 241.467912 159.437863 
L 244.747254 159.776968 
L 248.026597 159.934817 
L 251.305939 160.424073 
L 254.585262 160.651808 
L 257.864623 160.964721 
L 261.143946 161.533147 
L 264.423288 161.67601 
L 267.70263 162.006257 
L 270.981953 162.483319 
L 274.261315 162.860501 
L 277.540637 163.090711 
L 280.81998 163.32105 
L 284.099322 163.713656 
L 287.378664 164.037551 
L 290.658006 164.384607 
L 293.937329 164.632768 
L 297.21669 165.127908 
L 300.496013 165.341808 
L 303.775355 165.783167 
L 307.054697 166.064779 
L 310.33402 166.298509 
L 313.613382 166.729624 
L 316.892705 167.038714 
L 320.172047 167.381294 
L 323.451389 167.689581 
L 326.730731 168.032862 
L 330.010073 168.274436 
L 333.289396 168.815952 
L 336.568738 169.038311 
L 339.84808 169.496461 
L 343.127423 169.76034 
L 346.406765 170.064446 
L 349.686088 170.41174 
L 352.96543 170.718714 
L 356.244772 171.163684 
L 359.524114 171.290535 
L 362.803456 171.772147 
L 366.082798 172.180603 
L 369.362141 172.456549 
L 372.641463 172.866801 
L 375.920806 172.997027 
L 379.200148 173.497486 
" clip-path="url(#p3a348f40b5)" style="fill: none; stroke: #ff7f0e; stroke-width: 0.5; stroke-linecap: round"/>
   </g>
   <g id="line2d_15">
    <path d="M 54.545602 140.3033 
L 57.824941 140.616699 
L 61.10428 140.757344 
L 64.383619 141.156524 
L 67.662958 141.500128 
L 70.942296 141.549483 
L 74.221636 141.894421 
L 77.500973 142.315873 
L 80.780313 142.459922 
L 84.059653 142.897169 
L 87.33899 143.048571 
L 90.61833 143.39724 
L 93.89767 143.686135 
L 97.177007 143.71814 
L 100.456344 144.113763 
L 103.735686 144.29785 
L 107.015024 144.648005 
L 110.294361 144.874032 
L 113.573703 145.266099 
L 116.853041 145.649158 
L 120.132378 145.958052 
L 123.41172 146.407391 
L 126.691057 146.523736 
L 129.970395 146.595538 
L 133.249737 146.975333 
L 136.529069 147.330055 
L 139.808412 147.643236 
L 143.087754 147.915644 
L 146.367086 148.031632 
L 149.646428 148.426701 
L 152.92577 148.732572 
L 156.205103 149.169814 
L 159.484445 149.35943 
L 162.763787 149.649227 
L 166.04312 150.032308 
L 169.322462 150.136163 
L 172.601804 150.398424 
L 175.881137 150.648039 
L 179.160479 151.020453 
L 182.439821 151.394749 
L 185.719153 151.564643 
L 188.998496 151.903162 
L 192.277838 152.162861 
L 195.55717 152.532486 
L 198.836512 152.929774 
L 202.115855 153.030779 
L 205.395187 153.363613 
L 208.674529 153.456085 
L 211.953871 153.812386 
L 215.233204 154.273806 
L 218.512556 154.381285 
L 221.791879 154.747773 
L 225.071221 155.096327 
L 228.350563 155.242804 
L 231.629886 155.607768 
L 234.909247 155.79223 
L 238.18857 156.162897 
L 241.467912 156.394801 
L 244.747254 156.77873 
L 248.026597 157.071461 
L 251.305939 157.153086 
L 254.585262 157.469429 
L 257.864623 157.853822 
L 261.143946 158.097593 
L 264.423288 158.385758 
L 267.70263 158.625784 
L 270.981953 158.933107 
L 274.261315 159.356757 
L 277.540637 159.611423 
L 280.81998 159.671962 
L 284.099322 159.958178 
L 287.378664 160.436295 
L 290.658006 160.616182 
L 293.937329 160.917182 
L 297.21669 161.238844 
L 300.496013 161.489526 
L 303.775355 161.717205 
L 307.054697 162.060604 
L 310.33402 162.293998 
L 313.613382 162.684903 
L 316.892705 163.082791 
L 320.172047 163.240093 
L 323.451389 163.401407 
L 326.730731 163.798037 
L 330.010073 163.995992 
L 333.289396 164.448588 
L 336.568738 164.578901 
L 339.84808 165.042592 
L 343.127423 165.106977 
L 346.406765 165.538078 
L 349.686088 165.76979 
L 352.96543 165.971389 
L 356.244772 166.304359 
L 359.524114 166.536611 
L 362.803456 166.86671 
L 366.082798 167.232992 
L 369.362141 167.442145 
L 372.641463 167.895394 
L 375.920806 168.148087 
L 379.200148 168.43583 
" clip-path="url(#p3a348f40b5)" style="fill: none; stroke: #ff7f0e; stroke-width: 0.5; stroke-linecap: round"/>
   </g>
   <g id="line2d_16">
    <path d="M 54.545602 140.399345 
L 57.824941 140.245586 
L 61.10428 140.365639 
L 64.383619 140.15944 
L 67.662958 140.026088 
L 70.942296 140.03653 
L 74.221636 140.002537 
L 77.500973 139.915186 
L 80.780313 139.675298 
L 84.059653 139.761749 
L 87.33899 139.789116 
L 90.61833 139.774487 
L 93.89767 139.586912 
L 97.177007 139.734522 
L 100.456344 139.57112 
L 103.735686 139.509113 
L 107.015024 139.536073 
L 110.294361 139.526371 
L 113.573703 139.54311 
L 116.853041 139.453069 
L 120.132378 139.383819 
L 123.41172 139.388036 
L 126.691057 139.440279 
L 129.970395 139.370691 
L 133.249737 139.078548 
L 136.529069 139.090856 
L 139.808412 139.147247 
L 143.087754 138.838355 
L 146.367086 138.980042 
L 149.646428 138.836133 
L 152.92577 139.013929 
L 156.205103 138.90812 
L 159.484445 138.984648 
L 162.763787 138.946359 
L 166.04312 138.800501 
L 169.322462 138.910445 
L 172.601804 138.806204 
L 175.881137 138.772117 
L 179.160479 138.568416 
L 182.439821 138.485112 
L 185.719153 138.431803 
L 188.998496 138.474425 
L 192.277838 138.504847 
L 195.55717 138.391495 
L 198.836512 138.364031 
L 202.115855 138.206926 
L 205.395187 138.280818 
L 208.674529 138.227381 
L 211.953871 138.115554 
L 215.233204 138.201282 
L 218.512556 138.232629 
L 221.791879 137.947879 
L 225.071221 137.956388 
L 228.350563 138.023361 
L 231.629886 137.908755 
L 234.909247 137.886825 
L 238.18857 137.822927 
L 241.467912 137.909419 
L 244.747254 137.696615 
L 248.026597 137.773806 
L 251.305939 137.712928 
L 254.585262 137.545433 
L 257.864623 137.527131 
L 261.143946 137.626785 
L 264.423288 137.417297 
L 267.70263 137.536438 
L 270.981953 137.393212 
L 274.261315 137.356633 
L 277.540637 137.339534 
L 280.81998 137.375946 
L 284.099322 137.303559 
L 287.378664 137.396352 
L 290.658006 137.154174 
L 293.937329 137.10254 
L 297.21669 137.225477 
L 300.496013 137.047895 
L 303.775355 136.900546 
L 307.054697 137.089091 
L 310.33402 136.866124 
L 313.613382 136.874856 
L 316.892705 136.877717 
L 320.172047 136.793644 
L 323.451389 136.751875 
L 326.730731 136.700445 
L 330.010073 136.653059 
L 333.289396 136.538802 
L 336.568738 136.617929 
L 339.84808 136.419073 
L 343.127423 136.344747 
L 346.406765 136.428649 
L 349.686088 136.509117 
L 352.96543 136.314833 
L 356.244772 136.166593 
L 359.524114 136.09046 
L 362.803456 136.310389 
L 366.082798 136.259332 
L 369.362141 136.067469 
L 372.641463 136.100925 
L 375.920806 135.872624 
L 379.200148 135.983767 
" clip-path="url(#p3a348f40b5)" style="fill: none; stroke: #ff7f0e; stroke-width: 0.5; stroke-linecap: round"/>
   </g>
   <g id="line2d_17">
    <path d="M 54.545602 140.18004 
L 57.824941 140.371022 
L 61.10428 140.331706 
L 64.383619 140.670185 
L 67.662958 140.46288 
L 70.942296 140.601701 
L 74.221636 140.66732 
L 77.500973 140.905308 
L 80.780313 140.902191 
L 84.059653 141.002147 
L 87.33899 140.915696 
L 90.61833 140.923606 
L 93.89767 140.942784 
L 97.177007 141.206722 
L 100.456344 141.413355 
L 103.735686 141.348792 
L 107.015024 141.266778 
L 110.294361 141.541795 
L 113.573703 141.481539 
L 116.853041 141.538898 
L 120.132378 141.566857 
L 123.41172 141.716893 
L 126.691057 141.868245 
L 129.970395 141.75231 
L 133.249737 141.972465 
L 136.529069 141.814314 
L 139.808412 142.070334 
L 143.087754 141.988913 
L 146.367086 142.358419 
L 149.646428 142.331212 
L 152.92577 142.179951 
L 156.205103 142.248631 
L 159.484445 142.36092 
L 162.763787 142.618096 
L 166.04312 142.474577 
L 169.322462 142.623133 
L 172.601804 142.729839 
L 175.881137 142.553007 
L 179.160479 142.702164 
L 182.439821 142.819789 
L 185.719153 142.783124 
L 188.998496 143.062105 
L 192.277838 143.008836 
L 195.55717 143.130194 
L 198.836512 143.271947 
L 202.115855 143.272163 
L 205.395187 143.295307 
L 208.674529 143.485241 
L 211.953871 143.520455 
L 215.233204 143.674898 
L 218.512556 143.573066 
L 221.791879 143.565569 
L 225.071221 143.702195 
L 228.350563 143.967692 
L 231.629886 143.779046 
L 234.909247 143.826772 
L 238.18857 143.846446 
L 241.467912 144.066951 
L 244.747254 144.179393 
L 248.026597 144.106167 
L 251.305939 144.374871 
L 254.585262 144.474498 
L 257.864623 144.524206 
L 261.143946 144.539766 
L 264.423288 144.475584 
L 267.70263 144.648518 
L 270.981953 144.68992 
L 274.261315 144.687969 
L 277.540637 144.893915 
L 280.81998 144.768339 
L 284.099322 144.879392 
L 287.378664 145.041717 
L 290.658006 145.17853 
L 293.937329 145.245966 
L 297.21669 145.381502 
L 300.496013 145.300177 
L 303.775355 145.319412 
L 307.054697 145.486172 
L 310.33402 145.461981 
L 313.613382 145.519447 
L 316.892705 145.694702 
L 320.172047 145.645397 
L 323.451389 145.802668 
L 326.730731 145.74403 
L 330.010073 145.923057 
L 333.289396 145.899713 
L 336.568738 146.104954 
L 339.84808 145.99173 
L 343.127423 146.039128 
L 346.406765 146.322272 
L 349.686088 146.313449 
L 352.96543 146.309018 
L 356.244772 146.305819 
L 359.524114 146.514668 
L 362.803456 146.700304 
L 366.082798 146.547954 
L 369.362141 146.544941 
L 372.641463 146.713234 
L 375.920806 146.784614 
L 379.200148 146.809803 
" clip-path="url(#p3a348f40b5)" style="fill: none; stroke: #ff7f0e; stroke-width: 0.5; stroke-linecap: round"/>
   </g>
   <g id="line2d_18">
    <path d="M 54.545602 140.540545 
L 57.824941 140.486928 
L 61.10428 140.691596 
L 64.383619 140.824572 
L 67.662958 141.01762 
L 70.942296 141.285786 
L 74.221636 141.455278 
L 77.500973 141.718215 
L 80.780313 141.813804 
L 84.059653 142.048006 
L 87.33899 142.188002 
L 90.61833 142.475636 
L 93.89767 142.643127 
L 97.177007 142.782145 
L 100.456344 142.761929 
L 103.735686 143.220512 
L 107.015024 143.268363 
L 110.294361 143.507619 
L 113.573703 143.801318 
L 116.853041 144.021432 
L 120.132378 144.332753 
L 123.41172 144.408335 
L 126.691057 144.553198 
L 129.970395 144.729409 
L 133.249737 144.964572 
L 136.529069 145.246787 
L 139.808412 145.428764 
L 143.087754 145.380443 
L 146.367086 145.708989 
L 149.646428 146.042197 
L 152.92577 146.123463 
L 156.205103 146.278875 
L 159.484445 146.5182 
L 162.763787 146.62265 
L 166.04312 146.955436 
L 169.322462 147.161691 
L 172.601804 147.284135 
L 175.881137 147.453217 
L 179.160479 147.559256 
L 182.439821 147.974397 
L 185.719153 148.101154 
L 188.998496 148.406464 
L 192.277838 148.535476 
L 195.55717 148.712932 
L 198.836512 148.929617 
L 202.115855 149.136494 
L 205.395187 149.25065 
L 208.674529 149.520138 
L 211.953871 149.951073 
L 215.233204 150.071001 
L 218.512556 150.004757 
L 221.791879 150.28388 
L 225.071221 150.55651 
L 228.350563 150.683707 
L 231.629886 150.956981 
L 234.909247 151.016243 
L 238.18857 151.25946 
L 241.467912 151.461007 
L 244.747254 151.81501 
L 248.026597 151.759195 
L 251.305939 151.937473 
L 254.585262 152.227389 
L 257.864623 152.461636 
L 261.143946 152.559914 
L 264.423288 152.858535 
L 267.70263 153.096281 
L 270.981953 153.168961 
L 274.261315 153.328995 
L 277.540637 153.655146 
L 280.81998 153.766965 
L 284.099322 154.192761 
L 287.378664 154.196384 
L 290.658006 154.353204 
L 293.937329 154.671749 
L 297.21669 154.89946 
L 300.496013 154.834472 
L 303.775355 155.192791 
L 307.054697 155.316835 
L 310.33402 155.623585 
L 313.613382 155.80178 
L 316.892705 155.915248 
L 320.172047 156.173049 
L 323.451389 156.515603 
L 326.730731 156.589976 
L 330.010073 156.822616 
L 333.289396 157.044046 
L 336.568738 157.115012 
L 339.84808 157.264549 
L 343.127423 157.504929 
L 346.406765 157.702359 
L 349.686088 157.968323 
L 352.96543 158.064485 
L 356.244772 158.377899 
L 359.524114 158.574765 
L 362.803456 158.599497 
L 366.082798 158.969441 
L 369.362141 158.997197 
L 372.641463 159.320774 
L 375.920806 159.544587 
L 379.200148 159.618391 
" clip-path="url(#p3a348f40b5)" style="fill: none; stroke: #ff7f0e; stroke-width: 0.5; stroke-linecap: round"/>
   </g>
   <g id="line2d_19">
    <path d="M 54.545602 140.114388 
L 57.824941 140.015498 
L 61.10428 139.936834 
L 64.383619 139.707522 
L 67.662958 139.478247 
L 70.942296 139.257084 
L 74.221636 139.151922 
L 77.500973 138.920509 
L 80.780313 138.731523 
L 84.059653 138.358216 
L 87.33899 138.325009 
L 90.61833 138.341467 
L 93.89767 138.163011 
L 97.177007 137.705516 
L 100.456344 137.591744 
L 103.735686 137.4756 
L 107.015024 137.09718 
L 110.294361 137.017312 
L 113.573703 136.861788 
L 116.853041 136.530775 
L 120.132378 136.402138 
L 123.41172 136.177913 
L 126.691057 136.05375 
L 129.970395 135.839854 
L 133.249737 135.613984 
L 136.529069 135.244021 
L 139.808412 135.081238 
L 143.087754 135.019257 
L 146.367086 134.722627 
L 149.646428 134.696633 
L 152.92577 134.51509 
L 156.205103 134.241631 
L 159.484445 133.961274 
L 162.763787 133.904569 
L 166.04312 133.671308 
L 169.322462 133.514785 
L 172.601804 133.23133 
L 175.881137 133.107954 
L 179.160479 132.926878 
L 182.439821 132.723307 
L 185.719153 132.459318 
L 188.998496 132.472013 
L 192.277838 132.127345 
L 195.55717 131.883048 
L 198.836512 131.6148 
L 202.115855 131.558762 
L 205.395187 131.383913 
L 208.674529 131.254244 
L 211.953871 130.98325 
L 215.233204 130.873631 
L 218.512556 130.587119 
L 221.791879 130.389077 
L 225.071221 130.17934 
L 228.350563 130.052149 
L 231.629886 130.018995 
L 234.909247 129.632858 
L 238.18857 129.355055 
L 241.467912 129.273386 
L 244.747254 129.111621 
L 248.026597 128.860063 
L 251.305939 128.575731 
L 254.585262 128.439014 
L 257.864623 128.406744 
L 261.143946 128.054337 
L 264.423288 127.958443 
L 267.70263 127.583688 
L 270.981953 127.371621 
L 274.261315 127.33313 
L 277.540637 127.262283 
L 280.81998 127.069638 
L 284.099322 126.774423 
L 287.378664 126.587806 
L 290.658006 126.439334 
L 293.937329 126.231967 
L 297.21669 125.818078 
L 300.496013 125.815279 
L 303.775355 125.58773 
L 307.054697 125.347106 
L 310.33402 125.35637 
L 313.613382 124.902251 
L 316.892705 124.756525 
L 320.172047 124.482051 
L 323.451389 124.382386 
L 326.730731 124.065413 
L 330.010073 123.925397 
L 333.289396 123.860463 
L 336.568738 123.637447 
L 339.84808 123.455884 
L 343.127423 123.067945 
L 346.406765 123.042879 
L 349.686088 122.865214 
L 352.96543 122.469923 
L 356.244772 122.255106 
L 359.524114 122.057679 
L 362.803456 122.041273 
L 366.082798 121.883708 
L 369.362141 121.745681 
L 372.641463 121.607053 
L 375.920806 121.270529 
L 379.200148 120.914683 
" clip-path="url(#p3a348f40b5)" style="fill: none; stroke: #ff7f0e; stroke-width: 0.5; stroke-linecap: round"/>
   </g>
   <g id="line2d_20">
    <path d="M 54.545602 140.191073 
L 57.824941 140.610771 
L 61.10428 140.855589 
L 64.383619 140.924533 
L 67.662958 141.283132 
L 70.942296 141.739834 
L 74.221636 142.008195 
L 77.500973 142.13961 
L 80.780313 142.673364 
L 84.059653 142.75525 
L 87.33899 143.050272 
L 90.61833 143.228976 
L 93.89767 143.537308 
L 97.177007 143.965333 
L 100.456344 143.999427 
L 103.735686 144.418088 
L 107.015024 144.548175 
L 110.294361 145.069139 
L 113.573703 145.199913 
L 116.853041 145.625847 
L 120.132378 145.663531 
L 123.41172 146.207621 
L 126.691057 146.311641 
L 129.970395 146.533245 
L 133.249737 146.925257 
L 136.529069 147.198821 
L 139.808412 147.433731 
L 143.087754 147.61468 
L 146.367086 147.930002 
L 149.646428 148.391005 
L 152.92577 148.678832 
L 156.205103 148.914708 
L 159.484445 149.055315 
L 162.763787 149.537523 
L 166.04312 149.674055 
L 169.322462 149.946438 
L 172.601804 150.157169 
L 175.881137 150.530262 
L 179.160479 150.680406 
L 182.439821 150.982612 
L 185.719153 151.289415 
L 188.998496 151.711944 
L 192.277838 151.908086 
L 195.55717 152.184718 
L 198.836512 152.540144 
L 202.115855 152.838723 
L 205.395187 152.955666 
L 208.674529 153.312811 
L 211.953871 153.661112 
L 215.233204 153.838171 
L 218.512556 154.188249 
L 221.791879 154.469928 
L 225.071221 154.788621 
L 228.350563 154.99043 
L 231.629886 155.046079 
L 234.909247 155.570546 
L 238.18857 155.873634 
L 241.467912 155.992088 
L 244.747254 156.357969 
L 248.026597 156.742171 
L 251.305939 156.925597 
L 254.585262 157.269163 
L 257.864623 157.341787 
L 261.143946 157.732448 
L 264.423288 158.074403 
L 267.70263 158.273554 
L 270.981953 158.584747 
L 274.261315 158.876811 
L 277.540637 159.250448 
L 280.81998 159.460145 
L 284.099322 159.787943 
L 287.378664 159.962668 
L 290.658006 160.394937 
L 293.937329 160.463648 
L 297.21669 160.83755 
L 300.496013 161.100069 
L 303.775355 161.425863 
L 307.054697 161.667892 
L 310.33402 161.979694 
L 313.613382 162.243803 
L 316.892705 162.557393 
L 320.172047 162.809955 
L 323.451389 163.145982 
L 326.730731 163.295933 
L 330.010073 163.650443 
L 333.289396 163.813494 
L 336.568738 164.033633 
L 339.84808 164.531231 
L 343.127423 164.676192 
L 346.406765 165.102759 
L 349.686088 165.199893 
L 352.96543 165.383968 
L 356.244772 165.763577 
L 359.524114 166.06883 
L 362.803456 166.26073 
L 366.082798 166.520482 
L 369.362141 166.975201 
L 372.641463 167.265444 
L 375.920806 167.484057 
L 379.200148 167.769986 
" clip-path="url(#p3a348f40b5)" style="fill: none; stroke: #ff7f0e; stroke-width: 0.5; stroke-linecap: round"/>
   </g>
   <g id="line2d_21">
    <path d="M 54.545602 140.227652 
L 57.824941 140.223457 
L 61.10428 140.055661 
L 64.383619 140.014314 
L 67.662958 139.928183 
L 70.942296 139.782898 
L 74.221636 139.697413 
L 77.500973 139.404178 
L 80.780313 139.491586 
L 84.059653 139.262189 
L 87.33899 139.472575 
L 90.61833 139.250396 
L 93.89767 139.023256 
L 97.177007 139.014977 
L 100.456344 138.813795 
L 103.735686 138.724034 
L 107.015024 138.888472 
L 110.294361 138.604883 
L 113.573703 138.64147 
L 116.853041 138.36263 
L 120.132378 138.360542 
L 123.41172 138.162111 
L 126.691057 138.137946 
L 129.970395 137.926566 
L 133.249737 137.903912 
L 136.529069 137.738064 
L 139.808412 137.577025 
L 143.087754 137.541803 
L 146.367086 137.452075 
L 149.646428 137.410911 
L 152.92577 137.452876 
L 156.205103 137.280161 
L 159.484445 137.181802 
L 162.763787 136.990701 
L 166.04312 136.950574 
L 169.322462 136.907018 
L 172.601804 136.851972 
L 175.881137 136.663589 
L 179.160479 136.494583 
L 182.439821 136.454314 
L 185.719153 136.390564 
L 188.998496 136.283519 
L 192.277838 136.066518 
L 195.55717 136.08956 
L 198.836512 135.990009 
L 202.115855 135.862443 
L 205.395187 135.795287 
L 208.674529 135.72926 
L 211.953871 135.628458 
L 215.233204 135.588209 
L 218.512556 135.37187 
L 221.791879 135.251519 
L 225.071221 135.258288 
L 228.350563 135.102493 
L 231.629886 134.873495 
L 234.909247 134.981969 
L 238.18857 134.692682 
L 241.467912 134.752063 
L 244.747254 134.596414 
L 248.026597 134.588216 
L 251.305939 134.54633 
L 254.585262 134.406864 
L 257.864623 134.228127 
L 261.143946 134.10539 
L 264.423288 134.031504 
L 267.70263 133.850594 
L 270.981953 133.867385 
L 274.261315 133.591073 
L 277.540637 133.6768 
L 280.81998 133.615781 
L 284.099322 133.296768 
L 287.378664 133.203024 
L 290.658006 133.29207 
L 293.937329 133.222721 
L 297.21669 132.987102 
L 300.496013 132.940319 
L 303.775355 132.7323 
L 307.054697 132.723016 
L 310.33402 132.574898 
L 313.613382 132.572554 
L 316.892705 132.431151 
L 320.172047 132.267871 
L 323.451389 132.221712 
L 326.730731 132.195885 
L 330.010073 131.894205 
L 333.289396 131.968547 
L 336.568738 131.927708 
L 339.84808 131.938028 
L 343.127423 131.562082 
L 346.406765 131.541146 
L 349.686088 131.431412 
L 352.96543 131.440071 
L 356.244772 131.243526 
L 359.524114 131.205509 
L 362.803456 131.199877 
L 366.082798 130.94544 
L 369.362141 130.899316 
L 372.641463 130.78708 
L 375.920806 130.722573 
L 379.200148 130.577909 
" clip-path="url(#p3a348f40b5)" style="fill: none; stroke: #ff7f0e; stroke-width: 0.5; stroke-linecap: round"/>
   </g>
   <g id="line2d_22">
    <path d="M 54.545602 140.25968 
L 57.824941 140.319601 
L 61.10428 140.274525 
L 64.383619 140.136914 
L 67.662958 140.14222 
L 70.942296 140.250582 
L 74.221636 140.245361 
L 77.500973 140.274524 
L 80.780313 140.256637 
L 84.059653 140.305704 
L 87.33899 140.169168 
L 90.61833 140.324942 
L 93.89767 140.239704 
L 97.177007 140.339343 
L 100.456344 140.273323 
L 103.735686 140.333346 
L 107.015024 140.338844 
L 110.294361 140.346098 
L 113.573703 140.254057 
L 116.853041 140.345645 
L 120.132378 140.294292 
L 123.41172 140.28627 
L 126.691057 140.241147 
L 129.970395 140.219693 
L 133.249737 140.148685 
L 136.529069 140.297829 
L 139.808412 140.354728 
L 143.087754 140.218188 
L 146.367086 140.237767 
L 149.646428 140.228026 
L 152.92577 140.241378 
L 156.205103 140.350206 
L 159.484445 140.256446 
L 162.763787 140.405427 
L 166.04312 140.385905 
L 169.322462 140.288534 
L 172.601804 140.305268 
L 175.881137 140.396283 
L 179.160479 140.33505 
L 182.439821 140.16794 
L 185.719153 140.198886 
L 188.998496 140.268449 
L 192.277838 140.2949 
L 195.55717 140.297231 
L 198.836512 140.454351 
L 202.115855 140.328655 
L 205.395187 140.424842 
L 208.674529 140.211046 
L 211.953871 140.288795 
L 215.233204 140.382911 
L 218.512556 140.427478 
L 221.791879 140.320504 
L 225.071221 140.407604 
L 228.350563 140.233883 
L 231.629886 140.345188 
L 234.909247 140.323876 
L 238.18857 140.281321 
L 241.467912 140.310788 
L 244.747254 140.47618 
L 248.026597 140.369556 
L 251.305939 140.260096 
L 254.585262 140.286852 
L 257.864623 140.454676 
L 261.143946 140.356403 
L 264.423288 140.376213 
L 267.70263 140.373634 
L 270.981953 140.418328 
L 274.261315 140.444908 
L 277.540637 140.361394 
L 280.81998 140.369702 
L 284.099322 140.265532 
L 287.378664 140.405241 
L 290.658006 140.400406 
L 293.937329 140.416208 
L 297.21669 140.251755 
L 300.496013 140.356207 
L 303.775355 140.524459 
L 307.054697 140.38305 
L 310.33402 140.317657 
L 313.613382 140.379354 
L 316.892705 140.227648 
L 320.172047 140.386691 
L 323.451389 140.233462 
L 326.730731 140.353994 
L 330.010073 140.335038 
L 333.289396 140.424556 
L 336.568738 140.461357 
L 339.84808 140.504242 
L 343.127423 140.444752 
L 346.406765 140.368104 
L 349.686088 140.406504 
L 352.96543 140.446881 
L 356.244772 140.429316 
L 359.524114 140.231506 
L 362.803456 140.45157 
L 366.082798 140.212525 
L 369.362141 140.451428 
L 372.641463 140.369272 
L 375.920806 140.357424 
L 379.200148 140.326427 
" clip-path="url(#p3a348f40b5)" style="fill: none; stroke: #ff7f0e; stroke-width: 0.5; stroke-linecap: round"/>
   </g>
   <g id="patch_3">
    <path d="M 38.312875 246.7008 
L 38.312875 33.8112 
" style="fill: none; stroke: #262626; stroke-linejoin: miter; stroke-linecap: square"/>
   </g>
   <g id="patch_4">
    <path d="M 54.545602 273.312 
L 379.200148 273.312 
" style="fill: none; stroke: #262626; stroke-linejoin: miter; stroke-linecap: square"/>
   </g>
   <g id="legend_1">
    <g id="line2d_23">
     <path d="M 334.506625 18.338875 
L 343.306625 18.338875 
L 352.106625 18.338875 
" style="fill: none; stroke: #1f77b4; stroke-width: 1.2; stroke-linecap: round"/>
    </g>
    <g id="text_14">
     <!-- mean -->
     <g style="fill: #262626" transform="translate(359.146625 21.418875) scale(0.088 -0.088)">
      <defs>
       <path id="ArialMT-6d" d="M 422 0 
L 422 3319 
L 925 3319 
L 925 2853 
Q 1081 3097 1340 3245 
Q 1600 3394 1931 3394 
Q 2300 3394 2536 3241 
Q 2772 3088 2869 2813 
Q 3263 3394 3894 3394 
Q 4388 3394 4653 3120 
Q 4919 2847 4919 2278 
L 4919 0 
L 4359 0 
L 4359 2091 
Q 4359 2428 4304 2576 
Q 4250 2725 4106 2815 
Q 3963 2906 3769 2906 
Q 3419 2906 3187 2673 
Q 2956 2441 2956 1928 
L 2956 0 
L 2394 0 
L 2394 2156 
Q 2394 2531 2256 2718 
Q 2119 2906 1806 2906 
Q 1569 2906 1367 2781 
Q 1166 2656 1075 2415 
Q 984 2175 984 1722 
L 984 0 
L 422 0 
z
" transform="scale(0.015625)"/>
       <path id="ArialMT-65" d="M 2694 1069 
L 3275 997 
Q 3138 488 2766 206 
Q 2394 -75 1816 -75 
Q 1088 -75 661 373 
Q 234 822 234 1631 
Q 234 2469 665 2931 
Q 1097 3394 1784 3394 
Q 2450 3394 2872 2941 
Q 3294 2488 3294 1666 
Q 3294 1616 3291 1516 
L 816 1516 
Q 847 969 1125 678 
Q 1403 388 1819 388 
Q 2128 388 2347 550 
Q 2566 713 2694 1069 
z
M 847 1978 
L 2700 1978 
Q 2663 2397 2488 2606 
Q 2219 2931 1791 2931 
Q 1403 2931 1139 2672 
Q 875 2413 847 1978 
z
" transform="scale(0.015625)"/>
       <path id="ArialMT-61" d="M 2588 409 
Q 2275 144 1986 34 
Q 1697 -75 1366 -75 
Q 819 -75 525 192 
Q 231 459 231 875 
Q 231 1119 342 1320 
Q 453 1522 633 1644 
Q 813 1766 1038 1828 
Q 1203 1872 1538 1913 
Q 2219 1994 2541 2106 
Q 2544 2222 2544 2253 
Q 2544 2597 2384 2738 
Q 2169 2928 1744 2928 
Q 1347 2928 1158 2789 
Q 969 2650 878 2297 
L 328 2372 
Q 403 2725 575 2942 
Q 747 3159 1072 3276 
Q 1397 3394 1825 3394 
Q 2250 3394 2515 3294 
Q 2781 3194 2906 3042 
Q 3031 2891 3081 2659 
Q 3109 2516 3109 2141 
L 3109 1391 
Q 3109 606 3145 398 
Q 3181 191 3288 0 
L 2700 0 
Q 2613 175 2588 409 
z
M 2541 1666 
Q 2234 1541 1622 1453 
Q 1275 1403 1131 1340 
Q 988 1278 909 1158 
Q 831 1038 831 891 
Q 831 666 1001 516 
Q 1172 366 1500 366 
Q 1825 366 2078 508 
Q 2331 650 2450 897 
Q 2541 1088 2541 1459 
L 2541 1666 
z
" transform="scale(0.015625)"/>
       <path id="ArialMT-6e" d="M 422 0 
L 422 3319 
L 928 3319 
L 928 2847 
Q 1294 3394 1984 3394 
Q 2284 3394 2536 3286 
Q 2788 3178 2913 3003 
Q 3038 2828 3088 2588 
Q 3119 2431 3119 2041 
L 3119 0 
L 2556 0 
L 2556 2019 
Q 2556 2363 2490 2533 
Q 2425 2703 2258 2804 
Q 2091 2906 1866 2906 
Q 1506 2906 1245 2678 
Q 984 2450 984 1813 
L 984 0 
L 422 0 
z
" transform="scale(0.015625)"/>
      </defs>
      <use xlink:href="#ArialMT-6d"/>
      <use xlink:href="#ArialMT-65" x="83.300781"/>
      <use xlink:href="#ArialMT-61" x="138.916016"/>
      <use xlink:href="#ArialMT-6e" x="194.53125"/>
     </g>
    </g>
    <g id="line2d_24">
     <path d="M 334.506625 30.78675 
L 343.306625 30.78675 
L 352.106625 30.78675 
" style="fill: none; stroke: #ff7f0e; stroke-width: 0.5; stroke-linecap: round"/>
    </g>
    <g id="text_15">
     <!-- sample -->
     <g style="fill: #262626" transform="translate(359.146625 33.86675) scale(0.088 -0.088)">
      <defs>
       <path id="ArialMT-73" d="M 197 991 
L 753 1078 
Q 800 744 1014 566 
Q 1228 388 1613 388 
Q 2000 388 2187 545 
Q 2375 703 2375 916 
Q 2375 1106 2209 1216 
Q 2094 1291 1634 1406 
Q 1016 1563 777 1677 
Q 538 1791 414 1992 
Q 291 2194 291 2438 
Q 291 2659 392 2848 
Q 494 3038 669 3163 
Q 800 3259 1026 3326 
Q 1253 3394 1513 3394 
Q 1903 3394 2198 3281 
Q 2494 3169 2634 2976 
Q 2775 2784 2828 2463 
L 2278 2388 
Q 2241 2644 2061 2787 
Q 1881 2931 1553 2931 
Q 1166 2931 1000 2803 
Q 834 2675 834 2503 
Q 834 2394 903 2306 
Q 972 2216 1119 2156 
Q 1203 2125 1616 2013 
Q 2213 1853 2448 1751 
Q 2684 1650 2818 1456 
Q 2953 1263 2953 975 
Q 2953 694 2789 445 
Q 2625 197 2315 61 
Q 2006 -75 1616 -75 
Q 969 -75 630 194 
Q 291 463 197 991 
z
" transform="scale(0.015625)"/>
       <path id="ArialMT-70" d="M 422 -1272 
L 422 3319 
L 934 3319 
L 934 2888 
Q 1116 3141 1344 3267 
Q 1572 3394 1897 3394 
Q 2322 3394 2647 3175 
Q 2972 2956 3137 2557 
Q 3303 2159 3303 1684 
Q 3303 1175 3120 767 
Q 2938 359 2589 142 
Q 2241 -75 1856 -75 
Q 1575 -75 1351 44 
Q 1128 163 984 344 
L 984 -1272 
L 422 -1272 
z
M 931 1641 
Q 931 1000 1190 694 
Q 1450 388 1819 388 
Q 2194 388 2461 705 
Q 2728 1022 2728 1688 
Q 2728 2322 2467 2637 
Q 2206 2953 1844 2953 
Q 1484 2953 1207 2617 
Q 931 2281 931 1641 
z
" transform="scale(0.015625)"/>
       <path id="ArialMT-6c" d="M 409 0 
L 409 4581 
L 972 4581 
L 972 0 
L 409 0 
z
" transform="scale(0.015625)"/>
      </defs>
      <use xlink:href="#ArialMT-73"/>
      <use xlink:href="#ArialMT-61" x="50"/>
      <use xlink:href="#ArialMT-6d" x="105.615234"/>
      <use xlink:href="#ArialMT-70" x="188.916016"/>
      <use xlink:href="#ArialMT-6c" x="244.53125"/>
      <use xlink:href="#ArialMT-65" x="266.748047"/>
     </g>
    </g>
   </g>
  </g>
 </g>
 <defs>
  <clipPath id="p3a348f40b5">
   <rect x="38.312875" y="7.2" width="357.12" height="266.112"/>
  </clipPath>
 </defs>
</svg>