<?xml version="1.0" encoding="utf-8" standalone="no"?>
<!DOCTYPE svg PUBLIC "-//W3C//DTD SVG 1.1//EN"
  "http://www.w3.org/Graphics/SVG/1.1/DTD/svg11.dtd">
<svg xmlns:xlink="http://www.w3.org/1999/xlink" width="450.74225pt" height="322.510875pt" viewBox="0 0 450.74225 322.510875" xmlns="http://www.w3.org/2000/svg" version="1.1">
 <metadata>
  <rdf:RDF xmlns:dc="http://purl.org/dc/elements/1.1/" xmlns:cc="http://creativecommons.org/ns#" xmlns:rdf="http://www.w3.org/1999/02/22-rdf-syntax-ns#">
   <cc:Work>
    <dc:type rdf:resource="http://purl.org/dc/dcmitype/StillImage"/>
    <dc:date>2023-10-23T15:19:22.497666</dc:date>
    <dc:format>image/svg+xml</dc:format>
    <dc:creator>
     <cc:Agent>
      <dc:title>Matplotlib v3.8.0, https://matplotlib.org/</dc:title>
     </cc:Agent>
    </dc:creator>
   </cc:Work>
  </rdf:RDF>
 </metadata>
 <defs>
  <style type="text/css">*{stroke-linejoin: round; stroke-linecap: butt}</style>
 </defs>
 <g id="figure_1">
  <g id="patch_1">
   <path d="M 0 322.510875 
L 450.74225 322.510875 
L 450.74225 0 
L 0 0 
z
" style="fill: #ffffff"/>
  </g>
  <g id="axes_1">
   <g id="patch_2">
    <path d="M 38.312875 286.1835 
L 395.432875 286.1835 
L 395.432875 20.0715 
L 38.312875 20.0715 
z
" style="fill: #ffffff"/>
   </g>
   <g id="matplotlib.axis_1">
    <g id="xtick_1">
     <g id="line2d_1">
      <defs>
       <path id="m80565ee96e" d="M 0 0 
L 0 4.8 
" style="stroke: #262626"/>
      </defs>
      <g>
       <use xlink:href="#m80565ee96e" x="54.545602" y="286.1835" style="fill: #262626; stroke: #262626"/>
      </g>
     </g>
     <g id="text_1">
      <!-- 0.0 -->
      <g style="fill: #262626" transform="translate(48.429602 300.782375) scale(0.088 -0.088)">
       <defs>
        <path id="ArialMT-30" d="M 266 2259 
Q 266 3072 433 3567 
Q 600 4063 929 4331 
Q 1259 4600 1759 4600 
Q 2128 4600 2406 4451 
Q 2684 4303 2865 4023 
Q 3047 3744 3150 3342 
Q 3253 2941 3253 2259 
Q 3253 1453 3087 958 
Q 2922 463 2592 192 
Q 2263 -78 1759 -78 
Q 1097 -78 719 397 
Q 266 969 266 2259 
z
M 844 2259 
Q 844 1131 1108 757 
Q 1372 384 1759 384 
Q 2147 384 2411 759 
Q 2675 1134 2675 2259 
Q 2675 3391 2411 3762 
Q 2147 4134 1753 4134 
Q 1366 4134 1134 3806 
Q 844 3388 844 2259 
z
" transform="scale(0.015625)"/>
        <path id="ArialMT-2e" d="M 581 0 
L 581 641 
L 1222 641 
L 1222 0 
L 581 0 
z
" transform="scale(0.015625)"/>
       </defs>
       <use xlink:href="#ArialMT-30"/>
       <use xlink:href="#ArialMT-2e" x="55.615234"/>
       <use xlink:href="#ArialMT-30" x="83.398438"/>
      </g>
     </g>
    </g>
    <g id="xtick_2">
     <g id="line2d_2">
      <g>
       <use xlink:href="#m80565ee96e" x="119.476511" y="286.1835" style="fill: #262626; stroke: #262626"/>
      </g>
     </g>
     <g id="text_2">
      <!-- 0.2 -->
      <g style="fill: #262626" transform="translate(113.360511 300.782375) scale(0.088 -0.088)">
       <defs>
        <path id="ArialMT-32" d="M 3222 541 
L 3222 0 
L 194 0 
Q 188 203 259 391 
Q 375 700 629 1000 
Q 884 1300 1366 1694 
Q 2113 2306 2375 2664 
Q 2638 3022 2638 3341 
Q 2638 3675 2398 3904 
Q 2159 4134 1775 4134 
Q 1369 4134 1125 3890 
Q 881 3647 878 3216 
L 300 3275 
Q 359 3922 746 4261 
Q 1134 4600 1788 4600 
Q 2447 4600 2831 4234 
Q 3216 3869 3216 3328 
Q 3216 3053 3103 2787 
Q 2991 2522 2730 2228 
Q 2469 1934 1863 1422 
Q 1356 997 1212 845 
Q 1069 694 975 541 
L 3222 541 
z
" transform="scale(0.015625)"/>
       </defs>
       <use xlink:href="#ArialMT-30"/>
       <use xlink:href="#ArialMT-2e" x="55.615234"/>
       <use xlink:href="#ArialMT-32" x="83.398438"/>
      </g>
     </g>
    </g>
    <g id="xtick_3">
     <g id="line2d_3">
      <g>
       <use xlink:href="#m80565ee96e" x="184.40742" y="286.1835" style="fill: #262626; stroke: #262626"/>
      </g>
     </g>
     <g id="text_3">
      <!-- 0.4 -->
      <g style="fill: #262626" transform="translate(178.29142 300.782375) scale(0.088 -0.088)">
       <defs>
        <path id="ArialMT-34" d="M 2069 0 
L 2069 1097 
L 81 1097 
L 81 1613 
L 2172 4581 
L 2631 4581 
L 2631 1613 
L 3250 1613 
L 3250 1097 
L 2631 1097 
L 2631 0 
L 2069 0 
z
M 2069 1613 
L 2069 3678 
L 634 1613 
L 2069 1613 
z
" transform="scale(0.015625)"/>
       </defs>
       <use xlink:href="#ArialMT-30"/>
       <use xlink:href="#ArialMT-2e" x="55.615234"/>
       <use xlink:href="#ArialMT-34" x="83.398438"/>
      </g>
     </g>
    </g>
    <g id="xtick_4">
     <g id="line2d_4">
      <g>
       <use xlink:href="#m80565ee96e" x="249.33833" y="286.1835" style="fill: #262626; stroke: #262626"/>
      </g>
     </g>
     <g id="text_4">
      <!-- 0.6 -->
      <g style="fill: #262626" transform="translate(243.22233 300.782375) scale(0.088 -0.088)">
       <defs>
        <path id="ArialMT-36" d="M 3184 3459 
L 2625 3416 
Q 2550 3747 2413 3897 
Q 2184 4138 1850 4138 
Q 1581 4138 1378 3988 
Q 1113 3794 959 3422 
Q 806 3050 800 2363 
Q 1003 2672 1297 2822 
Q 1591 2972 1913 2972 
Q 2475 2972 2870 2558 
Q 3266 2144 3266 1488 
Q 3266 1056 3080 686 
Q 2894 316 2569 119 
Q 2244 -78 1831 -78 
Q 1128 -78 684 439 
Q 241 956 241 2144 
Q 241 3472 731 4075 
Q 1159 4600 1884 4600 
Q 2425 4600 2770 4297 
Q 3116 3994 3184 3459 
z
M 888 1484 
Q 888 1194 1011 928 
Q 1134 663 1356 523 
Q 1578 384 1822 384 
Q 2178 384 2434 671 
Q 2691 959 2691 1453 
Q 2691 1928 2437 2201 
Q 2184 2475 1800 2475 
Q 1419 2475 1153 2201 
Q 888 1928 888 1484 
z
" transform="scale(0.015625)"/>
       </defs>
       <use xlink:href="#ArialMT-30"/>
       <use xlink:href="#ArialMT-2e" x="55.615234"/>
       <use xlink:href="#ArialMT-36" x="83.398438"/>
      </g>
     </g>
    </g>
    <g id="xtick_5">
     <g id="line2d_5">
      <g>
       <use xlink:href="#m80565ee96e" x="314.269239" y="286.1835" style="fill: #262626; stroke: #262626"/>
      </g>
     </g>
     <g id="text_5">
      <!-- 0.8 -->
      <g style="fill: #262626" transform="translate(308.153239 300.782375) scale(0.088 -0.088)">
       <defs>
        <path id="ArialMT-38" d="M 1131 2484 
Q 781 2613 612 2850 
Q 444 3088 444 3419 
Q 444 3919 803 4259 
Q 1163 4600 1759 4600 
Q 2359 4600 2725 4251 
Q 3091 3903 3091 3403 
Q 3091 3084 2923 2848 
Q 2756 2613 2416 2484 
Q 2838 2347 3058 2040 
Q 3278 1734 3278 1309 
Q 3278 722 2862 322 
Q 2447 -78 1769 -78 
Q 1091 -78 675 323 
Q 259 725 259 1325 
Q 259 1772 486 2073 
Q 713 2375 1131 2484 
z
M 1019 3438 
Q 1019 3113 1228 2906 
Q 1438 2700 1772 2700 
Q 2097 2700 2305 2904 
Q 2513 3109 2513 3406 
Q 2513 3716 2298 3927 
Q 2084 4138 1766 4138 
Q 1444 4138 1231 3931 
Q 1019 3725 1019 3438 
z
M 838 1322 
Q 838 1081 952 856 
Q 1066 631 1291 507 
Q 1516 384 1775 384 
Q 2178 384 2440 643 
Q 2703 903 2703 1303 
Q 2703 1709 2433 1975 
Q 2163 2241 1756 2241 
Q 1359 2241 1098 1978 
Q 838 1716 838 1322 
z
" transform="scale(0.015625)"/>
       </defs>
       <use xlink:href="#ArialMT-30"/>
       <use xlink:href="#ArialMT-2e" x="55.615234"/>
       <use xlink:href="#ArialMT-38" x="83.398438"/>
      </g>
     </g>
    </g>
    <g id="xtick_6">
     <g id="line2d_6">
      <g>
       <use xlink:href="#m80565ee96e" x="379.200148" y="286.1835" style="fill: #262626; stroke: #262626"/>
      </g>
     </g>
     <g id="text_6">
      <!-- 1.0 -->
      <g style="fill: #262626" transform="translate(373.084148 300.782375) scale(0.088 -0.088)">
       <defs>
        <path id="ArialMT-31" d="M 2384 0 
L 1822 0 
L 1822 3584 
Q 1619 3391 1289 3197 
Q 959 3003 697 2906 
L 697 3450 
Q 1169 3672 1522 3987 
Q 1875 4303 2022 4600 
L 2384 4600 
L 2384 0 
z
" transform="scale(0.015625)"/>
       </defs>
       <use xlink:href="#ArialMT-31"/>
       <use xlink:href="#ArialMT-2e" x="55.615234"/>
       <use xlink:href="#ArialMT-30" x="83.398438"/>
      </g>
     </g>
    </g>
    <g id="text_7">
     <!-- $x$ -->
     <g style="fill: #262626" transform="translate(213.992875 313.402875) scale(0.096 -0.096)">
      <defs>
       <path id="DejaVuSans-Oblique-78" d="M 3841 3500 
L 2234 1784 
L 3219 0 
L 2559 0 
L 1819 1388 
L 531 0 
L -166 0 
L 1556 1844 
L 641 3500 
L 1300 3500 
L 1972 2234 
L 3144 3500 
L 3841 3500 
z
" transform="scale(0.015625)"/>
      </defs>
      <use xlink:href="#DejaVuSans-Oblique-78" transform="translate(0 0.3125)"/>
     </g>
    </g>
   </g>
   <g id="matplotlib.axis_2">
    <g id="ytick_1">
     <g id="line2d_7">
      <defs>
       <path id="m698a3dd821" d="M 0 0 
L -4.8 0 
" style="stroke: #262626"/>
      </defs>
      <g>
       <use xlink:href="#m698a3dd821" x="38.312875" y="247.783337" style="fill: #262626; stroke: #262626"/>
      </g>
     </g>
     <g id="text_8">
      <!-- −8 -->
      <g style="fill: #262626" transform="translate(19.9795 250.932775) scale(0.088 -0.088)">
       <defs>
        <path id="ArialMT-2212" d="M 3381 1997 
L 356 1997 
L 356 2522 
L 3381 2522 
L 3381 1997 
z
" transform="scale(0.015625)"/>
       </defs>
       <use xlink:href="#ArialMT-2212"/>
       <use xlink:href="#ArialMT-38" x="58.398438"/>
      </g>
     </g>
    </g>
    <g id="ytick_2">
     <g id="line2d_8">
      <g>
       <use xlink:href="#m698a3dd821" x="38.312875" y="201.616193" style="fill: #262626; stroke: #262626"/>
      </g>
     </g>
     <g id="text_9">
      <!-- −6 -->
      <g style="fill: #262626" transform="translate(19.9795 204.76563) scale(0.088 -0.088)">
       <use xlink:href="#ArialMT-2212"/>
       <use xlink:href="#ArialMT-36" x="58.398438"/>
      </g>
     </g>
    </g>
    <g id="ytick_3">
     <g id="line2d_9">
      <g>
       <use xlink:href="#m698a3dd821" x="38.312875" y="155.449048" style="fill: #262626; stroke: #262626"/>
      </g>
     </g>
     <g id="text_10">
      <!-- −4 -->
      <g style="fill: #262626" transform="translate(19.9795 158.598486) scale(0.088 -0.088)">
       <use xlink:href="#ArialMT-2212"/>
       <use xlink:href="#ArialMT-34" x="58.398438"/>
      </g>
     </g>
    </g>
    <g id="ytick_4">
     <g id="line2d_10">
      <g>
       <use xlink:href="#m698a3dd821" x="38.312875" y="109.281904" style="fill: #262626; stroke: #262626"/>
      </g>
     </g>
     <g id="text_11">
      <!-- −2 -->
      <g style="fill: #262626" transform="translate(19.9795 112.431342) scale(0.088 -0.088)">
       <use xlink:href="#ArialMT-2212"/>
       <use xlink:href="#ArialMT-32" x="58.398438"/>
      </g>
     </g>
    </g>
    <g id="ytick_5">
     <g id="line2d_11">
      <g>
       <use xlink:href="#m698a3dd821" x="38.312875" y="63.11476" style="fill: #262626; stroke: #262626"/>
      </g>
     </g>
     <g id="text_12">
      <!-- 0 -->
      <g style="fill: #262626" transform="translate(25.11925 66.264197) scale(0.088 -0.088)">
       <use xlink:href="#ArialMT-30"/>
      </g>
     </g>
    </g>
    <g id="text_13">
     <!-- $y$ -->
     <g style="fill: #262626" transform="translate(13.9635 156.0075) rotate(-90) scale(0.096 -0.096)">
      <defs>
       <path id="DejaVuSans-Oblique-79" d="M 1588 -325 
Q 1188 -997 936 -1164 
Q 684 -1331 294 -1331 
L -159 -1331 
L -63 -850 
L 269 -850 
Q 509 -850 678 -719 
Q 847 -588 1056 -206 
L 1234 128 
L 459 3500 
L 1069 3500 
L 1650 819 
L 3256 3500 
L 3859 3500 
L 1588 -325 
z
" transform="scale(0.015625)"/>
      </defs>
      <use xlink:href="#DejaVuSans-Oblique-79" transform="translate(0 0.3125)"/>
     </g>
    </g>
   </g>
   <g id="PolyCollection_1">
    <defs>
     <path id="m8cba982e71" d="M 54.545602 -202.959914 
L 54.545602 -149.974529 
L 57.824941 -152.339416 
L 61.10428 -154.816125 
L 64.383619 -157.458084 
L 67.662958 -160.326975 
L 70.942296 -163.480489 
L 74.221636 -166.962146 
L 77.500973 -170.79531 
L 80.780313 -174.982116 
L 84.059653 -179.50461 
L 87.33899 -184.327472 
L 90.61833 -189.402122 
L 93.89767 -194.670122 
L 97.177007 -200.066537 
L 100.456344 -205.523304 
L 103.735686 -210.971403 
L 107.015024 -216.342895 
L 110.294361 -221.572555 
L 113.573703 -226.597163 
L 116.853041 -231.356245 
L 120.132378 -235.790338 
L 123.41172 -239.838871 
L 126.691057 -243.435619 
L 129.970395 -246.504844 
L 133.249737 -248.954956 
L 136.529069 -250.678893 
L 139.808412 -251.568399 
L 143.087754 -251.553688 
L 146.367086 -250.643902 
L 149.646428 -248.925774 
L 152.92577 -246.522373 
L 156.205103 -243.551616 
L 159.484445 -240.109279 
L 162.763787 -236.266968 
L 166.04312 -232.074665 
L 169.322462 -227.563524 
L 172.601804 -222.748752 
L 175.881137 -217.630979 
L 179.160479 -212.200115 
L 182.439821 -206.438402 
L 185.719153 -200.325606 
L 188.998496 -193.844369 
L 192.277838 -186.986095 
L 195.55717 -179.755319 
L 198.836512 -172.172398 
L 202.115855 -164.274894 
L 205.395187 -156.116582 
L 208.674529 -147.765436 
L 211.953871 -139.301281 
L 215.233204 -130.812964 
L 218.512556 -122.395545 
L 221.791879 -114.147965 
L 225.071221 -106.170192 
L 228.350563 -98.56142 
L 231.629886 -91.417545 
L 234.909247 -84.82889 
L 238.18857 -78.878152 
L 241.467912 -73.637901 
L 244.747254 -69.168113 
L 248.026597 -65.514041 
L 251.305939 -62.703355 
L 254.585262 -60.743517 
L 257.864623 -59.619274 
L 261.143946 -59.290712 
L 264.423288 -59.692537 
L 267.70263 -60.736847 
L 270.981953 -62.321276 
L 274.261315 -64.345064 
L 277.540637 -66.730832 
L 280.81998 -69.4447 
L 284.099322 -72.503398 
L 287.378664 -75.962821 
L 290.658006 -79.895275 
L 293.937329 -84.365953 
L 297.21669 -89.41805 
L 300.496013 -95.064837 
L 303.775355 -101.290192 
L 307.054697 -108.049633 
L 310.33402 -115.275445 
L 313.613382 -122.880331 
L 316.892705 -130.762596 
L 320.172047 -138.81011 
L 323.451389 -146.905187 
L 326.730731 -154.928166 
L 330.010073 -162.761978 
L 333.289396 -170.294877 
L 336.568738 -177.424317 
L 339.84808 -184.059229 
L 343.127423 -190.120776 
L 346.406765 -195.543668 
L 349.686088 -200.273614 
L 352.96543 -204.266397 
L 356.244772 -207.481573 
L 359.524114 -209.880131 
L 362.803456 -211.42243 
L 366.082798 -212.073429 
L 369.362141 -211.816044 
L 372.641463 -210.666935 
L 375.920806 -208.68575 
L 379.200148 -205.972245 
L 379.200148 -250.075457 
L 379.200148 -250.075457 
L 375.920806 -249.076265 
L 372.641463 -248.370103 
L 369.362141 -247.921021 
L 366.082798 -247.657142 
L 362.803456 -247.470437 
L 359.524114 -247.22814 
L 356.244772 -246.794649 
L 352.96543 -246.045746 
L 349.686088 -244.878617 
L 346.406765 -243.212228 
L 343.127423 -240.985246 
L 339.84808 -238.154021 
L 336.568738 -234.690498 
L 333.289396 -230.581 
L 330.010073 -225.82595 
L 326.730731 -220.440441 
L 323.451389 -214.454334 
L 320.172047 -207.91277 
L 316.892705 -200.877023 
L 313.613382 -193.424272 
L 310.33402 -185.647604 
L 307.054697 -177.656936 
L 303.775355 -169.577633 
L 300.496013 -161.551494 
L 297.21669 -153.736658 
L 293.937329 -146.306565 
L 290.658006 -139.449568 
L 287.378664 -133.363641 
L 284.099322 -128.247186 
L 280.81998 -124.280655 
L 277.540637 -121.602087 
L 274.261315 -120.282775 
L 270.981953 -120.315665 
L 267.70263 -121.62321 
L 264.423288 -124.077926 
L 261.143946 -127.526276 
L 257.864623 -131.806708 
L 254.585262 -136.760411 
L 251.305939 -142.237239 
L 248.026597 -148.09806 
L 244.747254 -154.216513 
L 241.467912 -160.479424 
L 238.18857 -166.787827 
L 234.909247 -173.057534 
L 231.629886 -179.219433 
L 228.350563 -185.219719 
L 225.071221 -191.019897 
L 221.791879 -196.595964 
L 218.512556 -201.937789 
L 215.233204 -207.047375 
L 211.953871 -211.93688 
L 208.674529 -216.626207 
L 205.395187 -221.139777 
L 202.115855 -225.502969 
L 198.836512 -229.738181 
L 195.55717 -233.860906 
L 192.277838 -237.876314 
L 188.998496 -241.776852 
L 185.719153 -245.541754 
L 182.439821 -249.138415 
L 179.160479 -252.525787 
L 175.881137 -255.658639 
L 172.601804 -258.492619 
L 169.322462 -260.988614 
L 166.04312 -263.115943 
L 162.763787 -264.856064 
L 159.484445 -266.204703 
L 156.205103 -267.175301 
L 152.92577 -267.803042 
L 149.646428 -268.14871 
L 146.367086 -268.297761 
L 143.087754 -268.345329 
L 139.808412 -268.355945 
L 136.529069 -268.324223 
L 133.249737 -268.174574 
L 129.970395 -267.803367 
L 126.691057 -267.119576 
L 123.41172 -266.059878 
L 120.132378 -264.589459 
L 116.853041 -262.69634 
L 113.573703 -260.386746 
L 110.294361 -257.68056 
L 107.015024 -254.60833 
L 103.735686 -251.207939 
L 100.456344 -247.524492 
L 97.177007 -243.607232 
L 93.89767 -239.509591 
L 90.61833 -235.289091 
L 87.33899 -231.006929 
L 84.059653 -226.729425 
L 80.780313 -222.528637 
L 77.500973 -218.483988 
L 74.221636 -214.684193 
L 70.942296 -211.228 
L 67.662958 -208.22349 
L 64.383619 -205.7859 
L 61.10428 -204.03052 
L 57.824941 -203.061653 
L 54.545602 -202.959914 
z
" style="stroke: #1f77b4; stroke-opacity: 0.5; stroke-width: 0.8"/>
    </defs>
    <g clip-path="url(#p2e36551a42)">
     <use xlink:href="#m8cba982e71" x="0" y="322.510875" style="fill: #1f77b4; fill-opacity: 0.5; stroke: #1f77b4; stroke-opacity: 0.5; stroke-width: 0.8"/>
    </g>
   </g>
   <g id="PolyCollection_2">
    <defs>
     <path id="md3414333dd" d="M 54.545602 -149.974529 
L 54.545602 -137.041027 
L 57.824941 -139.02563 
L 61.10428 -141.238553 
L 64.383619 -143.721371 
L 67.662958 -146.511738 
L 70.942296 -149.637954 
L 74.221636 -153.114933 
L 77.500973 -156.941982 
L 80.780313 -161.102624 
L 84.059653 -165.56562 
L 87.33899 -170.286661 
L 90.61833 -175.211179 
L 93.89767 -180.276726 
L 97.177007 -185.415602 
L 100.456344 -190.557428 
L 103.735686 -195.631153 
L 107.015024 -200.566832 
L 110.294361 -205.297135 
L 113.573703 -209.757759 
L 116.853041 -213.888511 
L 120.132378 -217.633651 
L 123.41172 -220.942387 
L 126.691057 -223.768956 
L 129.970395 -226.074067 
L 133.249737 -227.825369 
L 136.529069 -228.999073 
L 139.808412 -229.580969 
L 143.087754 -229.567739 
L 146.367086 -228.967114 
L 149.646428 -227.797326 
L 152.92577 -226.085726 
L 156.205103 -223.86613 
L 159.484445 -221.175669 
L 162.763787 -218.051574 
L 166.04312 -214.527914 
L 169.322462 -210.632775 
L 172.601804 -206.386668 
L 175.881137 -201.801048 
L 179.160479 -196.879127 
L 182.439821 -191.616807 
L 185.719153 -186.005544 
L 188.998496 -180.035714 
L 192.277838 -173.701169 
L 195.55717 -167.003401 
L 198.836512 -159.955089 
L 202.115855 -152.583125 
L 205.395187 -144.929599 
L 208.674529 -137.051461 
L 211.953871 -129.019247 
L 215.233204 -120.914715 
L 218.512556 -112.828004 
L 221.791879 -104.854832 
L 225.071221 -97.093293 
L 228.350563 -89.641384 
L 231.629886 -82.594162 
L 234.909247 -76.041082 
L 238.18857 -70.063784 
L 241.467912 -64.733483 
L 244.747254 -60.108694 
L 248.026597 -56.2334 
L 251.305939 -53.134988 
L 254.585262 -50.822814 
L 257.864623 -49.287587 
L 261.143946 -48.502076 
L 264.423288 -48.423375 
L 267.70263 -48.997682 
L 270.981953 -50.167539 
L 274.261315 -51.881015 
L 277.540637 -54.100576 
L 280.81998 -56.808852 
L 284.099322 -60.00941 
L 287.378664 -63.720895 
L 290.658006 -67.968229 
L 293.937329 -72.771928 
L 297.21669 -78.140236 
L 300.496013 -84.062488 
L 303.775355 -90.507797 
L 307.054697 -97.423594 
L 310.33402 -104.738212 
L 313.613382 -112.362844 
L 316.892705 -120.195577 
L 320.172047 -128.124765 
L 323.451389 -136.033557 
L 326.730731 -143.803484 
L 330.010073 -151.319223 
L 333.289396 -158.471684 
L 336.568738 -165.16222 
L 339.84808 -171.305572 
L 343.127423 -176.831436 
L 346.406765 -181.686637 
L 349.686088 -185.834268 
L 352.96543 -189.254253 
L 356.244772 -191.939507 
L 359.524114 -193.894639 
L 362.803456 -195.132779 
L 366.082798 -195.673002 
L 369.362141 -195.539909 
L 372.641463 -194.763022 
L 375.920806 -193.378747 
L 379.200148 -191.433753 
L 379.200148 -205.972245 
L 379.200148 -205.972245 
L 375.920806 -208.68575 
L 372.641463 -210.666935 
L 369.362141 -211.816044 
L 366.082798 -212.073429 
L 362.803456 -211.42243 
L 359.524114 -209.880131 
L 356.244772 -207.481573 
L 352.96543 -204.266397 
L 349.686088 -200.273614 
L 346.406765 -195.543668 
L 343.127423 -190.120776 
L 339.84808 -184.059229 
L 336.568738 -177.424317 
L 333.289396 -170.294877 
L 330.010073 -162.761978 
L 326.730731 -154.928166 
L 323.451389 -146.905187 
L 320.172047 -138.81011 
L 316.892705 -130.762596 
L 313.613382 -122.880331 
L 310.33402 -115.275445 
L 307.054697 -108.049633 
L 303.775355 -101.290192 
L 300.496013 -95.064837 
L 297.21669 -89.41805 
L 293.937329 -84.365953 
L 290.658006 -79.895275 
L 287.378664 -75.962821 
L 284.099322 -72.503398 
L 280.81998 -69.4447 
L 277.540637 -66.730832 
L 274.261315 -64.345064 
L 270.981953 -62.321276 
L 267.70263 -60.736847 
L 264.423288 -59.692537 
L 261.143946 -59.290712 
L 257.864623 -59.619274 
L 254.585262 -60.743517 
L 251.305939 -62.703355 
L 248.026597 -65.514041 
L 244.747254 -69.168113 
L 241.467912 -73.637901 
L 238.18857 -78.878152 
L 234.909247 -84.82889 
L 231.629886 -91.417545 
L 228.350563 -98.56142 
L 225.071221 -106.170192 
L 221.791879 -114.147965 
L 218.512556 -122.395545 
L 215.233204 -130.812964 
L 211.953871 -139.301281 
L 208.674529 -147.765436 
L 205.395187 -156.116582 
L 202.115855 -164.274894 
L 198.836512 -172.172398 
L 195.55717 -179.755319 
L 192.277838 -186.986095 
L 188.998496 -193.844369 
L 185.719153 -200.325606 
L 182.439821 -206.438402 
L 179.160479 -212.200115 
L 175.881137 -217.630979 
L 172.601804 -222.748752 
L 169.322462 -227.563524 
L 166.04312 -232.074665 
L 162.763787 -236.266968 
L 159.484445 -240.109279 
L 156.205103 -243.551616 
L 152.92577 -246.522373 
L 149.646428 -248.925774 
L 146.367086 -250.643902 
L 143.087754 -251.553688 
L 139.808412 -251.568399 
L 136.529069 -250.678893 
L 133.249737 -248.954956 
L 129.970395 -246.504844 
L 126.691057 -243.435619 
L 123.41172 -239.838871 
L 120.132378 -235.790338 
L 116.853041 -231.356245 
L 113.573703 -226.597163 
L 110.294361 -221.572555 
L 107.015024 -216.342895 
L 103.735686 -210.971403 
L 100.456344 -205.523304 
L 97.177007 -200.066537 
L 93.89767 -194.670122 
L 90.61833 -189.402122 
L 87.33899 -184.327472 
L 84.059653 -179.50461 
L 80.780313 -174.982116 
L 77.500973 -170.79531 
L 74.221636 -166.962146 
L 70.942296 -163.480489 
L 67.662958 -160.326975 
L 64.383619 -157.458084 
L 61.10428 -154.816125 
L 57.824941 -152.339416 
L 54.545602 -149.974529 
z
" style="stroke: #ff7f0e; stroke-opacity: 0.5; stroke-width: 0.8"/>
    </defs>
    <g clip-path="url(#p2e36551a42)">
     <use xlink:href="#md3414333dd" x="0" y="322.510875" style="fill: #ff7f0e; fill-opacity: 0.5; stroke: #ff7f0e; stroke-opacity: 0.5; stroke-width: 0.8"/>
    </g>
   </g>
   <g id="PolyCollection_3">
    <defs>
     <path id="m773e75ab0b" d="M 54.545602 -215.893417 
L 54.545602 -202.959914 
L 57.824941 -203.061653 
L 61.10428 -204.03052 
L 64.383619 -205.7859 
L 67.662958 -208.22349 
L 70.942296 -211.228 
L 74.221636 -214.684193 
L 77.500973 -218.483988 
L 80.780313 -222.528637 
L 84.059653 -226.729425 
L 87.33899 -231.006929 
L 90.61833 -235.289091 
L 93.89767 -239.509591 
L 97.177007 -243.607232 
L 100.456344 -247.524492 
L 103.735686 -251.207939 
L 107.015024 -254.60833 
L 110.294361 -257.68056 
L 113.573703 -260.386746 
L 116.853041 -262.69634 
L 120.132378 -264.589459 
L 123.41172 -266.059878 
L 126.691057 -267.119576 
L 129.970395 -267.803367 
L 133.249737 -268.174574 
L 136.529069 -268.324223 
L 139.808412 -268.355945 
L 143.087754 -268.345329 
L 146.367086 -268.297761 
L 149.646428 -268.14871 
L 152.92577 -267.803042 
L 156.205103 -267.175301 
L 159.484445 -266.204703 
L 162.763787 -264.856064 
L 166.04312 -263.115943 
L 169.322462 -260.988614 
L 172.601804 -258.492619 
L 175.881137 -255.658639 
L 179.160479 -252.525787 
L 182.439821 -249.138415 
L 185.719153 -245.541754 
L 188.998496 -241.776852 
L 192.277838 -237.876314 
L 195.55717 -233.860906 
L 198.836512 -229.738181 
L 202.115855 -225.502969 
L 205.395187 -221.139777 
L 208.674529 -216.626207 
L 211.953871 -211.93688 
L 215.233204 -207.047375 
L 218.512556 -201.937789 
L 221.791879 -196.595964 
L 225.071221 -191.019897 
L 228.350563 -185.219719 
L 231.629886 -179.219433 
L 234.909247 -173.057534 
L 238.18857 -166.787827 
L 241.467912 -160.479424 
L 244.747254 -154.216513 
L 248.026597 -148.09806 
L 251.305939 -142.237239 
L 254.585262 -136.760411 
L 257.864623 -131.806708 
L 261.143946 -127.526276 
L 264.423288 -124.077926 
L 267.70263 -121.62321 
L 270.981953 -120.315665 
L 274.261315 -120.282775 
L 277.540637 -121.602087 
L 280.81998 -124.280655 
L 284.099322 -128.247186 
L 287.378664 -133.363641 
L 290.658006 -139.449568 
L 293.937329 -146.306565 
L 297.21669 -153.736658 
L 300.496013 -161.551494 
L 303.775355 -169.577633 
L 307.054697 -177.656936 
L 310.33402 -185.647604 
L 313.613382 -193.424272 
L 316.892705 -200.877023 
L 320.172047 -207.91277 
L 323.451389 -214.454334 
L 326.730731 -220.440441 
L 330.010073 -225.82595 
L 333.289396 -230.581 
L 336.568738 -234.690498 
L 339.84808 -238.154021 
L 343.127423 -240.985246 
L 346.406765 -243.212228 
L 349.686088 -244.878617 
L 352.96543 -246.045746 
L 356.244772 -246.794649 
L 359.524114 -247.22814 
L 362.803456 -247.470437 
L 366.082798 -247.657142 
L 369.362141 -247.921021 
L 372.641463 -248.370103 
L 375.920806 -249.076265 
L 379.200148 -250.075457 
L 379.200148 -264.613951 
L 379.200148 -264.613951 
L 375.920806 -264.383267 
L 372.641463 -264.27401 
L 369.362141 -264.197156 
L 366.082798 -264.057569 
L 362.803456 -263.760086 
L 359.524114 -263.21363 
L 356.244772 -262.336713 
L 352.96543 -261.057891 
L 349.686088 -259.317967 
L 346.406765 -257.06926 
L 343.127423 -254.274589 
L 339.84808 -250.907678 
L 336.568738 -246.952589 
L 333.289396 -242.404189 
L 330.010073 -237.268705 
L 326.730731 -231.565126 
L 323.451389 -225.325969 
L 320.172047 -218.598116 
L 316.892705 -211.444037 
L 313.613382 -203.941759 
L 310.33402 -196.184849 
L 307.054697 -188.282975 
L 303.775355 -180.360027 
L 300.496013 -172.553849 
L 297.21669 -165.014472 
L 293.937329 -157.90058 
L 290.658006 -151.376625 
L 287.378664 -145.605578 
L 284.099322 -140.741175 
L 280.81998 -136.916481 
L 277.540637 -134.232344 
L 274.261315 -132.746814 
L 270.981953 -132.469402 
L 267.70263 -133.362364 
L 264.423288 -135.347077 
L 261.143946 -138.314901 
L 257.864623 -142.138395 
L 254.585262 -146.681115 
L 251.305939 -151.805605 
L 248.026597 -157.378689 
L 244.747254 -163.275933 
L 241.467912 -169.383841 
L 238.18857 -175.602201 
L 234.909247 -181.845343 
L 231.629886 -188.042822 
L 228.350563 -194.139756 
L 225.071221 -200.096796 
L 221.791879 -205.889092 
L 218.512556 -211.505335 
L 215.233204 -216.945619 
L 211.953871 -222.218919 
L 208.674529 -227.340184 
L 205.395187 -232.326763 
L 202.115855 -237.19474 
L 198.836512 -241.955495 
L 195.55717 -246.612832 
L 192.277838 -251.16124 
L 188.998496 -255.585508 
L 185.719153 -259.861815 
L 182.439821 -263.960013 
L 179.160479 -267.846779 
L 175.881137 -271.48857 
L 172.601804 -274.854705 
L 169.322462 -277.919361 
L 166.04312 -280.662695 
L 162.763787 -283.071457 
L 159.484445 -285.138313 
L 156.205103 -286.860788 
L 152.92577 -288.239689 
L 149.646428 -289.277158 
L 146.367086 -289.974549 
L 143.087754 -290.331278 
L 139.808412 -290.343375 
L 136.529069 -290.004042 
L 133.249737 -289.304161 
L 129.970395 -288.234144 
L 126.691057 -286.786239 
L 123.41172 -284.956363 
L 120.132378 -282.746147 
L 116.853041 -280.164073 
L 113.573703 -277.226153 
L 110.294361 -273.955978 
L 107.015024 -270.384392 
L 103.735686 -266.548194 
L 100.456344 -262.490369 
L 97.177007 -258.25817 
L 93.89767 -253.902986 
L 90.61833 -249.480032 
L 87.33899 -245.047743 
L 84.059653 -240.66842 
L 80.780313 -236.408131 
L 77.500973 -232.337322 
L 74.221636 -228.531398 
L 70.942296 -225.070533 
L 67.662958 -222.038722 
L 64.383619 -219.522608 
L 61.10428 -217.60809 
L 57.824941 -216.37544 
L 54.545602 -215.893417 
z
" style="stroke: #ff7f0e; stroke-opacity: 0.5; stroke-width: 0.8"/>
    </defs>
    <g clip-path="url(#p2e36551a42)">
     <use xlink:href="#m773e75ab0b" x="0" y="322.510875" style="fill: #ff7f0e; fill-opacity: 0.5; stroke: #ff7f0e; stroke-opacity: 0.5; stroke-width: 0.8"/>
    </g>
   </g>
   <g id="line2d_12">
    <defs>
     <path id="m346cc61faf" d="M -5 5 
L 5 -5 
M -5 -5 
L 5 5 
" style="stroke: #000000; stroke-width: 2"/>
    </defs>
    <g clip-path="url(#p2e36551a42)">
     <use xlink:href="#m346cc61faf" x="95.766934" y="104.613873" style="stroke: #000000; stroke-width: 2"/>
     <use xlink:href="#m346cc61faf" x="368.394943" y="79.409982" style="stroke: #000000; stroke-width: 2"/>
     <use xlink:href="#m346cc61faf" x="139.110317" y="51.956152" style="stroke: #000000; stroke-width: 2"/>
     <use xlink:href="#m346cc61faf" x="345.837519" y="98.356433" style="stroke: #000000; stroke-width: 2"/>
     <use xlink:href="#m346cc61faf" x="192.277838" y="110.92794" style="stroke: #000000; stroke-width: 2"/>
     <use xlink:href="#m346cc61faf" x="277.540637" y="246.859797" style="stroke: #000000; stroke-width: 2"/>
     <use xlink:href="#m346cc61faf" x="149.646428" y="65.526901" style="stroke: #000000; stroke-width: 2"/>
     <use xlink:href="#m346cc61faf" x="379.200148" y="112.668322" style="stroke: #000000; stroke-width: 2"/>
     <use xlink:href="#m346cc61faf" x="146.367086" y="64.383796" style="stroke: #000000; stroke-width: 2"/>
     <use xlink:href="#m346cc61faf" x="54.545602" y="154.775469" style="stroke: #000000; stroke-width: 2"/>
     <use xlink:href="#m346cc61faf" x="139.808412" y="63.189465" style="stroke: #000000; stroke-width: 2"/>
     <use xlink:href="#m346cc61faf" x="143.087754" y="63.604477" style="stroke: #000000; stroke-width: 2"/>
     <use xlink:href="#m346cc61faf" x="139.808412" y="63.189465" style="stroke: #000000; stroke-width: 2"/>
     <use xlink:href="#m346cc61faf" x="152.92577" y="67.031985" style="stroke: #000000; stroke-width: 2"/>
     <use xlink:href="#m346cc61faf" x="133.249737" y="63.448193" style="stroke: #000000; stroke-width: 2"/>
     <use xlink:href="#m346cc61faf" x="133.249737" y="63.448193" style="stroke: #000000; stroke-width: 2"/>
     <use xlink:href="#m346cc61faf" x="152.92577" y="67.031985" style="stroke: #000000; stroke-width: 2"/>
     <use xlink:href="#m346cc61faf" x="129.970395" y="64.116726" style="stroke: #000000; stroke-width: 2"/>
     <use xlink:href="#m346cc61faf" x="152.92577" y="67.031985" style="stroke: #000000; stroke-width: 2"/>
     <use xlink:href="#m346cc61faf" x="129.970395" y="64.116726" style="stroke: #000000; stroke-width: 2"/>
    </g>
   </g>
   <g id="line2d_13">
    <path d="M 54.545602 146.043653 
L 57.824941 144.81034 
L 61.10428 143.087552 
L 64.383619 140.888883 
L 67.662958 138.235642 
L 70.942296 135.15663 
L 74.221636 131.687708 
L 77.500973 127.871226 
L 80.780313 123.755499 
L 84.059653 119.393856 
L 87.33899 114.843673 
L 90.61833 110.165268 
L 93.89767 105.421019 
L 97.177007 100.67399 
L 100.456344 95.986978 
L 103.735686 91.421203 
L 107.015024 87.035263 
L 110.294361 82.884318 
L 113.573703 79.01892 
L 116.853041 75.484583 
L 120.132378 72.320976 
L 123.41172 69.5615 
L 126.691057 67.233277 
L 129.970395 65.356769 
L 133.249737 63.94611 
L 136.529069 63.009317 
L 139.808412 62.548703 
L 143.087754 62.561367 
L 146.367086 63.040044 
L 149.646428 63.973633 
L 152.92577 65.348167 
L 156.205103 67.147416 
L 159.484445 69.353884 
L 162.763787 71.949359 
L 166.04312 74.915571 
L 169.322462 78.234807 
L 172.601804 81.89019 
L 175.881137 85.866066 
L 179.160479 90.147923 
L 182.439821 94.722465 
L 185.719153 99.577196 
L 188.998496 104.700265 
L 192.277838 110.079672 
L 195.55717 115.702761 
L 198.836512 121.555586 
L 202.115855 127.621942 
L 205.395187 133.882696 
L 208.674529 140.315055 
L 211.953871 146.891795 
L 215.233204 153.580708 
L 218.512556 160.344205 
L 221.791879 167.138913 
L 225.071221 173.915833 
L 228.350563 180.620305 
L 231.629886 187.192383 
L 234.909247 193.567665 
L 238.18857 199.677886 
L 241.467912 205.452213 
L 244.747254 210.818562 
L 248.026597 215.704825 
L 251.305939 220.040578 
L 254.585262 223.758911 
L 257.864623 226.797884 
L 261.143946 229.102387 
L 264.423288 230.625649 
L 267.70263 231.330852 
L 270.981953 231.192405 
L 274.261315 230.196955 
L 277.540637 228.344415 
L 280.81998 225.648203 
L 284.099322 222.135583 
L 287.378664 217.847644 
L 290.658006 212.838454 
L 293.937329 207.174616 
L 297.21669 200.933521 
L 300.496013 194.202709 
L 303.775355 187.076963 
L 307.054697 179.657591 
L 310.33402 172.049348 
L 313.613382 164.358573 
L 316.892705 156.691068 
L 320.172047 149.149435 
L 323.451389 141.831113 
L 326.730731 134.826571 
L 330.010073 128.216909 
L 333.289396 122.072936 
L 336.568738 116.453468 
L 339.84808 111.40425 
L 343.127423 106.957864 
L 346.406765 103.132928 
L 349.686088 99.934759 
L 352.96543 97.354803 
L 356.244772 95.372765 
L 359.524114 93.956739 
L 362.803456 93.064443 
L 366.082798 92.64559 
L 369.362141 92.642342 
L 372.641463 92.992357 
L 375.920806 93.629867 
L 379.200148 94.487023 
" clip-path="url(#p2e36551a42)" style="fill: none; stroke: #1f77b4; stroke-width: 2; stroke-linecap: round"/>
   </g>
   <g id="line2d_14">
    <path d="M 54.545602 154.775469 
L 57.824941 149.142274 
L 61.10428 143.529983 
L 64.383619 137.959408 
L 67.662958 132.451288 
L 70.942296 127.026128 
L 74.221636 121.704237 
L 77.500973 116.505564 
L 80.780313 111.449665 
L 84.059653 106.555664 
L 87.33899 101.84213 
L 90.61833 97.327054 
L 93.89767 93.027773 
L 97.177007 88.960912 
L 100.456344 85.14231 
L 103.735686 81.587015 
L 107.015024 78.309177 
L 110.294361 75.322024 
L 113.573703 72.637804 
L 116.853041 70.267765 
L 120.132378 68.222106 
L 123.41172 66.509918 
L 126.691057 65.139181 
L 129.970395 64.116726 
L 133.249737 63.448193 
L 136.529069 63.138029 
L 139.808412 63.189465 
L 143.087754 63.604477 
L 146.367086 64.383796 
L 149.646428 65.526901 
L 152.92577 67.031985 
L 156.205103 68.895955 
L 159.484445 71.114476 
L 162.763787 73.681883 
L 166.04312 76.59127 
L 169.322462 79.834437 
L 172.601804 83.401911 
L 175.881137 87.282956 
L 179.160479 91.465556 
L 182.439821 95.936494 
L 185.719153 100.681227 
L 188.998496 105.684045 
L 192.277838 110.92794 
L 195.55717 116.39475 
L 198.836512 122.065038 
L 202.115855 127.918138 
L 205.395187 133.932184 
L 208.674529 140.08411 
L 211.953871 146.349574 
L 215.233204 152.703056 
L 218.512556 159.117794 
L 221.791879 165.565723 
L 225.071221 172.017614 
L 228.350563 178.442946 
L 231.629886 184.809763 
L 234.909247 191.085101 
L 238.18857 197.23433 
L 241.467912 203.221777 
L 244.747254 209.010259 
L 248.026597 214.561297 
L 251.305939 219.83512 
L 254.585262 224.790529 
L 257.864623 229.385148 
L 261.143946 233.575289 
L 264.423288 237.316175 
L 267.70263 240.561972 
L 270.981953 243.266076 
L 274.261315 245.381201 
L 277.540637 246.859797 
L 280.81998 247.654389 
L 284.099322 247.718087 
L 287.378664 247.005201 
L 290.658006 245.472065 
L 293.937329 243.077943 
L 297.21669 239.786081 
L 300.496013 235.565517 
L 303.775355 230.392067 
L 307.054697 224.250873 
L 310.33402 217.138544 
L 313.613382 209.065493 
L 316.892705 200.059469 
L 320.172047 190.168517 
L 323.451389 179.4649 
L 326.730731 168.04919 
L 330.010073 156.054373 
L 333.289396 143.650197 
L 336.568738 131.047331 
L 339.84808 118.500685 
L 343.127423 106.312171 
L 346.406765 94.831749 
L 349.686088 84.455588 
L 352.96543 75.621187 
L 356.244772 68.798488 
L 359.524114 64.473807 
L 362.803456 63.127556 
L 366.082798 65.202654 
L 369.362141 71.063199 
L 372.641463 80.942968 
L 375.920806 94.884016 
L 379.200148 112.668322 
" clip-path="url(#p2e36551a42)" style="fill: none; stroke-dasharray: 7.68,1.92,1.2,1.92; stroke-dashoffset: 0; stroke: #bf00bf; stroke-width: 1.2"/>
   </g>
   <g id="patch_3">
    <path d="M 38.312875 247.783337 
L 38.312875 63.11476 
" style="fill: none; stroke: #262626; stroke-linejoin: miter; stroke-linecap: square"/>
   </g>
   <g id="patch_4">
    <path d="M 54.545602 286.1835 
L 379.200148 286.1835 
" style="fill: none; stroke: #262626; stroke-linejoin: miter; stroke-linecap: square"/>
   </g>
   <g id="text_14">
    <!-- N=15,  -->
    <g style="fill: #262626" transform="translate(202.597375 14.0715) scale(0.096 -0.096)">
     <defs>
      <path id="ArialMT-4e" d="M 488 0 
L 488 4581 
L 1109 4581 
L 3516 984 
L 3516 4581 
L 4097 4581 
L 4097 0 
L 3475 0 
L 1069 3600 
L 1069 0 
L 488 0 
z
" transform="scale(0.015625)"/>
      <path id="ArialMT-3d" d="M 3381 2694 
L 356 2694 
L 356 3219 
L 3381 3219 
L 3381 2694 
z
M 3381 1303 
L 356 1303 
L 356 1828 
L 3381 1828 
L 3381 1303 
z
" transform="scale(0.015625)"/>
      <path id="ArialMT-35" d="M 266 1200 
L 856 1250 
Q 922 819 1161 601 
Q 1400 384 1738 384 
Q 2144 384 2425 690 
Q 2706 997 2706 1503 
Q 2706 1984 2436 2262 
Q 2166 2541 1728 2541 
Q 1456 2541 1237 2417 
Q 1019 2294 894 2097 
L 366 2166 
L 809 4519 
L 3088 4519 
L 3088 3981 
L 1259 3981 
L 1013 2750 
Q 1425 3038 1878 3038 
Q 2478 3038 2890 2622 
Q 3303 2206 3303 1553 
Q 3303 931 2941 478 
Q 2500 -78 1738 -78 
Q 1113 -78 717 272 
Q 322 622 266 1200 
z
" transform="scale(0.015625)"/>
      <path id="ArialMT-2c" d="M 569 0 
L 569 641 
L 1209 641 
L 1209 0 
Q 1209 -353 1084 -570 
Q 959 -788 688 -906 
L 531 -666 
Q 709 -588 793 -436 
Q 878 -284 888 0 
L 569 0 
z
" transform="scale(0.015625)"/>
      <path id="ArialMT-20" transform="scale(0.015625)"/>
     </defs>
     <use xlink:href="#ArialMT-4e"/>
     <use xlink:href="#ArialMT-3d" x="72.216797"/>
     <use xlink:href="#ArialMT-31" x="130.615234"/>
     <use xlink:href="#ArialMT-35" x="186.230469"/>
     <use xlink:href="#ArialMT-2c" x="241.845703"/>
     <use xlink:href="#ArialMT-20" x="269.628906"/>
    </g>
   </g>
   <g id="legend_1">
    <g id="line2d_15">
     <g>
      <use xlink:href="#m346cc61faf" x="55.032875" y="219.978625" style="stroke: #000000; stroke-width: 2"/>
     </g>
    </g>
    <g id="text_15">
     <!-- Observations -->
     <g style="fill: #262626" transform="translate(70.872875 223.058625) scale(0.088 -0.088)">
      <defs>
       <path id="ArialMT-4f" d="M 309 2231 
Q 309 3372 921 4017 
Q 1534 4663 2503 4663 
Q 3138 4663 3647 4359 
Q 4156 4056 4423 3514 
Q 4691 2972 4691 2284 
Q 4691 1588 4409 1038 
Q 4128 488 3612 205 
Q 3097 -78 2500 -78 
Q 1853 -78 1343 234 
Q 834 547 571 1087 
Q 309 1628 309 2231 
z
M 934 2222 
Q 934 1394 1379 917 
Q 1825 441 2497 441 
Q 3181 441 3623 922 
Q 4066 1403 4066 2288 
Q 4066 2847 3877 3264 
Q 3688 3681 3323 3911 
Q 2959 4141 2506 4141 
Q 1863 4141 1398 3698 
Q 934 3256 934 2222 
z
" transform="scale(0.015625)"/>
       <path id="ArialMT-62" d="M 941 0 
L 419 0 
L 419 4581 
L 981 4581 
L 981 2947 
Q 1338 3394 1891 3394 
Q 2197 3394 2470 3270 
Q 2744 3147 2920 2923 
Q 3097 2700 3197 2384 
Q 3297 2069 3297 1709 
Q 3297 856 2875 390 
Q 2453 -75 1863 -75 
Q 1275 -75 941 416 
L 941 0 
z
M 934 1684 
Q 934 1088 1097 822 
Q 1363 388 1816 388 
Q 2184 388 2453 708 
Q 2722 1028 2722 1663 
Q 2722 2313 2464 2622 
Q 2206 2931 1841 2931 
Q 1472 2931 1203 2611 
Q 934 2291 934 1684 
z
" transform="scale(0.015625)"/>
       <path id="ArialMT-73" d="M 197 991 
L 753 1078 
Q 800 744 1014 566 
Q 1228 388 1613 388 
Q 2000 388 2187 545 
Q 2375 703 2375 916 
Q 2375 1106 2209 1216 
Q 2094 1291 1634 1406 
Q 1016 1563 777 1677 
Q 538 1791 414 1992 
Q 291 2194 291 2438 
Q 291 2659 392 2848 
Q 494 3038 669 3163 
Q 800 3259 1026 3326 
Q 1253 3394 1513 3394 
Q 1903 3394 2198 3281 
Q 2494 3169 2634 2976 
Q 2775 2784 2828 2463 
L 2278 2388 
Q 2241 2644 2061 2787 
Q 1881 2931 1553 2931 
Q 1166 2931 1000 2803 
Q 834 2675 834 2503 
Q 834 2394 903 2306 
Q 972 2216 1119 2156 
Q 1203 2125 1616 2013 
Q 2213 1853 2448 1751 
Q 2684 1650 2818 1456 
Q 2953 1263 2953 975 
Q 2953 694 2789 445 
Q 2625 197 2315 61 
Q 2006 -75 1616 -75 
Q 969 -75 630 194 
Q 291 463 197 991 
z
" transform="scale(0.015625)"/>
       <path id="ArialMT-65" d="M 2694 1069 
L 3275 997 
Q 3138 488 2766 206 
Q 2394 -75 1816 -75 
Q 1088 -75 661 373 
Q 234 822 234 1631 
Q 234 2469 665 2931 
Q 1097 3394 1784 3394 
Q 2450 3394 2872 2941 
Q 3294 2488 3294 1666 
Q 3294 1616 3291 1516 
L 816 1516 
Q 847 969 1125 678 
Q 1403 388 1819 388 
Q 2128 388 2347 550 
Q 2566 713 2694 1069 
z
M 847 1978 
L 2700 1978 
Q 2663 2397 2488 2606 
Q 2219 2931 1791 2931 
Q 1403 2931 1139 2672 
Q 875 2413 847 1978 
z
" transform="scale(0.015625)"/>
       <path id="ArialMT-72" d="M 416 0 
L 416 3319 
L 922 3319 
L 922 2816 
Q 1116 3169 1280 3281 
Q 1444 3394 1641 3394 
Q 1925 3394 2219 3213 
L 2025 2691 
Q 1819 2813 1613 2813 
Q 1428 2813 1281 2702 
Q 1134 2591 1072 2394 
Q 978 2094 978 1738 
L 978 0 
L 416 0 
z
" transform="scale(0.015625)"/>
       <path id="ArialMT-76" d="M 1344 0 
L 81 3319 
L 675 3319 
L 1388 1331 
Q 1503 1009 1600 663 
Q 1675 925 1809 1294 
L 2547 3319 
L 3125 3319 
L 1869 0 
L 1344 0 
z
" transform="scale(0.015625)"/>
       <path id="ArialMT-61" d="M 2588 409 
Q 2275 144 1986 34 
Q 1697 -75 1366 -75 
Q 819 -75 525 192 
Q 231 459 231 875 
Q 231 1119 342 1320 
Q 453 1522 633 1644 
Q 813 1766 1038 1828 
Q 1203 1872 1538 1913 
Q 2219 1994 2541 2106 
Q 2544 2222 2544 2253 
Q 2544 2597 2384 2738 
Q 2169 2928 1744 2928 
Q 1347 2928 1158 2789 
Q 969 2650 878 2297 
L 328 2372 
Q 403 2725 575 2942 
Q 747 3159 1072 3276 
Q 1397 3394 1825 3394 
Q 2250 3394 2515 3294 
Q 2781 3194 2906 3042 
Q 3031 2891 3081 2659 
Q 3109 2516 3109 2141 
L 3109 1391 
Q 3109 606 3145 398 
Q 3181 191 3288 0 
L 2700 0 
Q 2613 175 2588 409 
z
M 2541 1666 
Q 2234 1541 1622 1453 
Q 1275 1403 1131 1340 
Q 988 1278 909 1158 
Q 831 1038 831 891 
Q 831 666 1001 516 
Q 1172 366 1500 366 
Q 1825 366 2078 508 
Q 2331 650 2450 897 
Q 2541 1088 2541 1459 
L 2541 1666 
z
" transform="scale(0.015625)"/>
       <path id="ArialMT-74" d="M 1650 503 
L 1731 6 
Q 1494 -44 1306 -44 
Q 1000 -44 831 53 
Q 663 150 594 308 
Q 525 466 525 972 
L 525 2881 
L 113 2881 
L 113 3319 
L 525 3319 
L 525 4141 
L 1084 4478 
L 1084 3319 
L 1650 3319 
L 1650 2881 
L 1084 2881 
L 1084 941 
Q 1084 700 1114 631 
Q 1144 563 1211 522 
Q 1278 481 1403 481 
Q 1497 481 1650 503 
z
" transform="scale(0.015625)"/>
       <path id="ArialMT-69" d="M 425 3934 
L 425 4581 
L 988 4581 
L 988 3934 
L 425 3934 
z
M 425 0 
L 425 3319 
L 988 3319 
L 988 0 
L 425 0 
z
" transform="scale(0.015625)"/>
       <path id="ArialMT-6f" d="M 213 1659 
Q 213 2581 725 3025 
Q 1153 3394 1769 3394 
Q 2453 3394 2887 2945 
Q 3322 2497 3322 1706 
Q 3322 1066 3130 698 
Q 2938 331 2570 128 
Q 2203 -75 1769 -75 
Q 1072 -75 642 372 
Q 213 819 213 1659 
z
M 791 1659 
Q 791 1022 1069 705 
Q 1347 388 1769 388 
Q 2188 388 2466 706 
Q 2744 1025 2744 1678 
Q 2744 2294 2464 2611 
Q 2184 2928 1769 2928 
Q 1347 2928 1069 2612 
Q 791 2297 791 1659 
z
" transform="scale(0.015625)"/>
       <path id="ArialMT-6e" d="M 422 0 
L 422 3319 
L 928 3319 
L 928 2847 
Q 1294 3394 1984 3394 
Q 2284 3394 2536 3286 
Q 2788 3178 2913 3003 
Q 3038 2828 3088 2588 
Q 3119 2431 3119 2041 
L 3119 0 
L 2556 0 
L 2556 2019 
Q 2556 2363 2490 2533 
Q 2425 2703 2258 2804 
Q 2091 2906 1866 2906 
Q 1506 2906 1245 2678 
Q 984 2450 984 1813 
L 984 0 
L 422 0 
z
" transform="scale(0.015625)"/>
      </defs>
      <use xlink:href="#ArialMT-4f"/>
      <use xlink:href="#ArialMT-62" x="77.783203"/>
      <use xlink:href="#ArialMT-73" x="133.398438"/>
      <use xlink:href="#ArialMT-65" x="183.398438"/>
      <use xlink:href="#ArialMT-72" x="239.013672"/>
      <use xlink:href="#ArialMT-76" x="272.314453"/>
      <use xlink:href="#ArialMT-61" x="322.314453"/>
      <use xlink:href="#ArialMT-74" x="377.929688"/>
      <use xlink:href="#ArialMT-69" x="405.712891"/>
      <use xlink:href="#ArialMT-6f" x="427.929688"/>
      <use xlink:href="#ArialMT-6e" x="483.544922"/>
      <use xlink:href="#ArialMT-73" x="539.160156"/>
     </g>
    </g>
    <g id="line2d_16">
     <path d="M 46.232875 232.562625 
L 55.032875 232.562625 
L 63.832875 232.562625 
" style="fill: none; stroke: #1f77b4; stroke-width: 2; stroke-linecap: round"/>
    </g>
    <g id="text_16">
     <!-- $m_n(x)$ -->
     <g style="fill: #262626" transform="translate(70.872875 235.642625) scale(0.088 -0.088)">
      <defs>
       <path id="DejaVuSans-Oblique-6d" d="M 5747 2113 
L 5338 0 
L 4763 0 
L 5166 2094 
Q 5191 2228 5203 2325 
Q 5216 2422 5216 2491 
Q 5216 2772 5059 2928 
Q 4903 3084 4622 3084 
Q 4203 3084 3875 2770 
Q 3547 2456 3450 1953 
L 3066 0 
L 2491 0 
L 2900 2094 
Q 2925 2209 2937 2307 
Q 2950 2406 2950 2484 
Q 2950 2769 2794 2926 
Q 2638 3084 2363 3084 
Q 1938 3084 1609 2770 
Q 1281 2456 1184 1953 
L 800 0 
L 225 0 
L 909 3500 
L 1484 3500 
L 1375 2956 
Q 1609 3263 1923 3423 
Q 2238 3584 2597 3584 
Q 2978 3584 3223 3384 
Q 3469 3184 3519 2828 
Q 3781 3197 4126 3390 
Q 4472 3584 4856 3584 
Q 5306 3584 5551 3325 
Q 5797 3066 5797 2591 
Q 5797 2488 5784 2364 
Q 5772 2241 5747 2113 
z
" transform="scale(0.015625)"/>
       <path id="DejaVuSans-Oblique-6e" d="M 3566 2113 
L 3156 0 
L 2578 0 
L 2988 2091 
Q 3016 2238 3031 2350 
Q 3047 2463 3047 2528 
Q 3047 2791 2881 2937 
Q 2716 3084 2419 3084 
Q 1956 3084 1622 2776 
Q 1288 2469 1184 1941 
L 800 0 
L 225 0 
L 903 3500 
L 1478 3500 
L 1363 2950 
Q 1603 3253 1940 3418 
Q 2278 3584 2650 3584 
Q 3113 3584 3367 3334 
Q 3622 3084 3622 2631 
Q 3622 2519 3608 2391 
Q 3594 2263 3566 2113 
z
" transform="scale(0.015625)"/>
       <path id="DejaVuSans-28" d="M 1984 4856 
Q 1566 4138 1362 3434 
Q 1159 2731 1159 2009 
Q 1159 1288 1364 580 
Q 1569 -128 1984 -844 
L 1484 -844 
Q 1016 -109 783 600 
Q 550 1309 550 2009 
Q 550 2706 781 3412 
Q 1013 4119 1484 4856 
L 1984 4856 
z
" transform="scale(0.015625)"/>
       <path id="DejaVuSans-29" d="M 513 4856 
L 1013 4856 
Q 1481 4119 1714 3412 
Q 1947 2706 1947 2009 
Q 1947 1309 1714 600 
Q 1481 -109 1013 -844 
L 513 -844 
Q 928 -128 1133 580 
Q 1338 1288 1338 2009 
Q 1338 2731 1133 3434 
Q 928 4138 513 4856 
z
" transform="scale(0.015625)"/>
      </defs>
      <use xlink:href="#DejaVuSans-Oblique-6d" transform="translate(0 0.125)"/>
      <use xlink:href="#DejaVuSans-Oblique-6e" transform="translate(97.412109 -16.28125) scale(0.7)"/>
      <use xlink:href="#DejaVuSans-28" transform="translate(144.511719 0.125)"/>
      <use xlink:href="#DejaVuSans-Oblique-78" transform="translate(183.525391 0.125)"/>
      <use xlink:href="#DejaVuSans-29" transform="translate(242.705078 0.125)"/>
     </g>
    </g>
    <g id="patch_5">
     <path d="M 46.232875 249.799625 
L 63.832875 249.799625 
L 63.832875 243.639625 
L 46.232875 243.639625 
z
" style="fill: #1f77b4; fill-opacity: 0.5; stroke: #1f77b4; stroke-opacity: 0.5; stroke-width: 0.8; stroke-linejoin: miter"/>
    </g>
    <g id="text_17">
     <!-- $f(\mathbf{x}^*)$ 95% pred. -->
     <g style="fill: #262626" transform="translate(70.872875 249.799625) scale(0.088 -0.088)">
      <defs>
       <path id="DejaVuSans-Oblique-66" d="M 3059 4863 
L 2969 4384 
L 2419 4384 
Q 2106 4384 1964 4261 
Q 1822 4138 1753 3809 
L 1691 3500 
L 2638 3500 
L 2553 3053 
L 1606 3053 
L 1013 0 
L 434 0 
L 1031 3053 
L 481 3053 
L 563 3500 
L 1113 3500 
L 1159 3744 
Q 1278 4363 1576 4613 
Q 1875 4863 2516 4863 
L 3059 4863 
z
" transform="scale(0.015625)"/>
       <path id="DejaVuSans-Bold-78" d="M 1422 1791 
L 159 3500 
L 1344 3500 
L 2059 2463 
L 2784 3500 
L 3969 3500 
L 2706 1797 
L 4031 0 
L 2847 0 
L 2059 1106 
L 1281 0 
L 97 0 
L 1422 1791 
z
" transform="scale(0.015625)"/>
       <path id="DejaVuSans-2a" d="M 3009 3897 
L 1888 3291 
L 3009 2681 
L 2828 2375 
L 1778 3009 
L 1778 1831 
L 1422 1831 
L 1422 3009 
L 372 2375 
L 191 2681 
L 1313 3291 
L 191 3897 
L 372 4206 
L 1422 3572 
L 1422 4750 
L 1778 4750 
L 1778 3572 
L 2828 4206 
L 3009 3897 
z
" transform="scale(0.015625)"/>
       <path id="ArialMT-39" d="M 350 1059 
L 891 1109 
Q 959 728 1153 556 
Q 1347 384 1650 384 
Q 1909 384 2104 503 
Q 2300 622 2425 820 
Q 2550 1019 2634 1356 
Q 2719 1694 2719 2044 
Q 2719 2081 2716 2156 
Q 2547 1888 2255 1720 
Q 1963 1553 1622 1553 
Q 1053 1553 659 1965 
Q 266 2378 266 3053 
Q 266 3750 677 4175 
Q 1088 4600 1706 4600 
Q 2153 4600 2523 4359 
Q 2894 4119 3086 3673 
Q 3278 3228 3278 2384 
Q 3278 1506 3087 986 
Q 2897 466 2520 194 
Q 2144 -78 1638 -78 
Q 1100 -78 759 220 
Q 419 519 350 1059 
z
M 2653 3081 
Q 2653 3566 2395 3850 
Q 2138 4134 1775 4134 
Q 1400 4134 1122 3828 
Q 844 3522 844 3034 
Q 844 2597 1108 2323 
Q 1372 2050 1759 2050 
Q 2150 2050 2401 2323 
Q 2653 2597 2653 3081 
z
" transform="scale(0.015625)"/>
       <path id="ArialMT-25" d="M 372 3481 
Q 372 3972 619 4315 
Q 866 4659 1334 4659 
Q 1766 4659 2048 4351 
Q 2331 4044 2331 3447 
Q 2331 2866 2045 2552 
Q 1759 2238 1341 2238 
Q 925 2238 648 2547 
Q 372 2856 372 3481 
z
M 1350 4272 
Q 1141 4272 1002 4090 
Q 863 3909 863 3425 
Q 863 2984 1003 2804 
Q 1144 2625 1350 2625 
Q 1563 2625 1702 2806 
Q 1841 2988 1841 3469 
Q 1841 3913 1700 4092 
Q 1559 4272 1350 4272 
z
M 1353 -169 
L 3859 4659 
L 4316 4659 
L 1819 -169 
L 1353 -169 
z
M 3334 1075 
Q 3334 1569 3581 1911 
Q 3828 2253 4300 2253 
Q 4731 2253 5014 1945 
Q 5297 1638 5297 1041 
Q 5297 459 5011 145 
Q 4725 -169 4303 -169 
Q 3888 -169 3611 142 
Q 3334 453 3334 1075 
z
M 4316 1866 
Q 4103 1866 3964 1684 
Q 3825 1503 3825 1019 
Q 3825 581 3965 400 
Q 4106 219 4313 219 
Q 4528 219 4667 400 
Q 4806 581 4806 1063 
Q 4806 1506 4665 1686 
Q 4525 1866 4316 1866 
z
" transform="scale(0.015625)"/>
       <path id="ArialMT-70" d="M 422 -1272 
L 422 3319 
L 934 3319 
L 934 2888 
Q 1116 3141 1344 3267 
Q 1572 3394 1897 3394 
Q 2322 3394 2647 3175 
Q 2972 2956 3137 2557 
Q 3303 2159 3303 1684 
Q 3303 1175 3120 767 
Q 2938 359 2589 142 
Q 2241 -75 1856 -75 
Q 1575 -75 1351 44 
Q 1128 163 984 344 
L 984 -1272 
L 422 -1272 
z
M 931 1641 
Q 931 1000 1190 694 
Q 1450 388 1819 388 
Q 2194 388 2461 705 
Q 2728 1022 2728 1688 
Q 2728 2322 2467 2637 
Q 2206 2953 1844 2953 
Q 1484 2953 1207 2617 
Q 931 2281 931 1641 
z
" transform="scale(0.015625)"/>
       <path id="ArialMT-64" d="M 2575 0 
L 2575 419 
Q 2259 -75 1647 -75 
Q 1250 -75 917 144 
Q 584 363 401 755 
Q 219 1147 219 1656 
Q 219 2153 384 2558 
Q 550 2963 881 3178 
Q 1213 3394 1622 3394 
Q 1922 3394 2156 3267 
Q 2391 3141 2538 2938 
L 2538 4581 
L 3097 4581 
L 3097 0 
L 2575 0 
z
M 797 1656 
Q 797 1019 1065 703 
Q 1334 388 1700 388 
Q 2069 388 2326 689 
Q 2584 991 2584 1609 
Q 2584 2291 2321 2609 
Q 2059 2928 1675 2928 
Q 1300 2928 1048 2622 
Q 797 2316 797 1656 
z
" transform="scale(0.015625)"/>
      </defs>
      <use xlink:href="#DejaVuSans-Oblique-66" transform="translate(0 0.765625)"/>
      <use xlink:href="#DejaVuSans-28" transform="translate(35.205078 0.765625)"/>
      <use xlink:href="#DejaVuSans-Bold-78" transform="translate(74.21875 0.765625)"/>
      <use xlink:href="#DejaVuSans-2a" transform="translate(153.31543 39.046875) scale(0.7)"/>
      <use xlink:href="#DejaVuSans-29" transform="translate(204.6875 0.765625)"/>
      <use xlink:href="#ArialMT-20" transform="translate(243.701172 0.765625)"/>
      <use xlink:href="#ArialMT-39" transform="translate(271.484375 0.765625)"/>
      <use xlink:href="#ArialMT-35" transform="translate(327.099609 0.765625)"/>
      <use xlink:href="#ArialMT-25" transform="translate(382.714844 0.765625)"/>
      <use xlink:href="#ArialMT-20" transform="translate(471.630859 0.765625)"/>
      <use xlink:href="#ArialMT-70" transform="translate(499.414062 0.765625)"/>
      <use xlink:href="#ArialMT-72" transform="translate(555.029297 0.765625)"/>
      <use xlink:href="#ArialMT-65" transform="translate(588.330078 0.765625)"/>
      <use xlink:href="#ArialMT-64" transform="translate(643.945312 0.765625)"/>
      <use xlink:href="#ArialMT-2e" transform="translate(699.560547 0.765625)"/>
     </g>
    </g>
    <g id="patch_6">
     <path d="M 46.232875 263.967625 
L 63.832875 263.967625 
L 63.832875 257.807625 
L 46.232875 257.807625 
z
" style="fill: #ff7f0e; fill-opacity: 0.5; stroke: #ff7f0e; stroke-opacity: 0.5; stroke-width: 0.8; stroke-linejoin: miter"/>
    </g>
    <g id="text_18">
     <!-- $y^*$ 95% pred. -->
     <g style="fill: #262626" transform="translate(70.872875 263.967625) scale(0.088 -0.088)">
      <use xlink:href="#DejaVuSans-Oblique-79" transform="translate(0 0.765625)"/>
      <use xlink:href="#DejaVuSans-2a" transform="translate(77.283529 39.046875) scale(0.7)"/>
      <use xlink:href="#ArialMT-20" transform="translate(128.655599 0.765625)"/>
      <use xlink:href="#ArialMT-39" transform="translate(156.438802 0.765625)"/>
      <use xlink:href="#ArialMT-35" transform="translate(212.054036 0.765625)"/>
      <use xlink:href="#ArialMT-25" transform="translate(267.669271 0.765625)"/>
      <use xlink:href="#ArialMT-20" transform="translate(356.585286 0.765625)"/>
      <use xlink:href="#ArialMT-70" transform="translate(384.36849 0.765625)"/>
      <use xlink:href="#ArialMT-72" transform="translate(439.983724 0.765625)"/>
      <use xlink:href="#ArialMT-65" transform="translate(473.284505 0.765625)"/>
      <use xlink:href="#ArialMT-64" transform="translate(528.89974 0.765625)"/>
      <use xlink:href="#ArialMT-2e" transform="translate(584.514974 0.765625)"/>
     </g>
    </g>
    <g id="line2d_17">
     <path d="M 46.232875 273.4345 
L 55.032875 273.4345 
L 63.832875 273.4345 
" style="fill: none; stroke-dasharray: 7.68,1.92,1.2,1.92; stroke-dashoffset: 0; stroke: #bf00bf; stroke-width: 1.2"/>
    </g>
    <g id="text_19">
     <!-- True function -->
     <g style="fill: #262626" transform="translate(70.872875 276.5145) scale(0.088 -0.088)">
      <defs>
       <path id="ArialMT-54" d="M 1659 0 
L 1659 4041 
L 150 4041 
L 150 4581 
L 3781 4581 
L 3781 4041 
L 2266 4041 
L 2266 0 
L 1659 0 
z
" transform="scale(0.015625)"/>
       <path id="ArialMT-75" d="M 2597 0 
L 2597 488 
Q 2209 -75 1544 -75 
Q 1250 -75 995 37 
Q 741 150 617 320 
Q 494 491 444 738 
Q 409 903 409 1263 
L 409 3319 
L 972 3319 
L 972 1478 
Q 972 1038 1006 884 
Q 1059 663 1231 536 
Q 1403 409 1656 409 
Q 1909 409 2131 539 
Q 2353 669 2445 892 
Q 2538 1116 2538 1541 
L 2538 3319 
L 3100 3319 
L 3100 0 
L 2597 0 
z
" transform="scale(0.015625)"/>
       <path id="ArialMT-66" d="M 556 0 
L 556 2881 
L 59 2881 
L 59 3319 
L 556 3319 
L 556 3672 
Q 556 4006 616 4169 
Q 697 4388 901 4523 
Q 1106 4659 1475 4659 
Q 1713 4659 2000 4603 
L 1916 4113 
Q 1741 4144 1584 4144 
Q 1328 4144 1222 4034 
Q 1116 3925 1116 3625 
L 1116 3319 
L 1763 3319 
L 1763 2881 
L 1116 2881 
L 1116 0 
L 556 0 
z
" transform="scale(0.015625)"/>
       <path id="ArialMT-63" d="M 2588 1216 
L 3141 1144 
Q 3050 572 2676 248 
Q 2303 -75 1759 -75 
Q 1078 -75 664 370 
Q 250 816 250 1647 
Q 250 2184 428 2587 
Q 606 2991 970 3192 
Q 1334 3394 1763 3394 
Q 2303 3394 2647 3120 
Q 2991 2847 3088 2344 
L 2541 2259 
Q 2463 2594 2264 2762 
Q 2066 2931 1784 2931 
Q 1359 2931 1093 2626 
Q 828 2322 828 1663 
Q 828 994 1084 691 
Q 1341 388 1753 388 
Q 2084 388 2306 591 
Q 2528 794 2588 1216 
z
" transform="scale(0.015625)"/>
      </defs>
      <use xlink:href="#ArialMT-54"/>
      <use xlink:href="#ArialMT-72" x="57.333984"/>
      <use xlink:href="#ArialMT-75" x="90.634766"/>
      <use xlink:href="#ArialMT-65" x="146.25"/>
      <use xlink:href="#ArialMT-20" x="201.865234"/>
      <use xlink:href="#ArialMT-66" x="229.648438"/>
      <use xlink:href="#ArialMT-75" x="257.431641"/>
      <use xlink:href="#ArialMT-6e" x="313.046875"/>
      <use xlink:href="#ArialMT-63" x="368.662109"/>
      <use xlink:href="#ArialMT-74" x="418.662109"/>
      <use xlink:href="#ArialMT-69" x="446.445312"/>
      <use xlink:href="#ArialMT-6f" x="468.662109"/>
      <use xlink:href="#ArialMT-6e" x="524.277344"/>
     </g>
    </g>
   </g>
  </g>
  <g id="axes_2">
   <g id="matplotlib.axis_3">
    <g id="ytick_6">
     <g id="line2d_18">
      <defs>
       <path id="m5ecb177290" d="M 0 0 
L 4.8 0 
" style="stroke: #262626"/>
      </defs>
      <g>
       <use xlink:href="#m5ecb177290" x="395.432875" y="274.064472" style="fill: #262626; stroke: #262626"/>
      </g>
     </g>
     <g id="text_20">
      <!-- 0.0000 -->
      <g style="fill: #ff7f0e" transform="translate(403.732875 277.21391) scale(0.088 -0.088)">
       <use xlink:href="#ArialMT-30"/>
       <use xlink:href="#ArialMT-2e" x="55.615234"/>
       <use xlink:href="#ArialMT-30" x="83.398438"/>
       <use xlink:href="#ArialMT-30" x="139.013672"/>
       <use xlink:href="#ArialMT-30" x="194.628906"/>
       <use xlink:href="#ArialMT-30" x="250.244141"/>
      </g>
     </g>
    </g>
    <g id="ytick_7">
     <g id="line2d_19">
      <g>
       <use xlink:href="#m5ecb177290" x="395.432875" y="218.949103" style="fill: #262626; stroke: #262626"/>
      </g>
     </g>
     <g id="text_21">
      <!-- 0.0001 -->
      <g style="fill: #ff7f0e" transform="translate(403.732875 222.098541) scale(0.088 -0.088)">
       <use xlink:href="#ArialMT-30"/>
       <use xlink:href="#ArialMT-2e" x="55.615234"/>
       <use xlink:href="#ArialMT-30" x="83.398438"/>
       <use xlink:href="#ArialMT-30" x="139.013672"/>
       <use xlink:href="#ArialMT-30" x="194.628906"/>
       <use xlink:href="#ArialMT-31" x="250.244141"/>
      </g>
     </g>
    </g>
    <g id="ytick_8">
     <g id="line2d_20">
      <g>
       <use xlink:href="#m5ecb177290" x="395.432875" y="163.833734" style="fill: #262626; stroke: #262626"/>
      </g>
     </g>
     <g id="text_22">
      <!-- 0.0002 -->
      <g style="fill: #ff7f0e" transform="translate(403.732875 166.983172) scale(0.088 -0.088)">
       <use xlink:href="#ArialMT-30"/>
       <use xlink:href="#ArialMT-2e" x="55.615234"/>
       <use xlink:href="#ArialMT-30" x="83.398438"/>
       <use xlink:href="#ArialMT-30" x="139.013672"/>
       <use xlink:href="#ArialMT-30" x="194.628906"/>
       <use xlink:href="#ArialMT-32" x="250.244141"/>
      </g>
     </g>
    </g>
    <g id="ytick_9">
     <g id="line2d_21">
      <g>
       <use xlink:href="#m5ecb177290" x="395.432875" y="108.718366" style="fill: #262626; stroke: #262626"/>
      </g>
     </g>
     <g id="text_23">
      <!-- 0.0003 -->
      <g style="fill: #ff7f0e" transform="translate(403.732875 111.867803) scale(0.088 -0.088)">
       <defs>
        <path id="ArialMT-33" d="M 269 1209 
L 831 1284 
Q 928 806 1161 595 
Q 1394 384 1728 384 
Q 2125 384 2398 659 
Q 2672 934 2672 1341 
Q 2672 1728 2419 1979 
Q 2166 2231 1775 2231 
Q 1616 2231 1378 2169 
L 1441 2663 
Q 1497 2656 1531 2656 
Q 1891 2656 2178 2843 
Q 2466 3031 2466 3422 
Q 2466 3731 2256 3934 
Q 2047 4138 1716 4138 
Q 1388 4138 1169 3931 
Q 950 3725 888 3313 
L 325 3413 
Q 428 3978 793 4289 
Q 1159 4600 1703 4600 
Q 2078 4600 2393 4439 
Q 2709 4278 2876 4000 
Q 3044 3722 3044 3409 
Q 3044 3113 2884 2869 
Q 2725 2625 2413 2481 
Q 2819 2388 3044 2092 
Q 3269 1797 3269 1353 
Q 3269 753 2831 336 
Q 2394 -81 1725 -81 
Q 1122 -81 723 278 
Q 325 638 269 1209 
z
" transform="scale(0.015625)"/>
       </defs>
       <use xlink:href="#ArialMT-30"/>
       <use xlink:href="#ArialMT-2e" x="55.615234"/>
       <use xlink:href="#ArialMT-30" x="83.398438"/>
       <use xlink:href="#ArialMT-30" x="139.013672"/>
       <use xlink:href="#ArialMT-30" x="194.628906"/>
       <use xlink:href="#ArialMT-33" x="250.244141"/>
      </g>
     </g>
    </g>
    <g id="ytick_10">
     <g id="line2d_22">
      <g>
       <use xlink:href="#m5ecb177290" x="395.432875" y="53.602997" style="fill: #262626; stroke: #262626"/>
      </g>
     </g>
     <g id="text_24">
      <!-- 0.0004 -->
      <g style="fill: #ff7f0e" transform="translate(403.732875 56.752434) scale(0.088 -0.088)">
       <use xlink:href="#ArialMT-30"/>
       <use xlink:href="#ArialMT-2e" x="55.615234"/>
       <use xlink:href="#ArialMT-30" x="83.398438"/>
       <use xlink:href="#ArialMT-30" x="139.013672"/>
       <use xlink:href="#ArialMT-30" x="194.628906"/>
       <use xlink:href="#ArialMT-34" x="250.244141"/>
      </g>
     </g>
    </g>
    <g id="text_25">
     <!-- Information Acquisition Function -->
     <g style="fill: #ff7f0e" transform="translate(441.63425 221.16075) rotate(-90) scale(0.096 -0.096)">
      <defs>
       <path id="ArialMT-49" d="M 597 0 
L 597 4581 
L 1203 4581 
L 1203 0 
L 597 0 
z
" transform="scale(0.015625)"/>
       <path id="ArialMT-6d" d="M 422 0 
L 422 3319 
L 925 3319 
L 925 2853 
Q 1081 3097 1340 3245 
Q 1600 3394 1931 3394 
Q 2300 3394 2536 3241 
Q 2772 3088 2869 2813 
Q 3263 3394 3894 3394 
Q 4388 3394 4653 3120 
Q 4919 2847 4919 2278 
L 4919 0 
L 4359 0 
L 4359 2091 
Q 4359 2428 4304 2576 
Q 4250 2725 4106 2815 
Q 3963 2906 3769 2906 
Q 3419 2906 3187 2673 
Q 2956 2441 2956 1928 
L 2956 0 
L 2394 0 
L 2394 2156 
Q 2394 2531 2256 2718 
Q 2119 2906 1806 2906 
Q 1569 2906 1367 2781 
Q 1166 2656 1075 2415 
Q 984 2175 984 1722 
L 984 0 
L 422 0 
z
" transform="scale(0.015625)"/>
       <path id="ArialMT-41" d="M -9 0 
L 1750 4581 
L 2403 4581 
L 4278 0 
L 3588 0 
L 3053 1388 
L 1138 1388 
L 634 0 
L -9 0 
z
M 1313 1881 
L 2866 1881 
L 2388 3150 
Q 2169 3728 2063 4100 
Q 1975 3659 1816 3225 
L 1313 1881 
z
" transform="scale(0.015625)"/>
       <path id="ArialMT-71" d="M 2538 -1272 
L 2538 353 
Q 2406 169 2170 47 
Q 1934 -75 1669 -75 
Q 1078 -75 651 397 
Q 225 869 225 1691 
Q 225 2191 398 2587 
Q 572 2984 901 3189 
Q 1231 3394 1625 3394 
Q 2241 3394 2594 2875 
L 2594 3319 
L 3100 3319 
L 3100 -1272 
L 2538 -1272 
z
M 803 1669 
Q 803 1028 1072 708 
Q 1341 388 1716 388 
Q 2075 388 2334 692 
Q 2594 997 2594 1619 
Q 2594 2281 2320 2615 
Q 2047 2950 1678 2950 
Q 1313 2950 1058 2639 
Q 803 2328 803 1669 
z
" transform="scale(0.015625)"/>
       <path id="ArialMT-46" d="M 525 0 
L 525 4581 
L 3616 4581 
L 3616 4041 
L 1131 4041 
L 1131 2622 
L 3281 2622 
L 3281 2081 
L 1131 2081 
L 1131 0 
L 525 0 
z
" transform="scale(0.015625)"/>
      </defs>
      <use xlink:href="#ArialMT-49"/>
      <use xlink:href="#ArialMT-6e" x="27.783203"/>
      <use xlink:href="#ArialMT-66" x="83.398438"/>
      <use xlink:href="#ArialMT-6f" x="111.181641"/>
      <use xlink:href="#ArialMT-72" x="166.796875"/>
      <use xlink:href="#ArialMT-6d" x="200.097656"/>
      <use xlink:href="#ArialMT-61" x="283.398438"/>
      <use xlink:href="#ArialMT-74" x="339.013672"/>
      <use xlink:href="#ArialMT-69" x="366.796875"/>
      <use xlink:href="#ArialMT-6f" x="389.013672"/>
      <use xlink:href="#ArialMT-6e" x="444.628906"/>
      <use xlink:href="#ArialMT-20" x="500.244141"/>
      <use xlink:href="#ArialMT-41" x="522.527344"/>
      <use xlink:href="#ArialMT-63" x="589.226562"/>
      <use xlink:href="#ArialMT-71" x="639.226562"/>
      <use xlink:href="#ArialMT-75" x="694.841797"/>
      <use xlink:href="#ArialMT-69" x="750.457031"/>
      <use xlink:href="#ArialMT-73" x="772.673828"/>
      <use xlink:href="#ArialMT-69" x="822.673828"/>
      <use xlink:href="#ArialMT-74" x="844.890625"/>
      <use xlink:href="#ArialMT-69" x="872.673828"/>
      <use xlink:href="#ArialMT-6f" x="894.890625"/>
      <use xlink:href="#ArialMT-6e" x="950.505859"/>
      <use xlink:href="#ArialMT-20" x="1006.121094"/>
      <use xlink:href="#ArialMT-46" x="1033.904297"/>
      <use xlink:href="#ArialMT-75" x="1094.988281"/>
      <use xlink:href="#ArialMT-6e" x="1150.603516"/>
      <use xlink:href="#ArialMT-63" x="1206.21875"/>
      <use xlink:href="#ArialMT-74" x="1256.21875"/>
      <use xlink:href="#ArialMT-69" x="1284.001953"/>
      <use xlink:href="#ArialMT-6f" x="1306.21875"/>
      <use xlink:href="#ArialMT-6e" x="1361.833984"/>
     </g>
    </g>
   </g>
   <g id="line2d_23">
    <path d="M 54.545602 274.064471 
L 57.824941 274.064472 
L 61.10428 274.064472 
L 64.383619 274.064472 
L 67.662958 274.064472 
L 70.942296 274.064469 
L 74.221636 274.064449 
L 77.500973 274.064294 
L 80.780313 274.06312 
L 84.059653 274.055225 
L 87.33899 274.05427 
L 90.61833 274.074087 
L 93.89767 274.016695 
L 97.177007 273.867163 
L 100.456344 273.340031 
L 103.735686 271.677911 
L 107.015024 267.309756 
L 110.294361 257.226567 
L 113.573703 237.25213 
L 116.853041 203.361374 
L 120.132378 155.251001 
L 123.41172 100.225297 
L 126.691057 53.671512 
L 129.970395 32.1675 
L 133.249737 40.814198 
L 136.529069 66.627893 
L 139.808412 87.627072 
L 143.087754 88.97218 
L 146.367086 70.204709 
L 149.646428 44.574263 
L 152.92577 32.750996 
L 156.205103 48.626268 
L 159.484445 90.095541 
L 162.763787 143.042629 
L 166.04312 192.190065 
L 169.322462 228.810849 
L 172.601804 251.663593 
L 175.881137 263.931091 
L 179.160479 269.773301 
L 182.439821 272.318199 
L 185.719153 273.353856 
L 188.998496 273.731729 
L 192.277838 273.897555 
L 195.55717 273.986906 
L 198.836512 274.010531 
L 202.115855 274.043791 
L 205.395187 274.05839 
L 208.674529 274.066716 
L 211.953871 274.066321 
L 215.233204 274.0875 
L 218.512556 274.074579 
L 221.791879 274.031958 
L 225.071221 274.051062 
L 228.350563 274.059947 
L 231.629886 274.063276 
L 234.909247 274.064237 
L 238.18857 274.06444 
L 241.467912 274.064469 
L 244.747254 274.064472 
L 248.026597 274.064472 
L 251.305939 274.064472 
L 254.585262 274.064472 
L 257.864623 274.064472 
L 261.143946 274.064472 
L 264.423288 274.064472 
L 267.70263 274.064472 
L 270.981953 274.064472 
L 274.261315 274.064472 
L 277.540637 274.064472 
L 280.81998 274.064472 
L 284.099322 274.064472 
L 287.378664 274.064472 
L 290.658006 274.064472 
L 293.937329 274.064472 
L 297.21669 274.064472 
L 300.496013 274.064472 
L 303.775355 274.064472 
L 307.054697 274.064472 
L 310.33402 274.064459 
L 313.613382 274.064218 
L 316.892705 274.06152 
L 320.172047 274.042436 
L 323.451389 274.078636 
L 326.730731 274.046981 
L 330.010073 274.010882 
L 333.289396 273.943158 
L 336.568738 273.818854 
L 339.84808 273.687942 
L 343.127423 273.595705 
L 346.406765 273.538172 
L 349.686088 273.577203 
L 352.96543 273.699654 
L 356.244772 273.836744 
L 359.524114 273.910643 
L 362.803456 273.948009 
L 366.082798 273.953302 
L 369.362141 273.919444 
L 372.641463 273.757351 
L 375.920806 273.108899 
L 379.200148 270.566933 
" clip-path="url(#p2e36551a42)" style="fill: none; stroke: #ff7f0e; stroke-width: 1.2; stroke-linecap: round"/>
   </g>
   <g id="line2d_24">
    <path d="M 129.970395 274.064472 
L 129.970395 271.621068 
L 129.970395 269.177664 
L 129.970395 266.734261 
L 129.970395 264.290857 
L 129.970395 261.847453 
L 129.970395 259.404049 
L 129.970395 256.960644 
L 129.970395 254.517241 
L 129.970395 252.073838 
L 129.970395 249.630433 
L 129.970395 247.18703 
L 129.970395 244.743627 
L 129.970395 242.300221 
L 129.970395 239.856816 
L 129.970395 237.413415 
L 129.970395 234.97001 
L 129.970395 232.526605 
L 129.970395 230.083204 
L 129.970395 227.639799 
L 129.970395 225.196394 
L 129.970395 222.752992 
L 129.970395 220.309587 
L 129.970395 217.866182 
L 129.970395 215.422781 
L 129.970395 212.979376 
L 129.970395 210.535971 
L 129.970395 208.092566 
L 129.970395 205.64916 
L 129.970395 203.205763 
L 129.970395 200.762358 
L 129.970395 198.318953 
L 129.970395 195.875548 
L 129.970395 193.432143 
L 129.970395 190.988738 
L 129.970395 188.545333 
L 129.970395 186.101935 
L 129.970395 183.65853 
L 129.970395 181.215125 
L 129.970395 178.77172 
L 129.970395 176.328315 
L 129.970395 173.88491 
L 129.970395 171.441513 
L 129.970395 168.998107 
L 129.970395 166.554702 
L 129.970395 164.111297 
L 129.970395 161.667892 
L 129.970395 159.224487 
L 129.970395 156.78109 
L 129.970395 154.337685 
L 129.970395 151.894288 
L 129.970395 149.450882 
L 129.970395 147.007485 
L 129.970395 144.56408 
L 129.970395 142.120675 
L 129.970395 139.67727 
L 129.970395 137.233865 
L 129.970395 134.790468 
L 129.970395 132.347054 
L 129.970395 129.903657 
L 129.970395 127.46026 
L 129.970395 125.016847 
L 129.970395 122.573434 
L 129.970395 120.130037 
L 129.970395 117.68664 
L 129.970395 115.243227 
L 129.970395 112.799829 
L 129.970395 110.356432 
L 129.970395 107.913019 
L 129.970395 105.469606 
L 129.970395 103.026209 
L 129.970395 100.582812 
L 129.970395 98.139399 
L 129.970395 95.696001 
L 129.970395 93.252604 
L 129.970395 90.809191 
L 129.970395 88.365794 
L 129.970395 85.922381 
L 129.970395 83.478984 
L 129.970395 81.035571 
L 129.970395 78.592174 
L 129.970395 76.148776 
L 129.970395 73.705363 
L 129.970395 71.261966 
L 129.970395 68.818553 
L 129.970395 66.375156 
L 129.970395 63.931743 
L 129.970395 61.488346 
L 129.970395 59.044948 
L 129.970395 56.601535 
L 129.970395 54.158138 
L 129.970395 51.714725 
L 129.970395 49.271328 
L 129.970395 46.827915 
L 129.970395 44.384518 
L 129.970395 41.941121 
L 129.970395 39.497707 
L 129.970395 37.05431 
L 129.970395 34.610897 
L 129.970395 32.1675 
" clip-path="url(#p2e36551a42)" style="fill: none; stroke: #ff7f0e; stroke-linecap: round"/>
   </g>
   <g id="patch_7">
    <path d="M 38.312875 286.1835 
L 38.312875 20.0715 
" style="fill: none; stroke: #262626; stroke-linejoin: miter; stroke-linecap: square"/>
   </g>
   <g id="patch_8">
    <path d="M 395.432875 286.1835 
L 395.432875 20.0715 
" style="fill: none; stroke: #262626; stroke-linejoin: miter; stroke-linecap: square"/>
   </g>
   <g id="patch_9">
    <path d="M 38.312875 286.1835 
L 395.432875 286.1835 
" style="fill: none; stroke: #262626; stroke-linejoin: miter; stroke-linecap: square"/>
   </g>
   <g id="patch_10">
    <path d="M 38.312875 20.0715 
L 395.432875 20.0715 
" style="fill: none; stroke: #262626; stroke-linejoin: miter; stroke-linecap: square"/>
   </g>
  </g>
 </g>
 <defs>
  <clipPath id="p2e36551a42">
   <rect x="38.312875" y="20.0715" width="357.12" height="266.112"/>
  </clipPath>
 </defs>
</svg>