<?xml version="1.0" encoding="utf-8" standalone="no"?>
<!DOCTYPE svg PUBLIC "-//W3C//DTD SVG 1.1//EN"
  "http://www.w3.org/Graphics/SVG/1.1/DTD/svg11.dtd">
<svg xmlns:xlink="http://www.w3.org/1999/xlink" width="411.005934pt" height="309.639375pt" viewBox="0 0 411.005934 309.639375" xmlns="http://www.w3.org/2000/svg" version="1.1">
 <metadata>
  <rdf:RDF xmlns:dc="http://purl.org/dc/elements/1.1/" xmlns:cc="http://creativecommons.org/ns#" xmlns:rdf="http://www.w3.org/1999/02/22-rdf-syntax-ns#">
   <cc:Work>
    <dc:type rdf:resource="http://purl.org/dc/dcmitype/StillImage"/>
    <dc:date>2023-10-15T00:05:28.612565</dc:date>
    <dc:format>image/svg+xml</dc:format>
    <dc:creator>
     <cc:Agent>
      <dc:title>Matplotlib v3.7.1, https://matplotlib.org/</dc:title>
     </cc:Agent>
    </dc:creator>
   </cc:Work>
  </rdf:RDF>
 </metadata>
 <defs>
  <style type="text/css">*{stroke-linejoin: round; stroke-linecap: butt}</style>
 </defs>
 <g id="figure_1">
  <g id="patch_1">
   <path d="M 0 309.639375 
L 411.005934 309.639375 
L 411.005934 0 
L 0 0 
z
" style="fill: #ffffff"/>
  </g>
  <g id="axes_1">
   <g id="patch_2">
    <path d="M 45.65125 273.312 
L 402.77125 273.312 
L 402.77125 7.2 
L 45.65125 7.2 
z
" style="fill: #ffffff"/>
   </g>
   <g id="matplotlib.axis_1">
    <g id="xtick_1">
     <g id="line2d_1">
      <defs>
       <path id="m78e7067a30" d="M 0 0 
L 0 4.8 
" style="stroke: #262626"/>
      </defs>
      <g>
       <use xlink:href="#m78e7067a30" x="51.349762" y="273.312" style="fill: #262626; stroke: #262626"/>
      </g>
     </g>
     <g id="text_1">
      <!-- −1.5 -->
      <g style="fill: #262626" transform="translate(42.663887 287.910875) scale(0.088 -0.088)">
       <defs>
        <path id="ArialMT-2212" d="M 3381 1997 
L 356 1997 
L 356 2522 
L 3381 2522 
L 3381 1997 
z
" transform="scale(0.015625)"/>
        <path id="ArialMT-31" d="M 2384 0 
L 1822 0 
L 1822 3584 
Q 1619 3391 1289 3197 
Q 959 3003 697 2906 
L 697 3450 
Q 1169 3672 1522 3987 
Q 1875 4303 2022 4600 
L 2384 4600 
L 2384 0 
z
" transform="scale(0.015625)"/>
        <path id="ArialMT-2e" d="M 581 0 
L 581 641 
L 1222 641 
L 1222 0 
L 581 0 
z
" transform="scale(0.015625)"/>
        <path id="ArialMT-35" d="M 266 1200 
L 856 1250 
Q 922 819 1161 601 
Q 1400 384 1738 384 
Q 2144 384 2425 690 
Q 2706 997 2706 1503 
Q 2706 1984 2436 2262 
Q 2166 2541 1728 2541 
Q 1456 2541 1237 2417 
Q 1019 2294 894 2097 
L 366 2166 
L 809 4519 
L 3088 4519 
L 3088 3981 
L 1259 3981 
L 1013 2750 
Q 1425 3038 1878 3038 
Q 2478 3038 2890 2622 
Q 3303 2206 3303 1553 
Q 3303 931 2941 478 
Q 2500 -78 1738 -78 
Q 1113 -78 717 272 
Q 322 622 266 1200 
z
" transform="scale(0.015625)"/>
       </defs>
       <use xlink:href="#ArialMT-2212"/>
       <use xlink:href="#ArialMT-31" x="58.398438"/>
       <use xlink:href="#ArialMT-2e" x="114.013672"/>
       <use xlink:href="#ArialMT-35" x="141.796875"/>
      </g>
     </g>
    </g>
    <g id="xtick_2">
     <g id="line2d_2">
      <g>
       <use xlink:href="#m78e7067a30" x="109.073124" y="273.312" style="fill: #262626; stroke: #262626"/>
      </g>
     </g>
     <g id="text_2">
      <!-- −1.0 -->
      <g style="fill: #262626" transform="translate(100.387249 287.910875) scale(0.088 -0.088)">
       <defs>
        <path id="ArialMT-30" d="M 266 2259 
Q 266 3072 433 3567 
Q 600 4063 929 4331 
Q 1259 4600 1759 4600 
Q 2128 4600 2406 4451 
Q 2684 4303 2865 4023 
Q 3047 3744 3150 3342 
Q 3253 2941 3253 2259 
Q 3253 1453 3087 958 
Q 2922 463 2592 192 
Q 2263 -78 1759 -78 
Q 1097 -78 719 397 
Q 266 969 266 2259 
z
M 844 2259 
Q 844 1131 1108 757 
Q 1372 384 1759 384 
Q 2147 384 2411 759 
Q 2675 1134 2675 2259 
Q 2675 3391 2411 3762 
Q 2147 4134 1753 4134 
Q 1366 4134 1134 3806 
Q 844 3388 844 2259 
z
" transform="scale(0.015625)"/>
       </defs>
       <use xlink:href="#ArialMT-2212"/>
       <use xlink:href="#ArialMT-31" x="58.398438"/>
       <use xlink:href="#ArialMT-2e" x="114.013672"/>
       <use xlink:href="#ArialMT-30" x="141.796875"/>
      </g>
     </g>
    </g>
    <g id="xtick_3">
     <g id="line2d_3">
      <g>
       <use xlink:href="#m78e7067a30" x="166.796486" y="273.312" style="fill: #262626; stroke: #262626"/>
      </g>
     </g>
     <g id="text_3">
      <!-- −0.5 -->
      <g style="fill: #262626" transform="translate(158.110611 287.910875) scale(0.088 -0.088)">
       <use xlink:href="#ArialMT-2212"/>
       <use xlink:href="#ArialMT-30" x="58.398438"/>
       <use xlink:href="#ArialMT-2e" x="114.013672"/>
       <use xlink:href="#ArialMT-35" x="141.796875"/>
      </g>
     </g>
    </g>
    <g id="xtick_4">
     <g id="line2d_4">
      <g>
       <use xlink:href="#m78e7067a30" x="224.519848" y="273.312" style="fill: #262626; stroke: #262626"/>
      </g>
     </g>
     <g id="text_4">
      <!-- 0.0 -->
      <g style="fill: #262626" transform="translate(218.403848 287.910875) scale(0.088 -0.088)">
       <use xlink:href="#ArialMT-30"/>
       <use xlink:href="#ArialMT-2e" x="55.615234"/>
       <use xlink:href="#ArialMT-30" x="83.398438"/>
      </g>
     </g>
    </g>
    <g id="xtick_5">
     <g id="line2d_5">
      <g>
       <use xlink:href="#m78e7067a30" x="282.24321" y="273.312" style="fill: #262626; stroke: #262626"/>
      </g>
     </g>
     <g id="text_5">
      <!-- 0.5 -->
      <g style="fill: #262626" transform="translate(276.12721 287.910875) scale(0.088 -0.088)">
       <use xlink:href="#ArialMT-30"/>
       <use xlink:href="#ArialMT-2e" x="55.615234"/>
       <use xlink:href="#ArialMT-35" x="83.398438"/>
      </g>
     </g>
    </g>
    <g id="xtick_6">
     <g id="line2d_6">
      <g>
       <use xlink:href="#m78e7067a30" x="339.966572" y="273.312" style="fill: #262626; stroke: #262626"/>
      </g>
     </g>
     <g id="text_6">
      <!-- 1.0 -->
      <g style="fill: #262626" transform="translate(333.850572 287.910875) scale(0.088 -0.088)">
       <use xlink:href="#ArialMT-31"/>
       <use xlink:href="#ArialMT-2e" x="55.615234"/>
       <use xlink:href="#ArialMT-30" x="83.398438"/>
      </g>
     </g>
    </g>
    <g id="xtick_7">
     <g id="line2d_7">
      <g>
       <use xlink:href="#m78e7067a30" x="397.689934" y="273.312" style="fill: #262626; stroke: #262626"/>
      </g>
     </g>
     <g id="text_7">
      <!-- 1.5 -->
      <g style="fill: #262626" transform="translate(391.573934 287.910875) scale(0.088 -0.088)">
       <use xlink:href="#ArialMT-31"/>
       <use xlink:href="#ArialMT-2e" x="55.615234"/>
       <use xlink:href="#ArialMT-35" x="83.398438"/>
      </g>
     </g>
    </g>
    <g id="text_8">
     <!-- Prediction -->
     <g style="fill: #262626" transform="translate(202.86775 300.531375) scale(0.096 -0.096)">
      <defs>
       <path id="ArialMT-50" d="M 494 0 
L 494 4581 
L 2222 4581 
Q 2678 4581 2919 4538 
Q 3256 4481 3484 4323 
Q 3713 4166 3852 3881 
Q 3991 3597 3991 3256 
Q 3991 2672 3619 2267 
Q 3247 1863 2275 1863 
L 1100 1863 
L 1100 0 
L 494 0 
z
M 1100 2403 
L 2284 2403 
Q 2872 2403 3119 2622 
Q 3366 2841 3366 3238 
Q 3366 3525 3220 3729 
Q 3075 3934 2838 4000 
Q 2684 4041 2272 4041 
L 1100 4041 
L 1100 2403 
z
" transform="scale(0.015625)"/>
       <path id="ArialMT-72" d="M 416 0 
L 416 3319 
L 922 3319 
L 922 2816 
Q 1116 3169 1280 3281 
Q 1444 3394 1641 3394 
Q 1925 3394 2219 3213 
L 2025 2691 
Q 1819 2813 1613 2813 
Q 1428 2813 1281 2702 
Q 1134 2591 1072 2394 
Q 978 2094 978 1738 
L 978 0 
L 416 0 
z
" transform="scale(0.015625)"/>
       <path id="ArialMT-65" d="M 2694 1069 
L 3275 997 
Q 3138 488 2766 206 
Q 2394 -75 1816 -75 
Q 1088 -75 661 373 
Q 234 822 234 1631 
Q 234 2469 665 2931 
Q 1097 3394 1784 3394 
Q 2450 3394 2872 2941 
Q 3294 2488 3294 1666 
Q 3294 1616 3291 1516 
L 816 1516 
Q 847 969 1125 678 
Q 1403 388 1819 388 
Q 2128 388 2347 550 
Q 2566 713 2694 1069 
z
M 847 1978 
L 2700 1978 
Q 2663 2397 2488 2606 
Q 2219 2931 1791 2931 
Q 1403 2931 1139 2672 
Q 875 2413 847 1978 
z
" transform="scale(0.015625)"/>
       <path id="ArialMT-64" d="M 2575 0 
L 2575 419 
Q 2259 -75 1647 -75 
Q 1250 -75 917 144 
Q 584 363 401 755 
Q 219 1147 219 1656 
Q 219 2153 384 2558 
Q 550 2963 881 3178 
Q 1213 3394 1622 3394 
Q 1922 3394 2156 3267 
Q 2391 3141 2538 2938 
L 2538 4581 
L 3097 4581 
L 3097 0 
L 2575 0 
z
M 797 1656 
Q 797 1019 1065 703 
Q 1334 388 1700 388 
Q 2069 388 2326 689 
Q 2584 991 2584 1609 
Q 2584 2291 2321 2609 
Q 2059 2928 1675 2928 
Q 1300 2928 1048 2622 
Q 797 2316 797 1656 
z
" transform="scale(0.015625)"/>
       <path id="ArialMT-69" d="M 425 3934 
L 425 4581 
L 988 4581 
L 988 3934 
L 425 3934 
z
M 425 0 
L 425 3319 
L 988 3319 
L 988 0 
L 425 0 
z
" transform="scale(0.015625)"/>
       <path id="ArialMT-63" d="M 2588 1216 
L 3141 1144 
Q 3050 572 2676 248 
Q 2303 -75 1759 -75 
Q 1078 -75 664 370 
Q 250 816 250 1647 
Q 250 2184 428 2587 
Q 606 2991 970 3192 
Q 1334 3394 1763 3394 
Q 2303 3394 2647 3120 
Q 2991 2847 3088 2344 
L 2541 2259 
Q 2463 2594 2264 2762 
Q 2066 2931 1784 2931 
Q 1359 2931 1093 2626 
Q 828 2322 828 1663 
Q 828 994 1084 691 
Q 1341 388 1753 388 
Q 2084 388 2306 591 
Q 2528 794 2588 1216 
z
" transform="scale(0.015625)"/>
       <path id="ArialMT-74" d="M 1650 503 
L 1731 6 
Q 1494 -44 1306 -44 
Q 1000 -44 831 53 
Q 663 150 594 308 
Q 525 466 525 972 
L 525 2881 
L 113 2881 
L 113 3319 
L 525 3319 
L 525 4141 
L 1084 4478 
L 1084 3319 
L 1650 3319 
L 1650 2881 
L 1084 2881 
L 1084 941 
Q 1084 700 1114 631 
Q 1144 563 1211 522 
Q 1278 481 1403 481 
Q 1497 481 1650 503 
z
" transform="scale(0.015625)"/>
       <path id="ArialMT-6f" d="M 213 1659 
Q 213 2581 725 3025 
Q 1153 3394 1769 3394 
Q 2453 3394 2887 2945 
Q 3322 2497 3322 1706 
Q 3322 1066 3130 698 
Q 2938 331 2570 128 
Q 2203 -75 1769 -75 
Q 1072 -75 642 372 
Q 213 819 213 1659 
z
M 791 1659 
Q 791 1022 1069 705 
Q 1347 388 1769 388 
Q 2188 388 2466 706 
Q 2744 1025 2744 1678 
Q 2744 2294 2464 2611 
Q 2184 2928 1769 2928 
Q 1347 2928 1069 2612 
Q 791 2297 791 1659 
z
" transform="scale(0.015625)"/>
       <path id="ArialMT-6e" d="M 422 0 
L 422 3319 
L 928 3319 
L 928 2847 
Q 1294 3394 1984 3394 
Q 2284 3394 2536 3286 
Q 2788 3178 2913 3003 
Q 3038 2828 3088 2588 
Q 3119 2431 3119 2041 
L 3119 0 
L 2556 0 
L 2556 2019 
Q 2556 2363 2490 2533 
Q 2425 2703 2258 2804 
Q 2091 2906 1866 2906 
Q 1506 2906 1245 2678 
Q 984 2450 984 1813 
L 984 0 
L 422 0 
z
" transform="scale(0.015625)"/>
      </defs>
      <use xlink:href="#ArialMT-50"/>
      <use xlink:href="#ArialMT-72" x="66.699219"/>
      <use xlink:href="#ArialMT-65" x="100"/>
      <use xlink:href="#ArialMT-64" x="155.615234"/>
      <use xlink:href="#ArialMT-69" x="211.230469"/>
      <use xlink:href="#ArialMT-63" x="233.447266"/>
      <use xlink:href="#ArialMT-74" x="283.447266"/>
      <use xlink:href="#ArialMT-69" x="311.230469"/>
      <use xlink:href="#ArialMT-6f" x="333.447266"/>
      <use xlink:href="#ArialMT-6e" x="389.0625"/>
     </g>
    </g>
   </g>
   <g id="matplotlib.axis_2">
    <g id="ytick_1">
     <g id="line2d_8">
      <defs>
       <path id="m93ae50ac3a" d="M 0 0 
L -4.8 0 
" style="stroke: #262626"/>
      </defs>
      <g>
       <use xlink:href="#m93ae50ac3a" x="45.65125" y="268.986973" style="fill: #262626; stroke: #262626"/>
      </g>
     </g>
     <g id="text_9">
      <!-- −1.5 -->
      <g style="fill: #262626" transform="translate(19.9795 272.13641) scale(0.088 -0.088)">
       <use xlink:href="#ArialMT-2212"/>
       <use xlink:href="#ArialMT-31" x="58.398438"/>
       <use xlink:href="#ArialMT-2e" x="114.013672"/>
       <use xlink:href="#ArialMT-35" x="141.796875"/>
      </g>
     </g>
    </g>
    <g id="ytick_2">
     <g id="line2d_9">
      <g>
       <use xlink:href="#m93ae50ac3a" x="45.65125" y="226.405094" style="fill: #262626; stroke: #262626"/>
      </g>
     </g>
     <g id="text_10">
      <!-- −1.0 -->
      <g style="fill: #262626" transform="translate(19.9795 229.554532) scale(0.088 -0.088)">
       <use xlink:href="#ArialMT-2212"/>
       <use xlink:href="#ArialMT-31" x="58.398438"/>
       <use xlink:href="#ArialMT-2e" x="114.013672"/>
       <use xlink:href="#ArialMT-30" x="141.796875"/>
      </g>
     </g>
    </g>
    <g id="ytick_3">
     <g id="line2d_10">
      <g>
       <use xlink:href="#m93ae50ac3a" x="45.65125" y="183.823215" style="fill: #262626; stroke: #262626"/>
      </g>
     </g>
     <g id="text_11">
      <!-- −0.5 -->
      <g style="fill: #262626" transform="translate(19.9795 186.972653) scale(0.088 -0.088)">
       <use xlink:href="#ArialMT-2212"/>
       <use xlink:href="#ArialMT-30" x="58.398438"/>
       <use xlink:href="#ArialMT-2e" x="114.013672"/>
       <use xlink:href="#ArialMT-35" x="141.796875"/>
      </g>
     </g>
    </g>
    <g id="ytick_4">
     <g id="line2d_11">
      <g>
       <use xlink:href="#m93ae50ac3a" x="45.65125" y="141.241337" style="fill: #262626; stroke: #262626"/>
      </g>
     </g>
     <g id="text_12">
      <!-- 0.0 -->
      <g style="fill: #262626" transform="translate(25.11925 144.390774) scale(0.088 -0.088)">
       <use xlink:href="#ArialMT-30"/>
       <use xlink:href="#ArialMT-2e" x="55.615234"/>
       <use xlink:href="#ArialMT-30" x="83.398438"/>
      </g>
     </g>
    </g>
    <g id="ytick_5">
     <g id="line2d_12">
      <g>
       <use xlink:href="#m93ae50ac3a" x="45.65125" y="98.659458" style="fill: #262626; stroke: #262626"/>
      </g>
     </g>
     <g id="text_13">
      <!-- 0.5 -->
      <g style="fill: #262626" transform="translate(25.11925 101.808895) scale(0.088 -0.088)">
       <use xlink:href="#ArialMT-30"/>
       <use xlink:href="#ArialMT-2e" x="55.615234"/>
       <use xlink:href="#ArialMT-35" x="83.398438"/>
      </g>
     </g>
    </g>
    <g id="ytick_6">
     <g id="line2d_13">
      <g>
       <use xlink:href="#m93ae50ac3a" x="45.65125" y="56.077579" style="fill: #262626; stroke: #262626"/>
      </g>
     </g>
     <g id="text_14">
      <!-- 1.0 -->
      <g style="fill: #262626" transform="translate(25.11925 59.227017) scale(0.088 -0.088)">
       <use xlink:href="#ArialMT-31"/>
       <use xlink:href="#ArialMT-2e" x="55.615234"/>
       <use xlink:href="#ArialMT-30" x="83.398438"/>
      </g>
     </g>
    </g>
    <g id="ytick_7">
     <g id="line2d_14">
      <g>
       <use xlink:href="#m93ae50ac3a" x="45.65125" y="13.4957" style="fill: #262626; stroke: #262626"/>
      </g>
     </g>
     <g id="text_15">
      <!-- 1.5 -->
      <g style="fill: #262626" transform="translate(25.11925 16.645138) scale(0.088 -0.088)">
       <use xlink:href="#ArialMT-31"/>
       <use xlink:href="#ArialMT-2e" x="55.615234"/>
       <use xlink:href="#ArialMT-35" x="83.398438"/>
      </g>
     </g>
    </g>
    <g id="text_16">
     <!-- Observation -->
     <g style="fill: #262626" transform="translate(14.0715 166.134) rotate(-90) scale(0.096 -0.096)">
      <defs>
       <path id="ArialMT-4f" d="M 309 2231 
Q 309 3372 921 4017 
Q 1534 4663 2503 4663 
Q 3138 4663 3647 4359 
Q 4156 4056 4423 3514 
Q 4691 2972 4691 2284 
Q 4691 1588 4409 1038 
Q 4128 488 3612 205 
Q 3097 -78 2500 -78 
Q 1853 -78 1343 234 
Q 834 547 571 1087 
Q 309 1628 309 2231 
z
M 934 2222 
Q 934 1394 1379 917 
Q 1825 441 2497 441 
Q 3181 441 3623 922 
Q 4066 1403 4066 2288 
Q 4066 2847 3877 3264 
Q 3688 3681 3323 3911 
Q 2959 4141 2506 4141 
Q 1863 4141 1398 3698 
Q 934 3256 934 2222 
z
" transform="scale(0.015625)"/>
       <path id="ArialMT-62" d="M 941 0 
L 419 0 
L 419 4581 
L 981 4581 
L 981 2947 
Q 1338 3394 1891 3394 
Q 2197 3394 2470 3270 
Q 2744 3147 2920 2923 
Q 3097 2700 3197 2384 
Q 3297 2069 3297 1709 
Q 3297 856 2875 390 
Q 2453 -75 1863 -75 
Q 1275 -75 941 416 
L 941 0 
z
M 934 1684 
Q 934 1088 1097 822 
Q 1363 388 1816 388 
Q 2184 388 2453 708 
Q 2722 1028 2722 1663 
Q 2722 2313 2464 2622 
Q 2206 2931 1841 2931 
Q 1472 2931 1203 2611 
Q 934 2291 934 1684 
z
" transform="scale(0.015625)"/>
       <path id="ArialMT-73" d="M 197 991 
L 753 1078 
Q 800 744 1014 566 
Q 1228 388 1613 388 
Q 2000 388 2187 545 
Q 2375 703 2375 916 
Q 2375 1106 2209 1216 
Q 2094 1291 1634 1406 
Q 1016 1563 777 1677 
Q 538 1791 414 1992 
Q 291 2194 291 2438 
Q 291 2659 392 2848 
Q 494 3038 669 3163 
Q 800 3259 1026 3326 
Q 1253 3394 1513 3394 
Q 1903 3394 2198 3281 
Q 2494 3169 2634 2976 
Q 2775 2784 2828 2463 
L 2278 2388 
Q 2241 2644 2061 2787 
Q 1881 2931 1553 2931 
Q 1166 2931 1000 2803 
Q 834 2675 834 2503 
Q 834 2394 903 2306 
Q 972 2216 1119 2156 
Q 1203 2125 1616 2013 
Q 2213 1853 2448 1751 
Q 2684 1650 2818 1456 
Q 2953 1263 2953 975 
Q 2953 694 2789 445 
Q 2625 197 2315 61 
Q 2006 -75 1616 -75 
Q 969 -75 630 194 
Q 291 463 197 991 
z
" transform="scale(0.015625)"/>
       <path id="ArialMT-76" d="M 1344 0 
L 81 3319 
L 675 3319 
L 1388 1331 
Q 1503 1009 1600 663 
Q 1675 925 1809 1294 
L 2547 3319 
L 3125 3319 
L 1869 0 
L 1344 0 
z
" transform="scale(0.015625)"/>
       <path id="ArialMT-61" d="M 2588 409 
Q 2275 144 1986 34 
Q 1697 -75 1366 -75 
Q 819 -75 525 192 
Q 231 459 231 875 
Q 231 1119 342 1320 
Q 453 1522 633 1644 
Q 813 1766 1038 1828 
Q 1203 1872 1538 1913 
Q 2219 1994 2541 2106 
Q 2544 2222 2544 2253 
Q 2544 2597 2384 2738 
Q 2169 2928 1744 2928 
Q 1347 2928 1158 2789 
Q 969 2650 878 2297 
L 328 2372 
Q 403 2725 575 2942 
Q 747 3159 1072 3276 
Q 1397 3394 1825 3394 
Q 2250 3394 2515 3294 
Q 2781 3194 2906 3042 
Q 3031 2891 3081 2659 
Q 3109 2516 3109 2141 
L 3109 1391 
Q 3109 606 3145 398 
Q 3181 191 3288 0 
L 2700 0 
Q 2613 175 2588 409 
z
M 2541 1666 
Q 2234 1541 1622 1453 
Q 1275 1403 1131 1340 
Q 988 1278 909 1158 
Q 831 1038 831 891 
Q 831 666 1001 516 
Q 1172 366 1500 366 
Q 1825 366 2078 508 
Q 2331 650 2450 897 
Q 2541 1088 2541 1459 
L 2541 1666 
z
" transform="scale(0.015625)"/>
      </defs>
      <use xlink:href="#ArialMT-4f"/>
      <use xlink:href="#ArialMT-62" x="77.783203"/>
      <use xlink:href="#ArialMT-73" x="133.398438"/>
      <use xlink:href="#ArialMT-65" x="183.398438"/>
      <use xlink:href="#ArialMT-72" x="239.013672"/>
      <use xlink:href="#ArialMT-76" x="272.314453"/>
      <use xlink:href="#ArialMT-61" x="322.314453"/>
      <use xlink:href="#ArialMT-74" x="377.929688"/>
      <use xlink:href="#ArialMT-69" x="405.712891"/>
      <use xlink:href="#ArialMT-6f" x="427.929688"/>
      <use xlink:href="#ArialMT-6e" x="483.544922"/>
     </g>
    </g>
   </g>
   <g id="line2d_15">
    <path d="M 61.883977 261.216 
L 68.50958 256.328367 
L 75.135183 251.440734 
L 81.760786 246.5531 
L 88.386389 241.665467 
L 95.011992 236.777834 
L 101.637595 231.890201 
L 108.263198 227.002567 
L 114.888801 222.114934 
L 121.514404 217.227301 
L 128.140007 212.339668 
L 134.76561 207.452034 
L 141.391213 202.564401 
L 148.016816 197.676768 
L 154.642419 192.789135 
L 161.268022 187.901502 
L 167.893625 183.013868 
L 174.519228 178.126235 
L 181.144831 173.238602 
L 187.770434 168.350969 
L 194.396037 163.463335 
L 201.02164 158.575702 
L 207.647243 153.688069 
L 214.272846 148.800436 
L 220.898449 143.912802 
L 227.524051 139.025169 
L 234.149654 134.137536 
L 240.775257 129.249903 
L 247.40086 124.362269 
L 254.026463 119.474636 
L 260.652066 114.587003 
L 267.277669 109.69937 
L 273.903272 104.811737 
L 280.528875 99.924103 
L 287.154478 95.03647 
L 293.780081 90.148837 
L 300.405684 85.261204 
L 307.031287 80.37357 
L 313.65689 75.485937 
L 320.282493 70.598304 
L 326.908096 65.710671 
L 333.533699 60.823037 
L 340.159302 55.935404 
L 346.784905 51.047771 
L 353.410508 46.160138 
L 360.036111 41.272505 
L 366.661714 36.384871 
L 373.287317 31.497238 
L 379.91292 26.609605 
L 386.538523 21.721972 
" clip-path="url(#pc12f7a2501)" style="fill: none; stroke: #ff0000; stroke-width: 2; stroke-linecap: round"/>
   </g>
   <g id="line2d_16">
    <defs>
     <path id="mcb9a61a5cf" d="M 0 2.4 
C 0.636487 2.4 1.246992 2.147121 1.697056 1.697056 
C 2.147121 1.246992 2.4 0.636487 2.4 0 
C 2.4 -0.636487 2.147121 -1.246992 1.697056 -1.697056 
C 1.246992 -2.147121 0.636487 -2.4 0 -2.4 
C -0.636487 -2.4 -1.246992 -2.147121 -1.697056 -1.697056 
C -2.147121 -1.246992 -2.4 -0.636487 -2.4 0 
C -2.4 0.636487 -2.147121 1.246992 -1.697056 1.697056 
C -1.246992 2.147121 -0.636487 2.4 0 2.4 
z
" style="stroke: #0000ff"/>
    </defs>
    <g clip-path="url(#pc12f7a2501)">
     <use xlink:href="#mcb9a61a5cf" x="61.883977" y="258.225848" style="fill: #0000ff; stroke: #0000ff"/>
     <use xlink:href="#mcb9a61a5cf" x="226.324403" y="148.46629" style="fill: #0000ff; stroke: #0000ff"/>
     <use xlink:href="#mcb9a61a5cf" x="373.103769" y="28.950604" style="fill: #0000ff; stroke: #0000ff"/>
     <use xlink:href="#mcb9a61a5cf" x="348.200146" y="48.440442" style="fill: #0000ff; stroke: #0000ff"/>
     <use xlink:href="#mcb9a61a5cf" x="63.512718" y="256.563549" style="fill: #0000ff; stroke: #0000ff"/>
     <use xlink:href="#mcb9a61a5cf" x="326.863179" y="73.844448" style="fill: #0000ff; stroke: #0000ff"/>
     <use xlink:href="#mcb9a61a5cf" x="230.109825" y="145.857958" style="fill: #0000ff; stroke: #0000ff"/>
     <use xlink:href="#mcb9a61a5cf" x="129.056124" y="136.420913" style="fill: #0000ff; stroke: #0000ff"/>
     <use xlink:href="#mcb9a61a5cf" x="279.128885" y="100.945271" style="fill: #0000ff; stroke: #0000ff"/>
     <use xlink:href="#mcb9a61a5cf" x="217.293523" y="146.391239" style="fill: #0000ff; stroke: #0000ff"/>
     <use xlink:href="#mcb9a61a5cf" x="62.458634" y="257.513481" style="fill: #0000ff; stroke: #0000ff"/>
     <use xlink:href="#mcb9a61a5cf" x="380.06875" y="27.316163" style="fill: #0000ff; stroke: #0000ff"/>
     <use xlink:href="#mcb9a61a5cf" x="206.017669" y="130.648233" style="fill: #0000ff; stroke: #0000ff"/>
     <use xlink:href="#mcb9a61a5cf" x="63.180086" y="256.850657" style="fill: #0000ff; stroke: #0000ff"/>
     <use xlink:href="#mcb9a61a5cf" x="251.448232" y="119.460812" style="fill: #0000ff; stroke: #0000ff"/>
     <use xlink:href="#mcb9a61a5cf" x="386.538523" y="19.296" style="fill: #0000ff; stroke: #0000ff"/>
     <use xlink:href="#mcb9a61a5cf" x="76.898942" y="246.704234" style="fill: #0000ff; stroke: #0000ff"/>
     <use xlink:href="#mcb9a61a5cf" x="261.462146" y="113.987011" style="fill: #0000ff; stroke: #0000ff"/>
     <use xlink:href="#mcb9a61a5cf" x="75.73667" y="250.101157" style="fill: #0000ff; stroke: #0000ff"/>
     <use xlink:href="#mcb9a61a5cf" x="336.200094" y="66.19123" style="fill: #0000ff; stroke: #0000ff"/>
     <use xlink:href="#mcb9a61a5cf" x="215.213022" y="148.241721" style="fill: #0000ff; stroke: #0000ff"/>
     <use xlink:href="#mcb9a61a5cf" x="118.543019" y="219.21937" style="fill: #0000ff; stroke: #0000ff"/>
     <use xlink:href="#mcb9a61a5cf" x="248.020412" y="123.909961" style="fill: #0000ff; stroke: #0000ff"/>
     <use xlink:href="#mcb9a61a5cf" x="232.90074" y="133.686068" style="fill: #0000ff; stroke: #0000ff"/>
     <use xlink:href="#mcb9a61a5cf" x="356.383873" y="42.031329" style="fill: #0000ff; stroke: #0000ff"/>
     <use xlink:href="#mcb9a61a5cf" x="356.086348" y="42.26134" style="fill: #0000ff; stroke: #0000ff"/>
     <use xlink:href="#mcb9a61a5cf" x="179.41112" y="174.261931" style="fill: #0000ff; stroke: #0000ff"/>
     <use xlink:href="#mcb9a61a5cf" x="243.254443" y="125.564544" style="fill: #0000ff; stroke: #0000ff"/>
     <use xlink:href="#mcb9a61a5cf" x="126.913996" y="213.832553" style="fill: #0000ff; stroke: #0000ff"/>
     <use xlink:href="#mcb9a61a5cf" x="230.435151" y="135.565789" style="fill: #0000ff; stroke: #0000ff"/>
     <use xlink:href="#mcb9a61a5cf" x="189.931795" y="132.026145" style="fill: #0000ff; stroke: #0000ff"/>
     <use xlink:href="#mcb9a61a5cf" x="212.748563" y="149.98605" style="fill: #0000ff; stroke: #0000ff"/>
     <use xlink:href="#mcb9a61a5cf" x="175.065278" y="133.253986" style="fill: #0000ff; stroke: #0000ff"/>
     <use xlink:href="#mcb9a61a5cf" x="378.303554" y="24.967649" style="fill: #0000ff; stroke: #0000ff"/>
     <use xlink:href="#mcb9a61a5cf" x="365.473814" y="40.976951" style="fill: #0000ff; stroke: #0000ff"/>
     <use xlink:href="#mcb9a61a5cf" x="283.504662" y="107.557918" style="fill: #0000ff; stroke: #0000ff"/>
     <use xlink:href="#mcb9a61a5cf" x="169.933816" y="133.656819" style="fill: #0000ff; stroke: #0000ff"/>
     <use xlink:href="#mcb9a61a5cf" x="327.194114" y="73.575615" style="fill: #0000ff; stroke: #0000ff"/>
     <use xlink:href="#mcb9a61a5cf" x="68.432897" y="254.866489" style="fill: #0000ff; stroke: #0000ff"/>
     <use xlink:href="#mcb9a61a5cf" x="229.898988" y="146.003502" style="fill: #0000ff; stroke: #0000ff"/>
     <use xlink:href="#mcb9a61a5cf" x="230.017519" y="129.545387" style="fill: #0000ff; stroke: #0000ff"/>
     <use xlink:href="#mcb9a61a5cf" x="375.235516" y="31.980054" style="fill: #0000ff; stroke: #0000ff"/>
     <use xlink:href="#mcb9a61a5cf" x="333.355581" y="68.539419" style="fill: #0000ff; stroke: #0000ff"/>
     <use xlink:href="#mcb9a61a5cf" x="118.900314" y="136.987815" style="fill: #0000ff; stroke: #0000ff"/>
     <use xlink:href="#mcb9a61a5cf" x="381.080936" y="26.311653" style="fill: #0000ff; stroke: #0000ff"/>
     <use xlink:href="#mcb9a61a5cf" x="232.483943" y="133.93882" style="fill: #0000ff; stroke: #0000ff"/>
     <use xlink:href="#mcb9a61a5cf" x="259.575041" y="115.38137" style="fill: #0000ff; stroke: #0000ff"/>
     <use xlink:href="#mcb9a61a5cf" x="328.462016" y="75.859642" style="fill: #0000ff; stroke: #0000ff"/>
     <use xlink:href="#mcb9a61a5cf" x="281.867121" y="99.046383" style="fill: #0000ff; stroke: #0000ff"/>
     <use xlink:href="#mcb9a61a5cf" x="258.078837" y="116.487241" style="fill: #0000ff; stroke: #0000ff"/>
     <use xlink:href="#mcb9a61a5cf" x="102.92468" y="230.89339" style="fill: #0000ff; stroke: #0000ff"/>
     <use xlink:href="#mcb9a61a5cf" x="384.118145" y="23.187665" style="fill: #0000ff; stroke: #0000ff"/>
     <use xlink:href="#mcb9a61a5cf" x="185.200553" y="176.094667" style="fill: #0000ff; stroke: #0000ff"/>
     <use xlink:href="#mcb9a61a5cf" x="203.039306" y="157.04215" style="fill: #0000ff; stroke: #0000ff"/>
     <use xlink:href="#mcb9a61a5cf" x="67.844691" y="253.172028" style="fill: #0000ff; stroke: #0000ff"/>
     <use xlink:href="#mcb9a61a5cf" x="183.044849" y="132.604989" style="fill: #0000ff; stroke: #0000ff"/>
     <use xlink:href="#mcb9a61a5cf" x="141.141975" y="204.689342" style="fill: #0000ff; stroke: #0000ff"/>
     <use xlink:href="#mcb9a61a5cf" x="313.897512" y="81.945668" style="fill: #0000ff; stroke: #0000ff"/>
     <use xlink:href="#mcb9a61a5cf" x="233.151358" y="130.374384" style="fill: #0000ff; stroke: #0000ff"/>
     <use xlink:href="#mcb9a61a5cf" x="232.256777" y="129.967561" style="fill: #0000ff; stroke: #0000ff"/>
     <use xlink:href="#mcb9a61a5cf" x="319.749707" y="70.438307" style="fill: #0000ff; stroke: #0000ff"/>
     <use xlink:href="#mcb9a61a5cf" x="358.522346" y="47.164337" style="fill: #0000ff; stroke: #0000ff"/>
     <use xlink:href="#mcb9a61a5cf" x="173.957053" y="183.463661" style="fill: #0000ff; stroke: #0000ff"/>
     <use xlink:href="#mcb9a61a5cf" x="228.096741" y="129.419762" style="fill: #0000ff; stroke: #0000ff"/>
     <use xlink:href="#mcb9a61a5cf" x="167.541895" y="183.003721" style="fill: #0000ff; stroke: #0000ff"/>
     <use xlink:href="#mcb9a61a5cf" x="224.500353" y="140.379771" style="fill: #0000ff; stroke: #0000ff"/>
     <use xlink:href="#mcb9a61a5cf" x="94.753749" y="234.686416" style="fill: #0000ff; stroke: #0000ff"/>
     <use xlink:href="#mcb9a61a5cf" x="287.765234" y="104.362295" style="fill: #0000ff; stroke: #0000ff"/>
     <use xlink:href="#mcb9a61a5cf" x="118.092931" y="137.031024" style="fill: #0000ff; stroke: #0000ff"/>
     <use xlink:href="#mcb9a61a5cf" x="88.241569" y="241.44952" style="fill: #0000ff; stroke: #0000ff"/>
     <use xlink:href="#mcb9a61a5cf" x="119.528205" y="218.584647" style="fill: #0000ff; stroke: #0000ff"/>
     <use xlink:href="#mcb9a61a5cf" x="378.303084" y="29.041244" style="fill: #0000ff; stroke: #0000ff"/>
     <use xlink:href="#mcb9a61a5cf" x="237.324774" y="130.132597" style="fill: #0000ff; stroke: #0000ff"/>
     <use xlink:href="#mcb9a61a5cf" x="384.387897" y="22.897228" style="fill: #0000ff; stroke: #0000ff"/>
     <use xlink:href="#mcb9a61a5cf" x="354.75808" y="43.304835" style="fill: #0000ff; stroke: #0000ff"/>
     <use xlink:href="#mcb9a61a5cf" x="231.499363" y="135.264103" style="fill: #0000ff; stroke: #0000ff"/>
     <use xlink:href="#mcb9a61a5cf" x="310.845887" y="77.213879" style="fill: #0000ff; stroke: #0000ff"/>
     <use xlink:href="#mcb9a61a5cf" x="225.825259" y="140.421355" style="fill: #0000ff; stroke: #0000ff"/>
     <use xlink:href="#mcb9a61a5cf" x="386.359639" y="20.643252" style="fill: #0000ff; stroke: #0000ff"/>
     <use xlink:href="#mcb9a61a5cf" x="121.487325" y="217.323162" style="fill: #0000ff; stroke: #0000ff"/>
     <use xlink:href="#mcb9a61a5cf" x="230.668836" y="136.071455" style="fill: #0000ff; stroke: #0000ff"/>
     <use xlink:href="#mcb9a61a5cf" x="336.605409" y="65.854498" style="fill: #0000ff; stroke: #0000ff"/>
     <use xlink:href="#mcb9a61a5cf" x="274.83618" y="113.989854" style="fill: #0000ff; stroke: #0000ff"/>
     <use xlink:href="#mcb9a61a5cf" x="272.45502" y="104.961688" style="fill: #0000ff; stroke: #0000ff"/>
     <use xlink:href="#mcb9a61a5cf" x="189.195469" y="173.460183" style="fill: #0000ff; stroke: #0000ff"/>
     <use xlink:href="#mcb9a61a5cf" x="229.160794" y="146.513107" style="fill: #0000ff; stroke: #0000ff"/>
     <use xlink:href="#mcb9a61a5cf" x="289.471533" y="103.076201" style="fill: #0000ff; stroke: #0000ff"/>
     <use xlink:href="#mcb9a61a5cf" x="233.628477" y="134.585319" style="fill: #0000ff; stroke: #0000ff"/>
     <use xlink:href="#mcb9a61a5cf" x="186.853767" y="132.286765" style="fill: #0000ff; stroke: #0000ff"/>
     <use xlink:href="#mcb9a61a5cf" x="381.028217" y="22.935888" style="fill: #0000ff; stroke: #0000ff"/>
     <use xlink:href="#mcb9a61a5cf" x="285.781744" y="96.005888" style="fill: #0000ff; stroke: #0000ff"/>
     <use xlink:href="#mcb9a61a5cf" x="352.733626" y="44.896717" style="fill: #0000ff; stroke: #0000ff"/>
     <use xlink:href="#mcb9a61a5cf" x="253.116502" y="120.145322" style="fill: #0000ff; stroke: #0000ff"/>
     <use xlink:href="#mcb9a61a5cf" x="321.983862" y="77.781921" style="fill: #0000ff; stroke: #0000ff"/>
     <use xlink:href="#mcb9a61a5cf" x="291.248246" y="93.53847" style="fill: #0000ff; stroke: #0000ff"/>
     <use xlink:href="#mcb9a61a5cf" x="232.192636" y="134.532243" style="fill: #0000ff; stroke: #0000ff"/>
     <use xlink:href="#mcb9a61a5cf" x="151.595709" y="134.995285" style="fill: #0000ff; stroke: #0000ff"/>
     <use xlink:href="#mcb9a61a5cf" x="364.820417" y="41.56546" style="fill: #0000ff; stroke: #0000ff"/>
     <use xlink:href="#mcb9a61a5cf" x="230.765207" y="129.638057" style="fill: #0000ff; stroke: #0000ff"/>
     <use xlink:href="#mcb9a61a5cf" x="271.686929" y="105.462643" style="fill: #0000ff; stroke: #0000ff"/>
    </g>
   </g>
   <g id="patch_3">
    <path d="M 45.65125 268.986973 
L 45.65125 13.4957 
" style="fill: none; stroke: #262626; stroke-linejoin: miter; stroke-linecap: square"/>
   </g>
   <g id="patch_4">
    <path d="M 51.349762 273.312 
L 397.689934 273.312 
" style="fill: none; stroke: #262626; stroke-linejoin: miter; stroke-linecap: square"/>
   </g>
  </g>
 </g>
 <defs>
  <clipPath id="pc12f7a2501">
   <rect x="45.65125" y="7.2" width="357.12" height="266.112"/>
  </clipPath>
 </defs>
</svg>