<?xml version="1.0" encoding="utf-8" standalone="no"?>
<!DOCTYPE svg PUBLIC "-//W3C//DTD SVG 1.1//EN"
  "http://www.w3.org/Graphics/SVG/1.1/DTD/svg11.dtd">
<svg xmlns:xlink="http://www.w3.org/1999/xlink" width="404.86pt" height="309.756375pt" viewBox="0 0 404.86 309.756375" xmlns="http://www.w3.org/2000/svg" version="1.1">
 <metadata>
  <rdf:RDF xmlns:dc="http://purl.org/dc/elements/1.1/" xmlns:cc="http://creativecommons.org/ns#" xmlns:rdf="http://www.w3.org/1999/02/22-rdf-syntax-ns#">
   <cc:Work>
    <dc:type rdf:resource="http://purl.org/dc/dcmitype/StillImage"/>
    <dc:date>2023-10-26T20:32:49.594812</dc:date>
    <dc:format>image/svg+xml</dc:format>
    <dc:creator>
     <cc:Agent>
      <dc:title>Matplotlib v3.8.0, https://matplotlib.org/</dc:title>
     </cc:Agent>
    </dc:creator>
   </cc:Work>
  </rdf:RDF>
 </metadata>
 <defs>
  <style type="text/css">*{stroke-linejoin: round; stroke-linecap: butt}</style>
 </defs>
 <g id="figure_1">
  <g id="patch_1">
   <path d="M 0 309.756375 
L 404.86 309.756375 
L 404.86 0 
L 0 0 
z
" style="fill: #ffffff"/>
  </g>
  <g id="axes_1">
   <g id="patch_2">
    <path d="M 40.54 273.312 
L 397.66 273.312 
L 397.66 7.2 
L 40.54 7.2 
z
" style="fill: #ffffff"/>
   </g>
   <g id="matplotlib.axis_1">
    <g id="xtick_1">
     <g id="line2d_1">
      <defs>
       <path id="m713b66a9c9" d="M 0 0 
L 0 4.8 
" style="stroke: #262626"/>
      </defs>
      <g>
       <use xlink:href="#m713b66a9c9" x="56.772727" y="273.312" style="fill: #262626; stroke: #262626"/>
      </g>
     </g>
     <g id="text_1">
      <!-- 0 -->
      <g style="fill: #262626" transform="translate(54.325915 287.910875) scale(0.088 -0.088)">
       <defs>
        <path id="ArialMT-30" d="M 266 2259 
Q 266 3072 433 3567 
Q 600 4063 929 4331 
Q 1259 4600 1759 4600 
Q 2128 4600 2406 4451 
Q 2684 4303 2865 4023 
Q 3047 3744 3150 3342 
Q 3253 2941 3253 2259 
Q 3253 1453 3087 958 
Q 2922 463 2592 192 
Q 2263 -78 1759 -78 
Q 1097 -78 719 397 
Q 266 969 266 2259 
z
M 844 2259 
Q 844 1131 1108 757 
Q 1372 384 1759 384 
Q 2147 384 2411 759 
Q 2675 1134 2675 2259 
Q 2675 3391 2411 3762 
Q 2147 4134 1753 4134 
Q 1366 4134 1134 3806 
Q 844 3388 844 2259 
z
" transform="scale(0.015625)"/>
       </defs>
       <use xlink:href="#ArialMT-30"/>
      </g>
     </g>
    </g>
    <g id="xtick_2">
     <g id="line2d_2">
      <g>
       <use xlink:href="#m713b66a9c9" x="121.768632" y="273.312" style="fill: #262626; stroke: #262626"/>
      </g>
     </g>
     <g id="text_2">
      <!-- 200 -->
      <g style="fill: #262626" transform="translate(114.428195 287.910875) scale(0.088 -0.088)">
       <defs>
        <path id="ArialMT-32" d="M 3222 541 
L 3222 0 
L 194 0 
Q 188 203 259 391 
Q 375 700 629 1000 
Q 884 1300 1366 1694 
Q 2113 2306 2375 2664 
Q 2638 3022 2638 3341 
Q 2638 3675 2398 3904 
Q 2159 4134 1775 4134 
Q 1369 4134 1125 3890 
Q 881 3647 878 3216 
L 300 3275 
Q 359 3922 746 4261 
Q 1134 4600 1788 4600 
Q 2447 4600 2831 4234 
Q 3216 3869 3216 3328 
Q 3216 3053 3103 2787 
Q 2991 2522 2730 2228 
Q 2469 1934 1863 1422 
Q 1356 997 1212 845 
Q 1069 694 975 541 
L 3222 541 
z
" transform="scale(0.015625)"/>
       </defs>
       <use xlink:href="#ArialMT-32"/>
       <use xlink:href="#ArialMT-30" x="55.615234"/>
       <use xlink:href="#ArialMT-30" x="111.230469"/>
      </g>
     </g>
    </g>
    <g id="xtick_3">
     <g id="line2d_3">
      <g>
       <use xlink:href="#m713b66a9c9" x="186.764537" y="273.312" style="fill: #262626; stroke: #262626"/>
      </g>
     </g>
     <g id="text_3">
      <!-- 400 -->
      <g style="fill: #262626" transform="translate(179.4241 287.910875) scale(0.088 -0.088)">
       <defs>
        <path id="ArialMT-34" d="M 2069 0 
L 2069 1097 
L 81 1097 
L 81 1613 
L 2172 4581 
L 2631 4581 
L 2631 1613 
L 3250 1613 
L 3250 1097 
L 2631 1097 
L 2631 0 
L 2069 0 
z
M 2069 1613 
L 2069 3678 
L 634 1613 
L 2069 1613 
z
" transform="scale(0.015625)"/>
       </defs>
       <use xlink:href="#ArialMT-34"/>
       <use xlink:href="#ArialMT-30" x="55.615234"/>
       <use xlink:href="#ArialMT-30" x="111.230469"/>
      </g>
     </g>
    </g>
    <g id="xtick_4">
     <g id="line2d_4">
      <g>
       <use xlink:href="#m713b66a9c9" x="251.760442" y="273.312" style="fill: #262626; stroke: #262626"/>
      </g>
     </g>
     <g id="text_4">
      <!-- 600 -->
      <g style="fill: #262626" transform="translate(244.420005 287.910875) scale(0.088 -0.088)">
       <defs>
        <path id="ArialMT-36" d="M 3184 3459 
L 2625 3416 
Q 2550 3747 2413 3897 
Q 2184 4138 1850 4138 
Q 1581 4138 1378 3988 
Q 1113 3794 959 3422 
Q 806 3050 800 2363 
Q 1003 2672 1297 2822 
Q 1591 2972 1913 2972 
Q 2475 2972 2870 2558 
Q 3266 2144 3266 1488 
Q 3266 1056 3080 686 
Q 2894 316 2569 119 
Q 2244 -78 1831 -78 
Q 1128 -78 684 439 
Q 241 956 241 2144 
Q 241 3472 731 4075 
Q 1159 4600 1884 4600 
Q 2425 4600 2770 4297 
Q 3116 3994 3184 3459 
z
M 888 1484 
Q 888 1194 1011 928 
Q 1134 663 1356 523 
Q 1578 384 1822 384 
Q 2178 384 2434 671 
Q 2691 959 2691 1453 
Q 2691 1928 2437 2201 
Q 2184 2475 1800 2475 
Q 1419 2475 1153 2201 
Q 888 1928 888 1484 
z
" transform="scale(0.015625)"/>
       </defs>
       <use xlink:href="#ArialMT-36"/>
       <use xlink:href="#ArialMT-30" x="55.615234"/>
       <use xlink:href="#ArialMT-30" x="111.230469"/>
      </g>
     </g>
    </g>
    <g id="xtick_5">
     <g id="line2d_5">
      <g>
       <use xlink:href="#m713b66a9c9" x="316.756347" y="273.312" style="fill: #262626; stroke: #262626"/>
      </g>
     </g>
     <g id="text_5">
      <!-- 800 -->
      <g style="fill: #262626" transform="translate(309.41591 287.910875) scale(0.088 -0.088)">
       <defs>
        <path id="ArialMT-38" d="M 1131 2484 
Q 781 2613 612 2850 
Q 444 3088 444 3419 
Q 444 3919 803 4259 
Q 1163 4600 1759 4600 
Q 2359 4600 2725 4251 
Q 3091 3903 3091 3403 
Q 3091 3084 2923 2848 
Q 2756 2613 2416 2484 
Q 2838 2347 3058 2040 
Q 3278 1734 3278 1309 
Q 3278 722 2862 322 
Q 2447 -78 1769 -78 
Q 1091 -78 675 323 
Q 259 725 259 1325 
Q 259 1772 486 2073 
Q 713 2375 1131 2484 
z
M 1019 3438 
Q 1019 3113 1228 2906 
Q 1438 2700 1772 2700 
Q 2097 2700 2305 2904 
Q 2513 3109 2513 3406 
Q 2513 3716 2298 3927 
Q 2084 4138 1766 4138 
Q 1444 4138 1231 3931 
Q 1019 3725 1019 3438 
z
M 838 1322 
Q 838 1081 952 856 
Q 1066 631 1291 507 
Q 1516 384 1775 384 
Q 2178 384 2440 643 
Q 2703 903 2703 1303 
Q 2703 1709 2433 1975 
Q 2163 2241 1756 2241 
Q 1359 2241 1098 1978 
Q 838 1716 838 1322 
z
" transform="scale(0.015625)"/>
       </defs>
       <use xlink:href="#ArialMT-38"/>
       <use xlink:href="#ArialMT-30" x="55.615234"/>
       <use xlink:href="#ArialMT-30" x="111.230469"/>
      </g>
     </g>
    </g>
    <g id="xtick_6">
     <g id="line2d_6">
      <g>
       <use xlink:href="#m713b66a9c9" x="381.752252" y="273.312" style="fill: #262626; stroke: #262626"/>
      </g>
     </g>
     <g id="text_6">
      <!-- 1000 -->
      <g style="fill: #262626" transform="translate(371.965002 287.910875) scale(0.088 -0.088)">
       <defs>
        <path id="ArialMT-31" d="M 2384 0 
L 1822 0 
L 1822 3584 
Q 1619 3391 1289 3197 
Q 959 3003 697 2906 
L 697 3450 
Q 1169 3672 1522 3987 
Q 1875 4303 2022 4600 
L 2384 4600 
L 2384 0 
z
" transform="scale(0.015625)"/>
       </defs>
       <use xlink:href="#ArialMT-31"/>
       <use xlink:href="#ArialMT-30" x="55.615234"/>
       <use xlink:href="#ArialMT-30" x="111.230469"/>
       <use xlink:href="#ArialMT-30" x="166.845703"/>
      </g>
     </g>
    </g>
    <g id="text_7">
     <!-- Sample number -->
     <g style="fill: #262626" transform="translate(185.21875 300.648375) scale(0.096 -0.096)">
      <defs>
       <path id="ArialMT-53" d="M 288 1472 
L 859 1522 
Q 900 1178 1048 958 
Q 1197 738 1509 602 
Q 1822 466 2213 466 
Q 2559 466 2825 569 
Q 3091 672 3220 851 
Q 3350 1031 3350 1244 
Q 3350 1459 3225 1620 
Q 3100 1781 2813 1891 
Q 2628 1963 1997 2114 
Q 1366 2266 1113 2400 
Q 784 2572 623 2826 
Q 463 3081 463 3397 
Q 463 3744 659 4045 
Q 856 4347 1234 4503 
Q 1613 4659 2075 4659 
Q 2584 4659 2973 4495 
Q 3363 4331 3572 4012 
Q 3781 3694 3797 3291 
L 3216 3247 
Q 3169 3681 2898 3903 
Q 2628 4125 2100 4125 
Q 1550 4125 1298 3923 
Q 1047 3722 1047 3438 
Q 1047 3191 1225 3031 
Q 1400 2872 2139 2705 
Q 2878 2538 3153 2413 
Q 3553 2228 3743 1945 
Q 3934 1663 3934 1294 
Q 3934 928 3725 604 
Q 3516 281 3123 101 
Q 2731 -78 2241 -78 
Q 1619 -78 1198 103 
Q 778 284 539 648 
Q 300 1013 288 1472 
z
" transform="scale(0.015625)"/>
       <path id="ArialMT-61" d="M 2588 409 
Q 2275 144 1986 34 
Q 1697 -75 1366 -75 
Q 819 -75 525 192 
Q 231 459 231 875 
Q 231 1119 342 1320 
Q 453 1522 633 1644 
Q 813 1766 1038 1828 
Q 1203 1872 1538 1913 
Q 2219 1994 2541 2106 
Q 2544 2222 2544 2253 
Q 2544 2597 2384 2738 
Q 2169 2928 1744 2928 
Q 1347 2928 1158 2789 
Q 969 2650 878 2297 
L 328 2372 
Q 403 2725 575 2942 
Q 747 3159 1072 3276 
Q 1397 3394 1825 3394 
Q 2250 3394 2515 3294 
Q 2781 3194 2906 3042 
Q 3031 2891 3081 2659 
Q 3109 2516 3109 2141 
L 3109 1391 
Q 3109 606 3145 398 
Q 3181 191 3288 0 
L 2700 0 
Q 2613 175 2588 409 
z
M 2541 1666 
Q 2234 1541 1622 1453 
Q 1275 1403 1131 1340 
Q 988 1278 909 1158 
Q 831 1038 831 891 
Q 831 666 1001 516 
Q 1172 366 1500 366 
Q 1825 366 2078 508 
Q 2331 650 2450 897 
Q 2541 1088 2541 1459 
L 2541 1666 
z
" transform="scale(0.015625)"/>
       <path id="ArialMT-6d" d="M 422 0 
L 422 3319 
L 925 3319 
L 925 2853 
Q 1081 3097 1340 3245 
Q 1600 3394 1931 3394 
Q 2300 3394 2536 3241 
Q 2772 3088 2869 2813 
Q 3263 3394 3894 3394 
Q 4388 3394 4653 3120 
Q 4919 2847 4919 2278 
L 4919 0 
L 4359 0 
L 4359 2091 
Q 4359 2428 4304 2576 
Q 4250 2725 4106 2815 
Q 3963 2906 3769 2906 
Q 3419 2906 3187 2673 
Q 2956 2441 2956 1928 
L 2956 0 
L 2394 0 
L 2394 2156 
Q 2394 2531 2256 2718 
Q 2119 2906 1806 2906 
Q 1569 2906 1367 2781 
Q 1166 2656 1075 2415 
Q 984 2175 984 1722 
L 984 0 
L 422 0 
z
" transform="scale(0.015625)"/>
       <path id="ArialMT-70" d="M 422 -1272 
L 422 3319 
L 934 3319 
L 934 2888 
Q 1116 3141 1344 3267 
Q 1572 3394 1897 3394 
Q 2322 3394 2647 3175 
Q 2972 2956 3137 2557 
Q 3303 2159 3303 1684 
Q 3303 1175 3120 767 
Q 2938 359 2589 142 
Q 2241 -75 1856 -75 
Q 1575 -75 1351 44 
Q 1128 163 984 344 
L 984 -1272 
L 422 -1272 
z
M 931 1641 
Q 931 1000 1190 694 
Q 1450 388 1819 388 
Q 2194 388 2461 705 
Q 2728 1022 2728 1688 
Q 2728 2322 2467 2637 
Q 2206 2953 1844 2953 
Q 1484 2953 1207 2617 
Q 931 2281 931 1641 
z
" transform="scale(0.015625)"/>
       <path id="ArialMT-6c" d="M 409 0 
L 409 4581 
L 972 4581 
L 972 0 
L 409 0 
z
" transform="scale(0.015625)"/>
       <path id="ArialMT-65" d="M 2694 1069 
L 3275 997 
Q 3138 488 2766 206 
Q 2394 -75 1816 -75 
Q 1088 -75 661 373 
Q 234 822 234 1631 
Q 234 2469 665 2931 
Q 1097 3394 1784 3394 
Q 2450 3394 2872 2941 
Q 3294 2488 3294 1666 
Q 3294 1616 3291 1516 
L 816 1516 
Q 847 969 1125 678 
Q 1403 388 1819 388 
Q 2128 388 2347 550 
Q 2566 713 2694 1069 
z
M 847 1978 
L 2700 1978 
Q 2663 2397 2488 2606 
Q 2219 2931 1791 2931 
Q 1403 2931 1139 2672 
Q 875 2413 847 1978 
z
" transform="scale(0.015625)"/>
       <path id="ArialMT-20" transform="scale(0.015625)"/>
       <path id="ArialMT-6e" d="M 422 0 
L 422 3319 
L 928 3319 
L 928 2847 
Q 1294 3394 1984 3394 
Q 2284 3394 2536 3286 
Q 2788 3178 2913 3003 
Q 3038 2828 3088 2588 
Q 3119 2431 3119 2041 
L 3119 0 
L 2556 0 
L 2556 2019 
Q 2556 2363 2490 2533 
Q 2425 2703 2258 2804 
Q 2091 2906 1866 2906 
Q 1506 2906 1245 2678 
Q 984 2450 984 1813 
L 984 0 
L 422 0 
z
" transform="scale(0.015625)"/>
       <path id="ArialMT-75" d="M 2597 0 
L 2597 488 
Q 2209 -75 1544 -75 
Q 1250 -75 995 37 
Q 741 150 617 320 
Q 494 491 444 738 
Q 409 903 409 1263 
L 409 3319 
L 972 3319 
L 972 1478 
Q 972 1038 1006 884 
Q 1059 663 1231 536 
Q 1403 409 1656 409 
Q 1909 409 2131 539 
Q 2353 669 2445 892 
Q 2538 1116 2538 1541 
L 2538 3319 
L 3100 3319 
L 3100 0 
L 2597 0 
z
" transform="scale(0.015625)"/>
       <path id="ArialMT-62" d="M 941 0 
L 419 0 
L 419 4581 
L 981 4581 
L 981 2947 
Q 1338 3394 1891 3394 
Q 2197 3394 2470 3270 
Q 2744 3147 2920 2923 
Q 3097 2700 3197 2384 
Q 3297 2069 3297 1709 
Q 3297 856 2875 390 
Q 2453 -75 1863 -75 
Q 1275 -75 941 416 
L 941 0 
z
M 934 1684 
Q 934 1088 1097 822 
Q 1363 388 1816 388 
Q 2184 388 2453 708 
Q 2722 1028 2722 1663 
Q 2722 2313 2464 2622 
Q 2206 2931 1841 2931 
Q 1472 2931 1203 2611 
Q 934 2291 934 1684 
z
" transform="scale(0.015625)"/>
       <path id="ArialMT-72" d="M 416 0 
L 416 3319 
L 922 3319 
L 922 2816 
Q 1116 3169 1280 3281 
Q 1444 3394 1641 3394 
Q 1925 3394 2219 3213 
L 2025 2691 
Q 1819 2813 1613 2813 
Q 1428 2813 1281 2702 
Q 1134 2591 1072 2394 
Q 978 2094 978 1738 
L 978 0 
L 416 0 
z
" transform="scale(0.015625)"/>
      </defs>
      <use xlink:href="#ArialMT-53"/>
      <use xlink:href="#ArialMT-61" x="66.699219"/>
      <use xlink:href="#ArialMT-6d" x="122.314453"/>
      <use xlink:href="#ArialMT-70" x="205.615234"/>
      <use xlink:href="#ArialMT-6c" x="261.230469"/>
      <use xlink:href="#ArialMT-65" x="283.447266"/>
      <use xlink:href="#ArialMT-20" x="339.0625"/>
      <use xlink:href="#ArialMT-6e" x="366.845703"/>
      <use xlink:href="#ArialMT-75" x="422.460938"/>
      <use xlink:href="#ArialMT-6d" x="478.076172"/>
      <use xlink:href="#ArialMT-62" x="561.376953"/>
      <use xlink:href="#ArialMT-65" x="616.992188"/>
      <use xlink:href="#ArialMT-72" x="672.607422"/>
     </g>
    </g>
   </g>
   <g id="matplotlib.axis_2">
    <g id="ytick_1">
     <g id="line2d_7">
      <defs>
       <path id="mce285fd5fc" d="M 0 0 
L -4.8 0 
" style="stroke: #262626"/>
      </defs>
      <g>
       <use xlink:href="#mce285fd5fc" x="40.54" y="264.48524" style="fill: #262626; stroke: #262626"/>
      </g>
     </g>
     <g id="text_8">
      <!-- 0.1 -->
      <g style="fill: #262626" transform="translate(20.008 267.634677) scale(0.088 -0.088)">
       <defs>
        <path id="ArialMT-2e" d="M 581 0 
L 581 641 
L 1222 641 
L 1222 0 
L 581 0 
z
" transform="scale(0.015625)"/>
       </defs>
       <use xlink:href="#ArialMT-30"/>
       <use xlink:href="#ArialMT-2e" x="55.615234"/>
       <use xlink:href="#ArialMT-31" x="83.398438"/>
      </g>
     </g>
    </g>
    <g id="ytick_2">
     <g id="line2d_8">
      <g>
       <use xlink:href="#mce285fd5fc" x="40.54" y="233.473534" style="fill: #262626; stroke: #262626"/>
      </g>
     </g>
     <g id="text_9">
      <!-- 0.2 -->
      <g style="fill: #262626" transform="translate(20.008 236.622971) scale(0.088 -0.088)">
       <use xlink:href="#ArialMT-30"/>
       <use xlink:href="#ArialMT-2e" x="55.615234"/>
       <use xlink:href="#ArialMT-32" x="83.398438"/>
      </g>
     </g>
    </g>
    <g id="ytick_3">
     <g id="line2d_9">
      <g>
       <use xlink:href="#mce285fd5fc" x="40.54" y="202.461828" style="fill: #262626; stroke: #262626"/>
      </g>
     </g>
     <g id="text_10">
      <!-- 0.3 -->
      <g style="fill: #262626" transform="translate(20.008 205.611265) scale(0.088 -0.088)">
       <defs>
        <path id="ArialMT-33" d="M 269 1209 
L 831 1284 
Q 928 806 1161 595 
Q 1394 384 1728 384 
Q 2125 384 2398 659 
Q 2672 934 2672 1341 
Q 2672 1728 2419 1979 
Q 2166 2231 1775 2231 
Q 1616 2231 1378 2169 
L 1441 2663 
Q 1497 2656 1531 2656 
Q 1891 2656 2178 2843 
Q 2466 3031 2466 3422 
Q 2466 3731 2256 3934 
Q 2047 4138 1716 4138 
Q 1388 4138 1169 3931 
Q 950 3725 888 3313 
L 325 3413 
Q 428 3978 793 4289 
Q 1159 4600 1703 4600 
Q 2078 4600 2393 4439 
Q 2709 4278 2876 4000 
Q 3044 3722 3044 3409 
Q 3044 3113 2884 2869 
Q 2725 2625 2413 2481 
Q 2819 2388 3044 2092 
Q 3269 1797 3269 1353 
Q 3269 753 2831 336 
Q 2394 -81 1725 -81 
Q 1122 -81 723 278 
Q 325 638 269 1209 
z
" transform="scale(0.015625)"/>
       </defs>
       <use xlink:href="#ArialMT-30"/>
       <use xlink:href="#ArialMT-2e" x="55.615234"/>
       <use xlink:href="#ArialMT-33" x="83.398438"/>
      </g>
     </g>
    </g>
    <g id="ytick_4">
     <g id="line2d_10">
      <g>
       <use xlink:href="#mce285fd5fc" x="40.54" y="171.450122" style="fill: #262626; stroke: #262626"/>
      </g>
     </g>
     <g id="text_11">
      <!-- 0.4 -->
      <g style="fill: #262626" transform="translate(20.008 174.599559) scale(0.088 -0.088)">
       <use xlink:href="#ArialMT-30"/>
       <use xlink:href="#ArialMT-2e" x="55.615234"/>
       <use xlink:href="#ArialMT-34" x="83.398438"/>
      </g>
     </g>
    </g>
    <g id="ytick_5">
     <g id="line2d_11">
      <g>
       <use xlink:href="#mce285fd5fc" x="40.54" y="140.438416" style="fill: #262626; stroke: #262626"/>
      </g>
     </g>
     <g id="text_12">
      <!-- 0.5 -->
      <g style="fill: #262626" transform="translate(20.008 143.587853) scale(0.088 -0.088)">
       <defs>
        <path id="ArialMT-35" d="M 266 1200 
L 856 1250 
Q 922 819 1161 601 
Q 1400 384 1738 384 
Q 2144 384 2425 690 
Q 2706 997 2706 1503 
Q 2706 1984 2436 2262 
Q 2166 2541 1728 2541 
Q 1456 2541 1237 2417 
Q 1019 2294 894 2097 
L 366 2166 
L 809 4519 
L 3088 4519 
L 3088 3981 
L 1259 3981 
L 1013 2750 
Q 1425 3038 1878 3038 
Q 2478 3038 2890 2622 
Q 3303 2206 3303 1553 
Q 3303 931 2941 478 
Q 2500 -78 1738 -78 
Q 1113 -78 717 272 
Q 322 622 266 1200 
z
" transform="scale(0.015625)"/>
       </defs>
       <use xlink:href="#ArialMT-30"/>
       <use xlink:href="#ArialMT-2e" x="55.615234"/>
       <use xlink:href="#ArialMT-35" x="83.398438"/>
      </g>
     </g>
    </g>
    <g id="ytick_6">
     <g id="line2d_12">
      <g>
       <use xlink:href="#mce285fd5fc" x="40.54" y="109.42671" style="fill: #262626; stroke: #262626"/>
      </g>
     </g>
     <g id="text_13">
      <!-- 0.6 -->
      <g style="fill: #262626" transform="translate(20.008 112.576147) scale(0.088 -0.088)">
       <use xlink:href="#ArialMT-30"/>
       <use xlink:href="#ArialMT-2e" x="55.615234"/>
       <use xlink:href="#ArialMT-36" x="83.398438"/>
      </g>
     </g>
    </g>
    <g id="ytick_7">
     <g id="line2d_13">
      <g>
       <use xlink:href="#mce285fd5fc" x="40.54" y="78.415004" style="fill: #262626; stroke: #262626"/>
      </g>
     </g>
     <g id="text_14">
      <!-- 0.7 -->
      <g style="fill: #262626" transform="translate(20.008 81.564441) scale(0.088 -0.088)">
       <defs>
        <path id="ArialMT-37" d="M 303 3981 
L 303 4522 
L 3269 4522 
L 3269 4084 
Q 2831 3619 2401 2847 
Q 1972 2075 1738 1259 
Q 1569 684 1522 0 
L 944 0 
Q 953 541 1156 1306 
Q 1359 2072 1739 2783 
Q 2119 3494 2547 3981 
L 303 3981 
z
" transform="scale(0.015625)"/>
       </defs>
       <use xlink:href="#ArialMT-30"/>
       <use xlink:href="#ArialMT-2e" x="55.615234"/>
       <use xlink:href="#ArialMT-37" x="83.398438"/>
      </g>
     </g>
    </g>
    <g id="ytick_8">
     <g id="line2d_14">
      <g>
       <use xlink:href="#mce285fd5fc" x="40.54" y="47.403298" style="fill: #262626; stroke: #262626"/>
      </g>
     </g>
     <g id="text_15">
      <!-- 0.8 -->
      <g style="fill: #262626" transform="translate(20.008 50.552735) scale(0.088 -0.088)">
       <use xlink:href="#ArialMT-30"/>
       <use xlink:href="#ArialMT-2e" x="55.615234"/>
       <use xlink:href="#ArialMT-38" x="83.398438"/>
      </g>
     </g>
    </g>
    <g id="ytick_9">
     <g id="line2d_15">
      <g>
       <use xlink:href="#mce285fd5fc" x="40.54" y="16.391592" style="fill: #262626; stroke: #262626"/>
      </g>
     </g>
     <g id="text_16">
      <!-- 0.9 -->
      <g style="fill: #262626" transform="translate(20.008 19.541029) scale(0.088 -0.088)">
       <defs>
        <path id="ArialMT-39" d="M 350 1059 
L 891 1109 
Q 959 728 1153 556 
Q 1347 384 1650 384 
Q 1909 384 2104 503 
Q 2300 622 2425 820 
Q 2550 1019 2634 1356 
Q 2719 1694 2719 2044 
Q 2719 2081 2716 2156 
Q 2547 1888 2255 1720 
Q 1963 1553 1622 1553 
Q 1053 1553 659 1965 
Q 266 2378 266 3053 
Q 266 3750 677 4175 
Q 1088 4600 1706 4600 
Q 2153 4600 2523 4359 
Q 2894 4119 3086 3673 
Q 3278 3228 3278 2384 
Q 3278 1506 3087 986 
Q 2897 466 2520 194 
Q 2144 -78 1638 -78 
Q 1100 -78 759 220 
Q 419 519 350 1059 
z
M 2653 3081 
Q 2653 3566 2395 3850 
Q 2138 4134 1775 4134 
Q 1400 4134 1122 3828 
Q 844 3522 844 3034 
Q 844 2597 1108 2323 
Q 1372 2050 1759 2050 
Q 2150 2050 2401 2323 
Q 2653 2597 2653 3081 
z
" transform="scale(0.015625)"/>
       </defs>
       <use xlink:href="#ArialMT-30"/>
       <use xlink:href="#ArialMT-2e" x="55.615234"/>
       <use xlink:href="#ArialMT-39" x="83.398438"/>
      </g>
     </g>
    </g>
    <g id="text_17">
     <!-- lambda_2 -->
     <g style="fill: #262626" transform="translate(14.1 161.33625) rotate(-90) scale(0.096 -0.096)">
      <defs>
       <path id="ArialMT-64" d="M 2575 0 
L 2575 419 
Q 2259 -75 1647 -75 
Q 1250 -75 917 144 
Q 584 363 401 755 
Q 219 1147 219 1656 
Q 219 2153 384 2558 
Q 550 2963 881 3178 
Q 1213 3394 1622 3394 
Q 1922 3394 2156 3267 
Q 2391 3141 2538 2938 
L 2538 4581 
L 3097 4581 
L 3097 0 
L 2575 0 
z
M 797 1656 
Q 797 1019 1065 703 
Q 1334 388 1700 388 
Q 2069 388 2326 689 
Q 2584 991 2584 1609 
Q 2584 2291 2321 2609 
Q 2059 2928 1675 2928 
Q 1300 2928 1048 2622 
Q 797 2316 797 1656 
z
" transform="scale(0.015625)"/>
       <path id="ArialMT-5f" d="M -97 -1272 
L -97 -866 
L 3631 -866 
L 3631 -1272 
L -97 -1272 
z
" transform="scale(0.015625)"/>
      </defs>
      <use xlink:href="#ArialMT-6c"/>
      <use xlink:href="#ArialMT-61" x="22.216797"/>
      <use xlink:href="#ArialMT-6d" x="77.832031"/>
      <use xlink:href="#ArialMT-62" x="161.132812"/>
      <use xlink:href="#ArialMT-64" x="216.748047"/>
      <use xlink:href="#ArialMT-61" x="272.363281"/>
      <use xlink:href="#ArialMT-5f" x="327.978516"/>
      <use xlink:href="#ArialMT-32" x="383.59375"/>
     </g>
    </g>
   </g>
   <g id="line2d_16">
    <path d="M 56.772727 168.686247 
L 57.097707 169.443535 
L 57.422686 172.937885 
L 57.747666 184.786119 
L 58.072645 190.940579 
L 58.397625 201.677068 
L 58.722604 196.868033 
L 59.047584 189.11967 
L 59.372563 197.362251 
L 59.697543 193.209699 
L 60.022523 193.503943 
L 60.347502 189.327472 
L 60.672482 187.275563 
L 60.997461 182.66603 
L 61.322441 181.524858 
L 61.64742 194.656733 
L 61.9724 189.508434 
L 62.297379 194.604727 
L 62.622359 194.557897 
L 62.947338 193.909362 
L 63.272318 200.802497 
L 63.597297 202.034002 
L 63.922277 202.29089 
L 64.247256 202.319208 
L 64.572236 217.392566 
L 64.897215 216.908616 
L 65.222195 217.959936 
L 65.547174 225.486088 
L 65.872154 226.414325 
L 66.197133 226.902646 
L 66.522113 229.38728 
L 66.847093 224.959398 
L 67.172072 227.388925 
L 67.497052 217.504092 
L 67.822031 218.819581 
L 68.147011 219.607956 
L 68.47199 218.306976 
L 68.79697 217.570331 
L 69.121949 201.866136 
L 69.446929 205.583565 
L 69.771908 202.913417 
L 70.096888 197.93658 
L 70.421867 200.968117 
L 70.746847 198.91545 
L 71.071826 207.992778 
L 71.396806 204.805177 
L 71.721785 200.242243 
L 72.046765 200.578077 
L 72.371744 205.453037 
L 72.696724 212.044174 
L 73.021704 194.351611 
L 73.346683 190.667759 
L 73.996642 177.720182 
L 74.321622 178.843489 
L 74.646601 164.205874 
L 74.971581 157.804304 
L 75.29656 143.065403 
L 75.62154 156.41276 
L 75.946519 155.933015 
L 76.271499 183.231154 
L 76.596478 181.693768 
L 76.921458 184.312529 
L 77.246437 184.377826 
L 77.571417 184.853494 
L 77.896396 191.05656 
L 78.221376 174.875014 
L 78.546355 174.625484 
L 78.871335 176.352557 
L 79.196314 174.998204 
L 79.521294 176.376762 
L 79.846274 185.227342 
L 80.171253 198.748665 
L 80.496233 199.477321 
L 80.821212 199.929699 
L 81.471171 199.107522 
L 81.796151 190.795144 
L 82.12113 188.866166 
L 82.44611 195.927139 
L 82.771089 195.403263 
L 83.096069 181.02136 
L 83.421048 182.907141 
L 83.746028 183.175276 
L 84.071007 193.080058 
L 84.395987 193.43519 
L 84.720966 193.355994 
L 85.045946 190.174927 
L 85.370925 200.014256 
L 85.695905 203.186173 
L 86.020885 177.630098 
L 86.345864 187.722775 
L 86.670844 203.498846 
L 86.995823 207.510427 
L 87.320803 205.786228 
L 87.970762 189.254283 
L 88.295741 193.668389 
L 88.620721 208.50438 
L 88.9457 207.296331 
L 89.27068 208.521441 
L 89.595659 205.463148 
L 89.920639 216.657422 
L 90.245618 203.564059 
L 90.570598 196.550683 
L 90.895577 176.971757 
L 91.220557 192.016483 
L 91.545536 179.019794 
L 91.870516 177.652224 
L 92.195495 179.934079 
L 92.520475 177.953687 
L 92.845455 174.62554 
L 93.170434 176.050439 
L 93.495414 127.787588 
L 93.820393 129.759543 
L 94.145373 151.765815 
L 94.795332 153.50689 
L 95.120311 157.066425 
L 95.445291 164.622984 
L 96.09525 171.483521 
L 96.420229 170.780587 
L 96.745209 179.140654 
L 97.070188 167.355572 
L 97.395168 167.083435 
L 98.045127 175.423761 
L 98.370106 200.899429 
L 98.695086 206.464449 
L 99.020066 206.263829 
L 99.670025 214.518498 
L 99.995004 217.027286 
L 100.319984 216.000948 
L 100.644963 205.249154 
L 100.969943 223.645077 
L 101.294922 208.440849 
L 101.619902 207.272708 
L 102.269861 209.021306 
L 102.59484 200.691137 
L 103.244799 204.656581 
L 103.569779 209.994631 
L 103.894758 210.858325 
L 104.219738 212.067187 
L 104.544717 214.602214 
L 104.869697 219.412779 
L 105.194676 218.636854 
L 105.519656 222.928788 
L 105.844636 218.598443 
L 106.169615 219.384738 
L 106.494595 222.512773 
L 106.819574 222.69264 
L 107.144554 229.725415 
L 107.469533 227.7078 
L 107.794513 228.059992 
L 108.119492 228.044452 
L 108.444472 229.303532 
L 109.094431 235.316453 
L 109.41941 231.509513 
L 109.74439 217.94427 
L 110.069369 222.195585 
L 110.394349 220.700339 
L 110.719328 214.692418 
L 111.044308 212.448058 
L 111.694267 222.310331 
L 112.019247 219.876483 
L 112.344226 218.533202 
L 112.669206 216.409694 
L 112.994185 212.300164 
L 113.319165 216.005375 
L 113.644144 216.180783 
L 113.969124 216.962397 
L 114.294103 210.053042 
L 114.619083 210.480753 
L 115.269042 224.131772 
L 115.594021 223.827408 
L 115.919001 212.473382 
L 116.24398 210.440188 
L 116.56896 220.259633 
L 116.893939 226.24607 
L 117.218919 229.178027 
L 117.543898 229.1514 
L 117.868878 230.92254 
L 118.843817 206.105094 
L 119.168796 204.737607 
L 119.493776 200.155533 
L 119.818755 200.260432 
L 120.143735 206.46078 
L 120.468714 207.827666 
L 120.793694 206.973159 
L 121.443653 194.72373 
L 121.768632 197.395236 
L 122.093612 201.072415 
L 122.418591 200.462688 
L 122.743571 207.566472 
L 123.06855 210.093079 
L 123.39353 210.587814 
L 123.718509 219.134713 
L 124.043489 221.574758 
L 124.368468 220.816864 
L 124.693448 221.29861 
L 125.018428 219.571528 
L 125.343407 219.964137 
L 125.668387 219.336244 
L 125.993366 224.529372 
L 126.318346 227.339609 
L 126.643325 219.041358 
L 126.968305 215.10645 
L 127.293284 214.836984 
L 127.618264 206.617103 
L 127.943243 207.885734 
L 128.268223 206.380604 
L 128.593202 209.182305 
L 128.918182 229.286993 
L 129.243161 229.058992 
L 129.568141 219.207948 
L 129.89312 226.038684 
L 130.2181 227.043761 
L 130.543079 233.043618 
L 130.868059 230.75131 
L 131.193038 215.195804 
L 131.518018 220.374126 
L 131.842998 220.317831 
L 132.167977 214.884406 
L 132.492957 223.433218 
L 133.142916 227.20428 
L 133.467895 230.031051 
L 133.792875 230.150617 
L 134.117854 216.589973 
L 134.442834 218.698462 
L 134.767813 201.765396 
L 135.092793 201.306299 
L 135.417772 204.208269 
L 135.742752 201.683196 
L 136.067731 194.065278 
L 136.392711 193.969039 
L 136.71769 199.936705 
L 137.04267 203.789005 
L 137.367649 211.784006 
L 137.692629 212.668762 
L 138.017609 214.57092 
L 138.342588 220.825386 
L 138.667568 220.987868 
L 138.992547 222.948289 
L 139.642506 218.084858 
L 140.292465 207.826668 
L 140.617445 198.23112 
L 140.942424 202.732344 
L 141.267404 198.294466 
L 141.592383 189.654526 
L 141.917363 208.864198 
L 142.242342 199.345472 
L 142.567322 198.937068 
L 143.217281 207.59674 
L 143.54226 195.638449 
L 143.86724 196.686294 
L 144.192219 207.998351 
L 144.517199 207.395897 
L 144.842179 193.481364 
L 145.167158 193.131334 
L 145.492138 191.483661 
L 145.817117 186.640291 
L 146.142097 185.792549 
L 146.467076 187.419945 
L 146.792056 193.04296 
L 147.117035 202.640661 
L 147.766994 198.968158 
L 148.091974 199.405149 
L 148.416953 198.016839 
L 148.741933 193.79376 
L 149.066912 186.272691 
L 149.391892 193.172101 
L 149.716871 194.16831 
L 150.041851 196.735213 
L 150.36683 202.788675 
L 150.69181 202.313209 
L 151.01679 187.297412 
L 151.341769 187.479982 
L 151.666749 181.797151 
L 152.316708 124.63167 
L 152.641687 117.751807 
L 152.966667 103.085752 
L 153.291646 97.477377 
L 153.616626 110.47451 
L 153.941605 104.401677 
L 154.266585 115.490441 
L 154.591564 92.855348 
L 154.916544 104.898778 
L 155.241523 96.401177 
L 155.891482 120.63739 
L 156.216462 111.78317 
L 156.541441 112.593194 
L 156.866421 64.718036 
L 157.51638 88.084668 
L 157.84136 91.603547 
L 158.166339 91.384728 
L 158.491319 81.263604 
L 158.816298 91.04724 
L 160.441196 68.776955 
L 160.766175 69.596591 
L 161.091155 93.881677 
L 161.416134 139.30009 
L 161.741114 146.314427 
L 162.066093 150.686888 
L 162.391073 146.771778 
L 163.041032 151.566044 
L 163.366011 149.689617 
L 163.690991 135.132076 
L 164.015971 130.156348 
L 164.34095 132.253959 
L 164.66593 133.442748 
L 165.315889 154.620834 
L 165.640868 160.627484 
L 165.965848 149.236767 
L 166.290827 128.571106 
L 166.615807 131.153102 
L 166.940786 130.104296 
L 167.265766 130.258105 
L 167.590745 135.644741 
L 167.915725 118.218002 
L 168.240704 122.622395 
L 168.565684 133.193837 
L 168.890663 132.630968 
L 169.215643 113.106063 
L 169.540622 106.370175 
L 169.865602 129.342368 
L 170.190581 114.737275 
L 170.515561 108.377804 
L 170.840541 105.760669 
L 171.16552 115.567558 
L 171.815479 167.973894 
L 172.140459 182.759136 
L 172.465438 179.383863 
L 172.790418 179.775252 
L 173.440377 194.373958 
L 174.090336 158.518791 
L 174.415315 183.541581 
L 174.740295 185.182951 
L 175.065274 156.912006 
L 175.390254 163.663679 
L 175.715233 163.061392 
L 176.040213 154.411517 
L 176.365192 153.791836 
L 176.690172 168.533048 
L 177.340131 157.291056 
L 177.665111 161.552833 
L 177.99009 162.211313 
L 178.31507 157.89082 
L 178.640049 159.78149 
L 179.290008 183.110238 
L 179.614988 179.198991 
L 179.939967 182.665901 
L 180.264947 181.142156 
L 180.589926 195.785373 
L 180.914906 199.195868 
L 181.239885 193.803243 
L 181.889844 212.692071 
L 182.214824 210.528193 
L 182.539803 216.662727 
L 182.864783 214.50444 
L 183.189762 232.2784 
L 183.514742 227.485049 
L 183.839722 226.831948 
L 184.489681 222.366663 
L 184.81466 223.09414 
L 185.13964 222.467329 
L 185.464619 222.139692 
L 185.789599 222.712746 
L 186.114578 222.419001 
L 186.439558 210.22722 
L 186.764537 204.790158 
L 187.089517 204.672653 
L 187.414496 192.940085 
L 187.739476 191.256265 
L 188.064455 157.233468 
L 188.714414 177.847152 
L 189.039394 167.108204 
L 189.689353 170.623016 
L 190.014333 176.909881 
L 190.339312 177.991395 
L 190.664292 176.98648 
L 190.989271 182.180047 
L 191.314251 184.214294 
L 191.63923 164.450321 
L 191.96421 163.62452 
L 192.289189 165.708814 
L 192.614169 165.410891 
L 192.939148 160.439988 
L 193.264128 143.353076 
L 193.589107 146.249621 
L 193.914087 146.810678 
L 194.239066 157.869443 
L 194.564046 147.328233 
L 194.889025 141.90813 
L 195.214005 148.875415 
L 195.538984 144.429839 
L 196.188943 175.312282 
L 196.513923 177.994075 
L 196.838903 176.635729 
L 197.163882 165.030047 
L 197.488862 157.651734 
L 197.813841 177.932762 
L 198.4638 144.566384 
L 198.78878 163.782627 
L 199.113759 168.106538 
L 199.438739 166.14841 
L 199.763718 165.790607 
L 200.088698 151.901222 
L 200.413677 155.943274 
L 200.738657 172.132121 
L 201.063636 176.153092 
L 202.363554 162.31269 
L 202.688534 160.881904 
L 203.013514 142.53795 
L 203.338493 141.722704 
L 203.663473 118.860539 
L 203.988452 121.925828 
L 204.313432 115.931221 
L 204.638411 128.805581 
L 205.28837 122.342412 
L 205.61335 124.128099 
L 205.938329 114.056439 
L 206.263309 68.871115 
L 206.588288 73.30024 
L 206.913268 80.870644 
L 207.238247 92.813648 
L 207.888206 34.471725 
L 208.213186 46.743511 
L 208.538165 66.122704 
L 208.863145 46.136631 
L 209.188124 41.25229 
L 209.513104 33.960927 
L 209.838084 19.296 
L 210.163063 54.770406 
L 210.488043 55.928067 
L 210.813022 66.408121 
L 211.138002 61.115682 
L 211.462981 58.117176 
L 211.787961 62.56144 
L 212.11294 46.920962 
L 212.43792 41.915049 
L 213.087879 55.999823 
L 213.412858 42.754851 
L 214.062817 62.969207 
L 214.387797 69.974856 
L 214.712776 54.842865 
L 215.037756 59.720108 
L 215.362735 90.561136 
L 215.687715 71.110945 
L 216.012695 70.243194 
L 216.337674 48.532988 
L 216.987633 71.445754 
L 217.637592 86.603105 
L 218.287551 58.66731 
L 218.612531 67.118681 
L 218.93751 64.756557 
L 219.26249 67.460014 
L 219.587469 74.549417 
L 219.912449 73.698838 
L 220.237428 84.621317 
L 220.562408 68.841429 
L 220.887387 81.541018 
L 221.537346 59.522695 
L 221.862326 87.717623 
L 222.187305 61.445961 
L 222.512285 63.777881 
L 222.837265 74.749011 
L 223.487224 72.188735 
L 223.812203 96.492472 
L 224.137183 69.366682 
L 224.462162 81.775456 
L 224.787142 74.991971 
L 225.112121 80.646317 
L 225.437101 119.701192 
L 225.76208 133.02036 
L 226.08706 157.506991 
L 226.737019 142.598625 
L 227.061998 142.630548 
L 227.386978 137.00902 
L 227.711957 139.233139 
L 228.036937 145.383081 
L 228.361916 145.547647 
L 228.686896 129.782574 
L 229.011876 102.574215 
L 229.336855 103.040392 
L 229.986814 140.878567 
L 230.311794 149.757446 
L 230.636773 140.720017 
L 230.961753 147.434195 
L 231.286732 118.219777 
L 231.611712 111.514055 
L 231.936691 114.947037 
L 232.261671 120.377888 
L 232.91163 98.134923 
L 233.236609 108.409228 
L 233.561589 108.392776 
L 233.886568 112.709831 
L 234.211548 118.666582 
L 234.536527 129.090684 
L 234.861507 125.183725 
L 235.186486 132.775848 
L 235.511466 135.729658 
L 235.836446 135.441301 
L 236.161425 110.608319 
L 236.486405 114.055995 
L 236.811384 112.651937 
L 237.136364 114.891583 
L 237.461343 112.284707 
L 237.786323 116.405383 
L 238.111302 134.051939 
L 238.436282 113.263993 
L 238.761261 106.562191 
L 239.086241 115.093766 
L 239.41122 91.631754 
L 239.7362 125.526685 
L 240.061179 114.13655 
L 240.386159 93.579623 
L 240.711138 91.376521 
L 241.036118 74.396606 
L 242.011057 136.289718 
L 242.336036 157.664765 
L 242.661016 158.217089 
L 242.985995 159.59061 
L 243.310975 166.418042 
L 243.635954 161.657455 
L 243.960934 163.915012 
L 244.285913 151.013924 
L 244.610893 159.756878 
L 244.935872 157.788454 
L 245.260852 163.661258 
L 245.585831 161.372212 
L 245.910811 166.706972 
L 246.23579 154.326322 
L 246.885749 175.073435 
L 247.210729 173.369551 
L 247.535708 177.753704 
L 247.860688 175.405998 
L 248.185667 176.740878 
L 248.510647 169.075187 
L 248.835627 170.443329 
L 249.160606 174.450178 
L 249.485586 173.080372 
L 249.810565 170.243522 
L 250.135545 162.361794 
L 250.460524 161.62226 
L 251.110483 171.337134 
L 251.435463 168.829935 
L 251.760442 167.751665 
L 252.085422 185.457306 
L 252.735381 161.686836 
L 253.06036 171.276634 
L 253.38534 166.654569 
L 253.710319 166.745984 
L 254.035299 167.231532 
L 254.360278 171.121985 
L 254.685258 148.532095 
L 255.010238 138.037493 
L 255.335217 138.753191 
L 255.660197 148.707309 
L 255.985176 141.549357 
L 256.310156 146.206931 
L 256.635135 143.799733 
L 256.960115 147.64842 
L 257.285094 126.238853 
L 257.610074 134.207559 
L 257.935053 136.886265 
L 258.260033 152.90878 
L 258.585012 153.670292 
L 258.909992 143.648669 
L 259.559951 160.763197 
L 260.20991 154.41185 
L 260.534889 172.257177 
L 260.859869 172.58559 
L 261.184848 163.094406 
L 261.509828 149.324873 
L 261.834808 150.996373 
L 262.159787 151.522162 
L 262.484767 170.525557 
L 262.809746 182.015767 
L 263.134726 184.54913 
L 263.459705 190.69421 
L 263.784685 192.842099 
L 264.109664 180.989567 
L 264.759623 193.827402 
L 265.084603 186.832926 
L 265.409582 187.217827 
L 265.734562 183.083427 
L 266.059541 185.302906 
L 266.384521 168.354756 
L 267.03448 167.786 
L 267.359459 164.102721 
L 267.684439 162.975246 
L 268.009419 159.85698 
L 268.334398 158.674402 
L 268.659378 153.810755 
L 268.984357 163.197539 
L 269.309337 160.98708 
L 269.634316 161.932577 
L 269.959296 164.340237 
L 270.284275 183.266358 
L 270.609255 188.696072 
L 270.934234 202.548137 
L 271.259214 202.295427 
L 271.584193 221.524221 
L 271.909173 221.743715 
L 272.234152 231.853383 
L 272.559132 227.456703 
L 272.884111 228.587861 
L 273.209091 221.139783 
L 273.53407 234.387416 
L 273.85905 230.674831 
L 274.184029 234.144545 
L 274.833989 232.194129 
L 275.158968 234.066606 
L 275.483948 222.669987 
L 275.808927 217.174829 
L 276.133907 217.142453 
L 276.458886 222.011027 
L 276.783866 208.19167 
L 277.108845 202.430401 
L 277.433825 202.389615 
L 277.758804 200.215524 
L 278.083784 200.615009 
L 278.408763 197.79742 
L 278.733743 203.497284 
L 279.058722 186.24648 
L 279.383702 186.688064 
L 279.708681 192.627477 
L 280.033661 192.366828 
L 280.35864 195.009443 
L 280.68362 196.038027 
L 281.0086 205.606809 
L 281.333579 207.387339 
L 281.658559 197.658935 
L 281.983538 210.226573 
L 282.308518 213.382353 
L 282.633497 213.697781 
L 282.958477 225.618737 
L 283.283456 226.105349 
L 283.608436 210.02794 
L 284.258395 200.601405 
L 284.583374 194.714913 
L 284.908354 195.102882 
L 285.233333 195.768829 
L 285.558313 189.375458 
L 285.883292 199.459992 
L 286.533251 181.909897 
L 286.858231 181.465652 
L 287.18321 183.811066 
L 287.50819 185.079014 
L 287.83317 191.815835 
L 288.158149 191.459058 
L 288.483129 191.827138 
L 288.808108 189.72924 
L 289.133088 202.292951 
L 289.458067 206.377683 
L 289.783047 203.892971 
L 290.108026 202.872197 
L 290.433006 204.635823 
L 291.082965 223.960934 
L 291.407944 219.46619 
L 291.732924 205.386429 
L 292.057903 209.476143 
L 292.382883 231.083794 
L 292.707862 232.517949 
L 293.032842 238.993498 
L 293.357821 237.62608 
L 293.682801 238.425716 
L 294.007781 238.008588 
L 294.33276 236.976386 
L 294.65774 236.972074 
L 294.982719 235.241507 
L 295.307699 236.973691 
L 295.632678 230.623342 
L 295.957658 230.446585 
L 296.282637 232.739401 
L 296.607617 228.774683 
L 296.932596 230.933016 
L 297.257576 225.658552 
L 297.582555 223.412442 
L 297.907535 218.491848 
L 298.232514 217.623686 
L 298.557494 216.346533 
L 298.882473 214.224032 
L 299.532432 217.54083 
L 299.857412 217.263221 
L 300.182391 216.076439 
L 300.507371 217.674952 
L 300.832351 214.689201 
L 301.15733 217.254561 
L 301.48231 211.58186 
L 301.807289 213.144912 
L 302.132269 205.786847 
L 303.107207 191.53953 
L 303.432187 191.057392 
L 303.757166 195.640446 
L 304.082146 190.226203 
L 304.407125 171.460564 
L 304.732105 170.116922 
L 305.057084 185.682613 
L 305.382064 190.594431 
L 305.707043 188.689307 
L 306.032023 178.192025 
L 306.357002 174.79445 
L 306.681982 165.284088 
L 307.006962 164.015826 
L 307.331941 164.987866 
L 307.656921 161.669821 
L 307.9819 167.943386 
L 308.30688 169.867068 
L 308.631859 154.739837 
L 308.956839 159.005532 
L 309.281818 150.808276 
L 309.606798 151.426145 
L 309.931777 148.953022 
L 310.256757 151.013563 
L 310.581736 148.530505 
L 310.906716 144.944325 
L 311.231695 139.817432 
L 311.556675 144.69046 
L 311.881654 133.475465 
L 312.206634 129.637342 
L 312.531613 130.484927 
L 312.856593 123.985917 
L 313.181572 98.328436 
L 313.506552 121.34002 
L 313.831532 111.475996 
L 314.156511 127.434259 
L 314.481491 124.651762 
L 314.80647 139.973514 
L 315.13145 123.385413 
L 315.456429 114.838496 
L 315.781409 121.296286 
L 316.106388 133.277164 
L 316.431368 126.152919 
L 316.756347 152.054393 
L 317.081327 138.545593 
L 317.406306 147.257826 
L 317.731286 149.90167 
L 318.056265 147.106355 
L 318.381245 146.994182 
L 318.706224 152.390542 
L 319.031204 150.124999 
L 319.356183 160.898448 
L 319.681163 161.171435 
L 320.006143 171.321653 
L 320.331122 176.768262 
L 320.656102 175.257947 
L 320.981081 180.817625 
L 321.306061 188.905205 
L 321.63104 186.346666 
L 321.95602 180.819492 
L 322.280999 181.108163 
L 322.605979 182.892593 
L 322.930958 182.520521 
L 323.255938 181.214319 
L 323.580917 180.476357 
L 323.905897 180.339147 
L 324.230876 174.568358 
L 324.555856 175.720399 
L 324.880835 169.392481 
L 325.205815 197.636421 
L 325.530794 195.670945 
L 325.855774 188.056705 
L 326.180753 197.197388 
L 326.505733 192.23545 
L 326.830713 198.066276 
L 327.155692 174.768803 
L 327.805651 189.787928 
L 328.130631 186.594126 
L 328.45561 191.429104 
L 328.78059 187.043519 
L 329.105569 190.020342 
L 329.430549 190.258236 
L 329.755528 193.091971 
L 330.405487 189.207462 
L 331.055446 201.986054 
L 331.380426 195.376904 
L 331.705405 195.491036 
L 332.030385 196.281763 
L 332.355364 198.98387 
L 332.680344 198.680079 
L 333.005324 197.233784 
L 333.330303 196.975113 
L 333.980262 176.803494 
L 334.305242 179.186967 
L 334.630221 178.584745 
L 334.955201 174.728285 
L 335.28018 180.07348 
L 335.930139 184.584528 
L 336.255119 188.850417 
L 336.580098 200.058037 
L 337.230057 183.520121 
L 337.555037 185.103385 
L 337.880016 194.282821 
L 338.529975 196.343769 
L 338.854955 199.633348 
L 339.179934 191.35158 
L 339.504914 189.998392 
L 339.829894 185.988927 
L 340.154873 188.743669 
L 340.479853 181.17235 
L 340.804832 182.539735 
L 341.129812 181.584636 
L 341.454791 173.205151 
L 341.779771 173.021628 
L 342.10475 163.608245 
L 342.42973 171.984726 
L 342.754709 170.646741 
L 343.729648 201.035844 
L 344.054627 186.336037 
L 344.379607 194.57273 
L 344.704586 198.669691 
L 345.029566 210.444357 
L 345.354545 216.258177 
L 345.679525 215.871114 
L 346.004505 215.217477 
L 346.329484 231.45838 
L 346.654464 231.201133 
L 346.979443 228.950687 
L 347.629402 233.362197 
L 347.954382 231.753355 
L 348.279361 234.090649 
L 348.604341 233.697361 
L 348.92932 235.253143 
L 349.2543 234.706564 
L 349.579279 236.38701 
L 349.904259 240.071171 
L 350.229238 241.451648 
L 350.554218 238.29572 
L 351.529156 242.284805 
L 351.854136 224.738417 
L 352.179115 225.458375 
L 352.504095 222.588411 
L 353.154054 213.178673 
L 353.479034 213.514535 
L 353.804013 214.782982 
L 354.128993 217.766293 
L 354.453972 216.794623 
L 354.778952 214.84448 
L 355.103931 213.818059 
L 355.428911 208.132002 
L 355.75389 208.655 
L 356.07887 208.932886 
L 356.403849 205.573241 
L 356.728829 207.387182 
L 357.053808 206.744035 
L 357.378788 197.004522 
L 357.703767 196.75062 
L 358.028747 211.58516 
L 358.353726 215.257644 
L 358.678706 215.175859 
L 359.003686 219.777111 
L 359.328665 208.986195 
L 359.978624 229.788595 
L 360.303604 222.331025 
L 360.628583 227.73579 
L 360.953563 227.79109 
L 361.603522 230.615098 
L 361.928501 229.439438 
L 362.253481 247.059021 
L 362.57846 248.397759 
L 362.90344 259.316209 
L 363.228419 259.04772 
L 363.553399 258.482439 
L 363.878378 258.37059 
L 364.203358 259.880196 
L 364.528337 260.657461 
L 364.853317 258.089922 
L 365.178296 257.392129 
L 365.503276 258.426357 
L 365.828256 258.632985 
L 366.153235 258.197021 
L 366.478215 258.495198 
L 366.803194 261.216 
L 367.128174 259.886183 
L 367.778133 260.053099 
L 368.103112 259.713804 
L 368.428092 253.964411 
L 368.753071 253.049682 
L 369.078051 254.571028 
L 369.40303 250.517279 
L 369.72801 252.035257 
L 370.052989 251.278773 
L 370.702948 250.887213 
L 371.027928 252.197813 
L 371.352907 250.682678 
L 371.677887 249.744788 
L 372.327846 244.03046 
L 372.652826 247.855329 
L 372.977805 246.299755 
L 373.302785 247.498723 
L 373.627764 242.430305 
L 373.952744 245.875306 
L 374.277723 237.510354 
L 374.602703 234.142821 
L 374.927682 223.329197 
L 375.252662 221.917357 
L 375.577641 224.191153 
L 375.902621 220.38932 
L 376.2276 218.30046 
L 376.55258 218.019594 
L 376.877559 214.674867 
L 377.202539 222.492056 
L 377.527518 213.824122 
L 377.852498 217.92062 
L 378.177477 218.996228 
L 378.502457 216.268806 
L 378.827437 211.932962 
L 379.152416 199.269039 
L 379.477396 195.694161 
L 379.802375 201.327094 
L 380.127355 199.901585 
L 380.777314 184.837792 
L 381.102293 188.957904 
L 381.427273 180.561598 
L 381.427273 180.561598 
" clip-path="url(#p3dbb5fd6d3)" style="fill: none; stroke: #1f77b4; stroke-width: 1.2; stroke-linecap: round"/>
   </g>
   <g id="patch_3">
    <path d="M 40.54 264.48524 
L 40.54 16.391592 
" style="fill: none; stroke: #262626; stroke-linejoin: miter; stroke-linecap: square"/>
   </g>
   <g id="patch_4">
    <path d="M 56.772727 273.312 
L 381.752252 273.312 
" style="fill: none; stroke: #262626; stroke-linejoin: miter; stroke-linecap: square"/>
   </g>
  </g>
 </g>
 <defs>
  <clipPath id="p3dbb5fd6d3">
   <rect x="40.54" y="7.2" width="357.12" height="266.112"/>
  </clipPath>
 </defs>
</svg>