<?xml version="1.0" encoding="utf-8" standalone="no"?>
<!DOCTYPE svg PUBLIC "-//W3C//DTD SVG 1.1//EN"
  "http://www.w3.org/Graphics/SVG/1.1/DTD/svg11.dtd">
<svg xmlns:xlink="http://www.w3.org/1999/xlink" width="377.46135pt" height="309.731375pt" viewBox="0 0 377.46135 309.731375" xmlns="http://www.w3.org/2000/svg" version="1.1">
 <metadata>
  <rdf:RDF xmlns:dc="http://purl.org/dc/elements/1.1/" xmlns:cc="http://creativecommons.org/ns#" xmlns:rdf="http://www.w3.org/1999/02/22-rdf-syntax-ns#">
   <cc:Work>
    <dc:type rdf:resource="http://purl.org/dc/dcmitype/StillImage"/>
    <dc:date>2023-10-23T20:25:38.329779</dc:date>
    <dc:format>image/svg+xml</dc:format>
    <dc:creator>
     <cc:Agent>
      <dc:title>Matplotlib v3.8.0, https://matplotlib.org/</dc:title>
     </cc:Agent>
    </dc:creator>
   </cc:Work>
  </rdf:RDF>
 </metadata>
 <defs>
  <style type="text/css">*{stroke-linejoin: round; stroke-linecap: butt}</style>
 </defs>
 <g id="figure_1">
  <g id="patch_1">
   <path d="M 0 309.731375 
L 377.46135 309.731375 
L 377.46135 0 
L 0 0 
z
" style="fill: #ffffff"/>
  </g>
  <g id="axes_1">
   <g id="patch_2">
    <path d="M 27.732 286.1835 
L 313.428 286.1835 
L 313.428 20.0715 
L 27.732 20.0715 
z
" style="fill: #ffffff"/>
   </g>
   <g id="matplotlib.axis_1">
    <g id="xtick_1">
     <g id="line2d_1">
      <defs>
       <path id="m45e38e128e" d="M 0 0 
L 0 4.8 
" style="stroke: #262626"/>
      </defs>
      <g>
       <use xlink:href="#m45e38e128e" x="27.732" y="286.1835" style="fill: #262626; stroke: #262626"/>
      </g>
     </g>
     <g id="text_1">
      <!-- 0.0 -->
      <g style="fill: #262626" transform="translate(21.616 300.782375) scale(0.088 -0.088)">
       <defs>
        <path id="ArialMT-30" d="M 266 2259 
Q 266 3072 433 3567 
Q 600 4063 929 4331 
Q 1259 4600 1759 4600 
Q 2128 4600 2406 4451 
Q 2684 4303 2865 4023 
Q 3047 3744 3150 3342 
Q 3253 2941 3253 2259 
Q 3253 1453 3087 958 
Q 2922 463 2592 192 
Q 2263 -78 1759 -78 
Q 1097 -78 719 397 
Q 266 969 266 2259 
z
M 844 2259 
Q 844 1131 1108 757 
Q 1372 384 1759 384 
Q 2147 384 2411 759 
Q 2675 1134 2675 2259 
Q 2675 3391 2411 3762 
Q 2147 4134 1753 4134 
Q 1366 4134 1134 3806 
Q 844 3388 844 2259 
z
" transform="scale(0.015625)"/>
        <path id="ArialMT-2e" d="M 581 0 
L 581 641 
L 1222 641 
L 1222 0 
L 581 0 
z
" transform="scale(0.015625)"/>
       </defs>
       <use xlink:href="#ArialMT-30"/>
       <use xlink:href="#ArialMT-2e" x="55.615234"/>
       <use xlink:href="#ArialMT-30" x="83.398438"/>
      </g>
     </g>
    </g>
    <g id="xtick_2">
     <g id="line2d_2">
      <g>
       <use xlink:href="#m45e38e128e" x="84.8712" y="286.1835" style="fill: #262626; stroke: #262626"/>
      </g>
     </g>
     <g id="text_2">
      <!-- 0.2 -->
      <g style="fill: #262626" transform="translate(78.7552 300.782375) scale(0.088 -0.088)">
       <defs>
        <path id="ArialMT-32" d="M 3222 541 
L 3222 0 
L 194 0 
Q 188 203 259 391 
Q 375 700 629 1000 
Q 884 1300 1366 1694 
Q 2113 2306 2375 2664 
Q 2638 3022 2638 3341 
Q 2638 3675 2398 3904 
Q 2159 4134 1775 4134 
Q 1369 4134 1125 3890 
Q 881 3647 878 3216 
L 300 3275 
Q 359 3922 746 4261 
Q 1134 4600 1788 4600 
Q 2447 4600 2831 4234 
Q 3216 3869 3216 3328 
Q 3216 3053 3103 2787 
Q 2991 2522 2730 2228 
Q 2469 1934 1863 1422 
Q 1356 997 1212 845 
Q 1069 694 975 541 
L 3222 541 
z
" transform="scale(0.015625)"/>
       </defs>
       <use xlink:href="#ArialMT-30"/>
       <use xlink:href="#ArialMT-2e" x="55.615234"/>
       <use xlink:href="#ArialMT-32" x="83.398438"/>
      </g>
     </g>
    </g>
    <g id="xtick_3">
     <g id="line2d_3">
      <g>
       <use xlink:href="#m45e38e128e" x="142.0104" y="286.1835" style="fill: #262626; stroke: #262626"/>
      </g>
     </g>
     <g id="text_3">
      <!-- 0.4 -->
      <g style="fill: #262626" transform="translate(135.8944 300.782375) scale(0.088 -0.088)">
       <defs>
        <path id="ArialMT-34" d="M 2069 0 
L 2069 1097 
L 81 1097 
L 81 1613 
L 2172 4581 
L 2631 4581 
L 2631 1613 
L 3250 1613 
L 3250 1097 
L 2631 1097 
L 2631 0 
L 2069 0 
z
M 2069 1613 
L 2069 3678 
L 634 1613 
L 2069 1613 
z
" transform="scale(0.015625)"/>
       </defs>
       <use xlink:href="#ArialMT-30"/>
       <use xlink:href="#ArialMT-2e" x="55.615234"/>
       <use xlink:href="#ArialMT-34" x="83.398438"/>
      </g>
     </g>
    </g>
    <g id="xtick_4">
     <g id="line2d_4">
      <g>
       <use xlink:href="#m45e38e128e" x="199.1496" y="286.1835" style="fill: #262626; stroke: #262626"/>
      </g>
     </g>
     <g id="text_4">
      <!-- 0.6 -->
      <g style="fill: #262626" transform="translate(193.0336 300.782375) scale(0.088 -0.088)">
       <defs>
        <path id="ArialMT-36" d="M 3184 3459 
L 2625 3416 
Q 2550 3747 2413 3897 
Q 2184 4138 1850 4138 
Q 1581 4138 1378 3988 
Q 1113 3794 959 3422 
Q 806 3050 800 2363 
Q 1003 2672 1297 2822 
Q 1591 2972 1913 2972 
Q 2475 2972 2870 2558 
Q 3266 2144 3266 1488 
Q 3266 1056 3080 686 
Q 2894 316 2569 119 
Q 2244 -78 1831 -78 
Q 1128 -78 684 439 
Q 241 956 241 2144 
Q 241 3472 731 4075 
Q 1159 4600 1884 4600 
Q 2425 4600 2770 4297 
Q 3116 3994 3184 3459 
z
M 888 1484 
Q 888 1194 1011 928 
Q 1134 663 1356 523 
Q 1578 384 1822 384 
Q 2178 384 2434 671 
Q 2691 959 2691 1453 
Q 2691 1928 2437 2201 
Q 2184 2475 1800 2475 
Q 1419 2475 1153 2201 
Q 888 1928 888 1484 
z
" transform="scale(0.015625)"/>
       </defs>
       <use xlink:href="#ArialMT-30"/>
       <use xlink:href="#ArialMT-2e" x="55.615234"/>
       <use xlink:href="#ArialMT-36" x="83.398438"/>
      </g>
     </g>
    </g>
    <g id="xtick_5">
     <g id="line2d_5">
      <g>
       <use xlink:href="#m45e38e128e" x="256.2888" y="286.1835" style="fill: #262626; stroke: #262626"/>
      </g>
     </g>
     <g id="text_5">
      <!-- 0.8 -->
      <g style="fill: #262626" transform="translate(250.1728 300.782375) scale(0.088 -0.088)">
       <defs>
        <path id="ArialMT-38" d="M 1131 2484 
Q 781 2613 612 2850 
Q 444 3088 444 3419 
Q 444 3919 803 4259 
Q 1163 4600 1759 4600 
Q 2359 4600 2725 4251 
Q 3091 3903 3091 3403 
Q 3091 3084 2923 2848 
Q 2756 2613 2416 2484 
Q 2838 2347 3058 2040 
Q 3278 1734 3278 1309 
Q 3278 722 2862 322 
Q 2447 -78 1769 -78 
Q 1091 -78 675 323 
Q 259 725 259 1325 
Q 259 1772 486 2073 
Q 713 2375 1131 2484 
z
M 1019 3438 
Q 1019 3113 1228 2906 
Q 1438 2700 1772 2700 
Q 2097 2700 2305 2904 
Q 2513 3109 2513 3406 
Q 2513 3716 2298 3927 
Q 2084 4138 1766 4138 
Q 1444 4138 1231 3931 
Q 1019 3725 1019 3438 
z
M 838 1322 
Q 838 1081 952 856 
Q 1066 631 1291 507 
Q 1516 384 1775 384 
Q 2178 384 2440 643 
Q 2703 903 2703 1303 
Q 2703 1709 2433 1975 
Q 2163 2241 1756 2241 
Q 1359 2241 1098 1978 
Q 838 1716 838 1322 
z
" transform="scale(0.015625)"/>
       </defs>
       <use xlink:href="#ArialMT-30"/>
       <use xlink:href="#ArialMT-2e" x="55.615234"/>
       <use xlink:href="#ArialMT-38" x="83.398438"/>
      </g>
     </g>
    </g>
    <g id="xtick_6">
     <g id="line2d_6">
      <g>
       <use xlink:href="#m45e38e128e" x="313.428" y="286.1835" style="fill: #262626; stroke: #262626"/>
      </g>
     </g>
     <g id="text_6">
      <!-- 1.0 -->
      <g style="fill: #262626" transform="translate(307.312 300.782375) scale(0.088 -0.088)">
       <defs>
        <path id="ArialMT-31" d="M 2384 0 
L 1822 0 
L 1822 3584 
Q 1619 3391 1289 3197 
Q 959 3003 697 2906 
L 697 3450 
Q 1169 3672 1522 3987 
Q 1875 4303 2022 4600 
L 2384 4600 
L 2384 0 
z
" transform="scale(0.015625)"/>
       </defs>
       <use xlink:href="#ArialMT-31"/>
       <use xlink:href="#ArialMT-2e" x="55.615234"/>
       <use xlink:href="#ArialMT-30" x="83.398438"/>
      </g>
     </g>
    </g>
   </g>
   <g id="matplotlib.axis_2">
    <g id="ytick_1">
     <g id="line2d_7">
      <defs>
       <path id="m7115923a5c" d="M 0 0 
L -4.8 0 
" style="stroke: #262626"/>
      </defs>
      <g>
       <use xlink:href="#m7115923a5c" x="27.732" y="286.1835" style="fill: #262626; stroke: #262626"/>
      </g>
     </g>
     <g id="text_7">
      <!-- 0.0 -->
      <g style="fill: #262626" transform="translate(7.2 289.332937) scale(0.088 -0.088)">
       <use xlink:href="#ArialMT-30"/>
       <use xlink:href="#ArialMT-2e" x="55.615234"/>
       <use xlink:href="#ArialMT-30" x="83.398438"/>
      </g>
     </g>
    </g>
    <g id="ytick_2">
     <g id="line2d_8">
      <g>
       <use xlink:href="#m7115923a5c" x="27.732" y="232.9611" style="fill: #262626; stroke: #262626"/>
      </g>
     </g>
     <g id="text_8">
      <!-- 0.2 -->
      <g style="fill: #262626" transform="translate(7.2 236.110537) scale(0.088 -0.088)">
       <use xlink:href="#ArialMT-30"/>
       <use xlink:href="#ArialMT-2e" x="55.615234"/>
       <use xlink:href="#ArialMT-32" x="83.398438"/>
      </g>
     </g>
    </g>
    <g id="ytick_3">
     <g id="line2d_9">
      <g>
       <use xlink:href="#m7115923a5c" x="27.732" y="179.7387" style="fill: #262626; stroke: #262626"/>
      </g>
     </g>
     <g id="text_9">
      <!-- 0.4 -->
      <g style="fill: #262626" transform="translate(7.2 182.888137) scale(0.088 -0.088)">
       <use xlink:href="#ArialMT-30"/>
       <use xlink:href="#ArialMT-2e" x="55.615234"/>
       <use xlink:href="#ArialMT-34" x="83.398438"/>
      </g>
     </g>
    </g>
    <g id="ytick_4">
     <g id="line2d_10">
      <g>
       <use xlink:href="#m7115923a5c" x="27.732" y="126.5163" style="fill: #262626; stroke: #262626"/>
      </g>
     </g>
     <g id="text_10">
      <!-- 0.6 -->
      <g style="fill: #262626" transform="translate(7.2 129.665737) scale(0.088 -0.088)">
       <use xlink:href="#ArialMT-30"/>
       <use xlink:href="#ArialMT-2e" x="55.615234"/>
       <use xlink:href="#ArialMT-36" x="83.398438"/>
      </g>
     </g>
    </g>
    <g id="ytick_5">
     <g id="line2d_11">
      <g>
       <use xlink:href="#m7115923a5c" x="27.732" y="73.2939" style="fill: #262626; stroke: #262626"/>
      </g>
     </g>
     <g id="text_11">
      <!-- 0.8 -->
      <g style="fill: #262626" transform="translate(7.2 76.443337) scale(0.088 -0.088)">
       <use xlink:href="#ArialMT-30"/>
       <use xlink:href="#ArialMT-2e" x="55.615234"/>
       <use xlink:href="#ArialMT-38" x="83.398438"/>
      </g>
     </g>
    </g>
    <g id="ytick_6">
     <g id="line2d_12">
      <g>
       <use xlink:href="#m7115923a5c" x="27.732" y="20.0715" style="fill: #262626; stroke: #262626"/>
      </g>
     </g>
     <g id="text_12">
      <!-- 1.0 -->
      <g style="fill: #262626" transform="translate(7.2 23.220937) scale(0.088 -0.088)">
       <use xlink:href="#ArialMT-31"/>
       <use xlink:href="#ArialMT-2e" x="55.615234"/>
       <use xlink:href="#ArialMT-30" x="83.398438"/>
      </g>
     </g>
    </g>
   </g>
   <g id="QuadContourSet_1">
    <path d="M 227.265714 286.1835 
L 231.800571 286.1835 
L 236.335429 286.1835 
L 240.870286 286.1835 
L 241.727975 286.1835 
L 241.334451 281.9595 
L 240.953796 277.7355 
L 240.870286 276.79953 
L 240.379147 273.5115 
L 239.788482 269.2875 
L 239.238364 265.0635 
L 238.722808 260.8395 
L 238.236941 256.6155 
L 237.776736 252.3915 
L 237.338829 248.1675 
L 236.920398 243.9435 
L 236.519051 239.7195 
L 236.335429 237.745958 
L 235.944716 235.4955 
L 235.263374 231.2715 
L 234.64439 227.0475 
L 234.07648 222.8235 
L 233.550892 218.5995 
L 233.060718 214.3755 
L 232.600439 210.1515 
L 232.165613 205.9275 
L 231.800571 202.212801 
L 231.684906 201.7035 
L 230.798301 197.4795 
L 230.038352 193.2555 
L 229.373224 189.0315 
L 228.780883 184.8075 
L 228.245561 180.5835 
L 227.75571 176.3595 
L 227.302632 172.1355 
L 227.265714 171.78522 
L 225.805991 167.9115 
L 224.699572 163.6875 
L 223.87438 159.4635 
L 223.217764 155.2395 
L 222.730857 151.537292 
L 221.945136 155.2395 
L 221.410248 159.4635 
L 221.091875 163.6875 
L 220.905676 167.9115 
L 220.806064 172.1355 
L 220.76622 176.3595 
L 220.769358 180.5835 
L 220.80447 184.8075 
L 220.863986 189.0315 
L 220.942561 193.2555 
L 221.036323 197.4795 
L 221.142372 201.7035 
L 221.258537 205.9275 
L 221.383093 210.1515 
L 221.514747 214.3755 
L 221.65243 218.5995 
L 221.795307 222.8235 
L 221.942697 227.0475 
L 222.094038 231.2715 
L 222.248872 235.4955 
L 222.406833 239.7195 
L 222.567584 243.9435 
L 222.730857 248.167274 
L 222.730872 248.1675 
L 223.016537 252.3915 
L 223.289907 256.6155 
L 223.553102 260.8395 
L 223.807798 265.0635 
L 224.055336 269.2875 
L 224.296808 273.5115 
L 224.533063 277.7355 
L 224.764857 281.9595 
L 224.992789 286.1835 
z
" clip-path="url(#p48ff952cb2)" style="fill: #170f28"/>
    <path d="M 213.661143 286.1835 
L 218.196 286.1835 
L 222.730857 286.1835 
L 224.992789 286.1835 
L 224.764857 281.9595 
L 224.533063 277.7355 
L 224.296808 273.5115 
L 224.055336 269.2875 
L 223.807798 265.0635 
L 223.553102 260.8395 
L 223.289907 256.6155 
L 223.016537 252.3915 
L 222.730872 248.1675 
L 222.730857 248.167274 
L 222.567584 243.9435 
L 222.406833 239.7195 
L 222.248872 235.4955 
L 222.094038 231.2715 
L 221.942697 227.0475 
L 221.795307 222.8235 
L 221.65243 218.5995 
L 221.514747 214.3755 
L 221.383093 210.1515 
L 221.258537 205.9275 
L 221.142372 201.7035 
L 221.036323 197.4795 
L 220.942561 193.2555 
L 220.863986 189.0315 
L 220.80447 184.8075 
L 220.769358 180.5835 
L 220.76622 176.3595 
L 220.806064 172.1355 
L 220.905676 167.9115 
L 221.091875 163.6875 
L 221.410248 159.4635 
L 221.945136 155.2395 
L 222.730857 151.537292 
L 223.217764 155.2395 
L 223.87438 159.4635 
L 224.699572 163.6875 
L 225.805991 167.9115 
L 227.265714 171.78522 
L 227.302632 172.1355 
L 227.75571 176.3595 
L 228.245561 180.5835 
L 228.780883 184.8075 
L 229.373224 189.0315 
L 230.038352 193.2555 
L 230.798301 197.4795 
L 231.684906 201.7035 
L 231.800571 202.212801 
L 232.165613 205.9275 
L 232.600439 210.1515 
L 233.060718 214.3755 
L 233.550892 218.5995 
L 234.07648 222.8235 
L 234.64439 227.0475 
L 235.263374 231.2715 
L 235.944716 235.4955 
L 236.335429 237.745958 
L 236.519051 239.7195 
L 236.920398 243.9435 
L 237.338829 248.1675 
L 237.776736 252.3915 
L 238.236941 256.6155 
L 238.722808 260.8395 
L 239.238364 265.0635 
L 239.788482 269.2875 
L 240.379147 273.5115 
L 240.870286 276.79953 
L 240.953796 277.7355 
L 241.334451 281.9595 
L 241.727975 286.1835 
L 245.405143 286.1835 
L 249.94 286.1835 
L 252.718159 286.1835 
L 252.353341 281.9595 
L 251.993268 277.7355 
L 251.637578 273.5115 
L 251.285914 269.2875 
L 250.937971 265.0635 
L 250.593433 260.8395 
L 250.252006 256.6155 
L 249.94 252.725288 
L 249.90796 252.3915 
L 249.505499 248.1675 
L 249.110253 243.9435 
L 248.721697 239.7195 
L 248.339328 235.4955 
L 247.96271 231.2715 
L 247.591399 227.0475 
L 247.224998 222.8235 
L 246.863123 218.5995 
L 246.505418 214.3755 
L 246.151545 210.1515 
L 245.801184 205.9275 
L 245.454024 201.7035 
L 245.405143 201.107389 
L 245.048753 197.4795 
L 244.640932 193.2555 
L 244.24043 189.0315 
L 243.846707 184.8075 
L 243.45926 180.5835 
L 243.077614 176.3595 
L 242.701334 172.1355 
L 242.329996 167.9115 
L 241.96323 163.6875 
L 241.60066 159.4635 
L 241.241942 155.2395 
L 240.886751 151.0155 
L 240.870286 150.819377 
L 240.463252 146.7915 
L 240.044586 142.5675 
L 239.633753 138.3435 
L 239.23016 134.1195 
L 238.833281 129.8955 
L 238.4426 125.6715 
L 238.057642 121.4475 
L 237.67797 117.2235 
L 237.303162 112.9995 
L 236.932835 108.7755 
L 236.566616 104.5515 
L 236.335429 101.865835 
L 236.174624 100.3275 
L 235.738446 96.1035 
L 235.311131 91.8795 
L 234.892009 87.6555 
L 234.480458 83.4315 
L 234.075905 79.2075 
L 233.677815 74.9835 
L 233.285686 70.7595 
L 232.899055 66.5355 
L 232.517493 62.3115 
L 232.140586 58.0875 
L 231.800571 54.236481 
L 231.760289 53.8635 
L 231.308 49.6395 
L 230.865525 45.4155 
L 230.432107 41.1915 
L 230.007047 36.9675 
L 229.58972 32.7435 
L 229.179516 28.5195 
L 228.77589 24.2955 
L 228.378324 20.0715 
L 227.265714 20.0715 
L 222.730857 20.0715 
L 218.196 20.0715 
L 213.661143 20.0715 
L 209.126286 20.0715 
L 204.591429 20.0715 
L 200.056571 20.0715 
L 195.521714 20.0715 
L 190.986857 20.0715 
L 189.926498 20.0715 
L 190.290339 24.2955 
L 190.650221 28.5195 
L 190.986857 32.50721 
L 191.009677 32.7435 
L 191.418246 36.9675 
L 191.819098 41.1915 
L 192.21283 45.4155 
L 192.599996 49.6395 
L 192.981082 53.8635 
L 193.356565 58.0875 
L 193.726884 62.3115 
L 194.092426 66.5355 
L 194.453574 70.7595 
L 194.810677 74.9835 
L 195.164066 79.2075 
L 195.514053 83.4315 
L 195.521714 83.52332 
L 195.91323 87.6555 
L 196.306335 91.8795 
L 196.692687 96.1035 
L 197.072789 100.3275 
L 197.447115 104.5515 
L 197.816103 108.7755 
L 198.18016 112.9995 
L 198.539669 117.2235 
L 198.894976 121.4475 
L 199.246417 125.6715 
L 199.594308 129.8955 
L 199.938934 134.1195 
L 200.056571 135.55906 
L 200.314626 138.3435 
L 200.701842 142.5675 
L 201.082521 146.7915 
L 201.457149 151.0155 
L 201.82617 155.2395 
L 202.190002 159.4635 
L 202.549047 163.6875 
L 202.903654 167.9115 
L 203.254167 172.1355 
L 203.600911 176.3595 
L 203.944191 180.5835 
L 204.284276 184.8075 
L 204.591429 188.650237 
L 204.625987 189.0315 
L 205.009037 193.2555 
L 205.385642 197.4795 
L 205.756262 201.7035 
L 206.121336 205.9275 
L 206.481277 210.1515 
L 206.836468 214.3755 
L 207.187254 218.5995 
L 207.533975 222.8235 
L 207.876941 227.0475 
L 208.216458 231.2715 
L 208.55279 235.4955 
L 208.886205 239.7195 
L 209.126286 242.77335 
L 209.230238 243.9435 
L 209.604317 248.1675 
L 209.972376 252.3915 
L 210.334848 256.6155 
L 210.69214 260.8395 
L 211.044633 265.0635 
L 211.392671 269.2875 
L 211.736594 273.5115 
L 212.076707 277.7355 
L 212.413317 281.9595 
L 212.746683 286.1835 
z
" clip-path="url(#p48ff952cb2)" style="fill: #481c48"/>
    <path d="M 204.591429 286.1835 
L 209.126286 286.1835 
L 212.746683 286.1835 
L 212.413317 281.9595 
L 212.076707 277.7355 
L 211.736594 273.5115 
L 211.392671 269.2875 
L 211.044633 265.0635 
L 210.69214 260.8395 
L 210.334848 256.6155 
L 209.972376 252.3915 
L 209.604317 248.1675 
L 209.230238 243.9435 
L 209.126286 242.77335 
L 208.886205 239.7195 
L 208.55279 235.4955 
L 208.216458 231.2715 
L 207.876941 227.0475 
L 207.533975 222.8235 
L 207.187254 218.5995 
L 206.836468 214.3755 
L 206.481277 210.1515 
L 206.121336 205.9275 
L 205.756262 201.7035 
L 205.385642 197.4795 
L 205.009037 193.2555 
L 204.625987 189.0315 
L 204.591429 188.650237 
L 204.284276 184.8075 
L 203.944191 180.5835 
L 203.600911 176.3595 
L 203.254167 172.1355 
L 202.903654 167.9115 
L 202.549047 163.6875 
L 202.190002 159.4635 
L 201.82617 155.2395 
L 201.457149 151.0155 
L 201.082521 146.7915 
L 200.701842 142.5675 
L 200.314626 138.3435 
L 200.056571 135.55906 
L 199.938934 134.1195 
L 199.594308 129.8955 
L 199.246417 125.6715 
L 198.894976 121.4475 
L 198.539669 117.2235 
L 198.18016 112.9995 
L 197.816103 108.7755 
L 197.447115 104.5515 
L 197.072789 100.3275 
L 196.692687 96.1035 
L 196.306335 91.8795 
L 195.91323 87.6555 
L 195.521714 83.52332 
L 195.514053 83.4315 
L 195.164066 79.2075 
L 194.810677 74.9835 
L 194.453574 70.7595 
L 194.092426 66.5355 
L 193.726884 62.3115 
L 193.356565 58.0875 
L 192.981082 53.8635 
L 192.599996 49.6395 
L 192.21283 45.4155 
L 191.819098 41.1915 
L 191.418246 36.9675 
L 191.009677 32.7435 
L 190.986857 32.50721 
L 190.650221 28.5195 
L 190.290339 24.2955 
L 189.926498 20.0715 
L 186.452 20.0715 
L 181.917143 20.0715 
L 177.802631 20.0715 
L 178.265518 24.2955 
L 178.72424 28.5195 
L 179.179116 32.7435 
L 179.630431 36.9675 
L 180.078482 41.1915 
L 180.523555 45.4155 
L 180.965907 49.6395 
L 181.405804 53.8635 
L 181.843499 58.0875 
L 181.917143 58.79645 
L 182.294749 62.3115 
L 182.745046 66.5355 
L 183.19132 70.7595 
L 183.633878 74.9835 
L 184.073017 79.2075 
L 184.50901 83.4315 
L 184.942126 87.6555 
L 185.372628 91.8795 
L 185.800774 96.1035 
L 186.226801 100.3275 
L 186.452 102.561522 
L 186.659883 104.5515 
L 187.099489 108.7755 
L 187.53513 112.9995 
L 187.96711 117.2235 
L 188.395696 121.4475 
L 188.821173 125.6715 
L 189.24381 129.8955 
L 189.663848 134.1195 
L 190.081542 138.3435 
L 190.497132 142.5675 
L 190.910853 146.7915 
L 190.986857 147.565541 
L 191.337953 151.0155 
L 191.764675 155.2395 
L 192.187687 159.4635 
L 192.607278 163.6875 
L 193.023704 167.9115 
L 193.437233 172.1355 
L 193.848119 176.3595 
L 194.256615 180.5835 
L 194.66294 184.8075 
L 195.067334 189.0315 
L 195.470022 193.2555 
L 195.521714 193.796085 
L 195.887026 197.4795 
L 196.302688 201.7035 
L 196.714798 205.9275 
L 197.123626 210.1515 
L 197.529442 214.3755 
L 197.932483 218.5995 
L 198.333002 222.8235 
L 198.731235 227.0475 
L 199.127417 231.2715 
L 199.521759 235.4955 
L 199.914485 239.7195 
L 200.056571 241.245819 
L 200.317398 243.9435 
L 200.723629 248.1675 
L 201.126371 252.3915 
L 201.525894 256.6155 
L 201.922456 260.8395 
L 202.316309 265.0635 
L 202.707678 269.2875 
L 203.096802 273.5115 
L 203.483904 277.7355 
L 203.869208 281.9595 
L 204.252916 286.1835 
z
M 254.474857 286.1835 
L 259.009714 286.1835 
L 260.026556 286.1835 
L 259.707401 281.9595 
L 259.388716 277.7355 
L 259.070334 273.5115 
L 259.009714 272.706672 
L 258.731602 269.2875 
L 258.390487 265.0635 
L 258.05183 260.8395 
L 257.715413 256.6155 
L 257.381022 252.3915 
L 257.048451 248.1675 
L 256.717497 243.9435 
L 256.387967 239.7195 
L 256.05966 235.4955 
L 255.732408 231.2715 
L 255.406017 227.0475 
L 255.080311 222.8235 
L 254.755112 218.5995 
L 254.474857 214.955541 
L 254.426485 214.3755 
L 254.075981 210.1515 
L 253.728193 205.9275 
L 253.382881 201.7035 
L 253.039837 197.4795 
L 252.698834 193.2555 
L 252.359664 189.0315 
L 252.022119 184.8075 
L 251.686 180.5835 
L 251.351114 176.3595 
L 251.017268 172.1355 
L 250.684268 167.9115 
L 250.351949 163.6875 
L 250.020121 159.4635 
L 249.94 158.442667 
L 249.667603 155.2395 
L 249.310971 151.0155 
L 248.957017 146.7915 
L 248.605505 142.5675 
L 248.256205 138.3435 
L 247.908897 134.1195 
L 247.563376 129.8955 
L 247.219429 125.6715 
L 246.876853 121.4475 
L 246.535451 117.2235 
L 246.19503 112.9995 
L 245.8554 108.7755 
L 245.516375 104.5515 
L 245.405143 103.164204 
L 245.158265 100.3275 
L 244.793222 96.1035 
L 244.430989 91.8795 
L 244.071323 87.6555 
L 243.713987 83.4315 
L 243.358755 79.2075 
L 243.005406 74.9835 
L 242.653719 70.7595 
L 242.303491 66.5355 
L 241.954524 62.3115 
L 241.606612 58.0875 
L 241.259563 53.8635 
L 240.913184 49.6395 
L 240.870286 49.115858 
L 240.541021 45.4155 
L 240.168099 41.1915 
L 239.798044 36.9675 
L 239.43062 32.7435 
L 239.065581 28.5195 
L 238.702694 24.2955 
L 238.341729 20.0715 
L 236.335429 20.0715 
L 231.800571 20.0715 
L 228.378324 20.0715 
L 228.77589 24.2955 
L 229.179516 28.5195 
L 229.58972 32.7435 
L 230.007047 36.9675 
L 230.432107 41.1915 
L 230.865525 45.4155 
L 231.308 49.6395 
L 231.760289 53.8635 
L 231.800571 54.236481 
L 232.140586 58.0875 
L 232.517493 62.3115 
L 232.899055 66.5355 
L 233.285686 70.7595 
L 233.677815 74.9835 
L 234.075905 79.2075 
L 234.480458 83.4315 
L 234.892009 87.6555 
L 235.311131 91.8795 
L 235.738446 96.1035 
L 236.174624 100.3275 
L 236.335429 101.865835 
L 236.566616 104.5515 
L 236.932835 108.7755 
L 237.303162 112.9995 
L 237.67797 117.2235 
L 238.057642 121.4475 
L 238.4426 125.6715 
L 238.833281 129.8955 
L 239.23016 134.1195 
L 239.633753 138.3435 
L 240.044586 142.5675 
L 240.463252 146.7915 
L 240.870286 150.819377 
L 240.886751 151.0155 
L 241.241942 155.2395 
L 241.60066 159.4635 
L 241.96323 163.6875 
L 242.329996 167.9115 
L 242.701334 172.1355 
L 243.077614 176.3595 
L 243.45926 180.5835 
L 243.846707 184.8075 
L 244.24043 189.0315 
L 244.640932 193.2555 
L 245.048753 197.4795 
L 245.405143 201.107389 
L 245.454024 201.7035 
L 245.801184 205.9275 
L 246.151545 210.1515 
L 246.505418 214.3755 
L 246.863123 218.5995 
L 247.224998 222.8235 
L 247.591399 227.0475 
L 247.96271 231.2715 
L 248.339328 235.4955 
L 248.721697 239.7195 
L 249.110253 243.9435 
L 249.505499 248.1675 
L 249.90796 252.3915 
L 249.94 252.725288 
L 250.252006 256.6155 
L 250.593433 260.8395 
L 250.937971 265.0635 
L 251.285914 269.2875 
L 251.637578 273.5115 
L 251.993268 277.7355 
L 252.353341 281.9595 
L 252.718159 286.1835 
z
M 313.428 53.676652 
L 313.428 49.6395 
L 313.428 45.4155 
L 313.428 41.1915 
L 313.428 36.9675 
L 313.428 32.7435 
L 313.428 28.5195 
L 313.428 24.2955 
L 313.428 20.0715 
L 311.659351 20.0715 
L 311.885633 24.2955 
L 312.110508 28.5195 
L 312.334114 32.7435 
L 312.556586 36.9675 
L 312.778048 41.1915 
L 312.998627 45.4155 
L 313.218443 49.6395 
z
" clip-path="url(#p48ff952cb2)" style="fill: #7b1f59"/>
    <path d="M 27.732 286.1835 
L 27.732 286.1835 
L 27.732 286.1835 
z
M 200.056571 286.1835 
L 204.252916 286.1835 
L 203.869208 281.9595 
L 203.483904 277.7355 
L 203.096802 273.5115 
L 202.707678 269.2875 
L 202.316309 265.0635 
L 201.922456 260.8395 
L 201.525894 256.6155 
L 201.126371 252.3915 
L 200.723629 248.1675 
L 200.317398 243.9435 
L 200.056571 241.245819 
L 199.914485 239.7195 
L 199.521759 235.4955 
L 199.127417 231.2715 
L 198.731235 227.0475 
L 198.333002 222.8235 
L 197.932483 218.5995 
L 197.529442 214.3755 
L 197.123626 210.1515 
L 196.714798 205.9275 
L 196.302688 201.7035 
L 195.887026 197.4795 
L 195.521714 193.796085 
L 195.470022 193.2555 
L 195.067334 189.0315 
L 194.66294 184.8075 
L 194.256615 180.5835 
L 193.848119 176.3595 
L 193.437233 172.1355 
L 193.023704 167.9115 
L 192.607278 163.6875 
L 192.187687 159.4635 
L 191.764675 155.2395 
L 191.337953 151.0155 
L 190.986857 147.565541 
L 190.910853 146.7915 
L 190.497132 142.5675 
L 190.081542 138.3435 
L 189.663848 134.1195 
L 189.24381 129.8955 
L 188.821173 125.6715 
L 188.395696 121.4475 
L 187.96711 117.2235 
L 187.53513 112.9995 
L 187.099489 108.7755 
L 186.659883 104.5515 
L 186.452 102.561522 
L 186.226801 100.3275 
L 185.800774 96.1035 
L 185.372628 91.8795 
L 184.942126 87.6555 
L 184.50901 83.4315 
L 184.073017 79.2075 
L 183.633878 74.9835 
L 183.19132 70.7595 
L 182.745046 66.5355 
L 182.294749 62.3115 
L 181.917143 58.79645 
L 181.843499 58.0875 
L 181.405804 53.8635 
L 180.965907 49.6395 
L 180.523555 45.4155 
L 180.078482 41.1915 
L 179.630431 36.9675 
L 179.179116 32.7435 
L 178.72424 28.5195 
L 178.265518 24.2955 
L 177.802631 20.0715 
L 177.382286 20.0715 
L 172.847429 20.0715 
L 168.312571 20.0715 
L 167.088862 20.0715 
L 167.606416 24.2955 
L 168.123631 28.5195 
L 168.312571 30.059757 
L 168.636058 32.7435 
L 169.144119 36.9675 
L 169.650369 41.1915 
L 170.155077 45.4155 
L 170.658499 49.6395 
L 171.160889 53.8635 
L 171.662506 58.0875 
L 172.163606 62.3115 
L 172.664445 66.5355 
L 172.847429 68.075821 
L 173.161023 70.7595 
L 173.653556 74.9835 
L 174.144338 79.2075 
L 174.63361 83.4315 
L 175.121632 87.6555 
L 175.608653 91.8795 
L 176.094922 96.1035 
L 176.580692 100.3275 
L 177.066194 104.5515 
L 177.382286 107.298733 
L 177.549684 108.7755 
L 178.028158 112.9995 
L 178.504843 117.2235 
L 178.979993 121.4475 
L 179.453856 125.6715 
L 179.926674 129.8955 
L 180.398695 134.1195 
L 180.870145 138.3435 
L 181.341268 142.5675 
L 181.81231 146.7915 
L 181.917143 147.729179 
L 182.279116 151.0155 
L 182.743043 155.2395 
L 183.205336 159.4635 
L 183.666243 163.6875 
L 184.125986 167.9115 
L 184.584808 172.1355 
L 185.042943 176.3595 
L 185.500629 180.5835 
L 185.958084 184.8075 
L 186.415545 189.0315 
L 186.452 189.367071 
L 186.868388 193.2555 
L 187.319108 197.4795 
L 187.768259 201.7035 
L 188.21608 205.9275 
L 188.662802 210.1515 
L 189.108661 214.3755 
L 189.553869 218.5995 
L 189.998658 222.8235 
L 190.443254 227.0475 
L 190.887886 231.2715 
L 190.986857 232.209179 
L 191.329157 235.4955 
L 191.767855 239.7195 
L 192.20499 243.9435 
L 192.640798 248.1675 
L 193.075489 252.3915 
L 193.509292 256.6155 
L 193.942429 260.8395 
L 194.375125 265.0635 
L 194.807586 269.2875 
L 195.240037 273.5115 
L 195.521714 276.258797 
L 195.671394 277.7355 
L 196.099221 281.9595 
L 196.525415 286.1835 
z
M 263.544571 286.1835 
L 266.440521 286.1835 
L 266.140036 281.9595 
L 265.83933 277.7355 
L 265.538252 273.5115 
L 265.236641 269.2875 
L 264.93436 265.0635 
L 264.631246 260.8395 
L 264.327141 256.6155 
L 264.021886 252.3915 
L 263.715321 248.1675 
L 263.544571 245.820154 
L 263.407534 243.9435 
L 263.100099 239.7195 
L 262.793174 235.4955 
L 262.486623 231.2715 
L 262.180281 227.0475 
L 261.873995 222.8235 
L 261.567609 218.5995 
L 261.260969 214.3755 
L 260.95392 210.1515 
L 260.646306 205.9275 
L 260.337961 201.7035 
L 260.028745 197.4795 
L 259.718487 193.2555 
L 259.407026 189.0315 
L 259.094197 184.8075 
L 259.009714 183.667552 
L 258.780401 180.5835 
L 258.467116 176.3595 
L 258.154286 172.1355 
L 257.841742 167.9115 
L 257.529345 163.6875 
L 257.216929 159.4635 
L 256.904336 155.2395 
L 256.591408 151.0155 
L 256.277987 146.7915 
L 255.963912 142.5675 
L 255.649022 138.3435 
L 255.333151 134.1195 
L 255.016146 129.8955 
L 254.697833 125.6715 
L 254.474857 122.721275 
L 254.378091 121.4475 
L 254.058314 117.2235 
L 253.739039 112.9995 
L 253.420104 108.7755 
L 253.101337 104.5515 
L 252.782597 100.3275 
L 252.463714 96.1035 
L 252.144527 91.8795 
L 251.824874 87.6555 
L 251.504593 83.4315 
L 251.18352 79.2075 
L 250.86149 74.9835 
L 250.538336 70.7595 
L 250.213877 66.5355 
L 249.94 62.982806 
L 249.887937 62.3115 
L 249.561569 58.0875 
L 249.235704 53.8635 
L 248.910176 49.6395 
L 248.58482 45.4155 
L 248.259474 41.1915 
L 247.933967 36.9675 
L 247.608142 32.7435 
L 247.281837 28.5195 
L 246.954881 24.2955 
L 246.627108 20.0715 
L 245.405143 20.0715 
L 240.870286 20.0715 
L 238.341729 20.0715 
L 238.702694 24.2955 
L 239.065581 28.5195 
L 239.43062 32.7435 
L 239.798044 36.9675 
L 240.168099 41.1915 
L 240.541021 45.4155 
L 240.870286 49.115858 
L 240.913184 49.6395 
L 241.259563 53.8635 
L 241.606612 58.0875 
L 241.954524 62.3115 
L 242.303491 66.5355 
L 242.653719 70.7595 
L 243.005406 74.9835 
L 243.358755 79.2075 
L 243.713987 83.4315 
L 244.071323 87.6555 
L 244.430989 91.8795 
L 244.793222 96.1035 
L 245.158265 100.3275 
L 245.405143 103.164204 
L 245.516375 104.5515 
L 245.8554 108.7755 
L 246.19503 112.9995 
L 246.535451 117.2235 
L 246.876853 121.4475 
L 247.219429 125.6715 
L 247.563376 129.8955 
L 247.908897 134.1195 
L 248.256205 138.3435 
L 248.605505 142.5675 
L 248.957017 146.7915 
L 249.310971 151.0155 
L 249.667603 155.2395 
L 249.94 158.442667 
L 250.020121 159.4635 
L 250.351949 163.6875 
L 250.684268 167.9115 
L 251.017268 172.1355 
L 251.351114 176.3595 
L 251.686 180.5835 
L 252.022119 184.8075 
L 252.359664 189.0315 
L 252.698834 193.2555 
L 253.039837 197.4795 
L 253.382881 201.7035 
L 253.728193 205.9275 
L 254.075981 210.1515 
L 254.426485 214.3755 
L 254.474857 214.955541 
L 254.755112 218.5995 
L 255.080311 222.8235 
L 255.406017 227.0475 
L 255.732408 231.2715 
L 256.05966 235.4955 
L 256.387967 239.7195 
L 256.717497 243.9435 
L 257.048451 248.1675 
L 257.381022 252.3915 
L 257.715413 256.6155 
L 258.05183 260.8395 
L 258.390487 265.0635 
L 258.731602 269.2875 
L 259.009714 272.706672 
L 259.070334 273.5115 
L 259.388716 277.7355 
L 259.707401 281.9595 
L 260.026556 286.1835 
z
M 313.428 173.142644 
L 313.428 172.1355 
L 313.428 167.9115 
L 313.428 163.6875 
L 313.428 159.4635 
L 313.428 155.2395 
L 313.428 151.0155 
L 313.428 146.7915 
L 313.428 142.5675 
L 313.428 138.3435 
L 313.428 134.1195 
L 313.428 129.8955 
L 313.428 125.6715 
L 313.428 121.4475 
L 313.428 117.2235 
L 313.428 112.9995 
L 313.428 108.7755 
L 313.428 104.5515 
L 313.428 100.3275 
L 313.428 96.1035 
L 313.428 91.8795 
L 313.428 87.6555 
L 313.428 83.4315 
L 313.428 79.2075 
L 313.428 74.9835 
L 313.428 70.7595 
L 313.428 66.5355 
L 313.428 62.3115 
L 313.428 58.0875 
L 313.428 53.8635 
L 313.428 53.676652 
L 313.218443 49.6395 
L 312.998627 45.4155 
L 312.778048 41.1915 
L 312.556586 36.9675 
L 312.334114 32.7435 
L 312.110508 28.5195 
L 311.885633 24.2955 
L 311.659351 20.0715 
L 308.893143 20.0715 
L 304.358286 20.0715 
L 304.145304 20.0715 
L 304.358286 23.492481 
L 304.40831 24.2955 
L 304.671297 28.5195 
L 304.932986 32.7435 
L 305.193519 36.9675 
L 305.453033 41.1915 
L 305.711666 45.4155 
L 305.96955 49.6395 
L 306.226825 53.8635 
L 306.483618 58.0875 
L 306.740049 62.3115 
L 306.996256 66.5355 
L 307.252369 70.7595 
L 307.508516 74.9835 
L 307.764826 79.2075 
L 308.02143 83.4315 
L 308.278457 87.6555 
L 308.536039 91.8795 
L 308.794306 96.1035 
L 308.893143 97.713411 
L 309.053486 100.3275 
L 309.311796 104.5515 
L 309.568875 108.7755 
L 309.824859 112.9995 
L 310.079885 117.2235 
L 310.33409 121.4475 
L 310.587606 125.6715 
L 310.840548 129.8955 
L 311.093055 134.1195 
L 311.345255 138.3435 
L 311.597276 142.5675 
L 311.849244 146.7915 
L 312.101287 151.0155 
L 312.353532 155.2395 
L 312.606106 159.4635 
L 312.859138 163.6875 
L 313.112756 167.9115 
L 313.367091 172.1355 
z
" clip-path="url(#p48ff952cb2)" style="fill: #b21758"/>
    <path d="M 32.266857 286.1835 
L 36.801714 286.1835 
L 41.336571 286.1835 
L 45.871429 286.1835 
L 50.406286 286.1835 
L 54.941143 286.1835 
L 59.476 286.1835 
L 64.010857 286.1835 
L 68.545714 286.1835 
L 72.538239 286.1835 
L 70.868998 281.9595 
L 69.181296 277.7355 
L 68.545714 276.152179 
L 67.375426 273.5115 
L 65.489186 269.2875 
L 64.010857 266.008863 
L 63.532151 265.0635 
L 61.384834 260.8395 
L 59.476 257.12889 
L 59.172822 256.6155 
L 56.669148 252.3915 
L 54.941143 249.507814 
L 53.991307 248.1675 
L 50.974679 243.9435 
L 50.406286 243.152463 
L 47.360558 239.7195 
L 45.871429 238.055027 
L 42.851112 235.4955 
L 41.336571 234.220146 
L 36.801714 231.646365 
L 35.517061 231.2715 
L 32.266857 230.325367 
L 27.732 230.262294 
L 27.732 231.2715 
L 27.732 235.4955 
L 27.732 239.7195 
L 27.732 243.9435 
L 27.732 248.1675 
L 27.732 252.3915 
L 27.732 256.6155 
L 27.732 260.8395 
L 27.732 265.0635 
L 27.732 269.2875 
L 27.732 273.5115 
L 27.732 277.7355 
L 27.732 281.9595 
L 27.732 286.1835 
L 27.732 286.1835 
z
M 190.986857 286.1835 
L 195.521714 286.1835 
L 196.525415 286.1835 
L 196.099221 281.9595 
L 195.671394 277.7355 
L 195.521714 276.258797 
L 195.240037 273.5115 
L 194.807586 269.2875 
L 194.375125 265.0635 
L 193.942429 260.8395 
L 193.509292 256.6155 
L 193.075489 252.3915 
L 192.640798 248.1675 
L 192.20499 243.9435 
L 191.767855 239.7195 
L 191.329157 235.4955 
L 190.986857 232.209179 
L 190.887886 231.2715 
L 190.443254 227.0475 
L 189.998658 222.8235 
L 189.553869 218.5995 
L 189.108661 214.3755 
L 188.662802 210.1515 
L 188.21608 205.9275 
L 187.768259 201.7035 
L 187.319108 197.4795 
L 186.868388 193.2555 
L 186.452 189.367071 
L 186.415545 189.0315 
L 185.958084 184.8075 
L 185.500629 180.5835 
L 185.042943 176.3595 
L 184.584808 172.1355 
L 184.125986 167.9115 
L 183.666243 163.6875 
L 183.205336 159.4635 
L 182.743043 155.2395 
L 182.279116 151.0155 
L 181.917143 147.729179 
L 181.81231 146.7915 
L 181.341268 142.5675 
L 180.870145 138.3435 
L 180.398695 134.1195 
L 179.926674 129.8955 
L 179.453856 125.6715 
L 178.979993 121.4475 
L 178.504843 117.2235 
L 178.028158 112.9995 
L 177.549684 108.7755 
L 177.382286 107.298733 
L 177.066194 104.5515 
L 176.580692 100.3275 
L 176.094922 96.1035 
L 175.608653 91.8795 
L 175.121632 87.6555 
L 174.63361 83.4315 
L 174.144338 79.2075 
L 173.653556 74.9835 
L 173.161023 70.7595 
L 172.847429 68.075821 
L 172.664445 66.5355 
L 172.163606 62.3115 
L 171.662506 58.0875 
L 171.160889 53.8635 
L 170.658499 49.6395 
L 170.155077 45.4155 
L 169.650369 41.1915 
L 169.144119 36.9675 
L 168.636058 32.7435 
L 168.312571 30.059757 
L 168.123631 28.5195 
L 167.606416 24.2955 
L 167.088862 20.0715 
L 163.777714 20.0715 
L 159.242857 20.0715 
L 156.040301 20.0715 
L 156.617832 24.2955 
L 157.196864 28.5195 
L 157.777725 32.7435 
L 158.360748 36.9675 
L 158.946255 41.1915 
L 159.242857 43.323028 
L 159.517987 45.4155 
L 160.074005 49.6395 
L 160.630879 53.8635 
L 161.188918 58.0875 
L 161.748415 62.3115 
L 162.30969 66.5355 
L 162.873053 70.7595 
L 163.438829 74.9835 
L 163.777714 77.503271 
L 163.994398 79.2075 
L 164.532025 83.4315 
L 165.070408 87.6555 
L 165.609835 91.8795 
L 166.150605 96.1035 
L 166.69301 100.3275 
L 167.237353 104.5515 
L 167.783947 108.7755 
L 168.312571 112.841789 
L 168.331975 112.9995 
L 168.852238 117.2235 
L 169.373074 121.4475 
L 169.894766 125.6715 
L 170.417601 129.8955 
L 170.94186 134.1195 
L 171.467831 138.3435 
L 171.995816 142.5675 
L 172.526124 146.7915 
L 172.847429 149.340071 
L 173.047249 151.0155 
L 173.551524 155.2395 
L 174.056405 159.4635 
L 174.562167 163.6875 
L 175.069071 167.9115 
L 175.577399 172.1355 
L 176.087436 176.3595 
L 176.599476 180.5835 
L 177.113801 184.8075 
L 177.382286 187.003409 
L 177.616901 189.0315 
L 178.105997 193.2555 
L 178.595655 197.4795 
L 179.086121 201.7035 
L 179.577667 205.9275 
L 180.070561 210.1515 
L 180.565082 214.3755 
L 181.061498 218.5995 
L 181.560097 222.8235 
L 181.917143 225.834905 
L 182.053283 227.0475 
L 182.527968 231.2715 
L 183.00308 235.4955 
L 183.47888 239.7195 
L 183.955622 243.9435 
L 184.433569 248.1675 
L 184.912972 252.3915 
L 185.394106 256.6155 
L 185.877244 260.8395 
L 186.362672 265.0635 
L 186.452 265.837917 
L 186.828466 269.2875 
L 187.289761 273.5115 
L 187.751552 277.7355 
L 188.214089 281.9595 
L 188.677609 286.1835 
z
M 268.079429 286.1835 
L 272.614286 286.1835 
L 272.851668 286.1835 
L 272.614286 282.740915 
L 272.564484 281.9595 
L 272.296285 277.7355 
L 272.027355 273.5115 
L 271.757547 269.2875 
L 271.486733 265.0635 
L 271.214757 260.8395 
L 270.941467 256.6155 
L 270.666705 252.3915 
L 270.390311 248.1675 
L 270.11212 243.9435 
L 269.831957 239.7195 
L 269.549637 235.4955 
L 269.264992 231.2715 
L 268.97782 227.0475 
L 268.687921 222.8235 
L 268.395084 218.5995 
L 268.09909 214.3755 
L 268.079429 214.094867 
L 267.825388 210.1515 
L 267.552623 205.9275 
L 267.278922 201.7035 
L 267.004152 197.4795 
L 266.728154 193.2555 
L 266.450771 189.0315 
L 266.171845 184.8075 
L 265.891209 180.5835 
L 265.608691 176.3595 
L 265.324115 172.1355 
L 265.037287 167.9115 
L 264.748037 163.6875 
L 264.456154 159.4635 
L 264.161429 155.2395 
L 263.863649 151.0155 
L 263.562583 146.7915 
L 263.544571 146.538718 
L 263.28491 142.5675 
L 263.007964 138.3435 
L 262.729997 134.1195 
L 262.450848 129.8955 
L 262.17036 125.6715 
L 261.888373 121.4475 
L 261.60472 117.2235 
L 261.319229 112.9995 
L 261.031725 108.7755 
L 260.742019 104.5515 
L 260.449914 100.3275 
L 260.155227 96.1035 
L 259.857741 91.8795 
L 259.557239 87.6555 
L 259.253492 83.4315 
L 259.009714 80.071108 
L 258.952163 79.2075 
L 258.671648 74.9835 
L 258.390103 70.7595 
L 258.107388 66.5355 
L 257.823339 62.3115 
L 257.537793 58.0875 
L 257.250581 53.8635 
L 256.961529 49.6395 
L 256.670457 45.4155 
L 256.377179 41.1915 
L 256.081494 36.9675 
L 255.783208 32.7435 
L 255.482111 28.5195 
L 255.177978 24.2955 
L 254.87058 20.0715 
L 254.474857 20.0715 
L 249.94 20.0715 
L 246.627108 20.0715 
L 246.954881 24.2955 
L 247.281837 28.5195 
L 247.608142 32.7435 
L 247.933967 36.9675 
L 248.259474 41.1915 
L 248.58482 45.4155 
L 248.910176 49.6395 
L 249.235704 53.8635 
L 249.561569 58.0875 
L 249.887937 62.3115 
L 249.94 62.982806 
L 250.213877 66.5355 
L 250.538336 70.7595 
L 250.86149 74.9835 
L 251.18352 79.2075 
L 251.504593 83.4315 
L 251.824874 87.6555 
L 252.144527 91.8795 
L 252.463714 96.1035 
L 252.782597 100.3275 
L 253.101337 104.5515 
L 253.420104 108.7755 
L 253.739039 112.9995 
L 254.058314 117.2235 
L 254.378091 121.4475 
L 254.474857 122.721275 
L 254.697833 125.6715 
L 255.016146 129.8955 
L 255.333151 134.1195 
L 255.649022 138.3435 
L 255.963912 142.5675 
L 256.277987 146.7915 
L 256.591408 151.0155 
L 256.904336 155.2395 
L 257.216929 159.4635 
L 257.529345 163.6875 
L 257.841742 167.9115 
L 258.154286 172.1355 
L 258.467116 176.3595 
L 258.780401 180.5835 
L 259.009714 183.667552 
L 259.094197 184.8075 
L 259.407026 189.0315 
L 259.718487 193.2555 
L 260.028745 197.4795 
L 260.337961 201.7035 
L 260.646306 205.9275 
L 260.95392 210.1515 
L 261.260969 214.3755 
L 261.567609 218.5995 
L 261.873995 222.8235 
L 262.180281 227.0475 
L 262.486623 231.2715 
L 262.793174 235.4955 
L 263.100099 239.7195 
L 263.407534 243.9435 
L 263.544571 245.820154 
L 263.715321 248.1675 
L 264.021886 252.3915 
L 264.327141 256.6155 
L 264.631246 260.8395 
L 264.93436 265.0635 
L 265.236641 269.2875 
L 265.538252 273.5115 
L 265.83933 277.7355 
L 266.140036 281.9595 
L 266.440521 286.1835 
z
M 313.428 273.413429 
L 313.428 269.2875 
L 313.428 265.0635 
L 313.428 260.8395 
L 313.428 256.6155 
L 313.428 252.3915 
L 313.428 248.1675 
L 313.428 243.9435 
L 313.428 239.7195 
L 313.428 235.4955 
L 313.428 231.2715 
L 313.428 227.0475 
L 313.428 222.8235 
L 313.428 218.5995 
L 313.428 214.3755 
L 313.428 210.1515 
L 313.428 205.9275 
L 313.428 201.7035 
L 313.428 197.4795 
L 313.428 193.2555 
L 313.428 189.0315 
L 313.428 184.8075 
L 313.428 180.5835 
L 313.428 176.3595 
L 313.428 173.142644 
L 313.367091 172.1355 
L 313.112756 167.9115 
L 312.859138 163.6875 
L 312.606106 159.4635 
L 312.353532 155.2395 
L 312.101287 151.0155 
L 311.849244 146.7915 
L 311.597276 142.5675 
L 311.345255 138.3435 
L 311.093055 134.1195 
L 310.840548 129.8955 
L 310.587606 125.6715 
L 310.33409 121.4475 
L 310.079885 117.2235 
L 309.824859 112.9995 
L 309.568875 108.7755 
L 309.311796 104.5515 
L 309.053486 100.3275 
L 308.893143 97.713411 
L 308.794306 96.1035 
L 308.536039 91.8795 
L 308.278457 87.6555 
L 308.02143 83.4315 
L 307.764826 79.2075 
L 307.508516 74.9835 
L 307.252369 70.7595 
L 306.996256 66.5355 
L 306.740049 62.3115 
L 306.483618 58.0875 
L 306.226825 53.8635 
L 305.96955 49.6395 
L 305.711666 45.4155 
L 305.453033 41.1915 
L 305.193519 36.9675 
L 304.932986 32.7435 
L 304.671297 28.5195 
L 304.40831 24.2955 
L 304.358286 23.492481 
L 304.145304 20.0715 
L 299.823429 20.0715 
L 296.704175 20.0715 
L 296.985603 24.2955 
L 297.268543 28.5195 
L 297.553174 32.7435 
L 297.839683 36.9675 
L 298.128263 41.1915 
L 298.419113 45.4155 
L 298.71244 49.6395 
L 299.008465 53.8635 
L 299.30742 58.0875 
L 299.609516 62.3115 
L 299.823429 65.274571 
L 299.904437 66.5355 
L 300.176065 70.7595 
L 300.448287 74.9835 
L 300.721258 79.2075 
L 300.995132 83.4315 
L 301.270069 87.6555 
L 301.546233 91.8795 
L 301.823792 96.1035 
L 302.102919 100.3275 
L 302.383793 104.5515 
L 302.666598 108.7755 
L 302.951527 112.9995 
L 303.238777 117.2235 
L 303.528569 121.4475 
L 303.821088 125.6715 
L 304.116574 129.8955 
L 304.358286 133.317473 
L 304.408922 134.1195 
L 304.675793 138.3435 
L 304.943129 142.5675 
L 305.211079 146.7915 
L 305.479792 151.0155 
L 305.749421 155.2395 
L 306.020125 159.4635 
L 306.292063 163.6875 
L 306.5654 167.9115 
L 306.840308 172.1355 
L 307.116961 176.3595 
L 307.395542 180.5835 
L 307.676238 184.8075 
L 307.959259 189.0315 
L 308.244777 193.2555 
L 308.533018 197.4795 
L 308.824204 201.7035 
L 308.893143 202.696998 
L 309.093721 205.9275 
L 309.356258 210.1515 
L 309.619237 214.3755 
L 309.882802 218.5995 
L 310.147099 222.8235 
L 310.412281 227.0475 
L 310.678498 231.2715 
L 310.945908 235.4955 
L 311.214674 239.7195 
L 311.484958 243.9435 
L 311.756935 248.1675 
L 312.030779 252.3915 
L 312.306689 256.6155 
L 312.584824 260.8395 
L 312.865395 265.0635 
L 313.148607 269.2875 
z
" clip-path="url(#p48ff952cb2)" style="fill: #df2f44"/>
    <path d="M 73.080571 286.1835 
L 77.615429 286.1835 
L 82.150286 286.1835 
L 86.685143 286.1835 
L 91.22 286.1835 
L 93.505217 286.1835 
L 92.437744 281.9595 
L 91.355271 277.7355 
L 91.22 277.208253 
L 90.236601 273.5115 
L 89.10036 269.2875 
L 87.948496 265.0635 
L 86.77989 260.8395 
L 86.685143 260.497273 
L 85.560767 256.6155 
L 84.321882 252.3915 
L 83.064975 248.1675 
L 82.150286 245.126536 
L 81.773974 243.9435 
L 80.425799 239.7195 
L 79.057534 235.4955 
L 77.66775 231.2715 
L 77.615429 231.112579 
L 76.183639 227.0475 
L 74.673468 222.8235 
L 73.138386 218.5995 
L 73.080571 218.440579 
L 71.475871 214.3755 
L 69.781346 210.1515 
L 68.545714 207.110536 
L 68.015068 205.9275 
L 66.109586 201.7035 
L 64.168579 197.4795 
L 64.010857 197.137273 
L 61.993223 193.2555 
L 59.756488 189.0315 
L 59.476 188.504253 
L 57.195432 184.8075 
L 54.941143 181.215763 
L 54.463528 180.5835 
L 51.246854 176.3595 
L 50.406286 175.267274 
L 47.334631 172.1355 
L 45.871429 170.658446 
L 42.064017 167.9115 
L 41.336571 167.389989 
L 36.801714 165.444611 
L 32.266857 164.832212 
L 27.732 165.539119 
L 27.732 167.9115 
L 27.732 172.1355 
L 27.732 176.3595 
L 27.732 180.5835 
L 27.732 184.8075 
L 27.732 189.0315 
L 27.732 193.2555 
L 27.732 197.4795 
L 27.732 201.7035 
L 27.732 205.9275 
L 27.732 210.1515 
L 27.732 214.3755 
L 27.732 218.5995 
L 27.732 222.8235 
L 27.732 227.0475 
L 27.732 230.262294 
L 32.266857 230.325367 
L 35.517061 231.2715 
L 36.801714 231.646365 
L 41.336571 234.220146 
L 42.851112 235.4955 
L 45.871429 238.055027 
L 47.360558 239.7195 
L 50.406286 243.152463 
L 50.974679 243.9435 
L 53.991307 248.1675 
L 54.941143 249.507814 
L 56.669148 252.3915 
L 59.172822 256.6155 
L 59.476 257.12889 
L 61.384834 260.8395 
L 63.532151 265.0635 
L 64.010857 266.008863 
L 65.489186 269.2875 
L 67.375426 273.5115 
L 68.545714 276.152179 
L 69.181296 277.7355 
L 70.868998 281.9595 
L 72.538239 286.1835 
z
M 181.917143 286.1835 
L 186.452 286.1835 
L 188.677609 286.1835 
L 188.214089 281.9595 
L 187.751552 277.7355 
L 187.289761 273.5115 
L 186.828466 269.2875 
L 186.452 265.837917 
L 186.362672 265.0635 
L 185.877244 260.8395 
L 185.394106 256.6155 
L 184.912972 252.3915 
L 184.433569 248.1675 
L 183.955622 243.9435 
L 183.47888 239.7195 
L 183.00308 235.4955 
L 182.527968 231.2715 
L 182.053283 227.0475 
L 181.917143 225.834905 
L 181.560097 222.8235 
L 181.061498 218.5995 
L 180.565082 214.3755 
L 180.070561 210.1515 
L 179.577667 205.9275 
L 179.086121 201.7035 
L 178.595655 197.4795 
L 178.105997 193.2555 
L 177.616901 189.0315 
L 177.382286 187.003409 
L 177.113801 184.8075 
L 176.599476 180.5835 
L 176.087436 176.3595 
L 175.577399 172.1355 
L 175.069071 167.9115 
L 174.562167 163.6875 
L 174.056405 159.4635 
L 173.551524 155.2395 
L 173.047249 151.0155 
L 172.847429 149.340071 
L 172.526124 146.7915 
L 171.995816 142.5675 
L 171.467831 138.3435 
L 170.94186 134.1195 
L 170.417601 129.8955 
L 169.894766 125.6715 
L 169.373074 121.4475 
L 168.852238 117.2235 
L 168.331975 112.9995 
L 168.312571 112.841789 
L 167.783947 108.7755 
L 167.237353 104.5515 
L 166.69301 100.3275 
L 166.150605 96.1035 
L 165.609835 91.8795 
L 165.070408 87.6555 
L 164.532025 83.4315 
L 163.994398 79.2075 
L 163.777714 77.503271 
L 163.438829 74.9835 
L 162.873053 70.7595 
L 162.30969 66.5355 
L 161.748415 62.3115 
L 161.188918 58.0875 
L 160.630879 53.8635 
L 160.074005 49.6395 
L 159.517987 45.4155 
L 159.242857 43.323028 
L 158.946255 41.1915 
L 158.360748 36.9675 
L 157.777725 32.7435 
L 157.196864 28.5195 
L 156.617832 24.2955 
L 156.040301 20.0715 
L 154.708 20.0715 
L 150.173143 20.0715 
L 145.638286 20.0715 
L 143.11754 20.0715 
L 143.794758 24.2955 
L 144.479061 28.5195 
L 145.171063 32.7435 
L 145.638286 35.569536 
L 145.848023 36.9675 
L 146.48397 41.1915 
L 147.125158 45.4155 
L 147.7721 49.6395 
L 148.425334 53.8635 
L 149.085417 58.0875 
L 149.752939 62.3115 
L 150.173143 64.947252 
L 150.402726 66.5355 
L 151.015585 70.7595 
L 151.633384 74.9835 
L 152.256613 79.2075 
L 152.885785 83.4315 
L 153.521434 87.6555 
L 154.164109 91.8795 
L 154.708 95.417113 
L 154.803671 96.1035 
L 155.393794 100.3275 
L 155.988467 104.5515 
L 156.588144 108.7755 
L 157.193291 112.9995 
L 157.804414 117.2235 
L 158.422039 121.4475 
L 159.04672 125.6715 
L 159.242857 126.989357 
L 159.634256 129.8955 
L 160.206222 134.1195 
L 160.782673 138.3435 
L 161.364039 142.5675 
L 161.950795 146.7915 
L 162.543415 151.0155 
L 163.142417 155.2395 
L 163.748333 159.4635 
L 163.777714 159.667439 
L 164.301214 163.6875 
L 164.855014 167.9115 
L 165.413116 172.1355 
L 165.975936 176.3595 
L 166.543936 180.5835 
L 167.117559 184.8075 
L 167.697304 189.0315 
L 168.283685 193.2555 
L 168.312571 193.462672 
L 168.818639 197.4795 
L 169.354296 201.7035 
L 169.893968 205.9275 
L 170.43806 210.1515 
L 170.986997 214.3755 
L 171.541211 218.5995 
L 172.101169 222.8235 
L 172.667357 227.0475 
L 172.847429 228.382309 
L 173.19979 231.2715 
L 173.717434 235.4955 
L 174.238725 239.7195 
L 174.764041 243.9435 
L 175.293786 248.1675 
L 175.828358 252.3915 
L 176.368196 256.6155 
L 176.913753 260.8395 
L 177.382286 264.430398 
L 177.457069 265.0635 
L 177.957009 269.2875 
L 178.460155 273.5115 
L 178.966864 277.7355 
L 179.477506 281.9595 
L 179.992453 286.1835 
z
M 272.614286 282.740915 
L 272.851668 286.1835 
L 277.149143 286.1835 
L 280.353898 286.1835 
L 280.124988 281.9595 
L 279.893619 277.7355 
L 279.659572 273.5115 
L 279.422602 269.2875 
L 279.182473 265.0635 
L 278.938911 260.8395 
L 278.691615 256.6155 
L 278.440273 252.3915 
L 278.184539 248.1675 
L 277.924041 243.9435 
L 277.658373 239.7195 
L 277.387078 235.4955 
L 277.149143 231.859617 
L 277.118781 231.2715 
L 276.902408 227.0475 
L 276.684548 222.8235 
L 276.465039 218.5995 
L 276.243711 214.3755 
L 276.020379 210.1515 
L 275.794854 205.9275 
L 275.566915 201.7035 
L 275.336361 197.4795 
L 275.102939 193.2555 
L 274.866397 189.0315 
L 274.62645 184.8075 
L 274.382799 180.5835 
L 274.135117 176.3595 
L 273.883045 172.1355 
L 273.626182 167.9115 
L 273.364122 163.6875 
L 273.096384 159.4635 
L 272.822447 155.2395 
L 272.614286 152.08512 
L 272.559904 151.0155 
L 272.346607 146.7915 
L 272.131765 142.5675 
L 271.915204 138.3435 
L 271.69676 134.1195 
L 271.476231 129.8955 
L 271.253413 125.6715 
L 271.028082 121.4475 
L 270.799993 117.2235 
L 270.568893 112.9995 
L 270.334492 108.7755 
L 270.096478 104.5515 
L 269.854521 100.3275 
L 269.608257 96.1035 
L 269.35727 91.8795 
L 269.101115 87.6555 
L 268.839297 83.4315 
L 268.571262 79.2075 
L 268.296399 74.9835 
L 268.079429 71.715029 
L 268.031977 70.7595 
L 267.824048 66.5355 
L 267.614623 62.3115 
L 267.403525 58.0875 
L 267.190566 53.8635 
L 266.975548 49.6395 
L 266.758258 45.4155 
L 266.538459 41.1915 
L 266.31589 36.9675 
L 266.090282 32.7435 
L 265.861334 28.5195 
L 265.628702 24.2955 
L 265.392014 20.0715 
L 263.544571 20.0715 
L 259.009714 20.0715 
L 254.87058 20.0715 
L 255.177978 24.2955 
L 255.482111 28.5195 
L 255.783208 32.7435 
L 256.081494 36.9675 
L 256.377179 41.1915 
L 256.670457 45.4155 
L 256.961529 49.6395 
L 257.250581 53.8635 
L 257.537793 58.0875 
L 257.823339 62.3115 
L 258.107388 66.5355 
L 258.390103 70.7595 
L 258.671648 74.9835 
L 258.952163 79.2075 
L 259.009714 80.071108 
L 259.253492 83.4315 
L 259.557239 87.6555 
L 259.857741 91.8795 
L 260.155227 96.1035 
L 260.449914 100.3275 
L 260.742019 104.5515 
L 261.031725 108.7755 
L 261.319229 112.9995 
L 261.60472 117.2235 
L 261.888373 121.4475 
L 262.17036 125.6715 
L 262.450848 129.8955 
L 262.729997 134.1195 
L 263.007964 138.3435 
L 263.28491 142.5675 
L 263.544571 146.538718 
L 263.562583 146.7915 
L 263.863649 151.0155 
L 264.161429 155.2395 
L 264.456154 159.4635 
L 264.748037 163.6875 
L 265.037287 167.9115 
L 265.324115 172.1355 
L 265.608691 176.3595 
L 265.891209 180.5835 
L 266.171845 184.8075 
L 266.450771 189.0315 
L 266.728154 193.2555 
L 267.004152 197.4795 
L 267.278922 201.7035 
L 267.552623 205.9275 
L 267.825388 210.1515 
L 268.079429 214.094867 
L 268.09909 214.3755 
L 268.395084 218.5995 
L 268.687921 222.8235 
L 268.97782 227.0475 
L 269.264992 231.2715 
L 269.549637 235.4955 
L 269.831957 239.7195 
L 270.11212 243.9435 
L 270.390311 248.1675 
L 270.666705 252.3915 
L 270.941467 256.6155 
L 271.214757 260.8395 
L 271.486733 265.0635 
L 271.757547 269.2875 
L 272.027355 273.5115 
L 272.296285 277.7355 
L 272.564484 281.9595 
z
M 308.893143 286.1835 
L 313.428 286.1835 
L 313.428 281.9595 
L 313.428 277.7355 
L 313.428 273.5115 
L 313.428 273.413429 
L 313.148607 269.2875 
L 312.865395 265.0635 
L 312.584824 260.8395 
L 312.306689 256.6155 
L 312.030779 252.3915 
L 311.756935 248.1675 
L 311.484958 243.9435 
L 311.214674 239.7195 
L 310.945908 235.4955 
L 310.678498 231.2715 
L 310.412281 227.0475 
L 310.147099 222.8235 
L 309.882802 218.5995 
L 309.619237 214.3755 
L 309.356258 210.1515 
L 309.093721 205.9275 
L 308.893143 202.696998 
L 308.824204 201.7035 
L 308.533018 197.4795 
L 308.244777 193.2555 
L 307.959259 189.0315 
L 307.676238 184.8075 
L 307.395542 180.5835 
L 307.116961 176.3595 
L 306.840308 172.1355 
L 306.5654 167.9115 
L 306.292063 163.6875 
L 306.020125 159.4635 
L 305.749421 155.2395 
L 305.479792 151.0155 
L 305.211079 146.7915 
L 304.943129 142.5675 
L 304.675793 138.3435 
L 304.408922 134.1195 
L 304.358286 133.317473 
L 304.116574 129.8955 
L 303.821088 125.6715 
L 303.528569 121.4475 
L 303.238777 117.2235 
L 302.951527 112.9995 
L 302.666598 108.7755 
L 302.383793 104.5515 
L 302.102919 100.3275 
L 301.823792 96.1035 
L 301.546233 91.8795 
L 301.270069 87.6555 
L 300.995132 83.4315 
L 300.721258 79.2075 
L 300.448287 74.9835 
L 300.176065 70.7595 
L 299.904437 66.5355 
L 299.823429 65.274571 
L 299.609516 62.3115 
L 299.30742 58.0875 
L 299.008465 53.8635 
L 298.71244 49.6395 
L 298.419113 45.4155 
L 298.128263 41.1915 
L 297.839683 36.9675 
L 297.553174 32.7435 
L 297.268543 28.5195 
L 296.985603 24.2955 
L 296.704175 20.0715 
L 295.288571 20.0715 
L 290.753714 20.0715 
L 287.063281 20.0715 
L 287.37433 24.2955 
L 287.691882 28.5195 
L 288.016546 32.7435 
L 288.348975 36.9675 
L 288.689899 41.1915 
L 289.040118 45.4155 
L 289.400519 49.6395 
L 289.772085 53.8635 
L 290.155916 58.0875 
L 290.553236 62.3115 
L 290.753714 64.392302 
L 290.900182 66.5355 
L 291.191191 70.7595 
L 291.48676 74.9835 
L 291.787305 79.2075 
L 292.093266 83.4315 
L 292.405137 87.6555 
L 292.723431 91.8795 
L 293.048728 96.1035 
L 293.381655 100.3275 
L 293.722899 104.5515 
L 294.073221 108.7755 
L 294.433448 112.9995 
L 294.804506 117.2235 
L 295.187415 121.4475 
L 295.288571 122.54491 
L 295.497719 125.6715 
L 295.783101 129.8955 
L 296.072511 134.1195 
L 296.366306 138.3435 
L 296.664873 142.5675 
L 296.968633 146.7915 
L 297.278033 151.0155 
L 297.593566 155.2395 
L 297.91576 159.4635 
L 298.245192 163.6875 
L 298.582495 167.9115 
L 298.928356 172.1355 
L 299.283536 176.3595 
L 299.648863 180.5835 
L 299.823429 182.563649 
L 299.970408 184.8075 
L 300.248934 189.0315 
L 300.530884 193.2555 
L 300.816583 197.4795 
L 301.106363 201.7035 
L 301.400576 205.9275 
L 301.699603 210.1515 
L 302.003861 214.3755 
L 302.313783 218.5995 
L 302.629852 222.8235 
L 302.952585 227.0475 
L 303.282544 231.2715 
L 303.62034 235.4955 
L 303.966642 239.7195 
L 304.322181 243.9435 
L 304.358286 244.367667 
L 304.602349 248.1675 
L 304.876239 252.3915 
L 305.153242 256.6155 
L 305.43361 260.8395 
L 305.717658 265.0635 
L 306.005705 269.2875 
L 306.298088 273.5115 
L 306.595176 277.7355 
L 306.897359 281.9595 
L 307.205058 286.1835 
z
" clip-path="url(#p48ff952cb2)" style="fill: #f26b49"/>
    <path d="M 95.754857 286.1835 
L 100.289714 286.1835 
L 104.824571 286.1835 
L 109.359429 286.1835 
L 112.945799 286.1835 
L 112.193435 281.9595 
L 111.426706 277.7355 
L 110.644351 273.5115 
L 109.845 269.2875 
L 109.359429 266.753379 
L 109.045235 265.0635 
L 108.25663 260.8395 
L 107.453036 256.6155 
L 106.633131 252.3915 
L 105.795448 248.1675 
L 104.938407 243.9435 
L 104.824571 243.383002 
L 104.097771 239.7195 
L 103.246154 235.4955 
L 102.376882 231.2715 
L 101.488365 227.0475 
L 100.578856 222.8235 
L 100.289714 221.48878 
L 99.672593 218.5995 
L 98.759008 214.3755 
L 97.825591 210.1515 
L 96.870521 205.9275 
L 95.891801 201.7035 
L 95.754857 201.113528 
L 94.915139 197.4795 
L 93.921211 193.2555 
L 92.904054 189.0315 
L 91.861514 184.8075 
L 91.22 182.247032 
L 90.79998 180.5835 
L 89.726108 176.3595 
L 88.62624 172.1355 
L 87.497942 167.9115 
L 86.685143 164.924785 
L 86.341382 163.6875 
L 85.161722 159.4635 
L 83.951653 155.2395 
L 82.708236 151.0155 
L 82.150286 149.142954 
L 81.424604 146.7915 
L 80.102678 142.5675 
L 78.743341 138.3435 
L 77.615429 134.921507 
L 77.336743 134.1195 
L 75.862044 129.8955 
L 74.343024 125.6715 
L 73.080571 122.249507 
L 72.76217 121.4475 
L 71.074542 117.2235 
L 69.331174 112.9995 
L 68.545714 111.126971 
L 67.45718 108.7755 
L 65.460906 104.5515 
L 64.010857 101.564785 
L 63.326196 100.3275 
L 60.953514 96.1035 
L 59.476 93.543032 
L 58.333003 91.8795 
L 55.362075 87.6555 
L 54.941143 87.06556 
L 51.643628 83.4315 
L 50.406286 82.096755 
L 46.616797 79.2075 
L 45.871429 78.646966 
L 41.336571 76.673344 
L 36.801714 76.180863 
L 32.266857 77.135568 
L 28.372656 79.2075 
L 27.732 79.53515 
L 27.732 83.4315 
L 27.732 87.6555 
L 27.732 91.8795 
L 27.732 96.1035 
L 27.732 100.3275 
L 27.732 104.5515 
L 27.732 108.7755 
L 27.732 112.9995 
L 27.732 117.2235 
L 27.732 121.4475 
L 27.732 125.6715 
L 27.732 129.8955 
L 27.732 134.1195 
L 27.732 138.3435 
L 27.732 142.5675 
L 27.732 146.7915 
L 27.732 151.0155 
L 27.732 155.2395 
L 27.732 159.4635 
L 27.732 163.6875 
L 27.732 165.539119 
L 32.266857 164.832212 
L 36.801714 165.444611 
L 41.336571 167.389989 
L 42.064017 167.9115 
L 45.871429 170.658446 
L 47.334631 172.1355 
L 50.406286 175.267274 
L 51.246854 176.3595 
L 54.463528 180.5835 
L 54.941143 181.215763 
L 57.195432 184.8075 
L 59.476 188.504253 
L 59.756488 189.0315 
L 61.993223 193.2555 
L 64.010857 197.137273 
L 64.168579 197.4795 
L 66.109586 201.7035 
L 68.015068 205.9275 
L 68.545714 207.110536 
L 69.781346 210.1515 
L 71.475871 214.3755 
L 73.080571 218.440579 
L 73.138386 218.5995 
L 74.673468 222.8235 
L 76.183639 227.0475 
L 77.615429 231.112579 
L 77.66775 231.2715 
L 79.057534 235.4955 
L 80.425799 239.7195 
L 81.773974 243.9435 
L 82.150286 245.126536 
L 83.064975 248.1675 
L 84.321882 252.3915 
L 85.560767 256.6155 
L 86.685143 260.497273 
L 86.77989 260.8395 
L 87.948496 265.0635 
L 89.10036 269.2875 
L 90.236601 273.5115 
L 91.22 277.208253 
L 91.355271 277.7355 
L 92.437744 281.9595 
L 93.505217 286.1835 
z
M 172.847429 286.1835 
L 177.382286 286.1835 
L 179.992453 286.1835 
L 179.477506 281.9595 
L 178.966864 277.7355 
L 178.460155 273.5115 
L 177.957009 269.2875 
L 177.457069 265.0635 
L 177.382286 264.430398 
L 176.913753 260.8395 
L 176.368196 256.6155 
L 175.828358 252.3915 
L 175.293786 248.1675 
L 174.764041 243.9435 
L 174.238725 239.7195 
L 173.717434 235.4955 
L 173.19979 231.2715 
L 172.847429 228.382309 
L 172.667357 227.0475 
L 172.101169 222.8235 
L 171.541211 218.5995 
L 170.986997 214.3755 
L 170.43806 210.1515 
L 169.893968 205.9275 
L 169.354296 201.7035 
L 168.818639 197.4795 
L 168.312571 193.462672 
L 168.283685 193.2555 
L 167.697304 189.0315 
L 167.117559 184.8075 
L 166.543936 180.5835 
L 165.975936 176.3595 
L 165.413116 172.1355 
L 164.855014 167.9115 
L 164.301214 163.6875 
L 163.777714 159.667439 
L 163.748333 159.4635 
L 163.142417 155.2395 
L 162.543415 151.0155 
L 161.950795 146.7915 
L 161.364039 142.5675 
L 160.782673 138.3435 
L 160.206222 134.1195 
L 159.634256 129.8955 
L 159.242857 126.989357 
L 159.04672 125.6715 
L 158.422039 121.4475 
L 157.804414 117.2235 
L 157.193291 112.9995 
L 156.588144 108.7755 
L 155.988467 104.5515 
L 155.393794 100.3275 
L 154.803671 96.1035 
L 154.708 95.417113 
L 154.164109 91.8795 
L 153.521434 87.6555 
L 152.885785 83.4315 
L 152.256613 79.2075 
L 151.633384 74.9835 
L 151.015585 70.7595 
L 150.402726 66.5355 
L 150.173143 64.947252 
L 149.752939 62.3115 
L 149.085417 58.0875 
L 148.425334 53.8635 
L 147.7721 49.6395 
L 147.125158 45.4155 
L 146.48397 41.1915 
L 145.848023 36.9675 
L 145.638286 35.569536 
L 145.171063 32.7435 
L 144.479061 28.5195 
L 143.794758 24.2955 
L 143.11754 20.0715 
L 141.103429 20.0715 
L 136.568571 20.0715 
L 132.033714 20.0715 
L 127.498857 20.0715 
L 124.178634 20.0715 
L 125.027132 24.2955 
L 125.898738 28.5195 
L 126.795844 32.7435 
L 127.498857 35.971639 
L 127.682969 36.9675 
L 128.469808 41.1915 
L 129.275715 45.4155 
L 130.102579 49.6395 
L 130.95254 53.8635 
L 131.827959 58.0875 
L 132.033714 59.06778 
L 132.608803 62.3115 
L 133.371332 66.5355 
L 134.152438 70.7595 
L 134.953974 74.9835 
L 135.777971 79.2075 
L 136.568571 83.148373 
L 136.616603 83.4315 
L 137.336043 87.6555 
L 138.071575 91.8795 
L 138.824783 96.1035 
L 139.597379 100.3275 
L 140.391288 104.5515 
L 141.103429 108.242455 
L 141.190236 108.7755 
L 141.881516 112.9995 
L 142.587764 117.2235 
L 143.310411 121.4475 
L 144.051026 125.6715 
L 144.81137 129.8955 
L 145.593352 134.1195 
L 145.638286 134.360153 
L 146.262888 138.3435 
L 146.938188 142.5675 
L 147.628348 146.7915 
L 148.334787 151.0155 
L 149.05905 155.2395 
L 149.802837 159.4635 
L 150.173143 161.530438 
L 150.498114 163.6875 
L 151.141574 167.9115 
L 151.798226 172.1355 
L 152.469282 176.3595 
L 153.156083 180.5835 
L 153.860114 184.8075 
L 154.583013 189.0315 
L 154.708 189.754126 
L 155.216298 193.2555 
L 155.839316 197.4795 
L 156.474821 201.7035 
L 157.123963 205.9275 
L 157.787974 210.1515 
L 158.468235 214.3755 
L 159.166273 218.5995 
L 159.242857 219.058689 
L 159.769705 222.8235 
L 160.37045 227.0475 
L 160.982741 231.2715 
L 161.607627 235.4955 
L 162.246246 239.7195 
L 162.899843 243.9435 
L 163.569795 248.1675 
L 163.777714 249.461912 
L 164.173063 252.3915 
L 164.750223 256.6155 
L 165.337831 260.8395 
L 165.936817 265.0635 
L 166.548192 269.2875 
L 167.173067 273.5115 
L 167.812649 277.7355 
L 168.312571 280.970448 
L 168.441343 281.9595 
L 168.99425 286.1835 
z
M 281.684 286.1835 
L 286.218857 286.1835 
L 290.753714 286.1835 
L 295.288571 286.1835 
L 299.823429 286.1835 
L 304.358286 286.1835 
L 307.205058 286.1835 
L 306.897359 281.9595 
L 306.595176 277.7355 
L 306.298088 273.5115 
L 306.005705 269.2875 
L 305.717658 265.0635 
L 305.43361 260.8395 
L 305.153242 256.6155 
L 304.876239 252.3915 
L 304.602349 248.1675 
L 304.358286 244.367667 
L 304.322181 243.9435 
L 303.966642 239.7195 
L 303.62034 235.4955 
L 303.282544 231.2715 
L 302.952585 227.0475 
L 302.629852 222.8235 
L 302.313783 218.5995 
L 302.003861 214.3755 
L 301.699603 210.1515 
L 301.400576 205.9275 
L 301.106363 201.7035 
L 300.816583 197.4795 
L 300.530884 193.2555 
L 300.248934 189.0315 
L 299.970408 184.8075 
L 299.823429 182.563649 
L 299.648863 180.5835 
L 299.283536 176.3595 
L 298.928356 172.1355 
L 298.582495 167.9115 
L 298.245192 163.6875 
L 297.91576 159.4635 
L 297.593566 155.2395 
L 297.278033 151.0155 
L 296.968633 146.7915 
L 296.664873 142.5675 
L 296.366306 138.3435 
L 296.072511 134.1195 
L 295.783101 129.8955 
L 295.497719 125.6715 
L 295.288571 122.54491 
L 295.187415 121.4475 
L 294.804506 117.2235 
L 294.433448 112.9995 
L 294.073221 108.7755 
L 293.722899 104.5515 
L 293.381655 100.3275 
L 293.048728 96.1035 
L 292.723431 91.8795 
L 292.405137 87.6555 
L 292.093266 83.4315 
L 291.787305 79.2075 
L 291.48676 74.9835 
L 291.191191 70.7595 
L 290.900182 66.5355 
L 290.753714 64.392302 
L 290.553236 62.3115 
L 290.155916 58.0875 
L 289.772085 53.8635 
L 289.400519 49.6395 
L 289.040118 45.4155 
L 288.689899 41.1915 
L 288.348975 36.9675 
L 288.016546 32.7435 
L 287.691882 28.5195 
L 287.37433 24.2955 
L 287.063281 20.0715 
L 286.218857 20.0715 
L 281.684 20.0715 
L 277.149143 20.0715 
L 272.614286 20.0715 
L 268.079429 20.0715 
L 265.392014 20.0715 
L 265.628702 24.2955 
L 265.861334 28.5195 
L 266.090282 32.7435 
L 266.31589 36.9675 
L 266.538459 41.1915 
L 266.758258 45.4155 
L 266.975548 49.6395 
L 267.190566 53.8635 
L 267.403525 58.0875 
L 267.614623 62.3115 
L 267.824048 66.5355 
L 268.031977 70.7595 
L 268.079429 71.715029 
L 268.296399 74.9835 
L 268.571262 79.2075 
L 268.839297 83.4315 
L 269.101115 87.6555 
L 269.35727 91.8795 
L 269.608257 96.1035 
L 269.854521 100.3275 
L 270.096478 104.5515 
L 270.334492 108.7755 
L 270.568893 112.9995 
L 270.799993 117.2235 
L 271.028082 121.4475 
L 271.253413 125.6715 
L 271.476231 129.8955 
L 271.69676 134.1195 
L 271.915204 138.3435 
L 272.131765 142.5675 
L 272.346607 146.7915 
L 272.559904 151.0155 
L 272.614286 152.08512 
L 272.822447 155.2395 
L 273.096384 159.4635 
L 273.364122 163.6875 
L 273.626182 167.9115 
L 273.883045 172.1355 
L 274.135117 176.3595 
L 274.382799 180.5835 
L 274.62645 184.8075 
L 274.866397 189.0315 
L 275.102939 193.2555 
L 275.336361 197.4795 
L 275.566915 201.7035 
L 275.794854 205.9275 
L 276.020379 210.1515 
L 276.243711 214.3755 
L 276.465039 218.5995 
L 276.684548 222.8235 
L 276.902408 227.0475 
L 277.118781 231.2715 
L 277.149143 231.859617 
L 277.387078 235.4955 
L 277.658373 239.7195 
L 277.924041 243.9435 
L 278.184539 248.1675 
L 278.440273 252.3915 
L 278.691615 256.6155 
L 278.938911 260.8395 
L 279.182473 265.0635 
L 279.422602 269.2875 
L 279.659572 273.5115 
L 279.893619 277.7355 
L 280.124988 281.9595 
L 280.353898 286.1835 
z
" clip-path="url(#p48ff952cb2)" style="fill: #f6a37a"/>
    <path d="M 113.894286 286.1835 
L 118.429143 286.1835 
L 122.964 286.1835 
L 127.498857 286.1835 
L 132.033714 286.1835 
L 136.568571 286.1835 
L 141.103429 286.1835 
L 145.638286 286.1835 
L 150.173143 286.1835 
L 154.708 286.1835 
L 159.242857 286.1835 
L 163.777714 286.1835 
L 168.312571 286.1835 
L 168.99425 286.1835 
L 168.441343 281.9595 
L 168.312571 280.970448 
L 167.812649 277.7355 
L 167.173067 273.5115 
L 166.548192 269.2875 
L 165.936817 265.0635 
L 165.337831 260.8395 
L 164.750223 256.6155 
L 164.173063 252.3915 
L 163.777714 249.461912 
L 163.569795 248.1675 
L 162.899843 243.9435 
L 162.246246 239.7195 
L 161.607627 235.4955 
L 160.982741 231.2715 
L 160.37045 227.0475 
L 159.769705 222.8235 
L 159.242857 219.058689 
L 159.166273 218.5995 
L 158.468235 214.3755 
L 157.787974 210.1515 
L 157.123963 205.9275 
L 156.474821 201.7035 
L 155.839316 197.4795 
L 155.216298 193.2555 
L 154.708 189.754126 
L 154.583013 189.0315 
L 153.860114 184.8075 
L 153.156083 180.5835 
L 152.469282 176.3595 
L 151.798226 172.1355 
L 151.141574 167.9115 
L 150.498114 163.6875 
L 150.173143 161.530438 
L 149.802837 159.4635 
L 149.05905 155.2395 
L 148.334787 151.0155 
L 147.628348 146.7915 
L 146.938188 142.5675 
L 146.262888 138.3435 
L 145.638286 134.360153 
L 145.593352 134.1195 
L 144.81137 129.8955 
L 144.051026 125.6715 
L 143.310411 121.4475 
L 142.587764 117.2235 
L 141.881516 112.9995 
L 141.190236 108.7755 
L 141.103429 108.242455 
L 140.391288 104.5515 
L 139.597379 100.3275 
L 138.824783 96.1035 
L 138.071575 91.8795 
L 137.336043 87.6555 
L 136.616603 83.4315 
L 136.568571 83.148373 
L 135.777971 79.2075 
L 134.953974 74.9835 
L 134.152438 70.7595 
L 133.371332 66.5355 
L 132.608803 62.3115 
L 132.033714 59.06778 
L 131.827959 58.0875 
L 130.95254 53.8635 
L 130.102579 49.6395 
L 129.275715 45.4155 
L 128.469808 41.1915 
L 127.682969 36.9675 
L 127.498857 35.971639 
L 126.795844 32.7435 
L 125.898738 28.5195 
L 125.027132 24.2955 
L 124.178634 20.0715 
L 122.964 20.0715 
L 118.429143 20.0715 
L 113.894286 20.0715 
L 109.359429 20.0715 
L 104.824571 20.0715 
L 100.289714 20.0715 
L 95.754857 20.0715 
L 91.22 20.0715 
L 86.685143 20.0715 
L 82.150286 20.0715 
L 77.615429 20.0715 
L 73.080571 20.0715 
L 68.545714 20.0715 
L 64.010857 20.0715 
L 59.476 20.0715 
L 54.941143 20.0715 
L 50.406286 20.0715 
L 45.871429 20.0715 
L 41.336571 20.0715 
L 36.801714 20.0715 
L 32.266857 20.0715 
L 27.732 20.0715 
L 27.732 24.2955 
L 27.732 28.5195 
L 27.732 32.7435 
L 27.732 36.9675 
L 27.732 41.1915 
L 27.732 45.4155 
L 27.732 49.6395 
L 27.732 53.8635 
L 27.732 58.0875 
L 27.732 62.3115 
L 27.732 66.5355 
L 27.732 70.7595 
L 27.732 74.9835 
L 27.732 79.2075 
L 27.732 79.53515 
L 28.372656 79.2075 
L 32.266857 77.135568 
L 36.801714 76.180863 
L 41.336571 76.673344 
L 45.871429 78.646966 
L 46.616797 79.2075 
L 50.406286 82.096755 
L 51.643628 83.4315 
L 54.941143 87.06556 
L 55.362075 87.6555 
L 58.333003 91.8795 
L 59.476 93.543032 
L 60.953514 96.1035 
L 63.326196 100.3275 
L 64.010857 101.564785 
L 65.460906 104.5515 
L 67.45718 108.7755 
L 68.545714 111.126971 
L 69.331174 112.9995 
L 71.074542 117.2235 
L 72.76217 121.4475 
L 73.080571 122.249507 
L 74.343024 125.6715 
L 75.862044 129.8955 
L 77.336743 134.1195 
L 77.615429 134.921507 
L 78.743341 138.3435 
L 80.102678 142.5675 
L 81.424604 146.7915 
L 82.150286 149.142954 
L 82.708236 151.0155 
L 83.951653 155.2395 
L 85.161722 159.4635 
L 86.341382 163.6875 
L 86.685143 164.924785 
L 87.497942 167.9115 
L 88.62624 172.1355 
L 89.726108 176.3595 
L 90.79998 180.5835 
L 91.22 182.247032 
L 91.861514 184.8075 
L 92.904054 189.0315 
L 93.921211 193.2555 
L 94.915139 197.4795 
L 95.754857 201.113528 
L 95.891801 201.7035 
L 96.870521 205.9275 
L 97.825591 210.1515 
L 98.759008 214.3755 
L 99.672593 218.5995 
L 100.289714 221.48878 
L 100.578856 222.8235 
L 101.488365 227.0475 
L 102.376882 231.2715 
L 103.246154 235.4955 
L 104.097771 239.7195 
L 104.824571 243.383002 
L 104.938407 243.9435 
L 105.795448 248.1675 
L 106.633131 252.3915 
L 107.453036 256.6155 
L 108.25663 260.8395 
L 109.045235 265.0635 
L 109.359429 266.753379 
L 109.845 269.2875 
L 110.644351 273.5115 
L 111.426706 277.7355 
L 112.193435 281.9595 
L 112.945799 286.1835 
z
" clip-path="url(#p48ff952cb2)" style="fill: #f8d4bc"/>
   </g>
   <g id="patch_3">
    <path d="M 27.732 286.1835 
L 27.732 20.0715 
" style="fill: none; stroke: #262626; stroke-linejoin: miter; stroke-linecap: square"/>
   </g>
   <g id="patch_4">
    <path d="M 313.428 286.1835 
L 313.428 20.0715 
" style="fill: none; stroke: #262626; stroke-linejoin: miter; stroke-linecap: square"/>
   </g>
   <g id="patch_5">
    <path d="M 27.732 286.1835 
L 313.428 286.1835 
" style="fill: none; stroke: #262626; stroke-linejoin: miter; stroke-linecap: square"/>
   </g>
   <g id="patch_6">
    <path d="M 27.732 20.0715 
L 313.428 20.0715 
" style="fill: none; stroke: #262626; stroke-linejoin: miter; stroke-linecap: square"/>
   </g>
   <g id="text_13">
    <!-- True solution -->
    <g style="fill: #262626" transform="translate(143.0145 14.0715) scale(0.096 -0.096)">
     <defs>
      <path id="ArialMT-54" d="M 1659 0 
L 1659 4041 
L 150 4041 
L 150 4581 
L 3781 4581 
L 3781 4041 
L 2266 4041 
L 2266 0 
L 1659 0 
z
" transform="scale(0.015625)"/>
      <path id="ArialMT-72" d="M 416 0 
L 416 3319 
L 922 3319 
L 922 2816 
Q 1116 3169 1280 3281 
Q 1444 3394 1641 3394 
Q 1925 3394 2219 3213 
L 2025 2691 
Q 1819 2813 1613 2813 
Q 1428 2813 1281 2702 
Q 1134 2591 1072 2394 
Q 978 2094 978 1738 
L 978 0 
L 416 0 
z
" transform="scale(0.015625)"/>
      <path id="ArialMT-75" d="M 2597 0 
L 2597 488 
Q 2209 -75 1544 -75 
Q 1250 -75 995 37 
Q 741 150 617 320 
Q 494 491 444 738 
Q 409 903 409 1263 
L 409 3319 
L 972 3319 
L 972 1478 
Q 972 1038 1006 884 
Q 1059 663 1231 536 
Q 1403 409 1656 409 
Q 1909 409 2131 539 
Q 2353 669 2445 892 
Q 2538 1116 2538 1541 
L 2538 3319 
L 3100 3319 
L 3100 0 
L 2597 0 
z
" transform="scale(0.015625)"/>
      <path id="ArialMT-65" d="M 2694 1069 
L 3275 997 
Q 3138 488 2766 206 
Q 2394 -75 1816 -75 
Q 1088 -75 661 373 
Q 234 822 234 1631 
Q 234 2469 665 2931 
Q 1097 3394 1784 3394 
Q 2450 3394 2872 2941 
Q 3294 2488 3294 1666 
Q 3294 1616 3291 1516 
L 816 1516 
Q 847 969 1125 678 
Q 1403 388 1819 388 
Q 2128 388 2347 550 
Q 2566 713 2694 1069 
z
M 847 1978 
L 2700 1978 
Q 2663 2397 2488 2606 
Q 2219 2931 1791 2931 
Q 1403 2931 1139 2672 
Q 875 2413 847 1978 
z
" transform="scale(0.015625)"/>
      <path id="ArialMT-20" transform="scale(0.015625)"/>
      <path id="ArialMT-73" d="M 197 991 
L 753 1078 
Q 800 744 1014 566 
Q 1228 388 1613 388 
Q 2000 388 2187 545 
Q 2375 703 2375 916 
Q 2375 1106 2209 1216 
Q 2094 1291 1634 1406 
Q 1016 1563 777 1677 
Q 538 1791 414 1992 
Q 291 2194 291 2438 
Q 291 2659 392 2848 
Q 494 3038 669 3163 
Q 800 3259 1026 3326 
Q 1253 3394 1513 3394 
Q 1903 3394 2198 3281 
Q 2494 3169 2634 2976 
Q 2775 2784 2828 2463 
L 2278 2388 
Q 2241 2644 2061 2787 
Q 1881 2931 1553 2931 
Q 1166 2931 1000 2803 
Q 834 2675 834 2503 
Q 834 2394 903 2306 
Q 972 2216 1119 2156 
Q 1203 2125 1616 2013 
Q 2213 1853 2448 1751 
Q 2684 1650 2818 1456 
Q 2953 1263 2953 975 
Q 2953 694 2789 445 
Q 2625 197 2315 61 
Q 2006 -75 1616 -75 
Q 969 -75 630 194 
Q 291 463 197 991 
z
" transform="scale(0.015625)"/>
      <path id="ArialMT-6f" d="M 213 1659 
Q 213 2581 725 3025 
Q 1153 3394 1769 3394 
Q 2453 3394 2887 2945 
Q 3322 2497 3322 1706 
Q 3322 1066 3130 698 
Q 2938 331 2570 128 
Q 2203 -75 1769 -75 
Q 1072 -75 642 372 
Q 213 819 213 1659 
z
M 791 1659 
Q 791 1022 1069 705 
Q 1347 388 1769 388 
Q 2188 388 2466 706 
Q 2744 1025 2744 1678 
Q 2744 2294 2464 2611 
Q 2184 2928 1769 2928 
Q 1347 2928 1069 2612 
Q 791 2297 791 1659 
z
" transform="scale(0.015625)"/>
      <path id="ArialMT-6c" d="M 409 0 
L 409 4581 
L 972 4581 
L 972 0 
L 409 0 
z
" transform="scale(0.015625)"/>
      <path id="ArialMT-74" d="M 1650 503 
L 1731 6 
Q 1494 -44 1306 -44 
Q 1000 -44 831 53 
Q 663 150 594 308 
Q 525 466 525 972 
L 525 2881 
L 113 2881 
L 113 3319 
L 525 3319 
L 525 4141 
L 1084 4478 
L 1084 3319 
L 1650 3319 
L 1650 2881 
L 1084 2881 
L 1084 941 
Q 1084 700 1114 631 
Q 1144 563 1211 522 
Q 1278 481 1403 481 
Q 1497 481 1650 503 
z
" transform="scale(0.015625)"/>
      <path id="ArialMT-69" d="M 425 3934 
L 425 4581 
L 988 4581 
L 988 3934 
L 425 3934 
z
M 425 0 
L 425 3319 
L 988 3319 
L 988 0 
L 425 0 
z
" transform="scale(0.015625)"/>
      <path id="ArialMT-6e" d="M 422 0 
L 422 3319 
L 928 3319 
L 928 2847 
Q 1294 3394 1984 3394 
Q 2284 3394 2536 3286 
Q 2788 3178 2913 3003 
Q 3038 2828 3088 2588 
Q 3119 2431 3119 2041 
L 3119 0 
L 2556 0 
L 2556 2019 
Q 2556 2363 2490 2533 
Q 2425 2703 2258 2804 
Q 2091 2906 1866 2906 
Q 1506 2906 1245 2678 
Q 984 2450 984 1813 
L 984 0 
L 422 0 
z
" transform="scale(0.015625)"/>
     </defs>
     <use xlink:href="#ArialMT-54"/>
     <use xlink:href="#ArialMT-72" x="57.333984"/>
     <use xlink:href="#ArialMT-75" x="90.634766"/>
     <use xlink:href="#ArialMT-65" x="146.25"/>
     <use xlink:href="#ArialMT-20" x="201.865234"/>
     <use xlink:href="#ArialMT-73" x="229.648438"/>
     <use xlink:href="#ArialMT-6f" x="279.648438"/>
     <use xlink:href="#ArialMT-6c" x="335.263672"/>
     <use xlink:href="#ArialMT-75" x="357.480469"/>
     <use xlink:href="#ArialMT-74" x="413.095703"/>
     <use xlink:href="#ArialMT-69" x="440.878906"/>
     <use xlink:href="#ArialMT-6f" x="463.095703"/>
     <use xlink:href="#ArialMT-6e" x="518.710938"/>
    </g>
   </g>
  </g>
  <g id="axes_2">
   <g id="patch_7">
    <path d="M 331.284 286.1835 
L 344.5896 286.1835 
L 344.5896 20.0715 
L 331.284 20.0715 
z
" style="fill: #ffffff"/>
   </g>
   <g id="matplotlib.axis_3"/>
   <g id="matplotlib.axis_4">
    <g id="ytick_7">
     <g id="line2d_13">
      <defs>
       <path id="mb6834d93cb" d="M 0 0 
L 4.8 0 
" style="stroke: #262626"/>
      </defs>
      <g>
       <use xlink:href="#mb6834d93cb" x="344.5896" y="286.1835" style="fill: #262626; stroke: #262626"/>
      </g>
     </g>
     <g id="text_14">
      <!-- 0.8 -->
      <g style="fill: #262626" transform="translate(352.8896 289.332937) scale(0.088 -0.088)">
       <defs>
        <path id="ArialMT-2212" d="M 3381 1997 
L 356 1997 
L 356 2522 
L 3381 2522 
L 3381 1997 
z
" transform="scale(0.015625)"/>
       </defs>
       <use xlink:href="#ArialMT-2212"/>
       <use xlink:href="#ArialMT-30" x="58.398438"/>
       <use xlink:href="#ArialMT-2e" x="114.013672"/>
       <use xlink:href="#ArialMT-38" x="141.796875"/>
      </g>
     </g>
    </g>
    <g id="ytick_8">
     <g id="line2d_14">
      <g>
       <use xlink:href="#mb6834d93cb" x="344.5896" y="252.9195" style="fill: #262626; stroke: #262626"/>
      </g>
     </g>
     <g id="text_15">
      <!-- 0.6 -->
      <g style="fill: #262626" transform="translate(352.8896 256.068937) scale(0.088 -0.088)">
       <use xlink:href="#ArialMT-2212"/>
       <use xlink:href="#ArialMT-30" x="58.398438"/>
       <use xlink:href="#ArialMT-2e" x="114.013672"/>
       <use xlink:href="#ArialMT-36" x="141.796875"/>
      </g>
     </g>
    </g>
    <g id="ytick_9">
     <g id="line2d_15">
      <g>
       <use xlink:href="#mb6834d93cb" x="344.5896" y="219.6555" style="fill: #262626; stroke: #262626"/>
      </g>
     </g>
     <g id="text_16">
      <!-- 0.4 -->
      <g style="fill: #262626" transform="translate(352.8896 222.804937) scale(0.088 -0.088)">
       <use xlink:href="#ArialMT-2212"/>
       <use xlink:href="#ArialMT-30" x="58.398438"/>
       <use xlink:href="#ArialMT-2e" x="114.013672"/>
       <use xlink:href="#ArialMT-34" x="141.796875"/>
      </g>
     </g>
    </g>
    <g id="ytick_10">
     <g id="line2d_16">
      <g>
       <use xlink:href="#mb6834d93cb" x="344.5896" y="186.3915" style="fill: #262626; stroke: #262626"/>
      </g>
     </g>
     <g id="text_17">
      <!-- 0.2 -->
      <g style="fill: #262626" transform="translate(352.8896 189.540937) scale(0.088 -0.088)">
       <use xlink:href="#ArialMT-2212"/>
       <use xlink:href="#ArialMT-30" x="58.398438"/>
       <use xlink:href="#ArialMT-2e" x="114.013672"/>
       <use xlink:href="#ArialMT-32" x="141.796875"/>
      </g>
     </g>
    </g>
    <g id="ytick_11">
     <g id="line2d_17">
      <g>
       <use xlink:href="#mb6834d93cb" x="344.5896" y="153.1275" style="fill: #262626; stroke: #262626"/>
      </g>
     </g>
     <g id="text_18">
      <!-- 0.0 -->
      <g style="fill: #262626" transform="translate(352.8896 156.276937) scale(0.088 -0.088)">
       <use xlink:href="#ArialMT-30"/>
       <use xlink:href="#ArialMT-2e" x="55.615234"/>
       <use xlink:href="#ArialMT-30" x="83.398438"/>
      </g>
     </g>
    </g>
    <g id="ytick_12">
     <g id="line2d_18">
      <g>
       <use xlink:href="#mb6834d93cb" x="344.5896" y="119.8635" style="fill: #262626; stroke: #262626"/>
      </g>
     </g>
     <g id="text_19">
      <!-- 0.2 -->
      <g style="fill: #262626" transform="translate(352.8896 123.012937) scale(0.088 -0.088)">
       <use xlink:href="#ArialMT-30"/>
       <use xlink:href="#ArialMT-2e" x="55.615234"/>
       <use xlink:href="#ArialMT-32" x="83.398438"/>
      </g>
     </g>
    </g>
    <g id="ytick_13">
     <g id="line2d_19">
      <g>
       <use xlink:href="#mb6834d93cb" x="344.5896" y="86.5995" style="fill: #262626; stroke: #262626"/>
      </g>
     </g>
     <g id="text_20">
      <!-- 0.4 -->
      <g style="fill: #262626" transform="translate(352.8896 89.748937) scale(0.088 -0.088)">
       <use xlink:href="#ArialMT-30"/>
       <use xlink:href="#ArialMT-2e" x="55.615234"/>
       <use xlink:href="#ArialMT-34" x="83.398438"/>
      </g>
     </g>
    </g>
    <g id="ytick_14">
     <g id="line2d_20">
      <g>
       <use xlink:href="#mb6834d93cb" x="344.5896" y="53.3355" style="fill: #262626; stroke: #262626"/>
      </g>
     </g>
     <g id="text_21">
      <!-- 0.6 -->
      <g style="fill: #262626" transform="translate(352.8896 56.484937) scale(0.088 -0.088)">
       <use xlink:href="#ArialMT-30"/>
       <use xlink:href="#ArialMT-2e" x="55.615234"/>
       <use xlink:href="#ArialMT-36" x="83.398438"/>
      </g>
     </g>
    </g>
    <g id="ytick_15">
     <g id="line2d_21">
      <g>
       <use xlink:href="#mb6834d93cb" x="344.5896" y="20.0715" style="fill: #262626; stroke: #262626"/>
      </g>
     </g>
     <g id="text_22">
      <!-- 0.8 -->
      <g style="fill: #262626" transform="translate(352.8896 23.220937) scale(0.088 -0.088)">
       <use xlink:href="#ArialMT-30"/>
       <use xlink:href="#ArialMT-2e" x="55.615234"/>
       <use xlink:href="#ArialMT-38" x="83.398438"/>
      </g>
     </g>
    </g>
   </g>
   <g id="QuadMesh_1">
    <path d="M 331.284 286.1835 
L 344.5896 286.1835 
L 344.5896 252.9195 
L 331.284 252.9195 
L 331.284 286.1835 
" clip-path="url(#pf0acd6fbf2)" style="fill: #170f28"/>
    <path d="M 331.284 252.9195 
L 344.5896 252.9195 
L 344.5896 219.6555 
L 331.284 219.6555 
L 331.284 252.9195 
" clip-path="url(#pf0acd6fbf2)" style="fill: #481c48"/>
    <path d="M 331.284 219.6555 
L 344.5896 219.6555 
L 344.5896 186.3915 
L 331.284 186.3915 
L 331.284 219.6555 
" clip-path="url(#pf0acd6fbf2)" style="fill: #7b1f59"/>
    <path d="M 331.284 186.3915 
L 344.5896 186.3915 
L 344.5896 153.1275 
L 331.284 153.1275 
L 331.284 186.3915 
" clip-path="url(#pf0acd6fbf2)" style="fill: #b21758"/>
    <path d="M 331.284 153.1275 
L 344.5896 153.1275 
L 344.5896 119.8635 
L 331.284 119.8635 
L 331.284 153.1275 
" clip-path="url(#pf0acd6fbf2)" style="fill: #df2f44"/>
    <path d="M 331.284 119.8635 
L 344.5896 119.8635 
L 344.5896 86.5995 
L 331.284 86.5995 
L 331.284 119.8635 
" clip-path="url(#pf0acd6fbf2)" style="fill: #f26b49"/>
    <path d="M 331.284 86.5995 
L 344.5896 86.5995 
L 344.5896 53.3355 
L 331.284 53.3355 
L 331.284 86.5995 
" clip-path="url(#pf0acd6fbf2)" style="fill: #f6a37a"/>
    <path d="M 331.284 53.3355 
L 344.5896 53.3355 
L 344.5896 20.0715 
L 331.284 20.0715 
L 331.284 53.3355 
" clip-path="url(#pf0acd6fbf2)" style="fill: #f8d4bc"/>
   </g>
   <g id="LineCollection_1"/>
   <g id="patch_8">
    <path d="M 331.284 286.1835 
L 337.9368 286.1835 
L 344.5896 286.1835 
L 344.5896 20.0715 
L 337.9368 20.0715 
L 331.284 20.0715 
L 331.284 286.1835 
z
" style="fill: none; stroke: #262626; stroke-linejoin: miter; stroke-linecap: square"/>
   </g>
  </g>
 </g>
 <defs>
  <clipPath id="p48ff952cb2">
   <rect x="27.732" y="20.0715" width="285.696" height="266.112"/>
  </clipPath>
  <clipPath id="pf0acd6fbf2">
   <rect x="331.284" y="20.0715" width="13.3056" height="266.112"/>
  </clipPath>
 </defs>
</svg>