<?xml version="1.0" encoding="UTF-8" standalone="no"?>
<!DOCTYPE svg PUBLIC "-//W3C//DTD SVG 1.1//EN"
 "http://www.w3.org/Graphics/SVG/1.1/DTD/svg11.dtd">
<!-- Generated by graphviz version 3.0.0 (20220226.1711)
 -->
<!-- Title: Trailer Pages: 1 -->
<svg width="350pt" height="260pt"
 viewBox="0.00 0.00 350.00 260.00" xmlns="http://www.w3.org/2000/svg" xmlns:xlink="http://www.w3.org/1999/xlink">
<g id="graph0" class="graph" transform="scale(1 1) rotate(0) translate(4 256)">
<title>Trailer</title>
<polygon fill="white" stroke="transparent" points="-4,4 -4,-256 346,-256 346,4 -4,4"/>
<!-- k -->
<g id="node1" class="node">
<title>k</title>
<ellipse fill="lightgrey" stroke="black" cx="27" cy="-162" rx="27" ry="18"/>
<text text-anchor="middle" x="27" y="-158.3" font-family="Times,serif" font-size="14.00">k</text>
</g>
<!-- X -->
<g id="node9" class="node">
<title>X</title>
<ellipse fill="none" stroke="black" cx="135" cy="-90" rx="27" ry="18"/>
<text text-anchor="middle" x="135" y="-86.3" font-family="Times,serif" font-size="14.00">X</text>
</g>
<!-- k&#45;&gt;X -->
<g id="edge6" class="edge">
<title>k&#45;&gt;X</title>
<path fill="none" stroke="black" d="M45.81,-148.81C63,-137.67 88.62,-121.06 107.99,-108.5"/>
<polygon fill="black" stroke="black" points="109.92,-111.43 116.4,-103.05 106.11,-105.56 109.92,-111.43"/>
</g>
<!-- m -->
<g id="node2" class="node">
<title>m</title>
<ellipse fill="none" stroke="black" cx="243" cy="-162" rx="27" ry="18"/>
<text text-anchor="middle" x="243" y="-158.3" font-family="Times,serif" font-size="14.00">m</text>
</g>
<!-- mm -->
<g id="node3" class="node">
<title>mm</title>
<ellipse fill="lightgrey" stroke="black" cx="243" cy="-90" rx="27" ry="18"/>
<text text-anchor="start" x="232" y="-87.3" font-family="Times,serif" font-size="14.00">m</text>
<text text-anchor="start" x="244" y="-87.3" font-family="Times,serif" baseline-shift="sub" font-size="14.00">m</text>
</g>
<!-- m&#45;&gt;mm -->
<g id="edge8" class="edge">
<title>m&#45;&gt;mm</title>
<path fill="none" stroke="black" d="M243,-143.7C243,-135.98 243,-126.71 243,-118.11"/>
<polygon fill="black" stroke="black" points="246.5,-118.1 243,-108.1 239.5,-118.1 246.5,-118.1"/>
</g>
<!-- m&#45;&gt;X -->
<g id="edge7" class="edge">
<title>m&#45;&gt;X</title>
<path fill="none" stroke="black" d="M224.19,-148.81C207,-137.67 181.38,-121.06 162.01,-108.5"/>
<polygon fill="black" stroke="black" points="163.89,-105.56 153.6,-103.05 160.08,-111.43 163.89,-105.56"/>
</g>
<!-- y0 -->
<g id="node4" class="node">
<title>y0</title>
<ellipse fill="none" stroke="black" cx="99" cy="-162" rx="27" ry="18"/>
<text text-anchor="start" x="92" y="-159.3" font-family="Times,serif" font-size="14.00">y</text>
<text text-anchor="start" x="99" y="-159.3" font-family="Times,serif" baseline-shift="sub" font-size="14.00">0</text>
</g>
<!-- y0&#45;&gt;X -->
<g id="edge4" class="edge">
<title>y0&#45;&gt;X</title>
<path fill="none" stroke="black" d="M107.35,-144.76C111.71,-136.28 117.15,-125.71 122.04,-116.2"/>
<polygon fill="black" stroke="black" points="125.23,-117.64 126.7,-107.15 119.01,-114.44 125.23,-117.64"/>
</g>
<!-- omega -->
<g id="node5" class="node">
<title>omega</title>
<ellipse fill="none" stroke="black" cx="171" cy="-162" rx="27" ry="18"/>
<text text-anchor="start" x="166" y="-158.3" font-family="Times,serif" font-size="14.00">ω</text>
</g>
<!-- omega&#45;&gt;X -->
<g id="edge5" class="edge">
<title>omega&#45;&gt;X</title>
<path fill="none" stroke="black" d="M162.65,-144.76C158.29,-136.28 152.85,-125.71 147.96,-116.2"/>
<polygon fill="black" stroke="black" points="150.99,-114.44 143.3,-107.15 144.77,-117.64 150.99,-114.44"/>
</g>
<!-- v -->
<g id="node6" class="node">
<title>v</title>
<ellipse fill="none" stroke="black" cx="279" cy="-234" rx="27" ry="18"/>
<text text-anchor="middle" x="279" y="-230.3" font-family="Times,serif" font-size="14.00">v</text>
</g>
<!-- v&#45;&gt;omega -->
<g id="edge1" class="edge">
<title>v&#45;&gt;omega</title>
<path fill="none" stroke="black" d="M260.19,-220.81C243,-209.67 217.38,-193.06 198.01,-180.5"/>
<polygon fill="black" stroke="black" points="199.89,-177.56 189.6,-175.05 196.08,-183.43 199.89,-177.56"/>
</g>
<!-- vm -->
<g id="node7" class="node">
<title>vm</title>
<ellipse fill="lightgrey" stroke="black" cx="315" cy="-162" rx="27" ry="18"/>
<text text-anchor="start" x="306.5" y="-159.3" font-family="Times,serif" font-size="14.00">v</text>
<text text-anchor="start" x="313.5" y="-159.3" font-family="Times,serif" baseline-shift="sub" font-size="14.00">m</text>
</g>
<!-- v&#45;&gt;vm -->
<g id="edge2" class="edge">
<title>v&#45;&gt;vm</title>
<path fill="none" stroke="black" d="M287.35,-216.76C291.71,-208.28 297.15,-197.71 302.04,-188.2"/>
<polygon fill="black" stroke="black" points="305.23,-189.64 306.7,-179.15 299.01,-186.44 305.23,-189.64"/>
</g>
<!-- L -->
<g id="node8" class="node">
<title>L</title>
<ellipse fill="none" stroke="black" cx="171" cy="-234" rx="27" ry="18"/>
<text text-anchor="middle" x="171" y="-230.3" font-family="Times,serif" font-size="14.00">L</text>
</g>
<!-- L&#45;&gt;omega -->
<g id="edge3" class="edge">
<title>L&#45;&gt;omega</title>
<path fill="none" stroke="black" d="M171,-215.7C171,-207.98 171,-198.71 171,-190.11"/>
<polygon fill="black" stroke="black" points="174.5,-190.1 171,-180.1 167.5,-190.1 174.5,-190.1"/>
</g>
<!-- Xm -->
<g id="node10" class="node">
<title>Xm</title>
<ellipse fill="lightgrey" stroke="black" cx="135" cy="-18" rx="27" ry="18"/>
<text text-anchor="start" x="125" y="-15.3" font-family="Times,serif" font-size="14.00">X</text>
<text text-anchor="start" x="135" y="-15.3" font-family="Times,serif" baseline-shift="sub" font-size="14.00">m</text>
</g>
<!-- X&#45;&gt;Xm -->
<g id="edge9" class="edge">
<title>X&#45;&gt;Xm</title>
<path fill="none" stroke="black" d="M135,-71.7C135,-63.98 135,-54.71 135,-46.11"/>
<polygon fill="black" stroke="black" points="138.5,-46.1 135,-36.1 131.5,-46.1 138.5,-46.1"/>
</g>
</g>
</svg>
