<?xml version="1.0" encoding="UTF-8" standalone="no"?>
<!DOCTYPE svg PUBLIC "-//W3C//DTD SVG 1.1//EN"
 "http://www.w3.org/Graphics/SVG/1.1/DTD/svg11.dtd">
<!-- Generated by graphviz version 3.0.0 (20220226.1711)
 -->
<!-- Title: gp Pages: 1 -->
<svg width="170pt" height="188pt"
 viewBox="0.00 0.00 170.00 188.00" xmlns="http://www.w3.org/2000/svg" xmlns:xlink="http://www.w3.org/1999/xlink">
<g id="graph0" class="graph" transform="scale(1 1) rotate(0) translate(4 184)">
<title>gp</title>
<polygon fill="white" stroke="transparent" points="-4,4 -4,-184 166,-184 166,4 -4,4"/>
<!-- sigma -->
<g id="node1" class="node">
<title>sigma</title>
<ellipse fill="none" stroke="black" cx="27" cy="-90" rx="27" ry="18"/>
<text text-anchor="start" x="23" y="-86.3" font-family="Times,serif" font-size="14.00">σ</text>
</g>
<!-- y1n -->
<g id="node5" class="node">
<title>y1n</title>
<ellipse fill="lightgrey" stroke="black" cx="63" cy="-18" rx="27" ry="18"/>
<text text-anchor="start" x="51.5" y="-15.3" font-family="Times,serif" font-weight="bold" font-size="14.00">y</text>
<text text-anchor="start" x="58.5" y="-15.3" font-family="Times,serif" baseline-shift="sub" font-size="14.00">1:n</text>
</g>
<!-- sigma&#45;&gt;y1n -->
<g id="edge4" class="edge">
<title>sigma&#45;&gt;y1n</title>
<path fill="none" stroke="black" d="M35.35,-72.76C39.71,-64.28 45.15,-53.71 50.04,-44.2"/>
<polygon fill="black" stroke="black" points="53.23,-45.64 54.7,-35.15 47.01,-42.44 53.23,-45.64"/>
</g>
<!-- theta -->
<g id="node2" class="node">
<title>theta</title>
<ellipse fill="none" stroke="black" cx="63" cy="-162" rx="27" ry="18"/>
<text text-anchor="start" x="59.5" y="-158.3" font-family="Times,serif" font-size="14.00">θ</text>
</g>
<!-- f -->
<g id="node4" class="node">
<title>f</title>
<ellipse fill="none" stroke="black" cx="99" cy="-90" rx="27" ry="18"/>
<text text-anchor="start" x="88.5" y="-87.3" font-family="Times,serif" font-weight="bold" font-size="14.00">f</text>
<text text-anchor="start" x="93.5" y="-87.3" font-family="Times,serif" baseline-shift="sub" font-size="14.00">1:n</text>
</g>
<!-- theta&#45;&gt;f -->
<g id="edge1" class="edge">
<title>theta&#45;&gt;f</title>
<path fill="none" stroke="black" d="M71.35,-144.76C75.71,-136.28 81.15,-125.71 86.04,-116.2"/>
<polygon fill="black" stroke="black" points="89.23,-117.64 90.7,-107.15 83.01,-114.44 89.23,-117.64"/>
</g>
<!-- x1n -->
<g id="node3" class="node">
<title>x1n</title>
<ellipse fill="lightgrey" stroke="black" cx="135" cy="-162" rx="27" ry="18"/>
<text text-anchor="start" x="123.5" y="-159.3" font-family="Times,serif" font-weight="bold" font-size="14.00">x</text>
<text text-anchor="start" x="130.5" y="-159.3" font-family="Times,serif" baseline-shift="sub" font-size="14.00">1:n</text>
</g>
<!-- x1n&#45;&gt;f -->
<g id="edge2" class="edge">
<title>x1n&#45;&gt;f</title>
<path fill="none" stroke="black" d="M126.65,-144.76C122.29,-136.28 116.85,-125.71 111.96,-116.2"/>
<polygon fill="black" stroke="black" points="114.99,-114.44 107.3,-107.15 108.77,-117.64 114.99,-114.44"/>
</g>
<!-- f&#45;&gt;y1n -->
<g id="edge3" class="edge">
<title>f&#45;&gt;y1n</title>
<path fill="none" stroke="black" d="M90.65,-72.76C86.29,-64.28 80.85,-53.71 75.96,-44.2"/>
<polygon fill="black" stroke="black" points="78.99,-42.44 71.3,-35.15 72.77,-45.64 78.99,-42.44"/>
</g>
</g>
</svg>
